<?xml version="1.0" encoding="UTF-8" standalone="no"?>
<!DOCTYPE svg PUBLIC "-//W3C//DTD SVG 1.1//EN"
 "http://www.w3.org/Graphics/SVG/1.1/DTD/svg11.dtd">
<!-- Generated by graphviz version 2.26.3 (20100126.1600)
 -->
<!-- Title: G Pages: 1 -->
<svg width="3618pt" height="204pt"
 viewBox="0.00 0.00 3618.00 204.00" xmlns="http://www.w3.org/2000/svg" xmlns:xlink="http://www.w3.org/1999/xlink">
<g id="graph1" class="graph" transform="scale(1 1) rotate(0) translate(4 200)">
<title>G</title>
<polygon fill="white" stroke="white" points="-4,5 -4,-200 3615,-200 3615,5 -4,5"/>
<!-- Node1 -->
<g id="node1" class="node"><title>Node1</title>
<polygon fill="#bfbfbf" stroke="black" points="1001,-174.5 1001,-195.5 1085,-195.5 1085,-174.5 1001,-174.5"/>
<text text-anchor="middle" x="1043" y="-182.5" font-family="Helvetica,sans-Serif" font-size="10.00">AlertWindow.h</text>
</g>
<!-- Node2 -->
<g id="node3" class="node"><title>Node2</title>
<a xlink:href="CardWindow_8cpp.htm" target="_top" xlink:title="CardWindow.cpp">
<polygon fill="white" stroke="black" points="597.5,-0.5 597.5,-21.5 694.5,-21.5 694.5,-0.5 597.5,-0.5"/>
<text text-anchor="middle" x="646" y="-8.5" font-family="Helvetica,sans-Serif" font-size="10.00">CardWindow.cpp</text>
</a>
</g>
<!-- Node1&#45;&gt;Node2 -->
<g id="edge2" class="edge"><title>Node1&#45;&gt;Node2</title>
<path fill="none" stroke="midnightblue" d="M1008.61,-170.438C986.892,-161.212 958.268,-148.988 933,-138 835.065,-95.4112 718.859,-43.5915 669.767,-21.6404"/>
<polygon fill="midnightblue" stroke="midnightblue" points="1007.49,-173.765 1018.06,-174.451 1010.22,-167.322 1007.49,-173.765"/>
</g>
<!-- Node3 -->
<g id="node5" class="node"><title>Node3</title>
<a xlink:href="DockModeWindow_8cpp.htm" target="_top" xlink:title="DockModeWindow.cpp">
<polygon fill="white" stroke="black" points="711.5,-0.5 711.5,-21.5 836.5,-21.5 836.5,-0.5 711.5,-0.5"/>
<text text-anchor="middle" x="774" y="-8.5" font-family="Helvetica,sans-Serif" font-size="10.00">DockModeWindow.cpp</text>
</a>
</g>
<!-- Node1&#45;&gt;Node3 -->
<g id="edge4" class="edge"><title>Node1&#45;&gt;Node3</title>
<path fill="none" stroke="midnightblue" d="M1017.91,-168.768C963.535,-133.599 836.099,-51.168 790.549,-21.7046"/>
<polygon fill="midnightblue" stroke="midnightblue" points="1016.28,-171.885 1026.58,-174.377 1020.08,-166.007 1016.28,-171.885"/>
</g>
<!-- Node4 -->
<g id="node7" class="node"><title>Node4</title>
<a xlink:href="LockWindow_8cpp.htm" target="_top" xlink:title="LockWindow.cpp">
<polygon fill="white" stroke="black" points="854,-0.5 854,-21.5 950,-21.5 950,-0.5 854,-0.5"/>
<text text-anchor="middle" x="902" y="-8.5" font-family="Helvetica,sans-Serif" font-size="10.00">LockWindow.cpp</text>
</a>
</g>
<!-- Node1&#45;&gt;Node4 -->
<g id="edge6" class="edge"><title>Node1&#45;&gt;Node4</title>
<path fill="none" stroke="midnightblue" d="M1028.05,-166.549C998.706,-130.339 934.392,-50.9732 910.855,-21.9277"/>
<polygon fill="midnightblue" stroke="midnightblue" points="1025.38,-168.812 1034.39,-174.377 1030.82,-164.405 1025.38,-168.812"/>
</g>
<!-- Node5 -->
<g id="node9" class="node"><title>Node5</title>
<a xlink:href="AlertWindow_8cpp.htm" target="_top" xlink:title="AlertWindow.cpp">
<polygon fill="white" stroke="black" points="1209.5,-116.5 1209.5,-137.5 1304.5,-137.5 1304.5,-116.5 1209.5,-116.5"/>
<text text-anchor="middle" x="1257" y="-124.5" font-family="Helvetica,sans-Serif" font-size="10.00">AlertWindow.cpp</text>
</a>
</g>
<!-- Node1&#45;&gt;Node5 -->
<g id="edge8" class="edge"><title>Node1&#45;&gt;Node5</title>
<path fill="none" stroke="midnightblue" d="M1091.66,-171.812C1129.97,-161.428 1182.66,-147.149 1218.17,-137.523"/>
<polygon fill="midnightblue" stroke="midnightblue" points="1090.49,-168.503 1081.75,-174.497 1092.32,-175.259 1090.49,-168.503"/>
</g>
<!-- Node6 -->
<g id="node11" class="node"><title>Node6</title>
<a xlink:href="DashboardWindowManager_8cpp.htm" target="_top" xlink:title="DashboardWindowManager.cpp">
<polygon fill="white" stroke="black" points="968,-0.5 968,-21.5 1136,-21.5 1136,-0.5 968,-0.5"/>
<text text-anchor="middle" x="1052" y="-8.5" font-family="Helvetica,sans-Serif" font-size="10.00">DashboardWindowManager.cpp</text>
</a>
</g>
<!-- Node1&#45;&gt;Node6 -->
<g id="edge10" class="edge"><title>Node1&#45;&gt;Node6</title>
<path fill="none" stroke="midnightblue" d="M1043.53,-164.294C1044.23,-139.143 1045.67,-95.4324 1048,-58 1048.77,-45.5764 1050.04,-31.3365 1050.94,-21.8169"/>
<polygon fill="midnightblue" stroke="midnightblue" points="1040.02,-164.364 1043.25,-174.455 1047.02,-164.552 1040.02,-164.364"/>
</g>
<!-- Node7 -->
<g id="node13" class="node"><title>Node7</title>
<a xlink:href="DashboardWindowManagerStates_8cpp.htm" target="_top" xlink:title="DashboardWindowManagerStates.cpp">
<polygon fill="white" stroke="black" points="1154,-0.5 1154,-21.5 1352,-21.5 1352,-0.5 1154,-0.5"/>
<text text-anchor="middle" x="1253" y="-8.5" font-family="Helvetica,sans-Serif" font-size="10.00">DashboardWindowManagerStates.cpp</text>
</a>
</g>
<!-- Node1&#45;&gt;Node7 -->
<g id="edge12" class="edge"><title>Node1&#45;&gt;Node7</title>
<path fill="none" stroke="midnightblue" d="M1050.78,-164.798C1057.21,-150.007 1067.48,-130.134 1081,-116 1124.16,-70.8664 1190.76,-37.6242 1227.12,-21.6335"/>
<polygon fill="midnightblue" stroke="midnightblue" points="1047.52,-163.514 1046.94,-174.093 1053.99,-166.184 1047.52,-163.514"/>
</g>
<!-- Node8 -->
<g id="node15" class="node"><title>Node8</title>
<a xlink:href="VolumeControlAlertWindow_8h.htm" target="_top" xlink:title="VolumeControlAlertWindow.h">
<polygon fill="white" stroke="black" points="261.5,-116.5 261.5,-137.5 414.5,-137.5 414.5,-116.5 261.5,-116.5"/>
<text text-anchor="middle" x="338" y="-124.5" font-family="Helvetica,sans-Serif" font-size="10.00">VolumeControlAlertWindow.h</text>
</a>
</g>
<!-- Node1&#45;&gt;Node8 -->
<g id="edge14" class="edge"><title>Node1&#45;&gt;Node8</title>
<path fill="none" stroke="midnightblue" d="M990.448,-180.677C867.154,-170.533 558.87,-145.171 414.648,-133.306"/>
<polygon fill="midnightblue" stroke="midnightblue" points="990.496,-184.192 1000.75,-181.524 991.07,-177.216 990.496,-184.192"/>
</g>
<!-- Node14 -->
<g id="node28" class="node"><title>Node14</title>
<a xlink:href="QmlAlertWindow_8h.htm" target="_top" xlink:title="QmlAlertWindow.h">
<polygon fill="white" stroke="black" points="1089.5,-116.5 1089.5,-137.5 1192.5,-137.5 1192.5,-116.5 1089.5,-116.5"/>
<text text-anchor="middle" x="1141" y="-124.5" font-family="Helvetica,sans-Serif" font-size="10.00">QmlAlertWindow.h</text>
</a>
</g>
<!-- Node1&#45;&gt;Node14 -->
<g id="edge28" class="edge"><title>Node1&#45;&gt;Node14</title>
<path fill="none" stroke="midnightblue" d="M1069.86,-169.101C1086.82,-159.066 1108.25,-146.381 1123.14,-137.571"/>
<polygon fill="midnightblue" stroke="midnightblue" points="1067.8,-166.257 1060.97,-174.362 1071.36,-172.281 1067.8,-166.257"/>
</g>
<!-- Node30 -->
<g id="node68" class="node"><title>Node30</title>
<a xlink:href="WindowManagerMinimal_8cpp.htm" target="_top" xlink:title="WindowManagerMinimal.cpp">
<polygon fill="white" stroke="black" points="1322,-116.5 1322,-137.5 1474,-137.5 1474,-116.5 1322,-116.5"/>
<text text-anchor="middle" x="1398" y="-124.5" font-family="Helvetica,sans-Serif" font-size="10.00">WindowManagerMinimal.cpp</text>
</a>
</g>
<!-- Node1&#45;&gt;Node30 -->
<g id="edge76" class="edge"><title>Node1&#45;&gt;Node30</title>
<path fill="none" stroke="midnightblue" d="M1095.27,-176.461C1158.53,-166.124 1265.07,-148.719 1333.41,-137.553"/>
<polygon fill="midnightblue" stroke="midnightblue" points="1094.42,-173.052 1085.12,-178.119 1095.55,-179.961 1094.42,-173.052"/>
</g>
<!-- Node31 -->
<g id="node70" class="node"><title>Node31</title>
<a xlink:href="WebAppMgrProxy_8cpp.htm" target="_top" xlink:title="WebAppMgrProxy.cpp">
<polygon fill="white" stroke="black" points="1492,-116.5 1492,-137.5 1614,-137.5 1614,-116.5 1492,-116.5"/>
<text text-anchor="middle" x="1553" y="-124.5" font-family="Helvetica,sans-Serif" font-size="10.00">WebAppMgrProxy.cpp</text>
</a>
</g>
<!-- Node1&#45;&gt;Node31 -->
<g id="edge78" class="edge"><title>Node1&#45;&gt;Node31</title>
<path fill="none" stroke="midnightblue" d="M1095.38,-180.25C1177.94,-172.573 1343.31,-156.425 1483,-138 1485.93,-137.614 1488.92,-137.204 1491.94,-136.777"/>
<polygon fill="midnightblue" stroke="midnightblue" points="1094.88,-176.781 1085.25,-181.188 1095.53,-183.751 1094.88,-176.781"/>
</g>
<!-- Node9 -->
<g id="node17" class="node"><title>Node9</title>
<a xlink:href="NativeAlertManager_8h.htm" target="_top" xlink:title="NativeAlertManager.h">
<polygon fill="white" stroke="black" points="278.5,-58.5 278.5,-79.5 397.5,-79.5 397.5,-58.5 278.5,-58.5"/>
<text text-anchor="middle" x="338" y="-66.5" font-family="Helvetica,sans-Serif" font-size="10.00">NativeAlertManager.h</text>
</a>
</g>
<!-- Node8&#45;&gt;Node9 -->
<g id="edge16" class="edge"><title>Node8&#45;&gt;Node9</title>
<path fill="none" stroke="midnightblue" d="M338,-106.191C338,-97.1684 338,-86.9941 338,-79.5707"/>
<polygon fill="midnightblue" stroke="midnightblue" points="334.5,-106.362 338,-116.362 341.5,-106.362 334.5,-106.362"/>
</g>
<!-- Node12 -->
<g id="node23" class="node"><title>Node12</title>
<a xlink:href="VolumeControlAlertWindow_8cpp.htm" target="_top" xlink:title="VolumeControlAlertWindow.cpp">
<polygon fill="white" stroke="black" points="0,-0.5 0,-21.5 164,-21.5 164,-0.5 0,-0.5"/>
<text text-anchor="middle" x="82" y="-8.5" font-family="Helvetica,sans-Serif" font-size="10.00">VolumeControlAlertWindow.cpp</text>
</a>
</g>
<!-- Node8&#45;&gt;Node12 -->
<g id="edge26" class="edge"><title>Node8&#45;&gt;Node12</title>
<path fill="none" stroke="midnightblue" d="M305.158,-112.119C252.602,-88.3042 150.879,-42.211 105.198,-21.5117"/>
<polygon fill="midnightblue" stroke="midnightblue" points="303.822,-115.356 314.375,-116.295 306.711,-108.98 303.822,-115.356"/>
</g>
<!-- Node10 -->
<g id="node19" class="node"><title>Node10</title>
<a xlink:href="WindowServer_8cpp.htm" target="_top" xlink:title="WindowServer.cpp">
<polygon fill="white" stroke="black" points="475.5,-0.5 475.5,-21.5 580.5,-21.5 580.5,-0.5 475.5,-0.5"/>
<text text-anchor="middle" x="528" y="-8.5" font-family="Helvetica,sans-Serif" font-size="10.00">WindowServer.cpp</text>
</a>
</g>
<!-- Node9&#45;&gt;Node10 -->
<g id="edge18" class="edge"><title>Node9&#45;&gt;Node10</title>
<path fill="none" stroke="midnightblue" d="M382.072,-55.5464C416.012,-45.1857 462.264,-31.0668 493.528,-21.5231"/>
<polygon fill="midnightblue" stroke="midnightblue" points="380.95,-52.2294 372.408,-58.4966 382.994,-58.9244 380.95,-52.2294"/>
</g>
<!-- Node11 -->
<g id="node21" class="node"><title>Node11</title>
<a xlink:href="NativeAlertManager_8cpp.htm" target="_top" xlink:title="NativeAlertManager.cpp">
<polygon fill="white" stroke="black" points="181.5,-0.5 181.5,-21.5 312.5,-21.5 312.5,-0.5 181.5,-0.5"/>
<text text-anchor="middle" x="247" y="-8.5" font-family="Helvetica,sans-Serif" font-size="10.00">NativeAlertManager.cpp</text>
</a>
</g>
<!-- Node9&#45;&gt;Node11 -->
<g id="edge20" class="edge"><title>Node9&#45;&gt;Node11</title>
<path fill="none" stroke="midnightblue" d="M312.616,-52.8215C296.942,-42.8312 277.28,-30.2993 263.585,-21.5707"/>
<polygon fill="midnightblue" stroke="midnightblue" points="310.995,-55.9386 321.309,-58.3619 314.758,-50.0356 310.995,-55.9386"/>
</g>
<!-- Node9&#45;&gt;Node12 -->
<g id="edge22" class="edge"><title>Node9&#45;&gt;Node12</title>
<path fill="none" stroke="midnightblue" d="M281.829,-56.2737C235.842,-45.8548 171.565,-31.2921 128.447,-21.5231"/>
<polygon fill="midnightblue" stroke="midnightblue" points="281.114,-59.7004 291.64,-58.4966 282.661,-52.8734 281.114,-59.7004"/>
</g>
<!-- Node13 -->
<g id="node25" class="node"><title>Node13</title>
<a xlink:href="WindowServerLuna_8cpp.htm" target="_top" xlink:title="WindowServerLuna.cpp">
<polygon fill="white" stroke="black" points="330,-0.5 330,-21.5 458,-21.5 458,-0.5 330,-0.5"/>
<text text-anchor="middle" x="394" y="-8.5" font-family="Helvetica,sans-Serif" font-size="10.00">WindowServerLuna.cpp</text>
</a>
</g>
<!-- Node9&#45;&gt;Node13 -->
<g id="edge24" class="edge"><title>Node9&#45;&gt;Node13</title>
<path fill="none" stroke="midnightblue" d="M355.265,-51.118C364.612,-41.4377 375.839,-29.8098 383.794,-21.5707"/>
<polygon fill="midnightblue" stroke="midnightblue" points="352.699,-48.7368 348.271,-58.3619 357.735,-53.599 352.699,-48.7368"/>
</g>
<!-- Node15 -->
<g id="node30" class="node"><title>Node15</title>
<a xlink:href="WindowServerLuna_8h.htm" target="_top" xlink:title="WindowServerLuna.h">
<polygon fill="white" stroke="black" points="1724.5,-58.5 1724.5,-79.5 1841.5,-79.5 1841.5,-58.5 1724.5,-58.5"/>
<text text-anchor="middle" x="1783" y="-66.5" font-family="Helvetica,sans-Serif" font-size="10.00">WindowServerLuna.h</text>
</a>
</g>
<!-- Node14&#45;&gt;Node15 -->
<g id="edge30" class="edge"><title>Node14&#45;&gt;Node15</title>
<path fill="none" stroke="midnightblue" d="M1202.58,-115.89C1398.97,-90.4639 1620.6,-77.1248 1724.14,-71.789"/>
<polygon fill="midnightblue" stroke="midnightblue" points="1202.12,-112.42 1192.66,-117.188 1203.03,-119.361 1202.12,-112.42"/>
</g>
<!-- Node28 -->
<g id="node62" class="node"><title>Node28</title>
<a xlink:href="QmlAlertWindow_8cpp.htm" target="_top" xlink:title="QmlAlertWindow.cpp">
<polygon fill="white" stroke="black" points="3496,-0.5 3496,-21.5 3610,-21.5 3610,-0.5 3496,-0.5"/>
<text text-anchor="middle" x="3553" y="-8.5" font-family="Helvetica,sans-Serif" font-size="10.00">QmlAlertWindow.cpp</text>
</a>
</g>
<!-- Node14&#45;&gt;Node28 -->
<g id="edge74" class="edge"><title>Node14&#45;&gt;Node28</title>
<path fill="none" stroke="midnightblue" d="M1202.87,-115.981C1496.89,-86.8222 3237.22,-47.8494 3487,-22 3489.89,-21.7011 3492.84,-21.3556 3495.82,-20.9755"/>
<polygon fill="midnightblue" stroke="midnightblue" points="1202.22,-112.53 1192.64,-117.057 1202.95,-119.492 1202.22,-112.53"/>
</g>
<!-- Node15&#45;&gt;Node2 -->
<g id="edge42" class="edge"><title>Node15&#45;&gt;Node2</title>
<path fill="none" stroke="midnightblue" d="M1714.11,-67.3294C1508.29,-62.1281 900.046,-45.1731 703,-22 700.297,-21.6822 697.531,-21.309 694.744,-20.8958"/>
<polygon fill="midnightblue" stroke="midnightblue" points="1714.1,-70.8302 1724.19,-67.5828 1714.28,-63.8324 1714.1,-70.8302"/>
</g>
<!-- Node15&#45;&gt;Node3 -->
<g id="edge52" class="edge"><title>Node15&#45;&gt;Node3</title>
<path fill="none" stroke="midnightblue" d="M1714.05,-67.9892C1558.6,-65.1759 1169.06,-55.1322 845,-22 842.27,-21.7209 839.485,-21.4085 836.674,-21.0707"/>
<polygon fill="midnightblue" stroke="midnightblue" points="1714.33,-71.4946 1724.39,-68.1719 1714.46,-64.4957 1714.33,-71.4946"/>
</g>
<!-- Node15&#45;&gt;Node4 -->
<g id="edge60" class="edge"><title>Node15&#45;&gt;Node4</title>
<path fill="none" stroke="midnightblue" d="M1714.03,-68.1748C1572.14,-65.7937 1237.48,-56.6553 959,-22 956.1,-21.6391 953.125,-21.2187 950.13,-20.7571"/>
<polygon fill="midnightblue" stroke="midnightblue" points="1714.26,-71.6789 1724.31,-68.3411 1714.37,-64.6798 1714.26,-71.6789"/>
</g>
<!-- Node15&#45;&gt;Node6 -->
<g id="edge64" class="edge"><title>Node15&#45;&gt;Node6</title>
<path fill="none" stroke="midnightblue" d="M1714.19,-64.9313C1597.14,-57.7867 1351.85,-41.8428 1145,-22 1142.09,-21.7206 1139.12,-21.426 1136.13,-21.1199"/>
<polygon fill="midnightblue" stroke="midnightblue" points="1714.24,-68.4407 1724.43,-65.5541 1714.66,-61.4536 1714.24,-68.4407"/>
</g>
<!-- Node15&#45;&gt;Node7 -->
<g id="edge66" class="edge"><title>Node15&#45;&gt;Node7</title>
<path fill="none" stroke="midnightblue" d="M1714.1,-61.4602C1621,-51.2717 1454.57,-33.059 1349.18,-21.5257"/>
<polygon fill="midnightblue" stroke="midnightblue" points="1713.93,-64.9627 1724.26,-62.5714 1714.7,-58.0042 1713.93,-64.9627"/>
</g>
<!-- Node15&#45;&gt;Node10 -->
<g id="edge38" class="edge"><title>Node15&#45;&gt;Node10</title>
<path fill="none" stroke="midnightblue" d="M1714.12,-67.5495C1494.05,-62.716 809.384,-46.0899 589,-22 586.219,-21.696 583.373,-21.3402 580.505,-20.9464"/>
<polygon fill="midnightblue" stroke="midnightblue" points="1714.18,-71.0513 1724.25,-67.7707 1714.33,-64.053 1714.18,-71.0513"/>
</g>
<!-- Node15&#45;&gt;Node13 -->
<g id="edge72" class="edge"><title>Node15&#45;&gt;Node13</title>
<path fill="none" stroke="midnightblue" d="M1714.38,-67.583C1480.1,-62.5829 712.752,-44.8292 467,-22 464.065,-21.7273 461.068,-21.4149 458.044,-21.072"/>
<polygon fill="midnightblue" stroke="midnightblue" points="1714.4,-71.0841 1724.48,-67.7975 1714.55,-64.0857 1714.4,-71.0841"/>
</g>
<!-- Node16 -->
<g id="node32" class="node"><title>Node16</title>
<a xlink:href="ApplicationManager_8cpp.htm" target="_top" xlink:title="ApplicationManager.cpp">
<polygon fill="white" stroke="black" points="1469.5,-0.5 1469.5,-21.5 1600.5,-21.5 1600.5,-0.5 1469.5,-0.5"/>
<text text-anchor="middle" x="1535" y="-8.5" font-family="Helvetica,sans-Serif" font-size="10.00">ApplicationManager.cpp</text>
</a>
</g>
<!-- Node15&#45;&gt;Node16 -->
<g id="edge32" class="edge"><title>Node15&#45;&gt;Node16</title>
<path fill="none" stroke="midnightblue" d="M1728.3,-56.2081C1683.77,-45.7938 1621.68,-31.2716 1580,-21.5231"/>
<polygon fill="midnightblue" stroke="midnightblue" points="1727.55,-59.6273 1738.09,-58.4966 1729.15,-52.8113 1727.55,-59.6273"/>
</g>
<!-- Node17 -->
<g id="node34" class="node"><title>Node17</title>
<a xlink:href="ApplicationManagerService_8cpp.htm" target="_top" xlink:title="ApplicationManagerService.cpp">
<polygon fill="white" stroke="black" points="1618,-0.5 1618,-21.5 1784,-21.5 1784,-0.5 1618,-0.5"/>
<text text-anchor="middle" x="1701" y="-8.5" font-family="Helvetica,sans-Serif" font-size="10.00">ApplicationManagerService.cpp</text>
</a>
</g>
<!-- Node15&#45;&gt;Node17 -->
<g id="edge34" class="edge"><title>Node15&#45;&gt;Node17</title>
<path fill="none" stroke="midnightblue" d="M1759.73,-52.5407C1745.67,-42.5973 1728.17,-30.2177 1715.94,-21.5707"/>
<polygon fill="midnightblue" stroke="midnightblue" points="1757.77,-55.4447 1767.96,-58.3619 1761.82,-49.7298 1757.77,-55.4447"/>
</g>
<!-- Node18 -->
<g id="node36" class="node"><title>Node18</title>
<a xlink:href="SystemUiController_8cpp.htm" target="_top" xlink:title="SystemUiController.cpp">
<polygon fill="white" stroke="black" points="1801.5,-0.5 1801.5,-21.5 1928.5,-21.5 1928.5,-0.5 1801.5,-0.5"/>
<text text-anchor="middle" x="1865" y="-8.5" font-family="Helvetica,sans-Serif" font-size="10.00">SystemUiController.cpp</text>
</a>
</g>
<!-- Node15&#45;&gt;Node18 -->
<g id="edge36" class="edge"><title>Node15&#45;&gt;Node18</title>
<path fill="none" stroke="midnightblue" d="M1806.27,-52.5407C1820.33,-42.5973 1837.83,-30.2177 1850.06,-21.5707"/>
<polygon fill="midnightblue" stroke="midnightblue" points="1804.18,-49.7298 1798.04,-58.3619 1808.23,-55.4447 1804.18,-49.7298"/>
</g>
<!-- Node19 -->
<g id="node39" class="node"><title>Node19</title>
<a xlink:href="CardHostWindow_8cpp.htm" target="_top" xlink:title="CardHostWindow.cpp">
<polygon fill="white" stroke="black" points="1945.5,-0.5 1945.5,-21.5 2064.5,-21.5 2064.5,-0.5 1945.5,-0.5"/>
<text text-anchor="middle" x="2005" y="-8.5" font-family="Helvetica,sans-Serif" font-size="10.00">CardHostWindow.cpp</text>
</a>
</g>
<!-- Node15&#45;&gt;Node19 -->
<g id="edge40" class="edge"><title>Node15&#45;&gt;Node19</title>
<path fill="none" stroke="midnightblue" d="M1832.97,-55.9447C1872.76,-45.5501 1927.72,-31.1897 1964.72,-21.5231"/>
<polygon fill="midnightblue" stroke="midnightblue" points="1831.99,-52.5825 1823.2,-58.4966 1833.76,-59.3551 1831.99,-52.5825"/>
</g>
<!-- Node20 -->
<g id="node42" class="node"><title>Node20</title>
<a xlink:href="EmulatedCardWindow_8cpp.htm" target="_top" xlink:title="EmulatedCardWindow.cpp">
<polygon fill="white" stroke="black" points="2082,-0.5 2082,-21.5 2222,-21.5 2222,-0.5 2082,-0.5"/>
<text text-anchor="middle" x="2152" y="-8.5" font-family="Helvetica,sans-Serif" font-size="10.00">EmulatedCardWindow.cpp</text>
</a>
</g>
<!-- Node15&#45;&gt;Node20 -->
<g id="edge44" class="edge"><title>Node15&#45;&gt;Node20</title>
<path fill="none" stroke="midnightblue" d="M1851.86,-58.1759C1918.5,-47.7016 2018.86,-31.9273 2084.9,-21.5476"/>
<polygon fill="midnightblue" stroke="midnightblue" points="1851.21,-54.7352 1841.88,-59.7456 1852.3,-61.6503 1851.21,-54.7352"/>
</g>
<!-- Node21 -->
<g id="node44" class="node"><title>Node21</title>
<a xlink:href="DockModeAppMenuContainer_8cpp.htm" target="_top" xlink:title="DockModeAppMenuContainer.cpp">
<polygon fill="white" stroke="black" points="2239.5,-0.5 2239.5,-21.5 2418.5,-21.5 2418.5,-0.5 2239.5,-0.5"/>
<text text-anchor="middle" x="2329" y="-8.5" font-family="Helvetica,sans-Serif" font-size="10.00">DockModeAppMenuContainer.cpp</text>
</a>
</g>
<!-- Node15&#45;&gt;Node21 -->
<g id="edge46" class="edge"><title>Node15&#45;&gt;Node21</title>
<path fill="none" stroke="midnightblue" d="M1851.84,-61.9345C1939.8,-52.8702 2096.76,-36.5755 2231,-22 2233.72,-21.7043 2236.49,-21.4026 2239.28,-21.0968"/>
<polygon fill="midnightblue" stroke="midnightblue" points="1851.31,-58.4704 1841.72,-62.9766 1852.03,-65.4336 1851.31,-58.4704"/>
</g>
<!-- Node22 -->
<g id="node46" class="node"><title>Node22</title>
<a xlink:href="DockModeMenuManager_8cpp.htm" target="_top" xlink:title="DockModeMenuManager.cpp">
<polygon fill="white" stroke="black" points="2436,-0.5 2436,-21.5 2592,-21.5 2592,-0.5 2436,-0.5"/>
<text text-anchor="middle" x="2514" y="-8.5" font-family="Helvetica,sans-Serif" font-size="10.00">DockModeMenuManager.cpp</text>
</a>
</g>
<!-- Node15&#45;&gt;Node22 -->
<g id="edge48" class="edge"><title>Node15&#45;&gt;Node22</title>
<path fill="none" stroke="midnightblue" d="M1852.02,-65.165C1970.01,-58.3399 2218.01,-42.823 2427,-22 2429.88,-21.7132 2432.81,-21.4084 2435.77,-21.0898"/>
<polygon fill="midnightblue" stroke="midnightblue" points="1851.48,-61.6903 1841.69,-65.7591 1851.88,-68.6787 1851.48,-61.6903"/>
</g>
<!-- Node23 -->
<g id="node48" class="node"><title>Node23</title>
<a xlink:href="DockModePositionManager_8cpp.htm" target="_top" xlink:title="DockModePositionManager.cpp">
<polygon fill="white" stroke="black" points="2609.5,-0.5 2609.5,-21.5 2776.5,-21.5 2776.5,-0.5 2609.5,-0.5"/>
<text text-anchor="middle" x="2693" y="-8.5" font-family="Helvetica,sans-Serif" font-size="10.00">DockModePositionManager.cpp</text>
</a>
</g>
<!-- Node15&#45;&gt;Node23 -->
<g id="edge50" class="edge"><title>Node15&#45;&gt;Node23</title>
<path fill="none" stroke="midnightblue" d="M1851.82,-66.4788C1992.66,-61.0036 2323.84,-46.5086 2601,-22 2603.72,-21.7591 2606.49,-21.5017 2609.29,-21.2311"/>
<polygon fill="midnightblue" stroke="midnightblue" points="1851.47,-62.9898 1841.61,-66.873 1851.74,-69.9846 1851.47,-62.9898"/>
</g>
<!-- Node24 -->
<g id="node51" class="node"><title>Node24</title>
<a xlink:href="DockModeWindowManager_8cpp.htm" target="_top" xlink:title="DockModeWindowManager.cpp">
<polygon fill="white" stroke="black" points="2793.5,-0.5 2793.5,-21.5 2960.5,-21.5 2960.5,-0.5 2793.5,-0.5"/>
<text text-anchor="middle" x="2877" y="-8.5" font-family="Helvetica,sans-Serif" font-size="10.00">DockModeWindowManager.cpp</text>
</a>
</g>
<!-- Node15&#45;&gt;Node24 -->
<g id="edge54" class="edge"><title>Node15&#45;&gt;Node24</title>
<path fill="none" stroke="midnightblue" d="M1851.88,-67.4807C2014.5,-63.5201 2434.95,-51.0982 2785,-22 2787.73,-21.7735 2790.49,-21.5285 2793.29,-21.2686"/>
<polygon fill="midnightblue" stroke="midnightblue" points="1851.46,-63.9897 1841.54,-67.7294 1851.62,-70.9877 1851.46,-63.9897"/>
</g>
<!-- Node25 -->
<g id="node53" class="node"><title>Node25</title>
<a xlink:href="FullEraseConfirmationWindow_8cpp.htm" target="_top" xlink:title="FullEraseConfirmationWindow.cpp">
<polygon fill="white" stroke="black" points="2977.5,-0.5 2977.5,-21.5 3154.5,-21.5 3154.5,-0.5 2977.5,-0.5"/>
<text text-anchor="middle" x="3066" y="-8.5" font-family="Helvetica,sans-Serif" font-size="10.00">FullEraseConfirmationWindow.cpp</text>
</a>
</g>
<!-- Node15&#45;&gt;Node25 -->
<g id="edge56" class="edge"><title>Node15&#45;&gt;Node25</title>
<path fill="none" stroke="midnightblue" d="M1851.96,-68.0335C2034.48,-65.0928 2545.24,-54.3808 2969,-22 2971.79,-21.7869 2974.62,-21.5556 2977.48,-21.3094"/>
<polygon fill="midnightblue" stroke="midnightblue" points="1851.65,-64.5379 1841.71,-68.196 1851.76,-71.537 1851.65,-64.5379"/>
</g>
<!-- Node26 -->
<g id="node55" class="node"><title>Node26</title>
<a xlink:href="dimensionsglobal_8cpp.htm" target="_top" xlink:title="dimensionsglobal.cpp">
<polygon fill="white" stroke="black" points="3171.5,-0.5 3171.5,-21.5 3288.5,-21.5 3288.5,-0.5 3171.5,-0.5"/>
<text text-anchor="middle" x="3230" y="-8.5" font-family="Helvetica,sans-Serif" font-size="10.00">dimensionsglobal.cpp</text>
</a>
</g>
<!-- Node15&#45;&gt;Node26 -->
<g id="edge58" class="edge"><title>Node15&#45;&gt;Node26</title>
<path fill="none" stroke="midnightblue" d="M1851.69,-67.832C2093.44,-63.5379 2904.3,-47.5353 3163,-22 3165.7,-21.7337 3168.45,-21.4264 3171.23,-21.0878"/>
<polygon fill="midnightblue" stroke="midnightblue" points="1851.56,-64.3335 1841.63,-68.0097 1851.69,-71.3324 1851.56,-64.3335"/>
</g>
<!-- Node27 -->
<g id="node58" class="node"><title>Node27</title>
<a xlink:href="DashboardWindowContainer_8cpp.htm" target="_top" xlink:title="DashboardWindowContainer.cpp">
<polygon fill="white" stroke="black" points="3306,-0.5 3306,-21.5 3478,-21.5 3478,-0.5 3306,-0.5"/>
<text text-anchor="middle" x="3392" y="-8.5" font-family="Helvetica,sans-Serif" font-size="10.00">DashboardWindowContainer.cpp</text>
</a>
</g>
<!-- Node15&#45;&gt;Node27 -->
<g id="edge62" class="edge"><title>Node15&#45;&gt;Node27</title>
<path fill="none" stroke="midnightblue" d="M1852.16,-67.6285C2109.34,-62.4078 3010.34,-43.0077 3297,-22 3299.9,-21.7876 3302.84,-21.5529 3305.82,-21.2998"/>
<polygon fill="midnightblue" stroke="midnightblue" points="1851.77,-64.1356 1841.84,-67.8374 1851.91,-71.1342 1851.77,-64.1356"/>
</g>
<!-- Node15&#45;&gt;Node28 -->
<g id="edge68" class="edge"><title>Node15&#45;&gt;Node28</title>
<path fill="none" stroke="midnightblue" d="M1851.93,-68.3656C2128.93,-65.6203 3161.63,-53.4506 3487,-22 3489.89,-21.7206 3492.85,-21.3908 3495.83,-21.0233"/>
<polygon fill="midnightblue" stroke="midnightblue" points="1851.59,-64.8687 1841.62,-68.4669 1851.66,-71.8684 1851.59,-64.8687"/>
</g>
<!-- Node29 -->
<g id="node64" class="node"><title>Node29</title>
<a xlink:href="StatusBar_8cpp.htm" target="_top" xlink:title="StatusBar.cpp">
<polygon fill="white" stroke="black" points="1370,-0.5 1370,-21.5 1452,-21.5 1452,-0.5 1370,-0.5"/>
<text text-anchor="middle" x="1411" y="-8.5" font-family="Helvetica,sans-Serif" font-size="10.00">StatusBar.cpp</text>
</a>
</g>
<!-- Node15&#45;&gt;Node29 -->
<g id="edge70" class="edge"><title>Node15&#45;&gt;Node29</title>
<path fill="none" stroke="midnightblue" d="M1714.15,-60.403C1648.8,-51.8989 1547.91,-37.8819 1461,-22 1458.11,-21.4727 1455.14,-20.8986 1452.15,-20.2985"/>
<polygon fill="midnightblue" stroke="midnightblue" points="1713.96,-63.9075 1724.33,-61.7199 1714.86,-56.9654 1713.96,-63.9075"/>
</g>
</g>
</svg>
