<?xml version="1.0" encoding="UTF-8" standalone="no"?>
<!DOCTYPE svg PUBLIC "-//W3C//DTD SVG 1.1//EN"
 "http://www.w3.org/Graphics/SVG/1.1/DTD/svg11.dtd">
<!-- Generated by graphviz version 2.26.3 (20100126.1600)
 -->
<!-- Title: G Pages: 1 -->
<svg width="534pt" height="88pt"
 viewBox="0.00 0.00 534.00 88.00" xmlns="http://www.w3.org/2000/svg" xmlns:xlink="http://www.w3.org/1999/xlink">
<g id="graph1" class="graph" transform="scale(1 1) rotate(0) translate(4 84)">
<title>G</title>
<polygon fill="white" stroke="white" points="-4,5 -4,-84 531,-84 531,5 -4,5"/>
<!-- Node1 -->
<g id="node1" class="node"><title>Node1</title>
<polygon fill="#bfbfbf" stroke="black" points="185,-58.5 185,-79.5 271,-79.5 271,-58.5 185,-58.5"/>
<text text-anchor="middle" x="228" y="-66.5" font-family="Helvetica,sans-Serif" font-size="10.00">AlertWebApp.h</text>
</g>
<!-- Node2 -->
<g id="node3" class="node"><title>Node2</title>
<a xlink:href="JsSysObject_8cpp.htm" target="_top" xlink:title="JsSysObject.cpp">
<polygon fill="white" stroke="black" points="0,-0.5 0,-21.5 94,-21.5 94,-0.5 0,-0.5"/>
<text text-anchor="middle" x="47" y="-8.5" font-family="Helvetica,sans-Serif" font-size="10.00">JsSysObject.cpp</text>
</a>
</g>
<!-- Node1&#45;&gt;Node2 -->
<g id="edge2" class="edge"><title>Node1&#45;&gt;Node2</title>
<path fill="none" stroke="midnightblue" d="M185.598,-55.4127C153.305,-45.0646 109.494,-31.0258 79.8392,-21.5231"/>
<polygon fill="midnightblue" stroke="midnightblue" points="184.631,-58.7781 195.222,-58.4966 186.767,-52.1119 184.631,-58.7781"/>
</g>
<!-- Node3 -->
<g id="node5" class="node"><title>Node3</title>
<a xlink:href="AlertWebApp_8cpp.htm" target="_top" xlink:title="AlertWebApp.cpp">
<polygon fill="white" stroke="black" points="112,-0.5 112,-21.5 210,-21.5 210,-0.5 112,-0.5"/>
<text text-anchor="middle" x="161" y="-8.5" font-family="Helvetica,sans-Serif" font-size="10.00">AlertWebApp.cpp</text>
</a>
</g>
<!-- Node1&#45;&gt;Node3 -->
<g id="edge4" class="edge"><title>Node1&#45;&gt;Node3</title>
<path fill="none" stroke="midnightblue" d="M208.005,-51.6908C196.694,-41.8996 182.917,-29.973 173.211,-21.5707"/>
<polygon fill="midnightblue" stroke="midnightblue" points="205.86,-54.4631 215.711,-58.3619 210.441,-49.1706 205.86,-54.4631"/>
</g>
<!-- Node4 -->
<g id="node7" class="node"><title>Node4</title>
<a xlink:href="WebAppFactoryLuna_8cpp.htm" target="_top" xlink:title="WebAppFactoryLuna.cpp">
<polygon fill="white" stroke="black" points="228,-0.5 228,-21.5 362,-21.5 362,-0.5 228,-0.5"/>
<text text-anchor="middle" x="295" y="-8.5" font-family="Helvetica,sans-Serif" font-size="10.00">WebAppFactoryLuna.cpp</text>
</a>
</g>
<!-- Node1&#45;&gt;Node4 -->
<g id="edge6" class="edge"><title>Node1&#45;&gt;Node4</title>
<path fill="none" stroke="midnightblue" d="M247.995,-51.6908C259.306,-41.8996 273.083,-29.973 282.789,-21.5707"/>
<polygon fill="midnightblue" stroke="midnightblue" points="245.559,-49.1706 240.289,-58.3619 250.14,-54.4631 245.559,-49.1706"/>
</g>
<!-- Node5 -->
<g id="node9" class="node"><title>Node5</title>
<a xlink:href="WebAppFactoryMinimal_8cpp.htm" target="_top" xlink:title="WebAppFactoryMinimal.cpp">
<polygon fill="white" stroke="black" points="379.5,-0.5 379.5,-21.5 526.5,-21.5 526.5,-0.5 379.5,-0.5"/>
<text text-anchor="middle" x="453" y="-8.5" font-family="Helvetica,sans-Serif" font-size="10.00">WebAppFactoryMinimal.cpp</text>
</a>
</g>
<!-- Node1&#45;&gt;Node5 -->
<g id="edge8" class="edge"><title>Node1&#45;&gt;Node5</title>
<path fill="none" stroke="midnightblue" d="M278.646,-55.9447C318.97,-45.5501 374.678,-31.1897 412.178,-21.5231"/>
<polygon fill="midnightblue" stroke="midnightblue" points="277.556,-52.6112 268.746,-58.4966 279.303,-59.3896 277.556,-52.6112"/>
</g>
</g>
</svg>
