<?xml version="1.0" encoding="UTF-8" standalone="no"?>
<!DOCTYPE svg PUBLIC "-//W3C//DTD SVG 1.1//EN"
 "http://www.w3.org/Graphics/SVG/1.1/DTD/svg11.dtd">
<!-- Generated by graphviz version 2.26.3 (20100126.1600)
 -->
<!-- Title: G Pages: 1 -->
<svg width="740pt" height="204pt"
 viewBox="0.00 0.00 740.00 204.00" xmlns="http://www.w3.org/2000/svg" xmlns:xlink="http://www.w3.org/1999/xlink">
<g id="graph1" class="graph" transform="scale(1 1) rotate(0) translate(4 200)">
<title>G</title>
<polygon fill="white" stroke="white" points="-4,5 -4,-200 737,-200 737,5 -4,5"/>
<!-- Node1 -->
<g id="node1" class="node"><title>Node1</title>
<polygon fill="#bfbfbf" stroke="black" points="167,-174.5 167,-195.5 251,-195.5 251,-174.5 167,-174.5"/>
<text text-anchor="middle" x="209" y="-182.5" font-family="Helvetica,sans-Serif" font-size="10.00">AlertWindow.h</text>
</g>
<!-- Node2 -->
<g id="node3" class="node"><title>Node2</title>
<a xlink:href="Common_8h.htm" target="_top" xlink:title="Common.h">
<polygon fill="white" stroke="black" points="303.5,-0.5 303.5,-21.5 370.5,-21.5 370.5,-0.5 303.5,-0.5"/>
<text text-anchor="middle" x="337" y="-8.5" font-family="Helvetica,sans-Serif" font-size="10.00">Common.h</text>
</a>
</g>
<!-- Node1&#45;&gt;Node2 -->
<g id="edge2" class="edge"><title>Node1&#45;&gt;Node2</title>
<path fill="none" stroke="midnightblue" d="M210.139,-174.21C213.137,-150.596 223.189,-93.6026 253,-58 264.638,-44.1005 281.498,-33.5411 297.063,-25.987"/>
<polygon fill="midnightblue" stroke="midnightblue" points="298.883,-29.0036 306.529,-21.6689 295.978,-22.6349 298.883,-29.0036"/>
</g>
<!-- Node3 -->
<g id="node5" class="node"><title>Node3</title>
<a xlink:href="sptr_8h.htm" target="_top" xlink:title="sptr.h">
<polygon fill="white" stroke="black" points="83.5,-58.5 83.5,-79.5 126.5,-79.5 126.5,-58.5 83.5,-58.5"/>
<text text-anchor="middle" x="105" y="-66.5" font-family="Helvetica,sans-Serif" font-size="10.00">sptr.h</text>
</a>
</g>
<!-- Node1&#45;&gt;Node3 -->
<g id="edge4" class="edge"><title>Node1&#45;&gt;Node3</title>
<path fill="none" stroke="midnightblue" d="M199.402,-174.295C181.602,-154.441 143.291,-111.709 121.339,-87.2239"/>
<polygon fill="midnightblue" stroke="midnightblue" points="123.856,-84.7885 114.574,-79.6792 118.644,-89.4613 123.856,-84.7885"/>
</g>
<!-- Node5 -->
<g id="node10" class="node"><title>Node5</title>
<a xlink:href="Window_8h.htm" target="_top" xlink:title="Window.h">
<polygon fill="white" stroke="black" points="144,-58.5 144,-79.5 206,-79.5 206,-58.5 144,-58.5"/>
<text text-anchor="middle" x="175" y="-66.5" font-family="Helvetica,sans-Serif" font-size="10.00">Window.h</text>
</a>
</g>
<!-- Node1&#45;&gt;Node5 -->
<g id="edge10" class="edge"><title>Node1&#45;&gt;Node5</title>
<path fill="none" stroke="midnightblue" d="M205.862,-174.295C200.22,-155.045 188.274,-114.289 181.011,-89.5091"/>
<polygon fill="midnightblue" stroke="midnightblue" points="184.302,-88.291 178.13,-79.6792 177.584,-90.26 184.302,-88.291"/>
</g>
<!-- Node10 -->
<g id="node22" class="node"><title>Node10</title>
<a xlink:href="HostWindow_8h.htm" target="_top" xlink:title="HostWindow.h">
<polygon fill="white" stroke="black" points="372,-116.5 372,-137.5 456,-137.5 456,-116.5 372,-116.5"/>
<text text-anchor="middle" x="414" y="-124.5" font-family="Helvetica,sans-Serif" font-size="10.00">HostWindow.h</text>
</a>
</g>
<!-- Node1&#45;&gt;Node10 -->
<g id="edge24" class="edge"><title>Node1&#45;&gt;Node10</title>
<path fill="none" stroke="midnightblue" d="M246.124,-174.497C279.979,-164.918 330.164,-150.72 366.844,-140.342"/>
<polygon fill="midnightblue" stroke="midnightblue" points="368.137,-143.613 376.806,-137.523 366.231,-136.878 368.137,-143.613"/>
</g>
<!-- Node3&#45;&gt;Node2 -->
<g id="edge6" class="edge"><title>Node3&#45;&gt;Node2</title>
<path fill="none" stroke="midnightblue" d="M126.518,-60.7295C129.352,-59.7525 132.233,-58.8149 135,-58 201.916,-38.295 222.43,-39.1206 293.248,-22.355"/>
<polygon fill="midnightblue" stroke="midnightblue" points="294.195,-25.7272 303.1,-19.9869 292.559,-18.9211 294.195,-25.7272"/>
</g>
<!-- Node4 -->
<g id="node8" class="node"><title>Node4</title>
<polygon fill="white" stroke="#bfbfbf" points="-0.5,-0.5 -0.5,-21.5 40.5,-21.5 40.5,-0.5 -0.5,-0.5"/>
<text text-anchor="middle" x="20" y="-8.5" font-family="Helvetica,sans-Serif" font-size="10.00">glib.h</text>
</g>
<!-- Node3&#45;&gt;Node4 -->
<g id="edge8" class="edge"><title>Node3&#45;&gt;Node4</title>
<path fill="none" stroke="midnightblue" d="M89.4097,-58.3619C76.709,-49.6955 58.5615,-37.3126 44.0079,-27.3819"/>
<polygon fill="midnightblue" stroke="midnightblue" points="45.7245,-24.316 35.4915,-21.5707 41.779,-30.0982 45.7245,-24.316"/>
</g>
<!-- Node5&#45;&gt;Node2 -->
<g id="edge12" class="edge"><title>Node5&#45;&gt;Node2</title>
<path fill="none" stroke="midnightblue" d="M204.337,-58.4966C230.519,-49.1229 269.06,-35.3242 297.863,-25.0122"/>
<polygon fill="midnightblue" stroke="midnightblue" points="299.373,-28.189 307.608,-21.5231 297.013,-21.5987 299.373,-28.189"/>
</g>
<!-- Node5&#45;&gt;Node4 -->
<g id="edge18" class="edge"><title>Node5&#45;&gt;Node4</title>
<path fill="none" stroke="midnightblue" d="M146.459,-58.4049C122.906,-49.6502 88.3672,-36.7864 50.3308,-22.4899"/>
<polygon fill="midnightblue" stroke="midnightblue" points="51.1818,-19.0706 40.5898,-18.8259 48.7174,-25.6225 51.1818,-19.0706"/>
</g>
<!-- Node6 -->
<g id="node13" class="node"><title>Node6</title>
<polygon fill="white" stroke="#bfbfbf" points="58,-0.5 58,-21.5 108,-21.5 108,-0.5 58,-0.5"/>
<text text-anchor="middle" x="83" y="-8.5" font-family="Helvetica,sans-Serif" font-size="10.00">stdint.h</text>
</g>
<!-- Node5&#45;&gt;Node6 -->
<g id="edge14" class="edge"><title>Node5&#45;&gt;Node6</title>
<path fill="none" stroke="midnightblue" d="M158.126,-58.3619C144.249,-49.6138 124.366,-37.0786 108.54,-27.1015"/>
<polygon fill="midnightblue" stroke="midnightblue" points="110.093,-23.943 99.7672,-21.5707 106.36,-29.8645 110.093,-23.943"/>
</g>
<!-- Node7 -->
<g id="node15" class="node"><title>Node7</title>
<polygon fill="white" stroke="#bfbfbf" points="463.5,-0.5 463.5,-21.5 506.5,-21.5 506.5,-0.5 463.5,-0.5"/>
<text text-anchor="middle" x="485" y="-8.5" font-family="Helvetica,sans-Serif" font-size="10.00">string</text>
</g>
<!-- Node5&#45;&gt;Node7 -->
<g id="edge16" class="edge"><title>Node5&#45;&gt;Node7</title>
<path fill="none" stroke="midnightblue" d="M206.238,-64.5027C265.549,-55.8477 393.295,-36.6253 453.458,-22.0126"/>
<polygon fill="midnightblue" stroke="midnightblue" points="454.372,-25.3916 463.195,-19.5257 452.64,-18.6094 454.372,-25.3916"/>
</g>
<!-- Node8 -->
<g id="node18" class="node"><title>Node8</title>
<polygon fill="white" stroke="#bfbfbf" points="126,-0.5 126,-21.5 224,-21.5 224,-0.5 126,-0.5"/>
<text text-anchor="middle" x="175" y="-8.5" font-family="Helvetica,sans-Serif" font-size="10.00">QGraphicsObject</text>
</g>
<!-- Node5&#45;&gt;Node8 -->
<g id="edge20" class="edge"><title>Node5&#45;&gt;Node8</title>
<path fill="none" stroke="midnightblue" d="M175,-58.3619C175,-50.9219 175,-40.7427 175,-31.7276"/>
<polygon fill="midnightblue" stroke="midnightblue" points="178.5,-31.5706 175,-21.5707 171.5,-31.5707 178.5,-31.5706"/>
</g>
<!-- Node9 -->
<g id="node20" class="node"><title>Node9</title>
<polygon fill="white" stroke="#bfbfbf" points="241.5,-0.5 241.5,-21.5 286.5,-21.5 286.5,-0.5 241.5,-0.5"/>
<text text-anchor="middle" x="264" y="-8.5" font-family="Helvetica,sans-Serif" font-size="10.00">QSize</text>
</g>
<!-- Node5&#45;&gt;Node9 -->
<g id="edge22" class="edge"><title>Node5&#45;&gt;Node9</title>
<path fill="none" stroke="midnightblue" d="M191.324,-58.3619C204.748,-49.6138 223.983,-37.0786 239.293,-27.1015"/>
<polygon fill="midnightblue" stroke="midnightblue" points="241.312,-29.9628 247.78,-21.5707 237.491,-24.0982 241.312,-29.9628"/>
</g>
<!-- Node10&#45;&gt;Node2 -->
<g id="edge26" class="edge"><title>Node10&#45;&gt;Node2</title>
<path fill="none" stroke="midnightblue" d="M413.1,-116.358C411.462,-102.051 406.97,-76.3009 395,-58 387.107,-45.9326 375.12,-35.4769 364.088,-27.5113"/>
<polygon fill="midnightblue" stroke="midnightblue" points="365.773,-24.4241 355.541,-21.6737 361.825,-30.2043 365.773,-24.4241"/>
</g>
<!-- Node10&#45;&gt;Node5 -->
<g id="edge28" class="edge"><title>Node10&#45;&gt;Node5</title>
<path fill="none" stroke="midnightblue" d="M371.822,-116.764C327.904,-106.106 259.568,-89.5227 216.067,-78.9661"/>
<polygon fill="midnightblue" stroke="midnightblue" points="216.652,-75.5066 206.109,-76.5495 215.002,-82.3092 216.652,-75.5066"/>
</g>
<!-- Node10&#45;&gt;Node10 -->
<g id="edge30" class="edge"><title>Node10&#45;&gt;Node10</title>
<path fill="none" stroke="midnightblue" d="M444.563,-137.524C460.083,-139.061 474,-135.553 474,-127 474,-120.385 465.675,-116.788 454.722,-116.208"/>
<polygon fill="midnightblue" stroke="midnightblue" points="454.467,-112.714 444.563,-116.476 454.652,-119.711 454.467,-112.714"/>
</g>
<!-- Node11 -->
<g id="node27" class="node"><title>Node11</title>
<a xlink:href="HostWindowData_8h.htm" target="_top" xlink:title="HostWindowData.h">
<polygon fill="white" stroke="black" points="441.5,-58.5 441.5,-79.5 548.5,-79.5 548.5,-58.5 441.5,-58.5"/>
<text text-anchor="middle" x="495" y="-66.5" font-family="Helvetica,sans-Serif" font-size="10.00">HostWindowData.h</text>
</a>
</g>
<!-- Node10&#45;&gt;Node11 -->
<g id="edge32" class="edge"><title>Node10&#45;&gt;Node11</title>
<path fill="none" stroke="midnightblue" d="M428.857,-116.362C440.846,-107.777 457.927,-95.5459 471.728,-85.6636"/>
<polygon fill="midnightblue" stroke="midnightblue" points="474.145,-88.2383 480.238,-79.5707 470.069,-82.5469 474.145,-88.2383"/>
</g>
<!-- Node14 -->
<g id="node34" class="node"><title>Node14</title>
<a xlink:href="InputClient_8h.htm" target="_top" xlink:title="InputClient.h">
<polygon fill="white" stroke="black" points="565.5,-58.5 565.5,-79.5 640.5,-79.5 640.5,-58.5 565.5,-58.5"/>
<text text-anchor="middle" x="603" y="-66.5" font-family="Helvetica,sans-Serif" font-size="10.00">InputClient.h</text>
</a>
</g>
<!-- Node10&#45;&gt;Node14 -->
<g id="edge40" class="edge"><title>Node10&#45;&gt;Node14</title>
<path fill="none" stroke="midnightblue" d="M448.226,-116.497C479.305,-106.959 525.312,-92.8408 559.09,-82.475"/>
<polygon fill="midnightblue" stroke="midnightblue" points="560.176,-85.8029 568.709,-79.5231 558.123,-79.1109 560.176,-85.8029"/>
</g>
<!-- Node16 -->
<g id="node39" class="node"><title>Node16</title>
<polygon fill="white" stroke="#bfbfbf" points="658,-58.5 658,-79.5 732,-79.5 732,-58.5 658,-58.5"/>
<text text-anchor="middle" x="695" y="-66.5" font-family="Helvetica,sans-Serif" font-size="10.00">PIpcBuffer.h</text>
</g>
<!-- Node10&#45;&gt;Node16 -->
<g id="edge46" class="edge"><title>Node10&#45;&gt;Node16</title>
<path fill="none" stroke="midnightblue" d="M456.125,-119.066C501.206,-110.467 575.053,-96.0668 648.046,-80.1563"/>
<polygon fill="midnightblue" stroke="midnightblue" points="648.851,-83.5632 657.87,-78.0045 647.353,-76.7253 648.851,-83.5632"/>
</g>
<!-- Node17 -->
<g id="node41" class="node"><title>Node17</title>
<polygon fill="white" stroke="#bfbfbf" points="262,-58.5 262,-79.5 386,-79.5 386,-58.5 262,-58.5"/>
<text text-anchor="middle" x="324" y="-66.5" font-family="Helvetica,sans-Serif" font-size="10.00">PIpcChannelListener.h</text>
</g>
<!-- Node10&#45;&gt;Node17 -->
<g id="edge48" class="edge"><title>Node10&#45;&gt;Node17</title>
<path fill="none" stroke="midnightblue" d="M397.493,-116.362C383.918,-107.614 364.467,-95.0786 348.985,-85.1015"/>
<polygon fill="midnightblue" stroke="midnightblue" points="350.704,-82.0457 340.403,-79.5707 346.912,-87.9297 350.704,-82.0457"/>
</g>
<!-- Node11&#45;&gt;Node2 -->
<g id="edge34" class="edge"><title>Node11&#45;&gt;Node2</title>
<path fill="none" stroke="midnightblue" d="M466.387,-58.4966C440.852,-49.1229 403.263,-35.3242 375.171,-25.0122"/>
<polygon fill="midnightblue" stroke="midnightblue" points="376.26,-21.6835 365.666,-21.5231 373.848,-28.2548 376.26,-21.6835"/>
</g>
<!-- Node12 -->
<g id="node30" class="node"><title>Node12</title>
<polygon fill="white" stroke="#bfbfbf" points="387.5,-0.5 387.5,-21.5 446.5,-21.5 446.5,-0.5 387.5,-0.5"/>
<text text-anchor="middle" x="417" y="-8.5" font-family="Helvetica,sans-Serif" font-size="10.00">QPixmap</text>
</g>
<!-- Node11&#45;&gt;Node12 -->
<g id="edge36" class="edge"><title>Node11&#45;&gt;Node12</title>
<path fill="none" stroke="midnightblue" d="M480.694,-58.3619C469.149,-49.7773 452.7,-37.5459 439.41,-27.6636"/>
<polygon fill="midnightblue" stroke="midnightblue" points="441.329,-24.7291 431.216,-21.5707 437.152,-30.3463 441.329,-24.7291"/>
</g>
<!-- Node13 -->
<g id="node32" class="node"><title>Node13</title>
<polygon fill="white" stroke="#bfbfbf" points="524,-0.5 524,-21.5 610,-21.5 610,-0.5 524,-0.5"/>
<text text-anchor="middle" x="567" y="-8.5" font-family="Helvetica,sans-Serif" font-size="10.00">PIpcChannel.h</text>
</g>
<!-- Node11&#45;&gt;Node13 -->
<g id="edge38" class="edge"><title>Node11&#45;&gt;Node13</title>
<path fill="none" stroke="midnightblue" d="M508.206,-58.3619C518.761,-49.859 533.758,-37.7785 545.963,-27.9466"/>
<polygon fill="midnightblue" stroke="midnightblue" points="548.286,-30.5696 553.878,-21.5707 543.895,-25.1183 548.286,-30.5696"/>
</g>
<!-- Node14&#45;&gt;Node7 -->
<g id="edge44" class="edge"><title>Node14&#45;&gt;Node7</title>
<path fill="none" stroke="midnightblue" d="M581.631,-58.4966C563.201,-49.4378 536.363,-36.2462 515.645,-26.0628"/>
<polygon fill="midnightblue" stroke="midnightblue" points="517.127,-22.8914 506.609,-21.6212 514.039,-29.1735 517.127,-22.8914"/>
</g>
<!-- Node15 -->
<g id="node36" class="node"><title>Node15</title>
<polygon fill="white" stroke="#bfbfbf" points="628,-0.5 628,-21.5 726,-21.5 726,-0.5 628,-0.5"/>
<text text-anchor="middle" x="677" y="-8.5" font-family="Helvetica,sans-Serif" font-size="10.00">palmimedefines.h</text>
</g>
<!-- Node14&#45;&gt;Node15 -->
<g id="edge42" class="edge"><title>Node14&#45;&gt;Node15</title>
<path fill="none" stroke="midnightblue" d="M616.573,-58.3619C627.421,-49.859 642.834,-37.7785 655.379,-27.9466"/>
<polygon fill="midnightblue" stroke="midnightblue" points="657.802,-30.4942 663.513,-21.5707 653.484,-24.9848 657.802,-30.4942"/>
</g>
</g>
</svg>
