<?xml version="1.0" encoding="UTF-8" standalone="no"?>
<!DOCTYPE svg PUBLIC "-//W3C//DTD SVG 1.1//EN"
 "http://www.w3.org/Graphics/SVG/1.1/DTD/svg11.dtd">
<!-- Generated by graphviz version 2.26.3 (20100126.1600)
 -->
<!-- Title: G Pages: 1 -->
<svg width="359pt" height="204pt"
 viewBox="0.00 0.00 359.00 204.00" xmlns="http://www.w3.org/2000/svg" xmlns:xlink="http://www.w3.org/1999/xlink">
<g id="graph1" class="graph" transform="scale(1 1) rotate(0) translate(4 200)">
<title>G</title>
<polygon fill="white" stroke="white" points="-4,5 -4,-200 356,-200 356,5 -4,5"/>
<!-- Node1 -->
<g id="node1" class="node"><title>Node1</title>
<polygon fill="#bfbfbf" stroke="black" points="48.5,-174.5 48.5,-195.5 169.5,-195.5 169.5,-174.5 48.5,-174.5"/>
<text text-anchor="middle" x="109" y="-182.5" font-family="Helvetica,sans-Serif" font-size="10.00">AnimationSettings.cpp</text>
</g>
<!-- Node2 -->
<g id="node3" class="node"><title>Node2</title>
<a xlink:href="Common_8h.htm" target="_top" xlink:title="Common.h">
<polygon fill="white" stroke="black" points="-0.5,-0.5 -0.5,-21.5 66.5,-21.5 66.5,-0.5 -0.5,-0.5"/>
<text text-anchor="middle" x="33" y="-8.5" font-family="Helvetica,sans-Serif" font-size="10.00">Common.h</text>
</a>
</g>
<!-- Node1&#45;&gt;Node2 -->
<g id="edge2" class="edge"><title>Node1&#45;&gt;Node2</title>
<path fill="none" stroke="midnightblue" d="M86.1392,-174.424C71.7993,-166.516 54.3193,-154.268 45,-138 25.9275,-104.707 27.1739,-58.3102 29.9725,-31.7943"/>
<polygon fill="midnightblue" stroke="midnightblue" points="33.4616,-32.097 31.2122,-21.7437 26.5143,-31.24 33.4616,-32.097"/>
</g>
<!-- Node3 -->
<g id="node5" class="node"><title>Node3</title>
<a xlink:href="AnimationSettings_8h.htm" target="_top" xlink:title="AnimationSettings.h">
<polygon fill="white" stroke="black" points="54,-116.5 54,-137.5 164,-137.5 164,-116.5 54,-116.5"/>
<text text-anchor="middle" x="109" y="-124.5" font-family="Helvetica,sans-Serif" font-size="10.00">AnimationSettings.h</text>
</a>
</g>
<!-- Node1&#45;&gt;Node3 -->
<g id="edge4" class="edge"><title>Node1&#45;&gt;Node3</title>
<path fill="none" stroke="midnightblue" d="M109,-174.362C109,-166.922 109,-156.743 109,-147.728"/>
<polygon fill="midnightblue" stroke="midnightblue" points="112.5,-147.571 109,-137.571 105.5,-147.571 112.5,-147.571"/>
</g>
<!-- Node9 -->
<g id="node19" class="node"><title>Node9</title>
<polygon fill="white" stroke="#bfbfbf" points="181.5,-116.5 181.5,-137.5 266.5,-137.5 266.5,-116.5 181.5,-116.5"/>
<text text-anchor="middle" x="224" y="-124.5" font-family="Helvetica,sans-Serif" font-size="10.00">QEasingCurve</text>
</g>
<!-- Node1&#45;&gt;Node9 -->
<g id="edge20" class="edge"><title>Node1&#45;&gt;Node9</title>
<path fill="none" stroke="midnightblue" d="M129.826,-174.497C147.706,-165.479 173.707,-152.365 193.861,-142.201"/>
<polygon fill="midnightblue" stroke="midnightblue" points="195.588,-145.249 202.941,-137.621 192.436,-138.999 195.588,-145.249"/>
</g>
<!-- Node3&#45;&gt;Node2 -->
<g id="edge6" class="edge"><title>Node3&#45;&gt;Node2</title>
<path fill="none" stroke="midnightblue" d="M91.0495,-116.433C78.3589,-108.074 61.9046,-95.2844 52,-80 42.5234,-65.376 37.7276,-46.0658 35.3282,-31.5933"/>
<polygon fill="midnightblue" stroke="midnightblue" points="38.7849,-31.0402 33.9227,-21.6269 31.8535,-32.0177 38.7849,-31.0402"/>
</g>
<!-- Node4 -->
<g id="node8" class="node"><title>Node4</title>
<polygon fill="white" stroke="#bfbfbf" points="60.5,-58.5 60.5,-79.5 101.5,-79.5 101.5,-58.5 60.5,-58.5"/>
<text text-anchor="middle" x="81" y="-66.5" font-family="Helvetica,sans-Serif" font-size="10.00">glib.h</text>
</g>
<!-- Node3&#45;&gt;Node4 -->
<g id="edge8" class="edge"><title>Node3&#45;&gt;Node4</title>
<path fill="none" stroke="midnightblue" d="M103.864,-116.362C100.154,-108.677 95.0331,-98.0686 90.5779,-88.8399"/>
<polygon fill="midnightblue" stroke="midnightblue" points="93.6026,-87.0545 86.1031,-79.5707 87.2987,-90.0978 93.6026,-87.0545"/>
</g>
<!-- Node5 -->
<g id="node10" class="node"><title>Node5</title>
<polygon fill="white" stroke="#bfbfbf" points="118.5,-58.5 118.5,-79.5 155.5,-79.5 155.5,-58.5 118.5,-58.5"/>
<text text-anchor="middle" x="137" y="-66.5" font-family="Helvetica,sans-Serif" font-size="10.00">map</text>
</g>
<!-- Node3&#45;&gt;Node5 -->
<g id="edge10" class="edge"><title>Node3&#45;&gt;Node5</title>
<path fill="none" stroke="midnightblue" d="M114.136,-116.362C117.846,-108.677 122.967,-98.0686 127.422,-88.8399"/>
<polygon fill="midnightblue" stroke="midnightblue" points="130.701,-90.0978 131.897,-79.5707 124.397,-87.0545 130.701,-90.0978"/>
</g>
<!-- Node6 -->
<g id="node12" class="node"><title>Node6</title>
<polygon fill="white" stroke="#bfbfbf" points="172.5,-58.5 172.5,-79.5 215.5,-79.5 215.5,-58.5 172.5,-58.5"/>
<text text-anchor="middle" x="194" y="-66.5" font-family="Helvetica,sans-Serif" font-size="10.00">string</text>
</g>
<!-- Node3&#45;&gt;Node6 -->
<g id="edge12" class="edge"><title>Node3&#45;&gt;Node6</title>
<path fill="none" stroke="midnightblue" d="M124.59,-116.362C137.291,-107.696 155.438,-95.3126 169.992,-85.3819"/>
<polygon fill="midnightblue" stroke="midnightblue" points="172.221,-88.0982 178.509,-79.5707 168.276,-82.316 172.221,-88.0982"/>
</g>
<!-- Node7 -->
<g id="node14" class="node"><title>Node7</title>
<a xlink:href="AnimationEquations_8h.htm" target="_top" xlink:title="AnimationEquations.h">
<polygon fill="white" stroke="black" points="233,-58.5 233,-79.5 351,-79.5 351,-58.5 233,-58.5"/>
<text text-anchor="middle" x="292" y="-66.5" font-family="Helvetica,sans-Serif" font-size="10.00">AnimationEquations.h</text>
</a>
</g>
<!-- Node3&#45;&gt;Node7 -->
<g id="edge14" class="edge"><title>Node3&#45;&gt;Node7</title>
<path fill="none" stroke="midnightblue" d="M142.14,-116.497C172.103,-107 216.396,-92.9619 249.062,-82.6087"/>
<polygon fill="midnightblue" stroke="midnightblue" points="250.323,-85.8809 258.798,-79.5231 248.208,-79.208 250.323,-85.8809"/>
</g>
<!-- Node7&#45;&gt;Node2 -->
<g id="edge16" class="edge"><title>Node7&#45;&gt;Node2</title>
<path fill="none" stroke="midnightblue" d="M245.097,-58.4966C197.156,-47.7609 123.296,-31.2207 76.5925,-20.762"/>
<polygon fill="midnightblue" stroke="midnightblue" points="77.2947,-17.3327 66.7715,-18.5627 75.7649,-24.1635 77.2947,-17.3327"/>
</g>
<!-- Node8 -->
<g id="node17" class="node"><title>Node8</title>
<polygon fill="white" stroke="#bfbfbf" points="261.5,-0.5 261.5,-21.5 322.5,-21.5 322.5,-0.5 261.5,-0.5"/>
<text text-anchor="middle" x="292" y="-8.5" font-family="Helvetica,sans-Serif" font-size="10.00">PTypes.h</text>
</g>
<!-- Node7&#45;&gt;Node8 -->
<g id="edge18" class="edge"><title>Node7&#45;&gt;Node8</title>
<path fill="none" stroke="midnightblue" d="M292,-58.3619C292,-50.9219 292,-40.7427 292,-31.7276"/>
<polygon fill="midnightblue" stroke="midnightblue" points="295.5,-31.5706 292,-21.5707 288.5,-31.5707 295.5,-31.5706"/>
</g>
</g>
</svg>
