<?xml version="1.0" encoding="UTF-8" standalone="no"?>
<!DOCTYPE svg PUBLIC "-//W3C//DTD SVG 1.1//EN"
 "http://www.w3.org/Graphics/SVG/1.1/DTD/svg11.dtd">
<!-- Generated by graphviz version 2.26.3 (20100126.1600)
 -->
<!-- Title: G Pages: 1 -->
<svg width="820pt" height="88pt"
 viewBox="0.00 0.00 820.00 88.00" xmlns="http://www.w3.org/2000/svg" xmlns:xlink="http://www.w3.org/1999/xlink">
<g id="graph1" class="graph" transform="scale(1 1) rotate(0) translate(4 84)">
<title>G</title>
<polygon fill="white" stroke="white" points="-4,5 -4,-84 817,-84 817,5 -4,5"/>
<!-- Node1 -->
<g id="node1" class="node"><title>Node1</title>
<polygon fill="#bfbfbf" stroke="black" points="398,-58.5 398,-79.5 512,-79.5 512,-58.5 398,-58.5"/>
<text text-anchor="middle" x="455" y="-66.5" font-family="Helvetica,sans-Serif" font-size="10.00">ApplicationInstaller.h</text>
</g>
<!-- Node2 -->
<g id="node3" class="node"><title>Node2</title>
<a xlink:href="ApplicationInstaller_8cpp.htm" target="_top" xlink:title="ApplicationInstaller.cpp">
<polygon fill="white" stroke="black" points="-0.5,-0.5 -0.5,-21.5 124.5,-21.5 124.5,-0.5 -0.5,-0.5"/>
<text text-anchor="middle" x="62" y="-8.5" font-family="Helvetica,sans-Serif" font-size="10.00">ApplicationInstaller.cpp</text>
</a>
</g>
<!-- Node1&#45;&gt;Node2 -->
<g id="edge2" class="edge"><title>Node1&#45;&gt;Node2</title>
<path fill="none" stroke="midnightblue" d="M387.839,-59.3719C322.683,-49.9899 221.029,-35.2434 133,-22 130.286,-21.5918 127.515,-21.1724 124.715,-20.747"/>
<polygon fill="midnightblue" stroke="midnightblue" points="387.579,-62.8704 397.975,-60.8306 388.576,-55.9418 387.579,-62.8704"/>
</g>
<!-- Node3 -->
<g id="node5" class="node"><title>Node3</title>
<a xlink:href="ApplicationManager_8cpp.htm" target="_top" xlink:title="ApplicationManager.cpp">
<polygon fill="white" stroke="black" points="141.5,-0.5 141.5,-21.5 272.5,-21.5 272.5,-0.5 141.5,-0.5"/>
<text text-anchor="middle" x="207" y="-8.5" font-family="Helvetica,sans-Serif" font-size="10.00">ApplicationManager.cpp</text>
</a>
</g>
<!-- Node1&#45;&gt;Node3 -->
<g id="edge4" class="edge"><title>Node1&#45;&gt;Node3</title>
<path fill="none" stroke="midnightblue" d="M400.303,-56.2081C355.773,-45.7938 293.679,-31.2716 251.995,-21.5231"/>
<polygon fill="midnightblue" stroke="midnightblue" points="399.555,-59.6273 410.089,-58.4966 401.149,-52.8113 399.555,-59.6273"/>
</g>
<!-- Node4 -->
<g id="node7" class="node"><title>Node4</title>
<a xlink:href="ApplicationManagerService_8cpp.htm" target="_top" xlink:title="ApplicationManagerService.cpp">
<polygon fill="white" stroke="black" points="290,-0.5 290,-21.5 456,-21.5 456,-0.5 290,-0.5"/>
<text text-anchor="middle" x="373" y="-8.5" font-family="Helvetica,sans-Serif" font-size="10.00">ApplicationManagerService.cpp</text>
</a>
</g>
<!-- Node1&#45;&gt;Node4 -->
<g id="edge6" class="edge"><title>Node1&#45;&gt;Node4</title>
<path fill="none" stroke="midnightblue" d="M431.73,-52.5407C417.672,-42.5973 400.17,-30.2177 387.945,-21.5707"/>
<polygon fill="midnightblue" stroke="midnightblue" points="429.775,-55.4447 439.96,-58.3619 433.817,-49.7298 429.775,-55.4447"/>
</g>
<!-- Node5 -->
<g id="node9" class="node"><title>Node5</title>
<a xlink:href="SystemUiController_8cpp.htm" target="_top" xlink:title="SystemUiController.cpp">
<polygon fill="white" stroke="black" points="473.5,-0.5 473.5,-21.5 600.5,-21.5 600.5,-0.5 473.5,-0.5"/>
<text text-anchor="middle" x="537" y="-8.5" font-family="Helvetica,sans-Serif" font-size="10.00">SystemUiController.cpp</text>
</a>
</g>
<!-- Node1&#45;&gt;Node5 -->
<g id="edge8" class="edge"><title>Node1&#45;&gt;Node5</title>
<path fill="none" stroke="midnightblue" d="M478.27,-52.5407C492.328,-42.5973 509.83,-30.2177 522.055,-21.5707"/>
<polygon fill="midnightblue" stroke="midnightblue" points="476.183,-49.7298 470.04,-58.3619 480.225,-55.4447 476.183,-49.7298"/>
</g>
<!-- Node6 -->
<g id="node11" class="node"><title>Node6</title>
<a xlink:href="Main_8cpp.htm" target="_top" xlink:title="Main.cpp">
<polygon fill="white" stroke="black" points="617.5,-0.5 617.5,-21.5 676.5,-21.5 676.5,-0.5 617.5,-0.5"/>
<text text-anchor="middle" x="647" y="-8.5" font-family="Helvetica,sans-Serif" font-size="10.00">Main.cpp</text>
</a>
</g>
<!-- Node1&#45;&gt;Node6 -->
<g id="edge10" class="edge"><title>Node1&#45;&gt;Node6</title>
<path fill="none" stroke="midnightblue" d="M499.579,-55.5335C535.751,-44.6065 585.741,-29.5054 617.215,-19.9976"/>
<polygon fill="midnightblue" stroke="midnightblue" points="498.33,-52.2543 489.77,-58.4966 500.355,-58.9553 498.33,-52.2543"/>
</g>
<!-- Node7 -->
<g id="node13" class="node"><title>Node7</title>
<a xlink:href="WebAppManager_8cpp.htm" target="_top" xlink:title="WebAppManager.cpp">
<polygon fill="white" stroke="black" points="693.5,-0.5 693.5,-21.5 812.5,-21.5 812.5,-0.5 693.5,-0.5"/>
<text text-anchor="middle" x="753" y="-8.5" font-family="Helvetica,sans-Serif" font-size="10.00">WebAppManager.cpp</text>
</a>
</g>
<!-- Node1&#45;&gt;Node7 -->
<g id="edge12" class="edge"><title>Node1&#45;&gt;Node7</title>
<path fill="none" stroke="midnightblue" d="M519.045,-56.5349C572.662,-46.0994 648.32,-31.374 698.933,-21.5231"/>
<polygon fill="midnightblue" stroke="midnightblue" points="518.113,-53.1506 508.966,-58.4966 519.45,-60.0216 518.113,-53.1506"/>
</g>
</g>
</svg>
