<?xml version="1.0" encoding="UTF-8" standalone="no"?>
<!DOCTYPE svg PUBLIC "-//W3C//DTD SVG 1.1//EN"
 "http://www.w3.org/Graphics/SVG/1.1/DTD/svg11.dtd">
<!-- Generated by graphviz version 2.26.3 (20100126.1600)
 -->
<!-- Title: G Pages: 1 -->
<svg width="925pt" height="262pt"
 viewBox="0.00 0.00 925.07 262.00" xmlns="http://www.w3.org/2000/svg" xmlns:xlink="http://www.w3.org/1999/xlink">
<g id="graph1" class="graph" transform="scale(1 1) rotate(0) translate(4 258)">
<title>G</title>
<polygon fill="white" stroke="white" points="-4,5 -4,-258 922.071,-258 922.071,5 -4,5"/>
<!-- Node1 -->
<g id="node1" class="node"><title>Node1</title>
<polygon fill="#bfbfbf" stroke="black" points="332.071,-232.5 332.071,-253.5 446.071,-253.5 446.071,-232.5 332.071,-232.5"/>
<text text-anchor="middle" x="389.071" y="-240.5" font-family="Helvetica,sans-Serif" font-size="10.00">ApplicationInstaller.h</text>
</g>
<!-- Node2 -->
<g id="node3" class="node"><title>Node2</title>
<a xlink:href="Common_8h.htm" target="_top" xlink:title="Common.h">
<polygon fill="white" stroke="black" points="241.571,-0.5 241.571,-21.5 308.571,-21.5 308.571,-0.5 241.571,-0.5"/>
<text text-anchor="middle" x="275.071" y="-8.5" font-family="Helvetica,sans-Serif" font-size="10.00">Common.h</text>
</a>
</g>
<!-- Node1&#45;&gt;Node2 -->
<g id="edge2" class="edge"><title>Node1&#45;&gt;Node2</title>
<path fill="none" stroke="midnightblue" d="M331.936,-237.784C230,-228.205 26.4054,-207.718 16.0713,-196 -56.676,-113.511 140.263,-47.4594 231.504,-22.1496"/>
<polygon fill="midnightblue" stroke="midnightblue" points="232.575,-25.4857 241.3,-19.4763 230.732,-18.7326 232.575,-25.4857"/>
</g>
<!-- Node3 -->
<g id="node5" class="node"><title>Node3</title>
<polygon fill="white" stroke="#bfbfbf" points="24.5713,-174.5 24.5713,-195.5 53.5713,-195.5 53.5713,-174.5 24.5713,-174.5"/>
<text text-anchor="middle" x="39.0713" y="-182.5" font-family="Helvetica,sans-Serif" font-size="10.00">list</text>
</g>
<!-- Node1&#45;&gt;Node3 -->
<g id="edge4" class="edge"><title>Node1&#45;&gt;Node3</title>
<path fill="none" stroke="midnightblue" d="M331.813,-240.028C267.758,-235.546 161.153,-224.614 63.6148,-195.829"/>
<polygon fill="midnightblue" stroke="midnightblue" points="64.4879,-192.437 53.903,-192.894 62.4627,-199.138 64.4879,-192.437"/>
</g>
<!-- Node4 -->
<g id="node7" class="node"><title>Node4</title>
<polygon fill="white" stroke="#bfbfbf" points="70.5713,-174.5 70.5713,-195.5 113.571,-195.5 113.571,-174.5 70.5713,-174.5"/>
<text text-anchor="middle" x="92.0713" y="-182.5" font-family="Helvetica,sans-Serif" font-size="10.00">string</text>
</g>
<!-- Node1&#45;&gt;Node4 -->
<g id="edge6" class="edge"><title>Node1&#45;&gt;Node4</title>
<path fill="none" stroke="midnightblue" d="M332,-234.171C270.038,-224.384 174.086,-208.598 123.635,-196.05"/>
<polygon fill="midnightblue" stroke="midnightblue" points="124.442,-192.643 113.882,-193.505 122.675,-199.416 124.442,-192.643"/>
</g>
<!-- Node5 -->
<g id="node9" class="node"><title>Node5</title>
<polygon fill="white" stroke="#bfbfbf" points="130.571,-174.5 130.571,-195.5 167.571,-195.5 167.571,-174.5 130.571,-174.5"/>
<text text-anchor="middle" x="149.071" y="-182.5" font-family="Helvetica,sans-Serif" font-size="10.00">map</text>
</g>
<!-- Node1&#45;&gt;Node5 -->
<g id="edge8" class="edge"><title>Node1&#45;&gt;Node5</title>
<path fill="none" stroke="midnightblue" d="M331.88,-233.113C290.965,-225.42 234.534,-213.551 177.675,-196.178"/>
<polygon fill="midnightblue" stroke="midnightblue" points="178.394,-192.736 167.805,-193.107 176.314,-199.42 178.394,-192.736"/>
</g>
<!-- Node6 -->
<g id="node11" class="node"><title>Node6</title>
<polygon fill="white" stroke="#bfbfbf" points="185.071,-174.5 185.071,-195.5 231.071,-195.5 231.071,-174.5 185.071,-174.5"/>
<text text-anchor="middle" x="208.071" y="-182.5" font-family="Helvetica,sans-Serif" font-size="10.00">vector</text>
</g>
<!-- Node1&#45;&gt;Node6 -->
<g id="edge10" class="edge"><title>Node1&#45;&gt;Node6</title>
<path fill="none" stroke="midnightblue" d="M354.667,-232.421C326.424,-223.676 285.165,-210.762 240.662,-196.145"/>
<polygon fill="midnightblue" stroke="midnightblue" points="241.713,-192.807 231.12,-193.001 239.522,-199.455 241.713,-192.807"/>
</g>
<!-- Node7 -->
<g id="node13" class="node"><title>Node7</title>
<polygon fill="white" stroke="#bfbfbf" points="371.571,-0.5 371.571,-21.5 412.571,-21.5 412.571,-0.5 371.571,-0.5"/>
<text text-anchor="middle" x="392.071" y="-8.5" font-family="Helvetica,sans-Serif" font-size="10.00">glib.h</text>
</g>
<!-- Node1&#45;&gt;Node7 -->
<g id="edge12" class="edge"><title>Node1&#45;&gt;Node7</title>
<path fill="none" stroke="midnightblue" d="M446.124,-240.417C511.934,-236.102 614.173,-224.832 638.071,-196 708.893,-110.559 502.916,-41.9949 422.63,-19.154"/>
<polygon fill="midnightblue" stroke="midnightblue" points="423.185,-15.6752 412.612,-16.3566 421.302,-22.4173 423.185,-15.6752"/>
</g>
<!-- Node8 -->
<g id="node15" class="node"><title>Node8</title>
<polygon fill="white" stroke="#bfbfbf" points="353.071,-174.5 353.071,-195.5 425.071,-195.5 425.071,-174.5 353.071,-174.5"/>
<text text-anchor="middle" x="389.071" y="-182.5" font-family="Helvetica,sans-Serif" font-size="10.00">cjson/json.h</text>
</g>
<!-- Node1&#45;&gt;Node8 -->
<g id="edge14" class="edge"><title>Node1&#45;&gt;Node8</title>
<path fill="none" stroke="midnightblue" d="M389.071,-232.362C389.071,-224.922 389.071,-214.743 389.071,-205.728"/>
<polygon fill="midnightblue" stroke="midnightblue" points="392.571,-205.571 389.071,-195.571 385.571,-205.571 392.571,-205.571"/>
</g>
<!-- Node9 -->
<g id="node17" class="node"><title>Node9</title>
<polygon fill="white" stroke="#bfbfbf" points="442.571,-174.5 442.571,-195.5 533.571,-195.5 533.571,-174.5 442.571,-174.5"/>
<text text-anchor="middle" x="488.071" y="-182.5" font-family="Helvetica,sans-Serif" font-size="10.00">cjson/json_util.h</text>
</g>
<!-- Node1&#45;&gt;Node9 -->
<g id="edge16" class="edge"><title>Node1&#45;&gt;Node9</title>
<path fill="none" stroke="midnightblue" d="M407.229,-232.362C422.301,-223.532 443.958,-210.844 461.064,-200.822"/>
<polygon fill="midnightblue" stroke="midnightblue" points="463.169,-203.646 470.028,-195.571 459.631,-197.606 463.169,-203.646"/>
</g>
<!-- Node10 -->
<g id="node19" class="node"><title>Node10</title>
<polygon fill="white" stroke="#bfbfbf" points="551.071,-174.5 551.071,-195.5 629.071,-195.5 629.071,-174.5 551.071,-174.5"/>
<text text-anchor="middle" x="590.071" y="-182.5" font-family="Helvetica,sans-Serif" font-size="10.00">lunaservice.h</text>
</g>
<!-- Node1&#45;&gt;Node10 -->
<g id="edge18" class="edge"><title>Node1&#45;&gt;Node10</title>
<path fill="none" stroke="midnightblue" d="M425.471,-232.497C458.665,-222.918 507.871,-208.72 543.835,-198.342"/>
<polygon fill="midnightblue" stroke="midnightblue" points="544.966,-201.658 553.603,-195.523 543.025,-194.933 544.966,-201.658"/>
</g>
<!-- Node11 -->
<g id="node21" class="node"><title>Node11</title>
<a xlink:href="MutexLocker_8h.htm" target="_top" xlink:title="MutexLocker.h">
<polygon fill="white" stroke="black" points="249.071,-174.5 249.071,-195.5 335.071,-195.5 335.071,-174.5 249.071,-174.5"/>
<text text-anchor="middle" x="292.071" y="-182.5" font-family="Helvetica,sans-Serif" font-size="10.00">MutexLocker.h</text>
</a>
</g>
<!-- Node1&#45;&gt;Node11 -->
<g id="edge20" class="edge"><title>Node1&#45;&gt;Node11</title>
<path fill="none" stroke="midnightblue" d="M371.28,-232.362C356.513,-223.532 335.293,-210.844 318.533,-200.822"/>
<polygon fill="midnightblue" stroke="midnightblue" points="320.129,-197.699 309.75,-195.571 316.536,-203.707 320.129,-197.699"/>
</g>
<!-- Node14 -->
<g id="node32" class="node"><title>Node14</title>
<polygon fill="white" stroke="#bfbfbf" points="684.571,-174.5 684.571,-195.5 739.571,-195.5 739.571,-174.5 684.571,-174.5"/>
<text text-anchor="middle" x="712.071" y="-182.5" font-family="Helvetica,sans-Serif" font-size="10.00">QObject</text>
</g>
<!-- Node1&#45;&gt;Node14 -->
<g id="edge36" class="edge"><title>Node1&#45;&gt;Node14</title>
<path fill="none" stroke="midnightblue" d="M446.094,-235.154C503.276,-226.898 593.705,-212.784 671.071,-196 672.152,-195.766 673.246,-195.521 674.349,-195.268"/>
<polygon fill="midnightblue" stroke="midnightblue" points="675.487,-198.593 684.371,-192.822 673.827,-191.793 675.487,-198.593"/>
</g>
<!-- Node15 -->
<g id="node34" class="node"><title>Node15</title>
<polygon fill="white" stroke="#bfbfbf" points="756.571,-174.5 756.571,-195.5 825.571,-195.5 825.571,-174.5 756.571,-174.5"/>
<text text-anchor="middle" x="791.071" y="-182.5" font-family="Helvetica,sans-Serif" font-size="10.00">sys/statfs.h</text>
</g>
<!-- Node1&#45;&gt;Node15 -->
<g id="edge38" class="edge"><title>Node1&#45;&gt;Node15</title>
<path fill="none" stroke="midnightblue" d="M446.303,-237.652C515.353,-230.723 635.096,-217.186 746.368,-196.169"/>
<polygon fill="midnightblue" stroke="midnightblue" points="747.254,-199.563 756.418,-194.246 745.939,-192.688 747.254,-199.563"/>
</g>
<!-- Node16 -->
<g id="node36" class="node"><title>Node16</title>
<polygon fill="white" stroke="#bfbfbf" points="843.071,-174.5 843.071,-195.5 917.071,-195.5 917.071,-174.5 843.071,-174.5"/>
<text text-anchor="middle" x="880.071" y="-182.5" font-family="Helvetica,sans-Serif" font-size="10.00">sys/statvfs.h</text>
</g>
<!-- Node1&#45;&gt;Node16 -->
<g id="edge40" class="edge"><title>Node1&#45;&gt;Node16</title>
<path fill="none" stroke="midnightblue" d="M446.296,-239.337C529.418,-233.491 688.516,-220.329 833.06,-195.996"/>
<polygon fill="midnightblue" stroke="midnightblue" points="833.73,-199.432 842.999,-194.301 832.553,-192.532 833.73,-199.432"/>
</g>
<!-- Node11&#45;&gt;Node2 -->
<g id="edge22" class="edge"><title>Node11&#45;&gt;Node2</title>
<path fill="none" stroke="midnightblue" d="M291.034,-174.377C288.29,-146.293 280.804,-69.6735 277.143,-32.2027"/>
<polygon fill="midnightblue" stroke="midnightblue" points="280.595,-31.54 276.139,-21.9277 273.628,-32.2207 280.595,-31.54"/>
</g>
<!-- Node12 -->
<g id="node24" class="node"><title>Node12</title>
<a xlink:href="Mutex_8h.htm" target="_top" xlink:title="Mutex.h">
<polygon fill="white" stroke="black" points="300.571,-116.5 300.571,-137.5 353.571,-137.5 353.571,-116.5 300.571,-116.5"/>
<text text-anchor="middle" x="327.071" y="-124.5" font-family="Helvetica,sans-Serif" font-size="10.00">Mutex.h</text>
</a>
</g>
<!-- Node11&#45;&gt;Node12 -->
<g id="edge24" class="edge"><title>Node11&#45;&gt;Node12</title>
<path fill="none" stroke="midnightblue" d="M298.491,-174.362C303.227,-166.513 309.803,-155.616 315.453,-146.253"/>
<polygon fill="midnightblue" stroke="midnightblue" points="318.522,-147.941 320.692,-137.571 312.529,-144.324 318.522,-147.941"/>
</g>
<!-- Node12&#45;&gt;Node2 -->
<g id="edge26" class="edge"><title>Node12&#45;&gt;Node2</title>
<path fill="none" stroke="midnightblue" d="M322.273,-116.295C313.566,-96.8724 295.045,-55.5561 283.968,-30.8462"/>
<polygon fill="midnightblue" stroke="midnightblue" points="287.143,-29.3726 279.859,-21.6792 280.755,-32.236 287.143,-29.3726"/>
</g>
<!-- Node12&#45;&gt;Node7 -->
<g id="edge34" class="edge"><title>Node12&#45;&gt;Node7</title>
<path fill="none" stroke="midnightblue" d="M340.651,-116.429C350.971,-107.707 364.764,-94.4523 373.071,-80 381.572,-65.2099 386.42,-46.4374 389.088,-32.2082"/>
<polygon fill="midnightblue" stroke="midnightblue" points="392.608,-32.3709 390.788,-21.9336 385.702,-31.228 392.608,-32.3709"/>
</g>
<!-- Node13 -->
<g id="node27" class="node"><title>Node13</title>
<a xlink:href="sptr_8h.htm" target="_top" xlink:title="sptr.h">
<polygon fill="white" stroke="black" points="321.571,-58.5 321.571,-79.5 364.571,-79.5 364.571,-58.5 321.571,-58.5"/>
<text text-anchor="middle" x="343.071" y="-66.5" font-family="Helvetica,sans-Serif" font-size="10.00">sptr.h</text>
</a>
</g>
<!-- Node12&#45;&gt;Node13 -->
<g id="edge28" class="edge"><title>Node12&#45;&gt;Node13</title>
<path fill="none" stroke="midnightblue" d="M330.006,-116.362C332.081,-108.84 334.928,-98.5187 337.435,-89.4308"/>
<polygon fill="midnightblue" stroke="midnightblue" points="340.87,-90.1414 340.155,-79.5707 334.122,-88.2798 340.87,-90.1414"/>
</g>
<!-- Node13&#45;&gt;Node2 -->
<g id="edge30" class="edge"><title>Node13&#45;&gt;Node2</title>
<path fill="none" stroke="midnightblue" d="M330.599,-58.3619C320.726,-49.9408 306.739,-38.0105 295.273,-28.2308"/>
<polygon fill="midnightblue" stroke="midnightblue" points="297.344,-25.3972 287.465,-21.5707 292.802,-30.7231 297.344,-25.3972"/>
</g>
<!-- Node13&#45;&gt;Node7 -->
<g id="edge32" class="edge"><title>Node13&#45;&gt;Node7</title>
<path fill="none" stroke="midnightblue" d="M352.059,-58.3619C358.897,-50.2678 368.474,-38.9318 376.544,-29.3796"/>
<polygon fill="midnightblue" stroke="midnightblue" points="379.361,-31.4683 383.141,-21.5707 374.014,-26.9508 379.361,-31.4683"/>
</g>
</g>
</svg>
