<?xml version="1.0" encoding="UTF-8" standalone="no"?>
<!DOCTYPE svg PUBLIC "-//W3C//DTD SVG 1.1//EN"
 "http://www.w3.org/Graphics/SVG/1.1/DTD/svg11.dtd">
<!-- Generated by graphviz version 2.26.3 (20100126.1600)
 -->
<!-- Title: G Pages: 1 -->
<svg width="4524pt" height="262pt"
 viewBox="0.00 0.00 4524.00 262.00" xmlns="http://www.w3.org/2000/svg" xmlns:xlink="http://www.w3.org/1999/xlink">
<g id="graph1" class="graph" transform="scale(1 1) rotate(0) translate(4 258)">
<title>G</title>
<polygon fill="white" stroke="white" points="-4,5 -4,-258 4521,-258 4521,5 -4,5"/>
<!-- Node1 -->
<g id="node1" class="node"><title>Node1</title>
<polygon fill="#bfbfbf" stroke="black" points="1632.5,-232.5 1632.5,-253.5 1713.5,-253.5 1713.5,-232.5 1632.5,-232.5"/>
<text text-anchor="middle" x="1673" y="-240.5" font-family="Helvetica,sans-Serif" font-size="10.00">AsyncCaller.h</text>
</g>
<!-- Node2 -->
<g id="node3" class="node"><title>Node2</title>
<a xlink:href="AsyncCaller_8cpp.htm" target="_top" xlink:title="AsyncCaller.cpp">
<polygon fill="white" stroke="black" points="1527,-174.5 1527,-195.5 1619,-195.5 1619,-174.5 1527,-174.5"/>
<text text-anchor="middle" x="1573" y="-182.5" font-family="Helvetica,sans-Serif" font-size="10.00">AsyncCaller.cpp</text>
</a>
</g>
<!-- Node1&#45;&gt;Node2 -->
<g id="edge2" class="edge"><title>Node1&#45;&gt;Node2</title>
<path fill="none" stroke="midnightblue" d="M1645.59,-227.101C1628.29,-217.066 1606.42,-204.381 1591.23,-195.571"/>
<polygon fill="midnightblue" stroke="midnightblue" points="1644.25,-230.372 1654.66,-232.362 1647.76,-224.317 1644.25,-230.372"/>
</g>
<!-- Node3 -->
<g id="node5" class="node"><title>Node3</title>
<a xlink:href="TaskBase_8h.htm" target="_top" xlink:title="TaskBase.h">
<polygon fill="white" stroke="black" points="1637,-174.5 1637,-195.5 1709,-195.5 1709,-174.5 1637,-174.5"/>
<text text-anchor="middle" x="1673" y="-182.5" font-family="Helvetica,sans-Serif" font-size="10.00">TaskBase.h</text>
</a>
</g>
<!-- Node1&#45;&gt;Node3 -->
<g id="edge4" class="edge"><title>Node1&#45;&gt;Node3</title>
<path fill="none" stroke="midnightblue" d="M1673,-222.191C1673,-213.168 1673,-202.994 1673,-195.571"/>
<polygon fill="midnightblue" stroke="midnightblue" points="1669.5,-222.362 1673,-232.362 1676.5,-222.362 1669.5,-222.362"/>
</g>
<!-- Node40 -->
<g id="node86" class="node"><title>Node40</title>
<a xlink:href="WindowedWebApp_8h.htm" target="_top" xlink:title="WindowedWebApp.h">
<polygon fill="white" stroke="black" points="4062,-174.5 4062,-195.5 4176,-195.5 4176,-174.5 4062,-174.5"/>
<text text-anchor="middle" x="4119" y="-182.5" font-family="Helvetica,sans-Serif" font-size="10.00">WindowedWebApp.h</text>
</a>
</g>
<!-- Node1&#45;&gt;Node40 -->
<g id="edge92" class="edge"><title>Node1&#45;&gt;Node40</title>
<path fill="none" stroke="midnightblue" d="M1723.89,-241.793C2039.63,-234.306 3728.4,-194.262 4061.8,-186.356"/>
<polygon fill="midnightblue" stroke="midnightblue" points="1723.58,-238.3 1713.67,-242.036 1723.75,-245.298 1723.58,-238.3"/>
</g>
<!-- Node4 -->
<g id="node7" class="node"><title>Node4</title>
<a xlink:href="HostBase_8h.htm" target="_top" xlink:title="HostBase.h">
<polygon fill="white" stroke="red" points="1593.5,-116.5 1593.5,-137.5 1664.5,-137.5 1664.5,-116.5 1593.5,-116.5"/>
<text text-anchor="middle" x="1629" y="-124.5" font-family="Helvetica,sans-Serif" font-size="10.00">HostBase.h</text>
</a>
</g>
<!-- Node3&#45;&gt;Node4 -->
<g id="edge6" class="edge"><title>Node3&#45;&gt;Node4</title>
<path fill="none" stroke="midnightblue" d="M1658.78,-166.25C1651.57,-156.75 1643.08,-145.565 1637.02,-137.571"/>
<polygon fill="midnightblue" stroke="midnightblue" points="1656.1,-168.51 1664.93,-174.362 1661.67,-164.28 1656.1,-168.51"/>
</g>
<!-- Node38 -->
<g id="node82" class="node"><title>Node38</title>
<a xlink:href="SyncTask_8h.htm" target="_top" xlink:title="SyncTask.h">
<polygon fill="white" stroke="red" points="1681.5,-116.5 1681.5,-137.5 1752.5,-137.5 1752.5,-116.5 1681.5,-116.5"/>
<text text-anchor="middle" x="1717" y="-124.5" font-family="Helvetica,sans-Serif" font-size="10.00">SyncTask.h</text>
</a>
</g>
<!-- Node3&#45;&gt;Node38 -->
<g id="edge88" class="edge"><title>Node3&#45;&gt;Node38</title>
<path fill="none" stroke="midnightblue" d="M1687.22,-166.25C1694.43,-156.75 1702.92,-145.565 1708.98,-137.571"/>
<polygon fill="midnightblue" stroke="midnightblue" points="1684.33,-164.28 1681.07,-174.362 1689.9,-168.51 1684.33,-164.28"/>
</g>
<!-- Node39 -->
<g id="node84" class="node"><title>Node39</title>
<a xlink:href="TaskBase_8cpp.htm" target="_top" xlink:title="TaskBase.cpp">
<polygon fill="white" stroke="black" points="1493.5,-116.5 1493.5,-137.5 1576.5,-137.5 1576.5,-116.5 1493.5,-116.5"/>
<text text-anchor="middle" x="1535" y="-124.5" font-family="Helvetica,sans-Serif" font-size="10.00">TaskBase.cpp</text>
</a>
</g>
<!-- Node3&#45;&gt;Node39 -->
<g id="edge90" class="edge"><title>Node3&#45;&gt;Node39</title>
<path fill="none" stroke="midnightblue" d="M1638.77,-170.615C1614.44,-160.389 1582.3,-146.88 1560.27,-137.621"/>
<polygon fill="midnightblue" stroke="midnightblue" points="1637.43,-173.849 1648.01,-174.497 1640.15,-167.395 1637.43,-173.849"/>
</g>
<!-- Node5 -->
<g id="node9" class="node"><title>Node5</title>
<a xlink:href="AmbientLightSensor_8cpp.htm" target="_top" xlink:title="AmbientLightSensor.cpp">
<polygon fill="white" stroke="black" points="3115.5,-58.5 3115.5,-79.5 3246.5,-79.5 3246.5,-58.5 3115.5,-58.5"/>
<text text-anchor="middle" x="3181" y="-66.5" font-family="Helvetica,sans-Serif" font-size="10.00">AmbientLightSensor.cpp</text>
</a>
</g>
<!-- Node4&#45;&gt;Node5 -->
<g id="edge8" class="edge"><title>Node4&#45;&gt;Node5</title>
<path fill="none" stroke="midnightblue" d="M1675.16,-115.956C2306.54,-31.2906 2475.25,-134.677 3107,-80 3109.72,-79.7648 3112.49,-79.4942 3115.28,-79.1955"/>
<polygon fill="midnightblue" stroke="midnightblue" points="1674.33,-112.536 1664.89,-117.344 1675.27,-119.473 1674.33,-112.536"/>
</g>
<!-- Node6 -->
<g id="node11" class="node"><title>Node6</title>
<a xlink:href="AppDirectRenderingArbitrator_8cpp.htm" target="_top" xlink:title="AppDirectRenderingArbitrator.cpp">
<polygon fill="white" stroke="black" points="3264,-58.5 3264,-79.5 3440,-79.5 3440,-58.5 3264,-58.5"/>
<text text-anchor="middle" x="3352" y="-66.5" font-family="Helvetica,sans-Serif" font-size="10.00">AppDirectRenderingArbitrator.cpp</text>
</a>
</g>
<!-- Node4&#45;&gt;Node6 -->
<g id="edge10" class="edge"><title>Node4&#45;&gt;Node6</title>
<path fill="none" stroke="midnightblue" d="M1674.95,-116.015C2037.83,-69.7072 2907.42,-103.615 3255,-80 3257.87,-79.8047 3260.8,-79.5868 3263.74,-79.3503"/>
<polygon fill="midnightblue" stroke="midnightblue" points="1674.35,-112.563 1664.89,-117.337 1675.26,-119.504 1674.35,-112.563"/>
</g>
<!-- Node7 -->
<g id="node13" class="node"><title>Node7</title>
<a xlink:href="ApplicationInstaller_8cpp.htm" target="_top" xlink:title="ApplicationInstaller.cpp">
<polygon fill="white" stroke="black" points="3457.5,-58.5 3457.5,-79.5 3582.5,-79.5 3582.5,-58.5 3457.5,-58.5"/>
<text text-anchor="middle" x="3520" y="-66.5" font-family="Helvetica,sans-Serif" font-size="10.00">ApplicationInstaller.cpp</text>
</a>
</g>
<!-- Node4&#45;&gt;Node7 -->
<g id="edge12" class="edge"><title>Node4&#45;&gt;Node7</title>
<path fill="none" stroke="midnightblue" d="M1674.96,-116.018C2080.7,-64.6331 3059.01,-114.01 3449,-80 3451.73,-79.7616 3454.52,-79.4829 3457.34,-79.1727"/>
<polygon fill="midnightblue" stroke="midnightblue" points="1674.36,-112.567 1664.89,-117.329 1675.26,-119.508 1674.36,-112.567"/>
</g>
<!-- Node8 -->
<g id="node15" class="node"><title>Node8</title>
<a xlink:href="ApplicationManager_8cpp.htm" target="_top" xlink:title="ApplicationManager.cpp">
<polygon fill="white" stroke="black" points="3599.5,-58.5 3599.5,-79.5 3730.5,-79.5 3730.5,-58.5 3599.5,-58.5"/>
<text text-anchor="middle" x="3665" y="-66.5" font-family="Helvetica,sans-Serif" font-size="10.00">ApplicationManager.cpp</text>
</a>
</g>
<!-- Node4&#45;&gt;Node8 -->
<g id="edge14" class="edge"><title>Node4&#45;&gt;Node8</title>
<path fill="none" stroke="midnightblue" d="M1675.1,-116C2112.28,-60.8068 3169.5,-115.137 3591,-80 3593.72,-79.7734 3596.49,-79.51 3599.28,-79.2173"/>
<polygon fill="midnightblue" stroke="midnightblue" points="1674.36,-112.568 1664.89,-117.325 1675.26,-119.509 1674.36,-112.568"/>
</g>
<!-- Node9 -->
<g id="node17" class="node"><title>Node9</title>
<a xlink:href="ApplicationManagerService_8cpp.htm" target="_top" xlink:title="ApplicationManagerService.cpp">
<polygon fill="white" stroke="black" points="3748,-58.5 3748,-79.5 3914,-79.5 3914,-58.5 3748,-58.5"/>
<text text-anchor="middle" x="3831" y="-66.5" font-family="Helvetica,sans-Serif" font-size="10.00">ApplicationManagerService.cpp</text>
</a>
</g>
<!-- Node4&#45;&gt;Node9 -->
<g id="edge16" class="edge"><title>Node4&#45;&gt;Node9</title>
<path fill="none" stroke="midnightblue" d="M1674.83,-116.034C2144.52,-56.7074 3284.13,-111.076 3739,-80 3741.89,-79.8026 3744.83,-79.5787 3747.79,-79.3328"/>
<polygon fill="midnightblue" stroke="midnightblue" points="1674.36,-112.567 1664.89,-117.321 1675.26,-119.509 1674.36,-112.567"/>
</g>
<!-- Node10 -->
<g id="node19" class="node"><title>Node10</title>
<a xlink:href="BackupManager_8cpp.htm" target="_top" xlink:title="BackupManager.cpp">
<polygon fill="white" stroke="black" points="3931.5,-58.5 3931.5,-79.5 4044.5,-79.5 4044.5,-58.5 3931.5,-58.5"/>
<text text-anchor="middle" x="3988" y="-66.5" font-family="Helvetica,sans-Serif" font-size="10.00">BackupManager.cpp</text>
</a>
</g>
<!-- Node4&#45;&gt;Node10 -->
<g id="edge18" class="edge"><title>Node4&#45;&gt;Node10</title>
<path fill="none" stroke="midnightblue" d="M1674.95,-116.022C2185.34,-51.9148 3428.32,-125.549 3923,-80 3925.74,-79.7481 3928.53,-79.4468 3931.35,-79.1075"/>
<polygon fill="midnightblue" stroke="midnightblue" points="1674.36,-112.569 1664.89,-117.316 1675.25,-119.512 1674.36,-112.569"/>
</g>
<!-- Node11 -->
<g id="node21" class="node"><title>Node11</title>
<a xlink:href="BootupAnimation_8cpp.htm" target="_top" xlink:title="BootupAnimation.cpp">
<polygon fill="white" stroke="black" points="0,-58.5 0,-79.5 116,-79.5 116,-58.5 0,-58.5"/>
<text text-anchor="middle" x="58" y="-66.5" font-family="Helvetica,sans-Serif" font-size="10.00">BootupAnimation.cpp</text>
</a>
</g>
<!-- Node4&#45;&gt;Node11 -->
<g id="edge20" class="edge"><title>Node4&#45;&gt;Node11</title>
<path fill="none" stroke="midnightblue" d="M1583.16,-116C942.257,-30.1317 771.048,-136.669 130,-80 125.465,-79.5991 120.782,-79.0935 116.082,-78.5205"/>
<polygon fill="midnightblue" stroke="midnightblue" points="1582.73,-119.473 1593.11,-117.343 1583.67,-112.536 1582.73,-119.473"/>
</g>
<!-- Node12 -->
<g id="node23" class="node"><title>Node12</title>
<a xlink:href="CoreNaviManager_8h.htm" target="_top" xlink:title="CoreNaviManager.h">
<polygon fill="white" stroke="red" points="210,-58.5 210,-79.5 322,-79.5 322,-58.5 210,-58.5"/>
<text text-anchor="middle" x="266" y="-66.5" font-family="Helvetica,sans-Serif" font-size="10.00">CoreNaviManager.h</text>
</a>
</g>
<!-- Node4&#45;&gt;Node12 -->
<g id="edge22" class="edge"><title>Node4&#45;&gt;Node12</title>
<path fill="none" stroke="midnightblue" d="M1582.93,-115.961C1033.06,-41.3182 885.601,-130.896 336,-80 331.468,-79.5803 326.783,-79.0521 322.085,-78.4556"/>
<polygon fill="midnightblue" stroke="midnightblue" points="1582.72,-119.465 1593.11,-117.355 1583.67,-112.53 1582.72,-119.465"/>
</g>
<!-- Node13 -->
<g id="node25" class="node"><title>Node13</title>
<a xlink:href="DisplayManager_8cpp.htm" target="_top" xlink:title="DisplayManager.cpp">
<polygon fill="white" stroke="black" points="1.5,-0.5 1.5,-21.5 114.5,-21.5 114.5,-0.5 1.5,-0.5"/>
<text text-anchor="middle" x="58" y="-8.5" font-family="Helvetica,sans-Serif" font-size="10.00">DisplayManager.cpp</text>
</a>
</g>
<!-- Node4&#45;&gt;Node13 -->
<g id="edge32" class="edge"><title>Node4&#45;&gt;Node13</title>
<path fill="none" stroke="midnightblue" d="M1583.11,-116.149C1390.2,-95.9126 330.598,-120.059 183,-80 139.222,-68.1181 94.1574,-37.9645 72.0166,-21.7337"/>
<polygon fill="midnightblue" stroke="midnightblue" points="1582.76,-119.633 1593.11,-117.345 1583.59,-112.682 1582.76,-119.633"/>
</g>
<!-- Node14 -->
<g id="node27" class="node"><title>Node14</title>
<a xlink:href="DisplayStates_8cpp.htm" target="_top" xlink:title="DisplayStates.cpp">
<polygon fill="white" stroke="black" points="131.5,-0.5 131.5,-21.5 232.5,-21.5 232.5,-0.5 131.5,-0.5"/>
<text text-anchor="middle" x="182" y="-8.5" font-family="Helvetica,sans-Serif" font-size="10.00">DisplayStates.cpp</text>
</a>
</g>
<!-- Node4&#45;&gt;Node14 -->
<g id="edge34" class="edge"><title>Node4&#45;&gt;Node14</title>
<path fill="none" stroke="midnightblue" d="M1582.76,-116.399C1436.73,-106.828 259.796,-126.015 201,-80 183.29,-66.1396 181.125,-37.386 181.377,-21.7279"/>
<polygon fill="midnightblue" stroke="midnightblue" points="1582.83,-119.919 1593.11,-117.346 1583.47,-112.949 1582.83,-119.919"/>
</g>
<!-- Node15 -->
<g id="node29" class="node"><title>Node15</title>
<a xlink:href="SystemUiController_8cpp.htm" target="_top" xlink:title="SystemUiController.cpp">
<polygon fill="white" stroke="black" points="249.5,-0.5 249.5,-21.5 376.5,-21.5 376.5,-0.5 249.5,-0.5"/>
<text text-anchor="middle" x="313" y="-8.5" font-family="Helvetica,sans-Serif" font-size="10.00">SystemUiController.cpp</text>
</a>
</g>
<!-- Node4&#45;&gt;Node15 -->
<g id="edge76" class="edge"><title>Node4&#45;&gt;Node15</title>
<path fill="none" stroke="midnightblue" d="M1583.08,-116.169C1414.6,-99.068 519.015,-125.012 398,-80 365.399,-67.8741 335.972,-37.8253 321.841,-21.6741"/>
<polygon fill="midnightblue" stroke="midnightblue" points="1582.76,-119.657 1593.1,-117.359 1583.59,-112.705 1582.76,-119.657"/>
</g>
<!-- Node16 -->
<g id="node31" class="node"><title>Node16</title>
<a xlink:href="WindowServer_8cpp.htm" target="_top" xlink:title="WindowServer.cpp">
<polygon fill="white" stroke="black" points="393.5,-0.5 393.5,-21.5 498.5,-21.5 498.5,-0.5 393.5,-0.5"/>
<text text-anchor="middle" x="446" y="-8.5" font-family="Helvetica,sans-Serif" font-size="10.00">WindowServer.cpp</text>
</a>
</g>
<!-- Node4&#45;&gt;Node16 -->
<g id="edge86" class="edge"><title>Node4&#45;&gt;Node16</title>
<path fill="none" stroke="midnightblue" d="M1583.02,-116.45C1452.4,-108.227 451.116,-125.485 407,-80 390.043,-62.5169 415.178,-36.2247 432.306,-21.6624"/>
<polygon fill="midnightblue" stroke="midnightblue" points="1582.83,-119.948 1593.1,-117.36 1583.46,-112.976 1582.83,-119.948"/>
</g>
<!-- Node17 -->
<g id="node35" class="node"><title>Node17</title>
<a xlink:href="EASPolicyManager_8cpp.htm" target="_top" xlink:title="EASPolicyManager.cpp">
<polygon fill="white" stroke="black" points="577.5,-58.5 577.5,-79.5 704.5,-79.5 704.5,-58.5 577.5,-58.5"/>
<text text-anchor="middle" x="641" y="-66.5" font-family="Helvetica,sans-Serif" font-size="10.00">EASPolicyManager.cpp</text>
</a>
</g>
<!-- Node4&#45;&gt;Node17 -->
<g id="edge36" class="edge"><title>Node4&#45;&gt;Node17</title>
<path fill="none" stroke="midnightblue" d="M1583.11,-115.963C1199.32,-61.6368 1095.78,-117.028 713,-80 710.231,-79.7321 707.406,-79.4291 704.556,-79.0989"/>
<polygon fill="midnightblue" stroke="midnightblue" points="1582.71,-119.44 1593.1,-117.392 1583.7,-112.51 1582.71,-119.44"/>
</g>
<!-- Node18 -->
<g id="node37" class="node"><title>Node18</title>
<a xlink:href="EventReporter_8cpp.htm" target="_top" xlink:title="EventReporter.cpp">
<polygon fill="white" stroke="black" points="721.5,-58.5 721.5,-79.5 826.5,-79.5 826.5,-58.5 721.5,-58.5"/>
<text text-anchor="middle" x="774" y="-66.5" font-family="Helvetica,sans-Serif" font-size="10.00">EventReporter.cpp</text>
</a>
</g>
<!-- Node4&#45;&gt;Node18 -->
<g id="edge38" class="edge"><title>Node4&#45;&gt;Node18</title>
<path fill="none" stroke="midnightblue" d="M1582.77,-115.902C1253.02,-68.319 1163.18,-117.305 835,-80 832.22,-79.684 829.376,-79.3187 826.508,-78.9174"/>
<polygon fill="midnightblue" stroke="midnightblue" points="1582.7,-119.428 1593.1,-117.412 1583.71,-112.502 1582.7,-119.428"/>
</g>
<!-- Node19 -->
<g id="node39" class="node"><title>Node19</title>
<a xlink:href="BezelGestureRecognizer_8cpp.htm" target="_top" xlink:title="BezelGestureRecognizer.cpp">
<polygon fill="white" stroke="black" points="844,-58.5 844,-79.5 998,-79.5 998,-58.5 844,-58.5"/>
<text text-anchor="middle" x="921" y="-66.5" font-family="Helvetica,sans-Serif" font-size="10.00">BezelGestureRecognizer.cpp</text>
</a>
</g>
<!-- Node4&#45;&gt;Node19 -->
<g id="edge40" class="edge"><title>Node4&#45;&gt;Node19</title>
<path fill="none" stroke="midnightblue" d="M1583.19,-115.932C1328.9,-77.3183 1259.98,-104.032 1007,-80 1004.15,-79.7295 1001.25,-79.4386 998.329,-79.1318"/>
<polygon fill="midnightblue" stroke="midnightblue" points="1582.68,-119.394 1593.09,-117.455 1583.74,-112.476 1582.68,-119.394"/>
</g>
<!-- Node20 -->
<g id="node41" class="node"><title>Node20</title>
<a xlink:href="FlickGestureRecognizer_8cpp.htm" target="_top" xlink:title="FlickGestureRecognizer.cpp">
<polygon fill="white" stroke="black" points="1015.5,-58.5 1015.5,-79.5 1164.5,-79.5 1164.5,-58.5 1015.5,-58.5"/>
<text text-anchor="middle" x="1090" y="-66.5" font-family="Helvetica,sans-Serif" font-size="10.00">FlickGestureRecognizer.cpp</text>
</a>
</g>
<!-- Node4&#45;&gt;Node20 -->
<g id="edge42" class="edge"><title>Node4&#45;&gt;Node20</title>
<path fill="none" stroke="midnightblue" d="M1583.07,-115.861C1404.16,-86.3587 1355.31,-98.9171 1178,-80 1173.71,-79.5426 1169.31,-79.0537 1164.87,-78.5457"/>
<polygon fill="midnightblue" stroke="midnightblue" points="1582.64,-119.337 1593.08,-117.532 1583.79,-112.433 1582.64,-119.337"/>
</g>
<!-- Node21 -->
<g id="node43" class="node"><title>Node21</title>
<a xlink:href="HapticsController_8h.htm" target="_top" xlink:title="HapticsController.h">
<polygon fill="white" stroke="red" points="415.5,-58.5 415.5,-79.5 522.5,-79.5 522.5,-58.5 415.5,-58.5"/>
<text text-anchor="middle" x="469" y="-66.5" font-family="Helvetica,sans-Serif" font-size="10.00">HapticsController.h</text>
</a>
</g>
<!-- Node4&#45;&gt;Node21 -->
<g id="edge44" class="edge"><title>Node4&#45;&gt;Node21</title>
<path fill="none" stroke="midnightblue" d="M1583.17,-115.984C1121.29,-52.1224 996.948,-125.558 536,-80 531.66,-79.571 527.174,-79.0363 522.677,-78.4353"/>
<polygon fill="midnightblue" stroke="midnightblue" points="1582.72,-119.454 1593.1,-117.371 1583.68,-112.522 1582.72,-119.454"/>
</g>
<!-- Node22 -->
<g id="node45" class="node"><title>Node22</title>
<a xlink:href="HapticsController_8cpp.htm" target="_top" xlink:title="HapticsController.cpp">
<polygon fill="white" stroke="black" points="516,-0.5 516,-21.5 634,-21.5 634,-0.5 516,-0.5"/>
<text text-anchor="middle" x="575" y="-8.5" font-family="Helvetica,sans-Serif" font-size="10.00">HapticsController.cpp</text>
</a>
</g>
<!-- Node4&#45;&gt;Node22 -->
<g id="edge50" class="edge"><title>Node4&#45;&gt;Node22</title>
<path fill="none" stroke="midnightblue" d="M1582.89,-116.452C1463.68,-108.944 606.807,-119.17 569,-80 553.969,-64.4269 563.042,-36.6409 569.753,-21.5155"/>
<polygon fill="midnightblue" stroke="midnightblue" points="1582.83,-119.961 1593.1,-117.375 1583.46,-112.989 1582.83,-119.961"/>
</g>
<!-- Node23 -->
<g id="node49" class="node"><title>Node23</title>
<a xlink:href="HostArm_8cpp.htm" target="_top" xlink:title="HostArm.cpp">
<polygon fill="white" stroke="black" points="1183.5,-0.5 1183.5,-21.5 1260.5,-21.5 1260.5,-0.5 1183.5,-0.5"/>
<text text-anchor="middle" x="1222" y="-8.5" font-family="Helvetica,sans-Serif" font-size="10.00">HostArm.cpp</text>
</a>
</g>
<!-- Node4&#45;&gt;Node23 -->
<g id="edge52" class="edge"><title>Node4&#45;&gt;Node23</title>
<path fill="none" stroke="midnightblue" d="M1583.02,-116.097C1486.37,-104.52 1265.17,-139.631 1211,-80 1196.4,-63.9275 1207.6,-36.5968 1215.65,-21.6098"/>
<polygon fill="midnightblue" stroke="midnightblue" points="1582.68,-119.583 1593.07,-117.555 1583.68,-112.656 1582.68,-119.583"/>
</g>
<!-- Node24 -->
<g id="node51" class="node"><title>Node24</title>
<a xlink:href="HostArm_8h.htm" target="_top" xlink:title="HostArm.h">
<polygon fill="white" stroke="red" points="1219.5,-58.5 1219.5,-79.5 1284.5,-79.5 1284.5,-58.5 1219.5,-58.5"/>
<text text-anchor="middle" x="1252" y="-66.5" font-family="Helvetica,sans-Serif" font-size="10.00">HostArm.h</text>
</a>
</g>
<!-- Node4&#45;&gt;Node24 -->
<g id="edge54" class="edge"><title>Node4&#45;&gt;Node24</title>
<path fill="none" stroke="midnightblue" d="M1582.85,-115.763C1454.6,-92.7292 1418.09,-104.368 1293,-80 1290.25,-79.4645 1287.41,-78.8456 1284.58,-78.1799"/>
<polygon fill="midnightblue" stroke="midnightblue" points="1582.59,-119.274 1593.06,-117.635 1583.86,-112.389 1582.59,-119.274"/>
</g>
<!-- Node25 -->
<g id="node54" class="node"><title>Node25</title>
<a xlink:href="HostBase_8cpp.htm" target="_top" xlink:title="HostBase.cpp">
<polygon fill="white" stroke="black" points="1302,-58.5 1302,-79.5 1384,-79.5 1384,-58.5 1302,-58.5"/>
<text text-anchor="middle" x="1343" y="-66.5" font-family="Helvetica,sans-Serif" font-size="10.00">HostBase.cpp</text>
</a>
</g>
<!-- Node4&#45;&gt;Node25 -->
<g id="edge58" class="edge"><title>Node4&#45;&gt;Node25</title>
<path fill="none" stroke="midnightblue" d="M1583.23,-115.691C1498.5,-97.4311 1475,-96.7031 1393,-80 1390.13,-79.4146 1387.16,-78.7973 1384.18,-78.1661"/>
<polygon fill="midnightblue" stroke="midnightblue" points="1582.51,-119.116 1593.02,-117.82 1583.99,-112.275 1582.51,-119.116"/>
</g>
<!-- Node26 -->
<g id="node56" class="node"><title>Node26</title>
<a xlink:href="HostQtDesktop_8h.htm" target="_top" xlink:title="HostQtDesktop.h">
<polygon fill="white" stroke="red" points="1401.5,-58.5 1401.5,-79.5 1498.5,-79.5 1498.5,-58.5 1401.5,-58.5"/>
<text text-anchor="middle" x="1450" y="-66.5" font-family="Helvetica,sans-Serif" font-size="10.00">HostQtDesktop.h</text>
</a>
</g>
<!-- Node4&#45;&gt;Node26 -->
<g id="edge60" class="edge"><title>Node4&#45;&gt;Node26</title>
<path fill="none" stroke="midnightblue" d="M1587.07,-113.413C1555.13,-103.065 1511.8,-89.0258 1482.48,-79.5231"/>
<polygon fill="midnightblue" stroke="midnightblue" points="1585.99,-116.744 1596.58,-116.497 1588.15,-110.085 1585.99,-116.744"/>
</g>
<!-- Node27 -->
<g id="node58" class="node"><title>Node27</title>
<a xlink:href="InputManager_8cpp.htm" target="_top" xlink:title="InputManager.cpp">
<polygon fill="white" stroke="black" points="1516,-58.5 1516,-79.5 1618,-79.5 1618,-58.5 1516,-58.5"/>
<text text-anchor="middle" x="1567" y="-66.5" font-family="Helvetica,sans-Serif" font-size="10.00">InputManager.cpp</text>
</a>
</g>
<!-- Node4&#45;&gt;Node27 -->
<g id="edge62" class="edge"><title>Node4&#45;&gt;Node27</title>
<path fill="none" stroke="midnightblue" d="M1610.19,-109.405C1599.78,-99.6683 1587.19,-87.8914 1578.3,-79.5707"/>
<polygon fill="midnightblue" stroke="midnightblue" points="1607.93,-112.086 1617.63,-116.362 1612.72,-106.974 1607.93,-112.086"/>
</g>
<!-- Node28 -->
<g id="node60" class="node"><title>Node28</title>
<a xlink:href="MemoryMonitor_8cpp.htm" target="_top" xlink:title="MemoryMonitor.cpp">
<polygon fill="white" stroke="black" points="1636,-58.5 1636,-79.5 1746,-79.5 1746,-58.5 1636,-58.5"/>
<text text-anchor="middle" x="1691" y="-66.5" font-family="Helvetica,sans-Serif" font-size="10.00">MemoryMonitor.cpp</text>
</a>
</g>
<!-- Node4&#45;&gt;Node28 -->
<g id="edge64" class="edge"><title>Node4&#45;&gt;Node28</title>
<path fill="none" stroke="midnightblue" d="M1647.81,-109.405C1658.22,-99.6683 1670.81,-87.8914 1679.7,-79.5707"/>
<polygon fill="midnightblue" stroke="midnightblue" points="1645.28,-106.974 1640.37,-116.362 1650.07,-112.086 1645.28,-106.974"/>
</g>
<!-- Node29 -->
<g id="node62" class="node"><title>Node29</title>
<a xlink:href="ProgressAnimation_8cpp.htm" target="_top" xlink:title="ProgressAnimation.cpp">
<polygon fill="white" stroke="black" points="1763.5,-58.5 1763.5,-79.5 1888.5,-79.5 1888.5,-58.5 1763.5,-58.5"/>
<text text-anchor="middle" x="1826" y="-66.5" font-family="Helvetica,sans-Serif" font-size="10.00">ProgressAnimation.cpp</text>
</a>
</g>
<!-- Node4&#45;&gt;Node29 -->
<g id="edge66" class="edge"><title>Node4&#45;&gt;Node29</title>
<path fill="none" stroke="midnightblue" d="M1674.7,-113.546C1709.89,-103.186 1757.84,-89.0668 1790.26,-79.5231"/>
<polygon fill="midnightblue" stroke="midnightblue" points="1673.28,-110.315 1664.68,-116.497 1675.26,-117.03 1673.28,-110.315"/>
</g>
<!-- Node30 -->
<g id="node64" class="node"><title>Node30</title>
<a xlink:href="Security_8cpp.htm" target="_top" xlink:title="Security.cpp">
<polygon fill="white" stroke="black" points="1906,-58.5 1906,-79.5 1980,-79.5 1980,-58.5 1906,-58.5"/>
<text text-anchor="middle" x="1943" y="-66.5" font-family="Helvetica,sans-Serif" font-size="10.00">Security.cpp</text>
</a>
</g>
<!-- Node4&#45;&gt;Node30 -->
<g id="edge68" class="edge"><title>Node4&#45;&gt;Node30</title>
<path fill="none" stroke="midnightblue" d="M1675.04,-115.697C1773.55,-95.9859 1801.3,-99.1034 1897,-80 1899.9,-79.4213 1902.89,-78.7878 1905.9,-78.1265"/>
<polygon fill="midnightblue" stroke="midnightblue" points="1674.06,-112.324 1664.96,-117.743 1675.46,-119.184 1674.06,-112.324"/>
</g>
<!-- Node31 -->
<g id="node66" class="node"><title>Node31</title>
<a xlink:href="DeviceInfo_8cpp.htm" target="_top" xlink:title="DeviceInfo.cpp">
<polygon fill="white" stroke="black" points="1998,-58.5 1998,-79.5 2084,-79.5 2084,-58.5 1998,-58.5"/>
<text text-anchor="middle" x="2041" y="-66.5" font-family="Helvetica,sans-Serif" font-size="10.00">DeviceInfo.cpp</text>
</a>
</g>
<!-- Node4&#45;&gt;Node31 -->
<g id="edge70" class="edge"><title>Node4&#45;&gt;Node31</title>
<path fill="none" stroke="midnightblue" d="M1675.1,-115.785C1813.9,-91.3404 1852.74,-102.122 1989,-80 1991.91,-79.5268 1994.91,-79 1997.93,-78.4404"/>
<polygon fill="midnightblue" stroke="midnightblue" points="1674.16,-112.398 1664.93,-117.607 1675.4,-119.289 1674.16,-112.398"/>
</g>
<!-- Node32 -->
<g id="node68" class="node"><title>Node32</title>
<a xlink:href="Preferences_8cpp.htm" target="_top" xlink:title="Preferences.cpp">
<polygon fill="white" stroke="black" points="2102,-58.5 2102,-79.5 2196,-79.5 2196,-58.5 2102,-58.5"/>
<text text-anchor="middle" x="2149" y="-66.5" font-family="Helvetica,sans-Serif" font-size="10.00">Preferences.cpp</text>
</a>
</g>
<!-- Node4&#45;&gt;Node32 -->
<g id="edge72" class="edge"><title>Node4&#45;&gt;Node32</title>
<path fill="none" stroke="midnightblue" d="M1674.96,-115.867C1859.59,-85.9031 1910.74,-105.635 2093,-80 2095.85,-79.5998 2098.76,-79.1491 2101.7,-78.6645"/>
<polygon fill="midnightblue" stroke="midnightblue" points="1674.22,-112.443 1664.92,-117.524 1675.36,-119.349 1674.22,-112.443"/>
</g>
<!-- Node33 -->
<g id="node70" class="node"><title>Node33</title>
<a xlink:href="SystemService_8cpp.htm" target="_top" xlink:title="SystemService.cpp">
<polygon fill="white" stroke="black" points="2214,-58.5 2214,-79.5 2320,-79.5 2320,-58.5 2214,-58.5"/>
<text text-anchor="middle" x="2267" y="-66.5" font-family="Helvetica,sans-Serif" font-size="10.00">SystemService.cpp</text>
</a>
</g>
<!-- Node4&#45;&gt;Node33 -->
<g id="edge74" class="edge"><title>Node4&#45;&gt;Node33</title>
<path fill="none" stroke="midnightblue" d="M1675.09,-115.882C1908.91,-79.9436 1973.1,-108.335 2205,-80 2207.93,-79.642 2210.93,-79.2372 2213.96,-78.7994"/>
<polygon fill="midnightblue" stroke="midnightblue" points="1674.25,-112.47 1664.91,-117.471 1675.33,-119.387 1674.25,-112.47"/>
</g>
<!-- Node34 -->
<g id="node73" class="node"><title>Node34</title>
<a xlink:href="TouchToShareGlow_8cpp.htm" target="_top" xlink:title="TouchToShareGlow.cpp">
<polygon fill="white" stroke="black" points="2337.5,-58.5 2337.5,-79.5 2468.5,-79.5 2468.5,-58.5 2337.5,-58.5"/>
<text text-anchor="middle" x="2403" y="-66.5" font-family="Helvetica,sans-Serif" font-size="10.00">TouchToShareGlow.cpp</text>
</a>
</g>
<!-- Node4&#45;&gt;Node34 -->
<g id="edge78" class="edge"><title>Node4&#45;&gt;Node34</title>
<path fill="none" stroke="midnightblue" d="M1674.82,-115.946C1963.47,-73.2186 2041.76,-109.167 2329,-80 2331.71,-79.7245 2334.48,-79.4201 2337.27,-79.0935"/>
<polygon fill="midnightblue" stroke="midnightblue" points="1674.28,-112.489 1664.91,-117.433 1675.31,-119.411 1674.28,-112.489"/>
</g>
<!-- Node35 -->
<g id="node75" class="node"><title>Node35</title>
<a xlink:href="WSOverlayScreenShotAnimation_8cpp.htm" target="_top" xlink:title="WSOverlayScreenShotAnimation.cpp">
<polygon fill="white" stroke="black" points="2485.5,-58.5 2485.5,-79.5 2676.5,-79.5 2676.5,-58.5 2485.5,-58.5"/>
<text text-anchor="middle" x="2581" y="-66.5" font-family="Helvetica,sans-Serif" font-size="10.00">WSOverlayScreenShotAnimation.cpp</text>
</a>
</g>
<!-- Node4&#45;&gt;Node35 -->
<g id="edge80" class="edge"><title>Node4&#45;&gt;Node35</title>
<path fill="none" stroke="midnightblue" d="M1674.91,-115.951C2028.7,-65.1468 2123.62,-106.575 2477,-80 2479.72,-79.7958 2482.47,-79.5777 2485.25,-79.3481"/>
<polygon fill="midnightblue" stroke="midnightblue" points="1674.3,-112.503 1664.9,-117.402 1675.3,-119.431 1674.3,-112.503"/>
</g>
<!-- Node36 -->
<g id="node77" class="node"><title>Node36</title>
<a xlink:href="HostWindowDataOpenGL_8cpp.htm" target="_top" xlink:title="HostWindowDataOpenGL.cpp">
<polygon fill="white" stroke="black" points="2694,-58.5 2694,-79.5 2852,-79.5 2852,-58.5 2694,-58.5"/>
<text text-anchor="middle" x="2773" y="-66.5" font-family="Helvetica,sans-Serif" font-size="10.00">HostWindowDataOpenGL.cpp</text>
</a>
</g>
<!-- Node4&#45;&gt;Node36 -->
<g id="edge82" class="edge"><title>Node4&#45;&gt;Node36</title>
<path fill="none" stroke="midnightblue" d="M1674.81,-115.983C2120.38,-53.9929 2239.66,-115.684 2685,-80 2687.92,-79.7663 2690.88,-79.5068 2693.88,-79.2264"/>
<polygon fill="midnightblue" stroke="midnightblue" points="1674.31,-112.518 1664.9,-117.375 1675.29,-119.45 1674.31,-112.518"/>
</g>
<!-- Node37 -->
<g id="node79" class="node"><title>Node37</title>
<a xlink:href="HostWindowDataOpenGLTextureShared_8cpp.htm" target="_top" xlink:title="HostWindowDataOpenGLTextureShared.cpp">
<polygon fill="white" stroke="black" points="2869.5,-58.5 2869.5,-79.5 3098.5,-79.5 3098.5,-58.5 2869.5,-58.5"/>
<text text-anchor="middle" x="2984" y="-66.5" font-family="Helvetica,sans-Serif" font-size="10.00">HostWindowDataOpenGLTextureShared.cpp</text>
</a>
</g>
<!-- Node4&#45;&gt;Node37 -->
<g id="edge84" class="edge"><title>Node4&#45;&gt;Node37</title>
<path fill="none" stroke="midnightblue" d="M1674.97,-115.97C2198.01,-44.3835 2337.05,-111.34 2861,-80 2863.78,-79.8336 2866.6,-79.6557 2869.44,-79.468"/>
<polygon fill="midnightblue" stroke="midnightblue" points="1674.32,-112.526 1664.9,-117.359 1675.28,-119.46 1674.32,-112.526"/>
</g>
<!-- Node12&#45;&gt;Node13 -->
<g id="edge24" class="edge"><title>Node12&#45;&gt;Node13</title>
<path fill="none" stroke="midnightblue" d="M218.23,-55.6795C181.032,-45.307 130.111,-31.1078 95.7379,-21.5231"/>
<polygon fill="midnightblue" stroke="midnightblue" points="217.76,-59.182 228.333,-58.4966 219.64,-52.4392 217.76,-59.182"/>
</g>
<!-- Node12&#45;&gt;Node14 -->
<g id="edge26" class="edge"><title>Node12&#45;&gt;Node14</title>
<path fill="none" stroke="midnightblue" d="M242.162,-52.5407C227.762,-42.5973 209.833,-30.2177 197.309,-21.5707"/>
<polygon fill="midnightblue" stroke="midnightblue" points="240.375,-55.5601 250.593,-58.3619 244.353,-49.7998 240.375,-55.5601"/>
</g>
<!-- Node12&#45;&gt;Node15 -->
<g id="edge28" class="edge"><title>Node12&#45;&gt;Node15</title>
<path fill="none" stroke="midnightblue" d="M280.958,-50.5407C288.707,-40.9786 297.89,-29.6467 304.434,-21.5707"/>
<polygon fill="midnightblue" stroke="midnightblue" points="278.197,-48.389 274.621,-58.3619 283.636,-52.7961 278.197,-48.389"/>
</g>
<!-- Node12&#45;&gt;Node16 -->
<g id="edge30" class="edge"><title>Node12&#45;&gt;Node16</title>
<path fill="none" stroke="midnightblue" d="M308.167,-55.4127C340.282,-45.0646 383.851,-31.0258 413.342,-21.5231"/>
<polygon fill="midnightblue" stroke="midnightblue" points="307.041,-52.0983 298.597,-58.4966 309.188,-58.761 307.041,-52.0983"/>
</g>
<!-- Node21&#45;&gt;Node16 -->
<g id="edge48" class="edge"><title>Node21&#45;&gt;Node16</title>
<path fill="none" stroke="midnightblue" d="M460.983,-48.7838C457.348,-39.617 453.2,-29.1572 450.192,-21.5707"/>
<polygon fill="midnightblue" stroke="midnightblue" points="457.842,-50.3563 464.781,-58.3619 464.349,-47.7759 457.842,-50.3563"/>
</g>
<!-- Node21&#45;&gt;Node22 -->
<g id="edge46" class="edge"><title>Node21&#45;&gt;Node22</title>
<path fill="none" stroke="midnightblue" d="M497.296,-53.5175C515.752,-43.4189 539.356,-30.5032 555.681,-21.5707"/>
<polygon fill="midnightblue" stroke="midnightblue" points="495.535,-50.4913 488.442,-58.3619 498.895,-56.6322 495.535,-50.4913"/>
</g>
<!-- Node24&#45;&gt;Node23 -->
<g id="edge56" class="edge"><title>Node24&#45;&gt;Node23</title>
<path fill="none" stroke="midnightblue" d="M1241.85,-49.3733C1237.04,-40.0682 1231.48,-29.3204 1227.47,-21.5707"/>
<polygon fill="midnightblue" stroke="midnightblue" points="1238.79,-51.0877 1246.5,-58.3619 1245.01,-47.8717 1238.79,-51.0877"/>
</g>
<!-- Node41 -->
<g id="node88" class="node"><title>Node41</title>
<a xlink:href="CardWebApp_8h.htm" target="_top" xlink:title="CardWebApp.h">
<polygon fill="white" stroke="red" points="4256,-116.5 4256,-137.5 4344,-137.5 4344,-116.5 4256,-116.5"/>
<text text-anchor="middle" x="4300" y="-124.5" font-family="Helvetica,sans-Serif" font-size="10.00">CardWebApp.h</text>
</a>
</g>
<!-- Node40&#45;&gt;Node41 -->
<g id="edge94" class="edge"><title>Node40&#45;&gt;Node41</title>
<path fill="none" stroke="midnightblue" d="M4161.4,-171.413C4193.69,-161.065 4237.51,-147.026 4267.16,-137.523"/>
<polygon fill="midnightblue" stroke="midnightblue" points="4160.23,-168.112 4151.78,-174.497 4162.37,-174.778 4160.23,-168.112"/>
</g>
<!-- Node42 -->
<g id="node90" class="node"><title>Node42</title>
<a xlink:href="DockWebApp_8h.htm" target="_top" xlink:title="DockWebApp.h">
<polygon fill="white" stroke="red" points="4361.5,-58.5 4361.5,-79.5 4450.5,-79.5 4450.5,-58.5 4361.5,-58.5"/>
<text text-anchor="middle" x="4406" y="-66.5" font-family="Helvetica,sans-Serif" font-size="10.00">DockWebApp.h</text>
</a>
</g>
<!-- Node40&#45;&gt;Node42 -->
<g id="edge102" class="edge"><title>Node40&#45;&gt;Node42</title>
<path fill="none" stroke="midnightblue" d="M4186.23,-176.832C4245.19,-168.714 4325.65,-155.032 4353,-138 4376.21,-123.547 4393.09,-95.0385 4400.99,-79.5752"/>
<polygon fill="midnightblue" stroke="midnightblue" points="4185.66,-173.376 4176.22,-178.184 4186.6,-180.313 4185.66,-173.376"/>
</g>
<!-- Node43 -->
<g id="node92" class="node"><title>Node43</title>
<a xlink:href="WebAppFactoryMinimal_8cpp.htm" target="_top" xlink:title="WebAppFactoryMinimal.cpp">
<polygon fill="white" stroke="black" points="4061.5,-58.5 4061.5,-79.5 4208.5,-79.5 4208.5,-58.5 4061.5,-58.5"/>
<text text-anchor="middle" x="4135" y="-66.5" font-family="Helvetica,sans-Serif" font-size="10.00">WebAppFactoryMinimal.cpp</text>
</a>
</g>
<!-- Node40&#45;&gt;Node43 -->
<g id="edge110" class="edge"><title>Node40&#45;&gt;Node43</title>
<path fill="none" stroke="midnightblue" d="M4145.32,-168.378C4155.32,-160.513 4165.6,-150.164 4171,-138 4180.43,-116.76 4160.94,-92.9137 4147.13,-79.5512"/>
<polygon fill="midnightblue" stroke="midnightblue" points="4143.11,-165.66 4137.1,-174.386 4147.23,-171.313 4143.11,-165.66"/>
</g>
<!-- Node44 -->
<g id="node94" class="node"><title>Node44</title>
<a xlink:href="WebAppManager_8cpp.htm" target="_top" xlink:title="WebAppManager.cpp">
<polygon fill="white" stroke="black" points="4225.5,-58.5 4225.5,-79.5 4344.5,-79.5 4344.5,-58.5 4225.5,-58.5"/>
<text text-anchor="middle" x="4285" y="-66.5" font-family="Helvetica,sans-Serif" font-size="10.00">WebAppManager.cpp</text>
</a>
</g>
<!-- Node40&#45;&gt;Node44 -->
<g id="edge116" class="edge"><title>Node40&#45;&gt;Node44</title>
<path fill="none" stroke="midnightblue" d="M4142.88,-168.316C4177.51,-144.112 4240.72,-99.9446 4269.72,-79.6792"/>
<polygon fill="midnightblue" stroke="midnightblue" points="4140.51,-165.698 4134.32,-174.295 4144.52,-171.436 4140.51,-165.698"/>
</g>
<!-- Node45 -->
<g id="node97" class="node"><title>Node45</title>
<a xlink:href="AlertWebApp_8h.htm" target="_top" xlink:title="AlertWebApp.h">
<polygon fill="white" stroke="red" points="4076,-116.5 4076,-137.5 4162,-137.5 4162,-116.5 4076,-116.5"/>
<text text-anchor="middle" x="4119" y="-124.5" font-family="Helvetica,sans-Serif" font-size="10.00">AlertWebApp.h</text>
</a>
</g>
<!-- Node40&#45;&gt;Node45 -->
<g id="edge104" class="edge"><title>Node40&#45;&gt;Node45</title>
<path fill="none" stroke="midnightblue" d="M4119,-164.191C4119,-155.168 4119,-144.994 4119,-137.571"/>
<polygon fill="midnightblue" stroke="midnightblue" points="4115.5,-164.362 4119,-174.362 4122.5,-164.362 4115.5,-164.362"/>
</g>
<!-- Node46 -->
<g id="node100" class="node"><title>Node46</title>
<a xlink:href="DashboardWebApp_8h.htm" target="_top" xlink:title="DashboardWebApp.h">
<polygon fill="white" stroke="red" points="4400,-116.5 4400,-137.5 4516,-137.5 4516,-116.5 4400,-116.5"/>
<text text-anchor="middle" x="4458" y="-124.5" font-family="Helvetica,sans-Serif" font-size="10.00">DashboardWebApp.h</text>
</a>
</g>
<!-- Node40&#45;&gt;Node46 -->
<g id="edge108" class="edge"><title>Node40&#45;&gt;Node46</title>
<path fill="none" stroke="midnightblue" d="M4186.26,-173.493C4248.63,-162.822 4340.49,-147.105 4399.79,-136.959"/>
<polygon fill="midnightblue" stroke="midnightblue" points="4185.39,-170.09 4176.12,-175.227 4186.57,-176.99 4185.39,-170.09"/>
</g>
<!-- Node47 -->
<g id="node103" class="node"><title>Node47</title>
<a xlink:href="WebAppBase_8cpp.htm" target="_top" xlink:title="WebAppBase.cpp">
<polygon fill="white" stroke="black" points="3508,-116.5 3508,-137.5 3608,-137.5 3608,-116.5 3508,-116.5"/>
<text text-anchor="middle" x="3558" y="-124.5" font-family="Helvetica,sans-Serif" font-size="10.00">WebAppBase.cpp</text>
</a>
</g>
<!-- Node40&#45;&gt;Node47 -->
<g id="edge112" class="edge"><title>Node40&#45;&gt;Node47</title>
<path fill="none" stroke="midnightblue" d="M4051.77,-180.658C3955.24,-173.981 3771.95,-159.652 3617,-138 3614.11,-137.596 3611.15,-137.149 3608.16,-136.673"/>
<polygon fill="midnightblue" stroke="midnightblue" points="4051.75,-184.165 4061.96,-181.357 4052.23,-177.181 4051.75,-184.165"/>
</g>
<!-- Node48 -->
<g id="node105" class="node"><title>Node48</title>
<a xlink:href="WebAppDeferredUpdateHandler_8cpp.htm" target="_top" xlink:title="WebAppDeferredUpdateHandler.cpp">
<polygon fill="white" stroke="black" points="3626,-116.5 3626,-137.5 3816,-137.5 3816,-116.5 3626,-116.5"/>
<text text-anchor="middle" x="3721" y="-124.5" font-family="Helvetica,sans-Serif" font-size="10.00">WebAppDeferredUpdateHandler.cpp</text>
</a>
</g>
<!-- Node40&#45;&gt;Node48 -->
<g id="edge114" class="edge"><title>Node40&#45;&gt;Node48</title>
<path fill="none" stroke="midnightblue" d="M4051.7,-175.192C3979.92,-164.731 3866.65,-148.225 3793.09,-137.505"/>
<polygon fill="midnightblue" stroke="midnightblue" points="4051.58,-178.711 4061.98,-176.69 4052.59,-171.784 4051.58,-178.711"/>
</g>
<!-- Node49 -->
<g id="node108" class="node"><title>Node49</title>
<a xlink:href="WebPage_8cpp.htm" target="_top" xlink:title="WebPage.cpp">
<polygon fill="white" stroke="black" points="3834,-116.5 3834,-137.5 3916,-137.5 3916,-116.5 3834,-116.5"/>
<text text-anchor="middle" x="3875" y="-124.5" font-family="Helvetica,sans-Serif" font-size="10.00">WebPage.cpp</text>
</a>
</g>
<!-- Node40&#45;&gt;Node49 -->
<g id="edge118" class="edge"><title>Node40&#45;&gt;Node49</title>
<path fill="none" stroke="midnightblue" d="M4064.94,-172.149C4019.97,-161.459 3956.92,-146.472 3916.02,-136.75"/>
<polygon fill="midnightblue" stroke="midnightblue" points="4064.28,-175.589 4074.81,-174.497 4065.89,-168.779 4064.28,-175.589"/>
</g>
<!-- Node50 -->
<g id="node110" class="node"><title>Node50</title>
<a xlink:href="WindowedWebApp_8cpp.htm" target="_top" xlink:title="WindowedWebApp.cpp">
<polygon fill="white" stroke="black" points="3933.5,-116.5 3933.5,-137.5 4058.5,-137.5 4058.5,-116.5 3933.5,-116.5"/>
<text text-anchor="middle" x="3996" y="-124.5" font-family="Helvetica,sans-Serif" font-size="10.00">WindowedWebApp.cpp</text>
</a>
</g>
<!-- Node40&#45;&gt;Node50 -->
<g id="edge120" class="edge"><title>Node40&#45;&gt;Node50</title>
<path fill="none" stroke="midnightblue" d="M4087.63,-170.206C4066.05,-160.031 4037.9,-146.757 4018.52,-137.621"/>
<polygon fill="midnightblue" stroke="midnightblue" points="4086.19,-173.397 4096.73,-174.497 4089.17,-167.066 4086.19,-173.397"/>
</g>
<!-- Node41&#45;&gt;Node42 -->
<g id="edge96" class="edge"><title>Node41&#45;&gt;Node42</title>
<path fill="none" stroke="midnightblue" d="M4328.3,-111.517C4346.75,-101.419 4370.36,-88.5032 4386.68,-79.5707"/>
<polygon fill="midnightblue" stroke="midnightblue" points="4326.53,-108.491 4319.44,-116.362 4329.89,-114.632 4326.53,-108.491"/>
</g>
<!-- Node41&#45;&gt;Node43 -->
<g id="edge98" class="edge"><title>Node41&#45;&gt;Node43</title>
<path fill="none" stroke="midnightblue" d="M4260.58,-113.144C4231.22,-102.823 4191.74,-88.9439 4164.94,-79.5231"/>
<polygon fill="midnightblue" stroke="midnightblue" points="4259.52,-116.482 4270.12,-116.497 4261.85,-109.878 4259.52,-116.482"/>
</g>
<!-- Node41&#45;&gt;Node44 -->
<g id="edge100" class="edge"><title>Node41&#45;&gt;Node44</title>
<path fill="none" stroke="midnightblue" d="M4294.7,-106.488C4292.34,-97.3924 4289.67,-87.0756 4287.73,-79.5707"/>
<polygon fill="midnightblue" stroke="midnightblue" points="4291.36,-107.557 4297.25,-116.362 4298.13,-105.804 4291.36,-107.557"/>
</g>
<!-- Node45&#45;&gt;Node43 -->
<g id="edge106" class="edge"><title>Node45&#45;&gt;Node43</title>
<path fill="none" stroke="midnightblue" d="M4124.66,-106.488C4127.17,-97.3924 4130.01,-87.0756 4132.08,-79.5707"/>
<polygon fill="midnightblue" stroke="midnightblue" points="4121.22,-105.791 4121.93,-116.362 4127.97,-107.653 4121.22,-105.791"/>
</g>
</g>
</svg>
