<?xml version="1.0" encoding="UTF-8" standalone="no"?>
<!DOCTYPE svg PUBLIC "-//W3C//DTD SVG 1.1//EN"
 "http://www.w3.org/Graphics/SVG/1.1/DTD/svg11.dtd">
<!-- Generated by graphviz version 2.26.3 (20100126.1600)
 -->
<!-- Title: G Pages: 1 -->
<svg width="1101pt" height="146pt"
 viewBox="0.00 0.00 1101.00 146.00" xmlns="http://www.w3.org/2000/svg" xmlns:xlink="http://www.w3.org/1999/xlink">
<g id="graph1" class="graph" transform="scale(1 1) rotate(0) translate(4 142)">
<title>G</title>
<polygon fill="white" stroke="white" points="-4,5 -4,-142 1098,-142 1098,5 -4,5"/>
<!-- Node1 -->
<g id="node1" class="node"><title>Node1</title>
<polygon fill="#bfbfbf" stroke="black" points="453,-116.5 453,-137.5 593,-137.5 593,-116.5 453,-116.5"/>
<text text-anchor="middle" x="523" y="-124.5" font-family="Helvetica,sans-Serif" font-size="10.00">BannerMessageHandler.h</text>
</g>
<!-- Node2 -->
<g id="node3" class="node"><title>Node2</title>
<a xlink:href="KeyLocationRecorder_8cpp.htm" target="_top" xlink:title="KeyLocationRecorder.cpp">
<polygon fill="white" stroke="black" points="-0.5,-58.5 -0.5,-79.5 138.5,-79.5 138.5,-58.5 -0.5,-58.5"/>
<text text-anchor="middle" x="69" y="-66.5" font-family="Helvetica,sans-Serif" font-size="10.00">KeyLocationRecorder.cpp</text>
</a>
</g>
<!-- Node1&#45;&gt;Node2 -->
<g id="edge2" class="edge"><title>Node1&#45;&gt;Node2</title>
<path fill="none" stroke="midnightblue" d="M442.966,-117.366C366.814,-108.112 249.039,-93.5717 147,-80 144.289,-79.6394 141.525,-79.268 138.734,-78.8897"/>
<polygon fill="midnightblue" stroke="midnightblue" points="442.617,-120.849 452.966,-118.58 443.461,-113.9 442.617,-120.849"/>
</g>
<!-- Node3 -->
<g id="node5" class="node"><title>Node3</title>
<a xlink:href="CardHostWindow_8cpp.htm" target="_top" xlink:title="CardHostWindow.cpp">
<polygon fill="white" stroke="black" points="155.5,-58.5 155.5,-79.5 274.5,-79.5 274.5,-58.5 155.5,-58.5"/>
<text text-anchor="middle" x="215" y="-66.5" font-family="Helvetica,sans-Serif" font-size="10.00">CardHostWindow.cpp</text>
</a>
</g>
<!-- Node1&#45;&gt;Node3 -->
<g id="edge4" class="edge"><title>Node1&#45;&gt;Node3</title>
<path fill="none" stroke="midnightblue" d="M457.151,-114.6C401.715,-104.161 323.302,-89.3945 270.881,-79.5231"/>
<polygon fill="midnightblue" stroke="midnightblue" points="456.749,-118.086 467.224,-116.497 458.044,-111.206 456.749,-118.086"/>
</g>
<!-- Node4 -->
<g id="node7" class="node"><title>Node4</title>
<a xlink:href="LockWindow_8cpp.htm" target="_top" xlink:title="LockWindow.cpp">
<polygon fill="white" stroke="black" points="292,-58.5 292,-79.5 388,-79.5 388,-58.5 292,-58.5"/>
<text text-anchor="middle" x="340" y="-66.5" font-family="Helvetica,sans-Serif" font-size="10.00">LockWindow.cpp</text>
</a>
</g>
<!-- Node1&#45;&gt;Node4 -->
<g id="edge6" class="edge"><title>Node1&#45;&gt;Node4</title>
<path fill="none" stroke="midnightblue" d="M480.13,-113.413C447.48,-103.065 403.185,-89.0258 373.202,-79.5231"/>
<polygon fill="midnightblue" stroke="midnightblue" points="479.27,-116.812 489.86,-116.497 481.385,-110.139 479.27,-116.812"/>
</g>
<!-- Node5 -->
<g id="node9" class="node"><title>Node5</title>
<a xlink:href="AlertWindow_8cpp.htm" target="_top" xlink:title="AlertWindow.cpp">
<polygon fill="white" stroke="black" points="405.5,-58.5 405.5,-79.5 500.5,-79.5 500.5,-58.5 405.5,-58.5"/>
<text text-anchor="middle" x="453" y="-66.5" font-family="Helvetica,sans-Serif" font-size="10.00">AlertWindow.cpp</text>
</a>
</g>
<!-- Node1&#45;&gt;Node5 -->
<g id="edge8" class="edge"><title>Node1&#45;&gt;Node5</title>
<path fill="none" stroke="midnightblue" d="M502.453,-109.975C490.573,-100.132 475.997,-88.0545 465.758,-79.5707"/>
<polygon fill="midnightblue" stroke="midnightblue" points="500.228,-112.677 510.161,-116.362 504.694,-107.287 500.228,-112.677"/>
</g>
<!-- Node6 -->
<g id="node11" class="node"><title>Node6</title>
<a xlink:href="BannerMessageHandler_8cpp.htm" target="_top" xlink:title="BannerMessageHandler.cpp">
<polygon fill="white" stroke="black" points="518,-58.5 518,-79.5 670,-79.5 670,-58.5 518,-58.5"/>
<text text-anchor="middle" x="594" y="-66.5" font-family="Helvetica,sans-Serif" font-size="10.00">BannerMessageHandler.cpp</text>
</a>
</g>
<!-- Node1&#45;&gt;Node6 -->
<g id="edge10" class="edge"><title>Node1&#45;&gt;Node6</title>
<path fill="none" stroke="midnightblue" d="M543.841,-109.975C555.891,-100.132 570.675,-88.0545 581.06,-79.5707"/>
<polygon fill="midnightblue" stroke="midnightblue" points="541.553,-107.325 536.022,-116.362 545.981,-112.746 541.553,-107.325"/>
</g>
<!-- Node7 -->
<g id="node13" class="node"><title>Node7</title>
<a xlink:href="BannerWindow_8h.htm" target="_top" xlink:title="BannerWindow.h">
<polygon fill="white" stroke="black" points="687.5,-58.5 687.5,-79.5 784.5,-79.5 784.5,-58.5 687.5,-58.5"/>
<text text-anchor="middle" x="736" y="-66.5" font-family="Helvetica,sans-Serif" font-size="10.00">BannerWindow.h</text>
</a>
</g>
<!-- Node1&#45;&gt;Node7 -->
<g id="edge12" class="edge"><title>Node1&#45;&gt;Node7</title>
<path fill="none" stroke="midnightblue" d="M571.431,-113.812C609.564,-103.428 662.006,-89.1487 697.355,-79.5231"/>
<polygon fill="midnightblue" stroke="midnightblue" points="570.302,-110.492 561.573,-116.497 572.141,-117.246 570.302,-110.492"/>
</g>
<!-- Node10 -->
<g id="node19" class="node"><title>Node10</title>
<a xlink:href="StatusBarNotificationArea_8h.htm" target="_top" xlink:title="StatusBarNotificationArea.h">
<polygon fill="white" stroke="black" points="804,-58.5 804,-79.5 950,-79.5 950,-58.5 804,-58.5"/>
<text text-anchor="middle" x="877" y="-66.5" font-family="Helvetica,sans-Serif" font-size="10.00">StatusBarNotificationArea.h</text>
</a>
</g>
<!-- Node1&#45;&gt;Node10 -->
<g id="edge18" class="edge"><title>Node1&#45;&gt;Node10</title>
<path fill="none" stroke="midnightblue" d="M597.103,-114.859C660.901,-104.406 752.023,-89.4764 812.773,-79.5231"/>
<polygon fill="midnightblue" stroke="midnightblue" points="596.409,-111.426 587.107,-116.497 597.541,-118.334 596.409,-111.426"/>
</g>
<!-- Node13 -->
<g id="node25" class="node"><title>Node13</title>
<a xlink:href="WebAppMgrProxy_8cpp.htm" target="_top" xlink:title="WebAppMgrProxy.cpp">
<polygon fill="white" stroke="black" points="968,-58.5 968,-79.5 1090,-79.5 1090,-58.5 968,-58.5"/>
<text text-anchor="middle" x="1029" y="-66.5" font-family="Helvetica,sans-Serif" font-size="10.00">WebAppMgrProxy.cpp</text>
</a>
</g>
<!-- Node1&#45;&gt;Node13 -->
<g id="edge24" class="edge"><title>Node1&#45;&gt;Node13</title>
<path fill="none" stroke="midnightblue" d="M603.488,-119.503C691.089,-111.068 835.217,-96.3878 959,-80 961.927,-79.6125 964.92,-79.201 967.942,-78.7733"/>
<polygon fill="midnightblue" stroke="midnightblue" points="602.973,-116.036 593.353,-120.475 603.642,-123.004 602.973,-116.036"/>
</g>
<!-- Node8 -->
<g id="node15" class="node"><title>Node8</title>
<a xlink:href="BannerWindow_8cpp.htm" target="_top" xlink:title="BannerWindow.cpp">
<polygon fill="white" stroke="black" points="525,-0.5 525,-21.5 633,-21.5 633,-0.5 525,-0.5"/>
<text text-anchor="middle" x="579" y="-8.5" font-family="Helvetica,sans-Serif" font-size="10.00">BannerWindow.cpp</text>
</a>
</g>
<!-- Node7&#45;&gt;Node8 -->
<g id="edge14" class="edge"><title>Node7&#45;&gt;Node8</title>
<path fill="none" stroke="midnightblue" d="M698.129,-55.0095C670.229,-44.7023 632.875,-30.903 607.485,-21.5231"/>
<polygon fill="midnightblue" stroke="midnightblue" points="696.975,-58.3143 707.568,-58.4966 699.401,-51.7481 696.975,-58.3143"/>
</g>
<!-- Node9 -->
<g id="node17" class="node"><title>Node9</title>
<a xlink:href="DashboardWindowManager_8cpp.htm" target="_top" xlink:title="DashboardWindowManager.cpp">
<polygon fill="white" stroke="black" points="651,-0.5 651,-21.5 819,-21.5 819,-0.5 651,-0.5"/>
<text text-anchor="middle" x="735" y="-8.5" font-family="Helvetica,sans-Serif" font-size="10.00">DashboardWindowManager.cpp</text>
</a>
</g>
<!-- Node7&#45;&gt;Node9 -->
<g id="edge16" class="edge"><title>Node7&#45;&gt;Node9</title>
<path fill="none" stroke="midnightblue" d="M735.641,-48.1906C735.486,-39.1684 735.31,-28.9941 735.182,-21.5707"/>
<polygon fill="midnightblue" stroke="midnightblue" points="732.145,-48.4238 735.817,-58.3619 739.144,-48.303 732.145,-48.4238"/>
</g>
<!-- Node11 -->
<g id="node21" class="node"><title>Node11</title>
<a xlink:href="StatusBar_8cpp.htm" target="_top" xlink:title="StatusBar.cpp">
<polygon fill="white" stroke="black" points="837,-0.5 837,-21.5 919,-21.5 919,-0.5 837,-0.5"/>
<text text-anchor="middle" x="878" y="-8.5" font-family="Helvetica,sans-Serif" font-size="10.00">StatusBar.cpp</text>
</a>
</g>
<!-- Node10&#45;&gt;Node11 -->
<g id="edge20" class="edge"><title>Node10&#45;&gt;Node11</title>
<path fill="none" stroke="midnightblue" d="M877.359,-48.1906C877.514,-39.1684 877.69,-28.9941 877.818,-21.5707"/>
<polygon fill="midnightblue" stroke="midnightblue" points="873.856,-48.303 877.183,-58.3619 880.855,-48.4238 873.856,-48.303"/>
</g>
<!-- Node12 -->
<g id="node23" class="node"><title>Node12</title>
<a xlink:href="StatusBarNotificationArea_8cpp.htm" target="_top" xlink:title="StatusBarNotificationArea.cpp">
<polygon fill="white" stroke="black" points="936.5,-0.5 936.5,-21.5 1093.5,-21.5 1093.5,-0.5 936.5,-0.5"/>
<text text-anchor="middle" x="1015" y="-8.5" font-family="Helvetica,sans-Serif" font-size="10.00">StatusBarNotificationArea.cpp</text>
</a>
</g>
<!-- Node10&#45;&gt;Node12 -->
<g id="edge22" class="edge"><title>Node10&#45;&gt;Node12</title>
<path fill="none" stroke="midnightblue" d="M911.226,-54.6153C935.557,-44.3889 967.7,-30.8796 989.729,-21.6212"/>
<polygon fill="midnightblue" stroke="midnightblue" points="909.854,-51.3954 901.991,-58.4966 912.566,-57.8486 909.854,-51.3954"/>
</g>
</g>
</svg>
