<?xml version="1.0" encoding="UTF-8" standalone="no"?>
<!DOCTYPE svg PUBLIC "-//W3C//DTD SVG 1.1//EN"
 "http://www.w3.org/Graphics/SVG/1.1/DTD/svg11.dtd">
<!-- Generated by graphviz version 2.26.3 (20100126.1600)
 -->
<!-- Title: G Pages: 1 -->
<svg width="588pt" height="88pt"
 viewBox="0.00 0.00 588.00 88.00" xmlns="http://www.w3.org/2000/svg" xmlns:xlink="http://www.w3.org/1999/xlink">
<g id="graph1" class="graph" transform="scale(1 1) rotate(0) translate(4 84)">
<title>G</title>
<polygon fill="white" stroke="white" points="-4,5 -4,-84 585,-84 585,5 -4,5"/>
<!-- Node1 -->
<g id="node1" class="node"><title>Node1</title>
<polygon fill="#bfbfbf" stroke="black" points="196.5,-58.5 196.5,-79.5 361.5,-79.5 361.5,-58.5 196.5,-58.5"/>
<text text-anchor="middle" x="279" y="-66.5" font-family="Helvetica,sans-Serif" font-size="10.00">BannerMessageEventFactory.h</text>
</g>
<!-- Node2 -->
<g id="node3" class="node"><title>Node2</title>
<a xlink:href="KeyLocationRecorder_8cpp.htm" target="_top" xlink:title="KeyLocationRecorder.cpp">
<polygon fill="white" stroke="black" points="-0.5,-0.5 -0.5,-21.5 138.5,-21.5 138.5,-0.5 -0.5,-0.5"/>
<text text-anchor="middle" x="69" y="-8.5" font-family="Helvetica,sans-Serif" font-size="10.00">KeyLocationRecorder.cpp</text>
</a>
</g>
<!-- Node1&#45;&gt;Node2 -->
<g id="edge2" class="edge"><title>Node1&#45;&gt;Node2</title>
<path fill="none" stroke="midnightblue" d="M231.251,-55.8123C193.655,-45.4285 141.952,-31.1487 107.101,-21.5231"/>
<polygon fill="midnightblue" stroke="midnightblue" points="230.4,-59.208 240.971,-58.4966 232.263,-52.4606 230.4,-59.208"/>
</g>
<!-- Node3 -->
<g id="node5" class="node"><title>Node3</title>
<a xlink:href="JsSysObject_8cpp.htm" target="_top" xlink:title="JsSysObject.cpp">
<polygon fill="white" stroke="black" points="156,-0.5 156,-21.5 250,-21.5 250,-0.5 156,-0.5"/>
<text text-anchor="middle" x="203" y="-8.5" font-family="Helvetica,sans-Serif" font-size="10.00">JsSysObject.cpp</text>
</a>
</g>
<!-- Node1&#45;&gt;Node3 -->
<g id="edge4" class="edge"><title>Node1&#45;&gt;Node3</title>
<path fill="none" stroke="midnightblue" d="M257.063,-52.2587C244.098,-42.3641 228.075,-30.1361 216.851,-21.5707"/>
<polygon fill="midnightblue" stroke="midnightblue" points="254.988,-55.0775 265.06,-58.3619 259.234,-49.5128 254.988,-55.0775"/>
</g>
<!-- Node4 -->
<g id="node7" class="node"><title>Node4</title>
<a xlink:href="BannerMessageEventFactory_8cpp.htm" target="_top" xlink:title="BannerMessageEventFactory.cpp">
<polygon fill="white" stroke="black" points="268,-0.5 268,-21.5 444,-21.5 444,-0.5 268,-0.5"/>
<text text-anchor="middle" x="356" y="-8.5" font-family="Helvetica,sans-Serif" font-size="10.00">BannerMessageEventFactory.cpp</text>
</a>
</g>
<!-- Node1&#45;&gt;Node4 -->
<g id="edge6" class="edge"><title>Node1&#45;&gt;Node4</title>
<path fill="none" stroke="midnightblue" d="M301.226,-52.2587C314.361,-42.3641 330.595,-30.1361 341.967,-21.5707"/>
<polygon fill="midnightblue" stroke="midnightblue" points="299.005,-49.5496 293.123,-58.3619 303.216,-55.1409 299.005,-49.5496"/>
</g>
<!-- Node5 -->
<g id="node9" class="node"><title>Node5</title>
<a xlink:href="WebAppManager_8cpp.htm" target="_top" xlink:title="WebAppManager.cpp">
<polygon fill="white" stroke="black" points="461.5,-0.5 461.5,-21.5 580.5,-21.5 580.5,-0.5 461.5,-0.5"/>
<text text-anchor="middle" x="521" y="-8.5" font-family="Helvetica,sans-Serif" font-size="10.00">WebAppManager.cpp</text>
</a>
</g>
<!-- Node1&#45;&gt;Node5 -->
<g id="edge8" class="edge"><title>Node1&#45;&gt;Node5</title>
<path fill="none" stroke="midnightblue" d="M332.647,-56.1424C376.08,-45.7328 436.504,-31.2511 477.093,-21.5231"/>
<polygon fill="midnightblue" stroke="midnightblue" points="331.733,-52.7623 322.824,-58.4966 333.365,-59.5695 331.733,-52.7623"/>
</g>
</g>
</svg>
