<?xml version="1.0" encoding="UTF-8" standalone="no"?>
<!DOCTYPE svg PUBLIC "-//W3C//DTD SVG 1.1//EN"
 "http://www.w3.org/Graphics/SVG/1.1/DTD/svg11.dtd">
<!-- Generated by graphviz version 2.26.3 (20100126.1600)
 -->
<!-- Title: G Pages: 1 -->
<svg width="3326pt" height="262pt"
 viewBox="0.00 0.00 3326.34 262.00" xmlns="http://www.w3.org/2000/svg" xmlns:xlink="http://www.w3.org/1999/xlink">
<g id="graph1" class="graph" transform="scale(1 1) rotate(0) translate(4 258)">
<title>G</title>
<polygon fill="white" stroke="white" points="-4,5 -4,-258 3323.34,-258 3323.34,5 -4,5"/>
<!-- Node1 -->
<g id="node1" class="node"><title>Node1</title>
<polygon fill="#bfbfbf" stroke="black" points="1423.34,-232.5 1423.34,-253.5 1575.34,-253.5 1575.34,-232.5 1423.34,-232.5"/>
<text text-anchor="middle" x="1499.34" y="-240.5" font-family="Helvetica,sans-Serif" font-size="10.00">BannerMessageHandler.cpp</text>
</g>
<!-- Node2 -->
<g id="node3" class="node"><title>Node2</title>
<a xlink:href="Common_8h.htm" target="_top" xlink:title="Common.h">
<polygon fill="white" stroke="black" points="726.845,-0.5 726.845,-21.5 793.845,-21.5 793.845,-0.5 726.845,-0.5"/>
<text text-anchor="middle" x="760.345" y="-8.5" font-family="Helvetica,sans-Serif" font-size="10.00">Common.h</text>
</a>
</g>
<!-- Node1&#45;&gt;Node2 -->
<g id="edge2" class="edge"><title>Node1&#45;&gt;Node2</title>
<path fill="none" stroke="midnightblue" d="M1423.03,-241.719C1183.8,-237.436 461.887,-222.38 419.345,-196 364.279,-161.854 329.372,-106.492 372.345,-58 394.896,-32.552 620.007,-18.1405 716.646,-13.0842"/>
<polygon fill="midnightblue" stroke="midnightblue" points="716.875,-16.5771 726.682,-12.5686 716.516,-9.58634 716.875,-16.5771"/>
</g>
<!-- Node3 -->
<g id="node5" class="node"><title>Node3</title>
<polygon fill="white" stroke="#bfbfbf" points="1908.34,-174.5 1908.34,-195.5 1980.34,-195.5 1980.34,-174.5 1908.34,-174.5"/>
<text text-anchor="middle" x="1944.34" y="-182.5" font-family="Helvetica,sans-Serif" font-size="10.00">cjson/json.h</text>
</g>
<!-- Node1&#45;&gt;Node3 -->
<g id="edge4" class="edge"><title>Node1&#45;&gt;Node3</title>
<path fill="none" stroke="midnightblue" d="M1575.39,-236.187C1655.16,-228.518 1784.03,-214.651 1894.34,-196 1895.6,-195.787 1896.87,-195.564 1898.16,-195.332"/>
<polygon fill="midnightblue" stroke="midnightblue" points="1898.95,-198.744 1908.11,-193.41 1897.62,-191.871 1898.95,-198.744"/>
</g>
<!-- Node4 -->
<g id="node7" class="node"><title>Node4</title>
<polygon fill="white" stroke="#bfbfbf" points="1948.84,-0.5 1948.84,-21.5 1977.84,-21.5 1977.84,-0.5 1948.84,-0.5"/>
<text text-anchor="middle" x="1963.34" y="-8.5" font-family="Helvetica,sans-Serif" font-size="10.00">list</text>
</g>
<!-- Node1&#45;&gt;Node4 -->
<g id="edge6" class="edge"><title>Node1&#45;&gt;Node4</title>
<path fill="none" stroke="midnightblue" d="M1575.6,-236.652C1665.75,-228.527 1810.03,-213.402 1861.34,-196 1879.83,-189.733 1880.77,-179.97 1899.34,-174 1977.99,-148.729 2209.29,-194.728 2269.34,-138 2295.36,-113.43 2301.7,-85.1028 2278.34,-58 2259.37,-35.9847 2059.09,-18.4288 1988.11,-12.8572"/>
<polygon fill="midnightblue" stroke="midnightblue" points="1988.12,-9.34736 1977.88,-12.0671 1987.58,-16.3266 1988.12,-9.34736"/>
</g>
<!-- Node5 -->
<g id="node9" class="node"><title>Node5</title>
<polygon fill="white" stroke="#bfbfbf" points="308.845,-0.5 308.845,-21.5 349.845,-21.5 349.845,-0.5 308.845,-0.5"/>
<text text-anchor="middle" x="329.345" y="-8.5" font-family="Helvetica,sans-Serif" font-size="10.00">glib.h</text>
</g>
<!-- Node1&#45;&gt;Node5 -->
<g id="edge8" class="edge"><title>Node1&#45;&gt;Node5</title>
<path fill="none" stroke="midnightblue" d="M1422.96,-242.75C1158.81,-241.545 293.68,-234.66 175.345,-196 88.0487,-167.48 47.3522,-161.144 4.34477,-80 -0.234202,-71.3607 -2.05528,-65.3922 4.34477,-58 23.5013,-35.8739 221.028,-19.0039 298.453,-13.1937"/>
<polygon fill="midnightblue" stroke="midnightblue" points="298.835,-16.6751 308.55,-12.4478 298.319,-9.6941 298.835,-16.6751"/>
</g>
<!-- Node6 -->
<g id="node11" class="node"><title>Node6</title>
<polygon fill="white" stroke="#bfbfbf" points="1997.84,-174.5 1997.84,-195.5 2066.84,-195.5 2066.84,-174.5 1997.84,-174.5"/>
<text text-anchor="middle" x="2032.34" y="-182.5" font-family="Helvetica,sans-Serif" font-size="10.00">sys/types.h</text>
</g>
<!-- Node1&#45;&gt;Node6 -->
<g id="edge10" class="edge"><title>Node1&#45;&gt;Node6</title>
<path fill="none" stroke="midnightblue" d="M1575.38,-239.362C1670.05,-234.015 1836.77,-221.916 1987.79,-196.073"/>
<polygon fill="midnightblue" stroke="midnightblue" points="1988.46,-199.509 1997.71,-194.35 1987.26,-192.612 1988.46,-199.509"/>
</g>
<!-- Node7 -->
<g id="node13" class="node"><title>Node7</title>
<polygon fill="white" stroke="#bfbfbf" points="2083.84,-174.5 2083.84,-195.5 2144.84,-195.5 2144.84,-174.5 2083.84,-174.5"/>
<text text-anchor="middle" x="2114.34" y="-182.5" font-family="Helvetica,sans-Serif" font-size="10.00">sys/stat.h</text>
</g>
<!-- Node1&#45;&gt;Node7 -->
<g id="edge12" class="edge"><title>Node1&#45;&gt;Node7</title>
<path fill="none" stroke="midnightblue" d="M1575.43,-241.468C1684.23,-238.242 1890.48,-228.286 2073.73,-196.017"/>
<polygon fill="midnightblue" stroke="midnightblue" points="2074.59,-199.418 2083.82,-194.213 2073.36,-192.528 2074.59,-199.418"/>
</g>
<!-- Node8 -->
<g id="node15" class="node"><title>Node8</title>
<polygon fill="white" stroke="#bfbfbf" points="2161.84,-174.5 2161.84,-195.5 2214.84,-195.5 2214.84,-174.5 2161.84,-174.5"/>
<text text-anchor="middle" x="2188.34" y="-182.5" font-family="Helvetica,sans-Serif" font-size="10.00">unistd.h</text>
</g>
<!-- Node1&#45;&gt;Node8 -->
<g id="edge14" class="edge"><title>Node1&#45;&gt;Node8</title>
<path fill="none" stroke="midnightblue" d="M1575.61,-239.75C1719.53,-233.26 2027.17,-217.592 2151.69,-195.902"/>
<polygon fill="midnightblue" stroke="midnightblue" points="2152.55,-199.304 2161.76,-194.059 2151.29,-192.418 2152.55,-199.304"/>
</g>
<!-- Node9 -->
<g id="node17" class="node"><title>Node9</title>
<polygon fill="white" stroke="#bfbfbf" points="2231.84,-174.5 2231.84,-195.5 2286.84,-195.5 2286.84,-174.5 2231.84,-174.5"/>
<text text-anchor="middle" x="2259.34" y="-182.5" font-family="Helvetica,sans-Serif" font-size="10.00">QDebug</text>
</g>
<!-- Node1&#45;&gt;Node9 -->
<g id="edge16" class="edge"><title>Node1&#45;&gt;Node9</title>
<path fill="none" stroke="midnightblue" d="M1575.41,-240.295C1731.22,-234.397 2083.02,-219.163 2221.6,-195.934"/>
<polygon fill="midnightblue" stroke="midnightblue" points="2222.35,-199.355 2231.59,-194.175 2221.14,-192.461 2222.35,-199.355"/>
</g>
<!-- Node10 -->
<g id="node19" class="node"><title>Node10</title>
<polygon fill="white" stroke="#bfbfbf" points="2304.34,-174.5 2304.34,-195.5 2460.34,-195.5 2460.34,-174.5 2304.34,-174.5"/>
<text text-anchor="middle" x="2382.34" y="-182.5" font-family="Helvetica,sans-Serif" font-size="10.00">QExplicitlySharedDataPointer</text>
</g>
<!-- Node1&#45;&gt;Node10 -->
<g id="edge18" class="edge"><title>Node1&#45;&gt;Node10</title>
<path fill="none" stroke="midnightblue" d="M1575.48,-240.199C1715.59,-234.672 2023.9,-220.782 2294.12,-196.063"/>
<polygon fill="midnightblue" stroke="midnightblue" points="2294.48,-199.544 2304.12,-195.141 2293.84,-192.574 2294.48,-199.544"/>
</g>
<!-- Node11 -->
<g id="node21" class="node"><title>Node11</title>
<polygon fill="white" stroke="#bfbfbf" points="2478.34,-174.5 2478.34,-195.5 2550.34,-195.5 2550.34,-174.5 2478.34,-174.5"/>
<text text-anchor="middle" x="2514.34" y="-182.5" font-family="Helvetica,sans-Serif" font-size="10.00">QFinalState</text>
</g>
<!-- Node1&#45;&gt;Node11 -->
<g id="edge20" class="edge"><title>Node1&#45;&gt;Node11</title>
<path fill="none" stroke="midnightblue" d="M1575.51,-241.193C1769.28,-236.3 2278.43,-221.512 2467.98,-195.912"/>
<polygon fill="midnightblue" stroke="midnightblue" points="2468.7,-199.345 2478.11,-194.488 2467.72,-192.413 2468.7,-199.345"/>
</g>
<!-- Node12 -->
<g id="node23" class="node"><title>Node12</title>
<polygon fill="white" stroke="#bfbfbf" points="2568.34,-174.5 2568.34,-195.5 2614.34,-195.5 2614.34,-174.5 2568.34,-174.5"/>
<text text-anchor="middle" x="2591.34" y="-182.5" font-family="Helvetica,sans-Serif" font-size="10.00">QFont</text>
</g>
<!-- Node1&#45;&gt;Node12 -->
<g id="edge22" class="edge"><title>Node1&#45;&gt;Node12</title>
<path fill="none" stroke="midnightblue" d="M1575.42,-242.451C1782.11,-240.517 2351.81,-232.133 2558.29,-195.655"/>
<polygon fill="midnightblue" stroke="midnightblue" points="2558.94,-199.095 2568.14,-193.84 2557.67,-192.211 2558.94,-199.095"/>
</g>
<!-- Node13 -->
<g id="node25" class="node"><title>Node13</title>
<polygon fill="white" stroke="#bfbfbf" points="1990.84,-58.5 1990.84,-79.5 2045.84,-79.5 2045.84,-58.5 1990.84,-58.5"/>
<text text-anchor="middle" x="2018.34" y="-66.5" font-family="Helvetica,sans-Serif" font-size="10.00">QObject</text>
</g>
<!-- Node1&#45;&gt;Node13 -->
<g id="edge24" class="edge"><title>Node1&#45;&gt;Node13</title>
<path fill="none" stroke="midnightblue" d="M1505.38,-232.448C1515,-216.743 1535.39,-187.61 1561.34,-174 1673.25,-115.332 1723.64,-178.451 1843.34,-138 1861.83,-131.752 1863.59,-124.093 1881.34,-116 1914.05,-101.093 1952.95,-88.1795 1980.92,-79.6811"/>
<polygon fill="midnightblue" stroke="midnightblue" points="1982.13,-82.9742 1990.7,-76.7543 1980.12,-76.268 1982.13,-82.9742"/>
</g>
<!-- Node14 -->
<g id="node27" class="node"><title>Node14</title>
<polygon fill="white" stroke="#bfbfbf" points="2631.84,-174.5 2631.84,-195.5 2690.84,-195.5 2690.84,-174.5 2631.84,-174.5"/>
<text text-anchor="middle" x="2661.34" y="-182.5" font-family="Helvetica,sans-Serif" font-size="10.00">QPainter</text>
</g>
<!-- Node1&#45;&gt;Node14 -->
<g id="edge26" class="edge"><title>Node1&#45;&gt;Node14</title>
<path fill="none" stroke="midnightblue" d="M1575.57,-242.192C1790.84,-239.54 2401.46,-229.358 2621.45,-195.942"/>
<polygon fill="midnightblue" stroke="midnightblue" points="2622.3,-199.352 2631.63,-194.333 2621.2,-192.438 2622.3,-199.352"/>
</g>
<!-- Node15 -->
<g id="node29" class="node"><title>Node15</title>
<polygon fill="white" stroke="#bfbfbf" points="2708.34,-174.5 2708.34,-195.5 2820.34,-195.5 2820.34,-174.5 2708.34,-174.5"/>
<text text-anchor="middle" x="2764.34" y="-182.5" font-family="Helvetica,sans-Serif" font-size="10.00">QPropertyAnimation</text>
</g>
<!-- Node1&#45;&gt;Node15 -->
<g id="edge28" class="edge"><title>Node1&#45;&gt;Node15</title>
<path fill="none" stroke="midnightblue" d="M1575.64,-241.296C1800.8,-236.067 2460.99,-219.242 2698.08,-195.99"/>
<polygon fill="midnightblue" stroke="midnightblue" points="2698.44,-199.472 2708.04,-194.984 2697.73,-192.508 2698.44,-199.472"/>
</g>
<!-- Node16 -->
<g id="node31" class="node"><title>Node16</title>
<polygon fill="white" stroke="#bfbfbf" points="2838.34,-174.5 2838.34,-195.5 2920.34,-195.5 2920.34,-174.5 2838.34,-174.5"/>
<text text-anchor="middle" x="2879.34" y="-182.5" font-family="Helvetica,sans-Serif" font-size="10.00">QSharedData</text>
</g>
<!-- Node1&#45;&gt;Node16 -->
<g id="edge30" class="edge"><title>Node1&#45;&gt;Node16</title>
<path fill="none" stroke="midnightblue" d="M1575.62,-242.122C1817.14,-239.059 2564.18,-227.348 2827.94,-195.93"/>
<polygon fill="midnightblue" stroke="midnightblue" points="2828.75,-199.356 2838.25,-194.66 2827.89,-192.409 2828.75,-199.356"/>
</g>
<!-- Node17 -->
<g id="node33" class="node"><title>Node17</title>
<polygon fill="white" stroke="#bfbfbf" points="2937.84,-174.5 2937.84,-195.5 3038.84,-195.5 3038.84,-174.5 2937.84,-174.5"/>
<text text-anchor="middle" x="2988.34" y="-182.5" font-family="Helvetica,sans-Serif" font-size="10.00">QSignalTransition</text>
</g>
<!-- Node1&#45;&gt;Node17 -->
<g id="edge32" class="edge"><title>Node1&#45;&gt;Node17</title>
<path fill="none" stroke="midnightblue" d="M1575.41,-242.021C1828.7,-238.526 2643.06,-225.334 2927.28,-196.064"/>
<polygon fill="midnightblue" stroke="midnightblue" points="2927.99,-199.508 2937.57,-194.972 2927.25,-192.547 2927.99,-199.508"/>
</g>
<!-- Node18 -->
<g id="node35" class="node"><title>Node18</title>
<polygon fill="white" stroke="#bfbfbf" points="3056.34,-174.5 3056.34,-195.5 3146.34,-195.5 3146.34,-174.5 3056.34,-174.5"/>
<text text-anchor="middle" x="3101.34" y="-182.5" font-family="Helvetica,sans-Serif" font-size="10.00">QStateMachine</text>
</g>
<!-- Node1&#45;&gt;Node18 -->
<g id="edge34" class="edge"><title>Node1&#45;&gt;Node18</title>
<path fill="none" stroke="midnightblue" d="M1575.54,-242.408C1842.7,-240.066 2737,-229.915 3045.77,-195.974"/>
<polygon fill="midnightblue" stroke="midnightblue" points="3046.52,-199.411 3056.06,-194.808 3045.73,-192.456 3046.52,-199.411"/>
</g>
<!-- Node19 -->
<g id="node37" class="node"><title>Node19</title>
<polygon fill="white" stroke="#bfbfbf" points="1154.84,-116.5 1154.84,-137.5 1207.84,-137.5 1207.84,-116.5 1154.84,-116.5"/>
<text text-anchor="middle" x="1181.34" y="-124.5" font-family="Helvetica,sans-Serif" font-size="10.00">QString</text>
</g>
<!-- Node1&#45;&gt;Node19 -->
<g id="edge36" class="edge"><title>Node1&#45;&gt;Node19</title>
<path fill="none" stroke="midnightblue" d="M1423.32,-234.262C1380.1,-227.455 1325.73,-215.727 1280.34,-196 1250.22,-182.905 1219.86,-159.966 1200.85,-144.154"/>
<polygon fill="midnightblue" stroke="midnightblue" points="1203.09,-141.46 1193.2,-137.658 1198.56,-146.797 1203.09,-141.46"/>
</g>
<!-- Node20 -->
<g id="node39" class="node"><title>Node20</title>
<polygon fill="white" stroke="#bfbfbf" points="2145.34,-116.5 2145.34,-137.5 2197.34,-137.5 2197.34,-116.5 2145.34,-116.5"/>
<text text-anchor="middle" x="2171.34" y="-124.5" font-family="Helvetica,sans-Serif" font-size="10.00">QTimer</text>
</g>
<!-- Node1&#45;&gt;Node20 -->
<g id="edge38" class="edge"><title>Node1&#45;&gt;Node20</title>
<path fill="none" stroke="midnightblue" d="M1567.52,-232.499C1609.04,-224.927 1662.69,-213.019 1708.34,-196 1727.72,-188.776 1729.55,-179.977 1749.34,-174 1912.6,-124.71 1963.61,-168.725 2131.34,-138 2132.62,-137.766 2133.91,-137.511 2135.22,-137.239"/>
<polygon fill="midnightblue" stroke="midnightblue" points="2136.31,-140.577 2145.25,-134.88 2134.71,-133.763 2136.31,-140.577"/>
</g>
<!-- Node21 -->
<g id="node41" class="node"><title>Node21</title>
<polygon fill="white" stroke="#bfbfbf" points="531.345,-116.5 531.345,-137.5 661.345,-137.5 661.345,-116.5 531.345,-116.5"/>
<text text-anchor="middle" x="596.345" y="-124.5" font-family="Helvetica,sans-Serif" font-size="10.00">BannerMessageEvent.h</text>
</g>
<!-- Node1&#45;&gt;Node21 -->
<g id="edge40" class="edge"><title>Node1&#45;&gt;Node21</title>
<path fill="none" stroke="midnightblue" d="M1423.06,-241.466C1232.02,-237.227 743.419,-223.78 675.345,-196 649.07,-185.278 625.51,-162.041 611.096,-145.499"/>
<polygon fill="midnightblue" stroke="midnightblue" points="613.539,-142.965 604.426,-137.561 608.179,-147.468 613.539,-142.965"/>
</g>
<!-- Node22 -->
<g id="node43" class="node"><title>Node22</title>
<a xlink:href="sptr_8h.htm" target="_top" xlink:title="sptr.h">
<polygon fill="white" stroke="black" points="518.845,-58.5 518.845,-79.5 561.845,-79.5 561.845,-58.5 518.845,-58.5"/>
<text text-anchor="middle" x="540.345" y="-66.5" font-family="Helvetica,sans-Serif" font-size="10.00">sptr.h</text>
</a>
</g>
<!-- Node1&#45;&gt;Node22 -->
<g id="edge42" class="edge"><title>Node1&#45;&gt;Node22</title>
<path fill="none" stroke="midnightblue" d="M1422.97,-241.613C1310.07,-238.504 1092.38,-228.45 910.345,-196 816.284,-179.233 790.166,-177.881 703.345,-138 687.327,-130.642 686.081,-123.943 670.345,-116 638.049,-99.698 598.712,-86.2982 571.825,-78.0351"/>
<polygon fill="midnightblue" stroke="midnightblue" points="572.754,-74.6599 562.17,-75.1243 570.734,-81.3619 572.754,-74.6599"/>
</g>
<!-- Node23 -->
<g id="node47" class="node"><title>Node23</title>
<a xlink:href="AnimationEquations_8h.htm" target="_top" xlink:title="AnimationEquations.h">
<polygon fill="white" stroke="black" points="13.3448,-58.5 13.3448,-79.5 131.345,-79.5 131.345,-58.5 13.3448,-58.5"/>
<text text-anchor="middle" x="72.3448" y="-66.5" font-family="Helvetica,sans-Serif" font-size="10.00">AnimationEquations.h</text>
</a>
</g>
<!-- Node1&#45;&gt;Node23 -->
<g id="edge48" class="edge"><title>Node1&#45;&gt;Node23</title>
<path fill="none" stroke="midnightblue" d="M1423.25,-241.589C1156.43,-236.462 276.473,-217.961 220.345,-196 162.089,-173.206 110.831,-117.162 86.8149,-87.7348"/>
<polygon fill="midnightblue" stroke="midnightblue" points="89.4957,-85.483 80.5185,-79.8562 84.0274,-89.8532 89.4957,-85.483"/>
</g>
<!-- Node25 -->
<g id="node52" class="node"><title>Node25</title>
<a xlink:href="AnimationSettings_8h.htm" target="_top" xlink:title="AnimationSettings.h">
<polygon fill="white" stroke="black" points="201.345,-116.5 201.345,-137.5 311.345,-137.5 311.345,-116.5 201.345,-116.5"/>
<text text-anchor="middle" x="256.345" y="-124.5" font-family="Helvetica,sans-Serif" font-size="10.00">AnimationSettings.h</text>
</a>
</g>
<!-- Node1&#45;&gt;Node25 -->
<g id="edge54" class="edge"><title>Node1&#45;&gt;Node25</title>
<path fill="none" stroke="midnightblue" d="M1422.96,-241.471C1170.42,-236.215 375.592,-218.001 325.345,-196 301.383,-185.508 281.225,-162.571 268.999,-146.018"/>
<polygon fill="midnightblue" stroke="midnightblue" points="271.679,-143.746 263.049,-137.599 265.962,-147.785 271.679,-143.746"/>
</g>
<!-- Node28 -->
<g id="node61" class="node"><title>Node28</title>
<a xlink:href="ApplicationDescription_8h.htm" target="_top" xlink:title="ApplicationDescription.h">
<polygon fill="white" stroke="black" points="1377.34,-116.5 1377.34,-137.5 1507.34,-137.5 1507.34,-116.5 1377.34,-116.5"/>
<text text-anchor="middle" x="1442.34" y="-124.5" font-family="Helvetica,sans-Serif" font-size="10.00">ApplicationDescription.h</text>
</a>
</g>
<!-- Node1&#45;&gt;Node28 -->
<g id="edge66" class="edge"><title>Node1&#45;&gt;Node28</title>
<path fill="none" stroke="midnightblue" d="M1446.76,-232.459C1410.64,-224.027 1367.3,-211.135 1356.34,-196 1339.78,-173.124 1370.87,-153.699 1400.19,-141.344"/>
<polygon fill="midnightblue" stroke="midnightblue" points="1401.6,-144.55 1409.59,-137.586 1399,-138.051 1401.6,-144.55"/>
</g>
<!-- Node35 -->
<g id="node91" class="node"><title>Node35</title>
<a xlink:href="ApplicationManager_8h.htm" target="_top" xlink:title="ApplicationManager.h">
<polygon fill="white" stroke="red" points="1932.84,-116.5 1932.84,-137.5 2051.84,-137.5 2051.84,-116.5 1932.84,-116.5"/>
<text text-anchor="middle" x="1992.34" y="-124.5" font-family="Helvetica,sans-Serif" font-size="10.00">ApplicationManager.h</text>
</a>
</g>
<!-- Node1&#45;&gt;Node35 -->
<g id="edge112" class="edge"><title>Node1&#45;&gt;Node35</title>
<path fill="none" stroke="midnightblue" d="M1549.35,-232.424C1584.61,-224.262 1632.62,-211.718 1673.34,-196 1693.37,-188.27 1695.97,-180.769 1716.34,-174 1735.63,-167.592 1847.51,-149.498 1922.77,-137.721"/>
<polygon fill="midnightblue" stroke="midnightblue" points="1923.34,-141.175 1932.68,-136.175 1922.26,-134.259 1923.34,-141.175"/>
</g>
<!-- Node36 -->
<g id="node99" class="node"><title>Node36</title>
<a xlink:href="DisplayManager_8h.htm" target="_top" xlink:title="DisplayManager.h">
<polygon fill="white" stroke="red" points="911.345,-116.5 911.345,-137.5 1013.34,-137.5 1013.34,-116.5 911.345,-116.5"/>
<text text-anchor="middle" x="962.345" y="-124.5" font-family="Helvetica,sans-Serif" font-size="10.00">DisplayManager.h</text>
</a>
</g>
<!-- Node1&#45;&gt;Node36 -->
<g id="edge126" class="edge"><title>Node1&#45;&gt;Node36</title>
<path fill="none" stroke="midnightblue" d="M1423.16,-241.629C1283.68,-238.351 998.647,-227.8 967.345,-196 955.141,-183.602 955.146,-163.145 957.452,-147.717"/>
<polygon fill="midnightblue" stroke="midnightblue" points="960.954,-148.039 959.395,-137.559 954.078,-146.723 960.954,-148.039"/>
</g>
<!-- Node37 -->
<g id="node104" class="node"><title>Node37</title>
<a xlink:href="HostBase_8h.htm" target="_top" xlink:title="HostBase.h">
<polygon fill="white" stroke="red" points="404.845,-116.5 404.845,-137.5 475.845,-137.5 475.845,-116.5 404.845,-116.5"/>
<text text-anchor="middle" x="440.345" y="-124.5" font-family="Helvetica,sans-Serif" font-size="10.00">HostBase.h</text>
</a>
</g>
<!-- Node1&#45;&gt;Node37 -->
<g id="edge134" class="edge"><title>Node1&#45;&gt;Node37</title>
<path fill="none" stroke="midnightblue" d="M1423.27,-242.704C1204.95,-241.396 586.775,-234.313 504.345,-196 481.679,-185.465 463.248,-162.882 452.085,-146.412"/>
<polygon fill="midnightblue" stroke="midnightblue" points="454.736,-144.065 446.375,-137.558 448.853,-147.859 454.736,-144.065"/>
</g>
<!-- Node38 -->
<g id="node107" class="node"><title>Node38</title>
<a xlink:href="Logging_8h.htm" target="_top" xlink:title="Logging.h">
<polygon fill="white" stroke="red" points="224.845,-58.5 224.845,-79.5 287.845,-79.5 287.845,-58.5 224.845,-58.5"/>
<text text-anchor="middle" x="256.345" y="-66.5" font-family="Helvetica,sans-Serif" font-size="10.00">Logging.h</text>
</a>
</g>
<!-- Node1&#45;&gt;Node38 -->
<g id="edge138" class="edge"><title>Node1&#45;&gt;Node38</title>
<path fill="none" stroke="midnightblue" d="M1423.28,-242.211C1175.07,-239.335 398.454,-227.864 290.345,-196 241.798,-181.691 217.414,-181.967 192.345,-138 180.466,-117.167 203.247,-97.5407 224.849,-84.586"/>
<polygon fill="midnightblue" stroke="midnightblue" points="226.637,-87.596 233.617,-79.6256 223.19,-81.5035 226.637,-87.596"/>
</g>
<!-- Node39 -->
<g id="node111" class="node"><title>Node39</title>
<a xlink:href="Preferences_8h.htm" target="_top" xlink:title="Preferences.h">
<polygon fill="white" stroke="red" points="1680.84,-116.5 1680.84,-137.5 1763.84,-137.5 1763.84,-116.5 1680.84,-116.5"/>
<text text-anchor="middle" x="1722.34" y="-124.5" font-family="Helvetica,sans-Serif" font-size="10.00">Preferences.h</text>
</a>
</g>
<!-- Node1&#45;&gt;Node39 -->
<g id="edge144" class="edge"><title>Node1&#45;&gt;Node39</title>
<path fill="none" stroke="midnightblue" d="M1454.12,-232.491C1414.15,-221.147 1365.61,-201.009 1389.34,-174 1430.47,-127.209 1605.88,-148.114 1667.34,-138 1668.43,-137.822 1669.52,-137.639 1670.62,-137.45"/>
<polygon fill="midnightblue" stroke="midnightblue" points="1671.43,-140.86 1680.66,-135.65 1670.2,-133.97 1671.43,-140.86"/>
</g>
<!-- Node40 -->
<g id="node116" class="node"><title>Node40</title>
<a xlink:href="Settings_8h.htm" target="_top" xlink:title="Settings.h">
<polygon fill="white" stroke="red" points="830.845,-116.5 830.845,-137.5 893.845,-137.5 893.845,-116.5 830.845,-116.5"/>
<text text-anchor="middle" x="862.345" y="-124.5" font-family="Helvetica,sans-Serif" font-size="10.00">Settings.h</text>
</a>
</g>
<!-- Node1&#45;&gt;Node40 -->
<g id="edge152" class="edge"><title>Node1&#45;&gt;Node40</title>
<path fill="none" stroke="midnightblue" d="M1423.3,-241.706C1293.77,-238.636 1036.21,-228.52 952.345,-196 923.633,-184.867 896.41,-161.582 879.574,-145.149"/>
<polygon fill="midnightblue" stroke="midnightblue" points="881.716,-142.339 872.183,-137.716 876.752,-147.275 881.716,-142.339"/>
</g>
<!-- Node41 -->
<g id="node122" class="node"><title>Node41</title>
<a xlink:href="SoundPlayerPool_8h.htm" target="_top" xlink:title="SoundPlayerPool.h">
<polygon fill="white" stroke="red" points="1031.34,-116.5 1031.34,-137.5 1137.34,-137.5 1137.34,-116.5 1031.34,-116.5"/>
<text text-anchor="middle" x="1084.34" y="-124.5" font-family="Helvetica,sans-Serif" font-size="10.00">SoundPlayerPool.h</text>
</a>
</g>
<!-- Node1&#45;&gt;Node41 -->
<g id="edge162" class="edge"><title>Node1&#45;&gt;Node41</title>
<path fill="none" stroke="midnightblue" d="M1423.11,-237.412C1338.6,-230.332 1208.28,-216.525 1163.34,-196 1137.67,-184.274 1114.13,-161.457 1099.55,-145.275"/>
<polygon fill="midnightblue" stroke="midnightblue" points="1101.99,-142.746 1092.77,-137.512 1096.71,-147.348 1101.99,-142.746"/>
</g>
<!-- Node42 -->
<g id="node128" class="node"><title>Node42</title>
<a xlink:href="SystemUiController_8h.htm" target="_top" xlink:title="SystemUiController.h">
<polygon fill="white" stroke="red" points="1398.34,-174.5 1398.34,-195.5 1514.34,-195.5 1514.34,-174.5 1398.34,-174.5"/>
<text text-anchor="middle" x="1456.34" y="-182.5" font-family="Helvetica,sans-Serif" font-size="10.00">SystemUiController.h</text>
</a>
</g>
<!-- Node1&#45;&gt;Node42 -->
<g id="edge172" class="edge"><title>Node1&#45;&gt;Node42</title>
<path fill="none" stroke="midnightblue" d="M1491.46,-232.362C1485.52,-224.35 1477.22,-213.161 1470.19,-203.67"/>
<polygon fill="midnightblue" stroke="midnightblue" points="1472.95,-201.519 1464.18,-195.571 1467.33,-205.688 1472.95,-201.519"/>
</g>
<!-- Node43 -->
<g id="node134" class="node"><title>Node43</title>
<a xlink:href="SystemService_8h.htm" target="_top" xlink:title="SystemService.h">
<polygon fill="white" stroke="red" points="1569.84,-174.5 1569.84,-195.5 1664.84,-195.5 1664.84,-174.5 1569.84,-174.5"/>
<text text-anchor="middle" x="1617.34" y="-182.5" font-family="Helvetica,sans-Serif" font-size="10.00">SystemService.h</text>
</a>
</g>
<!-- Node1&#45;&gt;Node43 -->
<g id="edge182" class="edge"><title>Node1&#45;&gt;Node43</title>
<path fill="none" stroke="midnightblue" d="M1520.71,-232.497C1539.14,-223.438 1565.98,-210.246 1586.7,-200.063"/>
<polygon fill="midnightblue" stroke="midnightblue" points="1588.31,-203.174 1595.74,-195.621 1585.22,-196.891 1588.31,-203.174"/>
</g>
<!-- Node44 -->
<g id="node140" class="node"><title>Node44</title>
<a xlink:href="Time_8h.htm" target="_top" xlink:title="Time.h">
<polygon fill="white" stroke="red" points="959.345,-58.5 959.345,-79.5 1007.34,-79.5 1007.34,-58.5 959.345,-58.5"/>
<text text-anchor="middle" x="983.345" y="-66.5" font-family="Helvetica,sans-Serif" font-size="10.00">Time.h</text>
</a>
</g>
<!-- Node1&#45;&gt;Node44 -->
<g id="edge192" class="edge"><title>Node1&#45;&gt;Node44</title>
<path fill="none" stroke="midnightblue" d="M1455.05,-232.421C1424.14,-224.297 1382.34,-211.798 1347.34,-196 1285.17,-167.93 1280.12,-140.234 1216.34,-116 1134.89,-85.0439 1105.9,-101.105 1017.3,-79.9223"/>
<polygon fill="midnightblue" stroke="midnightblue" points="1017.93,-76.4704 1007.38,-77.4543 1016.24,-83.2636 1017.93,-76.4704"/>
</g>
<!-- Node45 -->
<g id="node144" class="node"><title>Node45</title>
<a xlink:href="Utils_8h.htm" target="_top" xlink:title="Utils.h">
<polygon fill="white" stroke="red" points="380.845,-58.5 380.845,-79.5 425.845,-79.5 425.845,-58.5 380.845,-58.5"/>
<text text-anchor="middle" x="403.345" y="-66.5" font-family="Helvetica,sans-Serif" font-size="10.00">Utils.h</text>
</a>
</g>
<!-- Node1&#45;&gt;Node45 -->
<g id="edge198" class="edge"><title>Node1&#45;&gt;Node45</title>
<path fill="none" stroke="midnightblue" d="M1423.02,-242.161C1200.04,-239.338 559.757,-228.471 471.345,-196 431.79,-181.473 414.911,-175.827 396.345,-138 388.989,-123.013 391.655,-104.019 395.644,-89.7549"/>
<polygon fill="midnightblue" stroke="midnightblue" points="399.079,-90.5054 398.809,-79.914 392.416,-88.3623 399.079,-90.5054"/>
</g>
<!-- Node46 -->
<g id="node149" class="node"><title>Node46</title>
<a xlink:href="WebAppMgrProxy_8h.htm" target="_top" xlink:title="WebAppMgrProxy.h">
<polygon fill="white" stroke="red" points="513.345,-174.5 513.345,-195.5 623.345,-195.5 623.345,-174.5 513.345,-174.5"/>
<text text-anchor="middle" x="568.345" y="-182.5" font-family="Helvetica,sans-Serif" font-size="10.00">WebAppMgrProxy.h</text>
</a>
</g>
<!-- Node1&#45;&gt;Node46 -->
<g id="edge206" class="edge"><title>Node1&#45;&gt;Node46</title>
<path fill="none" stroke="midnightblue" d="M1423.32,-241.499C1272.86,-237.945 926.648,-226.864 637.345,-196 636.229,-195.881 635.104,-195.756 633.971,-195.626"/>
<polygon fill="midnightblue" stroke="midnightblue" points="633.997,-192.102 623.639,-194.332 633.126,-199.048 633.997,-192.102"/>
</g>
<!-- Node47 -->
<g id="node153" class="node"><title>Node47</title>
<a xlink:href="WindowServer_8h.htm" target="_top" xlink:title="WindowServer.h">
<polygon fill="white" stroke="red" points="1758.34,-174.5 1758.34,-195.5 1852.34,-195.5 1852.34,-174.5 1758.34,-174.5"/>
<text text-anchor="middle" x="1805.34" y="-182.5" font-family="Helvetica,sans-Serif" font-size="10.00">WindowServer.h</text>
</a>
</g>
<!-- Node1&#45;&gt;Node47 -->
<g id="edge212" class="edge"><title>Node1&#45;&gt;Node47</title>
<path fill="none" stroke="midnightblue" d="M1554.76,-232.497C1609.4,-222.14 1692.54,-206.382 1747.88,-195.892"/>
<polygon fill="midnightblue" stroke="midnightblue" points="1748.7,-199.299 1757.87,-193.998 1747.4,-192.421 1748.7,-199.299"/>
</g>
<!-- Node48 -->
<g id="node161" class="node"><title>Node48</title>
<a xlink:href="QtUtils_8h.htm" target="_top" xlink:title="QtUtils.h">
<polygon fill="white" stroke="red" points="1172.34,-174.5 1172.34,-195.5 1228.34,-195.5 1228.34,-174.5 1172.34,-174.5"/>
<text text-anchor="middle" x="1200.34" y="-182.5" font-family="Helvetica,sans-Serif" font-size="10.00">QtUtils.h</text>
</a>
</g>
<!-- Node1&#45;&gt;Node48 -->
<g id="edge226" class="edge"><title>Node1&#45;&gt;Node48</title>
<path fill="none" stroke="midnightblue" d="M1434.11,-232.466C1382,-223.715 1307.21,-210.405 1242.34,-196 1241.1,-195.724 1239.84,-195.437 1238.57,-195.141"/>
<polygon fill="midnightblue" stroke="midnightblue" points="1239.29,-191.713 1228.74,-192.746 1237.63,-198.514 1239.29,-191.713"/>
</g>
<!-- Node49 -->
<g id="node166" class="node"><title>Node49</title>
<a xlink:href="BannerMessageHandler_8h.htm" target="_top" xlink:title="BannerMessageHandler.h">
<polygon fill="white" stroke="black" points="976.345,-174.5 976.345,-195.5 1116.34,-195.5 1116.34,-174.5 976.345,-174.5"/>
<text text-anchor="middle" x="1046.34" y="-182.5" font-family="Helvetica,sans-Serif" font-size="10.00">BannerMessageHandler.h</text>
</a>
</g>
<!-- Node1&#45;&gt;Node49 -->
<g id="edge234" class="edge"><title>Node1&#45;&gt;Node49</title>
<path fill="none" stroke="midnightblue" d="M1423.01,-233.357C1348.38,-223.91 1231.54,-209.071 1130.34,-196 1129.07,-195.836 1127.79,-195.67 1126.5,-195.503"/>
<polygon fill="midnightblue" stroke="midnightblue" points="1126.84,-192.017 1116.47,-194.202 1125.94,-198.959 1126.84,-192.017"/>
</g>
<!-- Node50 -->
<g id="node173" class="node"><title>Node50</title>
<polygon fill="white" stroke="#bfbfbf" points="3164.34,-174.5 3164.34,-195.5 3318.34,-195.5 3318.34,-174.5 3164.34,-174.5"/>
<text text-anchor="middle" x="3241.34" y="-182.5" font-family="Helvetica,sans-Serif" font-size="10.00">BannerMessageHandler.moc</text>
</g>
<!-- Node1&#45;&gt;Node50 -->
<g id="edge246" class="edge"><title>Node1&#45;&gt;Node50</title>
<path fill="none" stroke="midnightblue" d="M1575.37,-241.842C1854.3,-237.439 2821.95,-220.767 3153.92,-196.027"/>
<polygon fill="midnightblue" stroke="midnightblue" points="3154.32,-199.506 3164.03,-195.256 3153.79,-192.527 3154.32,-199.506"/>
</g>
<!-- Node22&#45;&gt;Node2 -->
<g id="edge44" class="edge"><title>Node22&#45;&gt;Node2</title>
<path fill="none" stroke="midnightblue" d="M562.133,-61.9462C566.495,-60.5921 571.056,-59.2178 575.345,-58 623.424,-44.3489 679.063,-30.4695 716.667,-21.369"/>
<polygon fill="midnightblue" stroke="midnightblue" points="717.873,-24.6788 726.774,-18.933 716.232,-17.8737 717.873,-24.6788"/>
</g>
<!-- Node22&#45;&gt;Node5 -->
<g id="edge46" class="edge"><title>Node22&#45;&gt;Node5</title>
<path fill="none" stroke="midnightblue" d="M518.559,-63.0114C480.737,-52.615 402.854,-31.2062 359.736,-19.3541"/>
<polygon fill="midnightblue" stroke="midnightblue" points="360.645,-15.9741 350.075,-16.6984 358.79,-22.7238 360.645,-15.9741"/>
</g>
<!-- Node23&#45;&gt;Node2 -->
<g id="edge50" class="edge"><title>Node23&#45;&gt;Node2</title>
<path fill="none" stroke="midnightblue" d="M131.599,-64.0048C267.174,-52.5754 597.431,-24.734 716.576,-14.6898"/>
<polygon fill="midnightblue" stroke="midnightblue" points="717.105,-18.1578 726.775,-13.83 716.516,-11.1825 717.105,-18.1578"/>
</g>
<!-- Node24 -->
<g id="node50" class="node"><title>Node24</title>
<polygon fill="white" stroke="#bfbfbf" points="41.8448,-0.5 41.8448,-21.5 102.845,-21.5 102.845,-0.5 41.8448,-0.5"/>
<text text-anchor="middle" x="72.3448" y="-8.5" font-family="Helvetica,sans-Serif" font-size="10.00">PTypes.h</text>
</g>
<!-- Node23&#45;&gt;Node24 -->
<g id="edge52" class="edge"><title>Node23&#45;&gt;Node24</title>
<path fill="none" stroke="midnightblue" d="M72.3448,-58.3619C72.3448,-50.9219 72.3448,-40.7427 72.3448,-31.7276"/>
<polygon fill="midnightblue" stroke="midnightblue" points="75.8449,-31.5706 72.3448,-21.5707 68.8449,-31.5707 75.8449,-31.5706"/>
</g>
<!-- Node25&#45;&gt;Node2 -->
<g id="edge56" class="edge"><title>Node25&#45;&gt;Node2</title>
<path fill="none" stroke="midnightblue" d="M265.275,-116.385C279.252,-100.596 307.964,-71.3552 339.345,-58 406.541,-29.4025 622.843,-16.8897 716.469,-12.7161"/>
<polygon fill="midnightblue" stroke="midnightblue" points="716.894,-16.201 726.732,-12.2702 716.59,-9.20762 716.894,-16.201"/>
</g>
<!-- Node25&#45;&gt;Node5 -->
<g id="edge58" class="edge"><title>Node25&#45;&gt;Node5</title>
<path fill="none" stroke="midnightblue" d="M229.792,-116.314C202.485,-103.729 166.195,-81.5379 183.345,-58 197.033,-39.2133 259.955,-24.1915 298.591,-16.5369"/>
<polygon fill="midnightblue" stroke="midnightblue" points="299.625,-19.9024 308.784,-14.5763 298.303,-13.0284 299.625,-19.9024"/>
</g>
<!-- Node25&#45;&gt;Node23 -->
<g id="edge64" class="edge"><title>Node25&#45;&gt;Node23</title>
<path fill="none" stroke="midnightblue" d="M223.024,-116.497C192.897,-107 148.362,-92.9619 115.517,-82.6087"/>
<polygon fill="midnightblue" stroke="midnightblue" points="116.318,-79.1914 105.728,-79.5231 114.213,-85.8676 116.318,-79.1914"/>
</g>
<!-- Node26 -->
<g id="node56" class="node"><title>Node26</title>
<polygon fill="white" stroke="#bfbfbf" points="1537.84,-0.5 1537.84,-21.5 1574.84,-21.5 1574.84,-0.5 1537.84,-0.5"/>
<text text-anchor="middle" x="1556.34" y="-8.5" font-family="Helvetica,sans-Serif" font-size="10.00">map</text>
</g>
<!-- Node25&#45;&gt;Node26 -->
<g id="edge60" class="edge"><title>Node25&#45;&gt;Node26</title>
<path fill="none" stroke="midnightblue" d="M311.608,-120.804C429.066,-107.79 712.289,-77.2282 950.345,-58 1204.08,-37.5056 1276.16,-78.3342 1527.91,-21.7281"/>
<polygon fill="midnightblue" stroke="midnightblue" points="1528.74,-25.1292 1537.72,-19.4958 1527.19,-18.3039 1528.74,-25.1292"/>
</g>
<!-- Node27 -->
<g id="node58" class="node"><title>Node27</title>
<polygon fill="white" stroke="#bfbfbf" points="1751.84,-0.5 1751.84,-21.5 1794.84,-21.5 1794.84,-0.5 1751.84,-0.5"/>
<text text-anchor="middle" x="1773.34" y="-8.5" font-family="Helvetica,sans-Serif" font-size="10.00">string</text>
</g>
<!-- Node25&#45;&gt;Node27 -->
<g id="edge62" class="edge"><title>Node25&#45;&gt;Node27</title>
<path fill="none" stroke="midnightblue" d="M311.493,-122.045C337.253,-119.891 368.348,-117.517 396.345,-116 530.208,-108.747 1474.63,-120.758 1602.34,-80 1619.14,-74.6408 1619.54,-65.796 1635.34,-58 1670.32,-40.7528 1713.18,-27.2412 1741.77,-19.2162"/>
<polygon fill="midnightblue" stroke="midnightblue" points="1742.9,-22.5355 1751.62,-16.5111 1741.05,-15.7857 1742.9,-22.5355"/>
</g>
<!-- Node28&#45;&gt;Node2 -->
<g id="edge68" class="edge"><title>Node28&#45;&gt;Node2</title>
<path fill="none" stroke="midnightblue" d="M1377.28,-117.671C1372.57,-117.078 1367.89,-116.514 1363.34,-116 1180.26,-95.2881 1127.42,-130.906 950.345,-80 929.713,-74.0689 927.19,-66.185 907.345,-58 873.185,-43.9113 833.169,-31.3622 803.52,-22.7826"/>
<polygon fill="midnightblue" stroke="midnightblue" points="804.462,-19.412 793.886,-20.0287 802.539,-26.1424 804.462,-19.412"/>
</g>
<!-- Node28&#45;&gt;Node4 -->
<g id="edge76" class="edge"><title>Node28&#45;&gt;Node4</title>
<path fill="none" stroke="midnightblue" d="M1507.69,-122.693C1638.74,-113.799 1922.59,-93.139 1939.34,-80 1954.02,-68.488 1959.76,-47.4319 1961.98,-31.5962"/>
<polygon fill="midnightblue" stroke="midnightblue" points="1965.46,-31.9594 1963.02,-21.6485 1958.5,-31.2282 1965.46,-31.9594"/>
</g>
<!-- Node28&#45;&gt;Node27 -->
<g id="edge70" class="edge"><title>Node28&#45;&gt;Node27</title>
<path fill="none" stroke="midnightblue" d="M1507.49,-120.62C1592.05,-111.793 1731.06,-95.2175 1749.34,-80 1763.54,-68.1847 1769.36,-47.479 1771.73,-31.8237"/>
<polygon fill="midnightblue" stroke="midnightblue" points="1775.25,-31.8514 1772.92,-21.5161 1768.29,-31.049 1775.25,-31.8514"/>
</g>
<!-- Node29 -->
<g id="node65" class="node"><title>Node29</title>
<polygon fill="white" stroke="#bfbfbf" points="1470.34,-0.5 1470.34,-21.5 1520.34,-21.5 1520.34,-0.5 1470.34,-0.5"/>
<text text-anchor="middle" x="1495.34" y="-8.5" font-family="Helvetica,sans-Serif" font-size="10.00">stdint.h</text>
</g>
<!-- Node28&#45;&gt;Node29 -->
<g id="edge72" class="edge"><title>Node28&#45;&gt;Node29</title>
<path fill="none" stroke="midnightblue" d="M1505.36,-116.442C1544.82,-108.401 1590.37,-95.9927 1602.34,-80 1608.2,-72.1722 1607.69,-66.187 1602.34,-58 1598.05,-51.4178 1559.74,-35.5797 1530.17,-24.105"/>
<polygon fill="midnightblue" stroke="midnightblue" points="1531.13,-20.7245 1520.54,-20.4006 1528.62,-27.2577 1531.13,-20.7245"/>
</g>
<!-- Node30 -->
<g id="node67" class="node"><title>Node30</title>
<polygon fill="white" stroke="#bfbfbf" points="1334.84,-58.5 1334.84,-79.5 1365.84,-79.5 1365.84,-58.5 1334.84,-58.5"/>
<text text-anchor="middle" x="1350.34" y="-66.5" font-family="Helvetica,sans-Serif" font-size="10.00">set</text>
</g>
<!-- Node28&#45;&gt;Node30 -->
<g id="edge74" class="edge"><title>Node28&#45;&gt;Node30</title>
<path fill="none" stroke="midnightblue" d="M1425.47,-116.362C1411.25,-107.395 1390.71,-94.4495 1374.71,-84.3581"/>
<polygon fill="midnightblue" stroke="midnightblue" points="1376.21,-81.1702 1365.89,-78.7979 1372.48,-87.0917 1376.21,-81.1702"/>
</g>
<!-- Node31 -->
<g id="node70" class="node"><title>Node31</title>
<a xlink:href="GraphicsDefs_8h.htm" target="_top" xlink:title="GraphicsDefs.h">
<polygon fill="white" stroke="red" points="1024.84,-58.5 1024.84,-79.5 1113.84,-79.5 1113.84,-58.5 1024.84,-58.5"/>
<text text-anchor="middle" x="1069.34" y="-66.5" font-family="Helvetica,sans-Serif" font-size="10.00">GraphicsDefs.h</text>
</a>
</g>
<!-- Node28&#45;&gt;Node31 -->
<g id="edge78" class="edge"><title>Node28&#45;&gt;Node31</title>
<path fill="none" stroke="midnightblue" d="M1377.3,-117.908C1302.85,-107.424 1184.35,-90.4882 1124.29,-80.2556"/>
<polygon fill="midnightblue" stroke="midnightblue" points="1124.58,-76.7532 1114.13,-78.4878 1123.38,-83.6496 1124.58,-76.7532"/>
</g>
<!-- Node32 -->
<g id="node73" class="node"><title>Node32</title>
<a xlink:href="LaunchPoint_8h.htm" target="_top" xlink:title="LaunchPoint.h">
<polygon fill="white" stroke="red" points="1234.84,-58.5 1234.84,-79.5 1317.84,-79.5 1317.84,-58.5 1234.84,-58.5"/>
<text text-anchor="middle" x="1276.34" y="-66.5" font-family="Helvetica,sans-Serif" font-size="10.00">LaunchPoint.h</text>
</a>
</g>
<!-- Node28&#45;&gt;Node32 -->
<g id="edge82" class="edge"><title>Node28&#45;&gt;Node32</title>
<path fill="none" stroke="midnightblue" d="M1412.28,-116.497C1385.34,-107.082 1345.62,-93.2036 1316.06,-82.8773"/>
<polygon fill="midnightblue" stroke="midnightblue" points="1317.06,-79.5174 1306.46,-79.5231 1314.75,-86.1257 1317.06,-79.5174"/>
</g>
<!-- Node33 -->
<g id="node79" class="node"><title>Node33</title>
<a xlink:href="KeywordMap_8h.htm" target="_top" xlink:title="KeywordMap.h">
<polygon fill="white" stroke="black" points="1130.84,-58.5 1130.84,-79.5 1217.84,-79.5 1217.84,-58.5 1130.84,-58.5"/>
<text text-anchor="middle" x="1174.34" y="-66.5" font-family="Helvetica,sans-Serif" font-size="10.00">KeywordMap.h</text>
</a>
</g>
<!-- Node28&#45;&gt;Node33 -->
<g id="edge92" class="edge"><title>Node28&#45;&gt;Node33</title>
<path fill="none" stroke="midnightblue" d="M1393.81,-116.497C1347.06,-106.378 1276.48,-91.1042 1228.06,-80.6248"/>
<polygon fill="midnightblue" stroke="midnightblue" points="1228.59,-77.1595 1218.08,-78.465 1227.11,-84.0011 1228.59,-77.1595"/>
</g>
<!-- Node34 -->
<g id="node85" class="node"><title>Node34</title>
<a xlink:href="CmdResourceHandlers_8h.htm" target="_top" xlink:title="CmdResourceHandlers.h">
<polygon fill="white" stroke="red" points="1459.34,-58.5 1459.34,-79.5 1593.34,-79.5 1593.34,-58.5 1459.34,-58.5"/>
<text text-anchor="middle" x="1526.34" y="-66.5" font-family="Helvetica,sans-Serif" font-size="10.00">CmdResourceHandlers.h</text>
</a>
</g>
<!-- Node28&#45;&gt;Node34 -->
<g id="edge102" class="edge"><title>Node28&#45;&gt;Node34</title>
<path fill="none" stroke="midnightblue" d="M1457.75,-116.362C1470.3,-107.696 1488.24,-95.3126 1502.62,-85.3819"/>
<polygon fill="midnightblue" stroke="midnightblue" points="1504.8,-88.1327 1511.04,-79.5707 1500.82,-82.3725 1504.8,-88.1327"/>
</g>
<!-- Node31&#45;&gt;Node2 -->
<g id="edge80" class="edge"><title>Node31&#45;&gt;Node2</title>
<path fill="none" stroke="midnightblue" d="M1024.83,-59.6828C1021.96,-59.1063 1019.11,-58.541 1016.34,-58 941.872,-43.4373 854.945,-27.7558 803.95,-18.6897"/>
<polygon fill="midnightblue" stroke="midnightblue" points="804.396,-15.2141 793.938,-16.9126 803.172,-22.1064 804.396,-15.2141"/>
</g>
<!-- Node32&#45;&gt;Node2 -->
<g id="edge84" class="edge"><title>Node32&#45;&gt;Node2</title>
<path fill="none" stroke="midnightblue" d="M1234.67,-59.4529C1231.86,-58.9259 1229.07,-58.435 1226.34,-58 1071.96,-33.3175 886.605,-19.1984 803.894,-13.6987"/>
<polygon fill="midnightblue" stroke="midnightblue" points="804.063,-10.2023 793.855,-13.0401 803.605,-17.1873 804.063,-10.2023"/>
</g>
<!-- Node32&#45;&gt;Node4 -->
<g id="edge88" class="edge"><title>Node32&#45;&gt;Node4</title>
<path fill="none" stroke="midnightblue" d="M1318,-59.3681C1320.82,-58.8616 1323.62,-58.3984 1326.34,-58 1357.17,-53.4952 1824.91,-20.67 1938.59,-12.7271"/>
<polygon fill="midnightblue" stroke="midnightblue" points="1939,-16.2065 1948.74,-12.0183 1938.52,-9.22355 1939,-16.2065"/>
</g>
<!-- Node32&#45;&gt;Node5 -->
<g id="edge90" class="edge"><title>Node32&#45;&gt;Node5</title>
<path fill="none" stroke="midnightblue" d="M1234.69,-59.3007C1231.88,-58.8105 1229.08,-58.3693 1226.34,-58 1053.5,-34.6204 497.839,-16.2133 360.34,-11.9397"/>
<polygon fill="midnightblue" stroke="midnightblue" points="360.208,-8.43403 350.105,-11.6237 359.992,-15.4307 360.208,-8.43403"/>
</g>
<!-- Node32&#45;&gt;Node27 -->
<g id="edge86" class="edge"><title>Node32&#45;&gt;Node27</title>
<path fill="none" stroke="midnightblue" d="M1318.02,-59.4663C1320.83,-58.9361 1323.62,-58.4408 1326.34,-58 1480.94,-32.9482 1667.87,-18.2894 1741.42,-13.1251"/>
<polygon fill="midnightblue" stroke="midnightblue" points="1742.1,-16.5868 1751.83,-12.4048 1741.61,-9.60349 1742.1,-16.5868"/>
</g>
<!-- Node33&#45;&gt;Node2 -->
<g id="edge94" class="edge"><title>Node33&#45;&gt;Node2</title>
<path fill="none" stroke="midnightblue" d="M1130.7,-59.5051C1127.88,-58.9721 1125.07,-58.465 1122.34,-58 1007.95,-38.5067 872.01,-22.8546 803.863,-15.521"/>
<polygon fill="midnightblue" stroke="midnightblue" points="804.231,-12.0405 793.916,-14.4579 803.487,-19.0009 804.231,-12.0405"/>
</g>
<!-- Node33&#45;&gt;Node4 -->
<g id="edge98" class="edge"><title>Node33&#45;&gt;Node4</title>
<path fill="none" stroke="midnightblue" d="M1217.96,-59.2914C1220.79,-58.8108 1223.6,-58.3736 1226.34,-58 1480.94,-23.3191 1546.95,-38.8117 1803.34,-22 1851.31,-18.8548 1907.35,-14.9489 1938.76,-12.7388"/>
<polygon fill="midnightblue" stroke="midnightblue" points="1939.06,-16.2265 1948.79,-12.0318 1938.57,-9.24384 1939.06,-16.2265"/>
</g>
<!-- Node33&#45;&gt;Node5 -->
<g id="edge100" class="edge"><title>Node33&#45;&gt;Node5</title>
<path fill="none" stroke="midnightblue" d="M1130.73,-59.2814C1127.9,-58.8032 1125.09,-58.3694 1122.34,-58 970.94,-37.6153 487.693,-17.3132 360.348,-12.2173"/>
<polygon fill="midnightblue" stroke="midnightblue" points="360.269,-8.71148 350.137,-11.8109 359.99,-15.7059 360.269,-8.71148"/>
</g>
<!-- Node33&#45;&gt;Node27 -->
<g id="edge96" class="edge"><title>Node33&#45;&gt;Node27</title>
<path fill="none" stroke="midnightblue" d="M1217.97,-59.3664C1220.8,-58.8674 1223.61,-58.4057 1226.34,-58 1326.98,-43.0897 1640.14,-20.3648 1741.4,-13.2259"/>
<polygon fill="midnightblue" stroke="midnightblue" points="1741.88,-16.7012 1751.61,-12.5087 1741.39,-9.7184 1741.88,-16.7012"/>
</g>
<!-- Node34&#45;&gt;Node2 -->
<g id="edge104" class="edge"><title>Node34&#45;&gt;Node2</title>
<path fill="none" stroke="midnightblue" d="M1459.2,-59.5321C1454.52,-58.979 1449.86,-58.4612 1445.34,-58 1203.76,-33.3361 912.894,-18.1631 804.161,-12.9942"/>
<polygon fill="midnightblue" stroke="midnightblue" points="804.066,-9.48599 793.913,-12.5112 803.737,-16.4782 804.066,-9.48599"/>
</g>
<!-- Node34&#45;&gt;Node26 -->
<g id="edge110" class="edge"><title>Node34&#45;&gt;Node26</title>
<path fill="none" stroke="midnightblue" d="M1531.85,-58.3619C1535.86,-50.5949 1541.43,-39.8426 1546.23,-30.5458"/>
<polygon fill="midnightblue" stroke="midnightblue" points="1549.39,-32.0608 1550.88,-21.5707 1543.17,-28.8448 1549.39,-32.0608"/>
</g>
<!-- Node34&#45;&gt;Node27 -->
<g id="edge108" class="edge"><title>Node34&#45;&gt;Node27</title>
<path fill="none" stroke="midnightblue" d="M1571.07,-58.4966C1620.39,-46.916 1698.47,-28.5814 1741.78,-18.4116"/>
<polygon fill="midnightblue" stroke="midnightblue" points="1742.81,-21.7643 1751.75,-16.0709 1741.21,-14.9497 1742.81,-21.7643"/>
</g>
<!-- Node34&#45;&gt;Node29 -->
<g id="edge106" class="edge"><title>Node34&#45;&gt;Node29</title>
<path fill="none" stroke="midnightblue" d="M1520.66,-58.3619C1516.51,-50.5949 1510.76,-39.8426 1505.79,-30.5458"/>
<polygon fill="midnightblue" stroke="midnightblue" points="1508.8,-28.7401 1500.99,-21.5707 1502.62,-32.0398 1508.8,-28.7401"/>
</g>
<!-- Node35&#45;&gt;Node2 -->
<g id="edge114" class="edge"><title>Node35&#45;&gt;Node2</title>
<path fill="none" stroke="midnightblue" d="M1932.38,-123.172C1800.96,-114.585 1495.6,-93.4812 1450.34,-80 1430.53,-74.0966 1429.21,-63.7625 1409.34,-58 1295.24,-24.8942 930.517,-14.4613 804.034,-11.7927"/>
<polygon fill="midnightblue" stroke="midnightblue" points="804.012,-8.29164 793.942,-11.5857 803.869,-15.2902 804.012,-8.29164"/>
</g>
<!-- Node35&#45;&gt;Node4 -->
<g id="edge118" class="edge"><title>Node35&#45;&gt;Node4</title>
<path fill="none" stroke="midnightblue" d="M2052.12,-117.742C2097.75,-108.012 2149.09,-89.6146 2125.34,-58 2108.8,-35.9681 2029.04,-20.9302 1987.94,-14.509"/>
<polygon fill="midnightblue" stroke="midnightblue" points="1988.34,-11.0287 1977.93,-12.9952 1987.29,-17.9501 1988.34,-11.0287"/>
</g>
<!-- Node35&#45;&gt;Node13 -->
<g id="edge124" class="edge"><title>Node35&#45;&gt;Node13</title>
<path fill="none" stroke="midnightblue" d="M1997.11,-116.362C2000.56,-108.677 2005.31,-98.0686 2009.45,-88.8399"/>
<polygon fill="midnightblue" stroke="midnightblue" points="2012.71,-90.1275 2013.61,-79.5707 2006.32,-87.264 2012.71,-90.1275"/>
</g>
<!-- Node35&#45;&gt;Node26 -->
<g id="edge120" class="edge"><title>Node35&#45;&gt;Node26</title>
<path fill="none" stroke="midnightblue" d="M2013.58,-116.442C2038.19,-102.872 2073.1,-78.6056 2054.34,-58 2038.41,-40.4954 1688.38,-18.7149 1584.9,-12.6396"/>
<polygon fill="midnightblue" stroke="midnightblue" points="1585.06,-9.14267 1574.87,-12.0545 1584.65,-16.1308 1585.06,-9.14267"/>
</g>
<!-- Node35&#45;&gt;Node27 -->
<g id="edge116" class="edge"><title>Node35&#45;&gt;Node27</title>
<path fill="none" stroke="midnightblue" d="M2028.79,-116.484C2064.04,-104.522 2109.16,-83.3281 2087.34,-58 2069.04,-36.7544 1881.44,-19.5876 1805.25,-13.4393"/>
<polygon fill="midnightblue" stroke="midnightblue" points="1805.09,-9.91618 1794.85,-12.613 1804.54,-16.8942 1805.09,-9.91618"/>
</g>
<!-- Node35&#45;&gt;Node30 -->
<g id="edge122" class="edge"><title>Node35&#45;&gt;Node30</title>
<path fill="none" stroke="midnightblue" d="M1932.58,-123.718C1827.92,-117.613 1604.74,-103.003 1417.34,-80 1403.68,-78.3227 1388.54,-75.8864 1376.11,-73.7327"/>
<polygon fill="midnightblue" stroke="midnightblue" points="1376.45,-70.2387 1366,-71.939 1375.23,-77.1312 1376.45,-70.2387"/>
</g>
<!-- Node36&#45;&gt;Node2 -->
<g id="edge128" class="edge"><title>Node36&#45;&gt;Node2</title>
<path fill="none" stroke="midnightblue" d="M911.722,-116.472C854.968,-104.44 770.169,-85.6764 765.345,-80 754.203,-66.8918 753.964,-46.8515 755.915,-31.7397"/>
<polygon fill="midnightblue" stroke="midnightblue" points="759.384,-32.2199 757.598,-21.7766 752.481,-31.0538 759.384,-32.2199"/>
</g>
<!-- Node36&#45;&gt;Node13 -->
<g id="edge132" class="edge"><title>Node36&#45;&gt;Node13</title>
<path fill="none" stroke="midnightblue" d="M1013.66,-117.124C1016.6,-116.705 1019.5,-116.326 1022.34,-116 1213.16,-94.1067 1821.52,-74.8545 1980.2,-70.1142"/>
<polygon fill="midnightblue" stroke="midnightblue" points="1980.52,-73.6062 1990.41,-69.8105 1980.31,-66.6093 1980.52,-73.6062"/>
</g>
<!-- Node36&#45;&gt;Node22 -->
<g id="edge130" class="edge"><title>Node36&#45;&gt;Node22</title>
<path fill="none" stroke="midnightblue" d="M911.313,-117.457C908.281,-116.948 905.274,-116.458 902.345,-116 780.712,-96.9676 635.227,-79.7561 572.129,-72.5614"/>
<polygon fill="midnightblue" stroke="midnightblue" points="572.357,-69.0648 562.026,-71.4149 571.568,-76.0202 572.357,-69.0648"/>
</g>
<!-- Node37&#45;&gt;Node2 -->
<g id="edge136" class="edge"><title>Node37&#45;&gt;Node2</title>
<path fill="none" stroke="midnightblue" d="M442.861,-116.392C447.129,-100.887 457.344,-72.3268 477.345,-58 514.942,-31.0689 646.928,-18.477 716.566,-13.5929"/>
<polygon fill="midnightblue" stroke="midnightblue" points="717.036,-17.0691 726.776,-12.9007 716.562,-10.0852 717.036,-17.0691"/>
</g>
<!-- Node38&#45;&gt;Node2 -->
<g id="edge140" class="edge"><title>Node38&#45;&gt;Node2</title>
<path fill="none" stroke="midnightblue" d="M288.189,-60.6414C292.589,-59.655 297.065,-58.7386 301.345,-58 452.59,-31.8988 634.555,-18.5403 716.533,-13.4711"/>
<polygon fill="midnightblue" stroke="midnightblue" points="716.957,-16.9519 726.726,-12.8519 716.532,-9.96483 716.957,-16.9519"/>
</g>
<!-- Node38&#45;&gt;Node5 -->
<g id="edge142" class="edge"><title>Node38&#45;&gt;Node5</title>
<path fill="none" stroke="midnightblue" d="M269.734,-58.3619C280.436,-49.859 295.641,-37.7785 308.015,-27.9466"/>
<polygon fill="midnightblue" stroke="midnightblue" points="310.388,-30.5318 316.04,-21.5707 306.033,-25.0511 310.388,-30.5318"/>
</g>
<!-- Node39&#45;&gt;Node2 -->
<g id="edge146" class="edge"><title>Node39&#45;&gt;Node2</title>
<path fill="none" stroke="midnightblue" d="M1680.68,-124.797C1621.04,-120.706 1508.46,-109.479 1417.34,-80 1396.92,-73.392 1395.01,-63.8222 1374.34,-58 1266.86,-27.713 925.907,-15.5582 804.115,-12.1114"/>
<polygon fill="midnightblue" stroke="midnightblue" points="804.128,-8.61054 794.035,-11.832 803.934,-15.6079 804.128,-8.61054"/>
</g>
<!-- Node39&#45;&gt;Node13 -->
<g id="edge150" class="edge"><title>Node39&#45;&gt;Node13</title>
<path fill="none" stroke="midnightblue" d="M1764.07,-118.567C1768.55,-117.688 1773.04,-116.818 1777.34,-116 1866.08,-99.1429 1889.21,-99.7193 1977.34,-80 1978.42,-79.7586 1979.52,-79.5078 1980.62,-79.2494"/>
<polygon fill="midnightblue" stroke="midnightblue" points="1981.77,-82.571 1990.63,-76.7727 1980.09,-75.7757 1981.77,-82.571"/>
</g>
<!-- Node39&#45;&gt;Node27 -->
<g id="edge148" class="edge"><title>Node39&#45;&gt;Node27</title>
<path fill="none" stroke="midnightblue" d="M1763.98,-118.722C1801.15,-110.387 1851.5,-96.4322 1863.34,-80 1882.7,-53.1492 1837.82,-31.8085 1804.73,-20.3199"/>
<polygon fill="midnightblue" stroke="midnightblue" points="1805.51,-16.8931 1794.92,-17.0756 1803.32,-23.539 1805.51,-16.8931"/>
</g>
<!-- Node40&#45;&gt;Node2 -->
<g id="edge154" class="edge"><title>Node40&#45;&gt;Node2</title>
<path fill="none" stroke="midnightblue" d="M830.606,-118.045C792.685,-107.031 733.545,-88.7236 727.345,-80 716.051,-64.1097 728.564,-43.752 741.293,-29.2769"/>
<polygon fill="midnightblue" stroke="midnightblue" points="743.927,-31.585 748.236,-21.9062 738.832,-26.785 743.927,-31.585"/>
</g>
<!-- Node40&#45;&gt;Node5 -->
<g id="edge160" class="edge"><title>Node40&#45;&gt;Node5</title>
<path fill="none" stroke="midnightblue" d="M830.598,-124.98C701.389,-116.722 221.645,-85.7 216.345,-80 188.002,-49.5202 256.285,-27.638 298.685,-17.4397"/>
<polygon fill="midnightblue" stroke="midnightblue" points="299.62,-20.8161 308.577,-15.1571 298.046,-13.9954 299.62,-20.8161"/>
</g>
<!-- Node40&#45;&gt;Node27 -->
<g id="edge156" class="edge"><title>Node40&#45;&gt;Node27</title>
<path fill="none" stroke="midnightblue" d="M894.083,-117.596C896.861,-116.979 899.642,-116.433 902.345,-116 1063.38,-90.2237 1478.93,-126.155 1635.34,-80 1654.06,-74.477 1656.05,-67.0476 1673.34,-58 1696.13,-46.0769 1722.48,-33.7522 1742.4,-24.7164"/>
<polygon fill="midnightblue" stroke="midnightblue" points="1743.95,-27.8598 1751.63,-20.561 1741.07,-21.4776 1743.95,-27.8598"/>
</g>
<!-- Node40&#45;&gt;Node30 -->
<g id="edge158" class="edge"><title>Node40&#45;&gt;Node30</title>
<path fill="none" stroke="midnightblue" d="M894.101,-117.701C896.875,-117.061 899.65,-116.481 902.345,-116 1085.35,-83.3541 1141.53,-126.587 1324.94,-79.6617"/>
<polygon fill="midnightblue" stroke="midnightblue" points="1325.83,-83.0459 1334.62,-77.1314 1324.06,-76.2733 1325.83,-83.0459"/>
</g>
<!-- Node41&#45;&gt;Node2 -->
<g id="edge164" class="edge"><title>Node41&#45;&gt;Node2</title>
<path fill="none" stroke="midnightblue" d="M1031.25,-117.535C1028.24,-117.012 1025.25,-116.497 1022.34,-116 925.115,-99.3839 885.406,-134.733 803.345,-80 785.91,-68.3713 774.234,-47.021 767.502,-31.1377"/>
<polygon fill="midnightblue" stroke="midnightblue" points="770.69,-29.6793 763.782,-21.6466 764.173,-32.2343 770.69,-29.6793"/>
</g>
<!-- Node41&#45;&gt;Node4 -->
<g id="edge166" class="edge"><title>Node41&#45;&gt;Node4</title>
<path fill="none" stroke="midnightblue" d="M1137.39,-117.188C1140.41,-116.754 1143.41,-116.353 1146.34,-116 1394.4,-86.1306 1460.84,-120.712 1707.34,-80 1794.14,-65.6653 1894.02,-34.2785 1939.07,-19.2886"/>
<polygon fill="midnightblue" stroke="midnightblue" points="1940.2,-22.6005 1948.57,-16.1 1937.98,-15.9645 1940.2,-22.6005"/>
</g>
<!-- Node41&#45;&gt;Node22 -->
<g id="edge170" class="edge"><title>Node41&#45;&gt;Node22</title>
<path fill="none" stroke="midnightblue" d="M1031.29,-117.305C1028.27,-116.84 1025.27,-116.401 1022.34,-116 853.291,-92.7974 649.341,-76.8441 572.078,-71.229"/>
<polygon fill="midnightblue" stroke="midnightblue" points="572.26,-67.7331 562.034,-70.5056 571.757,-74.715 572.26,-67.7331"/>
</g>
<!-- Node41&#45;&gt;Node27 -->
<g id="edge168" class="edge"><title>Node41&#45;&gt;Node27</title>
<path fill="none" stroke="midnightblue" d="M1137.39,-117.203C1140.41,-116.764 1143.42,-116.359 1146.34,-116 1262.86,-101.726 1562.53,-118.714 1673.34,-80 1705.09,-68.9107 1736.07,-44.8771 1754.94,-28.3199"/>
<polygon fill="midnightblue" stroke="midnightblue" points="1757.39,-30.8203 1762.48,-21.5267 1752.7,-25.6194 1757.39,-30.8203"/>
</g>
<!-- Node42&#45;&gt;Node2 -->
<g id="edge174" class="edge"><title>Node42&#45;&gt;Node2</title>
<path fill="none" stroke="midnightblue" d="M1420.75,-174.373C1358.98,-155.991 1236.58,-119.845 1216.34,-116 1051.86,-84.736 995.519,-145.3 841.345,-80 814.982,-68.834 790.851,-45.8982 775.913,-29.5362"/>
<polygon fill="midnightblue" stroke="midnightblue" points="778.217,-26.8578 768.976,-21.6763 772.969,-31.4898 778.217,-26.8578"/>
</g>
<!-- Node42&#45;&gt;Node13 -->
<g id="edge178" class="edge"><title>Node42&#45;&gt;Node13</title>
<path fill="none" stroke="midnightblue" d="M1514.49,-176.003C1519.17,-175.313 1523.84,-174.637 1528.34,-174 1651.27,-156.624 1686.02,-172.249 1805.34,-138 1827.9,-131.526 1831.33,-124.127 1853.34,-116 1896.27,-100.155 1947.09,-86.4035 1980.87,-77.9375"/>
<polygon fill="midnightblue" stroke="midnightblue" points="1981.92,-81.2845 1990.78,-75.4834 1980.23,-74.4897 1981.92,-81.2845"/>
</g>
<!-- Node42&#45;&gt;Node27 -->
<g id="edge176" class="edge"><title>Node42&#45;&gt;Node27</title>
<path fill="none" stroke="midnightblue" d="M1514.35,-178.584C1529.63,-176.987 1546.1,-175.348 1561.34,-174 1672.09,-164.207 1962.91,-191.538 2060.34,-138 2088.47,-122.547 2093.28,-110.471 2103.34,-80 2106.41,-70.7155 2109.75,-65.3853 2103.34,-58 2083.92,-35.6135 1884.25,-18.9578 1805.26,-13.197"/>
<polygon fill="midnightblue" stroke="midnightblue" points="1805.17,-9.68174 1794.95,-12.457 1804.67,-16.6638 1805.17,-9.68174"/>
</g>
<!-- Node42&#45;&gt;Node28 -->
<g id="edge180" class="edge"><title>Node42&#45;&gt;Node28</title>
<path fill="none" stroke="midnightblue" d="M1453.78,-174.362C1451.96,-166.84 1449.47,-156.519 1447.28,-147.431"/>
<polygon fill="midnightblue" stroke="midnightblue" points="1450.65,-146.47 1444.9,-137.571 1443.84,-148.113 1450.65,-146.47"/>
</g>
<!-- Node43&#45;&gt;Node2 -->
<g id="edge184" class="edge"><title>Node43&#45;&gt;Node2</title>
<path fill="none" stroke="midnightblue" d="M1569.75,-179.315C1513.32,-172.06 1416.68,-158.007 1335.34,-138 1304.91,-130.513 1299.03,-122.373 1268.34,-116 1098.34,-80.6935 1044.76,-132.78 879.345,-80 869.509,-76.8615 818.661,-46.4778 786.696,-27.0897"/>
<polygon fill="midnightblue" stroke="midnightblue" points="788.203,-23.9099 777.84,-21.7064 784.567,-29.8915 788.203,-23.9099"/>
</g>
<!-- Node43&#45;&gt;Node13 -->
<g id="edge190" class="edge"><title>Node43&#45;&gt;Node13</title>
<path fill="none" stroke="midnightblue" d="M1664.96,-176.4C1669.48,-175.587 1674,-174.777 1678.34,-174 1768.54,-157.869 1794.49,-167.19 1881.34,-138 1901.69,-131.161 1905.19,-125.689 1924.34,-116 1945.56,-105.27 1969.53,-93.2883 1987.95,-84.1078"/>
<polygon fill="midnightblue" stroke="midnightblue" points="1989.65,-87.1742 1997.04,-79.5838 1986.53,-80.908 1989.65,-87.1742"/>
</g>
<!-- Node43&#45;&gt;Node20 -->
<g id="edge188" class="edge"><title>Node43&#45;&gt;Node20</title>
<path fill="none" stroke="midnightblue" d="M1664.91,-179.48C1681.21,-177.651 1699.57,-175.66 1716.34,-174 1900.58,-155.776 1949.11,-170.68 2131.34,-138 2132.62,-137.771 2133.92,-137.52 2135.22,-137.251"/>
<polygon fill="midnightblue" stroke="midnightblue" points="2136.31,-140.591 2145.25,-134.908 2134.72,-133.774 2136.31,-140.591"/>
</g>
<!-- Node43&#45;&gt;Node27 -->
<g id="edge186" class="edge"><title>Node43&#45;&gt;Node27</title>
<path fill="none" stroke="midnightblue" d="M1665.18,-178.66C1677.9,-177.054 1691.63,-175.392 1704.34,-174 1876.94,-155.108 1927.09,-188.075 2093.34,-138 2096.61,-137.018 2199.6,-82.9225 2201.34,-80 2206.36,-71.6084 2207.87,-65.2815 2201.34,-58 2188.09,-43.2109 1901.85,-20.5834 1805.03,-13.3258"/>
<polygon fill="midnightblue" stroke="midnightblue" points="1805.19,-9.82858 1794.96,-12.5756 1804.67,-16.8092 1805.19,-9.82858"/>
</g>
<!-- Node44&#45;&gt;Node2 -->
<g id="edge194" class="edge"><title>Node44&#45;&gt;Node2</title>
<path fill="none" stroke="midnightblue" d="M959.256,-61.8971C954.645,-60.5745 949.852,-59.2245 945.345,-58 897.114,-44.8964 841.501,-30.9194 803.945,-21.6462"/>
<polygon fill="midnightblue" stroke="midnightblue" points="804.399,-18.1535 793.852,-19.1601 802.725,-24.9504 804.399,-18.1535"/>
</g>
<!-- Node44&#45;&gt;Node29 -->
<g id="edge196" class="edge"><title>Node44&#45;&gt;Node29</title>
<path fill="none" stroke="midnightblue" d="M1007.68,-60.2106C1010.58,-59.3676 1013.51,-58.6036 1016.34,-58 1179.82,-23.1952 1380.25,-14.0861 1460.1,-11.7665"/>
<polygon fill="midnightblue" stroke="midnightblue" points="1460.21,-15.2649 1470.11,-11.4935 1460.02,-8.26754 1460.21,-15.2649"/>
</g>
<!-- Node45&#45;&gt;Node2 -->
<g id="edge200" class="edge"><title>Node45&#45;&gt;Node2</title>
<path fill="none" stroke="midnightblue" d="M426.059,-61.4919C430.436,-60.2067 435.009,-58.974 439.345,-58 537.268,-36.0032 654.395,-21.8571 716.548,-15.29"/>
<polygon fill="midnightblue" stroke="midnightblue" points="717.184,-18.7428 726.768,-14.2263 716.46,-11.7804 717.184,-18.7428"/>
</g>
<!-- Node45&#45;&gt;Node5 -->
<g id="edge204" class="edge"><title>Node45&#45;&gt;Node5</title>
<path fill="none" stroke="midnightblue" d="M389.772,-58.3619C378.924,-49.859 363.51,-37.7785 350.966,-27.9466"/>
<polygon fill="midnightblue" stroke="midnightblue" points="352.861,-24.9848 342.831,-21.5707 348.543,-30.4942 352.861,-24.9848"/>
</g>
<!-- Node45&#45;&gt;Node27 -->
<g id="edge202" class="edge"><title>Node45&#45;&gt;Node27</title>
<path fill="none" stroke="midnightblue" d="M425.851,-66.2308C447.477,-63.6778 481.094,-59.9919 510.345,-58 986.4,-25.5826 1106.69,-43.791 1583.34,-22 1638.92,-19.4593 1703.58,-15.5021 1741.34,-13.0909"/>
<polygon fill="midnightblue" stroke="midnightblue" points="1741.94,-16.5593 1751.7,-12.4248 1741.49,-9.57374 1741.94,-16.5593"/>
</g>
<!-- Node46&#45;&gt;Node2 -->
<g id="edge208" class="edge"><title>Node46&#45;&gt;Node2</title>
<path fill="none" stroke="midnightblue" d="M554.072,-174.216C543.661,-165.569 530.073,-152.512 522.345,-138 505.445,-106.266 487.39,-85.672 510.345,-58 536.052,-27.0092 651.979,-16.3214 716.556,-12.7369"/>
<polygon fill="midnightblue" stroke="midnightblue" points="717.035,-16.2168 726.839,-12.202 716.671,-9.22624 717.035,-16.2168"/>
</g>
<!-- Node46&#45;&gt;Node21 -->
<g id="edge210" class="edge"><title>Node46&#45;&gt;Node21</title>
<path fill="none" stroke="midnightblue" d="M573.48,-174.362C577.191,-166.677 582.312,-156.069 586.767,-146.84"/>
<polygon fill="midnightblue" stroke="midnightblue" points="590.046,-148.098 591.242,-137.571 583.742,-145.055 590.046,-148.098"/>
</g>
<!-- Node47&#45;&gt;Node2 -->
<g id="edge214" class="edge"><title>Node47&#45;&gt;Node2</title>
<path fill="none" stroke="midnightblue" d="M1758.25,-180.703C1653.09,-170.996 1405.45,-147.486 1368.34,-138 1343.64,-131.683 1340.11,-122.08 1315.34,-116 1138.56,-72.6002 1079.49,-139.187 907.345,-80 890.324,-74.148 889.274,-66.3789 873.345,-58 849.429,-45.4203 821.387,-33.7398 799.221,-25.1698"/>
<polygon fill="midnightblue" stroke="midnightblue" points="800.389,-21.8697 789.798,-21.5767 797.895,-28.4102 800.389,-21.8697"/>
</g>
<!-- Node47&#45;&gt;Node4 -->
<g id="edge216" class="edge"><title>Node47&#45;&gt;Node4</title>
<path fill="none" stroke="midnightblue" d="M1852.57,-176.079C1857.22,-175.323 1861.87,-174.614 1866.34,-174 1950.6,-162.444 2184.47,-195.268 2247.34,-138 2273.88,-113.832 2281.64,-85.3017 2258.34,-58 2240.81,-37.4462 2056.33,-19.21 1988.33,-13.1388"/>
<polygon fill="midnightblue" stroke="midnightblue" points="1988.38,-9.62922 1978.11,-12.2397 1987.76,-16.6023 1988.38,-9.62922"/>
</g>
<!-- Node47&#45;&gt;Node13 -->
<g id="edge222" class="edge"><title>Node47&#45;&gt;Node13</title>
<path fill="none" stroke="midnightblue" d="M1852.58,-176.132C1857.22,-175.365 1861.87,-174.639 1866.34,-174 1941.56,-163.251 2155.53,-194.482 2206.34,-138 2250.93,-88.4415 2123.26,-74.4126 2056.36,-70.4923"/>
<polygon fill="midnightblue" stroke="midnightblue" points="2056.35,-66.987 2046.18,-69.946 2055.98,-73.9769 2056.35,-66.987"/>
</g>
<!-- Node47&#45;&gt;Node20 -->
<g id="edge224" class="edge"><title>Node47&#45;&gt;Node20</title>
<path fill="none" stroke="midnightblue" d="M1852.6,-176.27C1857.24,-175.475 1861.88,-174.705 1866.34,-174 1983.75,-155.449 2014.89,-161.811 2131.34,-138 2132.61,-137.74 2133.9,-137.463 2135.2,-137.171"/>
<polygon fill="midnightblue" stroke="midnightblue" points="2136.33,-140.498 2145.22,-134.723 2134.67,-133.698 2136.33,-140.498"/>
</g>
<!-- Node47&#45;&gt;Node27 -->
<g id="edge218" class="edge"><title>Node47&#45;&gt;Node27</title>
<path fill="none" stroke="midnightblue" d="M1852.57,-176.107C1857.22,-175.345 1861.87,-174.628 1866.34,-174 1945.53,-162.897 2163.66,-190.056 2224.34,-138 2251.8,-114.448 2263.61,-84.8325 2239.34,-58 2224.73,-41.8352 1907.7,-19.7781 1805.09,-13.0383"/>
<polygon fill="midnightblue" stroke="midnightblue" points="1805.23,-9.54012 1795.02,-12.3812 1804.77,-16.5253 1805.23,-9.54012"/>
</g>
<!-- Node47&#45;&gt;Node36 -->
<g id="edge220" class="edge"><title>Node47&#45;&gt;Node36</title>
<path fill="none" stroke="midnightblue" d="M1758.33,-180.761C1733.14,-178.571 1701.56,-175.956 1673.34,-174 1387.65,-154.201 1311.86,-171.773 1024,-138.069"/>
<polygon fill="midnightblue" stroke="midnightblue" points="1024.01,-134.547 1013.67,-136.849 1023.19,-141.498 1024.01,-134.547"/>
</g>
<!-- Node48&#45;&gt;Node2 -->
<g id="edge228" class="edge"><title>Node48&#45;&gt;Node2</title>
<path fill="none" stroke="midnightblue" d="M1172.23,-180.691C1158.17,-178.582 1140.87,-176.06 1125.34,-174 990.91,-156.159 951.349,-179.821 822.345,-138 816.052,-135.96 721.695,-85.7045 718.345,-80 707.943,-62.2882 723.192,-42.2567 738.146,-28.3579"/>
<polygon fill="midnightblue" stroke="midnightblue" points="740.557,-30.8994 745.801,-21.6935 735.96,-25.6198 740.557,-30.8994"/>
</g>
<!-- Node48&#45;&gt;Node19 -->
<g id="edge232" class="edge"><title>Node48&#45;&gt;Node19</title>
<path fill="none" stroke="midnightblue" d="M1196.86,-174.362C1194.37,-166.758 1190.94,-156.294 1187.94,-147.135"/>
<polygon fill="midnightblue" stroke="midnightblue" points="1191.25,-145.984 1184.81,-137.571 1184.59,-148.163 1191.25,-145.984"/>
</g>
<!-- Node48&#45;&gt;Node27 -->
<g id="edge230" class="edge"><title>Node48&#45;&gt;Node27</title>
<path fill="none" stroke="midnightblue" d="M1228.43,-183.256C1311.29,-177.902 1553.62,-160.68 1629.34,-138 1649.91,-131.841 1652.19,-123.401 1672.34,-116 1737.92,-91.9151 1781.97,-134.762 1825.34,-80 1839.38,-62.2797 1818.87,-41.5115 1799.62,-27.4245"/>
<polygon fill="midnightblue" stroke="midnightblue" points="1801.49,-24.4604 1791.28,-21.6411 1797.51,-30.2139 1801.49,-24.4604"/>
</g>
<!-- Node49&#45;&gt;Node2 -->
<g id="edge236" class="edge"><title>Node49&#45;&gt;Node2</title>
<path fill="none" stroke="midnightblue" d="M976.214,-176.971C923.893,-169.835 851.099,-157.463 789.345,-138 766.963,-130.946 763.373,-124.09 741.345,-116 685.871,-95.627 649.03,-127.106 613.345,-80 583.518,-40.6268 663.375,-22.8277 716.75,-15.5147"/>
<polygon fill="midnightblue" stroke="midnightblue" points="717.235,-18.9813 726.704,-14.2284 716.338,-12.039 717.235,-18.9813"/>
</g>
<!-- Node49&#45;&gt;Node13 -->
<g id="edge240" class="edge"><title>Node49&#45;&gt;Node13</title>
<path fill="none" stroke="midnightblue" d="M1116.53,-178.002C1131.95,-176.576 1148.19,-175.16 1163.34,-174 1298.52,-163.653 1643.81,-181.099 1772.34,-138 1789.06,-132.396 1789.13,-122.906 1805.34,-116 1821.33,-109.191 1923.92,-87.9791 1980.69,-76.522"/>
<polygon fill="midnightblue" stroke="midnightblue" points="1981.61,-79.9066 1990.72,-74.5019 1980.23,-73.0443 1981.61,-79.9066"/>
</g>
<!-- Node49&#45;&gt;Node22 -->
<g id="edge242" class="edge"><title>Node49&#45;&gt;Node22</title>
<path fill="none" stroke="midnightblue" d="M976.301,-179.245C915.76,-173.001 826.422,-160.721 751.345,-138 728.884,-131.202 725.373,-124.09 703.345,-116 647.871,-95.627 631.984,-96.8612 575.345,-80 574.276,-79.682 573.191,-79.356 572.095,-79.0247"/>
<polygon fill="midnightblue" stroke="midnightblue" points="572.745,-75.5629 562.158,-75.9678 570.687,-82.2535 572.745,-75.5629"/>
</g>
<!-- Node49&#45;&gt;Node27 -->
<g id="edge238" class="edge"><title>Node49&#45;&gt;Node27</title>
<path fill="none" stroke="midnightblue" d="M1116.63,-178.204C1242.92,-165.961 1496.95,-141.172 1516.34,-138 1530.63,-135.664 1761.08,-91.1182 1770.34,-80 1781.34,-66.8077 1780.97,-46.7773 1778.51,-31.6907"/>
<polygon fill="midnightblue" stroke="midnightblue" points="1781.91,-30.8465 1776.48,-21.7475 1775.05,-32.2451 1781.91,-30.8465"/>
</g>
<!-- Node49&#45;&gt;Node41 -->
<g id="edge244" class="edge"><title>Node49&#45;&gt;Node41</title>
<path fill="none" stroke="midnightblue" d="M1053.31,-174.362C1058.51,-166.431 1065.75,-155.389 1071.92,-145.961"/>
<polygon fill="midnightblue" stroke="midnightblue" points="1074.87,-147.853 1077.42,-137.571 1069.01,-144.017 1074.87,-147.853"/>
</g>
</g>
</svg>
