<?xml version="1.0" encoding="UTF-8" standalone="no"?>
<!DOCTYPE svg PUBLIC "-//W3C//DTD SVG 1.1//EN"
 "http://www.w3.org/Graphics/SVG/1.1/DTD/svg11.dtd">
<!-- Generated by graphviz version 2.26.3 (20100126.1600)
 -->
<!-- Title: G Pages: 1 -->
<svg width="828pt" height="262pt"
 viewBox="0.00 0.00 827.85 262.00" xmlns="http://www.w3.org/2000/svg" xmlns:xlink="http://www.w3.org/1999/xlink">
<g id="graph1" class="graph" transform="scale(1 1) rotate(0) translate(4 258)">
<title>G</title>
<polygon fill="white" stroke="white" points="-4,5 -4,-258 824.854,-258 824.854,5 -4,5"/>
<!-- Node1 -->
<g id="node1" class="node"><title>Node1</title>
<polygon fill="#bfbfbf" stroke="black" points="639,-232.5 639,-253.5 779,-253.5 779,-232.5 639,-232.5"/>
<text text-anchor="middle" x="709" y="-240.5" font-family="Helvetica,sans-Serif" font-size="10.00">BannerMessageHandler.h</text>
</g>
<!-- Node2 -->
<g id="node3" class="node"><title>Node2</title>
<a xlink:href="Common_8h.htm" target="_top" xlink:title="Common.h">
<polygon fill="white" stroke="black" points="645.5,-0.5 645.5,-21.5 712.5,-21.5 712.5,-0.5 645.5,-0.5"/>
<text text-anchor="middle" x="679" y="-8.5" font-family="Helvetica,sans-Serif" font-size="10.00">Common.h</text>
</a>
</g>
<!-- Node1&#45;&gt;Node2 -->
<g id="edge2" class="edge"><title>Node1&#45;&gt;Node2</title>
<path fill="none" stroke="midnightblue" d="M722.719,-232.474C758.938,-203.407 851.45,-120.074 808,-58 797.843,-43.4886 755.999,-29.9852 722.684,-21.2105"/>
<polygon fill="midnightblue" stroke="midnightblue" points="723.22,-17.7346 712.664,-18.6433 721.482,-24.5156 723.22,-17.7346"/>
</g>
<!-- Node3 -->
<g id="node5" class="node"><title>Node3</title>
<polygon fill="white" stroke="#bfbfbf" points="741.5,-58.5 741.5,-79.5 784.5,-79.5 784.5,-58.5 741.5,-58.5"/>
<text text-anchor="middle" x="763" y="-66.5" font-family="Helvetica,sans-Serif" font-size="10.00">string</text>
</g>
<!-- Node1&#45;&gt;Node3 -->
<g id="edge4" class="edge"><title>Node1&#45;&gt;Node3</title>
<path fill="none" stroke="midnightblue" d="M719.674,-232.453C728.003,-223.544 739.115,-210.028 745,-196 759.783,-160.761 762.835,-115.698 763.241,-89.8172"/>
<polygon fill="midnightblue" stroke="midnightblue" points="766.741,-89.6938 763.277,-79.6815 759.741,-89.6691 766.741,-89.6938"/>
</g>
<!-- Node4 -->
<g id="node7" class="node"><title>Node4</title>
<polygon fill="white" stroke="#bfbfbf" points="681.5,-174.5 681.5,-195.5 736.5,-195.5 736.5,-174.5 681.5,-174.5"/>
<text text-anchor="middle" x="709" y="-182.5" font-family="Helvetica,sans-Serif" font-size="10.00">QObject</text>
</g>
<!-- Node1&#45;&gt;Node4 -->
<g id="edge6" class="edge"><title>Node1&#45;&gt;Node4</title>
<path fill="none" stroke="midnightblue" d="M709,-232.362C709,-224.922 709,-214.743 709,-205.728"/>
<polygon fill="midnightblue" stroke="midnightblue" points="712.5,-205.571 709,-195.571 705.5,-205.571 712.5,-205.571"/>
</g>
<!-- Node5 -->
<g id="node9" class="node"><title>Node5</title>
<a xlink:href="sptr_8h.htm" target="_top" xlink:title="sptr.h">
<polygon fill="white" stroke="black" points="-0.5,-58.5 -0.5,-79.5 42.5,-79.5 42.5,-58.5 -0.5,-58.5"/>
<text text-anchor="middle" x="21" y="-66.5" font-family="Helvetica,sans-Serif" font-size="10.00">sptr.h</text>
</a>
</g>
<!-- Node1&#45;&gt;Node5 -->
<g id="edge8" class="edge"><title>Node1&#45;&gt;Node5</title>
<path fill="none" stroke="midnightblue" d="M667.255,-232.442C540.903,-200.487 164.409,-105.269 52.6288,-76.9991"/>
<polygon fill="midnightblue" stroke="midnightblue" points="53.2079,-73.5355 42.6549,-74.4767 51.4915,-80.3218 53.2079,-73.5355"/>
</g>
<!-- Node7 -->
<g id="node14" class="node"><title>Node7</title>
<a xlink:href="SoundPlayerPool_8h.htm" target="_top" xlink:title="SoundPlayerPool.h">
<polygon fill="white" stroke="black" points="558,-174.5 558,-195.5 664,-195.5 664,-174.5 558,-174.5"/>
<text text-anchor="middle" x="611" y="-182.5" font-family="Helvetica,sans-Serif" font-size="10.00">SoundPlayerPool.h</text>
</a>
</g>
<!-- Node1&#45;&gt;Node7 -->
<g id="edge14" class="edge"><title>Node1&#45;&gt;Node7</title>
<path fill="none" stroke="midnightblue" d="M691.025,-232.362C676.106,-223.532 654.667,-210.844 637.734,-200.822"/>
<polygon fill="midnightblue" stroke="midnightblue" points="639.249,-197.652 628.861,-195.571 635.684,-203.676 639.249,-197.652"/>
</g>
<!-- Node5&#45;&gt;Node2 -->
<g id="edge10" class="edge"><title>Node5&#45;&gt;Node2</title>
<path fill="none" stroke="midnightblue" d="M42.6709,-64.9567C55.9922,-62.6053 73.4336,-59.7663 89,-58 328.208,-30.8569 394.273,-60.2711 635.077,-22.0733"/>
<polygon fill="midnightblue" stroke="midnightblue" points="635.876,-25.4899 645.193,-20.4456 634.763,-18.5788 635.876,-25.4899"/>
</g>
<!-- Node6 -->
<g id="node12" class="node"><title>Node6</title>
<polygon fill="white" stroke="#bfbfbf" points="49.5,-0.5 49.5,-21.5 90.5,-21.5 90.5,-0.5 49.5,-0.5"/>
<text text-anchor="middle" x="70" y="-8.5" font-family="Helvetica,sans-Serif" font-size="10.00">glib.h</text>
</g>
<!-- Node5&#45;&gt;Node6 -->
<g id="edge12" class="edge"><title>Node5&#45;&gt;Node6</title>
<path fill="none" stroke="midnightblue" d="M29.9874,-58.3619C36.8255,-50.2678 46.4024,-38.9318 54.4724,-29.3796"/>
<polygon fill="midnightblue" stroke="midnightblue" points="57.2897,-31.4683 61.0696,-21.5707 51.9425,-26.9508 57.2897,-31.4683"/>
</g>
<!-- Node7&#45;&gt;Node2 -->
<g id="edge16" class="edge"><title>Node7&#45;&gt;Node2</title>
<path fill="none" stroke="midnightblue" d="M653.022,-174.484C697.13,-160.914 764.013,-132.542 793,-80 810.888,-47.5764 761.839,-28.7236 722.565,-19.1471"/>
<polygon fill="midnightblue" stroke="midnightblue" points="723.111,-15.6815 712.581,-16.8542 721.544,-22.5039 723.111,-15.6815"/>
</g>
<!-- Node7&#45;&gt;Node3 -->
<g id="edge20" class="edge"><title>Node7&#45;&gt;Node3</title>
<path fill="none" stroke="midnightblue" d="M625.57,-174.249C638.376,-164.771 657.491,-150.556 674,-138 697.136,-120.404 723.416,-99.9741 741.386,-85.9365"/>
<polygon fill="midnightblue" stroke="midnightblue" points="743.769,-88.5165 749.49,-79.5992 739.456,-83.0024 743.769,-88.5165"/>
</g>
<!-- Node7&#45;&gt;Node5 -->
<g id="edge24" class="edge"><title>Node7&#45;&gt;Node5</title>
<path fill="none" stroke="midnightblue" d="M580.114,-174.493C555.328,-165.708 519.864,-152.339 490,-138 472.408,-129.553 470.587,-121.946 452,-116 290.422,-64.3088 239.652,-105.929 72,-80 65.8068,-79.0422 59.236,-77.7986 52.9441,-76.4937"/>
<polygon fill="midnightblue" stroke="midnightblue" points="53.2492,-72.9786 42.7345,-74.2794 51.7654,-79.8195 53.2492,-72.9786"/>
</g>
<!-- Node8 -->
<g id="node17" class="node"><title>Node8</title>
<polygon fill="white" stroke="#bfbfbf" points="695.5,-58.5 695.5,-79.5 724.5,-79.5 724.5,-58.5 695.5,-58.5"/>
<text text-anchor="middle" x="710" y="-66.5" font-family="Helvetica,sans-Serif" font-size="10.00">list</text>
</g>
<!-- Node7&#45;&gt;Node8 -->
<g id="edge18" class="edge"><title>Node7&#45;&gt;Node8</title>
<path fill="none" stroke="midnightblue" d="M620.136,-174.295C637.007,-154.527 673.233,-112.08 694.173,-87.5443"/>
<polygon fill="midnightblue" stroke="midnightblue" points="697.056,-89.5578 700.886,-79.6792 691.732,-85.0136 697.056,-89.5578"/>
</g>
<!-- Node9 -->
<g id="node20" class="node"><title>Node9</title>
<polygon fill="white" stroke="#bfbfbf" points="365,-116.5 365,-137.5 443,-137.5 443,-116.5 365,-116.5"/>
<text text-anchor="middle" x="404" y="-124.5" font-family="Helvetica,sans-Serif" font-size="10.00">lunaservice.h</text>
</g>
<!-- Node7&#45;&gt;Node9 -->
<g id="edge22" class="edge"><title>Node7&#45;&gt;Node9</title>
<path fill="none" stroke="midnightblue" d="M573.514,-174.497C539.329,-164.918 488.654,-150.72 451.616,-140.342"/>
<polygon fill="midnightblue" stroke="midnightblue" points="452.13,-136.851 441.556,-137.523 450.241,-143.591 452.13,-136.851"/>
</g>
<!-- Node10 -->
<g id="node23" class="node"><title>Node10</title>
<a xlink:href="Timer_8h.htm" target="_top" xlink:title="Timer.h">
<polygon fill="white" stroke="black" points="588,-58.5 588,-79.5 640,-79.5 640,-58.5 588,-58.5"/>
<text text-anchor="middle" x="614" y="-66.5" font-family="Helvetica,sans-Serif" font-size="10.00">Timer.h</text>
</a>
</g>
<!-- Node7&#45;&gt;Node10 -->
<g id="edge26" class="edge"><title>Node7&#45;&gt;Node10</title>
<path fill="none" stroke="midnightblue" d="M611.277,-174.295C611.772,-155.131 612.819,-114.654 613.461,-89.8434"/>
<polygon fill="midnightblue" stroke="midnightblue" points="616.964,-89.7664 613.724,-79.6792 609.966,-89.5853 616.964,-89.7664"/>
</g>
<!-- Node12 -->
<g id="node29" class="node"><title>Node12</title>
<a xlink:href="SoundPlayer_8h.htm" target="_top" xlink:title="SoundPlayer.h">
<polygon fill="white" stroke="black" points="498.5,-116.5 498.5,-137.5 583.5,-137.5 583.5,-116.5 498.5,-116.5"/>
<text text-anchor="middle" x="541" y="-124.5" font-family="Helvetica,sans-Serif" font-size="10.00">SoundPlayer.h</text>
</a>
</g>
<!-- Node7&#45;&gt;Node12 -->
<g id="edge34" class="edge"><title>Node7&#45;&gt;Node12</title>
<path fill="none" stroke="midnightblue" d="M598.161,-174.362C587.998,-165.941 573.599,-154.011 561.796,-144.231"/>
<polygon fill="midnightblue" stroke="midnightblue" points="563.691,-141.256 553.758,-137.571 559.225,-146.646 563.691,-141.256"/>
</g>
<!-- Node10&#45;&gt;Node2 -->
<g id="edge28" class="edge"><title>Node10&#45;&gt;Node2</title>
<path fill="none" stroke="midnightblue" d="M625.922,-58.3619C635.359,-49.9408 648.73,-38.0105 659.69,-28.2308"/>
<polygon fill="midnightblue" stroke="midnightblue" points="662.022,-30.8401 667.154,-21.5707 657.362,-25.6171 662.022,-30.8401"/>
</g>
<!-- Node10&#45;&gt;Node6 -->
<g id="edge30" class="edge"><title>Node10&#45;&gt;Node6</title>
<path fill="none" stroke="midnightblue" d="M587.783,-60.103C584.843,-59.3021 581.873,-58.5772 579,-58 400.342,-22.1016 180.807,-13.5532 100.918,-11.5758"/>
<polygon fill="midnightblue" stroke="midnightblue" points="100.669,-8.0692 90.5913,-11.3382 100.508,-15.0673 100.669,-8.0692"/>
</g>
<!-- Node11 -->
<g id="node27" class="node"><title>Node11</title>
<polygon fill="white" stroke="#bfbfbf" points="578,-0.5 578,-21.5 628,-21.5 628,-0.5 578,-0.5"/>
<text text-anchor="middle" x="603" y="-8.5" font-family="Helvetica,sans-Serif" font-size="10.00">stdint.h</text>
</g>
<!-- Node10&#45;&gt;Node11 -->
<g id="edge32" class="edge"><title>Node10&#45;&gt;Node11</title>
<path fill="none" stroke="midnightblue" d="M611.982,-58.3619C610.556,-50.8401 608.598,-40.5187 606.875,-31.4308"/>
<polygon fill="midnightblue" stroke="midnightblue" points="610.307,-30.7433 605.005,-21.5707 603.429,-32.0477 610.307,-30.7433"/>
</g>
<!-- Node12&#45;&gt;Node2 -->
<g id="edge36" class="edge"><title>Node12&#45;&gt;Node2</title>
<path fill="none" stroke="midnightblue" d="M583.764,-116.527C605.592,-109.333 631.218,-97.788 649,-80 662.228,-66.7679 670.045,-46.7422 674.365,-31.6675"/>
<polygon fill="midnightblue" stroke="midnightblue" points="677.819,-32.2903 676.92,-21.7337 671.039,-30.5466 677.819,-32.2903"/>
</g>
<!-- Node12&#45;&gt;Node3 -->
<g id="edge38" class="edge"><title>Node12&#45;&gt;Node3</title>
<path fill="none" stroke="midnightblue" d="M583.695,-117.982C620.708,-109.844 675.842,-96.9602 731.758,-80.1735"/>
<polygon fill="midnightblue" stroke="midnightblue" points="732.918,-83.4791 741.467,-77.2211 730.882,-76.7819 732.918,-83.4791"/>
</g>
<!-- Node12&#45;&gt;Node5 -->
<g id="edge46" class="edge"><title>Node12&#45;&gt;Node5</title>
<path fill="none" stroke="midnightblue" d="M498.277,-118.104C493.805,-117.324 489.318,-116.603 485,-116 295.504,-89.5201 243.743,-116.909 56,-80 54.9063,-79.785 53.7985,-79.548 52.6838,-79.293"/>
<polygon fill="midnightblue" stroke="midnightblue" points="53.2161,-75.8127 42.6521,-76.6204 51.414,-82.5768 53.2161,-75.8127"/>
</g>
<!-- Node12&#45;&gt;Node6 -->
<g id="edge42" class="edge"><title>Node12&#45;&gt;Node6</title>
<path fill="none" stroke="midnightblue" d="M498.273,-118.135C493.802,-117.349 489.315,-116.618 485,-116 397.53,-103.468 156.789,-136.68 89,-80 75.1166,-68.3919 70.8807,-47.6577 69.8085,-31.9392"/>
<polygon fill="midnightblue" stroke="midnightblue" points="73.296,-31.4716 69.4943,-21.5824 66.2993,-31.684 73.296,-31.4716"/>
</g>
<!-- Node12&#45;&gt;Node8 -->
<g id="edge40" class="edge"><title>Node12&#45;&gt;Node8</title>
<path fill="none" stroke="midnightblue" d="M574.218,-116.472C602.898,-107.253 645.373,-93.2886 682,-80 683.215,-79.5591 684.457,-79.1007 685.709,-78.6322"/>
<polygon fill="midnightblue" stroke="midnightblue" points="687.156,-81.8257 695.233,-74.969 684.643,-75.2923 687.156,-81.8257"/>
</g>
<!-- Node12&#45;&gt;Node10 -->
<g id="edge54" class="edge"><title>Node12&#45;&gt;Node10</title>
<path fill="none" stroke="midnightblue" d="M554.389,-116.362C565.091,-107.859 580.296,-95.7785 592.671,-85.9466"/>
<polygon fill="midnightblue" stroke="midnightblue" points="595.043,-88.5318 600.696,-79.5707 590.689,-83.0511 595.043,-88.5318"/>
</g>
<!-- Node13 -->
<g id="node35" class="node"><title>Node13</title>
<polygon fill="white" stroke="#bfbfbf" points="508,-58.5 508,-79.5 570,-79.5 570,-58.5 508,-58.5"/>
<text text-anchor="middle" x="539" y="-66.5" font-family="Helvetica,sans-Serif" font-size="10.00">pthread.h</text>
</g>
<!-- Node12&#45;&gt;Node13 -->
<g id="edge44" class="edge"><title>Node12&#45;&gt;Node13</title>
<path fill="none" stroke="midnightblue" d="M540.633,-116.362C540.377,-108.922 540.026,-98.7427 539.715,-89.7276"/>
<polygon fill="midnightblue" stroke="midnightblue" points="543.207,-89.4441 539.365,-79.5707 536.211,-89.6854 543.207,-89.4441"/>
</g>
<!-- Node14 -->
<g id="node38" class="node"><title>Node14</title>
<polygon fill="white" stroke="#bfbfbf" points="97.5,-58.5 97.5,-79.5 226.5,-79.5 226.5,-58.5 97.5,-58.5"/>
<text text-anchor="middle" x="162" y="-66.5" font-family="Helvetica,sans-Serif" font-size="10.00">media/LunaConnector.h</text>
</g>
<!-- Node12&#45;&gt;Node14 -->
<g id="edge48" class="edge"><title>Node12&#45;&gt;Node14</title>
<path fill="none" stroke="midnightblue" d="M498.236,-118.367C493.773,-117.536 489.298,-116.731 485,-116 377.467,-97.7085 347.726,-96.4238 236.787,-80.2511"/>
<polygon fill="midnightblue" stroke="midnightblue" points="237.277,-76.7857 226.875,-78.7983 236.262,-83.7117 237.277,-76.7857"/>
</g>
<!-- Node15 -->
<g id="node40" class="node"><title>Node15</title>
<polygon fill="white" stroke="#bfbfbf" points="243.5,-58.5 243.5,-79.5 356.5,-79.5 356.5,-58.5 243.5,-58.5"/>
<text text-anchor="middle" x="300" y="-66.5" font-family="Helvetica,sans-Serif" font-size="10.00">media/MediaClient.h</text>
</g>
<!-- Node12&#45;&gt;Node15 -->
<g id="edge50" class="edge"><title>Node12&#45;&gt;Node15</title>
<path fill="none" stroke="midnightblue" d="M498.469,-116.764C458.101,-107.049 397.276,-92.4108 353.607,-81.9014"/>
<polygon fill="midnightblue" stroke="midnightblue" points="354.274,-78.462 343.733,-79.5249 352.636,-85.2677 354.274,-78.462"/>
</g>
<!-- Node16 -->
<g id="node42" class="node"><title>Node16</title>
<polygon fill="white" stroke="#bfbfbf" points="374,-58.5 374,-79.5 490,-79.5 490,-58.5 374,-58.5"/>
<text text-anchor="middle" x="432" y="-66.5" font-family="Helvetica,sans-Serif" font-size="10.00">media/MediaPlayer.h</text>
</g>
<!-- Node12&#45;&gt;Node16 -->
<g id="edge52" class="edge"><title>Node12&#45;&gt;Node16</title>
<path fill="none" stroke="midnightblue" d="M521.261,-116.497C504.39,-107.519 479.891,-94.4835 460.826,-84.3387"/>
<polygon fill="midnightblue" stroke="midnightblue" points="462.433,-81.2289 451.961,-79.6212 459.144,-87.4086 462.433,-81.2289"/>
</g>
</g>
</svg>
