<?xml version="1.0" encoding="UTF-8" standalone="no"?>
<!DOCTYPE svg PUBLIC "-//W3C//DTD SVG 1.1//EN"
 "http://www.w3.org/Graphics/SVG/1.1/DTD/svg11.dtd">
<!-- Generated by graphviz version 2.26.3 (20100126.1600)
 -->
<!-- Title: G Pages: 1 -->
<svg width="1189pt" height="320pt"
 viewBox="0.00 0.00 1189.24 320.00" xmlns="http://www.w3.org/2000/svg" xmlns:xlink="http://www.w3.org/1999/xlink">
<g id="graph1" class="graph" transform="scale(1 1) rotate(0) translate(4 316)">
<title>G</title>
<polygon fill="white" stroke="white" points="-4,5 -4,-316 1186.24,-316 1186.24,5 -4,5"/>
<!-- Node1 -->
<g id="node1" class="node"><title>Node1</title>
<polygon fill="#bfbfbf" stroke="black" points="912.5,-290.5 912.5,-311.5 1009.5,-311.5 1009.5,-290.5 912.5,-290.5"/>
<text text-anchor="middle" x="961" y="-298.5" font-family="Helvetica,sans-Serif" font-size="10.00">BannerWindow.h</text>
</g>
<!-- Node2 -->
<g id="node3" class="node"><title>Node2</title>
<a xlink:href="Common_8h.htm" target="_top" xlink:title="Common.h">
<polygon fill="white" stroke="black" points="778.5,-0.5 778.5,-21.5 845.5,-21.5 845.5,-0.5 778.5,-0.5"/>
<text text-anchor="middle" x="812" y="-8.5" font-family="Helvetica,sans-Serif" font-size="10.00">Common.h</text>
</a>
</g>
<!-- Node1&#45;&gt;Node2 -->
<g id="edge2" class="edge"><title>Node1&#45;&gt;Node2</title>
<path fill="none" stroke="midnightblue" d="M1009.6,-296.585C1074.12,-287.75 1180,-261.585 1180,-185 1180,-185 1180,-185 1180,-127 1180,-95.1919 1184.96,-78.9254 1161,-58 1149.6,-48.0398 946.828,-25.3474 855.712,-15.5946"/>
<polygon fill="midnightblue" stroke="midnightblue" points="856.007,-12.1063 845.693,-14.5261 855.265,-19.0668 856.007,-12.1063"/>
</g>
<!-- Node3 -->
<g id="node5" class="node"><title>Node3</title>
<polygon fill="white" stroke="#bfbfbf" points="741.5,-58.5 741.5,-79.5 784.5,-79.5 784.5,-58.5 741.5,-58.5"/>
<text text-anchor="middle" x="763" y="-66.5" font-family="Helvetica,sans-Serif" font-size="10.00">string</text>
</g>
<!-- Node1&#45;&gt;Node3 -->
<g id="edge4" class="edge"><title>Node1&#45;&gt;Node3</title>
<path fill="none" stroke="midnightblue" d="M912.302,-294.188C823.805,-280.648 642.61,-247.17 609,-196 588.041,-164.09 640.762,-122.648 649,-116 655.802,-110.51 700.326,-92.895 731.671,-80.8606"/>
<polygon fill="midnightblue" stroke="midnightblue" points="733.229,-84.012 741.32,-77.1719 730.73,-77.4734 733.229,-84.012"/>
</g>
<!-- Node4 -->
<g id="node7" class="node"><title>Node4</title>
<polygon fill="white" stroke="#bfbfbf" points="1054,-58.5 1054,-79.5 1152,-79.5 1152,-58.5 1054,-58.5"/>
<text text-anchor="middle" x="1103" y="-66.5" font-family="Helvetica,sans-Serif" font-size="10.00">QGraphicsObject</text>
</g>
<!-- Node1&#45;&gt;Node4 -->
<g id="edge6" class="edge"><title>Node1&#45;&gt;Node4</title>
<path fill="none" stroke="midnightblue" d="M967.47,-290.429C989.602,-254.271 1062.49,-135.186 1091.21,-88.2551"/>
<polygon fill="midnightblue" stroke="midnightblue" points="1094.26,-89.9899 1096.49,-79.6335 1088.29,-86.3355 1094.26,-89.9899"/>
</g>
<!-- Node5 -->
<g id="node9" class="node"><title>Node5</title>
<a xlink:href="BannerMessageHandler_8h.htm" target="_top" xlink:title="BannerMessageHandler.h">
<polygon fill="white" stroke="black" points="752,-232.5 752,-253.5 892,-253.5 892,-232.5 752,-232.5"/>
<text text-anchor="middle" x="822" y="-240.5" font-family="Helvetica,sans-Serif" font-size="10.00">BannerMessageHandler.h</text>
</a>
</g>
<!-- Node1&#45;&gt;Node5 -->
<g id="edge8" class="edge"><title>Node1&#45;&gt;Node5</title>
<path fill="none" stroke="midnightblue" d="M935.828,-290.497C913.727,-281.275 881.361,-267.769 856.787,-257.515"/>
<polygon fill="midnightblue" stroke="midnightblue" points="858.031,-254.242 847.454,-253.621 855.335,-260.702 858.031,-254.242"/>
</g>
<!-- Node19 -->
<g id="node51" class="node"><title>Node19</title>
<a xlink:href="Window_8h.htm" target="_top" xlink:title="Window.h">
<polygon fill="white" stroke="black" points="930,-116.5 930,-137.5 992,-137.5 992,-116.5 930,-116.5"/>
<text text-anchor="middle" x="961" y="-124.5" font-family="Helvetica,sans-Serif" font-size="10.00">Window.h</text>
</a>
</g>
<!-- Node1&#45;&gt;Node19 -->
<g id="edge64" class="edge"><title>Node1&#45;&gt;Node19</title>
<path fill="none" stroke="midnightblue" d="M961,-290.377C961,-262.293 961,-185.673 961,-148.203"/>
<polygon fill="midnightblue" stroke="midnightblue" points="964.5,-147.928 961,-137.928 957.5,-147.928 964.5,-147.928"/>
</g>
<!-- Node5&#45;&gt;Node2 -->
<g id="edge10" class="edge"><title>Node5&#45;&gt;Node2</title>
<path fill="none" stroke="midnightblue" d="M829.284,-232.372C835.099,-223.201 842.786,-209.362 846,-196 860.327,-136.438 835.4,-64.8279 821.055,-30.8103"/>
<polygon fill="midnightblue" stroke="midnightblue" points="824.206,-29.28 816.998,-21.515 817.79,-32.0802 824.206,-29.28"/>
</g>
<!-- Node5&#45;&gt;Node3 -->
<g id="edge12" class="edge"><title>Node5&#45;&gt;Node3</title>
<path fill="none" stroke="midnightblue" d="M826.173,-232.025C830.802,-218.225 836.889,-193.927 831,-174 820.982,-140.103 796.219,-106.868 779.507,-87.1532"/>
<polygon fill="midnightblue" stroke="midnightblue" points="782.11,-84.8132 772.904,-79.5692 776.831,-89.4096 782.11,-84.8132"/>
</g>
<!-- Node6 -->
<g id="node13" class="node"><title>Node6</title>
<polygon fill="white" stroke="#bfbfbf" points="767.5,-174.5 767.5,-195.5 822.5,-195.5 822.5,-174.5 767.5,-174.5"/>
<text text-anchor="middle" x="795" y="-182.5" font-family="Helvetica,sans-Serif" font-size="10.00">QObject</text>
</g>
<!-- Node5&#45;&gt;Node6 -->
<g id="edge14" class="edge"><title>Node5&#45;&gt;Node6</title>
<path fill="none" stroke="midnightblue" d="M817.048,-232.362C813.47,-224.677 808.532,-214.069 804.236,-204.84"/>
<polygon fill="midnightblue" stroke="midnightblue" points="807.314,-203.159 799.921,-195.571 800.968,-206.114 807.314,-203.159"/>
</g>
<!-- Node7 -->
<g id="node15" class="node"><title>Node7</title>
<a xlink:href="sptr_8h.htm" target="_top" xlink:title="sptr.h">
<polygon fill="white" stroke="black" points="-0.5,-58.5 -0.5,-79.5 42.5,-79.5 42.5,-58.5 -0.5,-58.5"/>
<text text-anchor="middle" x="21" y="-66.5" font-family="Helvetica,sans-Serif" font-size="10.00">sptr.h</text>
</a>
</g>
<!-- Node5&#45;&gt;Node7 -->
<g id="edge16" class="edge"><title>Node5&#45;&gt;Node7</title>
<path fill="none" stroke="midnightblue" d="M761.978,-232.434C662.752,-214.696 458.435,-177.021 287,-138 201.66,-118.575 102.033,-91.5572 52.4193,-77.8036"/>
<polygon fill="midnightblue" stroke="midnightblue" points="53.1866,-74.3843 42.6145,-75.0776 51.3115,-81.1285 53.1866,-74.3843"/>
</g>
<!-- Node9 -->
<g id="node20" class="node"><title>Node9</title>
<a xlink:href="SoundPlayerPool_8h.htm" target="_top" xlink:title="SoundPlayerPool.h">
<polygon fill="white" stroke="black" points="618,-174.5 618,-195.5 724,-195.5 724,-174.5 618,-174.5"/>
<text text-anchor="middle" x="671" y="-182.5" font-family="Helvetica,sans-Serif" font-size="10.00">SoundPlayerPool.h</text>
</a>
</g>
<!-- Node5&#45;&gt;Node9 -->
<g id="edge22" class="edge"><title>Node5&#45;&gt;Node9</title>
<path fill="none" stroke="midnightblue" d="M794.655,-232.497C770.358,-223.164 734.64,-209.445 707.832,-199.147"/>
<polygon fill="midnightblue" stroke="midnightblue" points="708.986,-195.842 698.396,-195.523 706.476,-202.376 708.986,-195.842"/>
</g>
<!-- Node7&#45;&gt;Node2 -->
<g id="edge18" class="edge"><title>Node7&#45;&gt;Node2</title>
<path fill="none" stroke="midnightblue" d="M42.6705,-64.9529C55.9916,-62.6002 73.433,-59.761 89,-58 345.393,-28.9957 655.115,-16.2959 768.077,-12.3941"/>
<polygon fill="midnightblue" stroke="midnightblue" points="768.51,-15.8814 778.386,-12.0437 768.272,-8.88549 768.51,-15.8814"/>
</g>
<!-- Node8 -->
<g id="node18" class="node"><title>Node8</title>
<polygon fill="white" stroke="#bfbfbf" points="363.5,-0.5 363.5,-21.5 404.5,-21.5 404.5,-0.5 363.5,-0.5"/>
<text text-anchor="middle" x="384" y="-8.5" font-family="Helvetica,sans-Serif" font-size="10.00">glib.h</text>
</g>
<!-- Node7&#45;&gt;Node8 -->
<g id="edge20" class="edge"><title>Node7&#45;&gt;Node8</title>
<path fill="none" stroke="midnightblue" d="M42.695,-61.582C47.0652,-60.2579 51.6522,-58.9879 56,-58 163.995,-33.4623 295.057,-19.2502 353.417,-13.7104"/>
<polygon fill="midnightblue" stroke="midnightblue" points="353.814,-17.1887 363.446,-12.7764 353.165,-10.2189 353.814,-17.1887"/>
</g>
<!-- Node9&#45;&gt;Node2 -->
<g id="edge24" class="edge"><title>Node9&#45;&gt;Node2</title>
<path fill="none" stroke="midnightblue" d="M708.984,-174.487C729.376,-167.158 753.615,-155.499 770,-138 797.902,-108.202 807.288,-59.4471 810.432,-31.8179"/>
<polygon fill="midnightblue" stroke="midnightblue" points="813.931,-31.9956 811.407,-21.7057 806.963,-31.3233 813.931,-31.9956"/>
</g>
<!-- Node9&#45;&gt;Node3 -->
<g id="edge28" class="edge"><title>Node9&#45;&gt;Node3</title>
<path fill="none" stroke="midnightblue" d="M664.817,-174.264C657.419,-159.851 647.395,-133.98 659,-116 663.296,-109.344 702.81,-92.6628 731.864,-81.0789"/>
<polygon fill="midnightblue" stroke="midnightblue" points="733.238,-84.2994 741.251,-77.3677 730.664,-77.7898 733.238,-84.2994"/>
</g>
<!-- Node9&#45;&gt;Node7 -->
<g id="edge32" class="edge"><title>Node9&#45;&gt;Node7</title>
<path fill="none" stroke="midnightblue" d="M617.695,-175.609C514.206,-157.356 278.855,-115.742 81,-80 71.7622,-78.3312 61.7282,-76.4993 52.5569,-74.8172"/>
<polygon fill="midnightblue" stroke="midnightblue" points="53.125,-71.3631 42.6571,-72.9985 51.8601,-78.2479 53.125,-71.3631"/>
</g>
<!-- Node10 -->
<g id="node23" class="node"><title>Node10</title>
<polygon fill="white" stroke="#bfbfbf" points="625.5,-58.5 625.5,-79.5 654.5,-79.5 654.5,-58.5 625.5,-58.5"/>
<text text-anchor="middle" x="640" y="-66.5" font-family="Helvetica,sans-Serif" font-size="10.00">list</text>
</g>
<!-- Node9&#45;&gt;Node10 -->
<g id="edge26" class="edge"><title>Node9&#45;&gt;Node10</title>
<path fill="none" stroke="midnightblue" d="M655.733,-174.196C645.169,-165.719 631.977,-152.886 626,-138 619.623,-122.118 624.409,-102.968 630.056,-88.8763"/>
<polygon fill="midnightblue" stroke="midnightblue" points="633.303,-90.1872 634.172,-79.628 626.908,-87.3409 633.303,-90.1872"/>
</g>
<!-- Node11 -->
<g id="node26" class="node"><title>Node11</title>
<polygon fill="white" stroke="#bfbfbf" points="668,-116.5 668,-137.5 746,-137.5 746,-116.5 668,-116.5"/>
<text text-anchor="middle" x="707" y="-124.5" font-family="Helvetica,sans-Serif" font-size="10.00">lunaservice.h</text>
</g>
<!-- Node9&#45;&gt;Node11 -->
<g id="edge30" class="edge"><title>Node9&#45;&gt;Node11</title>
<path fill="none" stroke="midnightblue" d="M677.603,-174.362C682.475,-166.513 689.238,-155.616 695.05,-146.253"/>
<polygon fill="midnightblue" stroke="midnightblue" points="698.139,-147.913 700.439,-137.571 692.191,-144.221 698.139,-147.913"/>
</g>
<!-- Node12 -->
<g id="node29" class="node"><title>Node12</title>
<a xlink:href="Timer_8h.htm" target="_top" xlink:title="Timer.h">
<polygon fill="white" stroke="black" points="672,-58.5 672,-79.5 724,-79.5 724,-58.5 672,-58.5"/>
<text text-anchor="middle" x="698" y="-66.5" font-family="Helvetica,sans-Serif" font-size="10.00">Timer.h</text>
</a>
</g>
<!-- Node9&#45;&gt;Node12 -->
<g id="edge34" class="edge"><title>Node9&#45;&gt;Node12</title>
<path fill="none" stroke="midnightblue" d="M707.041,-174.481C724.806,-167.274 744.603,-155.731 755,-138 766.57,-118.268 745.984,-98.4123 726.399,-85.1004"/>
<polygon fill="midnightblue" stroke="midnightblue" points="728.186,-82.0886 717.877,-79.6422 724.41,-87.9831 728.186,-82.0886"/>
</g>
<!-- Node14 -->
<g id="node35" class="node"><title>Node14</title>
<a xlink:href="SoundPlayer_8h.htm" target="_top" xlink:title="SoundPlayer.h">
<polygon fill="white" stroke="black" points="451.5,-116.5 451.5,-137.5 536.5,-137.5 536.5,-116.5 451.5,-116.5"/>
<text text-anchor="middle" x="494" y="-124.5" font-family="Helvetica,sans-Serif" font-size="10.00">SoundPlayer.h</text>
</a>
</g>
<!-- Node9&#45;&gt;Node14 -->
<g id="edge42" class="edge"><title>Node9&#45;&gt;Node14</title>
<path fill="none" stroke="midnightblue" d="M638.947,-174.497C610.091,-165.041 567.494,-151.083 535.939,-140.743"/>
<polygon fill="midnightblue" stroke="midnightblue" points="536.706,-137.311 526.113,-137.523 534.526,-143.963 536.706,-137.311"/>
</g>
<!-- Node12&#45;&gt;Node2 -->
<g id="edge36" class="edge"><title>Node12&#45;&gt;Node2</title>
<path fill="none" stroke="midnightblue" d="M718.645,-58.4966C736.37,-49.4786 762.145,-36.3649 782.123,-26.2006"/>
<polygon fill="midnightblue" stroke="midnightblue" points="783.798,-29.2753 791.124,-21.6212 780.624,-23.0364 783.798,-29.2753"/>
</g>
<!-- Node12&#45;&gt;Node8 -->
<g id="edge38" class="edge"><title>Node12&#45;&gt;Node8</title>
<path fill="none" stroke="midnightblue" d="M671.735,-60.3191C668.804,-59.4777 665.849,-58.6842 663,-58 574.043,-36.6355 466.845,-21.4801 415.036,-14.8077"/>
<polygon fill="midnightblue" stroke="midnightblue" points="415.209,-11.3017 404.847,-13.5135 414.327,-18.2459 415.209,-11.3017"/>
</g>
<!-- Node13 -->
<g id="node33" class="node"><title>Node13</title>
<polygon fill="white" stroke="#bfbfbf" points="932,-0.5 932,-21.5 982,-21.5 982,-0.5 932,-0.5"/>
<text text-anchor="middle" x="957" y="-8.5" font-family="Helvetica,sans-Serif" font-size="10.00">stdint.h</text>
</g>
<!-- Node12&#45;&gt;Node13 -->
<g id="edge40" class="edge"><title>Node12&#45;&gt;Node13</title>
<path fill="none" stroke="midnightblue" d="M724.293,-60.4336C727.219,-59.5708 730.165,-58.741 733,-58 799.199,-40.6965 877.689,-25.4062 921.984,-17.2496"/>
<polygon fill="midnightblue" stroke="midnightblue" points="922.746,-20.6685 931.954,-15.4281 921.488,-13.7825 922.746,-20.6685"/>
</g>
<!-- Node14&#45;&gt;Node2 -->
<g id="edge44" class="edge"><title>Node14&#45;&gt;Node2</title>
<path fill="none" stroke="midnightblue" d="M513.303,-116.468C530.57,-107.013 556.546,-92.7061 579,-80 595.984,-70.389 598.882,-65.2504 617,-58 667.115,-37.9452 728.033,-24.9452 768.298,-17.8093"/>
<polygon fill="midnightblue" stroke="midnightblue" points="769.065,-21.2289 778.323,-16.0783 767.874,-14.331 769.065,-21.2289"/>
</g>
<!-- Node14&#45;&gt;Node3 -->
<g id="edge46" class="edge"><title>Node14&#45;&gt;Node3</title>
<path fill="none" stroke="midnightblue" d="M536.599,-118.634C595.78,-107.009 698.707,-86.7872 731.387,-79.7295"/>
<polygon fill="midnightblue" stroke="midnightblue" points="732.228,-83.1274 741.175,-77.4533 730.642,-76.3094 732.228,-83.1274"/>
</g>
<!-- Node14&#45;&gt;Node7 -->
<g id="edge54" class="edge"><title>Node14&#45;&gt;Node7</title>
<path fill="none" stroke="midnightblue" d="M451.395,-123.509C356.651,-115.571 130.959,-95.6407 56,-80 54.9089,-79.7723 53.8033,-79.5244 52.6905,-79.26"/>
<polygon fill="midnightblue" stroke="midnightblue" points="53.236,-75.7815 42.6683,-76.5402 51.4026,-82.5371 53.236,-75.7815"/>
</g>
<!-- Node14&#45;&gt;Node8 -->
<g id="edge50" class="edge"><title>Node14&#45;&gt;Node8</title>
<path fill="none" stroke="midnightblue" d="M451.398,-123.577C349.832,-115.214 100.976,-93.4458 89,-80 82.4968,-72.6984 82.6532,-65.438 89,-58 106.05,-38.0181 280.878,-20.2266 353.073,-13.6737"/>
<polygon fill="midnightblue" stroke="midnightblue" points="353.696,-17.1319 363.344,-12.7545 353.072,-10.1598 353.696,-17.1319"/>
</g>
<!-- Node14&#45;&gt;Node10 -->
<g id="edge48" class="edge"><title>Node14&#45;&gt;Node10</title>
<path fill="none" stroke="midnightblue" d="M520.439,-116.497C547.571,-105.718 589.43,-89.0895 615.739,-78.638"/>
<polygon fill="midnightblue" stroke="midnightblue" points="617.322,-81.7753 625.323,-74.8306 614.737,-75.2699 617.322,-81.7753"/>
</g>
<!-- Node14&#45;&gt;Node12 -->
<g id="edge62" class="edge"><title>Node14&#45;&gt;Node12</title>
<path fill="none" stroke="midnightblue" d="M533.376,-116.447C565.55,-107.736 612.443,-94.8378 661.763,-80.3095"/>
<polygon fill="midnightblue" stroke="midnightblue" points="663.059,-83.576 671.655,-77.3828 661.073,-76.8635 663.059,-83.576"/>
</g>
<!-- Node15 -->
<g id="node41" class="node"><title>Node15</title>
<polygon fill="white" stroke="#bfbfbf" points="98,-58.5 98,-79.5 160,-79.5 160,-58.5 98,-58.5"/>
<text text-anchor="middle" x="129" y="-66.5" font-family="Helvetica,sans-Serif" font-size="10.00">pthread.h</text>
</g>
<!-- Node14&#45;&gt;Node15 -->
<g id="edge52" class="edge"><title>Node14&#45;&gt;Node15</title>
<path fill="none" stroke="midnightblue" d="M451.375,-122.554C390.873,-115.867 276.503,-101.843 170.276,-80.0806"/>
<polygon fill="midnightblue" stroke="midnightblue" points="170.856,-76.6264 160.353,-78.0198 169.432,-83.4801 170.856,-76.6264"/>
</g>
<!-- Node16 -->
<g id="node44" class="node"><title>Node16</title>
<polygon fill="white" stroke="#bfbfbf" points="177.5,-58.5 177.5,-79.5 306.5,-79.5 306.5,-58.5 177.5,-58.5"/>
<text text-anchor="middle" x="242" y="-66.5" font-family="Helvetica,sans-Serif" font-size="10.00">media/LunaConnector.h</text>
</g>
<!-- Node14&#45;&gt;Node16 -->
<g id="edge56" class="edge"><title>Node14&#45;&gt;Node16</title>
<path fill="none" stroke="midnightblue" d="M451.252,-117.161C408.995,-107.435 344.128,-92.5056 297.825,-81.8485"/>
<polygon fill="midnightblue" stroke="midnightblue" points="298.479,-78.4076 287.948,-79.5754 296.908,-85.2292 298.479,-78.4076"/>
</g>
<!-- Node17 -->
<g id="node46" class="node"><title>Node17</title>
<polygon fill="white" stroke="#bfbfbf" points="323.5,-58.5 323.5,-79.5 436.5,-79.5 436.5,-58.5 323.5,-58.5"/>
<text text-anchor="middle" x="380" y="-66.5" font-family="Helvetica,sans-Serif" font-size="10.00">media/MediaClient.h</text>
</g>
<!-- Node14&#45;&gt;Node17 -->
<g id="edge58" class="edge"><title>Node14&#45;&gt;Node17</title>
<path fill="none" stroke="midnightblue" d="M473.355,-116.497C455.63,-107.479 429.855,-94.3649 409.877,-84.2006"/>
<polygon fill="midnightblue" stroke="midnightblue" points="411.376,-81.0364 400.876,-79.6212 408.202,-87.2753 411.376,-81.0364"/>
</g>
<!-- Node18 -->
<g id="node48" class="node"><title>Node18</title>
<polygon fill="white" stroke="#bfbfbf" points="454,-58.5 454,-79.5 570,-79.5 570,-58.5 454,-58.5"/>
<text text-anchor="middle" x="512" y="-66.5" font-family="Helvetica,sans-Serif" font-size="10.00">media/MediaPlayer.h</text>
</g>
<!-- Node14&#45;&gt;Node18 -->
<g id="edge60" class="edge"><title>Node14&#45;&gt;Node18</title>
<path fill="none" stroke="midnightblue" d="M497.301,-116.362C499.661,-108.758 502.909,-98.294 505.751,-89.1349"/>
<polygon fill="midnightblue" stroke="midnightblue" points="509.098,-90.1587 508.719,-79.5707 502.413,-88.0839 509.098,-90.1587"/>
</g>
<!-- Node19&#45;&gt;Node2 -->
<g id="edge66" class="edge"><title>Node19&#45;&gt;Node2</title>
<path fill="none" stroke="midnightblue" d="M953.674,-116.058C943.451,-101.411 923.703,-75.2765 902,-58 885.593,-44.9393 864.998,-33.8674 847.651,-25.7564"/>
<polygon fill="midnightblue" stroke="midnightblue" points="848.949,-22.5018 838.396,-21.5611 846.059,-28.8774 848.949,-22.5018"/>
</g>
<!-- Node19&#45;&gt;Node3 -->
<g id="edge70" class="edge"><title>Node19&#45;&gt;Node3</title>
<path fill="none" stroke="midnightblue" d="M929.626,-117.81C892.648,-106.978 831.556,-89.0821 794.516,-78.2319"/>
<polygon fill="midnightblue" stroke="midnightblue" points="795.327,-74.8225 784.746,-75.3701 793.359,-81.5402 795.327,-74.8225"/>
</g>
<!-- Node19&#45;&gt;Node4 -->
<g id="edge74" class="edge"><title>Node19&#45;&gt;Node4</title>
<path fill="none" stroke="midnightblue" d="M986.715,-116.497C1009.29,-107.275 1042.36,-93.7695 1067.46,-83.5153"/>
<polygon fill="midnightblue" stroke="midnightblue" points="1069.06,-86.6427 1077,-79.6212 1066.42,-80.1624 1069.06,-86.6427"/>
</g>
<!-- Node19&#45;&gt;Node8 -->
<g id="edge72" class="edge"><title>Node19&#45;&gt;Node8</title>
<path fill="none" stroke="midnightblue" d="M940.678,-116.497C909.703,-100.991 848.42,-72.2728 793,-58 655.028,-22.467 483.943,-13.7736 414.965,-11.6661"/>
<polygon fill="midnightblue" stroke="midnightblue" points="414.886,-8.16256 404.792,-11.3812 414.69,-15.1598 414.886,-8.16256"/>
</g>
<!-- Node19&#45;&gt;Node13 -->
<g id="edge68" class="edge"><title>Node19&#45;&gt;Node13</title>
<path fill="none" stroke="midnightblue" d="M976.375,-116.477C993.242,-103.521 1016.71,-80.4646 1007,-58 1001.88,-46.1595 992.146,-35.9269 982.617,-28.0602"/>
<polygon fill="midnightblue" stroke="midnightblue" points="984.483,-25.0807 974.417,-21.7752 980.224,-30.6365 984.483,-25.0807"/>
</g>
<!-- Node20 -->
<g id="node58" class="node"><title>Node20</title>
<polygon fill="white" stroke="#bfbfbf" points="953.5,-58.5 953.5,-79.5 998.5,-79.5 998.5,-58.5 953.5,-58.5"/>
<text text-anchor="middle" x="976" y="-66.5" font-family="Helvetica,sans-Serif" font-size="10.00">QSize</text>
</g>
<!-- Node19&#45;&gt;Node20 -->
<g id="edge76" class="edge"><title>Node19&#45;&gt;Node20</title>
<path fill="none" stroke="midnightblue" d="M963.751,-116.362C965.697,-108.84 968.366,-98.5187 970.716,-89.4308"/>
<polygon fill="midnightblue" stroke="midnightblue" points="974.151,-90.1285 973.266,-79.5707 967.374,-88.3758 974.151,-90.1285"/>
</g>
</g>
</svg>
