<?xml version="1.0" encoding="UTF-8" standalone="no"?>
<!DOCTYPE svg PUBLIC "-//W3C//DTD SVG 1.1//EN"
 "http://www.w3.org/Graphics/SVG/1.1/DTD/svg11.dtd">
<!-- Generated by graphviz version 2.26.3 (20100126.1600)
 -->
<!-- Title: G Pages: 1 -->
<svg width="2199pt" height="320pt"
 viewBox="0.00 0.00 2199.00 320.00" xmlns="http://www.w3.org/2000/svg" xmlns:xlink="http://www.w3.org/1999/xlink">
<g id="graph1" class="graph" transform="scale(1 1) rotate(0) translate(4 316)">
<title>G</title>
<polygon fill="white" stroke="white" points="-4,5 -4,-316 2196,-316 2196,5 -4,5"/>
<!-- Node1 -->
<g id="node1" class="node"><title>Node1</title>
<polygon fill="#bfbfbf" stroke="black" points="1568,-290.5 1568,-311.5 1684,-311.5 1684,-290.5 1568,-290.5"/>
<text text-anchor="middle" x="1626" y="-298.5" font-family="Helvetica,sans-Serif" font-size="10.00">BootupAnimation.cpp</text>
</g>
<!-- Node2 -->
<g id="node3" class="node"><title>Node2</title>
<a xlink:href="Common_8h.htm" target="_top" xlink:title="Common.h">
<polygon fill="white" stroke="black" points="1271.5,-0.5 1271.5,-21.5 1338.5,-21.5 1338.5,-0.5 1271.5,-0.5"/>
<text text-anchor="middle" x="1305" y="-8.5" font-family="Helvetica,sans-Serif" font-size="10.00">Common.h</text>
</a>
</g>
<!-- Node1&#45;&gt;Node2 -->
<g id="edge2" class="edge"><title>Node1&#45;&gt;Node2</title>
<path fill="none" stroke="midnightblue" d="M1622.44,-290.415C1613.54,-265.664 1587.82,-203.846 1544,-174 1476.93,-128.316 1433.51,-181.493 1365,-138 1327.94,-114.474 1313.33,-61.2425 1307.93,-31.7112"/>
<polygon fill="midnightblue" stroke="midnightblue" points="1311.35,-30.9656 1306.28,-21.6649 1304.44,-32.0999 1311.35,-30.9656"/>
</g>
<!-- Node3 -->
<g id="node5" class="node"><title>Node3</title>
<a xlink:href="BootupAnimation_8h.htm" target="_top" xlink:title="BootupAnimation.h">
<polygon fill="white" stroke="black" points="610,-58.5 610,-79.5 714,-79.5 714,-58.5 610,-58.5"/>
<text text-anchor="middle" x="662" y="-66.5" font-family="Helvetica,sans-Serif" font-size="10.00">BootupAnimation.h</text>
</a>
</g>
<!-- Node1&#45;&gt;Node3 -->
<g id="edge4" class="edge"><title>Node1&#45;&gt;Node3</title>
<path fill="none" stroke="midnightblue" d="M1567.88,-300.258C1393.81,-297.668 884.515,-287.301 818,-254 744.389,-217.146 692.071,-128.328 671.575,-88.6828"/>
<polygon fill="midnightblue" stroke="midnightblue" points="674.579,-86.8681 666.953,-79.5142 668.329,-90.0193 674.579,-86.8681"/>
</g>
<!-- Node15 -->
<g id="node30" class="node"><title>Node15</title>
<polygon fill="white" stroke="#bfbfbf" points="1629,-232.5 1629,-253.5 1673,-253.5 1673,-232.5 1629,-232.5"/>
<text text-anchor="middle" x="1651" y="-240.5" font-family="Helvetica,sans-Serif" font-size="10.00">time.h</text>
</g>
<!-- Node1&#45;&gt;Node15 -->
<g id="edge30" class="edge"><title>Node1&#45;&gt;Node15</title>
<path fill="none" stroke="midnightblue" d="M1630.59,-290.362C1633.9,-282.677 1638.47,-272.069 1642.45,-262.84"/>
<polygon fill="midnightblue" stroke="midnightblue" points="1645.7,-264.139 1646.44,-253.571 1639.27,-261.368 1645.7,-264.139"/>
</g>
<!-- Node16 -->
<g id="node32" class="node"><title>Node16</title>
<polygon fill="white" stroke="#bfbfbf" points="1691,-232.5 1691,-253.5 1741,-253.5 1741,-232.5 1691,-232.5"/>
<text text-anchor="middle" x="1716" y="-240.5" font-family="Helvetica,sans-Serif" font-size="10.00">errno.h</text>
</g>
<!-- Node1&#45;&gt;Node16 -->
<g id="edge32" class="edge"><title>Node1&#45;&gt;Node16</title>
<path fill="none" stroke="midnightblue" d="M1642.51,-290.362C1656.08,-281.614 1675.53,-269.079 1691.01,-259.101"/>
<polygon fill="midnightblue" stroke="midnightblue" points="1693.09,-261.93 1699.6,-253.571 1689.3,-256.046 1693.09,-261.93"/>
</g>
<!-- Node17 -->
<g id="node34" class="node"><title>Node17</title>
<polygon fill="white" stroke="#bfbfbf" points="1758.5,-232.5 1758.5,-253.5 1817.5,-253.5 1817.5,-232.5 1758.5,-232.5"/>
<text text-anchor="middle" x="1788" y="-240.5" font-family="Helvetica,sans-Serif" font-size="10.00">QPainter</text>
</g>
<!-- Node1&#45;&gt;Node17 -->
<g id="edge34" class="edge"><title>Node1&#45;&gt;Node17</title>
<path fill="none" stroke="midnightblue" d="M1655.34,-290.497C1681.52,-281.123 1720.06,-267.324 1748.86,-257.012"/>
<polygon fill="midnightblue" stroke="midnightblue" points="1750.37,-260.189 1758.61,-253.523 1748.01,-253.599 1750.37,-260.189"/>
</g>
<!-- Node18 -->
<g id="node36" class="node"><title>Node18</title>
<polygon fill="white" stroke="#bfbfbf" points="1835,-232.5 1835,-253.5 1939,-253.5 1939,-232.5 1835,-232.5"/>
<text text-anchor="middle" x="1887" y="-240.5" font-family="Helvetica,sans-Serif" font-size="10.00">PGFallbackFonts.h</text>
</g>
<!-- Node1&#45;&gt;Node18 -->
<g id="edge36" class="edge"><title>Node1&#45;&gt;Node18</title>
<path fill="none" stroke="midnightblue" d="M1673.27,-290.497C1717.2,-280.734 1782.73,-266.172 1829.64,-255.747"/>
<polygon fill="midnightblue" stroke="midnightblue" points="1830.64,-259.109 1839.65,-253.523 1829.13,-252.276 1830.64,-259.109"/>
</g>
<!-- Node19 -->
<g id="node38" class="node"><title>Node19</title>
<polygon fill="white" stroke="#bfbfbf" points="880.5,-174.5 880.5,-195.5 957.5,-195.5 957.5,-174.5 880.5,-174.5"/>
<text text-anchor="middle" x="919" y="-182.5" font-family="Helvetica,sans-Serif" font-size="10.00">PGContext.h</text>
</g>
<!-- Node1&#45;&gt;Node19 -->
<g id="edge38" class="edge"><title>Node1&#45;&gt;Node19</title>
<path fill="none" stroke="midnightblue" d="M1567.99,-292.764C1453.51,-276.276 1190.58,-237.243 971,-196 969.912,-195.796 968.811,-195.586 967.702,-195.373"/>
<polygon fill="midnightblue" stroke="midnightblue" points="968.07,-191.878 957.58,-193.366 966.708,-198.744 968.07,-191.878"/>
</g>
<!-- Node20 -->
<g id="node40" class="node"><title>Node20</title>
<polygon fill="white" stroke="#bfbfbf" points="1957,-232.5 1957,-253.5 2033,-253.5 2033,-232.5 1957,-232.5"/>
<text text-anchor="middle" x="1995" y="-240.5" font-family="Helvetica,sans-Serif" font-size="10.00">PGSurface.h</text>
</g>
<!-- Node1&#45;&gt;Node20 -->
<g id="edge40" class="edge"><title>Node1&#45;&gt;Node20</title>
<path fill="none" stroke="midnightblue" d="M1684.12,-294.027C1746.65,-286.186 1849.19,-272.352 1946.8,-254.112"/>
<polygon fill="midnightblue" stroke="midnightblue" points="1947.66,-257.512 1956.84,-252.218 1946.36,-250.633 1947.66,-257.512"/>
</g>
<!-- Node21 -->
<g id="node42" class="node"><title>Node21</title>
<polygon fill="white" stroke="#bfbfbf" points="2050.5,-232.5 2050.5,-253.5 2111.5,-253.5 2111.5,-232.5 2050.5,-232.5"/>
<text text-anchor="middle" x="2081" y="-240.5" font-family="Helvetica,sans-Serif" font-size="10.00">PGFont.h</text>
</g>
<!-- Node1&#45;&gt;Node21 -->
<g id="edge42" class="edge"><title>Node1&#45;&gt;Node21</title>
<path fill="none" stroke="midnightblue" d="M1684.33,-297.41C1763.25,-291.89 1908.45,-279.394 2040.56,-254.048"/>
<polygon fill="midnightblue" stroke="midnightblue" points="2041.31,-257.469 2050.46,-252.121 2039.97,-250.598 2041.31,-257.469"/>
</g>
<!-- Node22 -->
<g id="node44" class="node"><title>Node22</title>
<polygon fill="white" stroke="#bfbfbf" points="2129,-232.5 2129,-253.5 2191,-253.5 2191,-232.5 2129,-232.5"/>
<text text-anchor="middle" x="2160" y="-240.5" font-family="Helvetica,sans-Serif" font-size="10.00">sys/wait.h</text>
</g>
<!-- Node1&#45;&gt;Node22 -->
<g id="edge44" class="edge"><title>Node1&#45;&gt;Node22</title>
<path fill="none" stroke="midnightblue" d="M1684.25,-298.732C1775.19,-294.474 1956.46,-283.11 2118.52,-254.018"/>
<polygon fill="midnightblue" stroke="midnightblue" points="2119.47,-257.404 2128.68,-252.167 2118.21,-250.517 2119.47,-257.404"/>
</g>
<!-- Node23 -->
<g id="node46" class="node"><title>Node23</title>
<a xlink:href="HostBase_8h.htm" target="_top" xlink:title="HostBase.h">
<polygon fill="white" stroke="black" points="1332.5,-232.5 1332.5,-253.5 1403.5,-253.5 1403.5,-232.5 1332.5,-232.5"/>
<text text-anchor="middle" x="1368" y="-240.5" font-family="Helvetica,sans-Serif" font-size="10.00">HostBase.h</text>
</a>
</g>
<!-- Node1&#45;&gt;Node23 -->
<g id="edge46" class="edge"><title>Node1&#45;&gt;Node23</title>
<path fill="none" stroke="midnightblue" d="M1579.28,-290.497C1532.2,-279.913 1460.03,-263.688 1413.42,-253.21"/>
<polygon fill="midnightblue" stroke="midnightblue" points="1414.11,-249.78 1403.59,-251.001 1412.58,-256.609 1414.11,-249.78"/>
</g>
<!-- Node42 -->
<g id="node103" class="node"><title>Node42</title>
<a xlink:href="Localization_8h.htm" target="_top" xlink:title="Localization.h">
<polygon fill="white" stroke="black" points="774.5,-116.5 774.5,-137.5 855.5,-137.5 855.5,-116.5 774.5,-116.5"/>
<text text-anchor="middle" x="815" y="-124.5" font-family="Helvetica,sans-Serif" font-size="10.00">Localization.h</text>
</a>
</g>
<!-- Node1&#45;&gt;Node42 -->
<g id="edge122" class="edge"><title>Node1&#45;&gt;Node42</title>
<path fill="none" stroke="midnightblue" d="M1567.92,-299.471C1390.54,-294.549 866.29,-278.024 839,-254 808.965,-227.56 809.129,-176.33 811.993,-147.677"/>
<polygon fill="midnightblue" stroke="midnightblue" points="815.489,-147.918 813.212,-137.571 808.539,-147.08 815.489,-147.918"/>
</g>
<!-- Node46 -->
<g id="node115" class="node"><title>Node46</title>
<a xlink:href="Logging_8h.htm" target="_top" xlink:title="Logging.h">
<polygon fill="white" stroke="black" points="1853.5,-116.5 1853.5,-137.5 1916.5,-137.5 1916.5,-116.5 1853.5,-116.5"/>
<text text-anchor="middle" x="1885" y="-124.5" font-family="Helvetica,sans-Serif" font-size="10.00">Logging.h</text>
</a>
</g>
<!-- Node1&#45;&gt;Node46 -->
<g id="edge138" class="edge"><title>Node1&#45;&gt;Node46</title>
<path fill="none" stroke="midnightblue" d="M1620.87,-290.277C1614.58,-275.403 1606.35,-248.483 1620,-232 1674.83,-165.811 1733.2,-234.579 1810,-196 1834.37,-183.759 1856.58,-161.245 1870.4,-145.267"/>
<polygon fill="midnightblue" stroke="midnightblue" points="1873.09,-147.508 1876.83,-137.595 1867.72,-143.012 1873.09,-147.508"/>
</g>
<!-- Node48 -->
<g id="node122" class="node"><title>Node48</title>
<a xlink:href="Settings_8h.htm" target="_top" xlink:title="Settings.h">
<polygon fill="white" stroke="black" points="994.5,-58.5 994.5,-79.5 1057.5,-79.5 1057.5,-58.5 994.5,-58.5"/>
<text text-anchor="middle" x="1026" y="-66.5" font-family="Helvetica,sans-Serif" font-size="10.00">Settings.h</text>
</a>
</g>
<!-- Node1&#45;&gt;Node48 -->
<g id="edge148" class="edge"><title>Node1&#45;&gt;Node48</title>
<path fill="none" stroke="midnightblue" d="M1567.82,-297.34C1398.73,-286.101 916.482,-249.576 872,-196 831.717,-147.481 926.516,-103.769 984.71,-82.5457"/>
<polygon fill="midnightblue" stroke="midnightblue" points="986.163,-85.7437 994.409,-79.0916 983.815,-79.1494 986.163,-85.7437"/>
</g>
<!-- Node3&#45;&gt;Node2 -->
<g id="edge6" class="edge"><title>Node3&#45;&gt;Node2</title>
<path fill="none" stroke="midnightblue" d="M714.258,-64.823C810.838,-57.0227 1023.78,-39.4471 1203,-22 1222.21,-20.1304 1243.42,-17.8731 1261.51,-15.8911"/>
<polygon fill="midnightblue" stroke="midnightblue" points="1261.93,-19.3667 1271.48,-14.7919 1261.16,-12.4089 1261.93,-19.3667"/>
</g>
<!-- Node4 -->
<g id="node8" class="node"><title>Node4</title>
<polygon fill="white" stroke="#bfbfbf" points="1515.5,-0.5 1515.5,-21.5 1556.5,-21.5 1556.5,-0.5 1515.5,-0.5"/>
<text text-anchor="middle" x="1536" y="-8.5" font-family="Helvetica,sans-Serif" font-size="10.00">glib.h</text>
</g>
<!-- Node3&#45;&gt;Node4 -->
<g id="edge8" class="edge"><title>Node3&#45;&gt;Node4</title>
<path fill="none" stroke="midnightblue" d="M714.055,-65.5455C877.243,-54.7161 1375.64,-21.6418 1505.04,-13.0545"/>
<polygon fill="midnightblue" stroke="midnightblue" points="1505.65,-16.5218 1515.4,-12.3672 1505.19,-9.53716 1505.65,-16.5218"/>
</g>
<!-- Node5 -->
<g id="node10" class="node"><title>Node5</title>
<polygon fill="white" stroke="#bfbfbf" points="826,-0.5 826,-21.5 872,-21.5 872,-0.5 826,-0.5"/>
<text text-anchor="middle" x="849" y="-8.5" font-family="Helvetica,sans-Serif" font-size="10.00">vector</text>
</g>
<!-- Node3&#45;&gt;Node5 -->
<g id="edge10" class="edge"><title>Node3&#45;&gt;Node5</title>
<path fill="none" stroke="midnightblue" d="M698.134,-58.4513C727.593,-49.7604 770.491,-36.8995 816.428,-22.1147"/>
<polygon fill="midnightblue" stroke="midnightblue" points="817.523,-25.4388 825.962,-19.0323 815.37,-18.7783 817.523,-25.4388"/>
</g>
<!-- Node6 -->
<g id="node12" class="node"><title>Node6</title>
<polygon fill="white" stroke="#bfbfbf" points="889.5,-0.5 889.5,-21.5 932.5,-21.5 932.5,-0.5 889.5,-0.5"/>
<text text-anchor="middle" x="911" y="-8.5" font-family="Helvetica,sans-Serif" font-size="10.00">string</text>
</g>
<!-- Node3&#45;&gt;Node6 -->
<g id="edge12" class="edge"><title>Node3&#45;&gt;Node6</title>
<path fill="none" stroke="midnightblue" d="M714.28,-59.9137C756.702,-52.0606 818.149,-39.6001 879.626,-22.1416"/>
<polygon fill="midnightblue" stroke="midnightblue" points="880.851,-25.4308 889.49,-19.2966 878.911,-18.705 880.851,-25.4308"/>
</g>
<!-- Node7 -->
<g id="node14" class="node"><title>Node7</title>
<polygon fill="white" stroke="#bfbfbf" points="-0.5,-0.5 -0.5,-21.5 54.5,-21.5 54.5,-0.5 -0.5,-0.5"/>
<text text-anchor="middle" x="27" y="-8.5" font-family="Helvetica,sans-Serif" font-size="10.00">QObject</text>
</g>
<!-- Node3&#45;&gt;Node7 -->
<g id="edge14" class="edge"><title>Node3&#45;&gt;Node7</title>
<path fill="none" stroke="midnightblue" d="M609.913,-66.3759C487.837,-59.9968 185.081,-42.7889 64.8006,-21.9664"/>
<polygon fill="midnightblue" stroke="midnightblue" points="65.223,-18.4859 54.7576,-20.1367 63.9683,-25.3725 65.223,-18.4859"/>
</g>
<!-- Node8 -->
<g id="node16" class="node"><title>Node8</title>
<polygon fill="white" stroke="#bfbfbf" points="72,-0.5 72,-21.5 130,-21.5 130,-0.5 72,-0.5"/>
<text text-anchor="middle" x="101" y="-8.5" font-family="Helvetica,sans-Serif" font-size="10.00">QWidget</text>
</g>
<!-- Node3&#45;&gt;Node8 -->
<g id="edge16" class="edge"><title>Node3&#45;&gt;Node8</title>
<path fill="none" stroke="midnightblue" d="M609.956,-67.6287C517.163,-64.4668 317.063,-54.4058 140.322,-21.9569"/>
<polygon fill="midnightblue" stroke="midnightblue" points="140.796,-18.485 130.324,-20.0924 139.513,-25.3664 140.796,-18.485"/>
</g>
<!-- Node9 -->
<g id="node18" class="node"><title>Node9</title>
<polygon fill="white" stroke="#bfbfbf" points="147.5,-0.5 147.5,-21.5 206.5,-21.5 206.5,-0.5 147.5,-0.5"/>
<text text-anchor="middle" x="177" y="-8.5" font-family="Helvetica,sans-Serif" font-size="10.00">QPointer</text>
</g>
<!-- Node3&#45;&gt;Node9 -->
<g id="edge18" class="edge"><title>Node3&#45;&gt;Node9</title>
<path fill="none" stroke="midnightblue" d="M609.935,-66.52C527.984,-61.963 363.873,-50.196 216.854,-22.1131"/>
<polygon fill="midnightblue" stroke="midnightblue" points="217.232,-18.6212 206.749,-20.1513 215.898,-25.4929 217.232,-18.6212"/>
</g>
<!-- Node10 -->
<g id="node20" class="node"><title>Node10</title>
<polygon fill="white" stroke="#bfbfbf" points="224,-0.5 224,-21.5 322,-21.5 322,-0.5 224,-0.5"/>
<text text-anchor="middle" x="273" y="-8.5" font-family="Helvetica,sans-Serif" font-size="10.00">QGraphicsObject</text>
</g>
<!-- Node3&#45;&gt;Node10 -->
<g id="edge20" class="edge"><title>Node3&#45;&gt;Node10</title>
<path fill="none" stroke="midnightblue" d="M609.716,-62.338C546.422,-54.1033 436.352,-39.2411 332.089,-22.1254"/>
<polygon fill="midnightblue" stroke="midnightblue" points="332.456,-18.6387 322.019,-20.4622 331.315,-25.5451 332.456,-18.6387"/>
</g>
<!-- Node11 -->
<g id="node22" class="node"><title>Node11</title>
<polygon fill="white" stroke="#bfbfbf" points="340,-0.5 340,-21.5 452,-21.5 452,-0.5 340,-0.5"/>
<text text-anchor="middle" x="396" y="-8.5" font-family="Helvetica,sans-Serif" font-size="10.00">QPropertyAnimation</text>
</g>
<!-- Node3&#45;&gt;Node11 -->
<g id="edge22" class="edge"><title>Node3&#45;&gt;Node11</title>
<path fill="none" stroke="midnightblue" d="M613.829,-58.4966C568.962,-48.7136 501.99,-34.1107 454.162,-23.6819"/>
<polygon fill="midnightblue" stroke="midnightblue" points="454.777,-20.2339 444.261,-21.5231 453.286,-27.0732 454.777,-20.2339"/>
</g>
<!-- Node12 -->
<g id="node24" class="node"><title>Node12</title>
<polygon fill="white" stroke="#bfbfbf" points="470,-0.5 470,-21.5 606,-21.5 606,-0.5 470,-0.5"/>
<text text-anchor="middle" x="538" y="-8.5" font-family="Helvetica,sans-Serif" font-size="10.00">QParallelAnimationGroup</text>
</g>
<!-- Node3&#45;&gt;Node12 -->
<g id="edge24" class="edge"><title>Node3&#45;&gt;Node12</title>
<path fill="none" stroke="midnightblue" d="M639.545,-58.4966C620.09,-49.397 591.72,-36.1273 569.909,-25.9253"/>
<polygon fill="midnightblue" stroke="midnightblue" points="571.248,-22.6878 560.707,-21.6212 568.283,-29.0285 571.248,-22.6878"/>
</g>
<!-- Node13 -->
<g id="node26" class="node"><title>Node13</title>
<polygon fill="white" stroke="#bfbfbf" points="623.5,-0.5 623.5,-21.5 700.5,-21.5 700.5,-0.5 623.5,-0.5"/>
<text text-anchor="middle" x="662" y="-8.5" font-family="Helvetica,sans-Serif" font-size="10.00">QTextLayout</text>
</g>
<!-- Node3&#45;&gt;Node13 -->
<g id="edge26" class="edge"><title>Node3&#45;&gt;Node13</title>
<path fill="none" stroke="midnightblue" d="M662,-58.3619C662,-50.9219 662,-40.7427 662,-31.7276"/>
<polygon fill="midnightblue" stroke="midnightblue" points="665.5,-31.5706 662,-21.5707 658.5,-31.5707 665.5,-31.5706"/>
</g>
<!-- Node14 -->
<g id="node28" class="node"><title>Node14</title>
<polygon fill="white" stroke="#bfbfbf" points="717.5,-0.5 717.5,-21.5 808.5,-21.5 808.5,-0.5 717.5,-0.5"/>
<text text-anchor="middle" x="763" y="-8.5" font-family="Helvetica,sans-Serif" font-size="10.00">QSocketNotifier</text>
</g>
<!-- Node3&#45;&gt;Node14 -->
<g id="edge28" class="edge"><title>Node3&#45;&gt;Node14</title>
<path fill="none" stroke="midnightblue" d="M680.525,-58.3619C695.901,-49.532 717.996,-36.844 735.447,-26.8224"/>
<polygon fill="midnightblue" stroke="midnightblue" points="737.664,-29.5857 744.592,-21.5707 734.178,-23.5154 737.664,-29.5857"/>
</g>
<!-- Node23&#45;&gt;Node2 -->
<g id="edge48" class="edge"><title>Node23&#45;&gt;Node2</title>
<path fill="none" stroke="midnightblue" d="M1332.39,-239.027C1241.81,-228.84 1009.42,-202.161 1004,-196 962.767,-149.101 1177.55,-59.7708 1267.17,-25.1768"/>
<polygon fill="midnightblue" stroke="midnightblue" points="1268.62,-28.3704 1276.7,-21.5222 1266.11,-21.8344 1268.62,-28.3704"/>
</g>
<!-- Node23&#45;&gt;Node19 -->
<g id="edge50" class="edge"><title>Node23&#45;&gt;Node19</title>
<path fill="none" stroke="midnightblue" d="M1332.26,-239.864C1262.52,-233.504 1103.52,-217.814 971,-196 969.907,-195.82 968.803,-195.633 967.69,-195.44"/>
<polygon fill="midnightblue" stroke="midnightblue" points="968.016,-191.94 957.546,-193.56 966.741,-198.823 968.016,-191.94"/>
</g>
<!-- Node24 -->
<g id="node50" class="node"><title>Node24</title>
<polygon fill="white" stroke="#bfbfbf" points="1383,-174.5 1383,-195.5 1451,-195.5 1451,-174.5 1383,-174.5"/>
<text text-anchor="middle" x="1417" y="-182.5" font-family="Helvetica,sans-Serif" font-size="10.00">PContext.h</text>
</g>
<!-- Node23&#45;&gt;Node24 -->
<g id="edge52" class="edge"><title>Node23&#45;&gt;Node24</title>
<path fill="none" stroke="midnightblue" d="M1376.99,-232.362C1383.83,-224.268 1393.4,-212.932 1401.47,-203.38"/>
<polygon fill="midnightblue" stroke="midnightblue" points="1404.29,-205.468 1408.07,-195.571 1398.94,-200.951 1404.29,-205.468"/>
</g>
<!-- Node25 -->
<g id="node52" class="node"><title>Node25</title>
<polygon fill="white" stroke="#bfbfbf" points="1469,-174.5 1469,-195.5 1535,-195.5 1535,-174.5 1469,-174.5"/>
<text text-anchor="middle" x="1502" y="-182.5" font-family="Helvetica,sans-Serif" font-size="10.00">PPixmap.h</text>
</g>
<!-- Node23&#45;&gt;Node25 -->
<g id="edge54" class="edge"><title>Node23&#45;&gt;Node25</title>
<path fill="none" stroke="midnightblue" d="M1392.27,-232.497C1413.48,-223.315 1444.5,-209.889 1468.15,-199.652"/>
<polygon fill="midnightblue" stroke="midnightblue" points="1469.67,-202.806 1477.46,-195.621 1466.89,-196.381 1469.67,-202.806"/>
</g>
<!-- Node26 -->
<g id="node54" class="node"><title>Node26</title>
<a xlink:href="TaskBase_8h.htm" target="_top" xlink:title="TaskBase.h">
<polygon fill="white" stroke="black" points="1629,-174.5 1629,-195.5 1701,-195.5 1701,-174.5 1629,-174.5"/>
<text text-anchor="middle" x="1665" y="-182.5" font-family="Helvetica,sans-Serif" font-size="10.00">TaskBase.h</text>
</a>
</g>
<!-- Node23&#45;&gt;Node26 -->
<g id="edge56" class="edge"><title>Node23&#45;&gt;Node26</title>
<path fill="none" stroke="midnightblue" d="M1403.65,-236.546C1451.72,-227.769 1539.95,-211.392 1615,-196 1616.27,-195.739 1617.56,-195.472 1618.87,-195.2"/>
<polygon fill="midnightblue" stroke="midnightblue" points="1619.92,-198.554 1628.98,-193.054 1618.47,-191.707 1619.92,-198.554"/>
</g>
<!-- Node33 -->
<g id="node77" class="node"><title>Node33</title>
<a xlink:href="Mutex_8h.htm" target="_top" xlink:title="Mutex.h">
<polygon fill="white" stroke="black" points="1403.5,-116.5 1403.5,-137.5 1456.5,-137.5 1456.5,-116.5 1403.5,-116.5"/>
<text text-anchor="middle" x="1430" y="-124.5" font-family="Helvetica,sans-Serif" font-size="10.00">Mutex.h</text>
</a>
</g>
<!-- Node23&#45;&gt;Node33 -->
<g id="edge104" class="edge"><title>Node23&#45;&gt;Node33</title>
<path fill="none" stroke="midnightblue" d="M1403.85,-238.566C1450.22,-232.01 1527.05,-218.073 1544,-196 1549.96,-188.245 1549.44,-182.125 1544,-174 1539.33,-167.027 1497.62,-150.967 1466,-139.565"/>
<polygon fill="midnightblue" stroke="midnightblue" points="1467.15,-136.261 1456.56,-136.192 1464.79,-142.853 1467.15,-136.261"/>
</g>
<!-- Node35 -->
<g id="node88" class="node"><title>Node35</title>
<a xlink:href="CustomEvents_8h.htm" target="_top" xlink:title="CustomEvents.h">
<polygon fill="white" stroke="black" points="1273,-174.5 1273,-195.5 1365,-195.5 1365,-174.5 1273,-174.5"/>
<text text-anchor="middle" x="1319" y="-182.5" font-family="Helvetica,sans-Serif" font-size="10.00">CustomEvents.h</text>
</a>
</g>
<!-- Node23&#45;&gt;Node35 -->
<g id="edge106" class="edge"><title>Node23&#45;&gt;Node35</title>
<path fill="none" stroke="midnightblue" d="M1359.01,-232.362C1352.17,-224.268 1342.6,-212.932 1334.53,-203.38"/>
<polygon fill="midnightblue" stroke="midnightblue" points="1337.06,-200.951 1327.93,-195.571 1331.71,-205.468 1337.06,-200.951"/>
</g>
<!-- Node37 -->
<g id="node93" class="node"><title>Node37</title>
<a xlink:href="InputControl_8h.htm" target="_top" xlink:title="InputControl.h">
<polygon fill="white" stroke="black" points="1718.5,-174.5 1718.5,-195.5 1801.5,-195.5 1801.5,-174.5 1718.5,-174.5"/>
<text text-anchor="middle" x="1760" y="-182.5" font-family="Helvetica,sans-Serif" font-size="10.00">InputControl.h</text>
</a>
</g>
<!-- Node23&#45;&gt;Node37 -->
<g id="edge112" class="edge"><title>Node23&#45;&gt;Node37</title>
<path fill="none" stroke="midnightblue" d="M1403.6,-239.059C1464.16,-232.148 1591.31,-216.748 1708.12,-196.24"/>
<polygon fill="midnightblue" stroke="midnightblue" points="1709.07,-199.626 1718.31,-194.434 1707.85,-192.734 1709.07,-199.626"/>
</g>
<!-- Node39 -->
<g id="node97" class="node"><title>Node39</title>
<polygon fill="white" stroke="#bfbfbf" points="1012.5,-174.5 1012.5,-195.5 1137.5,-195.5 1137.5,-174.5 1012.5,-174.5"/>
<text text-anchor="middle" x="1075" y="-182.5" font-family="Helvetica,sans-Serif" font-size="10.00">webosDeviceKeymap.h</text>
</g>
<!-- Node23&#45;&gt;Node39 -->
<g id="edge116" class="edge"><title>Node23&#45;&gt;Node39</title>
<path fill="none" stroke="midnightblue" d="M1332.37,-235.946C1284.21,-226.414 1197.58,-209.265 1138.23,-197.517"/>
<polygon fill="midnightblue" stroke="midnightblue" points="1138.71,-194.044 1128.22,-195.535 1137.35,-200.91 1138.71,-194.044"/>
</g>
<!-- Node40 -->
<g id="node99" class="node"><title>Node40</title>
<polygon fill="white" stroke="#bfbfbf" points="1154.5,-174.5 1154.5,-195.5 1183.5,-195.5 1183.5,-174.5 1154.5,-174.5"/>
<text text-anchor="middle" x="1169" y="-182.5" font-family="Helvetica,sans-Serif" font-size="10.00">Qt</text>
</g>
<!-- Node23&#45;&gt;Node40 -->
<g id="edge118" class="edge"><title>Node23&#45;&gt;Node40</title>
<path fill="none" stroke="midnightblue" d="M1332.34,-235.52C1298.39,-227.953 1245.85,-215.084 1193.37,-196.11"/>
<polygon fill="midnightblue" stroke="midnightblue" points="1194.51,-192.802 1183.92,-192.626 1192.09,-199.37 1194.51,-192.802"/>
</g>
<!-- Node41 -->
<g id="node101" class="node"><title>Node41</title>
<polygon fill="white" stroke="#bfbfbf" points="1201,-174.5 1201,-195.5 1255,-195.5 1255,-174.5 1201,-174.5"/>
<text text-anchor="middle" x="1228" y="-182.5" font-family="Helvetica,sans-Serif" font-size="10.00">QImage</text>
</g>
<!-- Node23&#45;&gt;Node41 -->
<g id="edge120" class="edge"><title>Node23&#45;&gt;Node41</title>
<path fill="none" stroke="midnightblue" d="M1342.65,-232.497C1320.39,-223.275 1287.79,-209.769 1263.04,-199.515"/>
<polygon fill="midnightblue" stroke="midnightblue" points="1264.22,-196.215 1253.64,-195.621 1261.54,-202.682 1264.22,-196.215"/>
</g>
<!-- Node26&#45;&gt;Node2 -->
<g id="edge58" class="edge"><title>Node26&#45;&gt;Node2</title>
<path fill="none" stroke="midnightblue" d="M1628.88,-180.232C1559.94,-170.912 1414.67,-150.128 1395,-138 1353.62,-112.481 1325.95,-60.1079 1313.16,-31.2277"/>
<polygon fill="midnightblue" stroke="midnightblue" points="1316.26,-29.5738 1309.12,-21.7438 1309.82,-32.3157 1316.26,-29.5738"/>
</g>
<!-- Node26&#45;&gt;Node4 -->
<g id="edge60" class="edge"><title>Node26&#45;&gt;Node4</title>
<path fill="none" stroke="midnightblue" d="M1701.3,-175.884C1704.24,-175.22 1707.16,-174.583 1710,-174 1804.9,-154.484 1835.75,-175.693 1925,-138 1971.03,-118.559 2037.52,-95.0574 2004,-58 1974.63,-25.5356 1666.09,-14.481 1566.68,-11.7472"/>
<polygon fill="midnightblue" stroke="midnightblue" points="1566.76,-8.24814 1556.67,-11.4808 1566.57,-15.2457 1566.76,-8.24814"/>
</g>
<!-- Node27 -->
<g id="node58" class="node"><title>Node27</title>
<polygon fill="white" stroke="#bfbfbf" points="1473.5,-116.5 1473.5,-137.5 1502.5,-137.5 1502.5,-116.5 1473.5,-116.5"/>
<text text-anchor="middle" x="1488" y="-124.5" font-family="Helvetica,sans-Serif" font-size="10.00">list</text>
</g>
<!-- Node26&#45;&gt;Node27 -->
<g id="edge62" class="edge"><title>Node26&#45;&gt;Node27</title>
<path fill="none" stroke="midnightblue" d="M1629.25,-174.477C1598.92,-165.371 1554.36,-151.566 1516,-138 1514.78,-137.569 1513.54,-137.118 1512.28,-136.656"/>
<polygon fill="midnightblue" stroke="midnightblue" points="1513.34,-133.314 1502.75,-133.014 1510.84,-139.853 1513.34,-133.314"/>
</g>
<!-- Node28 -->
<g id="node60" class="node"><title>Node28</title>
<a xlink:href="sptr_8h.htm" target="_top" xlink:title="sptr.h">
<polygon fill="white" stroke="black" points="1427.5,-58.5 1427.5,-79.5 1470.5,-79.5 1470.5,-58.5 1427.5,-58.5"/>
<text text-anchor="middle" x="1449" y="-66.5" font-family="Helvetica,sans-Serif" font-size="10.00">sptr.h</text>
</a>
</g>
<!-- Node26&#45;&gt;Node28 -->
<g id="edge64" class="edge"><title>Node26&#45;&gt;Node28</title>
<path fill="none" stroke="midnightblue" d="M1633.63,-174.41C1609.8,-165.864 1576.54,-152.849 1549,-138 1520.37,-122.566 1489.96,-100.694 1470.29,-85.7377"/>
<polygon fill="midnightblue" stroke="midnightblue" points="1472.36,-82.9187 1462.3,-79.5954 1468.1,-88.4669 1472.36,-82.9187"/>
</g>
<!-- Node29 -->
<g id="node64" class="node"><title>Node29</title>
<a xlink:href="AsyncCaller_8h.htm" target="_top" xlink:title="AsyncCaller.h">
<polygon fill="white" stroke="black" points="1809.5,-58.5 1809.5,-79.5 1890.5,-79.5 1890.5,-58.5 1809.5,-58.5"/>
<text text-anchor="middle" x="1850" y="-66.5" font-family="Helvetica,sans-Serif" font-size="10.00">AsyncCaller.h</text>
</a>
</g>
<!-- Node26&#45;&gt;Node29 -->
<g id="edge70" class="edge"><title>Node26&#45;&gt;Node29</title>
<path fill="none" stroke="midnightblue" d="M1681.03,-174.275C1701.68,-160.53 1738.75,-136.077 1771,-116 1788.05,-105.383 1807.44,-93.8434 1822.73,-84.8556"/>
<polygon fill="midnightblue" stroke="midnightblue" points="1824.81,-87.6938 1831.68,-79.6203 1821.28,-81.6533 1824.81,-87.6938"/>
</g>
<!-- Node30 -->
<g id="node68" class="node"><title>Node30</title>
<a xlink:href="Event_8h.htm" target="_top" xlink:title="Event.h">
<polygon fill="white" stroke="red" points="1558,-116.5 1558,-137.5 1610,-137.5 1610,-116.5 1558,-116.5"/>
<text text-anchor="middle" x="1584" y="-124.5" font-family="Helvetica,sans-Serif" font-size="10.00">Event.h</text>
</a>
</g>
<!-- Node26&#45;&gt;Node30 -->
<g id="edge76" class="edge"><title>Node26&#45;&gt;Node30</title>
<path fill="none" stroke="midnightblue" d="M1650.14,-174.362C1638.15,-165.777 1621.07,-153.546 1607.27,-143.664"/>
<polygon fill="midnightblue" stroke="midnightblue" points="1608.93,-140.547 1598.76,-137.571 1604.86,-146.238 1608.93,-140.547"/>
</g>
<!-- Node26&#45;&gt;Node33 -->
<g id="edge88" class="edge"><title>Node26&#45;&gt;Node33</title>
<path fill="none" stroke="midnightblue" d="M1628.73,-176.814C1583.69,-166.596 1508.49,-149.346 1466.59,-138.283"/>
<polygon fill="midnightblue" stroke="midnightblue" points="1467.26,-134.839 1456.69,-135.612 1465.44,-141.597 1467.26,-134.839"/>
</g>
<!-- Node34 -->
<g id="node82" class="node"><title>Node34</title>
<a xlink:href="SingletonTimer_8h.htm" target="_top" xlink:title="SingletonTimer.h">
<polygon fill="white" stroke="black" points="1628,-116.5 1628,-137.5 1724,-137.5 1724,-116.5 1628,-116.5"/>
<text text-anchor="middle" x="1676" y="-124.5" font-family="Helvetica,sans-Serif" font-size="10.00">SingletonTimer.h</text>
</a>
</g>
<!-- Node26&#45;&gt;Node34 -->
<g id="edge96" class="edge"><title>Node26&#45;&gt;Node34</title>
<path fill="none" stroke="midnightblue" d="M1667.02,-174.362C1668.44,-166.84 1670.4,-156.519 1672.13,-147.431"/>
<polygon fill="midnightblue" stroke="midnightblue" points="1675.57,-148.048 1674,-137.571 1668.69,-146.743 1675.57,-148.048"/>
</g>
<!-- Node28&#45;&gt;Node2 -->
<g id="edge66" class="edge"><title>Node28&#45;&gt;Node2</title>
<path fill="none" stroke="midnightblue" d="M1427.44,-60.3168C1404.52,-51.0852 1367.9,-36.3335 1340.67,-25.3661"/>
<polygon fill="midnightblue" stroke="midnightblue" points="1341.69,-22.0035 1331.1,-21.5139 1339.07,-28.4966 1341.69,-22.0035"/>
</g>
<!-- Node28&#45;&gt;Node4 -->
<g id="edge68" class="edge"><title>Node28&#45;&gt;Node4</title>
<path fill="none" stroke="midnightblue" d="M1464.96,-58.3619C1477.96,-49.6955 1496.53,-37.3126 1511.43,-27.3819"/>
<polygon fill="midnightblue" stroke="midnightblue" points="1513.76,-30.0299 1520.14,-21.5707 1509.88,-24.2055 1513.76,-30.0299"/>
</g>
<!-- Node29&#45;&gt;Node2 -->
<g id="edge72" class="edge"><title>Node29&#45;&gt;Node2</title>
<path fill="none" stroke="midnightblue" d="M1809.26,-63.9897C1793.28,-62.0615 1774.79,-59.8742 1758,-58 1607.97,-41.2488 1429.75,-23.341 1348.85,-15.3195"/>
<polygon fill="midnightblue" stroke="midnightblue" points="1348.84,-11.8023 1338.55,-14.2998 1348.16,-18.7682 1348.84,-11.8023"/>
</g>
<!-- Node29&#45;&gt;Node4 -->
<g id="edge74" class="edge"><title>Node29&#45;&gt;Node4</title>
<path fill="none" stroke="midnightblue" d="M1809.33,-60.6149C1804.83,-59.7181 1800.32,-58.8307 1796,-58 1713.12,-42.0687 1615.06,-24.7585 1566.46,-16.2816"/>
<polygon fill="midnightblue" stroke="midnightblue" points="1567.04,-12.8298 1556.59,-14.5623 1565.84,-19.726 1567.04,-12.8298"/>
</g>
<!-- Node30&#45;&gt;Node2 -->
<g id="edge78" class="edge"><title>Node30&#45;&gt;Node2</title>
<path fill="none" stroke="midnightblue" d="M1570.88,-116.374C1551.76,-101.368 1514.61,-74.0137 1479,-58 1436.66,-38.9609 1384.96,-26.2043 1348.96,-18.8427"/>
<polygon fill="midnightblue" stroke="midnightblue" points="1349.28,-15.3368 1338.79,-16.8195 1347.91,-22.2024 1349.28,-15.3368"/>
</g>
<!-- Node30&#45;&gt;Node4 -->
<g id="edge82" class="edge"><title>Node30&#45;&gt;Node4</title>
<path fill="none" stroke="midnightblue" d="M1576.16,-116.281C1569.71,-107.055 1560.74,-93.1856 1555,-80 1548.19,-64.3599 1543.22,-45.6491 1540.07,-31.6599"/>
<polygon fill="midnightblue" stroke="midnightblue" points="1543.44,-30.6595 1537.94,-21.602 1536.59,-32.1103 1543.44,-30.6595"/>
</g>
<!-- Node30&#45;&gt;Node28 -->
<g id="edge86" class="edge"><title>Node30&#45;&gt;Node28</title>
<path fill="none" stroke="midnightblue" d="M1559.55,-116.497C1537.25,-106.914 1504.18,-92.706 1480.02,-82.3269"/>
<polygon fill="midnightblue" stroke="midnightblue" points="1481.16,-79.0087 1470.59,-78.277 1478.4,-85.4402 1481.16,-79.0087"/>
</g>
<!-- Node31 -->
<g id="node71" class="node"><title>Node31</title>
<polygon fill="white" stroke="#bfbfbf" points="1564,-58.5 1564,-79.5 1614,-79.5 1614,-58.5 1564,-58.5"/>
<text text-anchor="middle" x="1589" y="-66.5" font-family="Helvetica,sans-Serif" font-size="10.00">stdint.h</text>
</g>
<!-- Node30&#45;&gt;Node31 -->
<g id="edge80" class="edge"><title>Node30&#45;&gt;Node31</title>
<path fill="none" stroke="midnightblue" d="M1584.92,-116.362C1585.56,-108.922 1586.44,-98.7427 1587.21,-89.7276"/>
<polygon fill="midnightblue" stroke="midnightblue" points="1590.72,-89.8343 1588.09,-79.5707 1583.74,-89.2331 1590.72,-89.8343"/>
</g>
<!-- Node32 -->
<g id="node74" class="node"><title>Node32</title>
<polygon fill="white" stroke="#bfbfbf" points="1631.5,-58.5 1631.5,-79.5 1678.5,-79.5 1678.5,-58.5 1631.5,-58.5"/>
<text text-anchor="middle" x="1655" y="-66.5" font-family="Helvetica,sans-Serif" font-size="10.00">stdio.h</text>
</g>
<!-- Node30&#45;&gt;Node32 -->
<g id="edge84" class="edge"><title>Node30&#45;&gt;Node32</title>
<path fill="none" stroke="midnightblue" d="M1597.02,-116.362C1607.43,-107.859 1622.22,-95.7785 1634.26,-85.9466"/>
<polygon fill="midnightblue" stroke="midnightblue" points="1636.53,-88.6077 1642.06,-79.5707 1632.1,-83.1866 1636.53,-88.6077"/>
</g>
<!-- Node33&#45;&gt;Node2 -->
<g id="edge90" class="edge"><title>Node33&#45;&gt;Node2</title>
<path fill="none" stroke="midnightblue" d="M1418.46,-116.295C1396.88,-96.2682 1350.22,-52.9641 1323.95,-28.5893"/>
<polygon fill="midnightblue" stroke="midnightblue" points="1326.22,-25.916 1316.51,-21.6792 1321.46,-31.047 1326.22,-25.916"/>
</g>
<!-- Node33&#45;&gt;Node4 -->
<g id="edge94" class="edge"><title>Node33&#45;&gt;Node4</title>
<path fill="none" stroke="midnightblue" d="M1423.95,-116.179C1416.73,-101.668 1407.04,-75.6877 1419,-58 1438.13,-29.6972 1477.42,-18.4354 1505.18,-13.9559"/>
<polygon fill="midnightblue" stroke="midnightblue" points="1505.77,-17.4071 1515.18,-12.5497 1504.8,-10.4752 1505.77,-17.4071"/>
</g>
<!-- Node33&#45;&gt;Node28 -->
<g id="edge92" class="edge"><title>Node33&#45;&gt;Node28</title>
<path fill="none" stroke="midnightblue" d="M1433.48,-116.362C1435.98,-108.758 1439.4,-98.294 1442.4,-89.1349"/>
<polygon fill="midnightblue" stroke="midnightblue" points="1445.75,-90.1634 1445.54,-79.5707 1439.1,-87.9841 1445.75,-90.1634"/>
</g>
<!-- Node34&#45;&gt;Node2 -->
<g id="edge98" class="edge"><title>Node34&#45;&gt;Node2</title>
<path fill="none" stroke="midnightblue" d="M1682.29,-116.442C1690.28,-101.519 1701.39,-74.2642 1687,-58 1664.89,-33.0047 1444.69,-18.3998 1349.01,-13.1893"/>
<polygon fill="midnightblue" stroke="midnightblue" points="1348.96,-9.68189 1338.79,-12.6428 1348.59,-16.6719 1348.96,-9.68189"/>
</g>
<!-- Node34&#45;&gt;Node4 -->
<g id="edge100" class="edge"><title>Node34&#45;&gt;Node4</title>
<path fill="none" stroke="midnightblue" d="M1691.32,-116.307C1709.39,-102.384 1735.16,-77.5241 1720,-58 1701.34,-33.9735 1613.97,-20.1632 1566.64,-14.3255"/>
<polygon fill="midnightblue" stroke="midnightblue" points="1566.98,-10.8414 1556.64,-13.1368 1566.16,-17.7925 1566.98,-10.8414"/>
</g>
<!-- Node34&#45;&gt;Node31 -->
<g id="edge102" class="edge"><title>Node34&#45;&gt;Node31</title>
<path fill="none" stroke="midnightblue" d="M1660.04,-116.362C1647.04,-107.696 1628.47,-95.3126 1613.57,-85.3819"/>
<polygon fill="midnightblue" stroke="midnightblue" points="1615.12,-82.2055 1604.86,-79.5707 1611.24,-88.0299 1615.12,-82.2055"/>
</g>
<!-- Node35&#45;&gt;Node2 -->
<g id="edge108" class="edge"><title>Node35&#45;&gt;Node2</title>
<path fill="none" stroke="midnightblue" d="M1303.07,-174.346C1292.05,-165.944 1278.27,-153.139 1272,-138 1258.39,-105.151 1261.29,-91.903 1272,-58 1275.3,-47.5574 1281.84,-37.4231 1288.24,-29.2551"/>
<polygon fill="midnightblue" stroke="midnightblue" points="1290.98,-31.4395 1294.71,-21.5245 1285.61,-26.9468 1290.98,-31.4395"/>
</g>
<!-- Node36 -->
<g id="node91" class="node"><title>Node36</title>
<polygon fill="white" stroke="#bfbfbf" points="1168,-116.5 1168,-137.5 1220,-137.5 1220,-116.5 1168,-116.5"/>
<text text-anchor="middle" x="1194" y="-124.5" font-family="Helvetica,sans-Serif" font-size="10.00">QEvent</text>
</g>
<!-- Node35&#45;&gt;Node36 -->
<g id="edge110" class="edge"><title>Node35&#45;&gt;Node36</title>
<path fill="none" stroke="midnightblue" d="M1296.36,-174.497C1276.75,-165.397 1248.15,-152.127 1226.17,-141.925"/>
<polygon fill="midnightblue" stroke="midnightblue" points="1227.43,-138.655 1216.89,-137.621 1224.49,-145.005 1227.43,-138.655"/>
</g>
<!-- Node38 -->
<g id="node95" class="node"><title>Node38</title>
<polygon fill="white" stroke="#bfbfbf" points="1780,-116.5 1780,-137.5 1836,-137.5 1836,-116.5 1780,-116.5"/>
<text text-anchor="middle" x="1808" y="-124.5" font-family="Helvetica,sans-Serif" font-size="10.00">hal/hal.h</text>
</g>
<!-- Node37&#45;&gt;Node38 -->
<g id="edge114" class="edge"><title>Node37&#45;&gt;Node38</title>
<path fill="none" stroke="midnightblue" d="M1768.8,-174.362C1775.5,-166.268 1784.88,-154.932 1792.79,-145.38"/>
<polygon fill="midnightblue" stroke="midnightblue" points="1795.57,-147.506 1799.25,-137.571 1790.18,-143.043 1795.57,-147.506"/>
</g>
<!-- Node42&#45;&gt;Node2 -->
<g id="edge124" class="edge"><title>Node42&#45;&gt;Node2</title>
<path fill="none" stroke="midnightblue" d="M855.91,-122.998C906.365,-117.237 994.255,-104.495 1066,-80 1086.32,-73.0639 1088.86,-65.4443 1109,-58 1159.87,-39.1908 1221,-25.928 1261.31,-18.3909"/>
<polygon fill="midnightblue" stroke="midnightblue" points="1262.14,-21.7976 1271.34,-16.5529 1260.88,-14.9122 1262.14,-21.7976"/>
</g>
<!-- Node43 -->
<g id="node106" class="node"><title>Node43</title>
<a xlink:href="QtUtils_8h.htm" target="_top" xlink:title="QtUtils.h">
<polygon fill="white" stroke="black" points="883,-58.5 883,-79.5 939,-79.5 939,-58.5 883,-58.5"/>
<text text-anchor="middle" x="911" y="-66.5" font-family="Helvetica,sans-Serif" font-size="10.00">QtUtils.h</text>
</a>
</g>
<!-- Node42&#45;&gt;Node43 -->
<g id="edge126" class="edge"><title>Node42&#45;&gt;Node43</title>
<path fill="none" stroke="midnightblue" d="M832.608,-116.362C847.223,-107.532 868.224,-94.844 884.811,-84.8224"/>
<polygon fill="midnightblue" stroke="midnightblue" points="886.754,-87.7376 893.504,-79.5707 883.135,-81.7461 886.754,-87.7376"/>
</g>
<!-- Node45 -->
<g id="node112" class="node"><title>Node45</title>
<polygon fill="white" stroke="#bfbfbf" points="1020,-0.5 1020,-21.5 1070,-21.5 1070,-0.5 1020,-0.5"/>
<text text-anchor="middle" x="1045" y="-8.5" font-family="Helvetica,sans-Serif" font-size="10.00">QHash</text>
</g>
<!-- Node42&#45;&gt;Node45 -->
<g id="edge136" class="edge"><title>Node42&#45;&gt;Node45</title>
<path fill="none" stroke="midnightblue" d="M853.726,-116.441C880.913,-108.287 917.682,-95.7452 948,-80 976.31,-65.2976 1005.75,-43.2391 1024.66,-28.0408"/>
<polygon fill="midnightblue" stroke="midnightblue" points="1027.03,-30.6245 1032.56,-21.5916 1022.6,-25.2001 1027.03,-30.6245"/>
</g>
<!-- Node43&#45;&gt;Node2 -->
<g id="edge128" class="edge"><title>Node43&#45;&gt;Node2</title>
<path fill="none" stroke="midnightblue" d="M939.02,-64.8753C1006.8,-54.8982 1180,-29.4017 1261.44,-17.413"/>
<polygon fill="midnightblue" stroke="midnightblue" points="1261.98,-20.8703 1271.37,-15.9511 1260.96,-13.9449 1261.98,-20.8703"/>
</g>
<!-- Node43&#45;&gt;Node6 -->
<g id="edge130" class="edge"><title>Node43&#45;&gt;Node6</title>
<path fill="none" stroke="midnightblue" d="M911,-58.3619C911,-50.9219 911,-40.7427 911,-31.7276"/>
<polygon fill="midnightblue" stroke="midnightblue" points="914.5,-31.5706 911,-21.5707 907.5,-31.5707 914.5,-31.5706"/>
</g>
<!-- Node44 -->
<g id="node110" class="node"><title>Node44</title>
<polygon fill="white" stroke="#bfbfbf" points="949.5,-0.5 949.5,-21.5 1002.5,-21.5 1002.5,-0.5 949.5,-0.5"/>
<text text-anchor="middle" x="976" y="-8.5" font-family="Helvetica,sans-Serif" font-size="10.00">QString</text>
</g>
<!-- Node43&#45;&gt;Node44 -->
<g id="edge132" class="edge"><title>Node43&#45;&gt;Node44</title>
<path fill="none" stroke="midnightblue" d="M922.922,-58.3619C932.359,-49.9408 945.73,-38.0105 956.69,-28.2308"/>
<polygon fill="midnightblue" stroke="midnightblue" points="959.022,-30.8401 964.154,-21.5707 954.362,-25.6171 959.022,-30.8401"/>
</g>
<!-- Node43&#45;&gt;Node45 -->
<g id="edge134" class="edge"><title>Node43&#45;&gt;Node45</title>
<path fill="none" stroke="midnightblue" d="M935.266,-58.4966C956.478,-49.3154 987.498,-35.8889 1011.15,-25.6516"/>
<polygon fill="midnightblue" stroke="midnightblue" points="1012.67,-28.8055 1020.46,-21.6212 1009.89,-22.3815 1012.67,-28.8055"/>
</g>
<!-- Node46&#45;&gt;Node2 -->
<g id="edge140" class="edge"><title>Node46&#45;&gt;Node2</title>
<path fill="none" stroke="midnightblue" d="M1862.72,-116.44C1829.12,-100.996 1763.11,-72.5121 1704,-58 1577.46,-26.9345 1423.13,-16.18 1348.95,-12.6361"/>
<polygon fill="midnightblue" stroke="midnightblue" points="1348.75,-9.12336 1338.6,-12.1639 1348.43,-16.1161 1348.75,-9.12336"/>
</g>
<!-- Node46&#45;&gt;Node4 -->
<g id="edge144" class="edge"><title>Node46&#45;&gt;Node4</title>
<path fill="none" stroke="midnightblue" d="M1916.7,-118.995C1955.19,-107.832 2012.05,-85.7931 1987,-58 1958.87,-26.7873 1663.99,-14.9467 1566.84,-11.8753"/>
<polygon fill="midnightblue" stroke="midnightblue" points="1566.88,-8.3749 1556.78,-11.5664 1566.66,-15.3716 1566.88,-8.3749"/>
</g>
<!-- Node46&#45;&gt;Node32 -->
<g id="edge142" class="edge"><title>Node46&#45;&gt;Node32</title>
<path fill="none" stroke="midnightblue" d="M1853.14,-118.16C1850.39,-117.42 1847.65,-116.692 1845,-116 1790.45,-101.756 1726.81,-86.2351 1688.77,-77.0742"/>
<polygon fill="midnightblue" stroke="midnightblue" points="1689.29,-73.5994 1678.75,-74.6654 1687.65,-80.4055 1689.29,-73.5994"/>
</g>
<!-- Node47 -->
<g id="node120" class="node"><title>Node47</title>
<polygon fill="white" stroke="#bfbfbf" points="1907.5,-58.5 1907.5,-79.5 1978.5,-79.5 1978.5,-58.5 1907.5,-58.5"/>
<text text-anchor="middle" x="1943" y="-66.5" font-family="Helvetica,sans-Serif" font-size="10.00">PmLogLib.h</text>
</g>
<!-- Node46&#45;&gt;Node47 -->
<g id="edge146" class="edge"><title>Node46&#45;&gt;Node47</title>
<path fill="none" stroke="midnightblue" d="M1895.64,-116.362C1903.9,-108.104 1915.53,-96.4725 1925.2,-86.8029"/>
<polygon fill="midnightblue" stroke="midnightblue" points="1927.83,-89.1166 1932.43,-79.5707 1922.88,-84.1669 1927.83,-89.1166"/>
</g>
<!-- Node48&#45;&gt;Node2 -->
<g id="edge150" class="edge"><title>Node48&#45;&gt;Node2</title>
<path fill="none" stroke="midnightblue" d="M1057.92,-61.0241C1062.31,-59.9783 1066.76,-58.9434 1071,-58 1137.13,-43.2825 1214.24,-28.1925 1261.33,-19.2094"/>
<polygon fill="midnightblue" stroke="midnightblue" points="1262.02,-22.6402 1271.19,-17.3332 1260.72,-15.7635 1262.02,-22.6402"/>
</g>
<!-- Node48&#45;&gt;Node4 -->
<g id="edge158" class="edge"><title>Node48&#45;&gt;Node4</title>
<path fill="none" stroke="midnightblue" d="M1057.52,-65.4156C1149.13,-54.9968 1414.6,-24.8062 1505.24,-14.4978"/>
<polygon fill="midnightblue" stroke="midnightblue" points="1505.87,-17.9495 1515.41,-13.3419 1505.08,-10.9944 1505.87,-17.9495"/>
</g>
<!-- Node48&#45;&gt;Node5 -->
<g id="edge154" class="edge"><title>Node48&#45;&gt;Node5</title>
<path fill="none" stroke="midnightblue" d="M994.267,-58.8917C966.808,-50.1057 925.807,-36.8933 881.546,-22.1483"/>
<polygon fill="midnightblue" stroke="midnightblue" points="882.649,-18.8267 872.056,-18.9796 880.432,-25.4664 882.649,-18.8267"/>
</g>
<!-- Node48&#45;&gt;Node6 -->
<g id="edge152" class="edge"><title>Node48&#45;&gt;Node6</title>
<path fill="none" stroke="midnightblue" d="M1005.17,-58.4966C987.294,-49.4786 961.293,-36.3649 941.139,-26.2006"/>
<polygon fill="midnightblue" stroke="midnightblue" points="942.564,-22.9994 932.059,-21.6212 939.412,-29.2495 942.564,-22.9994"/>
</g>
<!-- Node49 -->
<g id="node127" class="node"><title>Node49</title>
<polygon fill="white" stroke="#bfbfbf" points="1087.5,-0.5 1087.5,-21.5 1118.5,-21.5 1118.5,-0.5 1087.5,-0.5"/>
<text text-anchor="middle" x="1103" y="-8.5" font-family="Helvetica,sans-Serif" font-size="10.00">set</text>
</g>
<!-- Node48&#45;&gt;Node49 -->
<g id="edge156" class="edge"><title>Node48&#45;&gt;Node49</title>
<path fill="none" stroke="midnightblue" d="M1040.12,-58.3619C1051.52,-49.7773 1067.76,-37.5459 1080.88,-27.6636"/>
<polygon fill="midnightblue" stroke="midnightblue" points="1083.08,-30.3829 1088.97,-21.5707 1078.87,-24.7916 1083.08,-30.3829"/>
</g>
<!-- Node50 -->
<g id="node130" class="node"><title>Node50</title>
<polygon fill="white" stroke="#bfbfbf" points="1136,-0.5 1136,-21.5 1194,-21.5 1194,-0.5 1136,-0.5"/>
<text text-anchor="middle" x="1165" y="-8.5" font-family="Helvetica,sans-Serif" font-size="10.00">QtGlobal</text>
</g>
<!-- Node48&#45;&gt;Node50 -->
<g id="edge160" class="edge"><title>Node48&#45;&gt;Node50</title>
<path fill="none" stroke="midnightblue" d="M1051.17,-58.4966C1073.27,-49.2746 1105.64,-35.7695 1130.21,-25.5153"/>
<polygon fill="midnightblue" stroke="midnightblue" points="1131.66,-28.7022 1139.55,-21.6212 1128.97,-22.2421 1131.66,-28.7022"/>
</g>
</g>
</svg>
