<?xml version="1.0" encoding="UTF-8" standalone="no"?>
<!DOCTYPE svg PUBLIC "-//W3C//DTD SVG 1.1//EN"
 "http://www.w3.org/Graphics/SVG/1.1/DTD/svg11.dtd">
<!-- Generated by graphviz version 2.26.3 (20100126.1600)
 -->
<!-- Title: G Pages: 1 -->
<svg width="2475pt" height="320pt"
 viewBox="0.00 0.00 2475.00 320.00" xmlns="http://www.w3.org/2000/svg" xmlns:xlink="http://www.w3.org/1999/xlink">
<g id="graph1" class="graph" transform="scale(1 1) rotate(0) translate(4 316)">
<title>G</title>
<polygon fill="white" stroke="white" points="-4,5 -4,-316 2472,-316 2472,5 -4,5"/>
<!-- Node1 -->
<g id="node1" class="node"><title>Node1</title>
<polygon fill="#bfbfbf" stroke="black" points="674,-290.5 674,-311.5 812,-311.5 812,-290.5 674,-290.5"/>
<text text-anchor="middle" x="743" y="-298.5" font-family="Helvetica,sans-Serif" font-size="10.00">CandidateBarRemote.cpp</text>
</g>
<!-- Node2 -->
<g id="node3" class="node"><title>Node2</title>
<a xlink:href="CandidateBarRemote_8h.htm" target="_top" xlink:title="CandidateBarRemote.h">
<polygon fill="white" stroke="black" points="349.5,-232.5 349.5,-253.5 476.5,-253.5 476.5,-232.5 349.5,-232.5"/>
<text text-anchor="middle" x="413" y="-240.5" font-family="Helvetica,sans-Serif" font-size="10.00">CandidateBarRemote.h</text>
</a>
</g>
<!-- Node1&#45;&gt;Node2 -->
<g id="edge2" class="edge"><title>Node1&#45;&gt;Node2</title>
<path fill="none" stroke="midnightblue" d="M683.239,-290.497C626.879,-280.591 542.402,-265.743 482.932,-255.291"/>
<polygon fill="midnightblue" stroke="midnightblue" points="483.328,-251.807 472.873,-253.523 482.116,-258.701 483.328,-251.807"/>
</g>
<!-- Node16 -->
<g id="node31" class="node"><title>Node16</title>
<a xlink:href="Logging_8h.htm" target="_top" xlink:title="Logging.h">
<polygon fill="white" stroke="black" points="512.5,-58.5 512.5,-79.5 575.5,-79.5 575.5,-58.5 512.5,-58.5"/>
<text text-anchor="middle" x="544" y="-66.5" font-family="Helvetica,sans-Serif" font-size="10.00">Logging.h</text>
</a>
</g>
<!-- Node1&#45;&gt;Node16 -->
<g id="edge150" class="edge"><title>Node1&#45;&gt;Node16</title>
<path fill="none" stroke="midnightblue" d="M707.281,-290.421C665.714,-276.132 598.393,-246.462 564,-196 542.111,-163.885 540.746,-116.702 542.112,-89.8072"/>
<polygon fill="midnightblue" stroke="midnightblue" points="545.618,-89.8426 542.813,-79.6259 538.634,-89.3619 545.618,-89.8426"/>
</g>
<!-- Node19 -->
<g id="node37" class="node"><title>Node19</title>
<polygon fill="white" stroke="#bfbfbf" points="982.5,-0.5 982.5,-21.5 1023.5,-21.5 1023.5,-0.5 982.5,-0.5"/>
<text text-anchor="middle" x="1003" y="-8.5" font-family="Helvetica,sans-Serif" font-size="10.00">glib.h</text>
</g>
<!-- Node1&#45;&gt;Node19 -->
<g id="edge66" class="edge"><title>Node1&#45;&gt;Node19</title>
<path fill="none" stroke="midnightblue" d="M777.971,-290.392C821.163,-274.867 889,-241.492 889,-185 889,-185 889,-185 889,-127 889,-78.8649 939.552,-43.3986 973.329,-25.0733"/>
<polygon fill="midnightblue" stroke="midnightblue" points="975.109,-28.0923 982.355,-20.3629 971.871,-21.8865 975.109,-28.0923"/>
</g>
<!-- Node22 -->
<g id="node44" class="node"><title>Node22</title>
<a xlink:href="JSONUtils_8h.htm" target="_top" xlink:title="JSONUtils.h">
<polygon fill="white" stroke="black" points="706.5,-232.5 706.5,-253.5 779.5,-253.5 779.5,-232.5 706.5,-232.5"/>
<text text-anchor="middle" x="743" y="-240.5" font-family="Helvetica,sans-Serif" font-size="10.00">JSONUtils.h</text>
</a>
</g>
<!-- Node1&#45;&gt;Node22 -->
<g id="edge44" class="edge"><title>Node1&#45;&gt;Node22</title>
<path fill="none" stroke="midnightblue" d="M743,-290.362C743,-282.922 743,-272.743 743,-263.728"/>
<polygon fill="midnightblue" stroke="midnightblue" points="746.5,-263.571 743,-253.571 739.5,-263.571 746.5,-263.571"/>
</g>
<!-- Node29 -->
<g id="node63" class="node"><title>Node29</title>
<a xlink:href="HostBase_8h.htm" target="_top" xlink:title="HostBase.h">
<polygon fill="white" stroke="black" points="1908.5,-232.5 1908.5,-253.5 1979.5,-253.5 1979.5,-232.5 1908.5,-232.5"/>
<text text-anchor="middle" x="1944" y="-240.5" font-family="Helvetica,sans-Serif" font-size="10.00">HostBase.h</text>
</a>
</g>
<!-- Node1&#45;&gt;Node29 -->
<g id="edge68" class="edge"><title>Node1&#45;&gt;Node29</title>
<path fill="none" stroke="midnightblue" d="M812.323,-297.652C1032.95,-286.997 1715.08,-254.055 1898.3,-245.207"/>
<polygon fill="midnightblue" stroke="midnightblue" points="1898.58,-248.698 1908.4,-244.719 1898.24,-241.706 1898.58,-248.698"/>
</g>
<!-- Node3 -->
<g id="node5" class="node"><title>Node3</title>
<a xlink:href="CandidateBar_8h.htm" target="_top" xlink:title="CandidateBar.h">
<polygon fill="white" stroke="black" points="326,-174.5 326,-195.5 416,-195.5 416,-174.5 326,-174.5"/>
<text text-anchor="middle" x="371" y="-182.5" font-family="Helvetica,sans-Serif" font-size="10.00">CandidateBar.h</text>
</a>
</g>
<!-- Node2&#45;&gt;Node3 -->
<g id="edge4" class="edge"><title>Node2&#45;&gt;Node3</title>
<path fill="none" stroke="midnightblue" d="M399.932,-232.362C392.86,-224.513 384.624,-213.616 378.543,-204.253"/>
<polygon fill="midnightblue" stroke="midnightblue" points="381.466,-202.324 373.303,-195.571 375.473,-205.941 381.466,-202.324"/>
</g>
<!-- Node21 -->
<g id="node42" class="node"><title>Node21</title>
<polygon fill="white" stroke="#bfbfbf" points="573,-174.5 573,-195.5 651,-195.5 651,-174.5 573,-174.5"/>
<text text-anchor="middle" x="612" y="-182.5" font-family="Helvetica,sans-Serif" font-size="10.00">lunaservice.h</text>
</g>
<!-- Node2&#45;&gt;Node21 -->
<g id="edge42" class="edge"><title>Node2&#45;&gt;Node21</title>
<path fill="none" stroke="midnightblue" d="M449.037,-232.497C481.901,-222.918 530.617,-208.72 566.224,-198.342"/>
<polygon fill="midnightblue" stroke="midnightblue" points="567.274,-201.681 575.895,-195.523 565.315,-194.961 567.274,-201.681"/>
</g>
<!-- Node3&#45;&gt;Node2 -->
<g id="edge40" class="edge"><title>Node3&#45;&gt;Node2</title>
<path fill="none" stroke="midnightblue" d="M384.007,-195.571C391.073,-203.402 399.311,-214.295 405.405,-223.667"/>
<polygon fill="midnightblue" stroke="midnightblue" points="402.492,-225.614 410.661,-232.362 408.483,-221.993 402.492,-225.614"/>
</g>
<!-- Node4 -->
<g id="node7" class="node"><title>Node4</title>
<a xlink:href="IMEDataInterface_8h.htm" target="_top" xlink:title="IMEDataInterface.h">
<polygon fill="white" stroke="black" points="67,-116.5 67,-137.5 175,-137.5 175,-116.5 67,-116.5"/>
<text text-anchor="middle" x="121" y="-124.5" font-family="Helvetica,sans-Serif" font-size="10.00">IMEDataInterface.h</text>
</a>
</g>
<!-- Node3&#45;&gt;Node4 -->
<g id="edge6" class="edge"><title>Node3&#45;&gt;Node4</title>
<path fill="none" stroke="midnightblue" d="M325.727,-174.497C283.735,-164.755 221.141,-150.233 176.228,-139.813"/>
<polygon fill="midnightblue" stroke="midnightblue" points="176.89,-136.374 166.358,-137.523 175.308,-143.193 176.89,-136.374"/>
</g>
<!-- Node9 -->
<g id="node17" class="node"><title>Node9</title>
<polygon fill="white" stroke="#bfbfbf" points="192.5,-116.5 192.5,-137.5 241.5,-137.5 241.5,-116.5 192.5,-116.5"/>
<text text-anchor="middle" x="217" y="-124.5" font-family="Helvetica,sans-Serif" font-size="10.00">qrect.h</text>
</g>
<!-- Node3&#45;&gt;Node9 -->
<g id="edge16" class="edge"><title>Node3&#45;&gt;Node9</title>
<path fill="none" stroke="midnightblue" d="M343.112,-174.497C317.328,-164.786 278.935,-150.326 251.288,-139.914"/>
<polygon fill="midnightblue" stroke="midnightblue" points="252.224,-136.526 241.632,-136.277 249.757,-143.077 252.224,-136.526"/>
</g>
<!-- Node10 -->
<g id="node19" class="node"><title>Node10</title>
<polygon fill="white" stroke="#bfbfbf" points="259,-116.5 259,-137.5 329,-137.5 329,-116.5 259,-116.5"/>
<text text-anchor="middle" x="294" y="-124.5" font-family="Helvetica,sans-Serif" font-size="10.00">qstringlist.h</text>
</g>
<!-- Node3&#45;&gt;Node10 -->
<g id="edge18" class="edge"><title>Node3&#45;&gt;Node10</title>
<path fill="none" stroke="midnightblue" d="M356.877,-174.362C345.48,-165.777 329.242,-153.546 316.122,-143.664"/>
<polygon fill="midnightblue" stroke="midnightblue" points="318.127,-140.792 308.033,-137.571 313.915,-146.383 318.127,-140.792"/>
</g>
<!-- Node11 -->
<g id="node21" class="node"><title>Node11</title>
<polygon fill="white" stroke="#bfbfbf" points="346.5,-116.5 346.5,-137.5 395.5,-137.5 395.5,-116.5 346.5,-116.5"/>
<text text-anchor="middle" x="371" y="-124.5" font-family="Helvetica,sans-Serif" font-size="10.00">qfont.h</text>
</g>
<!-- Node3&#45;&gt;Node11 -->
<g id="edge20" class="edge"><title>Node3&#45;&gt;Node11</title>
<path fill="none" stroke="midnightblue" d="M371,-174.362C371,-166.922 371,-156.743 371,-147.728"/>
<polygon fill="midnightblue" stroke="midnightblue" points="374.5,-147.571 371,-137.571 367.5,-147.571 374.5,-147.571"/>
</g>
<!-- Node12 -->
<g id="node23" class="node"><title>Node12</title>
<a xlink:href="PalmIMEHelpers_8h.htm" target="_top" xlink:title="PalmIMEHelpers.h">
<polygon fill="white" stroke="black" points="413,-116.5 413,-137.5 517,-137.5 517,-116.5 413,-116.5"/>
<text text-anchor="middle" x="465" y="-124.5" font-family="Helvetica,sans-Serif" font-size="10.00">PalmIMEHelpers.h</text>
</a>
</g>
<!-- Node3&#45;&gt;Node12 -->
<g id="edge22" class="edge"><title>Node3&#45;&gt;Node12</title>
<path fill="none" stroke="midnightblue" d="M388.241,-174.362C402.552,-165.532 423.115,-152.844 439.357,-142.822"/>
<polygon fill="midnightblue" stroke="midnightblue" points="441.196,-145.8 447.868,-137.571 437.52,-139.843 441.196,-145.8"/>
</g>
<!-- Node5 -->
<g id="node9" class="node"><title>Node5</title>
<a xlink:href="IMEData_8h.htm" target="_top" xlink:title="IMEData.h">
<polygon fill="white" stroke="red" points="88,-58.5 88,-79.5 154,-79.5 154,-58.5 88,-58.5"/>
<text text-anchor="middle" x="121" y="-66.5" font-family="Helvetica,sans-Serif" font-size="10.00">IMEData.h</text>
</a>
</g>
<!-- Node4&#45;&gt;Node5 -->
<g id="edge8" class="edge"><title>Node4&#45;&gt;Node5</title>
<path fill="none" stroke="midnightblue" d="M121,-116.362C121,-108.922 121,-98.7427 121,-89.7276"/>
<polygon fill="midnightblue" stroke="midnightblue" points="124.5,-89.5706 121,-79.5707 117.5,-89.5707 124.5,-89.5706"/>
</g>
<!-- Node6 -->
<g id="node11" class="node"><title>Node6</title>
<polygon fill="white" stroke="#bfbfbf" points="97.5,-0.5 97.5,-21.5 144.5,-21.5 144.5,-0.5 97.5,-0.5"/>
<text text-anchor="middle" x="121" y="-8.5" font-family="Helvetica,sans-Serif" font-size="10.00">QRect</text>
</g>
<!-- Node5&#45;&gt;Node6 -->
<g id="edge10" class="edge"><title>Node5&#45;&gt;Node6</title>
<path fill="none" stroke="midnightblue" d="M121,-58.3619C121,-50.9219 121,-40.7427 121,-31.7276"/>
<polygon fill="midnightblue" stroke="midnightblue" points="124.5,-31.5706 121,-21.5707 117.5,-31.5707 124.5,-31.5706"/>
</g>
<!-- Node7 -->
<g id="node13" class="node"><title>Node7</title>
<polygon fill="white" stroke="#bfbfbf" points="161.5,-0.5 161.5,-21.5 206.5,-21.5 206.5,-0.5 161.5,-0.5"/>
<text text-anchor="middle" x="184" y="-8.5" font-family="Helvetica,sans-Serif" font-size="10.00">QSize</text>
</g>
<!-- Node5&#45;&gt;Node7 -->
<g id="edge12" class="edge"><title>Node5&#45;&gt;Node7</title>
<path fill="none" stroke="midnightblue" d="M132.555,-58.3619C141.613,-50.0226 154.41,-38.2418 164.974,-28.5162"/>
<polygon fill="midnightblue" stroke="midnightblue" points="167.532,-30.9187 172.518,-21.5707 162.79,-25.7688 167.532,-30.9187"/>
</g>
<!-- Node8 -->
<g id="node15" class="node"><title>Node8</title>
<polygon fill="white" stroke="#bfbfbf" points="-0.5,-0.5 -0.5,-21.5 80.5,-21.5 80.5,-0.5 -0.5,-0.5"/>
<text text-anchor="middle" x="40" y="-8.5" font-family="Helvetica,sans-Serif" font-size="10.00">QTouchEvent</text>
</g>
<!-- Node5&#45;&gt;Node8 -->
<g id="edge14" class="edge"><title>Node5&#45;&gt;Node8</title>
<path fill="none" stroke="midnightblue" d="M106.143,-58.3619C94.1545,-49.7773 77.0727,-37.5459 63.2715,-27.6636"/>
<polygon fill="midnightblue" stroke="midnightblue" points="64.9307,-24.5469 54.7625,-21.5707 60.8554,-30.2383 64.9307,-24.5469"/>
</g>
<!-- Node13 -->
<g id="node25" class="node"><title>Node13</title>
<polygon fill="white" stroke="#bfbfbf" points="593,-58.5 593,-79.5 639,-79.5 639,-58.5 593,-58.5"/>
<text text-anchor="middle" x="616" y="-66.5" font-family="Helvetica,sans-Serif" font-size="10.00">vector</text>
</g>
<!-- Node12&#45;&gt;Node13 -->
<g id="edge24" class="edge"><title>Node12&#45;&gt;Node13</title>
<path fill="none" stroke="midnightblue" d="M492.345,-116.497C517.929,-106.67 556.175,-91.9792 583.349,-81.5414"/>
<polygon fill="midnightblue" stroke="midnightblue" points="584.736,-84.7582 592.816,-77.9052 582.226,-78.2236 584.736,-84.7582"/>
</g>
<!-- Node14 -->
<g id="node27" class="node"><title>Node14</title>
<polygon fill="white" stroke="#bfbfbf" points="367,-58.5 367,-79.5 421,-79.5 421,-58.5 367,-58.5"/>
<text text-anchor="middle" x="394" y="-66.5" font-family="Helvetica,sans-Serif" font-size="10.00">qcolor.h</text>
</g>
<!-- Node12&#45;&gt;Node14 -->
<g id="edge26" class="edge"><title>Node12&#45;&gt;Node14</title>
<path fill="none" stroke="midnightblue" d="M451.978,-116.362C441.569,-107.859 426.781,-95.7785 414.745,-85.9466"/>
<polygon fill="midnightblue" stroke="midnightblue" points="416.899,-83.1866 406.94,-79.5707 412.47,-88.6077 416.899,-83.1866"/>
</g>
<!-- Node15 -->
<g id="node29" class="node"><title>Node15</title>
<polygon fill="white" stroke="#bfbfbf" points="439,-58.5 439,-79.5 493,-79.5 493,-58.5 439,-58.5"/>
<text text-anchor="middle" x="466" y="-66.5" font-family="Helvetica,sans-Serif" font-size="10.00">qpoint.h</text>
</g>
<!-- Node12&#45;&gt;Node15 -->
<g id="edge28" class="edge"><title>Node12&#45;&gt;Node15</title>
<path fill="none" stroke="midnightblue" d="M465.183,-116.362C465.312,-108.922 465.487,-98.7427 465.643,-89.7276"/>
<polygon fill="midnightblue" stroke="midnightblue" points="469.145,-89.6295 465.818,-79.5707 462.146,-89.5088 469.145,-89.6295"/>
</g>
<!-- Node12&#45;&gt;Node16 -->
<g id="edge30" class="edge"><title>Node12&#45;&gt;Node16</title>
<path fill="none" stroke="midnightblue" d="M479.49,-116.362C491.183,-107.777 507.843,-95.5459 521.303,-85.6636"/>
<polygon fill="midnightblue" stroke="midnightblue" points="523.613,-88.31 529.602,-79.5707 519.47,-82.6675 523.613,-88.31"/>
</g>
<!-- Node17 -->
<g id="node33" class="node"><title>Node17</title>
<a xlink:href="Common_8h.htm" target="_top" xlink:title="Common.h">
<polygon fill="white" stroke="black" points="1589.5,-0.5 1589.5,-21.5 1656.5,-21.5 1656.5,-0.5 1589.5,-0.5"/>
<text text-anchor="middle" x="1623" y="-8.5" font-family="Helvetica,sans-Serif" font-size="10.00">Common.h</text>
</a>
</g>
<!-- Node16&#45;&gt;Node17 -->
<g id="edge32" class="edge"><title>Node16&#45;&gt;Node17</title>
<path fill="none" stroke="midnightblue" d="M575.737,-59.5848C578.515,-58.9702 581.297,-58.4273 584,-58 780.312,-26.9663 1407.31,-14.5508 1579.11,-11.6815"/>
<polygon fill="midnightblue" stroke="midnightblue" points="1579.35,-15.178 1589.29,-11.5137 1579.24,-8.17899 1579.35,-15.178"/>
</g>
<!-- Node18 -->
<g id="node35" class="node"><title>Node18</title>
<polygon fill="white" stroke="#bfbfbf" points="757.5,-0.5 757.5,-21.5 804.5,-21.5 804.5,-0.5 757.5,-0.5"/>
<text text-anchor="middle" x="781" y="-8.5" font-family="Helvetica,sans-Serif" font-size="10.00">stdio.h</text>
</g>
<!-- Node16&#45;&gt;Node18 -->
<g id="edge34" class="edge"><title>Node16&#45;&gt;Node18</title>
<path fill="none" stroke="midnightblue" d="M575.851,-60.1356C578.604,-59.4014 581.349,-58.6805 584,-58 641.212,-43.3132 708.167,-27.6631 747.443,-18.6381"/>
<polygon fill="midnightblue" stroke="midnightblue" points="748.317,-22.0286 757.283,-16.3828 746.753,-15.2055 748.317,-22.0286"/>
</g>
<!-- Node16&#45;&gt;Node19 -->
<g id="edge36" class="edge"><title>Node16&#45;&gt;Node19</title>
<path fill="none" stroke="midnightblue" d="M575.771,-59.7798C578.541,-59.1228 581.312,-58.517 584,-58 727.627,-30.3724 902.302,-17.2398 972.062,-12.8059"/>
<polygon fill="midnightblue" stroke="midnightblue" points="972.573,-16.281 982.336,-12.1681 972.139,-9.29447 972.573,-16.281"/>
</g>
<!-- Node20 -->
<g id="node39" class="node"><title>Node20</title>
<polygon fill="white" stroke="#bfbfbf" points="508.5,-0.5 508.5,-21.5 579.5,-21.5 579.5,-0.5 508.5,-0.5"/>
<text text-anchor="middle" x="544" y="-8.5" font-family="Helvetica,sans-Serif" font-size="10.00">PmLogLib.h</text>
</g>
<!-- Node16&#45;&gt;Node20 -->
<g id="edge38" class="edge"><title>Node16&#45;&gt;Node20</title>
<path fill="none" stroke="midnightblue" d="M544,-58.3619C544,-50.9219 544,-40.7427 544,-31.7276"/>
<polygon fill="midnightblue" stroke="midnightblue" points="547.5,-31.5706 544,-21.5707 540.5,-31.5707 547.5,-31.5706"/>
</g>
<!-- Node22&#45;&gt;Node21 -->
<g id="edge60" class="edge"><title>Node22&#45;&gt;Node21</title>
<path fill="none" stroke="midnightblue" d="M719.277,-232.497C698.632,-223.356 668.484,-210.008 645.401,-199.788"/>
<polygon fill="midnightblue" stroke="midnightblue" points="646.55,-196.469 635.989,-195.621 643.716,-202.87 646.55,-196.469"/>
</g>
<!-- Node23 -->
<g id="node46" class="node"><title>Node23</title>
<a xlink:href="Settings_8h.htm" target="_top" xlink:title="Settings.h">
<polygon fill="white" stroke="black" points="770.5,-116.5 770.5,-137.5 833.5,-137.5 833.5,-116.5 770.5,-116.5"/>
<text text-anchor="middle" x="802" y="-124.5" font-family="Helvetica,sans-Serif" font-size="10.00">Settings.h</text>
</a>
</g>
<!-- Node22&#45;&gt;Node23 -->
<g id="edge46" class="edge"><title>Node22&#45;&gt;Node23</title>
<path fill="none" stroke="midnightblue" d="M779.75,-233.537C798.896,-226.536 820.634,-214.856 832,-196 841.809,-179.728 830.786,-159.672 819.438,-145.385"/>
<polygon fill="midnightblue" stroke="midnightblue" points="822.034,-143.035 812.874,-137.711 816.715,-147.585 822.034,-143.035"/>
</g>
<!-- Node27 -->
<g id="node58" class="node"><title>Node27</title>
<polygon fill="white" stroke="#bfbfbf" points="669,-174.5 669,-195.5 731,-195.5 731,-174.5 669,-174.5"/>
<text text-anchor="middle" x="700" y="-182.5" font-family="Helvetica,sans-Serif" font-size="10.00">pbnjson.h</text>
</g>
<!-- Node22&#45;&gt;Node27 -->
<g id="edge62" class="edge"><title>Node22&#45;&gt;Node27</title>
<path fill="none" stroke="midnightblue" d="M735.113,-232.362C729.173,-224.35 720.878,-213.161 713.841,-203.67"/>
<polygon fill="midnightblue" stroke="midnightblue" points="716.604,-201.519 707.837,-195.571 710.981,-205.688 716.604,-201.519"/>
</g>
<!-- Node28 -->
<g id="node60" class="node"><title>Node28</title>
<polygon fill="white" stroke="#bfbfbf" points="749,-174.5 749,-195.5 823,-195.5 823,-174.5 749,-174.5"/>
<text text-anchor="middle" x="786" y="-182.5" font-family="Helvetica,sans-Serif" font-size="10.00">pbnjson.hpp</text>
</g>
<!-- Node22&#45;&gt;Node28 -->
<g id="edge64" class="edge"><title>Node22&#45;&gt;Node28</title>
<path fill="none" stroke="midnightblue" d="M750.887,-232.362C756.827,-224.35 765.122,-213.161 772.159,-203.67"/>
<polygon fill="midnightblue" stroke="midnightblue" points="775.019,-205.688 778.163,-195.571 769.396,-201.519 775.019,-205.688"/>
</g>
<!-- Node23&#45;&gt;Node13 -->
<g id="edge52" class="edge"><title>Node23&#45;&gt;Node13</title>
<path fill="none" stroke="midnightblue" d="M770.34,-117.689C741.086,-109.008 696.199,-95.4937 648.593,-80.1249"/>
<polygon fill="midnightblue" stroke="midnightblue" points="649.632,-76.7822 639.04,-77.0273 647.473,-83.441 649.632,-76.7822"/>
</g>
<!-- Node23&#45;&gt;Node17 -->
<g id="edge48" class="edge"><title>Node23&#45;&gt;Node17</title>
<path fill="none" stroke="midnightblue" d="M832.497,-116.491C878.864,-100.978 970.148,-72.2506 1050,-58 1245.34,-23.1394 1482.84,-14.0784 1579.22,-11.7696"/>
<polygon fill="midnightblue" stroke="midnightblue" points="1579.53,-15.2634 1589.45,-11.5374 1579.38,-8.26522 1579.53,-15.2634"/>
</g>
<!-- Node23&#45;&gt;Node19 -->
<g id="edge56" class="edge"><title>Node23&#45;&gt;Node19</title>
<path fill="none" stroke="midnightblue" d="M810.852,-116.239C823.627,-101.319 848.611,-74.3458 875,-58 905.736,-38.9616 945.356,-25.9113 972.32,-18.4803"/>
<polygon fill="midnightblue" stroke="midnightblue" points="973.574,-21.7687 982.339,-15.8172 971.775,-15.0037 973.574,-21.7687"/>
</g>
<!-- Node24 -->
<g id="node49" class="node"><title>Node24</title>
<polygon fill="white" stroke="#bfbfbf" points="780.5,-58.5 780.5,-79.5 823.5,-79.5 823.5,-58.5 780.5,-58.5"/>
<text text-anchor="middle" x="802" y="-66.5" font-family="Helvetica,sans-Serif" font-size="10.00">string</text>
</g>
<!-- Node23&#45;&gt;Node24 -->
<g id="edge50" class="edge"><title>Node23&#45;&gt;Node24</title>
<path fill="none" stroke="midnightblue" d="M802,-116.362C802,-108.922 802,-98.7427 802,-89.7276"/>
<polygon fill="midnightblue" stroke="midnightblue" points="805.5,-89.5706 802,-79.5707 798.5,-89.5707 805.5,-89.5706"/>
</g>
<!-- Node25 -->
<g id="node52" class="node"><title>Node25</title>
<polygon fill="white" stroke="#bfbfbf" points="656.5,-58.5 656.5,-79.5 687.5,-79.5 687.5,-58.5 656.5,-58.5"/>
<text text-anchor="middle" x="672" y="-66.5" font-family="Helvetica,sans-Serif" font-size="10.00">set</text>
</g>
<!-- Node23&#45;&gt;Node25 -->
<g id="edge54" class="edge"><title>Node23&#45;&gt;Node25</title>
<path fill="none" stroke="midnightblue" d="M777.966,-116.445C758.305,-107.788 729.563,-95.0836 697.014,-80.4298"/>
<polygon fill="midnightblue" stroke="midnightblue" points="698.292,-77.1667 687.737,-76.2467 695.415,-83.548 698.292,-77.1667"/>
</g>
<!-- Node26 -->
<g id="node55" class="node"><title>Node26</title>
<polygon fill="white" stroke="#bfbfbf" points="705,-58.5 705,-79.5 763,-79.5 763,-58.5 705,-58.5"/>
<text text-anchor="middle" x="734" y="-66.5" font-family="Helvetica,sans-Serif" font-size="10.00">QtGlobal</text>
</g>
<!-- Node23&#45;&gt;Node26 -->
<g id="edge58" class="edge"><title>Node23&#45;&gt;Node26</title>
<path fill="none" stroke="midnightblue" d="M789.528,-116.362C779.655,-107.941 765.667,-96.0105 754.202,-86.2308"/>
<polygon fill="midnightblue" stroke="midnightblue" points="756.273,-83.3972 746.393,-79.5707 751.73,-88.7231 756.273,-83.3972"/>
</g>
<!-- Node29&#45;&gt;Node17 -->
<g id="edge70" class="edge"><title>Node29&#45;&gt;Node17</title>
<path fill="none" stroke="midnightblue" d="M1908.23,-236.429C1882.49,-230.039 1848.47,-217.964 1826,-196 1778.3,-149.375 1816.27,-102.961 1767,-58 1739.42,-32.8378 1698.15,-21.1294 1666.85,-15.6911"/>
<polygon fill="midnightblue" stroke="midnightblue" points="1667.08,-12.1835 1656.66,-14.0768 1665.99,-19.0974 1667.08,-12.1835"/>
</g>
<!-- Node30 -->
<g id="node66" class="node"><title>Node30</title>
<polygon fill="white" stroke="#bfbfbf" points="2304.5,-174.5 2304.5,-195.5 2381.5,-195.5 2381.5,-174.5 2304.5,-174.5"/>
<text text-anchor="middle" x="2343" y="-182.5" font-family="Helvetica,sans-Serif" font-size="10.00">PGContext.h</text>
</g>
<!-- Node29&#45;&gt;Node30 -->
<g id="edge72" class="edge"><title>Node29&#45;&gt;Node30</title>
<path fill="none" stroke="midnightblue" d="M1979.65,-239.398C2041.68,-232.882 2173.61,-217.917 2294.19,-196.21"/>
<polygon fill="midnightblue" stroke="midnightblue" points="2295.12,-199.598 2304.33,-194.364 2293.87,-192.712 2295.12,-199.598"/>
</g>
<!-- Node31 -->
<g id="node68" class="node"><title>Node31</title>
<polygon fill="white" stroke="#bfbfbf" points="2399,-174.5 2399,-195.5 2467,-195.5 2467,-174.5 2399,-174.5"/>
<text text-anchor="middle" x="2433" y="-182.5" font-family="Helvetica,sans-Serif" font-size="10.00">PContext.h</text>
</g>
<!-- Node29&#45;&gt;Node31 -->
<g id="edge74" class="edge"><title>Node29&#45;&gt;Node31</title>
<path fill="none" stroke="midnightblue" d="M1979.52,-241.017C2053.82,-236.493 2231.18,-223.723 2388.95,-195.981"/>
<polygon fill="midnightblue" stroke="midnightblue" points="2389.6,-199.42 2398.83,-194.219 2388.37,-192.529 2389.6,-199.42"/>
</g>
<!-- Node32 -->
<g id="node70" class="node"><title>Node32</title>
<polygon fill="white" stroke="#bfbfbf" points="1520,-174.5 1520,-195.5 1586,-195.5 1586,-174.5 1520,-174.5"/>
<text text-anchor="middle" x="1553" y="-182.5" font-family="Helvetica,sans-Serif" font-size="10.00">PPixmap.h</text>
</g>
<!-- Node29&#45;&gt;Node32 -->
<g id="edge76" class="edge"><title>Node29&#45;&gt;Node32</title>
<path fill="none" stroke="midnightblue" d="M1908.34,-239.653C1846.66,-233.549 1715.91,-219.232 1596.43,-196.108"/>
<polygon fill="midnightblue" stroke="midnightblue" points="1596.87,-192.628 1586.39,-194.137 1595.52,-199.497 1596.87,-192.628"/>
</g>
<!-- Node33 -->
<g id="node72" class="node"><title>Node33</title>
<a xlink:href="TaskBase_8h.htm" target="_top" xlink:title="TaskBase.h">
<polygon fill="white" stroke="black" points="1604,-174.5 1604,-195.5 1676,-195.5 1676,-174.5 1604,-174.5"/>
<text text-anchor="middle" x="1640" y="-182.5" font-family="Helvetica,sans-Serif" font-size="10.00">TaskBase.h</text>
</a>
</g>
<!-- Node29&#45;&gt;Node33 -->
<g id="edge78" class="edge"><title>Node29&#45;&gt;Node33</title>
<path fill="none" stroke="midnightblue" d="M1908.23,-236.176C1853.04,-225.646 1747.13,-205.439 1686.21,-193.815"/>
<polygon fill="midnightblue" stroke="midnightblue" points="1686.58,-190.324 1676.1,-191.888 1685.27,-197.2 1686.58,-190.324"/>
</g>
<!-- Node42 -->
<g id="node100" class="node"><title>Node42</title>
<a xlink:href="Mutex_8h.htm" target="_top" xlink:title="Mutex.h">
<polygon fill="white" stroke="black" points="1730.5,-116.5 1730.5,-137.5 1783.5,-137.5 1783.5,-116.5 1730.5,-116.5"/>
<text text-anchor="middle" x="1757" y="-124.5" font-family="Helvetica,sans-Serif" font-size="10.00">Mutex.h</text>
</a>
</g>
<!-- Node29&#45;&gt;Node42 -->
<g id="edge132" class="edge"><title>Node29&#45;&gt;Node42</title>
<path fill="none" stroke="midnightblue" d="M1908.25,-239.702C1875.07,-234.976 1825.98,-223.544 1793,-196 1777.83,-183.333 1768.25,-162.619 1762.81,-147.187"/>
<polygon fill="midnightblue" stroke="midnightblue" points="1766.09,-145.958 1759.7,-137.511 1759.43,-148.102 1766.09,-145.958"/>
</g>
<!-- Node44 -->
<g id="node111" class="node"><title>Node44</title>
<a xlink:href="CustomEvents_8h.htm" target="_top" xlink:title="CustomEvents.h">
<polygon fill="white" stroke="black" points="1835,-174.5 1835,-195.5 1927,-195.5 1927,-174.5 1835,-174.5"/>
<text text-anchor="middle" x="1881" y="-182.5" font-family="Helvetica,sans-Serif" font-size="10.00">CustomEvents.h</text>
</a>
</g>
<!-- Node29&#45;&gt;Node44 -->
<g id="edge134" class="edge"><title>Node29&#45;&gt;Node44</title>
<path fill="none" stroke="midnightblue" d="M1932.44,-232.362C1923.39,-224.023 1910.59,-212.242 1900.03,-202.516"/>
<polygon fill="midnightblue" stroke="midnightblue" points="1902.21,-199.769 1892.48,-195.571 1897.47,-204.919 1902.21,-199.769"/>
</g>
<!-- Node46 -->
<g id="node116" class="node"><title>Node46</title>
<a xlink:href="InputControl_8h.htm" target="_top" xlink:title="InputControl.h">
<polygon fill="white" stroke="black" points="2204.5,-174.5 2204.5,-195.5 2287.5,-195.5 2287.5,-174.5 2204.5,-174.5"/>
<text text-anchor="middle" x="2246" y="-182.5" font-family="Helvetica,sans-Serif" font-size="10.00">InputControl.h</text>
</a>
</g>
<!-- Node29&#45;&gt;Node46 -->
<g id="edge140" class="edge"><title>Node29&#45;&gt;Node46</title>
<path fill="none" stroke="midnightblue" d="M1979.54,-236.743C2026.49,-228.396 2112.01,-212.912 2194.27,-196.313"/>
<polygon fill="midnightblue" stroke="midnightblue" points="2195.17,-199.7 2204.28,-194.284 2193.78,-192.84 2195.17,-199.7"/>
</g>
<!-- Node48 -->
<g id="node120" class="node"><title>Node48</title>
<polygon fill="white" stroke="#bfbfbf" points="1944.5,-174.5 1944.5,-195.5 2069.5,-195.5 2069.5,-174.5 1944.5,-174.5"/>
<text text-anchor="middle" x="2007" y="-182.5" font-family="Helvetica,sans-Serif" font-size="10.00">webosDeviceKeymap.h</text>
</g>
<!-- Node29&#45;&gt;Node48 -->
<g id="edge144" class="edge"><title>Node29&#45;&gt;Node48</title>
<path fill="none" stroke="midnightblue" d="M1955.56,-232.362C1964.61,-224.023 1977.41,-212.242 1987.97,-202.516"/>
<polygon fill="midnightblue" stroke="midnightblue" points="1990.53,-204.919 1995.52,-195.571 1985.79,-199.769 1990.53,-204.919"/>
</g>
<!-- Node49 -->
<g id="node122" class="node"><title>Node49</title>
<polygon fill="white" stroke="#bfbfbf" points="2086.5,-174.5 2086.5,-195.5 2115.5,-195.5 2115.5,-174.5 2086.5,-174.5"/>
<text text-anchor="middle" x="2101" y="-182.5" font-family="Helvetica,sans-Serif" font-size="10.00">Qt</text>
</g>
<!-- Node29&#45;&gt;Node49 -->
<g id="edge146" class="edge"><title>Node29&#45;&gt;Node49</title>
<path fill="none" stroke="midnightblue" d="M1977.14,-232.491C2002.46,-224.217 2038.34,-211.967 2076.73,-196.292"/>
<polygon fill="midnightblue" stroke="midnightblue" points="2078.11,-199.511 2086.01,-192.456 2075.43,-193.042 2078.11,-199.511"/>
</g>
<!-- Node50 -->
<g id="node124" class="node"><title>Node50</title>
<polygon fill="white" stroke="#bfbfbf" points="2133,-174.5 2133,-195.5 2187,-195.5 2187,-174.5 2133,-174.5"/>
<text text-anchor="middle" x="2160" y="-182.5" font-family="Helvetica,sans-Serif" font-size="10.00">QImage</text>
</g>
<!-- Node29&#45;&gt;Node50 -->
<g id="edge148" class="edge"><title>Node29&#45;&gt;Node50</title>
<path fill="none" stroke="midnightblue" d="M1979.64,-234.155C2014.04,-225.513 2067.84,-211.736 2123.27,-196.134"/>
<polygon fill="midnightblue" stroke="midnightblue" points="2124.24,-199.498 2132.91,-193.408 2122.33,-192.763 2124.24,-199.498"/>
</g>
<!-- Node33&#45;&gt;Node17 -->
<g id="edge80" class="edge"><title>Node33&#45;&gt;Node17</title>
<path fill="none" stroke="midnightblue" d="M1654.5,-174.479C1664.9,-165.97 1678.09,-152.97 1684,-138 1690.51,-121.524 1686.24,-73.7061 1678,-58 1671.55,-45.7146 1660.43,-35.2802 1649.86,-27.3869"/>
<polygon fill="midnightblue" stroke="midnightblue" points="1651.81,-24.4784 1641.61,-21.6146 1647.8,-30.2145 1651.81,-24.4784"/>
</g>
<!-- Node33&#45;&gt;Node19 -->
<g id="edge82" class="edge"><title>Node33&#45;&gt;Node19</title>
<path fill="none" stroke="midnightblue" d="M1603.76,-175.58C1600.81,-174.984 1597.86,-174.446 1595,-174 1481.43,-156.289 1176.96,-198.139 1079,-138 1039.58,-113.801 1018.02,-60.8431 1008.7,-31.5334"/>
<polygon fill="midnightblue" stroke="midnightblue" points="1011.93,-30.1411 1005.71,-21.5673 1005.23,-32.1512 1011.93,-30.1411"/>
</g>
<!-- Node34 -->
<g id="node76" class="node"><title>Node34</title>
<polygon fill="white" stroke="#bfbfbf" points="1646.5,-116.5 1646.5,-137.5 1675.5,-137.5 1675.5,-116.5 1646.5,-116.5"/>
<text text-anchor="middle" x="1661" y="-124.5" font-family="Helvetica,sans-Serif" font-size="10.00">list</text>
</g>
<!-- Node33&#45;&gt;Node34 -->
<g id="edge84" class="edge"><title>Node33&#45;&gt;Node34</title>
<path fill="none" stroke="midnightblue" d="M1643.85,-174.362C1646.6,-166.758 1650.39,-156.294 1653.71,-147.135"/>
<polygon fill="midnightblue" stroke="midnightblue" points="1657.06,-148.165 1657.17,-137.571 1650.48,-145.782 1657.06,-148.165"/>
</g>
<!-- Node35 -->
<g id="node78" class="node"><title>Node35</title>
<a xlink:href="sptr_8h.htm" target="_top" xlink:title="sptr.h">
<polygon fill="white" stroke="black" points="1626.5,-58.5 1626.5,-79.5 1669.5,-79.5 1669.5,-58.5 1626.5,-58.5"/>
<text text-anchor="middle" x="1648" y="-66.5" font-family="Helvetica,sans-Serif" font-size="10.00">sptr.h</text>
</a>
</g>
<!-- Node33&#45;&gt;Node35 -->
<g id="edge86" class="edge"><title>Node33&#45;&gt;Node35</title>
<path fill="none" stroke="midnightblue" d="M1638.8,-174.21C1637.49,-160.601 1635.84,-136.5 1638,-116 1638.92,-107.232 1640.79,-97.6925 1642.66,-89.5135"/>
<polygon fill="midnightblue" stroke="midnightblue" points="1646.08,-90.2687 1645.05,-79.7243 1639.28,-88.6106 1646.08,-90.2687"/>
</g>
<!-- Node36 -->
<g id="node82" class="node"><title>Node36</title>
<a xlink:href="AsyncCaller_8h.htm" target="_top" xlink:title="AsyncCaller.h">
<polygon fill="white" stroke="black" points="1068.5,-58.5 1068.5,-79.5 1149.5,-79.5 1149.5,-58.5 1068.5,-58.5"/>
<text text-anchor="middle" x="1109" y="-66.5" font-family="Helvetica,sans-Serif" font-size="10.00">AsyncCaller.h</text>
</a>
</g>
<!-- Node33&#45;&gt;Node36 -->
<g id="edge92" class="edge"><title>Node33&#45;&gt;Node36</title>
<path fill="none" stroke="midnightblue" d="M1603.7,-175.901C1600.76,-175.233 1597.83,-174.591 1595,-174 1503.16,-154.85 1478.81,-157.313 1387,-138 1306.14,-120.991 1213.13,-96.9938 1157.81,-82.2452"/>
<polygon fill="midnightblue" stroke="midnightblue" points="1158.49,-78.8054 1147.93,-79.6027 1156.69,-85.5677 1158.49,-78.8054"/>
</g>
<!-- Node37 -->
<g id="node86" class="node"><title>Node37</title>
<a xlink:href="Event_8h.htm" target="_top" xlink:title="Event.h">
<polygon fill="white" stroke="black" points="1396,-116.5 1396,-137.5 1448,-137.5 1448,-116.5 1396,-116.5"/>
<text text-anchor="middle" x="1422" y="-124.5" font-family="Helvetica,sans-Serif" font-size="10.00">Event.h</text>
</a>
</g>
<!-- Node33&#45;&gt;Node37 -->
<g id="edge98" class="edge"><title>Node33&#45;&gt;Node37</title>
<path fill="none" stroke="midnightblue" d="M1603.51,-175.292C1563.06,-164.53 1498.23,-147.281 1457.98,-136.574"/>
<polygon fill="midnightblue" stroke="midnightblue" points="1458.87,-133.189 1448.31,-134 1457.08,-139.954 1458.87,-133.189"/>
</g>
<!-- Node33&#45;&gt;Node42 -->
<g id="edge116" class="edge"><title>Node33&#45;&gt;Node42</title>
<path fill="none" stroke="midnightblue" d="M1661.19,-174.497C1679.46,-165.438 1706.07,-152.246 1726.61,-142.063"/>
<polygon fill="midnightblue" stroke="midnightblue" points="1728.17,-145.199 1735.57,-137.621 1725.06,-138.927 1728.17,-145.199"/>
</g>
<!-- Node43 -->
<g id="node105" class="node"><title>Node43</title>
<a xlink:href="SingletonTimer_8h.htm" target="_top" xlink:title="SingletonTimer.h">
<polygon fill="white" stroke="black" points="1088,-116.5 1088,-137.5 1184,-137.5 1184,-116.5 1088,-116.5"/>
<text text-anchor="middle" x="1136" y="-124.5" font-family="Helvetica,sans-Serif" font-size="10.00">SingletonTimer.h</text>
</a>
</g>
<!-- Node33&#45;&gt;Node43 -->
<g id="edge124" class="edge"><title>Node33&#45;&gt;Node43</title>
<path fill="none" stroke="midnightblue" d="M1603.74,-175.682C1600.79,-175.064 1597.85,-174.492 1595,-174 1452.06,-149.332 1281.68,-136.046 1194.2,-130.382"/>
<polygon fill="midnightblue" stroke="midnightblue" points="1194.41,-126.888 1184.2,-129.745 1193.96,-133.874 1194.41,-126.888"/>
</g>
<!-- Node35&#45;&gt;Node17 -->
<g id="edge88" class="edge"><title>Node35&#45;&gt;Node17</title>
<path fill="none" stroke="midnightblue" d="M1643.41,-58.3619C1640.1,-50.6766 1635.53,-40.0686 1631.55,-30.8399"/>
<polygon fill="midnightblue" stroke="midnightblue" points="1634.73,-29.3685 1627.56,-21.5707 1628.3,-32.1393 1634.73,-29.3685"/>
</g>
<!-- Node35&#45;&gt;Node19 -->
<g id="edge90" class="edge"><title>Node35&#45;&gt;Node19</title>
<path fill="none" stroke="midnightblue" d="M1626.32,-65.0439C1612.99,-62.7245 1595.55,-59.8883 1580,-58 1371.9,-32.7325 1119.87,-17.4386 1033.64,-12.6397"/>
<polygon fill="midnightblue" stroke="midnightblue" points="1033.68,-9.13662 1023.5,-12.0815 1033.29,-16.126 1033.68,-9.13662"/>
</g>
<!-- Node36&#45;&gt;Node17 -->
<g id="edge94" class="edge"><title>Node36&#45;&gt;Node17</title>
<path fill="none" stroke="midnightblue" d="M1149.57,-59.4985C1152.41,-58.9535 1155.25,-58.4466 1158,-58 1311.81,-33.055 1496.52,-19.087 1579.22,-13.6644"/>
<polygon fill="midnightblue" stroke="midnightblue" points="1579.51,-17.1531 1589.27,-13.0153 1579.06,-10.1677 1579.51,-17.1531"/>
</g>
<!-- Node36&#45;&gt;Node19 -->
<g id="edge96" class="edge"><title>Node36&#45;&gt;Node19</title>
<path fill="none" stroke="midnightblue" d="M1089.56,-58.3619C1073.2,-49.4094 1049.59,-36.4908 1031.16,-26.4064"/>
<polygon fill="midnightblue" stroke="midnightblue" points="1032.77,-23.3004 1022.32,-21.5707 1029.41,-29.4412 1032.77,-23.3004"/>
</g>
<!-- Node37&#45;&gt;Node17 -->
<g id="edge100" class="edge"><title>Node37&#45;&gt;Node17</title>
<path fill="none" stroke="midnightblue" d="M1448.06,-124.915C1481.64,-121.052 1540.4,-110.188 1580,-80 1596.58,-67.3651 1608.33,-46.3506 1615.32,-30.8263"/>
<polygon fill="midnightblue" stroke="midnightblue" points="1618.57,-32.1351 1619.22,-21.5606 1612.12,-29.4175 1618.57,-32.1351"/>
</g>
<!-- Node37&#45;&gt;Node18 -->
<g id="edge106" class="edge"><title>Node37&#45;&gt;Node18</title>
<path fill="none" stroke="midnightblue" d="M1396,-122.085C1363.07,-115.287 1305.09,-101.38 1259,-80 1243.01,-72.5819 1242.58,-63.9882 1226,-58 1150.26,-30.6424 905.338,-16.7706 814.934,-12.4843"/>
<polygon fill="midnightblue" stroke="midnightblue" points="814.849,-8.97667 804.697,-12.0089 814.524,-15.9691 814.849,-8.97667"/>
</g>
<!-- Node37&#45;&gt;Node19 -->
<g id="edge104" class="edge"><title>Node37&#45;&gt;Node19</title>
<path fill="none" stroke="midnightblue" d="M1395.94,-117.648C1371.42,-108.649 1333.83,-94.3313 1302,-80 1282.43,-71.1857 1279.33,-64.9002 1259,-58 1180.43,-31.331 1082.87,-18.7398 1033.98,-13.7515"/>
<polygon fill="midnightblue" stroke="midnightblue" points="1034.05,-10.2412 1023.76,-12.7473 1033.37,-17.2077 1034.05,-10.2412"/>
</g>
<!-- Node37&#45;&gt;Node35 -->
<g id="edge114" class="edge"><title>Node37&#45;&gt;Node35</title>
<path fill="none" stroke="midnightblue" d="M1448.09,-121.132C1484.99,-112.706 1554.46,-96.3828 1613,-80 1614.07,-79.6996 1615.16,-79.3888 1616.26,-79.0706"/>
<polygon fill="midnightblue" stroke="midnightblue" points="1617.65,-82.3088 1626.22,-76.0793 1615.64,-75.6048 1617.65,-82.3088"/>
</g>
<!-- Node38 -->
<g id="node89" class="node"><title>Node38</title>
<polygon fill="white" stroke="#bfbfbf" points="1167,-58.5 1167,-79.5 1217,-79.5 1217,-58.5 1167,-58.5"/>
<text text-anchor="middle" x="1192" y="-66.5" font-family="Helvetica,sans-Serif" font-size="10.00">stdint.h</text>
</g>
<!-- Node37&#45;&gt;Node38 -->
<g id="edge102" class="edge"><title>Node37&#45;&gt;Node38</title>
<path fill="none" stroke="midnightblue" d="M1395.98,-120.89C1359.15,-112.177 1289.77,-95.5147 1231,-80 1229.74,-79.6667 1228.45,-79.3239 1227.16,-78.9747"/>
<polygon fill="midnightblue" stroke="midnightblue" points="1227.71,-75.4976 1217.14,-76.2252 1225.86,-82.2478 1227.71,-75.4976"/>
</g>
<!-- Node39 -->
<g id="node93" class="node"><title>Node39</title>
<polygon fill="white" stroke="#bfbfbf" points="1310.5,-58.5 1310.5,-79.5 1361.5,-79.5 1361.5,-58.5 1310.5,-58.5"/>
<text text-anchor="middle" x="1336" y="-66.5" font-family="Helvetica,sans-Serif" font-size="10.00">string.h</text>
</g>
<!-- Node37&#45;&gt;Node39 -->
<g id="edge108" class="edge"><title>Node37&#45;&gt;Node39</title>
<path fill="none" stroke="midnightblue" d="M1406.23,-116.362C1393.38,-107.696 1375.02,-95.3126 1360.29,-85.3819"/>
<polygon fill="midnightblue" stroke="midnightblue" points="1361.92,-82.2604 1351.67,-79.5707 1358.01,-88.0639 1361.92,-82.2604"/>
</g>
<!-- Node40 -->
<g id="node95" class="node"><title>Node40</title>
<polygon fill="white" stroke="#bfbfbf" points="1379,-58.5 1379,-79.5 1465,-79.5 1465,-58.5 1379,-58.5"/>
<text text-anchor="middle" x="1422" y="-66.5" font-family="Helvetica,sans-Serif" font-size="10.00">qnamespace.h</text>
</g>
<!-- Node37&#45;&gt;Node40 -->
<g id="edge110" class="edge"><title>Node37&#45;&gt;Node40</title>
<path fill="none" stroke="midnightblue" d="M1422,-116.362C1422,-108.922 1422,-98.7427 1422,-89.7276"/>
<polygon fill="midnightblue" stroke="midnightblue" points="1425.5,-89.5706 1422,-79.5707 1418.5,-89.5707 1425.5,-89.5706"/>
</g>
<!-- Node41 -->
<g id="node97" class="node"><title>Node41</title>
<polygon fill="white" stroke="#bfbfbf" points="1483,-58.5 1483,-79.5 1571,-79.5 1571,-58.5 1483,-58.5"/>
<text text-anchor="middle" x="1527" y="-66.5" font-family="Helvetica,sans-Serif" font-size="10.00">SysMgrEvent.h</text>
</g>
<!-- Node37&#45;&gt;Node41 -->
<g id="edge112" class="edge"><title>Node37&#45;&gt;Node41</title>
<path fill="none" stroke="midnightblue" d="M1441.26,-116.362C1457.47,-107.409 1480.85,-94.4908 1499.11,-84.4064"/>
<polygon fill="midnightblue" stroke="midnightblue" points="1500.8,-87.4696 1507.86,-79.5707 1497.42,-81.3422 1500.8,-87.4696"/>
</g>
<!-- Node42&#45;&gt;Node17 -->
<g id="edge118" class="edge"><title>Node42&#45;&gt;Node17</title>
<path fill="none" stroke="midnightblue" d="M1758.91,-116.393C1760.94,-101.655 1762.24,-74.8971 1749,-58 1738.43,-44.5093 1698.54,-31.0344 1666.44,-21.9941"/>
<polygon fill="midnightblue" stroke="midnightblue" points="1667.34,-18.6113 1656.77,-19.3357 1665.49,-25.361 1667.34,-18.6113"/>
</g>
<!-- Node42&#45;&gt;Node19 -->
<g id="edge122" class="edge"><title>Node42&#45;&gt;Node19</title>
<path fill="none" stroke="midnightblue" d="M1748.9,-116.486C1735.92,-100.55 1708.77,-70.7843 1678,-58 1618.04,-33.0925 1158.24,-16.1529 1033.91,-11.9947"/>
<polygon fill="midnightblue" stroke="midnightblue" points="1033.7,-8.48597 1023.59,-11.6533 1033.47,-15.4821 1033.7,-8.48597"/>
</g>
<!-- Node42&#45;&gt;Node35 -->
<g id="edge120" class="edge"><title>Node42&#45;&gt;Node35</title>
<path fill="none" stroke="midnightblue" d="M1737.26,-116.497C1720.39,-107.519 1695.89,-94.4835 1676.83,-84.3387"/>
<polygon fill="midnightblue" stroke="midnightblue" points="1678.43,-81.2289 1667.96,-79.6212 1675.14,-87.4086 1678.43,-81.2289"/>
</g>
<!-- Node43&#45;&gt;Node17 -->
<g id="edge126" class="edge"><title>Node43&#45;&gt;Node17</title>
<path fill="none" stroke="midnightblue" d="M1109.09,-116.42C1079.73,-103.408 1039.49,-80.2958 1060,-58 1094.96,-19.9995 1453.35,-12.7139 1579.42,-11.3249"/>
<polygon fill="midnightblue" stroke="midnightblue" points="1579.53,-14.8241 1589.49,-11.2212 1579.46,-7.82445 1579.53,-14.8241"/>
</g>
<!-- Node43&#45;&gt;Node19 -->
<g id="edge128" class="edge"><title>Node43&#45;&gt;Node19</title>
<path fill="none" stroke="midnightblue" d="M1090.11,-116.453C1068.43,-109.375 1043.7,-97.9566 1027,-80 1014.63,-66.698 1008.59,-46.6807 1005.67,-31.6268"/>
<polygon fill="midnightblue" stroke="midnightblue" points="1009.11,-31.0136 1004.04,-21.7095 1002.2,-32.1432 1009.11,-31.0136"/>
</g>
<!-- Node43&#45;&gt;Node38 -->
<g id="edge130" class="edge"><title>Node43&#45;&gt;Node38</title>
<path fill="none" stroke="midnightblue" d="M1146.27,-116.362C1154.24,-108.104 1165.47,-96.4725 1174.81,-86.8029"/>
<polygon fill="midnightblue" stroke="midnightblue" points="1177.37,-89.1958 1181.79,-79.5707 1172.33,-84.3336 1177.37,-89.1958"/>
</g>
<!-- Node44&#45;&gt;Node17 -->
<g id="edge136" class="edge"><title>Node44&#45;&gt;Node17</title>
<path fill="none" stroke="midnightblue" d="M1888.53,-174.271C1897.32,-160.31 1909.53,-135.408 1900,-116 1881.43,-78.1726 1863.06,-76.0791 1825,-58 1773.62,-33.5955 1708.73,-21.413 1666.57,-15.6615"/>
<polygon fill="midnightblue" stroke="midnightblue" points="1666.99,-12.1872 1656.63,-14.3668 1666.09,-19.1286 1666.99,-12.1872"/>
</g>
<!-- Node45 -->
<g id="node114" class="node"><title>Node45</title>
<polygon fill="white" stroke="#bfbfbf" points="1839,-116.5 1839,-137.5 1891,-137.5 1891,-116.5 1839,-116.5"/>
<text text-anchor="middle" x="1865" y="-124.5" font-family="Helvetica,sans-Serif" font-size="10.00">QEvent</text>
</g>
<!-- Node44&#45;&gt;Node45 -->
<g id="edge138" class="edge"><title>Node44&#45;&gt;Node45</title>
<path fill="none" stroke="midnightblue" d="M1878.07,-174.362C1875.99,-166.84 1873.14,-156.519 1870.64,-147.431"/>
<polygon fill="midnightblue" stroke="midnightblue" points="1873.95,-146.28 1867.92,-137.571 1867.2,-148.141 1873.95,-146.28"/>
</g>
<!-- Node47 -->
<g id="node118" class="node"><title>Node47</title>
<polygon fill="white" stroke="#bfbfbf" points="2218,-116.5 2218,-137.5 2274,-137.5 2274,-116.5 2218,-116.5"/>
<text text-anchor="middle" x="2246" y="-124.5" font-family="Helvetica,sans-Serif" font-size="10.00">hal/hal.h</text>
</g>
<!-- Node46&#45;&gt;Node47 -->
<g id="edge142" class="edge"><title>Node46&#45;&gt;Node47</title>
<path fill="none" stroke="midnightblue" d="M2246,-174.362C2246,-166.922 2246,-156.743 2246,-147.728"/>
<polygon fill="midnightblue" stroke="midnightblue" points="2249.5,-147.571 2246,-137.571 2242.5,-147.571 2249.5,-147.571"/>
</g>
</g>
</svg>
