<?xml version="1.0" encoding="UTF-8" standalone="no"?>
<!DOCTYPE svg PUBLIC "-//W3C//DTD SVG 1.1//EN"
 "http://www.w3.org/Graphics/SVG/1.1/DTD/svg11.dtd">
<!-- Generated by graphviz version 2.26.3 (20100126.1600)
 -->
<!-- Title: G Pages: 1 -->
<svg width="1352pt" height="262pt"
 viewBox="0.00 0.00 1352.00 262.00" xmlns="http://www.w3.org/2000/svg" xmlns:xlink="http://www.w3.org/1999/xlink">
<g id="graph1" class="graph" transform="scale(1 1) rotate(0) translate(4 258)">
<title>G</title>
<polygon fill="white" stroke="white" points="-4,5 -4,-258 1349,-258 1349,5 -4,5"/>
<!-- Node1 -->
<g id="node1" class="node"><title>Node1</title>
<polygon fill="#bfbfbf" stroke="black" points="515.5,-232.5 515.5,-253.5 616.5,-253.5 616.5,-232.5 515.5,-232.5"/>
<text text-anchor="middle" x="566" y="-240.5" font-family="Helvetica,sans-Serif" font-size="10.00">CandidateBar.cpp</text>
</g>
<!-- Node2 -->
<g id="node3" class="node"><title>Node2</title>
<a xlink:href="CandidateBar_8h.htm" target="_top" xlink:title="CandidateBar.h">
<polygon fill="white" stroke="black" points="264,-174.5 264,-195.5 354,-195.5 354,-174.5 264,-174.5"/>
<text text-anchor="middle" x="309" y="-182.5" font-family="Helvetica,sans-Serif" font-size="10.00">CandidateBar.h</text>
</a>
</g>
<!-- Node1&#45;&gt;Node2 -->
<g id="edge2" class="edge"><title>Node1&#45;&gt;Node2</title>
<path fill="none" stroke="midnightblue" d="M519.459,-232.497C475.797,-222.643 410.467,-207.899 364.194,-197.456"/>
<polygon fill="midnightblue" stroke="midnightblue" points="364.857,-194.018 354.332,-195.231 363.316,-200.846 364.857,-194.018"/>
</g>
<!-- Node15 -->
<g id="node29" class="node"><title>Node15</title>
<a xlink:href="PalmIMEHelpers_8h.htm" target="_top" xlink:title="PalmIMEHelpers.h">
<polygon fill="white" stroke="black" points="495,-116.5 495,-137.5 599,-137.5 599,-116.5 495,-116.5"/>
<text text-anchor="middle" x="547" y="-124.5" font-family="Helvetica,sans-Serif" font-size="10.00">PalmIMEHelpers.h</text>
</a>
</g>
<!-- Node1&#45;&gt;Node15 -->
<g id="edge52" class="edge"><title>Node1&#45;&gt;Node15</title>
<path fill="none" stroke="midnightblue" d="M564.247,-232.295C561.108,-213.131 554.478,-172.654 550.414,-147.843"/>
<polygon fill="midnightblue" stroke="midnightblue" points="553.82,-146.982 548.749,-137.679 546.912,-148.113 553.82,-146.982"/>
</g>
<!-- Node26 -->
<g id="node53" class="node"><title>Node26</title>
<a xlink:href="Utils_8h.htm" target="_top" xlink:title="Utils.h">
<polygon fill="white" stroke="black" points="910.5,-116.5 910.5,-137.5 955.5,-137.5 955.5,-116.5 910.5,-116.5"/>
<text text-anchor="middle" x="933" y="-124.5" font-family="Helvetica,sans-Serif" font-size="10.00">Utils.h</text>
</a>
</g>
<!-- Node1&#45;&gt;Node26 -->
<g id="edge54" class="edge"><title>Node1&#45;&gt;Node26</title>
<path fill="none" stroke="midnightblue" d="M568.63,-232.326C573.072,-216.738 583.636,-188.071 604,-174 651.618,-141.097 826.676,-130.899 900.171,-128.027"/>
<polygon fill="midnightblue" stroke="midnightblue" points="900.386,-131.522 910.25,-127.655 900.128,-124.526 900.386,-131.522"/>
</g>
<!-- Node35 -->
<g id="node74" class="node"><title>Node35</title>
<polygon fill="white" stroke="#bfbfbf" points="613,-174.5 613,-195.5 729,-195.5 729,-174.5 613,-174.5"/>
<text text-anchor="middle" x="671" y="-182.5" font-family="Helvetica,sans-Serif" font-size="10.00">qpropertyanimation.h</text>
</g>
<!-- Node1&#45;&gt;Node35 -->
<g id="edge78" class="edge"><title>Node1&#45;&gt;Node35</title>
<path fill="none" stroke="midnightblue" d="M585.259,-232.362C601.466,-223.409 624.853,-210.491 643.109,-200.406"/>
<polygon fill="midnightblue" stroke="midnightblue" points="644.802,-203.47 651.863,-195.571 641.418,-197.342 644.802,-203.47"/>
</g>
<!-- Node3 -->
<g id="node5" class="node"><title>Node3</title>
<a xlink:href="IMEDataInterface_8h.htm" target="_top" xlink:title="IMEDataInterface.h">
<polygon fill="white" stroke="black" points="303,-116.5 303,-137.5 411,-137.5 411,-116.5 303,-116.5"/>
<text text-anchor="middle" x="357" y="-124.5" font-family="Helvetica,sans-Serif" font-size="10.00">IMEDataInterface.h</text>
</a>
</g>
<!-- Node2&#45;&gt;Node3 -->
<g id="edge4" class="edge"><title>Node2&#45;&gt;Node3</title>
<path fill="none" stroke="midnightblue" d="M317.804,-174.362C324.502,-166.268 333.884,-154.932 341.789,-145.38"/>
<polygon fill="midnightblue" stroke="midnightblue" points="344.573,-147.506 348.252,-137.571 339.18,-143.043 344.573,-147.506"/>
</g>
<!-- Node12 -->
<g id="node23" class="node"><title>Node12</title>
<polygon fill="white" stroke="#bfbfbf" points="428.5,-116.5 428.5,-137.5 477.5,-137.5 477.5,-116.5 428.5,-116.5"/>
<text text-anchor="middle" x="453" y="-124.5" font-family="Helvetica,sans-Serif" font-size="10.00">qrect.h</text>
</g>
<!-- Node2&#45;&gt;Node12 -->
<g id="edge22" class="edge"><title>Node2&#45;&gt;Node12</title>
<path fill="none" stroke="midnightblue" d="M335.077,-174.497C358.506,-165.06 393.069,-151.139 418.725,-140.805"/>
<polygon fill="midnightblue" stroke="midnightblue" points="420.112,-144.02 428.08,-137.037 417.497,-137.527 420.112,-144.02"/>
</g>
<!-- Node13 -->
<g id="node25" class="node"><title>Node13</title>
<polygon fill="white" stroke="#bfbfbf" points="149,-116.5 149,-137.5 219,-137.5 219,-116.5 149,-116.5"/>
<text text-anchor="middle" x="184" y="-124.5" font-family="Helvetica,sans-Serif" font-size="10.00">qstringlist.h</text>
</g>
<!-- Node2&#45;&gt;Node13 -->
<g id="edge24" class="edge"><title>Node2&#45;&gt;Node13</title>
<path fill="none" stroke="midnightblue" d="M286.363,-174.497C266.752,-165.397 238.154,-152.127 216.167,-141.925"/>
<polygon fill="midnightblue" stroke="midnightblue" points="217.435,-138.655 206.891,-137.621 214.488,-145.005 217.435,-138.655"/>
</g>
<!-- Node14 -->
<g id="node27" class="node"><title>Node14</title>
<polygon fill="white" stroke="#bfbfbf" points="236.5,-116.5 236.5,-137.5 285.5,-137.5 285.5,-116.5 236.5,-116.5"/>
<text text-anchor="middle" x="261" y="-124.5" font-family="Helvetica,sans-Serif" font-size="10.00">qfont.h</text>
</g>
<!-- Node2&#45;&gt;Node14 -->
<g id="edge26" class="edge"><title>Node2&#45;&gt;Node14</title>
<path fill="none" stroke="midnightblue" d="M300.196,-174.362C293.498,-166.268 284.116,-154.932 276.211,-145.38"/>
<polygon fill="midnightblue" stroke="midnightblue" points="278.82,-143.043 269.748,-137.571 273.427,-147.506 278.82,-143.043"/>
</g>
<!-- Node2&#45;&gt;Node15 -->
<g id="edge28" class="edge"><title>Node2&#45;&gt;Node15</title>
<path fill="none" stroke="midnightblue" d="M352.1,-174.497C391.908,-164.795 451.165,-150.355 493.883,-139.945"/>
<polygon fill="midnightblue" stroke="midnightblue" points="494.932,-143.291 503.819,-137.523 493.275,-136.49 494.932,-143.291"/>
</g>
<!-- Node24 -->
<g id="node47" class="node"><title>Node24</title>
<a xlink:href="CandidateBarRemote_8h.htm" target="_top" xlink:title="CandidateBarRemote.h">
<polygon fill="white" stroke="black" points="4.5,-116.5 4.5,-137.5 131.5,-137.5 131.5,-116.5 4.5,-116.5"/>
<text text-anchor="middle" x="68" y="-124.5" font-family="Helvetica,sans-Serif" font-size="10.00">CandidateBarRemote.h</text>
</a>
</g>
<!-- Node2&#45;&gt;Node24 -->
<g id="edge46" class="edge"><title>Node2&#45;&gt;Node24</title>
<path fill="none" stroke="midnightblue" d="M263.754,-175.357C221.721,-165.695 159.462,-150.757 116.444,-140.041"/>
<polygon fill="midnightblue" stroke="midnightblue" points="117.04,-136.582 106.489,-137.55 115.34,-143.373 117.04,-136.582"/>
</g>
<!-- Node4 -->
<g id="node7" class="node"><title>Node4</title>
<a xlink:href="IMEData_8h.htm" target="_top" xlink:title="IMEData.h">
<polygon fill="white" stroke="black" points="279,-58.5 279,-79.5 345,-79.5 345,-58.5 279,-58.5"/>
<text text-anchor="middle" x="312" y="-66.5" font-family="Helvetica,sans-Serif" font-size="10.00">IMEData.h</text>
</a>
</g>
<!-- Node3&#45;&gt;Node4 -->
<g id="edge6" class="edge"><title>Node3&#45;&gt;Node4</title>
<path fill="none" stroke="midnightblue" d="M348.746,-116.362C342.53,-108.35 333.849,-97.1605 326.485,-87.6696"/>
<polygon fill="midnightblue" stroke="midnightblue" points="329.097,-85.326 320.201,-79.5707 323.566,-89.617 329.097,-85.326"/>
</g>
<!-- Node5 -->
<g id="node9" class="node"><title>Node5</title>
<polygon fill="white" stroke="#bfbfbf" points="185.5,-0.5 185.5,-21.5 232.5,-21.5 232.5,-0.5 185.5,-0.5"/>
<text text-anchor="middle" x="209" y="-8.5" font-family="Helvetica,sans-Serif" font-size="10.00">QRect</text>
</g>
<!-- Node4&#45;&gt;Node5 -->
<g id="edge8" class="edge"><title>Node4&#45;&gt;Node5</title>
<path fill="none" stroke="midnightblue" d="M293.108,-58.3619C277.282,-49.4502 254.477,-36.6087 236.605,-26.5447"/>
<polygon fill="midnightblue" stroke="midnightblue" points="238.203,-23.4276 227.772,-21.5707 234.768,-29.5271 238.203,-23.4276"/>
</g>
<!-- Node6 -->
<g id="node11" class="node"><title>Node6</title>
<polygon fill="white" stroke="#bfbfbf" points="249.5,-0.5 249.5,-21.5 294.5,-21.5 294.5,-0.5 249.5,-0.5"/>
<text text-anchor="middle" x="272" y="-8.5" font-family="Helvetica,sans-Serif" font-size="10.00">QSize</text>
</g>
<!-- Node4&#45;&gt;Node6 -->
<g id="edge10" class="edge"><title>Node4&#45;&gt;Node6</title>
<path fill="none" stroke="midnightblue" d="M304.663,-58.3619C299.194,-50.4313 291.578,-39.3885 285.076,-29.9606"/>
<polygon fill="midnightblue" stroke="midnightblue" points="287.849,-27.8157 279.29,-21.5707 282.086,-31.7899 287.849,-27.8157"/>
</g>
<!-- Node7 -->
<g id="node13" class="node"><title>Node7</title>
<polygon fill="white" stroke="#bfbfbf" points="311.5,-0.5 311.5,-21.5 392.5,-21.5 392.5,-0.5 311.5,-0.5"/>
<text text-anchor="middle" x="352" y="-8.5" font-family="Helvetica,sans-Serif" font-size="10.00">QTouchEvent</text>
</g>
<!-- Node4&#45;&gt;Node7 -->
<g id="edge12" class="edge"><title>Node4&#45;&gt;Node7</title>
<path fill="none" stroke="midnightblue" d="M319.337,-58.3619C324.806,-50.4313 332.422,-39.3885 338.924,-29.9606"/>
<polygon fill="midnightblue" stroke="midnightblue" points="341.914,-31.7899 344.71,-21.5707 336.151,-27.8157 341.914,-31.7899"/>
</g>
<!-- Node8 -->
<g id="node15" class="node"><title>Node8</title>
<polygon fill="white" stroke="#bfbfbf" points="409.5,-0.5 409.5,-21.5 468.5,-21.5 468.5,-0.5 409.5,-0.5"/>
<text text-anchor="middle" x="439" y="-8.5" font-family="Helvetica,sans-Serif" font-size="10.00">QPainter</text>
</g>
<!-- Node4&#45;&gt;Node8 -->
<g id="edge14" class="edge"><title>Node4&#45;&gt;Node8</title>
<path fill="none" stroke="midnightblue" d="M334.999,-58.4966C355.013,-49.3562 384.241,-36.0082 406.619,-25.7883"/>
<polygon fill="midnightblue" stroke="midnightblue" points="408.101,-28.9592 415.743,-21.6212 405.193,-22.5918 408.101,-28.9592"/>
</g>
<!-- Node9 -->
<g id="node17" class="node"><title>Node9</title>
<polygon fill="white" stroke="#bfbfbf" points="485.5,-0.5 485.5,-21.5 544.5,-21.5 544.5,-0.5 485.5,-0.5"/>
<text text-anchor="middle" x="515" y="-8.5" font-family="Helvetica,sans-Serif" font-size="10.00">QRegion</text>
</g>
<!-- Node4&#45;&gt;Node9 -->
<g id="edge16" class="edge"><title>Node4&#45;&gt;Node9</title>
<path fill="none" stroke="midnightblue" d="M345.196,-59.5892C376.506,-50.703 425.014,-36.9105 475.376,-22.4599"/>
<polygon fill="midnightblue" stroke="midnightblue" points="476.487,-25.7825 485.133,-19.6588 474.555,-19.0543 476.487,-25.7825"/>
</g>
<!-- Node10 -->
<g id="node19" class="node"><title>Node10</title>
<polygon fill="white" stroke="#bfbfbf" points="-0.5,-0.5 -0.5,-21.5 52.5,-21.5 52.5,-0.5 -0.5,-0.5"/>
<text text-anchor="middle" x="26" y="-8.5" font-family="Helvetica,sans-Serif" font-size="10.00">QString</text>
</g>
<!-- Node4&#45;&gt;Node10 -->
<g id="edge18" class="edge"><title>Node4&#45;&gt;Node10</title>
<path fill="none" stroke="midnightblue" d="M278.837,-64.0844C232.384,-56.9183 145.176,-42.4452 62.4608,-22.1743"/>
<polygon fill="midnightblue" stroke="midnightblue" points="63.2085,-18.7538 52.6596,-19.7394 61.5207,-25.5473 63.2085,-18.7538"/>
</g>
<!-- Node11 -->
<g id="node21" class="node"><title>Node11</title>
<polygon fill="white" stroke="#bfbfbf" points="70,-0.5 70,-21.5 168,-21.5 168,-0.5 70,-0.5"/>
<text text-anchor="middle" x="119" y="-8.5" font-family="Helvetica,sans-Serif" font-size="10.00">palmimedefines.h</text>
</g>
<!-- Node4&#45;&gt;Node11 -->
<g id="edge20" class="edge"><title>Node4&#45;&gt;Node11</title>
<path fill="none" stroke="midnightblue" d="M278.822,-59.0294C247.138,-49.5078 199.148,-35.0859 164.023,-24.5302"/>
<polygon fill="midnightblue" stroke="midnightblue" points="164.609,-21.0519 154.025,-21.5257 162.595,-27.7557 164.609,-21.0519"/>
</g>
<!-- Node16 -->
<g id="node31" class="node"><title>Node16</title>
<polygon fill="white" stroke="#bfbfbf" points="634,-58.5 634,-79.5 680,-79.5 680,-58.5 634,-58.5"/>
<text text-anchor="middle" x="657" y="-66.5" font-family="Helvetica,sans-Serif" font-size="10.00">vector</text>
</g>
<!-- Node15&#45;&gt;Node16 -->
<g id="edge30" class="edge"><title>Node15&#45;&gt;Node16</title>
<path fill="none" stroke="midnightblue" d="M566.92,-116.497C583.946,-107.519 608.669,-94.4835 627.909,-84.3387"/>
<polygon fill="midnightblue" stroke="midnightblue" points="629.643,-87.3814 636.856,-79.6212 626.378,-81.1894 629.643,-87.3814"/>
</g>
<!-- Node17 -->
<g id="node33" class="node"><title>Node17</title>
<polygon fill="white" stroke="#bfbfbf" points="410,-58.5 410,-79.5 464,-79.5 464,-58.5 410,-58.5"/>
<text text-anchor="middle" x="437" y="-66.5" font-family="Helvetica,sans-Serif" font-size="10.00">qcolor.h</text>
</g>
<!-- Node15&#45;&gt;Node17 -->
<g id="edge32" class="edge"><title>Node15&#45;&gt;Node17</title>
<path fill="none" stroke="midnightblue" d="M527.08,-116.497C510.054,-107.519 485.331,-94.4835 466.091,-84.3387"/>
<polygon fill="midnightblue" stroke="midnightblue" points="467.622,-81.1894 457.144,-79.6212 464.357,-87.3814 467.622,-81.1894"/>
</g>
<!-- Node18 -->
<g id="node35" class="node"><title>Node18</title>
<polygon fill="white" stroke="#bfbfbf" points="482,-58.5 482,-79.5 536,-79.5 536,-58.5 482,-58.5"/>
<text text-anchor="middle" x="509" y="-66.5" font-family="Helvetica,sans-Serif" font-size="10.00">qpoint.h</text>
</g>
<!-- Node15&#45;&gt;Node18 -->
<g id="edge34" class="edge"><title>Node15&#45;&gt;Node18</title>
<path fill="none" stroke="midnightblue" d="M540.03,-116.362C534.834,-108.431 527.599,-97.3885 521.422,-87.9606"/>
<polygon fill="midnightblue" stroke="midnightblue" points="524.334,-86.0172 515.926,-79.5707 518.478,-89.8534 524.334,-86.0172"/>
</g>
<!-- Node19 -->
<g id="node37" class="node"><title>Node19</title>
<a xlink:href="Logging_8h.htm" target="_top" xlink:title="Logging.h">
<polygon fill="white" stroke="black" points="553.5,-58.5 553.5,-79.5 616.5,-79.5 616.5,-58.5 553.5,-58.5"/>
<text text-anchor="middle" x="585" y="-66.5" font-family="Helvetica,sans-Serif" font-size="10.00">Logging.h</text>
</a>
</g>
<!-- Node15&#45;&gt;Node19 -->
<g id="edge36" class="edge"><title>Node15&#45;&gt;Node19</title>
<path fill="none" stroke="midnightblue" d="M553.97,-116.362C559.166,-108.431 566.401,-97.3885 572.578,-87.9606"/>
<polygon fill="midnightblue" stroke="midnightblue" points="575.522,-89.8534 578.074,-79.5707 569.666,-86.0172 575.522,-89.8534"/>
</g>
<!-- Node20 -->
<g id="node39" class="node"><title>Node20</title>
<a xlink:href="Common_8h.htm" target="_top" xlink:title="Common.h">
<polygon fill="white" stroke="black" points="758.5,-0.5 758.5,-21.5 825.5,-21.5 825.5,-0.5 758.5,-0.5"/>
<text text-anchor="middle" x="792" y="-8.5" font-family="Helvetica,sans-Serif" font-size="10.00">Common.h</text>
</a>
</g>
<!-- Node19&#45;&gt;Node20 -->
<g id="edge38" class="edge"><title>Node19&#45;&gt;Node20</title>
<path fill="none" stroke="midnightblue" d="M616.89,-60.0646C652.153,-50.1843 709.167,-34.2092 748.509,-23.1859"/>
<polygon fill="midnightblue" stroke="midnightblue" points="749.67,-26.4954 758.355,-20.4271 747.782,-19.755 749.67,-26.4954"/>
</g>
<!-- Node21 -->
<g id="node41" class="node"><title>Node21</title>
<polygon fill="white" stroke="#bfbfbf" points="561.5,-0.5 561.5,-21.5 608.5,-21.5 608.5,-0.5 561.5,-0.5"/>
<text text-anchor="middle" x="585" y="-8.5" font-family="Helvetica,sans-Serif" font-size="10.00">stdio.h</text>
</g>
<!-- Node19&#45;&gt;Node21 -->
<g id="edge40" class="edge"><title>Node19&#45;&gt;Node21</title>
<path fill="none" stroke="midnightblue" d="M585,-58.3619C585,-50.9219 585,-40.7427 585,-31.7276"/>
<polygon fill="midnightblue" stroke="midnightblue" points="588.5,-31.5706 585,-21.5707 581.5,-31.5707 588.5,-31.5706"/>
</g>
<!-- Node22 -->
<g id="node43" class="node"><title>Node22</title>
<polygon fill="white" stroke="#bfbfbf" points="864.5,-0.5 864.5,-21.5 905.5,-21.5 905.5,-0.5 864.5,-0.5"/>
<text text-anchor="middle" x="885" y="-8.5" font-family="Helvetica,sans-Serif" font-size="10.00">glib.h</text>
</g>
<!-- Node19&#45;&gt;Node22 -->
<g id="edge42" class="edge"><title>Node19&#45;&gt;Node22</title>
<path fill="none" stroke="midnightblue" d="M616.806,-59.9514C619.569,-59.2572 622.329,-58.5958 625,-58 716.996,-37.4791 741.466,-39.9404 834,-22 840.536,-20.7329 847.523,-19.2866 854.163,-17.8685"/>
<polygon fill="midnightblue" stroke="midnightblue" points="855.166,-21.2324 864.197,-15.693 853.683,-14.3913 855.166,-21.2324"/>
</g>
<!-- Node23 -->
<g id="node45" class="node"><title>Node23</title>
<polygon fill="white" stroke="#bfbfbf" points="625.5,-0.5 625.5,-21.5 696.5,-21.5 696.5,-0.5 625.5,-0.5"/>
<text text-anchor="middle" x="661" y="-8.5" font-family="Helvetica,sans-Serif" font-size="10.00">PmLogLib.h</text>
</g>
<!-- Node19&#45;&gt;Node23 -->
<g id="edge44" class="edge"><title>Node19&#45;&gt;Node23</title>
<path fill="none" stroke="midnightblue" d="M598.94,-58.3619C610.188,-49.7773 626.216,-37.5459 639.165,-27.6636"/>
<polygon fill="midnightblue" stroke="midnightblue" points="641.323,-30.4198 647.149,-21.5707 637.076,-24.8551 641.323,-30.4198"/>
</g>
<!-- Node24&#45;&gt;Node2 -->
<g id="edge48" class="edge"><title>Node24&#45;&gt;Node2</title>
<path fill="none" stroke="midnightblue" d="M117.069,-137.523C159.054,-147.21 219.022,-161.611 260.764,-172.011"/>
<polygon fill="midnightblue" stroke="midnightblue" points="260.146,-175.464 270.697,-174.497 261.846,-168.673 260.146,-175.464"/>
</g>
<!-- Node25 -->
<g id="node50" class="node"><title>Node25</title>
<polygon fill="white" stroke="#bfbfbf" points="29,-58.5 29,-79.5 107,-79.5 107,-58.5 29,-58.5"/>
<text text-anchor="middle" x="68" y="-66.5" font-family="Helvetica,sans-Serif" font-size="10.00">lunaservice.h</text>
</g>
<!-- Node24&#45;&gt;Node25 -->
<g id="edge50" class="edge"><title>Node24&#45;&gt;Node25</title>
<path fill="none" stroke="midnightblue" d="M68,-116.362C68,-108.922 68,-98.7427 68,-89.7276"/>
<polygon fill="midnightblue" stroke="midnightblue" points="71.5001,-89.5706 68,-79.5707 64.5001,-89.5707 71.5001,-89.5706"/>
</g>
<!-- Node26&#45;&gt;Node16 -->
<g id="edge62" class="edge"><title>Node26&#45;&gt;Node16</title>
<path fill="none" stroke="midnightblue" d="M910.22,-123.71C868.341,-117.43 776.216,-102.534 689.973,-80.0006"/>
<polygon fill="midnightblue" stroke="midnightblue" points="690.865,-76.6162 680.302,-77.4344 689.069,-83.3821 690.865,-76.6162"/>
</g>
<!-- Node26&#45;&gt;Node20 -->
<g id="edge56" class="edge"><title>Node26&#45;&gt;Node20</title>
<path fill="none" stroke="midnightblue" d="M920.584,-116.374C904.597,-102.734 875.904,-78.3915 851,-58 838.727,-47.9509 824.86,-36.8895 813.654,-28.0233"/>
<polygon fill="midnightblue" stroke="midnightblue" points="815.693,-25.1732 805.675,-21.7243 811.355,-30.6676 815.693,-25.1732"/>
</g>
<!-- Node26&#45;&gt;Node22 -->
<g id="edge76" class="edge"><title>Node26&#45;&gt;Node22</title>
<path fill="none" stroke="midnightblue" d="M928.57,-116.295C920.569,-96.9588 903.589,-55.9229 893.349,-31.1767"/>
<polygon fill="midnightblue" stroke="midnightblue" points="896.477,-29.5811 889.419,-21.6792 890.008,-32.2576 896.477,-29.5811"/>
</g>
<!-- Node27 -->
<g id="node56" class="node"><title>Node27</title>
<polygon fill="white" stroke="#bfbfbf" points="936,-58.5 936,-79.5 980,-79.5 980,-58.5 936,-58.5"/>
<text text-anchor="middle" x="958" y="-66.5" font-family="Helvetica,sans-Serif" font-size="10.00">time.h</text>
</g>
<!-- Node26&#45;&gt;Node27 -->
<g id="edge58" class="edge"><title>Node26&#45;&gt;Node27</title>
<path fill="none" stroke="midnightblue" d="M937.585,-116.362C940.898,-108.677 945.47,-98.0686 949.448,-88.8399"/>
<polygon fill="midnightblue" stroke="midnightblue" points="952.699,-90.1393 953.444,-79.5707 946.271,-87.3685 952.699,-90.1393"/>
</g>
<!-- Node28 -->
<g id="node58" class="node"><title>Node28</title>
<polygon fill="white" stroke="#bfbfbf" points="997.5,-58.5 997.5,-79.5 1040.5,-79.5 1040.5,-58.5 997.5,-58.5"/>
<text text-anchor="middle" x="1019" y="-66.5" font-family="Helvetica,sans-Serif" font-size="10.00">string</text>
</g>
<!-- Node26&#45;&gt;Node28 -->
<g id="edge60" class="edge"><title>Node26&#45;&gt;Node28</title>
<path fill="none" stroke="midnightblue" d="M948.774,-116.362C961.624,-107.696 979.985,-95.3126 994.71,-85.3819"/>
<polygon fill="midnightblue" stroke="midnightblue" points="996.993,-88.0639 1003.33,-79.5707 993.079,-82.2604 996.993,-88.0639"/>
</g>
<!-- Node29 -->
<g id="node61" class="node"><title>Node29</title>
<polygon fill="white" stroke="#bfbfbf" points="1058,-58.5 1058,-79.5 1112,-79.5 1112,-58.5 1058,-58.5"/>
<text text-anchor="middle" x="1085" y="-66.5" font-family="Helvetica,sans-Serif" font-size="10.00">sstream</text>
</g>
<!-- Node26&#45;&gt;Node29 -->
<g id="edge64" class="edge"><title>Node26&#45;&gt;Node29</title>
<path fill="none" stroke="midnightblue" d="M955.756,-118.317C980.31,-108.947 1019.77,-93.892 1048.63,-82.8776"/>
<polygon fill="midnightblue" stroke="midnightblue" points="1049.88,-86.1464 1057.98,-79.3113 1047.39,-79.6064 1049.88,-86.1464"/>
</g>
<!-- Node30 -->
<g id="node63" class="node"><title>Node30</title>
<polygon fill="white" stroke="#bfbfbf" points="1129.5,-58.5 1129.5,-79.5 1186.5,-79.5 1186.5,-58.5 1129.5,-58.5"/>
<text text-anchor="middle" x="1158" y="-66.5" font-family="Helvetica,sans-Serif" font-size="10.00">iostream</text>
</g>
<!-- Node26&#45;&gt;Node30 -->
<g id="edge66" class="edge"><title>Node26&#45;&gt;Node30</title>
<path fill="none" stroke="midnightblue" d="M955.656,-121.677C989.334,-113.69 1054.81,-97.8858 1119.41,-80.3635"/>
<polygon fill="midnightblue" stroke="midnightblue" points="1120.63,-83.6608 1129.35,-77.6523 1118.78,-76.9076 1120.63,-83.6608"/>
</g>
<!-- Node31 -->
<g id="node65" class="node"><title>Node31</title>
<polygon fill="white" stroke="#bfbfbf" points="1204,-58.5 1204,-79.5 1256,-79.5 1256,-58.5 1204,-58.5"/>
<text text-anchor="middle" x="1230" y="-66.5" font-family="Helvetica,sans-Serif" font-size="10.00">regex.h</text>
</g>
<!-- Node26&#45;&gt;Node31 -->
<g id="edge68" class="edge"><title>Node26&#45;&gt;Node31</title>
<path fill="none" stroke="midnightblue" d="M955.632,-123.93C999.72,-117.739 1100.3,-102.592 1193.83,-80.0692"/>
<polygon fill="midnightblue" stroke="midnightblue" points="1194.84,-83.4239 1203.73,-77.6504 1193.18,-76.6239 1194.84,-83.4239"/>
</g>
<!-- Node32 -->
<g id="node67" class="node"><title>Node32</title>
<polygon fill="white" stroke="#bfbfbf" points="1273.5,-58.5 1273.5,-79.5 1344.5,-79.5 1344.5,-58.5 1273.5,-58.5"/>
<text text-anchor="middle" x="1309" y="-66.5" font-family="Helvetica,sans-Serif" font-size="10.00">QByteArray</text>
</g>
<!-- Node26&#45;&gt;Node32 -->
<g id="edge70" class="edge"><title>Node26&#45;&gt;Node32</title>
<path fill="none" stroke="midnightblue" d="M955.679,-124.616C1008.13,-118.929 1142,-103.412 1262.89,-80.281"/>
<polygon fill="midnightblue" stroke="midnightblue" points="1263.9,-83.6503 1273.05,-78.3121 1262.57,-76.7781 1263.9,-83.6503"/>
</g>
<!-- Node33 -->
<g id="node69" class="node"><title>Node33</title>
<polygon fill="white" stroke="#bfbfbf" points="698,-58.5 698,-79.5 736,-79.5 736,-58.5 698,-58.5"/>
<text text-anchor="middle" x="717" y="-66.5" font-family="Helvetica,sans-Serif" font-size="10.00">QUrl</text>
</g>
<!-- Node26&#45;&gt;Node33 -->
<g id="edge72" class="edge"><title>Node26&#45;&gt;Node33</title>
<path fill="none" stroke="midnightblue" d="M910.453,-122.353C876.565,-115.158 810.387,-100.293 745.692,-79.9468"/>
<polygon fill="midnightblue" stroke="midnightblue" points="746.753,-76.6114 736.162,-76.9053 744.624,-83.28 746.753,-76.6114"/>
</g>
<!-- Node34 -->
<g id="node71" class="node"><title>Node34</title>
<polygon fill="white" stroke="#bfbfbf" points="754,-58.5 754,-79.5 842,-79.5 842,-58.5 754,-58.5"/>
<text text-anchor="middle" x="798" y="-66.5" font-family="Helvetica,sans-Serif" font-size="10.00">QGraphicsItem</text>
</g>
<!-- Node26&#45;&gt;Node34 -->
<g id="edge74" class="edge"><title>Node26&#45;&gt;Node34</title>
<path fill="none" stroke="midnightblue" d="M910.404,-117.292C888.934,-108.068 856.372,-94.0784 831.812,-83.5266"/>
<polygon fill="midnightblue" stroke="midnightblue" points="833.068,-80.2571 822.499,-79.5254 830.305,-86.6887 833.068,-80.2571"/>
</g>
</g>
</svg>
