<?xml version="1.0" encoding="UTF-8" standalone="no"?>
<!DOCTYPE svg PUBLIC "-//W3C//DTD SVG 1.1//EN"
 "http://www.w3.org/Graphics/SVG/1.1/DTD/svg11.dtd">
<!-- Generated by graphviz version 2.26.3 (20100126.1600)
 -->
<!-- Title: G Pages: 1 -->
<svg width="377pt" height="204pt"
 viewBox="0.00 0.00 377.00 204.00" xmlns="http://www.w3.org/2000/svg" xmlns:xlink="http://www.w3.org/1999/xlink">
<g id="graph1" class="graph" transform="scale(1 1) rotate(0) translate(4 200)">
<title>G</title>
<polygon fill="white" stroke="white" points="-4,5 -4,-200 374,-200 374,5 -4,5"/>
<!-- Node1 -->
<g id="node1" class="node"><title>Node1</title>
<polygon fill="#bfbfbf" stroke="black" points="104.5,-174.5 104.5,-195.5 231.5,-195.5 231.5,-174.5 104.5,-174.5"/>
<text text-anchor="middle" x="168" y="-182.5" font-family="Helvetica,sans-Serif" font-size="10.00">CandidateBarRemote.h</text>
</g>
<!-- Node2 -->
<g id="node3" class="node"><title>Node2</title>
<a xlink:href="CandidateBar_8h.htm" target="_top" xlink:title="CandidateBar.h">
<polygon fill="white" stroke="black" points="123,-116.5 123,-137.5 213,-137.5 213,-116.5 123,-116.5"/>
<text text-anchor="middle" x="168" y="-124.5" font-family="Helvetica,sans-Serif" font-size="10.00">CandidateBar.h</text>
</a>
</g>
<!-- Node1&#45;&gt;Node2 -->
<g id="edge2" class="edge"><title>Node1&#45;&gt;Node2</title>
<path fill="none" stroke="midnightblue" d="M161.495,-164.191C160.941,-155.168 161.326,-144.994 162.648,-137.571"/>
<polygon fill="midnightblue" stroke="midnightblue" points="158.043,-164.814 162.636,-174.362 165,-164.034 158.043,-164.814"/>
</g>
<!-- Node8 -->
<g id="node16" class="node"><title>Node8</title>
<a xlink:href="CandidateBarRemote_8cpp.htm" target="_top" xlink:title="CandidateBarRemote.cpp">
<polygon fill="white" stroke="black" points="231,-116.5 231,-137.5 369,-137.5 369,-116.5 231,-116.5"/>
<text text-anchor="middle" x="300" y="-124.5" font-family="Helvetica,sans-Serif" font-size="10.00">CandidateBarRemote.cpp</text>
</a>
</g>
<!-- Node1&#45;&gt;Node8 -->
<g id="edge16" class="edge"><title>Node1&#45;&gt;Node8</title>
<path fill="none" stroke="midnightblue" d="M201.357,-170.343C224.555,-160.15 254.943,-146.798 275.828,-137.621"/>
<polygon fill="midnightblue" stroke="midnightblue" points="199.651,-167.27 191.904,-174.497 202.467,-173.678 199.651,-167.27"/>
</g>
<!-- Node2&#45;&gt;Node1 -->
<g id="edge6" class="edge"><title>Node2&#45;&gt;Node1</title>
<path fill="none" stroke="midnightblue" d="M174.5,-147.728C175.059,-156.743 174.681,-166.922 173.364,-174.362"/>
<polygon fill="midnightblue" stroke="midnightblue" points="177.953,-147.114 173.352,-137.571 170.997,-147.9 177.953,-147.114"/>
</g>
<!-- Node3 -->
<g id="node5" class="node"><title>Node3</title>
<a xlink:href="CandidateBar_8cpp.htm" target="_top" xlink:title="CandidateBar.cpp">
<polygon fill="white" stroke="black" points="-0.5,-58.5 -0.5,-79.5 100.5,-79.5 100.5,-58.5 -0.5,-58.5"/>
<text text-anchor="middle" x="50" y="-66.5" font-family="Helvetica,sans-Serif" font-size="10.00">CandidateBar.cpp</text>
</a>
</g>
<!-- Node2&#45;&gt;Node3 -->
<g id="edge4" class="edge"><title>Node2&#45;&gt;Node3</title>
<path fill="none" stroke="midnightblue" d="M137.624,-112.069C116.959,-101.912 90.1113,-88.7157 71.6087,-79.6212"/>
<polygon fill="midnightblue" stroke="midnightblue" points="136.113,-115.226 146.631,-116.497 139.201,-108.944 136.113,-115.226"/>
</g>
<!-- Node4 -->
<g id="node8" class="node"><title>Node4</title>
<a xlink:href="PhoneKeyboard_8h.htm" target="_top" xlink:title="PhoneKeyboard.h">
<polygon fill="white" stroke="black" points="117.5,-58.5 117.5,-79.5 218.5,-79.5 218.5,-58.5 117.5,-58.5"/>
<text text-anchor="middle" x="168" y="-66.5" font-family="Helvetica,sans-Serif" font-size="10.00">PhoneKeyboard.h</text>
</a>
</g>
<!-- Node2&#45;&gt;Node4 -->
<g id="edge8" class="edge"><title>Node2&#45;&gt;Node4</title>
<path fill="none" stroke="midnightblue" d="M168,-106.191C168,-97.1684 168,-86.9941 168,-79.5707"/>
<polygon fill="midnightblue" stroke="midnightblue" points="164.5,-106.362 168,-116.362 171.5,-106.362 164.5,-106.362"/>
</g>
<!-- Node6 -->
<g id="node12" class="node"><title>Node6</title>
<a xlink:href="TabletKeyboard_8h.htm" target="_top" xlink:title="TabletKeyboard.h">
<polygon fill="white" stroke="black" points="241.5,-58.5 241.5,-79.5 340.5,-79.5 340.5,-58.5 241.5,-58.5"/>
<text text-anchor="middle" x="291" y="-66.5" font-family="Helvetica,sans-Serif" font-size="10.00">TabletKeyboard.h</text>
</a>
</g>
<!-- Node2&#45;&gt;Node6 -->
<g id="edge12" class="edge"><title>Node2&#45;&gt;Node6</title>
<path fill="none" stroke="midnightblue" d="M199.373,-112.206C220.951,-102.031 249.102,-88.7567 268.476,-79.6212"/>
<polygon fill="midnightblue" stroke="midnightblue" points="197.826,-109.066 190.274,-116.497 200.812,-115.397 197.826,-109.066"/>
</g>
<!-- Node5 -->
<g id="node10" class="node"><title>Node5</title>
<a xlink:href="PhoneKeyboard_8cpp.htm" target="_top" xlink:title="PhoneKeyboard.cpp">
<polygon fill="white" stroke="black" points="109,-0.5 109,-21.5 221,-21.5 221,-0.5 109,-0.5"/>
<text text-anchor="middle" x="165" y="-8.5" font-family="Helvetica,sans-Serif" font-size="10.00">PhoneKeyboard.cpp</text>
</a>
</g>
<!-- Node4&#45;&gt;Node5 -->
<g id="edge10" class="edge"><title>Node4&#45;&gt;Node5</title>
<path fill="none" stroke="midnightblue" d="M166.924,-48.1906C166.457,-39.1684 165.931,-28.9941 165.547,-21.5707"/>
<polygon fill="midnightblue" stroke="midnightblue" points="163.438,-48.5561 167.45,-58.3619 170.428,-48.1944 163.438,-48.5561"/>
</g>
<!-- Node7 -->
<g id="node14" class="node"><title>Node7</title>
<a xlink:href="TabletKeyboard_8cpp.htm" target="_top" xlink:title="TabletKeyboard.cpp">
<polygon fill="white" stroke="black" points="239,-0.5 239,-21.5 349,-21.5 349,-0.5 239,-0.5"/>
<text text-anchor="middle" x="294" y="-8.5" font-family="Helvetica,sans-Serif" font-size="10.00">TabletKeyboard.cpp</text>
</a>
</g>
<!-- Node6&#45;&gt;Node7 -->
<g id="edge14" class="edge"><title>Node6&#45;&gt;Node7</title>
<path fill="none" stroke="midnightblue" d="M292.076,-48.1906C292.543,-39.1684 293.069,-28.9941 293.453,-21.5707"/>
<polygon fill="midnightblue" stroke="midnightblue" points="288.572,-48.1944 291.55,-58.3619 295.562,-48.5561 288.572,-48.1944"/>
</g>
</g>
</svg>
