<?xml version="1.0" encoding="UTF-8" standalone="no"?>
<!DOCTYPE svg PUBLIC "-//W3C//DTD SVG 1.1//EN"
 "http://www.w3.org/Graphics/SVG/1.1/DTD/svg11.dtd">
<!-- Generated by graphviz version 2.26.3 (20100126.1600)
 -->
<!-- Title: G Pages: 1 -->
<svg width="2072pt" height="320pt"
 viewBox="0.00 0.00 2072.00 320.00" xmlns="http://www.w3.org/2000/svg" xmlns:xlink="http://www.w3.org/1999/xlink">
<g id="graph1" class="graph" transform="scale(1 1) rotate(0) translate(4 316)">
<title>G</title>
<polygon fill="white" stroke="white" points="-4,5 -4,-316 2069,-316 2069,5 -4,5"/>
<!-- Node1 -->
<g id="node1" class="node"><title>Node1</title>
<polygon fill="#bfbfbf" stroke="black" points="522.5,-290.5 522.5,-311.5 629.5,-311.5 629.5,-290.5 522.5,-290.5"/>
<text text-anchor="middle" x="576" y="-298.5" font-family="Helvetica,sans-Serif" font-size="10.00">CardTransition.cpp</text>
</g>
<!-- Node2 -->
<g id="node3" class="node"><title>Node2</title>
<a xlink:href="Common_8h.htm" target="_top" xlink:title="Common.h">
<polygon fill="white" stroke="black" points="936.5,-0.5 936.5,-21.5 1003.5,-21.5 1003.5,-0.5 936.5,-0.5"/>
<text text-anchor="middle" x="970" y="-8.5" font-family="Helvetica,sans-Serif" font-size="10.00">Common.h</text>
</a>
</g>
<!-- Node1&#45;&gt;Node2 -->
<g id="edge2" class="edge"><title>Node1&#45;&gt;Node2</title>
<path fill="none" stroke="midnightblue" d="M629.711,-299.062C874.665,-289.88 1874,-248.525 1874,-185 1874,-185 1874,-185 1874,-127 1874,-39.2 1194.46,-16.4491 1013.72,-11.9506"/>
<polygon fill="midnightblue" stroke="midnightblue" points="1013.6,-8.44685 1003.52,-11.7031 1013.43,-15.4448 1013.6,-8.44685"/>
</g>
<!-- Node3 -->
<g id="node5" class="node"><title>Node3</title>
<a xlink:href="CardTransition_8h.htm" target="_top" xlink:title="CardTransition.h">
<polygon fill="white" stroke="black" points="203.5,-116.5 203.5,-137.5 298.5,-137.5 298.5,-116.5 203.5,-116.5"/>
<text text-anchor="middle" x="251" y="-124.5" font-family="Helvetica,sans-Serif" font-size="10.00">CardTransition.h</text>
</a>
</g>
<!-- Node1&#45;&gt;Node3 -->
<g id="edge4" class="edge"><title>Node1&#45;&gt;Node3</title>
<path fill="none" stroke="midnightblue" d="M522.234,-297.468C453.907,-290.059 336.838,-267.105 270,-196 257.742,-182.96 253.263,-162.75 251.69,-147.567"/>
<polygon fill="midnightblue" stroke="midnightblue" points="255.18,-147.304 250.988,-137.574 248.198,-147.794 255.18,-147.304"/>
</g>
<!-- Node8 -->
<g id="node16" class="node"><title>Node8</title>
<a xlink:href="AnimationEquations_8h.htm" target="_top" xlink:title="AnimationEquations.h">
<polygon fill="white" stroke="black" points="120,-58.5 120,-79.5 238,-79.5 238,-58.5 120,-58.5"/>
<text text-anchor="middle" x="179" y="-66.5" font-family="Helvetica,sans-Serif" font-size="10.00">AnimationEquations.h</text>
</a>
</g>
<!-- Node1&#45;&gt;Node8 -->
<g id="edge22" class="edge"><title>Node1&#45;&gt;Node8</title>
<path fill="none" stroke="midnightblue" d="M522.364,-297.12C468.135,-291.893 382.62,-280.036 313,-254 265.952,-236.405 250.655,-232.361 216,-196 195.835,-174.842 193.324,-166.018 185,-138 180.298,-122.175 178.914,-103.477 178.641,-89.5404"/>
<polygon fill="midnightblue" stroke="midnightblue" points="182.141,-89.5217 178.618,-79.5297 175.141,-89.5377 182.141,-89.5217"/>
</g>
<!-- Node10 -->
<g id="node22" class="node"><title>Node10</title>
<a xlink:href="AnimationSettings_8h.htm" target="_top" xlink:title="AnimationSettings.h">
<polygon fill="white" stroke="black" points="0,-116.5 0,-137.5 110,-137.5 110,-116.5 0,-116.5"/>
<text text-anchor="middle" x="55" y="-124.5" font-family="Helvetica,sans-Serif" font-size="10.00">AnimationSettings.h</text>
</a>
</g>
<!-- Node1&#45;&gt;Node10 -->
<g id="edge24" class="edge"><title>Node1&#45;&gt;Node10</title>
<path fill="none" stroke="midnightblue" d="M522.338,-298.217C409.748,-291.978 156.528,-275.702 124,-254 86.6121,-229.056 67.7643,-176.845 59.8156,-147.734"/>
<polygon fill="midnightblue" stroke="midnightblue" points="63.1485,-146.639 57.2869,-137.813 56.3654,-148.368 63.1485,-146.639"/>
</g>
<!-- Node13 -->
<g id="node31" class="node"><title>Node13</title>
<a xlink:href="CardWindow_8h.htm" target="_top" xlink:title="CardWindow.h">
<polygon fill="white" stroke="black" points="858,-232.5 858,-253.5 944,-253.5 944,-232.5 858,-232.5"/>
<text text-anchor="middle" x="901" y="-240.5" font-family="Helvetica,sans-Serif" font-size="10.00">CardWindow.h</text>
</a>
</g>
<!-- Node1&#45;&gt;Node13 -->
<g id="edge36" class="edge"><title>Node1&#45;&gt;Node13</title>
<path fill="none" stroke="midnightblue" d="M629.667,-291.422C690,-280.655 787.376,-263.278 847.599,-252.53"/>
<polygon fill="midnightblue" stroke="midnightblue" points="848.434,-255.936 857.664,-250.734 847.205,-249.045 848.434,-255.936"/>
</g>
<!-- Node48 -->
<g id="node128" class="node"><title>Node48</title>
<a xlink:href="Time_8h.htm" target="_top" xlink:title="Time.h">
<polygon fill="white" stroke="black" points="1902,-116.5 1902,-137.5 1950,-137.5 1950,-116.5 1902,-116.5"/>
<text text-anchor="middle" x="1926" y="-124.5" font-family="Helvetica,sans-Serif" font-size="10.00">Time.h</text>
</a>
</g>
<!-- Node1&#45;&gt;Node48 -->
<g id="edge160" class="edge"><title>Node1&#45;&gt;Node48</title>
<path fill="none" stroke="midnightblue" d="M629.605,-300.812C869.797,-299.748 1837.47,-293.046 1888,-254 1920.47,-228.904 1926.14,-177.145 1926.6,-148.048"/>
<polygon fill="midnightblue" stroke="midnightblue" points="1930.1,-147.758 1926.55,-137.774 1923.1,-147.789 1930.1,-147.758"/>
</g>
<!-- Node3&#45;&gt;Node2 -->
<g id="edge6" class="edge"><title>Node3&#45;&gt;Node2</title>
<path fill="none" stroke="midnightblue" d="M267.136,-116.275C295.164,-97.7375 350.831,-61.354 361,-58 459.848,-25.3981 724.224,-30.0194 828,-22 860.9,-19.4576 898.087,-16.5767 926.151,-14.401"/>
<polygon fill="midnightblue" stroke="midnightblue" points="926.732,-17.8665 936.432,-13.6039 926.191,-10.8875 926.732,-17.8665"/>
</g>
<!-- Node4 -->
<g id="node8" class="node"><title>Node4</title>
<polygon fill="white" stroke="#bfbfbf" points="483.5,-58.5 483.5,-79.5 526.5,-79.5 526.5,-58.5 483.5,-58.5"/>
<text text-anchor="middle" x="505" y="-66.5" font-family="Helvetica,sans-Serif" font-size="10.00">string</text>
</g>
<!-- Node3&#45;&gt;Node4 -->
<g id="edge8" class="edge"><title>Node3&#45;&gt;Node4</title>
<path fill="none" stroke="midnightblue" d="M296.997,-116.497C348.085,-104.831 429.185,-86.3121 473.516,-76.1892"/>
<polygon fill="midnightblue" stroke="midnightblue" points="474.465,-79.5627 483.435,-73.9243 472.907,-72.7384 474.465,-79.5627"/>
</g>
<!-- Node5 -->
<g id="node10" class="node"><title>Node5</title>
<polygon fill="white" stroke="#bfbfbf" points="998,-58.5 998,-79.5 1048,-79.5 1048,-58.5 998,-58.5"/>
<text text-anchor="middle" x="1023" y="-66.5" font-family="Helvetica,sans-Serif" font-size="10.00">stdint.h</text>
</g>
<!-- Node3&#45;&gt;Node5 -->
<g id="edge10" class="edge"><title>Node3&#45;&gt;Node5</title>
<path fill="none" stroke="midnightblue" d="M298.591,-117.22C301.43,-116.771 304.249,-116.359 307,-116 441.131,-98.4977 862.959,-76.867 987.837,-70.7079"/>
<polygon fill="midnightblue" stroke="midnightblue" points="988.169,-74.1959 997.985,-70.2093 987.825,-67.2043 988.169,-74.1959"/>
</g>
<!-- Node6 -->
<g id="node12" class="node"><title>Node6</title>
<polygon fill="white" stroke="#bfbfbf" points="255.5,-58.5 255.5,-79.5 314.5,-79.5 314.5,-58.5 255.5,-58.5"/>
<text text-anchor="middle" x="285" y="-66.5" font-family="Helvetica,sans-Serif" font-size="10.00">QPainter</text>
</g>
<!-- Node3&#45;&gt;Node6 -->
<g id="edge12" class="edge"><title>Node3&#45;&gt;Node6</title>
<path fill="none" stroke="midnightblue" d="M257.236,-116.362C261.837,-108.513 268.225,-97.6159 273.714,-88.2527"/>
<polygon fill="midnightblue" stroke="midnightblue" points="276.766,-89.9677 278.803,-79.5707 270.727,-86.4276 276.766,-89.9677"/>
</g>
<!-- Node7 -->
<g id="node14" class="node"><title>Node7</title>
<polygon fill="white" stroke="#bfbfbf" points="369.5,-58.5 369.5,-79.5 428.5,-79.5 428.5,-58.5 369.5,-58.5"/>
<text text-anchor="middle" x="399" y="-66.5" font-family="Helvetica,sans-Serif" font-size="10.00">QPixmap</text>
</g>
<!-- Node3&#45;&gt;Node7 -->
<g id="edge14" class="edge"><title>Node3&#45;&gt;Node7</title>
<path fill="none" stroke="midnightblue" d="M277.802,-116.497C301.438,-107.234 336.1,-93.6499 362.308,-83.3793"/>
<polygon fill="midnightblue" stroke="midnightblue" points="363.864,-86.5287 371.898,-79.6212 361.31,-80.0113 363.864,-86.5287"/>
</g>
<!-- Node3&#45;&gt;Node8 -->
<g id="edge16" class="edge"><title>Node3&#45;&gt;Node8</title>
<path fill="none" stroke="midnightblue" d="M237.794,-116.362C227.239,-107.859 212.242,-95.7785 200.037,-85.9466"/>
<polygon fill="midnightblue" stroke="midnightblue" points="202.105,-83.1183 192.122,-79.5707 197.714,-88.5696 202.105,-83.1183"/>
</g>
<!-- Node8&#45;&gt;Node2 -->
<g id="edge18" class="edge"><title>Node8&#45;&gt;Node2</title>
<path fill="none" stroke="midnightblue" d="M238.291,-59.0562C241.232,-58.6736 244.148,-58.3183 247,-58 504.122,-29.3081 569.909,-39.9913 828,-22 860.918,-19.7053 898.104,-16.8138 926.163,-14.5713"/>
<polygon fill="midnightblue" stroke="midnightblue" points="926.755,-18.0352 936.442,-13.7462 926.194,-11.0576 926.755,-18.0352"/>
</g>
<!-- Node9 -->
<g id="node19" class="node"><title>Node9</title>
<polygon fill="white" stroke="#bfbfbf" points="148.5,-0.5 148.5,-21.5 209.5,-21.5 209.5,-0.5 148.5,-0.5"/>
<text text-anchor="middle" x="179" y="-8.5" font-family="Helvetica,sans-Serif" font-size="10.00">PTypes.h</text>
</g>
<!-- Node8&#45;&gt;Node9 -->
<g id="edge20" class="edge"><title>Node8&#45;&gt;Node9</title>
<path fill="none" stroke="midnightblue" d="M179,-58.3619C179,-50.9219 179,-40.7427 179,-31.7276"/>
<polygon fill="midnightblue" stroke="midnightblue" points="182.5,-31.5706 179,-21.5707 175.5,-31.5707 182.5,-31.5706"/>
</g>
<!-- Node10&#45;&gt;Node2 -->
<g id="edge26" class="edge"><title>Node10&#45;&gt;Node2</title>
<path fill="none" stroke="midnightblue" d="M59.9221,-116.484C68.0252,-100.546 85.823,-70.7763 111,-58 182.132,-21.9033 748.395,-27.0808 828,-22 860.931,-19.8982 898.117,-16.9985 926.172,-14.7039"/>
<polygon fill="midnightblue" stroke="midnightblue" points="926.771,-18.1665 936.45,-13.857 926.196,-11.1902 926.771,-18.1665"/>
</g>
<!-- Node10&#45;&gt;Node4 -->
<g id="edge32" class="edge"><title>Node10&#45;&gt;Node4</title>
<path fill="none" stroke="midnightblue" d="M110.122,-120.883C184.455,-112.482 320.902,-96.5263 437,-80 448.875,-78.3096 461.883,-76.2553 473.313,-74.3817"/>
<polygon fill="midnightblue" stroke="midnightblue" points="473.996,-77.8163 483.289,-72.7275 472.851,-70.9106 473.996,-77.8163"/>
</g>
<!-- Node10&#45;&gt;Node8 -->
<g id="edge34" class="edge"><title>Node10&#45;&gt;Node8</title>
<path fill="none" stroke="midnightblue" d="M77.4555,-116.497C96.9099,-107.397 125.28,-94.1273 147.091,-83.9253"/>
<polygon fill="midnightblue" stroke="midnightblue" points="148.717,-87.0285 156.293,-79.6212 145.752,-80.6878 148.717,-87.0285"/>
</g>
<!-- Node11 -->
<g id="node25" class="node"><title>Node11</title>
<polygon fill="white" stroke="#bfbfbf" points="778.5,-0.5 778.5,-21.5 819.5,-21.5 819.5,-0.5 778.5,-0.5"/>
<text text-anchor="middle" x="799" y="-8.5" font-family="Helvetica,sans-Serif" font-size="10.00">glib.h</text>
</g>
<!-- Node10&#45;&gt;Node11 -->
<g id="edge28" class="edge"><title>Node10&#45;&gt;Node11</title>
<path fill="none" stroke="midnightblue" d="M42.1473,-116.317C26.0911,-101.731 2.60564,-75.412 19,-58 45.1147,-30.2643 626.041,-15.0137 767.943,-11.6942"/>
<polygon fill="midnightblue" stroke="midnightblue" points="768.205,-15.1891 778.122,-11.459 768.044,-8.191 768.205,-15.1891"/>
</g>
<!-- Node12 -->
<g id="node27" class="node"><title>Node12</title>
<polygon fill="white" stroke="#bfbfbf" points="27.5,-58.5 27.5,-79.5 64.5,-79.5 64.5,-58.5 27.5,-58.5"/>
<text text-anchor="middle" x="46" y="-66.5" font-family="Helvetica,sans-Serif" font-size="10.00">map</text>
</g>
<!-- Node10&#45;&gt;Node12 -->
<g id="edge30" class="edge"><title>Node10&#45;&gt;Node12</title>
<path fill="none" stroke="midnightblue" d="M53.3493,-116.362C52.1948,-108.922 50.6153,-98.7427 49.2163,-89.7276"/>
<polygon fill="midnightblue" stroke="midnightblue" points="52.6323,-88.9157 47.6403,-79.5707 45.7151,-89.9891 52.6323,-88.9157"/>
</g>
<!-- Node13&#45;&gt;Node2 -->
<g id="edge38" class="edge"><title>Node13&#45;&gt;Node2</title>
<path fill="none" stroke="midnightblue" d="M938.978,-232.479C980.02,-218.66 1042.33,-189.835 1063,-138 1069.86,-120.784 1066.19,-71.7445 1057,-58 1046.71,-42.6098 1029.65,-31.8458 1013.35,-24.5413"/>
<polygon fill="midnightblue" stroke="midnightblue" points="1014.48,-21.2198 1003.9,-20.6315 1011.81,-27.6882 1014.48,-21.2198"/>
</g>
<!-- Node13&#45;&gt;Node6 -->
<g id="edge146" class="edge"><title>Node13&#45;&gt;Node6</title>
<path fill="none" stroke="midnightblue" d="M857.726,-241.221C724.234,-235.532 324.551,-216.927 270,-196 224.496,-178.544 169.744,-157.682 195,-116 201.234,-105.711 226.408,-93.0317 248.551,-83.4366"/>
<polygon fill="midnightblue" stroke="midnightblue" points="249.945,-86.6476 257.792,-79.5292 247.218,-80.2003 249.945,-86.6476"/>
</g>
<!-- Node14 -->
<g id="node34" class="node"><title>Node14</title>
<a xlink:href="Settings_8h.htm" target="_top" xlink:title="Settings.h">
<polygon fill="white" stroke="black" points="803.5,-116.5 803.5,-137.5 866.5,-137.5 866.5,-116.5 803.5,-116.5"/>
<text text-anchor="middle" x="835" y="-124.5" font-family="Helvetica,sans-Serif" font-size="10.00">Settings.h</text>
</a>
</g>
<!-- Node13&#45;&gt;Node14 -->
<g id="edge40" class="edge"><title>Node13&#45;&gt;Node14</title>
<path fill="none" stroke="midnightblue" d="M925.699,-232.369C951.62,-219.665 986.488,-197.199 970,-174 958.91,-158.396 912.16,-144.531 876.757,-135.975"/>
<polygon fill="midnightblue" stroke="midnightblue" points="877.185,-132.48 866.65,-133.6 875.584,-139.295 877.185,-132.48"/>
</g>
<!-- Node18 -->
<g id="node45" class="node"><title>Node18</title>
<a xlink:href="Event_8h.htm" target="_top" xlink:title="Event.h">
<polygon fill="white" stroke="black" points="1110,-116.5 1110,-137.5 1162,-137.5 1162,-116.5 1110,-116.5"/>
<text text-anchor="middle" x="1136" y="-124.5" font-family="Helvetica,sans-Serif" font-size="10.00">Event.h</text>
</a>
</g>
<!-- Node13&#45;&gt;Node18 -->
<g id="edge54" class="edge"><title>Node13&#45;&gt;Node18</title>
<path fill="none" stroke="midnightblue" d="M944.202,-236.644C994.069,-228.618 1072.28,-213.7 1096,-196 1112.23,-183.891 1122.97,-163.098 1129.2,-147.495"/>
<polygon fill="midnightblue" stroke="midnightblue" points="1132.64,-148.286 1132.8,-137.693 1126.07,-145.872 1132.64,-148.286"/>
</g>
<!-- Node24 -->
<g id="node62" class="node"><title>Node24</title>
<a xlink:href="HostWindow_8h.htm" target="_top" xlink:title="HostWindow.h">
<polygon fill="white" stroke="black" points="859,-174.5 859,-195.5 943,-195.5 943,-174.5 859,-174.5"/>
<text text-anchor="middle" x="901" y="-182.5" font-family="Helvetica,sans-Serif" font-size="10.00">HostWindow.h</text>
</a>
</g>
<!-- Node13&#45;&gt;Node24 -->
<g id="edge76" class="edge"><title>Node13&#45;&gt;Node24</title>
<path fill="none" stroke="midnightblue" d="M901,-232.362C901,-224.922 901,-214.743 901,-205.728"/>
<polygon fill="midnightblue" stroke="midnightblue" points="904.5,-205.571 901,-195.571 897.5,-205.571 904.5,-205.571"/>
</g>
<!-- Node30 -->
<g id="node83" class="node"><title>Node30</title>
<a xlink:href="Timer_8h.htm" target="_top" xlink:title="Timer.h">
<polygon fill="white" stroke="black" points="1002,-116.5 1002,-137.5 1054,-137.5 1054,-116.5 1002,-116.5"/>
<text text-anchor="middle" x="1028" y="-124.5" font-family="Helvetica,sans-Serif" font-size="10.00">Timer.h</text>
</a>
</g>
<!-- Node13&#45;&gt;Node30 -->
<g id="edge106" class="edge"><title>Node13&#45;&gt;Node30</title>
<path fill="none" stroke="midnightblue" d="M928.217,-232.341C946.157,-224.327 969.328,-211.991 986,-196 1000.64,-181.96 1012.14,-161.762 1019.38,-146.844"/>
<polygon fill="midnightblue" stroke="midnightblue" points="1022.68,-148.047 1023.7,-137.501 1016.32,-145.111 1022.68,-148.047"/>
</g>
<!-- Node31 -->
<g id="node88" class="node"><title>Node31</title>
<polygon fill="white" stroke="#bfbfbf" points="1148,-174.5 1148,-195.5 1290,-195.5 1290,-174.5 1148,-174.5"/>
<text text-anchor="middle" x="1219" y="-182.5" font-family="Helvetica,sans-Serif" font-size="10.00">AppLaunchOptionsEvent.h</text>
</g>
<!-- Node13&#45;&gt;Node31 -->
<g id="edge114" class="edge"><title>Node13&#45;&gt;Node31</title>
<path fill="none" stroke="midnightblue" d="M944.218,-235.118C997.464,-225.406 1088.54,-208.794 1151.15,-197.375"/>
<polygon fill="midnightblue" stroke="midnightblue" points="1152.12,-200.756 1161.33,-195.518 1150.87,-193.869 1152.12,-200.756"/>
</g>
<!-- Node32 -->
<g id="node90" class="node"><title>Node32</title>
<a xlink:href="SystemUiController_8h.htm" target="_top" xlink:title="SystemUiController.h">
<polygon fill="white" stroke="red" points="1308,-174.5 1308,-195.5 1424,-195.5 1424,-174.5 1308,-174.5"/>
<text text-anchor="middle" x="1366" y="-182.5" font-family="Helvetica,sans-Serif" font-size="10.00">SystemUiController.h</text>
</a>
</g>
<!-- Node13&#45;&gt;Node32 -->
<g id="edge116" class="edge"><title>Node13&#45;&gt;Node32</title>
<path fill="none" stroke="midnightblue" d="M944.076,-238.558C1015.4,-231.063 1162.74,-214.984 1297.8,-196.122"/>
<polygon fill="midnightblue" stroke="midnightblue" points="1298.5,-199.558 1307.92,-194.7 1297.53,-192.626 1298.5,-199.558"/>
</g>
<!-- Node40 -->
<g id="node110" class="node"><title>Node40</title>
<polygon fill="white" stroke="#bfbfbf" points="1442,-174.5 1442,-195.5 1598,-195.5 1598,-174.5 1442,-174.5"/>
<text text-anchor="middle" x="1520" y="-182.5" font-family="Helvetica,sans-Serif" font-size="10.00">QGraphicsSceneMouseEvent</text>
</g>
<!-- Node13&#45;&gt;Node40 -->
<g id="edge140" class="edge"><title>Node13&#45;&gt;Node40</title>
<path fill="none" stroke="midnightblue" d="M944.153,-239.742C1033.2,-232.898 1244.03,-216.077 1431.71,-196.108"/>
<polygon fill="midnightblue" stroke="midnightblue" points="1432.19,-199.577 1441.76,-195.033 1431.45,-192.617 1432.19,-199.577"/>
</g>
<!-- Node41 -->
<g id="node112" class="node"><title>Node41</title>
<polygon fill="white" stroke="#bfbfbf" points="278.5,-174.5 278.5,-195.5 359.5,-195.5 359.5,-174.5 278.5,-174.5"/>
<text text-anchor="middle" x="319" y="-182.5" font-family="Helvetica,sans-Serif" font-size="10.00">QTouchEvent</text>
</g>
<!-- Node13&#45;&gt;Node41 -->
<g id="edge142" class="edge"><title>Node13&#45;&gt;Node41</title>
<path fill="none" stroke="midnightblue" d="M857.931,-241.146C768.578,-236.88 556.454,-224.584 369.569,-196.087"/>
<polygon fill="midnightblue" stroke="midnightblue" points="369.98,-192.609 359.563,-194.542 368.911,-199.527 369.98,-192.609"/>
</g>
<!-- Node42 -->
<g id="node114" class="node"><title>Node42</title>
<polygon fill="white" stroke="#bfbfbf" points="377,-174.5 377,-195.5 457,-195.5 457,-174.5 377,-174.5"/>
<text text-anchor="middle" x="417" y="-182.5" font-family="Helvetica,sans-Serif" font-size="10.00">QPainterPath</text>
</g>
<!-- Node13&#45;&gt;Node42 -->
<g id="edge144" class="edge"><title>Node13&#45;&gt;Node42</title>
<path fill="none" stroke="midnightblue" d="M857.869,-239.967C781.242,-234.226 616.201,-220.272 467.278,-196.061"/>
<polygon fill="midnightblue" stroke="midnightblue" points="467.475,-192.547 457.039,-194.376 466.338,-199.454 467.475,-192.547"/>
</g>
<!-- Node43 -->
<g id="node117" class="node"><title>Node43</title>
<polygon fill="white" stroke="#bfbfbf" points="474.5,-174.5 474.5,-195.5 543.5,-195.5 543.5,-174.5 474.5,-174.5"/>
<text text-anchor="middle" x="509" y="-182.5" font-family="Helvetica,sans-Serif" font-size="10.00">QVector3D</text>
</g>
<!-- Node13&#45;&gt;Node43 -->
<g id="edge148" class="edge"><title>Node13&#45;&gt;Node43</title>
<path fill="none" stroke="midnightblue" d="M857.753,-238.816C793.415,-232.232 668.552,-218.081 553.673,-196.17"/>
<polygon fill="midnightblue" stroke="midnightblue" points="554.138,-192.696 543.655,-194.235 552.81,-199.568 554.138,-192.696"/>
</g>
<!-- Node44 -->
<g id="node119" class="node"><title>Node44</title>
<polygon fill="white" stroke="#bfbfbf" points="561,-174.5 561,-195.5 635,-195.5 635,-174.5 561,-174.5"/>
<text text-anchor="middle" x="598" y="-182.5" font-family="Helvetica,sans-Serif" font-size="10.00">QTransform</text>
</g>
<!-- Node13&#45;&gt;Node44 -->
<g id="edge150" class="edge"><title>Node13&#45;&gt;Node44</title>
<path fill="none" stroke="midnightblue" d="M857.662,-235.807C808.462,-227.479 725.578,-212.959 644.939,-196.122"/>
<polygon fill="midnightblue" stroke="midnightblue" points="645.625,-192.69 635.118,-194.057 644.184,-199.54 645.625,-192.69"/>
</g>
<!-- Node45 -->
<g id="node121" class="node"><title>Node45</title>
<polygon fill="white" stroke="#bfbfbf" points="652.5,-174.5 652.5,-195.5 711.5,-195.5 711.5,-174.5 652.5,-174.5"/>
<text text-anchor="middle" x="682" y="-182.5" font-family="Helvetica,sans-Serif" font-size="10.00">QPointer</text>
</g>
<!-- Node13&#45;&gt;Node45 -->
<g id="edge152" class="edge"><title>Node13&#45;&gt;Node45</title>
<path fill="none" stroke="midnightblue" d="M859.216,-232.5C824.627,-223.729 773.957,-210.702 721.634,-196.408"/>
<polygon fill="midnightblue" stroke="midnightblue" points="722.418,-192.994 711.849,-193.725 720.567,-199.745 722.418,-192.994"/>
</g>
<!-- Node46 -->
<g id="node123" class="node"><title>Node46</title>
<polygon fill="white" stroke="#bfbfbf" points="729,-174.5 729,-195.5 841,-195.5 841,-174.5 729,-174.5"/>
<text text-anchor="middle" x="785" y="-182.5" font-family="Helvetica,sans-Serif" font-size="10.00">QPropertyAnimation</text>
</g>
<!-- Node13&#45;&gt;Node46 -->
<g id="edge154" class="edge"><title>Node13&#45;&gt;Node46</title>
<path fill="none" stroke="midnightblue" d="M879.993,-232.497C861.957,-223.479 835.73,-210.365 815.401,-200.201"/>
<polygon fill="midnightblue" stroke="midnightblue" points="816.752,-196.963 806.242,-195.621 813.621,-203.224 816.752,-196.963"/>
</g>
<!-- Node47 -->
<g id="node125" class="node"><title>Node47</title>
<a xlink:href="CardRoundedCornerShaderStage_8h.htm" target="_top" xlink:title="CardRoundedCornerShaderStage.h">
<polygon fill="white" stroke="black" points="1638,-174.5 1638,-195.5 1824,-195.5 1824,-174.5 1638,-174.5"/>
<text text-anchor="middle" x="1731" y="-182.5" font-family="Helvetica,sans-Serif" font-size="10.00">CardRoundedCornerShaderStage.h</text>
</a>
</g>
<!-- Node13&#45;&gt;Node47 -->
<g id="edge156" class="edge"><title>Node13&#45;&gt;Node47</title>
<path fill="none" stroke="midnightblue" d="M944.002,-240.468C1054.24,-233.905 1355.93,-215.491 1607,-196 1613.73,-195.477 1620.67,-194.919 1627.66,-194.34"/>
<polygon fill="midnightblue" stroke="midnightblue" points="1628.25,-197.803 1637.92,-193.48 1627.66,-190.827 1628.25,-197.803"/>
</g>
<!-- Node14&#45;&gt;Node2 -->
<g id="edge42" class="edge"><title>Node14&#45;&gt;Node2</title>
<path fill="none" stroke="midnightblue" d="M839.737,-116.452C846.758,-101.785 861.151,-75.1103 880,-58 895.087,-44.3047 914.899,-33.3946 932.093,-25.5468"/>
<polygon fill="midnightblue" stroke="midnightblue" points="933.572,-28.72 941.329,-21.5037 930.765,-22.3075 933.572,-28.72"/>
</g>
<!-- Node14&#45;&gt;Node4 -->
<g id="edge44" class="edge"><title>Node14&#45;&gt;Node4</title>
<path fill="none" stroke="midnightblue" d="M803.126,-118.805C798.731,-117.793 794.264,-116.826 790,-116 679.792,-94.6471 649.459,-104.91 540,-80 538.913,-79.7527 537.811,-79.4877 536.702,-79.2088"/>
<polygon fill="midnightblue" stroke="midnightblue" points="537.268,-75.7332 526.696,-76.4156 535.386,-82.4755 537.268,-75.7332"/>
</g>
<!-- Node14&#45;&gt;Node11 -->
<g id="edge50" class="edge"><title>Node14&#45;&gt;Node11</title>
<path fill="none" stroke="midnightblue" d="M803.109,-118.89C798.717,-117.865 794.255,-116.872 790,-116 742.113,-106.19 604.61,-117.286 573,-80 566.677,-72.5417 566.83,-65.5852 573,-58 597.292,-28.1361 712.405,-16.6256 768.343,-12.7405"/>
<polygon fill="midnightblue" stroke="midnightblue" points="768.631,-16.2292 778.381,-12.0815 768.173,-9.24426 768.631,-16.2292"/>
</g>
<!-- Node15 -->
<g id="node38" class="node"><title>Node15</title>
<polygon fill="white" stroke="#bfbfbf" points="658,-58.5 658,-79.5 704,-79.5 704,-58.5 658,-58.5"/>
<text text-anchor="middle" x="681" y="-66.5" font-family="Helvetica,sans-Serif" font-size="10.00">vector</text>
</g>
<!-- Node14&#45;&gt;Node15 -->
<g id="edge46" class="edge"><title>Node14&#45;&gt;Node15</title>
<path fill="none" stroke="midnightblue" d="M807.112,-116.497C780.865,-106.611 741.552,-91.8052 713.809,-81.3566"/>
<polygon fill="midnightblue" stroke="midnightblue" points="714.749,-77.9706 704.157,-77.7214 712.282,-84.5214 714.749,-77.9706"/>
</g>
<!-- Node16 -->
<g id="node40" class="node"><title>Node16</title>
<polygon fill="white" stroke="#bfbfbf" points="721.5,-58.5 721.5,-79.5 752.5,-79.5 752.5,-58.5 721.5,-58.5"/>
<text text-anchor="middle" x="737" y="-66.5" font-family="Helvetica,sans-Serif" font-size="10.00">set</text>
</g>
<!-- Node14&#45;&gt;Node16 -->
<g id="edge48" class="edge"><title>Node14&#45;&gt;Node16</title>
<path fill="none" stroke="midnightblue" d="M817.025,-116.362C801.453,-107.146 778.779,-93.7264 761.539,-83.5229"/>
<polygon fill="midnightblue" stroke="midnightblue" points="762.988,-80.3136 752.599,-78.2323 759.423,-86.3376 762.988,-80.3136"/>
</g>
<!-- Node17 -->
<g id="node43" class="node"><title>Node17</title>
<polygon fill="white" stroke="#bfbfbf" points="582,-58.5 582,-79.5 640,-79.5 640,-58.5 582,-58.5"/>
<text text-anchor="middle" x="611" y="-66.5" font-family="Helvetica,sans-Serif" font-size="10.00">QtGlobal</text>
</g>
<!-- Node14&#45;&gt;Node17 -->
<g id="edge52" class="edge"><title>Node14&#45;&gt;Node17</title>
<path fill="none" stroke="midnightblue" d="M803.204,-119.106C761.743,-108.789 690.552,-90.9952 649.9,-80.1697"/>
<polygon fill="midnightblue" stroke="midnightblue" points="650.583,-76.7293 640.017,-77.5106 648.764,-83.4889 650.583,-76.7293"/>
</g>
<!-- Node18&#45;&gt;Node2 -->
<g id="edge56" class="edge"><title>Node18&#45;&gt;Node2</title>
<path fill="none" stroke="midnightblue" d="M1162.1,-119.143C1166.7,-117.954 1171.47,-116.844 1176,-116 1255.45,-101.202 1589.72,-117.464 1535,-58 1499.91,-19.8706 1140.25,-12.6682 1013.73,-11.3127"/>
<polygon fill="midnightblue" stroke="midnightblue" points="1013.66,-7.81193 1003.63,-11.2117 1013.59,-14.8116 1013.66,-7.81193"/>
</g>
<!-- Node18&#45;&gt;Node5 -->
<g id="edge58" class="edge"><title>Node18&#45;&gt;Node5</title>
<path fill="none" stroke="midnightblue" d="M1115.54,-116.497C1097.97,-107.479 1072.42,-94.3649 1052.61,-84.2006"/>
<polygon fill="midnightblue" stroke="midnightblue" points="1054.19,-81.0738 1043.69,-79.6212 1050.99,-87.3014 1054.19,-81.0738"/>
</g>
<!-- Node18&#45;&gt;Node11 -->
<g id="edge60" class="edge"><title>Node18&#45;&gt;Node11</title>
<path fill="none" stroke="midnightblue" d="M1127.28,-116.388C1113.89,-100.877 1086.69,-72.3088 1057,-58 1017.23,-38.8348 889.658,-21.7347 830.133,-14.5692"/>
<polygon fill="midnightblue" stroke="midnightblue" points="830.189,-11.0514 819.847,-13.3486 829.365,-18.0027 830.189,-11.0514"/>
</g>
<!-- Node19 -->
<g id="node50" class="node"><title>Node19</title>
<polygon fill="white" stroke="#bfbfbf" points="1411.5,-58.5 1411.5,-79.5 1458.5,-79.5 1458.5,-58.5 1411.5,-58.5"/>
<text text-anchor="middle" x="1435" y="-66.5" font-family="Helvetica,sans-Serif" font-size="10.00">stdio.h</text>
</g>
<!-- Node18&#45;&gt;Node19 -->
<g id="edge62" class="edge"><title>Node18&#45;&gt;Node19</title>
<path fill="none" stroke="midnightblue" d="M1162.15,-119.362C1166.74,-118.148 1171.49,-116.974 1176,-116 1272.72,-95.0981 1302.06,-104.086 1401.52,-80.0645"/>
<polygon fill="midnightblue" stroke="midnightblue" points="1402.5,-83.4281 1411.37,-77.6347 1400.82,-76.6318 1402.5,-83.4281"/>
</g>
<!-- Node20 -->
<g id="node52" class="node"><title>Node20</title>
<polygon fill="white" stroke="#bfbfbf" points="1475.5,-58.5 1475.5,-79.5 1526.5,-79.5 1526.5,-58.5 1475.5,-58.5"/>
<text text-anchor="middle" x="1501" y="-66.5" font-family="Helvetica,sans-Serif" font-size="10.00">string.h</text>
</g>
<!-- Node18&#45;&gt;Node20 -->
<g id="edge64" class="edge"><title>Node18&#45;&gt;Node20</title>
<path fill="none" stroke="midnightblue" d="M1162.12,-119.231C1166.72,-118.032 1171.48,-116.896 1176,-116 1300.59,-91.2992 1337.88,-107.322 1465.03,-80.1364"/>
<polygon fill="midnightblue" stroke="midnightblue" points="1466.13,-83.4782 1475.15,-77.9222 1464.63,-76.6398 1466.13,-83.4782"/>
</g>
<!-- Node21 -->
<g id="node54" class="node"><title>Node21</title>
<polygon fill="white" stroke="#bfbfbf" points="1202,-58.5 1202,-79.5 1288,-79.5 1288,-58.5 1202,-58.5"/>
<text text-anchor="middle" x="1245" y="-66.5" font-family="Helvetica,sans-Serif" font-size="10.00">qnamespace.h</text>
</g>
<!-- Node18&#45;&gt;Node21 -->
<g id="edge66" class="edge"><title>Node18&#45;&gt;Node21</title>
<path fill="none" stroke="midnightblue" d="M1155.74,-116.497C1172.61,-107.519 1197.11,-94.4835 1216.17,-84.3387"/>
<polygon fill="midnightblue" stroke="midnightblue" points="1217.86,-87.4086 1225.04,-79.6212 1214.57,-81.2289 1217.86,-87.4086"/>
</g>
<!-- Node22 -->
<g id="node56" class="node"><title>Node22</title>
<polygon fill="white" stroke="#bfbfbf" points="1306,-58.5 1306,-79.5 1394,-79.5 1394,-58.5 1306,-58.5"/>
<text text-anchor="middle" x="1350" y="-66.5" font-family="Helvetica,sans-Serif" font-size="10.00">SysMgrEvent.h</text>
</g>
<!-- Node18&#45;&gt;Node22 -->
<g id="edge68" class="edge"><title>Node18&#45;&gt;Node22</title>
<path fill="none" stroke="midnightblue" d="M1162.25,-119.764C1166.83,-118.506 1171.55,-117.212 1176,-116 1218.04,-104.542 1265.83,-91.6421 1300.67,-82.2597"/>
<polygon fill="midnightblue" stroke="midnightblue" points="1301.85,-85.5679 1310.6,-79.5888 1300.03,-78.8085 1301.85,-85.5679"/>
</g>
<!-- Node23 -->
<g id="node58" class="node"><title>Node23</title>
<a xlink:href="sptr_8h.htm" target="_top" xlink:title="sptr.h">
<polygon fill="white" stroke="black" points="1141.5,-58.5 1141.5,-79.5 1184.5,-79.5 1184.5,-58.5 1141.5,-58.5"/>
<text text-anchor="middle" x="1163" y="-66.5" font-family="Helvetica,sans-Serif" font-size="10.00">sptr.h</text>
</a>
</g>
<!-- Node18&#45;&gt;Node23 -->
<g id="edge70" class="edge"><title>Node18&#45;&gt;Node23</title>
<path fill="none" stroke="midnightblue" d="M1140.95,-116.362C1144.53,-108.677 1149.47,-98.0686 1153.76,-88.8399"/>
<polygon fill="midnightblue" stroke="midnightblue" points="1157.03,-90.1136 1158.08,-79.5707 1150.69,-87.1594 1157.03,-90.1136"/>
</g>
<!-- Node23&#45;&gt;Node2 -->
<g id="edge72" class="edge"><title>Node23&#45;&gt;Node2</title>
<path fill="none" stroke="midnightblue" d="M1141.17,-62.0828C1136.81,-60.7174 1132.26,-59.3041 1128,-58 1089.35,-46.1796 1045.27,-33.0983 1013.5,-23.7441"/>
<polygon fill="midnightblue" stroke="midnightblue" points="1014.22,-20.3086 1003.64,-20.8443 1012.25,-27.0241 1014.22,-20.3086"/>
</g>
<!-- Node23&#45;&gt;Node11 -->
<g id="edge74" class="edge"><title>Node23&#45;&gt;Node11</title>
<path fill="none" stroke="midnightblue" d="M1141.32,-65.5455C1079.45,-55.687 901.881,-27.3932 829.882,-15.9208"/>
<polygon fill="midnightblue" stroke="midnightblue" points="830.085,-12.409 819.658,-14.2917 828.983,-19.3218 830.085,-12.409"/>
</g>
<!-- Node24&#45;&gt;Node2 -->
<g id="edge78" class="edge"><title>Node24&#45;&gt;Node2</title>
<path fill="none" stroke="midnightblue" d="M901.765,-174.448C903.003,-160.677 906.049,-135.982 913,-116 924.051,-84.2312 943.973,-50.5779 957.094,-30.1752"/>
<polygon fill="midnightblue" stroke="midnightblue" points="960.036,-32.0709 962.587,-21.7878 954.18,-28.2357 960.036,-32.0709"/>
</g>
<!-- Node24&#45;&gt;Node24 -->
<g id="edge90" class="edge"><title>Node24&#45;&gt;Node24</title>
<path fill="none" stroke="midnightblue" d="M931.563,-195.524C947.083,-197.061 961,-193.553 961,-185 961,-178.385 952.675,-174.788 941.722,-174.208"/>
<polygon fill="midnightblue" stroke="midnightblue" points="941.467,-170.714 931.563,-174.476 941.652,-177.711 941.467,-170.714"/>
</g>
<!-- Node25 -->
<g id="node65" class="node"><title>Node25</title>
<a xlink:href="Window_8h.htm" target="_top" xlink:title="Window.h">
<polygon fill="white" stroke="red" points="922,-116.5 922,-137.5 984,-137.5 984,-116.5 922,-116.5"/>
<text text-anchor="middle" x="953" y="-124.5" font-family="Helvetica,sans-Serif" font-size="10.00">Window.h</text>
</a>
</g>
<!-- Node24&#45;&gt;Node25 -->
<g id="edge80" class="edge"><title>Node24&#45;&gt;Node25</title>
<path fill="none" stroke="midnightblue" d="M910.538,-174.362C917.868,-166.186 928.163,-154.702 936.781,-145.091"/>
<polygon fill="midnightblue" stroke="midnightblue" points="939.453,-147.353 943.523,-137.571 934.241,-142.68 939.453,-147.353"/>
</g>
<!-- Node26 -->
<g id="node72" class="node"><title>Node26</title>
<a xlink:href="HostWindowData_8h.htm" target="_top" xlink:title="HostWindowData.h">
<polygon fill="white" stroke="red" points="549.5,-116.5 549.5,-137.5 656.5,-137.5 656.5,-116.5 549.5,-116.5"/>
<text text-anchor="middle" x="603" y="-124.5" font-family="Helvetica,sans-Serif" font-size="10.00">HostWindowData.h</text>
</a>
</g>
<!-- Node24&#45;&gt;Node26 -->
<g id="edge92" class="edge"><title>Node24&#45;&gt;Node26</title>
<path fill="none" stroke="midnightblue" d="M858.992,-175.855C855.951,-175.219 852.929,-174.595 850,-174 787.766,-161.369 716.499,-147.916 666.563,-138.654"/>
<polygon fill="midnightblue" stroke="midnightblue" points="667.026,-135.18 656.556,-136.801 665.752,-142.063 667.026,-135.18"/>
</g>
<!-- Node27 -->
<g id="node76" class="node"><title>Node27</title>
<a xlink:href="InputClient_8h.htm" target="_top" xlink:title="InputClient.h">
<polygon fill="white" stroke="red" points="673.5,-116.5 673.5,-137.5 748.5,-137.5 748.5,-116.5 673.5,-116.5"/>
<text text-anchor="middle" x="711" y="-124.5" font-family="Helvetica,sans-Serif" font-size="10.00">InputClient.h</text>
</a>
</g>
<!-- Node24&#45;&gt;Node27 -->
<g id="edge98" class="edge"><title>Node24&#45;&gt;Node27</title>
<path fill="none" stroke="midnightblue" d="M866.592,-174.497C835.349,-164.959 789.099,-150.841 755.142,-140.475"/>
<polygon fill="midnightblue" stroke="midnightblue" points="756.058,-137.095 745.472,-137.523 754.015,-143.79 756.058,-137.095"/>
</g>
<!-- Node28 -->
<g id="node79" class="node"><title>Node28</title>
<polygon fill="white" stroke="#bfbfbf" points="316,-116.5 316,-137.5 390,-137.5 390,-116.5 316,-116.5"/>
<text text-anchor="middle" x="353" y="-124.5" font-family="Helvetica,sans-Serif" font-size="10.00">PIpcBuffer.h</text>
</g>
<!-- Node24&#45;&gt;Node28 -->
<g id="edge102" class="edge"><title>Node24&#45;&gt;Node28</title>
<path fill="none" stroke="midnightblue" d="M858.778,-175.441C855.815,-174.91 852.868,-174.422 850,-174 654.264,-145.209 599.363,-168.694 399.972,-137.939"/>
<polygon fill="midnightblue" stroke="midnightblue" points="400.48,-134.475 390.058,-136.383 399.395,-141.391 400.48,-134.475"/>
</g>
<!-- Node29 -->
<g id="node81" class="node"><title>Node29</title>
<polygon fill="white" stroke="#bfbfbf" points="408,-116.5 408,-137.5 532,-137.5 532,-116.5 408,-116.5"/>
<text text-anchor="middle" x="470" y="-124.5" font-family="Helvetica,sans-Serif" font-size="10.00">PIpcChannelListener.h</text>
</g>
<!-- Node24&#45;&gt;Node29 -->
<g id="edge104" class="edge"><title>Node24&#45;&gt;Node29</title>
<path fill="none" stroke="midnightblue" d="M858.759,-175.561C855.801,-175.001 852.859,-174.474 850,-174 716.795,-151.928 679.731,-156.36 542.384,-138.143"/>
<polygon fill="midnightblue" stroke="midnightblue" points="542.696,-134.653 532.319,-136.791 541.764,-141.591 542.696,-134.653"/>
</g>
<!-- Node25&#45;&gt;Node2 -->
<g id="edge82" class="edge"><title>Node25&#45;&gt;Node2</title>
<path fill="none" stroke="midnightblue" d="M952.653,-116.158C952.403,-102.495 952.582,-78.3385 956,-58 957.508,-49.0264 960.197,-39.3538 962.818,-31.1298"/>
<polygon fill="midnightblue" stroke="midnightblue" points="966.136,-32.2433 966.007,-21.6492 959.501,-30.0111 966.136,-32.2433"/>
</g>
<!-- Node25&#45;&gt;Node4 -->
<g id="edge86" class="edge"><title>Node25&#45;&gt;Node4</title>
<path fill="none" stroke="midnightblue" d="M921.897,-122.458C907.619,-120.413 890.46,-118.011 875,-116 740.957,-98.561 706.859,-98.7969 573,-80 561.122,-78.3321 548.114,-76.2826 536.684,-74.4066"/>
<polygon fill="midnightblue" stroke="midnightblue" points="537.147,-70.9357 526.708,-72.7485 535.999,-77.8409 537.147,-70.9357"/>
</g>
<!-- Node25&#45;&gt;Node5 -->
<g id="edge84" class="edge"><title>Node25&#45;&gt;Node5</title>
<path fill="none" stroke="midnightblue" d="M965.839,-116.362C976.002,-107.941 990.401,-96.0105 1002.2,-86.2308"/>
<polygon fill="midnightblue" stroke="midnightblue" points="1004.78,-88.6459 1010.24,-79.5707 1000.31,-83.2558 1004.78,-88.6459"/>
</g>
<!-- Node25&#45;&gt;Node11 -->
<g id="edge88" class="edge"><title>Node25&#45;&gt;Node11</title>
<path fill="none" stroke="midnightblue" d="M921.772,-121.388C882.574,-113.66 818.674,-98.5678 804,-80 793.437,-66.6338 793.044,-46.8963 794.795,-31.9513"/>
<polygon fill="midnightblue" stroke="midnightblue" points="798.32,-32.0646 796.418,-21.6419 791.405,-30.9758 798.32,-32.0646"/>
</g>
<!-- Node26&#45;&gt;Node2 -->
<g id="edge94" class="edge"><title>Node26&#45;&gt;Node2</title>
<path fill="none" stroke="midnightblue" d="M549.289,-117.379C503.209,-106.875 448.161,-87.5078 475,-58 482.568,-49.6799 806.03,-23.7455 925.909,-14.3999"/>
<polygon fill="midnightblue" stroke="midnightblue" points="926.494,-17.8651 936.193,-13.6 925.951,-10.8861 926.494,-17.8651"/>
</g>
<!-- Node26&#45;&gt;Node7 -->
<g id="edge96" class="edge"><title>Node26&#45;&gt;Node7</title>
<path fill="none" stroke="midnightblue" d="M566.057,-116.497C530.059,-106.262 475.506,-90.7516 438.62,-80.2646"/>
<polygon fill="midnightblue" stroke="midnightblue" points="439.291,-76.8167 428.715,-77.4485 437.377,-83.5499 439.291,-76.8167"/>
</g>
<!-- Node27&#45;&gt;Node4 -->
<g id="edge100" class="edge"><title>Node27&#45;&gt;Node4</title>
<path fill="none" stroke="midnightblue" d="M673.192,-117.03C638.467,-107.774 585.631,-93.4367 540,-80 538.931,-79.6851 537.844,-79.3619 536.748,-79.033"/>
<polygon fill="midnightblue" stroke="midnightblue" points="537.394,-75.5704 526.807,-75.9879 535.343,-82.2634 537.394,-75.5704"/>
</g>
<!-- Node30&#45;&gt;Node2 -->
<g id="edge108" class="edge"><title>Node30&#45;&gt;Node2</title>
<path fill="none" stroke="midnightblue" d="M1016.91,-116.392C1008.16,-107.449 996.256,-93.9143 989,-80 981.112,-64.8739 976.22,-46.1257 973.379,-31.9914"/>
<polygon fill="midnightblue" stroke="midnightblue" points="976.759,-31.0131 971.522,-21.8025 969.872,-32.268 976.759,-31.0131"/>
</g>
<!-- Node30&#45;&gt;Node5 -->
<g id="edge112" class="edge"><title>Node30&#45;&gt;Node5</title>
<path fill="none" stroke="midnightblue" d="M1027.08,-116.362C1026.44,-108.922 1025.56,-98.7427 1024.79,-89.7276"/>
<polygon fill="midnightblue" stroke="midnightblue" points="1028.26,-89.2331 1023.91,-79.5707 1021.28,-89.8343 1028.26,-89.2331"/>
</g>
<!-- Node30&#45;&gt;Node11 -->
<g id="edge110" class="edge"><title>Node30&#45;&gt;Node11</title>
<path fill="none" stroke="midnightblue" d="M1006.87,-116.295C965.949,-95.5683 875.812,-49.9089 828.819,-26.105"/>
<polygon fill="midnightblue" stroke="midnightblue" points="830.254,-22.9083 819.751,-21.5117 827.091,-29.1528 830.254,-22.9083"/>
</g>
<!-- Node32&#45;&gt;Node2 -->
<g id="edge118" class="edge"><title>Node32&#45;&gt;Node2</title>
<path fill="none" stroke="midnightblue" d="M1307.92,-175.065C1268.38,-166.982 1221.11,-154.261 1209,-138 1203.16,-130.157 1202.46,-123.267 1209,-116 1260.13,-59.2049 1499.87,-136.795 1551,-80 1557.54,-72.7332 1557.63,-65.1873 1551,-58 1532.82,-38.2868 1146.27,-18.9901 1013.96,-12.9403"/>
<polygon fill="midnightblue" stroke="midnightblue" points="1013.93,-9.43546 1003.78,-12.4782 1013.62,-16.4283 1013.93,-9.43546"/>
</g>
<!-- Node32&#45;&gt;Node4 -->
<g id="edge120" class="edge"><title>Node32&#45;&gt;Node4</title>
<path fill="none" stroke="midnightblue" d="M1307.94,-175.135C1304.92,-174.726 1301.93,-174.344 1299,-174 1075.97,-147.781 1009.67,-203.947 795,-138 776.345,-132.269 775.301,-122.776 757,-116 756.838,-115.94 604.865,-87.6124 537.034,-74.9701"/>
<polygon fill="midnightblue" stroke="midnightblue" points="537.378,-71.474 526.906,-73.0825 536.095,-78.3555 537.378,-71.474"/>
</g>
<!-- Node32&#45;&gt;Node18 -->
<g id="edge136" class="edge"><title>Node32&#45;&gt;Node18</title>
<path fill="none" stroke="midnightblue" d="M1322.15,-174.493C1283.59,-165.173 1225.97,-151.05 1176,-138 1174.75,-137.672 1173.47,-137.337 1172.18,-136.995"/>
<polygon fill="midnightblue" stroke="midnightblue" points="1172.79,-133.534 1162.22,-134.316 1170.97,-140.294 1172.79,-133.534"/>
</g>
<!-- Node32&#45;&gt;Node25 -->
<g id="edge138" class="edge"><title>Node32&#45;&gt;Node25</title>
<path fill="none" stroke="midnightblue" d="M1307.92,-175.298C1304.91,-174.847 1301.92,-174.411 1299,-174 1166.58,-155.35 1129.14,-163.808 994.222,-138.017"/>
<polygon fill="midnightblue" stroke="midnightblue" points="994.82,-134.568 984.337,-136.1 993.487,-141.44 994.82,-134.568"/>
</g>
<!-- Node33 -->
<g id="node94" class="node"><title>Node33</title>
<polygon fill="white" stroke="#bfbfbf" points="1432,-116.5 1432,-137.5 1484,-137.5 1484,-116.5 1432,-116.5"/>
<text text-anchor="middle" x="1458" y="-124.5" font-family="Helvetica,sans-Serif" font-size="10.00">QEvent</text>
</g>
<!-- Node32&#45;&gt;Node33 -->
<g id="edge122" class="edge"><title>Node32&#45;&gt;Node33</title>
<path fill="none" stroke="midnightblue" d="M1382.87,-174.362C1396.75,-165.614 1416.63,-153.079 1432.46,-143.101"/>
<polygon fill="midnightblue" stroke="midnightblue" points="1434.64,-145.864 1441.23,-137.571 1430.91,-139.943 1434.64,-145.864"/>
</g>
<!-- Node34 -->
<g id="node96" class="node"><title>Node34</title>
<polygon fill="white" stroke="#bfbfbf" points="1502,-116.5 1502,-137.5 1572,-137.5 1572,-116.5 1502,-116.5"/>
<text text-anchor="middle" x="1537" y="-124.5" font-family="Helvetica,sans-Serif" font-size="10.00">QKeyEvent</text>
</g>
<!-- Node32&#45;&gt;Node34 -->
<g id="edge124" class="edge"><title>Node32&#45;&gt;Node34</title>
<path fill="none" stroke="midnightblue" d="M1396.97,-174.497C1424.84,-165.041 1466,-151.083 1496.48,-140.743"/>
<polygon fill="midnightblue" stroke="midnightblue" points="1497.63,-144.05 1505.98,-137.523 1495.38,-137.421 1497.63,-144.05"/>
</g>
<!-- Node35 -->
<g id="node98" class="node"><title>Node35</title>
<polygon fill="white" stroke="#bfbfbf" points="1589.5,-116.5 1589.5,-137.5 1672.5,-137.5 1672.5,-116.5 1589.5,-116.5"/>
<text text-anchor="middle" x="1631" y="-124.5" font-family="Helvetica,sans-Serif" font-size="10.00">QMouseEvent</text>
</g>
<!-- Node32&#45;&gt;Node35 -->
<g id="edge126" class="edge"><title>Node32&#45;&gt;Node35</title>
<path fill="none" stroke="midnightblue" d="M1414.25,-174.472C1455.61,-165.442 1517.08,-152.013 1579.27,-138.377"/>
<polygon fill="midnightblue" stroke="midnightblue" points="1580.24,-141.748 1589.26,-136.187 1578.74,-134.911 1580.24,-141.748"/>
</g>
<!-- Node36 -->
<g id="node100" class="node"><title>Node36</title>
<polygon fill="white" stroke="#bfbfbf" points="1689.5,-116.5 1689.5,-137.5 1744.5,-137.5 1744.5,-116.5 1689.5,-116.5"/>
<text text-anchor="middle" x="1717" y="-124.5" font-family="Helvetica,sans-Serif" font-size="10.00">QObject</text>
</g>
<!-- Node32&#45;&gt;Node36 -->
<g id="edge128" class="edge"><title>Node32&#45;&gt;Node36</title>
<path fill="none" stroke="midnightblue" d="M1424.09,-175.394C1427.11,-174.918 1430.09,-174.45 1433,-174 1539.84,-157.476 1570.53,-162.049 1679.15,-138.19"/>
<polygon fill="midnightblue" stroke="midnightblue" points="1680.2,-141.542 1689.2,-135.951 1678.68,-134.709 1680.2,-141.542"/>
</g>
<!-- Node37 -->
<g id="node102" class="node"><title>Node37</title>
<polygon fill="white" stroke="#bfbfbf" points="1761.5,-116.5 1761.5,-137.5 1808.5,-137.5 1808.5,-116.5 1761.5,-116.5"/>
<text text-anchor="middle" x="1785" y="-124.5" font-family="Helvetica,sans-Serif" font-size="10.00">QRect</text>
</g>
<!-- Node32&#45;&gt;Node37 -->
<g id="edge130" class="edge"><title>Node32&#45;&gt;Node37</title>
<path fill="none" stroke="midnightblue" d="M1424.08,-175.28C1427.09,-174.833 1430.08,-174.404 1433,-174 1571.59,-154.841 1611.59,-168.792 1751.59,-137.955"/>
<polygon fill="midnightblue" stroke="midnightblue" points="1752.41,-141.359 1761.4,-135.758 1750.88,-134.528 1752.41,-141.359"/>
</g>
<!-- Node38 -->
<g id="node104" class="node"><title>Node38</title>
<polygon fill="white" stroke="#bfbfbf" points="1217.5,-116.5 1217.5,-137.5 1310.5,-137.5 1310.5,-116.5 1217.5,-116.5"/>
<text text-anchor="middle" x="1264" y="-124.5" font-family="Helvetica,sans-Serif" font-size="10.00">QSharedPointer</text>
</g>
<!-- Node32&#45;&gt;Node38 -->
<g id="edge132" class="edge"><title>Node32&#45;&gt;Node38</title>
<path fill="none" stroke="midnightblue" d="M1347.29,-174.362C1331.62,-165.45 1309.04,-152.609 1291.34,-142.545"/>
<polygon fill="midnightblue" stroke="midnightblue" points="1293.01,-139.471 1282.59,-137.571 1289.55,-145.556 1293.01,-139.471"/>
</g>
<!-- Node39 -->
<g id="node106" class="node"><title>Node39</title>
<polygon fill="white" stroke="#bfbfbf" points="1328,-116.5 1328,-137.5 1414,-137.5 1414,-116.5 1328,-116.5"/>
<text text-anchor="middle" x="1371" y="-124.5" font-family="Helvetica,sans-Serif" font-size="10.00">QWeakPointer</text>
</g>
<!-- Node32&#45;&gt;Node39 -->
<g id="edge134" class="edge"><title>Node32&#45;&gt;Node39</title>
<path fill="none" stroke="midnightblue" d="M1366.92,-174.362C1367.56,-166.922 1368.44,-156.743 1369.21,-147.728"/>
<polygon fill="midnightblue" stroke="midnightblue" points="1372.72,-147.834 1370.09,-137.571 1365.74,-147.233 1372.72,-147.834"/>
</g>
<!-- Node47&#45;&gt;Node2 -->
<g id="edge158" class="edge"><title>Node47&#45;&gt;Node2</title>
<path fill="none" stroke="midnightblue" d="M1763.32,-174.416C1795.24,-162.245 1836.65,-140.729 1817,-116 1766.46,-52.3936 1180.9,-20.7084 1014.09,-12.9326"/>
<polygon fill="midnightblue" stroke="midnightblue" points="1013.87,-9.41876 1003.72,-12.4549 1013.55,-16.4113 1013.87,-9.41876"/>
</g>
<!-- Node48&#45;&gt;Node2 -->
<g id="edge162" class="edge"><title>Node48&#45;&gt;Node2</title>
<path fill="none" stroke="midnightblue" d="M1923.6,-116.347C1919.4,-100.509 1909.1,-71.2058 1888,-58 1850.55,-34.5607 1190.88,-16.5017 1013.57,-12.0556"/>
<polygon fill="midnightblue" stroke="midnightblue" points="1013.64,-8.55641 1003.56,-11.8062 1013.47,-15.5542 1013.64,-8.55641"/>
</g>
<!-- Node48&#45;&gt;Node5 -->
<g id="edge168" class="edge"><title>Node48&#45;&gt;Node5</title>
<path fill="none" stroke="midnightblue" d="M1901.79,-124.22C1879.72,-121.766 1846.2,-118.241 1817,-116 1513.47,-92.7102 1436.54,-103.152 1133,-80 1108,-78.0934 1079.88,-75.2685 1058.32,-72.9589"/>
<polygon fill="midnightblue" stroke="midnightblue" points="1058.63,-69.4719 1048.31,-71.8728 1057.87,-76.4311 1058.63,-69.4719"/>
</g>
<!-- Node49 -->
<g id="node131" class="node"><title>Node49</title>
<polygon fill="white" stroke="#bfbfbf" points="1939.5,-58.5 1939.5,-79.5 2002.5,-79.5 2002.5,-58.5 1939.5,-58.5"/>
<text text-anchor="middle" x="1971" y="-66.5" font-family="Helvetica,sans-Serif" font-size="10.00">sys/time.h</text>
</g>
<!-- Node48&#45;&gt;Node49 -->
<g id="edge164" class="edge"><title>Node48&#45;&gt;Node49</title>
<path fill="none" stroke="midnightblue" d="M1934.25,-116.362C1940.47,-108.35 1949.15,-97.1605 1956.51,-87.6696"/>
<polygon fill="midnightblue" stroke="midnightblue" points="1959.43,-89.617 1962.8,-79.5707 1953.9,-85.326 1959.43,-89.617"/>
</g>
<!-- Node50 -->
<g id="node133" class="node"><title>Node50</title>
<polygon fill="white" stroke="#bfbfbf" points="2020,-58.5 2020,-79.5 2064,-79.5 2064,-58.5 2020,-58.5"/>
<text text-anchor="middle" x="2042" y="-66.5" font-family="Helvetica,sans-Serif" font-size="10.00">time.h</text>
</g>
<!-- Node48&#45;&gt;Node50 -->
<g id="edge166" class="edge"><title>Node48&#45;&gt;Node50</title>
<path fill="none" stroke="midnightblue" d="M1947.01,-116.497C1965.04,-107.479 1991.27,-94.3649 2011.6,-84.2006"/>
<polygon fill="midnightblue" stroke="midnightblue" points="2013.38,-87.2239 2020.76,-79.6212 2010.25,-80.9629 2013.38,-87.2239"/>
</g>
</g>
</svg>
