<?xml version="1.0" encoding="UTF-8" standalone="no"?>
<!DOCTYPE svg PUBLIC "-//W3C//DTD SVG 1.1//EN"
 "http://www.w3.org/Graphics/SVG/1.1/DTD/svg11.dtd">
<!-- Generated by graphviz version 2.26.3 (20100126.1600)
 -->
<!-- Title: G Pages: 1 -->
<svg width="796pt" height="88pt"
 viewBox="0.00 0.00 796.00 88.00" xmlns="http://www.w3.org/2000/svg" xmlns:xlink="http://www.w3.org/1999/xlink">
<g id="graph1" class="graph" transform="scale(1 1) rotate(0) translate(4 84)">
<title>G</title>
<polygon fill="white" stroke="white" points="-4,5 -4,-84 793,-84 793,5 -4,5"/>
<!-- Node1 -->
<g id="node1" class="node"><title>Node1</title>
<polygon fill="#bfbfbf" stroke="black" points="323,-58.5 323,-79.5 451,-79.5 451,-58.5 323,-58.5"/>
<text text-anchor="middle" x="387" y="-66.5" font-family="Helvetica,sans-Serif" font-size="10.00">CardWindowManager.h</text>
</g>
<!-- Node2 -->
<g id="node3" class="node"><title>Node2</title>
<a xlink:href="SystemUiController_8cpp.htm" target="_top" xlink:title="SystemUiController.cpp">
<polygon fill="white" stroke="black" points="-0.5,-0.5 -0.5,-21.5 126.5,-21.5 126.5,-0.5 -0.5,-0.5"/>
<text text-anchor="middle" x="63" y="-8.5" font-family="Helvetica,sans-Serif" font-size="10.00">SystemUiController.cpp</text>
</a>
</g>
<!-- Node1&#45;&gt;Node2 -->
<g id="edge2" class="edge"><title>Node1&#45;&gt;Node2</title>
<path fill="none" stroke="midnightblue" d="M318.455,-56.7296C260.1,-46.2833 177.157,-31.4354 121.784,-21.5231"/>
<polygon fill="midnightblue" stroke="midnightblue" points="317.866,-60.1797 328.326,-58.4966 319.099,-53.2892 317.866,-60.1797"/>
</g>
<!-- Node3 -->
<g id="node5" class="node"><title>Node3</title>
<a xlink:href="CardWindowManager_8cpp.htm" target="_top" xlink:title="CardWindowManager.cpp">
<polygon fill="white" stroke="black" points="144,-0.5 144,-21.5 284,-21.5 284,-0.5 144,-0.5"/>
<text text-anchor="middle" x="214" y="-8.5" font-family="Helvetica,sans-Serif" font-size="10.00">CardWindowManager.cpp</text>
</a>
</g>
<!-- Node1&#45;&gt;Node3 -->
<g id="edge4" class="edge"><title>Node1&#45;&gt;Node3</title>
<path fill="none" stroke="midnightblue" d="M346.073,-55.2787C315.246,-44.9437 273.61,-30.9849 245.388,-21.5231"/>
<polygon fill="midnightblue" stroke="midnightblue" points="345.077,-58.6363 355.671,-58.4966 347.302,-51.9994 345.077,-58.6363"/>
</g>
<!-- Node4 -->
<g id="node7" class="node"><title>Node4</title>
<a xlink:href="CardWindowManagerStates_8cpp.htm" target="_top" xlink:title="CardWindowManagerStates.cpp">
<polygon fill="white" stroke="black" points="302,-0.5 302,-21.5 472,-21.5 472,-0.5 302,-0.5"/>
<text text-anchor="middle" x="387" y="-8.5" font-family="Helvetica,sans-Serif" font-size="10.00">CardWindowManagerStates.cpp</text>
</a>
</g>
<!-- Node1&#45;&gt;Node4 -->
<g id="edge6" class="edge"><title>Node1&#45;&gt;Node4</title>
<path fill="none" stroke="midnightblue" d="M387,-48.1906C387,-39.1684 387,-28.9941 387,-21.5707"/>
<polygon fill="midnightblue" stroke="midnightblue" points="383.5,-48.3619 387,-58.3619 390.5,-48.3619 383.5,-48.3619"/>
</g>
<!-- Node5 -->
<g id="node9" class="node"><title>Node5</title>
<a xlink:href="OverlayWindowManager_8cpp.htm" target="_top" xlink:title="OverlayWindowManager.cpp">
<polygon fill="white" stroke="black" points="489.5,-0.5 489.5,-21.5 642.5,-21.5 642.5,-0.5 489.5,-0.5"/>
<text text-anchor="middle" x="566" y="-8.5" font-family="Helvetica,sans-Serif" font-size="10.00">OverlayWindowManager.cpp</text>
</a>
</g>
<!-- Node1&#45;&gt;Node5 -->
<g id="edge8" class="edge"><title>Node1&#45;&gt;Node5</title>
<path fill="none" stroke="midnightblue" d="M428.933,-55.4127C460.87,-45.0646 504.196,-31.0258 533.524,-21.5231"/>
<polygon fill="midnightblue" stroke="midnightblue" points="427.85,-52.0845 419.416,-58.4966 430.008,-58.7437 427.85,-52.0845"/>
</g>
<!-- Node6 -->
<g id="node11" class="node"><title>Node6</title>
<a xlink:href="WindowServerLuna_8cpp.htm" target="_top" xlink:title="WindowServerLuna.cpp">
<polygon fill="white" stroke="black" points="660,-0.5 660,-21.5 788,-21.5 788,-0.5 660,-0.5"/>
<text text-anchor="middle" x="724" y="-8.5" font-family="Helvetica,sans-Serif" font-size="10.00">WindowServerLuna.cpp</text>
</a>
</g>
<!-- Node1&#45;&gt;Node6 -->
<g id="edge10" class="edge"><title>Node1&#45;&gt;Node6</title>
<path fill="none" stroke="midnightblue" d="M457.919,-56.7943C518.635,-46.3447 605.144,-31.4559 662.857,-21.5231"/>
<polygon fill="midnightblue" stroke="midnightblue" points="457.29,-53.3511 448.028,-58.4966 458.477,-60.2497 457.29,-53.3511"/>
</g>
</g>
</svg>
