<?xml version="1.0" encoding="UTF-8" standalone="no"?>
<!DOCTYPE svg PUBLIC "-//W3C//DTD SVG 1.1//EN"
 "http://www.w3.org/Graphics/SVG/1.1/DTD/svg11.dtd">
<!-- Generated by graphviz version 2.26.3 (20100126.1600)
 -->
<!-- Title: G Pages: 1 -->
<svg width="2382pt" height="262pt"
 viewBox="0.00 0.00 2382.00 262.00" xmlns="http://www.w3.org/2000/svg" xmlns:xlink="http://www.w3.org/1999/xlink">
<g id="graph1" class="graph" transform="scale(1 1) rotate(0) translate(4 258)">
<title>G</title>
<polygon fill="white" stroke="white" points="-4,5 -4,-258 2379,-258 2379,5 -4,5"/>
<!-- Node1 -->
<g id="node1" class="node"><title>Node1</title>
<polygon fill="#bfbfbf" stroke="black" points="1165,-232.5 1165,-253.5 1351,-253.5 1351,-232.5 1165,-232.5"/>
<text text-anchor="middle" x="1258" y="-240.5" font-family="Helvetica,sans-Serif" font-size="10.00">CardRoundedCornerShaderStage.h</text>
</g>
<!-- Node2 -->
<g id="node3" class="node"><title>Node2</title>
<a xlink:href="CardWindow_8h.htm" target="_top" xlink:title="CardWindow.h">
<polygon fill="white" stroke="black" points="1215,-174.5 1215,-195.5 1301,-195.5 1301,-174.5 1215,-174.5"/>
<text text-anchor="middle" x="1258" y="-182.5" font-family="Helvetica,sans-Serif" font-size="10.00">CardWindow.h</text>
</a>
</g>
<!-- Node1&#45;&gt;Node2 -->
<g id="edge2" class="edge"><title>Node1&#45;&gt;Node2</title>
<path fill="none" stroke="midnightblue" d="M1258,-222.191C1258,-213.168 1258,-202.994 1258,-195.571"/>
<polygon fill="midnightblue" stroke="midnightblue" points="1254.5,-222.362 1258,-232.362 1261.5,-222.362 1254.5,-222.362"/>
</g>
<!-- Node15 -->
<g id="node30" class="node"><title>Node15</title>
<a xlink:href="CardLoading_8cpp.htm" target="_top" xlink:title="CardLoading.cpp">
<polygon fill="white" stroke="black" points="2276,-116.5 2276,-137.5 2374,-137.5 2374,-116.5 2276,-116.5"/>
<text text-anchor="middle" x="2325" y="-124.5" font-family="Helvetica,sans-Serif" font-size="10.00">CardLoading.cpp</text>
</a>
</g>
<!-- Node1&#45;&gt;Node15 -->
<g id="edge82" class="edge"><title>Node1&#45;&gt;Node15</title>
<path fill="none" stroke="midnightblue" d="M1361.34,-235.121C1544.43,-220.522 1937.57,-186.294 2267,-138 2269.84,-137.584 2272.75,-137.127 2275.69,-136.644"/>
<polygon fill="midnightblue" stroke="midnightblue" points="1360.87,-231.647 1351.18,-235.928 1361.43,-238.625 1360.87,-231.647"/>
</g>
<!-- Node19 -->
<g id="node43" class="node"><title>Node19</title>
<a xlink:href="EmulatedCardWindow_8h.htm" target="_top" xlink:title="EmulatedCardWindow.h">
<polygon fill="white" stroke="black" points="298.5,-116.5 298.5,-137.5 427.5,-137.5 427.5,-116.5 298.5,-116.5"/>
<text text-anchor="middle" x="363" y="-124.5" font-family="Helvetica,sans-Serif" font-size="10.00">EmulatedCardWindow.h</text>
</a>
</g>
<!-- Node1&#45;&gt;Node19 -->
<g id="edge84" class="edge"><title>Node1&#45;&gt;Node19</title>
<path fill="none" stroke="midnightblue" d="M1166.56,-231.148C985.331,-207.66 584.556,-155.716 427.72,-135.388"/>
<polygon fill="midnightblue" stroke="midnightblue" points="1166.23,-234.635 1176.6,-232.45 1167.13,-227.693 1166.23,-234.635"/>
</g>
<!-- Node3 -->
<g id="node5" class="node"><title>Node3</title>
<a xlink:href="SystemService_8cpp.htm" target="_top" xlink:title="SystemService.cpp">
<polygon fill="white" stroke="black" points="2028,-116.5 2028,-137.5 2134,-137.5 2134,-116.5 2028,-116.5"/>
<text text-anchor="middle" x="2081" y="-124.5" font-family="Helvetica,sans-Serif" font-size="10.00">SystemService.cpp</text>
</a>
</g>
<!-- Node2&#45;&gt;Node3 -->
<g id="edge4" class="edge"><title>Node2&#45;&gt;Node3</title>
<path fill="none" stroke="midnightblue" d="M1311.07,-183.801C1435.27,-180.543 1754.36,-169.544 2019,-138 2021.93,-137.651 2024.93,-137.253 2027.96,-136.82"/>
<polygon fill="midnightblue" stroke="midnightblue" points="1310.97,-180.302 1301.06,-184.058 1311.15,-187.3 1310.97,-180.302"/>
</g>
<!-- Node4 -->
<g id="node7" class="node"><title>Node4</title>
<a xlink:href="SystemUiController_8cpp.htm" target="_top" xlink:title="SystemUiController.cpp">
<polygon fill="white" stroke="black" points="157.5,-58.5 157.5,-79.5 284.5,-79.5 284.5,-58.5 157.5,-58.5"/>
<text text-anchor="middle" x="221" y="-66.5" font-family="Helvetica,sans-Serif" font-size="10.00">SystemUiController.cpp</text>
</a>
</g>
<!-- Node2&#45;&gt;Node4 -->
<g id="edge6" class="edge"><title>Node2&#45;&gt;Node4</title>
<path fill="none" stroke="midnightblue" d="M1204.78,-183.839C1087.72,-180.755 799.229,-170.254 560,-138 504.198,-130.477 348.283,-96.9593 268.84,-79.561"/>
<polygon fill="midnightblue" stroke="midnightblue" points="1204.82,-187.341 1214.91,-184.098 1205,-180.343 1204.82,-187.341"/>
</g>
<!-- Node5 -->
<g id="node9" class="node"><title>Node5</title>
<a xlink:href="CardGroup_8h.htm" target="_top" xlink:title="CardGroup.h">
<polygon fill="white" stroke="black" points="1153.5,-116.5 1153.5,-137.5 1230.5,-137.5 1230.5,-116.5 1153.5,-116.5"/>
<text text-anchor="middle" x="1192" y="-124.5" font-family="Helvetica,sans-Serif" font-size="10.00">CardGroup.h</text>
</a>
</g>
<!-- Node2&#45;&gt;Node5 -->
<g id="edge8" class="edge"><title>Node2&#45;&gt;Node5</title>
<path fill="none" stroke="midnightblue" d="M1238.3,-167.691C1227.16,-157.9 1213.59,-145.973 1204.03,-137.571"/>
<polygon fill="midnightblue" stroke="midnightblue" points="1236.07,-170.39 1245.89,-174.362 1240.69,-165.132 1236.07,-170.39"/>
</g>
<!-- Node7 -->
<g id="node13" class="node"><title>Node7</title>
<a xlink:href="CardWindow_8cpp.htm" target="_top" xlink:title="CardWindow.cpp">
<polygon fill="white" stroke="black" points="1011.5,-58.5 1011.5,-79.5 1108.5,-79.5 1108.5,-58.5 1011.5,-58.5"/>
<text text-anchor="middle" x="1060" y="-66.5" font-family="Helvetica,sans-Serif" font-size="10.00">CardWindow.cpp</text>
</a>
</g>
<!-- Node2&#45;&gt;Node7 -->
<g id="edge34" class="edge"><title>Node2&#45;&gt;Node7</title>
<path fill="none" stroke="midnightblue" d="M1204.96,-182.489C1140.36,-178.189 1036.86,-166.878 1013,-138 996.934,-118.559 1024.42,-93.6696 1043.68,-79.7192"/>
<polygon fill="midnightblue" stroke="midnightblue" points="1204.77,-185.984 1214.97,-183.12 1205.22,-178.998 1204.77,-185.984"/>
</g>
<!-- Node8 -->
<g id="node15" class="node"><title>Node8</title>
<a xlink:href="CardWindowManager_8cpp.htm" target="_top" xlink:title="CardWindowManager.cpp">
<polygon fill="white" stroke="black" points="1126,-58.5 1126,-79.5 1266,-79.5 1266,-58.5 1126,-58.5"/>
<text text-anchor="middle" x="1196" y="-66.5" font-family="Helvetica,sans-Serif" font-size="10.00">CardWindowManager.cpp</text>
</a>
</g>
<!-- Node2&#45;&gt;Node8 -->
<g id="edge44" class="edge"><title>Node2&#45;&gt;Node8</title>
<path fill="none" stroke="midnightblue" d="M1205,-176.354C1182.55,-169.785 1158.51,-158.247 1145,-138 1130.78,-116.686 1158.69,-92.8651 1178.54,-79.5273"/>
<polygon fill="midnightblue" stroke="midnightblue" points="1204.26,-179.778 1214.82,-178.955 1206.05,-173.011 1204.26,-179.778"/>
</g>
<!-- Node9 -->
<g id="node17" class="node"><title>Node9</title>
<a xlink:href="CardWindowManagerStates_8cpp.htm" target="_top" xlink:title="CardWindowManagerStates.cpp">
<polygon fill="white" stroke="black" points="1390,-58.5 1390,-79.5 1560,-79.5 1560,-58.5 1390,-58.5"/>
<text text-anchor="middle" x="1475" y="-66.5" font-family="Helvetica,sans-Serif" font-size="10.00">CardWindowManagerStates.cpp</text>
</a>
</g>
<!-- Node2&#45;&gt;Node9 -->
<g id="edge46" class="edge"><title>Node2&#45;&gt;Node9</title>
<path fill="none" stroke="midnightblue" d="M1258.31,-164.339C1259.67,-148.941 1264.05,-128.497 1277,-116 1294.13,-99.4709 1348.08,-87.3206 1395.35,-79.519"/>
<polygon fill="midnightblue" stroke="midnightblue" points="1254.81,-164.302 1257.77,-174.473 1261.8,-164.672 1254.81,-164.302"/>
</g>
<!-- Node10 -->
<g id="node19" class="node"><title>Node10</title>
<a xlink:href="CardHostWindow_8h.htm" target="_top" xlink:title="CardHostWindow.h">
<polygon fill="white" stroke="black" points="2151.5,-116.5 2151.5,-137.5 2258.5,-137.5 2258.5,-116.5 2151.5,-116.5"/>
<text text-anchor="middle" x="2205" y="-124.5" font-family="Helvetica,sans-Serif" font-size="10.00">CardHostWindow.h</text>
</a>
</g>
<!-- Node2&#45;&gt;Node10 -->
<g id="edge18" class="edge"><title>Node2&#45;&gt;Node10</title>
<path fill="none" stroke="midnightblue" d="M1311.75,-184.436C1450.07,-182.488 1829.4,-174.009 2143,-138 2145.72,-137.688 2148.49,-137.332 2151.29,-136.944"/>
<polygon fill="midnightblue" stroke="midnightblue" points="1311.39,-180.94 1301.44,-184.575 1311.49,-187.94 1311.39,-180.94"/>
</g>
<!-- Node2&#45;&gt;Node15 -->
<g id="edge30" class="edge"><title>Node2&#45;&gt;Node15</title>
<path fill="none" stroke="midnightblue" d="M1311.21,-183.513C1491.6,-178.315 2079.17,-160.074 2267,-138 2269.85,-137.665 2272.77,-137.272 2275.71,-136.837"/>
<polygon fill="midnightblue" stroke="midnightblue" points="1311.06,-180.015 1301.17,-183.801 1311.26,-187.013 1311.06,-180.015"/>
</g>
<!-- Node16 -->
<g id="node32" class="node"><title>Node16</title>
<a xlink:href="CardTransition_8cpp.htm" target="_top" xlink:title="CardTransition.cpp">
<polygon fill="white" stroke="black" points="1285.5,-116.5 1285.5,-137.5 1392.5,-137.5 1392.5,-116.5 1285.5,-116.5"/>
<text text-anchor="middle" x="1339" y="-124.5" font-family="Helvetica,sans-Serif" font-size="10.00">CardTransition.cpp</text>
</a>
</g>
<!-- Node2&#45;&gt;Node16 -->
<g id="edge32" class="edge"><title>Node2&#45;&gt;Node16</title>
<path fill="none" stroke="midnightblue" d="M1281.38,-168.259C1295.2,-158.364 1312.28,-146.136 1324.24,-137.571"/>
<polygon fill="midnightblue" stroke="midnightblue" points="1278.95,-165.694 1272.86,-174.362 1283.02,-171.386 1278.95,-165.694"/>
</g>
<!-- Node17 -->
<g id="node35" class="node"><title>Node17</title>
<a xlink:href="GhostCard_8h.htm" target="_top" xlink:title="GhostCard.h">
<polygon fill="white" stroke="black" points="1021.5,-116.5 1021.5,-137.5 1098.5,-137.5 1098.5,-116.5 1021.5,-116.5"/>
<text text-anchor="middle" x="1060" y="-124.5" font-family="Helvetica,sans-Serif" font-size="10.00">GhostCard.h</text>
</a>
</g>
<!-- Node2&#45;&gt;Node17 -->
<g id="edge36" class="edge"><title>Node2&#45;&gt;Node17</title>
<path fill="none" stroke="midnightblue" d="M1212.53,-171.68C1177.12,-161.307 1128.64,-147.108 1095.92,-137.523"/>
<polygon fill="midnightblue" stroke="midnightblue" points="1211.56,-175.044 1222.14,-174.497 1213.53,-168.327 1211.56,-175.044"/>
</g>
<!-- Node2&#45;&gt;Node19 -->
<g id="edge48" class="edge"><title>Node2&#45;&gt;Node19</title>
<path fill="none" stroke="midnightblue" d="M1204.81,-181.603C1084.45,-173.91 782.013,-154.539 529,-138 495.567,-135.815 458.35,-133.351 427.641,-131.31"/>
<polygon fill="midnightblue" stroke="midnightblue" points="1204.66,-185.101 1214.86,-182.246 1205.1,-178.115 1204.66,-185.101"/>
</g>
<!-- Node21 -->
<g id="node48" class="node"><title>Node21</title>
<a xlink:href="WebAppMgrProxy_8cpp.htm" target="_top" xlink:title="WebAppMgrProxy.cpp">
<polygon fill="white" stroke="black" points="302,-58.5 302,-79.5 424,-79.5 424,-58.5 302,-58.5"/>
<text text-anchor="middle" x="363" y="-66.5" font-family="Helvetica,sans-Serif" font-size="10.00">WebAppMgrProxy.cpp</text>
</a>
</g>
<!-- Node2&#45;&gt;Node21 -->
<g id="edge80" class="edge"><title>Node2&#45;&gt;Node21</title>
<path fill="none" stroke="midnightblue" d="M1204.59,-183.303C1100.72,-179.439 864.426,-167.886 668,-138 617.683,-130.344 477.458,-96.8886 406.018,-79.5326"/>
<polygon fill="midnightblue" stroke="midnightblue" points="1204.7,-186.809 1214.82,-183.674 1204.95,-179.814 1204.7,-186.809"/>
</g>
<!-- Node22 -->
<g id="node50" class="node"><title>Node22</title>
<a xlink:href="DockModeWindow_8h.htm" target="_top" xlink:title="DockModeWindow.h">
<polygon fill="white" stroke="black" points="676.5,-116.5 676.5,-137.5 789.5,-137.5 789.5,-116.5 676.5,-116.5"/>
<text text-anchor="middle" x="733" y="-124.5" font-family="Helvetica,sans-Serif" font-size="10.00">DockModeWindow.h</text>
</a>
</g>
<!-- Node2&#45;&gt;Node22 -->
<g id="edge56" class="edge"><title>Node2&#45;&gt;Node22</title>
<path fill="none" stroke="midnightblue" d="M1204.45,-179.084C1104.79,-168.074 891.751,-144.538 789.735,-133.268"/>
<polygon fill="midnightblue" stroke="midnightblue" points="1204.27,-182.585 1214.59,-180.204 1205.04,-175.627 1204.27,-182.585"/>
</g>
<!-- Node28 -->
<g id="node64" class="node"><title>Node28</title>
<a xlink:href="EmergencyWindowManager_8cpp.htm" target="_top" xlink:title="EmergencyWindowManager.cpp">
<polygon fill="white" stroke="black" points="1410,-116.5 1410,-137.5 1580,-137.5 1580,-116.5 1410,-116.5"/>
<text text-anchor="middle" x="1495" y="-124.5" font-family="Helvetica,sans-Serif" font-size="10.00">EmergencyWindowManager.cpp</text>
</a>
</g>
<!-- Node2&#45;&gt;Node28 -->
<g id="edge72" class="edge"><title>Node2&#45;&gt;Node28</title>
<path fill="none" stroke="midnightblue" d="M1310.81,-172.077C1353.32,-161.672 1412.33,-147.231 1452,-137.523"/>
<polygon fill="midnightblue" stroke="midnightblue" points="1309.8,-168.72 1300.92,-174.497 1311.46,-175.519 1309.8,-168.72"/>
</g>
<!-- Node29 -->
<g id="node66" class="node"><title>Node29</title>
<a xlink:href="LockWindow_8cpp.htm" target="_top" xlink:title="LockWindow.cpp">
<polygon fill="white" stroke="black" points="1598,-116.5 1598,-137.5 1694,-137.5 1694,-116.5 1598,-116.5"/>
<text text-anchor="middle" x="1646" y="-124.5" font-family="Helvetica,sans-Serif" font-size="10.00">LockWindow.cpp</text>
</a>
</g>
<!-- Node2&#45;&gt;Node29 -->
<g id="edge74" class="edge"><title>Node2&#45;&gt;Node29</title>
<path fill="none" stroke="midnightblue" d="M1311.3,-178.259C1376.82,-169.783 1491.33,-154.349 1589,-138 1591.88,-137.517 1594.84,-137.003 1597.83,-136.47"/>
<polygon fill="midnightblue" stroke="midnightblue" points="1310.69,-174.809 1301.22,-179.559 1311.58,-181.752 1310.69,-174.809"/>
</g>
<!-- Node30 -->
<g id="node68" class="node"><title>Node30</title>
<a xlink:href="WindowServerLuna_8cpp.htm" target="_top" xlink:title="WindowServerLuna.cpp">
<polygon fill="white" stroke="black" points="1712,-116.5 1712,-137.5 1840,-137.5 1840,-116.5 1712,-116.5"/>
<text text-anchor="middle" x="1776" y="-124.5" font-family="Helvetica,sans-Serif" font-size="10.00">WindowServerLuna.cpp</text>
</a>
</g>
<!-- Node2&#45;&gt;Node30 -->
<g id="edge76" class="edge"><title>Node2&#45;&gt;Node30</title>
<path fill="none" stroke="midnightblue" d="M1311.04,-180.165C1394.54,-172.381 1561.71,-156.097 1703,-138 1705.92,-137.625 1708.91,-137.229 1711.93,-136.819"/>
<polygon fill="midnightblue" stroke="midnightblue" points="1310.67,-176.685 1301.03,-181.095 1311.31,-183.655 1310.67,-176.685"/>
</g>
<!-- Node31 -->
<g id="node70" class="node"><title>Node31</title>
<a xlink:href="WindowManagerMinimal_8cpp.htm" target="_top" xlink:title="WindowManagerMinimal.cpp">
<polygon fill="white" stroke="black" points="1858,-116.5 1858,-137.5 2010,-137.5 2010,-116.5 1858,-116.5"/>
<text text-anchor="middle" x="1934" y="-124.5" font-family="Helvetica,sans-Serif" font-size="10.00">WindowManagerMinimal.cpp</text>
</a>
</g>
<!-- Node2&#45;&gt;Node31 -->
<g id="edge78" class="edge"><title>Node2&#45;&gt;Node31</title>
<path fill="none" stroke="midnightblue" d="M1311.28,-181.647C1414.97,-174.927 1651.05,-158.666 1849,-138 1851.81,-137.706 1854.67,-137.396 1857.57,-137.072"/>
<polygon fill="midnightblue" stroke="midnightblue" points="1310.83,-178.169 1301.08,-182.306 1311.28,-185.154 1310.83,-178.169"/>
</g>
<!-- Node6 -->
<g id="node11" class="node"><title>Node6</title>
<a xlink:href="CardGroup_8cpp.htm" target="_top" xlink:title="CardGroup.cpp">
<polygon fill="white" stroke="black" points="1283.5,-58.5 1283.5,-79.5 1372.5,-79.5 1372.5,-58.5 1283.5,-58.5"/>
<text text-anchor="middle" x="1328" y="-66.5" font-family="Helvetica,sans-Serif" font-size="10.00">CardGroup.cpp</text>
</a>
</g>
<!-- Node5&#45;&gt;Node6 -->
<g id="edge10" class="edge"><title>Node5&#45;&gt;Node6</title>
<path fill="none" stroke="midnightblue" d="M1226.05,-112.479C1249.99,-102.269 1281.48,-88.8386 1303.1,-79.6212"/>
<polygon fill="midnightblue" stroke="midnightblue" points="1224.45,-109.354 1216.63,-116.497 1227.2,-115.793 1224.45,-109.354"/>
</g>
<!-- Node5&#45;&gt;Node7 -->
<g id="edge12" class="edge"><title>Node5&#45;&gt;Node7</title>
<path fill="none" stroke="midnightblue" d="M1158.64,-112.343C1135.45,-102.15 1105.06,-88.7977 1084.17,-79.6212"/>
<polygon fill="midnightblue" stroke="midnightblue" points="1157.53,-115.678 1168.1,-116.497 1160.35,-109.27 1157.53,-115.678"/>
</g>
<!-- Node5&#45;&gt;Node8 -->
<g id="edge14" class="edge"><title>Node5&#45;&gt;Node8</title>
<path fill="none" stroke="midnightblue" d="M1193.44,-106.191C1194.06,-97.1684 1194.76,-86.9941 1195.27,-79.5707"/>
<polygon fill="midnightblue" stroke="midnightblue" points="1189.93,-106.145 1192.73,-116.362 1196.91,-106.626 1189.93,-106.145"/>
</g>
<!-- Node5&#45;&gt;Node9 -->
<g id="edge16" class="edge"><title>Node5&#45;&gt;Node9</title>
<path fill="none" stroke="midnightblue" d="M1240.71,-116.683C1241.82,-116.453 1242.92,-116.225 1244,-116 1305.31,-103.278 1375.85,-88.9749 1422.68,-79.5245"/>
<polygon fill="midnightblue" stroke="midnightblue" points="1239.68,-113.323 1230.61,-118.797 1241.12,-120.175 1239.68,-113.323"/>
</g>
<!-- Node11 -->
<g id="node21" class="node"><title>Node11</title>
<a xlink:href="CardHostWindow_8cpp.htm" target="_top" xlink:title="CardHostWindow.cpp">
<polygon fill="white" stroke="black" points="2021.5,-58.5 2021.5,-79.5 2140.5,-79.5 2140.5,-58.5 2021.5,-58.5"/>
<text text-anchor="middle" x="2081" y="-66.5" font-family="Helvetica,sans-Serif" font-size="10.00">CardHostWindow.cpp</text>
</a>
</g>
<!-- Node10&#45;&gt;Node11 -->
<g id="edge20" class="edge"><title>Node10&#45;&gt;Node11</title>
<path fill="none" stroke="midnightblue" d="M2173.37,-112.206C2151.62,-102.031 2123.24,-88.7567 2103.71,-79.6212"/>
<polygon fill="midnightblue" stroke="midnightblue" points="2172,-115.43 2182.54,-116.497 2174.97,-109.089 2172,-115.43"/>
</g>
<!-- Node12 -->
<g id="node23" class="node"><title>Node12</title>
<a xlink:href="QtHostWindow_8h.htm" target="_top" xlink:title="QtHostWindow.h">
<polygon fill="white" stroke="black" points="2157.5,-58.5 2157.5,-79.5 2252.5,-79.5 2252.5,-58.5 2157.5,-58.5"/>
<text text-anchor="middle" x="2205" y="-66.5" font-family="Helvetica,sans-Serif" font-size="10.00">QtHostWindow.h</text>
</a>
</g>
<!-- Node10&#45;&gt;Node12 -->
<g id="edge22" class="edge"><title>Node10&#45;&gt;Node12</title>
<path fill="none" stroke="midnightblue" d="M2205,-106.191C2205,-97.1684 2205,-86.9941 2205,-79.5707"/>
<polygon fill="midnightblue" stroke="midnightblue" points="2201.5,-106.362 2205,-116.362 2208.5,-106.362 2201.5,-106.362"/>
</g>
<!-- Node14 -->
<g id="node27" class="node"><title>Node14</title>
<a xlink:href="IpcClientHost_8cpp.htm" target="_top" xlink:title="IpcClientHost.cpp">
<polygon fill="white" stroke="black" points="2230.5,-0.5 2230.5,-21.5 2329.5,-21.5 2329.5,-0.5 2230.5,-0.5"/>
<text text-anchor="middle" x="2280" y="-8.5" font-family="Helvetica,sans-Serif" font-size="10.00">IpcClientHost.cpp</text>
</a>
</g>
<!-- Node10&#45;&gt;Node14 -->
<g id="edge28" class="edge"><title>Node10&#45;&gt;Node14</title>
<path fill="none" stroke="midnightblue" d="M2230.92,-110.483C2241.63,-102.464 2253.32,-91.9684 2261,-80 2272.81,-61.5967 2277.36,-35.8847 2279.05,-21.6118"/>
<polygon fill="midnightblue" stroke="midnightblue" points="2228.76,-107.722 2222.63,-116.364 2232.81,-113.431 2228.76,-107.722"/>
</g>
<!-- Node13 -->
<g id="node25" class="node"><title>Node13</title>
<a xlink:href="QtHostWindow_8cpp.htm" target="_top" xlink:title="QtHostWindow.cpp">
<polygon fill="white" stroke="black" points="2106.5,-0.5 2106.5,-21.5 2213.5,-21.5 2213.5,-0.5 2106.5,-0.5"/>
<text text-anchor="middle" x="2160" y="-8.5" font-family="Helvetica,sans-Serif" font-size="10.00">QtHostWindow.cpp</text>
</a>
</g>
<!-- Node12&#45;&gt;Node13 -->
<g id="edge24" class="edge"><title>Node12&#45;&gt;Node13</title>
<path fill="none" stroke="midnightblue" d="M2190.45,-50.2504C2183.08,-40.75 2174.4,-29.5651 2168.2,-21.5707"/>
<polygon fill="midnightblue" stroke="midnightblue" points="2187.85,-52.6065 2196.75,-58.3619 2193.38,-48.3155 2187.85,-52.6065"/>
</g>
<!-- Node12&#45;&gt;Node14 -->
<g id="edge26" class="edge"><title>Node12&#45;&gt;Node14</title>
<path fill="none" stroke="midnightblue" d="M2227.01,-51.9753C2239.74,-42.1315 2255.36,-30.0545 2266.33,-21.5707"/>
<polygon fill="midnightblue" stroke="midnightblue" points="2224.53,-49.4757 2218.76,-58.3619 2228.81,-55.0131 2224.53,-49.4757"/>
</g>
<!-- Node17&#45;&gt;Node7 -->
<g id="edge38" class="edge"><title>Node17&#45;&gt;Node7</title>
<path fill="none" stroke="midnightblue" d="M1060,-106.191C1060,-97.1684 1060,-86.9941 1060,-79.5707"/>
<polygon fill="midnightblue" stroke="midnightblue" points="1056.5,-106.362 1060,-116.362 1063.5,-106.362 1056.5,-106.362"/>
</g>
<!-- Node17&#45;&gt;Node8 -->
<g id="edge40" class="edge"><title>Node17&#45;&gt;Node8</title>
<path fill="none" stroke="midnightblue" d="M1094.05,-112.479C1117.99,-102.269 1149.48,-88.8386 1171.1,-79.6212"/>
<polygon fill="midnightblue" stroke="midnightblue" points="1092.45,-109.354 1084.63,-116.497 1095.2,-115.793 1092.45,-109.354"/>
</g>
<!-- Node18 -->
<g id="node39" class="node"><title>Node18</title>
<a xlink:href="GhostCard_8cpp.htm" target="_top" xlink:title="GhostCard.cpp">
<polygon fill="white" stroke="black" points="906,-58.5 906,-79.5 994,-79.5 994,-58.5 906,-58.5"/>
<text text-anchor="middle" x="950" y="-66.5" font-family="Helvetica,sans-Serif" font-size="10.00">GhostCard.cpp</text>
</a>
</g>
<!-- Node17&#45;&gt;Node18 -->
<g id="edge42" class="edge"><title>Node17&#45;&gt;Node18</title>
<path fill="none" stroke="midnightblue" d="M1031.16,-111.794C1011.97,-101.675 987.236,-88.6338 970.144,-79.6212"/>
<polygon fill="midnightblue" stroke="midnightblue" points="1029.6,-114.928 1040.08,-116.497 1032.87,-108.736 1029.6,-114.928"/>
</g>
<!-- Node19&#45;&gt;Node4 -->
<g id="edge50" class="edge"><title>Node19&#45;&gt;Node4</title>
<path fill="none" stroke="midnightblue" d="M327.782,-112.615C302.745,-102.389 269.671,-88.8796 247.004,-79.6212"/>
<polygon fill="midnightblue" stroke="midnightblue" points="326.704,-115.955 337.285,-116.497 329.351,-109.475 326.704,-115.955"/>
</g>
<!-- Node20 -->
<g id="node46" class="node"><title>Node20</title>
<a xlink:href="EmulatedCardWindow_8cpp.htm" target="_top" xlink:title="EmulatedCardWindow.cpp">
<polygon fill="white" stroke="black" points="0,-58.5 0,-79.5 140,-79.5 140,-58.5 0,-58.5"/>
<text text-anchor="middle" x="70" y="-66.5" font-family="Helvetica,sans-Serif" font-size="10.00">EmulatedCardWindow.cpp</text>
</a>
</g>
<!-- Node19&#45;&gt;Node20 -->
<g id="edge52" class="edge"><title>Node19&#45;&gt;Node20</title>
<path fill="none" stroke="midnightblue" d="M300.03,-114.535C247.313,-104.099 172.924,-89.374 123.16,-79.5231"/>
<polygon fill="midnightblue" stroke="midnightblue" points="299.451,-117.988 309.94,-116.497 300.81,-111.121 299.451,-117.988"/>
</g>
<!-- Node19&#45;&gt;Node21 -->
<g id="edge54" class="edge"><title>Node19&#45;&gt;Node21</title>
<path fill="none" stroke="midnightblue" d="M363,-106.191C363,-97.1684 363,-86.9941 363,-79.5707"/>
<polygon fill="midnightblue" stroke="midnightblue" points="359.5,-106.362 363,-116.362 366.5,-106.362 359.5,-106.362"/>
</g>
<!-- Node22&#45;&gt;Node21 -->
<g id="edge70" class="edge"><title>Node22&#45;&gt;Node21</title>
<path fill="none" stroke="midnightblue" d="M666.095,-116.527C605.297,-107.008 513.127,-92.5723 433,-80 430.083,-79.5423 427.098,-79.0738 424.083,-78.6005"/>
<polygon fill="midnightblue" stroke="midnightblue" points="665.902,-120.04 676.323,-118.129 666.985,-113.124 665.902,-120.04"/>
</g>
<!-- Node23 -->
<g id="node52" class="node"><title>Node23</title>
<a xlink:href="DockModeClock_8h.htm" target="_top" xlink:title="DockModeClock.h">
<polygon fill="white" stroke="black" points="748,-58.5 748,-79.5 850,-79.5 850,-58.5 748,-58.5"/>
<text text-anchor="middle" x="799" y="-66.5" font-family="Helvetica,sans-Serif" font-size="10.00">DockModeClock.h</text>
</a>
</g>
<!-- Node22&#45;&gt;Node23 -->
<g id="edge58" class="edge"><title>Node22&#45;&gt;Node23</title>
<path fill="none" stroke="midnightblue" d="M752.697,-109.691C763.838,-99.8996 777.41,-87.973 786.971,-79.5707"/>
<polygon fill="midnightblue" stroke="midnightblue" points="750.307,-107.132 745.105,-116.362 754.928,-112.39 750.307,-107.132"/>
</g>
<!-- Node25 -->
<g id="node56" class="node"><title>Node25</title>
<a xlink:href="DockModeWindowManager_8cpp.htm" target="_top" xlink:title="DockModeWindowManager.cpp">
<polygon fill="white" stroke="black" points="794.5,-0.5 794.5,-21.5 961.5,-21.5 961.5,-0.5 794.5,-0.5"/>
<text text-anchor="middle" x="878" y="-8.5" font-family="Helvetica,sans-Serif" font-size="10.00">DockModeWindowManager.cpp</text>
</a>
</g>
<!-- Node22&#45;&gt;Node25 -->
<g id="edge68" class="edge"><title>Node22&#45;&gt;Node25</title>
<path fill="none" stroke="midnightblue" d="M799.526,-114.858C821.078,-107.91 843.416,-97.0254 859,-80 873.933,-63.6861 877.286,-36.7 877.942,-21.7698"/>
<polygon fill="midnightblue" stroke="midnightblue" points="798.292,-111.574 789.707,-117.782 800.29,-118.283 798.292,-111.574"/>
</g>
<!-- Node26 -->
<g id="node58" class="node"><title>Node26</title>
<a xlink:href="DockModeLaunchPoint_8cpp.htm" target="_top" xlink:title="DockModeLaunchPoint.cpp">
<polygon fill="white" stroke="black" points="442,-58.5 442,-79.5 588,-79.5 588,-58.5 442,-58.5"/>
<text text-anchor="middle" x="515" y="-66.5" font-family="Helvetica,sans-Serif" font-size="10.00">DockModeLaunchPoint.cpp</text>
</a>
</g>
<!-- Node22&#45;&gt;Node26 -->
<g id="edge64" class="edge"><title>Node22&#45;&gt;Node26</title>
<path fill="none" stroke="midnightblue" d="M683.432,-113.812C644.403,-103.428 590.731,-89.1487 554.552,-79.5231"/>
<polygon fill="midnightblue" stroke="midnightblue" points="682.958,-117.308 693.522,-116.497 684.758,-110.543 682.958,-117.308"/>
</g>
<!-- Node27 -->
<g id="node60" class="node"><title>Node27</title>
<a xlink:href="DockModeWindow_8cpp.htm" target="_top" xlink:title="DockModeWindow.cpp">
<polygon fill="white" stroke="black" points="605.5,-58.5 605.5,-79.5 730.5,-79.5 730.5,-58.5 605.5,-58.5"/>
<text text-anchor="middle" x="668" y="-66.5" font-family="Helvetica,sans-Serif" font-size="10.00">DockModeWindow.cpp</text>
</a>
</g>
<!-- Node22&#45;&gt;Node27 -->
<g id="edge66" class="edge"><title>Node22&#45;&gt;Node27</title>
<path fill="none" stroke="midnightblue" d="M713.602,-109.691C702.629,-99.8996 689.263,-87.973 679.846,-79.5707"/>
<polygon fill="midnightblue" stroke="midnightblue" points="711.286,-112.315 721.078,-116.362 715.947,-107.092 711.286,-112.315"/>
</g>
<!-- Node24 -->
<g id="node54" class="node"><title>Node24</title>
<a xlink:href="DockModeClock_8cpp.htm" target="_top" xlink:title="DockModeClock.cpp">
<polygon fill="white" stroke="black" points="664.5,-0.5 664.5,-21.5 777.5,-21.5 777.5,-0.5 664.5,-0.5"/>
<text text-anchor="middle" x="721" y="-8.5" font-family="Helvetica,sans-Serif" font-size="10.00">DockModeClock.cpp</text>
</a>
</g>
<!-- Node23&#45;&gt;Node24 -->
<g id="edge60" class="edge"><title>Node23&#45;&gt;Node24</title>
<path fill="none" stroke="midnightblue" d="M776.486,-52.2587C763.179,-42.3641 746.735,-30.1361 735.216,-21.5707"/>
<polygon fill="midnightblue" stroke="midnightblue" points="774.58,-55.2035 784.694,-58.3619 778.757,-49.5862 774.58,-55.2035"/>
</g>
<!-- Node23&#45;&gt;Node25 -->
<g id="edge62" class="edge"><title>Node23&#45;&gt;Node25</title>
<path fill="none" stroke="midnightblue" d="M821.803,-52.2587C835.28,-42.3641 851.935,-30.1361 863.602,-21.5707"/>
<polygon fill="midnightblue" stroke="midnightblue" points="819.479,-49.6225 813.49,-58.3619 823.622,-55.2651 819.479,-49.6225"/>
</g>
</g>
</svg>
