<?xml version="1.0" encoding="UTF-8" standalone="no"?>
<!DOCTYPE svg PUBLIC "-//W3C//DTD SVG 1.1//EN"
 "http://www.w3.org/Graphics/SVG/1.1/DTD/svg11.dtd">
<!-- Generated by graphviz version 2.26.3 (20100126.1600)
 -->
<!-- Title: G Pages: 1 -->
<svg width="1909pt" height="262pt"
 viewBox="0.00 0.00 1909.00 262.00" xmlns="http://www.w3.org/2000/svg" xmlns:xlink="http://www.w3.org/1999/xlink">
<g id="graph1" class="graph" transform="scale(1 1) rotate(0) translate(4 258)">
<title>G</title>
<polygon fill="white" stroke="white" points="-4,5 -4,-258 1906,-258 1906,5 -4,5"/>
<!-- Node1 -->
<g id="node1" class="node"><title>Node1</title>
<polygon fill="#bfbfbf" stroke="black" points="1227,-232.5 1227,-253.5 1355,-253.5 1355,-232.5 1227,-232.5"/>
<text text-anchor="middle" x="1291" y="-240.5" font-family="Helvetica,sans-Serif" font-size="10.00">CardWindowManager.h</text>
</g>
<!-- Node2 -->
<g id="node3" class="node"><title>Node2</title>
<a xlink:href="Common_8h.htm" target="_top" xlink:title="Common.h">
<polygon fill="white" stroke="black" points="470.5,-0.5 470.5,-21.5 537.5,-21.5 537.5,-0.5 470.5,-0.5"/>
<text text-anchor="middle" x="504" y="-8.5" font-family="Helvetica,sans-Serif" font-size="10.00">Common.h</text>
</a>
</g>
<!-- Node1&#45;&gt;Node2 -->
<g id="edge2" class="edge"><title>Node1&#45;&gt;Node2</title>
<path fill="none" stroke="midnightblue" d="M1226.79,-238.967C1112.36,-231.367 882.079,-214.06 850,-196 811.038,-174.065 817.665,-150.315 789,-116 766.614,-89.2006 766.387,-75.2034 736,-58 704.372,-40.094 605.694,-24.4943 547.72,-16.5621"/>
<polygon fill="midnightblue" stroke="midnightblue" points="548.119,-13.0843 537.741,-15.2174 547.184,-20.0216 548.119,-13.0843"/>
</g>
<!-- Node3 -->
<g id="node5" class="node"><title>Node3</title>
<a xlink:href="WindowManagerBase_8h.htm" target="_top" xlink:title="WindowManagerBase.h">
<polygon fill="white" stroke="black" points="635.5,-174.5 635.5,-195.5 764.5,-195.5 764.5,-174.5 635.5,-174.5"/>
<text text-anchor="middle" x="700" y="-182.5" font-family="Helvetica,sans-Serif" font-size="10.00">WindowManagerBase.h</text>
</a>
</g>
<!-- Node1&#45;&gt;Node3 -->
<g id="edge4" class="edge"><title>Node1&#45;&gt;Node3</title>
<path fill="none" stroke="midnightblue" d="M1226.91,-236.71C1116.72,-225.896 891.934,-203.836 774.779,-192.339"/>
<polygon fill="midnightblue" stroke="midnightblue" points="775.109,-188.854 764.815,-191.361 774.426,-195.821 775.109,-188.854"/>
</g>
<!-- Node9 -->
<g id="node19" class="node"><title>Node9</title>
<a xlink:href="Preferences_8h.htm" target="_top" xlink:title="Preferences.h">
<polygon fill="white" stroke="black" points="256.5,-174.5 256.5,-195.5 339.5,-195.5 339.5,-174.5 256.5,-174.5"/>
<text text-anchor="middle" x="298" y="-182.5" font-family="Helvetica,sans-Serif" font-size="10.00">Preferences.h</text>
</a>
</g>
<!-- Node1&#45;&gt;Node9 -->
<g id="edge20" class="edge"><title>Node1&#45;&gt;Node9</title>
<path fill="none" stroke="midnightblue" d="M1226.99,-239.261C1043.3,-228.532 516.889,-197.785 349.655,-188.017"/>
<polygon fill="midnightblue" stroke="midnightblue" points="349.817,-184.521 339.63,-187.432 349.409,-191.509 349.817,-184.521"/>
</g>
<!-- Node17 -->
<g id="node41" class="node"><title>Node17</title>
<a xlink:href="BezelGesture_8h.htm" target="_top" xlink:title="BezelGesture.h">
<polygon fill="white" stroke="black" points="858.5,-174.5 858.5,-195.5 947.5,-195.5 947.5,-174.5 858.5,-174.5"/>
<text text-anchor="middle" x="903" y="-182.5" font-family="Helvetica,sans-Serif" font-size="10.00">BezelGesture.h</text>
</a>
</g>
<!-- Node1&#45;&gt;Node17 -->
<g id="edge48" class="edge"><title>Node1&#45;&gt;Node17</title>
<path fill="none" stroke="midnightblue" d="M1226.9,-235.269C1161.5,-227.098 1056.89,-213.24 957.673,-196.219"/>
<polygon fill="midnightblue" stroke="midnightblue" points="958.23,-192.764 947.78,-194.508 957.037,-199.661 958.23,-192.764"/>
</g>
<!-- Node21 -->
<g id="node50" class="node"><title>Node21</title>
<polygon fill="white" stroke="#bfbfbf" points="965,-174.5 965,-195.5 1055,-195.5 1055,-174.5 965,-174.5"/>
<text text-anchor="middle" x="1010" y="-182.5" font-family="Helvetica,sans-Serif" font-size="10.00">QStateMachine</text>
</g>
<!-- Node1&#45;&gt;Node21 -->
<g id="edge58" class="edge"><title>Node1&#45;&gt;Node21</title>
<path fill="none" stroke="midnightblue" d="M1240.11,-232.497C1190.74,-222.305 1116.02,-206.884 1065.23,-196.399"/>
<polygon fill="midnightblue" stroke="midnightblue" points="1065.9,-192.965 1055.4,-194.371 1064.49,-199.82 1065.9,-192.965"/>
</g>
<!-- Node22 -->
<g id="node52" class="node"><title>Node22</title>
<polygon fill="white" stroke="#bfbfbf" points="1073,-174.5 1073,-195.5 1229,-195.5 1229,-174.5 1073,-174.5"/>
<text text-anchor="middle" x="1151" y="-182.5" font-family="Helvetica,sans-Serif" font-size="10.00">QGraphicsSceneMouseEvent</text>
</g>
<!-- Node1&#45;&gt;Node22 -->
<g id="edge60" class="edge"><title>Node1&#45;&gt;Node22</title>
<path fill="none" stroke="midnightblue" d="M1265.65,-232.497C1243.39,-223.275 1210.79,-209.769 1186.04,-199.515"/>
<polygon fill="midnightblue" stroke="midnightblue" points="1187.22,-196.215 1176.64,-195.621 1184.54,-202.682 1187.22,-196.215"/>
</g>
<!-- Node23 -->
<g id="node54" class="node"><title>Node23</title>
<polygon fill="white" stroke="#bfbfbf" points="1246.5,-174.5 1246.5,-195.5 1335.5,-195.5 1335.5,-174.5 1246.5,-174.5"/>
<text text-anchor="middle" x="1291" y="-182.5" font-family="Helvetica,sans-Serif" font-size="10.00">QGestureEvent</text>
</g>
<!-- Node1&#45;&gt;Node23 -->
<g id="edge62" class="edge"><title>Node1&#45;&gt;Node23</title>
<path fill="none" stroke="midnightblue" d="M1291,-232.362C1291,-224.922 1291,-214.743 1291,-205.728"/>
<polygon fill="midnightblue" stroke="midnightblue" points="1294.5,-205.571 1291,-195.571 1287.5,-205.571 1294.5,-205.571"/>
</g>
<!-- Node24 -->
<g id="node56" class="node"><title>Node24</title>
<polygon fill="white" stroke="#bfbfbf" points="1353,-174.5 1353,-195.5 1489,-195.5 1489,-174.5 1353,-174.5"/>
<text text-anchor="middle" x="1421" y="-182.5" font-family="Helvetica,sans-Serif" font-size="10.00">QParallelAnimationGroup</text>
</g>
<!-- Node1&#45;&gt;Node24 -->
<g id="edge64" class="edge"><title>Node1&#45;&gt;Node24</title>
<path fill="none" stroke="midnightblue" d="M1314.54,-232.497C1335.03,-223.356 1364.95,-210.008 1387.85,-199.788"/>
<polygon fill="midnightblue" stroke="midnightblue" points="1389.49,-202.892 1397.19,-195.621 1386.64,-196.499 1389.49,-202.892"/>
</g>
<!-- Node25 -->
<g id="node58" class="node"><title>Node25</title>
<polygon fill="white" stroke="#bfbfbf" points="1507,-174.5 1507,-195.5 1553,-195.5 1553,-174.5 1507,-174.5"/>
<text text-anchor="middle" x="1530" y="-182.5" font-family="Helvetica,sans-Serif" font-size="10.00">QMap</text>
</g>
<!-- Node1&#45;&gt;Node25 -->
<g id="edge66" class="edge"><title>Node1&#45;&gt;Node25</title>
<path fill="none" stroke="midnightblue" d="M1344.58,-232.491C1384.31,-224.322 1439.94,-212.101 1496.8,-196.149"/>
<polygon fill="midnightblue" stroke="midnightblue" points="1498.01,-199.443 1506.67,-193.344 1496.1,-192.709 1498.01,-199.443"/>
</g>
<!-- Node26 -->
<g id="node60" class="node"><title>Node26</title>
<polygon fill="white" stroke="#bfbfbf" points="1571,-174.5 1571,-195.5 1623,-195.5 1623,-174.5 1571,-174.5"/>
<text text-anchor="middle" x="1597" y="-182.5" font-family="Helvetica,sans-Serif" font-size="10.00">QTimer</text>
</g>
<!-- Node1&#45;&gt;Node26 -->
<g id="edge68" class="edge"><title>Node1&#45;&gt;Node26</title>
<path fill="none" stroke="midnightblue" d="M1355.01,-234.349C1407.86,-226.649 1484.96,-214.14 1560.56,-196.127"/>
<polygon fill="midnightblue" stroke="midnightblue" points="1561.83,-199.419 1570.73,-193.667 1560.19,-192.616 1561.83,-199.419"/>
</g>
<!-- Node27 -->
<g id="node62" class="node"><title>Node27</title>
<polygon fill="white" stroke="#bfbfbf" points="1640.5,-174.5 1640.5,-195.5 1731.5,-195.5 1731.5,-174.5 1640.5,-174.5"/>
<text text-anchor="middle" x="1686" y="-182.5" font-family="Helvetica,sans-Serif" font-size="10.00">QSignalMapper</text>
</g>
<!-- Node1&#45;&gt;Node27 -->
<g id="edge70" class="edge"><title>Node1&#45;&gt;Node27</title>
<path fill="none" stroke="midnightblue" d="M1355.29,-235.384C1421.77,-227.227 1528.8,-213.313 1630.26,-196.225"/>
<polygon fill="midnightblue" stroke="midnightblue" points="1631.1,-199.633 1640.37,-194.508 1629.93,-192.731 1631.1,-199.633"/>
</g>
<!-- Node28 -->
<g id="node64" class="node"><title>Node28</title>
<polygon fill="white" stroke="#bfbfbf" points="1748.5,-174.5 1748.5,-195.5 1833.5,-195.5 1833.5,-174.5 1748.5,-174.5"/>
<text text-anchor="middle" x="1791" y="-182.5" font-family="Helvetica,sans-Serif" font-size="10.00">QEasingCurve</text>
</g>
<!-- Node1&#45;&gt;Node28 -->
<g id="edge72" class="edge"><title>Node1&#45;&gt;Node28</title>
<path fill="none" stroke="midnightblue" d="M1355.23,-238.472C1440.59,-231.967 1596.27,-218.409 1738.29,-196.147"/>
<polygon fill="midnightblue" stroke="midnightblue" points="1739.16,-199.552 1748.49,-194.529 1738.06,-192.639 1739.16,-199.552"/>
</g>
<!-- Node29 -->
<g id="node66" class="node"><title>Node29</title>
<polygon fill="white" stroke="#bfbfbf" points="1851,-174.5 1851,-195.5 1901,-195.5 1901,-174.5 1851,-174.5"/>
<text text-anchor="middle" x="1876" y="-182.5" font-family="Helvetica,sans-Serif" font-size="10.00">stdint.h</text>
</g>
<!-- Node1&#45;&gt;Node29 -->
<g id="edge74" class="edge"><title>Node1&#45;&gt;Node29</title>
<path fill="none" stroke="midnightblue" d="M1355.27,-239.361C1476.07,-232.229 1733.71,-215.544 1841.01,-195.745"/>
<polygon fill="midnightblue" stroke="midnightblue" points="1841.77,-199.163 1850.92,-193.819 1840.43,-192.292 1841.77,-199.163"/>
</g>
<!-- Node3&#45;&gt;Node2 -->
<g id="edge6" class="edge"><title>Node3&#45;&gt;Node2</title>
<path fill="none" stroke="midnightblue" d="M727.608,-174.288C753.451,-162.451 786.37,-141.627 774,-116 755.987,-78.6816 738.262,-76.1285 701,-58 651.449,-33.8929 588.737,-21.6876 547.548,-15.8465"/>
<polygon fill="midnightblue" stroke="midnightblue" points="547.941,-12.3678 537.562,-14.4953 547.002,-19.3046 547.941,-12.3678"/>
</g>
<!-- Node4 -->
<g id="node8" class="node"><title>Node4</title>
<polygon fill="white" stroke="#bfbfbf" points="453,-116.5 453,-137.5 541,-137.5 541,-116.5 453,-116.5"/>
<text text-anchor="middle" x="497" y="-124.5" font-family="Helvetica,sans-Serif" font-size="10.00">QGraphicsItem</text>
</g>
<!-- Node3&#45;&gt;Node4 -->
<g id="edge8" class="edge"><title>Node3&#45;&gt;Node4</title>
<path fill="none" stroke="midnightblue" d="M663.238,-174.497C629.714,-164.918 580.018,-150.72 543.696,-140.342"/>
<polygon fill="midnightblue" stroke="midnightblue" points="544.408,-136.905 533.831,-137.523 542.484,-143.636 544.408,-136.905"/>
</g>
<!-- Node5 -->
<g id="node10" class="node"><title>Node5</title>
<polygon fill="white" stroke="#bfbfbf" points="558.5,-116.5 558.5,-137.5 617.5,-137.5 617.5,-116.5 558.5,-116.5"/>
<text text-anchor="middle" x="588" y="-124.5" font-family="Helvetica,sans-Serif" font-size="10.00">QPainter</text>
</g>
<!-- Node3&#45;&gt;Node5 -->
<g id="edge10" class="edge"><title>Node3&#45;&gt;Node5</title>
<path fill="none" stroke="midnightblue" d="M679.718,-174.497C662.382,-165.519 637.21,-152.484 617.62,-142.339"/>
<polygon fill="midnightblue" stroke="midnightblue" points="618.999,-139.112 608.51,-137.621 615.78,-145.328 618.999,-139.112"/>
</g>
<!-- Node6 -->
<g id="node12" class="node"><title>Node6</title>
<a xlink:href="UiNavigationController_8h.htm" target="_top" xlink:title="UiNavigationController.h">
<polygon fill="white" stroke="black" points="634.5,-116.5 634.5,-137.5 765.5,-137.5 765.5,-116.5 634.5,-116.5"/>
<text text-anchor="middle" x="700" y="-124.5" font-family="Helvetica,sans-Serif" font-size="10.00">UiNavigationController.h</text>
</a>
</g>
<!-- Node3&#45;&gt;Node6 -->
<g id="edge12" class="edge"><title>Node3&#45;&gt;Node6</title>
<path fill="none" stroke="midnightblue" d="M700,-174.362C700,-166.922 700,-156.743 700,-147.728"/>
<polygon fill="midnightblue" stroke="midnightblue" points="703.5,-147.571 700,-137.571 696.5,-147.571 703.5,-147.571"/>
</g>
<!-- Node6&#45;&gt;Node2 -->
<g id="edge14" class="edge"><title>Node6&#45;&gt;Node2</title>
<path fill="none" stroke="midnightblue" d="M700.165,-116.277C699.793,-101.152 696.798,-73.6545 681,-58 662.313,-39.4834 593.824,-25.2664 547.727,-17.5276"/>
<polygon fill="midnightblue" stroke="midnightblue" points="548.118,-14.0451 537.684,-15.8839 546.987,-20.9532 548.118,-14.0451"/>
</g>
<!-- Node7 -->
<g id="node15" class="node"><title>Node7</title>
<polygon fill="white" stroke="#bfbfbf" points="463.5,-58.5 463.5,-79.5 518.5,-79.5 518.5,-58.5 463.5,-58.5"/>
<text text-anchor="middle" x="491" y="-66.5" font-family="Helvetica,sans-Serif" font-size="10.00">QObject</text>
</g>
<!-- Node6&#45;&gt;Node7 -->
<g id="edge16" class="edge"><title>Node6&#45;&gt;Node7</title>
<path fill="none" stroke="midnightblue" d="M662.152,-116.497C624.303,-105.993 566.435,-89.934 528.655,-79.4497"/>
<polygon fill="midnightblue" stroke="midnightblue" points="529.137,-75.9512 518.565,-76.6496 527.265,-82.6963 529.137,-75.9512"/>
</g>
<!-- Node8 -->
<g id="node17" class="node"><title>Node8</title>
<polygon fill="white" stroke="#bfbfbf" points="602,-58.5 602,-79.5 672,-79.5 672,-58.5 602,-58.5"/>
<text text-anchor="middle" x="637" y="-66.5" font-family="Helvetica,sans-Serif" font-size="10.00">QKeyEvent</text>
</g>
<!-- Node6&#45;&gt;Node8 -->
<g id="edge18" class="edge"><title>Node6&#45;&gt;Node8</title>
<path fill="none" stroke="midnightblue" d="M688.445,-116.362C679.387,-108.023 666.59,-96.2418 656.026,-86.5162"/>
<polygon fill="midnightblue" stroke="midnightblue" points="658.21,-83.7688 648.482,-79.5707 653.468,-88.9187 658.21,-83.7688"/>
</g>
<!-- Node9&#45;&gt;Node2 -->
<g id="edge22" class="edge"><title>Node9&#45;&gt;Node2</title>
<path fill="none" stroke="midnightblue" d="M256.116,-178.301C214.187,-170.639 153.945,-156.697 140,-138 124.112,-116.698 145.548,-69.8612 160,-58 182.862,-39.2359 372.874,-21.6172 460.294,-14.4173"/>
<polygon fill="midnightblue" stroke="midnightblue" points="460.746,-17.8921 470.428,-13.5915 460.177,-10.9153 460.746,-17.8921"/>
</g>
<!-- Node9&#45;&gt;Node7 -->
<g id="edge46" class="edge"><title>Node9&#45;&gt;Node7</title>
<path fill="none" stroke="midnightblue" d="M327.946,-174.49C350.242,-166.074 381.013,-153.189 406,-138 430.705,-122.983 456.061,-101.451 472.572,-86.4483"/>
<polygon fill="midnightblue" stroke="midnightblue" points="474.948,-89.018 479.925,-79.6649 470.202,-83.8729 474.948,-89.018"/>
</g>
<!-- Node10 -->
<g id="node22" class="node"><title>Node10</title>
<polygon fill="white" stroke="#bfbfbf" points="354.5,-116.5 354.5,-137.5 397.5,-137.5 397.5,-116.5 354.5,-116.5"/>
<text text-anchor="middle" x="376" y="-124.5" font-family="Helvetica,sans-Serif" font-size="10.00">string</text>
</g>
<!-- Node9&#45;&gt;Node10 -->
<g id="edge24" class="edge"><title>Node9&#45;&gt;Node10</title>
<path fill="none" stroke="midnightblue" d="M312.306,-174.362C323.851,-165.777 340.3,-153.546 353.59,-143.664"/>
<polygon fill="midnightblue" stroke="midnightblue" points="355.848,-146.346 361.784,-137.571 351.671,-140.729 355.848,-146.346"/>
</g>
<!-- Node11 -->
<g id="node24" class="node"><title>Node11</title>
<polygon fill="white" stroke="#bfbfbf" points="259,-116.5 259,-137.5 337,-137.5 337,-116.5 259,-116.5"/>
<text text-anchor="middle" x="298" y="-124.5" font-family="Helvetica,sans-Serif" font-size="10.00">lunaservice.h</text>
</g>
<!-- Node9&#45;&gt;Node11 -->
<g id="edge26" class="edge"><title>Node9&#45;&gt;Node11</title>
<path fill="none" stroke="midnightblue" d="M298,-174.362C298,-166.922 298,-156.743 298,-147.728"/>
<polygon fill="midnightblue" stroke="midnightblue" points="301.5,-147.571 298,-137.571 294.5,-147.571 301.5,-147.571"/>
</g>
<!-- Node12 -->
<g id="node26" class="node"><title>Node12</title>
<a xlink:href="Mutex_8h.htm" target="_top" xlink:title="Mutex.h">
<polygon fill="white" stroke="black" points="23.5,-116.5 23.5,-137.5 76.5,-137.5 76.5,-116.5 23.5,-116.5"/>
<text text-anchor="middle" x="50" y="-124.5" font-family="Helvetica,sans-Serif" font-size="10.00">Mutex.h</text>
</a>
</g>
<!-- Node9&#45;&gt;Node12 -->
<g id="edge28" class="edge"><title>Node9&#45;&gt;Node12</title>
<path fill="none" stroke="midnightblue" d="M256.49,-175.292C209.03,-164.193 132.064,-146.192 86.7102,-135.585"/>
<polygon fill="midnightblue" stroke="midnightblue" points="87.2504,-132.117 76.7161,-133.248 85.6563,-138.933 87.2504,-132.117"/>
</g>
<!-- Node15 -->
<g id="node35" class="node"><title>Node15</title>
<a xlink:href="CustomEvents_8h.htm" target="_top" xlink:title="CustomEvents.h">
<polygon fill="white" stroke="black" points="149,-116.5 149,-137.5 241,-137.5 241,-116.5 149,-116.5"/>
<text text-anchor="middle" x="195" y="-124.5" font-family="Helvetica,sans-Serif" font-size="10.00">CustomEvents.h</text>
</a>
</g>
<!-- Node9&#45;&gt;Node15 -->
<g id="edge40" class="edge"><title>Node9&#45;&gt;Node15</title>
<path fill="none" stroke="midnightblue" d="M279.108,-174.362C263.282,-165.45 240.477,-152.609 222.605,-142.545"/>
<polygon fill="midnightblue" stroke="midnightblue" points="224.203,-139.428 213.772,-137.571 220.768,-145.527 224.203,-139.428"/>
</g>
<!-- Node12&#45;&gt;Node2 -->
<g id="edge30" class="edge"><title>Node12&#45;&gt;Node2</title>
<path fill="none" stroke="midnightblue" d="M56.7342,-116.422C67.3972,-100.682 89.7761,-71.5043 117,-58 176.428,-28.5208 371.767,-16.6295 460.023,-12.676"/>
<polygon fill="midnightblue" stroke="midnightblue" points="460.4,-16.163 470.239,-12.2326 460.097,-9.16963 460.4,-16.163"/>
</g>
<!-- Node13 -->
<g id="node29" class="node"><title>Node13</title>
<a xlink:href="sptr_8h.htm" target="_top" xlink:title="sptr.h">
<polygon fill="white" stroke="black" points="22.5,-58.5 22.5,-79.5 65.5,-79.5 65.5,-58.5 22.5,-58.5"/>
<text text-anchor="middle" x="44" y="-66.5" font-family="Helvetica,sans-Serif" font-size="10.00">sptr.h</text>
</a>
</g>
<!-- Node12&#45;&gt;Node13 -->
<g id="edge32" class="edge"><title>Node12&#45;&gt;Node13</title>
<path fill="none" stroke="midnightblue" d="M48.8995,-116.362C48.1299,-108.922 47.0768,-98.7427 46.1442,-89.7276"/>
<polygon fill="midnightblue" stroke="midnightblue" points="49.604,-89.1574 45.0935,-79.5707 42.6412,-89.8777 49.604,-89.1574"/>
</g>
<!-- Node14 -->
<g id="node32" class="node"><title>Node14</title>
<polygon fill="white" stroke="#bfbfbf" points="-0.5,-0.5 -0.5,-21.5 40.5,-21.5 40.5,-0.5 -0.5,-0.5"/>
<text text-anchor="middle" x="20" y="-8.5" font-family="Helvetica,sans-Serif" font-size="10.00">glib.h</text>
</g>
<!-- Node12&#45;&gt;Node14 -->
<g id="edge38" class="edge"><title>Node12&#45;&gt;Node14</title>
<path fill="none" stroke="midnightblue" d="M38.4402,-116.296C29.8493,-107.501 18.8175,-94.212 14,-80 8.70007,-64.3648 10.8108,-45.6536 13.9078,-31.663"/>
<polygon fill="midnightblue" stroke="midnightblue" points="17.3934,-32.1593 16.4802,-21.6039 10.6117,-30.425 17.3934,-32.1593"/>
</g>
<!-- Node13&#45;&gt;Node2 -->
<g id="edge34" class="edge"><title>Node13&#45;&gt;Node2</title>
<path fill="none" stroke="midnightblue" d="M65.6707,-61.471C70.043,-60.1561 74.6369,-58.9178 79,-58 216.202,-29.1398 382.283,-17.2818 459.954,-13.0472"/>
<polygon fill="midnightblue" stroke="midnightblue" points="460.513,-16.5226 470.314,-12.4993 460.144,-9.53236 460.513,-16.5226"/>
</g>
<!-- Node13&#45;&gt;Node14 -->
<g id="edge36" class="edge"><title>Node13&#45;&gt;Node14</title>
<path fill="none" stroke="midnightblue" d="M39.598,-58.3619C36.4179,-50.6766 32.0284,-40.0686 28.2096,-30.8399"/>
<polygon fill="midnightblue" stroke="midnightblue" points="31.4317,-29.4726 24.3741,-21.5707 24.9636,-32.1491 31.4317,-29.4726"/>
</g>
<!-- Node15&#45;&gt;Node2 -->
<g id="edge42" class="edge"><title>Node15&#45;&gt;Node2</title>
<path fill="none" stroke="midnightblue" d="M223.241,-116.398C279.101,-95.4279 403.712,-48.6487 466.423,-25.1065"/>
<polygon fill="midnightblue" stroke="midnightblue" points="467.805,-28.3265 475.937,-21.5352 465.344,-21.7731 467.805,-28.3265"/>
</g>
<!-- Node16 -->
<g id="node38" class="node"><title>Node16</title>
<polygon fill="white" stroke="#bfbfbf" points="169,-58.5 169,-79.5 221,-79.5 221,-58.5 169,-58.5"/>
<text text-anchor="middle" x="195" y="-66.5" font-family="Helvetica,sans-Serif" font-size="10.00">QEvent</text>
</g>
<!-- Node15&#45;&gt;Node16 -->
<g id="edge44" class="edge"><title>Node15&#45;&gt;Node16</title>
<path fill="none" stroke="midnightblue" d="M195,-116.362C195,-108.922 195,-98.7427 195,-89.7276"/>
<polygon fill="midnightblue" stroke="midnightblue" points="198.5,-89.5706 195,-79.5707 191.5,-89.5707 198.5,-89.5706"/>
</g>
<!-- Node17&#45;&gt;Node2 -->
<g id="edge50" class="edge"><title>Node17&#45;&gt;Node2</title>
<path fill="none" stroke="midnightblue" d="M899.651,-174.469C890.627,-146.769 865.127,-72.9757 845,-58 798.885,-23.6885 629.534,-14.404 548.189,-11.9083"/>
<polygon fill="midnightblue" stroke="midnightblue" points="547.88,-8.39812 537.784,-11.6115 547.68,-15.3953 547.88,-8.39812"/>
</g>
<!-- Node18 -->
<g id="node44" class="node"><title>Node18</title>
<polygon fill="white" stroke="#bfbfbf" points="997,-116.5 997,-137.5 1059,-137.5 1059,-116.5 997,-116.5"/>
<text text-anchor="middle" x="1028" y="-124.5" font-family="Helvetica,sans-Serif" font-size="10.00">QGesture</text>
</g>
<!-- Node17&#45;&gt;Node18 -->
<g id="edge52" class="edge"><title>Node17&#45;&gt;Node18</title>
<path fill="none" stroke="midnightblue" d="M925.637,-174.497C945.248,-165.397 973.846,-152.127 995.833,-141.925"/>
<polygon fill="midnightblue" stroke="midnightblue" points="997.512,-145.005 1005.11,-137.621 994.565,-138.655 997.512,-145.005"/>
</g>
<!-- Node19 -->
<g id="node46" class="node"><title>Node19</title>
<polygon fill="white" stroke="#bfbfbf" points="1076.5,-116.5 1076.5,-137.5 1125.5,-137.5 1125.5,-116.5 1076.5,-116.5"/>
<text text-anchor="middle" x="1101" y="-124.5" font-family="Helvetica,sans-Serif" font-size="10.00">QPoint</text>
</g>
<!-- Node17&#45;&gt;Node19 -->
<g id="edge54" class="edge"><title>Node17&#45;&gt;Node19</title>
<path fill="none" stroke="midnightblue" d="M941.816,-174.466C973.248,-165.818 1018.88,-153.002 1066.6,-138.359"/>
<polygon fill="midnightblue" stroke="midnightblue" points="1067.65,-141.7 1076.17,-135.407 1065.58,-135.011 1067.65,-141.7"/>
</g>
<!-- Node20 -->
<g id="node48" class="node"><title>Node20</title>
<polygon fill="white" stroke="#bfbfbf" points="896.5,-116.5 896.5,-137.5 979.5,-137.5 979.5,-116.5 896.5,-116.5"/>
<text text-anchor="middle" x="938" y="-124.5" font-family="Helvetica,sans-Serif" font-size="10.00">SysMgrDefs.h</text>
</g>
<!-- Node17&#45;&gt;Node20 -->
<g id="edge56" class="edge"><title>Node17&#45;&gt;Node20</title>
<path fill="none" stroke="midnightblue" d="M909.42,-174.362C914.156,-166.513 920.732,-155.616 926.382,-146.253"/>
<polygon fill="midnightblue" stroke="midnightblue" points="929.451,-147.941 931.621,-137.571 923.458,-144.324 929.451,-147.941"/>
</g>
</g>
</svg>
