<?xml version="1.0" encoding="UTF-8" standalone="no"?>
<!DOCTYPE svg PUBLIC "-//W3C//DTD SVG 1.1//EN"
 "http://www.w3.org/Graphics/SVG/1.1/DTD/svg11.dtd">
<!-- Generated by graphviz version 2.26.3 (20100126.1600)
 -->
<!-- Title: G Pages: 1 -->
<svg width="765pt" height="146pt"
 viewBox="0.00 0.00 765.00 146.00" xmlns="http://www.w3.org/2000/svg" xmlns:xlink="http://www.w3.org/1999/xlink">
<g id="graph1" class="graph" transform="scale(1 1) rotate(0) translate(4 142)">
<title>G</title>
<polygon fill="white" stroke="white" points="-4,5 -4,-142 762,-142 762,5 -4,5"/>
<!-- Node1 -->
<g id="node1" class="node"><title>Node1</title>
<polygon fill="#bfbfbf" stroke="black" points="303,-116.5 303,-137.5 461,-137.5 461,-116.5 303,-116.5"/>
<text text-anchor="middle" x="382" y="-124.5" font-family="Helvetica,sans-Serif" font-size="10.00">CardWindowManagerStates.h</text>
</g>
<!-- Node2 -->
<g id="node3" class="node"><title>Node2</title>
<a xlink:href="Common_8h.htm" target="_top" xlink:title="Common.h">
<polygon fill="white" stroke="black" points="-0.5,-0.5 -0.5,-21.5 66.5,-21.5 66.5,-0.5 -0.5,-0.5"/>
<text text-anchor="middle" x="33" y="-8.5" font-family="Helvetica,sans-Serif" font-size="10.00">Common.h</text>
</a>
</g>
<!-- Node1&#45;&gt;Node2 -->
<g id="edge2" class="edge"><title>Node1&#45;&gt;Node2</title>
<path fill="none" stroke="midnightblue" d="M302.948,-124.143C220.594,-119.667 98.5586,-108.337 62,-80 46.8963,-68.293 39.5754,-47.266 36.0798,-31.4903"/>
<polygon fill="midnightblue" stroke="midnightblue" points="39.5058,-30.7701 34.2223,-21.5867 32.6258,-32.0606 39.5058,-30.7701"/>
</g>
<!-- Node3 -->
<g id="node5" class="node"><title>Node3</title>
<a xlink:href="BezelGesture_8h.htm" target="_top" xlink:title="BezelGesture.h">
<polygon fill="white" stroke="black" points="70.5,-58.5 70.5,-79.5 159.5,-79.5 159.5,-58.5 70.5,-58.5"/>
<text text-anchor="middle" x="115" y="-66.5" font-family="Helvetica,sans-Serif" font-size="10.00">BezelGesture.h</text>
</a>
</g>
<!-- Node1&#45;&gt;Node3 -->
<g id="edge4" class="edge"><title>Node1&#45;&gt;Node3</title>
<path fill="none" stroke="midnightblue" d="M333.648,-116.497C287.49,-106.47 218.024,-91.3798 169.827,-80.9101"/>
<polygon fill="midnightblue" stroke="midnightblue" points="170.397,-77.4522 159.881,-78.7495 168.911,-84.2926 170.397,-77.4522"/>
</g>
<!-- Node7 -->
<g id="node14" class="node"><title>Node7</title>
<polygon fill="white" stroke="#bfbfbf" points="177,-58.5 177,-79.5 227,-79.5 227,-58.5 177,-58.5"/>
<text text-anchor="middle" x="202" y="-66.5" font-family="Helvetica,sans-Serif" font-size="10.00">QState</text>
</g>
<!-- Node1&#45;&gt;Node7 -->
<g id="edge14" class="edge"><title>Node1&#45;&gt;Node7</title>
<path fill="none" stroke="midnightblue" d="M349.234,-116.467C321.664,-107.601 280.945,-94.4991 236.977,-80.3126"/>
<polygon fill="midnightblue" stroke="midnightblue" points="237.841,-76.9139 227.25,-77.1735 235.691,-83.5756 237.841,-76.9139"/>
</g>
<!-- Node8 -->
<g id="node16" class="node"><title>Node8</title>
<polygon fill="white" stroke="#bfbfbf" points="245,-58.5 245,-79.5 401,-79.5 401,-58.5 245,-58.5"/>
<text text-anchor="middle" x="323" y="-66.5" font-family="Helvetica,sans-Serif" font-size="10.00">QGraphicsSceneMouseEvent</text>
</g>
<!-- Node1&#45;&gt;Node8 -->
<g id="edge16" class="edge"><title>Node1&#45;&gt;Node8</title>
<path fill="none" stroke="midnightblue" d="M371.178,-116.362C362.779,-108.104 350.946,-96.4725 341.11,-86.8029"/>
<polygon fill="midnightblue" stroke="midnightblue" points="343.338,-84.0851 333.753,-79.5707 338.431,-89.077 343.338,-84.0851"/>
</g>
<!-- Node9 -->
<g id="node18" class="node"><title>Node9</title>
<polygon fill="white" stroke="#bfbfbf" points="418.5,-58.5 418.5,-79.5 465.5,-79.5 465.5,-58.5 418.5,-58.5"/>
<text text-anchor="middle" x="442" y="-66.5" font-family="Helvetica,sans-Serif" font-size="10.00">QRect</text>
</g>
<!-- Node1&#45;&gt;Node9 -->
<g id="edge18" class="edge"><title>Node1&#45;&gt;Node9</title>
<path fill="none" stroke="midnightblue" d="M393.005,-116.362C401.547,-108.104 413.58,-96.4725 423.583,-86.8029"/>
<polygon fill="midnightblue" stroke="midnightblue" points="426.308,-89.0374 431.065,-79.5707 421.442,-84.0044 426.308,-89.0374"/>
</g>
<!-- Node10 -->
<g id="node20" class="node"><title>Node10</title>
<polygon fill="white" stroke="#bfbfbf" points="482.5,-58.5 482.5,-79.5 583.5,-79.5 583.5,-58.5 482.5,-58.5"/>
<text text-anchor="middle" x="533" y="-66.5" font-family="Helvetica,sans-Serif" font-size="10.00">QSignalTransition</text>
</g>
<!-- Node1&#45;&gt;Node10 -->
<g id="edge20" class="edge"><title>Node1&#45;&gt;Node10</title>
<path fill="none" stroke="midnightblue" d="M409.345,-116.497C433.642,-107.164 469.36,-93.4447 496.168,-83.1475"/>
<polygon fill="midnightblue" stroke="midnightblue" points="497.524,-86.376 505.604,-79.5231 495.014,-79.8415 497.524,-86.376"/>
</g>
<!-- Node11 -->
<g id="node22" class="node"><title>Node11</title>
<polygon fill="white" stroke="#bfbfbf" points="601,-58.5 601,-79.5 689,-79.5 689,-58.5 601,-58.5"/>
<text text-anchor="middle" x="645" y="-66.5" font-family="Helvetica,sans-Serif" font-size="10.00">QGraphicsItem</text>
</g>
<!-- Node1&#45;&gt;Node11 -->
<g id="edge22" class="edge"><title>Node1&#45;&gt;Node11</title>
<path fill="none" stroke="midnightblue" d="M429.627,-116.497C475.094,-106.47 543.519,-91.3798 590.994,-80.9101"/>
<polygon fill="midnightblue" stroke="midnightblue" points="591.779,-84.3211 600.791,-78.7495 590.272,-77.4853 591.779,-84.3211"/>
</g>
<!-- Node12 -->
<g id="node24" class="node"><title>Node12</title>
<polygon fill="white" stroke="#bfbfbf" points="707,-58.5 707,-79.5 757,-79.5 757,-58.5 707,-58.5"/>
<text text-anchor="middle" x="732" y="-66.5" font-family="Helvetica,sans-Serif" font-size="10.00">stdint.h</text>
</g>
<!-- Node1&#45;&gt;Node12 -->
<g id="edge24" class="edge"><title>Node1&#45;&gt;Node12</title>
<path fill="none" stroke="midnightblue" d="M461.251,-118.891C523.193,-111.708 611.503,-99.6125 697.008,-79.9464"/>
<polygon fill="midnightblue" stroke="midnightblue" points="697.939,-83.3232 706.88,-77.6387 696.346,-76.507 697.939,-83.3232"/>
</g>
<!-- Node3&#45;&gt;Node2 -->
<g id="edge6" class="edge"><title>Node3&#45;&gt;Node2</title>
<path fill="none" stroke="midnightblue" d="M99.9599,-58.3619C87.7075,-49.6955 70.2005,-37.3126 56.1606,-27.3819"/>
<polygon fill="midnightblue" stroke="midnightblue" points="58.13,-24.4879 47.9447,-21.5707 54.0877,-30.2028 58.13,-24.4879"/>
</g>
<!-- Node4 -->
<g id="node8" class="node"><title>Node4</title>
<polygon fill="white" stroke="#bfbfbf" points="84,-0.5 84,-21.5 146,-21.5 146,-0.5 84,-0.5"/>
<text text-anchor="middle" x="115" y="-8.5" font-family="Helvetica,sans-Serif" font-size="10.00">QGesture</text>
</g>
<!-- Node3&#45;&gt;Node4 -->
<g id="edge8" class="edge"><title>Node3&#45;&gt;Node4</title>
<path fill="none" stroke="midnightblue" d="M115,-58.3619C115,-50.9219 115,-40.7427 115,-31.7276"/>
<polygon fill="midnightblue" stroke="midnightblue" points="118.5,-31.5706 115,-21.5707 111.5,-31.5707 118.5,-31.5706"/>
</g>
<!-- Node5 -->
<g id="node10" class="node"><title>Node5</title>
<polygon fill="white" stroke="#bfbfbf" points="163.5,-0.5 163.5,-21.5 212.5,-21.5 212.5,-0.5 163.5,-0.5"/>
<text text-anchor="middle" x="188" y="-8.5" font-family="Helvetica,sans-Serif" font-size="10.00">QPoint</text>
</g>
<!-- Node3&#45;&gt;Node5 -->
<g id="edge10" class="edge"><title>Node3&#45;&gt;Node5</title>
<path fill="none" stroke="midnightblue" d="M128.389,-58.3619C139.091,-49.859 154.296,-37.7785 166.671,-27.9466"/>
<polygon fill="midnightblue" stroke="midnightblue" points="169.043,-30.5318 174.696,-21.5707 164.689,-25.0511 169.043,-30.5318"/>
</g>
<!-- Node6 -->
<g id="node12" class="node"><title>Node6</title>
<polygon fill="white" stroke="#bfbfbf" points="229.5,-0.5 229.5,-21.5 312.5,-21.5 312.5,-0.5 229.5,-0.5"/>
<text text-anchor="middle" x="271" y="-8.5" font-family="Helvetica,sans-Serif" font-size="10.00">SysMgrDefs.h</text>
</g>
<!-- Node3&#45;&gt;Node6 -->
<g id="edge12" class="edge"><title>Node3&#45;&gt;Node6</title>
<path fill="none" stroke="midnightblue" d="M143.25,-58.4966C168.462,-49.1229 205.576,-35.3242 233.312,-25.0122"/>
<polygon fill="midnightblue" stroke="midnightblue" points="234.543,-28.2886 242.697,-21.5231 232.104,-21.7274 234.543,-28.2886"/>
</g>
</g>
</svg>
