<?xml version="1.0" encoding="UTF-8" standalone="no"?>
<!DOCTYPE svg PUBLIC "-//W3C//DTD SVG 1.1//EN"
 "http://www.w3.org/Graphics/SVG/1.1/DTD/svg11.dtd">
<!-- Generated by graphviz version 2.26.3 (20100126.1600)
 -->
<!-- Title: G Pages: 1 -->
<svg width="3051pt" height="378pt"
 viewBox="0.00 0.00 3051.23 378.00" xmlns="http://www.w3.org/2000/svg" xmlns:xlink="http://www.w3.org/1999/xlink">
<g id="graph1" class="graph" transform="scale(1 1) rotate(0) translate(4 374)">
<title>G</title>
<polygon fill="white" stroke="white" points="-4,5 -4,-374 3048.23,-374 3048.23,5 -4,5"/>
<!-- Node1 -->
<g id="node1" class="node"><title>Node1</title>
<polygon fill="#bfbfbf" stroke="black" points="1879.23,-348.5 1879.23,-369.5 2019.23,-369.5 2019.23,-348.5 1879.23,-348.5"/>
<text text-anchor="middle" x="1949.23" y="-356.5" font-family="Helvetica,sans-Serif" font-size="10.00">CardWindowManager.cpp</text>
</g>
<!-- Node2 -->
<g id="node3" class="node"><title>Node2</title>
<a xlink:href="Common_8h.htm" target="_top" xlink:title="Common.h">
<polygon fill="white" stroke="black" points="1730.73,-0.5 1730.73,-21.5 1797.73,-21.5 1797.73,-0.5 1730.73,-0.5"/>
<text text-anchor="middle" x="1764.23" y="-8.5" font-family="Helvetica,sans-Serif" font-size="10.00">Common.h</text>
</a>
</g>
<!-- Node1&#45;&gt;Node2 -->
<g id="edge2" class="edge"><title>Node1&#45;&gt;Node2</title>
<path fill="none" stroke="midnightblue" d="M1879.01,-356.918C1755.37,-352.562 1504.02,-340.431 1421.23,-312 1367.71,-293.623 1314.23,-299.586 1314.23,-243 1314.23,-243 1314.23,-243 1314.23,-185 1314.23,-153.192 1315.42,-140.574 1295.23,-116 1272.51,-88.3599 1242.03,-110.434 1223.23,-80 1218.09,-71.6825 1216.62,-65.2069 1223.23,-58 1256.58,-21.6229 1597.33,-13.3101 1720.28,-11.489"/>
<polygon fill="midnightblue" stroke="midnightblue" points="1720.52,-14.9862 1730.47,-11.3458 1720.42,-7.98689 1720.52,-14.9862"/>
</g>
<!-- Node3 -->
<g id="node5" class="node"><title>Node3</title>
<a xlink:href="CardWindowManager_8h.htm" target="_top" xlink:title="CardWindowManager.h">
<polygon fill="white" stroke="black" points="1053.23,-174.5 1053.23,-195.5 1181.23,-195.5 1181.23,-174.5 1053.23,-174.5"/>
<text text-anchor="middle" x="1117.23" y="-182.5" font-family="Helvetica,sans-Serif" font-size="10.00">CardWindowManager.h</text>
</a>
</g>
<!-- Node1&#45;&gt;Node3 -->
<g id="edge4" class="edge"><title>Node1&#45;&gt;Node3</title>
<path fill="none" stroke="midnightblue" d="M1879.06,-356.016C1722.4,-349.051 1353.69,-330.88 1300.23,-312 1232.27,-288.002 1166.28,-231.648 1135.4,-202.759"/>
<polygon fill="midnightblue" stroke="midnightblue" points="1137.65,-200.066 1127.99,-195.715 1132.83,-205.14 1137.65,-200.066"/>
</g>
<!-- Node5 -->
<g id="node11" class="node"><title>Node5</title>
<a xlink:href="Preferences_8h.htm" target="_top" xlink:title="Preferences.h">
<polygon fill="white" stroke="red" points="651.726,-58.5 651.726,-79.5 734.726,-79.5 734.726,-58.5 651.726,-58.5"/>
<text text-anchor="middle" x="693.226" y="-66.5" font-family="Helvetica,sans-Serif" font-size="10.00">Preferences.h</text>
</a>
</g>
<!-- Node1&#45;&gt;Node5 -->
<g id="edge228" class="edge"><title>Node1&#45;&gt;Node5</title>
<path fill="none" stroke="midnightblue" d="M1879.01,-357.558C1573.37,-350.83 374.226,-319.556 374.226,-243 374.226,-243 374.226,-243 374.226,-185 374.226,-140.998 406.18,-136.288 445.226,-116 478.7,-98.6069 579.317,-83.3508 641.626,-75.2241"/>
<polygon fill="midnightblue" stroke="midnightblue" points="642.187,-78.681 651.658,-73.934 641.294,-71.7381 642.187,-78.681"/>
</g>
<!-- Node7 -->
<g id="node16" class="node"><title>Node7</title>
<a xlink:href="BezelGesture_8h.htm" target="_top" xlink:title="BezelGesture.h">
<polygon fill="white" stroke="red" points="1341.73,-116.5 1341.73,-137.5 1430.73,-137.5 1430.73,-116.5 1341.73,-116.5"/>
<text text-anchor="middle" x="1386.23" y="-124.5" font-family="Helvetica,sans-Serif" font-size="10.00">BezelGesture.h</text>
</a>
</g>
<!-- Node1&#45;&gt;Node7 -->
<g id="edge254" class="edge"><title>Node1&#45;&gt;Node7</title>
<path fill="none" stroke="midnightblue" d="M1879.04,-356.734C1748.22,-351.894 1477.31,-338.746 1444.23,-312 1393.72,-271.167 1386.4,-186.789 1385.86,-147.705"/>
<polygon fill="midnightblue" stroke="midnightblue" points="1389.36,-147.542 1385.86,-137.541 1382.36,-147.54 1389.36,-147.542"/>
</g>
<!-- Node8 -->
<g id="node19" class="node"><title>Node8</title>
<polygon fill="white" stroke="#bfbfbf" points="264.226,-58.5 264.226,-79.5 326.226,-79.5 326.226,-58.5 264.226,-58.5"/>
<text text-anchor="middle" x="295.226" y="-66.5" font-family="Helvetica,sans-Serif" font-size="10.00">QGesture</text>
</g>
<!-- Node1&#45;&gt;Node8 -->
<g id="edge42" class="edge"><title>Node1&#45;&gt;Node8</title>
<path fill="none" stroke="midnightblue" d="M1879.21,-358.01C1572.18,-353.538 358.574,-334.471 326.226,-312 299.045,-293.119 298.226,-276.095 298.226,-243 298.226,-243 298.226,-243 298.226,-185 298.226,-151.587 296.967,-112.777 296.08,-89.5898"/>
<polygon fill="midnightblue" stroke="midnightblue" points="299.575,-89.4071 295.681,-79.5537 292.581,-89.6847 299.575,-89.4071"/>
</g>
<!-- Node18 -->
<g id="node40" class="node"><title>Node18</title>
<a xlink:href="ApplicationDescription_8h.htm" target="_top" xlink:title="ApplicationDescription.h">
<polygon fill="white" stroke="black" points="1698.23,-116.5 1698.23,-137.5 1828.23,-137.5 1828.23,-116.5 1698.23,-116.5"/>
<text text-anchor="middle" x="1763.23" y="-124.5" font-family="Helvetica,sans-Serif" font-size="10.00">ApplicationDescription.h</text>
</a>
</g>
<!-- Node1&#45;&gt;Node18 -->
<g id="edge44" class="edge"><title>Node1&#45;&gt;Node18</title>
<path fill="none" stroke="midnightblue" d="M1940.63,-348.332C1919.67,-322.319 1864.28,-253.539 1818.23,-196 1804.59,-178.964 1789.1,-159.525 1778.04,-145.631"/>
<polygon fill="midnightblue" stroke="midnightblue" points="1780.75,-143.413 1771.79,-137.767 1775.27,-147.772 1780.75,-143.413"/>
</g>
<!-- Node27 -->
<g id="node72" class="node"><title>Node27</title>
<a xlink:href="AnimationSettings_8h.htm" target="_top" xlink:title="AnimationSettings.h">
<polygon fill="white" stroke="black" points="2388.23,-116.5 2388.23,-137.5 2498.23,-137.5 2498.23,-116.5 2388.23,-116.5"/>
<text text-anchor="middle" x="2443.23" y="-124.5" font-family="Helvetica,sans-Serif" font-size="10.00">AnimationSettings.h</text>
</a>
</g>
<!-- Node1&#45;&gt;Node27 -->
<g id="edge90" class="edge"><title>Node1&#45;&gt;Node27</title>
<path fill="none" stroke="midnightblue" d="M2019.55,-355.469C2134.74,-349.082 2353.68,-334.179 2381.23,-312 2432.13,-271.009 2441.52,-186.711 2443.06,-147.677"/>
<polygon fill="midnightblue" stroke="midnightblue" points="2446.56,-147.611 2443.32,-137.525 2439.56,-147.433 2446.56,-147.611"/>
</g>
<!-- Node29 -->
<g id="node81" class="node"><title>Node29</title>
<a xlink:href="CardWindow_8h.htm" target="_top" xlink:title="CardWindow.h">
<polygon fill="white" stroke="red" points="2075.23,-232.5 2075.23,-253.5 2161.23,-253.5 2161.23,-232.5 2075.23,-232.5"/>
<text text-anchor="middle" x="2118.23" y="-240.5" font-family="Helvetica,sans-Serif" font-size="10.00">CardWindow.h</text>
</a>
</g>
<!-- Node1&#45;&gt;Node29 -->
<g id="edge104" class="edge"><title>Node1&#45;&gt;Node29</title>
<path fill="none" stroke="midnightblue" d="M2015.64,-348.42C2040.84,-341.579 2068.25,-330.361 2088.23,-312 2102.08,-299.267 2109.84,-279.018 2113.98,-263.743"/>
<polygon fill="midnightblue" stroke="midnightblue" points="2117.46,-264.217 2116.39,-253.677 2110.66,-262.588 2117.46,-264.217"/>
</g>
<!-- Node30 -->
<g id="node84" class="node"><title>Node30</title>
<a xlink:href="Settings_8h.htm" target="_top" xlink:title="Settings.h">
<polygon fill="white" stroke="red" points="1921.73,-116.5 1921.73,-137.5 1984.73,-137.5 1984.73,-116.5 1921.73,-116.5"/>
<text text-anchor="middle" x="1953.23" y="-124.5" font-family="Helvetica,sans-Serif" font-size="10.00">Settings.h</text>
</a>
</g>
<!-- Node1&#45;&gt;Node30 -->
<g id="edge178" class="edge"><title>Node1&#45;&gt;Node30</title>
<path fill="none" stroke="midnightblue" d="M1949.44,-348.32C1949.95,-322.281 1951.28,-253.448 1952.23,-196 1952.49,-179.903 1952.75,-161.694 1952.94,-148.025"/>
<polygon fill="midnightblue" stroke="midnightblue" points="1956.45,-147.804 1953.08,-137.757 1949.45,-147.708 1956.45,-147.804"/>
</g>
<!-- Node33 -->
<g id="node98" class="node"><title>Node33</title>
<a xlink:href="Window_8h.htm" target="_top" xlink:title="Window.h">
<polygon fill="white" stroke="red" points="2192.23,-58.5 2192.23,-79.5 2254.23,-79.5 2254.23,-58.5 2192.23,-58.5"/>
<text text-anchor="middle" x="2223.23" y="-66.5" font-family="Helvetica,sans-Serif" font-size="10.00">Window.h</text>
</a>
</g>
<!-- Node1&#45;&gt;Node33 -->
<g id="edge206" class="edge"><title>Node1&#45;&gt;Node33</title>
<path fill="none" stroke="midnightblue" d="M2019.5,-353.457C2116.06,-345.265 2280.39,-329.048 2302.23,-312 2353.19,-272.218 2375.1,-232.802 2348.23,-174 2329.22,-132.417 2284.54,-101.548 2254.08,-84.4014"/>
<polygon fill="midnightblue" stroke="midnightblue" points="2255.58,-81.2353 2245.13,-79.524 2252.23,-87.3821 2255.58,-81.2353"/>
</g>
<!-- Node35 -->
<g id="node110" class="node"><title>Node35</title>
<a xlink:href="SystemUiController_8h.htm" target="_top" xlink:title="SystemUiController.h">
<polygon fill="white" stroke="red" points="1827.23,-174.5 1827.23,-195.5 1943.23,-195.5 1943.23,-174.5 1827.23,-174.5"/>
<text text-anchor="middle" x="1885.23" y="-182.5" font-family="Helvetica,sans-Serif" font-size="10.00">SystemUiController.h</text>
</a>
</g>
<!-- Node1&#45;&gt;Node35 -->
<g id="edge198" class="edge"><title>Node1&#45;&gt;Node35</title>
<path fill="none" stroke="midnightblue" d="M1945.32,-348.377C1934.94,-320.172 1906.56,-243.012 1892.85,-205.72"/>
<polygon fill="midnightblue" stroke="midnightblue" points="1895.98,-204.105 1889.25,-195.928 1889.41,-206.521 1895.98,-204.105"/>
</g>
<!-- Node36 -->
<g id="node119" class="node"><title>Node36</title>
<polygon fill="white" stroke="#bfbfbf" points="2227.23,-174.5 2227.23,-195.5 2339.23,-195.5 2339.23,-174.5 2227.23,-174.5"/>
<text text-anchor="middle" x="2283.23" y="-182.5" font-family="Helvetica,sans-Serif" font-size="10.00">QPropertyAnimation</text>
</g>
<!-- Node1&#45;&gt;Node36 -->
<g id="edge268" class="edge"><title>Node1&#45;&gt;Node36</title>
<path fill="none" stroke="midnightblue" d="M2001.35,-348.497C2033.48,-340.869 2074.95,-328.901 2109.23,-312 2170.55,-281.763 2233.02,-229.947 2263.73,-202.791"/>
<polygon fill="midnightblue" stroke="midnightblue" points="2266.4,-205.099 2271.52,-195.824 2261.73,-199.88 2266.4,-205.099"/>
</g>
<!-- Node37 -->
<g id="node121" class="node"><title>Node37</title>
<a xlink:href="HostBase_8h.htm" target="_top" xlink:title="HostBase.h">
<polygon fill="white" stroke="red" points="2517.73,-232.5 2517.73,-253.5 2588.73,-253.5 2588.73,-232.5 2517.73,-232.5"/>
<text text-anchor="middle" x="2553.23" y="-240.5" font-family="Helvetica,sans-Serif" font-size="10.00">HostBase.h</text>
</a>
</g>
<!-- Node1&#45;&gt;Node37 -->
<g id="edge168" class="edge"><title>Node1&#45;&gt;Node37</title>
<path fill="none" stroke="midnightblue" d="M2019.29,-357.049C2139.3,-352.958 2378.82,-341.307 2457.23,-312 2487.57,-300.657 2516.99,-277.074 2535.09,-260.655"/>
<polygon fill="midnightblue" stroke="midnightblue" points="2537.64,-263.062 2542.57,-253.684 2532.87,-257.94 2537.64,-263.062"/>
</g>
<!-- Node38 -->
<g id="node124" class="node"><title>Node38</title>
<a xlink:href="Logging_8h.htm" target="_top" xlink:title="Logging.h">
<polygon fill="white" stroke="red" points="2727.73,-58.5 2727.73,-79.5 2790.73,-79.5 2790.73,-58.5 2727.73,-58.5"/>
<text text-anchor="middle" x="2759.23" y="-66.5" font-family="Helvetica,sans-Serif" font-size="10.00">Logging.h</text>
</a>
</g>
<!-- Node1&#45;&gt;Node38 -->
<g id="edge172" class="edge"><title>Node1&#45;&gt;Node38</title>
<path fill="none" stroke="midnightblue" d="M2019.29,-358.054C2158.7,-355.454 2465.96,-345.94 2565.23,-312 2609.55,-296.846 2621.15,-288.14 2653.23,-254 2701.44,-202.68 2736.53,-125.483 2751.38,-89.2001"/>
<polygon fill="midnightblue" stroke="midnightblue" points="2754.71,-90.3002 2755.18,-79.7158 2748.21,-87.6974 2754.71,-90.3002"/>
</g>
<!-- Node39 -->
<g id="node129" class="node"><title>Node39</title>
<a xlink:href="SoundPlayerPool_8h.htm" target="_top" xlink:title="SoundPlayerPool.h">
<polygon fill="white" stroke="red" points="26.2258,-116.5 26.2258,-137.5 132.226,-137.5 132.226,-116.5 26.2258,-116.5"/>
<text text-anchor="middle" x="79.2258" y="-124.5" font-family="Helvetica,sans-Serif" font-size="10.00">SoundPlayerPool.h</text>
</a>
</g>
<!-- Node1&#45;&gt;Node39 -->
<g id="edge180" class="edge"><title>Node1&#45;&gt;Node39</title>
<path fill="none" stroke="midnightblue" d="M1879.16,-358.373C1572.35,-355.455 359.216,-342.056 284.226,-312 196.293,-276.757 121.965,-185.693 92.6324,-145.984"/>
<polygon fill="midnightblue" stroke="midnightblue" points="95.3187,-143.726 86.6117,-137.69 89.6539,-147.838 95.3187,-143.726"/>
</g>
<!-- Node40 -->
<g id="node135" class="node"><title>Node40</title>
<a xlink:href="SystemService_8h.htm" target="_top" xlink:title="SystemService.h">
<polygon fill="white" stroke="red" points="401.726,-174.5 401.726,-195.5 496.726,-195.5 496.726,-174.5 401.726,-174.5"/>
<text text-anchor="middle" x="449.226" y="-182.5" font-family="Helvetica,sans-Serif" font-size="10.00">SystemService.h</text>
</a>
</g>
<!-- Node1&#45;&gt;Node40 -->
<g id="edge190" class="edge"><title>Node1&#45;&gt;Node40</title>
<path fill="none" stroke="midnightblue" d="M1879.1,-358.194C1733.11,-355.844 1386.06,-346.752 1097.23,-312 957.627,-295.204 924.216,-280.992 786.226,-254 687.97,-234.781 573.882,-211.143 506.834,-197.116"/>
<polygon fill="midnightblue" stroke="midnightblue" points="507.394,-193.658 496.889,-195.034 505.959,-200.509 507.394,-193.658"/>
</g>
<!-- Node41 -->
<g id="node141" class="node"><title>Node41</title>
<a xlink:href="Time_8h.htm" target="_top" xlink:title="Time.h">
<polygon fill="white" stroke="red" points="2592.23,-58.5 2592.23,-79.5 2640.23,-79.5 2640.23,-58.5 2592.23,-58.5"/>
<text text-anchor="middle" x="2616.23" y="-66.5" font-family="Helvetica,sans-Serif" font-size="10.00">Time.h</text>
</a>
</g>
<!-- Node1&#45;&gt;Node41 -->
<g id="edge200" class="edge"><title>Node1&#45;&gt;Node41</title>
<path fill="none" stroke="midnightblue" d="M2019.31,-355.907C2144.88,-349.868 2403.19,-335.05 2490.23,-312 2561.16,-293.213 2640.23,-316.382 2640.23,-243 2640.23,-243 2640.23,-243 2640.23,-185 2640.23,-150.913 2630.16,-112.338 2623.07,-89.3763"/>
<polygon fill="midnightblue" stroke="midnightblue" points="2626.36,-88.1755 2619.98,-79.7215 2619.7,-90.3126 2626.36,-88.1755"/>
</g>
<!-- Node42 -->
<g id="node146" class="node"><title>Node42</title>
<a xlink:href="WindowServer_8h.htm" target="_top" xlink:title="WindowServer.h">
<polygon fill="white" stroke="red" points="514.226,-174.5 514.226,-195.5 608.226,-195.5 608.226,-174.5 514.226,-174.5"/>
<text text-anchor="middle" x="561.226" y="-182.5" font-family="Helvetica,sans-Serif" font-size="10.00">WindowServer.h</text>
</a>
</g>
<!-- Node1&#45;&gt;Node42 -->
<g id="edge208" class="edge"><title>Node1&#45;&gt;Node42</title>
<path fill="none" stroke="midnightblue" d="M1879.17,-356.974C1752.85,-352.726 1478.7,-340.785 1249.23,-312 1012.97,-282.363 735.104,-223.643 617.897,-197.761"/>
<polygon fill="midnightblue" stroke="midnightblue" points="618.583,-194.329 608.063,-195.583 617.07,-201.163 618.583,-194.329"/>
</g>
<!-- Node43 -->
<g id="node153" class="node"><title>Node43</title>
<a xlink:href="Utils_8h.htm" target="_top" xlink:title="Utils.h">
<polygon fill="white" stroke="red" points="1443.73,-58.5 1443.73,-79.5 1488.73,-79.5 1488.73,-58.5 1443.73,-58.5"/>
<text text-anchor="middle" x="1466.23" y="-66.5" font-family="Helvetica,sans-Serif" font-size="10.00">Utils.h</text>
</a>
</g>
<!-- Node1&#45;&gt;Node43 -->
<g id="edge220" class="edge"><title>Node1&#45;&gt;Node43</title>
<path fill="none" stroke="midnightblue" d="M1879.14,-356.938C1743.48,-351.032 1458.23,-328.455 1458.23,-243 1458.23,-243 1458.23,-243 1458.23,-185 1458.23,-151.518 1461.58,-112.729 1463.95,-89.5644"/>
<polygon fill="midnightblue" stroke="midnightblue" points="1467.44,-89.8524 1465.01,-79.5393 1460.48,-89.1149 1467.44,-89.8524"/>
</g>
<!-- Node44 -->
<g id="node159" class="node"><title>Node44</title>
<a xlink:href="CardWindowManagerStates_8h.htm" target="_top" xlink:title="CardWindowManagerStates.h">
<polygon fill="white" stroke="red" points="1613.23,-174.5 1613.23,-195.5 1771.23,-195.5 1771.23,-174.5 1613.23,-174.5"/>
<text text-anchor="middle" x="1692.23" y="-182.5" font-family="Helvetica,sans-Serif" font-size="10.00">CardWindowManagerStates.h</text>
</a>
</g>
<!-- Node1&#45;&gt;Node44 -->
<g id="edge230" class="edge"><title>Node1&#45;&gt;Node44</title>
<path fill="none" stroke="midnightblue" d="M1878.98,-349.397C1848.16,-342.645 1812.8,-331.228 1785.23,-312 1745.1,-284.018 1715.61,-233.068 1701.51,-204.956"/>
<polygon fill="midnightblue" stroke="midnightblue" points="1704.54,-203.18 1697.02,-195.717 1698.24,-206.241 1704.54,-203.18"/>
</g>
<!-- Node45 -->
<g id="node165" class="node"><title>Node45</title>
<a xlink:href="CardGroup_8h.htm" target="_top" xlink:title="CardGroup.h">
<polygon fill="white" stroke="red" points="2002.73,-290.5 2002.73,-311.5 2079.73,-311.5 2079.73,-290.5 2002.73,-290.5"/>
<text text-anchor="middle" x="2041.23" y="-298.5" font-family="Helvetica,sans-Serif" font-size="10.00">CardGroup.h</text>
</a>
</g>
<!-- Node1&#45;&gt;Node45 -->
<g id="edge240" class="edge"><title>Node1&#45;&gt;Node45</title>
<path fill="none" stroke="midnightblue" d="M1966.1,-348.362C1979.98,-339.614 1999.86,-327.079 2015.69,-317.101"/>
<polygon fill="midnightblue" stroke="midnightblue" points="2017.87,-319.864 2024.46,-311.571 2014.13,-313.943 2017.87,-319.864"/>
</g>
<!-- Node46 -->
<g id="node170" class="node"><title>Node46</title>
<a xlink:href="FlickGesture_8h.htm" target="_top" xlink:title="FlickGesture.h">
<polygon fill="white" stroke="red" points="187.726,-116.5 187.726,-137.5 270.726,-137.5 270.726,-116.5 187.726,-116.5"/>
<text text-anchor="middle" x="229.226" y="-124.5" font-family="Helvetica,sans-Serif" font-size="10.00">FlickGesture.h</text>
</a>
</g>
<!-- Node1&#45;&gt;Node46 -->
<g id="edge248" class="edge"><title>Node1&#45;&gt;Node46</title>
<path fill="none" stroke="midnightblue" d="M1879.2,-358.665C1580.86,-357.016 427.953,-348.308 360.226,-312 292.407,-275.642 251.765,-186.902 236.349,-147.006"/>
<polygon fill="midnightblue" stroke="midnightblue" points="239.596,-145.696 232.819,-137.553 233.038,-148.145 239.596,-145.696"/>
</g>
<!-- Node47 -->
<g id="node175" class="node"><title>Node47</title>
<a xlink:href="GhostCard_8h.htm" target="_top" xlink:title="GhostCard.h">
<polygon fill="white" stroke="black" points="2216.73,-290.5 2216.73,-311.5 2293.73,-311.5 2293.73,-290.5 2216.73,-290.5"/>
<text text-anchor="middle" x="2255.23" y="-298.5" font-family="Helvetica,sans-Serif" font-size="10.00">GhostCard.h</text>
</a>
</g>
<!-- Node1&#45;&gt;Node47 -->
<g id="edge256" class="edge"><title>Node1&#45;&gt;Node47</title>
<path fill="none" stroke="midnightblue" d="M2008.58,-348.458C2060.11,-339.201 2136.69,-325.191 2203.23,-312 2204.31,-311.785 2205.41,-311.565 2206.52,-311.343"/>
<polygon fill="midnightblue" stroke="midnightblue" points="2207.53,-314.708 2216.63,-309.279 2206.13,-307.85 2207.53,-314.708"/>
</g>
<!-- Node48 -->
<g id="node179" class="node"><title>Node48</title>
<a xlink:href="IMEController_8h.htm" target="_top" xlink:title="IMEController.h">
<polygon fill="white" stroke="red" points="2715.23,-290.5 2715.23,-311.5 2805.23,-311.5 2805.23,-290.5 2715.23,-290.5"/>
<text text-anchor="middle" x="2760.23" y="-298.5" font-family="Helvetica,sans-Serif" font-size="10.00">IMEController.h</text>
</a>
</g>
<!-- Node1&#45;&gt;Node48 -->
<g id="edge262" class="edge"><title>Node1&#45;&gt;Node48</title>
<path fill="none" stroke="midnightblue" d="M2019.47,-357.465C2152.83,-353.92 2451.65,-342.947 2701.23,-312 2702.51,-311.841 2703.8,-311.672 2705.1,-311.494"/>
<polygon fill="midnightblue" stroke="midnightblue" points="2705.85,-314.922 2715.22,-309.976 2704.81,-307.999 2705.85,-314.922"/>
</g>
<!-- Node49 -->
<g id="node181" class="node"><title>Node49</title>
<polygon fill="white" stroke="#bfbfbf" points="2822.73,-290.5 2822.73,-311.5 2903.73,-311.5 2903.73,-290.5 2822.73,-290.5"/>
<text text-anchor="middle" x="2863.23" y="-298.5" font-family="Helvetica,sans-Serif" font-size="10.00">QTapGesture</text>
</g>
<!-- Node1&#45;&gt;Node49 -->
<g id="edge264" class="edge"><title>Node1&#45;&gt;Node49</title>
<path fill="none" stroke="midnightblue" d="M2019.38,-356.697C2193.45,-350.746 2642.77,-333.871 2812.62,-311.995"/>
<polygon fill="midnightblue" stroke="midnightblue" points="2813.23,-315.445 2822.68,-310.649 2812.3,-308.507 2813.23,-315.445"/>
</g>
<!-- Node50 -->
<g id="node183" class="node"><title>Node50</title>
<polygon fill="white" stroke="#bfbfbf" points="2921.23,-290.5 2921.23,-311.5 3043.23,-311.5 3043.23,-290.5 2921.23,-290.5"/>
<text text-anchor="middle" x="2982.23" y="-298.5" font-family="Helvetica,sans-Serif" font-size="10.00">QTapAndHoldGesture</text>
</g>
<!-- Node1&#45;&gt;Node50 -->
<g id="edge266" class="edge"><title>Node1&#45;&gt;Node50</title>
<path fill="none" stroke="midnightblue" d="M2019.5,-358.146C2177.2,-355.671 2571.41,-346.377 2911.16,-312.009"/>
<polygon fill="midnightblue" stroke="midnightblue" points="2911.6,-315.482 2921.19,-310.985 2910.89,-308.518 2911.6,-315.482"/>
</g>
<!-- Node3&#45;&gt;Node2 -->
<g id="edge6" class="edge"><title>Node3&#45;&gt;Node2</title>
<path fill="none" stroke="midnightblue" d="M1121.36,-174.372C1124.77,-164.974 1129.36,-150.806 1131.23,-138 1132.64,-128.324 1132.42,-125.705 1131.23,-116 1129.21,-99.6311 1124.24,-96.3689 1122.23,-80 1121.03,-70.2955 1115.57,-65.1619 1122.23,-58 1142.61,-36.0636 1579.09,-17.9066 1720.46,-12.5831"/>
<polygon fill="midnightblue" stroke="midnightblue" points="1720.65,-16.0788 1730.51,-12.2077 1720.39,-9.08364 1720.65,-16.0788"/>
</g>
<!-- Node4 -->
<g id="node8" class="node"><title>Node4</title>
<a xlink:href="WindowManagerBase_8h.htm" target="_top" xlink:title="WindowManagerBase.h">
<polygon fill="white" stroke="red" points="903.726,-58.5 903.726,-79.5 1032.73,-79.5 1032.73,-58.5 903.726,-58.5"/>
<text text-anchor="middle" x="968.226" y="-66.5" font-family="Helvetica,sans-Serif" font-size="10.00">WindowManagerBase.h</text>
</a>
</g>
<!-- Node3&#45;&gt;Node4 -->
<g id="edge8" class="edge"><title>Node3&#45;&gt;Node4</title>
<path fill="none" stroke="midnightblue" d="M1119.78,-174.376C1122.67,-159.62 1125.4,-132.839 1112.23,-116 1101.61,-102.426 1064.12,-90.4321 1030.06,-81.9578"/>
<polygon fill="midnightblue" stroke="midnightblue" points="1030.64,-78.4983 1020.1,-79.553 1029,-85.3027 1030.64,-78.4983"/>
</g>
<!-- Node3&#45;&gt;Node5 -->
<g id="edge12" class="edge"><title>Node3&#45;&gt;Node5</title>
<path fill="none" stroke="midnightblue" d="M1114.73,-174.497C1110.41,-158.855 1099.94,-129.804 1079.23,-116 1017.66,-74.9665 821.352,-91.2664 748.226,-80 747.143,-79.8332 746.049,-79.6598 744.948,-79.4807"/>
<polygon fill="midnightblue" stroke="midnightblue" points="745.349,-75.9983 734.899,-77.74 744.154,-82.8955 745.349,-75.9983"/>
</g>
<!-- Node3&#45;&gt;Node7 -->
<g id="edge18" class="edge"><title>Node3&#45;&gt;Node7</title>
<path fill="none" stroke="midnightblue" d="M1165.94,-174.497C1212.58,-164.439 1282.86,-149.288 1331.43,-138.815"/>
<polygon fill="midnightblue" stroke="midnightblue" points="1332.41,-142.183 1341.45,-136.654 1330.94,-135.341 1332.41,-142.183"/>
</g>
<!-- Node9 -->
<g id="node21" class="node"><title>Node9</title>
<polygon fill="white" stroke="#bfbfbf" points="548.226,-116.5 548.226,-137.5 638.226,-137.5 638.226,-116.5 548.226,-116.5"/>
<text text-anchor="middle" x="593.226" y="-124.5" font-family="Helvetica,sans-Serif" font-size="10.00">QStateMachine</text>
</g>
<!-- Node3&#45;&gt;Node9 -->
<g id="edge24" class="edge"><title>Node3&#45;&gt;Node9</title>
<path fill="none" stroke="midnightblue" d="M1053.11,-180.657C964.347,-174.184 798.852,-160.464 648.15,-138.017"/>
<polygon fill="midnightblue" stroke="midnightblue" points="648.656,-134.554 638.246,-136.526 647.614,-141.476 648.656,-134.554"/>
</g>
<!-- Node10 -->
<g id="node23" class="node"><title>Node10</title>
<polygon fill="white" stroke="#bfbfbf" points="1486.23,-116.5 1486.23,-137.5 1642.23,-137.5 1642.23,-116.5 1486.23,-116.5"/>
<text text-anchor="middle" x="1564.23" y="-124.5" font-family="Helvetica,sans-Serif" font-size="10.00">QGraphicsSceneMouseEvent</text>
</g>
<!-- Node3&#45;&gt;Node10 -->
<g id="edge26" class="edge"><title>Node3&#45;&gt;Node10</title>
<path fill="none" stroke="midnightblue" d="M1181.27,-176.69C1258.6,-166.657 1389.06,-149.729 1475.9,-138.46"/>
<polygon fill="midnightblue" stroke="midnightblue" points="1476.54,-141.907 1486.01,-137.149 1475.64,-134.965 1476.54,-141.907"/>
</g>
<!-- Node11 -->
<g id="node25" class="node"><title>Node11</title>
<polygon fill="white" stroke="#bfbfbf" points="655.726,-116.5 655.726,-137.5 744.726,-137.5 744.726,-116.5 655.726,-116.5"/>
<text text-anchor="middle" x="700.226" y="-124.5" font-family="Helvetica,sans-Serif" font-size="10.00">QGestureEvent</text>
</g>
<!-- Node3&#45;&gt;Node11 -->
<g id="edge28" class="edge"><title>Node3&#45;&gt;Node11</title>
<path fill="none" stroke="midnightblue" d="M1052.9,-178.195C982.124,-170.37 864.817,-156.408 754.928,-138.203"/>
<polygon fill="midnightblue" stroke="midnightblue" points="755.44,-134.74 745,-136.543 754.286,-141.644 755.44,-134.74"/>
</g>
<!-- Node12 -->
<g id="node27" class="node"><title>Node12</title>
<polygon fill="white" stroke="#bfbfbf" points="762.226,-116.5 762.226,-137.5 898.226,-137.5 898.226,-116.5 762.226,-116.5"/>
<text text-anchor="middle" x="830.226" y="-124.5" font-family="Helvetica,sans-Serif" font-size="10.00">QParallelAnimationGroup</text>
</g>
<!-- Node3&#45;&gt;Node12 -->
<g id="edge30" class="edge"><title>Node3&#45;&gt;Node12</title>
<path fill="none" stroke="midnightblue" d="M1065.25,-174.497C1016.64,-164.673 943.979,-149.988 892.332,-139.551"/>
<polygon fill="midnightblue" stroke="midnightblue" points="892.792,-136.073 882.297,-137.523 891.405,-142.935 892.792,-136.073"/>
</g>
<!-- Node13 -->
<g id="node29" class="node"><title>Node13</title>
<polygon fill="white" stroke="#bfbfbf" points="916.226,-116.5 916.226,-137.5 962.226,-137.5 962.226,-116.5 916.226,-116.5"/>
<text text-anchor="middle" x="939.226" y="-124.5" font-family="Helvetica,sans-Serif" font-size="10.00">QMap</text>
</g>
<!-- Node3&#45;&gt;Node13 -->
<g id="edge32" class="edge"><title>Node3&#45;&gt;Node13</title>
<path fill="none" stroke="midnightblue" d="M1083.82,-174.453C1056.22,-165.69 1015.76,-152.745 971.97,-138.209"/>
<polygon fill="midnightblue" stroke="midnightblue" points="972.873,-134.822 962.28,-134.985 970.663,-141.463 972.873,-134.822"/>
</g>
<!-- Node14 -->
<g id="node31" class="node"><title>Node14</title>
<polygon fill="white" stroke="#bfbfbf" points="478.226,-116.5 478.226,-137.5 530.226,-137.5 530.226,-116.5 478.226,-116.5"/>
<text text-anchor="middle" x="504.226" y="-124.5" font-family="Helvetica,sans-Serif" font-size="10.00">QTimer</text>
</g>
<!-- Node3&#45;&gt;Node14 -->
<g id="edge34" class="edge"><title>Node3&#45;&gt;Node14</title>
<path fill="none" stroke="midnightblue" d="M1052.82,-181.581C927.348,-174.63 653.317,-157.958 540.52,-137.824"/>
<polygon fill="midnightblue" stroke="midnightblue" points="540.911,-134.337 530.437,-135.929 539.618,-141.216 540.911,-134.337"/>
</g>
<!-- Node15 -->
<g id="node33" class="node"><title>Node15</title>
<polygon fill="white" stroke="#bfbfbf" points="979.726,-116.5 979.726,-137.5 1070.73,-137.5 1070.73,-116.5 979.726,-116.5"/>
<text text-anchor="middle" x="1025.23" y="-124.5" font-family="Helvetica,sans-Serif" font-size="10.00">QSignalMapper</text>
</g>
<!-- Node3&#45;&gt;Node15 -->
<g id="edge36" class="edge"><title>Node3&#45;&gt;Node15</title>
<path fill="none" stroke="midnightblue" d="M1100.35,-174.362C1086.48,-165.614 1066.59,-153.079 1050.77,-143.101"/>
<polygon fill="midnightblue" stroke="midnightblue" points="1052.32,-139.943 1041.99,-137.571 1048.59,-145.864 1052.32,-139.943"/>
</g>
<!-- Node16 -->
<g id="node35" class="node"><title>Node16</title>
<polygon fill="white" stroke="#bfbfbf" points="1201.73,-116.5 1201.73,-137.5 1286.73,-137.5 1286.73,-116.5 1201.73,-116.5"/>
<text text-anchor="middle" x="1244.23" y="-124.5" font-family="Helvetica,sans-Serif" font-size="10.00">QEasingCurve</text>
</g>
<!-- Node3&#45;&gt;Node16 -->
<g id="edge38" class="edge"><title>Node3&#45;&gt;Node16</title>
<path fill="none" stroke="midnightblue" d="M1140.22,-174.497C1160.24,-165.356 1189.47,-152.008 1211.84,-141.788"/>
<polygon fill="midnightblue" stroke="midnightblue" points="1213.33,-144.959 1220.97,-137.621 1210.42,-138.592 1213.33,-144.959"/>
</g>
<!-- Node17 -->
<g id="node37" class="node"><title>Node17</title>
<polygon fill="white" stroke="#bfbfbf" points="2130.23,-0.5 2130.23,-21.5 2180.23,-21.5 2180.23,-0.5 2130.23,-0.5"/>
<text text-anchor="middle" x="2155.23" y="-8.5" font-family="Helvetica,sans-Serif" font-size="10.00">stdint.h</text>
</g>
<!-- Node3&#45;&gt;Node17 -->
<g id="edge40" class="edge"><title>Node3&#45;&gt;Node17</title>
<path fill="none" stroke="midnightblue" d="M1181.27,-183.786C1370.39,-179.891 1917.93,-166.278 1993.23,-138 2001.44,-134.915 2092.46,-61.7663 2134.35,-27.9106"/>
<polygon fill="midnightblue" stroke="midnightblue" points="2136.69,-30.5186 2142.26,-21.5085 2132.29,-25.076 2136.69,-30.5186"/>
</g>
<!-- Node4&#45;&gt;Node2 -->
<g id="edge10" class="edge"><title>Node4&#45;&gt;Node2</title>
<path fill="none" stroke="midnightblue" d="M1032.93,-62.5694C1049.63,-60.9903 1067.59,-59.3633 1084.23,-58 1324.21,-38.3313 1612.29,-20.237 1720.4,-13.6399"/>
<polygon fill="midnightblue" stroke="midnightblue" points="1720.83,-17.1206 1730.59,-13.0194 1720.4,-10.1335 1720.83,-17.1206"/>
</g>
<!-- Node5&#45;&gt;Node2 -->
<g id="edge14" class="edge"><title>Node5&#45;&gt;Node2</title>
<path fill="none" stroke="midnightblue" d="M734.829,-63.4516C750.867,-61.4776 769.375,-59.3997 786.226,-58 1146.15,-28.1023 1582.29,-15.4576 1720.22,-12.0215"/>
<polygon fill="midnightblue" stroke="midnightblue" points="1720.48,-15.5164 1730.39,-11.7716 1720.3,-8.51849 1720.48,-15.5164"/>
</g>
<!-- Node6 -->
<g id="node14" class="node"><title>Node6</title>
<polygon fill="white" stroke="#bfbfbf" points="1038.73,-0.5 1038.73,-21.5 1081.73,-21.5 1081.73,-0.5 1038.73,-0.5"/>
<text text-anchor="middle" x="1060.23" y="-8.5" font-family="Helvetica,sans-Serif" font-size="10.00">string</text>
</g>
<!-- Node5&#45;&gt;Node6 -->
<g id="edge16" class="edge"><title>Node5&#45;&gt;Node6</title>
<path fill="none" stroke="midnightblue" d="M734.928,-60.4415C739.411,-59.5866 743.91,-58.7563 748.226,-58 850.364,-40.1036 972.048,-22.9752 1028.52,-15.2645"/>
<polygon fill="midnightblue" stroke="midnightblue" points="1029.17,-18.7088 1038.61,-13.8933 1028.23,-11.7727 1029.17,-18.7088"/>
</g>
<!-- Node7&#45;&gt;Node2 -->
<g id="edge20" class="edge"><title>Node7&#45;&gt;Node2</title>
<path fill="none" stroke="midnightblue" d="M1342.02,-116.443C1298.65,-105.64 1238.03,-89.1751 1231.23,-80 1225.4,-72.1467 1224.62,-65.2112 1231.23,-58 1264.03,-22.1771 1599.01,-13.5168 1720.51,-11.5468"/>
<polygon fill="midnightblue" stroke="midnightblue" points="1720.63,-15.0455 1730.58,-11.3911 1720.52,-8.0463 1720.63,-15.0455"/>
</g>
<!-- Node7&#45;&gt;Node8 -->
<g id="edge22" class="edge"><title>Node7&#45;&gt;Node8</title>
<path fill="none" stroke="midnightblue" d="M1341.4,-120.836C1326.71,-119.015 1310.3,-117.193 1295.23,-116 871.804,-82.4855 760.892,-138.728 340.226,-80 338.971,-79.8249 337.701,-79.6296 336.421,-79.4175"/>
<polygon fill="midnightblue" stroke="midnightblue" points="337.022,-75.969 326.54,-77.5109 335.696,-82.8422 337.022,-75.969"/>
</g>
<!-- Node18&#45;&gt;Node2 -->
<g id="edge46" class="edge"><title>Node18&#45;&gt;Node2</title>
<path fill="none" stroke="midnightblue" d="M1698.06,-117.82C1634.4,-108.187 1545.58,-92.7084 1535.23,-80 1529.05,-72.4202 1529.05,-65.5771 1535.23,-58 1558.09,-29.962 1660.19,-18.181 1720.06,-13.6123"/>
<polygon fill="midnightblue" stroke="midnightblue" points="1720.64,-17.0795 1730.36,-12.8654 1720.13,-10.0978 1720.64,-17.0795"/>
</g>
<!-- Node18&#45;&gt;Node6 -->
<g id="edge48" class="edge"><title>Node18&#45;&gt;Node6</title>
<path fill="none" stroke="midnightblue" d="M1698.18,-117.457C1693.47,-116.914 1688.78,-116.42 1684.23,-116 1640.53,-111.97 925.538,-111.726 895.226,-80 853.73,-36.568 969.179,-19.3744 1028.06,-13.5658"/>
<polygon fill="midnightblue" stroke="midnightblue" points="1028.72,-17.0203 1038.35,-12.6099 1028.07,-10.0503 1028.72,-17.0203"/>
</g>
<!-- Node18&#45;&gt;Node17 -->
<g id="edge50" class="edge"><title>Node18&#45;&gt;Node17</title>
<path fill="none" stroke="midnightblue" d="M1775.65,-116.403C1794.53,-100.913 1832.17,-72.3706 1869.23,-58 1955.21,-24.6536 2064.67,-14.9644 2119.92,-12.1506"/>
<polygon fill="midnightblue" stroke="midnightblue" points="2120.4,-15.6324 2130.22,-11.6745 2120.07,-8.63986 2120.4,-15.6324"/>
</g>
<!-- Node19 -->
<g id="node45" class="node"><title>Node19</title>
<polygon fill="white" stroke="#bfbfbf" points="1877.73,-58.5 1877.73,-79.5 1908.73,-79.5 1908.73,-58.5 1877.73,-58.5"/>
<text text-anchor="middle" x="1893.23" y="-66.5" font-family="Helvetica,sans-Serif" font-size="10.00">set</text>
</g>
<!-- Node18&#45;&gt;Node19 -->
<g id="edge52" class="edge"><title>Node18&#45;&gt;Node19</title>
<path fill="none" stroke="midnightblue" d="M1786.77,-116.497C1809.82,-106.214 1844.8,-90.6054 1868.31,-80.1168"/>
<polygon fill="midnightblue" stroke="midnightblue" points="1869.91,-83.2363 1877.61,-75.9655 1867.06,-76.8437 1869.91,-83.2363"/>
</g>
<!-- Node20 -->
<g id="node47" class="node"><title>Node20</title>
<polygon fill="white" stroke="#bfbfbf" points="339.726,-0.5 339.726,-21.5 368.726,-21.5 368.726,-0.5 339.726,-0.5"/>
<text text-anchor="middle" x="354.226" y="-8.5" font-family="Helvetica,sans-Serif" font-size="10.00">list</text>
</g>
<!-- Node18&#45;&gt;Node20 -->
<g id="edge54" class="edge"><title>Node18&#45;&gt;Node20</title>
<path fill="none" stroke="midnightblue" d="M1698.14,-119.917C1682.77,-118.436 1666.43,-117.017 1651.23,-116 1203.94,-86.0769 1087.43,-140.35 643.226,-80 543.462,-66.4461 427.831,-33.4513 378.519,-18.5384"/>
<polygon fill="midnightblue" stroke="midnightblue" points="379.354,-15.1339 368.768,-15.5626 377.311,-21.8291 379.354,-15.1339"/>
</g>
<!-- Node21 -->
<g id="node49" class="node"><title>Node21</title>
<a xlink:href="GraphicsDefs_8h.htm" target="_top" xlink:title="GraphicsDefs.h">
<polygon fill="white" stroke="red" points="1543.73,-58.5 1543.73,-79.5 1632.73,-79.5 1632.73,-58.5 1543.73,-58.5"/>
<text text-anchor="middle" x="1588.23" y="-66.5" font-family="Helvetica,sans-Serif" font-size="10.00">GraphicsDefs.h</text>
</a>
</g>
<!-- Node18&#45;&gt;Node21 -->
<g id="edge56" class="edge"><title>Node18&#45;&gt;Node21</title>
<path fill="none" stroke="midnightblue" d="M1731.53,-116.497C1703,-107.041 1660.89,-93.0829 1629.69,-82.7428"/>
<polygon fill="midnightblue" stroke="midnightblue" points="1630.57,-79.3468 1619.98,-79.5231 1628.37,-85.9914 1630.57,-79.3468"/>
</g>
<!-- Node22 -->
<g id="node52" class="node"><title>Node22</title>
<a xlink:href="LaunchPoint_8h.htm" target="_top" xlink:title="LaunchPoint.h">
<polygon fill="white" stroke="red" points="1239.73,-58.5 1239.73,-79.5 1322.73,-79.5 1322.73,-58.5 1239.73,-58.5"/>
<text text-anchor="middle" x="1281.23" y="-66.5" font-family="Helvetica,sans-Serif" font-size="10.00">LaunchPoint.h</text>
</a>
</g>
<!-- Node18&#45;&gt;Node22 -->
<g id="edge60" class="edge"><title>Node18&#45;&gt;Node22</title>
<path fill="none" stroke="midnightblue" d="M1698.15,-117.746C1693.44,-117.136 1688.76,-116.547 1684.23,-116 1530.87,-97.5096 1488.66,-104.672 1332.84,-80.1275"/>
<polygon fill="midnightblue" stroke="midnightblue" points="1333.33,-76.6611 1322.9,-78.5436 1332.22,-83.5739 1333.33,-76.6611"/>
</g>
<!-- Node24 -->
<g id="node59" class="node"><title>Node24</title>
<a xlink:href="KeywordMap_8h.htm" target="_top" xlink:title="KeywordMap.h">
<polygon fill="white" stroke="black" points="1339.73,-58.5 1339.73,-79.5 1426.73,-79.5 1426.73,-58.5 1339.73,-58.5"/>
<text text-anchor="middle" x="1383.23" y="-66.5" font-family="Helvetica,sans-Serif" font-size="10.00">KeywordMap.h</text>
</a>
</g>
<!-- Node18&#45;&gt;Node24 -->
<g id="edge70" class="edge"><title>Node18&#45;&gt;Node24</title>
<path fill="none" stroke="midnightblue" d="M1698.19,-117.917C1616.89,-106.528 1483.49,-87.7205 1436.8,-80.1297"/>
<polygon fill="midnightblue" stroke="midnightblue" points="1437.32,-76.6689 1426.88,-78.4528 1436.15,-83.571 1437.32,-76.6689"/>
</g>
<!-- Node25 -->
<g id="node65" class="node"><title>Node25</title>
<a xlink:href="CmdResourceHandlers_8h.htm" target="_top" xlink:title="CmdResourceHandlers.h">
<polygon fill="white" stroke="red" points="1650.23,-58.5 1650.23,-79.5 1784.23,-79.5 1784.23,-58.5 1650.23,-58.5"/>
<text text-anchor="middle" x="1717.23" y="-66.5" font-family="Helvetica,sans-Serif" font-size="10.00">CmdResourceHandlers.h</text>
</a>
</g>
<!-- Node18&#45;&gt;Node25 -->
<g id="edge80" class="edge"><title>Node18&#45;&gt;Node25</title>
<path fill="none" stroke="midnightblue" d="M1754.79,-116.362C1748.43,-108.35 1739.56,-97.1605 1732.03,-87.6696"/>
<polygon fill="midnightblue" stroke="midnightblue" points="1734.57,-85.2308 1725.61,-79.5707 1729.08,-89.5805 1734.57,-85.2308"/>
</g>
<!-- Node21&#45;&gt;Node2 -->
<g id="edge58" class="edge"><title>Node21&#45;&gt;Node2</title>
<path fill="none" stroke="midnightblue" d="M1620.1,-58.4966C1648.79,-49.0411 1691.15,-35.0829 1722.52,-24.7428"/>
<polygon fill="midnightblue" stroke="midnightblue" points="1723.89,-27.9772 1732.29,-21.5231 1721.7,-21.3289 1723.89,-27.9772"/>
</g>
<!-- Node22&#45;&gt;Node2 -->
<g id="edge62" class="edge"><title>Node22&#45;&gt;Node2</title>
<path fill="none" stroke="midnightblue" d="M1322.9,-59.4768C1325.71,-58.9441 1328.51,-58.4453 1331.23,-58 1472.81,-34.8125 1642.37,-20.1788 1720.66,-14.1564"/>
<polygon fill="midnightblue" stroke="midnightblue" points="1720.94,-17.6455 1730.65,-13.3973 1720.41,-10.6657 1720.94,-17.6455"/>
</g>
<!-- Node22&#45;&gt;Node6 -->
<g id="edge64" class="edge"><title>Node22&#45;&gt;Node6</title>
<path fill="none" stroke="midnightblue" d="M1241.2,-58.4966C1198.27,-47.2292 1130.98,-29.5681 1091.68,-19.2543"/>
<polygon fill="midnightblue" stroke="midnightblue" points="1092.41,-15.8284 1081.85,-16.6752 1090.63,-22.5991 1092.41,-15.8284"/>
</g>
<!-- Node22&#45;&gt;Node20 -->
<g id="edge66" class="edge"><title>Node22&#45;&gt;Node20</title>
<path fill="none" stroke="midnightblue" d="M1239.59,-66.3952C1079.38,-56.3708 505.264,-20.4501 378.93,-12.5457"/>
<polygon fill="midnightblue" stroke="midnightblue" points="378.937,-9.03939 368.738,-11.908 378.5,-16.0257 378.937,-9.03939"/>
</g>
<!-- Node23 -->
<g id="node57" class="node"><title>Node23</title>
<polygon fill="white" stroke="#bfbfbf" points="2527.73,-0.5 2527.73,-21.5 2568.73,-21.5 2568.73,-0.5 2527.73,-0.5"/>
<text text-anchor="middle" x="2548.23" y="-8.5" font-family="Helvetica,sans-Serif" font-size="10.00">glib.h</text>
</g>
<!-- Node22&#45;&gt;Node23 -->
<g id="edge68" class="edge"><title>Node22&#45;&gt;Node23</title>
<path fill="none" stroke="midnightblue" d="M1322.87,-59.2572C1325.69,-58.7775 1328.49,-58.3506 1331.23,-58 1391.76,-50.2355 2333.15,-18.2419 2517.17,-12.0429"/>
<polygon fill="midnightblue" stroke="midnightblue" points="2517.37,-15.5381 2527.25,-11.7035 2517.14,-8.54202 2517.37,-15.5381"/>
</g>
<!-- Node24&#45;&gt;Node2 -->
<g id="edge72" class="edge"><title>Node24&#45;&gt;Node2</title>
<path fill="none" stroke="midnightblue" d="M1426.88,-59.5458C1429.7,-59.0029 1432.5,-58.4825 1435.23,-58 1536.94,-39.9965 1657.3,-24.1873 1720.47,-16.3085"/>
<polygon fill="midnightblue" stroke="midnightblue" points="1720.99,-19.7718 1730.48,-15.0674 1720.13,-12.825 1720.99,-19.7718"/>
</g>
<!-- Node24&#45;&gt;Node6 -->
<g id="edge74" class="edge"><title>Node24&#45;&gt;Node6</title>
<path fill="none" stroke="midnightblue" d="M1339.56,-59.6408C1336.74,-59.0746 1333.94,-58.5231 1331.23,-58 1244.99,-41.4058 1142.79,-24.3965 1092.07,-16.1335"/>
<polygon fill="midnightblue" stroke="midnightblue" points="1092.49,-12.6552 1082.05,-14.5063 1091.36,-19.5646 1092.49,-12.6552"/>
</g>
<!-- Node24&#45;&gt;Node20 -->
<g id="edge76" class="edge"><title>Node24&#45;&gt;Node20</title>
<path fill="none" stroke="midnightblue" d="M1339.62,-59.2457C1336.79,-58.7763 1333.97,-58.3541 1331.23,-58 1138.94,-33.1996 512.366,-15.2479 379.235,-11.6587"/>
<polygon fill="midnightblue" stroke="midnightblue" points="378.965,-8.15033 368.875,-11.3817 378.778,-15.1478 378.965,-8.15033"/>
</g>
<!-- Node24&#45;&gt;Node23 -->
<g id="edge78" class="edge"><title>Node24&#45;&gt;Node23</title>
<path fill="none" stroke="midnightblue" d="M1426.83,-59.2269C1429.66,-58.7621 1432.48,-58.3461 1435.23,-58 1545.07,-44.1607 2348.81,-17.478 2517.3,-11.9982"/>
<polygon fill="midnightblue" stroke="midnightblue" points="2517.59,-15.491 2527.47,-11.6683 2517.36,-8.49463 2517.59,-15.491"/>
</g>
<!-- Node25&#45;&gt;Node2 -->
<g id="edge82" class="edge"><title>Node25&#45;&gt;Node2</title>
<path fill="none" stroke="midnightblue" d="M1725.85,-58.3619C1732.41,-50.2678 1741.59,-38.9318 1749.33,-29.3796"/>
<polygon fill="midnightblue" stroke="midnightblue" points="1752.08,-31.5436 1755.66,-21.5707 1746.64,-27.1364 1752.08,-31.5436"/>
</g>
<!-- Node25&#45;&gt;Node6 -->
<g id="edge86" class="edge"><title>Node25&#45;&gt;Node6</title>
<path fill="none" stroke="midnightblue" d="M1650.12,-59.0531C1647.12,-58.6817 1644.14,-58.3285 1641.23,-58 1432.23,-34.4455 1179.65,-18.1589 1092,-12.864"/>
<polygon fill="midnightblue" stroke="midnightblue" points="1092.1,-9.36377 1081.9,-12.2591 1091.68,-16.3512 1092.1,-9.36377"/>
</g>
<!-- Node25&#45;&gt;Node17 -->
<g id="edge84" class="edge"><title>Node25&#45;&gt;Node17</title>
<path fill="none" stroke="midnightblue" d="M1784.7,-60.0646C1879.16,-47.5562 2047.39,-25.2794 2120.12,-15.6484"/>
<polygon fill="midnightblue" stroke="midnightblue" points="2120.69,-19.1044 2130.14,-14.3219 2119.77,-12.165 2120.69,-19.1044"/>
</g>
<!-- Node26 -->
<g id="node70" class="node"><title>Node26</title>
<polygon fill="white" stroke="#bfbfbf" points="2730.73,-0.5 2730.73,-21.5 2767.73,-21.5 2767.73,-0.5 2730.73,-0.5"/>
<text text-anchor="middle" x="2749.23" y="-8.5" font-family="Helvetica,sans-Serif" font-size="10.00">map</text>
</g>
<!-- Node25&#45;&gt;Node26 -->
<g id="edge88" class="edge"><title>Node25&#45;&gt;Node26</title>
<path fill="none" stroke="midnightblue" d="M1784.55,-63.8163C1810.94,-61.8655 1841.5,-59.7081 1869.23,-58 2183.7,-38.6279 2262.67,-40.0549 2577.23,-22 2627.63,-19.1067 2686.32,-15.2485 2720.47,-12.9544"/>
<polygon fill="midnightblue" stroke="midnightblue" points="2720.91,-16.4327 2730.65,-12.2678 2720.44,-9.44853 2720.91,-16.4327"/>
</g>
<!-- Node27&#45;&gt;Node2 -->
<g id="edge92" class="edge"><title>Node27&#45;&gt;Node2</title>
<path fill="none" stroke="midnightblue" d="M2418.7,-116.316C2397.52,-106.998 2366.18,-92.978 2339.23,-80 2319.88,-70.6881 2316.85,-63.9431 2296.23,-58 2204.84,-31.6717 1918.32,-17.3593 1808.07,-12.711"/>
<polygon fill="midnightblue" stroke="midnightblue" points="1808.1,-9.20933 1797.96,-12.2913 1807.81,-16.2033 1808.1,-9.20933"/>
</g>
<!-- Node27&#45;&gt;Node6 -->
<g id="edge98" class="edge"><title>Node27&#45;&gt;Node6</title>
<path fill="none" stroke="midnightblue" d="M2387.92,-123.198C2352.79,-120.878 2306.36,-117.987 2265.23,-116 2035.58,-104.908 1456.13,-127.741 1231.23,-80 1178.92,-68.8981 1122.08,-42.9139 1088.89,-26.1911"/>
<polygon fill="midnightblue" stroke="midnightblue" points="1090.27,-22.9682 1079.78,-21.5327 1087.09,-29.201 1090.27,-22.9682"/>
</g>
<!-- Node27&#45;&gt;Node23 -->
<g id="edge94" class="edge"><title>Node27&#45;&gt;Node23</title>
<path fill="none" stroke="midnightblue" d="M2498.35,-124.324C2600.41,-118.802 2810.45,-104.562 2832.23,-80 2838.71,-72.6831 2838.55,-65.457 2832.23,-58 2815.93,-38.7857 2649.1,-20.6799 2578.99,-13.8578"/>
<polygon fill="midnightblue" stroke="midnightblue" points="2579.28,-10.3697 2568.99,-12.8978 2578.61,-17.3376 2579.28,-10.3697"/>
</g>
<!-- Node27&#45;&gt;Node26 -->
<g id="edge96" class="edge"><title>Node27&#45;&gt;Node26</title>
<path fill="none" stroke="midnightblue" d="M2498.56,-124.596C2604.01,-119.444 2825.36,-105.669 2848.23,-80 2873.13,-52.0432 2815.02,-29.4953 2777.67,-18.4273"/>
<polygon fill="midnightblue" stroke="midnightblue" points="2778.34,-14.9806 2767.76,-15.615 2776.43,-21.7143 2778.34,-14.9806"/>
</g>
<!-- Node28 -->
<g id="node78" class="node"><title>Node28</title>
<a xlink:href="AnimationEquations_8h.htm" target="_top" xlink:title="AnimationEquations.h">
<polygon fill="white" stroke="red" points="2348.23,-58.5 2348.23,-79.5 2466.23,-79.5 2466.23,-58.5 2348.23,-58.5"/>
<text text-anchor="middle" x="2407.23" y="-66.5" font-family="Helvetica,sans-Serif" font-size="10.00">AnimationEquations.h</text>
</a>
</g>
<!-- Node27&#45;&gt;Node28 -->
<g id="edge100" class="edge"><title>Node27&#45;&gt;Node28</title>
<path fill="none" stroke="midnightblue" d="M2436.62,-116.362C2431.75,-108.513 2424.99,-97.6159 2419.18,-88.2527"/>
<polygon fill="midnightblue" stroke="midnightblue" points="2422.03,-86.2213 2413.79,-79.5707 2416.09,-89.9129 2422.03,-86.2213"/>
</g>
<!-- Node28&#45;&gt;Node2 -->
<g id="edge102" class="edge"><title>Node28&#45;&gt;Node2</title>
<path fill="none" stroke="midnightblue" d="M2347.91,-59.7206C2343.28,-59.1014 2338.68,-58.5188 2334.23,-58 2138.63,-35.2256 1904.01,-19.5311 1808.21,-13.6146"/>
<polygon fill="midnightblue" stroke="midnightblue" points="1808.23,-10.1091 1798.03,-12.9906 1807.8,-17.096 1808.23,-10.1091"/>
</g>
<!-- Node29&#45;&gt;Node2 -->
<g id="edge106" class="edge"><title>Node29&#45;&gt;Node2</title>
<path fill="none" stroke="midnightblue" d="M2118.72,-232.181C2119.55,-200.063 2117.25,-104.609 2064.23,-58 2026.96,-25.2408 1882.29,-15.2459 1808.32,-12.25"/>
<polygon fill="midnightblue" stroke="midnightblue" points="1808.06,-8.73791 1797.94,-11.8568 1807.8,-15.7329 1808.06,-8.73791"/>
</g>
<!-- Node29&#45;&gt;Node10 -->
<g id="edge164" class="edge"><title>Node29&#45;&gt;Node10</title>
<path fill="none" stroke="midnightblue" d="M2074.93,-241.308C1958.27,-236.432 1643.5,-221.078 1604.23,-196 1586.8,-184.874 1576.1,-163.257 1570.2,-147.17"/>
<polygon fill="midnightblue" stroke="midnightblue" points="1573.48,-145.943 1567,-137.563 1566.84,-148.157 1573.48,-145.943"/>
</g>
<!-- Node29&#45;&gt;Node30 -->
<g id="edge108" class="edge"><title>Node29&#45;&gt;Node30</title>
<path fill="none" stroke="midnightblue" d="M2103,-232.295C2074.14,-212.009 2011.32,-167.84 1976.91,-143.653"/>
<polygon fill="midnightblue" stroke="midnightblue" points="1978.61,-140.567 1968.42,-137.679 1974.58,-146.294 1978.61,-140.567"/>
</g>
<!-- Node31 -->
<g id="node90" class="node"><title>Node31</title>
<a xlink:href="Event_8h.htm" target="_top" xlink:title="Event.h">
<polygon fill="white" stroke="red" points="2658.23,-58.5 2658.23,-79.5 2710.23,-79.5 2710.23,-58.5 2658.23,-58.5"/>
<text text-anchor="middle" x="2684.23" y="-66.5" font-family="Helvetica,sans-Serif" font-size="10.00">Event.h</text>
</a>
</g>
<!-- Node29&#45;&gt;Node31 -->
<g id="edge118" class="edge"><title>Node29&#45;&gt;Node31</title>
<path fill="none" stroke="midnightblue" d="M2132.87,-232.308C2158.31,-213.824 2208.85,-177.522 2218.23,-174 2349.31,-124.77 2396.24,-175.227 2531.23,-138 2577.1,-125.348 2626.72,-100.755 2656.63,-84.6067"/>
<polygon fill="midnightblue" stroke="midnightblue" points="2658.52,-87.5582 2665.62,-79.6864 2655.16,-81.4179 2658.52,-87.5582"/>
</g>
<!-- Node32 -->
<g id="node95" class="node"><title>Node32</title>
<a xlink:href="HostWindow_8h.htm" target="_top" xlink:title="HostWindow.h">
<polygon fill="white" stroke="red" points="2154.23,-116.5 2154.23,-137.5 2238.23,-137.5 2238.23,-116.5 2154.23,-116.5"/>
<text text-anchor="middle" x="2196.23" y="-124.5" font-family="Helvetica,sans-Serif" font-size="10.00">HostWindow.h</text>
</a>
</g>
<!-- Node29&#45;&gt;Node32 -->
<g id="edge126" class="edge"><title>Node29&#45;&gt;Node32</title>
<path fill="none" stroke="midnightblue" d="M2121.3,-232.033C2125.63,-217.814 2134.42,-192.635 2147.23,-174 2154.76,-163.03 2165.19,-152.592 2174.48,-144.353"/>
<polygon fill="midnightblue" stroke="midnightblue" points="2176.92,-146.872 2182.26,-137.719 2172.38,-141.546 2176.92,-146.872"/>
</g>
<!-- Node34 -->
<g id="node105" class="node"><title>Node34</title>
<a xlink:href="Timer_8h.htm" target="_top" xlink:title="Timer.h">
<polygon fill="white" stroke="black" points="2522.23,-58.5 2522.23,-79.5 2574.23,-79.5 2574.23,-58.5 2522.23,-58.5"/>
<text text-anchor="middle" x="2548.23" y="-66.5" font-family="Helvetica,sans-Serif" font-size="10.00">Timer.h</text>
</a>
</g>
<!-- Node29&#45;&gt;Node34 -->
<g id="edge142" class="edge"><title>Node29&#45;&gt;Node34</title>
<path fill="none" stroke="midnightblue" d="M2124.94,-232.389C2135.59,-216.607 2157.94,-187.375 2185.23,-174 2314.53,-110.623 2386.22,-216.071 2507.23,-138 2524.71,-126.721 2535.74,-105.13 2541.91,-89.0909"/>
<polygon fill="midnightblue" stroke="midnightblue" points="2545.26,-90.1115 2545.27,-79.5166 2538.65,-87.7904 2545.26,-90.1115"/>
</g>
<!-- Node29&#45;&gt;Node35 -->
<g id="edge150" class="edge"><title>Node29&#45;&gt;Node35</title>
<path fill="none" stroke="midnightblue" d="M2076.03,-232.497C2037.06,-222.795 1979.05,-208.355 1937.23,-197.945"/>
<polygon fill="midnightblue" stroke="midnightblue" points="1938.05,-194.542 1927.5,-195.523 1936.36,-201.335 1938.05,-194.542"/>
</g>
<!-- Node29&#45;&gt;Node36 -->
<g id="edge166" class="edge"><title>Node29&#45;&gt;Node36</title>
<path fill="none" stroke="midnightblue" d="M2148.11,-232.497C2174.89,-223.082 2214.37,-209.204 2243.75,-198.877"/>
<polygon fill="midnightblue" stroke="midnightblue" points="2245.02,-202.141 2253.29,-195.523 2242.69,-195.537 2245.02,-202.141"/>
</g>
<!-- Node30&#45;&gt;Node2 -->
<g id="edge110" class="edge"><title>Node30&#45;&gt;Node2</title>
<path fill="none" stroke="midnightblue" d="M1956.31,-116.296C1959.89,-101.444 1963.7,-74.5505 1950.23,-58 1932.46,-36.1782 1857.1,-22.6865 1807.93,-16.0357"/>
<polygon fill="midnightblue" stroke="midnightblue" points="1808.23,-12.5457 1797.86,-14.7198 1807.33,-19.4866 1808.23,-12.5457"/>
</g>
<!-- Node30&#45;&gt;Node6 -->
<g id="edge112" class="edge"><title>Node30&#45;&gt;Node6</title>
<path fill="none" stroke="midnightblue" d="M1921.25,-123.609C1897.97,-121.227 1865.67,-118.104 1837.23,-116 1686.98,-104.886 1302.82,-128.613 1160.23,-80 1128.4,-69.1503 1097.43,-45.058 1078.6,-28.4222"/>
<polygon fill="midnightblue" stroke="midnightblue" points="1080.83,-25.7195 1071.07,-21.5938 1076.13,-30.9045 1080.83,-25.7195"/>
</g>
<!-- Node30&#45;&gt;Node19 -->
<g id="edge114" class="edge"><title>Node30&#45;&gt;Node19</title>
<path fill="none" stroke="midnightblue" d="M1942.22,-116.362C1933.68,-108.104 1921.65,-96.4725 1911.64,-86.8029"/>
<polygon fill="midnightblue" stroke="midnightblue" points="1913.78,-84.0044 1904.16,-79.5707 1908.92,-89.0374 1913.78,-84.0044"/>
</g>
<!-- Node30&#45;&gt;Node23 -->
<g id="edge116" class="edge"><title>Node30&#45;&gt;Node23</title>
<path fill="none" stroke="midnightblue" d="M1984.82,-125.168C2022.87,-122.967 2088.72,-119.174 2145.23,-116 2181.56,-113.959 2774.21,-106.428 2799.23,-80 2805.95,-72.8986 2805.47,-65.5233 2799.23,-58 2771.58,-24.694 2640.06,-14.8521 2579.23,-12.0569"/>
<polygon fill="midnightblue" stroke="midnightblue" points="2579.21,-8.55319 2569.07,-11.6261 2578.91,-15.5469 2579.21,-8.55319"/>
</g>
<!-- Node31&#45;&gt;Node2 -->
<g id="edge120" class="edge"><title>Node31&#45;&gt;Node2</title>
<path fill="none" stroke="midnightblue" d="M2658.03,-59.9897C2655.09,-59.21 2652.11,-58.521 2649.23,-58 2566.17,-42.9898 1975.27,-19.1801 1808.16,-12.6842"/>
<polygon fill="midnightblue" stroke="midnightblue" points="1807.9,-9.17172 1797.77,-12.2817 1807.63,-16.1665 1807.9,-9.17172"/>
</g>
<!-- Node31&#45;&gt;Node17 -->
<g id="edge122" class="edge"><title>Node31&#45;&gt;Node17</title>
<path fill="none" stroke="midnightblue" d="M2658.01,-60.1111C2655.07,-59.3087 2652.1,-58.5812 2649.23,-58 2479.72,-23.6963 2272.3,-14.2913 2190.65,-11.8293"/>
<polygon fill="midnightblue" stroke="midnightblue" points="2190.52,-8.32439 2180.43,-11.5381 2190.33,-15.3216 2190.52,-8.32439"/>
</g>
<!-- Node31&#45;&gt;Node23 -->
<g id="edge124" class="edge"><title>Node31&#45;&gt;Node23</title>
<path fill="none" stroke="midnightblue" d="M2659.6,-58.4966C2636.86,-48.7989 2603.01,-34.365 2578.6,-23.9556"/>
<polygon fill="midnightblue" stroke="midnightblue" points="2579.68,-20.6087 2569.11,-19.9052 2576.93,-27.0476 2579.68,-20.6087"/>
</g>
<!-- Node32&#45;&gt;Node2 -->
<g id="edge128" class="edge"><title>Node32&#45;&gt;Node2</title>
<path fill="none" stroke="midnightblue" d="M2191.05,-116.453C2182.72,-100.753 2164.78,-71.6263 2140.23,-58 2083.99,-26.7853 1894.27,-15.8342 1807.81,-12.4028"/>
<polygon fill="midnightblue" stroke="midnightblue" points="1807.92,-8.90459 1797.8,-12.0208 1807.66,-15.8995 1807.92,-8.90459"/>
</g>
<!-- Node32&#45;&gt;Node32 -->
<g id="edge140" class="edge"><title>Node32&#45;&gt;Node32</title>
<path fill="none" stroke="midnightblue" d="M2226.79,-137.524C2242.31,-139.061 2256.23,-135.553 2256.23,-127 2256.23,-120.385 2247.9,-116.788 2236.95,-116.208"/>
<polygon fill="midnightblue" stroke="midnightblue" points="2236.69,-112.714 2226.79,-116.476 2236.88,-119.711 2236.69,-112.714"/>
</g>
<!-- Node32&#45;&gt;Node33 -->
<g id="edge130" class="edge"><title>Node32&#45;&gt;Node33</title>
<path fill="none" stroke="midnightblue" d="M2201.18,-116.362C2204.76,-108.677 2209.69,-98.0686 2213.99,-88.8399"/>
<polygon fill="midnightblue" stroke="midnightblue" points="2217.26,-90.1136 2218.3,-79.5707 2210.91,-87.1594 2217.26,-90.1136"/>
</g>
<!-- Node33&#45;&gt;Node2 -->
<g id="edge132" class="edge"><title>Node33&#45;&gt;Node2</title>
<path fill="none" stroke="midnightblue" d="M2191.86,-60.7959C2187.31,-59.7613 2182.66,-58.7903 2178.23,-58 2044.41,-34.1472 1883.98,-19.9882 1808.11,-14.1437"/>
<polygon fill="midnightblue" stroke="midnightblue" points="1808.21,-10.6416 1797.97,-13.3741 1807.68,-17.6215 1808.21,-10.6416"/>
</g>
<!-- Node33&#45;&gt;Node6 -->
<g id="edge136" class="edge"><title>Node33&#45;&gt;Node6</title>
<path fill="none" stroke="midnightblue" d="M2192.12,-67.4486C2027.4,-59.2341 1258.29,-20.8778 1091.99,-12.584"/>
<polygon fill="midnightblue" stroke="midnightblue" points="1092.08,-9.08431 1081.92,-12.0818 1091.73,-16.0756 1092.08,-9.08431"/>
</g>
<!-- Node33&#45;&gt;Node17 -->
<g id="edge134" class="edge"><title>Node33&#45;&gt;Node17</title>
<path fill="none" stroke="midnightblue" d="M2210.75,-58.3619C2200.88,-49.9408 2186.89,-38.0105 2175.43,-28.2308"/>
<polygon fill="midnightblue" stroke="midnightblue" points="2177.5,-25.3972 2167.62,-21.5707 2172.96,-30.7231 2177.5,-25.3972"/>
</g>
<!-- Node33&#45;&gt;Node23 -->
<g id="edge138" class="edge"><title>Node33&#45;&gt;Node23</title>
<path fill="none" stroke="midnightblue" d="M2254.39,-63.4387C2316.72,-52.3156 2456.04,-27.4516 2517.78,-16.4341"/>
<polygon fill="midnightblue" stroke="midnightblue" points="2518.45,-19.8688 2527.68,-14.6663 2517.22,-12.9777 2518.45,-19.8688"/>
</g>
<!-- Node34&#45;&gt;Node2 -->
<g id="edge144" class="edge"><title>Node34&#45;&gt;Node2</title>
<path fill="none" stroke="midnightblue" d="M2522.15,-61.002C2517.55,-59.8281 2512.77,-58.7604 2508.23,-58 2372.15,-35.2402 1946.72,-17.7921 1808.26,-12.5937"/>
<polygon fill="midnightblue" stroke="midnightblue" points="1808.15,-9.08745 1798.03,-12.2124 1807.89,-16.0826 1808.15,-9.08745"/>
</g>
<!-- Node34&#45;&gt;Node17 -->
<g id="edge148" class="edge"><title>Node34&#45;&gt;Node17</title>
<path fill="none" stroke="midnightblue" d="M2522.1,-61.2669C2517.5,-60.0636 2512.74,-58.9174 2508.23,-58 2393.1,-34.6195 2254.41,-20.0541 2190.55,-14.0984"/>
<polygon fill="midnightblue" stroke="midnightblue" points="2190.52,-10.5807 2180.24,-13.1512 2189.88,-17.5514 2190.52,-10.5807"/>
</g>
<!-- Node34&#45;&gt;Node23 -->
<g id="edge146" class="edge"><title>Node34&#45;&gt;Node23</title>
<path fill="none" stroke="midnightblue" d="M2548.23,-58.3619C2548.23,-50.9219 2548.23,-40.7427 2548.23,-31.7276"/>
<polygon fill="midnightblue" stroke="midnightblue" points="2551.73,-31.5706 2548.23,-21.5707 2544.73,-31.5707 2551.73,-31.5706"/>
</g>
<!-- Node35&#45;&gt;Node2 -->
<g id="edge152" class="edge"><title>Node35&#45;&gt;Node2</title>
<path fill="none" stroke="midnightblue" d="M1890.18,-174.119C1902.22,-146.907 1931.08,-76.7441 1917.23,-58 1904.1,-40.2305 1848.24,-26.4014 1807.81,-18.4739"/>
<polygon fill="midnightblue" stroke="midnightblue" points="1808.37,-15.0189 1797.89,-16.5868 1807.06,-21.8954 1808.37,-15.0189"/>
</g>
<!-- Node35&#45;&gt;Node6 -->
<g id="edge154" class="edge"><title>Node35&#45;&gt;Node6</title>
<path fill="none" stroke="midnightblue" d="M1826.84,-175.585C1787.13,-168.084 1733.91,-155.85 1689.23,-138 1671.1,-130.76 1669.95,-121.502 1651.23,-116 1569.26,-91.9145 942.201,-141.804 883.226,-80 838.564,-33.1957 966.259,-17.6067 1028.41,-12.876"/>
<polygon fill="midnightblue" stroke="midnightblue" points="1028.76,-16.3597 1038.49,-12.16 1028.26,-9.3773 1028.76,-16.3597"/>
</g>
<!-- Node35&#45;&gt;Node7 -->
<g id="edge162" class="edge"><title>Node35&#45;&gt;Node7</title>
<path fill="none" stroke="midnightblue" d="M1827.11,-178.409C1747.96,-169.409 1601.85,-152.71 1477.23,-138 1465.61,-136.629 1453.17,-135.139 1441.33,-133.711"/>
<polygon fill="midnightblue" stroke="midnightblue" points="1441.46,-130.202 1431.12,-132.477 1440.62,-137.152 1441.46,-130.202"/>
</g>
<!-- Node35&#45;&gt;Node18 -->
<g id="edge156" class="edge"><title>Node35&#45;&gt;Node18</title>
<path fill="none" stroke="midnightblue" d="M1863.13,-174.497C1843.99,-165.397 1816.08,-152.127 1794.62,-141.925"/>
<polygon fill="midnightblue" stroke="midnightblue" points="1796.1,-138.754 1785.57,-137.621 1793.1,-145.076 1796.1,-138.754"/>
</g>
<!-- Node35&#45;&gt;Node31 -->
<g id="edge158" class="edge"><title>Node35&#45;&gt;Node31</title>
<path fill="none" stroke="midnightblue" d="M1943.33,-182.806C2076.57,-177.418 2400.83,-162.19 2507.23,-138 2560.73,-125.835 2619.44,-100.343 2654,-83.9812"/>
<polygon fill="midnightblue" stroke="midnightblue" points="2655.58,-87.1063 2663.08,-79.6272 2652.55,-80.7942 2655.58,-87.1063"/>
</g>
<!-- Node35&#45;&gt;Node33 -->
<g id="edge160" class="edge"><title>Node35&#45;&gt;Node33</title>
<path fill="none" stroke="midnightblue" d="M1943.41,-181.979C2044.6,-176.126 2244.29,-161.689 2265.23,-138 2279.27,-122.108 2262.06,-100.909 2245.62,-86.221"/>
<polygon fill="midnightblue" stroke="midnightblue" points="2247.66,-83.3575 2237.76,-79.5856 2243.14,-88.7084 2247.66,-83.3575"/>
</g>
<!-- Node37&#45;&gt;Node2 -->
<g id="edge170" class="edge"><title>Node37&#45;&gt;Node2</title>
<path fill="none" stroke="midnightblue" d="M2552.67,-232.466C2550.27,-199.453 2537.88,-97.8338 2475.23,-58 2447,-40.0538 1958.85,-18.8795 1808.17,-12.7449"/>
<polygon fill="midnightblue" stroke="midnightblue" points="1808.04,-9.23719 1797.91,-12.3295 1807.76,-16.2315 1808.04,-9.23719"/>
</g>
<!-- Node38&#45;&gt;Node2 -->
<g id="edge174" class="edge"><title>Node38&#45;&gt;Node2</title>
<path fill="none" stroke="midnightblue" d="M2727.49,-59.5965C2724.71,-58.9793 2721.93,-58.4327 2719.23,-58 2628.67,-43.5005 1982.83,-19.0113 1807.85,-12.5835"/>
<polygon fill="midnightblue" stroke="midnightblue" points="1807.85,-9.08109 1797.73,-12.2124 1807.59,-16.0764 1807.85,-9.08109"/>
</g>
<!-- Node38&#45;&gt;Node23 -->
<g id="edge176" class="edge"><title>Node38&#45;&gt;Node23</title>
<path fill="none" stroke="midnightblue" d="M2727.64,-60.3168C2687.34,-49.2407 2618.14,-30.2186 2578.49,-19.3197"/>
<polygon fill="midnightblue" stroke="midnightblue" points="2579.42,-15.9445 2568.85,-16.6688 2577.56,-22.6941 2579.42,-15.9445"/>
</g>
<!-- Node39&#45;&gt;Node2 -->
<g id="edge182" class="edge"><title>Node39&#45;&gt;Node2</title>
<path fill="none" stroke="midnightblue" d="M97.1552,-116.299C125.371,-100.112 182.381,-70.0163 235.226,-58 309.465,-41.119 1477.81,-16.7634 1720.35,-11.8737"/>
<polygon fill="midnightblue" stroke="midnightblue" points="1720.62,-15.3691 1730.55,-11.6687 1720.48,-8.37056 1720.62,-15.3691"/>
</g>
<!-- Node39&#45;&gt;Node6 -->
<g id="edge186" class="edge"><title>Node39&#45;&gt;Node6</title>
<path fill="none" stroke="midnightblue" d="M85.6743,-116.446C96.1177,-100.456 118.397,-70.6196 146.226,-58 227.924,-20.9521 876.745,-12.693 1028.54,-11.2608"/>
<polygon fill="midnightblue" stroke="midnightblue" points="1028.63,-14.7603 1038.59,-11.1692 1028.56,-7.76054 1028.63,-14.7603"/>
</g>
<!-- Node39&#45;&gt;Node20 -->
<g id="edge184" class="edge"><title>Node39&#45;&gt;Node20</title>
<path fill="none" stroke="midnightblue" d="M80.2401,-116.276C82.2967,-100.891 88.4056,-72.7842 106.226,-58 140.136,-29.8665 273.799,-16.9309 329.575,-12.6762"/>
<polygon fill="midnightblue" stroke="midnightblue" points="329.921,-16.1603 339.639,-11.9391 329.41,-9.17901 329.921,-16.1603"/>
</g>
<!-- Node39&#45;&gt;Node34 -->
<g id="edge188" class="edge"><title>Node39&#45;&gt;Node34</title>
<path fill="none" stroke="midnightblue" d="M132.341,-120.22C147.465,-118.544 163.973,-116.956 179.226,-116 1197.8,-52.1349 1458.14,-164.223 2475.23,-80 2487.28,-79.002 2500.36,-77.2452 2512.08,-75.4246"/>
<polygon fill="midnightblue" stroke="midnightblue" points="2512.66,-78.8774 2521.97,-73.8258 2511.54,-71.9672 2512.66,-78.8774"/>
</g>
<!-- Node40&#45;&gt;Node2 -->
<g id="edge192" class="edge"><title>Node40&#45;&gt;Node2</title>
<path fill="none" stroke="midnightblue" d="M447.412,-174.384C445.477,-159.134 444.545,-131.194 460.226,-116 505.755,-71.8854 681.27,-93.4326 743.226,-80 775.511,-73.0002 781.694,-63.7503 814.226,-58 991.841,-26.6043 1558.1,-14.5662 1720.38,-11.7104"/>
<polygon fill="midnightblue" stroke="midnightblue" points="1720.53,-15.2083 1730.47,-11.5355 1720.41,-8.20935 1720.53,-15.2083"/>
</g>
<!-- Node40&#45;&gt;Node6 -->
<g id="edge194" class="edge"><title>Node40&#45;&gt;Node6</title>
<path fill="none" stroke="midnightblue" d="M401.573,-183.795C331.803,-180.913 207.093,-171.138 179.226,-138 147.462,-100.229 200.279,-74.024 235.226,-58 308.226,-24.5273 884.693,-13.6524 1028.04,-11.4524"/>
<polygon fill="midnightblue" stroke="midnightblue" points="1028.4,-14.9475 1038.34,-11.2978 1028.29,-7.94827 1028.4,-14.9475"/>
</g>
<!-- Node40&#45;&gt;Node14 -->
<g id="edge196" class="edge"><title>Node40&#45;&gt;Node14</title>
<path fill="none" stroke="midnightblue" d="M459.314,-174.362C467.067,-166.186 477.956,-154.702 487.071,-145.091"/>
<polygon fill="midnightblue" stroke="midnightblue" points="489.861,-147.235 494.202,-137.571 484.781,-142.419 489.861,-147.235"/>
</g>
<!-- Node41&#45;&gt;Node2 -->
<g id="edge202" class="edge"><title>Node41&#45;&gt;Node2</title>
<path fill="none" stroke="midnightblue" d="M2591.91,-60.0967C2589.01,-59.2742 2586.07,-58.5461 2583.23,-58 2432.46,-29.0774 1954.84,-15.5371 1807.76,-11.9821"/>
<polygon fill="midnightblue" stroke="midnightblue" points="1807.83,-8.48293 1797.75,-11.7434 1807.67,-15.4809 1807.83,-8.48293"/>
</g>
<!-- Node41&#45;&gt;Node17 -->
<g id="edge204" class="edge"><title>Node41&#45;&gt;Node17</title>
<path fill="none" stroke="midnightblue" d="M2591.88,-60.2431C2588.99,-59.3943 2586.06,-58.62 2583.23,-58 2439.85,-26.606 2264.64,-15.7211 2190.76,-12.3529"/>
<polygon fill="midnightblue" stroke="midnightblue" points="2190.76,-8.84941 2180.61,-11.9089 2190.45,-15.8427 2190.76,-8.84941"/>
</g>
<!-- Node42&#45;&gt;Node2 -->
<g id="edge210" class="edge"><title>Node42&#45;&gt;Node2</title>
<path fill="none" stroke="midnightblue" d="M526.569,-174.431C492.038,-162.194 447.107,-140.547 469.226,-116 520.826,-58.7355 738.452,-94.148 814.226,-80 850.896,-73.1531 858.396,-63.9292 895.226,-58 1056.74,-31.998 1566.82,-16.3552 1720.19,-12.1518"/>
<polygon fill="midnightblue" stroke="midnightblue" points="1720.7,-15.6392 1730.61,-11.8689 1720.51,-8.6418 1720.7,-15.6392"/>
</g>
<!-- Node42&#45;&gt;Node6 -->
<g id="edge214" class="edge"><title>Node42&#45;&gt;Node6</title>
<path fill="none" stroke="midnightblue" d="M518.47,-174.495C486.245,-165.611 445.992,-152.106 436.226,-138 430.66,-129.961 430.318,-123.791 436.226,-116 493.956,-39.8706 549.451,-76.2986 643.226,-58 785.083,-30.3188 957.504,-17.315 1027.93,-12.8639"/>
<polygon fill="midnightblue" stroke="midnightblue" points="1028.57,-16.3312 1038.33,-12.2221 1028.14,-9.34444 1028.57,-16.3312"/>
</g>
<!-- Node42&#45;&gt;Node14 -->
<g id="edge218" class="edge"><title>Node42&#45;&gt;Node14</title>
<path fill="none" stroke="midnightblue" d="M550.771,-174.362C542.656,-166.104 531.225,-154.472 521.722,-144.803"/>
<polygon fill="midnightblue" stroke="midnightblue" points="524.12,-142.25 514.614,-137.571 519.127,-147.156 524.12,-142.25"/>
</g>
<!-- Node42&#45;&gt;Node20 -->
<g id="edge212" class="edge"><title>Node42&#45;&gt;Node20</title>
<path fill="none" stroke="midnightblue" d="M513.936,-175.296C510.995,-174.821 508.073,-174.383 505.226,-174 451.342,-166.747 54.2297,-177.834 17.2258,-138 -76.0063,-37.6368 237.181,-16.0407 329.42,-11.8998"/>
<polygon fill="midnightblue" stroke="midnightblue" points="329.686,-15.3918 339.531,-11.4772 329.394,-8.39791 329.686,-15.3918"/>
</g>
<!-- Node42&#45;&gt;Node32 -->
<g id="edge216" class="edge"><title>Node42&#45;&gt;Node32</title>
<path fill="none" stroke="midnightblue" d="M608.521,-183.814C788.686,-179.219 1449.3,-161.66 1993.23,-138 2044.42,-135.773 2102.85,-132.534 2143.83,-130.147"/>
<polygon fill="midnightblue" stroke="midnightblue" points="2144.08,-133.638 2153.86,-129.559 2143.67,-126.65 2144.08,-133.638"/>
</g>
<!-- Node43&#45;&gt;Node2 -->
<g id="edge222" class="edge"><title>Node43&#45;&gt;Node2</title>
<path fill="none" stroke="midnightblue" d="M1488.97,-61.6043C1493.34,-60.3088 1497.91,-59.0435 1502.23,-58 1578.24,-39.6379 1668.24,-25.0149 1720.52,-17.2109"/>
<polygon fill="midnightblue" stroke="midnightblue" points="1721.08,-20.6666 1730.46,-15.742 1720.05,-13.7419 1721.08,-20.6666"/>
</g>
<!-- Node43&#45;&gt;Node6 -->
<g id="edge224" class="edge"><title>Node43&#45;&gt;Node6</title>
<path fill="none" stroke="midnightblue" d="M1443.71,-60.3748C1440.88,-59.4799 1438,-58.6588 1435.23,-58 1310.34,-28.3861 1157.36,-16.5872 1092.14,-12.6685"/>
<polygon fill="midnightblue" stroke="midnightblue" points="1092.26,-9.17019 1082.08,-12.0856 1091.86,-16.1585 1092.26,-9.17019"/>
</g>
<!-- Node43&#45;&gt;Node23 -->
<g id="edge226" class="edge"><title>Node43&#45;&gt;Node23</title>
<path fill="none" stroke="midnightblue" d="M1488.83,-64.7435C1502.26,-62.3775 1519.66,-59.5969 1535.23,-58 1732.79,-37.7335 2368.87,-16.6857 2517.13,-11.9733"/>
<polygon fill="midnightblue" stroke="midnightblue" points="2517.45,-15.4652 2527.33,-11.6505 2517.22,-8.46866 2517.45,-15.4652"/>
</g>
<!-- Node44&#45;&gt;Node2 -->
<g id="edge232" class="edge"><title>Node44&#45;&gt;Node2</title>
<path fill="none" stroke="midnightblue" d="M1745.92,-174.469C1782.47,-166.085 1826.14,-153.25 1837.23,-138 1864.16,-100.961 1817.08,-53.1925 1786.79,-28.1146"/>
<polygon fill="midnightblue" stroke="midnightblue" points="1788.75,-25.2035 1778.77,-21.6708 1784.37,-30.6614 1788.75,-25.2035"/>
</g>
<!-- Node44&#45;&gt;Node7 -->
<g id="edge234" class="edge"><title>Node44&#45;&gt;Node7</title>
<path fill="none" stroke="midnightblue" d="M1636.81,-174.497C1581.2,-163.956 1496.06,-147.819 1440.76,-137.337"/>
<polygon fill="midnightblue" stroke="midnightblue" points="1441.28,-133.872 1430.8,-135.448 1439.97,-140.75 1441.28,-133.872"/>
</g>
<!-- Node44&#45;&gt;Node10 -->
<g id="edge236" class="edge"><title>Node44&#45;&gt;Node10</title>
<path fill="none" stroke="midnightblue" d="M1669.05,-174.497C1648.87,-165.356 1619.42,-152.008 1596.86,-141.788"/>
<polygon fill="midnightblue" stroke="midnightblue" points="1598.22,-138.561 1587.67,-137.621 1595.33,-144.937 1598.22,-138.561"/>
</g>
<!-- Node44&#45;&gt;Node17 -->
<g id="edge238" class="edge"><title>Node44&#45;&gt;Node17</title>
<path fill="none" stroke="midnightblue" d="M1771.62,-176.472C1863.12,-166.23 2003.85,-149.052 2026.23,-138 2077.59,-112.636 2121.21,-59.0075 2142.07,-30.222"/>
<polygon fill="midnightblue" stroke="midnightblue" points="2145.1,-31.9994 2148.03,-21.8164 2139.39,-27.9527 2145.1,-31.9994"/>
</g>
<!-- Node45&#45;&gt;Node2 -->
<g id="edge242" class="edge"><title>Node45&#45;&gt;Node2</title>
<path fill="none" stroke="midnightblue" d="M2041.76,-290.329C2043.05,-251.863 2041.8,-119.364 1968.23,-58 1944.22,-37.9771 1860.35,-23.6406 1807.92,-16.39"/>
<polygon fill="midnightblue" stroke="midnightblue" points="1808.26,-12.9039 1797.88,-15.0347 1807.32,-19.841 1808.26,-12.9039"/>
</g>
<!-- Node45&#45;&gt;Node16 -->
<g id="edge244" class="edge"><title>Node45&#45;&gt;Node16</title>
<path fill="none" stroke="midnightblue" d="M2002.52,-292.549C1871.78,-264.008 1446.49,-171.158 1296.87,-138.494"/>
<polygon fill="midnightblue" stroke="midnightblue" points="1297.52,-135.053 1287,-136.339 1296.03,-141.892 1297.52,-135.053"/>
</g>
<!-- Node45&#45;&gt;Node29 -->
<g id="edge246" class="edge"><title>Node45&#45;&gt;Node29</title>
<path fill="none" stroke="midnightblue" d="M2055.35,-290.362C2066.75,-281.777 2082.98,-269.546 2096.1,-259.664"/>
<polygon fill="midnightblue" stroke="midnightblue" points="2098.31,-262.383 2104.19,-253.571 2094.1,-256.792 2098.31,-262.383"/>
</g>
<!-- Node46&#45;&gt;Node2 -->
<g id="edge250" class="edge"><title>Node46&#45;&gt;Node2</title>
<path fill="none" stroke="midnightblue" d="M229.737,-116.434C231.128,-100.71 236.274,-71.5522 255.226,-58 285.819,-36.1231 1475.22,-15.6839 1720.33,-11.6991"/>
<polygon fill="midnightblue" stroke="midnightblue" points="1720.68,-15.1939 1730.62,-11.5323 1720.57,-8.19478 1720.68,-15.1939"/>
</g>
<!-- Node46&#45;&gt;Node8 -->
<g id="edge252" class="edge"><title>Node46&#45;&gt;Node8</title>
<path fill="none" stroke="midnightblue" d="M241.331,-116.362C250.914,-107.941 264.49,-96.0105 275.618,-86.2308"/>
<polygon fill="midnightblue" stroke="midnightblue" points="277.996,-88.8009 283.197,-79.5707 273.375,-83.5427 277.996,-88.8009"/>
</g>
<!-- Node47&#45;&gt;Node2 -->
<g id="edge258" class="edge"><title>Node47&#45;&gt;Node2</title>
<path fill="none" stroke="midnightblue" d="M2269.75,-290.42C2291.69,-273.419 2332.43,-237.668 2348.23,-196 2351.69,-186.857 2351.27,-183.293 2348.23,-174 2328.35,-113.253 2318.81,-89.5453 2263.23,-58 2224.1,-35.7973 1922.58,-18.7962 1808.11,-13.0809"/>
<polygon fill="midnightblue" stroke="midnightblue" points="1808.11,-9.57674 1797.95,-12.5788 1807.76,-16.5682 1808.11,-9.57674"/>
</g>
<!-- Node47&#45;&gt;Node29 -->
<g id="edge260" class="edge"><title>Node47&#45;&gt;Node29</title>
<path fill="none" stroke="midnightblue" d="M2230.42,-290.497C2208.73,-281.315 2177.02,-267.889 2152.83,-257.652"/>
<polygon fill="midnightblue" stroke="midnightblue" points="2153.89,-254.297 2143.31,-253.621 2151.16,-260.743 2153.89,-254.297"/>
</g>
</g>
</svg>
