<?xml version="1.0" encoding="UTF-8" standalone="no"?>
<!DOCTYPE svg PUBLIC "-//W3C//DTD SVG 1.1//EN"
 "http://www.w3.org/Graphics/SVG/1.1/DTD/svg11.dtd">
<!-- Generated by graphviz version 2.26.3 (20100126.1600)
 -->
<!-- Title: G Pages: 1 -->
<svg width="2293pt" height="204pt"
 viewBox="0.00 0.00 2293.00 204.00" xmlns="http://www.w3.org/2000/svg" xmlns:xlink="http://www.w3.org/1999/xlink">
<g id="graph1" class="graph" transform="scale(1 1) rotate(0) translate(4 200)">
<title>G</title>
<polygon fill="white" stroke="white" points="-4,5 -4,-200 2290,-200 2290,5 -4,5"/>
<!-- Node1 -->
<g id="node1" class="node"><title>Node1</title>
<polygon fill="#bfbfbf" stroke="black" points="1184,-174.5 1184,-195.5 1270,-195.5 1270,-174.5 1184,-174.5"/>
<text text-anchor="middle" x="1227" y="-182.5" font-family="Helvetica,sans-Serif" font-size="10.00">CardWindow.h</text>
</g>
<!-- Node2 -->
<g id="node3" class="node"><title>Node2</title>
<a xlink:href="SystemService_8cpp.htm" target="_top" xlink:title="SystemService.cpp">
<polygon fill="white" stroke="black" points="137,-116.5 137,-137.5 243,-137.5 243,-116.5 137,-116.5"/>
<text text-anchor="middle" x="190" y="-124.5" font-family="Helvetica,sans-Serif" font-size="10.00">SystemService.cpp</text>
</a>
</g>
<!-- Node1&#45;&gt;Node2 -->
<g id="edge2" class="edge"><title>Node1&#45;&gt;Node2</title>
<path fill="none" stroke="midnightblue" d="M1173.76,-184.554C1027.17,-182.867 605.34,-174.912 257,-138 252.546,-137.528 247.937,-136.954 243.319,-136.318"/>
<polygon fill="midnightblue" stroke="midnightblue" points="1173.8,-188.055 1183.84,-184.665 1173.88,-181.055 1173.8,-188.055"/>
</g>
<!-- Node3 -->
<g id="node5" class="node"><title>Node3</title>
<a xlink:href="SystemUiController_8cpp.htm" target="_top" xlink:title="SystemUiController.cpp">
<polygon fill="white" stroke="black" points="-0.5,-58.5 -0.5,-79.5 126.5,-79.5 126.5,-58.5 -0.5,-58.5"/>
<text text-anchor="middle" x="63" y="-66.5" font-family="Helvetica,sans-Serif" font-size="10.00">SystemUiController.cpp</text>
</a>
</g>
<!-- Node1&#45;&gt;Node3 -->
<g id="edge4" class="edge"><title>Node1&#45;&gt;Node3</title>
<path fill="none" stroke="midnightblue" d="M1173.71,-183.791C987.809,-179.37 374.649,-163.026 290,-138 271.286,-132.467 270.092,-123.316 252,-116 210.466,-99.2052 161.296,-87.205 123.52,-79.5353"/>
<polygon fill="midnightblue" stroke="midnightblue" points="1173.71,-187.291 1183.79,-184.028 1173.88,-180.293 1173.71,-187.291"/>
</g>
<!-- Node4 -->
<g id="node7" class="node"><title>Node4</title>
<a xlink:href="CardGroup_8h.htm" target="_top" xlink:title="CardGroup.h">
<polygon fill="white" stroke="black" points="1188.5,-116.5 1188.5,-137.5 1265.5,-137.5 1265.5,-116.5 1188.5,-116.5"/>
<text text-anchor="middle" x="1227" y="-124.5" font-family="Helvetica,sans-Serif" font-size="10.00">CardGroup.h</text>
</a>
</g>
<!-- Node1&#45;&gt;Node4 -->
<g id="edge6" class="edge"><title>Node1&#45;&gt;Node4</title>
<path fill="none" stroke="midnightblue" d="M1227,-164.191C1227,-155.168 1227,-144.994 1227,-137.571"/>
<polygon fill="midnightblue" stroke="midnightblue" points="1223.5,-164.362 1227,-174.362 1230.5,-164.362 1223.5,-164.362"/>
</g>
<!-- Node6 -->
<g id="node11" class="node"><title>Node6</title>
<a xlink:href="CardWindow_8cpp.htm" target="_top" xlink:title="CardWindow.cpp">
<polygon fill="white" stroke="black" points="1011.5,-58.5 1011.5,-79.5 1108.5,-79.5 1108.5,-58.5 1011.5,-58.5"/>
<text text-anchor="middle" x="1060" y="-66.5" font-family="Helvetica,sans-Serif" font-size="10.00">CardWindow.cpp</text>
</a>
</g>
<!-- Node1&#45;&gt;Node6 -->
<g id="edge32" class="edge"><title>Node1&#45;&gt;Node6</title>
<path fill="none" stroke="midnightblue" d="M1173.87,-178.243C1126.85,-171.043 1063.36,-157.91 1048,-138 1034.78,-120.863 1045.75,-94.1982 1053.66,-79.5405"/>
<polygon fill="midnightblue" stroke="midnightblue" points="1173.53,-181.73 1183.93,-179.733 1174.55,-174.806 1173.53,-181.73"/>
</g>
<!-- Node7 -->
<g id="node13" class="node"><title>Node7</title>
<a xlink:href="CardWindowManager_8cpp.htm" target="_top" xlink:title="CardWindowManager.cpp">
<polygon fill="white" stroke="black" points="1126,-58.5 1126,-79.5 1266,-79.5 1266,-58.5 1126,-58.5"/>
<text text-anchor="middle" x="1196" y="-66.5" font-family="Helvetica,sans-Serif" font-size="10.00">CardWindowManager.cpp</text>
</a>
</g>
<!-- Node1&#45;&gt;Node7 -->
<g id="edge42" class="edge"><title>Node1&#45;&gt;Node7</title>
<path fill="none" stroke="midnightblue" d="M1203.27,-167.981C1194.19,-160.022 1184.85,-149.709 1180,-138 1171.81,-118.232 1182.15,-93.4598 1189.61,-79.6184"/>
<polygon fill="midnightblue" stroke="midnightblue" points="1201.11,-170.734 1211.07,-174.346 1205.54,-165.311 1201.11,-170.734"/>
</g>
<!-- Node8 -->
<g id="node15" class="node"><title>Node8</title>
<a xlink:href="CardWindowManagerStates_8cpp.htm" target="_top" xlink:title="CardWindowManagerStates.cpp">
<polygon fill="white" stroke="black" points="1390,-58.5 1390,-79.5 1560,-79.5 1560,-58.5 1390,-58.5"/>
<text text-anchor="middle" x="1475" y="-66.5" font-family="Helvetica,sans-Serif" font-size="10.00">CardWindowManagerStates.cpp</text>
</a>
</g>
<!-- Node1&#45;&gt;Node8 -->
<g id="edge44" class="edge"><title>Node1&#45;&gt;Node8</title>
<path fill="none" stroke="midnightblue" d="M1244.43,-167.269C1260.62,-151.718 1286.08,-129.535 1312,-116 1345.15,-98.6847 1385.53,-86.9823 1417.8,-79.5852"/>
<polygon fill="midnightblue" stroke="midnightblue" points="1241.94,-164.8 1237.26,-174.303 1246.85,-169.796 1241.94,-164.8"/>
</g>
<!-- Node9 -->
<g id="node17" class="node"><title>Node9</title>
<a xlink:href="CardHostWindow_8h.htm" target="_top" xlink:title="CardHostWindow.h">
<polygon fill="white" stroke="black" points="1320.5,-116.5 1320.5,-137.5 1427.5,-137.5 1427.5,-116.5 1320.5,-116.5"/>
<text text-anchor="middle" x="1374" y="-124.5" font-family="Helvetica,sans-Serif" font-size="10.00">CardHostWindow.h</text>
</a>
</g>
<!-- Node1&#45;&gt;Node9 -->
<g id="edge16" class="edge"><title>Node1&#45;&gt;Node9</title>
<path fill="none" stroke="midnightblue" d="M1263.11,-170.751C1289.07,-160.509 1323.51,-146.921 1347.08,-137.621"/>
<polygon fill="midnightblue" stroke="midnightblue" points="1261.64,-167.571 1253.62,-174.497 1264.21,-174.082 1261.64,-167.571"/>
</g>
<!-- Node14 -->
<g id="node28" class="node"><title>Node14</title>
<a xlink:href="CardLoading_8cpp.htm" target="_top" xlink:title="CardLoading.cpp">
<polygon fill="white" stroke="black" points="1445,-116.5 1445,-137.5 1543,-137.5 1543,-116.5 1445,-116.5"/>
<text text-anchor="middle" x="1494" y="-124.5" font-family="Helvetica,sans-Serif" font-size="10.00">CardLoading.cpp</text>
</a>
</g>
<!-- Node1&#45;&gt;Node14 -->
<g id="edge28" class="edge"><title>Node1&#45;&gt;Node14</title>
<path fill="none" stroke="midnightblue" d="M1280.12,-173.46C1328.3,-162.994 1398.73,-147.695 1445.44,-137.549"/>
<polygon fill="midnightblue" stroke="midnightblue" points="1279.22,-170.074 1270.19,-175.617 1280.71,-176.914 1279.22,-170.074"/>
</g>
<!-- Node15 -->
<g id="node30" class="node"><title>Node15</title>
<a xlink:href="CardTransition_8cpp.htm" target="_top" xlink:title="CardTransition.cpp">
<polygon fill="white" stroke="black" points="1560.5,-116.5 1560.5,-137.5 1667.5,-137.5 1667.5,-116.5 1560.5,-116.5"/>
<text text-anchor="middle" x="1614" y="-124.5" font-family="Helvetica,sans-Serif" font-size="10.00">CardTransition.cpp</text>
</a>
</g>
<!-- Node1&#45;&gt;Node15 -->
<g id="edge30" class="edge"><title>Node1&#45;&gt;Node15</title>
<path fill="none" stroke="midnightblue" d="M1280.1,-177.852C1344.51,-169.058 1456.36,-153.395 1552,-138 1554.7,-137.566 1557.46,-137.111 1560.25,-136.645"/>
<polygon fill="midnightblue" stroke="midnightblue" points="1279.61,-174.386 1270.18,-179.204 1280.56,-181.322 1279.61,-174.386"/>
</g>
<!-- Node16 -->
<g id="node33" class="node"><title>Node16</title>
<a xlink:href="GhostCard_8h.htm" target="_top" xlink:title="GhostCard.h">
<polygon fill="white" stroke="black" points="1056.5,-116.5 1056.5,-137.5 1133.5,-137.5 1133.5,-116.5 1056.5,-116.5"/>
<text text-anchor="middle" x="1095" y="-124.5" font-family="Helvetica,sans-Serif" font-size="10.00">GhostCard.h</text>
</a>
</g>
<!-- Node1&#45;&gt;Node16 -->
<g id="edge34" class="edge"><title>Node1&#45;&gt;Node16</title>
<path fill="none" stroke="midnightblue" d="M1193.64,-170.343C1170.45,-160.15 1140.06,-146.798 1119.17,-137.621"/>
<polygon fill="midnightblue" stroke="midnightblue" points="1192.53,-173.678 1203.1,-174.497 1195.35,-167.27 1192.53,-173.678"/>
</g>
<!-- Node18 -->
<g id="node41" class="node"><title>Node18</title>
<a xlink:href="EmulatedCardWindow_8h.htm" target="_top" xlink:title="EmulatedCardWindow.h">
<polygon fill="white" stroke="black" points="298.5,-116.5 298.5,-137.5 427.5,-137.5 427.5,-116.5 298.5,-116.5"/>
<text text-anchor="middle" x="363" y="-124.5" font-family="Helvetica,sans-Serif" font-size="10.00">EmulatedCardWindow.h</text>
</a>
</g>
<!-- Node1&#45;&gt;Node18 -->
<g id="edge46" class="edge"><title>Node1&#45;&gt;Node18</title>
<path fill="none" stroke="midnightblue" d="M1173.57,-182.145C1051.27,-175.497 741.604,-158.017 483,-138 465.062,-136.612 445.633,-134.915 427.74,-133.273"/>
<polygon fill="midnightblue" stroke="midnightblue" points="1173.61,-185.652 1183.78,-182.699 1173.98,-178.663 1173.61,-185.652"/>
</g>
<!-- Node20 -->
<g id="node46" class="node"><title>Node20</title>
<a xlink:href="WebAppMgrProxy_8cpp.htm" target="_top" xlink:title="WebAppMgrProxy.cpp">
<polygon fill="white" stroke="black" points="302,-58.5 302,-79.5 424,-79.5 424,-58.5 302,-58.5"/>
<text text-anchor="middle" x="363" y="-66.5" font-family="Helvetica,sans-Serif" font-size="10.00">WebAppMgrProxy.cpp</text>
</a>
</g>
<!-- Node1&#45;&gt;Node20 -->
<g id="edge78" class="edge"><title>Node1&#45;&gt;Node20</title>
<path fill="none" stroke="midnightblue" d="M1173.8,-182.457C1043.08,-175.976 708.844,-157.94 599,-138 522.768,-124.162 436.003,-95.2622 391.959,-79.6138"/>
<polygon fill="midnightblue" stroke="midnightblue" points="1173.8,-185.961 1183.96,-182.957 1174.15,-178.969 1173.8,-185.961"/>
</g>
<!-- Node21 -->
<g id="node48" class="node"><title>Node21</title>
<a xlink:href="DockModeWindow_8h.htm" target="_top" xlink:title="DockModeWindow.h">
<polygon fill="white" stroke="black" points="607.5,-116.5 607.5,-137.5 720.5,-137.5 720.5,-116.5 607.5,-116.5"/>
<text text-anchor="middle" x="664" y="-124.5" font-family="Helvetica,sans-Serif" font-size="10.00">DockModeWindow.h</text>
</a>
</g>
<!-- Node1&#45;&gt;Node21 -->
<g id="edge54" class="edge"><title>Node1&#45;&gt;Node21</title>
<path fill="none" stroke="midnightblue" d="M1173.58,-179.497C1067.27,-168.545 830.057,-144.107 720.93,-132.865"/>
<polygon fill="midnightblue" stroke="midnightblue" points="1173.45,-183.002 1183.76,-180.545 1174.17,-176.039 1173.45,-183.002"/>
</g>
<!-- Node27 -->
<g id="node62" class="node"><title>Node27</title>
<a xlink:href="EmergencyWindowManager_8cpp.htm" target="_top" xlink:title="EmergencyWindowManager.cpp">
<polygon fill="white" stroke="black" points="1685,-116.5 1685,-137.5 1855,-137.5 1855,-116.5 1685,-116.5"/>
<text text-anchor="middle" x="1770" y="-124.5" font-family="Helvetica,sans-Serif" font-size="10.00">EmergencyWindowManager.cpp</text>
</a>
</g>
<!-- Node1&#45;&gt;Node27 -->
<g id="edge70" class="edge"><title>Node1&#45;&gt;Node27</title>
<path fill="none" stroke="midnightblue" d="M1280.12,-179.652C1364.17,-171.141 1532.98,-153.853 1676,-138 1678.94,-137.674 1681.93,-137.34 1684.95,-137"/>
<polygon fill="midnightblue" stroke="midnightblue" points="1279.65,-176.181 1270.05,-180.67 1280.35,-183.146 1279.65,-176.181"/>
</g>
<!-- Node28 -->
<g id="node64" class="node"><title>Node28</title>
<a xlink:href="LockWindow_8cpp.htm" target="_top" xlink:title="LockWindow.cpp">
<polygon fill="white" stroke="black" points="1873,-116.5 1873,-137.5 1969,-137.5 1969,-116.5 1873,-116.5"/>
<text text-anchor="middle" x="1921" y="-124.5" font-family="Helvetica,sans-Serif" font-size="10.00">LockWindow.cpp</text>
</a>
</g>
<!-- Node1&#45;&gt;Node28 -->
<g id="edge72" class="edge"><title>Node1&#45;&gt;Node28</title>
<path fill="none" stroke="midnightblue" d="M1280.18,-183.18C1389.8,-178.966 1648.63,-166.627 1864,-138 1866.9,-137.615 1869.87,-137.176 1872.86,-136.7"/>
<polygon fill="midnightblue" stroke="midnightblue" points="1279.91,-179.687 1270.05,-183.562 1280.17,-186.682 1279.91,-179.687"/>
</g>
<!-- Node29 -->
<g id="node66" class="node"><title>Node29</title>
<a xlink:href="WindowServerLuna_8cpp.htm" target="_top" xlink:title="WindowServerLuna.cpp">
<polygon fill="white" stroke="black" points="1987,-116.5 1987,-137.5 2115,-137.5 2115,-116.5 1987,-116.5"/>
<text text-anchor="middle" x="2051" y="-124.5" font-family="Helvetica,sans-Serif" font-size="10.00">WindowServerLuna.cpp</text>
</a>
</g>
<!-- Node1&#45;&gt;Node29 -->
<g id="edge74" class="edge"><title>Node1&#45;&gt;Node29</title>
<path fill="none" stroke="midnightblue" d="M1280.58,-183.249C1403.92,-178.869 1717.35,-165.741 1978,-138 1980.93,-137.688 1983.93,-137.343 1986.95,-136.974"/>
<polygon fill="midnightblue" stroke="midnightblue" points="1280.16,-179.762 1270.29,-183.61 1280.41,-186.758 1280.16,-179.762"/>
</g>
<!-- Node30 -->
<g id="node68" class="node"><title>Node30</title>
<a xlink:href="WindowManagerMinimal_8cpp.htm" target="_top" xlink:title="WindowManagerMinimal.cpp">
<polygon fill="white" stroke="black" points="2133,-116.5 2133,-137.5 2285,-137.5 2285,-116.5 2133,-116.5"/>
<text text-anchor="middle" x="2209" y="-124.5" font-family="Helvetica,sans-Serif" font-size="10.00">WindowManagerMinimal.cpp</text>
</a>
</g>
<!-- Node1&#45;&gt;Node30 -->
<g id="edge76" class="edge"><title>Node1&#45;&gt;Node30</title>
<path fill="none" stroke="midnightblue" d="M1280.4,-183.625C1419.54,-179.733 1804.63,-166.99 2124,-138 2126.82,-137.744 2129.68,-137.466 2132.57,-137.17"/>
<polygon fill="midnightblue" stroke="midnightblue" points="1279.93,-180.136 1270.03,-183.911 1280.12,-187.134 1279.93,-180.136"/>
</g>
<!-- Node5 -->
<g id="node9" class="node"><title>Node5</title>
<a xlink:href="CardGroup_8cpp.htm" target="_top" xlink:title="CardGroup.cpp">
<polygon fill="white" stroke="black" points="1283.5,-58.5 1283.5,-79.5 1372.5,-79.5 1372.5,-58.5 1283.5,-58.5"/>
<text text-anchor="middle" x="1328" y="-66.5" font-family="Helvetica,sans-Serif" font-size="10.00">CardGroup.cpp</text>
</a>
</g>
<!-- Node4&#45;&gt;Node5 -->
<g id="edge8" class="edge"><title>Node4&#45;&gt;Node5</title>
<path fill="none" stroke="midnightblue" d="M1254.2,-111.379C1271.75,-101.301 1294.11,-88.4624 1309.59,-79.5707"/>
<polygon fill="midnightblue" stroke="midnightblue" points="1252.45,-108.347 1245.52,-116.362 1255.94,-114.417 1252.45,-108.347"/>
</g>
<!-- Node4&#45;&gt;Node6 -->
<g id="edge10" class="edge"><title>Node4&#45;&gt;Node6</title>
<path fill="none" stroke="midnightblue" d="M1187.11,-113.144C1157.39,-102.823 1117.42,-88.9439 1090.3,-79.5231"/>
<polygon fill="midnightblue" stroke="midnightblue" points="1186.16,-116.522 1196.76,-116.497 1188.46,-109.909 1186.16,-116.522"/>
</g>
<!-- Node4&#45;&gt;Node7 -->
<g id="edge12" class="edge"><title>Node4&#45;&gt;Node7</title>
<path fill="none" stroke="midnightblue" d="M1216.51,-107.373C1211.54,-98.0682 1205.79,-87.3204 1201.65,-79.5707"/>
<polygon fill="midnightblue" stroke="midnightblue" points="1213.51,-109.192 1221.31,-116.362 1219.69,-105.893 1213.51,-109.192"/>
</g>
<!-- Node4&#45;&gt;Node8 -->
<g id="edge14" class="edge"><title>Node4&#45;&gt;Node8</title>
<path fill="none" stroke="midnightblue" d="M1275.52,-115.653C1320.26,-105.19 1386.15,-89.7792 1429.8,-79.5707"/>
<polygon fill="midnightblue" stroke="midnightblue" points="1274.69,-112.252 1265.75,-117.938 1276.28,-119.068 1274.69,-112.252"/>
</g>
<!-- Node10 -->
<g id="node19" class="node"><title>Node10</title>
<a xlink:href="CardHostWindow_8cpp.htm" target="_top" xlink:title="CardHostWindow.cpp">
<polygon fill="white" stroke="black" points="1577.5,-58.5 1577.5,-79.5 1696.5,-79.5 1696.5,-58.5 1577.5,-58.5"/>
<text text-anchor="middle" x="1637" y="-66.5" font-family="Helvetica,sans-Serif" font-size="10.00">CardHostWindow.cpp</text>
</a>
</g>
<!-- Node9&#45;&gt;Node10 -->
<g id="edge18" class="edge"><title>Node9&#45;&gt;Node10</title>
<path fill="none" stroke="midnightblue" d="M1431.41,-114.339C1478.67,-103.916 1544.89,-89.3126 1589.28,-79.5231"/>
<polygon fill="midnightblue" stroke="midnightblue" points="1430.64,-110.925 1421.63,-116.497 1432.15,-117.761 1430.64,-110.925"/>
</g>
<!-- Node11 -->
<g id="node21" class="node"><title>Node11</title>
<a xlink:href="QtHostWindow_8h.htm" target="_top" xlink:title="QtHostWindow.h">
<polygon fill="white" stroke="black" points="1713.5,-58.5 1713.5,-79.5 1808.5,-79.5 1808.5,-58.5 1713.5,-58.5"/>
<text text-anchor="middle" x="1761" y="-66.5" font-family="Helvetica,sans-Serif" font-size="10.00">QtHostWindow.h</text>
</a>
</g>
<!-- Node9&#45;&gt;Node11 -->
<g id="edge20" class="edge"><title>Node9&#45;&gt;Node11</title>
<path fill="none" stroke="midnightblue" d="M1437.99,-115.74C1556.94,-97.5626 1589.24,-99.0969 1705,-80 1707.74,-79.5484 1710.55,-79.0641 1713.38,-78.5594"/>
<polygon fill="midnightblue" stroke="midnightblue" points="1437.09,-112.336 1427.75,-117.32 1438.16,-119.254 1437.09,-112.336"/>
</g>
<!-- Node13 -->
<g id="node25" class="node"><title>Node13</title>
<a xlink:href="IpcClientHost_8cpp.htm" target="_top" xlink:title="IpcClientHost.cpp">
<polygon fill="white" stroke="black" points="1786.5,-0.5 1786.5,-21.5 1885.5,-21.5 1885.5,-0.5 1786.5,-0.5"/>
<text text-anchor="middle" x="1836" y="-8.5" font-family="Helvetica,sans-Serif" font-size="10.00">IpcClientHost.cpp</text>
</a>
</g>
<!-- Node9&#45;&gt;Node13 -->
<g id="edge26" class="edge"><title>Node9&#45;&gt;Node13</title>
<path fill="none" stroke="midnightblue" d="M1437.69,-116.042C1535.91,-106.521 1754.08,-132.798 1817,-80 1834.23,-65.5438 1836.59,-37.037 1836.5,-21.5745"/>
<polygon fill="midnightblue" stroke="midnightblue" points="1437.26,-112.568 1427.73,-117.192 1438.06,-119.522 1437.26,-112.568"/>
</g>
<!-- Node12 -->
<g id="node23" class="node"><title>Node12</title>
<a xlink:href="QtHostWindow_8cpp.htm" target="_top" xlink:title="QtHostWindow.cpp">
<polygon fill="white" stroke="black" points="1662.5,-0.5 1662.5,-21.5 1769.5,-21.5 1769.5,-0.5 1662.5,-0.5"/>
<text text-anchor="middle" x="1716" y="-8.5" font-family="Helvetica,sans-Serif" font-size="10.00">QtHostWindow.cpp</text>
</a>
</g>
<!-- Node11&#45;&gt;Node12 -->
<g id="edge22" class="edge"><title>Node11&#45;&gt;Node12</title>
<path fill="none" stroke="midnightblue" d="M1746.45,-50.2504C1739.08,-40.75 1730.4,-29.5651 1724.2,-21.5707"/>
<polygon fill="midnightblue" stroke="midnightblue" points="1743.85,-52.6065 1752.75,-58.3619 1749.38,-48.3155 1743.85,-52.6065"/>
</g>
<!-- Node11&#45;&gt;Node13 -->
<g id="edge24" class="edge"><title>Node11&#45;&gt;Node13</title>
<path fill="none" stroke="midnightblue" d="M1783.01,-51.9753C1795.74,-42.1315 1811.36,-30.0545 1822.33,-21.5707"/>
<polygon fill="midnightblue" stroke="midnightblue" points="1780.53,-49.4757 1774.76,-58.3619 1784.81,-55.0131 1780.53,-49.4757"/>
</g>
<!-- Node16&#45;&gt;Node6 -->
<g id="edge36" class="edge"><title>Node16&#45;&gt;Node6</title>
<path fill="none" stroke="midnightblue" d="M1083.33,-107.667C1077.68,-98.2948 1071.1,-87.4019 1066.38,-79.5707"/>
<polygon fill="midnightblue" stroke="midnightblue" points="1080.42,-109.608 1088.58,-116.362 1086.41,-105.992 1080.42,-109.608"/>
</g>
<!-- Node16&#45;&gt;Node7 -->
<g id="edge38" class="edge"><title>Node16&#45;&gt;Node7</title>
<path fill="none" stroke="midnightblue" d="M1122.2,-111.379C1139.75,-101.301 1162.11,-88.4624 1177.59,-79.5707"/>
<polygon fill="midnightblue" stroke="midnightblue" points="1120.45,-108.347 1113.52,-116.362 1123.94,-114.417 1120.45,-108.347"/>
</g>
<!-- Node17 -->
<g id="node37" class="node"><title>Node17</title>
<a xlink:href="GhostCard_8cpp.htm" target="_top" xlink:title="GhostCard.cpp">
<polygon fill="white" stroke="black" points="906,-58.5 906,-79.5 994,-79.5 994,-58.5 906,-58.5"/>
<text text-anchor="middle" x="950" y="-66.5" font-family="Helvetica,sans-Serif" font-size="10.00">GhostCard.cpp</text>
</a>
</g>
<!-- Node16&#45;&gt;Node17 -->
<g id="edge40" class="edge"><title>Node16&#45;&gt;Node17</title>
<path fill="none" stroke="midnightblue" d="M1059.38,-112.751C1033.77,-102.509 999.801,-88.9206 976.553,-79.6212"/>
<polygon fill="midnightblue" stroke="midnightblue" points="1058.16,-116.032 1068.74,-116.497 1060.76,-109.533 1058.16,-116.032"/>
</g>
<!-- Node18&#45;&gt;Node3 -->
<g id="edge48" class="edge"><title>Node18&#45;&gt;Node3</title>
<path fill="none" stroke="midnightblue" d="M298.525,-114.535C244.549,-104.099 168.383,-89.374 117.43,-79.5231"/>
<polygon fill="midnightblue" stroke="midnightblue" points="298.19,-118.035 308.672,-116.497 299.518,-111.162 298.19,-118.035"/>
</g>
<!-- Node19 -->
<g id="node44" class="node"><title>Node19</title>
<a xlink:href="EmulatedCardWindow_8cpp.htm" target="_top" xlink:title="EmulatedCardWindow.cpp">
<polygon fill="white" stroke="black" points="144,-58.5 144,-79.5 284,-79.5 284,-58.5 144,-58.5"/>
<text text-anchor="middle" x="214" y="-66.5" font-family="Helvetica,sans-Serif" font-size="10.00">EmulatedCardWindow.cpp</text>
</a>
</g>
<!-- Node18&#45;&gt;Node19 -->
<g id="edge50" class="edge"><title>Node18&#45;&gt;Node19</title>
<path fill="none" stroke="midnightblue" d="M326.363,-112.739C299.962,-102.462 264.92,-88.821 241.033,-79.5231"/>
<polygon fill="midnightblue" stroke="midnightblue" points="325.429,-116.131 336.017,-116.497 327.968,-109.607 325.429,-116.131"/>
</g>
<!-- Node18&#45;&gt;Node20 -->
<g id="edge52" class="edge"><title>Node18&#45;&gt;Node20</title>
<path fill="none" stroke="midnightblue" d="M363,-106.191C363,-97.1684 363,-86.9941 363,-79.5707"/>
<polygon fill="midnightblue" stroke="midnightblue" points="359.5,-106.362 363,-116.362 366.5,-106.362 359.5,-106.362"/>
</g>
<!-- Node21&#45;&gt;Node20 -->
<g id="edge68" class="edge"><title>Node21&#45;&gt;Node20</title>
<path fill="none" stroke="midnightblue" d="M599.648,-114.6C545.472,-104.161 468.84,-89.3945 417.611,-79.5231"/>
<polygon fill="midnightblue" stroke="midnightblue" points="599.01,-118.041 609.491,-116.497 600.334,-111.168 599.01,-118.041"/>
</g>
<!-- Node22 -->
<g id="node50" class="node"><title>Node22</title>
<a xlink:href="DockModeClock_8h.htm" target="_top" xlink:title="DockModeClock.h">
<polygon fill="white" stroke="black" points="786,-58.5 786,-79.5 888,-79.5 888,-58.5 786,-58.5"/>
<text text-anchor="middle" x="837" y="-66.5" font-family="Helvetica,sans-Serif" font-size="10.00">DockModeClock.h</text>
</a>
</g>
<!-- Node21&#45;&gt;Node22 -->
<g id="edge56" class="edge"><title>Node21&#45;&gt;Node22</title>
<path fill="none" stroke="midnightblue" d="M704.927,-113.279C735.754,-102.944 777.39,-88.9849 805.612,-79.5231"/>
<polygon fill="midnightblue" stroke="midnightblue" points="703.698,-109.999 695.329,-116.497 705.923,-116.636 703.698,-109.999"/>
</g>
<!-- Node24 -->
<g id="node54" class="node"><title>Node24</title>
<a xlink:href="DockModeWindowManager_8cpp.htm" target="_top" xlink:title="DockModeWindowManager.cpp">
<polygon fill="white" stroke="black" points="482.5,-0.5 482.5,-21.5 649.5,-21.5 649.5,-0.5 482.5,-0.5"/>
<text text-anchor="middle" x="566" y="-8.5" font-family="Helvetica,sans-Serif" font-size="10.00">DockModeWindowManager.cpp</text>
</a>
</g>
<!-- Node21&#45;&gt;Node24 -->
<g id="edge66" class="edge"><title>Node21&#45;&gt;Node24</title>
<path fill="none" stroke="midnightblue" d="M597.225,-119.517C547.873,-112.45 486.647,-99.915 471,-80 450.598,-54.0335 494.06,-33.2997 528.729,-21.5743"/>
<polygon fill="midnightblue" stroke="midnightblue" points="596.853,-122.998 607.238,-120.9 597.811,-116.064 596.853,-122.998"/>
</g>
<!-- Node25 -->
<g id="node56" class="node"><title>Node25</title>
<a xlink:href="DockModeLaunchPoint_8cpp.htm" target="_top" xlink:title="DockModeLaunchPoint.cpp">
<polygon fill="white" stroke="black" points="480,-58.5 480,-79.5 626,-79.5 626,-58.5 480,-58.5"/>
<text text-anchor="middle" x="553" y="-66.5" font-family="Helvetica,sans-Serif" font-size="10.00">DockModeLaunchPoint.cpp</text>
</a>
</g>
<!-- Node21&#45;&gt;Node25 -->
<g id="edge62" class="edge"><title>Node21&#45;&gt;Node25</title>
<path fill="none" stroke="midnightblue" d="M634.899,-111.794C615.532,-101.675 590.575,-88.6338 573.327,-79.6212"/>
<polygon fill="midnightblue" stroke="midnightblue" points="633.415,-114.968 643.899,-116.497 636.657,-108.763 633.415,-114.968"/>
</g>
<!-- Node26 -->
<g id="node58" class="node"><title>Node26</title>
<a xlink:href="DockModeWindow_8cpp.htm" target="_top" xlink:title="DockModeWindow.cpp">
<polygon fill="white" stroke="black" points="643.5,-58.5 643.5,-79.5 768.5,-79.5 768.5,-58.5 643.5,-58.5"/>
<text text-anchor="middle" x="706" y="-66.5" font-family="Helvetica,sans-Serif" font-size="10.00">DockModeWindow.cpp</text>
</a>
</g>
<!-- Node21&#45;&gt;Node26 -->
<g id="edge64" class="edge"><title>Node21&#45;&gt;Node26</title>
<path fill="none" stroke="midnightblue" d="M677.577,-108.25C684.457,-98.75 692.556,-87.5651 698.345,-79.5707"/>
<polygon fill="midnightblue" stroke="midnightblue" points="674.734,-106.21 671.703,-116.362 680.403,-110.315 674.734,-106.21"/>
</g>
<!-- Node23 -->
<g id="node52" class="node"><title>Node23</title>
<a xlink:href="DockModeClock_8cpp.htm" target="_top" xlink:title="DockModeClock.cpp">
<polygon fill="white" stroke="black" points="780.5,-0.5 780.5,-21.5 893.5,-21.5 893.5,-0.5 780.5,-0.5"/>
<text text-anchor="middle" x="837" y="-8.5" font-family="Helvetica,sans-Serif" font-size="10.00">DockModeClock.cpp</text>
</a>
</g>
<!-- Node22&#45;&gt;Node23 -->
<g id="edge58" class="edge"><title>Node22&#45;&gt;Node23</title>
<path fill="none" stroke="midnightblue" d="M837,-48.1906C837,-39.1684 837,-28.9941 837,-21.5707"/>
<polygon fill="midnightblue" stroke="midnightblue" points="833.5,-48.3619 837,-58.3619 840.5,-48.3619 833.5,-48.3619"/>
</g>
<!-- Node22&#45;&gt;Node24 -->
<g id="edge60" class="edge"><title>Node22&#45;&gt;Node24</title>
<path fill="none" stroke="midnightblue" d="M777.843,-56.3391C729.142,-45.9159 660.909,-31.3126 615.168,-21.5231"/>
<polygon fill="midnightblue" stroke="midnightblue" points="777.413,-59.8262 787.924,-58.4966 778.878,-52.9812 777.413,-59.8262"/>
</g>
</g>
</svg>
