<?xml version="1.0" encoding="UTF-8" standalone="no"?>
<!DOCTYPE svg PUBLIC "-//W3C//DTD SVG 1.1//EN"
 "http://www.w3.org/Graphics/SVG/1.1/DTD/svg11.dtd">
<!-- Generated by graphviz version 2.26.3 (20100126.1600)
 -->
<!-- Title: G Pages: 1 -->
<svg width="2114pt" height="378pt"
 viewBox="0.00 0.00 2114.00 378.00" xmlns="http://www.w3.org/2000/svg" xmlns:xlink="http://www.w3.org/1999/xlink">
<g id="graph1" class="graph" transform="scale(1 1) rotate(0) translate(4 374)">
<title>G</title>
<polygon fill="white" stroke="white" points="-4,5 -4,-374 2111,-374 2111,5 -4,5"/>
<!-- Node1 -->
<g id="node1" class="node"><title>Node1</title>
<polygon fill="#bfbfbf" stroke="black" points="1878.5,-348.5 1878.5,-369.5 1967.5,-369.5 1967.5,-348.5 1878.5,-348.5"/>
<text text-anchor="middle" x="1923" y="-356.5" font-family="Helvetica,sans-Serif" font-size="10.00">CardGroup.cpp</text>
</g>
<!-- Node2 -->
<g id="node3" class="node"><title>Node2</title>
<a xlink:href="Common_8h.htm" target="_top" xlink:title="Common.h">
<polygon fill="white" stroke="black" points="1042.5,-0.5 1042.5,-21.5 1109.5,-21.5 1109.5,-0.5 1042.5,-0.5"/>
<text text-anchor="middle" x="1076" y="-8.5" font-family="Helvetica,sans-Serif" font-size="10.00">Common.h</text>
</a>
</g>
<!-- Node1&#45;&gt;Node2 -->
<g id="edge2" class="edge"><title>Node1&#45;&gt;Node2</title>
<path fill="none" stroke="midnightblue" d="M1925.91,-348.201C1933.63,-316.943 1951.12,-225.352 1907,-174 1889.44,-153.559 1719.85,-65.6362 1694,-58 1586.09,-26.1144 1241.99,-14.9578 1119.67,-11.9424"/>
<polygon fill="midnightblue" stroke="midnightblue" points="1119.64,-8.44054 1109.55,-11.6991 1119.47,-15.4385 1119.64,-8.44054"/>
</g>
<!-- Node3 -->
<g id="node5" class="node"><title>Node3</title>
<a xlink:href="CardGroup_8h.htm" target="_top" xlink:title="CardGroup.h">
<polygon fill="white" stroke="black" points="188.505,-290.5 188.505,-311.5 265.505,-311.5 265.505,-290.5 188.505,-290.5"/>
<text text-anchor="middle" x="227.005" y="-298.5" font-family="Helvetica,sans-Serif" font-size="10.00">CardGroup.h</text>
</a>
</g>
<!-- Node1&#45;&gt;Node3 -->
<g id="edge4" class="edge"><title>Node1&#45;&gt;Node3</title>
<path fill="none" stroke="midnightblue" d="M1878.08,-357.464C1639.61,-349.308 523.599,-311.143 275.821,-302.669"/>
<polygon fill="midnightblue" stroke="midnightblue" points="275.801,-299.167 265.687,-302.323 275.562,-306.163 275.801,-299.167"/>
</g>
<!-- Node10 -->
<g id="node21" class="node"><title>Node10</title>
<a xlink:href="Settings_8h.htm" target="_top" xlink:title="Settings.h">
<polygon fill="white" stroke="black" points="1530.5,-116.5 1530.5,-137.5 1593.5,-137.5 1593.5,-116.5 1530.5,-116.5"/>
<text text-anchor="middle" x="1562" y="-124.5" font-family="Helvetica,sans-Serif" font-size="10.00">Settings.h</text>
</a>
</g>
<!-- Node1&#45;&gt;Node10 -->
<g id="edge138" class="edge"><title>Node1&#45;&gt;Node10</title>
<path fill="none" stroke="midnightblue" d="M1924.56,-348.262C1928.51,-316.369 1935.33,-221.479 1885,-174 1864.82,-154.957 1686.43,-137.54 1603.75,-130.409"/>
<polygon fill="midnightblue" stroke="midnightblue" points="1603.95,-126.913 1593.69,-129.551 1603.35,-133.888 1603.95,-126.913"/>
</g>
<!-- Node44 -->
<g id="node110" class="node"><title>Node44</title>
<polygon fill="white" stroke="#bfbfbf" points="1764,-174.5 1764,-195.5 1876,-195.5 1876,-174.5 1764,-174.5"/>
<text text-anchor="middle" x="1820" y="-182.5" font-family="Helvetica,sans-Serif" font-size="10.00">QPropertyAnimation</text>
</g>
<!-- Node1&#45;&gt;Node44 -->
<g id="edge156" class="edge"><title>Node1&#45;&gt;Node44</title>
<path fill="none" stroke="midnightblue" d="M1915.06,-348.397C1908.16,-339.015 1898.03,-324.856 1890,-312 1866.94,-275.044 1843.08,-230.026 1830.03,-204.728"/>
<polygon fill="midnightblue" stroke="midnightblue" points="1833.11,-203.063 1825.43,-195.76 1826.88,-206.256 1833.11,-203.063"/>
</g>
<!-- Node46 -->
<g id="node116" class="node"><title>Node46</title>
<a xlink:href="AnimationSettings_8h.htm" target="_top" xlink:title="AnimationSettings.h">
<polygon fill="white" stroke="black" points="1864,-116.5 1864,-137.5 1974,-137.5 1974,-116.5 1864,-116.5"/>
<text text-anchor="middle" x="1919" y="-124.5" font-family="Helvetica,sans-Serif" font-size="10.00">AnimationSettings.h</text>
</a>
</g>
<!-- Node1&#45;&gt;Node46 -->
<g id="edge140" class="edge"><title>Node1&#45;&gt;Node46</title>
<path fill="none" stroke="midnightblue" d="M1933.3,-348.475C1941.22,-339.58 1951.56,-326.07 1956,-312 1974.49,-253.517 1976.08,-231.955 1956,-174 1952.28,-163.255 1944.98,-153.103 1937.83,-145.003"/>
<polygon fill="midnightblue" stroke="midnightblue" points="1940.29,-142.508 1930.88,-137.64 1935.2,-147.314 1940.29,-142.508"/>
</g>
<!-- Node50 -->
<g id="node129" class="node"><title>Node50</title>
<polygon fill="white" stroke="#bfbfbf" points="2008,-290.5 2008,-311.5 2106,-311.5 2106,-290.5 2008,-290.5"/>
<text text-anchor="middle" x="2057" y="-298.5" font-family="Helvetica,sans-Serif" font-size="10.00">QGraphicsScene</text>
</g>
<!-- Node1&#45;&gt;Node50 -->
<g id="edge158" class="edge"><title>Node1&#45;&gt;Node50</title>
<path fill="none" stroke="midnightblue" d="M1947.27,-348.497C1968.48,-339.315 1999.5,-325.889 2023.15,-315.652"/>
<polygon fill="midnightblue" stroke="midnightblue" points="2024.68,-318.806 2032.47,-311.621 2021.9,-312.381 2024.68,-318.806"/>
</g>
<!-- Node3&#45;&gt;Node2 -->
<g id="edge6" class="edge"><title>Node3&#45;&gt;Node2</title>
<path fill="none" stroke="midnightblue" d="M232.474,-290.448C242.317,-270.444 262.005,-225.388 262.005,-185 262.005,-185 262.005,-185 262.005,-127 262.005,-87.2228 283.562,-76.0563 319.005,-58 334.99,-49.8563 872.653,-21.5021 1031.96,-13.262"/>
<polygon fill="midnightblue" stroke="midnightblue" points="1032.52,-16.7376 1042.33,-12.7263 1032.16,-9.74689 1032.52,-16.7376"/>
</g>
<!-- Node4 -->
<g id="node8" class="node"><title>Node4</title>
<polygon fill="white" stroke="#bfbfbf" points="18.005,-232.5 18.005,-253.5 74.005,-253.5 74.005,-232.5 18.005,-232.5"/>
<text text-anchor="middle" x="46.005" y="-240.5" font-family="Helvetica,sans-Serif" font-size="10.00">QVector</text>
</g>
<!-- Node3&#45;&gt;Node4 -->
<g id="edge8" class="edge"><title>Node3&#45;&gt;Node4</title>
<path fill="none" stroke="midnightblue" d="M194.227,-290.497C163.114,-280.527 116.38,-265.551 83.7312,-255.089"/>
<polygon fill="midnightblue" stroke="midnightblue" points="84.6749,-251.716 74.0838,-251.998 82.5387,-258.382 84.6749,-251.716"/>
</g>
<!-- Node5 -->
<g id="node10" class="node"><title>Node5</title>
<polygon fill="white" stroke="#bfbfbf" points="91.505,-232.5 91.505,-253.5 132.505,-253.5 132.505,-232.5 91.505,-232.5"/>
<text text-anchor="middle" x="112.005" y="-240.5" font-family="Helvetica,sans-Serif" font-size="10.00">QList</text>
</g>
<!-- Node3&#45;&gt;Node5 -->
<g id="edge10" class="edge"><title>Node3&#45;&gt;Node5</title>
<path fill="none" stroke="midnightblue" d="M206.179,-290.497C188.187,-281.422 161.972,-268.201 141.767,-258.01"/>
<polygon fill="midnightblue" stroke="midnightblue" points="143.181,-254.803 132.676,-253.425 140.028,-261.053 143.181,-254.803"/>
</g>
<!-- Node6 -->
<g id="node12" class="node"><title>Node6</title>
<polygon fill="white" stroke="#bfbfbf" points="149.505,-232.5 149.505,-253.5 234.505,-253.5 234.505,-232.5 149.505,-232.5"/>
<text text-anchor="middle" x="192.005" y="-240.5" font-family="Helvetica,sans-Serif" font-size="10.00">QEasingCurve</text>
</g>
<!-- Node3&#45;&gt;Node6 -->
<g id="edge12" class="edge"><title>Node3&#45;&gt;Node6</title>
<path fill="none" stroke="midnightblue" d="M220.585,-290.362C215.849,-282.513 209.273,-271.616 203.623,-262.253"/>
<polygon fill="midnightblue" stroke="midnightblue" points="206.547,-260.324 198.384,-253.571 200.554,-263.941 206.547,-260.324"/>
</g>
<!-- Node7 -->
<g id="node14" class="node"><title>Node7</title>
<polygon fill="white" stroke="#bfbfbf" points="71.505,-116.5 71.505,-137.5 126.505,-137.5 126.505,-116.5 71.505,-116.5"/>
<text text-anchor="middle" x="99.005" y="-124.5" font-family="Helvetica,sans-Serif" font-size="10.00">QObject</text>
</g>
<!-- Node3&#45;&gt;Node7 -->
<g id="edge14" class="edge"><title>Node3&#45;&gt;Node7</title>
<path fill="none" stroke="midnightblue" d="M188.437,-298.36C131.985,-293.603 31.1376,-281.413 9.00498,-254 -21.8251,-215.815 36.3811,-167.893 72.8125,-143.266"/>
<polygon fill="midnightblue" stroke="midnightblue" points="75.1066,-145.947 81.5382,-137.527 71.26,-140.098 75.1066,-145.947"/>
</g>
<!-- Node8 -->
<g id="node16" class="node"><title>Node8</title>
<polygon fill="white" stroke="#bfbfbf" points="289.505,-232.5 289.505,-253.5 344.505,-253.5 344.505,-232.5 289.505,-232.5"/>
<text text-anchor="middle" x="317.005" y="-240.5" font-family="Helvetica,sans-Serif" font-size="10.00">QPointF</text>
</g>
<!-- Node3&#45;&gt;Node8 -->
<g id="edge16" class="edge"><title>Node3&#45;&gt;Node8</title>
<path fill="none" stroke="midnightblue" d="M243.512,-290.362C257.087,-281.614 276.538,-269.079 292.02,-259.101"/>
<polygon fill="midnightblue" stroke="midnightblue" points="294.092,-261.93 300.602,-253.571 290.301,-256.046 294.092,-261.93"/>
</g>
<!-- Node9 -->
<g id="node18" class="node"><title>Node9</title>
<a xlink:href="CardWindow_8h.htm" target="_top" xlink:title="CardWindow.h">
<polygon fill="white" stroke="black" points="961.005,-232.5 961.005,-253.5 1047,-253.5 1047,-232.5 961.005,-232.5"/>
<text text-anchor="middle" x="1004" y="-240.5" font-family="Helvetica,sans-Serif" font-size="10.00">CardWindow.h</text>
</a>
</g>
<!-- Node3&#45;&gt;Node9 -->
<g id="edge18" class="edge"><title>Node3&#45;&gt;Node9</title>
<path fill="none" stroke="midnightblue" d="M265.537,-298.124C393.376,-288.581 803.718,-257.951 950.866,-246.967"/>
<polygon fill="midnightblue" stroke="midnightblue" points="951.287,-250.445 960.998,-246.21 950.765,-243.464 951.287,-250.445"/>
</g>
<!-- Node9&#45;&gt;Node2 -->
<g id="edge20" class="edge"><title>Node9&#45;&gt;Node2</title>
<path fill="none" stroke="midnightblue" d="M1047.01,-241.77C1197.69,-237.255 1694.01,-220.564 1717,-196 1754.79,-155.638 1808.34,-159.091 1664,-58 1619.74,-26.9996 1248.77,-15.1686 1119.9,-11.9704"/>
<polygon fill="midnightblue" stroke="midnightblue" points="1119.7,-8.46467 1109.62,-11.721 1119.53,-15.4626 1119.7,-8.46467"/>
</g>
<!-- Node9&#45;&gt;Node10 -->
<g id="edge22" class="edge"><title>Node9&#45;&gt;Node10</title>
<path fill="none" stroke="midnightblue" d="M1047.37,-238.325C1094.31,-232.303 1170.8,-219.672 1233,-196 1251.24,-189.059 1252.57,-180.391 1271,-174 1374.47,-138.14 1409.68,-159.682 1520.34,-138.127"/>
<polygon fill="midnightblue" stroke="midnightblue" points="1521.11,-141.544 1530.22,-136.13 1519.72,-134.683 1521.11,-141.544"/>
</g>
<!-- Node16 -->
<g id="node34" class="node"><title>Node16</title>
<a xlink:href="Event_8h.htm" target="_top" xlink:title="Event.h">
<polygon fill="white" stroke="black" points="363.005,-116.5 363.005,-137.5 415.005,-137.5 415.005,-116.5 363.005,-116.5"/>
<text text-anchor="middle" x="389.005" y="-124.5" font-family="Helvetica,sans-Serif" font-size="10.00">Event.h</text>
</a>
</g>
<!-- Node9&#45;&gt;Node16 -->
<g id="edge36" class="edge"><title>Node9&#45;&gt;Node16</title>
<path fill="none" stroke="midnightblue" d="M960.922,-241.629C814.641,-236.77 344.838,-219.392 323.005,-196 305.678,-177.436 332.72,-156.382 357.236,-142.466"/>
<polygon fill="midnightblue" stroke="midnightblue" points="358.943,-145.521 366.067,-137.679 355.607,-139.367 358.943,-145.521"/>
</g>
<!-- Node23 -->
<g id="node52" class="node"><title>Node23</title>
<a xlink:href="HostWindow_8h.htm" target="_top" xlink:title="HostWindow.h">
<polygon fill="white" stroke="black" points="962.005,-174.5 962.005,-195.5 1046,-195.5 1046,-174.5 962.005,-174.5"/>
<text text-anchor="middle" x="1004" y="-182.5" font-family="Helvetica,sans-Serif" font-size="10.00">HostWindow.h</text>
</a>
</g>
<!-- Node9&#45;&gt;Node23 -->
<g id="edge58" class="edge"><title>Node9&#45;&gt;Node23</title>
<path fill="none" stroke="midnightblue" d="M1004,-232.362C1004,-224.922 1004,-214.743 1004,-205.728"/>
<polygon fill="midnightblue" stroke="midnightblue" points="1007.51,-205.571 1004,-195.571 1000.51,-205.571 1007.51,-205.571"/>
</g>
<!-- Node29 -->
<g id="node72" class="node"><title>Node29</title>
<a xlink:href="Timer_8h.htm" target="_top" xlink:title="Timer.h">
<polygon fill="white" stroke="black" points="433.005,-116.5 433.005,-137.5 485.005,-137.5 485.005,-116.5 433.005,-116.5"/>
<text text-anchor="middle" x="459.005" y="-124.5" font-family="Helvetica,sans-Serif" font-size="10.00">Timer.h</text>
</a>
</g>
<!-- Node9&#45;&gt;Node29 -->
<g id="edge86" class="edge"><title>Node9&#45;&gt;Node29</title>
<path fill="none" stroke="midnightblue" d="M961.005,-239.996C873.661,-233.538 678.394,-217.184 615.005,-196 596.496,-189.815 594.561,-182.522 577.005,-174 550.1,-160.94 518.584,-148.526 494.893,-139.74"/>
<polygon fill="midnightblue" stroke="midnightblue" points="495.849,-136.362 485.256,-136.205 493.439,-142.934 495.849,-136.362"/>
</g>
<!-- Node30 -->
<g id="node77" class="node"><title>Node30</title>
<polygon fill="white" stroke="#bfbfbf" points="1082,-174.5 1082,-195.5 1224,-195.5 1224,-174.5 1082,-174.5"/>
<text text-anchor="middle" x="1153" y="-182.5" font-family="Helvetica,sans-Serif" font-size="10.00">AppLaunchOptionsEvent.h</text>
</g>
<!-- Node9&#45;&gt;Node30 -->
<g id="edge94" class="edge"><title>Node9&#45;&gt;Node30</title>
<path fill="none" stroke="midnightblue" d="M1030.99,-232.497C1054.86,-223.205 1089.9,-209.565 1116.31,-199.283"/>
<polygon fill="midnightblue" stroke="midnightblue" points="1117.92,-202.412 1125.97,-195.523 1115.38,-195.889 1117.92,-202.412"/>
</g>
<!-- Node31 -->
<g id="node79" class="node"><title>Node31</title>
<a xlink:href="SystemUiController_8h.htm" target="_top" xlink:title="SystemUiController.h">
<polygon fill="white" stroke="red" points="624.005,-174.5 624.005,-195.5 740.005,-195.5 740.005,-174.5 624.005,-174.5"/>
<text text-anchor="middle" x="682.005" y="-182.5" font-family="Helvetica,sans-Serif" font-size="10.00">SystemUiController.h</text>
</a>
</g>
<!-- Node9&#45;&gt;Node31 -->
<g id="edge96" class="edge"><title>Node9&#45;&gt;Node31</title>
<path fill="none" stroke="midnightblue" d="M960.913,-235.238C906.907,-225.51 813.718,-208.725 750.042,-197.255"/>
<polygon fill="midnightblue" stroke="midnightblue" points="750.549,-193.79 740.087,-195.462 749.308,-200.679 750.549,-193.79"/>
</g>
<!-- Node37 -->
<g id="node96" class="node"><title>Node37</title>
<polygon fill="white" stroke="#bfbfbf" points="1280,-174.5 1280,-195.5 1436,-195.5 1436,-174.5 1280,-174.5"/>
<text text-anchor="middle" x="1358" y="-182.5" font-family="Helvetica,sans-Serif" font-size="10.00">QGraphicsSceneMouseEvent</text>
</g>
<!-- Node9&#45;&gt;Node37 -->
<g id="edge118" class="edge"><title>Node9&#45;&gt;Node37</title>
<path fill="none" stroke="midnightblue" d="M1047.06,-235.946C1105.84,-226.316 1212.08,-208.909 1283.82,-197.155"/>
<polygon fill="midnightblue" stroke="midnightblue" points="1284.4,-200.606 1293.7,-195.535 1283.27,-193.698 1284.4,-200.606"/>
</g>
<!-- Node38 -->
<g id="node98" class="node"><title>Node38</title>
<polygon fill="white" stroke="#bfbfbf" points="1453.5,-174.5 1453.5,-195.5 1534.5,-195.5 1534.5,-174.5 1453.5,-174.5"/>
<text text-anchor="middle" x="1494" y="-182.5" font-family="Helvetica,sans-Serif" font-size="10.00">QTouchEvent</text>
</g>
<!-- Node9&#45;&gt;Node38 -->
<g id="edge120" class="edge"><title>Node9&#45;&gt;Node38</title>
<path fill="none" stroke="midnightblue" d="M1047.11,-240.056C1124.59,-234.405 1292.67,-220.52 1443.52,-196.108"/>
<polygon fill="midnightblue" stroke="midnightblue" points="1444.13,-199.555 1453.43,-194.484 1443,-192.647 1444.13,-199.555"/>
</g>
<!-- Node39 -->
<g id="node100" class="node"><title>Node39</title>
<polygon fill="white" stroke="#bfbfbf" points="1552,-174.5 1552,-195.5 1632,-195.5 1632,-174.5 1552,-174.5"/>
<text text-anchor="middle" x="1592" y="-182.5" font-family="Helvetica,sans-Serif" font-size="10.00">QPainterPath</text>
</g>
<!-- Node9&#45;&gt;Node39 -->
<g id="edge122" class="edge"><title>Node9&#45;&gt;Node39</title>
<path fill="none" stroke="midnightblue" d="M1047.21,-241.198C1137.36,-237.014 1352.19,-224.841 1541.82,-196.008"/>
<polygon fill="midnightblue" stroke="midnightblue" points="1542.63,-199.426 1551.98,-194.444 1541.56,-192.507 1542.63,-199.426"/>
</g>
<!-- Node40 -->
<g id="node102" class="node"><title>Node40</title>
<polygon fill="white" stroke="#bfbfbf" points="1649.5,-174.5 1649.5,-195.5 1708.5,-195.5 1708.5,-174.5 1649.5,-174.5"/>
<text text-anchor="middle" x="1679" y="-182.5" font-family="Helvetica,sans-Serif" font-size="10.00">QPainter</text>
</g>
<!-- Node9&#45;&gt;Node40 -->
<g id="edge124" class="edge"><title>Node9&#45;&gt;Node40</title>
<path fill="none" stroke="midnightblue" d="M1047.21,-240.987C1167.91,-235.181 1507.83,-217.547 1639.08,-196"/>
<polygon fill="midnightblue" stroke="midnightblue" points="1640.01,-199.39 1649.27,-194.241 1638.82,-192.492 1640.01,-199.39"/>
</g>
<!-- Node41 -->
<g id="node104" class="node"><title>Node41</title>
<polygon fill="white" stroke="#bfbfbf" points="331.505,-174.5 331.505,-195.5 400.505,-195.5 400.505,-174.5 331.505,-174.5"/>
<text text-anchor="middle" x="366.005" y="-182.5" font-family="Helvetica,sans-Serif" font-size="10.00">QVector3D</text>
</g>
<!-- Node9&#45;&gt;Node41 -->
<g id="edge126" class="edge"><title>Node9&#45;&gt;Node41</title>
<path fill="none" stroke="midnightblue" d="M960.764,-242.122C863.766,-239.61 621.429,-230.305 410.643,-196.051"/>
<polygon fill="midnightblue" stroke="midnightblue" points="411.066,-192.574 400.63,-194.401 409.928,-199.481 411.066,-192.574"/>
</g>
<!-- Node42 -->
<g id="node106" class="node"><title>Node42</title>
<polygon fill="white" stroke="#bfbfbf" points="418.005,-174.5 418.005,-195.5 492.005,-195.5 492.005,-174.5 418.005,-174.5"/>
<text text-anchor="middle" x="455.005" y="-182.5" font-family="Helvetica,sans-Serif" font-size="10.00">QTransform</text>
</g>
<!-- Node9&#45;&gt;Node42 -->
<g id="edge128" class="edge"><title>Node9&#45;&gt;Node42</title>
<path fill="none" stroke="midnightblue" d="M960.679,-241.021C874.888,-236.655 677.253,-224.381 501.986,-195.968"/>
<polygon fill="midnightblue" stroke="midnightblue" points="502.505,-192.507 492.07,-194.34 501.371,-199.414 502.505,-192.507"/>
</g>
<!-- Node43 -->
<g id="node108" class="node"><title>Node43</title>
<polygon fill="white" stroke="#bfbfbf" points="509.505,-174.5 509.505,-195.5 568.505,-195.5 568.505,-174.5 509.505,-174.5"/>
<text text-anchor="middle" x="539.005" y="-182.5" font-family="Helvetica,sans-Serif" font-size="10.00">QPointer</text>
</g>
<!-- Node9&#45;&gt;Node43 -->
<g id="edge130" class="edge"><title>Node9&#45;&gt;Node43</title>
<path fill="none" stroke="midnightblue" d="M960.887,-240.193C884.196,-234.759 719.243,-221.07 582.005,-196 580.944,-195.806 579.87,-195.601 578.788,-195.385"/>
<polygon fill="midnightblue" stroke="midnightblue" points="579.477,-191.953 568.96,-193.231 577.979,-198.791 579.477,-191.953"/>
</g>
<!-- Node9&#45;&gt;Node44 -->
<g id="edge132" class="edge"><title>Node9&#45;&gt;Node44</title>
<path fill="none" stroke="midnightblue" d="M1047.02,-241.689C1161.59,-237.896 1483.63,-225.257 1750,-196 1751.28,-195.86 1752.56,-195.714 1753.86,-195.561"/>
<polygon fill="midnightblue" stroke="midnightblue" points="1754.42,-199.017 1763.9,-194.286 1753.54,-192.073 1754.42,-199.017"/>
</g>
<!-- Node45 -->
<g id="node112" class="node"><title>Node45</title>
<a xlink:href="CardRoundedCornerShaderStage_8h.htm" target="_top" xlink:title="CardRoundedCornerShaderStage.h">
<polygon fill="white" stroke="black" points="758.005,-174.5 758.005,-195.5 944.005,-195.5 944.005,-174.5 758.005,-174.5"/>
<text text-anchor="middle" x="851.005" y="-182.5" font-family="Helvetica,sans-Serif" font-size="10.00">CardRoundedCornerShaderStage.h</text>
</a>
</g>
<!-- Node9&#45;&gt;Node45 -->
<g id="edge134" class="edge"><title>Node9&#45;&gt;Node45</title>
<path fill="none" stroke="midnightblue" d="M976.298,-232.497C951.679,-223.164 915.488,-209.445 888.325,-199.147"/>
<polygon fill="midnightblue" stroke="midnightblue" points="889.355,-195.795 878.764,-195.523 886.874,-202.341 889.355,-195.795"/>
</g>
<!-- Node10&#45;&gt;Node2 -->
<g id="edge24" class="edge"><title>Node10&#45;&gt;Node2</title>
<path fill="none" stroke="midnightblue" d="M1532.32,-116.405C1490.21,-101.683 1410.52,-74.9428 1341,-58 1263.97,-39.2243 1172.63,-24.6893 1119.79,-17.0225"/>
<polygon fill="midnightblue" stroke="midnightblue" points="1120.15,-13.5381 1109.76,-15.5815 1119.16,-20.467 1120.15,-13.5381"/>
</g>
<!-- Node11 -->
<g id="node24" class="node"><title>Node11</title>
<polygon fill="white" stroke="#bfbfbf" points="1225.5,-58.5 1225.5,-79.5 1268.5,-79.5 1268.5,-58.5 1225.5,-58.5"/>
<text text-anchor="middle" x="1247" y="-66.5" font-family="Helvetica,sans-Serif" font-size="10.00">string</text>
</g>
<!-- Node10&#45;&gt;Node11 -->
<g id="edge26" class="edge"><title>Node10&#45;&gt;Node11</title>
<path fill="none" stroke="midnightblue" d="M1530.2,-117.948C1527.44,-117.254 1524.68,-116.594 1522,-116 1510.17,-113.369 1348.63,-86.1031 1278.8,-74.3467"/>
<polygon fill="midnightblue" stroke="midnightblue" points="1279.24,-70.8725 1268.8,-72.6642 1278.08,-77.7754 1279.24,-70.8725"/>
</g>
<!-- Node12 -->
<g id="node26" class="node"><title>Node12</title>
<polygon fill="white" stroke="#bfbfbf" points="1609,-58.5 1609,-79.5 1655,-79.5 1655,-58.5 1609,-58.5"/>
<text text-anchor="middle" x="1632" y="-66.5" font-family="Helvetica,sans-Serif" font-size="10.00">vector</text>
</g>
<!-- Node10&#45;&gt;Node12 -->
<g id="edge28" class="edge"><title>Node10&#45;&gt;Node12</title>
<path fill="none" stroke="midnightblue" d="M1574.84,-116.362C1585.01,-107.941 1599.41,-96.0105 1611.21,-86.2308"/>
<polygon fill="midnightblue" stroke="midnightblue" points="1613.78,-88.6459 1619.25,-79.5707 1609.31,-83.2558 1613.78,-88.6459"/>
</g>
<!-- Node13 -->
<g id="node28" class="node"><title>Node13</title>
<polygon fill="white" stroke="#bfbfbf" points="1484.5,-58.5 1484.5,-79.5 1515.5,-79.5 1515.5,-58.5 1484.5,-58.5"/>
<text text-anchor="middle" x="1500" y="-66.5" font-family="Helvetica,sans-Serif" font-size="10.00">set</text>
</g>
<!-- Node10&#45;&gt;Node13 -->
<g id="edge30" class="edge"><title>Node10&#45;&gt;Node13</title>
<path fill="none" stroke="midnightblue" d="M1550.63,-116.362C1541.72,-108.023 1529.13,-96.2418 1518.73,-86.5162"/>
<polygon fill="midnightblue" stroke="midnightblue" points="1521,-83.8463 1511.3,-79.5707 1516.22,-88.9582 1521,-83.8463"/>
</g>
<!-- Node14 -->
<g id="node30" class="node"><title>Node14</title>
<polygon fill="white" stroke="#bfbfbf" points="785.505,-0.5 785.505,-21.5 826.505,-21.5 826.505,-0.5 785.505,-0.5"/>
<text text-anchor="middle" x="806.005" y="-8.5" font-family="Helvetica,sans-Serif" font-size="10.00">glib.h</text>
</g>
<!-- Node10&#45;&gt;Node14 -->
<g id="edge32" class="edge"><title>Node10&#45;&gt;Node14</title>
<path fill="none" stroke="midnightblue" d="M1530.18,-118.026C1527.42,-117.316 1524.67,-116.63 1522,-116 1442.19,-97.1137 1420.19,-101.38 1341,-80 1311.97,-72.1596 1306.39,-64.4252 1277,-58 1114.02,-22.3616 913.33,-13.6897 837.237,-11.6267"/>
<polygon fill="midnightblue" stroke="midnightblue" points="837.018,-8.12018 826.933,-11.3678 836.842,-15.118 837.018,-8.12018"/>
</g>
<!-- Node15 -->
<g id="node32" class="node"><title>Node15</title>
<polygon fill="white" stroke="#bfbfbf" points="1533,-58.5 1533,-79.5 1591,-79.5 1591,-58.5 1533,-58.5"/>
<text text-anchor="middle" x="1562" y="-66.5" font-family="Helvetica,sans-Serif" font-size="10.00">QtGlobal</text>
</g>
<!-- Node10&#45;&gt;Node15 -->
<g id="edge34" class="edge"><title>Node10&#45;&gt;Node15</title>
<path fill="none" stroke="midnightblue" d="M1562,-116.362C1562,-108.922 1562,-98.7427 1562,-89.7276"/>
<polygon fill="midnightblue" stroke="midnightblue" points="1565.51,-89.5706 1562,-79.5707 1558.51,-89.5707 1565.51,-89.5706"/>
</g>
<!-- Node16&#45;&gt;Node2 -->
<g id="edge38" class="edge"><title>Node16&#45;&gt;Node2</title>
<path fill="none" stroke="midnightblue" d="M415.231,-118.146C418.169,-117.337 421.137,-116.599 424.005,-116 570.592,-85.4021 616.67,-126.525 759.005,-80 777.554,-73.9368 778.645,-64.6154 797.005,-58 876.886,-29.2168 976.097,-17.8752 1032.11,-13.5443"/>
<polygon fill="midnightblue" stroke="midnightblue" points="1032.67,-17.0129 1042.39,-12.7915 1032.16,-10.0316 1032.67,-17.0129"/>
</g>
<!-- Node16&#45;&gt;Node14 -->
<g id="edge42" class="edge"><title>Node16&#45;&gt;Node14</title>
<path fill="none" stroke="midnightblue" d="M364.49,-116.375C337.211,-103.131 299.388,-79.6017 319.005,-58 349.722,-24.1761 672.817,-14.0078 775.122,-11.6243"/>
<polygon fill="midnightblue" stroke="midnightblue" points="775.482,-15.1173 785.401,-11.394 775.325,-8.11901 775.482,-15.1173"/>
</g>
<!-- Node17 -->
<g id="node37" class="node"><title>Node17</title>
<polygon fill="white" stroke="#bfbfbf" points="806.005,-58.5 806.005,-79.5 856.005,-79.5 856.005,-58.5 806.005,-58.5"/>
<text text-anchor="middle" x="831.005" y="-66.5" font-family="Helvetica,sans-Serif" font-size="10.00">stdint.h</text>
</g>
<!-- Node16&#45;&gt;Node17 -->
<g id="edge40" class="edge"><title>Node16&#45;&gt;Node17</title>
<path fill="none" stroke="midnightblue" d="M415.225,-118.119C418.165,-117.315 421.134,-116.585 424.005,-116 585.032,-83.1882 630.51,-110.425 792.005,-80 793.288,-79.7582 794.591,-79.4937 795.902,-79.211"/>
<polygon fill="midnightblue" stroke="midnightblue" points="797.093,-82.5235 805.985,-76.763 795.442,-75.7211 797.093,-82.5235"/>
</g>
<!-- Node18 -->
<g id="node40" class="node"><title>Node18</title>
<polygon fill="white" stroke="#bfbfbf" points="605.505,-58.5 605.505,-79.5 652.505,-79.5 652.505,-58.5 605.505,-58.5"/>
<text text-anchor="middle" x="629.005" y="-66.5" font-family="Helvetica,sans-Serif" font-size="10.00">stdio.h</text>
</g>
<!-- Node16&#45;&gt;Node18 -->
<g id="edge44" class="edge"><title>Node16&#45;&gt;Node18</title>
<path fill="none" stroke="midnightblue" d="M415.297,-118.429C418.223,-117.567 421.17,-116.739 424.005,-116 496.887,-97.014 519.438,-100.47 595.308,-80.2353"/>
<polygon fill="midnightblue" stroke="midnightblue" points="596.612,-83.5076 605.343,-77.5053 594.775,-76.753 596.612,-83.5076"/>
</g>
<!-- Node19 -->
<g id="node42" class="node"><title>Node19</title>
<polygon fill="white" stroke="#bfbfbf" points="327.505,-58.5 327.505,-79.5 378.505,-79.5 378.505,-58.5 327.505,-58.5"/>
<text text-anchor="middle" x="353.005" y="-66.5" font-family="Helvetica,sans-Serif" font-size="10.00">string.h</text>
</g>
<!-- Node16&#45;&gt;Node19 -->
<g id="edge46" class="edge"><title>Node16&#45;&gt;Node19</title>
<path fill="none" stroke="midnightblue" d="M382.402,-116.362C377.53,-108.513 370.767,-97.6159 364.955,-88.2527"/>
<polygon fill="midnightblue" stroke="midnightblue" points="367.813,-86.2213 359.566,-79.5707 361.866,-89.9129 367.813,-86.2213"/>
</g>
<!-- Node20 -->
<g id="node44" class="node"><title>Node20</title>
<polygon fill="white" stroke="#bfbfbf" points="396.005,-58.5 396.005,-79.5 482.005,-79.5 482.005,-58.5 396.005,-58.5"/>
<text text-anchor="middle" x="439.005" y="-66.5" font-family="Helvetica,sans-Serif" font-size="10.00">qnamespace.h</text>
</g>
<!-- Node16&#45;&gt;Node20 -->
<g id="edge48" class="edge"><title>Node16&#45;&gt;Node20</title>
<path fill="none" stroke="midnightblue" d="M398.176,-116.362C405.153,-108.268 414.926,-96.9318 423.161,-87.3796"/>
<polygon fill="midnightblue" stroke="midnightblue" points="426.014,-89.4301 429.892,-79.5707 420.712,-84.8595 426.014,-89.4301"/>
</g>
<!-- Node21 -->
<g id="node46" class="node"><title>Node21</title>
<polygon fill="white" stroke="#bfbfbf" points="500.005,-58.5 500.005,-79.5 588.005,-79.5 588.005,-58.5 500.005,-58.5"/>
<text text-anchor="middle" x="544.005" y="-66.5" font-family="Helvetica,sans-Serif" font-size="10.00">SysMgrEvent.h</text>
</g>
<!-- Node16&#45;&gt;Node21 -->
<g id="edge50" class="edge"><title>Node16&#45;&gt;Node21</title>
<path fill="none" stroke="midnightblue" d="M415.299,-117.161C440.254,-107.823 478.032,-93.6868 506.212,-83.1418"/>
<polygon fill="midnightblue" stroke="midnightblue" points="507.604,-86.3581 515.743,-79.5754 505.151,-79.802 507.604,-86.3581"/>
</g>
<!-- Node22 -->
<g id="node48" class="node"><title>Node22</title>
<a xlink:href="sptr_8h.htm" target="_top" xlink:title="sptr.h">
<polygon fill="white" stroke="black" points="707.505,-58.5 707.505,-79.5 750.505,-79.5 750.505,-58.5 707.505,-58.5"/>
<text text-anchor="middle" x="729.005" y="-66.5" font-family="Helvetica,sans-Serif" font-size="10.00">sptr.h</text>
</a>
</g>
<!-- Node16&#45;&gt;Node22 -->
<g id="edge52" class="edge"><title>Node16&#45;&gt;Node22</title>
<path fill="none" stroke="midnightblue" d="M415.259,-118.273C418.192,-117.44 421.151,-116.661 424.005,-116 527.798,-91.957 555.75,-96.5069 661.005,-80 672.855,-78.1416 685.857,-76.051 697.29,-74.1953"/>
<polygon fill="midnightblue" stroke="midnightblue" points="697.963,-77.632 707.27,-72.5706 696.838,-70.7229 697.963,-77.632"/>
</g>
<!-- Node22&#45;&gt;Node2 -->
<g id="edge54" class="edge"><title>Node22&#45;&gt;Node2</title>
<path fill="none" stroke="midnightblue" d="M750.706,-61.6068C755.075,-60.2806 759.661,-59.0035 764.005,-58 858.605,-36.1477 971.774,-22.0245 1032.45,-15.4031"/>
<polygon fill="midnightblue" stroke="midnightblue" points="1032.87,-18.8781 1042.44,-14.3292 1032.12,-11.9182 1032.87,-18.8781"/>
</g>
<!-- Node22&#45;&gt;Node14 -->
<g id="edge56" class="edge"><title>Node22&#45;&gt;Node14</title>
<path fill="none" stroke="midnightblue" d="M743.128,-58.3619C754.525,-49.7773 770.763,-37.5459 783.883,-27.6636"/>
<polygon fill="midnightblue" stroke="midnightblue" points="786.09,-30.3829 791.972,-21.5707 781.878,-24.7916 786.09,-30.3829"/>
</g>
<!-- Node23&#45;&gt;Node2 -->
<g id="edge60" class="edge"><title>Node23&#45;&gt;Node2</title>
<path fill="none" stroke="midnightblue" d="M1044.16,-174.495C1087.02,-160.815 1152.36,-132.234 1179,-80 1194.01,-50.5965 1154.07,-31.6595 1119.63,-21.2011"/>
<polygon fill="midnightblue" stroke="midnightblue" points="1120.23,-17.732 1109.65,-18.3499 1118.31,-24.4627 1120.23,-17.732"/>
</g>
<!-- Node23&#45;&gt;Node23 -->
<g id="edge72" class="edge"><title>Node23&#45;&gt;Node23</title>
<path fill="none" stroke="midnightblue" d="M1034.57,-195.524C1050.09,-197.061 1064,-193.553 1064,-185 1064,-178.385 1055.68,-174.788 1044.73,-174.208"/>
<polygon fill="midnightblue" stroke="midnightblue" points="1044.47,-170.714 1034.57,-174.476 1044.66,-177.711 1044.47,-170.714"/>
</g>
<!-- Node24 -->
<g id="node55" class="node"><title>Node24</title>
<a xlink:href="Window_8h.htm" target="_top" xlink:title="Window.h">
<polygon fill="white" stroke="red" points="973.005,-116.5 973.005,-137.5 1035,-137.5 1035,-116.5 973.005,-116.5"/>
<text text-anchor="middle" x="1004" y="-124.5" font-family="Helvetica,sans-Serif" font-size="10.00">Window.h</text>
</a>
</g>
<!-- Node23&#45;&gt;Node24 -->
<g id="edge62" class="edge"><title>Node23&#45;&gt;Node24</title>
<path fill="none" stroke="midnightblue" d="M1004,-174.362C1004,-166.922 1004,-156.743 1004,-147.728"/>
<polygon fill="midnightblue" stroke="midnightblue" points="1007.51,-147.571 1004,-137.571 1000.51,-147.571 1007.51,-147.571"/>
</g>
<!-- Node25 -->
<g id="node62" class="node"><title>Node25</title>
<a xlink:href="HostWindowData_8h.htm" target="_top" xlink:title="HostWindowData.h">
<polygon fill="white" stroke="red" points="1063.5,-58.5 1063.5,-79.5 1170.5,-79.5 1170.5,-58.5 1063.5,-58.5"/>
<text text-anchor="middle" x="1117" y="-66.5" font-family="Helvetica,sans-Serif" font-size="10.00">HostWindowData.h</text>
</a>
</g>
<!-- Node23&#45;&gt;Node25 -->
<g id="edge74" class="edge"><title>Node23&#45;&gt;Node25</title>
<path fill="none" stroke="midnightblue" d="M1026.08,-174.376C1041.68,-166.071 1062.33,-153.375 1077,-138 1090.68,-123.676 1101.55,-103.825 1108.5,-89.0907"/>
<polygon fill="midnightblue" stroke="midnightblue" points="1111.75,-90.3942 1112.66,-79.8386 1105.36,-87.5226 1111.75,-90.3942"/>
</g>
<!-- Node26 -->
<g id="node65" class="node"><title>Node26</title>
<a xlink:href="InputClient_8h.htm" target="_top" xlink:title="InputClient.h">
<polygon fill="white" stroke="red" points="1204.5,-116.5 1204.5,-137.5 1279.5,-137.5 1279.5,-116.5 1204.5,-116.5"/>
<text text-anchor="middle" x="1242" y="-124.5" font-family="Helvetica,sans-Serif" font-size="10.00">InputClient.h</text>
</a>
</g>
<!-- Node23&#45;&gt;Node26 -->
<g id="edge78" class="edge"><title>Node23&#45;&gt;Node26</title>
<path fill="none" stroke="midnightblue" d="M1046.01,-174.764C1087.6,-164.627 1151.2,-149.129 1194.59,-138.555"/>
<polygon fill="midnightblue" stroke="midnightblue" points="1195.46,-141.947 1204.34,-136.178 1193.8,-135.146 1195.46,-141.947"/>
</g>
<!-- Node27 -->
<g id="node68" class="node"><title>Node27</title>
<polygon fill="white" stroke="#bfbfbf" points="1297,-116.5 1297,-137.5 1371,-137.5 1371,-116.5 1297,-116.5"/>
<text text-anchor="middle" x="1334" y="-124.5" font-family="Helvetica,sans-Serif" font-size="10.00">PIpcBuffer.h</text>
</g>
<!-- Node23&#45;&gt;Node27 -->
<g id="edge82" class="edge"><title>Node23&#45;&gt;Node27</title>
<path fill="none" stroke="midnightblue" d="M1046.26,-178.176C1113.55,-167.287 1241.4,-146.496 1286.8,-138.061"/>
<polygon fill="midnightblue" stroke="midnightblue" points="1287.74,-141.444 1296.9,-136.112 1286.42,-134.571 1287.74,-141.444"/>
</g>
<!-- Node28 -->
<g id="node70" class="node"><title>Node28</title>
<polygon fill="white" stroke="#bfbfbf" points="1389,-116.5 1389,-137.5 1513,-137.5 1513,-116.5 1389,-116.5"/>
<text text-anchor="middle" x="1451" y="-124.5" font-family="Helvetica,sans-Serif" font-size="10.00">PIpcChannelListener.h</text>
</g>
<!-- Node23&#45;&gt;Node28 -->
<g id="edge84" class="edge"><title>Node23&#45;&gt;Node28</title>
<path fill="none" stroke="midnightblue" d="M1046.29,-177.975C1055.11,-176.59 1064.35,-175.196 1073,-174 1205.9,-155.623 1242.19,-156.468 1378.68,-138.142"/>
<polygon fill="midnightblue" stroke="midnightblue" points="1379.25,-141.597 1388.69,-136.788 1378.31,-134.661 1379.25,-141.597"/>
</g>
<!-- Node24&#45;&gt;Node2 -->
<g id="edge64" class="edge"><title>Node24&#45;&gt;Node2</title>
<path fill="none" stroke="midnightblue" d="M1004.82,-116.422C1006.32,-102.188 1010.53,-76.5197 1022,-58 1029.32,-46.1982 1040.53,-35.7461 1050.85,-27.7132"/>
<polygon fill="midnightblue" stroke="midnightblue" points="1053.23,-30.3089 1059.2,-21.5581 1049.08,-24.6742 1053.23,-30.3089"/>
</g>
<!-- Node24&#45;&gt;Node11 -->
<g id="edge68" class="edge"><title>Node24&#45;&gt;Node11</title>
<path fill="none" stroke="midnightblue" d="M1035.28,-119.536C1081.75,-108.443 1168.58,-87.7179 1215.31,-76.5659"/>
<polygon fill="midnightblue" stroke="midnightblue" points="1216.27,-79.9342 1225.18,-74.2081 1214.65,-73.1255 1216.27,-79.9342"/>
</g>
<!-- Node24&#45;&gt;Node14 -->
<g id="edge70" class="edge"><title>Node24&#45;&gt;Node14</title>
<path fill="none" stroke="midnightblue" d="M985.733,-116.295C950.65,-95.7414 873.717,-50.6698 832.813,-26.7059"/>
<polygon fill="midnightblue" stroke="midnightblue" points="834.345,-23.5468 823.947,-21.5117 830.806,-29.5866 834.345,-23.5468"/>
</g>
<!-- Node24&#45;&gt;Node17 -->
<g id="edge66" class="edge"><title>Node24&#45;&gt;Node17</title>
<path fill="none" stroke="midnightblue" d="M972.676,-116.497C942.539,-106.393 897.068,-91.1485 865.815,-80.6704"/>
<polygon fill="midnightblue" stroke="midnightblue" points="866.799,-77.3088 856.205,-77.4485 864.574,-83.9457 866.799,-77.3088"/>
</g>
<!-- Node25&#45;&gt;Node2 -->
<g id="edge76" class="edge"><title>Node25&#45;&gt;Node2</title>
<path fill="none" stroke="midnightblue" d="M1109.48,-58.3619C1103.88,-50.4313 1096.07,-39.3885 1089.41,-29.9606"/>
<polygon fill="midnightblue" stroke="midnightblue" points="1092.11,-27.7161 1083.48,-21.5707 1086.39,-31.7568 1092.11,-27.7161"/>
</g>
<!-- Node26&#45;&gt;Node11 -->
<g id="edge80" class="edge"><title>Node26&#45;&gt;Node11</title>
<path fill="none" stroke="midnightblue" d="M1242.92,-116.362C1243.56,-108.922 1244.44,-98.7427 1245.22,-89.7276"/>
<polygon fill="midnightblue" stroke="midnightblue" points="1248.72,-89.8343 1246.09,-79.5707 1241.75,-89.2331 1248.72,-89.8343"/>
</g>
<!-- Node29&#45;&gt;Node2 -->
<g id="edge88" class="edge"><title>Node29&#45;&gt;Node2</title>
<path fill="none" stroke="midnightblue" d="M485.225,-118.117C488.164,-117.313 491.134,-116.584 494.005,-116 656.346,-82.9869 702.858,-113.949 865.005,-80 898.229,-73.0438 985.629,-42.9924 1036.92,-24.9218"/>
<polygon fill="midnightblue" stroke="midnightblue" points="1038.1,-28.2171 1046.36,-21.5865 1035.77,-21.6167 1038.1,-28.2171"/>
</g>
<!-- Node29&#45;&gt;Node14 -->
<g id="edge90" class="edge"><title>Node29&#45;&gt;Node14</title>
<path fill="none" stroke="midnightblue" d="M485.303,-118.449C488.228,-117.584 491.172,-116.749 494.005,-116 567.411,-96.5969 590.176,-107.354 661.005,-80 679.21,-72.9693 681.6,-66.8266 699.005,-58 724.426,-45.108 754.169,-32.2115 775.836,-23.1979"/>
<polygon fill="midnightblue" stroke="midnightblue" points="777.268,-26.3932 785.177,-19.3437 774.598,-19.9223 777.268,-26.3932"/>
</g>
<!-- Node29&#45;&gt;Node17 -->
<g id="edge92" class="edge"><title>Node29&#45;&gt;Node17</title>
<path fill="none" stroke="midnightblue" d="M485.239,-118.185C488.176,-117.368 491.141,-116.618 494.005,-116 624.415,-87.8812 661.193,-106.186 792.005,-80 793.285,-79.7437 794.585,-79.4667 795.895,-79.1734"/>
<polygon fill="midnightblue" stroke="midnightblue" points="797.104,-82.4798 805.969,-76.6775 795.42,-75.6852 797.104,-82.4798"/>
</g>
<!-- Node31&#45;&gt;Node2 -->
<g id="edge98" class="edge"><title>Node31&#45;&gt;Node2</title>
<path fill="none" stroke="midnightblue" d="M740.01,-174.683C809.519,-162.192 917.736,-142.29 926.005,-138 971.482,-114.403 969.47,-90.5875 1009,-58 1022.37,-46.9858 1038.19,-35.8064 1051.11,-27.1154"/>
<polygon fill="midnightblue" stroke="midnightblue" points="1053.12,-29.9776 1059.52,-21.5287 1049.25,-24.147 1053.12,-29.9776"/>
</g>
<!-- Node31&#45;&gt;Node7 -->
<g id="edge108" class="edge"><title>Node31&#45;&gt;Node7</title>
<path fill="none" stroke="midnightblue" d="M623.97,-178.853C608.696,-177.254 592.231,-175.546 577.005,-174 413.253,-157.372 217.845,-138.444 136.95,-130.648"/>
<polygon fill="midnightblue" stroke="midnightblue" points="137.049,-127.142 126.76,-129.667 136.378,-134.109 137.049,-127.142"/>
</g>
<!-- Node31&#45;&gt;Node11 -->
<g id="edge100" class="edge"><title>Node31&#45;&gt;Node11</title>
<path fill="none" stroke="midnightblue" d="M740.087,-175.314C743.101,-174.858 746.088,-174.417 749.005,-174 879.758,-155.297 915.237,-167.41 1044,-138 1106.56,-123.712 1176.92,-97.3778 1216.21,-81.7004"/>
<polygon fill="midnightblue" stroke="midnightblue" points="1217.53,-84.9397 1225.5,-77.958 1214.92,-78.4463 1217.53,-84.9397"/>
</g>
<!-- Node31&#45;&gt;Node16 -->
<g id="edge114" class="edge"><title>Node31&#45;&gt;Node16</title>
<path fill="none" stroke="midnightblue" d="M623.929,-176.536C573.61,-168.724 498.733,-155.956 425.176,-138.081"/>
<polygon fill="midnightblue" stroke="midnightblue" points="425.826,-134.637 415.279,-135.643 424.151,-141.433 425.826,-134.637"/>
</g>
<!-- Node31&#45;&gt;Node24 -->
<g id="edge116" class="edge"><title>Node31&#45;&gt;Node24</title>
<path fill="none" stroke="midnightblue" d="M740.093,-175.372C814.943,-162.931 937.987,-142.346 959.005,-138 960.245,-137.743 961.504,-137.477 962.773,-137.202"/>
<polygon fill="midnightblue" stroke="midnightblue" points="963.617,-140.6 972.599,-134.981 962.073,-133.772 963.617,-140.6"/>
</g>
<!-- Node32 -->
<g id="node83" class="node"><title>Node32</title>
<polygon fill="white" stroke="#bfbfbf" points="677.005,-116.5 677.005,-137.5 729.005,-137.5 729.005,-116.5 677.005,-116.5"/>
<text text-anchor="middle" x="703.005" y="-124.5" font-family="Helvetica,sans-Serif" font-size="10.00">QEvent</text>
</g>
<!-- Node31&#45;&gt;Node32 -->
<g id="edge102" class="edge"><title>Node31&#45;&gt;Node32</title>
<path fill="none" stroke="midnightblue" d="M685.857,-174.362C688.61,-166.758 692.399,-156.294 695.715,-147.135"/>
<polygon fill="midnightblue" stroke="midnightblue" points="699.064,-148.165 699.178,-137.571 692.482,-145.782 699.064,-148.165"/>
</g>
<!-- Node33 -->
<g id="node85" class="node"><title>Node33</title>
<polygon fill="white" stroke="#bfbfbf" points="747.005,-116.5 747.005,-137.5 817.005,-137.5 817.005,-116.5 747.005,-116.5"/>
<text text-anchor="middle" x="782.005" y="-124.5" font-family="Helvetica,sans-Serif" font-size="10.00">QKeyEvent</text>
</g>
<!-- Node31&#45;&gt;Node33 -->
<g id="edge104" class="edge"><title>Node31&#45;&gt;Node33</title>
<path fill="none" stroke="midnightblue" d="M700.347,-174.362C715.57,-165.532 737.446,-152.844 754.725,-142.822"/>
<polygon fill="midnightblue" stroke="midnightblue" points="756.885,-145.615 763.78,-137.571 753.373,-139.56 756.885,-145.615"/>
</g>
<!-- Node34 -->
<g id="node87" class="node"><title>Node34</title>
<polygon fill="white" stroke="#bfbfbf" points="834.505,-116.5 834.505,-137.5 917.505,-137.5 917.505,-116.5 834.505,-116.5"/>
<text text-anchor="middle" x="876.005" y="-124.5" font-family="Helvetica,sans-Serif" font-size="10.00">QMouseEvent</text>
</g>
<!-- Node31&#45;&gt;Node34 -->
<g id="edge106" class="edge"><title>Node31&#45;&gt;Node34</title>
<path fill="none" stroke="midnightblue" d="M717.137,-174.497C749.038,-164.959 796.261,-150.841 830.933,-140.475"/>
<polygon fill="midnightblue" stroke="midnightblue" points="832.229,-143.741 840.807,-137.523 830.224,-137.034 832.229,-143.741"/>
</g>
<!-- Node35 -->
<g id="node90" class="node"><title>Node35</title>
<polygon fill="white" stroke="#bfbfbf" points="502.505,-116.5 502.505,-137.5 549.505,-137.5 549.505,-116.5 502.505,-116.5"/>
<text text-anchor="middle" x="526.005" y="-124.5" font-family="Helvetica,sans-Serif" font-size="10.00">QRect</text>
</g>
<!-- Node31&#45;&gt;Node35 -->
<g id="edge110" class="edge"><title>Node31&#45;&gt;Node35</title>
<path fill="none" stroke="midnightblue" d="M653.755,-174.497C627.207,-164.627 587.464,-149.85 559.368,-139.404"/>
<polygon fill="midnightblue" stroke="midnightblue" points="560.55,-136.11 549.957,-135.905 558.11,-142.671 560.55,-136.11"/>
</g>
<!-- Node36 -->
<g id="node92" class="node"><title>Node36</title>
<polygon fill="white" stroke="#bfbfbf" points="566.505,-116.5 566.505,-137.5 659.505,-137.5 659.505,-116.5 566.505,-116.5"/>
<text text-anchor="middle" x="613.005" y="-124.5" font-family="Helvetica,sans-Serif" font-size="10.00">QSharedPointer</text>
</g>
<!-- Node31&#45;&gt;Node36 -->
<g id="edge112" class="edge"><title>Node31&#45;&gt;Node36</title>
<path fill="none" stroke="midnightblue" d="M669.349,-174.362C659.331,-165.941 645.138,-154.011 633.504,-144.231"/>
<polygon fill="midnightblue" stroke="midnightblue" points="635.487,-141.326 625.58,-137.571 630.983,-146.684 635.487,-141.326"/>
</g>
<!-- Node45&#45;&gt;Node2 -->
<g id="edge136" class="edge"><title>Node45&#45;&gt;Node2</title>
<path fill="none" stroke="midnightblue" d="M932.248,-174.493C977.918,-166.864 1028.75,-154.896 1044,-138 1068.05,-111.358 1045.14,-92.508 1055,-58 1057.66,-48.7142 1061.81,-38.8931 1065.73,-30.6433"/>
<polygon fill="midnightblue" stroke="midnightblue" points="1068.96,-32.0142 1070.27,-21.5012 1062.69,-28.9 1068.96,-32.0142"/>
</g>
<!-- Node46&#45;&gt;Node2 -->
<g id="edge142" class="edge"><title>Node46&#45;&gt;Node2</title>
<path fill="none" stroke="midnightblue" d="M1912.13,-116.47C1901.04,-100.512 1877.53,-70.7182 1849,-58 1782.39,-28.2922 1273.23,-15.1768 1119.69,-11.8711"/>
<polygon fill="midnightblue" stroke="midnightblue" points="1119.75,-8.37175 1109.68,-11.6587 1119.61,-15.3702 1119.75,-8.37175"/>
</g>
<!-- Node46&#45;&gt;Node11 -->
<g id="edge148" class="edge"><title>Node46&#45;&gt;Node11</title>
<path fill="none" stroke="midnightblue" d="M1863.73,-122.229C1728.65,-110.571 1385.13,-80.9213 1278.84,-71.7476"/>
<polygon fill="midnightblue" stroke="midnightblue" points="1279.01,-68.2494 1268.75,-70.8765 1278.41,-75.2235 1279.01,-68.2494"/>
</g>
<!-- Node46&#45;&gt;Node14 -->
<g id="edge144" class="edge"><title>Node46&#45;&gt;Node14</title>
<path fill="none" stroke="midnightblue" d="M1888.45,-116.49C1841.05,-100.7 1746.64,-71.2929 1664,-58 1622.42,-51.3114 986.419,-19.8438 837.178,-12.524"/>
<polygon fill="midnightblue" stroke="midnightblue" points="837.065,-9.01438 826.905,-12.0207 836.722,-16.006 837.065,-9.01438"/>
</g>
<!-- Node47 -->
<g id="node120" class="node"><title>Node47</title>
<polygon fill="white" stroke="#bfbfbf" points="1900.5,-58.5 1900.5,-79.5 1937.5,-79.5 1937.5,-58.5 1900.5,-58.5"/>
<text text-anchor="middle" x="1919" y="-66.5" font-family="Helvetica,sans-Serif" font-size="10.00">map</text>
</g>
<!-- Node46&#45;&gt;Node47 -->
<g id="edge146" class="edge"><title>Node46&#45;&gt;Node47</title>
<path fill="none" stroke="midnightblue" d="M1919,-116.362C1919,-108.922 1919,-98.7427 1919,-89.7276"/>
<polygon fill="midnightblue" stroke="midnightblue" points="1922.51,-89.5706 1919,-79.5707 1915.51,-89.5707 1922.51,-89.5706"/>
</g>
<!-- Node48 -->
<g id="node123" class="node"><title>Node48</title>
<a xlink:href="AnimationEquations_8h.htm" target="_top" xlink:title="AnimationEquations.h">
<polygon fill="white" stroke="black" points="1955,-58.5 1955,-79.5 2073,-79.5 2073,-58.5 1955,-58.5"/>
<text text-anchor="middle" x="2014" y="-66.5" font-family="Helvetica,sans-Serif" font-size="10.00">AnimationEquations.h</text>
</a>
</g>
<!-- Node46&#45;&gt;Node48 -->
<g id="edge150" class="edge"><title>Node46&#45;&gt;Node48</title>
<path fill="none" stroke="midnightblue" d="M1936.43,-116.362C1950.89,-107.532 1971.67,-94.844 1988.09,-84.8224"/>
<polygon fill="midnightblue" stroke="midnightblue" points="1989.98,-87.7688 1996.69,-79.5707 1986.33,-81.7943 1989.98,-87.7688"/>
</g>
<!-- Node48&#45;&gt;Node2 -->
<g id="edge152" class="edge"><title>Node48&#45;&gt;Node2</title>
<path fill="none" stroke="midnightblue" d="M1954.72,-59.0284C1951.77,-58.6531 1948.86,-58.307 1946,-58 1630.4,-24.0458 1247.62,-14.1762 1119.86,-11.7212"/>
<polygon fill="midnightblue" stroke="midnightblue" points="1119.76,-8.21882 1109.7,-11.5313 1119.63,-15.2176 1119.76,-8.21882"/>
</g>
<!-- Node49 -->
<g id="node126" class="node"><title>Node49</title>
<polygon fill="white" stroke="#bfbfbf" points="1983.5,-0.5 1983.5,-21.5 2044.5,-21.5 2044.5,-0.5 1983.5,-0.5"/>
<text text-anchor="middle" x="2014" y="-8.5" font-family="Helvetica,sans-Serif" font-size="10.00">PTypes.h</text>
</g>
<!-- Node48&#45;&gt;Node49 -->
<g id="edge154" class="edge"><title>Node48&#45;&gt;Node49</title>
<path fill="none" stroke="midnightblue" d="M2014,-58.3619C2014,-50.9219 2014,-40.7427 2014,-31.7276"/>
<polygon fill="midnightblue" stroke="midnightblue" points="2017.51,-31.5706 2014,-21.5707 2010.51,-31.5707 2017.51,-31.5706"/>
</g>
</g>
</svg>
