<?xml version="1.0" encoding="UTF-8" standalone="no"?>
<!DOCTYPE svg PUBLIC "-//W3C//DTD SVG 1.1//EN"
 "http://www.w3.org/Graphics/SVG/1.1/DTD/svg11.dtd">
<!-- Generated by graphviz version 2.26.3 (20100126.1600)
 -->
<!-- Title: G Pages: 1 -->
<svg width="628pt" height="146pt"
 viewBox="0.00 0.00 628.00 146.00" xmlns="http://www.w3.org/2000/svg" xmlns:xlink="http://www.w3.org/1999/xlink">
<g id="graph1" class="graph" transform="scale(1 1) rotate(0) translate(4 142)">
<title>G</title>
<polygon fill="white" stroke="white" points="-4,5 -4,-142 625,-142 625,5 -4,5"/>
<!-- Node1 -->
<g id="node1" class="node"><title>Node1</title>
<polygon fill="#bfbfbf" stroke="black" points="241,-116.5 241,-137.5 327,-137.5 327,-116.5 241,-116.5"/>
<text text-anchor="middle" x="284" y="-124.5" font-family="Helvetica,sans-Serif" font-size="10.00">CardLoading.h</text>
</g>
<!-- Node2 -->
<g id="node3" class="node"><title>Node2</title>
<a xlink:href="Common_8h.htm" target="_top" xlink:title="Common.h">
<polygon fill="white" stroke="black" points="-0.5,-0.5 -0.5,-21.5 66.5,-21.5 66.5,-0.5 -0.5,-0.5"/>
<text text-anchor="middle" x="33" y="-8.5" font-family="Helvetica,sans-Serif" font-size="10.00">Common.h</text>
</a>
</g>
<!-- Node1&#45;&gt;Node2 -->
<g id="edge2" class="edge"><title>Node1&#45;&gt;Node2</title>
<path fill="none" stroke="midnightblue" d="M240.767,-123.882C180.555,-118.646 75.8038,-106 49,-80 36.215,-67.5987 32.7754,-47.142 32.1988,-31.7153"/>
<polygon fill="midnightblue" stroke="midnightblue" points="35.6988,-31.556 32.1923,-21.5583 28.6988,-31.5606 35.6988,-31.556"/>
</g>
<!-- Node3 -->
<g id="node5" class="node"><title>Node3</title>
<a xlink:href="AnimationEquations_8h.htm" target="_top" xlink:title="AnimationEquations.h">
<polygon fill="white" stroke="black" points="58,-58.5 58,-79.5 176,-79.5 176,-58.5 58,-58.5"/>
<text text-anchor="middle" x="117" y="-66.5" font-family="Helvetica,sans-Serif" font-size="10.00">AnimationEquations.h</text>
</a>
</g>
<!-- Node1&#45;&gt;Node3 -->
<g id="edge4" class="edge"><title>Node1&#45;&gt;Node3</title>
<path fill="none" stroke="midnightblue" d="M253.758,-116.497C226.65,-107.082 186.69,-93.2036 156.957,-82.8773"/>
<polygon fill="midnightblue" stroke="midnightblue" points="157.894,-79.4977 147.299,-79.5231 155.597,-86.1102 157.894,-79.4977"/>
</g>
<!-- Node5 -->
<g id="node10" class="node"><title>Node5</title>
<polygon fill="white" stroke="#bfbfbf" points="193.5,-58.5 193.5,-79.5 252.5,-79.5 252.5,-58.5 193.5,-58.5"/>
<text text-anchor="middle" x="223" y="-66.5" font-family="Helvetica,sans-Serif" font-size="10.00">QPainter</text>
</g>
<!-- Node1&#45;&gt;Node5 -->
<g id="edge10" class="edge"><title>Node1&#45;&gt;Node5</title>
<path fill="none" stroke="midnightblue" d="M272.812,-116.362C264.041,-108.023 251.651,-96.2418 241.422,-86.5162"/>
<polygon fill="midnightblue" stroke="midnightblue" points="243.776,-83.9248 234.117,-79.5707 238.953,-88.9978 243.776,-83.9248"/>
</g>
<!-- Node6 -->
<g id="node12" class="node"><title>Node6</title>
<polygon fill="white" stroke="#bfbfbf" points="270,-58.5 270,-79.5 420,-79.5 420,-58.5 270,-58.5"/>
<text text-anchor="middle" x="345" y="-66.5" font-family="Helvetica,sans-Serif" font-size="10.00">QSequentialAnimationGroup</text>
</g>
<!-- Node1&#45;&gt;Node6 -->
<g id="edge12" class="edge"><title>Node1&#45;&gt;Node6</title>
<path fill="none" stroke="midnightblue" d="M295.188,-116.362C303.959,-108.023 316.349,-96.2418 326.578,-86.5162"/>
<polygon fill="midnightblue" stroke="midnightblue" points="329.047,-88.9978 333.883,-79.5707 324.224,-83.9248 329.047,-88.9978"/>
</g>
<!-- Node7 -->
<g id="node14" class="node"><title>Node7</title>
<polygon fill="white" stroke="#bfbfbf" points="438,-58.5 438,-79.5 550,-79.5 550,-58.5 438,-58.5"/>
<text text-anchor="middle" x="494" y="-66.5" font-family="Helvetica,sans-Serif" font-size="10.00">QPropertyAnimation</text>
</g>
<!-- Node1&#45;&gt;Node7 -->
<g id="edge14" class="edge"><title>Node1&#45;&gt;Node7</title>
<path fill="none" stroke="midnightblue" d="M322.029,-116.497C356.858,-106.877 408.559,-92.5981 446.174,-82.209"/>
<polygon fill="midnightblue" stroke="midnightblue" points="447.192,-85.5591 455.899,-79.5231 445.328,-78.8117 447.192,-85.5591"/>
</g>
<!-- Node8 -->
<g id="node16" class="node"><title>Node8</title>
<polygon fill="white" stroke="#bfbfbf" points="568,-58.5 568,-79.5 620,-79.5 620,-58.5 568,-58.5"/>
<text text-anchor="middle" x="594" y="-66.5" font-family="Helvetica,sans-Serif" font-size="10.00">QTimer</text>
</g>
<!-- Node1&#45;&gt;Node8 -->
<g id="edge16" class="edge"><title>Node1&#45;&gt;Node8</title>
<path fill="none" stroke="midnightblue" d="M327.237,-121.455C379.748,-114.315 471.113,-100.589 557.985,-80.0166"/>
<polygon fill="midnightblue" stroke="midnightblue" points="558.828,-83.4137 567.734,-77.6741 557.193,-76.6075 558.828,-83.4137"/>
</g>
<!-- Node3&#45;&gt;Node2 -->
<g id="edge6" class="edge"><title>Node3&#45;&gt;Node2</title>
<path fill="none" stroke="midnightblue" d="M101.593,-58.3619C89.0418,-49.6955 71.1078,-37.3126 56.7255,-27.3819"/>
<polygon fill="midnightblue" stroke="midnightblue" points="58.5269,-24.3725 48.3092,-21.5707 54.5495,-30.1327 58.5269,-24.3725"/>
</g>
<!-- Node4 -->
<g id="node8" class="node"><title>Node4</title>
<polygon fill="white" stroke="#bfbfbf" points="86.5,-0.5 86.5,-21.5 147.5,-21.5 147.5,-0.5 86.5,-0.5"/>
<text text-anchor="middle" x="117" y="-8.5" font-family="Helvetica,sans-Serif" font-size="10.00">PTypes.h</text>
</g>
<!-- Node3&#45;&gt;Node4 -->
<g id="edge8" class="edge"><title>Node3&#45;&gt;Node4</title>
<path fill="none" stroke="midnightblue" d="M117,-58.3619C117,-50.9219 117,-40.7427 117,-31.7276"/>
<polygon fill="midnightblue" stroke="midnightblue" points="120.5,-31.5706 117,-21.5707 113.5,-31.5707 120.5,-31.5706"/>
</g>
</g>
</svg>
