<?xml version="1.0" encoding="UTF-8" standalone="no"?>
<!DOCTYPE svg PUBLIC "-//W3C//DTD SVG 1.1//EN"
 "http://www.w3.org/Graphics/SVG/1.1/DTD/svg11.dtd">
<!-- Generated by graphviz version 2.26.3 (20100126.1600)
 -->
<!-- Title: G Pages: 1 -->
<svg width="266pt" height="162pt"
 viewBox="0.00 0.00 266.00 162.00" xmlns="http://www.w3.org/2000/svg" xmlns:xlink="http://www.w3.org/1999/xlink">
<g id="graph1" class="graph" transform="scale(1 1) rotate(0) translate(4 158)">
<title>G</title>
<polygon fill="white" stroke="white" points="-4,5 -4,-158 263,-158 263,5 -4,5"/>
<!-- Node1 -->
<g id="node1" class="node"><title>Node1</title>
<polygon fill="#bfbfbf" stroke="black" points="56.5,-0.5 56.5,-21.5 201.5,-21.5 201.5,-0.5 56.5,-0.5"/>
<text text-anchor="middle" x="129" y="-8.5" font-family="Helvetica,sans-Serif" font-size="10.00">GlyphCachePopulator&lt; T &gt;</text>
</g>
<!-- Node2 -->
<g id="node2" class="node"><title>Node2</title>
<a xlink:href="classGlyphRenderer.htm" target="_top" xlink:title="GlyphRenderer\&lt; T \&gt;">
<polygon fill="white" stroke="black" points="72,-60.5 72,-81.5 186,-81.5 186,-60.5 72,-60.5"/>
<text text-anchor="middle" x="129" y="-68.5" font-family="Helvetica,sans-Serif" font-size="10.00">GlyphRenderer&lt; T &gt;</text>
</a>
</g>
<!-- Node2&#45;&gt;Node1 -->
<g id="edge2" class="edge"><title>Node2&#45;&gt;Node1</title>
<path fill="none" stroke="midnightblue" d="M129,-50.2312C129,-40.5922 129,-29.5444 129,-21.6339"/>
<polygon fill="midnightblue" stroke="midnightblue" points="125.5,-50.2732 129,-60.2732 132.5,-50.2732 125.5,-50.2732"/>
</g>
<!-- Node3 -->
<g id="node4" class="node"><title>Node3</title>
<polygon fill="white" stroke="#bfbfbf" points="-0.5,-132.5 -0.5,-153.5 124.5,-153.5 124.5,-132.5 -0.5,-132.5"/>
<text text-anchor="middle" x="62" y="-140.5" font-family="Helvetica,sans-Serif" font-size="10.00">DirectRenderer&lt; T &gt; &amp;</text>
</g>
<!-- Node3&#45;&gt;Node2 -->
<g id="edge4" class="edge"><title>Node3&#45;&gt;Node2</title>
<path fill="none" stroke="#9a32cd" stroke-dasharray="5,2" d="M70.6495,-123.074C74.6136,-115.332 79.817,-106.727 86,-100 92.5806,-92.84 101.262,-86.5599 109.1,-81.6916"/>
<polygon fill="#9a32cd" stroke="#9a32cd" points="67.4378,-121.678 66.3107,-132.213 73.7613,-124.681 67.4378,-121.678"/>
<text text-anchor="middle" x="130.5" y="-104.5" font-family="Helvetica,sans-Serif" font-size="10.00"> m_directRenderer</text>
</g>
<!-- Node4 -->
<g id="node6" class="node"><title>Node4</title>
<polygon fill="white" stroke="#bfbfbf" points="142,-132.5 142,-153.5 252,-153.5 252,-132.5 142,-132.5"/>
<text text-anchor="middle" x="197" y="-140.5" font-family="Helvetica,sans-Serif" font-size="10.00">GlyphCache&lt; T &gt; &amp;</text>
</g>
<!-- Node4&#45;&gt;Node2 -->
<g id="edge6" class="edge"><title>Node4&#45;&gt;Node2</title>
<path fill="none" stroke="#9a32cd" stroke-dasharray="5,2" d="M189.338,-122.7C185.772,-115.01 180.98,-106.541 175,-100 168.248,-92.6141 159.201,-86.3727 150.917,-81.5943"/>
<polygon fill="#9a32cd" stroke="#9a32cd" points="186.205,-124.28 193.316,-132.134 192.655,-121.56 186.205,-124.28"/>
<text text-anchor="middle" x="221" y="-104.5" font-family="Helvetica,sans-Serif" font-size="10.00"> m_glyphCache</text>
</g>
</g>
</svg>
