<?xml version="1.0" encoding="UTF-8" standalone="no"?>
<!DOCTYPE svg PUBLIC "-//W3C//DTD SVG 1.1//EN"
 "http://www.w3.org/Graphics/SVG/1.1/DTD/svg11.dtd">
<!-- Generated by graphviz version 2.26.3 (20100126.1600)
 -->
<!-- Title: G Pages: 1 -->
<svg width="627pt" height="246pt"
 viewBox="0.00 0.00 627.00 246.00" xmlns="http://www.w3.org/2000/svg" xmlns:xlink="http://www.w3.org/1999/xlink">
<g id="graph1" class="graph" transform="scale(1 1) rotate(0) translate(4 242)">
<title>G</title>
<polygon fill="white" stroke="white" points="-4,5 -4,-242 624,-242 624,5 -4,5"/>
<!-- Node1 -->
<g id="node1" class="node"><title>Node1</title>
<polygon fill="#bfbfbf" stroke="black" points="239.5,-0.5 239.5,-21.5 462.5,-21.5 462.5,-0.5 239.5,-0.5"/>
<text text-anchor="middle" x="351" y="-8.5" font-family="Helvetica,sans-Serif" font-size="10.00">LauncherPageIconTransferRedirectContext</text>
</g>
<!-- Node2 -->
<g id="node2" class="node"><title>Node2</title>
<a xlink:href="classLauncherTouchRedirectContext.htm" target="_top" xlink:title="LauncherTouchRedirectContext">
<polygon fill="white" stroke="black" points="-0.5,-72.5 -0.5,-93.5 166.5,-93.5 166.5,-72.5 -0.5,-72.5"/>
<text text-anchor="middle" x="83" y="-80.5" font-family="Helvetica,sans-Serif" font-size="10.00">LauncherTouchRedirectContext</text>
</a>
</g>
<!-- Node2&#45;&gt;Node1 -->
<g id="edge2" class="edge"><title>Node2&#45;&gt;Node1</title>
<path fill="none" stroke="midnightblue" d="M132.187,-69.7855C183.834,-55.9103 264.021,-34.3675 311.638,-21.5747"/>
<polygon fill="midnightblue" stroke="midnightblue" points="131.006,-66.4787 122.257,-72.4535 132.822,-73.239 131.006,-66.4787"/>
</g>
<!-- Node3 -->
<g id="node4" class="node"><title>Node3</title>
<a xlink:href="classRedirectContext.htm" target="_top" xlink:title="RedirectContext">
<polygon fill="white" stroke="black" points="36.5,-132.5 36.5,-153.5 129.5,-153.5 129.5,-132.5 36.5,-132.5"/>
<text text-anchor="middle" x="83" y="-140.5" font-family="Helvetica,sans-Serif" font-size="10.00">RedirectContext</text>
</a>
</g>
<!-- Node3&#45;&gt;Node2 -->
<g id="edge4" class="edge"><title>Node3&#45;&gt;Node2</title>
<path fill="none" stroke="midnightblue" d="M83,-122.231C83,-112.592 83,-101.544 83,-93.6339"/>
<polygon fill="midnightblue" stroke="midnightblue" points="79.5001,-122.273 83,-132.273 86.5001,-122.273 79.5001,-122.273"/>
</g>
<!-- Node4 -->
<g id="node6" class="node"><title>Node4</title>
<a xlink:href="classQObject.htm" target="_top" xlink:title="QObject">
<polygon fill="white" stroke="black" points="24.5,-216.5 24.5,-237.5 79.5,-237.5 79.5,-216.5 24.5,-216.5"/>
<text text-anchor="middle" x="52" y="-224.5" font-family="Helvetica,sans-Serif" font-size="10.00">QObject</text>
</a>
</g>
<!-- Node4&#45;&gt;Node3 -->
<g id="edge6" class="edge"><title>Node4&#45;&gt;Node3</title>
<path fill="none" stroke="midnightblue" d="M59.4174,-206.901C65.6067,-190.13 74.1833,-166.89 79.1057,-153.552"/>
<polygon fill="midnightblue" stroke="midnightblue" points="56.1049,-205.768 55.9262,-216.361 62.672,-208.192 56.1049,-205.768"/>
</g>
<!-- Node5 -->
<g id="node8" class="node"><title>Node5</title>
<polygon fill="white" stroke="#bfbfbf" points="97,-216.5 97,-237.5 133,-237.5 133,-216.5 97,-216.5"/>
<text text-anchor="middle" x="115" y="-224.5" font-family="Helvetica,sans-Serif" font-size="10.00">bool</text>
</g>
<!-- Node5&#45;&gt;Node3 -->
<g id="edge8" class="edge"><title>Node5&#45;&gt;Node3</title>
<path fill="none" stroke="#9a32cd" stroke-dasharray="5,2" d="M107.343,-206.901C100.954,-190.13 92.1011,-166.89 87.0199,-153.552"/>
<polygon fill="#9a32cd" stroke="#9a32cd" points="104.116,-208.262 110.947,-216.361 110.658,-205.77 104.116,-208.262"/>
<text text-anchor="middle" x="150" y="-189" font-family="Helvetica,sans-Serif" font-size="10.00"> m_dbg_onDestruct</text>
<text text-anchor="middle" x="150" y="-176" font-family="Helvetica,sans-Serif" font-size="10.00">m_valid</text>
</g>
<!-- Node6 -->
<g id="node10" class="node"><title>Node6</title>
<polygon fill="white" stroke="#bfbfbf" points="183.5,-72.5 183.5,-93.5 304.5,-93.5 304.5,-72.5 183.5,-72.5"/>
<text text-anchor="middle" x="244" y="-80.5" font-family="Helvetica,sans-Serif" font-size="10.00">QPointer&lt; IconBase &gt;</text>
</g>
<!-- Node6&#45;&gt;Node1 -->
<g id="edge10" class="edge"><title>Node6&#45;&gt;Node1</title>
<path fill="none" stroke="#9a32cd" stroke-dasharray="5,2" d="M261.629,-65.0792C270.308,-56.8312 281.208,-47.2837 292,-40 302.501,-32.9128 314.988,-26.5194 325.764,-21.5506"/>
<polygon fill="#9a32cd" stroke="#9a32cd" points="259.06,-62.696 254.35,-72.1862 263.95,-67.7047 259.06,-62.696"/>
<text text-anchor="middle" x="319.5" y="-44.5" font-family="Helvetica,sans-Serif" font-size="10.00"> m_qp_icon</text>
</g>
<!-- Node7 -->
<g id="node12" class="node"><title>Node7</title>
<polygon fill="white" stroke="#bfbfbf" points="321.5,-72.5 321.5,-93.5 380.5,-93.5 380.5,-72.5 321.5,-72.5"/>
<text text-anchor="middle" x="351" y="-80.5" font-family="Helvetica,sans-Serif" font-size="10.00">Direction</text>
</g>
<!-- Node7&#45;&gt;Node1 -->
<g id="edge12" class="edge"><title>Node7&#45;&gt;Node1</title>
<path fill="none" stroke="#9a32cd" stroke-dasharray="5,2" d="M351,-62.2348C351,-48.969 351,-32.3188 351,-21.6674"/>
<polygon fill="#9a32cd" stroke="#9a32cd" points="347.5,-62.3761 351,-72.3762 354.5,-62.3762 347.5,-62.3761"/>
<text text-anchor="middle" x="380" y="-44.5" font-family="Helvetica,sans-Serif" font-size="10.00"> m_direction</text>
</g>
<!-- Node8 -->
<g id="node14" class="node"><title>Node8</title>
<polygon fill="white" stroke="#bfbfbf" points="397.5,-72.5 397.5,-93.5 498.5,-93.5 498.5,-72.5 397.5,-72.5"/>
<text text-anchor="middle" x="448" y="-80.5" font-family="Helvetica,sans-Serif" font-size="10.00">QPointer&lt; Page &gt;</text>
</g>
<!-- Node8&#45;&gt;Node1 -->
<g id="edge14" class="edge"><title>Node8&#45;&gt;Node1</title>
<path fill="none" stroke="#9a32cd" stroke-dasharray="5,2" d="M435.48,-64.0214C429.413,-55.8682 421.583,-46.6964 413,-40 403.35,-32.471 391.429,-26.3059 380.626,-21.6261"/>
<polygon fill="#9a32cd" stroke="#9a32cd" points="432.699,-66.1509 441.325,-72.3034 438.419,-62.1149 432.699,-66.1509"/>
<text text-anchor="middle" x="464.5" y="-44.5" font-family="Helvetica,sans-Serif" font-size="10.00"> m_qp_srcPage</text>
</g>
<!-- Node9 -->
<g id="node16" class="node"><title>Node9</title>
<polygon fill="white" stroke="#bfbfbf" points="519,-72.5 519,-93.5 565,-93.5 565,-72.5 519,-72.5"/>
<text text-anchor="middle" x="542" y="-80.5" font-family="Helvetica,sans-Serif" font-size="10.00">qint32</text>
</g>
<!-- Node9&#45;&gt;Node1 -->
<g id="edge16" class="edge"><title>Node9&#45;&gt;Node1</title>
<path fill="none" stroke="#9a32cd" stroke-dasharray="5,2" d="M530.423,-63.8816C524.235,-55.2716 515.854,-45.7655 506,-40 493.358,-32.6037 464.206,-26.324 434.554,-21.5196"/>
<polygon fill="#9a32cd" stroke="#9a32cd" points="527.595,-65.9496 536.05,-72.3354 533.423,-62.0713 527.595,-65.9496"/>
<text text-anchor="middle" x="570.5" y="-44.5" font-family="Helvetica,sans-Serif" font-size="10.00"> m_targetPageIndex</text>
</g>
</g>
</svg>
