<?xml version="1.0" encoding="UTF-8" standalone="no"?>
<!DOCTYPE svg PUBLIC "-//W3C//DTD SVG 1.1//EN"
 "http://www.w3.org/Graphics/SVG/1.1/DTD/svg11.dtd">
<!-- Generated by graphviz version 2.26.3 (20100126.1600)
 -->
<!-- Title: G Pages: 1 -->
<svg width="756pt" height="90pt"
 viewBox="0.00 0.00 756.00 90.00" xmlns="http://www.w3.org/2000/svg" xmlns:xlink="http://www.w3.org/1999/xlink">
<g id="graph1" class="graph" transform="scale(1 1) rotate(0) translate(4 86)">
<title>G</title>
<polygon fill="white" stroke="white" points="-4,5 -4,-86 753,-86 753,5 -4,5"/>
<!-- Node1 -->
<g id="node1" class="node"><title>Node1</title>
<polygon fill="#bfbfbf" stroke="black" points="520.5,-44.5 520.5,-65.5 747.5,-65.5 747.5,-44.5 520.5,-44.5"/>
<text text-anchor="middle" x="634" y="-52.5" font-family="Helvetica,sans-Serif" font-size="10.00">Slot&lt; Receiver, Arg0, Arg1, Arg2, void, void &gt;</text>
</g>
<!-- Node2 -->
<g id="node2" class="node"><title>Node2</title>
<a xlink:href="classSlotBase.htm" target="_top" xlink:title="SlotBase\&lt; Arg0, Arg1, Arg2 \&gt;">
<polygon fill="white" stroke="black" points="265.5,-60.5 265.5,-81.5 420.5,-81.5 420.5,-60.5 265.5,-60.5"/>
<text text-anchor="middle" x="343" y="-68.5" font-family="Helvetica,sans-Serif" font-size="10.00">SlotBase&lt; Arg0, Arg1, Arg2 &gt;</text>
</a>
</g>
<!-- Node2&#45;&gt;Node1 -->
<g id="edge2" class="edge"><title>Node2&#45;&gt;Node1</title>
<path fill="none" stroke="midnightblue" d="M430.803,-66.1724C458.943,-64.6251 490.519,-62.889 520.238,-61.255"/>
<polygon fill="midnightblue" stroke="midnightblue" points="430.393,-62.6895 420.6,-66.7333 430.777,-69.6789 430.393,-62.6895"/>
</g>
<!-- Node3 -->
<g id="node4" class="node"><title>Node3</title>
<a xlink:href="classFunctionWrapper.htm" target="_top" xlink:title="FunctionWrapper\&lt; void(Receiver::*)(Arg0, Arg1, Arg2)\&gt;">
<polygon fill="white" stroke="black" points="204.5,-20.5 204.5,-41.5 481.5,-41.5 481.5,-20.5 204.5,-20.5"/>
<text text-anchor="middle" x="343" y="-28.5" font-family="Helvetica,sans-Serif" font-size="10.00">FunctionWrapper&lt; void(Receiver::*)(Arg0, Arg1, Arg2)&gt;</text>
</a>
</g>
<!-- Node3&#45;&gt;Node1 -->
<g id="edge4" class="edge"><title>Node3&#45;&gt;Node1</title>
<path fill="none" stroke="midnightblue" d="M480.718,-42.3582C493.933,-43.4481 507.234,-44.5451 520.183,-45.613"/>
<polygon fill="midnightblue" stroke="midnightblue" points="480.891,-38.8606 470.637,-41.5267 480.315,-45.8369 480.891,-38.8606"/>
</g>
<!-- Node4 -->
<g id="node6" class="node"><title>Node4</title>
<a xlink:href="classvoid_07Receiver_1_1_5_08_07Arg0_00_01Arg1_00_01Arg2_08.htm" target="_top" xlink:title="*)(Arg0, Arg1, Arg2)">
<polygon fill="white" stroke="black" points="0.5,-40.5 0.5,-61.5 111.5,-61.5 111.5,-40.5 0.5,-40.5"/>
<text text-anchor="middle" x="56" y="-48.5" font-family="Helvetica,sans-Serif" font-size="10.00">*)(Arg0, Arg1, Arg2)</text>
</a>
</g>
<!-- Node4&#45;&gt;Node3 -->
<g id="edge6" class="edge"><title>Node4&#45;&gt;Node3</title>
<path fill="none" stroke="#9a32cd" stroke-dasharray="5,2" d="M121.966,-46.4031C146.628,-44.6844 175.658,-42.6615 204.423,-40.6569"/>
<polygon fill="#9a32cd" stroke="#9a32cd" points="121.409,-42.9333 111.677,-47.1201 121.896,-49.9163 121.409,-42.9333"/>
<text text-anchor="middle" x="158" y="-49" font-family="Helvetica,sans-Serif" font-size="10.00"> m_function</text>
</g>
<!-- Node5 -->
<g id="node8" class="node"><title>Node5</title>
<a xlink:href="classTrackable.htm" target="_top" xlink:title="Trackable">
<polygon fill="white" stroke="black" points="24.5,-0.5 24.5,-21.5 87.5,-21.5 87.5,-0.5 24.5,-0.5"/>
<text text-anchor="middle" x="56" y="-8.5" font-family="Helvetica,sans-Serif" font-size="10.00">Trackable</text>
</a>
</g>
<!-- Node5&#45;&gt;Node3 -->
<g id="edge8" class="edge"><title>Node5&#45;&gt;Node3</title>
<path fill="none" stroke="#9a32cd" stroke-dasharray="5,2" d="M97.8662,-13.9175C126.28,-15.8975 165.616,-18.6387 204.466,-21.3461"/>
<polygon fill="#9a32cd" stroke="#9a32cd" points="97.7541,-10.4013 87.535,-13.1976 97.2675,-17.3844 97.7541,-10.4013"/>
<text text-anchor="middle" x="158" y="-23" font-family="Helvetica,sans-Serif" font-size="10.00"> m_receiver</text>
</g>
</g>
</svg>
