<?xml version="1.0" encoding="UTF-8" standalone="no"?>
<!DOCTYPE svg PUBLIC "-//W3C//DTD SVG 1.1//EN"
 "http://www.w3.org/Graphics/SVG/1.1/DTD/svg11.dtd">
<!-- Generated by graphviz version 2.26.3 (20100126.1600)
 -->
<!-- Title: G Pages: 1 -->
<svg width="320pt" height="162pt"
 viewBox="0.00 0.00 320.00 162.00" xmlns="http://www.w3.org/2000/svg" xmlns:xlink="http://www.w3.org/1999/xlink">
<g id="graph1" class="graph" transform="scale(1 1) rotate(0) translate(4 158)">
<title>G</title>
<polygon fill="white" stroke="white" points="-4,5 -4,-158 317,-158 317,5 -4,5"/>
<!-- Node1 -->
<g id="node1" class="node"><title>Node1</title>
<polygon fill="#bfbfbf" stroke="black" points="11.5,-0.5 11.5,-21.5 202.5,-21.5 202.5,-0.5 11.5,-0.5"/>
<text text-anchor="middle" x="107" y="-8.5" font-family="Helvetica,sans-Serif" font-size="10.00">Signal&lt; Arg0, Arg1, Arg2, void, void &gt;</text>
</g>
<!-- Node2 -->
<g id="node2" class="node"><title>Node2</title>
<a xlink:href="classSignalBase.htm" target="_top" xlink:title="SignalBase\&lt; Arg0, Arg1, Arg2 \&gt;">
<polygon fill="white" stroke="black" points="24,-60.5 24,-81.5 190,-81.5 190,-60.5 24,-60.5"/>
<text text-anchor="middle" x="107" y="-68.5" font-family="Helvetica,sans-Serif" font-size="10.00">SignalBase&lt; Arg0, Arg1, Arg2 &gt;</text>
</a>
</g>
<!-- Node2&#45;&gt;Node1 -->
<g id="edge2" class="edge"><title>Node2&#45;&gt;Node1</title>
<path fill="none" stroke="midnightblue" d="M107,-50.2312C107,-40.5922 107,-29.5444 107,-21.6339"/>
<polygon fill="midnightblue" stroke="midnightblue" points="103.5,-50.2732 107,-60.2732 110.5,-50.2732 103.5,-50.2732"/>
</g>
<!-- Node3 -->
<g id="node4" class="node"><title>Node3</title>
<a xlink:href="classSender.htm" target="_top" xlink:title="Sender">
<polygon fill="white" stroke="black" points="-0.5,-132.5 -0.5,-153.5 50.5,-153.5 50.5,-132.5 -0.5,-132.5"/>
<text text-anchor="middle" x="25" y="-140.5" font-family="Helvetica,sans-Serif" font-size="10.00">Sender</text>
</a>
</g>
<!-- Node3&#45;&gt;Node2 -->
<g id="edge4" class="edge"><title>Node3&#45;&gt;Node2</title>
<path fill="none" stroke="midnightblue" d="M44.6714,-125.728C60.2889,-112.015 81.6285,-93.2774 94.851,-81.6674"/>
<polygon fill="midnightblue" stroke="midnightblue" points="42.3045,-123.148 37.0994,-132.376 46.9231,-128.408 42.3045,-123.148"/>
</g>
<!-- Node4 -->
<g id="node6" class="node"><title>Node4</title>
<a xlink:href="classstd_1_1set_3_01SlotBase_3_01Arg0_00_01Arg1_00_01Arg2_00_01void_00_01void_01_4_01_5_01_4.htm" target="_top" xlink:title="set\&lt; SlotBase\&lt; Arg0, Arg1, Arg2, void, void \&gt; * \&gt;">
<polygon fill="white" stroke="black" points="67.5,-132.5 67.5,-153.5 312.5,-153.5 312.5,-132.5 67.5,-132.5"/>
<text text-anchor="middle" x="190" y="-140.5" font-family="Helvetica,sans-Serif" font-size="10.00">set&lt; SlotBase&lt; Arg0, Arg1, Arg2, void, void &gt; * &gt;</text>
</a>
</g>
<!-- Node4&#45;&gt;Node2 -->
<g id="edge6" class="edge"><title>Node4&#45;&gt;Node2</title>
<path fill="none" stroke="#9a32cd" stroke-dasharray="5,2" d="M170.089,-125.728C154.281,-112.015 132.681,-93.2774 119.297,-81.6674"/>
<polygon fill="#9a32cd" stroke="#9a32cd" points="167.906,-128.467 177.753,-132.376 172.493,-123.179 167.906,-128.467"/>
<text text-anchor="middle" x="176" y="-104.5" font-family="Helvetica,sans-Serif" font-size="10.00"> m_slots</text>
</g>
</g>
</svg>
