<?xml version="1.0" encoding="UTF-8" standalone="no"?>
<!DOCTYPE svg PUBLIC "-//W3C//DTD SVG 1.1//EN"
 "http://www.w3.org/Graphics/SVG/1.1/DTD/svg11.dtd">
<!-- Generated by graphviz version 2.26.3 (20100126.1600)
 -->
<!-- Title: G Pages: 1 -->
<svg width="233pt" height="204pt"
 viewBox="0.00 0.00 233.00 204.00" xmlns="http://www.w3.org/2000/svg" xmlns:xlink="http://www.w3.org/1999/xlink">
<g id="graph1" class="graph" transform="scale(1 1) rotate(0) translate(4 200)">
<title>G</title>
<polygon fill="white" stroke="white" points="-4,5 -4,-200 230,-200 230,5 -4,5"/>
<!-- Node1 -->
<g id="node1" class="node"><title>Node1</title>
<polygon fill="#bfbfbf" stroke="black" points="67,-116.5 67,-137.5 111,-137.5 111,-116.5 67,-116.5"/>
<text text-anchor="middle" x="89" y="-124.5" font-family="Helvetica,sans-Serif" font-size="10.00">Event</text>
</g>
<!-- Node4 -->
<g id="node7" class="node"><title>Node4</title>
<a xlink:href="classInputEvent.htm" target="_top" xlink:title="InputEvent">
<polygon fill="white" stroke="black" points="-0.5,-58.5 -0.5,-79.5 66.5,-79.5 66.5,-58.5 -0.5,-58.5"/>
<text text-anchor="middle" x="33" y="-66.5" font-family="Helvetica,sans-Serif" font-size="10.00">InputEvent</text>
</a>
</g>
<!-- Node1&#45;&gt;Node4 -->
<g id="edge6" class="edge"><title>Node1&#45;&gt;Node4</title>
<path fill="none" stroke="midnightblue" d="M71.7346,-109.118C62.3882,-99.4377 51.1612,-87.8098 43.2061,-79.5707"/>
<polygon fill="midnightblue" stroke="midnightblue" points="69.2648,-111.599 78.7287,-116.362 74.3007,-106.737 69.2648,-111.599"/>
</g>
<!-- Node5 -->
<g id="node9" class="node"><title>Node5</title>
<a xlink:href="classProcessManagerEvent.htm" target="_top" xlink:title="ProcessManagerEvent">
<polygon fill="white" stroke="black" points="83.5,-58.5 83.5,-79.5 208.5,-79.5 208.5,-58.5 83.5,-58.5"/>
<text text-anchor="middle" x="146" y="-66.5" font-family="Helvetica,sans-Serif" font-size="10.00">ProcessManagerEvent</text>
</a>
</g>
<!-- Node1&#45;&gt;Node5 -->
<g id="edge8" class="edge"><title>Node1&#45;&gt;Node5</title>
<path fill="none" stroke="midnightblue" d="M106.574,-109.118C116.087,-99.4377 127.514,-87.8098 135.612,-79.5707"/>
<polygon fill="midnightblue" stroke="midnightblue" points="103.968,-106.776 99.4547,-116.362 108.96,-111.683 103.968,-106.776"/>
</g>
<!-- Node2 -->
<g id="node2" class="node"><title>Node2</title>
<a xlink:href="classSysMgrEvent.htm" target="_top" xlink:title="SysMgrEvent">
<polygon fill="white" stroke="black" points="2,-174.5 2,-195.5 82,-195.5 82,-174.5 2,-174.5"/>
<text text-anchor="middle" x="42" y="-182.5" font-family="Helvetica,sans-Serif" font-size="10.00">SysMgrEvent</text>
</a>
</g>
<!-- Node2&#45;&gt;Node1 -->
<g id="edge2" class="edge"><title>Node2&#45;&gt;Node1</title>
<path fill="none" stroke="midnightblue" d="M56.9584,-166.541C64.707,-156.979 73.8898,-145.647 80.4341,-137.571"/>
<polygon fill="midnightblue" stroke="midnightblue" points="54.1971,-164.389 50.6205,-174.362 59.6357,-168.796 54.1971,-164.389"/>
</g>
<!-- Node3 -->
<g id="node4" class="node"><title>Node3</title>
<a xlink:href="classRefCounted.htm" target="_top" xlink:title="RefCounted">
<polygon fill="white" stroke="black" points="99.5,-174.5 99.5,-195.5 172.5,-195.5 172.5,-174.5 99.5,-174.5"/>
<text text-anchor="middle" x="136" y="-182.5" font-family="Helvetica,sans-Serif" font-size="10.00">RefCounted</text>
</a>
</g>
<!-- Node3&#45;&gt;Node1 -->
<g id="edge4" class="edge"><title>Node3&#45;&gt;Node1</title>
<path fill="none" stroke="midnightblue" d="M121.042,-166.541C113.293,-156.979 104.11,-145.647 97.5659,-137.571"/>
<polygon fill="midnightblue" stroke="midnightblue" points="118.364,-168.796 127.379,-174.362 123.803,-164.389 118.364,-168.796"/>
</g>
<!-- Node6 -->
<g id="node11" class="node"><title>Node6</title>
<a xlink:href="classProcessManagerLaunchEvent.htm" target="_top" xlink:title="ProcessManagerLaunchEvent">
<polygon fill="white" stroke="black" points="66.5,-0.5 66.5,-21.5 225.5,-21.5 225.5,-0.5 66.5,-0.5"/>
<text text-anchor="middle" x="146" y="-8.5" font-family="Helvetica,sans-Serif" font-size="10.00">ProcessManagerLaunchEvent</text>
</a>
</g>
<!-- Node5&#45;&gt;Node6 -->
<g id="edge10" class="edge"><title>Node5&#45;&gt;Node6</title>
<path fill="none" stroke="midnightblue" d="M146,-48.1906C146,-39.1684 146,-28.9941 146,-21.5707"/>
<polygon fill="midnightblue" stroke="midnightblue" points="142.5,-48.3619 146,-58.3619 149.5,-48.3619 142.5,-48.3619"/>
</g>
</g>
</svg>
