<?xml version="1.0" encoding="UTF-8" standalone="no"?>
<!DOCTYPE svg PUBLIC "-//W3C//DTD SVG 1.1//EN"
 "http://www.w3.org/Graphics/SVG/1.1/DTD/svg11.dtd">
<!-- Generated by graphviz version 2.26.3 (20100126.1600)
 -->
<!-- Title: G Pages: 1 -->
<svg width="226pt" height="88pt"
 viewBox="0.00 0.00 226.00 88.00" xmlns="http://www.w3.org/2000/svg" xmlns:xlink="http://www.w3.org/1999/xlink">
<g id="graph1" class="graph" transform="scale(1 1) rotate(0) translate(4 84)">
<title>G</title>
<polygon fill="white" stroke="white" points="-4,5 -4,-84 223,-84 223,5 -4,5"/>
<!-- Node1 -->
<g id="node1" class="node"><title>Node1</title>
<polygon fill="#bfbfbf" stroke="black" points="86,-0.5 86,-21.5 154,-21.5 154,-0.5 86,-0.5"/>
<text text-anchor="middle" x="120" y="-8.5" font-family="Helvetica,sans-Serif" font-size="10.00">WebFrame</text>
</g>
<!-- Node2 -->
<g id="node2" class="node"><title>Node2</title>
<a xlink:href="classPalm_1_1WebFrameClient.htm" target="_top" xlink:title="Palm::WebFrameClient">
<polygon fill="white" stroke="black" points="0,-58.5 0,-79.5 122,-79.5 122,-58.5 0,-58.5"/>
<text text-anchor="middle" x="61" y="-66.5" font-family="Helvetica,sans-Serif" font-size="10.00">Palm::WebFrameClient</text>
</a>
</g>
<!-- Node2&#45;&gt;Node1 -->
<g id="edge2" class="edge"><title>Node2&#45;&gt;Node1</title>
<path fill="none" stroke="midnightblue" d="M79.1903,-51.118C89.0375,-41.4377 100.866,-29.8098 109.247,-21.5707"/>
<polygon fill="midnightblue" stroke="midnightblue" points="76.4991,-48.8556 71.8215,-58.3619 81.4064,-53.8474 76.4991,-48.8556"/>
</g>
<!-- Node3 -->
<g id="node4" class="node"><title>Node3</title>
<a xlink:href="classProcessBase.htm" target="_top" xlink:title="ProcessBase">
<polygon fill="white" stroke="black" points="139.5,-58.5 139.5,-79.5 218.5,-79.5 218.5,-58.5 139.5,-58.5"/>
<text text-anchor="middle" x="179" y="-66.5" font-family="Helvetica,sans-Serif" font-size="10.00">ProcessBase</text>
</a>
</g>
<!-- Node3&#45;&gt;Node1 -->
<g id="edge4" class="edge"><title>Node3&#45;&gt;Node1</title>
<path fill="none" stroke="midnightblue" d="M160.81,-51.118C150.963,-41.4377 139.134,-29.8098 130.753,-21.5707"/>
<polygon fill="midnightblue" stroke="midnightblue" points="158.594,-53.8474 168.178,-58.3619 163.501,-48.8556 158.594,-53.8474"/>
</g>
</g>
</svg>
