<?xml version="1.0" encoding="UTF-8" standalone="no"?>
<!DOCTYPE svg PUBLIC "-//W3C//DTD SVG 1.1//EN"
 "http://www.w3.org/Graphics/SVG/1.1/DTD/svg11.dtd">
<!-- Generated by graphviz version 2.26.3 (20100126.1600)
 -->
<!-- Title: G Pages: 1 -->
<svg width="1020pt" height="855pt"
 viewBox="0.00 0.00 1020.00 854.98" xmlns="http://www.w3.org/2000/svg" xmlns:xlink="http://www.w3.org/1999/xlink">
<g id="graph1" class="graph" transform="scale(1 1) rotate(0) translate(4 850.977)">
<title>G</title>
<polygon fill="white" stroke="white" points="-4,5 -4,-850.977 1017,-850.977 1017,5 -4,5"/>
<!-- Node1 -->
<g id="node1" class="node"><title>Node1</title>
<polygon fill="#bfbfbf" stroke="black" points="884.5,-438.477 884.5,-459.477 1011.5,-459.477 1011.5,-438.477 884.5,-438.477"/>
<text text-anchor="middle" x="948" y="-446.477" font-family="Helvetica,sans-Serif" font-size="10.00">ReorderableIconLayout</text>
</g>
<!-- Node2 -->
<g id="node2" class="node"><title>Node2</title>
<a xlink:href="classIconLayout.htm" target="_top" xlink:title="IconLayout">
<polygon fill="white" stroke="black" points="440,-745.477 440,-766.477 508,-766.477 508,-745.477 440,-745.477"/>
<text text-anchor="middle" x="474" y="-753.477" font-family="Helvetica,sans-Serif" font-size="10.00">IconLayout</text>
</a>
</g>
<!-- Node2&#45;&gt;Node1 -->
<g id="edge2" class="edge"><title>Node2&#45;&gt;Node1</title>
<path fill="none" stroke="midnightblue" d="M518.31,-767.948C597.574,-786.48 764.795,-812.11 866,-730.977 910.455,-695.339 939.789,-506.985 946.52,-459.735"/>
<polygon fill="midnightblue" stroke="midnightblue" points="518.721,-764.447 508.179,-765.505 517.08,-771.252 518.721,-764.447"/>
</g>
<!-- Node3 -->
<g id="node4" class="node"><title>Node3</title>
<a xlink:href="classLayoutItem.htm" target="_top" xlink:title="LayoutItem">
<polygon fill="white" stroke="black" points="111,-825.477 111,-846.477 179,-846.477 179,-825.477 111,-825.477"/>
<text text-anchor="middle" x="145" y="-833.477" font-family="Helvetica,sans-Serif" font-size="10.00">LayoutItem</text>
</a>
</g>
<!-- Node3&#45;&gt;Node2 -->
<g id="edge4" class="edge"><title>Node3&#45;&gt;Node2</title>
<path fill="none" stroke="midnightblue" d="M189.556,-829.695C225.983,-824.158 278.684,-815.225 324,-803.977 366.725,-793.372 415.038,-777.121 445.012,-766.52"/>
<polygon fill="midnightblue" stroke="midnightblue" points="188.639,-826.294 179.267,-831.235 189.675,-833.216 188.639,-826.294"/>
</g>
<!-- Node4 -->
<g id="node6" class="node"><title>Node4</title>
<a xlink:href="classQObject.htm" target="_top" xlink:title="QObject">
<polygon fill="white" stroke="black" points="0.5,-825.477 0.5,-846.477 55.5,-846.477 55.5,-825.477 0.5,-825.477"/>
<text text-anchor="middle" x="28" y="-833.477" font-family="Helvetica,sans-Serif" font-size="10.00">QObject</text>
</a>
</g>
<!-- Node4&#45;&gt;Node3 -->
<g id="edge6" class="edge"><title>Node4&#45;&gt;Node3</title>
<path fill="none" stroke="midnightblue" d="M65.85,-835.977C80.3028,-835.977 96.6847,-835.977 110.78,-835.977"/>
<polygon fill="midnightblue" stroke="midnightblue" points="65.7274,-832.477 55.7274,-835.977 65.7273,-839.477 65.7274,-832.477"/>
</g>
<!-- Node5 -->
<g id="node8" class="node"><title>Node5</title>
<polygon fill="white" stroke="#bfbfbf" points="117.5,-785.477 117.5,-806.477 172.5,-806.477 172.5,-785.477 117.5,-785.477"/>
<text text-anchor="middle" x="145" y="-793.477" font-family="Helvetica,sans-Serif" font-size="10.00">QPointF</text>
</g>
<!-- Node5&#45;&gt;Node2 -->
<g id="edge8" class="edge"><title>Node5&#45;&gt;Node2</title>
<path fill="none" stroke="#9a32cd" stroke-dasharray="5,2" d="M182.922,-791.367C247.531,-783.511 377.955,-767.654 439.876,-760.126"/>
<polygon fill="#9a32cd" stroke="#9a32cd" points="182.271,-787.92 172.767,-792.601 183.116,-794.869 182.271,-787.92"/>
<text text-anchor="middle" x="269" y="-790.977" font-family="Helvetica,sans-Serif" font-size="10.00"> m_pos</text>
</g>
<!-- Node6 -->
<g id="node10" class="node"><title>Node6</title>
<polygon fill="white" stroke="#bfbfbf" points="118.5,-745.477 118.5,-766.477 171.5,-766.477 171.5,-745.477 118.5,-745.477"/>
<text text-anchor="middle" x="145" y="-753.477" font-family="Helvetica,sans-Serif" font-size="10.00">QRectF</text>
</g>
<!-- Node6&#45;&gt;Node2 -->
<g id="edge10" class="edge"><title>Node6&#45;&gt;Node2</title>
<path fill="none" stroke="#9a32cd" stroke-dasharray="5,2" d="M181.709,-755.977C245.87,-755.977 377.501,-755.977 439.831,-755.977"/>
<polygon fill="#9a32cd" stroke="#9a32cd" points="181.645,-752.477 171.645,-755.977 181.645,-759.477 181.645,-752.477"/>
<text text-anchor="middle" x="269" y="-759.977" font-family="Helvetica,sans-Serif" font-size="10.00"> m_geom</text>
</g>
<!-- Node7 -->
<g id="node12" class="node"><title>Node7</title>
<polygon fill="white" stroke="#bfbfbf" points="94.5,-705.477 94.5,-726.477 195.5,-726.477 195.5,-705.477 94.5,-705.477"/>
<text text-anchor="middle" x="145" y="-713.477" font-family="Helvetica,sans-Serif" font-size="10.00">QPointer&lt; Page &gt;</text>
</g>
<!-- Node7&#45;&gt;Node2 -->
<g id="edge12" class="edge"><title>Node7&#45;&gt;Node2</title>
<path fill="none" stroke="#9a32cd" stroke-dasharray="5,2" d="M205.962,-723.389C274.87,-731.767 384.623,-745.111 439.867,-751.827"/>
<polygon fill="#9a32cd" stroke="#9a32cd" points="206.035,-719.872 195.685,-722.139 205.19,-726.821 206.035,-719.872"/>
<text text-anchor="middle" x="269" y="-740.977" font-family="Helvetica,sans-Serif" font-size="10.00"> m_qp_ownerPage</text>
</g>
<!-- Node8 -->
<g id="node14" class="node"><title>Node8</title>
<polygon fill="white" stroke="#bfbfbf" points="108,-658.477 108,-679.477 182,-679.477 182,-658.477 108,-658.477"/>
<text text-anchor="middle" x="145" y="-666.477" font-family="Helvetica,sans-Serif" font-size="10.00">QTransform</text>
</g>
<!-- Node8&#45;&gt;Node2 -->
<g id="edge14" class="edge"><title>Node8&#45;&gt;Node2</title>
<path fill="none" stroke="#9a32cd" stroke-dasharray="5,2" d="M192.346,-663.594C231.507,-661.729 286.575,-665.389 324,-693.977 340.139,-706.305 325.933,-723.555 342,-735.977 369.781,-757.455 410.91,-760.516 439.859,-759.437"/>
<polygon fill="#9a32cd" stroke="#9a32cd" points="192.02,-660.107 182.253,-664.212 192.449,-667.094 192.02,-660.107"/>
<text text-anchor="middle" x="269" y="-710.977" font-family="Helvetica,sans-Serif" font-size="10.00"> m_pageToLayoutTran</text>
<text text-anchor="middle" x="269" y="-697.977" font-family="Helvetica,sans-Serif" font-size="10.00">m_layoutToPageTran</text>
</g>
<!-- Node9 -->
<g id="node16" class="node"><title>Node9</title>
<polygon fill="white" stroke="#bfbfbf" points="408.5,-705.477 408.5,-726.477 539.5,-726.477 539.5,-705.477 408.5,-705.477"/>
<text text-anchor="middle" x="474" y="-713.477" font-family="Helvetica,sans-Serif" font-size="10.00">QMap&lt; QUuid, QPoint &gt;</text>
</g>
<!-- Node9&#45;&gt;Node1 -->
<g id="edge16" class="edge"><title>Node9&#45;&gt;Node1</title>
<path fill="none" stroke="#9a32cd" stroke-dasharray="5,2" d="M549.928,-715.619C656.86,-714.443 841.585,-709.688 866,-690.977 904.907,-661.16 937.749,-502.473 946.003,-459.639"/>
<polygon fill="#9a32cd" stroke="#9a32cd" points="549.794,-712.12 539.83,-715.722 549.865,-719.12 549.794,-712.12"/>
<text text-anchor="middle" x="745" y="-717.977" font-family="Helvetica,sans-Serif" font-size="10.00"> m_trackedIconLastPosition</text>
</g>
<!-- Node10 -->
<g id="node18" class="node"><title>Node10</title>
<polygon fill="white" stroke="#bfbfbf" points="342,-665.477 342,-686.477 606,-686.477 606,-665.477 342,-665.477"/>
<text text-anchor="middle" x="474" y="-673.477" font-family="Helvetica,sans-Serif" font-size="10.00">QMap&lt; QUuid, QPointer&lt; IconReorderAnimation &gt; &gt;</text>
</g>
<!-- Node10&#45;&gt;Node1 -->
<g id="edge18" class="edge"><title>Node10&#45;&gt;Node1</title>
<path fill="none" stroke="#9a32cd" stroke-dasharray="5,2" d="M616.429,-674.961C720.084,-672.991 845.715,-667.569 866,-652.977 932.311,-605.276 945.059,-494.772 947.457,-459.796"/>
<polygon fill="#9a32cd" stroke="#9a32cd" points="616.087,-671.466 606.152,-675.146 616.214,-678.465 616.087,-671.466"/>
<text text-anchor="middle" x="745" y="-677.977" font-family="Helvetica,sans-Serif" font-size="10.00"> m_trackedIconAnimations</text>
</g>
<!-- Node11 -->
<g id="node20" class="node"><title>Node11</title>
<polygon fill="white" stroke="#bfbfbf" points="455,-625.477 455,-646.477 493,-646.477 493,-625.477 455,-625.477"/>
<text text-anchor="middle" x="474" y="-633.477" font-family="Helvetica,sans-Serif" font-size="10.00">char</text>
</g>
<!-- Node11&#45;&gt;Node1 -->
<g id="edge20" class="edge"><title>Node11&#45;&gt;Node1</title>
<path fill="none" stroke="#9a32cd" stroke-dasharray="5,2" d="M503.326,-636.337C589.204,-637.155 835.992,-637.744 866,-617.977 923.192,-580.305 941.732,-490.716 946.548,-459.737"/>
<polygon fill="#9a32cd" stroke="#9a32cd" points="503.255,-632.836 493.219,-636.232 503.182,-639.836 503.255,-632.836"/>
<text text-anchor="middle" x="745" y="-639.977" font-family="Helvetica,sans-Serif" font-size="10.00"> ReorderFSMPropertyName_isConsistent</text>
</g>
<!-- Node12 -->
<g id="node22" class="node"><title>Node12</title>
<polygon fill="white" stroke="#bfbfbf" points="448.5,-567.477 448.5,-588.477 499.5,-588.477 499.5,-567.477 448.5,-567.477"/>
<text text-anchor="middle" x="474" y="-575.477" font-family="Helvetica,sans-Serif" font-size="10.00">quint64</text>
</g>
<!-- Node12&#45;&gt;Node1 -->
<g id="edge22" class="edge"><title>Node12&#45;&gt;Node1</title>
<path fill="none" stroke="#9a32cd" stroke-dasharray="5,2" d="M509.667,-577.663C600.393,-576.627 834.992,-572.377 866,-555.977 906.964,-534.312 933.615,-482.152 943.588,-459.629"/>
<polygon fill="#9a32cd" stroke="#9a32cd" points="509.55,-574.164 499.589,-577.772 509.626,-581.164 509.55,-574.164"/>
<text text-anchor="middle" x="745" y="-604.977" font-family="Helvetica,sans-Serif" font-size="10.00"> m_timeNormalizationUnit</text>
<text text-anchor="middle" x="745" y="-591.977" font-family="Helvetica,sans-Serif" font-size="10.00">m_listIdInUse</text>
<text text-anchor="middle" x="745" y="-578.977" font-family="Helvetica,sans-Serif" font-size="10.00">m_lastTimeUsed</text>
</g>
<!-- Node13 -->
<g id="node24" class="node"><title>Node13</title>
<polygon fill="white" stroke="#bfbfbf" points="445,-496.477 445,-517.477 503,-517.477 503,-496.477 445,-496.477"/>
<text text-anchor="middle" x="474" y="-504.477" font-family="Helvetica,sans-Serif" font-size="10.00">QState *</text>
</g>
<!-- Node13&#45;&gt;Node1 -->
<g id="edge24" class="edge"><title>Node13&#45;&gt;Node1</title>
<path fill="none" stroke="#9a32cd" stroke-dasharray="5,2" d="M513.217,-505.567C598.699,-502.268 799.474,-493.227 866,-478.977 886.307,-474.627 908.363,-466.341 924.481,-459.578"/>
<polygon fill="#9a32cd" stroke="#9a32cd" points="513.001,-502.073 503.141,-505.95 513.267,-509.068 513.001,-502.073"/>
<text text-anchor="middle" x="745" y="-543.977" font-family="Helvetica,sans-Serif" font-size="10.00"> m_p_fsmStateConsistent</text>
<text text-anchor="middle" x="745" y="-530.977" font-family="Helvetica,sans-Serif" font-size="10.00">m_p_fsmStateReorderPendingAndTrackedFloating</text>
<text text-anchor="middle" x="745" y="-517.977" font-family="Helvetica,sans-Serif" font-size="10.00">m_p_fsmStateReorderPending</text>
<text text-anchor="middle" x="745" y="-504.977" font-family="Helvetica,sans-Serif" font-size="10.00">m_p_fsmStateTrackedFloating</text>
</g>
<!-- Node14 -->
<g id="node26" class="node"><title>Node14</title>
<polygon fill="white" stroke="#bfbfbf" points="395,-456.477 395,-477.477 553,-477.477 553,-456.477 395,-456.477"/>
<text text-anchor="middle" x="474" y="-464.477" font-family="Helvetica,sans-Serif" font-size="10.00">QList&lt; QPointer&lt; IconCell &gt; &gt;</text>
</g>
<!-- Node14&#45;&gt;Node1 -->
<g id="edge26" class="edge"><title>Node14&#45;&gt;Node1</title>
<path fill="none" stroke="#9a32cd" stroke-dasharray="5,2" d="M563.092,-463.594C656.69,-460.04 801.562,-454.538 884.296,-451.396"/>
<polygon fill="#9a32cd" stroke="#9a32cd" points="562.93,-460.097 553.07,-463.974 563.196,-467.092 562.93,-460.097"/>
<text text-anchor="middle" x="745" y="-465.977" font-family="Helvetica,sans-Serif" font-size="10.00"> m_reorderPendingCellList</text>
</g>
<!-- Node15 -->
<g id="node28" class="node"><title>Node15</title>
<polygon fill="white" stroke="#bfbfbf" points="425,-416.477 425,-437.477 523,-437.477 523,-416.477 425,-416.477"/>
<text text-anchor="middle" x="474" y="-424.477" font-family="Helvetica,sans-Serif" font-size="10.00">QStateMachine *</text>
</g>
<!-- Node15&#45;&gt;Node1 -->
<g id="edge28" class="edge"><title>Node15&#45;&gt;Node1</title>
<path fill="none" stroke="#9a32cd" stroke-dasharray="5,2" d="M533.449,-425.866C610.374,-424.995 748.475,-425.36 866,-435.977 873.034,-436.613 880.38,-437.481 887.66,-438.47"/>
<polygon fill="#9a32cd" stroke="#9a32cd" points="532.965,-422.371 523.009,-425.996 533.052,-429.371 532.965,-422.371"/>
<text text-anchor="middle" x="745" y="-439.977" font-family="Helvetica,sans-Serif" font-size="10.00"> m_p_reorderFSM</text>
</g>
<!-- Node16 -->
<g id="node30" class="node"><title>Node16</title>
<polygon fill="white" stroke="#bfbfbf" points="456,-360.477 456,-381.477 492,-381.477 492,-360.477 456,-360.477"/>
<text text-anchor="middle" x="474" y="-368.477" font-family="Helvetica,sans-Serif" font-size="10.00">bool</text>
</g>
<!-- Node16&#45;&gt;Node1 -->
<g id="edge30" class="edge"><title>Node16&#45;&gt;Node1</title>
<path fill="none" stroke="#9a32cd" stroke-dasharray="5,2" d="M502.441,-365.875C568.695,-355.244 737.45,-335.446 866,-382.977 897.024,-394.448 925.169,-422.691 938.998,-438.256"/>
<polygon fill="#9a32cd" stroke="#9a32cd" points="501.644,-362.46 492.354,-367.552 502.792,-369.365 501.644,-362.46"/>
<text text-anchor="middle" x="745" y="-412.977" font-family="Helvetica,sans-Serif" font-size="10.00"> m_disabledAutoPaint</text>
<text text-anchor="middle" x="745" y="-399.977" font-family="Helvetica,sans-Serif" font-size="10.00">m_usingReorderModeGraphics</text>
<text text-anchor="middle" x="745" y="-386.977" font-family="Helvetica,sans-Serif" font-size="10.00">m_layoutSync</text>
</g>
<!-- Node17 -->
<g id="node32" class="node"><title>Node17</title>
<polygon fill="white" stroke="#bfbfbf" points="393.5,-320.477 393.5,-341.477 554.5,-341.477 554.5,-320.477 393.5,-320.477"/>
<text text-anchor="middle" x="474" y="-328.477" font-family="Helvetica,sans-Serif" font-size="10.00">QPointer&lt; QAnimationGroup &gt;</text>
</g>
<!-- Node17&#45;&gt;Node1 -->
<g id="edge32" class="edge"><title>Node17&#45;&gt;Node1</title>
<path fill="none" stroke="#9a32cd" stroke-dasharray="5,2" d="M564.871,-322.894C664.07,-315.677 815.532,-309.837 866,-335.977 909.047,-358.273 934.882,-414.701 944.125,-438.322"/>
<polygon fill="#9a32cd" stroke="#9a32cd" points="564.554,-319.408 554.841,-323.642 565.074,-326.389 564.554,-319.408"/>
<text text-anchor="middle" x="745" y="-339.977" font-family="Helvetica,sans-Serif" font-size="10.00"> m_qp_reorderAnimationGroup</text>
</g>
<!-- Node18 -->
<g id="node34" class="node"><title>Node18</title>
<polygon fill="white" stroke="#bfbfbf" points="451.5,-277.477 451.5,-298.477 496.5,-298.477 496.5,-277.477 451.5,-277.477"/>
<text text-anchor="middle" x="474" y="-285.477" font-family="Helvetica,sans-Serif" font-size="10.00">QSize</text>
</g>
<!-- Node18&#45;&gt;Node1 -->
<g id="edge34" class="edge"><title>Node18&#45;&gt;Node1</title>
<path fill="none" stroke="#9a32cd" stroke-dasharray="5,2" d="M506.798,-283.6C589.914,-273.174 806.428,-250.362 866,-286.977 922.128,-321.475 941.264,-407.621 946.399,-438.089"/>
<polygon fill="#9a32cd" stroke="#9a32cd" points="506.139,-280.156 496.662,-284.894 507.025,-287.099 506.139,-280.156"/>
<text text-anchor="middle" x="745" y="-303.977" font-family="Helvetica,sans-Serif" font-size="10.00"> m_layoutSizeInPixels</text>
<text text-anchor="middle" x="745" y="-290.977" font-family="Helvetica,sans-Serif" font-size="10.00">m_iconCellSize</text>
</g>
<!-- Node19 -->
<g id="node36" class="node"><title>Node19</title>
<polygon fill="white" stroke="#bfbfbf" points="451,-237.477 451,-258.477 497,-258.477 497,-237.477 451,-237.477"/>
<text text-anchor="middle" x="474" y="-245.477" font-family="Helvetica,sans-Serif" font-size="10.00">qint32</text>
</g>
<!-- Node19&#45;&gt;Node1 -->
<g id="edge36" class="edge"><title>Node19&#45;&gt;Node1</title>
<path fill="none" stroke="#9a32cd" stroke-dasharray="5,2" d="M507.018,-243.615C590.596,-233.273 808.003,-210.933 866,-249.977 932.334,-294.634 945.067,-403.69 947.459,-438.272"/>
<polygon fill="#9a32cd" stroke="#9a32cd" points="506.536,-240.148 497.052,-244.871 507.411,-247.093 506.536,-240.148"/>
<text text-anchor="middle" x="745" y="-253.977" font-family="Helvetica,sans-Serif" font-size="10.00"> m_horizIconSpacingAdjust</text>
</g>
<!-- Node20 -->
<g id="node38" class="node"><title>Node20</title>
<polygon fill="white" stroke="#bfbfbf" points="419.5,-197.477 419.5,-218.477 528.5,-218.477 528.5,-197.477 419.5,-197.477"/>
<text text-anchor="middle" x="474" y="-205.477" font-family="Helvetica,sans-Serif" font-size="10.00">QList&lt; IconRow * &gt;</text>
</g>
<!-- Node20&#45;&gt;Node1 -->
<g id="edge38" class="edge"><title>Node20&#45;&gt;Node1</title>
<path fill="none" stroke="#9a32cd" stroke-dasharray="5,2" d="M538.82,-204.448C643.372,-199.348 840.197,-192.426 866,-210.977 905.21,-239.167 937.832,-396.056 946.02,-438.428"/>
<polygon fill="#9a32cd" stroke="#9a32cd" points="538.506,-200.959 528.692,-204.95 538.853,-207.95 538.506,-200.959"/>
<text text-anchor="middle" x="745" y="-214.977" font-family="Helvetica,sans-Serif" font-size="10.00"> m_iconRows</text>
</g>
<!-- Node21 -->
<g id="node40" class="node"><title>Node21</title>
<polygon fill="white" stroke="#bfbfbf" points="448.5,-33.4771 448.5,-54.4771 499.5,-54.4771 499.5,-33.4771 448.5,-33.4771"/>
<text text-anchor="middle" x="474" y="-41.4771" font-family="Helvetica,sans-Serif" font-size="10.00">quint32</text>
</g>
<!-- Node21&#45;&gt;Node1 -->
<g id="edge40" class="edge"><title>Node21&#45;&gt;Node1</title>
<path fill="none" stroke="#9a32cd" stroke-dasharray="5,2" d="M509.631,-31.6448C585.085,-8.01305 762.533,34.0741 866,-51.9771 927.956,-103.505 944.684,-380.52 947.524,-438.38"/>
<polygon fill="#9a32cd" stroke="#9a32cd" points="508.13,-28.4508 499.68,-34.8415 510.271,-35.1154 508.13,-28.4508"/>
<text text-anchor="middle" x="745" y="-185.977" font-family="Helvetica,sans-Serif" font-size="10.00"> m_reorderEventSampleRate</text>
<text text-anchor="middle" x="745" y="-172.977" font-family="Helvetica,sans-Serif" font-size="10.00">m_maxIconsPerRow</text>
<text text-anchor="middle" x="745" y="-159.977" font-family="Helvetica,sans-Serif" font-size="10.00">m_magFactor</text>
<text text-anchor="middle" x="745" y="-146.977" font-family="Helvetica,sans-Serif" font-size="10.00">m_maxVelocityForSampling</text>
<text text-anchor="middle" x="745" y="-133.977" font-family="Helvetica,sans-Serif" font-size="10.00">m_interRowSpace</text>
<text text-anchor="middle" x="745" y="-120.977" font-family="Helvetica,sans-Serif" font-size="10.00">m_maxWidthForRows</text>
<text text-anchor="middle" x="745" y="-107.977" font-family="Helvetica,sans-Serif" font-size="10.00">m_horizIconSpacing</text>
<text text-anchor="middle" x="745" y="-94.9771" font-family="Helvetica,sans-Serif" font-size="10.00">m_anchorRow</text>
<text text-anchor="middle" x="745" y="-81.9771" font-family="Helvetica,sans-Serif" font-size="10.00">m_relayoutCount</text>
<text text-anchor="middle" x="745" y="-68.9771" font-family="Helvetica,sans-Serif" font-size="10.00">m_topMarginForRows</text>
<text text-anchor="middle" x="745" y="-55.9771" font-family="Helvetica,sans-Serif" font-size="10.00">...</text>
</g>
</g>
</svg>
