<?xml version="1.0" encoding="UTF-8" standalone="no"?>
<!DOCTYPE svg PUBLIC "-//W3C//DTD SVG 1.1//EN"
 "http://www.w3.org/Graphics/SVG/1.1/DTD/svg11.dtd">
<!-- Generated by graphviz version 2.26.3 (20100126.1600)
 -->
<!-- Title: G Pages: 1 -->
<svg width="1540pt" height="1179pt"
 viewBox="0.00 0.00 1540.00 1178.89" xmlns="http://www.w3.org/2000/svg" xmlns:xlink="http://www.w3.org/1999/xlink">
<g id="graph1" class="graph" transform="scale(1 1) rotate(0) translate(4 1174.89)">
<title>G</title>
<polygon fill="white" stroke="white" points="-4,5 -4,-1174.89 1537,-1174.89 1537,5 -4,5"/>
<!-- Node1 -->
<g id="node1" class="node"><title>Node1</title>
<polygon fill="#bfbfbf" stroke="black" points="1448.5,-580.464 1448.5,-601.464 1531.5,-601.464 1531.5,-580.464 1448.5,-580.464"/>
<text text-anchor="middle" x="1490" y="-588.464" font-family="Helvetica,sans-Serif" font-size="10.00">AlphabetPage</text>
</g>
<!-- Node2 -->
<g id="node2" class="node"><title>Node2</title>
<a xlink:href="classPage.htm" target="_top" xlink:title="Page">
<polygon fill="white" stroke="black" points="1194.5,-603.464 1194.5,-624.464 1235.5,-624.464 1235.5,-603.464 1194.5,-603.464"/>
<text text-anchor="middle" x="1215" y="-611.464" font-family="Helvetica,sans-Serif" font-size="10.00">Page</text>
</a>
</g>
<!-- Node2&#45;&gt;Node1 -->
<g id="edge2" class="edge"><title>Node2&#45;&gt;Node1</title>
<path fill="none" stroke="midnightblue" d="M1245.76,-611.392C1295.29,-607.249 1392.79,-599.095 1448.45,-594.44"/>
<polygon fill="midnightblue" stroke="midnightblue" points="1245.34,-607.914 1235.67,-612.236 1245.93,-614.89 1245.34,-607.914"/>
</g>
<!-- Node3 -->
<g id="node4" class="node"><title>Node3</title>
<a xlink:href="classThingPaintable.htm" target="_top" xlink:title="ThingPaintable">
<polygon fill="white" stroke="black" points="446.5,-942.464 446.5,-963.464 533.5,-963.464 533.5,-942.464 446.5,-942.464"/>
<text text-anchor="middle" x="490" y="-950.464" font-family="Helvetica,sans-Serif" font-size="10.00">ThingPaintable</text>
</a>
</g>
<!-- Node3&#45;&gt;Node2 -->
<g id="edge4" class="edge"><title>Node3&#45;&gt;Node2</title>
<path fill="none" stroke="midnightblue" d="M543.758,-959.456C681.992,-974.922 1045.18,-1007.43 1134,-933.964 1183.79,-892.781 1208.71,-675.859 1213.94,-624.755"/>
<polygon fill="midnightblue" stroke="midnightblue" points="544.141,-955.977 533.81,-958.329 543.353,-962.933 544.141,-955.977"/>
</g>
<!-- Node11 -->
<g id="node20" class="node"><title>Node11</title>
<a xlink:href="classScrollableObject.htm" target="_top" xlink:title="ScrollableObject">
<polygon fill="white" stroke="black" points="770,-895.464 770,-916.464 862,-916.464 862,-895.464 770,-895.464"/>
<text text-anchor="middle" x="816" y="-903.464" font-family="Helvetica,sans-Serif" font-size="10.00">ScrollableObject</text>
</a>
</g>
<!-- Node3&#45;&gt;Node11 -->
<g id="edge22" class="edge"><title>Node3&#45;&gt;Node11</title>
<path fill="none" stroke="midnightblue" d="M543.945,-952.692C585.716,-951.728 644.878,-948.717 696,-939.964 726.947,-934.666 761.335,-924.462 785.337,-916.609"/>
<polygon fill="midnightblue" stroke="midnightblue" points="543.644,-949.197 533.715,-952.895 543.783,-956.196 543.644,-949.197"/>
</g>
<!-- Node4 -->
<g id="node6" class="node"><title>Node4</title>
<a xlink:href="classThing.htm" target="_top" xlink:title="Thing">
<polygon fill="white" stroke="black" points="237,-917.464 237,-938.464 281,-938.464 281,-917.464 237,-917.464"/>
<text text-anchor="middle" x="259" y="-925.464" font-family="Helvetica,sans-Serif" font-size="10.00">Thing</text>
</a>
</g>
<!-- Node4&#45;&gt;Node3 -->
<g id="edge6" class="edge"><title>Node4&#45;&gt;Node3</title>
<path fill="none" stroke="midnightblue" d="M291.512,-929.758C325.61,-931.85 380.712,-935.824 428,-941.964 433.963,-942.739 440.225,-943.688 446.383,-944.701"/>
<polygon fill="midnightblue" stroke="midnightblue" points="291.406,-926.246 281.215,-929.145 290.99,-933.233 291.406,-926.246"/>
</g>
<!-- Node5 -->
<g id="node8" class="node"><title>Node5</title>
<a xlink:href="classQGraphicsObject.htm" target="_top" xlink:title="QGraphicsObject">
<polygon fill="white" stroke="black" points="3,-937.464 3,-958.464 101,-958.464 101,-937.464 3,-937.464"/>
<text text-anchor="middle" x="52" y="-945.464" font-family="Helvetica,sans-Serif" font-size="10.00">QGraphicsObject</text>
</a>
</g>
<!-- Node5&#45;&gt;Node4 -->
<g id="edge8" class="edge"><title>Node5&#45;&gt;Node4</title>
<path fill="none" stroke="midnightblue" d="M111.177,-942.247C153.163,-938.19 207.148,-932.974 236.884,-930.101"/>
<polygon fill="midnightblue" stroke="midnightblue" points="110.673,-938.779 101.056,-943.225 111.346,-945.747 110.673,-938.779"/>
</g>
<!-- Node6 -->
<g id="node10" class="node"><title>Node6</title>
<polygon fill="white" stroke="#bfbfbf" points="0,-897.464 0,-918.464 104,-918.464 104,-897.464 0,-897.464"/>
<text text-anchor="middle" x="52" y="-905.464" font-family="Helvetica,sans-Serif" font-size="10.00">QPointer&lt; Thing &gt;</text>
</g>
<!-- Node6&#45;&gt;Node4 -->
<g id="edge10" class="edge"><title>Node6&#45;&gt;Node4</title>
<path fill="none" stroke="#9a32cd" stroke-dasharray="5,2" d="M114.088,-907.967C144.377,-908.746 181.255,-910.849 214,-915.964 221.509,-917.138 229.571,-919.067 236.767,-921.039"/>
<polygon fill="#9a32cd" stroke="#9a32cd" points="114.157,-904.468 104.084,-907.751 114.006,-911.466 114.157,-904.468"/>
<text text-anchor="middle" x="168" y="-919.964" font-family="Helvetica,sans-Serif" font-size="10.00"> m_qp_takerOwner</text>
</g>
<!-- Node7 -->
<g id="node12" class="node"><title>Node7</title>
<polygon fill="white" stroke="#bfbfbf" points="232.5,-758.464 232.5,-779.464 285.5,-779.464 285.5,-758.464 232.5,-758.464"/>
<text text-anchor="middle" x="259" y="-766.464" font-family="Helvetica,sans-Serif" font-size="10.00">QString</text>
</g>
<!-- Node7&#45;&gt;Node2 -->
<g id="edge44" class="edge"><title>Node7&#45;&gt;Node2</title>
<path fill="none" stroke="#9a32cd" stroke-dasharray="5,2" d="M295.463,-758.691C350.552,-743.584 458.503,-715.59 552,-700.964 808.427,-660.853 883.55,-721.068 1134,-652.964 1157.19,-646.658 1181.79,-633.825 1197.72,-624.601"/>
<polygon fill="#9a32cd" stroke="#9a32cd" points="294.516,-755.322 285.807,-761.356 296.378,-762.07 294.516,-755.322"/>
<text text-anchor="middle" x="624" y="-743.964" font-family="Helvetica,sans-Serif" font-size="10.00"> m_pageName</text>
<text text-anchor="middle" x="624" y="-730.964" font-family="Helvetica,sans-Serif" font-size="10.00">m_pageDesignator</text>
<text text-anchor="middle" x="624" y="-717.964" font-family="Helvetica,sans-Serif" font-size="10.00">PageDesignator_AllAlphabetic</text>
<text text-anchor="middle" x="624" y="-704.964" font-family="Helvetica,sans-Serif" font-size="10.00">PageDesignator_Favorites</text>
</g>
<!-- Node7&#45;&gt;Node3 -->
<g id="edge12" class="edge"><title>Node7&#45;&gt;Node3</title>
<path fill="none" stroke="#9a32cd" stroke-dasharray="5,2" d="M280.555,-786.253C313.289,-812.771 377.105,-865.517 428,-913.964 436.425,-921.985 436.53,-926.21 446,-932.964 450.919,-936.472 456.551,-939.589 462.107,-942.257"/>
<polygon fill="#9a32cd" stroke="#9a32cd" points="282.535,-783.353 272.556,-779.794 278.138,-788.799 282.535,-783.353"/>
<text text-anchor="middle" x="366" y="-917.964" font-family="Helvetica,sans-Serif" font-size="10.00"> m_uiState</text>
</g>
<!-- Node8 -->
<g id="node14" class="node"><title>Node8</title>
<polygon fill="white" stroke="#bfbfbf" points="232.5,-991.464 232.5,-1012.46 285.5,-1012.46 285.5,-991.464 232.5,-991.464"/>
<text text-anchor="middle" x="259" y="-999.464" font-family="Helvetica,sans-Serif" font-size="10.00">QRectF</text>
</g>
<!-- Node8&#45;&gt;Node2 -->
<g id="edge42" class="edge"><title>Node8&#45;&gt;Node2</title>
<path fill="none" stroke="#9a32cd" stroke-dasharray="5,2" d="M295.839,-1012.33C298.589,-1012.93 301.331,-1013.49 304,-1013.96 366.397,-1025.06 382.691,-1024.07 446,-1026.96 522.626,-1030.46 1076.43,-1020.66 1134,-969.964 1187.99,-922.419 1209.92,-679.28 1214.2,-624.804"/>
<polygon fill="#9a32cd" stroke="#9a32cd" points="296.503,-1008.89 285.961,-1009.95 294.864,-1015.69 296.503,-1008.89"/>
<text text-anchor="middle" x="624" y="-1043.96" font-family="Helvetica,sans-Serif" font-size="10.00"> m_topBorderShadowArea</text>
<text text-anchor="middle" x="624" y="-1030.96" font-family="Helvetica,sans-Serif" font-size="10.00">m_bottomBorderShadowArea</text>
</g>
<!-- Node8&#45;&gt;Node3 -->
<g id="edge14" class="edge"><title>Node8&#45;&gt;Node3</title>
<path fill="none" stroke="#9a32cd" stroke-dasharray="5,2" d="M274.132,-983.734C282.088,-975.521 292.559,-966.634 304,-961.964 349.797,-943.273 407.29,-943.709 446.14,-947.086"/>
<polygon fill="#9a32cd" stroke="#9a32cd" points="271.448,-981.484 267.324,-991.243 276.634,-986.185 271.448,-981.484"/>
<text text-anchor="middle" x="366" y="-978.964" font-family="Helvetica,sans-Serif" font-size="10.00"> m_boundingRect</text>
<text text-anchor="middle" x="366" y="-965.964" font-family="Helvetica,sans-Serif" font-size="10.00">m_geom</text>
</g>
<!-- Node8&#45;&gt;Node11 -->
<g id="edge24" class="edge"><title>Node8&#45;&gt;Node11</title>
<path fill="none" stroke="#9a32cd" stroke-dasharray="5,2" d="M295.682,-1002.53C371.738,-1002.83 551.571,-998.924 696,-959.964 733.718,-949.79 774.589,-929.114 797.572,-916.506"/>
<polygon fill="#9a32cd" stroke="#9a32cd" points="295.676,-999.035 285.653,-1002.47 295.629,-1006.03 295.676,-999.035"/>
<text text-anchor="middle" x="490" y="-1013.96" font-family="Helvetica,sans-Serif" font-size="10.00"> m_sourceRect</text>
<text text-anchor="middle" x="490" y="-1000.96" font-family="Helvetica,sans-Serif" font-size="10.00">m_sourceGeom</text>
</g>
<!-- Node9 -->
<g id="node16" class="node"><title>Node9</title>
<a xlink:href="classint.htm" target="_top" xlink:title="int">
<polygon fill="white" stroke="black" points="244.5,-647.464 244.5,-668.464 273.5,-668.464 273.5,-647.464 244.5,-647.464"/>
<text text-anchor="middle" x="259" y="-655.464" font-family="Helvetica,sans-Serif" font-size="10.00">int</text>
</a>
</g>
<!-- Node9&#45;&gt;Node2 -->
<g id="edge54" class="edge"><title>Node9&#45;&gt;Node2</title>
<path fill="none" stroke="#9a32cd" stroke-dasharray="5,2" d="M283.883,-656.169C334.391,-652.622 452.581,-644.813 552,-641.964 616.644,-640.112 1070,-645.256 1134,-635.964 1154.91,-632.929 1178.12,-626.274 1194.31,-621.074"/>
<polygon fill="#9a32cd" stroke="#9a32cd" points="283.35,-652.698 273.623,-656.897 283.845,-659.681 283.35,-652.698"/>
<text text-anchor="middle" x="624" y="-645.964" font-family="Helvetica,sans-Serif" font-size="10.00"> m_scrollLockTouchId</text>
</g>
<!-- Node9&#45;&gt;Node3 -->
<g id="edge16" class="edge"><title>Node9&#45;&gt;Node3</title>
<path fill="none" stroke="#9a32cd" stroke-dasharray="5,2" d="M282.981,-667.185C320.957,-683.173 394.097,-719.901 428,-776.964 463.649,-836.967 404.909,-876.55 446,-932.964 448.767,-936.763 452.428,-939.856 456.461,-942.372"/>
<polygon fill="#9a32cd" stroke="#9a32cd" points="284.277,-663.934 273.696,-663.396 281.632,-670.415 284.277,-663.934"/>
<text text-anchor="middle" x="366" y="-793.964" font-family="Helvetica,sans-Serif" font-size="10.00"> MagicTypePropertyValue</text>
<text text-anchor="middle" x="366" y="-780.964" font-family="Helvetica,sans-Serif" font-size="10.00">MagicTypePropertyKey</text>
</g>
<!-- Node10 -->
<g id="node18" class="node"><title>Node10</title>
<polygon fill="white" stroke="#bfbfbf" points="794.5,-1133.46 794.5,-1154.46 837.5,-1154.46 837.5,-1133.46 794.5,-1133.46"/>
<text text-anchor="middle" x="816" y="-1141.46" font-family="Helvetica,sans-Serif" font-size="10.00">Enum</text>
</g>
<!-- Node10&#45;&gt;Node1 -->
<g id="edge78" class="edge"><title>Node10&#45;&gt;Node1</title>
<path fill="none" stroke="#9a32cd" stroke-dasharray="5,2" d="M847.874,-1152.7C908.125,-1167.32 1041.02,-1190.39 1134,-1138.96 1363.83,-1011.85 1469.11,-666.506 1487.16,-601.569"/>
<polygon fill="#9a32cd" stroke="#9a32cd" points="848.383,-1149.22 837.831,-1150.18 846.676,-1156.01 848.383,-1149.22"/>
<text text-anchor="middle" x="1215" y="-1127.96" font-family="Helvetica,sans-Serif" font-size="10.00"> m_pageMode</text>
</g>
<!-- Node10&#45;&gt;Node2 -->
<g id="edge18" class="edge"><title>Node10&#45;&gt;Node2</title>
<path fill="none" stroke="#9a32cd" stroke-dasharray="5,2" d="M847.677,-1138.92C871.847,-1135.14 905.986,-1129.96 936,-1125.96 979.909,-1120.12 1101.93,-1133.52 1134,-1102.96 1206.12,-1034.26 1214.04,-689.933 1214.9,-624.656"/>
<polygon fill="#9a32cd" stroke="#9a32cd" points="846.983,-1135.49 837.648,-1140.5 848.07,-1142.4 846.983,-1135.49"/>
<text text-anchor="middle" x="1035" y="-1129.96" font-family="Helvetica,sans-Serif" font-size="10.00"> m_scrollDirectionLock</text>
</g>
<!-- Node11&#45;&gt;Node2 -->
<g id="edge20" class="edge"><title>Node11&#45;&gt;Node2</title>
<path fill="none" stroke="#9a32cd" stroke-dasharray="5,2" d="M872.613,-913.844C942.353,-920.234 1060.58,-919.807 1134,-857.964 1171.72,-826.189 1204.68,-667.434 1212.99,-624.618"/>
<polygon fill="#9a32cd" stroke="#9a32cd" points="872.567,-910.322 862.269,-912.814 871.873,-917.288 872.567,-910.322"/>
<text text-anchor="middle" x="1035" y="-920.964" font-family="Helvetica,sans-Serif" font-size="10.00"> m_p_scroll</text>
</g>
<!-- Node12 -->
<g id="node24" class="node"><title>Node12</title>
<polygon fill="white" stroke="#bfbfbf" points="472,-848.464 472,-869.464 508,-869.464 508,-848.464 472,-848.464"/>
<text text-anchor="middle" x="490" y="-856.464" font-family="Helvetica,sans-Serif" font-size="10.00">bool</text>
</g>
<!-- Node12&#45;&gt;Node2 -->
<g id="edge58" class="edge"><title>Node12&#45;&gt;Node2</title>
<path fill="none" stroke="#9a32cd" stroke-dasharray="5,2" d="M518.316,-857.726C629.074,-852.401 1031.88,-828.381 1134,-756.964 1181.93,-723.443 1205.04,-651.909 1212.34,-624.738"/>
<polygon fill="#9a32cd" stroke="#9a32cd" points="518.07,-854.234 508.245,-858.197 518.397,-861.226 518.07,-854.234"/>
<text text-anchor="middle" x="816" y="-860.964" font-family="Helvetica,sans-Serif" font-size="10.00"> m_pageActive</text>
<text text-anchor="middle" x="816" y="-847.964" font-family="Helvetica,sans-Serif" font-size="10.00">m_interactionsBlocked</text>
</g>
<!-- Node12&#45;&gt;Node11 -->
<g id="edge26" class="edge"><title>Node12&#45;&gt;Node11</title>
<path fill="none" stroke="#9a32cd" stroke-dasharray="5,2" d="M518.468,-863.069C574.922,-871.208 701.498,-889.456 769.95,-899.325"/>
<polygon fill="#9a32cd" stroke="#9a32cd" points="518.858,-859.589 508.461,-861.626 517.859,-866.517 518.858,-859.589"/>
<text text-anchor="middle" x="624" y="-892.964" font-family="Helvetica,sans-Serif" font-size="10.00"> m_inOverscroll</text>
</g>
<!-- Node13 -->
<g id="node26" class="node"><title>Node13</title>
<polygon fill="white" stroke="#bfbfbf" points="467,-755.464 467,-776.464 513,-776.464 513,-755.464 467,-755.464"/>
<text text-anchor="middle" x="490" y="-763.464" font-family="Helvetica,sans-Serif" font-size="10.00">qint32</text>
</g>
<!-- Node13&#45;&gt;Node2 -->
<g id="edge70" class="edge"><title>Node13&#45;&gt;Node2</title>
<path fill="none" stroke="#9a32cd" stroke-dasharray="5,2" d="M523.307,-762.654C532.593,-761.754 542.687,-760.799 552,-759.964 810.509,-736.797 903.927,-832.09 1134,-711.964 1172.16,-692.043 1199.18,-645.609 1209.89,-624.612"/>
<polygon fill="#9a32cd" stroke="#9a32cd" points="522.864,-759.18 513.252,-763.636 523.545,-766.147 522.864,-759.18"/>
<text text-anchor="middle" x="816" y="-778.964" font-family="Helvetica,sans-Serif" font-size="10.00"> m_pageUiIndex</text>
</g>
<!-- Node13&#45;&gt;Node11 -->
<g id="edge28" class="edge"><title>Node13&#45;&gt;Node11</title>
<path fill="none" stroke="#9a32cd" stroke-dasharray="5,2" d="M523.371,-763.715C568.501,-762.581 648.765,-767.609 696,-811.964 716.917,-831.606 693.929,-853.459 714,-873.964 728.67,-888.952 750.262,-896.943 769.808,-901.194"/>
<polygon fill="#9a32cd" stroke="#9a32cd" points="523.094,-760.222 513.23,-764.089 523.352,-767.218 523.094,-760.222"/>
<text text-anchor="middle" x="624" y="-854.964" font-family="Helvetica,sans-Serif" font-size="10.00"> m_maxSourceRectWidth</text>
<text text-anchor="middle" x="624" y="-841.964" font-family="Helvetica,sans-Serif" font-size="10.00">m_maxSourceRectHeight</text>
<text text-anchor="middle" x="624" y="-828.964" font-family="Helvetica,sans-Serif" font-size="10.00">m_overscrollVal</text>
<text text-anchor="middle" x="624" y="-815.964" font-family="Helvetica,sans-Serif" font-size="10.00">m_overscrollBottomStart</text>
</g>
<!-- Node14 -->
<g id="node28" class="node"><title>Node14</title>
<polygon fill="white" stroke="#bfbfbf" points="466.5,-902.464 466.5,-923.464 513.5,-923.464 513.5,-902.464 466.5,-902.464"/>
<text text-anchor="middle" x="490" y="-910.464" font-family="Helvetica,sans-Serif" font-size="10.00">QRect</text>
</g>
<!-- Node14&#45;&gt;Node11 -->
<g id="edge30" class="edge"><title>Node14&#45;&gt;Node11</title>
<path fill="none" stroke="#9a32cd" stroke-dasharray="5,2" d="M523.938,-912.236C582.738,-910.973 703.61,-908.378 769.936,-906.954"/>
<polygon fill="#9a32cd" stroke="#9a32cd" points="523.63,-908.741 513.708,-912.455 523.781,-915.74 523.63,-908.741"/>
<text text-anchor="middle" x="624" y="-928.964" font-family="Helvetica,sans-Serif" font-size="10.00"> m_screenGeom</text>
<text text-anchor="middle" x="624" y="-915.964" font-family="Helvetica,sans-Serif" font-size="10.00">m_targetRect</text>
</g>
<!-- Node15 -->
<g id="node30" class="node"><title>Node15</title>
<polygon fill="white" stroke="#bfbfbf" points="745.5,-570.464 745.5,-591.464 886.5,-591.464 886.5,-570.464 745.5,-570.464"/>
<text text-anchor="middle" x="816" y="-578.464" font-family="Helvetica,sans-Serif" font-size="10.00">QPointer&lt; PixmapObject &gt;</text>
</g>
<!-- Node15&#45;&gt;Node2 -->
<g id="edge32" class="edge"><title>Node15&#45;&gt;Node2</title>
<path fill="none" stroke="#9a32cd" stroke-dasharray="5,2" d="M896.734,-582.715C961.159,-584.79 1053.62,-589.286 1134,-598.964 1154.73,-601.46 1178.16,-605.988 1194.47,-609.419"/>
<polygon fill="#9a32cd" stroke="#9a32cd" points="896.744,-579.214 886.641,-582.402 896.528,-586.211 896.744,-579.214"/>
<text text-anchor="middle" x="1035" y="-602.964" font-family="Helvetica,sans-Serif" font-size="10.00"> m_qp_backgroundPmo</text>
</g>
<!-- Node16 -->
<g id="node32" class="node"><title>Node16</title>
<polygon fill="white" stroke="#bfbfbf" points="790,-530.464 790,-551.464 842,-551.464 842,-530.464 790,-530.464"/>
<text text-anchor="middle" x="816" y="-538.464" font-family="Helvetica,sans-Serif" font-size="10.00">QTimer</text>
</g>
<!-- Node16&#45;&gt;Node2 -->
<g id="edge34" class="edge"><title>Node16&#45;&gt;Node2</title>
<path fill="none" stroke="#9a32cd" stroke-dasharray="5,2" d="M852.09,-540.238C925.003,-539.376 1086.93,-540.703 1134,-567.964 1146.16,-575.009 1140.7,-585.613 1152,-593.964 1164.46,-603.17 1181.3,-608.229 1194.43,-610.954"/>
<polygon fill="#9a32cd" stroke="#9a32cd" points="851.952,-536.74 842.002,-540.379 852.05,-543.739 851.952,-536.74"/>
<text text-anchor="middle" x="1035" y="-571.964" font-family="Helvetica,sans-Serif" font-size="10.00"> m_scrollFSMTimer</text>
</g>
<!-- Node17 -->
<g id="node34" class="node"><title>Node17</title>
<polygon fill="white" stroke="#bfbfbf" points="752,-490.464 752,-511.464 880,-511.464 880,-490.464 752,-490.464"/>
<text text-anchor="middle" x="816" y="-498.464" font-family="Helvetica,sans-Serif" font-size="10.00">QPointer&lt; IconLayout &gt;</text>
</g>
<!-- Node17&#45;&gt;Node2 -->
<g id="edge36" class="edge"><title>Node17&#45;&gt;Node2</title>
<path fill="none" stroke="#9a32cd" stroke-dasharray="5,2" d="M890.432,-501.843C978.552,-503.575 1115.74,-508.715 1134,-523.964 1158.66,-544.552 1129.93,-570.626 1152,-593.964 1162.96,-605.553 1180.59,-610.454 1194.42,-612.512"/>
<polygon fill="#9a32cd" stroke="#9a32cd" points="890.27,-498.339 880.206,-501.653 890.14,-505.338 890.27,-498.339"/>
<text text-anchor="middle" x="1035" y="-527.964" font-family="Helvetica,sans-Serif" font-size="10.00"> m_qp_iconLayout</text>
</g>
<!-- Node18 -->
<g id="node36" class="node"><title>Node18</title>
<a xlink:href="classKineticScroller.htm" target="_top" xlink:title="KineticScroller">
<polygon fill="white" stroke="black" points="774,-450.464 774,-471.464 858,-471.464 858,-450.464 774,-450.464"/>
<text text-anchor="middle" x="816" y="-458.464" font-family="Helvetica,sans-Serif" font-size="10.00">KineticScroller</text>
</a>
</g>
<!-- Node18&#45;&gt;Node2 -->
<g id="edge38" class="edge"><title>Node18&#45;&gt;Node2</title>
<path fill="none" stroke="#9a32cd" stroke-dasharray="5,2" d="M868.276,-463.572C956.026,-468.183 1124.37,-478.123 1134,-486.964 1169.52,-519.583 1120.38,-557.552 1152,-593.964 1162.53,-606.095 1180.39,-610.939 1194.4,-612.839"/>
<polygon fill="#9a32cd" stroke="#9a32cd" points="868.416,-460.075 858.247,-463.05 868.051,-467.066 868.416,-460.075"/>
<text text-anchor="middle" x="1035" y="-490.964" font-family="Helvetica,sans-Serif" font-size="10.00"> m_failmaticScroller</text>
</g>
<!-- Node19 -->
<g id="node38" class="node"><title>Node19</title>
<a xlink:href="classQObject.htm" target="_top" xlink:title="QObject">
<polygon fill="white" stroke="black" points="462.5,-450.464 462.5,-471.464 517.5,-471.464 517.5,-450.464 462.5,-450.464"/>
<text text-anchor="middle" x="490" y="-458.464" font-family="Helvetica,sans-Serif" font-size="10.00">QObject</text>
</a>
</g>
<!-- Node19&#45;&gt;Node18 -->
<g id="edge40" class="edge"><title>Node19&#45;&gt;Node18</title>
<path fill="none" stroke="midnightblue" d="M527.514,-460.964C588.724,-460.964 709.667,-460.964 773.788,-460.964"/>
<polygon fill="midnightblue" stroke="midnightblue" points="527.514,-457.465 517.514,-460.964 527.514,-464.465 527.514,-457.465"/>
</g>
<!-- Node20 -->
<g id="node42" class="node"><title>Node20</title>
<polygon fill="white" stroke="#bfbfbf" points="787,-389.464 787,-410.464 845,-410.464 845,-389.464 787,-389.464"/>
<text text-anchor="middle" x="816" y="-397.464" font-family="Helvetica,sans-Serif" font-size="10.00">QState *</text>
</g>
<!-- Node20&#45;&gt;Node2 -->
<g id="edge46" class="edge"><title>Node20&#45;&gt;Node2</title>
<path fill="none" stroke="#9a32cd" stroke-dasharray="5,2" d="M855.257,-393.572C931.213,-382.179 1094.31,-362.768 1134,-398.964 1166.15,-428.288 1124.71,-560.064 1152,-593.964 1162.15,-606.569 1180.23,-611.356 1194.42,-613.113"/>
<polygon fill="#9a32cd" stroke="#9a32cd" points="854.496,-390.148 845.14,-395.12 855.554,-397.068 854.496,-390.148"/>
<text text-anchor="middle" x="1035" y="-454.964" font-family="Helvetica,sans-Serif" font-size="10.00"> m_p_fsmStateNoTouch</text>
<text text-anchor="middle" x="1035" y="-441.964" font-family="Helvetica,sans-Serif" font-size="10.00">m_p_fsmStateScrollDelay</text>
<text text-anchor="middle" x="1035" y="-428.964" font-family="Helvetica,sans-Serif" font-size="10.00">m_p_fsmStateScrollOk</text>
<text text-anchor="middle" x="1035" y="-415.964" font-family="Helvetica,sans-Serif" font-size="10.00">m_p_fsmStateTouchMotionTracking</text>
<text text-anchor="middle" x="1035" y="-402.964" font-family="Helvetica,sans-Serif" font-size="10.00">m_p_fsmStateTouchStationaryTracking</text>
</g>
<!-- Node21 -->
<g id="node44" class="node"><title>Node21</title>
<polygon fill="white" stroke="#bfbfbf" points="767,-342.464 767,-363.464 865,-363.464 865,-342.464 767,-342.464"/>
<text text-anchor="middle" x="816" y="-350.464" font-family="Helvetica,sans-Serif" font-size="10.00">QStateMachine *</text>
</g>
<!-- Node21&#45;&gt;Node2 -->
<g id="edge48" class="edge"><title>Node21&#45;&gt;Node2</title>
<path fill="none" stroke="#9a32cd" stroke-dasharray="5,2" d="M874.991,-347.927C961.753,-341.153 1115.54,-331.815 1134,-348.964 1173.99,-386.125 1118.17,-551.119 1152,-593.964 1162.03,-606.663 1180.12,-611.441 1194.35,-613.17"/>
<polygon fill="#9a32cd" stroke="#9a32cd" points="874.706,-344.438 865.013,-348.717 875.259,-351.416 874.706,-344.438"/>
<text text-anchor="middle" x="1035" y="-365.964" font-family="Helvetica,sans-Serif" font-size="10.00"> m_p_scrollDelayFSM</text>
<text text-anchor="middle" x="1035" y="-352.964" font-family="Helvetica,sans-Serif" font-size="10.00">m_p_touchFSM</text>
</g>
<!-- Node22 -->
<g id="node46" class="node"><title>Node22</title>
<polygon fill="white" stroke="#bfbfbf" points="714.5,-302.464 714.5,-323.464 917.5,-323.464 917.5,-302.464 714.5,-302.464"/>
<text text-anchor="middle" x="816" y="-310.464" font-family="Helvetica,sans-Serif" font-size="10.00">QMap&lt; QUuid, QPointer&lt; IconBase &gt; &gt;</text>
</g>
<!-- Node22&#45;&gt;Node2 -->
<g id="edge50" class="edge"><title>Node22&#45;&gt;Node2</title>
<path fill="none" stroke="#9a32cd" stroke-dasharray="5,2" d="M922.072,-301.661C1002.68,-295.667 1104.57,-294.539 1134,-322.964 1177.42,-364.891 1114.76,-546.465 1152,-593.964 1161.98,-606.698 1180.08,-611.472 1194.33,-613.192"/>
<polygon fill="#9a32cd" stroke="#9a32cd" points="921.552,-298.191 911.853,-302.455 922.095,-305.17 921.552,-298.191"/>
<text text-anchor="middle" x="1035" y="-326.964" font-family="Helvetica,sans-Serif" font-size="10.00"> m_pendingExternalIconAddWaitlist</text>
</g>
<!-- Node23 -->
<g id="node48" class="node"><title>Node23</title>
<polygon fill="white" stroke="#bfbfbf" points="786.5,-257.464 786.5,-278.464 845.5,-278.464 845.5,-257.464 786.5,-257.464"/>
<text text-anchor="middle" x="816" y="-265.464" font-family="Helvetica,sans-Serif" font-size="10.00">QPixmap</text>
</g>
<!-- Node23&#45;&gt;Node2 -->
<g id="edge52" class="edge"><title>Node23&#45;&gt;Node2</title>
<path fill="none" stroke="#9a32cd" stroke-dasharray="5,2" d="M855.946,-261.645C932.364,-250.556 1095.13,-232.075 1134,-268.964 1160.23,-293.862 1129.84,-565.379 1152,-593.964 1161.91,-606.753 1180.02,-611.521 1194.28,-613.225"/>
<polygon fill="#9a32cd" stroke="#9a32cd" points="855.137,-258.227 845.758,-263.155 856.163,-265.151 855.137,-258.227"/>
<text text-anchor="middle" x="1035" y="-285.964" font-family="Helvetica,sans-Serif" font-size="10.00"> m_bottomBorderShadowPixmap</text>
<text text-anchor="middle" x="1035" y="-272.964" font-family="Helvetica,sans-Serif" font-size="10.00">m_topBorderShadowPixmap</text>
</g>
<!-- Node24 -->
<g id="node51" class="node"><title>Node24</title>
<polygon fill="white" stroke="#bfbfbf" points="740.5,-217.464 740.5,-238.464 891.5,-238.464 891.5,-217.464 740.5,-217.464"/>
<text text-anchor="middle" x="816" y="-225.464" font-family="Helvetica,sans-Serif" font-size="10.00">QPointer&lt; LauncherObject &gt;</text>
</g>
<!-- Node24&#45;&gt;Node2 -->
<g id="edge56" class="edge"><title>Node24&#45;&gt;Node2</title>
<path fill="none" stroke="#9a32cd" stroke-dasharray="5,2" d="M900.842,-216.265C983.685,-206.969 1101.85,-200.076 1134,-230.964 1163.12,-258.941 1127.35,-561.975 1152,-593.964 1161.88,-606.782 1179.98,-611.547 1194.26,-613.242"/>
<polygon fill="#9a32cd" stroke="#9a32cd" points="900.202,-212.816 890.669,-217.438 901.004,-219.77 900.202,-212.816"/>
<text text-anchor="middle" x="1035" y="-234.964" font-family="Helvetica,sans-Serif" font-size="10.00"> m_qp_currentUIOwner</text>
</g>
<!-- Node25 -->
<g id="node54" class="node"><title>Node25</title>
<polygon fill="white" stroke="#bfbfbf" points="790,-170.464 790,-191.464 842,-191.464 842,-170.464 790,-170.464"/>
<text text-anchor="middle" x="816" y="-178.464" font-family="Helvetica,sans-Serif" font-size="10.00">QBrush</text>
</g>
<!-- Node25&#45;&gt;Node2 -->
<g id="edge60" class="edge"><title>Node25&#45;&gt;Node2</title>
<path fill="none" stroke="#9a32cd" stroke-dasharray="5,2" d="M852.108,-177.98C931.15,-171.835 1114.06,-159.871 1134,-178.964 1167.34,-210.886 1123.94,-557.316 1152,-593.964 1161.84,-606.812 1179.95,-611.575 1194.24,-613.261"/>
<polygon fill="#9a32cd" stroke="#9a32cd" points="851.807,-174.493 842.114,-178.77 852.358,-181.471 851.807,-174.493"/>
<text text-anchor="middle" x="1035" y="-195.964" font-family="Helvetica,sans-Serif" font-size="10.00"> m_topBorderShadowBrush</text>
<text text-anchor="middle" x="1035" y="-182.964" font-family="Helvetica,sans-Serif" font-size="10.00">m_bottomBorderShadowBrush</text>
</g>
<!-- Node26 -->
<g id="node56" class="node"><title>Node26</title>
<polygon fill="white" stroke="#bfbfbf" points="765,-69.4645 765,-90.4645 867,-90.4645 867,-69.4645 765,-69.4645"/>
<text text-anchor="middle" x="816" y="-77.4645" font-family="Helvetica,sans-Serif" font-size="10.00">static const char *</text>
</g>
<!-- Node26&#45;&gt;Node2 -->
<g id="edge62" class="edge"><title>Node26&#45;&gt;Node2</title>
<path fill="none" stroke="#9a32cd" stroke-dasharray="5,2" d="M877.062,-71.8784C959.204,-62.5273 1099.05,-52.4795 1134,-86.9645 1174.13,-126.554 1117.91,-549.071 1152,-593.964 1161.78,-606.851 1179.9,-611.609 1194.21,-613.284"/>
<polygon fill="#9a32cd" stroke="#9a32cd" points="876.624,-68.4057 867.097,-73.0415 877.436,-75.3585 876.624,-68.4057"/>
<text text-anchor="middle" x="1035" y="-155.964" font-family="Helvetica,sans-Serif" font-size="10.00"> TouchFSMPropertyName_isTracking</text>
<text text-anchor="middle" x="1035" y="-142.964" font-family="Helvetica,sans-Serif" font-size="10.00">PageIndexPropertyName</text>
<text text-anchor="middle" x="1035" y="-129.964" font-family="Helvetica,sans-Serif" font-size="10.00">ScrollDelayFSMPropertyName_isScrollOk</text>
<text text-anchor="middle" x="1035" y="-116.964" font-family="Helvetica,sans-Serif" font-size="10.00">TouchFSMProperyName_trackedId</text>
<text text-anchor="middle" x="1035" y="-103.964" font-family="Helvetica,sans-Serif" font-size="10.00">PageDesignatorPropertyName</text>
<text text-anchor="middle" x="1035" y="-90.9645" font-family="Helvetica,sans-Serif" font-size="10.00">PageNamePropertyName</text>
</g>
<!-- Node27 -->
<g id="node58" class="node"><title>Node27</title>
<polygon fill="white" stroke="#bfbfbf" points="741.5,-29.4645 741.5,-50.4645 890.5,-50.4645 890.5,-29.4645 741.5,-29.4645"/>
<text text-anchor="middle" x="816" y="-37.4645" font-family="Helvetica,sans-Serif" font-size="10.00">QMap&lt; int, TouchRegister &gt;</text>
</g>
<!-- Node27&#45;&gt;Node2 -->
<g id="edge64" class="edge"><title>Node27&#45;&gt;Node2</title>
<path fill="none" stroke="#9a32cd" stroke-dasharray="5,2" d="M853.87,-26.1839C920.667,-4.59344 1059.39,27.6078 1134,-45.9645 1177.38,-88.7407 1115.22,-545.396 1152,-593.964 1161.84,-606.955 1180.14,-611.688 1194.5,-613.327"/>
<polygon fill="#9a32cd" stroke="#9a32cd" points="852.555,-22.9327 844.17,-29.4092 854.763,-29.5751 852.555,-22.9327"/>
<text text-anchor="middle" x="1035" y="-49.9645" font-family="Helvetica,sans-Serif" font-size="10.00"> m_touchRegisters</text>
</g>
<!-- Node28 -->
<g id="node60" class="node"><title>Node28</title>
<polygon fill="white" stroke="#bfbfbf" points="772,-1085.46 772,-1106.46 860,-1106.46 860,-1085.46 772,-1085.46"/>
<text text-anchor="middle" x="816" y="-1093.46" font-family="Helvetica,sans-Serif" font-size="10.00">QSet&lt; QUuid &gt;</text>
</g>
<!-- Node28&#45;&gt;Node2 -->
<g id="edge66" class="edge"><title>Node28&#45;&gt;Node2</title>
<path fill="none" stroke="#9a32cd" stroke-dasharray="5,2" d="M870.3,-1092.72C958.584,-1087.2 1124.43,-1075.74 1134,-1066.96 1201.85,-1004.72 1213.18,-687.315 1214.77,-624.7"/>
<polygon fill="#9a32cd" stroke="#9a32cd" points="869.957,-1089.23 860.193,-1093.35 870.39,-1096.22 869.957,-1089.23"/>
<text text-anchor="middle" x="1035" y="-1090.96" font-family="Helvetica,sans-Serif" font-size="10.00"> m_pendingExternalIconRemoveWaitlist</text>
</g>
<!-- Node29 -->
<g id="node62" class="node"><title>Node29</title>
<polygon fill="white" stroke="#bfbfbf" points="735.5,-1045.46 735.5,-1066.46 896.5,-1066.46 896.5,-1045.46 735.5,-1045.46"/>
<text text-anchor="middle" x="816" y="-1053.46" font-family="Helvetica,sans-Serif" font-size="10.00">QPointer&lt; QAnimationGroup &gt;</text>
</g>
<!-- Node29&#45;&gt;Node2 -->
<g id="edge68" class="edge"><title>Node29&#45;&gt;Node2</title>
<path fill="none" stroke="#9a32cd" stroke-dasharray="5,2" d="M906.753,-1054.36C994.724,-1051.93 1117.29,-1045.88 1134,-1030.96 1197.14,-974.611 1212.17,-684.161 1214.61,-624.633"/>
<polygon fill="#9a32cd" stroke="#9a32cd" points="906.647,-1050.86 896.744,-1054.62 906.833,-1057.86 906.647,-1050.86"/>
<text text-anchor="middle" x="1035" y="-1056.96" font-family="Helvetica,sans-Serif" font-size="10.00"> m_qp_ensembleAnimation</text>
</g>
<!-- Node30 -->
<g id="node65" class="node"><title>Node30</title>
<polygon fill="white" stroke="#bfbfbf" points="791.5,-610.464 791.5,-631.464 840.5,-631.464 840.5,-610.464 791.5,-610.464"/>
<text text-anchor="middle" x="816" y="-618.464" font-family="Helvetica,sans-Serif" font-size="10.00">QPoint</text>
</g>
<!-- Node30&#45;&gt;Node2 -->
<g id="edge72" class="edge"><title>Node30&#45;&gt;Node2</title>
<path fill="none" stroke="#9a32cd" stroke-dasharray="5,2" d="M850.81,-620.354C931.629,-618.936 1129.99,-615.456 1194.42,-614.325"/>
<polygon fill="#9a32cd" stroke="#9a32cd" points="850.595,-616.857 840.658,-620.532 850.718,-623.856 850.595,-616.857"/>
<text text-anchor="middle" x="1035" y="-622.964" font-family="Helvetica,sans-Serif" font-size="10.00"> m_iconLayoutOffsetCoord</text>
</g>
<!-- Node31 -->
<g id="node67" class="node"><title>Node31</title>
<polygon fill="white" stroke="#bfbfbf" points="1154.5,-563.464 1154.5,-584.464 1275.5,-584.464 1275.5,-563.464 1154.5,-563.464"/>
<text text-anchor="middle" x="1215" y="-571.464" font-family="Helvetica,sans-Serif" font-size="10.00">QPointer&lt; IconBase &gt;</text>
</g>
<!-- Node31&#45;&gt;Node1 -->
<g id="edge74" class="edge"><title>Node31&#45;&gt;Node1</title>
<path fill="none" stroke="#9a32cd" stroke-dasharray="5,2" d="M1285.97,-573.915C1327.95,-574.473 1382.11,-576.215 1430,-580.964 1435.99,-581.558 1442.29,-582.384 1448.46,-583.308"/>
<polygon fill="#9a32cd" stroke="#9a32cd" points="1285.88,-570.414 1275.84,-573.8 1285.8,-577.413 1285.88,-570.414"/>
<text text-anchor="middle" x="1363" y="-584.964" font-family="Helvetica,sans-Serif" font-size="10.00"> m_qp_cached_trackingIcon</text>
</g>
<!-- Node32 -->
<g id="node69" class="node"><title>Node32</title>
<polygon fill="white" stroke="#bfbfbf" points="1152.5,-523.464 1152.5,-544.464 1277.5,-544.464 1277.5,-523.464 1152.5,-523.464"/>
<text text-anchor="middle" x="1215" y="-531.464" font-family="Helvetica,sans-Serif" font-size="10.00">QPair&lt; QUuid, QUuid &gt;</text>
</g>
<!-- Node32&#45;&gt;Node1 -->
<g id="edge76" class="edge"><title>Node32&#45;&gt;Node1</title>
<path fill="none" stroke="#9a32cd" stroke-dasharray="5,2" d="M1288.18,-535.071C1330.47,-537.441 1384.19,-543.442 1430,-557.964 1446.09,-563.066 1462.79,-572.661 1474.48,-580.196"/>
<polygon fill="#9a32cd" stroke="#9a32cd" points="1288.13,-531.564 1277.96,-534.556 1287.77,-538.555 1288.13,-531.564"/>
<text text-anchor="middle" x="1363" y="-561.964" font-family="Helvetica,sans-Serif" font-size="10.00"> m_trackingIconUids</text>
</g>
</g>
</svg>
