<?xml version="1.0" encoding="UTF-8" standalone="no"?>
<!DOCTYPE svg PUBLIC "-//W3C//DTD SVG 1.1//EN"
 "http://www.w3.org/Graphics/SVG/1.1/DTD/svg11.dtd">
<!-- Generated by graphviz version 2.26.3 (20100126.1600)
 -->
<!-- Title: G Pages: 1 -->
<svg width="1676pt" height="386pt"
 viewBox="0.00 0.00 1676.00 386.00" xmlns="http://www.w3.org/2000/svg" xmlns:xlink="http://www.w3.org/1999/xlink">
<g id="graph1" class="graph" transform="scale(1 1) rotate(0) translate(4 382)">
<title>G</title>
<polygon fill="white" stroke="white" points="-4,5 -4,-382 1673,-382 1673,5 -4,5"/>
<!-- Node1 -->
<g id="node1" class="node"><title>Node1</title>
<polygon fill="#bfbfbf" stroke="black" points="1271,-0.5 1271,-21.5 1363,-21.5 1363,-0.5 1271,-0.5"/>
<text text-anchor="middle" x="1317" y="-8.5" font-family="Helvetica,sans-Serif" font-size="10.00">PixButton2State</text>
</g>
<!-- Node2 -->
<g id="node2" class="node"><title>Node2</title>
<a xlink:href="classPixButton.htm" target="_top" xlink:title="PixButton">
<polygon fill="white" stroke="black" points="672.5,-100.5 672.5,-121.5 733.5,-121.5 733.5,-100.5 672.5,-100.5"/>
<text text-anchor="middle" x="703" y="-108.5" font-family="Helvetica,sans-Serif" font-size="10.00">PixButton</text>
</a>
</g>
<!-- Node2&#45;&gt;Node1 -->
<g id="edge2" class="edge"><title>Node2&#45;&gt;Node1</title>
<path fill="none" stroke="midnightblue" d="M743.896,-104.339C853.812,-86.4377 1155.1,-37.3683 1270.86,-18.5152"/>
<polygon fill="midnightblue" stroke="midnightblue" points="743.176,-100.91 733.869,-105.972 744.302,-107.819 743.176,-100.91"/>
</g>
<!-- Node3 -->
<g id="node4" class="node"><title>Node3</title>
<a xlink:href="classThingPaintable.htm" target="_top" xlink:title="ThingPaintable">
<polygon fill="white" stroke="black" points="130.5,-200.5 130.5,-221.5 217.5,-221.5 217.5,-200.5 130.5,-200.5"/>
<text text-anchor="middle" x="174" y="-208.5" font-family="Helvetica,sans-Serif" font-size="10.00">ThingPaintable</text>
</a>
</g>
<!-- Node3&#45;&gt;Node2 -->
<g id="edge4" class="edge"><title>Node3&#45;&gt;Node2</title>
<path fill="none" stroke="midnightblue" d="M188.543,-192.573C202.759,-176.082 226.01,-152.879 252,-142 290.551,-125.862 577.167,-115.118 672.365,-111.964"/>
<polygon fill="midnightblue" stroke="midnightblue" points="185.667,-190.557 181.965,-200.484 191.05,-195.032 185.667,-190.557"/>
</g>
<!-- Node4 -->
<g id="node6" class="node"><title>Node4</title>
<a xlink:href="classThing.htm" target="_top" xlink:title="Thing">
<polygon fill="white" stroke="black" points="86,-284.5 86,-305.5 130,-305.5 130,-284.5 86,-284.5"/>
<text text-anchor="middle" x="108" y="-292.5" font-family="Helvetica,sans-Serif" font-size="10.00">Thing</text>
</a>
</g>
<!-- Node4&#45;&gt;Node3 -->
<g id="edge6" class="edge"><title>Node4&#45;&gt;Node3</title>
<path fill="none" stroke="midnightblue" d="M122.686,-276.309C135.929,-259.454 154.932,-235.268 165.709,-221.552"/>
<polygon fill="midnightblue" stroke="midnightblue" points="119.785,-274.336 116.359,-284.361 125.289,-278.661 119.785,-274.336"/>
</g>
<!-- Node5 -->
<g id="node8" class="node"><title>Node5</title>
<a xlink:href="classQGraphicsObject.htm" target="_top" xlink:title="QGraphicsObject">
<polygon fill="white" stroke="black" points="0,-356.5 0,-377.5 98,-377.5 98,-356.5 0,-356.5"/>
<text text-anchor="middle" x="49" y="-364.5" font-family="Helvetica,sans-Serif" font-size="10.00">QGraphicsObject</text>
</a>
</g>
<!-- Node5&#45;&gt;Node4 -->
<g id="edge8" class="edge"><title>Node5&#45;&gt;Node4</title>
<path fill="none" stroke="midnightblue" d="M64.0908,-348.584C75.2316,-334.989 90.0067,-316.958 99.2586,-305.667"/>
<polygon fill="midnightblue" stroke="midnightblue" points="61.3367,-346.423 57.7057,-356.376 66.7511,-350.86 61.3367,-346.423"/>
</g>
<!-- Node6 -->
<g id="node10" class="node"><title>Node6</title>
<polygon fill="white" stroke="#bfbfbf" points="116,-356.5 116,-377.5 220,-377.5 220,-356.5 116,-356.5"/>
<text text-anchor="middle" x="168" y="-364.5" font-family="Helvetica,sans-Serif" font-size="10.00">QPointer&lt; Thing &gt;</text>
</g>
<!-- Node6&#45;&gt;Node4 -->
<g id="edge10" class="edge"><title>Node6&#45;&gt;Node4</title>
<path fill="none" stroke="#9a32cd" stroke-dasharray="5,2" d="M152.653,-348.584C141.324,-334.989 126.298,-316.958 116.89,-305.667"/>
<polygon fill="#9a32cd" stroke="#9a32cd" points="150.056,-350.935 159.147,-356.376 155.434,-346.453 150.056,-350.935"/>
<text text-anchor="middle" x="189.5" y="-328.5" font-family="Helvetica,sans-Serif" font-size="10.00"> m_qp_takerOwner</text>
</g>
<!-- Node7 -->
<g id="node12" class="node"><title>Node7</title>
<polygon fill="white" stroke="#bfbfbf" points="590.5,-284.5 590.5,-305.5 643.5,-305.5 643.5,-284.5 590.5,-284.5"/>
<text text-anchor="middle" x="617" y="-292.5" font-family="Helvetica,sans-Serif" font-size="10.00">QString</text>
</g>
<!-- Node7&#45;&gt;Node2 -->
<g id="edge24" class="edge"><title>Node7&#45;&gt;Node2</title>
<path fill="none" stroke="#9a32cd" stroke-dasharray="5,2" d="M632.082,-276.256C648.595,-254.768 674.632,-217.87 689,-182 697.129,-161.707 700.675,-136.199 702.113,-121.941"/>
<polygon fill="#9a32cd" stroke="#9a32cd" points="629.259,-274.185 625.854,-284.218 634.772,-278.497 629.259,-274.185"/>
<text text-anchor="middle" x="701" y="-208.5" font-family="Helvetica,sans-Serif" font-size="10.00"> m_label</text>
</g>
<!-- Node7&#45;&gt;Node3 -->
<g id="edge12" class="edge"><title>Node7&#45;&gt;Node3</title>
<path fill="none" stroke="#9a32cd" stroke-dasharray="5,2" d="M580.516,-284.022C537.678,-271.538 464.299,-251.412 400,-240 323.45,-226.414 302.805,-234.062 226,-222 223.265,-221.571 220.457,-221.091 217.631,-220.578"/>
<polygon fill="#9a32cd" stroke="#9a32cd" points="579.628,-287.409 590.209,-286.869 581.601,-280.693 579.628,-287.409"/>
<text text-anchor="middle" x="539" y="-250.5" font-family="Helvetica,sans-Serif" font-size="10.00"> m_uiState</text>
</g>
<!-- Node8 -->
<g id="node14" class="node"><title>Node8</title>
<polygon fill="white" stroke="#bfbfbf" points="147.5,-284.5 147.5,-305.5 200.5,-305.5 200.5,-284.5 147.5,-284.5"/>
<text text-anchor="middle" x="174" y="-292.5" font-family="Helvetica,sans-Serif" font-size="10.00">QRectF</text>
</g>
<!-- Node8&#45;&gt;Node3 -->
<g id="edge14" class="edge"><title>Node8&#45;&gt;Node3</title>
<path fill="none" stroke="#9a32cd" stroke-dasharray="5,2" d="M174,-273.945C174,-257.257 174,-234.639 174,-221.552"/>
<polygon fill="#9a32cd" stroke="#9a32cd" points="170.5,-274.361 174,-284.361 177.5,-274.361 170.5,-274.361"/>
<text text-anchor="middle" x="215" y="-257" font-family="Helvetica,sans-Serif" font-size="10.00"> m_boundingRect</text>
<text text-anchor="middle" x="215" y="-244" font-family="Helvetica,sans-Serif" font-size="10.00">m_geom</text>
</g>
<!-- Node9 -->
<g id="node16" class="node"><title>Node9</title>
<a xlink:href="classint.htm" target="_top" xlink:title="int">
<polygon fill="white" stroke="black" points="264.5,-284.5 264.5,-305.5 293.5,-305.5 293.5,-284.5 264.5,-284.5"/>
<text text-anchor="middle" x="279" y="-292.5" font-family="Helvetica,sans-Serif" font-size="10.00">int</text>
</a>
</g>
<!-- Node9&#45;&gt;Node3 -->
<g id="edge16" class="edge"><title>Node9&#45;&gt;Node3</title>
<path fill="none" stroke="#9a32cd" stroke-dasharray="5,2" d="M275.084,-274.139C271.953,-262.702 266.461,-249.051 257,-240 250.437,-233.722 232.041,-227.014 214.231,-221.633"/>
<polygon fill="#9a32cd" stroke="#9a32cd" points="271.749,-275.252 277.414,-284.205 278.568,-273.673 271.749,-275.252"/>
<text text-anchor="middle" x="334.5" y="-257" font-family="Helvetica,sans-Serif" font-size="10.00"> MagicTypePropertyValue</text>
<text text-anchor="middle" x="334.5" y="-244" font-family="Helvetica,sans-Serif" font-size="10.00">MagicTypePropertyKey</text>
</g>
<!-- Node10 -->
<g id="node18" class="node"><title>Node10</title>
<polygon fill="white" stroke="#bfbfbf" points="234.5,-200.5 234.5,-221.5 289.5,-221.5 289.5,-200.5 234.5,-200.5"/>
<text text-anchor="middle" x="262" y="-208.5" font-family="Helvetica,sans-Serif" font-size="10.00">QPointF</text>
</g>
<!-- Node10&#45;&gt;Node2 -->
<g id="edge18" class="edge"><title>Node10&#45;&gt;Node2</title>
<path fill="none" stroke="#9a32cd" stroke-dasharray="5,2" d="M257.047,-190.223C254.71,-174.764 254.69,-154.293 267,-142 281.347,-127.673 575.697,-115.659 672.465,-112.084"/>
<polygon fill="#9a32cd" stroke="#9a32cd" points="253.681,-191.252 259.016,-200.406 260.554,-189.923 253.681,-191.252"/>
<text text-anchor="middle" x="304.5" y="-159.5" font-family="Helvetica,sans-Serif" font-size="10.00"> m_labelPosICS</text>
</g>
<!-- Node11 -->
<g id="node20" class="node"><title>Node11</title>
<polygon fill="white" stroke="#bfbfbf" points="321,-200.5 321,-221.5 371,-221.5 371,-200.5 321,-200.5"/>
<text text-anchor="middle" x="346" y="-208.5" font-family="Helvetica,sans-Serif" font-size="10.00">QColor</text>
</g>
<!-- Node11&#45;&gt;Node2 -->
<g id="edge20" class="edge"><title>Node11&#45;&gt;Node2</title>
<path fill="none" stroke="#9a32cd" stroke-dasharray="5,2" d="M345.157,-190.12C345.75,-174.434 349.374,-153.714 363,-142 386.204,-122.052 593.201,-114.115 672.383,-111.791"/>
<polygon fill="#9a32cd" stroke="#9a32cd" points="341.657,-190.453 345.162,-200.452 348.657,-190.45 341.657,-190.453"/>
<text text-anchor="middle" x="408.5" y="-166" font-family="Helvetica,sans-Serif" font-size="10.00"> m_selectedColor</text>
<text text-anchor="middle" x="408.5" y="-153" font-family="Helvetica,sans-Serif" font-size="10.00">m_unselectedColor</text>
</g>
<!-- Node12 -->
<g id="node22" class="node"><title>Node12</title>
<polygon fill="white" stroke="#bfbfbf" points="421.5,-200.5 421.5,-221.5 498.5,-221.5 498.5,-200.5 421.5,-200.5"/>
<text text-anchor="middle" x="460" y="-208.5" font-family="Helvetica,sans-Serif" font-size="10.00">QTextLayout</text>
</g>
<!-- Node12&#45;&gt;Node2 -->
<g id="edge22" class="edge"><title>Node12&#45;&gt;Node2</title>
<path fill="none" stroke="#9a32cd" stroke-dasharray="5,2" d="M457.644,-190.176C457.136,-174.691 459.308,-154.209 472,-142 486.216,-128.325 612.805,-117.496 672.325,-113.112"/>
<polygon fill="#9a32cd" stroke="#9a32cd" points="454.169,-190.654 458.374,-200.379 461.151,-190.154 454.169,-190.654"/>
<text text-anchor="middle" x="520.5" y="-159.5" font-family="Helvetica,sans-Serif" font-size="10.00"> m_textLayoutObject</text>
</g>
<!-- Node13 -->
<g id="node25" class="node"><title>Node13</title>
<polygon fill="white" stroke="#bfbfbf" points="557,-200.5 557,-221.5 603,-221.5 603,-200.5 557,-200.5"/>
<text text-anchor="middle" x="580" y="-208.5" font-family="Helvetica,sans-Serif" font-size="10.00">QFont</text>
</g>
<!-- Node13&#45;&gt;Node2 -->
<g id="edge26" class="edge"><title>Node13&#45;&gt;Node2</title>
<path fill="none" stroke="#9a32cd" stroke-dasharray="5,2" d="M574.222,-190.471C571.32,-175.467 570.368,-155.469 581,-142 592.205,-127.806 639.911,-119.008 672.241,-114.562"/>
<polygon fill="#9a32cd" stroke="#9a32cd" points="570.848,-191.414 576.542,-200.348 577.663,-189.813 570.848,-191.414"/>
<text text-anchor="middle" x="635" y="-166" font-family="Helvetica,sans-Serif" font-size="10.00"> s_standardButtonFont</text>
<text text-anchor="middle" x="635" y="-153" font-family="Helvetica,sans-Serif" font-size="10.00">m_textFont</text>
</g>
<!-- Node14 -->
<g id="node27" class="node"><title>Node14</title>
<polygon fill="white" stroke="#bfbfbf" points="1116,-200.5 1116,-221.5 1152,-221.5 1152,-200.5 1116,-200.5"/>
<text text-anchor="middle" x="1134" y="-208.5" font-family="Helvetica,sans-Serif" font-size="10.00">bool</text>
</g>
<!-- Node14&#45;&gt;Node1 -->
<g id="edge42" class="edge"><title>Node14&#45;&gt;Node1</title>
<path fill="none" stroke="#9a32cd" stroke-dasharray="5,2" d="M1159.29,-194.08C1163.32,-190.481 1167.11,-186.418 1170,-182 1191.21,-149.622 1170.73,-129.657 1193,-98 1218.57,-61.6517 1264.42,-35.3794 1292.63,-21.7204"/>
<polygon fill="#9a32cd" stroke="#9a32cd" points="1157.03,-191.409 1151.42,-200.399 1161.41,-196.868 1157.03,-191.409"/>
<text text-anchor="middle" x="1228" y="-115" font-family="Helvetica,sans-Serif" font-size="10.00"> m_stateActive</text>
<text text-anchor="middle" x="1228" y="-102" font-family="Helvetica,sans-Serif" font-size="10.00">m_valid</text>
</g>
<!-- Node14&#45;&gt;Node2 -->
<g id="edge28" class="edge"><title>Node14&#45;&gt;Node2</title>
<path fill="none" stroke="#9a32cd" stroke-dasharray="5,2" d="M1106.69,-198.155C1099.09,-193.743 1091.22,-188.301 1085,-182 1070.59,-167.408 1079.29,-153.024 1062,-142 1034.6,-124.534 815.246,-115 733.532,-112.027"/>
<polygon fill="#9a32cd" stroke="#9a32cd" points="1105.23,-201.348 1115.7,-203.016 1108.56,-195.187 1105.23,-201.348"/>
<text text-anchor="middle" x="1127.5" y="-159.5" font-family="Helvetica,sans-Serif" font-size="10.00"> m_trackingTouch</text>
</g>
<!-- Node15 -->
<g id="node29" class="node"><title>Node15</title>
<polygon fill="white" stroke="#bfbfbf" points="761,-200.5 761,-221.5 807,-221.5 807,-200.5 761,-200.5"/>
<text text-anchor="middle" x="784" y="-208.5" font-family="Helvetica,sans-Serif" font-size="10.00">qint32</text>
</g>
<!-- Node15&#45;&gt;Node2 -->
<g id="edge30" class="edge"><title>Node15&#45;&gt;Node2</title>
<path fill="none" stroke="#9a32cd" stroke-dasharray="5,2" d="M752.3,-194.937C746.758,-191.199 741.375,-186.866 737,-182 728.457,-172.497 714.253,-138.993 707.217,-121.622"/>
<polygon fill="#9a32cd" stroke="#9a32cd" points="750.67,-198.044 761.019,-200.312 754.343,-192.085 750.67,-198.044"/>
<text text-anchor="middle" x="788.5" y="-172.5" font-family="Helvetica,sans-Serif" font-size="10.00"> m_labelVerticalAdjust</text>
<text text-anchor="middle" x="788.5" y="-159.5" font-family="Helvetica,sans-Serif" font-size="10.00">m_touchCount</text>
<text text-anchor="middle" x="788.5" y="-146.5" font-family="Helvetica,sans-Serif" font-size="10.00">m_trackingTouchId</text>
</g>
<!-- Node16 -->
<g id="node31" class="node"><title>Node16</title>
<polygon fill="white" stroke="#bfbfbf" points="838.5,-200.5 838.5,-221.5 885.5,-221.5 885.5,-200.5 838.5,-200.5"/>
<text text-anchor="middle" x="862" y="-208.5" font-family="Helvetica,sans-Serif" font-size="10.00">QRect</text>
</g>
<!-- Node16&#45;&gt;Node2 -->
<g id="edge32" class="edge"><title>Node16&#45;&gt;Node2</title>
<path fill="none" stroke="#9a32cd" stroke-dasharray="5,2" d="M860.749,-190.234C858.697,-174.78 853.42,-154.311 840,-142 824.681,-127.946 768.997,-118.862 733.511,-114.361"/>
<polygon fill="#9a32cd" stroke="#9a32cd" points="857.288,-190.8 861.744,-200.412 864.254,-190.119 857.288,-190.8"/>
<text text-anchor="middle" x="904" y="-166" font-family="Helvetica,sans-Serif" font-size="10.00"> m_labelMaxGeom</text>
<text text-anchor="middle" x="904" y="-153" font-family="Helvetica,sans-Serif" font-size="10.00">m_labelGeom</text>
</g>
<!-- Node17 -->
<g id="node33" class="node"><title>Node17</title>
<polygon fill="white" stroke="#bfbfbf" points="948.5,-200.5 948.5,-221.5 997.5,-221.5 997.5,-200.5 948.5,-200.5"/>
<text text-anchor="middle" x="973" y="-208.5" font-family="Helvetica,sans-Serif" font-size="10.00">QPoint</text>
</g>
<!-- Node17&#45;&gt;Node2 -->
<g id="edge34" class="edge"><title>Node17&#45;&gt;Node2</title>
<path fill="none" stroke="#9a32cd" stroke-dasharray="5,2" d="M972.113,-190.114C970.265,-174.424 965.086,-153.703 951,-142 934.563,-128.344 796.563,-117.348 733.827,-113.005"/>
<polygon fill="#9a32cd" stroke="#9a32cd" points="968.654,-190.763 972.949,-200.448 975.631,-190.198 968.654,-190.763"/>
<text text-anchor="middle" x="1015" y="-159.5" font-family="Helvetica,sans-Serif" font-size="10.00"> m_labelPosPntCS</text>
</g>
<!-- Node18 -->
<g id="node35" class="node"><title>Node18</title>
<polygon fill="white" stroke="#bfbfbf" points="1271.5,-100.5 1271.5,-121.5 1412.5,-121.5 1412.5,-100.5 1271.5,-100.5"/>
<text text-anchor="middle" x="1342" y="-108.5" font-family="Helvetica,sans-Serif" font-size="10.00">QPointer&lt; PixmapObject &gt;</text>
</g>
<!-- Node18&#45;&gt;Node1 -->
<g id="edge36" class="edge"><title>Node18&#45;&gt;Node1</title>
<path fill="none" stroke="#9a32cd" stroke-dasharray="5,2" d="M1324.46,-92.19C1321.82,-88.401 1319.49,-84.2641 1318,-80 1311.11,-60.3242 1313.13,-35.5189 1315.12,-21.6468"/>
<polygon fill="#9a32cd" stroke="#9a32cd" points="1321.94,-94.6498 1330.91,-100.296 1327.42,-90.2914 1321.94,-94.6498"/>
<text text-anchor="middle" x="1390" y="-70.5" font-family="Helvetica,sans-Serif" font-size="10.00"> m_qp_pixActive</text>
<text text-anchor="middle" x="1390" y="-57.5" font-family="Helvetica,sans-Serif" font-size="10.00">m_qp_pixNormal</text>
<text text-anchor="middle" x="1390" y="-44.5" font-family="Helvetica,sans-Serif" font-size="10.00">m_qp_currentlyRenderingPmo</text>
</g>
<!-- Node19 -->
<g id="node37" class="node"><title>Node19</title>
<polygon fill="white" stroke="#bfbfbf" points="1455,-100.5 1455,-121.5 1513,-121.5 1513,-100.5 1455,-100.5"/>
<text text-anchor="middle" x="1484" y="-108.5" font-family="Helvetica,sans-Serif" font-size="10.00">QState *</text>
</g>
<!-- Node19&#45;&gt;Node1 -->
<g id="edge38" class="edge"><title>Node19&#45;&gt;Node1</title>
<path fill="none" stroke="#9a32cd" stroke-dasharray="5,2" d="M1483.09,-90.2764C1481.25,-74.2478 1476.09,-52.7102 1462,-40 1447.65,-27.0618 1400.06,-19.3132 1363.27,-15.1241"/>
<polygon fill="#9a32cd" stroke="#9a32cd" points="1479.61,-90.6318 1483.91,-100.317 1486.59,-90.0669 1479.61,-90.6318"/>
<text text-anchor="middle" x="1523" y="-64" font-family="Helvetica,sans-Serif" font-size="10.00"> m_p_stateActive</text>
<text text-anchor="middle" x="1523" y="-51" font-family="Helvetica,sans-Serif" font-size="10.00">m_p_stateNormal</text>
</g>
<!-- Node20 -->
<g id="node39" class="node"><title>Node20</title>
<polygon fill="white" stroke="#bfbfbf" points="1542,-100.5 1542,-121.5 1640,-121.5 1640,-100.5 1542,-100.5"/>
<text text-anchor="middle" x="1591" y="-108.5" font-family="Helvetica,sans-Serif" font-size="10.00">QStateMachine *</text>
</g>
<!-- Node20&#45;&gt;Node1 -->
<g id="edge40" class="edge"><title>Node20&#45;&gt;Node1</title>
<path fill="none" stroke="#9a32cd" stroke-dasharray="5,2" d="M1590.4,-90.2218C1588.75,-73.9813 1583.69,-52.1828 1569,-40 1553.49,-27.1372 1431.38,-17.8452 1363,-13.5917"/>
<polygon fill="#9a32cd" stroke="#9a32cd" points="1586.92,-90.6455 1591.08,-100.391 1593.91,-90.1801 1586.92,-90.6455"/>
<text text-anchor="middle" x="1628" y="-57.5" font-family="Helvetica,sans-Serif" font-size="10.00"> m_p_buttonFSM</text>
</g>
</g>
</svg>
