<?xml version="1.0" encoding="UTF-8" standalone="no"?>
<!DOCTYPE svg PUBLIC "-//W3C//DTD SVG 1.1//EN"
 "http://www.w3.org/Graphics/SVG/1.1/DTD/svg11.dtd">
<!-- Generated by graphviz version 2.26.3 (20100126.1600)
 -->
<!-- Title: G Pages: 1 -->
<svg width="949pt" height="226pt"
 viewBox="0.00 0.00 949.00 226.00" xmlns="http://www.w3.org/2000/svg" xmlns:xlink="http://www.w3.org/1999/xlink">
<g id="graph1" class="graph" transform="scale(1 1) rotate(0) translate(4 222)">
<title>G</title>
<polygon fill="white" stroke="white" points="-4,5 -4,-222 946,-222 946,5 -4,5"/>
<!-- Node1 -->
<g id="node1" class="node"><title>Node1</title>
<polygon fill="#bfbfbf" stroke="black" points="631,-0.5 631,-21.5 713,-21.5 713,-0.5 631,-0.5"/>
<text text-anchor="middle" x="672" y="-8.5" font-family="Helvetica,sans-Serif" font-size="10.00">DimensionsUI</text>
</g>
<!-- Node2 -->
<g id="node2" class="node"><title>Node2</title>
<a xlink:href="classWindow.htm" target="_top" xlink:title="Window">
<polygon fill="white" stroke="black" points="457,-72.5 457,-93.5 511,-93.5 511,-72.5 457,-72.5"/>
<text text-anchor="middle" x="484" y="-80.5" font-family="Helvetica,sans-Serif" font-size="10.00">Window</text>
</a>
</g>
<!-- Node2&#45;&gt;Node1 -->
<g id="edge2" class="edge"><title>Node2&#45;&gt;Node1</title>
<path fill="none" stroke="midnightblue" d="M521.047,-68.8117C557.297,-54.9286 611.685,-34.0993 644.324,-21.5994"/>
<polygon fill="midnightblue" stroke="midnightblue" points="519.424,-65.6855 511.337,-72.5306 521.927,-72.2225 519.424,-65.6855"/>
</g>
<!-- Node3 -->
<g id="node4" class="node"><title>Node3</title>
<a xlink:href="classQGraphicsObject.htm" target="_top" xlink:title="QGraphicsObject">
<polygon fill="white" stroke="black" points="0,-196.5 0,-217.5 98,-217.5 98,-196.5 0,-196.5"/>
<text text-anchor="middle" x="49" y="-204.5" font-family="Helvetica,sans-Serif" font-size="10.00">QGraphicsObject</text>
</a>
</g>
<!-- Node3&#45;&gt;Node2 -->
<g id="edge4" class="edge"><title>Node3&#45;&gt;Node2</title>
<path fill="none" stroke="midnightblue" d="M66.1648,-189.131C88.9178,-166.731 131.417,-129.193 176,-112 226.989,-92.3371 391.539,-85.61 456.886,-83.6778"/>
<polygon fill="midnightblue" stroke="midnightblue" points="63.5404,-186.806 58.9692,-196.364 68.5031,-191.743 63.5404,-186.806"/>
</g>
<!-- Node4 -->
<g id="node6" class="node"><title>Node4</title>
<a xlink:href="classApplicationDescription.htm" target="_top" xlink:title="ApplicationDescription">
<polygon fill="white" stroke="black" points="116,-196.5 116,-217.5 238,-217.5 238,-196.5 116,-196.5"/>
<text text-anchor="middle" x="177" y="-204.5" font-family="Helvetica,sans-Serif" font-size="10.00">ApplicationDescription</text>
</a>
</g>
<!-- Node4&#45;&gt;Node2 -->
<g id="edge6" class="edge"><title>Node4&#45;&gt;Node2</title>
<path fill="none" stroke="#9a32cd" stroke-dasharray="5,2" d="M178.217,-186.338C180.714,-164.212 188.267,-129.88 211,-112 230.059,-97.0094 391.326,-87.5264 456.669,-84.2673"/>
<polygon fill="#9a32cd" stroke="#9a32cd" points="174.725,-186.101 177.336,-196.369 181.698,-186.714 174.725,-186.101"/>
<text text-anchor="middle" x="241" y="-142.5" font-family="Helvetica,sans-Serif" font-size="10.00"> m_appDesc</text>
</g>
<!-- Node5 -->
<g id="node8" class="node"><title>Node5</title>
<polygon fill="white" stroke="#bfbfbf" points="255.5,-196.5 255.5,-217.5 308.5,-217.5 308.5,-196.5 255.5,-196.5"/>
<text text-anchor="middle" x="282" y="-204.5" font-family="Helvetica,sans-Serif" font-size="10.00">QRectF</text>
</g>
<!-- Node5&#45;&gt;Node2 -->
<g id="edge8" class="edge"><title>Node5&#45;&gt;Node2</title>
<path fill="none" stroke="#9a32cd" stroke-dasharray="5,2" d="M276.812,-186.179C272.826,-164.724 270.697,-131.711 289,-112 300.266,-99.8668 405.909,-89.5072 456.821,-85.172"/>
<polygon fill="#9a32cd" stroke="#9a32cd" points="273.446,-187.172 278.968,-196.213 280.29,-185.701 273.446,-187.172"/>
<text text-anchor="middle" x="330" y="-142.5" font-family="Helvetica,sans-Serif" font-size="10.00"> m_visibleBounds</text>
</g>
<!-- Node6 -->
<g id="node10" class="node"><title>Node6</title>
<polygon fill="white" stroke="#bfbfbf" points="346.5,-196.5 346.5,-217.5 405.5,-217.5 405.5,-196.5 346.5,-196.5"/>
<text text-anchor="middle" x="376" y="-204.5" font-family="Helvetica,sans-Serif" font-size="10.00">QPixmap</text>
</g>
<!-- Node6&#45;&gt;Node2 -->
<g id="edge10" class="edge"><title>Node6&#45;&gt;Node2</title>
<path fill="none" stroke="#9a32cd" stroke-dasharray="5,2" d="M374.481,-186.18C374.101,-164.96 376.909,-132.354 395,-112 403.313,-102.647 433.831,-94.0525 456.831,-88.6884"/>
<polygon fill="#9a32cd" stroke="#9a32cd" points="370.994,-186.542 374.925,-196.381 377.987,-186.238 370.994,-186.542"/>
<text text-anchor="middle" x="437.5" y="-142.5" font-family="Helvetica,sans-Serif" font-size="10.00"> m_screenPixmap</text>
</g>
<!-- Node7 -->
<g id="node12" class="node"><title>Node7</title>
<polygon fill="white" stroke="#bfbfbf" points="457,-196.5 457,-217.5 511,-217.5 511,-196.5 457,-196.5"/>
<text text-anchor="middle" x="484" y="-204.5" font-family="Helvetica,sans-Serif" font-size="10.00">uint32_t</text>
</g>
<!-- Node7&#45;&gt;Node2 -->
<g id="edge12" class="edge"><title>Node7&#45;&gt;Node2</title>
<path fill="none" stroke="#9a32cd" stroke-dasharray="5,2" d="M484,-186.241C484,-159.498 484,-114.022 484,-93.5454"/>
<polygon fill="#9a32cd" stroke="#9a32cd" points="480.5,-186.428 484,-196.428 487.5,-186.428 480.5,-186.428"/>
<text text-anchor="middle" x="513.5" y="-149" font-family="Helvetica,sans-Serif" font-size="10.00"> m_bufWidth</text>
<text text-anchor="middle" x="513.5" y="-136" font-family="Helvetica,sans-Serif" font-size="10.00">m_bufHeight</text>
</g>
<!-- Node8 -->
<g id="node14" class="node"><title>Node8</title>
<a xlink:href="classint.htm" target="_top" xlink:title="int">
<polygon fill="white" stroke="black" points="551.5,-196.5 551.5,-217.5 580.5,-217.5 580.5,-196.5 551.5,-196.5"/>
<text text-anchor="middle" x="566" y="-204.5" font-family="Helvetica,sans-Serif" font-size="10.00">int</text>
</a>
</g>
<!-- Node8&#45;&gt;Node2 -->
<g id="edge14" class="edge"><title>Node8&#45;&gt;Node2</title>
<path fill="none" stroke="#9a32cd" stroke-dasharray="5,2" d="M566.189,-186.281C565.331,-165.402 561.019,-133.302 544,-112 535.768,-101.695 522.969,-94.8175 511.303,-90.3579"/>
<polygon fill="#9a32cd" stroke="#9a32cd" points="562.69,-186.389 566.371,-196.324 569.689,-186.262 562.69,-186.389"/>
<text text-anchor="middle" x="601" y="-149" font-family="Helvetica,sans-Serif" font-size="10.00"> m_initialWidth</text>
<text text-anchor="middle" x="601" y="-136" font-family="Helvetica,sans-Serif" font-size="10.00">m_initialHeight</text>
</g>
<!-- Node9 -->
<g id="node16" class="node"><title>Node9</title>
<polygon fill="white" stroke="#bfbfbf" points="638.5,-196.5 638.5,-217.5 679.5,-217.5 679.5,-196.5 638.5,-196.5"/>
<text text-anchor="middle" x="659" y="-204.5" font-family="Helvetica,sans-Serif" font-size="10.00">Type</text>
</g>
<!-- Node9&#45;&gt;Node2 -->
<g id="edge16" class="edge"><title>Node9&#45;&gt;Node2</title>
<path fill="none" stroke="#9a32cd" stroke-dasharray="5,2" d="M656.881,-186.097C653.914,-161.247 647.655,-121.885 637,-112 617.715,-94.1086 545.645,-99.8587 520,-94 517.069,-93.3305 514.029,-92.5464 511.014,-91.7105"/>
<polygon fill="#9a32cd" stroke="#9a32cd" points="653.435,-186.782 658.016,-196.336 660.392,-186.011 653.435,-186.782"/>
<text text-anchor="middle" x="674" y="-142.5" font-family="Helvetica,sans-Serif" font-size="10.00"> m_type</text>
</g>
<!-- Node10 -->
<g id="node18" class="node"><title>Node10</title>
<polygon fill="white" stroke="#bfbfbf" points="702,-196.5 702,-217.5 738,-217.5 738,-196.5 702,-196.5"/>
<text text-anchor="middle" x="720" y="-204.5" font-family="Helvetica,sans-Serif" font-size="10.00">bool</text>
</g>
<!-- Node10&#45;&gt;Node2 -->
<g id="edge18" class="edge"><title>Node10&#45;&gt;Node2</title>
<path fill="none" stroke="#9a32cd" stroke-dasharray="5,2" d="M717.774,-186.333C714.636,-161.4 708.028,-121.62 697,-112 667.206,-86.0107 558.756,-101.814 520,-94 517.181,-93.4317 514.268,-92.7338 511.376,-91.9676"/>
<polygon fill="#9a32cd" stroke="#9a32cd" points="714.3,-186.758 718.943,-196.281 721.252,-185.941 714.3,-186.758"/>
<text text-anchor="middle" x="763.5" y="-149" font-family="Helvetica,sans-Serif" font-size="10.00"> m_removed</text>
<text text-anchor="middle" x="763.5" y="-136" font-family="Helvetica,sans-Serif" font-size="10.00">m_disableKeepAlive</text>
</g>
<!-- Node11 -->
<g id="node20" class="node"><title>Node11</title>
<polygon fill="white" stroke="#bfbfbf" points="816.5,-196.5 816.5,-217.5 859.5,-217.5 859.5,-196.5 816.5,-196.5"/>
<text text-anchor="middle" x="838" y="-204.5" font-family="Helvetica,sans-Serif" font-size="10.00">string</text>
</g>
<!-- Node11&#45;&gt;Node2 -->
<g id="edge20" class="edge"><title>Node11&#45;&gt;Node2</title>
<path fill="none" stroke="#9a32cd" stroke-dasharray="5,2" d="M839.485,-186.379C839.821,-164.288 836.481,-129.987 815,-112 789.822,-90.9176 552.316,-99.8385 520,-94 517.17,-93.4888 514.25,-92.8283 511.353,-92.085"/>
<polygon fill="#9a32cd" stroke="#9a32cd" points="835.987,-186.255 839.069,-196.392 842.981,-186.545 835.987,-186.255"/>
<text text-anchor="middle" x="884.5" y="-168.5" font-family="Helvetica,sans-Serif" font-size="10.00"> m_launchingAppId</text>
<text text-anchor="middle" x="884.5" y="-155.5" font-family="Helvetica,sans-Serif" font-size="10.00">m_processId</text>
<text text-anchor="middle" x="884.5" y="-142.5" font-family="Helvetica,sans-Serif" font-size="10.00">m_launchingProcId</text>
<text text-anchor="middle" x="884.5" y="-129.5" font-family="Helvetica,sans-Serif" font-size="10.00">m_appId</text>
<text text-anchor="middle" x="884.5" y="-116.5" font-family="Helvetica,sans-Serif" font-size="10.00">m_name</text>
</g>
<!-- Node12 -->
<g id="node22" class="node"><title>Node12</title>
<polygon fill="white" stroke="#bfbfbf" points="529,-72.5 529,-93.5 671,-93.5 671,-72.5 529,-72.5"/>
<text text-anchor="middle" x="600" y="-80.5" font-family="Helvetica,sans-Serif" font-size="10.00">QPointer&lt; DimensionsUI &gt;</text>
</g>
<!-- Node12&#45;&gt;Node1 -->
<g id="edge22" class="edge"><title>Node12&#45;&gt;Node1</title>
<path fill="none" stroke="#9a32cd" stroke-dasharray="5,2" d="M607.803,-63.1845C611.568,-55.3337 616.659,-46.6208 623,-40 630.111,-32.5751 639.531,-26.3968 648.21,-21.6776"/>
<polygon fill="#9a32cd" stroke="#9a32cd" points="604.553,-61.8809 603.75,-72.4452 610.966,-64.6877 604.553,-61.8809"/>
<text text-anchor="middle" x="677.5" y="-44.5" font-family="Helvetica,sans-Serif" font-size="10.00"> s_qp_primaryInstance</text>
</g>
<!-- Node13 -->
<g id="node24" class="node"><title>Node13</title>
<polygon fill="white" stroke="#bfbfbf" points="688.5,-72.5 688.5,-93.5 839.5,-93.5 839.5,-72.5 688.5,-72.5"/>
<text text-anchor="middle" x="764" y="-80.5" font-family="Helvetica,sans-Serif" font-size="10.00">QPointer&lt; LauncherObject &gt;</text>
</g>
<!-- Node13&#45;&gt;Node1 -->
<g id="edge24" class="edge"><title>Node13&#45;&gt;Node1</title>
<path fill="none" stroke="#9a32cd" stroke-dasharray="5,2" d="M752.626,-63.7681C747.149,-55.6819 740.026,-46.6327 732,-40 722.814,-32.4088 711.307,-26.2317 700.834,-21.5595"/>
<polygon fill="#9a32cd" stroke="#9a32cd" points="749.743,-65.7569 758.069,-72.3084 755.646,-61.9944 749.743,-65.7569"/>
<text text-anchor="middle" x="801" y="-44.5" font-family="Helvetica,sans-Serif" font-size="10.00"> s_qp_primaryLauncher</text>
</g>
<!-- Node14 -->
<g id="node26" class="node"><title>Node14</title>
<polygon fill="white" stroke="#bfbfbf" points="866.5,-72.5 866.5,-93.5 911.5,-93.5 911.5,-72.5 866.5,-72.5"/>
<text text-anchor="middle" x="889" y="-80.5" font-family="Helvetica,sans-Serif" font-size="10.00">QSize</text>
</g>
<!-- Node14&#45;&gt;Node1 -->
<g id="edge26" class="edge"><title>Node14&#45;&gt;Node1</title>
<path fill="none" stroke="#9a32cd" stroke-dasharray="5,2" d="M880.685,-63.2451C876.11,-54.7623 869.594,-45.5438 861,-40 837.219,-24.6587 761.279,-16.8888 713.206,-13.4099"/>
<polygon fill="#9a32cd" stroke="#9a32cd" points="877.541,-64.7824 885.032,-72.2747 883.848,-61.7462 877.541,-64.7824"/>
<text text-anchor="middle" x="907.5" y="-44.5" font-family="Helvetica,sans-Serif" font-size="10.00"> m_lastResize</text>
</g>
</g>
</svg>
