<?xml version="1.0" encoding="UTF-8" standalone="no"?>
<!DOCTYPE svg PUBLIC "-//W3C//DTD SVG 1.1//EN"
 "http://www.w3.org/Graphics/SVG/1.1/DTD/svg11.dtd">
<!-- Generated by graphviz version 2.26.3 (20100126.1600)
 -->
<!-- Title: G Pages: 1 -->
<svg width="450pt" height="88pt"
 viewBox="0.00 0.00 450.00 88.00" xmlns="http://www.w3.org/2000/svg" xmlns:xlink="http://www.w3.org/1999/xlink">
<g id="graph1" class="graph" transform="scale(1 1) rotate(0) translate(4 84)">
<title>G</title>
<polygon fill="white" stroke="white" points="-4,5 -4,-84 447,-84 447,5 -4,5"/>
<!-- Node1 -->
<g id="node1" class="node"><title>Node1</title>
<polygon fill="#bfbfbf" stroke="black" points="159,-58.5 159,-79.5 285,-79.5 285,-58.5 159,-58.5"/>
<text text-anchor="middle" x="222" y="-66.5" font-family="Helvetica,sans-Serif" font-size="10.00">VirtualKeyboardFactory</text>
</g>
<!-- Node2 -->
<g id="node3" class="node"><title>Node2</title>
<a xlink:href="classPhone__Keyboard_1_1PhoneKeyboardFactory.htm" target="_top" xlink:title="Phone_Keyboard::PhoneKeyboardFactory">
<polygon fill="white" stroke="black" points="0,-0.5 0,-21.5 214,-21.5 214,-0.5 0,-0.5"/>
<text text-anchor="middle" x="107" y="-8.5" font-family="Helvetica,sans-Serif" font-size="10.00">Phone_Keyboard::PhoneKeyboardFactory</text>
</a>
</g>
<!-- Node1&#45;&gt;Node2 -->
<g id="edge2" class="edge"><title>Node1&#45;&gt;Node2</title>
<path fill="none" stroke="midnightblue" d="M192.124,-53.9319C172.021,-43.7932 146.01,-30.6748 128.059,-21.6212"/>
<polygon fill="midnightblue" stroke="midnightblue" points="190.67,-57.1185 201.174,-58.4966 193.822,-50.8684 190.67,-57.1185"/>
</g>
<!-- Node3 -->
<g id="node5" class="node"><title>Node3</title>
<a xlink:href="classTablet__Keyboard_1_1TabletKeyboardFactory.htm" target="_top" xlink:title="Tablet_Keyboard::TabletKeyboardFactory">
<polygon fill="white" stroke="black" points="231.5,-0.5 231.5,-21.5 442.5,-21.5 442.5,-0.5 231.5,-0.5"/>
<text text-anchor="middle" x="337" y="-8.5" font-family="Helvetica,sans-Serif" font-size="10.00">Tablet_Keyboard::TabletKeyboardFactory</text>
</a>
</g>
<!-- Node1&#45;&gt;Node3 -->
<g id="edge4" class="edge"><title>Node1&#45;&gt;Node3</title>
<path fill="none" stroke="midnightblue" d="M251.876,-53.9319C271.979,-43.7932 297.99,-30.6748 315.941,-21.6212"/>
<polygon fill="midnightblue" stroke="midnightblue" points="250.178,-50.8684 242.826,-58.4966 253.33,-57.1185 250.178,-50.8684"/>
</g>
</g>
</svg>
