<?xml version="1.0" encoding="UTF-8" standalone="no"?>
<!DOCTYPE svg PUBLIC "-//W3C//DTD SVG 1.1//EN"
 "http://www.w3.org/Graphics/SVG/1.1/DTD/svg11.dtd">
<!-- Generated by graphviz version 2.26.3 (20100126.1600)
 -->
<!-- Title: G Pages: 1 -->
<svg width="178pt" height="146pt"
 viewBox="0.00 0.00 178.00 146.00" xmlns="http://www.w3.org/2000/svg" xmlns:xlink="http://www.w3.org/1999/xlink">
<g id="graph1" class="graph" transform="scale(1 1) rotate(0) translate(4 142)">
<title>G</title>
<polygon fill="white" stroke="white" points="-4,5 -4,-142 175,-142 175,5 -4,5"/>
<!-- Node1 -->
<g id="node1" class="node"><title>Node1</title>
<polygon fill="#bfbfbf" stroke="black" points="53.5,-0.5 53.5,-21.5 120.5,-21.5 120.5,-0.5 53.5,-0.5"/>
<text text-anchor="middle" x="87" y="-8.5" font-family="Helvetica,sans-Serif" font-size="10.00">InputEvent</text>
</g>
<!-- Node2 -->
<g id="node2" class="node"><title>Node2</title>
<a xlink:href="classEvent.htm" target="_top" xlink:title="Event">
<polygon fill="white" stroke="black" points="65,-58.5 65,-79.5 109,-79.5 109,-58.5 65,-58.5"/>
<text text-anchor="middle" x="87" y="-66.5" font-family="Helvetica,sans-Serif" font-size="10.00">Event</text>
</a>
</g>
<!-- Node2&#45;&gt;Node1 -->
<g id="edge2" class="edge"><title>Node2&#45;&gt;Node1</title>
<path fill="none" stroke="midnightblue" d="M87,-48.1906C87,-39.1684 87,-28.9941 87,-21.5707"/>
<polygon fill="midnightblue" stroke="midnightblue" points="83.5001,-48.3619 87,-58.3619 90.5001,-48.3619 83.5001,-48.3619"/>
</g>
<!-- Node3 -->
<g id="node4" class="node"><title>Node3</title>
<a xlink:href="classSysMgrEvent.htm" target="_top" xlink:title="SysMgrEvent">
<polygon fill="white" stroke="black" points="0,-116.5 0,-137.5 80,-137.5 80,-116.5 0,-116.5"/>
<text text-anchor="middle" x="40" y="-124.5" font-family="Helvetica,sans-Serif" font-size="10.00">SysMgrEvent</text>
</a>
</g>
<!-- Node3&#45;&gt;Node2 -->
<g id="edge4" class="edge"><title>Node3&#45;&gt;Node2</title>
<path fill="none" stroke="midnightblue" d="M54.9584,-108.541C62.707,-98.9786 71.8898,-87.6467 78.4341,-79.5707"/>
<polygon fill="midnightblue" stroke="midnightblue" points="52.1971,-106.389 48.6205,-116.362 57.6357,-110.796 52.1971,-106.389"/>
</g>
<!-- Node4 -->
<g id="node6" class="node"><title>Node4</title>
<a xlink:href="classRefCounted.htm" target="_top" xlink:title="RefCounted">
<polygon fill="white" stroke="black" points="97.5,-116.5 97.5,-137.5 170.5,-137.5 170.5,-116.5 97.5,-116.5"/>
<text text-anchor="middle" x="134" y="-124.5" font-family="Helvetica,sans-Serif" font-size="10.00">RefCounted</text>
</a>
</g>
<!-- Node4&#45;&gt;Node2 -->
<g id="edge6" class="edge"><title>Node4&#45;&gt;Node2</title>
<path fill="none" stroke="midnightblue" d="M119.042,-108.541C111.293,-98.9786 102.11,-87.6467 95.5659,-79.5707"/>
<polygon fill="midnightblue" stroke="midnightblue" points="116.364,-110.796 125.379,-116.362 121.803,-106.389 116.364,-110.796"/>
</g>
</g>
</svg>
