<?xml version="1.0" encoding="UTF-8" standalone="no"?>
<!DOCTYPE svg PUBLIC "-//W3C//DTD SVG 1.1//EN"
 "http://www.w3.org/Graphics/SVG/1.1/DTD/svg11.dtd">
<!-- Generated by graphviz version 2.26.3 (20100126.1600)
 -->
<!-- Title: G Pages: 1 -->
<svg width="400pt" height="350pt"
 viewBox="0.00 0.00 400.00 350.00" xmlns="http://www.w3.org/2000/svg" xmlns:xlink="http://www.w3.org/1999/xlink">
<g id="graph1" class="graph" transform="scale(1 1) rotate(0) translate(4 346)">
<title>G</title>
<polygon fill="white" stroke="white" points="-4,5 -4,-346 397,-346 397,5 -4,5"/>
<!-- Node1 -->
<g id="node1" class="node"><title>Node1</title>
<polygon fill="#bfbfbf" stroke="black" points="134.5,-160.5 134.5,-181.5 217.5,-181.5 217.5,-160.5 134.5,-160.5"/>
<text text-anchor="middle" x="176" y="-168.5" font-family="Helvetica,sans-Serif" font-size="10.00">StatusBarItem</text>
</g>
<!-- Node3 -->
<g id="node5" class="node"><title>Node3</title>
<a xlink:href="classStatusBarBattery.htm" target="_top" xlink:title="StatusBarBattery">
<polygon fill="white" stroke="black" points="275,-320.5 275,-341.5 371,-341.5 371,-320.5 275,-320.5"/>
<text text-anchor="middle" x="323" y="-328.5" font-family="Helvetica,sans-Serif" font-size="10.00">StatusBarBattery</text>
</a>
</g>
<!-- Node1&#45;&gt;Node3 -->
<g id="edge4" class="edge"><title>Node1&#45;&gt;Node3</title>
<path fill="none" stroke="midnightblue" d="M181.775,-191.182C191.551,-221.701 214.276,-279.379 254,-311 260.148,-315.894 267.448,-319.59 274.962,-322.382"/>
<polygon fill="midnightblue" stroke="midnightblue" points="185.119,-190.148 178.851,-181.607 178.424,-192.193 185.119,-190.148"/>
</g>
<!-- Node4 -->
<g id="node7" class="node"><title>Node4</title>
<a xlink:href="classStatusBarClock.htm" target="_top" xlink:title="StatusBarClock">
<polygon fill="white" stroke="black" points="278.5,-280.5 278.5,-301.5 367.5,-301.5 367.5,-280.5 278.5,-280.5"/>
<text text-anchor="middle" x="323" y="-288.5" font-family="Helvetica,sans-Serif" font-size="10.00">StatusBarClock</text>
</a>
</g>
<!-- Node1&#45;&gt;Node4 -->
<g id="edge6" class="edge"><title>Node1&#45;&gt;Node4</title>
<path fill="none" stroke="midnightblue" d="M186.229,-190.572C199.068,-213.242 223.191,-250.137 254,-271 261.332,-275.965 269.905,-279.715 278.466,-282.541"/>
<polygon fill="midnightblue" stroke="midnightblue" points="189.157,-188.632 181.286,-181.541 183.017,-191.993 189.157,-188.632"/>
</g>
<!-- Node5 -->
<g id="node9" class="node"><title>Node5</title>
<a xlink:href="classStatusBarInfo.htm" target="_top" xlink:title="StatusBarInfo">
<polygon fill="white" stroke="black" points="283,-240.5 283,-261.5 363,-261.5 363,-240.5 283,-240.5"/>
<text text-anchor="middle" x="323" y="-248.5" font-family="Helvetica,sans-Serif" font-size="10.00">StatusBarInfo</text>
</a>
</g>
<!-- Node1&#45;&gt;Node5 -->
<g id="edge8" class="edge"><title>Node1&#45;&gt;Node5</title>
<path fill="none" stroke="midnightblue" d="M194.773,-188.71C209.775,-202.012 231.882,-219.795 254,-231 263.012,-235.565 273.229,-239.244 282.986,-242.14"/>
<polygon fill="midnightblue" stroke="midnightblue" points="196.973,-185.98 187.216,-181.851 192.269,-191.163 196.973,-185.98"/>
</g>
<!-- Node6 -->
<g id="node11" class="node"><title>Node6</title>
<a xlink:href="classStatusBarItemGroup.htm" target="_top" xlink:title="StatusBarItemGroup">
<polygon fill="white" stroke="black" points="267,-200.5 267,-221.5 379,-221.5 379,-200.5 267,-200.5"/>
<text text-anchor="middle" x="323" y="-208.5" font-family="Helvetica,sans-Serif" font-size="10.00">StatusBarItemGroup</text>
</a>
</g>
<!-- Node1&#45;&gt;Node6 -->
<g id="edge10" class="edge"><title>Node1&#45;&gt;Node6</title>
<path fill="none" stroke="midnightblue" d="M224.516,-184.202C243.961,-189.493 266.054,-195.504 284.38,-200.491"/>
<polygon fill="midnightblue" stroke="midnightblue" points="225.191,-180.758 214.623,-181.51 223.353,-187.512 225.191,-180.758"/>
</g>
<!-- Node7 -->
<g id="node13" class="node"><title>Node7</title>
<a xlink:href="classStatusBarNotificationArea.htm" target="_top" xlink:title="StatusBarNotificationArea">
<polygon fill="white" stroke="black" points="254.5,-160.5 254.5,-181.5 391.5,-181.5 391.5,-160.5 254.5,-160.5"/>
<text text-anchor="middle" x="323" y="-168.5" font-family="Helvetica,sans-Serif" font-size="10.00">StatusBarNotificationArea</text>
</a>
</g>
<!-- Node1&#45;&gt;Node7 -->
<g id="edge12" class="edge"><title>Node1&#45;&gt;Node7</title>
<path fill="none" stroke="midnightblue" d="M227.953,-171C236.536,-171 245.55,-171 254.466,-171"/>
<polygon fill="midnightblue" stroke="midnightblue" points="227.731,-167.5 217.731,-171 227.731,-174.5 227.731,-167.5"/>
</g>
<!-- Node8 -->
<g id="node15" class="node"><title>Node8</title>
<a xlink:href="classStatusBarSearch.htm" target="_top" xlink:title="StatusBarSearch">
<polygon fill="white" stroke="black" points="275,-120.5 275,-141.5 371,-141.5 371,-120.5 275,-120.5"/>
<text text-anchor="middle" x="323" y="-128.5" font-family="Helvetica,sans-Serif" font-size="10.00">StatusBarSearch</text>
</a>
</g>
<!-- Node1&#45;&gt;Node8 -->
<g id="edge14" class="edge"><title>Node1&#45;&gt;Node8</title>
<path fill="none" stroke="midnightblue" d="M224.516,-157.798C243.961,-152.507 266.054,-146.496 284.38,-141.509"/>
<polygon fill="midnightblue" stroke="midnightblue" points="223.353,-154.488 214.623,-160.49 225.191,-161.242 223.353,-154.488"/>
</g>
<!-- Node9 -->
<g id="node17" class="node"><title>Node9</title>
<a xlink:href="classStatusBarSeparator.htm" target="_top" xlink:title="StatusBarSeparator">
<polygon fill="white" stroke="black" points="268,-80.5 268,-101.5 378,-101.5 378,-80.5 268,-80.5"/>
<text text-anchor="middle" x="323" y="-88.5" font-family="Helvetica,sans-Serif" font-size="10.00">StatusBarSeparator</text>
</a>
</g>
<!-- Node1&#45;&gt;Node9 -->
<g id="edge16" class="edge"><title>Node1&#45;&gt;Node9</title>
<path fill="none" stroke="midnightblue" d="M194.773,-153.29C209.775,-139.988 231.882,-122.205 254,-111 261.343,-107.28 269.486,-104.149 277.529,-101.55"/>
<polygon fill="midnightblue" stroke="midnightblue" points="192.269,-150.837 187.216,-160.149 196.973,-156.02 192.269,-150.837"/>
</g>
<!-- Node10 -->
<g id="node19" class="node"><title>Node10</title>
<a xlink:href="classStatusBarTitle.htm" target="_top" xlink:title="StatusBarTitle">
<polygon fill="white" stroke="black" points="281.5,-40.5 281.5,-61.5 364.5,-61.5 364.5,-40.5 281.5,-40.5"/>
<text text-anchor="middle" x="323" y="-48.5" font-family="Helvetica,sans-Serif" font-size="10.00">StatusBarTitle</text>
</a>
</g>
<!-- Node1&#45;&gt;Node10 -->
<g id="edge18" class="edge"><title>Node1&#45;&gt;Node10</title>
<path fill="none" stroke="midnightblue" d="M186.229,-151.428C199.068,-128.758 223.191,-91.8632 254,-71 262.158,-65.4753 271.852,-61.4557 281.357,-58.5385"/>
<polygon fill="midnightblue" stroke="midnightblue" points="183.017,-150.007 181.286,-160.459 189.157,-153.368 183.017,-150.007"/>
</g>
<!-- Node11 -->
<g id="node21" class="node"><title>Node11</title>
<a xlink:href="classStatusBarVersion.htm" target="_top" xlink:title="StatusBarVersion">
<polygon fill="white" stroke="black" points="274,-0.5 274,-21.5 372,-21.5 372,-0.5 274,-0.5"/>
<text text-anchor="middle" x="323" y="-8.5" font-family="Helvetica,sans-Serif" font-size="10.00">StatusBarVersion</text>
</a>
</g>
<!-- Node1&#45;&gt;Node11 -->
<g id="edge20" class="edge"><title>Node1&#45;&gt;Node11</title>
<path fill="none" stroke="midnightblue" d="M181.775,-150.818C191.551,-120.299 214.276,-62.6211 254,-31 259.855,-26.3394 266.756,-22.7649 273.89,-20.0233"/>
<polygon fill="midnightblue" stroke="midnightblue" points="178.424,-149.807 178.851,-160.393 185.119,-151.852 178.424,-149.807"/>
</g>
<!-- Node2 -->
<g id="node2" class="node"><title>Node2</title>
<a xlink:href="classQGraphicsObject.htm" target="_top" xlink:title="QGraphicsObject">
<polygon fill="white" stroke="black" points="0,-160.5 0,-181.5 98,-181.5 98,-160.5 0,-160.5"/>
<text text-anchor="middle" x="49" y="-168.5" font-family="Helvetica,sans-Serif" font-size="10.00">QGraphicsObject</text>
</a>
</g>
<!-- Node2&#45;&gt;Node1 -->
<g id="edge2" class="edge"><title>Node2&#45;&gt;Node1</title>
<path fill="none" stroke="midnightblue" d="M108.362,-171C117.18,-171 126.104,-171 134.451,-171"/>
<polygon fill="midnightblue" stroke="midnightblue" points="108.102,-167.5 98.1015,-171 108.101,-174.5 108.102,-167.5"/>
</g>
</g>
</svg>
