<?xml version="1.0" encoding="UTF-8" standalone="no"?>
<!DOCTYPE svg PUBLIC "-//W3C//DTD SVG 1.1//EN"
 "http://www.w3.org/Graphics/SVG/1.1/DTD/svg11.dtd">
<!-- Generated by graphviz version 2.26.3 (20100126.1600)
 -->
<!-- Title: G Pages: 1 -->
<svg width="1311pt" height="232pt"
 viewBox="0.00 0.00 1311.00 232.00" xmlns="http://www.w3.org/2000/svg" xmlns:xlink="http://www.w3.org/1999/xlink">
<g id="graph1" class="graph" transform="scale(1 1) rotate(0) translate(4 228)">
<title>G</title>
<polygon fill="white" stroke="white" points="-4,5 -4,-228 1308,-228 1308,5 -4,5"/>
<!-- Node1 -->
<g id="node1" class="node"><title>Node1</title>
<polygon fill="#bfbfbf" stroke="black" points="458,-0.5 458,-21.5 580,-21.5 580,-0.5 458,-0.5"/>
<text text-anchor="middle" x="519" y="-8.5" font-family="Helvetica,sans-Serif" font-size="10.00">IconGeometrySettings</text>
</g>
<!-- Node2 -->
<g id="node2" class="node"><title>Node2</title>
<polygon fill="white" stroke="#bfbfbf" points="0,-202.5 0,-223.5 50,-223.5 50,-202.5 0,-202.5"/>
<text text-anchor="middle" x="25" y="-210.5" font-family="Helvetica,sans-Serif" font-size="10.00">QColor</text>
</g>
<!-- Node2&#45;&gt;Node1 -->
<g id="edge2" class="edge"><title>Node2&#45;&gt;Node1</title>
<path fill="none" stroke="#9a32cd" stroke-dasharray="5,2" d="M17.9373,-192.242C7.03513,-155.898 -8.74992,-80.7436 31,-40 45.6873,-24.9455 330.288,-15.816 457.945,-12.4632"/>
<polygon fill="#9a32cd" stroke="#9a32cd" points="14.735,-193.722 21.0971,-202.194 21.4068,-191.603 14.735,-193.722"/>
<text text-anchor="middle" x="67" y="-109.5" font-family="Helvetica,sans-Serif" font-size="10.00"> labelFontColor</text>
</g>
<!-- Node3 -->
<g id="node4" class="node"><title>Node3</title>
<polygon fill="white" stroke="#bfbfbf" points="94.5,-202.5 94.5,-223.5 145.5,-223.5 145.5,-202.5 94.5,-202.5"/>
<text text-anchor="middle" x="120" y="-210.5" font-family="Helvetica,sans-Serif" font-size="10.00">QSizeF</text>
</g>
<!-- Node3&#45;&gt;Node1 -->
<g id="edge4" class="edge"><title>Node3&#45;&gt;Node1</title>
<path fill="none" stroke="#9a32cd" stroke-dasharray="5,2" d="M116.421,-192.514C109.777,-151.537 97.9475,-61.555 118,-40 129.381,-27.7667 348.124,-17.6079 457.628,-13.2654"/>
<polygon fill="#9a32cd" stroke="#9a32cd" points="112.983,-193.175 118.088,-202.458 119.886,-192.017 112.983,-193.175"/>
<text text-anchor="middle" x="229.5" y="-135.5" font-family="Helvetica,sans-Serif" font-size="10.00"> mainIconBoxProportionToGeom</text>
<text text-anchor="middle" x="229.5" y="-122.5" font-family="Helvetica,sans-Serif" font-size="10.00">frameBoxProportionToGeom</text>
<text text-anchor="middle" x="229.5" y="-109.5" font-family="Helvetica,sans-Serif" font-size="10.00">installStatusDecoratorBoxProportionToGeom</text>
<text text-anchor="middle" x="229.5" y="-96.5" font-family="Helvetica,sans-Serif" font-size="10.00">labelBoxProportionToGeom</text>
<text text-anchor="middle" x="229.5" y="-83.5" font-family="Helvetica,sans-Serif" font-size="10.00">removeDeleteDecoratorBoxProportionToGeom</text>
</g>
<!-- Node4 -->
<g id="node6" class="node"><title>Node4</title>
<polygon fill="white" stroke="#bfbfbf" points="348,-202.5 348,-223.5 384,-223.5 384,-202.5 348,-202.5"/>
<text text-anchor="middle" x="366" y="-210.5" font-family="Helvetica,sans-Serif" font-size="10.00">bool</text>
</g>
<!-- Node4&#45;&gt;Node1 -->
<g id="edge6" class="edge"><title>Node4&#45;&gt;Node1</title>
<path fill="none" stroke="#9a32cd" stroke-dasharray="5,2" d="M358.619,-192.337C347.361,-156.747 330.786,-83.5197 367,-40 378.685,-25.9577 420.853,-18.6508 457.818,-14.886"/>
<polygon fill="#9a32cd" stroke="#9a32cd" points="355.391,-193.722 361.878,-202.099 362.031,-191.506 355.391,-193.722"/>
<text text-anchor="middle" x="508.5" y="-174.5" font-family="Helvetica,sans-Serif" font-size="10.00"> useAlignmentGeom</text>
<text text-anchor="middle" x="508.5" y="-161.5" font-family="Helvetica,sans-Serif" font-size="10.00">useAbsoluteMainIconGeom</text>
<text text-anchor="middle" x="508.5" y="-148.5" font-family="Helvetica,sans-Serif" font-size="10.00">useAbsoluteInstallStatusDecoratorOffsetFromGeomOrigin</text>
<text text-anchor="middle" x="508.5" y="-135.5" font-family="Helvetica,sans-Serif" font-size="10.00">useAbsoluteGeom</text>
<text text-anchor="middle" x="508.5" y="-122.5" font-family="Helvetica,sans-Serif" font-size="10.00">useAbsoluteRemoveDeleteDecoratorOffsetFromGeomOrigin</text>
<text text-anchor="middle" x="508.5" y="-109.5" font-family="Helvetica,sans-Serif" font-size="10.00">useAbsoluteLabelBoxGeom</text>
<text text-anchor="middle" x="508.5" y="-96.5" font-family="Helvetica,sans-Serif" font-size="10.00">useAbsoluteInstallStatusDecoratorGeom</text>
<text text-anchor="middle" x="508.5" y="-83.5" font-family="Helvetica,sans-Serif" font-size="10.00">useAbsoluteRemoveDeleteDecoratorGeom</text>
<text text-anchor="middle" x="508.5" y="-70.5" font-family="Helvetica,sans-Serif" font-size="10.00">useAbsoluteFrameGeom</text>
<text text-anchor="middle" x="508.5" y="-57.5" font-family="Helvetica,sans-Serif" font-size="10.00">labelFontEmbolden</text>
<text text-anchor="middle" x="508.5" y="-44.5" font-family="Helvetica,sans-Serif" font-size="10.00">...</text>
</g>
<!-- Node5 -->
<g id="node8" class="node"><title>Node5</title>
<polygon fill="white" stroke="#bfbfbf" points="649.5,-202.5 649.5,-223.5 694.5,-223.5 694.5,-202.5 649.5,-202.5"/>
<text text-anchor="middle" x="672" y="-210.5" font-family="Helvetica,sans-Serif" font-size="10.00">QSize</text>
</g>
<!-- Node5&#45;&gt;Node1 -->
<g id="edge8" class="edge"><title>Node5&#45;&gt;Node1</title>
<path fill="none" stroke="#9a32cd" stroke-dasharray="5,2" d="M672.237,-192.312C672.262,-151.325 669.961,-61.8732 650,-40 640.304,-29.3752 609.476,-22.2525 580.161,-17.7256"/>
<polygon fill="#9a32cd" stroke="#9a32cd" points="668.736,-192.471 672.181,-202.491 675.736,-192.51 668.736,-192.471"/>
<text text-anchor="middle" x="789" y="-155" font-family="Helvetica,sans-Serif" font-size="10.00"> mainIconBoxAbsoluteGeomSizePx</text>
<text text-anchor="middle" x="789" y="-142" font-family="Helvetica,sans-Serif" font-size="10.00">installStatusDecoratorBoxAbsoluteGeomSizePx</text>
<text text-anchor="middle" x="789" y="-129" font-family="Helvetica,sans-Serif" font-size="10.00">alignmentGeomSizePx</text>
<text text-anchor="middle" x="789" y="-116" font-family="Helvetica,sans-Serif" font-size="10.00">decoratorEdgeOffsetPx</text>
<text text-anchor="middle" x="789" y="-103" font-family="Helvetica,sans-Serif" font-size="10.00">labelBoxAbsoluteGeomSizePx</text>
<text text-anchor="middle" x="789" y="-90" font-family="Helvetica,sans-Serif" font-size="10.00">absoluteGeomSizePx</text>
<text text-anchor="middle" x="789" y="-77" font-family="Helvetica,sans-Serif" font-size="10.00">removeDeleteDecoratorBoxAbsoluteGeomSizePx</text>
<text text-anchor="middle" x="789" y="-64" font-family="Helvetica,sans-Serif" font-size="10.00">frameBoxAbsoluteGeomSizePx</text>
</g>
<!-- Node6 -->
<g id="node10" class="node"><title>Node6</title>
<polygon fill="white" stroke="#bfbfbf" points="902.5,-202.5 902.5,-223.5 951.5,-223.5 951.5,-202.5 902.5,-202.5"/>
<text text-anchor="middle" x="927" y="-210.5" font-family="Helvetica,sans-Serif" font-size="10.00">QPoint</text>
</g>
<!-- Node6&#45;&gt;Node1 -->
<g id="edge10" class="edge"><title>Node6&#45;&gt;Node1</title>
<path fill="none" stroke="#9a32cd" stroke-dasharray="5,2" d="M927.486,-192.33C927.981,-151.013 926.517,-60.4363 905,-40 893.412,-28.994 685.863,-18.33 580.015,-13.5783"/>
<polygon fill="#9a32cd" stroke="#9a32cd" points="923.986,-192.301 927.315,-202.36 930.985,-192.421 923.986,-192.301"/>
<text text-anchor="middle" x="1044.5" y="-135.5" font-family="Helvetica,sans-Serif" font-size="10.00"> frameOffsetFromGeomOriginPx</text>
<text text-anchor="middle" x="1044.5" y="-122.5" font-family="Helvetica,sans-Serif" font-size="10.00">removeDeleteDecoratorOffsetFromGeomOriginPx</text>
<text text-anchor="middle" x="1044.5" y="-109.5" font-family="Helvetica,sans-Serif" font-size="10.00">feedbackOffsetFromGeomOriginPx</text>
<text text-anchor="middle" x="1044.5" y="-96.5" font-family="Helvetica,sans-Serif" font-size="10.00">mainIconOffsetFromGeomOriginPx</text>
<text text-anchor="middle" x="1044.5" y="-83.5" font-family="Helvetica,sans-Serif" font-size="10.00">installStatusDecoratorOffsetFromGeomOriginPx</text>
</g>
<!-- Node7 -->
<g id="node12" class="node"><title>Node7</title>
<polygon fill="white" stroke="#bfbfbf" points="1159.5,-202.5 1159.5,-223.5 1210.5,-223.5 1210.5,-202.5 1159.5,-202.5"/>
<text text-anchor="middle" x="1185" y="-210.5" font-family="Helvetica,sans-Serif" font-size="10.00">quint32</text>
</g>
<!-- Node7&#45;&gt;Node1 -->
<g id="edge12" class="edge"><title>Node7&#45;&gt;Node1</title>
<path fill="none" stroke="#9a32cd" stroke-dasharray="5,2" d="M1189.77,-192.388C1196.9,-155.649 1205.37,-79.0502 1163,-40 1141.78,-20.4451 736.737,-13.5758 580.108,-11.6444"/>
<polygon fill="#9a32cd" stroke="#9a32cd" points="1186.29,-191.917 1187.65,-202.424 1193.14,-193.36 1186.29,-191.917"/>
<text text-anchor="middle" x="1249" y="-116" font-family="Helvetica,sans-Serif" font-size="10.00"> labelFontSizePx</text>
<text text-anchor="middle" x="1249" y="-103" font-family="Helvetica,sans-Serif" font-size="10.00">labelVerticalSpacingPx</text>
</g>
</g>
</svg>
