<?xml version="1.0" encoding="UTF-8" standalone="no"?>
<!DOCTYPE svg PUBLIC "-//W3C//DTD SVG 1.1//EN"
 "http://www.w3.org/Graphics/SVG/1.1/DTD/svg11.dtd">
<!-- Generated by graphviz version 2.26.3 (20100126.1600)
 -->
<!-- Title: G Pages: 1 -->
<svg width="738pt" height="470pt"
 viewBox="0.00 0.00 738.00 470.00" xmlns="http://www.w3.org/2000/svg" xmlns:xlink="http://www.w3.org/1999/xlink">
<g id="graph1" class="graph" transform="scale(1 1) rotate(0) translate(4 466)">
<title>G</title>
<polygon fill="white" stroke="white" points="-4,5 -4,-466 735,-466 735,5 -4,5"/>
<!-- Node1 -->
<g id="node1" class="node"><title>Node1</title>
<polygon fill="#bfbfbf" stroke="black" points="92,-220.5 92,-241.5 202,-241.5 202,-220.5 92,-220.5"/>
<text text-anchor="middle" x="147" y="-228.5" font-family="Helvetica,sans-Serif" font-size="10.00">HALConnectorBase</text>
</g>
<!-- Node3 -->
<g id="node5" class="node"><title>Node3</title>
<a xlink:href="classHALAccelerationSensorConnector.htm" target="_top" xlink:title="HALAccelerationSensorConnector">
<polygon fill="white" stroke="black" points="256.5,-440.5 256.5,-461.5 435.5,-461.5 435.5,-440.5 256.5,-440.5"/>
<text text-anchor="middle" x="346" y="-448.5" font-family="Helvetica,sans-Serif" font-size="10.00">HALAccelerationSensorConnector</text>
</a>
</g>
<!-- Node1&#45;&gt;Node3 -->
<g id="edge4" class="edge"><title>Node1&#45;&gt;Node3</title>
<path fill="none" stroke="midnightblue" d="M150.043,-251.781C157.245,-293.02 179.359,-385.163 238,-431 243.559,-435.345 249.767,-438.852 256.32,-441.672"/>
<polygon fill="midnightblue" stroke="midnightblue" points="153.479,-251.107 148.421,-241.797 146.57,-252.229 153.479,-251.107"/>
</g>
<!-- Node4 -->
<g id="node7" class="node"><title>Node4</title>
<a xlink:href="classHALAlsSensorConnector.htm" target="_top" xlink:title="HALAlsSensorConnector">
<polygon fill="white" stroke="black" points="279,-400.5 279,-421.5 413,-421.5 413,-400.5 279,-400.5"/>
<text text-anchor="middle" x="346" y="-408.5" font-family="Helvetica,sans-Serif" font-size="10.00">HALAlsSensorConnector</text>
</a>
</g>
<!-- Node1&#45;&gt;Node4 -->
<g id="edge6" class="edge"><title>Node1&#45;&gt;Node4</title>
<path fill="none" stroke="midnightblue" d="M152.541,-251.671C163.004,-286.441 189.129,-356.229 238,-391 249.964,-399.512 264.501,-404.713 278.982,-407.825"/>
<polygon fill="midnightblue" stroke="midnightblue" points="155.804,-250.351 149.686,-241.702 149.075,-252.279 155.804,-250.351"/>
</g>
<!-- Node5 -->
<g id="node9" class="node"><title>Node5</title>
<a xlink:href="classHALAngularVelocitySensorConnector.htm" target="_top" xlink:title="HALAngularVelocitySensorConnector">
<polygon fill="white" stroke="black" points="249.5,-360.5 249.5,-381.5 442.5,-381.5 442.5,-360.5 249.5,-360.5"/>
<text text-anchor="middle" x="346" y="-368.5" font-family="Helvetica,sans-Serif" font-size="10.00">HALAngularVelocitySensorConnector</text>
</a>
</g>
<!-- Node1&#45;&gt;Node5 -->
<g id="edge8" class="edge"><title>Node1&#45;&gt;Node5</title>
<path fill="none" stroke="midnightblue" d="M156.134,-250.771C169.825,-278.032 198.358,-326.556 238,-351 244.168,-354.803 250.884,-357.918 257.85,-360.465"/>
<polygon fill="midnightblue" stroke="midnightblue" points="159.283,-249.243 151.769,-241.774 152.985,-252.299 159.283,-249.243"/>
</g>
<!-- Node6 -->
<g id="node11" class="node"><title>Node6</title>
<a xlink:href="classHALBearingSensorConnector.htm" target="_top" xlink:title="HALBearingSensorConnector">
<polygon fill="white" stroke="black" points="267.5,-320.5 267.5,-341.5 424.5,-341.5 424.5,-320.5 267.5,-320.5"/>
<text text-anchor="middle" x="346" y="-328.5" font-family="Helvetica,sans-Serif" font-size="10.00">HALBearingSensorConnector</text>
</a>
</g>
<!-- Node1&#45;&gt;Node6 -->
<g id="edge10" class="edge"><title>Node1&#45;&gt;Node6</title>
<path fill="none" stroke="midnightblue" d="M162.124,-249.108C178.735,-267.72 207.177,-296.03 238,-311 247.177,-315.457 257.235,-318.925 267.405,-321.622"/>
<polygon fill="midnightblue" stroke="midnightblue" points="164.761,-246.806 155.557,-241.557 159.479,-251.399 164.761,-246.806"/>
</g>
<!-- Node7 -->
<g id="node13" class="node"><title>Node7</title>
<a xlink:href="classHALGravitySensorConnector.htm" target="_top" xlink:title="HALGravitySensorConnector">
<polygon fill="white" stroke="black" points="269,-280.5 269,-301.5 423,-301.5 423,-280.5 269,-280.5"/>
<text text-anchor="middle" x="346" y="-288.5" font-family="Helvetica,sans-Serif" font-size="10.00">HALGravitySensorConnector</text>
</a>
</g>
<!-- Node1&#45;&gt;Node7 -->
<g id="edge12" class="edge"><title>Node1&#45;&gt;Node7</title>
<path fill="none" stroke="midnightblue" d="M176.564,-246.077C194.049,-254.462 216.847,-264.488 238,-271 250.12,-274.731 263.23,-277.873 275.999,-280.48"/>
<polygon fill="midnightblue" stroke="midnightblue" points="177.962,-242.864 167.44,-241.62 174.889,-249.154 177.962,-242.864"/>
</g>
<!-- Node8 -->
<g id="node15" class="node"><title>Node8</title>
<a xlink:href="classHALLinearAccelearationSensorConnector.htm" target="_top" xlink:title="HALLinearAccelearationSensorConnector">
<polygon fill="white" stroke="black" points="238.5,-240.5 238.5,-261.5 453.5,-261.5 453.5,-240.5 238.5,-240.5"/>
<text text-anchor="middle" x="346" y="-248.5" font-family="Helvetica,sans-Serif" font-size="10.00">HALLinearAccelearationSensorConnector</text>
</a>
</g>
<!-- Node1&#45;&gt;Node8 -->
<g id="edge14" class="edge"><title>Node1&#45;&gt;Node8</title>
<path fill="none" stroke="midnightblue" d="M212.198,-237.553C221.628,-238.5 231.526,-239.495 241.491,-240.497"/>
<polygon fill="midnightblue" stroke="midnightblue" points="212.468,-234.062 202.168,-236.545 211.768,-241.027 212.468,-234.062"/>
</g>
<!-- Node9 -->
<g id="node17" class="node"><title>Node9</title>
<a xlink:href="classHALLogicalSensorConnectorBase.htm" target="_top" xlink:title="HALLogicalSensorConnectorBase">
<polygon fill="white" stroke="black" points="257,-200.5 257,-221.5 435,-221.5 435,-200.5 257,-200.5"/>
<text text-anchor="middle" x="346" y="-208.5" font-family="Helvetica,sans-Serif" font-size="10.00">HALLogicalSensorConnectorBase</text>
</a>
</g>
<!-- Node1&#45;&gt;Node9 -->
<g id="edge16" class="edge"><title>Node1&#45;&gt;Node9</title>
<path fill="none" stroke="midnightblue" d="M212.302,-224.437C226.502,-223.01 241.761,-221.476 256.709,-219.974"/>
<polygon fill="midnightblue" stroke="midnightblue" points="211.768,-220.973 202.168,-225.455 212.468,-227.938 211.768,-220.973"/>
</g>
<!-- Node14 -->
<g id="node27" class="node"><title>Node14</title>
<a xlink:href="classHALMagneticFieldSensorConnector.htm" target="_top" xlink:title="HALMagneticFieldSensorConnector">
<polygon fill="white" stroke="black" points="253,-160.5 253,-181.5 439,-181.5 439,-160.5 253,-160.5"/>
<text text-anchor="middle" x="346" y="-168.5" font-family="Helvetica,sans-Serif" font-size="10.00">HALMagneticFieldSensorConnector</text>
</a>
</g>
<!-- Node1&#45;&gt;Node14 -->
<g id="edge26" class="edge"><title>Node1&#45;&gt;Node14</title>
<path fill="none" stroke="midnightblue" d="M176.564,-215.923C194.049,-207.538 216.847,-197.512 238,-191 250.12,-187.269 263.23,-184.127 275.999,-181.52"/>
<polygon fill="midnightblue" stroke="midnightblue" points="174.889,-212.846 167.44,-220.38 177.962,-219.136 174.889,-212.846"/>
</g>
<!-- Node15 -->
<g id="node29" class="node"><title>Node15</title>
<a xlink:href="classHALOrientationSensorConnector.htm" target="_top" xlink:title="HALOrientationSensorConnector">
<polygon fill="white" stroke="black" points="259.5,-120.5 259.5,-141.5 432.5,-141.5 432.5,-120.5 259.5,-120.5"/>
<text text-anchor="middle" x="346" y="-128.5" font-family="Helvetica,sans-Serif" font-size="10.00">HALOrientationSensorConnector</text>
</a>
</g>
<!-- Node1&#45;&gt;Node15 -->
<g id="edge28" class="edge"><title>Node1&#45;&gt;Node15</title>
<path fill="none" stroke="midnightblue" d="M162.124,-212.892C178.735,-194.28 207.177,-165.97 238,-151 245.89,-147.168 254.432,-144.067 263.136,-141.559"/>
<polygon fill="midnightblue" stroke="midnightblue" points="159.479,-210.601 155.557,-220.443 164.761,-215.194 159.479,-210.601"/>
</g>
<!-- Node16 -->
<g id="node31" class="node"><title>Node16</title>
<a xlink:href="classHALRotationSensorConnector.htm" target="_top" xlink:title="HALRotationSensorConnector">
<polygon fill="white" stroke="black" points="266,-80.5 266,-101.5 426,-101.5 426,-80.5 266,-80.5"/>
<text text-anchor="middle" x="346" y="-88.5" font-family="Helvetica,sans-Serif" font-size="10.00">HALRotationSensorConnector</text>
</a>
</g>
<!-- Node1&#45;&gt;Node16 -->
<g id="edge30" class="edge"><title>Node1&#45;&gt;Node16</title>
<path fill="none" stroke="midnightblue" d="M156.134,-211.229C169.825,-183.968 198.358,-135.444 238,-111 246.521,-105.746 256.09,-101.805 265.917,-98.8608"/>
<polygon fill="midnightblue" stroke="midnightblue" points="152.985,-209.701 151.769,-220.226 159.283,-212.757 152.985,-209.701"/>
</g>
<!-- Node17 -->
<g id="node33" class="node"><title>Node17</title>
<a xlink:href="classHALScreenProximitySensorConnector.htm" target="_top" xlink:title="HALScreenProximitySensorConnector">
<polygon fill="white" stroke="black" points="247.5,-40.5 247.5,-61.5 444.5,-61.5 444.5,-40.5 247.5,-40.5"/>
<text text-anchor="middle" x="346" y="-48.5" font-family="Helvetica,sans-Serif" font-size="10.00">HALScreenProximitySensorConnector</text>
</a>
</g>
<!-- Node1&#45;&gt;Node17 -->
<g id="edge32" class="edge"><title>Node1&#45;&gt;Node17</title>
<path fill="none" stroke="midnightblue" d="M152.541,-210.329C163.004,-175.559 189.129,-105.771 238,-71 243.283,-67.2414 249.067,-64.1284 255.127,-61.5558"/>
<polygon fill="midnightblue" stroke="midnightblue" points="149.075,-209.721 149.686,-220.298 155.804,-211.649 149.075,-209.721"/>
</g>
<!-- Node18 -->
<g id="node35" class="node"><title>Node18</title>
<a xlink:href="classHALShakeSensorConnector.htm" target="_top" xlink:title="HALShakeSensorConnector">
<polygon fill="white" stroke="black" points="271,-0.5 271,-21.5 421,-21.5 421,-0.5 271,-0.5"/>
<text text-anchor="middle" x="346" y="-8.5" font-family="Helvetica,sans-Serif" font-size="10.00">HALShakeSensorConnector</text>
</a>
</g>
<!-- Node1&#45;&gt;Node18 -->
<g id="edge34" class="edge"><title>Node1&#45;&gt;Node18</title>
<path fill="none" stroke="midnightblue" d="M150.043,-210.219C157.245,-168.98 179.359,-76.837 238,-31 247.54,-23.543 258.992,-18.5548 270.821,-15.2695"/>
<polygon fill="midnightblue" stroke="midnightblue" points="146.57,-209.771 148.421,-220.203 153.479,-210.893 146.57,-209.771"/>
</g>
<!-- Node2 -->
<g id="node2" class="node"><title>Node2</title>
<a xlink:href="classQObject.htm" target="_top" xlink:title="QObject">
<polygon fill="white" stroke="black" points="0.5,-220.5 0.5,-241.5 55.5,-241.5 55.5,-220.5 0.5,-220.5"/>
<text text-anchor="middle" x="28" y="-228.5" font-family="Helvetica,sans-Serif" font-size="10.00">QObject</text>
</a>
</g>
<!-- Node2&#45;&gt;Node1 -->
<g id="edge2" class="edge"><title>Node2&#45;&gt;Node1</title>
<path fill="none" stroke="midnightblue" d="M65.7334,-231C74.0588,-231 83.0437,-231 91.8979,-231"/>
<polygon fill="midnightblue" stroke="midnightblue" points="65.6001,-227.5 55.6001,-231 65.6001,-234.5 65.6001,-227.5"/>
</g>
<!-- Node10 -->
<g id="node19" class="node"><title>Node10</title>
<a xlink:href="classHALLogicalAccelerometerSensorConnector.htm" target="_top" xlink:title="HALLogicalAccelerometerSensorConnector">
<polygon fill="white" stroke="black" points="499,-260.5 499,-281.5 721,-281.5 721,-260.5 499,-260.5"/>
<text text-anchor="middle" x="610" y="-268.5" font-family="Helvetica,sans-Serif" font-size="10.00">HALLogicalAccelerometerSensorConnector</text>
</a>
</g>
<!-- Node9&#45;&gt;Node10 -->
<g id="edge18" class="edge"><title>Node9&#45;&gt;Node10</title>
<path fill="none" stroke="midnightblue" d="M430.465,-223.89C438.513,-225.938 446.473,-228.294 454,-231 471.224,-237.192 472.721,-244.963 490,-251 500.966,-254.831 512.76,-257.94 524.518,-260.459"/>
<polygon fill="midnightblue" stroke="midnightblue" points="431.165,-220.459 420.626,-221.541 429.54,-227.268 431.165,-220.459"/>
</g>
<!-- Node11 -->
<g id="node21" class="node"><title>Node11</title>
<a xlink:href="classHALLogicalDeviceMotionSensorConnector.htm" target="_top" xlink:title="HALLogicalDeviceMotionSensorConnector">
<polygon fill="white" stroke="black" points="501,-220.5 501,-241.5 719,-241.5 719,-220.5 501,-220.5"/>
<text text-anchor="middle" x="610" y="-228.5" font-family="Helvetica,sans-Serif" font-size="10.00">HALLogicalDeviceMotionSensorConnector</text>
</a>
</g>
<!-- Node9&#45;&gt;Node11 -->
<g id="edge20" class="edge"><title>Node9&#45;&gt;Node11</title>
<path fill="none" stroke="midnightblue" d="M445.015,-218.501C463.206,-219.879 482.29,-221.325 500.761,-222.724"/>
<polygon fill="midnightblue" stroke="midnightblue" points="445.246,-215.009 435.01,-217.743 444.717,-221.989 445.246,-215.009"/>
</g>
<!-- Node12 -->
<g id="node23" class="node"><title>Node12</title>
<a xlink:href="classHALLogicalDeviceOrientationSensorConnector.htm" target="_top" xlink:title="HALLogicalDeviceOrientationSensorConnector">
<polygon fill="white" stroke="black" points="490.5,-180.5 490.5,-201.5 729.5,-201.5 729.5,-180.5 490.5,-180.5"/>
<text text-anchor="middle" x="610" y="-188.5" font-family="Helvetica,sans-Serif" font-size="10.00">HALLogicalDeviceOrientationSensorConnector</text>
</a>
</g>
<!-- Node9&#45;&gt;Node12 -->
<g id="edge22" class="edge"><title>Node9&#45;&gt;Node12</title>
<path fill="none" stroke="midnightblue" d="M445.144,-203.489C459.932,-202.369 475.306,-201.204 490.46,-200.056"/>
<polygon fill="midnightblue" stroke="midnightblue" points="444.717,-200.011 435.01,-204.257 445.246,-206.991 444.717,-200.011"/>
</g>
<!-- Node13 -->
<g id="node25" class="node"><title>Node13</title>
<a xlink:href="classHALLogicalOrientationSensorConnector.htm" target="_top" xlink:title="HALLogicalOrientationSensorConnector">
<polygon fill="white" stroke="black" points="507,-140.5 507,-161.5 713,-161.5 713,-140.5 507,-140.5"/>
<text text-anchor="middle" x="610" y="-148.5" font-family="Helvetica,sans-Serif" font-size="10.00">HALLogicalOrientationSensorConnector</text>
</a>
</g>
<!-- Node9&#45;&gt;Node13 -->
<g id="edge24" class="edge"><title>Node9&#45;&gt;Node13</title>
<path fill="none" stroke="midnightblue" d="M430.465,-198.11C438.513,-196.062 446.473,-193.706 454,-191 471.224,-184.808 472.721,-177.037 490,-171 500.966,-167.169 512.76,-164.06 524.518,-161.541"/>
<polygon fill="midnightblue" stroke="midnightblue" points="429.54,-194.732 420.626,-200.459 431.165,-201.541 429.54,-194.732"/>
</g>
</g>
</svg>
