<?xml version="1.0" encoding="UTF-8" standalone="no"?>
<!DOCTYPE svg PUBLIC "-//W3C//DTD SVG 1.1//EN"
 "http://www.w3.org/Graphics/SVG/1.1/DTD/svg11.dtd">
<!-- Generated by graphviz version 2.26.3 (20100126.1600)
 -->
<!-- Title: G Pages: 1 -->
<svg width="1298pt" height="974pt"
 viewBox="0.00 0.00 1298.00 973.73" xmlns="http://www.w3.org/2000/svg" xmlns:xlink="http://www.w3.org/1999/xlink">
<g id="graph1" class="graph" transform="scale(1 1) rotate(0) translate(4 969.731)">
<title>G</title>
<polygon fill="white" stroke="white" points="-4,5 -4,-969.731 1295,-969.731 1295,5 -4,5"/>
<!-- Node1 -->
<g id="node1" class="node"><title>Node1</title>
<polygon fill="#bfbfbf" stroke="black" points="1188,-315.334 1188,-336.334 1290,-336.334 1290,-315.334 1188,-315.334"/>
<text text-anchor="middle" x="1239" y="-323.334" font-family="Helvetica,sans-Serif" font-size="10.00">HostArmMantaray</text>
</g>
<!-- Node2 -->
<g id="node2" class="node"><title>Node2</title>
<a xlink:href="classHostArm.htm" target="_top" xlink:title="HostArm">
<polygon fill="white" stroke="black" points="1092.5,-315.334 1092.5,-336.334 1149.5,-336.334 1149.5,-315.334 1092.5,-315.334"/>
<text text-anchor="middle" x="1121" y="-323.334" font-family="Helvetica,sans-Serif" font-size="10.00">HostArm</text>
</a>
</g>
<!-- Node2&#45;&gt;Node1 -->
<g id="edge2" class="edge"><title>Node2&#45;&gt;Node1</title>
<path fill="none" stroke="midnightblue" d="M1159.68,-325.834C1168.62,-325.834 1178.26,-325.834 1187.65,-325.834"/>
<polygon fill="midnightblue" stroke="midnightblue" points="1159.56,-322.335 1149.56,-325.834 1159.56,-329.335 1159.56,-322.335"/>
</g>
<!-- Node3 -->
<g id="node4" class="node"><title>Node3</title>
<a xlink:href="classHostBase.htm" target="_top" xlink:title="HostBase">
<polygon fill="white" stroke="black" points="752,-354.334 752,-375.334 814,-375.334 814,-354.334 752,-354.334"/>
<text text-anchor="middle" x="783" y="-362.334" font-family="Helvetica,sans-Serif" font-size="10.00">HostBase</text>
</a>
</g>
<!-- Node3&#45;&gt;Node2 -->
<g id="edge4" class="edge"><title>Node3&#45;&gt;Node2</title>
<path fill="none" stroke="midnightblue" d="M824.309,-363.929C881.047,-362.086 986.066,-356.527 1074,-339.834 1080.02,-338.691 1086.38,-337.084 1092.4,-335.363"/>
<polygon fill="midnightblue" stroke="midnightblue" points="824.181,-360.431 814.292,-364.231 824.393,-367.428 824.181,-360.431"/>
</g>
<!-- Node4 -->
<g id="node6" class="node"><title>Node4</title>
<a xlink:href="classQObject.htm" target="_top" xlink:title="QObject">
<polygon fill="white" stroke="black" points="177.5,-585.334 177.5,-606.334 232.5,-606.334 232.5,-585.334 177.5,-585.334"/>
<text text-anchor="middle" x="205" y="-593.334" font-family="Helvetica,sans-Serif" font-size="10.00">QObject</text>
</a>
</g>
<!-- Node4&#45;&gt;Node3 -->
<g id="edge6" class="edge"><title>Node4&#45;&gt;Node3</title>
<path fill="none" stroke="midnightblue" d="M242.911,-598.08C342.13,-603.241 606.693,-612.184 678,-565.834 748.641,-519.918 774.552,-410.311 781.153,-375.582"/>
<polygon fill="midnightblue" stroke="midnightblue" points="242.914,-594.575 232.741,-597.534 242.539,-601.565 242.914,-594.575"/>
</g>
<!-- Node25 -->
<g id="node52" class="node"><title>Node25</title>
<a xlink:href="classHALConnectorBase.htm" target="_top" xlink:title="HALConnectorBase">
<polygon fill="white" stroke="black" points="416,-748.334 416,-769.334 526,-769.334 526,-748.334 416,-748.334"/>
<text text-anchor="middle" x="471" y="-756.334" font-family="Helvetica,sans-Serif" font-size="10.00">HALConnectorBase</text>
</a>
</g>
<!-- Node4&#45;&gt;Node25 -->
<g id="edge58" class="edge"><title>Node4&#45;&gt;Node25</title>
<path fill="none" stroke="midnightblue" d="M242.647,-603.828C283.744,-613.902 350.076,-634.224 398,-668.834 428.826,-691.097 453.925,-729.543 464.951,-748.142"/>
<polygon fill="midnightblue" stroke="midnightblue" points="243.307,-600.387 232.769,-601.485 241.691,-607.198 243.307,-600.387"/>
</g>
<!-- Node5 -->
<g id="node8" class="node"><title>Node5</title>
<a xlink:href="classTaskBase.htm" target="_top" xlink:title="TaskBase">
<polygon fill="white" stroke="black" points="439,-125.334 439,-146.334 503,-146.334 503,-125.334 439,-125.334"/>
<text text-anchor="middle" x="471" y="-133.334" font-family="Helvetica,sans-Serif" font-size="10.00">TaskBase</text>
</a>
</g>
<!-- Node5&#45;&gt;Node3 -->
<g id="edge8" class="edge"><title>Node5&#45;&gt;Node3</title>
<path fill="none" stroke="midnightblue" d="M513.328,-128.261C560.42,-122.502 635.461,-121.734 678,-164.834 722.688,-210.112 662.508,-252.748 696,-306.834 709.858,-329.213 735.928,-344.848 755.931,-354.2"/>
<polygon fill="midnightblue" stroke="midnightblue" points="512.59,-124.828 503.149,-129.636 513.527,-131.765 512.59,-124.828"/>
</g>
<!-- Node6 -->
<g id="node10" class="node"><title>Node6</title>
<a xlink:href="classRefCounted.htm" target="_top" xlink:title="RefCounted">
<polygon fill="white" stroke="black" points="12.5,-64.3345 12.5,-85.3345 85.5,-85.3345 85.5,-64.3345 12.5,-64.3345"/>
<text text-anchor="middle" x="49" y="-72.3345" font-family="Helvetica,sans-Serif" font-size="10.00">RefCounted</text>
</a>
</g>
<!-- Node6&#45;&gt;Node5 -->
<g id="edge10" class="edge"><title>Node6&#45;&gt;Node5</title>
<path fill="none" stroke="midnightblue" d="M70.6657,-58.0725C87.456,-46.1978 111.857,-31.278 136,-24.8345 248.743,5.25533 296.931,16.4869 398,-41.8345 432.541,-61.766 456.492,-105.072 466.188,-125.179"/>
<polygon fill="midnightblue" stroke="midnightblue" points="68.1777,-55.5557 62.1706,-64.2831 72.309,-61.2066 68.1777,-55.5557"/>
</g>
<!-- Node12 -->
<g id="node22" class="node"><title>Node12</title>
<a xlink:href="classMutex.htm" target="_top" xlink:title="Mutex">
<polygon fill="white" stroke="black" points="182.5,-245.334 182.5,-266.334 227.5,-266.334 227.5,-245.334 182.5,-245.334"/>
<text text-anchor="middle" x="205" y="-253.334" font-family="Helvetica,sans-Serif" font-size="10.00">Mutex</text>
</a>
</g>
<!-- Node6&#45;&gt;Node12 -->
<g id="edge24" class="edge"><title>Node6&#45;&gt;Node12</title>
<path fill="none" stroke="midnightblue" d="M55.2661,-95.5576C66.3045,-128.694 92.2824,-193.649 136,-230.834 149.199,-242.061 167.848,-248.415 182.431,-251.905"/>
<polygon fill="midnightblue" stroke="midnightblue" points="58.4701,-94.0855 52.0913,-85.626 51.8025,-96.2169 58.4701,-94.0855"/>
</g>
<!-- Node7 -->
<g id="node12" class="node"><title>Node7</title>
<a xlink:href="classAsyncCaller.htm" target="_top" xlink:title="AsyncCaller\&lt; TaskBase \&gt;">
<polygon fill="white" stroke="black" points="136,-319.334 136,-340.334 274,-340.334 274,-319.334 136,-319.334"/>
<text text-anchor="middle" x="205" y="-327.334" font-family="Helvetica,sans-Serif" font-size="10.00">AsyncCaller&lt; TaskBase &gt;</text>
</a>
</g>
<!-- Node7&#45;&gt;Node5 -->
<g id="edge12" class="edge"><title>Node7&#45;&gt;Node5</title>
<path fill="none" stroke="#9a32cd" stroke-dasharray="5,2" d="M284.412,-328.349C323.365,-323.516 368.195,-311.195 398,-281.834 420.272,-259.895 402.784,-242.167 416,-213.834 428.258,-187.556 449.459,-160.756 461.647,-146.427"/>
<polygon fill="#9a32cd" stroke="#9a32cd" points="283.686,-324.907 274.125,-329.472 284.446,-331.866 283.686,-324.907"/>
<text text-anchor="middle" x="345" y="-330.834" font-family="Helvetica,sans-Serif" font-size="10.00"> m_asyncCaller</text>
</g>
<!-- Node8 -->
<g id="node14" class="node"><title>Node8</title>
<a xlink:href="classAsyncCallerBase.htm" target="_top" xlink:title="AsyncCallerBase">
<polygon fill="white" stroke="black" points="0.5,-319.334 0.5,-340.334 97.5,-340.334 97.5,-319.334 0.5,-319.334"/>
<text text-anchor="middle" x="49" y="-327.334" font-family="Helvetica,sans-Serif" font-size="10.00">AsyncCallerBase</text>
</a>
</g>
<!-- Node8&#45;&gt;Node7 -->
<g id="edge14" class="edge"><title>Node8&#45;&gt;Node7</title>
<path fill="none" stroke="midnightblue" d="M107.705,-329.834C116.91,-329.834 126.497,-329.834 135.909,-329.834"/>
<polygon fill="midnightblue" stroke="midnightblue" points="107.504,-326.335 97.5042,-329.834 107.504,-333.335 107.504,-326.335"/>
</g>
<!-- Node9 -->
<g id="node16" class="node"><title>Node9</title>
<polygon fill="white" stroke="#bfbfbf" points="150,-34.3345 150,-55.3345 260,-55.3345 260,-34.3345 150,-34.3345"/>
<text text-anchor="middle" x="205" y="-42.3345" font-family="Helvetica,sans-Serif" font-size="10.00">list&lt; sptr&lt; Event &gt; &gt;</text>
</g>
<!-- Node9&#45;&gt;Node5 -->
<g id="edge16" class="edge"><title>Node9&#45;&gt;Node5</title>
<path fill="none" stroke="#9a32cd" stroke-dasharray="5,2" d="M270.346,-43.6821C309.046,-45.2972 358.144,-51.4617 398,-69.8345 425.929,-82.7093 450.673,-110.108 462.903,-125.242"/>
<polygon fill="#9a32cd" stroke="#9a32cd" points="270.342,-40.1803 260.234,-43.3527 270.114,-47.1766 270.342,-40.1803"/>
<text text-anchor="middle" x="345" y="-73.8345" font-family="Helvetica,sans-Serif" font-size="10.00"> m_eventsList</text>
</g>
<!-- Node10 -->
<g id="node18" class="node"><title>Node10</title>
<polygon fill="white" stroke="#bfbfbf" points="165,-154.334 165,-175.334 245,-175.334 245,-154.334 165,-154.334"/>
<text text-anchor="middle" x="205" y="-162.334" font-family="Helvetica,sans-Serif" font-size="10.00">GMainLoop *</text>
</g>
<!-- Node10&#45;&gt;Node5 -->
<g id="edge18" class="edge"><title>Node10&#45;&gt;Node5</title>
<path fill="none" stroke="#9a32cd" stroke-dasharray="5,2" d="M255.147,-159.367C309.096,-153.486 393.272,-144.309 438.931,-139.331"/>
<polygon fill="#9a32cd" stroke="#9a32cd" points="254.673,-155.898 245.111,-160.461 255.431,-162.857 254.673,-155.898"/>
<text text-anchor="middle" x="345" y="-157.834" font-family="Helvetica,sans-Serif" font-size="10.00"> m_mainLoop</text>
</g>
<!-- Node11 -->
<g id="node20" class="node"><title>Node11</title>
<a xlink:href="classSingletonTimer.htm" target="_top" xlink:title="SingletonTimer">
<polygon fill="white" stroke="black" points="161,-114.334 161,-135.334 249,-135.334 249,-114.334 161,-114.334"/>
<text text-anchor="middle" x="205" y="-122.334" font-family="Helvetica,sans-Serif" font-size="10.00">SingletonTimer</text>
</a>
</g>
<!-- Node11&#45;&gt;Node5 -->
<g id="edge20" class="edge"><title>Node11&#45;&gt;Node5</title>
<path fill="none" stroke="#9a32cd" stroke-dasharray="5,2" d="M259.178,-122.053C297.915,-120.674 351.248,-120.017 398,-123.834 411.441,-124.932 426.137,-127.148 438.797,-129.38"/>
<polygon fill="#9a32cd" stroke="#9a32cd" points="259.017,-118.557 249.158,-122.437 259.285,-125.551 259.017,-118.557"/>
<text text-anchor="middle" x="345" y="-127.834" font-family="Helvetica,sans-Serif" font-size="10.00"> m_masterTimer</text>
</g>
<!-- Node12&#45;&gt;Node3 -->
<g id="edge38" class="edge"><title>Node12&#45;&gt;Node3</title>
<path fill="none" stroke="#9a32cd" stroke-dasharray="5,2" d="M237.281,-266.513C253.562,-271.635 273.692,-277.568 292,-281.834 463.762,-321.858 673.568,-350.8 751.715,-360.906"/>
<polygon fill="#9a32cd" stroke="#9a32cd" points="238.282,-263.159 227.691,-263.452 236.153,-269.827 238.282,-263.159"/>
<text text-anchor="middle" x="471" y="-330.834" font-family="Helvetica,sans-Serif" font-size="10.00"> m_paintMutex</text>
</g>
<!-- Node12&#45;&gt;Node5 -->
<g id="edge22" class="edge"><title>Node12&#45;&gt;Node5</title>
<path fill="none" stroke="#9a32cd" stroke-dasharray="5,2" d="M237.949,-255.202C285.746,-253.764 371.503,-249.077 398,-233.834 407.287,-228.492 447.369,-170.564 463.866,-146.363"/>
<polygon fill="#9a32cd" stroke="#9a32cd" points="237.7,-251.707 227.797,-255.475 237.888,-258.704 237.7,-251.707"/>
<text text-anchor="middle" x="345" y="-268.834" font-family="Helvetica,sans-Serif" font-size="10.00"> m_eventsMutex</text>
<text text-anchor="middle" x="345" y="-255.834" font-family="Helvetica,sans-Serif" font-size="10.00">m_mutex</text>
</g>
<!-- Node13 -->
<g id="node25" class="node"><title>Node13</title>
<polygon fill="white" stroke="#bfbfbf" points="158.5,-74.3345 158.5,-95.3345 251.5,-95.3345 251.5,-74.3345 158.5,-74.3345"/>
<text text-anchor="middle" x="205" y="-82.3345" font-family="Helvetica,sans-Serif" font-size="10.00">GMainContext *</text>
</g>
<!-- Node13&#45;&gt;Node5 -->
<g id="edge26" class="edge"><title>Node13&#45;&gt;Node5</title>
<path fill="none" stroke="#9a32cd" stroke-dasharray="5,2" d="M261.82,-85.7468C300.707,-87.5031 353.146,-92.112 398,-103.834 416.877,-108.768 437.105,-117.974 451.47,-125.25"/>
<polygon fill="#9a32cd" stroke="#9a32cd" points="261.867,-82.2459 251.734,-85.3412 261.585,-89.2403 261.867,-82.2459"/>
<text text-anchor="middle" x="345" y="-107.834" font-family="Helvetica,sans-Serif" font-size="10.00"> m_mainCtxt</text>
</g>
<!-- Node14 -->
<g id="node27" class="node"><title>Node14</title>
<a xlink:href="structHostInfo.htm" target="_top" xlink:title="HostInfo">
<polygon fill="white" stroke="black" points="443,-354.334 443,-375.334 499,-375.334 499,-354.334 443,-354.334"/>
<text text-anchor="middle" x="471" y="-362.334" font-family="Helvetica,sans-Serif" font-size="10.00">HostInfo</text>
</a>
</g>
<!-- Node14&#45;&gt;Node3 -->
<g id="edge28" class="edge"><title>Node14&#45;&gt;Node3</title>
<path fill="none" stroke="#9a32cd" stroke-dasharray="5,2" d="M509.461,-364.834C571.972,-364.834 694.397,-364.834 751.841,-364.834"/>
<polygon fill="#9a32cd" stroke="#9a32cd" points="509.238,-361.335 499.238,-364.834 509.238,-368.335 509.238,-361.335"/>
<text text-anchor="middle" x="611" y="-368.834" font-family="Helvetica,sans-Serif" font-size="10.00"> m_info</text>
</g>
<!-- Node15 -->
<g id="node29" class="node"><title>Node15</title>
<a xlink:href="classint.htm" target="_top" xlink:title="int">
<polygon fill="white" stroke="black" points="190.5,-486.334 190.5,-507.334 219.5,-507.334 219.5,-486.334 190.5,-486.334"/>
<text text-anchor="middle" x="205" y="-494.334" font-family="Helvetica,sans-Serif" font-size="10.00">int</text>
</a>
</g>
<!-- Node15&#45;&gt;Node2 -->
<g id="edge52" class="edge"><title>Node15&#45;&gt;Node2</title>
<path fill="none" stroke="#9a32cd" stroke-dasharray="5,2" d="M229.776,-496.743C266.508,-496.57 337.582,-496.091 398,-494.834 703.968,-488.469 803.887,-507.695 1074,-363.834 1087.71,-356.534 1101.27,-344.974 1110.28,-336.52"/>
<polygon fill="#9a32cd" stroke="#9a32cd" points="229.513,-493.244 219.528,-496.787 229.543,-500.244 229.513,-493.244"/>
<text text-anchor="middle" x="611" y="-534.834" font-family="Helvetica,sans-Serif" font-size="10.00"> m_fb0Fd</text>
<text text-anchor="middle" x="611" y="-521.834" font-family="Helvetica,sans-Serif" font-size="10.00">m_fb1Fd</text>
<text text-anchor="middle" x="611" y="-508.834" font-family="Helvetica,sans-Serif" font-size="10.00">m_fb0NumBuffers</text>
<text text-anchor="middle" x="611" y="-495.834" font-family="Helvetica,sans-Serif" font-size="10.00">m_fb1NumBuffers</text>
</g>
<!-- Node15&#45;&gt;Node3 -->
<g id="edge34" class="edge"><title>Node15&#45;&gt;Node3</title>
<path fill="none" stroke="#9a32cd" stroke-dasharray="5,2" d="M230.031,-496.225C275.913,-494.668 371.239,-489.248 398,-470.834 411.763,-461.364 402.539,-447.73 416,-437.834 429.675,-427.782 665.634,-385.488 751.814,-370.296"/>
<polygon fill="#9a32cd" stroke="#9a32cd" points="229.645,-492.735 219.756,-496.537 229.857,-499.732 229.645,-492.735"/>
<text text-anchor="middle" x="471" y="-441.834" font-family="Helvetica,sans-Serif" font-size="10.00"> m_numBuffers</text>
</g>
<!-- Node15&#45;&gt;Node14 -->
<g id="edge30" class="edge"><title>Node15&#45;&gt;Node14</title>
<path fill="none" stroke="#9a32cd" stroke-dasharray="5,2" d="M211.621,-476.666C222.761,-446.439 248.417,-390.424 292,-366.834 339.831,-340.946 405.915,-349.518 442.945,-357.533"/>
<polygon fill="#9a32cd" stroke="#9a32cd" points="208.288,-475.591 208.28,-486.186 214.894,-477.909 208.288,-475.591"/>
<text text-anchor="middle" x="345" y="-461.834" font-family="Helvetica,sans-Serif" font-size="10.00"> displayGreenLength</text>
<text text-anchor="middle" x="345" y="-448.834" font-family="Helvetica,sans-Serif" font-size="10.00">displayHeight</text>
<text text-anchor="middle" x="345" y="-435.834" font-family="Helvetica,sans-Serif" font-size="10.00">displayBlueLength</text>
<text text-anchor="middle" x="345" y="-422.834" font-family="Helvetica,sans-Serif" font-size="10.00">displayRedLength</text>
<text text-anchor="middle" x="345" y="-409.834" font-family="Helvetica,sans-Serif" font-size="10.00">displayRowBytes</text>
<text text-anchor="middle" x="345" y="-396.834" font-family="Helvetica,sans-Serif" font-size="10.00">displayDepth</text>
<text text-anchor="middle" x="345" y="-383.834" font-family="Helvetica,sans-Serif" font-size="10.00">displayWidth</text>
<text text-anchor="middle" x="345" y="-370.834" font-family="Helvetica,sans-Serif" font-size="10.00">displayAlphaLength</text>
</g>
<!-- Node15&#45;&gt;Node25 -->
<g id="edge62" class="edge"><title>Node15&#45;&gt;Node25</title>
<path fill="none" stroke="#9a32cd" stroke-dasharray="5,2" d="M229.123,-505.4C275.467,-522.291 374.454,-560.615 398,-587.834 415.936,-608.569 405.925,-621.337 416,-646.834 431.205,-685.315 454.337,-728.721 465.104,-748.282"/>
<polygon fill="#9a32cd" stroke="#9a32cd" points="230.161,-502.054 219.566,-501.95 227.783,-508.638 230.161,-502.054"/>
<text text-anchor="middle" x="345" y="-604.834" font-family="Helvetica,sans-Serif" font-size="10.00"> m_SensorFD</text>
<text text-anchor="middle" x="345" y="-591.834" font-family="Helvetica,sans-Serif" font-size="10.00">m_OrientationAngle</text>
</g>
<!-- Node16 -->
<g id="node31" class="node"><title>Node16</title>
<polygon fill="white" stroke="#bfbfbf" points="183,-200.334 183,-221.334 227,-221.334 227,-200.334 183,-200.334"/>
<text text-anchor="middle" x="205" y="-208.334" font-family="Helvetica,sans-Serif" font-size="10.00">void *</text>
</g>
<!-- Node16&#45;&gt;Node2 -->
<g id="edge82" class="edge"><title>Node16&#45;&gt;Node2</title>
<path fill="none" stroke="#9a32cd" stroke-dasharray="5,2" d="M237.286,-206.757C253.658,-204.782 273.866,-202.487 292,-200.834 403.791,-190.645 431.809,-187.614 544,-183.834 603.522,-181.829 632.942,-144.89 678,-183.834 719.8,-219.962 655.018,-269.782 696,-306.834 725.276,-333.304 1001.96,-328.817 1092.48,-326.616"/>
<polygon fill="#9a32cd" stroke="#9a32cd" points="236.641,-203.31 227.141,-207.998 237.492,-210.258 236.641,-203.31"/>
<text text-anchor="middle" x="611" y="-200.834" font-family="Helvetica,sans-Serif" font-size="10.00"> m_fb1Buffer</text>
<text text-anchor="middle" x="611" y="-187.834" font-family="Helvetica,sans-Serif" font-size="10.00">m_fb0Buffer</text>
</g>
<!-- Node16&#45;&gt;Node14 -->
<g id="edge32" class="edge"><title>Node16&#45;&gt;Node14</title>
<path fill="none" stroke="#9a32cd" stroke-dasharray="5,2" d="M237.115,-207.089C285.789,-202.174 375.017,-196.386 398,-216.834 438.62,-252.974 383.922,-293.936 416,-337.834 422.527,-346.766 432.828,-352.897 442.759,-357.029"/>
<polygon fill="#9a32cd" stroke="#9a32cd" points="236.675,-203.616 227.098,-208.146 237.41,-210.577 236.675,-203.616"/>
<text text-anchor="middle" x="345" y="-220.834" font-family="Helvetica,sans-Serif" font-size="10.00"> displayBuffer</text>
</g>
<!-- Node17 -->
<g id="node34" class="node"><title>Node17</title>
<polygon fill="white" stroke="#bfbfbf" points="187,-648.334 187,-669.334 223,-669.334 223,-648.334 187,-648.334"/>
<text text-anchor="middle" x="205" y="-656.334" font-family="Helvetica,sans-Serif" font-size="10.00">bool</text>
</g>
<!-- Node17&#45;&gt;Node2 -->
<g id="edge76" class="edge"><title>Node17&#45;&gt;Node2</title>
<path fill="none" stroke="#9a32cd" stroke-dasharray="5,2" d="M233.4,-659.387C289.518,-660.141 418.496,-660.204 526,-647.834 788.236,-617.661 887.136,-605.274 1074,-418.834 1098.33,-394.557 1112.44,-355.088 1118.09,-336.351"/>
<polygon fill="#9a32cd" stroke="#9a32cd" points="233.228,-655.884 223.176,-659.23 233.121,-662.883 233.228,-655.884"/>
<text text-anchor="middle" x="611" y="-648.834" font-family="Helvetica,sans-Serif" font-size="10.00"> m_bluetoothKeyboardActive</text>
</g>
<!-- Node17&#45;&gt;Node3 -->
<g id="edge36" class="edge"><title>Node17&#45;&gt;Node3</title>
<path fill="none" stroke="#9a32cd" stroke-dasharray="5,2" d="M233.131,-655.212C334.235,-642.168 673.471,-598.196 678,-594.834 754.309,-538.195 776.646,-412.857 781.722,-375.527"/>
<polygon fill="#9a32cd" stroke="#9a32cd" points="232.526,-651.761 223.056,-656.511 233.421,-658.703 232.526,-651.761"/>
<text text-anchor="middle" x="471" y="-634.834" font-family="Helvetica,sans-Serif" font-size="10.00"> m_metaKeyDown</text>
</g>
<!-- Node17&#45;&gt;Node25 -->
<g id="edge66" class="edge"><title>Node17&#45;&gt;Node25</title>
<path fill="none" stroke="#9a32cd" stroke-dasharray="5,2" d="M233.053,-662.187C271.651,-667.563 342.644,-680.217 398,-705.834 421.879,-716.885 445.855,-736.257 459.517,-748.269"/>
<polygon fill="#9a32cd" stroke="#9a32cd" points="233.439,-658.708 223.065,-660.859 232.517,-665.647 233.439,-658.708"/>
<text text-anchor="middle" x="345" y="-722.834" font-family="Helvetica,sans-Serif" font-size="10.00"> m_Finished</text>
<text text-anchor="middle" x="345" y="-709.834" font-family="Helvetica,sans-Serif" font-size="10.00">m_CanPostEvent</text>
</g>
<!-- Node18 -->
<g id="node37" class="node"><title>Node18</title>
<polygon fill="white" stroke="#bfbfbf" points="434,-223.334 434,-244.334 508,-244.334 508,-223.334 434,-223.334"/>
<text text-anchor="middle" x="471" y="-231.334" font-family="Helvetica,sans-Serif" font-size="10.00">QTransform</text>
</g>
<!-- Node18&#45;&gt;Node3 -->
<g id="edge40" class="edge"><title>Node18&#45;&gt;Node3</title>
<path fill="none" stroke="#9a32cd" stroke-dasharray="5,2" d="M517.996,-221.37C564.413,-212.132 634.581,-206.882 678,-244.834 710.355,-273.116 667.052,-308.074 696,-339.834 710.08,-355.282 733.012,-361.426 751.799,-363.765"/>
<polygon fill="#9a32cd" stroke="#9a32cd" points="517.237,-217.953 508.181,-223.452 518.69,-224.8 517.237,-217.953"/>
<text text-anchor="middle" x="611" y="-248.834" font-family="Helvetica,sans-Serif" font-size="10.00"> m_trans</text>
</g>
<!-- Node19 -->
<g id="node39" class="node"><title>Node19</title>
<polygon fill="white" stroke="#bfbfbf" points="441.5,-263.334 441.5,-284.334 500.5,-284.334 500.5,-263.334 441.5,-263.334"/>
<text text-anchor="middle" x="471" y="-271.334" font-family="Helvetica,sans-Serif" font-size="10.00">unsigned</text>
</g>
<!-- Node19&#45;&gt;Node3 -->
<g id="edge42" class="edge"><title>Node19&#45;&gt;Node3</title>
<path fill="none" stroke="#9a32cd" stroke-dasharray="5,2" d="M510.848,-266.276C556.06,-260.064 629.762,-257.387 678,-293.834 695.516,-307.069 679.77,-325.05 696,-339.834 711.219,-353.698 733.644,-359.92 751.915,-362.69"/>
<polygon fill="#9a32cd" stroke="#9a32cd" points="510.198,-262.835 500.826,-267.776 511.234,-269.757 510.198,-262.835"/>
<text text-anchor="middle" x="611" y="-297.834" font-family="Helvetica,sans-Serif" font-size="10.00"> m_turboModeSubscriptions</text>
</g>
<!-- Node20 -->
<g id="node41" class="node"><title>Node20</title>
<polygon fill="white" stroke="#bfbfbf" points="436.5,-460.334 436.5,-481.334 505.5,-481.334 505.5,-460.334 436.5,-460.334"/>
<text text-anchor="middle" x="471" y="-468.334" font-family="Helvetica,sans-Serif" font-size="10.00">Orientation</text>
</g>
<!-- Node20&#45;&gt;Node3 -->
<g id="edge44" class="edge"><title>Node20&#45;&gt;Node3</title>
<path fill="none" stroke="#9a32cd" stroke-dasharray="5,2" d="M515.848,-471.155C558.929,-470.009 625.096,-464.376 678,-442.834 717.119,-426.906 754.822,-392.948 772.516,-375.568"/>
<polygon fill="#9a32cd" stroke="#9a32cd" points="515.613,-467.659 505.683,-471.354 515.75,-474.658 515.613,-467.659"/>
<text text-anchor="middle" x="611" y="-472.834" font-family="Helvetica,sans-Serif" font-size="10.00"> m_orientation</text>
</g>
<!-- Node21 -->
<g id="node43" class="node"><title>Node21</title>
<a xlink:href="classHALConnectorObserver.htm" target="_top" xlink:title="HALConnectorObserver">
<polygon fill="white" stroke="black" points="140,-931.334 140,-952.334 270,-952.334 270,-931.334 140,-931.334"/>
<text text-anchor="middle" x="205" y="-939.334" font-family="Helvetica,sans-Serif" font-size="10.00">HALConnectorObserver</text>
</a>
</g>
<!-- Node21&#45;&gt;Node2 -->
<g id="edge46" class="edge"><title>Node21&#45;&gt;Node2</title>
<path fill="none" stroke="midnightblue" d="M280.065,-953.028C451.284,-973.812 871.484,-997.02 1074,-762.834 1102.82,-729.503 1117.9,-400.508 1120.57,-336.57"/>
<polygon fill="midnightblue" stroke="midnightblue" points="280.488,-949.554 270.133,-951.791 279.623,-956.5 280.488,-949.554"/>
</g>
<!-- Node21&#45;&gt;Node25 -->
<g id="edge68" class="edge"><title>Node21&#45;&gt;Node25</title>
<path fill="none" stroke="#9a32cd" stroke-dasharray="5,2" d="M265.598,-929.279C321.683,-917.61 396.64,-901.874 398,-900.834 443.147,-866.326 462.8,-796.027 468.838,-769.387"/>
<polygon fill="#9a32cd" stroke="#9a32cd" points="264.798,-925.87 255.72,-931.332 266.223,-932.723 264.798,-925.87"/>
<text text-anchor="middle" x="345" y="-926.834" font-family="Helvetica,sans-Serif" font-size="10.00"> m_Observer</text>
</g>
<!-- Node22 -->
<g id="node45" class="node"><title>Node22</title>
<polygon fill="white" stroke="#bfbfbf" points="719,-276.334 719,-297.334 847,-297.334 847,-276.334 719,-276.334"/>
<text text-anchor="middle" x="783" y="-284.334" font-family="Helvetica,sans-Serif" font-size="10.00">HidHardwareRevision_t</text>
</g>
<!-- Node22&#45;&gt;Node2 -->
<g id="edge48" class="edge"><title>Node22&#45;&gt;Node2</title>
<path fill="none" stroke="#9a32cd" stroke-dasharray="5,2" d="M857.222,-280.299C916.972,-277.302 1002.48,-278.166 1074,-298.834 1085.75,-302.231 1097.69,-309.14 1106.59,-315.119"/>
<polygon fill="#9a32cd" stroke="#9a32cd" points="856.912,-276.811 847.119,-280.855 857.296,-283.801 856.912,-276.811"/>
<text text-anchor="middle" x="981" y="-302.834" font-family="Helvetica,sans-Serif" font-size="10.00"> m_hwRev</text>
</g>
<!-- Node23 -->
<g id="node47" class="node"><title>Node23</title>
<polygon fill="white" stroke="#bfbfbf" points="733.5,-236.334 733.5,-257.334 832.5,-257.334 832.5,-236.334 733.5,-236.334"/>
<text text-anchor="middle" x="783" y="-244.334" font-family="Helvetica,sans-Serif" font-size="10.00">QSocketNotifier *</text>
</g>
<!-- Node23&#45;&gt;Node2 -->
<g id="edge50" class="edge"><title>Node23&#45;&gt;Node2</title>
<path fill="none" stroke="#9a32cd" stroke-dasharray="5,2" d="M842.8,-240.555C916.292,-233.976 1035.94,-227.303 1074,-248.834 1099.49,-263.255 1112.82,-297.694 1118.15,-315.211"/>
<polygon fill="#9a32cd" stroke="#9a32cd" points="842.387,-237.079 832.75,-241.48 843.028,-244.049 842.387,-237.079"/>
<text text-anchor="middle" x="981" y="-265.834" font-family="Helvetica,sans-Serif" font-size="10.00"> m_halLightNotifier</text>
<text text-anchor="middle" x="981" y="-252.834" font-family="Helvetica,sans-Serif" font-size="10.00">m_halProxNotifier</text>
</g>
<!-- Node24 -->
<g id="node50" class="node"><title>Node24</title>
<a xlink:href="classHALOrientationSensorConnector.htm" target="_top" xlink:title="HALOrientationSensorConnector">
<polygon fill="white" stroke="black" points="696.5,-725.334 696.5,-746.334 869.5,-746.334 869.5,-725.334 696.5,-725.334"/>
<text text-anchor="middle" x="783" y="-733.334" font-family="Helvetica,sans-Serif" font-size="10.00">HALOrientationSensorConnector</text>
</a>
</g>
<!-- Node24&#45;&gt;Node2 -->
<g id="edge54" class="edge"><title>Node24&#45;&gt;Node2</title>
<path fill="none" stroke="#9a32cd" stroke-dasharray="5,2" d="M879.796,-745.895C943.901,-746.837 1024.92,-736.086 1074,-684.834 1098.83,-658.9 1116.78,-393.249 1120.35,-336.475"/>
<polygon fill="#9a32cd" stroke="#9a32cd" points="879.743,-742.392 869.66,-745.647 879.572,-749.39 879.743,-742.392"/>
<text text-anchor="middle" x="981" y="-749.834" font-family="Helvetica,sans-Serif" font-size="10.00"> m_OrientationSensor</text>
</g>
<!-- Node25&#45;&gt;Node24 -->
<g id="edge56" class="edge"><title>Node25&#45;&gt;Node24</title>
<path fill="none" stroke="midnightblue" d="M536.313,-754.02C582.798,-750.593 645.741,-745.953 696.412,-742.218"/>
<polygon fill="midnightblue" stroke="midnightblue" points="535.777,-750.55 526.061,-754.775 536.291,-757.531 535.777,-750.55"/>
</g>
<!-- Node26 -->
<g id="node55" class="node"><title>Node26</title>
<polygon fill="white" stroke="#bfbfbf" points="159.5,-842.334 159.5,-863.334 250.5,-863.334 250.5,-842.334 159.5,-842.334"/>
<text text-anchor="middle" x="205" y="-850.334" font-family="Helvetica,sans-Serif" font-size="10.00">hal_device_id_t</text>
</g>
<!-- Node26&#45;&gt;Node25 -->
<g id="edge60" class="edge"><title>Node26&#45;&gt;Node25</title>
<path fill="none" stroke="#9a32cd" stroke-dasharray="5,2" d="M260.721,-850.991C300.551,-847.875 354.565,-839.898 398,-819.834 424.389,-807.645 448.997,-783.384 461.8,-769.411"/>
<polygon fill="#9a32cd" stroke="#9a32cd" points="260.388,-847.505 250.658,-851.699 260.879,-854.488 260.388,-847.505"/>
<text text-anchor="middle" x="345" y="-850.834" font-family="Helvetica,sans-Serif" font-size="10.00"> m_HALDeviceId</text>
</g>
<!-- Node27 -->
<g id="node58" class="node"><title>Node27</title>
<polygon fill="white" stroke="#bfbfbf" points="180,-802.334 180,-823.334 230,-823.334 230,-802.334 180,-802.334"/>
<text text-anchor="middle" x="205" y="-810.334" font-family="Helvetica,sans-Serif" font-size="10.00">Sensor</text>
</g>
<!-- Node27&#45;&gt;Node25 -->
<g id="edge64" class="edge"><title>Node27&#45;&gt;Node25</title>
<path fill="none" stroke="#9a32cd" stroke-dasharray="5,2" d="M240.602,-809.801C279.641,-805.983 343.932,-798.244 398,-784.834 414.061,-780.851 431.541,-774.693 445.368,-769.37"/>
<polygon fill="#9a32cd" stroke="#9a32cd" points="239.917,-806.35 230.29,-810.775 240.575,-813.319 239.917,-806.35"/>
<text text-anchor="middle" x="345" y="-806.834" font-family="Helvetica,sans-Serif" font-size="10.00"> m_SensorType</text>
</g>
<!-- Node28 -->
<g id="node62" class="node"><title>Node28</title>
<polygon fill="white" stroke="#bfbfbf" points="159.5,-762.334 159.5,-783.334 250.5,-783.334 250.5,-762.334 159.5,-762.334"/>
<text text-anchor="middle" x="205" y="-770.334" font-family="Helvetica,sans-Serif" font-size="10.00">QSocketNotifier</text>
</g>
<!-- Node28&#45;&gt;Node25 -->
<g id="edge70" class="edge"><title>Node28&#45;&gt;Node25</title>
<path fill="none" stroke="#9a32cd" stroke-dasharray="5,2" d="M260.727,-769.901C306.274,-767.504 370.331,-764.133 415.748,-761.742"/>
<polygon fill="#9a32cd" stroke="#9a32cd" points="260.529,-766.407 250.727,-770.428 260.897,-773.397 260.529,-766.407"/>
<text text-anchor="middle" x="345" y="-771.834" font-family="Helvetica,sans-Serif" font-size="10.00"> m_HALSensorNotifier</text>
</g>
<!-- Node29 -->
<g id="node64" class="node"><title>Node29</title>
<polygon fill="white" stroke="#bfbfbf" points="153.5,-722.334 153.5,-743.334 256.5,-743.334 256.5,-722.334 153.5,-722.334"/>
<text text-anchor="middle" x="205" y="-730.334" font-family="Helvetica,sans-Serif" font-size="10.00">hal_device_type_t</text>
</g>
<!-- Node29&#45;&gt;Node25 -->
<g id="edge72" class="edge"><title>Node29&#45;&gt;Node25</title>
<path fill="none" stroke="#9a32cd" stroke-dasharray="5,2" d="M267.126,-735.297C305.036,-737.227 354.428,-740.503 398,-745.834 403.75,-746.538 409.734,-747.396 415.692,-748.332"/>
<polygon fill="#9a32cd" stroke="#9a32cd" points="266.912,-731.783 256.752,-734.788 266.568,-738.774 266.912,-731.783"/>
<text text-anchor="middle" x="345" y="-749.834" font-family="Helvetica,sans-Serif" font-size="10.00"> m_HALDeviceType</text>
</g>
<!-- Node30 -->
<g id="node66" class="node"><title>Node30</title>
<polygon fill="white" stroke="#bfbfbf" points="147.5,-882.334 147.5,-903.334 262.5,-903.334 262.5,-882.334 147.5,-882.334"/>
<text text-anchor="middle" x="205" y="-890.334" font-family="Helvetica,sans-Serif" font-size="10.00">hal_device_handle_t</text>
</g>
<!-- Node30&#45;&gt;Node25 -->
<g id="edge74" class="edge"><title>Node30&#45;&gt;Node25</title>
<path fill="none" stroke="#9a32cd" stroke-dasharray="5,2" d="M273.042,-888.308C319.986,-884.127 377.491,-876.584 398,-863.834 434.956,-840.86 458.114,-791.516 466.94,-769.648"/>
<polygon fill="#9a32cd" stroke="#9a32cd" points="272.563,-884.836 262.897,-889.175 273.159,-891.81 272.563,-884.836"/>
<text text-anchor="middle" x="345" y="-889.834" font-family="Helvetica,sans-Serif" font-size="10.00"> m_Handle</text>
</g>
<!-- Node31 -->
<g id="node69" class="node"><title>Node31</title>
<polygon fill="white" stroke="#bfbfbf" points="719.5,-196.334 719.5,-217.334 846.5,-217.334 846.5,-196.334 719.5,-196.334"/>
<text text-anchor="middle" x="783" y="-204.334" font-family="Helvetica,sans-Serif" font-size="10.00">HidHardwarePlatform_t</text>
</g>
<!-- Node31&#45;&gt;Node2 -->
<g id="edge78" class="edge"><title>Node31&#45;&gt;Node2</title>
<path fill="none" stroke="#9a32cd" stroke-dasharray="5,2" d="M857.056,-200.624C931.516,-195.898 1040.01,-193.628 1074,-216.834 1107.7,-239.841 1117.39,-292.464 1120.04,-315.127"/>
<polygon fill="#9a32cd" stroke="#9a32cd" points="856.534,-197.151 846.787,-201.305 856.997,-204.136 856.534,-197.151"/>
<text text-anchor="middle" x="981" y="-220.834" font-family="Helvetica,sans-Serif" font-size="10.00"> m_hwPlatform</text>
</g>
<!-- Node32 -->
<g id="node71" class="node"><title>Node32</title>
<polygon fill="white" stroke="#bfbfbf" points="747.5,-156.334 747.5,-177.334 818.5,-177.334 818.5,-156.334 747.5,-156.334"/>
<text text-anchor="middle" x="783" y="-164.334" font-family="Helvetica,sans-Serif" font-size="10.00">LSHandle *</text>
</g>
<!-- Node32&#45;&gt;Node2 -->
<g id="edge80" class="edge"><title>Node32&#45;&gt;Node2</title>
<path fill="none" stroke="#9a32cd" stroke-dasharray="5,2" d="M828.707,-162.763C900.845,-157.326 1036.74,-151.392 1074,-179.834 1096.22,-196.8 1113.61,-284.177 1119.15,-315.03"/>
<polygon fill="#9a32cd" stroke="#9a32cd" points="828.242,-159.289 818.546,-163.558 828.788,-166.268 828.242,-159.289"/>
<text text-anchor="middle" x="981" y="-183.834" font-family="Helvetica,sans-Serif" font-size="10.00"> m_service</text>
</g>
<!-- Node33 -->
<g id="node74" class="node"><title>Node33</title>
<a xlink:href="classInputControl.htm" target="_top" xlink:title="InputControl">
<polygon fill="white" stroke="black" points="746,-70.3345 746,-91.3345 820,-91.3345 820,-70.3345 746,-70.3345"/>
<text text-anchor="middle" x="783" y="-78.3345" font-family="Helvetica,sans-Serif" font-size="10.00">InputControl</text>
</a>
</g>
<!-- Node33&#45;&gt;Node2 -->
<g id="edge84" class="edge"><title>Node33&#45;&gt;Node2</title>
<path fill="none" stroke="#9a32cd" stroke-dasharray="5,2" d="M824.885,-67.4085C887.062,-50.3449 1003.95,-29.6846 1074,-88.8345 1109.33,-118.672 1118.67,-272.937 1120.58,-315.147"/>
<polygon fill="#9a32cd" stroke="#9a32cd" points="823.689,-64.1096 815.027,-70.2104 825.603,-70.8429 823.689,-64.1096"/>
<text text-anchor="middle" x="981" y="-144.834" font-family="Helvetica,sans-Serif" font-size="10.00"> m_halInputControlALS</text>
<text text-anchor="middle" x="981" y="-131.834" font-family="Helvetica,sans-Serif" font-size="10.00">m_halInputControlTouchpanel</text>
<text text-anchor="middle" x="981" y="-118.834" font-family="Helvetica,sans-Serif" font-size="10.00">m_halInputControlProx</text>
<text text-anchor="middle" x="981" y="-105.834" font-family="Helvetica,sans-Serif" font-size="10.00">m_halInputControlBluetoothInputDetect</text>
<text text-anchor="middle" x="981" y="-92.8345" font-family="Helvetica,sans-Serif" font-size="10.00">m_halInputControlKeys</text>
</g>
</g>
</svg>
