<?xml version="1.0" encoding="UTF-8" standalone="no"?>
<!DOCTYPE svg PUBLIC "-//W3C//DTD SVG 1.1//EN"
 "http://www.w3.org/Graphics/SVG/1.1/DTD/svg11.dtd">
<!-- Generated by graphviz version 2.26.3 (20100126.1600)
 -->
<!-- Title: G Pages: 1 -->
<svg width="302pt" height="162pt"
 viewBox="0.00 0.00 302.00 162.00" xmlns="http://www.w3.org/2000/svg" xmlns:xlink="http://www.w3.org/1999/xlink">
<g id="graph1" class="graph" transform="scale(1 1) rotate(0) translate(4 158)">
<title>G</title>
<polygon fill="white" stroke="white" points="-4,5 -4,-158 299,-158 299,5 -4,5"/>
<!-- Node1 -->
<g id="node1" class="node"><title>Node1</title>
<polygon fill="#bfbfbf" stroke="black" points="49.5,-0.5 49.5,-21.5 168.5,-21.5 168.5,-0.5 49.5,-0.5"/>
<text text-anchor="middle" x="109" y="-8.5" font-family="Helvetica,sans-Serif" font-size="10.00">QWSHiddKbdHandler</text>
</g>
<!-- Node2 -->
<g id="node2" class="node"><title>Node2</title>
<a xlink:href="classQWSKeyboardHandler.htm" target="_top" xlink:title="QWSKeyboardHandler">
<polygon fill="white" stroke="black" points="0,-72.5 0,-93.5 124,-93.5 124,-72.5 0,-72.5"/>
<text text-anchor="middle" x="62" y="-80.5" font-family="Helvetica,sans-Serif" font-size="10.00">QWSKeyboardHandler</text>
</a>
</g>
<!-- Node2&#45;&gt;Node1 -->
<g id="edge2" class="edge"><title>Node2&#45;&gt;Node1</title>
<path fill="none" stroke="midnightblue" d="M74.5269,-63.8099C83.3389,-50.3106 94.8054,-32.7449 102.037,-21.6674"/>
<polygon fill="midnightblue" stroke="midnightblue" points="71.4704,-62.0892 68.935,-72.3762 77.3321,-65.9155 71.4704,-62.0892"/>
</g>
<!-- Node3 -->
<g id="node4" class="node"><title>Node3</title>
<a xlink:href="classQWSHiddKbdHandlerPrivate.htm" target="_top" xlink:title="QWSHiddKbdHandlerPrivate">
<polygon fill="white" stroke="black" points="142,-72.5 142,-93.5 294,-93.5 294,-72.5 142,-72.5"/>
<text text-anchor="middle" x="218" y="-80.5" font-family="Helvetica,sans-Serif" font-size="10.00">QWSHiddKbdHandlerPrivate</text>
</a>
</g>
<!-- Node3&#45;&gt;Node1 -->
<g id="edge4" class="edge"><title>Node3&#45;&gt;Node1</title>
<path fill="none" stroke="#9a32cd" stroke-dasharray="5,2" d="M193.548,-66.8481C172.661,-53.0514 143.209,-33.597 125.149,-21.6674"/>
<polygon fill="#9a32cd" stroke="#9a32cd" points="191.644,-69.7849 201.917,-72.3762 195.502,-63.9441 191.644,-69.7849"/>
<text text-anchor="middle" x="178" y="-44.5" font-family="Helvetica,sans-Serif" font-size="10.00"> d</text>
</g>
<!-- Node4 -->
<g id="node6" class="node"><title>Node4</title>
<a xlink:href="classQObject.htm" target="_top" xlink:title="QObject">
<polygon fill="white" stroke="black" points="190.5,-132.5 190.5,-153.5 245.5,-153.5 245.5,-132.5 190.5,-132.5"/>
<text text-anchor="middle" x="218" y="-140.5" font-family="Helvetica,sans-Serif" font-size="10.00">QObject</text>
</a>
</g>
<!-- Node4&#45;&gt;Node3 -->
<g id="edge6" class="edge"><title>Node4&#45;&gt;Node3</title>
<path fill="none" stroke="midnightblue" d="M218,-122.231C218,-112.592 218,-101.544 218,-93.6339"/>
<polygon fill="midnightblue" stroke="midnightblue" points="214.5,-122.273 218,-132.273 221.5,-122.273 214.5,-122.273"/>
</g>
</g>
</svg>
