<?xml version="1.0" encoding="UTF-8" standalone="no"?>
<!DOCTYPE svg PUBLIC "-//W3C//DTD SVG 1.1//EN"
 "http://www.w3.org/Graphics/SVG/1.1/DTD/svg11.dtd">
<!-- Generated by graphviz version 2.26.3 (20100126.1600)
 -->
<!-- Title: G Pages: 1 -->
<svg width="508pt" height="350pt"
 viewBox="0.00 0.00 508.00 350.00" xmlns="http://www.w3.org/2000/svg" xmlns:xlink="http://www.w3.org/1999/xlink">
<g id="graph1" class="graph" transform="scale(1 1) rotate(0) translate(4 346)">
<title>G</title>
<polygon fill="white" stroke="white" points="-4,5 -4,-346 505,-346 505,5 -4,5"/>
<!-- Node1 -->
<g id="node1" class="node"><title>Node1</title>
<polygon fill="#bfbfbf" stroke="black" points="364.5,-157.5 364.5,-178.5 499.5,-178.5 499.5,-157.5 364.5,-157.5"/>
<text text-anchor="middle" x="432" y="-165.5" font-family="Helvetica,sans-Serif" font-size="10.00">StatusBarNotificationIcon</text>
</g>
<!-- Node2 -->
<g id="node2" class="node"><title>Node2</title>
<a xlink:href="classStatusBarIcon.htm" target="_top" xlink:title="StatusBarIcon">
<polygon fill="white" stroke="black" points="242.5,-157.5 242.5,-178.5 325.5,-178.5 325.5,-157.5 242.5,-157.5"/>
<text text-anchor="middle" x="284" y="-165.5" font-family="Helvetica,sans-Serif" font-size="10.00">StatusBarIcon</text>
</a>
</g>
<!-- Node2&#45;&gt;Node1 -->
<g id="edge2" class="edge"><title>Node2&#45;&gt;Node1</title>
<path fill="none" stroke="midnightblue" d="M335.795,-168C345.029,-168 354.771,-168 364.369,-168"/>
<polygon fill="midnightblue" stroke="midnightblue" points="335.62,-164.5 325.62,-168 335.62,-171.5 335.62,-164.5"/>
</g>
<!-- Node3 -->
<g id="node4" class="node"><title>Node3</title>
<a xlink:href="classQObject.htm" target="_top" xlink:title="QObject">
<polygon fill="white" stroke="black" points="37.5,-320.5 37.5,-341.5 92.5,-341.5 92.5,-320.5 37.5,-320.5"/>
<text text-anchor="middle" x="65" y="-328.5" font-family="Helvetica,sans-Serif" font-size="10.00">QObject</text>
</a>
</g>
<!-- Node3&#45;&gt;Node2 -->
<g id="edge4" class="edge"><title>Node3&#45;&gt;Node2</title>
<path fill="none" stroke="midnightblue" d="M102.825,-334.735C137.801,-336.133 189.445,-332.725 224,-306 266.158,-273.395 279.227,-205.123 282.797,-178.733"/>
<polygon fill="midnightblue" stroke="midnightblue" points="102.72,-331.224 92.5428,-334.168 102.335,-338.214 102.72,-331.224"/>
</g>
<!-- Node4 -->
<g id="node6" class="node"><title>Node4</title>
<polygon fill="white" stroke="#bfbfbf" points="3.5,-280.5 3.5,-301.5 126.5,-301.5 126.5,-280.5 3.5,-280.5"/>
<text text-anchor="middle" x="65" y="-288.5" font-family="Helvetica,sans-Serif" font-size="10.00">QPointer&lt; tIconAnim &gt;</text>
</g>
<!-- Node4&#45;&gt;Node2 -->
<g id="edge6" class="edge"><title>Node4&#45;&gt;Node2</title>
<path fill="none" stroke="#9a32cd" stroke-dasharray="5,2" d="M136.883,-291.328C165.975,-288.419 198.613,-281.006 224,-264 255.515,-242.889 273.614,-199.046 280.613,-178.745"/>
<polygon fill="#9a32cd" stroke="#9a32cd" points="136.431,-287.854 126.758,-292.177 137.016,-294.829 136.431,-287.854"/>
<text text-anchor="middle" x="186" y="-293" font-family="Helvetica,sans-Serif" font-size="10.00"> m_animPtr</text>
</g>
<!-- Node5 -->
<g id="node8" class="node"><title>Node5</title>
<polygon fill="white" stroke="#bfbfbf" points="35.5,-240.5 35.5,-261.5 94.5,-261.5 94.5,-240.5 35.5,-240.5"/>
<text text-anchor="middle" x="65" y="-248.5" font-family="Helvetica,sans-Serif" font-size="10.00">QPixmap</text>
</g>
<!-- Node5&#45;&gt;Node2 -->
<g id="edge8" class="edge"><title>Node5&#45;&gt;Node2</title>
<path fill="none" stroke="#9a32cd" stroke-dasharray="5,2" d="M105.05,-251.299C138.478,-250.046 186.536,-244.664 224,-226 246.564,-214.759 266.174,-192.004 276.421,-178.58"/>
<polygon fill="#9a32cd" stroke="#9a32cd" points="104.647,-247.809 94.7431,-251.572 104.832,-254.806 104.647,-247.809"/>
<text text-anchor="middle" x="186" y="-251" font-family="Helvetica,sans-Serif" font-size="10.00"> m_imgPtr</text>
</g>
<!-- Node6 -->
<g id="node10" class="node"><title>Node6</title>
<polygon fill="white" stroke="#bfbfbf" points="44.5,-200.5 44.5,-221.5 85.5,-221.5 85.5,-200.5 44.5,-200.5"/>
<text text-anchor="middle" x="65" y="-208.5" font-family="Helvetica,sans-Serif" font-size="10.00">qreal</text>
</g>
<!-- Node6&#45;&gt;Node2 -->
<g id="edge10" class="edge"><title>Node6&#45;&gt;Node2</title>
<path fill="none" stroke="#9a32cd" stroke-dasharray="5,2" d="M95.7345,-205.852C127.824,-200.371 179.571,-191.229 224,-182 229.97,-180.76 236.255,-179.378 242.421,-177.979"/>
<polygon fill="#9a32cd" stroke="#9a32cd" points="94.9175,-202.441 85.6446,-207.566 96.0895,-209.342 94.9175,-202.441"/>
<text text-anchor="middle" x="186" y="-213" font-family="Helvetica,sans-Serif" font-size="10.00"> m_animOpacity</text>
<text text-anchor="middle" x="186" y="-200" font-family="Helvetica,sans-Serif" font-size="10.00">m_animWidth</text>
</g>
<!-- Node7 -->
<g id="node12" class="node"><title>Node7</title>
<polygon fill="white" stroke="#bfbfbf" points="47,-160.5 47,-181.5 83,-181.5 83,-160.5 47,-160.5"/>
<text text-anchor="middle" x="65" y="-168.5" font-family="Helvetica,sans-Serif" font-size="10.00">bool</text>
</g>
<!-- Node7&#45;&gt;Node2 -->
<g id="edge12" class="edge"><title>Node7&#45;&gt;Node2</title>
<path fill="none" stroke="#9a32cd" stroke-dasharray="5,2" d="M93.448,-170.197C109.471,-169.774 129.85,-169.285 148,-169 179.636,-168.503 215.415,-168.252 242.332,-168.126"/>
<polygon fill="#9a32cd" stroke="#9a32cd" points="93.0342,-166.707 83.1325,-170.476 93.2234,-173.704 93.0342,-166.707"/>
<text text-anchor="middle" x="186" y="-173" font-family="Helvetica,sans-Serif" font-size="10.00"> m_visible</text>
</g>
<!-- Node8 -->
<g id="node14" class="node"><title>Node8</title>
<polygon fill="white" stroke="#bfbfbf" points="22.5,-120.5 22.5,-141.5 107.5,-141.5 107.5,-120.5 22.5,-120.5"/>
<text text-anchor="middle" x="65" y="-128.5" font-family="Helvetica,sans-Serif" font-size="10.00">QEasingCurve</text>
</g>
<!-- Node8&#45;&gt;Node2 -->
<g id="edge14" class="edge"><title>Node8&#45;&gt;Node2</title>
<path fill="none" stroke="#9a32cd" stroke-dasharray="5,2" d="M117.981,-135.642C149.056,-138.866 188.973,-143.877 224,-151 232.594,-152.748 241.756,-155.091 250.267,-157.479"/>
<polygon fill="#9a32cd" stroke="#9a32cd" points="118.101,-132.136 107.801,-134.616 117.399,-139.101 118.101,-132.136"/>
<text text-anchor="middle" x="186" y="-155" font-family="Helvetica,sans-Serif" font-size="10.00"> m_curve</text>
</g>
<!-- Node9 -->
<g id="node16" class="node"><title>Node9</title>
<polygon fill="white" stroke="#bfbfbf" points="21,-80.5 21,-101.5 109,-101.5 109,-80.5 21,-80.5"/>
<text text-anchor="middle" x="65" y="-88.5" font-family="Helvetica,sans-Serif" font-size="10.00">AnimationState</text>
</g>
<!-- Node9&#45;&gt;Node2 -->
<g id="edge16" class="edge"><title>Node9&#45;&gt;Node2</title>
<path fill="none" stroke="#9a32cd" stroke-dasharray="5,2" d="M119.12,-95.3115C150.786,-99.3373 190.914,-107.093 224,-122 243.387,-130.735 262.264,-146.835 273.514,-157.482"/>
<polygon fill="#9a32cd" stroke="#9a32cd" points="119.499,-91.832 109.157,-94.1312 118.675,-98.7834 119.499,-91.832"/>
<text text-anchor="middle" x="186" y="-126" font-family="Helvetica,sans-Serif" font-size="10.00"> m_animState</text>
</g>
<!-- Node10 -->
<g id="node18" class="node"><title>Node10</title>
<a xlink:href="classStatusBarIconContainer.htm" target="_top" xlink:title="StatusBarIconContainer">
<polygon fill="white" stroke="black" points="0.5,-40.5 0.5,-61.5 129.5,-61.5 129.5,-40.5 0.5,-40.5"/>
<text text-anchor="middle" x="65" y="-48.5" font-family="Helvetica,sans-Serif" font-size="10.00">StatusBarIconContainer</text>
</a>
</g>
<!-- Node10&#45;&gt;Node2 -->
<g id="edge18" class="edge"><title>Node10&#45;&gt;Node2</title>
<path fill="none" stroke="#9a32cd" stroke-dasharray="5,2" d="M139.765,-54.4115C167.972,-58.5647 199.205,-66.8481 224,-83 252.605,-101.634 271.677,-139.084 279.7,-157.41"/>
<polygon fill="#9a32cd" stroke="#9a32cd" points="139.899,-50.899 129.527,-53.0613 138.984,-57.8389 139.899,-50.899"/>
<text text-anchor="middle" x="186" y="-87" font-family="Helvetica,sans-Serif" font-size="10.00"> m_parent</text>
</g>
<!-- Node11 -->
<g id="node20" class="node"><title>Node11</title>
<polygon fill="white" stroke="#bfbfbf" points="41.5,-0.5 41.5,-21.5 88.5,-21.5 88.5,-0.5 41.5,-0.5"/>
<text text-anchor="middle" x="65" y="-8.5" font-family="Helvetica,sans-Serif" font-size="10.00">QRect</text>
</g>
<!-- Node11&#45;&gt;Node2 -->
<g id="edge20" class="edge"><title>Node11&#45;&gt;Node2</title>
<path fill="none" stroke="#9a32cd" stroke-dasharray="5,2" d="M98.8614,-8.37055C133.735,-7.46736 187.938,-11.307 224,-39 263.572,-69.3883 278.051,-132.138 282.399,-157.258"/>
<polygon fill="#9a32cd" stroke="#9a32cd" points="98.5508,-4.88016 88.7007,-8.78196 98.8341,-11.8744 98.5508,-4.88016"/>
<text text-anchor="middle" x="186" y="-43" font-family="Helvetica,sans-Serif" font-size="10.00"> m_bounds</text>
</g>
</g>
</svg>
