<?xml version="1.0" encoding="UTF-8" standalone="no"?>
<!DOCTYPE svg PUBLIC "-//W3C//DTD SVG 1.1//EN"
 "http://www.w3.org/Graphics/SVG/1.1/DTD/svg11.dtd">
<!-- Generated by graphviz version 2.26.3 (20100126.1600)
 -->
<!-- Title: G Pages: 1 -->
<svg width="778pt" height="288pt"
 viewBox="0.00 0.00 778.00 288.00" xmlns="http://www.w3.org/2000/svg" xmlns:xlink="http://www.w3.org/1999/xlink">
<g id="graph1" class="graph" transform="scale(1 1) rotate(0) translate(4 284)">
<title>G</title>
<polygon fill="white" stroke="white" points="-4,5 -4,-284 775,-284 775,5 -4,5"/>
<!-- Node1 -->
<g id="node1" class="node"><title>Node1</title>
<polygon fill="#bfbfbf" stroke="black" points="343.5,-72.5 343.5,-93.5 552.5,-93.5 552.5,-72.5 343.5,-72.5"/>
<text text-anchor="middle" x="448" y="-80.5" font-family="Helvetica,sans-Serif" font-size="10.00">HostWindowDataOpenGLTextureShared</text>
</g>
<!-- Node8 -->
<g id="node15" class="node"><title>Node8</title>
<a xlink:href="classTextureSharedCompositingWindow.htm" target="_top" xlink:title="TextureSharedCompositingWindow">
<polygon fill="white" stroke="black" points="456.5,-0.5 456.5,-21.5 639.5,-21.5 639.5,-0.5 456.5,-0.5"/>
<text text-anchor="middle" x="548" y="-8.5" font-family="Helvetica,sans-Serif" font-size="10.00">TextureSharedCompositingWindow</text>
</a>
</g>
<!-- Node1&#45;&gt;Node8 -->
<g id="edge20" class="edge"><title>Node1&#45;&gt;Node8</title>
<path fill="none" stroke="#9a32cd" stroke-dasharray="5,2" d="M472.571,-66.7549C478.638,-62.6545 485.091,-58.2172 491,-54 505.933,-43.343 522.651,-30.6363 534.099,-21.8118"/>
<polygon fill="#9a32cd" stroke="#9a32cd" points="470.423,-63.9811 464.066,-72.4568 474.321,-69.7955 470.423,-63.9811"/>
<text text-anchor="middle" x="535.5" y="-44.5" font-family="Helvetica,sans-Serif" font-size="10.00"> m_parent</text>
</g>
<!-- Node2 -->
<g id="node2" class="node"><title>Node2</title>
<a xlink:href="classHostWindowDataSoftware.htm" target="_top" xlink:title="HostWindowDataSoftware">
<polygon fill="white" stroke="black" points="169,-158.5 169,-179.5 309,-179.5 309,-158.5 169,-158.5"/>
<text text-anchor="middle" x="239" y="-166.5" font-family="Helvetica,sans-Serif" font-size="10.00">HostWindowDataSoftware</text>
</a>
</g>
<!-- Node2&#45;&gt;Node1 -->
<g id="edge2" class="edge"><title>Node2&#45;&gt;Node1</title>
<path fill="none" stroke="midnightblue" d="M273.877,-154.649C315.702,-137.438 384.83,-108.994 422.163,-93.6315"/>
<polygon fill="midnightblue" stroke="midnightblue" points="272.543,-151.413 264.628,-158.455 275.207,-157.886 272.543,-151.413"/>
</g>
<!-- Node3 -->
<g id="node4" class="node"><title>Node3</title>
<a xlink:href="classHostWindowData.htm" target="_top" xlink:title="HostWindowData">
<polygon fill="white" stroke="black" points="76,-258.5 76,-279.5 174,-279.5 174,-258.5 76,-258.5"/>
<text text-anchor="middle" x="125" y="-266.5" font-family="Helvetica,sans-Serif" font-size="10.00">HostWindowData</text>
</a>
</g>
<!-- Node3&#45;&gt;Node2 -->
<g id="edge4" class="edge"><title>Node3&#45;&gt;Node2</title>
<path fill="none" stroke="midnightblue" d="M145.808,-251.777C150.229,-247.973 154.822,-243.909 159,-240 177.131,-223.037 179.378,-216.423 198,-200 206.165,-192.799 215.86,-185.421 223.771,-179.67"/>
<polygon fill="midnightblue" stroke="midnightblue" points="143.527,-249.122 138.16,-258.257 148.052,-254.463 143.527,-249.122"/>
</g>
<!-- Node4 -->
<g id="node6" class="node"><title>Node4</title>
<polygon fill="white" stroke="#bfbfbf" points="-0.5,-258.5 -0.5,-279.5 58.5,-279.5 58.5,-258.5 -0.5,-258.5"/>
<text text-anchor="middle" x="29" y="-266.5" font-family="Helvetica,sans-Serif" font-size="10.00">QPixmap</text>
</g>
<!-- Node4&#45;&gt;Node2 -->
<g id="edge6" class="edge"><title>Node4&#45;&gt;Node2</title>
<path fill="none" stroke="#9a32cd" stroke-dasharray="5,2" d="M36.6117,-248.907C44.0578,-229.719 54.8633,-203.248 59,-200 75.9601,-186.684 125.701,-178.767 168.606,-174.271"/>
<polygon fill="#9a32cd" stroke="#9a32cd" points="33.2955,-247.78 32.9808,-258.37 39.8309,-250.288 33.2955,-247.78"/>
<text text-anchor="middle" x="107" y="-217.5" font-family="Helvetica,sans-Serif" font-size="10.00"> m_transitionPixmap</text>
</g>
<!-- Node4&#45;&gt;Node8 -->
<g id="edge22" class="edge"><title>Node4&#45;&gt;Node8</title>
<path fill="none" stroke="#9a32cd" stroke-dasharray="5,2" d="M28.374,-248.124C28.992,-233.217 32.1125,-213.493 43,-200 164.014,-50.0228 260.732,-93.0421 446,-40 467.416,-33.8686 491.374,-27.0546 510.687,-21.573"/>
<polygon fill="#9a32cd" stroke="#9a32cd" points="24.8722,-248.378 28.3019,-258.402 31.872,-248.427 24.8722,-248.378"/>
<text text-anchor="middle" x="170" y="-122.5" font-family="Helvetica,sans-Serif" font-size="10.00"> m_pixmap</text>
</g>
<!-- Node5 -->
<g id="node8" class="node"><title>Node5</title>
<a xlink:href="classint.htm" target="_top" xlink:title="int">
<polygon fill="white" stroke="black" points="191.5,-258.5 191.5,-279.5 220.5,-279.5 220.5,-258.5 191.5,-258.5"/>
<text text-anchor="middle" x="206" y="-266.5" font-family="Helvetica,sans-Serif" font-size="10.00">int</text>
</a>
</g>
<!-- Node5&#45;&gt;Node2 -->
<g id="edge8" class="edge"><title>Node5&#45;&gt;Node2</title>
<path fill="none" stroke="#9a32cd" stroke-dasharray="5,2" d="M202.237,-247.991C200.662,-233.849 200.475,-215.099 207,-200 210.498,-191.906 217.226,-184.873 223.614,-179.561"/>
<polygon fill="#9a32cd" stroke="#9a32cd" points="198.815,-248.784 203.697,-258.187 205.744,-247.792 198.815,-248.784"/>
<text text-anchor="middle" x="229" y="-224" font-family="Helvetica,sans-Serif" font-size="10.00"> m_width</text>
<text text-anchor="middle" x="229" y="-211" font-family="Helvetica,sans-Serif" font-size="10.00">m_height</text>
</g>
<!-- Node6 -->
<g id="node10" class="node"><title>Node6</title>
<polygon fill="white" stroke="#bfbfbf" points="238,-258.5 238,-279.5 312,-279.5 312,-258.5 238,-258.5"/>
<text text-anchor="middle" x="275" y="-266.5" font-family="Helvetica,sans-Serif" font-size="10.00">PIpcBuffer *</text>
</g>
<!-- Node6&#45;&gt;Node2 -->
<g id="edge10" class="edge"><title>Node6&#45;&gt;Node2</title>
<path fill="none" stroke="#9a32cd" stroke-dasharray="5,2" d="M268.154,-248.724C263.449,-234.941 256.994,-216.318 251,-200 248.493,-193.174 245.547,-185.558 243.201,-179.583"/>
<polygon fill="#9a32cd" stroke="#9a32cd" points="264.843,-249.86 271.373,-258.202 271.471,-247.608 264.843,-249.86"/>
<text text-anchor="middle" x="309.5" y="-230.5" font-family="Helvetica,sans-Serif" font-size="10.00"> m_transitionBuffer</text>
<text text-anchor="middle" x="309.5" y="-217.5" font-family="Helvetica,sans-Serif" font-size="10.00">m_metaDataBuffer</text>
<text text-anchor="middle" x="309.5" y="-204.5" font-family="Helvetica,sans-Serif" font-size="10.00">m_ipcBuffer</text>
</g>
<!-- Node7 -->
<g id="node12" class="node"><title>Node7</title>
<polygon fill="white" stroke="#bfbfbf" points="444,-258.5 444,-279.5 480,-279.5 480,-258.5 444,-258.5"/>
<text text-anchor="middle" x="462" y="-266.5" font-family="Helvetica,sans-Serif" font-size="10.00">bool</text>
</g>
<!-- Node7&#45;&gt;Node1 -->
<g id="edge14" class="edge"><title>Node7&#45;&gt;Node1</title>
<path fill="none" stroke="#9a32cd" stroke-dasharray="5,2" d="M460.452,-248.427C457.484,-208.998 451.088,-124.027 448.819,-93.8809"/>
<polygon fill="#9a32cd" stroke="#9a32cd" points="456.966,-248.758 461.207,-258.467 463.947,-248.232 456.966,-248.758"/>
<text text-anchor="middle" x="501" y="-173" font-family="Helvetica,sans-Serif" font-size="10.00"> m_dirty</text>
<text text-anchor="middle" x="501" y="-160" font-family="Helvetica,sans-Serif" font-size="10.00">m_updatedAllowed</text>
</g>
<!-- Node7&#45;&gt;Node2 -->
<g id="edge12" class="edge"><title>Node7&#45;&gt;Node2</title>
<path fill="none" stroke="#9a32cd" stroke-dasharray="5,2" d="M433.942,-262.619C418.644,-258.131 400.025,-250.937 386,-240 368.887,-226.656 375.818,-212.386 358,-200 347.351,-192.597 320.005,-185.238 294.209,-179.549"/>
<polygon fill="#9a32cd" stroke="#9a32cd" points="433.339,-266.081 443.906,-265.305 435.162,-259.322 433.339,-266.081"/>
<text text-anchor="middle" x="417" y="-224" font-family="Helvetica,sans-Serif" font-size="10.00"> m_hasAlpha</text>
<text text-anchor="middle" x="417" y="-211" font-family="Helvetica,sans-Serif" font-size="10.00">m_dirty</text>
</g>
<!-- Node7&#45;&gt;Node8 -->
<g id="edge24" class="edge"><title>Node7&#45;&gt;Node8</title>
<path fill="none" stroke="#9a32cd" stroke-dasharray="5,2" d="M486.523,-252.172C507.158,-236.555 535.545,-211.342 550,-182 575.29,-130.663 561.858,-111.188 564,-54 564.233,-47.7821 565.552,-46.0256 564,-40 562.336,-33.5406 558.895,-26.9807 555.629,-21.7376"/>
<polygon fill="#9a32cd" stroke="#9a32cd" points="484.213,-249.526 478.218,-258.261 488.352,-255.171 484.213,-249.526"/>
<text text-anchor="middle" x="594" y="-129" font-family="Helvetica,sans-Serif" font-size="10.00"> m_locked</text>
<text text-anchor="middle" x="594" y="-116" font-family="Helvetica,sans-Serif" font-size="10.00">m_mustWait</text>
</g>
<!-- Node8&#45;&gt;Node1 -->
<g id="edge16" class="edge"><title>Node8&#45;&gt;Node1</title>
<path fill="none" stroke="#9a32cd" stroke-dasharray="5,2" d="M490.439,-24.3828C475.501,-28.9198 462.15,-34.2954 457,-40 449.027,-48.832 447.429,-62.8675 447.397,-72.4851"/>
<polygon fill="#9a32cd" stroke="#9a32cd" points="491.764,-27.6442 500.415,-21.5275 489.838,-20.9145 491.764,-27.6442"/>
<text text-anchor="middle" x="474" y="-44.5" font-family="Helvetica,sans-Serif" font-size="10.00"> m_win</text>
</g>
<!-- Node9 -->
<g id="node17" class="node"><title>Node9</title>
<a xlink:href="classNRemoteWindow.htm" target="_top" xlink:title="NRemoteWindow">
<polygon fill="white" stroke="black" points="608,-72.5 608,-93.5 706,-93.5 706,-72.5 608,-72.5"/>
<text text-anchor="middle" x="657" y="-80.5" font-family="Helvetica,sans-Serif" font-size="10.00">NRemoteWindow</text>
</a>
</g>
<!-- Node9&#45;&gt;Node8 -->
<g id="edge18" class="edge"><title>Node9&#45;&gt;Node8</title>
<path fill="none" stroke="midnightblue" d="M633.424,-66.6096C621.65,-58.5004 607.146,-48.626 594,-40 584.528,-33.7849 573.829,-27.0243 565.134,-21.5954"/>
<polygon fill="midnightblue" stroke="midnightblue" points="631.612,-69.6114 641.828,-72.4167 635.591,-63.8525 631.612,-69.6114"/>
</g>
<!-- Node10 -->
<g id="node22" class="node"><title>Node10</title>
<polygon fill="white" stroke="#bfbfbf" points="723.5,-72.5 723.5,-93.5 770.5,-93.5 770.5,-72.5 723.5,-72.5"/>
<text text-anchor="middle" x="747" y="-80.5" font-family="Helvetica,sans-Serif" font-size="10.00">GLuint</text>
</g>
<!-- Node10&#45;&gt;Node8 -->
<g id="edge26" class="edge"><title>Node10&#45;&gt;Node8</title>
<path fill="none" stroke="#9a32cd" stroke-dasharray="5,2" d="M713.753,-70.9708C675.533,-57.1425 613.408,-34.6653 577.051,-21.511"/>
<polygon fill="#9a32cd" stroke="#9a32cd" points="712.796,-74.3468 723.391,-74.4579 715.178,-67.7644 712.796,-74.3468"/>
<text text-anchor="middle" x="694.5" y="-44.5" font-family="Helvetica,sans-Serif" font-size="10.00"> m_textureId</text>
</g>
</g>
</svg>
