<?xml version="1.0" encoding="UTF-8" standalone="no"?>
<!DOCTYPE svg PUBLIC "-//W3C//DTD SVG 1.1//EN"
 "http://www.w3.org/Graphics/SVG/1.1/DTD/svg11.dtd">
<!-- Generated by graphviz version 2.26.3 (20100126.1600)
 -->
<!-- Title: G Pages: 1 -->
<svg width="345pt" height="234pt"
 viewBox="0.00 0.00 345.00 234.00" xmlns="http://www.w3.org/2000/svg" xmlns:xlink="http://www.w3.org/1999/xlink">
<g id="graph1" class="graph" transform="scale(1 1) rotate(0) translate(4 230)">
<title>G</title>
<polygon fill="white" stroke="white" points="-4,5 -4,-230 342,-230 342,5 -4,5"/>
<!-- Node1 -->
<g id="node1" class="node"><title>Node1</title>
<polygon fill="#bfbfbf" stroke="black" points="69.5,-0.5 69.5,-21.5 164.5,-21.5 164.5,-0.5 69.5,-0.5"/>
<text text-anchor="middle" x="117" y="-8.5" font-family="Helvetica,sans-Serif" font-size="10.00">MemoryWatcher</text>
</g>
<!-- Node2 -->
<g id="node2" class="node"><title>Node2</title>
<a xlink:href="classSignal.htm" target="_top" xlink:title="Signal\&lt; MemState \&gt;">
<polygon fill="white" stroke="black" points="61,-72.5 61,-93.5 173,-93.5 173,-72.5 61,-72.5"/>
<text text-anchor="middle" x="117" y="-80.5" font-family="Helvetica,sans-Serif" font-size="10.00">Signal&lt; MemState &gt;</text>
</a>
</g>
<!-- Node2&#45;&gt;Node1 -->
<g id="edge2" class="edge"><title>Node2&#45;&gt;Node1</title>
<path fill="none" stroke="#9a32cd" stroke-dasharray="5,2" d="M117,-62.2348C117,-48.969 117,-32.3188 117,-21.6674"/>
<polygon fill="#9a32cd" stroke="#9a32cd" points="113.5,-62.3761 117,-72.3762 120.5,-62.3762 113.5,-62.3761"/>
<text text-anchor="middle" x="186" y="-44.5" font-family="Helvetica,sans-Serif" font-size="10.00"> signalMemoryStateChanged</text>
</g>
<!-- Node3 -->
<g id="node4" class="node"><title>Node3</title>
<a xlink:href="classSignalBase.htm" target="_top" xlink:title="SignalBase\&lt; MemState, void, void, void, void \&gt;">
<polygon fill="white" stroke="black" points="-0.5,-132.5 -0.5,-153.5 234.5,-153.5 234.5,-132.5 -0.5,-132.5"/>
<text text-anchor="middle" x="117" y="-140.5" font-family="Helvetica,sans-Serif" font-size="10.00">SignalBase&lt; MemState, void, void, void, void &gt;</text>
</a>
</g>
<!-- Node3&#45;&gt;Node2 -->
<g id="edge4" class="edge"><title>Node3&#45;&gt;Node2</title>
<path fill="none" stroke="midnightblue" d="M117,-122.231C117,-112.592 117,-101.544 117,-93.6339"/>
<polygon fill="midnightblue" stroke="midnightblue" points="113.5,-122.273 117,-132.273 120.5,-122.273 113.5,-122.273"/>
</g>
<!-- Node4 -->
<g id="node6" class="node"><title>Node4</title>
<a xlink:href="classSender.htm" target="_top" xlink:title="Sender">
<polygon fill="white" stroke="black" points="4.5,-204.5 4.5,-225.5 55.5,-225.5 55.5,-204.5 4.5,-204.5"/>
<text text-anchor="middle" x="30" y="-212.5" font-family="Helvetica,sans-Serif" font-size="10.00">Sender</text>
</a>
</g>
<!-- Node4&#45;&gt;Node3 -->
<g id="edge6" class="edge"><title>Node4&#45;&gt;Node3</title>
<path fill="none" stroke="midnightblue" d="M50.8709,-197.728C67.4407,-184.015 90.0814,-165.277 104.11,-153.667"/>
<polygon fill="midnightblue" stroke="midnightblue" points="48.3096,-195.304 42.8371,-204.376 52.7726,-200.697 48.3096,-195.304"/>
</g>
<!-- Node5 -->
<g id="node8" class="node"><title>Node5</title>
<polygon fill="white" stroke="#bfbfbf" points="73,-204.5 73,-225.5 337,-225.5 337,-204.5 73,-204.5"/>
<text text-anchor="middle" x="205" y="-212.5" font-family="Helvetica,sans-Serif" font-size="10.00">set&lt; SlotBase&lt; MemState, void, void, void, void &gt; * &gt;</text>
</g>
<!-- Node5&#45;&gt;Node3 -->
<g id="edge8" class="edge"><title>Node5&#45;&gt;Node3</title>
<path fill="none" stroke="#9a32cd" stroke-dasharray="5,2" d="M183.889,-197.728C167.129,-184.015 144.228,-165.277 130.038,-153.667"/>
<polygon fill="#9a32cd" stroke="#9a32cd" points="182.059,-200.753 192.015,-204.376 186.492,-195.335 182.059,-200.753"/>
<text text-anchor="middle" x="189" y="-176.5" font-family="Helvetica,sans-Serif" font-size="10.00"> m_slots</text>
</g>
</g>
</svg>
