<?xml version="1.0" encoding="UTF-8" standalone="no"?>
<!DOCTYPE svg PUBLIC "-//W3C//DTD SVG 1.1//EN"
 "http://www.w3.org/Graphics/SVG/1.1/DTD/svg11.dtd">
<!-- Generated by graphviz version 2.26.3 (20100126.1600)
 -->
<!-- Title: G Pages: 1 -->
<svg width="710pt" height="427pt"
 viewBox="0.00 0.00 710.00 427.49" xmlns="http://www.w3.org/2000/svg" xmlns:xlink="http://www.w3.org/1999/xlink">
<g id="graph1" class="graph" transform="scale(1 1) rotate(0) translate(4 423.488)">
<title>G</title>
<polygon fill="white" stroke="white" points="-4,5 -4,-423.488 707,-423.488 707,5 -4,5"/>
<!-- Node1 -->
<g id="node1" class="node"><title>Node1</title>
<polygon fill="#bfbfbf" stroke="black" points="618.5,-152.988 618.5,-173.988 701.5,-173.988 701.5,-152.988 618.5,-152.988"/>
<text text-anchor="middle" x="660" y="-160.988" font-family="Helvetica,sans-Serif" font-size="10.00">Quicklauncher</text>
</g>
<!-- Node2 -->
<g id="node2" class="node"><title>Node2</title>
<a xlink:href="classWindow.htm" target="_top" xlink:title="Window">
<polygon fill="white" stroke="black" points="318,-232.988 318,-253.988 372,-253.988 372,-232.988 318,-232.988"/>
<text text-anchor="middle" x="345" y="-240.988" font-family="Helvetica,sans-Serif" font-size="10.00">Window</text>
</a>
</g>
<!-- Node2&#45;&gt;Node1 -->
<g id="edge2" class="edge"><title>Node2&#45;&gt;Node1</title>
<path fill="none" stroke="midnightblue" d="M382.669,-245.882C434.023,-247.691 527.861,-245.744 600,-214.488 621.075,-205.357 640.329,-186.246 651.075,-174.187"/>
<polygon fill="midnightblue" stroke="midnightblue" points="382.518,-242.372 372.379,-245.448 382.223,-249.366 382.518,-242.372"/>
</g>
<!-- Node3 -->
<g id="node4" class="node"><title>Node3</title>
<a xlink:href="classQGraphicsObject.htm" target="_top" xlink:title="QGraphicsObject">
<polygon fill="white" stroke="black" points="12,-397.988 12,-418.988 110,-418.988 110,-397.988 12,-397.988"/>
<text text-anchor="middle" x="61" y="-405.988" font-family="Helvetica,sans-Serif" font-size="10.00">QGraphicsObject</text>
</a>
</g>
<!-- Node3&#45;&gt;Node2 -->
<g id="edge4" class="edge"><title>Node3&#45;&gt;Node2</title>
<path fill="none" stroke="midnightblue" d="M120.463,-408.636C156.121,-406.309 201.156,-398.935 236,-378.488 289,-347.387 326.747,-280.127 339.895,-254.085"/>
<polygon fill="midnightblue" stroke="midnightblue" points="119.995,-405.156 110.196,-409.186 120.369,-412.146 119.995,-405.156"/>
</g>
<!-- Node4 -->
<g id="node6" class="node"><title>Node4</title>
<a xlink:href="classApplicationDescription.htm" target="_top" xlink:title="ApplicationDescription">
<polygon fill="white" stroke="black" points="0,-357.988 0,-378.988 122,-378.988 122,-357.988 0,-357.988"/>
<text text-anchor="middle" x="61" y="-365.988" font-family="Helvetica,sans-Serif" font-size="10.00">ApplicationDescription</text>
</a>
</g>
<!-- Node4&#45;&gt;Node2 -->
<g id="edge6" class="edge"><title>Node4&#45;&gt;Node2</title>
<path fill="none" stroke="#9a32cd" stroke-dasharray="5,2" d="M132.121,-363.992C164.98,-359.814 203.767,-351.805 236,-336.488 279.138,-315.989 318.882,-273.926 336.057,-254.175"/>
<polygon fill="#9a32cd" stroke="#9a32cd" points="131.65,-360.523 122.128,-365.169 132.469,-367.475 131.65,-360.523"/>
<text text-anchor="middle" x="188" y="-365.488" font-family="Helvetica,sans-Serif" font-size="10.00"> m_appDesc</text>
</g>
<!-- Node5 -->
<g id="node8" class="node"><title>Node5</title>
<polygon fill="white" stroke="#bfbfbf" points="34.5,-317.988 34.5,-338.988 87.5,-338.988 87.5,-317.988 34.5,-317.988"/>
<text text-anchor="middle" x="61" y="-325.988" font-family="Helvetica,sans-Serif" font-size="10.00">QRectF</text>
</g>
<!-- Node5&#45;&gt;Node2 -->
<g id="edge8" class="edge"><title>Node5&#45;&gt;Node2</title>
<path fill="none" stroke="#9a32cd" stroke-dasharray="5,2" d="M97.7411,-325.733C133.71,-322.267 189.696,-314.802 236,-299.488 270.54,-288.064 307.571,-266.916 328.353,-254.131"/>
<polygon fill="#9a32cd" stroke="#9a32cd" points="97.3449,-322.255 87.7032,-326.647 97.9793,-329.226 97.3449,-322.255"/>
<text text-anchor="middle" x="188" y="-323.488" font-family="Helvetica,sans-Serif" font-size="10.00"> m_visibleBounds</text>
</g>
<!-- Node6 -->
<g id="node10" class="node"><title>Node6</title>
<polygon fill="white" stroke="#bfbfbf" points="31.5,-277.988 31.5,-298.988 90.5,-298.988 90.5,-277.988 31.5,-277.988"/>
<text text-anchor="middle" x="61" y="-285.988" font-family="Helvetica,sans-Serif" font-size="10.00">QPixmap</text>
</g>
<!-- Node6&#45;&gt;Node2 -->
<g id="edge10" class="edge"><title>Node6&#45;&gt;Node2</title>
<path fill="none" stroke="#9a32cd" stroke-dasharray="5,2" d="M100.583,-286.008C136.195,-283.4 189.856,-278.535 236,-270.488 264.232,-265.564 295.982,-257.392 317.9,-251.326"/>
<polygon fill="#9a32cd" stroke="#9a32cd" points="100.317,-282.518 90.589,-286.715 100.811,-289.501 100.317,-282.518"/>
<text text-anchor="middle" x="188" y="-286.488" font-family="Helvetica,sans-Serif" font-size="10.00"> m_screenPixmap</text>
</g>
<!-- Node7 -->
<g id="node12" class="node"><title>Node7</title>
<polygon fill="white" stroke="#bfbfbf" points="34,-232.988 34,-253.988 88,-253.988 88,-232.988 34,-232.988"/>
<text text-anchor="middle" x="61" y="-240.988" font-family="Helvetica,sans-Serif" font-size="10.00">uint32_t</text>
</g>
<!-- Node7&#45;&gt;Node2 -->
<g id="edge12" class="edge"><title>Node7&#45;&gt;Node2</title>
<path fill="none" stroke="#9a32cd" stroke-dasharray="5,2" d="M98.4347,-243.488C156.479,-243.488 266.812,-243.488 317.851,-243.488"/>
<polygon fill="#9a32cd" stroke="#9a32cd" points="98.2311,-239.988 88.2311,-243.488 98.2311,-246.988 98.2311,-239.988"/>
<text text-anchor="middle" x="188" y="-260.488" font-family="Helvetica,sans-Serif" font-size="10.00"> m_bufWidth</text>
<text text-anchor="middle" x="188" y="-247.488" font-family="Helvetica,sans-Serif" font-size="10.00">m_bufHeight</text>
</g>
<!-- Node8 -->
<g id="node14" class="node"><title>Node8</title>
<a xlink:href="classint.htm" target="_top" xlink:title="int">
<polygon fill="white" stroke="black" points="46.5,-185.988 46.5,-206.988 75.5,-206.988 75.5,-185.988 46.5,-185.988"/>
<text text-anchor="middle" x="61" y="-193.988" font-family="Helvetica,sans-Serif" font-size="10.00">int</text>
</a>
</g>
<!-- Node8&#45;&gt;Node2 -->
<g id="edge14" class="edge"><title>Node8&#45;&gt;Node2</title>
<path fill="none" stroke="#9a32cd" stroke-dasharray="5,2" d="M86.0554,-195.754C120.607,-195.447 184.456,-197.432 236,-213.488 244.738,-216.21 245.441,-220.249 254,-223.488 274.727,-231.33 299.331,-236.507 317.727,-239.624"/>
<polygon fill="#9a32cd" stroke="#9a32cd" points="85.8612,-192.257 75.9196,-195.919 85.9754,-199.256 85.8612,-192.257"/>
<text text-anchor="middle" x="188" y="-230.488" font-family="Helvetica,sans-Serif" font-size="10.00"> m_initialWidth</text>
<text text-anchor="middle" x="188" y="-217.488" font-family="Helvetica,sans-Serif" font-size="10.00">m_initialHeight</text>
</g>
<!-- Node9 -->
<g id="node16" class="node"><title>Node9</title>
<polygon fill="white" stroke="#bfbfbf" points="40.5,-145.988 40.5,-166.988 81.5,-166.988 81.5,-145.988 40.5,-145.988"/>
<text text-anchor="middle" x="61" y="-153.988" font-family="Helvetica,sans-Serif" font-size="10.00">Type</text>
</g>
<!-- Node9&#45;&gt;Node2 -->
<g id="edge16" class="edge"><title>Node9&#45;&gt;Node2</title>
<path fill="none" stroke="#9a32cd" stroke-dasharray="5,2" d="M91.4767,-151.921C129.379,-147.994 194.179,-147.259 236,-179.488 252.736,-192.385 237.832,-209.886 254,-223.488 271.701,-238.379 298.021,-242.874 317.808,-243.942"/>
<polygon fill="#9a32cd" stroke="#9a32cd" points="91.0643,-148.445 81.541,-153.088 91.8811,-155.397 91.0643,-148.445"/>
<text text-anchor="middle" x="188" y="-183.488" font-family="Helvetica,sans-Serif" font-size="10.00"> m_type</text>
</g>
<!-- Node10 -->
<g id="node18" class="node"><title>Node10</title>
<polygon fill="white" stroke="#bfbfbf" points="43,-98.9878 43,-119.988 79,-119.988 79,-98.9878 43,-98.9878"/>
<text text-anchor="middle" x="61" y="-106.988" font-family="Helvetica,sans-Serif" font-size="10.00">bool</text>
</g>
<!-- Node10&#45;&gt;Node2 -->
<g id="edge18" class="edge"><title>Node10&#45;&gt;Node2</title>
<path fill="none" stroke="#9a32cd" stroke-dasharray="5,2" d="M89.0125,-101.565C127.278,-92.6147 195.725,-83.5716 236,-119.488 271.01,-150.709 221.584,-189.581 254,-223.488 270.208,-240.441 297.25,-244.606 317.653,-245.03"/>
<polygon fill="#9a32cd" stroke="#9a32cd" points="87.9219,-98.2295 79.0685,-104.049 89.6187,-105.021 87.9219,-98.2295"/>
<text text-anchor="middle" x="188" y="-136.488" font-family="Helvetica,sans-Serif" font-size="10.00"> m_removed</text>
<text text-anchor="middle" x="188" y="-123.488" font-family="Helvetica,sans-Serif" font-size="10.00">m_disableKeepAlive</text>
</g>
<!-- Node11 -->
<g id="node20" class="node"><title>Node11</title>
<polygon fill="white" stroke="#bfbfbf" points="39.5,-10.9878 39.5,-31.9878 82.5,-31.9878 82.5,-10.9878 39.5,-10.9878"/>
<text text-anchor="middle" x="61" y="-18.9878" font-family="Helvetica,sans-Serif" font-size="10.00">string</text>
</g>
<!-- Node11&#45;&gt;Node2 -->
<g id="edge20" class="edge"><title>Node11&#45;&gt;Node2</title>
<path fill="none" stroke="#9a32cd" stroke-dasharray="5,2" d="M92.4017,-10.8625C131.437,0.143611 197.589,11.214 236,-24.4878 268.523,-54.7176 224.644,-190.174 254,-223.488 269.614,-241.206 297.016,-245.22 317.683,-245.398"/>
<polygon fill="#9a32cd" stroke="#9a32cd" points="91.2083,-7.56596 82.6258,-13.7781 93.209,-14.274 91.2083,-7.56596"/>
<text text-anchor="middle" x="188" y="-80.4878" font-family="Helvetica,sans-Serif" font-size="10.00"> m_launchingAppId</text>
<text text-anchor="middle" x="188" y="-67.4878" font-family="Helvetica,sans-Serif" font-size="10.00">m_processId</text>
<text text-anchor="middle" x="188" y="-54.4878" font-family="Helvetica,sans-Serif" font-size="10.00">m_launchingProcId</text>
<text text-anchor="middle" x="188" y="-41.4878" font-family="Helvetica,sans-Serif" font-size="10.00">m_appId</text>
<text text-anchor="middle" x="188" y="-28.4878" font-family="Helvetica,sans-Serif" font-size="10.00">m_name</text>
</g>
<!-- Node12 -->
<g id="node22" class="node"><title>Node12</title>
<polygon fill="white" stroke="#bfbfbf" points="324.5,-192.988 324.5,-213.988 365.5,-213.988 365.5,-192.988 324.5,-192.988"/>
<text text-anchor="middle" x="345" y="-200.988" font-family="Helvetica,sans-Serif" font-size="10.00">qreal</text>
</g>
<!-- Node12&#45;&gt;Node1 -->
<g id="edge22" class="edge"><title>Node12&#45;&gt;Node1</title>
<path fill="none" stroke="#9a32cd" stroke-dasharray="5,2" d="M375.751,-202.56C423.922,-200.693 519.949,-195.305 600,-180.488 608.836,-178.852 618.25,-176.49 626.937,-174.045"/>
<polygon fill="#9a32cd" stroke="#9a32cd" points="375.536,-199.065 365.67,-202.926 375.79,-206.061 375.536,-199.065"/>
<text text-anchor="middle" x="527" y="-201.488" font-family="Helvetica,sans-Serif" font-size="10.00"> m_bgOpacity</text>
</g>
<!-- Node13 -->
<g id="node24" class="node"><title>Node13</title>
<polygon fill="white" stroke="#bfbfbf" points="322.5,-152.988 322.5,-173.988 367.5,-173.988 367.5,-152.988 322.5,-152.988"/>
<text text-anchor="middle" x="345" y="-160.988" font-family="Helvetica,sans-Serif" font-size="10.00">QSize</text>
</g>
<!-- Node13&#45;&gt;Node1 -->
<g id="edge24" class="edge"><title>Node13&#45;&gt;Node1</title>
<path fill="none" stroke="#9a32cd" stroke-dasharray="5,2" d="M377.669,-163.488C435.315,-163.488 554.98,-163.488 618.422,-163.488"/>
<polygon fill="#9a32cd" stroke="#9a32cd" points="377.654,-159.988 367.654,-163.488 377.654,-166.988 377.654,-159.988"/>
<text text-anchor="middle" x="527" y="-167.488" font-family="Helvetica,sans-Serif" font-size="10.00"> m_lastResize</text>
</g>
<!-- Node14 -->
<g id="node26" class="node"><title>Node14</title>
<polygon fill="white" stroke="#bfbfbf" points="254,-112.988 254,-133.988 436,-133.988 436,-112.988 254,-112.988"/>
<text text-anchor="middle" x="345" y="-120.988" font-family="Helvetica,sans-Serif" font-size="10.00">static QPointer&lt; QuickLaunchBar &gt;</text>
</g>
<!-- Node14&#45;&gt;Node1 -->
<g id="edge26" class="edge"><title>Node14&#45;&gt;Node1</title>
<path fill="none" stroke="#9a32cd" stroke-dasharray="5,2" d="M446.328,-128.282C493.345,-131.615 549.812,-137.198 600,-146.488 608.836,-148.123 618.25,-150.485 626.937,-152.931"/>
<polygon fill="#9a32cd" stroke="#9a32cd" points="446.353,-124.775 436.137,-127.584 445.874,-131.759 446.353,-124.775"/>
<text text-anchor="middle" x="527" y="-150.488" font-family="Helvetica,sans-Serif" font-size="10.00"> s_qp_primaryQuickLaunchBar</text>
</g>
<!-- Node15 -->
<g id="node28" class="node"><title>Node15</title>
<polygon fill="white" stroke="#bfbfbf" points="259.5,-72.9878 259.5,-93.9878 430.5,-93.9878 430.5,-72.9878 259.5,-72.9878"/>
<text text-anchor="middle" x="345" y="-80.9878" font-family="Helvetica,sans-Serif" font-size="10.00">static QPointer&lt; Quicklauncher &gt;</text>
</g>
<!-- Node15&#45;&gt;Node1 -->
<g id="edge28" class="edge"><title>Node15&#45;&gt;Node1</title>
<path fill="none" stroke="#9a32cd" stroke-dasharray="5,2" d="M440.706,-80.6046C490.101,-82.3824 550.265,-89.7691 600,-111.488 621.222,-120.755 640.43,-140.254 651.128,-152.564"/>
<polygon fill="#9a32cd" stroke="#9a32cd" points="440.754,-77.1046 430.657,-80.3142 440.551,-84.1017 440.754,-77.1046"/>
<text text-anchor="middle" x="527" y="-115.488" font-family="Helvetica,sans-Serif" font-size="10.00"> s_qp_primaryInstance</text>
</g>
</g>
</svg>
