<?xml version="1.0" encoding="UTF-8" standalone="no"?>
<!DOCTYPE svg PUBLIC "-//W3C//DTD SVG 1.1//EN"
 "http://www.w3.org/Graphics/SVG/1.1/DTD/svg11.dtd">
<!-- Generated by graphviz version 2.26.3 (20100126.1600)
 -->
<!-- Title: G Pages: 1 -->
<svg width="1336pt" height="1774pt"
 viewBox="0.00 0.00 1336.00 1774.08" xmlns="http://www.w3.org/2000/svg" xmlns:xlink="http://www.w3.org/1999/xlink">
<g id="graph1" class="graph" transform="scale(1 1) rotate(0) translate(4 1770.08)">
<title>G</title>
<polygon fill="white" stroke="white" points="-4,5 -4,-1770.08 1333,-1770.08 1333,5 -4,5"/>
<!-- Node1 -->
<g id="node1" class="node"><title>Node1</title>
<polygon fill="#bfbfbf" stroke="black" points="1234,-352.584 1234,-373.584 1328,-373.584 1328,-352.584 1234,-352.584"/>
<text text-anchor="middle" x="1281" y="-360.584" font-family="Helvetica,sans-Serif" font-size="10.00">QuickLaunchBar</text>
</g>
<!-- Node2 -->
<g id="node2" class="node"><title>Node2</title>
<a xlink:href="classThingPaintable.htm" target="_top" xlink:title="ThingPaintable">
<polygon fill="white" stroke="black" points="479.5,-1269.58 479.5,-1290.58 566.5,-1290.58 566.5,-1269.58 479.5,-1269.58"/>
<text text-anchor="middle" x="523" y="-1277.58" font-family="Helvetica,sans-Serif" font-size="10.00">ThingPaintable</text>
</a>
</g>
<!-- Node2&#45;&gt;Node1 -->
<g id="edge2" class="edge"><title>Node2&#45;&gt;Node1</title>
<path fill="none" stroke="midnightblue" d="M576.702,-1275.38C659.781,-1267.87 812.404,-1253.13 836,-1244.08 944.932,-1202.33 970.568,-1177.53 1050,-1092.08 1146.94,-987.802 1168.07,-952.159 1216,-818.084 1246.82,-731.862 1274.62,-434.557 1280.05,-373.93"/>
<polygon fill="midnightblue" stroke="midnightblue" points="576.33,-1271.9 566.683,-1276.28 576.956,-1278.87 576.33,-1271.9"/>
</g>
<!-- Node18 -->
<g id="node34" class="node"><title>Node18</title>
<a xlink:href="classIconBase.htm" target="_top" xlink:title="IconBase">
<polygon fill="white" stroke="black" points="921.5,-1061.58 921.5,-1082.58 982.5,-1082.58 982.5,-1061.58 921.5,-1061.58"/>
<text text-anchor="middle" x="952" y="-1069.58" font-family="Helvetica,sans-Serif" font-size="10.00">IconBase</text>
</a>
</g>
<!-- Node2&#45;&gt;Node18 -->
<g id="edge36" class="edge"><title>Node2&#45;&gt;Node18</title>
<path fill="none" stroke="midnightblue" d="M576.513,-1268.95C584.56,-1266.49 592.626,-1263.55 600,-1260.08 608.929,-1255.88 608.823,-1250.71 618,-1247.08 708.839,-1211.16 750.997,-1267.22 836,-1219.08 894.276,-1186.09 933.877,-1111.01 947.123,-1082.94"/>
<polygon fill="midnightblue" stroke="midnightblue" points="575.42,-1265.62 566.755,-1271.71 577.331,-1272.35 575.42,-1265.62"/>
</g>
<!-- Node3 -->
<g id="node4" class="node"><title>Node3</title>
<a xlink:href="classThing.htm" target="_top" xlink:title="Thing">
<polygon fill="white" stroke="black" points="237,-1269.58 237,-1290.58 281,-1290.58 281,-1269.58 237,-1269.58"/>
<text text-anchor="middle" x="259" y="-1277.58" font-family="Helvetica,sans-Serif" font-size="10.00">Thing</text>
</a>
</g>
<!-- Node3&#45;&gt;Node2 -->
<g id="edge4" class="edge"><title>Node3&#45;&gt;Node2</title>
<path fill="none" stroke="midnightblue" d="M291.296,-1280.08C338.442,-1280.08 426.242,-1280.08 479.178,-1280.08"/>
<polygon fill="midnightblue" stroke="midnightblue" points="291.054,-1276.58 281.054,-1280.08 291.054,-1283.58 291.054,-1276.58"/>
</g>
<!-- Node4 -->
<g id="node6" class="node"><title>Node4</title>
<a xlink:href="classQGraphicsObject.htm" target="_top" xlink:title="QGraphicsObject">
<polygon fill="white" stroke="black" points="3,-1289.58 3,-1310.58 101,-1310.58 101,-1289.58 3,-1289.58"/>
<text text-anchor="middle" x="52" y="-1297.58" font-family="Helvetica,sans-Serif" font-size="10.00">QGraphicsObject</text>
</a>
</g>
<!-- Node4&#45;&gt;Node3 -->
<g id="edge6" class="edge"><title>Node4&#45;&gt;Node3</title>
<path fill="none" stroke="midnightblue" d="M111.177,-1294.37C153.163,-1290.31 207.148,-1285.09 236.884,-1282.22"/>
<polygon fill="midnightblue" stroke="midnightblue" points="110.673,-1290.9 101.056,-1295.34 111.346,-1297.87 110.673,-1290.9"/>
</g>
<!-- Node5 -->
<g id="node8" class="node"><title>Node5</title>
<polygon fill="white" stroke="#bfbfbf" points="0,-1249.58 0,-1270.58 104,-1270.58 104,-1249.58 0,-1249.58"/>
<text text-anchor="middle" x="52" y="-1257.58" font-family="Helvetica,sans-Serif" font-size="10.00">QPointer&lt; Thing &gt;</text>
</g>
<!-- Node5&#45;&gt;Node3 -->
<g id="edge8" class="edge"><title>Node5&#45;&gt;Node3</title>
<path fill="none" stroke="#9a32cd" stroke-dasharray="5,2" d="M114.129,-1259.32C144.428,-1259.82 181.302,-1261.73 214,-1267.08 221.544,-1268.32 229.615,-1270.4 236.809,-1272.54"/>
<polygon fill="#9a32cd" stroke="#9a32cd" points="114.163,-1255.82 104.122,-1259.2 114.079,-1262.82 114.163,-1255.82"/>
<text text-anchor="middle" x="168" y="-1271.08" font-family="Helvetica,sans-Serif" font-size="10.00"> m_qp_takerOwner</text>
</g>
<!-- Node6 -->
<g id="node10" class="node"><title>Node6</title>
<polygon fill="white" stroke="#bfbfbf" points="232.5,-966.584 232.5,-987.584 285.5,-987.584 285.5,-966.584 232.5,-966.584"/>
<text text-anchor="middle" x="259" y="-974.584" font-family="Helvetica,sans-Serif" font-size="10.00">QString</text>
</g>
<!-- Node6&#45;&gt;Node2 -->
<g id="edge10" class="edge"><title>Node6&#45;&gt;Node2</title>
<path fill="none" stroke="#9a32cd" stroke-dasharray="5,2" d="M277.57,-995.023C312.34,-1029.65 387.406,-1109.52 428,-1191.08 442.121,-1219.46 423.578,-1237.69 446,-1260.08 454.892,-1268.97 467.192,-1274.06 479.353,-1276.94"/>
<polygon fill="#9a32cd" stroke="#9a32cd" points="279.984,-992.488 270.405,-987.961 275.071,-997.473 279.984,-992.488"/>
<text text-anchor="middle" x="366" y="-1195.08" font-family="Helvetica,sans-Serif" font-size="10.00"> m_uiState</text>
</g>
<!-- Node6&#45;&gt;Node18 -->
<g id="edge52" class="edge"><title>Node6&#45;&gt;Node18</title>
<path fill="none" stroke="#9a32cd" stroke-dasharray="5,2" d="M285.2,-961.56C320.377,-941.647 385.47,-908.021 446,-894.084 530.467,-874.636 760.107,-846.214 836,-888.084 906.427,-926.939 939.963,-1028.52 949.242,-1061.54"/>
<polygon fill="#9a32cd" stroke="#9a32cd" points="283.443,-958.533 276.511,-966.546 286.926,-964.604 283.443,-958.533"/>
<text text-anchor="middle" x="523" y="-898.084" font-family="Helvetica,sans-Serif" font-size="10.00"> m_iconLabel</text>
</g>
<!-- Node7 -->
<g id="node12" class="node"><title>Node7</title>
<polygon fill="white" stroke="#bfbfbf" points="232.5,-842.584 232.5,-863.584 285.5,-863.584 285.5,-842.584 232.5,-842.584"/>
<text text-anchor="middle" x="259" y="-850.584" font-family="Helvetica,sans-Serif" font-size="10.00">QRectF</text>
</g>
<!-- Node7&#45;&gt;Node2 -->
<g id="edge12" class="edge"><title>Node7&#45;&gt;Node2</title>
<path fill="none" stroke="#9a32cd" stroke-dasharray="5,2" d="M289.318,-868.438C329.112,-890.433 397.477,-934.982 428,-995.084 454.727,-1047.71 408.327,-1214.65 446,-1260.08 454.287,-1270.08 466.869,-1275.43 479.476,-1278.2"/>
<polygon fill="#9a32cd" stroke="#9a32cd" points="290.795,-865.258 280.333,-863.587 287.469,-871.418 290.795,-865.258"/>
<text text-anchor="middle" x="366" y="-1012.08" font-family="Helvetica,sans-Serif" font-size="10.00"> m_boundingRect</text>
<text text-anchor="middle" x="366" y="-999.084" font-family="Helvetica,sans-Serif" font-size="10.00">m_geom</text>
</g>
<!-- Node7&#45;&gt;Node18 -->
<g id="edge50" class="edge"><title>Node7&#45;&gt;Node18</title>
<path fill="none" stroke="#9a32cd" stroke-dasharray="5,2" d="M295.92,-851.505C415.973,-846.664 790.193,-833.999 836,-862.084 912.52,-909 942.412,-1025.74 949.954,-1061.5"/>
<polygon fill="#9a32cd" stroke="#9a32cd" points="295.609,-848.014 285.761,-851.92 295.895,-855.009 295.609,-848.014"/>
<text text-anchor="middle" x="523" y="-850.084" font-family="Helvetica,sans-Serif" font-size="10.00"> m_alignmentGeomPrecomputed</text>
</g>
<!-- Node8 -->
<g id="node14" class="node"><title>Node8</title>
<a xlink:href="classint.htm" target="_top" xlink:title="int">
<polygon fill="white" stroke="black" points="244.5,-1186.58 244.5,-1207.58 273.5,-1207.58 273.5,-1186.58 244.5,-1186.58"/>
<text text-anchor="middle" x="259" y="-1194.58" font-family="Helvetica,sans-Serif" font-size="10.00">int</text>
</a>
</g>
<!-- Node8&#45;&gt;Node2 -->
<g id="edge14" class="edge"><title>Node8&#45;&gt;Node2</title>
<path fill="none" stroke="#9a32cd" stroke-dasharray="5,2" d="M283.652,-1203.13C317.07,-1211.7 378.282,-1228.74 428,-1250.08 436.41,-1253.69 437.503,-1256.68 446,-1260.08 456.515,-1264.29 468.194,-1267.86 479.213,-1270.76"/>
<polygon fill="#9a32cd" stroke="#9a32cd" points="284.381,-1199.7 273.828,-1200.65 282.668,-1206.49 284.381,-1199.7"/>
<text text-anchor="middle" x="366" y="-1267.08" font-family="Helvetica,sans-Serif" font-size="10.00"> MagicTypePropertyValue</text>
<text text-anchor="middle" x="366" y="-1254.08" font-family="Helvetica,sans-Serif" font-size="10.00">MagicTypePropertyKey</text>
</g>
<!-- Node8&#45;&gt;Node18 -->
<g id="edge64" class="edge"><title>Node8&#45;&gt;Node18</title>
<path fill="none" stroke="#9a32cd" stroke-dasharray="5,2" d="M283.812,-1194.98C390.905,-1185.86 809.328,-1149.82 836,-1141.08 876.526,-1127.8 918.059,-1098.53 938.684,-1082.72"/>
<polygon fill="#9a32cd" stroke="#9a32cd" points="283.311,-1191.51 273.643,-1195.85 283.904,-1198.49 283.311,-1191.51"/>
<text text-anchor="middle" x="523" y="-1210.08" font-family="Helvetica,sans-Serif" font-size="10.00"> m_minProgressValue</text>
<text text-anchor="middle" x="523" y="-1197.08" font-family="Helvetica,sans-Serif" font-size="10.00">m_maxProgressValue</text>
<text text-anchor="middle" x="523" y="-1184.08" font-family="Helvetica,sans-Serif" font-size="10.00">m_lastProgressValue</text>
</g>
<!-- Node9 -->
<g id="node16" class="node"><title>Node9</title>
<polygon fill="white" stroke="#bfbfbf" points="462.5,-1652.58 462.5,-1673.58 583.5,-1673.58 583.5,-1652.58 462.5,-1652.58"/>
<text text-anchor="middle" x="523" y="-1660.58" font-family="Helvetica,sans-Serif" font-size="10.00">QPointer&lt; IconBase &gt;</text>
</g>
<!-- Node9&#45;&gt;Node1 -->
<g id="edge16" class="edge"><title>Node9&#45;&gt;Node1</title>
<path fill="none" stroke="#9a32cd" stroke-dasharray="5,2" d="M555.335,-1677.76C640.719,-1714.23 877.491,-1800.52 1050,-1721.08 1153.08,-1673.62 1173.72,-1632.39 1216,-1527.08 1261.39,-1414.04 1278.89,-484.165 1280.82,-373.78"/>
<polygon fill="#9a32cd" stroke="#9a32cd" points="556.486,-1674.44 545.919,-1673.67 553.7,-1680.86 556.486,-1674.44"/>
<text text-anchor="middle" x="952" y="-1757.08" font-family="Helvetica,sans-Serif" font-size="10.00"> m_qp_iconInMotion</text>
</g>
<!-- Node9&#45;&gt;Node18 -->
<g id="edge38" class="edge"><title>Node9&#45;&gt;Node18</title>
<path fill="none" stroke="#9a32cd" stroke-dasharray="5,2" d="M593.949,-1655.67C665.409,-1644.37 773.741,-1616.14 836,-1546.08 901.002,-1472.94 943.146,-1145.86 950.757,-1082.67"/>
<polygon fill="#9a32cd" stroke="#9a32cd" points="593.051,-1652.26 583.684,-1657.21 594.093,-1659.18 593.051,-1652.26"/>
<text text-anchor="middle" x="727" y="-1655.08" font-family="Helvetica,sans-Serif" font-size="10.00"> m_qp_masterIcon</text>
</g>
<!-- Node10 -->
<g id="node18" class="node"><title>Node10</title>
<polygon fill="white" stroke="#bfbfbf" points="907.5,-352.584 907.5,-373.584 996.5,-373.584 996.5,-352.584 907.5,-352.584"/>
<text text-anchor="middle" x="952" y="-360.584" font-family="Helvetica,sans-Serif" font-size="10.00">QList&lt; qint32 &gt;</text>
</g>
<!-- Node10&#45;&gt;Node1 -->
<g id="edge18" class="edge"><title>Node10&#45;&gt;Node1</title>
<path fill="none" stroke="#9a32cd" stroke-dasharray="5,2" d="M1006.94,-363.084C1070.48,-363.084 1174.02,-363.084 1233.99,-363.084"/>
<polygon fill="#9a32cd" stroke="#9a32cd" points="1006.71,-359.584 996.713,-363.084 1006.71,-366.584 1006.71,-359.584"/>
<text text-anchor="middle" x="1142" y="-367.084" font-family="Helvetica,sans-Serif" font-size="10.00"> m_layoutAnchorsXcoords</text>
</g>
<!-- Node11 -->
<g id="node20" class="node"><title>Node11</title>
<polygon fill="white" stroke="#bfbfbf" points="452.5,-1501.58 452.5,-1522.58 593.5,-1522.58 593.5,-1501.58 452.5,-1501.58"/>
<text text-anchor="middle" x="523" y="-1509.58" font-family="Helvetica,sans-Serif" font-size="10.00">QPointer&lt; PixmapObject &gt;</text>
</g>
<!-- Node11&#45;&gt;Node1 -->
<g id="edge20" class="edge"><title>Node11&#45;&gt;Node1</title>
<path fill="none" stroke="#9a32cd" stroke-dasharray="5,2" d="M532.64,-1531.83C547.056,-1558.97 576.989,-1606.94 618,-1629.08 702.604,-1674.76 965.999,-1699.86 1050,-1653.08 1172.41,-1584.92 1173.39,-1518.56 1216,-1385.08 1248.41,-1283.57 1277.12,-475.825 1280.64,-373.688"/>
<polygon fill="#9a32cd" stroke="#9a32cd" points="535.717,-1530.16 528.039,-1522.86 529.489,-1533.36 535.717,-1530.16"/>
<text text-anchor="middle" x="952" y="-1708.08" font-family="Helvetica,sans-Serif" font-size="10.00"> m_qp_currentBg</text>
<text text-anchor="middle" x="952" y="-1695.08" font-family="Helvetica,sans-Serif" font-size="10.00">m_qp_backgroundSolid</text>
<text text-anchor="middle" x="952" y="-1682.08" font-family="Helvetica,sans-Serif" font-size="10.00">m_qp_backgroundTranslucent</text>
</g>
<!-- Node11&#45;&gt;Node18 -->
<g id="edge42" class="edge"><title>Node11&#45;&gt;Node18</title>
<path fill="none" stroke="#9a32cd" stroke-dasharray="5,2" d="M558.298,-1497.07C573.068,-1489.19 589.261,-1478.21 600,-1464.08 617.11,-1441.58 596.28,-1421.17 618,-1403.08 692.861,-1340.73 758.906,-1439.65 836,-1380.08 936.375,-1302.53 949.896,-1127.86 951.717,-1082.84"/>
<polygon fill="#9a32cd" stroke="#9a32cd" points="556.708,-1493.95 549.347,-1501.57 559.853,-1500.2 556.708,-1493.95"/>
<text text-anchor="middle" x="727" y="-1537.08" font-family="Helvetica,sans-Serif" font-size="10.00"> m_qp_removeDecoratorCurrentStatePixmap</text>
<text text-anchor="middle" x="727" y="-1524.08" font-family="Helvetica,sans-Serif" font-size="10.00">m_qp_deleteDecoratorCurrentStatePixmap</text>
<text text-anchor="middle" x="727" y="-1511.08" font-family="Helvetica,sans-Serif" font-size="10.00">m_qp_deletePressedDecoratorPixmap</text>
<text text-anchor="middle" x="727" y="-1498.08" font-family="Helvetica,sans-Serif" font-size="10.00">m_qp_iconPixmap</text>
<text text-anchor="middle" x="727" y="-1485.08" font-family="Helvetica,sans-Serif" font-size="10.00">m_qp_installStatusDecoratorPixmap</text>
<text text-anchor="middle" x="727" y="-1472.08" font-family="Helvetica,sans-Serif" font-size="10.00">m_qp_iconFeedbackPixmap</text>
<text text-anchor="middle" x="727" y="-1459.08" font-family="Helvetica,sans-Serif" font-size="10.00">m_qp_drDecoratorCurrentlyRenderingPixmap</text>
<text text-anchor="middle" x="727" y="-1446.08" font-family="Helvetica,sans-Serif" font-size="10.00">m_qp_removeDecoratorPixmap</text>
<text text-anchor="middle" x="727" y="-1433.08" font-family="Helvetica,sans-Serif" font-size="10.00">m_qp_prerenderedLabelPixmap</text>
<text text-anchor="middle" x="727" y="-1420.08" font-family="Helvetica,sans-Serif" font-size="10.00">m_qp_iconFramePixmap</text>
<text text-anchor="middle" x="727" y="-1407.08" font-family="Helvetica,sans-Serif" font-size="10.00">...</text>
</g>
<!-- Node12 -->
<g id="node22" class="node"><title>Node12</title>
<polygon fill="white" stroke="#bfbfbf" points="880.5,-312.584 880.5,-333.584 1023.5,-333.584 1023.5,-312.584 880.5,-312.584"/>
<text text-anchor="middle" x="952" y="-320.584" font-family="Helvetica,sans-Serif" font-size="10.00">QPointer&lt; Quicklauncher &gt;</text>
</g>
<!-- Node12&#45;&gt;Node1 -->
<g id="edge22" class="edge"><title>Node12&#45;&gt;Node1</title>
<path fill="none" stroke="#9a32cd" stroke-dasharray="5,2" d="M1033.81,-326.642C1086.19,-329.798 1155.44,-335.604 1216,-346.084 1225.54,-347.735 1235.73,-350.102 1245.14,-352.548"/>
<polygon fill="#9a32cd" stroke="#9a32cd" points="1033.76,-323.133 1023.57,-326.046 1033.35,-330.121 1033.76,-323.133"/>
<text text-anchor="middle" x="1142" y="-350.084" font-family="Helvetica,sans-Serif" font-size="10.00"> m_qp_ownerWindow</text>
</g>
<!-- Node13 -->
<g id="node24" class="node"><title>Node13</title>
<polygon fill="white" stroke="#bfbfbf" points="926,-272.584 926,-293.584 978,-293.584 978,-272.584 926,-272.584"/>
<text text-anchor="middle" x="952" y="-280.584" font-family="Helvetica,sans-Serif" font-size="10.00">QTimer</text>
</g>
<!-- Node13&#45;&gt;Node1 -->
<g id="edge24" class="edge"><title>Node13&#45;&gt;Node1</title>
<path fill="none" stroke="#9a32cd" stroke-dasharray="5,2" d="M988.405,-280.92C1040.78,-279.148 1139.51,-280.88 1216,-312.084 1238.31,-321.187 1259.33,-340.306 1271.15,-352.375"/>
<polygon fill="#9a32cd" stroke="#9a32cd" points="988.113,-277.429 978.262,-281.327 988.394,-284.423 988.113,-277.429"/>
<text text-anchor="middle" x="1142" y="-316.084" font-family="Helvetica,sans-Serif" font-size="10.00"> m_feedbackTimer</text>
</g>
<!-- Node14 -->
<g id="node26" class="node"><title>Node14</title>
<polygon fill="white" stroke="#bfbfbf" points="504,-1433.58 504,-1454.58 542,-1454.58 542,-1433.58 504,-1433.58"/>
<text text-anchor="middle" x="523" y="-1441.58" font-family="Helvetica,sans-Serif" font-size="10.00">char</text>
</g>
<!-- Node14&#45;&gt;Node1 -->
<g id="edge26" class="edge"><title>Node14&#45;&gt;Node1</title>
<path fill="none" stroke="#9a32cd" stroke-dasharray="5,2" d="M551.584,-1454.74C568.381,-1462.51 588.511,-1474.74 600,-1492.08 628.324,-1534.85 579.003,-1572.76 618,-1606.08 654.5,-1637.27 1011.69,-1626.01 1050,-1597.08 1259.6,-1438.82 1279.29,-484.911 1280.87,-373.667"/>
<polygon fill="#9a32cd" stroke="#9a32cd" points="552.739,-1451.43 542.171,-1450.68 549.964,-1457.86 552.739,-1451.43"/>
<text text-anchor="middle" x="952" y="-1640.08" font-family="Helvetica,sans-Serif" font-size="10.00"> TouchFSMPropertyName_isTracking</text>
<text text-anchor="middle" x="952" y="-1627.08" font-family="Helvetica,sans-Serif" font-size="10.00">TouchFSMProperyName_trackedId</text>
</g>
<!-- Node14&#45;&gt;Node18 -->
<g id="edge54" class="edge"><title>Node14&#45;&gt;Node18</title>
<path fill="none" stroke="#9a32cd" stroke-dasharray="5,2" d="M543.046,-1426.42C559.282,-1411.63 582.285,-1389.55 600,-1368.08 609.18,-1356.96 605.659,-1348.55 618,-1341.08 701.365,-1290.66 756.573,-1374.51 836,-1318.08 919.918,-1258.47 945.032,-1122 950.638,-1082.8"/>
<polygon fill="#9a32cd" stroke="#9a32cd" points="540.328,-1424.15 535.236,-1433.45 545.011,-1429.36 540.328,-1424.15"/>
<text text-anchor="middle" x="727" y="-1371.08" font-family="Helvetica,sans-Serif" font-size="10.00"> IconLabelPropertyName</text>
<text text-anchor="middle" x="727" y="-1358.08" font-family="Helvetica,sans-Serif" font-size="10.00">IconTransferContextPropertyName</text>
<text text-anchor="middle" x="727" y="-1345.08" font-family="Helvetica,sans-Serif" font-size="10.00">IconLastPageVisitedIndexPropertyName</text>
</g>
<!-- Node15 -->
<g id="node28" class="node"><title>Node15</title>
<polygon fill="white" stroke="#bfbfbf" points="889.5,-232.584 889.5,-253.584 1014.5,-253.584 1014.5,-232.584 889.5,-232.584"/>
<text text-anchor="middle" x="952" y="-240.584" font-family="Helvetica,sans-Serif" font-size="10.00">QPair&lt; qint32, qint32 &gt;</text>
</g>
<!-- Node15&#45;&gt;Node1 -->
<g id="edge28" class="edge"><title>Node15&#45;&gt;Node1</title>
<path fill="none" stroke="#9a32cd" stroke-dasharray="5,2" d="M1024.95,-233.203C1081.02,-229.26 1158.39,-232.045 1216,-266.084 1249.86,-286.089 1269.73,-331.479 1277.37,-352.292"/>
<polygon fill="#9a32cd" stroke="#9a32cd" points="1024.43,-229.733 1014.73,-234.012 1024.98,-236.712 1024.43,-229.733"/>
<text text-anchor="middle" x="1142" y="-270.084" font-family="Helvetica,sans-Serif" font-size="10.00"> m_itemAreaXrange</text>
</g>
<!-- Node16 -->
<g id="node30" class="node"><title>Node16</title>
<polygon fill="white" stroke="#bfbfbf" points="494,-1337.58 494,-1358.58 552,-1358.58 552,-1337.58 494,-1337.58"/>
<text text-anchor="middle" x="523" y="-1345.58" font-family="Helvetica,sans-Serif" font-size="10.00">QState *</text>
</g>
<!-- Node16&#45;&gt;Node1 -->
<g id="edge30" class="edge"><title>Node16&#45;&gt;Node1</title>
<path fill="none" stroke="#9a32cd" stroke-dasharray="5,2" d="M547.387,-1364.92C565.166,-1378.65 588.139,-1399.7 600,-1424.08 615.456,-1455.86 591.636,-1558.55 618,-1582.08 654.142,-1614.34 793.757,-1605.8 836,-1582.08 853.676,-1572.16 1209.47,-978.273 1216,-959.084 1255.08,-844.295 1276.87,-444.741 1280.47,-373.872"/>
<polygon fill="#9a32cd" stroke="#9a32cd" points="549.26,-1361.95 539.148,-1358.79 545.082,-1367.57 549.26,-1361.95"/>
<text text-anchor="middle" x="952" y="-1584.08" font-family="Helvetica,sans-Serif" font-size="10.00"> m_p_fsmStateNoTouch</text>
<text text-anchor="middle" x="952" y="-1571.08" font-family="Helvetica,sans-Serif" font-size="10.00">m_p_fsmStateTouchMotionTracking</text>
<text text-anchor="middle" x="952" y="-1558.08" font-family="Helvetica,sans-Serif" font-size="10.00">m_p_fsmStateTouchStationaryTracking</text>
</g>
<!-- Node16&#45;&gt;Node18 -->
<g id="edge56" class="edge"><title>Node16&#45;&gt;Node18</title>
<path fill="none" stroke="#9a32cd" stroke-dasharray="5,2" d="M548.28,-1331.9C571.365,-1317.36 603.965,-1297.5 618,-1292.08 710.304,-1256.48 754.042,-1302.5 836,-1247.08 868.31,-1225.24 927.662,-1117.63 946.267,-1082.91"/>
<polygon fill="#9a32cd" stroke="#9a32cd" points="546.232,-1329.06 539.656,-1337.36 549.977,-1334.97 546.232,-1329.06"/>
<text text-anchor="middle" x="727" y="-1309.08" font-family="Helvetica,sans-Serif" font-size="10.00"> m_p_stateActive</text>
<text text-anchor="middle" x="727" y="-1296.08" font-family="Helvetica,sans-Serif" font-size="10.00">m_p_stateNormal</text>
</g>
<!-- Node17 -->
<g id="node32" class="node"><title>Node17</title>
<polygon fill="white" stroke="#bfbfbf" points="474,-516.584 474,-537.584 572,-537.584 572,-516.584 474,-516.584"/>
<text text-anchor="middle" x="523" y="-524.584" font-family="Helvetica,sans-Serif" font-size="10.00">QStateMachine *</text>
</g>
<!-- Node17&#45;&gt;Node1 -->
<g id="edge32" class="edge"><title>Node17&#45;&gt;Node1</title>
<path fill="none" stroke="#9a32cd" stroke-dasharray="5,2" d="M541.842,-509.188C564.323,-488.284 600.999,-455.707 618,-449.084 707.59,-414.183 954.273,-434.073 1050,-425.084 1124.1,-418.126 1145.88,-428.023 1216,-403.084 1235.23,-396.246 1254.84,-383.16 1267.42,-373.818"/>
<polygon fill="#9a32cd" stroke="#9a32cd" points="539.166,-506.898 534.265,-516.291 543.954,-512.005 539.166,-506.898"/>
<text text-anchor="middle" x="952" y="-431.084" font-family="Helvetica,sans-Serif" font-size="10.00"> m_p_touchFSM</text>
</g>
<!-- Node17&#45;&gt;Node18 -->
<g id="edge58" class="edge"><title>Node17&#45;&gt;Node18</title>
<path fill="none" stroke="#9a32cd" stroke-dasharray="5,2" d="M557.7,-541.373C575.447,-548.103 597.563,-555.617 618,-560.084 665.546,-570.476 799.328,-549.087 836,-581.084 912.394,-647.739 945.482,-995.359 951.115,-1061.28"/>
<polygon fill="#9a32cd" stroke="#9a32cd" points="558.918,-538.091 548.329,-537.738 556.387,-544.617 558.918,-538.091"/>
<text text-anchor="middle" x="727" y="-585.084" font-family="Helvetica,sans-Serif" font-size="10.00"> m_p_buttonFSM</text>
</g>
<!-- Node18&#45;&gt;Node1 -->
<g id="edge34" class="edge"><title>Node18&#45;&gt;Node1</title>
<path fill="none" stroke="#9a32cd" stroke-dasharray="5,2" d="M961.181,-1052.3C1010.12,-946.83 1239.45,-452.619 1276.07,-373.718"/>
<polygon fill="#9a32cd" stroke="#9a32cd" points="957.941,-1050.97 956.906,-1061.51 964.29,-1053.91 957.941,-1050.97"/>
<text text-anchor="middle" x="1142" y="-805.084" font-family="Helvetica,sans-Serif" font-size="10.00"> m_iconShowingFeedback</text>
</g>
<!-- Node19 -->
<g id="node38" class="node"><title>Node19</title>
<polygon fill="white" stroke="#bfbfbf" points="501.5,-643.584 501.5,-664.584 544.5,-664.584 544.5,-643.584 501.5,-643.584"/>
<text text-anchor="middle" x="523" y="-651.584" font-family="Helvetica,sans-Serif" font-size="10.00">Enum</text>
</g>
<!-- Node19&#45;&gt;Node18 -->
<g id="edge40" class="edge"><title>Node19&#45;&gt;Node18</title>
<path fill="none" stroke="#9a32cd" stroke-dasharray="5,2" d="M554.947,-649.622C625.702,-640.464 792.778,-623.047 836,-656.084 904.356,-708.332 943.379,-1001.23 950.726,-1061.31"/>
<polygon fill="#9a32cd" stroke="#9a32cd" points="554.296,-646.178 544.842,-650.96 555.214,-653.117 554.296,-646.178"/>
<text text-anchor="middle" x="727" y="-660.084" font-family="Helvetica,sans-Serif" font-size="10.00"> m_showWhichDeleteRemove</text>
</g>
<!-- Node20 -->
<g id="node41" class="node"><title>Node20</title>
<polygon fill="white" stroke="#bfbfbf" points="498,-603.584 498,-624.584 548,-624.584 548,-603.584 498,-603.584"/>
<text text-anchor="middle" x="523" y="-611.584" font-family="Helvetica,sans-Serif" font-size="10.00">QColor</text>
</g>
<!-- Node20&#45;&gt;Node18 -->
<g id="edge44" class="edge"><title>Node20&#45;&gt;Node18</title>
<path fill="none" stroke="#9a32cd" stroke-dasharray="5,2" d="M558.188,-609.513C630.787,-600.883 793.912,-585.874 836,-619.084 909.451,-677.042 944.674,-997.879 950.963,-1061.22"/>
<polygon fill="#9a32cd" stroke="#9a32cd" points="557.662,-606.051 548.158,-610.734 558.508,-613 557.662,-606.051"/>
<text text-anchor="middle" x="727" y="-623.084" font-family="Helvetica,sans-Serif" font-size="10.00"> m_labelColor</text>
</g>
<!-- Node21 -->
<g id="node43" class="node"><title>Node21</title>
<polygon fill="white" stroke="#bfbfbf" points="495.5,-1229.58 495.5,-1250.58 550.5,-1250.58 550.5,-1229.58 495.5,-1229.58"/>
<text text-anchor="middle" x="523" y="-1237.58" font-family="Helvetica,sans-Serif" font-size="10.00">QPointF</text>
</g>
<!-- Node21&#45;&gt;Node18 -->
<g id="edge46" class="edge"><title>Node21&#45;&gt;Node18</title>
<path fill="none" stroke="#9a32cd" stroke-dasharray="5,2" d="M560.591,-1229.12C573.258,-1225.1 587.377,-1220.26 600,-1215.08 608.277,-1211.69 609.415,-1208.59 618,-1206.08 711.514,-1178.75 747.616,-1224.07 836,-1183.08 886.32,-1159.75 928.503,-1105.62 944.793,-1082.67"/>
<polygon fill="#9a32cd" stroke="#9a32cd" points="559.314,-1225.85 550.801,-1232.16 561.389,-1232.54 559.314,-1225.85"/>
<text text-anchor="middle" x="727" y="-1210.08" font-family="Helvetica,sans-Serif" font-size="10.00"> m_activePositionOffsetFromPos</text>
</g>
<!-- Node22 -->
<g id="node45" class="node"><title>Node22</title>
<polygon fill="white" stroke="#bfbfbf" points="484.5,-1114.58 484.5,-1135.58 561.5,-1135.58 561.5,-1114.58 484.5,-1114.58"/>
<text text-anchor="middle" x="523" y="-1122.58" font-family="Helvetica,sans-Serif" font-size="10.00">QTextLayout</text>
</g>
<!-- Node22&#45;&gt;Node18 -->
<g id="edge48" class="edge"><title>Node22&#45;&gt;Node18</title>
<path fill="none" stroke="#9a32cd" stroke-dasharray="5,2" d="M572.12,-1125.17C634.076,-1124.54 743.677,-1120.98 836,-1105.08 865.507,-1100 898.244,-1090.3 921.396,-1082.73"/>
<polygon fill="#9a32cd" stroke="#9a32cd" points="571.83,-1121.67 561.859,-1125.25 571.886,-1128.67 571.83,-1121.67"/>
<text text-anchor="middle" x="727" y="-1128.08" font-family="Helvetica,sans-Serif" font-size="10.00"> m_textLayoutObject</text>
</g>
<!-- Node23 -->
<g id="node52" class="node"><title>Node23</title>
<polygon fill="white" stroke="#bfbfbf" points="459,-1074.58 459,-1095.58 587,-1095.58 587,-1074.58 459,-1074.58"/>
<text text-anchor="middle" x="523" y="-1082.58" font-family="Helvetica,sans-Serif" font-size="10.00">QPointer&lt; LayoutItem &gt;</text>
</g>
<!-- Node23&#45;&gt;Node18 -->
<g id="edge60" class="edge"><title>Node23&#45;&gt;Node18</title>
<path fill="none" stroke="#9a32cd" stroke-dasharray="5,2" d="M597.342,-1085.94C604.325,-1086 611.296,-1086.05 618,-1086.08 714.888,-1086.59 739.286,-1091.9 836,-1086.08 864.955,-1084.34 897.757,-1080.18 921.074,-1076.84"/>
<polygon fill="#9a32cd" stroke="#9a32cd" points="597.162,-1082.44 587.132,-1085.85 597.1,-1089.44 597.162,-1082.44"/>
<text text-anchor="middle" x="727" y="-1092.08" font-family="Helvetica,sans-Serif" font-size="10.00"> m_qp_layoutItemAssociation</text>
</g>
<!-- Node24 -->
<g id="node54" class="node"><title>Node24</title>
<polygon fill="white" stroke="#bfbfbf" points="500,-1034.58 500,-1055.58 546,-1055.58 546,-1034.58 500,-1034.58"/>
<text text-anchor="middle" x="523" y="-1042.58" font-family="Helvetica,sans-Serif" font-size="10.00">QFont</text>
</g>
<!-- Node24&#45;&gt;Node18 -->
<g id="edge62" class="edge"><title>Node24&#45;&gt;Node18</title>
<path fill="none" stroke="#9a32cd" stroke-dasharray="5,2" d="M556.168,-1047.17C636.971,-1052.26 843.102,-1065.23 921.293,-1070.15"/>
<polygon fill="#9a32cd" stroke="#9a32cd" points="556.265,-1043.67 546.065,-1046.54 555.825,-1050.66 556.265,-1043.67"/>
<text text-anchor="middle" x="727" y="-1068.08" font-family="Helvetica,sans-Serif" font-size="10.00"> s_iconLabelFont</text>
</g>
<!-- Node25 -->
<g id="node57" class="node"><title>Node25</title>
<polygon fill="white" stroke="#bfbfbf" points="505,-428.584 505,-449.584 541,-449.584 541,-428.584 505,-428.584"/>
<text text-anchor="middle" x="523" y="-436.584" font-family="Helvetica,sans-Serif" font-size="10.00">bool</text>
</g>
<!-- Node25&#45;&gt;Node1 -->
<g id="edge74" class="edge"><title>Node25&#45;&gt;Node1</title>
<path fill="none" stroke="#9a32cd" stroke-dasharray="5,2" d="M551.16,-434.008C570.02,-430.764 595.433,-426.691 618,-424.084 882.735,-393.498 953.107,-423.759 1216,-380.084 1225.67,-378.478 1235.99,-376.096 1245.49,-373.62"/>
<polygon fill="#9a32cd" stroke="#9a32cd" points="550.399,-430.588 541.151,-435.758 551.604,-437.484 550.399,-430.588"/>
<text text-anchor="middle" x="952" y="-412.084" font-family="Helvetica,sans-Serif" font-size="10.00"> m_fullInitPerformed</text>
</g>
<!-- Node25&#45;&gt;Node18 -->
<g id="edge66" class="edge"><title>Node25&#45;&gt;Node18</title>
<path fill="none" stroke="#9a32cd" stroke-dasharray="5,2" d="M551.294,-437.268C620.301,-433.47 794.628,-427.879 836,-465.084 929.337,-549.021 948.962,-986.666 951.645,-1061.27"/>
<polygon fill="#9a32cd" stroke="#9a32cd" points="550.941,-433.782 541.16,-437.855 551.346,-440.771 550.941,-433.782"/>
<text text-anchor="middle" x="727" y="-547.084" font-family="Helvetica,sans-Serif" font-size="10.00"> m_showFeedback</text>
<text text-anchor="middle" x="727" y="-534.084" font-family="Helvetica,sans-Serif" font-size="10.00">m_canRequestLauncher</text>
<text text-anchor="middle" x="727" y="-521.084" font-family="Helvetica,sans-Serif" font-size="10.00">m_showFrame</text>
<text text-anchor="middle" x="727" y="-508.084" font-family="Helvetica,sans-Serif" font-size="10.00">m_showLabel</text>
<text text-anchor="middle" x="727" y="-495.084" font-family="Helvetica,sans-Serif" font-size="10.00">m_usePrerenderedLabel</text>
<text text-anchor="middle" x="727" y="-482.084" font-family="Helvetica,sans-Serif" font-size="10.00">m_useOwnerSetAutopaintClip</text>
<text text-anchor="middle" x="727" y="-469.084" font-family="Helvetica,sans-Serif" font-size="10.00">m_showIcon</text>
</g>
<!-- Node26 -->
<g id="node59" class="node"><title>Node26</title>
<polygon fill="white" stroke="#bfbfbf" points="499.5,-916.584 499.5,-937.584 546.5,-937.584 546.5,-916.584 499.5,-916.584"/>
<text text-anchor="middle" x="523" y="-924.584" font-family="Helvetica,sans-Serif" font-size="10.00">QRect</text>
</g>
<!-- Node26&#45;&gt;Node18 -->
<g id="edge68" class="edge"><title>Node26&#45;&gt;Node18</title>
<path fill="none" stroke="#9a32cd" stroke-dasharray="5,2" d="M556.299,-916.968C574.365,-912.004 597.197,-906.566 618,-904.084 666.103,-898.344 793.103,-881.574 836,-904.084 902.223,-938.834 938.085,-1030.43 948.646,-1061.56"/>
<polygon fill="#9a32cd" stroke="#9a32cd" points="555.199,-913.642 546.53,-919.733 557.105,-920.377 555.199,-913.642"/>
<text text-anchor="middle" x="727" y="-1038.08" font-family="Helvetica,sans-Serif" font-size="10.00"> m_iconFrameGeom</text>
<text text-anchor="middle" x="727" y="-1025.08" font-family="Helvetica,sans-Serif" font-size="10.00">m_labelMaxGeom</text>
<text text-anchor="middle" x="727" y="-1012.08" font-family="Helvetica,sans-Serif" font-size="10.00">m_iconFeedbackPixmapGeom</text>
<text text-anchor="middle" x="727" y="-999.084" font-family="Helvetica,sans-Serif" font-size="10.00">m_iconPixmapGeom</text>
<text text-anchor="middle" x="727" y="-986.084" font-family="Helvetica,sans-Serif" font-size="10.00">m_ownerSetAutopaintClip</text>
<text text-anchor="middle" x="727" y="-973.084" font-family="Helvetica,sans-Serif" font-size="10.00">m_deleteDecoratorPixmapGeom</text>
<text text-anchor="middle" x="727" y="-960.084" font-family="Helvetica,sans-Serif" font-size="10.00">m_installStatusDecoratorGeom</text>
<text text-anchor="middle" x="727" y="-947.084" font-family="Helvetica,sans-Serif" font-size="10.00">m_labelGeom</text>
<text text-anchor="middle" x="727" y="-934.084" font-family="Helvetica,sans-Serif" font-size="10.00">m_deleteDecoratorGeom</text>
<text text-anchor="middle" x="727" y="-921.084" font-family="Helvetica,sans-Serif" font-size="10.00">m_iconFramePixmapGeom</text>
<text text-anchor="middle" x="727" y="-908.084" font-family="Helvetica,sans-Serif" font-size="10.00">...</text>
</g>
<!-- Node27 -->
<g id="node61" class="node"><title>Node27</title>
<polygon fill="white" stroke="#bfbfbf" points="498.5,-683.584 498.5,-704.584 547.5,-704.584 547.5,-683.584 498.5,-683.584"/>
<text text-anchor="middle" x="523" y="-691.584" font-family="Helvetica,sans-Serif" font-size="10.00">QPoint</text>
</g>
<!-- Node27&#45;&gt;Node18 -->
<g id="edge70" class="edge"><title>Node27&#45;&gt;Node18</title>
<path fill="none" stroke="#9a32cd" stroke-dasharray="5,2" d="M557.51,-688.724C629.548,-678.323 792.821,-659.095 836,-691.084 899.475,-738.11 942.054,-1004.73 950.469,-1061.47"/>
<polygon fill="#9a32cd" stroke="#9a32cd" points="556.952,-685.269 547.568,-690.188 557.971,-692.194 556.952,-685.269"/>
<text text-anchor="middle" x="727" y="-825.084" font-family="Helvetica,sans-Serif" font-size="10.00"> m_labelSrcPrecomputed</text>
<text text-anchor="middle" x="727" y="-812.084" font-family="Helvetica,sans-Serif" font-size="10.00">m_removeDecoratorSrcPrecomputed</text>
<text text-anchor="middle" x="727" y="-799.084" font-family="Helvetica,sans-Serif" font-size="10.00">m_deleteDecoratorPosICS</text>
<text text-anchor="middle" x="727" y="-786.084" font-family="Helvetica,sans-Serif" font-size="10.00">m_deleteDecoratorSrcPrecomputed</text>
<text text-anchor="middle" x="727" y="-773.084" font-family="Helvetica,sans-Serif" font-size="10.00">m_iconFrameSrcPrecomputed</text>
<text text-anchor="middle" x="727" y="-760.084" font-family="Helvetica,sans-Serif" font-size="10.00">m_installStatusDecoratorPosICS</text>
<text text-anchor="middle" x="727" y="-747.084" font-family="Helvetica,sans-Serif" font-size="10.00">m_removeDecoratorPosICS</text>
<text text-anchor="middle" x="727" y="-734.084" font-family="Helvetica,sans-Serif" font-size="10.00">m_iconPosICS</text>
<text text-anchor="middle" x="727" y="-721.084" font-family="Helvetica,sans-Serif" font-size="10.00">m_labelPosICS</text>
<text text-anchor="middle" x="727" y="-708.084" font-family="Helvetica,sans-Serif" font-size="10.00">m_installStatusDecoratorSrcPrecomputed</text>
<text text-anchor="middle" x="727" y="-695.084" font-family="Helvetica,sans-Serif" font-size="10.00">...</text>
</g>
<!-- Node28 -->
<g id="node63" class="node"><title>Node28</title>
<polygon fill="white" stroke="#bfbfbf" points="870,-192.584 870,-213.584 1034,-213.584 1034,-192.584 870,-192.584"/>
<text text-anchor="middle" x="952" y="-200.584" font-family="Helvetica,sans-Serif" font-size="10.00">QList&lt; QPointer&lt; IconBase &gt; &gt;</text>
</g>
<!-- Node28&#45;&gt;Node1 -->
<g id="edge72" class="edge"><title>Node28&#45;&gt;Node1</title>
<path fill="none" stroke="#9a32cd" stroke-dasharray="5,2" d="M1003.62,-190.523C1060.8,-179.751 1153.18,-171.997 1216,-215.084 1263.91,-247.942 1276.84,-324.428 1280.03,-352.505"/>
<polygon fill="#9a32cd" stroke="#9a32cd" points="1002.85,-187.109 993.721,-192.486 1004.21,-193.975 1002.85,-187.109"/>
<text text-anchor="middle" x="1142" y="-219.084" font-family="Helvetica,sans-Serif" font-size="10.00"> m_iconItems</text>
</g>
<!-- Node29 -->
<g id="node66" class="node"><title>Node29</title>
<polygon fill="white" stroke="#bfbfbf" points="854,-152.584 854,-173.584 1050,-173.584 1050,-152.584 854,-152.584"/>
<text text-anchor="middle" x="952" y="-160.584" font-family="Helvetica,sans-Serif" font-size="10.00">QPointer&lt; QParallelAnimationGroup &gt;</text>
</g>
<!-- Node29&#45;&gt;Node1 -->
<g id="edge76" class="edge"><title>Node29&#45;&gt;Node1</title>
<path fill="none" stroke="#9a32cd" stroke-dasharray="5,2" d="M1060.43,-151.952C1122.01,-147.979 1191.56,-148.2 1216,-166.084 1247.53,-189.16 1272.31,-314.664 1279.13,-352.368"/>
<polygon fill="#9a32cd" stroke="#9a32cd" points="1059.97,-148.476 1050.23,-152.652 1060.45,-155.459 1059.97,-148.476"/>
<text text-anchor="middle" x="1142" y="-170.084" font-family="Helvetica,sans-Serif" font-size="10.00"> m_qp_reorderAnimationGroup</text>
</g>
<!-- Node30 -->
<g id="node68" class="node"><title>Node30</title>
<polygon fill="white" stroke="#bfbfbf" points="877.5,-112.584 877.5,-133.584 1026.5,-133.584 1026.5,-112.584 877.5,-112.584"/>
<text text-anchor="middle" x="952" y="-120.584" font-family="Helvetica,sans-Serif" font-size="10.00">QMap&lt; int, TouchRegister &gt;</text>
</g>
<!-- Node30&#45;&gt;Node1 -->
<g id="edge78" class="edge"><title>Node30&#45;&gt;Node1</title>
<path fill="none" stroke="#9a32cd" stroke-dasharray="5,2" d="M1036.65,-115.853C1103.19,-112.036 1189,-111.841 1216,-133.084 1251.87,-161.307 1274.09,-310.883 1279.63,-352.393"/>
<polygon fill="#9a32cd" stroke="#9a32cd" points="1036.34,-112.366 1026.57,-116.467 1036.76,-119.353 1036.34,-112.366"/>
<text text-anchor="middle" x="1142" y="-137.084" font-family="Helvetica,sans-Serif" font-size="10.00"> m_touchRegisters</text>
</g>
<!-- Node31 -->
<g id="node70" class="node"><title>Node31</title>
<polygon fill="white" stroke="#bfbfbf" points="929,-56.5841 929,-77.5841 975,-77.5841 975,-56.5841 929,-56.5841"/>
<text text-anchor="middle" x="952" y="-64.5841" font-family="Helvetica,sans-Serif" font-size="10.00">qint32</text>
</g>
<!-- Node31&#45;&gt;Node1 -->
<g id="edge80" class="edge"><title>Node31&#45;&gt;Node1</title>
<path fill="none" stroke="#9a32cd" stroke-dasharray="5,2" d="M985.554,-62.6537C1048.63,-55.1015 1181.64,-43.1053 1216,-71.0841 1261.2,-107.898 1277.11,-304.705 1280.34,-352.581"/>
<polygon fill="#9a32cd" stroke="#9a32cd" points="984.839,-59.2152 975.341,-63.9112 985.694,-66.1628 984.839,-59.2152"/>
<text text-anchor="middle" x="1142" y="-101.084" font-family="Helvetica,sans-Serif" font-size="10.00"> m_itemsY</text>
<text text-anchor="middle" x="1142" y="-88.0841" font-family="Helvetica,sans-Serif" font-size="10.00">sEventCounter0</text>
<text text-anchor="middle" x="1142" y="-75.0841" font-family="Helvetica,sans-Serif" font-size="10.00">m_iconInMotionCurrentIndex</text>
</g>
<!-- Node32 -->
<g id="node72" class="node"><title>Node32</title>
<polygon fill="white" stroke="#bfbfbf" points="876,-16.5841 876,-37.5841 1028,-37.5841 1028,-16.5841 876,-16.5841"/>
<text text-anchor="middle" x="952" y="-24.5841" font-family="Helvetica,sans-Serif" font-size="10.00">QPointer&lt; PixButton2State &gt;</text>
</g>
<!-- Node32&#45;&gt;Node1 -->
<g id="edge82" class="edge"><title>Node32&#45;&gt;Node1</title>
<path fill="none" stroke="#9a32cd" stroke-dasharray="5,2" d="M995.759,-13.9292C1053.44,0.463246 1154.75,15.1258 1216,-37.0841 1265.63,-79.3907 1278.29,-301.07 1280.58,-352.446"/>
<polygon fill="#9a32cd" stroke="#9a32cd" points="994.656,-10.5996 985.859,-16.5042 996.418,-17.3742 994.656,-10.5996"/>
<text text-anchor="middle" x="1142" y="-41.0841" font-family="Helvetica,sans-Serif" font-size="10.00"> m_qp_launcherAccessButton</text>
</g>
</g>
</svg>
