<?xml version="1.0" encoding="UTF-8" standalone="no"?>
<!DOCTYPE svg PUBLIC "-//W3C//DTD SVG 1.1//EN"
 "http://www.w3.org/Graphics/SVG/1.1/DTD/svg11.dtd">
<!-- Generated by graphviz version 2.26.3 (20100126.1600)
 -->
<!-- Title: G Pages: 1 -->
<svg width="808pt" height="210pt"
 viewBox="0.00 0.00 808.00 210.00" xmlns="http://www.w3.org/2000/svg" xmlns:xlink="http://www.w3.org/1999/xlink">
<g id="graph1" class="graph" transform="scale(1 1) rotate(0) translate(4 206)">
<title>G</title>
<polygon fill="white" stroke="white" points="-4,5 -4,-206 805,-206 805,5 -4,5"/>
<!-- Node1 -->
<g id="node1" class="node"><title>Node1</title>
<polygon fill="#bfbfbf" stroke="black" points="134,-60.5 134,-81.5 188,-81.5 188,-60.5 134,-60.5"/>
<text text-anchor="middle" x="161" y="-68.5" font-family="Helvetica,sans-Serif" font-size="10.00">Window</text>
</g>
<!-- Node3 -->
<g id="node5" class="node"><title>Node3</title>
<a xlink:href="classDimensionsUI.htm" target="_top" xlink:title="DimensionsUI">
<polygon fill="white" stroke="black" points="225,-100.5 225,-121.5 307,-121.5 307,-100.5 225,-100.5"/>
<text text-anchor="middle" x="266" y="-108.5" font-family="Helvetica,sans-Serif" font-size="10.00">DimensionsUI</text>
</a>
</g>
<!-- Node1&#45;&gt;Node3 -->
<g id="edge4" class="edge"><title>Node1&#45;&gt;Node3</title>
<path fill="none" stroke="midnightblue" d="M197.47,-84.8932C210.872,-89.9989 225.816,-95.6919 238.32,-100.455"/>
<polygon fill="midnightblue" stroke="midnightblue" points="198.631,-81.5903 188.04,-81.301 196.139,-88.1317 198.631,-81.5903"/>
</g>
<!-- Node4 -->
<g id="node7" class="node"><title>Node4</title>
<a xlink:href="classHostWindow.htm" target="_top" xlink:title="HostWindow">
<polygon fill="white" stroke="black" points="228,-60.5 228,-81.5 304,-81.5 304,-60.5 228,-60.5"/>
<text text-anchor="middle" x="266" y="-68.5" font-family="Helvetica,sans-Serif" font-size="10.00">HostWindow</text>
</a>
</g>
<!-- Node1&#45;&gt;Node4 -->
<g id="edge6" class="edge"><title>Node1&#45;&gt;Node4</title>
<path fill="none" stroke="midnightblue" d="M198.163,-71C207.831,-71 218.26,-71 227.972,-71"/>
<polygon fill="midnightblue" stroke="midnightblue" points="198.04,-67.5001 188.04,-71 198.04,-74.5001 198.04,-67.5001"/>
</g>
<!-- Node16 -->
<g id="node31" class="node"><title>Node16</title>
<a xlink:href="classQuicklauncher.htm" target="_top" xlink:title="Quicklauncher">
<polygon fill="white" stroke="black" points="224.5,-20.5 224.5,-41.5 307.5,-41.5 307.5,-20.5 224.5,-20.5"/>
<text text-anchor="middle" x="266" y="-28.5" font-family="Helvetica,sans-Serif" font-size="10.00">Quicklauncher</text>
</a>
</g>
<!-- Node1&#45;&gt;Node16 -->
<g id="edge30" class="edge"><title>Node1&#45;&gt;Node16</title>
<path fill="none" stroke="midnightblue" d="M197.47,-57.1068C210.872,-52.0011 225.816,-46.3081 238.32,-41.5447"/>
<polygon fill="midnightblue" stroke="midnightblue" points="196.139,-53.8683 188.04,-60.699 198.631,-60.4097 196.139,-53.8683"/>
</g>
<!-- Node2 -->
<g id="node2" class="node"><title>Node2</title>
<a xlink:href="classQGraphicsObject.htm" target="_top" xlink:title="QGraphicsObject">
<polygon fill="white" stroke="black" points="0,-60.5 0,-81.5 98,-81.5 98,-60.5 0,-60.5"/>
<text text-anchor="middle" x="49" y="-68.5" font-family="Helvetica,sans-Serif" font-size="10.00">QGraphicsObject</text>
</a>
</g>
<!-- Node2&#45;&gt;Node1 -->
<g id="edge2" class="edge"><title>Node2&#45;&gt;Node1</title>
<path fill="none" stroke="midnightblue" d="M108.204,-71C117.134,-71 125.954,-71 133.754,-71"/>
<polygon fill="midnightblue" stroke="midnightblue" points="108.125,-67.5001 98.1248,-71 108.125,-74.5001 108.125,-67.5001"/>
</g>
<!-- Node5 -->
<g id="node9" class="node"><title>Node5</title>
<a xlink:href="classAlertWindow.htm" target="_top" xlink:title="AlertWindow">
<polygon fill="white" stroke="black" points="359,-140.5 359,-161.5 435,-161.5 435,-140.5 359,-140.5"/>
<text text-anchor="middle" x="397" y="-148.5" font-family="Helvetica,sans-Serif" font-size="10.00">AlertWindow</text>
</a>
</g>
<!-- Node4&#45;&gt;Node5 -->
<g id="edge8" class="edge"><title>Node4&#45;&gt;Node5</title>
<path fill="none" stroke="midnightblue" d="M299.029,-86.1512C302.093,-87.7293 305.124,-89.3582 308,-91 335.349,-106.615 365.375,-127.762 382.625,-140.331"/>
<polygon fill="midnightblue" stroke="midnightblue" points="300.377,-82.9131 289.862,-81.6077 297.268,-89.1848 300.377,-82.9131"/>
</g>
<!-- Node8 -->
<g id="node15" class="node"><title>Node8</title>
<a xlink:href="classCardWindow.htm" target="_top" xlink:title="CardWindow">
<polygon fill="white" stroke="black" points="358.5,-80.5 358.5,-101.5 435.5,-101.5 435.5,-80.5 358.5,-80.5"/>
<text text-anchor="middle" x="397" y="-88.5" font-family="Helvetica,sans-Serif" font-size="10.00">CardWindow</text>
</a>
</g>
<!-- Node4&#45;&gt;Node8 -->
<g id="edge14" class="edge"><title>Node4&#45;&gt;Node8</title>
<path fill="none" stroke="midnightblue" d="M314.543,-78.4111C329.038,-80.6241 344.723,-83.0188 358.483,-85.1195"/>
<polygon fill="midnightblue" stroke="midnightblue" points="314.656,-74.888 304.243,-76.8386 313.6,-81.8078 314.656,-74.888"/>
</g>
<!-- Node14 -->
<g id="node27" class="node"><title>Node14</title>
<a xlink:href="classDashboardWindow.htm" target="_top" xlink:title="DashboardWindow">
<polygon fill="white" stroke="black" points="344,-40.5 344,-61.5 450,-61.5 450,-40.5 344,-40.5"/>
<text text-anchor="middle" x="397" y="-48.5" font-family="Helvetica,sans-Serif" font-size="10.00">DashboardWindow</text>
</a>
</g>
<!-- Node4&#45;&gt;Node14 -->
<g id="edge26" class="edge"><title>Node4&#45;&gt;Node14</title>
<path fill="none" stroke="midnightblue" d="M314.405,-63.61C323.999,-62.1452 334.12,-60.6 343.862,-59.1127"/>
<polygon fill="midnightblue" stroke="midnightblue" points="313.6,-60.1922 304.243,-65.1614 314.656,-67.112 313.6,-60.1922"/>
</g>
<!-- Node15 -->
<g id="node29" class="node"><title>Node15</title>
<a xlink:href="classMenuWindow.htm" target="_top" xlink:title="MenuWindow">
<polygon fill="white" stroke="black" points="357,-0.5 357,-21.5 437,-21.5 437,-0.5 357,-0.5"/>
<text text-anchor="middle" x="397" y="-8.5" font-family="Helvetica,sans-Serif" font-size="10.00">MenuWindow</text>
</a>
</g>
<!-- Node4&#45;&gt;Node15 -->
<g id="edge28" class="edge"><title>Node4&#45;&gt;Node15</title>
<path fill="none" stroke="midnightblue" d="M297.823,-56.1054C301.273,-54.4138 304.72,-52.69 308,-51 324.271,-42.6168 327.393,-38.6961 344,-31 351.228,-27.6504 359.188,-24.4183 366.693,-21.5645"/>
<polygon fill="midnightblue" stroke="midnightblue" points="296.281,-52.9635 288.797,-60.4632 299.324,-59.2673 296.281,-52.9635"/>
</g>
<!-- Node6 -->
<g id="node11" class="node"><title>Node6</title>
<a xlink:href="classQmlAlertWindow.htm" target="_top" xlink:title="QmlAlertWindow">
<polygon fill="white" stroke="black" points="511.5,-180.5 511.5,-201.5 606.5,-201.5 606.5,-180.5 511.5,-180.5"/>
<text text-anchor="middle" x="559" y="-188.5" font-family="Helvetica,sans-Serif" font-size="10.00">QmlAlertWindow</text>
</a>
</g>
<!-- Node5&#45;&gt;Node6 -->
<g id="edge10" class="edge"><title>Node5&#45;&gt;Node6</title>
<path fill="none" stroke="midnightblue" d="M445.128,-162.883C467.733,-168.465 494.451,-175.062 516.324,-180.463"/>
<polygon fill="midnightblue" stroke="midnightblue" points="445.939,-159.479 435.392,-160.479 444.261,-166.275 445.939,-159.479"/>
</g>
<!-- Node7 -->
<g id="node13" class="node"><title>Node7</title>
<a xlink:href="classVolumeControlAlertWindow.htm" target="_top" xlink:title="VolumeControlAlertWindow">
<polygon fill="white" stroke="black" points="486.5,-140.5 486.5,-161.5 631.5,-161.5 631.5,-140.5 486.5,-140.5"/>
<text text-anchor="middle" x="559" y="-148.5" font-family="Helvetica,sans-Serif" font-size="10.00">VolumeControlAlertWindow</text>
</a>
</g>
<!-- Node5&#45;&gt;Node7 -->
<g id="edge12" class="edge"><title>Node5&#45;&gt;Node7</title>
<path fill="none" stroke="midnightblue" d="M445.77,-151C458.523,-151 472.55,-151 486.258,-151"/>
<polygon fill="midnightblue" stroke="midnightblue" points="445.392,-147.5 435.392,-151 445.392,-154.5 445.392,-147.5"/>
</g>
<!-- Node9 -->
<g id="node17" class="node"><title>Node9</title>
<a xlink:href="classCardHostWindow.htm" target="_top" xlink:title="CardHostWindow">
<polygon fill="white" stroke="black" points="509.5,-100.5 509.5,-121.5 608.5,-121.5 608.5,-100.5 509.5,-100.5"/>
<text text-anchor="middle" x="559" y="-108.5" font-family="Helvetica,sans-Serif" font-size="10.00">CardHostWindow</text>
</a>
</g>
<!-- Node8&#45;&gt;Node9 -->
<g id="edge16" class="edge"><title>Node8&#45;&gt;Node9</title>
<path fill="none" stroke="midnightblue" d="M445.992,-97.0483C466.084,-99.5288 489.307,-102.396 509.456,-104.883"/>
<polygon fill="midnightblue" stroke="midnightblue" points="446.157,-93.5422 435.803,-95.7905 445.299,-100.489 446.157,-93.5422"/>
</g>
<!-- Node11 -->
<g id="node21" class="node"><title>Node11</title>
<a xlink:href="classDockModeWindow.htm" target="_top" xlink:title="DockModeWindow">
<polygon fill="white" stroke="black" points="506.5,-60.5 506.5,-81.5 611.5,-81.5 611.5,-60.5 506.5,-60.5"/>
<text text-anchor="middle" x="559" y="-68.5" font-family="Helvetica,sans-Serif" font-size="10.00">DockModeWindow</text>
</a>
</g>
<!-- Node8&#45;&gt;Node11 -->
<g id="edge20" class="edge"><title>Node8&#45;&gt;Node11</title>
<path fill="none" stroke="midnightblue" d="M445.811,-84.9739C464.946,-82.6116 486.942,-79.896 506.426,-77.4906"/>
<polygon fill="midnightblue" stroke="midnightblue" points="445.299,-81.5105 435.803,-86.2095 446.157,-88.4578 445.299,-81.5105"/>
</g>
<!-- Node13 -->
<g id="node25" class="node"><title>Node13</title>
<a xlink:href="classEmulatedCardWindow.htm" target="_top" xlink:title="EmulatedCardWindow">
<polygon fill="white" stroke="black" points="498.5,-20.5 498.5,-41.5 619.5,-41.5 619.5,-20.5 498.5,-20.5"/>
<text text-anchor="middle" x="559" y="-28.5" font-family="Helvetica,sans-Serif" font-size="10.00">EmulatedCardWindow</text>
</a>
</g>
<!-- Node8&#45;&gt;Node13 -->
<g id="edge24" class="edge"><title>Node8&#45;&gt;Node13</title>
<path fill="none" stroke="midnightblue" d="M436.96,-76.6412C441.398,-74.8337 445.821,-72.9365 450,-71 466.607,-63.3039 469.052,-57.9122 486,-51 494.761,-47.427 504.368,-44.2817 513.652,-41.6063"/>
<polygon fill="midnightblue" stroke="midnightblue" points="435.334,-73.5197 427.307,-80.4355 437.894,-80.0344 435.334,-73.5197"/>
</g>
<!-- Node10 -->
<g id="node19" class="node"><title>Node10</title>
<a xlink:href="classQtHostWindow.htm" target="_top" xlink:title="QtHostWindow">
<polygon fill="white" stroke="black" points="690.5,-100.5 690.5,-121.5 777.5,-121.5 777.5,-100.5 690.5,-100.5"/>
<text text-anchor="middle" x="734" y="-108.5" font-family="Helvetica,sans-Serif" font-size="10.00">QtHostWindow</text>
</a>
</g>
<!-- Node9&#45;&gt;Node10 -->
<g id="edge18" class="edge"><title>Node9&#45;&gt;Node10</title>
<path fill="none" stroke="midnightblue" d="M618.89,-111C642.382,-111 668.833,-111 690.45,-111"/>
<polygon fill="midnightblue" stroke="midnightblue" points="618.68,-107.5 608.68,-111 618.68,-114.5 618.68,-107.5"/>
</g>
<!-- Node12 -->
<g id="node23" class="node"><title>Node12</title>
<a xlink:href="classDockModeClockWindow.htm" target="_top" xlink:title="DockModeClockWindow">
<polygon fill="white" stroke="black" points="668.5,-60.5 668.5,-81.5 799.5,-81.5 799.5,-60.5 668.5,-60.5"/>
<text text-anchor="middle" x="734" y="-68.5" font-family="Helvetica,sans-Serif" font-size="10.00">DockModeClockWindow</text>
</a>
</g>
<!-- Node11&#45;&gt;Node12 -->
<g id="edge22" class="edge"><title>Node11&#45;&gt;Node12</title>
<path fill="none" stroke="midnightblue" d="M621.749,-71C636.828,-71 652.975,-71 668.189,-71"/>
<polygon fill="midnightblue" stroke="midnightblue" points="621.506,-67.5001 611.506,-71 621.506,-74.5001 621.506,-67.5001"/>
</g>
</g>
</svg>
