<?xml version="1.0" encoding="UTF-8" standalone="no"?>
<!DOCTYPE svg PUBLIC "-//W3C//DTD SVG 1.1//EN"
 "http://www.w3.org/Graphics/SVG/1.1/DTD/svg11.dtd">
<!-- Generated by graphviz version 2.26.3 (20100126.1600)
 -->
<!-- Title: G Pages: 1 -->
<svg width="266pt" height="102pt"
 viewBox="0.00 0.00 266.00 102.00" xmlns="http://www.w3.org/2000/svg" xmlns:xlink="http://www.w3.org/1999/xlink">
<g id="graph1" class="graph" transform="scale(1 1) rotate(0) translate(4 98)">
<title>G</title>
<polygon fill="white" stroke="white" points="-4,5 -4,-98 263,-98 263,5 -4,5"/>
<!-- Node1 -->
<g id="node1" class="node"><title>Node1</title>
<polygon fill="#bfbfbf" stroke="black" points="72,-0.5 72,-21.5 186,-21.5 186,-0.5 72,-0.5"/>
<text text-anchor="middle" x="129" y="-8.5" font-family="Helvetica,sans-Serif" font-size="10.00">GlyphRenderer&lt; T &gt;</text>
</g>
<!-- Node2 -->
<g id="node2" class="node"><title>Node2</title>
<polygon fill="white" stroke="#bfbfbf" points="-0.5,-72.5 -0.5,-93.5 124.5,-93.5 124.5,-72.5 -0.5,-72.5"/>
<text text-anchor="middle" x="62" y="-80.5" font-family="Helvetica,sans-Serif" font-size="10.00">DirectRenderer&lt; T &gt; &amp;</text>
</g>
<!-- Node2&#45;&gt;Node1 -->
<g id="edge2" class="edge"><title>Node2&#45;&gt;Node1</title>
<path fill="none" stroke="#9a32cd" stroke-dasharray="5,2" d="M70.6495,-63.0742C74.6136,-55.3321 79.817,-46.7274 86,-40 92.5806,-32.84 101.262,-26.5599 109.1,-21.6916"/>
<polygon fill="#9a32cd" stroke="#9a32cd" points="67.4378,-61.6785 66.3107,-72.2132 73.7613,-64.6807 67.4378,-61.6785"/>
<text text-anchor="middle" x="130.5" y="-44.5" font-family="Helvetica,sans-Serif" font-size="10.00"> m_directRenderer</text>
</g>
<!-- Node3 -->
<g id="node4" class="node"><title>Node3</title>
<polygon fill="white" stroke="#bfbfbf" points="142,-72.5 142,-93.5 252,-93.5 252,-72.5 142,-72.5"/>
<text text-anchor="middle" x="197" y="-80.5" font-family="Helvetica,sans-Serif" font-size="10.00">GlyphCache&lt; T &gt; &amp;</text>
</g>
<!-- Node3&#45;&gt;Node1 -->
<g id="edge4" class="edge"><title>Node3&#45;&gt;Node1</title>
<path fill="none" stroke="#9a32cd" stroke-dasharray="5,2" d="M189.338,-62.7005C185.772,-55.0102 180.98,-46.5411 175,-40 168.248,-32.6141 159.201,-26.3727 150.917,-21.5943"/>
<polygon fill="#9a32cd" stroke="#9a32cd" points="186.205,-64.2795 193.316,-72.1338 192.655,-61.5596 186.205,-64.2795"/>
<text text-anchor="middle" x="221" y="-44.5" font-family="Helvetica,sans-Serif" font-size="10.00"> m_glyphCache</text>
</g>
</g>
</svg>
