<?xml version="1.0" encoding="UTF-8" standalone="no"?>
<!DOCTYPE svg PUBLIC "-//W3C//DTD SVG 1.1//EN"
 "http://www.w3.org/Graphics/SVG/1.1/DTD/svg11.dtd">
<!-- Generated by graphviz version 2.26.3 (20100126.1600)
 -->
<!-- Title: G Pages: 1 -->
<svg width="658pt" height="110pt"
 viewBox="0.00 0.00 658.00 110.00" xmlns="http://www.w3.org/2000/svg" xmlns:xlink="http://www.w3.org/1999/xlink">
<g id="graph1" class="graph" transform="scale(1 1) rotate(0) translate(4 106)">
<title>G</title>
<polygon fill="white" stroke="white" points="-4,5 -4,-106 655,-106 655,5 -4,5"/>
<!-- Node1 -->
<g id="node1" class="node"><title>Node1</title>
<polygon fill="#bfbfbf" stroke="black" points="92.5,-20.5 92.5,-41.5 185.5,-41.5 185.5,-20.5 92.5,-20.5"/>
<text text-anchor="middle" x="139" y="-28.5" font-family="Helvetica,sans-Serif" font-size="10.00">RedirectContext</text>
</g>
<!-- Node3 -->
<g id="node5" class="node"><title>Node3</title>
<a xlink:href="classLauncherTouchRedirectContext.htm" target="_top" xlink:title="LauncherTouchRedirectContext">
<polygon fill="white" stroke="black" points="222.5,-40.5 222.5,-61.5 389.5,-61.5 389.5,-40.5 222.5,-40.5"/>
<text text-anchor="middle" x="306" y="-48.5" font-family="Helvetica,sans-Serif" font-size="10.00">LauncherTouchRedirectContext</text>
</a>
</g>
<!-- Node1&#45;&gt;Node3 -->
<g id="edge4" class="edge"><title>Node1&#45;&gt;Node3</title>
<path fill="none" stroke="midnightblue" d="M195.461,-37.7618C204.122,-38.7991 213.219,-39.8885 222.318,-40.9783"/>
<polygon fill="midnightblue" stroke="midnightblue" points="195.864,-34.2851 185.519,-36.5711 195.032,-41.2355 195.864,-34.2851"/>
</g>
<!-- Node6 -->
<g id="node11" class="node"><title>Node6</title>
<a xlink:href="classPageTouchRedirectContext.htm" target="_top" xlink:title="PageTouchRedirectContext">
<polygon fill="white" stroke="black" points="232.5,-0.5 232.5,-21.5 379.5,-21.5 379.5,-0.5 232.5,-0.5"/>
<text text-anchor="middle" x="306" y="-8.5" font-family="Helvetica,sans-Serif" font-size="10.00">PageTouchRedirectContext</text>
</a>
</g>
<!-- Node1&#45;&gt;Node6 -->
<g id="edge10" class="edge"><title>Node1&#45;&gt;Node6</title>
<path fill="none" stroke="midnightblue" d="M195.618,-24.2195C207.373,-22.8116 219.925,-21.3084 232.193,-19.8392"/>
<polygon fill="midnightblue" stroke="midnightblue" points="195.032,-20.7645 185.519,-25.4289 195.864,-27.7149 195.032,-20.7645"/>
</g>
<!-- Node2 -->
<g id="node2" class="node"><title>Node2</title>
<a xlink:href="classQObject.htm" target="_top" xlink:title="QObject">
<polygon fill="white" stroke="black" points="0.5,-20.5 0.5,-41.5 55.5,-41.5 55.5,-20.5 0.5,-20.5"/>
<text text-anchor="middle" x="28" y="-28.5" font-family="Helvetica,sans-Serif" font-size="10.00">QObject</text>
</a>
</g>
<!-- Node2&#45;&gt;Node1 -->
<g id="edge2" class="edge"><title>Node2&#45;&gt;Node1</title>
<path fill="none" stroke="midnightblue" d="M65.735,-31C74.2469,-31 83.382,-31 92.2151,-31"/>
<polygon fill="midnightblue" stroke="midnightblue" points="65.7237,-27.5001 55.7237,-31 65.7236,-34.5001 65.7237,-27.5001"/>
</g>
<!-- Node4 -->
<g id="node7" class="node"><title>Node4</title>
<a xlink:href="classLauncherPageHPanRedirectContext.htm" target="_top" xlink:title="LauncherPageHPanRedirectContext">
<polygon fill="white" stroke="black" points="444,-80.5 444,-101.5 632,-101.5 632,-80.5 444,-80.5"/>
<text text-anchor="middle" x="538" y="-88.5" font-family="Helvetica,sans-Serif" font-size="10.00">LauncherPageHPanRedirectContext</text>
</a>
</g>
<!-- Node3&#45;&gt;Node4 -->
<g id="edge6" class="edge"><title>Node3&#45;&gt;Node4</title>
<path fill="none" stroke="midnightblue" d="M377.126,-63.263C409.078,-68.7721 446.401,-75.2071 477.049,-80.4913"/>
<polygon fill="midnightblue" stroke="midnightblue" points="377.405,-59.7596 366.955,-61.5095 376.215,-66.6578 377.405,-59.7596"/>
</g>
<!-- Node5 -->
<g id="node9" class="node"><title>Node5</title>
<a xlink:href="classLauncherPageIconTransferRedirectContext.htm" target="_top" xlink:title="LauncherPageIconTransferRedirectContext">
<polygon fill="white" stroke="black" points="426.5,-40.5 426.5,-61.5 649.5,-61.5 649.5,-40.5 426.5,-40.5"/>
<text text-anchor="middle" x="538" y="-48.5" font-family="Helvetica,sans-Serif" font-size="10.00">LauncherPageIconTransferRedirectContext</text>
</a>
</g>
<!-- Node3&#45;&gt;Node5 -->
<g id="edge8" class="edge"><title>Node3&#45;&gt;Node5</title>
<path fill="none" stroke="midnightblue" d="M399.826,-51C408.48,-51 417.305,-51 426.099,-51"/>
<polygon fill="midnightblue" stroke="midnightblue" points="399.757,-47.5001 389.757,-51 399.757,-54.5001 399.757,-47.5001"/>
</g>
<!-- Node7 -->
<g id="node13" class="node"><title>Node7</title>
<a xlink:href="classPageIconTransferRedirectContext.htm" target="_top" xlink:title="PageIconTransferRedirectContext">
<polygon fill="white" stroke="black" points="448.5,-0.5 448.5,-21.5 627.5,-21.5 627.5,-0.5 448.5,-0.5"/>
<text text-anchor="middle" x="538" y="-8.5" font-family="Helvetica,sans-Serif" font-size="10.00">PageIconTransferRedirectContext</text>
</a>
</g>
<!-- Node6&#45;&gt;Node7 -->
<g id="edge12" class="edge"><title>Node6&#45;&gt;Node7</title>
<path fill="none" stroke="midnightblue" d="M389.817,-11C408.783,-11 428.995,-11 448.196,-11"/>
<polygon fill="midnightblue" stroke="midnightblue" points="389.725,-7.5001 379.725,-11 389.725,-14.5001 389.725,-7.5001"/>
</g>
</g>
</svg>
