<?xml version="1.0" encoding="UTF-8" standalone="no"?>
<!DOCTYPE svg PUBLIC "-//W3C//DTD SVG 1.1//EN"
 "http://www.w3.org/Graphics/SVG/1.1/DTD/svg11.dtd">
<!-- Generated by graphviz version 2.26.3 (20100126.1600)
 -->
<!-- Title: G Pages: 1 -->
<svg width="294pt" height="88pt"
 viewBox="0.00 0.00 294.00 88.00" xmlns="http://www.w3.org/2000/svg" xmlns:xlink="http://www.w3.org/1999/xlink">
<g id="graph1" class="graph" transform="scale(1 1) rotate(0) translate(4 84)">
<title>G</title>
<polygon fill="white" stroke="white" points="-4,5 -4,-84 291,-84 291,5 -4,5"/>
<!-- Node1 -->
<g id="node1" class="node"><title>Node1</title>
<polygon fill="#bfbfbf" stroke="black" points="2,-0.5 2,-21.5 220,-21.5 220,-0.5 2,-0.5"/>
<text text-anchor="middle" x="111" y="-8.5" font-family="Helvetica,sans-Serif" font-size="10.00">Slot&lt; Receiver, void, void, void, void, void &gt;</text>
</g>
<!-- Node2 -->
<g id="node2" class="node"><title>Node2</title>
<a xlink:href="classSlotBase.htm" target="_top" xlink:title="SlotBase\&lt;\&gt;">
<polygon fill="white" stroke="black" points="-0.5,-58.5 -0.5,-79.5 70.5,-79.5 70.5,-58.5 -0.5,-58.5"/>
<text text-anchor="middle" x="35" y="-66.5" font-family="Helvetica,sans-Serif" font-size="10.00">SlotBase&lt;&gt;</text>
</a>
</g>
<!-- Node2&#45;&gt;Node1 -->
<g id="edge2" class="edge"><title>Node2&#45;&gt;Node1</title>
<path fill="none" stroke="midnightblue" d="M56.9369,-52.2587C69.9022,-42.3641 85.9251,-30.1361 97.1488,-21.5707"/>
<polygon fill="midnightblue" stroke="midnightblue" points="54.7657,-49.5128 48.9396,-58.3619 59.0125,-55.0775 54.7657,-49.5128"/>
</g>
<!-- Node3 -->
<g id="node4" class="node"><title>Node3</title>
<a xlink:href="classFunctionWrapper.htm" target="_top" xlink:title="FunctionWrapper\&lt; void(Receiver::*)()\&gt;">
<polygon fill="white" stroke="black" points="87.5,-58.5 87.5,-79.5 286.5,-79.5 286.5,-58.5 87.5,-58.5"/>
<text text-anchor="middle" x="187" y="-66.5" font-family="Helvetica,sans-Serif" font-size="10.00">FunctionWrapper&lt; void(Receiver::*)()&gt;</text>
</a>
</g>
<!-- Node3&#45;&gt;Node1 -->
<g id="edge4" class="edge"><title>Node3&#45;&gt;Node1</title>
<path fill="none" stroke="midnightblue" d="M165.063,-52.2587C152.098,-42.3641 136.075,-30.1361 124.851,-21.5707"/>
<polygon fill="midnightblue" stroke="midnightblue" points="162.988,-55.0775 173.06,-58.3619 167.234,-49.5128 162.988,-55.0775"/>
</g>
</g>
</svg>
