<?xml version="1.0" encoding="UTF-8" standalone="no"?>
<!DOCTYPE svg PUBLIC "-//W3C//DTD SVG 1.1//EN"
 "http://www.w3.org/Graphics/SVG/1.1/DTD/svg11.dtd">
<!-- Generated by graphviz version 2.26.3 (20100126.1600)
 -->
<!-- Title: G Pages: 1 -->
<svg width="380pt" height="204pt"
 viewBox="0.00 0.00 380.00 204.00" xmlns="http://www.w3.org/2000/svg" xmlns:xlink="http://www.w3.org/1999/xlink">
<g id="graph1" class="graph" transform="scale(1 1) rotate(0) translate(4 200)">
<title>G</title>
<polygon fill="white" stroke="white" points="-4,5 -4,-200 377,-200 377,5 -4,5"/>
<!-- Node1 -->
<g id="node1" class="node"><title>Node1</title>
<polygon fill="#bfbfbf" stroke="black" points="140.5,-58.5 140.5,-79.5 231.5,-79.5 231.5,-58.5 140.5,-58.5"/>
<text text-anchor="middle" x="186" y="-66.5" font-family="Helvetica,sans-Serif" font-size="10.00">VirtualKeyboard</text>
</g>
<!-- Node4 -->
<g id="node7" class="node"><title>Node4</title>
<a xlink:href="classPhone__Keyboard_1_1PhoneKeyboard.htm" target="_top" xlink:title="Phone_Keyboard::PhoneKeyboard">
<polygon fill="white" stroke="black" points="-0.5,-0.5 -0.5,-21.5 178.5,-21.5 178.5,-0.5 -0.5,-0.5"/>
<text text-anchor="middle" x="89" y="-8.5" font-family="Helvetica,sans-Serif" font-size="10.00">Phone_Keyboard::PhoneKeyboard</text>
</a>
</g>
<!-- Node1&#45;&gt;Node4 -->
<g id="edge6" class="edge"><title>Node1&#45;&gt;Node4</title>
<path fill="none" stroke="midnightblue" d="M159.41,-53.1009C142.627,-43.0658 121.413,-30.3808 106.679,-21.5707"/>
<polygon fill="midnightblue" stroke="midnightblue" points="157.83,-56.2339 168.209,-58.3619 161.422,-50.226 157.83,-56.2339"/>
</g>
<!-- Node5 -->
<g id="node9" class="node"><title>Node5</title>
<a xlink:href="classTablet__Keyboard_1_1TabletKeyboard.htm" target="_top" xlink:title="Tablet_Keyboard::TabletKeyboard">
<polygon fill="white" stroke="black" points="196,-0.5 196,-21.5 372,-21.5 372,-0.5 196,-0.5"/>
<text text-anchor="middle" x="284" y="-8.5" font-family="Helvetica,sans-Serif" font-size="10.00">Tablet_Keyboard::TabletKeyboard</text>
</a>
</g>
<!-- Node1&#45;&gt;Node5 -->
<g id="edge8" class="edge"><title>Node1&#45;&gt;Node5</title>
<path fill="none" stroke="midnightblue" d="M212.864,-53.1009C229.82,-43.0658 251.253,-30.3808 266.139,-21.5707"/>
<polygon fill="midnightblue" stroke="midnightblue" points="210.798,-50.2566 203.975,-58.3619 214.363,-56.2807 210.798,-50.2566"/>
</g>
<!-- Node2 -->
<g id="node2" class="node"><title>Node2</title>
<a xlink:href="classInputMethod.htm" target="_top" xlink:title="InputMethod">
<polygon fill="white" stroke="black" points="148,-116.5 148,-137.5 224,-137.5 224,-116.5 148,-116.5"/>
<text text-anchor="middle" x="186" y="-124.5" font-family="Helvetica,sans-Serif" font-size="10.00">InputMethod</text>
</a>
</g>
<!-- Node2&#45;&gt;Node1 -->
<g id="edge2" class="edge"><title>Node2&#45;&gt;Node1</title>
<path fill="none" stroke="midnightblue" d="M186,-106.191C186,-97.1684 186,-86.9941 186,-79.5707"/>
<polygon fill="midnightblue" stroke="midnightblue" points="182.5,-106.362 186,-116.362 189.5,-106.362 182.5,-106.362"/>
</g>
<!-- Node3 -->
<g id="node4" class="node"><title>Node3</title>
<a xlink:href="classQObject.htm" target="_top" xlink:title="QObject">
<polygon fill="white" stroke="black" points="158.5,-174.5 158.5,-195.5 213.5,-195.5 213.5,-174.5 158.5,-174.5"/>
<text text-anchor="middle" x="186" y="-182.5" font-family="Helvetica,sans-Serif" font-size="10.00">QObject</text>
</a>
</g>
<!-- Node3&#45;&gt;Node2 -->
<g id="edge4" class="edge"><title>Node3&#45;&gt;Node2</title>
<path fill="none" stroke="midnightblue" d="M186,-164.191C186,-155.168 186,-144.994 186,-137.571"/>
<polygon fill="midnightblue" stroke="midnightblue" points="182.5,-164.362 186,-174.362 189.5,-164.362 182.5,-164.362"/>
</g>
</g>
</svg>
