<?xml version="1.0" encoding="UTF-8" standalone="no"?>
<!DOCTYPE svg PUBLIC "-//W3C//DTD SVG 1.1//EN"
 "http://www.w3.org/Graphics/SVG/1.1/DTD/svg11.dtd">
<!-- Generated by graphviz version 2.26.3 (20100126.1600)
 -->
<!-- Title: G Pages: 1 -->
<svg width="295pt" height="166pt"
 viewBox="0.00 0.00 295.00 166.00" xmlns="http://www.w3.org/2000/svg" xmlns:xlink="http://www.w3.org/1999/xlink">
<g id="graph1" class="graph" transform="scale(1 1) rotate(0) translate(4 162)">
<title>G</title>
<polygon fill="white" stroke="white" points="-4,5 -4,-162 292,-162 292,5 -4,5"/>
<!-- Node1 -->
<g id="node1" class="node"><title>Node1</title>
<polygon fill="#bfbfbf" stroke="black" points="0,-2.5 0,-23.5 126,-23.5 126,-2.5 0,-2.5"/>
<text text-anchor="middle" x="63" y="-10.5" font-family="Helvetica,sans-Serif" font-size="10.00">VirtualKeyboardFactory</text>
</g>
<!-- Node1&#45;&gt;Node1 -->
<g id="edge8" class="edge"><title>Node1&#45;&gt;Node1</title>
<path fill="none" stroke="#9a32cd" stroke-dasharray="5,2" d="M136.09,-18.1271C141.012,-16.9437 144,-15.2347 144,-13 144,-9.51172 136.719,-7.30429 126.168,-6.37772"/>
<polygon fill="#9a32cd" stroke="#9a32cd" points="135.535,-14.6711 126.168,-19.6223 136.578,-21.593 135.535,-14.6711"/>
<text text-anchor="middle" x="215.5" y="-17" font-family="Helvetica,sans-Serif" font-size="10.00"> mNextVirtualKeyboardFactory</text>
<text text-anchor="middle" x="215.5" y="-4" font-family="Helvetica,sans-Serif" font-size="10.00">sFirstVirtualKeyboardFactory</text>
</g>
<!-- Node2 -->
<g id="node2" class="node"><title>Node2</title>
<polygon fill="white" stroke="#bfbfbf" points="0.5,-76.5 0.5,-97.5 53.5,-97.5 53.5,-76.5 0.5,-76.5"/>
<text text-anchor="middle" x="27" y="-84.5" font-family="Helvetica,sans-Serif" font-size="10.00">QString</text>
</g>
<!-- Node2&#45;&gt;Node1 -->
<g id="edge2" class="edge"><title>Node2&#45;&gt;Node1</title>
<path fill="none" stroke="#9a32cd" stroke-dasharray="5,2" d="M29.7644,-66.3669C31.2649,-59.0441 33.5487,-50.9104 37,-44 40.7662,-36.4591 46.7145,-29.1762 51.9716,-23.5665"/>
<polygon fill="#9a32cd" stroke="#9a32cd" points="26.3049,-65.8338 28.0815,-76.2786 33.2061,-67.0056 26.3049,-65.8338"/>
<text text-anchor="middle" x="57" y="-48.5" font-family="Helvetica,sans-Serif" font-size="10.00"> mName</text>
</g>
<!-- Node3 -->
<g id="node4" class="node"><title>Node3</title>
<a xlink:href="classInputMethod.htm" target="_top" xlink:title="InputMethod">
<polygon fill="white" stroke="black" points="71,-76.5 71,-97.5 147,-97.5 147,-76.5 71,-76.5"/>
<text text-anchor="middle" x="109" y="-84.5" font-family="Helvetica,sans-Serif" font-size="10.00">InputMethod</text>
</a>
</g>
<!-- Node3&#45;&gt;Node1 -->
<g id="edge4" class="edge"><title>Node3&#45;&gt;Node1</title>
<path fill="none" stroke="#9a32cd" stroke-dasharray="5,2" d="M96.8811,-67.5045C88.1416,-53.4453 76.6784,-35.0044 69.5785,-23.5827"/>
<polygon fill="#9a32cd" stroke="#9a32cd" points="94.1574,-69.7525 102.409,-76.3976 100.102,-66.057 94.1574,-69.7525"/>
<text text-anchor="middle" x="116" y="-48.5" font-family="Helvetica,sans-Serif" font-size="10.00"> mInstance</text>
</g>
<!-- Node4 -->
<g id="node6" class="node"><title>Node4</title>
<a xlink:href="classQObject.htm" target="_top" xlink:title="QObject">
<polygon fill="white" stroke="black" points="81.5,-136.5 81.5,-157.5 136.5,-157.5 136.5,-136.5 81.5,-136.5"/>
<text text-anchor="middle" x="109" y="-144.5" font-family="Helvetica,sans-Serif" font-size="10.00">QObject</text>
</a>
</g>
<!-- Node4&#45;&gt;Node3 -->
<g id="edge6" class="edge"><title>Node4&#45;&gt;Node3</title>
<path fill="none" stroke="midnightblue" d="M109,-126.231C109,-116.592 109,-105.544 109,-97.6339"/>
<polygon fill="midnightblue" stroke="midnightblue" points="105.5,-126.273 109,-136.273 112.5,-126.273 105.5,-126.273"/>
</g>
</g>
</svg>
