<?xml version="1.0" encoding="UTF-8" standalone="no"?>
<!DOCTYPE svg PUBLIC "-//W3C//DTD SVG 1.1//EN"
 "http://www.w3.org/Graphics/SVG/1.1/DTD/svg11.dtd">
<!-- Generated by graphviz version 2.26.3 (20100126.1600)
 -->
<!-- Title: G Pages: 1 -->
<svg width="327pt" height="162pt"
 viewBox="0.00 0.00 327.00 162.00" xmlns="http://www.w3.org/2000/svg" xmlns:xlink="http://www.w3.org/1999/xlink">
<g id="graph1" class="graph" transform="scale(1 1) rotate(0) translate(4 158)">
<title>G</title>
<polygon fill="white" stroke="white" points="-4,5 -4,-158 324,-158 324,5 -4,5"/>
<!-- Node1 -->
<g id="node1" class="node"><title>Node1</title>
<polygon fill="#bfbfbf" stroke="black" points="11.5,-0.5 11.5,-21.5 208.5,-21.5 208.5,-0.5 11.5,-0.5"/>
<text text-anchor="middle" x="110" y="-8.5" font-family="Helvetica,sans-Serif" font-size="10.00">Signal&lt; Arg0, Arg1, Arg2, Arg3, Arg4 &gt;</text>
</g>
<!-- Node2 -->
<g id="node2" class="node"><title>Node2</title>
<a xlink:href="classSignalBase.htm" target="_top" xlink:title="SignalBase\&lt; Arg0, Arg1, Arg2, Arg3, Arg4 \&gt;">
<polygon fill="white" stroke="black" points="-0.5,-60.5 -0.5,-81.5 220.5,-81.5 220.5,-60.5 -0.5,-60.5"/>
<text text-anchor="middle" x="110" y="-68.5" font-family="Helvetica,sans-Serif" font-size="10.00">SignalBase&lt; Arg0, Arg1, Arg2, Arg3, Arg4 &gt;</text>
</a>
</g>
<!-- Node2&#45;&gt;Node1 -->
<g id="edge2" class="edge"><title>Node2&#45;&gt;Node1</title>
<path fill="none" stroke="midnightblue" d="M110,-50.2312C110,-40.5922 110,-29.5444 110,-21.6339"/>
<polygon fill="midnightblue" stroke="midnightblue" points="106.5,-50.2732 110,-60.2732 113.5,-50.2732 106.5,-50.2732"/>
</g>
<!-- Node3 -->
<g id="node4" class="node"><title>Node3</title>
<a xlink:href="classSender.htm" target="_top" xlink:title="Sender">
<polygon fill="white" stroke="black" points="0.5,-132.5 0.5,-153.5 51.5,-153.5 51.5,-132.5 0.5,-132.5"/>
<text text-anchor="middle" x="26" y="-140.5" font-family="Helvetica,sans-Serif" font-size="10.00">Sender</text>
</a>
</g>
<!-- Node3&#45;&gt;Node2 -->
<g id="edge4" class="edge"><title>Node3&#45;&gt;Node2</title>
<path fill="none" stroke="midnightblue" d="M46.1512,-125.728C62.1496,-112.015 84.0096,-93.2774 97.5547,-81.6674"/>
<polygon fill="midnightblue" stroke="midnightblue" points="43.7093,-123.211 38.3945,-132.376 48.2649,-128.526 43.7093,-123.211"/>
</g>
<!-- Node4 -->
<g id="node6" class="node"><title>Node4</title>
<polygon fill="white" stroke="#bfbfbf" points="68.5,-132.5 68.5,-153.5 319.5,-153.5 319.5,-132.5 68.5,-132.5"/>
<text text-anchor="middle" x="194" y="-140.5" font-family="Helvetica,sans-Serif" font-size="10.00">set&lt; SlotBase&lt; Arg0, Arg1, Arg2, Arg3, Arg4 &gt; * &gt;</text>
</g>
<!-- Node4&#45;&gt;Node2 -->
<g id="edge6" class="edge"><title>Node4&#45;&gt;Node2</title>
<path fill="none" stroke="#9a32cd" stroke-dasharray="5,2" d="M173.849,-125.728C157.85,-112.015 135.99,-93.2774 122.445,-81.6674"/>
<polygon fill="#9a32cd" stroke="#9a32cd" points="171.735,-128.526 181.606,-132.376 176.291,-123.211 171.735,-128.526"/>
<text text-anchor="middle" x="180" y="-104.5" font-family="Helvetica,sans-Serif" font-size="10.00"> m_slots</text>
</g>
</g>
</svg>
