<?xml version="1.0" encoding="UTF-8" standalone="no"?>
<!DOCTYPE svg PUBLIC "-//W3C//DTD SVG 1.1//EN"
 "http://www.w3.org/Graphics/SVG/1.1/DTD/svg11.dtd">
<!-- Generated by graphviz version 2.26.3 (20100126.1600)
 -->
<!-- Title: G Pages: 1 -->
<svg width="184pt" height="204pt"
 viewBox="0.00 0.00 184.00 204.00" xmlns="http://www.w3.org/2000/svg" xmlns:xlink="http://www.w3.org/1999/xlink">
<g id="graph1" class="graph" transform="scale(1 1) rotate(0) translate(4 200)">
<title>G</title>
<polygon fill="white" stroke="white" points="-4,5 -4,-200 181,-200 181,5 -4,5"/>
<!-- Node1 -->
<g id="node1" class="node"><title>Node1</title>
<polygon fill="#bfbfbf" stroke="black" points="0,-0.5 0,-21.5 176,-21.5 176,-0.5 0,-0.5"/>
<text text-anchor="middle" x="88" y="-8.5" font-family="Helvetica,sans-Serif" font-size="10.00">Tablet_Keyboard::TabletKeyboard</text>
</g>
<!-- Node2 -->
<g id="node2" class="node"><title>Node2</title>
<a xlink:href="classVirtualKeyboard.htm" target="_top" xlink:title="VirtualKeyboard">
<polygon fill="white" stroke="black" points="42.5,-58.5 42.5,-79.5 133.5,-79.5 133.5,-58.5 42.5,-58.5"/>
<text text-anchor="middle" x="88" y="-66.5" font-family="Helvetica,sans-Serif" font-size="10.00">VirtualKeyboard</text>
</a>
</g>
<!-- Node2&#45;&gt;Node1 -->
<g id="edge2" class="edge"><title>Node2&#45;&gt;Node1</title>
<path fill="none" stroke="midnightblue" d="M88,-48.1906C88,-39.1684 88,-28.9941 88,-21.5707"/>
<polygon fill="midnightblue" stroke="midnightblue" points="84.5001,-48.3619 88,-58.3619 91.5001,-48.3619 84.5001,-48.3619"/>
</g>
<!-- Node3 -->
<g id="node4" class="node"><title>Node3</title>
<a xlink:href="classInputMethod.htm" target="_top" xlink:title="InputMethod">
<polygon fill="white" stroke="black" points="50,-116.5 50,-137.5 126,-137.5 126,-116.5 50,-116.5"/>
<text text-anchor="middle" x="88" y="-124.5" font-family="Helvetica,sans-Serif" font-size="10.00">InputMethod</text>
</a>
</g>
<!-- Node3&#45;&gt;Node2 -->
<g id="edge4" class="edge"><title>Node3&#45;&gt;Node2</title>
<path fill="none" stroke="midnightblue" d="M88,-106.191C88,-97.1684 88,-86.9941 88,-79.5707"/>
<polygon fill="midnightblue" stroke="midnightblue" points="84.5001,-106.362 88,-116.362 91.5001,-106.362 84.5001,-106.362"/>
</g>
<!-- Node4 -->
<g id="node6" class="node"><title>Node4</title>
<a xlink:href="classQObject.htm" target="_top" xlink:title="QObject">
<polygon fill="white" stroke="black" points="60.5,-174.5 60.5,-195.5 115.5,-195.5 115.5,-174.5 60.5,-174.5"/>
<text text-anchor="middle" x="88" y="-182.5" font-family="Helvetica,sans-Serif" font-size="10.00">QObject</text>
</a>
</g>
<!-- Node4&#45;&gt;Node3 -->
<g id="edge6" class="edge"><title>Node4&#45;&gt;Node3</title>
<path fill="none" stroke="midnightblue" d="M88,-164.191C88,-155.168 88,-144.994 88,-137.571"/>
<polygon fill="midnightblue" stroke="midnightblue" points="84.5001,-164.362 88,-174.362 91.5001,-164.362 84.5001,-164.362"/>
</g>
</g>
</svg>
