<?xml version="1.0" encoding="UTF-8" standalone="no"?>
<!DOCTYPE svg PUBLIC "-//W3C//DTD SVG 1.1//EN"
 "http://www.w3.org/Graphics/SVG/1.1/DTD/svg11.dtd">
<!-- Generated by graphviz version 2.26.3 (20100126.1600)
 -->
<!-- Title: G Pages: 1 -->
<svg width="466pt" height="88pt"
 viewBox="0.00 0.00 466.00 88.00" xmlns="http://www.w3.org/2000/svg" xmlns:xlink="http://www.w3.org/1999/xlink">
<g id="graph1" class="graph" transform="scale(1 1) rotate(0) translate(4 84)">
<title>G</title>
<polygon fill="white" stroke="white" points="-4,5 -4,-84 463,-84 463,5 -4,5"/>
<!-- Node1 -->
<g id="node1" class="node"><title>Node1</title>
<polygon fill="#bfbfbf" stroke="black" points="158,-58.5 158,-79.5 274,-79.5 274,-58.5 158,-58.5"/>
<text text-anchor="middle" x="216" y="-66.5" font-family="Helvetica,sans-Serif" font-size="10.00">QGestureRecognizer</text>
</g>
<!-- Node2 -->
<g id="node3" class="node"><title>Node2</title>
<a xlink:href="classBezelGestureRecognizer.htm" target="_top" xlink:title="BezelGestureRecognizer">
<polygon fill="white" stroke="black" points="0,-0.5 0,-21.5 134,-21.5 134,-0.5 0,-0.5"/>
<text text-anchor="middle" x="67" y="-8.5" font-family="Helvetica,sans-Serif" font-size="10.00">BezelGestureRecognizer</text>
</a>
</g>
<!-- Node1&#45;&gt;Node2 -->
<g id="edge2" class="edge"><title>Node1&#45;&gt;Node2</title>
<path fill="none" stroke="midnightblue" d="M179.363,-54.7386C152.962,-44.4616 117.92,-30.821 94.0334,-21.5231"/>
<polygon fill="midnightblue" stroke="midnightblue" points="178.429,-58.1307 189.017,-58.4966 180.968,-51.6075 178.429,-58.1307"/>
</g>
<!-- Node3 -->
<g id="node5" class="node"><title>Node3</title>
<a xlink:href="classFlickGestureRecognizer.htm" target="_top" xlink:title="FlickGestureRecognizer">
<polygon fill="white" stroke="black" points="151.5,-0.5 151.5,-21.5 280.5,-21.5 280.5,-0.5 151.5,-0.5"/>
<text text-anchor="middle" x="216" y="-8.5" font-family="Helvetica,sans-Serif" font-size="10.00">FlickGestureRecognizer</text>
</a>
</g>
<!-- Node1&#45;&gt;Node3 -->
<g id="edge4" class="edge"><title>Node1&#45;&gt;Node3</title>
<path fill="none" stroke="midnightblue" d="M216,-48.1906C216,-39.1684 216,-28.9941 216,-21.5707"/>
<polygon fill="midnightblue" stroke="midnightblue" points="212.5,-48.3619 216,-58.3619 219.5,-48.3619 212.5,-48.3619"/>
</g>
<!-- Node4 -->
<g id="node7" class="node"><title>Node4</title>
<a xlink:href="classSingleClickGestureRecognizer.htm" target="_top" xlink:title="SingleClickGestureRecognizer">
<polygon fill="white" stroke="black" points="298,-0.5 298,-21.5 458,-21.5 458,-0.5 298,-0.5"/>
<text text-anchor="middle" x="378" y="-8.5" font-family="Helvetica,sans-Serif" font-size="10.00">SingleClickGestureRecognizer</text>
</a>
</g>
<!-- Node1&#45;&gt;Node4 -->
<g id="edge6" class="edge"><title>Node1&#45;&gt;Node4</title>
<path fill="none" stroke="midnightblue" d="M255.077,-55.0095C283.866,-44.7023 322.409,-30.903 348.608,-21.5231"/>
<polygon fill="midnightblue" stroke="midnightblue" points="253.572,-51.8307 245.337,-58.4966 255.932,-58.421 253.572,-51.8307"/>
</g>
</g>
</svg>
