<?xml version="1.0" encoding="UTF-8" standalone="no"?>
<!DOCTYPE svg PUBLIC "-//W3C//DTD SVG 1.1//EN"
 "http://www.w3.org/Graphics/SVG/1.1/DTD/svg11.dtd">
<!-- Generated by graphviz version 2.26.3 (20100126.1600)
 -->
<!-- Title: G Pages: 1 -->
<svg width="726pt" height="411pt"
 viewBox="0.00 0.00 726.00 411.00" xmlns="http://www.w3.org/2000/svg" xmlns:xlink="http://www.w3.org/1999/xlink">
<g id="graph1" class="graph" transform="scale(1 1) rotate(0) translate(4 407)">
<title>G</title>
<polygon fill="white" stroke="white" points="-4,5 -4,-407 723,-407 723,5 -4,5"/>
<!-- Node1 -->
<g id="node1" class="node"><title>Node1</title>
<polygon fill="#bfbfbf" stroke="black" points="610.5,-87.5 610.5,-108.5 717.5,-108.5 717.5,-87.5 610.5,-87.5"/>
<text text-anchor="middle" x="664" y="-95.5" font-family="Helvetica,sans-Serif" font-size="10.00">PixPagerAtlasPage</text>
</g>
<!-- Node2 -->
<g id="node2" class="node"><title>Node2</title>
<a xlink:href="classPixPagerPage.htm" target="_top" xlink:title="PixPagerPage">
<polygon fill="white" stroke="black" points="326,-280.5 326,-301.5 410,-301.5 410,-280.5 326,-280.5"/>
<text text-anchor="middle" x="368" y="-288.5" font-family="Helvetica,sans-Serif" font-size="10.00">PixPagerPage</text>
</a>
</g>
<!-- Node2&#45;&gt;Node1 -->
<g id="edge2" class="edge"><title>Node2&#45;&gt;Node1</title>
<path fill="none" stroke="midnightblue" d="M419.766,-280.448C432.643,-276.799 446.147,-272.056 458,-266 543.478,-222.323 626.046,-138.715 654.005,-108.897"/>
<polygon fill="midnightblue" stroke="midnightblue" points="418.84,-277.072 410.077,-283.029 420.641,-283.837 418.84,-277.072"/>
</g>
<!-- Node3 -->
<g id="node4" class="node"><title>Node3</title>
<a xlink:href="classQObject.htm" target="_top" xlink:title="QObject">
<polygon fill="white" stroke="black" points="43.5,-381.5 43.5,-402.5 98.5,-402.5 98.5,-381.5 43.5,-381.5"/>
<text text-anchor="middle" x="71" y="-389.5" font-family="Helvetica,sans-Serif" font-size="10.00">QObject</text>
</a>
</g>
<!-- Node3&#45;&gt;Node2 -->
<g id="edge4" class="edge"><title>Node3&#45;&gt;Node2</title>
<path fill="none" stroke="midnightblue" d="M109.102,-388.727C148.058,-384.471 209.804,-375.181 260,-356 296.387,-342.096 334.387,-316.102 354.165,-301.553"/>
<polygon fill="midnightblue" stroke="midnightblue" points="108.334,-385.288 98.7469,-389.798 109.054,-392.251 108.334,-385.288"/>
</g>
<!-- Node4 -->
<g id="node6" class="node"><title>Node4</title>
<polygon fill="white" stroke="#bfbfbf" points="0.5,-341.5 0.5,-362.5 141.5,-362.5 141.5,-341.5 0.5,-341.5"/>
<text text-anchor="middle" x="71" y="-349.5" font-family="Helvetica,sans-Serif" font-size="10.00">QPointer&lt; PixmapObject &gt;</text>
</g>
<!-- Node4&#45;&gt;Node2 -->
<g id="edge6" class="edge"><title>Node4&#45;&gt;Node2</title>
<path fill="none" stroke="#9a32cd" stroke-dasharray="5,2" d="M152.07,-341.352C185.646,-336.367 224.875,-329.798 260,-322 285.518,-316.335 313.913,-308.107 335.181,-301.551"/>
<polygon fill="#9a32cd" stroke="#9a32cd" points="151.23,-337.937 141.842,-342.847 152.243,-344.863 151.23,-337.937"/>
<text text-anchor="middle" x="210" y="-343" font-family="Helvetica,sans-Serif" font-size="10.00"> m_data</text>
</g>
<!-- Node5 -->
<g id="node8" class="node"><title>Node5</title>
<polygon fill="white" stroke="#bfbfbf" points="50.5,-301.5 50.5,-322.5 91.5,-322.5 91.5,-301.5 50.5,-301.5"/>
<text text-anchor="middle" x="71" y="-309.5" font-family="Helvetica,sans-Serif" font-size="10.00">qreal</text>
</g>
<!-- Node5&#45;&gt;Node2 -->
<g id="edge8" class="edge"><title>Node5&#45;&gt;Node2</title>
<path fill="none" stroke="#9a32cd" stroke-dasharray="5,2" d="M102.122,-309.799C155.688,-306.012 265.36,-298.257 325.766,-293.986"/>
<polygon fill="#9a32cd" stroke="#9a32cd" points="101.613,-306.327 91.8845,-310.523 102.106,-313.309 101.613,-306.327"/>
<text text-anchor="middle" x="210" y="-309" font-family="Helvetica,sans-Serif" font-size="10.00"> m_accessFrequency</text>
</g>
<!-- Node6 -->
<g id="node10" class="node"><title>Node6</title>
<polygon fill="white" stroke="#bfbfbf" points="53,-255.5 53,-276.5 89,-276.5 89,-255.5 53,-255.5"/>
<text text-anchor="middle" x="71" y="-263.5" font-family="Helvetica,sans-Serif" font-size="10.00">bool</text>
</g>
<!-- Node6&#45;&gt;Node2 -->
<g id="edge10" class="edge"><title>Node6&#45;&gt;Node2</title>
<path fill="none" stroke="#9a32cd" stroke-dasharray="5,2" d="M99.091,-264.83C136.094,-263.659 203.138,-262.811 260,-269 281.971,-271.391 306.101,-276.103 325.969,-280.555"/>
<polygon fill="#9a32cd" stroke="#9a32cd" points="98.9218,-261.334 89.0498,-265.18 99.1657,-268.33 98.9218,-261.334"/>
<text text-anchor="middle" x="210" y="-286" font-family="Helvetica,sans-Serif" font-size="10.00"> m_initiatedDelete</text>
<text text-anchor="middle" x="210" y="-273" font-family="Helvetica,sans-Serif" font-size="10.00">m_pinned</text>
</g>
<!-- Node7 -->
<g id="node12" class="node"><title>Node7</title>
<polygon fill="white" stroke="#bfbfbf" points="11.5,-215.5 11.5,-236.5 130.5,-236.5 130.5,-215.5 11.5,-215.5"/>
<text text-anchor="middle" x="71" y="-223.5" font-family="Helvetica,sans-Serif" font-size="10.00">QPointer&lt; PixPager &gt;</text>
</g>
<!-- Node7&#45;&gt;Node2 -->
<g id="edge12" class="edge"><title>Node7&#45;&gt;Node2</title>
<path fill="none" stroke="#9a32cd" stroke-dasharray="5,2" d="M140.822,-222.454C177.963,-223.285 223.388,-228.791 260,-247 270.415,-252.18 268.033,-260.003 278,-266 292.451,-274.695 310.014,-280.452 325.776,-284.222"/>
<polygon fill="#9a32cd" stroke="#9a32cd" points="140.62,-218.952 130.581,-222.337 140.54,-225.951 140.62,-218.952"/>
<text text-anchor="middle" x="210" y="-251" font-family="Helvetica,sans-Serif" font-size="10.00"> m_pager</text>
</g>
<!-- Node8 -->
<g id="node14" class="node"><title>Node8</title>
<polygon fill="white" stroke="#bfbfbf" points="45.5,-151.5 45.5,-172.5 96.5,-172.5 96.5,-151.5 45.5,-151.5"/>
<text text-anchor="middle" x="71" y="-159.5" font-family="Helvetica,sans-Serif" font-size="10.00">quint32</text>
</g>
<!-- Node8&#45;&gt;Node1 -->
<g id="edge22" class="edge"><title>Node8&#45;&gt;Node1</title>
<path fill="none" stroke="#9a32cd" stroke-dasharray="5,2" d="M106.762,-160.524C191.511,-156.647 411.036,-144.374 592,-115 602.396,-113.313 613.519,-110.962 623.837,-108.546"/>
<polygon fill="#9a32cd" stroke="#9a32cd" points="106.475,-157.034 96.6409,-160.976 106.787,-164.027 106.475,-157.034"/>
<text text-anchor="middle" x="368" y="-257" font-family="Helvetica,sans-Serif" font-size="10.00"> m_yLeadingPixelSpace</text>
<text text-anchor="middle" x="368" y="-244" font-family="Helvetica,sans-Serif" font-size="10.00">m_xTrailingPixelSpace</text>
<text text-anchor="middle" x="368" y="-231" font-family="Helvetica,sans-Serif" font-size="10.00">m_interRowPixelSpace</text>
<text text-anchor="middle" x="368" y="-218" font-family="Helvetica,sans-Serif" font-size="10.00">m_yTrailingPixelSpace</text>
<text text-anchor="middle" x="368" y="-205" font-family="Helvetica,sans-Serif" font-size="10.00">m_xLeadingPixelSpace</text>
<text text-anchor="middle" x="368" y="-192" font-family="Helvetica,sans-Serif" font-size="10.00">m_pixmapSqSize</text>
<text text-anchor="middle" x="368" y="-179" font-family="Helvetica,sans-Serif" font-size="10.00">m_interColPixelSpace</text>
<text text-anchor="middle" x="368" y="-166" font-family="Helvetica,sans-Serif" font-size="10.00">m_rows</text>
<text text-anchor="middle" x="368" y="-153" font-family="Helvetica,sans-Serif" font-size="10.00">m_columns</text>
</g>
<!-- Node8&#45;&gt;Node2 -->
<g id="edge14" class="edge"><title>Node8&#45;&gt;Node2</title>
<path fill="none" stroke="#9a32cd" stroke-dasharray="5,2" d="M106.879,-157.135C149.065,-153.563 218.571,-154.728 260,-193 284.546,-215.675 254.719,-242.029 278,-266 290.428,-278.796 308.793,-285.212 325.697,-288.367"/>
<polygon fill="#9a32cd" stroke="#9a32cd" points="106.387,-153.666 96.7765,-158.125 107.07,-160.633 106.387,-153.666"/>
<text text-anchor="middle" x="210" y="-210" font-family="Helvetica,sans-Serif" font-size="10.00"> m_sizeInBytes</text>
<text text-anchor="middle" x="210" y="-197" font-family="Helvetica,sans-Serif" font-size="10.00">m_accessCounter</text>
</g>
<!-- Node9 -->
<g id="node16" class="node"><title>Node9</title>
<polygon fill="white" stroke="#bfbfbf" points="286,-87.5 286,-108.5 450,-108.5 450,-87.5 286,-87.5"/>
<text text-anchor="middle" x="368" y="-95.5" font-family="Helvetica,sans-Serif" font-size="10.00">QHash&lt; QUuid, PixmapRects &gt;</text>
</g>
<!-- Node9&#45;&gt;Node1 -->
<g id="edge16" class="edge"><title>Node9&#45;&gt;Node1</title>
<path fill="none" stroke="#9a32cd" stroke-dasharray="5,2" d="M460.107,-98C509.432,-98 568.467,-98 610.289,-98"/>
<polygon fill="#9a32cd" stroke="#9a32cd" points="460.059,-94.5001 450.059,-98 460.059,-101.5 460.059,-94.5001"/>
<text text-anchor="middle" x="534" y="-102" font-family="Helvetica,sans-Serif" font-size="10.00"> m_directory</text>
</g>
<!-- Node10 -->
<g id="node18" class="node"><title>Node10</title>
<polygon fill="white" stroke="#bfbfbf" points="278.5,-47.5 278.5,-68.5 457.5,-68.5 457.5,-47.5 278.5,-47.5"/>
<text text-anchor="middle" x="368" y="-55.5" font-family="Helvetica,sans-Serif" font-size="10.00">QList&lt; QPair&lt; quint32, quint32 &gt; &gt;</text>
</g>
<!-- Node10&#45;&gt;Node1 -->
<g id="edge18" class="edge"><title>Node10&#45;&gt;Node1</title>
<path fill="none" stroke="#9a32cd" stroke-dasharray="5,2" d="M468.007,-65.4772C506.868,-69.1112 551.659,-74.1959 592,-81 602.259,-82.7303 613.233,-85.0675 623.444,-87.4544"/>
<polygon fill="#9a32cd" stroke="#9a32cd" points="468.016,-61.9635 457.738,-64.5376 467.378,-68.9344 468.016,-61.9635"/>
<text text-anchor="middle" x="534" y="-85" font-family="Helvetica,sans-Serif" font-size="10.00"> m_freeList</text>
</g>
<!-- Node11 -->
<g id="node20" class="node"><title>Node11</title>
<polygon fill="white" stroke="#bfbfbf" points="300,-0.5 300,-21.5 436,-21.5 436,-0.5 300,-0.5"/>
<text text-anchor="middle" x="368" y="-8.5" font-family="Helvetica,sans-Serif" font-size="10.00">QPair&lt; quint32, quint32 &gt;</text>
</g>
<!-- Node11&#45;&gt;Node1 -->
<g id="edge20" class="edge"><title>Node11&#45;&gt;Node1</title>
<path fill="none" stroke="#9a32cd" stroke-dasharray="5,2" d="M446.262,-8.51072C490.669,-9.80335 546.325,-16.0922 592,-36 618.614,-47.6 642.665,-72.5547 655.098,-87.0186"/>
<polygon fill="#9a32cd" stroke="#9a32cd" points="446.171,-5.00811 436.1,-8.29552 446.023,-12.0065 446.171,-5.00811"/>
<text text-anchor="middle" x="534" y="-53" font-family="Helvetica,sans-Serif" font-size="10.00"> m_lastPositionAllocated</text>
<text text-anchor="middle" x="534" y="-40" font-family="Helvetica,sans-Serif" font-size="10.00">INVALID_LOCATION</text>
</g>
</g>
</svg>
