<?xml version="1.0" encoding="UTF-8" standalone="no"?>
<!DOCTYPE svg PUBLIC "-//W3C//DTD SVG 1.1//EN"
 "http://www.w3.org/Graphics/SVG/1.1/DTD/svg11.dtd">
<!-- Generated by graphviz version 2.26.3 (20100126.1600)
 -->
<!-- Title: G Pages: 1 -->
<svg width="260pt" height="204pt"
 viewBox="0.00 0.00 260.00 204.00" xmlns="http://www.w3.org/2000/svg" xmlns:xlink="http://www.w3.org/1999/xlink">
<g id="graph1" class="graph" transform="scale(1 1) rotate(0) translate(4 200)">
<title>G</title>
<polygon fill="white" stroke="white" points="-4,5 -4,-200 257,-200 257,5 -4,5"/>
<!-- Node1 -->
<g id="node1" class="node"><title>Node1</title>
<polygon fill="#bfbfbf" stroke="black" points="48.5,-116.5 48.5,-137.5 203.5,-137.5 203.5,-116.5 48.5,-116.5"/>
<text text-anchor="middle" x="126" y="-124.5" font-family="Helvetica,sans-Serif" font-size="10.00">RemoteWindowDataSoftware</text>
</g>
<!-- Node3 -->
<g id="node5" class="node"><title>Node3</title>
<a xlink:href="classRemoteWindowDataSoftwareOpenGLComposited.htm" target="_top" xlink:title="RemoteWindowDataSoftwareOpenGLComposited">
<polygon fill="white" stroke="black" points="0,-58.5 0,-79.5 252,-79.5 252,-58.5 0,-58.5"/>
<text text-anchor="middle" x="126" y="-66.5" font-family="Helvetica,sans-Serif" font-size="10.00">RemoteWindowDataSoftwareOpenGLComposited</text>
</a>
</g>
<!-- Node1&#45;&gt;Node3 -->
<g id="edge4" class="edge"><title>Node1&#45;&gt;Node3</title>
<path fill="none" stroke="midnightblue" d="M126,-106.191C126,-97.1684 126,-86.9941 126,-79.5707"/>
<polygon fill="midnightblue" stroke="midnightblue" points="122.5,-106.362 126,-116.362 129.5,-106.362 122.5,-106.362"/>
</g>
<!-- Node2 -->
<g id="node2" class="node"><title>Node2</title>
<a xlink:href="classRemoteWindowData.htm" target="_top" xlink:title="RemoteWindowData">
<polygon fill="white" stroke="black" points="69.5,-174.5 69.5,-195.5 182.5,-195.5 182.5,-174.5 69.5,-174.5"/>
<text text-anchor="middle" x="126" y="-182.5" font-family="Helvetica,sans-Serif" font-size="10.00">RemoteWindowData</text>
</a>
</g>
<!-- Node2&#45;&gt;Node1 -->
<g id="edge2" class="edge"><title>Node2&#45;&gt;Node1</title>
<path fill="none" stroke="midnightblue" d="M126,-164.191C126,-155.168 126,-144.994 126,-137.571"/>
<polygon fill="midnightblue" stroke="midnightblue" points="122.5,-164.362 126,-174.362 129.5,-164.362 122.5,-164.362"/>
</g>
<!-- Node4 -->
<g id="node7" class="node"><title>Node4</title>
<a xlink:href="classRemoteWindowDataSoftwareTextureShared.htm" target="_top" xlink:title="RemoteWindowDataSoftwareTextureShared">
<polygon fill="white" stroke="black" points="13,-0.5 13,-21.5 239,-21.5 239,-0.5 13,-0.5"/>
<text text-anchor="middle" x="126" y="-8.5" font-family="Helvetica,sans-Serif" font-size="10.00">RemoteWindowDataSoftwareTextureShared</text>
</a>
</g>
<!-- Node3&#45;&gt;Node4 -->
<g id="edge6" class="edge"><title>Node3&#45;&gt;Node4</title>
<path fill="none" stroke="midnightblue" d="M126,-48.1906C126,-39.1684 126,-28.9941 126,-21.5707"/>
<polygon fill="midnightblue" stroke="midnightblue" points="122.5,-48.3619 126,-58.3619 129.5,-48.3619 122.5,-48.3619"/>
</g>
</g>
</svg>
