<?xml version="1.0" encoding="UTF-8" standalone="no"?>
<!DOCTYPE svg PUBLIC "-//W3C//DTD SVG 1.1//EN"
 "http://www.w3.org/Graphics/SVG/1.1/DTD/svg11.dtd">
<!-- Generated by graphviz version 2.26.3 (20100126.1600)
 -->
<!-- Title: G Pages: 1 -->
<svg width="514pt" height="140pt"
 viewBox="0.00 0.00 514.00 140.00" xmlns="http://www.w3.org/2000/svg" xmlns:xlink="http://www.w3.org/1999/xlink">
<g id="graph1" class="graph" transform="scale(1 1) rotate(0) translate(4 136)">
<title>G</title>
<polygon fill="white" stroke="white" points="-4,5 -4,-136 511,-136 511,5 -4,5"/>
<!-- Node1 -->
<g id="node1" class="node"><title>Node1</title>
<polygon fill="#bfbfbf" stroke="black" points="135.5,-0.5 135.5,-21.5 368.5,-21.5 368.5,-0.5 135.5,-0.5"/>
<text text-anchor="middle" x="252" y="-8.5" font-family="Helvetica,sans-Serif" font-size="10.00">DimensionsSystemInterface::SafeFileOperator</text>
</g>
<!-- Node2 -->
<g id="node2" class="node"><title>Node2</title>
<a xlink:href="classQObject.htm" target="_top" xlink:title="QObject">
<polygon fill="white" stroke="black" points="-0.5,-110.5 -0.5,-131.5 54.5,-131.5 54.5,-110.5 -0.5,-110.5"/>
<text text-anchor="middle" x="27" y="-118.5" font-family="Helvetica,sans-Serif" font-size="10.00">QObject</text>
</a>
</g>
<!-- Node2&#45;&gt;Node1 -->
<g id="edge2" class="edge"><title>Node2&#45;&gt;Node1</title>
<path fill="none" stroke="midnightblue" d="M38.7964,-101.89C51.4981,-83.0339 73.4924,-54.9287 100,-40 112.816,-32.7823 142.478,-26.4334 172.229,-21.5305"/>
<polygon fill="midnightblue" stroke="midnightblue" points="35.8422,-100.012 33.3285,-110.305 41.7119,-103.826 35.8422,-100.012"/>
</g>
<!-- Node3 -->
<g id="node4" class="node"><title>Node3</title>
<polygon fill="white" stroke="#bfbfbf" points="71.5,-110.5 71.5,-131.5 142.5,-131.5 142.5,-110.5 71.5,-110.5"/>
<text text-anchor="middle" x="107" y="-118.5" font-family="Helvetica,sans-Serif" font-size="10.00">QSettings *</text>
</g>
<!-- Node3&#45;&gt;Node1 -->
<g id="edge4" class="edge"><title>Node3&#45;&gt;Node1</title>
<path fill="none" stroke="#9a32cd" stroke-dasharray="5,2" d="M103.781,-100.323C102.195,-82.1091 103.159,-56.049 118,-40 125.434,-31.9612 144.831,-25.955 166.632,-21.5586"/>
<polygon fill="#9a32cd" stroke="#9a32cd" points="100.335,-100.977 104.998,-110.49 107.285,-100.145 100.335,-100.977"/>
<text text-anchor="middle" x="151.5" y="-63.5" font-family="Helvetica,sans-Serif" font-size="10.00"> m_p_settings</text>
</g>
<!-- Node4 -->
<g id="node6" class="node"><title>Node4</title>
<polygon fill="white" stroke="#bfbfbf" points="170.5,-110.5 170.5,-131.5 223.5,-131.5 223.5,-110.5 170.5,-110.5"/>
<text text-anchor="middle" x="197" y="-118.5" font-family="Helvetica,sans-Serif" font-size="10.00">QString</text>
</g>
<!-- Node4&#45;&gt;Node1 -->
<g id="edge6" class="edge"><title>Node4&#45;&gt;Node1</title>
<path fill="none" stroke="#9a32cd" stroke-dasharray="5,2" d="M191.753,-100.157C188.6,-82.7851 187.052,-58.0516 198,-40 202.911,-31.902 210.934,-25.9295 219.312,-21.5835"/>
<polygon fill="#9a32cd" stroke="#9a32cd" points="188.423,-101.321 193.942,-110.365 195.268,-99.8536 188.423,-101.321"/>
<text text-anchor="middle" x="242" y="-83" font-family="Helvetica,sans-Serif" font-size="10.00"> m_tempName</text>
<text text-anchor="middle" x="242" y="-70" font-family="Helvetica,sans-Serif" font-size="10.00">m_originalPath</text>
<text text-anchor="middle" x="242" y="-57" font-family="Helvetica,sans-Serif" font-size="10.00">m_tempBasename</text>
<text text-anchor="middle" x="242" y="-44" font-family="Helvetica,sans-Serif" font-size="10.00">m_actualName</text>
</g>
<!-- Node5 -->
<g id="node8" class="node"><title>Node5</title>
<polygon fill="white" stroke="#bfbfbf" points="280.5,-110.5 280.5,-131.5 335.5,-131.5 335.5,-110.5 280.5,-110.5"/>
<text text-anchor="middle" x="308" y="-118.5" font-family="Helvetica,sans-Serif" font-size="10.00">OpType</text>
</g>
<!-- Node5&#45;&gt;Node1 -->
<g id="edge8" class="edge"><title>Node5&#45;&gt;Node1</title>
<path fill="none" stroke="#9a32cd" stroke-dasharray="5,2" d="M305.833,-100.375C303.252,-83.1366 297.71,-58.4765 286,-40 281.431,-32.7917 274.511,-26.4238 268.104,-21.5048"/>
<polygon fill="#9a32cd" stroke="#9a32cd" points="302.387,-101.021 307.136,-110.492 309.329,-100.126 302.387,-101.021"/>
<text text-anchor="middle" x="332.5" y="-63.5" font-family="Helvetica,sans-Serif" font-size="10.00"> m_opMode</text>
</g>
<!-- Node6 -->
<g id="node10" class="node"><title>Node6</title>
<a xlink:href="classint.htm" target="_top" xlink:title="int">
<polygon fill="white" stroke="black" points="373.5,-110.5 373.5,-131.5 402.5,-131.5 402.5,-110.5 373.5,-110.5"/>
<text text-anchor="middle" x="388" y="-118.5" font-family="Helvetica,sans-Serif" font-size="10.00">int</text>
</a>
</g>
<!-- Node6&#45;&gt;Node1 -->
<g id="edge10" class="edge"><title>Node6&#45;&gt;Node1</title>
<path fill="none" stroke="#9a32cd" stroke-dasharray="5,2" d="M387.634,-100.166C386.171,-81.8454 381.123,-55.718 365,-40 357.35,-32.5421 336.814,-26.306 315.312,-21.5512"/>
<polygon fill="#9a32cd" stroke="#9a32cd" points="384.151,-100.589 388.149,-110.401 391.142,-100.237 384.151,-100.589"/>
<text text-anchor="middle" x="409.5" y="-63.5" font-family="Helvetica,sans-Serif" font-size="10.00"> m_tmpFh</text>
</g>
<!-- Node7 -->
<g id="node12" class="node"><title>Node7</title>
<polygon fill="white" stroke="#bfbfbf" points="440,-110.5 440,-131.5 476,-131.5 476,-110.5 440,-110.5"/>
<text text-anchor="middle" x="458" y="-118.5" font-family="Helvetica,sans-Serif" font-size="10.00">bool</text>
</g>
<!-- Node7&#45;&gt;Node1 -->
<g id="edge12" class="edge"><title>Node7&#45;&gt;Node1</title>
<path fill="none" stroke="#9a32cd" stroke-dasharray="5,2" d="M458.292,-100.377C457.369,-81.7937 452.88,-55.1357 436,-40 424.985,-30.1231 398.337,-23.6019 368.64,-19.2994"/>
<polygon fill="#9a32cd" stroke="#9a32cd" points="454.795,-100.553 458.488,-110.483 461.794,-100.417 454.795,-100.553"/>
<text text-anchor="middle" x="481.5" y="-63.5" font-family="Helvetica,sans-Serif" font-size="10.00"> m_unsafe</text>
</g>
</g>
</svg>
