<?xml version="1.0" encoding="UTF-8" standalone="no"?>
<!DOCTYPE svg PUBLIC "-//W3C//DTD SVG 1.1//EN"
 "http://www.w3.org/Graphics/SVG/1.1/DTD/svg11.dtd">
<!-- Generated by graphviz version 2.26.3 (20100126.1600)
 -->
<!-- Title: G Pages: 1 -->
<svg width="319pt" height="102pt"
 viewBox="0.00 0.00 319.00 102.00" xmlns="http://www.w3.org/2000/svg" xmlns:xlink="http://www.w3.org/1999/xlink">
<g id="graph1" class="graph" transform="scale(1 1) rotate(0) translate(4 98)">
<title>G</title>
<polygon fill="white" stroke="white" points="-4,5 -4,-98 316,-98 316,5 -4,5"/>
<!-- Node1 -->
<g id="node1" class="node"><title>Node1</title>
<polygon fill="#bfbfbf" stroke="black" points="49.5,-0.5 49.5,-21.5 150.5,-21.5 150.5,-0.5 49.5,-0.5"/>
<text text-anchor="middle" x="100" y="-8.5" font-family="Helvetica,sans-Serif" font-size="10.00">CommandParams</text>
</g>
<!-- Node2 -->
<g id="node2" class="node"><title>Node2</title>
<polygon fill="white" stroke="#bfbfbf" points="-0.5,-72.5 -0.5,-93.5 40.5,-93.5 40.5,-72.5 -0.5,-72.5"/>
<text text-anchor="middle" x="20" y="-80.5" font-family="Helvetica,sans-Serif" font-size="10.00">Type</text>
</g>
<!-- Node2&#45;&gt;Node1 -->
<g id="edge2" class="edge"><title>Node2&#45;&gt;Node1</title>
<path fill="none" stroke="#9a32cd" stroke-dasharray="5,2" d="M38.5867,-65.2638C46.8937,-57.4312 56.8549,-48.1668 66,-40 72.9441,-33.7988 80.8488,-27.0391 87.2877,-21.6071"/>
<polygon fill="#9a32cd" stroke="#9a32cd" points="36.0624,-62.834 31.2098,-72.2522 40.8766,-67.9157 36.0624,-62.834"/>
<text text-anchor="middle" x="81" y="-44.5" font-family="Helvetica,sans-Serif" font-size="10.00"> _type</text>
</g>
<!-- Node3 -->
<g id="node4" class="node"><title>Node3</title>
<polygon fill="white" stroke="#bfbfbf" points="58,-72.5 58,-93.5 142,-93.5 142,-72.5 58,-72.5"/>
<text text-anchor="middle" x="100" y="-80.5" font-family="Helvetica,sans-Serif" font-size="10.00">GIOChannel *</text>
</g>
<!-- Node3&#45;&gt;Node1 -->
<g id="edge4" class="edge"><title>Node3&#45;&gt;Node1</title>
<path fill="none" stroke="#9a32cd" stroke-dasharray="5,2" d="M100,-62.2348C100,-48.969 100,-32.3188 100,-21.6674"/>
<polygon fill="#9a32cd" stroke="#9a32cd" points="96.5001,-62.3761 100,-72.3762 103.5,-62.3762 96.5001,-62.3761"/>
<text text-anchor="middle" x="151.5" y="-44.5" font-family="Helvetica,sans-Serif" font-size="10.00"> _childStdOutChannel</text>
</g>
<!-- Node4 -->
<g id="node6" class="node"><title>Node4</title>
<polygon fill="white" stroke="#bfbfbf" points="197,-72.5 197,-93.5 255,-93.5 255,-72.5 197,-72.5"/>
<text text-anchor="middle" x="226" y="-80.5" font-family="Helvetica,sans-Serif" font-size="10.00">GSource</text>
</g>
<!-- Node4&#45;&gt;Node1 -->
<g id="edge6" class="edge"><title>Node4&#45;&gt;Node1</title>
<path fill="none" stroke="#9a32cd" stroke-dasharray="5,2" d="M219.636,-62.6196C216.182,-54.5453 211.124,-45.8187 204,-40 195.435,-33.0039 172.67,-26.2959 150.615,-21.0968"/>
<polygon fill="#9a32cd" stroke="#9a32cd" points="216.439,-64.0646 223.19,-72.2304 223.005,-61.6372 216.439,-64.0646"/>
<text text-anchor="middle" x="262.5" y="-44.5" font-family="Helvetica,sans-Serif" font-size="10.00"> _childStdOutSource</text>
</g>
</g>
</svg>
