<?xml version="1.0" encoding="UTF-8" standalone="no"?>
<!DOCTYPE svg PUBLIC "-//W3C//DTD SVG 1.1//EN"
 "http://www.w3.org/Graphics/SVG/1.1/DTD/svg11.dtd">
<!-- Generated by graphviz version 2.26.3 (20100126.1600)
 -->
<!-- Title: G Pages: 1 -->
<svg width="632pt" height="174pt"
 viewBox="0.00 0.00 632.00 174.00" xmlns="http://www.w3.org/2000/svg" xmlns:xlink="http://www.w3.org/1999/xlink">
<g id="graph1" class="graph" transform="scale(1 1) rotate(0) translate(4 170)">
<title>G</title>
<polygon fill="white" stroke="white" points="-4,5 -4,-170 629,-170 629,5 -4,5"/>
<!-- Node1 -->
<g id="node1" class="node"><title>Node1</title>
<polygon fill="#bfbfbf" stroke="black" points="268,-0.5 268,-21.5 358,-21.5 358,-0.5 268,-0.5"/>
<text text-anchor="middle" x="313" y="-8.5" font-family="Helvetica,sans-Serif" font-size="10.00">VirtualCoreNavi</text>
</g>
<!-- Node2 -->
<g id="node2" class="node"><title>Node2</title>
<a xlink:href="classVirtualGestureStrip.htm" target="_top" xlink:title="VirtualGestureStrip">
<polygon fill="white" stroke="black" points="260.5,-60.5 260.5,-81.5 365.5,-81.5 365.5,-60.5 260.5,-60.5"/>
<text text-anchor="middle" x="313" y="-68.5" font-family="Helvetica,sans-Serif" font-size="10.00">VirtualGestureStrip</text>
</a>
</g>
<!-- Node2&#45;&gt;Node1 -->
<g id="edge2" class="edge"><title>Node2&#45;&gt;Node1</title>
<path fill="none" stroke="midnightblue" d="M313,-50.2312C313,-40.5922 313,-29.5444 313,-21.6339"/>
<polygon fill="midnightblue" stroke="midnightblue" points="309.5,-50.2732 313,-60.2732 316.5,-50.2732 309.5,-50.2732"/>
</g>
<!-- Node3 -->
<g id="node4" class="node"><title>Node3</title>
<a xlink:href="classQGraphicsObject.htm" target="_top" xlink:title="QGraphicsObject">
<polygon fill="white" stroke="black" points="0,-144.5 0,-165.5 98,-165.5 98,-144.5 0,-144.5"/>
<text text-anchor="middle" x="49" y="-152.5" font-family="Helvetica,sans-Serif" font-size="10.00">QGraphicsObject</text>
</a>
</g>
<!-- Node3&#45;&gt;Node2 -->
<g id="edge4" class="edge"><title>Node3&#45;&gt;Node2</title>
<path fill="none" stroke="midnightblue" d="M71.1069,-138.351C88.8198,-125.85 114.794,-109.34 140,-100 178.837,-85.609 225.234,-78.3239 260.199,-74.6562"/>
<polygon fill="midnightblue" stroke="midnightblue" points="68.7018,-135.771 62.6451,-144.464 72.8008,-141.445 68.7018,-135.771"/>
</g>
<!-- Node4 -->
<g id="node6" class="node"><title>Node4</title>
<polygon fill="white" stroke="#bfbfbf" points="116,-144.5 116,-165.5 168,-165.5 168,-144.5 116,-144.5"/>
<text text-anchor="middle" x="142" y="-152.5" font-family="Helvetica,sans-Serif" font-size="10.00">QTimer</text>
</g>
<!-- Node4&#45;&gt;Node2 -->
<g id="edge6" class="edge"><title>Node4&#45;&gt;Node2</title>
<path fill="none" stroke="#9a32cd" stroke-dasharray="5,2" d="M142.07,-134.187C143.245,-122.544 146.73,-108.672 156,-100 170.928,-86.0345 220.774,-78.5348 260.344,-74.6863"/>
<polygon fill="#9a32cd" stroke="#9a32cd" points="138.561,-134.255 141.537,-144.424 145.552,-134.619 138.561,-134.255"/>
<text text-anchor="middle" x="206" y="-117" font-family="Helvetica,sans-Serif" font-size="10.00"> m_quickLaunchFire</text>
<text text-anchor="middle" x="206" y="-104" font-family="Helvetica,sans-Serif" font-size="10.00">m_gestureDragTimer</text>
</g>
<!-- Node5 -->
<g id="node8" class="node"><title>Node5</title>
<a xlink:href="classint.htm" target="_top" xlink:title="int">
<polygon fill="white" stroke="black" points="250.5,-144.5 250.5,-165.5 279.5,-165.5 279.5,-144.5 250.5,-144.5"/>
<text text-anchor="middle" x="265" y="-152.5" font-family="Helvetica,sans-Serif" font-size="10.00">int</text>
</a>
</g>
<!-- Node5&#45;&gt;Node2 -->
<g id="edge8" class="edge"><title>Node5&#45;&gt;Node2</title>
<path fill="none" stroke="#9a32cd" stroke-dasharray="5,2" d="M260.86,-134.549C259.715,-123.621 260.112,-110.33 266,-100 270.463,-92.17 277.985,-86.1801 285.719,-81.7348"/>
<polygon fill="#9a32cd" stroke="#9a32cd" points="257.408,-135.134 262.373,-144.493 264.329,-134.08 257.408,-135.134"/>
<text text-anchor="middle" x="302.5" y="-117" font-family="Helvetica,sans-Serif" font-size="10.00"> m_gestureEnd</text>
<text text-anchor="middle" x="302.5" y="-104" font-family="Helvetica,sans-Serif" font-size="10.00">m_gestureStart</text>
</g>
<!-- Node6 -->
<g id="node10" class="node"><title>Node6</title>
<polygon fill="white" stroke="#bfbfbf" points="343,-144.5 343,-165.5 379,-165.5 379,-144.5 343,-144.5"/>
<text text-anchor="middle" x="361" y="-152.5" font-family="Helvetica,sans-Serif" font-size="10.00">bool</text>
</g>
<!-- Node6&#45;&gt;Node2 -->
<g id="edge10" class="edge"><title>Node6&#45;&gt;Node2</title>
<path fill="none" stroke="#9a32cd" stroke-dasharray="5,2" d="M354.759,-134.591C351.013,-123.863 345.673,-110.746 339,-100 334.862,-93.3364 329.136,-86.7574 324.11,-81.5544"/>
<polygon fill="#9a32cd" stroke="#9a32cd" points="351.518,-135.94 357.966,-144.347 358.168,-133.754 351.518,-135.94"/>
<text text-anchor="middle" x="389" y="-117" font-family="Helvetica,sans-Serif" font-size="10.00"> m_quickLaunch</text>
<text text-anchor="middle" x="389" y="-104" font-family="Helvetica,sans-Serif" font-size="10.00">m_seenGesture</text>
</g>
<!-- Node7 -->
<g id="node12" class="node"><title>Node7</title>
<polygon fill="white" stroke="#bfbfbf" points="436.5,-144.5 436.5,-165.5 483.5,-165.5 483.5,-144.5 436.5,-144.5"/>
<text text-anchor="middle" x="460" y="-152.5" font-family="Helvetica,sans-Serif" font-size="10.00">QRect</text>
</g>
<!-- Node7&#45;&gt;Node2 -->
<g id="edge12" class="edge"><title>Node7&#45;&gt;Node2</title>
<path fill="none" stroke="#9a32cd" stroke-dasharray="5,2" d="M454.029,-134.825C449.53,-123.01 442.184,-108.739 431,-100 420.569,-91.8496 392.006,-84.7208 365.597,-79.5708"/>
<polygon fill="#9a32cd" stroke="#9a32cd" points="450.744,-136.034 457.276,-144.375 457.371,-133.78 450.744,-136.034"/>
<text text-anchor="middle" x="475" y="-110.5" font-family="Helvetica,sans-Serif" font-size="10.00"> m_bounds</text>
</g>
<!-- Node8 -->
<g id="node14" class="node"><title>Node8</title>
<polygon fill="white" stroke="#bfbfbf" points="510.5,-144.5 510.5,-165.5 559.5,-165.5 559.5,-144.5 510.5,-144.5"/>
<text text-anchor="middle" x="535" y="-152.5" font-family="Helvetica,sans-Serif" font-size="10.00">QPoint</text>
</g>
<!-- Node8&#45;&gt;Node2 -->
<g id="edge14" class="edge"><title>Node8&#45;&gt;Node2</title>
<path fill="none" stroke="#9a32cd" stroke-dasharray="5,2" d="M528.928,-134.443C524.311,-122.486 516.716,-108.201 505,-100 483.112,-84.6802 414.727,-77.2139 365.812,-73.7489"/>
<polygon fill="#9a32cd" stroke="#9a32cd" points="525.697,-135.811 532.247,-144.139 532.32,-133.545 525.697,-135.811"/>
<text text-anchor="middle" x="574" y="-117" font-family="Helvetica,sans-Serif" font-size="10.00"> m_currentMousePos</text>
<text text-anchor="middle" x="574" y="-104" font-family="Helvetica,sans-Serif" font-size="10.00">m_mouseDownPos</text>
</g>
</g>
</svg>
