<?xml version="1.0" encoding="UTF-8" standalone="no"?>
<!DOCTYPE svg PUBLIC "-//W3C//DTD SVG 1.1//EN"
 "http://www.w3.org/Graphics/SVG/1.1/DTD/svg11.dtd">
<!-- Generated by graphviz version 2.26.3 (20100126.1600)
 -->
<!-- Title: G Pages: 1 -->
<svg width="320pt" height="88pt"
 viewBox="0.00 0.00 320.00 88.00" xmlns="http://www.w3.org/2000/svg" xmlns:xlink="http://www.w3.org/1999/xlink">
<g id="graph1" class="graph" transform="scale(1 1) rotate(0) translate(4 84)">
<title>G</title>
<polygon fill="white" stroke="white" points="-4,5 -4,-84 317,-84 317,5 -4,5"/>
<!-- Node1 -->
<g id="node1" class="node"><title>Node1</title>
<polygon fill="#bfbfbf" stroke="black" points="100,-58.5 100,-79.5 214,-79.5 214,-58.5 100,-58.5"/>
<text text-anchor="middle" x="157" y="-66.5" font-family="Helvetica,sans-Serif" font-size="10.00">GlyphRenderer&lt; T &gt;</text>
</g>
<!-- Node2 -->
<g id="node3" class="node"><title>Node2</title>
<a xlink:href="classCachedGlyphRenderer.htm" target="_top" xlink:title="CachedGlyphRenderer\&lt; T \&gt;">
<polygon fill="white" stroke="black" points="-0.5,-0.5 -0.5,-21.5 150.5,-21.5 150.5,-0.5 -0.5,-0.5"/>
<text text-anchor="middle" x="75" y="-8.5" font-family="Helvetica,sans-Serif" font-size="10.00">CachedGlyphRenderer&lt; T &gt;</text>
</a>
</g>
<!-- Node1&#45;&gt;Node2 -->
<g id="edge2" class="edge"><title>Node1&#45;&gt;Node2</title>
<path fill="none" stroke="midnightblue" d="M133.73,-52.5407C119.672,-42.5973 102.17,-30.2177 89.9447,-21.5707"/>
<polygon fill="midnightblue" stroke="midnightblue" points="131.775,-55.4447 141.96,-58.3619 135.817,-49.7298 131.775,-55.4447"/>
</g>
<!-- Node3 -->
<g id="node5" class="node"><title>Node3</title>
<a xlink:href="classGlyphCachePopulator.htm" target="_top" xlink:title="GlyphCachePopulator\&lt; T \&gt;">
<polygon fill="white" stroke="black" points="167.5,-0.5 167.5,-21.5 312.5,-21.5 312.5,-0.5 167.5,-0.5"/>
<text text-anchor="middle" x="240" y="-8.5" font-family="Helvetica,sans-Serif" font-size="10.00">GlyphCachePopulator&lt; T &gt;</text>
</a>
</g>
<!-- Node1&#45;&gt;Node3 -->
<g id="edge4" class="edge"><title>Node1&#45;&gt;Node3</title>
<path fill="none" stroke="midnightblue" d="M180.554,-52.5407C194.783,-42.5973 212.499,-30.2177 224.873,-21.5707"/>
<polygon fill="midnightblue" stroke="midnightblue" points="178.416,-49.7649 172.223,-58.3619 182.425,-55.5028 178.416,-49.7649"/>
</g>
</g>
</svg>
