<?xml version="1.0" encoding="UTF-8" standalone="no"?>
<!DOCTYPE svg PUBLIC "-//W3C//DTD SVG 1.1//EN"
 "http://www.w3.org/Graphics/SVG/1.1/DTD/svg11.dtd">
<!-- Generated by graphviz version 2.26.3 (20100126.1600)
 -->
<!-- Title: G Pages: 1 -->
<svg width="226pt" height="204pt"
 viewBox="0.00 0.00 226.00 204.00" xmlns="http://www.w3.org/2000/svg" xmlns:xlink="http://www.w3.org/1999/xlink">
<g id="graph1" class="graph" transform="scale(1 1) rotate(0) translate(4 200)">
<title>G</title>
<polygon fill="white" stroke="white" points="-4,5 -4,-200 223,-200 223,5 -4,5"/>
<!-- Node1 -->
<g id="node1" class="node"><title>Node1</title>
<polygon fill="#bfbfbf" stroke="black" points="0,-0.5 0,-21.5 218,-21.5 218,-0.5 0,-0.5"/>
<text text-anchor="middle" x="109" y="-8.5" font-family="Helvetica,sans-Serif" font-size="10.00">HALLogicalDeviceMotionSensorConnector</text>
</g>
<!-- Node2 -->
<g id="node2" class="node"><title>Node2</title>
<a xlink:href="classHALLogicalSensorConnectorBase.htm" target="_top" xlink:title="HALLogicalSensorConnectorBase">
<polygon fill="white" stroke="black" points="20,-58.5 20,-79.5 198,-79.5 198,-58.5 20,-58.5"/>
<text text-anchor="middle" x="109" y="-66.5" font-family="Helvetica,sans-Serif" font-size="10.00">HALLogicalSensorConnectorBase</text>
</a>
</g>
<!-- Node2&#45;&gt;Node1 -->
<g id="edge2" class="edge"><title>Node2&#45;&gt;Node1</title>
<path fill="none" stroke="midnightblue" d="M109,-48.1906C109,-39.1684 109,-28.9941 109,-21.5707"/>
<polygon fill="midnightblue" stroke="midnightblue" points="105.5,-48.3619 109,-58.3619 112.5,-48.3619 105.5,-48.3619"/>
</g>
<!-- Node3 -->
<g id="node4" class="node"><title>Node3</title>
<a xlink:href="classHALConnectorBase.htm" target="_top" xlink:title="HALConnectorBase">
<polygon fill="white" stroke="black" points="54,-116.5 54,-137.5 164,-137.5 164,-116.5 54,-116.5"/>
<text text-anchor="middle" x="109" y="-124.5" font-family="Helvetica,sans-Serif" font-size="10.00">HALConnectorBase</text>
</a>
</g>
<!-- Node3&#45;&gt;Node2 -->
<g id="edge4" class="edge"><title>Node3&#45;&gt;Node2</title>
<path fill="none" stroke="midnightblue" d="M109,-106.191C109,-97.1684 109,-86.9941 109,-79.5707"/>
<polygon fill="midnightblue" stroke="midnightblue" points="105.5,-106.362 109,-116.362 112.5,-106.362 105.5,-106.362"/>
</g>
<!-- Node4 -->
<g id="node6" class="node"><title>Node4</title>
<a xlink:href="classQObject.htm" target="_top" xlink:title="QObject">
<polygon fill="white" stroke="black" points="81.5,-174.5 81.5,-195.5 136.5,-195.5 136.5,-174.5 81.5,-174.5"/>
<text text-anchor="middle" x="109" y="-182.5" font-family="Helvetica,sans-Serif" font-size="10.00">QObject</text>
</a>
</g>
<!-- Node4&#45;&gt;Node3 -->
<g id="edge6" class="edge"><title>Node4&#45;&gt;Node3</title>
<path fill="none" stroke="midnightblue" d="M109,-164.191C109,-155.168 109,-144.994 109,-137.571"/>
<polygon fill="midnightblue" stroke="midnightblue" points="105.5,-164.362 109,-174.362 112.5,-164.362 105.5,-164.362"/>
</g>
</g>
</svg>
