<?xml version="1.0" encoding="UTF-8" standalone="no"?>
<!DOCTYPE svg PUBLIC "-//W3C//DTD SVG 1.1//EN"
 "http://www.w3.org/Graphics/SVG/1.1/DTD/svg11.dtd">
<!-- Generated by graphviz version 2.26.3 (20100126.1600)
 -->
<!-- Title: G Pages: 1 -->
<svg width="282pt" height="162pt"
 viewBox="0.00 0.00 282.00 162.00" xmlns="http://www.w3.org/2000/svg" xmlns:xlink="http://www.w3.org/1999/xlink">
<g id="graph1" class="graph" transform="scale(1 1) rotate(0) translate(4 158)">
<title>G</title>
<polygon fill="white" stroke="white" points="-4,5 -4,-158 279,-158 279,5 -4,5"/>
<!-- Node1 -->
<g id="node1" class="node"><title>Node1</title>
<polygon fill="#bfbfbf" stroke="black" points="133.5,-0.5 133.5,-21.5 200.5,-21.5 200.5,-0.5 133.5,-0.5"/>
<text text-anchor="middle" x="167" y="-8.5" font-family="Helvetica,sans-Serif" font-size="10.00">InputEvent</text>
</g>
<!-- Node2 -->
<g id="node2" class="node"><title>Node2</title>
<a xlink:href="classEvent.htm" target="_top" xlink:title="Event">
<polygon fill="white" stroke="black" points="65,-72.5 65,-93.5 109,-93.5 109,-72.5 65,-72.5"/>
<text text-anchor="middle" x="87" y="-80.5" font-family="Helvetica,sans-Serif" font-size="10.00">Event</text>
</a>
</g>
<!-- Node2&#45;&gt;Node1 -->
<g id="edge2" class="edge"><title>Node2&#45;&gt;Node1</title>
<path fill="none" stroke="midnightblue" d="M106.612,-65.3488C121.81,-51.6714 142.366,-33.1709 155.147,-21.6674"/>
<polygon fill="midnightblue" stroke="midnightblue" points="103.896,-63.0849 98.8043,-72.3762 108.579,-68.288 103.896,-63.0849"/>
</g>
<!-- Node3 -->
<g id="node4" class="node"><title>Node3</title>
<a xlink:href="classSysMgrEvent.htm" target="_top" xlink:title="SysMgrEvent">
<polygon fill="white" stroke="black" points="0,-132.5 0,-153.5 80,-153.5 80,-132.5 0,-132.5"/>
<text text-anchor="middle" x="40" y="-140.5" font-family="Helvetica,sans-Serif" font-size="10.00">SysMgrEvent</text>
</a>
</g>
<!-- Node3&#45;&gt;Node2 -->
<g id="edge4" class="edge"><title>Node3&#45;&gt;Node2</title>
<path fill="none" stroke="midnightblue" d="M54.5842,-124.382C62.5028,-114.273 72.0072,-102.14 78.6701,-93.6339"/>
<polygon fill="midnightblue" stroke="midnightblue" points="51.814,-122.243 48.4027,-132.273 57.3246,-126.559 51.814,-122.243"/>
</g>
<!-- Node4 -->
<g id="node6" class="node"><title>Node4</title>
<a xlink:href="classRefCounted.htm" target="_top" xlink:title="RefCounted">
<polygon fill="white" stroke="black" points="97.5,-132.5 97.5,-153.5 170.5,-153.5 170.5,-132.5 97.5,-132.5"/>
<text text-anchor="middle" x="134" y="-140.5" font-family="Helvetica,sans-Serif" font-size="10.00">RefCounted</text>
</a>
</g>
<!-- Node4&#45;&gt;Node2 -->
<g id="edge6" class="edge"><title>Node4&#45;&gt;Node2</title>
<path fill="none" stroke="midnightblue" d="M119.416,-124.382C111.497,-114.273 101.993,-102.14 95.3299,-93.6339"/>
<polygon fill="midnightblue" stroke="midnightblue" points="116.675,-126.559 125.597,-132.273 122.186,-122.243 116.675,-126.559"/>
</g>
<!-- Node5 -->
<g id="node8" class="node"><title>Node5</title>
<a xlink:href="classsptr.htm" target="_top" xlink:title="sptr\&lt; Event \&gt;">
<polygon fill="white" stroke="black" points="127,-72.5 127,-93.5 207,-93.5 207,-72.5 127,-72.5"/>
<text text-anchor="middle" x="167" y="-80.5" font-family="Helvetica,sans-Serif" font-size="10.00">sptr&lt; Event &gt;</text>
</a>
</g>
<!-- Node5&#45;&gt;Node1 -->
<g id="edge8" class="edge"><title>Node5&#45;&gt;Node1</title>
<path fill="none" stroke="#9a32cd" stroke-dasharray="5,2" d="M167,-62.2348C167,-48.969 167,-32.3188 167,-21.6674"/>
<polygon fill="#9a32cd" stroke="#9a32cd" points="163.5,-62.3761 167,-72.3762 170.5,-62.3762 163.5,-62.3761"/>
<text text-anchor="middle" x="189" y="-44.5" font-family="Helvetica,sans-Serif" font-size="10.00"> m_event</text>
</g>
<!-- Node6 -->
<g id="node10" class="node"><title>Node6</title>
<a xlink:href="classint.htm" target="_top" xlink:title="int">
<polygon fill="white" stroke="black" points="224.5,-72.5 224.5,-93.5 253.5,-93.5 253.5,-72.5 224.5,-72.5"/>
<text text-anchor="middle" x="239" y="-80.5" font-family="Helvetica,sans-Serif" font-size="10.00">int</text>
</a>
</g>
<!-- Node6&#45;&gt;Node1 -->
<g id="edge10" class="edge"><title>Node6&#45;&gt;Node1</title>
<path fill="none" stroke="#9a32cd" stroke-dasharray="5,2" d="M230.674,-63.2212C226.717,-55.3762 221.432,-46.6576 215,-40 207.829,-32.578 198.367,-26.3303 189.741,-21.557"/>
<polygon fill="#9a32cd" stroke="#9a32cd" points="227.581,-64.8704 234.963,-72.4702 233.931,-61.9256 227.581,-64.8704"/>
<text text-anchor="middle" x="249.5" y="-44.5" font-family="Helvetica,sans-Serif" font-size="10.00"> m_ipcKey</text>
</g>
</g>
</svg>
