<?xml version="1.0" encoding="UTF-8" standalone="no"?>
<!DOCTYPE svg PUBLIC "-//W3C//DTD SVG 1.1//EN"
 "http://www.w3.org/Graphics/SVG/1.1/DTD/svg11.dtd">
<!-- Generated by graphviz version 2.26.3 (20100126.1600)
 -->
<!-- Title: G Pages: 1 -->
<svg width="375pt" height="114pt"
 viewBox="0.00 0.00 375.00 114.00" xmlns="http://www.w3.org/2000/svg" xmlns:xlink="http://www.w3.org/1999/xlink">
<g id="graph1" class="graph" transform="scale(1 1) rotate(0) translate(4 110)">
<title>G</title>
<polygon fill="white" stroke="white" points="-4,5 -4,-110 372,-110 372,5 -4,5"/>
<!-- Node1 -->
<g id="node1" class="node"><title>Node1</title>
<polygon fill="#bfbfbf" stroke="black" points="103.5,-0.5 103.5,-21.5 216.5,-21.5 216.5,-0.5 103.5,-0.5"/>
<text text-anchor="middle" x="160" y="-8.5" font-family="Helvetica,sans-Serif" font-size="10.00">RemoteWindowData</text>
</g>
<!-- Node2 -->
<g id="node2" class="node"><title>Node2</title>
<polygon fill="white" stroke="#bfbfbf" points="0,-84.5 0,-105.5 74,-105.5 74,-84.5 0,-84.5"/>
<text text-anchor="middle" x="37" y="-92.5" font-family="Helvetica,sans-Serif" font-size="10.00">PIpcBuffer *</text>
</g>
<!-- Node2&#45;&gt;Node1 -->
<g id="edge2" class="edge"><title>Node2&#45;&gt;Node1</title>
<path fill="none" stroke="#9a32cd" stroke-dasharray="5,2" d="M39.4763,-73.9604C41.8844,-62.4644 46.6338,-48.8144 56,-40 63.5759,-32.8704 84.1344,-26.4714 104.993,-21.5098"/>
<polygon fill="#9a32cd" stroke="#9a32cd" points="35.9789,-73.6589 37.8105,-84.0942 42.8862,-74.7944 35.9789,-73.6589"/>
<text text-anchor="middle" x="106" y="-57" font-family="Helvetica,sans-Serif" font-size="10.00"> m_metaDataBuffer</text>
<text text-anchor="middle" x="106" y="-44" font-family="Helvetica,sans-Serif" font-size="10.00">m_transitionIpcBuffer</text>
</g>
<!-- Node3 -->
<g id="node4" class="node"><title>Node3</title>
<polygon fill="white" stroke="#bfbfbf" points="142,-84.5 142,-105.5 178,-105.5 178,-84.5 142,-84.5"/>
<text text-anchor="middle" x="160" y="-92.5" font-family="Helvetica,sans-Serif" font-size="10.00">bool</text>
</g>
<!-- Node3&#45;&gt;Node1 -->
<g id="edge4" class="edge"><title>Node3&#45;&gt;Node1</title>
<path fill="none" stroke="#9a32cd" stroke-dasharray="5,2" d="M160,-73.9452C160,-57.2568 160,-34.6387 160,-21.5523"/>
<polygon fill="#9a32cd" stroke="#9a32cd" points="156.5,-74.3613 160,-84.3613 163.5,-74.3614 156.5,-74.3613"/>
<text text-anchor="middle" x="228" y="-50.5" font-family="Helvetica,sans-Serif" font-size="10.00"> m_supportsDirectRendering</text>
</g>
<!-- Node4 -->
<g id="node6" class="node"><title>Node4</title>
<polygon fill="white" stroke="#bfbfbf" points="276,-84.5 276,-105.5 362,-105.5 362,-84.5 276,-84.5"/>
<text text-anchor="middle" x="319" y="-92.5" font-family="Helvetica,sans-Serif" font-size="10.00">PIpcChannel *</text>
</g>
<!-- Node4&#45;&gt;Node1 -->
<g id="edge6" class="edge"><title>Node4&#45;&gt;Node1</title>
<path fill="none" stroke="#9a32cd" stroke-dasharray="5,2" d="M315.703,-74.442C312.757,-62.6895 307.243,-48.6175 297,-40 284.722,-29.6699 248.681,-22.2825 216.648,-17.5496"/>
<polygon fill="#9a32cd" stroke="#9a32cd" points="312.301,-75.2734 317.749,-84.3601 319.157,-73.8592 312.301,-75.2734"/>
<text text-anchor="middle" x="339.5" y="-50.5" font-family="Helvetica,sans-Serif" font-size="10.00"> m_channel</text>
</g>
</g>
</svg>
