<?xml version="1.0" encoding="UTF-8" standalone="no"?>
<!DOCTYPE svg PUBLIC "-//W3C//DTD SVG 1.1//EN"
 "http://www.w3.org/Graphics/SVG/1.1/DTD/svg11.dtd">
<!-- Generated by graphviz version 2.26.3 (20100126.1600)
 -->
<!-- Title: G Pages: 1 -->
<svg width="391pt" height="162pt"
 viewBox="0.00 0.00 391.00 162.00" xmlns="http://www.w3.org/2000/svg" xmlns:xlink="http://www.w3.org/1999/xlink">
<g id="graph1" class="graph" transform="scale(1 1) rotate(0) translate(4 158)">
<title>G</title>
<polygon fill="white" stroke="white" points="-4,5 -4,-158 388,-158 388,5 -4,5"/>
<!-- Node1 -->
<g id="node1" class="node"><title>Node1</title>
<polygon fill="#bfbfbf" stroke="black" points="44.5,-0.5 44.5,-21.5 277.5,-21.5 277.5,-0.5 44.5,-0.5"/>
<text text-anchor="middle" x="161" y="-8.5" font-family="Helvetica,sans-Serif" font-size="10.00">Slot&lt; Receiver, Arg0, Arg1, Arg2, Arg3, Arg4 &gt;</text>
</g>
<!-- Node2 -->
<g id="node2" class="node"><title>Node2</title>
<a xlink:href="classSlotBase.htm" target="_top" xlink:title="SlotBase\&lt; Arg0, Arg1, Arg2, Arg3, Arg4 \&gt;">
<polygon fill="white" stroke="black" points="0,-60.5 0,-81.5 210,-81.5 210,-60.5 0,-60.5"/>
<text text-anchor="middle" x="105" y="-68.5" font-family="Helvetica,sans-Serif" font-size="10.00">SlotBase&lt; Arg0, Arg1, Arg2, Arg3, Arg4 &gt;</text>
</a>
</g>
<!-- Node2&#45;&gt;Node1 -->
<g id="edge2" class="edge"><title>Node2&#45;&gt;Node1</title>
<path fill="none" stroke="midnightblue" d="M122.094,-52.6846C131.585,-42.5161 143.057,-30.2249 151.075,-21.6339"/>
<polygon fill="midnightblue" stroke="midnightblue" points="119.276,-50.5745 115.012,-60.2732 124.394,-55.3507 119.276,-50.5745"/>
</g>
<!-- Node3 -->
<g id="node4" class="node"><title>Node3</title>
<a xlink:href="classFunctionWrapper.htm" target="_top" xlink:title="FunctionWrapper\&lt; void(*)()\&gt;">
<polygon fill="white" stroke="black" points="228,-60.5 228,-81.5 380,-81.5 380,-60.5 228,-60.5"/>
<text text-anchor="middle" x="304" y="-68.5" font-family="Helvetica,sans-Serif" font-size="10.00">FunctionWrapper&lt; void(*)()&gt;</text>
</a>
</g>
<!-- Node3&#45;&gt;Node1 -->
<g id="edge4" class="edge"><title>Node3&#45;&gt;Node1</title>
<path fill="none" stroke="midnightblue" d="M269.427,-56.4937C243.846,-45.7607 209.575,-31.381 186.465,-21.6846"/>
<polygon fill="midnightblue" stroke="midnightblue" points="268.188,-59.7696 278.764,-60.4113 270.897,-53.3148 268.188,-59.7696"/>
</g>
<!-- Node4 -->
<g id="node6" class="node"><title>Node4</title>
<a xlink:href="classvoid_07_5_08_07_08.htm" target="_top" xlink:title="void(*)()">
<polygon fill="white" stroke="black" points="237,-132.5 237,-153.5 293,-153.5 293,-132.5 237,-132.5"/>
<text text-anchor="middle" x="265" y="-140.5" font-family="Helvetica,sans-Serif" font-size="10.00">void(*)()</text>
</a>
</g>
<!-- Node4&#45;&gt;Node3 -->
<g id="edge6" class="edge"><title>Node4&#45;&gt;Node3</title>
<path fill="none" stroke="#9a32cd" stroke-dasharray="5,2" d="M261.898,-122.435C261.68,-115.012 262.539,-106.795 266,-100 269.842,-92.4572 276.655,-86.3212 283.461,-81.6685"/>
<polygon fill="#9a32cd" stroke="#9a32cd" points="258.421,-122.841 262.81,-132.484 265.392,-122.208 258.421,-122.841"/>
<text text-anchor="middle" x="293.5" y="-104.5" font-family="Helvetica,sans-Serif" font-size="10.00"> m_function</text>
</g>
<!-- Node5 -->
<g id="node8" class="node"><title>Node5</title>
<a xlink:href="classTrackable.htm" target="_top" xlink:title="Trackable">
<polygon fill="white" stroke="black" points="311.5,-132.5 311.5,-153.5 374.5,-153.5 374.5,-132.5 311.5,-132.5"/>
<text text-anchor="middle" x="343" y="-140.5" font-family="Helvetica,sans-Serif" font-size="10.00">Trackable</text>
</a>
</g>
<!-- Node5&#45;&gt;Node3 -->
<g id="edge8" class="edge"><title>Node5&#45;&gt;Node3</title>
<path fill="none" stroke="#9a32cd" stroke-dasharray="5,2" d="M333.132,-123.127C329.419,-115.809 325.102,-107.481 321,-100 317.633,-93.8593 313.687,-87.1035 310.445,-81.6584"/>
<polygon fill="#9a32cd" stroke="#9a32cd" points="330.127,-124.943 337.743,-132.308 336.382,-121.801 330.127,-124.943"/>
<text text-anchor="middle" x="355" y="-104.5" font-family="Helvetica,sans-Serif" font-size="10.00"> m_receiver</text>
</g>
</g>
</svg>
