<?xml version="1.0" encoding="UTF-8" standalone="no"?>
<!DOCTYPE svg PUBLIC "-//W3C//DTD SVG 1.1//EN"
 "http://www.w3.org/Graphics/SVG/1.1/DTD/svg11.dtd">
<!-- Generated by graphviz version 2.26.3 (20100126.1600)
 -->
<!-- Title: G Pages: 1 -->
<svg width="745pt" height="230pt"
 viewBox="0.00 0.00 745.00 230.00" xmlns="http://www.w3.org/2000/svg" xmlns:xlink="http://www.w3.org/1999/xlink">
<g id="graph1" class="graph" transform="scale(1 1) rotate(0) translate(4 226)">
<title>G</title>
<polygon fill="white" stroke="white" points="-4,5 -4,-226 742,-226 742,5 -4,5"/>
<!-- Node1 -->
<g id="node1" class="node"><title>Node1</title>
<polygon fill="#bfbfbf" stroke="black" points="399.5,-0.5 399.5,-21.5 554.5,-21.5 554.5,-0.5 399.5,-0.5"/>
<text text-anchor="middle" x="477" y="-8.5" font-family="Helvetica,sans-Serif" font-size="10.00">RemoteWindowDataSoftware</text>
</g>
<!-- Node2 -->
<g id="node2" class="node"><title>Node2</title>
<a xlink:href="classRemoteWindowData.htm" target="_top" xlink:title="RemoteWindowData">
<polygon fill="white" stroke="black" points="158.5,-107.5 158.5,-128.5 271.5,-128.5 271.5,-107.5 158.5,-107.5"/>
<text text-anchor="middle" x="215" y="-115.5" font-family="Helvetica,sans-Serif" font-size="10.00">RemoteWindowData</text>
</a>
</g>
<!-- Node2&#45;&gt;Node1 -->
<g id="edge2" class="edge"><title>Node2&#45;&gt;Node1</title>
<path fill="none" stroke="midnightblue" d="M246.144,-103.155C281.036,-86.7677 339.471,-60.0574 391,-40 408.033,-33.37 427.287,-26.7941 443.253,-21.5846"/>
<polygon fill="midnightblue" stroke="midnightblue" points="244.504,-100.058 236.952,-107.489 247.489,-106.389 244.504,-100.058"/>
</g>
<!-- Node3 -->
<g id="node4" class="node"><title>Node3</title>
<polygon fill="white" stroke="#bfbfbf" points="0,-200.5 0,-221.5 74,-221.5 74,-200.5 0,-200.5"/>
<text text-anchor="middle" x="37" y="-208.5" font-family="Helvetica,sans-Serif" font-size="10.00">PIpcBuffer *</text>
</g>
<!-- Node3&#45;&gt;Node1 -->
<g id="edge14" class="edge"><title>Node3&#45;&gt;Node1</title>
<path fill="none" stroke="#9a32cd" stroke-dasharray="5,2" d="M37.4524,-190.378C38.3086,-179.746 40.3456,-166.783 45,-156 58.0386,-125.793 63.6247,-116.25 91,-98 141.085,-64.6106 303.49,-36.1646 400.962,-21.5413"/>
<polygon fill="#9a32cd" stroke="#9a32cd" points="33.9541,-190.256 36.9272,-200.425 40.9445,-190.621 33.9541,-190.256"/>
<text text-anchor="middle" x="120.5" y="-115.5" font-family="Helvetica,sans-Serif" font-size="10.00"> m_ipcBuffer</text>
</g>
<!-- Node3&#45;&gt;Node2 -->
<g id="edge4" class="edge"><title>Node3&#45;&gt;Node2</title>
<path fill="none" stroke="#9a32cd" stroke-dasharray="5,2" d="M44.1353,-190.855C49.3034,-179.051 57.4299,-164.782 69,-156 83.1867,-145.232 123.505,-135.181 158.186,-128.123"/>
<polygon fill="#9a32cd" stroke="#9a32cd" points="40.7853,-189.808 40.343,-200.393 47.29,-192.394 40.7853,-189.808"/>
<text text-anchor="middle" x="119" y="-173" font-family="Helvetica,sans-Serif" font-size="10.00"> m_metaDataBuffer</text>
<text text-anchor="middle" x="119" y="-160" font-family="Helvetica,sans-Serif" font-size="10.00">m_transitionIpcBuffer</text>
</g>
<!-- Node4 -->
<g id="node6" class="node"><title>Node4</title>
<polygon fill="white" stroke="#bfbfbf" points="312,-200.5 312,-221.5 348,-221.5 348,-200.5 312,-200.5"/>
<text text-anchor="middle" x="330" y="-208.5" font-family="Helvetica,sans-Serif" font-size="10.00">bool</text>
</g>
<!-- Node4&#45;&gt;Node1 -->
<g id="edge16" class="edge"><title>Node4&#45;&gt;Node1</title>
<path fill="none" stroke="#9a32cd" stroke-dasharray="5,2" d="M357.543,-203.598C369.368,-199.128 382.413,-192.254 391,-182 415.851,-152.324 397.268,-132.904 414,-98 428.429,-67.899 453.481,-37.3575 467.246,-21.7081"/>
<polygon fill="#9a32cd" stroke="#9a32cd" points="356.378,-200.297 348.021,-206.809 358.615,-206.93 356.378,-200.297"/>
<text text-anchor="middle" x="461" y="-128.5" font-family="Helvetica,sans-Serif" font-size="10.00"> m_directRendering</text>
<text text-anchor="middle" x="461" y="-115.5" font-family="Helvetica,sans-Serif" font-size="10.00">m_displayOpened</text>
<text text-anchor="middle" x="461" y="-102.5" font-family="Helvetica,sans-Serif" font-size="10.00">m_hasAlpha</text>
</g>
<!-- Node4&#45;&gt;Node2 -->
<g id="edge6" class="edge"><title>Node4&#45;&gt;Node2</title>
<path fill="none" stroke="#9a32cd" stroke-dasharray="5,2" d="M302.089,-204.822C286.922,-200.398 268.553,-193.199 255,-182 237.223,-167.311 224.983,-142.569 219.069,-128.54"/>
<polygon fill="#9a32cd" stroke="#9a32cd" points="301.415,-208.264 311.979,-207.456 303.216,-201.5 301.415,-208.264"/>
<text text-anchor="middle" x="323" y="-166.5" font-family="Helvetica,sans-Serif" font-size="10.00"> m_supportsDirectRendering</text>
</g>
<!-- Node5 -->
<g id="node8" class="node"><title>Node5</title>
<polygon fill="white" stroke="#bfbfbf" points="133,-200.5 133,-221.5 219,-221.5 219,-200.5 133,-200.5"/>
<text text-anchor="middle" x="176" y="-208.5" font-family="Helvetica,sans-Serif" font-size="10.00">PIpcChannel *</text>
</g>
<!-- Node5&#45;&gt;Node2 -->
<g id="edge8" class="edge"><title>Node5&#45;&gt;Node2</title>
<path fill="none" stroke="#9a32cd" stroke-dasharray="5,2" d="M172.785,-190.308C172.005,-179.657 172.454,-166.699 177,-156 181.67,-145.009 191.17,-135.509 199.503,-128.757"/>
<polygon fill="#9a32cd" stroke="#9a32cd" points="169.322,-190.836 173.921,-200.381 176.278,-190.051 169.322,-190.836"/>
<text text-anchor="middle" x="204.5" y="-166.5" font-family="Helvetica,sans-Serif" font-size="10.00"> m_channel</text>
</g>
<!-- Node6 -->
<g id="node10" class="node"><title>Node6</title>
<polygon fill="white" stroke="#bfbfbf" points="517,-107.5 517,-128.5 593,-128.5 593,-107.5 517,-107.5"/>
<text text-anchor="middle" x="555" y="-115.5" font-family="Helvetica,sans-Serif" font-size="10.00">PGSurface *</text>
</g>
<!-- Node6&#45;&gt;Node1 -->
<g id="edge10" class="edge"><title>Node6&#45;&gt;Node1</title>
<path fill="none" stroke="#9a32cd" stroke-dasharray="5,2" d="M541.308,-99.218C524.881,-76.6832 497.91,-39.6839 484.733,-21.6077"/>
<polygon fill="#9a32cd" stroke="#9a32cd" points="538.517,-101.33 547.236,-107.349 544.173,-97.2066 538.517,-101.33"/>
<text text-anchor="middle" x="551" y="-57.5" font-family="Helvetica,sans-Serif" font-size="10.00"> m_surface</text>
</g>
<!-- Node7 -->
<g id="node12" class="node"><title>Node7</title>
<a xlink:href="classint.htm" target="_top" xlink:title="int">
<polygon fill="white" stroke="black" points="610.5,-107.5 610.5,-128.5 639.5,-128.5 639.5,-107.5 610.5,-107.5"/>
<text text-anchor="middle" x="625" y="-115.5" font-family="Helvetica,sans-Serif" font-size="10.00">int</text>
</a>
</g>
<!-- Node7&#45;&gt;Node1 -->
<g id="edge12" class="edge"><title>Node7&#45;&gt;Node1</title>
<path fill="none" stroke="#9a32cd" stroke-dasharray="5,2" d="M618.578,-97.7262C611.93,-79.969 599.839,-54.7592 581,-40 572.442,-33.2952 550.286,-26.7123 528.613,-21.5175"/>
<polygon fill="#9a32cd" stroke="#9a32cd" points="615.359,-99.1261 621.949,-107.422 621.971,-96.8273 615.359,-99.1261"/>
<text text-anchor="middle" x="632" y="-70.5" font-family="Helvetica,sans-Serif" font-size="10.00"> m_width</text>
<text text-anchor="middle" x="632" y="-57.5" font-family="Helvetica,sans-Serif" font-size="10.00">m_height</text>
<text text-anchor="middle" x="632" y="-44.5" font-family="Helvetica,sans-Serif" font-size="10.00">m_pitch</text>
</g>
<!-- Node8 -->
<g id="node16" class="node"><title>Node8</title>
<polygon fill="white" stroke="#bfbfbf" points="656.5,-107.5 656.5,-128.5 733.5,-128.5 733.5,-107.5 656.5,-107.5"/>
<text text-anchor="middle" x="695" y="-115.5" font-family="Helvetica,sans-Serif" font-size="10.00">PGContext *</text>
</g>
<!-- Node8&#45;&gt;Node1 -->
<g id="edge18" class="edge"><title>Node8&#45;&gt;Node1</title>
<path fill="none" stroke="#9a32cd" stroke-dasharray="5,2" d="M690.924,-97.5799C686.2,-79.5108 676.558,-53.9146 658,-40 641.641,-27.7338 596.1,-20.475 554.796,-16.2871"/>
<polygon fill="#9a32cd" stroke="#9a32cd" points="687.544,-98.4967 693.217,-107.445 694.362,-96.9121 687.544,-98.4967"/>
<text text-anchor="middle" x="711" y="-57.5" font-family="Helvetica,sans-Serif" font-size="10.00"> m_context</text>
</g>
</g>
</svg>
