<?xml version="1.0" encoding="UTF-8" standalone="no"?>
<!DOCTYPE svg PUBLIC "-//W3C//DTD SVG 1.1//EN"
 "http://www.w3.org/Graphics/SVG/1.1/DTD/svg11.dtd">
<!-- Generated by graphviz version 2.26.3 (20100126.1600)
 -->
<!-- Title: G Pages: 1 -->
<svg width="592pt" height="470pt"
 viewBox="0.00 0.00 592.00 470.00" xmlns="http://www.w3.org/2000/svg" xmlns:xlink="http://www.w3.org/1999/xlink">
<g id="graph1" class="graph" transform="scale(1 1) rotate(0) translate(4 466)">
<title>G</title>
<polygon fill="white" stroke="white" points="-4,5 -4,-466 589,-466 589,5 -4,5"/>
<!-- Node1 -->
<g id="node1" class="node"><title>Node1</title>
<polygon fill="#bfbfbf" stroke="black" points="376.5,-220.5 376.5,-241.5 433.5,-241.5 433.5,-220.5 376.5,-220.5"/>
<text text-anchor="middle" x="405" y="-228.5" font-family="Helvetica,sans-Serif" font-size="10.00">HostArm</text>
</g>
<!-- Node7 -->
<g id="node13" class="node"><title>Node7</title>
<a xlink:href="classHostArmBroadway.htm" target="_top" xlink:title="HostArmBroadway">
<polygon fill="white" stroke="black" points="475,-440.5 475,-461.5 579,-461.5 579,-440.5 475,-440.5"/>
<text text-anchor="middle" x="527" y="-448.5" font-family="Helvetica,sans-Serif" font-size="10.00">HostArmBroadway</text>
</a>
</g>
<!-- Node1&#45;&gt;Node7 -->
<g id="edge12" class="edge"><title>Node1&#45;&gt;Node7</title>
<path fill="none" stroke="midnightblue" d="M409.238,-251.453C419.045,-296.999 444.425,-404.824 470,-431 473.738,-434.826 478.249,-437.921 483.076,-440.425"/>
<polygon fill="midnightblue" stroke="midnightblue" points="412.634,-250.596 407.139,-241.538 405.786,-252.046 412.634,-250.596"/>
</g>
<!-- Node8 -->
<g id="node15" class="node"><title>Node8</title>
<a xlink:href="classHostArmCastle.htm" target="_top" xlink:title="HostArmCastle">
<polygon fill="white" stroke="black" points="483.5,-400.5 483.5,-421.5 570.5,-421.5 570.5,-400.5 483.5,-400.5"/>
<text text-anchor="middle" x="527" y="-408.5" font-family="Helvetica,sans-Serif" font-size="10.00">HostArmCastle</text>
</a>
</g>
<!-- Node1&#45;&gt;Node8 -->
<g id="edge14" class="edge"><title>Node1&#45;&gt;Node8</title>
<path fill="none" stroke="midnightblue" d="M407.868,-251.731C413.61,-285.517 429.628,-352.538 470,-391 474.024,-394.834 478.825,-397.938 483.909,-400.449"/>
<polygon fill="midnightblue" stroke="midnightblue" points="411.292,-250.978 406.294,-241.636 404.376,-252.056 411.292,-250.978"/>
</g>
<!-- Node9 -->
<g id="node17" class="node"><title>Node9</title>
<a xlink:href="classHostArmChile.htm" target="_top" xlink:title="HostArmChile">
<polygon fill="white" stroke="black" points="486.5,-360.5 486.5,-381.5 567.5,-381.5 567.5,-360.5 486.5,-360.5"/>
<text text-anchor="middle" x="527" y="-368.5" font-family="Helvetica,sans-Serif" font-size="10.00">HostArmChile</text>
</a>
</g>
<!-- Node1&#45;&gt;Node9 -->
<g id="edge16" class="edge"><title>Node1&#45;&gt;Node9</title>
<path fill="none" stroke="midnightblue" d="M410.942,-251.404C419.678,-277.954 438.463,-324.117 470,-351 474.789,-355.082 480.464,-358.349 486.347,-360.959"/>
<polygon fill="midnightblue" stroke="midnightblue" points="414.217,-250.151 407.896,-241.649 407.535,-252.238 414.217,-250.151"/>
</g>
<!-- Node10 -->
<g id="node19" class="node"><title>Node10</title>
<a xlink:href="classHostArmMantaray.htm" target="_top" xlink:title="HostArmMantaray">
<polygon fill="white" stroke="black" points="476,-320.5 476,-341.5 578,-341.5 578,-320.5 476,-320.5"/>
<text text-anchor="middle" x="527" y="-328.5" font-family="Helvetica,sans-Serif" font-size="10.00">HostArmMantaray</text>
</a>
</g>
<!-- Node1&#45;&gt;Node10 -->
<g id="edge18" class="edge"><title>Node1&#45;&gt;Node10</title>
<path fill="none" stroke="midnightblue" d="M416.216,-250.202C427.646,-268.228 446.94,-294.781 470,-311 475.318,-314.741 481.404,-317.843 487.573,-320.396"/>
<polygon fill="midnightblue" stroke="midnightblue" points="419.186,-248.35 410.977,-241.652 413.218,-252.008 419.186,-248.35"/>
</g>
<!-- Node11 -->
<g id="node21" class="node"><title>Node11</title>
<a xlink:href="classHostArmOpal.htm" target="_top" xlink:title="HostArmOpal">
<polygon fill="white" stroke="black" points="487,-280.5 487,-301.5 567,-301.5 567,-280.5 487,-280.5"/>
<text text-anchor="middle" x="527" y="-288.5" font-family="Helvetica,sans-Serif" font-size="10.00">HostArmOpal</text>
</a>
</g>
<!-- Node1&#45;&gt;Node11 -->
<g id="edge20" class="edge"><title>Node1&#45;&gt;Node11</title>
<path fill="none" stroke="midnightblue" d="M428.772,-247.332C440.786,-255.14 455.797,-264.234 470,-271 477.29,-274.473 485.352,-277.666 493.061,-280.433"/>
<polygon fill="midnightblue" stroke="midnightblue" points="430.501,-244.279 420.232,-241.672 426.634,-250.114 430.501,-244.279"/>
</g>
<!-- Node12 -->
<g id="node23" class="node"><title>Node12</title>
<a xlink:href="classHostArmPixie.htm" target="_top" xlink:title="HostArmPixie">
<polygon fill="white" stroke="black" points="487,-240.5 487,-261.5 567,-261.5 567,-240.5 487,-240.5"/>
<text text-anchor="middle" x="527" y="-248.5" font-family="Helvetica,sans-Serif" font-size="10.00">HostArmPixie</text>
</a>
</g>
<!-- Node1&#45;&gt;Node12 -->
<g id="edge22" class="edge"><title>Node1&#45;&gt;Node12</title>
<path fill="none" stroke="midnightblue" d="M443.666,-237.339C457.34,-239.58 472.75,-242.107 486.566,-244.372"/>
<polygon fill="midnightblue" stroke="midnightblue" points="444.038,-233.853 433.604,-235.689 442.906,-240.761 444.038,-233.853"/>
</g>
<!-- Node13 -->
<g id="node25" class="node"><title>Node13</title>
<a xlink:href="classHostArmQemu.htm" target="_top" xlink:title="HostArmQemu">
<polygon fill="white" stroke="black" points="484.5,-200.5 484.5,-221.5 569.5,-221.5 569.5,-200.5 484.5,-200.5"/>
<text text-anchor="middle" x="527" y="-208.5" font-family="Helvetica,sans-Serif" font-size="10.00">HostArmQemu</text>
</a>
</g>
<!-- Node1&#45;&gt;Node13 -->
<g id="edge24" class="edge"><title>Node1&#45;&gt;Node13</title>
<path fill="none" stroke="midnightblue" d="M443.583,-224.675C456.512,-222.555 471.001,-220.18 484.23,-218.011"/>
<polygon fill="midnightblue" stroke="midnightblue" points="442.906,-221.239 433.604,-226.311 444.038,-228.147 442.906,-221.239"/>
</g>
<!-- Node14 -->
<g id="node27" class="node"><title>Node14</title>
<a xlink:href="classHostArmTopaz.htm" target="_top" xlink:title="HostArmTopaz">
<polygon fill="white" stroke="black" points="483.5,-160.5 483.5,-181.5 570.5,-181.5 570.5,-160.5 483.5,-160.5"/>
<text text-anchor="middle" x="527" y="-168.5" font-family="Helvetica,sans-Serif" font-size="10.00">HostArmTopaz</text>
</a>
</g>
<!-- Node1&#45;&gt;Node14 -->
<g id="edge26" class="edge"><title>Node1&#45;&gt;Node14</title>
<path fill="none" stroke="midnightblue" d="M428.772,-214.668C440.786,-206.86 455.797,-197.766 470,-191 477.29,-187.527 485.352,-184.334 493.061,-181.567"/>
<polygon fill="midnightblue" stroke="midnightblue" points="426.634,-211.886 420.232,-220.328 430.501,-217.721 426.634,-211.886"/>
</g>
<!-- Node15 -->
<g id="node29" class="node"><title>Node15</title>
<a xlink:href="classHostArmUnknown.htm" target="_top" xlink:title="HostArmUnknown">
<polygon fill="white" stroke="black" points="476.5,-120.5 476.5,-141.5 577.5,-141.5 577.5,-120.5 476.5,-120.5"/>
<text text-anchor="middle" x="527" y="-128.5" font-family="Helvetica,sans-Serif" font-size="10.00">HostArmUnknown</text>
</a>
</g>
<!-- Node1&#45;&gt;Node15 -->
<g id="edge28" class="edge"><title>Node1&#45;&gt;Node15</title>
<path fill="none" stroke="midnightblue" d="M416.216,-211.798C427.646,-193.772 446.94,-167.219 470,-151 475.318,-147.259 481.404,-144.157 487.573,-141.604"/>
<polygon fill="midnightblue" stroke="midnightblue" points="413.218,-209.992 410.977,-220.348 419.186,-213.65 413.218,-209.992"/>
</g>
<!-- Node16 -->
<g id="node31" class="node"><title>Node16</title>
<a xlink:href="classHostArmWindsor.htm" target="_top" xlink:title="HostArmWindsor">
<polygon fill="white" stroke="black" points="479,-80.5 479,-101.5 575,-101.5 575,-80.5 479,-80.5"/>
<text text-anchor="middle" x="527" y="-88.5" font-family="Helvetica,sans-Serif" font-size="10.00">HostArmWindsor</text>
</a>
</g>
<!-- Node1&#45;&gt;Node16 -->
<g id="edge30" class="edge"><title>Node1&#45;&gt;Node16</title>
<path fill="none" stroke="midnightblue" d="M410.942,-210.596C419.678,-184.046 438.463,-137.883 470,-111 474.469,-107.19 479.711,-104.09 485.173,-101.571"/>
<polygon fill="midnightblue" stroke="midnightblue" points="407.535,-209.762 407.896,-220.351 414.217,-211.849 407.535,-209.762"/>
</g>
<!-- Node17 -->
<g id="node33" class="node"><title>Node17</title>
<a xlink:href="classHostArmWindsorNot.htm" target="_top" xlink:title="HostArmWindsorNot">
<polygon fill="white" stroke="black" points="470.5,-40.5 470.5,-61.5 583.5,-61.5 583.5,-40.5 470.5,-40.5"/>
<text text-anchor="middle" x="527" y="-48.5" font-family="Helvetica,sans-Serif" font-size="10.00">HostArmWindsorNot</text>
</a>
</g>
<!-- Node1&#45;&gt;Node17 -->
<g id="edge32" class="edge"><title>Node1&#45;&gt;Node17</title>
<path fill="none" stroke="midnightblue" d="M407.868,-210.269C413.61,-176.483 429.628,-109.462 470,-71 474.024,-67.166 478.825,-64.0623 483.909,-61.5508"/>
<polygon fill="midnightblue" stroke="midnightblue" points="404.376,-209.944 406.294,-220.364 411.292,-211.022 404.376,-209.944"/>
</g>
<!-- Node18 -->
<g id="node35" class="node"><title>Node18</title>
<a xlink:href="classHostArmZepfloyd.htm" target="_top" xlink:title="HostArmZepfloyd">
<polygon fill="white" stroke="black" points="478,-0.5 478,-21.5 576,-21.5 576,-0.5 478,-0.5"/>
<text text-anchor="middle" x="527" y="-8.5" font-family="Helvetica,sans-Serif" font-size="10.00">HostArmZepfloyd</text>
</a>
</g>
<!-- Node1&#45;&gt;Node18 -->
<g id="edge34" class="edge"><title>Node1&#45;&gt;Node18</title>
<path fill="none" stroke="midnightblue" d="M409.238,-210.547C419.045,-165.001 444.425,-57.1759 470,-31 473.738,-27.1744 478.249,-24.0792 483.076,-21.5754"/>
<polygon fill="midnightblue" stroke="midnightblue" points="405.786,-209.954 407.139,-220.462 412.634,-211.404 405.786,-209.954"/>
</g>
<!-- Node2 -->
<g id="node2" class="node"><title>Node2</title>
<a xlink:href="classHostBase.htm" target="_top" xlink:title="HostBase">
<polygon fill="white" stroke="black" points="244,-240.5 244,-261.5 306,-261.5 306,-240.5 244,-240.5"/>
<text text-anchor="middle" x="275" y="-248.5" font-family="Helvetica,sans-Serif" font-size="10.00">HostBase</text>
</a>
</g>
<!-- Node2&#45;&gt;Node1 -->
<g id="edge2" class="edge"><title>Node2&#45;&gt;Node1</title>
<path fill="none" stroke="midnightblue" d="M316.038,-244.686C335.648,-241.67 358.64,-238.132 376.338,-235.41"/>
<polygon fill="midnightblue" stroke="midnightblue" points="315.49,-241.23 306.138,-246.21 316.554,-248.148 315.49,-241.23"/>
</g>
<!-- Node3 -->
<g id="node4" class="node"><title>Node3</title>
<a xlink:href="classQObject.htm" target="_top" xlink:title="QObject">
<polygon fill="white" stroke="black" points="114.5,-260.5 114.5,-281.5 169.5,-281.5 169.5,-260.5 114.5,-260.5"/>
<text text-anchor="middle" x="142" y="-268.5" font-family="Helvetica,sans-Serif" font-size="10.00">QObject</text>
</a>
</g>
<!-- Node3&#45;&gt;Node2 -->
<g id="edge4" class="edge"><title>Node3&#45;&gt;Node2</title>
<path fill="none" stroke="midnightblue" d="M179.688,-265.333C199.929,-262.289 224.586,-258.581 243.749,-255.699"/>
<polygon fill="midnightblue" stroke="midnightblue" points="178.926,-261.908 169.558,-266.856 179.967,-268.83 178.926,-261.908"/>
</g>
<!-- Node4 -->
<g id="node6" class="node"><title>Node4</title>
<a xlink:href="classTaskBase.htm" target="_top" xlink:title="TaskBase">
<polygon fill="white" stroke="black" points="110,-220.5 110,-241.5 174,-241.5 174,-220.5 110,-220.5"/>
<text text-anchor="middle" x="142" y="-228.5" font-family="Helvetica,sans-Serif" font-size="10.00">TaskBase</text>
</a>
</g>
<!-- Node4&#45;&gt;Node2 -->
<g id="edge6" class="edge"><title>Node4&#45;&gt;Node2</title>
<path fill="none" stroke="midnightblue" d="M184.218,-237.349C203.455,-240.241 225.834,-243.607 243.56,-246.272"/>
<polygon fill="midnightblue" stroke="midnightblue" points="184.605,-233.867 174.196,-235.841 183.564,-240.79 184.605,-233.867"/>
</g>
<!-- Node5 -->
<g id="node8" class="node"><title>Node5</title>
<a xlink:href="classRefCounted.htm" target="_top" xlink:title="RefCounted">
<polygon fill="white" stroke="black" points="0.5,-220.5 0.5,-241.5 73.5,-241.5 73.5,-220.5 0.5,-220.5"/>
<text text-anchor="middle" x="37" y="-228.5" font-family="Helvetica,sans-Serif" font-size="10.00">RefCounted</text>
</a>
</g>
<!-- Node5&#45;&gt;Node4 -->
<g id="edge8" class="edge"><title>Node5&#45;&gt;Node4</title>
<path fill="none" stroke="midnightblue" d="M83.8188,-231C92.5513,-231 101.496,-231 109.671,-231"/>
<polygon fill="midnightblue" stroke="midnightblue" points="83.7239,-227.5 73.7239,-231 83.7239,-234.5 83.7239,-227.5"/>
</g>
<!-- Node6 -->
<g id="node10" class="node"><title>Node6</title>
<a xlink:href="classHALConnectorObserver.htm" target="_top" xlink:title="HALConnectorObserver">
<polygon fill="white" stroke="black" points="210,-200.5 210,-221.5 340,-221.5 340,-200.5 210,-200.5"/>
<text text-anchor="middle" x="275" y="-208.5" font-family="Helvetica,sans-Serif" font-size="10.00">HALConnectorObserver</text>
</a>
</g>
<!-- Node6&#45;&gt;Node1 -->
<g id="edge10" class="edge"><title>Node6&#45;&gt;Node1</title>
<path fill="none" stroke="midnightblue" d="M350.418,-222.603C359.598,-224.015 368.493,-225.384 376.345,-226.592"/>
<polygon fill="midnightblue" stroke="midnightblue" points="350.797,-219.12 340.381,-221.059 349.732,-226.039 350.797,-219.12"/>
</g>
</g>
</svg>
