<?xml version="1.0" encoding="UTF-8" standalone="no"?>
<!DOCTYPE svg PUBLIC "-//W3C//DTD SVG 1.1//EN"
 "http://www.w3.org/Graphics/SVG/1.1/DTD/svg11.dtd">
<!-- Generated by graphviz version 2.26.3 (20100126.1600)
 -->
<!-- Title: G Pages: 1 -->
<svg width="704pt" height="470pt"
 viewBox="0.00 0.00 704.00 470.00" xmlns="http://www.w3.org/2000/svg" xmlns:xlink="http://www.w3.org/1999/xlink">
<g id="graph1" class="graph" transform="scale(1 1) rotate(0) translate(4 466)">
<title>G</title>
<polygon fill="white" stroke="white" points="-4,5 -4,-466 701,-466 701,5 -4,5"/>
<!-- Node1 -->
<g id="node1" class="node"><title>Node1</title>
<polygon fill="#bfbfbf" stroke="black" points="0.5,-210.5 0.5,-231.5 73.5,-231.5 73.5,-210.5 0.5,-210.5"/>
<text text-anchor="middle" x="37" y="-218.5" font-family="Helvetica,sans-Serif" font-size="10.00">RefCounted</text>
</g>
<!-- Node2 -->
<g id="node3" class="node"><title>Node2</title>
<a xlink:href="classEvent.htm" target="_top" xlink:title="Event">
<polygon fill="white" stroke="black" points="127,-290.5 127,-311.5 171,-311.5 171,-290.5 127,-290.5"/>
<text text-anchor="middle" x="149" y="-298.5" font-family="Helvetica,sans-Serif" font-size="10.00">Event</text>
</a>
</g>
<!-- Node1&#45;&gt;Node2 -->
<g id="edge2" class="edge"><title>Node1&#45;&gt;Node2</title>
<path fill="none" stroke="midnightblue" d="M55.9174,-238.463C70.1641,-251.127 90.511,-268.206 110,-281 115.216,-284.424 121.092,-287.707 126.67,-290.587"/>
<polygon fill="midnightblue" stroke="midnightblue" points="58.0572,-235.68 48.2867,-231.583 53.3696,-240.879 58.0572,-235.68"/>
</g>
<!-- Node6 -->
<g id="node11" class="node"><title>Node6</title>
<a xlink:href="classMutex.htm" target="_top" xlink:title="Mutex">
<polygon fill="white" stroke="black" points="126.5,-250.5 126.5,-271.5 171.5,-271.5 171.5,-250.5 126.5,-250.5"/>
<text text-anchor="middle" x="149" y="-258.5" font-family="Helvetica,sans-Serif" font-size="10.00">Mutex</text>
</a>
</g>
<!-- Node1&#45;&gt;Node6 -->
<g id="edge10" class="edge"><title>Node1&#45;&gt;Node6</title>
<path fill="none" stroke="midnightblue" d="M76.0448,-234.945C92.9145,-240.969 112.051,-247.804 126.491,-252.961"/>
<polygon fill="midnightblue" stroke="midnightblue" points="77.0213,-231.577 66.4267,-231.51 74.6669,-238.169 77.0213,-231.577"/>
</g>
<!-- Node7 -->
<g id="node13" class="node"><title>Node7</title>
<a xlink:href="classSoundPlayer.htm" target="_top" xlink:title="SoundPlayer">
<polygon fill="white" stroke="black" points="110.5,-210.5 110.5,-231.5 187.5,-231.5 187.5,-210.5 110.5,-210.5"/>
<text text-anchor="middle" x="149" y="-218.5" font-family="Helvetica,sans-Serif" font-size="10.00">SoundPlayer</text>
</a>
</g>
<!-- Node1&#45;&gt;Node7 -->
<g id="edge12" class="edge"><title>Node1&#45;&gt;Node7</title>
<path fill="none" stroke="midnightblue" d="M83.8295,-214.331C92.6498,-214.174 101.782,-214.245 110.319,-214.545"/>
<polygon fill="midnightblue" stroke="midnightblue" points="83.5691,-210.837 73.673,-214.621 83.7687,-217.834 83.5691,-210.837"/>
</g>
<!-- Node1&#45;&gt;Node7 -->
<g id="edge14" class="edge"><title>Node1&#45;&gt;Node7</title>
<path fill="none" stroke="midnightblue" d="M83.8295,-227.669C92.6498,-227.826 101.782,-227.755 110.319,-227.455"/>
<polygon fill="midnightblue" stroke="midnightblue" points="83.7687,-224.166 73.673,-227.379 83.5691,-231.163 83.7687,-224.166"/>
</g>
<!-- Node8 -->
<g id="node16" class="node"><title>Node8</title>
<a xlink:href="classTaskBase.htm" target="_top" xlink:title="TaskBase">
<polygon fill="white" stroke="black" points="117,-170.5 117,-191.5 181,-191.5 181,-170.5 117,-170.5"/>
<text text-anchor="middle" x="149" y="-178.5" font-family="Helvetica,sans-Serif" font-size="10.00">TaskBase</text>
</a>
</g>
<!-- Node1&#45;&gt;Node8 -->
<g id="edge16" class="edge"><title>Node1&#45;&gt;Node8</title>
<path fill="none" stroke="midnightblue" d="M75.9763,-207.08C90.2193,-201.993 106.086,-196.326 119.381,-191.578"/>
<polygon fill="midnightblue" stroke="midnightblue" points="74.6669,-203.831 66.4267,-210.49 77.0213,-210.423 74.6669,-203.831"/>
</g>
<!-- Node3 -->
<g id="node5" class="node"><title>Node3</title>
<a xlink:href="classInputEvent.htm" target="_top" xlink:title="InputEvent">
<polygon fill="white" stroke="black" points="253.5,-310.5 253.5,-331.5 320.5,-331.5 320.5,-310.5 253.5,-310.5"/>
<text text-anchor="middle" x="287" y="-318.5" font-family="Helvetica,sans-Serif" font-size="10.00">InputEvent</text>
</a>
</g>
<!-- Node2&#45;&gt;Node3 -->
<g id="edge4" class="edge"><title>Node2&#45;&gt;Node3</title>
<path fill="none" stroke="midnightblue" d="M181.192,-305.665C202.84,-308.803 231.322,-312.931 253.281,-316.113"/>
<polygon fill="midnightblue" stroke="midnightblue" points="181.571,-302.184 171.172,-304.213 180.567,-309.112 181.571,-302.184"/>
</g>
<!-- Node4 -->
<g id="node7" class="node"><title>Node4</title>
<a xlink:href="classProcessManagerEvent.htm" target="_top" xlink:title="ProcessManagerEvent">
<polygon fill="white" stroke="black" points="224.5,-270.5 224.5,-291.5 349.5,-291.5 349.5,-270.5 224.5,-270.5"/>
<text text-anchor="middle" x="287" y="-278.5" font-family="Helvetica,sans-Serif" font-size="10.00">ProcessManagerEvent</text>
</a>
</g>
<!-- Node2&#45;&gt;Node4 -->
<g id="edge6" class="edge"><title>Node2&#45;&gt;Node4</title>
<path fill="none" stroke="midnightblue" d="M181.358,-296.31C194.228,-294.445 209.494,-292.233 224.363,-290.078"/>
<polygon fill="midnightblue" stroke="midnightblue" points="180.567,-292.888 171.172,-297.787 181.571,-299.816 180.567,-292.888"/>
</g>
<!-- Node5 -->
<g id="node9" class="node"><title>Node5</title>
<a xlink:href="classProcessManagerLaunchEvent.htm" target="_top" xlink:title="ProcessManagerLaunchEvent">
<polygon fill="white" stroke="black" points="386.5,-270.5 386.5,-291.5 545.5,-291.5 545.5,-270.5 386.5,-270.5"/>
<text text-anchor="middle" x="466" y="-278.5" font-family="Helvetica,sans-Serif" font-size="10.00">ProcessManagerLaunchEvent</text>
</a>
</g>
<!-- Node4&#45;&gt;Node5 -->
<g id="edge8" class="edge"><title>Node4&#45;&gt;Node5</title>
<path fill="none" stroke="midnightblue" d="M359.788,-281C368.567,-281 377.568,-281 386.437,-281"/>
<polygon fill="midnightblue" stroke="midnightblue" points="359.606,-277.5 349.606,-281 359.605,-284.5 359.606,-277.5"/>
</g>
<!-- Node9 -->
<g id="node18" class="node"><title>Node9</title>
<a xlink:href="classHostBase.htm" target="_top" xlink:title="HostBase">
<polygon fill="white" stroke="black" points="256,-180.5 256,-201.5 318,-201.5 318,-180.5 256,-180.5"/>
<text text-anchor="middle" x="287" y="-188.5" font-family="Helvetica,sans-Serif" font-size="10.00">HostBase</text>
</a>
</g>
<!-- Node8&#45;&gt;Node9 -->
<g id="edge18" class="edge"><title>Node8&#45;&gt;Node9</title>
<path fill="none" stroke="midnightblue" d="M191.162,-184.055C211.938,-185.561 236.558,-187.345 255.643,-188.728"/>
<polygon fill="midnightblue" stroke="midnightblue" points="191.234,-180.551 181.007,-183.319 190.728,-187.533 191.234,-180.551"/>
</g>
<!-- Node24 -->
<g id="node48" class="node"><title>Node24</title>
<a xlink:href="classSyncTask.htm" target="_top" xlink:title="SyncTask">
<polygon fill="white" stroke="black" points="255.5,-140.5 255.5,-161.5 318.5,-161.5 318.5,-140.5 255.5,-140.5"/>
<text text-anchor="middle" x="287" y="-148.5" font-family="Helvetica,sans-Serif" font-size="10.00">SyncTask</text>
</a>
</g>
<!-- Node8&#45;&gt;Node24 -->
<g id="edge48" class="edge"><title>Node8&#45;&gt;Node24</title>
<path fill="none" stroke="midnightblue" d="M190.805,-171.912C211.483,-167.417 236.04,-162.078 255.167,-157.92"/>
<polygon fill="midnightblue" stroke="midnightblue" points="190.035,-168.497 181.007,-174.042 191.522,-175.338 190.035,-168.497"/>
</g>
<!-- Node10 -->
<g id="node20" class="node"><title>Node10</title>
<a xlink:href="classHostArm.htm" target="_top" xlink:title="HostArm">
<polygon fill="white" stroke="black" points="437.5,-220.5 437.5,-241.5 494.5,-241.5 494.5,-220.5 437.5,-220.5"/>
<text text-anchor="middle" x="466" y="-228.5" font-family="Helvetica,sans-Serif" font-size="10.00">HostArm</text>
</a>
</g>
<!-- Node9&#45;&gt;Node10 -->
<g id="edge20" class="edge"><title>Node9&#45;&gt;Node10</title>
<path fill="none" stroke="midnightblue" d="M328.095,-200.183C361.48,-207.644 407.717,-217.976 437.247,-224.575"/>
<polygon fill="midnightblue" stroke="midnightblue" points="328.702,-196.733 318.179,-197.967 327.175,-203.564 328.702,-196.733"/>
</g>
<!-- Node23 -->
<g id="node46" class="node"><title>Node23</title>
<a xlink:href="classHostQtDesktop.htm" target="_top" xlink:title="HostQtDesktop">
<polygon fill="white" stroke="black" points="421.5,-180.5 421.5,-201.5 510.5,-201.5 510.5,-180.5 421.5,-180.5"/>
<text text-anchor="middle" x="466" y="-188.5" font-family="Helvetica,sans-Serif" font-size="10.00">HostQtDesktop</text>
</a>
</g>
<!-- Node9&#45;&gt;Node23 -->
<g id="edge46" class="edge"><title>Node9&#45;&gt;Node23</title>
<path fill="none" stroke="midnightblue" d="M328.385,-191C356.237,-191 392.935,-191 421.429,-191"/>
<polygon fill="midnightblue" stroke="midnightblue" points="328.179,-187.5 318.179,-191 328.179,-194.5 328.179,-187.5"/>
</g>
<!-- Node11 -->
<g id="node22" class="node"><title>Node11</title>
<a xlink:href="classHostArmBroadway.htm" target="_top" xlink:title="HostArmBroadway">
<polygon fill="white" stroke="black" points="587,-440.5 587,-461.5 691,-461.5 691,-440.5 587,-440.5"/>
<text text-anchor="middle" x="639" y="-448.5" font-family="Helvetica,sans-Serif" font-size="10.00">HostArmBroadway</text>
</a>
</g>
<!-- Node10&#45;&gt;Node11 -->
<g id="edge22" class="edge"><title>Node10&#45;&gt;Node11</title>
<path fill="none" stroke="midnightblue" d="M504.798,-237.302C519.664,-241.609 535.547,-248.848 546,-261 596.363,-319.551 531.016,-372.989 582,-431 585.392,-434.86 589.574,-437.975 594.119,-440.489"/>
<polygon fill="midnightblue" stroke="midnightblue" points="505.3,-233.819 494.748,-234.763 503.586,-240.606 505.3,-233.819"/>
</g>
<!-- Node12 -->
<g id="node24" class="node"><title>Node12</title>
<a xlink:href="classHostArmCastle.htm" target="_top" xlink:title="HostArmCastle">
<polygon fill="white" stroke="black" points="595.5,-400.5 595.5,-421.5 682.5,-421.5 682.5,-400.5 595.5,-400.5"/>
<text text-anchor="middle" x="639" y="-408.5" font-family="Helvetica,sans-Serif" font-size="10.00">HostArmCastle</text>
</a>
</g>
<!-- Node10&#45;&gt;Node12 -->
<g id="edge24" class="edge"><title>Node10&#45;&gt;Node12</title>
<path fill="none" stroke="midnightblue" d="M504.763,-237.728C519.478,-242.096 535.26,-249.264 546,-261 586.473,-305.229 541.058,-347.205 582,-391 585.796,-395.06 590.463,-398.297 595.478,-400.876"/>
<polygon fill="midnightblue" stroke="midnightblue" points="505.382,-234.272 494.822,-235.13 503.612,-241.045 505.382,-234.272"/>
</g>
<!-- Node13 -->
<g id="node26" class="node"><title>Node13</title>
<a xlink:href="classHostArmChile.htm" target="_top" xlink:title="HostArmChile">
<polygon fill="white" stroke="black" points="598.5,-360.5 598.5,-381.5 679.5,-381.5 679.5,-360.5 598.5,-360.5"/>
<text text-anchor="middle" x="639" y="-368.5" font-family="Helvetica,sans-Serif" font-size="10.00">HostArmChile</text>
</a>
</g>
<!-- Node10&#45;&gt;Node13 -->
<g id="edge26" class="edge"><title>Node10&#45;&gt;Node13</title>
<path fill="none" stroke="midnightblue" d="M504.457,-238.448C518.985,-242.912 534.715,-249.958 546,-261 576.792,-291.13 550.888,-321.2 582,-351 586.62,-355.425 592.274,-358.877 598.208,-361.568"/>
<polygon fill="midnightblue" stroke="midnightblue" points="505.23,-235.031 494.66,-235.752 503.373,-241.78 505.23,-235.031"/>
</g>
<!-- Node14 -->
<g id="node28" class="node"><title>Node14</title>
<a xlink:href="classHostArmMantaray.htm" target="_top" xlink:title="HostArmMantaray">
<polygon fill="white" stroke="black" points="588,-320.5 588,-341.5 690,-341.5 690,-320.5 588,-320.5"/>
<text text-anchor="middle" x="639" y="-328.5" font-family="Helvetica,sans-Serif" font-size="10.00">HostArmMantaray</text>
</a>
</g>
<!-- Node10&#45;&gt;Node14 -->
<g id="edge28" class="edge"><title>Node10&#45;&gt;Node14</title>
<path fill="none" stroke="midnightblue" d="M504.564,-240.394C518.542,-245.051 533.863,-251.72 546,-261 567.753,-277.632 560.071,-294.601 582,-311 587.039,-314.768 592.847,-317.869 598.787,-320.408"/>
<polygon fill="midnightblue" stroke="midnightblue" points="505.275,-236.951 494.688,-237.351 503.213,-243.641 505.275,-236.951"/>
</g>
<!-- Node15 -->
<g id="node30" class="node"><title>Node15</title>
<a xlink:href="classHostArmOpal.htm" target="_top" xlink:title="HostArmOpal">
<polygon fill="white" stroke="black" points="599,-280.5 599,-301.5 679,-301.5 679,-280.5 599,-280.5"/>
<text text-anchor="middle" x="639" y="-288.5" font-family="Helvetica,sans-Serif" font-size="10.00">HostArmOpal</text>
</a>
</g>
<!-- Node10&#45;&gt;Node15 -->
<g id="edge30" class="edge"><title>Node10&#45;&gt;Node15</title>
<path fill="none" stroke="midnightblue" d="M504.297,-244.282C535.72,-255.18 579.61,-270.402 608.643,-280.472"/>
<polygon fill="midnightblue" stroke="midnightblue" points="505.162,-240.878 494.567,-240.908 502.868,-247.491 505.162,-240.878"/>
</g>
<!-- Node16 -->
<g id="node32" class="node"><title>Node16</title>
<a xlink:href="classHostArmPixie.htm" target="_top" xlink:title="HostArmPixie">
<polygon fill="white" stroke="black" points="599,-240.5 599,-261.5 679,-261.5 679,-240.5 599,-240.5"/>
<text text-anchor="middle" x="639" y="-248.5" font-family="Helvetica,sans-Serif" font-size="10.00">HostArmPixie</text>
</a>
</g>
<!-- Node10&#45;&gt;Node16 -->
<g id="edge32" class="edge"><title>Node10&#45;&gt;Node16</title>
<path fill="none" stroke="midnightblue" d="M504.776,-235.483C532.753,-238.717 570.427,-243.072 598.739,-246.346"/>
<polygon fill="midnightblue" stroke="midnightblue" points="504.903,-231.974 494.567,-234.303 504.099,-238.928 504.903,-231.974"/>
</g>
<!-- Node17 -->
<g id="node34" class="node"><title>Node17</title>
<a xlink:href="classHostArmQemu.htm" target="_top" xlink:title="HostArmQemu">
<polygon fill="white" stroke="black" points="596.5,-200.5 596.5,-221.5 681.5,-221.5 681.5,-200.5 596.5,-200.5"/>
<text text-anchor="middle" x="639" y="-208.5" font-family="Helvetica,sans-Serif" font-size="10.00">HostArmQemu</text>
</a>
</g>
<!-- Node10&#45;&gt;Node17 -->
<g id="edge34" class="edge"><title>Node10&#45;&gt;Node17</title>
<path fill="none" stroke="midnightblue" d="M504.522,-226.547C531.781,-223.395 568.337,-219.169 596.454,-215.919"/>
<polygon fill="midnightblue" stroke="midnightblue" points="504.099,-223.072 494.567,-227.697 504.903,-230.026 504.099,-223.072"/>
</g>
<!-- Node18 -->
<g id="node36" class="node"><title>Node18</title>
<a xlink:href="classHostArmTopaz.htm" target="_top" xlink:title="HostArmTopaz">
<polygon fill="white" stroke="black" points="595.5,-160.5 595.5,-181.5 682.5,-181.5 682.5,-160.5 595.5,-160.5"/>
<text text-anchor="middle" x="639" y="-168.5" font-family="Helvetica,sans-Serif" font-size="10.00">HostArmTopaz</text>
</a>
</g>
<!-- Node10&#45;&gt;Node18 -->
<g id="edge36" class="edge"><title>Node10&#45;&gt;Node18</title>
<path fill="none" stroke="midnightblue" d="M504.562,-223.515C517.923,-220.359 532.842,-216.195 546,-211 563.024,-204.278 565.304,-198.501 582,-191 589.557,-187.604 597.878,-184.4 605.772,-181.592"/>
<polygon fill="midnightblue" stroke="midnightblue" points="503.693,-220.123 494.704,-225.731 505.229,-226.952 503.693,-220.123"/>
</g>
<!-- Node19 -->
<g id="node38" class="node"><title>Node19</title>
<a xlink:href="classHostArmUnknown.htm" target="_top" xlink:title="HostArmUnknown">
<polygon fill="white" stroke="black" points="588.5,-120.5 588.5,-141.5 689.5,-141.5 689.5,-120.5 588.5,-120.5"/>
<text text-anchor="middle" x="639" y="-128.5" font-family="Helvetica,sans-Serif" font-size="10.00">HostArmUnknown</text>
</a>
</g>
<!-- Node10&#45;&gt;Node19 -->
<g id="edge38" class="edge"><title>Node10&#45;&gt;Node19</title>
<path fill="none" stroke="midnightblue" d="M504.545,-227.579C518.649,-224.808 534.059,-219.847 546,-211 570.987,-192.486 557.895,-170.649 582,-151 586.633,-147.223 592.029,-144.136 597.618,-141.62"/>
<polygon fill="midnightblue" stroke="midnightblue" points="503.867,-224.144 494.575,-229.235 505.014,-231.05 503.867,-224.144"/>
</g>
<!-- Node20 -->
<g id="node40" class="node"><title>Node20</title>
<a xlink:href="classHostArmWindsor.htm" target="_top" xlink:title="HostArmWindsor">
<polygon fill="white" stroke="black" points="591,-80.5 591,-101.5 687,-101.5 687,-80.5 591,-80.5"/>
<text text-anchor="middle" x="639" y="-88.5" font-family="Helvetica,sans-Serif" font-size="10.00">HostArmWindsor</text>
</a>
</g>
<!-- Node10&#45;&gt;Node20 -->
<g id="edge40" class="edge"><title>Node10&#45;&gt;Node20</title>
<path fill="none" stroke="midnightblue" d="M504.857,-228.887C519.266,-226.298 534.806,-221.121 546,-211 581.038,-179.32 548.464,-144.266 582,-111 585.872,-107.16 590.522,-104.054 595.476,-101.543"/>
<polygon fill="midnightblue" stroke="midnightblue" points="504.048,-225.467 494.644,-230.348 505.039,-232.397 504.048,-225.467"/>
</g>
<!-- Node21 -->
<g id="node42" class="node"><title>Node21</title>
<a xlink:href="classHostArmWindsorNot.htm" target="_top" xlink:title="HostArmWindsorNot">
<polygon fill="white" stroke="black" points="582.5,-40.5 582.5,-61.5 695.5,-61.5 695.5,-40.5 582.5,-40.5"/>
<text text-anchor="middle" x="639" y="-48.5" font-family="Helvetica,sans-Serif" font-size="10.00">HostArmWindsorNot</text>
</a>
</g>
<!-- Node10&#45;&gt;Node21 -->
<g id="edge42" class="edge"><title>Node10&#45;&gt;Node21</title>
<path fill="none" stroke="midnightblue" d="M504.608,-229.55C519.299,-227.085 535.107,-221.821 546,-211 591.581,-165.724 538.56,-118.335 582,-71 585.545,-67.1366 589.88,-64.0194 594.561,-61.5043"/>
<polygon fill="midnightblue" stroke="midnightblue" points="504.152,-226.079 494.689,-230.842 505.057,-233.02 504.152,-226.079"/>
</g>
<!-- Node22 -->
<g id="node44" class="node"><title>Node22</title>
<a xlink:href="classHostArmZepfloyd.htm" target="_top" xlink:title="HostArmZepfloyd">
<polygon fill="white" stroke="black" points="590,-0.5 590,-21.5 688,-21.5 688,-0.5 590,-0.5"/>
<text text-anchor="middle" x="639" y="-8.5" font-family="Helvetica,sans-Serif" font-size="10.00">HostArmZepfloyd</text>
</a>
</g>
<!-- Node10&#45;&gt;Node22 -->
<g id="edge44" class="edge"><title>Node10&#45;&gt;Node22</title>
<path fill="none" stroke="midnightblue" d="M504.574,-229.9C519.406,-227.504 535.324,-222.197 546,-211 602.3,-151.955 528.489,-92.5841 582,-31 585.302,-27.2001 589.369,-24.1221 593.799,-21.6288"/>
<polygon fill="midnightblue" stroke="midnightblue" points="504.057,-226.437 494.558,-231.129 504.909,-233.385 504.057,-226.437"/>
</g>
<!-- Node25 -->
<g id="node50" class="node"><title>Node25</title>
<a xlink:href="classProcessManager.htm" target="_top" xlink:title="ProcessManager">
<polygon fill="white" stroke="black" points="417,-140.5 417,-161.5 515,-161.5 515,-140.5 417,-140.5"/>
<text text-anchor="middle" x="466" y="-148.5" font-family="Helvetica,sans-Serif" font-size="10.00">ProcessManager</text>
</a>
</g>
<!-- Node24&#45;&gt;Node25 -->
<g id="edge50" class="edge"><title>Node24&#45;&gt;Node25</title>
<path fill="none" stroke="midnightblue" d="M328.633,-151C354.98,-151 389.167,-151 416.844,-151"/>
<polygon fill="midnightblue" stroke="midnightblue" points="328.59,-147.5 318.59,-151 328.59,-154.5 328.59,-147.5"/>
</g>
<!-- Node26 -->
<g id="node52" class="node"><title>Node26</title>
<a xlink:href="classWebAppManager.htm" target="_top" xlink:title="WebAppManager">
<polygon fill="white" stroke="black" points="416.5,-100.5 416.5,-121.5 515.5,-121.5 515.5,-100.5 416.5,-100.5"/>
<text text-anchor="middle" x="466" y="-108.5" font-family="Helvetica,sans-Serif" font-size="10.00">WebAppManager</text>
</a>
</g>
<!-- Node24&#45;&gt;Node26 -->
<g id="edge52" class="edge"><title>Node24&#45;&gt;Node26</title>
<path fill="none" stroke="midnightblue" d="M328.508,-141.724C355.531,-135.686 390.843,-127.795 418.914,-121.522"/>
<polygon fill="midnightblue" stroke="midnightblue" points="327.586,-138.344 318.59,-143.941 329.112,-145.176 327.586,-138.344"/>
</g>
</g>
</svg>
