<?xml version="1.0" encoding="UTF-8" standalone="no"?>
<!DOCTYPE svg PUBLIC "-//W3C//DTD SVG 1.1//EN"
 "http://www.w3.org/Graphics/SVG/1.1/DTD/svg11.dtd">
<!-- Generated by graphviz version 2.26.3 (20100126.1600)
 -->
<!-- Title: G Pages: 1 -->
<svg width="753pt" height="140pt"
 viewBox="0.00 0.00 753.00 140.00" xmlns="http://www.w3.org/2000/svg" xmlns:xlink="http://www.w3.org/1999/xlink">
<g id="graph1" class="graph" transform="scale(1 1) rotate(0) translate(4 136)">
<title>G</title>
<polygon fill="white" stroke="white" points="-4,5 -4,-136 750,-136 750,5 -4,5"/>
<!-- Node1 -->
<g id="node1" class="node"><title>Node1</title>
<polygon fill="#bfbfbf" stroke="black" points="120.5,-0.5 120.5,-21.5 245.5,-21.5 245.5,-0.5 120.5,-0.5"/>
<text text-anchor="middle" x="183" y="-8.5" font-family="Helvetica,sans-Serif" font-size="10.00">PageMovementControl</text>
</g>
<!-- Node2 -->
<g id="node2" class="node"><title>Node2</title>
<a xlink:href="classQStateMachine.htm" target="_top" xlink:title="QStateMachine">
<polygon fill="white" stroke="black" points="0,-110.5 0,-131.5 90,-131.5 90,-110.5 0,-110.5"/>
<text text-anchor="middle" x="45" y="-118.5" font-family="Helvetica,sans-Serif" font-size="10.00">QStateMachine</text>
</a>
</g>
<!-- Node2&#45;&gt;Node1 -->
<g id="edge2" class="edge"><title>Node2&#45;&gt;Node1</title>
<path fill="none" stroke="midnightblue" d="M59.5259,-102.479C74.1297,-84.7574 98.0061,-58.1181 123,-40 133.117,-32.6664 145.376,-26.3591 156.17,-21.5175"/>
<polygon fill="midnightblue" stroke="midnightblue" points="56.6998,-100.407 53.1375,-110.385 62.1446,-104.807 56.6998,-100.407"/>
</g>
<!-- Node3 -->
<g id="node4" class="node"><title>Node3</title>
<polygon fill="white" stroke="#bfbfbf" points="108,-110.5 108,-131.5 160,-131.5 160,-110.5 108,-110.5"/>
<text text-anchor="middle" x="134" y="-118.5" font-family="Helvetica,sans-Serif" font-size="10.00">QTimer</text>
</g>
<!-- Node3&#45;&gt;Node1 -->
<g id="edge4" class="edge"><title>Node3&#45;&gt;Node1</title>
<path fill="none" stroke="#9a32cd" stroke-dasharray="5,2" d="M128.99,-100.296C125.981,-83.0096 124.513,-58.323 135,-40 139.546,-32.057 147.225,-26.0371 155.124,-21.5991"/>
<polygon fill="#9a32cd" stroke="#9a32cd" points="125.635,-101.357 131.079,-110.446 132.491,-99.9455 125.635,-101.357"/>
<text text-anchor="middle" x="173" y="-70" font-family="Helvetica,sans-Serif" font-size="10.00"> m_rightTimeout</text>
<text text-anchor="middle" x="173" y="-57" font-family="Helvetica,sans-Serif" font-size="10.00">m_leftTimeout</text>
</g>
<!-- Node4 -->
<g id="node6" class="node"><title>Node4</title>
<polygon fill="white" stroke="#bfbfbf" points="204,-110.5 204,-131.5 262,-131.5 262,-110.5 204,-110.5"/>
<text text-anchor="middle" x="233" y="-118.5" font-family="Helvetica,sans-Serif" font-size="10.00">QState *</text>
</g>
<!-- Node4&#45;&gt;Node1 -->
<g id="edge6" class="edge"><title>Node4&#45;&gt;Node1</title>
<path fill="none" stroke="#9a32cd" stroke-dasharray="5,2" d="M230.32,-100.374C227.439,-83.3188 221.744,-58.9172 211,-40 207.129,-33.1843 201.286,-26.7816 195.937,-21.735"/>
<polygon fill="#9a32cd" stroke="#9a32cd" points="226.878,-101.023 231.831,-110.389 233.8,-99.9788 226.878,-101.023"/>
<text text-anchor="middle" x="333.5" y="-83" font-family="Helvetica,sans-Serif" font-size="10.00"> m_p_pageMovementFSMStateRestrictLeft</text>
<text text-anchor="middle" x="333.5" y="-70" font-family="Helvetica,sans-Serif" font-size="10.00">m_p_pageMovementFSMStateRestrictLR</text>
<text text-anchor="middle" x="333.5" y="-57" font-family="Helvetica,sans-Serif" font-size="10.00">m_p_pageMovementFSMStateRestrictRight</text>
<text text-anchor="middle" x="333.5" y="-44" font-family="Helvetica,sans-Serif" font-size="10.00">m_p_pageMovementFSMStateNoRestriction</text>
</g>
<!-- Node5 -->
<g id="node8" class="node"><title>Node5</title>
<polygon fill="white" stroke="#bfbfbf" points="416,-110.5 416,-131.5 518,-131.5 518,-110.5 416,-110.5"/>
<text text-anchor="middle" x="467" y="-118.5" font-family="Helvetica,sans-Serif" font-size="10.00">static const char *</text>
</g>
<!-- Node5&#45;&gt;Node1 -->
<g id="edge8" class="edge"><title>Node5&#45;&gt;Node1</title>
<path fill="none" stroke="#9a32cd" stroke-dasharray="5,2" d="M466.896,-100.152C465.593,-81.4104 460.499,-54.6471 443,-40 428.154,-27.5739 317.754,-18.836 245.665,-14.3855"/>
<polygon fill="#9a32cd" stroke="#9a32cd" points="463.407,-100.499 467.293,-110.355 470.402,-100.227 463.407,-100.499"/>
<text text-anchor="middle" x="605.5" y="-70" font-family="Helvetica,sans-Serif" font-size="10.00"> PageMovementFSMPropertyName_isPageRightRestricted</text>
<text text-anchor="middle" x="605.5" y="-57" font-family="Helvetica,sans-Serif" font-size="10.00">PageMovementFSMPropertyName_isPageLeftRestricted</text>
</g>
</g>
</svg>
