<?xml version="1.0" encoding="UTF-8" standalone="no"?>
<!DOCTYPE svg PUBLIC "-//W3C//DTD SVG 1.1//EN"
 "http://www.w3.org/Graphics/SVG/1.1/DTD/svg11.dtd">
<!-- Generated by graphviz version 2.26.3 (20100126.1600)
 -->
<!-- Title: G Pages: 1 -->
<svg width="1336pt" height="1922pt"
 viewBox="0.00 0.00 1336.00 1922.13" xmlns="http://www.w3.org/2000/svg" xmlns:xlink="http://www.w3.org/1999/xlink">
<g id="graph1" class="graph" transform="scale(1 1) rotate(0) translate(4 1918.13)">
<title>G</title>
<polygon fill="white" stroke="white" points="-4,5 -4,-1918.13 1333,-1918.13 1333,5 -4,5"/>
<!-- Node1 -->
<g id="node1" class="node"><title>Node1</title>
<polygon fill="#bfbfbf" stroke="black" points="1234,-368.626 1234,-389.626 1328,-389.626 1328,-368.626 1234,-368.626"/>
<text text-anchor="middle" x="1281" y="-376.626" font-family="Helvetica,sans-Serif" font-size="10.00">QuickLaunchBar</text>
</g>
<!-- Node2 -->
<g id="node2" class="node"><title>Node2</title>
<a xlink:href="classThingPaintable.htm" target="_top" xlink:title="ThingPaintable">
<polygon fill="white" stroke="black" points="479.5,-1328.63 479.5,-1349.63 566.5,-1349.63 566.5,-1328.63 479.5,-1328.63"/>
<text text-anchor="middle" x="523" y="-1336.63" font-family="Helvetica,sans-Serif" font-size="10.00">ThingPaintable</text>
</a>
</g>
<!-- Node2&#45;&gt;Node1 -->
<g id="edge2" class="edge"><title>Node2&#45;&gt;Node1</title>
<path fill="none" stroke="midnightblue" d="M556.649,-1353.39C616.866,-1376.55 745.233,-1414.99 836,-1365.13 1227.76,-1149.91 1275.71,-482.642 1280.52,-389.872"/>
<polygon fill="midnightblue" stroke="midnightblue" points="557.831,-1350.1 547.244,-1349.68 555.263,-1356.61 557.831,-1350.1"/>
</g>
<!-- Node17 -->
<g id="node33" class="node"><title>Node17</title>
<a xlink:href="classIconBase.htm" target="_top" xlink:title="IconBase">
<polygon fill="white" stroke="black" points="921.5,-900.626 921.5,-921.626 982.5,-921.626 982.5,-900.626 921.5,-900.626"/>
<text text-anchor="middle" x="952" y="-908.626" font-family="Helvetica,sans-Serif" font-size="10.00">IconBase</text>
</a>
</g>
<!-- Node2&#45;&gt;Node17 -->
<g id="edge36" class="edge"><title>Node2&#45;&gt;Node17</title>
<path fill="none" stroke="midnightblue" d="M576.716,-1347.51C655.368,-1358.53 796.793,-1373.19 836,-1343.13 906.865,-1288.78 944.029,-983.38 950.846,-921.907"/>
<polygon fill="midnightblue" stroke="midnightblue" points="576.911,-1344 566.517,-1346.05 575.921,-1350.93 576.911,-1344"/>
</g>
<!-- Node3 -->
<g id="node4" class="node"><title>Node3</title>
<a xlink:href="classThing.htm" target="_top" xlink:title="Thing">
<polygon fill="white" stroke="black" points="237,-1301.63 237,-1322.63 281,-1322.63 281,-1301.63 237,-1301.63"/>
<text text-anchor="middle" x="259" y="-1309.63" font-family="Helvetica,sans-Serif" font-size="10.00">Thing</text>
</a>
</g>
<!-- Node3&#45;&gt;Node2 -->
<g id="edge4" class="edge"><title>Node3&#45;&gt;Node2</title>
<path fill="none" stroke="midnightblue" d="M291.466,-1314.3C325.527,-1316.7 380.599,-1320.92 428,-1326.13 444.713,-1327.96 463.025,-1330.37 479.074,-1332.62"/>
<polygon fill="midnightblue" stroke="midnightblue" points="291.401,-1310.79 281.182,-1313.58 290.915,-1317.77 291.401,-1310.79"/>
</g>
<!-- Node4 -->
<g id="node6" class="node"><title>Node4</title>
<a xlink:href="classQGraphicsObject.htm" target="_top" xlink:title="QGraphicsObject">
<polygon fill="white" stroke="black" points="3,-1321.63 3,-1342.63 101,-1342.63 101,-1321.63 3,-1321.63"/>
<text text-anchor="middle" x="52" y="-1329.63" font-family="Helvetica,sans-Serif" font-size="10.00">QGraphicsObject</text>
</a>
</g>
<!-- Node4&#45;&gt;Node3 -->
<g id="edge6" class="edge"><title>Node4&#45;&gt;Node3</title>
<path fill="none" stroke="midnightblue" d="M111.177,-1326.41C153.163,-1322.35 207.148,-1317.14 236.884,-1314.26"/>
<polygon fill="midnightblue" stroke="midnightblue" points="110.673,-1322.94 101.056,-1327.39 111.346,-1329.91 110.673,-1322.94"/>
</g>
<!-- Node5 -->
<g id="node8" class="node"><title>Node5</title>
<polygon fill="white" stroke="#bfbfbf" points="0,-1281.63 0,-1302.63 104,-1302.63 104,-1281.63 0,-1281.63"/>
<text text-anchor="middle" x="52" y="-1289.63" font-family="Helvetica,sans-Serif" font-size="10.00">QPointer&lt; Thing &gt;</text>
</g>
<!-- Node5&#45;&gt;Node3 -->
<g id="edge8" class="edge"><title>Node5&#45;&gt;Node3</title>
<path fill="none" stroke="#9a32cd" stroke-dasharray="5,2" d="M114.129,-1291.36C144.428,-1291.86 181.302,-1293.77 214,-1299.13 221.544,-1300.36 229.615,-1302.44 236.809,-1304.58"/>
<polygon fill="#9a32cd" stroke="#9a32cd" points="114.163,-1287.86 104.122,-1291.24 114.079,-1294.86 114.163,-1287.86"/>
<text text-anchor="middle" x="168" y="-1303.13" font-family="Helvetica,sans-Serif" font-size="10.00"> m_qp_takerOwner</text>
</g>
<!-- Node6 -->
<g id="node10" class="node"><title>Node6</title>
<polygon fill="white" stroke="#bfbfbf" points="232.5,-812.626 232.5,-833.626 285.5,-833.626 285.5,-812.626 232.5,-812.626"/>
<text text-anchor="middle" x="259" y="-820.626" font-family="Helvetica,sans-Serif" font-size="10.00">QString</text>
</g>
<!-- Node6&#45;&gt;Node2 -->
<g id="edge10" class="edge"><title>Node6&#45;&gt;Node2</title>
<path fill="none" stroke="#9a32cd" stroke-dasharray="5,2" d="M276.403,-841.574C312.324,-880.962 394.142,-977.736 428,-1076.13 445.619,-1127.33 411.312,-1277.55 446,-1319.13 454.229,-1328.99 466.641,-1334.32 479.11,-1337.12"/>
<polygon fill="#9a32cd" stroke="#9a32cd" points="278.823,-839.035 269.468,-834.06 273.679,-843.783 278.823,-839.035"/>
<text text-anchor="middle" x="366" y="-1080.13" font-family="Helvetica,sans-Serif" font-size="10.00"> m_uiState</text>
</g>
<!-- Node6&#45;&gt;Node17 -->
<g id="edge52" class="edge"><title>Node6&#45;&gt;Node17</title>
<path fill="none" stroke="#9a32cd" stroke-dasharray="5,2" d="M287.661,-808.036C323.522,-790.087 387.364,-761.165 446,-750.126 513.263,-737.462 531.667,-746.229 600,-750.126 652.701,-753.13 789.316,-752.488 836,-777.126 891.514,-806.423 932.214,-874.119 946.457,-900.412"/>
<polygon fill="#9a32cd" stroke="#9a32cd" points="286.073,-804.917 278.741,-812.565 289.242,-811.159 286.073,-804.917"/>
<text text-anchor="middle" x="523" y="-754.126" font-family="Helvetica,sans-Serif" font-size="10.00"> m_iconLabel</text>
</g>
<!-- Node7 -->
<g id="node12" class="node"><title>Node7</title>
<polygon fill="white" stroke="#bfbfbf" points="232.5,-1014.63 232.5,-1035.63 285.5,-1035.63 285.5,-1014.63 232.5,-1014.63"/>
<text text-anchor="middle" x="259" y="-1022.63" font-family="Helvetica,sans-Serif" font-size="10.00">QRectF</text>
</g>
<!-- Node7&#45;&gt;Node2 -->
<g id="edge12" class="edge"><title>Node7&#45;&gt;Node2</title>
<path fill="none" stroke="#9a32cd" stroke-dasharray="5,2" d="M272.163,-1044.08C301.425,-1086.5 373.587,-1192.61 428,-1285.13 436.668,-1299.86 432.588,-1308.52 446,-1319.13 455.534,-1326.66 467.612,-1331.38 479.359,-1334.33"/>
<polygon fill="#9a32cd" stroke="#9a32cd" points="275.005,-1042.04 266.438,-1035.8 269.247,-1046.02 275.005,-1042.04"/>
<text text-anchor="middle" x="366" y="-1302.13" font-family="Helvetica,sans-Serif" font-size="10.00"> m_boundingRect</text>
<text text-anchor="middle" x="366" y="-1289.13" font-family="Helvetica,sans-Serif" font-size="10.00">m_geom</text>
</g>
<!-- Node7&#45;&gt;Node17 -->
<g id="edge50" class="edge"><title>Node7&#45;&gt;Node17</title>
<path fill="none" stroke="#9a32cd" stroke-dasharray="5,2" d="M262.701,-1003.99C269.409,-968.353 284.69,-898.761 304,-884.126 398.22,-812.717 718.728,-868.164 836,-883.126 865.387,-886.875 898.139,-895.172 921.326,-901.767"/>
<polygon fill="#9a32cd" stroke="#9a32cd" points="259.18,-1003.79 260.829,-1014.25 266.066,-1005.04 259.18,-1003.79"/>
<text text-anchor="middle" x="523" y="-857.126" font-family="Helvetica,sans-Serif" font-size="10.00"> m_alignmentGeomPrecomputed</text>
</g>
<!-- Node8 -->
<g id="node14" class="node"><title>Node8</title>
<a xlink:href="classint.htm" target="_top" xlink:title="int">
<polygon fill="white" stroke="black" points="244.5,-1375.63 244.5,-1396.63 273.5,-1396.63 273.5,-1375.63 244.5,-1375.63"/>
<text text-anchor="middle" x="259" y="-1383.63" font-family="Helvetica,sans-Serif" font-size="10.00">int</text>
</a>
</g>
<!-- Node8&#45;&gt;Node1 -->
<g id="edge32" class="edge"><title>Node8&#45;&gt;Node1</title>
<path fill="none" stroke="#9a32cd" stroke-dasharray="5,2" d="M263.312,-1406.71C277.505,-1469.27 328.718,-1658.76 446,-1756.13 653.968,-1928.77 805.339,-1942.01 1050,-1827.13 1154.56,-1778.02 1173.97,-1734.73 1216,-1627.13 1263.61,-1505.24 1279.21,-504.75 1280.85,-389.863"/>
<polygon fill="#9a32cd" stroke="#9a32cd" points="266.713,-1405.88 261.15,-1396.86 259.876,-1407.38 266.713,-1405.88"/>
<text text-anchor="middle" x="727" y="-1905.13" font-family="Helvetica,sans-Serif" font-size="10.00"> m_wavePos</text>
</g>
<!-- Node8&#45;&gt;Node2 -->
<g id="edge14" class="edge"><title>Node8&#45;&gt;Node2</title>
<path fill="none" stroke="#9a32cd" stroke-dasharray="5,2" d="M274.099,-1367.81C282.048,-1359.58 292.521,-1350.7 304,-1346.13 361.245,-1323.31 433.738,-1326.57 479.257,-1332.03"/>
<polygon fill="#9a32cd" stroke="#9a32cd" points="271.402,-1365.58 267.301,-1375.35 276.599,-1370.27 271.402,-1365.58"/>
<text text-anchor="middle" x="366" y="-1363.13" font-family="Helvetica,sans-Serif" font-size="10.00"> MagicTypePropertyValue</text>
<text text-anchor="middle" x="366" y="-1350.13" font-family="Helvetica,sans-Serif" font-size="10.00">MagicTypePropertyKey</text>
</g>
<!-- Node8&#45;&gt;Node17 -->
<g id="edge64" class="edge"><title>Node8&#45;&gt;Node17</title>
<path fill="none" stroke="#9a32cd" stroke-dasharray="5,2" d="M283.973,-1386.94C389.146,-1390.16 792.612,-1400.11 836,-1365.13 908.991,-1306.28 944.583,-985.343 950.949,-921.99"/>
<polygon fill="#9a32cd" stroke="#9a32cd" points="283.801,-1383.44 273.696,-1386.62 283.581,-1390.43 283.801,-1383.44"/>
<text text-anchor="middle" x="523" y="-1420.13" font-family="Helvetica,sans-Serif" font-size="10.00"> m_minProgressValue</text>
<text text-anchor="middle" x="523" y="-1407.13" font-family="Helvetica,sans-Serif" font-size="10.00">m_maxProgressValue</text>
<text text-anchor="middle" x="523" y="-1394.13" font-family="Helvetica,sans-Serif" font-size="10.00">m_lastProgressValue</text>
</g>
<!-- Node9 -->
<g id="node16" class="node"><title>Node9</title>
<polygon fill="white" stroke="#bfbfbf" points="462.5,-1725.63 462.5,-1746.63 583.5,-1746.63 583.5,-1725.63 462.5,-1725.63"/>
<text text-anchor="middle" x="523" y="-1733.63" font-family="Helvetica,sans-Serif" font-size="10.00">QPointer&lt; IconBase &gt;</text>
</g>
<!-- Node9&#45;&gt;Node1 -->
<g id="edge16" class="edge"><title>Node9&#45;&gt;Node1</title>
<path fill="none" stroke="#9a32cd" stroke-dasharray="5,2" d="M557.393,-1750.34C646.16,-1784.62 887.377,-1862.22 1050,-1767.13 1179.87,-1691.19 1173.56,-1616.46 1216,-1472.13 1248.21,-1362.59 1277.21,-496 1280.66,-389.784"/>
<polygon fill="#9a32cd" stroke="#9a32cd" points="558.653,-1747.08 548.065,-1746.68 556.095,-1753.6 558.653,-1747.08"/>
<text text-anchor="middle" x="952" y="-1816.13" font-family="Helvetica,sans-Serif" font-size="10.00"> m_qp_iconInMotion</text>
</g>
<!-- Node9&#45;&gt;Node17 -->
<g id="edge38" class="edge"><title>Node9&#45;&gt;Node17</title>
<path fill="none" stroke="#9a32cd" stroke-dasharray="5,2" d="M593.967,-1737.39C665.948,-1734.57 775.163,-1718.22 836,-1650.13 938.101,-1535.85 950.536,-1004.23 951.856,-921.86"/>
<polygon fill="#9a32cd" stroke="#9a32cd" points="593.513,-1733.91 583.627,-1737.72 593.732,-1740.9 593.513,-1733.91"/>
<text text-anchor="middle" x="727" y="-1739.13" font-family="Helvetica,sans-Serif" font-size="10.00"> m_qp_masterIcon</text>
</g>
<!-- Node10 -->
<g id="node18" class="node"><title>Node10</title>
<polygon fill="white" stroke="#bfbfbf" points="452.5,-1590.63 452.5,-1611.63 593.5,-1611.63 593.5,-1590.63 452.5,-1590.63"/>
<text text-anchor="middle" x="523" y="-1598.63" font-family="Helvetica,sans-Serif" font-size="10.00">QPointer&lt; PixmapObject &gt;</text>
</g>
<!-- Node10&#45;&gt;Node1 -->
<g id="edge18" class="edge"><title>Node10&#45;&gt;Node1</title>
<path fill="none" stroke="#9a32cd" stroke-dasharray="5,2" d="M533.138,-1620.84C547.809,-1646.94 577.682,-1691.78 618,-1710.13 661.697,-1730.01 1011.28,-1731.5 1050,-1703.13 1229.04,-1571.95 1170.28,-1449.32 1216,-1232.13 1252.25,-1059.9 1277.09,-475.48 1280.58,-389.678"/>
<polygon fill="#9a32cd" stroke="#9a32cd" points="536.109,-1618.98 528.269,-1611.85 529.954,-1622.31 536.109,-1618.98"/>
<text text-anchor="middle" x="952" y="-1754.13" font-family="Helvetica,sans-Serif" font-size="10.00"> m_qp_currentBg</text>
<text text-anchor="middle" x="952" y="-1741.13" font-family="Helvetica,sans-Serif" font-size="10.00">m_qp_backgroundSolid</text>
<text text-anchor="middle" x="952" y="-1728.13" font-family="Helvetica,sans-Serif" font-size="10.00">m_qp_backgroundTranslucent</text>
</g>
<!-- Node10&#45;&gt;Node17 -->
<g id="edge42" class="edge"><title>Node10&#45;&gt;Node17</title>
<path fill="none" stroke="#9a32cd" stroke-dasharray="5,2" d="M586.109,-1585.99C591.242,-1583 595.987,-1579.42 600,-1575.13 621.355,-1552.29 594.262,-1527.47 618,-1507.13 691.975,-1443.73 763.928,-1549.68 836,-1484.13 923.66,-1404.39 947.914,-993.406 951.501,-921.779"/>
<polygon fill="#9a32cd" stroke="#9a32cd" points="584.528,-1582.87 577.167,-1590.49 587.673,-1589.12 584.528,-1582.87"/>
<text text-anchor="middle" x="727" y="-1641.13" font-family="Helvetica,sans-Serif" font-size="10.00"> m_qp_removeDecoratorCurrentStatePixmap</text>
<text text-anchor="middle" x="727" y="-1628.13" font-family="Helvetica,sans-Serif" font-size="10.00">m_qp_deleteDecoratorCurrentStatePixmap</text>
<text text-anchor="middle" x="727" y="-1615.13" font-family="Helvetica,sans-Serif" font-size="10.00">m_qp_deletePressedDecoratorPixmap</text>
<text text-anchor="middle" x="727" y="-1602.13" font-family="Helvetica,sans-Serif" font-size="10.00">m_qp_iconPixmap</text>
<text text-anchor="middle" x="727" y="-1589.13" font-family="Helvetica,sans-Serif" font-size="10.00">m_qp_installStatusDecoratorPixmap</text>
<text text-anchor="middle" x="727" y="-1576.13" font-family="Helvetica,sans-Serif" font-size="10.00">m_qp_iconFeedbackPixmap</text>
<text text-anchor="middle" x="727" y="-1563.13" font-family="Helvetica,sans-Serif" font-size="10.00">m_qp_drDecoratorCurrentlyRenderingPixmap</text>
<text text-anchor="middle" x="727" y="-1550.13" font-family="Helvetica,sans-Serif" font-size="10.00">m_qp_removeDecoratorPixmap</text>
<text text-anchor="middle" x="727" y="-1537.13" font-family="Helvetica,sans-Serif" font-size="10.00">m_qp_prerenderedLabelPixmap</text>
<text text-anchor="middle" x="727" y="-1524.13" font-family="Helvetica,sans-Serif" font-size="10.00">m_qp_iconFramePixmap</text>
<text text-anchor="middle" x="727" y="-1511.13" font-family="Helvetica,sans-Serif" font-size="10.00">...</text>
</g>
<!-- Node11 -->
<g id="node20" class="node"><title>Node11</title>
<polygon fill="white" stroke="#bfbfbf" points="880.5,-345.626 880.5,-366.626 1023.5,-366.626 1023.5,-345.626 880.5,-345.626"/>
<text text-anchor="middle" x="952" y="-353.626" font-family="Helvetica,sans-Serif" font-size="10.00">QPointer&lt; Quicklauncher &gt;</text>
</g>
<!-- Node11&#45;&gt;Node1 -->
<g id="edge20" class="edge"><title>Node11&#45;&gt;Node1</title>
<path fill="none" stroke="#9a32cd" stroke-dasharray="5,2" d="M1034.09,-361.865C1097.04,-366.265 1181.68,-372.182 1233.73,-375.821"/>
<polygon fill="#9a32cd" stroke="#9a32cd" points="1034.01,-358.351 1023.79,-361.145 1033.53,-365.334 1034.01,-358.351"/>
<text text-anchor="middle" x="1142" y="-378.126" font-family="Helvetica,sans-Serif" font-size="10.00"> m_qp_ownerWindow</text>
</g>
<!-- Node12 -->
<g id="node22" class="node"><title>Node12</title>
<polygon fill="white" stroke="#bfbfbf" points="926,-305.626 926,-326.626 978,-326.626 978,-305.626 926,-305.626"/>
<text text-anchor="middle" x="952" y="-313.626" font-family="Helvetica,sans-Serif" font-size="10.00">QTimer</text>
</g>
<!-- Node12&#45;&gt;Node1 -->
<g id="edge22" class="edge"><title>Node12&#45;&gt;Node1</title>
<path fill="none" stroke="#9a32cd" stroke-dasharray="5,2" d="M988.374,-316.518C1040.02,-317.939 1137.08,-323.817 1216,-347.126 1233.01,-352.149 1251,-361.346 1263.73,-368.596"/>
<polygon fill="#9a32cd" stroke="#9a32cd" points="988.146,-313.012 978.067,-316.278 987.983,-320.01 988.146,-313.012"/>
<text text-anchor="middle" x="1142" y="-351.126" font-family="Helvetica,sans-Serif" font-size="10.00"> m_feedbackTimer</text>
</g>
<!-- Node13 -->
<g id="node24" class="node"><title>Node13</title>
<polygon fill="white" stroke="#bfbfbf" points="504,-1544.63 504,-1565.63 542,-1565.63 542,-1544.63 504,-1544.63"/>
<text text-anchor="middle" x="523" y="-1552.63" font-family="Helvetica,sans-Serif" font-size="10.00">char</text>
</g>
<!-- Node13&#45;&gt;Node1 -->
<g id="edge24" class="edge"><title>Node13&#45;&gt;Node1</title>
<path fill="none" stroke="#9a32cd" stroke-dasharray="5,2" d="M552.395,-1557.77C568.775,-1560.82 588.19,-1567.31 600,-1581.13 630.772,-1617.11 581.802,-1655.61 618,-1686.13 655.036,-1717.35 794.412,-1710.97 836,-1686.13 1141.91,-1503.37 1110.44,-1320.47 1216,-980.126 1252.22,-863.348 1276.35,-461.283 1280.4,-389.98"/>
<polygon fill="#9a32cd" stroke="#9a32cd" points="552.592,-1554.26 542.181,-1556.23 551.545,-1561.19 552.592,-1554.26"/>
<text text-anchor="middle" x="952" y="-1690.13" font-family="Helvetica,sans-Serif" font-size="10.00"> TouchFSMPropertyName_isTracking</text>
<text text-anchor="middle" x="952" y="-1677.13" font-family="Helvetica,sans-Serif" font-size="10.00">TouchFSMProperyName_trackedId</text>
</g>
<!-- Node13&#45;&gt;Node17 -->
<g id="edge54" class="edge"><title>Node13&#45;&gt;Node17</title>
<path fill="none" stroke="#9a32cd" stroke-dasharray="5,2" d="M534.161,-1535.64C549.62,-1510.52 579.991,-1467.45 618,-1445.13 703.309,-1395.03 765.026,-1469.05 836,-1400.13 908.454,-1329.77 944.727,-986.777 951.007,-921.771"/>
<polygon fill="#9a32cd" stroke="#9a32cd" points="531.108,-1533.92 528.982,-1544.3 537.117,-1537.51 531.108,-1533.92"/>
<text text-anchor="middle" x="727" y="-1475.13" font-family="Helvetica,sans-Serif" font-size="10.00"> IconLabelPropertyName</text>
<text text-anchor="middle" x="727" y="-1462.13" font-family="Helvetica,sans-Serif" font-size="10.00">IconTransferContextPropertyName</text>
<text text-anchor="middle" x="727" y="-1449.13" font-family="Helvetica,sans-Serif" font-size="10.00">IconLastPageVisitedIndexPropertyName</text>
</g>
<!-- Node14 -->
<g id="node26" class="node"><title>Node14</title>
<polygon fill="white" stroke="#bfbfbf" points="889.5,-265.626 889.5,-286.626 1014.5,-286.626 1014.5,-265.626 889.5,-265.626"/>
<text text-anchor="middle" x="952" y="-273.626" font-family="Helvetica,sans-Serif" font-size="10.00">QPair&lt; qint32, qint32 &gt;</text>
</g>
<!-- Node14&#45;&gt;Node1 -->
<g id="edge26" class="edge"><title>Node14&#45;&gt;Node1</title>
<path fill="none" stroke="#9a32cd" stroke-dasharray="5,2" d="M1024.74,-269.899C1080.2,-268.337 1156.86,-273.249 1216,-304.126 1244.26,-318.879 1265.62,-351.476 1275.29,-368.423"/>
<polygon fill="#9a32cd" stroke="#9a32cd" points="1024.51,-266.405 1014.64,-270.261 1024.76,-273.4 1024.51,-266.405"/>
<text text-anchor="middle" x="1142" y="-308.126" font-family="Helvetica,sans-Serif" font-size="10.00"> m_itemAreaXrange</text>
</g>
<!-- Node15 -->
<g id="node28" class="node"><title>Node15</title>
<polygon fill="white" stroke="#bfbfbf" points="494,-613.626 494,-634.626 552,-634.626 552,-613.626 494,-613.626"/>
<text text-anchor="middle" x="523" y="-621.626" font-family="Helvetica,sans-Serif" font-size="10.00">QState *</text>
</g>
<!-- Node15&#45;&gt;Node1 -->
<g id="edge28" class="edge"><title>Node15&#45;&gt;Node1</title>
<path fill="none" stroke="#9a32cd" stroke-dasharray="5,2" d="M543.21,-606.776C560.028,-591.549 583.761,-568.141 600,-544.126 610.92,-527.976 602.057,-515.345 618,-504.126 657.375,-476.415 1002.29,-476.581 1050,-470.126 1124.46,-460.051 1148.8,-471.734 1216,-438.126 1239.72,-426.264 1261.22,-403.27 1272.57,-389.757"/>
<polygon fill="#9a32cd" stroke="#9a32cd" points="540.724,-604.302 535.572,-613.56 545.373,-609.535 540.724,-604.302"/>
<text text-anchor="middle" x="952" y="-507.126" font-family="Helvetica,sans-Serif" font-size="10.00"> m_p_fsmStateNoTouch</text>
<text text-anchor="middle" x="952" y="-494.126" font-family="Helvetica,sans-Serif" font-size="10.00">m_p_fsmStateTouchMotionTracking</text>
<text text-anchor="middle" x="952" y="-481.126" font-family="Helvetica,sans-Serif" font-size="10.00">m_p_fsmStateTouchStationaryTracking</text>
</g>
<!-- Node15&#45;&gt;Node17 -->
<g id="edge56" class="edge"><title>Node15&#45;&gt;Node17</title>
<path fill="none" stroke="#9a32cd" stroke-dasharray="5,2" d="M552.138,-639.194C570.532,-647.992 595.072,-658.448 618,-664.126 665.203,-675.813 795.689,-655.928 836,-683.126 915.89,-737.028 943.69,-863.372 950.306,-900.616"/>
<polygon fill="#9a32cd" stroke="#9a32cd" points="553.641,-636.032 543.121,-634.778 550.563,-642.319 553.641,-636.032"/>
<text text-anchor="middle" x="727" y="-700.126" font-family="Helvetica,sans-Serif" font-size="10.00"> m_p_stateActive</text>
<text text-anchor="middle" x="727" y="-687.126" font-family="Helvetica,sans-Serif" font-size="10.00">m_p_stateNormal</text>
</g>
<!-- Node16 -->
<g id="node30" class="node"><title>Node16</title>
<polygon fill="white" stroke="#bfbfbf" points="474,-513.626 474,-534.626 572,-534.626 572,-513.626 474,-513.626"/>
<text text-anchor="middle" x="523" y="-521.626" font-family="Helvetica,sans-Serif" font-size="10.00">QStateMachine *</text>
</g>
<!-- Node16&#45;&gt;Node1 -->
<g id="edge30" class="edge"><title>Node16&#45;&gt;Node1</title>
<path fill="none" stroke="#9a32cd" stroke-dasharray="5,2" d="M549.208,-508.556C567.755,-498.339 593.576,-485.695 618,-479.126 804.053,-429.082 859.29,-470.503 1050,-443.126 1124.55,-432.424 1144.45,-432.616 1216,-409.126 1231.71,-403.969 1248.64,-396.073 1261.28,-389.676"/>
<polygon fill="#9a32cd" stroke="#9a32cd" points="547.461,-505.523 540.471,-513.486 550.901,-511.62 547.461,-505.523"/>
<text text-anchor="middle" x="952" y="-457.126" font-family="Helvetica,sans-Serif" font-size="10.00"> m_p_touchFSM</text>
</g>
<!-- Node16&#45;&gt;Node17 -->
<g id="edge58" class="edge"><title>Node16&#45;&gt;Node17</title>
<path fill="none" stroke="#9a32cd" stroke-dasharray="5,2" d="M541.364,-541.923C557.395,-557.754 581,-581.791 600,-604.126 608.639,-614.281 606.345,-621.65 618,-628.126 660.508,-651.742 796.475,-618.797 836,-647.126 925.316,-711.141 946.749,-859.465 951.045,-900.46"/>
<polygon fill="#9a32cd" stroke="#9a32cd" points="543.746,-539.357 534.156,-534.854 538.845,-544.355 543.746,-539.357"/>
<text text-anchor="middle" x="727" y="-651.126" font-family="Helvetica,sans-Serif" font-size="10.00"> m_p_buttonFSM</text>
</g>
<!-- Node17&#45;&gt;Node1 -->
<g id="edge34" class="edge"><title>Node17&#45;&gt;Node1</title>
<path fill="none" stroke="#9a32cd" stroke-dasharray="5,2" d="M966.923,-892.323C1009.51,-838.105 1133.85,-675.888 1216,-528.126 1243.57,-478.546 1267.92,-414.968 1277.11,-389.937"/>
<polygon fill="#9a32cd" stroke="#9a32cd" points="964.035,-890.333 960.591,-900.353 969.532,-894.668 964.035,-890.333"/>
<text text-anchor="middle" x="1142" y="-754.126" font-family="Helvetica,sans-Serif" font-size="10.00"> m_iconShowingFeedback</text>
</g>
<!-- Node18 -->
<g id="node37" class="node"><title>Node18</title>
<polygon fill="white" stroke="#bfbfbf" points="501.5,-981.626 501.5,-1002.63 544.5,-1002.63 544.5,-981.626 501.5,-981.626"/>
<text text-anchor="middle" x="523" y="-989.626" font-family="Helvetica,sans-Serif" font-size="10.00">Enum</text>
</g>
<!-- Node18&#45;&gt;Node17 -->
<g id="edge40" class="edge"><title>Node18&#45;&gt;Node17</title>
<path fill="none" stroke="#9a32cd" stroke-dasharray="5,2" d="M554.766,-984.389C568.705,-980.861 585.226,-976.501 600,-972.126 608.086,-969.731 609.759,-967.912 618,-966.126 713.216,-945.489 740.274,-961.252 836,-943.126 865.353,-937.567 898.108,-928.234 921.306,-921.077"/>
<polygon fill="#9a32cd" stroke="#9a32cd" points="553.534,-981.089 544.682,-986.91 555.232,-987.88 553.534,-981.089"/>
<text text-anchor="middle" x="727" y="-970.126" font-family="Helvetica,sans-Serif" font-size="10.00"> m_showWhichDeleteRemove</text>
</g>
<!-- Node19 -->
<g id="node40" class="node"><title>Node19</title>
<polygon fill="white" stroke="#bfbfbf" points="498,-941.626 498,-962.626 548,-962.626 548,-941.626 498,-941.626"/>
<text text-anchor="middle" x="523" y="-949.626" font-family="Helvetica,sans-Serif" font-size="10.00">QColor</text>
</g>
<!-- Node19&#45;&gt;Node17 -->
<g id="edge44" class="edge"><title>Node19&#45;&gt;Node17</title>
<path fill="none" stroke="#9a32cd" stroke-dasharray="5,2" d="M557.877,-942.544C575.723,-938.027 597.873,-933.007 618,-930.126 728.963,-914.24 862.452,-911.508 921.433,-911.125"/>
<polygon fill="#9a32cd" stroke="#9a32cd" points="556.984,-939.16 548.181,-945.056 558.739,-945.936 556.984,-939.16"/>
<text text-anchor="middle" x="727" y="-934.126" font-family="Helvetica,sans-Serif" font-size="10.00"> m_labelColor</text>
</g>
<!-- Node20 -->
<g id="node42" class="node"><title>Node20</title>
<polygon fill="white" stroke="#bfbfbf" points="495.5,-901.626 495.5,-922.626 550.5,-922.626 550.5,-901.626 495.5,-901.626"/>
<text text-anchor="middle" x="523" y="-909.626" font-family="Helvetica,sans-Serif" font-size="10.00">QPointF</text>
</g>
<!-- Node20&#45;&gt;Node17 -->
<g id="edge46" class="edge"><title>Node20&#45;&gt;Node17</title>
<path fill="none" stroke="#9a32cd" stroke-dasharray="5,2" d="M560.437,-903.356C577.832,-899.714 598.86,-895.923 618,-894.126 714.465,-885.067 739.367,-887.082 836,-894.126 865.029,-896.241 897.822,-901.298 921.117,-905.35"/>
<polygon fill="#9a32cd" stroke="#9a32cd" points="559.693,-899.936 550.656,-905.467 561.169,-906.779 559.693,-899.936"/>
<text text-anchor="middle" x="727" y="-898.126" font-family="Helvetica,sans-Serif" font-size="10.00"> m_activePositionOffsetFromPos</text>
</g>
<!-- Node21 -->
<g id="node44" class="node"><title>Node21</title>
<polygon fill="white" stroke="#bfbfbf" points="484.5,-812.626 484.5,-833.626 561.5,-833.626 561.5,-812.626 484.5,-812.626"/>
<text text-anchor="middle" x="523" y="-820.626" font-family="Helvetica,sans-Serif" font-size="10.00">QTextLayout</text>
</g>
<!-- Node21&#45;&gt;Node17 -->
<g id="edge48" class="edge"><title>Node21&#45;&gt;Node17</title>
<path fill="none" stroke="#9a32cd" stroke-dasharray="5,2" d="M571.761,-816.534C634.562,-809.862 746.302,-804.199 836,-833.126 879.422,-847.129 921.628,-882.631 940.986,-900.503"/>
<polygon fill="#9a32cd" stroke="#9a32cd" points="571.29,-813.065 561.739,-817.652 572.066,-820.022 571.29,-813.065"/>
<text text-anchor="middle" x="727" y="-837.126" font-family="Helvetica,sans-Serif" font-size="10.00"> m_textLayoutObject</text>
</g>
<!-- Node22 -->
<g id="node51" class="node"><title>Node22</title>
<polygon fill="white" stroke="#bfbfbf" points="459,-772.626 459,-793.626 587,-793.626 587,-772.626 459,-772.626"/>
<text text-anchor="middle" x="523" y="-780.626" font-family="Helvetica,sans-Serif" font-size="10.00">QPointer&lt; LayoutItem &gt;</text>
</g>
<!-- Node22&#45;&gt;Node17 -->
<g id="edge60" class="edge"><title>Node22&#45;&gt;Node17</title>
<path fill="none" stroke="#9a32cd" stroke-dasharray="5,2" d="M597.485,-779.508C676.287,-776.776 794.821,-776.11 836,-794.126 888.673,-817.17 930.144,-876.154 945.532,-900.436"/>
<polygon fill="#9a32cd" stroke="#9a32cd" points="596.988,-776.023 587.122,-779.887 597.243,-783.019 596.988,-776.023"/>
<text text-anchor="middle" x="727" y="-798.126" font-family="Helvetica,sans-Serif" font-size="10.00"> m_qp_layoutItemAssociation</text>
</g>
<!-- Node23 -->
<g id="node53" class="node"><title>Node23</title>
<polygon fill="white" stroke="#bfbfbf" points="500,-683.626 500,-704.626 546,-704.626 546,-683.626 500,-683.626"/>
<text text-anchor="middle" x="523" y="-691.626" font-family="Helvetica,sans-Serif" font-size="10.00">QFont</text>
</g>
<!-- Node23&#45;&gt;Node17 -->
<g id="edge62" class="edge"><title>Node23&#45;&gt;Node17</title>
<path fill="none" stroke="#9a32cd" stroke-dasharray="5,2" d="M556.15,-701.536C574.339,-705.405 597.332,-709.975 618,-713.126 666.157,-720.466 794.351,-710.86 836,-736.126 901.757,-776.015 937.921,-869.033 948.603,-900.502"/>
<polygon fill="#9a32cd" stroke="#9a32cd" points="556.832,-698.103 546.318,-699.414 555.355,-704.945 556.832,-698.103"/>
<text text-anchor="middle" x="727" y="-740.126" font-family="Helvetica,sans-Serif" font-size="10.00"> s_iconLabelFont</text>
</g>
<!-- Node24 -->
<g id="node56" class="node"><title>Node24</title>
<polygon fill="white" stroke="#bfbfbf" points="502.5,-1288.63 502.5,-1309.63 543.5,-1309.63 543.5,-1288.63 502.5,-1288.63"/>
<text text-anchor="middle" x="523" y="-1296.63" font-family="Helvetica,sans-Serif" font-size="10.00">qreal</text>
</g>
<!-- Node24&#45;&gt;Node17 -->
<g id="edge66" class="edge"><title>Node24&#45;&gt;Node17</title>
<path fill="none" stroke="#9a32cd" stroke-dasharray="5,2" d="M553.903,-1305.06C623.98,-1317.79 792.266,-1343.98 836,-1311.13 902.194,-1261.4 942.784,-980.562 950.61,-921.876"/>
<polygon fill="#9a32cd" stroke="#9a32cd" points="554.386,-1301.59 543.917,-1303.22 553.115,-1308.48 554.386,-1301.59"/>
<text text-anchor="middle" x="727" y="-1330.13" font-family="Helvetica,sans-Serif" font-size="10.00"> m_waveScale</text>
</g>
<!-- Node25 -->
<g id="node58" class="node"><title>Node25</title>
<polygon fill="white" stroke="#bfbfbf" points="505,-452.626 505,-473.626 541,-473.626 541,-452.626 505,-452.626"/>
<text text-anchor="middle" x="523" y="-460.626" font-family="Helvetica,sans-Serif" font-size="10.00">bool</text>
</g>
<!-- Node25&#45;&gt;Node1 -->
<g id="edge76" class="edge"><title>Node25&#45;&gt;Node1</title>
<path fill="none" stroke="#9a32cd" stroke-dasharray="5,2" d="M551.321,-458.596C608.432,-449.595 741.557,-429.276 854,-417.126 1014.44,-399.789 1055.69,-407.63 1216,-389.126 1221.78,-388.458 1227.84,-387.659 1233.84,-386.809"/>
<polygon fill="#9a32cd" stroke="#9a32cd" points="550.581,-455.17 541.252,-460.191 551.676,-462.084 550.581,-455.17"/>
<text text-anchor="middle" x="952" y="-434.126" font-family="Helvetica,sans-Serif" font-size="10.00"> m_fullInitPerformed</text>
<text text-anchor="middle" x="952" y="-421.126" font-family="Helvetica,sans-Serif" font-size="10.00">m_wave</text>
</g>
<!-- Node25&#45;&gt;Node17 -->
<g id="edge68" class="edge"><title>Node25&#45;&gt;Node17</title>
<path fill="none" stroke="#9a32cd" stroke-dasharray="5,2" d="M551.287,-459.341C611.724,-452.941 754.554,-447.053 836,-520.126 851.152,-533.72 932.712,-838.498 949.122,-900.266"/>
<polygon fill="#9a32cd" stroke="#9a32cd" points="550.86,-455.867 541.323,-460.482 551.657,-462.821 550.86,-455.867"/>
<text text-anchor="middle" x="727" y="-615.126" font-family="Helvetica,sans-Serif" font-size="10.00"> m_showFeedback</text>
<text text-anchor="middle" x="727" y="-602.126" font-family="Helvetica,sans-Serif" font-size="10.00">m_canRequestLauncher</text>
<text text-anchor="middle" x="727" y="-589.126" font-family="Helvetica,sans-Serif" font-size="10.00">m_showFrame</text>
<text text-anchor="middle" x="727" y="-576.126" font-family="Helvetica,sans-Serif" font-size="10.00">m_showLabel</text>
<text text-anchor="middle" x="727" y="-563.126" font-family="Helvetica,sans-Serif" font-size="10.00">m_usePrerenderedLabel</text>
<text text-anchor="middle" x="727" y="-550.126" font-family="Helvetica,sans-Serif" font-size="10.00">m_useOwnerSetAutopaintClip</text>
<text text-anchor="middle" x="727" y="-537.126" font-family="Helvetica,sans-Serif" font-size="10.00">m_labelMode</text>
<text text-anchor="middle" x="727" y="-524.126" font-family="Helvetica,sans-Serif" font-size="10.00">m_showIcon</text>
</g>
<!-- Node26 -->
<g id="node60" class="node"><title>Node26</title>
<polygon fill="white" stroke="#bfbfbf" points="499.5,-1156.63 499.5,-1177.63 546.5,-1177.63 546.5,-1156.63 499.5,-1156.63"/>
<text text-anchor="middle" x="523" y="-1164.63" font-family="Helvetica,sans-Serif" font-size="10.00">QRect</text>
</g>
<!-- Node26&#45;&gt;Node17 -->
<g id="edge70" class="edge"><title>Node26&#45;&gt;Node17</title>
<path fill="none" stroke="#9a32cd" stroke-dasharray="5,2" d="M556.935,-1166.63C633.195,-1165.24 813.255,-1160.37 836,-1145.13 917.927,-1090.23 944.375,-959.703 950.477,-921.686"/>
<polygon fill="#9a32cd" stroke="#9a32cd" points="556.829,-1163.13 546.891,-1166.8 556.95,-1170.13 556.829,-1163.13"/>
<text text-anchor="middle" x="727" y="-1298.13" font-family="Helvetica,sans-Serif" font-size="10.00"> m_iconFrameGeom</text>
<text text-anchor="middle" x="727" y="-1285.13" font-family="Helvetica,sans-Serif" font-size="10.00">m_labelMaxGeom</text>
<text text-anchor="middle" x="727" y="-1272.13" font-family="Helvetica,sans-Serif" font-size="10.00">m_iconFeedbackPixmapGeom</text>
<text text-anchor="middle" x="727" y="-1259.13" font-family="Helvetica,sans-Serif" font-size="10.00">m_iconPixmapGeom</text>
<text text-anchor="middle" x="727" y="-1246.13" font-family="Helvetica,sans-Serif" font-size="10.00">m_ownerSetAutopaintClip</text>
<text text-anchor="middle" x="727" y="-1233.13" font-family="Helvetica,sans-Serif" font-size="10.00">m_deleteDecoratorPixmapGeom</text>
<text text-anchor="middle" x="727" y="-1220.13" font-family="Helvetica,sans-Serif" font-size="10.00">m_installStatusDecoratorGeom</text>
<text text-anchor="middle" x="727" y="-1207.13" font-family="Helvetica,sans-Serif" font-size="10.00">m_labelGeom</text>
<text text-anchor="middle" x="727" y="-1194.13" font-family="Helvetica,sans-Serif" font-size="10.00">m_deleteDecoratorGeom</text>
<text text-anchor="middle" x="727" y="-1181.13" font-family="Helvetica,sans-Serif" font-size="10.00">m_iconFramePixmapGeom</text>
<text text-anchor="middle" x="727" y="-1168.13" font-family="Helvetica,sans-Serif" font-size="10.00">...</text>
</g>
<!-- Node27 -->
<g id="node62" class="node"><title>Node27</title>
<polygon fill="white" stroke="#bfbfbf" points="498.5,-1021.63 498.5,-1042.63 547.5,-1042.63 547.5,-1021.63 498.5,-1021.63"/>
<text text-anchor="middle" x="523" y="-1029.63" font-family="Helvetica,sans-Serif" font-size="10.00">QPoint</text>
</g>
<!-- Node27&#45;&gt;Node17 -->
<g id="edge72" class="edge"><title>Node27&#45;&gt;Node17</title>
<path fill="none" stroke="#9a32cd" stroke-dasharray="5,2" d="M557.64,-1025.1C571.108,-1021.86 586.512,-1017.52 600,-1012.13 608.497,-1008.73 609.274,-1004.88 618,-1002.13 710.898,-972.766 743.448,-1009.56 836,-979.126 876.139,-965.928 917.506,-937.4 938.3,-921.817"/>
<polygon fill="#9a32cd" stroke="#9a32cd" points="556.746,-1021.71 547.782,-1027.36 558.311,-1028.54 556.746,-1021.71"/>
<text text-anchor="middle" x="727" y="-1136.13" font-family="Helvetica,sans-Serif" font-size="10.00"> m_labelSrcPrecomputed</text>
<text text-anchor="middle" x="727" y="-1123.13" font-family="Helvetica,sans-Serif" font-size="10.00">m_removeDecoratorSrcPrecomputed</text>
<text text-anchor="middle" x="727" y="-1110.13" font-family="Helvetica,sans-Serif" font-size="10.00">m_deleteDecoratorPosICS</text>
<text text-anchor="middle" x="727" y="-1097.13" font-family="Helvetica,sans-Serif" font-size="10.00">m_deleteDecoratorSrcPrecomputed</text>
<text text-anchor="middle" x="727" y="-1084.13" font-family="Helvetica,sans-Serif" font-size="10.00">m_iconFrameSrcPrecomputed</text>
<text text-anchor="middle" x="727" y="-1071.13" font-family="Helvetica,sans-Serif" font-size="10.00">m_installStatusDecoratorPosICS</text>
<text text-anchor="middle" x="727" y="-1058.13" font-family="Helvetica,sans-Serif" font-size="10.00">m_removeDecoratorPosICS</text>
<text text-anchor="middle" x="727" y="-1045.13" font-family="Helvetica,sans-Serif" font-size="10.00">m_iconPosICS</text>
<text text-anchor="middle" x="727" y="-1032.13" font-family="Helvetica,sans-Serif" font-size="10.00">m_labelPosICS</text>
<text text-anchor="middle" x="727" y="-1019.13" font-family="Helvetica,sans-Serif" font-size="10.00">m_installStatusDecoratorSrcPrecomputed</text>
<text text-anchor="middle" x="727" y="-1006.13" font-family="Helvetica,sans-Serif" font-size="10.00">...</text>
</g>
<!-- Node28 -->
<g id="node64" class="node"><title>Node28</title>
<polygon fill="white" stroke="#bfbfbf" points="870,-225.626 870,-246.626 1034,-246.626 1034,-225.626 870,-225.626"/>
<text text-anchor="middle" x="952" y="-233.626" font-family="Helvetica,sans-Serif" font-size="10.00">QList&lt; QPointer&lt; IconBase &gt; &gt;</text>
</g>
<!-- Node28&#45;&gt;Node1 -->
<g id="edge74" class="edge"><title>Node28&#45;&gt;Node1</title>
<path fill="none" stroke="#9a32cd" stroke-dasharray="5,2" d="M1012.5,-224.119C1069.71,-216.205 1155.54,-213.567 1216,-253.126 1257.61,-280.349 1274.02,-343.061 1279.1,-368.306"/>
<polygon fill="#9a32cd" stroke="#9a32cd" points="1011.9,-220.669 1002.52,-225.593 1012.93,-227.594 1011.9,-220.669"/>
<text text-anchor="middle" x="1142" y="-257.126" font-family="Helvetica,sans-Serif" font-size="10.00"> m_iconItems</text>
</g>
<!-- Node29 -->
<g id="node67" class="node"><title>Node29</title>
<polygon fill="white" stroke="#bfbfbf" points="854,-185.626 854,-206.626 1050,-206.626 1050,-185.626 854,-185.626"/>
<text text-anchor="middle" x="952" y="-193.626" font-family="Helvetica,sans-Serif" font-size="10.00">QPointer&lt; QParallelAnimationGroup &gt;</text>
</g>
<!-- Node29&#45;&gt;Node1 -->
<g id="edge78" class="edge"><title>Node29&#45;&gt;Node1</title>
<path fill="none" stroke="#9a32cd" stroke-dasharray="5,2" d="M1060.3,-187.065C1121.83,-184.187 1191.38,-185.48 1216,-203.126 1244.46,-223.521 1270.96,-333.798 1278.72,-368.598"/>
<polygon fill="#9a32cd" stroke="#9a32cd" points="1059.92,-183.58 1050.11,-187.582 1060.27,-190.571 1059.92,-183.58"/>
<text text-anchor="middle" x="1142" y="-207.126" font-family="Helvetica,sans-Serif" font-size="10.00"> m_qp_reorderAnimationGroup</text>
</g>
<!-- Node30 -->
<g id="node69" class="node"><title>Node30</title>
<polygon fill="white" stroke="#bfbfbf" points="877.5,-145.626 877.5,-166.626 1026.5,-166.626 1026.5,-145.626 877.5,-145.626"/>
<text text-anchor="middle" x="952" y="-153.626" font-family="Helvetica,sans-Serif" font-size="10.00">QMap&lt; int, TouchRegister &gt;</text>
</g>
<!-- Node30&#45;&gt;Node1 -->
<g id="edge80" class="edge"><title>Node30&#45;&gt;Node1</title>
<path fill="none" stroke="#9a32cd" stroke-dasharray="5,2" d="M1036.89,-150.089C1103.34,-147.195 1188.89,-148.087 1216,-169.126 1248.94,-194.687 1273,-329.597 1279.34,-368.573"/>
<polygon fill="#9a32cd" stroke="#9a32cd" points="1036.64,-146.597 1026.82,-150.563 1036.97,-153.589 1036.64,-146.597"/>
<text text-anchor="middle" x="1142" y="-173.126" font-family="Helvetica,sans-Serif" font-size="10.00"> m_touchRegisters</text>
</g>
<!-- Node31 -->
<g id="node71" class="node"><title>Node31</title>
<polygon fill="white" stroke="#bfbfbf" points="929,-95.6255 929,-116.626 975,-116.626 975,-95.6255 929,-95.6255"/>
<text text-anchor="middle" x="952" y="-103.626" font-family="Helvetica,sans-Serif" font-size="10.00">qint32</text>
</g>
<!-- Node31&#45;&gt;Node1 -->
<g id="edge82" class="edge"><title>Node31&#45;&gt;Node1</title>
<path fill="none" stroke="#9a32cd" stroke-dasharray="5,2" d="M985.48,-101.186C1048.43,-92.6782 1181.23,-78.666 1216,-106.126 1258.63,-139.797 1276.31,-321.96 1280.16,-368.364"/>
<polygon fill="#9a32cd" stroke="#9a32cd" points="984.714,-97.7592 975.289,-102.599 985.674,-104.693 984.714,-97.7592"/>
<text text-anchor="middle" x="1142" y="-136.126" font-family="Helvetica,sans-Serif" font-size="10.00"> m_itemsY</text>
<text text-anchor="middle" x="1142" y="-123.126" font-family="Helvetica,sans-Serif" font-size="10.00">sEventCounter0</text>
<text text-anchor="middle" x="1142" y="-110.126" font-family="Helvetica,sans-Serif" font-size="10.00">m_iconInMotionCurrentIndex</text>
</g>
<!-- Node32 -->
<g id="node73" class="node"><title>Node32</title>
<polygon fill="white" stroke="#bfbfbf" points="903,-55.6255 903,-76.6255 1001,-76.6255 1001,-55.6255 903,-55.6255"/>
<text text-anchor="middle" x="952" y="-63.6255" font-family="Helvetica,sans-Serif" font-size="10.00">QList&lt; QPointF &gt;</text>
</g>
<!-- Node32&#45;&gt;Node1 -->
<g id="edge84" class="edge"><title>Node32&#45;&gt;Node1</title>
<path fill="none" stroke="#9a32cd" stroke-dasharray="5,2" d="M1011.19,-59.5277C1079.43,-53.2921 1186.04,-48.1952 1216,-73.1255 1262.97,-112.206 1277.59,-318.968 1280.44,-368.47"/>
<polygon fill="#9a32cd" stroke="#9a32cd" points="1010.63,-56.0654 1001,-60.4931 1011.29,-63.0342 1010.63,-56.0654"/>
<text text-anchor="middle" x="1142" y="-77.1255" font-family="Helvetica,sans-Serif" font-size="10.00"> m_layoutAnchorsCoords</text>
</g>
<!-- Node33 -->
<g id="node75" class="node"><title>Node33</title>
<polygon fill="white" stroke="#bfbfbf" points="876,-15.6255 876,-36.6255 1028,-36.6255 1028,-15.6255 876,-15.6255"/>
<text text-anchor="middle" x="952" y="-23.6255" font-family="Helvetica,sans-Serif" font-size="10.00">QPointer&lt; PixButton2State &gt;</text>
</g>
<!-- Node33&#45;&gt;Node1 -->
<g id="edge86" class="edge"><title>Node33&#45;&gt;Node1</title>
<path fill="none" stroke="#9a32cd" stroke-dasharray="5,2" d="M996.815,-13.0646C1054.78,0.826917 1155.48,14.3062 1216,-38.1255 1267.58,-82.8181 1278.77,-315.364 1280.66,-368.365"/>
<polygon fill="#9a32cd" stroke="#9a32cd" points="995.704,-9.73444 986.853,-15.5571 997.403,-16.5251 995.704,-9.73444"/>
<text text-anchor="middle" x="1142" y="-42.1255" font-family="Helvetica,sans-Serif" font-size="10.00"> m_qp_launcherAccessButton</text>
</g>
</g>
</svg>
