<?xml version="1.0" encoding="UTF-8" standalone="no"?>
<!DOCTYPE svg PUBLIC "-//W3C//DTD SVG 1.1//EN"
 "http://www.w3.org/Graphics/SVG/1.1/DTD/svg11.dtd">
<!-- Generated by graphviz version 2.26.3 (20100126.1600)
 -->
<!-- Title: G Pages: 1 -->
<svg width="938pt" height="154pt"
 viewBox="0.00 0.00 938.00 154.00" xmlns="http://www.w3.org/2000/svg" xmlns:xlink="http://www.w3.org/1999/xlink">
<g id="graph1" class="graph" transform="scale(1 1) rotate(0) translate(4 150)">
<title>G</title>
<polygon fill="white" stroke="white" points="-4,5 -4,-150 935,-150 935,5 -4,5"/>
<!-- Node1 -->
<g id="node1" class="node"><title>Node1</title>
<polygon fill="#bfbfbf" stroke="black" points="457,-0.5 457,-21.5 511,-21.5 511,-0.5 457,-0.5"/>
<text text-anchor="middle" x="484" y="-8.5" font-family="Helvetica,sans-Serif" font-size="10.00">Window</text>
</g>
<!-- Node2 -->
<g id="node2" class="node"><title>Node2</title>
<a xlink:href="classQGraphicsObject.htm" target="_top" xlink:title="QGraphicsObject">
<polygon fill="white" stroke="black" points="0,-124.5 0,-145.5 98,-145.5 98,-124.5 0,-124.5"/>
<text text-anchor="middle" x="49" y="-132.5" font-family="Helvetica,sans-Serif" font-size="10.00">QGraphicsObject</text>
</a>
</g>
<!-- Node2&#45;&gt;Node1 -->
<g id="edge2" class="edge"><title>Node2&#45;&gt;Node1</title>
<path fill="none" stroke="midnightblue" d="M65.9997,-117.128C88.5415,-94.7255 130.671,-57.1836 175,-40 226.118,-20.1845 391.224,-13.5474 456.793,-11.6586"/>
<polygon fill="midnightblue" stroke="midnightblue" points="63.397,-114.783 58.8718,-124.363 68.3834,-119.696 63.397,-114.783"/>
</g>
<!-- Node3 -->
<g id="node4" class="node"><title>Node3</title>
<a xlink:href="classApplicationDescription.htm" target="_top" xlink:title="ApplicationDescription">
<polygon fill="white" stroke="black" points="116,-124.5 116,-145.5 238,-145.5 238,-124.5 116,-124.5"/>
<text text-anchor="middle" x="177" y="-132.5" font-family="Helvetica,sans-Serif" font-size="10.00">ApplicationDescription</text>
</a>
</g>
<!-- Node3&#45;&gt;Node1 -->
<g id="edge4" class="edge"><title>Node3&#45;&gt;Node1</title>
<path fill="none" stroke="#9a32cd" stroke-dasharray="5,2" d="M177.757,-114.371C179.766,-92.2738 186.576,-57.9667 209,-40 228.107,-24.6909 391.39,-15.3654 456.935,-12.2086"/>
<polygon fill="#9a32cd" stroke="#9a32cd" points="174.262,-114.179 177.098,-124.387 181.247,-114.639 174.262,-114.179"/>
<text text-anchor="middle" x="239" y="-70.5" font-family="Helvetica,sans-Serif" font-size="10.00"> m_appDesc</text>
</g>
<!-- Node4 -->
<g id="node6" class="node"><title>Node4</title>
<polygon fill="white" stroke="#bfbfbf" points="255.5,-124.5 255.5,-145.5 308.5,-145.5 308.5,-124.5 255.5,-124.5"/>
<text text-anchor="middle" x="282" y="-132.5" font-family="Helvetica,sans-Serif" font-size="10.00">QRectF</text>
</g>
<!-- Node4&#45;&gt;Node1 -->
<g id="edge6" class="edge"><title>Node4&#45;&gt;Node1</title>
<path fill="none" stroke="#9a32cd" stroke-dasharray="5,2" d="M276.554,-114.209C272.309,-92.7782 269.807,-59.7861 288,-40 299.263,-27.751 405.479,-17.4507 456.671,-13.1513"/>
<polygon fill="#9a32cd" stroke="#9a32cd" points="273.202,-115.255 278.832,-124.23 280.028,-113.703 273.202,-115.255"/>
<text text-anchor="middle" x="329" y="-70.5" font-family="Helvetica,sans-Serif" font-size="10.00"> m_visibleBounds</text>
</g>
<!-- Node5 -->
<g id="node8" class="node"><title>Node5</title>
<polygon fill="white" stroke="#bfbfbf" points="346.5,-124.5 346.5,-145.5 405.5,-145.5 405.5,-124.5 346.5,-124.5"/>
<text text-anchor="middle" x="376" y="-132.5" font-family="Helvetica,sans-Serif" font-size="10.00">QPixmap</text>
</g>
<!-- Node5&#45;&gt;Node1 -->
<g id="edge8" class="edge"><title>Node5&#45;&gt;Node1</title>
<path fill="none" stroke="#9a32cd" stroke-dasharray="5,2" d="M374.481,-114.18C374.101,-92.9599 376.909,-60.3538 395,-40 403.313,-30.6471 433.831,-22.0525 456.831,-16.6884"/>
<polygon fill="#9a32cd" stroke="#9a32cd" points="370.994,-114.542 374.925,-124.381 377.987,-114.238 370.994,-114.542"/>
<text text-anchor="middle" x="437.5" y="-70.5" font-family="Helvetica,sans-Serif" font-size="10.00"> m_screenPixmap</text>
</g>
<!-- Node6 -->
<g id="node10" class="node"><title>Node6</title>
<polygon fill="white" stroke="#bfbfbf" points="457,-124.5 457,-145.5 511,-145.5 511,-124.5 457,-124.5"/>
<text text-anchor="middle" x="484" y="-132.5" font-family="Helvetica,sans-Serif" font-size="10.00">uint32_t</text>
</g>
<!-- Node6&#45;&gt;Node1 -->
<g id="edge10" class="edge"><title>Node6&#45;&gt;Node1</title>
<path fill="none" stroke="#9a32cd" stroke-dasharray="5,2" d="M484,-114.241C484,-87.4976 484,-42.0224 484,-21.5454"/>
<polygon fill="#9a32cd" stroke="#9a32cd" points="480.5,-114.428 484,-124.428 487.5,-114.428 480.5,-114.428"/>
<text text-anchor="middle" x="513.5" y="-77" font-family="Helvetica,sans-Serif" font-size="10.00"> m_bufWidth</text>
<text text-anchor="middle" x="513.5" y="-64" font-family="Helvetica,sans-Serif" font-size="10.00">m_bufHeight</text>
</g>
<!-- Node7 -->
<g id="node12" class="node"><title>Node7</title>
<a xlink:href="classint.htm" target="_top" xlink:title="int">
<polygon fill="white" stroke="black" points="551.5,-124.5 551.5,-145.5 580.5,-145.5 580.5,-124.5 551.5,-124.5"/>
<text text-anchor="middle" x="566" y="-132.5" font-family="Helvetica,sans-Serif" font-size="10.00">int</text>
</a>
</g>
<!-- Node7&#45;&gt;Node1 -->
<g id="edge12" class="edge"><title>Node7&#45;&gt;Node1</title>
<path fill="none" stroke="#9a32cd" stroke-dasharray="5,2" d="M566.189,-114.281C565.331,-93.4015 561.019,-61.3025 544,-40 535.768,-29.6953 522.969,-22.8175 511.303,-18.3579"/>
<polygon fill="#9a32cd" stroke="#9a32cd" points="562.69,-114.389 566.371,-124.324 569.689,-114.262 562.69,-114.389"/>
<text text-anchor="middle" x="600" y="-77" font-family="Helvetica,sans-Serif" font-size="10.00"> m_initialWidth</text>
<text text-anchor="middle" x="600" y="-64" font-family="Helvetica,sans-Serif" font-size="10.00">m_initialHeight</text>
</g>
<!-- Node8 -->
<g id="node14" class="node"><title>Node8</title>
<polygon fill="white" stroke="#bfbfbf" points="638.5,-124.5 638.5,-145.5 679.5,-145.5 679.5,-124.5 638.5,-124.5"/>
<text text-anchor="middle" x="659" y="-132.5" font-family="Helvetica,sans-Serif" font-size="10.00">Type</text>
</g>
<!-- Node8&#45;&gt;Node1 -->
<g id="edge14" class="edge"><title>Node8&#45;&gt;Node1</title>
<path fill="none" stroke="#9a32cd" stroke-dasharray="5,2" d="M656.824,-114.157C653.8,-89.3673 647.482,-50.0684 637,-40 619.355,-23.0508 550.177,-15.5719 511.158,-12.6445"/>
<polygon fill="#9a32cd" stroke="#9a32cd" points="653.378,-114.828 657.985,-124.368 660.333,-114.037 653.378,-114.828"/>
<text text-anchor="middle" x="674" y="-70.5" font-family="Helvetica,sans-Serif" font-size="10.00"> m_type</text>
</g>
<!-- Node9 -->
<g id="node16" class="node"><title>Node9</title>
<polygon fill="white" stroke="#bfbfbf" points="702,-124.5 702,-145.5 738,-145.5 738,-124.5 702,-124.5"/>
<text text-anchor="middle" x="720" y="-132.5" font-family="Helvetica,sans-Serif" font-size="10.00">bool</text>
</g>
<!-- Node9&#45;&gt;Node1 -->
<g id="edge16" class="edge"><title>Node9&#45;&gt;Node1</title>
<path fill="none" stroke="#9a32cd" stroke-dasharray="5,2" d="M717.679,-114.057C714.469,-89.1655 707.814,-49.7619 697,-40 683.425,-27.7466 565.78,-17.257 511.38,-13.013"/>
<polygon fill="#9a32cd" stroke="#9a32cd" points="714.243,-114.804 718.914,-124.314 721.193,-113.967 714.243,-114.804"/>
<text text-anchor="middle" x="763.5" y="-77" font-family="Helvetica,sans-Serif" font-size="10.00"> m_removed</text>
<text text-anchor="middle" x="763.5" y="-64" font-family="Helvetica,sans-Serif" font-size="10.00">m_disableKeepAlive</text>
</g>
<!-- Node10 -->
<g id="node18" class="node"><title>Node10</title>
<polygon fill="white" stroke="#bfbfbf" points="816.5,-124.5 816.5,-145.5 859.5,-145.5 859.5,-124.5 816.5,-124.5"/>
<text text-anchor="middle" x="838" y="-132.5" font-family="Helvetica,sans-Serif" font-size="10.00">string</text>
</g>
<!-- Node10&#45;&gt;Node1 -->
<g id="edge18" class="edge"><title>Node10&#45;&gt;Node1</title>
<path fill="none" stroke="#9a32cd" stroke-dasharray="5,2" d="M839.397,-114.183C839.619,-92.1769 836.145,-58.1863 815,-40 792.149,-20.3459 585.992,-13.4542 511.063,-11.5861"/>
<polygon fill="#9a32cd" stroke="#9a32cd" points="835.89,-114.329 839.018,-124.452 842.885,-114.588 835.89,-114.329"/>
<text text-anchor="middle" x="884.5" y="-96.5" font-family="Helvetica,sans-Serif" font-size="10.00"> m_launchingAppId</text>
<text text-anchor="middle" x="884.5" y="-83.5" font-family="Helvetica,sans-Serif" font-size="10.00">m_processId</text>
<text text-anchor="middle" x="884.5" y="-70.5" font-family="Helvetica,sans-Serif" font-size="10.00">m_launchingProcId</text>
<text text-anchor="middle" x="884.5" y="-57.5" font-family="Helvetica,sans-Serif" font-size="10.00">m_appId</text>
<text text-anchor="middle" x="884.5" y="-44.5" font-family="Helvetica,sans-Serif" font-size="10.00">m_name</text>
</g>
</g>
</svg>
