<?xml version="1.0" encoding="UTF-8" standalone="no"?>
<!DOCTYPE svg PUBLIC "-//W3C//DTD SVG 1.1//EN"
 "http://www.w3.org/Graphics/SVG/1.1/DTD/svg11.dtd">
<!-- Generated by graphviz version 2.26.3 (20100126.1600)
 -->
<!-- Title: G Pages: 1 -->
<svg width="760pt" height="370pt"
 viewBox="0.00 0.00 760.00 370.00" xmlns="http://www.w3.org/2000/svg" xmlns:xlink="http://www.w3.org/1999/xlink">
<g id="graph1" class="graph" transform="scale(1 1) rotate(0) translate(4 366)">
<title>G</title>
<polygon fill="white" stroke="white" points="-4,5 -4,-366 757,-366 757,5 -4,5"/>
<!-- Node1 -->
<g id="node1" class="node"><title>Node1</title>
<polygon fill="#bfbfbf" stroke="black" points="0,-100.5 0,-121.5 116,-121.5 116,-100.5 0,-100.5"/>
<text text-anchor="middle" x="58" y="-108.5" font-family="Helvetica,sans-Serif" font-size="10.00">PIpcChannelListener</text>
</g>
<!-- Node2 -->
<g id="node3" class="node"><title>Node2</title>
<a xlink:href="classHostWindow.htm" target="_top" xlink:title="HostWindow">
<polygon fill="white" stroke="black" points="167,-200.5 167,-221.5 243,-221.5 243,-200.5 167,-200.5"/>
<text text-anchor="middle" x="205" y="-208.5" font-family="Helvetica,sans-Serif" font-size="10.00">HostWindow</text>
</a>
</g>
<!-- Node1&#45;&gt;Node2 -->
<g id="edge2" class="edge"><title>Node1&#45;&gt;Node2</title>
<path fill="none" stroke="midnightblue" d="M81.754,-127.159C112.029,-147.755 163.525,-182.785 189.311,-200.327"/>
<polygon fill="midnightblue" stroke="midnightblue" points="83.6906,-124.244 73.4537,-121.513 79.7533,-130.031 83.6906,-124.244"/>
</g>
<!-- Node14 -->
<g id="node27" class="node"><title>Node14</title>
<a xlink:href="classIpcClientHost.htm" target="_top" xlink:title="IpcClientHost">
<polygon fill="white" stroke="black" points="165,-120.5 165,-141.5 245,-141.5 245,-120.5 165,-120.5"/>
<text text-anchor="middle" x="205" y="-128.5" font-family="Helvetica,sans-Serif" font-size="10.00">IpcClientHost</text>
</a>
</g>
<!-- Node1&#45;&gt;Node14 -->
<g id="edge26" class="edge"><title>Node1&#45;&gt;Node14</title>
<path fill="none" stroke="midnightblue" d="M126.178,-120.276C139.456,-122.082 152.967,-123.921 164.965,-125.553"/>
<polygon fill="midnightblue" stroke="midnightblue" points="126.479,-116.785 116.098,-118.905 125.535,-123.721 126.479,-116.785"/>
</g>
<!-- Node16 -->
<g id="node31" class="node"><title>Node16</title>
<a xlink:href="classWebAppManager.htm" target="_top" xlink:title="WebAppManager">
<polygon fill="white" stroke="black" points="155.5,-80.5 155.5,-101.5 254.5,-101.5 254.5,-80.5 155.5,-80.5"/>
<text text-anchor="middle" x="205" y="-88.5" font-family="Helvetica,sans-Serif" font-size="10.00">WebAppManager</text>
</a>
</g>
<!-- Node1&#45;&gt;Node16 -->
<g id="edge30" class="edge"><title>Node1&#45;&gt;Node16</title>
<path fill="none" stroke="midnightblue" d="M126.258,-101.713C136.08,-100.377 146.027,-99.0236 155.393,-97.7493"/>
<polygon fill="midnightblue" stroke="midnightblue" points="125.535,-98.2792 116.098,-103.095 126.479,-105.215 125.535,-98.2792"/>
</g>
<!-- Node17 -->
<g id="node33" class="node"><title>Node17</title>
<a xlink:href="classWindowedWebApp.htm" target="_top" xlink:title="WindowedWebApp">
<polygon fill="white" stroke="black" points="152,-40.5 152,-61.5 258,-61.5 258,-40.5 152,-40.5"/>
<text text-anchor="middle" x="205" y="-48.5" font-family="Helvetica,sans-Serif" font-size="10.00">WindowedWebApp</text>
</a>
</g>
<!-- Node1&#45;&gt;Node17 -->
<g id="edge32" class="edge"><title>Node1&#45;&gt;Node17</title>
<path fill="none" stroke="midnightblue" d="M91.6457,-96.2827C109.503,-88.573 131.862,-79.0802 152,-71 159.85,-67.8504 168.406,-64.5599 176.31,-61.5785"/>
<polygon fill="midnightblue" stroke="midnightblue" points="90.0148,-93.1749 82.2306,-100.362 92.7978,-99.5979 90.0148,-93.1749"/>
</g>
<!-- Node3 -->
<g id="node5" class="node"><title>Node3</title>
<a xlink:href="classAlertWindow.htm" target="_top" xlink:title="AlertWindow">
<polygon fill="white" stroke="black" points="310,-300.5 310,-321.5 386,-321.5 386,-300.5 310,-300.5"/>
<text text-anchor="middle" x="348" y="-308.5" font-family="Helvetica,sans-Serif" font-size="10.00">AlertWindow</text>
</a>
</g>
<!-- Node2&#45;&gt;Node3 -->
<g id="edge4" class="edge"><title>Node2&#45;&gt;Node3</title>
<path fill="none" stroke="midnightblue" d="M228.488,-227.425C257.989,-248.055 307.761,-282.861 332.738,-300.327"/>
<polygon fill="midnightblue" stroke="midnightblue" points="230.234,-224.375 220.033,-221.513 226.222,-230.112 230.234,-224.375"/>
</g>
<!-- Node6 -->
<g id="node11" class="node"><title>Node6</title>
<a xlink:href="classCardWindow.htm" target="_top" xlink:title="CardWindow">
<polygon fill="white" stroke="black" points="309.5,-240.5 309.5,-261.5 386.5,-261.5 386.5,-240.5 309.5,-240.5"/>
<text text-anchor="middle" x="348" y="-248.5" font-family="Helvetica,sans-Serif" font-size="10.00">CardWindow</text>
</a>
</g>
<!-- Node2&#45;&gt;Node6 -->
<g id="edge10" class="edge"><title>Node2&#45;&gt;Node6</title>
<path fill="none" stroke="midnightblue" d="M252.416,-224.263C271.19,-229.515 292.473,-235.468 310.183,-240.422"/>
<polygon fill="midnightblue" stroke="midnightblue" points="253.145,-220.833 242.572,-221.51 251.259,-227.574 253.145,-220.833"/>
</g>
<!-- Node12 -->
<g id="node23" class="node"><title>Node12</title>
<a xlink:href="classDashboardWindow.htm" target="_top" xlink:title="DashboardWindow">
<polygon fill="white" stroke="black" points="295,-200.5 295,-221.5 401,-221.5 401,-200.5 295,-200.5"/>
<text text-anchor="middle" x="348" y="-208.5" font-family="Helvetica,sans-Serif" font-size="10.00">DashboardWindow</text>
</a>
</g>
<!-- Node2&#45;&gt;Node12 -->
<g id="edge22" class="edge"><title>Node2&#45;&gt;Node12</title>
<path fill="none" stroke="midnightblue" d="M253.652,-211C266.895,-211 281.307,-211 294.789,-211"/>
<polygon fill="midnightblue" stroke="midnightblue" points="253.321,-207.5 243.321,-211 253.321,-214.5 253.321,-207.5"/>
</g>
<!-- Node13 -->
<g id="node25" class="node"><title>Node13</title>
<a xlink:href="classMenuWindow.htm" target="_top" xlink:title="MenuWindow">
<polygon fill="white" stroke="black" points="308,-160.5 308,-181.5 388,-181.5 388,-160.5 308,-160.5"/>
<text text-anchor="middle" x="348" y="-168.5" font-family="Helvetica,sans-Serif" font-size="10.00">MenuWindow</text>
</a>
</g>
<!-- Node2&#45;&gt;Node13 -->
<g id="edge24" class="edge"><title>Node2&#45;&gt;Node13</title>
<path fill="none" stroke="midnightblue" d="M252.416,-197.737C271.19,-192.485 292.473,-186.532 310.183,-181.578"/>
<polygon fill="midnightblue" stroke="midnightblue" points="251.259,-194.426 242.572,-200.49 253.145,-201.167 251.259,-194.426"/>
</g>
<!-- Node4 -->
<g id="node7" class="node"><title>Node4</title>
<a xlink:href="classQmlAlertWindow.htm" target="_top" xlink:title="QmlAlertWindow">
<polygon fill="white" stroke="black" points="463.5,-340.5 463.5,-361.5 558.5,-361.5 558.5,-340.5 463.5,-340.5"/>
<text text-anchor="middle" x="511" y="-348.5" font-family="Helvetica,sans-Serif" font-size="10.00">QmlAlertWindow</text>
</a>
</g>
<!-- Node3&#45;&gt;Node4 -->
<g id="edge6" class="edge"><title>Node3&#45;&gt;Node4</title>
<path fill="none" stroke="midnightblue" d="M396.052,-322.792C418.904,-328.4 445.999,-335.049 468.143,-340.483"/>
<polygon fill="midnightblue" stroke="midnightblue" points="396.762,-319.362 386.216,-320.378 395.094,-326.161 396.762,-319.362"/>
</g>
<!-- Node5 -->
<g id="node9" class="node"><title>Node5</title>
<a xlink:href="classVolumeControlAlertWindow.htm" target="_top" xlink:title="VolumeControlAlertWindow">
<polygon fill="white" stroke="black" points="438.5,-300.5 438.5,-321.5 583.5,-321.5 583.5,-300.5 438.5,-300.5"/>
<text text-anchor="middle" x="511" y="-308.5" font-family="Helvetica,sans-Serif" font-size="10.00">VolumeControlAlertWindow</text>
</a>
</g>
<!-- Node3&#45;&gt;Node5 -->
<g id="edge8" class="edge"><title>Node3&#45;&gt;Node5</title>
<path fill="none" stroke="midnightblue" d="M396.466,-311C409.661,-311 424.245,-311 438.462,-311"/>
<polygon fill="midnightblue" stroke="midnightblue" points="396.216,-307.5 386.216,-311 396.216,-314.5 396.216,-307.5"/>
</g>
<!-- Node7 -->
<g id="node13" class="node"><title>Node7</title>
<a xlink:href="classCardHostWindow.htm" target="_top" xlink:title="CardHostWindow">
<polygon fill="white" stroke="black" points="461.5,-260.5 461.5,-281.5 560.5,-281.5 560.5,-260.5 461.5,-260.5"/>
<text text-anchor="middle" x="511" y="-268.5" font-family="Helvetica,sans-Serif" font-size="10.00">CardHostWindow</text>
</a>
</g>
<!-- Node6&#45;&gt;Node7 -->
<g id="edge12" class="edge"><title>Node6&#45;&gt;Node7</title>
<path fill="none" stroke="midnightblue" d="M396.647,-256.969C417.032,-259.47 440.71,-262.375 461.214,-264.891"/>
<polygon fill="midnightblue" stroke="midnightblue" points="396.981,-253.484 386.629,-255.74 396.128,-260.432 396.981,-253.484"/>
</g>
<!-- Node9 -->
<g id="node17" class="node"><title>Node9</title>
<a xlink:href="classDockModeWindow.htm" target="_top" xlink:title="DockModeWindow">
<polygon fill="white" stroke="black" points="458.5,-220.5 458.5,-241.5 563.5,-241.5 563.5,-220.5 458.5,-220.5"/>
<text text-anchor="middle" x="511" y="-228.5" font-family="Helvetica,sans-Serif" font-size="10.00">DockModeWindow</text>
</a>
</g>
<!-- Node6&#45;&gt;Node9 -->
<g id="edge16" class="edge"><title>Node6&#45;&gt;Node9</title>
<path fill="none" stroke="midnightblue" d="M396.792,-245.013C416.239,-242.627 438.663,-239.876 458.465,-237.446"/>
<polygon fill="midnightblue" stroke="midnightblue" points="396.128,-241.568 386.629,-246.26 396.981,-248.516 396.128,-241.568"/>
</g>
<!-- Node11 -->
<g id="node21" class="node"><title>Node11</title>
<a xlink:href="classEmulatedCardWindow.htm" target="_top" xlink:title="EmulatedCardWindow">
<polygon fill="white" stroke="black" points="450.5,-180.5 450.5,-201.5 571.5,-201.5 571.5,-180.5 450.5,-180.5"/>
<text text-anchor="middle" x="511" y="-188.5" font-family="Helvetica,sans-Serif" font-size="10.00">EmulatedCardWindow</text>
</a>
</g>
<!-- Node6&#45;&gt;Node11 -->
<g id="edge20" class="edge"><title>Node6&#45;&gt;Node11</title>
<path fill="none" stroke="midnightblue" d="M388.354,-236.826C392.998,-234.968 397.631,-233.008 402,-231 418.63,-223.355 421.052,-217.912 438,-211 446.761,-207.427 456.368,-204.282 465.652,-201.606"/>
<polygon fill="midnightblue" stroke="midnightblue" points="386.956,-233.614 378.888,-240.482 389.478,-240.144 386.956,-233.614"/>
</g>
<!-- Node8 -->
<g id="node15" class="node"><title>Node8</title>
<a xlink:href="classQtHostWindow.htm" target="_top" xlink:title="QtHostWindow">
<polygon fill="white" stroke="black" points="642.5,-260.5 642.5,-281.5 729.5,-281.5 729.5,-260.5 642.5,-260.5"/>
<text text-anchor="middle" x="686" y="-268.5" font-family="Helvetica,sans-Serif" font-size="10.00">QtHostWindow</text>
</a>
</g>
<!-- Node7&#45;&gt;Node8 -->
<g id="edge14" class="edge"><title>Node7&#45;&gt;Node8</title>
<path fill="none" stroke="midnightblue" d="M570.89,-271C594.382,-271 620.833,-271 642.45,-271"/>
<polygon fill="midnightblue" stroke="midnightblue" points="570.68,-267.5 560.68,-271 570.68,-274.5 570.68,-267.5"/>
</g>
<!-- Node10 -->
<g id="node19" class="node"><title>Node10</title>
<a xlink:href="classDockModeClockWindow.htm" target="_top" xlink:title="DockModeClockWindow">
<polygon fill="white" stroke="black" points="620.5,-220.5 620.5,-241.5 751.5,-241.5 751.5,-220.5 620.5,-220.5"/>
<text text-anchor="middle" x="686" y="-228.5" font-family="Helvetica,sans-Serif" font-size="10.00">DockModeClockWindow</text>
</a>
</g>
<!-- Node9&#45;&gt;Node10 -->
<g id="edge18" class="edge"><title>Node9&#45;&gt;Node10</title>
<path fill="none" stroke="midnightblue" d="M573.749,-231C588.828,-231 604.975,-231 620.189,-231"/>
<polygon fill="midnightblue" stroke="midnightblue" points="573.506,-227.5 563.506,-231 573.506,-234.5 573.506,-227.5"/>
</g>
<!-- Node15 -->
<g id="node29" class="node"><title>Node15</title>
<a xlink:href="classWebAppMgrProxy.htm" target="_top" xlink:title="WebAppMgrProxy">
<polygon fill="white" stroke="black" points="297,-120.5 297,-141.5 399,-141.5 399,-120.5 297,-120.5"/>
<text text-anchor="middle" x="348" y="-128.5" font-family="Helvetica,sans-Serif" font-size="10.00">WebAppMgrProxy</text>
</a>
</g>
<!-- Node14&#45;&gt;Node15 -->
<g id="edge28" class="edge"><title>Node14&#45;&gt;Node15</title>
<path fill="none" stroke="midnightblue" d="M255.267,-131C268.743,-131 283.326,-131 296.849,-131"/>
<polygon fill="midnightblue" stroke="midnightblue" points="255.214,-127.5 245.214,-131 255.214,-134.5 255.214,-127.5"/>
</g>
<!-- Node18 -->
<g id="node35" class="node"><title>Node18</title>
<a xlink:href="classAlertWebApp.htm" target="_top" xlink:title="AlertWebApp">
<polygon fill="white" stroke="black" points="309,-80.5 309,-101.5 387,-101.5 387,-80.5 309,-80.5"/>
<text text-anchor="middle" x="348" y="-88.5" font-family="Helvetica,sans-Serif" font-size="10.00">AlertWebApp</text>
</a>
</g>
<!-- Node17&#45;&gt;Node18 -->
<g id="edge34" class="edge"><title>Node17&#45;&gt;Node18</title>
<path fill="none" stroke="midnightblue" d="M252.416,-64.2632C271.19,-69.5148 292.473,-75.4681 310.183,-80.4218"/>
<polygon fill="midnightblue" stroke="midnightblue" points="253.145,-60.8328 242.572,-61.5095 251.259,-67.574 253.145,-60.8328"/>
</g>
<!-- Node19 -->
<g id="node37" class="node"><title>Node19</title>
<a xlink:href="classCardWebApp.htm" target="_top" xlink:title="CardWebApp">
<polygon fill="white" stroke="black" points="308,-40.5 308,-61.5 388,-61.5 388,-40.5 308,-40.5"/>
<text text-anchor="middle" x="348" y="-48.5" font-family="Helvetica,sans-Serif" font-size="10.00">CardWebApp</text>
</a>
</g>
<!-- Node17&#45;&gt;Node19 -->
<g id="edge36" class="edge"><title>Node17&#45;&gt;Node19</title>
<path fill="none" stroke="midnightblue" d="M268.354,-51C281.708,-51 295.447,-51 307.673,-51"/>
<polygon fill="midnightblue" stroke="midnightblue" points="268.248,-47.5001 258.248,-51 268.248,-54.5001 268.248,-47.5001"/>
</g>
<!-- Node21 -->
<g id="node41" class="node"><title>Node21</title>
<a xlink:href="classDashboardWebApp.htm" target="_top" xlink:title="DashboardWebApp">
<polygon fill="white" stroke="black" points="294,-0.5 294,-21.5 402,-21.5 402,-0.5 294,-0.5"/>
<text text-anchor="middle" x="348" y="-8.5" font-family="Helvetica,sans-Serif" font-size="10.00">DashboardWebApp</text>
</a>
</g>
<!-- Node17&#45;&gt;Node21 -->
<g id="edge40" class="edge"><title>Node17&#45;&gt;Node21</title>
<path fill="none" stroke="midnightblue" d="M252.416,-37.7368C271.19,-32.4852 292.473,-26.5319 310.183,-21.5782"/>
<polygon fill="midnightblue" stroke="midnightblue" points="251.259,-34.426 242.572,-40.4905 253.145,-41.1672 251.259,-34.426"/>
</g>
<!-- Node20 -->
<g id="node39" class="node"><title>Node20</title>
<a xlink:href="classDockWebApp.htm" target="_top" xlink:title="DockWebApp">
<polygon fill="white" stroke="black" points="471,-40.5 471,-61.5 551,-61.5 551,-40.5 471,-40.5"/>
<text text-anchor="middle" x="511" y="-48.5" font-family="Helvetica,sans-Serif" font-size="10.00">DockWebApp</text>
</a>
</g>
<!-- Node19&#45;&gt;Node20 -->
<g id="edge38" class="edge"><title>Node19&#45;&gt;Node20</title>
<path fill="none" stroke="midnightblue" d="M398.351,-51C421.669,-51 448.992,-51 470.889,-51"/>
<polygon fill="midnightblue" stroke="midnightblue" points="398.292,-47.5001 388.292,-51 398.292,-54.5001 398.292,-47.5001"/>
</g>
</g>
</svg>
