<?xml version="1.0" encoding="UTF-8" standalone="no"?>
<!DOCTYPE svg PUBLIC "-//W3C//DTD SVG 1.1//EN"
 "http://www.w3.org/Graphics/SVG/1.1/DTD/svg11.dtd">
<!-- Generated by graphviz version 2.26.3 (20100126.1600)
 -->
<!-- Title: G Pages: 1 -->
<svg width="586pt" height="360pt"
 viewBox="0.00 0.00 586.00 360.00" xmlns="http://www.w3.org/2000/svg" xmlns:xlink="http://www.w3.org/1999/xlink">
<g id="graph1" class="graph" transform="scale(1 1) rotate(0) translate(4 356)">
<title>G</title>
<polygon fill="white" stroke="white" points="-4,5 -4,-356 583,-356 583,5 -4,5"/>
<!-- Node1 -->
<g id="node1" class="node"><title>Node1</title>
<polygon fill="#bfbfbf" stroke="black" points="420.5,-156.5 420.5,-177.5 577.5,-177.5 577.5,-156.5 420.5,-156.5"/>
<text text-anchor="middle" x="499" y="-164.5" font-family="Helvetica,sans-Serif" font-size="10.00">HALBearingSensorConnector</text>
</g>
<!-- Node2 -->
<g id="node2" class="node"><title>Node2</title>
<a xlink:href="classHALConnectorBase.htm" target="_top" xlink:title="HALConnectorBase">
<polygon fill="white" stroke="black" points="272,-156.5 272,-177.5 382,-177.5 382,-156.5 272,-156.5"/>
<text text-anchor="middle" x="327" y="-164.5" font-family="Helvetica,sans-Serif" font-size="10.00">HALConnectorBase</text>
</a>
</g>
<!-- Node2&#45;&gt;Node1 -->
<g id="edge2" class="edge"><title>Node2&#45;&gt;Node1</title>
<path fill="none" stroke="midnightblue" d="M392.462,-167C401.545,-167 410.952,-167 420.246,-167"/>
<polygon fill="midnightblue" stroke="midnightblue" points="392.369,-163.5 382.369,-167 392.369,-170.5 392.369,-163.5"/>
</g>
<!-- Node3 -->
<g id="node4" class="node"><title>Node3</title>
<a xlink:href="classQObject.htm" target="_top" xlink:title="QObject">
<polygon fill="white" stroke="black" points="37.5,-330.5 37.5,-351.5 92.5,-351.5 92.5,-330.5 37.5,-330.5"/>
<text text-anchor="middle" x="65" y="-338.5" font-family="Helvetica,sans-Serif" font-size="10.00">QObject</text>
</a>
</g>
<!-- Node3&#45;&gt;Node2 -->
<g id="edge4" class="edge"><title>Node3&#45;&gt;Node2</title>
<path fill="none" stroke="midnightblue" d="M102.722,-347.66C143.783,-352.753 209.515,-354.359 254,-323 304.835,-287.165 321.254,-206.577 325.625,-177.617"/>
<polygon fill="midnightblue" stroke="midnightblue" points="102.973,-344.162 92.5906,-346.271 102.022,-351.097 102.973,-344.162"/>
</g>
<!-- Node4 -->
<g id="node6" class="node"><title>Node4</title>
<polygon fill="white" stroke="#bfbfbf" points="19.5,-290.5 19.5,-311.5 110.5,-311.5 110.5,-290.5 19.5,-290.5"/>
<text text-anchor="middle" x="65" y="-298.5" font-family="Helvetica,sans-Serif" font-size="10.00">hal_device_id_t</text>
</g>
<!-- Node4&#45;&gt;Node2 -->
<g id="edge6" class="edge"><title>Node4&#45;&gt;Node2</title>
<path fill="none" stroke="#9a32cd" stroke-dasharray="5,2" d="M120.614,-306.5C160.583,-307.747 214.214,-303.641 254,-279 293.267,-254.68 315.597,-200.493 323.595,-177.568"/>
<polygon fill="#9a32cd" stroke="#9a32cd" points="120.647,-302.998 110.505,-306.063 120.345,-309.992 120.647,-302.998"/>
<text text-anchor="middle" x="201" y="-310" font-family="Helvetica,sans-Serif" font-size="10.00"> m_HALDeviceId</text>
</g>
<!-- Node5 -->
<g id="node8" class="node"><title>Node5</title>
<a xlink:href="classint.htm" target="_top" xlink:title="int">
<polygon fill="white" stroke="black" points="50.5,-243.5 50.5,-264.5 79.5,-264.5 79.5,-243.5 50.5,-243.5"/>
<text text-anchor="middle" x="65" y="-251.5" font-family="Helvetica,sans-Serif" font-size="10.00">int</text>
</a>
</g>
<!-- Node5&#45;&gt;Node2 -->
<g id="edge8" class="edge"><title>Node5&#45;&gt;Node2</title>
<path fill="none" stroke="#9a32cd" stroke-dasharray="5,2" d="M90.1295,-254.408C127.466,-254.12 199.081,-250.092 254,-226 279.965,-214.609 304.358,-191.446 317.321,-177.776"/>
<polygon fill="#9a32cd" stroke="#9a32cd" points="89.7036,-250.908 79.6993,-254.395 89.695,-257.908 89.7036,-250.908"/>
<text text-anchor="middle" x="201" y="-268" font-family="Helvetica,sans-Serif" font-size="10.00"> m_SensorFD</text>
<text text-anchor="middle" x="201" y="-255" font-family="Helvetica,sans-Serif" font-size="10.00">m_OrientationAngle</text>
</g>
<!-- Node6 -->
<g id="node10" class="node"><title>Node6</title>
<polygon fill="white" stroke="#bfbfbf" points="40,-203.5 40,-224.5 90,-224.5 90,-203.5 40,-203.5"/>
<text text-anchor="middle" x="65" y="-211.5" font-family="Helvetica,sans-Serif" font-size="10.00">Sensor</text>
</g>
<!-- Node6&#45;&gt;Node2 -->
<g id="edge10" class="edge"><title>Node6&#45;&gt;Node2</title>
<path fill="none" stroke="#9a32cd" stroke-dasharray="5,2" d="M100.217,-212.887C138.507,-211.073 201.286,-206.334 254,-194 270.841,-190.059 289.091,-183.309 303.131,-177.545"/>
<polygon fill="#9a32cd" stroke="#9a32cd" points="99.9352,-209.395 90.0958,-213.324 100.238,-216.389 99.9352,-209.395"/>
<text text-anchor="middle" x="201" y="-213" font-family="Helvetica,sans-Serif" font-size="10.00"> m_SensorType</text>
</g>
<!-- Node7 -->
<g id="node12" class="node"><title>Node7</title>
<polygon fill="white" stroke="#bfbfbf" points="47,-160.5 47,-181.5 83,-181.5 83,-160.5 47,-160.5"/>
<text text-anchor="middle" x="65" y="-168.5" font-family="Helvetica,sans-Serif" font-size="10.00">bool</text>
</g>
<!-- Node7&#45;&gt;Node2 -->
<g id="edge12" class="edge"><title>Node7&#45;&gt;Node2</title>
<path fill="none" stroke="#9a32cd" stroke-dasharray="5,2" d="M93.4443,-169.757C109.466,-169.111 129.845,-168.379 148,-168 189.479,-167.135 236.375,-166.9 271.758,-166.873"/>
<polygon fill="#9a32cd" stroke="#9a32cd" points="92.9758,-166.273 83.1297,-170.185 93.2663,-173.267 92.9758,-166.273"/>
<text text-anchor="middle" x="201" y="-185" font-family="Helvetica,sans-Serif" font-size="10.00"> m_Finished</text>
<text text-anchor="middle" x="201" y="-172" font-family="Helvetica,sans-Serif" font-size="10.00">m_CanPostEvent</text>
</g>
<!-- Node8 -->
<g id="node14" class="node"><title>Node8</title>
<a xlink:href="classHALConnectorObserver.htm" target="_top" xlink:title="HALConnectorObserver">
<polygon fill="white" stroke="black" points="0,-120.5 0,-141.5 130,-141.5 130,-120.5 0,-120.5"/>
<text text-anchor="middle" x="65" y="-128.5" font-family="Helvetica,sans-Serif" font-size="10.00">HALConnectorObserver</text>
</a>
</g>
<!-- Node8&#45;&gt;Node2 -->
<g id="edge14" class="edge"><title>Node8&#45;&gt;Node2</title>
<path fill="none" stroke="#9a32cd" stroke-dasharray="5,2" d="M140.129,-135.609C174.929,-138.395 216.735,-142.666 254,-149 265.453,-150.947 277.766,-153.715 288.956,-156.499"/>
<polygon fill="#9a32cd" stroke="#9a32cd" points="140.28,-132.111 130.04,-134.827 139.739,-139.09 140.28,-132.111"/>
<text text-anchor="middle" x="201" y="-153" font-family="Helvetica,sans-Serif" font-size="10.00"> m_Observer</text>
</g>
<!-- Node9 -->
<g id="node16" class="node"><title>Node9</title>
<polygon fill="white" stroke="#bfbfbf" points="19.5,-80.5 19.5,-101.5 110.5,-101.5 110.5,-80.5 19.5,-80.5"/>
<text text-anchor="middle" x="65" y="-88.5" font-family="Helvetica,sans-Serif" font-size="10.00">QSocketNotifier</text>
</g>
<!-- Node9&#45;&gt;Node2 -->
<g id="edge16" class="edge"><title>Node9&#45;&gt;Node2</title>
<path fill="none" stroke="#9a32cd" stroke-dasharray="5,2" d="M120.675,-92.9275C159.191,-95.7647 211.04,-102.615 254,-119 277.384,-127.919 300.95,-145.281 314.75,-156.497"/>
<polygon fill="#9a32cd" stroke="#9a32cd" points="120.896,-89.4345 110.685,-92.259 120.429,-96.4189 120.896,-89.4345"/>
<text text-anchor="middle" x="201" y="-123" font-family="Helvetica,sans-Serif" font-size="10.00"> m_HALSensorNotifier</text>
</g>
<!-- Node10 -->
<g id="node18" class="node"><title>Node10</title>
<polygon fill="white" stroke="#bfbfbf" points="13.5,-40.5 13.5,-61.5 116.5,-61.5 116.5,-40.5 13.5,-40.5"/>
<text text-anchor="middle" x="65" y="-48.5" font-family="Helvetica,sans-Serif" font-size="10.00">hal_device_type_t</text>
</g>
<!-- Node10&#45;&gt;Node2 -->
<g id="edge18" class="edge"><title>Node10&#45;&gt;Node2</title>
<path fill="none" stroke="#9a32cd" stroke-dasharray="5,2" d="M126.871,-48.7139C165.655,-49.8719 215.425,-56.2772 254,-78 287.259,-96.7291 311.525,-137.053 321.704,-156.323"/>
<polygon fill="#9a32cd" stroke="#9a32cd" points="126.818,-45.2123 116.753,-48.5219 126.685,-52.211 126.818,-45.2123"/>
<text text-anchor="middle" x="201" y="-82" font-family="Helvetica,sans-Serif" font-size="10.00"> m_HALDeviceType</text>
</g>
<!-- Node11 -->
<g id="node20" class="node"><title>Node11</title>
<polygon fill="white" stroke="#bfbfbf" points="7.5,-0.5 7.5,-21.5 122.5,-21.5 122.5,-0.5 7.5,-0.5"/>
<text text-anchor="middle" x="65" y="-8.5" font-family="Helvetica,sans-Serif" font-size="10.00">hal_device_handle_t</text>
</g>
<!-- Node11&#45;&gt;Node2 -->
<g id="edge20" class="edge"><title>Node11&#45;&gt;Node2</title>
<path fill="none" stroke="#9a32cd" stroke-dasharray="5,2" d="M132.753,-4.25827C171.327,-3.79327 218.816,-9.24196 254,-33 298.789,-63.244 318.551,-130.378 324.732,-156.403"/>
<polygon fill="#9a32cd" stroke="#9a32cd" points="132.549,-0.762249 122.641,-4.51576 132.727,-7.75998 132.549,-0.762249"/>
<text text-anchor="middle" x="201" y="-37" font-family="Helvetica,sans-Serif" font-size="10.00"> m_Handle</text>
</g>
</g>
</svg>
