<?xml version="1.0" encoding="UTF-8" standalone="no"?>
<!DOCTYPE svg PUBLIC "-//W3C//DTD SVG 1.1//EN"
 "http://www.w3.org/Graphics/SVG/1.1/DTD/svg11.dtd">
<!-- Generated by graphviz version 2.26.3 (20100126.1600)
 -->
<!-- Title: G Pages: 1 -->
<svg width="566pt" height="270pt"
 viewBox="0.00 0.00 566.00 270.00" xmlns="http://www.w3.org/2000/svg" xmlns:xlink="http://www.w3.org/1999/xlink">
<g id="graph1" class="graph" transform="scale(1 1) rotate(0) translate(4 266)">
<title>G</title>
<polygon fill="white" stroke="white" points="-4,5 -4,-266 563,-266 563,5 -4,5"/>
<!-- Node1 -->
<g id="node1" class="node"><title>Node1</title>
<polygon fill="#bfbfbf" stroke="black" points="0.5,-120.5 0.5,-141.5 51.5,-141.5 51.5,-120.5 0.5,-120.5"/>
<text text-anchor="middle" x="26" y="-128.5" font-family="Helvetica,sans-Serif" font-size="10.00">Sender</text>
</g>
<!-- Node2 -->
<g id="node3" class="node"><title>Node2</title>
<a xlink:href="classSignalBase.htm" target="_top" xlink:title="SignalBase\&lt; Arg0, Arg1, Arg2, Arg3, Arg4 \&gt;">
<polygon fill="white" stroke="black" points="95.5,-240.5 95.5,-261.5 316.5,-261.5 316.5,-240.5 95.5,-240.5"/>
<text text-anchor="middle" x="206" y="-248.5" font-family="Helvetica,sans-Serif" font-size="10.00">SignalBase&lt; Arg0, Arg1, Arg2, Arg3, Arg4 &gt;</text>
</a>
</g>
<!-- Node1&#45;&gt;Node2 -->
<g id="edge2" class="edge"><title>Node1&#45;&gt;Node2</title>
<path fill="none" stroke="midnightblue" d="M32.6722,-151.083C41.4854,-174.284 59.3327,-211.729 88,-231 93.6043,-234.767 99.6875,-237.901 106.038,-240.5"/>
<polygon fill="midnightblue" stroke="midnightblue" points="35.9213,-149.775 29.2522,-141.542 29.3319,-152.137 35.9213,-149.775"/>
</g>
<!-- Node4 -->
<g id="node7" class="node"><title>Node4</title>
<a xlink:href="classSignalBase.htm" target="_top" xlink:title="SignalBase\&lt; Arg0 \&gt;">
<polygon fill="white" stroke="black" points="151,-200.5 151,-221.5 261,-221.5 261,-200.5 151,-200.5"/>
<text text-anchor="middle" x="206" y="-208.5" font-family="Helvetica,sans-Serif" font-size="10.00">SignalBase&lt; Arg0 &gt;</text>
</a>
</g>
<!-- Node1&#45;&gt;Node4 -->
<g id="edge6" class="edge"><title>Node1&#45;&gt;Node4</title>
<path fill="none" stroke="midnightblue" d="M40.1442,-149.785C51.5202,-163.471 68.7415,-181.255 88,-191 107.281,-200.757 130.371,-205.887 150.993,-208.539"/>
<polygon fill="midnightblue" stroke="midnightblue" points="42.8249,-147.533 33.8504,-141.902 37.3545,-151.901 42.8249,-147.533"/>
</g>
<!-- Node6 -->
<g id="node11" class="node"><title>Node6</title>
<a xlink:href="classSignalBase.htm" target="_top" xlink:title="SignalBase\&lt; Arg0, Arg1 \&gt;">
<polygon fill="white" stroke="black" points="137,-160.5 137,-181.5 275,-181.5 275,-160.5 137,-160.5"/>
<text text-anchor="middle" x="206" y="-168.5" font-family="Helvetica,sans-Serif" font-size="10.00">SignalBase&lt; Arg0, Arg1 &gt;</text>
</a>
</g>
<!-- Node1&#45;&gt;Node6 -->
<g id="edge10" class="edge"><title>Node1&#45;&gt;Node6</title>
<path fill="none" stroke="midnightblue" d="M61.4641,-143.41C70.0798,-146.155 79.3142,-148.875 88,-151 103.642,-154.827 120.627,-158.17 136.71,-160.971"/>
<polygon fill="midnightblue" stroke="midnightblue" points="62.2969,-139.999 51.7042,-140.21 60.1164,-146.651 62.2969,-139.999"/>
</g>
<!-- Node8 -->
<g id="node15" class="node"><title>Node8</title>
<a xlink:href="classSignalBase.htm" target="_top" xlink:title="SignalBase\&lt; Arg0, Arg1, Arg2 \&gt;">
<polygon fill="white" stroke="black" points="123,-120.5 123,-141.5 289,-141.5 289,-120.5 123,-120.5"/>
<text text-anchor="middle" x="206" y="-128.5" font-family="Helvetica,sans-Serif" font-size="10.00">SignalBase&lt; Arg0, Arg1, Arg2 &gt;</text>
</a>
</g>
<!-- Node1&#45;&gt;Node8 -->
<g id="edge14" class="edge"><title>Node1&#45;&gt;Node8</title>
<path fill="none" stroke="midnightblue" d="M62.1087,-131C79.6484,-131 101.511,-131 122.856,-131"/>
<polygon fill="midnightblue" stroke="midnightblue" points="61.7896,-127.5 51.7896,-131 61.7896,-134.5 61.7896,-127.5"/>
</g>
<!-- Node10 -->
<g id="node19" class="node"><title>Node10</title>
<a xlink:href="classSignalBase.htm" target="_top" xlink:title="SignalBase\&lt; Arg0, Arg1, Arg2, Arg3 \&gt;">
<polygon fill="white" stroke="black" points="109,-80.5 109,-101.5 303,-101.5 303,-80.5 109,-80.5"/>
<text text-anchor="middle" x="206" y="-88.5" font-family="Helvetica,sans-Serif" font-size="10.00">SignalBase&lt; Arg0, Arg1, Arg2, Arg3 &gt;</text>
</a>
</g>
<!-- Node1&#45;&gt;Node10 -->
<g id="edge18" class="edge"><title>Node1&#45;&gt;Node10</title>
<path fill="none" stroke="midnightblue" d="M61.4641,-118.59C70.0798,-115.845 79.3142,-113.125 88,-111 102.734,-107.395 118.659,-104.22 133.9,-101.522"/>
<polygon fill="midnightblue" stroke="midnightblue" points="60.1164,-115.349 51.7042,-121.79 62.2969,-122.001 60.1164,-115.349"/>
</g>
<!-- Node12 -->
<g id="node23" class="node"><title>Node12</title>
<a xlink:href="classSignalBase.htm" target="_top" xlink:title="SignalBase\&lt; MemState, void, void, void, void \&gt;">
<polygon fill="white" stroke="black" points="88.5,-40.5 88.5,-61.5 323.5,-61.5 323.5,-40.5 88.5,-40.5"/>
<text text-anchor="middle" x="206" y="-48.5" font-family="Helvetica,sans-Serif" font-size="10.00">SignalBase&lt; MemState, void, void, void, void &gt;</text>
</a>
</g>
<!-- Node1&#45;&gt;Node12 -->
<g id="edge22" class="edge"><title>Node1&#45;&gt;Node12</title>
<path fill="none" stroke="midnightblue" d="M40.1442,-112.215C51.5202,-98.529 68.7415,-80.7451 88,-71 95.5086,-67.2005 103.595,-64.1026 111.888,-61.5794"/>
<polygon fill="midnightblue" stroke="midnightblue" points="37.3545,-110.099 33.8504,-120.098 42.8249,-114.467 37.3545,-110.099"/>
</g>
<!-- Node14 -->
<g id="node27" class="node"><title>Node14</title>
<a xlink:href="classSignalBase.htm" target="_top" xlink:title="SignalBase\&lt;\&gt;">
<polygon fill="white" stroke="black" points="165,-0.5 165,-21.5 247,-21.5 247,-0.5 165,-0.5"/>
<text text-anchor="middle" x="206" y="-8.5" font-family="Helvetica,sans-Serif" font-size="10.00">SignalBase&lt;&gt;</text>
</a>
</g>
<!-- Node1&#45;&gt;Node14 -->
<g id="edge26" class="edge"><title>Node1&#45;&gt;Node14</title>
<path fill="none" stroke="midnightblue" d="M32.6722,-110.917C41.4854,-87.7161 59.3327,-50.2712 88,-31 110.504,-15.8723 140.728,-10.9705 164.953,-9.80015"/>
<polygon fill="midnightblue" stroke="midnightblue" points="29.3319,-109.863 29.2522,-120.458 35.9213,-112.225 29.3319,-109.863"/>
</g>
<!-- Node3 -->
<g id="node5" class="node"><title>Node3</title>
<a xlink:href="classSignal.htm" target="_top" xlink:title="Signal\&lt; Arg0, Arg1, Arg2, Arg3, Arg4 \&gt;">
<polygon fill="white" stroke="black" points="360.5,-240.5 360.5,-261.5 557.5,-261.5 557.5,-240.5 360.5,-240.5"/>
<text text-anchor="middle" x="459" y="-248.5" font-family="Helvetica,sans-Serif" font-size="10.00">Signal&lt; Arg0, Arg1, Arg2, Arg3, Arg4 &gt;</text>
</a>
</g>
<!-- Node2&#45;&gt;Node3 -->
<g id="edge4" class="edge"><title>Node2&#45;&gt;Node3</title>
<path fill="none" stroke="midnightblue" d="M326.829,-251C337.994,-251 349.218,-251 360.153,-251"/>
<polygon fill="midnightblue" stroke="midnightblue" points="326.601,-247.5 316.601,-251 326.601,-254.5 326.601,-247.5"/>
</g>
<!-- Node5 -->
<g id="node9" class="node"><title>Node5</title>
<a xlink:href="classSignal_3_01Arg0_00_01void_00_01void_00_01void_00_01void_01_4.htm" target="_top" xlink:title="Signal\&lt; Arg0, void, void, void, void \&gt;">
<polygon fill="white" stroke="black" points="366.5,-200.5 366.5,-221.5 551.5,-221.5 551.5,-200.5 366.5,-200.5"/>
<text text-anchor="middle" x="459" y="-208.5" font-family="Helvetica,sans-Serif" font-size="10.00">Signal&lt; Arg0, void, void, void, void &gt;</text>
</a>
</g>
<!-- Node4&#45;&gt;Node5 -->
<g id="edge8" class="edge"><title>Node4&#45;&gt;Node5</title>
<path fill="none" stroke="midnightblue" d="M271.583,-211C300.467,-211 334.918,-211 366.357,-211"/>
<polygon fill="midnightblue" stroke="midnightblue" points="271.209,-207.5 261.209,-211 271.209,-214.5 271.209,-207.5"/>
</g>
<!-- Node7 -->
<g id="node13" class="node"><title>Node7</title>
<a xlink:href="classSignal_3_01Arg0_00_01Arg1_00_01void_00_01void_00_01void_01_4.htm" target="_top" xlink:title="Signal\&lt; Arg0, Arg1, void, void, void \&gt;">
<polygon fill="white" stroke="black" points="365,-160.5 365,-181.5 553,-181.5 553,-160.5 365,-160.5"/>
<text text-anchor="middle" x="459" y="-168.5" font-family="Helvetica,sans-Serif" font-size="10.00">Signal&lt; Arg0, Arg1, void, void, void &gt;</text>
</a>
</g>
<!-- Node6&#45;&gt;Node7 -->
<g id="edge12" class="edge"><title>Node6&#45;&gt;Node7</title>
<path fill="none" stroke="midnightblue" d="M285.37,-171C310.568,-171 338.678,-171 364.815,-171"/>
<polygon fill="midnightblue" stroke="midnightblue" points="285.133,-167.5 275.133,-171 285.133,-174.5 285.133,-167.5"/>
</g>
<!-- Node9 -->
<g id="node17" class="node"><title>Node9</title>
<a xlink:href="classSignal_3_01Arg0_00_01Arg1_00_01Arg2_00_01void_00_01void_01_4.htm" target="_top" xlink:title="Signal\&lt; Arg0, Arg1, Arg2, void, void \&gt;">
<polygon fill="white" stroke="black" points="363.5,-120.5 363.5,-141.5 554.5,-141.5 554.5,-120.5 363.5,-120.5"/>
<text text-anchor="middle" x="459" y="-128.5" font-family="Helvetica,sans-Serif" font-size="10.00">Signal&lt; Arg0, Arg1, Arg2, void, void &gt;</text>
</a>
</g>
<!-- Node8&#45;&gt;Node9 -->
<g id="edge16" class="edge"><title>Node8&#45;&gt;Node9</title>
<path fill="none" stroke="midnightblue" d="M299.344,-131C320.259,-131 342.475,-131 363.478,-131"/>
<polygon fill="midnightblue" stroke="midnightblue" points="299.192,-127.5 289.192,-131 299.192,-134.5 299.192,-127.5"/>
</g>
<!-- Node11 -->
<g id="node21" class="node"><title>Node11</title>
<a xlink:href="classSignal_3_01Arg0_00_01Arg1_00_01Arg2_00_01Arg3_00_01void_01_4.htm" target="_top" xlink:title="Signal\&lt; Arg0, Arg1, Arg2, Arg3, void \&gt;">
<polygon fill="white" stroke="black" points="362,-80.5 362,-101.5 556,-101.5 556,-80.5 362,-80.5"/>
<text text-anchor="middle" x="459" y="-88.5" font-family="Helvetica,sans-Serif" font-size="10.00">Signal&lt; Arg0, Arg1, Arg2, Arg3, void &gt;</text>
</a>
</g>
<!-- Node10&#45;&gt;Node11 -->
<g id="edge20" class="edge"><title>Node10&#45;&gt;Node11</title>
<path fill="none" stroke="midnightblue" d="M313.541,-91C329.548,-91 345.97,-91 361.749,-91"/>
<polygon fill="midnightblue" stroke="midnightblue" points="313.093,-87.5001 303.093,-91 313.093,-94.5001 313.093,-87.5001"/>
</g>
<!-- Node13 -->
<g id="node25" class="node"><title>Node13</title>
<a xlink:href="classSignal.htm" target="_top" xlink:title="Signal\&lt; MemState \&gt;">
<polygon fill="white" stroke="black" points="403,-40.5 403,-61.5 515,-61.5 515,-40.5 403,-40.5"/>
<text text-anchor="middle" x="459" y="-48.5" font-family="Helvetica,sans-Serif" font-size="10.00">Signal&lt; MemState &gt;</text>
</a>
</g>
<!-- Node12&#45;&gt;Node13 -->
<g id="edge24" class="edge"><title>Node12&#45;&gt;Node13</title>
<path fill="none" stroke="midnightblue" d="M333.66,-51C357.983,-51 382.249,-51 402.861,-51"/>
<polygon fill="midnightblue" stroke="midnightblue" points="333.612,-47.5001 323.612,-51 333.612,-54.5001 333.612,-47.5001"/>
</g>
<!-- Node15 -->
<g id="node29" class="node"><title>Node15</title>
<a xlink:href="classSignal_3_01void_00_01void_00_01void_00_01void_00_01void_01_4.htm" target="_top" xlink:title="Signal\&lt; void, void, void, void, void \&gt;">
<polygon fill="white" stroke="black" points="368,-0.5 368,-21.5 550,-21.5 550,-0.5 368,-0.5"/>
<text text-anchor="middle" x="459" y="-8.5" font-family="Helvetica,sans-Serif" font-size="10.00">Signal&lt; void, void, void, void, void &gt;</text>
</a>
</g>
<!-- Node14&#45;&gt;Node15 -->
<g id="edge28" class="edge"><title>Node14&#45;&gt;Node15</title>
<path fill="none" stroke="midnightblue" d="M257.57,-11C289.285,-11 330.824,-11 367.936,-11"/>
<polygon fill="midnightblue" stroke="midnightblue" points="257.212,-7.5001 247.212,-11 257.212,-14.5001 257.212,-7.5001"/>
</g>
</g>
</svg>
