<?xml version="1.0" encoding="UTF-8" standalone="no"?>
<!DOCTYPE svg PUBLIC "-//W3C//DTD SVG 1.1//EN"
 "http://www.w3.org/Graphics/SVG/1.1/DTD/svg11.dtd">
<!-- Generated by graphviz version 2.26.3 (20100126.1600)
 -->
<!-- Title: G Pages: 1 -->
<svg width="864pt" height="418pt"
 viewBox="0.00 0.00 864.00 417.85" xmlns="http://www.w3.org/2000/svg" xmlns:xlink="http://www.w3.org/1999/xlink">
<g id="graph1" class="graph" transform="scale(1 1) rotate(0) translate(4 413.85)">
<title>G</title>
<polygon fill="white" stroke="white" points="-4,5 -4,-413.85 861,-413.85 861,5 -4,5"/>
<!-- Node1 -->
<g id="node1" class="node"><title>Node1</title>
<polygon fill="#bfbfbf" stroke="black" points="800,-176.35 800,-197.35 856,-197.35 856,-176.35 800,-176.35"/>
<text text-anchor="middle" x="828" y="-184.35" font-family="Helvetica,sans-Serif" font-size="10.00">TextBox</text>
</g>
<!-- Node2 -->
<g id="node2" class="node"><title>Node2</title>
<a xlink:href="classThingPaintable.htm" target="_top" xlink:title="ThingPaintable">
<polygon fill="white" stroke="black" points="473.5,-296.35 473.5,-317.35 560.5,-317.35 560.5,-296.35 473.5,-296.35"/>
<text text-anchor="middle" x="517" y="-304.35" font-family="Helvetica,sans-Serif" font-size="10.00">ThingPaintable</text>
</a>
</g>
<!-- Node2&#45;&gt;Node1 -->
<g id="edge2" class="edge"><title>Node2&#45;&gt;Node1</title>
<path fill="none" stroke="midnightblue" d="M570.384,-319.31C627.954,-329.526 719.71,-336.114 782,-292.85 814.459,-270.305 824.202,-219.687 826.968,-197.553"/>
<polygon fill="midnightblue" stroke="midnightblue" points="570.871,-315.841 560.397,-317.441 569.583,-322.721 570.871,-315.841"/>
</g>
<!-- Node3 -->
<g id="node4" class="node"><title>Node3</title>
<a xlink:href="classThing.htm" target="_top" xlink:title="Thing">
<polygon fill="white" stroke="black" points="237,-296.35 237,-317.35 281,-317.35 281,-296.35 237,-296.35"/>
<text text-anchor="middle" x="259" y="-304.35" font-family="Helvetica,sans-Serif" font-size="10.00">Thing</text>
</a>
</g>
<!-- Node3&#45;&gt;Node2 -->
<g id="edge4" class="edge"><title>Node3&#45;&gt;Node2</title>
<path fill="none" stroke="midnightblue" d="M291.457,-306.85C337.422,-306.85 421.609,-306.85 473.111,-306.85"/>
<polygon fill="midnightblue" stroke="midnightblue" points="291.445,-303.35 281.444,-306.85 291.444,-310.35 291.445,-303.35"/>
</g>
<!-- Node4 -->
<g id="node6" class="node"><title>Node4</title>
<a xlink:href="classQGraphicsObject.htm" target="_top" xlink:title="QGraphicsObject">
<polygon fill="white" stroke="black" points="3,-316.35 3,-337.35 101,-337.35 101,-316.35 3,-316.35"/>
<text text-anchor="middle" x="52" y="-324.35" font-family="Helvetica,sans-Serif" font-size="10.00">QGraphicsObject</text>
</a>
</g>
<!-- Node4&#45;&gt;Node3 -->
<g id="edge6" class="edge"><title>Node4&#45;&gt;Node3</title>
<path fill="none" stroke="midnightblue" d="M111.177,-321.132C153.163,-317.075 207.148,-311.86 236.884,-308.986"/>
<polygon fill="midnightblue" stroke="midnightblue" points="110.673,-317.664 101.056,-322.11 111.346,-324.632 110.673,-317.664"/>
</g>
<!-- Node5 -->
<g id="node8" class="node"><title>Node5</title>
<polygon fill="white" stroke="#bfbfbf" points="0,-276.35 0,-297.35 104,-297.35 104,-276.35 0,-276.35"/>
<text text-anchor="middle" x="52" y="-284.35" font-family="Helvetica,sans-Serif" font-size="10.00">QPointer&lt; Thing &gt;</text>
</g>
<!-- Node5&#45;&gt;Node3 -->
<g id="edge8" class="edge"><title>Node5&#45;&gt;Node3</title>
<path fill="none" stroke="#9a32cd" stroke-dasharray="5,2" d="M114.129,-286.086C144.428,-286.588 181.302,-288.499 214,-293.85 221.544,-295.084 229.615,-297.165 236.809,-299.304"/>
<polygon fill="#9a32cd" stroke="#9a32cd" points="114.163,-282.586 104.122,-285.967 114.079,-289.586 114.163,-282.586"/>
<text text-anchor="middle" x="168" y="-297.85" font-family="Helvetica,sans-Serif" font-size="10.00"> m_qp_takerOwner</text>
</g>
<!-- Node6 -->
<g id="node10" class="node"><title>Node6</title>
<polygon fill="white" stroke="#bfbfbf" points="232.5,-346.35 232.5,-367.35 285.5,-367.35 285.5,-346.35 232.5,-346.35"/>
<text text-anchor="middle" x="259" y="-354.35" font-family="Helvetica,sans-Serif" font-size="10.00">QString</text>
</g>
<!-- Node6&#45;&gt;Node1 -->
<g id="edge22" class="edge"><title>Node6&#45;&gt;Node1</title>
<path fill="none" stroke="#9a32cd" stroke-dasharray="5,2" d="M295.45,-367.135C388.03,-390.877 635.27,-439.074 782,-323.85 802.621,-307.657 820.232,-226.591 826.003,-197.37"/>
<polygon fill="#9a32cd" stroke="#9a32cd" points="296.265,-363.731 285.704,-364.578 294.489,-370.502 296.265,-363.731"/>
<text text-anchor="middle" x="517" y="-400.85" font-family="Helvetica,sans-Serif" font-size="10.00"> m_innerText</text>
</g>
<!-- Node6&#45;&gt;Node2 -->
<g id="edge10" class="edge"><title>Node6&#45;&gt;Node2</title>
<path fill="none" stroke="#9a32cd" stroke-dasharray="5,2" d="M295.497,-343.246C298.355,-342.374 301.213,-341.561 304,-340.85 335.204,-332.884 420.629,-320.274 473.33,-312.856"/>
<polygon fill="#9a32cd" stroke="#9a32cd" points="294.298,-339.956 285.879,-346.389 296.472,-346.61 294.298,-339.956"/>
<text text-anchor="middle" x="366" y="-344.85" font-family="Helvetica,sans-Serif" font-size="10.00"> m_uiState</text>
</g>
<!-- Node7 -->
<g id="node12" class="node"><title>Node7</title>
<polygon fill="white" stroke="#bfbfbf" points="232.5,-206.35 232.5,-227.35 285.5,-227.35 285.5,-206.35 232.5,-206.35"/>
<text text-anchor="middle" x="259" y="-214.35" font-family="Helvetica,sans-Serif" font-size="10.00">QRectF</text>
</g>
<!-- Node7&#45;&gt;Node2 -->
<g id="edge12" class="edge"><title>Node7&#45;&gt;Node2</title>
<path fill="none" stroke="#9a32cd" stroke-dasharray="5,2" d="M295.654,-209.699C333.029,-204.618 390.677,-203.176 428,-232.85 447.802,-248.594 427.695,-269.388 446,-286.85 453.506,-294.009 463.37,-298.641 473.348,-301.627"/>
<polygon fill="#9a32cd" stroke="#9a32cd" points="295.048,-206.251 285.683,-211.206 296.094,-213.172 295.048,-206.251"/>
<text text-anchor="middle" x="366" y="-249.85" font-family="Helvetica,sans-Serif" font-size="10.00"> m_boundingRect</text>
<text text-anchor="middle" x="366" y="-236.85" font-family="Helvetica,sans-Serif" font-size="10.00">m_geom</text>
</g>
<!-- Node8 -->
<g id="node14" class="node"><title>Node8</title>
<a xlink:href="classint.htm" target="_top" xlink:title="int">
<polygon fill="white" stroke="black" points="244.5,-255.35 244.5,-276.35 273.5,-276.35 273.5,-255.35 244.5,-255.35"/>
<text text-anchor="middle" x="259" y="-263.35" font-family="Helvetica,sans-Serif" font-size="10.00">int</text>
</a>
</g>
<!-- Node8&#45;&gt;Node2 -->
<g id="edge14" class="edge"><title>Node8&#45;&gt;Node2</title>
<path fill="none" stroke="#9a32cd" stroke-dasharray="5,2" d="M284.113,-264.101C317.653,-262.522 378.582,-262.315 428,-276.85 436.78,-279.432 437.538,-283.363 446,-286.85 454.643,-290.411 464.131,-293.568 473.278,-296.261"/>
<polygon fill="#9a32cd" stroke="#9a32cd" points="283.635,-260.622 273.844,-264.67 284.023,-267.612 283.635,-260.622"/>
<text text-anchor="middle" x="366" y="-293.85" font-family="Helvetica,sans-Serif" font-size="10.00"> MagicTypePropertyValue</text>
<text text-anchor="middle" x="366" y="-280.85" font-family="Helvetica,sans-Serif" font-size="10.00">MagicTypePropertyKey</text>
</g>
<!-- Node9 -->
<g id="node16" class="node"><title>Node9</title>
<polygon fill="white" stroke="#bfbfbf" points="446.5,-256.35 446.5,-277.35 587.5,-277.35 587.5,-256.35 446.5,-256.35"/>
<text text-anchor="middle" x="517" y="-264.35" font-family="Helvetica,sans-Serif" font-size="10.00">QPointer&lt; PixmapObject &gt;</text>
</g>
<!-- Node9&#45;&gt;Node1 -->
<g id="edge16" class="edge"><title>Node9&#45;&gt;Node1</title>
<path fill="none" stroke="#9a32cd" stroke-dasharray="5,2" d="M598.09,-266.296C664.055,-264.61 751.091,-259.206 782,-242.85 801.127,-232.728 815.318,-210.928 822.57,-197.711"/>
<polygon fill="#9a32cd" stroke="#9a32cd" points="597.612,-262.806 587.696,-266.535 597.774,-269.804 597.612,-262.806"/>
<text text-anchor="middle" x="694" y="-282.85" font-family="Helvetica,sans-Serif" font-size="10.00"> m_qp_prerenderedInnerTextPixmap</text>
<text text-anchor="middle" x="694" y="-269.85" font-family="Helvetica,sans-Serif" font-size="10.00">m_qp_background</text>
</g>
<!-- Node10 -->
<g id="node18" class="node"><title>Node10</title>
<polygon fill="white" stroke="#bfbfbf" points="489.5,-216.35 489.5,-237.35 544.5,-237.35 544.5,-216.35 489.5,-216.35"/>
<text text-anchor="middle" x="517" y="-224.35" font-family="Helvetica,sans-Serif" font-size="10.00">QPointF</text>
</g>
<!-- Node10&#45;&gt;Node1 -->
<g id="edge18" class="edge"><title>Node10&#45;&gt;Node1</title>
<path fill="none" stroke="#9a32cd" stroke-dasharray="5,2" d="M554.916,-226.724C606.795,-225.837 702.529,-221.645 782,-203.85 788.979,-202.287 796.331,-199.919 803.059,-197.444"/>
<polygon fill="#9a32cd" stroke="#9a32cd" points="554.789,-223.225 544.838,-226.863 554.886,-230.224 554.789,-223.225"/>
<text text-anchor="middle" x="694" y="-229.85" font-family="Helvetica,sans-Serif" font-size="10.00"> m_innerTextPosICS</text>
</g>
<!-- Node11 -->
<g id="node20" class="node"><title>Node11</title>
<polygon fill="white" stroke="#bfbfbf" points="478.5,-176.35 478.5,-197.35 555.5,-197.35 555.5,-176.35 478.5,-176.35"/>
<text text-anchor="middle" x="517" y="-184.35" font-family="Helvetica,sans-Serif" font-size="10.00">QTextLayout</text>
</g>
<!-- Node11&#45;&gt;Node1 -->
<g id="edge20" class="edge"><title>Node11&#45;&gt;Node1</title>
<path fill="none" stroke="#9a32cd" stroke-dasharray="5,2" d="M565.89,-186.85C631.752,-186.85 746.816,-186.85 799.811,-186.85"/>
<polygon fill="#9a32cd" stroke="#9a32cd" points="565.76,-183.35 555.76,-186.85 565.76,-190.35 565.76,-183.35"/>
<text text-anchor="middle" x="694" y="-190.85" font-family="Helvetica,sans-Serif" font-size="10.00"> m_textLayoutObject</text>
</g>
<!-- Node12 -->
<g id="node23" class="node"><title>Node12</title>
<polygon fill="white" stroke="#bfbfbf" points="498,-136.35 498,-157.35 536,-157.35 536,-136.35 498,-136.35"/>
<text text-anchor="middle" x="517" y="-144.35" font-family="Helvetica,sans-Serif" font-size="10.00">char</text>
</g>
<!-- Node12&#45;&gt;Node1 -->
<g id="edge24" class="edge"><title>Node12&#45;&gt;Node1</title>
<path fill="none" stroke="#9a32cd" stroke-dasharray="5,2" d="M546.484,-146.855C595.829,-147.428 698,-151.04 782,-169.85 788.979,-171.412 796.331,-173.78 803.059,-176.256"/>
<polygon fill="#9a32cd" stroke="#9a32cd" points="546.253,-143.353 536.225,-146.771 546.196,-150.352 546.253,-143.353"/>
<text text-anchor="middle" x="694" y="-173.85" font-family="Helvetica,sans-Serif" font-size="10.00"> InnerTextPropertyName</text>
</g>
<!-- Node13 -->
<g id="node25" class="node"><title>Node13</title>
<polygon fill="white" stroke="#bfbfbf" points="494,-96.3497 494,-117.35 540,-117.35 540,-96.3497 494,-96.3497"/>
<text text-anchor="middle" x="517" y="-104.35" font-family="Helvetica,sans-Serif" font-size="10.00">QFont</text>
</g>
<!-- Node13&#45;&gt;Node1 -->
<g id="edge26" class="edge"><title>Node13&#45;&gt;Node1</title>
<path fill="none" stroke="#9a32cd" stroke-dasharray="5,2" d="M550.378,-102.263C602.956,-96.6639 706.812,-92.3068 782,-131.85 800.95,-141.816 815.201,-163.218 822.513,-176.19"/>
<polygon fill="#9a32cd" stroke="#9a32cd" points="549.802,-98.8057 540.267,-103.424 550.601,-105.76 549.802,-98.8057"/>
<text text-anchor="middle" x="694" y="-135.85" font-family="Helvetica,sans-Serif" font-size="10.00"> s_textFont</text>
</g>
<!-- Node14 -->
<g id="node27" class="node"><title>Node14</title>
<polygon fill="white" stroke="#bfbfbf" points="493.5,-53.3497 493.5,-74.3497 540.5,-74.3497 540.5,-53.3497 493.5,-53.3497"/>
<text text-anchor="middle" x="517" y="-61.3497" font-family="Helvetica,sans-Serif" font-size="10.00">QRect</text>
</g>
<!-- Node14&#45;&gt;Node1 -->
<g id="edge28" class="edge"><title>Node14&#45;&gt;Node1</title>
<path fill="none" stroke="#9a32cd" stroke-dasharray="5,2" d="M550.783,-59.9783C613.668,-53.4896 745.607,-43.4695 782,-68.8497 800.486,-81.7417 818.863,-149.654 825.451,-176.201"/>
<polygon fill="#9a32cd" stroke="#9a32cd" points="550.168,-56.5239 540.594,-61.0615 550.908,-63.4847 550.168,-56.5239"/>
<text text-anchor="middle" x="694" y="-85.8497" font-family="Helvetica,sans-Serif" font-size="10.00"> m_innerTextMaxGeom</text>
<text text-anchor="middle" x="694" y="-72.8497" font-family="Helvetica,sans-Serif" font-size="10.00">m_innerTextGeom</text>
</g>
<!-- Node15 -->
<g id="node29" class="node"><title>Node15</title>
<polygon fill="white" stroke="#bfbfbf" points="492.5,-13.3497 492.5,-34.3497 541.5,-34.3497 541.5,-13.3497 492.5,-13.3497"/>
<text text-anchor="middle" x="517" y="-21.3497" font-family="Helvetica,sans-Serif" font-size="10.00">QPoint</text>
</g>
<!-- Node15&#45;&gt;Node1 -->
<g id="edge30" class="edge"><title>Node15&#45;&gt;Node1</title>
<path fill="none" stroke="#9a32cd" stroke-dasharray="5,2" d="M551.67,-13.9631C606.745,-0.528189 714.846,16.2873 782,-35.8497 804.837,-53.58 821.278,-144.663 826.353,-176.136"/>
<polygon fill="#9a32cd" stroke="#9a32cd" points="550.535,-10.6404 541.707,-16.4992 552.262,-17.424 550.535,-10.6404"/>
<text text-anchor="middle" x="694" y="-39.8497" font-family="Helvetica,sans-Serif" font-size="10.00"> m_innerTextPosPntCS</text>
</g>
</g>
</svg>
