<?xml version="1.0" encoding="UTF-8" standalone="no"?>
<!DOCTYPE svg PUBLIC "-//W3C//DTD SVG 1.1//EN"
 "http://www.w3.org/Graphics/SVG/1.1/DTD/svg11.dtd">
<!-- Generated by graphviz version 2.26.3 (20100126.1600)
 -->
<!-- Title: G Pages: 1 -->
<svg width="814pt" height="90pt"
 viewBox="0.00 0.00 814.00 90.00" xmlns="http://www.w3.org/2000/svg" xmlns:xlink="http://www.w3.org/1999/xlink">
<g id="graph1" class="graph" transform="scale(1 1) rotate(0) translate(4 86)">
<title>G</title>
<polygon fill="white" stroke="white" points="-4,5 -4,-86 811,-86 811,5 -4,5"/>
<!-- Node1 -->
<g id="node1" class="node"><title>Node1</title>
<polygon fill="#bfbfbf" stroke="black" points="576,-44.5 576,-65.5 806,-65.5 806,-44.5 576,-44.5"/>
<text text-anchor="middle" x="691" y="-52.5" font-family="Helvetica,sans-Serif" font-size="10.00">Slot&lt; Receiver, Arg0, Arg1, Arg2, Arg3, void &gt;</text>
</g>
<!-- Node2 -->
<g id="node2" class="node"><title>Node2</title>
<a xlink:href="classSlotBase.htm" target="_top" xlink:title="SlotBase\&lt; Arg0, Arg1, Arg2, Arg3 \&gt;">
<polygon fill="white" stroke="black" points="294,-60.5 294,-81.5 476,-81.5 476,-60.5 294,-60.5"/>
<text text-anchor="middle" x="385" y="-68.5" font-family="Helvetica,sans-Serif" font-size="10.00">SlotBase&lt; Arg0, Arg1, Arg2, Arg3 &gt;</text>
</a>
</g>
<!-- Node2&#45;&gt;Node1 -->
<g id="edge2" class="edge"><title>Node2&#45;&gt;Node1</title>
<path fill="none" stroke="midnightblue" d="M486.416,-65.6972C515.09,-64.1979 546.501,-62.5555 575.917,-61.0174"/>
<polygon fill="midnightblue" stroke="midnightblue" points="486.199,-62.2037 476.396,-66.2211 486.565,-69.1941 486.199,-62.2037"/>
</g>
<!-- Node3 -->
<g id="node4" class="node"><title>Node3</title>
<a xlink:href="classFunctionWrapper.htm" target="_top" xlink:title="FunctionWrapper\&lt; void(Receiver::*)(Arg0, Arg1, Arg2, Arg3)\&gt;">
<polygon fill="white" stroke="black" points="232.5,-20.5 232.5,-41.5 537.5,-41.5 537.5,-20.5 232.5,-20.5"/>
<text text-anchor="middle" x="385" y="-28.5" font-family="Helvetica,sans-Serif" font-size="10.00">FunctionWrapper&lt; void(Receiver::*)(Arg0, Arg1, Arg2, Arg3)&gt;</text>
</a>
</g>
<!-- Node3&#45;&gt;Node1 -->
<g id="edge4" class="edge"><title>Node3&#45;&gt;Node1</title>
<path fill="none" stroke="midnightblue" d="M529.375,-42.3235C544.869,-43.5388 560.482,-44.7633 575.575,-45.9471"/>
<polygon fill="midnightblue" stroke="midnightblue" points="529.459,-38.8195 519.216,-41.5267 528.912,-45.798 529.459,-38.8195"/>
</g>
<!-- Node4 -->
<g id="node6" class="node"><title>Node4</title>
<a xlink:href="classvoid_07Receiver_1_1_5_08_07Arg0_00_01Arg1_00_01Arg2_00_01Arg3_08.htm" target="_top" xlink:title="*)(Arg0, Arg1, Arg2, Arg3)">
<polygon fill="white" stroke="black" points="0.5,-40.5 0.5,-61.5 139.5,-61.5 139.5,-40.5 0.5,-40.5"/>
<text text-anchor="middle" x="70" y="-48.5" font-family="Helvetica,sans-Serif" font-size="10.00">*)(Arg0, Arg1, Arg2, Arg3)</text>
</a>
</g>
<!-- Node4&#45;&gt;Node3 -->
<g id="edge6" class="edge"><title>Node4&#45;&gt;Node3</title>
<path fill="none" stroke="#9a32cd" stroke-dasharray="5,2" d="M149.745,-45.9368C175.003,-44.3332 203.821,-42.5034 232.424,-40.6874"/>
<polygon fill="#9a32cd" stroke="#9a32cd" points="149.276,-42.4595 139.518,-46.5862 149.72,-49.4454 149.276,-42.4595"/>
<text text-anchor="middle" x="186" y="-49" font-family="Helvetica,sans-Serif" font-size="10.00"> m_function</text>
</g>
<!-- Node5 -->
<g id="node8" class="node"><title>Node5</title>
<a xlink:href="classTrackable.htm" target="_top" xlink:title="Trackable">
<polygon fill="white" stroke="black" points="38.5,-0.5 38.5,-21.5 101.5,-21.5 101.5,-0.5 38.5,-0.5"/>
<text text-anchor="middle" x="70" y="-8.5" font-family="Helvetica,sans-Serif" font-size="10.00">Trackable</text>
</a>
</g>
<!-- Node5&#45;&gt;Node3 -->
<g id="edge8" class="edge"><title>Node5&#45;&gt;Node3</title>
<path fill="none" stroke="#9a32cd" stroke-dasharray="5,2" d="M111.716,-13.6486C143.011,-15.6356 187.931,-18.4877 232.337,-21.3071"/>
<polygon fill="#9a32cd" stroke="#9a32cd" points="111.847,-10.15 101.646,-13.0092 111.404,-17.136 111.847,-10.15"/>
<text text-anchor="middle" x="186" y="-23" font-family="Helvetica,sans-Serif" font-size="10.00"> m_receiver</text>
</g>
</g>
</svg>
