<?xml version="1.0" encoding="UTF-8" standalone="no"?>
<!DOCTYPE svg PUBLIC "-//W3C//DTD SVG 1.1//EN"
 "http://www.w3.org/Graphics/SVG/1.1/DTD/svg11.dtd">
<!-- Generated by graphviz version 2.26.3 (20100126.1600)
 -->
<!-- Title: G Pages: 1 -->
<svg width="382pt" height="470pt"
 viewBox="0.00 0.00 382.00 470.00" xmlns="http://www.w3.org/2000/svg" xmlns:xlink="http://www.w3.org/1999/xlink">
<g id="graph1" class="graph" transform="scale(1 1) rotate(0) translate(4 466)">
<title>G</title>
<polygon fill="white" stroke="white" points="-4,5 -4,-466 379,-466 379,5 -4,5"/>
<!-- Node1 -->
<g id="node1" class="node"><title>Node1</title>
<polygon fill="#bfbfbf" stroke="black" points="0,-220.5 0,-241.5 130,-241.5 130,-220.5 0,-220.5"/>
<text text-anchor="middle" x="65" y="-228.5" font-family="Helvetica,sans-Serif" font-size="10.00">HALConnectorObserver</text>
</g>
<!-- Node2 -->
<g id="node3" class="node"><title>Node2</title>
<a xlink:href="classHostArm.htm" target="_top" xlink:title="HostArm">
<polygon fill="white" stroke="black" points="166.5,-220.5 166.5,-241.5 223.5,-241.5 223.5,-220.5 166.5,-220.5"/>
<text text-anchor="middle" x="195" y="-228.5" font-family="Helvetica,sans-Serif" font-size="10.00">HostArm</text>
</a>
</g>
<!-- Node1&#45;&gt;Node2 -->
<g id="edge2" class="edge"><title>Node1&#45;&gt;Node2</title>
<path fill="none" stroke="midnightblue" d="M140.418,-231C149.598,-231 158.493,-231 166.345,-231"/>
<polygon fill="midnightblue" stroke="midnightblue" points="140.381,-227.5 130.381,-231 140.381,-234.5 140.381,-227.5"/>
</g>
<!-- Node3 -->
<g id="node5" class="node"><title>Node3</title>
<a xlink:href="classHostArmBroadway.htm" target="_top" xlink:title="HostArmBroadway">
<polygon fill="white" stroke="black" points="265,-440.5 265,-461.5 369,-461.5 369,-440.5 265,-440.5"/>
<text text-anchor="middle" x="317" y="-448.5" font-family="Helvetica,sans-Serif" font-size="10.00">HostArmBroadway</text>
</a>
</g>
<!-- Node2&#45;&gt;Node3 -->
<g id="edge4" class="edge"><title>Node2&#45;&gt;Node3</title>
<path fill="none" stroke="midnightblue" d="M199.238,-251.453C209.045,-296.999 234.425,-404.824 260,-431 263.738,-434.826 268.249,-437.921 273.076,-440.425"/>
<polygon fill="midnightblue" stroke="midnightblue" points="202.634,-250.596 197.139,-241.538 195.786,-252.046 202.634,-250.596"/>
</g>
<!-- Node4 -->
<g id="node7" class="node"><title>Node4</title>
<a xlink:href="classHostArmCastle.htm" target="_top" xlink:title="HostArmCastle">
<polygon fill="white" stroke="black" points="273.5,-400.5 273.5,-421.5 360.5,-421.5 360.5,-400.5 273.5,-400.5"/>
<text text-anchor="middle" x="317" y="-408.5" font-family="Helvetica,sans-Serif" font-size="10.00">HostArmCastle</text>
</a>
</g>
<!-- Node2&#45;&gt;Node4 -->
<g id="edge6" class="edge"><title>Node2&#45;&gt;Node4</title>
<path fill="none" stroke="midnightblue" d="M197.868,-251.731C203.61,-285.517 219.628,-352.538 260,-391 264.024,-394.834 268.825,-397.938 273.909,-400.449"/>
<polygon fill="midnightblue" stroke="midnightblue" points="201.292,-250.978 196.294,-241.636 194.376,-252.056 201.292,-250.978"/>
</g>
<!-- Node5 -->
<g id="node9" class="node"><title>Node5</title>
<a xlink:href="classHostArmChile.htm" target="_top" xlink:title="HostArmChile">
<polygon fill="white" stroke="black" points="276.5,-360.5 276.5,-381.5 357.5,-381.5 357.5,-360.5 276.5,-360.5"/>
<text text-anchor="middle" x="317" y="-368.5" font-family="Helvetica,sans-Serif" font-size="10.00">HostArmChile</text>
</a>
</g>
<!-- Node2&#45;&gt;Node5 -->
<g id="edge8" class="edge"><title>Node2&#45;&gt;Node5</title>
<path fill="none" stroke="midnightblue" d="M200.942,-251.404C209.678,-277.954 228.463,-324.117 260,-351 264.789,-355.082 270.464,-358.349 276.347,-360.959"/>
<polygon fill="midnightblue" stroke="midnightblue" points="204.217,-250.151 197.896,-241.649 197.535,-252.238 204.217,-250.151"/>
</g>
<!-- Node6 -->
<g id="node11" class="node"><title>Node6</title>
<a xlink:href="classHostArmMantaray.htm" target="_top" xlink:title="HostArmMantaray">
<polygon fill="white" stroke="black" points="266,-320.5 266,-341.5 368,-341.5 368,-320.5 266,-320.5"/>
<text text-anchor="middle" x="317" y="-328.5" font-family="Helvetica,sans-Serif" font-size="10.00">HostArmMantaray</text>
</a>
</g>
<!-- Node2&#45;&gt;Node6 -->
<g id="edge10" class="edge"><title>Node2&#45;&gt;Node6</title>
<path fill="none" stroke="midnightblue" d="M206.216,-250.202C217.646,-268.228 236.94,-294.781 260,-311 265.318,-314.741 271.404,-317.843 277.573,-320.396"/>
<polygon fill="midnightblue" stroke="midnightblue" points="209.186,-248.35 200.977,-241.652 203.218,-252.008 209.186,-248.35"/>
</g>
<!-- Node7 -->
<g id="node13" class="node"><title>Node7</title>
<a xlink:href="classHostArmOpal.htm" target="_top" xlink:title="HostArmOpal">
<polygon fill="white" stroke="black" points="277,-280.5 277,-301.5 357,-301.5 357,-280.5 277,-280.5"/>
<text text-anchor="middle" x="317" y="-288.5" font-family="Helvetica,sans-Serif" font-size="10.00">HostArmOpal</text>
</a>
</g>
<!-- Node2&#45;&gt;Node7 -->
<g id="edge12" class="edge"><title>Node2&#45;&gt;Node7</title>
<path fill="none" stroke="midnightblue" d="M218.772,-247.332C230.786,-255.14 245.797,-264.234 260,-271 267.29,-274.473 275.352,-277.666 283.061,-280.433"/>
<polygon fill="midnightblue" stroke="midnightblue" points="220.501,-244.279 210.232,-241.672 216.634,-250.114 220.501,-244.279"/>
</g>
<!-- Node8 -->
<g id="node15" class="node"><title>Node8</title>
<a xlink:href="classHostArmPixie.htm" target="_top" xlink:title="HostArmPixie">
<polygon fill="white" stroke="black" points="277,-240.5 277,-261.5 357,-261.5 357,-240.5 277,-240.5"/>
<text text-anchor="middle" x="317" y="-248.5" font-family="Helvetica,sans-Serif" font-size="10.00">HostArmPixie</text>
</a>
</g>
<!-- Node2&#45;&gt;Node8 -->
<g id="edge14" class="edge"><title>Node2&#45;&gt;Node8</title>
<path fill="none" stroke="midnightblue" d="M233.666,-237.339C247.34,-239.58 262.75,-242.107 276.566,-244.372"/>
<polygon fill="midnightblue" stroke="midnightblue" points="234.038,-233.853 223.604,-235.689 232.906,-240.761 234.038,-233.853"/>
</g>
<!-- Node9 -->
<g id="node17" class="node"><title>Node9</title>
<a xlink:href="classHostArmQemu.htm" target="_top" xlink:title="HostArmQemu">
<polygon fill="white" stroke="black" points="274.5,-200.5 274.5,-221.5 359.5,-221.5 359.5,-200.5 274.5,-200.5"/>
<text text-anchor="middle" x="317" y="-208.5" font-family="Helvetica,sans-Serif" font-size="10.00">HostArmQemu</text>
</a>
</g>
<!-- Node2&#45;&gt;Node9 -->
<g id="edge16" class="edge"><title>Node2&#45;&gt;Node9</title>
<path fill="none" stroke="midnightblue" d="M233.583,-224.675C246.512,-222.555 261.001,-220.18 274.23,-218.011"/>
<polygon fill="midnightblue" stroke="midnightblue" points="232.906,-221.239 223.604,-226.311 234.038,-228.147 232.906,-221.239"/>
</g>
<!-- Node10 -->
<g id="node19" class="node"><title>Node10</title>
<a xlink:href="classHostArmTopaz.htm" target="_top" xlink:title="HostArmTopaz">
<polygon fill="white" stroke="black" points="273.5,-160.5 273.5,-181.5 360.5,-181.5 360.5,-160.5 273.5,-160.5"/>
<text text-anchor="middle" x="317" y="-168.5" font-family="Helvetica,sans-Serif" font-size="10.00">HostArmTopaz</text>
</a>
</g>
<!-- Node2&#45;&gt;Node10 -->
<g id="edge18" class="edge"><title>Node2&#45;&gt;Node10</title>
<path fill="none" stroke="midnightblue" d="M218.772,-214.668C230.786,-206.86 245.797,-197.766 260,-191 267.29,-187.527 275.352,-184.334 283.061,-181.567"/>
<polygon fill="midnightblue" stroke="midnightblue" points="216.634,-211.886 210.232,-220.328 220.501,-217.721 216.634,-211.886"/>
</g>
<!-- Node11 -->
<g id="node21" class="node"><title>Node11</title>
<a xlink:href="classHostArmUnknown.htm" target="_top" xlink:title="HostArmUnknown">
<polygon fill="white" stroke="black" points="266.5,-120.5 266.5,-141.5 367.5,-141.5 367.5,-120.5 266.5,-120.5"/>
<text text-anchor="middle" x="317" y="-128.5" font-family="Helvetica,sans-Serif" font-size="10.00">HostArmUnknown</text>
</a>
</g>
<!-- Node2&#45;&gt;Node11 -->
<g id="edge20" class="edge"><title>Node2&#45;&gt;Node11</title>
<path fill="none" stroke="midnightblue" d="M206.216,-211.798C217.646,-193.772 236.94,-167.219 260,-151 265.318,-147.259 271.404,-144.157 277.573,-141.604"/>
<polygon fill="midnightblue" stroke="midnightblue" points="203.218,-209.992 200.977,-220.348 209.186,-213.65 203.218,-209.992"/>
</g>
<!-- Node12 -->
<g id="node23" class="node"><title>Node12</title>
<a xlink:href="classHostArmWindsor.htm" target="_top" xlink:title="HostArmWindsor">
<polygon fill="white" stroke="black" points="269,-80.5 269,-101.5 365,-101.5 365,-80.5 269,-80.5"/>
<text text-anchor="middle" x="317" y="-88.5" font-family="Helvetica,sans-Serif" font-size="10.00">HostArmWindsor</text>
</a>
</g>
<!-- Node2&#45;&gt;Node12 -->
<g id="edge22" class="edge"><title>Node2&#45;&gt;Node12</title>
<path fill="none" stroke="midnightblue" d="M200.942,-210.596C209.678,-184.046 228.463,-137.883 260,-111 264.469,-107.19 269.711,-104.09 275.173,-101.571"/>
<polygon fill="midnightblue" stroke="midnightblue" points="197.535,-209.762 197.896,-220.351 204.217,-211.849 197.535,-209.762"/>
</g>
<!-- Node13 -->
<g id="node25" class="node"><title>Node13</title>
<a xlink:href="classHostArmWindsorNot.htm" target="_top" xlink:title="HostArmWindsorNot">
<polygon fill="white" stroke="black" points="260.5,-40.5 260.5,-61.5 373.5,-61.5 373.5,-40.5 260.5,-40.5"/>
<text text-anchor="middle" x="317" y="-48.5" font-family="Helvetica,sans-Serif" font-size="10.00">HostArmWindsorNot</text>
</a>
</g>
<!-- Node2&#45;&gt;Node13 -->
<g id="edge24" class="edge"><title>Node2&#45;&gt;Node13</title>
<path fill="none" stroke="midnightblue" d="M197.868,-210.269C203.61,-176.483 219.628,-109.462 260,-71 264.024,-67.166 268.825,-64.0623 273.909,-61.5508"/>
<polygon fill="midnightblue" stroke="midnightblue" points="194.376,-209.944 196.294,-220.364 201.292,-211.022 194.376,-209.944"/>
</g>
<!-- Node14 -->
<g id="node27" class="node"><title>Node14</title>
<a xlink:href="classHostArmZepfloyd.htm" target="_top" xlink:title="HostArmZepfloyd">
<polygon fill="white" stroke="black" points="268,-0.5 268,-21.5 366,-21.5 366,-0.5 268,-0.5"/>
<text text-anchor="middle" x="317" y="-8.5" font-family="Helvetica,sans-Serif" font-size="10.00">HostArmZepfloyd</text>
</a>
</g>
<!-- Node2&#45;&gt;Node14 -->
<g id="edge26" class="edge"><title>Node2&#45;&gt;Node14</title>
<path fill="none" stroke="midnightblue" d="M199.238,-210.547C209.045,-165.001 234.425,-57.1759 260,-31 263.738,-27.1744 268.249,-24.0792 273.076,-21.5754"/>
<polygon fill="midnightblue" stroke="midnightblue" points="195.786,-209.954 197.139,-220.462 202.634,-211.404 195.786,-209.954"/>
</g>
</g>
</svg>
