<?xml version="1.0" encoding="UTF-8" standalone="no"?>
<!DOCTYPE svg PUBLIC "-//W3C//DTD SVG 1.1//EN"
 "http://www.w3.org/Graphics/SVG/1.1/DTD/svg11.dtd">
<!-- Generated by graphviz version 2.26.3 (20100126.1600)
 -->
<!-- Title: G Pages: 1 -->
<svg width="226pt" height="204pt"
 viewBox="0.00 0.00 226.00 204.00" xmlns="http://www.w3.org/2000/svg" xmlns:xlink="http://www.w3.org/1999/xlink">
<g id="graph1" class="graph" transform="scale(1 1) rotate(0) translate(4 200)">
<title>G</title>
<polygon fill="white" stroke="white" points="-4,5 -4,-200 223,-200 223,5 -4,5"/>
<!-- Node1 -->
<g id="node1" class="node"><title>Node1</title>
<polygon fill="#bfbfbf" stroke="black" points="48,-0.5 48,-21.5 156,-21.5 156,-0.5 48,-0.5"/>
<text text-anchor="middle" x="102" y="-8.5" font-family="Helvetica,sans-Serif" font-size="10.00">DashboardWebApp</text>
</g>
<!-- Node2 -->
<g id="node2" class="node"><title>Node2</title>
<a xlink:href="classWindowedWebApp.htm" target="_top" xlink:title="WindowedWebApp">
<polygon fill="white" stroke="black" points="49,-58.5 49,-79.5 155,-79.5 155,-58.5 49,-58.5"/>
<text text-anchor="middle" x="102" y="-66.5" font-family="Helvetica,sans-Serif" font-size="10.00">WindowedWebApp</text>
</a>
</g>
<!-- Node2&#45;&gt;Node1 -->
<g id="edge2" class="edge"><title>Node2&#45;&gt;Node1</title>
<path fill="none" stroke="midnightblue" d="M102,-48.1906C102,-39.1684 102,-28.9941 102,-21.5707"/>
<polygon fill="midnightblue" stroke="midnightblue" points="98.5001,-48.3619 102,-58.3619 105.5,-48.3619 98.5001,-48.3619"/>
</g>
<!-- Node3 -->
<g id="node4" class="node"><title>Node3</title>
<a xlink:href="classWebAppBase.htm" target="_top" xlink:title="WebAppBase">
<polygon fill="white" stroke="black" points="4,-116.5 4,-137.5 84,-137.5 84,-116.5 4,-116.5"/>
<text text-anchor="middle" x="44" y="-124.5" font-family="Helvetica,sans-Serif" font-size="10.00">WebAppBase</text>
</a>
</g>
<!-- Node3&#45;&gt;Node2 -->
<g id="edge4" class="edge"><title>Node3&#45;&gt;Node2</title>
<path fill="none" stroke="midnightblue" d="M61.882,-109.118C71.5623,-99.4377 83.1902,-87.8098 91.4293,-79.5707"/>
<polygon fill="midnightblue" stroke="midnightblue" points="59.2343,-106.816 54.6381,-116.362 64.1841,-111.766 59.2343,-106.816"/>
</g>
<!-- Node4 -->
<g id="node6" class="node"><title>Node4</title>
<a xlink:href="classWebPageClient.htm" target="_top" xlink:title="WebPageClient">
<polygon fill="white" stroke="black" points="-0.5,-174.5 -0.5,-195.5 88.5,-195.5 88.5,-174.5 -0.5,-174.5"/>
<text text-anchor="middle" x="44" y="-182.5" font-family="Helvetica,sans-Serif" font-size="10.00">WebPageClient</text>
</a>
</g>
<!-- Node4&#45;&gt;Node3 -->
<g id="edge6" class="edge"><title>Node4&#45;&gt;Node3</title>
<path fill="none" stroke="midnightblue" d="M44,-164.191C44,-155.168 44,-144.994 44,-137.571"/>
<polygon fill="midnightblue" stroke="midnightblue" points="40.5001,-164.362 44,-174.362 47.5001,-164.362 40.5001,-164.362"/>
</g>
<!-- Node5 -->
<g id="node8" class="node"><title>Node5</title>
<a xlink:href="classPIpcChannelListener.htm" target="_top" xlink:title="PIpcChannelListener">
<polygon fill="white" stroke="black" points="102,-116.5 102,-137.5 218,-137.5 218,-116.5 102,-116.5"/>
<text text-anchor="middle" x="160" y="-124.5" font-family="Helvetica,sans-Serif" font-size="10.00">PIpcChannelListener</text>
</a>
</g>
<!-- Node5&#45;&gt;Node2 -->
<g id="edge8" class="edge"><title>Node5&#45;&gt;Node2</title>
<path fill="none" stroke="midnightblue" d="M142.118,-109.118C132.438,-99.4377 120.81,-87.8098 112.571,-79.5707"/>
<polygon fill="midnightblue" stroke="midnightblue" points="139.816,-111.766 149.362,-116.362 144.766,-106.816 139.816,-111.766"/>
</g>
</g>
</svg>
