<?xml version="1.0" encoding="UTF-8" standalone="no"?>
<!DOCTYPE svg PUBLIC "-//W3C//DTD SVG 1.1//EN"
 "http://www.w3.org/Graphics/SVG/1.1/DTD/svg11.dtd">
<!-- Generated by graphviz version 2.26.3 (20100126.1600)
 -->
<!-- Title: G Pages: 1 -->
<svg width="592pt" height="204pt"
 viewBox="0.00 0.00 592.18 204.00" xmlns="http://www.w3.org/2000/svg" xmlns:xlink="http://www.w3.org/1999/xlink">
<g id="graph1" class="graph" transform="scale(1 1) rotate(0) translate(4 200)">
<title>G</title>
<polygon fill="white" stroke="white" points="-4,5 -4,-200 589.184,-200 589.184,5 -4,5"/>
<!-- Node1 -->
<g id="node1" class="node"><title>Node1</title>
<polygon fill="#bfbfbf" stroke="black" points="165.684,-174.5 165.684,-195.5 254.684,-195.5 254.684,-174.5 165.684,-174.5"/>
<text text-anchor="middle" x="210.184" y="-182.5" font-family="Helvetica,sans-Serif" font-size="10.00">ClockWindow.h</text>
</g>
<!-- Node2 -->
<g id="node3" class="node"><title>Node2</title>
<a xlink:href="Common_8h.htm" target="_top" xlink:title="Common.h">
<polygon fill="white" stroke="black" points="17.6838,-0.5 17.6838,-21.5 84.6838,-21.5 84.6838,-0.5 17.6838,-0.5"/>
<text text-anchor="middle" x="51.1838" y="-8.5" font-family="Helvetica,sans-Serif" font-size="10.00">Common.h</text>
</a>
</g>
<!-- Node1&#45;&gt;Node2 -->
<g id="edge2" class="edge"><title>Node1&#45;&gt;Node2</title>
<path fill="none" stroke="midnightblue" d="M165.664,-179.569C115.95,-172.576 39.8622,-158.793 20.1838,-138 -4.486,-111.933 -3.61503,-91.5304 9.1838,-58 13.3984,-46.9586 21.532,-36.8684 29.5279,-28.8919"/>
<polygon fill="midnightblue" stroke="midnightblue" points="32.3723,-31.0277 37.3276,-21.6631 27.614,-25.8937 32.3723,-31.0277"/>
</g>
<!-- Node3 -->
<g id="node5" class="node"><title>Node3</title>
<a xlink:href="Timer_8h.htm" target="_top" xlink:title="Timer.h">
<polygon fill="white" stroke="black" points="29.1838,-116.5 29.1838,-137.5 81.1838,-137.5 81.1838,-116.5 29.1838,-116.5"/>
<text text-anchor="middle" x="55.1838" y="-124.5" font-family="Helvetica,sans-Serif" font-size="10.00">Timer.h</text>
</a>
</g>
<!-- Node1&#45;&gt;Node3 -->
<g id="edge4" class="edge"><title>Node1&#45;&gt;Node3</title>
<path fill="none" stroke="midnightblue" d="M182.114,-174.497C156.552,-164.931 118.675,-150.758 90.9516,-140.384"/>
<polygon fill="midnightblue" stroke="midnightblue" points="91.831,-136.976 81.2386,-136.75 89.3777,-143.532 91.831,-136.976"/>
</g>
<!-- Node6 -->
<g id="node12" class="node"><title>Node6</title>
<a xlink:href="sptr_8h.htm" target="_top" xlink:title="sptr.h">
<polygon fill="white" stroke="black" points="161.684,-58.5 161.684,-79.5 204.684,-79.5 204.684,-58.5 161.684,-58.5"/>
<text text-anchor="middle" x="183.184" y="-66.5" font-family="Helvetica,sans-Serif" font-size="10.00">sptr.h</text>
</a>
</g>
<!-- Node1&#45;&gt;Node6 -->
<g id="edge12" class="edge"><title>Node1&#45;&gt;Node6</title>
<path fill="none" stroke="midnightblue" d="M207.692,-174.295C203.212,-155.045 193.725,-114.289 187.957,-89.5091"/>
<polygon fill="midnightblue" stroke="midnightblue" points="191.345,-88.6254 185.669,-79.6792 184.528,-90.2123 191.345,-88.6254"/>
</g>
<!-- Node7 -->
<g id="node16" class="node"><title>Node7</title>
<a xlink:href="Event_8h.htm" target="_top" xlink:title="Event.h">
<polygon fill="white" stroke="black" points="211.184,-116.5 211.184,-137.5 263.184,-137.5 263.184,-116.5 211.184,-116.5"/>
<text text-anchor="middle" x="237.184" y="-124.5" font-family="Helvetica,sans-Serif" font-size="10.00">Event.h</text>
</a>
</g>
<!-- Node1&#45;&gt;Node7 -->
<g id="edge18" class="edge"><title>Node1&#45;&gt;Node7</title>
<path fill="none" stroke="midnightblue" d="M215.136,-174.362C218.714,-166.677 223.652,-156.069 227.948,-146.84"/>
<polygon fill="midnightblue" stroke="midnightblue" points="231.216,-148.114 232.263,-137.571 224.87,-145.159 231.216,-148.114"/>
</g>
<!-- Node12 -->
<g id="node30" class="node"><title>Node12</title>
<polygon fill="white" stroke="#bfbfbf" points="280.684,-116.5 280.684,-137.5 335.684,-137.5 335.684,-116.5 280.684,-116.5"/>
<text text-anchor="middle" x="308.184" y="-124.5" font-family="Helvetica,sans-Serif" font-size="10.00">QObject</text>
</g>
<!-- Node1&#45;&gt;Node12 -->
<g id="edge36" class="edge"><title>Node1&#45;&gt;Node12</title>
<path fill="none" stroke="midnightblue" d="M228.159,-174.362C243.078,-165.532 264.516,-152.844 281.449,-142.822"/>
<polygon fill="midnightblue" stroke="midnightblue" points="283.5,-145.676 290.323,-137.571 279.935,-139.652 283.5,-145.676"/>
</g>
<!-- Node13 -->
<g id="node32" class="node"><title>Node13</title>
<polygon fill="white" stroke="#bfbfbf" points="353.184,-116.5 353.184,-137.5 451.184,-137.5 451.184,-116.5 353.184,-116.5"/>
<text text-anchor="middle" x="402.184" y="-124.5" font-family="Helvetica,sans-Serif" font-size="10.00">QGraphicsObject</text>
</g>
<!-- Node1&#45;&gt;Node13 -->
<g id="edge38" class="edge"><title>Node1&#45;&gt;Node13</title>
<path fill="none" stroke="midnightblue" d="M244.954,-174.497C276.526,-164.959 323.262,-150.841 357.577,-140.475"/>
<polygon fill="midnightblue" stroke="midnightblue" points="358.788,-143.765 367.349,-137.523 356.764,-137.064 358.788,-143.765"/>
</g>
<!-- Node3&#45;&gt;Node2 -->
<g id="edge6" class="edge"><title>Node3&#45;&gt;Node2</title>
<path fill="none" stroke="midnightblue" d="M41.6504,-116.267C31.9456,-107.646 19.6571,-94.6003 14.1838,-80 7.40328,-61.9126 19.5523,-42.6438 31.7042,-29.079"/>
<polygon fill="midnightblue" stroke="midnightblue" points="34.2969,-31.4325 38.7163,-21.8034 29.2567,-26.5748 34.2969,-31.4325"/>
</g>
<!-- Node4 -->
<g id="node8" class="node"><title>Node4</title>
<polygon fill="white" stroke="#bfbfbf" points="162.684,-0.5 162.684,-21.5 203.684,-21.5 203.684,-0.5 162.684,-0.5"/>
<text text-anchor="middle" x="183.184" y="-8.5" font-family="Helvetica,sans-Serif" font-size="10.00">glib.h</text>
</g>
<!-- Node3&#45;&gt;Node4 -->
<g id="edge8" class="edge"><title>Node3&#45;&gt;Node4</title>
<path fill="none" stroke="midnightblue" d="M49.7203,-116.061C43.2679,-101.417 34.8684,-75.2862 47.1838,-58 59.6182,-40.5469 116.468,-25.3778 152.617,-17.2701"/>
<polygon fill="midnightblue" stroke="midnightblue" points="153.63,-20.6314 162.654,-15.0801 152.138,-13.7923 153.63,-20.6314"/>
</g>
<!-- Node5 -->
<g id="node10" class="node"><title>Node5</title>
<polygon fill="white" stroke="#bfbfbf" points="56.1838,-58.5 56.1838,-79.5 106.184,-79.5 106.184,-58.5 56.1838,-58.5"/>
<text text-anchor="middle" x="81.1838" y="-66.5" font-family="Helvetica,sans-Serif" font-size="10.00">stdint.h</text>
</g>
<!-- Node3&#45;&gt;Node5 -->
<g id="edge10" class="edge"><title>Node3&#45;&gt;Node5</title>
<path fill="none" stroke="midnightblue" d="M59.9526,-116.362C63.3977,-108.677 68.153,-98.0686 72.2901,-88.8399"/>
<polygon fill="midnightblue" stroke="midnightblue" points="75.5484,-90.1275 76.4452,-79.5707 69.1608,-87.264 75.5484,-90.1275"/>
</g>
<!-- Node6&#45;&gt;Node2 -->
<g id="edge14" class="edge"><title>Node6&#45;&gt;Node2</title>
<path fill="none" stroke="midnightblue" d="M161.682,-59.5522C140.786,-50.3707 108.751,-36.2949 84.545,-25.6587"/>
<polygon fill="midnightblue" stroke="midnightblue" points="85.9266,-22.4429 75.3634,-21.6244 83.1107,-28.8515 85.9266,-22.4429"/>
</g>
<!-- Node6&#45;&gt;Node4 -->
<g id="edge16" class="edge"><title>Node6&#45;&gt;Node4</title>
<path fill="none" stroke="midnightblue" d="M183.184,-58.3619C183.184,-50.9219 183.184,-40.7427 183.184,-31.7276"/>
<polygon fill="midnightblue" stroke="midnightblue" points="186.684,-31.5706 183.184,-21.5707 179.684,-31.5707 186.684,-31.5706"/>
</g>
<!-- Node7&#45;&gt;Node2 -->
<g id="edge20" class="edge"><title>Node7&#45;&gt;Node2</title>
<path fill="none" stroke="midnightblue" d="M217.223,-116.449C200.029,-107.214 174.664,-93.2417 153.184,-80 125.599,-62.9949 94.9227,-41.9384 74.4853,-27.5891"/>
<polygon fill="midnightblue" stroke="midnightblue" points="76.3173,-24.5981 66.1281,-21.6942 72.2824,-30.3183 76.3173,-24.5981"/>
</g>
<!-- Node7&#45;&gt;Node4 -->
<g id="edge24" class="edge"><title>Node7&#45;&gt;Node4</title>
<path fill="none" stroke="midnightblue" d="M252.492,-116.268C269.864,-102.72 294.202,-78.6808 281.184,-58 266.539,-34.7351 236.824,-22.7282 213.934,-16.7004"/>
<polygon fill="midnightblue" stroke="midnightblue" points="214.515,-13.2409 203.976,-14.3326 212.895,-20.051 214.515,-13.2409"/>
</g>
<!-- Node7&#45;&gt;Node5 -->
<g id="edge22" class="edge"><title>Node7&#45;&gt;Node5</title>
<path fill="none" stroke="midnightblue" d="M211.073,-117.292C185.003,-107.599 144.78,-92.6447 116.004,-81.9461"/>
<polygon fill="midnightblue" stroke="midnightblue" points="116.938,-78.5593 106.345,-78.3549 114.499,-85.1205 116.938,-78.5593"/>
</g>
<!-- Node7&#45;&gt;Node6 -->
<g id="edge34" class="edge"><title>Node7&#45;&gt;Node6</title>
<path fill="none" stroke="midnightblue" d="M227.279,-116.362C219.667,-108.186 208.976,-96.7025 200.027,-87.0907"/>
<polygon fill="midnightblue" stroke="midnightblue" points="202.401,-84.5046 193.025,-79.5707 197.278,-89.2746 202.401,-84.5046"/>
</g>
<!-- Node8 -->
<g id="node21" class="node"><title>Node8</title>
<polygon fill="white" stroke="#bfbfbf" points="537.684,-58.5 537.684,-79.5 584.684,-79.5 584.684,-58.5 537.684,-58.5"/>
<text text-anchor="middle" x="561.184" y="-66.5" font-family="Helvetica,sans-Serif" font-size="10.00">stdio.h</text>
</g>
<!-- Node7&#45;&gt;Node8 -->
<g id="edge26" class="edge"><title>Node7&#45;&gt;Node8</title>
<path fill="none" stroke="midnightblue" d="M263.43,-118.239C266.365,-117.413 269.326,-116.645 272.184,-116 381.508,-91.3414 415.125,-105.984 527.534,-80.0562"/>
<polygon fill="midnightblue" stroke="midnightblue" points="528.642,-83.391 537.568,-77.6838 527.031,-76.5788 528.642,-83.391"/>
</g>
<!-- Node9 -->
<g id="node23" class="node"><title>Node9</title>
<polygon fill="white" stroke="#bfbfbf" points="221.684,-58.5 221.684,-79.5 272.684,-79.5 272.684,-58.5 221.684,-58.5"/>
<text text-anchor="middle" x="247.184" y="-66.5" font-family="Helvetica,sans-Serif" font-size="10.00">string.h</text>
</g>
<!-- Node7&#45;&gt;Node9 -->
<g id="edge28" class="edge"><title>Node7&#45;&gt;Node9</title>
<path fill="none" stroke="midnightblue" d="M239.018,-116.362C240.315,-108.84 242.094,-98.5187 243.661,-89.4308"/>
<polygon fill="midnightblue" stroke="midnightblue" points="247.111,-90.02 245.361,-79.5707 240.213,-88.8306 247.111,-90.02"/>
</g>
<!-- Node10 -->
<g id="node25" class="node"><title>Node10</title>
<polygon fill="white" stroke="#bfbfbf" points="328.184,-58.5 328.184,-79.5 414.184,-79.5 414.184,-58.5 328.184,-58.5"/>
<text text-anchor="middle" x="371.184" y="-66.5" font-family="Helvetica,sans-Serif" font-size="10.00">qnamespace.h</text>
</g>
<!-- Node7&#45;&gt;Node10 -->
<g id="edge30" class="edge"><title>Node7&#45;&gt;Node10</title>
<path fill="none" stroke="midnightblue" d="M261.45,-116.497C282.662,-107.315 313.682,-93.8889 337.334,-83.6516"/>
<polygon fill="midnightblue" stroke="midnightblue" points="338.858,-86.8055 346.645,-79.6212 336.078,-80.3815 338.858,-86.8055"/>
</g>
<!-- Node11 -->
<g id="node27" class="node"><title>Node11</title>
<polygon fill="white" stroke="#bfbfbf" points="432.184,-58.5 432.184,-79.5 520.184,-79.5 520.184,-58.5 432.184,-58.5"/>
<text text-anchor="middle" x="476.184" y="-66.5" font-family="Helvetica,sans-Serif" font-size="10.00">SysMgrEvent.h</text>
</g>
<!-- Node7&#45;&gt;Node11 -->
<g id="edge32" class="edge"><title>Node7&#45;&gt;Node11</title>
<path fill="none" stroke="midnightblue" d="M263.492,-118.49C266.415,-117.616 269.357,-116.769 272.184,-116 322.728,-102.257 381.015,-89.0926 422.309,-80.2102"/>
<polygon fill="midnightblue" stroke="midnightblue" points="423.117,-83.6168 432.163,-78.1025 421.653,-76.7717 423.117,-83.6168"/>
</g>
</g>
</svg>
