<?xml version="1.0" encoding="UTF-8" standalone="no"?>
<!DOCTYPE svg PUBLIC "-//W3C//DTD SVG 1.1//EN"
 "http://www.w3.org/Graphics/SVG/1.1/DTD/svg11.dtd">
<!-- Generated by graphviz version 2.26.3 (20100126.1600)
 -->
<!-- Title: G Pages: 1 -->
<svg width="2137pt" height="320pt"
 viewBox="0.00 0.00 2136.64 320.00" xmlns="http://www.w3.org/2000/svg" xmlns:xlink="http://www.w3.org/1999/xlink">
<g id="graph1" class="graph" transform="scale(1 1) rotate(0) translate(4 316)">
<title>G</title>
<polygon fill="white" stroke="white" points="-4,5 -4,-316 2133.64,-316 2133.64,5 -4,5"/>
<!-- Node1 -->
<g id="node1" class="node"><title>Node1</title>
<polygon fill="#bfbfbf" stroke="black" points="1418.64,-290.5 1418.64,-311.5 1518.64,-311.5 1518.64,-290.5 1418.64,-290.5"/>
<text text-anchor="middle" x="1468.64" y="-298.5" font-family="Helvetica,sans-Serif" font-size="10.00">ClockWindow.cpp</text>
</g>
<!-- Node2 -->
<g id="node3" class="node"><title>Node2</title>
<polygon fill="white" stroke="#bfbfbf" points="1475.14,-116.5 1475.14,-137.5 1518.14,-137.5 1518.14,-116.5 1475.14,-116.5"/>
<text text-anchor="middle" x="1496.64" y="-124.5" font-family="Helvetica,sans-Serif" font-size="10.00">string</text>
</g>
<!-- Node1&#45;&gt;Node2 -->
<g id="edge2" class="edge"><title>Node1&#45;&gt;Node2</title>
<path fill="none" stroke="midnightblue" d="M1470.35,-290.377C1474.87,-262.293 1487.2,-185.673 1493.23,-148.203"/>
<polygon fill="midnightblue" stroke="midnightblue" points="1496.75,-148.357 1494.89,-137.928 1489.84,-147.245 1496.75,-148.357"/>
</g>
<!-- Node3 -->
<g id="node5" class="node"><title>Node3</title>
<polygon fill="white" stroke="#bfbfbf" points="1040.14,-232.5 1040.14,-253.5 1085.14,-253.5 1085.14,-232.5 1040.14,-232.5"/>
<text text-anchor="middle" x="1062.64" y="-240.5" font-family="Helvetica,sans-Serif" font-size="10.00">cmath</text>
</g>
<!-- Node1&#45;&gt;Node3 -->
<g id="edge4" class="edge"><title>Node1&#45;&gt;Node3</title>
<path fill="none" stroke="midnightblue" d="M1418.59,-298.177C1348.03,-293.443 1215.32,-281.774 1094.91,-253.924"/>
<polygon fill="midnightblue" stroke="midnightblue" points="1095.7,-250.512 1085.16,-251.625 1094.09,-257.326 1095.7,-250.512"/>
</g>
<!-- Node4 -->
<g id="node7" class="node"><title>Node4</title>
<polygon fill="white" stroke="#bfbfbf" points="1102.14,-232.5 1102.14,-253.5 1139.14,-253.5 1139.14,-232.5 1102.14,-232.5"/>
<text text-anchor="middle" x="1120.64" y="-240.5" font-family="Helvetica,sans-Serif" font-size="10.00">map</text>
</g>
<!-- Node1&#45;&gt;Node4 -->
<g id="edge6" class="edge"><title>Node1&#45;&gt;Node4</title>
<path fill="none" stroke="midnightblue" d="M1418.57,-296.418C1355.79,-290.021 1245.19,-276.586 1152.64,-254 1151.56,-253.735 1150.46,-253.449 1149.35,-253.147"/>
<polygon fill="midnightblue" stroke="midnightblue" points="1150.01,-249.688 1139.42,-250.097 1147.96,-256.379 1150.01,-249.688"/>
</g>
<!-- Node5 -->
<g id="node9" class="node"><title>Node5</title>
<a xlink:href="HostBase_8h.htm" target="_top" xlink:title="HostBase.h">
<polygon fill="white" stroke="black" points="524.144,-232.5 524.144,-253.5 595.144,-253.5 595.144,-232.5 524.144,-232.5"/>
<text text-anchor="middle" x="559.644" y="-240.5" font-family="Helvetica,sans-Serif" font-size="10.00">HostBase.h</text>
</a>
</g>
<!-- Node1&#45;&gt;Node5 -->
<g id="edge8" class="edge"><title>Node1&#45;&gt;Node5</title>
<path fill="none" stroke="midnightblue" d="M1418.48,-297.799C1258.21,-287.573 760.045,-255.787 605.707,-245.939"/>
<polygon fill="midnightblue" stroke="midnightblue" points="605.823,-242.439 595.621,-245.296 605.377,-249.425 605.823,-242.439"/>
</g>
<!-- Node30 -->
<g id="node75" class="node"><title>Node30</title>
<a xlink:href="Settings_8h.htm" target="_top" xlink:title="Settings.h">
<polygon fill="white" stroke="black" points="833.144,-174.5 833.144,-195.5 896.144,-195.5 896.144,-174.5 833.144,-174.5"/>
<text text-anchor="middle" x="864.644" y="-182.5" font-family="Helvetica,sans-Serif" font-size="10.00">Settings.h</text>
</a>
</g>
<!-- Node1&#45;&gt;Node30 -->
<g id="edge90" class="edge"><title>Node1&#45;&gt;Node30</title>
<path fill="none" stroke="midnightblue" d="M1418.49,-295.412C1347.87,-287.103 1223.01,-270.672 1180.64,-254 1164.24,-247.546 1164.04,-238.477 1147.64,-232 1104.56,-214.975 974.627,-197.872 906.837,-189.797"/>
<polygon fill="midnightblue" stroke="midnightblue" points="906.855,-186.274 896.514,-188.579 906.035,-193.226 906.855,-186.274"/>
</g>
<!-- Node34 -->
<g id="node86" class="node"><title>Node34</title>
<a xlink:href="ClockWindow_8h.htm" target="_top" xlink:title="ClockWindow.h">
<polygon fill="white" stroke="black" points="1005.14,-174.5 1005.14,-195.5 1094.14,-195.5 1094.14,-174.5 1005.14,-174.5"/>
<text text-anchor="middle" x="1049.64" y="-182.5" font-family="Helvetica,sans-Serif" font-size="10.00">ClockWindow.h</text>
</a>
</g>
<!-- Node1&#45;&gt;Node34 -->
<g id="edge104" class="edge"><title>Node1&#45;&gt;Node34</title>
<path fill="none" stroke="midnightblue" d="M1418.6,-294.718C1369.44,-287.731 1292.7,-274.63 1228.64,-254 1206.31,-246.806 1202.38,-240.859 1180.64,-232 1150.98,-219.908 1116.91,-207.736 1090.95,-198.81"/>
<polygon fill="midnightblue" stroke="midnightblue" points="1092.02,-195.476 1081.43,-195.554 1089.76,-202.1 1092.02,-195.476"/>
</g>
<!-- Node36 -->
<g id="node96" class="node"><title>Node36</title>
<polygon fill="white" stroke="#bfbfbf" points="1159.14,-116.5 1159.14,-137.5 1214.14,-137.5 1214.14,-116.5 1159.14,-116.5"/>
<text text-anchor="middle" x="1186.64" y="-124.5" font-family="Helvetica,sans-Serif" font-size="10.00">QObject</text>
</g>
<!-- Node1&#45;&gt;Node36 -->
<g id="edge154" class="edge"><title>Node1&#45;&gt;Node36</title>
<path fill="none" stroke="midnightblue" d="M1451.43,-290.377C1403.74,-260.952 1269.7,-178.246 1212.76,-143.113"/>
<polygon fill="midnightblue" stroke="midnightblue" points="1214.34,-139.977 1203.99,-137.705 1210.67,-145.934 1214.34,-139.977"/>
</g>
<!-- Node38 -->
<g id="node100" class="node"><title>Node38</title>
<a xlink:href="Localization_8h.htm" target="_top" xlink:title="Localization.h">
<polygon fill="white" stroke="black" points="1496.14,-232.5 1496.14,-253.5 1577.14,-253.5 1577.14,-232.5 1496.14,-232.5"/>
<text text-anchor="middle" x="1536.64" y="-240.5" font-family="Helvetica,sans-Serif" font-size="10.00">Localization.h</text>
</a>
</g>
<!-- Node1&#45;&gt;Node38 -->
<g id="edge124" class="edge"><title>Node1&#45;&gt;Node38</title>
<path fill="none" stroke="midnightblue" d="M1481.12,-290.362C1490.99,-281.941 1504.98,-270.011 1516.44,-260.231"/>
<polygon fill="midnightblue" stroke="midnightblue" points="1518.91,-262.723 1524.25,-253.571 1514.37,-257.397 1518.91,-262.723"/>
</g>
<!-- Node41 -->
<g id="node109" class="node"><title>Node41</title>
<polygon fill="white" stroke="#bfbfbf" points="1681.64,-116.5 1681.64,-137.5 1731.64,-137.5 1731.64,-116.5 1681.64,-116.5"/>
<text text-anchor="middle" x="1706.64" y="-124.5" font-family="Helvetica,sans-Serif" font-size="10.00">QHash</text>
</g>
<!-- Node1&#45;&gt;Node41 -->
<g id="edge162" class="edge"><title>Node1&#45;&gt;Node41</title>
<path fill="none" stroke="midnightblue" d="M1502.43,-290.482C1526.51,-282.27 1559.16,-269.64 1585.64,-254 1620.73,-233.28 1628.68,-225.634 1656.64,-196 1671.14,-180.643 1685.01,-160.961 1694.45,-146.551"/>
<polygon fill="midnightblue" stroke="midnightblue" points="1697.52,-148.247 1699.98,-137.941 1691.63,-144.466 1697.52,-148.247"/>
</g>
<!-- Node42 -->
<g id="node112" class="node"><title>Node42</title>
<a xlink:href="Preferences_8h.htm" target="_top" xlink:title="Preferences.h">
<polygon fill="white" stroke="black" points="1310.14,-174.5 1310.14,-195.5 1393.14,-195.5 1393.14,-174.5 1310.14,-174.5"/>
<text text-anchor="middle" x="1351.64" y="-182.5" font-family="Helvetica,sans-Serif" font-size="10.00">Preferences.h</text>
</a>
</g>
<!-- Node1&#45;&gt;Node42 -->
<g id="edge140" class="edge"><title>Node1&#45;&gt;Node42</title>
<path fill="none" stroke="midnightblue" d="M1457.85,-290.295C1437.73,-270.355 1394.35,-227.337 1369.7,-202.906"/>
<polygon fill="midnightblue" stroke="midnightblue" points="1371.98,-200.234 1362.42,-195.679 1367.05,-205.205 1371.98,-200.234"/>
</g>
<!-- Node44 -->
<g id="node122" class="node"><title>Node44</title>
<polygon fill="white" stroke="#bfbfbf" points="1632.64,-232.5 1632.64,-253.5 1744.64,-253.5 1744.64,-232.5 1632.64,-232.5"/>
<text text-anchor="middle" x="1688.64" y="-240.5" font-family="Helvetica,sans-Serif" font-size="10.00">QPropertyAnimation</text>
</g>
<!-- Node1&#45;&gt;Node44 -->
<g id="edge156" class="edge"><title>Node1&#45;&gt;Node44</title>
<path fill="none" stroke="midnightblue" d="M1508.48,-290.497C1545.13,-280.836 1599.6,-266.477 1639.04,-256.077"/>
<polygon fill="midnightblue" stroke="midnightblue" points="1639.95,-259.457 1648.73,-253.523 1638.17,-252.688 1639.95,-259.457"/>
</g>
<!-- Node45 -->
<g id="node124" class="node"><title>Node45</title>
<polygon fill="white" stroke="#bfbfbf" points="1762.14,-232.5 1762.14,-253.5 1839.14,-253.5 1839.14,-232.5 1762.14,-232.5"/>
<text text-anchor="middle" x="1800.64" y="-240.5" font-family="Helvetica,sans-Serif" font-size="10.00">QTextLayout</text>
</g>
<!-- Node1&#45;&gt;Node45 -->
<g id="edge158" class="edge"><title>Node1&#45;&gt;Node45</title>
<path fill="none" stroke="midnightblue" d="M1518.77,-293.765C1573.71,-285.604 1664.69,-271.418 1751.9,-254.265"/>
<polygon fill="midnightblue" stroke="midnightblue" points="1752.83,-257.648 1761.96,-252.269 1751.47,-250.781 1752.83,-257.648"/>
</g>
<!-- Node46 -->
<g id="node126" class="node"><title>Node46</title>
<polygon fill="white" stroke="#bfbfbf" points="1856.64,-232.5 1856.64,-253.5 1912.64,-253.5 1912.64,-232.5 1856.64,-232.5"/>
<text text-anchor="middle" x="1884.64" y="-240.5" font-family="Helvetica,sans-Serif" font-size="10.00">QVector</text>
</g>
<!-- Node1&#45;&gt;Node46 -->
<g id="edge160" class="edge"><title>Node1&#45;&gt;Node46</title>
<path fill="none" stroke="midnightblue" d="M1518.74,-297.444C1589.77,-291.821 1723.84,-279.061 1846.54,-253.961"/>
<polygon fill="midnightblue" stroke="midnightblue" points="1847.41,-257.357 1856.49,-251.895 1845.98,-250.503 1847.41,-257.357"/>
</g>
<!-- Node47 -->
<g id="node129" class="node"><title>Node47</title>
<polygon fill="white" stroke="#bfbfbf" points="1930.64,-232.5 1930.64,-253.5 2052.64,-253.5 2052.64,-232.5 1930.64,-232.5"/>
<text text-anchor="middle" x="1991.64" y="-240.5" font-family="Helvetica,sans-Serif" font-size="10.00">QGraphicsPixmapItem</text>
</g>
<!-- Node1&#45;&gt;Node47 -->
<g id="edge164" class="edge"><title>Node1&#45;&gt;Node47</title>
<path fill="none" stroke="midnightblue" d="M1518.68,-296.673C1600.5,-289.41 1768.21,-273.728 1920.58,-254.087"/>
<polygon fill="midnightblue" stroke="midnightblue" points="1921.12,-257.546 1930.59,-252.788 1920.22,-250.604 1921.12,-257.546"/>
</g>
<!-- Node48 -->
<g id="node131" class="node"><title>Node48</title>
<polygon fill="white" stroke="#bfbfbf" points="2070.14,-232.5 2070.14,-253.5 2129.14,-253.5 2129.14,-232.5 2070.14,-232.5"/>
<text text-anchor="middle" x="2099.64" y="-240.5" font-family="Helvetica,sans-Serif" font-size="10.00">QPainter</text>
</g>
<!-- Node1&#45;&gt;Node48 -->
<g id="edge166" class="edge"><title>Node1&#45;&gt;Node48</title>
<path fill="none" stroke="midnightblue" d="M1518.82,-298.335C1638.72,-291.762 1940.16,-273.973 2059.91,-253.979"/>
<polygon fill="midnightblue" stroke="midnightblue" points="2060.66,-257.4 2069.91,-252.225 2059.46,-250.506 2060.66,-257.4"/>
</g>
<!-- Node6 -->
<g id="node11" class="node"><title>Node6</title>
<a xlink:href="Common_8h.htm" target="_top" xlink:title="Common.h">
<polygon fill="white" stroke="black" points="887.144,-0.5 887.144,-21.5 954.144,-21.5 954.144,-0.5 887.144,-0.5"/>
<text text-anchor="middle" x="920.644" y="-8.5" font-family="Helvetica,sans-Serif" font-size="10.00">Common.h</text>
</a>
</g>
<!-- Node5&#45;&gt;Node6 -->
<g id="edge10" class="edge"><title>Node5&#45;&gt;Node6</title>
<path fill="none" stroke="midnightblue" d="M595.219,-242.329C673.133,-240.207 855.798,-231.482 904.644,-196 955.928,-158.748 953.309,-120.108 940.644,-58 938.755,-48.734 934.969,-39.0321 931.195,-30.8653"/>
<polygon fill="midnightblue" stroke="midnightblue" points="934.285,-29.2193 926.725,-21.7974 928.007,-32.3144 934.285,-29.2193"/>
</g>
<!-- Node7 -->
<g id="node13" class="node"><title>Node7</title>
<polygon fill="white" stroke="#bfbfbf" points="569.144,-174.5 569.144,-195.5 646.144,-195.5 646.144,-174.5 569.144,-174.5"/>
<text text-anchor="middle" x="607.644" y="-182.5" font-family="Helvetica,sans-Serif" font-size="10.00">PGContext.h</text>
</g>
<!-- Node5&#45;&gt;Node7 -->
<g id="edge12" class="edge"><title>Node5&#45;&gt;Node7</title>
<path fill="none" stroke="midnightblue" d="M568.448,-232.362C575.147,-224.268 584.528,-212.932 592.434,-203.38"/>
<polygon fill="midnightblue" stroke="midnightblue" points="595.217,-205.506 598.896,-195.571 589.824,-201.043 595.217,-205.506"/>
</g>
<!-- Node8 -->
<g id="node15" class="node"><title>Node8</title>
<polygon fill="white" stroke="#bfbfbf" points="663.644,-174.5 663.644,-195.5 731.644,-195.5 731.644,-174.5 663.644,-174.5"/>
<text text-anchor="middle" x="697.644" y="-182.5" font-family="Helvetica,sans-Serif" font-size="10.00">PContext.h</text>
</g>
<!-- Node5&#45;&gt;Node8 -->
<g id="edge14" class="edge"><title>Node5&#45;&gt;Node8</title>
<path fill="none" stroke="midnightblue" d="M584.635,-232.497C606.577,-223.275 638.71,-209.769 663.108,-199.515"/>
<polygon fill="midnightblue" stroke="midnightblue" points="664.51,-202.722 672.373,-195.621 661.798,-196.269 664.51,-202.722"/>
</g>
<!-- Node9 -->
<g id="node17" class="node"><title>Node9</title>
<polygon fill="white" stroke="#bfbfbf" points="749.644,-174.5 749.644,-195.5 815.644,-195.5 815.644,-174.5 749.644,-174.5"/>
<text text-anchor="middle" x="782.644" y="-182.5" font-family="Helvetica,sans-Serif" font-size="10.00">PPixmap.h</text>
</g>
<!-- Node5&#45;&gt;Node9 -->
<g id="edge16" class="edge"><title>Node5&#45;&gt;Node9</title>
<path fill="none" stroke="midnightblue" d="M595.367,-233.748C629.883,-224.802 683.907,-210.788 739.897,-196.191"/>
<polygon fill="midnightblue" stroke="midnightblue" points="740.838,-199.563 749.631,-193.653 739.071,-192.79 740.838,-199.563"/>
</g>
<!-- Node10 -->
<g id="node19" class="node"><title>Node10</title>
<a xlink:href="TaskBase_8h.htm" target="_top" xlink:title="TaskBase.h">
<polygon fill="white" stroke="black" points="223.644,-174.5 223.644,-195.5 295.644,-195.5 295.644,-174.5 223.644,-174.5"/>
<text text-anchor="middle" x="259.644" y="-182.5" font-family="Helvetica,sans-Serif" font-size="10.00">TaskBase.h</text>
</a>
</g>
<!-- Node5&#45;&gt;Node10 -->
<g id="edge18" class="edge"><title>Node5&#45;&gt;Node10</title>
<path fill="none" stroke="midnightblue" d="M524.04,-237.103C476.513,-229.085 389.508,-213.902 305.869,-196.182"/>
<polygon fill="midnightblue" stroke="midnightblue" points="306.463,-192.73 295.952,-194.065 305.002,-199.575 306.463,-192.73"/>
</g>
<!-- Node21 -->
<g id="node49" class="node"><title>Node21</title>
<a xlink:href="Mutex_8h.htm" target="_top" xlink:title="Mutex.h">
<polygon fill="white" stroke="black" points="306.144,-116.5 306.144,-137.5 359.144,-137.5 359.144,-116.5 306.144,-116.5"/>
<text text-anchor="middle" x="332.644" y="-124.5" font-family="Helvetica,sans-Serif" font-size="10.00">Mutex.h</text>
</a>
</g>
<!-- Node5&#45;&gt;Node21 -->
<g id="edge72" class="edge"><title>Node5&#45;&gt;Node21</title>
<path fill="none" stroke="midnightblue" d="M535.773,-232.33C515.552,-223.134 485.905,-209.28 460.644,-196 443.371,-186.919 439.742,-183.408 422.644,-174 402.838,-163.102 380.288,-151.327 362.716,-142.289"/>
<polygon fill="midnightblue" stroke="midnightblue" points="364.009,-139.019 353.514,-137.573 360.816,-145.249 364.009,-139.019"/>
</g>
<!-- Node23 -->
<g id="node60" class="node"><title>Node23</title>
<a xlink:href="CustomEvents_8h.htm" target="_top" xlink:title="CustomEvents.h">
<polygon fill="white" stroke="black" points="1231.64,-116.5 1231.64,-137.5 1323.64,-137.5 1323.64,-116.5 1231.64,-116.5"/>
<text text-anchor="middle" x="1277.64" y="-124.5" font-family="Helvetica,sans-Serif" font-size="10.00">CustomEvents.h</text>
</a>
</g>
<!-- Node5&#45;&gt;Node23 -->
<g id="edge74" class="edge"><title>Node5&#45;&gt;Node23</title>
<path fill="none" stroke="midnightblue" d="M595.445,-241.253C700.325,-235.922 1005.58,-218.824 1102.64,-196 1155.31,-183.617 1213.09,-158.369 1247.31,-142.09"/>
<polygon fill="midnightblue" stroke="midnightblue" points="1249.24,-145.046 1256.73,-137.553 1246.21,-138.739 1249.24,-145.046"/>
</g>
<!-- Node25 -->
<g id="node65" class="node"><title>Node25</title>
<a xlink:href="InputControl_8h.htm" target="_top" xlink:title="InputControl.h">
<polygon fill="white" stroke="black" points="469.144,-174.5 469.144,-195.5 552.144,-195.5 552.144,-174.5 469.144,-174.5"/>
<text text-anchor="middle" x="510.644" y="-182.5" font-family="Helvetica,sans-Serif" font-size="10.00">InputControl.h</text>
</a>
</g>
<!-- Node5&#45;&gt;Node25 -->
<g id="edge80" class="edge"><title>Node5&#45;&gt;Node25</title>
<path fill="none" stroke="midnightblue" d="M550.657,-232.362C543.819,-224.268 534.242,-212.932 526.172,-203.38"/>
<polygon fill="midnightblue" stroke="midnightblue" points="528.702,-200.951 519.575,-195.571 523.355,-205.468 528.702,-200.951"/>
</g>
<!-- Node27 -->
<g id="node69" class="node"><title>Node27</title>
<polygon fill="white" stroke="#bfbfbf" points="81.1443,-174.5 81.1443,-195.5 206.144,-195.5 206.144,-174.5 81.1443,-174.5"/>
<text text-anchor="middle" x="143.644" y="-182.5" font-family="Helvetica,sans-Serif" font-size="10.00">webosDeviceKeymap.h</text>
</g>
<!-- Node5&#45;&gt;Node27 -->
<g id="edge84" class="edge"><title>Node5&#45;&gt;Node27</title>
<path fill="none" stroke="midnightblue" d="M523.855,-238.344C462.873,-230.363 334.664,-213.376 216.311,-196.226"/>
<polygon fill="midnightblue" stroke="midnightblue" points="216.754,-192.754 206.355,-194.779 215.748,-199.681 216.754,-192.754"/>
</g>
<!-- Node28 -->
<g id="node71" class="node"><title>Node28</title>
<polygon fill="white" stroke="#bfbfbf" points="313.144,-174.5 313.144,-195.5 342.144,-195.5 342.144,-174.5 313.144,-174.5"/>
<text text-anchor="middle" x="327.644" y="-182.5" font-family="Helvetica,sans-Serif" font-size="10.00">Qt</text>
</g>
<!-- Node5&#45;&gt;Node28 -->
<g id="edge86" class="edge"><title>Node5&#45;&gt;Node28</title>
<path fill="none" stroke="midnightblue" d="M523.838,-237.474C483.643,-230.723 416.522,-217.808 352.027,-195.998"/>
<polygon fill="midnightblue" stroke="midnightblue" points="353.129,-192.676 342.534,-192.716 350.841,-199.292 353.129,-192.676"/>
</g>
<!-- Node29 -->
<g id="node73" class="node"><title>Node29</title>
<polygon fill="white" stroke="#bfbfbf" points="359.644,-174.5 359.644,-195.5 413.644,-195.5 413.644,-174.5 359.644,-174.5"/>
<text text-anchor="middle" x="386.644" y="-182.5" font-family="Helvetica,sans-Serif" font-size="10.00">QImage</text>
</g>
<!-- Node5&#45;&gt;Node29 -->
<g id="edge88" class="edge"><title>Node5&#45;&gt;Node29</title>
<path fill="none" stroke="midnightblue" d="M528.315,-232.497C498.794,-222.599 454.557,-207.769 423.385,-197.318"/>
<polygon fill="midnightblue" stroke="midnightblue" points="424.353,-193.951 413.759,-194.09 422.128,-200.588 424.353,-193.951"/>
</g>
<!-- Node10&#45;&gt;Node6 -->
<g id="edge20" class="edge"><title>Node10&#45;&gt;Node6</title>
<path fill="none" stroke="midnightblue" d="M295.887,-175.583C298.838,-174.987 301.784,-174.447 304.644,-174 416.675,-156.475 710.685,-185.513 813.644,-138 861.624,-115.859 895.747,-60.3245 911.262,-30.5611"/>
<polygon fill="midnightblue" stroke="midnightblue" points="914.433,-32.0466 915.804,-21.5408 908.181,-28.8988 914.433,-32.0466"/>
</g>
<!-- Node11 -->
<g id="node22" class="node"><title>Node11</title>
<polygon fill="white" stroke="#bfbfbf" points="83.1443,-0.5 83.1443,-21.5 124.144,-21.5 124.144,-0.5 83.1443,-0.5"/>
<text text-anchor="middle" x="103.644" y="-8.5" font-family="Helvetica,sans-Serif" font-size="10.00">glib.h</text>
</g>
<!-- Node10&#45;&gt;Node11 -->
<g id="edge22" class="edge"><title>Node10&#45;&gt;Node11</title>
<path fill="none" stroke="midnightblue" d="M223.519,-175.528C159.312,-157.873 29.6931,-118.251 4.64432,-80 -15.2036,-49.6914 36.9379,-28.8448 72.8669,-18.507"/>
<polygon fill="midnightblue" stroke="midnightblue" points="74.2235,-21.7648 82.9481,-15.7538 72.3793,-15.0121 74.2235,-21.7648"/>
</g>
<!-- Node12 -->
<g id="node24" class="node"><title>Node12</title>
<polygon fill="white" stroke="#bfbfbf" points="146.144,-116.5 146.144,-137.5 175.144,-137.5 175.144,-116.5 146.144,-116.5"/>
<text text-anchor="middle" x="160.644" y="-124.5" font-family="Helvetica,sans-Serif" font-size="10.00">list</text>
</g>
<!-- Node10&#45;&gt;Node12 -->
<g id="edge24" class="edge"><title>Node10&#45;&gt;Node12</title>
<path fill="none" stroke="midnightblue" d="M241.486,-174.362C225.378,-164.925 201.748,-151.081 184.192,-140.795"/>
<polygon fill="midnightblue" stroke="midnightblue" points="185.547,-137.533 175.149,-135.498 182.008,-143.573 185.547,-137.533"/>
</g>
<!-- Node13 -->
<g id="node26" class="node"><title>Node13</title>
<a xlink:href="sptr_8h.htm" target="_top" xlink:title="sptr.h">
<polygon fill="white" stroke="black" points="305.144,-58.5 305.144,-79.5 348.144,-79.5 348.144,-58.5 305.144,-58.5"/>
<text text-anchor="middle" x="326.644" y="-66.5" font-family="Helvetica,sans-Serif" font-size="10.00">sptr.h</text>
</a>
</g>
<!-- Node10&#45;&gt;Node13 -->
<g id="edge26" class="edge"><title>Node10&#45;&gt;Node13</title>
<path fill="none" stroke="midnightblue" d="M265.405,-174.151C272.712,-160.481 285.791,-136.317 297.644,-116 302.98,-106.854 309.109,-96.8522 314.354,-88.4351"/>
<polygon fill="midnightblue" stroke="midnightblue" points="317.462,-90.0667 319.811,-79.7355 311.532,-86.3473 317.462,-90.0667"/>
</g>
<!-- Node14 -->
<g id="node30" class="node"><title>Node14</title>
<a xlink:href="AsyncCaller_8h.htm" target="_top" xlink:title="AsyncCaller.h">
<polygon fill="white" stroke="black" points="207.144,-58.5 207.144,-79.5 288.144,-79.5 288.144,-58.5 207.144,-58.5"/>
<text text-anchor="middle" x="247.644" y="-66.5" font-family="Helvetica,sans-Serif" font-size="10.00">AsyncCaller.h</text>
</a>
</g>
<!-- Node10&#45;&gt;Node14 -->
<g id="edge32" class="edge"><title>Node10&#45;&gt;Node14</title>
<path fill="none" stroke="midnightblue" d="M258.537,-174.295C256.554,-155.131 252.367,-114.654 249.801,-89.8434"/>
<polygon fill="midnightblue" stroke="midnightblue" points="253.26,-89.2659 248.749,-79.6792 246.297,-89.9863 253.26,-89.2659"/>
</g>
<!-- Node15 -->
<g id="node34" class="node"><title>Node15</title>
<a xlink:href="Event_8h.htm" target="_top" xlink:title="Event.h">
<polygon fill="white" stroke="black" points="752.644,-116.5 752.644,-137.5 804.644,-137.5 804.644,-116.5 752.644,-116.5"/>
<text text-anchor="middle" x="778.644" y="-124.5" font-family="Helvetica,sans-Serif" font-size="10.00">Event.h</text>
</a>
</g>
<!-- Node10&#45;&gt;Node15 -->
<g id="edge38" class="edge"><title>Node10&#45;&gt;Node15</title>
<path fill="none" stroke="midnightblue" d="M295.902,-175.672C298.849,-175.056 301.79,-174.488 304.644,-174 304.983,-173.942 631.791,-141.553 742.487,-130.583"/>
<polygon fill="midnightblue" stroke="midnightblue" points="742.9,-134.059 752.506,-129.59 742.21,-127.094 742.9,-134.059"/>
</g>
<!-- Node10&#45;&gt;Node21 -->
<g id="edge56" class="edge"><title>Node10&#45;&gt;Node21</title>
<path fill="none" stroke="midnightblue" d="M273.034,-174.362C283.736,-165.859 298.94,-153.779 311.315,-143.947"/>
<polygon fill="midnightblue" stroke="midnightblue" points="313.688,-146.532 319.34,-137.571 309.333,-141.051 313.688,-146.532"/>
</g>
<!-- Node22 -->
<g id="node54" class="node"><title>Node22</title>
<a xlink:href="SingletonTimer_8h.htm" target="_top" xlink:title="SingletonTimer.h">
<polygon fill="white" stroke="black" points="93.6443,-58.5 93.6443,-79.5 189.644,-79.5 189.644,-58.5 93.6443,-58.5"/>
<text text-anchor="middle" x="141.644" y="-66.5" font-family="Helvetica,sans-Serif" font-size="10.00">SingletonTimer.h</text>
</a>
</g>
<!-- Node10&#45;&gt;Node22 -->
<g id="edge64" class="edge"><title>Node10&#45;&gt;Node22</title>
<path fill="none" stroke="midnightblue" d="M248.755,-174.295C228.47,-154.355 184.711,-111.337 159.859,-86.9056"/>
<polygon fill="midnightblue" stroke="midnightblue" points="162.093,-84.1937 152.508,-79.6792 157.185,-89.1856 162.093,-84.1937"/>
</g>
<!-- Node13&#45;&gt;Node6 -->
<g id="edge28" class="edge"><title>Node13&#45;&gt;Node6</title>
<path fill="none" stroke="midnightblue" d="M348.397,-60.2565C351.141,-59.382 353.936,-58.598 356.644,-58 455.733,-36.1233 762.085,-18.952 876.736,-13.1346"/>
<polygon fill="midnightblue" stroke="midnightblue" points="877.09,-16.6213 886.901,-12.6232 876.738,-9.63018 877.09,-16.6213"/>
</g>
<!-- Node13&#45;&gt;Node11 -->
<g id="edge30" class="edge"><title>Node13&#45;&gt;Node11</title>
<path fill="none" stroke="midnightblue" d="M305.113,-60.7757C302.281,-59.7912 299.404,-58.8391 296.644,-58 240.096,-40.8069 172.76,-25.5691 134.426,-17.3746"/>
<polygon fill="midnightblue" stroke="midnightblue" points="134.925,-13.9025 124.416,-15.2543 133.474,-20.7506 134.925,-13.9025"/>
</g>
<!-- Node14&#45;&gt;Node6 -->
<g id="edge34" class="edge"><title>Node14&#45;&gt;Node6</title>
<path fill="none" stroke="midnightblue" d="M288.201,-59.4176C291.05,-58.8919 293.885,-58.4114 296.644,-58 512.766,-25.7776 774.469,-15.1755 876.722,-12.111"/>
<polygon fill="midnightblue" stroke="midnightblue" points="877.076,-15.6023 886.97,-11.8134 876.872,-8.60527 877.076,-15.6023"/>
</g>
<!-- Node14&#45;&gt;Node11 -->
<g id="edge36" class="edge"><title>Node14&#45;&gt;Node11</title>
<path fill="none" stroke="midnightblue" d="M221.567,-58.4966C196.845,-48.539 159.725,-33.588 133.754,-23.1276"/>
<polygon fill="midnightblue" stroke="midnightblue" points="134.979,-19.8478 124.396,-19.3582 132.364,-26.341 134.979,-19.8478"/>
</g>
<!-- Node15&#45;&gt;Node6 -->
<g id="edge40" class="edge"><title>Node15&#45;&gt;Node6</title>
<path fill="none" stroke="midnightblue" d="M794.496,-116.49C808.111,-107.281 828.101,-93.3228 844.644,-80 865.022,-63.5894 887.022,-43.3082 902.082,-28.993"/>
<polygon fill="midnightblue" stroke="midnightblue" points="904.879,-31.1608 909.68,-21.7164 900.037,-26.1051 904.879,-31.1608"/>
</g>
<!-- Node15&#45;&gt;Node11 -->
<g id="edge44" class="edge"><title>Node15&#45;&gt;Node11</title>
<path fill="none" stroke="midnightblue" d="M752.205,-124.101C729.731,-121.704 696.599,-118.328 667.644,-116 602.952,-110.799 129.1,-127.285 84.6443,-80 72.0284,-66.5811 80.3932,-45.5675 89.6713,-30.2537"/>
<polygon fill="midnightblue" stroke="midnightblue" points="92.8103,-31.8508 95.3869,-21.5741 86.964,-28.001 92.8103,-31.8508"/>
</g>
<!-- Node15&#45;&gt;Node13 -->
<g id="edge54" class="edge"><title>Node15&#45;&gt;Node13</title>
<path fill="none" stroke="midnightblue" d="M752.319,-123.048C737.214,-120.841 717.883,-118.117 700.644,-116 551.345,-97.6662 508.237,-113.991 358.433,-80.0005"/>
<polygon fill="midnightblue" stroke="midnightblue" points="358.94,-76.5256 348.409,-77.6879 357.366,-83.3465 358.94,-76.5256"/>
</g>
<!-- Node16 -->
<g id="node37" class="node"><title>Node16</title>
<polygon fill="white" stroke="#bfbfbf" points="366.644,-0.5 366.644,-21.5 416.644,-21.5 416.644,-0.5 366.644,-0.5"/>
<text text-anchor="middle" x="391.644" y="-8.5" font-family="Helvetica,sans-Serif" font-size="10.00">stdint.h</text>
</g>
<!-- Node15&#45;&gt;Node16 -->
<g id="edge42" class="edge"><title>Node15&#45;&gt;Node16</title>
<path fill="none" stroke="midnightblue" d="M752.502,-119.339C747.907,-118.128 743.153,-116.96 738.644,-116 634.87,-93.8953 602.176,-116.758 502.644,-80 468.783,-67.4947 434.142,-43.8866 412.766,-27.8036"/>
<polygon fill="midnightblue" stroke="midnightblue" points="414.788,-24.943 404.723,-21.6332 410.527,-30.497 414.788,-24.943"/>
</g>
<!-- Node17 -->
<g id="node40" class="node"><title>Node17</title>
<polygon fill="white" stroke="#bfbfbf" points="511.144,-58.5 511.144,-79.5 558.144,-79.5 558.144,-58.5 511.144,-58.5"/>
<text text-anchor="middle" x="534.644" y="-66.5" font-family="Helvetica,sans-Serif" font-size="10.00">stdio.h</text>
</g>
<!-- Node15&#45;&gt;Node17 -->
<g id="edge46" class="edge"><title>Node15&#45;&gt;Node17</title>
<path fill="none" stroke="midnightblue" d="M752.455,-119.548C747.865,-118.313 743.125,-117.084 738.644,-116 665.846,-98.3899 643.741,-100.517 568.289,-80.2313"/>
<polygon fill="midnightblue" stroke="midnightblue" points="568.876,-76.7634 558.307,-77.5022 567.03,-83.5156 568.876,-76.7634"/>
</g>
<!-- Node18 -->
<g id="node42" class="node"><title>Node18</title>
<polygon fill="white" stroke="#bfbfbf" points="575.144,-58.5 575.144,-79.5 626.144,-79.5 626.144,-58.5 575.144,-58.5"/>
<text text-anchor="middle" x="600.644" y="-66.5" font-family="Helvetica,sans-Serif" font-size="10.00">string.h</text>
</g>
<!-- Node15&#45;&gt;Node18 -->
<g id="edge48" class="edge"><title>Node15&#45;&gt;Node18</title>
<path fill="none" stroke="midnightblue" d="M752.38,-118.442C721.486,-108.375 670.071,-91.6221 635.771,-80.4458"/>
<polygon fill="midnightblue" stroke="midnightblue" points="636.743,-77.0813 626.15,-77.3109 634.574,-83.7369 636.743,-77.0813"/>
</g>
<!-- Node19 -->
<g id="node44" class="node"><title>Node19</title>
<polygon fill="white" stroke="#bfbfbf" points="643.644,-58.5 643.644,-79.5 729.644,-79.5 729.644,-58.5 643.644,-58.5"/>
<text text-anchor="middle" x="686.644" y="-66.5" font-family="Helvetica,sans-Serif" font-size="10.00">qnamespace.h</text>
</g>
<!-- Node15&#45;&gt;Node19 -->
<g id="edge50" class="edge"><title>Node15&#45;&gt;Node19</title>
<path fill="none" stroke="midnightblue" d="M761.77,-116.362C747.894,-107.614 728.01,-95.0786 712.185,-85.1015"/>
<polygon fill="midnightblue" stroke="midnightblue" points="713.737,-81.943 703.412,-79.5707 710.004,-87.8645 713.737,-81.943"/>
</g>
<!-- Node20 -->
<g id="node46" class="node"><title>Node20</title>
<polygon fill="white" stroke="#bfbfbf" points="747.644,-58.5 747.644,-79.5 835.644,-79.5 835.644,-58.5 747.644,-58.5"/>
<text text-anchor="middle" x="791.644" y="-66.5" font-family="Helvetica,sans-Serif" font-size="10.00">SysMgrEvent.h</text>
</g>
<!-- Node15&#45;&gt;Node20 -->
<g id="edge52" class="edge"><title>Node15&#45;&gt;Node20</title>
<path fill="none" stroke="midnightblue" d="M781.029,-116.362C782.715,-108.84 785.028,-98.5187 787.065,-89.4308"/>
<polygon fill="midnightblue" stroke="midnightblue" points="790.503,-90.0941 789.275,-79.5707 783.673,-88.563 790.503,-90.0941"/>
</g>
<!-- Node21&#45;&gt;Node6 -->
<g id="edge58" class="edge"><title>Node21&#45;&gt;Node6</title>
<path fill="none" stroke="midnightblue" d="M353.22,-116.487C384.58,-100.968 446.612,-72.2339 502.644,-58 636.153,-24.0848 799.854,-14.6319 876.771,-12.0054"/>
<polygon fill="midnightblue" stroke="midnightblue" points="877.153,-15.4951 887.036,-11.6782 876.93,-8.49864 877.153,-15.4951"/>
</g>
<!-- Node21&#45;&gt;Node11 -->
<g id="edge62" class="edge"><title>Node21&#45;&gt;Node11</title>
<path fill="none" stroke="midnightblue" d="M306.006,-125.048C232.804,-119.414 32.7372,-102.112 13.6443,-80 -8.4315,-54.4333 39.5039,-32.1447 73.5261,-20.2233"/>
<polygon fill="midnightblue" stroke="midnightblue" points="74.7489,-23.5048 83.1139,-17.0027 72.5199,-16.8691 74.7489,-23.5048"/>
</g>
<!-- Node21&#45;&gt;Node13 -->
<g id="edge60" class="edge"><title>Node21&#45;&gt;Node13</title>
<path fill="none" stroke="midnightblue" d="M331.544,-116.362C330.774,-108.922 329.721,-98.7427 328.789,-89.7276"/>
<polygon fill="midnightblue" stroke="midnightblue" points="332.248,-89.1574 327.738,-79.5707 325.285,-89.8777 332.248,-89.1574"/>
</g>
<!-- Node22&#45;&gt;Node6 -->
<g id="edge66" class="edge"><title>Node22&#45;&gt;Node6</title>
<path fill="none" stroke="midnightblue" d="M189.778,-59.2703C192.772,-58.8019 195.745,-58.3726 198.644,-58 454.215,-25.1534 763.791,-14.7689 876.726,-11.939"/>
<polygon fill="midnightblue" stroke="midnightblue" points="877.121,-15.4305 887.033,-11.6882 876.951,-8.43256 877.121,-15.4305"/>
</g>
<!-- Node22&#45;&gt;Node11 -->
<g id="edge68" class="edge"><title>Node22&#45;&gt;Node11</title>
<path fill="none" stroke="midnightblue" d="M134.675,-58.3619C129.479,-50.4313 122.244,-39.3885 116.067,-29.9606"/>
<polygon fill="midnightblue" stroke="midnightblue" points="118.978,-28.0172 110.57,-21.5707 113.123,-31.8534 118.978,-28.0172"/>
</g>
<!-- Node22&#45;&gt;Node16 -->
<g id="edge70" class="edge"><title>Node22&#45;&gt;Node16</title>
<path fill="none" stroke="midnightblue" d="M186.917,-58.4966C235.74,-47.1699 312.411,-29.3821 356.765,-19.0921"/>
<polygon fill="midnightblue" stroke="midnightblue" points="357.562,-22.5001 366.512,-16.8306 355.98,-15.6812 357.562,-22.5001"/>
</g>
<!-- Node23&#45;&gt;Node6 -->
<g id="edge76" class="edge"><title>Node23&#45;&gt;Node6</title>
<path fill="none" stroke="midnightblue" d="M1278.06,-116.267C1278.02,-100.87 1275.46,-72.7494 1258.64,-58 1236.85,-38.8755 1050.68,-21.5124 964.322,-14.4029"/>
<polygon fill="midnightblue" stroke="midnightblue" points="964.553,-10.9103 954.302,-13.5873 963.985,-17.8872 964.553,-10.9103"/>
</g>
<!-- Node24 -->
<g id="node63" class="node"><title>Node24</title>
<polygon fill="white" stroke="#bfbfbf" points="1197.64,-58.5 1197.64,-79.5 1249.64,-79.5 1249.64,-58.5 1197.64,-58.5"/>
<text text-anchor="middle" x="1223.64" y="-66.5" font-family="Helvetica,sans-Serif" font-size="10.00">QEvent</text>
</g>
<!-- Node23&#45;&gt;Node24 -->
<g id="edge78" class="edge"><title>Node23&#45;&gt;Node24</title>
<path fill="none" stroke="midnightblue" d="M1267.74,-116.362C1260.13,-108.186 1249.44,-96.7025 1240.49,-87.0907"/>
<polygon fill="midnightblue" stroke="midnightblue" points="1242.86,-84.5046 1233.49,-79.5707 1237.74,-89.2746 1242.86,-84.5046"/>
</g>
<!-- Node26 -->
<g id="node67" class="node"><title>Node26</title>
<polygon fill="white" stroke="#bfbfbf" points="376.644,-116.5 376.644,-137.5 432.644,-137.5 432.644,-116.5 376.644,-116.5"/>
<text text-anchor="middle" x="404.644" y="-124.5" font-family="Helvetica,sans-Serif" font-size="10.00">hal/hal.h</text>
</g>
<!-- Node25&#45;&gt;Node26 -->
<g id="edge82" class="edge"><title>Node25&#45;&gt;Node26</title>
<path fill="none" stroke="midnightblue" d="M491.202,-174.362C474.841,-165.409 451.231,-152.491 432.801,-142.406"/>
<polygon fill="midnightblue" stroke="midnightblue" points="434.416,-139.3 423.963,-137.571 431.056,-145.441 434.416,-139.3"/>
</g>
<!-- Node30&#45;&gt;Node2 -->
<g id="edge94" class="edge"><title>Node30&#45;&gt;Node2</title>
<path fill="none" stroke="midnightblue" d="M896.379,-182.296C923.114,-180.031 962.375,-176.74 996.644,-174 1202.22,-157.562 1260.12,-181.704 1465.03,-137.899"/>
<polygon fill="midnightblue" stroke="midnightblue" points="1465.86,-141.299 1474.9,-135.761 1464.38,-134.457 1465.86,-141.299"/>
</g>
<!-- Node30&#45;&gt;Node6 -->
<g id="edge92" class="edge"><title>Node30&#45;&gt;Node6</title>
<path fill="none" stroke="midnightblue" d="M881.962,-174.398C893.776,-166.105 908.524,-153.412 915.644,-138 931.596,-103.471 928.333,-57.8613 924.499,-31.7482"/>
<polygon fill="midnightblue" stroke="midnightblue" points="927.946,-31.142 922.875,-21.8396 921.038,-32.2741 927.946,-31.142"/>
</g>
<!-- Node30&#45;&gt;Node11 -->
<g id="edge100" class="edge"><title>Node30&#45;&gt;Node11</title>
<path fill="none" stroke="midnightblue" d="M832.878,-175.757C830.106,-175.105 827.334,-174.507 824.644,-174 673.142,-145.465 626.254,-185.673 479.644,-138 461.086,-131.965 460.222,-121.977 441.644,-116 363.636,-90.9009 129.689,-140.708 74.6443,-80 61.5356,-65.5425 73.7891,-44.3 86.1581,-29.2096"/>
<polygon fill="midnightblue" stroke="midnightblue" points="88.9206,-31.3679 92.8814,-21.5412 83.6571,-26.7531 88.9206,-31.3679"/>
</g>
<!-- Node31 -->
<g id="node79" class="node"><title>Node31</title>
<polygon fill="white" stroke="#bfbfbf" points="612.644,-116.5 612.644,-137.5 658.644,-137.5 658.644,-116.5 612.644,-116.5"/>
<text text-anchor="middle" x="635.644" y="-124.5" font-family="Helvetica,sans-Serif" font-size="10.00">vector</text>
</g>
<!-- Node30&#45;&gt;Node31 -->
<g id="edge96" class="edge"><title>Node30&#45;&gt;Node31</title>
<path fill="none" stroke="midnightblue" d="M832.795,-176.131C830.041,-175.398 827.296,-174.678 824.644,-174 757.386,-156.793 739.722,-155.899 672.644,-138 671.228,-137.622 669.783,-137.228 668.326,-136.824"/>
<polygon fill="midnightblue" stroke="midnightblue" points="669.257,-133.45 658.68,-134.067 667.333,-140.181 669.257,-133.45"/>
</g>
<!-- Node32 -->
<g id="node81" class="node"><title>Node32</title>
<polygon fill="white" stroke="#bfbfbf" points="488.144,-116.5 488.144,-137.5 519.144,-137.5 519.144,-116.5 488.144,-116.5"/>
<text text-anchor="middle" x="503.644" y="-124.5" font-family="Helvetica,sans-Serif" font-size="10.00">set</text>
</g>
<!-- Node30&#45;&gt;Node32 -->
<g id="edge98" class="edge"><title>Node30&#45;&gt;Node32</title>
<path fill="none" stroke="midnightblue" d="M832.868,-175.806C830.099,-175.143 827.33,-174.529 824.644,-174 697.37,-148.929 657.546,-172.901 529.196,-137.795"/>
<polygon fill="midnightblue" stroke="midnightblue" points="529.965,-134.375 519.391,-135.047 528.076,-141.116 529.965,-134.375"/>
</g>
<!-- Node33 -->
<g id="node84" class="node"><title>Node33</title>
<polygon fill="white" stroke="#bfbfbf" points="536.644,-116.5 536.644,-137.5 594.644,-137.5 594.644,-116.5 536.644,-116.5"/>
<text text-anchor="middle" x="565.644" y="-124.5" font-family="Helvetica,sans-Serif" font-size="10.00">QtGlobal</text>
</g>
<!-- Node30&#45;&gt;Node33 -->
<g id="edge102" class="edge"><title>Node30&#45;&gt;Node33</title>
<path fill="none" stroke="midnightblue" d="M832.844,-175.925C830.08,-175.236 827.318,-174.584 824.644,-174 730.55,-153.46 702.521,-159.447 604.991,-138.105"/>
<polygon fill="midnightblue" stroke="midnightblue" points="605.534,-134.64 595.012,-135.88 604.011,-141.472 605.534,-134.64"/>
</g>
<!-- Node34&#45;&gt;Node6 -->
<g id="edge106" class="edge"><title>Node34&#45;&gt;Node6</title>
<path fill="none" stroke="midnightblue" d="M1045.58,-174.136C1035.27,-146.964 1007.79,-76.8864 991.644,-58 980.719,-45.2178 965.485,-34.5153 951.928,-26.5681"/>
<polygon fill="midnightblue" stroke="midnightblue" points="953.321,-23.3371 942.884,-21.5146 949.907,-29.4479 953.321,-23.3371"/>
</g>
<!-- Node34&#45;&gt;Node13 -->
<g id="edge116" class="edge"><title>Node34&#45;&gt;Node13</title>
<path fill="none" stroke="midnightblue" d="M1005.09,-181.516C923.972,-174.759 755.483,-158.7 700.644,-138 684.153,-131.775 684.193,-122.071 667.644,-116 540.074,-69.1986 494.175,-110.158 358.353,-79.9587"/>
<polygon fill="midnightblue" stroke="midnightblue" points="358.948,-76.5039 348.416,-77.6592 357.369,-83.3237 358.948,-76.5039"/>
</g>
<!-- Node34&#45;&gt;Node15 -->
<g id="edge118" class="edge"><title>Node34&#45;&gt;Node15</title>
<path fill="none" stroke="midnightblue" d="M1004.89,-175.422C951.701,-164.038 863.975,-145.263 814.85,-134.749"/>
<polygon fill="midnightblue" stroke="midnightblue" points="815.49,-131.307 804.979,-132.636 814.025,-138.152 815.49,-131.307"/>
</g>
<!-- Node35 -->
<g id="node89" class="node"><title>Node35</title>
<a xlink:href="Timer_8h.htm" target="_top" xlink:title="Timer.h">
<polygon fill="white" stroke="black" points="365.644,-58.5 365.644,-79.5 417.644,-79.5 417.644,-58.5 365.644,-58.5"/>
<text text-anchor="middle" x="391.644" y="-66.5" font-family="Helvetica,sans-Serif" font-size="10.00">Timer.h</text>
</a>
</g>
<!-- Node34&#45;&gt;Node35 -->
<g id="edge108" class="edge"><title>Node34&#45;&gt;Node35</title>
<path fill="none" stroke="midnightblue" d="M1005.04,-182.624C944.534,-178.4 833.655,-167.097 743.644,-138 723.218,-131.397 721.094,-122.531 700.644,-116 595.383,-82.3855 563.747,-97.5045 454.644,-80 445.898,-78.5967 436.485,-76.9998 427.669,-75.4661"/>
<polygon fill="midnightblue" stroke="midnightblue" points="428.126,-71.9928 417.671,-73.7102 426.915,-78.8873 428.126,-71.9928"/>
</g>
<!-- Node34&#45;&gt;Node36 -->
<g id="edge120" class="edge"><title>Node34&#45;&gt;Node36</title>
<path fill="none" stroke="midnightblue" d="M1074.45,-174.497C1096.14,-165.315 1127.86,-151.889 1152.04,-141.652"/>
<polygon fill="midnightblue" stroke="midnightblue" points="1153.71,-144.743 1161.56,-137.621 1150.98,-138.297 1153.71,-144.743"/>
</g>
<!-- Node37 -->
<g id="node98" class="node"><title>Node37</title>
<polygon fill="white" stroke="#bfbfbf" points="1043.64,-116.5 1043.64,-137.5 1141.64,-137.5 1141.64,-116.5 1043.64,-116.5"/>
<text text-anchor="middle" x="1092.64" y="-124.5" font-family="Helvetica,sans-Serif" font-size="10.00">QGraphicsObject</text>
</g>
<!-- Node34&#45;&gt;Node37 -->
<g id="edge122" class="edge"><title>Node34&#45;&gt;Node37</title>
<path fill="none" stroke="midnightblue" d="M1057.53,-174.362C1063.47,-166.35 1071.77,-155.161 1078.8,-145.67"/>
<polygon fill="midnightblue" stroke="midnightblue" points="1081.66,-147.688 1084.81,-137.571 1076.04,-143.519 1081.66,-147.688"/>
</g>
<!-- Node35&#45;&gt;Node6 -->
<g id="edge110" class="edge"><title>Node35&#45;&gt;Node6</title>
<path fill="none" stroke="midnightblue" d="M417.744,-61.1273C422.344,-59.9396 427.111,-58.8347 431.644,-58 594.091,-28.0883 790.62,-16.5349 876.688,-12.6822"/>
<polygon fill="midnightblue" stroke="midnightblue" points="877.032,-16.1707 886.87,-12.2395 876.728,-9.17726 877.032,-16.1707"/>
</g>
<!-- Node35&#45;&gt;Node11 -->
<g id="edge112" class="edge"><title>Node35&#45;&gt;Node11</title>
<path fill="none" stroke="midnightblue" d="M365.368,-60.3673C362.439,-59.5169 359.487,-58.7081 356.644,-58 277.248,-38.2256 181.962,-22.6893 134.16,-15.4482"/>
<polygon fill="midnightblue" stroke="midnightblue" points="134.565,-11.9698 124.157,-13.9493 133.528,-18.8925 134.565,-11.9698"/>
</g>
<!-- Node35&#45;&gt;Node16 -->
<g id="edge114" class="edge"><title>Node35&#45;&gt;Node16</title>
<path fill="none" stroke="midnightblue" d="M391.644,-58.3619C391.644,-50.9219 391.644,-40.7427 391.644,-31.7276"/>
<polygon fill="midnightblue" stroke="midnightblue" points="395.144,-31.5706 391.644,-21.5707 388.144,-31.5707 395.144,-31.5706"/>
</g>
<!-- Node38&#45;&gt;Node6 -->
<g id="edge126" class="edge"><title>Node38&#45;&gt;Node6</title>
<path fill="none" stroke="midnightblue" d="M1539.49,-232.303C1545.14,-208.375 1554.98,-149.967 1526.64,-116 1454.63,-29.6692 1091.05,-14.3194 964.302,-11.5902"/>
<polygon fill="midnightblue" stroke="midnightblue" points="964.254,-8.08863 954.186,-11.3886 964.114,-15.0872 964.254,-8.08863"/>
</g>
<!-- Node39 -->
<g id="node103" class="node"><title>Node39</title>
<a xlink:href="QtUtils_8h.htm" target="_top" xlink:title="QtUtils.h">
<polygon fill="white" stroke="black" points="1564.64,-174.5 1564.64,-195.5 1620.64,-195.5 1620.64,-174.5 1564.64,-174.5"/>
<text text-anchor="middle" x="1592.64" y="-182.5" font-family="Helvetica,sans-Serif" font-size="10.00">QtUtils.h</text>
</a>
</g>
<!-- Node38&#45;&gt;Node39 -->
<g id="edge128" class="edge"><title>Node38&#45;&gt;Node39</title>
<path fill="none" stroke="midnightblue" d="M1546.92,-232.362C1554.89,-224.104 1566.12,-212.472 1575.46,-202.803"/>
<polygon fill="midnightblue" stroke="midnightblue" points="1578.01,-205.196 1582.44,-195.571 1572.97,-200.334 1578.01,-205.196"/>
</g>
<!-- Node38&#45;&gt;Node41 -->
<g id="edge138" class="edge"><title>Node38&#45;&gt;Node41</title>
<path fill="none" stroke="midnightblue" d="M1561.72,-232.499C1581.03,-223.909 1607.98,-210.796 1629.64,-196 1651.86,-180.825 1674.45,-159.769 1689.37,-144.919"/>
<polygon fill="midnightblue" stroke="midnightblue" points="1691.88,-147.354 1696.43,-137.783 1686.91,-142.432 1691.88,-147.354"/>
</g>
<!-- Node39&#45;&gt;Node2 -->
<g id="edge132" class="edge"><title>Node39&#45;&gt;Node2</title>
<path fill="none" stroke="midnightblue" d="M1575.04,-174.362C1560.42,-165.532 1539.42,-152.844 1522.83,-142.822"/>
<polygon fill="midnightblue" stroke="midnightblue" points="1524.51,-139.746 1514.14,-137.571 1520.89,-145.738 1524.51,-139.746"/>
</g>
<!-- Node39&#45;&gt;Node6 -->
<g id="edge130" class="edge"><title>Node39&#45;&gt;Node6</title>
<path fill="none" stroke="midnightblue" d="M1593.58,-174.365C1595.1,-149.505 1594.99,-87.4687 1559.64,-58 1514.11,-20.0328 1101.24,-12.7066 964.445,-11.3182"/>
<polygon fill="midnightblue" stroke="midnightblue" points="964.36,-7.81731 954.327,-11.2213 964.293,-14.817 964.36,-7.81731"/>
</g>
<!-- Node40 -->
<g id="node107" class="node"><title>Node40</title>
<polygon fill="white" stroke="#bfbfbf" points="1611.14,-116.5 1611.14,-137.5 1664.14,-137.5 1664.14,-116.5 1611.14,-116.5"/>
<text text-anchor="middle" x="1637.64" y="-124.5" font-family="Helvetica,sans-Serif" font-size="10.00">QString</text>
</g>
<!-- Node39&#45;&gt;Node40 -->
<g id="edge134" class="edge"><title>Node39&#45;&gt;Node40</title>
<path fill="none" stroke="midnightblue" d="M1600.9,-174.362C1607.11,-166.35 1615.8,-155.161 1623.16,-145.67"/>
<polygon fill="midnightblue" stroke="midnightblue" points="1626.08,-147.617 1629.44,-137.571 1620.55,-143.326 1626.08,-147.617"/>
</g>
<!-- Node39&#45;&gt;Node41 -->
<g id="edge136" class="edge"><title>Node39&#45;&gt;Node41</title>
<path fill="none" stroke="midnightblue" d="M1613.29,-174.497C1631.01,-165.479 1656.79,-152.365 1676.77,-142.201"/>
<polygon fill="midnightblue" stroke="midnightblue" points="1678.44,-145.275 1685.77,-137.621 1675.27,-139.036 1678.44,-145.275"/>
</g>
<!-- Node42&#45;&gt;Node2 -->
<g id="edge144" class="edge"><title>Node42&#45;&gt;Node2</title>
<path fill="none" stroke="midnightblue" d="M1377.9,-174.497C1402.51,-164.655 1439.31,-149.935 1465.41,-139.494"/>
<polygon fill="midnightblue" stroke="midnightblue" points="1466.86,-142.685 1474.84,-135.721 1464.26,-136.186 1466.86,-142.685"/>
</g>
<!-- Node42&#45;&gt;Node6 -->
<g id="edge142" class="edge"><title>Node42&#45;&gt;Node6</title>
<path fill="none" stroke="midnightblue" d="M1350.29,-174.107C1348.17,-159.969 1343.18,-134.877 1332.64,-116 1315.47,-85.2476 1309.95,-74.1334 1278.64,-58 1224.67,-30.188 1047.39,-17.5548 964.324,-13.0537"/>
<polygon fill="midnightblue" stroke="midnightblue" points="964.369,-9.55136 954.199,-12.5203 964.001,-16.5417 964.369,-9.55136"/>
</g>
<!-- Node42&#45;&gt;Node21 -->
<g id="edge148" class="edge"><title>Node42&#45;&gt;Node21</title>
<path fill="none" stroke="midnightblue" d="M1309.85,-183.15C1134.64,-175.376 464.33,-145.455 369.359,-137.25"/>
<polygon fill="midnightblue" stroke="midnightblue" points="369.546,-133.75 359.221,-136.127 368.775,-140.707 369.546,-133.75"/>
</g>
<!-- Node42&#45;&gt;Node23 -->
<g id="edge150" class="edge"><title>Node42&#45;&gt;Node23</title>
<path fill="none" stroke="midnightblue" d="M1338.07,-174.362C1327.22,-165.859 1311.81,-153.779 1299.27,-143.947"/>
<polygon fill="midnightblue" stroke="midnightblue" points="1301.16,-140.985 1291.13,-137.571 1296.84,-146.494 1301.16,-140.985"/>
</g>
<!-- Node42&#45;&gt;Node36 -->
<g id="edge152" class="edge"><title>Node42&#45;&gt;Node36</title>
<path fill="none" stroke="midnightblue" d="M1321.76,-174.497C1294.31,-164.847 1253.52,-150.509 1223.95,-140.112"/>
<polygon fill="midnightblue" stroke="midnightblue" points="1224.97,-136.764 1214.38,-136.75 1222.65,-143.368 1224.97,-136.764"/>
</g>
<!-- Node43 -->
<g id="node116" class="node"><title>Node43</title>
<polygon fill="white" stroke="#bfbfbf" points="1379.64,-116.5 1379.64,-137.5 1457.64,-137.5 1457.64,-116.5 1379.64,-116.5"/>
<text text-anchor="middle" x="1418.64" y="-124.5" font-family="Helvetica,sans-Serif" font-size="10.00">lunaservice.h</text>
</g>
<!-- Node42&#45;&gt;Node43 -->
<g id="edge146" class="edge"><title>Node42&#45;&gt;Node43</title>
<path fill="none" stroke="midnightblue" d="M1363.93,-174.362C1373.66,-165.941 1387.44,-154.011 1398.74,-144.231"/>
<polygon fill="midnightblue" stroke="midnightblue" points="1401.16,-146.762 1406.43,-137.571 1396.58,-141.469 1401.16,-146.762"/>
</g>
</g>
</svg>
