<?xml version="1.0" encoding="UTF-8" standalone="no"?>
<!DOCTYPE svg PUBLIC "-//W3C//DTD SVG 1.1//EN"
 "http://www.w3.org/Graphics/SVG/1.1/DTD/svg11.dtd">
<!-- Generated by graphviz version 2.26.3 (20100126.1600)
 -->
<!-- Title: G Pages: 1 -->
<svg width="1097pt" height="204pt"
 viewBox="0.00 0.00 1097.25 204.00" xmlns="http://www.w3.org/2000/svg" xmlns:xlink="http://www.w3.org/1999/xlink">
<g id="graph1" class="graph" transform="scale(1 1) rotate(0) translate(4 200)">
<title>G</title>
<polygon fill="white" stroke="white" points="-4,5 -4,-200 1094.25,-200 1094.25,5 -4,5"/>
<!-- Node1 -->
<g id="node1" class="node"><title>Node1</title>
<polygon fill="#bfbfbf" stroke="black" points="395.247,-174.5 395.247,-195.5 509.247,-195.5 509.247,-174.5 395.247,-174.5"/>
<text text-anchor="middle" x="452.247" y="-182.5" font-family="Helvetica,sans-Serif" font-size="10.00">DashboardWindow.h</text>
</g>
<!-- Node2 -->
<g id="node3" class="node"><title>Node2</title>
<a xlink:href="Common_8h.htm" target="_top" xlink:title="Common.h">
<polygon fill="white" stroke="black" points="222.747,-0.5 222.747,-21.5 289.747,-21.5 289.747,-0.5 222.747,-0.5"/>
<text text-anchor="middle" x="256.247" y="-8.5" font-family="Helvetica,sans-Serif" font-size="10.00">Common.h</text>
</a>
</g>
<!-- Node1&#45;&gt;Node2 -->
<g id="edge2" class="edge"><title>Node1&#45;&gt;Node2</title>
<path fill="none" stroke="midnightblue" d="M394.966,-180.714C284.689,-171.087 49.8172,-143.431 5.24674,-80 -0.374735,-71.9998 -0.998607,-65.5233 5.24674,-58 31.0648,-26.8988 147.452,-16.2579 212.285,-12.7094"/>
<polygon fill="midnightblue" stroke="midnightblue" points="212.801,-16.1877 222.609,-12.1804 212.443,-9.19685 212.801,-16.1877"/>
</g>
<!-- Node3 -->
<g id="node5" class="node"><title>Node3</title>
<a xlink:href="Event_8h.htm" target="_top" xlink:title="Event.h">
<polygon fill="white" stroke="black" points="175.247,-116.5 175.247,-137.5 227.247,-137.5 227.247,-116.5 175.247,-116.5"/>
<text text-anchor="middle" x="201.247" y="-124.5" font-family="Helvetica,sans-Serif" font-size="10.00">Event.h</text>
</a>
</g>
<!-- Node1&#45;&gt;Node3 -->
<g id="edge4" class="edge"><title>Node1&#45;&gt;Node3</title>
<path fill="none" stroke="midnightblue" d="M406.793,-174.497C358.168,-163.261 282.03,-145.667 237.344,-135.341"/>
<polygon fill="midnightblue" stroke="midnightblue" points="238.033,-131.908 227.502,-133.067 236.457,-138.729 238.033,-131.908"/>
</g>
<!-- Node11 -->
<g id="node24" class="node"><title>Node11</title>
<a xlink:href="HostWindow_8h.htm" target="_top" xlink:title="HostWindow.h">
<polygon fill="white" stroke="black" points="661.247,-116.5 661.247,-137.5 745.247,-137.5 745.247,-116.5 661.247,-116.5"/>
<text text-anchor="middle" x="703.247" y="-124.5" font-family="Helvetica,sans-Serif" font-size="10.00">HostWindow.h</text>
</a>
</g>
<!-- Node1&#45;&gt;Node11 -->
<g id="edge26" class="edge"><title>Node1&#45;&gt;Node11</title>
<path fill="none" stroke="midnightblue" d="M497.701,-174.497C540.911,-164.512 605.85,-149.506 651.135,-139.042"/>
<polygon fill="midnightblue" stroke="midnightblue" points="652.1,-142.411 661.055,-136.75 650.523,-135.591 652.1,-142.411"/>
</g>
<!-- Node17 -->
<g id="node42" class="node"><title>Node17</title>
<polygon fill="white" stroke="#bfbfbf" points="1030.75,-0.5 1030.75,-21.5 1089.75,-21.5 1089.75,-0.5 1030.75,-0.5"/>
<text text-anchor="middle" x="1060.25" y="-8.5" font-family="Helvetica,sans-Serif" font-size="10.00">QPixmap</text>
</g>
<!-- Node1&#45;&gt;Node17 -->
<g id="edge64" class="edge"><title>Node1&#45;&gt;Node17</title>
<path fill="none" stroke="midnightblue" d="M509.269,-183.465C644.423,-178.558 978.376,-158.572 1051.25,-80 1063.08,-67.2415 1064.45,-46.9964 1063.38,-31.7284"/>
<polygon fill="midnightblue" stroke="midnightblue" points="1066.84,-31.2321 1062.28,-21.6687 1059.89,-31.9883 1066.84,-31.2321"/>
</g>
<!-- Node3&#45;&gt;Node2 -->
<g id="edge6" class="edge"><title>Node3&#45;&gt;Node2</title>
<path fill="none" stroke="midnightblue" d="M175.178,-120.503C139.122,-110.241 80.8644,-88.2902 103.247,-58 116.377,-40.2305 172.233,-26.4014 212.667,-18.4739"/>
<polygon fill="midnightblue" stroke="midnightblue" points="213.41,-21.8954 222.579,-16.5868 212.101,-15.0189 213.41,-21.8954"/>
</g>
<!-- Node4 -->
<g id="node8" class="node"><title>Node4</title>
<polygon fill="white" stroke="#bfbfbf" points="448.247,-0.5 448.247,-21.5 498.247,-21.5 498.247,-0.5 448.247,-0.5"/>
<text text-anchor="middle" x="473.247" y="-8.5" font-family="Helvetica,sans-Serif" font-size="10.00">stdint.h</text>
</g>
<!-- Node3&#45;&gt;Node4 -->
<g id="edge8" class="edge"><title>Node3&#45;&gt;Node4</title>
<path fill="none" stroke="midnightblue" d="M227.639,-125.066C283.685,-120.468 412.165,-107.181 445.247,-80 459.715,-68.1125 466.774,-47.5882 470.177,-32.0059"/>
<polygon fill="midnightblue" stroke="midnightblue" points="473.701,-32.1945 472.063,-21.7271 466.816,-30.9316 473.701,-32.1945"/>
</g>
<!-- Node5 -->
<g id="node10" class="node"><title>Node5</title>
<polygon fill="white" stroke="#bfbfbf" points="14.7467,-0.5 14.7467,-21.5 55.7467,-21.5 55.7467,-0.5 14.7467,-0.5"/>
<text text-anchor="middle" x="35.2467" y="-8.5" font-family="Helvetica,sans-Serif" font-size="10.00">glib.h</text>
</g>
<!-- Node3&#45;&gt;Node5 -->
<g id="edge10" class="edge"><title>Node3&#45;&gt;Node5</title>
<path fill="none" stroke="midnightblue" d="M174.901,-124.641C126.418,-119.695 26.1015,-106.447 5.24674,-80 -6.76431,-64.7683 5.25406,-43.9899 17.4656,-29.2251"/>
<polygon fill="midnightblue" stroke="midnightblue" points="20.1075,-31.521 24.1182,-21.7146 14.8676,-26.8795 20.1075,-31.521"/>
</g>
<!-- Node6 -->
<g id="node12" class="node"><title>Node6</title>
<polygon fill="white" stroke="#bfbfbf" points="111.747,-58.5 111.747,-79.5 158.747,-79.5 158.747,-58.5 111.747,-58.5"/>
<text text-anchor="middle" x="135.247" y="-66.5" font-family="Helvetica,sans-Serif" font-size="10.00">stdio.h</text>
</g>
<!-- Node3&#45;&gt;Node6 -->
<g id="edge12" class="edge"><title>Node3&#45;&gt;Node6</title>
<path fill="none" stroke="midnightblue" d="M189.141,-116.362C179.559,-107.941 165.983,-96.0105 154.854,-86.2308"/>
<polygon fill="midnightblue" stroke="midnightblue" points="157.097,-83.5427 147.275,-79.5707 152.477,-88.8009 157.097,-83.5427"/>
</g>
<!-- Node7 -->
<g id="node14" class="node"><title>Node7</title>
<polygon fill="white" stroke="#bfbfbf" points="175.747,-58.5 175.747,-79.5 226.747,-79.5 226.747,-58.5 175.747,-58.5"/>
<text text-anchor="middle" x="201.247" y="-66.5" font-family="Helvetica,sans-Serif" font-size="10.00">string.h</text>
</g>
<!-- Node3&#45;&gt;Node7 -->
<g id="edge14" class="edge"><title>Node3&#45;&gt;Node7</title>
<path fill="none" stroke="midnightblue" d="M201.247,-116.362C201.247,-108.922 201.247,-98.7427 201.247,-89.7276"/>
<polygon fill="midnightblue" stroke="midnightblue" points="204.747,-89.5706 201.247,-79.5707 197.747,-89.5707 204.747,-89.5706"/>
</g>
<!-- Node8 -->
<g id="node16" class="node"><title>Node8</title>
<polygon fill="white" stroke="#bfbfbf" points="244.247,-58.5 244.247,-79.5 330.247,-79.5 330.247,-58.5 244.247,-58.5"/>
<text text-anchor="middle" x="287.247" y="-66.5" font-family="Helvetica,sans-Serif" font-size="10.00">qnamespace.h</text>
</g>
<!-- Node3&#45;&gt;Node8 -->
<g id="edge16" class="edge"><title>Node3&#45;&gt;Node8</title>
<path fill="none" stroke="midnightblue" d="M217.02,-116.362C229.871,-107.696 248.232,-95.3126 262.956,-85.3819"/>
<polygon fill="midnightblue" stroke="midnightblue" points="265.239,-88.0639 271.573,-79.5707 261.325,-82.2604 265.239,-88.0639"/>
</g>
<!-- Node9 -->
<g id="node18" class="node"><title>Node9</title>
<polygon fill="white" stroke="#bfbfbf" points="348.247,-58.5 348.247,-79.5 436.247,-79.5 436.247,-58.5 348.247,-58.5"/>
<text text-anchor="middle" x="392.247" y="-66.5" font-family="Helvetica,sans-Serif" font-size="10.00">SysMgrEvent.h</text>
</g>
<!-- Node3&#45;&gt;Node9 -->
<g id="edge18" class="edge"><title>Node3&#45;&gt;Node9</title>
<path fill="none" stroke="midnightblue" d="M227.404,-119.057C258.354,-109.659 310.385,-93.8585 347.717,-82.522"/>
<polygon fill="midnightblue" stroke="midnightblue" points="348.796,-85.8522 357.348,-79.5975 346.762,-79.1542 348.796,-85.8522"/>
</g>
<!-- Node10 -->
<g id="node20" class="node"><title>Node10</title>
<a xlink:href="sptr_8h.htm" target="_top" xlink:title="sptr.h">
<polygon fill="white" stroke="black" points="13.7467,-58.5 13.7467,-79.5 56.7467,-79.5 56.7467,-58.5 13.7467,-58.5"/>
<text text-anchor="middle" x="35.2467" y="-66.5" font-family="Helvetica,sans-Serif" font-size="10.00">sptr.h</text>
</a>
</g>
<!-- Node3&#45;&gt;Node10 -->
<g id="edge20" class="edge"><title>Node3&#45;&gt;Node10</title>
<path fill="none" stroke="midnightblue" d="M174.944,-117.81C145.494,-107.52 97.8016,-90.8565 66.4805,-79.913"/>
<polygon fill="midnightblue" stroke="midnightblue" points="67.5252,-76.5706 56.9304,-76.5762 65.2163,-83.1788 67.5252,-76.5706"/>
</g>
<!-- Node10&#45;&gt;Node2 -->
<g id="edge22" class="edge"><title>Node10&#45;&gt;Node2</title>
<path fill="none" stroke="midnightblue" d="M57.0335,-61.9418C61.3962,-60.5881 65.9569,-59.215 70.2467,-58 118.579,-44.3106 174.52,-30.438 212.33,-21.3496"/>
<polygon fill="midnightblue" stroke="midnightblue" points="213.581,-24.649 222.492,-18.9172 211.952,-17.8413 213.581,-24.649"/>
</g>
<!-- Node10&#45;&gt;Node5 -->
<g id="edge24" class="edge"><title>Node10&#45;&gt;Node5</title>
<path fill="none" stroke="midnightblue" d="M35.2467,-58.3619C35.2467,-50.9219 35.2467,-40.7427 35.2467,-31.7276"/>
<polygon fill="midnightblue" stroke="midnightblue" points="38.7468,-31.5706 35.2467,-21.5707 31.7468,-31.5707 38.7468,-31.5706"/>
</g>
<!-- Node11&#45;&gt;Node2 -->
<g id="edge28" class="edge"><title>Node11&#45;&gt;Node2</title>
<path fill="none" stroke="midnightblue" d="M661.228,-116.518C624.281,-107.212 569.089,-93.0991 521.247,-80 487.33,-70.7139 479.204,-67.1336 445.247,-58 395.492,-44.6173 338.004,-30.5137 299.618,-21.2891"/>
<polygon fill="midnightblue" stroke="midnightblue" points="300.344,-17.8642 289.804,-18.937 298.713,-24.6714 300.344,-17.8642"/>
</g>
<!-- Node11&#45;&gt;Node11 -->
<g id="edge44" class="edge"><title>Node11&#45;&gt;Node11</title>
<path fill="none" stroke="midnightblue" d="M733.81,-137.524C749.33,-139.061 763.247,-135.553 763.247,-127 763.247,-120.385 754.922,-116.788 743.969,-116.208"/>
<polygon fill="midnightblue" stroke="midnightblue" points="743.714,-112.714 733.81,-116.476 743.899,-119.711 743.714,-112.714"/>
</g>
<!-- Node12 -->
<g id="node27" class="node"><title>Node12</title>
<a xlink:href="Window_8h.htm" target="_top" xlink:title="Window.h">
<polygon fill="white" stroke="black" points="672.247,-58.5 672.247,-79.5 734.247,-79.5 734.247,-58.5 672.247,-58.5"/>
<text text-anchor="middle" x="703.247" y="-66.5" font-family="Helvetica,sans-Serif" font-size="10.00">Window.h</text>
</a>
</g>
<!-- Node11&#45;&gt;Node12 -->
<g id="edge30" class="edge"><title>Node11&#45;&gt;Node12</title>
<path fill="none" stroke="midnightblue" d="M703.247,-116.362C703.247,-108.922 703.247,-98.7427 703.247,-89.7276"/>
<polygon fill="midnightblue" stroke="midnightblue" points="706.747,-89.5706 703.247,-79.5707 699.747,-89.5707 706.747,-89.5706"/>
</g>
<!-- Node16 -->
<g id="node39" class="node"><title>Node16</title>
<a xlink:href="HostWindowData_8h.htm" target="_top" xlink:title="HostWindowData.h">
<polygon fill="white" stroke="black" points="843.747,-58.5 843.747,-79.5 950.747,-79.5 950.747,-58.5 843.747,-58.5"/>
<text text-anchor="middle" x="897.247" y="-66.5" font-family="Helvetica,sans-Serif" font-size="10.00">HostWindowData.h</text>
</a>
</g>
<!-- Node11&#45;&gt;Node16 -->
<g id="edge46" class="edge"><title>Node11&#45;&gt;Node16</title>
<path fill="none" stroke="midnightblue" d="M738.379,-116.497C770.28,-106.959 817.503,-92.8408 852.175,-82.475"/>
<polygon fill="midnightblue" stroke="midnightblue" points="853.471,-85.7409 862.049,-79.5231 851.465,-79.0342 853.471,-85.7409"/>
</g>
<!-- Node19 -->
<g id="node46" class="node"><title>Node19</title>
<a xlink:href="InputClient_8h.htm" target="_top" xlink:title="InputClient.h">
<polygon fill="white" stroke="black" points="751.747,-58.5 751.747,-79.5 826.747,-79.5 826.747,-58.5 751.747,-58.5"/>
<text text-anchor="middle" x="789.247" y="-66.5" font-family="Helvetica,sans-Serif" font-size="10.00">InputClient.h</text>
</a>
</g>
<!-- Node11&#45;&gt;Node19 -->
<g id="edge54" class="edge"><title>Node11&#45;&gt;Node19</title>
<path fill="none" stroke="midnightblue" d="M719.02,-116.362C731.871,-107.696 750.232,-95.3126 764.956,-85.3819"/>
<polygon fill="midnightblue" stroke="midnightblue" points="767.239,-88.0639 773.573,-79.5707 763.325,-82.2604 767.239,-88.0639"/>
</g>
<!-- Node21 -->
<g id="node51" class="node"><title>Node21</title>
<polygon fill="white" stroke="#bfbfbf" points="968.247,-58.5 968.247,-79.5 1042.25,-79.5 1042.25,-58.5 968.247,-58.5"/>
<text text-anchor="middle" x="1005.25" y="-66.5" font-family="Helvetica,sans-Serif" font-size="10.00">PIpcBuffer.h</text>
</g>
<!-- Node11&#45;&gt;Node21 -->
<g id="edge60" class="edge"><title>Node11&#45;&gt;Node21</title>
<path fill="none" stroke="midnightblue" d="M745.51,-119.949C794.39,-111.638 877.494,-97.026 958.289,-80.1271"/>
<polygon fill="midnightblue" stroke="midnightblue" points="959.064,-83.5408 968.128,-78.0552 957.621,-76.691 959.064,-83.5408"/>
</g>
<!-- Node22 -->
<g id="node53" class="node"><title>Node22</title>
<polygon fill="white" stroke="#bfbfbf" points="530.247,-58.5 530.247,-79.5 654.247,-79.5 654.247,-58.5 530.247,-58.5"/>
<text text-anchor="middle" x="592.247" y="-66.5" font-family="Helvetica,sans-Serif" font-size="10.00">PIpcChannelListener.h</text>
</g>
<!-- Node11&#45;&gt;Node22 -->
<g id="edge62" class="edge"><title>Node11&#45;&gt;Node22</title>
<path fill="none" stroke="midnightblue" d="M683.145,-116.497C665.965,-107.519 641.017,-94.4835 621.602,-84.3387"/>
<polygon fill="midnightblue" stroke="midnightblue" points="623.057,-81.1503 612.574,-79.6212 619.816,-87.3544 623.057,-81.1503"/>
</g>
<!-- Node12&#45;&gt;Node2 -->
<g id="edge32" class="edge"><title>Node12&#45;&gt;Node2</title>
<path fill="none" stroke="midnightblue" d="M671.911,-59.8938C668.996,-59.1947 666.075,-58.5488 663.247,-58 532.201,-32.5705 374.559,-19.1663 299.744,-13.8226"/>
<polygon fill="midnightblue" stroke="midnightblue" points="299.969,-10.3299 289.749,-13.1217 299.479,-17.3127 299.969,-10.3299"/>
</g>
<!-- Node12&#45;&gt;Node4 -->
<g id="edge34" class="edge"><title>Node12&#45;&gt;Node4</title>
<path fill="none" stroke="midnightblue" d="M671.824,-60.2764C668.927,-59.4969 666.034,-58.7279 663.247,-58 609.453,-43.9524 546.809,-28.6624 508.602,-19.4564"/>
<polygon fill="midnightblue" stroke="midnightblue" points="509.042,-15.9626 498.501,-17.0272 507.406,-22.7685 509.042,-15.9626"/>
</g>
<!-- Node12&#45;&gt;Node5 -->
<g id="edge38" class="edge"><title>Node12&#45;&gt;Node5</title>
<path fill="none" stroke="midnightblue" d="M671.934,-59.772C669.013,-59.0984 666.085,-58.4918 663.247,-58 604.092,-47.7523 184.154,-20.4911 66.0689,-12.9546"/>
<polygon fill="midnightblue" stroke="midnightblue" points="66.1146,-9.45047 55.9123,-12.3075 65.6695,-16.4363 66.1146,-9.45047"/>
</g>
<!-- Node13 -->
<g id="node31" class="node"><title>Node13</title>
<polygon fill="white" stroke="#bfbfbf" points="731.747,-0.5 731.747,-21.5 774.747,-21.5 774.747,-0.5 731.747,-0.5"/>
<text text-anchor="middle" x="753.247" y="-8.5" font-family="Helvetica,sans-Serif" font-size="10.00">string</text>
</g>
<!-- Node12&#45;&gt;Node13 -->
<g id="edge36" class="edge"><title>Node12&#45;&gt;Node13</title>
<path fill="none" stroke="midnightblue" d="M712.418,-58.3619C719.395,-50.2678 729.168,-38.9318 737.402,-29.3796"/>
<polygon fill="midnightblue" stroke="midnightblue" points="740.256,-31.4301 744.134,-21.5707 734.954,-26.8595 740.256,-31.4301"/>
</g>
<!-- Node14 -->
<g id="node34" class="node"><title>Node14</title>
<polygon fill="white" stroke="#bfbfbf" points="616.247,-0.5 616.247,-21.5 714.247,-21.5 714.247,-0.5 616.247,-0.5"/>
<text text-anchor="middle" x="665.247" y="-8.5" font-family="Helvetica,sans-Serif" font-size="10.00">QGraphicsObject</text>
</g>
<!-- Node12&#45;&gt;Node14 -->
<g id="edge40" class="edge"><title>Node12&#45;&gt;Node14</title>
<path fill="none" stroke="midnightblue" d="M696.277,-58.3619C691.081,-50.4313 683.846,-39.3885 677.669,-29.9606"/>
<polygon fill="midnightblue" stroke="midnightblue" points="680.58,-28.0172 672.172,-21.5707 674.725,-31.8534 680.58,-28.0172"/>
</g>
<!-- Node15 -->
<g id="node36" class="node"><title>Node15</title>
<polygon fill="white" stroke="#bfbfbf" points="553.747,-0.5 553.747,-21.5 598.747,-21.5 598.747,-0.5 553.747,-0.5"/>
<text text-anchor="middle" x="576.247" y="-8.5" font-family="Helvetica,sans-Serif" font-size="10.00">QSize</text>
</g>
<!-- Node12&#45;&gt;Node15 -->
<g id="edge42" class="edge"><title>Node12&#45;&gt;Node15</title>
<path fill="none" stroke="midnightblue" d="M680.248,-58.4966C660.108,-49.299 630.64,-35.8411 608.209,-25.597"/>
<polygon fill="midnightblue" stroke="midnightblue" points="609.625,-22.3958 599.074,-21.4252 606.717,-28.7632 609.625,-22.3958"/>
</g>
<!-- Node16&#45;&gt;Node2 -->
<g id="edge48" class="edge"><title>Node16&#45;&gt;Node2</title>
<path fill="none" stroke="midnightblue" d="M843.526,-59.1483C840.73,-58.7359 837.957,-58.3497 835.247,-58 731.601,-44.6293 416.307,-22.1046 299.972,-14.01"/>
<polygon fill="midnightblue" stroke="midnightblue" points="300.212,-10.5183 289.994,-13.3171 299.727,-17.5015 300.212,-10.5183"/>
</g>
<!-- Node16&#45;&gt;Node17 -->
<g id="edge50" class="edge"><title>Node16&#45;&gt;Node17</title>
<path fill="none" stroke="midnightblue" d="M926.765,-58.4966C953.223,-49.082 992.226,-35.2036 1021.25,-24.8773"/>
<polygon fill="midnightblue" stroke="midnightblue" points="1022.43,-28.173 1030.67,-21.5231 1020.08,-21.578 1022.43,-28.173"/>
</g>
<!-- Node18 -->
<g id="node44" class="node"><title>Node18</title>
<polygon fill="white" stroke="#bfbfbf" points="908.247,-0.5 908.247,-21.5 994.247,-21.5 994.247,-0.5 908.247,-0.5"/>
<text text-anchor="middle" x="951.247" y="-8.5" font-family="Helvetica,sans-Serif" font-size="10.00">PIpcChannel.h</text>
</g>
<!-- Node16&#45;&gt;Node18 -->
<g id="edge52" class="edge"><title>Node16&#45;&gt;Node18</title>
<path fill="none" stroke="midnightblue" d="M907.151,-58.3619C914.763,-50.1861 925.455,-38.7025 934.404,-29.0907"/>
<polygon fill="midnightblue" stroke="midnightblue" points="937.153,-31.2746 941.405,-21.5707 932.029,-26.5046 937.153,-31.2746"/>
</g>
<!-- Node19&#45;&gt;Node13 -->
<g id="edge58" class="edge"><title>Node19&#45;&gt;Node13</title>
<path fill="none" stroke="midnightblue" d="M782.644,-58.3619C777.772,-50.5131 771.008,-39.6159 765.197,-30.2527"/>
<polygon fill="midnightblue" stroke="midnightblue" points="768.055,-28.2213 759.808,-21.5707 762.108,-31.9129 768.055,-28.2213"/>
</g>
<!-- Node20 -->
<g id="node48" class="node"><title>Node20</title>
<polygon fill="white" stroke="#bfbfbf" points="792.247,-0.5 792.247,-21.5 890.247,-21.5 890.247,-0.5 792.247,-0.5"/>
<text text-anchor="middle" x="841.247" y="-8.5" font-family="Helvetica,sans-Serif" font-size="10.00">palmimedefines.h</text>
</g>
<!-- Node19&#45;&gt;Node20 -->
<g id="edge56" class="edge"><title>Node19&#45;&gt;Node20</title>
<path fill="none" stroke="midnightblue" d="M798.784,-58.3619C806.114,-50.1861 816.41,-38.7025 825.028,-29.0907"/>
<polygon fill="midnightblue" stroke="midnightblue" points="827.7,-31.3528 831.77,-21.5707 822.488,-26.68 827.7,-31.3528"/>
</g>
</g>
</svg>
