<?xml version="1.0" encoding="UTF-8" standalone="no"?>
<!DOCTYPE svg PUBLIC "-//W3C//DTD SVG 1.1//EN"
 "http://www.w3.org/Graphics/SVG/1.1/DTD/svg11.dtd">
<!-- Generated by graphviz version 2.26.3 (20100126.1600)
 -->
<!-- Title: G Pages: 1 -->
<svg width="963pt" height="146pt"
 viewBox="0.00 0.00 963.00 146.00" xmlns="http://www.w3.org/2000/svg" xmlns:xlink="http://www.w3.org/1999/xlink">
<g id="graph1" class="graph" transform="scale(1 1) rotate(0) translate(4 142)">
<title>G</title>
<polygon fill="white" stroke="white" points="-4,5 -4,-142 960,-142 960,5 -4,5"/>
<!-- Node1 -->
<g id="node1" class="node"><title>Node1</title>
<polygon fill="#bfbfbf" stroke="black" points="467.5,-116.5 467.5,-137.5 628.5,-137.5 628.5,-116.5 467.5,-116.5"/>
<text text-anchor="middle" x="548" y="-124.5" font-family="Helvetica,sans-Serif" font-size="10.00">DashboardWindowContainer.h</text>
</g>
<!-- Node2 -->
<g id="node3" class="node"><title>Node2</title>
<a xlink:href="Common_8h.htm" target="_top" xlink:title="Common.h">
<polygon fill="white" stroke="black" points="766.5,-0.5 766.5,-21.5 833.5,-21.5 833.5,-0.5 766.5,-0.5"/>
<text text-anchor="middle" x="800" y="-8.5" font-family="Helvetica,sans-Serif" font-size="10.00">Common.h</text>
</a>
</g>
<!-- Node1&#45;&gt;Node2 -->
<g id="edge2" class="edge"><title>Node1&#45;&gt;Node2</title>
<path fill="none" stroke="midnightblue" d="M628.577,-121.765C691.259,-115.899 771.142,-103.882 793,-80 804.709,-67.2064 805.458,-46.9656 803.874,-31.7082"/>
<polygon fill="midnightblue" stroke="midnightblue" points="807.316,-31.058 802.431,-21.6569 800.387,-32.0528 807.316,-31.058"/>
</g>
<!-- Node3 -->
<g id="node5" class="node"><title>Node3</title>
<polygon fill="white" stroke="#bfbfbf" points="203.5,-58.5 203.5,-79.5 244.5,-79.5 244.5,-58.5 203.5,-58.5"/>
<text text-anchor="middle" x="224" y="-66.5" font-family="Helvetica,sans-Serif" font-size="10.00">QList</text>
</g>
<!-- Node1&#45;&gt;Node3 -->
<g id="edge4" class="edge"><title>Node1&#45;&gt;Node3</title>
<path fill="none" stroke="midnightblue" d="M467.254,-118.653C409.89,-111.681 331.07,-99.9931 254.546,-80.054"/>
<polygon fill="midnightblue" stroke="midnightblue" points="255.305,-76.6344 244.742,-77.4501 253.508,-83.3998 255.305,-76.6344"/>
</g>
<!-- Node4 -->
<g id="node7" class="node"><title>Node4</title>
<polygon fill="white" stroke="#bfbfbf" points="261.5,-58.5 261.5,-79.5 316.5,-79.5 316.5,-58.5 261.5,-58.5"/>
<text text-anchor="middle" x="289" y="-66.5" font-family="Helvetica,sans-Serif" font-size="10.00">QObject</text>
</g>
<!-- Node1&#45;&gt;Node4 -->
<g id="edge6" class="edge"><title>Node1&#45;&gt;Node4</title>
<path fill="none" stroke="midnightblue" d="M491.313,-116.496C448.347,-108.206 387.674,-95.7995 326.635,-80.2892"/>
<polygon fill="midnightblue" stroke="midnightblue" points="327.395,-76.8708 316.839,-77.7734 325.654,-83.6508 327.395,-76.8708"/>
</g>
<!-- Node5 -->
<g id="node9" class="node"><title>Node5</title>
<polygon fill="white" stroke="#bfbfbf" points="334,-58.5 334,-79.5 470,-79.5 470,-58.5 334,-58.5"/>
<text text-anchor="middle" x="402" y="-66.5" font-family="Helvetica,sans-Serif" font-size="10.00">QParallelAnimationGroup</text>
</g>
<!-- Node1&#45;&gt;Node5 -->
<g id="edge8" class="edge"><title>Node1&#45;&gt;Node5</title>
<path fill="none" stroke="midnightblue" d="M521.561,-116.497C498.244,-107.234 464.05,-93.6499 438.196,-83.3793"/>
<polygon fill="midnightblue" stroke="midnightblue" points="439.322,-80.0605 428.736,-79.6212 436.737,-86.566 439.322,-80.0605"/>
</g>
<!-- Node6 -->
<g id="node11" class="node"><title>Node6</title>
<polygon fill="white" stroke="#bfbfbf" points="487.5,-58.5 487.5,-79.5 528.5,-79.5 528.5,-58.5 487.5,-58.5"/>
<text text-anchor="middle" x="508" y="-66.5" font-family="Helvetica,sans-Serif" font-size="10.00">QSet</text>
</g>
<!-- Node1&#45;&gt;Node6 -->
<g id="edge10" class="edge"><title>Node1&#45;&gt;Node6</title>
<path fill="none" stroke="midnightblue" d="M540.663,-116.362C535.194,-108.431 527.578,-97.3885 521.076,-87.9606"/>
<polygon fill="midnightblue" stroke="midnightblue" points="523.849,-85.8157 515.29,-79.5707 518.086,-89.7899 523.849,-85.8157"/>
</g>
<!-- Node7 -->
<g id="node13" class="node"><title>Node7</title>
<polygon fill="white" stroke="#bfbfbf" points="546,-58.5 546,-79.5 632,-79.5 632,-58.5 546,-58.5"/>
<text text-anchor="middle" x="589" y="-66.5" font-family="Helvetica,sans-Serif" font-size="10.00">QWeakPointer</text>
</g>
<!-- Node1&#45;&gt;Node7 -->
<g id="edge12" class="edge"><title>Node1&#45;&gt;Node7</title>
<path fill="none" stroke="midnightblue" d="M555.52,-116.362C561.126,-108.431 568.932,-97.3885 575.597,-87.9606"/>
<polygon fill="midnightblue" stroke="midnightblue" points="578.613,-89.7568 581.528,-79.5707 572.897,-85.7161 578.613,-89.7568"/>
</g>
<!-- Node8 -->
<g id="node15" class="node"><title>Node8</title>
<polygon fill="white" stroke="#bfbfbf" points="649.5,-58.5 649.5,-79.5 708.5,-79.5 708.5,-58.5 649.5,-58.5"/>
<text text-anchor="middle" x="679" y="-66.5" font-family="Helvetica,sans-Serif" font-size="10.00">QPointer</text>
</g>
<!-- Node1&#45;&gt;Node8 -->
<g id="edge14" class="edge"><title>Node1&#45;&gt;Node8</title>
<path fill="none" stroke="midnightblue" d="M571.723,-116.497C592.368,-107.356 622.516,-94.0082 645.599,-83.7883"/>
<polygon fill="midnightblue" stroke="midnightblue" points="647.284,-86.8701 655.011,-79.6212 644.45,-80.4694 647.284,-86.8701"/>
</g>
<!-- Node9 -->
<g id="node17" class="node"><title>Node9</title>
<polygon fill="white" stroke="#bfbfbf" points="725.5,-58.5 725.5,-79.5 784.5,-79.5 784.5,-58.5 725.5,-58.5"/>
<text text-anchor="middle" x="755" y="-66.5" font-family="Helvetica,sans-Serif" font-size="10.00">QPixmap</text>
</g>
<!-- Node1&#45;&gt;Node9 -->
<g id="edge16" class="edge"><title>Node1&#45;&gt;Node9</title>
<path fill="none" stroke="midnightblue" d="M586.29,-116.475C618.423,-107.615 665.792,-94.4893 715.227,-80.4875"/>
<polygon fill="midnightblue" stroke="midnightblue" points="716.472,-83.7724 725.138,-77.6765 714.562,-77.0381 716.472,-83.7724"/>
</g>
<!-- Node10 -->
<g id="node19" class="node"><title>Node10</title>
<a xlink:href="GraphicsItemContainer_8h.htm" target="_top" xlink:title="GraphicsItemContainer.h">
<polygon fill="white" stroke="black" points="52,-58.5 52,-79.5 186,-79.5 186,-58.5 52,-58.5"/>
<text text-anchor="middle" x="119" y="-66.5" font-family="Helvetica,sans-Serif" font-size="10.00">GraphicsItemContainer.h</text>
</a>
</g>
<!-- Node1&#45;&gt;Node10 -->
<g id="edge18" class="edge"><title>Node1&#45;&gt;Node10</title>
<path fill="none" stroke="midnightblue" d="M467.35,-116.527C398.155,-107.481 295.479,-93.9121 196.332,-80.1744"/>
<polygon fill="midnightblue" stroke="midnightblue" points="196.517,-76.6666 186.131,-78.7585 195.555,-83.6001 196.517,-76.6666"/>
</g>
<!-- Node14 -->
<g id="node28" class="node"><title>Node14</title>
<a xlink:href="VariantAnimation_8h.htm" target="_top" xlink:title="VariantAnimation.h">
<polygon fill="white" stroke="black" points="839.5,-58.5 839.5,-79.5 944.5,-79.5 944.5,-58.5 839.5,-58.5"/>
<text text-anchor="middle" x="892" y="-66.5" font-family="Helvetica,sans-Serif" font-size="10.00">VariantAnimation.h</text>
</a>
</g>
<!-- Node1&#45;&gt;Node14 -->
<g id="edge28" class="edge"><title>Node1&#45;&gt;Node14</title>
<path fill="none" stroke="midnightblue" d="M610.296,-116.497C672.379,-106.029 767.188,-90.0438 829.383,-79.5574"/>
<polygon fill="midnightblue" stroke="midnightblue" points="830.177,-82.9731 839.456,-77.8591 829.013,-76.0705 830.177,-82.9731"/>
</g>
<!-- Node10&#45;&gt;Node2 -->
<g id="edge20" class="edge"><title>Node10&#45;&gt;Node2</title>
<path fill="none" stroke="midnightblue" d="M186.106,-59.0414C189.11,-58.6732 192.085,-58.3238 195,-58 404.841,-34.6892 656.907,-19.0722 756.487,-13.3887"/>
<polygon fill="midnightblue" stroke="midnightblue" points="756.692,-16.8829 766.478,-12.8228 756.296,-9.89406 756.692,-16.8829"/>
</g>
<!-- Node11 -->
<g id="node22" class="node"><title>Node11</title>
<polygon fill="white" stroke="#bfbfbf" points="0,-0.5 0,-21.5 52,-21.5 52,-0.5 0,-0.5"/>
<text text-anchor="middle" x="26" y="-8.5" font-family="Helvetica,sans-Serif" font-size="10.00">QBrush</text>
</g>
<!-- Node10&#45;&gt;Node11 -->
<g id="edge22" class="edge"><title>Node10&#45;&gt;Node11</title>
<path fill="none" stroke="midnightblue" d="M101.942,-58.3619C87.9152,-49.6138 67.8157,-37.0786 51.8179,-27.1015"/>
<polygon fill="midnightblue" stroke="midnightblue" points="53.2868,-23.8927 42.9495,-21.5707 49.5825,-29.8323 53.2868,-23.8927"/>
</g>
<!-- Node12 -->
<g id="node24" class="node"><title>Node12</title>
<polygon fill="white" stroke="#bfbfbf" points="70,-0.5 70,-21.5 168,-21.5 168,-0.5 70,-0.5"/>
<text text-anchor="middle" x="119" y="-8.5" font-family="Helvetica,sans-Serif" font-size="10.00">QGraphicsObject</text>
</g>
<!-- Node10&#45;&gt;Node12 -->
<g id="edge24" class="edge"><title>Node10&#45;&gt;Node12</title>
<path fill="none" stroke="midnightblue" d="M119,-58.3619C119,-50.9219 119,-40.7427 119,-31.7276"/>
<polygon fill="midnightblue" stroke="midnightblue" points="122.5,-31.5706 119,-21.5707 115.5,-31.5707 122.5,-31.5706"/>
</g>
<!-- Node13 -->
<g id="node26" class="node"><title>Node13</title>
<polygon fill="white" stroke="#bfbfbf" points="186,-0.5 186,-21.5 342,-21.5 342,-0.5 186,-0.5"/>
<text text-anchor="middle" x="264" y="-8.5" font-family="Helvetica,sans-Serif" font-size="10.00">QGraphicsSceneMouseEvent</text>
</g>
<!-- Node10&#45;&gt;Node13 -->
<g id="edge26" class="edge"><title>Node10&#45;&gt;Node13</title>
<path fill="none" stroke="midnightblue" d="M145.258,-58.4966C168.416,-49.2337 202.375,-35.6499 228.052,-25.3793"/>
<polygon fill="midnightblue" stroke="midnightblue" points="229.462,-28.5849 237.447,-21.6212 226.862,-22.0855 229.462,-28.5849"/>
</g>
<!-- Node14&#45;&gt;Node2 -->
<g id="edge30" class="edge"><title>Node14&#45;&gt;Node2</title>
<path fill="none" stroke="midnightblue" d="M875.126,-58.3619C861.249,-49.6138 841.366,-37.0786 825.54,-27.1015"/>
<polygon fill="midnightblue" stroke="midnightblue" points="827.093,-23.943 816.767,-21.5707 823.36,-29.8645 827.093,-23.943"/>
</g>
<!-- Node15 -->
<g id="node31" class="node"><title>Node15</title>
<polygon fill="white" stroke="#bfbfbf" points="850.5,-0.5 850.5,-21.5 955.5,-21.5 955.5,-0.5 850.5,-0.5"/>
<text text-anchor="middle" x="903" y="-8.5" font-family="Helvetica,sans-Serif" font-size="10.00">QVariantAnimation</text>
</g>
<!-- Node14&#45;&gt;Node15 -->
<g id="edge32" class="edge"><title>Node14&#45;&gt;Node15</title>
<path fill="none" stroke="midnightblue" d="M894.018,-58.3619C895.444,-50.8401 897.402,-40.5187 899.125,-31.4308"/>
<polygon fill="midnightblue" stroke="midnightblue" points="902.571,-32.0477 900.995,-21.5707 895.693,-30.7433 902.571,-32.0477"/>
</g>
</g>
</svg>
