<?xml version="1.0" encoding="UTF-8" standalone="no"?>
<!DOCTYPE svg PUBLIC "-//W3C//DTD SVG 1.1//EN"
 "http://www.w3.org/Graphics/SVG/1.1/DTD/svg11.dtd">
<!-- Generated by graphviz version 2.26.3 (20100126.1600)
 -->
<!-- Title: G Pages: 1 -->
<svg width="1268pt" height="88pt"
 viewBox="0.00 0.00 1268.00 88.00" xmlns="http://www.w3.org/2000/svg" xmlns:xlink="http://www.w3.org/1999/xlink">
<g id="graph1" class="graph" transform="scale(1 1) rotate(0) translate(4 84)">
<title>G</title>
<polygon fill="white" stroke="white" points="-4,5 -4,-84 1265,-84 1265,5 -4,5"/>
<!-- Node1 -->
<g id="node1" class="node"><title>Node1</title>
<polygon fill="#bfbfbf" stroke="black" points="599.5,-58.5 599.5,-79.5 674.5,-79.5 674.5,-58.5 599.5,-58.5"/>
<text text-anchor="middle" x="637" y="-66.5" font-family="Helvetica,sans-Serif" font-size="10.00">DeviceInfo.h</text>
</g>
<!-- Node2 -->
<g id="node3" class="node"><title>Node2</title>
<a xlink:href="ApplicationManager_8cpp.htm" target="_top" xlink:title="ApplicationManager.cpp">
<polygon fill="white" stroke="black" points="-0.5,-0.5 -0.5,-21.5 130.5,-21.5 130.5,-0.5 -0.5,-0.5"/>
<text text-anchor="middle" x="65" y="-8.5" font-family="Helvetica,sans-Serif" font-size="10.00">ApplicationManager.cpp</text>
</a>
</g>
<!-- Node1&#45;&gt;Node2 -->
<g id="edge2" class="edge"><title>Node1&#45;&gt;Node2</title>
<path fill="none" stroke="midnightblue" d="M589.421,-65.3617C500.696,-58.3879 304.023,-42.0379 139,-22 136.292,-21.6712 133.531,-21.3224 130.743,-20.9589"/>
<polygon fill="midnightblue" stroke="midnightblue" points="589.201,-68.8551 599.443,-66.1456 589.747,-61.8764 589.201,-68.8551"/>
</g>
<!-- Node3 -->
<g id="node5" class="node"><title>Node3</title>
<a xlink:href="CoreNaviLeds_8cpp.htm" target="_top" xlink:title="CoreNaviLeds.cpp">
<polygon fill="white" stroke="black" points="148,-0.5 148,-21.5 252,-21.5 252,-0.5 148,-0.5"/>
<text text-anchor="middle" x="200" y="-8.5" font-family="Helvetica,sans-Serif" font-size="10.00">CoreNaviLeds.cpp</text>
</a>
</g>
<!-- Node1&#45;&gt;Node3 -->
<g id="edge4" class="edge"><title>Node1&#45;&gt;Node3</title>
<path fill="none" stroke="midnightblue" d="M589.231,-63.8664C517.709,-55.9908 378.617,-39.9424 261,-22 258.128,-21.5618 255.183,-21.0937 252.212,-20.6069"/>
<polygon fill="midnightblue" stroke="midnightblue" points="588.96,-67.3577 599.282,-64.9683 589.723,-60.3994 588.96,-67.3577"/>
</g>
<!-- Node4 -->
<g id="node7" class="node"><title>Node4</title>
<a xlink:href="CoreNaviManager_8cpp.htm" target="_top" xlink:title="CoreNaviManager.cpp">
<polygon fill="white" stroke="black" points="269.5,-0.5 269.5,-21.5 392.5,-21.5 392.5,-0.5 269.5,-0.5"/>
<text text-anchor="middle" x="331" y="-8.5" font-family="Helvetica,sans-Serif" font-size="10.00">CoreNaviManager.cpp</text>
</a>
</g>
<!-- Node1&#45;&gt;Node4 -->
<g id="edge6" class="edge"><title>Node1&#45;&gt;Node4</title>
<path fill="none" stroke="midnightblue" d="M589.323,-59.9631C534.439,-49.5604 444.428,-32.4994 386.459,-21.5118"/>
<polygon fill="midnightblue" stroke="midnightblue" points="589.002,-63.4645 599.478,-61.8881 590.305,-56.5869 589.002,-63.4645"/>
</g>
<!-- Node5 -->
<g id="node9" class="node"><title>Node5</title>
<a xlink:href="DisplayManager_8cpp.htm" target="_top" xlink:title="DisplayManager.cpp">
<polygon fill="white" stroke="black" points="409.5,-0.5 409.5,-21.5 522.5,-21.5 522.5,-0.5 409.5,-0.5"/>
<text text-anchor="middle" x="466" y="-8.5" font-family="Helvetica,sans-Serif" font-size="10.00">DisplayManager.cpp</text>
</a>
</g>
<!-- Node1&#45;&gt;Node5 -->
<g id="edge8" class="edge"><title>Node1&#45;&gt;Node5</title>
<path fill="none" stroke="midnightblue" d="M596.546,-55.2787C566.075,-44.9437 524.921,-30.9849 497.025,-21.5231"/>
<polygon fill="midnightblue" stroke="midnightblue" points="595.439,-58.599 606.033,-58.4966 597.687,-51.97 595.439,-58.599"/>
</g>
<!-- Node6 -->
<g id="node11" class="node"><title>Node6</title>
<a xlink:href="DeviceInfo_8cpp.htm" target="_top" xlink:title="DeviceInfo.cpp">
<polygon fill="white" stroke="black" points="540,-0.5 540,-21.5 626,-21.5 626,-0.5 540,-0.5"/>
<text text-anchor="middle" x="583" y="-8.5" font-family="Helvetica,sans-Serif" font-size="10.00">DeviceInfo.cpp</text>
</a>
</g>
<!-- Node1&#45;&gt;Node6 -->
<g id="edge10" class="edge"><title>Node1&#45;&gt;Node6</title>
<path fill="none" stroke="midnightblue" d="M620.083,-50.8299C611.125,-41.2078 600.437,-29.7282 592.842,-21.5707"/>
<polygon fill="midnightblue" stroke="midnightblue" points="617.72,-53.4279 627.096,-58.3619 622.843,-48.658 617.72,-53.4279"/>
</g>
<!-- Node7 -->
<g id="node13" class="node"><title>Node7</title>
<a xlink:href="JsSysObject_8cpp.htm" target="_top" xlink:title="JsSysObject.cpp">
<polygon fill="white" stroke="black" points="644,-0.5 644,-21.5 738,-21.5 738,-0.5 644,-0.5"/>
<text text-anchor="middle" x="691" y="-8.5" font-family="Helvetica,sans-Serif" font-size="10.00">JsSysObject.cpp</text>
</a>
</g>
<!-- Node1&#45;&gt;Node7 -->
<g id="edge12" class="edge"><title>Node1&#45;&gt;Node7</title>
<path fill="none" stroke="midnightblue" d="M653.917,-50.8299C662.875,-41.2078 673.563,-29.7282 681.158,-21.5707"/>
<polygon fill="midnightblue" stroke="midnightblue" points="651.157,-48.658 646.904,-58.3619 656.28,-53.4279 651.157,-48.658"/>
</g>
<!-- Node8 -->
<g id="node15" class="node"><title>Node8</title>
<a xlink:href="StatusBarServicesConnector_8cpp.htm" target="_top" xlink:title="StatusBarServicesConnector.cpp">
<polygon fill="white" stroke="black" points="756,-0.5 756,-21.5 928,-21.5 928,-0.5 756,-0.5"/>
<text text-anchor="middle" x="842" y="-8.5" font-family="Helvetica,sans-Serif" font-size="10.00">StatusBarServicesConnector.cpp</text>
</a>
</g>
<!-- Node1&#45;&gt;Node8 -->
<g id="edge14" class="edge"><title>Node1&#45;&gt;Node8</title>
<path fill="none" stroke="midnightblue" d="M684.081,-55.6795C720.742,-45.307 770.929,-31.1078 804.806,-21.5231"/>
<polygon fill="midnightblue" stroke="midnightblue" points="682.793,-52.4064 674.124,-58.4966 684.699,-59.142 682.793,-52.4064"/>
</g>
<!-- Node9 -->
<g id="node17" class="node"><title>Node9</title>
<a xlink:href="SystemMenu_8cpp.htm" target="_top" xlink:title="SystemMenu.cpp">
<polygon fill="white" stroke="black" points="945.5,-0.5 945.5,-21.5 1042.5,-21.5 1042.5,-0.5 945.5,-0.5"/>
<text text-anchor="middle" x="994" y="-8.5" font-family="Helvetica,sans-Serif" font-size="10.00">SystemMenu.cpp</text>
</a>
</g>
<!-- Node1&#45;&gt;Node9 -->
<g id="edge16" class="edge"><title>Node1&#45;&gt;Node9</title>
<path fill="none" stroke="midnightblue" d="M685.15,-61.9906C744.481,-53.2304 848.328,-37.4971 937,-22 939.681,-21.5315 942.43,-21.0395 945.203,-20.5341"/>
<polygon fill="midnightblue" stroke="midnightblue" points="684.34,-58.5719 674.957,-63.4915 685.36,-65.4972 684.34,-58.5719"/>
</g>
<!-- Node10 -->
<g id="node19" class="node"><title>Node10</title>
<a xlink:href="Main_8cpp.htm" target="_top" xlink:title="Main.cpp">
<polygon fill="white" stroke="black" points="1059.5,-0.5 1059.5,-21.5 1118.5,-21.5 1118.5,-0.5 1059.5,-0.5"/>
<text text-anchor="middle" x="1089" y="-8.5" font-family="Helvetica,sans-Serif" font-size="10.00">Main.cpp</text>
</a>
</g>
<!-- Node1&#45;&gt;Node10 -->
<g id="edge18" class="edge"><title>Node1&#45;&gt;Node10</title>
<path fill="none" stroke="midnightblue" d="M685.132,-66.1804C762.743,-61.0434 920.082,-48.1852 1051,-22 1053.69,-21.4612 1056.47,-20.8222 1059.25,-20.1275"/>
<polygon fill="midnightblue" stroke="midnightblue" points="684.474,-62.7156 674.721,-66.8545 684.926,-69.7009 684.474,-62.7156"/>
</g>
<!-- Node11 -->
<g id="node21" class="node"><title>Node11</title>
<a xlink:href="WindowedWebApp_8cpp.htm" target="_top" xlink:title="WindowedWebApp.cpp">
<polygon fill="white" stroke="black" points="1135.5,-0.5 1135.5,-21.5 1260.5,-21.5 1260.5,-0.5 1135.5,-0.5"/>
<text text-anchor="middle" x="1198" y="-8.5" font-family="Helvetica,sans-Serif" font-size="10.00">WindowedWebApp.cpp</text>
</a>
</g>
<!-- Node1&#45;&gt;Node11 -->
<g id="edge20" class="edge"><title>Node1&#45;&gt;Node11</title>
<path fill="none" stroke="midnightblue" d="M684.753,-65.3465C772.506,-58.4266 965.254,-42.2695 1127,-22 1129.72,-21.6588 1132.5,-21.295 1135.31,-20.915"/>
<polygon fill="midnightblue" stroke="midnightblue" points="684.276,-61.873 674.581,-66.1442 684.824,-68.8516 684.276,-61.873"/>
</g>
</g>
</svg>
