<?xml version="1.0" encoding="UTF-8" standalone="no"?>
<!DOCTYPE svg PUBLIC "-//W3C//DTD SVG 1.1//EN"
 "http://www.w3.org/Graphics/SVG/1.1/DTD/svg11.dtd">
<!-- Generated by graphviz version 2.26.3 (20100126.1600)
 -->
<!-- Title: G Pages: 1 -->
<svg width="892pt" height="657pt"
 viewBox="0.00 0.00 892.00 657.00" xmlns="http://www.w3.org/2000/svg" xmlns:xlink="http://www.w3.org/1999/xlink">
<g id="graph1" class="graph" transform="scale(1 1) rotate(0) translate(4 653)">
<title>G</title>
<polygon fill="white" stroke="white" points="-4,5 -4,-653 889,-653 889,5 -4,5"/>
<g id="graph2" class="cluster"><title>clusterdir_aafe48f257c75c61a4124f498f9cedbe</title>
<a xlink:href="dir_aafe48f257c75c61a4124f498f9cedbe.htm" target="_top" xlink:title="lunaui">
<polygon fill="#ddddee" stroke="black" points="110,-568 110,-641 194,-641 194,-568 110,-568"/>
<text text-anchor="middle" x="152" y="-628" font-family="Helvetica,sans-Serif" font-size="10.00">lunaui</text>
</a>
</g>
<!-- dir_b811646d7b97a8c5b5fa9cea902df2af -->
<g id="node2" class="node"><title>dir_b811646d7b97a8c5b5fa9cea902df2af</title>
<a xlink:href="dir_b811646d7b97a8c5b5fa9cea902df2af.htm" target="_top" xlink:title="lockscreen">
<polygon fill="#eeeeff" stroke="black" points="186,-612 118,-612 118,-576 186,-576 186,-612"/>
<text text-anchor="middle" x="152" y="-591.5" font-family="Helvetica,sans-Serif" font-size="10.00">lockscreen</text>
</a>
</g>
<!-- dir_571ef98c50e1bcc1898cbefc078f6d6e -->
<g id="node3" class="node"><title>dir_571ef98c50e1bcc1898cbefc078f6d6e</title>
<a xlink:href="dir_571ef98c50e1bcc1898cbefc078f6d6e.htm" target="_top" xlink:title="status&#45;bar">
<polygon fill="none" stroke="black" points="736,-612 674,-612 674,-576 736,-576 736,-612"/>
<text text-anchor="middle" x="705" y="-591.5" font-family="Helvetica,sans-Serif" font-size="10.00">status&#45;bar</text>
</a>
</g>
<!-- dir_b811646d7b97a8c5b5fa9cea902df2af&#45;&gt;dir_571ef98c50e1bcc1898cbefc078f6d6e -->
<g id="edge13" class="edge"><title>dir_b811646d7b97a8c5b5fa9cea902df2af&#45;&gt;dir_571ef98c50e1bcc1898cbefc078f6d6e</title>
<path fill="none" stroke="black" d="M186.022,-594C345.291,-594 504.559,-594 663.827,-594"/>
<polygon fill="black" stroke="black" points="663.831,-597.5 673.831,-594 663.831,-590.5 663.831,-597.5"/>
<a xlink:href="dir_000019_000015.htm" target="_top" xlink:title="2">
<text text-anchor="middle" x="660.236" y="-597.839" font-family="Helvetica,sans-Serif" font-size="10.00">2</text>
</a>
</g>
<!-- dir_6d6d43714512e4ba2121ee6ed0767588 -->
<g id="node4" class="node"><title>dir_6d6d43714512e4ba2121ee6ed0767588</title>
<a xlink:href="dir_6d6d43714512e4ba2121ee6ed0767588.htm" target="_top" xlink:title="launcher">
<polygon fill="white" stroke="red" points="274,-468 218,-468 218,-432 274,-432 274,-468"/>
<text text-anchor="middle" x="246" y="-447.5" font-family="Helvetica,sans-Serif" font-size="10.00">launcher</text>
</a>
</g>
<!-- dir_b811646d7b97a8c5b5fa9cea902df2af&#45;&gt;dir_6d6d43714512e4ba2121ee6ed0767588 -->
<g id="edge15" class="edge"><title>dir_b811646d7b97a8c5b5fa9cea902df2af&#45;&gt;dir_6d6d43714512e4ba2121ee6ed0767588</title>
<path fill="none" stroke="black" d="M172.44,-575.863C182.783,-565.968 195.014,-553.091 204,-540 217.4,-520.479 228.509,-496.005 235.929,-477.508"/>
<polygon fill="black" stroke="black" points="239.196,-478.766 239.565,-468.177 232.673,-476.224 239.196,-478.766"/>
<a xlink:href="dir_000019_000004.htm" target="_top" xlink:title="2">
<text text-anchor="middle" x="240.536" y="-480.646" font-family="Helvetica,sans-Serif" font-size="10.00">2</text>
</a>
</g>
<!-- dir_c108e9adcb979d7ac671bad5e192b925 -->
<g id="node5" class="node"><title>dir_c108e9adcb979d7ac671bad5e192b925</title>
<a xlink:href="dir_c108e9adcb979d7ac671bad5e192b925.htm" target="_top" xlink:title="base">
<polygon fill="white" stroke="red" points="540,-540 486,-540 486,-504 540,-504 540,-540"/>
<text text-anchor="middle" x="513" y="-519.5" font-family="Helvetica,sans-Serif" font-size="10.00">base</text>
</a>
</g>
<!-- dir_b811646d7b97a8c5b5fa9cea902df2af&#45;&gt;dir_c108e9adcb979d7ac671bad5e192b925 -->
<g id="edge17" class="edge"><title>dir_b811646d7b97a8c5b5fa9cea902df2af&#45;&gt;dir_c108e9adcb979d7ac671bad5e192b925</title>
<path fill="none" stroke="black" d="M174.771,-575.98C179.58,-572.89 184.785,-570.027 190,-568 193.326,-566.707 391.708,-538.926 475.883,-527.175"/>
<polygon fill="black" stroke="black" points="476.377,-530.64 485.797,-525.791 475.409,-523.707 476.377,-530.64"/>
<a xlink:href="dir_000019_000008.htm" target="_top" xlink:title="28">
<text text-anchor="middle" x="473.209" y="-531.449" font-family="Helvetica,sans-Serif" font-size="10.00">28</text>
</a>
</g>
<!-- dir_df3fc620228f2b84eb37c7f5a522f701 -->
<g id="node6" class="node"><title>dir_df3fc620228f2b84eb37c7f5a522f701</title>
<a xlink:href="dir_df3fc620228f2b84eb37c7f5a522f701.htm" target="_top" xlink:title="dock">
<polygon fill="none" stroke="black" points="508,-180 454,-180 454,-144 508,-144 508,-180"/>
<text text-anchor="middle" x="481" y="-159.5" font-family="Helvetica,sans-Serif" font-size="10.00">dock</text>
</a>
</g>
<!-- dir_b811646d7b97a8c5b5fa9cea902df2af&#45;&gt;dir_df3fc620228f2b84eb37c7f5a522f701 -->
<g id="edge19" class="edge"><title>dir_b811646d7b97a8c5b5fa9cea902df2af&#45;&gt;dir_df3fc620228f2b84eb37c7f5a522f701</title>
<path fill="none" stroke="black" d="M150.682,-575.694C148.607,-532.674 149.442,-423.955 204,-360 222.72,-338.056 234.327,-340.48 258,-324 326.667,-276.198 405.559,-218.124 448.678,-186.108"/>
<polygon fill="black" stroke="black" points="450.874,-188.837 456.812,-180.063 446.698,-183.219 450.874,-188.837"/>
<a xlink:href="dir_000019_000024.htm" target="_top" xlink:title="1">
<text text-anchor="middle" x="449.682" y="-190.76" font-family="Helvetica,sans-Serif" font-size="10.00">1</text>
</a>
</g>
<!-- dir_464952543f64026c6bd6d8785fc45163 -->
<g id="node7" class="node"><title>dir_464952543f64026c6bd6d8785fc45163</title>
<a xlink:href="dir_464952543f64026c6bd6d8785fc45163.htm" target="_top" xlink:title="cards">
<polygon fill="white" stroke="red" points="563,-108 509,-108 509,-72 563,-72 563,-108"/>
<text text-anchor="middle" x="536" y="-87.5" font-family="Helvetica,sans-Serif" font-size="10.00">cards</text>
</a>
</g>
<!-- dir_b811646d7b97a8c5b5fa9cea902df2af&#45;&gt;dir_464952543f64026c6bd6d8785fc45163 -->
<g id="edge21" class="edge"><title>dir_b811646d7b97a8c5b5fa9cea902df2af&#45;&gt;dir_464952543f64026c6bd6d8785fc45163</title>
<path fill="none" stroke="black" d="M146.881,-575.673C144.248,-565.298 141.32,-552.028 140,-540 131.232,-460.124 122.043,-432.354 157,-360 211.363,-247.48 231.828,-211.489 337,-144 363.721,-126.853 448.955,-107.542 498.784,-97.2988"/>
<polygon fill="black" stroke="black" points="499.744,-100.676 508.846,-95.2547 498.35,-93.8157 499.744,-100.676"/>
<a xlink:href="dir_000019_000018.htm" target="_top" xlink:title="1">
<text text-anchor="middle" x="496.786" y="-101.674" font-family="Helvetica,sans-Serif" font-size="10.00">1</text>
</a>
</g>
<!-- dir_833350a745acf29e00c46ce65f7df7ae -->
<g id="node8" class="node"><title>dir_833350a745acf29e00c46ce65f7df7ae</title>
<a xlink:href="dir_833350a745acf29e00c46ce65f7df7ae.htm" target="_top" xlink:title="core">
<polygon fill="none" stroke="black" points="535,-36 481,-36 481,-1.77636e-14 535,-3.55271e-15 535,-36"/>
<text text-anchor="middle" x="508" y="-15.5" font-family="Helvetica,sans-Serif" font-size="10.00">core</text>
</a>
</g>
<!-- dir_b811646d7b97a8c5b5fa9cea902df2af&#45;&gt;dir_833350a745acf29e00c46ce65f7df7ae -->
<g id="edge23" class="edge"><title>dir_b811646d7b97a8c5b5fa9cea902df2af&#45;&gt;dir_833350a745acf29e00c46ce65f7df7ae</title>
<path fill="none" stroke="black" d="M117.888,-579.884C73.0736,-558.798 0,-514.522 0,-450 0,-450 0,-450 0,-162 0,-64.2164 352.799,-29.4043 470.381,-20.5175"/>
<polygon fill="black" stroke="black" points="470.971,-23.9836 480.688,-19.7598 470.458,-17.0025 470.971,-23.9836"/>
<a xlink:href="dir_000019_000009.htm" target="_top" xlink:title="9">
<text text-anchor="middle" x="467.594" y="-24.5787" font-family="Helvetica,sans-Serif" font-size="10.00">9</text>
</a>
</g>
<!-- dir_023c91c44035a186c584180e65bb82b0 -->
<g id="node9" class="node"><title>dir_023c91c44035a186c584180e65bb82b0</title>
<a xlink:href="dir_023c91c44035a186c584180e65bb82b0.htm" target="_top" xlink:title="remote">
<polygon fill="none" stroke="black" points="572,-252 518,-252 518,-216 572,-216 572,-252"/>
<text text-anchor="middle" x="545" y="-231.5" font-family="Helvetica,sans-Serif" font-size="10.00">remote</text>
</a>
</g>
<!-- dir_b811646d7b97a8c5b5fa9cea902df2af&#45;&gt;dir_023c91c44035a186c584180e65bb82b0 -->
<g id="edge25" class="edge"><title>dir_b811646d7b97a8c5b5fa9cea902df2af&#45;&gt;dir_023c91c44035a186c584180e65bb82b0</title>
<path fill="none" stroke="black" d="M178.42,-575.968C196.903,-563.259 219.858,-547.26 229,-540 341.637,-450.548 370.14,-427.522 470,-324 489.715,-303.562 510.234,-278.647 524.815,-260.218"/>
<polygon fill="black" stroke="black" points="527.651,-262.274 531.073,-252.246 522.145,-257.951 527.651,-262.274"/>
<a xlink:href="dir_000019_000039.htm" target="_top" xlink:title="2">
<text text-anchor="middle" x="527.665" y="-264.354" font-family="Helvetica,sans-Serif" font-size="10.00">2</text>
</a>
</g>
<!-- dir_43608985bfc64723d35ec9abcf43881b -->
<g id="node10" class="node"><title>dir_43608985bfc64723d35ec9abcf43881b</title>
<a xlink:href="dir_43608985bfc64723d35ec9abcf43881b.htm" target="_top" xlink:title="notifications">
<polygon fill="none" stroke="black" points="424,-324 352,-324 352,-288 424,-288 424,-324"/>
<text text-anchor="middle" x="388" y="-303.5" font-family="Helvetica,sans-Serif" font-size="10.00">notifications</text>
</a>
</g>
<!-- dir_b811646d7b97a8c5b5fa9cea902df2af&#45;&gt;dir_43608985bfc64723d35ec9abcf43881b -->
<g id="edge27" class="edge"><title>dir_b811646d7b97a8c5b5fa9cea902df2af&#45;&gt;dir_43608985bfc64723d35ec9abcf43881b</title>
<path fill="none" stroke="black" d="M153.978,-575.912C156.173,-557.624 160.189,-528.624 166,-504 182.866,-432.533 187.632,-403.214 247,-360 255.122,-354.088 304.079,-335.892 342.052,-322.244"/>
<polygon fill="black" stroke="black" points="343.697,-325.373 351.932,-318.707 341.337,-318.783 343.697,-325.373"/>
<a xlink:href="dir_000019_000003.htm" target="_top" xlink:title="5">
<text text-anchor="middle" x="341.27" y="-326.758" font-family="Helvetica,sans-Serif" font-size="10.00">5</text>
</a>
</g>
<!-- dir_c0aa0a1d2cd73f9e06de2fcae29b2a13 -->
<g id="node11" class="node"><title>dir_c0aa0a1d2cd73f9e06de2fcae29b2a13</title>
<a xlink:href="dir_c0aa0a1d2cd73f9e06de2fcae29b2a13.htm" target="_top" xlink:title="ime">
<polygon fill="white" stroke="red" points="310,-396 256,-396 256,-360 310,-360 310,-396"/>
<text text-anchor="middle" x="283" y="-375.5" font-family="Helvetica,sans-Serif" font-size="10.00">ime</text>
</a>
</g>
<!-- dir_b811646d7b97a8c5b5fa9cea902df2af&#45;&gt;dir_c0aa0a1d2cd73f9e06de2fcae29b2a13 -->
<g id="edge29" class="edge"><title>dir_b811646d7b97a8c5b5fa9cea902df2af&#45;&gt;dir_c0aa0a1d2cd73f9e06de2fcae29b2a13</title>
<path fill="none" stroke="black" d="M156.895,-575.907C167.169,-538.796 191.477,-455.567 209,-432 219.12,-418.39 233.65,-406.748 247.159,-397.797"/>
<polygon fill="black" stroke="black" points="249.253,-400.614 255.833,-392.309 245.511,-394.698 249.253,-400.614"/>
<a xlink:href="dir_000019_000016.htm" target="_top" xlink:title="1">
<text text-anchor="middle" x="247.733" y="-402.435" font-family="Helvetica,sans-Serif" font-size="10.00">1</text>
</a>
</g>
<!-- dir_571ef98c50e1bcc1898cbefc078f6d6e&#45;&gt;dir_c108e9adcb979d7ac671bad5e192b925 -->
<g id="edge3" class="edge"><title>dir_571ef98c50e1bcc1898cbefc078f6d6e&#45;&gt;dir_c108e9adcb979d7ac671bad5e192b925</title>
<path fill="none" stroke="black" d="M673.889,-584.14C639.928,-572.241 585.854,-552.076 549.825,-537.953"/>
<polygon fill="black" stroke="black" points="550.759,-534.559 540.173,-534.142 548.188,-541.07 550.759,-534.559"/>
<a xlink:href="dir_000015_000008.htm" target="_top" xlink:title="60">
<text text-anchor="middle" x="555.145" y="-530.738" font-family="Helvetica,sans-Serif" font-size="10.00">60</text>
</a>
</g>
<!-- dir_571ef98c50e1bcc1898cbefc078f6d6e&#45;&gt;dir_df3fc620228f2b84eb37c7f5a522f701 -->
<g id="edge5" class="edge"><title>dir_571ef98c50e1bcc1898cbefc078f6d6e&#45;&gt;dir_df3fc620228f2b84eb37c7f5a522f701</title>
<path fill="none" stroke="black" d="M698.139,-575.819C695.522,-557.459 693.863,-528.404 688,-504 655.765,-369.825 663.949,-318.895 572,-216 557.11,-199.337 535.822,-186.849 517.491,-178.102"/>
<polygon fill="black" stroke="black" points="518.774,-174.841 508.224,-173.867 515.865,-181.207 518.774,-174.841"/>
<a xlink:href="dir_000015_000024.htm" target="_top" xlink:title="2">
<text text-anchor="middle" x="523.224" y="-171.252" font-family="Helvetica,sans-Serif" font-size="10.00">2</text>
</a>
</g>
<!-- dir_571ef98c50e1bcc1898cbefc078f6d6e&#45;&gt;dir_833350a745acf29e00c46ce65f7df7ae -->
<g id="edge7" class="edge"><title>dir_571ef98c50e1bcc1898cbefc078f6d6e&#45;&gt;dir_833350a745acf29e00c46ce65f7df7ae</title>
<path fill="none" stroke="black" d="M736.179,-584.789C787.464,-567.494 884,-524.982 884,-450 884,-450 884,-450 884,-162 884,-98.8326 831.07,-99.0773 774,-72 697.925,-35.9056 598.453,-23.89 545.312,-19.9245"/>
<polygon fill="black" stroke="black" points="545.228,-16.4105 535.011,-19.2143 544.746,-23.3939 545.228,-16.4105"/>
<a xlink:href="dir_000015_000009.htm" target="_top" xlink:title="6">
<text text-anchor="middle" x="549.009" y="-11.3251" font-family="Helvetica,sans-Serif" font-size="10.00">6</text>
</a>
</g>
<!-- dir_571ef98c50e1bcc1898cbefc078f6d6e&#45;&gt;dir_023c91c44035a186c584180e65bb82b0 -->
<g id="edge9" class="edge"><title>dir_571ef98c50e1bcc1898cbefc078f6d6e&#45;&gt;dir_023c91c44035a186c584180e65bb82b0</title>
<path fill="none" stroke="black" d="M692.706,-575.669C667.383,-528.079 610.15,-396.732 561,-288 557.146,-279.475 552.891,-270.223 549.398,-261.826"/>
<polygon fill="black" stroke="black" points="552.631,-260.485 545.718,-252.456 546.116,-263.044 552.631,-260.485"/>
<a xlink:href="dir_000015_000039.htm" target="_top" xlink:title="3">
<text text-anchor="middle" x="556.588" y="-260.293" font-family="Helvetica,sans-Serif" font-size="10.00">3</text>
</a>
</g>
<!-- dir_571ef98c50e1bcc1898cbefc078f6d6e&#45;&gt;dir_43608985bfc64723d35ec9abcf43881b -->
<g id="edge11" class="edge"><title>dir_571ef98c50e1bcc1898cbefc078f6d6e&#45;&gt;dir_43608985bfc64723d35ec9abcf43881b</title>
<path fill="none" stroke="black" d="M673.731,-590.046C618.55,-582.518 506.891,-564.654 477,-540 413.273,-487.439 395.115,-383.95 389.989,-334.12"/>
<polygon fill="black" stroke="black" points="393.464,-333.694 389.058,-324.059 386.494,-334.339 393.464,-333.694"/>
<a xlink:href="dir_000015_000003.htm" target="_top" xlink:title="6">
<text text-anchor="middle" x="396.622" y="-334.512" font-family="Helvetica,sans-Serif" font-size="10.00">6</text>
</a>
</g>
<!-- dir_6d6d43714512e4ba2121ee6ed0767588&#45;&gt;dir_c108e9adcb979d7ac671bad5e192b925 -->
<g id="edge31" class="edge"><title>dir_6d6d43714512e4ba2121ee6ed0767588&#45;&gt;dir_c108e9adcb979d7ac671bad5e192b925</title>
<path fill="none" stroke="black" d="M274.31,-459.31C281.736,-462.341 289.621,-465.553 297,-468 358.775,-488.486 432.475,-504.67 475.984,-513.793"/>
<polygon fill="black" stroke="black" points="475.34,-517.234 485.844,-515.849 476.769,-510.381 475.34,-517.234"/>
<a xlink:href="dir_000004_000008.htm" target="_top" xlink:title="64">
<text text-anchor="middle" x="471.241" y="-516.779" font-family="Helvetica,sans-Serif" font-size="10.00">64</text>
</a>
</g>
<!-- dir_6d6d43714512e4ba2121ee6ed0767588&#45;&gt;dir_464952543f64026c6bd6d8785fc45163 -->
<g id="edge33" class="edge"><title>dir_6d6d43714512e4ba2121ee6ed0767588&#45;&gt;dir_464952543f64026c6bd6d8785fc45163</title>
<path fill="none" stroke="black" d="M243.403,-431.661C241.43,-413.178 240.095,-384.029 247,-360 278.332,-250.969 293.453,-213.648 383,-144 417.208,-117.394 465.559,-103.264 498.699,-96.2234"/>
<polygon fill="black" stroke="black" points="499.77,-99.5782 508.887,-94.1799 498.394,-92.7149 499.77,-99.5782"/>
<a xlink:href="dir_000004_000018.htm" target="_top" xlink:title="1">
<text text-anchor="middle" x="496.804" y="-100.569" font-family="Helvetica,sans-Serif" font-size="10.00">1</text>
</a>
</g>
<!-- dir_6d6d43714512e4ba2121ee6ed0767588&#45;&gt;dir_833350a745acf29e00c46ce65f7df7ae -->
<g id="edge35" class="edge"><title>dir_6d6d43714512e4ba2121ee6ed0767588&#45;&gt;dir_833350a745acf29e00c46ce65f7df7ae</title>
<path fill="none" stroke="black" d="M220.57,-431.781C176.83,-398.102 92,-321.505 92,-234 92,-234 92,-234 92,-162 92,-82.2803 368.257,-36.862 470.522,-22.7802"/>
<polygon fill="black" stroke="black" points="471.264,-26.2117 480.705,-21.4028 470.326,-19.2748 471.264,-26.2117"/>
<a xlink:href="dir_000004_000009.htm" target="_top" xlink:title="5">
<text text-anchor="middle" x="468.083" y="-27.0071" font-family="Helvetica,sans-Serif" font-size="10.00">5</text>
</a>
</g>
<!-- dir_6d6d43714512e4ba2121ee6ed0767588&#45;&gt;dir_023c91c44035a186c584180e65bb82b0 -->
<g id="edge37" class="edge"><title>dir_6d6d43714512e4ba2121ee6ed0767588&#45;&gt;dir_023c91c44035a186c584180e65bb82b0</title>
<path fill="none" stroke="black" d="M274.068,-432.139C311.094,-408.342 378.001,-364.517 433,-324 461.798,-302.786 493.473,-277.1 515.768,-258.608"/>
<polygon fill="black" stroke="black" points="518.089,-261.231 523.535,-252.143 513.61,-255.851 518.089,-261.231"/>
<a xlink:href="dir_000004_000039.htm" target="_top" xlink:title="2">
<text text-anchor="middle" x="517.143" y="-263.212" font-family="Helvetica,sans-Serif" font-size="10.00">2</text>
</a>
</g>
<!-- dir_6d6d43714512e4ba2121ee6ed0767588&#45;&gt;dir_c0aa0a1d2cd73f9e06de2fcae29b2a13 -->
<g id="edge39" class="edge"><title>dir_6d6d43714512e4ba2121ee6ed0767588&#45;&gt;dir_c0aa0a1d2cd73f9e06de2fcae29b2a13</title>
<path fill="none" stroke="black" d="M255.337,-431.831C259.424,-423.877 264.31,-414.369 268.831,-405.572"/>
<polygon fill="black" stroke="black" points="272.08,-406.907 273.538,-396.413 265.854,-403.708 272.08,-406.907"/>
<a xlink:href="dir_000004_000016.htm" target="_top" xlink:title="1">
<text text-anchor="middle" x="272.962" y="-408.902" font-family="Helvetica,sans-Serif" font-size="10.00">1</text>
</a>
</g>
<!-- dir_c108e9adcb979d7ac671bad5e192b925&#45;&gt;dir_571ef98c50e1bcc1898cbefc078f6d6e -->
<g id="edge41" class="edge"><title>dir_c108e9adcb979d7ac671bad5e192b925&#45;&gt;dir_571ef98c50e1bcc1898cbefc078f6d6e</title>
<path fill="none" stroke="black" d="M540.148,-530.478C572.585,-541.743 626.842,-561.922 664.267,-576.519"/>
<polygon fill="black" stroke="black" points="663.282,-579.892 673.869,-580.288 665.839,-573.376 663.282,-579.892"/>
<a xlink:href="dir_000008_000015.htm" target="_top" xlink:title="3">
<text text-anchor="middle" x="658.898" y="-578.722" font-family="Helvetica,sans-Serif" font-size="10.00">3</text>
</a>
</g>
<!-- dir_c108e9adcb979d7ac671bad5e192b925&#45;&gt;dir_6d6d43714512e4ba2121ee6ed0767588 -->
<g id="edge43" class="edge"><title>dir_c108e9adcb979d7ac671bad5e192b925&#45;&gt;dir_6d6d43714512e4ba2121ee6ed0767588</title>
<path fill="none" stroke="black" d="M485.673,-517.995C443.053,-510.639 359.086,-493.625 284.015,-469.543"/>
<polygon fill="black" stroke="black" points="285.028,-466.192 274.436,-466.414 282.855,-472.846 285.028,-466.192"/>
<a xlink:href="dir_000008_000004.htm" target="_top" xlink:title="5">
<text text-anchor="middle" x="289.327" y="-462.109" font-family="Helvetica,sans-Serif" font-size="10.00">5</text>
</a>
</g>
<!-- dir_c108e9adcb979d7ac671bad5e192b925&#45;&gt;dir_464952543f64026c6bd6d8785fc45163 -->
<g id="edge45" class="edge"><title>dir_c108e9adcb979d7ac671bad5e192b925&#45;&gt;dir_464952543f64026c6bd6d8785fc45163</title>
<path fill="none" stroke="black" d="M523.564,-503.629C531.432,-493.866 541.241,-481.177 547,-468 592.074,-364.87 585.019,-327.794 572,-216 568.197,-183.341 566.432,-174.828 555,-144 551.728,-135.175 547.34,-125.95 543.39,-117.673"/>
<polygon fill="black" stroke="black" points="546.481,-116.022 539.047,-108.472 540.151,-119.01 546.481,-116.022"/>
<a xlink:href="dir_000008_000018.htm" target="_top" xlink:title="4">
<text text-anchor="middle" x="550.583" y="-115.56" font-family="Helvetica,sans-Serif" font-size="10.00">4</text>
</a>
</g>
<!-- dir_c108e9adcb979d7ac671bad5e192b925&#45;&gt;dir_833350a745acf29e00c46ce65f7df7ae -->
<g id="edge47" class="edge"><title>dir_c108e9adcb979d7ac671bad5e192b925&#45;&gt;dir_833350a745acf29e00c46ce65f7df7ae</title>
<path fill="none" stroke="black" d="M540.102,-516.612C616.672,-500.664 828,-445.771 828,-306 828,-306 828,-306 828,-162 828,-99.9771 629.293,-47.3853 544.957,-27.0257"/>
<polygon fill="black" stroke="black" points="545.564,-23.5722 535.023,-24.6481 543.934,-30.3799 545.564,-23.5722"/>
<a xlink:href="dir_000008_000009.htm" target="_top" xlink:title="60">
<text text-anchor="middle" x="549.72" y="-19.1476" font-family="Helvetica,sans-Serif" font-size="10.00">60</text>
</a>
</g>
<!-- dir_c108e9adcb979d7ac671bad5e192b925&#45;&gt;dir_023c91c44035a186c584180e65bb82b0 -->
<g id="edge49" class="edge"><title>dir_c108e9adcb979d7ac671bad5e192b925&#45;&gt;dir_023c91c44035a186c584180e65bb82b0</title>
<path fill="none" stroke="black" d="M512.308,-503.849C516.414,-479.552 528.205,-434.988 533,-396 538.738,-349.344 538.263,-294.57 539.745,-262.156"/>
<polygon fill="black" stroke="black" points="543.245,-262.252 540.334,-252.065 536.257,-261.844 543.245,-262.252"/>
<a xlink:href="dir_000008_000039.htm" target="_top" xlink:title="10">
<text text-anchor="middle" x="545.87" y="-263.506" font-family="Helvetica,sans-Serif" font-size="10.00">10</text>
</a>
</g>
<!-- dir_c108e9adcb979d7ac671bad5e192b925&#45;&gt;dir_43608985bfc64723d35ec9abcf43881b -->
<g id="edge51" class="edge"><title>dir_c108e9adcb979d7ac671bad5e192b925&#45;&gt;dir_43608985bfc64723d35ec9abcf43881b</title>
<path fill="none" stroke="black" d="M491.922,-503.816C483.554,-493.486 474.474,-480.214 467,-468 438.839,-421.982 409.61,-366.329 395.499,-333.681"/>
<polygon fill="black" stroke="black" points="398.683,-332.223 391.622,-324.323 392.216,-334.902 398.683,-332.223"/>
<a xlink:href="dir_000008_000003.htm" target="_top" xlink:title="2">
<text text-anchor="middle" x="402.682" y="-331.957" font-family="Helvetica,sans-Serif" font-size="10.00">2</text>
</a>
</g>
<!-- dir_c108e9adcb979d7ac671bad5e192b925&#45;&gt;dir_c0aa0a1d2cd73f9e06de2fcae29b2a13 -->
<g id="edge53" class="edge"><title>dir_c108e9adcb979d7ac671bad5e192b925&#45;&gt;dir_c0aa0a1d2cd73f9e06de2fcae29b2a13</title>
<path fill="none" stroke="black" d="M485.991,-515.903C456.414,-507.518 409.061,-490.83 373,-468 344.539,-449.981 316.554,-423.496 299.275,-403.919"/>
<polygon fill="black" stroke="black" points="301.911,-401.616 292.769,-396.26 296.576,-406.148 301.911,-401.616"/>
<a xlink:href="dir_000008_000016.htm" target="_top" xlink:title="8">
<text text-anchor="middle" x="306.402" y="-400.017" font-family="Helvetica,sans-Serif" font-size="10.00">8</text>
</a>
</g>
<!-- dir_df3fc620228f2b84eb37c7f5a522f701&#45;&gt;dir_b811646d7b97a8c5b5fa9cea902df2af -->
<g id="edge57" class="edge"><title>dir_df3fc620228f2b84eb37c7f5a522f701&#45;&gt;dir_b811646d7b97a8c5b5fa9cea902df2af</title>
<path fill="none" stroke="black" d="M453.732,-171.186C393.063,-193.154 246.861,-254.864 178,-360 136.237,-423.762 141.521,-518.792 147.471,-565.706"/>
<polygon fill="black" stroke="black" points="144.023,-566.325 148.851,-575.755 150.957,-565.372 144.023,-566.325"/>
<a xlink:href="dir_000024_000019.htm" target="_top" xlink:title="2">
<text text-anchor="middle" x="140.721" y="-560.65" font-family="Helvetica,sans-Serif" font-size="10.00">2</text>
</a>
</g>
<!-- dir_df3fc620228f2b84eb37c7f5a522f701&#45;&gt;dir_571ef98c50e1bcc1898cbefc078f6d6e -->
<g id="edge55" class="edge"><title>dir_df3fc620228f2b84eb37c7f5a522f701&#45;&gt;dir_571ef98c50e1bcc1898cbefc078f6d6e</title>
<path fill="none" stroke="black" d="M508.291,-168.417C533.036,-176.309 568.307,-191.725 590,-216 681.949,-318.895 673.765,-369.825 706,-504 710.878,-524.305 712.846,-547.83 712.346,-565.735"/>
<polygon fill="black" stroke="black" points="708.846,-565.628 711.745,-575.819 715.834,-566.045 708.846,-565.628"/>
<a xlink:href="dir_000024_000015.htm" target="_top" xlink:title="5">
<text text-anchor="middle" x="706.226" y="-559.371" font-family="Helvetica,sans-Serif" font-size="10.00">5</text>
</a>
</g>
<!-- dir_df3fc620228f2b84eb37c7f5a522f701&#45;&gt;dir_c108e9adcb979d7ac671bad5e192b925 -->
<g id="edge59" class="edge"><title>dir_df3fc620228f2b84eb37c7f5a522f701&#45;&gt;dir_c108e9adcb979d7ac671bad5e192b925</title>
<path fill="none" stroke="black" d="M482.865,-180.163C485.501,-207.45 490,-260.662 490,-306 490,-378 490,-378 490,-378 490,-418.812 499.12,-465.324 505.874,-494.175"/>
<polygon fill="black" stroke="black" points="502.488,-495.061 508.234,-503.962 509.293,-493.42 502.488,-495.061"/>
<a xlink:href="dir_000024_000008.htm" target="_top" xlink:title="70">
<text text-anchor="middle" x="498.885" y="-489.733" font-family="Helvetica,sans-Serif" font-size="10.00">70</text>
</a>
</g>
<!-- dir_df3fc620228f2b84eb37c7f5a522f701&#45;&gt;dir_464952543f64026c6bd6d8785fc45163 -->
<g id="edge61" class="edge"><title>dir_df3fc620228f2b84eb37c7f5a522f701&#45;&gt;dir_464952543f64026c6bd6d8785fc45163</title>
<path fill="none" stroke="black" d="M494.879,-143.831C501.214,-135.539 508.838,-125.557 515.793,-116.453"/>
<polygon fill="black" stroke="black" points="518.645,-118.485 521.934,-108.413 513.083,-114.235 518.645,-118.485"/>
<a xlink:href="dir_000024_000018.htm" target="_top" xlink:title="3">
<text text-anchor="middle" x="518.719" y="-120.565" font-family="Helvetica,sans-Serif" font-size="10.00">3</text>
</a>
</g>
<!-- dir_df3fc620228f2b84eb37c7f5a522f701&#45;&gt;dir_833350a745acf29e00c46ce65f7df7ae -->
<g id="edge63" class="edge"><title>dir_df3fc620228f2b84eb37c7f5a522f701&#45;&gt;dir_833350a745acf29e00c46ce65f7df7ae</title>
<path fill="none" stroke="black" d="M484.42,-143.762C489.045,-119.093 497.339,-74.8598 502.755,-45.9731"/>
<polygon fill="black" stroke="black" points="506.205,-46.5634 504.608,-36.0896 499.325,-45.2733 506.205,-46.5634"/>
<a xlink:href="dir_000024_000009.htm" target="_top" xlink:title="15">
<text text-anchor="middle" x="508.334" y="-48.1196" font-family="Helvetica,sans-Serif" font-size="10.00">15</text>
</a>
</g>
<!-- dir_df3fc620228f2b84eb37c7f5a522f701&#45;&gt;dir_023c91c44035a186c584180e65bb82b0 -->
<g id="edge65" class="edge"><title>dir_df3fc620228f2b84eb37c7f5a522f701&#45;&gt;dir_023c91c44035a186c584180e65bb82b0</title>
<path fill="none" stroke="black" d="M503.343,-180.413C511.54,-188.739 520.601,-198.728 528.246,-207.814"/>
<polygon fill="black" stroke="black" points="525.762,-210.306 534.802,-215.831 531.181,-205.875 525.762,-210.306"/>
<a xlink:href="dir_000024_000039.htm" target="_top" xlink:title="3">
<text text-anchor="middle" x="521.289" y="-206.821" font-family="Helvetica,sans-Serif" font-size="10.00">3</text>
</a>
</g>
<!-- dir_df3fc620228f2b84eb37c7f5a522f701&#45;&gt;dir_43608985bfc64723d35ec9abcf43881b -->
<g id="edge67" class="edge"><title>dir_df3fc620228f2b84eb37c7f5a522f701&#45;&gt;dir_43608985bfc64723d35ec9abcf43881b</title>
<path fill="none" stroke="black" d="M473.975,-180.09C460.338,-205.112 431.29,-250.463 410.584,-279.362"/>
<polygon fill="black" stroke="black" points="407.521,-277.622 404.452,-287.762 413.175,-281.749 407.521,-277.622"/>
<a xlink:href="dir_000024_000003.htm" target="_top" xlink:title="2">
<text text-anchor="middle" x="407.347" y="-270.544" font-family="Helvetica,sans-Serif" font-size="10.00">2</text>
</a>
</g>
<!-- dir_464952543f64026c6bd6d8785fc45163&#45;&gt;dir_571ef98c50e1bcc1898cbefc078f6d6e -->
<g id="edge69" class="edge"><title>dir_464952543f64026c6bd6d8785fc45163&#45;&gt;dir_571ef98c50e1bcc1898cbefc078f6d6e</title>
<path fill="none" stroke="black" d="M558.579,-108.205C569.827,-118.02 583.103,-130.805 593,-144 656.478,-228.628 664.175,-258.214 693,-360 715.099,-438.035 735.991,-459.944 723,-540 721.582,-548.738 718.952,-557.973 716.133,-566.286"/>
<polygon fill="black" stroke="black" points="712.775,-565.281 712.668,-575.876 719.358,-567.66 712.775,-565.281"/>
<a xlink:href="dir_000018_000015.htm" target="_top" xlink:title="2">
<text text-anchor="middle" x="711.326" y="-558.436" font-family="Helvetica,sans-Serif" font-size="10.00">2</text>
</a>
</g>
<!-- dir_464952543f64026c6bd6d8785fc45163&#45;&gt;dir_c108e9adcb979d7ac671bad5e192b925 -->
<g id="edge71" class="edge"><title>dir_464952543f64026c6bd6d8785fc45163&#45;&gt;dir_c108e9adcb979d7ac671bad5e192b925</title>
<path fill="none" stroke="black" d="M555.002,-108.472C561.735,-118.669 568.447,-131.722 573,-144 584.432,-174.828 586.197,-183.341 590,-216 603.019,-327.794 610.074,-364.87 565,-468 560.636,-477.986 553.946,-487.691 546.73,-496.056"/>
<polygon fill="black" stroke="black" points="543.941,-493.916 539.71,-503.629 549.075,-498.675 543.941,-493.916"/>
<a xlink:href="dir_000018_000008.htm" target="_top" xlink:title="76">
<text text-anchor="middle" x="544.303" y="-486.85" font-family="Helvetica,sans-Serif" font-size="10.00">76</text>
</a>
</g>
<!-- dir_464952543f64026c6bd6d8785fc45163&#45;&gt;dir_833350a745acf29e00c46ce65f7df7ae -->
<g id="edge73" class="edge"><title>dir_464952543f64026c6bd6d8785fc45163&#45;&gt;dir_833350a745acf29e00c46ce65f7df7ae</title>
<path fill="none" stroke="black" d="M528.934,-71.8314C525.874,-63.9617 522.222,-54.5712 518.832,-45.8533"/>
<polygon fill="black" stroke="black" points="522.047,-44.4647 515.161,-36.4133 515.523,-47.0019 522.047,-44.4647"/>
<a xlink:href="dir_000018_000009.htm" target="_top" xlink:title="20">
<text text-anchor="middle" x="525.996" y="-44.2859" font-family="Helvetica,sans-Serif" font-size="10.00">20</text>
</a>
</g>
<!-- dir_464952543f64026c6bd6d8785fc45163&#45;&gt;dir_023c91c44035a186c584180e65bb82b0 -->
<g id="edge75" class="edge"><title>dir_464952543f64026c6bd6d8785fc45163&#45;&gt;dir_023c91c44035a186c584180e65bb82b0</title>
<path fill="none" stroke="black" d="M541.789,-108.09C545.788,-132.573 548.818,-176.517 548.726,-205.471"/>
<polygon fill="black" stroke="black" points="545.221,-205.699 548.533,-215.762 552.22,-205.83 545.221,-205.699"/>
<a xlink:href="dir_000018_000039.htm" target="_top" xlink:title="4">
<text text-anchor="middle" x="542.449" y="-199.551" font-family="Helvetica,sans-Serif" font-size="10.00">4</text>
</a>
</g>
<!-- dir_464952543f64026c6bd6d8785fc45163&#45;&gt;dir_43608985bfc64723d35ec9abcf43881b -->
<g id="edge77" class="edge"><title>dir_464952543f64026c6bd6d8785fc45163&#45;&gt;dir_43608985bfc64723d35ec9abcf43881b</title>
<path fill="none" stroke="black" d="M508.618,-100.217C488.47,-109.015 461.773,-123.543 445,-144 412.449,-183.699 397.899,-243.283 391.861,-278.043"/>
<polygon fill="black" stroke="black" points="388.395,-277.553 390.25,-287.984 395.305,-278.673 388.395,-277.553"/>
<a xlink:href="dir_000018_000003.htm" target="_top" xlink:title="2">
<text text-anchor="middle" x="386.167" y="-271.05" font-family="Helvetica,sans-Serif" font-size="10.00">2</text>
</a>
</g>
<!-- dir_464952543f64026c6bd6d8785fc45163&#45;&gt;dir_c0aa0a1d2cd73f9e06de2fcae29b2a13 -->
<g id="edge79" class="edge"><title>dir_464952543f64026c6bd6d8785fc45163&#45;&gt;dir_c0aa0a1d2cd73f9e06de2fcae29b2a13</title>
<path fill="none" stroke="black" d="M508.946,-97.4489C483.578,-105.533 445.792,-120.525 420,-144 354.345,-203.757 311.075,-302.458 292.839,-350.297"/>
<polygon fill="black" stroke="black" points="289.547,-349.109 289.328,-359.701 296.105,-351.557 289.547,-349.109"/>
<a xlink:href="dir_000018_000016.htm" target="_top" xlink:title="3">
<text text-anchor="middle" x="288.144" y="-342.248" font-family="Helvetica,sans-Serif" font-size="10.00">3</text>
</a>
</g>
<!-- dir_833350a745acf29e00c46ce65f7df7ae&#45;&gt;dir_c108e9adcb979d7ac671bad5e192b925 -->
<g id="edge81" class="edge"><title>dir_833350a745acf29e00c46ce65f7df7ae&#45;&gt;dir_c108e9adcb979d7ac671bad5e192b925</title>
<path fill="none" stroke="black" d="M535.121,-22.9113C615.56,-39.3531 846,-95.208 846,-162 846,-306 846,-306 846,-306 846,-445.021 636.934,-500.073 550.016,-516.352"/>
<polygon fill="black" stroke="black" points="549.265,-512.931 540.044,-518.148 550.506,-519.82 549.265,-512.931"/>
<a xlink:href="dir_000009_000008.htm" target="_top" xlink:title="2">
<text text-anchor="middle" x="552.3" y="-506.999" font-family="Helvetica,sans-Serif" font-size="10.00">2</text>
</a>
</g>
<!-- dir_023c91c44035a186c584180e65bb82b0&#45;&gt;dir_571ef98c50e1bcc1898cbefc078f6d6e -->
<g id="edge83" class="edge"><title>dir_023c91c44035a186c584180e65bb82b0&#45;&gt;dir_571ef98c50e1bcc1898cbefc078f6d6e</title>
<path fill="none" stroke="black" d="M561.572,-252.456C567.498,-262.872 573.638,-276.139 579,-288 625.174,-390.148 678.482,-512.257 698.044,-566.127"/>
<polygon fill="black" stroke="black" points="694.779,-567.393 701.395,-575.669 701.384,-565.074 694.779,-567.393"/>
<a xlink:href="dir_000039_000015.htm" target="_top" xlink:title="1">
<text text-anchor="middle" x="690.909" y="-562.442" font-family="Helvetica,sans-Serif" font-size="10.00">1</text>
</a>
</g>
<!-- dir_023c91c44035a186c584180e65bb82b0&#45;&gt;dir_c108e9adcb979d7ac671bad5e192b925 -->
<g id="edge85" class="edge"><title>dir_023c91c44035a186c584180e65bb82b0&#45;&gt;dir_c108e9adcb979d7ac671bad5e192b925</title>
<path fill="none" stroke="black" d="M551.43,-252.065C556.076,-282.082 557.386,-344.07 551,-396 546.786,-430.267 537.167,-468.841 528.207,-494.177"/>
<polygon fill="black" stroke="black" points="524.814,-493.258 524.558,-503.849 531.363,-495.729 524.814,-493.258"/>
<a xlink:href="dir_000039_000008.htm" target="_top" xlink:title="24">
<text text-anchor="middle" x="523.426" y="-486.392" font-family="Helvetica,sans-Serif" font-size="10.00">24</text>
</a>
</g>
<!-- dir_023c91c44035a186c584180e65bb82b0&#45;&gt;dir_df3fc620228f2b84eb37c7f5a522f701 -->
<g id="edge87" class="edge"><title>dir_023c91c44035a186c584180e65bb82b0&#45;&gt;dir_df3fc620228f2b84eb37c7f5a522f701</title>
<path fill="none" stroke="black" d="M522.898,-215.831C514.635,-207.454 505.467,-197.353 497.745,-188.175"/>
<polygon fill="black" stroke="black" points="500.434,-185.934 491.391,-180.413 495.018,-190.368 500.434,-185.934"/>
<a xlink:href="dir_000039_000024.htm" target="_top" xlink:title="1">
<text text-anchor="middle" x="504.908" y="-184.417" font-family="Helvetica,sans-Serif" font-size="10.00">1</text>
</a>
</g>
<!-- dir_023c91c44035a186c584180e65bb82b0&#45;&gt;dir_464952543f64026c6bd6d8785fc45163 -->
<g id="edge89" class="edge"><title>dir_023c91c44035a186c584180e65bb82b0&#45;&gt;dir_464952543f64026c6bd6d8785fc45163</title>
<path fill="none" stroke="black" d="M539.187,-215.762C535.192,-191.201 532.17,-147.247 532.275,-118.354"/>
<polygon fill="black" stroke="black" points="535.779,-118.155 532.472,-108.09 528.78,-118.02 535.779,-118.155"/>
<a xlink:href="dir_000039_000018.htm" target="_top" xlink:title="4">
<text text-anchor="middle" x="538.549" y="-119.304" font-family="Helvetica,sans-Serif" font-size="10.00">4</text>
</a>
</g>
<!-- dir_023c91c44035a186c584180e65bb82b0&#45;&gt;dir_833350a745acf29e00c46ce65f7df7ae -->
<g id="edge91" class="edge"><title>dir_023c91c44035a186c584180e65bb82b0&#45;&gt;dir_833350a745acf29e00c46ce65f7df7ae</title>
<path fill="none" stroke="black" d="M554.604,-215.825C569.572,-184.85 594.528,-120.484 572,-72 565.838,-58.7387 554.638,-47.5619 543.31,-38.8788"/>
<polygon fill="black" stroke="black" points="545.277,-35.9822 535.109,-33.0028 541.2,-41.6723 545.277,-35.9822"/>
<a xlink:href="dir_000039_000009.htm" target="_top" xlink:title="5">
<text text-anchor="middle" x="549.852" y="-33.2678" font-family="Helvetica,sans-Serif" font-size="10.00">5</text>
</a>
</g>
<!-- dir_023c91c44035a186c584180e65bb82b0&#45;&gt;dir_43608985bfc64723d35ec9abcf43881b -->
<g id="edge93" class="edge"><title>dir_023c91c44035a186c584180e65bb82b0&#45;&gt;dir_43608985bfc64723d35ec9abcf43881b</title>
<path fill="none" stroke="black" d="M517.873,-249.011C494.625,-260.315 460.838,-275.862 433.499,-287.863"/>
<polygon fill="black" stroke="black" points="431.895,-284.744 424.125,-291.947 434.691,-291.161 431.895,-284.744"/>
<a xlink:href="dir_000039_000003.htm" target="_top" xlink:title="3">
<text text-anchor="middle" x="434.056" y="-278.205" font-family="Helvetica,sans-Serif" font-size="10.00">3</text>
</a>
</g>
<!-- dir_43608985bfc64723d35ec9abcf43881b&#45;&gt;dir_c108e9adcb979d7ac671bad5e192b925 -->
<g id="edge95" class="edge"><title>dir_43608985bfc64723d35ec9abcf43881b&#45;&gt;dir_c108e9adcb979d7ac671bad5e192b925</title>
<path fill="none" stroke="black" d="M402.719,-324.323C421.552,-354.712 453.926,-417.221 485,-468 490.547,-477.065 496.979,-486.713 502.47,-495.308"/>
<polygon fill="black" stroke="black" points="499.514,-497.183 507.776,-503.816 505.454,-493.479 499.514,-497.183"/>
<a xlink:href="dir_000003_000008.htm" target="_top" xlink:title="77">
<text text-anchor="middle" x="495.203" y="-493.135" font-family="Helvetica,sans-Serif" font-size="10.00">77</text>
</a>
</g>
<!-- dir_43608985bfc64723d35ec9abcf43881b&#45;&gt;dir_df3fc620228f2b84eb37c7f5a522f701 -->
<g id="edge97" class="edge"><title>dir_43608985bfc64723d35ec9abcf43881b&#45;&gt;dir_df3fc620228f2b84eb37c7f5a522f701</title>
<path fill="none" stroke="black" d="M395.105,-287.762C408.803,-262.66 437.866,-217.302 458.539,-188.467"/>
<polygon fill="black" stroke="black" points="461.586,-190.229 464.659,-180.09 455.934,-186.1 461.586,-190.229"/>
<a xlink:href="dir_000003_000024.htm" target="_top" xlink:title="2">
<text text-anchor="middle" x="461.758" y="-192.306" font-family="Helvetica,sans-Serif" font-size="10.00">2</text>
</a>
</g>
<!-- dir_43608985bfc64723d35ec9abcf43881b&#45;&gt;dir_833350a745acf29e00c46ce65f7df7ae -->
<g id="edge99" class="edge"><title>dir_43608985bfc64723d35ec9abcf43881b&#45;&gt;dir_833350a745acf29e00c46ce65f7df7ae</title>
<path fill="none" stroke="black" d="M387.731,-287.869C387.802,-269.548 388.861,-240.523 394,-216 400.978,-182.701 404.347,-174.208 420,-144 438.998,-107.339 467.185,-68.9573 486.509,-44.3326"/>
<polygon fill="black" stroke="black" points="489.471,-46.2307 492.945,-36.2217 483.987,-41.8797 489.471,-46.2307"/>
<a xlink:href="dir_000003_000009.htm" target="_top" xlink:title="15">
<text text-anchor="middle" x="489.46" y="-48.3114" font-family="Helvetica,sans-Serif" font-size="10.00">15</text>
</a>
</g>
<!-- dir_43608985bfc64723d35ec9abcf43881b&#45;&gt;dir_023c91c44035a186c584180e65bb82b0 -->
<g id="edge101" class="edge"><title>dir_43608985bfc64723d35ec9abcf43881b&#45;&gt;dir_023c91c44035a186c584180e65bb82b0</title>
<path fill="none" stroke="black" d="M421.665,-287.831C447.325,-275.513 482.465,-259.469 508.742,-248.111"/>
<polygon fill="black" stroke="black" points="510.172,-251.306 517.988,-244.154 507.418,-244.871 510.172,-251.306"/>
<a xlink:href="dir_000003_000039.htm" target="_top" xlink:title="10">
<text text-anchor="middle" x="507.984" y="-252.83" font-family="Helvetica,sans-Serif" font-size="10.00">10</text>
</a>
</g>
<!-- dir_c0aa0a1d2cd73f9e06de2fcae29b2a13&#45;&gt;dir_c108e9adcb979d7ac671bad5e192b925 -->
<g id="edge103" class="edge"><title>dir_c0aa0a1d2cd73f9e06de2fcae29b2a13&#45;&gt;dir_c108e9adcb979d7ac671bad5e192b925</title>
<path fill="none" stroke="black" d="M305.95,-396.26C326.851,-416.037 358.618,-447.499 391,-468 417.973,-485.076 451.263,-498.716 476.362,-508.016"/>
<polygon fill="black" stroke="black" points="475.296,-511.353 485.89,-511.488 477.692,-504.776 475.296,-511.353"/>
<a xlink:href="dir_000016_000008.htm" target="_top" xlink:title="47">
<text text-anchor="middle" x="470.946" y="-510.29" font-family="Helvetica,sans-Serif" font-size="10.00">47</text>
</a>
</g>
<!-- dir_c0aa0a1d2cd73f9e06de2fcae29b2a13&#45;&gt;dir_833350a745acf29e00c46ce65f7df7ae -->
<g id="edge105" class="edge"><title>dir_c0aa0a1d2cd73f9e06de2fcae29b2a13&#45;&gt;dir_833350a745acf29e00c46ce65f7df7ae</title>
<path fill="none" stroke="black" d="M285.319,-359.736C287.967,-341.311 292.997,-312.207 301,-288 336.683,-180.064 359.082,-153.825 438,-72 448.375,-61.2433 460.984,-50.8574 472.626,-42.1163"/>
<polygon fill="black" stroke="black" points="474.892,-44.7954 480.888,-36.0604 470.753,-39.1497 474.892,-44.7954"/>
<a xlink:href="dir_000016_000009.htm" target="_top" xlink:title="3">
<text text-anchor="middle" x="473.671" y="-46.7104" font-family="Helvetica,sans-Serif" font-size="10.00">3</text>
</a>
</g>
<!-- dir_c0aa0a1d2cd73f9e06de2fcae29b2a13&#45;&gt;dir_43608985bfc64723d35ec9abcf43881b -->
<g id="edge107" class="edge"><title>dir_c0aa0a1d2cd73f9e06de2fcae29b2a13&#45;&gt;dir_43608985bfc64723d35ec9abcf43881b</title>
<path fill="none" stroke="black" d="M309.496,-359.831C322.677,-350.793 338.785,-339.748 352.971,-330.02"/>
<polygon fill="black" stroke="black" points="355.245,-332.705 361.513,-324.163 351.286,-326.932 355.245,-332.705"/>
<a xlink:href="dir_000016_000003.htm" target="_top" xlink:title="2">
<text text-anchor="middle" x="353.886" y="-334.579" font-family="Helvetica,sans-Serif" font-size="10.00">2</text>
</a>
</g>
</g>
</svg>
