<?xml version="1.0" encoding="UTF-8" standalone="no"?>
<!DOCTYPE svg PUBLIC "-//W3C//DTD SVG 1.1//EN"
 "http://www.w3.org/Graphics/SVG/1.1/DTD/svg11.dtd">
<!-- Generated by graphviz version 2.26.3 (20100126.1600)
 -->
<!-- Title: G Pages: 1 -->
<svg width="371pt" height="405pt"
 viewBox="0.00 0.00 371.00 405.00" xmlns="http://www.w3.org/2000/svg" xmlns:xlink="http://www.w3.org/1999/xlink">
<g id="graph1" class="graph" transform="scale(1 1) rotate(0) translate(4 401)">
<title>G</title>
<polygon fill="white" stroke="white" points="-4,5 -4,-401 368,-401 368,5 -4,5"/>
<g id="graph2" class="cluster"><title>clusterdir_aafe48f257c75c61a4124f498f9cedbe</title>
<a xlink:href="dir_aafe48f257c75c61a4124f498f9cedbe.htm" target="_top" xlink:title="lunaui">
<polygon fill="#ddddee" stroke="black" points="109,-208 109,-281 187,-281 187,-208 109,-208"/>
<text text-anchor="middle" x="148" y="-268" font-family="Helvetica,sans-Serif" font-size="10.00">lunaui</text>
</a>
</g>
<!-- dir_571ef98c50e1bcc1898cbefc078f6d6e -->
<g id="node2" class="node"><title>dir_571ef98c50e1bcc1898cbefc078f6d6e</title>
<a xlink:href="dir_571ef98c50e1bcc1898cbefc078f6d6e.htm" target="_top" xlink:title="status&#45;bar">
<polygon fill="#eeeeff" stroke="black" points="179,-252 117,-252 117,-216 179,-216 179,-252"/>
<text text-anchor="middle" x="148" y="-231.5" font-family="Helvetica,sans-Serif" font-size="10.00">status&#45;bar</text>
</a>
</g>
<!-- dir_cc68e4bc0b6327b606269eccaa048ab0 -->
<g id="node3" class="node"><title>dir_cc68e4bc0b6327b606269eccaa048ab0</title>
<a xlink:href="dir_cc68e4bc0b6327b606269eccaa048ab0.htm" target="_top" xlink:title="sound">
<polygon fill="none" stroke="black" points="234,-397 180,-397 180,-361 234,-361 234,-397"/>
<text text-anchor="middle" x="207" y="-376.5" font-family="Helvetica,sans-Serif" font-size="10.00">sound</text>
</a>
</g>
<!-- dir_571ef98c50e1bcc1898cbefc078f6d6e&#45;&gt;dir_cc68e4bc0b6327b606269eccaa048ab0 -->
<g id="edge3" class="edge"><title>dir_571ef98c50e1bcc1898cbefc078f6d6e&#45;&gt;dir_cc68e4bc0b6327b606269eccaa048ab0</title>
<path fill="none" stroke="black" d="M150.693,-252.038C153.924,-270.84 160.289,-300.872 171,-325 175.207,-334.478 181.042,-344.12 186.791,-352.583"/>
<polygon fill="black" stroke="black" points="184.05,-354.771 192.678,-360.92 189.768,-350.733 184.05,-354.771"/>
<a xlink:href="dir_000015_000045.htm" target="_top" xlink:title="2">
<text text-anchor="middle" x="179.658" y="-350.972" font-family="Helvetica,sans-Serif" font-size="10.00">2</text>
</a>
</g>
<!-- dir_c108e9adcb979d7ac671bad5e192b925 -->
<g id="node4" class="node"><title>dir_c108e9adcb979d7ac671bad5e192b925</title>
<a xlink:href="dir_c108e9adcb979d7ac671bad5e192b925.htm" target="_top" xlink:title="base">
<polygon fill="white" stroke="red" points="234,-325 180,-325 180,-289 234,-289 234,-325"/>
<text text-anchor="middle" x="207" y="-304.5" font-family="Helvetica,sans-Serif" font-size="10.00">base</text>
</a>
</g>
<!-- dir_571ef98c50e1bcc1898cbefc078f6d6e&#45;&gt;dir_c108e9adcb979d7ac671bad5e192b925 -->
<g id="edge5" class="edge"><title>dir_571ef98c50e1bcc1898cbefc078f6d6e&#45;&gt;dir_c108e9adcb979d7ac671bad5e192b925</title>
<path fill="none" stroke="black" d="M152.744,-252.195C158.298,-261.055 166.333,-271.762 174,-281 174.132,-281.16 174.266,-281.319 174.399,-281.48"/>
<polygon fill="black" stroke="black" points="171.562,-283.553 180.795,-288.75 176.818,-278.93 171.562,-283.553"/>
<a xlink:href="dir_000015_000008.htm" target="_top" xlink:title="60">
<text text-anchor="middle" x="167.056" y="-280.23" font-family="Helvetica,sans-Serif" font-size="10.00">60</text>
</a>
</g>
<!-- dir_df3fc620228f2b84eb37c7f5a522f701 -->
<g id="node5" class="node"><title>dir_df3fc620228f2b84eb37c7f5a522f701</title>
<a xlink:href="dir_df3fc620228f2b84eb37c7f5a522f701.htm" target="_top" xlink:title="dock">
<polygon fill="none" stroke="black" points="235,-108 181,-108 181,-72 235,-72 235,-108"/>
<text text-anchor="middle" x="208" y="-87.5" font-family="Helvetica,sans-Serif" font-size="10.00">dock</text>
</a>
</g>
<!-- dir_571ef98c50e1bcc1898cbefc078f6d6e&#45;&gt;dir_df3fc620228f2b84eb37c7f5a522f701 -->
<g id="edge7" class="edge"><title>dir_571ef98c50e1bcc1898cbefc078f6d6e&#45;&gt;dir_df3fc620228f2b84eb37c7f5a522f701</title>
<path fill="none" stroke="black" d="M155.599,-215.762C165.923,-190.985 184.47,-146.471 196.503,-117.594"/>
<polygon fill="black" stroke="black" points="199.847,-118.667 200.463,-108.09 193.386,-115.974 199.847,-118.667"/>
<a xlink:href="dir_000015_000024.htm" target="_top" xlink:title="2">
<text text-anchor="middle" x="201.086" y="-120.577" font-family="Helvetica,sans-Serif" font-size="10.00">2</text>
</a>
</g>
<!-- dir_833350a745acf29e00c46ce65f7df7ae -->
<g id="node6" class="node"><title>dir_833350a745acf29e00c46ce65f7df7ae</title>
<a xlink:href="dir_833350a745acf29e00c46ce65f7df7ae.htm" target="_top" xlink:title="core">
<polygon fill="none" stroke="black" points="121,-36 67,-36 67,-1.77636e-14 121,-3.55271e-15 121,-36"/>
<text text-anchor="middle" x="94" y="-15.5" font-family="Helvetica,sans-Serif" font-size="10.00">core</text>
</a>
</g>
<!-- dir_571ef98c50e1bcc1898cbefc078f6d6e&#45;&gt;dir_833350a745acf29e00c46ce65f7df7ae -->
<g id="edge9" class="edge"><title>dir_571ef98c50e1bcc1898cbefc078f6d6e&#45;&gt;dir_833350a745acf29e00c46ce65f7df7ae</title>
<path fill="none" stroke="black" d="M143.489,-215.955C134.079,-178.314 112.297,-91.1867 101.031,-46.1246"/>
<polygon fill="black" stroke="black" points="104.357,-44.9976 98.5363,-36.1451 97.5662,-46.6954 104.357,-44.9976"/>
<a xlink:href="dir_000015_000009.htm" target="_top" xlink:title="6">
<text text-anchor="middle" x="107.983" y="-45.2963" font-family="Helvetica,sans-Serif" font-size="10.00">6</text>
</a>
</g>
<!-- dir_023c91c44035a186c584180e65bb82b0 -->
<g id="node7" class="node"><title>dir_023c91c44035a186c584180e65bb82b0</title>
<a xlink:href="dir_023c91c44035a186c584180e65bb82b0.htm" target="_top" xlink:title="remote">
<polygon fill="none" stroke="black" points="290,-180 236,-180 236,-144 290,-144 290,-180"/>
<text text-anchor="middle" x="263" y="-159.5" font-family="Helvetica,sans-Serif" font-size="10.00">remote</text>
</a>
</g>
<!-- dir_571ef98c50e1bcc1898cbefc078f6d6e&#45;&gt;dir_023c91c44035a186c584180e65bb82b0 -->
<g id="edge11" class="edge"><title>dir_571ef98c50e1bcc1898cbefc078f6d6e&#45;&gt;dir_023c91c44035a186c584180e65bb82b0</title>
<path fill="none" stroke="black" d="M162.57,-215.995C166.262,-213.242 170.202,-210.49 174,-208 190.688,-197.058 210.075,-185.874 226.621,-177.274"/>
<polygon fill="black" stroke="black" points="228.651,-180.169 235.992,-172.53 225.49,-173.924 228.651,-180.169"/>
<a xlink:href="dir_000015_000039.htm" target="_top" xlink:title="3">
<text text-anchor="middle" x="226.726" y="-181.826" font-family="Helvetica,sans-Serif" font-size="10.00">3</text>
</a>
</g>
<!-- dir_43608985bfc64723d35ec9abcf43881b -->
<g id="node8" class="node"><title>dir_43608985bfc64723d35ec9abcf43881b</title>
<a xlink:href="dir_43608985bfc64723d35ec9abcf43881b.htm" target="_top" xlink:title="notifications">
<polygon fill="none" stroke="black" points="363,-252 291,-252 291,-216 363,-216 363,-252"/>
<text text-anchor="middle" x="327" y="-231.5" font-family="Helvetica,sans-Serif" font-size="10.00">notifications</text>
</a>
</g>
<!-- dir_571ef98c50e1bcc1898cbefc078f6d6e&#45;&gt;dir_43608985bfc64723d35ec9abcf43881b -->
<g id="edge13" class="edge"><title>dir_571ef98c50e1bcc1898cbefc078f6d6e&#45;&gt;dir_43608985bfc64723d35ec9abcf43881b</title>
<path fill="none" stroke="black" d="M179.115,-234C213.028,-234 246.94,-234 280.853,-234"/>
<polygon fill="black" stroke="black" points="280.895,-237.5 290.895,-234 280.895,-230.5 280.895,-237.5"/>
<a xlink:href="dir_000015_000003.htm" target="_top" xlink:title="6">
<text text-anchor="middle" x="277.301" y="-237.839" font-family="Helvetica,sans-Serif" font-size="10.00">6</text>
</a>
</g>
<!-- dir_cc68e4bc0b6327b606269eccaa048ab0&#45;&gt;dir_c108e9adcb979d7ac671bad5e192b925 -->
<g id="edge15" class="edge"><title>dir_cc68e4bc0b6327b606269eccaa048ab0&#45;&gt;dir_c108e9adcb979d7ac671bad5e192b925</title>
<path fill="none" stroke="black" d="M201.048,-360.831C200.297,-353.131 200.076,-343.974 200.385,-335.417"/>
<polygon fill="black" stroke="black" points="203.879,-335.616 201.024,-325.413 196.893,-335.17 203.879,-335.616"/>
<a xlink:href="dir_000045_000008.htm" target="_top" xlink:title="6">
<text text-anchor="middle" x="206.484" y="-336.884" font-family="Helvetica,sans-Serif" font-size="10.00">6</text>
</a>
</g>
<!-- dir_cc68e4bc0b6327b606269eccaa048ab0&#45;&gt;dir_833350a745acf29e00c46ce65f7df7ae -->
<g id="edge17" class="edge"><title>dir_cc68e4bc0b6327b606269eccaa048ab0&#45;&gt;dir_833350a745acf29e00c46ce65f7df7ae</title>
<path fill="none" stroke="black" d="M179.938,-373.422C123.829,-360.106 0,-320.877 0,-234 0,-234 0,-234 0,-162 0,-113.971 37.1215,-69.4394 64.7088,-42.9769"/>
<polygon fill="black" stroke="black" points="67.264,-45.3801 72.1982,-36.0044 62.4942,-40.2567 67.264,-45.3801"/>
<a xlink:href="dir_000045_000009.htm" target="_top" xlink:title="5">
<text text-anchor="middle" x="66.5677" y="-47.4076" font-family="Helvetica,sans-Serif" font-size="10.00">5</text>
</a>
</g>
<!-- dir_c108e9adcb979d7ac671bad5e192b925&#45;&gt;dir_571ef98c50e1bcc1898cbefc078f6d6e -->
<g id="edge19" class="edge"><title>dir_c108e9adcb979d7ac671bad5e192b925&#45;&gt;dir_571ef98c50e1bcc1898cbefc078f6d6e</title>
<path fill="none" stroke="black" d="M198.626,-288.75C196.411,-286.185 194.119,-283.553 192,-281 186.489,-274.36 180.788,-266.962 175.301,-260.035"/>
<polygon fill="black" stroke="black" points="177.982,-257.784 168.981,-252.195 172.532,-262.177 177.982,-257.784"/>
<a xlink:href="dir_000008_000015.htm" target="_top" xlink:title="3">
<text text-anchor="middle" x="182.448" y="-256.301" font-family="Helvetica,sans-Serif" font-size="10.00">3</text>
</a>
</g>
<!-- dir_c108e9adcb979d7ac671bad5e192b925&#45;&gt;dir_cc68e4bc0b6327b606269eccaa048ab0 -->
<g id="edge21" class="edge"><title>dir_c108e9adcb979d7ac671bad5e192b925&#45;&gt;dir_cc68e4bc0b6327b606269eccaa048ab0</title>
<path fill="none" stroke="black" d="M212.976,-325.413C213.707,-333.059 213.92,-342.108 213.615,-350.573"/>
<polygon fill="black" stroke="black" points="210.105,-350.626 212.952,-360.831 217.09,-351.078 210.105,-350.626"/>
<a xlink:href="dir_000008_000045.htm" target="_top" xlink:title="2">
<text text-anchor="middle" x="207.503" y="-344.356" font-family="Helvetica,sans-Serif" font-size="10.00">2</text>
</a>
</g>
<!-- dir_c108e9adcb979d7ac671bad5e192b925&#45;&gt;dir_833350a745acf29e00c46ce65f7df7ae -->
<g id="edge23" class="edge"><title>dir_c108e9adcb979d7ac671bad5e192b925&#45;&gt;dir_833350a745acf29e00c46ce65f7df7ae</title>
<path fill="none" stroke="black" d="M179.982,-304.599C150.291,-301.052 106.102,-293.454 96,-281 40.5361,-212.623 62.3225,-98.2117 80.3358,-45.7788"/>
<polygon fill="black" stroke="black" points="83.7095,-46.7444 83.8641,-36.1507 77.1369,-44.3357 83.7095,-46.7444"/>
<a xlink:href="dir_000008_000009.htm" target="_top" xlink:title="60">
<text text-anchor="middle" x="85.1386" y="-48.5964" font-family="Helvetica,sans-Serif" font-size="10.00">60</text>
</a>
</g>
<!-- dir_c108e9adcb979d7ac671bad5e192b925&#45;&gt;dir_023c91c44035a186c584180e65bb82b0 -->
<g id="edge25" class="edge"><title>dir_c108e9adcb979d7ac671bad5e192b925&#45;&gt;dir_023c91c44035a186c584180e65bb82b0</title>
<path fill="none" stroke="black" d="M208.25,-288.995C209.515,-286.346 210.838,-283.625 212,-281 225.558,-250.361 237.906,-213.861 247.57,-189.437"/>
<polygon fill="black" stroke="black" points="250.852,-190.657 251.407,-180.077 244.375,-188.002 250.852,-190.657"/>
<a xlink:href="dir_000008_000039.htm" target="_top" xlink:title="10">
<text text-anchor="middle" x="252.116" y="-192.56" font-family="Helvetica,sans-Serif" font-size="10.00">10</text>
</a>
</g>
<!-- dir_c108e9adcb979d7ac671bad5e192b925&#45;&gt;dir_43608985bfc64723d35ec9abcf43881b -->
<g id="edge27" class="edge"><title>dir_c108e9adcb979d7ac671bad5e192b925&#45;&gt;dir_43608985bfc64723d35ec9abcf43881b</title>
<path fill="none" stroke="black" d="M234.276,-296.785C245.195,-292.744 257.533,-287.49 268,-281 277.612,-275.039 286.972,-267.036 295.403,-259.325"/>
<polygon fill="black" stroke="black" points="297.921,-261.762 302.865,-252.392 293.157,-256.634 297.921,-261.762"/>
<a xlink:href="dir_000008_000003.htm" target="_top" xlink:title="2">
<text text-anchor="middle" x="297.22" y="-263.789" font-family="Helvetica,sans-Serif" font-size="10.00">2</text>
</a>
</g>
<!-- dir_df3fc620228f2b84eb37c7f5a522f701&#45;&gt;dir_571ef98c50e1bcc1898cbefc078f6d6e -->
<g id="edge29" class="edge"><title>dir_df3fc620228f2b84eb37c7f5a522f701&#45;&gt;dir_571ef98c50e1bcc1898cbefc078f6d6e</title>
<path fill="none" stroke="black" d="M190.967,-108.161C182.561,-118.063 172.97,-130.939 167,-144 158.065,-163.547 153.274,-187.417 150.738,-205.661"/>
<polygon fill="black" stroke="black" points="147.253,-205.322 149.492,-215.677 154.2,-206.186 147.253,-205.322"/>
<a xlink:href="dir_000024_000015.htm" target="_top" xlink:title="5">
<text text-anchor="middle" x="144.88" y="-198.904" font-family="Helvetica,sans-Serif" font-size="10.00">5</text>
</a>
</g>
<!-- dir_df3fc620228f2b84eb37c7f5a522f701&#45;&gt;dir_c108e9adcb979d7ac671bad5e192b925 -->
<g id="edge31" class="edge"><title>dir_df3fc620228f2b84eb37c7f5a522f701&#45;&gt;dir_c108e9adcb979d7ac671bad5e192b925</title>
<path fill="none" stroke="black" d="M207.916,-108.229C207.741,-146.133 207.338,-233.67 207.13,-278.866"/>
<polygon fill="black" stroke="black" points="203.63,-278.856 207.084,-288.872 210.63,-278.888 203.63,-278.856"/>
<a xlink:href="dir_000024_000008.htm" target="_top" xlink:title="70">
<text text-anchor="middle" x="200.807" y="-272.748" font-family="Helvetica,sans-Serif" font-size="10.00">70</text>
</a>
</g>
<!-- dir_df3fc620228f2b84eb37c7f5a522f701&#45;&gt;dir_833350a745acf29e00c46ce65f7df7ae -->
<g id="edge33" class="edge"><title>dir_df3fc620228f2b84eb37c7f5a522f701&#45;&gt;dir_833350a745acf29e00c46ce65f7df7ae</title>
<path fill="none" stroke="black" d="M180.984,-72.937C165.762,-63.3231 146.551,-51.1904 130.058,-40.7737"/>
<polygon fill="black" stroke="black" points="131.541,-37.5708 121.218,-35.19 127.803,-43.4892 131.541,-37.5708"/>
<a xlink:href="dir_000024_000009.htm" target="_top" xlink:title="15">
<text text-anchor="middle" x="136.097" y="-34.5897" font-family="Helvetica,sans-Serif" font-size="10.00">15</text>
</a>
</g>
<!-- dir_df3fc620228f2b84eb37c7f5a522f701&#45;&gt;dir_023c91c44035a186c584180e65bb82b0 -->
<g id="edge35" class="edge"><title>dir_df3fc620228f2b84eb37c7f5a522f701&#45;&gt;dir_023c91c44035a186c584180e65bb82b0</title>
<path fill="none" stroke="black" d="M228.042,-108.413C235.125,-116.654 242.851,-126.525 249.319,-135.536"/>
<polygon fill="black" stroke="black" points="246.498,-137.61 255.074,-143.831 252.25,-133.62 246.498,-137.61"/>
<a xlink:href="dir_000024_000039.htm" target="_top" xlink:title="3">
<text text-anchor="middle" x="242.116" y="-133.774" font-family="Helvetica,sans-Serif" font-size="10.00">3</text>
</a>
</g>
<!-- dir_df3fc620228f2b84eb37c7f5a522f701&#45;&gt;dir_43608985bfc64723d35ec9abcf43881b -->
<g id="edge37" class="edge"><title>dir_df3fc620228f2b84eb37c7f5a522f701&#45;&gt;dir_43608985bfc64723d35ec9abcf43881b</title>
<path fill="none" stroke="black" d="M235.056,-97.0481C258.014,-105.223 289.556,-120.644 308,-144 321.968,-161.688 329.011,-186.395 331.136,-205.448"/>
<polygon fill="black" stroke="black" points="327.658,-205.904 331.828,-215.644 334.642,-205.43 327.658,-205.904"/>
<a xlink:href="dir_000024_000003.htm" target="_top" xlink:title="2">
<text text-anchor="middle" x="324.582" y="-200.01" font-family="Helvetica,sans-Serif" font-size="10.00">2</text>
</a>
</g>
<!-- dir_833350a745acf29e00c46ce65f7df7ae&#45;&gt;dir_c108e9adcb979d7ac671bad5e192b925 -->
<g id="edge39" class="edge"><title>dir_833350a745acf29e00c46ce65f7df7ae&#45;&gt;dir_c108e9adcb979d7ac671bad5e192b925</title>
<path fill="none" stroke="black" d="M92.5533,-36.1507C83.5707,-82.7523 54.8385,-208.065 114,-281 121.388,-290.108 147.005,-296.618 169.582,-300.846"/>
<polygon fill="black" stroke="black" points="169.209,-304.335 179.665,-302.63 170.428,-297.442 169.209,-304.335"/>
<a xlink:href="dir_000009_000008.htm" target="_top" xlink:title="2">
<text text-anchor="middle" x="165.175" y="-304.005" font-family="Helvetica,sans-Serif" font-size="10.00">2</text>
</a>
</g>
<!-- dir_023c91c44035a186c584180e65bb82b0&#45;&gt;dir_571ef98c50e1bcc1898cbefc078f6d6e -->
<g id="edge41" class="edge"><title>dir_023c91c44035a186c584180e65bb82b0&#45;&gt;dir_571ef98c50e1bcc1898cbefc078f6d6e</title>
<path fill="none" stroke="black" d="M237.658,-180.17C223.887,-188.305 206.872,-198.249 192,-208 190.564,-208.942 189.107,-209.921 187.639,-210.923"/>
<polygon fill="black" stroke="black" points="185.372,-208.236 179.162,-216.82 189.37,-213.982 185.372,-208.236"/>
<a xlink:href="dir_000039_000015.htm" target="_top" xlink:title="1">
<text text-anchor="middle" x="186.702" y="-201.353" font-family="Helvetica,sans-Serif" font-size="10.00">1</text>
</a>
</g>
<!-- dir_023c91c44035a186c584180e65bb82b0&#45;&gt;dir_c108e9adcb979d7ac671bad5e192b925 -->
<g id="edge43" class="edge"><title>dir_023c91c44035a186c584180e65bb82b0&#45;&gt;dir_c108e9adcb979d7ac671bad5e192b925</title>
<path fill="none" stroke="black" d="M263.755,-180.077C259.609,-201.986 247.381,-240.103 230.172,-279.718"/>
<polygon fill="black" stroke="black" points="226.913,-278.435 226.062,-288.995 233.313,-281.27 226.913,-278.435"/>
<a xlink:href="dir_000039_000008.htm" target="_top" xlink:title="24">
<text text-anchor="middle" x="225.773" y="-271.498" font-family="Helvetica,sans-Serif" font-size="10.00">24</text>
</a>
</g>
<!-- dir_023c91c44035a186c584180e65bb82b0&#45;&gt;dir_df3fc620228f2b84eb37c7f5a522f701 -->
<g id="edge45" class="edge"><title>dir_023c91c44035a186c584180e65bb82b0&#45;&gt;dir_df3fc620228f2b84eb37c7f5a522f701</title>
<path fill="none" stroke="black" d="M243.169,-143.831C236.099,-135.623 228.367,-125.761 221.873,-116.732"/>
<polygon fill="black" stroke="black" points="224.672,-114.626 216.09,-108.413 218.924,-118.622 224.672,-114.626"/>
<a xlink:href="dir_000039_000024.htm" target="_top" xlink:title="1">
<text text-anchor="middle" x="229.055" y="-113.457" font-family="Helvetica,sans-Serif" font-size="10.00">1</text>
</a>
</g>
<!-- dir_023c91c44035a186c584180e65bb82b0&#45;&gt;dir_833350a745acf29e00c46ce65f7df7ae -->
<g id="edge47" class="edge"><title>dir_023c91c44035a186c584180e65bb82b0&#45;&gt;dir_833350a745acf29e00c46ce65f7df7ae</title>
<path fill="none" stroke="black" d="M264.063,-143.862C264.232,-123.897 261.413,-91.9882 244,-72 215.496,-39.2808 165.646,-26.3842 131.285,-21.3023"/>
<polygon fill="black" stroke="black" points="131.533,-17.8046 121.16,-19.9628 130.615,-24.7442 131.533,-17.8046"/>
<a xlink:href="dir_000039_000009.htm" target="_top" xlink:title="5">
<text text-anchor="middle" x="135.469" y="-12.9613" font-family="Helvetica,sans-Serif" font-size="10.00">5</text>
</a>
</g>
<!-- dir_023c91c44035a186c584180e65bb82b0&#45;&gt;dir_43608985bfc64723d35ec9abcf43881b -->
<g id="edge49" class="edge"><title>dir_023c91c44035a186c584180e65bb82b0&#45;&gt;dir_43608985bfc64723d35ec9abcf43881b</title>
<path fill="none" stroke="black" d="M285.343,-180.413C293.54,-188.739 302.601,-198.728 310.246,-207.814"/>
<polygon fill="black" stroke="black" points="307.762,-210.306 316.802,-215.831 313.181,-205.875 307.762,-210.306"/>
<a xlink:href="dir_000039_000003.htm" target="_top" xlink:title="3">
<text text-anchor="middle" x="303.289" y="-206.821" font-family="Helvetica,sans-Serif" font-size="10.00">3</text>
</a>
</g>
<!-- dir_43608985bfc64723d35ec9abcf43881b&#45;&gt;dir_cc68e4bc0b6327b606269eccaa048ab0 -->
<g id="edge51" class="edge"><title>dir_43608985bfc64723d35ec9abcf43881b&#45;&gt;dir_cc68e4bc0b6327b606269eccaa048ab0</title>
<path fill="none" stroke="black" d="M311.856,-252.299C290.824,-277.713 252.653,-323.835 228.627,-352.867"/>
<polygon fill="black" stroke="black" points="225.635,-350.993 221.955,-360.929 231.028,-355.456 225.635,-350.993"/>
<a xlink:href="dir_000003_000045.htm" target="_top" xlink:title="4">
<text text-anchor="middle" x="225.739" y="-343.914" font-family="Helvetica,sans-Serif" font-size="10.00">4</text>
</a>
</g>
<!-- dir_43608985bfc64723d35ec9abcf43881b&#45;&gt;dir_c108e9adcb979d7ac671bad5e192b925 -->
<g id="edge53" class="edge"><title>dir_43608985bfc64723d35ec9abcf43881b&#45;&gt;dir_c108e9adcb979d7ac671bad5e192b925</title>
<path fill="none" stroke="black" d="M318.82,-252.392C310.678,-261.944 298.555,-273.215 286,-281 273.322,-288.862 257.898,-294.909 243.941,-299.184"/>
<polygon fill="black" stroke="black" points="242.758,-295.882 234.098,-301.985 244.674,-302.615 242.758,-295.882"/>
<a xlink:href="dir_000003_000008.htm" target="_top" xlink:title="77">
<text text-anchor="middle" x="245.439" y="-289.667" font-family="Helvetica,sans-Serif" font-size="10.00">77</text>
</a>
</g>
<!-- dir_43608985bfc64723d35ec9abcf43881b&#45;&gt;dir_df3fc620228f2b84eb37c7f5a522f701 -->
<g id="edge55" class="edge"><title>dir_43608985bfc64723d35ec9abcf43881b&#45;&gt;dir_df3fc620228f2b84eb37c7f5a522f701</title>
<path fill="none" stroke="black" d="M318.561,-215.644C313.445,-196.074 306.632,-165.061 290,-144 277.913,-128.694 260.201,-116.796 244.25,-108.112"/>
<polygon fill="black" stroke="black" points="245.605,-104.872 235.117,-103.368 242.378,-111.084 245.605,-104.872"/>
<a xlink:href="dir_000003_000024.htm" target="_top" xlink:title="2">
<text text-anchor="middle" x="250.104" y="-101.509" font-family="Helvetica,sans-Serif" font-size="10.00">2</text>
</a>
</g>
<!-- dir_43608985bfc64723d35ec9abcf43881b&#45;&gt;dir_833350a745acf29e00c46ce65f7df7ae -->
<g id="edge57" class="edge"><title>dir_43608985bfc64723d35ec9abcf43881b&#45;&gt;dir_833350a745acf29e00c46ce65f7df7ae</title>
<path fill="none" stroke="black" d="M331.941,-215.741C336.06,-197.066 339.949,-167.537 331,-144 315.785,-103.98 302.968,-95.2249 267,-72 224.899,-44.815 168.218,-30.5542 131.396,-23.6587"/>
<polygon fill="black" stroke="black" points="131.565,-20.1336 121.106,-21.8266 130.338,-27.0253 131.565,-20.1336"/>
<a xlink:href="dir_000003_000009.htm" target="_top" xlink:title="15">
<text text-anchor="middle" x="135.601" y="-15.4683" font-family="Helvetica,sans-Serif" font-size="10.00">15</text>
</a>
</g>
<!-- dir_43608985bfc64723d35ec9abcf43881b&#45;&gt;dir_023c91c44035a186c584180e65bb82b0 -->
<g id="edge59" class="edge"><title>dir_43608985bfc64723d35ec9abcf43881b&#45;&gt;dir_023c91c44035a186c584180e65bb82b0</title>
<path fill="none" stroke="black" d="M304.898,-215.831C296.635,-207.454 287.467,-197.353 279.745,-188.175"/>
<polygon fill="black" stroke="black" points="282.434,-185.934 273.391,-180.413 277.018,-190.368 282.434,-185.934"/>
<a xlink:href="dir_000003_000039.htm" target="_top" xlink:title="10">
<text text-anchor="middle" x="286.908" y="-184.417" font-family="Helvetica,sans-Serif" font-size="10.00">10</text>
</a>
</g>
</g>
</svg>
