<?xml version="1.0" encoding="UTF-8" standalone="no"?>
<!DOCTYPE svg PUBLIC "-//W3C//DTD SVG 1.1//EN"
 "http://www.w3.org/Graphics/SVG/1.1/DTD/svg11.dtd">
<!-- Generated by graphviz version 2.26.3 (20100126.1600)
 -->
<!-- Title: G Pages: 1 -->
<svg width="278pt" height="305pt"
 viewBox="0.00 0.00 278.05 305.00" xmlns="http://www.w3.org/2000/svg" xmlns:xlink="http://www.w3.org/1999/xlink">
<g id="graph1" class="graph" transform="scale(1 1) rotate(0) translate(4 301)">
<title>G</title>
<polygon fill="white" stroke="white" points="-4,5 -4,-301 275.045,-301 275.045,5 -4,5"/>
<g id="graph2" class="cluster"><title>clusterdir_2379609c2cf538e59e9646141f42f407</title>
<a xlink:href="dir_2379609c2cf538e59e9646141f42f407.htm" target="_top" xlink:title="Src">
<polygon fill="#ddddee" stroke="black" points="8,-128 8,-289 124,-289 124,-128 8,-128"/>
<text text-anchor="middle" x="66" y="-276" font-family="Helvetica,sans-Serif" font-size="10.00">Src</text>
</a>
</g>
<g id="graph3" class="cluster"><title>clusterdir_c0aa0a1d2cd73f9e06de2fcae29b2a13</title>
<a xlink:href="dir_c0aa0a1d2cd73f9e06de2fcae29b2a13.htm" target="_top">
<polygon fill="#eeeeff" stroke="black" points="16,-136 16,-260 116,-260 116,-136 16,-136"/>
</a>
</g>
<!-- dir_c0aa0a1d2cd73f9e06de2fcae29b2a13 -->
<g id="node3" class="node"><title>dir_c0aa0a1d2cd73f9e06de2fcae29b2a13</title>
<text text-anchor="middle" x="73" y="-231.5" font-family="Helvetica,sans-Serif" font-size="10.00">ime</text>
</g>
<!-- dir_5a288420f8dd8fd76e89d0735ba25cc4 -->
<g id="node4" class="node"><title>dir_5a288420f8dd8fd76e89d0735ba25cc4</title>
<a xlink:href="dir_5a288420f8dd8fd76e89d0735ba25cc4.htm" target="_top" xlink:title="tabletkeymaps">
<polygon fill="white" stroke="black" points="108,-180 24,-180 24,-144 108,-144 108,-180"/>
<text text-anchor="middle" x="66" y="-159.5" font-family="Helvetica,sans-Serif" font-size="10.00">tabletkeymaps</text>
</a>
</g>
<!-- dir_c0aa0a1d2cd73f9e06de2fcae29b2a13&#45;&gt;dir_5a288420f8dd8fd76e89d0735ba25cc4 -->
<g id="edge26" class="edge"><title>dir_c0aa0a1d2cd73f9e06de2fcae29b2a13&#45;&gt;dir_5a288420f8dd8fd76e89d0735ba25cc4</title>
<path fill="none" stroke="black" d="M71.2336,-215.831C70.485,-208.131 69.5947,-198.974 68.7627,-190.417"/>
<polygon fill="black" stroke="black" points="72.2415,-190.028 67.7902,-180.413 65.2744,-190.705 72.2415,-190.028"/>
<a xlink:href="dir_000016_000021.htm" target="_top" xlink:title="8">
<text text-anchor="middle" x="75.4152" y="-190.831" font-family="Helvetica,sans-Serif" font-size="10.00">8</text>
</a>
</g>
<!-- dir_cc68e4bc0b6327b606269eccaa048ab0 -->
<g id="node5" class="node"><title>dir_cc68e4bc0b6327b606269eccaa048ab0</title>
<a xlink:href="dir_cc68e4bc0b6327b606269eccaa048ab0.htm" target="_top" xlink:title="sound">
<polygon fill="none" stroke="black" points="256,-252 202,-252 202,-216 256,-216 256,-252"/>
<text text-anchor="middle" x="229" y="-231.5" font-family="Helvetica,sans-Serif" font-size="10.00">sound</text>
</a>
</g>
<!-- dir_c0aa0a1d2cd73f9e06de2fcae29b2a13&#45;&gt;dir_cc68e4bc0b6327b606269eccaa048ab0 -->
<g id="edge24" class="edge"><title>dir_c0aa0a1d2cd73f9e06de2fcae29b2a13&#45;&gt;dir_cc68e4bc0b6327b606269eccaa048ab0</title>
<path fill="none" stroke="black" d="M100.117,-234C130.573,-234 161.029,-234 191.485,-234"/>
<polygon fill="black" stroke="black" points="191.814,-237.5 201.814,-234 191.814,-230.5 191.814,-237.5"/>
<a xlink:href="dir_000016_000045.htm" target="_top" xlink:title="1">
<text text-anchor="middle" x="188.219" y="-237.839" font-family="Helvetica,sans-Serif" font-size="10.00">1</text>
</a>
</g>
<!-- dir_c108e9adcb979d7ac671bad5e192b925 -->
<g id="node6" class="node"><title>dir_c108e9adcb979d7ac671bad5e192b925</title>
<a xlink:href="dir_c108e9adcb979d7ac671bad5e192b925.htm" target="_top" xlink:title="base">
<polygon fill="white" stroke="red" points="256,-180 202,-180 202,-144 256,-144 256,-180"/>
<text text-anchor="middle" x="229" y="-159.5" font-family="Helvetica,sans-Serif" font-size="10.00">base</text>
</a>
</g>
<!-- dir_c0aa0a1d2cd73f9e06de2fcae29b2a13&#45;&gt;dir_c108e9adcb979d7ac671bad5e192b925 -->
<g id="edge28" class="edge"><title>dir_c0aa0a1d2cd73f9e06de2fcae29b2a13&#45;&gt;dir_c108e9adcb979d7ac671bad5e192b925</title>
<path fill="none" stroke="black" d="M94.6661,-216.169C94.7776,-216.112 94.8889,-216.056 95,-216 126.961,-199.888 164.84,-183.946 192.32,-173.608"/>
<polygon fill="black" stroke="black" points="193.769,-176.804 201.943,-170.063 191.349,-170.236 193.769,-176.804"/>
<a xlink:href="dir_000016_000008.htm" target="_top" xlink:title="47">
<text text-anchor="middle" x="191.378" y="-178.211" font-family="Helvetica,sans-Serif" font-size="10.00">47</text>
</a>
</g>
<!-- dir_aafe48f257c75c61a4124f498f9cedbe -->
<g id="node7" class="node"><title>dir_aafe48f257c75c61a4124f498f9cedbe</title>
<a xlink:href="dir_aafe48f257c75c61a4124f498f9cedbe.htm" target="_top" xlink:title="lunaui">
<polygon fill="white" stroke="red" points="196,-108 142,-108 142,-72 196,-72 196,-108"/>
<text text-anchor="middle" x="169" y="-87.5" font-family="Helvetica,sans-Serif" font-size="10.00">lunaui</text>
</a>
</g>
<!-- dir_c0aa0a1d2cd73f9e06de2fcae29b2a13&#45;&gt;dir_aafe48f257c75c61a4124f498f9cedbe -->
<g id="edge30" class="edge"><title>dir_c0aa0a1d2cd73f9e06de2fcae29b2a13&#45;&gt;dir_aafe48f257c75c61a4124f498f9cedbe</title>
<path fill="none" stroke="black" d="M89.2399,-215.58C97.8965,-205.399 108.486,-192.344 117,-180 131.047,-159.634 144.963,-135.269 154.859,-117.029"/>
<polygon fill="black" stroke="black" points="158.004,-118.57 159.647,-108.103 151.836,-115.261 158.004,-118.57"/>
<a xlink:href="dir_000016_000002.htm" target="_top" xlink:title="2">
<text text-anchor="middle" x="158.807" y="-120.579" font-family="Helvetica,sans-Serif" font-size="10.00">2</text>
</a>
</g>
<!-- dir_833350a745acf29e00c46ce65f7df7ae -->
<g id="node8" class="node"><title>dir_833350a745acf29e00c46ce65f7df7ae</title>
<a xlink:href="dir_833350a745acf29e00c46ce65f7df7ae.htm" target="_top" xlink:title="core">
<polygon fill="none" stroke="black" points="260,-36 206,-36 206,-1.77636e-14 260,-3.55271e-15 260,-36"/>
<text text-anchor="middle" x="233" y="-15.5" font-family="Helvetica,sans-Serif" font-size="10.00">core</text>
</a>
</g>
<!-- dir_c0aa0a1d2cd73f9e06de2fcae29b2a13&#45;&gt;dir_833350a745acf29e00c46ce65f7df7ae -->
<g id="edge32" class="edge"><title>dir_c0aa0a1d2cd73f9e06de2fcae29b2a13&#45;&gt;dir_833350a745acf29e00c46ce65f7df7ae</title>
<path fill="none" stroke="black" d="M45.953,-216.582C34.0915,-207.307 21.4245,-194.759 15,-180 5.77607,-158.809 2.8858,-147.682 15,-128 54.6025,-63.6586 144.721,-35.5903 195.825,-24.474"/>
<polygon fill="black" stroke="black" points="196.718,-27.8635 205.803,-22.4115 195.301,-21.0084 196.718,-27.8635"/>
<a xlink:href="dir_000016_000009.htm" target="_top" xlink:title="3">
<text text-anchor="middle" x="193.773" y="-28.8715" font-family="Helvetica,sans-Serif" font-size="10.00">3</text>
</a>
</g>
<!-- dir_cc68e4bc0b6327b606269eccaa048ab0&#45;&gt;dir_c108e9adcb979d7ac671bad5e192b925 -->
<g id="edge4" class="edge"><title>dir_cc68e4bc0b6327b606269eccaa048ab0&#45;&gt;dir_c108e9adcb979d7ac671bad5e192b925</title>
<path fill="none" stroke="black" d="M223.048,-215.831C222.297,-208.131 222.076,-198.974 222.385,-190.417"/>
<polygon fill="black" stroke="black" points="225.879,-190.616 223.024,-180.413 218.893,-190.17 225.879,-190.616"/>
<a xlink:href="dir_000045_000008.htm" target="_top" xlink:title="6">
<text text-anchor="middle" x="228.484" y="-191.884" font-family="Helvetica,sans-Serif" font-size="10.00">6</text>
</a>
</g>
<!-- dir_cc68e4bc0b6327b606269eccaa048ab0&#45;&gt;dir_833350a745acf29e00c46ce65f7df7ae -->
<g id="edge6" class="edge"><title>dir_cc68e4bc0b6327b606269eccaa048ab0&#45;&gt;dir_833350a745acf29e00c46ce65f7df7ae</title>
<path fill="none" stroke="black" d="M244.99,-215.917C252.654,-206.037 261.017,-193.156 265,-180 279.004,-133.749 260.692,-78.1703 246.55,-45.5996"/>
<polygon fill="black" stroke="black" points="249.641,-43.9393 242.335,-36.2659 243.261,-46.8202 249.641,-43.9393"/>
<a xlink:href="dir_000045_000009.htm" target="_top" xlink:title="5">
<text text-anchor="middle" x="253.708" y="-43.5469" font-family="Helvetica,sans-Serif" font-size="10.00">5</text>
</a>
</g>
<!-- dir_c108e9adcb979d7ac671bad5e192b925&#45;&gt;dir_c0aa0a1d2cd73f9e06de2fcae29b2a13 -->
<g id="edge14" class="edge"><title>dir_c108e9adcb979d7ac671bad5e192b925&#45;&gt;dir_c0aa0a1d2cd73f9e06de2fcae29b2a13</title>
<path fill="none" stroke="black" d="M201.757,-175.708C177.909,-186.033 142.87,-200.943 113,-216 111.715,-216.648 110.409,-217.325 109.09,-218.022"/>
<polygon fill="black" stroke="black" points="107.408,-214.953 100.274,-222.786 110.735,-221.111 107.408,-214.953"/>
<a xlink:href="dir_000008_000016.htm" target="_top" xlink:title="8">
<text text-anchor="middle" x="109.221" y="-208.246" font-family="Helvetica,sans-Serif" font-size="10.00">8</text>
</a>
</g>
<!-- dir_c108e9adcb979d7ac671bad5e192b925&#45;&gt;dir_cc68e4bc0b6327b606269eccaa048ab0 -->
<g id="edge8" class="edge"><title>dir_c108e9adcb979d7ac671bad5e192b925&#45;&gt;dir_cc68e4bc0b6327b606269eccaa048ab0</title>
<path fill="none" stroke="black" d="M234.976,-180.413C235.707,-188.059 235.92,-197.108 235.615,-205.573"/>
<polygon fill="black" stroke="black" points="232.105,-205.626 234.952,-215.831 239.09,-206.078 232.105,-205.626"/>
<a xlink:href="dir_000008_000045.htm" target="_top" xlink:title="2">
<text text-anchor="middle" x="229.503" y="-199.356" font-family="Helvetica,sans-Serif" font-size="10.00">2</text>
</a>
</g>
<!-- dir_c108e9adcb979d7ac671bad5e192b925&#45;&gt;dir_aafe48f257c75c61a4124f498f9cedbe -->
<g id="edge10" class="edge"><title>dir_c108e9adcb979d7ac671bad5e192b925&#45;&gt;dir_aafe48f257c75c61a4124f498f9cedbe</title>
<path fill="none" stroke="black" d="M207.907,-143.831C200.188,-135.539 191.676,-125.557 184.51,-116.453"/>
<polygon fill="black" stroke="black" points="187.22,-114.235 178.368,-108.413 181.657,-118.485 187.22,-114.235"/>
<a xlink:href="dir_000008_000002.htm" target="_top" xlink:title="18">
<text text-anchor="middle" x="191.658" y="-112.868" font-family="Helvetica,sans-Serif" font-size="10.00">18</text>
</a>
</g>
<!-- dir_c108e9adcb979d7ac671bad5e192b925&#45;&gt;dir_833350a745acf29e00c46ce65f7df7ae -->
<g id="edge12" class="edge"><title>dir_c108e9adcb979d7ac671bad5e192b925&#45;&gt;dir_833350a745acf29e00c46ce65f7df7ae</title>
<path fill="none" stroke="black" d="M224.833,-143.762C223.056,-119.201 224.002,-75.2474 226.715,-46.3541"/>
<polygon fill="black" stroke="black" points="230.23,-46.4113 227.839,-36.0896 223.271,-45.6491 230.23,-46.4113"/>
<a xlink:href="dir_000008_000009.htm" target="_top" xlink:title="60">
<text text-anchor="middle" x="232.661" y="-47.7936" font-family="Helvetica,sans-Serif" font-size="10.00">60</text>
</a>
</g>
<!-- dir_aafe48f257c75c61a4124f498f9cedbe&#45;&gt;dir_cc68e4bc0b6327b606269eccaa048ab0 -->
<g id="edge16" class="edge"><title>dir_aafe48f257c75c61a4124f498f9cedbe&#45;&gt;dir_cc68e4bc0b6327b606269eccaa048ab0</title>
<path fill="none" stroke="black" d="M172.034,-108.181C175.552,-126.793 182.282,-156.273 193,-180 197.269,-189.45 203.121,-199.084 208.866,-207.549"/>
<polygon fill="black" stroke="black" points="206.123,-209.732 214.744,-215.89 211.845,-205.7 206.123,-209.732"/>
<a xlink:href="dir_000002_000045.htm" target="_top" xlink:title="9">
<text text-anchor="middle" x="201.732" y="-205.929" font-family="Helvetica,sans-Serif" font-size="10.00">9</text>
</a>
</g>
<!-- dir_aafe48f257c75c61a4124f498f9cedbe&#45;&gt;dir_c108e9adcb979d7ac671bad5e192b925 -->
<g id="edge18" class="edge"><title>dir_aafe48f257c75c61a4124f498f9cedbe&#45;&gt;dir_c108e9adcb979d7ac671bad5e192b925</title>
<path fill="none" stroke="black" d="M190.32,-108.413C198.055,-116.739 206.561,-126.728 213.701,-135.814"/>
<polygon fill="black" stroke="black" points="210.966,-138 219.812,-143.831 216.533,-133.757 210.966,-138"/>
<a xlink:href="dir_000002_000008.htm" target="_top" xlink:title="411">
<text text-anchor="middle" x="206.529" y="-134.363" font-family="Helvetica,sans-Serif" font-size="10.00">411</text>
</a>
</g>
<!-- dir_aafe48f257c75c61a4124f498f9cedbe&#45;&gt;dir_833350a745acf29e00c46ce65f7df7ae -->
<g id="edge20" class="edge"><title>dir_aafe48f257c75c61a4124f498f9cedbe&#45;&gt;dir_833350a745acf29e00c46ce65f7df7ae</title>
<path fill="none" stroke="black" d="M185.15,-71.8314C192.672,-63.3694 201.757,-53.1489 209.98,-43.8971"/>
<polygon fill="black" stroke="black" points="212.605,-46.2127 216.633,-36.4133 207.373,-41.5621 212.605,-46.2127"/>
<a xlink:href="dir_000002_000009.htm" target="_top" xlink:title="72">
<text text-anchor="middle" x="212.339" y="-48.2856" font-family="Helvetica,sans-Serif" font-size="10.00">72</text>
</a>
</g>
<!-- dir_833350a745acf29e00c46ce65f7df7ae&#45;&gt;dir_c108e9adcb979d7ac671bad5e192b925 -->
<g id="edge22" class="edge"><title>dir_833350a745acf29e00c46ce65f7df7ae&#45;&gt;dir_c108e9adcb979d7ac671bad5e192b925</title>
<path fill="none" stroke="black" d="M237.156,-36.0896C238.944,-60.5727 238.007,-104.517 235.301,-133.471"/>
<polygon fill="black" stroke="black" points="231.784,-133.442 234.18,-143.762 238.743,-134.2 231.784,-133.442"/>
<a xlink:href="dir_000009_000008.htm" target="_top" xlink:title="2">
<text text-anchor="middle" x="229.351" y="-127.061" font-family="Helvetica,sans-Serif" font-size="10.00">2</text>
</a>
</g>
</g>
</svg>
