<?xml version="1.0" encoding="UTF-8" standalone="no"?>
<!DOCTYPE svg PUBLIC "-//W3C//DTD SVG 1.1//EN"
 "http://www.w3.org/Graphics/SVG/1.1/DTD/svg11.dtd">
<!-- Generated by graphviz version 2.26.3 (20100126.1600)
 -->
<!-- Title: G Pages: 1 -->
<svg width="481pt" height="377pt"
 viewBox="0.00 0.00 481.27 377.00" xmlns="http://www.w3.org/2000/svg" xmlns:xlink="http://www.w3.org/1999/xlink">
<g id="graph1" class="graph" transform="scale(1 1) rotate(0) translate(4 373)">
<title>G</title>
<polygon fill="white" stroke="white" points="-4,5 -4,-373 478.265,-373 478.265,5 -4,5"/>
<g id="graph2" class="cluster"><title>clusterdir_464952543f64026c6bd6d8785fc45163</title>
<a xlink:href="dir_464952543f64026c6bd6d8785fc45163.htm" target="_top" xlink:title="cards">
<polygon fill="#ddddee" stroke="black" points="8,-200 8,-361 128,-361 128,-200 8,-200"/>
<text text-anchor="middle" x="68" y="-348" font-family="Helvetica,sans-Serif" font-size="10.00">cards</text>
</a>
</g>
<g id="graph3" class="cluster"><title>clusterdir_dc164906359dd4b4b9959f9d55384685</title>
<a xlink:href="dir_dc164906359dd4b4b9959f9d55384685.htm" target="_top">
<polygon fill="#eeeeff" stroke="black" points="16,-208 16,-332 120,-332 120,-208 16,-208"/>
</a>
</g>
<!-- dir_dc164906359dd4b4b9959f9d55384685 -->
<g id="node3" class="node"><title>dir_dc164906359dd4b4b9959f9d55384685</title>
<text text-anchor="middle" x="81" y="-303.5" font-family="Helvetica,sans-Serif" font-size="10.00">emulation</text>
</g>
<!-- dir_38a1dac29c1e8d286da43ca1e0c5bf3c -->
<g id="node4" class="node"><title>dir_38a1dac29c1e8d286da43ca1e0c5bf3c</title>
<a xlink:href="dir_38a1dac29c1e8d286da43ca1e0c5bf3c.htm" target="_top" xlink:title="virtual&#45;corenavi">
<polygon fill="white" stroke="black" points="112,-252 24,-252 24,-216 112,-216 112,-252"/>
<text text-anchor="middle" x="68" y="-231.5" font-family="Helvetica,sans-Serif" font-size="10.00">virtual&#45;corenavi</text>
</a>
</g>
<!-- dir_dc164906359dd4b4b9959f9d55384685&#45;&gt;dir_38a1dac29c1e8d286da43ca1e0c5bf3c -->
<g id="edge36" class="edge"><title>dir_dc164906359dd4b4b9959f9d55384685&#45;&gt;dir_38a1dac29c1e8d286da43ca1e0c5bf3c</title>
<path fill="none" stroke="black" d="M77.7196,-287.831C76.3292,-280.131 74.6759,-270.974 73.1308,-262.417"/>
<polygon fill="black" stroke="black" points="76.5458,-261.632 71.3246,-252.413 69.6572,-262.876 76.5458,-261.632"/>
<a xlink:href="dir_000026_000031.htm" target="_top" xlink:title="1">
<text text-anchor="middle" x="79.9785" y="-262.165" font-family="Helvetica,sans-Serif" font-size="10.00">1</text>
</a>
</g>
<!-- dir_571ef98c50e1bcc1898cbefc078f6d6e -->
<g id="node5" class="node"><title>dir_571ef98c50e1bcc1898cbefc078f6d6e</title>
<a xlink:href="dir_571ef98c50e1bcc1898cbefc078f6d6e.htm" target="_top" xlink:title="status&#45;bar">
<polygon fill="none" stroke="black" points="428,-324 366,-324 366,-288 428,-288 428,-324"/>
<text text-anchor="middle" x="397" y="-303.5" font-family="Helvetica,sans-Serif" font-size="10.00">status&#45;bar</text>
</a>
</g>
<!-- dir_dc164906359dd4b4b9959f9d55384685&#45;&gt;dir_571ef98c50e1bcc1898cbefc078f6d6e -->
<g id="edge28" class="edge"><title>dir_dc164906359dd4b4b9959f9d55384685&#45;&gt;dir_571ef98c50e1bcc1898cbefc078f6d6e</title>
<path fill="none" stroke="black" d="M112.168,-306C193.259,-306 274.35,-306 355.442,-306"/>
<polygon fill="black" stroke="black" points="355.847,-309.5 365.846,-306 355.846,-302.5 355.847,-309.5"/>
<a xlink:href="dir_000026_000015.htm" target="_top" xlink:title="1">
<text text-anchor="middle" x="352.252" y="-309.839" font-family="Helvetica,sans-Serif" font-size="10.00">1</text>
</a>
</g>
<!-- dir_c108e9adcb979d7ac671bad5e192b925 -->
<g id="node7" class="node"><title>dir_c108e9adcb979d7ac671bad5e192b925</title>
<a xlink:href="dir_c108e9adcb979d7ac671bad5e192b925.htm" target="_top" xlink:title="base">
<polygon fill="white" stroke="red" points="278,-180 224,-180 224,-144 278,-144 278,-180"/>
<text text-anchor="middle" x="251" y="-159.5" font-family="Helvetica,sans-Serif" font-size="10.00">base</text>
</a>
</g>
<!-- dir_dc164906359dd4b4b9959f9d55384685&#45;&gt;dir_c108e9adcb979d7ac671bad5e192b925 -->
<g id="edge30" class="edge"><title>dir_dc164906359dd4b4b9959f9d55384685&#45;&gt;dir_c108e9adcb979d7ac671bad5e192b925</title>
<path fill="none" stroke="black" d="M109.625,-287.83C123.789,-278.119 140.663,-265.415 154,-252 174.182,-231.701 171.172,-219.636 192,-200 198.966,-193.433 207.214,-187.317 215.302,-181.994"/>
<polygon fill="black" stroke="black" points="217.352,-184.839 223.945,-176.545 213.619,-178.917 217.352,-184.839"/>
<a xlink:href="dir_000026_000008.htm" target="_top" xlink:title="12">
<text text-anchor="middle" x="215.825" y="-186.657" font-family="Helvetica,sans-Serif" font-size="10.00">12</text>
</a>
</g>
<!-- dir_833350a745acf29e00c46ce65f7df7ae -->
<g id="node8" class="node"><title>dir_833350a745acf29e00c46ce65f7df7ae</title>
<a xlink:href="dir_833350a745acf29e00c46ce65f7df7ae.htm" target="_top" xlink:title="core">
<polygon fill="none" stroke="black" points="324,-36 270,-36 270,-1.77636e-14 324,-3.55271e-15 324,-36"/>
<text text-anchor="middle" x="297" y="-15.5" font-family="Helvetica,sans-Serif" font-size="10.00">core</text>
</a>
</g>
<!-- dir_dc164906359dd4b4b9959f9d55384685&#45;&gt;dir_833350a745acf29e00c46ce65f7df7ae -->
<g id="edge32" class="edge"><title>dir_dc164906359dd4b4b9959f9d55384685&#45;&gt;dir_833350a745acf29e00c46ce65f7df7ae</title>
<path fill="none" stroke="black" d="M49.9713,-289.138C36.595,-280.062 22.3543,-267.519 15,-252 5.10312,-231.115 5.53239,-221.083 15,-200 60.4296,-98.8353 194.17,-47.499 259.807,-27.8159"/>
<polygon fill="black" stroke="black" points="261.11,-31.082 269.733,-24.9258 259.153,-24.3611 261.11,-31.082"/>
<a xlink:href="dir_000026_000009.htm" target="_top" xlink:title="6">
<text text-anchor="middle" x="258.452" y="-32.3129" font-family="Helvetica,sans-Serif" font-size="10.00">6</text>
</a>
</g>
<!-- dir_023c91c44035a186c584180e65bb82b0 -->
<g id="node9" class="node"><title>dir_023c91c44035a186c584180e65bb82b0</title>
<a xlink:href="dir_023c91c44035a186c584180e65bb82b0.htm" target="_top" xlink:title="remote">
<polygon fill="none" stroke="black" points="426,-108 372,-108 372,-72 426,-72 426,-108"/>
<text text-anchor="middle" x="399" y="-87.5" font-family="Helvetica,sans-Serif" font-size="10.00">remote</text>
</a>
</g>
<!-- dir_dc164906359dd4b4b9959f9d55384685&#45;&gt;dir_023c91c44035a186c584180e65bb82b0 -->
<g id="edge34" class="edge"><title>dir_dc164906359dd4b4b9959f9d55384685&#45;&gt;dir_023c91c44035a186c584180e65bb82b0</title>
<path fill="none" stroke="black" d="M112.065,-289.347C113.38,-288.858 114.695,-288.406 116,-288 175.906,-269.374 354.131,-298.718 396,-252 428.722,-215.489 418.278,-153.6 408.278,-117.815"/>
<polygon fill="black" stroke="black" points="411.574,-116.619 405.371,-108.03 404.864,-118.612 411.574,-116.619"/>
<a xlink:href="dir_000026_000039.htm" target="_top" xlink:title="1">
<text text-anchor="middle" x="415.319" y="-116.757" font-family="Helvetica,sans-Serif" font-size="10.00">1</text>
</a>
</g>
<!-- dir_c0aa0a1d2cd73f9e06de2fcae29b2a13 -->
<g id="node10" class="node"><title>dir_c0aa0a1d2cd73f9e06de2fcae29b2a13</title>
<a xlink:href="dir_c0aa0a1d2cd73f9e06de2fcae29b2a13.htm" target="_top" xlink:title="ime">
<polygon fill="white" stroke="red" points="260,-108 206,-108 206,-72 260,-72 260,-108"/>
<text text-anchor="middle" x="233" y="-87.5" font-family="Helvetica,sans-Serif" font-size="10.00">ime</text>
</a>
</g>
<!-- dir_dc164906359dd4b4b9959f9d55384685&#45;&gt;dir_c0aa0a1d2cd73f9e06de2fcae29b2a13 -->
<g id="edge38" class="edge"><title>dir_dc164906359dd4b4b9959f9d55384685&#45;&gt;dir_c0aa0a1d2cd73f9e06de2fcae29b2a13</title>
<path fill="none" stroke="black" d="M95.0331,-287.744C102.861,-277.391 112.681,-264.12 121,-252 136.49,-229.432 138.677,-222.681 154,-200 173.637,-170.933 197.218,-138.385 213.476,-116.286"/>
<polygon fill="black" stroke="black" points="216.416,-118.195 219.537,-108.07 210.783,-114.039 216.416,-118.195"/>
<a xlink:href="dir_000026_000016.htm" target="_top" xlink:title="1">
<text text-anchor="middle" x="216.567" y="-120.273" font-family="Helvetica,sans-Serif" font-size="10.00">1</text>
</a>
</g>
<!-- dir_cc68e4bc0b6327b606269eccaa048ab0 -->
<g id="node6" class="node"><title>dir_cc68e4bc0b6327b606269eccaa048ab0</title>
<a xlink:href="dir_cc68e4bc0b6327b606269eccaa048ab0.htm" target="_top" xlink:title="sound">
<polygon fill="none" stroke="black" points="354,-252 300,-252 300,-216 354,-216 354,-252"/>
<text text-anchor="middle" x="327" y="-231.5" font-family="Helvetica,sans-Serif" font-size="10.00">sound</text>
</a>
</g>
<!-- dir_38a1dac29c1e8d286da43ca1e0c5bf3c&#45;&gt;dir_cc68e4bc0b6327b606269eccaa048ab0 -->
<g id="edge50" class="edge"><title>dir_38a1dac29c1e8d286da43ca1e0c5bf3c&#45;&gt;dir_cc68e4bc0b6327b606269eccaa048ab0</title>
<path fill="none" stroke="black" d="M112.01,-234C171.154,-234 230.298,-234 289.442,-234"/>
<polygon fill="black" stroke="black" points="289.706,-237.5 299.706,-234 289.706,-230.5 289.706,-237.5"/>
<a xlink:href="dir_000031_000045.htm" target="_top" xlink:title="1">
<text text-anchor="middle" x="286.112" y="-237.839" font-family="Helvetica,sans-Serif" font-size="10.00">1</text>
</a>
</g>
<!-- dir_38a1dac29c1e8d286da43ca1e0c5bf3c&#45;&gt;dir_c108e9adcb979d7ac671bad5e192b925 -->
<g id="edge52" class="edge"><title>dir_38a1dac29c1e8d286da43ca1e0c5bf3c&#45;&gt;dir_c108e9adcb979d7ac671bad5e192b925</title>
<path fill="none" stroke="black" d="M90.4444,-215.707C98.1907,-210.06 107.153,-204.223 116,-200 147.467,-184.98 185.974,-174.873 213.797,-168.883"/>
<polygon fill="black" stroke="black" points="214.82,-172.245 223.901,-166.787 213.398,-165.391 214.82,-172.245"/>
<a xlink:href="dir_000031_000008.htm" target="_top" xlink:title="4">
<text text-anchor="middle" x="211.877" y="-173.255" font-family="Helvetica,sans-Serif" font-size="10.00">4</text>
</a>
</g>
<!-- dir_38a1dac29c1e8d286da43ca1e0c5bf3c&#45;&gt;dir_833350a745acf29e00c46ce65f7df7ae -->
<g id="edge54" class="edge"><title>dir_38a1dac29c1e8d286da43ca1e0c5bf3c&#45;&gt;dir_833350a745acf29e00c46ce65f7df7ae</title>
<path fill="none" stroke="black" d="M78.855,-215.99C98.9277,-183.839 144.61,-115.835 197,-72 216.073,-56.0417 240.605,-42.7077 260.597,-33.2822"/>
<polygon fill="black" stroke="black" points="262.082,-36.4517 269.715,-29.1032 259.166,-30.0882 262.082,-36.4517"/>
<a xlink:href="dir_000031_000009.htm" target="_top" xlink:title="4">
<text text-anchor="middle" x="259.998" y="-38.0304" font-family="Helvetica,sans-Serif" font-size="10.00">4</text>
</a>
</g>
<!-- dir_571ef98c50e1bcc1898cbefc078f6d6e&#45;&gt;dir_cc68e4bc0b6327b606269eccaa048ab0 -->
<g id="edge4" class="edge"><title>dir_571ef98c50e1bcc1898cbefc078f6d6e&#45;&gt;dir_cc68e4bc0b6327b606269eccaa048ab0</title>
<path fill="none" stroke="black" d="M379.336,-287.831C371.027,-279.285 360.974,-268.944 351.908,-259.62"/>
<polygon fill="black" stroke="black" points="354.382,-257.143 344.902,-252.413 349.363,-262.023 354.382,-257.143"/>
<a xlink:href="dir_000015_000045.htm" target="_top" xlink:title="2">
<text text-anchor="middle" x="358.924" y="-255.242" font-family="Helvetica,sans-Serif" font-size="10.00">2</text>
</a>
</g>
<!-- dir_571ef98c50e1bcc1898cbefc078f6d6e&#45;&gt;dir_c108e9adcb979d7ac671bad5e192b925 -->
<g id="edge6" class="edge"><title>dir_571ef98c50e1bcc1898cbefc078f6d6e&#45;&gt;dir_c108e9adcb979d7ac671bad5e192b925</title>
<path fill="none" stroke="black" d="M365.767,-298.879C340.015,-290.887 304.598,-275.827 282,-252 265.619,-234.728 255.225,-209.625 250.598,-190.316"/>
<polygon fill="black" stroke="black" points="253.987,-189.407 248.62,-180.272 247.119,-190.76 253.987,-189.407"/>
<a xlink:href="dir_000015_000008.htm" target="_top" xlink:title="60">
<text text-anchor="middle" x="257.467" y="-189.885" font-family="Helvetica,sans-Serif" font-size="10.00">60</text>
</a>
</g>
<!-- dir_571ef98c50e1bcc1898cbefc078f6d6e&#45;&gt;dir_833350a745acf29e00c46ce65f7df7ae -->
<g id="edge8" class="edge"><title>dir_571ef98c50e1bcc1898cbefc078f6d6e&#45;&gt;dir_833350a745acf29e00c46ce65f7df7ae</title>
<path fill="none" stroke="black" d="M428.252,-288.563C441.228,-279.505 454.895,-267.14 462,-252 482.393,-208.545 469.698,-191.208 461,-144 454.835,-110.541 458.737,-96.3736 435,-72 407.907,-44.1809 364.789,-30.3941 333.962,-23.7635"/>
<polygon fill="black" stroke="black" points="334.511,-20.3041 324.019,-21.7793 333.141,-27.1688 334.511,-20.3041"/>
<a xlink:href="dir_000015_000009.htm" target="_top" xlink:title="6">
<text text-anchor="middle" x="338.592" y="-15.7232" font-family="Helvetica,sans-Serif" font-size="10.00">6</text>
</a>
</g>
<!-- dir_571ef98c50e1bcc1898cbefc078f6d6e&#45;&gt;dir_023c91c44035a186c584180e65bb82b0 -->
<g id="edge10" class="edge"><title>dir_571ef98c50e1bcc1898cbefc078f6d6e&#45;&gt;dir_023c91c44035a186c584180e65bb82b0</title>
<path fill="none" stroke="black" d="M405.402,-287.989C412.303,-278.129 420.898,-265.244 425,-252 439.201,-206.149 438.612,-190.029 425,-144 422.161,-134.402 417.023,-124.907 411.928,-116.62"/>
<polygon fill="black" stroke="black" points="414.855,-114.702 406.527,-108.154 408.954,-118.467 414.855,-114.702"/>
<a xlink:href="dir_000015_000039.htm" target="_top" xlink:title="3">
<text text-anchor="middle" x="419.182" y="-113.706" font-family="Helvetica,sans-Serif" font-size="10.00">3</text>
</a>
</g>
<!-- dir_cc68e4bc0b6327b606269eccaa048ab0&#45;&gt;dir_c108e9adcb979d7ac671bad5e192b925 -->
<g id="edge12" class="edge"><title>dir_cc68e4bc0b6327b606269eccaa048ab0&#45;&gt;dir_c108e9adcb979d7ac671bad5e192b925</title>
<path fill="none" stroke="black" d="M301.87,-215.831C292.015,-207.285 280.92,-196.944 271.549,-187.62"/>
<polygon fill="black" stroke="black" points="273.968,-185.088 264.46,-180.413 268.978,-189.997 273.968,-185.088"/>
<a xlink:href="dir_000045_000008.htm" target="_top" xlink:title="6">
<text text-anchor="middle" x="278.513" y="-183.16" font-family="Helvetica,sans-Serif" font-size="10.00">6</text>
</a>
</g>
<!-- dir_cc68e4bc0b6327b606269eccaa048ab0&#45;&gt;dir_833350a745acf29e00c46ce65f7df7ae -->
<g id="edge14" class="edge"><title>dir_cc68e4bc0b6327b606269eccaa048ab0&#45;&gt;dir_833350a745acf29e00c46ce65f7df7ae</title>
<path fill="none" stroke="black" d="M324.494,-215.955C319.266,-178.314 307.165,-91.1867 300.906,-46.1246"/>
<polygon fill="black" stroke="black" points="304.363,-45.5685 299.52,-36.1451 297.429,-46.5315 304.363,-45.5685"/>
<a xlink:href="dir_000045_000009.htm" target="_top" xlink:title="5">
<text text-anchor="middle" x="307.669" y="-46.2383" font-family="Helvetica,sans-Serif" font-size="10.00">5</text>
</a>
</g>
<!-- dir_c108e9adcb979d7ac671bad5e192b925&#45;&gt;dir_dc164906359dd4b4b9959f9d55384685 -->
<g id="edge20" class="edge"><title>dir_c108e9adcb979d7ac671bad5e192b925&#45;&gt;dir_dc164906359dd4b4b9959f9d55384685</title>
<path fill="none" stroke="black" d="M242.748,-180.358C233.038,-200.22 215.248,-231.755 192,-252 166.236,-274.436 152.073,-272.108 121.385,-285.597"/>
<polygon fill="black" stroke="black" points="119.848,-282.452 112.268,-289.855 122.81,-288.795 119.848,-282.452"/>
<a xlink:href="dir_000008_000026.htm" target="_top" xlink:title="1">
<text text-anchor="middle" x="121.903" y="-275.859" font-family="Helvetica,sans-Serif" font-size="10.00">1</text>
</a>
</g>
<!-- dir_c108e9adcb979d7ac671bad5e192b925&#45;&gt;dir_571ef98c50e1bcc1898cbefc078f6d6e -->
<g id="edge16" class="edge"><title>dir_c108e9adcb979d7ac671bad5e192b925&#45;&gt;dir_571ef98c50e1bcc1898cbefc078f6d6e</title>
<path fill="none" stroke="black" d="M261.8,-180.272C269.581,-200.059 280.585,-231.529 300,-252 315.563,-268.409 337.205,-280.66 356.175,-289.309"/>
<polygon fill="black" stroke="black" points="354.954,-292.594 365.519,-293.386 357.753,-286.178 354.954,-292.594"/>
<a xlink:href="dir_000008_000015.htm" target="_top" xlink:title="3">
<text text-anchor="middle" x="350.523" y="-291.259" font-family="Helvetica,sans-Serif" font-size="10.00">3</text>
</a>
</g>
<!-- dir_c108e9adcb979d7ac671bad5e192b925&#45;&gt;dir_cc68e4bc0b6327b606269eccaa048ab0 -->
<g id="edge18" class="edge"><title>dir_c108e9adcb979d7ac671bad5e192b925&#45;&gt;dir_cc68e4bc0b6327b606269eccaa048ab0</title>
<path fill="none" stroke="black" d="M276.124,-180.163C286.053,-188.774 297.244,-199.208 306.661,-208.589"/>
<polygon fill="black" stroke="black" points="304.27,-211.15 313.774,-215.831 309.264,-206.245 304.27,-211.15"/>
<a xlink:href="dir_000008_000045.htm" target="_top" xlink:title="2">
<text text-anchor="middle" x="299.726" y="-208.075" font-family="Helvetica,sans-Serif" font-size="10.00">2</text>
</a>
</g>
<!-- dir_c108e9adcb979d7ac671bad5e192b925&#45;&gt;dir_833350a745acf29e00c46ce65f7df7ae -->
<g id="edge22" class="edge"><title>dir_c108e9adcb979d7ac671bad5e192b925&#45;&gt;dir_833350a745acf29e00c46ce65f7df7ae</title>
<path fill="none" stroke="black" d="M249.33,-143.536C251.761,-133.118 256.182,-119.852 260,-108 266.67,-87.2983 273.962,-63.8323 280.691,-46.0528"/>
<polygon fill="black" stroke="black" points="284.125,-46.8907 284.579,-36.3056 277.623,-44.297 284.125,-46.8907"/>
<a xlink:href="dir_000008_000009.htm" target="_top" xlink:title="60">
<text text-anchor="middle" x="285.43" y="-48.7814" font-family="Helvetica,sans-Serif" font-size="10.00">60</text>
</a>
</g>
<!-- dir_c108e9adcb979d7ac671bad5e192b925&#45;&gt;dir_023c91c44035a186c584180e65bb82b0 -->
<g id="edge24" class="edge"><title>dir_c108e9adcb979d7ac671bad5e192b925&#45;&gt;dir_023c91c44035a186c584180e65bb82b0</title>
<path fill="none" stroke="black" d="M278.126,-146.021C301.895,-133.771 336.437,-116.986 362.587,-104.989"/>
<polygon fill="black" stroke="black" points="364.148,-108.125 371.806,-100.803 361.254,-101.751 364.148,-108.125"/>
<a xlink:href="dir_000008_000039.htm" target="_top" xlink:title="10">
<text text-anchor="middle" x="362.049" y="-109.696" font-family="Helvetica,sans-Serif" font-size="10.00">10</text>
</a>
</g>
<!-- dir_c108e9adcb979d7ac671bad5e192b925&#45;&gt;dir_c0aa0a1d2cd73f9e06de2fcae29b2a13 -->
<g id="edge26" class="edge"><title>dir_c108e9adcb979d7ac671bad5e192b925&#45;&gt;dir_c0aa0a1d2cd73f9e06de2fcae29b2a13</title>
<path fill="none" stroke="black" d="M240.505,-143.831C237.83,-136.131 235.32,-126.974 233.489,-118.417"/>
<polygon fill="black" stroke="black" points="236.898,-117.604 231.627,-108.413 230.016,-118.885 236.898,-117.604"/>
<a xlink:href="dir_000008_000016.htm" target="_top" xlink:title="8">
<text text-anchor="middle" x="240.347" y="-118.118" font-family="Helvetica,sans-Serif" font-size="10.00">8</text>
</a>
</g>
<!-- dir_833350a745acf29e00c46ce65f7df7ae&#45;&gt;dir_c108e9adcb979d7ac671bad5e192b925 -->
<g id="edge40" class="edge"><title>dir_833350a745acf29e00c46ce65f7df7ae&#45;&gt;dir_c108e9adcb979d7ac671bad5e192b925</title>
<path fill="none" stroke="black" d="M298.267,-36.3056C294.848,-54.5148 285.979,-83.2353 278,-108 275.256,-116.518 272.2,-125.768 268.999,-134.165"/>
<polygon fill="black" stroke="black" points="265.713,-132.954 265.184,-143.536 272.196,-135.594 265.713,-132.954"/>
<a xlink:href="dir_000009_000008.htm" target="_top" xlink:title="2">
<text text-anchor="middle" x="264.439" y="-126.054" font-family="Helvetica,sans-Serif" font-size="10.00">2</text>
</a>
</g>
<!-- dir_023c91c44035a186c584180e65bb82b0&#45;&gt;dir_dc164906359dd4b4b9959f9d55384685 -->
<g id="edge46" class="edge"><title>dir_023c91c44035a186c584180e65bb82b0&#45;&gt;dir_dc164906359dd4b4b9959f9d55384685</title>
<path fill="none" stroke="black" d="M400.975,-108.254C403.517,-142.054 403.534,-214.357 363,-252 284.17,-325.206 225.31,-258.474 121.892,-286.469"/>
<polygon fill="black" stroke="black" points="120.67,-283.181 112.074,-289.375 122.656,-289.893 120.67,-283.181"/>
<a xlink:href="dir_000039_000026.htm" target="_top" xlink:title="1">
<text text-anchor="middle" x="123.311" y="-276.938" font-family="Helvetica,sans-Serif" font-size="10.00">1</text>
</a>
</g>
<!-- dir_023c91c44035a186c584180e65bb82b0&#45;&gt;dir_571ef98c50e1bcc1898cbefc078f6d6e -->
<g id="edge42" class="edge"><title>dir_023c91c44035a186c584180e65bb82b0&#45;&gt;dir_571ef98c50e1bcc1898cbefc078f6d6e</title>
<path fill="none" stroke="black" d="M422.578,-108.154C431.005,-118.053 439.135,-130.93 443,-144 456.612,-190.029 457.201,-206.149 443,-252 439.923,-261.933 434.319,-271.664 427.977,-280.068"/>
<polygon fill="black" stroke="black" points="425.109,-278.045 421.454,-287.989 430.513,-282.495 425.109,-278.045"/>
<a xlink:href="dir_000039_000015.htm" target="_top" xlink:title="1">
<text text-anchor="middle" x="425.203" y="-270.965" font-family="Helvetica,sans-Serif" font-size="10.00">1</text>
</a>
</g>
<!-- dir_023c91c44035a186c584180e65bb82b0&#45;&gt;dir_c108e9adcb979d7ac671bad5e192b925 -->
<g id="edge44" class="edge"><title>dir_023c91c44035a186c584180e65bb82b0&#45;&gt;dir_c108e9adcb979d7ac671bad5e192b925</title>
<path fill="none" stroke="black" d="M371.976,-105.927C348.191,-118.188 313.564,-135.015 287.372,-147.029"/>
<polygon fill="black" stroke="black" points="285.798,-143.9 278.14,-151.221 288.692,-150.274 285.798,-143.9"/>
<a xlink:href="dir_000039_000008.htm" target="_top" xlink:title="24">
<text text-anchor="middle" x="287.898" y="-137.329" font-family="Helvetica,sans-Serif" font-size="10.00">24</text>
</a>
</g>
<!-- dir_023c91c44035a186c584180e65bb82b0&#45;&gt;dir_833350a745acf29e00c46ce65f7df7ae -->
<g id="edge48" class="edge"><title>dir_023c91c44035a186c584180e65bb82b0&#45;&gt;dir_833350a745acf29e00c46ce65f7df7ae</title>
<path fill="none" stroke="black" d="M373.261,-71.8314C360.456,-62.7927 344.809,-51.7476 331.028,-42.0198"/>
<polygon fill="black" stroke="black" points="332.919,-39.0703 322.731,-36.1628 328.882,-44.7891 332.919,-39.0703"/>
<a xlink:href="dir_000039_000009.htm" target="_top" xlink:title="5">
<text text-anchor="middle" x="337.493" y="-36.3236" font-family="Helvetica,sans-Serif" font-size="10.00">5</text>
</a>
</g>
<!-- dir_c0aa0a1d2cd73f9e06de2fcae29b2a13&#45;&gt;dir_cc68e4bc0b6327b606269eccaa048ab0 -->
<g id="edge56" class="edge"><title>dir_c0aa0a1d2cd73f9e06de2fcae29b2a13&#45;&gt;dir_cc68e4bc0b6327b606269eccaa048ab0</title>
<path fill="none" stroke="black" d="M254.636,-108.18C265.357,-117.989 277.918,-130.776 287,-144 300.232,-163.266 310.737,-187.616 317.655,-206.129"/>
<polygon fill="black" stroke="black" points="314.438,-207.525 321.124,-215.744 321.023,-205.149 314.438,-207.525"/>
<a xlink:href="dir_000016_000045.htm" target="_top" xlink:title="1">
<text text-anchor="middle" x="310.548" y="-202.607" font-family="Helvetica,sans-Serif" font-size="10.00">1</text>
</a>
</g>
<!-- dir_c0aa0a1d2cd73f9e06de2fcae29b2a13&#45;&gt;dir_c108e9adcb979d7ac671bad5e192b925 -->
<g id="edge58" class="edge"><title>dir_c0aa0a1d2cd73f9e06de2fcae29b2a13&#45;&gt;dir_c108e9adcb979d7ac671bad5e192b925</title>
<path fill="none" stroke="black" d="M243.579,-108.413C246.251,-116.144 248.752,-125.31 250.569,-133.854"/>
<polygon fill="black" stroke="black" points="247.153,-134.633 252.41,-143.831 254.037,-133.362 247.153,-134.633"/>
<a xlink:href="dir_000016_000008.htm" target="_top" xlink:title="47">
<text text-anchor="middle" x="243.709" y="-129.113" font-family="Helvetica,sans-Serif" font-size="10.00">47</text>
</a>
</g>
<!-- dir_c0aa0a1d2cd73f9e06de2fcae29b2a13&#45;&gt;dir_833350a745acf29e00c46ce65f7df7ae -->
<g id="edge60" class="edge"><title>dir_c0aa0a1d2cd73f9e06de2fcae29b2a13&#45;&gt;dir_833350a745acf29e00c46ce65f7df7ae</title>
<path fill="none" stroke="black" d="M249.15,-71.8314C256.672,-63.3694 265.757,-53.1489 273.98,-43.8971"/>
<polygon fill="black" stroke="black" points="276.605,-46.2127 280.633,-36.4133 271.373,-41.5621 276.605,-46.2127"/>
<a xlink:href="dir_000016_000009.htm" target="_top" xlink:title="3">
<text text-anchor="middle" x="276.339" y="-48.2856" font-family="Helvetica,sans-Serif" font-size="10.00">3</text>
</a>
</g>
</g>
</svg>
