<?xml version="1.0" encoding="UTF-8" standalone="no"?>
<!DOCTYPE svg PUBLIC "-//W3C//DTD SVG 1.1//EN"
 "http://www.w3.org/Graphics/SVG/1.1/DTD/svg11.dtd">
<!-- Generated by graphviz version 2.26.3 (20100126.1600)
 -->
<!-- Title: G Pages: 1 -->
<svg width="426pt" height="617pt"
 viewBox="0.00 0.00 426.00 617.00" xmlns="http://www.w3.org/2000/svg" xmlns:xlink="http://www.w3.org/1999/xlink">
<g id="graph1" class="graph" transform="scale(1 1) rotate(0) translate(4 613)">
<title>G</title>
<polygon fill="white" stroke="white" points="-4,5 -4,-613 423,-613 423,5 -4,5"/>
<g id="graph2" class="cluster"><title>clusterdir_5849c0f30efe5d66507360cc7555081c</title>
<a xlink:href="dir_5849c0f30efe5d66507360cc7555081c.htm" target="_top" xlink:title="LunaSysMgr">
<polygon fill="#ddddee" stroke="black" points="8,-8 8,-601 410,-601 410,-8 8,-8"/>
<text text-anchor="middle" x="209" y="-588" font-family="Helvetica,sans-Serif" font-size="10.00">LunaSysMgr</text>
</a>
</g>
<g id="graph3" class="cluster"><title>clusterdir_2379609c2cf538e59e9646141f42f407</title>
<a xlink:href="dir_2379609c2cf538e59e9646141f42f407.htm" target="_top">
<polygon fill="#eeeeff" stroke="black" points="16,-16 16,-572 402,-572 402,-16 16,-16"/>
</a>
</g>
<!-- dir_2379609c2cf538e59e9646141f42f407 -->
<g id="node3" class="node"><title>dir_2379609c2cf538e59e9646141f42f407</title>
<text text-anchor="middle" x="353" y="-543.5" font-family="Helvetica,sans-Serif" font-size="10.00">Src</text>
</g>
<!-- dir_c108e9adcb979d7ac671bad5e192b925 -->
<g id="node4" class="node"><title>dir_c108e9adcb979d7ac671bad5e192b925</title>
<a xlink:href="dir_c108e9adcb979d7ac671bad5e192b925.htm" target="_top" xlink:title="base">
<polygon fill="white" stroke="red" points="268,-492 214,-492 214,-456 268,-456 268,-492"/>
<text text-anchor="middle" x="241" y="-471.5" font-family="Helvetica,sans-Serif" font-size="10.00">base</text>
</a>
</g>
<!-- dir_833350a745acf29e00c46ce65f7df7ae -->
<g id="node5" class="node"><title>dir_833350a745acf29e00c46ce65f7df7ae</title>
<a xlink:href="dir_833350a745acf29e00c46ce65f7df7ae.htm" target="_top" xlink:title="core">
<polygon fill="white" stroke="black" points="284,-60 230,-60 230,-24 284,-24 284,-60"/>
<text text-anchor="middle" x="257" y="-39.5" font-family="Helvetica,sans-Serif" font-size="10.00">core</text>
</a>
</g>
<!-- dir_c108e9adcb979d7ac671bad5e192b925&#45;&gt;dir_833350a745acf29e00c46ce65f7df7ae -->
<g id="edge40" class="edge"><title>dir_c108e9adcb979d7ac671bad5e192b925&#45;&gt;dir_833350a745acf29e00c46ce65f7df7ae</title>
<path fill="none" stroke="black" d="M249.507,-455.745C257.212,-445.611 267.792,-432.55 276,-420 314.237,-361.537 326.956,-344.811 339,-276 347.318,-228.474 344.936,-213.178 328,-168 314.067,-130.832 288.163,-93.0293 271.532,-68.66"/>
<polygon fill="black" stroke="black" points="274.378,-66.6209 265.864,-60.3157 268.588,-70.5544 274.378,-66.6209"/>
<a xlink:href="dir_000008_000009.htm" target="_top" xlink:title="60">
<text text-anchor="middle" x="278.747" y="-65.499" font-family="Helvetica,sans-Serif" font-size="10.00">60</text>
</a>
</g>
<!-- dir_74928e894113969638fb3cb95ac699ee -->
<g id="node6" class="node"><title>dir_74928e894113969638fb3cb95ac699ee</title>
<a xlink:href="dir_74928e894113969638fb3cb95ac699ee.htm" target="_top" xlink:title="hal">
<polygon fill="white" stroke="black" points="374,-420 320,-420 320,-384 374,-384 374,-420"/>
<text text-anchor="middle" x="347" y="-399.5" font-family="Helvetica,sans-Serif" font-size="10.00">hal</text>
</a>
</g>
<!-- dir_c108e9adcb979d7ac671bad5e192b925&#45;&gt;dir_74928e894113969638fb3cb95ac699ee -->
<g id="edge36" class="edge"><title>dir_c108e9adcb979d7ac671bad5e192b925&#45;&gt;dir_74928e894113969638fb3cb95ac699ee</title>
<path fill="none" stroke="black" d="M261.796,-455.831C275.81,-445.638 294.508,-432.893 310.872,-422.363"/>
<polygon fill="black" stroke="black" points="313.113,-425.086 319.679,-416.771 309.361,-419.177 313.113,-425.086"/>
<a xlink:href="dir_000008_000033.htm" target="_top" xlink:title="3">
<text text-anchor="middle" x="311.6" y="-426.91" font-family="Helvetica,sans-Serif" font-size="10.00">3</text>
</a>
</g>
<!-- dir_c0aa0a1d2cd73f9e06de2fcae29b2a13 -->
<g id="node7" class="node"><title>dir_c0aa0a1d2cd73f9e06de2fcae29b2a13</title>
<a xlink:href="dir_c0aa0a1d2cd73f9e06de2fcae29b2a13.htm" target="_top" xlink:title="ime">
<polygon fill="white" stroke="red" points="182,-420 128,-420 128,-384 182,-384 182,-420"/>
<text text-anchor="middle" x="155" y="-399.5" font-family="Helvetica,sans-Serif" font-size="10.00">ime</text>
</a>
</g>
<!-- dir_c108e9adcb979d7ac671bad5e192b925&#45;&gt;dir_c0aa0a1d2cd73f9e06de2fcae29b2a13 -->
<g id="edge44" class="edge"><title>dir_c108e9adcb979d7ac671bad5e192b925&#45;&gt;dir_c0aa0a1d2cd73f9e06de2fcae29b2a13</title>
<path fill="none" stroke="black" d="M213.826,-456.202C202.372,-447.356 189.249,-436.519 178.247,-426.867"/>
<polygon fill="black" stroke="black" points="180.455,-424.146 170.666,-420.093 175.791,-429.366 180.455,-424.146"/>
<a xlink:href="dir_000008_000016.htm" target="_top" xlink:title="9">
<text text-anchor="middle" x="185.028" y="-421.924" font-family="Helvetica,sans-Serif" font-size="10.00">9</text>
</a>
</g>
<!-- dir_aafe48f257c75c61a4124f498f9cedbe -->
<g id="node10" class="node"><title>dir_aafe48f257c75c61a4124f498f9cedbe</title>
<a xlink:href="dir_aafe48f257c75c61a4124f498f9cedbe.htm" target="_top" xlink:title="lunaui">
<polygon fill="white" stroke="red" points="202,-348 148,-348 148,-312 202,-312 202,-348"/>
<text text-anchor="middle" x="175" y="-327.5" font-family="Helvetica,sans-Serif" font-size="10.00">lunaui</text>
</a>
</g>
<!-- dir_c108e9adcb979d7ac671bad5e192b925&#45;&gt;dir_aafe48f257c75c61a4124f498f9cedbe -->
<g id="edge38" class="edge"><title>dir_c108e9adcb979d7ac671bad5e192b925&#45;&gt;dir_aafe48f257c75c61a4124f498f9cedbe</title>
<path fill="none" stroke="black" d="M224.483,-455.519C218.574,-445.095 212.433,-431.829 207,-420 197.476,-399.261 186.789,-375.797 179.974,-358.027"/>
<polygon fill="black" stroke="black" points="183.143,-356.497 176.447,-348.286 176.561,-358.881 183.143,-356.497"/>
<a xlink:href="dir_000008_000002.htm" target="_top" xlink:title="18">
<text text-anchor="middle" x="187.036" y="-356.411" font-family="Helvetica,sans-Serif" font-size="10.00">18</text>
</a>
</g>
<!-- dir_e87dc180a44b7253d6c1f0ebe0390aef -->
<g id="node11" class="node"><title>dir_e87dc180a44b7253d6c1f0ebe0390aef</title>
<a xlink:href="dir_e87dc180a44b7253d6c1f0ebe0390aef.htm" target="_top" xlink:title="minimalui">
<polygon fill="white" stroke="black" points="202,-204 144,-204 144,-168 202,-168 202,-204"/>
<text text-anchor="middle" x="173" y="-183.5" font-family="Helvetica,sans-Serif" font-size="10.00">minimalui</text>
</a>
</g>
<!-- dir_c108e9adcb979d7ac671bad5e192b925&#45;&gt;dir_e87dc180a44b7253d6c1f0ebe0390aef -->
<g id="edge34" class="edge"><title>dir_c108e9adcb979d7ac671bad5e192b925&#45;&gt;dir_e87dc180a44b7253d6c1f0ebe0390aef</title>
<path fill="none" stroke="black" d="M232.763,-455.884C224.696,-425.793 214.543,-363.702 202,-312 193.751,-278 181.775,-239.594 175.407,-214.217"/>
<polygon fill="black" stroke="black" points="178.746,-213.123 173.049,-204.19 171.932,-214.726 178.746,-213.123"/>
<a xlink:href="dir_000008_000048.htm" target="_top" xlink:title="1">
<text text-anchor="middle" x="182.332" y="-213.472" font-family="Helvetica,sans-Serif" font-size="10.00">1</text>
</a>
</g>
<!-- dir_023c91c44035a186c584180e65bb82b0 -->
<g id="node12" class="node"><title>dir_023c91c44035a186c584180e65bb82b0</title>
<a xlink:href="dir_023c91c44035a186c584180e65bb82b0.htm" target="_top" xlink:title="remote">
<polygon fill="white" stroke="black" points="222,-132 168,-132 168,-96 222,-96 222,-132"/>
<text text-anchor="middle" x="195" y="-111.5" font-family="Helvetica,sans-Serif" font-size="10.00">remote</text>
</a>
</g>
<!-- dir_c108e9adcb979d7ac671bad5e192b925&#45;&gt;dir_023c91c44035a186c584180e65bb82b0 -->
<g id="edge42" class="edge"><title>dir_c108e9adcb979d7ac671bad5e192b925&#45;&gt;dir_023c91c44035a186c584180e65bb82b0</title>
<path fill="none" stroke="black" d="M244.766,-455.575C249.842,-445.392 257.036,-432.337 262,-420 304.689,-313.907 377.224,-263.293 314,-168 295.533,-140.166 259.586,-126.644 231.901,-120.094"/>
<polygon fill="black" stroke="black" points="232.636,-116.673 222.123,-117.983 231.159,-123.515 232.636,-116.673"/>
<a xlink:href="dir_000008_000039.htm" target="_top" xlink:title="10">
<text text-anchor="middle" x="236.749" y="-112.156" font-family="Helvetica,sans-Serif" font-size="10.00">10</text>
</a>
</g>
<!-- dir_cc68e4bc0b6327b606269eccaa048ab0 -->
<g id="node13" class="node"><title>dir_cc68e4bc0b6327b606269eccaa048ab0</title>
<a xlink:href="dir_cc68e4bc0b6327b606269eccaa048ab0.htm" target="_top" xlink:title="sound">
<polygon fill="white" stroke="black" points="98,-276 44,-276 44,-240 98,-240 98,-276"/>
<text text-anchor="middle" x="71" y="-255.5" font-family="Helvetica,sans-Serif" font-size="10.00">sound</text>
</a>
</g>
<!-- dir_c108e9adcb979d7ac671bad5e192b925&#45;&gt;dir_cc68e4bc0b6327b606269eccaa048ab0 -->
<g id="edge32" class="edge"><title>dir_c108e9adcb979d7ac671bad5e192b925&#45;&gt;dir_cc68e4bc0b6327b606269eccaa048ab0</title>
<path fill="none" stroke="black" d="M214,-470.347C183.945,-464.5 136.761,-450.445 110,-420 76.5667,-381.963 66.3971,-321.554 66.0793,-286.245"/>
<polygon fill="black" stroke="black" points="69.5806,-286.214 66.2822,-276.146 62.582,-286.073 69.5806,-286.214"/>
<a xlink:href="dir_000008_000045.htm" target="_top" xlink:title="2">
<text text-anchor="middle" x="72.3472" y="-287.365" font-family="Helvetica,sans-Serif" font-size="10.00">2</text>
</a>
</g>
<!-- dir_833350a745acf29e00c46ce65f7df7ae&#45;&gt;dir_c108e9adcb979d7ac671bad5e192b925 -->
<g id="edge66" class="edge"><title>dir_833350a745acf29e00c46ce65f7df7ae&#45;&gt;dir_c108e9adcb979d7ac671bad5e192b925</title>
<path fill="none" stroke="black" d="M278.405,-60.3157C299.62,-83.7348 330.356,-126.268 346,-168 362.936,-213.178 365.318,-228.474 357,-276 344.956,-344.811 332.237,-361.537 294,-420 287.716,-429.608 280.041,-439.517 272.413,-448.181"/>
<polygon fill="black" stroke="black" points="269.652,-446.013 265.461,-455.745 274.805,-450.75 269.652,-446.013"/>
<a xlink:href="dir_000009_000008.htm" target="_top" xlink:title="2">
<text text-anchor="middle" x="269.994" y="-438.946" font-family="Helvetica,sans-Serif" font-size="10.00">2</text>
</a>
</g>
<!-- dir_74928e894113969638fb3cb95ac699ee&#45;&gt;dir_c108e9adcb979d7ac671bad5e192b925 -->
<g id="edge28" class="edge"><title>dir_74928e894113969638fb3cb95ac699ee&#45;&gt;dir_c108e9adcb979d7ac671bad5e192b925</title>
<path fill="none" stroke="black" d="M326.378,-420.042C312.343,-430.258 293.554,-443.068 277.12,-453.642"/>
<polygon fill="black" stroke="black" points="274.844,-450.941 268.277,-459.256 278.596,-456.851 274.844,-450.941"/>
<a xlink:href="dir_000033_000008.htm" target="_top" xlink:title="2">
<text text-anchor="middle" x="276.357" y="-444.118" font-family="Helvetica,sans-Serif" font-size="10.00">2</text>
</a>
</g>
<!-- dir_74928e894113969638fb3cb95ac699ee&#45;&gt;dir_833350a745acf29e00c46ce65f7df7ae -->
<g id="edge30" class="edge"><title>dir_74928e894113969638fb3cb95ac699ee&#45;&gt;dir_833350a745acf29e00c46ce65f7df7ae</title>
<path fill="none" stroke="black" d="M352.514,-383.552C360.146,-356.342 373,-303.728 373,-258 373,-258 373,-258 373,-186 373,-145.448 381.644,-128.946 358,-96 342.549,-74.4702 315.811,-60.7217 293.726,-52.4879"/>
<polygon fill="black" stroke="black" points="294.874,-49.1814 284.279,-49.1874 292.565,-55.7898 294.874,-49.1814"/>
<a xlink:href="dir_000033_000009.htm" target="_top" xlink:title="1">
<text text-anchor="middle" x="299.204" y="-45.1865" font-family="Helvetica,sans-Serif" font-size="10.00">1</text>
</a>
</g>
<!-- dir_c0aa0a1d2cd73f9e06de2fcae29b2a13&#45;&gt;dir_c108e9adcb979d7ac671bad5e192b925 -->
<g id="edge82" class="edge"><title>dir_c0aa0a1d2cd73f9e06de2fcae29b2a13&#45;&gt;dir_c108e9adcb979d7ac671bad5e192b925</title>
<path fill="none" stroke="black" d="M182.002,-419.665C193.459,-428.507 206.611,-439.362 217.645,-449.039"/>
<polygon fill="black" stroke="black" points="215.461,-451.781 225.251,-455.831 220.124,-446.56 215.461,-451.781"/>
<a xlink:href="dir_000016_000008.htm" target="_top" xlink:title="47">
<text text-anchor="middle" x="210.889" y="-449.004" font-family="Helvetica,sans-Serif" font-size="10.00">47</text>
</a>
</g>
<!-- dir_c0aa0a1d2cd73f9e06de2fcae29b2a13&#45;&gt;dir_833350a745acf29e00c46ce65f7df7ae -->
<g id="edge86" class="edge"><title>dir_c0aa0a1d2cd73f9e06de2fcae29b2a13&#45;&gt;dir_833350a745acf29e00c46ce65f7df7ae</title>
<path fill="none" stroke="black" d="M135.884,-383.782C125.176,-373.441 111.67,-360.169 100,-348 70.1608,-316.884 50.476,-316.238 35,-276 29.2563,-261.066 32.788,-255.846 35,-240 44.1994,-174.095 29.2428,-143.348 76,-96 96.0827,-75.6636 172.738,-57.9848 219.611,-48.7735"/>
<polygon fill="black" stroke="black" points="220.54,-52.159 229.697,-46.8313 219.216,-45.2853 220.54,-52.159"/>
<a xlink:href="dir_000016_000009.htm" target="_top" xlink:title="3">
<text text-anchor="middle" x="217.547" y="-53.1266" font-family="Helvetica,sans-Serif" font-size="10.00">3</text>
</a>
</g>
<!-- dir_c0aa0a1d2cd73f9e06de2fcae29b2a13&#45;&gt;dir_aafe48f257c75c61a4124f498f9cedbe -->
<g id="edge84" class="edge"><title>dir_c0aa0a1d2cd73f9e06de2fcae29b2a13&#45;&gt;dir_aafe48f257c75c61a4124f498f9cedbe</title>
<path fill="none" stroke="black" d="M154.094,-383.831C155.498,-376.046 157.857,-366.773 160.58,-358.135"/>
<polygon fill="black" stroke="black" points="163.981,-359.008 163.909,-348.413 157.358,-356.74 163.981,-359.008"/>
<a xlink:href="dir_000016_000002.htm" target="_top" xlink:title="2">
<text text-anchor="middle" x="165.502" y="-360.828" font-family="Helvetica,sans-Serif" font-size="10.00">2</text>
</a>
</g>
<!-- dir_c0aa0a1d2cd73f9e06de2fcae29b2a13&#45;&gt;dir_cc68e4bc0b6327b606269eccaa048ab0 -->
<g id="edge80" class="edge"><title>dir_c0aa0a1d2cd73f9e06de2fcae29b2a13&#45;&gt;dir_cc68e4bc0b6327b606269eccaa048ab0</title>
<path fill="none" stroke="black" d="M144.361,-383.762C129.781,-358.768 103.487,-313.692 86.6572,-284.841"/>
<polygon fill="black" stroke="black" points="89.6143,-282.964 81.5523,-276.09 83.5678,-286.491 89.6143,-282.964"/>
<a xlink:href="dir_000016_000045.htm" target="_top" xlink:title="1">
<text text-anchor="middle" x="93.8779" y="-282.138" font-family="Helvetica,sans-Serif" font-size="10.00">1</text>
</a>
</g>
<!-- dir_de748e788b1841f449f4455044d463b4 -->
<g id="node8" class="node"><title>dir_de748e788b1841f449f4455044d463b4</title>
<a xlink:href="dir_de748e788b1841f449f4455044d463b4.htm" target="_top" xlink:title="input">
<polygon fill="white" stroke="black" points="281,-564 227,-564 227,-528 281,-528 281,-564"/>
<text text-anchor="middle" x="254" y="-543.5" font-family="Helvetica,sans-Serif" font-size="10.00">input</text>
</a>
</g>
<!-- dir_de748e788b1841f449f4455044d463b4&#45;&gt;dir_c108e9adcb979d7ac671bad5e192b925 -->
<g id="edge68" class="edge"><title>dir_de748e788b1841f449f4455044d463b4&#45;&gt;dir_c108e9adcb979d7ac671bad5e192b925</title>
<path fill="none" stroke="black" d="M250.72,-527.831C249.329,-520.131 247.676,-510.974 246.131,-502.417"/>
<polygon fill="black" stroke="black" points="249.546,-501.632 244.325,-492.413 242.657,-502.876 249.546,-501.632"/>
<a xlink:href="dir_000034_000008.htm" target="_top" xlink:title="7">
<text text-anchor="middle" x="252.979" y="-502.165" font-family="Helvetica,sans-Serif" font-size="10.00">7</text>
</a>
</g>
<!-- dir_de748e788b1841f449f4455044d463b4&#45;&gt;dir_833350a745acf29e00c46ce65f7df7ae -->
<g id="edge70" class="edge"><title>dir_de748e788b1841f449f4455044d463b4&#45;&gt;dir_833350a745acf29e00c46ce65f7df7ae</title>
<path fill="none" stroke="black" d="M281.131,-533.235C321.582,-512.101 393,-465.761 393,-402 393,-402 393,-402 393,-186 393,-144.714 396.203,-127.904 370,-96 350.836,-72.667 319.213,-58.7584 294.286,-50.9154"/>
<polygon fill="black" stroke="black" points="294.996,-47.4759 284.415,-48.0103 293.02,-54.1912 294.996,-47.4759"/>
<a xlink:href="dir_000034_000009.htm" target="_top" xlink:title="2">
<text text-anchor="middle" x="299.246" y="-43.2669" font-family="Helvetica,sans-Serif" font-size="10.00">2</text>
</a>
</g>
<!-- dir_3772266c805c3591433847390dc69f35 -->
<g id="node9" class="node"><title>dir_3772266c805c3591433847390dc69f35</title>
<a xlink:href="dir_3772266c805c3591433847390dc69f35.htm" target="_top" xlink:title="js">
<polygon fill="white" stroke="black" points="314,-204 260,-204 260,-168 314,-168 314,-204"/>
<text text-anchor="middle" x="287" y="-183.5" font-family="Helvetica,sans-Serif" font-size="10.00">js</text>
</a>
</g>
<!-- dir_3772266c805c3591433847390dc69f35&#45;&gt;dir_c108e9adcb979d7ac671bad5e192b925 -->
<g id="edge48" class="edge"><title>dir_3772266c805c3591433847390dc69f35&#45;&gt;dir_c108e9adcb979d7ac671bad5e192b925</title>
<path fill="none" stroke="black" d="M290.653,-204.331C293.762,-222.559 297.249,-251.294 294,-276 285.856,-337.919 263.97,-407.996 251.01,-445.946"/>
<polygon fill="black" stroke="black" points="247.575,-445.169 247.611,-455.764 254.19,-447.459 247.575,-445.169"/>
<a xlink:href="dir_000040_000008.htm" target="_top" xlink:title="8">
<text text-anchor="middle" x="246.069" y="-438.343" font-family="Helvetica,sans-Serif" font-size="10.00">8</text>
</a>
</g>
<!-- dir_3772266c805c3591433847390dc69f35&#45;&gt;dir_833350a745acf29e00c46ce65f7df7ae -->
<g id="edge52" class="edge"><title>dir_3772266c805c3591433847390dc69f35&#45;&gt;dir_833350a745acf29e00c46ce65f7df7ae</title>
<path fill="none" stroke="black" d="M283.2,-167.762C278.061,-143.093 268.846,-98.8598 262.828,-69.9731"/>
<polygon fill="black" stroke="black" points="266.235,-69.1656 260.769,-60.0896 259.382,-70.5933 266.235,-69.1656"/>
<a xlink:href="dir_000040_000009.htm" target="_top" xlink:title="2">
<text text-anchor="middle" x="269.747" y="-69.6056" font-family="Helvetica,sans-Serif" font-size="10.00">2</text>
</a>
</g>
<!-- dir_3772266c805c3591433847390dc69f35&#45;&gt;dir_aafe48f257c75c61a4124f498f9cedbe -->
<g id="edge50" class="edge"><title>dir_3772266c805c3591433847390dc69f35&#45;&gt;dir_aafe48f257c75c61a4124f498f9cedbe</title>
<path fill="none" stroke="black" d="M291.233,-204.18C294.68,-223.6 296.966,-254.485 283,-276 267.149,-300.417 236.716,-314.234 212.185,-321.766"/>
<polygon fill="black" stroke="black" points="211.099,-318.435 202.435,-324.532 213.01,-325.169 211.099,-318.435"/>
<a xlink:href="dir_000040_000002.htm" target="_top" xlink:title="5">
<text text-anchor="middle" x="213.783" y="-312.223" font-family="Helvetica,sans-Serif" font-size="10.00">5</text>
</a>
</g>
<!-- dir_8e8789dd72610b36487369c1f23008be -->
<g id="node14" class="node"><title>dir_8e8789dd72610b36487369c1f23008be</title>
<a xlink:href="dir_8e8789dd72610b36487369c1f23008be.htm" target="_top" xlink:title="webbase">
<polygon fill="white" stroke="black" points="274,-276 216,-276 216,-240 274,-240 274,-276"/>
<text text-anchor="middle" x="245" y="-255.5" font-family="Helvetica,sans-Serif" font-size="10.00">webbase</text>
</a>
</g>
<!-- dir_3772266c805c3591433847390dc69f35&#45;&gt;dir_8e8789dd72610b36487369c1f23008be -->
<g id="edge46" class="edge"><title>dir_3772266c805c3591433847390dc69f35&#45;&gt;dir_8e8789dd72610b36487369c1f23008be</title>
<path fill="none" stroke="black" d="M282.235,-204.413C278.257,-212.569 272.759,-222.321 267.148,-231.257"/>
<polygon fill="black" stroke="black" points="264.086,-229.544 261.551,-239.831 269.948,-233.371 264.086,-229.544"/>
<a xlink:href="dir_000040_000041.htm" target="_top" xlink:title="6">
<text text-anchor="middle" x="263.673" y="-222.482" font-family="Helvetica,sans-Serif" font-size="10.00">6</text>
</a>
</g>
<!-- dir_aafe48f257c75c61a4124f498f9cedbe&#45;&gt;dir_c108e9adcb979d7ac671bad5e192b925 -->
<g id="edge58" class="edge"><title>dir_aafe48f257c75c61a4124f498f9cedbe&#45;&gt;dir_c108e9adcb979d7ac671bad5e192b925</title>
<path fill="none" stroke="black" d="M190.135,-348.286C200.55,-366.481 213.606,-395.191 225,-420 228.905,-428.502 233.175,-437.747 236.666,-446.145"/>
<polygon fill="black" stroke="black" points="233.431,-447.483 240.337,-455.519 239.949,-444.931 233.431,-447.483"/>
<a xlink:href="dir_000002_000008.htm" target="_top" xlink:title="411">
<text text-anchor="middle" x="229.477" y="-442.671" font-family="Helvetica,sans-Serif" font-size="10.00">411</text>
</a>
</g>
<!-- dir_aafe48f257c75c61a4124f498f9cedbe&#45;&gt;dir_833350a745acf29e00c46ce65f7df7ae -->
<g id="edge60" class="edge"><title>dir_aafe48f257c75c61a4124f498f9cedbe&#45;&gt;dir_833350a745acf29e00c46ce65f7df7ae</title>
<path fill="none" stroke="black" d="M154.097,-311.572C144.693,-301.979 134.491,-289.455 129,-276 110.845,-231.51 113.221,-214.827 124,-168 131.981,-133.326 134.492,-121.794 159,-96 176.096,-78.0069 200.537,-64.5233 220.734,-55.5298"/>
<polygon fill="black" stroke="black" points="222.138,-58.7361 229.964,-51.5947 219.393,-52.2969 222.138,-58.7361"/>
<a xlink:href="dir_000002_000009.htm" target="_top" xlink:title="72">
<text text-anchor="middle" x="219.945" y="-60.2576" font-family="Helvetica,sans-Serif" font-size="10.00">72</text>
</a>
</g>
<!-- dir_aafe48f257c75c61a4124f498f9cedbe&#45;&gt;dir_c0aa0a1d2cd73f9e06de2fcae29b2a13 -->
<g id="edge64" class="edge"><title>dir_aafe48f257c75c61a4124f498f9cedbe&#45;&gt;dir_c0aa0a1d2cd73f9e06de2fcae29b2a13</title>
<path fill="none" stroke="black" d="M175.861,-348.413C174.437,-356.229 172.065,-365.511 169.334,-374.136"/>
<polygon fill="black" stroke="black" points="165.943,-373.237 165.999,-383.831 172.562,-375.514 165.943,-373.237"/>
<a xlink:href="dir_000002_000016.htm" target="_top" xlink:title="7">
<text text-anchor="middle" x="164.427" y="-366.414" font-family="Helvetica,sans-Serif" font-size="10.00">7</text>
</a>
</g>
<!-- dir_aafe48f257c75c61a4124f498f9cedbe&#45;&gt;dir_023c91c44035a186c584180e65bb82b0 -->
<g id="edge62" class="edge"><title>dir_aafe48f257c75c61a4124f498f9cedbe&#45;&gt;dir_023c91c44035a186c584180e65bb82b0</title>
<path fill="none" stroke="black" d="M157.553,-311.823C135.463,-281.117 103.96,-217.487 126,-168 132.735,-152.878 146.029,-140.214 159.28,-130.959"/>
<polygon fill="black" stroke="black" points="161.415,-133.747 167.912,-125.378 157.614,-127.868 161.415,-133.747"/>
<a xlink:href="dir_000002_000039.htm" target="_top" xlink:title="27">
<text text-anchor="middle" x="159.937" y="-135.583" font-family="Helvetica,sans-Serif" font-size="10.00">27</text>
</a>
</g>
<!-- dir_aafe48f257c75c61a4124f498f9cedbe&#45;&gt;dir_cc68e4bc0b6327b606269eccaa048ab0 -->
<g id="edge54" class="edge"><title>dir_aafe48f257c75c61a4124f498f9cedbe&#45;&gt;dir_cc68e4bc0b6327b606269eccaa048ab0</title>
<path fill="none" stroke="black" d="M148.756,-311.831C135.701,-302.793 119.747,-291.748 105.695,-282.02"/>
<polygon fill="black" stroke="black" points="107.449,-278.977 97.2352,-276.163 103.465,-284.733 107.449,-278.977"/>
<a xlink:href="dir_000002_000045.htm" target="_top" xlink:title="9">
<text text-anchor="middle" x="112.021" y="-276.189" font-family="Helvetica,sans-Serif" font-size="10.00">9</text>
</a>
</g>
<!-- dir_aafe48f257c75c61a4124f498f9cedbe&#45;&gt;dir_8e8789dd72610b36487369c1f23008be -->
<g id="edge56" class="edge"><title>dir_aafe48f257c75c61a4124f498f9cedbe&#45;&gt;dir_8e8789dd72610b36487369c1f23008be</title>
<path fill="none" stroke="black" d="M186.712,-311.831C194.32,-303.134 204.41,-292.578 214.103,-283.127"/>
<polygon fill="black" stroke="black" points="216.578,-285.602 221.39,-276.163 211.742,-280.541 216.578,-285.602"/>
<a xlink:href="dir_000002_000041.htm" target="_top" xlink:title="22">
<text text-anchor="middle" x="215.941" y="-287.638" font-family="Helvetica,sans-Serif" font-size="10.00">22</text>
</a>
</g>
<!-- dir_e87dc180a44b7253d6c1f0ebe0390aef&#45;&gt;dir_c108e9adcb979d7ac671bad5e192b925 -->
<g id="edge10" class="edge"><title>dir_e87dc180a44b7253d6c1f0ebe0390aef&#45;&gt;dir_c108e9adcb979d7ac671bad5e192b925</title>
<path fill="none" stroke="black" d="M185.299,-204.19C196.277,-228.531 210.573,-273.143 220,-312 231.27,-358.451 240.61,-413.288 243.234,-445.77"/>
<polygon fill="black" stroke="black" points="239.748,-446.119 243.859,-455.884 246.735,-445.687 239.748,-446.119"/>
<a xlink:href="dir_000048_000008.htm" target="_top" xlink:title="11">
<text text-anchor="middle" x="236.693" y="-440.206" font-family="Helvetica,sans-Serif" font-size="10.00">11</text>
</a>
</g>
<!-- dir_e87dc180a44b7253d6c1f0ebe0390aef&#45;&gt;dir_c0aa0a1d2cd73f9e06de2fcae29b2a13 -->
<g id="edge16" class="edge"><title>dir_e87dc180a44b7253d6c1f0ebe0390aef&#45;&gt;dir_c0aa0a1d2cd73f9e06de2fcae29b2a13</title>
<path fill="none" stroke="black" d="M164.844,-204.33C152.523,-234.214 131.369,-295.386 139,-348 140.257,-356.668 142.594,-365.882 145.1,-374.198"/>
<polygon fill="black" stroke="black" points="141.793,-375.347 148.181,-383.8 148.458,-373.208 141.793,-375.347"/>
<a xlink:href="dir_000048_000016.htm" target="_top" xlink:title="1">
<text text-anchor="middle" x="137.991" y="-370.292" font-family="Helvetica,sans-Serif" font-size="10.00">1</text>
</a>
</g>
<!-- dir_e87dc180a44b7253d6c1f0ebe0390aef&#45;&gt;dir_aafe48f257c75c61a4124f498f9cedbe -->
<g id="edge12" class="edge"><title>dir_e87dc180a44b7253d6c1f0ebe0390aef&#45;&gt;dir_aafe48f257c75c61a4124f498f9cedbe</title>
<path fill="none" stroke="black" d="M173.251,-204.09C173.591,-228.573 174.202,-272.517 174.604,-301.471"/>
<polygon fill="black" stroke="black" points="171.108,-301.812 174.747,-311.762 178.107,-301.715 171.108,-301.812"/>
<a xlink:href="dir_000048_000002.htm" target="_top" xlink:title="6">
<text text-anchor="middle" x="168.219" y="-295.757" font-family="Helvetica,sans-Serif" font-size="10.00">6</text>
</a>
</g>
<!-- dir_e87dc180a44b7253d6c1f0ebe0390aef&#45;&gt;dir_023c91c44035a186c584180e65bb82b0 -->
<g id="edge14" class="edge"><title>dir_e87dc180a44b7253d6c1f0ebe0390aef&#45;&gt;dir_023c91c44035a186c584180e65bb82b0</title>
<path fill="none" stroke="black" d="M178.552,-167.831C180.93,-160.046 183.764,-150.773 186.403,-142.135"/>
<polygon fill="black" stroke="black" points="189.799,-143 189.374,-132.413 183.104,-140.954 189.799,-143"/>
<a xlink:href="dir_000048_000039.htm" target="_top" xlink:title="2">
<text text-anchor="middle" x="191.464" y="-144.767" font-family="Helvetica,sans-Serif" font-size="10.00">2</text>
</a>
</g>
<!-- dir_e87dc180a44b7253d6c1f0ebe0390aef&#45;&gt;dir_8e8789dd72610b36487369c1f23008be -->
<g id="edge8" class="edge"><title>dir_e87dc180a44b7253d6c1f0ebe0390aef&#45;&gt;dir_8e8789dd72610b36487369c1f23008be</title>
<path fill="none" stroke="black" d="M197.115,-204.163C206.472,-212.689 216.967,-223.002 225.808,-232.31"/>
<polygon fill="black" stroke="black" points="223.417,-234.88 232.784,-239.831 228.55,-230.119 223.417,-234.88"/>
<a xlink:href="dir_000048_000041.htm" target="_top" xlink:title="5">
<text text-anchor="middle" x="218.891" y="-231.675" font-family="Helvetica,sans-Serif" font-size="10.00">5</text>
</a>
</g>
<!-- dir_023c91c44035a186c584180e65bb82b0&#45;&gt;dir_c108e9adcb979d7ac671bad5e192b925 -->
<g id="edge74" class="edge"><title>dir_023c91c44035a186c584180e65bb82b0&#45;&gt;dir_c108e9adcb979d7ac671bad5e192b925</title>
<path fill="none" stroke="black" d="M222.219,-115.953C255.062,-119.958 308.132,-132.025 332,-168 395.224,-263.293 322.689,-313.907 280,-420 276.316,-429.157 271.403,-438.708 266.204,-447.188"/>
<polygon fill="black" stroke="black" points="263.263,-445.29 260.721,-455.575 269.122,-449.12 263.263,-445.29"/>
<a xlink:href="dir_000039_000008.htm" target="_top" xlink:title="24">
<text text-anchor="middle" x="262.853" y="-438.227" font-family="Helvetica,sans-Serif" font-size="10.00">24</text>
</a>
</g>
<!-- dir_023c91c44035a186c584180e65bb82b0&#45;&gt;dir_833350a745acf29e00c46ce65f7df7ae -->
<g id="edge78" class="edge"><title>dir_023c91c44035a186c584180e65bb82b0&#45;&gt;dir_833350a745acf29e00c46ce65f7df7ae</title>
<path fill="none" stroke="black" d="M210.645,-95.8314C217.859,-87.454 226.557,-77.3531 234.46,-68.1749"/>
<polygon fill="black" stroke="black" points="237.271,-70.2748 241.144,-60.4133 231.967,-65.7071 237.271,-70.2748"/>
<a xlink:href="dir_000039_000009.htm" target="_top" xlink:title="5">
<text text-anchor="middle" x="237.077" y="-72.3514" font-family="Helvetica,sans-Serif" font-size="10.00">5</text>
</a>
</g>
<!-- dir_023c91c44035a186c584180e65bb82b0&#45;&gt;dir_aafe48f257c75c61a4124f498f9cedbe -->
<g id="edge76" class="edge"><title>dir_023c91c44035a186c584180e65bb82b0&#45;&gt;dir_aafe48f257c75c61a4124f498f9cedbe</title>
<path fill="none" stroke="black" d="M174.008,-132.183C162.888,-141.317 150.443,-153.534 144,-168 123.94,-213.041 148.234,-269.798 164.127,-302.784"/>
<polygon fill="black" stroke="black" points="161.007,-304.37 168.538,-311.823 167.298,-301.301 161.007,-304.37"/>
<a xlink:href="dir_000039_000002.htm" target="_top" xlink:title="9">
<text text-anchor="middle" x="156.879" y="-299.885" font-family="Helvetica,sans-Serif" font-size="10.00">9</text>
</a>
</g>
<!-- dir_023c91c44035a186c584180e65bb82b0&#45;&gt;dir_8e8789dd72610b36487369c1f23008be -->
<g id="edge72" class="edge"><title>dir_023c91c44035a186c584180e65bb82b0&#45;&gt;dir_8e8789dd72610b36487369c1f23008be</title>
<path fill="none" stroke="black" d="M201.281,-132.09C209.857,-156.788 225.31,-201.293 235.359,-230.233"/>
<polygon fill="black" stroke="black" points="232.081,-231.464 238.667,-239.762 238.694,-229.167 232.081,-231.464"/>
<a xlink:href="dir_000039_000041.htm" target="_top" xlink:title="2">
<text text-anchor="middle" x="228.22" y="-226.499" font-family="Helvetica,sans-Serif" font-size="10.00">2</text>
</a>
</g>
<!-- dir_cc68e4bc0b6327b606269eccaa048ab0&#45;&gt;dir_c108e9adcb979d7ac671bad5e192b925 -->
<g id="edge4" class="edge"><title>dir_cc68e4bc0b6327b606269eccaa048ab0&#45;&gt;dir_c108e9adcb979d7ac671bad5e192b925</title>
<path fill="none" stroke="black" d="M76.865,-276.146C82.542,-308.816 91.1081,-378.028 128,-420 147.958,-442.707 179.277,-456.296 203.993,-464.163"/>
<polygon fill="black" stroke="black" points="203.201,-467.58 213.785,-467.098 205.211,-460.874 203.201,-467.58"/>
<a xlink:href="dir_000045_000008.htm" target="_top" xlink:title="6">
<text text-anchor="middle" x="198.943" y="-466.768" font-family="Helvetica,sans-Serif" font-size="10.00">6</text>
</a>
</g>
<!-- dir_cc68e4bc0b6327b606269eccaa048ab0&#45;&gt;dir_833350a745acf29e00c46ce65f7df7ae -->
<g id="edge6" class="edge"><title>dir_cc68e4bc0b6327b606269eccaa048ab0&#45;&gt;dir_833350a745acf29e00c46ce65f7df7ae</title>
<path fill="none" stroke="black" d="M68.7929,-239.988C65.8281,-207.225 64.4969,-137.445 100,-96 115.774,-77.5855 178.624,-60.0519 219.861,-50.1947"/>
<polygon fill="black" stroke="black" points="220.899,-53.5464 229.838,-47.8582 219.303,-46.7308 220.899,-53.5464"/>
<a xlink:href="dir_000045_000009.htm" target="_top" xlink:title="5">
<text text-anchor="middle" x="218.047" y="-54.6305" font-family="Helvetica,sans-Serif" font-size="10.00">5</text>
</a>
</g>
<!-- dir_8e8789dd72610b36487369c1f23008be&#45;&gt;dir_c108e9adcb979d7ac671bad5e192b925 -->
<g id="edge20" class="edge"><title>dir_8e8789dd72610b36487369c1f23008be&#45;&gt;dir_c108e9adcb979d7ac671bad5e192b925</title>
<path fill="none" stroke="black" d="M244.664,-276.145C243.967,-313.795 242.359,-400.641 241.524,-445.71"/>
<polygon fill="black" stroke="black" points="238.02,-445.892 241.334,-455.955 245.019,-446.022 238.02,-445.892"/>
<a xlink:href="dir_000041_000008.htm" target="_top" xlink:title="53">
<text text-anchor="middle" x="235.248" y="-439.746" font-family="Helvetica,sans-Serif" font-size="10.00">53</text>
</a>
</g>
<!-- dir_8e8789dd72610b36487369c1f23008be&#45;&gt;dir_833350a745acf29e00c46ce65f7df7ae -->
<g id="edge26" class="edge"><title>dir_8e8789dd72610b36487369c1f23008be&#45;&gt;dir_833350a745acf29e00c46ce65f7df7ae</title>
<path fill="none" stroke="black" d="M246.002,-239.955C248.089,-202.394 252.914,-115.554 255.422,-70.4103"/>
<polygon fill="black" stroke="black" points="258.932,-70.3238 255.992,-60.1451 251.943,-69.9355 258.932,-70.3238"/>
<a xlink:href="dir_000041_000009.htm" target="_top" xlink:title="19">
<text text-anchor="middle" x="261.567" y="-71.5704" font-family="Helvetica,sans-Serif" font-size="10.00">19</text>
</a>
</g>
<!-- dir_8e8789dd72610b36487369c1f23008be&#45;&gt;dir_3772266c805c3591433847390dc69f35 -->
<g id="edge22" class="edge"><title>dir_8e8789dd72610b36487369c1f23008be&#45;&gt;dir_3772266c805c3591433847390dc69f35</title>
<path fill="none" stroke="black" d="M249.646,-239.831C253.593,-231.708 259.075,-221.964 264.684,-213.012"/>
<polygon fill="black" stroke="black" points="267.759,-214.703 270.283,-204.413 261.893,-210.883 267.759,-214.703"/>
<a xlink:href="dir_000041_000040.htm" target="_top" xlink:title="3">
<text text-anchor="middle" x="268.177" y="-216.765" font-family="Helvetica,sans-Serif" font-size="10.00">3</text>
</a>
</g>
<!-- dir_8e8789dd72610b36487369c1f23008be&#45;&gt;dir_aafe48f257c75c61a4124f498f9cedbe -->
<g id="edge24" class="edge"><title>dir_8e8789dd72610b36487369c1f23008be&#45;&gt;dir_aafe48f257c75c61a4124f498f9cedbe</title>
<path fill="none" stroke="black" d="M233.074,-276.413C225.478,-285.079 215.464,-295.546 205.847,-304.922"/>
<polygon fill="black" stroke="black" points="203.428,-302.392 198.616,-311.831 208.264,-307.453 203.428,-302.392"/>
<a xlink:href="dir_000041_000002.htm" target="_top" xlink:title="5">
<text text-anchor="middle" x="204.066" y="-295.356" font-family="Helvetica,sans-Serif" font-size="10.00">5</text>
</a>
</g>
<!-- dir_8e8789dd72610b36487369c1f23008be&#45;&gt;dir_e87dc180a44b7253d6c1f0ebe0390aef -->
<g id="edge18" class="edge"><title>dir_8e8789dd72610b36487369c1f23008be&#45;&gt;dir_e87dc180a44b7253d6c1f0ebe0390aef</title>
<path fill="none" stroke="black" d="M220.879,-239.831C211.592,-231.369 201.187,-221.149 192.389,-211.897"/>
<polygon fill="black" stroke="black" points="194.808,-209.358 185.437,-204.413 189.679,-214.122 194.808,-209.358"/>
<a xlink:href="dir_000041_000048.htm" target="_top" xlink:title="1">
<text text-anchor="middle" x="199.334" y="-207.559" font-family="Helvetica,sans-Serif" font-size="10.00">1</text>
</a>
</g>
</g>
</svg>
