<?xml version="1.0" encoding="UTF-8" standalone="no"?>
<!DOCTYPE svg PUBLIC "-//W3C//DTD SVG 1.1//EN"
 "http://www.w3.org/Graphics/SVG/1.1/DTD/svg11.dtd">
<!-- Generated by graphviz version 2.26.3 (20100126.1600)
 -->
<!-- Title: G Pages: 1 -->
<svg width="180pt" height="297pt"
 viewBox="0.00 0.00 180.00 297.00" xmlns="http://www.w3.org/2000/svg" xmlns:xlink="http://www.w3.org/1999/xlink">
<g id="graph1" class="graph" transform="scale(1 1) rotate(0) translate(4 293)">
<title>G</title>
<polygon fill="white" stroke="white" points="-4,5 -4,-293 177,-293 177,5 -4,5"/>
<g id="graph2" class="cluster"><title>clusterdir_c108e9adcb979d7ac671bad5e192b925</title>
<a xlink:href="dir_c108e9adcb979d7ac671bad5e192b925.htm" target="_top" xlink:title="base">
<polygon fill="#ddddee" stroke="black" points="8,-208 8,-281 96,-281 96,-208 8,-208"/>
<text text-anchor="middle" x="52" y="-268" font-family="Helvetica,sans-Serif" font-size="10.00">base</text>
</a>
</g>
<!-- dir_20d485ace9da5e1614ffd3c71a2a0557 -->
<g id="node2" class="node"><title>dir_20d485ace9da5e1614ffd3c71a2a0557</title>
<a xlink:href="dir_20d485ace9da5e1614ffd3c71a2a0557.htm" target="_top" xlink:title="windowdata">
<polygon fill="#eeeeff" stroke="black" points="88,-252 16,-252 16,-216 88,-216 88,-252"/>
<text text-anchor="middle" x="52" y="-231.5" font-family="Helvetica,sans-Serif" font-size="10.00">windowdata</text>
</a>
</g>
<!-- dir_f4a578a50d612bc2e8b518e29c6d0ea5 -->
<g id="node3" class="node"><title>dir_f4a578a50d612bc2e8b518e29c6d0ea5</title>
<a xlink:href="dir_f4a578a50d612bc2e8b518e29c6d0ea5.htm" target="_top" xlink:title="settings">
<polygon fill="none" stroke="black" points="79,-180 25,-180 25,-144 79,-144 79,-180"/>
<text text-anchor="middle" x="52" y="-159.5" font-family="Helvetica,sans-Serif" font-size="10.00">settings</text>
</a>
</g>
<!-- dir_20d485ace9da5e1614ffd3c71a2a0557&#45;&gt;dir_f4a578a50d612bc2e8b518e29c6d0ea5 -->
<g id="edge3" class="edge"><title>dir_20d485ace9da5e1614ffd3c71a2a0557&#45;&gt;dir_f4a578a50d612bc2e8b518e29c6d0ea5</title>
<path fill="none" stroke="black" d="M52,-215.831C52,-208.131 52,-198.974 52,-190.417"/>
<polygon fill="black" stroke="black" points="55.5001,-190.413 52,-180.413 48.5001,-190.413 55.5001,-190.413"/>
<a xlink:href="dir_000037_000010.htm" target="_top" xlink:title="1">
<text text-anchor="middle" x="58.3393" y="-191.508" font-family="Helvetica,sans-Serif" font-size="10.00">1</text>
</a>
</g>
<!-- dir_833350a745acf29e00c46ce65f7df7ae -->
<g id="node4" class="node"><title>dir_833350a745acf29e00c46ce65f7df7ae</title>
<a xlink:href="dir_833350a745acf29e00c46ce65f7df7ae.htm" target="_top" xlink:title="core">
<polygon fill="none" stroke="black" points="143,-108 89,-108 89,-72 143,-72 143,-108"/>
<text text-anchor="middle" x="116" y="-87.5" font-family="Helvetica,sans-Serif" font-size="10.00">core</text>
</a>
</g>
<!-- dir_20d485ace9da5e1614ffd3c71a2a0557&#45;&gt;dir_833350a745acf29e00c46ce65f7df7ae -->
<g id="edge5" class="edge"><title>dir_20d485ace9da5e1614ffd3c71a2a0557&#45;&gt;dir_833350a745acf29e00c46ce65f7df7ae</title>
<path fill="none" stroke="black" d="M66.0484,-215.794C73.3541,-205.676 81.9882,-192.612 88,-180 97.5206,-160.027 104.795,-136.045 109.541,-117.861"/>
<polygon fill="black" stroke="black" points="112.936,-118.71 111.977,-108.158 106.147,-117.004 112.936,-118.71"/>
<a xlink:href="dir_000037_000009.htm" target="_top" xlink:title="1">
<text text-anchor="middle" x="114.814" y="-120.387" font-family="Helvetica,sans-Serif" font-size="10.00">1</text>
</a>
</g>
<!-- dir_023c91c44035a186c584180e65bb82b0 -->
<g id="node5" class="node"><title>dir_023c91c44035a186c584180e65bb82b0</title>
<a xlink:href="dir_023c91c44035a186c584180e65bb82b0.htm" target="_top" xlink:title="remote">
<polygon fill="none" stroke="black" points="172,-252 118,-252 118,-216 172,-216 172,-252"/>
<text text-anchor="middle" x="145" y="-231.5" font-family="Helvetica,sans-Serif" font-size="10.00">remote</text>
</a>
</g>
<!-- dir_20d485ace9da5e1614ffd3c71a2a0557&#45;&gt;dir_023c91c44035a186c584180e65bb82b0 -->
<g id="edge7" class="edge"><title>dir_20d485ace9da5e1614ffd3c71a2a0557&#45;&gt;dir_023c91c44035a186c584180e65bb82b0</title>
<path fill="none" stroke="black" d="M88.3281,-234C94.8172,-234 101.306,-234 107.795,-234"/>
<polygon fill="black" stroke="black" points="107.992,-237.5 117.992,-234 107.992,-230.5 107.992,-237.5"/>
<a xlink:href="dir_000037_000039.htm" target="_top" xlink:title="3">
<text text-anchor="middle" x="104.398" y="-237.839" font-family="Helvetica,sans-Serif" font-size="10.00">3</text>
</a>
</g>
<!-- dir_d5d2b510489cc5abb4523e6103f57ebc -->
<g id="node6" class="node"><title>dir_d5d2b510489cc5abb4523e6103f57ebc</title>
<a xlink:href="dir_d5d2b510489cc5abb4523e6103f57ebc.htm" target="_top" xlink:title="hosts">
<polygon fill="none" stroke="black" points="111,-36 57,-36 57,-1.77636e-14 111,-3.55271e-15 111,-36"/>
<text text-anchor="middle" x="84" y="-15.5" font-family="Helvetica,sans-Serif" font-size="10.00">hosts</text>
</a>
</g>
<!-- dir_20d485ace9da5e1614ffd3c71a2a0557&#45;&gt;dir_d5d2b510489cc5abb4523e6103f57ebc -->
<g id="edge9" class="edge"><title>dir_20d485ace9da5e1614ffd3c71a2a0557&#45;&gt;dir_d5d2b510489cc5abb4523e6103f57ebc</title>
<path fill="none" stroke="black" d="M36.0095,-215.917C28.3462,-206.037 19.9834,-193.156 16,-180 11.3635,-164.687 12.0812,-159.513 16,-144 25.3264,-107.081 47.8399,-69.2295 64.4189,-44.7806"/>
<polygon fill="black" stroke="black" points="67.4033,-46.6188 70.2231,-36.4061 61.65,-42.6313 67.4033,-46.6188"/>
<a xlink:href="dir_000037_000036.htm" target="_top" xlink:title="2">
<text text-anchor="middle" x="67.6893" y="-48.6905" font-family="Helvetica,sans-Serif" font-size="10.00">2</text>
</a>
</g>
<!-- dir_f4a578a50d612bc2e8b518e29c6d0ea5&#45;&gt;dir_833350a745acf29e00c46ce65f7df7ae -->
<g id="edge11" class="edge"><title>dir_f4a578a50d612bc2e8b518e29c6d0ea5&#45;&gt;dir_833350a745acf29e00c46ce65f7df7ae</title>
<path fill="none" stroke="black" d="M68.1499,-143.831C75.6717,-135.369 84.7565,-125.149 92.9804,-115.897"/>
<polygon fill="black" stroke="black" points="95.6049,-118.213 99.6327,-108.413 90.373,-113.562 95.6049,-118.213"/>
<a xlink:href="dir_000010_000009.htm" target="_top" xlink:title="4">
<text text-anchor="middle" x="95.3389" y="-120.286" font-family="Helvetica,sans-Serif" font-size="10.00">4</text>
</a>
</g>
<!-- dir_f4a578a50d612bc2e8b518e29c6d0ea5&#45;&gt;dir_d5d2b510489cc5abb4523e6103f57ebc -->
<g id="edge13" class="edge"><title>dir_f4a578a50d612bc2e8b518e29c6d0ea5&#45;&gt;dir_d5d2b510489cc5abb4523e6103f57ebc</title>
<path fill="none" stroke="black" d="M51.3797,-143.762C54.3911,-119.093 63.9544,-74.8598 72.3117,-45.9731"/>
<polygon fill="black" stroke="black" points="75.7564,-46.6755 75.3218,-36.0896 69.0601,-44.6361 75.7564,-46.6755"/>
<a xlink:href="dir_000010_000036.htm" target="_top" xlink:title="2">
<text text-anchor="middle" x="77.4253" y="-48.4414" font-family="Helvetica,sans-Serif" font-size="10.00">2</text>
</a>
</g>
<!-- dir_833350a745acf29e00c46ce65f7df7ae&#45;&gt;dir_d5d2b510489cc5abb4523e6103f57ebc -->
<g id="edge15" class="edge"><title>dir_833350a745acf29e00c46ce65f7df7ae&#45;&gt;dir_d5d2b510489cc5abb4523e6103f57ebc</title>
<path fill="none" stroke="black" d="M101.973,-71.8314C97.7081,-63.9617 93.3207,-54.5712 89.7853,-45.8533"/>
<polygon fill="black" stroke="black" points="93.0244,-44.5239 86.2077,-36.4133 86.4787,-47.0046 93.0244,-44.5239"/>
<a xlink:href="dir_000009_000036.htm" target="_top" xlink:title="1">
<text text-anchor="middle" x="96.9533" y="-44.379" font-family="Helvetica,sans-Serif" font-size="10.00">1</text>
</a>
</g>
<!-- dir_023c91c44035a186c584180e65bb82b0&#45;&gt;dir_20d485ace9da5e1614ffd3c71a2a0557 -->
<g id="edge17" class="edge"><title>dir_023c91c44035a186c584180e65bb82b0&#45;&gt;dir_20d485ace9da5e1614ffd3c71a2a0557</title>
<path fill="none" stroke="black" d="M117.992,-234C111.503,-234 105.014,-234 98.5252,-234"/>
<polygon fill="black" stroke="black" points="98.3282,-230.5 88.3281,-234 98.3281,-237.5 98.3282,-230.5"/>
<a xlink:href="dir_000039_000037.htm" target="_top" xlink:title="1">
<text text-anchor="middle" x="101.923" y="-225.161" font-family="Helvetica,sans-Serif" font-size="10.00">1</text>
</a>
</g>
<!-- dir_023c91c44035a186c584180e65bb82b0&#45;&gt;dir_f4a578a50d612bc2e8b518e29c6d0ea5 -->
<g id="edge19" class="edge"><title>dir_023c91c44035a186c584180e65bb82b0&#45;&gt;dir_f4a578a50d612bc2e8b518e29c6d0ea5</title>
<path fill="none" stroke="black" d="M121.532,-215.831C109.967,-206.878 95.8596,-195.956 83.3817,-186.295"/>
<polygon fill="black" stroke="black" points="85.5102,-183.517 75.4603,-180.163 81.225,-189.052 85.5102,-183.517"/>
<a xlink:href="dir_000039_000010.htm" target="_top" xlink:title="2">
<text text-anchor="middle" x="90.0906" y="-180.972" font-family="Helvetica,sans-Serif" font-size="10.00">2</text>
</a>
</g>
<!-- dir_023c91c44035a186c584180e65bb82b0&#45;&gt;dir_833350a745acf29e00c46ce65f7df7ae -->
<g id="edge21" class="edge"><title>dir_023c91c44035a186c584180e65bb82b0&#45;&gt;dir_833350a745acf29e00c46ce65f7df7ae</title>
<path fill="none" stroke="black" d="M141.327,-215.762C136.359,-191.093 127.451,-146.86 121.633,-117.973"/>
<polygon fill="black" stroke="black" points="125.048,-117.202 119.643,-108.09 118.186,-118.584 125.048,-117.202"/>
<a xlink:href="dir_000039_000009.htm" target="_top" xlink:title="5">
<text text-anchor="middle" x="128.541" y="-117.665" font-family="Helvetica,sans-Serif" font-size="10.00">5</text>
</a>
</g>
<!-- dir_023c91c44035a186c584180e65bb82b0&#45;&gt;dir_d5d2b510489cc5abb4523e6103f57ebc -->
<g id="edge23" class="edge"><title>dir_023c91c44035a186c584180e65bb82b0&#45;&gt;dir_d5d2b510489cc5abb4523e6103f57ebc</title>
<path fill="none" stroke="black" d="M151.09,-215.87C160.45,-184.687 175.012,-119.66 152,-72 145.076,-57.6608 132.29,-45.9615 119.658,-37.1646"/>
<polygon fill="black" stroke="black" points="121.302,-34.059 111.01,-31.5415 117.486,-39.9273 121.302,-34.059"/>
<a xlink:href="dir_000039_000036.htm" target="_top" xlink:title="1">
<text text-anchor="middle" x="125.863" y="-31.1383" font-family="Helvetica,sans-Serif" font-size="10.00">1</text>
</a>
</g>
<!-- dir_d5d2b510489cc5abb4523e6103f57ebc&#45;&gt;dir_f4a578a50d612bc2e8b518e29c6d0ea5 -->
<g id="edge25" class="edge"><title>dir_d5d2b510489cc5abb4523e6103f57ebc&#45;&gt;dir_f4a578a50d612bc2e8b518e29c6d0ea5</title>
<path fill="none" stroke="black" d="M84.6384,-36.0896C81.6532,-60.6805 72.1007,-104.905 63.7385,-133.853"/>
<polygon fill="black" stroke="black" points="60.2861,-133.177 60.726,-143.762 66.9834,-135.213 60.2861,-133.177"/>
<a xlink:href="dir_000036_000010.htm" target="_top" xlink:title="2">
<text text-anchor="middle" x="58.6151" y="-126.412" font-family="Helvetica,sans-Serif" font-size="10.00">2</text>
</a>
</g>
<!-- dir_d5d2b510489cc5abb4523e6103f57ebc&#45;&gt;dir_833350a745acf29e00c46ce65f7df7ae -->
<g id="edge27" class="edge"><title>dir_d5d2b510489cc5abb4523e6103f57ebc&#45;&gt;dir_833350a745acf29e00c46ce65f7df7ae</title>
<path fill="none" stroke="black" d="M98.1597,-36.4133C102.427,-44.3141 106.806,-53.7132 110.324,-62.417"/>
<polygon fill="black" stroke="black" points="107.072,-63.7115 113.877,-71.8314 113.621,-61.2396 107.072,-63.7115"/>
<a xlink:href="dir_000036_000009.htm" target="_top" xlink:title="10">
<text text-anchor="middle" x="103.146" y="-58.851" font-family="Helvetica,sans-Serif" font-size="10.00">10</text>
</a>
</g>
</g>
</svg>
