<?xml version="1.0" encoding="UTF-8" standalone="no"?>
<!DOCTYPE svg PUBLIC "-//W3C//DTD SVG 1.1//EN"
 "http://www.w3.org/Graphics/SVG/1.1/DTD/svg11.dtd">
<!-- Generated by graphviz version 2.26.3 (20100126.1600)
 -->
<!-- Title: G Pages: 1 -->
<svg width="133pt" height="297pt"
 viewBox="0.00 0.00 133.00 297.00" xmlns="http://www.w3.org/2000/svg" xmlns:xlink="http://www.w3.org/1999/xlink">
<g id="graph1" class="graph" transform="scale(1 1) rotate(0) translate(4 293)">
<title>G</title>
<polygon fill="white" stroke="white" points="-4,5 -4,-293 130,-293 130,5 -4,5"/>
<g id="graph2" class="cluster"><title>clusterdir_dc164906359dd4b4b9959f9d55384685</title>
<a xlink:href="dir_dc164906359dd4b4b9959f9d55384685.htm" target="_top" xlink:title="emulation">
<polygon fill="#ddddee" stroke="black" points="13,-208 13,-281 117,-281 117,-208 13,-208"/>
<text text-anchor="middle" x="65" y="-268" font-family="Helvetica,sans-Serif" font-size="10.00">emulation</text>
</a>
</g>
<!-- dir_38a1dac29c1e8d286da43ca1e0c5bf3c -->
<g id="node2" class="node"><title>dir_38a1dac29c1e8d286da43ca1e0c5bf3c</title>
<a xlink:href="dir_38a1dac29c1e8d286da43ca1e0c5bf3c.htm" target="_top" xlink:title="virtual&#45;corenavi">
<polygon fill="#eeeeff" stroke="black" points="109,-252 21,-252 21,-216 109,-216 109,-252"/>
<text text-anchor="middle" x="65" y="-231.5" font-family="Helvetica,sans-Serif" font-size="10.00">virtual&#45;corenavi</text>
</a>
</g>
<!-- dir_cc68e4bc0b6327b606269eccaa048ab0 -->
<g id="node3" class="node"><title>dir_cc68e4bc0b6327b606269eccaa048ab0</title>
<a xlink:href="dir_cc68e4bc0b6327b606269eccaa048ab0.htm" target="_top" xlink:title="sound">
<polygon fill="none" stroke="black" points="92,-180 38,-180 38,-144 92,-144 92,-180"/>
<text text-anchor="middle" x="65" y="-159.5" font-family="Helvetica,sans-Serif" font-size="10.00">sound</text>
</a>
</g>
<!-- dir_38a1dac29c1e8d286da43ca1e0c5bf3c&#45;&gt;dir_cc68e4bc0b6327b606269eccaa048ab0 -->
<g id="edge13" class="edge"><title>dir_38a1dac29c1e8d286da43ca1e0c5bf3c&#45;&gt;dir_cc68e4bc0b6327b606269eccaa048ab0</title>
<path fill="none" stroke="black" d="M65,-215.831C65,-208.131 65,-198.974 65,-190.417"/>
<polygon fill="black" stroke="black" points="68.5001,-190.413 65,-180.413 61.5001,-190.413 68.5001,-190.413"/>
<a xlink:href="dir_000031_000045.htm" target="_top" xlink:title="1">
<text text-anchor="middle" x="71.3393" y="-191.508" font-family="Helvetica,sans-Serif" font-size="10.00">1</text>
</a>
</g>
<!-- dir_c108e9adcb979d7ac671bad5e192b925 -->
<g id="node4" class="node"><title>dir_c108e9adcb979d7ac671bad5e192b925</title>
<a xlink:href="dir_c108e9adcb979d7ac671bad5e192b925.htm" target="_top" xlink:title="base">
<polygon fill="white" stroke="red" points="54,-108 2.13163e-14,-108 0,-72 54,-72 54,-108"/>
<text text-anchor="middle" x="27" y="-87.5" font-family="Helvetica,sans-Serif" font-size="10.00">base</text>
</a>
</g>
<!-- dir_38a1dac29c1e8d286da43ca1e0c5bf3c&#45;&gt;dir_c108e9adcb979d7ac671bad5e192b925 -->
<g id="edge15" class="edge"><title>dir_38a1dac29c1e8d286da43ca1e0c5bf3c&#45;&gt;dir_c108e9adcb979d7ac671bad5e192b925</title>
<path fill="none" stroke="black" d="M49.1294,-215.88C41.4989,-205.99 33.1293,-193.111 29,-180 22.7109,-160.031 22.4559,-136.317 23.6422,-118.246"/>
<polygon fill="black" stroke="black" points="27.1477,-118.326 24.4991,-108.068 20.1724,-117.739 27.1477,-118.326"/>
<a xlink:href="dir_000031_000008.htm" target="_top" xlink:title="4">
<text text-anchor="middle" x="29.6755" y="-119.646" font-family="Helvetica,sans-Serif" font-size="10.00">4</text>
</a>
</g>
<!-- dir_833350a745acf29e00c46ce65f7df7ae -->
<g id="node5" class="node"><title>dir_833350a745acf29e00c46ce65f7df7ae</title>
<a xlink:href="dir_833350a745acf29e00c46ce65f7df7ae.htm" target="_top" xlink:title="core">
<polygon fill="none" stroke="black" points="81,-36 27,-36 27,-1.77636e-14 81,-3.55271e-15 81,-36"/>
<text text-anchor="middle" x="54" y="-15.5" font-family="Helvetica,sans-Serif" font-size="10.00">core</text>
</a>
</g>
<!-- dir_38a1dac29c1e8d286da43ca1e0c5bf3c&#45;&gt;dir_833350a745acf29e00c46ce65f7df7ae -->
<g id="edge17" class="edge"><title>dir_38a1dac29c1e8d286da43ca1e0c5bf3c&#45;&gt;dir_833350a745acf29e00c46ce65f7df7ae</title>
<path fill="none" stroke="black" d="M80.9905,-215.917C88.6538,-206.037 97.0166,-193.156 101,-180 105.637,-164.687 103.364,-159.824 101,-144 95.7019,-108.53 79.8398,-70.2609 67.9989,-45.3228"/>
<polygon fill="black" stroke="black" points="71.0512,-43.5963 63.5301,-36.1341 64.7562,-46.6578 71.0512,-43.5963"/>
<a xlink:href="dir_000031_000009.htm" target="_top" xlink:title="4">
<text text-anchor="middle" x="75.1766" y="-43.0871" font-family="Helvetica,sans-Serif" font-size="10.00">4</text>
</a>
</g>
<!-- dir_cc68e4bc0b6327b606269eccaa048ab0&#45;&gt;dir_c108e9adcb979d7ac671bad5e192b925 -->
<g id="edge3" class="edge"><title>dir_cc68e4bc0b6327b606269eccaa048ab0&#45;&gt;dir_c108e9adcb979d7ac671bad5e192b925</title>
<path fill="none" stroke="black" d="M49.4586,-143.831C44.4854,-135.877 39.2571,-126.369 34.9692,-117.572"/>
<polygon fill="black" stroke="black" points="38.1105,-116.026 30.7421,-108.413 31.7547,-118.96 38.1105,-116.026"/>
<a xlink:href="dir_000045_000008.htm" target="_top" xlink:title="6">
<text text-anchor="middle" x="42.1947" y="-115.6" font-family="Helvetica,sans-Serif" font-size="10.00">6</text>
</a>
</g>
<!-- dir_cc68e4bc0b6327b606269eccaa048ab0&#45;&gt;dir_833350a745acf29e00c46ce65f7df7ae -->
<g id="edge5" class="edge"><title>dir_cc68e4bc0b6327b606269eccaa048ab0&#45;&gt;dir_833350a745acf29e00c46ce65f7df7ae</title>
<path fill="none" stroke="black" d="M65.3574,-143.684C65.5331,-125.467 65.3246,-96.7409 63,-72 62.2123,-63.6167 60.8919,-54.5685 59.5019,-46.3197"/>
<polygon fill="black" stroke="black" points="62.9363,-45.6413 57.7388,-36.4089 56.0445,-46.8674 62.9363,-45.6413"/>
<a xlink:href="dir_000045_000009.htm" target="_top" xlink:title="5">
<text text-anchor="middle" x="66.3612" y="-46.1831" font-family="Helvetica,sans-Serif" font-size="10.00">5</text>
</a>
</g>
<!-- dir_c108e9adcb979d7ac671bad5e192b925&#45;&gt;dir_cc68e4bc0b6327b606269eccaa048ab0 -->
<g id="edge7" class="edge"><title>dir_c108e9adcb979d7ac671bad5e192b925&#45;&gt;dir_cc68e4bc0b6327b606269eccaa048ab0</title>
<path fill="none" stroke="black" d="M42.6941,-108.413C47.6725,-116.399 52.8936,-125.916 57.1621,-134.697"/>
<polygon fill="black" stroke="black" points="54.0048,-136.209 61.3634,-143.831 60.3643,-133.284 54.0048,-136.209"/>
<a xlink:href="dir_000008_000045.htm" target="_top" xlink:title="2">
<text text-anchor="middle" x="49.9232" y="-131.63" font-family="Helvetica,sans-Serif" font-size="10.00">2</text>
</a>
</g>
<!-- dir_c108e9adcb979d7ac671bad5e192b925&#45;&gt;dir_833350a745acf29e00c46ce65f7df7ae -->
<g id="edge9" class="edge"><title>dir_c108e9adcb979d7ac671bad5e192b925&#45;&gt;dir_833350a745acf29e00c46ce65f7df7ae</title>
<path fill="none" stroke="black" d="M27.8608,-71.8314C30.0685,-63.8771 33.4239,-54.369 37.0776,-45.5723"/>
<polygon fill="black" stroke="black" points="40.2841,-46.9752 41.119,-36.4133 33.8798,-44.1492 40.2841,-46.9752"/>
<a xlink:href="dir_000008_000009.htm" target="_top" xlink:title="60">
<text text-anchor="middle" x="41.4306" y="-48.91" font-family="Helvetica,sans-Serif" font-size="10.00">60</text>
</a>
</g>
<!-- dir_833350a745acf29e00c46ce65f7df7ae&#45;&gt;dir_c108e9adcb979d7ac671bad5e192b925 -->
<g id="edge11" class="edge"><title>dir_833350a745acf29e00c46ce65f7df7ae&#45;&gt;dir_c108e9adcb979d7ac671bad5e192b925</title>
<path fill="none" stroke="black" d="M53.071,-36.4133C50.8637,-44.3141 47.5414,-53.7132 43.9269,-62.417"/>
<polygon fill="black" stroke="black" points="40.6073,-61.27 39.7656,-71.8314 47.0097,-64.1 40.6073,-61.27"/>
<a xlink:href="dir_000009_000008.htm" target="_top" xlink:title="2">
<text text-anchor="middle" x="39.4635" y="-54.3344" font-family="Helvetica,sans-Serif" font-size="10.00">2</text>
</a>
</g>
</g>
</svg>
