<?xml version="1.0" encoding="UTF-8" standalone="no"?>
<!DOCTYPE svg PUBLIC "-//W3C//DTD SVG 1.1//EN"
 "http://www.w3.org/Graphics/SVG/1.1/DTD/svg11.dtd">
<!-- Generated by graphviz version 2.26.3 (20100126.1600)
 -->
<!-- Title: G Pages: 1 -->
<svg width="169pt" height="189pt"
 viewBox="0.00 0.00 168.77 189.00" xmlns="http://www.w3.org/2000/svg" xmlns:xlink="http://www.w3.org/1999/xlink">
<g id="graph1" class="graph" transform="scale(1 1) rotate(0) translate(4 185)">
<title>G</title>
<polygon fill="white" stroke="white" points="-4,5 -4,-185 165.767,-185 165.767,5 -4,5"/>
<g id="graph2" class="cluster"><title>clusterdir_c108e9adcb979d7ac671bad5e192b925</title>
<a xlink:href="dir_c108e9adcb979d7ac671bad5e192b925.htm" target="_top" xlink:title="base">
<polygon fill="#ddddee" stroke="black" points="8,-64 8,-137 78,-137 78,-64 8,-64"/>
<text text-anchor="middle" x="43" y="-124" font-family="Helvetica,sans-Serif" font-size="10.00">base</text>
</a>
</g>
<!-- dir_f4a578a50d612bc2e8b518e29c6d0ea5 -->
<g id="node2" class="node"><title>dir_f4a578a50d612bc2e8b518e29c6d0ea5</title>
<a xlink:href="dir_f4a578a50d612bc2e8b518e29c6d0ea5.htm" target="_top" xlink:title="settings">
<polygon fill="#eeeeff" stroke="black" points="70,-108 16,-108 16,-72 70,-72 70,-108"/>
<text text-anchor="middle" x="43" y="-87.5" font-family="Helvetica,sans-Serif" font-size="10.00">settings</text>
</a>
</g>
<!-- dir_833350a745acf29e00c46ce65f7df7ae -->
<g id="node3" class="node"><title>dir_833350a745acf29e00c46ce65f7df7ae</title>
<a xlink:href="dir_833350a745acf29e00c46ce65f7df7ae.htm" target="_top" xlink:title="core">
<polygon fill="none" stroke="black" points="142,-108 88,-108 88,-72 142,-72 142,-108"/>
<text text-anchor="middle" x="115" y="-87.5" font-family="Helvetica,sans-Serif" font-size="10.00">core</text>
</a>
</g>
<!-- dir_f4a578a50d612bc2e8b518e29c6d0ea5&#45;&gt;dir_833350a745acf29e00c46ce65f7df7ae -->
<g id="edge3" class="edge"><title>dir_f4a578a50d612bc2e8b518e29c6d0ea5&#45;&gt;dir_833350a745acf29e00c46ce65f7df7ae</title>
<path fill="none" stroke="black" d="M70,-90C72.6147,-90 75.2295,-90 77.8442,-90"/>
<polygon fill="black" stroke="black" points="77.9297,-93.5001 87.9297,-90 77.9297,-86.5001 77.9297,-93.5001"/>
<a xlink:href="dir_000010_000009.htm" target="_top" xlink:title="4">
<text text-anchor="middle" x="74.3351" y="-93.8393" font-family="Helvetica,sans-Serif" font-size="10.00">4</text>
</a>
</g>
<!-- dir_d5d2b510489cc5abb4523e6103f57ebc -->
<g id="node4" class="node"><title>dir_d5d2b510489cc5abb4523e6103f57ebc</title>
<a xlink:href="dir_d5d2b510489cc5abb4523e6103f57ebc.htm" target="_top" xlink:title="hosts">
<polygon fill="none" stroke="black" points="142,-36 88,-36 88,-1.77636e-14 142,-3.55271e-15 142,-36"/>
<text text-anchor="middle" x="115" y="-15.5" font-family="Helvetica,sans-Serif" font-size="10.00">hosts</text>
</a>
</g>
<!-- dir_f4a578a50d612bc2e8b518e29c6d0ea5&#45;&gt;dir_d5d2b510489cc5abb4523e6103f57ebc -->
<g id="edge5" class="edge"><title>dir_f4a578a50d612bc2e8b518e29c6d0ea5&#45;&gt;dir_d5d2b510489cc5abb4523e6103f57ebc</title>
<path fill="none" stroke="black" d="M55.2162,-71.8314C63.0663,-63.1337 73.4496,-52.5783 83.4049,-43.1265"/>
<polygon fill="black" stroke="black" points="85.9508,-45.5384 90.8853,-36.1628 81.1812,-40.4148 85.9508,-45.5384"/>
<a xlink:href="dir_000010_000036.htm" target="_top" xlink:title="2">
<text text-anchor="middle" x="85.2544" y="-47.5658" font-family="Helvetica,sans-Serif" font-size="10.00">2</text>
</a>
</g>
<!-- dir_c0aa0a1d2cd73f9e06de2fcae29b2a13 -->
<g id="node5" class="node"><title>dir_c0aa0a1d2cd73f9e06de2fcae29b2a13</title>
<a xlink:href="dir_c0aa0a1d2cd73f9e06de2fcae29b2a13.htm" target="_top" xlink:title="ime">
<polygon fill="white" stroke="red" points="142,-181 88,-181 88,-145 142,-145 142,-181"/>
<text text-anchor="middle" x="115" y="-160.5" font-family="Helvetica,sans-Serif" font-size="10.00">ime</text>
</a>
</g>
<!-- dir_f4a578a50d612bc2e8b518e29c6d0ea5&#45;&gt;dir_c0aa0a1d2cd73f9e06de2fcae29b2a13 -->
<g id="edge7" class="edge"><title>dir_f4a578a50d612bc2e8b518e29c6d0ea5&#45;&gt;dir_c0aa0a1d2cd73f9e06de2fcae29b2a13</title>
<path fill="none" stroke="black" d="M44.5702,-108.282C49.0531,-117.578 56.4923,-128.644 65,-137 69.1603,-141.086 74.0666,-144.863 79.1895,-148.199"/>
<polygon fill="black" stroke="black" points="77.5346,-151.287 87.9218,-153.374 81.1033,-145.265 77.5346,-151.287"/>
<a xlink:href="dir_000010_000016.htm" target="_top" xlink:title="1">
<text text-anchor="middle" x="72.9947" y="-149.397" font-family="Helvetica,sans-Serif" font-size="10.00">1</text>
</a>
</g>
<!-- dir_833350a745acf29e00c46ce65f7df7ae&#45;&gt;dir_d5d2b510489cc5abb4523e6103f57ebc -->
<g id="edge9" class="edge"><title>dir_833350a745acf29e00c46ce65f7df7ae&#45;&gt;dir_d5d2b510489cc5abb4523e6103f57ebc</title>
<path fill="none" stroke="black" d="M109.048,-71.8314C108.297,-64.131 108.076,-54.9743 108.385,-46.4166"/>
<polygon fill="black" stroke="black" points="111.879,-46.6161 109.024,-36.4133 104.893,-46.1697 111.879,-46.6161"/>
<a xlink:href="dir_000009_000036.htm" target="_top" xlink:title="1">
<text text-anchor="middle" x="114.484" y="-47.8844" font-family="Helvetica,sans-Serif" font-size="10.00">1</text>
</a>
</g>
<!-- dir_d5d2b510489cc5abb4523e6103f57ebc&#45;&gt;dir_f4a578a50d612bc2e8b518e29c6d0ea5 -->
<g id="edge11" class="edge"><title>dir_d5d2b510489cc5abb4523e6103f57ebc&#45;&gt;dir_f4a578a50d612bc2e8b518e29c6d0ea5</title>
<path fill="none" stroke="black" d="M102.563,-36.4133C94.7259,-45.0787 84.4215,-55.5464 74.5436,-64.9223"/>
<polygon fill="black" stroke="black" points="72.0561,-62.4561 67.121,-71.8314 76.8255,-67.5799 72.0561,-62.4561"/>
<a xlink:href="dir_000036_000010.htm" target="_top" xlink:title="2">
<text text-anchor="middle" x="72.7528" y="-55.4287" font-family="Helvetica,sans-Serif" font-size="10.00">2</text>
</a>
</g>
<!-- dir_d5d2b510489cc5abb4523e6103f57ebc&#45;&gt;dir_833350a745acf29e00c46ce65f7df7ae -->
<g id="edge13" class="edge"><title>dir_d5d2b510489cc5abb4523e6103f57ebc&#45;&gt;dir_833350a745acf29e00c46ce65f7df7ae</title>
<path fill="none" stroke="black" d="M120.976,-36.4133C121.707,-44.0593 121.92,-53.1084 121.615,-61.5726"/>
<polygon fill="black" stroke="black" points="118.105,-61.6264 120.952,-71.8314 125.09,-62.078 118.105,-61.6264"/>
<a xlink:href="dir_000036_000009.htm" target="_top" xlink:title="10">
<text text-anchor="middle" x="115.503" y="-55.3562" font-family="Helvetica,sans-Serif" font-size="10.00">10</text>
</a>
</g>
<!-- dir_c0aa0a1d2cd73f9e06de2fcae29b2a13&#45;&gt;dir_f4a578a50d612bc2e8b518e29c6d0ea5 -->
<g id="edge15" class="edge"><title>dir_c0aa0a1d2cd73f9e06de2fcae29b2a13&#45;&gt;dir_f4a578a50d612bc2e8b518e29c6d0ea5</title>
<path fill="none" stroke="black" d="M92.0273,-144.701C88.8618,-142.297 85.766,-139.717 83,-137 77.0181,-131.124 71.5643,-123.909 66.6178,-116.912"/>
<polygon fill="black" stroke="black" points="69.2023,-114.498 60.622,-108.282 63.4537,-118.492 69.2023,-114.498"/>
<a xlink:href="dir_000016_000010.htm" target="_top" xlink:title="5">
<text text-anchor="middle" x="73.5851" y="-113.33" font-family="Helvetica,sans-Serif" font-size="10.00">5</text>
</a>
</g>
<!-- dir_c0aa0a1d2cd73f9e06de2fcae29b2a13&#45;&gt;dir_833350a745acf29e00c46ce65f7df7ae -->
<g id="edge17" class="edge"><title>dir_c0aa0a1d2cd73f9e06de2fcae29b2a13&#45;&gt;dir_833350a745acf29e00c46ce65f7df7ae</title>
<path fill="none" stroke="black" d="M115,-144.955C115,-136.883 115,-127.176 115,-118.182"/>
<polygon fill="black" stroke="black" points="118.5,-118.09 115,-108.09 111.5,-118.09 118.5,-118.09"/>
<a xlink:href="dir_000016_000009.htm" target="_top" xlink:title="3">
<text text-anchor="middle" x="121.339" y="-119.185" font-family="Helvetica,sans-Serif" font-size="10.00">3</text>
</a>
</g>
<!-- dir_c0aa0a1d2cd73f9e06de2fcae29b2a13&#45;&gt;dir_d5d2b510489cc5abb4523e6103f57ebc -->
<g id="edge19" class="edge"><title>dir_c0aa0a1d2cd73f9e06de2fcae29b2a13&#45;&gt;dir_d5d2b510489cc5abb4523e6103f57ebc</title>
<path fill="none" stroke="black" d="M142.291,-147.858C145.798,-144.735 148.894,-141.119 151,-137 165.77,-108.113 161.575,-94.6725 151,-64 148.646,-57.1721 144.815,-50.5831 140.512,-44.6285"/>
<polygon fill="black" stroke="black" points="142.944,-42.0622 133.986,-36.4043 137.46,-46.4133 142.944,-42.0622"/>
<a xlink:href="dir_000016_000036.htm" target="_top" xlink:title="5">
<text text-anchor="middle" x="147.402" y="-40.6131" font-family="Helvetica,sans-Serif" font-size="10.00">5</text>
</a>
</g>
</g>
</svg>
