<?xml version="1.0" encoding="UTF-8" standalone="no"?>
<!DOCTYPE svg PUBLIC "-//W3C//DTD SVG 1.1//EN"
 "http://www.w3.org/Graphics/SVG/1.1/DTD/svg11.dtd">
<!-- Generated by graphviz version 2.26.3 (20100126.1600)
 -->
<!-- Title: G Pages: 1 -->
<svg width="744pt" height="549pt"
 viewBox="0.00 0.00 744.00 549.00" xmlns="http://www.w3.org/2000/svg" xmlns:xlink="http://www.w3.org/1999/xlink">
<g id="graph1" class="graph" transform="scale(1 1) rotate(0) translate(4 545)">
<title>G</title>
<polygon fill="white" stroke="white" points="-4,5 -4,-545 741,-545 741,5 -4,5"/>
<g id="graph2" class="cluster"><title>clusterdir_aafe48f257c75c61a4124f498f9cedbe</title>
<a xlink:href="dir_aafe48f257c75c61a4124f498f9cedbe.htm" target="_top" xlink:title="lunaui">
<polygon fill="#ddddee" stroke="black" points="187,-352 187,-425 257,-425 257,-352 187,-352"/>
<text text-anchor="middle" x="222" y="-412" font-family="Helvetica,sans-Serif" font-size="10.00">lunaui</text>
</a>
</g>
<!-- dir_df3fc620228f2b84eb37c7f5a522f701 -->
<g id="node2" class="node"><title>dir_df3fc620228f2b84eb37c7f5a522f701</title>
<a xlink:href="dir_df3fc620228f2b84eb37c7f5a522f701.htm" target="_top" xlink:title="dock">
<polygon fill="#eeeeff" stroke="black" points="249,-396 195,-396 195,-360 249,-360 249,-396"/>
<text text-anchor="middle" x="222" y="-375.5" font-family="Helvetica,sans-Serif" font-size="10.00">dock</text>
</a>
</g>
<!-- dir_571ef98c50e1bcc1898cbefc078f6d6e -->
<g id="node3" class="node"><title>dir_571ef98c50e1bcc1898cbefc078f6d6e</title>
<a xlink:href="dir_571ef98c50e1bcc1898cbefc078f6d6e.htm" target="_top" xlink:title="status&#45;bar">
<polygon fill="none" stroke="black" points="364,-469 302,-469 302,-433 364,-433 364,-469"/>
<text text-anchor="middle" x="333" y="-448.5" font-family="Helvetica,sans-Serif" font-size="10.00">status&#45;bar</text>
</a>
</g>
<!-- dir_df3fc620228f2b84eb37c7f5a522f701&#45;&gt;dir_571ef98c50e1bcc1898cbefc078f6d6e -->
<g id="edge45" class="edge"><title>dir_df3fc620228f2b84eb37c7f5a522f701&#45;&gt;dir_571ef98c50e1bcc1898cbefc078f6d6e</title>
<path fill="none" stroke="black" d="M222.254,-396.414C226.405,-406.215 234.07,-417.714 244,-425 254.435,-432.656 259.658,-429.104 272,-433 278.488,-435.048 285.391,-437.35 292.169,-439.605"/>
<polygon fill="black" stroke="black" points="291.355,-443.023 301.948,-442.842 293.554,-436.377 291.355,-443.023"/>
<a xlink:href="dir_000024_000015.htm" target="_top" xlink:title="5">
<text text-anchor="middle" x="287.05" y="-442.089" font-family="Helvetica,sans-Serif" font-size="10.00">5</text>
</a>
</g>
<!-- dir_b811646d7b97a8c5b5fa9cea902df2af -->
<g id="node4" class="node"><title>dir_b811646d7b97a8c5b5fa9cea902df2af</title>
<a xlink:href="dir_b811646d7b97a8c5b5fa9cea902df2af.htm" target="_top" xlink:title="lockscreen">
<polygon fill="none" stroke="black" points="405,-541 337,-541 337,-505 405,-505 405,-541"/>
<text text-anchor="middle" x="371" y="-520.5" font-family="Helvetica,sans-Serif" font-size="10.00">lockscreen</text>
</a>
</g>
<!-- dir_df3fc620228f2b84eb37c7f5a522f701&#45;&gt;dir_b811646d7b97a8c5b5fa9cea902df2af -->
<g id="edge47" class="edge"><title>dir_df3fc620228f2b84eb37c7f5a522f701&#45;&gt;dir_b811646d7b97a8c5b5fa9cea902df2af</title>
<path fill="none" stroke="black" d="M224.617,-396.201C228.363,-416.263 237.026,-448.414 256,-469 274.985,-489.598 303.437,-503.049 327.289,-511.374"/>
<polygon fill="black" stroke="black" points="326.257,-514.719 336.85,-514.529 328.45,-508.072 326.257,-514.719"/>
<a xlink:href="dir_000024_000019.htm" target="_top" xlink:title="2">
<text text-anchor="middle" x="321.953" y="-513.789" font-family="Helvetica,sans-Serif" font-size="10.00">2</text>
</a>
</g>
<!-- dir_8e8789dd72610b36487369c1f23008be -->
<g id="node5" class="node"><title>dir_8e8789dd72610b36487369c1f23008be</title>
<a xlink:href="dir_8e8789dd72610b36487369c1f23008be.htm" target="_top" xlink:title="webbase">
<polygon fill="none" stroke="black" points="426,-252 368,-252 368,-216 426,-216 426,-252"/>
<text text-anchor="middle" x="397" y="-231.5" font-family="Helvetica,sans-Serif" font-size="10.00">webbase</text>
</a>
</g>
<!-- dir_df3fc620228f2b84eb37c7f5a522f701&#45;&gt;dir_8e8789dd72610b36487369c1f23008be -->
<g id="edge49" class="edge"><title>dir_df3fc620228f2b84eb37c7f5a522f701&#45;&gt;dir_8e8789dd72610b36487369c1f23008be</title>
<path fill="none" stroke="black" d="M243.654,-359.785C246.785,-357.167 249.972,-354.511 253,-352 292.12,-319.568 337.502,-282.466 366.699,-258.662"/>
<polygon fill="black" stroke="black" points="368.946,-261.347 374.486,-252.316 364.523,-255.92 368.946,-261.347"/>
<a xlink:href="dir_000024_000041.htm" target="_top" xlink:title="5">
<text text-anchor="middle" x="367.953" y="-263.318" font-family="Helvetica,sans-Serif" font-size="10.00">5</text>
</a>
</g>
<!-- dir_c108e9adcb979d7ac671bad5e192b925 -->
<g id="node6" class="node"><title>dir_c108e9adcb979d7ac671bad5e192b925</title>
<a xlink:href="dir_c108e9adcb979d7ac671bad5e192b925.htm" target="_top" xlink:title="base">
<polygon fill="white" stroke="red" points="491,-396 437,-396 437,-360 491,-360 491,-396"/>
<text text-anchor="middle" x="464" y="-375.5" font-family="Helvetica,sans-Serif" font-size="10.00">base</text>
</a>
</g>
<!-- dir_df3fc620228f2b84eb37c7f5a522f701&#45;&gt;dir_c108e9adcb979d7ac671bad5e192b925 -->
<g id="edge51" class="edge"><title>dir_df3fc620228f2b84eb37c7f5a522f701&#45;&gt;dir_c108e9adcb979d7ac671bad5e192b925</title>
<path fill="none" stroke="black" d="M249.414,-378C308.447,-378 367.48,-378 426.512,-378"/>
<polygon fill="black" stroke="black" points="426.758,-381.5 436.758,-378 426.758,-374.5 426.758,-381.5"/>
<a xlink:href="dir_000024_000008.htm" target="_top" xlink:title="70">
<text text-anchor="middle" x="423.163" y="-381.839" font-family="Helvetica,sans-Serif" font-size="10.00">70</text>
</a>
</g>
<!-- dir_464952543f64026c6bd6d8785fc45163 -->
<g id="node7" class="node"><title>dir_464952543f64026c6bd6d8785fc45163</title>
<a xlink:href="dir_464952543f64026c6bd6d8785fc45163.htm" target="_top" xlink:title="cards">
<polygon fill="white" stroke="red" points="470,-180 416,-180 416,-144 470,-144 470,-180"/>
<text text-anchor="middle" x="443" y="-159.5" font-family="Helvetica,sans-Serif" font-size="10.00">cards</text>
</a>
</g>
<!-- dir_df3fc620228f2b84eb37c7f5a522f701&#45;&gt;dir_464952543f64026c6bd6d8785fc45163 -->
<g id="edge53" class="edge"><title>dir_df3fc620228f2b84eb37c7f5a522f701&#45;&gt;dir_464952543f64026c6bd6d8785fc45163</title>
<path fill="none" stroke="black" d="M229.509,-359.821C243.836,-327.098 277.976,-257.802 326,-216 349.285,-195.732 381.461,-181.624 406.178,-172.925"/>
<polygon fill="black" stroke="black" points="407.571,-176.149 415.927,-169.635 405.333,-169.516 407.571,-176.149"/>
<a xlink:href="dir_000024_000018.htm" target="_top" xlink:title="3">
<text text-anchor="middle" x="405.073" y="-177.488" font-family="Helvetica,sans-Serif" font-size="10.00">3</text>
</a>
</g>
<!-- dir_833350a745acf29e00c46ce65f7df7ae -->
<g id="node8" class="node"><title>dir_833350a745acf29e00c46ce65f7df7ae</title>
<a xlink:href="dir_833350a745acf29e00c46ce65f7df7ae.htm" target="_top" xlink:title="core">
<polygon fill="none" stroke="black" points="470,-36 416,-36 416,-1.77636e-14 470,-3.55271e-15 470,-36"/>
<text text-anchor="middle" x="443" y="-15.5" font-family="Helvetica,sans-Serif" font-size="10.00">core</text>
</a>
</g>
<!-- dir_df3fc620228f2b84eb37c7f5a522f701&#45;&gt;dir_833350a745acf29e00c46ce65f7df7ae -->
<g id="edge55" class="edge"><title>dir_df3fc620228f2b84eb37c7f5a522f701&#45;&gt;dir_833350a745acf29e00c46ce65f7df7ae</title>
<path fill="none" stroke="black" d="M194.85,-370.6C143.667,-354.814 38,-312.694 38,-234 38,-234 38,-234 38,-162 38,-84.3402 305.709,-37.7738 405.818,-23.0752"/>
<polygon fill="black" stroke="black" points="406.401,-26.5275 415.798,-21.6344 405.4,-19.5993 406.401,-26.5275"/>
<a xlink:href="dir_000024_000009.htm" target="_top" xlink:title="15">
<text text-anchor="middle" x="403.249" y="-27.3512" font-family="Helvetica,sans-Serif" font-size="10.00">15</text>
</a>
</g>
<!-- dir_023c91c44035a186c584180e65bb82b0 -->
<g id="node9" class="node"><title>dir_023c91c44035a186c584180e65bb82b0</title>
<a xlink:href="dir_023c91c44035a186c584180e65bb82b0.htm" target="_top" xlink:title="remote">
<polygon fill="none" stroke="black" points="320,-108 266,-108 266,-72 320,-72 320,-108"/>
<text text-anchor="middle" x="293" y="-87.5" font-family="Helvetica,sans-Serif" font-size="10.00">remote</text>
</a>
</g>
<!-- dir_df3fc620228f2b84eb37c7f5a522f701&#45;&gt;dir_023c91c44035a186c584180e65bb82b0 -->
<g id="edge57" class="edge"><title>dir_df3fc620228f2b84eb37c7f5a522f701&#45;&gt;dir_023c91c44035a186c584180e65bb82b0</title>
<path fill="none" stroke="black" d="M210.332,-359.945C185.086,-318.374 131.149,-214.098 176,-144 193.48,-116.68 228.686,-102.985 255.934,-96.2445"/>
<polygon fill="black" stroke="black" points="256.95,-99.6034 265.934,-93.9879 255.409,-92.7751 256.95,-99.6034"/>
<a xlink:href="dir_000024_000039.htm" target="_top" xlink:title="3">
<text text-anchor="middle" x="254.069" y="-100.664" font-family="Helvetica,sans-Serif" font-size="10.00">3</text>
</a>
</g>
<!-- dir_43608985bfc64723d35ec9abcf43881b -->
<g id="node10" class="node"><title>dir_43608985bfc64723d35ec9abcf43881b</title>
<a xlink:href="dir_43608985bfc64723d35ec9abcf43881b.htm" target="_top" xlink:title="notifications">
<polygon fill="none" stroke="black" points="433,-324 361,-324 361,-288 433,-288 433,-324"/>
<text text-anchor="middle" x="397" y="-303.5" font-family="Helvetica,sans-Serif" font-size="10.00">notifications</text>
</a>
</g>
<!-- dir_df3fc620228f2b84eb37c7f5a522f701&#45;&gt;dir_43608985bfc64723d35ec9abcf43881b -->
<g id="edge59" class="edge"><title>dir_df3fc620228f2b84eb37c7f5a522f701&#45;&gt;dir_43608985bfc64723d35ec9abcf43881b</title>
<path fill="none" stroke="black" d="M232.325,-359.99C235.912,-357.049 239.939,-354.237 244,-352 277.395,-333.602 319.262,-321.271 350.875,-314.047"/>
<polygon fill="black" stroke="black" points="351.737,-317.441 360.755,-311.879 350.237,-310.603 351.737,-317.441"/>
<a xlink:href="dir_000024_000003.htm" target="_top" xlink:title="2">
<text text-anchor="middle" x="348.835" y="-318.484" font-family="Helvetica,sans-Serif" font-size="10.00">2</text>
</a>
</g>
<!-- dir_571ef98c50e1bcc1898cbefc078f6d6e&#45;&gt;dir_df3fc620228f2b84eb37c7f5a522f701 -->
<g id="edge5" class="edge"><title>dir_571ef98c50e1bcc1898cbefc078f6d6e&#45;&gt;dir_df3fc620228f2b84eb37c7f5a522f701</title>
<path fill="none" stroke="black" d="M301.721,-436.827C297.797,-435.504 293.826,-434.208 290,-433 277.658,-429.104 272.435,-432.656 262,-425 254.863,-419.763 248.896,-412.35 243.766,-404.955"/>
<polygon fill="black" stroke="black" points="246.549,-402.818 238.108,-396.414 240.713,-406.684 246.549,-402.818"/>
<a xlink:href="dir_000015_000024.htm" target="_top" xlink:title="2">
<text text-anchor="middle" x="250.901" y="-401.747" font-family="Helvetica,sans-Serif" font-size="10.00">2</text>
</a>
</g>
<!-- dir_571ef98c50e1bcc1898cbefc078f6d6e&#45;&gt;dir_c108e9adcb979d7ac671bad5e192b925 -->
<g id="edge3" class="edge"><title>dir_571ef98c50e1bcc1898cbefc078f6d6e&#45;&gt;dir_c108e9adcb979d7ac671bad5e192b925</title>
<path fill="none" stroke="black" d="M361.186,-432.865C366.139,-430.282 371.217,-427.614 376,-425 393.092,-415.659 411.842,-404.542 427.76,-395.466"/>
<polygon fill="black" stroke="black" points="429.779,-398.346 436.771,-390.386 426.341,-392.248 429.779,-398.346"/>
<a xlink:href="dir_000015_000008.htm" target="_top" xlink:title="60">
<text text-anchor="middle" x="428.042" y="-400.084" font-family="Helvetica,sans-Serif" font-size="10.00">60</text>
</a>
</g>
<!-- dir_571ef98c50e1bcc1898cbefc078f6d6e&#45;&gt;dir_833350a745acf29e00c46ce65f7df7ae -->
<g id="edge7" class="edge"><title>dir_571ef98c50e1bcc1898cbefc078f6d6e&#45;&gt;dir_833350a745acf29e00c46ce65f7df7ae</title>
<path fill="none" stroke="black" d="M301.858,-447.419C264.345,-442.791 203.773,-434.226 183,-425 75.5554,-377.283 0,-351.564 0,-234 0,-234 0,-234 0,-162 0,-106.98 36.2446,-97.4965 85,-72 140.372,-43.0436 325.676,-26.4931 405.689,-20.5445"/>
<polygon fill="black" stroke="black" points="406.088,-24.0248 415.808,-19.8073 405.58,-17.0433 406.088,-24.0248"/>
<a xlink:href="dir_000015_000009.htm" target="_top" xlink:title="6">
<text text-anchor="middle" x="402.71" y="-24.6177" font-family="Helvetica,sans-Serif" font-size="10.00">6</text>
</a>
</g>
<!-- dir_571ef98c50e1bcc1898cbefc078f6d6e&#45;&gt;dir_023c91c44035a186c584180e65bb82b0 -->
<g id="edge9" class="edge"><title>dir_571ef98c50e1bcc1898cbefc078f6d6e&#45;&gt;dir_023c91c44035a186c584180e65bb82b0</title>
<path fill="none" stroke="black" d="M315.537,-432.781C314.496,-430.211 313.638,-427.569 313,-425 285.453,-314.021 283.083,-176.748 287.521,-118.391"/>
<polygon fill="black" stroke="black" points="291.035,-118.396 288.459,-108.119 284.064,-117.759 291.035,-118.396"/>
<a xlink:href="dir_000015_000039.htm" target="_top" xlink:title="3">
<text text-anchor="middle" x="293.535" y="-119.734" font-family="Helvetica,sans-Serif" font-size="10.00">3</text>
</a>
</g>
<!-- dir_571ef98c50e1bcc1898cbefc078f6d6e&#45;&gt;dir_43608985bfc64723d35ec9abcf43881b -->
<g id="edge11" class="edge"><title>dir_571ef98c50e1bcc1898cbefc078f6d6e&#45;&gt;dir_43608985bfc64723d35ec9abcf43881b</title>
<path fill="none" stroke="black" d="M343.016,-432.931C344.396,-430.291 345.762,-427.59 347,-425 361.694,-394.257 376.571,-358.054 386.231,-333.721"/>
<polygon fill="black" stroke="black" points="389.5,-334.972 389.913,-324.385 382.988,-332.404 389.5,-334.972"/>
<a xlink:href="dir_000015_000003.htm" target="_top" xlink:title="6">
<text text-anchor="middle" x="390.823" y="-336.858" font-family="Helvetica,sans-Serif" font-size="10.00">6</text>
</a>
</g>
<!-- dir_b811646d7b97a8c5b5fa9cea902df2af&#45;&gt;dir_df3fc620228f2b84eb37c7f5a522f701 -->
<g id="edge17" class="edge"><title>dir_b811646d7b97a8c5b5fa9cea902df2af&#45;&gt;dir_df3fc620228f2b84eb37c7f5a522f701</title>
<path fill="none" stroke="black" d="M341.685,-504.984C326.54,-495.123 308.116,-482.238 293,-469 273.118,-451.588 269.213,-445.871 253,-425 248.135,-418.738 243.241,-411.725 238.824,-405.065"/>
<polygon fill="black" stroke="black" points="241.522,-402.793 233.144,-396.308 235.649,-406.602 241.522,-402.793"/>
<a xlink:href="dir_000019_000024.htm" target="_top" xlink:title="1">
<text text-anchor="middle" x="245.86" y="-401.764" font-family="Helvetica,sans-Serif" font-size="10.00">1</text>
</a>
</g>
<!-- dir_b811646d7b97a8c5b5fa9cea902df2af&#45;&gt;dir_571ef98c50e1bcc1898cbefc078f6d6e -->
<g id="edge13" class="edge"><title>dir_b811646d7b97a8c5b5fa9cea902df2af&#45;&gt;dir_571ef98c50e1bcc1898cbefc078f6d6e</title>
<path fill="none" stroke="black" d="M361.411,-504.831C357.168,-496.792 352.088,-487.167 347.404,-478.292"/>
<polygon fill="black" stroke="black" points="350.481,-476.623 342.718,-469.413 344.29,-479.891 350.481,-476.623"/>
<a xlink:href="dir_000019_000015.htm" target="_top" xlink:title="2">
<text text-anchor="middle" x="354.67" y="-475.977" font-family="Helvetica,sans-Serif" font-size="10.00">2</text>
</a>
</g>
<!-- dir_b811646d7b97a8c5b5fa9cea902df2af&#45;&gt;dir_c108e9adcb979d7ac671bad5e192b925 -->
<g id="edge15" class="edge"><title>dir_b811646d7b97a8c5b5fa9cea902df2af&#45;&gt;dir_c108e9adcb979d7ac671bad5e192b925</title>
<path fill="none" stroke="black" d="M391.512,-504.912C401.874,-495.031 414.101,-482.15 423,-469 436.418,-449.172 447.295,-424.239 454.466,-405.487"/>
<polygon fill="black" stroke="black" points="457.773,-406.635 457.966,-396.042 451.209,-404.202 457.773,-406.635"/>
<a xlink:href="dir_000019_000008.htm" target="_top" xlink:title="28">
<text text-anchor="middle" x="459.187" y="-408.492" font-family="Helvetica,sans-Serif" font-size="10.00">28</text>
</a>
</g>
<!-- dir_b811646d7b97a8c5b5fa9cea902df2af&#45;&gt;dir_464952543f64026c6bd6d8785fc45163 -->
<g id="edge19" class="edge"><title>dir_b811646d7b97a8c5b5fa9cea902df2af&#45;&gt;dir_464952543f64026c6bd6d8785fc45163</title>
<path fill="none" stroke="black" d="M405.236,-508.448C436.684,-492.951 481.174,-465.098 500,-425 518.715,-385.14 483.853,-225.837 480,-216 476.247,-206.419 470.52,-196.86 464.685,-188.506"/>
<polygon fill="black" stroke="black" points="467.386,-186.271 458.643,-180.286 461.745,-190.416 467.386,-186.271"/>
<a xlink:href="dir_000019_000018.htm" target="_top" xlink:title="1">
<text text-anchor="middle" x="471.802" y="-184.986" font-family="Helvetica,sans-Serif" font-size="10.00">1</text>
</a>
</g>
<!-- dir_b811646d7b97a8c5b5fa9cea902df2af&#45;&gt;dir_833350a745acf29e00c46ce65f7df7ae -->
<g id="edge21" class="edge"><title>dir_b811646d7b97a8c5b5fa9cea902df2af&#45;&gt;dir_833350a745acf29e00c46ce65f7df7ae</title>
<path fill="none" stroke="black" d="M405.011,-517.037C495.622,-500.191 736,-448.827 736,-378 736,-378 736,-378 736,-162 736,-105.586 558.84,-49.8372 480.034,-27.8293"/>
<polygon fill="black" stroke="black" points="480.61,-24.3575 470.04,-25.072 478.749,-31.1054 480.61,-24.3575"/>
<a xlink:href="dir_000019_000009.htm" target="_top" xlink:title="9">
<text text-anchor="middle" x="484.83" y="-20.0763" font-family="Helvetica,sans-Serif" font-size="10.00">9</text>
</a>
</g>
<!-- dir_b811646d7b97a8c5b5fa9cea902df2af&#45;&gt;dir_023c91c44035a186c584180e65bb82b0 -->
<g id="edge23" class="edge"><title>dir_b811646d7b97a8c5b5fa9cea902df2af&#45;&gt;dir_023c91c44035a186c584180e65bb82b0</title>
<path fill="none" stroke="black" d="M336.872,-513.981C259.218,-492.455 76,-435.567 76,-378 76,-378 76,-378 76,-234 76,-148.555 194.252,-110.79 256.169,-96.8721"/>
<polygon fill="black" stroke="black" points="256.916,-100.292 265.956,-94.7654 255.443,-93.4483 256.916,-100.292"/>
<a xlink:href="dir_000019_000039.htm" target="_top" xlink:title="2">
<text text-anchor="middle" x="253.999" y="-101.324" font-family="Helvetica,sans-Serif" font-size="10.00">2</text>
</a>
</g>
<!-- dir_b811646d7b97a8c5b5fa9cea902df2af&#45;&gt;dir_43608985bfc64723d35ec9abcf43881b -->
<g id="edge25" class="edge"><title>dir_b811646d7b97a8c5b5fa9cea902df2af&#45;&gt;dir_43608985bfc64723d35ec9abcf43881b</title>
<path fill="none" stroke="black" d="M373.172,-504.872C377.703,-467.057 388.19,-379.526 393.615,-334.255"/>
<polygon fill="black" stroke="black" points="397.101,-334.574 394.816,-324.229 390.151,-333.742 397.101,-334.574"/>
<a xlink:href="dir_000019_000003.htm" target="_top" xlink:title="5">
<text text-anchor="middle" x="399.493" y="-335.981" font-family="Helvetica,sans-Serif" font-size="10.00">5</text>
</a>
</g>
<!-- dir_8e8789dd72610b36487369c1f23008be&#45;&gt;dir_c108e9adcb979d7ac671bad5e192b925 -->
<g id="edge27" class="edge"><title>dir_8e8789dd72610b36487369c1f23008be&#45;&gt;dir_c108e9adcb979d7ac671bad5e192b925</title>
<path fill="none" stroke="black" d="M416.022,-252.458C425.104,-262.243 435.404,-274.925 442,-288 451.811,-307.448 457.399,-331.505 460.486,-349.853"/>
<polygon fill="black" stroke="black" points="457.054,-350.563 462.027,-359.918 463.973,-349.504 457.054,-350.563"/>
<a xlink:href="dir_000041_000008.htm" target="_top" xlink:title="53">
<text text-anchor="middle" x="453.703" y="-344.94" font-family="Helvetica,sans-Serif" font-size="10.00">53</text>
</a>
</g>
<!-- dir_8e8789dd72610b36487369c1f23008be&#45;&gt;dir_464952543f64026c6bd6d8785fc45163 -->
<g id="edge29" class="edge"><title>dir_8e8789dd72610b36487369c1f23008be&#45;&gt;dir_464952543f64026c6bd6d8785fc45163</title>
<path fill="none" stroke="black" d="M402.655,-215.831C407.1,-207.623 413.202,-197.761 419.374,-188.732"/>
<polygon fill="black" stroke="black" points="422.341,-190.598 425.26,-180.413 416.627,-186.555 422.341,-190.598"/>
<a xlink:href="dir_000041_000018.htm" target="_top" xlink:title="2">
<text text-anchor="middle" x="422.583" y="-192.672" font-family="Helvetica,sans-Serif" font-size="10.00">2</text>
</a>
</g>
<!-- dir_8e8789dd72610b36487369c1f23008be&#45;&gt;dir_833350a745acf29e00c46ce65f7df7ae -->
<g id="edge31" class="edge"><title>dir_8e8789dd72610b36487369c1f23008be&#45;&gt;dir_833350a745acf29e00c46ce65f7df7ae</title>
<path fill="none" stroke="black" d="M398.113,-215.935C399.448,-197.666 402.139,-168.68 407,-144 413.762,-109.668 425.394,-71.1068 433.603,-45.7918"/>
<polygon fill="black" stroke="black" points="436.982,-46.7211 436.779,-36.1282 430.332,-44.5353 436.982,-46.7211"/>
<a xlink:href="dir_000041_000009.htm" target="_top" xlink:title="19">
<text text-anchor="middle" x="438.557" y="-48.5226" font-family="Helvetica,sans-Serif" font-size="10.00">19</text>
</a>
</g>
<!-- dir_8e8789dd72610b36487369c1f23008be&#45;&gt;dir_43608985bfc64723d35ec9abcf43881b -->
<g id="edge33" class="edge"><title>dir_8e8789dd72610b36487369c1f23008be&#45;&gt;dir_43608985bfc64723d35ec9abcf43881b</title>
<path fill="none" stroke="black" d="M402.976,-252.413C403.707,-260.059 403.92,-269.108 403.615,-277.573"/>
<polygon fill="black" stroke="black" points="400.105,-277.626 402.952,-287.831 407.09,-278.078 400.105,-277.626"/>
<a xlink:href="dir_000041_000003.htm" target="_top" xlink:title="2">
<text text-anchor="middle" x="397.503" y="-271.356" font-family="Helvetica,sans-Serif" font-size="10.00">2</text>
</a>
</g>
<!-- dir_c108e9adcb979d7ac671bad5e192b925&#45;&gt;dir_571ef98c50e1bcc1898cbefc078f6d6e -->
<g id="edge35" class="edge"><title>dir_c108e9adcb979d7ac671bad5e192b925&#45;&gt;dir_571ef98c50e1bcc1898cbefc078f6d6e</title>
<path fill="none" stroke="black" d="M442.755,-396.149C428.907,-405.096 410.665,-415.892 394,-425 387.485,-428.561 380.42,-432.222 373.446,-435.632"/>
<polygon fill="black" stroke="black" points="371.584,-432.642 364.053,-440.093 374.587,-438.965 371.584,-432.642"/>
<a xlink:href="dir_000008_000015.htm" target="_top" xlink:title="3">
<text text-anchor="middle" x="373.613" y="-426.035" font-family="Helvetica,sans-Serif" font-size="10.00">3</text>
</a>
</g>
<!-- dir_c108e9adcb979d7ac671bad5e192b925&#45;&gt;dir_464952543f64026c6bd6d8785fc45163 -->
<g id="edge37" class="edge"><title>dir_c108e9adcb979d7ac671bad5e192b925&#45;&gt;dir_464952543f64026c6bd6d8785fc45163</title>
<path fill="none" stroke="black" d="M457.632,-359.699C455.788,-341.494 455.851,-312.776 454,-288 451.593,-255.783 449.165,-247.892 444,-216 442.665,-207.754 441.072,-198.828 439.915,-190.653"/>
<polygon fill="black" stroke="black" points="443.36,-189.976 438.704,-180.459 436.409,-190.802 443.36,-189.976"/>
<a xlink:href="dir_000008_000018.htm" target="_top" xlink:title="4">
<text text-anchor="middle" x="446.603" y="-190.71" font-family="Helvetica,sans-Serif" font-size="10.00">4</text>
</a>
</g>
<!-- dir_c108e9adcb979d7ac671bad5e192b925&#45;&gt;dir_833350a745acf29e00c46ce65f7df7ae -->
<g id="edge39" class="edge"><title>dir_c108e9adcb979d7ac671bad5e192b925&#45;&gt;dir_833350a745acf29e00c46ce65f7df7ae</title>
<path fill="none" stroke="black" d="M478.423,-359.833C487.72,-350.302 498.826,-337.754 505,-324 524.699,-280.118 515.643,-263.963 512,-216 507.004,-150.22 507.49,-129.969 476,-72 470.867,-62.5502 464.11,-53.0296 457.92,-44.6705"/>
<polygon fill="black" stroke="black" points="460.553,-42.3481 451.765,-36.4315 454.946,-46.5375 460.553,-42.3481"/>
<a xlink:href="dir_000008_000009.htm" target="_top" xlink:title="60">
<text text-anchor="middle" x="464.979" y="-41.0285" font-family="Helvetica,sans-Serif" font-size="10.00">60</text>
</a>
</g>
<!-- dir_c108e9adcb979d7ac671bad5e192b925&#45;&gt;dir_023c91c44035a186c584180e65bb82b0 -->
<g id="edge41" class="edge"><title>dir_c108e9adcb979d7ac671bad5e192b925&#45;&gt;dir_023c91c44035a186c584180e65bb82b0</title>
<path fill="none" stroke="black" d="M466.046,-359.609C469.998,-349.437 475.473,-336.38 478,-324 488.364,-273.22 499.965,-181.677 470,-144 452.293,-121.735 376.738,-105.312 330.138,-96.7351"/>
<polygon fill="black" stroke="black" points="330.562,-93.2551 320.1,-94.9245 329.319,-100.144 330.562,-93.2551"/>
<a xlink:href="dir_000008_000039.htm" target="_top" xlink:title="10">
<text text-anchor="middle" x="334.603" y="-88.5989" font-family="Helvetica,sans-Serif" font-size="10.00">10</text>
</a>
</g>
<!-- dir_c108e9adcb979d7ac671bad5e192b925&#45;&gt;dir_43608985bfc64723d35ec9abcf43881b -->
<g id="edge43" class="edge"><title>dir_c108e9adcb979d7ac671bad5e192b925&#45;&gt;dir_43608985bfc64723d35ec9abcf43881b</title>
<path fill="none" stroke="black" d="M441.141,-359.831C432.529,-351.454 422.94,-341.353 414.836,-332.175"/>
<polygon fill="black" stroke="black" points="417.334,-329.711 408.159,-324.413 412.027,-334.277 417.334,-329.711"/>
<a xlink:href="dir_000008_000003.htm" target="_top" xlink:title="2">
<text text-anchor="middle" x="421.83" y="-328.085" font-family="Helvetica,sans-Serif" font-size="10.00">2</text>
</a>
</g>
<!-- dir_464952543f64026c6bd6d8785fc45163&#45;&gt;dir_571ef98c50e1bcc1898cbefc078f6d6e -->
<g id="edge61" class="edge"><title>dir_464952543f64026c6bd6d8785fc45163&#45;&gt;dir_571ef98c50e1bcc1898cbefc078f6d6e</title>
<path fill="none" stroke="black" d="M415.983,-171.958C396.74,-180.547 372.06,-194.927 359,-216 318.677,-281.061 323.303,-376.028 328.789,-422.812"/>
<polygon fill="black" stroke="black" points="325.33,-423.353 330.066,-432.831 332.274,-422.468 325.33,-423.353"/>
<a xlink:href="dir_000018_000015.htm" target="_top" xlink:title="2">
<text text-anchor="middle" x="322.059" y="-417.647" font-family="Helvetica,sans-Serif" font-size="10.00">2</text>
</a>
</g>
<!-- dir_464952543f64026c6bd6d8785fc45163&#45;&gt;dir_8e8789dd72610b36487369c1f23008be -->
<g id="edge63" class="edge"><title>dir_464952543f64026c6bd6d8785fc45163&#45;&gt;dir_8e8789dd72610b36487369c1f23008be</title>
<path fill="none" stroke="black" d="M437.212,-180.413C432.735,-188.654 426.615,-198.525 420.443,-207.536"/>
<polygon fill="black" stroke="black" points="417.49,-205.65 414.56,-215.831 423.2,-209.699 417.49,-205.65"/>
<a xlink:href="dir_000018_000041.htm" target="_top" xlink:title="7">
<text text-anchor="middle" x="417.253" y="-198.575" font-family="Helvetica,sans-Serif" font-size="10.00">7</text>
</a>
</g>
<!-- dir_464952543f64026c6bd6d8785fc45163&#45;&gt;dir_c108e9adcb979d7ac671bad5e192b925 -->
<g id="edge65" class="edge"><title>dir_464952543f64026c6bd6d8785fc45163&#45;&gt;dir_c108e9adcb979d7ac671bad5e192b925</title>
<path fill="none" stroke="black" d="M454.558,-180.459C457.627,-190.874 460.079,-204.141 462,-216 467.165,-247.892 469.593,-255.783 472,-288 473.533,-308.518 473.753,-331.739 472.381,-349.454"/>
<polygon fill="black" stroke="black" points="468.869,-349.392 471.319,-359.699 475.832,-350.114 468.869,-349.392"/>
<a xlink:href="dir_000018_000008.htm" target="_top" xlink:title="76">
<text text-anchor="middle" x="466.416" y="-343.023" font-family="Helvetica,sans-Serif" font-size="10.00">76</text>
</a>
</g>
<!-- dir_464952543f64026c6bd6d8785fc45163&#45;&gt;dir_833350a745acf29e00c46ce65f7df7ae -->
<g id="edge67" class="edge"><title>dir_464952543f64026c6bd6d8785fc45163&#45;&gt;dir_833350a745acf29e00c46ce65f7df7ae</title>
<path fill="none" stroke="black" d="M443,-143.762C443,-119.201 443,-75.2474 443,-46.3541"/>
<polygon fill="black" stroke="black" points="446.5,-46.0896 443,-36.0896 439.5,-46.0897 446.5,-46.0896"/>
<a xlink:href="dir_000018_000009.htm" target="_top" xlink:title="20">
<text text-anchor="middle" x="449.339" y="-47.1842" font-family="Helvetica,sans-Serif" font-size="10.00">20</text>
</a>
</g>
<!-- dir_464952543f64026c6bd6d8785fc45163&#45;&gt;dir_023c91c44035a186c584180e65bb82b0 -->
<g id="edge69" class="edge"><title>dir_464952543f64026c6bd6d8785fc45163&#45;&gt;dir_023c91c44035a186c584180e65bb82b0</title>
<path fill="none" stroke="black" d="M415.912,-151.376C391.566,-140.599 355.856,-123.648 329.124,-110.288"/>
<polygon fill="black" stroke="black" points="330.582,-107.103 320.077,-105.728 327.432,-113.354 330.582,-107.103"/>
<a xlink:href="dir_000018_000039.htm" target="_top" xlink:title="4">
<text text-anchor="middle" x="335.07" y="-103.686" font-family="Helvetica,sans-Serif" font-size="10.00">4</text>
</a>
</g>
<!-- dir_464952543f64026c6bd6d8785fc45163&#45;&gt;dir_43608985bfc64723d35ec9abcf43881b -->
<g id="edge71" class="edge"><title>dir_464952543f64026c6bd6d8785fc45163&#45;&gt;dir_43608985bfc64723d35ec9abcf43881b</title>
<path fill="none" stroke="black" d="M444.099,-180.185C444.608,-198.801 443.682,-228.284 435,-252 431.432,-261.747 425.634,-271.355 419.63,-279.702"/>
<polygon fill="black" stroke="black" points="416.661,-277.823 413.383,-287.898 422.229,-282.066 416.661,-277.823"/>
<a xlink:href="dir_000018_000003.htm" target="_top" xlink:title="2">
<text text-anchor="middle" x="416.582" y="-270.743" font-family="Helvetica,sans-Serif" font-size="10.00">2</text>
</a>
</g>
<!-- dir_833350a745acf29e00c46ce65f7df7ae&#45;&gt;dir_c108e9adcb979d7ac671bad5e192b925 -->
<g id="edge73" class="edge"><title>dir_833350a745acf29e00c46ce65f7df7ae&#45;&gt;dir_c108e9adcb979d7ac671bad5e192b925</title>
<path fill="none" stroke="black" d="M467.816,-36.4315C477.221,-46.4067 487.084,-59.2676 494,-72 525.49,-129.969 525.004,-150.22 530,-216 533.643,-263.963 542.699,-280.118 523,-324 517.591,-336.049 508.399,-347.171 498.767,-356.151"/>
<polygon fill="black" stroke="black" points="496.278,-353.677 491.013,-362.871 500.862,-358.967 496.278,-353.677"/>
<a xlink:href="dir_000009_000008.htm" target="_top" xlink:title="2">
<text text-anchor="middle" x="497.135" y="-346.677" font-family="Helvetica,sans-Serif" font-size="10.00">2</text>
</a>
</g>
<!-- dir_023c91c44035a186c584180e65bb82b0&#45;&gt;dir_df3fc620228f2b84eb37c7f5a522f701 -->
<g id="edge81" class="edge"><title>dir_023c91c44035a186c584180e65bb82b0&#45;&gt;dir_df3fc620228f2b84eb37c7f5a522f701</title>
<path fill="none" stroke="black" d="M265.924,-92.3293C234.19,-96.6538 182.793,-108.974 158,-144 111.641,-209.494 134.278,-253.178 172,-324 177.518,-334.361 185.516,-344.24 193.502,-352.649"/>
<polygon fill="black" stroke="black" points="191.223,-355.319 200.762,-359.929 196.179,-350.377 191.223,-355.319"/>
<a xlink:href="dir_000039_000024.htm" target="_top" xlink:title="1">
<text text-anchor="middle" x="186.674" y="-352.279" font-family="Helvetica,sans-Serif" font-size="10.00">1</text>
</a>
</g>
<!-- dir_023c91c44035a186c584180e65bb82b0&#45;&gt;dir_571ef98c50e1bcc1898cbefc078f6d6e -->
<g id="edge75" class="edge"><title>dir_023c91c44035a186c584180e65bb82b0&#45;&gt;dir_571ef98c50e1bcc1898cbefc078f6d6e</title>
<path fill="none" stroke="black" d="M296.734,-108.119C300.773,-157.605 301.634,-299.135 330.925,-422.777"/>
<polygon fill="black" stroke="black" points="327.596,-423.896 333.368,-432.781 334.396,-422.236 327.596,-423.896"/>
<a xlink:href="dir_000039_000015.htm" target="_top" xlink:title="1">
<text text-anchor="middle" x="323.985" y="-418.578" font-family="Helvetica,sans-Serif" font-size="10.00">1</text>
</a>
</g>
<!-- dir_023c91c44035a186c584180e65bb82b0&#45;&gt;dir_8e8789dd72610b36487369c1f23008be -->
<g id="edge77" class="edge"><title>dir_023c91c44035a186c584180e65bb82b0&#45;&gt;dir_8e8789dd72610b36487369c1f23008be</title>
<path fill="none" stroke="black" d="M306.065,-108.09C324.136,-133.112 356.89,-178.463 377.762,-207.362"/>
<polygon fill="black" stroke="black" points="375.136,-209.705 383.828,-215.762 380.811,-205.606 375.136,-209.705"/>
<a xlink:href="dir_000039_000041.htm" target="_top" xlink:title="2">
<text text-anchor="middle" x="370.73" y="-205.953" font-family="Helvetica,sans-Serif" font-size="10.00">2</text>
</a>
</g>
<!-- dir_023c91c44035a186c584180e65bb82b0&#45;&gt;dir_c108e9adcb979d7ac671bad5e192b925 -->
<g id="edge79" class="edge"><title>dir_023c91c44035a186c584180e65bb82b0&#45;&gt;dir_c108e9adcb979d7ac671bad5e192b925</title>
<path fill="none" stroke="black" d="M320.07,-93.205C368.854,-100.165 467.436,-118.144 488,-144 517.965,-181.677 506.364,-273.22 496,-324 494.164,-332.995 490.772,-342.347 486.754,-350.691"/>
<polygon fill="black" stroke="black" points="483.615,-349.138 482.001,-359.609 489.793,-352.43 483.615,-349.138"/>
<a xlink:href="dir_000039_000008.htm" target="_top" xlink:title="24">
<text text-anchor="middle" x="482.8" y="-342.131" font-family="Helvetica,sans-Serif" font-size="10.00">24</text>
</a>
</g>
<!-- dir_023c91c44035a186c584180e65bb82b0&#45;&gt;dir_464952543f64026c6bd6d8785fc45163 -->
<g id="edge83" class="edge"><title>dir_023c91c44035a186c584180e65bb82b0&#45;&gt;dir_464952543f64026c6bd6d8785fc45163</title>
<path fill="none" stroke="black" d="M320.128,-100.641C344.431,-111.401 380.039,-128.303 406.741,-141.644"/>
<polygon fill="black" stroke="black" points="405.276,-144.825 415.781,-146.199 408.425,-138.574 405.276,-144.825"/>
<a xlink:href="dir_000039_000018.htm" target="_top" xlink:title="4">
<text text-anchor="middle" x="400.788" y="-143.244" font-family="Helvetica,sans-Serif" font-size="10.00">4</text>
</a>
</g>
<!-- dir_023c91c44035a186c584180e65bb82b0&#45;&gt;dir_833350a745acf29e00c46ce65f7df7ae -->
<g id="edge85" class="edge"><title>dir_023c91c44035a186c584180e65bb82b0&#45;&gt;dir_833350a745acf29e00c46ce65f7df7ae</title>
<path fill="none" stroke="black" d="M320.164,-76.9613C344.406,-65.325 380.092,-48.1956 406.762,-35.3944"/>
<polygon fill="black" stroke="black" points="408.285,-38.5458 415.785,-31.0631 405.255,-32.2351 408.285,-38.5458"/>
<a xlink:href="dir_000039_000009.htm" target="_top" xlink:title="5">
<text text-anchor="middle" x="406.273" y="-40.1609" font-family="Helvetica,sans-Serif" font-size="10.00">5</text>
</a>
</g>
<!-- dir_023c91c44035a186c584180e65bb82b0&#45;&gt;dir_43608985bfc64723d35ec9abcf43881b -->
<g id="edge87" class="edge"><title>dir_023c91c44035a186c584180e65bb82b0&#45;&gt;dir_43608985bfc64723d35ec9abcf43881b</title>
<path fill="none" stroke="black" d="M304.314,-108.124C317.999,-138.752 340.574,-202.27 368,-252 373.095,-261.238 379.438,-270.813 385.055,-279.289"/>
<polygon fill="black" stroke="black" points="382.143,-281.231 390.562,-287.663 387.991,-277.385 382.143,-281.231"/>
<a xlink:href="dir_000039_000003.htm" target="_top" xlink:title="3">
<text text-anchor="middle" x="377.796" y="-277.288" font-family="Helvetica,sans-Serif" font-size="10.00">3</text>
</a>
</g>
<!-- dir_43608985bfc64723d35ec9abcf43881b&#45;&gt;dir_df3fc620228f2b84eb37c7f5a522f701 -->
<g id="edge93" class="edge"><title>dir_43608985bfc64723d35ec9abcf43881b&#45;&gt;dir_df3fc620228f2b84eb37c7f5a522f701</title>
<path fill="none" stroke="black" d="M360.923,-315.251C332.803,-322.609 293.607,-334.587 262,-352 260.52,-352.816 259.044,-353.708 257.577,-354.654"/>
<polygon fill="black" stroke="black" points="255.436,-351.882 249.31,-360.526 259.489,-357.589 255.436,-351.882"/>
<a xlink:href="dir_000003_000024.htm" target="_top" xlink:title="2">
<text text-anchor="middle" x="256.722" y="-344.986" font-family="Helvetica,sans-Serif" font-size="10.00">2</text>
</a>
</g>
<!-- dir_43608985bfc64723d35ec9abcf43881b&#45;&gt;dir_8e8789dd72610b36487369c1f23008be -->
<g id="edge89" class="edge"><title>dir_43608985bfc64723d35ec9abcf43881b&#45;&gt;dir_8e8789dd72610b36487369c1f23008be</title>
<path fill="none" stroke="black" d="M391.048,-287.831C390.297,-280.131 390.076,-270.974 390.385,-262.417"/>
<polygon fill="black" stroke="black" points="393.879,-262.616 391.024,-252.413 386.893,-262.17 393.879,-262.616"/>
<a xlink:href="dir_000003_000041.htm" target="_top" xlink:title="6">
<text text-anchor="middle" x="396.484" y="-263.884" font-family="Helvetica,sans-Serif" font-size="10.00">6</text>
</a>
</g>
<!-- dir_43608985bfc64723d35ec9abcf43881b&#45;&gt;dir_c108e9adcb979d7ac671bad5e192b925 -->
<g id="edge91" class="edge"><title>dir_43608985bfc64723d35ec9abcf43881b&#45;&gt;dir_c108e9adcb979d7ac671bad5e192b925</title>
<path fill="none" stroke="black" d="M419.853,-324.163C428.531,-332.604 438.202,-342.796 446.345,-352.03"/>
<polygon fill="black" stroke="black" points="443.875,-354.526 453.045,-359.831 449.185,-349.965 443.875,-354.526"/>
<a xlink:href="dir_000003_000008.htm" target="_top" xlink:title="77">
<text text-anchor="middle" x="439.379" y="-351.149" font-family="Helvetica,sans-Serif" font-size="10.00">77</text>
</a>
</g>
<!-- dir_43608985bfc64723d35ec9abcf43881b&#45;&gt;dir_833350a745acf29e00c46ce65f7df7ae -->
<g id="edge95" class="edge"><title>dir_43608985bfc64723d35ec9abcf43881b&#45;&gt;dir_833350a745acf29e00c46ce65f7df7ae</title>
<path fill="none" stroke="black" d="M420.158,-287.987C431.33,-278.316 444.185,-265.6 453,-252 471.504,-223.45 473.134,-213.513 479,-180 487.328,-132.42 469.307,-77.6784 455.878,-45.563"/>
<polygon fill="black" stroke="black" points="459.077,-44.142 451.892,-36.3556 452.653,-46.9231 459.077,-44.142"/>
<a xlink:href="dir_000003_000009.htm" target="_top" xlink:title="15">
<text text-anchor="middle" x="463.11" y="-43.8128" font-family="Helvetica,sans-Serif" font-size="10.00">15</text>
</a>
</g>
<!-- dir_43608985bfc64723d35ec9abcf43881b&#45;&gt;dir_023c91c44035a186c584180e65bb82b0 -->
<g id="edge97" class="edge"><title>dir_43608985bfc64723d35ec9abcf43881b&#45;&gt;dir_023c91c44035a186c584180e65bb82b0</title>
<path fill="none" stroke="black" d="M374.608,-287.663C365.995,-277.506 356.865,-264.447 350,-252 325.252,-207.127 304.454,-151.026 295.729,-117.995"/>
<polygon fill="black" stroke="black" points="299.092,-117.015 293.33,-108.124 292.29,-118.668 299.092,-117.015"/>
<a xlink:href="dir_000003_000039.htm" target="_top" xlink:title="10">
<text text-anchor="middle" x="302.7" y="-117.338" font-family="Helvetica,sans-Serif" font-size="10.00">10</text>
</a>
</g>
</g>
</svg>
