<?xml version="1.0" encoding="UTF-8" standalone="no"?>
<!DOCTYPE svg PUBLIC "-//W3C//DTD SVG 1.1//EN"
 "http://www.w3.org/Graphics/SVG/1.1/DTD/svg11.dtd">
<!-- Generated by graphviz version 2.26.3 (20100126.1600)
 -->
<!-- Title: G Pages: 1 -->
<svg width="182pt" height="297pt"
 viewBox="0.00 0.00 182.00 297.00" xmlns="http://www.w3.org/2000/svg" xmlns:xlink="http://www.w3.org/1999/xlink">
<g id="graph1" class="graph" transform="scale(1 1) rotate(0) translate(4 293)">
<title>G</title>
<polygon fill="white" stroke="white" points="-4,5 -4,-293 179,-293 179,5 -4,5"/>
<g id="graph2" class="cluster"><title>clusterdir_2379609c2cf538e59e9646141f42f407</title>
<a xlink:href="dir_2379609c2cf538e59e9646141f42f407.htm" target="_top" xlink:title="Src">
<polygon fill="#ddddee" stroke="black" points="8,-208 8,-281 78,-281 78,-208 8,-208"/>
<text text-anchor="middle" x="43" y="-268" font-family="Helvetica,sans-Serif" font-size="10.00">Src</text>
</a>
</g>
<!-- dir_3772266c805c3591433847390dc69f35 -->
<g id="node2" class="node"><title>dir_3772266c805c3591433847390dc69f35</title>
<a xlink:href="dir_3772266c805c3591433847390dc69f35.htm" target="_top" xlink:title="js">
<polygon fill="#eeeeff" stroke="black" points="70,-252 16,-252 16,-216 70,-216 70,-252"/>
<text text-anchor="middle" x="43" y="-231.5" font-family="Helvetica,sans-Serif" font-size="10.00">js</text>
</a>
</g>
<!-- dir_8e8789dd72610b36487369c1f23008be -->
<g id="node3" class="node"><title>dir_8e8789dd72610b36487369c1f23008be</title>
<a xlink:href="dir_8e8789dd72610b36487369c1f23008be.htm" target="_top" xlink:title="webbase">
<polygon fill="none" stroke="black" points="174,-252 116,-252 116,-216 174,-216 174,-252"/>
<text text-anchor="middle" x="145" y="-231.5" font-family="Helvetica,sans-Serif" font-size="10.00">webbase</text>
</a>
</g>
<!-- dir_3772266c805c3591433847390dc69f35&#45;&gt;dir_8e8789dd72610b36487369c1f23008be -->
<g id="edge15" class="edge"><title>dir_3772266c805c3591433847390dc69f35&#45;&gt;dir_8e8789dd72610b36487369c1f23008be</title>
<path fill="none" stroke="black" d="M70.0938,-234C81.8619,-234 93.63,-234 105.398,-234"/>
<polygon fill="black" stroke="black" points="105.74,-237.5 115.74,-234 105.74,-230.5 105.74,-237.5"/>
<a xlink:href="dir_000040_000041.htm" target="_top" xlink:title="6">
<text text-anchor="middle" x="102.145" y="-237.839" font-family="Helvetica,sans-Serif" font-size="10.00">6</text>
</a>
</g>
<!-- dir_c108e9adcb979d7ac671bad5e192b925 -->
<g id="node4" class="node"><title>dir_c108e9adcb979d7ac671bad5e192b925</title>
<a xlink:href="dir_c108e9adcb979d7ac671bad5e192b925.htm" target="_top" xlink:title="base">
<polygon fill="white" stroke="red" points="70,-180 16,-180 16,-144 70,-144 70,-180"/>
<text text-anchor="middle" x="43" y="-159.5" font-family="Helvetica,sans-Serif" font-size="10.00">base</text>
</a>
</g>
<!-- dir_3772266c805c3591433847390dc69f35&#45;&gt;dir_c108e9adcb979d7ac671bad5e192b925 -->
<g id="edge17" class="edge"><title>dir_3772266c805c3591433847390dc69f35&#45;&gt;dir_c108e9adcb979d7ac671bad5e192b925</title>
<path fill="none" stroke="black" d="M43,-215.831C43,-208.131 43,-198.974 43,-190.417"/>
<polygon fill="black" stroke="black" points="46.5001,-190.413 43,-180.413 39.5001,-190.413 46.5001,-190.413"/>
<a xlink:href="dir_000040_000008.htm" target="_top" xlink:title="8">
<text text-anchor="middle" x="49.3393" y="-191.508" font-family="Helvetica,sans-Serif" font-size="10.00">8</text>
</a>
</g>
<!-- dir_aafe48f257c75c61a4124f498f9cedbe -->
<g id="node5" class="node"><title>dir_aafe48f257c75c61a4124f498f9cedbe</title>
<a xlink:href="dir_aafe48f257c75c61a4124f498f9cedbe.htm" target="_top" xlink:title="lunaui">
<polygon fill="white" stroke="red" points="134,-108 80,-108 80,-72 134,-72 134,-108"/>
<text text-anchor="middle" x="107" y="-87.5" font-family="Helvetica,sans-Serif" font-size="10.00">lunaui</text>
</a>
</g>
<!-- dir_3772266c805c3591433847390dc69f35&#45;&gt;dir_aafe48f257c75c61a4124f498f9cedbe -->
<g id="edge19" class="edge"><title>dir_3772266c805c3591433847390dc69f35&#45;&gt;dir_aafe48f257c75c61a4124f498f9cedbe</title>
<path fill="none" stroke="black" d="M57.0484,-215.794C64.3541,-205.676 72.9882,-192.612 79,-180 88.5206,-160.027 95.7953,-136.045 100.541,-117.861"/>
<polygon fill="black" stroke="black" points="103.936,-118.71 102.977,-108.158 97.1469,-117.004 103.936,-118.71"/>
<a xlink:href="dir_000040_000002.htm" target="_top" xlink:title="5">
<text text-anchor="middle" x="105.814" y="-120.387" font-family="Helvetica,sans-Serif" font-size="10.00">5</text>
</a>
</g>
<!-- dir_833350a745acf29e00c46ce65f7df7ae -->
<g id="node6" class="node"><title>dir_833350a745acf29e00c46ce65f7df7ae</title>
<a xlink:href="dir_833350a745acf29e00c46ce65f7df7ae.htm" target="_top" xlink:title="core">
<polygon fill="none" stroke="black" points="70,-36 16,-36 16,-1.77636e-14 70,-3.55271e-15 70,-36"/>
<text text-anchor="middle" x="43" y="-15.5" font-family="Helvetica,sans-Serif" font-size="10.00">core</text>
</a>
</g>
<!-- dir_3772266c805c3591433847390dc69f35&#45;&gt;dir_833350a745acf29e00c46ce65f7df7ae -->
<g id="edge21" class="edge"><title>dir_3772266c805c3591433847390dc69f35&#45;&gt;dir_833350a745acf29e00c46ce65f7df7ae</title>
<path fill="none" stroke="black" d="M27.0095,-215.917C19.3462,-206.037 10.9834,-193.156 7,-180 -7.07327,-133.519 12.9944,-78.0131 28.3445,-45.519"/>
<polygon fill="black" stroke="black" points="31.6498,-46.7281 32.9138,-36.2089 25.3659,-43.6439 31.6498,-46.7281"/>
<a xlink:href="dir_000040_000009.htm" target="_top" xlink:title="2">
<text text-anchor="middle" x="32.615" y="-48.7059" font-family="Helvetica,sans-Serif" font-size="10.00">2</text>
</a>
</g>
<!-- dir_8e8789dd72610b36487369c1f23008be&#45;&gt;dir_3772266c805c3591433847390dc69f35 -->
<g id="edge5" class="edge"><title>dir_8e8789dd72610b36487369c1f23008be&#45;&gt;dir_3772266c805c3591433847390dc69f35</title>
<path fill="none" stroke="black" d="M115.74,-234C103.972,-234 92.2035,-234 80.4354,-234"/>
<polygon fill="black" stroke="black" points="80.0938,-230.5 70.0938,-234 80.0937,-237.5 80.0938,-230.5"/>
<a xlink:href="dir_000041_000040.htm" target="_top" xlink:title="3">
<text text-anchor="middle" x="83.6884" y="-225.161" font-family="Helvetica,sans-Serif" font-size="10.00">3</text>
</a>
</g>
<!-- dir_8e8789dd72610b36487369c1f23008be&#45;&gt;dir_c108e9adcb979d7ac671bad5e192b925 -->
<g id="edge3" class="edge"><title>dir_8e8789dd72610b36487369c1f23008be&#45;&gt;dir_c108e9adcb979d7ac671bad5e192b925</title>
<path fill="none" stroke="black" d="M119.261,-215.831C106.456,-206.793 90.8091,-195.748 77.0281,-186.02"/>
<polygon fill="black" stroke="black" points="78.9188,-183.07 68.7307,-180.163 74.882,-188.789 78.9188,-183.07"/>
<a xlink:href="dir_000041_000008.htm" target="_top" xlink:title="53">
<text text-anchor="middle" x="83.4928" y="-180.324" font-family="Helvetica,sans-Serif" font-size="10.00">53</text>
</a>
</g>
<!-- dir_8e8789dd72610b36487369c1f23008be&#45;&gt;dir_aafe48f257c75c61a4124f498f9cedbe -->
<g id="edge7" class="edge"><title>dir_8e8789dd72610b36487369c1f23008be&#45;&gt;dir_aafe48f257c75c61a4124f498f9cedbe</title>
<path fill="none" stroke="black" d="M135.514,-215.762C126.533,-191.093 114.595,-146.86 108.91,-117.973"/>
<polygon fill="black" stroke="black" points="112.345,-117.304 107.115,-108.09 105.458,-118.554 112.345,-117.304"/>
<a xlink:href="dir_000041_000002.htm" target="_top" xlink:title="5">
<text text-anchor="middle" x="115.781" y="-117.833" font-family="Helvetica,sans-Serif" font-size="10.00">5</text>
</a>
</g>
<!-- dir_8e8789dd72610b36487369c1f23008be&#45;&gt;dir_833350a745acf29e00c46ce65f7df7ae -->
<g id="edge9" class="edge"><title>dir_8e8789dd72610b36487369c1f23008be&#45;&gt;dir_833350a745acf29e00c46ce65f7df7ae</title>
<path fill="none" stroke="black" d="M150.573,-215.914C159.258,-183.939 172.184,-116.602 143,-72 128.508,-49.8515 101.745,-36.0873 79.5502,-28.0023"/>
<polygon fill="black" stroke="black" points="80.6462,-24.6782 70.0518,-24.7772 78.3956,-31.3065 80.6462,-24.6782"/>
<a xlink:href="dir_000041_000009.htm" target="_top" xlink:title="19">
<text text-anchor="middle" x="84.9628" y="-20.6453" font-family="Helvetica,sans-Serif" font-size="10.00">19</text>
</a>
</g>
<!-- dir_c108e9adcb979d7ac671bad5e192b925&#45;&gt;dir_aafe48f257c75c61a4124f498f9cedbe -->
<g id="edge11" class="edge"><title>dir_c108e9adcb979d7ac671bad5e192b925&#45;&gt;dir_aafe48f257c75c61a4124f498f9cedbe</title>
<path fill="none" stroke="black" d="M53.1975,-143.831C59.8946,-135.369 68.7943,-125.149 77.4724,-115.897"/>
<polygon fill="black" stroke="black" points="80.2563,-118.051 84.6566,-108.413 75.2065,-113.203 80.2563,-118.051"/>
<a xlink:href="dir_000008_000002.htm" target="_top" xlink:title="18">
<text text-anchor="middle" x="79.8152" y="-120.11" font-family="Helvetica,sans-Serif" font-size="10.00">18</text>
</a>
</g>
<!-- dir_c108e9adcb979d7ac671bad5e192b925&#45;&gt;dir_833350a745acf29e00c46ce65f7df7ae -->
<g id="edge13" class="edge"><title>dir_c108e9adcb979d7ac671bad5e192b925&#45;&gt;dir_833350a745acf29e00c46ce65f7df7ae</title>
<path fill="none" stroke="black" d="M38.3268,-143.762C35.867,-119.201 35.5923,-75.2474 37.5026,-46.3541"/>
<polygon fill="black" stroke="black" points="41.0152,-46.3416 38.3417,-36.0896 34.0385,-45.7712 41.0152,-46.3416"/>
<a xlink:href="dir_000008_000009.htm" target="_top" xlink:title="60">
<text text-anchor="middle" x="43.5522" y="-47.6556" font-family="Helvetica,sans-Serif" font-size="10.00">60</text>
</a>
</g>
<!-- dir_aafe48f257c75c61a4124f498f9cedbe&#45;&gt;dir_8e8789dd72610b36487369c1f23008be -->
<g id="edge23" class="edge"><title>dir_aafe48f257c75c61a4124f498f9cedbe&#45;&gt;dir_8e8789dd72610b36487369c1f23008be</title>
<path fill="none" stroke="black" d="M116.432,-108.09C125.401,-132.681 137.346,-176.905 143.056,-205.853"/>
<polygon fill="black" stroke="black" points="139.625,-206.551 144.86,-215.762 146.512,-205.297 139.625,-206.551"/>
<a xlink:href="dir_000002_000041.htm" target="_top" xlink:title="22">
<text text-anchor="middle" x="136.188" y="-201.023" font-family="Helvetica,sans-Serif" font-size="10.00">22</text>
</a>
</g>
<!-- dir_aafe48f257c75c61a4124f498f9cedbe&#45;&gt;dir_c108e9adcb979d7ac671bad5e192b925 -->
<g id="edge25" class="edge"><title>dir_aafe48f257c75c61a4124f498f9cedbe&#45;&gt;dir_c108e9adcb979d7ac671bad5e192b925</title>
<path fill="none" stroke="black" d="M96.6087,-108.413C89.8694,-116.909 80.9509,-127.137 72.2773,-136.37"/>
<polygon fill="black" stroke="black" points="69.5106,-134.197 65.1023,-143.831 74.5564,-139.049 69.5106,-134.197"/>
<a xlink:href="dir_000002_000008.htm" target="_top" xlink:title="411">
<text text-anchor="middle" x="69.9555" y="-127.138" font-family="Helvetica,sans-Serif" font-size="10.00">411</text>
</a>
</g>
<!-- dir_aafe48f257c75c61a4124f498f9cedbe&#45;&gt;dir_833350a745acf29e00c46ce65f7df7ae -->
<g id="edge27" class="edge"><title>dir_aafe48f257c75c61a4124f498f9cedbe&#45;&gt;dir_833350a745acf29e00c46ce65f7df7ae</title>
<path fill="none" stroke="black" d="M90.8501,-71.8314C83.3283,-63.3694 74.2435,-53.1489 66.0196,-43.8971"/>
<polygon fill="black" stroke="black" points="68.627,-41.5621 59.3673,-36.4133 63.3951,-46.2127 68.627,-41.5621"/>
<a xlink:href="dir_000002_000009.htm" target="_top" xlink:title="72">
<text text-anchor="middle" x="73.1372" y="-39.8624" font-family="Helvetica,sans-Serif" font-size="10.00">72</text>
</a>
</g>
<!-- dir_833350a745acf29e00c46ce65f7df7ae&#45;&gt;dir_c108e9adcb979d7ac671bad5e192b925 -->
<g id="edge29" class="edge"><title>dir_833350a745acf29e00c46ce65f7df7ae&#45;&gt;dir_c108e9adcb979d7ac671bad5e192b925</title>
<path fill="none" stroke="black" d="M47.6583,-36.0896C50.1269,-60.5727 50.4104,-104.517 48.5089,-133.471"/>
<polygon fill="black" stroke="black" points="44.9942,-133.512 47.6732,-143.762 51.9712,-134.078 44.9942,-133.512"/>
<a xlink:href="dir_000009_000008.htm" target="_top" xlink:title="2">
<text text-anchor="middle" x="42.4551" y="-127.199" font-family="Helvetica,sans-Serif" font-size="10.00">2</text>
</a>
</g>
</g>
</svg>
