<?xml version="1.0" encoding="UTF-8" standalone="no"?>
<!DOCTYPE svg PUBLIC "-//W3C//DTD SVG 1.1//EN"
 "http://www.w3.org/Graphics/SVG/1.1/DTD/svg11.dtd">
<!-- Generated by graphviz version 2.26.3 (20100126.1600)
 -->
<!-- Title: G Pages: 1 -->
<svg width="133pt" height="297pt"
 viewBox="0.00 0.00 133.00 297.00" xmlns="http://www.w3.org/2000/svg" xmlns:xlink="http://www.w3.org/1999/xlink">
<g id="graph1" class="graph" transform="scale(1 1) rotate(0) translate(4 293)">
<title>G</title>
<polygon fill="white" stroke="white" points="-4,5 -4,-293 130,-293 130,5 -4,5"/>
<g id="graph2" class="cluster"><title>clusterdir_8371dd685d7c470b5e01daad717223ff</title>
<a xlink:href="dir_8371dd685d7c470b5e01daad717223ff.htm" target="_top" xlink:title="elements">
<polygon fill="#ddddee" stroke="black" points="47,-208 47,-281 117,-281 117,-208 47,-208"/>
<text text-anchor="middle" x="82" y="-268" font-family="Helvetica,sans-Serif" font-size="10.00">elements</text>
</a>
</g>
<!-- dir_1c1e3e9467792d9f9c46af1ac7514ee3 -->
<g id="node2" class="node"><title>dir_1c1e3e9467792d9f9c46af1ac7514ee3</title>
<a xlink:href="dir_1c1e3e9467792d9f9c46af1ac7514ee3.htm" target="_top" xlink:title="util">
<polygon fill="#eeeeff" stroke="black" points="109,-252 55,-252 55,-216 109,-216 109,-252"/>
<text text-anchor="middle" x="82" y="-231.5" font-family="Helvetica,sans-Serif" font-size="10.00">util</text>
</a>
</g>
<!-- dir_cec6fa6ca8e6e981ff7ac6d8a2e25401 -->
<g id="node3" class="node"><title>dir_cec6fa6ca8e6e981ff7ac6d8a2e25401</title>
<a xlink:href="dir_cec6fa6ca8e6e981ff7ac6d8a2e25401.htm" target="_top" xlink:title="gfx">
<polygon fill="white" stroke="red" points="54,-180 2.13163e-14,-180 0,-144 54,-144 54,-180"/>
<text text-anchor="middle" x="27" y="-159.5" font-family="Helvetica,sans-Serif" font-size="10.00">gfx</text>
</a>
</g>
<!-- dir_1c1e3e9467792d9f9c46af1ac7514ee3&#45;&gt;dir_cec6fa6ca8e6e981ff7ac6d8a2e25401 -->
<g id="edge5" class="edge"><title>dir_1c1e3e9467792d9f9c46af1ac7514ee3&#45;&gt;dir_cec6fa6ca8e6e981ff7ac6d8a2e25401</title>
<path fill="none" stroke="black" d="M68.1212,-215.831C61.7864,-207.539 54.1616,-197.557 47.2074,-188.453"/>
<polygon fill="black" stroke="black" points="49.9175,-186.235 41.0657,-180.413 44.3548,-190.485 49.9175,-186.235"/>
<a xlink:href="dir_000023_000027.htm" target="_top" xlink:title="4">
<text text-anchor="middle" x="54.3558" y="-184.868" font-family="Helvetica,sans-Serif" font-size="10.00">4</text>
</a>
</g>
<!-- dir_c108e9adcb979d7ac671bad5e192b925 -->
<g id="node4" class="node"><title>dir_c108e9adcb979d7ac671bad5e192b925</title>
<a xlink:href="dir_c108e9adcb979d7ac671bad5e192b925.htm" target="_top" xlink:title="base">
<polygon fill="white" stroke="red" points="92,-108 38,-108 38,-72 92,-72 92,-108"/>
<text text-anchor="middle" x="65" y="-87.5" font-family="Helvetica,sans-Serif" font-size="10.00">base</text>
</a>
</g>
<!-- dir_1c1e3e9467792d9f9c46af1ac7514ee3&#45;&gt;dir_c108e9adcb979d7ac671bad5e192b925 -->
<g id="edge7" class="edge"><title>dir_1c1e3e9467792d9f9c46af1ac7514ee3&#45;&gt;dir_c108e9adcb979d7ac671bad5e192b925</title>
<path fill="none" stroke="black" d="M79.8469,-215.762C76.9473,-191.201 71.7584,-147.247 68.3474,-118.354"/>
<polygon fill="black" stroke="black" points="71.7839,-117.61 67.1356,-108.09 64.8322,-118.431 71.7839,-117.61"/>
<a xlink:href="dir_000023_000008.htm" target="_top" xlink:title="2">
<text text-anchor="middle" x="75.025" y="-118.347" font-family="Helvetica,sans-Serif" font-size="10.00">2</text>
</a>
</g>
<!-- dir_833350a745acf29e00c46ce65f7df7ae -->
<g id="node5" class="node"><title>dir_833350a745acf29e00c46ce65f7df7ae</title>
<a xlink:href="dir_833350a745acf29e00c46ce65f7df7ae.htm" target="_top" xlink:title="core">
<polygon fill="none" stroke="black" points="92,-36 38,-36 38,-1.77636e-14 92,-3.55271e-15 92,-36"/>
<text text-anchor="middle" x="65" y="-15.5" font-family="Helvetica,sans-Serif" font-size="10.00">core</text>
</a>
</g>
<!-- dir_1c1e3e9467792d9f9c46af1ac7514ee3&#45;&gt;dir_833350a745acf29e00c46ce65f7df7ae -->
<g id="edge9" class="edge"><title>dir_1c1e3e9467792d9f9c46af1ac7514ee3&#45;&gt;dir_833350a745acf29e00c46ce65f7df7ae</title>
<path fill="none" stroke="black" d="M88.9085,-215.594C99.3171,-185.087 116.263,-122.411 101,-72 98.0436,-62.2355 92.6748,-52.6229 86.97,-44.2762"/>
<polygon fill="black" stroke="black" points="89.7129,-42.0973 80.9905,-36.0831 84.0586,-46.2239 89.7129,-42.0973"/>
<a xlink:href="dir_000023_000009.htm" target="_top" xlink:title="1">
<text text-anchor="middle" x="94.1253" y="-40.827" font-family="Helvetica,sans-Serif" font-size="10.00">1</text>
</a>
</g>
<!-- dir_cec6fa6ca8e6e981ff7ac6d8a2e25401&#45;&gt;dir_c108e9adcb979d7ac671bad5e192b925 -->
<g id="edge3" class="edge"><title>dir_cec6fa6ca8e6e981ff7ac6d8a2e25401&#45;&gt;dir_c108e9adcb979d7ac671bad5e192b925</title>
<path fill="none" stroke="black" d="M36.589,-143.831C40.8317,-135.792 45.9121,-126.167 50.596,-117.292"/>
<polygon fill="black" stroke="black" points="53.7096,-118.891 55.2819,-108.413 47.5189,-115.623 53.7096,-118.891"/>
<a xlink:href="dir_000027_000008.htm" target="_top" xlink:title="1">
<text text-anchor="middle" x="54.5428" y="-120.895" font-family="Helvetica,sans-Serif" font-size="10.00">1</text>
</a>
</g>
<!-- dir_c108e9adcb979d7ac671bad5e192b925&#45;&gt;dir_833350a745acf29e00c46ce65f7df7ae -->
<g id="edge11" class="edge"><title>dir_c108e9adcb979d7ac671bad5e192b925&#45;&gt;dir_833350a745acf29e00c46ce65f7df7ae</title>
<path fill="none" stroke="black" d="M59.0476,-71.8314C58.2972,-64.131 58.0763,-54.9743 58.3849,-46.4166"/>
<polygon fill="black" stroke="black" points="61.8792,-46.6161 59.024,-36.4133 54.8935,-46.1697 61.8792,-46.6161"/>
<a xlink:href="dir_000008_000009.htm" target="_top" xlink:title="60">
<text text-anchor="middle" x="64.4836" y="-47.8844" font-family="Helvetica,sans-Serif" font-size="10.00">60</text>
</a>
</g>
<!-- dir_833350a745acf29e00c46ce65f7df7ae&#45;&gt;dir_c108e9adcb979d7ac671bad5e192b925 -->
<g id="edge13" class="edge"><title>dir_833350a745acf29e00c46ce65f7df7ae&#45;&gt;dir_c108e9adcb979d7ac671bad5e192b925</title>
<path fill="none" stroke="black" d="M70.976,-36.4133C71.7071,-44.0593 71.9203,-53.1084 71.6155,-61.5726"/>
<polygon fill="black" stroke="black" points="68.1048,-61.6264 70.9524,-71.8314 75.0902,-62.078 68.1048,-61.6264"/>
<a xlink:href="dir_000009_000008.htm" target="_top" xlink:title="2">
<text text-anchor="middle" x="65.5032" y="-55.3562" font-family="Helvetica,sans-Serif" font-size="10.00">2</text>
</a>
</g>
</g>
</svg>
