<?xml version="1.0" encoding="UTF-8" standalone="no"?>
<!DOCTYPE svg PUBLIC "-//W3C//DTD SVG 1.1//EN"
 "http://www.w3.org/Graphics/SVG/1.1/DTD/svg11.dtd">
<!-- Generated by graphviz version 2.26.3 (20100126.1600)
 -->
<!-- Title: G Pages: 1 -->
<svg width="150pt" height="153pt"
 viewBox="0.00 0.00 150.00 153.00" xmlns="http://www.w3.org/2000/svg" xmlns:xlink="http://www.w3.org/1999/xlink">
<g id="graph1" class="graph" transform="scale(1 1) rotate(0) translate(4 149)">
<title>G</title>
<polygon fill="white" stroke="white" points="-4,5 -4,-149 147,-149 147,5 -4,5"/>
<g id="graph2" class="cluster"><title>clusterdir_2379609c2cf538e59e9646141f42f407</title>
<a xlink:href="dir_2379609c2cf538e59e9646141f42f407.htm" target="_top" xlink:title="Src">
<polygon fill="#ddddee" stroke="black" points="8,-64 8,-137 78,-137 78,-64 8,-64"/>
<text text-anchor="middle" x="43" y="-124" font-family="Helvetica,sans-Serif" font-size="10.00">Src</text>
</a>
</g>
<!-- dir_74928e894113969638fb3cb95ac699ee -->
<g id="node2" class="node"><title>dir_74928e894113969638fb3cb95ac699ee</title>
<a xlink:href="dir_74928e894113969638fb3cb95ac699ee.htm" target="_top" xlink:title="hal">
<polygon fill="#eeeeff" stroke="black" points="70,-108 16,-108 16,-72 70,-72 70,-108"/>
<text text-anchor="middle" x="43" y="-87.5" font-family="Helvetica,sans-Serif" font-size="10.00">hal</text>
</a>
</g>
<!-- dir_c108e9adcb979d7ac671bad5e192b925 -->
<g id="node3" class="node"><title>dir_c108e9adcb979d7ac671bad5e192b925</title>
<a xlink:href="dir_c108e9adcb979d7ac671bad5e192b925.htm" target="_top" xlink:title="base">
<polygon fill="white" stroke="red" points="142,-108 88,-108 88,-72 142,-72 142,-108"/>
<text text-anchor="middle" x="115" y="-87.5" font-family="Helvetica,sans-Serif" font-size="10.00">base</text>
</a>
</g>
<!-- dir_74928e894113969638fb3cb95ac699ee&#45;&gt;dir_c108e9adcb979d7ac671bad5e192b925 -->
<g id="edge3" class="edge"><title>dir_74928e894113969638fb3cb95ac699ee&#45;&gt;dir_c108e9adcb979d7ac671bad5e192b925</title>
<path fill="none" stroke="black" d="M70,-90C72.6147,-90 75.2295,-90 77.8442,-90"/>
<polygon fill="black" stroke="black" points="77.9297,-93.5001 87.9297,-90 77.9297,-86.5001 77.9297,-93.5001"/>
<a xlink:href="dir_000033_000008.htm" target="_top" xlink:title="2">
<text text-anchor="middle" x="74.3351" y="-93.8393" font-family="Helvetica,sans-Serif" font-size="10.00">2</text>
</a>
</g>
<!-- dir_833350a745acf29e00c46ce65f7df7ae -->
<g id="node4" class="node"><title>dir_833350a745acf29e00c46ce65f7df7ae</title>
<a xlink:href="dir_833350a745acf29e00c46ce65f7df7ae.htm" target="_top" xlink:title="core">
<polygon fill="none" stroke="black" points="142,-36 88,-36 88,-1.77636e-14 142,-3.55271e-15 142,-36"/>
<text text-anchor="middle" x="115" y="-15.5" font-family="Helvetica,sans-Serif" font-size="10.00">core</text>
</a>
</g>
<!-- dir_74928e894113969638fb3cb95ac699ee&#45;&gt;dir_833350a745acf29e00c46ce65f7df7ae -->
<g id="edge5" class="edge"><title>dir_74928e894113969638fb3cb95ac699ee&#45;&gt;dir_833350a745acf29e00c46ce65f7df7ae</title>
<path fill="none" stroke="black" d="M61.1686,-71.8314C69.7152,-63.2848 80.0557,-52.9443 89.3802,-43.6198"/>
<polygon fill="black" stroke="black" points="91.9905,-45.9592 96.5867,-36.4133 87.0408,-41.0095 91.9905,-45.9592"/>
<a xlink:href="dir_000033_000009.htm" target="_top" xlink:title="1">
<text text-anchor="middle" x="91.4564" y="-48.0087" font-family="Helvetica,sans-Serif" font-size="10.00">1</text>
</a>
</g>
<!-- dir_c108e9adcb979d7ac671bad5e192b925&#45;&gt;dir_74928e894113969638fb3cb95ac699ee -->
<g id="edge7" class="edge"><title>dir_c108e9adcb979d7ac671bad5e192b925&#45;&gt;dir_74928e894113969638fb3cb95ac699ee</title>
<path fill="none" stroke="black" d="M87.9297,-90C85.3149,-90 82.7002,-90 80.0854,-90"/>
<polygon fill="black" stroke="black" points="80,-86.5001 70,-90 80,-93.5001 80,-86.5001"/>
<a xlink:href="dir_000008_000033.htm" target="_top" xlink:title="3">
<text text-anchor="middle" x="83.5946" y="-81.1607" font-family="Helvetica,sans-Serif" font-size="10.00">3</text>
</a>
</g>
<!-- dir_c108e9adcb979d7ac671bad5e192b925&#45;&gt;dir_833350a745acf29e00c46ce65f7df7ae -->
<g id="edge9" class="edge"><title>dir_c108e9adcb979d7ac671bad5e192b925&#45;&gt;dir_833350a745acf29e00c46ce65f7df7ae</title>
<path fill="none" stroke="black" d="M109.048,-71.8314C108.297,-64.131 108.076,-54.9743 108.385,-46.4166"/>
<polygon fill="black" stroke="black" points="111.879,-46.6161 109.024,-36.4133 104.893,-46.1697 111.879,-46.6161"/>
<a xlink:href="dir_000008_000009.htm" target="_top" xlink:title="60">
<text text-anchor="middle" x="114.484" y="-47.8844" font-family="Helvetica,sans-Serif" font-size="10.00">60</text>
</a>
</g>
<!-- dir_833350a745acf29e00c46ce65f7df7ae&#45;&gt;dir_c108e9adcb979d7ac671bad5e192b925 -->
<g id="edge11" class="edge"><title>dir_833350a745acf29e00c46ce65f7df7ae&#45;&gt;dir_c108e9adcb979d7ac671bad5e192b925</title>
<path fill="none" stroke="black" d="M120.976,-36.4133C121.707,-44.0593 121.92,-53.1084 121.615,-61.5726"/>
<polygon fill="black" stroke="black" points="118.105,-61.6264 120.952,-71.8314 125.09,-62.078 118.105,-61.6264"/>
<a xlink:href="dir_000009_000008.htm" target="_top" xlink:title="2">
<text text-anchor="middle" x="115.503" y="-55.3562" font-family="Helvetica,sans-Serif" font-size="10.00">2</text>
</a>
</g>
</g>
</svg>
