<?xml version="1.0" encoding="UTF-8" standalone="no"?>
<!DOCTYPE svg PUBLIC "-//W3C//DTD SVG 1.1//EN"
 "http://www.w3.org/Graphics/SVG/1.1/DTD/svg11.dtd">
<!-- Generated by graphviz version 2.26.3 (20100126.1600)
 -->
<!-- Title: G Pages: 1 -->
<svg width="246pt" height="369pt"
 viewBox="0.00 0.00 246.37 369.00" xmlns="http://www.w3.org/2000/svg" xmlns:xlink="http://www.w3.org/1999/xlink">
<g id="graph1" class="graph" transform="scale(1 1) rotate(0) translate(4 365)">
<title>G</title>
<polygon fill="white" stroke="white" points="-4,5 -4,-365 243.369,-365 243.369,5 -4,5"/>
<g id="graph2" class="cluster"><title>clusterdir_c108e9adcb979d7ac671bad5e192b925</title>
<a xlink:href="dir_c108e9adcb979d7ac671bad5e192b925.htm" target="_top" xlink:title="base">
<polygon fill="#ddddee" stroke="black" points="8,-280 8,-353 92,-353 92,-280 8,-280"/>
<text text-anchor="middle" x="50" y="-340" font-family="Helvetica,sans-Serif" font-size="10.00">base</text>
</a>
</g>
<!-- dir_4d4bce3cd1b9acb77a65916529e14a27 -->
<g id="node2" class="node"><title>dir_4d4bce3cd1b9acb77a65916529e14a27</title>
<a xlink:href="dir_4d4bce3cd1b9acb77a65916529e14a27.htm" target="_top" xlink:title="application">
<polygon fill="#eeeeff" stroke="black" points="84,-324 16,-324 16,-288 84,-288 84,-324"/>
<text text-anchor="middle" x="50" y="-303.5" font-family="Helvetica,sans-Serif" font-size="10.00">application</text>
</a>
</g>
<!-- dir_f4a578a50d612bc2e8b518e29c6d0ea5 -->
<g id="node3" class="node"><title>dir_f4a578a50d612bc2e8b518e29c6d0ea5</title>
<a xlink:href="dir_f4a578a50d612bc2e8b518e29c6d0ea5.htm" target="_top" xlink:title="settings">
<polygon fill="none" stroke="black" points="227,-180 173,-180 173,-144 227,-144 227,-180"/>
<text text-anchor="middle" x="200" y="-159.5" font-family="Helvetica,sans-Serif" font-size="10.00">settings</text>
</a>
</g>
<!-- dir_4d4bce3cd1b9acb77a65916529e14a27&#45;&gt;dir_f4a578a50d612bc2e8b518e29c6d0ea5 -->
<g id="edge15" class="edge"><title>dir_4d4bce3cd1b9acb77a65916529e14a27&#45;&gt;dir_f4a578a50d612bc2e8b518e29c6d0ea5</title>
<path fill="none" stroke="black" d="M72.7233,-287.828C85.1902,-277.613 100.759,-264.446 114,-252 136.183,-231.147 159.995,-205.991 176.925,-187.582"/>
<polygon fill="black" stroke="black" points="179.567,-189.879 183.734,-180.138 174.402,-185.154 179.567,-189.879"/>
<a xlink:href="dir_000012_000010.htm" target="_top" xlink:title="11">
<text text-anchor="middle" x="179.236" y="-191.947" font-family="Helvetica,sans-Serif" font-size="10.00">11</text>
</a>
</g>
<!-- dir_aafe48f257c75c61a4124f498f9cedbe -->
<g id="node4" class="node"><title>dir_aafe48f257c75c61a4124f498f9cedbe</title>
<a xlink:href="dir_aafe48f257c75c61a4124f498f9cedbe.htm" target="_top" xlink:title="lunaui">
<polygon fill="white" stroke="red" points="198,-324 144,-324 144,-288 198,-288 198,-324"/>
<text text-anchor="middle" x="171" y="-303.5" font-family="Helvetica,sans-Serif" font-size="10.00">lunaui</text>
</a>
</g>
<!-- dir_4d4bce3cd1b9acb77a65916529e14a27&#45;&gt;dir_aafe48f257c75c61a4124f498f9cedbe -->
<g id="edge17" class="edge"><title>dir_4d4bce3cd1b9acb77a65916529e14a27&#45;&gt;dir_aafe48f257c75c61a4124f498f9cedbe</title>
<path fill="none" stroke="black" d="M84.0312,-306C100.536,-306 117.041,-306 133.546,-306"/>
<polygon fill="black" stroke="black" points="133.822,-309.5 143.822,-306 133.822,-302.5 133.822,-309.5"/>
<a xlink:href="dir_000012_000002.htm" target="_top" xlink:title="5">
<text text-anchor="middle" x="130.228" y="-309.839" font-family="Helvetica,sans-Serif" font-size="10.00">5</text>
</a>
</g>
<!-- dir_833350a745acf29e00c46ce65f7df7ae -->
<g id="node5" class="node"><title>dir_833350a745acf29e00c46ce65f7df7ae</title>
<a xlink:href="dir_833350a745acf29e00c46ce65f7df7ae.htm" target="_top" xlink:title="core">
<polygon fill="none" stroke="black" points="163,-108 109,-108 109,-72 163,-72 163,-108"/>
<text text-anchor="middle" x="136" y="-87.5" font-family="Helvetica,sans-Serif" font-size="10.00">core</text>
</a>
</g>
<!-- dir_4d4bce3cd1b9acb77a65916529e14a27&#45;&gt;dir_833350a745acf29e00c46ce65f7df7ae -->
<g id="edge19" class="edge"><title>dir_4d4bce3cd1b9acb77a65916529e14a27&#45;&gt;dir_833350a745acf29e00c46ce65f7df7ae</title>
<path fill="none" stroke="black" d="M44.2257,-287.919C39.2594,-269.387 34.044,-239.97 42,-216 55.1884,-176.266 86.3227,-138.91 109.161,-115.348"/>
<polygon fill="black" stroke="black" points="111.695,-117.762 116.251,-108.197 106.725,-112.834 111.695,-117.762"/>
<a xlink:href="dir_000012_000009.htm" target="_top" xlink:title="9">
<text text-anchor="middle" x="111.181" y="-119.814" font-family="Helvetica,sans-Serif" font-size="10.00">9</text>
</a>
</g>
<!-- dir_023c91c44035a186c584180e65bb82b0 -->
<g id="node6" class="node"><title>dir_023c91c44035a186c584180e65bb82b0</title>
<a xlink:href="dir_023c91c44035a186c584180e65bb82b0.htm" target="_top" xlink:title="remote">
<polygon fill="none" stroke="black" points="105,-252 51,-252 51,-216 105,-216 105,-252"/>
<text text-anchor="middle" x="78" y="-231.5" font-family="Helvetica,sans-Serif" font-size="10.00">remote</text>
</a>
</g>
<!-- dir_4d4bce3cd1b9acb77a65916529e14a27&#45;&gt;dir_023c91c44035a186c584180e65bb82b0 -->
<g id="edge21" class="edge"><title>dir_4d4bce3cd1b9acb77a65916529e14a27&#45;&gt;dir_023c91c44035a186c584180e65bb82b0</title>
<path fill="none" stroke="black" d="M51.1132,-287.831C53.4313,-279.877 56.9188,-270.369 60.6946,-261.572"/>
<polygon fill="black" stroke="black" points="63.9062,-262.965 64.8633,-252.413 57.5351,-260.065 63.9062,-262.965"/>
<a xlink:href="dir_000012_000039.htm" target="_top" xlink:title="3">
<text text-anchor="middle" x="65.0014" y="-264.913" font-family="Helvetica,sans-Serif" font-size="10.00">3</text>
</a>
</g>
<!-- dir_d5d2b510489cc5abb4523e6103f57ebc -->
<g id="node7" class="node"><title>dir_d5d2b510489cc5abb4523e6103f57ebc</title>
<a xlink:href="dir_d5d2b510489cc5abb4523e6103f57ebc.htm" target="_top" xlink:title="hosts">
<polygon fill="none" stroke="black" points="163,-36 109,-36 109,-1.77636e-14 163,-3.55271e-15 163,-36"/>
<text text-anchor="middle" x="136" y="-15.5" font-family="Helvetica,sans-Serif" font-size="10.00">hosts</text>
</a>
</g>
<!-- dir_4d4bce3cd1b9acb77a65916529e14a27&#45;&gt;dir_d5d2b510489cc5abb4523e6103f57ebc -->
<g id="edge23" class="edge"><title>dir_4d4bce3cd1b9acb77a65916529e14a27&#45;&gt;dir_d5d2b510489cc5abb4523e6103f57ebc</title>
<path fill="none" stroke="black" d="M43.1805,-287.8C39.6719,-277.464 35.7683,-264.193 34,-252 31.7035,-236.166 31.5363,-231.809 34,-216 44.4779,-148.767 49.5718,-129.473 86,-72 92.4542,-61.8172 100.943,-51.8046 109.091,-43.2201"/>
<polygon fill="black" stroke="black" points="111.596,-45.6641 116.103,-36.0754 106.6,-40.761 111.596,-45.6641"/>
<a xlink:href="dir_000012_000036.htm" target="_top" xlink:title="3">
<text text-anchor="middle" x="111.105" y="-47.7183" font-family="Helvetica,sans-Serif" font-size="10.00">3</text>
</a>
</g>
<!-- dir_f4a578a50d612bc2e8b518e29c6d0ea5&#45;&gt;dir_833350a745acf29e00c46ce65f7df7ae -->
<g id="edge3" class="edge"><title>dir_f4a578a50d612bc2e8b518e29c6d0ea5&#45;&gt;dir_833350a745acf29e00c46ce65f7df7ae</title>
<path fill="none" stroke="black" d="M183.85,-143.831C176.328,-135.369 167.243,-125.149 159.02,-115.897"/>
<polygon fill="black" stroke="black" points="161.627,-113.562 152.367,-108.413 156.395,-118.213 161.627,-113.562"/>
<a xlink:href="dir_000010_000009.htm" target="_top" xlink:title="4">
<text text-anchor="middle" x="166.137" y="-111.862" font-family="Helvetica,sans-Serif" font-size="10.00">4</text>
</a>
</g>
<!-- dir_f4a578a50d612bc2e8b518e29c6d0ea5&#45;&gt;dir_d5d2b510489cc5abb4523e6103f57ebc -->
<g id="edge5" class="edge"><title>dir_f4a578a50d612bc2e8b518e29c6d0ea5&#45;&gt;dir_d5d2b510489cc5abb4523e6103f57ebc</title>
<path fill="none" stroke="black" d="M189.216,-143.842C182.488,-125.248 174.336,-95.7819 163,-72 158.585,-62.7381 152.756,-53.2326 147.482,-44.8288"/>
<polygon fill="black" stroke="black" points="150.351,-42.8158 142.071,-36.2058 144.422,-46.5366 150.351,-42.8158"/>
<a xlink:href="dir_000010_000036.htm" target="_top" xlink:title="2">
<text text-anchor="middle" x="154.667" y="-41.8514" font-family="Helvetica,sans-Serif" font-size="10.00">2</text>
</a>
</g>
<!-- dir_aafe48f257c75c61a4124f498f9cedbe&#45;&gt;dir_f4a578a50d612bc2e8b518e29c6d0ea5 -->
<g id="edge7" class="edge"><title>dir_aafe48f257c75c61a4124f498f9cedbe&#45;&gt;dir_f4a578a50d612bc2e8b518e29c6d0ea5</title>
<path fill="none" stroke="black" d="M176.202,-287.602C179.032,-277.204 182.463,-263.936 185,-252 189.384,-231.373 193.265,-207.861 195.98,-190.043"/>
<polygon fill="black" stroke="black" points="199.462,-190.425 197.477,-180.018 192.538,-189.391 199.462,-190.425"/>
<a xlink:href="dir_000002_000010.htm" target="_top" xlink:title="106">
<text text-anchor="middle" x="201.739" y="-191.899" font-family="Helvetica,sans-Serif" font-size="10.00">106</text>
</a>
</g>
<!-- dir_aafe48f257c75c61a4124f498f9cedbe&#45;&gt;dir_833350a745acf29e00c46ce65f7df7ae -->
<g id="edge9" class="edge"><title>dir_aafe48f257c75c61a4124f498f9cedbe&#45;&gt;dir_833350a745acf29e00c46ce65f7df7ae</title>
<path fill="none" stroke="black" d="M168.076,-287.955C161.977,-250.314 147.859,-163.187 140.557,-118.125"/>
<polygon fill="black" stroke="black" points="143.995,-117.456 138.94,-108.145 137.085,-118.576 143.995,-117.456"/>
<a xlink:href="dir_000002_000009.htm" target="_top" xlink:title="72">
<text text-anchor="middle" x="147.372" y="-118.051" font-family="Helvetica,sans-Serif" font-size="10.00">72</text>
</a>
</g>
<!-- dir_aafe48f257c75c61a4124f498f9cedbe&#45;&gt;dir_023c91c44035a186c584180e65bb82b0 -->
<g id="edge11" class="edge"><title>dir_aafe48f257c75c61a4124f498f9cedbe&#45;&gt;dir_023c91c44035a186c584180e65bb82b0</title>
<path fill="none" stroke="black" d="M143.883,-289.482C131.084,-280.354 115.986,-268.836 103.413,-258.663"/>
<polygon fill="black" stroke="black" points="105.513,-255.858 95.5658,-252.211 101.067,-261.265 105.513,-255.858"/>
<a xlink:href="dir_000002_000039.htm" target="_top" xlink:title="27">
<text text-anchor="middle" x="110.093" y="-253.448" font-family="Helvetica,sans-Serif" font-size="10.00">27</text>
</a>
</g>
<!-- dir_aafe48f257c75c61a4124f498f9cedbe&#45;&gt;dir_d5d2b510489cc5abb4523e6103f57ebc -->
<g id="edge13" class="edge"><title>dir_aafe48f257c75c61a4124f498f9cedbe&#45;&gt;dir_d5d2b510489cc5abb4523e6103f57ebc</title>
<path fill="none" stroke="black" d="M186.428,-287.676C209.284,-258.295 248.201,-198.409 236,-144 228.257,-109.469 223.784,-99.8887 202,-72 193.358,-60.9361 182.062,-50.6593 171.264,-42.1047"/>
<polygon fill="black" stroke="black" points="173.229,-39.201 163.157,-35.9141 168.981,-44.7646 173.229,-39.201"/>
<a xlink:href="dir_000002_000036.htm" target="_top" xlink:title="30">
<text text-anchor="middle" x="177.809" y="-36.6258" font-family="Helvetica,sans-Serif" font-size="10.00">30</text>
</a>
</g>
<!-- dir_833350a745acf29e00c46ce65f7df7ae&#45;&gt;dir_d5d2b510489cc5abb4523e6103f57ebc -->
<g id="edge25" class="edge"><title>dir_833350a745acf29e00c46ce65f7df7ae&#45;&gt;dir_d5d2b510489cc5abb4523e6103f57ebc</title>
<path fill="none" stroke="black" d="M130.048,-71.8314C129.297,-64.131 129.076,-54.9743 129.385,-46.4166"/>
<polygon fill="black" stroke="black" points="132.879,-46.6161 130.024,-36.4133 125.893,-46.1697 132.879,-46.6161"/>
<a xlink:href="dir_000009_000036.htm" target="_top" xlink:title="1">
<text text-anchor="middle" x="135.484" y="-47.8844" font-family="Helvetica,sans-Serif" font-size="10.00">1</text>
</a>
</g>
<!-- dir_023c91c44035a186c584180e65bb82b0&#45;&gt;dir_4d4bce3cd1b9acb77a65916529e14a27 -->
<g id="edge31" class="edge"><title>dir_023c91c44035a186c584180e65bb82b0&#45;&gt;dir_4d4bce3cd1b9acb77a65916529e14a27</title>
<path fill="none" stroke="black" d="M76.8153,-252.413C74.4733,-260.399 70.971,-269.916 67.1894,-278.697"/>
<polygon fill="black" stroke="black" points="63.9886,-277.281 63.018,-287.831 70.356,-280.189 63.9886,-277.281"/>
<a xlink:href="dir_000039_000012.htm" target="_top" xlink:title="4">
<text text-anchor="middle" x="62.8992" y="-270.332" font-family="Helvetica,sans-Serif" font-size="10.00">4</text>
</a>
</g>
<!-- dir_023c91c44035a186c584180e65bb82b0&#45;&gt;dir_f4a578a50d612bc2e8b518e29c6d0ea5 -->
<g id="edge27" class="edge"><title>dir_023c91c44035a186c584180e65bb82b0&#45;&gt;dir_f4a578a50d612bc2e8b518e29c6d0ea5</title>
<path fill="none" stroke="black" d="M105.076,-218.021C122.529,-207.721 145.415,-194.214 164.343,-183.044"/>
<polygon fill="black" stroke="black" points="166.167,-186.031 173,-177.934 162.609,-180.003 166.167,-186.031"/>
<a xlink:href="dir_000039_000010.htm" target="_top" xlink:title="2">
<text text-anchor="middle" x="164.514" y="-187.803" font-family="Helvetica,sans-Serif" font-size="10.00">2</text>
</a>
</g>
<!-- dir_023c91c44035a186c584180e65bb82b0&#45;&gt;dir_aafe48f257c75c61a4124f498f9cedbe -->
<g id="edge29" class="edge"><title>dir_023c91c44035a186c584180e65bb82b0&#45;&gt;dir_aafe48f257c75c61a4124f498f9cedbe</title>
<path fill="none" stroke="black" d="M105.006,-250.439C117.838,-259.586 133,-271.151 145.613,-281.358"/>
<polygon fill="black" stroke="black" points="143.538,-284.183 153.485,-287.831 147.984,-278.776 143.538,-284.183"/>
<a xlink:href="dir_000039_000002.htm" target="_top" xlink:title="9">
<text text-anchor="middle" x="138.958" y="-281.593" font-family="Helvetica,sans-Serif" font-size="10.00">9</text>
</a>
</g>
<!-- dir_023c91c44035a186c584180e65bb82b0&#45;&gt;dir_833350a745acf29e00c46ce65f7df7ae -->
<g id="edge33" class="edge"><title>dir_023c91c44035a186c584180e65bb82b0&#45;&gt;dir_833350a745acf29e00c46ce65f7df7ae</title>
<path fill="none" stroke="black" d="M85.3457,-215.762C95.3256,-190.985 113.255,-146.471 124.886,-117.594"/>
<polygon fill="black" stroke="black" points="128.224,-118.673 128.714,-108.09 121.731,-116.058 128.224,-118.673"/>
<a xlink:href="dir_000039_000009.htm" target="_top" xlink:title="5">
<text text-anchor="middle" x="129.515" y="-120.568" font-family="Helvetica,sans-Serif" font-size="10.00">5</text>
</a>
</g>
<!-- dir_023c91c44035a186c584180e65bb82b0&#45;&gt;dir_d5d2b510489cc5abb4523e6103f57ebc -->
<g id="edge35" class="edge"><title>dir_023c91c44035a186c584180e65bb82b0&#45;&gt;dir_d5d2b510489cc5abb4523e6103f57ebc</title>
<path fill="none" stroke="black" d="M77.8421,-215.858C78.1421,-185.203 81.2285,-121.646 100,-72 103.608,-62.4571 109.168,-52.9093 114.847,-44.5539"/>
<polygon fill="black" stroke="black" points="117.759,-46.4979 120.731,-36.3285 112.066,-42.425 117.759,-46.4979"/>
<a xlink:href="dir_000039_000036.htm" target="_top" xlink:title="1">
<text text-anchor="middle" x="117.977" y="-48.5734" font-family="Helvetica,sans-Serif" font-size="10.00">1</text>
</a>
</g>
<!-- dir_d5d2b510489cc5abb4523e6103f57ebc&#45;&gt;dir_f4a578a50d612bc2e8b518e29c6d0ea5 -->
<g id="edge37" class="edge"><title>dir_d5d2b510489cc5abb4523e6103f57ebc&#45;&gt;dir_f4a578a50d612bc2e8b518e29c6d0ea5</title>
<path fill="none" stroke="black" d="M158.026,-36.2058C166.354,-46.3245 174.988,-59.388 181,-72 190.476,-91.8802 197.728,-115.732 201.166,-133.885"/>
<polygon fill="black" stroke="black" points="197.722,-134.51 202.739,-143.842 204.636,-133.418 197.722,-134.51"/>
<a xlink:href="dir_000036_000010.htm" target="_top" xlink:title="2">
<text text-anchor="middle" x="194.357" y="-128.902" font-family="Helvetica,sans-Serif" font-size="10.00">2</text>
</a>
</g>
<!-- dir_d5d2b510489cc5abb4523e6103f57ebc&#45;&gt;dir_833350a745acf29e00c46ce65f7df7ae -->
<g id="edge39" class="edge"><title>dir_d5d2b510489cc5abb4523e6103f57ebc&#45;&gt;dir_833350a745acf29e00c46ce65f7df7ae</title>
<path fill="none" stroke="black" d="M141.976,-36.4133C142.707,-44.0593 142.92,-53.1084 142.615,-61.5726"/>
<polygon fill="black" stroke="black" points="139.105,-61.6264 141.952,-71.8314 146.09,-62.078 139.105,-61.6264"/>
<a xlink:href="dir_000036_000009.htm" target="_top" xlink:title="10">
<text text-anchor="middle" x="136.503" y="-55.3562" font-family="Helvetica,sans-Serif" font-size="10.00">10</text>
</a>
</g>
</g>
</svg>
