<?xml version="1.0" encoding="UTF-8" standalone="no"?>
<!DOCTYPE svg PUBLIC "-//W3C//DTD SVG 1.1//EN"
 "http://www.w3.org/Graphics/SVG/1.1/DTD/svg11.dtd">
<!-- Generated by graphviz version 2.26.3 (20100126.1600)
 -->
<!-- Title: G Pages: 1 -->
<svg width="957pt" height="262pt"
 viewBox="0.00 0.00 957.29 262.00" xmlns="http://www.w3.org/2000/svg" xmlns:xlink="http://www.w3.org/1999/xlink">
<g id="graph1" class="graph" transform="scale(1 1) rotate(0) translate(4 258)">
<title>G</title>
<polygon fill="white" stroke="white" points="-4,5 -4,-258 954.292,-258 954.292,5 -4,5"/>
<!-- Node1 -->
<g id="node1" class="node"><title>Node1</title>
<polygon fill="#bfbfbf" stroke="black" points="415,-232.5 415,-253.5 517,-253.5 517,-232.5 415,-232.5"/>
<text text-anchor="middle" x="466" y="-240.5" font-family="Helvetica,sans-Serif" font-size="10.00">DisplayManager.h</text>
</g>
<!-- Node2 -->
<g id="node3" class="node"><title>Node2</title>
<a xlink:href="Common_8h.htm" target="_top" xlink:title="Common.h">
<polygon fill="white" stroke="black" points="265.5,-0.5 265.5,-21.5 332.5,-21.5 332.5,-0.5 265.5,-0.5"/>
<text text-anchor="middle" x="299" y="-8.5" font-family="Helvetica,sans-Serif" font-size="10.00">Common.h</text>
</a>
</g>
<!-- Node1&#45;&gt;Node2 -->
<g id="edge2" class="edge"><title>Node1&#45;&gt;Node2</title>
<path fill="none" stroke="midnightblue" d="M414.645,-233.716C375.119,-225.455 325.1,-212.189 312,-196 273.291,-148.16 285.136,-68.6311 293.625,-31.3996"/>
<polygon fill="midnightblue" stroke="midnightblue" points="297.026,-32.2255 295.989,-21.6816 290.224,-30.5711 297.026,-32.2255"/>
</g>
<!-- Node3 -->
<g id="node5" class="node"><title>Node3</title>
<a xlink:href="Timer_8h.htm" target="_top" xlink:title="Timer.h">
<polygon fill="white" stroke="black" points="339,-116.5 339,-137.5 391,-137.5 391,-116.5 339,-116.5"/>
<text text-anchor="middle" x="365" y="-124.5" font-family="Helvetica,sans-Serif" font-size="10.00">Timer.h</text>
</a>
</g>
<!-- Node1&#45;&gt;Node3 -->
<g id="edge4" class="edge"><title>Node1&#45;&gt;Node3</title>
<path fill="none" stroke="midnightblue" d="M459.572,-232.139C450.981,-218.035 434.867,-192.979 418,-174 408.554,-163.371 396.829,-152.756 386.81,-144.31"/>
<polygon fill="midnightblue" stroke="midnightblue" points="388.825,-141.435 378.884,-137.773 384.372,-146.836 388.825,-141.435"/>
</g>
<!-- Node6 -->
<g id="node12" class="node"><title>Node6</title>
<a xlink:href="Mutex_8h.htm" target="_top" xlink:title="Mutex.h">
<polygon fill="white" stroke="black" points="878.5,-116.5 878.5,-137.5 931.5,-137.5 931.5,-116.5 878.5,-116.5"/>
<text text-anchor="middle" x="905" y="-124.5" font-family="Helvetica,sans-Serif" font-size="10.00">Mutex.h</text>
</a>
</g>
<!-- Node1&#45;&gt;Node6 -->
<g id="edge12" class="edge"><title>Node1&#45;&gt;Node6</title>
<path fill="none" stroke="midnightblue" d="M496.701,-232.432C522.03,-223.46 558.75,-209.866 590,-196 609.622,-187.294 612.636,-180.794 633,-174 714.443,-146.829 815.109,-134.669 868.205,-129.818"/>
<polygon fill="midnightblue" stroke="midnightblue" points="868.824,-133.277 878.479,-128.916 868.212,-126.304 868.824,-133.277"/>
</g>
<!-- Node7 -->
<g id="node15" class="node"><title>Node7</title>
<a xlink:href="sptr_8h.htm" target="_top" xlink:title="sptr.h">
<polygon fill="white" stroke="black" points="859.5,-58.5 859.5,-79.5 902.5,-79.5 902.5,-58.5 859.5,-58.5"/>
<text text-anchor="middle" x="881" y="-66.5" font-family="Helvetica,sans-Serif" font-size="10.00">sptr.h</text>
</a>
</g>
<!-- Node1&#45;&gt;Node7 -->
<g id="edge42" class="edge"><title>Node1&#45;&gt;Node7</title>
<path fill="none" stroke="midnightblue" d="M482.797,-232.499C506.223,-218.124 550.304,-192.049 590,-174 699.278,-124.314 733.331,-122.191 849.734,-80.4278"/>
<polygon fill="midnightblue" stroke="midnightblue" points="851.159,-83.6346 859.375,-76.9459 848.781,-77.0508 851.159,-83.6346"/>
</g>
<!-- Node8 -->
<g id="node20" class="node"><title>Node8</title>
<a xlink:href="Event_8h.htm" target="_top" xlink:title="Event.h">
<polygon fill="white" stroke="black" points="496,-116.5 496,-137.5 548,-137.5 548,-116.5 496,-116.5"/>
<text text-anchor="middle" x="522" y="-124.5" font-family="Helvetica,sans-Serif" font-size="10.00">Event.h</text>
</a>
</g>
<!-- Node1&#45;&gt;Node8 -->
<g id="edge24" class="edge"><title>Node1&#45;&gt;Node8</title>
<path fill="none" stroke="midnightblue" d="M471.168,-232.295C480.544,-212.872 500.49,-171.556 512.419,-146.846"/>
<polygon fill="midnightblue" stroke="midnightblue" points="515.649,-148.206 516.845,-137.679 509.345,-145.163 515.649,-148.206"/>
</g>
<!-- Node13 -->
<g id="node35" class="node"><title>Node13</title>
<a xlink:href="AmbientLightSensor_8h.htm" target="_top" xlink:title="AmbientLightSensor.h">
<polygon fill="white" stroke="black" points="89.5,-174.5 89.5,-195.5 208.5,-195.5 208.5,-174.5 89.5,-174.5"/>
<text text-anchor="middle" x="149" y="-182.5" font-family="Helvetica,sans-Serif" font-size="10.00">AmbientLightSensor.h</text>
</a>
</g>
<!-- Node1&#45;&gt;Node13 -->
<g id="edge44" class="edge"><title>Node1&#45;&gt;Node13</title>
<path fill="none" stroke="midnightblue" d="M414.716,-233.617C360.881,-223.767 275.979,-208.233 216.678,-197.383"/>
<polygon fill="midnightblue" stroke="midnightblue" points="217.121,-193.906 206.654,-195.549 215.861,-200.791 217.121,-193.906"/>
</g>
<!-- Node14 -->
<g id="node38" class="node"><title>Node14</title>
<polygon fill="white" stroke="#bfbfbf" points="31,-116.5 31,-137.5 109,-137.5 109,-116.5 31,-116.5"/>
<text text-anchor="middle" x="70" y="-124.5" font-family="Helvetica,sans-Serif" font-size="10.00">lunaservice.h</text>
</g>
<!-- Node1&#45;&gt;Node14 -->
<g id="edge78" class="edge"><title>Node1&#45;&gt;Node14</title>
<path fill="none" stroke="midnightblue" d="M414.864,-240.147C315.645,-234.128 104.633,-218.783 81,-196 68.3507,-183.806 66.4938,-163.322 67.2662,-147.832"/>
<polygon fill="midnightblue" stroke="midnightblue" points="70.7741,-147.898 68.1765,-137.626 63.8018,-147.276 70.7741,-147.898"/>
</g>
<!-- Node16 -->
<g id="node42" class="node"><title>Node16</title>
<a xlink:href="DisplayStates_8h.htm" target="_top" xlink:title="DisplayStates.h">
<polygon fill="white" stroke="black" points="320.5,-174.5 320.5,-195.5 409.5,-195.5 409.5,-174.5 320.5,-174.5"/>
<text text-anchor="middle" x="365" y="-182.5" font-family="Helvetica,sans-Serif" font-size="10.00">DisplayStates.h</text>
</a>
</g>
<!-- Node1&#45;&gt;Node16 -->
<g id="edge52" class="edge"><title>Node1&#45;&gt;Node16</title>
<path fill="none" stroke="midnightblue" d="M447.475,-232.362C432.099,-223.532 410.004,-210.844 392.553,-200.822"/>
<polygon fill="midnightblue" stroke="midnightblue" points="393.822,-197.515 383.408,-195.571 390.336,-203.586 393.822,-197.515"/>
</g>
<!-- Node22 -->
<g id="node59" class="node"><title>Node22</title>
<polygon fill="white" stroke="#bfbfbf" points="642,-174.5 642,-195.5 694,-195.5 694,-174.5 642,-174.5"/>
<text text-anchor="middle" x="668" y="-182.5" font-family="Helvetica,sans-Serif" font-size="10.00">QEvent</text>
</g>
<!-- Node1&#45;&gt;Node22 -->
<g id="edge74" class="edge"><title>Node1&#45;&gt;Node22</title>
<path fill="none" stroke="midnightblue" d="M502.581,-232.497C539.369,-221.934 595.728,-205.751 632.227,-195.271"/>
<polygon fill="midnightblue" stroke="midnightblue" points="633.316,-198.6 641.962,-192.476 631.384,-191.872 633.316,-198.6"/>
</g>
<!-- Node23 -->
<g id="node61" class="node"><title>Node23</title>
<polygon fill="white" stroke="#bfbfbf" points="711.5,-174.5 711.5,-195.5 766.5,-195.5 766.5,-174.5 711.5,-174.5"/>
<text text-anchor="middle" x="739" y="-182.5" font-family="Helvetica,sans-Serif" font-size="10.00">QObject</text>
</g>
<!-- Node1&#45;&gt;Node23 -->
<g id="edge76" class="edge"><title>Node1&#45;&gt;Node23</title>
<path fill="none" stroke="midnightblue" d="M517.185,-234.387C563.15,-226.308 632.643,-213.243 701.083,-196.33"/>
<polygon fill="midnightblue" stroke="midnightblue" points="702.318,-199.629 711.17,-193.807 700.619,-192.838 702.318,-199.629"/>
</g>
<!-- Node3&#45;&gt;Node2 -->
<g id="edge6" class="edge"><title>Node3&#45;&gt;Node2</title>
<path fill="none" stroke="midnightblue" d="M356.595,-116.139C349.581,-106.827 339.549,-92.9101 332,-80 322.615,-63.9503 313.624,-44.8163 307.404,-30.773"/>
<polygon fill="midnightblue" stroke="midnightblue" points="310.597,-29.3379 303.399,-21.5638 304.178,-32.13 310.597,-29.3379"/>
</g>
<!-- Node4 -->
<g id="node8" class="node"><title>Node4</title>
<polygon fill="white" stroke="#bfbfbf" points="575.5,-0.5 575.5,-21.5 616.5,-21.5 616.5,-0.5 575.5,-0.5"/>
<text text-anchor="middle" x="596" y="-8.5" font-family="Helvetica,sans-Serif" font-size="10.00">glib.h</text>
</g>
<!-- Node3&#45;&gt;Node4 -->
<g id="edge8" class="edge"><title>Node3&#45;&gt;Node4</title>
<path fill="none" stroke="midnightblue" d="M361.243,-116.285C356.779,-101.421 351.509,-74.5124 365,-58 389.934,-27.4817 508.087,-16.2814 565.091,-12.6052"/>
<polygon fill="midnightblue" stroke="midnightblue" points="565.54,-16.0845 575.309,-11.985 565.115,-9.09733 565.54,-16.0845"/>
</g>
<!-- Node5 -->
<g id="node10" class="node"><title>Node5</title>
<polygon fill="white" stroke="#bfbfbf" points="374,-58.5 374,-79.5 424,-79.5 424,-58.5 374,-58.5"/>
<text text-anchor="middle" x="399" y="-66.5" font-family="Helvetica,sans-Serif" font-size="10.00">stdint.h</text>
</g>
<!-- Node3&#45;&gt;Node5 -->
<g id="edge10" class="edge"><title>Node3&#45;&gt;Node5</title>
<path fill="none" stroke="midnightblue" d="M371.236,-116.362C375.837,-108.513 382.225,-97.6159 387.714,-88.2527"/>
<polygon fill="midnightblue" stroke="midnightblue" points="390.766,-89.9677 392.803,-79.5707 384.727,-86.4276 390.766,-89.9677"/>
</g>
<!-- Node6&#45;&gt;Node2 -->
<g id="edge14" class="edge"><title>Node6&#45;&gt;Node2</title>
<path fill="none" stroke="midnightblue" d="M910.271,-116.314C916.865,-101.234 925.625,-73.7914 911,-58 891.703,-37.1646 480.095,-18.4357 342.989,-12.7551"/>
<polygon fill="midnightblue" stroke="midnightblue" points="342.98,-9.2518 332.844,-12.3378 342.692,-16.2459 342.98,-9.2518"/>
</g>
<!-- Node6&#45;&gt;Node4 -->
<g id="edge22" class="edge"><title>Node6&#45;&gt;Node4</title>
<path fill="none" stroke="midnightblue" d="M918.715,-116.339C935.527,-102.01 959.938,-76.2348 944,-58 923.218,-34.2224 708.112,-18.146 626.853,-12.8806"/>
<polygon fill="midnightblue" stroke="midnightblue" points="626.95,-9.37975 616.747,-12.2371 626.505,-16.3656 626.95,-9.37975"/>
</g>
<!-- Node6&#45;&gt;Node7 -->
<g id="edge16" class="edge"><title>Node6&#45;&gt;Node7</title>
<path fill="none" stroke="midnightblue" d="M900.598,-116.362C897.418,-108.677 893.028,-98.0686 889.21,-88.8399"/>
<polygon fill="midnightblue" stroke="midnightblue" points="892.432,-87.4726 885.374,-79.5707 885.964,-90.1491 892.432,-87.4726"/>
</g>
<!-- Node7&#45;&gt;Node2 -->
<g id="edge18" class="edge"><title>Node7&#45;&gt;Node2</title>
<path fill="none" stroke="midnightblue" d="M859.247,-60.2613C856.503,-59.3859 853.708,-58.6004 851,-58 754.252,-36.5488 455.594,-19.1785 342.768,-13.2185"/>
<polygon fill="midnightblue" stroke="midnightblue" points="342.925,-9.72202 332.756,-12.6939 342.559,-16.7124 342.925,-9.72202"/>
</g>
<!-- Node7&#45;&gt;Node4 -->
<g id="edge20" class="edge"><title>Node7&#45;&gt;Node4</title>
<path fill="none" stroke="midnightblue" d="M859.184,-60.5158C856.45,-59.5968 853.676,-58.7314 851,-58 771.471,-36.2587 675.219,-21.5698 626.877,-14.9703"/>
<polygon fill="midnightblue" stroke="midnightblue" points="627.136,-11.4737 616.759,-13.6122 626.205,-18.4115 627.136,-11.4737"/>
</g>
<!-- Node8&#45;&gt;Node2 -->
<g id="edge26" class="edge"><title>Node8&#45;&gt;Node2</title>
<path fill="none" stroke="midnightblue" d="M529.66,-116.409C539.286,-101.691 552.957,-74.9551 539,-58 514.64,-28.4065 405.257,-17.1776 342.901,-13.1294"/>
<polygon fill="midnightblue" stroke="midnightblue" points="342.772,-9.61499 332.576,-12.4967 342.343,-16.6019 342.772,-9.61499"/>
</g>
<!-- Node8&#45;&gt;Node4 -->
<g id="edge30" class="edge"><title>Node8&#45;&gt;Node4</title>
<path fill="none" stroke="midnightblue" d="M536.975,-116.147C548.009,-107.464 562.663,-94.3919 572,-80 581.682,-65.0775 587.958,-45.7959 591.655,-31.4103"/>
<polygon fill="midnightblue" stroke="midnightblue" points="595.099,-32.0541 593.993,-21.5172 588.287,-30.4443 595.099,-32.0541"/>
</g>
<!-- Node8&#45;&gt;Node5 -->
<g id="edge28" class="edge"><title>Node8&#45;&gt;Node5</title>
<path fill="none" stroke="midnightblue" d="M499.726,-116.497C480.428,-107.397 452.287,-94.1273 430.652,-83.9253"/>
<polygon fill="midnightblue" stroke="midnightblue" points="432.062,-80.7206 421.524,-79.6212 429.076,-87.052 432.062,-80.7206"/>
</g>
<!-- Node8&#45;&gt;Node7 -->
<g id="edge40" class="edge"><title>Node8&#45;&gt;Node7</title>
<path fill="none" stroke="midnightblue" d="M548.121,-119.235C552.718,-118.035 557.479,-116.898 562,-116 685.732,-91.4142 723.303,-109.505 849.2,-80.0379"/>
<polygon fill="midnightblue" stroke="midnightblue" points="850.314,-83.3702 859.223,-77.6364 848.683,-76.5629 850.314,-83.3702"/>
</g>
<!-- Node9 -->
<g id="node25" class="node"><title>Node9</title>
<polygon fill="white" stroke="#bfbfbf" points="623.5,-58.5 623.5,-79.5 670.5,-79.5 670.5,-58.5 623.5,-58.5"/>
<text text-anchor="middle" x="647" y="-66.5" font-family="Helvetica,sans-Serif" font-size="10.00">stdio.h</text>
</g>
<!-- Node8&#45;&gt;Node9 -->
<g id="edge32" class="edge"><title>Node8&#45;&gt;Node9</title>
<path fill="none" stroke="midnightblue" d="M544.637,-116.497C564.248,-107.397 592.846,-94.1273 614.833,-83.9253"/>
<polygon fill="midnightblue" stroke="midnightblue" points="616.512,-87.0051 624.109,-79.6212 613.565,-80.6554 616.512,-87.0051"/>
</g>
<!-- Node10 -->
<g id="node27" class="node"><title>Node10</title>
<polygon fill="white" stroke="#bfbfbf" points="687.5,-58.5 687.5,-79.5 738.5,-79.5 738.5,-58.5 687.5,-58.5"/>
<text text-anchor="middle" x="713" y="-66.5" font-family="Helvetica,sans-Serif" font-size="10.00">string.h</text>
</g>
<!-- Node8&#45;&gt;Node10 -->
<g id="edge34" class="edge"><title>Node8&#45;&gt;Node10</title>
<path fill="none" stroke="midnightblue" d="M548.166,-119.358C577.485,-110.755 626.668,-96.1976 677.546,-80.4148"/>
<polygon fill="midnightblue" stroke="midnightblue" points="678.891,-83.662 687.399,-77.3492 676.811,-76.978 678.891,-83.662"/>
</g>
<!-- Node11 -->
<g id="node29" class="node"><title>Node11</title>
<polygon fill="white" stroke="#bfbfbf" points="756,-58.5 756,-79.5 842,-79.5 842,-58.5 756,-58.5"/>
<text text-anchor="middle" x="799" y="-66.5" font-family="Helvetica,sans-Serif" font-size="10.00">qnamespace.h</text>
</g>
<!-- Node8&#45;&gt;Node11 -->
<g id="edge36" class="edge"><title>Node8&#45;&gt;Node11</title>
<path fill="none" stroke="midnightblue" d="M548.177,-119.494C552.768,-118.266 557.512,-117.052 562,-116 640.527,-97.5903 663.243,-96.7102 746.034,-80.1627"/>
<polygon fill="midnightblue" stroke="midnightblue" points="746.77,-83.5849 755.881,-78.1777 745.387,-76.7229 746.77,-83.5849"/>
</g>
<!-- Node12 -->
<g id="node31" class="node"><title>Node12</title>
<polygon fill="white" stroke="#bfbfbf" points="442,-58.5 442,-79.5 530,-79.5 530,-58.5 442,-58.5"/>
<text text-anchor="middle" x="486" y="-66.5" font-family="Helvetica,sans-Serif" font-size="10.00">SysMgrEvent.h</text>
</g>
<!-- Node8&#45;&gt;Node12 -->
<g id="edge38" class="edge"><title>Node8&#45;&gt;Node12</title>
<path fill="none" stroke="midnightblue" d="M515.397,-116.362C510.525,-108.513 503.762,-97.6159 497.95,-88.2527"/>
<polygon fill="midnightblue" stroke="midnightblue" points="500.809,-86.2213 492.561,-79.5707 494.861,-89.9129 500.809,-86.2213"/>
</g>
<!-- Node13&#45;&gt;Node2 -->
<g id="edge46" class="edge"><title>Node13&#45;&gt;Node2</title>
<path fill="none" stroke="midnightblue" d="M154.408,-174.266C169.038,-145.348 208.904,-67.3551 218,-58 230.859,-44.7751 248.229,-34.0411 263.586,-26.1876"/>
<polygon fill="midnightblue" stroke="midnightblue" points="265.38,-29.2067 272.83,-21.6734 262.308,-22.9167 265.38,-29.2067"/>
</g>
<!-- Node13&#45;&gt;Node14 -->
<g id="edge48" class="edge"><title>Node13&#45;&gt;Node14</title>
<path fill="none" stroke="midnightblue" d="M134.51,-174.362C122.817,-165.777 106.157,-153.546 92.6969,-143.664"/>
<polygon fill="midnightblue" stroke="midnightblue" points="94.5301,-140.667 84.398,-137.571 90.3874,-146.31 94.5301,-140.667"/>
</g>
<!-- Node15 -->
<g id="node40" class="node"><title>Node15</title>
<polygon fill="white" stroke="#bfbfbf" points="134.5,-116.5 134.5,-137.5 163.5,-137.5 163.5,-116.5 134.5,-116.5"/>
<text text-anchor="middle" x="149" y="-124.5" font-family="Helvetica,sans-Serif" font-size="10.00">list</text>
</g>
<!-- Node13&#45;&gt;Node15 -->
<g id="edge50" class="edge"><title>Node13&#45;&gt;Node15</title>
<path fill="none" stroke="midnightblue" d="M149,-174.362C149,-166.922 149,-156.743 149,-147.728"/>
<polygon fill="midnightblue" stroke="midnightblue" points="152.5,-147.571 149,-137.571 145.5,-147.571 152.5,-147.571"/>
</g>
<!-- Node16&#45;&gt;Node2 -->
<g id="edge54" class="edge"><title>Node16&#45;&gt;Node2</title>
<path fill="none" stroke="midnightblue" d="M354.991,-174.238C347.106,-165.204 336.41,-151.624 330,-138 313.42,-102.758 305.138,-57.6967 301.48,-31.8164"/>
<polygon fill="midnightblue" stroke="midnightblue" points="304.921,-31.1396 300.148,-21.681 297.981,-32.0519 304.921,-31.1396"/>
</g>
<!-- Node16&#45;&gt;Node3 -->
<g id="edge56" class="edge"><title>Node16&#45;&gt;Node3</title>
<path fill="none" stroke="midnightblue" d="M365,-174.362C365,-166.922 365,-156.743 365,-147.728"/>
<polygon fill="midnightblue" stroke="midnightblue" points="368.5,-147.571 365,-137.571 361.5,-147.571 368.5,-147.571"/>
</g>
<!-- Node16&#45;&gt;Node8 -->
<g id="edge58" class="edge"><title>Node16&#45;&gt;Node8</title>
<path fill="none" stroke="midnightblue" d="M393.432,-174.497C419.517,-164.86 458.261,-150.547 486.396,-140.153"/>
<polygon fill="midnightblue" stroke="midnightblue" points="487.699,-143.403 495.867,-136.654 485.273,-136.837 487.699,-143.403"/>
</g>
<!-- Node17 -->
<g id="node47" class="node"><title>Node17</title>
<a xlink:href="Settings_8h.htm" target="_top" xlink:title="Settings.h">
<polygon fill="white" stroke="black" points="103.5,-58.5 103.5,-79.5 166.5,-79.5 166.5,-58.5 103.5,-58.5"/>
<text text-anchor="middle" x="135" y="-66.5" font-family="Helvetica,sans-Serif" font-size="10.00">Settings.h</text>
</a>
</g>
<!-- Node16&#45;&gt;Node17 -->
<g id="edge60" class="edge"><title>Node16&#45;&gt;Node17</title>
<path fill="none" stroke="midnightblue" d="M343.774,-174.295C302.679,-153.568 212.147,-107.909 164.95,-84.105"/>
<polygon fill="midnightblue" stroke="midnightblue" points="166.347,-80.8898 155.842,-79.5117 163.195,-87.1399 166.347,-80.8898"/>
</g>
<!-- Node17&#45;&gt;Node2 -->
<g id="edge62" class="edge"><title>Node17&#45;&gt;Node2</title>
<path fill="none" stroke="midnightblue" d="M164.699,-58.4966C191.32,-49.082 230.562,-35.2036 259.761,-24.8773"/>
<polygon fill="midnightblue" stroke="midnightblue" points="260.984,-28.1571 269.245,-21.5231 258.65,-21.5576 260.984,-28.1571"/>
</g>
<!-- Node17&#45;&gt;Node4 -->
<g id="edge70" class="edge"><title>Node17&#45;&gt;Node4</title>
<path fill="none" stroke="midnightblue" d="M166.686,-65.0134C251.265,-54.3723 481.586,-25.3949 565.171,-14.8788"/>
<polygon fill="midnightblue" stroke="midnightblue" points="565.807,-18.3264 575.291,-13.6054 564.933,-11.3812 565.807,-18.3264"/>
</g>
<!-- Node18 -->
<g id="node50" class="node"><title>Node18</title>
<polygon fill="white" stroke="#bfbfbf" points="123.5,-0.5 123.5,-21.5 166.5,-21.5 166.5,-0.5 123.5,-0.5"/>
<text text-anchor="middle" x="145" y="-8.5" font-family="Helvetica,sans-Serif" font-size="10.00">string</text>
</g>
<!-- Node17&#45;&gt;Node18 -->
<g id="edge64" class="edge"><title>Node17&#45;&gt;Node18</title>
<path fill="none" stroke="midnightblue" d="M136.834,-58.3619C138.131,-50.8401 139.911,-40.5187 141.477,-31.4308"/>
<polygon fill="midnightblue" stroke="midnightblue" points="144.927,-32.02 143.177,-21.5707 138.029,-30.8306 144.927,-32.02"/>
</g>
<!-- Node19 -->
<g id="node52" class="node"><title>Node19</title>
<polygon fill="white" stroke="#bfbfbf" points="184,-0.5 184,-21.5 230,-21.5 230,-0.5 184,-0.5"/>
<text text-anchor="middle" x="207" y="-8.5" font-family="Helvetica,sans-Serif" font-size="10.00">vector</text>
</g>
<!-- Node17&#45;&gt;Node19 -->
<g id="edge66" class="edge"><title>Node17&#45;&gt;Node19</title>
<path fill="none" stroke="midnightblue" d="M148.206,-58.3619C158.761,-49.859 173.758,-37.7785 185.963,-27.9466"/>
<polygon fill="midnightblue" stroke="midnightblue" points="188.286,-30.5696 193.878,-21.5707 183.895,-25.1183 188.286,-30.5696"/>
</g>
<!-- Node20 -->
<g id="node54" class="node"><title>Node20</title>
<polygon fill="white" stroke="#bfbfbf" points="-0.5,-0.5 -0.5,-21.5 30.5,-21.5 30.5,-0.5 -0.5,-0.5"/>
<text text-anchor="middle" x="15" y="-8.5" font-family="Helvetica,sans-Serif" font-size="10.00">set</text>
</g>
<!-- Node17&#45;&gt;Node20 -->
<g id="edge68" class="edge"><title>Node17&#45;&gt;Node20</title>
<path fill="none" stroke="midnightblue" d="M113.269,-58.4966C92.6522,-48.5319 61.6894,-33.5665 40.0451,-23.1051"/>
<polygon fill="midnightblue" stroke="midnightblue" points="41.3534,-19.8501 30.8268,-18.6496 38.3071,-26.1526 41.3534,-19.8501"/>
</g>
<!-- Node21 -->
<g id="node57" class="node"><title>Node21</title>
<polygon fill="white" stroke="#bfbfbf" points="48,-0.5 48,-21.5 106,-21.5 106,-0.5 48,-0.5"/>
<text text-anchor="middle" x="77" y="-8.5" font-family="Helvetica,sans-Serif" font-size="10.00">QtGlobal</text>
</g>
<!-- Node17&#45;&gt;Node21 -->
<g id="edge72" class="edge"><title>Node17&#45;&gt;Node21</title>
<path fill="none" stroke="midnightblue" d="M124.362,-58.3619C116.104,-50.1043 104.472,-38.4725 94.8029,-28.8029"/>
<polygon fill="midnightblue" stroke="midnightblue" points="97.1166,-26.1669 87.5707,-21.5707 92.1669,-31.1166 97.1166,-26.1669"/>
</g>
</g>
</svg>
