<?xml version="1.0" encoding="UTF-8" standalone="no"?>
<!DOCTYPE svg PUBLIC "-//W3C//DTD SVG 1.1//EN"
 "http://www.w3.org/Graphics/SVG/1.1/DTD/svg11.dtd">
<!-- Generated by graphviz version 2.26.3 (20100126.1600)
 -->
<!-- Title: G Pages: 1 -->
<svg width="824pt" height="146pt"
 viewBox="0.00 0.00 824.00 146.00" xmlns="http://www.w3.org/2000/svg" xmlns:xlink="http://www.w3.org/1999/xlink">
<g id="graph1" class="graph" transform="scale(1 1) rotate(0) translate(4 142)">
<title>G</title>
<polygon fill="white" stroke="white" points="-4,5 -4,-142 821,-142 821,5 -4,5"/>
<!-- Node1 -->
<g id="node1" class="node"><title>Node1</title>
<polygon fill="#bfbfbf" stroke="black" points="259.5,-116.5 259.5,-137.5 426.5,-137.5 426.5,-116.5 259.5,-116.5"/>
<text text-anchor="middle" x="343" y="-124.5" font-family="Helvetica,sans-Serif" font-size="10.00">DockModeAppMenuContainer.h</text>
</g>
<!-- Node2 -->
<g id="node3" class="node"><title>Node2</title>
<a xlink:href="Common_8h.htm" target="_top" xlink:title="Common.h">
<polygon fill="white" stroke="black" points="86.5,-0.5 86.5,-21.5 153.5,-21.5 153.5,-0.5 86.5,-0.5"/>
<text text-anchor="middle" x="120" y="-8.5" font-family="Helvetica,sans-Serif" font-size="10.00">Common.h</text>
</a>
</g>
<!-- Node1&#45;&gt;Node2 -->
<g id="edge2" class="edge"><title>Node1&#45;&gt;Node2</title>
<path fill="none" stroke="midnightblue" d="M259.329,-116.503C211.033,-108.803 156.48,-96.7566 139,-80 126.008,-67.546 121.635,-47.0962 120.288,-31.6855"/>
<polygon fill="midnightblue" stroke="midnightblue" points="123.775,-31.3459 119.761,-21.541 116.784,-31.7091 123.775,-31.3459"/>
</g>
<!-- Node3 -->
<g id="node5" class="node"><title>Node3</title>
<a xlink:href="CustomEvents_8h.htm" target="_top" xlink:title="CustomEvents.h">
<polygon fill="white" stroke="black" points="0,-58.5 0,-79.5 92,-79.5 92,-58.5 0,-58.5"/>
<text text-anchor="middle" x="46" y="-66.5" font-family="Helvetica,sans-Serif" font-size="10.00">CustomEvents.h</text>
</a>
</g>
<!-- Node1&#45;&gt;Node3 -->
<g id="edge4" class="edge"><title>Node1&#45;&gt;Node3</title>
<path fill="none" stroke="midnightblue" d="M289.216,-116.497C236.293,-106.162 155.824,-90.4471 102.111,-79.9578"/>
<polygon fill="midnightblue" stroke="midnightblue" points="102.559,-76.4792 92.074,-77.9976 101.218,-83.3495 102.559,-76.4792"/>
</g>
<!-- Node5 -->
<g id="node10" class="node"><title>Node5</title>
<a xlink:href="PtrArray_8h.htm" target="_top" xlink:title="PtrArray.h">
<polygon fill="white" stroke="black" points="148,-58.5 148,-79.5 212,-79.5 212,-58.5 148,-58.5"/>
<text text-anchor="middle" x="180" y="-66.5" font-family="Helvetica,sans-Serif" font-size="10.00">PtrArray.h</text>
</a>
</g>
<!-- Node1&#45;&gt;Node5 -->
<g id="edge10" class="edge"><title>Node1&#45;&gt;Node5</title>
<path fill="none" stroke="midnightblue" d="M313.482,-116.497C287.024,-107.082 248.021,-93.2036 219,-82.8773"/>
<polygon fill="midnightblue" stroke="midnightblue" points="220.168,-79.578 209.573,-79.5231 217.821,-86.173 220.168,-79.578"/>
</g>
<!-- Node7 -->
<g id="node15" class="node"><title>Node7</title>
<polygon fill="white" stroke="#bfbfbf" points="230,-58.5 230,-79.5 276,-79.5 276,-58.5 230,-58.5"/>
<text text-anchor="middle" x="253" y="-66.5" font-family="Helvetica,sans-Serif" font-size="10.00">QFont</text>
</g>
<!-- Node1&#45;&gt;Node7 -->
<g id="edge16" class="edge"><title>Node1&#45;&gt;Node7</title>
<path fill="none" stroke="midnightblue" d="M326.493,-116.362C312.918,-107.614 293.467,-95.0786 277.985,-85.1015"/>
<polygon fill="midnightblue" stroke="midnightblue" points="279.704,-82.0457 269.403,-79.5707 275.912,-87.9297 279.704,-82.0457"/>
</g>
<!-- Node8 -->
<g id="node17" class="node"><title>Node8</title>
<polygon fill="white" stroke="#bfbfbf" points="294,-58.5 294,-79.5 392,-79.5 392,-58.5 294,-58.5"/>
<text text-anchor="middle" x="343" y="-66.5" font-family="Helvetica,sans-Serif" font-size="10.00">QGraphicsObject</text>
</g>
<!-- Node1&#45;&gt;Node8 -->
<g id="edge18" class="edge"><title>Node1&#45;&gt;Node8</title>
<path fill="none" stroke="midnightblue" d="M343,-116.362C343,-108.922 343,-98.7427 343,-89.7276"/>
<polygon fill="midnightblue" stroke="midnightblue" points="346.5,-89.5706 343,-79.5707 339.5,-89.5707 346.5,-89.5706"/>
</g>
<!-- Node9 -->
<g id="node19" class="node"><title>Node9</title>
<polygon fill="white" stroke="#bfbfbf" points="410,-58.5 410,-79.5 522,-79.5 522,-58.5 410,-58.5"/>
<text text-anchor="middle" x="466" y="-66.5" font-family="Helvetica,sans-Serif" font-size="10.00">QPropertyAnimation</text>
</g>
<!-- Node1&#45;&gt;Node9 -->
<g id="edge20" class="edge"><title>Node1&#45;&gt;Node9</title>
<path fill="none" stroke="midnightblue" d="M365.274,-116.497C384.572,-107.397 412.713,-94.1273 434.348,-83.9253"/>
<polygon fill="midnightblue" stroke="midnightblue" points="435.924,-87.052 443.476,-79.6212 432.938,-80.7206 435.924,-87.052"/>
</g>
<!-- Node10 -->
<g id="node21" class="node"><title>Node10</title>
<polygon fill="white" stroke="#bfbfbf" points="540,-58.5 540,-79.5 676,-79.5 676,-58.5 540,-58.5"/>
<text text-anchor="middle" x="608" y="-66.5" font-family="Helvetica,sans-Serif" font-size="10.00">QParallelAnimationGroup</text>
</g>
<!-- Node1&#45;&gt;Node10 -->
<g id="edge22" class="edge"><title>Node1&#45;&gt;Node10</title>
<path fill="none" stroke="midnightblue" d="M390.99,-116.497C435.688,-106.714 502.408,-92.1107 550.057,-81.6819"/>
<polygon fill="midnightblue" stroke="midnightblue" points="550.9,-85.0803 559.92,-79.5231 549.403,-78.2421 550.9,-85.0803"/>
</g>
<!-- Node11 -->
<g id="node23" class="node"><title>Node11</title>
<polygon fill="white" stroke="#bfbfbf" points="694,-58.5 694,-79.5 744,-79.5 744,-58.5 694,-58.5"/>
<text text-anchor="middle" x="719" y="-66.5" font-family="Helvetica,sans-Serif" font-size="10.00">stdint.h</text>
</g>
<!-- Node1&#45;&gt;Node11 -->
<g id="edge24" class="edge"><title>Node1&#45;&gt;Node11</title>
<path fill="none" stroke="midnightblue" d="M426.671,-119.661C493.989,-112.8 591.039,-100.759 684.031,-79.9166"/>
<polygon fill="midnightblue" stroke="midnightblue" points="684.915,-83.3051 693.887,-77.6706 683.359,-76.48 684.915,-83.3051"/>
</g>
<!-- Node12 -->
<g id="node25" class="node"><title>Node12</title>
<polygon fill="white" stroke="#bfbfbf" points="761.5,-58.5 761.5,-79.5 816.5,-79.5 816.5,-58.5 761.5,-58.5"/>
<text text-anchor="middle" x="789" y="-66.5" font-family="Helvetica,sans-Serif" font-size="10.00">QDebug</text>
</g>
<!-- Node1&#45;&gt;Node12 -->
<g id="edge26" class="edge"><title>Node1&#45;&gt;Node12</title>
<path fill="none" stroke="midnightblue" d="M426.556,-121.904C507.633,-115.94 634.15,-103.944 751.36,-80.0768"/>
<polygon fill="midnightblue" stroke="midnightblue" points="752.139,-83.4899 761.222,-78.0356 750.72,-76.6351 752.139,-83.4899"/>
</g>
<!-- Node3&#45;&gt;Node2 -->
<g id="edge6" class="edge"><title>Node3&#45;&gt;Node2</title>
<path fill="none" stroke="midnightblue" d="M59.5727,-58.3619C70.4212,-49.859 85.8343,-37.7785 98.3785,-27.9466"/>
<polygon fill="midnightblue" stroke="midnightblue" points="100.802,-30.4942 106.513,-21.5707 96.4836,-24.9848 100.802,-30.4942"/>
</g>
<!-- Node4 -->
<g id="node8" class="node"><title>Node4</title>
<polygon fill="white" stroke="#bfbfbf" points="17,-0.5 17,-21.5 69,-21.5 69,-0.5 17,-0.5"/>
<text text-anchor="middle" x="43" y="-8.5" font-family="Helvetica,sans-Serif" font-size="10.00">QEvent</text>
</g>
<!-- Node3&#45;&gt;Node4 -->
<g id="edge8" class="edge"><title>Node3&#45;&gt;Node4</title>
<path fill="none" stroke="midnightblue" d="M45.4498,-58.3619C45.0649,-50.9219 44.5384,-40.7427 44.0721,-31.7276"/>
<polygon fill="midnightblue" stroke="midnightblue" points="47.5587,-31.3765 43.5468,-21.5707 40.5681,-31.7381 47.5587,-31.3765"/>
</g>
<!-- Node5&#45;&gt;Node2 -->
<g id="edge12" class="edge"><title>Node5&#45;&gt;Node2</title>
<path fill="none" stroke="midnightblue" d="M168.995,-58.3619C160.453,-50.1043 148.42,-38.4725 138.417,-28.8029"/>
<polygon fill="midnightblue" stroke="midnightblue" points="140.558,-26.0044 130.935,-21.5707 135.692,-31.0374 140.558,-26.0044"/>
</g>
<!-- Node6 -->
<g id="node13" class="node"><title>Node6</title>
<polygon fill="white" stroke="#bfbfbf" points="170.5,-0.5 170.5,-21.5 211.5,-21.5 211.5,-0.5 170.5,-0.5"/>
<text text-anchor="middle" x="191" y="-8.5" font-family="Helvetica,sans-Serif" font-size="10.00">glib.h</text>
</g>
<!-- Node5&#45;&gt;Node6 -->
<g id="edge14" class="edge"><title>Node5&#45;&gt;Node6</title>
<path fill="none" stroke="midnightblue" d="M182.018,-58.3619C183.444,-50.8401 185.402,-40.5187 187.125,-31.4308"/>
<polygon fill="midnightblue" stroke="midnightblue" points="190.571,-32.0477 188.995,-21.5707 183.693,-30.7433 190.571,-32.0477"/>
</g>
</g>
</svg>
