<?xml version="1.0" encoding="UTF-8" standalone="no"?>
<!DOCTYPE svg PUBLIC "-//W3C//DTD SVG 1.1//EN"
 "http://www.w3.org/Graphics/SVG/1.1/DTD/svg11.dtd">
<!-- Generated by graphviz version 2.26.3 (20100126.1600)
 -->
<!-- Title: G Pages: 1 -->
<svg width="1806pt" height="378pt"
 viewBox="0.00 0.00 1806.00 378.00" xmlns="http://www.w3.org/2000/svg" xmlns:xlink="http://www.w3.org/1999/xlink">
<g id="graph1" class="graph" transform="scale(1 1) rotate(0) translate(4 374)">
<title>G</title>
<polygon fill="white" stroke="white" points="-4,5 -4,-374 1803,-374 1803,5 -4,5"/>
<!-- Node1 -->
<g id="node1" class="node"><title>Node1</title>
<polygon fill="#bfbfbf" stroke="black" points="1340,-348.5 1340,-369.5 1474,-369.5 1474,-348.5 1340,-348.5"/>
<text text-anchor="middle" x="1407" y="-356.5" font-family="Helvetica,sans-Serif" font-size="10.00">DockModeLaunchPoint.h</text>
</g>
<!-- Node2 -->
<g id="node3" class="node"><title>Node2</title>
<a xlink:href="Common_8h.htm" target="_top" xlink:title="Common.h">
<polygon fill="white" stroke="black" points="583.5,-0.5 583.5,-21.5 650.5,-21.5 650.5,-0.5 583.5,-0.5"/>
<text text-anchor="middle" x="617" y="-8.5" font-family="Helvetica,sans-Serif" font-size="10.00">Common.h</text>
</a>
</g>
<!-- Node1&#45;&gt;Node2 -->
<g id="edge2" class="edge"><title>Node1&#45;&gt;Node2</title>
<path fill="none" stroke="midnightblue" d="M1339.84,-357.612C1134.41,-353.127 516.351,-337.801 317,-312 174.005,-293.493 0,-387.188 0,-243 0,-243 0,-243 0,-127 0,-68.5829 432.707,-26.6559 573.388,-14.5683"/>
<polygon fill="midnightblue" stroke="midnightblue" points="573.722,-18.0526 583.389,-13.7171 573.128,-11.0778 573.722,-18.0526"/>
</g>
<!-- Node3 -->
<g id="node5" class="node"><title>Node3</title>
<polygon fill="white" stroke="#bfbfbf" points="402.5,-116.5 402.5,-137.5 433.5,-137.5 433.5,-116.5 402.5,-116.5"/>
<text text-anchor="middle" x="418" y="-124.5" font-family="Helvetica,sans-Serif" font-size="10.00">set</text>
</g>
<!-- Node1&#45;&gt;Node3 -->
<g id="edge4" class="edge"><title>Node1&#45;&gt;Node3</title>
<path fill="none" stroke="midnightblue" d="M1339.74,-356.592C1127.82,-348.365 484.067,-318.255 418,-254 389.829,-226.601 400.884,-175.795 410.201,-147.455"/>
<polygon fill="midnightblue" stroke="midnightblue" points="413.584,-148.383 413.601,-137.789 406.981,-146.061 413.584,-148.383"/>
</g>
<!-- Node4 -->
<g id="node7" class="node"><title>Node4</title>
<a xlink:href="GraphicsDefs_8h.htm" target="_top" xlink:title="GraphicsDefs.h">
<polygon fill="white" stroke="black" points="209.5,-232.5 209.5,-253.5 298.5,-253.5 298.5,-232.5 209.5,-232.5"/>
<text text-anchor="middle" x="254" y="-240.5" font-family="Helvetica,sans-Serif" font-size="10.00">GraphicsDefs.h</text>
</a>
</g>
<!-- Node1&#45;&gt;Node4 -->
<g id="edge6" class="edge"><title>Node1&#45;&gt;Node4</title>
<path fill="none" stroke="midnightblue" d="M1339.98,-357.926C1124.57,-354.203 458.559,-340.493 366,-312 330.893,-301.193 295.689,-276.728 274.369,-260.034"/>
<polygon fill="midnightblue" stroke="midnightblue" points="276.375,-257.157 266.384,-253.633 271.997,-262.618 276.375,-257.157"/>
</g>
<!-- Node8 -->
<g id="node16" class="node"><title>Node8</title>
<a xlink:href="DockModeWindowManager_8h.htm" target="_top" xlink:title="DockModeWindowManager.h">
<polygon fill="white" stroke="black" points="830,-290.5 830,-311.5 986,-311.5 986,-290.5 830,-290.5"/>
<text text-anchor="middle" x="908" y="-298.5" font-family="Helvetica,sans-Serif" font-size="10.00">DockModeWindowManager.h</text>
</a>
</g>
<!-- Node1&#45;&gt;Node8 -->
<g id="edge16" class="edge"><title>Node1&#45;&gt;Node8</title>
<path fill="none" stroke="midnightblue" d="M1339.96,-351.208C1251.27,-340.899 1094.7,-322.701 996.408,-311.276"/>
<polygon fill="midnightblue" stroke="midnightblue" points="996.534,-307.767 986.197,-310.089 995.726,-314.72 996.534,-307.767"/>
</g>
<!-- Node15 -->
<g id="node35" class="node"><title>Node15</title>
<a xlink:href="PtrArray_8h.htm" target="_top" xlink:title="PtrArray.h">
<polygon fill="white" stroke="black" points="895,-58.5 895,-79.5 959,-79.5 959,-58.5 895,-58.5"/>
<text text-anchor="middle" x="927" y="-66.5" font-family="Helvetica,sans-Serif" font-size="10.00">PtrArray.h</text>
</a>
</g>
<!-- Node1&#45;&gt;Node15 -->
<g id="edge114" class="edge"><title>Node1&#45;&gt;Node15</title>
<path fill="none" stroke="midnightblue" d="M1474.01,-351.151C1529.44,-343.496 1602.69,-330.325 1626,-312 1655.62,-288.719 1677.54,-261.409 1654,-232 1506.84,-48.1568 1367.05,-166.31 1137,-116 1065.05,-100.266 1044.35,-98.1153 969.145,-80.1944"/>
<polygon fill="midnightblue" stroke="midnightblue" points="969.729,-76.7354 959.188,-77.8062 968.096,-83.5423 969.729,-76.7354"/>
</g>
<!-- Node23 -->
<g id="node54" class="node"><title>Node23</title>
<polygon fill="white" stroke="#bfbfbf" points="1222,-174.5 1222,-195.5 1334,-195.5 1334,-174.5 1222,-174.5"/>
<text text-anchor="middle" x="1278" y="-182.5" font-family="Helvetica,sans-Serif" font-size="10.00">QPropertyAnimation</text>
</g>
<!-- Node1&#45;&gt;Node23 -->
<g id="edge116" class="edge"><title>Node1&#45;&gt;Node23</title>
<path fill="none" stroke="midnightblue" d="M1468.56,-348.449C1553.19,-331.413 1689.19,-293.408 1635,-232 1592.47,-183.803 1411.65,-204.99 1348,-196 1346.73,-195.821 1345.45,-195.638 1344.16,-195.453"/>
<polygon fill="midnightblue" stroke="midnightblue" points="1344.54,-191.971 1334.14,-193.979 1343.53,-198.897 1344.54,-191.971"/>
</g>
<!-- Node32 -->
<g id="node77" class="node"><title>Node32</title>
<polygon fill="white" stroke="#bfbfbf" points="1370.5,-58.5 1370.5,-79.5 1429.5,-79.5 1429.5,-58.5 1370.5,-58.5"/>
<text text-anchor="middle" x="1400" y="-66.5" font-family="Helvetica,sans-Serif" font-size="10.00">QPointer</text>
</g>
<!-- Node1&#45;&gt;Node32 -->
<g id="edge128" class="edge"><title>Node1&#45;&gt;Node32</title>
<path fill="none" stroke="midnightblue" d="M1474.29,-356.327C1551.47,-351.933 1671.77,-340.595 1706,-312 1730.92,-291.183 1730,-275.469 1730,-243 1730,-243 1730,-243 1730,-185 1730,-124.091 1527.38,-87.4126 1439.68,-74.3894"/>
<polygon fill="midnightblue" stroke="midnightblue" points="1439.98,-70.8956 1429.58,-72.9185 1438.97,-77.8226 1439.98,-70.8956"/>
</g>
<!-- Node33 -->
<g id="node83" class="node"><title>Node33</title>
<polygon fill="white" stroke="#bfbfbf" points="1116,-232.5 1116,-253.5 1252,-253.5 1252,-232.5 1116,-232.5"/>
<text text-anchor="middle" x="1184" y="-240.5" font-family="Helvetica,sans-Serif" font-size="10.00">QParallelAnimationGroup</text>
</g>
<!-- Node1&#45;&gt;Node33 -->
<g id="edge118" class="edge"><title>Node1&#45;&gt;Node33</title>
<path fill="none" stroke="midnightblue" d="M1386.42,-348.295C1346.66,-327.612 1259.17,-282.099 1213.33,-258.254"/>
<polygon fill="midnightblue" stroke="midnightblue" points="1214.69,-255.021 1204.21,-253.512 1211.46,-261.232 1214.69,-255.021"/>
</g>
<!-- Node34 -->
<g id="node85" class="node"><title>Node34</title>
<polygon fill="white" stroke="#bfbfbf" points="1270,-232.5 1270,-253.5 1426,-253.5 1426,-232.5 1270,-232.5"/>
<text text-anchor="middle" x="1348" y="-240.5" font-family="Helvetica,sans-Serif" font-size="10.00">QGraphicsSceneMouseEvent</text>
</g>
<!-- Node1&#45;&gt;Node34 -->
<g id="edge120" class="edge"><title>Node1&#45;&gt;Node34</title>
<path fill="none" stroke="midnightblue" d="M1401.56,-348.295C1391.68,-328.872 1370.66,-287.556 1358.09,-262.846"/>
<polygon fill="midnightblue" stroke="midnightblue" points="1361.08,-261.006 1353.43,-253.679 1354.85,-264.179 1361.08,-261.006"/>
</g>
<!-- Node36 -->
<g id="node89" class="node"><title>Node36</title>
<polygon fill="white" stroke="#bfbfbf" points="1443.5,-232.5 1443.5,-253.5 1532.5,-253.5 1532.5,-232.5 1443.5,-232.5"/>
<text text-anchor="middle" x="1488" y="-240.5" font-family="Helvetica,sans-Serif" font-size="10.00">QGestureEvent</text>
</g>
<!-- Node1&#45;&gt;Node36 -->
<g id="edge122" class="edge"><title>Node1&#45;&gt;Node36</title>
<path fill="none" stroke="midnightblue" d="M1414.48,-348.295C1428.16,-328.7 1457.4,-286.82 1474.6,-262.191"/>
<polygon fill="midnightblue" stroke="midnightblue" points="1477.69,-263.882 1480.54,-253.679 1471.95,-259.874 1477.69,-263.882"/>
</g>
<!-- Node37 -->
<g id="node91" class="node"><title>Node37</title>
<polygon fill="white" stroke="#bfbfbf" points="1549.5,-232.5 1549.5,-253.5 1626.5,-253.5 1626.5,-232.5 1549.5,-232.5"/>
<text text-anchor="middle" x="1588" y="-240.5" font-family="Helvetica,sans-Serif" font-size="10.00">QTextLayout</text>
</g>
<!-- Node1&#45;&gt;Node37 -->
<g id="edge126" class="edge"><title>Node1&#45;&gt;Node37</title>
<path fill="none" stroke="midnightblue" d="M1423.7,-348.295C1455.57,-327.871 1525.21,-283.238 1562.78,-259.162"/>
<polygon fill="midnightblue" stroke="midnightblue" points="1565.07,-261.854 1571.6,-253.512 1561.29,-255.961 1565.07,-261.854"/>
</g>
<!-- Node39 -->
<g id="node101" class="node"><title>Node39</title>
<polygon fill="white" stroke="#bfbfbf" points="1757.5,-290.5 1757.5,-311.5 1798.5,-311.5 1798.5,-290.5 1757.5,-290.5"/>
<text text-anchor="middle" x="1778" y="-298.5" font-family="Helvetica,sans-Serif" font-size="10.00">QList</text>
</g>
<!-- Node1&#45;&gt;Node39 -->
<g id="edge124" class="edge"><title>Node1&#45;&gt;Node39</title>
<path fill="none" stroke="midnightblue" d="M1474.13,-353.118C1542.59,-346.307 1651.59,-333.221 1744,-312 1745.09,-311.75 1746.19,-311.481 1747.3,-311.196"/>
<polygon fill="midnightblue" stroke="midnightblue" points="1748.65,-314.45 1757.3,-308.33 1746.73,-307.721 1748.65,-314.45"/>
</g>
<!-- Node4&#45;&gt;Node2 -->
<g id="edge8" class="edge"><title>Node4&#45;&gt;Node2</title>
<path fill="none" stroke="midnightblue" d="M262.314,-232.314C269.157,-223.108 278.721,-209.25 285,-196 312.512,-137.948 279.49,-100.117 328,-58 363.899,-26.8317 501.627,-16.1186 573.213,-12.6088"/>
<polygon fill="midnightblue" stroke="midnightblue" points="573.448,-16.1017 583.275,-12.1416 573.123,-9.10928 573.448,-16.1017"/>
</g>
<!-- Node5 -->
<g id="node10" class="node"><title>Node5</title>
<polygon fill="white" stroke="#bfbfbf" points="199.5,-174.5 199.5,-195.5 276.5,-195.5 276.5,-174.5 199.5,-174.5"/>
<text text-anchor="middle" x="238" y="-182.5" font-family="Helvetica,sans-Serif" font-size="10.00">PGContext.h</text>
</g>
<!-- Node4&#45;&gt;Node5 -->
<g id="edge10" class="edge"><title>Node4&#45;&gt;Node5</title>
<path fill="none" stroke="midnightblue" d="M251.065,-232.362C248.99,-224.84 246.143,-214.519 243.636,-205.431"/>
<polygon fill="midnightblue" stroke="midnightblue" points="246.949,-204.28 240.916,-195.571 240.201,-206.141 246.949,-204.28"/>
</g>
<!-- Node6 -->
<g id="node12" class="node"><title>Node6</title>
<polygon fill="white" stroke="#bfbfbf" points="28,-174.5 28,-195.5 104,-195.5 104,-174.5 28,-174.5"/>
<text text-anchor="middle" x="66" y="-182.5" font-family="Helvetica,sans-Serif" font-size="10.00">PGSurface.h</text>
</g>
<!-- Node4&#45;&gt;Node6 -->
<g id="edge12" class="edge"><title>Node4&#45;&gt;Node6</title>
<path fill="none" stroke="midnightblue" d="M219.955,-232.497C189.04,-222.959 143.277,-208.841 109.678,-198.475"/>
<polygon fill="midnightblue" stroke="midnightblue" points="110.697,-195.127 100.109,-195.523 108.633,-201.816 110.697,-195.127"/>
</g>
<!-- Node7 -->
<g id="node14" class="node"><title>Node7</title>
<polygon fill="white" stroke="#bfbfbf" points="121.5,-174.5 121.5,-195.5 182.5,-195.5 182.5,-174.5 121.5,-174.5"/>
<text text-anchor="middle" x="152" y="-182.5" font-family="Helvetica,sans-Serif" font-size="10.00">PGFont.h</text>
</g>
<!-- Node4&#45;&gt;Node7 -->
<g id="edge14" class="edge"><title>Node4&#45;&gt;Node7</title>
<path fill="none" stroke="midnightblue" d="M235.292,-232.362C219.619,-223.45 197.036,-210.609 179.337,-200.545"/>
<polygon fill="midnightblue" stroke="midnightblue" points="181.013,-197.471 170.59,-195.571 177.553,-203.556 181.013,-197.471"/>
</g>
<!-- Node8&#45;&gt;Node2 -->
<g id="edge18" class="edge"><title>Node8&#45;&gt;Node2</title>
<path fill="none" stroke="midnightblue" d="M829.614,-299.457C710.378,-296.111 489.71,-285.714 418,-254 376.276,-235.547 342,-230.622 342,-185 342,-185 342,-185 342,-127 342,-77.4098 495.732,-37.1278 573.311,-19.9571"/>
<polygon fill="midnightblue" stroke="midnightblue" points="574.254,-23.334 583.28,-17.7853 572.764,-16.4944 574.254,-23.334"/>
</g>
<!-- Node8&#45;&gt;Node3 -->
<g id="edge20" class="edge"><title>Node8&#45;&gt;Node3</title>
<path fill="none" stroke="midnightblue" d="M829.859,-298.371C703.317,-293.359 464.823,-280.491 437,-254 408.35,-226.721 410.288,-176.242 414.176,-147.83"/>
<polygon fill="midnightblue" stroke="midnightblue" points="417.659,-148.212 415.76,-137.789 410.745,-147.121 417.659,-148.212"/>
</g>
<!-- Node8&#45;&gt;Node4 -->
<g id="edge22" class="edge"><title>Node8&#45;&gt;Node4</title>
<path fill="none" stroke="midnightblue" d="M829.974,-296.336C718.456,-289.293 507.154,-274.551 328,-254 321.734,-253.281 315.182,-252.439 308.678,-251.547"/>
<polygon fill="midnightblue" stroke="midnightblue" points="308.938,-248.049 298.546,-250.113 307.957,-254.98 308.938,-248.049"/>
</g>
<!-- Node9 -->
<g id="node21" class="node"><title>Node9</title>
<a xlink:href="WindowManagerBase_8h.htm" target="_top" xlink:title="WindowManagerBase.h">
<polygon fill="white" stroke="black" points="675.5,-232.5 675.5,-253.5 804.5,-253.5 804.5,-232.5 675.5,-232.5"/>
<text text-anchor="middle" x="740" y="-240.5" font-family="Helvetica,sans-Serif" font-size="10.00">WindowManagerBase.h</text>
</a>
</g>
<!-- Node8&#45;&gt;Node9 -->
<g id="edge24" class="edge"><title>Node8&#45;&gt;Node9</title>
<path fill="none" stroke="midnightblue" d="M877.576,-290.497C850.306,-281.082 810.107,-267.204 780.196,-256.877"/>
<polygon fill="midnightblue" stroke="midnightblue" points="781.075,-253.478 770.481,-253.523 778.791,-260.095 781.075,-253.478"/>
</g>
<!-- Node8&#45;&gt;Node15 -->
<g id="edge40" class="edge"><title>Node8&#45;&gt;Node15</title>
<path fill="none" stroke="midnightblue" d="M908.866,-290.429C911.796,-254.648 921.377,-137.663 925.301,-89.7481"/>
<polygon fill="midnightblue" stroke="midnightblue" points="928.801,-89.8859 926.129,-79.6335 921.825,-89.3144 928.801,-89.8859"/>
</g>
<!-- Node17 -->
<g id="node40" class="node"><title>Node17</title>
<a xlink:href="VariantAnimation_8h.htm" target="_top" xlink:title="VariantAnimation.h">
<polygon fill="white" stroke="black" points="662.5,-58.5 662.5,-79.5 767.5,-79.5 767.5,-58.5 662.5,-58.5"/>
<text text-anchor="middle" x="715" y="-66.5" font-family="Helvetica,sans-Serif" font-size="10.00">VariantAnimation.h</text>
</a>
</g>
<!-- Node8&#45;&gt;Node17 -->
<g id="edge46" class="edge"><title>Node8&#45;&gt;Node17</title>
<path fill="none" stroke="midnightblue" d="M900.753,-290.486C885.355,-268.337 847.925,-215.504 813,-174 798.83,-157.161 794.039,-154.068 779,-138 762.947,-120.848 744.738,-101.197 731.858,-87.2647"/>
<polygon fill="midnightblue" stroke="midnightblue" points="734.304,-84.7545 724.947,-79.7844 729.162,-89.5046 734.304,-84.7545"/>
</g>
<!-- Node19 -->
<g id="node45" class="node"><title>Node19</title>
<a xlink:href="CustomEvents_8h.htm" target="_top" xlink:title="CustomEvents.h">
<polygon fill="white" stroke="black" points="785,-58.5 785,-79.5 877,-79.5 877,-58.5 785,-58.5"/>
<text text-anchor="middle" x="831" y="-66.5" font-family="Helvetica,sans-Serif" font-size="10.00">CustomEvents.h</text>
</a>
</g>
<!-- Node8&#45;&gt;Node19 -->
<g id="edge52" class="edge"><title>Node8&#45;&gt;Node19</title>
<path fill="none" stroke="midnightblue" d="M905.161,-290.442C897.415,-261.969 874.894,-181.336 851,-116 847.709,-107 843.632,-97.2237 840.02,-88.9299"/>
<polygon fill="midnightblue" stroke="midnightblue" points="843.181,-87.4236 835.928,-79.7004 836.782,-90.2608 843.181,-87.4236"/>
</g>
<!-- Node21 -->
<g id="node50" class="node"><title>Node21</title>
<a xlink:href="SystemMenu_8h.htm" target="_top" xlink:title="SystemMenu.h">
<polygon fill="white" stroke="black" points="936,-232.5 936,-253.5 1022,-253.5 1022,-232.5 936,-232.5"/>
<text text-anchor="middle" x="979" y="-240.5" font-family="Helvetica,sans-Serif" font-size="10.00">SystemMenu.h</text>
</a>
</g>
<!-- Node8&#45;&gt;Node21 -->
<g id="edge58" class="edge"><title>Node8&#45;&gt;Node21</title>
<path fill="none" stroke="midnightblue" d="M921.022,-290.362C931.431,-281.859 946.219,-269.779 958.255,-259.947"/>
<polygon fill="midnightblue" stroke="midnightblue" points="960.53,-262.608 966.06,-253.571 956.101,-257.187 960.53,-262.608"/>
</g>
<!-- Node8&#45;&gt;Node23 -->
<g id="edge98" class="edge"><title>Node8&#45;&gt;Node23</title>
<path fill="none" stroke="midnightblue" d="M938.193,-290.493C963.322,-281.505 999.884,-267.856 1031,-254 1050.61,-245.267 1053.83,-239.354 1074,-232 1118.86,-215.643 1171.39,-203.697 1211.92,-195.942"/>
<polygon fill="midnightblue" stroke="midnightblue" points="1212.77,-199.344 1221.95,-194.061 1211.48,-192.464 1212.77,-199.344"/>
</g>
<!-- Node8&#45;&gt;Node32 -->
<g id="edge110" class="edge"><title>Node8&#45;&gt;Node32</title>
<path fill="none" stroke="midnightblue" d="M953.097,-290.438C985.426,-282.204 1029.67,-269.568 1067,-254 1085.73,-246.19 1087.79,-238.519 1107,-232 1207.48,-197.909 1258.54,-260.224 1343,-196 1377.31,-169.913 1391.48,-118.544 1396.92,-89.7744"/>
<polygon fill="midnightblue" stroke="midnightblue" points="1400.42,-90.0703 1398.65,-79.6241 1393.52,-88.8929 1400.42,-90.0703"/>
</g>
<!-- Node8&#45;&gt;Node33 -->
<g id="edge100" class="edge"><title>Node8&#45;&gt;Node33</title>
<path fill="none" stroke="midnightblue" d="M957.982,-290.497C1004.63,-280.693 1074.32,-266.05 1123.96,-255.616"/>
<polygon fill="midnightblue" stroke="midnightblue" points="1124.86,-259.005 1133.92,-253.523 1123.42,-252.154 1124.86,-259.005"/>
</g>
<!-- Node8&#45;&gt;Node34 -->
<g id="edge102" class="edge"><title>Node8&#45;&gt;Node34</title>
<path fill="none" stroke="midnightblue" d="M986.156,-290.698C1062.89,-280.583 1179.75,-265.179 1259.77,-254.63"/>
<polygon fill="midnightblue" stroke="midnightblue" points="1260.38,-258.081 1269.83,-253.304 1259.46,-251.141 1260.38,-258.081"/>
</g>
<!-- Node35 -->
<g id="node87" class="node"><title>Node35</title>
<polygon fill="white" stroke="#bfbfbf" points="445.5,-232.5 445.5,-253.5 578.5,-253.5 578.5,-232.5 445.5,-232.5"/>
<text text-anchor="middle" x="512" y="-240.5" font-family="Helvetica,sans-Serif" font-size="10.00">QDeclarativeComponent</text>
</g>
<!-- Node8&#45;&gt;Node35 -->
<g id="edge104" class="edge"><title>Node8&#45;&gt;Node35</title>
<path fill="none" stroke="midnightblue" d="M835.968,-290.458C773.198,-281.271 679.418,-267.542 588.573,-254.23"/>
<polygon fill="midnightblue" stroke="midnightblue" points="589.058,-250.764 578.656,-252.777 588.043,-257.69 589.058,-250.764"/>
</g>
<!-- Node8&#45;&gt;Node36 -->
<g id="edge106" class="edge"><title>Node8&#45;&gt;Node36</title>
<path fill="none" stroke="midnightblue" d="M986.017,-296.871C1087.06,-290.891 1268.79,-277.989 1432.96,-254.178"/>
<polygon fill="midnightblue" stroke="midnightblue" points="1433.86,-257.583 1443.25,-252.668 1432.84,-250.658 1433.86,-257.583"/>
</g>
<!-- Node8&#45;&gt;Node37 -->
<g id="edge108" class="edge"><title>Node8&#45;&gt;Node37</title>
<path fill="none" stroke="midnightblue" d="M986.402,-299.102C1104.51,-295.374 1335.17,-284.721 1539.35,-254.068"/>
<polygon fill="midnightblue" stroke="midnightblue" points="1540,-257.509 1549.36,-252.545 1538.95,-250.589 1540,-257.509"/>
</g>
<!-- Node38 -->
<g id="node94" class="node"><title>Node38</title>
<polygon fill="white" stroke="#bfbfbf" points="596,-232.5 596,-253.5 658,-253.5 658,-232.5 596,-232.5"/>
<text text-anchor="middle" x="627" y="-240.5" font-family="Helvetica,sans-Serif" font-size="10.00">QBitArray</text>
</g>
<!-- Node8&#45;&gt;Node38 -->
<g id="edge112" class="edge"><title>Node8&#45;&gt;Node38</title>
<path fill="none" stroke="midnightblue" d="M847.313,-290.48C800.707,-282.1 734.56,-269.559 668.179,-254.165"/>
<polygon fill="midnightblue" stroke="midnightblue" points="668.92,-250.743 658.385,-251.873 667.325,-257.559 668.92,-250.743"/>
</g>
<!-- Node9&#45;&gt;Node2 -->
<g id="edge26" class="edge"><title>Node9&#45;&gt;Node2</title>
<path fill="none" stroke="midnightblue" d="M675.219,-233.259C601.134,-221.808 489.19,-203.425 483,-196 433.289,-136.374 537.946,-59.7686 589.964,-27.0115"/>
<polygon fill="midnightblue" stroke="midnightblue" points="592.054,-29.8341 598.72,-21.5985 588.373,-23.88 592.054,-29.8341"/>
</g>
<!-- Node10 -->
<g id="node24" class="node"><title>Node10</title>
<polygon fill="white" stroke="#bfbfbf" points="492,-174.5 492,-195.5 580,-195.5 580,-174.5 492,-174.5"/>
<text text-anchor="middle" x="536" y="-182.5" font-family="Helvetica,sans-Serif" font-size="10.00">QGraphicsItem</text>
</g>
<!-- Node9&#45;&gt;Node10 -->
<g id="edge28" class="edge"><title>Node9&#45;&gt;Node10</title>
<path fill="none" stroke="midnightblue" d="M703.057,-232.497C669.368,-222.918 619.427,-208.72 582.926,-198.342"/>
<polygon fill="midnightblue" stroke="midnightblue" points="583.588,-194.891 573.012,-195.523 581.674,-201.624 583.588,-194.891"/>
</g>
<!-- Node11 -->
<g id="node26" class="node"><title>Node11</title>
<polygon fill="white" stroke="#bfbfbf" points="597.5,-174.5 597.5,-195.5 656.5,-195.5 656.5,-174.5 597.5,-174.5"/>
<text text-anchor="middle" x="627" y="-182.5" font-family="Helvetica,sans-Serif" font-size="10.00">QPainter</text>
</g>
<!-- Node9&#45;&gt;Node11 -->
<g id="edge30" class="edge"><title>Node9&#45;&gt;Node11</title>
<path fill="none" stroke="midnightblue" d="M719.537,-232.497C701.967,-223.479 676.418,-210.365 656.615,-200.201"/>
<polygon fill="midnightblue" stroke="midnightblue" points="658.188,-197.074 647.693,-195.621 654.991,-203.301 658.188,-197.074"/>
</g>
<!-- Node12 -->
<g id="node28" class="node"><title>Node12</title>
<a xlink:href="UiNavigationController_8h.htm" target="_top" xlink:title="UiNavigationController.h">
<polygon fill="white" stroke="black" points="673.5,-174.5 673.5,-195.5 804.5,-195.5 804.5,-174.5 673.5,-174.5"/>
<text text-anchor="middle" x="739" y="-182.5" font-family="Helvetica,sans-Serif" font-size="10.00">UiNavigationController.h</text>
</a>
</g>
<!-- Node9&#45;&gt;Node12 -->
<g id="edge32" class="edge"><title>Node9&#45;&gt;Node12</title>
<path fill="none" stroke="midnightblue" d="M739.817,-232.362C739.688,-224.922 739.513,-214.743 739.357,-205.728"/>
<polygon fill="midnightblue" stroke="midnightblue" points="742.854,-205.509 739.182,-195.571 735.855,-205.63 742.854,-205.509"/>
</g>
<!-- Node12&#45;&gt;Node2 -->
<g id="edge34" class="edge"><title>Node12&#45;&gt;Node2</title>
<path fill="none" stroke="midnightblue" d="M706.611,-174.443C688.419,-166.958 666.689,-155.157 653,-138 628.113,-106.807 620.426,-59.2922 618.055,-32.0902"/>
<polygon fill="midnightblue" stroke="midnightblue" points="621.523,-31.5122 617.329,-21.7826 614.54,-32.0037 621.523,-31.5122"/>
</g>
<!-- Node13 -->
<g id="node31" class="node"><title>Node13</title>
<polygon fill="white" stroke="#bfbfbf" points="787.5,-116.5 787.5,-137.5 842.5,-137.5 842.5,-116.5 787.5,-116.5"/>
<text text-anchor="middle" x="815" y="-124.5" font-family="Helvetica,sans-Serif" font-size="10.00">QObject</text>
</g>
<!-- Node12&#45;&gt;Node13 -->
<g id="edge36" class="edge"><title>Node12&#45;&gt;Node13</title>
<path fill="none" stroke="midnightblue" d="M752.94,-174.362C764.188,-165.777 780.216,-153.546 793.165,-143.664"/>
<polygon fill="midnightblue" stroke="midnightblue" points="795.323,-146.42 801.149,-137.571 791.076,-140.855 795.323,-146.42"/>
</g>
<!-- Node14 -->
<g id="node33" class="node"><title>Node14</title>
<polygon fill="white" stroke="#bfbfbf" points="662,-116.5 662,-137.5 732,-137.5 732,-116.5 662,-116.5"/>
<text text-anchor="middle" x="697" y="-124.5" font-family="Helvetica,sans-Serif" font-size="10.00">QKeyEvent</text>
</g>
<!-- Node12&#45;&gt;Node14 -->
<g id="edge38" class="edge"><title>Node12&#45;&gt;Node14</title>
<path fill="none" stroke="midnightblue" d="M731.297,-174.362C725.554,-166.431 717.557,-155.389 710.73,-145.961"/>
<polygon fill="midnightblue" stroke="midnightblue" points="713.355,-143.617 704.655,-137.571 707.685,-147.723 713.355,-143.617"/>
</g>
<!-- Node15&#45;&gt;Node2 -->
<g id="edge42" class="edge"><title>Node15&#45;&gt;Node2</title>
<path fill="none" stroke="midnightblue" d="M894.848,-60.0324C891.867,-59.3041 888.883,-58.6137 886,-58 789.21,-37.4003 760.741,-42.6034 660.761,-22.228"/>
<polygon fill="midnightblue" stroke="midnightblue" points="661.36,-18.7778 650.858,-20.1746 659.939,-25.6321 661.36,-18.7778"/>
</g>
<!-- Node16 -->
<g id="node38" class="node"><title>Node16</title>
<polygon fill="white" stroke="#bfbfbf" points="885.5,-0.5 885.5,-21.5 926.5,-21.5 926.5,-0.5 885.5,-0.5"/>
<text text-anchor="middle" x="906" y="-8.5" font-family="Helvetica,sans-Serif" font-size="10.00">glib.h</text>
</g>
<!-- Node15&#45;&gt;Node16 -->
<g id="edge44" class="edge"><title>Node15&#45;&gt;Node16</title>
<path fill="none" stroke="midnightblue" d="M923.148,-58.3619C920.395,-50.7584 916.606,-40.294 913.29,-31.1349"/>
<polygon fill="midnightblue" stroke="midnightblue" points="916.523,-29.7818 909.827,-21.5707 909.941,-32.1649 916.523,-29.7818"/>
</g>
<!-- Node17&#45;&gt;Node2 -->
<g id="edge48" class="edge"><title>Node17&#45;&gt;Node2</title>
<path fill="none" stroke="midnightblue" d="M697.025,-58.3619C682.106,-49.532 660.667,-36.844 643.734,-26.8224"/>
<polygon fill="midnightblue" stroke="midnightblue" points="645.249,-23.6519 634.861,-21.5707 641.684,-29.6759 645.249,-23.6519"/>
</g>
<!-- Node18 -->
<g id="node43" class="node"><title>Node18</title>
<polygon fill="white" stroke="#bfbfbf" points="667.5,-0.5 667.5,-21.5 772.5,-21.5 772.5,-0.5 667.5,-0.5"/>
<text text-anchor="middle" x="720" y="-8.5" font-family="Helvetica,sans-Serif" font-size="10.00">QVariantAnimation</text>
</g>
<!-- Node17&#45;&gt;Node18 -->
<g id="edge50" class="edge"><title>Node17&#45;&gt;Node18</title>
<path fill="none" stroke="midnightblue" d="M715.917,-58.3619C716.558,-50.9219 717.436,-40.7427 718.213,-31.7276"/>
<polygon fill="midnightblue" stroke="midnightblue" points="721.717,-31.8343 719.089,-21.5707 714.743,-31.2331 721.717,-31.8343"/>
</g>
<!-- Node19&#45;&gt;Node2 -->
<g id="edge54" class="edge"><title>Node19&#45;&gt;Node2</title>
<path fill="none" stroke="midnightblue" d="M792.246,-58.4966C755.096,-48.4278 699.108,-33.2534 660.46,-22.7789"/>
<polygon fill="midnightblue" stroke="midnightblue" points="661.108,-19.3282 650.54,-20.0904 659.277,-26.0845 661.108,-19.3282"/>
</g>
<!-- Node20 -->
<g id="node48" class="node"><title>Node20</title>
<polygon fill="white" stroke="#bfbfbf" points="805,-0.5 805,-21.5 857,-21.5 857,-0.5 805,-0.5"/>
<text text-anchor="middle" x="831" y="-8.5" font-family="Helvetica,sans-Serif" font-size="10.00">QEvent</text>
</g>
<!-- Node19&#45;&gt;Node20 -->
<g id="edge56" class="edge"><title>Node19&#45;&gt;Node20</title>
<path fill="none" stroke="midnightblue" d="M831,-58.3619C831,-50.9219 831,-40.7427 831,-31.7276"/>
<polygon fill="midnightblue" stroke="midnightblue" points="834.5,-31.5706 831,-21.5707 827.5,-31.5707 834.5,-31.5706"/>
</g>
<!-- Node22 -->
<g id="node52" class="node"><title>Node22</title>
<polygon fill="white" stroke="#bfbfbf" points="1134,-0.5 1134,-21.5 1232,-21.5 1232,-0.5 1134,-0.5"/>
<text text-anchor="middle" x="1183" y="-8.5" font-family="Helvetica,sans-Serif" font-size="10.00">QGraphicsObject</text>
</g>
<!-- Node21&#45;&gt;Node22 -->
<g id="edge60" class="edge"><title>Node21&#45;&gt;Node22</title>
<path fill="none" stroke="midnightblue" d="M1022.15,-232.987C1079.49,-219.638 1173.76,-197.502 1175,-196 1214.08,-148.584 1199.26,-68.8463 1189.25,-31.4814"/>
<polygon fill="midnightblue" stroke="midnightblue" points="1192.58,-30.3904 1186.48,-21.7268 1185.84,-32.3026 1192.58,-30.3904"/>
</g>
<!-- Node21&#45;&gt;Node23 -->
<g id="edge62" class="edge"><title>Node21&#45;&gt;Node23</title>
<path fill="none" stroke="midnightblue" d="M1022.16,-234.628C1072.35,-224.892 1155.7,-208.723 1213.57,-197.498"/>
<polygon fill="midnightblue" stroke="midnightblue" points="1214.55,-200.873 1223.7,-195.532 1213.22,-194.001 1214.55,-200.873"/>
</g>
<!-- Node24 -->
<g id="node56" class="node"><title>Node24</title>
<polygon fill="white" stroke="#bfbfbf" points="936,-174.5 936,-195.5 988,-195.5 988,-174.5 936,-174.5"/>
<text text-anchor="middle" x="962" y="-182.5" font-family="Helvetica,sans-Serif" font-size="10.00">QTimer</text>
</g>
<!-- Node21&#45;&gt;Node24 -->
<g id="edge64" class="edge"><title>Node21&#45;&gt;Node24</title>
<path fill="none" stroke="midnightblue" d="M975.882,-232.362C973.677,-224.84 970.652,-214.519 967.988,-205.431"/>
<polygon fill="midnightblue" stroke="midnightblue" points="971.27,-204.182 965.098,-195.571 964.552,-206.151 971.27,-204.182"/>
</g>
<!-- Node25 -->
<g id="node58" class="node"><title>Node25</title>
<a xlink:href="StatusBarServicesConnector_8h.htm" target="_top" xlink:title="StatusBarServicesConnector.h">
<polygon fill="white" stroke="black" points="1005.5,-174.5 1005.5,-195.5 1166.5,-195.5 1166.5,-174.5 1005.5,-174.5"/>
<text text-anchor="middle" x="1086" y="-182.5" font-family="Helvetica,sans-Serif" font-size="10.00">StatusBarServicesConnector.h</text>
</a>
</g>
<!-- Node21&#45;&gt;Node25 -->
<g id="edge66" class="edge"><title>Node21&#45;&gt;Node25</title>
<path fill="none" stroke="midnightblue" d="M998.625,-232.362C1015.14,-223.409 1038.97,-210.491 1057.58,-200.406"/>
<polygon fill="midnightblue" stroke="midnightblue" points="1059.38,-203.413 1066.5,-195.571 1056.04,-197.259 1059.38,-203.413"/>
</g>
<!-- Node25&#45;&gt;Node3 -->
<g id="edge72" class="edge"><title>Node25&#45;&gt;Node3</title>
<path fill="none" stroke="midnightblue" d="M1005.49,-174.895C1002.62,-174.585 999.788,-174.285 997,-174 783.799,-152.181 525.587,-134.2 443.999,-128.72"/>
<polygon fill="midnightblue" stroke="midnightblue" points="443.893,-125.205 433.682,-128.03 443.426,-132.189 443.893,-125.205"/>
</g>
<!-- Node25&#45;&gt;Node13 -->
<g id="edge68" class="edge"><title>Node25&#45;&gt;Node13</title>
<path fill="none" stroke="midnightblue" d="M1036.92,-174.497C983.92,-163.153 900.635,-145.328 852.59,-135.045"/>
<polygon fill="midnightblue" stroke="midnightblue" points="853.12,-131.579 842.609,-132.909 851.655,-138.424 853.12,-131.579"/>
</g>
<!-- Node26 -->
<g id="node61" class="node"><title>Node26</title>
<polygon fill="white" stroke="#bfbfbf" points="1050,-116.5 1050,-137.5 1128,-137.5 1128,-116.5 1050,-116.5"/>
<text text-anchor="middle" x="1089" y="-124.5" font-family="Helvetica,sans-Serif" font-size="10.00">lunaservice.h</text>
</g>
<!-- Node25&#45;&gt;Node26 -->
<g id="edge70" class="edge"><title>Node25&#45;&gt;Node26</title>
<path fill="none" stroke="midnightblue" d="M1086.55,-174.362C1086.94,-166.922 1087.46,-156.743 1087.93,-147.728"/>
<polygon fill="midnightblue" stroke="midnightblue" points="1091.43,-147.738 1088.45,-137.571 1084.44,-147.376 1091.43,-147.738"/>
</g>
<!-- Node27 -->
<g id="node64" class="node"><title>Node27</title>
<a xlink:href="StatusBar_8h.htm" target="_top" xlink:title="StatusBar.h">
<polygon fill="white" stroke="black" points="961.5,-116.5 961.5,-137.5 1032.5,-137.5 1032.5,-116.5 961.5,-116.5"/>
<text text-anchor="middle" x="997" y="-124.5" font-family="Helvetica,sans-Serif" font-size="10.00">StatusBar.h</text>
</a>
</g>
<!-- Node25&#45;&gt;Node27 -->
<g id="edge74" class="edge"><title>Node25&#45;&gt;Node27</title>
<path fill="none" stroke="midnightblue" d="M1069.68,-174.362C1056.25,-165.614 1037.02,-153.079 1021.71,-143.101"/>
<polygon fill="midnightblue" stroke="midnightblue" points="1023.51,-140.098 1013.22,-137.571 1019.69,-145.963 1023.51,-140.098"/>
</g>
<!-- Node27&#45;&gt;Node17 -->
<g id="edge94" class="edge"><title>Node27&#45;&gt;Node17</title>
<path fill="none" stroke="midnightblue" d="M961.285,-119.654C914.727,-110.079 832.587,-93.1846 776.055,-81.5575"/>
<polygon fill="midnightblue" stroke="midnightblue" points="776.663,-78.1092 766.163,-79.5228 775.252,-84.9657 776.663,-78.1092"/>
</g>
<!-- Node27&#45;&gt;Node19 -->
<g id="edge96" class="edge"><title>Node27&#45;&gt;Node19</title>
<path fill="none" stroke="midnightblue" d="M966.939,-116.497C939.993,-107.082 900.272,-93.2036 870.718,-82.8773"/>
<polygon fill="midnightblue" stroke="midnightblue" points="871.713,-79.5174 861.118,-79.5231 869.404,-86.1257 871.713,-79.5174"/>
</g>
<!-- Node27&#45;&gt;Node22 -->
<g id="edge92" class="edge"><title>Node27&#45;&gt;Node22</title>
<path fill="none" stroke="midnightblue" d="M1014.17,-116.295C1047.05,-95.7846 1119.09,-50.8594 1157.57,-26.8575"/>
<polygon fill="midnightblue" stroke="midnightblue" points="1159.51,-29.7733 1166.15,-21.5117 1155.81,-23.8337 1159.51,-29.7733"/>
</g>
<!-- Node28 -->
<g id="node66" class="node"><title>Node28</title>
<a xlink:href="Window_8h.htm" target="_top" xlink:title="Window.h">
<polygon fill="white" stroke="black" points="977,-58.5 977,-79.5 1039,-79.5 1039,-58.5 977,-58.5"/>
<text text-anchor="middle" x="1008" y="-66.5" font-family="Helvetica,sans-Serif" font-size="10.00">Window.h</text>
</a>
</g>
<!-- Node27&#45;&gt;Node28 -->
<g id="edge76" class="edge"><title>Node27&#45;&gt;Node28</title>
<path fill="none" stroke="midnightblue" d="M999.018,-116.362C1000.44,-108.84 1002.4,-98.5187 1004.13,-89.4308"/>
<polygon fill="midnightblue" stroke="midnightblue" points="1007.57,-90.0477 1006,-79.5707 1000.69,-88.7433 1007.57,-90.0477"/>
</g>
<!-- Node27&#45;&gt;Node32 -->
<g id="edge90" class="edge"><title>Node27&#45;&gt;Node32</title>
<path fill="none" stroke="midnightblue" d="M1032.94,-117.657C1035.66,-117.06 1038.37,-116.499 1041,-116 1155.89,-94.1919 1293.4,-79.2582 1359.97,-72.7252"/>
<polygon fill="midnightblue" stroke="midnightblue" points="1360.41,-76.1985 1370.03,-71.749 1359.74,-69.2312 1360.41,-76.1985"/>
</g>
<!-- Node28&#45;&gt;Node2 -->
<g id="edge78" class="edge"><title>Node28&#45;&gt;Node2</title>
<path fill="none" stroke="midnightblue" d="M976.664,-59.8969C973.749,-59.1971 970.828,-58.5502 968,-58 835.464,-32.2117 796.683,-46.8518 660.788,-22.1444"/>
<polygon fill="midnightblue" stroke="midnightblue" points="661.304,-18.6805 650.834,-20.2964 660.027,-25.5629 661.304,-18.6805"/>
</g>
<!-- Node28&#45;&gt;Node16 -->
<g id="edge84" class="edge"><title>Node28&#45;&gt;Node16</title>
<path fill="none" stroke="midnightblue" d="M989.292,-58.3619C973.619,-49.4502 951.036,-36.6087 933.337,-26.5447"/>
<polygon fill="midnightblue" stroke="midnightblue" points="935.013,-23.4712 924.59,-21.5707 931.553,-29.5562 935.013,-23.4712"/>
</g>
<!-- Node28&#45;&gt;Node22 -->
<g id="edge86" class="edge"><title>Node28&#45;&gt;Node22</title>
<path fill="none" stroke="midnightblue" d="M1039.29,-58.6308C1067.76,-49.1928 1110.01,-35.1894 1141.34,-24.8067"/>
<polygon fill="midnightblue" stroke="midnightblue" points="1142.71,-28.0416 1151.1,-21.5733 1140.5,-21.3971 1142.71,-28.0416"/>
</g>
<!-- Node29 -->
<g id="node69" class="node"><title>Node29</title>
<polygon fill="white" stroke="#bfbfbf" points="944,-0.5 944,-21.5 994,-21.5 994,-0.5 944,-0.5"/>
<text text-anchor="middle" x="969" y="-8.5" font-family="Helvetica,sans-Serif" font-size="10.00">stdint.h</text>
</g>
<!-- Node28&#45;&gt;Node29 -->
<g id="edge80" class="edge"><title>Node28&#45;&gt;Node29</title>
<path fill="none" stroke="midnightblue" d="M1000.85,-58.3619C995.514,-50.4313 988.089,-39.3885 981.749,-29.9606"/>
<polygon fill="midnightblue" stroke="midnightblue" points="984.592,-27.9161 976.108,-21.5707 978.783,-31.8221 984.592,-27.9161"/>
</g>
<!-- Node30 -->
<g id="node71" class="node"><title>Node30</title>
<polygon fill="white" stroke="#bfbfbf" points="1011.5,-0.5 1011.5,-21.5 1054.5,-21.5 1054.5,-0.5 1011.5,-0.5"/>
<text text-anchor="middle" x="1033" y="-8.5" font-family="Helvetica,sans-Serif" font-size="10.00">string</text>
</g>
<!-- Node28&#45;&gt;Node30 -->
<g id="edge82" class="edge"><title>Node28&#45;&gt;Node30</title>
<path fill="none" stroke="midnightblue" d="M1012.59,-58.3619C1015.9,-50.6766 1020.47,-40.0686 1024.45,-30.8399"/>
<polygon fill="midnightblue" stroke="midnightblue" points="1027.7,-32.1393 1028.44,-21.5707 1021.27,-29.3685 1027.7,-32.1393"/>
</g>
<!-- Node31 -->
<g id="node75" class="node"><title>Node31</title>
<polygon fill="white" stroke="#bfbfbf" points="1071.5,-0.5 1071.5,-21.5 1116.5,-21.5 1116.5,-0.5 1071.5,-0.5"/>
<text text-anchor="middle" x="1094" y="-8.5" font-family="Helvetica,sans-Serif" font-size="10.00">QSize</text>
</g>
<!-- Node28&#45;&gt;Node31 -->
<g id="edge88" class="edge"><title>Node28&#45;&gt;Node31</title>
<path fill="none" stroke="midnightblue" d="M1023.77,-58.3619C1036.62,-49.6955 1054.98,-37.3126 1069.71,-27.3819"/>
<polygon fill="midnightblue" stroke="midnightblue" points="1071.99,-30.0639 1078.33,-21.5707 1068.08,-24.2604 1071.99,-30.0639"/>
</g>
</g>
</svg>
