<?xml version="1.0" encoding="UTF-8" standalone="no"?>
<!DOCTYPE svg PUBLIC "-//W3C//DTD SVG 1.1//EN"
 "http://www.w3.org/Graphics/SVG/1.1/DTD/svg11.dtd">
<!-- Generated by graphviz version 2.26.3 (20100126.1600)
 -->
<!-- Title: G Pages: 1 -->
<svg width="2005pt" height="320pt"
 viewBox="0.00 0.00 2004.79 320.00" xmlns="http://www.w3.org/2000/svg" xmlns:xlink="http://www.w3.org/1999/xlink">
<g id="graph1" class="graph" transform="scale(1 1) rotate(0) translate(4 316)">
<title>G</title>
<polygon fill="white" stroke="white" points="-4,5 -4,-316 2001.79,-316 2001.79,5 -4,5"/>
<!-- Node1 -->
<g id="node1" class="node"><title>Node1</title>
<polygon fill="#bfbfbf" stroke="black" points="622.294,-290.5 622.294,-311.5 749.294,-311.5 749.294,-290.5 622.294,-290.5"/>
<text text-anchor="middle" x="685.794" y="-298.5" font-family="Helvetica,sans-Serif" font-size="10.00">EASPolicyManager.cpp</text>
</g>
<!-- Node2 -->
<g id="node3" class="node"><title>Node2</title>
<a xlink:href="Common_8h.htm" target="_top" xlink:title="Common.h">
<polygon fill="white" stroke="black" points="789.294,-0.5 789.294,-21.5 856.294,-21.5 856.294,-0.5 789.294,-0.5"/>
<text text-anchor="middle" x="822.794" y="-8.5" font-family="Helvetica,sans-Serif" font-size="10.00">Common.h</text>
</a>
</g>
<!-- Node1&#45;&gt;Node2 -->
<g id="edge2" class="edge"><title>Node1&#45;&gt;Node2</title>
<path fill="none" stroke="midnightblue" d="M622.088,-295.674C464.446,-281.642 68.7943,-240.86 68.7943,-185 68.7943,-185 68.7943,-185 68.7943,-127 68.7943,-102.806 -164.755,-151.564 230.794,-58 335.127,-33.321 660.652,-17.7209 779.121,-12.7361"/>
<polygon fill="midnightblue" stroke="midnightblue" points="779.424,-16.2266 789.27,-12.3139 779.133,-9.2327 779.424,-16.2266"/>
</g>
<!-- Node3 -->
<g id="node5" class="node"><title>Node3</title>
<a xlink:href="EASPolicyManager_8h.htm" target="_top" xlink:title="EASPolicyManager.h">
<polygon fill="white" stroke="black" points="510.794,-174.5 510.794,-195.5 626.794,-195.5 626.794,-174.5 510.794,-174.5"/>
<text text-anchor="middle" x="568.794" y="-182.5" font-family="Helvetica,sans-Serif" font-size="10.00">EASPolicyManager.h</text>
</a>
</g>
<!-- Node1&#45;&gt;Node3 -->
<g id="edge4" class="edge"><title>Node1&#45;&gt;Node3</title>
<path fill="none" stroke="midnightblue" d="M674.997,-290.295C654.885,-270.355 611.496,-227.337 586.854,-202.906"/>
<polygon fill="midnightblue" stroke="midnightblue" points="589.131,-200.234 579.566,-195.679 584.203,-205.205 589.131,-200.234"/>
</g>
<!-- Node7 -->
<g id="node15" class="node"><title>Node7</title>
<polygon fill="white" stroke="#bfbfbf" points="1432.29,-0.5 1432.29,-21.5 1473.29,-21.5 1473.29,-0.5 1432.29,-0.5"/>
<text text-anchor="middle" x="1452.79" y="-8.5" font-family="Helvetica,sans-Serif" font-size="10.00">glib.h</text>
</g>
<!-- Node1&#45;&gt;Node7 -->
<g id="edge144" class="edge"><title>Node1&#45;&gt;Node7</title>
<path fill="none" stroke="midnightblue" d="M749.475,-298.051C993.419,-286.34 1854.79,-241.022 1854.79,-185 1854.79,-185 1854.79,-185 1854.79,-127 1854.79,-85.4736 1828.55,-77.334 1791.79,-58 1738.53,-29.9768 1557.25,-16.8719 1483.94,-12.624"/>
<polygon fill="midnightblue" stroke="midnightblue" points="1483.72,-9.10596 1473.53,-12.039 1483.32,-16.0949 1483.72,-9.10596"/>
</g>
<!-- Node10 -->
<g id="node21" class="node"><title>Node10</title>
<a xlink:href="HostBase_8h.htm" target="_top" xlink:title="HostBase.h">
<polygon fill="white" stroke="black" points="1044.29,-232.5 1044.29,-253.5 1115.29,-253.5 1115.29,-232.5 1044.29,-232.5"/>
<text text-anchor="middle" x="1079.79" y="-240.5" font-family="Helvetica,sans-Serif" font-size="10.00">HostBase.h</text>
</a>
</g>
<!-- Node1&#45;&gt;Node10 -->
<g id="edge22" class="edge"><title>Node1&#45;&gt;Node10</title>
<path fill="none" stroke="midnightblue" d="M749.535,-291.617C829.188,-279.891 963.558,-260.111 1033.83,-249.766"/>
<polygon fill="midnightblue" stroke="midnightblue" points="1034.75,-253.169 1044.13,-248.25 1033.73,-246.243 1034.75,-253.169"/>
</g>
<!-- Node33 -->
<g id="node85" class="node"><title>Node33</title>
<a xlink:href="Security_8h.htm" target="_top" xlink:title="Security.h">
<polygon fill="white" stroke="black" points="416.794,-174.5 416.794,-195.5 478.794,-195.5 478.794,-174.5 416.794,-174.5"/>
<text text-anchor="middle" x="447.794" y="-182.5" font-family="Helvetica,sans-Serif" font-size="10.00">Security.h</text>
</a>
</g>
<!-- Node1&#45;&gt;Node33 -->
<g id="edge104" class="edge"><title>Node1&#45;&gt;Node33</title>
<path fill="none" stroke="midnightblue" d="M663.83,-290.295C621.216,-269.525 527.233,-223.718 478.48,-199.956"/>
<polygon fill="midnightblue" stroke="midnightblue" points="479.884,-196.747 469.361,-195.512 476.817,-203.039 479.884,-196.747"/>
</g>
<!-- Node35 -->
<g id="node94" class="node"><title>Node35</title>
<a xlink:href="SystemService_8h.htm" target="_top" xlink:title="SystemService.h">
<polygon fill="white" stroke="black" points="304.294,-174.5 304.294,-195.5 399.294,-195.5 399.294,-174.5 304.294,-174.5"/>
<text text-anchor="middle" x="351.794" y="-182.5" font-family="Helvetica,sans-Serif" font-size="10.00">SystemService.h</text>
</a>
</g>
<!-- Node1&#45;&gt;Node35 -->
<g id="edge118" class="edge"><title>Node1&#45;&gt;Node35</title>
<path fill="none" stroke="midnightblue" d="M651.984,-290.426C622.523,-281.121 578.7,-267.058 540.794,-254 488.043,-235.828 427.542,-213.471 389.498,-199.226"/>
<polygon fill="midnightblue" stroke="midnightblue" points="390.45,-195.845 379.858,-195.61 387.992,-202.399 390.45,-195.845"/>
</g>
<!-- Node37 -->
<g id="node102" class="node"><title>Node37</title>
<a xlink:href="Preferences_8h.htm" target="_top" xlink:title="Preferences.h">
<polygon fill="white" stroke="black" points="644.294,-174.5 644.294,-195.5 727.294,-195.5 727.294,-174.5 644.294,-174.5"/>
<text text-anchor="middle" x="685.794" y="-182.5" font-family="Helvetica,sans-Serif" font-size="10.00">Preferences.h</text>
</a>
</g>
<!-- Node1&#45;&gt;Node37 -->
<g id="edge130" class="edge"><title>Node1&#45;&gt;Node37</title>
<path fill="none" stroke="midnightblue" d="M685.794,-290.295C685.794,-271.131 685.794,-230.654 685.794,-205.843"/>
<polygon fill="midnightblue" stroke="midnightblue" points="689.294,-205.679 685.794,-195.679 682.294,-205.679 689.294,-205.679"/>
</g>
<!-- Node38 -->
<g id="node111" class="node"><title>Node38</title>
<polygon fill="white" stroke="#bfbfbf" points="1882.79,-232.5 1882.79,-253.5 1930.79,-253.5 1930.79,-232.5 1882.79,-232.5"/>
<text text-anchor="middle" x="1906.79" y="-240.5" font-family="Helvetica,sans-Serif" font-size="10.00">math.h</text>
</g>
<!-- Node1&#45;&gt;Node38 -->
<g id="edge146" class="edge"><title>Node1&#45;&gt;Node38</title>
<path fill="none" stroke="midnightblue" d="M749.578,-300.498C962.92,-298.5 1650.43,-289.406 1868.79,-254 1870.05,-253.796 1871.33,-253.564 1872.61,-253.308"/>
<polygon fill="midnightblue" stroke="midnightblue" points="1873.53,-256.687 1882.46,-250.985 1871.93,-249.874 1873.53,-256.687"/>
</g>
<!-- Node39 -->
<g id="node113" class="node"><title>Node39</title>
<polygon fill="white" stroke="#bfbfbf" points="1948.29,-232.5 1948.29,-253.5 1997.29,-253.5 1997.29,-232.5 1948.29,-232.5"/>
<text text-anchor="middle" x="1972.79" y="-240.5" font-family="Helvetica,sans-Serif" font-size="10.00">stdlib.h</text>
</g>
<!-- Node1&#45;&gt;Node39 -->
<g id="edge148" class="edge"><title>Node1&#45;&gt;Node39</title>
<path fill="none" stroke="midnightblue" d="M749.453,-299.674C982.564,-294.675 1783.65,-276.203 1938.14,-253.688"/>
<polygon fill="midnightblue" stroke="midnightblue" points="1938.82,-257.123 1948.13,-252.06 1937.69,-250.215 1938.82,-257.123"/>
</g>
<!-- Node3&#45;&gt;Node2 -->
<g id="edge6" class="edge"><title>Node3&#45;&gt;Node2</title>
<path fill="none" stroke="midnightblue" d="M580.942,-174.13C611.455,-146.945 691.004,-76.8395 720.794,-58 741.046,-45.193 765.359,-33.8511 785.167,-25.5189"/>
<polygon fill="midnightblue" stroke="midnightblue" points="786.58,-28.7226 794.492,-21.6771 783.913,-22.2504 786.58,-28.7226"/>
</g>
<!-- Node4 -->
<g id="node8" class="node"><title>Node4</title>
<polygon fill="white" stroke="#bfbfbf" points="570.294,-116.5 570.294,-137.5 613.294,-137.5 613.294,-116.5 570.294,-116.5"/>
<text text-anchor="middle" x="591.794" y="-124.5" font-family="Helvetica,sans-Serif" font-size="10.00">string</text>
</g>
<!-- Node3&#45;&gt;Node4 -->
<g id="edge8" class="edge"><title>Node3&#45;&gt;Node4</title>
<path fill="none" stroke="midnightblue" d="M573.013,-174.362C576.028,-166.758 580.178,-156.294 583.81,-147.135"/>
<polygon fill="midnightblue" stroke="midnightblue" points="587.17,-148.157 587.603,-137.571 580.663,-145.576 587.17,-148.157"/>
</g>
<!-- Node5 -->
<g id="node10" class="node"><title>Node5</title>
<polygon fill="white" stroke="#bfbfbf" points="408.794,-116.5 408.794,-137.5 480.794,-137.5 480.794,-116.5 408.794,-116.5"/>
<text text-anchor="middle" x="444.794" y="-124.5" font-family="Helvetica,sans-Serif" font-size="10.00">cjson/json.h</text>
</g>
<!-- Node3&#45;&gt;Node5 -->
<g id="edge10" class="edge"><title>Node3&#45;&gt;Node5</title>
<path fill="none" stroke="midnightblue" d="M546.339,-174.497C526.884,-165.397 498.515,-152.127 476.704,-141.925"/>
<polygon fill="midnightblue" stroke="midnightblue" points="478.043,-138.688 467.502,-137.621 475.077,-145.028 478.043,-138.688"/>
</g>
<!-- Node6 -->
<g id="node12" class="node"><title>Node6</title>
<a xlink:href="PtrArray_8h.htm" target="_top" xlink:title="PtrArray.h">
<polygon fill="white" stroke="black" points="820.794,-58.5 820.794,-79.5 884.794,-79.5 884.794,-58.5 820.794,-58.5"/>
<text text-anchor="middle" x="852.794" y="-66.5" font-family="Helvetica,sans-Serif" font-size="10.00">PtrArray.h</text>
</a>
</g>
<!-- Node3&#45;&gt;Node6 -->
<g id="edge12" class="edge"><title>Node3&#45;&gt;Node6</title>
<path fill="none" stroke="midnightblue" d="M594.75,-174.398C645.88,-153.514 759.678,-107.033 817.543,-83.3983"/>
<polygon fill="midnightblue" stroke="midnightblue" points="819.067,-86.5566 827.001,-79.5352 816.42,-80.0763 819.067,-86.5566"/>
</g>
<!-- Node8 -->
<g id="node17" class="node"><title>Node8</title>
<polygon fill="white" stroke="#bfbfbf" points="312.794,-116.5 312.794,-137.5 390.794,-137.5 390.794,-116.5 312.794,-116.5"/>
<text text-anchor="middle" x="351.794" y="-124.5" font-family="Helvetica,sans-Serif" font-size="10.00">lunaservice.h</text>
</g>
<!-- Node3&#45;&gt;Node8 -->
<g id="edge18" class="edge"><title>Node3&#45;&gt;Node8</title>
<path fill="none" stroke="midnightblue" d="M529.497,-174.497C493.396,-164.847 439.751,-150.509 400.851,-140.112"/>
<polygon fill="midnightblue" stroke="midnightblue" points="401.364,-136.626 390.799,-137.425 399.556,-143.389 401.364,-136.626"/>
</g>
<!-- Node9 -->
<g id="node19" class="node"><title>Node9</title>
<polygon fill="white" stroke="#bfbfbf" points="498.294,-116.5 498.294,-137.5 553.294,-137.5 553.294,-116.5 498.294,-116.5"/>
<text text-anchor="middle" x="525.794" y="-124.5" font-family="Helvetica,sans-Serif" font-size="10.00">QObject</text>
</g>
<!-- Node3&#45;&gt;Node9 -->
<g id="edge20" class="edge"><title>Node3&#45;&gt;Node9</title>
<path fill="none" stroke="midnightblue" d="M560.907,-174.362C554.967,-166.35 546.672,-155.161 539.636,-145.67"/>
<polygon fill="midnightblue" stroke="midnightblue" points="542.398,-143.519 533.631,-137.571 536.775,-147.688 542.398,-143.519"/>
</g>
<!-- Node6&#45;&gt;Node2 -->
<g id="edge14" class="edge"><title>Node6&#45;&gt;Node2</title>
<path fill="none" stroke="midnightblue" d="M847.292,-58.3619C843.274,-50.5949 837.713,-39.8426 832.904,-30.5458"/>
<polygon fill="midnightblue" stroke="midnightblue" points="835.965,-28.8448 828.262,-21.5707 829.747,-32.0608 835.965,-28.8448"/>
</g>
<!-- Node6&#45;&gt;Node7 -->
<g id="edge16" class="edge"><title>Node6&#45;&gt;Node7</title>
<path fill="none" stroke="midnightblue" d="M884.902,-59.8055C887.893,-59.1249 890.89,-58.5075 893.794,-58 1093.01,-23.1882 1336.83,-13.9274 1421.82,-11.671"/>
<polygon fill="midnightblue" stroke="midnightblue" points="1422.16,-15.1638 1432.07,-11.4131 1421.98,-8.16601 1422.16,-15.1638"/>
</g>
<!-- Node10&#45;&gt;Node2 -->
<g id="edge24" class="edge"><title>Node10&#45;&gt;Node2</title>
<path fill="none" stroke="midnightblue" d="M1044.27,-241.08C977.929,-236.851 838.501,-224.724 800.794,-196 770.943,-173.26 765.667,-152.635 773.794,-116 780.828,-84.2961 798.476,-50.8233 810.554,-30.4197"/>
<polygon fill="midnightblue" stroke="midnightblue" points="813.609,-32.1319 815.81,-21.768 807.627,-28.4977 813.609,-32.1319"/>
</g>
<!-- Node11 -->
<g id="node24" class="node"><title>Node11</title>
<polygon fill="white" stroke="#bfbfbf" points="920.294,-174.5 920.294,-195.5 997.294,-195.5 997.294,-174.5 920.294,-174.5"/>
<text text-anchor="middle" x="958.794" y="-182.5" font-family="Helvetica,sans-Serif" font-size="10.00">PGContext.h</text>
</g>
<!-- Node10&#45;&gt;Node11 -->
<g id="edge26" class="edge"><title>Node10&#45;&gt;Node11</title>
<path fill="none" stroke="midnightblue" d="M1057.88,-232.497C1038.98,-223.438 1011.46,-210.246 990.218,-200.063"/>
<polygon fill="midnightblue" stroke="midnightblue" points="991.483,-196.788 980.952,-195.621 988.457,-203.1 991.483,-196.788"/>
</g>
<!-- Node12 -->
<g id="node26" class="node"><title>Node12</title>
<polygon fill="white" stroke="#bfbfbf" points="1014.79,-174.5 1014.79,-195.5 1082.79,-195.5 1082.79,-174.5 1014.79,-174.5"/>
<text text-anchor="middle" x="1048.79" y="-182.5" font-family="Helvetica,sans-Serif" font-size="10.00">PContext.h</text>
</g>
<!-- Node10&#45;&gt;Node12 -->
<g id="edge28" class="edge"><title>Node10&#45;&gt;Node12</title>
<path fill="none" stroke="midnightblue" d="M1074.11,-232.362C1069.96,-224.595 1064.21,-213.843 1059.24,-204.546"/>
<polygon fill="midnightblue" stroke="midnightblue" points="1062.24,-202.74 1054.44,-195.571 1056.07,-206.04 1062.24,-202.74"/>
</g>
<!-- Node13 -->
<g id="node28" class="node"><title>Node13</title>
<polygon fill="white" stroke="#bfbfbf" points="1228.79,-174.5 1228.79,-195.5 1294.79,-195.5 1294.79,-174.5 1228.79,-174.5"/>
<text text-anchor="middle" x="1261.79" y="-182.5" font-family="Helvetica,sans-Serif" font-size="10.00">PPixmap.h</text>
</g>
<!-- Node10&#45;&gt;Node13 -->
<g id="edge30" class="edge"><title>Node10&#45;&gt;Node13</title>
<path fill="none" stroke="midnightblue" d="M1112.75,-232.497C1142.55,-223 1186.6,-208.962 1219.09,-198.609"/>
<polygon fill="midnightblue" stroke="midnightblue" points="1220.31,-201.894 1228.77,-195.523 1218.18,-195.225 1220.31,-201.894"/>
</g>
<!-- Node14 -->
<g id="node30" class="node"><title>Node14</title>
<a xlink:href="TaskBase_8h.htm" target="_top" xlink:title="TaskBase.h">
<polygon fill="white" stroke="black" points="1138.79,-174.5 1138.79,-195.5 1210.79,-195.5 1210.79,-174.5 1138.79,-174.5"/>
<text text-anchor="middle" x="1174.79" y="-182.5" font-family="Helvetica,sans-Serif" font-size="10.00">TaskBase.h</text>
</a>
</g>
<!-- Node10&#45;&gt;Node14 -->
<g id="edge32" class="edge"><title>Node10&#45;&gt;Node14</title>
<path fill="none" stroke="midnightblue" d="M1097.22,-232.362C1111.68,-223.532 1132.46,-210.844 1148.88,-200.822"/>
<polygon fill="midnightblue" stroke="midnightblue" points="1150.77,-203.769 1157.48,-195.571 1147.12,-197.794 1150.77,-203.769"/>
</g>
<!-- Node24 -->
<g id="node59" class="node"><title>Node24</title>
<a xlink:href="Mutex_8h.htm" target="_top" xlink:title="Mutex.h">
<polygon fill="white" stroke="black" points="966.294,-116.5 966.294,-137.5 1019.29,-137.5 1019.29,-116.5 966.294,-116.5"/>
<text text-anchor="middle" x="992.794" y="-124.5" font-family="Helvetica,sans-Serif" font-size="10.00">Mutex.h</text>
</a>
</g>
<!-- Node10&#45;&gt;Node24 -->
<g id="edge86" class="edge"><title>Node10&#45;&gt;Node24</title>
<path fill="none" stroke="midnightblue" d="M1085.93,-232.296C1093.27,-217.918 1103.23,-192.088 1091.79,-174 1084.52,-162.5 1054.48,-149.181 1029.38,-139.664"/>
<polygon fill="midnightblue" stroke="midnightblue" points="1030.3,-136.273 1019.7,-136.088 1027.87,-142.839 1030.3,-136.273"/>
</g>
<!-- Node26 -->
<g id="node70" class="node"><title>Node26</title>
<a xlink:href="CustomEvents_8h.htm" target="_top" xlink:title="CustomEvents.h">
<polygon fill="white" stroke="black" points="782.794,-116.5 782.794,-137.5 874.794,-137.5 874.794,-116.5 782.794,-116.5"/>
<text text-anchor="middle" x="828.794" y="-124.5" font-family="Helvetica,sans-Serif" font-size="10.00">CustomEvents.h</text>
</a>
</g>
<!-- Node10&#45;&gt;Node26 -->
<g id="edge88" class="edge"><title>Node10&#45;&gt;Node26</title>
<path fill="none" stroke="midnightblue" d="M1044.16,-242.195C978.192,-239.871 841.074,-230.861 811.794,-196 800.098,-182.074 807.508,-161.308 815.899,-146.197"/>
<polygon fill="midnightblue" stroke="midnightblue" points="818.9,-147.997 821.088,-137.63 812.913,-144.37 818.9,-147.997"/>
</g>
<!-- Node28 -->
<g id="node75" class="node"><title>Node28</title>
<a xlink:href="InputControl_8h.htm" target="_top" xlink:title="InputControl.h">
<polygon fill="white" stroke="black" points="820.294,-174.5 820.294,-195.5 903.294,-195.5 903.294,-174.5 820.294,-174.5"/>
<text text-anchor="middle" x="861.794" y="-182.5" font-family="Helvetica,sans-Serif" font-size="10.00">InputControl.h</text>
</a>
</g>
<!-- Node10&#45;&gt;Node28 -->
<g id="edge94" class="edge"><title>Node10&#45;&gt;Node28</title>
<path fill="none" stroke="midnightblue" d="M1044.28,-233.552C1008.06,-223.915 951.565,-208.884 911.031,-198.1"/>
<polygon fill="midnightblue" stroke="midnightblue" points="911.914,-194.713 901.35,-195.524 910.114,-201.478 911.914,-194.713"/>
</g>
<!-- Node30 -->
<g id="node79" class="node"><title>Node30</title>
<polygon fill="white" stroke="#bfbfbf" points="1312.29,-174.5 1312.29,-195.5 1437.29,-195.5 1437.29,-174.5 1312.29,-174.5"/>
<text text-anchor="middle" x="1374.79" y="-182.5" font-family="Helvetica,sans-Serif" font-size="10.00">webosDeviceKeymap.h</text>
</g>
<!-- Node10&#45;&gt;Node30 -->
<g id="edge98" class="edge"><title>Node10&#45;&gt;Node30</title>
<path fill="none" stroke="midnightblue" d="M1115.38,-236.004C1163.84,-226.477 1251.39,-209.263 1311.26,-197.492"/>
<polygon fill="midnightblue" stroke="midnightblue" points="1312.22,-200.869 1321.36,-195.506 1310.87,-194.001 1312.22,-200.869"/>
</g>
<!-- Node31 -->
<g id="node81" class="node"><title>Node31</title>
<polygon fill="white" stroke="#bfbfbf" points="1454.29,-174.5 1454.29,-195.5 1483.29,-195.5 1483.29,-174.5 1454.29,-174.5"/>
<text text-anchor="middle" x="1468.79" y="-182.5" font-family="Helvetica,sans-Serif" font-size="10.00">Qt</text>
</g>
<!-- Node10&#45;&gt;Node31 -->
<g id="edge100" class="edge"><title>Node10&#45;&gt;Node31</title>
<path fill="none" stroke="midnightblue" d="M1115.38,-242.164C1180.01,-239.855 1320.74,-231.174 1444.35,-195.752"/>
<polygon fill="midnightblue" stroke="midnightblue" points="1445.36,-199.102 1453.97,-192.928 1443.39,-192.385 1445.36,-199.102"/>
</g>
<!-- Node32 -->
<g id="node83" class="node"><title>Node32</title>
<polygon fill="white" stroke="#bfbfbf" points="1500.79,-174.5 1500.79,-195.5 1554.79,-195.5 1554.79,-174.5 1500.79,-174.5"/>
<text text-anchor="middle" x="1527.79" y="-182.5" font-family="Helvetica,sans-Serif" font-size="10.00">QImage</text>
</g>
<!-- Node10&#45;&gt;Node32 -->
<g id="edge102" class="edge"><title>Node10&#45;&gt;Node32</title>
<path fill="none" stroke="midnightblue" d="M1115.41,-241.135C1185.63,-236.989 1346.89,-225.135 1490.54,-195.97"/>
<polygon fill="midnightblue" stroke="midnightblue" points="1491.33,-199.382 1500.41,-193.932 1489.91,-192.526 1491.33,-199.382"/>
</g>
<!-- Node14&#45;&gt;Node2 -->
<g id="edge34" class="edge"><title>Node14&#45;&gt;Node2</title>
<path fill="none" stroke="midnightblue" d="M1161.82,-174.236C1132.23,-150.17 1056.73,-91.4973 984.794,-58 946.42,-40.1312 899.733,-27.4568 866.355,-19.8079"/>
<polygon fill="midnightblue" stroke="midnightblue" points="866.97,-16.359 856.447,-17.5952 865.444,-23.1907 866.97,-16.359"/>
</g>
<!-- Node14&#45;&gt;Node7 -->
<g id="edge36" class="edge"><title>Node14&#45;&gt;Node7</title>
<path fill="none" stroke="midnightblue" d="M1211.08,-175.808C1214.02,-175.161 1216.95,-174.549 1219.79,-174 1342.83,-150.233 1695.92,-176.553 1775.79,-80 1782.03,-72.466 1782.19,-65.395 1775.79,-58 1756.76,-35.9989 1560.45,-19.0533 1483.5,-13.2083"/>
<polygon fill="midnightblue" stroke="midnightblue" points="1483.7,-9.71348 1473.46,-12.4579 1483.17,-16.694 1483.7,-9.71348"/>
</g>
<!-- Node15 -->
<g id="node34" class="node"><title>Node15</title>
<polygon fill="white" stroke="#bfbfbf" points="1153.29,-116.5 1153.29,-137.5 1182.29,-137.5 1182.29,-116.5 1153.29,-116.5"/>
<text text-anchor="middle" x="1167.79" y="-124.5" font-family="Helvetica,sans-Serif" font-size="10.00">list</text>
</g>
<!-- Node14&#45;&gt;Node15 -->
<g id="edge38" class="edge"><title>Node14&#45;&gt;Node15</title>
<path fill="none" stroke="midnightblue" d="M1173.51,-174.362C1172.61,-166.922 1171.38,-156.743 1170.3,-147.728"/>
<polygon fill="midnightblue" stroke="midnightblue" points="1173.74,-147.079 1169.07,-137.571 1166.79,-147.918 1173.74,-147.079"/>
</g>
<!-- Node16 -->
<g id="node36" class="node"><title>Node16</title>
<a xlink:href="sptr_8h.htm" target="_top" xlink:title="sptr.h">
<polygon fill="white" stroke="black" points="1124.29,-58.5 1124.29,-79.5 1167.29,-79.5 1167.29,-58.5 1124.29,-58.5"/>
<text text-anchor="middle" x="1145.79" y="-66.5" font-family="Helvetica,sans-Serif" font-size="10.00">sptr.h</text>
</a>
</g>
<!-- Node14&#45;&gt;Node16 -->
<g id="edge40" class="edge"><title>Node14&#45;&gt;Node16</title>
<path fill="none" stroke="midnightblue" d="M1165.43,-174.306C1158.21,-165.313 1148.81,-151.753 1144.79,-138 1140.18,-122.21 1140.81,-103.51 1142.38,-89.5635"/>
<polygon fill="midnightblue" stroke="midnightblue" points="1145.86,-89.9275 1143.75,-79.5437 1138.92,-88.9732 1145.86,-89.9275"/>
</g>
<!-- Node17 -->
<g id="node40" class="node"><title>Node17</title>
<a xlink:href="AsyncCaller_8h.htm" target="_top" xlink:title="AsyncCaller.h">
<polygon fill="white" stroke="black" points="1670.29,-58.5 1670.29,-79.5 1751.29,-79.5 1751.29,-58.5 1670.29,-58.5"/>
<text text-anchor="middle" x="1710.79" y="-66.5" font-family="Helvetica,sans-Serif" font-size="10.00">AsyncCaller.h</text>
</a>
</g>
<!-- Node14&#45;&gt;Node17 -->
<g id="edge46" class="edge"><title>Node14&#45;&gt;Node17</title>
<path fill="none" stroke="midnightblue" d="M1211.11,-175.957C1214.04,-175.277 1216.97,-174.616 1219.79,-174 1302.92,-155.894 1324.53,-155.447 1407.79,-138 1496.9,-119.33 1600.18,-95.2944 1660.24,-81.0779"/>
<polygon fill="midnightblue" stroke="midnightblue" points="1661.29,-84.4248 1670.21,-78.7121 1659.68,-77.6136 1661.29,-84.4248"/>
</g>
<!-- Node18 -->
<g id="node44" class="node"><title>Node18</title>
<a xlink:href="Event_8h.htm" target="_top" xlink:title="Event.h">
<polygon fill="white" stroke="black" points="1346.79,-116.5 1346.79,-137.5 1398.79,-137.5 1398.79,-116.5 1346.79,-116.5"/>
<text text-anchor="middle" x="1372.79" y="-124.5" font-family="Helvetica,sans-Serif" font-size="10.00">Event.h</text>
</a>
</g>
<!-- Node14&#45;&gt;Node18 -->
<g id="edge52" class="edge"><title>Node14&#45;&gt;Node18</title>
<path fill="none" stroke="midnightblue" d="M1210.65,-174.497C1246.35,-164.038 1300.86,-148.071 1336.66,-137.584"/>
<polygon fill="midnightblue" stroke="midnightblue" points="1338.07,-140.82 1346.68,-134.65 1336.1,-134.102 1338.07,-140.82"/>
</g>
<!-- Node14&#45;&gt;Node24 -->
<g id="edge70" class="edge"><title>Node14&#45;&gt;Node24</title>
<path fill="none" stroke="midnightblue" d="M1141.84,-174.497C1109.99,-164.349 1061.88,-149.016 1028.99,-138.535"/>
<polygon fill="midnightblue" stroke="midnightblue" points="1029.9,-135.15 1019.31,-135.448 1027.77,-141.82 1029.9,-135.15"/>
</g>
<!-- Node25 -->
<g id="node64" class="node"><title>Node25</title>
<a xlink:href="SingletonTimer_8h.htm" target="_top" xlink:title="SingletonTimer.h">
<polygon fill="white" stroke="black" points="1199.79,-116.5 1199.79,-137.5 1295.79,-137.5 1295.79,-116.5 1199.79,-116.5"/>
<text text-anchor="middle" x="1247.79" y="-124.5" font-family="Helvetica,sans-Serif" font-size="10.00">SingletonTimer.h</text>
</a>
</g>
<!-- Node14&#45;&gt;Node25 -->
<g id="edge78" class="edge"><title>Node14&#45;&gt;Node25</title>
<path fill="none" stroke="midnightblue" d="M1188.18,-174.362C1198.89,-165.859 1214.09,-153.779 1226.47,-143.947"/>
<polygon fill="midnightblue" stroke="midnightblue" points="1228.84,-146.532 1234.49,-137.571 1224.48,-141.051 1228.84,-146.532"/>
</g>
<!-- Node16&#45;&gt;Node2 -->
<g id="edge42" class="edge"><title>Node16&#45;&gt;Node2</title>
<path fill="none" stroke="midnightblue" d="M1124.08,-61.6489C1119.71,-60.3193 1115.13,-59.0301 1110.79,-58 1025.18,-37.6705 923.166,-23.2917 866.416,-16.147"/>
<polygon fill="midnightblue" stroke="midnightblue" points="866.716,-12.6575 856.361,-14.8974 865.853,-19.604 866.716,-12.6575"/>
</g>
<!-- Node16&#45;&gt;Node7 -->
<g id="edge44" class="edge"><title>Node16&#45;&gt;Node7</title>
<path fill="none" stroke="midnightblue" d="M1167.51,-61.6809C1171.88,-60.3487 1176.46,-59.0503 1180.79,-58 1267.32,-37.0265 1371.51,-21.7412 1422.16,-14.9342"/>
<polygon fill="midnightblue" stroke="midnightblue" points="1422.68,-18.3965 1432.13,-13.6114 1421.76,-11.4573 1422.68,-18.3965"/>
</g>
<!-- Node17&#45;&gt;Node2 -->
<g id="edge48" class="edge"><title>Node17&#45;&gt;Node2</title>
<path fill="none" stroke="midnightblue" d="M1670.25,-59.3567C1667.4,-58.8454 1664.56,-58.3849 1661.79,-58 1505.87,-36.2823 1016.55,-17.7784 866.787,-12.505"/>
<polygon fill="midnightblue" stroke="midnightblue" points="866.717,-9.00046 856.601,-12.1483 866.472,-15.9962 866.717,-9.00046"/>
</g>
<!-- Node17&#45;&gt;Node7 -->
<g id="edge50" class="edge"><title>Node17&#45;&gt;Node7</title>
<path fill="none" stroke="midnightblue" d="M1670.2,-59.8737C1618.35,-48.2179 1529.79,-28.3092 1483.32,-17.8618"/>
<polygon fill="midnightblue" stroke="midnightblue" points="1484.05,-14.44 1473.53,-15.6614 1482.52,-21.2696 1484.05,-14.44"/>
</g>
<!-- Node18&#45;&gt;Node2 -->
<g id="edge54" class="edge"><title>Node18&#45;&gt;Node2</title>
<path fill="none" stroke="midnightblue" d="M1360.61,-116.427C1340.08,-98.8423 1299.13,-64.8331 1281.79,-58 1206.76,-28.4287 965.758,-16.298 866.324,-12.4674"/>
<polygon fill="midnightblue" stroke="midnightblue" points="866.437,-8.96931 856.313,-12.0915 866.174,-15.9644 866.437,-8.96931"/>
</g>
<!-- Node18&#45;&gt;Node7 -->
<g id="edge58" class="edge"><title>Node18&#45;&gt;Node7</title>
<path fill="none" stroke="midnightblue" d="M1398.98,-125.794C1482.08,-121.702 1735.81,-107.072 1759.79,-80 1766.28,-72.6811 1766.16,-65.4187 1759.79,-58 1741.88,-37.139 1557.63,-19.6838 1483.47,-13.4501"/>
<polygon fill="midnightblue" stroke="midnightblue" points="1483.61,-9.95024 1473.36,-12.6128 1483.03,-16.9263 1483.61,-9.95024"/>
</g>
<!-- Node18&#45;&gt;Node16 -->
<g id="edge68" class="edge"><title>Node18&#45;&gt;Node16</title>
<path fill="none" stroke="midnightblue" d="M1346.75,-120.347C1304.83,-109.636 1222.53,-88.606 1177.34,-77.0608"/>
<polygon fill="midnightblue" stroke="midnightblue" points="1178.05,-73.6294 1167.5,-74.5449 1176.32,-80.4115 1178.05,-73.6294"/>
</g>
<!-- Node19 -->
<g id="node47" class="node"><title>Node19</title>
<polygon fill="white" stroke="#bfbfbf" points="1222.79,-58.5 1222.79,-79.5 1272.79,-79.5 1272.79,-58.5 1222.79,-58.5"/>
<text text-anchor="middle" x="1247.79" y="-66.5" font-family="Helvetica,sans-Serif" font-size="10.00">stdint.h</text>
</g>
<!-- Node18&#45;&gt;Node19 -->
<g id="edge56" class="edge"><title>Node18&#45;&gt;Node19</title>
<path fill="none" stroke="midnightblue" d="M1350.16,-116.497C1330.55,-107.397 1301.95,-94.1273 1279.96,-83.9253"/>
<polygon fill="midnightblue" stroke="midnightblue" points="1281.23,-80.6554 1270.68,-79.6212 1278.28,-87.0051 1281.23,-80.6554"/>
</g>
<!-- Node20 -->
<g id="node50" class="node"><title>Node20</title>
<polygon fill="white" stroke="#bfbfbf" points="1434.29,-58.5 1434.29,-79.5 1481.29,-79.5 1481.29,-58.5 1434.29,-58.5"/>
<text text-anchor="middle" x="1457.79" y="-66.5" font-family="Helvetica,sans-Serif" font-size="10.00">stdio.h</text>
</g>
<!-- Node18&#45;&gt;Node20 -->
<g id="edge60" class="edge"><title>Node18&#45;&gt;Node20</title>
<path fill="none" stroke="midnightblue" d="M1388.38,-116.362C1401.09,-107.696 1419.23,-95.3126 1433.79,-85.3819"/>
<polygon fill="midnightblue" stroke="midnightblue" points="1436.02,-88.0982 1442.3,-79.5707 1432.07,-82.316 1436.02,-88.0982"/>
</g>
<!-- Node21 -->
<g id="node52" class="node"><title>Node21</title>
<polygon fill="white" stroke="#bfbfbf" points="1498.29,-58.5 1498.29,-79.5 1549.29,-79.5 1549.29,-58.5 1498.29,-58.5"/>
<text text-anchor="middle" x="1523.79" y="-66.5" font-family="Helvetica,sans-Serif" font-size="10.00">string.h</text>
</g>
<!-- Node18&#45;&gt;Node21 -->
<g id="edge62" class="edge"><title>Node18&#45;&gt;Node21</title>
<path fill="none" stroke="midnightblue" d="M1399.1,-116.897C1423.78,-107.416 1460.89,-93.1617 1488.21,-82.6674"/>
<polygon fill="midnightblue" stroke="midnightblue" points="1489.71,-85.84 1497.79,-78.9871 1487.2,-79.3055 1489.71,-85.84"/>
</g>
<!-- Node22 -->
<g id="node54" class="node"><title>Node22</title>
<polygon fill="white" stroke="#bfbfbf" points="1566.79,-58.5 1566.79,-79.5 1652.79,-79.5 1652.79,-58.5 1566.79,-58.5"/>
<text text-anchor="middle" x="1609.79" y="-66.5" font-family="Helvetica,sans-Serif" font-size="10.00">qnamespace.h</text>
</g>
<!-- Node18&#45;&gt;Node22 -->
<g id="edge64" class="edge"><title>Node18&#45;&gt;Node22</title>
<path fill="none" stroke="midnightblue" d="M1399.06,-120.571C1436.95,-111.3 1507.75,-93.9738 1556.76,-81.9781"/>
<polygon fill="midnightblue" stroke="midnightblue" points="1557.68,-85.3559 1566.57,-79.5791 1556.02,-78.5566 1557.68,-85.3559"/>
</g>
<!-- Node23 -->
<g id="node56" class="node"><title>Node23</title>
<polygon fill="white" stroke="#bfbfbf" points="1328.79,-58.5 1328.79,-79.5 1416.79,-79.5 1416.79,-58.5 1328.79,-58.5"/>
<text text-anchor="middle" x="1372.79" y="-66.5" font-family="Helvetica,sans-Serif" font-size="10.00">SysMgrEvent.h</text>
</g>
<!-- Node18&#45;&gt;Node23 -->
<g id="edge66" class="edge"><title>Node18&#45;&gt;Node23</title>
<path fill="none" stroke="midnightblue" d="M1372.79,-116.362C1372.79,-108.922 1372.79,-98.7427 1372.79,-89.7276"/>
<polygon fill="midnightblue" stroke="midnightblue" points="1376.29,-89.5706 1372.79,-79.5707 1369.29,-89.5707 1376.29,-89.5706"/>
</g>
<!-- Node24&#45;&gt;Node2 -->
<g id="edge72" class="edge"><title>Node24&#45;&gt;Node2</title>
<path fill="none" stroke="midnightblue" d="M991.132,-116.319C988.236,-101.245 980.855,-73.8092 963.794,-58 937.097,-33.2616 897.013,-21.5157 866.399,-15.9551"/>
<polygon fill="midnightblue" stroke="midnightblue" points="866.852,-12.4824 856.413,-14.2967 865.705,-19.3878 866.852,-12.4824"/>
</g>
<!-- Node24&#45;&gt;Node7 -->
<g id="edge76" class="edge"><title>Node24&#45;&gt;Node7</title>
<path fill="none" stroke="midnightblue" d="M1007.47,-116.346C1029.7,-100.782 1073.8,-72.1468 1115.79,-58 1172.37,-38.9427 1349.69,-20.6796 1421.82,-13.8366"/>
<polygon fill="midnightblue" stroke="midnightblue" points="1422.43,-17.2942 1432.06,-12.8745 1421.78,-10.3248 1422.43,-17.2942"/>
</g>
<!-- Node24&#45;&gt;Node16 -->
<g id="edge74" class="edge"><title>Node24&#45;&gt;Node16</title>
<path fill="none" stroke="midnightblue" d="M1019.44,-116.897C1045.83,-106.896 1086.22,-91.5829 1114.2,-80.9751"/>
<polygon fill="midnightblue" stroke="midnightblue" points="1115.79,-84.1159 1123.9,-77.2984 1113.31,-77.5704 1115.79,-84.1159"/>
</g>
<!-- Node25&#45;&gt;Node2 -->
<g id="edge80" class="edge"><title>Node25&#45;&gt;Node2</title>
<path fill="none" stroke="midnightblue" d="M1218.08,-116.383C1177.16,-101.989 1100.99,-76.0168 1034.79,-58 977.039,-42.2815 909.378,-27.9818 866.314,-19.387"/>
<polygon fill="midnightblue" stroke="midnightblue" points="866.938,-15.9428 856.449,-17.4322 865.577,-22.8093 866.938,-15.9428"/>
</g>
<!-- Node25&#45;&gt;Node7 -->
<g id="edge82" class="edge"><title>Node25&#45;&gt;Node7</title>
<path fill="none" stroke="midnightblue" d="M1235.53,-116.315C1220.53,-101.959 1198.86,-76.1526 1213.79,-58 1239.84,-26.3316 1363.58,-15.6716 1422.05,-12.3641"/>
<polygon fill="midnightblue" stroke="midnightblue" points="1422.37,-15.8522 1432.17,-11.8286 1422,-8.86196 1422.37,-15.8522"/>
</g>
<!-- Node25&#45;&gt;Node19 -->
<g id="edge84" class="edge"><title>Node25&#45;&gt;Node19</title>
<path fill="none" stroke="midnightblue" d="M1247.79,-116.362C1247.79,-108.922 1247.79,-98.7427 1247.79,-89.7276"/>
<polygon fill="midnightblue" stroke="midnightblue" points="1251.29,-89.5706 1247.79,-79.5707 1244.29,-89.5707 1251.29,-89.5706"/>
</g>
<!-- Node26&#45;&gt;Node2 -->
<g id="edge90" class="edge"><title>Node26&#45;&gt;Node2</title>
<path fill="none" stroke="midnightblue" d="M823.784,-116.464C819.638,-107.125 814.072,-92.9911 811.794,-80 808.952,-63.784 812.215,-45.3687 815.909,-31.6437"/>
<polygon fill="midnightblue" stroke="midnightblue" points="819.348,-32.357 818.855,-21.7737 812.641,-30.3547 819.348,-32.357"/>
</g>
<!-- Node27 -->
<g id="node73" class="node"><title>Node27</title>
<polygon fill="white" stroke="#bfbfbf" points="902.794,-58.5 902.794,-79.5 954.794,-79.5 954.794,-58.5 902.794,-58.5"/>
<text text-anchor="middle" x="928.794" y="-66.5" font-family="Helvetica,sans-Serif" font-size="10.00">QEvent</text>
</g>
<!-- Node26&#45;&gt;Node27 -->
<g id="edge92" class="edge"><title>Node26&#45;&gt;Node27</title>
<path fill="none" stroke="midnightblue" d="M847.136,-116.362C862.36,-107.532 884.236,-94.844 901.514,-84.8224"/>
<polygon fill="midnightblue" stroke="midnightblue" points="903.675,-87.6155 910.569,-79.5707 900.163,-81.5603 903.675,-87.6155"/>
</g>
<!-- Node29 -->
<g id="node77" class="node"><title>Node29</title>
<polygon fill="white" stroke="#bfbfbf" points="892.794,-116.5 892.794,-137.5 948.794,-137.5 948.794,-116.5 892.794,-116.5"/>
<text text-anchor="middle" x="920.794" y="-124.5" font-family="Helvetica,sans-Serif" font-size="10.00">hal/hal.h</text>
</g>
<!-- Node28&#45;&gt;Node29 -->
<g id="edge96" class="edge"><title>Node28&#45;&gt;Node29</title>
<path fill="none" stroke="midnightblue" d="M872.616,-174.362C881.016,-166.104 892.848,-154.472 902.684,-144.803"/>
<polygon fill="midnightblue" stroke="midnightblue" points="905.364,-147.077 910.041,-137.571 900.456,-142.085 905.364,-147.077"/>
</g>
<!-- Node33&#45;&gt;Node2 -->
<g id="edge106" class="edge"><title>Node33&#45;&gt;Node2</title>
<path fill="none" stroke="midnightblue" d="M416.793,-175.888C375.506,-163.609 307.23,-142.736 303.794,-138 298.052,-130.086 297.604,-123.568 303.794,-116 363.904,-42.5112 664.882,-19.2557 778.912,-13.0136"/>
<polygon fill="midnightblue" stroke="midnightblue" points="779.231,-16.5017 789.032,-12.4777 778.86,-9.51152 779.231,-16.5017"/>
</g>
<!-- Node33&#45;&gt;Node4 -->
<g id="edge108" class="edge"><title>Node33&#45;&gt;Node4</title>
<path fill="none" stroke="midnightblue" d="M473.872,-174.497C498.306,-164.655 534.852,-149.935 560.774,-139.494"/>
<polygon fill="midnightblue" stroke="midnightblue" points="562.173,-142.704 570.141,-135.721 559.558,-136.211 562.173,-142.704"/>
</g>
<!-- Node33&#45;&gt;Node5 -->
<g id="edge112" class="edge"><title>Node33&#45;&gt;Node5</title>
<path fill="none" stroke="midnightblue" d="M447.244,-174.362C446.859,-166.922 446.333,-156.743 445.866,-147.728"/>
<polygon fill="midnightblue" stroke="midnightblue" points="449.353,-147.376 445.341,-137.571 442.362,-147.738 449.353,-147.376"/>
</g>
<!-- Node33&#45;&gt;Node8 -->
<g id="edge110" class="edge"><title>Node33&#45;&gt;Node8</title>
<path fill="none" stroke="midnightblue" d="M430.186,-174.362C415.571,-165.532 394.571,-152.844 377.983,-142.822"/>
<polygon fill="midnightblue" stroke="midnightblue" points="379.66,-139.746 369.291,-137.571 376.04,-145.738 379.66,-139.746"/>
</g>
<!-- Node33&#45;&gt;Node9 -->
<g id="edge114" class="edge"><title>Node33&#45;&gt;Node9</title>
<path fill="none" stroke="midnightblue" d="M462.101,-174.362C473.646,-165.777 490.095,-153.546 503.385,-143.664"/>
<polygon fill="midnightblue" stroke="midnightblue" points="505.642,-146.346 511.579,-137.571 501.465,-140.729 505.642,-146.346"/>
</g>
<!-- Node34 -->
<g id="node92" class="node"><title>Node34</title>
<polygon fill="white" stroke="#bfbfbf" points="204.294,-116.5 204.294,-137.5 257.294,-137.5 257.294,-116.5 204.294,-116.5"/>
<text text-anchor="middle" x="230.794" y="-124.5" font-family="Helvetica,sans-Serif" font-size="10.00">QString</text>
</g>
<!-- Node33&#45;&gt;Node34 -->
<g id="edge116" class="edge"><title>Node33&#45;&gt;Node34</title>
<path fill="none" stroke="midnightblue" d="M416.361,-176.319C413.466,-175.531 410.576,-174.748 407.794,-174 346.998,-157.653 331.591,-154.347 270.794,-138 269.716,-137.71 268.622,-137.415 267.518,-137.116"/>
<polygon fill="midnightblue" stroke="midnightblue" points="268.031,-133.629 257.463,-134.379 266.192,-140.383 268.031,-133.629"/>
</g>
<!-- Node35&#45;&gt;Node2 -->
<g id="edge120" class="edge"><title>Node35&#45;&gt;Node2</title>
<path fill="none" stroke="midnightblue" d="M303.905,-181.136C247.857,-174.637 166.217,-157.833 195.794,-116 240.428,-52.8722 284.354,-74.9133 359.794,-58 511.381,-24.015 696.448,-14.5672 779.19,-11.9695"/>
<polygon fill="midnightblue" stroke="midnightblue" points="779.342,-15.4666 789.234,-11.6724 779.135,-8.46967 779.342,-15.4666"/>
</g>
<!-- Node35&#45;&gt;Node4 -->
<g id="edge122" class="edge"><title>Node35&#45;&gt;Node4</title>
<path fill="none" stroke="midnightblue" d="M399.438,-175.097C447.541,-164.974 519.497,-149.463 560.541,-138.074"/>
<polygon fill="midnightblue" stroke="midnightblue" points="561.635,-141.402 570.277,-135.273 559.699,-134.675 561.635,-141.402"/>
</g>
<!-- Node35&#45;&gt;Node8 -->
<g id="edge124" class="edge"><title>Node35&#45;&gt;Node8</title>
<path fill="none" stroke="midnightblue" d="M351.794,-174.362C351.794,-166.922 351.794,-156.743 351.794,-147.728"/>
<polygon fill="midnightblue" stroke="midnightblue" points="355.294,-147.571 351.794,-137.571 348.294,-147.571 355.294,-147.571"/>
</g>
<!-- Node35&#45;&gt;Node9 -->
<g id="edge128" class="edge"><title>Node35&#45;&gt;Node9</title>
<path fill="none" stroke="midnightblue" d="M383.304,-174.497C412.908,-164.629 457.224,-149.857 488.561,-139.411"/>
<polygon fill="midnightblue" stroke="midnightblue" points="489.864,-142.666 498.244,-136.184 487.65,-136.025 489.864,-142.666"/>
</g>
<!-- Node36 -->
<g id="node99" class="node"><title>Node36</title>
<polygon fill="white" stroke="#bfbfbf" points="96.7943,-116.5 96.7943,-137.5 148.794,-137.5 148.794,-116.5 96.7943,-116.5"/>
<text text-anchor="middle" x="122.794" y="-124.5" font-family="Helvetica,sans-Serif" font-size="10.00">QTimer</text>
</g>
<!-- Node35&#45;&gt;Node36 -->
<g id="edge126" class="edge"><title>Node35&#45;&gt;Node36</title>
<path fill="none" stroke="midnightblue" d="M308.177,-174.476C269.82,-165.145 212.513,-151.016 162.794,-138 161.54,-137.672 160.265,-137.335 158.977,-136.993"/>
<polygon fill="midnightblue" stroke="midnightblue" points="159.586,-133.532 149.019,-134.311 157.765,-140.292 159.586,-133.532"/>
</g>
<!-- Node37&#45;&gt;Node2 -->
<g id="edge132" class="edge"><title>Node37&#45;&gt;Node2</title>
<path fill="none" stroke="midnightblue" d="M688.02,-174.217C693.368,-150.615 708.926,-93.6457 740.794,-58 753.021,-44.3242 770.207,-33.6295 785.689,-25.9204"/>
<polygon fill="midnightblue" stroke="midnightblue" points="787.498,-28.9373 795.049,-21.5062 784.512,-22.606 787.498,-28.9373"/>
</g>
<!-- Node37&#45;&gt;Node4 -->
<g id="edge134" class="edge"><title>Node37&#45;&gt;Node4</title>
<path fill="none" stroke="midnightblue" d="M668.553,-174.362C654.243,-165.532 633.679,-152.844 617.438,-142.822"/>
<polygon fill="midnightblue" stroke="midnightblue" points="619.274,-139.843 608.926,-137.571 615.599,-145.8 619.274,-139.843"/>
</g>
<!-- Node37&#45;&gt;Node8 -->
<g id="edge136" class="edge"><title>Node37&#45;&gt;Node8</title>
<path fill="none" stroke="midnightblue" d="M644.094,-175.613C641.289,-175.047 638.503,-174.504 635.794,-174 534.64,-155.179 505.754,-157.687 401.068,-138.138"/>
<polygon fill="midnightblue" stroke="midnightblue" points="401.513,-134.661 391.037,-136.242 400.213,-141.539 401.513,-134.661"/>
</g>
<!-- Node37&#45;&gt;Node9 -->
<g id="edge142" class="edge"><title>Node37&#45;&gt;Node9</title>
<path fill="none" stroke="midnightblue" d="M656.82,-174.497C630.558,-164.977 591.707,-150.893 563.126,-140.533"/>
<polygon fill="midnightblue" stroke="midnightblue" points="564.077,-137.155 553.483,-137.037 561.691,-143.736 564.077,-137.155"/>
</g>
<!-- Node37&#45;&gt;Node24 -->
<g id="edge138" class="edge"><title>Node37&#45;&gt;Node24</title>
<path fill="none" stroke="midnightblue" d="M727.622,-179.541C779.338,-172.403 870.164,-158.604 956.219,-138.171"/>
<polygon fill="midnightblue" stroke="midnightblue" points="957.243,-141.524 966.144,-135.779 955.603,-134.719 957.243,-141.524"/>
</g>
<!-- Node37&#45;&gt;Node26 -->
<g id="edge140" class="edge"><title>Node37&#45;&gt;Node26</title>
<path fill="none" stroke="midnightblue" d="M711.691,-174.497C734.428,-165.275 767.725,-151.769 793.007,-141.515"/>
<polygon fill="midnightblue" stroke="midnightblue" points="794.656,-144.623 802.608,-137.621 792.025,-138.136 794.656,-144.623"/>
</g>
</g>
</svg>
