<?xml version="1.0" encoding="UTF-8" standalone="no"?>
<!DOCTYPE svg PUBLIC "-//W3C//DTD SVG 1.1//EN"
 "http://www.w3.org/Graphics/SVG/1.1/DTD/svg11.dtd">
<!-- Generated by graphviz version 2.26.3 (20100126.1600)
 -->
<!-- Title: G Pages: 1 -->
<svg width="809pt" height="262pt"
 viewBox="0.00 0.00 809.22 262.00" xmlns="http://www.w3.org/2000/svg" xmlns:xlink="http://www.w3.org/1999/xlink">
<g id="graph1" class="graph" transform="scale(1 1) rotate(0) translate(4 258)">
<title>G</title>
<polygon fill="white" stroke="white" points="-4,5 -4,-258 806.223,-258 806.223,5 -4,5"/>
<!-- Node1 -->
<g id="node1" class="node"><title>Node1</title>
<polygon fill="#bfbfbf" stroke="black" points="122.223,-232.5 122.223,-253.5 226.223,-253.5 226.223,-232.5 122.223,-232.5"/>
<text text-anchor="middle" x="174.223" y="-240.5" font-family="Helvetica,sans-Serif" font-size="10.00">EventThrottler.cpp</text>
</g>
<!-- Node2 -->
<g id="node3" class="node"><title>Node2</title>
<a xlink:href="Common_8h.htm" target="_top" xlink:title="Common.h">
<polygon fill="white" stroke="black" points="168.723,-0.5 168.723,-21.5 235.723,-21.5 235.723,-0.5 168.723,-0.5"/>
<text text-anchor="middle" x="202.223" y="-8.5" font-family="Helvetica,sans-Serif" font-size="10.00">Common.h</text>
</a>
</g>
<!-- Node1&#45;&gt;Node2 -->
<g id="edge2" class="edge"><title>Node1&#45;&gt;Node2</title>
<path fill="none" stroke="midnightblue" d="M122.129,-235.687C77.3235,-228.204 17.6874,-214.977 3.22264,-196 -2.70473,-188.224 2.18682,-183.723 3.22264,-174 8.80963,-121.557 -8.09621,-96.241 28.2226,-58 46.0022,-39.2794 113.16,-25.1643 158.65,-17.496"/>
<polygon fill="midnightblue" stroke="midnightblue" points="159.268,-20.9415 168.568,-15.8675 158.133,-14.034 159.268,-20.9415"/>
</g>
<!-- Node3 -->
<g id="node5" class="node"><title>Node3</title>
<polygon fill="white" stroke="#bfbfbf" points="12.2226,-174.5 12.2226,-195.5 64.2226,-195.5 64.2226,-174.5 12.2226,-174.5"/>
<text text-anchor="middle" x="38.2226" y="-182.5" font-family="Helvetica,sans-Serif" font-size="10.00">QEvent</text>
</g>
<!-- Node1&#45;&gt;Node3 -->
<g id="edge4" class="edge"><title>Node1&#45;&gt;Node3</title>
<path fill="none" stroke="midnightblue" d="M149.594,-232.497C128.066,-223.315 96.5828,-209.889 72.5781,-199.652"/>
<polygon fill="midnightblue" stroke="midnightblue" points="73.699,-196.325 63.1276,-195.621 70.953,-202.764 73.699,-196.325"/>
</g>
<!-- Node4 -->
<g id="node7" class="node"><title>Node4</title>
<polygon fill="white" stroke="#bfbfbf" points="81.7226,-174.5 81.7226,-195.5 162.723,-195.5 162.723,-174.5 81.7226,-174.5"/>
<text text-anchor="middle" x="122.223" y="-182.5" font-family="Helvetica,sans-Serif" font-size="10.00">QTouchEvent</text>
</g>
<!-- Node1&#45;&gt;Node4 -->
<g id="edge6" class="edge"><title>Node1&#45;&gt;Node4</title>
<path fill="none" stroke="midnightblue" d="M164.685,-232.362C157.355,-224.186 147.059,-212.702 138.442,-203.091"/>
<polygon fill="midnightblue" stroke="midnightblue" points="140.981,-200.68 131.7,-195.571 135.769,-205.353 140.981,-200.68"/>
</g>
<!-- Node5 -->
<g id="node9" class="node"><title>Node5</title>
<a xlink:href="EventThrottler_8h.htm" target="_top" xlink:title="EventThrottler.h">
<polygon fill="white" stroke="black" points="180.223,-174.5 180.223,-195.5 272.223,-195.5 272.223,-174.5 180.223,-174.5"/>
<text text-anchor="middle" x="226.223" y="-182.5" font-family="Helvetica,sans-Serif" font-size="10.00">EventThrottler.h</text>
</a>
</g>
<!-- Node1&#45;&gt;Node5 -->
<g id="edge8" class="edge"><title>Node1&#45;&gt;Node5</title>
<path fill="none" stroke="midnightblue" d="M183.76,-232.362C191.09,-224.186 201.386,-212.702 210.003,-203.091"/>
<polygon fill="midnightblue" stroke="midnightblue" points="212.676,-205.353 216.745,-195.571 207.464,-200.68 212.676,-205.353"/>
</g>
<!-- Node14 -->
<g id="node31" class="node"><title>Node14</title>
<a xlink:href="Settings_8h.htm" target="_top" xlink:title="Settings.h">
<polygon fill="white" stroke="black" points="596.723,-58.5 596.723,-79.5 659.723,-79.5 659.723,-58.5 596.723,-58.5"/>
<text text-anchor="middle" x="628.223" y="-66.5" font-family="Helvetica,sans-Serif" font-size="10.00">Settings.h</text>
</a>
</g>
<!-- Node1&#45;&gt;Node14 -->
<g id="edge34" class="edge"><title>Node1&#45;&gt;Node14</title>
<path fill="none" stroke="midnightblue" d="M201.939,-232.377C280.154,-202.401 502.646,-117.129 591.201,-83.1887"/>
<polygon fill="midnightblue" stroke="midnightblue" points="592.496,-86.4408 600.581,-79.5938 589.991,-79.9045 592.496,-86.4408"/>
</g>
<!-- Node19 -->
<g id="node43" class="node"><title>Node19</title>
<a xlink:href="Time_8h.htm" target="_top" xlink:title="Time.h">
<polygon fill="white" stroke="black" points="545.223,-116.5 545.223,-137.5 593.223,-137.5 593.223,-116.5 545.223,-116.5"/>
<text text-anchor="middle" x="569.223" y="-124.5" font-family="Helvetica,sans-Serif" font-size="10.00">Time.h</text>
</a>
</g>
<!-- Node1&#45;&gt;Node19 -->
<g id="edge48" class="edge"><title>Node1&#45;&gt;Node19</title>
<path fill="none" stroke="midnightblue" d="M226.467,-236.986C277.32,-230.23 356.35,-217.325 422.223,-196 465.599,-181.958 512.835,-158.122 541.744,-142.469"/>
<polygon fill="midnightblue" stroke="midnightblue" points="543.725,-145.375 550.813,-137.501 540.361,-139.236 543.725,-145.375"/>
</g>
<!-- Node5&#45;&gt;Node2 -->
<g id="edge10" class="edge"><title>Node5&#45;&gt;Node2</title>
<path fill="none" stroke="midnightblue" d="M182.218,-174.498C136.807,-161.054 68.3459,-132.894 37.2226,-80 9.07375,-32.1606 100.697,-17.4877 158.544,-12.9886"/>
<polygon fill="midnightblue" stroke="midnightblue" points="158.835,-16.4768 168.565,-12.2832 158.344,-9.49409 158.835,-16.4768"/>
</g>
<!-- Node6 -->
<g id="node12" class="node"><title>Node6</title>
<a xlink:href="Event_8h.htm" target="_top" xlink:title="Event.h">
<polygon fill="white" stroke="black" points="200.223,-116.5 200.223,-137.5 252.223,-137.5 252.223,-116.5 200.223,-116.5"/>
<text text-anchor="middle" x="226.223" y="-124.5" font-family="Helvetica,sans-Serif" font-size="10.00">Event.h</text>
</a>
</g>
<!-- Node5&#45;&gt;Node6 -->
<g id="edge12" class="edge"><title>Node5&#45;&gt;Node6</title>
<path fill="none" stroke="midnightblue" d="M226.223,-174.362C226.223,-166.922 226.223,-156.743 226.223,-147.728"/>
<polygon fill="midnightblue" stroke="midnightblue" points="229.723,-147.571 226.223,-137.571 222.723,-147.571 229.723,-147.571"/>
</g>
<!-- Node6&#45;&gt;Node2 -->
<g id="edge14" class="edge"><title>Node6&#45;&gt;Node2</title>
<path fill="none" stroke="midnightblue" d="M200.026,-124.013C154.965,-118.277 65.8158,-104.105 47.2226,-80 15.2983,-38.6111 102.111,-21.4477 158.387,-14.8118"/>
<polygon fill="midnightblue" stroke="midnightblue" points="158.95,-18.271 168.504,-13.6918 158.18,-11.3135 158.95,-18.271"/>
</g>
<!-- Node7 -->
<g id="node15" class="node"><title>Node7</title>
<polygon fill="white" stroke="#bfbfbf" points="491.223,-58.5 491.223,-79.5 541.223,-79.5 541.223,-58.5 491.223,-58.5"/>
<text text-anchor="middle" x="516.223" y="-66.5" font-family="Helvetica,sans-Serif" font-size="10.00">stdint.h</text>
</g>
<!-- Node6&#45;&gt;Node7 -->
<g id="edge16" class="edge"><title>Node6&#45;&gt;Node7</title>
<path fill="none" stroke="midnightblue" d="M252.264,-123.375C297.177,-116.877 392.205,-102.048 481.359,-79.9823"/>
<polygon fill="midnightblue" stroke="midnightblue" points="482.232,-83.3718 491.079,-77.5415 480.527,-76.5826 482.232,-83.3718"/>
</g>
<!-- Node8 -->
<g id="node17" class="node"><title>Node8</title>
<polygon fill="white" stroke="#bfbfbf" points="431.723,-0.5 431.723,-21.5 472.723,-21.5 472.723,-0.5 431.723,-0.5"/>
<text text-anchor="middle" x="452.223" y="-8.5" font-family="Helvetica,sans-Serif" font-size="10.00">glib.h</text>
</g>
<!-- Node6&#45;&gt;Node8 -->
<g id="edge18" class="edge"><title>Node6&#45;&gt;Node8</title>
<path fill="none" stroke="midnightblue" d="M199.934,-124.198C148.772,-117.768 43.8843,-99.2184 80.2226,-58 102.722,-32.4791 336.558,-17.2968 421.556,-12.587"/>
<polygon fill="midnightblue" stroke="midnightblue" points="421.822,-16.0778 431.617,-12.0402 421.442,-9.08816 421.822,-16.0778"/>
</g>
<!-- Node9 -->
<g id="node19" class="node"><title>Node9</title>
<polygon fill="white" stroke="#bfbfbf" points="88.7226,-58.5 88.7226,-79.5 135.723,-79.5 135.723,-58.5 88.7226,-58.5"/>
<text text-anchor="middle" x="112.223" y="-66.5" font-family="Helvetica,sans-Serif" font-size="10.00">stdio.h</text>
</g>
<!-- Node6&#45;&gt;Node9 -->
<g id="edge20" class="edge"><title>Node6&#45;&gt;Node9</title>
<path fill="none" stroke="midnightblue" d="M205.578,-116.497C187.853,-107.479 162.078,-94.3649 142.1,-84.2006"/>
<polygon fill="midnightblue" stroke="midnightblue" points="143.599,-81.0364 133.099,-79.6212 140.424,-87.2753 143.599,-81.0364"/>
</g>
<!-- Node10 -->
<g id="node21" class="node"><title>Node10</title>
<polygon fill="white" stroke="#bfbfbf" points="152.723,-58.5 152.723,-79.5 203.723,-79.5 203.723,-58.5 152.723,-58.5"/>
<text text-anchor="middle" x="178.223" y="-66.5" font-family="Helvetica,sans-Serif" font-size="10.00">string.h</text>
</g>
<!-- Node6&#45;&gt;Node10 -->
<g id="edge22" class="edge"><title>Node6&#45;&gt;Node10</title>
<path fill="none" stroke="midnightblue" d="M217.419,-116.362C210.72,-108.268 201.339,-96.9318 193.433,-87.3796"/>
<polygon fill="midnightblue" stroke="midnightblue" points="196.043,-85.0431 186.971,-79.5707 190.65,-89.5061 196.043,-85.0431"/>
</g>
<!-- Node11 -->
<g id="node23" class="node"><title>Node11</title>
<polygon fill="white" stroke="#bfbfbf" points="221.223,-58.5 221.223,-79.5 307.223,-79.5 307.223,-58.5 221.223,-58.5"/>
<text text-anchor="middle" x="264.223" y="-66.5" font-family="Helvetica,sans-Serif" font-size="10.00">qnamespace.h</text>
</g>
<!-- Node6&#45;&gt;Node11 -->
<g id="edge24" class="edge"><title>Node6&#45;&gt;Node11</title>
<path fill="none" stroke="midnightblue" d="M233.192,-116.362C238.388,-108.431 245.623,-97.3885 251.8,-87.9606"/>
<polygon fill="midnightblue" stroke="midnightblue" points="254.744,-89.8534 257.297,-79.5707 248.889,-86.0172 254.744,-89.8534"/>
</g>
<!-- Node12 -->
<g id="node25" class="node"><title>Node12</title>
<polygon fill="white" stroke="#bfbfbf" points="325.223,-58.5 325.223,-79.5 413.223,-79.5 413.223,-58.5 325.223,-58.5"/>
<text text-anchor="middle" x="369.223" y="-66.5" font-family="Helvetica,sans-Serif" font-size="10.00">SysMgrEvent.h</text>
</g>
<!-- Node6&#45;&gt;Node12 -->
<g id="edge26" class="edge"><title>Node6&#45;&gt;Node12</title>
<path fill="none" stroke="midnightblue" d="M252.119,-116.497C274.856,-107.275 308.153,-93.7695 333.435,-83.5153"/>
<polygon fill="midnightblue" stroke="midnightblue" points="335.085,-86.6232 343.036,-79.6212 332.454,-80.1365 335.085,-86.6232"/>
</g>
<!-- Node13 -->
<g id="node27" class="node"><title>Node13</title>
<a xlink:href="sptr_8h.htm" target="_top" xlink:title="sptr.h">
<polygon fill="white" stroke="black" points="430.723,-58.5 430.723,-79.5 473.723,-79.5 473.723,-58.5 430.723,-58.5"/>
<text text-anchor="middle" x="452.223" y="-66.5" font-family="Helvetica,sans-Serif" font-size="10.00">sptr.h</text>
</a>
</g>
<!-- Node6&#45;&gt;Node13 -->
<g id="edge28" class="edge"><title>Node6&#45;&gt;Node13</title>
<path fill="none" stroke="midnightblue" d="M252.478,-121.718C288.553,-114.243 355.594,-99.5751 421.051,-80.1359"/>
<polygon fill="midnightblue" stroke="midnightblue" points="422.127,-83.4674 430.694,-77.2335 420.109,-76.7644 422.127,-83.4674"/>
</g>
<!-- Node13&#45;&gt;Node2 -->
<g id="edge30" class="edge"><title>Node13&#45;&gt;Node2</title>
<path fill="none" stroke="midnightblue" d="M430.713,-60.7009C427.878,-59.7286 424.994,-58.7998 422.223,-58 361.822,-40.5688 290.402,-26.4768 245.698,-18.4161"/>
<polygon fill="midnightblue" stroke="midnightblue" points="246.215,-14.9531 235.756,-16.6435 244.986,-21.8444 246.215,-14.9531"/>
</g>
<!-- Node13&#45;&gt;Node8 -->
<g id="edge32" class="edge"><title>Node13&#45;&gt;Node8</title>
<path fill="none" stroke="midnightblue" d="M452.223,-58.3619C452.223,-50.9219 452.223,-40.7427 452.223,-31.7276"/>
<polygon fill="midnightblue" stroke="midnightblue" points="455.723,-31.5706 452.223,-21.5707 448.723,-31.5707 455.723,-31.5706"/>
</g>
<!-- Node14&#45;&gt;Node2 -->
<g id="edge36" class="edge"><title>Node14&#45;&gt;Node2</title>
<path fill="none" stroke="midnightblue" d="M596.364,-60.724C591.966,-59.7248 587.494,-58.7828 583.223,-58 462.099,-35.8038 317.349,-21.1647 246.171,-14.7363"/>
<polygon fill="midnightblue" stroke="midnightblue" points="246.076,-11.214 235.804,-13.8113 245.453,-18.1863 246.076,-11.214"/>
</g>
<!-- Node14&#45;&gt;Node8 -->
<g id="edge44" class="edge"><title>Node14&#45;&gt;Node8</title>
<path fill="none" stroke="midnightblue" d="M596.35,-58.4966C563.993,-47.8333 514.259,-31.4438 482.491,-20.9747"/>
<polygon fill="midnightblue" stroke="midnightblue" points="483.446,-17.6043 472.852,-17.7985 481.255,-24.2526 483.446,-17.6043"/>
</g>
<!-- Node15 -->
<g id="node34" class="node"><title>Node15</title>
<polygon fill="white" stroke="#bfbfbf" points="516.723,-0.5 516.723,-21.5 559.723,-21.5 559.723,-0.5 516.723,-0.5"/>
<text text-anchor="middle" x="538.223" y="-8.5" font-family="Helvetica,sans-Serif" font-size="10.00">string</text>
</g>
<!-- Node14&#45;&gt;Node15 -->
<g id="edge38" class="edge"><title>Node14&#45;&gt;Node15</title>
<path fill="none" stroke="midnightblue" d="M611.715,-58.3619C598.141,-49.6138 578.689,-37.0786 563.208,-27.1015"/>
<polygon fill="midnightblue" stroke="midnightblue" points="564.927,-24.0457 554.625,-21.5707 561.135,-29.9297 564.927,-24.0457"/>
</g>
<!-- Node16 -->
<g id="node36" class="node"><title>Node16</title>
<polygon fill="white" stroke="#bfbfbf" points="577.223,-0.5 577.223,-21.5 623.223,-21.5 623.223,-0.5 577.223,-0.5"/>
<text text-anchor="middle" x="600.223" y="-8.5" font-family="Helvetica,sans-Serif" font-size="10.00">vector</text>
</g>
<!-- Node14&#45;&gt;Node16 -->
<g id="edge40" class="edge"><title>Node14&#45;&gt;Node16</title>
<path fill="none" stroke="midnightblue" d="M623.087,-58.3619C619.377,-50.6766 614.256,-40.0686 609.801,-30.8399"/>
<polygon fill="midnightblue" stroke="midnightblue" points="612.825,-29.0545 605.326,-21.5707 606.521,-32.0978 612.825,-29.0545"/>
</g>
<!-- Node17 -->
<g id="node38" class="node"><title>Node17</title>
<polygon fill="white" stroke="#bfbfbf" points="640.723,-0.5 640.723,-21.5 671.723,-21.5 671.723,-0.5 640.723,-0.5"/>
<text text-anchor="middle" x="656.223" y="-8.5" font-family="Helvetica,sans-Serif" font-size="10.00">set</text>
</g>
<!-- Node14&#45;&gt;Node17 -->
<g id="edge42" class="edge"><title>Node14&#45;&gt;Node17</title>
<path fill="none" stroke="midnightblue" d="M633.358,-58.3619C637.068,-50.6766 642.19,-40.0686 646.645,-30.8399"/>
<polygon fill="midnightblue" stroke="midnightblue" points="649.924,-32.0978 651.12,-21.5707 643.62,-29.0545 649.924,-32.0978"/>
</g>
<!-- Node18 -->
<g id="node41" class="node"><title>Node18</title>
<polygon fill="white" stroke="#bfbfbf" points="689.223,-0.5 689.223,-21.5 747.223,-21.5 747.223,-0.5 689.223,-0.5"/>
<text text-anchor="middle" x="718.223" y="-8.5" font-family="Helvetica,sans-Serif" font-size="10.00">QtGlobal</text>
</g>
<!-- Node14&#45;&gt;Node18 -->
<g id="edge46" class="edge"><title>Node14&#45;&gt;Node18</title>
<path fill="none" stroke="midnightblue" d="M644.73,-58.3619C658.305,-49.6138 677.756,-37.0786 693.238,-27.1015"/>
<polygon fill="midnightblue" stroke="midnightblue" points="695.31,-29.9297 701.82,-21.5707 691.518,-24.0457 695.31,-29.9297"/>
</g>
<!-- Node19&#45;&gt;Node2 -->
<g id="edge50" class="edge"><title>Node19&#45;&gt;Node2</title>
<path fill="none" stroke="midnightblue" d="M569.646,-116.258C569.615,-100.85 567.064,-72.7164 550.223,-58 527.646,-38.272 334.291,-21.1113 245.941,-14.2207"/>
<polygon fill="midnightblue" stroke="midnightblue" points="246.197,-10.7301 235.957,-13.451 245.659,-17.7094 246.197,-10.7301"/>
</g>
<!-- Node19&#45;&gt;Node7 -->
<g id="edge56" class="edge"><title>Node19&#45;&gt;Node7</title>
<path fill="none" stroke="midnightblue" d="M559.502,-116.362C552.031,-108.186 541.537,-96.7025 532.754,-87.0907"/>
<polygon fill="midnightblue" stroke="midnightblue" points="535.212,-84.5918 525.882,-79.5707 530.044,-89.3138 535.212,-84.5918"/>
</g>
<!-- Node20 -->
<g id="node46" class="node"><title>Node20</title>
<polygon fill="white" stroke="#bfbfbf" points="676.723,-58.5 676.723,-79.5 739.723,-79.5 739.723,-58.5 676.723,-58.5"/>
<text text-anchor="middle" x="708.223" y="-66.5" font-family="Helvetica,sans-Serif" font-size="10.00">sys/time.h</text>
</g>
<!-- Node19&#45;&gt;Node20 -->
<g id="edge52" class="edge"><title>Node19&#45;&gt;Node20</title>
<path fill="none" stroke="midnightblue" d="M593.435,-116.897C615.545,-107.671 648.488,-93.9253 673.419,-83.5225"/>
<polygon fill="midnightblue" stroke="midnightblue" points="674.998,-86.6559 682.879,-79.5749 672.303,-80.1957 674.998,-86.6559"/>
</g>
<!-- Node21 -->
<g id="node48" class="node"><title>Node21</title>
<polygon fill="white" stroke="#bfbfbf" points="757.223,-58.5 757.223,-79.5 801.223,-79.5 801.223,-58.5 757.223,-58.5"/>
<text text-anchor="middle" x="779.223" y="-66.5" font-family="Helvetica,sans-Serif" font-size="10.00">time.h</text>
</g>
<!-- Node19&#45;&gt;Node21 -->
<g id="edge54" class="edge"><title>Node19&#45;&gt;Node21</title>
<path fill="none" stroke="midnightblue" d="M593.435,-121.329C626.256,-113.494 686.851,-98.5106 747.257,-80.1348"/>
<polygon fill="midnightblue" stroke="midnightblue" points="748.416,-83.4404 756.947,-77.1571 746.36,-76.7493 748.416,-83.4404"/>
</g>
</g>
</svg>
