<?xml version="1.0" encoding="UTF-8" standalone="no"?>
<!DOCTYPE svg PUBLIC "-//W3C//DTD SVG 1.1//EN"
 "http://www.w3.org/Graphics/SVG/1.1/DTD/svg11.dtd">
<!-- Generated by graphviz version 2.26.3 (20100126.1600)
 -->
<!-- Title: G Pages: 1 -->
<svg width="723pt" height="262pt"
 viewBox="0.00 0.00 723.40 262.00" xmlns="http://www.w3.org/2000/svg" xmlns:xlink="http://www.w3.org/1999/xlink">
<g id="graph1" class="graph" transform="scale(1 1) rotate(0) translate(4 258)">
<title>G</title>
<polygon fill="white" stroke="white" points="-4,5 -4,-258 720.396,-258 720.396,5 -4,5"/>
<!-- Node1 -->
<g id="node1" class="node"><title>Node1</title>
<polygon fill="#bfbfbf" stroke="black" points="81.8961,-232.5 81.8961,-253.5 202.896,-253.5 202.896,-232.5 81.8961,-232.5"/>
<text text-anchor="middle" x="142.396" y="-240.5" font-family="Helvetica,sans-Serif" font-size="10.00">EventThrottlerIme.cpp</text>
</g>
<!-- Node2 -->
<g id="node3" class="node"><title>Node2</title>
<a xlink:href="Common_8h.htm" target="_top" xlink:title="Common.h">
<polygon fill="white" stroke="black" points="101.896,-0.5 101.896,-21.5 168.896,-21.5 168.896,-0.5 101.896,-0.5"/>
<text text-anchor="middle" x="135.396" y="-8.5" font-family="Helvetica,sans-Serif" font-size="10.00">Common.h</text>
</a>
</g>
<!-- Node1&#45;&gt;Node2 -->
<g id="edge2" class="edge"><title>Node1&#45;&gt;Node2</title>
<path fill="none" stroke="midnightblue" d="M125.364,-232.384C111.861,-223.537 92.9133,-210.139 78.3961,-196 34.415,-153.166 17.9101,-139.653 3.39605,-80 1.08446,-70.4994 -2.24026,-65.9898 3.39605,-58 13.9253,-43.0742 57.526,-29.4861 91.7737,-20.8026"/>
<polygon fill="midnightblue" stroke="midnightblue" points="92.7311,-24.1714 101.602,-18.3779 91.0542,-17.3752 92.7311,-24.1714"/>
</g>
<!-- Node3 -->
<g id="node5" class="node"><title>Node3</title>
<a xlink:href="EventThrottlerIme_8h.htm" target="_top" xlink:title="EventThrottlerIme.h">
<polygon fill="white" stroke="black" points="87.3961,-174.5 87.3961,-195.5 197.396,-195.5 197.396,-174.5 87.3961,-174.5"/>
<text text-anchor="middle" x="142.396" y="-182.5" font-family="Helvetica,sans-Serif" font-size="10.00">EventThrottlerIme.h</text>
</a>
</g>
<!-- Node1&#45;&gt;Node3 -->
<g id="edge4" class="edge"><title>Node1&#45;&gt;Node3</title>
<path fill="none" stroke="midnightblue" d="M142.396,-232.362C142.396,-224.922 142.396,-214.743 142.396,-205.728"/>
<polygon fill="midnightblue" stroke="midnightblue" points="145.896,-205.571 142.396,-195.571 138.896,-205.571 145.896,-205.571"/>
</g>
<!-- Node12 -->
<g id="node27" class="node"><title>Node12</title>
<a xlink:href="Settings_8h.htm" target="_top" xlink:title="Settings.h">
<polygon fill="white" stroke="black" points="564.896,-58.5 564.896,-79.5 627.896,-79.5 627.896,-58.5 564.896,-58.5"/>
<text text-anchor="middle" x="596.396" y="-66.5" font-family="Helvetica,sans-Serif" font-size="10.00">Settings.h</text>
</a>
</g>
<!-- Node1&#45;&gt;Node12 -->
<g id="edge30" class="edge"><title>Node1&#45;&gt;Node12</title>
<path fill="none" stroke="midnightblue" d="M170.112,-232.377C248.327,-202.401 470.819,-117.129 559.375,-83.1887"/>
<polygon fill="midnightblue" stroke="midnightblue" points="560.67,-86.4408 568.755,-79.5938 558.164,-79.9045 560.67,-86.4408"/>
</g>
<!-- Node3&#45;&gt;Node2 -->
<g id="edge6" class="edge"><title>Node3&#45;&gt;Node2</title>
<path fill="none" stroke="midnightblue" d="M118.609,-174.379C87.0875,-158.824 32.8496,-126.552 10.3961,-80 -7.2503,-43.4148 48.9084,-25.3949 91.6183,-17.1628"/>
<polygon fill="midnightblue" stroke="midnightblue" points="92.365,-20.5848 101.586,-15.3672 91.1239,-13.6957 92.365,-20.5848"/>
</g>
<!-- Node4 -->
<g id="node8" class="node"><title>Node4</title>
<a xlink:href="Event_8h.htm" target="_top" xlink:title="Event.h">
<polygon fill="white" stroke="black" points="222.396,-116.5 222.396,-137.5 274.396,-137.5 274.396,-116.5 222.396,-116.5"/>
<text text-anchor="middle" x="248.396" y="-124.5" font-family="Helvetica,sans-Serif" font-size="10.00">Event.h</text>
</a>
</g>
<!-- Node3&#45;&gt;Node4 -->
<g id="edge8" class="edge"><title>Node3&#45;&gt;Node4</title>
<path fill="none" stroke="midnightblue" d="M161.838,-174.362C178.2,-165.409 201.809,-152.491 220.24,-142.406"/>
<polygon fill="midnightblue" stroke="midnightblue" points="221.985,-145.441 229.077,-137.571 218.625,-139.3 221.985,-145.441"/>
</g>
<!-- Node4&#45;&gt;Node2 -->
<g id="edge10" class="edge"><title>Node4&#45;&gt;Node2</title>
<path fill="none" stroke="midnightblue" d="M222.332,-120.374C201.059,-113.646 171.773,-101.144 154.396,-80 143.206,-66.3842 138.583,-46.6737 136.685,-31.8025"/>
<polygon fill="midnightblue" stroke="midnightblue" points="140.141,-31.1745 135.702,-21.5547 133.173,-31.8434 140.141,-31.1745"/>
</g>
<!-- Node5 -->
<g id="node11" class="node"><title>Node5</title>
<polygon fill="white" stroke="#bfbfbf" points="223.396,-58.5 223.396,-79.5 273.396,-79.5 273.396,-58.5 223.396,-58.5"/>
<text text-anchor="middle" x="248.396" y="-66.5" font-family="Helvetica,sans-Serif" font-size="10.00">stdint.h</text>
</g>
<!-- Node4&#45;&gt;Node5 -->
<g id="edge12" class="edge"><title>Node4&#45;&gt;Node5</title>
<path fill="none" stroke="midnightblue" d="M248.396,-116.362C248.396,-108.922 248.396,-98.7427 248.396,-89.7276"/>
<polygon fill="midnightblue" stroke="midnightblue" points="251.896,-89.5706 248.396,-79.5707 244.896,-89.5707 251.896,-89.5706"/>
</g>
<!-- Node6 -->
<g id="node13" class="node"><title>Node6</title>
<polygon fill="white" stroke="#bfbfbf" points="344.896,-0.5 344.896,-21.5 385.896,-21.5 385.896,-0.5 344.896,-0.5"/>
<text text-anchor="middle" x="365.396" y="-8.5" font-family="Helvetica,sans-Serif" font-size="10.00">glib.h</text>
</g>
<!-- Node4&#45;&gt;Node6 -->
<g id="edge14" class="edge"><title>Node4&#45;&gt;Node6</title>
<path fill="none" stroke="midnightblue" d="M274.67,-120.928C296.903,-114.451 328.003,-102.008 346.396,-80 357.698,-66.4768 362.309,-46.7563 364.173,-31.8577"/>
<polygon fill="midnightblue" stroke="midnightblue" points="367.687,-31.8684 365.129,-21.587 360.717,-31.2196 367.687,-31.8684"/>
</g>
<!-- Node7 -->
<g id="node15" class="node"><title>Node7</title>
<polygon fill="white" stroke="#bfbfbf" points="290.896,-58.5 290.896,-79.5 337.896,-79.5 337.896,-58.5 290.896,-58.5"/>
<text text-anchor="middle" x="314.396" y="-66.5" font-family="Helvetica,sans-Serif" font-size="10.00">stdio.h</text>
</g>
<!-- Node4&#45;&gt;Node7 -->
<g id="edge16" class="edge"><title>Node4&#45;&gt;Node7</title>
<path fill="none" stroke="midnightblue" d="M260.501,-116.362C270.084,-107.941 283.66,-96.0105 294.789,-86.2308"/>
<polygon fill="midnightblue" stroke="midnightblue" points="297.166,-88.8009 302.367,-79.5707 292.545,-83.5427 297.166,-88.8009"/>
</g>
<!-- Node8 -->
<g id="node17" class="node"><title>Node8</title>
<polygon fill="white" stroke="#bfbfbf" points="392.896,-58.5 392.896,-79.5 443.896,-79.5 443.896,-58.5 392.896,-58.5"/>
<text text-anchor="middle" x="418.396" y="-66.5" font-family="Helvetica,sans-Serif" font-size="10.00">string.h</text>
</g>
<!-- Node4&#45;&gt;Node8 -->
<g id="edge18" class="edge"><title>Node4&#45;&gt;Node8</title>
<path fill="none" stroke="midnightblue" d="M274.586,-118.065C303.706,-108.13 350.888,-92.032 383.214,-81.0032"/>
<polygon fill="midnightblue" stroke="midnightblue" points="384.399,-84.2972 392.733,-77.7556 382.139,-77.6721 384.399,-84.2972"/>
</g>
<!-- Node9 -->
<g id="node19" class="node"><title>Node9</title>
<polygon fill="white" stroke="#bfbfbf" points="461.396,-58.5 461.396,-79.5 547.396,-79.5 547.396,-58.5 461.396,-58.5"/>
<text text-anchor="middle" x="504.396" y="-66.5" font-family="Helvetica,sans-Serif" font-size="10.00">qnamespace.h</text>
</g>
<!-- Node4&#45;&gt;Node9 -->
<g id="edge20" class="edge"><title>Node4&#45;&gt;Node9</title>
<path fill="none" stroke="midnightblue" d="M274.828,-121.011C316.233,-111.631 397.211,-93.2841 451.068,-81.0821"/>
<polygon fill="midnightblue" stroke="midnightblue" points="452.146,-84.4267 461.125,-78.8035 450.599,-77.5997 452.146,-84.4267"/>
</g>
<!-- Node10 -->
<g id="node21" class="node"><title>Node10</title>
<polygon fill="white" stroke="#bfbfbf" points="19.3961,-58.5 19.3961,-79.5 107.396,-79.5 107.396,-58.5 19.3961,-58.5"/>
<text text-anchor="middle" x="63.3961" y="-66.5" font-family="Helvetica,sans-Serif" font-size="10.00">SysMgrEvent.h</text>
</g>
<!-- Node4&#45;&gt;Node10 -->
<g id="edge22" class="edge"><title>Node4&#45;&gt;Node10</title>
<path fill="none" stroke="midnightblue" d="M222.282,-118.813C192.239,-109.394 142.448,-93.7837 106.605,-82.5465"/>
<polygon fill="midnightblue" stroke="midnightblue" points="107.482,-79.1537 96.8931,-79.5018 105.388,-85.8331 107.482,-79.1537"/>
</g>
<!-- Node11 -->
<g id="node23" class="node"><title>Node11</title>
<a xlink:href="sptr_8h.htm" target="_top" xlink:title="sptr.h">
<polygon fill="white" stroke="black" points="162.896,-58.5 162.896,-79.5 205.896,-79.5 205.896,-58.5 162.896,-58.5"/>
<text text-anchor="middle" x="184.396" y="-66.5" font-family="Helvetica,sans-Serif" font-size="10.00">sptr.h</text>
</a>
</g>
<!-- Node4&#45;&gt;Node11 -->
<g id="edge24" class="edge"><title>Node4&#45;&gt;Node11</title>
<path fill="none" stroke="midnightblue" d="M236.657,-116.362C227.455,-108.023 214.456,-96.2418 203.724,-86.5162"/>
<polygon fill="midnightblue" stroke="midnightblue" points="205.82,-83.6924 196.06,-79.5707 201.12,-88.8793 205.82,-83.6924"/>
</g>
<!-- Node11&#45;&gt;Node2 -->
<g id="edge26" class="edge"><title>Node11&#45;&gt;Node2</title>
<path fill="none" stroke="midnightblue" d="M175.409,-58.3619C168.571,-50.2678 158.994,-38.9318 150.924,-29.3796"/>
<polygon fill="midnightblue" stroke="midnightblue" points="153.454,-26.9508 144.326,-21.5707 148.106,-31.4683 153.454,-26.9508"/>
</g>
<!-- Node11&#45;&gt;Node6 -->
<g id="edge28" class="edge"><title>Node11&#45;&gt;Node6</title>
<path fill="none" stroke="midnightblue" d="M205.981,-60.9402C208.804,-59.9288 211.664,-58.9255 214.396,-58 255.983,-43.9133 304.538,-29.0849 335.127,-19.9388"/>
<polygon fill="midnightblue" stroke="midnightblue" points="336.191,-23.2738 344.776,-17.0641 334.193,-16.5652 336.191,-23.2738"/>
</g>
<!-- Node12&#45;&gt;Node2 -->
<g id="edge32" class="edge"><title>Node12&#45;&gt;Node2</title>
<path fill="none" stroke="midnightblue" d="M564.626,-59.7783C561.855,-59.1216 559.084,-58.5163 556.396,-58 420.161,-31.8315 256.122,-18.7094 179.217,-13.615"/>
<polygon fill="midnightblue" stroke="midnightblue" points="179.161,-10.1041 168.956,-12.9489 178.708,-17.0894 179.161,-10.1041"/>
</g>
<!-- Node12&#45;&gt;Node6 -->
<g id="edge40" class="edge"><title>Node12&#45;&gt;Node6</title>
<path fill="none" stroke="midnightblue" d="M564.54,-60.156C561.788,-59.4173 559.045,-58.6899 556.396,-58 499.91,-43.2863 433.704,-27.2678 395.94,-18.2465"/>
<polygon fill="midnightblue" stroke="midnightblue" points="396.614,-14.8091 386.075,-15.8944 394.991,-21.6182 396.614,-14.8091"/>
</g>
<!-- Node13 -->
<g id="node30" class="node"><title>Node13</title>
<polygon fill="white" stroke="#bfbfbf" points="608.896,-0.5 608.896,-21.5 651.896,-21.5 651.896,-0.5 608.896,-0.5"/>
<text text-anchor="middle" x="630.396" y="-8.5" font-family="Helvetica,sans-Serif" font-size="10.00">string</text>
</g>
<!-- Node12&#45;&gt;Node13 -->
<g id="edge34" class="edge"><title>Node12&#45;&gt;Node13</title>
<path fill="none" stroke="midnightblue" d="M602.632,-58.3619C607.233,-50.5131 613.621,-39.6159 619.11,-30.2527"/>
<polygon fill="midnightblue" stroke="midnightblue" points="622.162,-31.9677 624.199,-21.5707 616.123,-28.4276 622.162,-31.9677"/>
</g>
<!-- Node14 -->
<g id="node32" class="node"><title>Node14</title>
<polygon fill="white" stroke="#bfbfbf" points="669.396,-0.5 669.396,-21.5 715.396,-21.5 715.396,-0.5 669.396,-0.5"/>
<text text-anchor="middle" x="692.396" y="-8.5" font-family="Helvetica,sans-Serif" font-size="10.00">vector</text>
</g>
<!-- Node12&#45;&gt;Node14 -->
<g id="edge36" class="edge"><title>Node12&#45;&gt;Node14</title>
<path fill="none" stroke="midnightblue" d="M614.004,-58.3619C628.619,-49.532 649.62,-36.844 666.207,-26.8224"/>
<polygon fill="midnightblue" stroke="midnightblue" points="668.151,-29.7376 674.9,-21.5707 664.531,-23.7461 668.151,-29.7376"/>
</g>
<!-- Node15 -->
<g id="node34" class="node"><title>Node15</title>
<polygon fill="white" stroke="#bfbfbf" points="484.896,-0.5 484.896,-21.5 515.896,-21.5 515.896,-0.5 484.896,-0.5"/>
<text text-anchor="middle" x="500.396" y="-8.5" font-family="Helvetica,sans-Serif" font-size="10.00">set</text>
</g>
<!-- Node12&#45;&gt;Node15 -->
<g id="edge38" class="edge"><title>Node12&#45;&gt;Node15</title>
<path fill="none" stroke="midnightblue" d="M578.788,-58.3619C563.625,-49.2009 541.588,-35.8869 524.738,-25.7066"/>
<polygon fill="midnightblue" stroke="midnightblue" points="526.356,-22.595 515.987,-20.4195 522.736,-28.5864 526.356,-22.595"/>
</g>
<!-- Node16 -->
<g id="node37" class="node"><title>Node16</title>
<polygon fill="white" stroke="#bfbfbf" points="533.396,-0.5 533.396,-21.5 591.396,-21.5 591.396,-0.5 533.396,-0.5"/>
<text text-anchor="middle" x="562.396" y="-8.5" font-family="Helvetica,sans-Serif" font-size="10.00">QtGlobal</text>
</g>
<!-- Node12&#45;&gt;Node16 -->
<g id="edge42" class="edge"><title>Node12&#45;&gt;Node16</title>
<path fill="none" stroke="midnightblue" d="M590.16,-58.3619C585.559,-50.5131 579.171,-39.6159 573.682,-30.2527"/>
<polygon fill="midnightblue" stroke="midnightblue" points="576.669,-28.4276 568.593,-21.5707 570.63,-31.9677 576.669,-28.4276"/>
</g>
</g>
</svg>
