<?xml version="1.0" encoding="UTF-8" standalone="no"?>
<!DOCTYPE svg PUBLIC "-//W3C//DTD SVG 1.1//EN"
 "http://www.w3.org/Graphics/SVG/1.1/DTD/svg11.dtd">
<!-- Generated by graphviz version 2.26.3 (20100126.1600)
 -->
<!-- Title: G Pages: 1 -->
<svg width="918pt" height="88pt"
 viewBox="0.00 0.00 918.00 88.00" xmlns="http://www.w3.org/2000/svg" xmlns:xlink="http://www.w3.org/1999/xlink">
<g id="graph1" class="graph" transform="scale(1 1) rotate(0) translate(4 84)">
<title>G</title>
<polygon fill="white" stroke="white" points="-4,5 -4,-84 915,-84 915,5 -4,5"/>
<!-- Node1 -->
<g id="node1" class="node"><title>Node1</title>
<polygon fill="#bfbfbf" stroke="black" points="417,-58.5 417,-79.5 511,-79.5 511,-58.5 417,-58.5"/>
<text text-anchor="middle" x="464" y="-66.5" font-family="Helvetica,sans-Serif" font-size="10.00">EventReporter.h</text>
</g>
<!-- Node2 -->
<g id="node3" class="node"><title>Node2</title>
<a xlink:href="ApplicationInstaller_8cpp.htm" target="_top" xlink:title="ApplicationInstaller.cpp">
<polygon fill="white" stroke="black" points="-0.5,-0.5 -0.5,-21.5 124.5,-21.5 124.5,-0.5 -0.5,-0.5"/>
<text text-anchor="middle" x="62" y="-8.5" font-family="Helvetica,sans-Serif" font-size="10.00">ApplicationInstaller.cpp</text>
</a>
</g>
<!-- Node1&#45;&gt;Node2 -->
<g id="edge2" class="edge"><title>Node1&#45;&gt;Node2</title>
<path fill="none" stroke="midnightblue" d="M406.637,-61.0793C340.607,-51.9096 228.915,-36.2391 133,-22 130.286,-21.597 127.513,-21.1821 124.713,-20.7602"/>
<polygon fill="midnightblue" stroke="midnightblue" points="406.447,-64.5863 416.833,-62.4939 407.409,-57.6527 406.447,-64.5863"/>
</g>
<!-- Node3 -->
<g id="node5" class="node"><title>Node3</title>
<a xlink:href="ApplicationManager_8cpp.htm" target="_top" xlink:title="ApplicationManager.cpp">
<polygon fill="white" stroke="black" points="141.5,-0.5 141.5,-21.5 272.5,-21.5 272.5,-0.5 141.5,-0.5"/>
<text text-anchor="middle" x="207" y="-8.5" font-family="Helvetica,sans-Serif" font-size="10.00">ApplicationManager.cpp</text>
</a>
</g>
<!-- Node1&#45;&gt;Node3 -->
<g id="edge4" class="edge"><title>Node1&#45;&gt;Node3</title>
<path fill="none" stroke="midnightblue" d="M407.609,-56.2737C361.443,-45.8548 296.915,-31.2921 253.628,-21.5231"/>
<polygon fill="midnightblue" stroke="midnightblue" points="406.934,-59.7093 417.459,-58.4966 408.475,-52.881 406.934,-59.7093"/>
</g>
<!-- Node4 -->
<g id="node7" class="node"><title>Node4</title>
<a xlink:href="EventReporter_8cpp.htm" target="_top" xlink:title="EventReporter.cpp">
<polygon fill="white" stroke="black" points="289.5,-0.5 289.5,-21.5 394.5,-21.5 394.5,-0.5 289.5,-0.5"/>
<text text-anchor="middle" x="342" y="-8.5" font-family="Helvetica,sans-Serif" font-size="10.00">EventReporter.cpp</text>
</a>
</g>
<!-- Node1&#45;&gt;Node4 -->
<g id="edge6" class="edge"><title>Node1&#45;&gt;Node4</title>
<path fill="none" stroke="midnightblue" d="M432.594,-54.0693C411.229,-43.9121 383.471,-30.7157 364.341,-21.6212"/>
<polygon fill="midnightblue" stroke="midnightblue" points="431.373,-57.364 441.907,-58.4966 434.378,-51.042 431.373,-57.364"/>
</g>
<!-- Node5 -->
<g id="node9" class="node"><title>Node5</title>
<a xlink:href="WindowServer_8cpp.htm" target="_top" xlink:title="WindowServer.cpp">
<polygon fill="white" stroke="black" points="411.5,-0.5 411.5,-21.5 516.5,-21.5 516.5,-0.5 411.5,-0.5"/>
<text text-anchor="middle" x="464" y="-8.5" font-family="Helvetica,sans-Serif" font-size="10.00">WindowServer.cpp</text>
</a>
</g>
<!-- Node1&#45;&gt;Node5 -->
<g id="edge8" class="edge"><title>Node1&#45;&gt;Node5</title>
<path fill="none" stroke="midnightblue" d="M464,-48.1906C464,-39.1684 464,-28.9941 464,-21.5707"/>
<polygon fill="midnightblue" stroke="midnightblue" points="460.5,-48.3619 464,-58.3619 467.5,-48.3619 460.5,-48.3619"/>
</g>
<!-- Node6 -->
<g id="node11" class="node"><title>Node6</title>
<a xlink:href="CardWebApp_8cpp.htm" target="_top" xlink:title="CardWebApp.cpp">
<polygon fill="white" stroke="black" points="533.5,-0.5 533.5,-21.5 632.5,-21.5 632.5,-0.5 533.5,-0.5"/>
<text text-anchor="middle" x="583" y="-8.5" font-family="Helvetica,sans-Serif" font-size="10.00">CardWebApp.cpp</text>
</a>
</g>
<!-- Node1&#45;&gt;Node6 -->
<g id="edge10" class="edge"><title>Node1&#45;&gt;Node6</title>
<path fill="none" stroke="midnightblue" d="M494.634,-54.0693C515.474,-43.9121 542.549,-30.7157 561.208,-21.6212"/>
<polygon fill="midnightblue" stroke="midnightblue" points="493.006,-50.9691 485.55,-58.4966 496.073,-57.2615 493.006,-50.9691"/>
</g>
<!-- Node7 -->
<g id="node13" class="node"><title>Node7</title>
<a xlink:href="WebAppManager_8cpp.htm" target="_top" xlink:title="WebAppManager.cpp">
<polygon fill="white" stroke="black" points="649.5,-0.5 649.5,-21.5 768.5,-21.5 768.5,-0.5 649.5,-0.5"/>
<text text-anchor="middle" x="709" y="-8.5" font-family="Helvetica,sans-Serif" font-size="10.00">WebAppManager.cpp</text>
</a>
</g>
<!-- Node1&#45;&gt;Node7 -->
<g id="edge12" class="edge"><title>Node1&#45;&gt;Node7</title>
<path fill="none" stroke="midnightblue" d="M518.312,-56.1424C562.284,-45.7328 623.456,-31.2511 664.549,-21.5231"/>
<polygon fill="midnightblue" stroke="midnightblue" points="517.292,-52.787 508.368,-58.4966 518.905,-59.5988 517.292,-52.787"/>
</g>
<!-- Node8 -->
<g id="node15" class="node"><title>Node8</title>
<a xlink:href="WindowedWebApp_8cpp.htm" target="_top" xlink:title="WindowedWebApp.cpp">
<polygon fill="white" stroke="black" points="785.5,-0.5 785.5,-21.5 910.5,-21.5 910.5,-0.5 785.5,-0.5"/>
<text text-anchor="middle" x="848" y="-8.5" font-family="Helvetica,sans-Serif" font-size="10.00">WindowedWebApp.cpp</text>
</a>
</g>
<!-- Node1&#45;&gt;Node8 -->
<g id="edge14" class="edge"><title>Node1&#45;&gt;Node8</title>
<path fill="none" stroke="midnightblue" d="M521.298,-60.4779C584.072,-51.1225 687.723,-35.6187 777,-22 779.713,-21.5862 782.484,-21.1623 785.283,-20.733"/>
<polygon fill="midnightblue" stroke="midnightblue" points="520.579,-57.0463 511.204,-61.9818 521.611,-63.9699 520.579,-57.0463"/>
</g>
</g>
</svg>
