<?xml version="1.0" encoding="UTF-8" standalone="no"?>
<!DOCTYPE svg PUBLIC "-//W3C//DTD SVG 1.1//EN"
 "http://www.w3.org/Graphics/SVG/1.1/DTD/svg11.dtd">
<!-- Generated by graphviz version 2.26.3 (20100126.1600)
 -->
<!-- Title: G Pages: 1 -->
<svg width="3378pt" height="146pt"
 viewBox="0.00 0.00 3378.00 146.00" xmlns="http://www.w3.org/2000/svg" xmlns:xlink="http://www.w3.org/1999/xlink">
<g id="graph1" class="graph" transform="scale(1 1) rotate(0) translate(4 142)">
<title>G</title>
<polygon fill="white" stroke="white" points="-4,5 -4,-142 3375,-142 3375,5 -4,5"/>
<!-- Node1 -->
<g id="node1" class="node"><title>Node1</title>
<polygon fill="#bfbfbf" stroke="black" points="1707.5,-116.5 1707.5,-137.5 1790.5,-137.5 1790.5,-116.5 1707.5,-116.5"/>
<text text-anchor="middle" x="1749" y="-124.5" font-family="Helvetica,sans-Serif" font-size="10.00">FlickGesture.h</text>
</g>
<!-- Node2 -->
<g id="node3" class="node"><title>Node2</title>
<a xlink:href="FlickGestureRecognizer_8cpp.htm" target="_top" xlink:title="FlickGestureRecognizer.cpp">
<polygon fill="white" stroke="black" points="-0.5,-58.5 -0.5,-79.5 148.5,-79.5 148.5,-58.5 -0.5,-58.5"/>
<text text-anchor="middle" x="74" y="-66.5" font-family="Helvetica,sans-Serif" font-size="10.00">FlickGestureRecognizer.cpp</text>
</a>
</g>
<!-- Node1&#45;&gt;Node2 -->
<g id="edge2" class="edge"><title>Node1&#45;&gt;Node2</title>
<path fill="none" stroke="midnightblue" d="M1697.18,-126.184C1458.87,-122.323 466.594,-105.019 157,-80 154.247,-79.7775 151.446,-79.5275 148.618,-79.2552"/>
<polygon fill="midnightblue" stroke="midnightblue" points="1697.25,-129.686 1707.31,-126.347 1697.37,-122.687 1697.25,-129.686"/>
</g>
<!-- Node3 -->
<g id="node5" class="node"><title>Node3</title>
<a xlink:href="HostQtDesktop_8cpp.htm" target="_top" xlink:title="HostQtDesktop.cpp">
<polygon fill="white" stroke="black" points="166,-58.5 166,-79.5 274,-79.5 274,-58.5 166,-58.5"/>
<text text-anchor="middle" x="220" y="-66.5" font-family="Helvetica,sans-Serif" font-size="10.00">HostQtDesktop.cpp</text>
</a>
</g>
<!-- Node1&#45;&gt;Node3 -->
<g id="edge4" class="edge"><title>Node1&#45;&gt;Node3</title>
<path fill="none" stroke="midnightblue" d="M1696.91,-126.315C1469.9,-123.177 565.702,-109.066 283,-80 280.128,-79.7048 277.19,-79.356 274.229,-78.9677"/>
<polygon fill="midnightblue" stroke="midnightblue" points="1697.16,-129.818 1707.21,-126.456 1697.25,-122.819 1697.16,-129.818"/>
</g>
<!-- Node4 -->
<g id="node7" class="node"><title>Node4</title>
<a xlink:href="IMEView_8cpp.htm" target="_top" xlink:title="IMEView.cpp">
<polygon fill="white" stroke="black" points="291.5,-58.5 291.5,-79.5 368.5,-79.5 368.5,-58.5 291.5,-58.5"/>
<text text-anchor="middle" x="330" y="-66.5" font-family="Helvetica,sans-Serif" font-size="10.00">IMEView.cpp</text>
</a>
</g>
<!-- Node1&#45;&gt;Node4 -->
<g id="edge6" class="edge"><title>Node1&#45;&gt;Node4</title>
<path fill="none" stroke="midnightblue" d="M1697.03,-126.58C1479.27,-124.609 639.38,-114.856 377,-80 374.259,-79.6358 371.443,-79.1827 368.618,-78.6697"/>
<polygon fill="midnightblue" stroke="midnightblue" points="1697.2,-130.081 1707.23,-126.67 1697.26,-123.081 1697.2,-130.081"/>
</g>
<!-- Node5 -->
<g id="node9" class="node"><title>Node5</title>
<a xlink:href="hiddtp__qws_8h.htm" target="_top" xlink:title="hiddtp_qws.h">
<polygon fill="white" stroke="black" points="385.5,-58.5 385.5,-79.5 464.5,-79.5 464.5,-58.5 385.5,-58.5"/>
<text text-anchor="middle" x="425" y="-66.5" font-family="Helvetica,sans-Serif" font-size="10.00">hiddtp_qws.h</text>
</a>
</g>
<!-- Node1&#45;&gt;Node5 -->
<g id="edge8" class="edge"><title>Node1&#45;&gt;Node5</title>
<path fill="none" stroke="midnightblue" d="M1697.29,-126.396C1489.62,-123.768 715.739,-111.994 473,-80 470.288,-79.6425 467.503,-79.2025 464.708,-78.7062"/>
<polygon fill="midnightblue" stroke="midnightblue" points="1697.28,-129.896 1707.32,-126.521 1697.37,-122.896 1697.28,-129.896"/>
</g>
<!-- Node8 -->
<g id="node15" class="node"><title>Node8</title>
<a xlink:href="CardWindow_8cpp.htm" target="_top" xlink:title="CardWindow.cpp">
<polygon fill="white" stroke="black" points="481.5,-58.5 481.5,-79.5 578.5,-79.5 578.5,-58.5 481.5,-58.5"/>
<text text-anchor="middle" x="530" y="-66.5" font-family="Helvetica,sans-Serif" font-size="10.00">CardWindow.cpp</text>
</a>
</g>
<!-- Node1&#45;&gt;Node8 -->
<g id="edge14" class="edge"><title>Node1&#45;&gt;Node8</title>
<path fill="none" stroke="midnightblue" d="M1697.17,-125.94C1501.37,-121.775 806.688,-105.495 587,-80 584.297,-79.6863 581.53,-79.3164 578.743,-78.9057"/>
<polygon fill="midnightblue" stroke="midnightblue" points="1697.13,-129.44 1707.2,-126.152 1697.28,-122.441 1697.13,-129.44"/>
</g>
<!-- Node9 -->
<g id="node17" class="node"><title>Node9</title>
<a xlink:href="CardWindowManager_8cpp.htm" target="_top" xlink:title="CardWindowManager.cpp">
<polygon fill="white" stroke="black" points="596,-58.5 596,-79.5 736,-79.5 736,-58.5 596,-58.5"/>
<text text-anchor="middle" x="666" y="-66.5" font-family="Helvetica,sans-Serif" font-size="10.00">CardWindowManager.cpp</text>
</a>
</g>
<!-- Node1&#45;&gt;Node9 -->
<g id="edge16" class="edge"><title>Node1&#45;&gt;Node9</title>
<path fill="none" stroke="midnightblue" d="M1697.11,-126.246C1548.49,-123.726 1108.53,-113.747 745,-80 742.104,-79.7312 739.152,-79.4325 736.172,-79.1106"/>
<polygon fill="midnightblue" stroke="midnightblue" points="1697.25,-129.749 1707.3,-126.415 1697.36,-122.75 1697.25,-129.749"/>
</g>
<!-- Node10 -->
<g id="node19" class="node"><title>Node10</title>
<a xlink:href="VirtualGestureStrip_8cpp.htm" target="_top" xlink:title="VirtualGestureStrip.cpp">
<polygon fill="white" stroke="black" points="753.5,-58.5 753.5,-79.5 878.5,-79.5 878.5,-58.5 753.5,-58.5"/>
<text text-anchor="middle" x="816" y="-66.5" font-family="Helvetica,sans-Serif" font-size="10.00">VirtualGestureStrip.cpp</text>
</a>
</g>
<!-- Node1&#45;&gt;Node10 -->
<g id="edge18" class="edge"><title>Node1&#45;&gt;Node10</title>
<path fill="none" stroke="midnightblue" d="M1697.17,-125.966C1562.95,-122.901 1193.18,-111.985 887,-80 884.271,-79.7149 881.486,-79.3975 878.676,-79.0556"/>
<polygon fill="midnightblue" stroke="midnightblue" points="1697.1,-129.465 1707.17,-126.19 1697.25,-122.467 1697.1,-129.465"/>
</g>
<!-- Node11 -->
<g id="node21" class="node"><title>Node11</title>
<a xlink:href="DockModeMenuManager_8cpp.htm" target="_top" xlink:title="DockModeMenuManager.cpp">
<polygon fill="white" stroke="black" points="896,-58.5 896,-79.5 1052,-79.5 1052,-58.5 896,-58.5"/>
<text text-anchor="middle" x="974" y="-66.5" font-family="Helvetica,sans-Serif" font-size="10.00">DockModeMenuManager.cpp</text>
</a>
</g>
<!-- Node1&#45;&gt;Node11 -->
<g id="edge20" class="edge"><title>Node1&#45;&gt;Node11</title>
<path fill="none" stroke="midnightblue" d="M1697.19,-124.482C1582.43,-118.68 1298.17,-103.075 1061,-80 1058.12,-79.7199 1055.19,-79.4208 1052.23,-79.107"/>
<polygon fill="midnightblue" stroke="midnightblue" points="1697.28,-127.99 1707.44,-124.997 1697.63,-120.999 1697.28,-127.99"/>
</g>
<!-- Node12 -->
<g id="node23" class="node"><title>Node12</title>
<a xlink:href="DockModeWindow_8cpp.htm" target="_top" xlink:title="DockModeWindow.cpp">
<polygon fill="white" stroke="black" points="1069.5,-58.5 1069.5,-79.5 1194.5,-79.5 1194.5,-58.5 1069.5,-58.5"/>
<text text-anchor="middle" x="1132" y="-66.5" font-family="Helvetica,sans-Serif" font-size="10.00">DockModeWindow.cpp</text>
</a>
</g>
<!-- Node1&#45;&gt;Node12 -->
<g id="edge22" class="edge"><title>Node1&#45;&gt;Node12</title>
<path fill="none" stroke="midnightblue" d="M1697.33,-123.726C1600.27,-117.314 1384.14,-101.803 1203,-80 1200.28,-79.6721 1197.49,-79.3193 1194.69,-78.9483"/>
<polygon fill="midnightblue" stroke="midnightblue" points="1697.25,-127.228 1707.46,-124.39 1697.71,-120.243 1697.25,-127.228"/>
</g>
<!-- Node13 -->
<g id="node25" class="node"><title>Node13</title>
<a xlink:href="EmergencyWindowManager_8cpp.htm" target="_top" xlink:title="EmergencyWindowManager.cpp">
<polygon fill="white" stroke="black" points="1212,-58.5 1212,-79.5 1382,-79.5 1382,-58.5 1212,-58.5"/>
<text text-anchor="middle" x="1297" y="-66.5" font-family="Helvetica,sans-Serif" font-size="10.00">EmergencyWindowManager.cpp</text>
</a>
</g>
<!-- Node1&#45;&gt;Node13 -->
<g id="edge24" class="edge"><title>Node1&#45;&gt;Node13</title>
<path fill="none" stroke="midnightblue" d="M1697.25,-120.359C1619.5,-110.383 1471.82,-91.4322 1379.21,-79.5496"/>
<polygon fill="midnightblue" stroke="midnightblue" points="1696.92,-123.846 1707.29,-121.647 1697.81,-116.903 1696.92,-123.846"/>
</g>
<!-- Node14 -->
<g id="node27" class="node"><title>Node14</title>
<a xlink:href="GraphicsItemContainer_8cpp.htm" target="_top" xlink:title="GraphicsItemContainer.cpp">
<polygon fill="white" stroke="black" points="1400,-58.5 1400,-79.5 1546,-79.5 1546,-58.5 1400,-58.5"/>
<text text-anchor="middle" x="1473" y="-66.5" font-family="Helvetica,sans-Serif" font-size="10.00">GraphicsItemContainer.cpp</text>
</a>
</g>
<!-- Node1&#45;&gt;Node14 -->
<g id="edge26" class="edge"><title>Node1&#45;&gt;Node14</title>
<path fill="none" stroke="midnightblue" d="M1697.47,-116.171C1647.7,-105.711 1572.79,-89.9699 1523.4,-79.5913"/>
<polygon fill="midnightblue" stroke="midnightblue" points="1696.88,-119.623 1707.38,-118.254 1698.31,-112.772 1696.88,-119.623"/>
</g>
<!-- Node15 -->
<g id="node29" class="node"><title>Node15</title>
<a xlink:href="dimensionslauncher_8cpp.htm" target="_top" xlink:title="dimensionslauncher.cpp">
<polygon fill="white" stroke="black" points="1564,-58.5 1564,-79.5 1694,-79.5 1694,-58.5 1564,-58.5"/>
<text text-anchor="middle" x="1629" y="-66.5" font-family="Helvetica,sans-Serif" font-size="10.00">dimensionslauncher.cpp</text>
</a>
</g>
<!-- Node1&#45;&gt;Node15 -->
<g id="edge28" class="edge"><title>Node1&#45;&gt;Node15</title>
<path fill="none" stroke="midnightblue" d="M1718.11,-112.069C1697.09,-101.912 1669.79,-88.7157 1650.97,-79.6212"/>
<polygon fill="midnightblue" stroke="midnightblue" points="1716.74,-115.296 1727.27,-116.497 1719.79,-108.994 1716.74,-115.296"/>
</g>
<!-- Node16 -->
<g id="node31" class="node"><title>Node16</title>
<a xlink:href="pagetab_8cpp.htm" target="_top" xlink:title="pagetab.cpp">
<polygon fill="white" stroke="black" points="1712,-58.5 1712,-79.5 1786,-79.5 1786,-58.5 1712,-58.5"/>
<text text-anchor="middle" x="1749" y="-66.5" font-family="Helvetica,sans-Serif" font-size="10.00">pagetab.cpp</text>
</a>
</g>
<!-- Node1&#45;&gt;Node16 -->
<g id="edge30" class="edge"><title>Node1&#45;&gt;Node16</title>
<path fill="none" stroke="midnightblue" d="M1749,-106.191C1749,-97.1684 1749,-86.9941 1749,-79.5707"/>
<polygon fill="midnightblue" stroke="midnightblue" points="1745.5,-106.362 1749,-116.362 1752.5,-106.362 1745.5,-106.362"/>
</g>
<!-- Node17 -->
<g id="node33" class="node"><title>Node17</title>
<a xlink:href="pagetabbar_8cpp.htm" target="_top" xlink:title="pagetabbar.cpp">
<polygon fill="white" stroke="black" points="1803.5,-58.5 1803.5,-79.5 1892.5,-79.5 1892.5,-58.5 1803.5,-58.5"/>
<text text-anchor="middle" x="1848" y="-66.5" font-family="Helvetica,sans-Serif" font-size="10.00">pagetabbar.cpp</text>
</a>
</g>
<!-- Node1&#45;&gt;Node17 -->
<g id="edge32" class="edge"><title>Node1&#45;&gt;Node17</title>
<path fill="none" stroke="midnightblue" d="M1776.14,-111.101C1793.27,-101.066 1814.92,-88.3808 1829.96,-79.5707"/>
<polygon fill="midnightblue" stroke="midnightblue" points="1774.02,-108.287 1767.16,-116.362 1777.56,-114.327 1774.02,-108.287"/>
</g>
<!-- Node18 -->
<g id="node35" class="node"><title>Node18</title>
<a xlink:href="quicklaunchbar_8cpp.htm" target="_top" xlink:title="quicklaunchbar.cpp">
<polygon fill="white" stroke="black" points="1910,-58.5 1910,-79.5 2016,-79.5 2016,-58.5 1910,-58.5"/>
<text text-anchor="middle" x="1963" y="-66.5" font-family="Helvetica,sans-Serif" font-size="10.00">quicklaunchbar.cpp</text>
</a>
</g>
<!-- Node1&#45;&gt;Node18 -->
<g id="edge34" class="edge"><title>Node1&#45;&gt;Node18</title>
<path fill="none" stroke="midnightblue" d="M1797.66,-113.812C1835.97,-103.428 1888.66,-89.1487 1924.17,-79.5231"/>
<polygon fill="midnightblue" stroke="midnightblue" points="1796.49,-110.503 1787.75,-116.497 1798.32,-117.259 1796.49,-110.503"/>
</g>
<!-- Node19 -->
<g id="node37" class="node"><title>Node19</title>
<a xlink:href="colorroundrectbutton_8cpp.htm" target="_top" xlink:title="colorroundrectbutton.cpp">
<polygon fill="white" stroke="black" points="2033.5,-58.5 2033.5,-79.5 2166.5,-79.5 2166.5,-58.5 2033.5,-58.5"/>
<text text-anchor="middle" x="2100" y="-66.5" font-family="Helvetica,sans-Serif" font-size="10.00">colorroundrectbutton.cpp</text>
</a>
</g>
<!-- Node1&#45;&gt;Node19 -->
<g id="edge36" class="edge"><title>Node1&#45;&gt;Node19</title>
<path fill="none" stroke="midnightblue" d="M1800.68,-118.461C1863.23,-108.124 1968.56,-90.7188 2036.14,-79.5525"/>
<polygon fill="midnightblue" stroke="midnightblue" points="1799.94,-115.035 1790.64,-120.119 1801.08,-121.942 1799.94,-115.035"/>
</g>
<!-- Node20 -->
<g id="node39" class="node"><title>Node20</title>
<a xlink:href="pixbutton_8cpp.htm" target="_top" xlink:title="pixbutton.cpp">
<polygon fill="white" stroke="black" points="2184,-58.5 2184,-79.5 2262,-79.5 2262,-58.5 2184,-58.5"/>
<text text-anchor="middle" x="2223" y="-66.5" font-family="Helvetica,sans-Serif" font-size="10.00">pixbutton.cpp</text>
</a>
</g>
<!-- Node1&#45;&gt;Node20 -->
<g id="edge38" class="edge"><title>Node1&#45;&gt;Node20</title>
<path fill="none" stroke="midnightblue" d="M1801,-123.209C1881.52,-116.9 2041.07,-102.657 2175,-80 2177.87,-79.5152 2180.82,-78.9651 2183.78,-78.3756"/>
<polygon fill="midnightblue" stroke="midnightblue" points="1800.34,-119.749 1790.64,-124.01 1800.88,-126.728 1800.34,-119.749"/>
</g>
<!-- Node21 -->
<g id="node41" class="node"><title>Node21</title>
<a xlink:href="pixbutton2state_8cpp.htm" target="_top" xlink:title="pixbutton2state.cpp">
<polygon fill="white" stroke="black" points="2279.5,-58.5 2279.5,-79.5 2386.5,-79.5 2386.5,-58.5 2279.5,-58.5"/>
<text text-anchor="middle" x="2333" y="-66.5" font-family="Helvetica,sans-Serif" font-size="10.00">pixbutton2state.cpp</text>
</a>
</g>
<!-- Node1&#45;&gt;Node21 -->
<g id="edge40" class="edge"><title>Node1&#45;&gt;Node21</title>
<path fill="none" stroke="midnightblue" d="M1800.85,-123.812C1894.84,-117.703 2099.53,-102.888 2271,-80 2273.71,-79.6384 2276.48,-79.2425 2279.28,-78.8225"/>
<polygon fill="midnightblue" stroke="midnightblue" points="1800.5,-120.326 1790.75,-124.462 1800.95,-127.312 1800.5,-120.326"/>
</g>
<!-- Node22 -->
<g id="node43" class="node"><title>Node22</title>
<a xlink:href="pixbuttonsimple_8cpp.htm" target="_top" xlink:title="pixbuttonsimple.cpp">
<polygon fill="white" stroke="black" points="2404,-58.5 2404,-79.5 2512,-79.5 2512,-58.5 2404,-58.5"/>
<text text-anchor="middle" x="2458" y="-66.5" font-family="Helvetica,sans-Serif" font-size="10.00">pixbuttonsimple.cpp</text>
</a>
</g>
<!-- Node1&#45;&gt;Node22 -->
<g id="edge42" class="edge"><title>Node1&#45;&gt;Node22</title>
<path fill="none" stroke="midnightblue" d="M1800.85,-124.993C1910.73,-120.353 2174.98,-107.142 2395,-80 2397.87,-79.6466 2400.8,-79.2514 2403.76,-78.8268"/>
<polygon fill="midnightblue" stroke="midnightblue" points="1800.55,-121.503 1790.71,-125.416 1800.85,-128.497 1800.55,-121.503"/>
</g>
<!-- Node23 -->
<g id="node45" class="node"><title>Node23</title>
<a xlink:href="icon_8cpp.htm" target="_top" xlink:title="icon.cpp">
<polygon fill="white" stroke="black" points="2530,-58.5 2530,-79.5 2586,-79.5 2586,-58.5 2530,-58.5"/>
<text text-anchor="middle" x="2558" y="-66.5" font-family="Helvetica,sans-Serif" font-size="10.00">icon.cpp</text>
</a>
</g>
<!-- Node1&#45;&gt;Node23 -->
<g id="edge44" class="edge"><title>Node1&#45;&gt;Node23</title>
<path fill="none" stroke="midnightblue" d="M1800.93,-125.383C1950.78,-120.474 2382.03,-104.556 2521,-80 2523.9,-79.4869 2526.9,-78.8253 2529.88,-78.0813"/>
<polygon fill="midnightblue" stroke="midnightblue" points="1800.52,-121.895 1790.64,-125.718 1800.75,-128.891 1800.52,-121.895"/>
</g>
<!-- Node24 -->
<g id="node47" class="node"><title>Node24</title>
<a xlink:href="page_8cpp.htm" target="_top" xlink:title="page.cpp">
<polygon fill="white" stroke="black" points="2604,-58.5 2604,-79.5 2664,-79.5 2664,-58.5 2604,-58.5"/>
<text text-anchor="middle" x="2634" y="-66.5" font-family="Helvetica,sans-Serif" font-size="10.00">page.cpp</text>
</a>
</g>
<!-- Node1&#45;&gt;Node24 -->
<g id="edge46" class="edge"><title>Node1&#45;&gt;Node24</title>
<path fill="none" stroke="midnightblue" d="M1800.71,-125.614C1959.87,-121.114 2440.86,-105.699 2595,-80 2597.91,-79.5141 2600.92,-78.8915 2603.91,-78.1903"/>
<polygon fill="midnightblue" stroke="midnightblue" points="1800.6,-122.116 1790.7,-125.895 1800.8,-129.113 1800.6,-122.116"/>
</g>
<!-- Node25 -->
<g id="node49" class="node"><title>Node25</title>
<a xlink:href="OverlayWindowManager_8cpp.htm" target="_top" xlink:title="OverlayWindowManager.cpp">
<polygon fill="white" stroke="black" points="2681.5,-58.5 2681.5,-79.5 2834.5,-79.5 2834.5,-58.5 2681.5,-58.5"/>
<text text-anchor="middle" x="2758" y="-66.5" font-family="Helvetica,sans-Serif" font-size="10.00">OverlayWindowManager.cpp</text>
</a>
</g>
<!-- Node1&#45;&gt;Node25 -->
<g id="edge48" class="edge"><title>Node1&#45;&gt;Node25</title>
<path fill="none" stroke="midnightblue" d="M1800.56,-125.786C1940.89,-122.176 2341.35,-109.849 2673,-80 2675.67,-79.7599 2678.38,-79.4992 2681.12,-79.222"/>
<polygon fill="midnightblue" stroke="midnightblue" points="1800.43,-122.288 1790.52,-126.04 1800.61,-129.285 1800.43,-122.288"/>
</g>
<!-- Node26 -->
<g id="node51" class="node"><title>Node26</title>
<a xlink:href="DashboardWindowContainer_8cpp.htm" target="_top" xlink:title="DashboardWindowContainer.cpp">
<polygon fill="white" stroke="black" points="2852,-58.5 2852,-79.5 3024,-79.5 3024,-58.5 2852,-58.5"/>
<text text-anchor="middle" x="2938" y="-66.5" font-family="Helvetica,sans-Serif" font-size="10.00">DashboardWindowContainer.cpp</text>
</a>
</g>
<!-- Node1&#45;&gt;Node26 -->
<g id="edge50" class="edge"><title>Node1&#45;&gt;Node26</title>
<path fill="none" stroke="midnightblue" d="M1800.85,-126.104C1957.99,-123.102 2442.62,-111.739 2843,-80 2845.9,-79.7704 2848.84,-79.5208 2851.81,-79.255"/>
<polygon fill="midnightblue" stroke="midnightblue" points="1800.48,-122.61 1790.55,-126.298 1800.61,-129.609 1800.48,-122.61"/>
</g>
<!-- Node27 -->
<g id="node53" class="node"><title>Node27</title>
<a xlink:href="DashboardWindowManager_8cpp.htm" target="_top" xlink:title="DashboardWindowManager.cpp">
<polygon fill="white" stroke="black" points="3042,-58.5 3042,-79.5 3210,-79.5 3210,-58.5 3042,-58.5"/>
<text text-anchor="middle" x="3126" y="-66.5" font-family="Helvetica,sans-Serif" font-size="10.00">DashboardWindowManager.cpp</text>
</a>
</g>
<!-- Node1&#45;&gt;Node27 -->
<g id="edge52" class="edge"><title>Node1&#45;&gt;Node27</title>
<path fill="none" stroke="midnightblue" d="M1800.8,-126.611C1974.94,-124.982 2555.14,-116.945 3033,-80 3035.92,-79.7744 3038.89,-79.5262 3041.88,-79.2596"/>
<polygon fill="midnightblue" stroke="midnightblue" points="1800.61,-123.113 1790.64,-126.703 1800.67,-130.112 1800.61,-123.113"/>
</g>
<!-- Node28 -->
<g id="node55" class="node"><title>Node28</title>
<a xlink:href="MenuWindowManager_8cpp.htm" target="_top" xlink:title="MenuWindowManager.cpp">
<polygon fill="white" stroke="black" points="3227.5,-58.5 3227.5,-79.5 3370.5,-79.5 3370.5,-58.5 3227.5,-58.5"/>
<text text-anchor="middle" x="3299" y="-66.5" font-family="Helvetica,sans-Serif" font-size="10.00">MenuWindowManager.cpp</text>
</a>
</g>
<!-- Node1&#45;&gt;Node28 -->
<g id="edge54" class="edge"><title>Node1&#45;&gt;Node28</title>
<path fill="none" stroke="midnightblue" d="M1800.83,-126.072C2027.74,-121.897 2934.89,-104.008 3219,-80 3221.65,-79.7757 3224.36,-79.5241 3227.08,-79.2505"/>
<polygon fill="midnightblue" stroke="midnightblue" points="1800.48,-122.578 1790.54,-126.26 1800.61,-129.577 1800.48,-122.578"/>
</g>
<!-- Node6 -->
<g id="node11" class="node"><title>Node6</title>
<a xlink:href="hiddtp_8cpp.htm" target="_top" xlink:title="hiddtp.cpp">
<polygon fill="white" stroke="black" points="344.5,-0.5 344.5,-21.5 409.5,-21.5 409.5,-0.5 344.5,-0.5"/>
<text text-anchor="middle" x="377" y="-8.5" font-family="Helvetica,sans-Serif" font-size="10.00">hiddtp.cpp</text>
</a>
</g>
<!-- Node5&#45;&gt;Node6 -->
<g id="edge10" class="edge"><title>Node5&#45;&gt;Node6</title>
<path fill="none" stroke="midnightblue" d="M409.723,-50.5407C401.81,-40.9786 392.432,-29.6467 385.748,-21.5707"/>
<polygon fill="midnightblue" stroke="midnightblue" points="407.124,-52.8894 416.196,-58.3619 412.517,-48.4264 407.124,-52.8894"/>
</g>
<!-- Node7 -->
<g id="node13" class="node"><title>Node7</title>
<a xlink:href="hiddtp__qws_8cpp.htm" target="_top" xlink:title="hiddtp_qws.cpp">
<polygon fill="white" stroke="black" points="427,-0.5 427,-21.5 517,-21.5 517,-0.5 427,-0.5"/>
<text text-anchor="middle" x="472" y="-8.5" font-family="Helvetica,sans-Serif" font-size="10.00">hiddtp_qws.cpp</text>
</a>
</g>
<!-- Node5&#45;&gt;Node7 -->
<g id="edge12" class="edge"><title>Node5&#45;&gt;Node7</title>
<path fill="none" stroke="midnightblue" d="M439.958,-50.5407C447.707,-40.9786 456.89,-29.6467 463.434,-21.5707"/>
<polygon fill="midnightblue" stroke="midnightblue" points="437.197,-48.389 433.621,-58.3619 442.636,-52.7961 437.197,-48.389"/>
</g>
</g>
</svg>
