<?xml version="1.0" encoding="UTF-8" standalone="no"?>
<!DOCTYPE svg PUBLIC "-//W3C//DTD SVG 1.1//EN"
 "http://www.w3.org/Graphics/SVG/1.1/DTD/svg11.dtd">
<!-- Generated by graphviz version 2.26.3 (20100126.1600)
 -->
<!-- Title: G Pages: 1 -->
<svg width="782pt" height="262pt"
 viewBox="0.00 0.00 782.00 262.00" xmlns="http://www.w3.org/2000/svg" xmlns:xlink="http://www.w3.org/1999/xlink">
<g id="graph1" class="graph" transform="scale(1 1) rotate(0) translate(4 258)">
<title>G</title>
<polygon fill="white" stroke="white" points="-4,5 -4,-258 779,-258 779,5 -4,5"/>
<!-- Node1 -->
<g id="node1" class="node"><title>Node1</title>
<polygon fill="#bfbfbf" stroke="black" points="117.5,-232.5 117.5,-253.5 200.5,-253.5 200.5,-232.5 117.5,-232.5"/>
<text text-anchor="middle" x="159" y="-240.5" font-family="Helvetica,sans-Serif" font-size="10.00">GlyphCache.h</text>
</g>
<!-- Node2 -->
<g id="node3" class="node"><title>Node2</title>
<polygon fill="white" stroke="#bfbfbf" points="0,-174.5 0,-195.5 64,-195.5 64,-174.5 0,-174.5"/>
<text text-anchor="middle" x="32" y="-182.5" font-family="Helvetica,sans-Serif" font-size="10.00">qpainter.h</text>
</g>
<!-- Node1&#45;&gt;Node2 -->
<g id="edge2" class="edge"><title>Node1&#45;&gt;Node2</title>
<path fill="none" stroke="midnightblue" d="M136.001,-232.497C115.987,-223.356 86.7592,-210.008 64.3812,-199.788"/>
<polygon fill="midnightblue" stroke="midnightblue" points="65.8071,-196.592 55.2568,-195.621 62.8991,-202.959 65.8071,-196.592"/>
</g>
<!-- Node3 -->
<g id="node5" class="node"><title>Node3</title>
<polygon fill="white" stroke="#bfbfbf" points="81.5,-174.5 81.5,-195.5 118.5,-195.5 118.5,-174.5 81.5,-174.5"/>
<text text-anchor="middle" x="100" y="-182.5" font-family="Helvetica,sans-Serif" font-size="10.00">map</text>
</g>
<!-- Node1&#45;&gt;Node3 -->
<g id="edge4" class="edge"><title>Node1&#45;&gt;Node3</title>
<path fill="none" stroke="midnightblue" d="M148.178,-232.362C139.779,-224.104 127.946,-212.472 118.11,-202.803"/>
<polygon fill="midnightblue" stroke="midnightblue" points="120.338,-200.085 110.753,-195.571 115.431,-205.077 120.338,-200.085"/>
</g>
<!-- Node4 -->
<g id="node7" class="node"><title>Node4</title>
<polygon fill="white" stroke="#bfbfbf" points="136,-174.5 136,-195.5 182,-195.5 182,-174.5 136,-174.5"/>
<text text-anchor="middle" x="159" y="-182.5" font-family="Helvetica,sans-Serif" font-size="10.00">vector</text>
</g>
<!-- Node1&#45;&gt;Node4 -->
<g id="edge6" class="edge"><title>Node1&#45;&gt;Node4</title>
<path fill="none" stroke="midnightblue" d="M159,-232.362C159,-224.922 159,-214.743 159,-205.728"/>
<polygon fill="midnightblue" stroke="midnightblue" points="162.5,-205.571 159,-195.571 155.5,-205.571 162.5,-205.571"/>
</g>
<!-- Node5 -->
<g id="node9" class="node"><title>Node5</title>
<a xlink:href="Logging_8h.htm" target="_top" xlink:title="Logging.h">
<polygon fill="white" stroke="black" points="199.5,-174.5 199.5,-195.5 262.5,-195.5 262.5,-174.5 199.5,-174.5"/>
<text text-anchor="middle" x="231" y="-182.5" font-family="Helvetica,sans-Serif" font-size="10.00">Logging.h</text>
</a>
</g>
<!-- Node1&#45;&gt;Node5 -->
<g id="edge8" class="edge"><title>Node1&#45;&gt;Node5</title>
<path fill="none" stroke="midnightblue" d="M172.206,-232.362C182.761,-223.859 197.758,-211.779 209.963,-201.947"/>
<polygon fill="midnightblue" stroke="midnightblue" points="212.286,-204.57 217.878,-195.571 207.895,-199.118 212.286,-204.57"/>
</g>
<!-- Node10 -->
<g id="node19" class="node"><title>Node10</title>
<a xlink:href="VirtualKeyboard_8h.htm" target="_top" xlink:title="VirtualKeyboard.h">
<polygon fill="white" stroke="black" points="306.5,-174.5 306.5,-195.5 405.5,-195.5 405.5,-174.5 306.5,-174.5"/>
<text text-anchor="middle" x="356" y="-182.5" font-family="Helvetica,sans-Serif" font-size="10.00">VirtualKeyboard.h</text>
</a>
</g>
<!-- Node1&#45;&gt;Node10 -->
<g id="edge18" class="edge"><title>Node1&#45;&gt;Node10</title>
<path fill="none" stroke="midnightblue" d="M194.675,-232.497C227.07,-222.959 275.023,-208.841 310.231,-198.475"/>
<polygon fill="midnightblue" stroke="midnightblue" points="311.654,-201.705 320.258,-195.523 309.676,-194.99 311.654,-201.705"/>
</g>
<!-- Node6 -->
<g id="node11" class="node"><title>Node6</title>
<a xlink:href="Common_8h.htm" target="_top" xlink:title="Common.h">
<polygon fill="white" stroke="black" points="197.5,-116.5 197.5,-137.5 264.5,-137.5 264.5,-116.5 197.5,-116.5"/>
<text text-anchor="middle" x="231" y="-124.5" font-family="Helvetica,sans-Serif" font-size="10.00">Common.h</text>
</a>
</g>
<!-- Node5&#45;&gt;Node6 -->
<g id="edge10" class="edge"><title>Node5&#45;&gt;Node6</title>
<path fill="none" stroke="midnightblue" d="M231,-174.362C231,-166.922 231,-156.743 231,-147.728"/>
<polygon fill="midnightblue" stroke="midnightblue" points="234.5,-147.571 231,-137.571 227.5,-147.571 234.5,-147.571"/>
</g>
<!-- Node7 -->
<g id="node13" class="node"><title>Node7</title>
<polygon fill="white" stroke="#bfbfbf" points="281.5,-116.5 281.5,-137.5 328.5,-137.5 328.5,-116.5 281.5,-116.5"/>
<text text-anchor="middle" x="305" y="-124.5" font-family="Helvetica,sans-Serif" font-size="10.00">stdio.h</text>
</g>
<!-- Node5&#45;&gt;Node7 -->
<g id="edge12" class="edge"><title>Node5&#45;&gt;Node7</title>
<path fill="none" stroke="midnightblue" d="M244.573,-174.362C255.421,-165.859 270.834,-153.779 283.379,-143.947"/>
<polygon fill="midnightblue" stroke="midnightblue" points="285.802,-146.494 291.513,-137.571 281.484,-140.985 285.802,-146.494"/>
</g>
<!-- Node8 -->
<g id="node15" class="node"><title>Node8</title>
<polygon fill="white" stroke="#bfbfbf" points="51.5,-116.5 51.5,-137.5 92.5,-137.5 92.5,-116.5 51.5,-116.5"/>
<text text-anchor="middle" x="72" y="-124.5" font-family="Helvetica,sans-Serif" font-size="10.00">glib.h</text>
</g>
<!-- Node5&#45;&gt;Node8 -->
<g id="edge14" class="edge"><title>Node5&#45;&gt;Node8</title>
<path fill="none" stroke="midnightblue" d="M201.523,-174.491C177.101,-165.752 141.254,-152.849 102.065,-138.365"/>
<polygon fill="midnightblue" stroke="midnightblue" points="103.173,-135.043 92.5802,-134.852 100.742,-141.607 103.173,-135.043"/>
</g>
<!-- Node9 -->
<g id="node17" class="node"><title>Node9</title>
<polygon fill="white" stroke="#bfbfbf" points="109.5,-116.5 109.5,-137.5 180.5,-137.5 180.5,-116.5 109.5,-116.5"/>
<text text-anchor="middle" x="145" y="-124.5" font-family="Helvetica,sans-Serif" font-size="10.00">PmLogLib.h</text>
</g>
<!-- Node5&#45;&gt;Node9 -->
<g id="edge16" class="edge"><title>Node5&#45;&gt;Node9</title>
<path fill="none" stroke="midnightblue" d="M215.226,-174.362C202.376,-165.696 184.015,-153.313 169.29,-143.382"/>
<polygon fill="midnightblue" stroke="midnightblue" points="170.921,-140.26 160.674,-137.571 167.007,-146.064 170.921,-140.26"/>
</g>
<!-- Node11 -->
<g id="node21" class="node"><title>Node11</title>
<a xlink:href="IMEDataInterface_8h.htm" target="_top" xlink:title="IMEDataInterface.h">
<polygon fill="white" stroke="black" points="394,-116.5 394,-137.5 502,-137.5 502,-116.5 394,-116.5"/>
<text text-anchor="middle" x="448" y="-124.5" font-family="Helvetica,sans-Serif" font-size="10.00">IMEDataInterface.h</text>
</a>
</g>
<!-- Node10&#45;&gt;Node11 -->
<g id="edge20" class="edge"><title>Node10&#45;&gt;Node11</title>
<path fill="none" stroke="midnightblue" d="M372.874,-174.362C386.751,-165.614 406.634,-153.079 422.46,-143.101"/>
<polygon fill="midnightblue" stroke="midnightblue" points="424.64,-145.864 431.233,-137.571 420.907,-139.943 424.64,-145.864"/>
</g>
<!-- Node20 -->
<g id="node39" class="node"><title>Node20</title>
<a xlink:href="InputMethod_8h.htm" target="_top" xlink:title="InputMethod.h">
<polygon fill="white" stroke="black" points="304,-58.5 304,-79.5 388,-79.5 388,-58.5 304,-58.5"/>
<text text-anchor="middle" x="346" y="-66.5" font-family="Helvetica,sans-Serif" font-size="10.00">InputMethod.h</text>
</a>
</g>
<!-- Node10&#45;&gt;Node20 -->
<g id="edge38" class="edge"><title>Node10&#45;&gt;Node20</title>
<path fill="none" stroke="midnightblue" d="M355.077,-174.295C353.425,-155.131 349.936,-114.654 347.797,-89.8434"/>
<polygon fill="midnightblue" stroke="midnightblue" points="351.267,-89.3416 346.921,-79.6792 344.293,-89.9429 351.267,-89.3416"/>
</g>
<!-- Node12 -->
<g id="node23" class="node"><title>Node12</title>
<a xlink:href="IMEData_8h.htm" target="_top" xlink:title="IMEData.h">
<polygon fill="white" stroke="black" points="434,-58.5 434,-79.5 500,-79.5 500,-58.5 434,-58.5"/>
<text text-anchor="middle" x="467" y="-66.5" font-family="Helvetica,sans-Serif" font-size="10.00">IMEData.h</text>
</a>
</g>
<!-- Node11&#45;&gt;Node12 -->
<g id="edge22" class="edge"><title>Node11&#45;&gt;Node12</title>
<path fill="none" stroke="midnightblue" d="M451.485,-116.362C453.976,-108.758 457.404,-98.294 460.404,-89.1349"/>
<polygon fill="midnightblue" stroke="midnightblue" points="463.75,-90.1634 463.537,-79.5707 457.098,-87.9841 463.75,-90.1634"/>
</g>
<!-- Node13 -->
<g id="node25" class="node"><title>Node13</title>
<polygon fill="white" stroke="#bfbfbf" points="727.5,-0.5 727.5,-21.5 774.5,-21.5 774.5,-0.5 727.5,-0.5"/>
<text text-anchor="middle" x="751" y="-8.5" font-family="Helvetica,sans-Serif" font-size="10.00">QRect</text>
</g>
<!-- Node12&#45;&gt;Node13 -->
<g id="edge24" class="edge"><title>Node12&#45;&gt;Node13</title>
<path fill="none" stroke="midnightblue" d="M500.366,-64.3724C547.089,-57.5473 634.748,-43.4874 717.544,-22.1323"/>
<polygon fill="midnightblue" stroke="midnightblue" points="718.567,-25.4824 727.353,-19.5614 716.793,-18.7111 718.567,-25.4824"/>
</g>
<!-- Node14 -->
<g id="node27" class="node"><title>Node14</title>
<polygon fill="white" stroke="#bfbfbf" points="403.5,-0.5 403.5,-21.5 448.5,-21.5 448.5,-0.5 403.5,-0.5"/>
<text text-anchor="middle" x="426" y="-8.5" font-family="Helvetica,sans-Serif" font-size="10.00">QSize</text>
</g>
<!-- Node12&#45;&gt;Node14 -->
<g id="edge26" class="edge"><title>Node12&#45;&gt;Node14</title>
<path fill="none" stroke="midnightblue" d="M459.48,-58.3619C453.874,-50.4313 446.068,-39.3885 439.403,-29.9606"/>
<polygon fill="midnightblue" stroke="midnightblue" points="442.103,-27.7161 433.472,-21.5707 436.387,-31.7568 442.103,-27.7161"/>
</g>
<!-- Node15 -->
<g id="node29" class="node"><title>Node15</title>
<polygon fill="white" stroke="#bfbfbf" points="305.5,-0.5 305.5,-21.5 386.5,-21.5 386.5,-0.5 305.5,-0.5"/>
<text text-anchor="middle" x="346" y="-8.5" font-family="Helvetica,sans-Serif" font-size="10.00">QTouchEvent</text>
</g>
<!-- Node12&#45;&gt;Node15 -->
<g id="edge28" class="edge"><title>Node12&#45;&gt;Node15</title>
<path fill="none" stroke="midnightblue" d="M445.088,-58.4966C426.189,-49.4378 398.669,-36.2462 377.424,-26.0628"/>
<polygon fill="midnightblue" stroke="midnightblue" points="378.689,-22.7876 368.158,-21.6212 375.663,-29.0999 378.689,-22.7876"/>
</g>
<!-- Node16 -->
<g id="node31" class="node"><title>Node16</title>
<polygon fill="white" stroke="#bfbfbf" points="229.5,-0.5 229.5,-21.5 288.5,-21.5 288.5,-0.5 229.5,-0.5"/>
<text text-anchor="middle" x="259" y="-8.5" font-family="Helvetica,sans-Serif" font-size="10.00">QPainter</text>
</g>
<!-- Node12&#45;&gt;Node16 -->
<g id="edge30" class="edge"><title>Node12&#45;&gt;Node16</title>
<path fill="none" stroke="midnightblue" d="M433.741,-59.932C401.456,-51.1015 350.813,-37.1761 298.62,-22.4406"/>
<polygon fill="midnightblue" stroke="midnightblue" points="299.436,-19.0341 288.861,-19.6807 297.531,-25.7699 299.436,-19.0341"/>
</g>
<!-- Node17 -->
<g id="node33" class="node"><title>Node17</title>
<polygon fill="white" stroke="#bfbfbf" points="465.5,-0.5 465.5,-21.5 524.5,-21.5 524.5,-0.5 465.5,-0.5"/>
<text text-anchor="middle" x="495" y="-8.5" font-family="Helvetica,sans-Serif" font-size="10.00">QRegion</text>
</g>
<!-- Node12&#45;&gt;Node17 -->
<g id="edge32" class="edge"><title>Node12&#45;&gt;Node17</title>
<path fill="none" stroke="midnightblue" d="M472.136,-58.3619C475.846,-50.6766 480.967,-40.0686 485.422,-30.8399"/>
<polygon fill="midnightblue" stroke="midnightblue" points="488.701,-32.0978 489.897,-21.5707 482.397,-29.0545 488.701,-32.0978"/>
</g>
<!-- Node18 -->
<g id="node35" class="node"><title>Node18</title>
<polygon fill="white" stroke="#bfbfbf" points="541.5,-0.5 541.5,-21.5 594.5,-21.5 594.5,-0.5 541.5,-0.5"/>
<text text-anchor="middle" x="568" y="-8.5" font-family="Helvetica,sans-Serif" font-size="10.00">QString</text>
</g>
<!-- Node12&#45;&gt;Node18 -->
<g id="edge34" class="edge"><title>Node12&#45;&gt;Node18</title>
<path fill="none" stroke="midnightblue" d="M485.525,-58.3619C500.901,-49.532 522.996,-36.844 540.447,-26.8224"/>
<polygon fill="midnightblue" stroke="midnightblue" points="542.664,-29.5857 549.592,-21.5707 539.178,-23.5154 542.664,-29.5857"/>
</g>
<!-- Node19 -->
<g id="node37" class="node"><title>Node19</title>
<polygon fill="white" stroke="#bfbfbf" points="612,-0.5 612,-21.5 710,-21.5 710,-0.5 612,-0.5"/>
<text text-anchor="middle" x="661" y="-8.5" font-family="Helvetica,sans-Serif" font-size="10.00">palmimedefines.h</text>
</g>
<!-- Node12&#45;&gt;Node19 -->
<g id="edge36" class="edge"><title>Node12&#45;&gt;Node19</title>
<path fill="none" stroke="midnightblue" d="M500.35,-59.0294C532.335,-49.4669 580.851,-34.962 616.198,-24.3945"/>
<polygon fill="midnightblue" stroke="midnightblue" points="617.215,-27.7435 625.793,-21.5257 615.21,-21.0368 617.215,-27.7435"/>
</g>
<!-- Node20&#45;&gt;Node15 -->
<g id="edge40" class="edge"><title>Node20&#45;&gt;Node15</title>
<path fill="none" stroke="midnightblue" d="M346,-58.3619C346,-50.9219 346,-40.7427 346,-31.7276"/>
<polygon fill="midnightblue" stroke="midnightblue" points="349.5,-31.5706 346,-21.5707 342.5,-31.5707 349.5,-31.5706"/>
</g>
<!-- Node20&#45;&gt;Node16 -->
<g id="edge42" class="edge"><title>Node20&#45;&gt;Node16</title>
<path fill="none" stroke="midnightblue" d="M330.043,-58.3619C317.043,-49.6955 298.469,-37.3126 283.573,-27.3819"/>
<polygon fill="midnightblue" stroke="midnightblue" points="285.118,-24.2055 274.856,-21.5707 281.235,-30.0299 285.118,-24.2055"/>
</g>
</g>
</svg>
