<?xml version="1.0" encoding="UTF-8" standalone="no"?>
<!DOCTYPE svg PUBLIC "-//W3C//DTD SVG 1.1//EN"
 "http://www.w3.org/Graphics/SVG/1.1/DTD/svg11.dtd">
<!-- Generated by graphviz version 2.26.3 (20100126.1600)
 -->
<!-- Title: G Pages: 1 -->
<svg width="898pt" height="204pt"
 viewBox="0.00 0.00 898.00 204.00" xmlns="http://www.w3.org/2000/svg" xmlns:xlink="http://www.w3.org/1999/xlink">
<g id="graph1" class="graph" transform="scale(1 1) rotate(0) translate(4 200)">
<title>G</title>
<polygon fill="white" stroke="white" points="-4,5 -4,-200 895,-200 895,5 -4,5"/>
<!-- Node1 -->
<g id="node1" class="node"><title>Node1</title>
<polygon fill="#bfbfbf" stroke="black" points="203,-174.5 203,-195.5 343,-195.5 343,-174.5 203,-174.5"/>
<text text-anchor="middle" x="273" y="-182.5" font-family="Helvetica,sans-Serif" font-size="10.00">HALSensorConnector.cpp</text>
</g>
<!-- Node2 -->
<g id="node3" class="node"><title>Node2</title>
<polygon fill="white" stroke="#bfbfbf" points="-0.5,-116.5 -0.5,-137.5 76.5,-137.5 76.5,-116.5 -0.5,-116.5"/>
<text text-anchor="middle" x="38" y="-124.5" font-family="Helvetica,sans-Serif" font-size="10.00">QApplication</text>
</g>
<!-- Node1&#45;&gt;Node2 -->
<g id="edge2" class="edge"><title>Node1&#45;&gt;Node2</title>
<path fill="none" stroke="midnightblue" d="M230.443,-174.497C189.912,-164.493 128.963,-149.45 86.5544,-138.984"/>
<polygon fill="midnightblue" stroke="midnightblue" points="87.2798,-135.558 76.7324,-136.559 85.6024,-142.354 87.2798,-135.558"/>
</g>
<!-- Node3 -->
<g id="node5" class="node"><title>Node3</title>
<polygon fill="white" stroke="#bfbfbf" points="94,-116.5 94,-137.5 152,-137.5 152,-116.5 94,-116.5"/>
<text text-anchor="middle" x="123" y="-124.5" font-family="Helvetica,sans-Serif" font-size="10.00">QWidget</text>
</g>
<!-- Node1&#45;&gt;Node3 -->
<g id="edge4" class="edge"><title>Node1&#45;&gt;Node3</title>
<path fill="none" stroke="midnightblue" d="M245.836,-174.497C221.7,-165.164 186.219,-151.445 159.588,-141.147"/>
<polygon fill="midnightblue" stroke="midnightblue" points="160.804,-137.865 150.215,-137.523 158.28,-144.394 160.804,-137.865"/>
</g>
<!-- Node4 -->
<g id="node7" class="node"><title>Node4</title>
<polygon fill="white" stroke="#bfbfbf" points="170,-116.5 170,-137.5 216,-137.5 216,-116.5 170,-116.5"/>
<text text-anchor="middle" x="193" y="-124.5" font-family="Helvetica,sans-Serif" font-size="10.00">QMap</text>
</g>
<!-- Node1&#45;&gt;Node4 -->
<g id="edge6" class="edge"><title>Node1&#45;&gt;Node4</title>
<path fill="none" stroke="midnightblue" d="M258.327,-174.362C246.486,-165.777 229.615,-153.546 215.984,-143.664"/>
<polygon fill="midnightblue" stroke="midnightblue" points="217.731,-140.607 207.58,-137.571 213.622,-146.274 217.731,-140.607"/>
</g>
<!-- Node5 -->
<g id="node9" class="node"><title>Node5</title>
<polygon fill="white" stroke="#bfbfbf" points="95.5,-58.5 95.5,-79.5 136.5,-79.5 136.5,-58.5 95.5,-58.5"/>
<text text-anchor="middle" x="116" y="-66.5" font-family="Helvetica,sans-Serif" font-size="10.00">glib.h</text>
</g>
<!-- Node1&#45;&gt;Node5 -->
<g id="edge8" class="edge"><title>Node1&#45;&gt;Node5</title>
<path fill="none" stroke="midnightblue" d="M267.949,-174.264C260.463,-159.374 245.115,-132.435 225,-116 201.785,-97.0321 169.756,-84.4445 146.428,-77.1109"/>
<polygon fill="midnightblue" stroke="midnightblue" points="147.283,-73.7135 136.699,-74.1967 145.274,-80.4191 147.283,-73.7135"/>
</g>
<!-- Node6 -->
<g id="node11" class="node"><title>Node6</title>
<polygon fill="white" stroke="#bfbfbf" points="568,-116.5 568,-137.5 640,-137.5 640,-116.5 568,-116.5"/>
<text text-anchor="middle" x="604" y="-124.5" font-family="Helvetica,sans-Serif" font-size="10.00">cjson/json.h</text>
</g>
<!-- Node1&#45;&gt;Node6 -->
<g id="edge10" class="edge"><title>Node1&#45;&gt;Node6</title>
<path fill="none" stroke="midnightblue" d="M343.21,-175.001C398.893,-166.718 478.898,-154.034 557.614,-138.178"/>
<polygon fill="midnightblue" stroke="midnightblue" points="558.603,-141.548 567.705,-136.126 557.208,-134.689 558.603,-141.548"/>
</g>
<!-- Node7 -->
<g id="node13" class="node"><title>Node7</title>
<polygon fill="white" stroke="#bfbfbf" points="658,-116.5 658,-137.5 750,-137.5 750,-116.5 658,-116.5"/>
<text text-anchor="middle" x="704" y="-124.5" font-family="Helvetica,sans-Serif" font-size="10.00">palmwebtypes.h</text>
</g>
<!-- Node1&#45;&gt;Node7 -->
<g id="edge12" class="edge"><title>Node1&#45;&gt;Node7</title>
<path fill="none" stroke="midnightblue" d="M343.21,-177.774C416.686,-169.861 535.609,-156.067 647.702,-138.124"/>
<polygon fill="midnightblue" stroke="midnightblue" points="648.517,-141.538 657.831,-136.488 647.401,-134.627 648.517,-141.538"/>
</g>
<!-- Node8 -->
<g id="node15" class="node"><title>Node8</title>
<a xlink:href="Settings_8h.htm" target="_top" xlink:title="Settings.h">
<polygon fill="white" stroke="black" points="271.5,-116.5 271.5,-137.5 334.5,-137.5 334.5,-116.5 271.5,-116.5"/>
<text text-anchor="middle" x="303" y="-124.5" font-family="Helvetica,sans-Serif" font-size="10.00">Settings.h</text>
</a>
</g>
<!-- Node1&#45;&gt;Node8 -->
<g id="edge14" class="edge"><title>Node1&#45;&gt;Node8</title>
<path fill="none" stroke="midnightblue" d="M278.502,-174.362C282.52,-166.595 288.081,-155.843 292.89,-146.546"/>
<polygon fill="midnightblue" stroke="midnightblue" points="296.047,-148.061 297.532,-137.571 289.829,-144.845 296.047,-148.061"/>
</g>
<!-- Node14 -->
<g id="node28" class="node"><title>Node14</title>
<a xlink:href="HALSensorConnector_8h.htm" target="_top" xlink:title="HALSensorConnector.h">
<polygon fill="white" stroke="black" points="422,-116.5 422,-137.5 550,-137.5 550,-116.5 422,-116.5"/>
<text text-anchor="middle" x="486" y="-124.5" font-family="Helvetica,sans-Serif" font-size="10.00">HALSensorConnector.h</text>
</a>
</g>
<!-- Node1&#45;&gt;Node14 -->
<g id="edge28" class="edge"><title>Node1&#45;&gt;Node14</title>
<path fill="none" stroke="midnightblue" d="M311.573,-174.497C346.899,-164.877 399.338,-150.598 437.491,-140.209"/>
<polygon fill="midnightblue" stroke="midnightblue" points="438.626,-143.528 447.355,-137.523 436.787,-136.773 438.626,-143.528"/>
</g>
<!-- Node8&#45;&gt;Node5 -->
<g id="edge24" class="edge"><title>Node8&#45;&gt;Node5</title>
<path fill="none" stroke="midnightblue" d="M271.31,-117.415C240.339,-108.012 191.872,-93.2039 150,-80 148.935,-79.6642 147.852,-79.3212 146.758,-78.9737"/>
<polygon fill="midnightblue" stroke="midnightblue" points="147.433,-75.5149 136.842,-75.7971 145.298,-82.1812 147.433,-75.5149"/>
</g>
<!-- Node9 -->
<g id="node17" class="node"><title>Node9</title>
<a xlink:href="Common_8h.htm" target="_top" xlink:title="Common.h">
<polygon fill="white" stroke="black" points="290.5,-0.5 290.5,-21.5 357.5,-21.5 357.5,-0.5 290.5,-0.5"/>
<text text-anchor="middle" x="324" y="-8.5" font-family="Helvetica,sans-Serif" font-size="10.00">Common.h</text>
</a>
</g>
<!-- Node8&#45;&gt;Node9 -->
<g id="edge16" class="edge"><title>Node8&#45;&gt;Node9</title>
<path fill="none" stroke="midnightblue" d="M271.359,-118.944C239.398,-110.09 193.309,-95.1091 183,-80 177.489,-71.9231 177.283,-65.9321 183,-58 194.619,-41.8798 243.295,-28.1441 280.232,-19.7587"/>
<polygon fill="midnightblue" stroke="midnightblue" points="281.287,-23.1102 290.298,-17.538 279.779,-16.2745 281.287,-23.1102"/>
</g>
<!-- Node10 -->
<g id="node19" class="node"><title>Node10</title>
<polygon fill="white" stroke="#bfbfbf" points="315.5,-58.5 315.5,-79.5 358.5,-79.5 358.5,-58.5 315.5,-58.5"/>
<text text-anchor="middle" x="337" y="-66.5" font-family="Helvetica,sans-Serif" font-size="10.00">string</text>
</g>
<!-- Node8&#45;&gt;Node10 -->
<g id="edge18" class="edge"><title>Node8&#45;&gt;Node10</title>
<path fill="none" stroke="midnightblue" d="M309.236,-116.362C313.837,-108.513 320.225,-97.6159 325.714,-88.2527"/>
<polygon fill="midnightblue" stroke="midnightblue" points="328.766,-89.9677 330.803,-79.5707 322.727,-86.4276 328.766,-89.9677"/>
</g>
<!-- Node11 -->
<g id="node21" class="node"><title>Node11</title>
<polygon fill="white" stroke="#bfbfbf" points="376,-58.5 376,-79.5 422,-79.5 422,-58.5 376,-58.5"/>
<text text-anchor="middle" x="399" y="-66.5" font-family="Helvetica,sans-Serif" font-size="10.00">vector</text>
</g>
<!-- Node8&#45;&gt;Node11 -->
<g id="edge20" class="edge"><title>Node8&#45;&gt;Node11</title>
<path fill="none" stroke="midnightblue" d="M320.608,-116.362C335.223,-107.532 356.224,-94.844 372.811,-84.8224"/>
<polygon fill="midnightblue" stroke="midnightblue" points="374.754,-87.7376 381.504,-79.5707 371.135,-81.7461 374.754,-87.7376"/>
</g>
<!-- Node12 -->
<g id="node23" class="node"><title>Node12</title>
<polygon fill="white" stroke="#bfbfbf" points="191.5,-58.5 191.5,-79.5 222.5,-79.5 222.5,-58.5 191.5,-58.5"/>
<text text-anchor="middle" x="207" y="-66.5" font-family="Helvetica,sans-Serif" font-size="10.00">set</text>
</g>
<!-- Node8&#45;&gt;Node12 -->
<g id="edge22" class="edge"><title>Node8&#45;&gt;Node12</title>
<path fill="none" stroke="midnightblue" d="M285.392,-116.362C270.229,-107.201 248.192,-93.8869 231.342,-83.7066"/>
<polygon fill="midnightblue" stroke="midnightblue" points="232.96,-80.595 222.591,-78.4195 229.34,-86.5864 232.96,-80.595"/>
</g>
<!-- Node13 -->
<g id="node26" class="node"><title>Node13</title>
<polygon fill="white" stroke="#bfbfbf" points="240,-58.5 240,-79.5 298,-79.5 298,-58.5 240,-58.5"/>
<text text-anchor="middle" x="269" y="-66.5" font-family="Helvetica,sans-Serif" font-size="10.00">QtGlobal</text>
</g>
<!-- Node8&#45;&gt;Node13 -->
<g id="edge26" class="edge"><title>Node8&#45;&gt;Node13</title>
<path fill="none" stroke="midnightblue" d="M296.764,-116.362C292.163,-108.513 285.775,-97.6159 280.286,-88.2527"/>
<polygon fill="midnightblue" stroke="midnightblue" points="283.273,-86.4276 275.197,-79.5707 277.234,-89.9677 283.273,-86.4276"/>
</g>
<!-- Node14&#45;&gt;Node10 -->
<g id="edge40" class="edge"><title>Node14&#45;&gt;Node10</title>
<path fill="none" stroke="midnightblue" d="M459.017,-116.497C433.473,-106.553 395.138,-91.6309 368.271,-81.1727"/>
<polygon fill="midnightblue" stroke="midnightblue" points="369.525,-77.905 358.937,-77.5391 366.986,-84.4283 369.525,-77.905"/>
</g>
<!-- Node14&#45;&gt;Node11 -->
<g id="edge38" class="edge"><title>Node14&#45;&gt;Node11</title>
<path fill="none" stroke="midnightblue" d="M470.043,-116.362C457.043,-107.696 438.469,-95.3126 423.573,-85.3819"/>
<polygon fill="midnightblue" stroke="midnightblue" points="425.118,-82.2055 414.856,-79.5707 421.235,-88.0299 425.118,-82.2055"/>
</g>
<!-- Node15 -->
<g id="node30" class="node"><title>Node15</title>
<polygon fill="white" stroke="#bfbfbf" points="588,-58.5 588,-79.5 636,-79.5 636,-58.5 588,-58.5"/>
<text text-anchor="middle" x="612" y="-66.5" font-family="Helvetica,sans-Serif" font-size="10.00">limits.h</text>
</g>
<!-- Node14&#45;&gt;Node15 -->
<g id="edge30" class="edge"><title>Node14&#45;&gt;Node15</title>
<path fill="none" stroke="midnightblue" d="M508.818,-116.497C528.586,-107.397 557.413,-94.1273 579.576,-83.9253"/>
<polygon fill="midnightblue" stroke="midnightblue" points="581.306,-86.982 588.926,-79.6212 578.379,-80.6234 581.306,-86.982"/>
</g>
<!-- Node16 -->
<g id="node32" class="node"><title>Node16</title>
<polygon fill="white" stroke="#bfbfbf" points="653.5,-58.5 653.5,-79.5 708.5,-79.5 708.5,-58.5 653.5,-58.5"/>
<text text-anchor="middle" x="681" y="-66.5" font-family="Helvetica,sans-Serif" font-size="10.00">QObject</text>
</g>
<!-- Node14&#45;&gt;Node16 -->
<g id="edge32" class="edge"><title>Node14&#45;&gt;Node16</title>
<path fill="none" stroke="midnightblue" d="M522.022,-116.454C552.189,-107.599 596.632,-94.5019 643.724,-80.3687"/>
<polygon fill="midnightblue" stroke="midnightblue" points="644.921,-83.6637 653.49,-77.4339 642.906,-76.9598 644.921,-83.6637"/>
</g>
<!-- Node17 -->
<g id="node34" class="node"><title>Node17</title>
<polygon fill="white" stroke="#bfbfbf" points="725.5,-58.5 725.5,-79.5 816.5,-79.5 816.5,-58.5 725.5,-58.5"/>
<text text-anchor="middle" x="771" y="-66.5" font-family="Helvetica,sans-Serif" font-size="10.00">QSocketNotifier</text>
</g>
<!-- Node14&#45;&gt;Node17 -->
<g id="edge34" class="edge"><title>Node14&#45;&gt;Node17</title>
<path fill="none" stroke="midnightblue" d="M537.836,-116.457C582.459,-107.38 648.858,-93.8717 715.503,-80.3045"/>
<polygon fill="midnightblue" stroke="midnightblue" points="716.234,-83.7275 725.335,-78.3029 714.838,-76.8682 716.234,-83.7275"/>
</g>
<!-- Node18 -->
<g id="node36" class="node"><title>Node18</title>
<polygon fill="white" stroke="#bfbfbf" points="497,-0.5 497,-21.5 549,-21.5 549,-0.5 497,-0.5"/>
<text text-anchor="middle" x="523" y="-8.5" font-family="Helvetica,sans-Serif" font-size="10.00">QEvent</text>
</g>
<!-- Node14&#45;&gt;Node18 -->
<g id="edge36" class="edge"><title>Node14&#45;&gt;Node18</title>
<path fill="none" stroke="midnightblue" d="M505.385,-116.458C518.106,-108.35 533.693,-95.8559 541,-80 548.325,-64.1044 542.07,-44.722 535,-30.5518"/>
<polygon fill="midnightblue" stroke="midnightblue" points="538.012,-28.7641 530.132,-21.6812 531.875,-32.1318 538.012,-28.7641"/>
</g>
<!-- Node19 -->
<g id="node40" class="node"><title>Node19</title>
<polygon fill="white" stroke="#bfbfbf" points="834,-58.5 834,-79.5 890,-79.5 890,-58.5 834,-58.5"/>
<text text-anchor="middle" x="862" y="-66.5" font-family="Helvetica,sans-Serif" font-size="10.00">hal/hal.h</text>
</g>
<!-- Node14&#45;&gt;Node19 -->
<g id="edge42" class="edge"><title>Node14&#45;&gt;Node19</title>
<path fill="none" stroke="midnightblue" d="M550.086,-117.287C553.099,-116.848 556.082,-116.417 559,-116 673.869,-99.5733 706.59,-104.764 823.749,-80.0208"/>
<polygon fill="midnightblue" stroke="midnightblue" points="824.789,-83.3777 833.834,-77.8619 823.323,-76.5328 824.789,-83.3777"/>
</g>
<!-- Node20 -->
<g id="node42" class="node"><title>Node20</title>
<a xlink:href="CustomEvents_8h.htm" target="_top" xlink:title="CustomEvents.h">
<polygon fill="white" stroke="black" points="440,-58.5 440,-79.5 532,-79.5 532,-58.5 440,-58.5"/>
<text text-anchor="middle" x="486" y="-66.5" font-family="Helvetica,sans-Serif" font-size="10.00">CustomEvents.h</text>
</a>
</g>
<!-- Node14&#45;&gt;Node20 -->
<g id="edge44" class="edge"><title>Node14&#45;&gt;Node20</title>
<path fill="none" stroke="midnightblue" d="M486,-116.362C486,-108.922 486,-98.7427 486,-89.7276"/>
<polygon fill="midnightblue" stroke="midnightblue" points="489.5,-89.5706 486,-79.5707 482.5,-89.5707 489.5,-89.5706"/>
</g>
<!-- Node20&#45;&gt;Node9 -->
<g id="edge46" class="edge"><title>Node20&#45;&gt;Node9</title>
<path fill="none" stroke="midnightblue" d="M456.663,-58.4966C430.481,-49.1229 391.94,-35.3242 363.137,-25.0122"/>
<polygon fill="midnightblue" stroke="midnightblue" points="363.987,-21.5987 353.392,-21.5231 361.627,-28.189 363.987,-21.5987"/>
</g>
<!-- Node20&#45;&gt;Node18 -->
<g id="edge48" class="edge"><title>Node20&#45;&gt;Node18</title>
<path fill="none" stroke="midnightblue" d="M492.786,-58.3619C497.793,-50.5131 504.745,-39.6159 510.718,-30.2527"/>
<polygon fill="midnightblue" stroke="midnightblue" points="513.829,-31.8837 516.257,-21.5707 507.928,-28.1189 513.829,-31.8837"/>
</g>
</g>
</svg>
