<?xml version="1.0" encoding="UTF-8" standalone="no"?>
<!DOCTYPE svg PUBLIC "-//W3C//DTD SVG 1.1//EN"
 "http://www.w3.org/Graphics/SVG/1.1/DTD/svg11.dtd">
<!-- Generated by graphviz version 2.26.3 (20100126.1600)
 -->
<!-- Title: G Pages: 1 -->
<svg width="1644pt" height="146pt"
 viewBox="0.00 0.00 1644.00 146.00" xmlns="http://www.w3.org/2000/svg" xmlns:xlink="http://www.w3.org/1999/xlink">
<g id="graph1" class="graph" transform="scale(1 1) rotate(0) translate(4 142)">
<title>G</title>
<polygon fill="white" stroke="white" points="-4,5 -4,-142 1641,-142 1641,5 -4,5"/>
<!-- Node1 -->
<g id="node1" class="node"><title>Node1</title>
<polygon fill="#bfbfbf" stroke="black" points="719,-116.5 719,-137.5 847,-137.5 847,-116.5 719,-116.5"/>
<text text-anchor="middle" x="783" y="-124.5" font-family="Helvetica,sans-Serif" font-size="10.00">HALSensorConnector.h</text>
</g>
<!-- Node2 -->
<g id="node3" class="node"><title>Node2</title>
<a xlink:href="DisplayManager_8cpp.htm" target="_top" xlink:title="DisplayManager.cpp">
<polygon fill="white" stroke="black" points="620.5,-58.5 620.5,-79.5 733.5,-79.5 733.5,-58.5 620.5,-58.5"/>
<text text-anchor="middle" x="677" y="-66.5" font-family="Helvetica,sans-Serif" font-size="10.00">DisplayManager.cpp</text>
</a>
</g>
<!-- Node1&#45;&gt;Node2 -->
<g id="edge2" class="edge"><title>Node1&#45;&gt;Node2</title>
<path fill="none" stroke="midnightblue" d="M754.704,-111.517C736.248,-101.419 712.644,-88.5032 696.319,-79.5707"/>
<polygon fill="midnightblue" stroke="midnightblue" points="753.105,-114.632 763.558,-116.362 756.465,-108.491 753.105,-114.632"/>
</g>
<!-- Node3 -->
<g id="node5" class="node"><title>Node3</title>
<a xlink:href="HostArm_8h.htm" target="_top" xlink:title="HostArm.h">
<polygon fill="white" stroke="black" points="750.5,-58.5 750.5,-79.5 815.5,-79.5 815.5,-58.5 750.5,-58.5"/>
<text text-anchor="middle" x="783" y="-66.5" font-family="Helvetica,sans-Serif" font-size="10.00">HostArm.h</text>
</a>
</g>
<!-- Node1&#45;&gt;Node3 -->
<g id="edge4" class="edge"><title>Node1&#45;&gt;Node3</title>
<path fill="none" stroke="midnightblue" d="M783,-106.191C783,-97.1684 783,-86.9941 783,-79.5707"/>
<polygon fill="midnightblue" stroke="midnightblue" points="779.5,-106.362 783,-116.362 786.5,-106.362 779.5,-106.362"/>
</g>
<!-- Node17 -->
<g id="node33" class="node"><title>Node17</title>
<a xlink:href="HALSensorConnector_8cpp.htm" target="_top" xlink:title="HALSensorConnector.cpp">
<polygon fill="white" stroke="black" points="833,-58.5 833,-79.5 973,-79.5 973,-58.5 833,-58.5"/>
<text text-anchor="middle" x="903" y="-66.5" font-family="Helvetica,sans-Serif" font-size="10.00">HALSensorConnector.cpp</text>
</a>
</g>
<!-- Node1&#45;&gt;Node17 -->
<g id="edge32" class="edge"><title>Node1&#45;&gt;Node17</title>
<path fill="none" stroke="midnightblue" d="M813.891,-112.069C834.906,-101.912 862.209,-88.7157 881.025,-79.6212"/>
<polygon fill="midnightblue" stroke="midnightblue" points="812.211,-108.994 804.731,-116.497 815.258,-115.296 812.211,-108.994"/>
</g>
<!-- Node4 -->
<g id="node7" class="node"><title>Node4</title>
<a xlink:href="HostArm_8cpp.htm" target="_top" xlink:title="HostArm.cpp">
<polygon fill="white" stroke="black" points="-0.5,-0.5 -0.5,-21.5 76.5,-21.5 76.5,-0.5 -0.5,-0.5"/>
<text text-anchor="middle" x="38" y="-8.5" font-family="Helvetica,sans-Serif" font-size="10.00">HostArm.cpp</text>
</a>
</g>
<!-- Node3&#45;&gt;Node4 -->
<g id="edge6" class="edge"><title>Node3&#45;&gt;Node4</title>
<path fill="none" stroke="midnightblue" d="M740.526,-58.0448C451.429,-13.0103 371.23,-63.0142 85,-22 82.2625,-21.6077 79.4498,-21.1338 76.6267,-20.6058"/>
<polygon fill="midnightblue" stroke="midnightblue" points="740.034,-61.5104 750.458,-59.6164 741.128,-54.5964 740.034,-61.5104"/>
</g>
<!-- Node5 -->
<g id="node9" class="node"><title>Node5</title>
<a xlink:href="HostArmBroadway_8cpp.htm" target="_top" xlink:title="HostArmBroadway.cpp">
<polygon fill="white" stroke="black" points="94,-0.5 94,-21.5 218,-21.5 218,-0.5 94,-0.5"/>
<text text-anchor="middle" x="156" y="-8.5" font-family="Helvetica,sans-Serif" font-size="10.00">HostArmBroadway.cpp</text>
</a>
</g>
<!-- Node3&#45;&gt;Node5 -->
<g id="edge8" class="edge"><title>Node3&#45;&gt;Node5</title>
<path fill="none" stroke="midnightblue" d="M740.582,-58.0209C513.953,-20.8646 451.788,-47.2247 227,-22 224.149,-21.6801 221.237,-21.3288 218.298,-20.9545"/>
<polygon fill="midnightblue" stroke="midnightblue" points="740.012,-61.474 750.451,-59.6616 741.16,-54.5688 740.012,-61.474"/>
</g>
<!-- Node6 -->
<g id="node11" class="node"><title>Node6</title>
<a xlink:href="HostArmCastle_8cpp.htm" target="_top" xlink:title="HostArmCastle.cpp">
<polygon fill="white" stroke="black" points="235.5,-0.5 235.5,-21.5 342.5,-21.5 342.5,-0.5 235.5,-0.5"/>
<text text-anchor="middle" x="289" y="-8.5" font-family="Helvetica,sans-Serif" font-size="10.00">HostArmCastle.cpp</text>
</a>
</g>
<!-- Node3&#45;&gt;Node6 -->
<g id="edge10" class="edge"><title>Node3&#45;&gt;Node6</title>
<path fill="none" stroke="midnightblue" d="M740.544,-57.9729C568.452,-27.9313 520.746,-44.8317 351,-22 348.291,-21.6357 345.521,-21.2376 342.725,-20.8159"/>
<polygon fill="midnightblue" stroke="midnightblue" points="739.982,-61.4278 750.439,-59.7277 741.204,-54.5353 739.982,-61.4278"/>
</g>
<!-- Node7 -->
<g id="node13" class="node"><title>Node7</title>
<a xlink:href="HostArmChile_8cpp.htm" target="_top" xlink:title="HostArmChile.cpp">
<polygon fill="white" stroke="black" points="359.5,-0.5 359.5,-21.5 460.5,-21.5 460.5,-0.5 359.5,-0.5"/>
<text text-anchor="middle" x="410" y="-8.5" font-family="Helvetica,sans-Serif" font-size="10.00">HostArmChile.cpp</text>
</a>
</g>
<!-- Node3&#45;&gt;Node7 -->
<g id="edge12" class="edge"><title>Node3&#45;&gt;Node7</title>
<path fill="none" stroke="midnightblue" d="M740.455,-57.8757C620.219,-34.4498 586.678,-40.7154 469,-22 466.325,-21.5745 463.584,-21.122 460.819,-20.6523"/>
<polygon fill="midnightblue" stroke="midnightblue" points="739.928,-61.3393 750.417,-59.8453 741.286,-54.4722 739.928,-61.3393"/>
</g>
<!-- Node8 -->
<g id="node15" class="node"><title>Node8</title>
<a xlink:href="HostArmMantaray_8cpp.htm" target="_top" xlink:title="HostArmMantaray.cpp">
<polygon fill="white" stroke="black" points="478,-0.5 478,-21.5 600,-21.5 600,-0.5 478,-0.5"/>
<text text-anchor="middle" x="539" y="-8.5" font-family="Helvetica,sans-Serif" font-size="10.00">HostArmMantaray.cpp</text>
</a>
</g>
<!-- Node3&#45;&gt;Node8 -->
<g id="edge14" class="edge"><title>Node3&#45;&gt;Node8</title>
<path fill="none" stroke="midnightblue" d="M740.293,-57.623C682.38,-43.2459 625.646,-30.282 586.691,-21.5522"/>
<polygon fill="midnightblue" stroke="midnightblue" points="739.803,-61.1079 750.353,-60.1319 741.497,-54.3159 739.803,-61.1079"/>
</g>
<!-- Node9 -->
<g id="node17" class="node"><title>Node9</title>
<a xlink:href="HostArmOpal_8cpp.htm" target="_top" xlink:title="HostArmOpal.cpp">
<polygon fill="white" stroke="black" points="617.5,-0.5 617.5,-21.5 716.5,-21.5 716.5,-0.5 617.5,-0.5"/>
<text text-anchor="middle" x="667" y="-8.5" font-family="Helvetica,sans-Serif" font-size="10.00">HostArmOpal.cpp</text>
</a>
</g>
<!-- Node3&#45;&gt;Node9 -->
<g id="edge16" class="edge"><title>Node3&#45;&gt;Node9</title>
<path fill="none" stroke="midnightblue" d="M752.864,-53.9319C732.586,-43.7932 706.35,-30.6748 688.242,-21.6212"/>
<polygon fill="midnightblue" stroke="midnightblue" points="751.484,-57.1549 761.993,-58.4966 754.614,-50.8939 751.484,-57.1549"/>
</g>
<!-- Node10 -->
<g id="node19" class="node"><title>Node10</title>
<a xlink:href="HostArmPixie_8cpp.htm" target="_top" xlink:title="HostArmPixie.cpp">
<polygon fill="white" stroke="black" points="733.5,-0.5 733.5,-21.5 832.5,-21.5 832.5,-0.5 733.5,-0.5"/>
<text text-anchor="middle" x="783" y="-8.5" font-family="Helvetica,sans-Serif" font-size="10.00">HostArmPixie.cpp</text>
</a>
</g>
<!-- Node3&#45;&gt;Node10 -->
<g id="edge18" class="edge"><title>Node3&#45;&gt;Node10</title>
<path fill="none" stroke="midnightblue" d="M783,-48.1906C783,-39.1684 783,-28.9941 783,-21.5707"/>
<polygon fill="midnightblue" stroke="midnightblue" points="779.5,-48.3619 783,-58.3619 786.5,-48.3619 779.5,-48.3619"/>
</g>
<!-- Node11 -->
<g id="node21" class="node"><title>Node11</title>
<a xlink:href="HostArmQemu_8cpp.htm" target="_top" xlink:title="HostArmQemu.cpp">
<polygon fill="white" stroke="black" points="850,-0.5 850,-21.5 954,-21.5 954,-0.5 850,-0.5"/>
<text text-anchor="middle" x="902" y="-8.5" font-family="Helvetica,sans-Serif" font-size="10.00">HostArmQemu.cpp</text>
</a>
</g>
<!-- Node3&#45;&gt;Node11 -->
<g id="edge20" class="edge"><title>Node3&#45;&gt;Node11</title>
<path fill="none" stroke="midnightblue" d="M813.634,-54.0693C834.474,-43.9121 861.549,-30.7157 880.208,-21.6212"/>
<polygon fill="midnightblue" stroke="midnightblue" points="812.006,-50.9691 804.55,-58.4966 815.073,-57.2615 812.006,-50.9691"/>
</g>
<!-- Node12 -->
<g id="node23" class="node"><title>Node12</title>
<a xlink:href="HostArmTopaz_8cpp.htm" target="_top" xlink:title="HostArmTopaz.cpp">
<polygon fill="white" stroke="black" points="971.5,-0.5 971.5,-21.5 1078.5,-21.5 1078.5,-0.5 971.5,-0.5"/>
<text text-anchor="middle" x="1025" y="-8.5" font-family="Helvetica,sans-Serif" font-size="10.00">HostArmTopaz.cpp</text>
</a>
</g>
<!-- Node3&#45;&gt;Node12 -->
<g id="edge22" class="edge"><title>Node3&#45;&gt;Node12</title>
<path fill="none" stroke="midnightblue" d="M825.624,-57.6387C883.044,-43.311 939.217,-30.3353 977.785,-21.5857"/>
<polygon fill="midnightblue" stroke="midnightblue" points="824.498,-54.3124 815.649,-60.1383 826.2,-61.1025 824.498,-54.3124"/>
</g>
<!-- Node13 -->
<g id="node25" class="node"><title>Node13</title>
<a xlink:href="HostArmUnknown_8cpp.htm" target="_top" xlink:title="HostArmUnknown.cpp">
<polygon fill="white" stroke="black" points="1095.5,-0.5 1095.5,-21.5 1216.5,-21.5 1216.5,-0.5 1095.5,-0.5"/>
<text text-anchor="middle" x="1156" y="-8.5" font-family="Helvetica,sans-Serif" font-size="10.00">HostArmUnknown.cpp</text>
</a>
</g>
<!-- Node3&#45;&gt;Node13 -->
<g id="edge24" class="edge"><title>Node3&#45;&gt;Node13</title>
<path fill="none" stroke="midnightblue" d="M825.557,-57.8593C941.389,-34.9041 973.486,-38.8152 1087,-22 1089.76,-21.5912 1092.58,-21.167 1095.43,-20.7336"/>
<polygon fill="midnightblue" stroke="midnightblue" points="824.702,-54.461 815.586,-59.86 826.079,-61.3242 824.702,-54.461"/>
</g>
<!-- Node14 -->
<g id="node27" class="node"><title>Node14</title>
<a xlink:href="HostArmWindsor_8cpp.htm" target="_top" xlink:title="HostArmWindsor.cpp">
<polygon fill="white" stroke="black" points="1234,-0.5 1234,-21.5 1350,-21.5 1350,-0.5 1234,-0.5"/>
<text text-anchor="middle" x="1292" y="-8.5" font-family="Helvetica,sans-Serif" font-size="10.00">HostArmWindsor.cpp</text>
</a>
</g>
<!-- Node3&#45;&gt;Node14 -->
<g id="edge26" class="edge"><title>Node3&#45;&gt;Node14</title>
<path fill="none" stroke="midnightblue" d="M825.433,-57.9804C1001.93,-27.3298 1050.69,-44.1034 1225,-22 1227.92,-21.6293 1230.91,-21.2261 1233.93,-20.8002"/>
<polygon fill="midnightblue" stroke="midnightblue" points="824.8,-54.5379 815.56,-59.7209 826.015,-61.4316 824.8,-54.5379"/>
</g>
<!-- Node15 -->
<g id="node29" class="node"><title>Node15</title>
<a xlink:href="HostArmWindsorNot_8cpp.htm" target="_top" xlink:title="HostArmWindsorNot.cpp">
<polygon fill="white" stroke="black" points="1368,-0.5 1368,-21.5 1500,-21.5 1500,-0.5 1368,-0.5"/>
<text text-anchor="middle" x="1434" y="-8.5" font-family="Helvetica,sans-Serif" font-size="10.00">HostArmWindsorNot.cpp</text>
</a>
</g>
<!-- Node3&#45;&gt;Node15 -->
<g id="edge28" class="edge"><title>Node3&#45;&gt;Node15</title>
<path fill="none" stroke="midnightblue" d="M825.437,-58.0222C1060.85,-19.7032 1125.27,-46.9649 1359,-22 1361.88,-21.6925 1364.82,-21.3566 1367.78,-20.9995"/>
<polygon fill="midnightblue" stroke="midnightblue" points="824.845,-54.5725 815.548,-59.6538 825.984,-61.4791 824.845,-54.5725"/>
</g>
<!-- Node16 -->
<g id="node31" class="node"><title>Node16</title>
<a xlink:href="HostArmZepfloyd_8cpp.htm" target="_top" xlink:title="HostArmZepfloyd.cpp">
<polygon fill="white" stroke="black" points="1518,-0.5 1518,-21.5 1636,-21.5 1636,-0.5 1518,-0.5"/>
<text text-anchor="middle" x="1577" y="-8.5" font-family="Helvetica,sans-Serif" font-size="10.00">HostArmZepfloyd.cpp</text>
</a>
</g>
<!-- Node3&#45;&gt;Node16 -->
<g id="edge30" class="edge"><title>Node3&#45;&gt;Node16</title>
<path fill="none" stroke="midnightblue" d="M825.438,-58.0507C1126.86,-11.1781 1209.12,-54.0409 1509,-22 1511.85,-21.6951 1514.77,-21.3506 1517.71,-20.9768"/>
<polygon fill="midnightblue" stroke="midnightblue" points="824.874,-54.5963 815.541,-59.6096 825.964,-61.511 824.874,-54.5963"/>
</g>
</g>
</svg>
