<?xml version="1.0" encoding="UTF-8" standalone="no"?>
<!DOCTYPE svg PUBLIC "-//W3C//DTD SVG 1.1//EN"
 "http://www.w3.org/Graphics/SVG/1.1/DTD/svg11.dtd">
<!-- Generated by graphviz version 2.26.3 (20100126.1600)
 -->
<!-- Title: G Pages: 1 -->
<svg width="1700pt" height="378pt"
 viewBox="0.00 0.00 1699.99 378.00" xmlns="http://www.w3.org/2000/svg" xmlns:xlink="http://www.w3.org/1999/xlink">
<g id="graph1" class="graph" transform="scale(1 1) rotate(0) translate(4 374)">
<title>G</title>
<polygon fill="white" stroke="white" points="-4,5 -4,-374 1696.99,-374 1696.99,5 -4,5"/>
<!-- Node1 -->
<g id="node1" class="node"><title>Node1</title>
<polygon fill="#bfbfbf" stroke="black" points="1457.99,-348.5 1457.99,-369.5 1605.99,-369.5 1605.99,-348.5 1457.99,-348.5"/>
<text text-anchor="middle" x="1531.99" y="-356.5" font-family="Helvetica,sans-Serif" font-size="10.00">HapticsControllerCastle.cpp</text>
</g>
<!-- Node2 -->
<g id="node3" class="node"><title>Node2</title>
<a xlink:href="Common_8h.htm" target="_top" xlink:title="Common.h">
<polygon fill="white" stroke="black" points="909.487,-0.5 909.487,-21.5 976.487,-21.5 976.487,-0.5 909.487,-0.5"/>
<text text-anchor="middle" x="942.987" y="-8.5" font-family="Helvetica,sans-Serif" font-size="10.00">Common.h</text>
</a>
</g>
<!-- Node1&#45;&gt;Node2 -->
<g id="edge2" class="edge"><title>Node1&#45;&gt;Node2</title>
<path fill="none" stroke="midnightblue" d="M1531.99,-348.444C1531.99,-328.062 1531.99,-281.868 1531.99,-243 1531.99,-243 1531.99,-243 1531.99,-127 1531.99,-111.257 1737.79,-151.292 1357.99,-58 1225.33,-25.4151 1063.18,-15.3359 986.779,-12.2848"/>
<polygon fill="midnightblue" stroke="midnightblue" points="986.705,-8.77957 976.58,-11.8993 986.441,-15.7746 986.705,-8.77957"/>
</g>
<!-- Node3 -->
<g id="node5" class="node"><title>Node3</title>
<polygon fill="white" stroke="#bfbfbf" points="1559.99,-290.5 1559.99,-311.5 1621.99,-311.5 1621.99,-290.5 1559.99,-290.5"/>
<text text-anchor="middle" x="1590.99" y="-298.5" font-family="Helvetica,sans-Serif" font-size="10.00">pthread.h</text>
</g>
<!-- Node1&#45;&gt;Node3 -->
<g id="edge4" class="edge"><title>Node1&#45;&gt;Node3</title>
<path fill="none" stroke="midnightblue" d="M1542.81,-348.362C1551.21,-340.104 1563.04,-328.472 1572.88,-318.803"/>
<polygon fill="midnightblue" stroke="midnightblue" points="1575.56,-321.077 1580.23,-311.571 1570.65,-316.085 1575.56,-321.077"/>
</g>
<!-- Node4 -->
<g id="node7" class="node"><title>Node4</title>
<polygon fill="white" stroke="#bfbfbf" points="1639.49,-290.5 1639.49,-311.5 1692.49,-311.5 1692.49,-290.5 1639.49,-290.5"/>
<text text-anchor="middle" x="1665.99" y="-298.5" font-family="Helvetica,sans-Serif" font-size="10.00">sched.h</text>
</g>
<!-- Node1&#45;&gt;Node4 -->
<g id="edge6" class="edge"><title>Node1&#45;&gt;Node4</title>
<path fill="none" stroke="midnightblue" d="M1556.25,-348.497C1577.47,-339.315 1608.49,-325.889 1632.14,-315.652"/>
<polygon fill="midnightblue" stroke="midnightblue" points="1633.66,-318.806 1641.45,-311.621 1630.88,-312.381 1633.66,-318.806"/>
</g>
<!-- Node5 -->
<g id="node9" class="node"><title>Node5</title>
<polygon fill="white" stroke="#bfbfbf" points="155.487,-58.5 155.487,-79.5 206.487,-79.5 206.487,-58.5 155.487,-58.5"/>
<text text-anchor="middle" x="180.987" y="-66.5" font-family="Helvetica,sans-Serif" font-size="10.00">string.h</text>
</g>
<!-- Node1&#45;&gt;Node5 -->
<g id="edge8" class="edge"><title>Node1&#45;&gt;Node5</title>
<path fill="none" stroke="midnightblue" d="M1457.92,-357.505C1239.36,-352.846 599.422,-337.365 391.987,-312 264.544,-296.416 190.15,-353.484 108.987,-254 66.6543,-202.111 130.061,-122.414 163.082,-87.0143"/>
<polygon fill="midnightblue" stroke="midnightblue" points="165.62,-89.4239 169.993,-79.7737 160.557,-84.5904 165.62,-89.4239"/>
</g>
<!-- Node6 -->
<g id="node11" class="node"><title>Node6</title>
<a xlink:href="HapticsController_8h.htm" target="_top" xlink:title="HapticsController.h">
<polygon fill="white" stroke="black" points="400.487,-290.5 400.487,-311.5 507.487,-311.5 507.487,-290.5 400.487,-290.5"/>
<text text-anchor="middle" x="453.987" y="-298.5" font-family="Helvetica,sans-Serif" font-size="10.00">HapticsController.h</text>
</a>
</g>
<!-- Node1&#45;&gt;Node6 -->
<g id="edge10" class="edge"><title>Node1&#45;&gt;Node6</title>
<path fill="none" stroke="midnightblue" d="M1457.89,-355.013C1257.16,-344.213 705.367,-314.525 517.552,-304.42"/>
<polygon fill="midnightblue" stroke="midnightblue" points="517.733,-300.925 507.559,-303.882 517.357,-307.915 517.733,-300.925"/>
</g>
<!-- Node6&#45;&gt;Node2 -->
<g id="edge12" class="edge"><title>Node6&#45;&gt;Node2</title>
<path fill="none" stroke="midnightblue" d="M507.712,-297.859C720.675,-285.06 1493.99,-235.131 1493.99,-185 1493.99,-185 1493.99,-185 1493.99,-127 1493.99,-75.2464 1116.95,-29.7391 986.656,-15.5577"/>
<polygon fill="midnightblue" stroke="midnightblue" points="986.943,-12.0685 976.625,-14.475 986.192,-19.0281 986.943,-12.0685"/>
</g>
<!-- Node7 -->
<g id="node14" class="node"><title>Node7</title>
<polygon fill="white" stroke="#bfbfbf" points="299.487,-58.5 299.487,-79.5 346.487,-79.5 346.487,-58.5 299.487,-58.5"/>
<text text-anchor="middle" x="322.987" y="-66.5" font-family="Helvetica,sans-Serif" font-size="10.00">stdio.h</text>
</g>
<!-- Node6&#45;&gt;Node7 -->
<g id="edge14" class="edge"><title>Node6&#45;&gt;Node7</title>
<path fill="none" stroke="midnightblue" d="M489.173,-290.474C520.154,-279.178 558.161,-259.131 542.987,-232 504.031,-162.345 452.269,-187.904 389.987,-138 370.816,-122.639 351.551,-102.144 338.632,-87.4901"/>
<polygon fill="midnightblue" stroke="midnightblue" points="341.004,-84.8821 331.808,-79.6199 335.715,-89.468 341.004,-84.8821"/>
</g>
<!-- Node8 -->
<g id="node16" class="node"><title>Node8</title>
<polygon fill="white" stroke="#bfbfbf" points="117.487,-232.5 117.487,-253.5 180.487,-253.5 180.487,-232.5 117.487,-232.5"/>
<text text-anchor="middle" x="148.987" y="-240.5" font-family="Helvetica,sans-Serif" font-size="10.00">sys/time.h</text>
</g>
<!-- Node6&#45;&gt;Node8 -->
<g id="edge16" class="edge"><title>Node6&#45;&gt;Node8</title>
<path fill="none" stroke="midnightblue" d="M400.401,-292.993C348.869,-284.957 268.604,-271.561 190.768,-254.274"/>
<polygon fill="midnightblue" stroke="midnightblue" points="191.321,-250.811 180.797,-252.034 189.787,-257.64 191.321,-250.811"/>
</g>
<!-- Node9 -->
<g id="node18" class="node"><title>Node9</title>
<polygon fill="white" stroke="#bfbfbf" points="197.487,-232.5 197.487,-253.5 282.487,-253.5 282.487,-232.5 197.487,-232.5"/>
<text text-anchor="middle" x="239.987" y="-240.5" font-family="Helvetica,sans-Serif" font-size="10.00">sys/resource.h</text>
</g>
<!-- Node6&#45;&gt;Node9 -->
<g id="edge18" class="edge"><title>Node6&#45;&gt;Node9</title>
<path fill="none" stroke="midnightblue" d="M415.233,-290.497C379.742,-280.877 327.056,-266.598 288.724,-256.209"/>
<polygon fill="midnightblue" stroke="midnightblue" points="289.381,-252.761 278.814,-253.523 287.55,-259.517 289.381,-252.761"/>
</g>
<!-- Node10 -->
<g id="node20" class="node"><title>Node10</title>
<polygon fill="white" stroke="#bfbfbf" points="299.487,-232.5 299.487,-253.5 368.487,-253.5 368.487,-232.5 299.487,-232.5"/>
<text text-anchor="middle" x="333.987" y="-240.5" font-family="Helvetica,sans-Serif" font-size="10.00">sys/types.h</text>
</g>
<!-- Node6&#45;&gt;Node10 -->
<g id="edge20" class="edge"><title>Node6&#45;&gt;Node10</title>
<path fill="none" stroke="midnightblue" d="M432.256,-290.497C413.514,-281.438 386.221,-268.246 365.152,-258.063"/>
<polygon fill="midnightblue" stroke="midnightblue" points="366.489,-254.822 355.962,-253.621 363.443,-261.124 366.489,-254.822"/>
</g>
<!-- Node11 -->
<g id="node22" class="node"><title>Node11</title>
<polygon fill="white" stroke="#bfbfbf" points="385.487,-232.5 385.487,-253.5 438.487,-253.5 438.487,-232.5 385.487,-232.5"/>
<text text-anchor="middle" x="411.987" y="-240.5" font-family="Helvetica,sans-Serif" font-size="10.00">unistd.h</text>
</g>
<!-- Node6&#45;&gt;Node11 -->
<g id="edge22" class="edge"><title>Node6&#45;&gt;Node11</title>
<path fill="none" stroke="midnightblue" d="M446.284,-290.362C440.541,-282.431 432.544,-271.389 425.717,-261.961"/>
<polygon fill="midnightblue" stroke="midnightblue" points="428.342,-259.617 419.642,-253.571 422.672,-263.723 428.342,-259.617"/>
</g>
<!-- Node12 -->
<g id="node24" class="node"><title>Node12</title>
<polygon fill="white" stroke="#bfbfbf" points="455.987,-232.5 455.987,-253.5 533.987,-253.5 533.987,-232.5 455.987,-232.5"/>
<text text-anchor="middle" x="494.987" y="-240.5" font-family="Helvetica,sans-Serif" font-size="10.00">lunaservice.h</text>
</g>
<!-- Node6&#45;&gt;Node12 -->
<g id="edge24" class="edge"><title>Node6&#45;&gt;Node12</title>
<path fill="none" stroke="midnightblue" d="M461.507,-290.362C467.113,-282.431 474.92,-271.389 481.584,-261.961"/>
<polygon fill="midnightblue" stroke="midnightblue" points="484.601,-263.757 487.515,-253.571 478.884,-259.716 484.601,-263.757"/>
</g>
<!-- Node13 -->
<g id="node26" class="node"><title>Node13</title>
<polygon fill="white" stroke="#bfbfbf" points="421.487,-0.5 421.487,-21.5 462.487,-21.5 462.487,-0.5 421.487,-0.5"/>
<text text-anchor="middle" x="441.987" y="-8.5" font-family="Helvetica,sans-Serif" font-size="10.00">glib.h</text>
</g>
<!-- Node6&#45;&gt;Node13 -->
<g id="edge26" class="edge"><title>Node6&#45;&gt;Node13</title>
<path fill="none" stroke="midnightblue" d="M400.419,-297.526C308.289,-291.002 127.846,-275.602 108.987,-254 70.0893,-209.444 -131.538,-324.006 138.987,-58 158.297,-39.0125 338.36,-20.514 411.412,-13.7243"/>
<polygon fill="midnightblue" stroke="midnightblue" points="411.744,-17.2087 421.382,-12.8089 411.104,-10.238 411.744,-17.2087"/>
</g>
<!-- Node14 -->
<g id="node28" class="node"><title>Node14</title>
<a xlink:href="HostBase_8h.htm" target="_top" xlink:title="HostBase.h">
<polygon fill="white" stroke="black" points="919.487,-232.5 919.487,-253.5 990.487,-253.5 990.487,-232.5 919.487,-232.5"/>
<text text-anchor="middle" x="954.987" y="-240.5" font-family="Helvetica,sans-Serif" font-size="10.00">HostBase.h</text>
</a>
</g>
<!-- Node6&#45;&gt;Node14 -->
<g id="edge28" class="edge"><title>Node6&#45;&gt;Node14</title>
<path fill="none" stroke="midnightblue" d="M507.603,-294.793C606.53,-283.34 816.125,-259.076 909.014,-248.322"/>
<polygon fill="midnightblue" stroke="midnightblue" points="909.689,-251.768 919.22,-247.141 908.884,-244.814 909.689,-251.768"/>
</g>
<!-- Node14&#45;&gt;Node2 -->
<g id="edge30" class="edge"><title>Node14&#45;&gt;Node2</title>
<path fill="none" stroke="midnightblue" d="M957.351,-232.239C959.306,-222.755 961.928,-208.536 962.987,-196 966.57,-153.602 960.178,-97.9664 953.987,-58 952.632,-49.2475 950.52,-39.7112 948.509,-31.53"/>
<polygon fill="midnightblue" stroke="midnightblue" points="951.871,-30.5506 945.993,-21.7356 945.091,-32.292 951.871,-30.5506"/>
</g>
<!-- Node15 -->
<g id="node31" class="node"><title>Node15</title>
<polygon fill="white" stroke="#bfbfbf" points="1119.49,-174.5 1119.49,-195.5 1196.49,-195.5 1196.49,-174.5 1119.49,-174.5"/>
<text text-anchor="middle" x="1157.99" y="-182.5" font-family="Helvetica,sans-Serif" font-size="10.00">PGContext.h</text>
</g>
<!-- Node14&#45;&gt;Node15 -->
<g id="edge32" class="edge"><title>Node14&#45;&gt;Node15</title>
<path fill="none" stroke="midnightblue" d="M990.812,-232.764C1024.31,-223.192 1074.54,-208.841 1111.2,-198.369"/>
<polygon fill="midnightblue" stroke="midnightblue" points="1112.5,-201.638 1121.15,-195.525 1110.57,-194.907 1112.5,-201.638"/>
</g>
<!-- Node16 -->
<g id="node33" class="node"><title>Node16</title>
<polygon fill="white" stroke="#bfbfbf" points="1213.99,-174.5 1213.99,-195.5 1281.99,-195.5 1281.99,-174.5 1213.99,-174.5"/>
<text text-anchor="middle" x="1247.99" y="-182.5" font-family="Helvetica,sans-Serif" font-size="10.00">PContext.h</text>
</g>
<!-- Node14&#45;&gt;Node16 -->
<g id="edge34" class="edge"><title>Node14&#45;&gt;Node16</title>
<path fill="none" stroke="midnightblue" d="M990.739,-237.027C1037.49,-229.052 1122.16,-214.052 1203.83,-196.162"/>
<polygon fill="midnightblue" stroke="midnightblue" points="1204.76,-199.541 1213.77,-193.966 1203.25,-192.705 1204.76,-199.541"/>
</g>
<!-- Node17 -->
<g id="node35" class="node"><title>Node17</title>
<polygon fill="white" stroke="#bfbfbf" points="1299.99,-174.5 1299.99,-195.5 1365.99,-195.5 1365.99,-174.5 1299.99,-174.5"/>
<text text-anchor="middle" x="1332.99" y="-182.5" font-family="Helvetica,sans-Serif" font-size="10.00">PPixmap.h</text>
</g>
<!-- Node14&#45;&gt;Node17 -->
<g id="edge36" class="edge"><title>Node14&#45;&gt;Node17</title>
<path fill="none" stroke="midnightblue" d="M990.531,-239.414C1050.35,-233.079 1175.08,-218.587 1289.61,-196.108"/>
<polygon fill="midnightblue" stroke="midnightblue" points="1290.47,-199.505 1299.6,-194.122 1289.11,-192.639 1290.47,-199.505"/>
</g>
<!-- Node18 -->
<g id="node37" class="node"><title>Node18</title>
<a xlink:href="TaskBase_8h.htm" target="_top" xlink:title="TaskBase.h">
<polygon fill="white" stroke="black" points="583.987,-174.5 583.987,-195.5 655.987,-195.5 655.987,-174.5 583.987,-174.5"/>
<text text-anchor="middle" x="619.987" y="-182.5" font-family="Helvetica,sans-Serif" font-size="10.00">TaskBase.h</text>
</a>
</g>
<!-- Node14&#45;&gt;Node18 -->
<g id="edge38" class="edge"><title>Node14&#45;&gt;Node18</title>
<path fill="none" stroke="midnightblue" d="M919.334,-237.743C865.267,-229.63 759.367,-213.189 669.987,-196 668.711,-195.755 667.417,-195.501 666.112,-195.242"/>
<polygon fill="midnightblue" stroke="midnightblue" points="666.49,-191.746 655.99,-193.16 665.08,-198.603 666.49,-191.746"/>
</g>
<!-- Node26 -->
<g id="node64" class="node"><title>Node26</title>
<a xlink:href="Mutex_8h.htm" target="_top" xlink:title="Mutex.h">
<polygon fill="white" stroke="black" points="884.487,-116.5 884.487,-137.5 937.487,-137.5 937.487,-116.5 884.487,-116.5"/>
<text text-anchor="middle" x="910.987" y="-124.5" font-family="Helvetica,sans-Serif" font-size="10.00">Mutex.h</text>
</a>
</g>
<!-- Node14&#45;&gt;Node26 -->
<g id="edge92" class="edge"><title>Node14&#45;&gt;Node26</title>
<path fill="none" stroke="midnightblue" d="M919.258,-241.748C856.392,-238.712 730.075,-228.607 702.987,-196 629.38,-107.395 529.697,-221.422 870.987,-138 872.072,-137.735 873.171,-137.462 874.281,-137.182"/>
<polygon fill="midnightblue" stroke="midnightblue" points="875.571,-140.463 884.363,-134.55 873.803,-133.69 875.571,-140.463"/>
</g>
<!-- Node28 -->
<g id="node75" class="node"><title>Node28</title>
<a xlink:href="CustomEvents_8h.htm" target="_top" xlink:title="CustomEvents.h">
<polygon fill="white" stroke="black" points="1009.99,-174.5 1009.99,-195.5 1101.99,-195.5 1101.99,-174.5 1009.99,-174.5"/>
<text text-anchor="middle" x="1055.99" y="-182.5" font-family="Helvetica,sans-Serif" font-size="10.00">CustomEvents.h</text>
</a>
</g>
<!-- Node14&#45;&gt;Node28 -->
<g id="edge94" class="edge"><title>Node14&#45;&gt;Node28</title>
<path fill="none" stroke="midnightblue" d="M973.512,-232.362C988.888,-223.532 1010.98,-210.844 1028.43,-200.822"/>
<polygon fill="midnightblue" stroke="midnightblue" points="1030.65,-203.586 1037.58,-195.571 1027.16,-197.515 1030.65,-203.586"/>
</g>
<!-- Node30 -->
<g id="node80" class="node"><title>Node30</title>
<a xlink:href="InputControl_8h.htm" target="_top" xlink:title="InputControl.h">
<polygon fill="white" stroke="black" points="1383.49,-174.5 1383.49,-195.5 1466.49,-195.5 1466.49,-174.5 1383.49,-174.5"/>
<text text-anchor="middle" x="1424.99" y="-182.5" font-family="Helvetica,sans-Serif" font-size="10.00">InputControl.h</text>
</a>
</g>
<!-- Node14&#45;&gt;Node30 -->
<g id="edge100" class="edge"><title>Node14&#45;&gt;Node30</title>
<path fill="none" stroke="midnightblue" d="M990.561,-240.29C1061.53,-234.61 1225.87,-220.09 1373.18,-196.176"/>
<polygon fill="midnightblue" stroke="midnightblue" points="1374.01,-199.587 1383.31,-194.513 1372.87,-192.68 1374.01,-199.587"/>
</g>
<!-- Node32 -->
<g id="node84" class="node"><title>Node32</title>
<polygon fill="white" stroke="#bfbfbf" points="711.487,-174.5 711.487,-195.5 836.487,-195.5 836.487,-174.5 711.487,-174.5"/>
<text text-anchor="middle" x="773.987" y="-182.5" font-family="Helvetica,sans-Serif" font-size="10.00">webosDeviceKeymap.h</text>
</g>
<!-- Node14&#45;&gt;Node32 -->
<g id="edge104" class="edge"><title>Node14&#45;&gt;Node32</title>
<path fill="none" stroke="midnightblue" d="M922.21,-232.497C892.574,-223 848.765,-208.962 816.456,-198.609"/>
<polygon fill="midnightblue" stroke="midnightblue" points="817.418,-195.242 806.826,-195.523 815.281,-201.908 817.418,-195.242"/>
</g>
<!-- Node33 -->
<g id="node86" class="node"><title>Node33</title>
<polygon fill="white" stroke="#bfbfbf" points="853.487,-174.5 853.487,-195.5 882.487,-195.5 882.487,-174.5 853.487,-174.5"/>
<text text-anchor="middle" x="867.987" y="-182.5" font-family="Helvetica,sans-Serif" font-size="10.00">Qt</text>
</g>
<!-- Node14&#45;&gt;Node33 -->
<g id="edge106" class="edge"><title>Node14&#45;&gt;Node33</title>
<path fill="none" stroke="midnightblue" d="M939.03,-232.362C925.58,-223.395 906.161,-210.449 891.024,-200.358"/>
<polygon fill="midnightblue" stroke="midnightblue" points="892.946,-197.433 882.684,-194.798 889.063,-203.257 892.946,-197.433"/>
</g>
<!-- Node34 -->
<g id="node88" class="node"><title>Node34</title>
<polygon fill="white" stroke="#bfbfbf" points="899.987,-174.5 899.987,-195.5 953.987,-195.5 953.987,-174.5 899.987,-174.5"/>
<text text-anchor="middle" x="926.987" y="-182.5" font-family="Helvetica,sans-Serif" font-size="10.00">QImage</text>
</g>
<!-- Node14&#45;&gt;Node34 -->
<g id="edge108" class="edge"><title>Node14&#45;&gt;Node34</title>
<path fill="none" stroke="midnightblue" d="M949.852,-232.362C946.142,-224.677 941.02,-214.069 936.565,-204.84"/>
<polygon fill="midnightblue" stroke="midnightblue" points="939.59,-203.055 932.09,-195.571 933.286,-206.098 939.59,-203.055"/>
</g>
<!-- Node18&#45;&gt;Node2 -->
<g id="edge40" class="edge"><title>Node18&#45;&gt;Node2</title>
<path fill="none" stroke="midnightblue" d="M654.519,-174.424C703.974,-158.392 796.747,-124.978 866.987,-80 889.527,-65.5666 911.778,-44.32 926.321,-29.222"/>
<polygon fill="midnightblue" stroke="midnightblue" points="929.243,-31.2247 933.56,-21.5492 924.152,-26.4208 929.243,-31.2247"/>
</g>
<!-- Node18&#45;&gt;Node13 -->
<g id="edge42" class="edge"><title>Node18&#45;&gt;Node13</title>
<path fill="none" stroke="midnightblue" d="M583.882,-182.685C482.922,-175.382 201.518,-149.078 146.987,-80 140.929,-72.3253 140.641,-65.438 146.987,-58 164.038,-38.0181 338.865,-20.2266 411.06,-13.6737"/>
<polygon fill="midnightblue" stroke="midnightblue" points="411.683,-17.1319 421.332,-12.7545 411.059,-10.1598 411.683,-17.1319"/>
</g>
<!-- Node19 -->
<g id="node41" class="node"><title>Node19</title>
<polygon fill="white" stroke="#bfbfbf" points="685.487,-116.5 685.487,-137.5 714.487,-137.5 714.487,-116.5 685.487,-116.5"/>
<text text-anchor="middle" x="699.987" y="-124.5" font-family="Helvetica,sans-Serif" font-size="10.00">list</text>
</g>
<!-- Node18&#45;&gt;Node19 -->
<g id="edge44" class="edge"><title>Node18&#45;&gt;Node19</title>
<path fill="none" stroke="midnightblue" d="M634.661,-174.362C646.501,-165.777 663.372,-153.546 677.003,-143.664"/>
<polygon fill="midnightblue" stroke="midnightblue" points="679.365,-146.274 685.407,-137.571 675.257,-140.607 679.365,-146.274"/>
</g>
<!-- Node20 -->
<g id="node43" class="node"><title>Node20</title>
<a xlink:href="sptr_8h.htm" target="_top" xlink:title="sptr.h">
<polygon fill="white" stroke="black" points="717.487,-58.5 717.487,-79.5 760.487,-79.5 760.487,-58.5 717.487,-58.5"/>
<text text-anchor="middle" x="738.987" y="-66.5" font-family="Helvetica,sans-Serif" font-size="10.00">sptr.h</text>
</a>
</g>
<!-- Node18&#45;&gt;Node20 -->
<g id="edge46" class="edge"><title>Node18&#45;&gt;Node20</title>
<path fill="none" stroke="midnightblue" d="M621.153,-174.401C623.281,-159.674 629.049,-132.927 643.987,-116 653.03,-105.753 683.561,-91.5747 707.6,-81.4763"/>
<polygon fill="midnightblue" stroke="midnightblue" points="709.187,-84.6079 717.094,-77.5557 706.515,-78.1379 709.187,-84.6079"/>
</g>
<!-- Node21 -->
<g id="node47" class="node"><title>Node21</title>
<a xlink:href="AsyncCaller_8h.htm" target="_top" xlink:title="AsyncCaller.h">
<polygon fill="white" stroke="black" points="777.487,-58.5 777.487,-79.5 858.487,-79.5 858.487,-58.5 777.487,-58.5"/>
<text text-anchor="middle" x="817.987" y="-66.5" font-family="Helvetica,sans-Serif" font-size="10.00">AsyncCaller.h</text>
</a>
</g>
<!-- Node18&#45;&gt;Node21 -->
<g id="edge52" class="edge"><title>Node18&#45;&gt;Node21</title>
<path fill="none" stroke="midnightblue" d="M626.13,-174.297C635.321,-159.196 654.049,-131.728 676.987,-116 692.192,-105.574 734.354,-92.1439 768.641,-82.3114"/>
<polygon fill="midnightblue" stroke="midnightblue" points="769.863,-85.6031 778.531,-79.5111 767.956,-78.8678 769.863,-85.6031"/>
</g>
<!-- Node22 -->
<g id="node51" class="node"><title>Node22</title>
<a xlink:href="Event_8h.htm" target="_top" xlink:title="Event.h">
<polygon fill="white" stroke="black" points="512.987,-116.5 512.987,-137.5 564.987,-137.5 564.987,-116.5 512.987,-116.5"/>
<text text-anchor="middle" x="538.987" y="-124.5" font-family="Helvetica,sans-Serif" font-size="10.00">Event.h</text>
</a>
</g>
<!-- Node18&#45;&gt;Node22 -->
<g id="edge58" class="edge"><title>Node18&#45;&gt;Node22</title>
<path fill="none" stroke="midnightblue" d="M605.131,-174.362C593.142,-165.777 576.06,-153.546 562.259,-143.664"/>
<polygon fill="midnightblue" stroke="midnightblue" points="563.918,-140.547 553.75,-137.571 559.843,-146.238 563.918,-140.547"/>
</g>
<!-- Node18&#45;&gt;Node26 -->
<g id="edge76" class="edge"><title>Node18&#45;&gt;Node26</title>
<path fill="none" stroke="midnightblue" d="M656.002,-176.9C660.701,-175.895 665.455,-174.904 669.987,-174 758.989,-156.247 782.476,-158.053 870.987,-138 872.076,-137.753 873.18,-137.496 874.292,-137.231"/>
<polygon fill="midnightblue" stroke="midnightblue" points="875.555,-140.522 884.392,-134.677 873.84,-133.735 875.555,-140.522"/>
</g>
<!-- Node27 -->
<g id="node69" class="node"><title>Node27</title>
<a xlink:href="SingletonTimer_8h.htm" target="_top" xlink:title="SingletonTimer.h">
<polygon fill="white" stroke="black" points="398.987,-116.5 398.987,-137.5 494.987,-137.5 494.987,-116.5 398.987,-116.5"/>
<text text-anchor="middle" x="446.987" y="-124.5" font-family="Helvetica,sans-Serif" font-size="10.00">SingletonTimer.h</text>
</a>
</g>
<!-- Node18&#45;&gt;Node27 -->
<g id="edge84" class="edge"><title>Node18&#45;&gt;Node27</title>
<path fill="none" stroke="midnightblue" d="M588.658,-174.497C560.455,-165.041 518.821,-151.083 487.979,-140.743"/>
<polygon fill="midnightblue" stroke="midnightblue" points="488.969,-137.383 478.375,-137.523 486.744,-144.02 488.969,-137.383"/>
</g>
<!-- Node20&#45;&gt;Node2 -->
<g id="edge48" class="edge"><title>Node20&#45;&gt;Node2</title>
<path fill="none" stroke="midnightblue" d="M760.539,-60.8412C763.368,-59.846 766.238,-58.8735 768.987,-58 812.958,-44.0296 863.999,-30.5607 899.379,-21.65"/>
<polygon fill="midnightblue" stroke="midnightblue" points="900.526,-24.9711 909.377,-19.1484 898.827,-18.1805 900.526,-24.9711"/>
</g>
<!-- Node20&#45;&gt;Node13 -->
<g id="edge50" class="edge"><title>Node20&#45;&gt;Node13</title>
<path fill="none" stroke="midnightblue" d="M717.148,-64.7351C664.956,-54.5426 532.864,-28.7469 472.694,-16.9965"/>
<polygon fill="midnightblue" stroke="midnightblue" points="473.152,-13.5199 462.666,-15.0383 471.81,-20.3902 473.152,-13.5199"/>
</g>
<!-- Node21&#45;&gt;Node2 -->
<g id="edge54" class="edge"><title>Node21&#45;&gt;Node2</title>
<path fill="none" stroke="midnightblue" d="M840.624,-58.4966C860.235,-49.397 888.834,-36.1273 910.821,-25.9253"/>
<polygon fill="midnightblue" stroke="midnightblue" points="912.499,-29.0051 920.097,-21.6212 909.552,-22.6554 912.499,-29.0051"/>
</g>
<!-- Node21&#45;&gt;Node13 -->
<g id="edge56" class="edge"><title>Node21&#45;&gt;Node13</title>
<path fill="none" stroke="midnightblue" d="M777.395,-59.6312C774.555,-59.0546 771.731,-58.5044 768.987,-58 660.655,-38.0864 530.834,-21.6001 472.731,-14.6057"/>
<polygon fill="midnightblue" stroke="midnightblue" points="473.083,-11.1229 462.738,-13.4115 472.252,-18.0735 473.083,-11.1229"/>
</g>
<!-- Node22&#45;&gt;Node2 -->
<g id="edge60" class="edge"><title>Node22&#45;&gt;Node2</title>
<path fill="none" stroke="midnightblue" d="M565.094,-119.26C592.131,-110.887 635.334,-96.4998 670.987,-80 688.698,-71.8039 690.734,-64.9022 708.987,-58 772.719,-33.9015 851.121,-21.3698 899.054,-15.4883"/>
<polygon fill="midnightblue" stroke="midnightblue" points="899.576,-18.951 909.095,-14.299 898.752,-11.9995 899.576,-18.951"/>
</g>
<!-- Node22&#45;&gt;Node5 -->
<g id="edge68" class="edge"><title>Node22&#45;&gt;Node5</title>
<path fill="none" stroke="midnightblue" d="M512.738,-118.255C509.804,-117.425 506.844,-116.652 503.987,-116 401.059,-92.4959 276.866,-78.3091 216.879,-72.3271"/>
<polygon fill="midnightblue" stroke="midnightblue" points="217.08,-68.8301 206.786,-71.3381 216.397,-75.7968 217.08,-68.8301"/>
</g>
<!-- Node22&#45;&gt;Node7 -->
<g id="edge66" class="edge"><title>Node22&#45;&gt;Node7</title>
<path fill="none" stroke="midnightblue" d="M512.671,-118.52C509.749,-117.641 506.81,-116.784 503.987,-116 441.291,-98.595 422.094,-99.0156 356.279,-80.2053"/>
<polygon fill="midnightblue" stroke="midnightblue" points="357.253,-76.8435 346.673,-77.4196 355.303,-83.5665 357.253,-76.8435"/>
</g>
<!-- Node22&#45;&gt;Node13 -->
<g id="edge64" class="edge"><title>Node22&#45;&gt;Node13</title>
<path fill="none" stroke="midnightblue" d="M512.949,-117.331C495.803,-109.687 474.167,-97.3873 460.987,-80 450.461,-66.1126 445.765,-46.7319 443.672,-32.0451"/>
<polygon fill="midnightblue" stroke="midnightblue" points="447.126,-31.4411 442.524,-21.8978 440.17,-32.2278 447.126,-31.4411"/>
</g>
<!-- Node22&#45;&gt;Node20 -->
<g id="edge74" class="edge"><title>Node22&#45;&gt;Node20</title>
<path fill="none" stroke="midnightblue" d="M565.056,-119.809C597.632,-110.769 655.053,-94.6561 703.987,-80 705.055,-79.6802 706.14,-79.3527 707.236,-79.0201"/>
<polygon fill="midnightblue" stroke="midnightblue" points="708.646,-82.2479 717.171,-75.9565 706.584,-75.5587 708.646,-82.2479"/>
</g>
<!-- Node23 -->
<g id="node54" class="node"><title>Node23</title>
<polygon fill="white" stroke="#bfbfbf" points="363.987,-58.5 363.987,-79.5 413.987,-79.5 413.987,-58.5 363.987,-58.5"/>
<text text-anchor="middle" x="388.987" y="-66.5" font-family="Helvetica,sans-Serif" font-size="10.00">stdint.h</text>
</g>
<!-- Node22&#45;&gt;Node23 -->
<g id="edge62" class="edge"><title>Node22&#45;&gt;Node23</title>
<path fill="none" stroke="midnightblue" d="M512.859,-116.897C488.19,-107.358 451.024,-92.9877 423.839,-82.4759"/>
<polygon fill="midnightblue" stroke="midnightblue" points="424.905,-79.1359 414.316,-78.7938 422.381,-85.6648 424.905,-79.1359"/>
</g>
<!-- Node24 -->
<g id="node59" class="node"><title>Node24</title>
<polygon fill="white" stroke="#bfbfbf" points="469.987,-58.5 469.987,-79.5 555.987,-79.5 555.987,-58.5 469.987,-58.5"/>
<text text-anchor="middle" x="512.987" y="-66.5" font-family="Helvetica,sans-Serif" font-size="10.00">qnamespace.h</text>
</g>
<!-- Node22&#45;&gt;Node24 -->
<g id="edge70" class="edge"><title>Node22&#45;&gt;Node24</title>
<path fill="none" stroke="midnightblue" d="M534.218,-116.362C530.773,-108.677 526.018,-98.0686 521.881,-88.8399"/>
<polygon fill="midnightblue" stroke="midnightblue" points="525.01,-87.264 517.726,-79.5707 518.623,-90.1275 525.01,-87.264"/>
</g>
<!-- Node25 -->
<g id="node61" class="node"><title>Node25</title>
<polygon fill="white" stroke="#bfbfbf" points="573.987,-58.5 573.987,-79.5 661.987,-79.5 661.987,-58.5 573.987,-58.5"/>
<text text-anchor="middle" x="617.987" y="-66.5" font-family="Helvetica,sans-Serif" font-size="10.00">SysMgrEvent.h</text>
</g>
<!-- Node22&#45;&gt;Node25 -->
<g id="edge72" class="edge"><title>Node22&#45;&gt;Node25</title>
<path fill="none" stroke="midnightblue" d="M553.477,-116.362C565.17,-107.777 581.83,-95.5459 595.29,-85.6636"/>
<polygon fill="midnightblue" stroke="midnightblue" points="597.6,-88.31 603.589,-79.5707 593.457,-82.6675 597.6,-88.31"/>
</g>
<!-- Node26&#45;&gt;Node2 -->
<g id="edge78" class="edge"><title>Node26&#45;&gt;Node2</title>
<path fill="none" stroke="midnightblue" d="M918.917,-116.442C925.298,-107.314 933.858,-93.4979 937.987,-80 942.811,-64.2313 943.899,-45.5298 943.871,-31.5769"/>
<polygon fill="midnightblue" stroke="midnightblue" points="947.369,-31.4756 943.659,-21.5519 940.371,-31.6237 947.369,-31.4756"/>
</g>
<!-- Node26&#45;&gt;Node13 -->
<g id="edge82" class="edge"><title>Node26&#45;&gt;Node13</title>
<path fill="none" stroke="midnightblue" d="M907.586,-116.461C901.919,-100.773 888.941,-71.6614 866.987,-58 833.604,-37.2267 564.395,-18.6466 472.556,-12.8571"/>
<polygon fill="midnightblue" stroke="midnightblue" points="472.705,-9.35976 462.507,-12.2303 472.269,-16.3462 472.705,-9.35976"/>
</g>
<!-- Node26&#45;&gt;Node20 -->
<g id="edge80" class="edge"><title>Node26&#45;&gt;Node20</title>
<path fill="none" stroke="midnightblue" d="M884.469,-118.501C857.779,-109.887 815.213,-95.985 770.221,-80.3701"/>
<polygon fill="midnightblue" stroke="midnightblue" points="771.183,-76.9989 760.588,-77.0133 768.879,-83.6091 771.183,-76.9989"/>
</g>
<!-- Node27&#45;&gt;Node2 -->
<g id="edge86" class="edge"><title>Node27&#45;&gt;Node2</title>
<path fill="none" stroke="midnightblue" d="M398.918,-121.976C341.056,-114.148 255.784,-95.832 290.987,-58 311.728,-35.71 755.985,-17.7591 899.032,-12.5393"/>
<polygon fill="midnightblue" stroke="midnightblue" points="899.327,-16.031 909.194,-12.1714 899.074,-9.03556 899.327,-16.031"/>
</g>
<!-- Node27&#45;&gt;Node13 -->
<g id="edge88" class="edge"><title>Node27&#45;&gt;Node13</title>
<path fill="none" stroke="midnightblue" d="M398.833,-121.736C348.716,-115.148 275.168,-101.976 257.987,-80 216.473,-26.8973 348.629,-14.6623 411.119,-11.8436"/>
<polygon fill="midnightblue" stroke="midnightblue" points="411.364,-15.3368 421.218,-11.4429 411.087,-8.34226 411.364,-15.3368"/>
</g>
<!-- Node27&#45;&gt;Node23 -->
<g id="edge90" class="edge"><title>Node27&#45;&gt;Node23</title>
<path fill="none" stroke="midnightblue" d="M436.349,-116.362C428.092,-108.104 416.46,-96.4725 406.79,-86.8029"/>
<polygon fill="midnightblue" stroke="midnightblue" points="409.104,-84.1669 399.558,-79.5707 404.154,-89.1166 409.104,-84.1669"/>
</g>
<!-- Node28&#45;&gt;Node2 -->
<g id="edge96" class="edge"><title>Node28&#45;&gt;Node2</title>
<path fill="none" stroke="midnightblue" d="M1054.84,-174.376C1051.87,-151.091 1042.06,-94.7139 1013.99,-58 1003.99,-44.9278 989.267,-34.3376 975.813,-26.5424"/>
<polygon fill="midnightblue" stroke="midnightblue" points="977.228,-23.3271 966.776,-21.5961 973.868,-29.4676 977.228,-23.3271"/>
</g>
<!-- Node29 -->
<g id="node78" class="node"><title>Node29</title>
<polygon fill="white" stroke="#bfbfbf" points="1065.99,-116.5 1065.99,-137.5 1117.99,-137.5 1117.99,-116.5 1065.99,-116.5"/>
<text text-anchor="middle" x="1091.99" y="-124.5" font-family="Helvetica,sans-Serif" font-size="10.00">QEvent</text>
</g>
<!-- Node28&#45;&gt;Node29 -->
<g id="edge98" class="edge"><title>Node28&#45;&gt;Node29</title>
<path fill="none" stroke="midnightblue" d="M1062.59,-174.362C1067.46,-166.513 1074.23,-155.616 1080.04,-146.253"/>
<polygon fill="midnightblue" stroke="midnightblue" points="1083.13,-147.913 1085.43,-137.571 1077.18,-144.221 1083.13,-147.913"/>
</g>
<!-- Node31 -->
<g id="node82" class="node"><title>Node31</title>
<polygon fill="white" stroke="#bfbfbf" points="1396.99,-116.5 1396.99,-137.5 1452.99,-137.5 1452.99,-116.5 1396.99,-116.5"/>
<text text-anchor="middle" x="1424.99" y="-124.5" font-family="Helvetica,sans-Serif" font-size="10.00">hal/hal.h</text>
</g>
<!-- Node30&#45;&gt;Node31 -->
<g id="edge102" class="edge"><title>Node30&#45;&gt;Node31</title>
<path fill="none" stroke="midnightblue" d="M1424.99,-174.362C1424.99,-166.922 1424.99,-156.743 1424.99,-147.728"/>
<polygon fill="midnightblue" stroke="midnightblue" points="1428.49,-147.571 1424.99,-137.571 1421.49,-147.571 1428.49,-147.571"/>
</g>
</g>
</svg>
