<?xml version="1.0" encoding="UTF-8" standalone="no"?>
<!DOCTYPE svg PUBLIC "-//W3C//DTD SVG 1.1//EN"
 "http://www.w3.org/Graphics/SVG/1.1/DTD/svg11.dtd">
<!-- Generated by graphviz version 2.26.3 (20100126.1600)
 -->
<!-- Title: G Pages: 1 -->
<svg width="1508pt" height="320pt"
 viewBox="0.00 0.00 1508.00 320.00" xmlns="http://www.w3.org/2000/svg" xmlns:xlink="http://www.w3.org/1999/xlink">
<g id="graph1" class="graph" transform="scale(1 1) rotate(0) translate(4 316)">
<title>G</title>
<polygon fill="white" stroke="white" points="-4,5 -4,-316 1505,-316 1505,5 -4,5"/>
<!-- Node1 -->
<g id="node1" class="node"><title>Node1</title>
<polygon fill="#bfbfbf" stroke="black" points="1061.5,-290.5 1061.5,-311.5 1168.5,-311.5 1168.5,-290.5 1061.5,-290.5"/>
<text text-anchor="middle" x="1115" y="-298.5" font-family="Helvetica,sans-Serif" font-size="10.00">HapticsController.h</text>
</g>
<!-- Node2 -->
<g id="node3" class="node"><title>Node2</title>
<a xlink:href="Common_8h.htm" target="_top" xlink:title="Common.h">
<polygon fill="white" stroke="black" points="188.5,-0.5 188.5,-21.5 255.5,-21.5 255.5,-0.5 188.5,-0.5"/>
<text text-anchor="middle" x="222" y="-8.5" font-family="Helvetica,sans-Serif" font-size="10.00">Common.h</text>
</a>
</g>
<!-- Node1&#45;&gt;Node2 -->
<g id="edge2" class="edge"><title>Node1&#45;&gt;Node2</title>
<path fill="none" stroke="midnightblue" d="M1061.22,-298.263C838.496,-286.579 0,-239.007 0,-185 0,-185 0,-185 0,-127 0,-47.4979 113.222,-22.3874 177.951,-14.528"/>
<polygon fill="midnightblue" stroke="midnightblue" points="178.735,-17.9621 188.283,-13.3693 177.955,-11.0057 178.735,-17.9621"/>
</g>
<!-- Node3 -->
<g id="node5" class="node"><title>Node3</title>
<polygon fill="white" stroke="#bfbfbf" points="981.5,-58.5 981.5,-79.5 1028.5,-79.5 1028.5,-58.5 981.5,-58.5"/>
<text text-anchor="middle" x="1005" y="-66.5" font-family="Helvetica,sans-Serif" font-size="10.00">stdio.h</text>
</g>
<!-- Node1&#45;&gt;Node3 -->
<g id="edge4" class="edge"><title>Node1&#45;&gt;Node3</title>
<path fill="none" stroke="midnightblue" d="M1088.45,-290.35C1072.55,-282.606 1053.29,-270.567 1042,-254 1007.22,-202.951 1003.6,-126.717 1004.11,-90.1082"/>
<polygon fill="midnightblue" stroke="midnightblue" points="1007.62,-89.7859 1004.39,-79.6968 1000.62,-89.6008 1007.62,-89.7859"/>
</g>
<!-- Node4 -->
<g id="node7" class="node"><title>Node4</title>
<polygon fill="white" stroke="#bfbfbf" points="1083.5,-232.5 1083.5,-253.5 1146.5,-253.5 1146.5,-232.5 1083.5,-232.5"/>
<text text-anchor="middle" x="1115" y="-240.5" font-family="Helvetica,sans-Serif" font-size="10.00">sys/time.h</text>
</g>
<!-- Node1&#45;&gt;Node4 -->
<g id="edge6" class="edge"><title>Node1&#45;&gt;Node4</title>
<path fill="none" stroke="midnightblue" d="M1115,-290.362C1115,-282.922 1115,-272.743 1115,-263.728"/>
<polygon fill="midnightblue" stroke="midnightblue" points="1118.5,-263.571 1115,-253.571 1111.5,-263.571 1118.5,-263.571"/>
</g>
<!-- Node5 -->
<g id="node9" class="node"><title>Node5</title>
<polygon fill="white" stroke="#bfbfbf" points="1163.5,-232.5 1163.5,-253.5 1248.5,-253.5 1248.5,-232.5 1163.5,-232.5"/>
<text text-anchor="middle" x="1206" y="-240.5" font-family="Helvetica,sans-Serif" font-size="10.00">sys/resource.h</text>
</g>
<!-- Node1&#45;&gt;Node5 -->
<g id="edge8" class="edge"><title>Node1&#45;&gt;Node5</title>
<path fill="none" stroke="midnightblue" d="M1131.69,-290.362C1145.42,-281.614 1165.08,-269.079 1180.74,-259.101"/>
<polygon fill="midnightblue" stroke="midnightblue" points="1182.86,-261.897 1189.42,-253.571 1179.1,-255.994 1182.86,-261.897"/>
</g>
<!-- Node6 -->
<g id="node11" class="node"><title>Node6</title>
<polygon fill="white" stroke="#bfbfbf" points="1265.5,-232.5 1265.5,-253.5 1334.5,-253.5 1334.5,-232.5 1265.5,-232.5"/>
<text text-anchor="middle" x="1300" y="-240.5" font-family="Helvetica,sans-Serif" font-size="10.00">sys/types.h</text>
</g>
<!-- Node1&#45;&gt;Node6 -->
<g id="edge10" class="edge"><title>Node1&#45;&gt;Node6</title>
<path fill="none" stroke="midnightblue" d="M1148.5,-290.497C1178.79,-281 1223.57,-266.962 1256.59,-256.609"/>
<polygon fill="midnightblue" stroke="midnightblue" points="1257.94,-259.854 1266.44,-253.523 1255.85,-253.175 1257.94,-259.854"/>
</g>
<!-- Node7 -->
<g id="node13" class="node"><title>Node7</title>
<polygon fill="white" stroke="#bfbfbf" points="1351.5,-232.5 1351.5,-253.5 1404.5,-253.5 1404.5,-232.5 1351.5,-232.5"/>
<text text-anchor="middle" x="1378" y="-240.5" font-family="Helvetica,sans-Serif" font-size="10.00">unistd.h</text>
</g>
<!-- Node1&#45;&gt;Node7 -->
<g id="edge12" class="edge"><title>Node1&#45;&gt;Node7</title>
<path fill="none" stroke="midnightblue" d="M1168.79,-291.502C1212.95,-283.345 1277.27,-270.645 1341.45,-254.244"/>
<polygon fill="midnightblue" stroke="midnightblue" points="1342.52,-257.581 1351.33,-251.689 1340.77,-250.804 1342.52,-257.581"/>
</g>
<!-- Node8 -->
<g id="node15" class="node"><title>Node8</title>
<polygon fill="white" stroke="#bfbfbf" points="1422,-232.5 1422,-253.5 1500,-253.5 1500,-232.5 1422,-232.5"/>
<text text-anchor="middle" x="1461" y="-240.5" font-family="Helvetica,sans-Serif" font-size="10.00">lunaservice.h</text>
</g>
<!-- Node1&#45;&gt;Node8 -->
<g id="edge14" class="edge"><title>Node1&#45;&gt;Node8</title>
<path fill="none" stroke="midnightblue" d="M1168.76,-293.658C1226.48,-285.521 1321.08,-271.452 1411.85,-254.132"/>
<polygon fill="midnightblue" stroke="midnightblue" points="1412.6,-257.552 1421.75,-252.225 1411.27,-250.678 1412.6,-257.552"/>
</g>
<!-- Node9 -->
<g id="node17" class="node"><title>Node9</title>
<polygon fill="white" stroke="#bfbfbf" points="473.5,-0.5 473.5,-21.5 514.5,-21.5 514.5,-0.5 473.5,-0.5"/>
<text text-anchor="middle" x="494" y="-8.5" font-family="Helvetica,sans-Serif" font-size="10.00">glib.h</text>
</g>
<!-- Node1&#45;&gt;Node9 -->
<g id="edge16" class="edge"><title>Node1&#45;&gt;Node9</title>
<path fill="none" stroke="midnightblue" d="M1103.61,-290.446C1094.63,-281.534 1082.42,-268.015 1075,-254 1060.12,-225.889 1056,-216.808 1056,-185 1056,-185 1056,-185 1056,-127 1056,-95.1919 1061.45,-78.3503 1037,-58 997.499,-25.1177 633.936,-14.1962 524.82,-11.644"/>
<polygon fill="midnightblue" stroke="midnightblue" points="524.864,-8.14421 514.787,-11.4164 524.705,-15.1424 524.864,-8.14421"/>
</g>
<!-- Node10 -->
<g id="node19" class="node"><title>Node10</title>
<a xlink:href="HostBase_8h.htm" target="_top" xlink:title="HostBase.h">
<polygon fill="white" stroke="black" points="447.5,-232.5 447.5,-253.5 518.5,-253.5 518.5,-232.5 447.5,-232.5"/>
<text text-anchor="middle" x="483" y="-240.5" font-family="Helvetica,sans-Serif" font-size="10.00">HostBase.h</text>
</a>
</g>
<!-- Node1&#45;&gt;Node10 -->
<g id="edge18" class="edge"><title>Node1&#45;&gt;Node10</title>
<path fill="none" stroke="midnightblue" d="M1061.39,-296.08C939.419,-284.887 642.932,-257.677 528.816,-247.205"/>
<polygon fill="midnightblue" stroke="midnightblue" points="528.951,-243.702 518.673,-246.274 528.311,-250.673 528.951,-243.702"/>
</g>
<!-- Node10&#45;&gt;Node2 -->
<g id="edge20" class="edge"><title>Node10&#45;&gt;Node2</title>
<path fill="none" stroke="midnightblue" d="M447.468,-241.744C349.822,-237.929 82.9085,-224.924 57,-196 33.277,-169.516 39.8903,-147.168 57,-116 82.7361,-69.1172 139.267,-40.1766 178.954,-24.8477"/>
<polygon fill="midnightblue" stroke="midnightblue" points="180.251,-28.0999 188.401,-21.3312 177.808,-21.5397 180.251,-28.0999"/>
</g>
<!-- Node11 -->
<g id="node22" class="node"><title>Node11</title>
<polygon fill="white" stroke="#bfbfbf" points="647.5,-174.5 647.5,-195.5 724.5,-195.5 724.5,-174.5 647.5,-174.5"/>
<text text-anchor="middle" x="686" y="-182.5" font-family="Helvetica,sans-Serif" font-size="10.00">PGContext.h</text>
</g>
<!-- Node10&#45;&gt;Node11 -->
<g id="edge22" class="edge"><title>Node10&#45;&gt;Node11</title>
<path fill="none" stroke="midnightblue" d="M518.825,-232.764C552.326,-223.192 602.556,-208.841 639.21,-198.369"/>
<polygon fill="midnightblue" stroke="midnightblue" points="640.509,-201.638 649.163,-195.525 638.586,-194.907 640.509,-201.638"/>
</g>
<!-- Node12 -->
<g id="node24" class="node"><title>Node12</title>
<polygon fill="white" stroke="#bfbfbf" points="742,-174.5 742,-195.5 810,-195.5 810,-174.5 742,-174.5"/>
<text text-anchor="middle" x="776" y="-182.5" font-family="Helvetica,sans-Serif" font-size="10.00">PContext.h</text>
</g>
<!-- Node10&#45;&gt;Node12 -->
<g id="edge24" class="edge"><title>Node10&#45;&gt;Node12</title>
<path fill="none" stroke="midnightblue" d="M518.751,-237.027C565.507,-229.052 650.169,-214.052 731.838,-196.162"/>
<polygon fill="midnightblue" stroke="midnightblue" points="732.77,-199.541 741.78,-193.966 731.261,-192.705 732.77,-199.541"/>
</g>
<!-- Node13 -->
<g id="node26" class="node"><title>Node13</title>
<polygon fill="white" stroke="#bfbfbf" points="176,-174.5 176,-195.5 242,-195.5 242,-174.5 176,-174.5"/>
<text text-anchor="middle" x="209" y="-182.5" font-family="Helvetica,sans-Serif" font-size="10.00">PPixmap.h</text>
</g>
<!-- Node10&#45;&gt;Node13 -->
<g id="edge26" class="edge"><title>Node10&#45;&gt;Node13</title>
<path fill="none" stroke="midnightblue" d="M447.162,-235.876C402.372,-226.905 323.402,-210.863 256,-196 254.734,-195.721 253.45,-195.435 252.153,-195.145"/>
<polygon fill="midnightblue" stroke="midnightblue" points="252.627,-191.664 242.1,-192.859 251.075,-198.489 252.627,-191.664"/>
</g>
<!-- Node14 -->
<g id="node28" class="node"><title>Node14</title>
<a xlink:href="TaskBase_8h.htm" target="_top" xlink:title="TaskBase.h">
<polygon fill="white" stroke="black" points="558,-174.5 558,-195.5 630,-195.5 630,-174.5 558,-174.5"/>
<text text-anchor="middle" x="594" y="-182.5" font-family="Helvetica,sans-Serif" font-size="10.00">TaskBase.h</text>
</a>
</g>
<!-- Node10&#45;&gt;Node14 -->
<g id="edge28" class="edge"><title>Node10&#45;&gt;Node14</title>
<path fill="none" stroke="midnightblue" d="M503.101,-232.497C520.282,-223.519 545.23,-210.484 564.645,-200.339"/>
<polygon fill="midnightblue" stroke="midnightblue" points="566.431,-203.354 573.673,-195.621 563.189,-197.15 566.431,-203.354"/>
</g>
<!-- Node23 -->
<g id="node56" class="node"><title>Node23</title>
<a xlink:href="Mutex_8h.htm" target="_top" xlink:title="Mutex.h">
<polygon fill="white" stroke="black" points="243.5,-116.5 243.5,-137.5 296.5,-137.5 296.5,-116.5 243.5,-116.5"/>
<text text-anchor="middle" x="270" y="-124.5" font-family="Helvetica,sans-Serif" font-size="10.00">Mutex.h</text>
</a>
</g>
<!-- Node10&#45;&gt;Node23 -->
<g id="edge82" class="edge"><title>Node10&#45;&gt;Node23</title>
<path fill="none" stroke="midnightblue" d="M447.365,-238.717C397.725,-232.046 311.331,-217.649 289,-196 276.078,-183.473 271.696,-163.033 270.327,-147.644"/>
<polygon fill="midnightblue" stroke="midnightblue" points="273.815,-147.315 269.784,-137.517 266.825,-147.69 273.815,-147.315"/>
</g>
<!-- Node25 -->
<g id="node67" class="node"><title>Node25</title>
<a xlink:href="CustomEvents_8h.htm" target="_top" xlink:title="CustomEvents.h">
<polygon fill="white" stroke="black" points="66,-174.5 66,-195.5 158,-195.5 158,-174.5 66,-174.5"/>
<text text-anchor="middle" x="112" y="-182.5" font-family="Helvetica,sans-Serif" font-size="10.00">CustomEvents.h</text>
</a>
</g>
<!-- Node10&#45;&gt;Node25 -->
<g id="edge84" class="edge"><title>Node10&#45;&gt;Node25</title>
<path fill="none" stroke="midnightblue" d="M447.365,-238.288C390.52,-230.645 275.592,-214.668 168.215,-196.151"/>
<polygon fill="midnightblue" stroke="midnightblue" points="168.634,-192.672 158.182,-194.41 167.436,-199.568 168.634,-192.672"/>
</g>
<!-- Node27 -->
<g id="node72" class="node"><title>Node27</title>
<a xlink:href="InputControl_8h.htm" target="_top" xlink:title="InputControl.h">
<polygon fill="white" stroke="black" points="867.5,-174.5 867.5,-195.5 950.5,-195.5 950.5,-174.5 867.5,-174.5"/>
<text text-anchor="middle" x="909" y="-182.5" font-family="Helvetica,sans-Serif" font-size="10.00">InputControl.h</text>
</a>
</g>
<!-- Node10&#45;&gt;Node27 -->
<g id="edge90" class="edge"><title>Node10&#45;&gt;Node27</title>
<path fill="none" stroke="midnightblue" d="M518.588,-238.155C593.894,-227.902 769.634,-203.975 857.323,-192.036"/>
<polygon fill="midnightblue" stroke="midnightblue" points="857.877,-195.493 867.313,-190.676 856.932,-188.557 857.877,-195.493"/>
</g>
<!-- Node29 -->
<g id="node76" class="node"><title>Node29</title>
<polygon fill="white" stroke="#bfbfbf" points="297.5,-174.5 297.5,-195.5 422.5,-195.5 422.5,-174.5 297.5,-174.5"/>
<text text-anchor="middle" x="360" y="-182.5" font-family="Helvetica,sans-Serif" font-size="10.00">webosDeviceKeymap.h</text>
</g>
<!-- Node10&#45;&gt;Node29 -->
<g id="edge94" class="edge"><title>Node10&#45;&gt;Node29</title>
<path fill="none" stroke="midnightblue" d="M460.726,-232.497C441.428,-223.397 413.287,-210.127 391.652,-199.925"/>
<polygon fill="midnightblue" stroke="midnightblue" points="393.062,-196.721 382.524,-195.621 390.076,-203.052 393.062,-196.721"/>
</g>
<!-- Node30 -->
<g id="node78" class="node"><title>Node30</title>
<polygon fill="white" stroke="#bfbfbf" points="439.5,-174.5 439.5,-195.5 468.5,-195.5 468.5,-174.5 439.5,-174.5"/>
<text text-anchor="middle" x="454" y="-182.5" font-family="Helvetica,sans-Serif" font-size="10.00">Qt</text>
</g>
<!-- Node10&#45;&gt;Node30 -->
<g id="edge96" class="edge"><title>Node10&#45;&gt;Node30</title>
<path fill="none" stroke="midnightblue" d="M477.681,-232.362C473.797,-224.595 468.421,-213.843 463.773,-204.546"/>
<polygon fill="midnightblue" stroke="midnightblue" points="466.888,-202.95 459.285,-195.571 460.627,-206.08 466.888,-202.95"/>
</g>
<!-- Node31 -->
<g id="node80" class="node"><title>Node31</title>
<polygon fill="white" stroke="#bfbfbf" points="486,-174.5 486,-195.5 540,-195.5 540,-174.5 486,-174.5"/>
<text text-anchor="middle" x="513" y="-182.5" font-family="Helvetica,sans-Serif" font-size="10.00">QImage</text>
</g>
<!-- Node10&#45;&gt;Node31 -->
<g id="edge98" class="edge"><title>Node10&#45;&gt;Node31</title>
<path fill="none" stroke="midnightblue" d="M488.502,-232.362C492.52,-224.595 498.081,-213.843 502.89,-204.546"/>
<polygon fill="midnightblue" stroke="midnightblue" points="506.047,-206.061 507.532,-195.571 499.829,-202.845 506.047,-206.061"/>
</g>
<!-- Node14&#45;&gt;Node2 -->
<g id="edge30" class="edge"><title>Node14&#45;&gt;Node2</title>
<path fill="none" stroke="midnightblue" d="M557.734,-175.721C554.789,-175.093 551.85,-174.51 549,-174 479.862,-161.637 284.361,-187.964 235,-138 207.36,-110.022 211.791,-59.8124 217.113,-31.6327"/>
<polygon fill="midnightblue" stroke="midnightblue" points="220.574,-32.1851 219.207,-21.6788 213.723,-30.7443 220.574,-32.1851"/>
</g>
<!-- Node14&#45;&gt;Node9 -->
<g id="edge32" class="edge"><title>Node14&#45;&gt;Node9</title>
<path fill="none" stroke="midnightblue" d="M630.063,-175.673C709.894,-154.674 895.867,-103.677 913,-80 918.732,-72.0786 919.517,-65.2891 913,-58 887.158,-29.0976 617.118,-15.8435 524.767,-12.1322"/>
<polygon fill="midnightblue" stroke="midnightblue" points="524.789,-8.63044 514.66,-11.7359 524.515,-15.6251 524.789,-8.63044"/>
</g>
<!-- Node15 -->
<g id="node32" class="node"><title>Node15</title>
<polygon fill="white" stroke="#bfbfbf" points="414.5,-116.5 414.5,-137.5 443.5,-137.5 443.5,-116.5 414.5,-116.5"/>
<text text-anchor="middle" x="429" y="-124.5" font-family="Helvetica,sans-Serif" font-size="10.00">list</text>
</g>
<!-- Node14&#45;&gt;Node15 -->
<g id="edge34" class="edge"><title>Node14&#45;&gt;Node15</title>
<path fill="none" stroke="midnightblue" d="M562.025,-174.472C534.171,-165.195 492.754,-151.149 457,-138 455.787,-137.554 454.546,-137.091 453.296,-136.619"/>
<polygon fill="midnightblue" stroke="midnightblue" points="454.365,-133.28 443.776,-132.945 451.845,-139.811 454.365,-133.28"/>
</g>
<!-- Node16 -->
<g id="node34" class="node"><title>Node16</title>
<a xlink:href="sptr_8h.htm" target="_top" xlink:title="sptr.h">
<polygon fill="white" stroke="black" points="287.5,-58.5 287.5,-79.5 330.5,-79.5 330.5,-58.5 287.5,-58.5"/>
<text text-anchor="middle" x="309" y="-66.5" font-family="Helvetica,sans-Serif" font-size="10.00">sptr.h</text>
</a>
</g>
<!-- Node14&#45;&gt;Node16 -->
<g id="edge36" class="edge"><title>Node14&#45;&gt;Node16</title>
<path fill="none" stroke="midnightblue" d="M557.71,-176.107C504.062,-162.935 409.495,-139.61 406,-138 376.7,-124.504 347.068,-101.813 328.402,-86.1579"/>
<polygon fill="midnightblue" stroke="midnightblue" points="330.512,-83.3576 320.638,-79.5183 325.963,-88.6776 330.512,-83.3576"/>
</g>
<!-- Node17 -->
<g id="node38" class="node"><title>Node17</title>
<a xlink:href="AsyncCaller_8h.htm" target="_top" xlink:title="AsyncCaller.h">
<polygon fill="white" stroke="black" points="385.5,-58.5 385.5,-79.5 466.5,-79.5 466.5,-58.5 385.5,-58.5"/>
<text text-anchor="middle" x="426" y="-66.5" font-family="Helvetica,sans-Serif" font-size="10.00">AsyncCaller.h</text>
</a>
</g>
<!-- Node14&#45;&gt;Node17 -->
<g id="edge42" class="edge"><title>Node14&#45;&gt;Node17</title>
<path fill="none" stroke="midnightblue" d="M562.228,-174.427C540.682,-166.38 512.195,-153.97 490,-138 470.266,-123.801 451.851,-102.797 439.888,-87.6958"/>
<polygon fill="midnightblue" stroke="midnightblue" points="442.508,-85.3625 433.629,-79.5827 436.966,-89.6383 442.508,-85.3625"/>
</g>
<!-- Node18 -->
<g id="node42" class="node"><title>Node18</title>
<a xlink:href="Event_8h.htm" target="_top" xlink:title="Event.h">
<polygon fill="white" stroke="black" points="646,-116.5 646,-137.5 698,-137.5 698,-116.5 646,-116.5"/>
<text text-anchor="middle" x="672" y="-124.5" font-family="Helvetica,sans-Serif" font-size="10.00">Event.h</text>
</a>
</g>
<!-- Node14&#45;&gt;Node18 -->
<g id="edge48" class="edge"><title>Node14&#45;&gt;Node18</title>
<path fill="none" stroke="midnightblue" d="M608.306,-174.362C619.851,-165.777 636.3,-153.546 649.59,-143.664"/>
<polygon fill="midnightblue" stroke="midnightblue" points="651.848,-146.346 657.784,-137.571 647.671,-140.729 651.848,-146.346"/>
</g>
<!-- Node14&#45;&gt;Node23 -->
<g id="edge66" class="edge"><title>Node14&#45;&gt;Node23</title>
<path fill="none" stroke="midnightblue" d="M557.702,-175.887C554.764,-175.222 551.836,-174.585 549,-174 503.315,-164.581 371.851,-143.268 307.033,-132.894"/>
<polygon fill="midnightblue" stroke="midnightblue" points="307.281,-129.39 296.854,-131.267 306.176,-136.302 307.281,-129.39"/>
</g>
<!-- Node24 -->
<g id="node61" class="node"><title>Node24</title>
<a xlink:href="SingletonTimer_8h.htm" target="_top" xlink:title="SingletonTimer.h">
<polygon fill="white" stroke="black" points="499,-116.5 499,-137.5 595,-137.5 595,-116.5 499,-116.5"/>
<text text-anchor="middle" x="547" y="-124.5" font-family="Helvetica,sans-Serif" font-size="10.00">SingletonTimer.h</text>
</a>
</g>
<!-- Node14&#45;&gt;Node24 -->
<g id="edge74" class="edge"><title>Node14&#45;&gt;Node24</title>
<path fill="none" stroke="midnightblue" d="M585.379,-174.362C578.82,-166.268 569.634,-154.932 561.894,-145.38"/>
<polygon fill="midnightblue" stroke="midnightblue" points="564.581,-143.136 555.566,-137.571 559.142,-147.544 564.581,-143.136"/>
</g>
<!-- Node16&#45;&gt;Node2 -->
<g id="edge38" class="edge"><title>Node16&#45;&gt;Node2</title>
<path fill="none" stroke="midnightblue" d="M293.043,-58.3619C280.043,-49.6955 261.469,-37.3126 246.573,-27.3819"/>
<polygon fill="midnightblue" stroke="midnightblue" points="248.118,-24.2055 237.856,-21.5707 244.235,-30.0299 248.118,-24.2055"/>
</g>
<!-- Node16&#45;&gt;Node9 -->
<g id="edge40" class="edge"><title>Node16&#45;&gt;Node9</title>
<path fill="none" stroke="midnightblue" d="M330.584,-62.2332C363.429,-51.9356 426.088,-32.2912 463.55,-20.5464"/>
<polygon fill="midnightblue" stroke="midnightblue" points="464.907,-23.789 473.402,-17.4576 462.813,-17.1095 464.907,-23.789"/>
</g>
<!-- Node17&#45;&gt;Node2 -->
<g id="edge44" class="edge"><title>Node17&#45;&gt;Node2</title>
<path fill="none" stroke="midnightblue" d="M389.057,-58.4966C354.318,-48.6199 302.3,-33.8304 265.555,-23.3833"/>
<polygon fill="midnightblue" stroke="midnightblue" points="266.199,-19.9277 255.623,-20.5595 264.285,-26.6609 266.199,-19.9277"/>
</g>
<!-- Node17&#45;&gt;Node9 -->
<g id="edge46" class="edge"><title>Node17&#45;&gt;Node9</title>
<path fill="none" stroke="midnightblue" d="M438.472,-58.3619C448.345,-49.9408 462.333,-38.0105 473.798,-28.2308"/>
<polygon fill="midnightblue" stroke="midnightblue" points="476.27,-30.7231 481.607,-21.5707 471.727,-25.3972 476.27,-30.7231"/>
</g>
<!-- Node18&#45;&gt;Node2 -->
<g id="edge50" class="edge"><title>Node18&#45;&gt;Node2</title>
<path fill="none" stroke="midnightblue" d="M659.798,-116.479C639.236,-98.9715 598.241,-65.0764 581,-58 524.746,-34.9117 348.469,-19.8766 265.718,-13.9096"/>
<polygon fill="midnightblue" stroke="midnightblue" points="265.852,-10.4105 255.63,-13.1939 265.357,-17.3929 265.852,-10.4105"/>
</g>
<!-- Node18&#45;&gt;Node3 -->
<g id="edge56" class="edge"><title>Node18&#45;&gt;Node3</title>
<path fill="none" stroke="midnightblue" d="M698.13,-122.449C757.946,-112.03 904.774,-86.4567 971.284,-74.8724"/>
<polygon fill="midnightblue" stroke="midnightblue" points="971.992,-78.3019 981.243,-73.1378 970.791,-71.4057 971.992,-78.3019"/>
</g>
<!-- Node18&#45;&gt;Node9 -->
<g id="edge54" class="edge"><title>Node18&#45;&gt;Node9</title>
<path fill="none" stroke="midnightblue" d="M698.394,-125.522C752.333,-121.893 872.21,-110.504 897,-80 903.167,-72.4121 903.501,-65.3034 897,-58 872.303,-30.2558 614.723,-16.3237 524.784,-12.2778"/>
<polygon fill="midnightblue" stroke="midnightblue" points="524.818,-8.77596 514.674,-11.8331 524.51,-15.7692 524.818,-8.77596"/>
</g>
<!-- Node18&#45;&gt;Node16 -->
<g id="edge64" class="edge"><title>Node18&#45;&gt;Node16</title>
<path fill="none" stroke="midnightblue" d="M645.847,-122.75C633.207,-120.701 617.816,-118.213 604,-116 503.136,-99.8439 477.864,-96.1561 377,-80 365.156,-78.1029 352.155,-76.0039 340.722,-74.1524"/>
<polygon fill="midnightblue" stroke="midnightblue" points="341.172,-70.6797 330.741,-72.5344 340.052,-77.5895 341.172,-70.6797"/>
</g>
<!-- Node19 -->
<g id="node45" class="node"><title>Node19</title>
<polygon fill="white" stroke="#bfbfbf" points="522,-58.5 522,-79.5 572,-79.5 572,-58.5 522,-58.5"/>
<text text-anchor="middle" x="547" y="-66.5" font-family="Helvetica,sans-Serif" font-size="10.00">stdint.h</text>
</g>
<!-- Node18&#45;&gt;Node19 -->
<g id="edge52" class="edge"><title>Node18&#45;&gt;Node19</title>
<path fill="none" stroke="midnightblue" d="M649.363,-116.497C629.752,-107.397 601.154,-94.1273 579.167,-83.9253"/>
<polygon fill="midnightblue" stroke="midnightblue" points="580.435,-80.6554 569.891,-79.6212 577.488,-87.0051 580.435,-80.6554"/>
</g>
<!-- Node20 -->
<g id="node49" class="node"><title>Node20</title>
<polygon fill="white" stroke="#bfbfbf" points="733.5,-58.5 733.5,-79.5 784.5,-79.5 784.5,-58.5 733.5,-58.5"/>
<text text-anchor="middle" x="759" y="-66.5" font-family="Helvetica,sans-Serif" font-size="10.00">string.h</text>
</g>
<!-- Node18&#45;&gt;Node20 -->
<g id="edge58" class="edge"><title>Node18&#45;&gt;Node20</title>
<path fill="none" stroke="midnightblue" d="M687.957,-116.362C700.957,-107.696 719.531,-95.3126 734.427,-85.3819"/>
<polygon fill="midnightblue" stroke="midnightblue" points="736.765,-88.0299 743.144,-79.5707 732.882,-82.2055 736.765,-88.0299"/>
</g>
<!-- Node21 -->
<g id="node51" class="node"><title>Node21</title>
<polygon fill="white" stroke="#bfbfbf" points="802,-58.5 802,-79.5 888,-79.5 888,-58.5 802,-58.5"/>
<text text-anchor="middle" x="845" y="-66.5" font-family="Helvetica,sans-Serif" font-size="10.00">qnamespace.h</text>
</g>
<!-- Node18&#45;&gt;Node21 -->
<g id="edge60" class="edge"><title>Node18&#45;&gt;Node21</title>
<path fill="none" stroke="midnightblue" d="M698.275,-118.191C726.287,-108.8 771.026,-93.8006 803.745,-82.8312"/>
<polygon fill="midnightblue" stroke="midnightblue" points="805.113,-86.0642 813.481,-79.567 802.887,-79.4273 805.113,-86.0642"/>
</g>
<!-- Node22 -->
<g id="node53" class="node"><title>Node22</title>
<polygon fill="white" stroke="#bfbfbf" points="628,-58.5 628,-79.5 716,-79.5 716,-58.5 628,-58.5"/>
<text text-anchor="middle" x="672" y="-66.5" font-family="Helvetica,sans-Serif" font-size="10.00">SysMgrEvent.h</text>
</g>
<!-- Node18&#45;&gt;Node22 -->
<g id="edge62" class="edge"><title>Node18&#45;&gt;Node22</title>
<path fill="none" stroke="midnightblue" d="M672,-116.362C672,-108.922 672,-98.7427 672,-89.7276"/>
<polygon fill="midnightblue" stroke="midnightblue" points="675.5,-89.5706 672,-79.5707 668.5,-89.5707 675.5,-89.5706"/>
</g>
<!-- Node23&#45;&gt;Node2 -->
<g id="edge68" class="edge"><title>Node23&#45;&gt;Node2</title>
<path fill="none" stroke="midnightblue" d="M264.042,-116.374C258.903,-106.976 251.467,-92.8082 246,-80 239.176,-64.0118 232.779,-45.3647 228.308,-31.4889"/>
<polygon fill="midnightblue" stroke="midnightblue" points="231.639,-30.4128 225.29,-21.9311 224.964,-32.5209 231.639,-30.4128"/>
</g>
<!-- Node23&#45;&gt;Node9 -->
<g id="edge72" class="edge"><title>Node23&#45;&gt;Node9</title>
<path fill="none" stroke="midnightblue" d="M267.984,-116.352C265.803,-101.318 264.377,-73.9303 279,-58 303.474,-31.3378 409.469,-18.3979 462.926,-13.472"/>
<polygon fill="midnightblue" stroke="midnightblue" points="463.529,-16.9324 473.182,-12.5661 462.913,-9.95954 463.529,-16.9324"/>
</g>
<!-- Node23&#45;&gt;Node16 -->
<g id="edge70" class="edge"><title>Node23&#45;&gt;Node16</title>
<path fill="none" stroke="midnightblue" d="M277.153,-116.362C282.486,-108.431 289.911,-97.3885 296.251,-87.9606"/>
<polygon fill="midnightblue" stroke="midnightblue" points="299.217,-89.8221 301.892,-79.5707 293.408,-85.9161 299.217,-89.8221"/>
</g>
<!-- Node24&#45;&gt;Node2 -->
<g id="edge76" class="edge"><title>Node24&#45;&gt;Node2</title>
<path fill="none" stroke="midnightblue" d="M498.638,-117.096C464.004,-109.177 416.672,-96.6453 377,-80 359.005,-72.4497 356.543,-66.5479 339,-58 313.688,-45.6672 284.276,-33.8624 261.273,-25.1684"/>
<polygon fill="midnightblue" stroke="midnightblue" points="262.43,-21.8645 251.838,-21.6404 259.978,-28.4211 262.43,-21.8645"/>
</g>
<!-- Node24&#45;&gt;Node9 -->
<g id="edge78" class="edge"><title>Node24&#45;&gt;Node9</title>
<path fill="none" stroke="midnightblue" d="M537.395,-116.138C529.805,-107.047 519.449,-93.4374 513,-80 505.619,-64.6205 500.69,-45.8907 497.706,-31.828"/>
<polygon fill="midnightblue" stroke="midnightblue" points="501.079,-30.8431 495.72,-21.7037 494.21,-32.1904 501.079,-30.8431"/>
</g>
<!-- Node24&#45;&gt;Node19 -->
<g id="edge80" class="edge"><title>Node24&#45;&gt;Node19</title>
<path fill="none" stroke="midnightblue" d="M547,-116.362C547,-108.922 547,-98.7427 547,-89.7276"/>
<polygon fill="midnightblue" stroke="midnightblue" points="550.5,-89.5706 547,-79.5707 543.5,-89.5707 550.5,-89.5706"/>
</g>
<!-- Node25&#45;&gt;Node2 -->
<g id="edge86" class="edge"><title>Node25&#45;&gt;Node2</title>
<path fill="none" stroke="midnightblue" d="M115.216,-174.359C122.454,-151.517 141.642,-96.7196 170,-58 178.201,-46.8019 189.417,-36.2521 199.334,-27.996"/>
<polygon fill="midnightblue" stroke="midnightblue" points="201.652,-30.6234 207.263,-21.6364 197.272,-25.1628 201.652,-30.6234"/>
</g>
<!-- Node26 -->
<g id="node70" class="node"><title>Node26</title>
<polygon fill="white" stroke="#bfbfbf" points="66,-116.5 66,-137.5 118,-137.5 118,-116.5 66,-116.5"/>
<text text-anchor="middle" x="92" y="-124.5" font-family="Helvetica,sans-Serif" font-size="10.00">QEvent</text>
</g>
<!-- Node25&#45;&gt;Node26 -->
<g id="edge88" class="edge"><title>Node25&#45;&gt;Node26</title>
<path fill="none" stroke="midnightblue" d="M108.332,-174.362C105.71,-166.758 102.101,-156.294 98.9431,-147.135"/>
<polygon fill="midnightblue" stroke="midnightblue" points="102.214,-145.883 95.6451,-137.571 95.5962,-148.165 102.214,-145.883"/>
</g>
<!-- Node28 -->
<g id="node74" class="node"><title>Node28</title>
<polygon fill="white" stroke="#bfbfbf" points="934,-116.5 934,-137.5 990,-137.5 990,-116.5 934,-116.5"/>
<text text-anchor="middle" x="962" y="-124.5" font-family="Helvetica,sans-Serif" font-size="10.00">hal/hal.h</text>
</g>
<!-- Node27&#45;&gt;Node28 -->
<g id="edge92" class="edge"><title>Node27&#45;&gt;Node28</title>
<path fill="none" stroke="midnightblue" d="M918.721,-174.362C926.192,-166.186 936.686,-154.702 945.469,-145.091"/>
<polygon fill="midnightblue" stroke="midnightblue" points="948.179,-147.314 952.341,-137.571 943.011,-142.592 948.179,-147.314"/>
</g>
</g>
</svg>
