<?xml version="1.0" encoding="UTF-8" standalone="no"?>
<!DOCTYPE svg PUBLIC "-//W3C//DTD SVG 1.1//EN"
 "http://www.w3.org/Graphics/SVG/1.1/DTD/svg11.dtd">
<!-- Generated by graphviz version 2.26.3 (20100126.1600)
 -->
<!-- Title: G Pages: 1 -->
<svg width="2077pt" height="320pt"
 viewBox="0.00 0.00 2077.00 320.00" xmlns="http://www.w3.org/2000/svg" xmlns:xlink="http://www.w3.org/1999/xlink">
<g id="graph1" class="graph" transform="scale(1 1) rotate(0) translate(4 316)">
<title>G</title>
<polygon fill="white" stroke="white" points="-4,5 -4,-316 2074,-316 2074,5 -4,5"/>
<!-- Node1 -->
<g id="node1" class="node"><title>Node1</title>
<polygon fill="#bfbfbf" stroke="black" points="631,-290.5 631,-311.5 729,-311.5 729,-290.5 631,-290.5"/>
<text text-anchor="middle" x="680" y="-298.5" font-family="Helvetica,sans-Serif" font-size="10.00">hiddkbd_qws.cpp</text>
</g>
<!-- Node2 -->
<g id="node3" class="node"><title>Node2</title>
<a xlink:href="Common_8h.htm" target="_top" xlink:title="Common.h">
<polygon fill="white" stroke="black" points="1243.5,-0.5 1243.5,-21.5 1310.5,-21.5 1310.5,-0.5 1243.5,-0.5"/>
<text text-anchor="middle" x="1277" y="-8.5" font-family="Helvetica,sans-Serif" font-size="10.00">Common.h</text>
</a>
</g>
<!-- Node1&#45;&gt;Node2 -->
<g id="edge2" class="edge"><title>Node1&#45;&gt;Node2</title>
<path fill="none" stroke="midnightblue" d="M630.975,-299.766C491.31,-295.916 98.1678,-282.632 48,-254 15.555,-235.483 0,-222.357 0,-185 0,-185 0,-185 0,-127 0,-63.656 1009.71,-21.244 1233.45,-12.6236"/>
<polygon fill="midnightblue" stroke="midnightblue" points="1233.64,-16.1188 1243.5,-12.2387 1233.37,-9.12393 1233.64,-16.1188"/>
</g>
<!-- Node3 -->
<g id="node5" class="node"><title>Node3</title>
<polygon fill="white" stroke="#bfbfbf" points="660.5,-174.5 660.5,-195.5 689.5,-195.5 689.5,-174.5 660.5,-174.5"/>
<text text-anchor="middle" x="675" y="-182.5" font-family="Helvetica,sans-Serif" font-size="10.00">Qt</text>
</g>
<!-- Node1&#45;&gt;Node3 -->
<g id="edge4" class="edge"><title>Node1&#45;&gt;Node3</title>
<path fill="none" stroke="midnightblue" d="M729.021,-297.656C817.722,-291.103 997.445,-275.332 1016,-254 1022.42,-246.623 1022.51,-239.292 1016,-232 970.522,-181.083 782.309,-212.823 699.593,-195.408"/>
<polygon fill="midnightblue" stroke="midnightblue" points="700.362,-191.993 689.811,-192.963 698.664,-198.784 700.362,-191.993"/>
</g>
<!-- Node4 -->
<g id="node7" class="node"><title>Node4</title>
<polygon fill="white" stroke="#bfbfbf" points="66,-232.5 66,-253.5 140,-253.5 140,-232.5 66,-232.5"/>
<text text-anchor="middle" x="103" y="-240.5" font-family="Helvetica,sans-Serif" font-size="10.00">sys/socket.h</text>
</g>
<!-- Node1&#45;&gt;Node4 -->
<g id="edge6" class="edge"><title>Node1&#45;&gt;Node4</title>
<path fill="none" stroke="midnightblue" d="M630.651,-299.047C538.178,-294.864 332.445,-283.084 150.103,-253.98"/>
<polygon fill="midnightblue" stroke="midnightblue" points="150.493,-250.497 140.063,-252.355 149.375,-257.407 150.493,-250.497"/>
</g>
<!-- Node5 -->
<g id="node9" class="node"><title>Node5</title>
<polygon fill="white" stroke="#bfbfbf" points="157.5,-232.5 157.5,-253.5 212.5,-253.5 212.5,-232.5 157.5,-232.5"/>
<text text-anchor="middle" x="185" y="-240.5" font-family="Helvetica,sans-Serif" font-size="10.00">sys/un.h</text>
</g>
<!-- Node1&#45;&gt;Node5 -->
<g id="edge8" class="edge"><title>Node1&#45;&gt;Node5</title>
<path fill="none" stroke="midnightblue" d="M630.957,-299.108C548.303,-295.241 376.027,-284.26 222.833,-254.085"/>
<polygon fill="midnightblue" stroke="midnightblue" points="223.263,-250.602 212.771,-252.07 221.888,-257.466 223.263,-250.602"/>
</g>
<!-- Node6 -->
<g id="node11" class="node"><title>Node6</title>
<polygon fill="white" stroke="#bfbfbf" points="230,-232.5 230,-253.5 280,-253.5 280,-232.5 230,-232.5"/>
<text text-anchor="middle" x="255" y="-240.5" font-family="Helvetica,sans-Serif" font-size="10.00">errno.h</text>
</g>
<!-- Node1&#45;&gt;Node6 -->
<g id="edge10" class="edge"><title>Node1&#45;&gt;Node6</title>
<path fill="none" stroke="midnightblue" d="M630.726,-298.141C557.978,-293.251 417.564,-281.258 290.041,-253.89"/>
<polygon fill="midnightblue" stroke="midnightblue" points="290.619,-250.433 280.102,-251.719 289.125,-257.272 290.619,-250.433"/>
</g>
<!-- Node7 -->
<g id="node13" class="node"><title>Node7</title>
<polygon fill="white" stroke="#bfbfbf" points="298,-232.5 298,-253.5 462,-253.5 462,-232.5 298,-232.5"/>
<text text-anchor="middle" x="380" y="-240.5" font-family="Helvetica,sans-Serif" font-size="10.00">../kernel/include/linux/compiler.h</text>
</g>
<!-- Node1&#45;&gt;Node7 -->
<g id="edge12" class="edge"><title>Node1&#45;&gt;Node7</title>
<path fill="none" stroke="midnightblue" d="M630.797,-291.487C580.016,-281.67 500.55,-266.306 444.707,-255.51"/>
<polygon fill="midnightblue" stroke="midnightblue" points="445.049,-252.011 434.567,-253.55 443.72,-258.884 445.049,-252.011"/>
</g>
<!-- Node8 -->
<g id="node15" class="node"><title>Node8</title>
<polygon fill="white" stroke="#bfbfbf" points="479.5,-232.5 479.5,-253.5 626.5,-253.5 626.5,-232.5 479.5,-232.5"/>
<text text-anchor="middle" x="553" y="-240.5" font-family="Helvetica,sans-Serif" font-size="10.00">../kernel/include/linux/input.h</text>
</g>
<!-- Node1&#45;&gt;Node8 -->
<g id="edge14" class="edge"><title>Node1&#45;&gt;Node8</title>
<path fill="none" stroke="midnightblue" d="M657.001,-290.497C636.987,-281.356 607.759,-268.008 585.381,-257.788"/>
<polygon fill="midnightblue" stroke="midnightblue" points="586.807,-254.592 576.257,-253.621 583.899,-260.959 586.807,-254.592"/>
</g>
<!-- Node9 -->
<g id="node17" class="node"><title>Node9</title>
<polygon fill="white" stroke="#bfbfbf" points="643.5,-232.5 643.5,-253.5 716.5,-253.5 716.5,-232.5 643.5,-232.5"/>
<text text-anchor="middle" x="680" y="-240.5" font-family="Helvetica,sans-Serif" font-size="10.00">QWSServer</text>
</g>
<!-- Node1&#45;&gt;Node9 -->
<g id="edge16" class="edge"><title>Node1&#45;&gt;Node9</title>
<path fill="none" stroke="midnightblue" d="M680,-290.362C680,-282.922 680,-272.743 680,-263.728"/>
<polygon fill="midnightblue" stroke="midnightblue" points="683.5,-263.571 680,-253.571 676.5,-263.571 683.5,-263.571"/>
</g>
<!-- Node10 -->
<g id="node19" class="node"><title>Node10</title>
<polygon fill="white" stroke="#bfbfbf" points="733.5,-232.5 733.5,-253.5 840.5,-253.5 840.5,-232.5 733.5,-232.5"/>
<text text-anchor="middle" x="787" y="-240.5" font-family="Helvetica,sans-Serif" font-size="10.00">QKbdDriverFactory</text>
</g>
<!-- Node1&#45;&gt;Node10 -->
<g id="edge18" class="edge"><title>Node1&#45;&gt;Node10</title>
<path fill="none" stroke="midnightblue" d="M699.625,-290.362C716.141,-281.409 739.974,-268.491 758.578,-258.406"/>
<polygon fill="midnightblue" stroke="midnightblue" points="760.375,-261.413 767.499,-253.571 757.04,-255.259 760.375,-261.413"/>
</g>
<!-- Node11 -->
<g id="node21" class="node"><title>Node11</title>
<polygon fill="white" stroke="#bfbfbf" points="858,-232.5 858,-253.5 974,-253.5 974,-232.5 858,-232.5"/>
<text text-anchor="middle" x="916" y="-240.5" font-family="Helvetica,sans-Serif" font-size="10.00">QtGui/qmouse_qws.h</text>
</g>
<!-- Node1&#45;&gt;Node11 -->
<g id="edge20" class="edge"><title>Node1&#45;&gt;Node11</title>
<path fill="none" stroke="midnightblue" d="M722.738,-290.497C762.212,-280.795 820.97,-266.355 863.329,-255.945"/>
<polygon fill="midnightblue" stroke="midnightblue" points="864.306,-259.309 873.182,-253.523 862.636,-252.511 864.306,-259.309"/>
</g>
<!-- Node12 -->
<g id="node23" class="node"><title>Node12</title>
<a xlink:href="hiddkbd__qws_8h.htm" target="_top" xlink:title="hiddkbd_qws.h">
<polygon fill="white" stroke="black" points="494,-174.5 494,-195.5 580,-195.5 580,-174.5 494,-174.5"/>
<text text-anchor="middle" x="537" y="-182.5" font-family="Helvetica,sans-Serif" font-size="10.00">hiddkbd_qws.h</text>
</a>
</g>
<!-- Node1&#45;&gt;Node12 -->
<g id="edge22" class="edge"><title>Node1&#45;&gt;Node12</title>
<path fill="none" stroke="midnightblue" d="M630.821,-299.098C487.066,-293.303 76.4533,-274.976 57,-254 50.3512,-246.831 50.4316,-239.243 57,-232 85.2217,-200.88 364.196,-189.668 483.42,-186.276"/>
<polygon fill="midnightblue" stroke="midnightblue" points="483.868,-189.765 493.768,-185.99 483.675,-182.767 483.868,-189.765"/>
</g>
<!-- Node21 -->
<g id="node43" class="node"><title>Node21</title>
<polygon fill="white" stroke="#bfbfbf" points="654,-116.5 654,-137.5 708,-137.5 708,-116.5 654,-116.5"/>
<text text-anchor="middle" x="681" y="-124.5" font-family="Helvetica,sans-Serif" font-size="10.00">HidLib.h</text>
</g>
<!-- Node1&#45;&gt;Node21 -->
<g id="edge130" class="edge"><title>Node1&#45;&gt;Node21</title>
<path fill="none" stroke="midnightblue" d="M729.008,-296.864C810.527,-289.484 966.699,-273.024 983,-254 989.362,-246.575 989.529,-239.278 983,-232 933.591,-176.926 701.409,-251.074 652,-196 638.968,-181.473 651.208,-160.243 663.553,-145.174"/>
<polygon fill="midnightblue" stroke="midnightblue" points="666.304,-147.346 670.262,-137.518 661.039,-142.732 666.304,-147.346"/>
</g>
<!-- Node23 -->
<g id="node47" class="node"><title>Node23</title>
<a xlink:href="HostBase_8h.htm" target="_top" xlink:title="HostBase.h">
<polygon fill="white" stroke="black" points="1067.5,-232.5 1067.5,-253.5 1138.5,-253.5 1138.5,-232.5 1067.5,-232.5"/>
<text text-anchor="middle" x="1103" y="-240.5" font-family="Helvetica,sans-Serif" font-size="10.00">HostBase.h</text>
</a>
</g>
<!-- Node1&#45;&gt;Node23 -->
<g id="edge48" class="edge"><title>Node1&#45;&gt;Node23</title>
<path fill="none" stroke="midnightblue" d="M729.233,-296.332C800.968,-289.187 938.285,-274.211 1054,-254 1055.1,-253.809 1056.2,-253.609 1057.32,-253.403"/>
<polygon fill="midnightblue" stroke="midnightblue" points="1058.35,-256.766 1067.49,-251.392 1057,-249.899 1058.35,-256.766"/>
</g>
<!-- Node42 -->
<g id="node108" class="node"><title>Node42</title>
<a xlink:href="Settings_8h.htm" target="_top" xlink:title="Settings.h">
<polygon fill="white" stroke="black" points="1918.5,-58.5 1918.5,-79.5 1981.5,-79.5 1981.5,-58.5 1918.5,-58.5"/>
<text text-anchor="middle" x="1950" y="-66.5" font-family="Helvetica,sans-Serif" font-size="10.00">Settings.h</text>
</a>
</g>
<!-- Node1&#45;&gt;Node42 -->
<g id="edge132" class="edge"><title>Node1&#45;&gt;Node42</title>
<path fill="none" stroke="midnightblue" d="M729.104,-298.263C824.935,-292.592 1043.48,-278.043 1226,-254 1371.9,-234.781 1407.3,-222.812 1552,-196 1685.96,-171.178 1727.75,-191.596 1853,-138 1882.82,-125.239 1912.54,-102.187 1931.07,-86.2611"/>
<polygon fill="midnightblue" stroke="midnightblue" points="1933.55,-88.7374 1938.76,-79.5077 1928.93,-83.4786 1933.55,-88.7374"/>
</g>
<!-- Node47 -->
<g id="node120" class="node"><title>Node47</title>
<a xlink:href="Logging_8h.htm" target="_top" xlink:title="Logging.h">
<polygon fill="white" stroke="black" points="1781.5,-116.5 1781.5,-137.5 1844.5,-137.5 1844.5,-116.5 1781.5,-116.5"/>
<text text-anchor="middle" x="1813" y="-124.5" font-family="Helvetica,sans-Serif" font-size="10.00">Logging.h</text>
</a>
</g>
<!-- Node1&#45;&gt;Node47 -->
<g id="edge146" class="edge"><title>Node1&#45;&gt;Node47</title>
<path fill="none" stroke="midnightblue" d="M729.256,-297.478C814.606,-291.056 995.4,-276.039 1147,-254 1384.86,-219.42 1667.01,-159.201 1771.45,-136.248"/>
<polygon fill="midnightblue" stroke="midnightblue" points="1772.27,-139.651 1781.28,-134.081 1770.76,-132.815 1772.27,-139.651"/>
</g>
<!-- Node12&#45;&gt;Node2 -->
<g id="edge24" class="edge"><title>Node12&#45;&gt;Node2</title>
<path fill="none" stroke="midnightblue" d="M550.542,-174.385C570.272,-159.391 608.551,-132.053 645,-116 736.362,-75.7632 763.91,-76.5571 862,-58 996.049,-32.6402 1157.23,-19.1694 1233.25,-13.8103"/>
<polygon fill="midnightblue" stroke="midnightblue" points="1233.66,-17.29 1243.4,-13.1075 1233.18,-10.3067 1233.66,-17.29"/>
</g>
<!-- Node13 -->
<g id="node26" class="node"><title>Node13</title>
<polygon fill="white" stroke="#bfbfbf" points="196,-116.5 196,-137.5 320,-137.5 320,-116.5 196,-116.5"/>
<text text-anchor="middle" x="258" y="-124.5" font-family="Helvetica,sans-Serif" font-size="10.00">QWSKeyboardHandler</text>
</g>
<!-- Node12&#45;&gt;Node13 -->
<g id="edge26" class="edge"><title>Node12&#45;&gt;Node13</title>
<path fill="none" stroke="midnightblue" d="M493.712,-176.001C446.836,-166.256 371.701,-150.637 318.886,-139.657"/>
<polygon fill="midnightblue" stroke="midnightblue" points="319.469,-136.204 308.966,-137.595 318.045,-143.057 319.469,-136.204"/>
</g>
<!-- Node14 -->
<g id="node28" class="node"><title>Node14</title>
<polygon fill="white" stroke="#bfbfbf" points="338,-116.5 338,-137.5 448,-137.5 448,-116.5 338,-116.5"/>
<text text-anchor="middle" x="393" y="-124.5" font-family="Helvetica,sans-Serif" font-size="10.00">QWSMouseHandler</text>
</g>
<!-- Node12&#45;&gt;Node14 -->
<g id="edge28" class="edge"><title>Node12&#45;&gt;Node14</title>
<path fill="none" stroke="midnightblue" d="M510.923,-174.497C487.925,-165.234 454.2,-151.65 428.7,-141.379"/>
<polygon fill="midnightblue" stroke="midnightblue" points="429.953,-138.111 419.37,-137.621 427.338,-144.604 429.953,-138.111"/>
</g>
<!-- Node15 -->
<g id="node30" class="node"><title>Node15</title>
<polygon fill="white" stroke="#bfbfbf" points="466,-116.5 466,-137.5 560,-137.5 560,-116.5 466,-116.5"/>
<text text-anchor="middle" x="513" y="-124.5" font-family="Helvetica,sans-Serif" font-size="10.00">qsocketnotifier.h</text>
</g>
<!-- Node12&#45;&gt;Node15 -->
<g id="edge30" class="edge"><title>Node12&#45;&gt;Node15</title>
<path fill="none" stroke="midnightblue" d="M532.598,-174.362C529.418,-166.677 525.028,-156.069 521.21,-146.84"/>
<polygon fill="midnightblue" stroke="midnightblue" points="524.432,-145.473 517.374,-137.571 517.964,-148.149 524.432,-145.473"/>
</g>
<!-- Node16 -->
<g id="node32" class="node"><title>Node16</title>
<a xlink:href="Timer_8h.htm" target="_top" xlink:title="Timer.h">
<polygon fill="white" stroke="black" points="554,-58.5 554,-79.5 606,-79.5 606,-58.5 554,-58.5"/>
<text text-anchor="middle" x="580" y="-66.5" font-family="Helvetica,sans-Serif" font-size="10.00">Timer.h</text>
</a>
</g>
<!-- Node12&#45;&gt;Node16 -->
<g id="edge32" class="edge"><title>Node12&#45;&gt;Node16</title>
<path fill="none" stroke="midnightblue" d="M546.402,-174.213C553.756,-165.166 563.609,-151.579 569,-138 575.145,-122.521 577.863,-103.798 579.062,-89.7635"/>
<polygon fill="midnightblue" stroke="midnightblue" points="582.562,-89.8752 579.734,-79.6647 575.578,-89.4101 582.562,-89.8752"/>
</g>
<!-- Node19 -->
<g id="node39" class="node"><title>Node19</title>
<polygon fill="white" stroke="#bfbfbf" points="141.5,-116.5 141.5,-137.5 178.5,-137.5 178.5,-116.5 141.5,-116.5"/>
<text text-anchor="middle" x="160" y="-124.5" font-family="Helvetica,sans-Serif" font-size="10.00">map</text>
</g>
<!-- Node12&#45;&gt;Node19 -->
<g id="edge40" class="edge"><title>Node12&#45;&gt;Node19</title>
<path fill="none" stroke="midnightblue" d="M493.752,-182.72C428.853,-178.536 302.539,-167.437 188.603,-137.942"/>
<polygon fill="midnightblue" stroke="midnightblue" points="189.236,-134.489 178.674,-135.316 187.446,-141.257 189.236,-134.489"/>
</g>
<!-- Node20 -->
<g id="node41" class="node"><title>Node20</title>
<polygon fill="white" stroke="#bfbfbf" points="725.5,-116.5 725.5,-137.5 850.5,-137.5 850.5,-116.5 725.5,-116.5"/>
<text text-anchor="middle" x="788" y="-124.5" font-family="Helvetica,sans-Serif" font-size="10.00">webosDeviceKeymap.h</text>
</g>
<!-- Node12&#45;&gt;Node20 -->
<g id="edge42" class="edge"><title>Node12&#45;&gt;Node20</title>
<path fill="none" stroke="midnightblue" d="M580.148,-175.029C622.327,-165.283 686.724,-150.402 732.653,-139.789"/>
<polygon fill="midnightblue" stroke="midnightblue" points="733.494,-143.187 742.449,-137.526 731.918,-136.367 733.494,-143.187"/>
</g>
<!-- Node12&#45;&gt;Node21 -->
<g id="edge44" class="edge"><title>Node12&#45;&gt;Node21</title>
<path fill="none" stroke="midnightblue" d="M563.077,-174.497C586.075,-165.234 619.8,-151.65 645.3,-141.379"/>
<polygon fill="midnightblue" stroke="midnightblue" points="646.662,-144.604 654.63,-137.621 644.047,-138.111 646.662,-144.604"/>
</g>
<!-- Node22 -->
<g id="node45" class="node"><title>Node22</title>
<polygon fill="white" stroke="#bfbfbf" points="868,-116.5 868,-137.5 924,-137.5 924,-116.5 868,-116.5"/>
<text text-anchor="middle" x="896" y="-124.5" font-family="Helvetica,sans-Serif" font-size="10.00">hal/hal.h</text>
</g>
<!-- Node12&#45;&gt;Node22 -->
<g id="edge46" class="edge"><title>Node12&#45;&gt;Node22</title>
<path fill="none" stroke="midnightblue" d="M580.066,-180.71C640.284,-174.275 753.146,-160.627 858.03,-137.979"/>
<polygon fill="midnightblue" stroke="midnightblue" points="858.809,-141.391 867.828,-135.831 857.31,-134.553 858.809,-141.391"/>
</g>
<!-- Node16&#45;&gt;Node2 -->
<g id="edge34" class="edge"><title>Node16&#45;&gt;Node2</title>
<path fill="none" stroke="midnightblue" d="M606.084,-61.0339C610.685,-59.8565 615.457,-58.7793 620,-58 738.533,-37.6663 1105.81,-19.0177 1233.06,-13.0118"/>
<polygon fill="midnightblue" stroke="midnightblue" points="1233.39,-16.5004 1243.21,-12.5355 1233.06,-9.5081 1233.39,-16.5004"/>
</g>
<!-- Node17 -->
<g id="node35" class="node"><title>Node17</title>
<polygon fill="white" stroke="#bfbfbf" points="1517.5,-0.5 1517.5,-21.5 1558.5,-21.5 1558.5,-0.5 1517.5,-0.5"/>
<text text-anchor="middle" x="1538" y="-8.5" font-family="Helvetica,sans-Serif" font-size="10.00">glib.h</text>
</g>
<!-- Node16&#45;&gt;Node17 -->
<g id="edge36" class="edge"><title>Node16&#45;&gt;Node17</title>
<path fill="none" stroke="midnightblue" d="M606.121,-67.4186C741.43,-59.2266 1361.98,-21.6568 1507.43,-12.8508"/>
<polygon fill="midnightblue" stroke="midnightblue" points="1507.67,-16.3426 1517.44,-12.2446 1507.25,-9.35541 1507.67,-16.3426"/>
</g>
<!-- Node18 -->
<g id="node37" class="node"><title>Node18</title>
<polygon fill="white" stroke="#bfbfbf" points="555,-0.5 555,-21.5 605,-21.5 605,-0.5 555,-0.5"/>
<text text-anchor="middle" x="580" y="-8.5" font-family="Helvetica,sans-Serif" font-size="10.00">stdint.h</text>
</g>
<!-- Node16&#45;&gt;Node18 -->
<g id="edge38" class="edge"><title>Node16&#45;&gt;Node18</title>
<path fill="none" stroke="midnightblue" d="M580,-58.3619C580,-50.9219 580,-40.7427 580,-31.7276"/>
<polygon fill="midnightblue" stroke="midnightblue" points="583.5,-31.5706 580,-21.5707 576.5,-31.5707 583.5,-31.5706"/>
</g>
<!-- Node23&#45;&gt;Node2 -->
<g id="edge50" class="edge"><title>Node23&#45;&gt;Node2</title>
<path fill="none" stroke="midnightblue" d="M1137.46,-232.425C1165.43,-223.06 1201.57,-208.911 1210,-196 1215.35,-187.813 1214.1,-182.878 1210,-174 1201.68,-155.966 1160.02,-124.362 1142,-116 1050.67,-73.6085 856.653,-133.738 923,-58 943.164,-34.9819 1142.78,-19.5131 1233.06,-13.64"/>
<polygon fill="midnightblue" stroke="midnightblue" points="1233.49,-17.1194 1243.25,-12.9877 1233.05,-10.1337 1233.49,-17.1194"/>
</g>
<!-- Node23&#45;&gt;Node3 -->
<g id="edge126" class="edge"><title>Node23&#45;&gt;Node3</title>
<path fill="none" stroke="midnightblue" d="M1067.24,-234.451C1062.79,-233.543 1058.3,-232.698 1054,-232 900.242,-207.06 853.05,-237.641 699.585,-195.72"/>
<polygon fill="midnightblue" stroke="midnightblue" points="700.376,-192.307 689.804,-192.99 698.495,-199.05 700.376,-192.307"/>
</g>
<!-- Node23&#45;&gt;Node20 -->
<g id="edge124" class="edge"><title>Node23&#45;&gt;Node20</title>
<path fill="none" stroke="midnightblue" d="M1078.12,-232.454C1057.06,-223.334 1026.2,-209.522 1000,-196 982.658,-187.05 980.018,-181.497 962,-174 926.393,-159.184 884.741,-147.74 851.117,-139.856"/>
<polygon fill="midnightblue" stroke="midnightblue" points="851.485,-136.349 840.955,-137.523 849.919,-143.172 851.485,-136.349"/>
</g>
<!-- Node24 -->
<g id="node50" class="node"><title>Node24</title>
<polygon fill="white" stroke="#bfbfbf" points="706.5,-174.5 706.5,-195.5 783.5,-195.5 783.5,-174.5 706.5,-174.5"/>
<text text-anchor="middle" x="745" y="-182.5" font-family="Helvetica,sans-Serif" font-size="10.00">PGContext.h</text>
</g>
<!-- Node23&#45;&gt;Node24 -->
<g id="edge52" class="edge"><title>Node23&#45;&gt;Node24</title>
<path fill="none" stroke="midnightblue" d="M1067.48,-234.656C1062.95,-233.702 1058.38,-232.79 1054,-232 941.496,-211.68 909.317,-217.091 793.627,-196.179"/>
<polygon fill="midnightblue" stroke="midnightblue" points="794.136,-192.714 783.668,-194.352 792.873,-199.599 794.136,-192.714"/>
</g>
<!-- Node25 -->
<g id="node52" class="node"><title>Node25</title>
<polygon fill="white" stroke="#bfbfbf" points="801,-174.5 801,-195.5 869,-195.5 869,-174.5 801,-174.5"/>
<text text-anchor="middle" x="835" y="-182.5" font-family="Helvetica,sans-Serif" font-size="10.00">PContext.h</text>
</g>
<!-- Node23&#45;&gt;Node25 -->
<g id="edge54" class="edge"><title>Node23&#45;&gt;Node25</title>
<path fill="none" stroke="midnightblue" d="M1067.42,-234.93C1062.91,-233.93 1058.35,-232.933 1054,-232 978.983,-215.909 957.47,-214.028 879.08,-196.175"/>
<polygon fill="midnightblue" stroke="midnightblue" points="879.76,-192.74 869.231,-193.917 878.196,-199.563 879.76,-192.74"/>
</g>
<!-- Node26 -->
<g id="node54" class="node"><title>Node26</title>
<polygon fill="white" stroke="#bfbfbf" points="887,-174.5 887,-195.5 953,-195.5 953,-174.5 887,-174.5"/>
<text text-anchor="middle" x="920" y="-182.5" font-family="Helvetica,sans-Serif" font-size="10.00">PPixmap.h</text>
</g>
<!-- Node23&#45;&gt;Node26 -->
<g id="edge56" class="edge"><title>Node23&#45;&gt;Node26</title>
<path fill="none" stroke="midnightblue" d="M1069.86,-232.497C1039.9,-223 995.604,-208.962 962.938,-198.609"/>
<polygon fill="midnightblue" stroke="midnightblue" points="963.792,-195.208 953.202,-195.523 961.677,-201.881 963.792,-195.208"/>
</g>
<!-- Node27 -->
<g id="node56" class="node"><title>Node27</title>
<a xlink:href="TaskBase_8h.htm" target="_top" xlink:title="TaskBase.h">
<polygon fill="white" stroke="black" points="1329,-174.5 1329,-195.5 1401,-195.5 1401,-174.5 1329,-174.5"/>
<text text-anchor="middle" x="1365" y="-182.5" font-family="Helvetica,sans-Serif" font-size="10.00">TaskBase.h</text>
</a>
</g>
<!-- Node23&#45;&gt;Node27 -->
<g id="edge58" class="edge"><title>Node23&#45;&gt;Node27</title>
<path fill="none" stroke="midnightblue" d="M1138.78,-235.554C1179.91,-226.926 1249.7,-212.084 1318.91,-196.214"/>
<polygon fill="midnightblue" stroke="midnightblue" points="1319.71,-199.621 1328.67,-193.968 1318.14,-192.8 1319.71,-199.621"/>
</g>
<!-- Node36 -->
<g id="node84" class="node"><title>Node36</title>
<a xlink:href="Mutex_8h.htm" target="_top" xlink:title="Mutex.h">
<polygon fill="white" stroke="black" points="1511.5,-116.5 1511.5,-137.5 1564.5,-137.5 1564.5,-116.5 1511.5,-116.5"/>
<text text-anchor="middle" x="1538" y="-124.5" font-family="Helvetica,sans-Serif" font-size="10.00">Mutex.h</text>
</a>
</g>
<!-- Node23&#45;&gt;Node36 -->
<g id="edge112" class="edge"><title>Node23&#45;&gt;Node36</title>
<path fill="none" stroke="midnightblue" d="M1138.92,-241.47C1197.21,-238.116 1315.41,-227.678 1410,-196 1448.59,-183.076 1489.33,-159.069 1514.22,-143.061"/>
<polygon fill="midnightblue" stroke="midnightblue" points="1516.18,-145.961 1522.64,-137.56 1512.35,-140.101 1516.18,-145.961"/>
</g>
<!-- Node38 -->
<g id="node95" class="node"><title>Node38</title>
<a xlink:href="CustomEvents_8h.htm" target="_top" xlink:title="CustomEvents.h">
<polygon fill="white" stroke="black" points="1109,-174.5 1109,-195.5 1201,-195.5 1201,-174.5 1109,-174.5"/>
<text text-anchor="middle" x="1155" y="-182.5" font-family="Helvetica,sans-Serif" font-size="10.00">CustomEvents.h</text>
</a>
</g>
<!-- Node23&#45;&gt;Node38 -->
<g id="edge114" class="edge"><title>Node23&#45;&gt;Node38</title>
<path fill="none" stroke="midnightblue" d="M1112.54,-232.362C1119.87,-224.186 1130.16,-212.702 1138.78,-203.091"/>
<polygon fill="midnightblue" stroke="midnightblue" points="1141.45,-205.353 1145.52,-195.571 1136.24,-200.68 1141.45,-205.353"/>
</g>
<!-- Node40 -->
<g id="node100" class="node"><title>Node40</title>
<a xlink:href="InputControl_8h.htm" target="_top" xlink:title="InputControl.h">
<polygon fill="white" stroke="black" points="1008.5,-174.5 1008.5,-195.5 1091.5,-195.5 1091.5,-174.5 1008.5,-174.5"/>
<text text-anchor="middle" x="1050" y="-182.5" font-family="Helvetica,sans-Serif" font-size="10.00">InputControl.h</text>
</a>
</g>
<!-- Node23&#45;&gt;Node40 -->
<g id="edge120" class="edge"><title>Node23&#45;&gt;Node40</title>
<path fill="none" stroke="midnightblue" d="M1093.28,-232.362C1085.81,-224.186 1075.31,-212.702 1066.53,-203.091"/>
<polygon fill="midnightblue" stroke="midnightblue" points="1068.99,-200.592 1059.66,-195.571 1063.82,-205.314 1068.99,-200.592"/>
</g>
<!-- Node41 -->
<g id="node105" class="node"><title>Node41</title>
<polygon fill="white" stroke="#bfbfbf" points="1257,-174.5 1257,-195.5 1311,-195.5 1311,-174.5 1257,-174.5"/>
<text text-anchor="middle" x="1284" y="-182.5" font-family="Helvetica,sans-Serif" font-size="10.00">QImage</text>
</g>
<!-- Node23&#45;&gt;Node41 -->
<g id="edge128" class="edge"><title>Node23&#45;&gt;Node41</title>
<path fill="none" stroke="midnightblue" d="M1135.78,-232.497C1167.17,-222.438 1214.46,-207.284 1247.14,-196.811"/>
<polygon fill="midnightblue" stroke="midnightblue" points="1248.33,-200.106 1256.78,-193.721 1246.19,-193.44 1248.33,-200.106"/>
</g>
<!-- Node27&#45;&gt;Node2 -->
<g id="edge60" class="edge"><title>Node27&#45;&gt;Node2</title>
<path fill="none" stroke="midnightblue" d="M1364.63,-174.259C1363.37,-151.221 1357.88,-96.0659 1334,-58 1326.42,-45.9122 1314.66,-35.4539 1303.79,-27.4918"/>
<polygon fill="midnightblue" stroke="midnightblue" points="1305.57,-24.4694 1295.35,-21.6581 1301.59,-30.226 1305.57,-24.4694"/>
</g>
<!-- Node27&#45;&gt;Node17 -->
<g id="edge62" class="edge"><title>Node27&#45;&gt;Node17</title>
<path fill="none" stroke="midnightblue" d="M1401.13,-179.107C1478.49,-165.62 1655.59,-129.79 1686,-80 1713.94,-34.2605 1619.9,-18.447 1568.8,-13.3042"/>
<polygon fill="midnightblue" stroke="midnightblue" points="1568.89,-9.79748 1558.61,-12.3618 1568.25,-16.7677 1568.89,-9.79748"/>
</g>
<!-- Node28 -->
<g id="node60" class="node"><title>Node28</title>
<polygon fill="white" stroke="#bfbfbf" points="1188.5,-116.5 1188.5,-137.5 1217.5,-137.5 1217.5,-116.5 1188.5,-116.5"/>
<text text-anchor="middle" x="1203" y="-124.5" font-family="Helvetica,sans-Serif" font-size="10.00">list</text>
</g>
<!-- Node27&#45;&gt;Node28 -->
<g id="edge64" class="edge"><title>Node27&#45;&gt;Node28</title>
<path fill="none" stroke="midnightblue" d="M1330.02,-174.453C1303.76,-166.254 1266.8,-154.12 1227.48,-138.345"/>
<polygon fill="midnightblue" stroke="midnightblue" points="1228.56,-135.007 1217.98,-134.481 1225.92,-141.491 1228.56,-135.007"/>
</g>
<!-- Node29 -->
<g id="node62" class="node"><title>Node29</title>
<a xlink:href="sptr_8h.htm" target="_top" xlink:title="sptr.h">
<polygon fill="white" stroke="black" points="1516.5,-58.5 1516.5,-79.5 1559.5,-79.5 1559.5,-58.5 1516.5,-58.5"/>
<text text-anchor="middle" x="1538" y="-66.5" font-family="Helvetica,sans-Serif" font-size="10.00">sptr.h</text>
</a>
</g>
<!-- Node27&#45;&gt;Node29 -->
<g id="edge66" class="edge"><title>Node27&#45;&gt;Node29</title>
<path fill="none" stroke="midnightblue" d="M1380.97,-174.295C1411.35,-153.923 1477.65,-109.464 1513.62,-85.3457"/>
<polygon fill="midnightblue" stroke="midnightblue" points="1515.72,-88.1554 1522.07,-79.6792 1511.82,-82.3414 1515.72,-88.1554"/>
</g>
<!-- Node30 -->
<g id="node66" class="node"><title>Node30</title>
<a xlink:href="AsyncCaller_8h.htm" target="_top" xlink:title="AsyncCaller.h">
<polygon fill="white" stroke="black" points="1418.5,-58.5 1418.5,-79.5 1499.5,-79.5 1499.5,-58.5 1418.5,-58.5"/>
<text text-anchor="middle" x="1459" y="-66.5" font-family="Helvetica,sans-Serif" font-size="10.00">AsyncCaller.h</text>
</a>
</g>
<!-- Node27&#45;&gt;Node30 -->
<g id="edge72" class="edge"><title>Node27&#45;&gt;Node30</title>
<path fill="none" stroke="midnightblue" d="M1373.67,-174.295C1389.69,-154.527 1424.09,-112.08 1443.97,-87.5443"/>
<polygon fill="midnightblue" stroke="midnightblue" points="1446.77,-89.6521 1450.35,-79.6792 1441.33,-85.245 1446.77,-89.6521"/>
</g>
<!-- Node31 -->
<g id="node70" class="node"><title>Node31</title>
<a xlink:href="Event_8h.htm" target="_top" xlink:title="Event.h">
<polygon fill="white" stroke="black" points="1235,-116.5 1235,-137.5 1287,-137.5 1287,-116.5 1235,-116.5"/>
<text text-anchor="middle" x="1261" y="-124.5" font-family="Helvetica,sans-Serif" font-size="10.00">Event.h</text>
</a>
</g>
<!-- Node27&#45;&gt;Node31 -->
<g id="edge78" class="edge"><title>Node27&#45;&gt;Node31</title>
<path fill="none" stroke="midnightblue" d="M1345.92,-174.362C1329.95,-165.45 1306.92,-152.609 1288.87,-142.545"/>
<polygon fill="midnightblue" stroke="midnightblue" points="1290.39,-139.385 1279.95,-137.571 1286.98,-145.498 1290.39,-139.385"/>
</g>
<!-- Node27&#45;&gt;Node36 -->
<g id="edge96" class="edge"><title>Node27&#45;&gt;Node36</title>
<path fill="none" stroke="midnightblue" d="M1396.33,-174.497C1426.03,-164.54 1470.61,-149.592 1501.81,-139.132"/>
<polygon fill="midnightblue" stroke="midnightblue" points="1503.07,-142.402 1511.44,-135.905 1500.84,-135.766 1503.07,-142.402"/>
</g>
<!-- Node37 -->
<g id="node89" class="node"><title>Node37</title>
<a xlink:href="SingletonTimer_8h.htm" target="_top" xlink:title="SingletonTimer.h">
<polygon fill="white" stroke="black" points="1229,-58.5 1229,-79.5 1325,-79.5 1325,-58.5 1229,-58.5"/>
<text text-anchor="middle" x="1277" y="-66.5" font-family="Helvetica,sans-Serif" font-size="10.00">SingletonTimer.h</text>
</a>
</g>
<!-- Node27&#45;&gt;Node37 -->
<g id="edge104" class="edge"><title>Node27&#45;&gt;Node37</title>
<path fill="none" stroke="midnightblue" d="M1356.88,-174.295C1341.95,-154.613 1309.96,-112.45 1291.31,-87.8668"/>
<polygon fill="midnightblue" stroke="midnightblue" points="1293.93,-85.5308 1285.1,-79.6792 1288.36,-89.7615 1293.93,-85.5308"/>
</g>
<!-- Node29&#45;&gt;Node2 -->
<g id="edge68" class="edge"><title>Node29&#45;&gt;Node2</title>
<path fill="none" stroke="midnightblue" d="M1516.5,-60.6752C1513.66,-59.7071 1510.78,-58.7863 1508,-58 1443.75,-39.7979 1367.57,-25.706 1320.76,-17.879"/>
<polygon fill="midnightblue" stroke="midnightblue" points="1321.1,-14.3875 1310.66,-16.2115 1319.96,-21.294 1321.1,-14.3875"/>
</g>
<!-- Node29&#45;&gt;Node17 -->
<g id="edge70" class="edge"><title>Node29&#45;&gt;Node17</title>
<path fill="none" stroke="midnightblue" d="M1538,-58.3619C1538,-50.9219 1538,-40.7427 1538,-31.7276"/>
<polygon fill="midnightblue" stroke="midnightblue" points="1541.5,-31.5706 1538,-21.5707 1534.5,-31.5707 1541.5,-31.5706"/>
</g>
<!-- Node30&#45;&gt;Node2 -->
<g id="edge74" class="edge"><title>Node30&#45;&gt;Node2</title>
<path fill="none" stroke="midnightblue" d="M1426.04,-58.4966C1396.24,-49.0001 1352.19,-34.9619 1319.7,-24.6087"/>
<polygon fill="midnightblue" stroke="midnightblue" points="1320.61,-21.2247 1310.02,-21.5231 1318.49,-27.8942 1320.61,-21.2247"/>
</g>
<!-- Node30&#45;&gt;Node17 -->
<g id="edge76" class="edge"><title>Node30&#45;&gt;Node17</title>
<path fill="none" stroke="midnightblue" d="M1473.49,-58.3619C1485.18,-49.7773 1501.84,-37.5459 1515.3,-27.6636"/>
<polygon fill="midnightblue" stroke="midnightblue" points="1517.61,-30.31 1523.6,-21.5707 1513.47,-24.6675 1517.61,-30.31"/>
</g>
<!-- Node31&#45;&gt;Node2 -->
<g id="edge80" class="edge"><title>Node31&#45;&gt;Node2</title>
<path fill="none" stroke="midnightblue" d="M1234.76,-118.201C1231.83,-117.382 1228.86,-116.626 1226,-116 1100.15,-88.4773 857.47,-155.217 942,-58 960.862,-36.3068 1146.82,-20.3041 1233.25,-13.9766"/>
<polygon fill="midnightblue" stroke="midnightblue" points="1233.56,-17.4637 1243.28,-13.2532 1233.06,-10.4818 1233.56,-17.4637"/>
</g>
<!-- Node31&#45;&gt;Node17 -->
<g id="edge84" class="edge"><title>Node31&#45;&gt;Node17</title>
<path fill="none" stroke="midnightblue" d="M1282.47,-116.383C1311.21,-102.328 1363.91,-77.0955 1410,-58 1443.02,-44.321 1481.6,-30.4312 1507.71,-21.3359"/>
<polygon fill="midnightblue" stroke="midnightblue" points="1509.1,-24.5583 1517.41,-17.979 1506.81,-17.9436 1509.1,-24.5583"/>
</g>
<!-- Node31&#45;&gt;Node18 -->
<g id="edge82" class="edge"><title>Node31&#45;&gt;Node18</title>
<path fill="none" stroke="midnightblue" d="M1234.8,-117.989C1231.86,-117.209 1228.88,-116.521 1226,-116 1151.43,-102.534 597.146,-134.975 545,-80 531.067,-65.311 545.674,-43.9998 560.043,-28.9563"/>
<polygon fill="midnightblue" stroke="midnightblue" points="562.713,-31.2392 567.384,-21.7292 557.802,-26.2511 562.713,-31.2392"/>
</g>
<!-- Node31&#45;&gt;Node29 -->
<g id="edge94" class="edge"><title>Node31&#45;&gt;Node29</title>
<path fill="none" stroke="midnightblue" d="M1287.28,-123.442C1331.08,-117.205 1421.84,-102.977 1506.43,-80.1472"/>
<polygon fill="midnightblue" stroke="midnightblue" points="1507.46,-83.4929 1516.18,-77.4692 1505.61,-76.7429 1507.46,-83.4929"/>
</g>
<!-- Node32 -->
<g id="node75" class="node"><title>Node32</title>
<polygon fill="white" stroke="#bfbfbf" points="1614.5,-58.5 1614.5,-79.5 1661.5,-79.5 1661.5,-58.5 1614.5,-58.5"/>
<text text-anchor="middle" x="1638" y="-66.5" font-family="Helvetica,sans-Serif" font-size="10.00">stdio.h</text>
</g>
<!-- Node31&#45;&gt;Node32 -->
<g id="edge86" class="edge"><title>Node31&#45;&gt;Node32</title>
<path fill="none" stroke="midnightblue" d="M1287.29,-123.011C1340.36,-114.951 1464.1,-96.1169 1568,-80 1579.82,-78.1665 1592.76,-76.1388 1604.26,-74.3291"/>
<polygon fill="midnightblue" stroke="midnightblue" points="1605.02,-77.7536 1614.35,-72.7402 1603.93,-70.8389 1605.02,-77.7536"/>
</g>
<!-- Node33 -->
<g id="node77" class="node"><title>Node33</title>
<polygon fill="white" stroke="#bfbfbf" points="950.5,-58.5 950.5,-79.5 1001.5,-79.5 1001.5,-58.5 950.5,-58.5"/>
<text text-anchor="middle" x="976" y="-66.5" font-family="Helvetica,sans-Serif" font-size="10.00">string.h</text>
</g>
<!-- Node31&#45;&gt;Node33 -->
<g id="edge88" class="edge"><title>Node31&#45;&gt;Node33</title>
<path fill="none" stroke="midnightblue" d="M1234.74,-118.314C1231.81,-117.474 1228.85,-116.682 1226,-116 1134.4,-94.0846 1106.35,-102.451 1011.23,-80.0415"/>
<polygon fill="midnightblue" stroke="midnightblue" points="1012.05,-76.6369 1001.5,-77.6982 1010.41,-83.4423 1012.05,-76.6369"/>
</g>
<!-- Node34 -->
<g id="node79" class="node"><title>Node34</title>
<polygon fill="white" stroke="#bfbfbf" points="1019,-58.5 1019,-79.5 1105,-79.5 1105,-58.5 1019,-58.5"/>
<text text-anchor="middle" x="1062" y="-66.5" font-family="Helvetica,sans-Serif" font-size="10.00">qnamespace.h</text>
</g>
<!-- Node31&#45;&gt;Node34 -->
<g id="edge90" class="edge"><title>Node31&#45;&gt;Node34</title>
<path fill="none" stroke="midnightblue" d="M1234.65,-118.639C1231.73,-117.738 1228.81,-116.843 1226,-116 1186.93,-104.263 1142.42,-91.5485 1109.64,-82.3072"/>
<polygon fill="midnightblue" stroke="midnightblue" points="1110.43,-78.8954 1099.86,-79.5556 1108.54,-85.6337 1110.43,-78.8954"/>
</g>
<!-- Node35 -->
<g id="node81" class="node"><title>Node35</title>
<polygon fill="white" stroke="#bfbfbf" points="1123,-58.5 1123,-79.5 1211,-79.5 1211,-58.5 1123,-58.5"/>
<text text-anchor="middle" x="1167" y="-66.5" font-family="Helvetica,sans-Serif" font-size="10.00">SysMgrEvent.h</text>
</g>
<!-- Node31&#45;&gt;Node35 -->
<g id="edge92" class="edge"><title>Node31&#45;&gt;Node35</title>
<path fill="none" stroke="midnightblue" d="M1243.76,-116.362C1229.45,-107.532 1208.89,-94.844 1192.64,-84.8224"/>
<polygon fill="midnightblue" stroke="midnightblue" points="1194.48,-81.8431 1184.13,-79.5707 1190.8,-87.8004 1194.48,-81.8431"/>
</g>
<!-- Node36&#45;&gt;Node2 -->
<g id="edge98" class="edge"><title>Node36&#45;&gt;Node2</title>
<path fill="none" stroke="midnightblue" d="M1549.32,-116.125C1563.14,-101.554 1582.9,-75.5044 1568,-58 1552.18,-39.416 1398.33,-22.4287 1320.96,-14.979"/>
<polygon fill="midnightblue" stroke="midnightblue" points="1320.86,-11.4538 1310.57,-13.992 1320.2,-18.4224 1320.86,-11.4538"/>
</g>
<!-- Node36&#45;&gt;Node17 -->
<g id="edge102" class="edge"><title>Node36&#45;&gt;Node17</title>
<path fill="none" stroke="midnightblue" d="M1564.7,-121.292C1599.57,-113.237 1657.63,-97.5421 1670,-80 1697.65,-40.8093 1615.95,-22.1878 1568.83,-14.9019"/>
<polygon fill="midnightblue" stroke="midnightblue" points="1569.2,-11.4184 1558.8,-13.4393 1568.19,-18.3452 1569.2,-11.4184"/>
</g>
<!-- Node36&#45;&gt;Node29 -->
<g id="edge100" class="edge"><title>Node36&#45;&gt;Node29</title>
<path fill="none" stroke="midnightblue" d="M1538,-116.362C1538,-108.922 1538,-98.7427 1538,-89.7276"/>
<polygon fill="midnightblue" stroke="midnightblue" points="1541.5,-89.5706 1538,-79.5707 1534.5,-89.5707 1541.5,-89.5706"/>
</g>
<!-- Node37&#45;&gt;Node2 -->
<g id="edge106" class="edge"><title>Node37&#45;&gt;Node2</title>
<path fill="none" stroke="midnightblue" d="M1277,-58.3619C1277,-50.9219 1277,-40.7427 1277,-31.7276"/>
<polygon fill="midnightblue" stroke="midnightblue" points="1280.5,-31.5706 1277,-21.5707 1273.5,-31.5707 1280.5,-31.5706"/>
</g>
<!-- Node37&#45;&gt;Node17 -->
<g id="edge108" class="edge"><title>Node37&#45;&gt;Node17</title>
<path fill="none" stroke="midnightblue" d="M1324.27,-58.4966C1377.55,-46.655 1462.62,-27.7517 1507.68,-17.7367"/>
<polygon fill="midnightblue" stroke="midnightblue" points="1508.45,-21.1518 1517.45,-15.5657 1506.93,-14.3184 1508.45,-21.1518"/>
</g>
<!-- Node37&#45;&gt;Node18 -->
<g id="edge110" class="edge"><title>Node37&#45;&gt;Node18</title>
<path fill="none" stroke="midnightblue" d="M1228.86,-59.2987C1225.87,-58.8232 1222.9,-58.3846 1220,-58 990.598,-27.5483 712.124,-15.5705 615.234,-12.1354"/>
<polygon fill="midnightblue" stroke="midnightblue" points="615.231,-8.63331 605.116,-11.7846 614.988,-15.6291 615.231,-8.63331"/>
</g>
<!-- Node38&#45;&gt;Node2 -->
<g id="edge116" class="edge"><title>Node38&#45;&gt;Node2</title>
<path fill="none" stroke="midnightblue" d="M1119.89,-174.477C1047.22,-152.358 885.852,-101.326 871,-80 865.412,-71.9763 864.496,-65.3007 871,-58 894.82,-31.2639 1133.5,-17.4692 1233.4,-12.83"/>
<polygon fill="midnightblue" stroke="midnightblue" points="1233.63,-16.3229 1243.46,-12.3717 1233.32,-9.33012 1233.63,-16.3229"/>
</g>
<!-- Node39 -->
<g id="node98" class="node"><title>Node39</title>
<polygon fill="white" stroke="#bfbfbf" points="1081,-116.5 1081,-137.5 1133,-137.5 1133,-116.5 1081,-116.5"/>
<text text-anchor="middle" x="1107" y="-124.5" font-family="Helvetica,sans-Serif" font-size="10.00">QEvent</text>
</g>
<!-- Node38&#45;&gt;Node39 -->
<g id="edge118" class="edge"><title>Node38&#45;&gt;Node39</title>
<path fill="none" stroke="midnightblue" d="M1146.2,-174.362C1139.5,-166.268 1130.12,-154.932 1122.21,-145.38"/>
<polygon fill="midnightblue" stroke="midnightblue" points="1124.82,-143.043 1115.75,-137.571 1119.43,-147.506 1124.82,-143.043"/>
</g>
<!-- Node40&#45;&gt;Node22 -->
<g id="edge122" class="edge"><title>Node40&#45;&gt;Node22</title>
<path fill="none" stroke="midnightblue" d="M1022.11,-174.497C997.332,-165.164 960.905,-151.445 933.564,-141.147"/>
<polygon fill="midnightblue" stroke="midnightblue" points="934.532,-137.772 923.941,-137.523 932.065,-144.323 934.532,-137.772"/>
</g>
<!-- Node42&#45;&gt;Node2 -->
<g id="edge134" class="edge"><title>Node42&#45;&gt;Node2</title>
<path fill="none" stroke="midnightblue" d="M1918.25,-59.6697C1915.47,-59.0367 1912.7,-58.4664 1910,-58 1796.31,-38.3394 1445.1,-19.3963 1320.99,-13.151"/>
<polygon fill="midnightblue" stroke="midnightblue" points="1320.89,-9.64175 1310.73,-12.6376 1320.54,-16.633 1320.89,-9.64175"/>
</g>
<!-- Node42&#45;&gt;Node17 -->
<g id="edge142" class="edge"><title>Node42&#45;&gt;Node17</title>
<path fill="none" stroke="midnightblue" d="M1918.22,-59.8206C1915.45,-59.1548 1912.68,-58.5357 1910,-58 1784.78,-33.0049 1633.05,-18.7199 1568.96,-13.4069"/>
<polygon fill="midnightblue" stroke="midnightblue" points="1568.98,-9.89772 1558.73,-12.5745 1568.42,-16.8746 1568.98,-9.89772"/>
</g>
<!-- Node43 -->
<g id="node111" class="node"><title>Node43</title>
<polygon fill="white" stroke="#bfbfbf" points="1962.5,-0.5 1962.5,-21.5 2005.5,-21.5 2005.5,-0.5 1962.5,-0.5"/>
<text text-anchor="middle" x="1984" y="-8.5" font-family="Helvetica,sans-Serif" font-size="10.00">string</text>
</g>
<!-- Node42&#45;&gt;Node43 -->
<g id="edge136" class="edge"><title>Node42&#45;&gt;Node43</title>
<path fill="none" stroke="midnightblue" d="M1956.24,-58.3619C1960.84,-50.5131 1967.23,-39.6159 1972.71,-30.2527"/>
<polygon fill="midnightblue" stroke="midnightblue" points="1975.77,-31.9677 1977.8,-21.5707 1969.73,-28.4276 1975.77,-31.9677"/>
</g>
<!-- Node44 -->
<g id="node113" class="node"><title>Node44</title>
<polygon fill="white" stroke="#bfbfbf" points="2023,-0.5 2023,-21.5 2069,-21.5 2069,-0.5 2023,-0.5"/>
<text text-anchor="middle" x="2046" y="-8.5" font-family="Helvetica,sans-Serif" font-size="10.00">vector</text>
</g>
<!-- Node42&#45;&gt;Node44 -->
<g id="edge138" class="edge"><title>Node42&#45;&gt;Node44</title>
<path fill="none" stroke="midnightblue" d="M1967.61,-58.3619C1982.22,-49.532 2003.22,-36.844 2019.81,-26.8224"/>
<polygon fill="midnightblue" stroke="midnightblue" points="2021.75,-29.7376 2028.5,-21.5707 2018.13,-23.7461 2021.75,-29.7376"/>
</g>
<!-- Node45 -->
<g id="node115" class="node"><title>Node45</title>
<polygon fill="white" stroke="#bfbfbf" points="1838.5,-0.5 1838.5,-21.5 1869.5,-21.5 1869.5,-0.5 1838.5,-0.5"/>
<text text-anchor="middle" x="1854" y="-8.5" font-family="Helvetica,sans-Serif" font-size="10.00">set</text>
</g>
<!-- Node42&#45;&gt;Node45 -->
<g id="edge140" class="edge"><title>Node42&#45;&gt;Node45</title>
<path fill="none" stroke="midnightblue" d="M1932.39,-58.3619C1917.23,-49.2009 1895.19,-35.8869 1878.34,-25.7066"/>
<polygon fill="midnightblue" stroke="midnightblue" points="1879.96,-22.595 1869.59,-20.4195 1876.34,-28.5864 1879.96,-22.595"/>
</g>
<!-- Node46 -->
<g id="node118" class="node"><title>Node46</title>
<polygon fill="white" stroke="#bfbfbf" points="1887,-0.5 1887,-21.5 1945,-21.5 1945,-0.5 1887,-0.5"/>
<text text-anchor="middle" x="1916" y="-8.5" font-family="Helvetica,sans-Serif" font-size="10.00">QtGlobal</text>
</g>
<!-- Node42&#45;&gt;Node46 -->
<g id="edge144" class="edge"><title>Node42&#45;&gt;Node46</title>
<path fill="none" stroke="midnightblue" d="M1943.76,-58.3619C1939.16,-50.5131 1932.77,-39.6159 1927.29,-30.2527"/>
<polygon fill="midnightblue" stroke="midnightblue" points="1930.27,-28.4276 1922.2,-21.5707 1924.23,-31.9677 1930.27,-28.4276"/>
</g>
<!-- Node47&#45;&gt;Node2 -->
<g id="edge148" class="edge"><title>Node47&#45;&gt;Node2</title>
<path fill="none" stroke="midnightblue" d="M1795.7,-116.307C1769.55,-100.692 1717.89,-71.9942 1670,-58 1605.35,-39.1091 1409.27,-21.5902 1320.95,-14.4191"/>
<polygon fill="midnightblue" stroke="midnightblue" points="1320.98,-10.9101 1310.73,-13.5965 1320.42,-17.8876 1320.98,-10.9101"/>
</g>
<!-- Node47&#45;&gt;Node17 -->
<g id="edge152" class="edge"><title>Node47&#45;&gt;Node17</title>
<path fill="none" stroke="midnightblue" d="M1810.9,-116.484C1807.25,-101.095 1798.2,-72.6819 1779,-58 1746.39,-33.0671 1626.45,-19.0484 1569.03,-13.6333"/>
<polygon fill="midnightblue" stroke="midnightblue" points="1569.03,-10.1183 1558.75,-12.6929 1568.39,-17.0892 1569.03,-10.1183"/>
</g>
<!-- Node47&#45;&gt;Node32 -->
<g id="edge150" class="edge"><title>Node47&#45;&gt;Node32</title>
<path fill="none" stroke="midnightblue" d="M1781.31,-116.497C1750.2,-106.187 1702.94,-90.5241 1671.3,-80.0349"/>
<polygon fill="midnightblue" stroke="midnightblue" points="1672.2,-76.6483 1661.61,-76.8245 1670,-83.2928 1672.2,-76.6483"/>
</g>
<!-- Node48 -->
<g id="node125" class="node"><title>Node48</title>
<polygon fill="white" stroke="#bfbfbf" points="1830.5,-58.5 1830.5,-79.5 1901.5,-79.5 1901.5,-58.5 1830.5,-58.5"/>
<text text-anchor="middle" x="1866" y="-66.5" font-family="Helvetica,sans-Serif" font-size="10.00">PmLogLib.h</text>
</g>
<!-- Node47&#45;&gt;Node48 -->
<g id="edge154" class="edge"><title>Node47&#45;&gt;Node48</title>
<path fill="none" stroke="midnightblue" d="M1822.72,-116.362C1830.19,-108.186 1840.69,-96.7025 1849.47,-87.0907"/>
<polygon fill="midnightblue" stroke="midnightblue" points="1852.18,-89.3138 1856.34,-79.5707 1847.01,-84.5918 1852.18,-89.3138"/>
</g>
</g>
</svg>
