<?xml version="1.0" encoding="UTF-8" standalone="no"?>
<!DOCTYPE svg PUBLIC "-//W3C//DTD SVG 1.1//EN"
 "http://www.w3.org/Graphics/SVG/1.1/DTD/svg11.dtd">
<!-- Generated by graphviz version 2.26.3 (20100126.1600)
 -->
<!-- Title: G Pages: 1 -->
<svg width="2301pt" height="320pt"
 viewBox="0.00 0.00 2301.23 320.00" xmlns="http://www.w3.org/2000/svg" xmlns:xlink="http://www.w3.org/1999/xlink">
<g id="graph1" class="graph" transform="scale(1 1) rotate(0) translate(4 316)">
<title>G</title>
<polygon fill="white" stroke="white" points="-4,5 -4,-316 2298.23,-316 2298.23,5 -4,5"/>
<!-- Node1 -->
<g id="node1" class="node"><title>Node1</title>
<polygon fill="#bfbfbf" stroke="black" points="662.233,-290.5 662.233,-311.5 752.233,-311.5 752.233,-290.5 662.233,-290.5"/>
<text text-anchor="middle" x="707.233" y="-298.5" font-family="Helvetica,sans-Serif" font-size="10.00">hiddtp_qws.cpp</text>
</g>
<!-- Node2 -->
<g id="node3" class="node"><title>Node2</title>
<a xlink:href="Common_8h.htm" target="_top" xlink:title="Common.h">
<polygon fill="white" stroke="black" points="1569.73,-0.5 1569.73,-21.5 1636.73,-21.5 1636.73,-0.5 1569.73,-0.5"/>
<text text-anchor="middle" x="1603.23" y="-8.5" font-family="Helvetica,sans-Serif" font-size="10.00">Common.h</text>
</a>
</g>
<!-- Node1&#45;&gt;Node2 -->
<g id="edge2" class="edge"><title>Node1&#45;&gt;Node2</title>
<path fill="none" stroke="midnightblue" d="M752.566,-300.118C1011.64,-294.79 2293.23,-264.417 2293.23,-185 2293.23,-185 2293.23,-185 2293.23,-127 2293.23,-53.2142 2213.58,-76.812 2142.23,-58 2048.96,-33.4082 1758.45,-18.0246 1647.19,-12.902"/>
<polygon fill="midnightblue" stroke="midnightblue" points="1647.14,-9.39637 1637,-12.4383 1646.83,-16.3891 1647.14,-9.39637"/>
</g>
<!-- Node3 -->
<g id="node5" class="node"><title>Node3</title>
<polygon fill="white" stroke="#bfbfbf" points="16.2332,-232.5 16.2332,-253.5 60.2332,-253.5 60.2332,-232.5 16.2332,-232.5"/>
<text text-anchor="middle" x="38.2332" y="-240.5" font-family="Helvetica,sans-Serif" font-size="10.00">fcntl.h</text>
</g>
<!-- Node1&#45;&gt;Node3 -->
<g id="edge4" class="edge"><title>Node1&#45;&gt;Node3</title>
<path fill="none" stroke="midnightblue" d="M662.1,-299.244C539.497,-294.232 201.288,-278.73 70.5374,-253.712"/>
<polygon fill="midnightblue" stroke="midnightblue" points="70.8749,-250.21 60.3796,-251.659 69.4878,-257.071 70.8749,-250.21"/>
</g>
<!-- Node4 -->
<g id="node7" class="node"><title>Node4</title>
<polygon fill="white" stroke="#bfbfbf" points="78.2332,-232.5 78.2332,-253.5 152.233,-253.5 152.233,-232.5 78.2332,-232.5"/>
<text text-anchor="middle" x="115.233" y="-240.5" font-family="Helvetica,sans-Serif" font-size="10.00">sys/socket.h</text>
</g>
<!-- Node1&#45;&gt;Node4 -->
<g id="edge6" class="edge"><title>Node1&#45;&gt;Node4</title>
<path fill="none" stroke="midnightblue" d="M662.01,-299.385C569.751,-295.598 353.127,-284.201 162.228,-253.958"/>
<polygon fill="midnightblue" stroke="midnightblue" points="162.723,-250.493 152.295,-252.363 161.613,-257.404 162.723,-250.493"/>
</g>
<!-- Node5 -->
<g id="node9" class="node"><title>Node5</title>
<polygon fill="white" stroke="#bfbfbf" points="169.733,-232.5 169.733,-253.5 224.733,-253.5 224.733,-232.5 169.733,-232.5"/>
<text text-anchor="middle" x="197.233" y="-240.5" font-family="Helvetica,sans-Serif" font-size="10.00">sys/un.h</text>
</g>
<!-- Node1&#45;&gt;Node5 -->
<g id="edge8" class="edge"><title>Node1&#45;&gt;Node5</title>
<path fill="none" stroke="midnightblue" d="M662.03,-299.49C578.947,-296.073 396.4,-285.586 235.104,-254.085"/>
<polygon fill="midnightblue" stroke="midnightblue" points="235.492,-250.594 225.002,-252.079 234.129,-257.46 235.492,-250.594"/>
</g>
<!-- Node6 -->
<g id="node11" class="node"><title>Node6</title>
<polygon fill="white" stroke="#bfbfbf" points="242.233,-232.5 242.233,-253.5 292.233,-253.5 292.233,-232.5 242.233,-232.5"/>
<text text-anchor="middle" x="267.233" y="-240.5" font-family="Helvetica,sans-Serif" font-size="10.00">errno.h</text>
</g>
<!-- Node1&#45;&gt;Node6 -->
<g id="edge10" class="edge"><title>Node1&#45;&gt;Node6</title>
<path fill="none" stroke="midnightblue" d="M661.999,-298.687C588.349,-294.287 437.949,-282.662 302.474,-253.922"/>
<polygon fill="midnightblue" stroke="midnightblue" points="302.846,-250.422 292.332,-251.732 301.368,-257.264 302.846,-250.422"/>
</g>
<!-- Node7 -->
<g id="node13" class="node"><title>Node7</title>
<polygon fill="white" stroke="#bfbfbf" points="309.733,-232.5 309.733,-253.5 380.733,-253.5 380.733,-232.5 309.733,-232.5"/>
<text text-anchor="middle" x="345.233" y="-240.5" font-family="Helvetica,sans-Serif" font-size="10.00">linux/input.h</text>
</g>
<!-- Node1&#45;&gt;Node7 -->
<g id="edge12" class="edge"><title>Node1&#45;&gt;Node7</title>
<path fill="none" stroke="midnightblue" d="M662.231,-295.763C602.334,-288.482 492.959,-274.104 391.026,-254.234"/>
<polygon fill="midnightblue" stroke="midnightblue" points="391.675,-250.795 381.187,-252.294 390.321,-257.662 391.675,-250.795"/>
</g>
<!-- Node8 -->
<g id="node15" class="node"><title>Node8</title>
<polygon fill="white" stroke="#bfbfbf" points="397.733,-232.5 397.733,-253.5 474.733,-253.5 474.733,-232.5 397.733,-232.5"/>
<text text-anchor="middle" x="436.233" y="-240.5" font-family="Helvetica,sans-Serif" font-size="10.00">QApplication</text>
</g>
<!-- Node1&#45;&gt;Node8 -->
<g id="edge14" class="edge"><title>Node1&#45;&gt;Node8</title>
<path fill="none" stroke="midnightblue" d="M662.118,-291.852C618.957,-283.03 551.773,-269.111 484.82,-254.323"/>
<polygon fill="midnightblue" stroke="midnightblue" points="485.466,-250.881 474.946,-252.135 483.952,-257.715 485.466,-250.881"/>
</g>
<!-- Node9 -->
<g id="node17" class="node"><title>Node9</title>
<polygon fill="white" stroke="#bfbfbf" points="491.733,-232.5 491.733,-253.5 562.733,-253.5 562.733,-232.5 491.733,-232.5"/>
<text text-anchor="middle" x="527.233" y="-240.5" font-family="Helvetica,sans-Serif" font-size="10.00">QDateTime</text>
</g>
<!-- Node1&#45;&gt;Node9 -->
<g id="edge16" class="edge"><title>Node1&#45;&gt;Node9</title>
<path fill="none" stroke="midnightblue" d="M674.637,-290.497C645.165,-281 601.598,-266.962 569.467,-256.609"/>
<polygon fill="midnightblue" stroke="midnightblue" points="570.483,-253.259 559.891,-253.523 568.336,-259.921 570.483,-253.259"/>
</g>
<!-- Node10 -->
<g id="node19" class="node"><title>Node10</title>
<polygon fill="white" stroke="#bfbfbf" points="579.733,-232.5 579.733,-253.5 652.733,-253.5 652.733,-232.5 579.733,-232.5"/>
<text text-anchor="middle" x="616.233" y="-240.5" font-family="Helvetica,sans-Serif" font-size="10.00">QWSServer</text>
</g>
<!-- Node1&#45;&gt;Node10 -->
<g id="edge18" class="edge"><title>Node1&#45;&gt;Node10</title>
<path fill="none" stroke="midnightblue" d="M690.542,-290.362C676.817,-281.614 657.15,-269.079 641.496,-259.101"/>
<polygon fill="midnightblue" stroke="midnightblue" points="643.132,-255.994 632.818,-253.571 639.37,-261.897 643.132,-255.994"/>
</g>
<!-- Node11 -->
<g id="node21" class="node"><title>Node11</title>
<polygon fill="white" stroke="#bfbfbf" points="669.733,-232.5 669.733,-253.5 744.733,-253.5 744.733,-232.5 669.733,-232.5"/>
<text text-anchor="middle" x="707.233" y="-240.5" font-family="Helvetica,sans-Serif" font-size="10.00">QInputEvent</text>
</g>
<!-- Node1&#45;&gt;Node11 -->
<g id="edge20" class="edge"><title>Node1&#45;&gt;Node11</title>
<path fill="none" stroke="midnightblue" d="M707.233,-290.362C707.233,-282.922 707.233,-272.743 707.233,-263.728"/>
<polygon fill="midnightblue" stroke="midnightblue" points="710.733,-263.571 707.233,-253.571 703.733,-263.571 710.733,-263.571"/>
</g>
<!-- Node12 -->
<g id="node23" class="node"><title>Node12</title>
<polygon fill="white" stroke="#bfbfbf" points="86.7332,-174.5 86.7332,-195.5 167.733,-195.5 167.733,-174.5 86.7332,-174.5"/>
<text text-anchor="middle" x="127.233" y="-182.5" font-family="Helvetica,sans-Serif" font-size="10.00">QTouchEvent</text>
</g>
<!-- Node1&#45;&gt;Node12 -->
<g id="edge22" class="edge"><title>Node1&#45;&gt;Node12</title>
<path fill="none" stroke="midnightblue" d="M662.163,-299.651C510.917,-294.907 29.656,-277.979 7.23319,-254 -18.7303,-226.235 33.2051,-206.438 76.6865,-195.363"/>
<polygon fill="midnightblue" stroke="midnightblue" points="77.766,-198.702 86.6528,-192.934 76.1084,-191.901 77.766,-198.702"/>
</g>
<!-- Node13 -->
<g id="node25" class="node"><title>Node13</title>
<polygon fill="white" stroke="#bfbfbf" points="800.233,-232.5 800.233,-253.5 858.233,-253.5 858.233,-232.5 800.233,-232.5"/>
<text text-anchor="middle" x="829.233" y="-240.5" font-family="Helvetica,sans-Serif" font-size="10.00">QWidget</text>
</g>
<!-- Node1&#45;&gt;Node13 -->
<g id="edge24" class="edge"><title>Node1&#45;&gt;Node13</title>
<path fill="none" stroke="midnightblue" d="M729.326,-290.497C748.467,-281.397 776.379,-268.127 797.839,-257.925"/>
<polygon fill="midnightblue" stroke="midnightblue" points="799.363,-261.076 806.892,-253.621 796.358,-254.754 799.363,-261.076"/>
</g>
<!-- Node14 -->
<g id="node27" class="node"><title>Node14</title>
<polygon fill="white" stroke="#bfbfbf" points="325.233,-174.5 325.233,-195.5 441.233,-195.5 441.233,-174.5 325.233,-174.5"/>
<text text-anchor="middle" x="383.233" y="-182.5" font-family="Helvetica,sans-Serif" font-size="10.00">QtGui/qmouse_qws.h</text>
</g>
<!-- Node1&#45;&gt;Node14 -->
<g id="edge26" class="edge"><title>Node1&#45;&gt;Node14</title>
<path fill="none" stroke="midnightblue" d="M723.16,-290.306C742.325,-276.164 769.965,-250.837 753.233,-232 710.138,-183.482 533.502,-203.554 451.733,-195.905"/>
<polygon fill="midnightblue" stroke="midnightblue" points="451.65,-192.372 441.314,-194.698 450.845,-199.325 451.65,-192.372"/>
</g>
<!-- Node15 -->
<g id="node29" class="node"><title>Node15</title>
<a xlink:href="hiddtp__qws_8h.htm" target="_top" xlink:title="hiddtp_qws.h">
<polygon fill="white" stroke="black" points="875.733,-232.5 875.733,-253.5 954.733,-253.5 954.733,-232.5 875.733,-232.5"/>
<text text-anchor="middle" x="915.233" y="-240.5" font-family="Helvetica,sans-Serif" font-size="10.00">hiddtp_qws.h</text>
</a>
</g>
<!-- Node1&#45;&gt;Node15 -->
<g id="edge28" class="edge"><title>Node1&#45;&gt;Node15</title>
<path fill="none" stroke="midnightblue" d="M744.9,-290.497C779.25,-280.918 830.17,-266.72 867.387,-256.342"/>
<polygon fill="midnightblue" stroke="midnightblue" points="868.803,-259.581 877.495,-253.523 866.923,-252.838 868.803,-259.581"/>
</g>
<!-- Node20 -->
<g id="node42" class="node"><title>Node20</title>
<polygon fill="white" stroke="#bfbfbf" points="955.233,-174.5 955.233,-195.5 1009.23,-195.5 1009.23,-174.5 955.233,-174.5"/>
<text text-anchor="middle" x="982.233" y="-182.5" font-family="Helvetica,sans-Serif" font-size="10.00">HidLib.h</text>
</g>
<!-- Node1&#45;&gt;Node20 -->
<g id="edge60" class="edge"><title>Node1&#45;&gt;Node20</title>
<path fill="none" stroke="midnightblue" d="M752.244,-298.395C817.276,-293.718 933.043,-281.668 963.233,-254 976.501,-241.841 980.837,-221.352 982.102,-205.852"/>
<polygon fill="midnightblue" stroke="midnightblue" points="985.608,-205.786 982.563,-195.638 978.615,-205.47 985.608,-205.786"/>
</g>
<!-- Node27 -->
<g id="node58" class="node"><title>Node27</title>
<a xlink:href="Time_8h.htm" target="_top" xlink:title="Time.h">
<polygon fill="white" stroke="black" points="1102.23,-232.5 1102.23,-253.5 1150.23,-253.5 1150.23,-232.5 1102.23,-232.5"/>
<text text-anchor="middle" x="1126.23" y="-240.5" font-family="Helvetica,sans-Serif" font-size="10.00">Time.h</text>
</a>
</g>
<!-- Node1&#45;&gt;Node27 -->
<g id="edge62" class="edge"><title>Node1&#45;&gt;Node27</title>
<path fill="none" stroke="midnightblue" d="M752.472,-294.738C836.778,-283.068 1016.19,-258.232 1091.65,-247.787"/>
<polygon fill="midnightblue" stroke="midnightblue" points="1092.58,-251.191 1102.01,-246.353 1091.62,-244.258 1092.58,-251.191"/>
</g>
<!-- Node30 -->
<g id="node66" class="node"><title>Node30</title>
<a xlink:href="Preferences_8h.htm" target="_top" xlink:title="Preferences.h">
<polygon fill="white" stroke="black" points="2182.73,-174.5 2182.73,-195.5 2265.73,-195.5 2265.73,-174.5 2182.73,-174.5"/>
<text text-anchor="middle" x="2224.23" y="-182.5" font-family="Helvetica,sans-Serif" font-size="10.00">Preferences.h</text>
</a>
</g>
<!-- Node1&#45;&gt;Node30 -->
<g id="edge72" class="edge"><title>Node1&#45;&gt;Node30</title>
<path fill="none" stroke="midnightblue" d="M752.314,-300.257C895.287,-297.614 1351.31,-286.992 1727.23,-254 1923.49,-236.776 1975.18,-230.647 2172.43,-196.225"/>
<polygon fill="midnightblue" stroke="midnightblue" points="2173.3,-199.627 2182.55,-194.457 2172.09,-192.731 2173.3,-199.627"/>
</g>
<!-- Node38 -->
<g id="node88" class="node"><title>Node38</title>
<a xlink:href="Settings_8h.htm" target="_top" xlink:title="Settings.h">
<polygon fill="white" stroke="black" points="1374.73,-174.5 1374.73,-195.5 1437.73,-195.5 1437.73,-174.5 1374.73,-174.5"/>
<text text-anchor="middle" x="1406.23" y="-182.5" font-family="Helvetica,sans-Serif" font-size="10.00">Settings.h</text>
</a>
</g>
<!-- Node1&#45;&gt;Node38 -->
<g id="edge100" class="edge"><title>Node1&#45;&gt;Node38</title>
<path fill="none" stroke="midnightblue" d="M752.508,-298.826C834.322,-294.336 1011.97,-282.017 1159.23,-254 1233.09,-239.948 1316.99,-214.411 1365.54,-198.655"/>
<polygon fill="midnightblue" stroke="midnightblue" points="1366.64,-201.979 1375.05,-195.545 1364.46,-195.325 1366.64,-201.979"/>
</g>
<!-- Node42 -->
<g id="node99" class="node"><title>Node42</title>
<a xlink:href="HostBase_8h.htm" target="_top" xlink:title="HostBase.h">
<polygon fill="white" stroke="black" points="1647.73,-232.5 1647.73,-253.5 1718.73,-253.5 1718.73,-232.5 1647.73,-232.5"/>
<text text-anchor="middle" x="1683.23" y="-240.5" font-family="Helvetica,sans-Serif" font-size="10.00">HostBase.h</text>
</a>
</g>
<!-- Node1&#45;&gt;Node42 -->
<g id="edge114" class="edge"><title>Node1&#45;&gt;Node42</title>
<path fill="none" stroke="midnightblue" d="M752.35,-298.319C915.414,-288.629 1473.22,-255.48 1637.41,-245.723"/>
<polygon fill="midnightblue" stroke="midnightblue" points="1637.88,-249.202 1647.65,-245.115 1637.46,-242.214 1637.88,-249.202"/>
</g>
<!-- Node15&#45;&gt;Node2 -->
<g id="edge30" class="edge"><title>Node15&#45;&gt;Node2</title>
<path fill="none" stroke="midnightblue" d="M910.254,-232.245C899.945,-208.197 879.524,-149.56 908.233,-116 950.894,-66.1313 1412.6,-25.931 1558.98,-14.3629"/>
<polygon fill="midnightblue" stroke="midnightblue" points="1559.67,-17.8196 1569.37,-13.5485 1559.13,-10.8411 1559.67,-17.8196"/>
</g>
<!-- Node15&#45;&gt;Node12 -->
<g id="edge36" class="edge"><title>Node15&#45;&gt;Node12</title>
<path fill="none" stroke="midnightblue" d="M875.514,-233.377C872.721,-232.861 869.941,-232.394 867.233,-232 833.187,-227.051 339.843,-197.585 178.141,-188.006"/>
<polygon fill="midnightblue" stroke="midnightblue" points="178.167,-184.502 167.977,-187.404 177.753,-191.489 178.167,-184.502"/>
</g>
<!-- Node15&#45;&gt;Node14 -->
<g id="edge32" class="edge"><title>Node15&#45;&gt;Node14</title>
<path fill="none" stroke="midnightblue" d="M875.503,-233.447C872.713,-232.914 869.936,-232.424 867.233,-232 686.691,-203.661 636.57,-218.539 451.371,-196.056"/>
<polygon fill="midnightblue" stroke="midnightblue" points="451.652,-192.564 441.298,-194.812 450.794,-199.511 451.652,-192.564"/>
</g>
<!-- Node16 -->
<g id="node33" class="node"><title>Node16</title>
<polygon fill="white" stroke="#bfbfbf" points="596.733,-174.5 596.733,-195.5 637.733,-195.5 637.733,-174.5 596.733,-174.5"/>
<text text-anchor="middle" x="617.233" y="-182.5" font-family="Helvetica,sans-Serif" font-size="10.00">QList</text>
</g>
<!-- Node15&#45;&gt;Node16 -->
<g id="edge34" class="edge"><title>Node15&#45;&gt;Node16</title>
<path fill="none" stroke="midnightblue" d="M875.723,-233.735C872.854,-233.127 870.002,-232.542 867.233,-232 772.719,-213.492 744.181,-221.233 647.833,-196.067"/>
<polygon fill="midnightblue" stroke="midnightblue" points="648.542,-192.634 637.978,-193.441 646.739,-199.398 648.542,-192.634"/>
</g>
<!-- Node17 -->
<g id="node36" class="node"><title>Node17</title>
<polygon fill="white" stroke="#bfbfbf" points="1027.23,-174.5 1027.23,-195.5 1077.23,-195.5 1077.23,-174.5 1027.23,-174.5"/>
<text text-anchor="middle" x="1052.23" y="-182.5" font-family="Helvetica,sans-Serif" font-size="10.00">stdint.h</text>
</g>
<!-- Node15&#45;&gt;Node17 -->
<g id="edge38" class="edge"><title>Node15&#45;&gt;Node17</title>
<path fill="none" stroke="midnightblue" d="M940.043,-232.497C961.73,-223.315 993.444,-209.889 1017.63,-199.652"/>
<polygon fill="midnightblue" stroke="midnightblue" points="1019.3,-202.743 1027.15,-195.621 1016.57,-196.297 1019.3,-202.743"/>
</g>
<!-- Node18 -->
<g id="node38" class="node"><title>Node18</title>
<polygon fill="white" stroke="#bfbfbf" points="654.733,-174.5 654.733,-195.5 701.733,-195.5 701.733,-174.5 654.733,-174.5"/>
<text text-anchor="middle" x="678.233" y="-182.5" font-family="Helvetica,sans-Serif" font-size="10.00">stdio.h</text>
</g>
<!-- Node15&#45;&gt;Node18 -->
<g id="edge40" class="edge"><title>Node15&#45;&gt;Node18</title>
<path fill="none" stroke="midnightblue" d="M875.342,-233.861C824.678,-222.253 740.936,-203.064 711.741,-195.96"/>
<polygon fill="midnightblue" stroke="midnightblue" points="712.465,-192.533 701.91,-193.451 710.734,-199.315 712.465,-192.533"/>
</g>
<!-- Node19 -->
<g id="node40" class="node"><title>Node19</title>
<polygon fill="white" stroke="#bfbfbf" points="1370.73,-0.5 1370.73,-21.5 1411.73,-21.5 1411.73,-0.5 1370.73,-0.5"/>
<text text-anchor="middle" x="1391.23" y="-8.5" font-family="Helvetica,sans-Serif" font-size="10.00">glib.h</text>
</g>
<!-- Node15&#45;&gt;Node19 -->
<g id="edge42" class="edge"><title>Node15&#45;&gt;Node19</title>
<path fill="none" stroke="midnightblue" d="M875.482,-233.578C872.696,-233.014 869.926,-232.481 867.233,-232 742.556,-209.725 508.079,-272.06 588.233,-174 688.817,-50.9473 1225.59,-18.5235 1360.46,-12.2674"/>
<polygon fill="midnightblue" stroke="midnightblue" points="1360.69,-15.761 1370.52,-11.8154 1360.37,-8.76801 1360.69,-15.761"/>
</g>
<!-- Node15&#45;&gt;Node20 -->
<g id="edge44" class="edge"><title>Node15&#45;&gt;Node20</title>
<path fill="none" stroke="midnightblue" d="M927.522,-232.362C937.25,-223.941 951.031,-212.011 962.329,-202.231"/>
<polygon fill="midnightblue" stroke="midnightblue" points="964.752,-204.762 970.022,-195.571 960.171,-199.469 964.752,-204.762"/>
</g>
<!-- Node21 -->
<g id="node44" class="node"><title>Node21</title>
<a xlink:href="FlickGesture_8h.htm" target="_top" xlink:title="FlickGesture.h">
<polygon fill="white" stroke="black" points="458.733,-174.5 458.733,-195.5 541.733,-195.5 541.733,-174.5 458.733,-174.5"/>
<text text-anchor="middle" x="500.233" y="-182.5" font-family="Helvetica,sans-Serif" font-size="10.00">FlickGesture.h</text>
</a>
</g>
<!-- Node15&#45;&gt;Node21 -->
<g id="edge46" class="edge"><title>Node15&#45;&gt;Node21</title>
<path fill="none" stroke="midnightblue" d="M875.489,-233.536C872.702,-232.982 869.93,-232.463 867.233,-232 729.66,-208.374 693.122,-217.706 555.233,-196 554.151,-195.83 553.058,-195.653 551.956,-195.471"/>
<polygon fill="midnightblue" stroke="midnightblue" points="552.364,-191.989 541.91,-193.711 551.156,-198.884 552.364,-191.989"/>
</g>
<!-- Node25 -->
<g id="node53" class="node"><title>Node25</title>
<polygon fill="white" stroke="#bfbfbf" points="719.233,-174.5 719.233,-195.5 861.233,-195.5 861.233,-174.5 719.233,-174.5"/>
<text text-anchor="middle" x="790.233" y="-182.5" font-family="Helvetica,sans-Serif" font-size="10.00">ScreenEdgeFlickGesture.h</text>
</g>
<!-- Node15&#45;&gt;Node25 -->
<g id="edge56" class="edge"><title>Node15&#45;&gt;Node25</title>
<path fill="none" stroke="midnightblue" d="M892.597,-232.497C872.985,-223.397 844.387,-210.127 822.4,-199.925"/>
<polygon fill="midnightblue" stroke="midnightblue" points="823.668,-196.655 813.124,-195.621 820.722,-203.005 823.668,-196.655"/>
</g>
<!-- Node26 -->
<g id="node55" class="node"><title>Node26</title>
<polygon fill="white" stroke="#bfbfbf" points="917.233,-116.5 917.233,-137.5 973.233,-137.5 973.233,-116.5 917.233,-116.5"/>
<text text-anchor="middle" x="945.233" y="-124.5" font-family="Helvetica,sans-Serif" font-size="10.00">hal/hal.h</text>
</g>
<!-- Node15&#45;&gt;Node26 -->
<g id="edge58" class="edge"><title>Node15&#45;&gt;Node26</title>
<path fill="none" stroke="midnightblue" d="M918.002,-232.295C922.98,-213.045 933.521,-172.289 939.929,-147.509"/>
<polygon fill="midnightblue" stroke="midnightblue" points="943.356,-148.237 942.471,-137.679 936.579,-146.484 943.356,-148.237"/>
</g>
<!-- Node21&#45;&gt;Node2 -->
<g id="edge48" class="edge"><title>Node21&#45;&gt;Node2</title>
<path fill="none" stroke="midnightblue" d="M535.492,-174.441C619.455,-149.744 838.205,-88.0369 1025.23,-58 1128.14,-41.4739 1442.64,-20.9377 1559.18,-13.6867"/>
<polygon fill="midnightblue" stroke="midnightblue" points="1559.74,-17.1588 1569.51,-13.0469 1559.31,-10.1722 1559.74,-17.1588"/>
</g>
<!-- Node22 -->
<g id="node47" class="node"><title>Node22</title>
<polygon fill="white" stroke="#bfbfbf" points="479.233,-116.5 479.233,-137.5 541.233,-137.5 541.233,-116.5 479.233,-116.5"/>
<text text-anchor="middle" x="510.233" y="-124.5" font-family="Helvetica,sans-Serif" font-size="10.00">QGesture</text>
</g>
<!-- Node21&#45;&gt;Node22 -->
<g id="edge50" class="edge"><title>Node21&#45;&gt;Node22</title>
<path fill="none" stroke="midnightblue" d="M502.067,-174.362C503.364,-166.84 505.144,-156.519 506.711,-147.431"/>
<polygon fill="midnightblue" stroke="midnightblue" points="510.161,-148.02 508.411,-137.571 503.262,-146.831 510.161,-148.02"/>
</g>
<!-- Node23 -->
<g id="node49" class="node"><title>Node23</title>
<polygon fill="white" stroke="#bfbfbf" points="312.733,-116.5 312.733,-137.5 361.733,-137.5 361.733,-116.5 312.733,-116.5"/>
<text text-anchor="middle" x="337.233" y="-124.5" font-family="Helvetica,sans-Serif" font-size="10.00">QPoint</text>
</g>
<!-- Node21&#45;&gt;Node23 -->
<g id="edge52" class="edge"><title>Node21&#45;&gt;Node23</title>
<path fill="none" stroke="midnightblue" d="M470.715,-174.497C442.691,-164.525 400.593,-149.545 371.19,-139.083"/>
<polygon fill="midnightblue" stroke="midnightblue" points="372.338,-135.776 361.743,-135.721 369.991,-142.371 372.338,-135.776"/>
</g>
<!-- Node24 -->
<g id="node51" class="node"><title>Node24</title>
<polygon fill="white" stroke="#bfbfbf" points="378.733,-116.5 378.733,-137.5 461.733,-137.5 461.733,-116.5 378.733,-116.5"/>
<text text-anchor="middle" x="420.233" y="-124.5" font-family="Helvetica,sans-Serif" font-size="10.00">SysMgrDefs.h</text>
</g>
<!-- Node21&#45;&gt;Node24 -->
<g id="edge54" class="edge"><title>Node21&#45;&gt;Node24</title>
<path fill="none" stroke="midnightblue" d="M485.56,-174.362C473.719,-165.777 456.848,-153.546 443.217,-143.664"/>
<polygon fill="midnightblue" stroke="midnightblue" points="444.964,-140.607 434.813,-137.571 440.855,-146.274 444.964,-140.607"/>
</g>
<!-- Node27&#45;&gt;Node2 -->
<g id="edge64" class="edge"><title>Node27&#45;&gt;Node2</title>
<path fill="none" stroke="midnightblue" d="M1150.51,-233.421C1179.22,-221.85 1223.71,-203.061 1228.23,-196 1247.46,-165.972 1200.63,-144.364 1222.23,-116 1263.37,-61.9986 1468.54,-28.7458 1559.59,-16.4293"/>
<polygon fill="midnightblue" stroke="midnightblue" points="1560.14,-19.8869 1569.59,-15.0986 1559.22,-12.948 1560.14,-19.8869"/>
</g>
<!-- Node27&#45;&gt;Node17 -->
<g id="edge70" class="edge"><title>Node27&#45;&gt;Node17</title>
<path fill="none" stroke="midnightblue" d="M1112.66,-232.362C1101.81,-223.859 1086.4,-211.779 1073.85,-201.947"/>
<polygon fill="midnightblue" stroke="midnightblue" points="1075.75,-198.985 1065.72,-195.571 1071.43,-204.494 1075.75,-198.985"/>
</g>
<!-- Node28 -->
<g id="node61" class="node"><title>Node28</title>
<polygon fill="white" stroke="#bfbfbf" points="1094.73,-174.5 1094.73,-195.5 1157.73,-195.5 1157.73,-174.5 1094.73,-174.5"/>
<text text-anchor="middle" x="1126.23" y="-182.5" font-family="Helvetica,sans-Serif" font-size="10.00">sys/time.h</text>
</g>
<!-- Node27&#45;&gt;Node28 -->
<g id="edge66" class="edge"><title>Node27&#45;&gt;Node28</title>
<path fill="none" stroke="midnightblue" d="M1126.23,-232.362C1126.23,-224.922 1126.23,-214.743 1126.23,-205.728"/>
<polygon fill="midnightblue" stroke="midnightblue" points="1129.73,-205.571 1126.23,-195.571 1122.73,-205.571 1129.73,-205.571"/>
</g>
<!-- Node29 -->
<g id="node63" class="node"><title>Node29</title>
<polygon fill="white" stroke="#bfbfbf" points="1175.23,-174.5 1175.23,-195.5 1219.23,-195.5 1219.23,-174.5 1175.23,-174.5"/>
<text text-anchor="middle" x="1197.23" y="-182.5" font-family="Helvetica,sans-Serif" font-size="10.00">time.h</text>
</g>
<!-- Node27&#45;&gt;Node29 -->
<g id="edge68" class="edge"><title>Node27&#45;&gt;Node29</title>
<path fill="none" stroke="midnightblue" d="M1139.26,-232.362C1149.66,-223.859 1164.45,-211.779 1176.49,-201.947"/>
<polygon fill="midnightblue" stroke="midnightblue" points="1178.76,-204.608 1184.29,-195.571 1174.33,-199.187 1178.76,-204.608"/>
</g>
<!-- Node30&#45;&gt;Node2 -->
<g id="edge74" class="edge"><title>Node30&#45;&gt;Node2</title>
<path fill="none" stroke="midnightblue" d="M2227.19,-174.427C2230.67,-159.485 2234.33,-132.209 2220.23,-116 2145.08,-29.562 1775.26,-14.2814 1647.07,-11.5801"/>
<polygon fill="midnightblue" stroke="midnightblue" points="1646.92,-8.07641 1636.85,-11.3808 1646.78,-15.0751 1646.92,-8.07641"/>
</g>
<!-- Node31 -->
<g id="node69" class="node"><title>Node31</title>
<polygon fill="white" stroke="#bfbfbf" points="1532.73,-116.5 1532.73,-137.5 1575.73,-137.5 1575.73,-116.5 1532.73,-116.5"/>
<text text-anchor="middle" x="1554.23" y="-124.5" font-family="Helvetica,sans-Serif" font-size="10.00">string</text>
</g>
<!-- Node30&#45;&gt;Node31 -->
<g id="edge76" class="edge"><title>Node30&#45;&gt;Node31</title>
<path fill="none" stroke="midnightblue" d="M2182.58,-175.341C2179.76,-174.841 2176.96,-174.387 2174.23,-174 1930.81,-139.489 1866.53,-165.661 1622.23,-138 1610.31,-136.65 1597.3,-134.67 1585.87,-132.76"/>
<polygon fill="midnightblue" stroke="midnightblue" points="1586.35,-129.291 1575.9,-131.046 1585.17,-136.19 1586.35,-129.291"/>
</g>
<!-- Node32 -->
<g id="node71" class="node"><title>Node32</title>
<polygon fill="white" stroke="#bfbfbf" points="2133.23,-116.5 2133.23,-137.5 2211.23,-137.5 2211.23,-116.5 2133.23,-116.5"/>
<text text-anchor="middle" x="2172.23" y="-124.5" font-family="Helvetica,sans-Serif" font-size="10.00">lunaservice.h</text>
</g>
<!-- Node30&#45;&gt;Node32 -->
<g id="edge78" class="edge"><title>Node30&#45;&gt;Node32</title>
<path fill="none" stroke="midnightblue" d="M2214.7,-174.362C2207.37,-166.186 2197.07,-154.702 2188.45,-145.091"/>
<polygon fill="midnightblue" stroke="midnightblue" points="2190.99,-142.68 2181.71,-137.571 2185.78,-147.353 2190.99,-142.68"/>
</g>
<!-- Node33 -->
<g id="node73" class="node"><title>Node33</title>
<a xlink:href="Mutex_8h.htm" target="_top" xlink:title="Mutex.h">
<polygon fill="white" stroke="black" points="1630.73,-116.5 1630.73,-137.5 1683.73,-137.5 1683.73,-116.5 1630.73,-116.5"/>
<text text-anchor="middle" x="1657.23" y="-124.5" font-family="Helvetica,sans-Serif" font-size="10.00">Mutex.h</text>
</a>
</g>
<!-- Node30&#45;&gt;Node33 -->
<g id="edge80" class="edge"><title>Node30&#45;&gt;Node33</title>
<path fill="none" stroke="midnightblue" d="M2182.57,-175.422C2179.75,-174.902 2176.96,-174.422 2174.23,-174 1995.29,-146.296 1778.79,-133.128 1693.9,-128.744"/>
<polygon fill="midnightblue" stroke="midnightblue" points="1693.9,-125.24 1683.74,-128.229 1693.55,-132.231 1693.9,-125.24"/>
</g>
<!-- Node35 -->
<g id="node81" class="node"><title>Node35</title>
<a xlink:href="CustomEvents_8h.htm" target="_top" xlink:title="CustomEvents.h">
<polygon fill="white" stroke="black" points="1883.23,-116.5 1883.23,-137.5 1975.23,-137.5 1975.23,-116.5 1883.23,-116.5"/>
<text text-anchor="middle" x="1929.23" y="-124.5" font-family="Helvetica,sans-Serif" font-size="10.00">CustomEvents.h</text>
</a>
</g>
<!-- Node30&#45;&gt;Node35 -->
<g id="edge92" class="edge"><title>Node30&#45;&gt;Node35</title>
<path fill="none" stroke="midnightblue" d="M2182.51,-175.732C2179.71,-175.138 2176.93,-174.556 2174.23,-174 2109.54,-160.682 2034.99,-146.553 1985.27,-137.305"/>
<polygon fill="midnightblue" stroke="midnightblue" points="1985.84,-133.85 1975.37,-135.465 1984.56,-140.732 1985.84,-133.85"/>
</g>
<!-- Node37 -->
<g id="node86" class="node"><title>Node37</title>
<polygon fill="white" stroke="#bfbfbf" points="2060.73,-116.5 2060.73,-137.5 2115.73,-137.5 2115.73,-116.5 2060.73,-116.5"/>
<text text-anchor="middle" x="2088.23" y="-124.5" font-family="Helvetica,sans-Serif" font-size="10.00">QObject</text>
</g>
<!-- Node30&#45;&gt;Node37 -->
<g id="edge98" class="edge"><title>Node30&#45;&gt;Node37</title>
<path fill="none" stroke="midnightblue" d="M2199.6,-174.497C2178.08,-165.315 2146.59,-151.889 2122.59,-141.652"/>
<polygon fill="midnightblue" stroke="midnightblue" points="2123.71,-138.325 2113.14,-137.621 2120.96,-144.764 2123.71,-138.325"/>
</g>
<!-- Node33&#45;&gt;Node2 -->
<g id="edge82" class="edge"><title>Node33&#45;&gt;Node2</title>
<path fill="none" stroke="midnightblue" d="M1652.25,-116.295C1643.21,-96.8724 1623.97,-55.5561 1612.47,-30.8462"/>
<polygon fill="midnightblue" stroke="midnightblue" points="1615.6,-29.2679 1608.2,-21.6792 1609.25,-32.2222 1615.6,-29.2679"/>
</g>
<!-- Node33&#45;&gt;Node19 -->
<g id="edge90" class="edge"><title>Node33&#45;&gt;Node19</title>
<path fill="none" stroke="midnightblue" d="M1630.57,-118.786C1603.42,-110.14 1560.3,-95.6363 1524.23,-80 1486.82,-63.7793 1445.36,-41.5534 1418.84,-26.7577"/>
<polygon fill="midnightblue" stroke="midnightblue" points="1420.21,-23.5135 1409.77,-21.6677 1416.78,-29.6166 1420.21,-23.5135"/>
</g>
<!-- Node34 -->
<g id="node76" class="node"><title>Node34</title>
<a xlink:href="sptr_8h.htm" target="_top" xlink:title="sptr.h">
<polygon fill="white" stroke="black" points="1532.73,-58.5 1532.73,-79.5 1575.73,-79.5 1575.73,-58.5 1532.73,-58.5"/>
<text text-anchor="middle" x="1554.23" y="-66.5" font-family="Helvetica,sans-Serif" font-size="10.00">sptr.h</text>
</a>
</g>
<!-- Node33&#45;&gt;Node34 -->
<g id="edge84" class="edge"><title>Node33&#45;&gt;Node34</title>
<path fill="none" stroke="midnightblue" d="M1638.34,-116.362C1622.52,-107.45 1599.71,-94.6087 1581.84,-84.5447"/>
<polygon fill="midnightblue" stroke="midnightblue" points="1583.44,-81.4276 1573.01,-79.5707 1580,-87.5271 1583.44,-81.4276"/>
</g>
<!-- Node34&#45;&gt;Node2 -->
<g id="edge86" class="edge"><title>Node34&#45;&gt;Node2</title>
<path fill="none" stroke="midnightblue" d="M1563.22,-58.3619C1570.06,-50.2678 1579.64,-38.9318 1587.71,-29.3796"/>
<polygon fill="midnightblue" stroke="midnightblue" points="1590.52,-31.4683 1594.3,-21.5707 1585.18,-26.9508 1590.52,-31.4683"/>
</g>
<!-- Node34&#45;&gt;Node19 -->
<g id="edge88" class="edge"><title>Node34&#45;&gt;Node19</title>
<path fill="none" stroke="midnightblue" d="M1532.59,-61.298C1504.14,-51.1769 1454.02,-33.3419 1421.74,-21.8554"/>
<polygon fill="midnightblue" stroke="midnightblue" points="1422.53,-18.4219 1411.94,-18.3669 1420.18,-25.0168 1422.53,-18.4219"/>
</g>
<!-- Node35&#45;&gt;Node2 -->
<g id="edge94" class="edge"><title>Node35&#45;&gt;Node2</title>
<path fill="none" stroke="midnightblue" d="M1929.62,-116.297C1929.55,-100.938 1926.94,-72.8646 1910.23,-58 1872.09,-24.0725 1722.43,-14.6211 1647.08,-11.9995"/>
<polygon fill="midnightblue" stroke="midnightblue" points="1647.06,-8.49734 1636.96,-11.673 1646.84,-15.4937 1647.06,-8.49734"/>
</g>
<!-- Node36 -->
<g id="node84" class="node"><title>Node36</title>
<polygon fill="white" stroke="#bfbfbf" points="1849.23,-58.5 1849.23,-79.5 1901.23,-79.5 1901.23,-58.5 1849.23,-58.5"/>
<text text-anchor="middle" x="1875.23" y="-66.5" font-family="Helvetica,sans-Serif" font-size="10.00">QEvent</text>
</g>
<!-- Node35&#45;&gt;Node36 -->
<g id="edge96" class="edge"><title>Node35&#45;&gt;Node36</title>
<path fill="none" stroke="midnightblue" d="M1919.33,-116.362C1911.72,-108.186 1901.03,-96.7025 1892.08,-87.0907"/>
<polygon fill="midnightblue" stroke="midnightblue" points="1894.45,-84.5046 1885.07,-79.5707 1889.33,-89.2746 1894.45,-84.5046"/>
</g>
<!-- Node38&#45;&gt;Node2 -->
<g id="edge102" class="edge"><title>Node38&#45;&gt;Node2</title>
<path fill="none" stroke="midnightblue" d="M1414.52,-174.163C1432.64,-150.939 1477.87,-95.4432 1524.23,-58 1539.14,-45.9592 1557.44,-34.8734 1572.68,-26.4958"/>
<polygon fill="midnightblue" stroke="midnightblue" points="1574.56,-29.4605 1581.71,-21.6452 1571.24,-23.2937 1574.56,-29.4605"/>
</g>
<!-- Node38&#45;&gt;Node19 -->
<g id="edge110" class="edge"><title>Node38&#45;&gt;Node19</title>
<path fill="none" stroke="midnightblue" d="M1374.37,-176.167C1371.62,-175.426 1368.88,-174.695 1366.23,-174 1302.42,-157.253 1262.83,-189.998 1222.23,-138 1177.82,-81.1198 1301.33,-36.6946 1361.01,-19.1469"/>
<polygon fill="midnightblue" stroke="midnightblue" points="1362.03,-22.4945 1370.68,-16.3741 1360.1,-15.7655 1362.03,-22.4945"/>
</g>
<!-- Node38&#45;&gt;Node31 -->
<g id="edge104" class="edge"><title>Node38&#45;&gt;Node31</title>
<path fill="none" stroke="midnightblue" d="M1433.03,-174.497C1458.3,-164.597 1496.15,-149.762 1522.82,-139.311"/>
<polygon fill="midnightblue" stroke="midnightblue" points="1524.41,-142.447 1532.44,-135.539 1521.86,-135.929 1524.41,-142.447"/>
</g>
<!-- Node39 -->
<g id="node92" class="node"><title>Node39</title>
<polygon fill="white" stroke="#bfbfbf" points="1231.23,-116.5 1231.23,-137.5 1277.23,-137.5 1277.23,-116.5 1231.23,-116.5"/>
<text text-anchor="middle" x="1254.23" y="-124.5" font-family="Helvetica,sans-Serif" font-size="10.00">vector</text>
</g>
<!-- Node38&#45;&gt;Node39 -->
<g id="edge106" class="edge"><title>Node38&#45;&gt;Node39</title>
<path fill="none" stroke="midnightblue" d="M1378.71,-174.497C1352.95,-164.67 1314.45,-149.979 1287.1,-139.541"/>
<polygon fill="midnightblue" stroke="midnightblue" points="1288.16,-136.2 1277.57,-135.905 1285.67,-142.74 1288.16,-136.2"/>
</g>
<!-- Node40 -->
<g id="node94" class="node"><title>Node40</title>
<polygon fill="white" stroke="#bfbfbf" points="1294.73,-116.5 1294.73,-137.5 1325.73,-137.5 1325.73,-116.5 1294.73,-116.5"/>
<text text-anchor="middle" x="1310.23" y="-124.5" font-family="Helvetica,sans-Serif" font-size="10.00">set</text>
</g>
<!-- Node38&#45;&gt;Node40 -->
<g id="edge108" class="edge"><title>Node38&#45;&gt;Node40</title>
<path fill="none" stroke="midnightblue" d="M1388.63,-174.362C1373.46,-165.201 1351.43,-151.887 1334.58,-141.707"/>
<polygon fill="midnightblue" stroke="midnightblue" points="1336.19,-138.595 1325.82,-136.419 1332.57,-144.586 1336.19,-138.595"/>
</g>
<!-- Node41 -->
<g id="node97" class="node"><title>Node41</title>
<polygon fill="white" stroke="#bfbfbf" points="1343.23,-116.5 1343.23,-137.5 1401.23,-137.5 1401.23,-116.5 1343.23,-116.5"/>
<text text-anchor="middle" x="1372.23" y="-124.5" font-family="Helvetica,sans-Serif" font-size="10.00">QtGlobal</text>
</g>
<!-- Node38&#45;&gt;Node41 -->
<g id="edge112" class="edge"><title>Node38&#45;&gt;Node41</title>
<path fill="none" stroke="midnightblue" d="M1400,-174.362C1395.4,-166.513 1389.01,-155.616 1383.52,-146.253"/>
<polygon fill="midnightblue" stroke="midnightblue" points="1386.51,-144.428 1378.43,-137.571 1380.47,-147.968 1386.51,-144.428"/>
</g>
<!-- Node42&#45;&gt;Node2 -->
<g id="edge116" class="edge"><title>Node42&#45;&gt;Node2</title>
<path fill="none" stroke="midnightblue" d="M1686.8,-232.401C1693.7,-210.091 1706.99,-156.969 1692.23,-116 1679.09,-79.5168 1646.85,-47.097 1625.01,-28.2477"/>
<polygon fill="midnightblue" stroke="midnightblue" points="1627.11,-25.4489 1617.2,-21.7078 1622.62,-30.8138 1627.11,-25.4489"/>
</g>
<!-- Node42&#45;&gt;Node33 -->
<g id="edge134" class="edge"><title>Node42&#45;&gt;Node33</title>
<path fill="none" stroke="midnightblue" d="M1647.47,-237.944C1622.32,-232.318 1590.37,-220.534 1574.23,-196 1558.32,-171.808 1591.86,-151.68 1620.95,-139.525"/>
<polygon fill="midnightblue" stroke="midnightblue" points="1622.56,-142.652 1630.57,-135.714 1619.98,-136.144 1622.56,-142.652"/>
</g>
<!-- Node42&#45;&gt;Node35 -->
<g id="edge136" class="edge"><title>Node42&#45;&gt;Node35</title>
<path fill="none" stroke="midnightblue" d="M1718.74,-240.121C1775.47,-234.81 1882.93,-221.598 1910.23,-196 1923.36,-183.691 1927.72,-163.223 1929.02,-147.768"/>
<polygon fill="midnightblue" stroke="midnightblue" points="1932.53,-147.747 1929.52,-137.589 1925.54,-147.407 1932.53,-147.747"/>
</g>
<!-- Node43 -->
<g id="node102" class="node"><title>Node43</title>
<polygon fill="white" stroke="#bfbfbf" points="1738.73,-174.5 1738.73,-195.5 1815.73,-195.5 1815.73,-174.5 1738.73,-174.5"/>
<text text-anchor="middle" x="1777.23" y="-182.5" font-family="Helvetica,sans-Serif" font-size="10.00">PGContext.h</text>
</g>
<!-- Node42&#45;&gt;Node43 -->
<g id="edge118" class="edge"><title>Node42&#45;&gt;Node43</title>
<path fill="none" stroke="midnightblue" d="M1700.47,-232.362C1714.78,-223.532 1735.35,-210.844 1751.59,-200.822"/>
<polygon fill="midnightblue" stroke="midnightblue" points="1753.43,-203.8 1760.1,-195.571 1749.75,-197.843 1753.43,-203.8"/>
</g>
<!-- Node44 -->
<g id="node104" class="node"><title>Node44</title>
<polygon fill="white" stroke="#bfbfbf" points="1833.23,-174.5 1833.23,-195.5 1901.23,-195.5 1901.23,-174.5 1833.23,-174.5"/>
<text text-anchor="middle" x="1867.23" y="-182.5" font-family="Helvetica,sans-Serif" font-size="10.00">PContext.h</text>
</g>
<!-- Node42&#45;&gt;Node44 -->
<g id="edge120" class="edge"><title>Node42&#45;&gt;Node44</title>
<path fill="none" stroke="midnightblue" d="M1716.55,-232.497C1746.68,-223 1791.22,-208.962 1824.06,-198.609"/>
<polygon fill="midnightblue" stroke="midnightblue" points="1825.36,-201.868 1833.85,-195.523 1823.26,-195.191 1825.36,-201.868"/>
</g>
<!-- Node45 -->
<g id="node106" class="node"><title>Node45</title>
<polygon fill="white" stroke="#bfbfbf" points="1957.23,-174.5 1957.23,-195.5 2023.23,-195.5 2023.23,-174.5 1957.23,-174.5"/>
<text text-anchor="middle" x="1990.23" y="-182.5" font-family="Helvetica,sans-Serif" font-size="10.00">PPixmap.h</text>
</g>
<!-- Node42&#45;&gt;Node45 -->
<g id="edge122" class="edge"><title>Node42&#45;&gt;Node45</title>
<path fill="none" stroke="midnightblue" d="M1719.09,-237.114C1769.34,-228.729 1863.51,-212.524 1943.23,-196 1944.5,-195.737 1945.79,-195.465 1947.09,-195.188"/>
<polygon fill="midnightblue" stroke="midnightblue" points="1948.15,-198.539 1957.16,-192.965 1946.64,-191.703 1948.15,-198.539"/>
</g>
<!-- Node46 -->
<g id="node108" class="node"><title>Node46</title>
<a xlink:href="TaskBase_8h.htm" target="_top" xlink:title="TaskBase.h">
<polygon fill="white" stroke="red" points="1455.23,-174.5 1455.23,-195.5 1527.23,-195.5 1527.23,-174.5 1455.23,-174.5"/>
<text text-anchor="middle" x="1491.23" y="-182.5" font-family="Helvetica,sans-Serif" font-size="10.00">TaskBase.h</text>
</a>
</g>
<!-- Node42&#45;&gt;Node46 -->
<g id="edge124" class="edge"><title>Node42&#45;&gt;Node46</title>
<path fill="none" stroke="midnightblue" d="M1648.46,-232.497C1616.89,-222.959 1570.15,-208.841 1535.84,-198.475"/>
<polygon fill="midnightblue" stroke="midnightblue" points="1536.65,-195.064 1526.07,-195.523 1534.63,-201.765 1536.65,-195.064"/>
</g>
<!-- Node47 -->
<g id="node116" class="node"><title>Node47</title>
<a xlink:href="InputControl_8h.htm" target="_top" xlink:title="InputControl.h">
<polygon fill="white" stroke="black" points="1274.73,-174.5 1274.73,-195.5 1357.73,-195.5 1357.73,-174.5 1274.73,-174.5"/>
<text text-anchor="middle" x="1316.23" y="-182.5" font-family="Helvetica,sans-Serif" font-size="10.00">InputControl.h</text>
</a>
</g>
<!-- Node42&#45;&gt;Node47 -->
<g id="edge138" class="edge"><title>Node42&#45;&gt;Node47</title>
<path fill="none" stroke="midnightblue" d="M1647.44,-238.517C1590.36,-231.188 1475,-215.645 1367.93,-196.23"/>
<polygon fill="midnightblue" stroke="midnightblue" points="1368.4,-192.757 1357.93,-194.4 1367.14,-199.643 1368.4,-192.757"/>
</g>
<!-- Node48 -->
<g id="node119" class="node"><title>Node48</title>
<polygon fill="white" stroke="#bfbfbf" points="2040.73,-174.5 2040.73,-195.5 2165.73,-195.5 2165.73,-174.5 2040.73,-174.5"/>
<text text-anchor="middle" x="2103.23" y="-182.5" font-family="Helvetica,sans-Serif" font-size="10.00">webosDeviceKeymap.h</text>
</g>
<!-- Node42&#45;&gt;Node48 -->
<g id="edge142" class="edge"><title>Node42&#45;&gt;Node48</title>
<path fill="none" stroke="midnightblue" d="M1718.94,-238.429C1780.42,-230.507 1910.51,-213.52 2030.43,-196.242"/>
<polygon fill="midnightblue" stroke="midnightblue" points="2031.13,-199.679 2040.52,-194.785 2030.13,-192.751 2031.13,-199.679"/>
</g>
<!-- Node49 -->
<g id="node121" class="node"><title>Node49</title>
<polygon fill="white" stroke="#bfbfbf" points="1582.73,-174.5 1582.73,-195.5 1611.73,-195.5 1611.73,-174.5 1582.73,-174.5"/>
<text text-anchor="middle" x="1597.23" y="-182.5" font-family="Helvetica,sans-Serif" font-size="10.00">Qt</text>
</g>
<!-- Node42&#45;&gt;Node49 -->
<g id="edge144" class="edge"><title>Node42&#45;&gt;Node49</title>
<path fill="none" stroke="midnightblue" d="M1667.46,-232.362C1654.29,-223.479 1635.33,-210.691 1620.43,-200.642"/>
<polygon fill="midnightblue" stroke="midnightblue" points="1622.01,-197.488 1611.76,-194.798 1618.09,-203.291 1622.01,-197.488"/>
</g>
<!-- Node50 -->
<g id="node123" class="node"><title>Node50</title>
<polygon fill="white" stroke="#bfbfbf" points="1629.23,-174.5 1629.23,-195.5 1683.23,-195.5 1683.23,-174.5 1629.23,-174.5"/>
<text text-anchor="middle" x="1656.23" y="-182.5" font-family="Helvetica,sans-Serif" font-size="10.00">QImage</text>
</g>
<!-- Node42&#45;&gt;Node50 -->
<g id="edge146" class="edge"><title>Node42&#45;&gt;Node50</title>
<path fill="none" stroke="midnightblue" d="M1678.28,-232.362C1674.7,-224.677 1669.77,-214.069 1665.47,-204.84"/>
<polygon fill="midnightblue" stroke="midnightblue" points="1668.55,-203.159 1661.15,-195.571 1662.2,-206.114 1668.55,-203.159"/>
</g>
<!-- Node46&#45;&gt;Node2 -->
<g id="edge126" class="edge"><title>Node46&#45;&gt;Node2</title>
<path fill="none" stroke="midnightblue" d="M1527.56,-175.577C1547.42,-168.519 1570.67,-156.769 1584.23,-138 1606.97,-106.534 1607.57,-59.1179 1605.62,-32.0066"/>
<polygon fill="midnightblue" stroke="midnightblue" points="1609.08,-31.3794 1604.69,-21.7363 1602.11,-32.0115 1609.08,-31.3794"/>
</g>
<!-- Node46&#45;&gt;Node19 -->
<g id="edge128" class="edge"><title>Node46&#45;&gt;Node19</title>
<path fill="none" stroke="midnightblue" d="M1485.13,-174.377C1468.78,-145.93 1423.81,-67.6838 1402.59,-30.7689"/>
<polygon fill="midnightblue" stroke="midnightblue" points="1405.53,-28.8539 1397.51,-21.9277 1399.46,-32.3419 1405.53,-28.8539"/>
</g>
<!-- Node46&#45;&gt;Node33 -->
<g id="edge132" class="edge"><title>Node46&#45;&gt;Node33</title>
<path fill="none" stroke="midnightblue" d="M1521.29,-174.497C1549.33,-164.701 1591.2,-150.072 1621.05,-139.641"/>
<polygon fill="midnightblue" stroke="midnightblue" points="1622.4,-142.88 1630.68,-136.277 1620.09,-136.271 1622.4,-142.88"/>
</g>
<!-- Node46&#45;&gt;Node34 -->
<g id="edge130" class="edge"><title>Node46&#45;&gt;Node34</title>
<path fill="none" stroke="midnightblue" d="M1495.98,-174.037C1502.06,-160.25 1513.14,-135.965 1524.23,-116 1529.48,-106.554 1535.86,-96.4099 1541.38,-87.9721"/>
<polygon fill="midnightblue" stroke="midnightblue" points="1544.32,-89.8658 1546.94,-79.5997 1538.49,-85.9919 1544.32,-89.8658"/>
</g>
<!-- Node47&#45;&gt;Node26 -->
<g id="edge140" class="edge"><title>Node47&#45;&gt;Node26</title>
<path fill="none" stroke="midnightblue" d="M1274.71,-179.671C1199.03,-169.859 1041.46,-148.937 987.233,-138 985.986,-137.749 984.721,-137.482 983.446,-137.205"/>
<polygon fill="midnightblue" stroke="midnightblue" points="984.132,-133.771 973.597,-134.898 982.536,-140.586 984.132,-133.771"/>
</g>
</g>
</svg>
