<?xml version="1.0" encoding="UTF-8" standalone="no"?>
<!DOCTYPE svg PUBLIC "-//W3C//DTD SVG 1.1//EN"
 "http://www.w3.org/Graphics/SVG/1.1/DTD/svg11.dtd">
<!-- Generated by graphviz version 2.26.3 (20100126.1600)
 -->
<!-- Title: G Pages: 1 -->
<svg width="937pt" height="204pt"
 viewBox="0.00 0.00 937.00 204.00" xmlns="http://www.w3.org/2000/svg" xmlns:xlink="http://www.w3.org/1999/xlink">
<g id="graph1" class="graph" transform="scale(1 1) rotate(0) translate(4 200)">
<title>G</title>
<polygon fill="white" stroke="white" points="-4,5 -4,-200 934,-200 934,5 -4,5"/>
<!-- Node1 -->
<g id="node1" class="node"><title>Node1</title>
<polygon fill="#bfbfbf" stroke="black" points="138.5,-174.5 138.5,-195.5 203.5,-195.5 203.5,-174.5 138.5,-174.5"/>
<text text-anchor="middle" x="171" y="-182.5" font-family="Helvetica,sans-Serif" font-size="10.00">hiddtp.cpp</text>
</g>
<!-- Node2 -->
<g id="node3" class="node"><title>Node2</title>
<a xlink:href="Common_8h.htm" target="_top" xlink:title="Common.h">
<polygon fill="white" stroke="black" points="-0.5,-0.5 -0.5,-21.5 66.5,-21.5 66.5,-0.5 -0.5,-0.5"/>
<text text-anchor="middle" x="33" y="-8.5" font-family="Helvetica,sans-Serif" font-size="10.00">Common.h</text>
</a>
</g>
<!-- Node1&#45;&gt;Node2 -->
<g id="edge2" class="edge"><title>Node1&#45;&gt;Node2</title>
<path fill="none" stroke="midnightblue" d="M144.629,-174.41C111.183,-159.276 55.4061,-127.885 35,-80 28.5495,-64.8632 28.4428,-46.1158 29.7306,-31.9845"/>
<polygon fill="midnightblue" stroke="midnightblue" points="33.2365,-32.1475 30.9679,-21.7984 26.2876,-31.3033 33.2365,-32.1475"/>
</g>
<!-- Node3 -->
<g id="node5" class="node"><title>Node3</title>
<polygon fill="white" stroke="#bfbfbf" points="100.5,-116.5 100.5,-137.5 241.5,-137.5 241.5,-116.5 100.5,-116.5"/>
<text text-anchor="middle" x="171" y="-124.5" font-family="Helvetica,sans-Serif" font-size="10.00">qmousedriverplugin_qws.h</text>
</g>
<!-- Node1&#45;&gt;Node3 -->
<g id="edge4" class="edge"><title>Node1&#45;&gt;Node3</title>
<path fill="none" stroke="midnightblue" d="M171,-174.362C171,-166.922 171,-156.743 171,-147.728"/>
<polygon fill="midnightblue" stroke="midnightblue" points="174.5,-147.571 171,-137.571 167.5,-147.571 174.5,-147.571"/>
</g>
<!-- Node4 -->
<g id="node7" class="node"><title>Node4</title>
<a xlink:href="hiddtp__qws_8h.htm" target="_top" xlink:title="hiddtp_qws.h">
<polygon fill="white" stroke="black" points="369.5,-116.5 369.5,-137.5 448.5,-137.5 448.5,-116.5 369.5,-116.5"/>
<text text-anchor="middle" x="409" y="-124.5" font-family="Helvetica,sans-Serif" font-size="10.00">hiddtp_qws.h</text>
</a>
</g>
<!-- Node1&#45;&gt;Node4 -->
<g id="edge6" class="edge"><title>Node1&#45;&gt;Node4</title>
<path fill="none" stroke="midnightblue" d="M203.594,-177.057C243.801,-167.258 312.562,-150.502 359.352,-139.099"/>
<polygon fill="midnightblue" stroke="midnightblue" points="360.389,-142.449 369.276,-136.681 358.732,-135.648 360.389,-142.449"/>
</g>
<!-- Node4&#45;&gt;Node2 -->
<g id="edge8" class="edge"><title>Node4&#45;&gt;Node2</title>
<path fill="none" stroke="midnightblue" d="M369.269,-124.232C281.232,-117.753 75.6302,-100.579 52,-80 38.4284,-68.1806 34.1319,-47.6473 32.9595,-32.0444"/>
<polygon fill="midnightblue" stroke="midnightblue" points="36.4457,-31.61 32.57,-21.7495 29.4507,-31.8747 36.4457,-31.61"/>
</g>
<!-- Node5 -->
<g id="node10" class="node"><title>Node5</title>
<polygon fill="white" stroke="#bfbfbf" points="61,-58.5 61,-79.5 177,-79.5 177,-58.5 61,-58.5"/>
<text text-anchor="middle" x="119" y="-66.5" font-family="Helvetica,sans-Serif" font-size="10.00">QtGui/qmouse_qws.h</text>
</g>
<!-- Node4&#45;&gt;Node5 -->
<g id="edge10" class="edge"><title>Node4&#45;&gt;Node5</title>
<path fill="none" stroke="midnightblue" d="M369.285,-119.057C320.92,-109.384 238.649,-92.9298 181.7,-81.54"/>
<polygon fill="midnightblue" stroke="midnightblue" points="182.221,-78.075 171.729,-79.5458 180.848,-84.9391 182.221,-78.075"/>
</g>
<!-- Node6 -->
<g id="node12" class="node"><title>Node6</title>
<polygon fill="white" stroke="#bfbfbf" points="194.5,-58.5 194.5,-79.5 235.5,-79.5 235.5,-58.5 194.5,-58.5"/>
<text text-anchor="middle" x="215" y="-66.5" font-family="Helvetica,sans-Serif" font-size="10.00">QList</text>
</g>
<!-- Node4&#45;&gt;Node6 -->
<g id="edge12" class="edge"><title>Node4&#45;&gt;Node6</title>
<path fill="none" stroke="midnightblue" d="M369.373,-116.728C337.869,-108.335 292.518,-95.7515 245.039,-80.1828"/>
<polygon fill="midnightblue" stroke="midnightblue" points="246.111,-76.8511 235.518,-77.0295 243.91,-83.4961 246.111,-76.8511"/>
</g>
<!-- Node7 -->
<g id="node14" class="node"><title>Node7</title>
<polygon fill="white" stroke="#bfbfbf" points="252.5,-58.5 252.5,-79.5 333.5,-79.5 333.5,-58.5 252.5,-58.5"/>
<text text-anchor="middle" x="293" y="-66.5" font-family="Helvetica,sans-Serif" font-size="10.00">QTouchEvent</text>
</g>
<!-- Node4&#45;&gt;Node7 -->
<g id="edge14" class="edge"><title>Node4&#45;&gt;Node7</title>
<path fill="none" stroke="midnightblue" d="M387.993,-116.497C369.957,-107.479 343.73,-94.3649 323.401,-84.2006"/>
<polygon fill="midnightblue" stroke="midnightblue" points="324.752,-80.9629 314.242,-79.6212 321.621,-87.2239 324.752,-80.9629"/>
</g>
<!-- Node8 -->
<g id="node16" class="node"><title>Node8</title>
<polygon fill="white" stroke="#bfbfbf" points="351,-58.5 351,-79.5 401,-79.5 401,-58.5 351,-58.5"/>
<text text-anchor="middle" x="376" y="-66.5" font-family="Helvetica,sans-Serif" font-size="10.00">stdint.h</text>
</g>
<!-- Node4&#45;&gt;Node8 -->
<g id="edge16" class="edge"><title>Node4&#45;&gt;Node8</title>
<path fill="none" stroke="midnightblue" d="M402.947,-116.362C398.528,-108.595 392.41,-97.8426 387.121,-88.5458"/>
<polygon fill="midnightblue" stroke="midnightblue" points="390.002,-86.5315 382.014,-79.5707 383.918,-89.9932 390.002,-86.5315"/>
</g>
<!-- Node9 -->
<g id="node18" class="node"><title>Node9</title>
<polygon fill="white" stroke="#bfbfbf" points="418.5,-58.5 418.5,-79.5 465.5,-79.5 465.5,-58.5 418.5,-58.5"/>
<text text-anchor="middle" x="442" y="-66.5" font-family="Helvetica,sans-Serif" font-size="10.00">stdio.h</text>
</g>
<!-- Node4&#45;&gt;Node9 -->
<g id="edge18" class="edge"><title>Node4&#45;&gt;Node9</title>
<path fill="none" stroke="midnightblue" d="M415.053,-116.362C419.472,-108.595 425.59,-97.8426 430.879,-88.5458"/>
<polygon fill="midnightblue" stroke="midnightblue" points="434.082,-89.9932 435.986,-79.5707 427.998,-86.5315 434.082,-89.9932"/>
</g>
<!-- Node10 -->
<g id="node20" class="node"><title>Node10</title>
<polygon fill="white" stroke="#bfbfbf" points="482.5,-58.5 482.5,-79.5 523.5,-79.5 523.5,-58.5 482.5,-58.5"/>
<text text-anchor="middle" x="503" y="-66.5" font-family="Helvetica,sans-Serif" font-size="10.00">glib.h</text>
</g>
<!-- Node4&#45;&gt;Node10 -->
<g id="edge20" class="edge"><title>Node4&#45;&gt;Node10</title>
<path fill="none" stroke="midnightblue" d="M426.241,-116.362C440.552,-107.532 461.115,-94.844 477.357,-84.8224"/>
<polygon fill="midnightblue" stroke="midnightblue" points="479.196,-87.8004 485.868,-79.5707 475.52,-81.8431 479.196,-87.8004"/>
</g>
<!-- Node11 -->
<g id="node22" class="node"><title>Node11</title>
<polygon fill="white" stroke="#bfbfbf" points="541,-58.5 541,-79.5 595,-79.5 595,-58.5 541,-58.5"/>
<text text-anchor="middle" x="568" y="-66.5" font-family="Helvetica,sans-Serif" font-size="10.00">HidLib.h</text>
</g>
<!-- Node4&#45;&gt;Node11 -->
<g id="edge22" class="edge"><title>Node4&#45;&gt;Node11</title>
<path fill="none" stroke="midnightblue" d="M437.794,-116.497C463.971,-106.948 502.736,-92.8069 531.162,-82.4376"/>
<polygon fill="midnightblue" stroke="midnightblue" points="532.553,-85.656 540.748,-78.9409 530.154,-79.0798 532.553,-85.656"/>
</g>
<!-- Node12 -->
<g id="node24" class="node"><title>Node12</title>
<a xlink:href="FlickGesture_8h.htm" target="_top" xlink:title="FlickGesture.h">
<polygon fill="white" stroke="black" points="612.5,-58.5 612.5,-79.5 695.5,-79.5 695.5,-58.5 612.5,-58.5"/>
<text text-anchor="middle" x="654" y="-66.5" font-family="Helvetica,sans-Serif" font-size="10.00">FlickGesture.h</text>
</a>
</g>
<!-- Node4&#45;&gt;Node12 -->
<g id="edge24" class="edge"><title>Node4&#45;&gt;Node12</title>
<path fill="none" stroke="midnightblue" d="M448.636,-117.617C490.525,-107.7 556.75,-92.0224 602.621,-81.1632"/>
<polygon fill="midnightblue" stroke="midnightblue" points="603.447,-84.5644 612.372,-78.8548 601.835,-77.7527 603.447,-84.5644"/>
</g>
<!-- Node16 -->
<g id="node33" class="node"><title>Node16</title>
<polygon fill="white" stroke="#bfbfbf" points="713,-58.5 713,-79.5 855,-79.5 855,-58.5 713,-58.5"/>
<text text-anchor="middle" x="784" y="-66.5" font-family="Helvetica,sans-Serif" font-size="10.00">ScreenEdgeFlickGesture.h</text>
</g>
<!-- Node4&#45;&gt;Node16 -->
<g id="edge34" class="edge"><title>Node4&#45;&gt;Node16</title>
<path fill="none" stroke="midnightblue" d="M448.777,-120.848C509.661,-111.431 627.139,-93.2612 705.575,-81.1298"/>
<polygon fill="midnightblue" stroke="midnightblue" points="706.547,-84.5211 715.895,-79.5336 705.477,-77.6033 706.547,-84.5211"/>
</g>
<!-- Node17 -->
<g id="node35" class="node"><title>Node17</title>
<polygon fill="white" stroke="#bfbfbf" points="873,-58.5 873,-79.5 929,-79.5 929,-58.5 873,-58.5"/>
<text text-anchor="middle" x="901" y="-66.5" font-family="Helvetica,sans-Serif" font-size="10.00">hal/hal.h</text>
</g>
<!-- Node4&#45;&gt;Node17 -->
<g id="edge36" class="edge"><title>Node4&#45;&gt;Node17</title>
<path fill="none" stroke="midnightblue" d="M448.623,-125.387C526.459,-121.687 704.791,-110.58 862.947,-79.9081"/>
<polygon fill="midnightblue" stroke="midnightblue" points="863.719,-83.3234 872.854,-77.9557 862.366,-76.4555 863.719,-83.3234"/>
</g>
<!-- Node12&#45;&gt;Node2 -->
<g id="edge26" class="edge"><title>Node12&#45;&gt;Node2</title>
<path fill="none" stroke="midnightblue" d="M612.336,-59.3949C609.523,-58.8819 606.725,-58.4099 604,-58 408.699,-28.6154 172.855,-16.5389 76.8472,-12.5988"/>
<polygon fill="midnightblue" stroke="midnightblue" points="76.7813,-9.09343 66.649,-12.1895 76.5005,-16.0878 76.7813,-9.09343"/>
</g>
<!-- Node13 -->
<g id="node27" class="node"><title>Node13</title>
<polygon fill="white" stroke="#bfbfbf" points="550,-0.5 550,-21.5 612,-21.5 612,-0.5 550,-0.5"/>
<text text-anchor="middle" x="581" y="-8.5" font-family="Helvetica,sans-Serif" font-size="10.00">QGesture</text>
</g>
<!-- Node12&#45;&gt;Node13 -->
<g id="edge28" class="edge"><title>Node12&#45;&gt;Node13</title>
<path fill="none" stroke="midnightblue" d="M640.611,-58.3619C629.909,-49.859 614.704,-37.7785 602.329,-27.9466"/>
<polygon fill="midnightblue" stroke="midnightblue" points="604.311,-25.0511 594.304,-21.5707 599.957,-30.5318 604.311,-25.0511"/>
</g>
<!-- Node14 -->
<g id="node29" class="node"><title>Node14</title>
<polygon fill="white" stroke="#bfbfbf" points="629.5,-0.5 629.5,-21.5 678.5,-21.5 678.5,-0.5 629.5,-0.5"/>
<text text-anchor="middle" x="654" y="-8.5" font-family="Helvetica,sans-Serif" font-size="10.00">QPoint</text>
</g>
<!-- Node12&#45;&gt;Node14 -->
<g id="edge30" class="edge"><title>Node12&#45;&gt;Node14</title>
<path fill="none" stroke="midnightblue" d="M654,-58.3619C654,-50.9219 654,-40.7427 654,-31.7276"/>
<polygon fill="midnightblue" stroke="midnightblue" points="657.5,-31.5706 654,-21.5707 650.5,-31.5707 657.5,-31.5706"/>
</g>
<!-- Node15 -->
<g id="node31" class="node"><title>Node15</title>
<polygon fill="white" stroke="#bfbfbf" points="695.5,-0.5 695.5,-21.5 778.5,-21.5 778.5,-0.5 695.5,-0.5"/>
<text text-anchor="middle" x="737" y="-8.5" font-family="Helvetica,sans-Serif" font-size="10.00">SysMgrDefs.h</text>
</g>
<!-- Node12&#45;&gt;Node15 -->
<g id="edge32" class="edge"><title>Node12&#45;&gt;Node15</title>
<path fill="none" stroke="midnightblue" d="M669.223,-58.3619C681.625,-49.6955 699.346,-37.3126 713.557,-27.3819"/>
<polygon fill="midnightblue" stroke="midnightblue" points="715.681,-30.1676 721.873,-21.5707 711.671,-24.4297 715.681,-30.1676"/>
</g>
</g>
</svg>
