<?xml version="1.0" encoding="UTF-8" standalone="no"?>
<!DOCTYPE svg PUBLIC "-//W3C//DTD SVG 1.1//EN"
 "http://www.w3.org/Graphics/SVG/1.1/DTD/svg11.dtd">
<!-- Generated by graphviz version 2.26.3 (20100126.1600)
 -->
<!-- Title: G Pages: 1 -->
<svg width="890pt" height="146pt"
 viewBox="0.00 0.00 889.78 146.00" xmlns="http://www.w3.org/2000/svg" xmlns:xlink="http://www.w3.org/1999/xlink">
<g id="graph1" class="graph" transform="scale(1 1) rotate(0) translate(4 142)">
<title>G</title>
<polygon fill="white" stroke="white" points="-4,5 -4,-142 886.775,-142 886.775,5 -4,5"/>
<!-- Node1 -->
<g id="node1" class="node"><title>Node1</title>
<polygon fill="#bfbfbf" stroke="black" points="355.275,-116.5 355.275,-137.5 434.275,-137.5 434.275,-116.5 355.275,-116.5"/>
<text text-anchor="middle" x="394.775" y="-124.5" font-family="Helvetica,sans-Serif" font-size="10.00">hiddtp_qws.h</text>
</g>
<!-- Node2 -->
<g id="node3" class="node"><title>Node2</title>
<a xlink:href="Common_8h.htm" target="_top" xlink:title="Common.h">
<polygon fill="white" stroke="black" points="185.275,-0.5 185.275,-21.5 252.275,-21.5 252.275,-0.5 185.275,-0.5"/>
<text text-anchor="middle" x="218.775" y="-8.5" font-family="Helvetica,sans-Serif" font-size="10.00">Common.h</text>
</a>
</g>
<!-- Node1&#45;&gt;Node2 -->
<g id="edge2" class="edge"><title>Node1&#45;&gt;Node2</title>
<path fill="none" stroke="midnightblue" d="M355.201,-125.156C260.658,-120.347 27.7947,-105.96 4.77549,-80 -1.71166,-72.6841 -1.35217,-65.6195 4.77549,-58 25.7022,-31.9785 118.582,-19.5426 174.877,-14.297"/>
<polygon fill="midnightblue" stroke="midnightblue" points="175.287,-17.7744 184.937,-13.3996 174.665,-10.8021 175.287,-17.7744"/>
</g>
<!-- Node3 -->
<g id="node5" class="node"><title>Node3</title>
<polygon fill="white" stroke="#bfbfbf" points="13.7755,-58.5 13.7755,-79.5 129.775,-79.5 129.775,-58.5 13.7755,-58.5"/>
<text text-anchor="middle" x="71.7755" y="-66.5" font-family="Helvetica,sans-Serif" font-size="10.00">QtGui/qmouse_qws.h</text>
</g>
<!-- Node1&#45;&gt;Node3 -->
<g id="edge4" class="edge"><title>Node1&#45;&gt;Node3</title>
<path fill="none" stroke="midnightblue" d="M355.169,-119.888C301.682,-110.283 205.547,-93.0209 140.23,-81.2921"/>
<polygon fill="midnightblue" stroke="midnightblue" points="140.484,-77.7819 130.023,-79.4593 139.247,-84.6717 140.484,-77.7819"/>
</g>
<!-- Node4 -->
<g id="node7" class="node"><title>Node4</title>
<polygon fill="white" stroke="#bfbfbf" points="147.275,-58.5 147.275,-79.5 188.275,-79.5 188.275,-58.5 147.275,-58.5"/>
<text text-anchor="middle" x="167.775" y="-66.5" font-family="Helvetica,sans-Serif" font-size="10.00">QList</text>
</g>
<!-- Node1&#45;&gt;Node4 -->
<g id="edge6" class="edge"><title>Node1&#45;&gt;Node4</title>
<path fill="none" stroke="midnightblue" d="M354.925,-119.126C316.773,-111.238 257.483,-98.0692 198.429,-80.2727"/>
<polygon fill="midnightblue" stroke="midnightblue" points="199.159,-76.836 188.573,-77.2576 197.111,-83.5298 199.159,-76.836"/>
</g>
<!-- Node5 -->
<g id="node9" class="node"><title>Node5</title>
<polygon fill="white" stroke="#bfbfbf" points="205.275,-58.5 205.275,-79.5 286.275,-79.5 286.275,-58.5 205.275,-58.5"/>
<text text-anchor="middle" x="245.775" y="-66.5" font-family="Helvetica,sans-Serif" font-size="10.00">QTouchEvent</text>
</g>
<!-- Node1&#45;&gt;Node5 -->
<g id="edge8" class="edge"><title>Node1&#45;&gt;Node5</title>
<path fill="none" stroke="midnightblue" d="M367.793,-116.497C343.922,-107.205 308.882,-93.5649 282.468,-83.2832"/>
<polygon fill="midnightblue" stroke="midnightblue" points="283.397,-79.889 272.809,-79.5231 280.858,-86.4122 283.397,-79.889"/>
</g>
<!-- Node6 -->
<g id="node11" class="node"><title>Node6</title>
<polygon fill="white" stroke="#bfbfbf" points="303.775,-58.5 303.775,-79.5 353.775,-79.5 353.775,-58.5 303.775,-58.5"/>
<text text-anchor="middle" x="328.775" y="-66.5" font-family="Helvetica,sans-Serif" font-size="10.00">stdint.h</text>
</g>
<!-- Node1&#45;&gt;Node6 -->
<g id="edge10" class="edge"><title>Node1&#45;&gt;Node6</title>
<path fill="none" stroke="midnightblue" d="M382.67,-116.362C373.087,-107.941 359.512,-96.0105 348.383,-86.2308"/>
<polygon fill="midnightblue" stroke="midnightblue" points="350.626,-83.5427 340.804,-79.5707 346.005,-88.8009 350.626,-83.5427"/>
</g>
<!-- Node7 -->
<g id="node13" class="node"><title>Node7</title>
<polygon fill="white" stroke="#bfbfbf" points="371.275,-58.5 371.275,-79.5 418.275,-79.5 418.275,-58.5 371.275,-58.5"/>
<text text-anchor="middle" x="394.775" y="-66.5" font-family="Helvetica,sans-Serif" font-size="10.00">stdio.h</text>
</g>
<!-- Node1&#45;&gt;Node7 -->
<g id="edge12" class="edge"><title>Node1&#45;&gt;Node7</title>
<path fill="none" stroke="midnightblue" d="M394.775,-116.362C394.775,-108.922 394.775,-98.7427 394.775,-89.7276"/>
<polygon fill="midnightblue" stroke="midnightblue" points="398.276,-89.5706 394.775,-79.5707 391.276,-89.5707 398.276,-89.5706"/>
</g>
<!-- Node8 -->
<g id="node15" class="node"><title>Node8</title>
<polygon fill="white" stroke="#bfbfbf" points="435.275,-58.5 435.275,-79.5 476.275,-79.5 476.275,-58.5 435.275,-58.5"/>
<text text-anchor="middle" x="455.775" y="-66.5" font-family="Helvetica,sans-Serif" font-size="10.00">glib.h</text>
</g>
<!-- Node1&#45;&gt;Node8 -->
<g id="edge14" class="edge"><title>Node1&#45;&gt;Node8</title>
<path fill="none" stroke="midnightblue" d="M405.964,-116.362C414.735,-108.023 427.125,-96.2418 437.353,-86.5162"/>
<polygon fill="midnightblue" stroke="midnightblue" points="439.823,-88.9978 444.658,-79.5707 434.999,-83.9248 439.823,-88.9978"/>
</g>
<!-- Node9 -->
<g id="node17" class="node"><title>Node9</title>
<polygon fill="white" stroke="#bfbfbf" points="493.775,-58.5 493.775,-79.5 547.775,-79.5 547.775,-58.5 493.775,-58.5"/>
<text text-anchor="middle" x="520.775" y="-66.5" font-family="Helvetica,sans-Serif" font-size="10.00">HidLib.h</text>
</g>
<!-- Node1&#45;&gt;Node9 -->
<g id="edge16" class="edge"><title>Node1&#45;&gt;Node9</title>
<path fill="none" stroke="midnightblue" d="M417.593,-116.497C437.361,-107.397 466.189,-94.1273 488.351,-83.9253"/>
<polygon fill="midnightblue" stroke="midnightblue" points="490.082,-86.982 497.702,-79.6212 487.154,-80.6234 490.082,-86.982"/>
</g>
<!-- Node10 -->
<g id="node19" class="node"><title>Node10</title>
<a xlink:href="FlickGesture_8h.htm" target="_top" xlink:title="FlickGesture.h">
<polygon fill="white" stroke="black" points="565.275,-58.5 565.275,-79.5 648.275,-79.5 648.275,-58.5 565.275,-58.5"/>
<text text-anchor="middle" x="606.775" y="-66.5" font-family="Helvetica,sans-Serif" font-size="10.00">FlickGesture.h</text>
</a>
</g>
<!-- Node1&#45;&gt;Node10 -->
<g id="edge18" class="edge"><title>Node1&#45;&gt;Node10</title>
<path fill="none" stroke="midnightblue" d="M433.167,-116.497C468.327,-106.877 520.52,-92.5981 558.494,-82.209"/>
<polygon fill="midnightblue" stroke="midnightblue" points="559.59,-85.5379 568.312,-79.5231 557.743,-78.7861 559.59,-85.5379"/>
</g>
<!-- Node14 -->
<g id="node28" class="node"><title>Node14</title>
<polygon fill="white" stroke="#bfbfbf" points="665.775,-58.5 665.775,-79.5 807.775,-79.5 807.775,-58.5 665.775,-58.5"/>
<text text-anchor="middle" x="736.775" y="-66.5" font-family="Helvetica,sans-Serif" font-size="10.00">ScreenEdgeFlickGesture.h</text>
</g>
<!-- Node1&#45;&gt;Node14 -->
<g id="edge28" class="edge"><title>Node1&#45;&gt;Node14</title>
<path fill="none" stroke="midnightblue" d="M434.341,-120.29C490.567,-110.755 594.532,-93.1232 664.671,-81.2282"/>
<polygon fill="midnightblue" stroke="midnightblue" points="665.491,-84.6393 674.765,-79.5164 664.32,-77.7378 665.491,-84.6393"/>
</g>
<!-- Node15 -->
<g id="node30" class="node"><title>Node15</title>
<polygon fill="white" stroke="#bfbfbf" points="825.775,-58.5 825.775,-79.5 881.775,-79.5 881.775,-58.5 825.775,-58.5"/>
<text text-anchor="middle" x="853.775" y="-66.5" font-family="Helvetica,sans-Serif" font-size="10.00">hal/hal.h</text>
</g>
<!-- Node1&#45;&gt;Node15 -->
<g id="edge30" class="edge"><title>Node1&#45;&gt;Node15</title>
<path fill="none" stroke="midnightblue" d="M434.41,-124.944C507.916,-120.625 670.366,-108.7 815.639,-79.9411"/>
<polygon fill="midnightblue" stroke="midnightblue" points="816.511,-83.3358 825.624,-77.9319 815.13,-76.4734 816.511,-83.3358"/>
</g>
<!-- Node10&#45;&gt;Node2 -->
<g id="edge20" class="edge"><title>Node10&#45;&gt;Node2</title>
<path fill="none" stroke="midnightblue" d="M565.083,-59.5714C562.276,-59.0158 559.488,-58.4861 556.775,-58 451.818,-39.1873 327.375,-23.596 262.724,-15.9953"/>
<polygon fill="midnightblue" stroke="midnightblue" points="262.834,-12.4845 252.496,-14.801 262.022,-19.4372 262.834,-12.4845"/>
</g>
<!-- Node11 -->
<g id="node22" class="node"><title>Node11</title>
<polygon fill="white" stroke="#bfbfbf" points="502.775,-0.5 502.775,-21.5 564.775,-21.5 564.775,-0.5 502.775,-0.5"/>
<text text-anchor="middle" x="533.775" y="-8.5" font-family="Helvetica,sans-Serif" font-size="10.00">QGesture</text>
</g>
<!-- Node10&#45;&gt;Node11 -->
<g id="edge22" class="edge"><title>Node10&#45;&gt;Node11</title>
<path fill="none" stroke="midnightblue" d="M593.386,-58.3619C582.684,-49.859 567.479,-37.7785 555.105,-27.9466"/>
<polygon fill="midnightblue" stroke="midnightblue" points="557.087,-25.0511 547.08,-21.5707 552.732,-30.5318 557.087,-25.0511"/>
</g>
<!-- Node12 -->
<g id="node24" class="node"><title>Node12</title>
<polygon fill="white" stroke="#bfbfbf" points="582.275,-0.5 582.275,-21.5 631.275,-21.5 631.275,-0.5 582.275,-0.5"/>
<text text-anchor="middle" x="606.775" y="-8.5" font-family="Helvetica,sans-Serif" font-size="10.00">QPoint</text>
</g>
<!-- Node10&#45;&gt;Node12 -->
<g id="edge24" class="edge"><title>Node10&#45;&gt;Node12</title>
<path fill="none" stroke="midnightblue" d="M606.775,-58.3619C606.775,-50.9219 606.775,-40.7427 606.775,-31.7276"/>
<polygon fill="midnightblue" stroke="midnightblue" points="610.276,-31.5706 606.775,-21.5707 603.276,-31.5707 610.276,-31.5706"/>
</g>
<!-- Node13 -->
<g id="node26" class="node"><title>Node13</title>
<polygon fill="white" stroke="#bfbfbf" points="648.275,-0.5 648.275,-21.5 731.275,-21.5 731.275,-0.5 648.275,-0.5"/>
<text text-anchor="middle" x="689.775" y="-8.5" font-family="Helvetica,sans-Serif" font-size="10.00">SysMgrDefs.h</text>
</g>
<!-- Node10&#45;&gt;Node13 -->
<g id="edge26" class="edge"><title>Node10&#45;&gt;Node13</title>
<path fill="none" stroke="midnightblue" d="M621.999,-58.3619C634.401,-49.6955 652.121,-37.3126 666.332,-27.3819"/>
<polygon fill="midnightblue" stroke="midnightblue" points="668.456,-30.1676 674.649,-21.5707 664.447,-24.4297 668.456,-30.1676"/>
</g>
</g>
</svg>
