<?xml version="1.0" encoding="UTF-8" standalone="no"?>
<!DOCTYPE svg PUBLIC "-//W3C//DTD SVG 1.1//EN"
 "http://www.w3.org/Graphics/SVG/1.1/DTD/svg11.dtd">
<!-- Generated by graphviz version 2.26.3 (20100126.1600)
 -->
<!-- Title: G Pages: 1 -->
<svg width="180pt" height="88pt"
 viewBox="0.00 0.00 180.00 88.00" xmlns="http://www.w3.org/2000/svg" xmlns:xlink="http://www.w3.org/1999/xlink">
<g id="graph1" class="graph" transform="scale(1 1) rotate(0) translate(4 84)">
<title>G</title>
<polygon fill="white" stroke="white" points="-4,5 -4,-84 177,-84 177,5 -4,5"/>
<!-- Node1 -->
<g id="node1" class="node"><title>Node1</title>
<polygon fill="#bfbfbf" stroke="black" points="39.5,-58.5 39.5,-79.5 118.5,-79.5 118.5,-58.5 39.5,-58.5"/>
<text text-anchor="middle" x="79" y="-66.5" font-family="Helvetica,sans-Serif" font-size="10.00">hiddtp_qws.h</text>
</g>
<!-- Node2 -->
<g id="node3" class="node"><title>Node2</title>
<a xlink:href="hiddtp_8cpp.htm" target="_top" xlink:title="hiddtp.cpp">
<polygon fill="white" stroke="black" points="-0.5,-0.5 -0.5,-21.5 64.5,-21.5 64.5,-0.5 -0.5,-0.5"/>
<text text-anchor="middle" x="32" y="-8.5" font-family="Helvetica,sans-Serif" font-size="10.00">hiddtp.cpp</text>
</a>
</g>
<!-- Node1&#45;&gt;Node2 -->
<g id="edge2" class="edge"><title>Node1&#45;&gt;Node2</title>
<path fill="none" stroke="midnightblue" d="M64.0416,-50.5407C56.293,-40.9786 47.1102,-29.6467 40.5659,-21.5707"/>
<polygon fill="midnightblue" stroke="midnightblue" points="61.3643,-52.7961 70.3795,-58.3619 66.8029,-48.389 61.3643,-52.7961"/>
</g>
<!-- Node3 -->
<g id="node5" class="node"><title>Node3</title>
<a xlink:href="hiddtp__qws_8cpp.htm" target="_top" xlink:title="hiddtp_qws.cpp">
<polygon fill="white" stroke="black" points="82,-0.5 82,-21.5 172,-21.5 172,-0.5 82,-0.5"/>
<text text-anchor="middle" x="127" y="-8.5" font-family="Helvetica,sans-Serif" font-size="10.00">hiddtp_qws.cpp</text>
</a>
</g>
<!-- Node1&#45;&gt;Node3 -->
<g id="edge4" class="edge"><title>Node1&#45;&gt;Node3</title>
<path fill="none" stroke="midnightblue" d="M94.2767,-50.5407C102.19,-40.9786 111.568,-29.6467 118.252,-21.5707"/>
<polygon fill="midnightblue" stroke="midnightblue" points="91.4833,-48.4264 87.8039,-58.3619 96.876,-52.8894 91.4833,-48.4264"/>
</g>
</g>
</svg>
