<?xml version="1.0" encoding="UTF-8" standalone="no"?>
<!DOCTYPE svg PUBLIC "-//W3C//DTD SVG 1.1//EN"
 "http://www.w3.org/Graphics/SVG/1.1/DTD/svg11.dtd">
<!-- Generated by graphviz version 2.26.3 (20100126.1600)
 -->
<!-- Title: G Pages: 1 -->
<svg width="1329pt" height="320pt"
 viewBox="0.00 0.00 1329.00 320.00" xmlns="http://www.w3.org/2000/svg" xmlns:xlink="http://www.w3.org/1999/xlink">
<g id="graph1" class="graph" transform="scale(1 1) rotate(0) translate(4 316)">
<title>G</title>
<polygon fill="white" stroke="white" points="-4,5 -4,-316 1326,-316 1326,5 -4,5"/>
<!-- Node1 -->
<g id="node1" class="node"><title>Node1</title>
<polygon fill="#bfbfbf" stroke="black" points="649,-290.5 649,-311.5 797,-311.5 797,-290.5 649,-290.5"/>
<text text-anchor="middle" x="723" y="-298.5" font-family="Helvetica,sans-Serif" font-size="10.00">horizontallabeleddivider.cpp</text>
</g>
<!-- Node2 -->
<g id="node3" class="node"><title>Node2</title>
<a xlink:href="horizontallabeleddivider_8h.htm" target="_top" xlink:title="horizontallabeleddivider.h">
<polygon fill="white" stroke="black" points="201.5,-232.5 201.5,-253.5 338.5,-253.5 338.5,-232.5 201.5,-232.5"/>
<text text-anchor="middle" x="270" y="-240.5" font-family="Helvetica,sans-Serif" font-size="10.00">horizontallabeleddivider.h</text>
</a>
</g>
<!-- Node1&#45;&gt;Node2 -->
<g id="edge2" class="edge"><title>Node1&#45;&gt;Node2</title>
<path fill="none" stroke="midnightblue" d="M648.957,-291.52C566.394,-280.949 433.387,-263.919 348.905,-253.103"/>
<polygon fill="midnightblue" stroke="midnightblue" points="349.213,-249.614 338.849,-251.815 348.324,-256.557 349.213,-249.614"/>
</g>
<!-- Node12 -->
<g id="node23" class="node"><title>Node12</title>
<polygon fill="white" stroke="#bfbfbf" points="328.5,-0.5 328.5,-21.5 383.5,-21.5 383.5,-0.5 328.5,-0.5"/>
<text text-anchor="middle" x="356" y="-8.5" font-family="Helvetica,sans-Serif" font-size="10.00">QDebug</text>
</g>
<!-- Node1&#45;&gt;Node12 -->
<g id="edge108" class="edge"><title>Node1&#45;&gt;Node12</title>
<path fill="none" stroke="midnightblue" d="M658.353,-290.431C566.967,-273.632 411,-237.299 411,-185 411,-185 411,-185 411,-127 411,-95.1919 406.154,-86.4852 392,-58 386.976,-47.8894 379.635,-37.8022 372.891,-29.5798"/>
<polygon fill="midnightblue" stroke="midnightblue" points="375.363,-27.0847 366.201,-21.7633 370.045,-31.6365 375.363,-27.0847"/>
</g>
<!-- Node21 -->
<g id="node47" class="node"><title>Node21</title>
<a xlink:href="staticelementsettings_8h.htm" target="_top" xlink:title="staticelementsettings.h">
<polygon fill="white" stroke="black" points="810,-116.5 810,-137.5 934,-137.5 934,-116.5 810,-116.5"/>
<text text-anchor="middle" x="872" y="-124.5" font-family="Helvetica,sans-Serif" font-size="10.00">staticelementsettings.h</text>
</a>
</g>
<!-- Node1&#45;&gt;Node21 -->
<g id="edge52" class="edge"><title>Node1&#45;&gt;Node21</title>
<path fill="none" stroke="midnightblue" d="M723.896,-290.355C725.529,-276.045 730.015,-250.291 742,-232 767.937,-192.415 813.604,-160.644 843.325,-142.802"/>
<polygon fill="midnightblue" stroke="midnightblue" points="845.14,-145.795 851.998,-137.719 841.601,-139.756 845.14,-145.795"/>
</g>
<!-- Node28 -->
<g id="node62" class="node"><title>Node28</title>
<a xlink:href="dimensionsglobal_8h.htm" target="_top" xlink:title="dimensionsglobal.h">
<polygon fill="white" stroke="black" points="651,-58.5 651,-79.5 757,-79.5 757,-58.5 651,-58.5"/>
<text text-anchor="middle" x="704" y="-66.5" font-family="Helvetica,sans-Serif" font-size="10.00">dimensionsglobal.h</text>
</a>
</g>
<!-- Node1&#45;&gt;Node28 -->
<g id="edge68" class="edge"><title>Node1&#45;&gt;Node28</title>
<path fill="none" stroke="midnightblue" d="M722.134,-290.429C719.204,-254.648 709.623,-137.663 705.699,-89.7481"/>
<polygon fill="midnightblue" stroke="midnightblue" points="709.175,-89.3144 704.871,-79.6335 702.199,-89.8859 709.175,-89.3144"/>
</g>
<!-- Node33 -->
<g id="node76" class="node"><title>Node33</title>
<a xlink:href="debugglobal_8h.htm" target="_top" xlink:title="debugglobal.h">
<polygon fill="white" stroke="black" points="552.5,-58.5 552.5,-79.5 633.5,-79.5 633.5,-58.5 552.5,-58.5"/>
<text text-anchor="middle" x="593" y="-66.5" font-family="Helvetica,sans-Serif" font-size="10.00">debugglobal.h</text>
</a>
</g>
<!-- Node1&#45;&gt;Node33 -->
<g id="edge86" class="edge"><title>Node1&#45;&gt;Node33</title>
<path fill="none" stroke="midnightblue" d="M717.076,-290.429C696.858,-254.346 630.365,-135.683 603.955,-88.5499"/>
<polygon fill="midnightblue" stroke="midnightblue" points="606.9,-86.6464 598.958,-79.6335 600.793,-90.0682 606.9,-86.6464"/>
</g>
<!-- Node35 -->
<g id="node86" class="node"><title>Node35</title>
<a xlink:href="renderopts_8h.htm" target="_top" xlink:title="renderopts.h">
<polygon fill="white" stroke="black" points="750.5,-232.5 750.5,-253.5 827.5,-253.5 827.5,-232.5 750.5,-232.5"/>
<text text-anchor="middle" x="789" y="-240.5" font-family="Helvetica,sans-Serif" font-size="10.00">renderopts.h</text>
</a>
</g>
<!-- Node1&#45;&gt;Node35 -->
<g id="edge102" class="edge"><title>Node1&#45;&gt;Node35</title>
<path fill="none" stroke="midnightblue" d="M735.105,-290.362C744.688,-281.941 758.264,-270.011 769.393,-260.231"/>
<polygon fill="midnightblue" stroke="midnightblue" points="771.77,-262.801 776.971,-253.571 767.149,-257.543 771.77,-262.801"/>
</g>
<!-- Node36 -->
<g id="node88" class="node"><title>Node36</title>
<polygon fill="white" stroke="#bfbfbf" points="844.5,-232.5 844.5,-253.5 903.5,-253.5 903.5,-232.5 844.5,-232.5"/>
<text text-anchor="middle" x="874" y="-240.5" font-family="Helvetica,sans-Serif" font-size="10.00">QPainter</text>
</g>
<!-- Node1&#45;&gt;Node36 -->
<g id="edge104" class="edge"><title>Node1&#45;&gt;Node36</title>
<path fill="none" stroke="midnightblue" d="M750.345,-290.497C774.642,-281.164 810.36,-267.445 837.168,-257.147"/>
<polygon fill="midnightblue" stroke="midnightblue" points="838.524,-260.376 846.604,-253.523 836.014,-253.842 838.524,-260.376"/>
</g>
<!-- Node37 -->
<g id="node90" class="node"><title>Node37</title>
<polygon fill="white" stroke="#bfbfbf" points="921,-232.5 921,-253.5 965,-253.5 965,-232.5 921,-232.5"/>
<text text-anchor="middle" x="943" y="-240.5" font-family="Helvetica,sans-Serif" font-size="10.00">QPen</text>
</g>
<!-- Node1&#45;&gt;Node37 -->
<g id="edge106" class="edge"><title>Node1&#45;&gt;Node37</title>
<path fill="none" stroke="midnightblue" d="M770.728,-290.485C806.901,-282.211 857.988,-269.876 910.847,-254.165"/>
<polygon fill="midnightblue" stroke="midnightblue" points="912.166,-257.423 920.735,-251.192 910.15,-250.72 912.166,-257.423"/>
</g>
<!-- Node38 -->
<g id="node93" class="node"><title>Node38</title>
<a xlink:href="Settings_8h.htm" target="_top" xlink:title="Settings.h">
<polygon fill="white" stroke="black" points="1097.5,-116.5 1097.5,-137.5 1160.5,-137.5 1160.5,-116.5 1097.5,-116.5"/>
<text text-anchor="middle" x="1129" y="-124.5" font-family="Helvetica,sans-Serif" font-size="10.00">Settings.h</text>
</a>
</g>
<!-- Node1&#45;&gt;Node38 -->
<g id="edge110" class="edge"><title>Node1&#45;&gt;Node38</title>
<path fill="none" stroke="midnightblue" d="M797.269,-291.25C859.604,-282.308 943.254,-268.316 974,-254 1031.98,-227.002 1086.63,-173.28 1112.82,-145.143"/>
<polygon fill="midnightblue" stroke="midnightblue" points="1115.55,-147.347 1119.72,-137.609 1110.39,-142.619 1115.55,-147.347"/>
</g>
<!-- Node3 -->
<g id="node5" class="node"><title>Node3</title>
<a xlink:href="horizontaldivider_8h.htm" target="_top" xlink:title="horizontaldivider.h">
<polygon fill="white" stroke="black" points="280.5,-174.5 280.5,-195.5 383.5,-195.5 383.5,-174.5 280.5,-174.5"/>
<text text-anchor="middle" x="332" y="-182.5" font-family="Helvetica,sans-Serif" font-size="10.00">horizontaldivider.h</text>
</a>
</g>
<!-- Node2&#45;&gt;Node3 -->
<g id="edge4" class="edge"><title>Node2&#45;&gt;Node3</title>
<path fill="none" stroke="midnightblue" d="M281.372,-232.362C290.286,-224.023 302.879,-212.242 313.276,-202.516"/>
<polygon fill="midnightblue" stroke="midnightblue" points="315.789,-204.958 320.7,-195.571 311.007,-199.846 315.789,-204.958"/>
</g>
<!-- Node19 -->
<g id="node43" class="node"><title>Node19</title>
<polygon fill="white" stroke="#bfbfbf" points="123,-174.5 123,-195.5 169,-195.5 169,-174.5 123,-174.5"/>
<text text-anchor="middle" x="146" y="-182.5" font-family="Helvetica,sans-Serif" font-size="10.00">QFont</text>
</g>
<!-- Node2&#45;&gt;Node19 -->
<g id="edge48" class="edge"><title>Node2&#45;&gt;Node19</title>
<path fill="none" stroke="midnightblue" d="M247.545,-232.497C228.09,-223.397 199.72,-210.127 177.909,-199.925"/>
<polygon fill="midnightblue" stroke="midnightblue" points="179.248,-196.688 168.707,-195.621 176.283,-203.028 179.248,-196.688"/>
</g>
<!-- Node20 -->
<g id="node45" class="node"><title>Node20</title>
<polygon fill="white" stroke="#bfbfbf" points="186.5,-174.5 186.5,-195.5 263.5,-195.5 263.5,-174.5 186.5,-174.5"/>
<text text-anchor="middle" x="225" y="-182.5" font-family="Helvetica,sans-Serif" font-size="10.00">QTextLayout</text>
</g>
<!-- Node2&#45;&gt;Node20 -->
<g id="edge50" class="edge"><title>Node2&#45;&gt;Node20</title>
<path fill="none" stroke="midnightblue" d="M261.746,-232.362C255.53,-224.35 246.849,-213.161 239.485,-203.67"/>
<polygon fill="midnightblue" stroke="midnightblue" points="242.097,-201.326 233.201,-195.571 236.566,-205.617 242.097,-201.326"/>
</g>
<!-- Node4 -->
<g id="node7" class="node"><title>Node4</title>
<a xlink:href="thingpaintable_8h.htm" target="_top" xlink:title="thingpaintable.h">
<polygon fill="white" stroke="black" points="289.5,-116.5 289.5,-137.5 380.5,-137.5 380.5,-116.5 289.5,-116.5"/>
<text text-anchor="middle" x="335" y="-124.5" font-family="Helvetica,sans-Serif" font-size="10.00">thingpaintable.h</text>
</a>
</g>
<!-- Node3&#45;&gt;Node4 -->
<g id="edge6" class="edge"><title>Node3&#45;&gt;Node4</title>
<path fill="none" stroke="midnightblue" d="M332.55,-174.362C332.935,-166.922 333.462,-156.743 333.928,-147.728"/>
<polygon fill="midnightblue" stroke="midnightblue" points="337.432,-147.738 334.453,-137.571 330.441,-147.376 337.432,-147.738"/>
</g>
<!-- Node7 -->
<g id="node13" class="node"><title>Node7</title>
<polygon fill="white" stroke="#bfbfbf" points="0,-0.5 0,-21.5 46,-21.5 46,-0.5 0,-0.5"/>
<text text-anchor="middle" x="23" y="-8.5" font-family="Helvetica,sans-Serif" font-size="10.00">QUuid</text>
</g>
<!-- Node3&#45;&gt;Node7 -->
<g id="edge30" class="edge"><title>Node3&#45;&gt;Node7</title>
<path fill="none" stroke="midnightblue" d="M280.282,-175.393C208.24,-161.983 86.1822,-139.154 84,-138 51.7718,-120.961 40.6792,-113.369 26,-80 19.3711,-64.931 18.9897,-46.1787 20.0612,-32.0283"/>
<polygon fill="midnightblue" stroke="midnightblue" points="23.5691,-32.1375 21.1404,-21.8248 16.6079,-31.4012 23.5691,-32.1375"/>
</g>
<!-- Node8 -->
<g id="node15" class="node"><title>Node8</title>
<polygon fill="white" stroke="#bfbfbf" points="66.5,-0.5 66.5,-21.5 125.5,-21.5 125.5,-0.5 66.5,-0.5"/>
<text text-anchor="middle" x="96" y="-8.5" font-family="Helvetica,sans-Serif" font-size="10.00">QPointer</text>
</g>
<!-- Node3&#45;&gt;Node8 -->
<g id="edge46" class="edge"><title>Node3&#45;&gt;Node8</title>
<path fill="none" stroke="midnightblue" d="M320.222,-174.308C288.436,-145.497 202.33,-67.7519 188,-58 169.859,-45.6547 148.045,-34.3747 130.212,-25.9613"/>
<polygon fill="midnightblue" stroke="midnightblue" points="131.309,-22.6125 120.763,-21.5936 128.372,-28.9665 131.309,-22.6125"/>
</g>
<!-- Node11 -->
<g id="node21" class="node"><title>Node11</title>
<polygon fill="white" stroke="#bfbfbf" points="458.5,-0.5 458.5,-21.5 511.5,-21.5 511.5,-0.5 458.5,-0.5"/>
<text text-anchor="middle" x="485" y="-8.5" font-family="Helvetica,sans-Serif" font-size="10.00">QRectF</text>
</g>
<!-- Node3&#45;&gt;Node11 -->
<g id="edge32" class="edge"><title>Node3&#45;&gt;Node11</title>
<path fill="none" stroke="midnightblue" d="M346.861,-174.28C358.865,-165.271 375.864,-151.703 389,-138 422.728,-102.815 455.542,-55.8419 472.697,-30.0163"/>
<polygon fill="midnightblue" stroke="midnightblue" points="475.714,-31.7985 478.281,-21.5195 469.864,-27.9538 475.714,-31.7985"/>
</g>
<!-- Node14 -->
<g id="node31" class="node"><title>Node14</title>
<polygon fill="white" stroke="#bfbfbf" points="528.5,-0.5 528.5,-21.5 575.5,-21.5 575.5,-0.5 528.5,-0.5"/>
<text text-anchor="middle" x="552" y="-8.5" font-family="Helvetica,sans-Serif" font-size="10.00">QRect</text>
</g>
<!-- Node3&#45;&gt;Node14 -->
<g id="edge34" class="edge"><title>Node3&#45;&gt;Node14</title>
<path fill="none" stroke="midnightblue" d="M352.783,-174.322C369.376,-165.441 392.922,-152.026 412,-138 459.442,-103.12 509.159,-54.7418 534.654,-28.9243"/>
<polygon fill="midnightblue" stroke="midnightblue" points="537.258,-31.2675 541.759,-21.6762 532.259,-26.3673 537.258,-31.2675"/>
</g>
<!-- Node15 -->
<g id="node33" class="node"><title>Node15</title>
<a xlink:href="pixmapobject_8h.htm" target="_top" xlink:title="pixmapobject.h">
<polygon fill="white" stroke="black" points="93,-116.5 93,-137.5 179,-137.5 179,-116.5 93,-116.5"/>
<text text-anchor="middle" x="136" y="-124.5" font-family="Helvetica,sans-Serif" font-size="10.00">pixmapobject.h</text>
</a>
</g>
<!-- Node3&#45;&gt;Node15 -->
<g id="edge36" class="edge"><title>Node3&#45;&gt;Node15</title>
<path fill="none" stroke="midnightblue" d="M296.506,-174.497C264.276,-164.959 216.566,-150.841 181.536,-140.475"/>
<polygon fill="midnightblue" stroke="midnightblue" points="182.143,-137.005 171.561,-137.523 180.156,-143.717 182.143,-137.005"/>
</g>
<!-- Node5 -->
<g id="node9" class="node"><title>Node5</title>
<a xlink:href="thing_8h.htm" target="_top" xlink:title="thing.h">
<polygon fill="white" stroke="black" points="335,-58.5 335,-79.5 383,-79.5 383,-58.5 335,-58.5"/>
<text text-anchor="middle" x="359" y="-66.5" font-family="Helvetica,sans-Serif" font-size="10.00">thing.h</text>
</a>
</g>
<!-- Node4&#45;&gt;Node5 -->
<g id="edge8" class="edge"><title>Node4&#45;&gt;Node5</title>
<path fill="none" stroke="midnightblue" d="M339.402,-116.362C342.582,-108.677 346.972,-98.0686 350.79,-88.8399"/>
<polygon fill="midnightblue" stroke="midnightblue" points="354.036,-90.1491 354.626,-79.5707 347.568,-87.4726 354.036,-90.1491"/>
</g>
<!-- Node9 -->
<g id="node17" class="node"><title>Node9</title>
<polygon fill="white" stroke="#bfbfbf" points="142.5,-0.5 142.5,-21.5 195.5,-21.5 195.5,-0.5 142.5,-0.5"/>
<text text-anchor="middle" x="169" y="-8.5" font-family="Helvetica,sans-Serif" font-size="10.00">QString</text>
</g>
<!-- Node4&#45;&gt;Node9 -->
<g id="edge26" class="edge"><title>Node4&#45;&gt;Node9</title>
<path fill="none" stroke="midnightblue" d="M318.508,-116.373C304.031,-106.975 282.462,-92.8066 264,-80 238.872,-62.5699 210.57,-41.8722 191.443,-27.7228"/>
<polygon fill="midnightblue" stroke="midnightblue" points="193.463,-24.8629 183.345,-21.7177 189.293,-30.4856 193.463,-24.8629"/>
</g>
<!-- Node4&#45;&gt;Node11 -->
<g id="edge28" class="edge"><title>Node4&#45;&gt;Node11</title>
<path fill="none" stroke="midnightblue" d="M348.843,-116.295C374.963,-96.0955 431.704,-52.2158 463.065,-27.9632"/>
<polygon fill="midnightblue" stroke="midnightblue" points="465.421,-30.5654 471.191,-21.6792 461.139,-25.028 465.421,-30.5654"/>
</g>
<!-- Node6 -->
<g id="node11" class="node"><title>Node6</title>
<polygon fill="white" stroke="#bfbfbf" points="213,-0.5 213,-21.5 311,-21.5 311,-0.5 213,-0.5"/>
<text text-anchor="middle" x="262" y="-8.5" font-family="Helvetica,sans-Serif" font-size="10.00">QGraphicsObject</text>
</g>
<!-- Node5&#45;&gt;Node6 -->
<g id="edge10" class="edge"><title>Node5&#45;&gt;Node6</title>
<path fill="none" stroke="midnightblue" d="M341.209,-58.3619C326.441,-49.532 305.222,-36.844 288.462,-26.8224"/>
<polygon fill="midnightblue" stroke="midnightblue" points="290.057,-23.6987 279.679,-21.5707 286.465,-29.7066 290.057,-23.6987"/>
</g>
<!-- Node5&#45;&gt;Node7 -->
<g id="edge12" class="edge"><title>Node5&#45;&gt;Node7</title>
<path fill="none" stroke="midnightblue" d="M334.999,-60.4187C331.993,-59.5163 328.942,-58.6814 326,-58 208.92,-30.8777 175.31,-48.1121 58,-22 57.3977,-21.8659 56.7909,-21.7263 56.1807,-21.5816"/>
<polygon fill="midnightblue" stroke="midnightblue" points="56.7603,-18.1133 46.1946,-18.8987 54.944,-24.8735 56.7603,-18.1133"/>
</g>
<!-- Node5&#45;&gt;Node8 -->
<g id="edge14" class="edge"><title>Node5&#45;&gt;Node8</title>
<path fill="none" stroke="midnightblue" d="M334.963,-60.5663C331.963,-59.6386 328.923,-58.7574 326,-58 244.992,-37.0088 220.24,-41.7057 135.579,-22.2167"/>
<polygon fill="midnightblue" stroke="midnightblue" points="136.334,-18.7989 125.799,-19.9203 134.734,-25.6136 136.334,-18.7989"/>
</g>
<!-- Node5&#45;&gt;Node9 -->
<g id="edge16" class="edge"><title>Node5&#45;&gt;Node9</title>
<path fill="none" stroke="midnightblue" d="M334.881,-60.8527C331.895,-59.8759 328.881,-58.9049 326,-58 275.014,-41.9852 259.729,-38.8012 205.547,-22.4344"/>
<polygon fill="midnightblue" stroke="midnightblue" points="206.324,-19.0126 195.738,-19.4565 204.29,-25.7107 206.324,-19.0126"/>
</g>
<!-- Node10 -->
<g id="node19" class="node"><title>Node10</title>
<polygon fill="white" stroke="#bfbfbf" points="400.5,-0.5 400.5,-21.5 441.5,-21.5 441.5,-0.5 400.5,-0.5"/>
<text text-anchor="middle" x="421" y="-8.5" font-family="Helvetica,sans-Serif" font-size="10.00">QList</text>
</g>
<!-- Node5&#45;&gt;Node10 -->
<g id="edge18" class="edge"><title>Node5&#45;&gt;Node10</title>
<path fill="none" stroke="midnightblue" d="M370.372,-58.3619C379.286,-50.0226 391.879,-38.2418 402.276,-28.5162"/>
<polygon fill="midnightblue" stroke="midnightblue" points="404.789,-30.9582 409.7,-21.5707 400.007,-25.8463 404.789,-30.9582"/>
</g>
<!-- Node5&#45;&gt;Node11 -->
<g id="edge20" class="edge"><title>Node5&#45;&gt;Node11</title>
<path fill="none" stroke="midnightblue" d="M381.818,-58.4966C401.586,-49.397 430.413,-36.1273 452.576,-25.9253"/>
<polygon fill="midnightblue" stroke="midnightblue" points="454.306,-28.982 461.926,-21.6212 451.379,-22.6234 454.306,-28.982"/>
</g>
<!-- Node5&#45;&gt;Node12 -->
<g id="edge22" class="edge"><title>Node5&#45;&gt;Node12</title>
<path fill="none" stroke="midnightblue" d="M358.45,-58.3619C358.065,-50.9219 357.538,-40.7427 357.072,-31.7276"/>
<polygon fill="midnightblue" stroke="midnightblue" points="360.559,-31.3765 356.547,-21.5707 353.568,-31.7381 360.559,-31.3765"/>
</g>
<!-- Node13 -->
<g id="node25" class="node"><title>Node13</title>
<polygon fill="white" stroke="#bfbfbf" points="593,-0.5 593,-21.5 643,-21.5 643,-0.5 593,-0.5"/>
<text text-anchor="middle" x="618" y="-8.5" font-family="Helvetica,sans-Serif" font-size="10.00">QHash</text>
</g>
<!-- Node5&#45;&gt;Node13 -->
<g id="edge24" class="edge"><title>Node5&#45;&gt;Node13</title>
<path fill="none" stroke="midnightblue" d="M383.174,-64.8281C422.899,-57.7854 504.614,-42.5145 582.826,-22.1171"/>
<polygon fill="midnightblue" stroke="midnightblue" points="584.064,-25.4101 592.838,-19.472 582.276,-18.6423 584.064,-25.4101"/>
</g>
<!-- Node15&#45;&gt;Node7 -->
<g id="edge42" class="edge"><title>Node15&#45;&gt;Node7</title>
<path fill="none" stroke="midnightblue" d="M96.3074,-116.336C76.6786,-109.125 54.2098,-97.6245 40,-80 29.0161,-66.3766 24.985,-46.6669 23.5741,-31.7979"/>
<polygon fill="midnightblue" stroke="midnightblue" points="27.0508,-31.3143 22.934,-21.552 20.0644,-31.7508 27.0508,-31.3143"/>
</g>
<!-- Node16 -->
<g id="node35" class="node"><title>Node16</title>
<polygon fill="white" stroke="#bfbfbf" points="124.5,-58.5 124.5,-79.5 179.5,-79.5 179.5,-58.5 124.5,-58.5"/>
<text text-anchor="middle" x="152" y="-66.5" font-family="Helvetica,sans-Serif" font-size="10.00">QObject</text>
</g>
<!-- Node15&#45;&gt;Node16 -->
<g id="edge38" class="edge"><title>Node15&#45;&gt;Node16</title>
<path fill="none" stroke="midnightblue" d="M138.935,-116.362C141.01,-108.84 143.857,-98.5187 146.364,-89.4308"/>
<polygon fill="midnightblue" stroke="midnightblue" points="149.799,-90.1414 149.084,-79.5707 143.051,-88.2798 149.799,-90.1414"/>
</g>
<!-- Node17 -->
<g id="node37" class="node"><title>Node17</title>
<polygon fill="white" stroke="#bfbfbf" points="48.5,-58.5 48.5,-79.5 107.5,-79.5 107.5,-58.5 48.5,-58.5"/>
<text text-anchor="middle" x="78" y="-66.5" font-family="Helvetica,sans-Serif" font-size="10.00">QPixmap</text>
</g>
<!-- Node15&#45;&gt;Node17 -->
<g id="edge40" class="edge"><title>Node15&#45;&gt;Node17</title>
<path fill="none" stroke="midnightblue" d="M125.362,-116.362C117.104,-108.104 105.472,-96.4725 95.8029,-86.8029"/>
<polygon fill="midnightblue" stroke="midnightblue" points="98.1166,-84.1669 88.5707,-79.5707 93.1669,-89.1166 98.1166,-84.1669"/>
</g>
<!-- Node18 -->
<g id="node40" class="node"><title>Node18</title>
<polygon fill="white" stroke="#bfbfbf" points="272.5,-58.5 272.5,-79.5 317.5,-79.5 317.5,-58.5 272.5,-58.5"/>
<text text-anchor="middle" x="295" y="-66.5" font-family="Helvetica,sans-Serif" font-size="10.00">QSize</text>
</g>
<!-- Node15&#45;&gt;Node18 -->
<g id="edge44" class="edge"><title>Node15&#45;&gt;Node18</title>
<path fill="none" stroke="midnightblue" d="M164.794,-116.497C192.332,-106.451 233.801,-91.3241 262.509,-80.8522"/>
<polygon fill="midnightblue" stroke="midnightblue" points="263.892,-84.0733 272.087,-77.3582 261.493,-77.4971 263.892,-84.0733"/>
</g>
<!-- Node21&#45;&gt;Node18 -->
<g id="edge60" class="edge"><title>Node21&#45;&gt;Node18</title>
<path fill="none" stroke="midnightblue" d="M809.687,-123.64C690.657,-116.902 434.02,-100.759 327.921,-79.9311"/>
<polygon fill="midnightblue" stroke="midnightblue" points="328.337,-76.4427 317.834,-77.835 326.912,-83.2963 328.337,-76.4427"/>
</g>
<!-- Node22 -->
<g id="node49" class="node"><title>Node22</title>
<a xlink:href="Common_8h.htm" target="_top" xlink:title="Common.h">
<polygon fill="white" stroke="black" points="1024.5,-58.5 1024.5,-79.5 1091.5,-79.5 1091.5,-58.5 1024.5,-58.5"/>
<text text-anchor="middle" x="1058" y="-66.5" font-family="Helvetica,sans-Serif" font-size="10.00">Common.h</text>
</a>
</g>
<!-- Node21&#45;&gt;Node22 -->
<g id="edge54" class="edge"><title>Node21&#45;&gt;Node22</title>
<path fill="none" stroke="midnightblue" d="M905.683,-116.497C936.137,-107 981.157,-92.9619 1014.36,-82.6087"/>
<polygon fill="midnightblue" stroke="midnightblue" points="1015.75,-85.8414 1024.25,-79.5231 1013.67,-79.1587 1015.75,-85.8414"/>
</g>
<!-- Node23 -->
<g id="node51" class="node"><title>Node23</title>
<polygon fill="white" stroke="#bfbfbf" points="1108.5,-58.5 1108.5,-79.5 1149.5,-79.5 1149.5,-58.5 1108.5,-58.5"/>
<text text-anchor="middle" x="1129" y="-66.5" font-family="Helvetica,sans-Serif" font-size="10.00">glib.h</text>
</g>
<!-- Node21&#45;&gt;Node23 -->
<g id="edge56" class="edge"><title>Node21&#45;&gt;Node23</title>
<path fill="none" stroke="midnightblue" d="M934.1,-116.957C977.97,-109.232 1038.21,-97.3596 1098.54,-80.1429"/>
<polygon fill="midnightblue" stroke="midnightblue" points="1099.6,-83.4817 1108.23,-77.3337 1097.65,-76.7589 1099.6,-83.4817"/>
</g>
<!-- Node24 -->
<g id="node53" class="node"><title>Node24</title>
<polygon fill="white" stroke="#bfbfbf" points="949,-58.5 949,-79.5 1007,-79.5 1007,-58.5 949,-58.5"/>
<text text-anchor="middle" x="978" y="-66.5" font-family="Helvetica,sans-Serif" font-size="10.00">QtGlobal</text>
</g>
<!-- Node21&#45;&gt;Node24 -->
<g id="edge58" class="edge"><title>Node21&#45;&gt;Node24</title>
<path fill="none" stroke="midnightblue" d="M891.442,-116.362C907.804,-107.409 931.413,-94.4908 949.843,-84.4064"/>
<polygon fill="midnightblue" stroke="midnightblue" points="951.589,-87.4412 958.681,-79.5707 948.229,-81.3004 951.589,-87.4412"/>
</g>
<!-- Node25 -->
<g id="node56" class="node"><title>Node25</title>
<polygon fill="white" stroke="#bfbfbf" points="812.5,-58.5 812.5,-79.5 863.5,-79.5 863.5,-58.5 812.5,-58.5"/>
<text text-anchor="middle" x="838" y="-66.5" font-family="Helvetica,sans-Serif" font-size="10.00">QSizeF</text>
</g>
<!-- Node21&#45;&gt;Node25 -->
<g id="edge62" class="edge"><title>Node21&#45;&gt;Node25</title>
<path fill="none" stroke="midnightblue" d="M865.764,-116.362C861.163,-108.513 854.775,-97.6159 849.286,-88.2527"/>
<polygon fill="midnightblue" stroke="midnightblue" points="852.273,-86.4276 844.197,-79.5707 846.234,-89.9677 852.273,-86.4276"/>
</g>
<!-- Node26 -->
<g id="node58" class="node"><title>Node26</title>
<polygon fill="white" stroke="#bfbfbf" points="881,-58.5 881,-79.5 931,-79.5 931,-58.5 881,-58.5"/>
<text text-anchor="middle" x="906" y="-66.5" font-family="Helvetica,sans-Serif" font-size="10.00">QColor</text>
</g>
<!-- Node21&#45;&gt;Node26 -->
<g id="edge64" class="edge"><title>Node21&#45;&gt;Node26</title>
<path fill="none" stroke="midnightblue" d="M878.236,-116.362C882.837,-108.513 889.225,-97.6159 894.714,-88.2527"/>
<polygon fill="midnightblue" stroke="midnightblue" points="897.766,-89.9677 899.803,-79.5707 891.727,-86.4276 897.766,-89.9677"/>
</g>
<!-- Node27 -->
<g id="node60" class="node"><title>Node27</title>
<polygon fill="white" stroke="#bfbfbf" points="830.5,-0.5 830.5,-21.5 879.5,-21.5 879.5,-0.5 830.5,-0.5"/>
<text text-anchor="middle" x="855" y="-8.5" font-family="Helvetica,sans-Serif" font-size="10.00">QPoint</text>
</g>
<!-- Node21&#45;&gt;Node27 -->
<g id="edge66" class="edge"><title>Node21&#45;&gt;Node27</title>
<path fill="none" stroke="midnightblue" d="M845.786,-116.409C830.602,-108.748 812.798,-96.7763 804,-80 793.893,-60.7272 811.931,-40.98 829.282,-27.5766"/>
<polygon fill="midnightblue" stroke="midnightblue" points="831.574,-30.2379 837.618,-21.5362 827.467,-24.5694 831.574,-30.2379"/>
</g>
<!-- Node28&#45;&gt;Node7 -->
<g id="edge80" class="edge"><title>Node28&#45;&gt;Node7</title>
<path fill="none" stroke="midnightblue" d="M650.959,-59.1795C647.933,-58.7471 644.931,-58.3492 642,-58 383.778,-27.2359 313.704,-69.3335 58,-22 57.3933,-21.8877 56.7823,-21.7681 56.1684,-21.642"/>
<polygon fill="midnightblue" stroke="midnightblue" points="56.6958,-18.1663 46.1457,-19.1385 54.9994,-24.9576 56.6958,-18.1663"/>
</g>
<!-- Node28&#45;&gt;Node11 -->
<g id="edge74" class="edge"><title>Node28&#45;&gt;Node11</title>
<path fill="none" stroke="midnightblue" d="M659.95,-58.4625C624.753,-49.882 573.95,-37.1409 521.515,-22.3446"/>
<polygon fill="midnightblue" stroke="midnightblue" points="522.284,-18.9247 511.708,-19.5584 520.371,-25.6582 522.284,-18.9247"/>
</g>
<!-- Node28&#45;&gt;Node13 -->
<g id="edge82" class="edge"><title>Node28&#45;&gt;Node13</title>
<path fill="none" stroke="midnightblue" d="M688.226,-58.3619C675.376,-49.6955 657.015,-37.3126 642.29,-27.3819"/>
<polygon fill="midnightblue" stroke="midnightblue" points="643.921,-24.2604 633.674,-21.5707 640.007,-30.0639 643.921,-24.2604"/>
</g>
<!-- Node28&#45;&gt;Node27 -->
<g id="edge76" class="edge"><title>Node28&#45;&gt;Node27</title>
<path fill="none" stroke="midnightblue" d="M731.345,-58.4966C756.475,-48.8441 793.821,-34.4993 820.892,-24.1013"/>
<polygon fill="midnightblue" stroke="midnightblue" points="822.278,-27.318 830.358,-20.465 819.768,-20.7834 822.278,-27.318"/>
</g>
<!-- Node29 -->
<g id="node64" class="node"><title>Node29</title>
<polygon fill="white" stroke="#bfbfbf" points="896.5,-0.5 896.5,-21.5 955.5,-21.5 955.5,-0.5 896.5,-0.5"/>
<text text-anchor="middle" x="926" y="-8.5" font-family="Helvetica,sans-Serif" font-size="10.00">qglobal.h</text>
</g>
<!-- Node28&#45;&gt;Node29 -->
<g id="edge70" class="edge"><title>Node28&#45;&gt;Node29</title>
<path fill="none" stroke="midnightblue" d="M746.857,-58.4611C782.024,-49.7215 833.354,-36.7573 886.261,-22.4272"/>
<polygon fill="midnightblue" stroke="midnightblue" points="887.424,-25.7382 896.154,-19.7363 885.586,-18.9835 887.424,-25.7382"/>
</g>
<!-- Node30 -->
<g id="node66" class="node"><title>Node30</title>
<polygon fill="white" stroke="#bfbfbf" points="973,-0.5 973,-21.5 1027,-21.5 1027,-0.5 973,-0.5"/>
<text text-anchor="middle" x="1000" y="-8.5" font-family="Helvetica,sans-Serif" font-size="10.00">qmath.h</text>
</g>
<!-- Node28&#45;&gt;Node30 -->
<g id="edge72" class="edge"><title>Node28&#45;&gt;Node30</title>
<path fill="none" stroke="midnightblue" d="M757.167,-61.2668C807.82,-53.4777 886.348,-40.3093 963.128,-22.0094"/>
<polygon fill="midnightblue" stroke="midnightblue" points="964.069,-25.3829 972.967,-19.6332 962.425,-18.5785 964.069,-25.3829"/>
</g>
<!-- Node31 -->
<g id="node70" class="node"><title>Node31</title>
<polygon fill="white" stroke="#bfbfbf" points="758.5,-0.5 758.5,-21.5 813.5,-21.5 813.5,-0.5 758.5,-0.5"/>
<text text-anchor="middle" x="786" y="-8.5" font-family="Helvetica,sans-Serif" font-size="10.00">QPointF</text>
</g>
<!-- Node28&#45;&gt;Node31 -->
<g id="edge78" class="edge"><title>Node28&#45;&gt;Node31</title>
<path fill="none" stroke="midnightblue" d="M719.04,-58.3619C731.293,-49.6955 748.799,-37.3126 762.839,-27.3819"/>
<polygon fill="midnightblue" stroke="midnightblue" points="764.912,-30.2028 771.055,-21.5707 760.87,-24.4879 764.912,-30.2028"/>
</g>
<!-- Node32 -->
<g id="node74" class="node"><title>Node32</title>
<polygon fill="white" stroke="#bfbfbf" points="1045,-0.5 1045,-21.5 1125,-21.5 1125,-0.5 1045,-0.5"/>
<text text-anchor="middle" x="1085" y="-8.5" font-family="Helvetica,sans-Serif" font-size="10.00">QVariantMap</text>
</g>
<!-- Node28&#45;&gt;Node32 -->
<g id="edge84" class="edge"><title>Node28&#45;&gt;Node32</title>
<path fill="none" stroke="midnightblue" d="M757.111,-62.8142C820.786,-55.1015 930.922,-40.8212 1034.9,-22.0935"/>
<polygon fill="midnightblue" stroke="midnightblue" points="1035.73,-25.5002 1044.94,-20.2673 1034.48,-18.6132 1035.73,-25.5002"/>
</g>
<!-- Node33&#45;&gt;Node10 -->
<g id="edge100" class="edge"><title>Node33&#45;&gt;Node10</title>
<path fill="none" stroke="midnightblue" d="M559.627,-58.5C532.598,-49.8921 493.334,-37.1552 451.166,-22.3262"/>
<polygon fill="midnightblue" stroke="midnightblue" points="452.148,-18.961 441.553,-18.9267 449.814,-25.5605 452.148,-18.961"/>
</g>
<!-- Node33&#45;&gt;Node11 -->
<g id="edge90" class="edge"><title>Node33&#45;&gt;Node11</title>
<path fill="none" stroke="midnightblue" d="M573.442,-58.4966C556.802,-49.5602 532.673,-36.602 513.82,-26.4772"/>
<polygon fill="midnightblue" stroke="midnightblue" points="515.243,-23.2691 504.777,-21.6212 511.931,-29.436 515.243,-23.2691"/>
</g>
<!-- Node33&#45;&gt;Node12 -->
<g id="edge96" class="edge"><title>Node33&#45;&gt;Node12</title>
<path fill="none" stroke="midnightblue" d="M552.377,-60.3373C513.784,-51.9219 453.924,-38.3898 393.881,-22.4044"/>
<polygon fill="midnightblue" stroke="midnightblue" points="394.42,-18.9254 383.855,-19.7123 392.605,-25.6859 394.42,-18.9254"/>
</g>
<!-- Node33&#45;&gt;Node14 -->
<g id="edge88" class="edge"><title>Node33&#45;&gt;Node14</title>
<path fill="none" stroke="midnightblue" d="M585.48,-58.3619C579.874,-50.4313 572.068,-39.3885 565.403,-29.9606"/>
<polygon fill="midnightblue" stroke="midnightblue" points="568.103,-27.7161 559.472,-21.5707 562.387,-31.7568 568.103,-27.7161"/>
</g>
<!-- Node33&#45;&gt;Node27 -->
<g id="edge92" class="edge"><title>Node33&#45;&gt;Node27</title>
<path fill="none" stroke="midnightblue" d="M633.626,-59.8029C636.458,-59.1854 639.271,-58.5792 642,-58 718.69,-41.7254 741.392,-42.8222 820.322,-22.2425"/>
<polygon fill="midnightblue" stroke="midnightblue" points="821.46,-25.562 830.234,-19.6228 819.671,-18.7944 821.46,-25.562"/>
</g>
<!-- Node33&#45;&gt;Node31 -->
<g id="edge94" class="edge"><title>Node33&#45;&gt;Node31</title>
<path fill="none" stroke="midnightblue" d="M628.559,-58.4176C658.34,-49.5408 702.219,-36.4293 748.821,-22.3474"/>
<polygon fill="midnightblue" stroke="midnightblue" points="749.929,-25.669 758.488,-19.4241 747.902,-18.9686 749.929,-25.669"/>
</g>
<!-- Node34 -->
<g id="node83" class="node"><title>Node34</title>
<polygon fill="white" stroke="#bfbfbf" points="660.5,-0.5 660.5,-21.5 741.5,-21.5 741.5,-0.5 660.5,-0.5"/>
<text text-anchor="middle" x="701" y="-8.5" font-family="Helvetica,sans-Serif" font-size="10.00">QTouchEvent</text>
</g>
<!-- Node33&#45;&gt;Node34 -->
<g id="edge98" class="edge"><title>Node33&#45;&gt;Node34</title>
<path fill="none" stroke="midnightblue" d="M612.558,-58.4966C629.198,-49.5602 653.327,-36.602 672.18,-26.4772"/>
<polygon fill="midnightblue" stroke="midnightblue" points="674.069,-29.436 681.223,-21.6212 670.757,-23.2691 674.069,-29.436"/>
</g>
<!-- Node38&#45;&gt;Node22 -->
<g id="edge112" class="edge"><title>Node38&#45;&gt;Node22</title>
<path fill="none" stroke="midnightblue" d="M1115.98,-116.362C1105.57,-107.859 1090.78,-95.7785 1078.74,-85.9466"/>
<polygon fill="midnightblue" stroke="midnightblue" points="1080.9,-83.1866 1070.94,-79.5707 1076.47,-88.6077 1080.9,-83.1866"/>
</g>
<!-- Node38&#45;&gt;Node23 -->
<g id="edge120" class="edge"><title>Node38&#45;&gt;Node23</title>
<path fill="none" stroke="midnightblue" d="M1129,-116.362C1129,-108.922 1129,-98.7427 1129,-89.7276"/>
<polygon fill="midnightblue" stroke="midnightblue" points="1132.5,-89.5706 1129,-79.5707 1125.5,-89.5707 1132.5,-89.5706"/>
</g>
<!-- Node38&#45;&gt;Node24 -->
<g id="edge122" class="edge"><title>Node38&#45;&gt;Node24</title>
<path fill="none" stroke="midnightblue" d="M1101.66,-116.497C1077.36,-107.164 1041.64,-93.4447 1014.83,-83.1475"/>
<polygon fill="midnightblue" stroke="midnightblue" points="1015.99,-79.8415 1005.4,-79.5231 1013.48,-86.376 1015.99,-79.8415"/>
</g>
<!-- Node39 -->
<g id="node96" class="node"><title>Node39</title>
<polygon fill="white" stroke="#bfbfbf" points="1278.5,-58.5 1278.5,-79.5 1321.5,-79.5 1321.5,-58.5 1278.5,-58.5"/>
<text text-anchor="middle" x="1300" y="-66.5" font-family="Helvetica,sans-Serif" font-size="10.00">string</text>
</g>
<!-- Node38&#45;&gt;Node39 -->
<g id="edge114" class="edge"><title>Node38&#45;&gt;Node39</title>
<path fill="none" stroke="midnightblue" d="M1160.73,-116.721C1187.35,-108.031 1226.61,-95.067 1268.78,-80.3709"/>
<polygon fill="midnightblue" stroke="midnightblue" points="1270.11,-83.6131 1278.4,-77.0078 1267.8,-77.0055 1270.11,-83.6131"/>
</g>
<!-- Node40 -->
<g id="node98" class="node"><title>Node40</title>
<polygon fill="white" stroke="#bfbfbf" points="1167,-58.5 1167,-79.5 1213,-79.5 1213,-58.5 1167,-58.5"/>
<text text-anchor="middle" x="1190" y="-66.5" font-family="Helvetica,sans-Serif" font-size="10.00">vector</text>
</g>
<!-- Node38&#45;&gt;Node40 -->
<g id="edge116" class="edge"><title>Node38&#45;&gt;Node40</title>
<path fill="none" stroke="midnightblue" d="M1140.19,-116.362C1148.96,-108.023 1161.35,-96.2418 1171.58,-86.5162"/>
<polygon fill="midnightblue" stroke="midnightblue" points="1174.05,-88.9978 1178.88,-79.5707 1169.22,-83.9248 1174.05,-88.9978"/>
</g>
<!-- Node41 -->
<g id="node100" class="node"><title>Node41</title>
<polygon fill="white" stroke="#bfbfbf" points="1230.5,-58.5 1230.5,-79.5 1261.5,-79.5 1261.5,-58.5 1230.5,-58.5"/>
<text text-anchor="middle" x="1246" y="-66.5" font-family="Helvetica,sans-Serif" font-size="10.00">set</text>
</g>
<!-- Node38&#45;&gt;Node41 -->
<g id="edge118" class="edge"><title>Node38&#45;&gt;Node41</title>
<path fill="none" stroke="midnightblue" d="M1150.19,-116.497C1170.17,-106.589 1200.14,-91.7364 1221.22,-81.2839"/>
<polygon fill="midnightblue" stroke="midnightblue" points="1222.81,-84.4019 1230.22,-76.8245 1219.7,-78.1302 1222.81,-84.4019"/>
</g>
</g>
</svg>
