<?xml version="1.0" encoding="UTF-8" standalone="no"?>
<!DOCTYPE svg PUBLIC "-//W3C//DTD SVG 1.1//EN"
 "http://www.w3.org/Graphics/SVG/1.1/DTD/svg11.dtd">
<!-- Generated by graphviz version 2.26.3 (20100126.1600)
 -->
<!-- Title: G Pages: 1 -->
<svg width="664pt" height="204pt"
 viewBox="0.00 0.00 664.00 204.00" xmlns="http://www.w3.org/2000/svg" xmlns:xlink="http://www.w3.org/1999/xlink">
<g id="graph1" class="graph" transform="scale(1 1) rotate(0) translate(4 200)">
<title>G</title>
<polygon fill="white" stroke="white" points="-4,5 -4,-200 661,-200 661,5 -4,5"/>
<!-- Node1 -->
<g id="node1" class="node"><title>Node1</title>
<polygon fill="#bfbfbf" stroke="black" points="191,-174.5 191,-195.5 309,-195.5 309,-174.5 191,-174.5"/>
<text text-anchor="middle" x="250" y="-182.5" font-family="Helvetica,sans-Serif" font-size="10.00">HostWindowData.cpp</text>
</g>
<!-- Node2 -->
<g id="node3" class="node"><title>Node2</title>
<a xlink:href="Common_8h.htm" target="_top" xlink:title="Common.h">
<polygon fill="white" stroke="black" points="249.5,-0.5 249.5,-21.5 316.5,-21.5 316.5,-0.5 249.5,-0.5"/>
<text text-anchor="middle" x="283" y="-8.5" font-family="Helvetica,sans-Serif" font-size="10.00">Common.h</text>
</a>
</g>
<!-- Node1&#45;&gt;Node2 -->
<g id="edge2" class="edge"><title>Node1&#45;&gt;Node2</title>
<path fill="none" stroke="midnightblue" d="M259.954,-174.409C267.629,-165.475 277.643,-151.945 282,-138 293.284,-101.884 289.889,-57.1203 286.425,-31.5314"/>
<polygon fill="midnightblue" stroke="midnightblue" points="289.868,-30.8943 284.929,-21.5211 282.945,-31.9285 289.868,-30.8943"/>
</g>
<!-- Node3 -->
<g id="node5" class="node"><title>Node3</title>
<a xlink:href="HostWindowData_8h.htm" target="_top" xlink:title="HostWindowData.h">
<polygon fill="white" stroke="black" points="-0.5,-58.5 -0.5,-79.5 106.5,-79.5 106.5,-58.5 -0.5,-58.5"/>
<text text-anchor="middle" x="53" y="-66.5" font-family="Helvetica,sans-Serif" font-size="10.00">HostWindowData.h</text>
</a>
</g>
<!-- Node1&#45;&gt;Node3 -->
<g id="edge4" class="edge"><title>Node1&#45;&gt;Node3</title>
<path fill="none" stroke="midnightblue" d="M202.428,-174.464C175.563,-167.059 142.222,-155.333 116,-138 95.7515,-124.615 77.6501,-103.304 66.1035,-87.9052"/>
<polygon fill="midnightblue" stroke="midnightblue" points="68.8019,-85.6643 60.0959,-79.6263 63.1364,-89.7755 68.8019,-85.6643"/>
</g>
<!-- Node6 -->
<g id="node12" class="node"><title>Node6</title>
<a xlink:href="Settings_8h.htm" target="_top" xlink:title="Settings.h">
<polygon fill="white" stroke="black" points="404.5,-116.5 404.5,-137.5 467.5,-137.5 467.5,-116.5 404.5,-116.5"/>
<text text-anchor="middle" x="436" y="-124.5" font-family="Helvetica,sans-Serif" font-size="10.00">Settings.h</text>
</a>
</g>
<!-- Node1&#45;&gt;Node6 -->
<g id="edge12" class="edge"><title>Node1&#45;&gt;Node6</title>
<path fill="none" stroke="midnightblue" d="M283.683,-174.497C314.802,-164.793 361.127,-150.348 394.513,-139.937"/>
<polygon fill="midnightblue" stroke="midnightblue" points="395.923,-143.163 404.428,-136.845 393.839,-136.481 395.923,-143.163"/>
</g>
<!-- Node12 -->
<g id="node25" class="node"><title>Node12</title>
<a xlink:href="HostWindowDataSoftware_8h.htm" target="_top" xlink:title="HostWindowDataSoftware.h">
<polygon fill="white" stroke="black" points="124.5,-116.5 124.5,-137.5 273.5,-137.5 273.5,-116.5 124.5,-116.5"/>
<text text-anchor="middle" x="199" y="-124.5" font-family="Helvetica,sans-Serif" font-size="10.00">HostWindowDataSoftware.h</text>
</a>
</g>
<!-- Node1&#45;&gt;Node12 -->
<g id="edge26" class="edge"><title>Node1&#45;&gt;Node12</title>
<path fill="none" stroke="midnightblue" d="M240.646,-174.362C233.457,-166.186 223.359,-154.702 214.907,-145.091"/>
<polygon fill="midnightblue" stroke="midnightblue" points="217.527,-142.769 208.295,-137.571 212.27,-147.392 217.527,-142.769"/>
</g>
<!-- Node3&#45;&gt;Node2 -->
<g id="edge6" class="edge"><title>Node3&#45;&gt;Node2</title>
<path fill="none" stroke="midnightblue" d="M94.6513,-58.4966C135.671,-48.1525 198.06,-32.4196 239.656,-21.9302"/>
<polygon fill="midnightblue" stroke="midnightblue" points="240.657,-25.2875 249.497,-19.4485 238.945,-18.5 240.657,-25.2875"/>
</g>
<!-- Node4 -->
<g id="node8" class="node"><title>Node4</title>
<polygon fill="white" stroke="#bfbfbf" points="104.5,-0.5 104.5,-21.5 163.5,-21.5 163.5,-0.5 104.5,-0.5"/>
<text text-anchor="middle" x="134" y="-8.5" font-family="Helvetica,sans-Serif" font-size="10.00">QPixmap</text>
</g>
<!-- Node3&#45;&gt;Node4 -->
<g id="edge8" class="edge"><title>Node3&#45;&gt;Node4</title>
<path fill="none" stroke="midnightblue" d="M67.8566,-58.3619C79.8455,-49.7773 96.9273,-37.5459 110.728,-27.6636"/>
<polygon fill="midnightblue" stroke="midnightblue" points="113.145,-30.2383 119.238,-21.5707 109.069,-24.5469 113.145,-30.2383"/>
</g>
<!-- Node5 -->
<g id="node10" class="node"><title>Node5</title>
<polygon fill="white" stroke="#bfbfbf" points="1,-0.5 1,-21.5 87,-21.5 87,-0.5 1,-0.5"/>
<text text-anchor="middle" x="44" y="-8.5" font-family="Helvetica,sans-Serif" font-size="10.00">PIpcChannel.h</text>
</g>
<!-- Node3&#45;&gt;Node5 -->
<g id="edge10" class="edge"><title>Node3&#45;&gt;Node5</title>
<path fill="none" stroke="midnightblue" d="M51.3493,-58.3619C50.1948,-50.9219 48.6153,-40.7427 47.2163,-31.7276"/>
<polygon fill="midnightblue" stroke="midnightblue" points="50.6323,-30.9157 45.6403,-21.5707 43.7151,-31.9891 50.6323,-30.9157"/>
</g>
<!-- Node6&#45;&gt;Node2 -->
<g id="edge14" class="edge"><title>Node6&#45;&gt;Node2</title>
<path fill="none" stroke="midnightblue" d="M416.358,-116.38C400.392,-107.429 377.556,-93.8906 359,-80 338.055,-64.3208 316.138,-43.9321 301.252,-29.3921"/>
<polygon fill="midnightblue" stroke="midnightblue" points="303.329,-26.5239 293.757,-21.9832 298.408,-31.5023 303.329,-26.5239"/>
</g>
<!-- Node7 -->
<g id="node15" class="node"><title>Node7</title>
<polygon fill="white" stroke="#bfbfbf" points="549.5,-58.5 549.5,-79.5 592.5,-79.5 592.5,-58.5 549.5,-58.5"/>
<text text-anchor="middle" x="571" y="-66.5" font-family="Helvetica,sans-Serif" font-size="10.00">string</text>
</g>
<!-- Node6&#45;&gt;Node7 -->
<g id="edge16" class="edge"><title>Node6&#45;&gt;Node7</title>
<path fill="none" stroke="midnightblue" d="M460.447,-116.497C482.753,-106.914 515.822,-92.706 539.981,-82.3269"/>
<polygon fill="midnightblue" stroke="midnightblue" points="541.601,-85.4402 549.407,-78.277 538.837,-79.0087 541.601,-85.4402"/>
</g>
<!-- Node8 -->
<g id="node17" class="node"><title>Node8</title>
<polygon fill="white" stroke="#bfbfbf" points="610,-58.5 610,-79.5 656,-79.5 656,-58.5 610,-58.5"/>
<text text-anchor="middle" x="633" y="-66.5" font-family="Helvetica,sans-Serif" font-size="10.00">vector</text>
</g>
<!-- Node6&#45;&gt;Node8 -->
<g id="edge18" class="edge"><title>Node6&#45;&gt;Node8</title>
<path fill="none" stroke="midnightblue" d="M467.782,-118.491C499.165,-109.969 548.725,-96.1927 600.322,-80.1085"/>
<polygon fill="midnightblue" stroke="midnightblue" points="601.483,-83.4126 609.977,-77.0792 599.387,-76.7337 601.483,-83.4126"/>
</g>
<!-- Node9 -->
<g id="node19" class="node"><title>Node9</title>
<polygon fill="white" stroke="#bfbfbf" points="367.5,-58.5 367.5,-79.5 398.5,-79.5 398.5,-58.5 367.5,-58.5"/>
<text text-anchor="middle" x="383" y="-66.5" font-family="Helvetica,sans-Serif" font-size="10.00">set</text>
</g>
<!-- Node6&#45;&gt;Node9 -->
<g id="edge20" class="edge"><title>Node6&#45;&gt;Node9</title>
<path fill="none" stroke="midnightblue" d="M426.279,-116.362C418.808,-108.186 408.314,-96.7025 399.531,-87.0907"/>
<polygon fill="midnightblue" stroke="midnightblue" points="401.989,-84.5918 392.659,-79.5707 396.821,-89.3138 401.989,-84.5918"/>
</g>
<!-- Node10 -->
<g id="node21" class="node"><title>Node10</title>
<polygon fill="white" stroke="#bfbfbf" points="415.5,-58.5 415.5,-79.5 456.5,-79.5 456.5,-58.5 415.5,-58.5"/>
<text text-anchor="middle" x="436" y="-66.5" font-family="Helvetica,sans-Serif" font-size="10.00">glib.h</text>
</g>
<!-- Node6&#45;&gt;Node10 -->
<g id="edge22" class="edge"><title>Node6&#45;&gt;Node10</title>
<path fill="none" stroke="midnightblue" d="M436,-116.362C436,-108.922 436,-98.7427 436,-89.7276"/>
<polygon fill="midnightblue" stroke="midnightblue" points="439.5,-89.5706 436,-79.5707 432.5,-89.5707 439.5,-89.5706"/>
</g>
<!-- Node11 -->
<g id="node23" class="node"><title>Node11</title>
<polygon fill="white" stroke="#bfbfbf" points="474,-58.5 474,-79.5 532,-79.5 532,-58.5 474,-58.5"/>
<text text-anchor="middle" x="503" y="-66.5" font-family="Helvetica,sans-Serif" font-size="10.00">QtGlobal</text>
</g>
<!-- Node6&#45;&gt;Node11 -->
<g id="edge24" class="edge"><title>Node6&#45;&gt;Node11</title>
<path fill="none" stroke="midnightblue" d="M448.289,-116.362C458.017,-107.941 471.798,-96.0105 483.095,-86.2308"/>
<polygon fill="midnightblue" stroke="midnightblue" points="485.519,-88.7619 490.789,-79.5707 480.938,-83.4695 485.519,-88.7619"/>
</g>
<!-- Node12&#45;&gt;Node2 -->
<g id="edge28" class="edge"><title>Node12&#45;&gt;Node2</title>
<path fill="none" stroke="midnightblue" d="M211.272,-116.205C221.122,-107.153 234.922,-93.5636 245,-80 256.42,-64.6302 266.715,-45.4324 273.7,-31.1917"/>
<polygon fill="midnightblue" stroke="midnightblue" points="277.022,-32.3564 278.17,-21.8239 270.704,-29.3421 277.022,-32.3564"/>
</g>
<!-- Node12&#45;&gt;Node3 -->
<g id="edge30" class="edge"><title>Node12&#45;&gt;Node3</title>
<path fill="none" stroke="midnightblue" d="M172.561,-116.497C149.244,-107.234 115.05,-93.6499 89.1963,-83.3793"/>
<polygon fill="midnightblue" stroke="midnightblue" points="90.3219,-80.0605 79.7362,-79.6212 87.7375,-86.566 90.3219,-80.0605"/>
</g>
<!-- Node12&#45;&gt;Node4 -->
<g id="edge32" class="edge"><title>Node12&#45;&gt;Node4</title>
<path fill="none" stroke="midnightblue" d="M185.421,-116.429C175.101,-107.707 161.307,-94.4523 153,-80 144.499,-65.2099 139.651,-46.4374 136.984,-32.2082"/>
<polygon fill="midnightblue" stroke="midnightblue" points="140.369,-31.228 135.283,-21.9336 133.463,-32.3709 140.369,-31.228"/>
</g>
<!-- Node13 -->
<g id="node30" class="node"><title>Node13</title>
<polygon fill="white" stroke="#bfbfbf" points="162,-58.5 162,-79.5 236,-79.5 236,-58.5 162,-58.5"/>
<text text-anchor="middle" x="199" y="-66.5" font-family="Helvetica,sans-Serif" font-size="10.00">PIpcBuffer.h</text>
</g>
<!-- Node12&#45;&gt;Node13 -->
<g id="edge34" class="edge"><title>Node12&#45;&gt;Node13</title>
<path fill="none" stroke="midnightblue" d="M199,-116.362C199,-108.922 199,-98.7427 199,-89.7276"/>
<polygon fill="midnightblue" stroke="midnightblue" points="202.5,-89.5706 199,-79.5707 195.5,-89.5707 202.5,-89.5706"/>
</g>
</g>
</svg>
