<?xml version="1.0" encoding="UTF-8" standalone="no"?>
<!DOCTYPE svg PUBLIC "-//W3C//DTD SVG 1.1//EN"
 "http://www.w3.org/Graphics/SVG/1.1/DTD/svg11.dtd">
<!-- Generated by graphviz version 2.26.3 (20100126.1600)
 -->
<!-- Title: G Pages: 1 -->
<svg width="1811pt" height="378pt"
 viewBox="0.00 0.00 1811.00 378.00" xmlns="http://www.w3.org/2000/svg" xmlns:xlink="http://www.w3.org/1999/xlink">
<g id="graph1" class="graph" transform="scale(1 1) rotate(0) translate(4 374)">
<title>G</title>
<polygon fill="white" stroke="white" points="-4,5 -4,-374 1808,-374 1808,5 -4,5"/>
<!-- Node1 -->
<g id="node1" class="node"><title>Node1</title>
<polygon fill="#bfbfbf" stroke="black" points="985,-348.5 985,-369.5 1093,-369.5 1093,-348.5 985,-348.5"/>
<text text-anchor="middle" x="1039" y="-356.5" font-family="Helvetica,sans-Serif" font-size="10.00">HostQtDesktop.cpp</text>
</g>
<!-- Node2 -->
<g id="node3" class="node"><title>Node2</title>
<a xlink:href="Common_8h.htm" target="_top" xlink:title="Common.h">
<polygon fill="white" stroke="black" points="899.5,-0.5 899.5,-21.5 966.5,-21.5 966.5,-0.5 899.5,-0.5"/>
<text text-anchor="middle" x="933" y="-8.5" font-family="Helvetica,sans-Serif" font-size="10.00">Common.h</text>
</a>
</g>
<!-- Node1&#45;&gt;Node2 -->
<g id="edge2" class="edge"><title>Node1&#45;&gt;Node2</title>
<path fill="none" stroke="midnightblue" d="M1093.19,-356.77C1206.84,-351.614 1462.1,-337.328 1492,-312 1516.27,-291.442 1511,-274.808 1511,-243 1511,-243 1511,-243 1511,-127 1511,-72.5119 1111.04,-28.4071 976.535,-15.1149"/>
<polygon fill="midnightblue" stroke="midnightblue" points="976.868,-11.6308 966.574,-14.1391 976.185,-18.5975 976.868,-11.6308"/>
</g>
<!-- Node3 -->
<g id="node5" class="node"><title>Node3</title>
<a xlink:href="HostQtDesktop_8h.htm" target="_top" xlink:title="HostQtDesktop.h">
<polygon fill="white" stroke="black" points="462.5,-290.5 462.5,-311.5 559.5,-311.5 559.5,-290.5 462.5,-290.5"/>
<text text-anchor="middle" x="511" y="-298.5" font-family="Helvetica,sans-Serif" font-size="10.00">HostQtDesktop.h</text>
</a>
</g>
<!-- Node1&#45;&gt;Node3 -->
<g id="edge4" class="edge"><title>Node1&#45;&gt;Node3</title>
<path fill="none" stroke="midnightblue" d="M984.672,-354.852C897.573,-347.904 721.394,-332.618 573,-312 571.917,-311.85 570.824,-311.694 569.724,-311.534"/>
<polygon fill="midnightblue" stroke="midnightblue" points="570.097,-308.051 559.682,-309.993 569.035,-314.97 570.097,-308.051"/>
</g>
<!-- Node4 -->
<g id="node8" class="node"><title>Node4</title>
<polygon fill="white" stroke="#bfbfbf" points="1101,-232.5 1101,-253.5 1159,-253.5 1159,-232.5 1101,-232.5"/>
<text text-anchor="middle" x="1130" y="-240.5" font-family="Helvetica,sans-Serif" font-size="10.00">QWidget</text>
</g>
<!-- Node1&#45;&gt;Node4 -->
<g id="edge100" class="edge"><title>Node1&#45;&gt;Node4</title>
<path fill="none" stroke="midnightblue" d="M984.776,-357.013C875.169,-352.437 635.539,-339.382 611,-312 604.474,-304.718 604.352,-297.17 611,-290 647.063,-251.107 1034.66,-262.605 1087,-254 1088.1,-253.819 1089.22,-253.623 1090.34,-253.414"/>
<polygon fill="midnightblue" stroke="midnightblue" points="1091.48,-256.752 1100.54,-251.261 1090.03,-249.903 1091.48,-256.752"/>
</g>
<!-- Node22 -->
<g id="node60" class="node"><title>Node22</title>
<a xlink:href="CustomEvents_8h.htm" target="_top" xlink:title="CustomEvents.h">
<polygon fill="white" stroke="black" points="137,-174.5 137,-195.5 229,-195.5 229,-174.5 137,-174.5"/>
<text text-anchor="middle" x="183" y="-182.5" font-family="Helvetica,sans-Serif" font-size="10.00">CustomEvents.h</text>
</a>
</g>
<!-- Node1&#45;&gt;Node22 -->
<g id="edge112" class="edge"><title>Node1&#45;&gt;Node22</title>
<path fill="none" stroke="midnightblue" d="M984.706,-357.112C859.438,-352.356 553.348,-338.344 454,-312 358.419,-286.655 255.18,-228.806 208.492,-200.788"/>
<polygon fill="midnightblue" stroke="midnightblue" points="210.294,-197.787 199.928,-195.6 206.668,-203.775 210.294,-197.787"/>
</g>
<!-- Node29 -->
<g id="node75" class="node"><title>Node29</title>
<polygon fill="white" stroke="#bfbfbf" points="652.5,-290.5 652.5,-311.5 729.5,-311.5 729.5,-290.5 652.5,-290.5"/>
<text text-anchor="middle" x="691" y="-298.5" font-family="Helvetica,sans-Serif" font-size="10.00">QApplication</text>
</g>
<!-- Node1&#45;&gt;Node29 -->
<g id="edge92" class="edge"><title>Node1&#45;&gt;Node29</title>
<path fill="none" stroke="midnightblue" d="M984.958,-351.807C926.671,-343.77 830.944,-329.766 739.64,-312.226"/>
<polygon fill="midnightblue" stroke="midnightblue" points="740.163,-308.762 729.679,-310.295 738.83,-315.635 740.163,-308.762"/>
</g>
<!-- Node30 -->
<g id="node77" class="node"><title>Node30</title>
<polygon fill="white" stroke="#bfbfbf" points="747,-290.5 747,-311.5 829,-311.5 829,-290.5 747,-290.5"/>
<text text-anchor="middle" x="788" y="-298.5" font-family="Helvetica,sans-Serif" font-size="10.00">QHBoxLayout</text>
</g>
<!-- Node1&#45;&gt;Node30 -->
<g id="edge94" class="edge"><title>Node1&#45;&gt;Node30</title>
<path fill="none" stroke="midnightblue" d="M993.546,-348.497C950.073,-338.451 884.606,-323.323 839.288,-312.851"/>
<polygon fill="midnightblue" stroke="midnightblue" points="839.901,-309.401 829.37,-310.559 838.325,-316.221 839.901,-309.401"/>
</g>
<!-- Node31 -->
<g id="node79" class="node"><title>Node31</title>
<polygon fill="white" stroke="#bfbfbf" points="846.5,-290.5 846.5,-311.5 927.5,-311.5 927.5,-290.5 846.5,-290.5"/>
<text text-anchor="middle" x="887" y="-298.5" font-family="Helvetica,sans-Serif" font-size="10.00">QVBoxLayout</text>
</g>
<!-- Node1&#45;&gt;Node31 -->
<g id="edge96" class="edge"><title>Node1&#45;&gt;Node31</title>
<path fill="none" stroke="midnightblue" d="M1011.47,-348.497C987.016,-339.164 951.062,-325.445 924.076,-315.147"/>
<polygon fill="midnightblue" stroke="midnightblue" points="925.168,-311.818 914.578,-311.523 922.673,-318.358 925.168,-311.818"/>
</g>
<!-- Node32 -->
<g id="node81" class="node"><title>Node32</title>
<polygon fill="white" stroke="#bfbfbf" points="944.5,-290.5 944.5,-311.5 1033.5,-311.5 1033.5,-290.5 944.5,-290.5"/>
<text text-anchor="middle" x="989" y="-298.5" font-family="Helvetica,sans-Serif" font-size="10.00">QGestureEvent</text>
</g>
<!-- Node1&#45;&gt;Node32 -->
<g id="edge98" class="edge"><title>Node1&#45;&gt;Node32</title>
<path fill="none" stroke="midnightblue" d="M1029.83,-348.362C1022.85,-340.268 1013.08,-328.932 1004.84,-319.38"/>
<polygon fill="midnightblue" stroke="midnightblue" points="1007.29,-316.859 998.113,-311.571 1001.99,-321.43 1007.29,-316.859"/>
</g>
<!-- Node33 -->
<g id="node84" class="node"><title>Node33</title>
<polygon fill="white" stroke="#bfbfbf" points="1051,-290.5 1051,-311.5 1129,-311.5 1129,-290.5 1051,-290.5"/>
<text text-anchor="middle" x="1090" y="-298.5" font-family="Helvetica,sans-Serif" font-size="10.00">QPushButton</text>
</g>
<!-- Node1&#45;&gt;Node33 -->
<g id="edge102" class="edge"><title>Node1&#45;&gt;Node33</title>
<path fill="none" stroke="midnightblue" d="M1048.35,-348.362C1055.54,-340.186 1065.64,-328.702 1074.09,-319.091"/>
<polygon fill="midnightblue" stroke="midnightblue" points="1076.73,-321.392 1080.71,-311.571 1071.47,-316.769 1076.73,-321.392"/>
</g>
<!-- Node34 -->
<g id="node86" class="node"><title>Node34</title>
<polygon fill="white" stroke="#bfbfbf" points="1147,-290.5 1147,-311.5 1199,-311.5 1199,-290.5 1147,-290.5"/>
<text text-anchor="middle" x="1173" y="-298.5" font-family="Helvetica,sans-Serif" font-size="10.00">QTimer</text>
</g>
<!-- Node1&#45;&gt;Node34 -->
<g id="edge104" class="edge"><title>Node1&#45;&gt;Node34</title>
<path fill="none" stroke="midnightblue" d="M1063.27,-348.497C1084.48,-339.315 1115.5,-325.889 1139.15,-315.652"/>
<polygon fill="midnightblue" stroke="midnightblue" points="1140.67,-318.806 1148.46,-311.621 1137.89,-312.381 1140.67,-318.806"/>
</g>
<!-- Node35 -->
<g id="node88" class="node"><title>Node35</title>
<polygon fill="white" stroke="#bfbfbf" points="1217,-290.5 1217,-311.5 1275,-311.5 1275,-290.5 1217,-290.5"/>
<text text-anchor="middle" x="1246" y="-298.5" font-family="Helvetica,sans-Serif" font-size="10.00">QtDebug</text>
</g>
<!-- Node1&#45;&gt;Node35 -->
<g id="edge106" class="edge"><title>Node1&#45;&gt;Node35</title>
<path fill="none" stroke="midnightblue" d="M1077.29,-348.475C1109.49,-339.596 1156.99,-326.435 1207.22,-312.204"/>
<polygon fill="midnightblue" stroke="midnightblue" points="1208.3,-315.536 1216.96,-309.44 1206.39,-308.802 1208.3,-315.536"/>
</g>
<!-- Node36 -->
<g id="node90" class="node"><title>Node36</title>
<polygon fill="white" stroke="#bfbfbf" points="1293,-290.5 1293,-311.5 1383,-311.5 1383,-290.5 1293,-290.5"/>
<text text-anchor="middle" x="1338" y="-298.5" font-family="Helvetica,sans-Serif" font-size="10.00">QGraphicsView</text>
</g>
<!-- Node1&#45;&gt;Node36 -->
<g id="edge108" class="edge"><title>Node1&#45;&gt;Node36</title>
<path fill="none" stroke="midnightblue" d="M1093.04,-348.816C1140.48,-339.835 1211.61,-326.268 1282.87,-312.208"/>
<polygon fill="midnightblue" stroke="midnightblue" points="1283.79,-315.594 1292.93,-310.222 1282.44,-308.727 1283.79,-315.594"/>
</g>
<!-- Node37 -->
<g id="node92" class="node"><title>Node37</title>
<polygon fill="white" stroke="#bfbfbf" points="1199.5,-232.5 1199.5,-253.5 1282.5,-253.5 1282.5,-232.5 1199.5,-232.5"/>
<text text-anchor="middle" x="1241" y="-240.5" font-family="Helvetica,sans-Serif" font-size="10.00">SysMgrDefs.h</text>
</g>
<!-- Node1&#45;&gt;Node37 -->
<g id="edge110" class="edge"><title>Node1&#45;&gt;Node37</title>
<path fill="none" stroke="midnightblue" d="M984.638,-357.87C865.645,-354.443 596.373,-341.011 644,-290 683.827,-247.343 1109.99,-260.353 1168,-254 1174.85,-253.25 1182.04,-252.33 1189.13,-251.345"/>
<polygon fill="midnightblue" stroke="midnightblue" points="1189.99,-254.757 1199.38,-249.866 1188.99,-247.829 1189.99,-254.757"/>
</g>
<!-- Node38 -->
<g id="node95" class="node"><title>Node38</title>
<a xlink:href="FlickGesture_8h.htm" target="_top" xlink:title="FlickGesture.h">
<polygon fill="white" stroke="black" points="1400.5,-290.5 1400.5,-311.5 1483.5,-311.5 1483.5,-290.5 1400.5,-290.5"/>
<text text-anchor="middle" x="1442" y="-298.5" font-family="Helvetica,sans-Serif" font-size="10.00">FlickGesture.h</text>
</a>
</g>
<!-- Node1&#45;&gt;Node38 -->
<g id="edge114" class="edge"><title>Node1&#45;&gt;Node38</title>
<path fill="none" stroke="midnightblue" d="M1093.04,-353.237C1160.45,-345.729 1279.44,-331.434 1390.3,-312.202"/>
<polygon fill="midnightblue" stroke="midnightblue" points="1391.06,-315.62 1400.31,-310.447 1389.86,-308.726 1391.06,-315.62"/>
</g>
<!-- Node41 -->
<g id="node103" class="node"><title>Node41</title>
<a xlink:href="FlickGestureRecognizer_8h.htm" target="_top" xlink:title="FlickGestureRecognizer.h">
<polygon fill="white" stroke="black" points="1538.5,-290.5 1538.5,-311.5 1675.5,-311.5 1675.5,-290.5 1538.5,-290.5"/>
<text text-anchor="middle" x="1607" y="-298.5" font-family="Helvetica,sans-Serif" font-size="10.00">FlickGestureRecognizer.h</text>
</a>
</g>
<!-- Node1&#45;&gt;Node41 -->
<g id="edge124" class="edge"><title>Node1&#45;&gt;Node41</title>
<path fill="none" stroke="midnightblue" d="M1093.01,-354.433C1182.79,-346.695 1368.37,-330.073 1525,-312 1525.94,-311.892 1526.88,-311.782 1527.83,-311.671"/>
<polygon fill="midnightblue" stroke="midnightblue" points="1528.61,-315.101 1538.12,-310.427 1527.78,-308.152 1528.61,-315.101"/>
</g>
<!-- Node44 -->
<g id="node111" class="node"><title>Node44</title>
<polygon fill="white" stroke="#bfbfbf" points="1693,-290.5 1693,-311.5 1803,-311.5 1803,-290.5 1693,-290.5"/>
<text text-anchor="middle" x="1748" y="-298.5" font-family="Helvetica,sans-Serif" font-size="10.00">HostQtDesktop.moc</text>
</g>
<!-- Node1&#45;&gt;Node44 -->
<g id="edge134" class="edge"><title>Node1&#45;&gt;Node44</title>
<path fill="none" stroke="midnightblue" d="M1093.11,-356.841C1202.56,-352.087 1458.21,-339.023 1682.89,-312.035"/>
<polygon fill="midnightblue" stroke="midnightblue" points="1683.39,-315.501 1692.89,-310.823 1682.54,-308.552 1683.39,-315.501"/>
</g>
<!-- Node3&#45;&gt;Node2 -->
<g id="edge6" class="edge"><title>Node3&#45;&gt;Node2</title>
<path fill="none" stroke="midnightblue" d="M559.891,-293.491C696.622,-272.164 1073,-211.09 1073,-185 1073,-185 1073,-185 1073,-127 1073,-75.4606 1016.05,-42.4766 974.791,-25.3449"/>
<polygon fill="midnightblue" stroke="midnightblue" points="976.056,-22.0812 965.471,-21.6287 973.463,-28.5834 976.056,-22.0812"/>
</g>
<!-- Node3&#45;&gt;Node4 -->
<g id="edge8" class="edge"><title>Node3&#45;&gt;Node4</title>
<path fill="none" stroke="midnightblue" d="M559.663,-291.865C564.163,-291.172 568.66,-290.535 573,-290 800.281,-261.958 860.928,-290.526 1087,-254 1088.1,-253.822 1089.22,-253.628 1090.34,-253.422"/>
<polygon fill="midnightblue" stroke="midnightblue" points="1091.47,-256.762 1100.54,-251.283 1090.03,-249.911 1091.47,-256.762"/>
</g>
<!-- Node5 -->
<g id="node10" class="node"><title>Node5</title>
<a xlink:href="HostBase_8h.htm" target="_top" xlink:title="HostBase.h">
<polygon fill="white" stroke="black" points="539.5,-232.5 539.5,-253.5 610.5,-253.5 610.5,-232.5 539.5,-232.5"/>
<text text-anchor="middle" x="575" y="-240.5" font-family="Helvetica,sans-Serif" font-size="10.00">HostBase.h</text>
</a>
</g>
<!-- Node3&#45;&gt;Node5 -->
<g id="edge10" class="edge"><title>Node3&#45;&gt;Node5</title>
<path fill="none" stroke="midnightblue" d="M522.739,-290.362C531.941,-282.023 544.94,-270.242 555.672,-260.516"/>
<polygon fill="midnightblue" stroke="midnightblue" points="558.276,-262.879 563.336,-253.571 553.576,-257.692 558.276,-262.879"/>
</g>
<!-- Node5&#45;&gt;Node2 -->
<g id="edge12" class="edge"><title>Node5&#45;&gt;Node2</title>
<path fill="none" stroke="midnightblue" d="M608.793,-232.495C635.204,-223.856 672.579,-210.681 704,-196 721.68,-187.739 723.787,-181.009 742,-174 813.673,-146.42 850.262,-184.995 911,-138 940.912,-114.857 942.793,-95.7163 940,-58 939.363,-49.4026 938.08,-39.9926 936.784,-31.8659"/>
<polygon fill="midnightblue" stroke="midnightblue" points="940.195,-31.0483 935.069,-21.7765 933.294,-32.2217 940.195,-31.0483"/>
</g>
<!-- Node6 -->
<g id="node13" class="node"><title>Node6</title>
<polygon fill="white" stroke="#bfbfbf" points="868.5,-174.5 868.5,-195.5 945.5,-195.5 945.5,-174.5 868.5,-174.5"/>
<text text-anchor="middle" x="907" y="-182.5" font-family="Helvetica,sans-Serif" font-size="10.00">PGContext.h</text>
</g>
<!-- Node5&#45;&gt;Node6 -->
<g id="edge14" class="edge"><title>Node5&#45;&gt;Node6</title>
<path fill="none" stroke="midnightblue" d="M610.683,-237.894C662.939,-230.247 763.555,-214.883 858.283,-196.258"/>
<polygon fill="midnightblue" stroke="midnightblue" points="859.187,-199.647 868.316,-194.269 857.826,-192.781 859.187,-199.647"/>
</g>
<!-- Node7 -->
<g id="node15" class="node"><title>Node7</title>
<polygon fill="white" stroke="#bfbfbf" points="311,-174.5 311,-195.5 379,-195.5 379,-174.5 311,-174.5"/>
<text text-anchor="middle" x="345" y="-182.5" font-family="Helvetica,sans-Serif" font-size="10.00">PContext.h</text>
</g>
<!-- Node5&#45;&gt;Node7 -->
<g id="edge16" class="edge"><title>Node5&#45;&gt;Node7</title>
<path fill="none" stroke="midnightblue" d="M539.488,-234.122C503.848,-225.201 447.111,-210.971 388.982,-196.243"/>
<polygon fill="midnightblue" stroke="midnightblue" points="389.818,-192.844 379.264,-193.779 388.097,-199.629 389.818,-192.844"/>
</g>
<!-- Node8 -->
<g id="node17" class="node"><title>Node8</title>
<polygon fill="white" stroke="#bfbfbf" points="397,-174.5 397,-195.5 463,-195.5 463,-174.5 397,-174.5"/>
<text text-anchor="middle" x="430" y="-182.5" font-family="Helvetica,sans-Serif" font-size="10.00">PPixmap.h</text>
</g>
<!-- Node5&#45;&gt;Node8 -->
<g id="edge18" class="edge"><title>Node5&#45;&gt;Node8</title>
<path fill="none" stroke="midnightblue" d="M548.742,-232.497C525.584,-223.234 491.625,-209.65 465.948,-199.379"/>
<polygon fill="midnightblue" stroke="midnightblue" points="467.138,-196.086 456.553,-195.621 464.538,-202.585 467.138,-196.086"/>
</g>
<!-- Node9 -->
<g id="node19" class="node"><title>Node9</title>
<a xlink:href="TaskBase_8h.htm" target="_top" xlink:title="TaskBase.h">
<polygon fill="white" stroke="black" points="481,-174.5 481,-195.5 553,-195.5 553,-174.5 481,-174.5"/>
<text text-anchor="middle" x="517" y="-182.5" font-family="Helvetica,sans-Serif" font-size="10.00">TaskBase.h</text>
</a>
</g>
<!-- Node5&#45;&gt;Node9 -->
<g id="edge20" class="edge"><title>Node5&#45;&gt;Node9</title>
<path fill="none" stroke="midnightblue" d="M564.362,-232.362C556.104,-224.104 544.472,-212.472 534.803,-202.803"/>
<polygon fill="midnightblue" stroke="midnightblue" points="537.117,-200.167 527.571,-195.571 532.167,-205.117 537.117,-200.167"/>
</g>
<!-- Node20 -->
<g id="node49" class="node"><title>Node20</title>
<a xlink:href="Mutex_8h.htm" target="_top" xlink:title="Mutex.h">
<polygon fill="white" stroke="black" points="265.5,-116.5 265.5,-137.5 318.5,-137.5 318.5,-116.5 265.5,-116.5"/>
<text text-anchor="middle" x="292" y="-124.5" font-family="Helvetica,sans-Serif" font-size="10.00">Mutex.h</text>
</a>
</g>
<!-- Node5&#45;&gt;Node20 -->
<g id="edge74" class="edge"><title>Node5&#45;&gt;Node20</title>
<path fill="none" stroke="midnightblue" d="M539.42,-241.903C473.102,-239.079 334.378,-229.25 302,-196 289.769,-183.439 288.177,-163.003 289.101,-147.625"/>
<polygon fill="midnightblue" stroke="midnightblue" points="292.6,-147.802 290.102,-137.506 285.634,-147.113 292.6,-147.802"/>
</g>
<!-- Node5&#45;&gt;Node22 -->
<g id="edge76" class="edge"><title>Node5&#45;&gt;Node22</title>
<path fill="none" stroke="midnightblue" d="M539.173,-237.699C470.751,-227.575 321.022,-205.422 239.171,-193.311"/>
<polygon fill="midnightblue" stroke="midnightblue" points="239.457,-189.815 229.053,-191.814 238.433,-196.74 239.457,-189.815"/>
</g>
<!-- Node24 -->
<g id="node65" class="node"><title>Node24</title>
<a xlink:href="InputControl_8h.htm" target="_top" xlink:title="InputControl.h">
<polygon fill="white" stroke="black" points="962.5,-174.5 962.5,-195.5 1045.5,-195.5 1045.5,-174.5 962.5,-174.5"/>
<text text-anchor="middle" x="1004" y="-182.5" font-family="Helvetica,sans-Serif" font-size="10.00">InputControl.h</text>
</a>
</g>
<!-- Node5&#45;&gt;Node24 -->
<g id="edge82" class="edge"><title>Node5&#45;&gt;Node24</title>
<path fill="none" stroke="midnightblue" d="M610.694,-239.694C676.368,-233.369 820.947,-218.323 952.094,-196.217"/>
<polygon fill="midnightblue" stroke="midnightblue" points="953.045,-199.606 962.315,-194.475 951.869,-192.705 953.045,-199.606"/>
</g>
<!-- Node26 -->
<g id="node69" class="node"><title>Node26</title>
<polygon fill="white" stroke="#bfbfbf" points="570.5,-174.5 570.5,-195.5 695.5,-195.5 695.5,-174.5 570.5,-174.5"/>
<text text-anchor="middle" x="633" y="-182.5" font-family="Helvetica,sans-Serif" font-size="10.00">webosDeviceKeymap.h</text>
</g>
<!-- Node5&#45;&gt;Node26 -->
<g id="edge86" class="edge"><title>Node5&#45;&gt;Node26</title>
<path fill="none" stroke="midnightblue" d="M585.638,-232.362C593.896,-224.104 605.528,-212.472 615.197,-202.803"/>
<polygon fill="midnightblue" stroke="midnightblue" points="617.833,-205.117 622.429,-195.571 612.883,-200.167 617.833,-205.117"/>
</g>
<!-- Node27 -->
<g id="node71" class="node"><title>Node27</title>
<polygon fill="white" stroke="#bfbfbf" points="750.5,-174.5 750.5,-195.5 779.5,-195.5 779.5,-174.5 750.5,-174.5"/>
<text text-anchor="middle" x="765" y="-182.5" font-family="Helvetica,sans-Serif" font-size="10.00">Qt</text>
</g>
<!-- Node5&#45;&gt;Node27 -->
<g id="edge88" class="edge"><title>Node5&#45;&gt;Node27</title>
<path fill="none" stroke="midnightblue" d="M610.687,-233.661C643.709,-224.78 694.034,-210.638 737,-196 738.224,-195.583 739.472,-195.144 740.73,-194.691"/>
<polygon fill="midnightblue" stroke="midnightblue" points="742.158,-197.893 750.272,-191.079 739.68,-191.346 742.158,-197.893"/>
</g>
<!-- Node28 -->
<g id="node73" class="node"><title>Node28</title>
<polygon fill="white" stroke="#bfbfbf" points="797,-174.5 797,-195.5 851,-195.5 851,-174.5 797,-174.5"/>
<text text-anchor="middle" x="824" y="-182.5" font-family="Helvetica,sans-Serif" font-size="10.00">QImage</text>
</g>
<!-- Node5&#45;&gt;Node28 -->
<g id="edge90" class="edge"><title>Node5&#45;&gt;Node28</title>
<path fill="none" stroke="midnightblue" d="M610.633,-236.038C651.111,-227.932 719.325,-213.676 786.967,-196.132"/>
<polygon fill="midnightblue" stroke="midnightblue" points="788.152,-199.44 796.939,-193.52 786.378,-192.668 788.152,-199.44"/>
</g>
<!-- Node9&#45;&gt;Node2 -->
<g id="edge22" class="edge"><title>Node9&#45;&gt;Node2</title>
<path fill="none" stroke="midnightblue" d="M553.264,-175.707C556.21,-175.083 559.149,-174.504 562,-174 633.773,-161.32 829.724,-181.773 888,-138 921.353,-112.948 930.075,-61.1719 932.297,-32.0601"/>
<polygon fill="midnightblue" stroke="midnightblue" points="935.808,-31.9629 932.881,-21.7805 928.82,-31.566 935.808,-31.9629"/>
</g>
<!-- Node10 -->
<g id="node22" class="node"><title>Node10</title>
<polygon fill="white" stroke="#bfbfbf" points="262.5,-0.5 262.5,-21.5 303.5,-21.5 303.5,-0.5 262.5,-0.5"/>
<text text-anchor="middle" x="283" y="-8.5" font-family="Helvetica,sans-Serif" font-size="10.00">glib.h</text>
</g>
<!-- Node9&#45;&gt;Node10 -->
<g id="edge24" class="edge"><title>Node9&#45;&gt;Node10</title>
<path fill="none" stroke="midnightblue" d="M480.703,-175.884C477.764,-175.22 474.836,-174.583 472,-174 333.06,-145.427 234.902,-204.539 167,-80 146.93,-43.1895 211.58,-24.1283 252.329,-15.9874"/>
<polygon fill="midnightblue" stroke="midnightblue" points="253.173,-19.3902 262.355,-14.1051 251.881,-12.5104 253.173,-19.3902"/>
</g>
<!-- Node11 -->
<g id="node24" class="node"><title>Node11</title>
<polygon fill="white" stroke="#bfbfbf" points="500.5,-116.5 500.5,-137.5 529.5,-137.5 529.5,-116.5 500.5,-116.5"/>
<text text-anchor="middle" x="515" y="-124.5" font-family="Helvetica,sans-Serif" font-size="10.00">list</text>
</g>
<!-- Node9&#45;&gt;Node11 -->
<g id="edge26" class="edge"><title>Node9&#45;&gt;Node11</title>
<path fill="none" stroke="midnightblue" d="M516.633,-174.362C516.377,-166.922 516.026,-156.743 515.715,-147.728"/>
<polygon fill="midnightblue" stroke="midnightblue" points="519.207,-147.444 515.365,-137.571 512.211,-147.685 519.207,-147.444"/>
</g>
<!-- Node12 -->
<g id="node26" class="node"><title>Node12</title>
<a xlink:href="sptr_8h.htm" target="_top" xlink:title="sptr.h">
<polygon fill="white" stroke="black" points="319.5,-58.5 319.5,-79.5 362.5,-79.5 362.5,-58.5 319.5,-58.5"/>
<text text-anchor="middle" x="341" y="-66.5" font-family="Helvetica,sans-Serif" font-size="10.00">sptr.h</text>
</a>
</g>
<!-- Node9&#45;&gt;Node12 -->
<g id="edge28" class="edge"><title>Node9&#45;&gt;Node12</title>
<path fill="none" stroke="midnightblue" d="M500.758,-174.295C469.77,-153.871 402.051,-109.238 365.522,-85.1624"/>
<polygon fill="midnightblue" stroke="midnightblue" points="367.224,-82.0925 356.949,-79.5117 363.372,-87.9372 367.224,-82.0925"/>
</g>
<!-- Node13 -->
<g id="node30" class="node"><title>Node13</title>
<a xlink:href="AsyncCaller_8h.htm" target="_top" xlink:title="AsyncCaller.h">
<polygon fill="white" stroke="black" points="183.5,-58.5 183.5,-79.5 264.5,-79.5 264.5,-58.5 183.5,-58.5"/>
<text text-anchor="middle" x="224" y="-66.5" font-family="Helvetica,sans-Serif" font-size="10.00">AsyncCaller.h</text>
</a>
</g>
<!-- Node9&#45;&gt;Node13 -->
<g id="edge34" class="edge"><title>Node9&#45;&gt;Node13</title>
<path fill="none" stroke="midnightblue" d="M490.221,-174.398C437.362,-153.471 319.581,-106.841 259.999,-83.2521"/>
<polygon fill="midnightblue" stroke="midnightblue" points="261.197,-79.962 250.61,-79.5352 258.62,-86.4705 261.197,-79.962"/>
</g>
<!-- Node14 -->
<g id="node34" class="node"><title>Node14</title>
<a xlink:href="Event_8h.htm" target="_top" xlink:title="Event.h">
<polygon fill="white" stroke="black" points="547,-116.5 547,-137.5 599,-137.5 599,-116.5 547,-116.5"/>
<text text-anchor="middle" x="573" y="-124.5" font-family="Helvetica,sans-Serif" font-size="10.00">Event.h</text>
</a>
</g>
<!-- Node9&#45;&gt;Node14 -->
<g id="edge40" class="edge"><title>Node9&#45;&gt;Node14</title>
<path fill="none" stroke="midnightblue" d="M527.271,-174.362C535.244,-166.104 546.475,-154.472 555.811,-144.803"/>
<polygon fill="midnightblue" stroke="midnightblue" points="558.366,-147.196 562.794,-137.571 553.33,-142.334 558.366,-147.196"/>
</g>
<!-- Node9&#45;&gt;Node20 -->
<g id="edge58" class="edge"><title>Node9&#45;&gt;Node20</title>
<path fill="none" stroke="midnightblue" d="M480.85,-175.681C438.962,-164.884 370.336,-147.193 328.36,-136.373"/>
<polygon fill="midnightblue" stroke="midnightblue" points="329.107,-132.951 318.55,-133.844 327.36,-139.729 329.107,-132.951"/>
</g>
<!-- Node21 -->
<g id="node54" class="node"><title>Node21</title>
<a xlink:href="SingletonTimer_8h.htm" target="_top" xlink:title="SingletonTimer.h">
<polygon fill="white" stroke="black" points="783,-116.5 783,-137.5 879,-137.5 879,-116.5 783,-116.5"/>
<text text-anchor="middle" x="831" y="-124.5" font-family="Helvetica,sans-Serif" font-size="10.00">SingletonTimer.h</text>
</a>
</g>
<!-- Node9&#45;&gt;Node21 -->
<g id="edge66" class="edge"><title>Node9&#45;&gt;Node21</title>
<path fill="none" stroke="midnightblue" d="M553.302,-175.906C556.239,-175.237 559.166,-174.593 562,-174 634.147,-158.897 717.883,-144.803 772.518,-136.063"/>
<polygon fill="midnightblue" stroke="midnightblue" points="773.383,-139.469 782.708,-134.441 772.282,-132.556 773.383,-139.469"/>
</g>
<!-- Node12&#45;&gt;Node2 -->
<g id="edge30" class="edge"><title>Node12&#45;&gt;Node2</title>
<path fill="none" stroke="midnightblue" d="M362.687,-65.0894C376.014,-62.7865 393.456,-59.9519 409,-58 586.399,-35.7241 798.878,-20.0344 889.066,-13.8831"/>
<polygon fill="midnightblue" stroke="midnightblue" points="889.453,-17.365 899.194,-13.1974 888.981,-10.3809 889.453,-17.365"/>
</g>
<!-- Node12&#45;&gt;Node10 -->
<g id="edge32" class="edge"><title>Node12&#45;&gt;Node10</title>
<path fill="none" stroke="midnightblue" d="M330.362,-58.3619C322.104,-50.1043 310.472,-38.4725 300.803,-28.8029"/>
<polygon fill="midnightblue" stroke="midnightblue" points="303.117,-26.1669 293.571,-21.5707 298.167,-31.1166 303.117,-26.1669"/>
</g>
<!-- Node13&#45;&gt;Node2 -->
<g id="edge36" class="edge"><title>Node13&#45;&gt;Node2</title>
<path fill="none" stroke="midnightblue" d="M264.594,-60.145C269.103,-59.3362 273.64,-58.598 278,-58 506.774,-26.625 783.557,-15.4761 889.173,-12.188"/>
<polygon fill="midnightblue" stroke="midnightblue" points="889.551,-15.6783 899.441,-11.8766 889.339,-8.68149 889.551,-15.6783"/>
</g>
<!-- Node13&#45;&gt;Node10 -->
<g id="edge38" class="edge"><title>Node13&#45;&gt;Node10</title>
<path fill="none" stroke="midnightblue" d="M234.822,-58.3619C243.221,-50.1043 255.054,-38.4725 264.89,-28.8029"/>
<polygon fill="midnightblue" stroke="midnightblue" points="267.569,-31.077 272.247,-21.5707 262.662,-26.0851 267.569,-31.077"/>
</g>
<!-- Node14&#45;&gt;Node2 -->
<g id="edge42" class="edge"><title>Node14&#45;&gt;Node2</title>
<path fill="none" stroke="midnightblue" d="M599.051,-122.387C634.369,-115.629 699.003,-101.463 751,-80 769.039,-72.554 771.182,-65.96 789,-58 821.755,-43.3671 860.491,-30.9833 889.533,-22.6067"/>
<polygon fill="midnightblue" stroke="midnightblue" points="890.71,-25.9108 899.375,-19.8138 888.799,-19.1766 890.71,-25.9108"/>
</g>
<!-- Node14&#45;&gt;Node10 -->
<g id="edge46" class="edge"><title>Node14&#45;&gt;Node10</title>
<path fill="none" stroke="midnightblue" d="M546.655,-118.62C543.739,-117.722 540.809,-116.833 538,-116 480.933,-99.0743 463.861,-103.096 409,-80 391.014,-72.428 388.054,-67.4871 371,-58 351.588,-47.2012 329.54,-35.4263 312.369,-26.3636"/>
<polygon fill="midnightblue" stroke="midnightblue" points="313.858,-23.1923 303.379,-21.6313 310.598,-29.3865 313.858,-23.1923"/>
</g>
<!-- Node14&#45;&gt;Node12 -->
<g id="edge56" class="edge"><title>Node14&#45;&gt;Node12</title>
<path fill="none" stroke="midnightblue" d="M546.698,-118.468C543.773,-117.598 540.83,-116.758 538,-116 466.753,-96.9254 447.247,-99.0746 376,-80 374.923,-79.7117 373.83,-79.4115 372.728,-79.1022"/>
<polygon fill="midnightblue" stroke="midnightblue" points="373.342,-75.634 362.76,-76.1563 371.358,-82.347 373.342,-75.634"/>
</g>
<!-- Node15 -->
<g id="node37" class="node"><title>Node15</title>
<polygon fill="white" stroke="#bfbfbf" points="798,-58.5 798,-79.5 848,-79.5 848,-58.5 798,-58.5"/>
<text text-anchor="middle" x="823" y="-66.5" font-family="Helvetica,sans-Serif" font-size="10.00">stdint.h</text>
</g>
<!-- Node14&#45;&gt;Node15 -->
<g id="edge44" class="edge"><title>Node14&#45;&gt;Node15</title>
<path fill="none" stroke="midnightblue" d="M599.097,-121.676C639.064,-113.412 717.77,-96.7028 784,-80 785.266,-79.6807 786.554,-79.3498 787.853,-79.0108"/>
<polygon fill="midnightblue" stroke="midnightblue" points="789.136,-82.29 797.88,-76.3073 787.314,-75.5313 789.136,-82.29"/>
</g>
<!-- Node16 -->
<g id="node40" class="node"><title>Node16</title>
<polygon fill="white" stroke="#bfbfbf" points="523.5,-58.5 523.5,-79.5 570.5,-79.5 570.5,-58.5 523.5,-58.5"/>
<text text-anchor="middle" x="547" y="-66.5" font-family="Helvetica,sans-Serif" font-size="10.00">stdio.h</text>
</g>
<!-- Node14&#45;&gt;Node16 -->
<g id="edge48" class="edge"><title>Node14&#45;&gt;Node16</title>
<path fill="none" stroke="midnightblue" d="M568.231,-116.362C564.786,-108.677 560.031,-98.0686 555.894,-88.8399"/>
<polygon fill="midnightblue" stroke="midnightblue" points="559.023,-87.264 551.739,-79.5707 552.635,-90.1275 559.023,-87.264"/>
</g>
<!-- Node17 -->
<g id="node42" class="node"><title>Node17</title>
<polygon fill="white" stroke="#bfbfbf" points="587.5,-58.5 587.5,-79.5 638.5,-79.5 638.5,-58.5 587.5,-58.5"/>
<text text-anchor="middle" x="613" y="-66.5" font-family="Helvetica,sans-Serif" font-size="10.00">string.h</text>
</g>
<!-- Node14&#45;&gt;Node17 -->
<g id="edge50" class="edge"><title>Node14&#45;&gt;Node17</title>
<path fill="none" stroke="midnightblue" d="M580.337,-116.362C585.806,-108.431 593.422,-97.3885 599.924,-87.9606"/>
<polygon fill="midnightblue" stroke="midnightblue" points="602.914,-89.7899 605.71,-79.5707 597.151,-85.8157 602.914,-89.7899"/>
</g>
<!-- Node18 -->
<g id="node44" class="node"><title>Node18</title>
<polygon fill="white" stroke="#bfbfbf" points="656,-58.5 656,-79.5 742,-79.5 742,-58.5 656,-58.5"/>
<text text-anchor="middle" x="699" y="-66.5" font-family="Helvetica,sans-Serif" font-size="10.00">qnamespace.h</text>
</g>
<!-- Node14&#45;&gt;Node18 -->
<g id="edge52" class="edge"><title>Node14&#45;&gt;Node18</title>
<path fill="none" stroke="midnightblue" d="M595.818,-116.497C615.586,-107.397 644.413,-94.1273 666.576,-83.9253"/>
<polygon fill="midnightblue" stroke="midnightblue" points="668.306,-86.982 675.926,-79.6212 665.379,-80.6234 668.306,-86.982"/>
</g>
<!-- Node19 -->
<g id="node46" class="node"><title>Node19</title>
<polygon fill="white" stroke="#bfbfbf" points="418,-58.5 418,-79.5 506,-79.5 506,-58.5 418,-58.5"/>
<text text-anchor="middle" x="462" y="-66.5" font-family="Helvetica,sans-Serif" font-size="10.00">SysMgrEvent.h</text>
</g>
<!-- Node14&#45;&gt;Node19 -->
<g id="edge54" class="edge"><title>Node14&#45;&gt;Node19</title>
<path fill="none" stroke="midnightblue" d="M552.899,-116.497C535.718,-107.519 510.77,-94.4835 491.355,-84.3387"/>
<polygon fill="midnightblue" stroke="midnightblue" points="492.811,-81.1503 482.327,-79.6212 489.569,-87.3544 492.811,-81.1503"/>
</g>
<!-- Node20&#45;&gt;Node2 -->
<g id="edge60" class="edge"><title>Node20&#45;&gt;Node2</title>
<path fill="none" stroke="midnightblue" d="M291.466,-116.384C291.329,-100.868 293.637,-72.2937 311,-58 355.415,-21.4353 754.654,-13.1894 889.064,-11.4428"/>
<polygon fill="midnightblue" stroke="midnightblue" points="889.433,-14.9386 899.389,-11.3147 889.346,-7.93909 889.433,-14.9386"/>
</g>
<!-- Node20&#45;&gt;Node10 -->
<g id="edge64" class="edge"><title>Node20&#45;&gt;Node10</title>
<path fill="none" stroke="midnightblue" d="M265.319,-124.676C237.467,-120.666 195.105,-109.742 175,-80 152.924,-47.3414 213.131,-26.8388 252.304,-17.3086"/>
<polygon fill="midnightblue" stroke="midnightblue" points="253.272,-20.6771 262.228,-15.0158 251.697,-13.8568 253.272,-20.6771"/>
</g>
<!-- Node20&#45;&gt;Node12 -->
<g id="edge62" class="edge"><title>Node20&#45;&gt;Node12</title>
<path fill="none" stroke="midnightblue" d="M300.987,-116.362C307.825,-108.268 317.402,-96.9318 325.472,-87.3796"/>
<polygon fill="midnightblue" stroke="midnightblue" points="328.29,-89.4683 332.07,-79.5707 322.942,-84.9508 328.29,-89.4683"/>
</g>
<!-- Node21&#45;&gt;Node2 -->
<g id="edge68" class="edge"><title>Node21&#45;&gt;Node2</title>
<path fill="none" stroke="midnightblue" d="M847.274,-116.332C859.88,-107.556 877.282,-94.2768 890,-80 903.426,-64.9284 915.27,-45.1647 923.11,-30.6537"/>
<polygon fill="midnightblue" stroke="midnightblue" points="926.329,-32.0514 927.868,-21.5689 920.128,-28.8035 926.329,-32.0514"/>
</g>
<!-- Node21&#45;&gt;Node10 -->
<g id="edge70" class="edge"><title>Node21&#45;&gt;Node10</title>
<path fill="none" stroke="midnightblue" d="M841.071,-116.354C853.839,-101.57 872.441,-74.757 857,-58 838.418,-37.8345 430.08,-17.7122 313.703,-12.3708"/>
<polygon fill="midnightblue" stroke="midnightblue" points="313.826,-8.87287 303.678,-11.9142 313.508,-15.8656 313.826,-8.87287"/>
</g>
<!-- Node21&#45;&gt;Node15 -->
<g id="edge72" class="edge"><title>Node21&#45;&gt;Node15</title>
<path fill="none" stroke="midnightblue" d="M829.533,-116.362C828.506,-108.922 827.102,-98.7427 825.859,-89.7276"/>
<polygon fill="midnightblue" stroke="midnightblue" points="829.292,-88.9986 824.458,-79.5707 822.357,-89.9551 829.292,-88.9986"/>
</g>
<!-- Node22&#45;&gt;Node2 -->
<g id="edge78" class="edge"><title>Node22&#45;&gt;Node2</title>
<path fill="none" stroke="midnightblue" d="M177.84,-174.413C166.864,-150.195 144.588,-90.3565 175,-58 199.578,-31.8504 730.74,-16.1818 888.93,-12.083"/>
<polygon fill="midnightblue" stroke="midnightblue" points="889.326,-15.5741 899.233,-11.8188 889.146,-8.57643 889.326,-15.5741"/>
</g>
<!-- Node23 -->
<g id="node63" class="node"><title>Node23</title>
<polygon fill="white" stroke="#bfbfbf" points="0,-116.5 0,-137.5 52,-137.5 52,-116.5 0,-116.5"/>
<text text-anchor="middle" x="26" y="-124.5" font-family="Helvetica,sans-Serif" font-size="10.00">QEvent</text>
</g>
<!-- Node22&#45;&gt;Node23 -->
<g id="edge80" class="edge"><title>Node22&#45;&gt;Node23</title>
<path fill="none" stroke="midnightblue" d="M154.568,-174.497C128.483,-164.86 89.7393,-150.547 61.6044,-140.153"/>
<polygon fill="midnightblue" stroke="midnightblue" points="62.7266,-136.837 52.1333,-136.654 60.3008,-143.403 62.7266,-136.837"/>
</g>
<!-- Node25 -->
<g id="node67" class="node"><title>Node25</title>
<polygon fill="white" stroke="#bfbfbf" points="989,-116.5 989,-137.5 1045,-137.5 1045,-116.5 989,-116.5"/>
<text text-anchor="middle" x="1017" y="-124.5" font-family="Helvetica,sans-Serif" font-size="10.00">hal/hal.h</text>
</g>
<!-- Node24&#45;&gt;Node25 -->
<g id="edge84" class="edge"><title>Node24&#45;&gt;Node25</title>
<path fill="none" stroke="midnightblue" d="M1006.38,-174.362C1008.07,-166.84 1010.38,-156.519 1012.42,-147.431"/>
<polygon fill="midnightblue" stroke="midnightblue" points="1015.86,-148.094 1014.63,-137.571 1009.03,-146.563 1015.86,-148.094"/>
</g>
<!-- Node38&#45;&gt;Node2 -->
<g id="edge116" class="edge"><title>Node38&#45;&gt;Node2</title>
<path fill="none" stroke="midnightblue" d="M1404.96,-290.41C1385.12,-283.057 1361.62,-271.399 1346,-254 1324.21,-229.728 1321,-217.617 1321,-185 1321,-185 1321,-185 1321,-127 1321,-55.8705 1078.61,-24.7141 976.996,-14.7778"/>
<polygon fill="midnightblue" stroke="midnightblue" points="977.041,-11.2663 966.754,-13.8018 976.377,-18.2347 977.041,-11.2663"/>
</g>
<!-- Node38&#45;&gt;Node37 -->
<g id="edge122" class="edge"><title>Node38&#45;&gt;Node37</title>
<path fill="none" stroke="midnightblue" d="M1405.6,-290.497C1372.41,-280.918 1323.2,-266.72 1287.24,-256.342"/>
<polygon fill="midnightblue" stroke="midnightblue" points="1288.05,-252.933 1277.47,-253.523 1286.11,-259.658 1288.05,-252.933"/>
</g>
<!-- Node39 -->
<g id="node98" class="node"><title>Node39</title>
<polygon fill="white" stroke="#bfbfbf" points="1355,-232.5 1355,-253.5 1417,-253.5 1417,-232.5 1355,-232.5"/>
<text text-anchor="middle" x="1386" y="-240.5" font-family="Helvetica,sans-Serif" font-size="10.00">QGesture</text>
</g>
<!-- Node38&#45;&gt;Node39 -->
<g id="edge118" class="edge"><title>Node38&#45;&gt;Node39</title>
<path fill="none" stroke="midnightblue" d="M1431.73,-290.362C1423.76,-282.104 1412.53,-270.472 1403.19,-260.803"/>
<polygon fill="midnightblue" stroke="midnightblue" points="1405.67,-258.334 1396.21,-253.571 1400.63,-263.196 1405.67,-258.334"/>
</g>
<!-- Node40 -->
<g id="node100" class="node"><title>Node40</title>
<polygon fill="white" stroke="#bfbfbf" points="1434.5,-232.5 1434.5,-253.5 1483.5,-253.5 1483.5,-232.5 1434.5,-232.5"/>
<text text-anchor="middle" x="1459" y="-240.5" font-family="Helvetica,sans-Serif" font-size="10.00">QPoint</text>
</g>
<!-- Node38&#45;&gt;Node40 -->
<g id="edge120" class="edge"><title>Node38&#45;&gt;Node40</title>
<path fill="none" stroke="midnightblue" d="M1445.12,-290.362C1447.32,-282.84 1450.35,-272.519 1453.01,-263.431"/>
<polygon fill="midnightblue" stroke="midnightblue" points="1456.45,-264.151 1455.9,-253.571 1449.73,-262.182 1456.45,-264.151"/>
</g>
<!-- Node41&#45;&gt;Node2 -->
<g id="edge126" class="edge"><title>Node41&#45;&gt;Node2</title>
<path fill="none" stroke="midnightblue" d="M1595.91,-290.392C1587.16,-281.449 1575.26,-267.914 1568,-254 1553.29,-225.796 1549,-216.808 1549,-185 1549,-185 1549,-185 1549,-127 1549,-94.5312 1550.7,-77.8466 1525,-58 1481.89,-24.7077 1106.6,-14.3536 976.884,-11.7531"/>
<polygon fill="midnightblue" stroke="midnightblue" points="976.605,-8.24716 966.539,-11.5519 976.469,-15.2458 976.605,-8.24716"/>
</g>
<!-- Node41&#45;&gt;Node40 -->
<g id="edge130" class="edge"><title>Node41&#45;&gt;Node40</title>
<path fill="none" stroke="midnightblue" d="M1580.2,-290.497C1555.82,-280.944 1519.72,-266.797 1493.26,-256.426"/>
<polygon fill="midnightblue" stroke="midnightblue" points="1494.22,-253.044 1483.64,-252.654 1491.67,-259.562 1494.22,-253.044"/>
</g>
<!-- Node42 -->
<g id="node106" class="node"><title>Node42</title>
<polygon fill="white" stroke="#bfbfbf" points="1577,-232.5 1577,-253.5 1693,-253.5 1693,-232.5 1577,-232.5"/>
<text text-anchor="middle" x="1635" y="-240.5" font-family="Helvetica,sans-Serif" font-size="10.00">QGestureRecognizer</text>
</g>
<!-- Node41&#45;&gt;Node42 -->
<g id="edge128" class="edge"><title>Node41&#45;&gt;Node42</title>
<path fill="none" stroke="midnightblue" d="M1612.14,-290.362C1615.85,-282.677 1620.97,-272.069 1625.42,-262.84"/>
<polygon fill="midnightblue" stroke="midnightblue" points="1628.7,-264.098 1629.9,-253.571 1622.4,-261.055 1628.7,-264.098"/>
</g>
<!-- Node43 -->
<g id="node109" class="node"><title>Node43</title>
<polygon fill="white" stroke="#bfbfbf" points="1711,-232.5 1711,-253.5 1767,-253.5 1767,-232.5 1711,-232.5"/>
<text text-anchor="middle" x="1739" y="-240.5" font-family="Helvetica,sans-Serif" font-size="10.00">QQueue</text>
</g>
<!-- Node41&#45;&gt;Node43 -->
<g id="edge132" class="edge"><title>Node41&#45;&gt;Node43</title>
<path fill="none" stroke="midnightblue" d="M1630.9,-290.497C1651.8,-281.315 1682.36,-267.889 1705.66,-257.652"/>
<polygon fill="midnightblue" stroke="midnightblue" points="1707.08,-260.848 1714.83,-253.621 1704.26,-254.44 1707.08,-260.848"/>
</g>
</g>
</svg>
