<?xml version="1.0" encoding="UTF-8" standalone="no"?>
<!DOCTYPE svg PUBLIC "-//W3C//DTD SVG 1.1//EN"
 "http://www.w3.org/Graphics/SVG/1.1/DTD/svg11.dtd">
<!-- Generated by graphviz version 2.26.3 (20100126.1600)
 -->
<!-- Title: G Pages: 1 -->
<svg width="2367pt" height="320pt"
 viewBox="0.00 0.00 2367.00 320.00" xmlns="http://www.w3.org/2000/svg" xmlns:xlink="http://www.w3.org/1999/xlink">
<g id="graph1" class="graph" transform="scale(1 1) rotate(0) translate(4 316)">
<title>G</title>
<polygon fill="white" stroke="white" points="-4,5 -4,-316 2364,-316 2364,5 -4,5"/>
<!-- Node1 -->
<g id="node1" class="node"><title>Node1</title>
<polygon fill="#bfbfbf" stroke="black" points="632,-290.5 632,-311.5 790,-311.5 790,-290.5 632,-290.5"/>
<text text-anchor="middle" x="711" y="-298.5" font-family="Helvetica,sans-Serif" font-size="10.00">HostWindowDataOpenGL.cpp</text>
</g>
<!-- Node2 -->
<g id="node3" class="node"><title>Node2</title>
<a xlink:href="Common_8h.htm" target="_top" xlink:title="Common.h">
<polygon fill="white" stroke="black" points="790.5,-0.5 790.5,-21.5 857.5,-21.5 857.5,-0.5 790.5,-0.5"/>
<text text-anchor="middle" x="824" y="-8.5" font-family="Helvetica,sans-Serif" font-size="10.00">Common.h</text>
</a>
</g>
<!-- Node1&#45;&gt;Node2 -->
<g id="edge2" class="edge"><title>Node1&#45;&gt;Node2</title>
<path fill="none" stroke="midnightblue" d="M647.758,-290.484C536.782,-270.574 321.957,-224.792 358,-174 408.583,-102.718 674.359,-41.5544 780.327,-19.6323"/>
<polygon fill="midnightblue" stroke="midnightblue" points="781.275,-23.011 790.368,-17.5739 779.869,-16.1536 781.275,-23.011"/>
</g>
<!-- Node3 -->
<g id="node5" class="node"><title>Node3</title>
<a xlink:href="HostWindowDataOpenGL_8h.htm" target="_top" xlink:title="HostWindowDataOpenGL.h">
<polygon fill="white" stroke="black" points="164.5,-174.5 164.5,-195.5 311.5,-195.5 311.5,-174.5 164.5,-174.5"/>
<text text-anchor="middle" x="238" y="-182.5" font-family="Helvetica,sans-Serif" font-size="10.00">HostWindowDataOpenGL.h</text>
</a>
</g>
<!-- Node1&#45;&gt;Node3 -->
<g id="edge4" class="edge"><title>Node1&#45;&gt;Node3</title>
<path fill="none" stroke="midnightblue" d="M631.738,-296.427C535.308,-289.986 378.724,-276.451 325,-254 297.18,-242.374 270.879,-219.198 254.625,-202.925"/>
<polygon fill="midnightblue" stroke="midnightblue" points="256.966,-200.312 247.491,-195.572 251.942,-205.186 256.966,-200.312"/>
</g>
<!-- Node9 -->
<g id="node21" class="node"><title>Node9</title>
<polygon fill="white" stroke="#bfbfbf" points="588,-232.5 588,-253.5 664,-253.5 664,-232.5 588,-232.5"/>
<text text-anchor="middle" x="626" y="-240.5" font-family="Helvetica,sans-Serif" font-size="10.00">QGLContext</text>
</g>
<!-- Node1&#45;&gt;Node9 -->
<g id="edge24" class="edge"><title>Node1&#45;&gt;Node9</title>
<path fill="none" stroke="midnightblue" d="M695.41,-290.362C682.709,-281.696 664.562,-269.313 650.008,-259.382"/>
<polygon fill="midnightblue" stroke="midnightblue" points="651.724,-256.316 641.491,-253.571 647.779,-262.098 651.724,-256.316"/>
</g>
<!-- Node10 -->
<g id="node23" class="node"><title>Node10</title>
<polygon fill="white" stroke="#bfbfbf" points="681.5,-232.5 681.5,-253.5 740.5,-253.5 740.5,-232.5 681.5,-232.5"/>
<text text-anchor="middle" x="711" y="-240.5" font-family="Helvetica,sans-Serif" font-size="10.00">QPainter</text>
</g>
<!-- Node1&#45;&gt;Node10 -->
<g id="edge26" class="edge"><title>Node1&#45;&gt;Node10</title>
<path fill="none" stroke="midnightblue" d="M711,-290.362C711,-282.922 711,-272.743 711,-263.728"/>
<polygon fill="midnightblue" stroke="midnightblue" points="714.5,-263.571 711,-253.571 707.5,-263.571 714.5,-263.571"/>
</g>
<!-- Node11 -->
<g id="node25" class="node"><title>Node11</title>
<a xlink:href="HostBase_8h.htm" target="_top" xlink:title="HostBase.h">
<polygon fill="white" stroke="black" points="757.5,-232.5 757.5,-253.5 828.5,-253.5 828.5,-232.5 757.5,-232.5"/>
<text text-anchor="middle" x="793" y="-240.5" font-family="Helvetica,sans-Serif" font-size="10.00">HostBase.h</text>
</a>
</g>
<!-- Node1&#45;&gt;Node11 -->
<g id="edge28" class="edge"><title>Node1&#45;&gt;Node11</title>
<path fill="none" stroke="midnightblue" d="M726.04,-290.362C738.293,-281.696 755.799,-269.313 769.839,-259.382"/>
<polygon fill="midnightblue" stroke="midnightblue" points="771.912,-262.203 778.055,-253.571 767.87,-256.488 771.912,-262.203"/>
</g>
<!-- Node35 -->
<g id="node90" class="node"><title>Node35</title>
<a xlink:href="Logging_8h.htm" target="_top" xlink:title="Logging.h">
<polygon fill="white" stroke="black" points="1547.5,-116.5 1547.5,-137.5 1610.5,-137.5 1610.5,-116.5 1547.5,-116.5"/>
<text text-anchor="middle" x="1579" y="-124.5" font-family="Helvetica,sans-Serif" font-size="10.00">Logging.h</text>
</a>
</g>
<!-- Node1&#45;&gt;Node35 -->
<g id="edge110" class="edge"><title>Node1&#45;&gt;Node35</title>
<path fill="none" stroke="midnightblue" d="M763.666,-290.442C922.409,-258.621 1394.1,-164.065 1537.31,-135.357"/>
<polygon fill="midnightblue" stroke="midnightblue" points="1538.32,-138.725 1547.43,-133.328 1536.94,-131.862 1538.32,-138.725"/>
</g>
<!-- Node37 -->
<g id="node97" class="node"><title>Node37</title>
<a xlink:href="WebAppMgrProxy_8h.htm" target="_top" xlink:title="WebAppMgrProxy.h">
<polygon fill="white" stroke="black" points="1646,-174.5 1646,-195.5 1756,-195.5 1756,-174.5 1646,-174.5"/>
<text text-anchor="middle" x="1701" y="-182.5" font-family="Helvetica,sans-Serif" font-size="10.00">WebAppMgrProxy.h</text>
</a>
</g>
<!-- Node1&#45;&gt;Node37 -->
<g id="edge120" class="edge"><title>Node1&#45;&gt;Node37</title>
<path fill="none" stroke="midnightblue" d="M790.258,-299.845C919.909,-297.017 1185.13,-287.299 1407,-254 1495.77,-240.676 1597.31,-214.309 1654.83,-198.307"/>
<polygon fill="midnightblue" stroke="midnightblue" points="1656.02,-201.609 1664.7,-195.541 1654.13,-194.868 1656.02,-201.609"/>
</g>
<!-- Node3&#45;&gt;Node2 -->
<g id="edge6" class="edge"><title>Node3&#45;&gt;Node2</title>
<path fill="none" stroke="midnightblue" d="M256.215,-174.393C269.776,-165.839 288.097,-152.82 301,-138 327.645,-107.395 311.122,-80.3357 345,-58 380.903,-34.3295 668.804,-18.3357 780.204,-12.9786"/>
<polygon fill="midnightblue" stroke="midnightblue" points="780.597,-16.464 790.419,-12.4935 780.264,-9.47188 780.597,-16.464"/>
</g>
<!-- Node4 -->
<g id="node8" class="node"><title>Node4</title>
<a xlink:href="HostWindowDataSoftware_8h.htm" target="_top" xlink:title="HostWindowDataSoftware.h">
<polygon fill="white" stroke="black" points="143.5,-116.5 143.5,-137.5 292.5,-137.5 292.5,-116.5 143.5,-116.5"/>
<text text-anchor="middle" x="218" y="-124.5" font-family="Helvetica,sans-Serif" font-size="10.00">HostWindowDataSoftware.h</text>
</a>
</g>
<!-- Node3&#45;&gt;Node4 -->
<g id="edge8" class="edge"><title>Node3&#45;&gt;Node4</title>
<path fill="none" stroke="midnightblue" d="M234.332,-174.362C231.71,-166.758 228.101,-156.294 224.943,-147.135"/>
<polygon fill="midnightblue" stroke="midnightblue" points="228.214,-145.883 221.645,-137.571 221.596,-148.165 228.214,-145.883"/>
</g>
<!-- Node4&#45;&gt;Node2 -->
<g id="edge10" class="edge"><title>Node4&#45;&gt;Node2</title>
<path fill="none" stroke="midnightblue" d="M227.711,-116.304C242.875,-100.411 273.891,-71.0355 307,-58 392.724,-24.2495 671.254,-14.4305 779.968,-11.8444"/>
<polygon fill="midnightblue" stroke="midnightblue" points="780.332,-15.337 790.25,-11.6095 780.172,-8.33887 780.332,-15.337"/>
</g>
<!-- Node5 -->
<g id="node11" class="node"><title>Node5</title>
<a xlink:href="HostWindowData_8h.htm" target="_top" xlink:title="HostWindowData.h">
<polygon fill="white" stroke="black" points="56.5,-58.5 56.5,-79.5 163.5,-79.5 163.5,-58.5 56.5,-58.5"/>
<text text-anchor="middle" x="110" y="-66.5" font-family="Helvetica,sans-Serif" font-size="10.00">HostWindowData.h</text>
</a>
</g>
<!-- Node4&#45;&gt;Node5 -->
<g id="edge12" class="edge"><title>Node4&#45;&gt;Node5</title>
<path fill="none" stroke="midnightblue" d="M198.442,-116.497C181.802,-107.56 157.673,-94.602 138.82,-84.4772"/>
<polygon fill="midnightblue" stroke="midnightblue" points="140.243,-81.2691 129.777,-79.6212 136.931,-87.436 140.243,-81.2691"/>
</g>
<!-- Node6 -->
<g id="node14" class="node"><title>Node6</title>
<polygon fill="white" stroke="#bfbfbf" points="-0.5,-0.5 -0.5,-21.5 58.5,-21.5 58.5,-0.5 -0.5,-0.5"/>
<text text-anchor="middle" x="29" y="-8.5" font-family="Helvetica,sans-Serif" font-size="10.00">QPixmap</text>
</g>
<!-- Node4&#45;&gt;Node6 -->
<g id="edge20" class="edge"><title>Node4&#45;&gt;Node6</title>
<path fill="none" stroke="midnightblue" d="M156.031,-116.49C113.99,-108.16 63.3653,-95.3811 48,-80 35.3515,-67.3385 30.9214,-47.0811 29.4658,-31.784"/>
<polygon fill="midnightblue" stroke="midnightblue" points="32.9534,-31.4721 28.8566,-21.7014 25.9662,-31.8944 32.9534,-31.4721"/>
</g>
<!-- Node8 -->
<g id="node19" class="node"><title>Node8</title>
<polygon fill="white" stroke="#bfbfbf" points="181,-58.5 181,-79.5 255,-79.5 255,-58.5 181,-58.5"/>
<text text-anchor="middle" x="218" y="-66.5" font-family="Helvetica,sans-Serif" font-size="10.00">PIpcBuffer.h</text>
</g>
<!-- Node4&#45;&gt;Node8 -->
<g id="edge22" class="edge"><title>Node4&#45;&gt;Node8</title>
<path fill="none" stroke="midnightblue" d="M218,-116.362C218,-108.922 218,-98.7427 218,-89.7276"/>
<polygon fill="midnightblue" stroke="midnightblue" points="221.5,-89.5706 218,-79.5707 214.5,-89.5707 221.5,-89.5706"/>
</g>
<!-- Node5&#45;&gt;Node2 -->
<g id="edge14" class="edge"><title>Node5&#45;&gt;Node2</title>
<path fill="none" stroke="midnightblue" d="M163.717,-59.1184C166.514,-58.7138 169.288,-58.3374 172,-58 399.833,-29.6547 674.743,-16.758 780.047,-12.5948"/>
<polygon fill="midnightblue" stroke="midnightblue" points="780.431,-16.0826 790.288,-12.1965 780.159,-9.08788 780.431,-16.0826"/>
</g>
<!-- Node5&#45;&gt;Node6 -->
<g id="edge16" class="edge"><title>Node5&#45;&gt;Node6</title>
<path fill="none" stroke="midnightblue" d="M95.1434,-58.3619C83.1545,-49.7773 66.0727,-37.5459 52.2715,-27.6636"/>
<polygon fill="midnightblue" stroke="midnightblue" points="53.9307,-24.5469 43.7625,-21.5707 49.8554,-30.2383 53.9307,-24.5469"/>
</g>
<!-- Node7 -->
<g id="node16" class="node"><title>Node7</title>
<polygon fill="white" stroke="#bfbfbf" points="76,-0.5 76,-21.5 162,-21.5 162,-0.5 76,-0.5"/>
<text text-anchor="middle" x="119" y="-8.5" font-family="Helvetica,sans-Serif" font-size="10.00">PIpcChannel.h</text>
</g>
<!-- Node5&#45;&gt;Node7 -->
<g id="edge18" class="edge"><title>Node5&#45;&gt;Node7</title>
<path fill="none" stroke="midnightblue" d="M111.651,-58.3619C112.805,-50.9219 114.385,-40.7427 115.784,-31.7276"/>
<polygon fill="midnightblue" stroke="midnightblue" points="119.285,-31.9891 117.36,-21.5707 112.368,-30.9157 119.285,-31.9891"/>
</g>
<!-- Node11&#45;&gt;Node2 -->
<g id="edge30" class="edge"><title>Node11&#45;&gt;Node2</title>
<path fill="none" stroke="midnightblue" d="M757.396,-233.105C718.881,-222.046 662.119,-204.569 656,-196 650.318,-188.043 653.656,-183.493 656,-174 669.963,-117.449 674.391,-97.7168 717,-58 734.81,-41.3995 759.432,-30.035 780.568,-22.6452"/>
<polygon fill="midnightblue" stroke="midnightblue" points="781.909,-25.8883 790.307,-19.4283 779.714,-19.2415 781.909,-25.8883"/>
</g>
<!-- Node12 -->
<g id="node28" class="node"><title>Node12</title>
<polygon fill="white" stroke="#bfbfbf" points="664.5,-174.5 664.5,-195.5 741.5,-195.5 741.5,-174.5 664.5,-174.5"/>
<text text-anchor="middle" x="703" y="-182.5" font-family="Helvetica,sans-Serif" font-size="10.00">PGContext.h</text>
</g>
<!-- Node11&#45;&gt;Node12 -->
<g id="edge32" class="edge"><title>Node11&#45;&gt;Node12</title>
<path fill="none" stroke="midnightblue" d="M776.493,-232.362C762.918,-223.614 743.467,-211.079 727.985,-201.101"/>
<polygon fill="midnightblue" stroke="midnightblue" points="729.704,-198.046 719.403,-195.571 725.912,-203.93 729.704,-198.046"/>
</g>
<!-- Node13 -->
<g id="node30" class="node"><title>Node13</title>
<polygon fill="white" stroke="#bfbfbf" points="759,-174.5 759,-195.5 827,-195.5 827,-174.5 759,-174.5"/>
<text text-anchor="middle" x="793" y="-182.5" font-family="Helvetica,sans-Serif" font-size="10.00">PContext.h</text>
</g>
<!-- Node11&#45;&gt;Node13 -->
<g id="edge34" class="edge"><title>Node11&#45;&gt;Node13</title>
<path fill="none" stroke="midnightblue" d="M793,-232.362C793,-224.922 793,-214.743 793,-205.728"/>
<polygon fill="midnightblue" stroke="midnightblue" points="796.5,-205.571 793,-195.571 789.5,-205.571 796.5,-205.571"/>
</g>
<!-- Node14 -->
<g id="node32" class="node"><title>Node14</title>
<polygon fill="white" stroke="#bfbfbf" points="845,-174.5 845,-195.5 911,-195.5 911,-174.5 845,-174.5"/>
<text text-anchor="middle" x="878" y="-182.5" font-family="Helvetica,sans-Serif" font-size="10.00">PPixmap.h</text>
</g>
<!-- Node11&#45;&gt;Node14 -->
<g id="edge36" class="edge"><title>Node11&#45;&gt;Node14</title>
<path fill="none" stroke="midnightblue" d="M808.59,-232.362C821.291,-223.696 839.438,-211.313 853.992,-201.382"/>
<polygon fill="midnightblue" stroke="midnightblue" points="856.221,-204.098 862.509,-195.571 852.276,-198.316 856.221,-204.098"/>
</g>
<!-- Node15 -->
<g id="node34" class="node"><title>Node15</title>
<a xlink:href="TaskBase_8h.htm" target="_top" xlink:title="TaskBase.h">
<polygon fill="white" stroke="black" points="967,-174.5 967,-195.5 1039,-195.5 1039,-174.5 967,-174.5"/>
<text text-anchor="middle" x="1003" y="-182.5" font-family="Helvetica,sans-Serif" font-size="10.00">TaskBase.h</text>
</a>
</g>
<!-- Node11&#45;&gt;Node15 -->
<g id="edge38" class="edge"><title>Node11&#45;&gt;Node15</title>
<path fill="none" stroke="midnightblue" d="M828.624,-233.161C863.965,-223.4 918.286,-208.397 956.899,-197.733"/>
<polygon fill="midnightblue" stroke="midnightblue" points="958.142,-201.02 966.849,-194.984 956.278,-194.273 958.142,-201.02"/>
</g>
<!-- Node26 -->
<g id="node64" class="node"><title>Node26</title>
<a xlink:href="Mutex_8h.htm" target="_top" xlink:title="Mutex.h">
<polygon fill="white" stroke="black" points="773.5,-116.5 773.5,-137.5 826.5,-137.5 826.5,-116.5 773.5,-116.5"/>
<text text-anchor="middle" x="800" y="-124.5" font-family="Helvetica,sans-Serif" font-size="10.00">Mutex.h</text>
</a>
</g>
<!-- Node11&#45;&gt;Node26 -->
<g id="edge92" class="edge"><title>Node11&#45;&gt;Node26</title>
<path fill="none" stroke="midnightblue" d="M828.65,-234.641C862.331,-225.936 909.254,-211.436 920,-196 925.587,-187.975 925.511,-182.077 920,-174 910.186,-159.616 867.943,-145.348 836.334,-136.373"/>
<polygon fill="midnightblue" stroke="midnightblue" points="837.071,-132.945 826.5,-133.651 835.204,-139.692 837.071,-132.945"/>
</g>
<!-- Node28 -->
<g id="node75" class="node"><title>Node28</title>
<a xlink:href="CustomEvents_8h.htm" target="_top" xlink:title="CustomEvents.h">
<polygon fill="white" stroke="black" points="1125,-116.5 1125,-137.5 1217,-137.5 1217,-116.5 1125,-116.5"/>
<text text-anchor="middle" x="1171" y="-124.5" font-family="Helvetica,sans-Serif" font-size="10.00">CustomEvents.h</text>
</a>
</g>
<!-- Node11&#45;&gt;Node28 -->
<g id="edge94" class="edge"><title>Node11&#45;&gt;Node28</title>
<path fill="none" stroke="midnightblue" d="M828.59,-240.422C913.673,-233.96 1123.61,-216.141 1148,-196 1162.18,-184.289 1167.67,-163.569 1169.77,-147.882"/>
<polygon fill="midnightblue" stroke="midnightblue" points="1173.29,-147.841 1170.77,-137.549 1166.32,-147.164 1173.29,-147.841"/>
</g>
<!-- Node30 -->
<g id="node80" class="node"><title>Node30</title>
<a xlink:href="InputControl_8h.htm" target="_top" xlink:title="InputControl.h">
<polygon fill="white" stroke="black" points="1056.5,-174.5 1056.5,-195.5 1139.5,-195.5 1139.5,-174.5 1056.5,-174.5"/>
<text text-anchor="middle" x="1098" y="-182.5" font-family="Helvetica,sans-Serif" font-size="10.00">InputControl.h</text>
</a>
</g>
<!-- Node11&#45;&gt;Node30 -->
<g id="edge100" class="edge"><title>Node11&#45;&gt;Node30</title>
<path fill="none" stroke="midnightblue" d="M828.551,-236.844C876.017,-228.538 962.954,-213.024 1046.39,-196.284"/>
<polygon fill="midnightblue" stroke="midnightblue" points="1047.17,-199.697 1056.28,-194.29 1045.79,-192.835 1047.17,-199.697"/>
</g>
<!-- Node32 -->
<g id="node84" class="node"><title>Node32</title>
<polygon fill="white" stroke="#bfbfbf" points="366.5,-174.5 366.5,-195.5 491.5,-195.5 491.5,-174.5 366.5,-174.5"/>
<text text-anchor="middle" x="429" y="-182.5" font-family="Helvetica,sans-Serif" font-size="10.00">webosDeviceKeymap.h</text>
</g>
<!-- Node11&#45;&gt;Node32 -->
<g id="edge104" class="edge"><title>Node11&#45;&gt;Node32</title>
<path fill="none" stroke="midnightblue" d="M757.048,-233.697C754.332,-233.09 751.627,-232.517 749,-232 642.501,-211.045 612.336,-212.455 501.934,-196.266"/>
<polygon fill="midnightblue" stroke="midnightblue" points="502.12,-192.756 491.715,-194.752 501.093,-199.68 502.12,-192.756"/>
</g>
<!-- Node33 -->
<g id="node86" class="node"><title>Node33</title>
<polygon fill="white" stroke="#bfbfbf" points="508.5,-174.5 508.5,-195.5 537.5,-195.5 537.5,-174.5 508.5,-174.5"/>
<text text-anchor="middle" x="523" y="-182.5" font-family="Helvetica,sans-Serif" font-size="10.00">Qt</text>
</g>
<!-- Node11&#45;&gt;Node33 -->
<g id="edge106" class="edge"><title>Node11&#45;&gt;Node33</title>
<path fill="none" stroke="midnightblue" d="M757.029,-233.791C754.317,-233.163 751.618,-232.559 749,-232 662.451,-213.53 635.101,-223.297 547.398,-195.873"/>
<polygon fill="midnightblue" stroke="midnightblue" points="548.446,-192.534 537.855,-192.819 546.312,-199.201 548.446,-192.534"/>
</g>
<!-- Node34 -->
<g id="node88" class="node"><title>Node34</title>
<polygon fill="white" stroke="#bfbfbf" points="555,-174.5 555,-195.5 609,-195.5 609,-174.5 555,-174.5"/>
<text text-anchor="middle" x="582" y="-182.5" font-family="Helvetica,sans-Serif" font-size="10.00">QImage</text>
</g>
<!-- Node11&#45;&gt;Node34 -->
<g id="edge108" class="edge"><title>Node11&#45;&gt;Node34</title>
<path fill="none" stroke="midnightblue" d="M757.207,-233.161C718.783,-222.599 658.031,-205.899 619.107,-195.2"/>
<polygon fill="midnightblue" stroke="midnightblue" points="619.797,-191.76 609.227,-192.484 617.941,-198.51 619.797,-191.76"/>
</g>
<!-- Node15&#45;&gt;Node2 -->
<g id="edge40" class="edge"><title>Node15&#45;&gt;Node2</title>
<path fill="none" stroke="midnightblue" d="M966.98,-179.508C904.584,-169.758 781.453,-149.381 765,-138 732.934,-115.82 708.432,-91.1233 729,-58 740.377,-39.6788 761.248,-28.2822 780.535,-21.3097"/>
<polygon fill="midnightblue" stroke="midnightblue" points="781.725,-24.6028 790.122,-18.1425 779.529,-17.9562 781.725,-24.6028"/>
</g>
<!-- Node16 -->
<g id="node37" class="node"><title>Node16</title>
<polygon fill="white" stroke="#bfbfbf" points="1040.5,-0.5 1040.5,-21.5 1081.5,-21.5 1081.5,-0.5 1040.5,-0.5"/>
<text text-anchor="middle" x="1061" y="-8.5" font-family="Helvetica,sans-Serif" font-size="10.00">glib.h</text>
</g>
<!-- Node15&#45;&gt;Node16 -->
<g id="edge42" class="edge"><title>Node15&#45;&gt;Node16</title>
<path fill="none" stroke="midnightblue" d="M1000.24,-174.466C994.894,-151.832 985.224,-97.414 1004,-58 1010.01,-45.3912 1021.22,-35.0052 1032.12,-27.2324"/>
<polygon fill="midnightblue" stroke="midnightblue" points="1034.27,-30.0014 1040.68,-21.5665 1030.41,-24.1623 1034.27,-30.0014"/>
</g>
<!-- Node17 -->
<g id="node39" class="node"><title>Node17</title>
<polygon fill="white" stroke="#bfbfbf" points="852.5,-116.5 852.5,-137.5 881.5,-137.5 881.5,-116.5 852.5,-116.5"/>
<text text-anchor="middle" x="867" y="-124.5" font-family="Helvetica,sans-Serif" font-size="10.00">list</text>
</g>
<!-- Node15&#45;&gt;Node17 -->
<g id="edge44" class="edge"><title>Node15&#45;&gt;Node17</title>
<path fill="none" stroke="midnightblue" d="M978.371,-174.497C953.614,-163.938 915.691,-147.765 891.117,-137.285"/>
<polygon fill="midnightblue" stroke="midnightblue" points="892.36,-134.011 881.789,-133.307 889.614,-140.449 892.36,-134.011"/>
</g>
<!-- Node18 -->
<g id="node41" class="node"><title>Node18</title>
<a xlink:href="sptr_8h.htm" target="_top" xlink:title="sptr.h">
<polygon fill="white" stroke="black" points="778.5,-58.5 778.5,-79.5 821.5,-79.5 821.5,-58.5 778.5,-58.5"/>
<text text-anchor="middle" x="800" y="-66.5" font-family="Helvetica,sans-Serif" font-size="10.00">sptr.h</text>
</a>
</g>
<!-- Node15&#45;&gt;Node18 -->
<g id="edge46" class="edge"><title>Node15&#45;&gt;Node18</title>
<path fill="none" stroke="midnightblue" d="M986.362,-174.358C964.506,-160.49 924.814,-135.69 890,-116 870.452,-104.944 848.069,-93.2513 830.516,-84.2943"/>
<polygon fill="midnightblue" stroke="midnightblue" points="831.81,-81.0263 821.309,-79.621 828.642,-87.2683 831.81,-81.0263"/>
</g>
<!-- Node19 -->
<g id="node45" class="node"><title>Node19</title>
<a xlink:href="AsyncCaller_8h.htm" target="_top" xlink:title="AsyncCaller.h">
<polygon fill="white" stroke="black" points="876.5,-58.5 876.5,-79.5 957.5,-79.5 957.5,-58.5 876.5,-58.5"/>
<text text-anchor="middle" x="917" y="-66.5" font-family="Helvetica,sans-Serif" font-size="10.00">AsyncCaller.h</text>
</a>
</g>
<!-- Node15&#45;&gt;Node19 -->
<g id="edge52" class="edge"><title>Node15&#45;&gt;Node19</title>
<path fill="none" stroke="midnightblue" d="M995.063,-174.295C980.472,-154.613 949.213,-112.45 930.987,-87.8668"/>
<polygon fill="midnightblue" stroke="midnightblue" points="933.685,-85.6279 924.917,-79.6792 928.061,-89.7968 933.685,-85.6279"/>
</g>
<!-- Node20 -->
<g id="node49" class="node"><title>Node20</title>
<a xlink:href="Event_8h.htm" target="_top" xlink:title="Event.h">
<polygon fill="white" stroke="black" points="1373,-116.5 1373,-137.5 1425,-137.5 1425,-116.5 1373,-116.5"/>
<text text-anchor="middle" x="1399" y="-124.5" font-family="Helvetica,sans-Serif" font-size="10.00">Event.h</text>
</a>
</g>
<!-- Node15&#45;&gt;Node20 -->
<g id="edge58" class="edge"><title>Node15&#45;&gt;Node20</title>
<path fill="none" stroke="midnightblue" d="M1039.28,-175.78C1042.22,-175.14 1045.15,-174.537 1048,-174 1162.17,-152.465 1299.06,-137.112 1362.9,-130.549"/>
<polygon fill="midnightblue" stroke="midnightblue" points="1363.27,-134.03 1372.87,-129.535 1362.57,-127.065 1363.27,-134.03"/>
</g>
<!-- Node15&#45;&gt;Node26 -->
<g id="edge76" class="edge"><title>Node15&#45;&gt;Node26</title>
<path fill="none" stroke="midnightblue" d="M966.708,-174.631C929.91,-164.117 873.283,-147.938 836.435,-137.41"/>
<polygon fill="midnightblue" stroke="midnightblue" points="837.176,-133.982 826.599,-134.6 835.253,-140.712 837.176,-133.982"/>
</g>
<!-- Node27 -->
<g id="node69" class="node"><title>Node27</title>
<a xlink:href="SingletonTimer_8h.htm" target="_top" xlink:title="SingletonTimer.h">
<polygon fill="white" stroke="black" points="1013,-58.5 1013,-79.5 1109,-79.5 1109,-58.5 1013,-58.5"/>
<text text-anchor="middle" x="1061" y="-66.5" font-family="Helvetica,sans-Serif" font-size="10.00">SingletonTimer.h</text>
</a>
</g>
<!-- Node15&#45;&gt;Node27 -->
<g id="edge84" class="edge"><title>Node15&#45;&gt;Node27</title>
<path fill="none" stroke="midnightblue" d="M1008.35,-174.295C1018.06,-154.872 1038.72,-113.556 1051.08,-88.8462"/>
<polygon fill="midnightblue" stroke="midnightblue" points="1054.32,-90.1888 1055.66,-79.6792 1048.06,-87.0582 1054.32,-90.1888"/>
</g>
<!-- Node18&#45;&gt;Node2 -->
<g id="edge48" class="edge"><title>Node18&#45;&gt;Node2</title>
<path fill="none" stroke="midnightblue" d="M804.402,-58.3619C807.582,-50.6766 811.972,-40.0686 815.79,-30.8399"/>
<polygon fill="midnightblue" stroke="midnightblue" points="819.036,-32.1491 819.626,-21.5707 812.568,-29.4726 819.036,-32.1491"/>
</g>
<!-- Node18&#45;&gt;Node16 -->
<g id="edge50" class="edge"><title>Node18&#45;&gt;Node16</title>
<path fill="none" stroke="midnightblue" d="M821.804,-64.1547C868.207,-53.8429 976.851,-29.6998 1030.26,-17.8315"/>
<polygon fill="midnightblue" stroke="midnightblue" points="1031.17,-21.2153 1040.17,-15.6293 1029.65,-14.382 1031.17,-21.2153"/>
</g>
<!-- Node19&#45;&gt;Node2 -->
<g id="edge54" class="edge"><title>Node19&#45;&gt;Node2</title>
<path fill="none" stroke="midnightblue" d="M899.942,-58.3619C885.915,-49.6138 865.816,-37.0786 849.818,-27.1015"/>
<polygon fill="midnightblue" stroke="midnightblue" points="851.287,-23.8927 840.949,-21.5707 847.582,-29.8323 851.287,-23.8927"/>
</g>
<!-- Node19&#45;&gt;Node16 -->
<g id="edge56" class="edge"><title>Node19&#45;&gt;Node16</title>
<path fill="none" stroke="midnightblue" d="M943.077,-58.4966C967.8,-48.539 1004.92,-33.588 1030.89,-23.1276"/>
<polygon fill="midnightblue" stroke="midnightblue" points="1032.28,-26.341 1040.25,-19.3582 1029.67,-19.8478 1032.28,-26.341"/>
</g>
<!-- Node20&#45;&gt;Node2 -->
<g id="edge60" class="edge"><title>Node20&#45;&gt;Node2</title>
<path fill="none" stroke="midnightblue" d="M1372.8,-122.097C1338.3,-115.146 1276.13,-100.901 1226,-80 1207.99,-72.4898 1206.48,-64.261 1188,-58 1129.55,-38.1996 951.132,-21.4532 867.776,-14.4765"/>
<polygon fill="midnightblue" stroke="midnightblue" points="867.874,-10.9727 857.619,-13.6354 867.296,-17.9488 867.874,-10.9727"/>
</g>
<!-- Node20&#45;&gt;Node16 -->
<g id="edge64" class="edge"><title>Node20&#45;&gt;Node16</title>
<path fill="none" stroke="midnightblue" d="M1425.3,-120.861C1464.5,-110.553 1530.91,-87.9209 1504,-58 1476.45,-27.3749 1187.96,-15.1723 1091.91,-11.9392"/>
<polygon fill="midnightblue" stroke="midnightblue" points="1091.8,-8.43374 1081.69,-11.6048 1091.57,-15.43 1091.8,-8.43374"/>
</g>
<!-- Node20&#45;&gt;Node18 -->
<g id="edge74" class="edge"><title>Node20&#45;&gt;Node18</title>
<path fill="none" stroke="midnightblue" d="M1372.96,-125.363C1295.74,-120.365 1061.31,-104.159 868,-80 856.098,-78.5126 843.084,-76.5022 831.657,-74.607"/>
<polygon fill="midnightblue" stroke="midnightblue" points="832.13,-71.1373 821.686,-72.9171 830.961,-78.0389 832.13,-71.1373"/>
</g>
<!-- Node21 -->
<g id="node52" class="node"><title>Node21</title>
<polygon fill="white" stroke="#bfbfbf" points="1536,-0.5 1536,-21.5 1586,-21.5 1586,-0.5 1536,-0.5"/>
<text text-anchor="middle" x="1561" y="-8.5" font-family="Helvetica,sans-Serif" font-size="10.00">stdint.h</text>
</g>
<!-- Node20&#45;&gt;Node21 -->
<g id="edge62" class="edge"><title>Node20&#45;&gt;Node21</title>
<path fill="none" stroke="midnightblue" d="M1425.2,-124.885C1455.94,-121.038 1506.57,-110.236 1537,-80 1549.96,-67.124 1555.93,-46.8936 1558.68,-31.6609"/>
<polygon fill="midnightblue" stroke="midnightblue" points="1562.16,-32.0335 1560.16,-21.6291 1555.24,-31.0096 1562.16,-32.0335"/>
</g>
<!-- Node22 -->
<g id="node55" class="node"><title>Node22</title>
<polygon fill="white" stroke="#bfbfbf" points="1588.5,-58.5 1588.5,-79.5 1635.5,-79.5 1635.5,-58.5 1588.5,-58.5"/>
<text text-anchor="middle" x="1612" y="-66.5" font-family="Helvetica,sans-Serif" font-size="10.00">stdio.h</text>
</g>
<!-- Node20&#45;&gt;Node22 -->
<g id="edge66" class="edge"><title>Node20&#45;&gt;Node22</title>
<path fill="none" stroke="midnightblue" d="M1425.01,-120.298C1459.41,-111.379 1521.89,-94.9843 1575,-80 1576.06,-79.6998 1577.14,-79.3926 1578.24,-79.0805"/>
<polygon fill="midnightblue" stroke="midnightblue" points="1579.52,-82.3522 1588.14,-76.1991 1577.56,-75.6307 1579.52,-82.3522"/>
</g>
<!-- Node23 -->
<g id="node57" class="node"><title>Node23</title>
<polygon fill="white" stroke="#bfbfbf" points="1234.5,-58.5 1234.5,-79.5 1285.5,-79.5 1285.5,-58.5 1234.5,-58.5"/>
<text text-anchor="middle" x="1260" y="-66.5" font-family="Helvetica,sans-Serif" font-size="10.00">string.h</text>
</g>
<!-- Node20&#45;&gt;Node23 -->
<g id="edge68" class="edge"><title>Node20&#45;&gt;Node23</title>
<path fill="none" stroke="midnightblue" d="M1373.83,-116.497C1351.73,-107.275 1319.36,-93.7695 1294.79,-83.5153"/>
<polygon fill="midnightblue" stroke="midnightblue" points="1296.03,-80.2421 1285.45,-79.6212 1293.34,-86.7022 1296.03,-80.2421"/>
</g>
<!-- Node24 -->
<g id="node59" class="node"><title>Node24</title>
<polygon fill="white" stroke="#bfbfbf" points="1303,-58.5 1303,-79.5 1389,-79.5 1389,-58.5 1303,-58.5"/>
<text text-anchor="middle" x="1346" y="-66.5" font-family="Helvetica,sans-Serif" font-size="10.00">qnamespace.h</text>
</g>
<!-- Node20&#45;&gt;Node24 -->
<g id="edge70" class="edge"><title>Node20&#45;&gt;Node24</title>
<path fill="none" stroke="midnightblue" d="M1389.28,-116.362C1381.81,-108.186 1371.31,-96.7025 1362.53,-87.0907"/>
<polygon fill="midnightblue" stroke="midnightblue" points="1364.99,-84.5918 1355.66,-79.5707 1359.82,-89.3138 1364.99,-84.5918"/>
</g>
<!-- Node25 -->
<g id="node61" class="node"><title>Node25</title>
<polygon fill="white" stroke="#bfbfbf" points="1407,-58.5 1407,-79.5 1495,-79.5 1495,-58.5 1407,-58.5"/>
<text text-anchor="middle" x="1451" y="-66.5" font-family="Helvetica,sans-Serif" font-size="10.00">SysMgrEvent.h</text>
</g>
<!-- Node20&#45;&gt;Node25 -->
<g id="edge72" class="edge"><title>Node20&#45;&gt;Node25</title>
<path fill="none" stroke="midnightblue" d="M1408.54,-116.362C1415.87,-108.186 1426.16,-96.7025 1434.78,-87.0907"/>
<polygon fill="midnightblue" stroke="midnightblue" points="1437.45,-89.3528 1441.52,-79.5707 1432.24,-84.68 1437.45,-89.3528"/>
</g>
<!-- Node26&#45;&gt;Node2 -->
<g id="edge78" class="edge"><title>Node26&#45;&gt;Node2</title>
<path fill="none" stroke="midnightblue" d="M777.837,-116.443C754.536,-103.807 723.042,-81.4056 737,-58 746.629,-41.8537 763.94,-30.9208 780.598,-23.6957"/>
<polygon fill="midnightblue" stroke="midnightblue" points="782.264,-26.8002 790.268,-19.8587 779.682,-20.2937 782.264,-26.8002"/>
</g>
<!-- Node26&#45;&gt;Node16 -->
<g id="edge82" class="edge"><title>Node26&#45;&gt;Node16</title>
<path fill="none" stroke="midnightblue" d="M788.676,-116.125C774.865,-101.554 755.096,-75.5044 770,-58 786.764,-38.3107 958.461,-20.4136 1029.99,-13.7526"/>
<polygon fill="midnightblue" stroke="midnightblue" points="1030.54,-17.2169 1040.18,-12.8169 1029.9,-10.2462 1030.54,-17.2169"/>
</g>
<!-- Node26&#45;&gt;Node18 -->
<g id="edge80" class="edge"><title>Node26&#45;&gt;Node18</title>
<path fill="none" stroke="midnightblue" d="M800,-116.362C800,-108.922 800,-98.7427 800,-89.7276"/>
<polygon fill="midnightblue" stroke="midnightblue" points="803.5,-89.5706 800,-79.5707 796.5,-89.5707 803.5,-89.5706"/>
</g>
<!-- Node27&#45;&gt;Node2 -->
<g id="edge86" class="edge"><title>Node27&#45;&gt;Node2</title>
<path fill="none" stroke="midnightblue" d="M1018.08,-58.4966C975.476,-48.0701 910.5,-32.1689 867.644,-21.6808"/>
<polygon fill="midnightblue" stroke="midnightblue" points="868.332,-18.2458 857.786,-19.2683 866.668,-25.0452 868.332,-18.2458"/>
</g>
<!-- Node27&#45;&gt;Node16 -->
<g id="edge88" class="edge"><title>Node27&#45;&gt;Node16</title>
<path fill="none" stroke="midnightblue" d="M1061,-58.3619C1061,-50.9219 1061,-40.7427 1061,-31.7276"/>
<polygon fill="midnightblue" stroke="midnightblue" points="1064.5,-31.5706 1061,-21.5707 1057.5,-31.5707 1064.5,-31.5706"/>
</g>
<!-- Node27&#45;&gt;Node21 -->
<g id="edge90" class="edge"><title>Node27&#45;&gt;Node21</title>
<path fill="none" stroke="midnightblue" d="M1109.15,-59.4093C1112.14,-58.9064 1115.11,-58.4315 1118,-58 1268.92,-35.4732 1450.34,-19.7525 1525.61,-13.7272"/>
<polygon fill="midnightblue" stroke="midnightblue" points="1526.23,-17.1886 1535.93,-12.9089 1525.68,-10.2105 1526.23,-17.1886"/>
</g>
<!-- Node28&#45;&gt;Node2 -->
<g id="edge96" class="edge"><title>Node28&#45;&gt;Node2</title>
<path fill="none" stroke="midnightblue" d="M1124.82,-117.579C1121.84,-117.028 1118.88,-116.496 1116,-116 1006.24,-97.0718 961.549,-140.444 868,-80 850.282,-68.552 838.315,-47.1728 831.389,-31.2333"/>
<polygon fill="midnightblue" stroke="midnightblue" points="834.534,-29.6746 827.555,-21.7034 828.04,-32.2871 834.534,-29.6746"/>
</g>
<!-- Node29 -->
<g id="node78" class="node"><title>Node29</title>
<polygon fill="white" stroke="#bfbfbf" points="1127,-58.5 1127,-79.5 1179,-79.5 1179,-58.5 1127,-58.5"/>
<text text-anchor="middle" x="1153" y="-66.5" font-family="Helvetica,sans-Serif" font-size="10.00">QEvent</text>
</g>
<!-- Node28&#45;&gt;Node29 -->
<g id="edge98" class="edge"><title>Node28&#45;&gt;Node29</title>
<path fill="none" stroke="midnightblue" d="M1167.7,-116.362C1165.34,-108.758 1162.09,-98.294 1159.25,-89.1349"/>
<polygon fill="midnightblue" stroke="midnightblue" points="1162.59,-88.0839 1156.28,-79.5707 1155.9,-90.1587 1162.59,-88.0839"/>
</g>
<!-- Node31 -->
<g id="node82" class="node"><title>Node31</title>
<polygon fill="white" stroke="#bfbfbf" points="1051,-116.5 1051,-137.5 1107,-137.5 1107,-116.5 1051,-116.5"/>
<text text-anchor="middle" x="1079" y="-124.5" font-family="Helvetica,sans-Serif" font-size="10.00">hal/hal.h</text>
</g>
<!-- Node30&#45;&gt;Node31 -->
<g id="edge102" class="edge"><title>Node30&#45;&gt;Node31</title>
<path fill="none" stroke="midnightblue" d="M1094.52,-174.362C1092.02,-166.758 1088.6,-156.294 1085.6,-147.135"/>
<polygon fill="midnightblue" stroke="midnightblue" points="1088.9,-145.984 1082.46,-137.571 1082.25,-148.163 1088.9,-145.984"/>
</g>
<!-- Node35&#45;&gt;Node2 -->
<g id="edge112" class="edge"><title>Node35&#45;&gt;Node2</title>
<path fill="none" stroke="midnightblue" d="M1601.23,-116.472C1626.99,-102.934 1663.55,-78.7002 1644,-58 1640.63,-54.4339 1036.69,-22.2458 867.562,-13.2983"/>
<polygon fill="midnightblue" stroke="midnightblue" points="867.691,-9.80032 857.52,-12.7673 867.321,-16.7906 867.691,-9.80032"/>
</g>
<!-- Node35&#45;&gt;Node16 -->
<g id="edge116" class="edge"><title>Node35&#45;&gt;Node16</title>
<path fill="none" stroke="midnightblue" d="M1610.62,-118.371C1647.8,-106.761 1701.54,-84.4811 1677,-58 1656.9,-36.3067 1214.06,-17.1013 1091.94,-12.2036"/>
<polygon fill="midnightblue" stroke="midnightblue" points="1091.91,-8.69982 1081.78,-11.7996 1091.63,-15.6943 1091.91,-8.69982"/>
</g>
<!-- Node35&#45;&gt;Node22 -->
<g id="edge114" class="edge"><title>Node35&#45;&gt;Node22</title>
<path fill="none" stroke="midnightblue" d="M1585.05,-116.362C1589.47,-108.595 1595.59,-97.8426 1600.88,-88.5458"/>
<polygon fill="midnightblue" stroke="midnightblue" points="1604.08,-89.9932 1605.99,-79.5707 1598,-86.5315 1604.08,-89.9932"/>
</g>
<!-- Node36 -->
<g id="node95" class="node"><title>Node36</title>
<polygon fill="white" stroke="#bfbfbf" points="1728.5,-58.5 1728.5,-79.5 1799.5,-79.5 1799.5,-58.5 1728.5,-58.5"/>
<text text-anchor="middle" x="1764" y="-66.5" font-family="Helvetica,sans-Serif" font-size="10.00">PmLogLib.h</text>
</g>
<!-- Node35&#45;&gt;Node36 -->
<g id="edge118" class="edge"><title>Node35&#45;&gt;Node36</title>
<path fill="none" stroke="midnightblue" d="M1610.8,-117.029C1641.17,-107.508 1687.17,-93.0859 1720.84,-82.5302"/>
<polygon fill="midnightblue" stroke="midnightblue" points="1721.93,-85.857 1730.43,-79.5257 1719.84,-79.1776 1721.93,-85.857"/>
</g>
<!-- Node37&#45;&gt;Node2 -->
<g id="edge122" class="edge"><title>Node37&#45;&gt;Node2</title>
<path fill="none" stroke="midnightblue" d="M1692.99,-174.097C1683.32,-159.494 1669.9,-133.409 1683,-116 1719.83,-67.0665 1850.29,-102.299 1808,-58 1778.2,-26.784 1075.1,-24.1396 1032,-22 975.398,-19.1904 910.146,-15.6983 868.047,-13.4123"/>
<polygon fill="midnightblue" stroke="midnightblue" points="868.038,-9.90674 857.862,-12.8583 867.657,-16.8964 868.038,-9.90674"/>
</g>
<!-- Node37&#45;&gt;Node20 -->
<g id="edge158" class="edge"><title>Node37&#45;&gt;Node20</title>
<path fill="none" stroke="midnightblue" d="M1646.31,-174.497C1584.96,-162.714 1487.2,-143.94 1434.86,-133.887"/>
<polygon fill="midnightblue" stroke="midnightblue" points="1435.5,-130.446 1425.02,-131.997 1434.18,-137.321 1435.5,-130.446"/>
</g>
<!-- Node37&#45;&gt;Node28 -->
<g id="edge160" class="edge"><title>Node37&#45;&gt;Node28</title>
<path fill="none" stroke="midnightblue" d="M1645.78,-178.957C1544.4,-167.863 1329.65,-144.361 1227.4,-133.172"/>
<polygon fill="midnightblue" stroke="midnightblue" points="1227.59,-129.672 1217.27,-132.064 1226.83,-136.631 1227.59,-129.672"/>
</g>
<!-- Node38 -->
<g id="node100" class="node"><title>Node38</title>
<polygon fill="white" stroke="#bfbfbf" points="1855,-58.5 1855,-79.5 1979,-79.5 1979,-58.5 1855,-58.5"/>
<text text-anchor="middle" x="1917" y="-66.5" font-family="Helvetica,sans-Serif" font-size="10.00">PIpcChannelListener.h</text>
</g>
<!-- Node37&#45;&gt;Node38 -->
<g id="edge124" class="edge"><title>Node37&#45;&gt;Node38</title>
<path fill="none" stroke="midnightblue" d="M1695.92,-174.318C1689.69,-159.491 1681.52,-132.628 1695,-116 1704.6,-104.149 1783.84,-89.4351 1844.94,-79.6596"/>
<polygon fill="midnightblue" stroke="midnightblue" points="1845.63,-83.094 1854.96,-78.0743 1844.54,-76.18 1845.63,-83.094"/>
</g>
<!-- Node39 -->
<g id="node102" class="node"><title>Node39</title>
<polygon fill="white" stroke="#bfbfbf" points="1703.5,-116.5 1703.5,-137.5 1748.5,-137.5 1748.5,-116.5 1703.5,-116.5"/>
<text text-anchor="middle" x="1726" y="-124.5" font-family="Helvetica,sans-Serif" font-size="10.00">queue</text>
</g>
<!-- Node37&#45;&gt;Node39 -->
<g id="edge126" class="edge"><title>Node37&#45;&gt;Node39</title>
<path fill="none" stroke="midnightblue" d="M1705.59,-174.362C1708.9,-166.677 1713.47,-156.069 1717.45,-146.84"/>
<polygon fill="midnightblue" stroke="midnightblue" points="1720.7,-148.139 1721.44,-137.571 1714.27,-145.368 1720.7,-148.139"/>
</g>
<!-- Node40 -->
<g id="node104" class="node"><title>Node40</title>
<a xlink:href="IpcClientHost_8h.htm" target="_top" xlink:title="IpcClientHost.h">
<polygon fill="white" stroke="black" points="2234,-116.5 2234,-137.5 2322,-137.5 2322,-116.5 2234,-116.5"/>
<text text-anchor="middle" x="2278" y="-124.5" font-family="Helvetica,sans-Serif" font-size="10.00">IpcClientHost.h</text>
</a>
</g>
<!-- Node37&#45;&gt;Node40 -->
<g id="edge128" class="edge"><title>Node37&#45;&gt;Node40</title>
<path fill="none" stroke="midnightblue" d="M1756.32,-182.139C1850.39,-176.814 2047.64,-163.66 2223.85,-138.033"/>
<polygon fill="midnightblue" stroke="midnightblue" points="2224.44,-141.484 2233.82,-136.566 2223.42,-134.559 2224.44,-141.484"/>
</g>
<!-- Node48 -->
<g id="node129" class="node"><title>Node48</title>
<polygon fill="white" stroke="#bfbfbf" points="1766,-116.5 1766,-137.5 1918,-137.5 1918,-116.5 1766,-116.5"/>
<text text-anchor="middle" x="1842" y="-124.5" font-family="Helvetica,sans-Serif" font-size="10.00">NewContentIndicatorEvent.h</text>
</g>
<!-- Node37&#45;&gt;Node48 -->
<g id="edge162" class="edge"><title>Node37&#45;&gt;Node48</title>
<path fill="none" stroke="midnightblue" d="M1726.53,-174.497C1748.95,-165.275 1781.78,-151.769 1806.71,-141.515"/>
<polygon fill="midnightblue" stroke="midnightblue" points="1808.26,-144.662 1816.18,-137.621 1805.6,-138.189 1808.26,-144.662"/>
</g>
<!-- Node49 -->
<g id="node131" class="node"><title>Node49</title>
<polygon fill="white" stroke="#bfbfbf" points="1936,-116.5 1936,-137.5 2066,-137.5 2066,-116.5 1936,-116.5"/>
<text text-anchor="middle" x="2001" y="-124.5" font-family="Helvetica,sans-Serif" font-size="10.00">BannerMessageEvent.h</text>
</g>
<!-- Node37&#45;&gt;Node49 -->
<g id="edge164" class="edge"><title>Node37&#45;&gt;Node49</title>
<path fill="none" stroke="midnightblue" d="M1755.33,-174.497C1806.25,-164.652 1882.41,-149.927 1936.42,-139.486"/>
<polygon fill="midnightblue" stroke="midnightblue" points="1937.42,-142.858 1946.57,-137.523 1936.09,-135.985 1937.42,-142.858"/>
</g>
<!-- Node50 -->
<g id="node133" class="node"><title>Node50</title>
<polygon fill="white" stroke="#bfbfbf" points="2083.5,-116.5 2083.5,-137.5 2216.5,-137.5 2216.5,-116.5 2083.5,-116.5"/>
<text text-anchor="middle" x="2150" y="-124.5" font-family="Helvetica,sans-Serif" font-size="10.00">ActiveCallBannerEvent.h</text>
</g>
<!-- Node37&#45;&gt;Node50 -->
<g id="edge166" class="edge"><title>Node37&#45;&gt;Node50</title>
<path fill="none" stroke="midnightblue" d="M1756.18,-178.427C1827.19,-169.887 1954.64,-154.288 2073.36,-138.205"/>
<polygon fill="midnightblue" stroke="midnightblue" points="2073.92,-141.662 2083.35,-136.848 2072.97,-134.726 2073.92,-141.662"/>
</g>
<!-- Node40&#45;&gt;Node2 -->
<g id="edge130" class="edge"><title>Node40&#45;&gt;Node2</title>
<path fill="none" stroke="midnightblue" d="M2233.77,-117.718C2230.81,-117.127 2227.86,-116.549 2225,-116 2134.58,-98.6432 2106.45,-114.264 2021,-80 2004.64,-73.4398 2004.77,-63.4246 1988,-58 1886.86,-25.2876 1138.19,-26.807 1032,-22 975.386,-19.4372 910.137,-15.8898 868.042,-13.5237"/>
<polygon fill="midnightblue" stroke="midnightblue" points="868.039,-10.0181 857.858,-12.9489 867.645,-17.0069 868.039,-10.0181"/>
</g>
<!-- Node40&#45;&gt;Node16 -->
<g id="edge138" class="edge"><title>Node40&#45;&gt;Node16</title>
<path fill="none" stroke="midnightblue" d="M2233.99,-117.636C2173.73,-104.769 2072.02,-82.8788 2064,-80 2043.79,-72.749 2041.74,-63.5377 2021,-58 1929.59,-33.5926 1246.62,-15.5416 1092.04,-11.742"/>
<polygon fill="midnightblue" stroke="midnightblue" points="1091.92,-8.23817 1081.84,-11.4932 1091.75,-15.2361 1091.92,-8.23817"/>
</g>
<!-- Node40&#45;&gt;Node38 -->
<g id="edge140" class="edge"><title>Node40&#45;&gt;Node38</title>
<path fill="none" stroke="midnightblue" d="M2233.79,-117.64C2230.82,-117.068 2227.87,-116.516 2225,-116 2181.06,-108.093 2065.7,-90.8383 1989.32,-79.5805"/>
<polygon fill="midnightblue" stroke="midnightblue" points="1989.68,-76.0959 1979.27,-78.1018 1988.66,-83.0212 1989.68,-76.0959"/>
</g>
<!-- Node41 -->
<g id="node107" class="node"><title>Node41</title>
<polygon fill="white" stroke="#bfbfbf" points="2316.5,-0.5 2316.5,-21.5 2359.5,-21.5 2359.5,-0.5 2316.5,-0.5"/>
<text text-anchor="middle" x="2338" y="-8.5" font-family="Helvetica,sans-Serif" font-size="10.00">string</text>
</g>
<!-- Node40&#45;&gt;Node41 -->
<g id="edge132" class="edge"><title>Node40&#45;&gt;Node41</title>
<path fill="none" stroke="midnightblue" d="M2289.34,-116.419C2298.29,-107.492 2310.49,-93.9648 2318,-80 2326.11,-64.9202 2331.28,-46.1687 2334.32,-32.0213"/>
<polygon fill="midnightblue" stroke="midnightblue" points="2337.83,-32.3076 2336.32,-21.8206 2330.96,-30.959 2337.83,-32.3076"/>
</g>
<!-- Node42 -->
<g id="node109" class="node"><title>Node42</title>
<polygon fill="white" stroke="#bfbfbf" points="2144.5,-58.5 2144.5,-79.5 2181.5,-79.5 2181.5,-58.5 2144.5,-58.5"/>
<text text-anchor="middle" x="2163" y="-66.5" font-family="Helvetica,sans-Serif" font-size="10.00">map</text>
</g>
<!-- Node40&#45;&gt;Node42 -->
<g id="edge134" class="edge"><title>Node40&#45;&gt;Node42</title>
<path fill="none" stroke="midnightblue" d="M2257.17,-116.497C2238.62,-107.14 2211.33,-93.3757 2190.9,-83.0699"/>
<polygon fill="midnightblue" stroke="midnightblue" points="2192.27,-79.8432 2181.77,-78.465 2189.12,-86.0932 2192.27,-79.8432"/>
</g>
<!-- Node43 -->
<g id="node111" class="node"><title>Node43</title>
<polygon fill="white" stroke="#bfbfbf" points="2198.5,-58.5 2198.5,-79.5 2229.5,-79.5 2229.5,-58.5 2198.5,-58.5"/>
<text text-anchor="middle" x="2214" y="-66.5" font-family="Helvetica,sans-Serif" font-size="10.00">set</text>
</g>
<!-- Node40&#45;&gt;Node43 -->
<g id="edge136" class="edge"><title>Node40&#45;&gt;Node43</title>
<path fill="none" stroke="midnightblue" d="M2266.26,-116.362C2257.06,-108.023 2244.06,-96.2418 2233.33,-86.5162"/>
<polygon fill="midnightblue" stroke="midnightblue" points="2235.42,-83.6924 2225.66,-79.5707 2230.72,-88.8793 2235.42,-83.6924"/>
</g>
<!-- Node44 -->
<g id="node115" class="node"><title>Node44</title>
<a xlink:href="Window_8h.htm" target="_top" xlink:title="Window.h">
<polygon fill="white" stroke="black" points="2247,-58.5 2247,-79.5 2309,-79.5 2309,-58.5 2247,-58.5"/>
<text text-anchor="middle" x="2278" y="-66.5" font-family="Helvetica,sans-Serif" font-size="10.00">Window.h</text>
</a>
</g>
<!-- Node40&#45;&gt;Node44 -->
<g id="edge142" class="edge"><title>Node40&#45;&gt;Node44</title>
<path fill="none" stroke="midnightblue" d="M2278,-116.362C2278,-108.922 2278,-98.7427 2278,-89.7276"/>
<polygon fill="midnightblue" stroke="midnightblue" points="2281.5,-89.5706 2278,-79.5707 2274.5,-89.5707 2281.5,-89.5706"/>
</g>
<!-- Node47 -->
<g id="node125" class="node"><title>Node47</title>
<polygon fill="white" stroke="#bfbfbf" points="2072.5,-58.5 2072.5,-79.5 2127.5,-79.5 2127.5,-58.5 2072.5,-58.5"/>
<text text-anchor="middle" x="2100" y="-66.5" font-family="Helvetica,sans-Serif" font-size="10.00">QObject</text>
</g>
<!-- Node40&#45;&gt;Node47 -->
<g id="edge156" class="edge"><title>Node40&#45;&gt;Node47</title>
<path fill="none" stroke="midnightblue" d="M2245.77,-116.497C2215.3,-106.57 2169.6,-91.6802 2137.52,-81.2246"/>
<polygon fill="midnightblue" stroke="midnightblue" points="2138.21,-77.768 2127.61,-77.9976 2136.04,-84.4236 2138.21,-77.768"/>
</g>
<!-- Node44&#45;&gt;Node2 -->
<g id="edge144" class="edge"><title>Node44&#45;&gt;Node2</title>
<path fill="none" stroke="midnightblue" d="M2246.71,-59.6358C2243.78,-58.9907 2240.85,-58.428 2238,-58 1972.86,-18.1703 1299.89,-33.0805 1032,-22 975.376,-19.6579 910.129,-16.061 868.037,-13.6233"/>
<polygon fill="midnightblue" stroke="midnightblue" points="868.041,-10.1177 857.854,-13.03 867.634,-17.1058 868.041,-10.1177"/>
</g>
<!-- Node44&#45;&gt;Node16 -->
<g id="edge150" class="edge"><title>Node44&#45;&gt;Node16</title>
<path fill="none" stroke="midnightblue" d="M2246.7,-59.6664C2243.78,-59.0149 2240.85,-58.4423 2238,-58 2121.9,-39.9607 1265.67,-16.4316 1091.77,-11.808"/>
<polygon fill="midnightblue" stroke="midnightblue" points="1091.62,-8.30308 1081.53,-11.5369 1091.44,-15.3006 1091.62,-8.30308"/>
</g>
<!-- Node44&#45;&gt;Node21 -->
<g id="edge146" class="edge"><title>Node44&#45;&gt;Node21</title>
<path fill="none" stroke="midnightblue" d="M2246.69,-59.7557C2243.77,-59.0855 2240.84,-58.4841 2238,-58 2112.58,-36.6201 1716.9,-17.8615 1596.26,-12.5191"/>
<polygon fill="midnightblue" stroke="midnightblue" points="1596.25,-9.0153 1586.11,-12.0724 1595.94,-16.0085 1596.25,-9.0153"/>
</g>
<!-- Node44&#45;&gt;Node41 -->
<g id="edge148" class="edge"><title>Node44&#45;&gt;Node41</title>
<path fill="none" stroke="midnightblue" d="M2289,-58.3619C2297.55,-50.1043 2309.58,-38.4725 2319.58,-28.8029"/>
<polygon fill="midnightblue" stroke="midnightblue" points="2322.31,-31.0374 2327.06,-21.5707 2317.44,-26.0044 2322.31,-31.0374"/>
</g>
<!-- Node45 -->
<g id="node121" class="node"><title>Node45</title>
<polygon fill="white" stroke="#bfbfbf" points="2139,-0.5 2139,-21.5 2237,-21.5 2237,-0.5 2139,-0.5"/>
<text text-anchor="middle" x="2188" y="-8.5" font-family="Helvetica,sans-Serif" font-size="10.00">QGraphicsObject</text>
</g>
<!-- Node44&#45;&gt;Node45 -->
<g id="edge152" class="edge"><title>Node44&#45;&gt;Node45</title>
<path fill="none" stroke="midnightblue" d="M2261.49,-58.3619C2247.92,-49.6138 2228.47,-37.0786 2212.99,-27.1015"/>
<polygon fill="midnightblue" stroke="midnightblue" points="2214.7,-24.0457 2204.4,-21.5707 2210.91,-29.9297 2214.7,-24.0457"/>
</g>
<!-- Node46 -->
<g id="node123" class="node"><title>Node46</title>
<polygon fill="white" stroke="#bfbfbf" points="2254.5,-0.5 2254.5,-21.5 2299.5,-21.5 2299.5,-0.5 2254.5,-0.5"/>
<text text-anchor="middle" x="2277" y="-8.5" font-family="Helvetica,sans-Serif" font-size="10.00">QSize</text>
</g>
<!-- Node44&#45;&gt;Node46 -->
<g id="edge154" class="edge"><title>Node44&#45;&gt;Node46</title>
<path fill="none" stroke="midnightblue" d="M2277.82,-58.3619C2277.69,-50.9219 2277.51,-40.7427 2277.36,-31.7276"/>
<polygon fill="midnightblue" stroke="midnightblue" points="2280.85,-31.5088 2277.18,-21.5707 2273.86,-31.6295 2280.85,-31.5088"/>
</g>
</g>
</svg>
