<?xml version="1.0" encoding="UTF-8" standalone="no"?>
<!DOCTYPE svg PUBLIC "-//W3C//DTD SVG 1.1//EN"
 "http://www.w3.org/Graphics/SVG/1.1/DTD/svg11.dtd">
<!-- Generated by graphviz version 2.26.3 (20100126.1600)
 -->
<!-- Title: G Pages: 1 -->
<svg width="2086pt" height="378pt"
 viewBox="0.00 0.00 2085.76 378.00" xmlns="http://www.w3.org/2000/svg" xmlns:xlink="http://www.w3.org/1999/xlink">
<g id="graph1" class="graph" transform="scale(1 1) rotate(0) translate(4 374)">
<title>G</title>
<polygon fill="white" stroke="white" points="-4,5 -4,-374 2082.76,-374 2082.76,5 -4,5"/>
<!-- Node1 -->
<g id="node1" class="node"><title>Node1</title>
<polygon fill="#bfbfbf" stroke="black" points="710.758,-348.5 710.758,-369.5 814.758,-369.5 814.758,-348.5 710.758,-348.5"/>
<text text-anchor="middle" x="762.758" y="-356.5" font-family="Helvetica,sans-Serif" font-size="10.00">HostArmQemu.cpp</text>
</g>
<!-- Node2 -->
<g id="node3" class="node"><title>Node2</title>
<a xlink:href="Common_8h.htm" target="_top" xlink:title="Common.h">
<polygon fill="white" stroke="black" points="1219.26,-0.5 1219.26,-21.5 1286.26,-21.5 1286.26,-0.5 1219.26,-0.5"/>
<text text-anchor="middle" x="1252.76" y="-8.5" font-family="Helvetica,sans-Serif" font-size="10.00">Common.h</text>
</a>
</g>
<!-- Node1&#45;&gt;Node2 -->
<g id="edge2" class="edge"><title>Node1&#45;&gt;Node2</title>
<path fill="none" stroke="midnightblue" d="M710.737,-356.386C541.7,-347.207 18.7584,-313.143 18.7584,-243 18.7584,-243 18.7584,-243 18.7584,-127 18.7584,-111.129 -96.8075,-113.774 252.758,-58 441.055,-27.9568 1041.2,-14.8864 1208.87,-11.7644"/>
<polygon fill="midnightblue" stroke="midnightblue" points="1209.12,-15.2606 1219.05,-11.5772 1208.99,-8.26174 1209.12,-15.2606"/>
</g>
<!-- Node3 -->
<g id="node5" class="node"><title>Node3</title>
<a xlink:href="HostArm_8h.htm" target="_top" xlink:title="HostArm.h">
<polygon fill="white" stroke="black" points="589.258,-290.5 589.258,-311.5 654.258,-311.5 654.258,-290.5 589.258,-290.5"/>
<text text-anchor="middle" x="621.758" y="-298.5" font-family="Helvetica,sans-Serif" font-size="10.00">HostArm.h</text>
</a>
</g>
<!-- Node1&#45;&gt;Node3 -->
<g id="edge4" class="edge"><title>Node1&#45;&gt;Node3</title>
<path fill="none" stroke="midnightblue" d="M737.224,-348.497C714.805,-339.275 681.974,-325.769 657.045,-315.515"/>
<polygon fill="midnightblue" stroke="midnightblue" points="658.159,-312.189 647.579,-311.621 655.496,-318.662 658.159,-312.189"/>
</g>
<!-- Node32 -->
<g id="node83" class="node"><title>Node32</title>
<polygon fill="white" stroke="#bfbfbf" points="458.258,-174.5 458.258,-195.5 513.258,-195.5 513.258,-174.5 458.258,-174.5"/>
<text text-anchor="middle" x="485.758" y="-182.5" font-family="Helvetica,sans-Serif" font-size="10.00">QObject</text>
</g>
<!-- Node1&#45;&gt;Node32 -->
<g id="edge120" class="edge"><title>Node1&#45;&gt;Node32</title>
<path fill="none" stroke="midnightblue" d="M756.835,-348.24C742.731,-323.657 704.654,-263.104 655.758,-232 606.369,-200.582 583.413,-211.701 523.569,-196.327"/>
<polygon fill="midnightblue" stroke="midnightblue" points="524.207,-192.873 513.638,-193.621 522.367,-199.627 524.207,-192.873"/>
</g>
<!-- Node37 -->
<g id="node98" class="node"><title>Node37</title>
<polygon fill="white" stroke="#bfbfbf" points="762.758,-290.5 762.758,-311.5 820.758,-311.5 820.758,-290.5 762.758,-290.5"/>
<text text-anchor="middle" x="791.758" y="-298.5" font-family="Helvetica,sans-Serif" font-size="10.00">QWidget</text>
</g>
<!-- Node1&#45;&gt;Node37 -->
<g id="edge122" class="edge"><title>Node1&#45;&gt;Node37</title>
<path fill="none" stroke="midnightblue" d="M768.077,-348.362C771.961,-340.595 777.337,-329.843 781.985,-320.546"/>
<polygon fill="midnightblue" stroke="midnightblue" points="785.131,-322.08 786.473,-311.571 778.87,-318.95 785.131,-322.08"/>
</g>
<!-- Node38 -->
<g id="node100" class="node"><title>Node38</title>
<polygon fill="white" stroke="#bfbfbf" points="838.758,-290.5 838.758,-311.5 896.758,-311.5 896.758,-290.5 838.758,-290.5"/>
<text text-anchor="middle" x="867.758" y="-298.5" font-family="Helvetica,sans-Serif" font-size="10.00">QtDebug</text>
</g>
<!-- Node1&#45;&gt;Node38 -->
<g id="edge124" class="edge"><title>Node1&#45;&gt;Node38</title>
<path fill="none" stroke="midnightblue" d="M782.017,-348.362C798.224,-339.409 821.611,-326.491 839.867,-316.406"/>
<polygon fill="midnightblue" stroke="midnightblue" points="841.561,-319.47 848.622,-311.571 838.176,-313.342 841.561,-319.47"/>
</g>
<!-- Node39 -->
<g id="node102" class="node"><title>Node39</title>
<polygon fill="white" stroke="#bfbfbf" points="914.758,-290.5 914.758,-311.5 1004.76,-311.5 1004.76,-290.5 914.758,-290.5"/>
<text text-anchor="middle" x="959.758" y="-298.5" font-family="Helvetica,sans-Serif" font-size="10.00">QGraphicsView</text>
</g>
<!-- Node1&#45;&gt;Node39 -->
<g id="edge126" class="edge"><title>Node1&#45;&gt;Node39</title>
<path fill="none" stroke="midnightblue" d="M798.434,-348.497C830.828,-338.959 878.782,-324.841 913.99,-314.475"/>
<polygon fill="midnightblue" stroke="midnightblue" points="915.412,-317.705 924.016,-311.523 913.435,-310.99 915.412,-317.705"/>
</g>
<!-- Node3&#45;&gt;Node2 -->
<g id="edge6" class="edge"><title>Node3&#45;&gt;Node2</title>
<path fill="none" stroke="midnightblue" d="M589.046,-298.833C502.62,-292.878 269.769,-275.287 195.758,-254 129.475,-234.936 56.7584,-253.971 56.7584,-185 56.7584,-185 56.7584,-185 56.7584,-127 56.7584,-67.9232 993.416,-22.5615 1208.92,-12.9067"/>
<polygon fill="midnightblue" stroke="midnightblue" points="1209.37,-16.39 1219.21,-12.4484 1209.06,-9.39693 1209.37,-16.39"/>
</g>
<!-- Node4 -->
<g id="node8" class="node"><title>Node4</title>
<a xlink:href="HostBase_8h.htm" target="_top" xlink:title="HostBase.h">
<polygon fill="white" stroke="black" points="961.258,-232.5 961.258,-253.5 1032.26,-253.5 1032.26,-232.5 961.258,-232.5"/>
<text text-anchor="middle" x="996.758" y="-240.5" font-family="Helvetica,sans-Serif" font-size="10.00">HostBase.h</text>
</a>
</g>
<!-- Node3&#45;&gt;Node4 -->
<g id="edge8" class="edge"><title>Node3&#45;&gt;Node4</title>
<path fill="none" stroke="midnightblue" d="M654.381,-295.954C721.265,-285.61 874.089,-261.973 950.902,-250.092"/>
<polygon fill="midnightblue" stroke="midnightblue" points="951.872,-253.484 961.219,-248.497 950.802,-246.566 951.872,-253.484"/>
</g>
<!-- Node13 -->
<g id="node32" class="node"><title>Node13</title>
<a xlink:href="Event_8h.htm" target="_top" xlink:title="Event.h">
<polygon fill="white" stroke="black" points="1680.76,-116.5 1680.76,-137.5 1732.76,-137.5 1732.76,-116.5 1680.76,-116.5"/>
<text text-anchor="middle" x="1706.76" y="-124.5" font-family="Helvetica,sans-Serif" font-size="10.00">Event.h</text>
</a>
</g>
<!-- Node3&#45;&gt;Node13 -->
<g id="edge90" class="edge"><title>Node3&#45;&gt;Node13</title>
<path fill="none" stroke="midnightblue" d="M654.373,-298.488C765.263,-289.593 1137.62,-256.813 1439.76,-196 1523.19,-179.207 1619.49,-152.468 1670.56,-137.691"/>
<polygon fill="midnightblue" stroke="midnightblue" points="1671.83,-140.968 1680.45,-134.815 1669.87,-134.246 1671.83,-140.968"/>
</g>
<!-- Node21 -->
<g id="node58" class="node"><title>Node21</title>
<a xlink:href="CustomEvents_8h.htm" target="_top" xlink:title="CustomEvents.h">
<polygon fill="white" stroke="black" points="530.758,-174.5 530.758,-195.5 622.758,-195.5 622.758,-174.5 530.758,-174.5"/>
<text text-anchor="middle" x="576.758" y="-182.5" font-family="Helvetica,sans-Serif" font-size="10.00">CustomEvents.h</text>
</a>
</g>
<!-- Node3&#45;&gt;Node21 -->
<g id="edge92" class="edge"><title>Node3&#45;&gt;Node21</title>
<path fill="none" stroke="midnightblue" d="M639.351,-290.379C658.956,-277.138 686.241,-253.612 672.758,-232 663.316,-216.864 647.428,-206.469 631.267,-199.387"/>
<polygon fill="midnightblue" stroke="midnightblue" points="632.351,-196.051 621.766,-195.59 629.753,-202.551 632.351,-196.051"/>
</g>
<!-- Node28 -->
<g id="node75" class="node"><title>Node28</title>
<polygon fill="white" stroke="#bfbfbf" points="368.758,-232.5 368.758,-253.5 422.758,-253.5 422.758,-232.5 368.758,-232.5"/>
<text text-anchor="middle" x="395.758" y="-240.5" font-family="Helvetica,sans-Serif" font-size="10.00">HidLib.h</text>
</g>
<!-- Node3&#45;&gt;Node28 -->
<g id="edge94" class="edge"><title>Node3&#45;&gt;Node28</title>
<path fill="none" stroke="midnightblue" d="M589.007,-293.466C552.959,-285.05 493.094,-270.707 432.557,-254.126"/>
<polygon fill="midnightblue" stroke="midnightblue" points="433.41,-250.731 422.839,-251.446 431.549,-257.479 433.41,-250.731"/>
</g>
<!-- Node29 -->
<g id="node77" class="node"><title>Node29</title>
<polygon fill="white" stroke="#bfbfbf" points="440.758,-232.5 440.758,-253.5 518.758,-253.5 518.758,-232.5 440.758,-232.5"/>
<text text-anchor="middle" x="479.758" y="-240.5" font-family="Helvetica,sans-Serif" font-size="10.00">lunaservice.h</text>
</g>
<!-- Node3&#45;&gt;Node29 -->
<g id="edge96" class="edge"><title>Node3&#45;&gt;Node29</title>
<path fill="none" stroke="midnightblue" d="M596.043,-290.497C573.465,-281.275 540.401,-267.769 515.296,-257.515"/>
<polygon fill="midnightblue" stroke="midnightblue" points="516.343,-254.162 505.762,-253.621 513.696,-260.643 516.343,-254.162"/>
</g>
<!-- Node30 -->
<g id="node79" class="node"><title>Node30</title>
<a xlink:href="HALSensorConnector_8h.htm" target="_top" xlink:title="hal/HALSensorConnector.h">
<polygon fill="white" stroke="black" points="204.758,-232.5 204.758,-253.5 350.758,-253.5 350.758,-232.5 204.758,-232.5"/>
<text text-anchor="middle" x="277.758" y="-240.5" font-family="Helvetica,sans-Serif" font-size="10.00">hal/HALSensorConnector.h</text>
</a>
</g>
<!-- Node3&#45;&gt;Node30 -->
<g id="edge98" class="edge"><title>Node3&#45;&gt;Node30</title>
<path fill="none" stroke="midnightblue" d="M589.086,-295.491C534.625,-286.309 424.015,-267.659 350.385,-255.245"/>
<polygon fill="midnightblue" stroke="midnightblue" points="350.693,-251.748 340.25,-253.536 349.529,-258.65 350.693,-251.748"/>
</g>
<!-- Node3&#45;&gt;Node32 -->
<g id="edge118" class="edge"><title>Node3&#45;&gt;Node32</title>
<path fill="none" stroke="midnightblue" d="M629.732,-290.127C639.354,-275.558 652.724,-249.511 639.758,-232 608.915,-190.343 577.8,-209.582 523.024,-196.096"/>
<polygon fill="midnightblue" stroke="midnightblue" points="523.846,-192.692 513.275,-193.409 521.986,-199.441 523.846,-192.692"/>
</g>
<!-- Node36 -->
<g id="node94" class="node"><title>Node36</title>
<polygon fill="white" stroke="#bfbfbf" points="536.758,-232.5 536.758,-253.5 630.758,-253.5 630.758,-232.5 536.758,-232.5"/>
<text text-anchor="middle" x="583.758" y="-240.5" font-family="Helvetica,sans-Serif" font-size="10.00">qsocketnotifier.h</text>
</g>
<!-- Node3&#45;&gt;Node36 -->
<g id="edge116" class="edge"><title>Node3&#45;&gt;Node36</title>
<path fill="none" stroke="midnightblue" d="M614.789,-290.362C609.593,-282.431 602.358,-271.389 596.181,-261.961"/>
<polygon fill="midnightblue" stroke="midnightblue" points="599.092,-260.017 590.684,-253.571 593.237,-263.853 599.092,-260.017"/>
</g>
<!-- Node4&#45;&gt;Node2 -->
<g id="edge10" class="edge"><title>Node4&#45;&gt;Node2</title>
<path fill="none" stroke="midnightblue" d="M1032.38,-237.762C1101.7,-227.404 1248.61,-204.562 1255.76,-196 1262.02,-188.494 1257.32,-183.652 1255.76,-174 1253.06,-157.352 1247.31,-154.486 1243.76,-138 1236.24,-103.146 1232.27,-93.2309 1237.76,-58 1239.17,-48.9549 1242.01,-39.2705 1244.85,-31.057"/>
<polygon fill="midnightblue" stroke="midnightblue" points="1248.16,-32.1923 1248.33,-21.5988 1241.6,-29.7736 1248.16,-32.1923"/>
</g>
<!-- Node5 -->
<g id="node11" class="node"><title>Node5</title>
<polygon fill="white" stroke="#bfbfbf" points="1000.26,-174.5 1000.26,-195.5 1077.26,-195.5 1077.26,-174.5 1000.26,-174.5"/>
<text text-anchor="middle" x="1038.76" y="-182.5" font-family="Helvetica,sans-Serif" font-size="10.00">PGContext.h</text>
</g>
<!-- Node4&#45;&gt;Node5 -->
<g id="edge12" class="edge"><title>Node4&#45;&gt;Node5</title>
<path fill="none" stroke="midnightblue" d="M1004.46,-232.362C1010.2,-224.431 1018.2,-213.389 1025.03,-203.961"/>
<polygon fill="midnightblue" stroke="midnightblue" points="1028.07,-205.723 1031.1,-195.571 1022.4,-201.617 1028.07,-205.723"/>
</g>
<!-- Node6 -->
<g id="node13" class="node"><title>Node6</title>
<polygon fill="white" stroke="#bfbfbf" points="1094.76,-174.5 1094.76,-195.5 1162.76,-195.5 1162.76,-174.5 1094.76,-174.5"/>
<text text-anchor="middle" x="1128.76" y="-182.5" font-family="Helvetica,sans-Serif" font-size="10.00">PContext.h</text>
</g>
<!-- Node4&#45;&gt;Node6 -->
<g id="edge14" class="edge"><title>Node4&#45;&gt;Node6</title>
<path fill="none" stroke="midnightblue" d="M1020.66,-232.497C1041.56,-223.315 1072.11,-209.889 1095.41,-199.652"/>
<polygon fill="midnightblue" stroke="midnightblue" points="1096.84,-202.848 1104.59,-195.621 1094.02,-196.44 1096.84,-202.848"/>
</g>
<!-- Node7 -->
<g id="node15" class="node"><title>Node7</title>
<polygon fill="white" stroke="#bfbfbf" points="1180.76,-174.5 1180.76,-195.5 1246.76,-195.5 1246.76,-174.5 1180.76,-174.5"/>
<text text-anchor="middle" x="1213.76" y="-182.5" font-family="Helvetica,sans-Serif" font-size="10.00">PPixmap.h</text>
</g>
<!-- Node4&#45;&gt;Node7 -->
<g id="edge16" class="edge"><title>Node4&#45;&gt;Node7</title>
<path fill="none" stroke="midnightblue" d="M1032.59,-233.422C1070.54,-223.278 1130.45,-207.266 1170.88,-196.459"/>
<polygon fill="midnightblue" stroke="midnightblue" points="1171.96,-199.794 1180.72,-193.831 1170.15,-193.032 1171.96,-199.794"/>
</g>
<!-- Node8 -->
<g id="node17" class="node"><title>Node8</title>
<a xlink:href="TaskBase_8h.htm" target="_top" xlink:title="TaskBase.h">
<polygon fill="white" stroke="black" points="1358.76,-174.5 1358.76,-195.5 1430.76,-195.5 1430.76,-174.5 1358.76,-174.5"/>
<text text-anchor="middle" x="1394.76" y="-182.5" font-family="Helvetica,sans-Serif" font-size="10.00">TaskBase.h</text>
</a>
</g>
<!-- Node4&#45;&gt;Node8 -->
<g id="edge18" class="edge"><title>Node4&#45;&gt;Node8</title>
<path fill="none" stroke="midnightblue" d="M1032.44,-238.143C1093,-229.849 1219.77,-212.271 1326.76,-196 1333.67,-194.949 1340.97,-193.804 1348.12,-192.664"/>
<polygon fill="midnightblue" stroke="midnightblue" points="1349.11,-196.05 1358.43,-191.007 1348,-189.138 1349.11,-196.05"/>
</g>
<!-- Node19 -->
<g id="node47" class="node"><title>Node19</title>
<a xlink:href="Mutex_8h.htm" target="_top" xlink:title="Mutex.h">
<polygon fill="white" stroke="black" points="1268.26,-116.5 1268.26,-137.5 1321.26,-137.5 1321.26,-116.5 1268.26,-116.5"/>
<text text-anchor="middle" x="1294.76" y="-124.5" font-family="Helvetica,sans-Serif" font-size="10.00">Mutex.h</text>
</a>
</g>
<!-- Node4&#45;&gt;Node19 -->
<g id="edge72" class="edge"><title>Node4&#45;&gt;Node19</title>
<path fill="none" stroke="midnightblue" d="M1032.27,-239.722C1106.24,-232.551 1271.45,-214.615 1288.76,-196 1300.55,-183.315 1300.97,-163.061 1299.09,-147.771"/>
<polygon fill="midnightblue" stroke="midnightblue" points="1302.51,-146.995 1297.43,-137.694 1295.6,-148.128 1302.51,-146.995"/>
</g>
<!-- Node4&#45;&gt;Node21 -->
<g id="edge74" class="edge"><title>Node4&#45;&gt;Node21</title>
<path fill="none" stroke="midnightblue" d="M961.148,-239.245C897.437,-232.346 759.544,-216.604 633.17,-196.148"/>
<polygon fill="midnightblue" stroke="midnightblue" points="633.363,-192.633 622.929,-194.476 632.235,-199.542 633.363,-192.633"/>
</g>
<!-- Node23 -->
<g id="node63" class="node"><title>Node23</title>
<a xlink:href="InputControl_8h.htm" target="_top" xlink:title="InputControl.h">
<polygon fill="white" stroke="black" points="640.258,-174.5 640.258,-195.5 723.258,-195.5 723.258,-174.5 640.258,-174.5"/>
<text text-anchor="middle" x="681.758" y="-182.5" font-family="Helvetica,sans-Serif" font-size="10.00">InputControl.h</text>
</a>
</g>
<!-- Node4&#45;&gt;Node23 -->
<g id="edge80" class="edge"><title>Node4&#45;&gt;Node23</title>
<path fill="none" stroke="midnightblue" d="M961.095,-237.152C912.019,-229.001 820.669,-213.455 733.527,-196.302"/>
<polygon fill="midnightblue" stroke="midnightblue" points="733.963,-192.82 723.473,-194.311 732.603,-199.687 733.963,-192.82"/>
</g>
<!-- Node25 -->
<g id="node67" class="node"><title>Node25</title>
<polygon fill="white" stroke="#bfbfbf" points="740.258,-174.5 740.258,-195.5 865.258,-195.5 865.258,-174.5 740.258,-174.5"/>
<text text-anchor="middle" x="802.758" y="-182.5" font-family="Helvetica,sans-Serif" font-size="10.00">webosDeviceKeymap.h</text>
</g>
<!-- Node4&#45;&gt;Node25 -->
<g id="edge84" class="edge"><title>Node4&#45;&gt;Node25</title>
<path fill="none" stroke="midnightblue" d="M961.626,-232.497C929.725,-222.959 882.502,-208.841 847.83,-198.475"/>
<polygon fill="midnightblue" stroke="midnightblue" points="848.54,-195.034 837.956,-195.523 846.535,-201.741 848.54,-195.034"/>
</g>
<!-- Node26 -->
<g id="node69" class="node"><title>Node26</title>
<polygon fill="white" stroke="#bfbfbf" points="882.258,-174.5 882.258,-195.5 911.258,-195.5 911.258,-174.5 882.258,-174.5"/>
<text text-anchor="middle" x="896.758" y="-182.5" font-family="Helvetica,sans-Serif" font-size="10.00">Qt</text>
</g>
<!-- Node4&#45;&gt;Node26 -->
<g id="edge86" class="edge"><title>Node4&#45;&gt;Node26</title>
<path fill="none" stroke="midnightblue" d="M978.417,-232.362C962.146,-222.925 938.278,-209.081 920.544,-198.795"/>
<polygon fill="midnightblue" stroke="midnightblue" points="921.816,-195.487 911.41,-193.498 918.304,-201.543 921.816,-195.487"/>
</g>
<!-- Node27 -->
<g id="node71" class="node"><title>Node27</title>
<polygon fill="white" stroke="#bfbfbf" points="928.758,-174.5 928.758,-195.5 982.758,-195.5 982.758,-174.5 928.758,-174.5"/>
<text text-anchor="middle" x="955.758" y="-182.5" font-family="Helvetica,sans-Serif" font-size="10.00">QImage</text>
</g>
<!-- Node4&#45;&gt;Node27 -->
<g id="edge88" class="edge"><title>Node4&#45;&gt;Node27</title>
<path fill="none" stroke="midnightblue" d="M989.238,-232.362C983.632,-224.431 975.826,-213.389 969.162,-203.961"/>
<polygon fill="midnightblue" stroke="midnightblue" points="971.861,-201.716 963.231,-195.571 966.145,-205.757 971.861,-201.716"/>
</g>
<!-- Node8&#45;&gt;Node2 -->
<g id="edge20" class="edge"><title>Node8&#45;&gt;Node2</title>
<path fill="none" stroke="midnightblue" d="M1358.74,-177.217C1323.01,-168.704 1271.89,-154.108 1259.76,-138 1236.41,-106.992 1241.82,-58.6886 1247.51,-31.4614"/>
<polygon fill="midnightblue" stroke="midnightblue" points="1250.97,-32.0384 1249.8,-21.508 1244.15,-30.4679 1250.97,-32.0384"/>
</g>
<!-- Node9 -->
<g id="node20" class="node"><title>Node9</title>
<polygon fill="white" stroke="#bfbfbf" points="1489.26,-0.5 1489.26,-21.5 1530.26,-21.5 1530.26,-0.5 1489.26,-0.5"/>
<text text-anchor="middle" x="1509.76" y="-8.5" font-family="Helvetica,sans-Serif" font-size="10.00">glib.h</text>
</g>
<!-- Node8&#45;&gt;Node9 -->
<g id="edge22" class="edge"><title>Node8&#45;&gt;Node9</title>
<path fill="none" stroke="midnightblue" d="M1430.77,-180.238C1475.94,-173.441 1549.47,-159.364 1565.76,-138 1591.97,-103.612 1553.92,-55.0358 1528.82,-29.0562"/>
<polygon fill="midnightblue" stroke="midnightblue" points="1531.08,-26.3608 1521.53,-21.7597 1526.12,-31.308 1531.08,-26.3608"/>
</g>
<!-- Node10 -->
<g id="node22" class="node"><title>Node10</title>
<polygon fill="white" stroke="#bfbfbf" points="1338.26,-116.5 1338.26,-137.5 1367.26,-137.5 1367.26,-116.5 1338.26,-116.5"/>
<text text-anchor="middle" x="1352.76" y="-124.5" font-family="Helvetica,sans-Serif" font-size="10.00">list</text>
</g>
<!-- Node8&#45;&gt;Node10 -->
<g id="edge24" class="edge"><title>Node8&#45;&gt;Node10</title>
<path fill="none" stroke="midnightblue" d="M1387.05,-174.362C1381.31,-166.431 1373.32,-155.389 1366.49,-145.961"/>
<polygon fill="midnightblue" stroke="midnightblue" points="1369.11,-143.617 1360.41,-137.571 1363.44,-147.723 1369.11,-143.617"/>
</g>
<!-- Node11 -->
<g id="node24" class="node"><title>Node11</title>
<a xlink:href="sptr_8h.htm" target="_top" xlink:title="sptr.h">
<polygon fill="white" stroke="black" points="1375.26,-58.5 1375.26,-79.5 1418.26,-79.5 1418.26,-58.5 1375.26,-58.5"/>
<text text-anchor="middle" x="1396.76" y="-66.5" font-family="Helvetica,sans-Serif" font-size="10.00">sptr.h</text>
</a>
</g>
<!-- Node8&#45;&gt;Node11 -->
<g id="edge26" class="edge"><title>Node8&#45;&gt;Node11</title>
<path fill="none" stroke="midnightblue" d="M1394.94,-174.295C1395.27,-155.131 1395.97,-114.654 1396.4,-89.8434"/>
<polygon fill="midnightblue" stroke="midnightblue" points="1399.9,-89.7381 1396.57,-79.6792 1392.9,-89.6173 1399.9,-89.7381"/>
</g>
<!-- Node12 -->
<g id="node28" class="node"><title>Node12</title>
<a xlink:href="AsyncCaller_8h.htm" target="_top" xlink:title="AsyncCaller.h">
<polygon fill="white" stroke="black" points="1435.26,-58.5 1435.26,-79.5 1516.26,-79.5 1516.26,-58.5 1435.26,-58.5"/>
<text text-anchor="middle" x="1475.76" y="-66.5" font-family="Helvetica,sans-Serif" font-size="10.00">AsyncCaller.h</text>
</a>
</g>
<!-- Node8&#45;&gt;Node12 -->
<g id="edge32" class="edge"><title>Node8&#45;&gt;Node12</title>
<path fill="none" stroke="midnightblue" d="M1402.23,-174.295C1415.92,-154.7 1445.16,-112.82 1462.36,-88.1913"/>
<polygon fill="midnightblue" stroke="midnightblue" points="1465.45,-89.882 1468.3,-79.6792 1459.71,-85.8744 1465.45,-89.882"/>
</g>
<!-- Node8&#45;&gt;Node13 -->
<g id="edge38" class="edge"><title>Node8&#45;&gt;Node13</title>
<path fill="none" stroke="midnightblue" d="M1430.85,-178.29C1490.78,-167.15 1610.14,-144.962 1670.3,-133.778"/>
<polygon fill="midnightblue" stroke="midnightblue" points="1671.28,-137.156 1680.47,-131.887 1670,-130.274 1671.28,-137.156"/>
</g>
<!-- Node8&#45;&gt;Node19 -->
<g id="edge56" class="edge"><title>Node8&#45;&gt;Node19</title>
<path fill="none" stroke="midnightblue" d="M1376.42,-174.362C1361.19,-165.532 1339.32,-152.844 1322.04,-142.822"/>
<polygon fill="midnightblue" stroke="midnightblue" points="1323.39,-139.56 1312.98,-137.571 1319.88,-145.615 1323.39,-139.56"/>
</g>
<!-- Node20 -->
<g id="node52" class="node"><title>Node20</title>
<a xlink:href="SingletonTimer_8h.htm" target="_top" xlink:title="SingletonTimer.h">
<polygon fill="white" stroke="black" points="1460.76,-116.5 1460.76,-137.5 1556.76,-137.5 1556.76,-116.5 1460.76,-116.5"/>
<text text-anchor="middle" x="1508.76" y="-124.5" font-family="Helvetica,sans-Serif" font-size="10.00">SingletonTimer.h</text>
</a>
</g>
<!-- Node8&#45;&gt;Node20 -->
<g id="edge64" class="edge"><title>Node8&#45;&gt;Node20</title>
<path fill="none" stroke="midnightblue" d="M1415.4,-174.497C1433.13,-165.479 1458.9,-152.365 1478.88,-142.201"/>
<polygon fill="midnightblue" stroke="midnightblue" points="1480.56,-145.275 1487.88,-137.621 1477.38,-139.036 1480.56,-145.275"/>
</g>
<!-- Node11&#45;&gt;Node2 -->
<g id="edge28" class="edge"><title>Node11&#45;&gt;Node2</title>
<path fill="none" stroke="midnightblue" d="M1375.2,-60.3168C1352.28,-51.0852 1315.66,-36.3335 1288.43,-25.3661"/>
<polygon fill="midnightblue" stroke="midnightblue" points="1289.45,-22.0035 1278.86,-21.5139 1286.83,-28.4966 1289.45,-22.0035"/>
</g>
<!-- Node11&#45;&gt;Node9 -->
<g id="edge30" class="edge"><title>Node11&#45;&gt;Node9</title>
<path fill="none" stroke="midnightblue" d="M1417.22,-58.4966C1434.79,-49.4786 1460.34,-36.3649 1480.14,-26.2006"/>
<polygon fill="midnightblue" stroke="midnightblue" points="1481.77,-29.3014 1489.07,-21.6212 1478.57,-23.0738 1481.77,-29.3014"/>
</g>
<!-- Node12&#45;&gt;Node2 -->
<g id="edge34" class="edge"><title>Node12&#45;&gt;Node2</title>
<path fill="none" stroke="midnightblue" d="M1435.37,-58.4966C1396.03,-48.2646 1336.42,-32.7601 1296.1,-22.2732"/>
<polygon fill="midnightblue" stroke="midnightblue" points="1296.85,-18.8514 1286.29,-19.7214 1295.09,-25.626 1296.85,-18.8514"/>
</g>
<!-- Node12&#45;&gt;Node9 -->
<g id="edge36" class="edge"><title>Node12&#45;&gt;Node9</title>
<path fill="none" stroke="midnightblue" d="M1481.99,-58.3619C1486.6,-50.5131 1492.98,-39.6159 1498.47,-30.2527"/>
<polygon fill="midnightblue" stroke="midnightblue" points="1501.52,-31.9677 1503.56,-21.5707 1495.49,-28.4276 1501.52,-31.9677"/>
</g>
<!-- Node13&#45;&gt;Node2 -->
<g id="edge40" class="edge"><title>Node13&#45;&gt;Node2</title>
<path fill="none" stroke="midnightblue" d="M1704.18,-116.249C1699.81,-100.561 1689.33,-71.7706 1668.76,-58 1638.28,-37.5952 1397.22,-20.1473 1296.62,-13.6796"/>
<polygon fill="midnightblue" stroke="midnightblue" points="1296.69,-10.1768 1286.48,-13.0346 1296.24,-17.1626 1296.69,-10.1768"/>
</g>
<!-- Node13&#45;&gt;Node9 -->
<g id="edge44" class="edge"><title>Node13&#45;&gt;Node9</title>
<path fill="none" stroke="midnightblue" d="M1709.49,-116.235C1712.58,-101.31 1715.56,-74.3303 1701.76,-58 1681.18,-33.6394 1589.27,-19.8773 1540.46,-14.165"/>
<polygon fill="midnightblue" stroke="midnightblue" points="1540.79,-10.6796 1530.46,-13.0365 1540,-17.6355 1540.79,-10.6796"/>
</g>
<!-- Node13&#45;&gt;Node11 -->
<g id="edge54" class="edge"><title>Node13&#45;&gt;Node11</title>
<path fill="none" stroke="midnightblue" d="M1680.55,-124.243C1632.19,-118.807 1525.64,-105.205 1428.26,-80.0747"/>
<polygon fill="midnightblue" stroke="midnightblue" points="1429.12,-76.6834 1418.56,-77.5257 1427.35,-83.4534 1429.12,-76.6834"/>
</g>
<!-- Node14 -->
<g id="node35" class="node"><title>Node14</title>
<polygon fill="white" stroke="#bfbfbf" points="1609.76,-58.5 1609.76,-79.5 1659.76,-79.5 1659.76,-58.5 1609.76,-58.5"/>
<text text-anchor="middle" x="1634.76" y="-66.5" font-family="Helvetica,sans-Serif" font-size="10.00">stdint.h</text>
</g>
<!-- Node13&#45;&gt;Node14 -->
<g id="edge42" class="edge"><title>Node13&#45;&gt;Node14</title>
<path fill="none" stroke="midnightblue" d="M1693.55,-116.362C1683,-107.859 1668,-95.7785 1655.8,-85.9466"/>
<polygon fill="midnightblue" stroke="midnightblue" points="1657.86,-83.1183 1647.88,-79.5707 1653.47,-88.5696 1657.86,-83.1183"/>
</g>
<!-- Node15 -->
<g id="node38" class="node"><title>Node15</title>
<polygon fill="white" stroke="#bfbfbf" points="1753.26,-58.5 1753.26,-79.5 1800.26,-79.5 1800.26,-58.5 1753.26,-58.5"/>
<text text-anchor="middle" x="1776.76" y="-66.5" font-family="Helvetica,sans-Serif" font-size="10.00">stdio.h</text>
</g>
<!-- Node13&#45;&gt;Node15 -->
<g id="edge46" class="edge"><title>Node13&#45;&gt;Node15</title>
<path fill="none" stroke="midnightblue" d="M1719.6,-116.362C1729.76,-107.941 1744.16,-96.0105 1755.96,-86.2308"/>
<polygon fill="midnightblue" stroke="midnightblue" points="1758.53,-88.6459 1764,-79.5707 1754.07,-83.2558 1758.53,-88.6459"/>
</g>
<!-- Node16 -->
<g id="node40" class="node"><title>Node16</title>
<polygon fill="white" stroke="#bfbfbf" points="1817.26,-58.5 1817.26,-79.5 1868.26,-79.5 1868.26,-58.5 1817.26,-58.5"/>
<text text-anchor="middle" x="1842.76" y="-66.5" font-family="Helvetica,sans-Serif" font-size="10.00">string.h</text>
</g>
<!-- Node13&#45;&gt;Node16 -->
<g id="edge48" class="edge"><title>Node13&#45;&gt;Node16</title>
<path fill="none" stroke="midnightblue" d="M1731.39,-116.497C1752.92,-107.315 1784.4,-93.8889 1808.4,-83.6516"/>
<polygon fill="midnightblue" stroke="midnightblue" points="1810.03,-86.7636 1817.85,-79.6212 1807.28,-80.3247 1810.03,-86.7636"/>
</g>
<!-- Node17 -->
<g id="node42" class="node"><title>Node17</title>
<polygon fill="white" stroke="#bfbfbf" points="1885.76,-58.5 1885.76,-79.5 1971.76,-79.5 1971.76,-58.5 1885.76,-58.5"/>
<text text-anchor="middle" x="1928.76" y="-66.5" font-family="Helvetica,sans-Serif" font-size="10.00">qnamespace.h</text>
</g>
<!-- Node13&#45;&gt;Node17 -->
<g id="edge50" class="edge"><title>Node13&#45;&gt;Node17</title>
<path fill="none" stroke="midnightblue" d="M1733.1,-120.119C1768.76,-110.801 1833.13,-93.9833 1878.27,-82.1896"/>
<polygon fill="midnightblue" stroke="midnightblue" points="1879.37,-85.5196 1888.17,-79.6054 1877.61,-78.7469 1879.37,-85.5196"/>
</g>
<!-- Node18 -->
<g id="node44" class="node"><title>Node18</title>
<polygon fill="white" stroke="#bfbfbf" points="1989.76,-58.5 1989.76,-79.5 2077.76,-79.5 2077.76,-58.5 1989.76,-58.5"/>
<text text-anchor="middle" x="2033.76" y="-66.5" font-family="Helvetica,sans-Serif" font-size="10.00">SysMgrEvent.h</text>
</g>
<!-- Node13&#45;&gt;Node18 -->
<g id="edge52" class="edge"><title>Node13&#45;&gt;Node18</title>
<path fill="none" stroke="midnightblue" d="M1732.88,-122.83C1780.06,-115.232 1882.82,-98.3755 1979.59,-80.1777"/>
<polygon fill="midnightblue" stroke="midnightblue" points="1980.36,-83.5942 1989.53,-78.2983 1979.06,-76.7159 1980.36,-83.5942"/>
</g>
<!-- Node19&#45;&gt;Node2 -->
<g id="edge58" class="edge"><title>Node19&#45;&gt;Node2</title>
<path fill="none" stroke="midnightblue" d="M1290.88,-116.295C1283.88,-96.9588 1269.02,-55.9229 1260.06,-31.1767"/>
<polygon fill="midnightblue" stroke="midnightblue" points="1263.32,-29.8903 1256.62,-21.6792 1256.74,-32.2734 1263.32,-29.8903"/>
</g>
<!-- Node19&#45;&gt;Node9 -->
<g id="edge62" class="edge"><title>Node19&#45;&gt;Node9</title>
<path fill="none" stroke="midnightblue" d="M1303.17,-116.359C1315.57,-101.333 1340.19,-73.9557 1366.76,-58 1402.43,-36.5766 1449.05,-23.6207 1479.2,-16.8869"/>
<polygon fill="midnightblue" stroke="midnightblue" points="1480.08,-20.2766 1489.13,-14.7609 1478.62,-13.4317 1480.08,-20.2766"/>
</g>
<!-- Node19&#45;&gt;Node11 -->
<g id="edge60" class="edge"><title>Node19&#45;&gt;Node11</title>
<path fill="none" stroke="midnightblue" d="M1313.47,-116.362C1329.14,-107.45 1351.72,-94.6087 1369.42,-84.5447"/>
<polygon fill="midnightblue" stroke="midnightblue" points="1371.21,-87.5562 1378.17,-79.5707 1367.75,-81.4712 1371.21,-87.5562"/>
</g>
<!-- Node20&#45;&gt;Node2 -->
<g id="edge66" class="edge"><title>Node20&#45;&gt;Node2</title>
<path fill="none" stroke="midnightblue" d="M1468.98,-116.436C1439.99,-108.12 1400.13,-95.3832 1366.76,-80 1333.89,-64.8478 1298.62,-42.4462 1276.16,-27.3145"/>
<polygon fill="midnightblue" stroke="midnightblue" points="1277.88,-24.2511 1267.64,-21.512 1273.94,-30.0356 1277.88,-24.2511"/>
</g>
<!-- Node20&#45;&gt;Node9 -->
<g id="edge68" class="edge"><title>Node20&#45;&gt;Node9</title>
<path fill="none" stroke="midnightblue" d="M1513.48,-116.432C1517.38,-107.072 1522.62,-92.9258 1524.76,-80 1527.5,-63.4232 1523.01,-44.8177 1518.24,-31.1077"/>
<polygon fill="midnightblue" stroke="midnightblue" points="1521.48,-29.7929 1514.66,-21.6925 1514.94,-32.2835 1521.48,-29.7929"/>
</g>
<!-- Node20&#45;&gt;Node14 -->
<g id="edge70" class="edge"><title>Node20&#45;&gt;Node14</title>
<path fill="none" stroke="midnightblue" d="M1531.58,-116.497C1551.34,-107.397 1580.17,-94.1273 1602.33,-83.9253"/>
<polygon fill="midnightblue" stroke="midnightblue" points="1604.06,-86.982 1611.68,-79.6212 1601.14,-80.6234 1604.06,-86.982"/>
</g>
<!-- Node21&#45;&gt;Node2 -->
<g id="edge76" class="edge"><title>Node21&#45;&gt;Node2</title>
<path fill="none" stroke="midnightblue" d="M617.775,-174.442C737.555,-143.611 1086.12,-53.8919 1209.14,-22.2264"/>
<polygon fill="midnightblue" stroke="midnightblue" points="1210.16,-25.5784 1218.97,-19.6961 1208.42,-18.7993 1210.16,-25.5784"/>
</g>
<!-- Node22 -->
<g id="node61" class="node"><title>Node22</title>
<polygon fill="white" stroke="#bfbfbf" points="427.758,-116.5 427.758,-137.5 479.758,-137.5 479.758,-116.5 427.758,-116.5"/>
<text text-anchor="middle" x="453.758" y="-124.5" font-family="Helvetica,sans-Serif" font-size="10.00">QEvent</text>
</g>
<!-- Node21&#45;&gt;Node22 -->
<g id="edge78" class="edge"><title>Node21&#45;&gt;Node22</title>
<path fill="none" stroke="midnightblue" d="M554.484,-174.497C535.186,-165.397 507.045,-152.127 485.41,-141.925"/>
<polygon fill="midnightblue" stroke="midnightblue" points="486.82,-138.721 476.283,-137.621 483.835,-145.052 486.82,-138.721"/>
</g>
<!-- Node24 -->
<g id="node65" class="node"><title>Node24</title>
<polygon fill="white" stroke="#bfbfbf" points="558.758,-116.5 558.758,-137.5 614.758,-137.5 614.758,-116.5 558.758,-116.5"/>
<text text-anchor="middle" x="586.758" y="-124.5" font-family="Helvetica,sans-Serif" font-size="10.00">hal/hal.h</text>
</g>
<!-- Node23&#45;&gt;Node24 -->
<g id="edge82" class="edge"><title>Node23&#45;&gt;Node24</title>
<path fill="none" stroke="midnightblue" d="M664.334,-174.362C649.871,-165.532 629.089,-152.844 612.674,-142.822"/>
<polygon fill="midnightblue" stroke="midnightblue" points="614.431,-139.794 604.072,-137.571 610.784,-145.769 614.431,-139.794"/>
</g>
<!-- Node30&#45;&gt;Node21 -->
<g id="edge114" class="edge"><title>Node30&#45;&gt;Node21</title>
<path fill="none" stroke="midnightblue" d="M333.017,-232.472C380.263,-223.444 450.347,-209.99 520.633,-196.212"/>
<polygon fill="midnightblue" stroke="midnightblue" points="521.411,-199.627 530.55,-194.266 520.063,-192.758 521.411,-199.627"/>
</g>
<!-- Node30&#45;&gt;Node22 -->
<g id="edge106" class="edge"><title>Node30&#45;&gt;Node22</title>
<path fill="none" stroke="midnightblue" d="M304,-232.337C323.87,-223.753 351.458,-210.722 373.758,-196 396.699,-180.855 420.199,-159.794 435.74,-144.934"/>
<polygon fill="midnightblue" stroke="midnightblue" points="438.359,-147.27 443.096,-137.793 433.483,-142.247 438.359,-147.27"/>
</g>
<!-- Node30&#45;&gt;Node24 -->
<g id="edge112" class="edge"><title>Node30&#45;&gt;Node24</title>
<path fill="none" stroke="midnightblue" d="M306.771,-232.445C331.813,-223.209 368.878,-209.235 400.758,-196 422.806,-186.847 427.556,-182.771 449.758,-174 482.876,-160.916 521.275,-147.926 548.979,-138.929"/>
<polygon fill="midnightblue" stroke="midnightblue" points="550.23,-142.203 558.672,-135.803 548.081,-135.542 550.23,-142.203"/>
</g>
<!-- Node31 -->
<g id="node81" class="node"><title>Node31</title>
<polygon fill="white" stroke="#bfbfbf" points="316.758,-174.5 316.758,-195.5 364.758,-195.5 364.758,-174.5 316.758,-174.5"/>
<text text-anchor="middle" x="340.758" y="-182.5" font-family="Helvetica,sans-Serif" font-size="10.00">limits.h</text>
</g>
<!-- Node30&#45;&gt;Node31 -->
<g id="edge100" class="edge"><title>Node30&#45;&gt;Node31</title>
<path fill="none" stroke="midnightblue" d="M289.314,-232.362C298.372,-224.023 311.168,-212.242 321.732,-202.516"/>
<polygon fill="midnightblue" stroke="midnightblue" points="324.29,-204.919 329.276,-195.571 319.549,-199.769 324.29,-204.919"/>
</g>
<!-- Node30&#45;&gt;Node32 -->
<g id="edge102" class="edge"><title>Node30&#45;&gt;Node32</title>
<path fill="none" stroke="midnightblue" d="M315.426,-232.497C352.986,-222.023 410.357,-206.025 447.963,-195.539"/>
<polygon fill="midnightblue" stroke="midnightblue" points="449.32,-198.794 458.012,-192.737 447.44,-192.052 449.32,-198.794"/>
</g>
<!-- Node33 -->
<g id="node85" class="node"><title>Node33</title>
<polygon fill="white" stroke="#bfbfbf" points="84.2584,-174.5 84.2584,-195.5 175.258,-195.5 175.258,-174.5 84.2584,-174.5"/>
<text text-anchor="middle" x="129.758" y="-182.5" font-family="Helvetica,sans-Serif" font-size="10.00">QSocketNotifier</text>
</g>
<!-- Node30&#45;&gt;Node33 -->
<g id="edge104" class="edge"><title>Node30&#45;&gt;Node33</title>
<path fill="none" stroke="midnightblue" d="M250.957,-232.497C227.32,-223.234 192.658,-209.65 166.45,-199.379"/>
<polygon fill="midnightblue" stroke="midnightblue" points="167.448,-196.011 156.861,-195.621 164.894,-202.529 167.448,-196.011"/>
</g>
<!-- Node34 -->
<g id="node88" class="node"><title>Node34</title>
<polygon fill="white" stroke="#bfbfbf" points="192.758,-174.5 192.758,-195.5 238.758,-195.5 238.758,-174.5 192.758,-174.5"/>
<text text-anchor="middle" x="215.758" y="-182.5" font-family="Helvetica,sans-Serif" font-size="10.00">vector</text>
</g>
<!-- Node30&#45;&gt;Node34 -->
<g id="edge108" class="edge"><title>Node30&#45;&gt;Node34</title>
<path fill="none" stroke="midnightblue" d="M266.387,-232.362C257.472,-224.023 244.879,-212.242 234.483,-202.516"/>
<polygon fill="midnightblue" stroke="midnightblue" points="236.752,-199.846 227.058,-195.571 231.97,-204.958 236.752,-199.846"/>
</g>
<!-- Node35 -->
<g id="node90" class="node"><title>Node35</title>
<polygon fill="white" stroke="#bfbfbf" points="256.258,-174.5 256.258,-195.5 299.258,-195.5 299.258,-174.5 256.258,-174.5"/>
<text text-anchor="middle" x="277.758" y="-182.5" font-family="Helvetica,sans-Serif" font-size="10.00">string</text>
</g>
<!-- Node30&#45;&gt;Node35 -->
<g id="edge110" class="edge"><title>Node30&#45;&gt;Node35</title>
<path fill="none" stroke="midnightblue" d="M277.758,-232.362C277.758,-224.922 277.758,-214.743 277.758,-205.728"/>
<polygon fill="midnightblue" stroke="midnightblue" points="281.258,-205.571 277.758,-195.571 274.258,-205.571 281.258,-205.571"/>
</g>
</g>
</svg>
