<?xml version="1.0" encoding="UTF-8" standalone="no"?>
<!DOCTYPE svg PUBLIC "-//W3C//DTD SVG 1.1//EN"
 "http://www.w3.org/Graphics/SVG/1.1/DTD/svg11.dtd">
<!-- Generated by graphviz version 2.26.3 (20100126.1600)
 -->
<!-- Title: G Pages: 1 -->
<svg width="3142pt" height="320pt"
 viewBox="0.00 0.00 3142.00 320.00" xmlns="http://www.w3.org/2000/svg" xmlns:xlink="http://www.w3.org/1999/xlink">
<g id="graph1" class="graph" transform="scale(1 1) rotate(0) translate(4 316)">
<title>G</title>
<polygon fill="white" stroke="white" points="-4,5 -4,-316 3139,-316 3139,5 -4,5"/>
<!-- Node1 -->
<g id="node1" class="node"><title>Node1</title>
<polygon fill="#bfbfbf" stroke="black" points="1663.5,-290.5 1663.5,-311.5 1740.5,-311.5 1740.5,-290.5 1663.5,-290.5"/>
<text text-anchor="middle" x="1702" y="-298.5" font-family="Helvetica,sans-Serif" font-size="10.00">HostArm.cpp</text>
</g>
<!-- Node2 -->
<g id="node3" class="node"><title>Node2</title>
<a xlink:href="Common_8h.htm" target="_top" xlink:title="Common.h">
<polygon fill="white" stroke="black" points="798.5,-0.5 798.5,-21.5 865.5,-21.5 865.5,-0.5 798.5,-0.5"/>
<text text-anchor="middle" x="832" y="-8.5" font-family="Helvetica,sans-Serif" font-size="10.00">Common.h</text>
</a>
</g>
<!-- Node1&#45;&gt;Node2 -->
<g id="edge2" class="edge"><title>Node1&#45;&gt;Node2</title>
<path fill="none" stroke="midnightblue" d="M1663.22,-300.59C1424.24,-297.973 159.2,-282.794 83,-254 38.1257,-237.043 0,-232.971 0,-185 0,-185 0,-185 0,-127 0,-89.3873 16.1119,-76.2507 49,-58 113.676,-22.1093 632.516,-13.286 788.073,-11.4375"/>
<polygon fill="midnightblue" stroke="midnightblue" points="788.252,-14.9358 798.211,-11.3209 788.171,-7.93623 788.252,-14.9358"/>
</g>
<!-- Node3 -->
<g id="node5" class="node"><title>Node3</title>
<polygon fill="white" stroke="#bfbfbf" points="1494.5,-0.5 1494.5,-21.5 1541.5,-21.5 1541.5,-0.5 1494.5,-0.5"/>
<text text-anchor="middle" x="1518" y="-8.5" font-family="Helvetica,sans-Serif" font-size="10.00">stdio.h</text>
</g>
<!-- Node1&#45;&gt;Node3 -->
<g id="edge4" class="edge"><title>Node1&#45;&gt;Node3</title>
<path fill="none" stroke="midnightblue" d="M1676.69,-290.399C1660.51,-282.48 1640.17,-270.23 1627,-254 1568.54,-181.928 1600.26,-139.017 1555,-58 1549.3,-47.8008 1541.47,-37.4892 1534.47,-29.1336"/>
<polygon fill="midnightblue" stroke="midnightblue" points="1537.06,-26.7761 1527.87,-21.5066 1531.77,-31.3578 1537.06,-26.7761"/>
</g>
<!-- Node4 -->
<g id="node7" class="node"><title>Node4</title>
<polygon fill="white" stroke="#bfbfbf" points="1781.5,-232.5 1781.5,-253.5 1830.5,-253.5 1830.5,-232.5 1781.5,-232.5"/>
<text text-anchor="middle" x="1806" y="-240.5" font-family="Helvetica,sans-Serif" font-size="10.00">stdlib.h</text>
</g>
<!-- Node1&#45;&gt;Node4 -->
<g id="edge6" class="edge"><title>Node1&#45;&gt;Node4</title>
<path fill="none" stroke="midnightblue" d="M1721.08,-290.362C1737.05,-281.45 1760.08,-268.609 1778.13,-258.545"/>
<polygon fill="midnightblue" stroke="midnightblue" points="1780.02,-261.498 1787.05,-253.571 1776.61,-255.385 1780.02,-261.498"/>
</g>
<!-- Node5 -->
<g id="node9" class="node"><title>Node5</title>
<polygon fill="white" stroke="#bfbfbf" points="1627,-0.5 1627,-21.5 1677,-21.5 1677,-0.5 1627,-0.5"/>
<text text-anchor="middle" x="1652" y="-8.5" font-family="Helvetica,sans-Serif" font-size="10.00">stdint.h</text>
</g>
<!-- Node1&#45;&gt;Node5 -->
<g id="edge8" class="edge"><title>Node1&#45;&gt;Node5</title>
<path fill="none" stroke="midnightblue" d="M1690.87,-290.378C1673.42,-272.776 1640.62,-235.556 1631,-196 1623.51,-165.216 1639.8,-73.1026 1647.85,-31.6337"/>
<polygon fill="midnightblue" stroke="midnightblue" points="1651.33,-32.0792 1649.83,-21.591 1644.46,-30.725 1651.33,-32.0792"/>
</g>
<!-- Node6 -->
<g id="node11" class="node"><title>Node6</title>
<polygon fill="white" stroke="#bfbfbf" points="1847.5,-232.5 1847.5,-253.5 1900.5,-253.5 1900.5,-232.5 1847.5,-232.5"/>
<text text-anchor="middle" x="1874" y="-240.5" font-family="Helvetica,sans-Serif" font-size="10.00">unistd.h</text>
</g>
<!-- Node1&#45;&gt;Node6 -->
<g id="edge10" class="edge"><title>Node1&#45;&gt;Node6</title>
<path fill="none" stroke="midnightblue" d="M1733.15,-290.497C1762.59,-280.57 1806.74,-265.68 1837.75,-255.225"/>
<polygon fill="midnightblue" stroke="midnightblue" points="1838.96,-258.51 1847.32,-251.998 1836.72,-251.876 1838.96,-258.51"/>
</g>
<!-- Node7 -->
<g id="node13" class="node"><title>Node7</title>
<polygon fill="white" stroke="#bfbfbf" points="1558.5,-0.5 1558.5,-21.5 1609.5,-21.5 1609.5,-0.5 1558.5,-0.5"/>
<text text-anchor="middle" x="1584" y="-8.5" font-family="Helvetica,sans-Serif" font-size="10.00">string.h</text>
</g>
<!-- Node1&#45;&gt;Node7 -->
<g id="edge12" class="edge"><title>Node1&#45;&gt;Node7</title>
<path fill="none" stroke="midnightblue" d="M1682.21,-290.364C1668.7,-282.135 1651.44,-269.534 1641,-254 1616.23,-217.143 1594.59,-83.539 1586.94,-31.7304"/>
<polygon fill="midnightblue" stroke="midnightblue" points="1590.39,-31.1116 1585.49,-21.7177 1583.46,-32.1167 1590.39,-31.1116"/>
</g>
<!-- Node8 -->
<g id="node15" class="node"><title>Node8</title>
<polygon fill="white" stroke="#bfbfbf" points="1917.5,-232.5 1917.5,-253.5 1974.5,-253.5 1974.5,-232.5 1917.5,-232.5"/>
<text text-anchor="middle" x="1946" y="-240.5" font-family="Helvetica,sans-Serif" font-size="10.00">linux/fb.h</text>
</g>
<!-- Node1&#45;&gt;Node8 -->
<g id="edge14" class="edge"><title>Node1&#45;&gt;Node8</title>
<path fill="none" stroke="midnightblue" d="M1740.72,-293.004C1780.4,-284.632 1844.11,-270.708 1907.6,-254.266"/>
<polygon fill="midnightblue" stroke="midnightblue" points="1908.58,-257.627 1917.37,-251.714 1906.81,-250.854 1908.58,-257.627"/>
</g>
<!-- Node9 -->
<g id="node17" class="node"><title>Node9</title>
<polygon fill="white" stroke="#bfbfbf" points="1992,-232.5 1992,-253.5 2052,-253.5 2052,-232.5 1992,-232.5"/>
<text text-anchor="middle" x="2022" y="-240.5" font-family="Helvetica,sans-Serif" font-size="10.00">linux/kd.h</text>
</g>
<!-- Node1&#45;&gt;Node9 -->
<g id="edge16" class="edge"><title>Node1&#45;&gt;Node9</title>
<path fill="none" stroke="midnightblue" d="M1740.89,-295.865C1793.45,-288.626 1890.22,-274.244 1981.85,-254.082"/>
<polygon fill="midnightblue" stroke="midnightblue" points="1982.85,-257.446 1991.85,-251.855 1981.33,-250.614 1982.85,-257.446"/>
</g>
<!-- Node10 -->
<g id="node19" class="node"><title>Node10</title>
<polygon fill="white" stroke="#bfbfbf" points="2069.5,-232.5 2069.5,-253.5 2140.5,-253.5 2140.5,-232.5 2069.5,-232.5"/>
<text text-anchor="middle" x="2105" y="-240.5" font-family="Helvetica,sans-Serif" font-size="10.00">linux/input.h</text>
</g>
<!-- Node1&#45;&gt;Node10 -->
<g id="edge18" class="edge"><title>Node1&#45;&gt;Node10</title>
<path fill="none" stroke="midnightblue" d="M1740.75,-297.401C1805.01,-291.111 1937.84,-276.762 2058.88,-254.26"/>
<polygon fill="midnightblue" stroke="midnightblue" points="2059.88,-257.634 2069.06,-252.343 2058.58,-250.755 2059.88,-257.634"/>
</g>
<!-- Node11 -->
<g id="node21" class="node"><title>Node11</title>
<polygon fill="white" stroke="#bfbfbf" points="2158,-232.5 2158,-253.5 2230,-253.5 2230,-232.5 2158,-232.5"/>
<text text-anchor="middle" x="2194" y="-240.5" font-family="Helvetica,sans-Serif" font-size="10.00">sys/mman.h</text>
</g>
<!-- Node1&#45;&gt;Node11 -->
<g id="edge20" class="edge"><title>Node1&#45;&gt;Node11</title>
<path fill="none" stroke="midnightblue" d="M1740.51,-298.708C1816.53,-293.807 1991.36,-280.662 2147.48,-254.08"/>
<polygon fill="midnightblue" stroke="midnightblue" points="2148.48,-257.459 2157.74,-252.309 2147.29,-250.561 2148.48,-257.459"/>
</g>
<!-- Node12 -->
<g id="node23" class="node"><title>Node12</title>
<polygon fill="white" stroke="#bfbfbf" points="2248,-232.5 2248,-253.5 2310,-253.5 2310,-232.5 2248,-232.5"/>
<text text-anchor="middle" x="2279" y="-240.5" font-family="Helvetica,sans-Serif" font-size="10.00">sys/ioctl.h</text>
</g>
<!-- Node1&#45;&gt;Node12 -->
<g id="edge22" class="edge"><title>Node1&#45;&gt;Node12</title>
<path fill="none" stroke="midnightblue" d="M1740.73,-300.011C1828.01,-297.27 2046.68,-287.534 2237.74,-253.963"/>
<polygon fill="midnightblue" stroke="midnightblue" points="2238.45,-257.391 2247.68,-252.19 2237.22,-250.5 2238.45,-257.391"/>
</g>
<!-- Node13 -->
<g id="node25" class="node"><title>Node13</title>
<polygon fill="white" stroke="#bfbfbf" points="2327.5,-232.5 2327.5,-253.5 2396.5,-253.5 2396.5,-232.5 2327.5,-232.5"/>
<text text-anchor="middle" x="2362" y="-240.5" font-family="Helvetica,sans-Serif" font-size="10.00">sys/types.h</text>
</g>
<!-- Node1&#45;&gt;Node13 -->
<g id="edge24" class="edge"><title>Node1&#45;&gt;Node13</title>
<path fill="none" stroke="midnightblue" d="M1740.55,-300.394C1836.63,-298.386 2094.53,-289.954 2317.46,-254.03"/>
<polygon fill="midnightblue" stroke="midnightblue" points="2318.07,-257.476 2327.38,-252.41 2316.94,-250.568 2318.07,-257.476"/>
</g>
<!-- Node14 -->
<g id="node27" class="node"><title>Node14</title>
<polygon fill="white" stroke="#bfbfbf" points="2413.5,-232.5 2413.5,-253.5 2474.5,-253.5 2474.5,-232.5 2413.5,-232.5"/>
<text text-anchor="middle" x="2444" y="-240.5" font-family="Helvetica,sans-Serif" font-size="10.00">sys/stat.h</text>
</g>
<!-- Node1&#45;&gt;Node14 -->
<g id="edge26" class="edge"><title>Node1&#45;&gt;Node14</title>
<path fill="none" stroke="midnightblue" d="M1740.79,-299.472C1865.59,-294.391 2256.65,-277.163 2403.35,-253.939"/>
<polygon fill="midnightblue" stroke="midnightblue" points="2404.19,-257.347 2413.48,-252.257 2403.04,-250.442 2404.19,-257.347"/>
</g>
<!-- Node15 -->
<g id="node29" class="node"><title>Node15</title>
<polygon fill="white" stroke="#bfbfbf" points="2492,-232.5 2492,-253.5 2536,-253.5 2536,-232.5 2492,-232.5"/>
<text text-anchor="middle" x="2514" y="-240.5" font-family="Helvetica,sans-Serif" font-size="10.00">fcntl.h</text>
</g>
<!-- Node1&#45;&gt;Node15 -->
<g id="edge28" class="edge"><title>Node1&#45;&gt;Node15</title>
<path fill="none" stroke="midnightblue" d="M1740.8,-300.104C1875.02,-296.785 2319.81,-283.902 2482.05,-253.621"/>
<polygon fill="midnightblue" stroke="midnightblue" points="2482.72,-257.055 2491.86,-251.696 2481.37,-250.186 2482.72,-257.055"/>
</g>
<!-- Node16 -->
<g id="node31" class="node"><title>Node16</title>
<polygon fill="white" stroke="#bfbfbf" points="2554,-232.5 2554,-253.5 2604,-253.5 2604,-232.5 2554,-232.5"/>
<text text-anchor="middle" x="2579" y="-240.5" font-family="Helvetica,sans-Serif" font-size="10.00">errno.h</text>
</g>
<!-- Node1&#45;&gt;Node16 -->
<g id="edge30" class="edge"><title>Node1&#45;&gt;Node16</title>
<path fill="none" stroke="midnightblue" d="M1740.83,-300.159C1882.02,-296.9 2368.55,-283.857 2544.07,-253.681"/>
<polygon fill="midnightblue" stroke="midnightblue" points="2544.71,-257.121 2553.94,-251.904 2543.47,-250.232 2544.71,-257.121"/>
</g>
<!-- Node17 -->
<g id="node33" class="node"><title>Node17</title>
<polygon fill="white" stroke="#bfbfbf" points="1639.5,-174.5 1639.5,-195.5 1702.5,-195.5 1702.5,-174.5 1639.5,-174.5"/>
<text text-anchor="middle" x="1671" y="-182.5" font-family="Helvetica,sans-Serif" font-size="10.00">sys/time.h</text>
</g>
<!-- Node1&#45;&gt;Node17 -->
<g id="edge32" class="edge"><title>Node1&#45;&gt;Node17</title>
<path fill="none" stroke="midnightblue" d="M1691.71,-290.475C1683.78,-281.58 1673.45,-268.07 1669,-254 1664.04,-238.311 1664.98,-219.604 1666.91,-205.628"/>
<polygon fill="midnightblue" stroke="midnightblue" points="1670.39,-206.022 1668.58,-195.583 1663.49,-204.873 1670.39,-206.022"/>
</g>
<!-- Node18 -->
<g id="node35" class="node"><title>Node18</title>
<polygon fill="white" stroke="#bfbfbf" points="1796,-174.5 1796,-195.5 1840,-195.5 1840,-174.5 1796,-174.5"/>
<text text-anchor="middle" x="1818" y="-182.5" font-family="Helvetica,sans-Serif" font-size="10.00">time.h</text>
</g>
<!-- Node1&#45;&gt;Node18 -->
<g id="edge34" class="edge"><title>Node1&#45;&gt;Node18</title>
<path fill="none" stroke="midnightblue" d="M1712.71,-290.295C1732.65,-270.355 1775.66,-227.337 1800.09,-202.906"/>
<polygon fill="midnightblue" stroke="midnightblue" points="1802.72,-205.225 1807.32,-195.679 1797.77,-200.275 1802.72,-205.225"/>
</g>
<!-- Node19 -->
<g id="node37" class="node"><title>Node19</title>
<polygon fill="white" stroke="#bfbfbf" points="2622,-232.5 2622,-253.5 2696,-253.5 2696,-232.5 2622,-232.5"/>
<text text-anchor="middle" x="2659" y="-240.5" font-family="Helvetica,sans-Serif" font-size="10.00">sys/socket.h</text>
</g>
<!-- Node1&#45;&gt;Node19 -->
<g id="edge36" class="edge"><title>Node1&#45;&gt;Node19</title>
<path fill="none" stroke="midnightblue" d="M1740.75,-299.947C1888.98,-295.776 2420.87,-279.455 2611.77,-253.895"/>
<polygon fill="midnightblue" stroke="midnightblue" points="2612.53,-257.322 2621.96,-252.474 2611.57,-250.389 2612.53,-257.322"/>
</g>
<!-- Node20 -->
<g id="node39" class="node"><title>Node20</title>
<polygon fill="white" stroke="#bfbfbf" points="2713.5,-232.5 2713.5,-253.5 2768.5,-253.5 2768.5,-232.5 2713.5,-232.5"/>
<text text-anchor="middle" x="2741" y="-240.5" font-family="Helvetica,sans-Serif" font-size="10.00">sys/un.h</text>
</g>
<!-- Node1&#45;&gt;Node20 -->
<g id="edge38" class="edge"><title>Node1&#45;&gt;Node20</title>
<path fill="none" stroke="midnightblue" d="M1740.56,-300.478C1898.2,-298.151 2494.79,-287.394 2703.33,-253.89"/>
<polygon fill="midnightblue" stroke="midnightblue" points="2703.97,-257.331 2713.26,-252.226 2702.82,-250.427 2703.97,-257.331"/>
</g>
<!-- Node21 -->
<g id="node41" class="node"><title>Node21</title>
<polygon fill="white" stroke="#bfbfbf" points="2785.5,-232.5 2785.5,-253.5 2832.5,-253.5 2832.5,-232.5 2785.5,-232.5"/>
<text text-anchor="middle" x="2809" y="-240.5" font-family="Helvetica,sans-Serif" font-size="10.00">dlfcn.h</text>
</g>
<!-- Node1&#45;&gt;Node21 -->
<g id="edge40" class="edge"><title>Node1&#45;&gt;Node21</title>
<path fill="none" stroke="midnightblue" d="M1740.5,-300.795C1905.25,-299.693 2552.24,-293.033 2775.45,-253.778"/>
<polygon fill="midnightblue" stroke="midnightblue" points="2776.24,-257.192 2785.44,-251.944 2774.97,-250.307 2776.24,-257.192"/>
</g>
<!-- Node22 -->
<g id="node43" class="node"><title>Node22</title>
<polygon fill="white" stroke="#bfbfbf" points="1346.5,-0.5 1346.5,-21.5 1387.5,-21.5 1387.5,-0.5 1346.5,-0.5"/>
<text text-anchor="middle" x="1367" y="-8.5" font-family="Helvetica,sans-Serif" font-size="10.00">glib.h</text>
</g>
<!-- Node1&#45;&gt;Node22 -->
<g id="edge42" class="edge"><title>Node1&#45;&gt;Node22</title>
<path fill="none" stroke="midnightblue" d="M1663.09,-296.856C1607.67,-290.27 1509.64,-275.878 1482,-254 1408.31,-195.667 1379.4,-78.7625 1370.41,-31.5141"/>
<polygon fill="midnightblue" stroke="midnightblue" points="1373.83,-30.7823 1368.62,-21.5596 1366.95,-32.0213 1373.83,-30.7823"/>
</g>
<!-- Node23 -->
<g id="node45" class="node"><title>Node23</title>
<polygon fill="white" stroke="#bfbfbf" points="57.5,-58.5 57.5,-79.5 86.5,-79.5 86.5,-58.5 57.5,-58.5"/>
<text text-anchor="middle" x="72" y="-66.5" font-family="Helvetica,sans-Serif" font-size="10.00">list</text>
</g>
<!-- Node1&#45;&gt;Node23 -->
<g id="edge44" class="edge"><title>Node1&#45;&gt;Node23</title>
<path fill="none" stroke="midnightblue" d="M1663.19,-300.446C1429.52,-297.033 217.435,-278.21 143,-254 99.5081,-239.854 79.3626,-236.439 58,-196 39.8888,-161.716 53.0373,-115.041 63.201,-88.8796"/>
<polygon fill="midnightblue" stroke="midnightblue" points="66.4414,-90.2023 67.0106,-79.6228 59.9681,-87.5382 66.4414,-90.2023"/>
</g>
<!-- Node24 -->
<g id="node47" class="node"><title>Node24</title>
<polygon fill="white" stroke="#bfbfbf" points="2850,-232.5 2850,-253.5 2910,-253.5 2910,-232.5 2850,-232.5"/>
<text text-anchor="middle" x="2880" y="-240.5" font-family="Helvetica,sans-Serif" font-size="10.00">algorithm</text>
</g>
<!-- Node1&#45;&gt;Node24 -->
<g id="edge46" class="edge"><title>Node1&#45;&gt;Node24</title>
<path fill="none" stroke="midnightblue" d="M1740.68,-300.616C1911.77,-298.735 2602.16,-289.17 2839.96,-253.775"/>
<polygon fill="midnightblue" stroke="midnightblue" points="2840.57,-257.221 2849.92,-252.234 2839.5,-250.304 2840.57,-257.221"/>
</g>
<!-- Node25 -->
<g id="node49" class="node"><title>Node25</title>
<polygon fill="white" stroke="#bfbfbf" points="2927.5,-232.5 2927.5,-253.5 2964.5,-253.5 2964.5,-232.5 2927.5,-232.5"/>
<text text-anchor="middle" x="2946" y="-240.5" font-family="Helvetica,sans-Serif" font-size="10.00">map</text>
</g>
<!-- Node1&#45;&gt;Node25 -->
<g id="edge48" class="edge"><title>Node1&#45;&gt;Node25</title>
<path fill="none" stroke="midnightblue" d="M1740.8,-300.303C1930.97,-296.779 2761.48,-280.141 2917.35,-253.491"/>
<polygon fill="midnightblue" stroke="midnightblue" points="2918.23,-256.886 2927.38,-251.555 2916.9,-250.013 2918.23,-256.886"/>
</g>
<!-- Node26 -->
<g id="node51" class="node"><title>Node26</title>
<polygon fill="white" stroke="#bfbfbf" points="2982,-232.5 2982,-253.5 3040,-253.5 3040,-232.5 2982,-232.5"/>
<text text-anchor="middle" x="3011" y="-240.5" font-family="Helvetica,sans-Serif" font-size="10.00">QWidget</text>
</g>
<!-- Node1&#45;&gt;Node26 -->
<g id="edge50" class="edge"><title>Node1&#45;&gt;Node26</title>
<path fill="none" stroke="midnightblue" d="M1740.74,-300.843C1924.11,-299.908 2706.69,-293.713 2971.74,-253.805"/>
<polygon fill="midnightblue" stroke="midnightblue" points="2972.36,-257.25 2981.7,-252.249 2971.28,-250.334 2972.36,-257.25"/>
</g>
<!-- Node27 -->
<g id="node53" class="node"><title>Node27</title>
<polygon fill="white" stroke="#bfbfbf" points="3057.5,-232.5 3057.5,-253.5 3134.5,-253.5 3134.5,-232.5 3057.5,-232.5"/>
<text text-anchor="middle" x="3096" y="-240.5" font-family="Helvetica,sans-Serif" font-size="10.00">QApplication</text>
</g>
<!-- Node1&#45;&gt;Node27 -->
<g id="edge52" class="edge"><title>Node1&#45;&gt;Node27</title>
<path fill="none" stroke="midnightblue" d="M1740.75,-300.668C1930.73,-298.887 2765.44,-289.24 3047.19,-253.987"/>
<polygon fill="midnightblue" stroke="midnightblue" points="3047.91,-257.422 3057.38,-252.668 3047.02,-250.48 3047.91,-257.422"/>
</g>
<!-- Node28 -->
<g id="node55" class="node"><title>Node28</title>
<polygon fill="white" stroke="#bfbfbf" points="1152,-174.5 1152,-195.5 1246,-195.5 1246,-174.5 1152,-174.5"/>
<text text-anchor="middle" x="1199" y="-182.5" font-family="Helvetica,sans-Serif" font-size="10.00">qsocketnotifier.h</text>
</g>
<!-- Node1&#45;&gt;Node28 -->
<g id="edge54" class="edge"><title>Node1&#45;&gt;Node28</title>
<path fill="none" stroke="midnightblue" d="M1663.22,-298.597C1577.05,-292.9 1372.11,-277.286 1307,-254 1273.64,-242.067 1239.99,-218.28 1219.32,-202.004"/>
<polygon fill="midnightblue" stroke="midnightblue" points="1221.28,-199.089 1211.3,-195.545 1216.89,-204.542 1221.28,-199.089"/>
</g>
<!-- Node29 -->
<g id="node57" class="node"><title>Node29</title>
<a xlink:href="CustomEvents_8h.htm" target="_top" xlink:title="CustomEvents.h">
<polygon fill="white" stroke="black" points="142,-116.5 142,-137.5 234,-137.5 234,-116.5 142,-116.5"/>
<text text-anchor="middle" x="188" y="-124.5" font-family="Helvetica,sans-Serif" font-size="10.00">CustomEvents.h</text>
</a>
</g>
<!-- Node1&#45;&gt;Node29 -->
<g id="edge56" class="edge"><title>Node1&#45;&gt;Node29</title>
<path fill="none" stroke="midnightblue" d="M1663.29,-300.21C1486.3,-296.483 753.105,-279.756 525,-254 385.717,-238.273 322.981,-285.372 215,-196 200.646,-184.12 193.892,-163.595 190.732,-148.01"/>
<polygon fill="midnightblue" stroke="midnightblue" points="194.114,-147.014 189.01,-137.73 187.21,-148.171 194.114,-147.014"/>
</g>
<!-- Node31 -->
<g id="node62" class="node"><title>Node31</title>
<a xlink:href="Time_8h.htm" target="_top" xlink:title="Time.h">
<polygon fill="white" stroke="black" points="1678,-232.5 1678,-253.5 1726,-253.5 1726,-232.5 1678,-232.5"/>
<text text-anchor="middle" x="1702" y="-240.5" font-family="Helvetica,sans-Serif" font-size="10.00">Time.h</text>
</a>
</g>
<!-- Node1&#45;&gt;Node31 -->
<g id="edge62" class="edge"><title>Node1&#45;&gt;Node31</title>
<path fill="none" stroke="midnightblue" d="M1702,-290.362C1702,-282.922 1702,-272.743 1702,-263.728"/>
<polygon fill="midnightblue" stroke="midnightblue" points="1705.5,-263.571 1702,-253.571 1698.5,-263.571 1705.5,-263.571"/>
</g>
<!-- Node32 -->
<g id="node68" class="node"><title>Node32</title>
<a xlink:href="HostBase_8h.htm" target="_top" xlink:title="HostBase.h">
<polygon fill="white" stroke="black" points="871.5,-174.5 871.5,-195.5 942.5,-195.5 942.5,-174.5 871.5,-174.5"/>
<text text-anchor="middle" x="907" y="-182.5" font-family="Helvetica,sans-Serif" font-size="10.00">HostBase.h</text>
</a>
</g>
<!-- Node1&#45;&gt;Node32 -->
<g id="edge72" class="edge"><title>Node1&#45;&gt;Node32</title>
<path fill="none" stroke="midnightblue" d="M1663.43,-300.076C1573.95,-297.408 1345.56,-287.593 1158,-254 1082.67,-240.508 997.177,-214.675 947.923,-198.731"/>
<polygon fill="midnightblue" stroke="midnightblue" points="948.867,-195.357 938.275,-195.583 946.696,-202.012 948.867,-195.357"/>
</g>
<!-- Node37 -->
<g id="node82" class="node"><title>Node37</title>
<a xlink:href="Event_8h.htm" target="_top" xlink:title="Event.h">
<polygon fill="white" stroke="red" points="1494,-58.5 1494,-79.5 1546,-79.5 1546,-58.5 1494,-58.5"/>
<text text-anchor="middle" x="1520" y="-66.5" font-family="Helvetica,sans-Serif" font-size="10.00">Event.h</text>
</a>
</g>
<!-- Node1&#45;&gt;Node37 -->
<g id="edge120" class="edge"><title>Node1&#45;&gt;Node37</title>
<path fill="none" stroke="midnightblue" d="M1663.34,-296.382C1615.79,-289.82 1539.25,-276.081 1522,-254 1484.21,-205.618 1501.73,-126.357 1513.04,-89.2953"/>
<polygon fill="midnightblue" stroke="midnightblue" points="1516.42,-90.2153 1516.15,-79.624 1509.76,-88.0738 1516.42,-90.2153"/>
</g>
<!-- Node43 -->
<g id="node104" class="node"><title>Node43</title>
<a xlink:href="MutexLocker_8h.htm" target="_top" xlink:title="MutexLocker.h">
<polygon fill="white" stroke="black" points="366,-116.5 366,-137.5 452,-137.5 452,-116.5 366,-116.5"/>
<text text-anchor="middle" x="409" y="-124.5" font-family="Helvetica,sans-Serif" font-size="10.00">MutexLocker.h</text>
</a>
</g>
<!-- Node1&#45;&gt;Node43 -->
<g id="edge122" class="edge"><title>Node1&#45;&gt;Node43</title>
<path fill="none" stroke="midnightblue" d="M1663.3,-299.731C1563.5,-296.117 1289.33,-284.025 1063,-254 796.186,-218.605 729.691,-192.617 462.13,-138.214"/>
<polygon fill="midnightblue" stroke="midnightblue" points="462.614,-134.741 452.118,-136.184 461.223,-141.601 462.614,-134.741"/>
</g>
<!-- Node44 -->
<g id="node108" class="node"><title>Node44</title>
<a xlink:href="WindowServer_8h.htm" target="_top" xlink:title="WindowServer.h">
<polygon fill="white" stroke="red" points="67,-174.5 67,-195.5 161,-195.5 161,-174.5 67,-174.5"/>
<text text-anchor="middle" x="114" y="-182.5" font-family="Helvetica,sans-Serif" font-size="10.00">WindowServer.h</text>
</a>
</g>
<!-- Node1&#45;&gt;Node44 -->
<g id="edge128" class="edge"><title>Node1&#45;&gt;Node44</title>
<path fill="none" stroke="midnightblue" d="M1663.14,-300.674C1431.86,-298.624 244.329,-286.538 175,-254 152.858,-243.608 135.396,-220.997 124.928,-204.481"/>
<polygon fill="midnightblue" stroke="midnightblue" points="127.741,-202.368 119.59,-195.6 121.742,-205.974 127.741,-202.368"/>
</g>
<!-- Node45 -->
<g id="node113" class="node"><title>Node45</title>
<a xlink:href="Settings_8h.htm" target="_top" xlink:title="Settings.h">
<polygon fill="white" stroke="red" points="1219.5,-58.5 1219.5,-79.5 1282.5,-79.5 1282.5,-58.5 1219.5,-58.5"/>
<text text-anchor="middle" x="1251" y="-66.5" font-family="Helvetica,sans-Serif" font-size="10.00">Settings.h</text>
</a>
</g>
<!-- Node1&#45;&gt;Node45 -->
<g id="edge136" class="edge"><title>Node1&#45;&gt;Node45</title>
<path fill="none" stroke="midnightblue" d="M1663.36,-298.155C1593.87,-292.499 1451.07,-278.251 1408,-254 1398.6,-248.709 1303.76,-133.483 1266.2,-87.6046"/>
<polygon fill="midnightblue" stroke="midnightblue" points="1268.73,-85.1703 1259.69,-79.6463 1263.31,-89.6025 1268.73,-85.1703"/>
</g>
<!-- Node46 -->
<g id="node117" class="node"><title>Node46</title>
<a xlink:href="HostArm_8h.htm" target="_top" xlink:title="HostArm.h">
<polygon fill="white" stroke="red" points="1166.5,-232.5 1166.5,-253.5 1231.5,-253.5 1231.5,-232.5 1166.5,-232.5"/>
<text text-anchor="middle" x="1199" y="-240.5" font-family="Helvetica,sans-Serif" font-size="10.00">HostArm.h</text>
</a>
</g>
<!-- Node1&#45;&gt;Node46 -->
<g id="edge142" class="edge"><title>Node1&#45;&gt;Node46</title>
<path fill="none" stroke="midnightblue" d="M1663.23,-298.532C1584.56,-293.183 1400.69,-278.954 1248,-254 1245.83,-253.646 1243.62,-253.255 1241.39,-252.838"/>
<polygon fill="midnightblue" stroke="midnightblue" points="1242.07,-249.406 1231.58,-250.875 1240.7,-256.27 1242.07,-249.406"/>
</g>
<!-- Node47 -->
<g id="node123" class="node"><title>Node47</title>
<polygon fill="white" stroke="#bfbfbf" points="1264,-174.5 1264,-195.5 1318,-195.5 1318,-174.5 1264,-174.5"/>
<text text-anchor="middle" x="1291" y="-182.5" font-family="Helvetica,sans-Serif" font-size="10.00">HidLib.h</text>
</g>
<!-- Node1&#45;&gt;Node47 -->
<g id="edge180" class="edge"><title>Node1&#45;&gt;Node47</title>
<path fill="none" stroke="midnightblue" d="M1663.47,-300.311C1580.06,-298.158 1385.94,-289.38 1332,-254 1314.7,-242.653 1303.68,-221.258 1297.47,-205.287"/>
<polygon fill="midnightblue" stroke="midnightblue" points="1300.72,-203.981 1294.06,-195.735 1294.12,-206.33 1300.72,-203.981"/>
</g>
<!-- Node48 -->
<g id="node126" class="node"><title>Node48</title>
<a xlink:href="Logging_8h.htm" target="_top" xlink:title="Logging.h">
<polygon fill="white" stroke="red" points="1413.5,-58.5 1413.5,-79.5 1476.5,-79.5 1476.5,-58.5 1413.5,-58.5"/>
<text text-anchor="middle" x="1445" y="-66.5" font-family="Helvetica,sans-Serif" font-size="10.00">Logging.h</text>
</a>
</g>
<!-- Node1&#45;&gt;Node48 -->
<g id="edge156" class="edge"><title>Node1&#45;&gt;Node48</title>
<path fill="none" stroke="midnightblue" d="M1663.4,-296.308C1612.8,-289.417 1527.8,-275.053 1505,-254 1457.57,-210.194 1447.52,-128.612 1445.47,-90.1286"/>
<polygon fill="midnightblue" stroke="midnightblue" points="1448.95,-89.5133 1445.06,-79.6586 1441.95,-89.7884 1448.95,-89.5133"/>
</g>
<!-- Node49 -->
<g id="node131" class="node"><title>Node49</title>
<a xlink:href="SystemUiController_8h.htm" target="_top" xlink:title="SystemUiController.h">
<polygon fill="white" stroke="red" points="255,-174.5 255,-195.5 371,-195.5 371,-174.5 255,-174.5"/>
<text text-anchor="middle" x="313" y="-182.5" font-family="Helvetica,sans-Serif" font-size="10.00">SystemUiController.h</text>
</a>
</g>
<!-- Node1&#45;&gt;Node49 -->
<g id="edge164" class="edge"><title>Node1&#45;&gt;Node49</title>
<path fill="none" stroke="midnightblue" d="M1663.4,-300.009C1500.13,-295.698 865.583,-277.732 667,-254 559.002,-241.094 434.578,-213.933 365.743,-197.805"/>
<polygon fill="midnightblue" stroke="midnightblue" points="366.536,-194.396 356,-195.509 364.93,-201.209 366.536,-194.396"/>
</g>
<!-- Node50 -->
<g id="node137" class="node"><title>Node50</title>
<a xlink:href="HalInputControl_8h.htm" target="_top" xlink:title="hal/HalInputControl.h">
<polygon fill="white" stroke="black" points="453,-174.5 453,-195.5 569,-195.5 569,-174.5 453,-174.5"/>
<text text-anchor="middle" x="511" y="-182.5" font-family="Helvetica,sans-Serif" font-size="10.00">hal/HalInputControl.h</text>
</a>
</g>
<!-- Node1&#45;&gt;Node50 -->
<g id="edge174" class="edge"><title>Node1&#45;&gt;Node50</title>
<path fill="none" stroke="midnightblue" d="M1663.25,-300.109C1510.37,-296.427 948.836,-281.3 773,-254 693.475,-241.653 603.221,-214.99 552.1,-198.661"/>
<polygon fill="midnightblue" stroke="midnightblue" points="553.004,-195.275 542.413,-195.54 550.858,-201.938 553.004,-195.275"/>
</g>
<!-- Node29&#45;&gt;Node2 -->
<g id="edge58" class="edge"><title>Node29&#45;&gt;Node2</title>
<path fill="none" stroke="midnightblue" d="M187.961,-116.336C188.54,-100.761 192.145,-72.1105 210,-58 255.137,-22.3297 653.899,-13.4934 788.127,-11.5203"/>
<polygon fill="midnightblue" stroke="midnightblue" points="788.488,-15.0156 798.437,-11.3747 788.389,-8.0163 788.488,-15.0156"/>
</g>
<!-- Node30 -->
<g id="node60" class="node"><title>Node30</title>
<polygon fill="white" stroke="#bfbfbf" points="219,-58.5 219,-79.5 271,-79.5 271,-58.5 219,-58.5"/>
<text text-anchor="middle" x="245" y="-66.5" font-family="Helvetica,sans-Serif" font-size="10.00">QEvent</text>
</g>
<!-- Node29&#45;&gt;Node30 -->
<g id="edge60" class="edge"><title>Node29&#45;&gt;Node30</title>
<path fill="none" stroke="midnightblue" d="M198.455,-116.362C206.57,-108.104 218.001,-96.4725 227.504,-86.8029"/>
<polygon fill="midnightblue" stroke="midnightblue" points="230.099,-89.1562 234.612,-79.5707 225.106,-84.2497 230.099,-89.1562"/>
</g>
<!-- Node31&#45;&gt;Node2 -->
<g id="edge64" class="edge"><title>Node31&#45;&gt;Node2</title>
<path fill="none" stroke="midnightblue" d="M1707.62,-232.452C1714.59,-217.785 1724.02,-191.11 1711,-174 1681.68,-135.478 1338.58,-66.9416 1291,-58 1140.16,-29.6536 957.993,-17.4107 875.888,-13.0449"/>
<polygon fill="midnightblue" stroke="midnightblue" points="875.847,-9.53814 865.679,-12.5155 875.485,-16.5287 875.847,-9.53814"/>
</g>
<!-- Node31&#45;&gt;Node5 -->
<g id="edge70" class="edge"><title>Node31&#45;&gt;Node5</title>
<path fill="none" stroke="midnightblue" d="M1715.86,-232.337C1725.79,-223.753 1738.38,-210.722 1744,-196 1747.49,-186.865 1746.48,-183.457 1744,-174 1728.96,-116.751 1688.74,-58.446 1666.79,-29.5728"/>
<polygon fill="midnightblue" stroke="midnightblue" points="1669.5,-27.3571 1660.62,-21.5908 1663.97,-31.6413 1669.5,-27.3571"/>
</g>
<!-- Node31&#45;&gt;Node17 -->
<g id="edge66" class="edge"><title>Node31&#45;&gt;Node17</title>
<path fill="none" stroke="midnightblue" d="M1696.31,-232.362C1692.16,-224.595 1686.42,-213.843 1681.45,-204.546"/>
<polygon fill="midnightblue" stroke="midnightblue" points="1684.45,-202.74 1676.65,-195.571 1678.28,-206.04 1684.45,-202.74"/>
</g>
<!-- Node31&#45;&gt;Node18 -->
<g id="edge68" class="edge"><title>Node31&#45;&gt;Node18</title>
<path fill="none" stroke="midnightblue" d="M1723.01,-232.497C1741.04,-223.479 1767.27,-210.365 1787.6,-200.201"/>
<polygon fill="midnightblue" stroke="midnightblue" points="1789.38,-203.224 1796.76,-195.621 1786.25,-196.963 1789.38,-203.224"/>
</g>
<!-- Node32&#45;&gt;Node2 -->
<g id="edge74" class="edge"><title>Node32&#45;&gt;Node2</title>
<path fill="none" stroke="midnightblue" d="M871.39,-180.816C792.218,-171.346 607.844,-148.296 599,-138 540.561,-69.9667 705.74,-31.9635 788.232,-17.6599"/>
<polygon fill="midnightblue" stroke="midnightblue" points="789.061,-21.0696 798.339,-15.9542 787.896,-14.1672 789.061,-21.0696"/>
</g>
<!-- Node32&#45;&gt;Node29 -->
<g id="edge110" class="edge"><title>Node32&#45;&gt;Node29</title>
<path fill="none" stroke="midnightblue" d="M871.345,-182.124C755.102,-172.747 386.44,-143.008 244.481,-131.556"/>
<polygon fill="midnightblue" stroke="midnightblue" points="244.505,-128.047 234.256,-130.731 243.943,-135.024 244.505,-128.047"/>
</g>
<!-- Node33 -->
<g id="node71" class="node"><title>Node33</title>
<polygon fill="white" stroke="#bfbfbf" points="951.5,-116.5 951.5,-137.5 1028.5,-137.5 1028.5,-116.5 951.5,-116.5"/>
<text text-anchor="middle" x="990" y="-124.5" font-family="Helvetica,sans-Serif" font-size="10.00">PGContext.h</text>
</g>
<!-- Node32&#45;&gt;Node33 -->
<g id="edge76" class="edge"><title>Node32&#45;&gt;Node33</title>
<path fill="none" stroke="midnightblue" d="M922.223,-174.362C934.625,-165.696 952.346,-153.313 966.557,-143.382"/>
<polygon fill="midnightblue" stroke="midnightblue" points="968.681,-146.168 974.873,-137.571 964.671,-140.43 968.681,-146.168"/>
</g>
<!-- Node34 -->
<g id="node73" class="node"><title>Node34</title>
<polygon fill="white" stroke="#bfbfbf" points="1046,-116.5 1046,-137.5 1114,-137.5 1114,-116.5 1046,-116.5"/>
<text text-anchor="middle" x="1080" y="-124.5" font-family="Helvetica,sans-Serif" font-size="10.00">PContext.h</text>
</g>
<!-- Node32&#45;&gt;Node34 -->
<g id="edge78" class="edge"><title>Node32&#45;&gt;Node34</title>
<path fill="none" stroke="midnightblue" d="M938.329,-174.497C966.533,-165.041 1008.17,-151.083 1039.01,-140.743"/>
<polygon fill="midnightblue" stroke="midnightblue" points="1040.24,-144.02 1048.61,-137.523 1038.02,-137.383 1040.24,-144.02"/>
</g>
<!-- Node35 -->
<g id="node75" class="node"><title>Node35</title>
<polygon fill="white" stroke="#bfbfbf" points="608,-116.5 608,-137.5 674,-137.5 674,-116.5 608,-116.5"/>
<text text-anchor="middle" x="641" y="-124.5" font-family="Helvetica,sans-Serif" font-size="10.00">PPixmap.h</text>
</g>
<!-- Node32&#45;&gt;Node35 -->
<g id="edge80" class="edge"><title>Node32&#45;&gt;Node35</title>
<path fill="none" stroke="midnightblue" d="M871.188,-178.052C828.854,-169.715 756.052,-154.988 684.516,-138.285"/>
<polygon fill="midnightblue" stroke="midnightblue" points="684.969,-134.796 674.434,-135.915 683.367,-141.61 684.969,-134.796"/>
</g>
<!-- Node36 -->
<g id="node77" class="node"><title>Node36</title>
<a xlink:href="TaskBase_8h.htm" target="_top" xlink:title="TaskBase.h">
<polygon fill="white" stroke="red" points="1208,-116.5 1208,-137.5 1280,-137.5 1280,-116.5 1208,-116.5"/>
<text text-anchor="middle" x="1244" y="-124.5" font-family="Helvetica,sans-Serif" font-size="10.00">TaskBase.h</text>
</a>
</g>
<!-- Node32&#45;&gt;Node36 -->
<g id="edge82" class="edge"><title>Node32&#45;&gt;Node36</title>
<path fill="none" stroke="midnightblue" d="M942.905,-179.76C997.354,-171.669 1104,-155.256 1194,-138 1195.28,-137.755 1196.57,-137.503 1197.88,-137.244"/>
<polygon fill="midnightblue" stroke="midnightblue" points="1198.91,-140.605 1208,-135.165 1197.5,-133.748 1198.91,-140.605"/>
</g>
<!-- Node38 -->
<g id="node89" class="node"><title>Node38</title>
<a xlink:href="Mutex_8h.htm" target="_top" xlink:title="Mutex.h">
<polygon fill="white" stroke="red" points="1111.5,-58.5 1111.5,-79.5 1164.5,-79.5 1164.5,-58.5 1111.5,-58.5"/>
<text text-anchor="middle" x="1138" y="-66.5" font-family="Helvetica,sans-Serif" font-size="10.00">Mutex.h</text>
</a>
</g>
<!-- Node32&#45;&gt;Node38 -->
<g id="edge108" class="edge"><title>Node32&#45;&gt;Node38</title>
<path fill="none" stroke="midnightblue" d="M942.723,-181.863C997.372,-176.325 1098.04,-162.968 1123,-138 1135.55,-125.443 1138.7,-105.007 1139.07,-89.6273"/>
<polygon fill="midnightblue" stroke="midnightblue" points="1142.57,-89.4619 1138.94,-79.5072 1135.57,-89.5509 1142.57,-89.4619"/>
</g>
<!-- Node39 -->
<g id="node95" class="node"><title>Node39</title>
<a xlink:href="InputControl_8h.htm" target="_top" xlink:title="InputControl.h">
<polygon fill="white" stroke="red" points="469.5,-116.5 469.5,-137.5 552.5,-137.5 552.5,-116.5 469.5,-116.5"/>
<text text-anchor="middle" x="511" y="-124.5" font-family="Helvetica,sans-Serif" font-size="10.00">InputControl.h</text>
</a>
</g>
<!-- Node32&#45;&gt;Node39 -->
<g id="edge112" class="edge"><title>Node32&#45;&gt;Node39</title>
<path fill="none" stroke="midnightblue" d="M871.052,-180.771C808.758,-173.279 676.784,-156.696 566,-138 564.92,-137.818 563.828,-137.63 562.729,-137.438"/>
<polygon fill="midnightblue" stroke="midnightblue" points="563.158,-133.959 552.693,-135.614 561.906,-140.846 563.158,-133.959"/>
</g>
<!-- Node40 -->
<g id="node97" class="node"><title>Node40</title>
<polygon fill="white" stroke="#bfbfbf" points="691.5,-116.5 691.5,-137.5 816.5,-137.5 816.5,-116.5 691.5,-116.5"/>
<text text-anchor="middle" x="754" y="-124.5" font-family="Helvetica,sans-Serif" font-size="10.00">webosDeviceKeymap.h</text>
</g>
<!-- Node32&#45;&gt;Node40 -->
<g id="edge114" class="edge"><title>Node32&#45;&gt;Node40</title>
<path fill="none" stroke="midnightblue" d="M879.293,-174.497C854.674,-165.164 818.483,-151.445 791.32,-141.147"/>
<polygon fill="midnightblue" stroke="midnightblue" points="792.35,-137.795 781.759,-137.523 789.869,-144.341 792.35,-137.795"/>
</g>
<!-- Node41 -->
<g id="node99" class="node"><title>Node41</title>
<polygon fill="white" stroke="#bfbfbf" points="833.5,-116.5 833.5,-137.5 862.5,-137.5 862.5,-116.5 833.5,-116.5"/>
<text text-anchor="middle" x="848" y="-124.5" font-family="Helvetica,sans-Serif" font-size="10.00">Qt</text>
</g>
<!-- Node32&#45;&gt;Node41 -->
<g id="edge116" class="edge"><title>Node32&#45;&gt;Node41</title>
<path fill="none" stroke="midnightblue" d="M896.178,-174.362C887.779,-166.104 875.946,-154.472 866.11,-144.803"/>
<polygon fill="midnightblue" stroke="midnightblue" points="868.338,-142.085 858.753,-137.571 863.431,-147.077 868.338,-142.085"/>
</g>
<!-- Node42 -->
<g id="node101" class="node"><title>Node42</title>
<polygon fill="white" stroke="#bfbfbf" points="880,-116.5 880,-137.5 934,-137.5 934,-116.5 880,-116.5"/>
<text text-anchor="middle" x="907" y="-124.5" font-family="Helvetica,sans-Serif" font-size="10.00">QImage</text>
</g>
<!-- Node32&#45;&gt;Node42 -->
<g id="edge118" class="edge"><title>Node32&#45;&gt;Node42</title>
<path fill="none" stroke="midnightblue" d="M907,-174.362C907,-166.922 907,-156.743 907,-147.728"/>
<polygon fill="midnightblue" stroke="midnightblue" points="910.5,-147.571 907,-137.571 903.5,-147.571 910.5,-147.571"/>
</g>
<!-- Node36&#45;&gt;Node2 -->
<g id="edge84" class="edge"><title>Node36&#45;&gt;Node2</title>
<path fill="none" stroke="midnightblue" d="M1236.68,-116.476C1225.14,-100.807 1201.11,-71.7207 1173,-58 1121.47,-32.8523 955.608,-18.9978 875.758,-13.6354"/>
<polygon fill="midnightblue" stroke="midnightblue" points="875.749,-10.1273 865.541,-12.9642 875.29,-17.1123 875.749,-10.1273"/>
</g>
<!-- Node36&#45;&gt;Node22 -->
<g id="edge86" class="edge"><title>Node36&#45;&gt;Node22</title>
<path fill="none" stroke="midnightblue" d="M1255.35,-116.295C1276.59,-96.2682 1322.5,-52.9641 1348.35,-28.5893"/>
<polygon fill="midnightblue" stroke="midnightblue" points="1350.8,-31.0865 1355.68,-21.6792 1346,-25.994 1350.8,-31.0865"/>
</g>
<!-- Node36&#45;&gt;Node23 -->
<g id="edge88" class="edge"><title>Node36&#45;&gt;Node23</title>
<path fill="none" stroke="midnightblue" d="M1207.77,-123.217C1183.75,-120.83 1151.52,-117.858 1123,-116 717.765,-89.6084 615.375,-104.139 210,-80 170.393,-77.6415 124.481,-73.7505 96.866,-71.2842"/>
<polygon fill="midnightblue" stroke="midnightblue" points="97.1679,-67.7974 86.8938,-70.3843 96.5387,-74.769 97.1679,-67.7974"/>
</g>
<!-- Node36&#45;&gt;Node37 -->
<g id="edge90" class="edge"><title>Node36&#45;&gt;Node37</title>
<path fill="none" stroke="midnightblue" d="M1280.21,-121.239C1325.66,-113.724 1406.16,-99.478 1483.78,-80.119"/>
<polygon fill="midnightblue" stroke="midnightblue" points="1484.88,-83.4504 1493.72,-77.6071 1483.16,-76.6637 1484.88,-83.4504"/>
</g>
<!-- Node36&#45;&gt;Node38 -->
<g id="edge102" class="edge"><title>Node36&#45;&gt;Node38</title>
<path fill="none" stroke="midnightblue" d="M1224.56,-116.362C1208.2,-107.409 1184.59,-94.4908 1166.16,-84.4064"/>
<polygon fill="midnightblue" stroke="midnightblue" points="1167.77,-81.3004 1157.32,-79.5707 1164.41,-87.4412 1167.77,-81.3004"/>
</g>
<!-- Node37&#45;&gt;Node2 -->
<g id="edge92" class="edge"><title>Node37&#45;&gt;Node2</title>
<path fill="none" stroke="midnightblue" d="M1493.79,-60.0443C1490.85,-59.2544 1487.88,-58.5481 1485,-58 1367.57,-35.6381 1002.29,-18.2941 875.708,-12.8182"/>
<polygon fill="midnightblue" stroke="midnightblue" points="875.751,-9.31692 865.61,-12.3847 875.451,-16.3105 875.751,-9.31692"/>
</g>
<!-- Node37&#45;&gt;Node3 -->
<g id="edge98" class="edge"><title>Node37&#45;&gt;Node3</title>
<path fill="none" stroke="midnightblue" d="M1519.63,-58.3619C1519.38,-50.9219 1519.03,-40.7427 1518.71,-31.7276"/>
<polygon fill="midnightblue" stroke="midnightblue" points="1522.21,-31.4441 1518.36,-21.5707 1515.21,-31.6854 1522.21,-31.4441"/>
</g>
<!-- Node37&#45;&gt;Node5 -->
<g id="edge94" class="edge"><title>Node37&#45;&gt;Node5</title>
<path fill="none" stroke="midnightblue" d="M1543.9,-58.4966C1564.8,-49.3154 1595.36,-35.8889 1618.66,-25.6516"/>
<polygon fill="midnightblue" stroke="midnightblue" points="1620.08,-28.8483 1627.83,-21.6212 1617.26,-22.4397 1620.08,-28.8483"/>
</g>
<!-- Node37&#45;&gt;Node7 -->
<g id="edge100" class="edge"><title>Node37&#45;&gt;Node7</title>
<path fill="none" stroke="midnightblue" d="M1531.74,-58.3619C1540.94,-50.0226 1553.94,-38.2418 1564.67,-28.5162"/>
<polygon fill="midnightblue" stroke="midnightblue" points="1567.28,-30.8793 1572.34,-21.5707 1562.58,-25.6924 1567.28,-30.8793"/>
</g>
<!-- Node37&#45;&gt;Node22 -->
<g id="edge96" class="edge"><title>Node37&#45;&gt;Node22</title>
<path fill="none" stroke="midnightblue" d="M1493.7,-59.0294C1466.91,-48.8756 1425.43,-33.1492 1397.29,-22.4813"/>
<polygon fill="midnightblue" stroke="midnightblue" points="1398.17,-19.0716 1387.57,-18.7995 1395.68,-25.617 1398.17,-19.0716"/>
</g>
<!-- Node38&#45;&gt;Node2 -->
<g id="edge104" class="edge"><title>Node38&#45;&gt;Node2</title>
<path fill="none" stroke="midnightblue" d="M1111.41,-61.3142C1106.95,-60.1329 1102.36,-58.9816 1098,-58 1020.37,-40.5078 928.783,-25.5548 875.849,-17.4602"/>
<polygon fill="midnightblue" stroke="midnightblue" points="876.206,-13.9743 865.794,-15.934 875.155,-20.895 876.206,-13.9743"/>
</g>
<!-- Node38&#45;&gt;Node22 -->
<g id="edge106" class="edge"><title>Node38&#45;&gt;Node22</title>
<path fill="none" stroke="midnightblue" d="M1164.72,-62.2332C1207.62,-51.3658 1291.63,-30.0883 1336.71,-18.6721"/>
<polygon fill="midnightblue" stroke="midnightblue" points="1337.66,-22.0415 1346.5,-16.1934 1335.94,-15.2558 1337.66,-22.0415"/>
</g>
<!-- Node43&#45;&gt;Node2 -->
<g id="edge124" class="edge"><title>Node43&#45;&gt;Node2</title>
<path fill="none" stroke="midnightblue" d="M428.736,-116.48C457.931,-101.348 514.715,-73.5547 566,-58 642.361,-34.8395 734.728,-21.7032 788.088,-15.4975"/>
<polygon fill="midnightblue" stroke="midnightblue" points="788.682,-18.9527 798.224,-14.3479 787.893,-11.9973 788.682,-18.9527"/>
</g>
<!-- Node43&#45;&gt;Node38 -->
<g id="edge126" class="edge"><title>Node43&#45;&gt;Node38</title>
<path fill="none" stroke="midnightblue" d="M452.049,-117.412C455.07,-116.887 458.076,-116.409 461,-116 703.858,-82.0512 999.32,-72.2374 1101.32,-69.7544"/>
<polygon fill="midnightblue" stroke="midnightblue" points="1101.49,-73.2513 1111.41,-69.5175 1101.33,-66.2532 1101.49,-73.2513"/>
</g>
<!-- Node44&#45;&gt;Node2 -->
<g id="edge130" class="edge"><title>Node44&#45;&gt;Node2</title>
<path fill="none" stroke="midnightblue" d="M115.277,-174.063C117.308,-159.877 122.207,-134.733 133,-116 151.043,-84.6836 157.202,-73.1844 190,-58 243.991,-33.0037 652.399,-17.0711 788.225,-12.4196"/>
<polygon fill="midnightblue" stroke="midnightblue" points="788.399,-15.9158 798.275,-12.0791 788.162,-8.91983 788.399,-15.9158"/>
</g>
<!-- Node44&#45;&gt;Node23 -->
<g id="edge132" class="edge"><title>Node44&#45;&gt;Node23</title>
<path fill="none" stroke="midnightblue" d="M110.124,-174.295C103.123,-154.959 88.2652,-113.923 79.3053,-89.1767"/>
<polygon fill="midnightblue" stroke="midnightblue" points="82.562,-87.8903 75.8666,-79.6792 75.9802,-90.2734 82.562,-87.8903"/>
</g>
<!-- Node44&#45;&gt;Node29 -->
<g id="edge134" class="edge"><title>Node44&#45;&gt;Node29</title>
<path fill="none" stroke="midnightblue" d="M127.573,-174.362C138.421,-165.859 153.834,-153.779 166.379,-143.947"/>
<polygon fill="midnightblue" stroke="midnightblue" points="168.802,-146.494 174.513,-137.571 164.484,-140.985 168.802,-146.494"/>
</g>
<!-- Node45&#45;&gt;Node2 -->
<g id="edge138" class="edge"><title>Node45&#45;&gt;Node2</title>
<path fill="none" stroke="midnightblue" d="M1219.14,-60.7331C1214.74,-59.7325 1210.27,-58.7877 1206,-58 1087.55,-36.1549 946.103,-21.427 875.951,-14.8741"/>
<polygon fill="midnightblue" stroke="midnightblue" points="876.004,-11.3641 865.724,-13.9296 875.36,-18.3344 876.004,-11.3641"/>
</g>
<!-- Node45&#45;&gt;Node22 -->
<g id="edge140" class="edge"><title>Node45&#45;&gt;Node22</title>
<path fill="none" stroke="midnightblue" d="M1272.01,-58.4966C1290.16,-49.4222 1316.6,-36.2009 1336.98,-26.0103"/>
<polygon fill="midnightblue" stroke="midnightblue" points="1338.77,-29.0279 1346.15,-21.4252 1335.64,-22.7669 1338.77,-29.0279"/>
</g>
<!-- Node46&#45;&gt;Node2 -->
<g id="edge144" class="edge"><title>Node46&#45;&gt;Node2</title>
<path fill="none" stroke="midnightblue" d="M1181.26,-232.432C1168.74,-224.072 1152.56,-211.282 1143,-196 1123.57,-164.924 1147.57,-143.194 1123,-116 1058.02,-44.0851 940.059,-21.383 876.093,-14.2469"/>
<polygon fill="midnightblue" stroke="midnightblue" points="876.238,-10.7433 865.931,-13.194 875.517,-17.706 876.238,-10.7433"/>
</g>
<!-- Node46&#45;&gt;Node28 -->
<g id="edge154" class="edge"><title>Node46&#45;&gt;Node28</title>
<path fill="none" stroke="midnightblue" d="M1199,-232.362C1199,-224.922 1199,-214.743 1199,-205.728"/>
<polygon fill="midnightblue" stroke="midnightblue" points="1202.5,-205.571 1199,-195.571 1195.5,-205.571 1202.5,-205.571"/>
</g>
<!-- Node46&#45;&gt;Node29 -->
<g id="edge150" class="edge"><title>Node46&#45;&gt;Node29</title>
<path fill="none" stroke="midnightblue" d="M1166.44,-242.124C1004.07,-237.665 288.084,-216.878 246,-196 224.555,-185.361 208.028,-162.798 198.2,-146.361"/>
<polygon fill="midnightblue" stroke="midnightblue" points="201.172,-144.506 193.201,-137.527 195.08,-147.954 201.172,-144.506"/>
</g>
<!-- Node46&#45;&gt;Node32 -->
<g id="edge146" class="edge"><title>Node46&#45;&gt;Node32</title>
<path fill="none" stroke="midnightblue" d="M1166.35,-236.515C1114.16,-226.148 1011.78,-205.813 952.458,-194.029"/>
<polygon fill="midnightblue" stroke="midnightblue" points="953.103,-190.589 942.613,-192.074 951.739,-197.455 953.103,-190.589"/>
</g>
<!-- Node46&#45;&gt;Node37 -->
<g id="edge148" class="edge"><title>Node46&#45;&gt;Node37</title>
<path fill="none" stroke="midnightblue" d="M1231.69,-233.299C1258.08,-224.927 1295.82,-211.719 1327,-196 1392.71,-162.875 1463.35,-112.007 1498.12,-85.8361"/>
<polygon fill="midnightblue" stroke="midnightblue" points="1500.3,-88.571 1506.16,-79.7405 1496.07,-82.9929 1500.3,-88.571"/>
</g>
<!-- Node46&#45;&gt;Node47 -->
<g id="edge152" class="edge"><title>Node46&#45;&gt;Node47</title>
<path fill="none" stroke="midnightblue" d="M1215.87,-232.362C1229.75,-223.614 1249.63,-211.079 1265.46,-201.101"/>
<polygon fill="midnightblue" stroke="midnightblue" points="1267.64,-203.864 1274.23,-195.571 1263.91,-197.943 1267.64,-203.864"/>
</g>
<!-- Node48&#45;&gt;Node2 -->
<g id="edge158" class="edge"><title>Node48&#45;&gt;Node2</title>
<path fill="none" stroke="midnightblue" d="M1413.33,-66.0038C1311.6,-56.3777 992.891,-26.223 875.756,-15.14"/>
<polygon fill="midnightblue" stroke="midnightblue" points="875.997,-11.6473 865.712,-14.1897 875.338,-18.6162 875.997,-11.6473"/>
</g>
<!-- Node48&#45;&gt;Node3 -->
<g id="edge160" class="edge"><title>Node48&#45;&gt;Node3</title>
<path fill="none" stroke="midnightblue" d="M1458.39,-58.3619C1469.09,-49.859 1484.3,-37.7785 1496.67,-27.9466"/>
<polygon fill="midnightblue" stroke="midnightblue" points="1499.04,-30.5318 1504.7,-21.5707 1494.69,-25.0511 1499.04,-30.5318"/>
</g>
<!-- Node48&#45;&gt;Node22 -->
<g id="edge162" class="edge"><title>Node48&#45;&gt;Node22</title>
<path fill="none" stroke="midnightblue" d="M1430.69,-58.3619C1419.15,-49.7773 1402.7,-37.5459 1389.41,-27.6636"/>
<polygon fill="midnightblue" stroke="midnightblue" points="1391.33,-24.7291 1381.22,-21.5707 1387.15,-30.3463 1391.33,-24.7291"/>
</g>
<!-- Node49&#45;&gt;Node2 -->
<g id="edge166" class="edge"><title>Node49&#45;&gt;Node2</title>
<path fill="none" stroke="midnightblue" d="M316.576,-174.399C325.99,-148.459 354.217,-82.1547 404,-58 471.012,-25.4862 693.047,-15.112 788.147,-12.111"/>
<polygon fill="midnightblue" stroke="midnightblue" points="788.403,-15.605 798.292,-11.8038 788.191,-8.60817 788.403,-15.605"/>
</g>
<!-- Node49&#45;&gt;Node29 -->
<g id="edge172" class="edge"><title>Node49&#45;&gt;Node29</title>
<path fill="none" stroke="midnightblue" d="M290.363,-174.497C270.752,-165.397 242.154,-152.127 220.167,-141.925"/>
<polygon fill="midnightblue" stroke="midnightblue" points="221.435,-138.655 210.891,-137.621 218.488,-145.005 221.435,-138.655"/>
</g>
<!-- Node49&#45;&gt;Node30 -->
<g id="edge168" class="edge"><title>Node49&#45;&gt;Node30</title>
<path fill="none" stroke="midnightblue" d="M306.725,-174.295C295.288,-154.786 270.904,-113.188 256.441,-88.5177"/>
<polygon fill="midnightblue" stroke="midnightblue" points="259.337,-86.5362 251.26,-79.6792 253.298,-90.0762 259.337,-86.5362"/>
</g>
<!-- Node49&#45;&gt;Node37 -->
<g id="edge170" class="edge"><title>Node49&#45;&gt;Node37</title>
<path fill="none" stroke="midnightblue" d="M371.002,-179.613C393.748,-177.635 420.084,-175.513 444,-174 819.146,-150.268 918.218,-199.795 1289,-138 1309.56,-134.573 1439.23,-94.1475 1483.85,-80.3514"/>
<polygon fill="midnightblue" stroke="midnightblue" points="1485.12,-83.6254 1493.64,-77.3362 1483.05,-76.9357 1485.12,-83.6254"/>
</g>
<!-- Node50&#45;&gt;Node2 -->
<g id="edge176" class="edge"><title>Node50&#45;&gt;Node2</title>
<path fill="none" stroke="midnightblue" d="M452.908,-179.76C398.849,-172.394 330.341,-155.178 357,-116 405.625,-44.5409 680.15,-20.2277 788.255,-13.3517"/>
<polygon fill="midnightblue" stroke="midnightblue" points="788.72,-16.8298 798.486,-12.7217 788.29,-9.84301 788.72,-16.8298"/>
</g>
<!-- Node50&#45;&gt;Node39 -->
<g id="edge178" class="edge"><title>Node50&#45;&gt;Node39</title>
<path fill="none" stroke="midnightblue" d="M511,-174.362C511,-166.922 511,-156.743 511,-147.728"/>
<polygon fill="midnightblue" stroke="midnightblue" points="514.5,-147.571 511,-137.571 507.5,-147.571 514.5,-147.571"/>
</g>
</g>
</svg>
