<?xml version="1.0" encoding="UTF-8" standalone="no"?>
<!DOCTYPE svg PUBLIC "-//W3C//DTD SVG 1.1//EN"
 "http://www.w3.org/Graphics/SVG/1.1/DTD/svg11.dtd">
<!-- Generated by graphviz version 2.26.3 (20100126.1600)
 -->
<!-- Title: G Pages: 1 -->
<svg width="1910pt" height="378pt"
 viewBox="0.00 0.00 1910.00 378.00" xmlns="http://www.w3.org/2000/svg" xmlns:xlink="http://www.w3.org/1999/xlink">
<g id="graph1" class="graph" transform="scale(1 1) rotate(0) translate(4 374)">
<title>G</title>
<polygon fill="white" stroke="white" points="-4,5 -4,-374 1907,-374 1907,5 -4,5"/>
<!-- Node1 -->
<g id="node1" class="node"><title>Node1</title>
<polygon fill="#bfbfbf" stroke="black" points="1680,-348.5 1680,-369.5 1804,-369.5 1804,-348.5 1680,-348.5"/>
<text text-anchor="middle" x="1742" y="-356.5" font-family="Helvetica,sans-Serif" font-size="10.00">HostArmBroadway.cpp</text>
</g>
<!-- Node2 -->
<g id="node3" class="node"><title>Node2</title>
<a xlink:href="Common_8h.htm" target="_top" xlink:title="Common.h">
<polygon fill="white" stroke="black" points="791.5,-0.5 791.5,-21.5 858.5,-21.5 858.5,-0.5 791.5,-0.5"/>
<text text-anchor="middle" x="825" y="-8.5" font-family="Helvetica,sans-Serif" font-size="10.00">Common.h</text>
</a>
</g>
<!-- Node1&#45;&gt;Node2 -->
<g id="edge2" class="edge"><title>Node1&#45;&gt;Node2</title>
<path fill="none" stroke="midnightblue" d="M1783.62,-348.401C1831.03,-333.53 1902,-301.499 1902,-243 1902,-243 1902,-243 1902,-127 1902,-74.1428 1071.14,-24.6482 868.953,-13.3864"/>
<polygon fill="midnightblue" stroke="midnightblue" points="868.89,-9.87771 858.712,-12.8189 868.503,-16.867 868.89,-9.87771"/>
</g>
<!-- Node3 -->
<g id="node5" class="node"><title>Node3</title>
<a xlink:href="HostArm_8h.htm" target="_top" xlink:title="HostArm.h">
<polygon fill="white" stroke="black" points="1500.5,-290.5 1500.5,-311.5 1565.5,-311.5 1565.5,-290.5 1500.5,-290.5"/>
<text text-anchor="middle" x="1533" y="-298.5" font-family="Helvetica,sans-Serif" font-size="10.00">HostArm.h</text>
</a>
</g>
<!-- Node1&#45;&gt;Node3 -->
<g id="edge4" class="edge"><title>Node1&#45;&gt;Node3</title>
<path fill="none" stroke="midnightblue" d="M1704.15,-348.497C1667.87,-338.428 1613.19,-323.253 1575.44,-312.779"/>
<polygon fill="midnightblue" stroke="midnightblue" points="1576.33,-309.392 1565.76,-310.09 1574.46,-316.137 1576.33,-309.392"/>
</g>
<!-- Node3&#45;&gt;Node2 -->
<g id="edge6" class="edge"><title>Node3&#45;&gt;Node2</title>
<path fill="none" stroke="midnightblue" d="M1500.42,-297.858C1470.48,-293.244 1426.91,-281.889 1401,-254 1379.35,-230.699 1382,-216.808 1382,-185 1382,-185 1382,-185 1382,-127 1382,-74.6465 999.984,-29.4488 868.691,-15.4611"/>
<polygon fill="midnightblue" stroke="midnightblue" points="868.901,-11.9639 858.588,-14.3938 868.165,-18.9251 868.901,-11.9639"/>
</g>
<!-- Node4 -->
<g id="node8" class="node"><title>Node4</title>
<a xlink:href="HostBase_8h.htm" target="_top" xlink:title="HostBase.h">
<polygon fill="white" stroke="black" points="867.5,-232.5 867.5,-253.5 938.5,-253.5 938.5,-232.5 867.5,-232.5"/>
<text text-anchor="middle" x="903" y="-240.5" font-family="Helvetica,sans-Serif" font-size="10.00">HostBase.h</text>
</a>
</g>
<!-- Node3&#45;&gt;Node4 -->
<g id="edge8" class="edge"><title>Node3&#45;&gt;Node4</title>
<path fill="none" stroke="midnightblue" d="M1500.46,-298.004C1396.16,-288.402 1069.99,-258.374 948.878,-247.224"/>
<polygon fill="midnightblue" stroke="midnightblue" points="949.1,-243.729 938.821,-246.298 948.458,-250.7 949.1,-243.729"/>
</g>
<!-- Node13 -->
<g id="node32" class="node"><title>Node13</title>
<a xlink:href="Event_8h.htm" target="_top" xlink:title="Event.h">
<polygon fill="white" stroke="black" points="337,-116.5 337,-137.5 389,-137.5 389,-116.5 337,-116.5"/>
<text text-anchor="middle" x="363" y="-124.5" font-family="Helvetica,sans-Serif" font-size="10.00">Event.h</text>
</a>
</g>
<!-- Node3&#45;&gt;Node13 -->
<g id="edge90" class="edge"><title>Node3&#45;&gt;Node13</title>
<path fill="none" stroke="midnightblue" d="M1500.45,-300.193C1342.92,-295.926 659.287,-273.197 463,-196 432.051,-183.828 401.292,-160.476 382.229,-144.333"/>
<polygon fill="midnightblue" stroke="midnightblue" points="384.422,-141.601 374.572,-137.699 379.838,-146.892 384.422,-141.601"/>
</g>
<!-- Node21 -->
<g id="node58" class="node"><title>Node21</title>
<a xlink:href="CustomEvents_8h.htm" target="_top" xlink:title="CustomEvents.h">
<polygon fill="white" stroke="black" points="1162,-174.5 1162,-195.5 1254,-195.5 1254,-174.5 1162,-174.5"/>
<text text-anchor="middle" x="1208" y="-182.5" font-family="Helvetica,sans-Serif" font-size="10.00">CustomEvents.h</text>
</a>
</g>
<!-- Node3&#45;&gt;Node21 -->
<g id="edge92" class="edge"><title>Node3&#45;&gt;Node21</title>
<path fill="none" stroke="midnightblue" d="M1500.36,-293.037C1466.79,-284.537 1413.17,-270.097 1368,-254 1322.29,-237.712 1271.05,-214.745 1239.15,-199.865"/>
<polygon fill="midnightblue" stroke="midnightblue" points="1240.44,-196.603 1229.9,-195.522 1237.46,-202.94 1240.44,-196.603"/>
</g>
<!-- Node28 -->
<g id="node75" class="node"><title>Node28</title>
<polygon fill="white" stroke="#bfbfbf" points="1612,-232.5 1612,-253.5 1666,-253.5 1666,-232.5 1612,-232.5"/>
<text text-anchor="middle" x="1639" y="-240.5" font-family="Helvetica,sans-Serif" font-size="10.00">HidLib.h</text>
</g>
<!-- Node3&#45;&gt;Node28 -->
<g id="edge94" class="edge"><title>Node3&#45;&gt;Node28</title>
<path fill="none" stroke="midnightblue" d="M1552.44,-290.362C1568.8,-281.409 1592.41,-268.491 1610.84,-258.406"/>
<polygon fill="midnightblue" stroke="midnightblue" points="1612.59,-261.441 1619.68,-253.571 1609.23,-255.3 1612.59,-261.441"/>
</g>
<!-- Node29 -->
<g id="node77" class="node"><title>Node29</title>
<polygon fill="white" stroke="#bfbfbf" points="1684,-232.5 1684,-253.5 1762,-253.5 1762,-232.5 1684,-232.5"/>
<text text-anchor="middle" x="1723" y="-240.5" font-family="Helvetica,sans-Serif" font-size="10.00">lunaservice.h</text>
</g>
<!-- Node3&#45;&gt;Node29 -->
<g id="edge96" class="edge"><title>Node3&#45;&gt;Node29</title>
<path fill="none" stroke="midnightblue" d="M1565.66,-291.029C1596.85,-281.508 1644.1,-267.086 1678.68,-256.53"/>
<polygon fill="midnightblue" stroke="midnightblue" points="1679.98,-259.793 1688.52,-253.526 1677.93,-253.098 1679.98,-259.793"/>
</g>
<!-- Node30 -->
<g id="node79" class="node"><title>Node30</title>
<a xlink:href="HALSensorConnector_8h.htm" target="_top" xlink:title="hal/HALSensorConnector.h">
<polygon fill="white" stroke="black" points="1410,-232.5 1410,-253.5 1556,-253.5 1556,-232.5 1410,-232.5"/>
<text text-anchor="middle" x="1483" y="-240.5" font-family="Helvetica,sans-Serif" font-size="10.00">hal/HALSensorConnector.h</text>
</a>
</g>
<!-- Node3&#45;&gt;Node30 -->
<g id="edge98" class="edge"><title>Node3&#45;&gt;Node30</title>
<path fill="none" stroke="midnightblue" d="M1523.83,-290.362C1516.85,-282.268 1507.08,-270.932 1498.84,-261.38"/>
<polygon fill="midnightblue" stroke="midnightblue" points="1501.29,-258.859 1492.11,-253.571 1495.99,-263.43 1501.29,-258.859"/>
</g>
<!-- Node32 -->
<g id="node83" class="node"><title>Node32</title>
<polygon fill="white" stroke="#bfbfbf" points="1783.5,-174.5 1783.5,-195.5 1838.5,-195.5 1838.5,-174.5 1783.5,-174.5"/>
<text text-anchor="middle" x="1811" y="-182.5" font-family="Helvetica,sans-Serif" font-size="10.00">QObject</text>
</g>
<!-- Node3&#45;&gt;Node32 -->
<g id="edge118" class="edge"><title>Node3&#45;&gt;Node32</title>
<path fill="none" stroke="midnightblue" d="M1540.72,-290.262C1552.39,-274.86 1576.05,-246.732 1603,-232 1617.87,-223.872 1717.88,-203.327 1773.63,-192.285"/>
<polygon fill="midnightblue" stroke="midnightblue" points="1774.36,-195.709 1783.49,-190.339 1773,-188.841 1774.36,-195.709"/>
</g>
<!-- Node36 -->
<g id="node94" class="node"><title>Node36</title>
<polygon fill="white" stroke="#bfbfbf" points="1780,-232.5 1780,-253.5 1874,-253.5 1874,-232.5 1780,-232.5"/>
<text text-anchor="middle" x="1827" y="-240.5" font-family="Helvetica,sans-Serif" font-size="10.00">qsocketnotifier.h</text>
</g>
<!-- Node3&#45;&gt;Node36 -->
<g id="edge116" class="edge"><title>Node3&#45;&gt;Node36</title>
<path fill="none" stroke="midnightblue" d="M1565.59,-294.571C1614.94,-284.835 1709.33,-266.214 1770.16,-254.214"/>
<polygon fill="midnightblue" stroke="midnightblue" points="1770.86,-257.643 1779.99,-252.274 1769.5,-250.775 1770.86,-257.643"/>
</g>
<!-- Node4&#45;&gt;Node2 -->
<g id="edge10" class="edge"><title>Node4&#45;&gt;Node2</title>
<path fill="none" stroke="midnightblue" d="M899.446,-232.429C887.365,-196.497 847.753,-78.6742 831.773,-31.1453"/>
<polygon fill="midnightblue" stroke="midnightblue" points="835.079,-29.9967 828.575,-21.6335 828.444,-32.2275 835.079,-29.9967"/>
</g>
<!-- Node5 -->
<g id="node11" class="node"><title>Node5</title>
<polygon fill="white" stroke="#bfbfbf" points="897.5,-174.5 897.5,-195.5 974.5,-195.5 974.5,-174.5 897.5,-174.5"/>
<text text-anchor="middle" x="936" y="-182.5" font-family="Helvetica,sans-Serif" font-size="10.00">PGContext.h</text>
</g>
<!-- Node4&#45;&gt;Node5 -->
<g id="edge12" class="edge"><title>Node4&#45;&gt;Node5</title>
<path fill="none" stroke="midnightblue" d="M909.053,-232.362C913.472,-224.595 919.59,-213.843 924.879,-204.546"/>
<polygon fill="midnightblue" stroke="midnightblue" points="928.082,-205.993 929.986,-195.571 921.998,-202.531 928.082,-205.993"/>
</g>
<!-- Node6 -->
<g id="node13" class="node"><title>Node6</title>
<polygon fill="white" stroke="#bfbfbf" points="992,-174.5 992,-195.5 1060,-195.5 1060,-174.5 992,-174.5"/>
<text text-anchor="middle" x="1026" y="-182.5" font-family="Helvetica,sans-Serif" font-size="10.00">PContext.h</text>
</g>
<!-- Node4&#45;&gt;Node6 -->
<g id="edge14" class="edge"><title>Node4&#45;&gt;Node6</title>
<path fill="none" stroke="midnightblue" d="M925.274,-232.497C944.572,-223.397 972.713,-210.127 994.348,-199.925"/>
<polygon fill="midnightblue" stroke="midnightblue" points="995.924,-203.052 1003.48,-195.621 992.938,-196.721 995.924,-203.052"/>
</g>
<!-- Node7 -->
<g id="node15" class="node"><title>Node7</title>
<polygon fill="white" stroke="#bfbfbf" points="1078,-174.5 1078,-195.5 1144,-195.5 1144,-174.5 1078,-174.5"/>
<text text-anchor="middle" x="1111" y="-182.5" font-family="Helvetica,sans-Serif" font-size="10.00">PPixmap.h</text>
</g>
<!-- Node4&#45;&gt;Node7 -->
<g id="edge16" class="edge"><title>Node4&#45;&gt;Node7</title>
<path fill="none" stroke="midnightblue" d="M938.756,-233.029C974.582,-223.04 1029.75,-207.656 1067.96,-197.002"/>
<polygon fill="midnightblue" stroke="midnightblue" points="1069.08,-200.324 1077.77,-194.266 1067.2,-193.581 1069.08,-200.324"/>
</g>
<!-- Node8 -->
<g id="node17" class="node"><title>Node8</title>
<a xlink:href="TaskBase_8h.htm" target="_top" xlink:title="TaskBase.h">
<polygon fill="white" stroke="black" points="472,-174.5 472,-195.5 544,-195.5 544,-174.5 472,-174.5"/>
<text text-anchor="middle" x="508" y="-182.5" font-family="Helvetica,sans-Serif" font-size="10.00">TaskBase.h</text>
</a>
</g>
<!-- Node4&#45;&gt;Node8 -->
<g id="edge18" class="edge"><title>Node4&#45;&gt;Node8</title>
<path fill="none" stroke="midnightblue" d="M867.277,-239.471C805.469,-233.091 674.435,-218.362 554.375,-196.113"/>
<polygon fill="midnightblue" stroke="midnightblue" points="554.751,-192.622 544.277,-194.218 553.46,-199.502 554.751,-192.622"/>
</g>
<!-- Node19 -->
<g id="node47" class="node"><title>Node19</title>
<a xlink:href="Mutex_8h.htm" target="_top" xlink:title="Mutex.h">
<polygon fill="white" stroke="black" points="653.5,-116.5 653.5,-137.5 706.5,-137.5 706.5,-116.5 653.5,-116.5"/>
<text text-anchor="middle" x="680" y="-124.5" font-family="Helvetica,sans-Serif" font-size="10.00">Mutex.h</text>
</a>
</g>
<!-- Node4&#45;&gt;Node19 -->
<g id="edge72" class="edge"><title>Node4&#45;&gt;Node19</title>
<path fill="none" stroke="midnightblue" d="M891.606,-232.339C875.285,-217.539 843.808,-190.706 813,-174 782.075,-157.231 743.979,-144.482 716.497,-136.522"/>
<polygon fill="midnightblue" stroke="midnightblue" points="717.095,-133.054 706.521,-133.707 715.194,-139.791 717.095,-133.054"/>
</g>
<!-- Node4&#45;&gt;Node21 -->
<g id="edge74" class="edge"><title>Node4&#45;&gt;Node21</title>
<path fill="none" stroke="midnightblue" d="M938.629,-236.436C985.25,-227.817 1069.76,-212.093 1151.8,-196.218"/>
<polygon fill="midnightblue" stroke="midnightblue" points="1152.64,-199.62 1161.79,-194.281 1151.31,-192.748 1152.64,-199.62"/>
</g>
<!-- Node23 -->
<g id="node63" class="node"><title>Node23</title>
<a xlink:href="InputControl_8h.htm" target="_top" xlink:title="InputControl.h">
<polygon fill="white" stroke="black" points="1271.5,-174.5 1271.5,-195.5 1354.5,-195.5 1354.5,-174.5 1271.5,-174.5"/>
<text text-anchor="middle" x="1313" y="-182.5" font-family="Helvetica,sans-Serif" font-size="10.00">InputControl.h</text>
</a>
</g>
<!-- Node4&#45;&gt;Node23 -->
<g id="edge80" class="edge"><title>Node4&#45;&gt;Node23</title>
<path fill="none" stroke="midnightblue" d="M938.668,-239.381C1001.79,-232.752 1137.48,-217.497 1261.28,-196.198"/>
<polygon fill="midnightblue" stroke="midnightblue" points="1262.06,-199.616 1271.31,-194.455 1260.86,-192.719 1262.06,-199.616"/>
</g>
<!-- Node25 -->
<g id="node67" class="node"><title>Node25</title>
<polygon fill="white" stroke="#bfbfbf" points="561.5,-174.5 561.5,-195.5 686.5,-195.5 686.5,-174.5 561.5,-174.5"/>
<text text-anchor="middle" x="624" y="-182.5" font-family="Helvetica,sans-Serif" font-size="10.00">webosDeviceKeymap.h</text>
</g>
<!-- Node4&#45;&gt;Node25 -->
<g id="edge84" class="edge"><title>Node4&#45;&gt;Node25</title>
<path fill="none" stroke="midnightblue" d="M867.381,-235.595C821.397,-226.036 740.672,-209.254 684.872,-197.654"/>
<polygon fill="midnightblue" stroke="midnightblue" points="685.26,-194.16 674.756,-195.552 683.835,-201.014 685.26,-194.16"/>
</g>
<!-- Node26 -->
<g id="node69" class="node"><title>Node26</title>
<polygon fill="white" stroke="#bfbfbf" points="703.5,-174.5 703.5,-195.5 732.5,-195.5 732.5,-174.5 703.5,-174.5"/>
<text text-anchor="middle" x="718" y="-182.5" font-family="Helvetica,sans-Serif" font-size="10.00">Qt</text>
</g>
<!-- Node4&#45;&gt;Node26 -->
<g id="edge86" class="edge"><title>Node4&#45;&gt;Node26</title>
<path fill="none" stroke="midnightblue" d="M867.375,-234.457C836.255,-226.602 789.811,-213.933 742.425,-196.194"/>
<polygon fill="midnightblue" stroke="midnightblue" points="743.53,-192.87 732.94,-192.578 741.037,-199.411 743.53,-192.87"/>
</g>
<!-- Node27 -->
<g id="node71" class="node"><title>Node27</title>
<polygon fill="white" stroke="#bfbfbf" points="750,-174.5 750,-195.5 804,-195.5 804,-174.5 750,-174.5"/>
<text text-anchor="middle" x="777" y="-182.5" font-family="Helvetica,sans-Serif" font-size="10.00">QImage</text>
</g>
<!-- Node4&#45;&gt;Node27 -->
<g id="edge88" class="edge"><title>Node4&#45;&gt;Node27</title>
<path fill="none" stroke="midnightblue" d="M880.182,-232.497C860.414,-223.397 831.587,-210.127 809.424,-199.925"/>
<polygon fill="midnightblue" stroke="midnightblue" points="810.621,-196.623 800.074,-195.621 807.694,-202.982 810.621,-196.623"/>
</g>
<!-- Node8&#45;&gt;Node2 -->
<g id="edge20" class="edge"><title>Node8&#45;&gt;Node2</title>
<path fill="none" stroke="midnightblue" d="M544.318,-175.982C547.252,-175.297 550.174,-174.628 553,-174 632.643,-156.31 658.993,-172.336 733,-138 770.59,-120.56 783.15,-114.569 806,-80 815.609,-65.4626 820.392,-46.1441 822.753,-31.6465"/>
<polygon fill="midnightblue" stroke="midnightblue" points="826.231,-32.0423 824.126,-21.6588 819.297,-31.0889 826.231,-32.0423"/>
</g>
<!-- Node9 -->
<g id="node20" class="node"><title>Node9</title>
<polygon fill="white" stroke="#bfbfbf" points="548.5,-0.5 548.5,-21.5 589.5,-21.5 589.5,-0.5 548.5,-0.5"/>
<text text-anchor="middle" x="569" y="-8.5" font-family="Helvetica,sans-Serif" font-size="10.00">glib.h</text>
</g>
<!-- Node8&#45;&gt;Node9 -->
<g id="edge22" class="edge"><title>Node8&#45;&gt;Node9</title>
<path fill="none" stroke="midnightblue" d="M495.428,-174.203C470.554,-151.519 419.731,-97.7281 447,-58 457.663,-42.4647 505.812,-27.3109 538.338,-18.5784"/>
<polygon fill="midnightblue" stroke="midnightblue" points="539.493,-21.8939 548.281,-15.9765 537.721,-15.1219 539.493,-21.8939"/>
</g>
<!-- Node10 -->
<g id="node22" class="node"><title>Node10</title>
<polygon fill="white" stroke="#bfbfbf" points="493.5,-116.5 493.5,-137.5 522.5,-137.5 522.5,-116.5 493.5,-116.5"/>
<text text-anchor="middle" x="508" y="-124.5" font-family="Helvetica,sans-Serif" font-size="10.00">list</text>
</g>
<!-- Node8&#45;&gt;Node10 -->
<g id="edge24" class="edge"><title>Node8&#45;&gt;Node10</title>
<path fill="none" stroke="midnightblue" d="M508,-174.362C508,-166.922 508,-156.743 508,-147.728"/>
<polygon fill="midnightblue" stroke="midnightblue" points="511.5,-147.571 508,-137.571 504.5,-147.571 511.5,-147.571"/>
</g>
<!-- Node11 -->
<g id="node24" class="node"><title>Node11</title>
<a xlink:href="sptr_8h.htm" target="_top" xlink:title="sptr.h">
<polygon fill="white" stroke="black" points="523.5,-58.5 523.5,-79.5 566.5,-79.5 566.5,-58.5 523.5,-58.5"/>
<text text-anchor="middle" x="545" y="-66.5" font-family="Helvetica,sans-Serif" font-size="10.00">sptr.h</text>
</a>
</g>
<!-- Node8&#45;&gt;Node11 -->
<g id="edge26" class="edge"><title>Node8&#45;&gt;Node11</title>
<path fill="none" stroke="midnightblue" d="M499.472,-174.377C489.463,-160.531 475.381,-135.754 485,-116 491.324,-103.012 503.166,-92.5543 514.67,-84.8305"/>
<polygon fill="midnightblue" stroke="midnightblue" points="516.661,-87.714 523.304,-79.4603 512.964,-81.77 516.661,-87.714"/>
</g>
<!-- Node12 -->
<g id="node28" class="node"><title>Node12</title>
<a xlink:href="AsyncCaller_8h.htm" target="_top" xlink:title="AsyncCaller.h">
<polygon fill="white" stroke="black" points="659.5,-58.5 659.5,-79.5 740.5,-79.5 740.5,-58.5 659.5,-58.5"/>
<text text-anchor="middle" x="700" y="-66.5" font-family="Helvetica,sans-Serif" font-size="10.00">AsyncCaller.h</text>
</a>
</g>
<!-- Node8&#45;&gt;Node12 -->
<g id="edge32" class="edge"><title>Node8&#45;&gt;Node12</title>
<path fill="none" stroke="midnightblue" d="M544.334,-176.049C547.264,-175.348 550.18,-174.658 553,-174 624.827,-157.242 668.849,-195.533 715,-138 726.201,-124.037 719.744,-103.555 712.129,-88.5327"/>
<polygon fill="midnightblue" stroke="midnightblue" points="715.06,-86.6013 707.132,-79.5729 708.946,-90.0112 715.06,-86.6013"/>
</g>
<!-- Node8&#45;&gt;Node13 -->
<g id="edge38" class="edge"><title>Node8&#45;&gt;Node13</title>
<path fill="none" stroke="midnightblue" d="M481.742,-174.497C458.44,-165.176 424.2,-151.48 398.468,-141.187"/>
<polygon fill="midnightblue" stroke="midnightblue" points="399.648,-137.89 389.063,-137.425 397.048,-144.389 399.648,-137.89"/>
</g>
<!-- Node8&#45;&gt;Node19 -->
<g id="edge56" class="edge"><title>Node8&#45;&gt;Node19</title>
<path fill="none" stroke="midnightblue" d="M539.148,-174.497C568.586,-164.57 612.741,-149.68 643.748,-139.225"/>
<polygon fill="midnightblue" stroke="midnightblue" points="644.96,-142.51 653.317,-135.998 642.723,-135.876 644.96,-142.51"/>
</g>
<!-- Node20 -->
<g id="node52" class="node"><title>Node20</title>
<a xlink:href="SingletonTimer_8h.htm" target="_top" xlink:title="SingletonTimer.h">
<polygon fill="white" stroke="black" points="540,-116.5 540,-137.5 636,-137.5 636,-116.5 540,-116.5"/>
<text text-anchor="middle" x="588" y="-124.5" font-family="Helvetica,sans-Serif" font-size="10.00">SingletonTimer.h</text>
</a>
</g>
<!-- Node8&#45;&gt;Node20 -->
<g id="edge64" class="edge"><title>Node8&#45;&gt;Node20</title>
<path fill="none" stroke="midnightblue" d="M522.673,-174.362C534.514,-165.777 551.385,-153.546 565.016,-143.664"/>
<polygon fill="midnightblue" stroke="midnightblue" points="567.378,-146.274 573.42,-137.571 563.269,-140.607 567.378,-146.274"/>
</g>
<!-- Node11&#45;&gt;Node2 -->
<g id="edge28" class="edge"><title>Node11&#45;&gt;Node2</title>
<path fill="none" stroke="midnightblue" d="M566.506,-64.5451C612.265,-55.0666 720.058,-32.7379 781.01,-20.1122"/>
<polygon fill="midnightblue" stroke="midnightblue" points="782.015,-23.4785 791.097,-18.0228 780.595,-16.624 782.015,-23.4785"/>
</g>
<!-- Node11&#45;&gt;Node9 -->
<g id="edge30" class="edge"><title>Node11&#45;&gt;Node9</title>
<path fill="none" stroke="midnightblue" d="M549.402,-58.3619C552.582,-50.6766 556.972,-40.0686 560.79,-30.8399"/>
<polygon fill="midnightblue" stroke="midnightblue" points="564.036,-32.1491 564.626,-21.5707 557.568,-29.4726 564.036,-32.1491"/>
</g>
<!-- Node12&#45;&gt;Node2 -->
<g id="edge34" class="edge"><title>Node12&#45;&gt;Node2</title>
<path fill="none" stroke="midnightblue" d="M722.637,-58.4966C742.248,-49.397 770.846,-36.1273 792.833,-25.9253"/>
<polygon fill="midnightblue" stroke="midnightblue" points="794.512,-29.0051 802.109,-21.6212 791.565,-22.6554 794.512,-29.0051"/>
</g>
<!-- Node12&#45;&gt;Node9 -->
<g id="edge36" class="edge"><title>Node12&#45;&gt;Node9</title>
<path fill="none" stroke="midnightblue" d="M676.277,-58.4966C654.503,-48.8563 622.158,-34.5356 598.68,-24.1408"/>
<polygon fill="midnightblue" stroke="midnightblue" points="600.093,-20.9385 589.532,-20.0904 597.259,-27.3392 600.093,-20.9385"/>
</g>
<!-- Node13&#45;&gt;Node2 -->
<g id="edge40" class="edge"><title>Node13&#45;&gt;Node2</title>
<path fill="none" stroke="midnightblue" d="M372.087,-116.435C386.298,-100.712 415.44,-71.5555 447,-58 506.338,-32.5136 695.155,-18.5589 781.345,-13.3749"/>
<polygon fill="midnightblue" stroke="midnightblue" points="781.555,-16.8686 791.332,-12.786 781.143,-9.88079 781.555,-16.8686"/>
</g>
<!-- Node13&#45;&gt;Node9 -->
<g id="edge44" class="edge"><title>Node13&#45;&gt;Node9</title>
<path fill="none" stroke="midnightblue" d="M361.745,-116.324C360.61,-101.257 360.982,-73.8298 376,-58 398.057,-34.7497 489.819,-20.4857 538.444,-14.415"/>
<polygon fill="midnightblue" stroke="midnightblue" points="538.899,-17.8856 548.406,-13.2107 538.059,-10.9362 538.899,-17.8856"/>
</g>
<!-- Node13&#45;&gt;Node11 -->
<g id="edge54" class="edge"><title>Node13&#45;&gt;Node11</title>
<path fill="none" stroke="midnightblue" d="M389.221,-119.34C417.78,-110.899 465.001,-96.6617 513.938,-80.2615"/>
<polygon fill="midnightblue" stroke="midnightblue" points="515.06,-83.577 523.417,-77.0646 512.823,-76.9441 515.06,-83.577"/>
</g>
<!-- Node14 -->
<g id="node35" class="node"><title>Node14</title>
<polygon fill="white" stroke="#bfbfbf" points="456,-58.5 456,-79.5 506,-79.5 506,-58.5 456,-58.5"/>
<text text-anchor="middle" x="481" y="-66.5" font-family="Helvetica,sans-Serif" font-size="10.00">stdint.h</text>
</g>
<!-- Node13&#45;&gt;Node14 -->
<g id="edge42" class="edge"><title>Node13&#45;&gt;Node14</title>
<path fill="none" stroke="midnightblue" d="M384.369,-116.497C402.799,-107.438 429.637,-94.2462 450.355,-84.0628"/>
<polygon fill="midnightblue" stroke="midnightblue" points="451.961,-87.1735 459.391,-79.6212 448.873,-80.8914 451.961,-87.1735"/>
</g>
<!-- Node15 -->
<g id="node38" class="node"><title>Node15</title>
<polygon fill="white" stroke="#bfbfbf" points="-0.5,-58.5 -0.5,-79.5 46.5,-79.5 46.5,-58.5 -0.5,-58.5"/>
<text text-anchor="middle" x="23" y="-66.5" font-family="Helvetica,sans-Serif" font-size="10.00">stdio.h</text>
</g>
<!-- Node13&#45;&gt;Node15 -->
<g id="edge46" class="edge"><title>Node13&#45;&gt;Node15</title>
<path fill="none" stroke="midnightblue" d="M336.73,-124.599C284.728,-119.506 164.976,-106.084 56.4203,-80.043"/>
<polygon fill="midnightblue" stroke="midnightblue" points="57.1689,-76.623 46.6241,-77.6505 55.5081,-83.4232 57.1689,-76.623"/>
</g>
<!-- Node16 -->
<g id="node40" class="node"><title>Node16</title>
<polygon fill="white" stroke="#bfbfbf" points="63.5,-58.5 63.5,-79.5 114.5,-79.5 114.5,-58.5 63.5,-58.5"/>
<text text-anchor="middle" x="89" y="-66.5" font-family="Helvetica,sans-Serif" font-size="10.00">string.h</text>
</g>
<!-- Node13&#45;&gt;Node16 -->
<g id="edge48" class="edge"><title>Node13&#45;&gt;Node16</title>
<path fill="none" stroke="midnightblue" d="M336.845,-122.931C294.185,-116.069 206.852,-101.084 124.303,-80.1355"/>
<polygon fill="midnightblue" stroke="midnightblue" points="125.08,-76.7215 114.524,-77.6193 123.336,-83.5007 125.08,-76.7215"/>
</g>
<!-- Node17 -->
<g id="node42" class="node"><title>Node17</title>
<polygon fill="white" stroke="#bfbfbf" points="132,-58.5 132,-79.5 218,-79.5 218,-58.5 132,-58.5"/>
<text text-anchor="middle" x="175" y="-66.5" font-family="Helvetica,sans-Serif" font-size="10.00">qnamespace.h</text>
</g>
<!-- Node13&#45;&gt;Node17 -->
<g id="edge50" class="edge"><title>Node13&#45;&gt;Node17</title>
<path fill="none" stroke="midnightblue" d="M336.859,-118.935C306.426,-109.546 255.672,-93.8883 219.104,-82.6067"/>
<polygon fill="midnightblue" stroke="midnightblue" points="219.783,-79.1532 209.195,-79.5496 217.719,-85.8421 219.783,-79.1532"/>
</g>
<!-- Node18 -->
<g id="node44" class="node"><title>Node18</title>
<polygon fill="white" stroke="#bfbfbf" points="236,-58.5 236,-79.5 324,-79.5 324,-58.5 236,-58.5"/>
<text text-anchor="middle" x="280" y="-66.5" font-family="Helvetica,sans-Serif" font-size="10.00">SysMgrEvent.h</text>
</g>
<!-- Node13&#45;&gt;Node18 -->
<g id="edge52" class="edge"><title>Node13&#45;&gt;Node18</title>
<path fill="none" stroke="midnightblue" d="M347.777,-116.362C335.375,-107.696 317.654,-95.3126 303.443,-85.3819"/>
<polygon fill="midnightblue" stroke="midnightblue" points="305.329,-82.4297 295.127,-79.5707 301.319,-88.1676 305.329,-82.4297"/>
</g>
<!-- Node19&#45;&gt;Node2 -->
<g id="edge58" class="edge"><title>Node19&#45;&gt;Node2</title>
<path fill="none" stroke="midnightblue" d="M706.698,-119.448C728.815,-112.155 760.063,-99.3429 782,-80 797.311,-66.499 809.047,-46.2306 816.359,-31.1501"/>
<polygon fill="midnightblue" stroke="midnightblue" points="819.713,-32.2338 820.705,-21.6856 813.352,-29.3128 819.713,-32.2338"/>
</g>
<!-- Node19&#45;&gt;Node9 -->
<g id="edge62" class="edge"><title>Node19&#45;&gt;Node9</title>
<path fill="none" stroke="midnightblue" d="M669.756,-116.295C650.675,-96.3545 609.512,-53.337 586.134,-28.9056"/>
<polygon fill="midnightblue" stroke="midnightblue" points="588.661,-26.4845 579.219,-21.6792 583.604,-31.3241 588.661,-26.4845"/>
</g>
<!-- Node19&#45;&gt;Node11 -->
<g id="edge60" class="edge"><title>Node19&#45;&gt;Node11</title>
<path fill="none" stroke="midnightblue" d="M655.553,-116.497C633.247,-106.914 600.178,-92.706 576.019,-82.3269"/>
<polygon fill="midnightblue" stroke="midnightblue" points="577.163,-79.0087 566.593,-78.277 574.399,-85.4402 577.163,-79.0087"/>
</g>
<!-- Node20&#45;&gt;Node2 -->
<g id="edge66" class="edge"><title>Node20&#45;&gt;Node2</title>
<path fill="none" stroke="midnightblue" d="M632.278,-116.457C672.664,-106.414 728.994,-91.2061 749,-80 772.7,-66.7247 795.121,-44.7954 809.384,-29.2244"/>
<polygon fill="midnightblue" stroke="midnightblue" points="812.016,-31.5323 816.063,-21.7409 806.793,-26.8715 812.016,-31.5323"/>
</g>
<!-- Node20&#45;&gt;Node9 -->
<g id="edge68" class="edge"><title>Node20&#45;&gt;Node9</title>
<path fill="none" stroke="midnightblue" d="M586.247,-116.295C583.108,-97.1314 576.478,-56.654 572.414,-31.8434"/>
<polygon fill="midnightblue" stroke="midnightblue" points="575.82,-30.9819 570.749,-21.6792 568.912,-32.1135 575.82,-30.9819"/>
</g>
<!-- Node20&#45;&gt;Node14 -->
<g id="edge70" class="edge"><title>Node20&#45;&gt;Node14</title>
<path fill="none" stroke="midnightblue" d="M568.375,-116.362C551.859,-107.409 528.026,-94.4908 509.422,-84.4064"/>
<polygon fill="midnightblue" stroke="midnightblue" points="510.96,-81.2592 500.501,-79.5707 507.625,-87.4132 510.96,-81.2592"/>
</g>
<!-- Node21&#45;&gt;Node2 -->
<g id="edge76" class="edge"><title>Node21&#45;&gt;Node2</title>
<path fill="none" stroke="midnightblue" d="M1184.62,-174.377C1119.18,-144.649 934.034,-60.5351 858.108,-26.0412"/>
<polygon fill="midnightblue" stroke="midnightblue" points="859.115,-22.6543 848.562,-21.7046 856.219,-29.0275 859.115,-22.6543"/>
</g>
<!-- Node22 -->
<g id="node61" class="node"><title>Node22</title>
<polygon fill="white" stroke="#bfbfbf" points="1242,-116.5 1242,-137.5 1294,-137.5 1294,-116.5 1242,-116.5"/>
<text text-anchor="middle" x="1268" y="-124.5" font-family="Helvetica,sans-Serif" font-size="10.00">QEvent</text>
</g>
<!-- Node21&#45;&gt;Node22 -->
<g id="edge78" class="edge"><title>Node21&#45;&gt;Node22</title>
<path fill="none" stroke="midnightblue" d="M1219,-174.362C1227.55,-166.104 1239.58,-154.472 1249.58,-144.803"/>
<polygon fill="midnightblue" stroke="midnightblue" points="1252.31,-147.037 1257.06,-137.571 1247.44,-142.004 1252.31,-147.037"/>
</g>
<!-- Node24 -->
<g id="node65" class="node"><title>Node24</title>
<polygon fill="white" stroke="#bfbfbf" points="1569,-116.5 1569,-137.5 1625,-137.5 1625,-116.5 1569,-116.5"/>
<text text-anchor="middle" x="1597" y="-124.5" font-family="Helvetica,sans-Serif" font-size="10.00">hal/hal.h</text>
</g>
<!-- Node23&#45;&gt;Node24 -->
<g id="edge82" class="edge"><title>Node23&#45;&gt;Node24</title>
<path fill="none" stroke="midnightblue" d="M1354.6,-176.504C1409.49,-165.295 1505.35,-145.718 1558.59,-134.844"/>
<polygon fill="midnightblue" stroke="midnightblue" points="1559.55,-138.221 1568.65,-132.79 1558.15,-131.362 1559.55,-138.221"/>
</g>
<!-- Node30&#45;&gt;Node21 -->
<g id="edge114" class="edge"><title>Node30&#45;&gt;Node21</title>
<path fill="none" stroke="midnightblue" d="M1433.2,-232.497C1385.56,-222.449 1313.81,-207.317 1264.16,-196.844"/>
<polygon fill="midnightblue" stroke="midnightblue" points="1264.73,-193.389 1254.23,-194.75 1263.29,-200.238 1264.73,-193.389"/>
</g>
<!-- Node30&#45;&gt;Node22 -->
<g id="edge106" class="edge"><title>Node30&#45;&gt;Node22</title>
<path fill="none" stroke="midnightblue" d="M1465.3,-232.362C1442.06,-218.498 1399.88,-193.703 1363,-174 1342.13,-162.851 1318.26,-151.044 1299.66,-142.053"/>
<polygon fill="midnightblue" stroke="midnightblue" points="1300.99,-138.81 1290.47,-137.627 1297.96,-145.117 1300.99,-138.81"/>
</g>
<!-- Node30&#45;&gt;Node24 -->
<g id="edge112" class="edge"><title>Node30&#45;&gt;Node24</title>
<path fill="none" stroke="midnightblue" d="M1551.91,-232.466C1625.06,-220.952 1731.02,-203.186 1737,-196 1768.13,-158.582 1686.65,-139.703 1635.26,-131.769"/>
<polygon fill="midnightblue" stroke="midnightblue" points="1635.52,-128.269 1625.11,-130.282 1634.5,-135.195 1635.52,-128.269"/>
</g>
<!-- Node31 -->
<g id="node81" class="node"><title>Node31</title>
<polygon fill="white" stroke="#bfbfbf" points="1448,-174.5 1448,-195.5 1496,-195.5 1496,-174.5 1448,-174.5"/>
<text text-anchor="middle" x="1472" y="-182.5" font-family="Helvetica,sans-Serif" font-size="10.00">limits.h</text>
</g>
<!-- Node30&#45;&gt;Node31 -->
<g id="edge100" class="edge"><title>Node30&#45;&gt;Node31</title>
<path fill="none" stroke="midnightblue" d="M1480.98,-232.362C1479.56,-224.84 1477.6,-214.519 1475.87,-205.431"/>
<polygon fill="midnightblue" stroke="midnightblue" points="1479.31,-204.743 1474,-195.571 1472.43,-206.048 1479.31,-204.743"/>
</g>
<!-- Node30&#45;&gt;Node32 -->
<g id="edge102" class="edge"><title>Node30&#45;&gt;Node32</title>
<path fill="none" stroke="midnightblue" d="M1556.22,-233.068C1614.44,-224.675 1697.81,-211.553 1770,-196 1771.08,-195.767 1772.18,-195.524 1773.28,-195.272"/>
<polygon fill="midnightblue" stroke="midnightblue" points="1774.41,-198.598 1783.3,-192.833 1772.76,-191.797 1774.41,-198.598"/>
</g>
<!-- Node33 -->
<g id="node85" class="node"><title>Node33</title>
<polygon fill="white" stroke="#bfbfbf" points="1513.5,-174.5 1513.5,-195.5 1604.5,-195.5 1604.5,-174.5 1513.5,-174.5"/>
<text text-anchor="middle" x="1559" y="-182.5" font-family="Helvetica,sans-Serif" font-size="10.00">QSocketNotifier</text>
</g>
<!-- Node30&#45;&gt;Node33 -->
<g id="edge104" class="edge"><title>Node30&#45;&gt;Node33</title>
<path fill="none" stroke="midnightblue" d="M1496.94,-232.362C1508.19,-223.777 1524.22,-211.546 1537.16,-201.664"/>
<polygon fill="midnightblue" stroke="midnightblue" points="1539.32,-204.42 1545.15,-195.571 1535.08,-198.855 1539.32,-204.42"/>
</g>
<!-- Node34 -->
<g id="node88" class="node"><title>Node34</title>
<polygon fill="white" stroke="#bfbfbf" points="1622,-174.5 1622,-195.5 1668,-195.5 1668,-174.5 1622,-174.5"/>
<text text-anchor="middle" x="1645" y="-182.5" font-family="Helvetica,sans-Serif" font-size="10.00">vector</text>
</g>
<!-- Node30&#45;&gt;Node34 -->
<g id="edge108" class="edge"><title>Node30&#45;&gt;Node34</title>
<path fill="none" stroke="midnightblue" d="M1512.34,-232.497C1540.39,-222.451 1582.65,-207.324 1611.9,-196.852"/>
<polygon fill="midnightblue" stroke="midnightblue" points="1613.42,-200.024 1621.65,-193.358 1611.06,-193.434 1613.42,-200.024"/>
</g>
<!-- Node35 -->
<g id="node90" class="node"><title>Node35</title>
<polygon fill="white" stroke="#bfbfbf" points="1685.5,-174.5 1685.5,-195.5 1728.5,-195.5 1728.5,-174.5 1685.5,-174.5"/>
<text text-anchor="middle" x="1707" y="-182.5" font-family="Helvetica,sans-Serif" font-size="10.00">string</text>
</g>
<!-- Node30&#45;&gt;Node35 -->
<g id="edge110" class="edge"><title>Node30&#45;&gt;Node35</title>
<path fill="none" stroke="midnightblue" d="M1533.26,-232.472C1570.44,-224.31 1622.45,-212.118 1675.84,-196.145"/>
<polygon fill="midnightblue" stroke="midnightblue" points="1676.91,-199.477 1685.47,-193.227 1674.88,-192.778 1676.91,-199.477"/>
</g>
</g>
</svg>
