<?xml version="1.0" encoding="UTF-8" standalone="no"?>
<!DOCTYPE svg PUBLIC "-//W3C//DTD SVG 1.1//EN"
 "http://www.w3.org/Graphics/SVG/1.1/DTD/svg11.dtd">
<!-- Generated by graphviz version 2.26.3 (20100126.1600)
 -->
<!-- Title: G Pages: 1 -->
<svg width="1644pt" height="88pt"
 viewBox="0.00 0.00 1644.00 88.00" xmlns="http://www.w3.org/2000/svg" xmlns:xlink="http://www.w3.org/1999/xlink">
<g id="graph1" class="graph" transform="scale(1 1) rotate(0) translate(4 84)">
<title>G</title>
<polygon fill="white" stroke="white" points="-4,5 -4,-84 1641,-84 1641,5 -4,5"/>
<!-- Node1 -->
<g id="node1" class="node"><title>Node1</title>
<polygon fill="#bfbfbf" stroke="black" points="750.5,-58.5 750.5,-79.5 815.5,-79.5 815.5,-58.5 750.5,-58.5"/>
<text text-anchor="middle" x="783" y="-66.5" font-family="Helvetica,sans-Serif" font-size="10.00">HostArm.h</text>
</g>
<!-- Node2 -->
<g id="node3" class="node"><title>Node2</title>
<a xlink:href="HostArm_8cpp.htm" target="_top" xlink:title="HostArm.cpp">
<polygon fill="white" stroke="black" points="-0.5,-0.5 -0.5,-21.5 76.5,-21.5 76.5,-0.5 -0.5,-0.5"/>
<text text-anchor="middle" x="38" y="-8.5" font-family="Helvetica,sans-Serif" font-size="10.00">HostArm.cpp</text>
</a>
</g>
<!-- Node1&#45;&gt;Node2 -->
<g id="edge2" class="edge"><title>Node1&#45;&gt;Node2</title>
<path fill="none" stroke="midnightblue" d="M740.13,-68.5335C630.488,-66.8175 331.151,-58.8419 85,-22 82.265,-21.5906 79.4541,-21.104 76.6324,-20.5669"/>
<polygon fill="midnightblue" stroke="midnightblue" points="740.393,-72.0376 750.444,-68.6849 740.496,-65.0384 740.393,-72.0376"/>
</g>
<!-- Node3 -->
<g id="node5" class="node"><title>Node3</title>
<a xlink:href="HostArmBroadway_8cpp.htm" target="_top" xlink:title="HostArmBroadway.cpp">
<polygon fill="white" stroke="black" points="94,-0.5 94,-21.5 218,-21.5 218,-0.5 94,-0.5"/>
<text text-anchor="middle" x="156" y="-8.5" font-family="Helvetica,sans-Serif" font-size="10.00">HostArmBroadway.cpp</text>
</a>
</g>
<!-- Node1&#45;&gt;Node3 -->
<g id="edge4" class="edge"><title>Node1&#45;&gt;Node3</title>
<path fill="none" stroke="midnightblue" d="M740.144,-66.3945C646.72,-60.4918 417.792,-44.8158 227,-22 224.151,-21.6594 221.242,-21.2911 218.304,-20.903"/>
<polygon fill="midnightblue" stroke="midnightblue" points="740.132,-69.9006 750.332,-67.0333 740.57,-62.9143 740.132,-69.9006"/>
</g>
<!-- Node4 -->
<g id="node7" class="node"><title>Node4</title>
<a xlink:href="HostArmCastle_8cpp.htm" target="_top" xlink:title="HostArmCastle.cpp">
<polygon fill="white" stroke="black" points="235.5,-0.5 235.5,-21.5 342.5,-21.5 342.5,-0.5 235.5,-0.5"/>
<text text-anchor="middle" x="289" y="-8.5" font-family="Helvetica,sans-Serif" font-size="10.00">HostArmCastle.cpp</text>
</a>
</g>
<!-- Node1&#45;&gt;Node4 -->
<g id="edge6" class="edge"><title>Node1&#45;&gt;Node4</title>
<path fill="none" stroke="midnightblue" d="M740.033,-65.2901C662.238,-58.3584 492.944,-42.2899 351,-22 348.295,-21.6133 345.526,-21.1972 342.733,-20.7611"/>
<polygon fill="midnightblue" stroke="midnightblue" points="740.121,-68.8115 750.391,-66.207 740.738,-61.8387 740.121,-68.8115"/>
</g>
<!-- Node5 -->
<g id="node9" class="node"><title>Node5</title>
<a xlink:href="HostArmChile_8cpp.htm" target="_top" xlink:title="HostArmChile.cpp">
<polygon fill="white" stroke="black" points="359.5,-0.5 359.5,-21.5 460.5,-21.5 460.5,-0.5 359.5,-0.5"/>
<text text-anchor="middle" x="410" y="-8.5" font-family="Helvetica,sans-Serif" font-size="10.00">HostArmChile.cpp</text>
</a>
</g>
<!-- Node1&#45;&gt;Node5 -->
<g id="edge8" class="edge"><title>Node1&#45;&gt;Node5</title>
<path fill="none" stroke="midnightblue" d="M740.456,-63.1239C680.014,-54.6639 565.864,-38.2737 469,-22 466.226,-21.5339 463.38,-21.0437 460.509,-20.5398"/>
<polygon fill="midnightblue" stroke="midnightblue" points="740.005,-66.5948 750.393,-64.5109 740.973,-59.662 740.005,-66.5948"/>
</g>
<!-- Node6 -->
<g id="node11" class="node"><title>Node6</title>
<a xlink:href="HostArmMantaray_8cpp.htm" target="_top" xlink:title="HostArmMantaray.cpp">
<polygon fill="white" stroke="black" points="478,-0.5 478,-21.5 600,-21.5 600,-0.5 478,-0.5"/>
<text text-anchor="middle" x="539" y="-8.5" font-family="Helvetica,sans-Serif" font-size="10.00">HostArmMantaray.cpp</text>
</a>
</g>
<!-- Node1&#45;&gt;Node6 -->
<g id="edge10" class="edge"><title>Node1&#45;&gt;Node6</title>
<path fill="none" stroke="midnightblue" d="M740.537,-58.9064C696.56,-48.4529 628.144,-32.1899 583.448,-21.5655"/>
<polygon fill="midnightblue" stroke="midnightblue" points="739.808,-62.3305 750.346,-61.238 741.427,-55.5202 739.808,-62.3305"/>
</g>
<!-- Node7 -->
<g id="node13" class="node"><title>Node7</title>
<a xlink:href="HostArmOpal_8cpp.htm" target="_top" xlink:title="HostArmOpal.cpp">
<polygon fill="white" stroke="black" points="617.5,-0.5 617.5,-21.5 716.5,-21.5 716.5,-0.5 617.5,-0.5"/>
<text text-anchor="middle" x="667" y="-8.5" font-family="Helvetica,sans-Serif" font-size="10.00">HostArmOpal.cpp</text>
</a>
</g>
<!-- Node1&#45;&gt;Node7 -->
<g id="edge12" class="edge"><title>Node1&#45;&gt;Node7</title>
<path fill="none" stroke="midnightblue" d="M752.864,-53.9319C732.586,-43.7932 706.35,-30.6748 688.242,-21.6212"/>
<polygon fill="midnightblue" stroke="midnightblue" points="751.484,-57.1549 761.993,-58.4966 754.614,-50.8939 751.484,-57.1549"/>
</g>
<!-- Node8 -->
<g id="node15" class="node"><title>Node8</title>
<a xlink:href="HostArmPixie_8cpp.htm" target="_top" xlink:title="HostArmPixie.cpp">
<polygon fill="white" stroke="black" points="733.5,-0.5 733.5,-21.5 832.5,-21.5 832.5,-0.5 733.5,-0.5"/>
<text text-anchor="middle" x="783" y="-8.5" font-family="Helvetica,sans-Serif" font-size="10.00">HostArmPixie.cpp</text>
</a>
</g>
<!-- Node1&#45;&gt;Node8 -->
<g id="edge14" class="edge"><title>Node1&#45;&gt;Node8</title>
<path fill="none" stroke="midnightblue" d="M783,-48.1906C783,-39.1684 783,-28.9941 783,-21.5707"/>
<polygon fill="midnightblue" stroke="midnightblue" points="779.5,-48.3619 783,-58.3619 786.5,-48.3619 779.5,-48.3619"/>
</g>
<!-- Node9 -->
<g id="node17" class="node"><title>Node9</title>
<a xlink:href="HostArmQemu_8cpp.htm" target="_top" xlink:title="HostArmQemu.cpp">
<polygon fill="white" stroke="black" points="850,-0.5 850,-21.5 954,-21.5 954,-0.5 850,-0.5"/>
<text text-anchor="middle" x="902" y="-8.5" font-family="Helvetica,sans-Serif" font-size="10.00">HostArmQemu.cpp</text>
</a>
</g>
<!-- Node1&#45;&gt;Node9 -->
<g id="edge16" class="edge"><title>Node1&#45;&gt;Node9</title>
<path fill="none" stroke="midnightblue" d="M813.634,-54.0693C834.474,-43.9121 861.549,-30.7157 880.208,-21.6212"/>
<polygon fill="midnightblue" stroke="midnightblue" points="812.006,-50.9691 804.55,-58.4966 815.073,-57.2615 812.006,-50.9691"/>
</g>
<!-- Node10 -->
<g id="node19" class="node"><title>Node10</title>
<a xlink:href="HostArmTopaz_8cpp.htm" target="_top" xlink:title="HostArmTopaz.cpp">
<polygon fill="white" stroke="black" points="971.5,-0.5 971.5,-21.5 1078.5,-21.5 1078.5,-0.5 971.5,-0.5"/>
<text text-anchor="middle" x="1025" y="-8.5" font-family="Helvetica,sans-Serif" font-size="10.00">HostArmTopaz.cpp</text>
</a>
</g>
<!-- Node1&#45;&gt;Node10 -->
<g id="edge18" class="edge"><title>Node1&#45;&gt;Node10</title>
<path fill="none" stroke="midnightblue" d="M825.379,-58.8431C869.037,-48.3796 936.778,-32.1442 981.016,-21.5417"/>
<polygon fill="midnightblue" stroke="midnightblue" points="824.546,-55.4435 815.637,-61.1779 826.178,-62.2507 824.546,-55.4435"/>
</g>
<!-- Node11 -->
<g id="node21" class="node"><title>Node11</title>
<a xlink:href="HostArmUnknown_8cpp.htm" target="_top" xlink:title="HostArmUnknown.cpp">
<polygon fill="white" stroke="black" points="1095.5,-0.5 1095.5,-21.5 1216.5,-21.5 1216.5,-0.5 1095.5,-0.5"/>
<text text-anchor="middle" x="1156" y="-8.5" font-family="Helvetica,sans-Serif" font-size="10.00">HostArmUnknown.cpp</text>
</a>
</g>
<!-- Node1&#45;&gt;Node11 -->
<g id="edge20" class="edge"><title>Node1&#45;&gt;Node11</title>
<path fill="none" stroke="midnightblue" d="M825.895,-62.4332C884.773,-53.4046 993.93,-36.6131 1087,-22 1089.76,-21.5672 1092.57,-21.1234 1095.42,-20.6741"/>
<polygon fill="midnightblue" stroke="midnightblue" points="825.202,-58.9985 815.847,-63.9734 826.262,-65.9177 825.202,-58.9985"/>
</g>
<!-- Node12 -->
<g id="node23" class="node"><title>Node12</title>
<a xlink:href="HostArmWindsor_8cpp.htm" target="_top" xlink:title="HostArmWindsor.cpp">
<polygon fill="white" stroke="black" points="1234,-0.5 1234,-21.5 1350,-21.5 1350,-0.5 1234,-0.5"/>
<text text-anchor="middle" x="1292" y="-8.5" font-family="Helvetica,sans-Serif" font-size="10.00">HostArmWindsor.cpp</text>
</a>
</g>
<!-- Node1&#45;&gt;Node12 -->
<g id="edge22" class="edge"><title>Node1&#45;&gt;Node12</title>
<path fill="none" stroke="midnightblue" d="M825.558,-65.285C904.48,-58.2158 1078.81,-41.7573 1225,-22 1227.92,-21.6053 1230.91,-21.1828 1233.93,-20.7417"/>
<polygon fill="midnightblue" stroke="midnightblue" points="825.166,-61.806 815.516,-66.1798 825.787,-68.7784 825.166,-61.806"/>
</g>
<!-- Node13 -->
<g id="node25" class="node"><title>Node13</title>
<a xlink:href="HostArmWindsorNot_8cpp.htm" target="_top" xlink:title="HostArmWindsorNot.cpp">
<polygon fill="white" stroke="black" points="1368,-0.5 1368,-21.5 1500,-21.5 1500,-0.5 1368,-0.5"/>
<text text-anchor="middle" x="1434" y="-8.5" font-family="Helvetica,sans-Serif" font-size="10.00">HostArmWindsorNot.cpp</text>
</a>
</g>
<!-- Node1&#45;&gt;Node13 -->
<g id="edge24" class="edge"><title>Node1&#45;&gt;Node13</title>
<path fill="none" stroke="midnightblue" d="M825.695,-66.4576C921.36,-60.5551 1160.1,-44.6766 1359,-22 1361.88,-21.672 1364.81,-21.3192 1367.78,-20.9482"/>
<polygon fill="midnightblue" stroke="midnightblue" points="825.317,-62.9742 815.549,-67.0792 825.745,-69.9611 825.317,-62.9742"/>
</g>
<!-- Node14 -->
<g id="node27" class="node"><title>Node14</title>
<a xlink:href="HostArmZepfloyd_8cpp.htm" target="_top" xlink:title="HostArmZepfloyd.cpp">
<polygon fill="white" stroke="black" points="1518,-0.5 1518,-21.5 1636,-21.5 1636,-0.5 1518,-0.5"/>
<text text-anchor="middle" x="1577" y="-8.5" font-family="Helvetica,sans-Serif" font-size="10.00">HostArmZepfloyd.cpp</text>
</a>
</g>
<!-- Node1&#45;&gt;Node14 -->
<g id="edge26" class="edge"><title>Node1&#45;&gt;Node14</title>
<path fill="none" stroke="midnightblue" d="M825.908,-67.6569C938.332,-63.8275 1250.63,-51.1927 1509,-22 1511.85,-21.6778 1514.77,-21.3192 1517.71,-20.9341"/>
<polygon fill="midnightblue" stroke="midnightblue" points="825.538,-64.1673 815.661,-68.0003 825.772,-71.1633 825.538,-64.1673"/>
</g>
</g>
</svg>
