<?xml version="1.0" encoding="UTF-8" standalone="no"?>
<!DOCTYPE svg PUBLIC "-//W3C//DTD SVG 1.1//EN"
 "http://www.w3.org/Graphics/SVG/1.1/DTD/svg11.dtd">
<!-- Generated by graphviz version 2.26.3 (20100126.1600)
 -->
<!-- Title: G Pages: 1 -->
<svg width="871pt" height="146pt"
 viewBox="0.00 0.00 871.00 146.29" xmlns="http://www.w3.org/2000/svg" xmlns:xlink="http://www.w3.org/1999/xlink">
<g id="graph1" class="graph" transform="scale(1 1) rotate(0) translate(4 142.292)">
<title>G</title>
<polygon fill="white" stroke="white" points="-4,5 -4,-142.292 868,-142.292 868,5 -4,5"/>
<!-- Node1 -->
<g id="node1" class="node"><title>Node1</title>
<polygon fill="#bfbfbf" stroke="black" points="493,-116.5 493,-137.5 577,-137.5 577,-116.5 493,-116.5"/>
<text text-anchor="middle" x="535" y="-124.5" font-family="Helvetica,sans-Serif" font-size="10.00">HostWindow.h</text>
</g>
<!-- Node1&#45;&gt;Node1 -->
<g id="edge18" class="edge"><title>Node1&#45;&gt;Node1</title>
<path fill="none" stroke="midnightblue" d="M565.563,-137.524C581.083,-139.061 595,-135.553 595,-127 595,-120.385 586.675,-116.788 575.722,-116.208"/>
<polygon fill="midnightblue" stroke="midnightblue" points="575.467,-112.714 565.563,-116.476 575.652,-119.711 575.467,-112.714"/>
</g>
<!-- Node2 -->
<g id="node3" class="node"><title>Node2</title>
<a xlink:href="Common_8h.htm" target="_top" xlink:title="Common.h">
<polygon fill="white" stroke="black" points="479.5,-0.5 479.5,-21.5 546.5,-21.5 546.5,-0.5 479.5,-0.5"/>
<text text-anchor="middle" x="513" y="-8.5" font-family="Helvetica,sans-Serif" font-size="10.00">Common.h</text>
</a>
</g>
<!-- Node1&#45;&gt;Node2 -->
<g id="edge2" class="edge"><title>Node1&#45;&gt;Node2</title>
<path fill="none" stroke="midnightblue" d="M528.667,-116.232C523.604,-106.977 516.891,-93.0904 514,-80 510.529,-64.28 510.426,-46.0519 511.112,-32.2799"/>
<polygon fill="midnightblue" stroke="midnightblue" points="514.63,-32.1269 511.817,-21.9124 507.646,-31.6518 514.63,-32.1269"/>
</g>
<!-- Node3 -->
<g id="node5" class="node"><title>Node3</title>
<a xlink:href="Window_8h.htm" target="_top" xlink:title="Window.h">
<polygon fill="white" stroke="black" points="230,-58.5 230,-79.5 292,-79.5 292,-58.5 230,-58.5"/>
<text text-anchor="middle" x="261" y="-66.5" font-family="Helvetica,sans-Serif" font-size="10.00">Window.h</text>
</a>
</g>
<!-- Node1&#45;&gt;Node3 -->
<g id="edge4" class="edge"><title>Node1&#45;&gt;Node3</title>
<path fill="none" stroke="midnightblue" d="M492.788,-118.065C440.966,-107.095 353.651,-88.6124 302.266,-77.7351"/>
<polygon fill="midnightblue" stroke="midnightblue" points="302.688,-74.247 292.18,-75.6002 301.239,-81.0953 302.688,-74.247"/>
</g>
<!-- Node9 -->
<g id="node19" class="node"><title>Node9</title>
<a xlink:href="HostWindowData_8h.htm" target="_top" xlink:title="HostWindowData.h">
<polygon fill="white" stroke="black" points="522.5,-58.5 522.5,-79.5 629.5,-79.5 629.5,-58.5 522.5,-58.5"/>
<text text-anchor="middle" x="576" y="-66.5" font-family="Helvetica,sans-Serif" font-size="10.00">HostWindowData.h</text>
</a>
</g>
<!-- Node1&#45;&gt;Node9 -->
<g id="edge20" class="edge"><title>Node1&#45;&gt;Node9</title>
<path fill="none" stroke="midnightblue" d="M542.52,-116.362C548.126,-108.431 555.932,-97.3885 562.597,-87.9606"/>
<polygon fill="midnightblue" stroke="midnightblue" points="565.613,-89.7568 568.528,-79.5707 559.897,-85.7161 565.613,-89.7568"/>
</g>
<!-- Node12 -->
<g id="node26" class="node"><title>Node12</title>
<a xlink:href="InputClient_8h.htm" target="_top" xlink:title="InputClient.h">
<polygon fill="white" stroke="black" points="375.5,-58.5 375.5,-79.5 450.5,-79.5 450.5,-58.5 375.5,-58.5"/>
<text text-anchor="middle" x="413" y="-66.5" font-family="Helvetica,sans-Serif" font-size="10.00">InputClient.h</text>
</a>
</g>
<!-- Node1&#45;&gt;Node12 -->
<g id="edge28" class="edge"><title>Node1&#45;&gt;Node12</title>
<path fill="none" stroke="midnightblue" d="M512.907,-116.497C493.766,-107.397 465.854,-94.1273 444.395,-83.9253"/>
<polygon fill="midnightblue" stroke="midnightblue" points="445.875,-80.7539 435.341,-79.6212 442.87,-87.0758 445.875,-80.7539"/>
</g>
<!-- Node14 -->
<g id="node31" class="node"><title>Node14</title>
<polygon fill="white" stroke="#bfbfbf" points="647,-58.5 647,-79.5 721,-79.5 721,-58.5 647,-58.5"/>
<text text-anchor="middle" x="684" y="-66.5" font-family="Helvetica,sans-Serif" font-size="10.00">PIpcBuffer.h</text>
</g>
<!-- Node1&#45;&gt;Node14 -->
<g id="edge34" class="edge"><title>Node1&#45;&gt;Node14</title>
<path fill="none" stroke="midnightblue" d="M561.983,-116.497C585.853,-107.205 620.894,-93.5649 647.307,-83.2832"/>
<polygon fill="midnightblue" stroke="midnightblue" points="648.917,-86.4122 656.967,-79.5231 646.378,-79.889 648.917,-86.4122"/>
</g>
<!-- Node15 -->
<g id="node33" class="node"><title>Node15</title>
<polygon fill="white" stroke="#bfbfbf" points="739,-58.5 739,-79.5 863,-79.5 863,-58.5 739,-58.5"/>
<text text-anchor="middle" x="801" y="-66.5" font-family="Helvetica,sans-Serif" font-size="10.00">PIpcChannelListener.h</text>
</g>
<!-- Node1&#45;&gt;Node15 -->
<g id="edge36" class="edge"><title>Node1&#45;&gt;Node15</title>
<path fill="none" stroke="midnightblue" d="M577.148,-117.81C621.827,-108.068 692.708,-92.6126 742.721,-81.7075"/>
<polygon fill="midnightblue" stroke="midnightblue" points="743.72,-85.0719 752.745,-79.5217 742.229,-78.2326 743.72,-85.0719"/>
</g>
<!-- Node3&#45;&gt;Node2 -->
<g id="edge6" class="edge"><title>Node3&#45;&gt;Node2</title>
<path fill="none" stroke="midnightblue" d="M292.037,-62.4189C331.164,-54.0428 400.73,-38.8876 469.036,-22.4276"/>
<polygon fill="midnightblue" stroke="midnightblue" points="470.205,-25.7456 479.1,-19.9902 468.558,-18.9422 470.205,-25.7456"/>
</g>
<!-- Node4 -->
<g id="node8" class="node"><title>Node4</title>
<polygon fill="white" stroke="#bfbfbf" points="236,-0.5 236,-21.5 286,-21.5 286,-0.5 236,-0.5"/>
<text text-anchor="middle" x="261" y="-8.5" font-family="Helvetica,sans-Serif" font-size="10.00">stdint.h</text>
</g>
<!-- Node3&#45;&gt;Node4 -->
<g id="edge8" class="edge"><title>Node3&#45;&gt;Node4</title>
<path fill="none" stroke="midnightblue" d="M261,-58.3619C261,-50.9219 261,-40.7427 261,-31.7276"/>
<polygon fill="midnightblue" stroke="midnightblue" points="264.5,-31.5706 261,-21.5707 257.5,-31.5707 264.5,-31.5706"/>
</g>
<!-- Node5 -->
<g id="node10" class="node"><title>Node5</title>
<polygon fill="white" stroke="#bfbfbf" points="303.5,-0.5 303.5,-21.5 346.5,-21.5 346.5,-0.5 303.5,-0.5"/>
<text text-anchor="middle" x="325" y="-8.5" font-family="Helvetica,sans-Serif" font-size="10.00">string</text>
</g>
<!-- Node3&#45;&gt;Node5 -->
<g id="edge10" class="edge"><title>Node3&#45;&gt;Node5</title>
<path fill="none" stroke="midnightblue" d="M272.739,-58.3619C281.941,-50.0226 294.94,-38.2418 305.672,-28.5162"/>
<polygon fill="midnightblue" stroke="midnightblue" points="308.276,-30.8793 313.336,-21.5707 303.576,-25.6924 308.276,-30.8793"/>
</g>
<!-- Node6 -->
<g id="node12" class="node"><title>Node6</title>
<polygon fill="white" stroke="#bfbfbf" points="-0.5,-0.5 -0.5,-21.5 40.5,-21.5 40.5,-0.5 -0.5,-0.5"/>
<text text-anchor="middle" x="20" y="-8.5" font-family="Helvetica,sans-Serif" font-size="10.00">glib.h</text>
</g>
<!-- Node3&#45;&gt;Node6 -->
<g id="edge12" class="edge"><title>Node3&#45;&gt;Node6</title>
<path fill="none" stroke="midnightblue" d="M229.744,-63.5344C189.941,-56.2578 118.958,-42.2231 50.4347,-22.1657"/>
<polygon fill="midnightblue" stroke="midnightblue" points="51.3684,-18.792 40.7856,-19.2957 49.3727,-25.5015 51.3684,-18.792"/>
</g>
<!-- Node7 -->
<g id="node14" class="node"><title>Node7</title>
<polygon fill="white" stroke="#bfbfbf" points="58,-0.5 58,-21.5 156,-21.5 156,-0.5 58,-0.5"/>
<text text-anchor="middle" x="107" y="-8.5" font-family="Helvetica,sans-Serif" font-size="10.00">QGraphicsObject</text>
</g>
<!-- Node3&#45;&gt;Node7 -->
<g id="edge14" class="edge"><title>Node3&#45;&gt;Node7</title>
<path fill="none" stroke="midnightblue" d="M233.112,-58.4966C208.332,-49.1639 171.905,-35.4447 144.564,-25.1475"/>
<polygon fill="midnightblue" stroke="midnightblue" points="145.532,-21.7723 134.941,-21.5231 143.065,-28.3231 145.532,-21.7723"/>
</g>
<!-- Node8 -->
<g id="node16" class="node"><title>Node8</title>
<polygon fill="white" stroke="#bfbfbf" points="173.5,-0.5 173.5,-21.5 218.5,-21.5 218.5,-0.5 173.5,-0.5"/>
<text text-anchor="middle" x="196" y="-8.5" font-family="Helvetica,sans-Serif" font-size="10.00">QSize</text>
</g>
<!-- Node3&#45;&gt;Node8 -->
<g id="edge16" class="edge"><title>Node3&#45;&gt;Node8</title>
<path fill="none" stroke="midnightblue" d="M249.078,-58.3619C239.641,-49.9408 226.27,-38.0105 215.31,-28.2308"/>
<polygon fill="midnightblue" stroke="midnightblue" points="217.638,-25.6171 207.846,-21.5707 212.978,-30.8401 217.638,-25.6171"/>
</g>
<!-- Node9&#45;&gt;Node2 -->
<g id="edge22" class="edge"><title>Node9&#45;&gt;Node2</title>
<path fill="none" stroke="midnightblue" d="M564.445,-58.3619C555.387,-50.0226 542.59,-38.2418 532.026,-28.5162"/>
<polygon fill="midnightblue" stroke="midnightblue" points="534.21,-25.7688 524.482,-21.5707 529.468,-30.9187 534.21,-25.7688"/>
</g>
<!-- Node10 -->
<g id="node22" class="node"><title>Node10</title>
<polygon fill="white" stroke="#bfbfbf" points="563.5,-0.5 563.5,-21.5 622.5,-21.5 622.5,-0.5 563.5,-0.5"/>
<text text-anchor="middle" x="593" y="-8.5" font-family="Helvetica,sans-Serif" font-size="10.00">QPixmap</text>
</g>
<!-- Node9&#45;&gt;Node10 -->
<g id="edge24" class="edge"><title>Node9&#45;&gt;Node10</title>
<path fill="none" stroke="midnightblue" d="M579.118,-58.3619C581.323,-50.8401 584.348,-40.5187 587.012,-31.4308"/>
<polygon fill="midnightblue" stroke="midnightblue" points="590.448,-32.1514 589.902,-21.5707 583.73,-30.1825 590.448,-32.1514"/>
</g>
<!-- Node11 -->
<g id="node24" class="node"><title>Node11</title>
<polygon fill="white" stroke="#bfbfbf" points="640,-0.5 640,-21.5 726,-21.5 726,-0.5 640,-0.5"/>
<text text-anchor="middle" x="683" y="-8.5" font-family="Helvetica,sans-Serif" font-size="10.00">PIpcChannel.h</text>
</g>
<!-- Node9&#45;&gt;Node11 -->
<g id="edge26" class="edge"><title>Node9&#45;&gt;Node11</title>
<path fill="none" stroke="midnightblue" d="M595.625,-58.3619C612.141,-49.4094 635.974,-36.4908 654.578,-26.4064"/>
<polygon fill="midnightblue" stroke="midnightblue" points="656.375,-29.4132 663.499,-21.5707 653.04,-23.2592 656.375,-29.4132"/>
</g>
<!-- Node12&#45;&gt;Node5 -->
<g id="edge32" class="edge"><title>Node12&#45;&gt;Node5</title>
<path fill="none" stroke="midnightblue" d="M396.859,-58.3619C383.586,-49.6138 364.568,-37.0786 349.43,-27.1015"/>
<polygon fill="midnightblue" stroke="midnightblue" points="351.314,-24.1515 341.038,-21.5707 347.462,-29.9962 351.314,-24.1515"/>
</g>
<!-- Node13 -->
<g id="node28" class="node"><title>Node13</title>
<polygon fill="white" stroke="#bfbfbf" points="364,-0.5 364,-21.5 462,-21.5 462,-0.5 364,-0.5"/>
<text text-anchor="middle" x="413" y="-8.5" font-family="Helvetica,sans-Serif" font-size="10.00">palmimedefines.h</text>
</g>
<!-- Node12&#45;&gt;Node13 -->
<g id="edge30" class="edge"><title>Node12&#45;&gt;Node13</title>
<path fill="none" stroke="midnightblue" d="M413,-58.3619C413,-50.9219 413,-40.7427 413,-31.7276"/>
<polygon fill="midnightblue" stroke="midnightblue" points="416.5,-31.5706 413,-21.5707 409.5,-31.5707 416.5,-31.5706"/>
</g>
</g>
</svg>
