<?xml version="1.0" encoding="UTF-8" standalone="no"?>
<!DOCTYPE svg PUBLIC "-//W3C//DTD SVG 1.1//EN"
 "http://www.w3.org/Graphics/SVG/1.1/DTD/svg11.dtd">
<!-- Generated by graphviz version 2.26.3 (20100126.1600)
 -->
<!-- Title: G Pages: 1 -->
<svg width="597pt" height="204pt"
 viewBox="0.00 0.00 596.64 204.00" xmlns="http://www.w3.org/2000/svg" xmlns:xlink="http://www.w3.org/1999/xlink">
<g id="graph1" class="graph" transform="scale(1 1) rotate(0) translate(4 200)">
<title>G</title>
<polygon fill="white" stroke="white" points="-4,5 -4,-200 593.641,-200 593.641,5 -4,5"/>
<!-- Node1 -->
<g id="node1" class="node"><title>Node1</title>
<polygon fill="#bfbfbf" stroke="black" points="365.641,-174.5 365.641,-195.5 485.641,-195.5 485.641,-174.5 365.641,-174.5"/>
<text text-anchor="middle" x="425.641" y="-182.5" font-family="Helvetica,sans-Serif" font-size="10.00">iconlayoutsettings.cpp</text>
</g>
<!-- Node2 -->
<g id="node3" class="node"><title>Node2</title>
<a xlink:href="Common_8h.htm" target="_top" xlink:title="Common.h">
<polygon fill="white" stroke="black" points="324.141,-0.5 324.141,-21.5 391.141,-21.5 391.141,-0.5 324.141,-0.5"/>
<text text-anchor="middle" x="357.641" y="-8.5" font-family="Helvetica,sans-Serif" font-size="10.00">Common.h</text>
</a>
</g>
<!-- Node1&#45;&gt;Node2 -->
<g id="edge2" class="edge"><title>Node1&#45;&gt;Node2</title>
<path fill="none" stroke="midnightblue" d="M409.72,-174.185C398.566,-165.702 384.331,-152.867 376.641,-138 358.975,-103.847 356.489,-58.0661 356.747,-31.8286"/>
<polygon fill="midnightblue" stroke="midnightblue" points="360.253,-31.6492 357.002,-21.5654 353.255,-31.4755 360.253,-31.6492"/>
</g>
<!-- Node3 -->
<g id="node5" class="node"><title>Node3</title>
<a xlink:href="iconlayoutsettings_8h.htm" target="_top" xlink:title="iconlayoutsettings.h">
<polygon fill="white" stroke="black" points="119.141,-116.5 119.141,-137.5 228.141,-137.5 228.141,-116.5 119.141,-116.5"/>
<text text-anchor="middle" x="173.641" y="-124.5" font-family="Helvetica,sans-Serif" font-size="10.00">iconlayoutsettings.h</text>
</a>
</g>
<!-- Node1&#45;&gt;Node3 -->
<g id="edge4" class="edge"><title>Node1&#45;&gt;Node3</title>
<path fill="none" stroke="midnightblue" d="M380.006,-174.497C337.678,-164.755 274.583,-150.233 229.311,-139.813"/>
<polygon fill="midnightblue" stroke="midnightblue" points="229.892,-136.355 219.362,-137.523 228.322,-143.177 229.892,-136.355"/>
</g>
<!-- Node9 -->
<g id="node18" class="node"><title>Node9</title>
<a xlink:href="Localization_8h.htm" target="_top" xlink:title="Localization.h">
<polygon fill="white" stroke="black" points="385.141,-116.5 385.141,-137.5 466.141,-137.5 466.141,-116.5 385.141,-116.5"/>
<text text-anchor="middle" x="425.641" y="-124.5" font-family="Helvetica,sans-Serif" font-size="10.00">Localization.h</text>
</a>
</g>
<!-- Node1&#45;&gt;Node9 -->
<g id="edge18" class="edge"><title>Node1&#45;&gt;Node9</title>
<path fill="none" stroke="midnightblue" d="M425.641,-174.362C425.641,-166.922 425.641,-156.743 425.641,-147.728"/>
<polygon fill="midnightblue" stroke="midnightblue" points="429.141,-147.571 425.641,-137.571 422.141,-147.571 429.141,-147.571"/>
</g>
<!-- Node10 -->
<g id="node21" class="node"><title>Node10</title>
<a xlink:href="QtUtils_8h.htm" target="_top" xlink:title="QtUtils.h">
<polygon fill="white" stroke="black" points="463.641,-58.5 463.641,-79.5 519.641,-79.5 519.641,-58.5 463.641,-58.5"/>
<text text-anchor="middle" x="491.641" y="-66.5" font-family="Helvetica,sans-Serif" font-size="10.00">QtUtils.h</text>
</a>
</g>
<!-- Node1&#45;&gt;Node10 -->
<g id="edge34" class="edge"><title>Node1&#45;&gt;Node10</title>
<path fill="none" stroke="midnightblue" d="M440.695,-174.323C451.707,-165.731 466.149,-152.698 474.641,-138 483.115,-123.333 487.389,-104.552 489.531,-90.2876"/>
<polygon fill="midnightblue" stroke="midnightblue" points="493.052,-90.3411 490.831,-79.9816 486.107,-89.4649 493.052,-90.3411"/>
</g>
<!-- Node14 -->
<g id="node32" class="node"><title>Node14</title>
<polygon fill="white" stroke="#bfbfbf" points="521.141,-116.5 521.141,-137.5 580.141,-137.5 580.141,-116.5 521.141,-116.5"/>
<text text-anchor="middle" x="550.641" y="-124.5" font-family="Helvetica,sans-Serif" font-size="10.00">qglobal.h</text>
</g>
<!-- Node1&#45;&gt;Node14 -->
<g id="edge36" class="edge"><title>Node1&#45;&gt;Node14</title>
<path fill="none" stroke="midnightblue" d="M448.278,-174.497C467.889,-165.397 496.487,-152.127 518.474,-141.925"/>
<polygon fill="midnightblue" stroke="midnightblue" points="520.152,-145.005 527.75,-137.621 517.206,-138.655 520.152,-145.005"/>
</g>
<!-- Node3&#45;&gt;Node2 -->
<g id="edge6" class="edge"><title>Node3&#45;&gt;Node2</title>
<path fill="none" stroke="midnightblue" d="M119.059,-122.388C58.5547,-115.228 -26.2056,-97.8539 8.64095,-58 28.4797,-35.3105 224.83,-19.6889 313.993,-13.7091"/>
<polygon fill="midnightblue" stroke="midnightblue" points="314.314,-17.1956 324.062,-13.0443 313.853,-10.2108 314.314,-17.1956"/>
</g>
<!-- Node4 -->
<g id="node8" class="node"><title>Node4</title>
<polygon fill="white" stroke="#bfbfbf" points="17.141,-58.5 17.141,-79.5 58.141,-79.5 58.141,-58.5 17.141,-58.5"/>
<text text-anchor="middle" x="37.641" y="-66.5" font-family="Helvetica,sans-Serif" font-size="10.00">glib.h</text>
</g>
<!-- Node3&#45;&gt;Node4 -->
<g id="edge8" class="edge"><title>Node3&#45;&gt;Node4</title>
<path fill="none" stroke="midnightblue" d="M149.012,-116.497C126.273,-106.799 92.4278,-92.365 68.0197,-81.9556"/>
<polygon fill="midnightblue" stroke="midnightblue" points="69.0936,-78.6087 58.5221,-77.9052 66.3475,-85.0476 69.0936,-78.6087"/>
</g>
<!-- Node5 -->
<g id="node10" class="node"><title>Node5</title>
<polygon fill="white" stroke="#bfbfbf" points="75.641,-58.5 75.641,-79.5 133.641,-79.5 133.641,-58.5 75.641,-58.5"/>
<text text-anchor="middle" x="104.641" y="-66.5" font-family="Helvetica,sans-Serif" font-size="10.00">QtGlobal</text>
</g>
<!-- Node3&#45;&gt;Node5 -->
<g id="edge10" class="edge"><title>Node3&#45;&gt;Node5</title>
<path fill="none" stroke="midnightblue" d="M160.985,-116.362C150.967,-107.941 136.774,-96.0105 125.14,-86.2308"/>
<polygon fill="midnightblue" stroke="midnightblue" points="127.123,-83.326 117.216,-79.5707 122.619,-88.6844 127.123,-83.326"/>
</g>
<!-- Node6 -->
<g id="node12" class="node"><title>Node6</title>
<polygon fill="white" stroke="#bfbfbf" points="151.141,-58.5 151.141,-79.5 196.141,-79.5 196.141,-58.5 151.141,-58.5"/>
<text text-anchor="middle" x="173.641" y="-66.5" font-family="Helvetica,sans-Serif" font-size="10.00">QSize</text>
</g>
<!-- Node3&#45;&gt;Node6 -->
<g id="edge12" class="edge"><title>Node3&#45;&gt;Node6</title>
<path fill="none" stroke="midnightblue" d="M173.641,-116.362C173.641,-108.922 173.641,-98.7427 173.641,-89.7276"/>
<polygon fill="midnightblue" stroke="midnightblue" points="177.141,-89.5706 173.641,-79.5707 170.141,-89.5707 177.141,-89.5706"/>
</g>
<!-- Node7 -->
<g id="node14" class="node"><title>Node7</title>
<polygon fill="white" stroke="#bfbfbf" points="213.641,-58.5 213.641,-79.5 263.641,-79.5 263.641,-58.5 213.641,-58.5"/>
<text text-anchor="middle" x="238.641" y="-66.5" font-family="Helvetica,sans-Serif" font-size="10.00">QColor</text>
</g>
<!-- Node3&#45;&gt;Node7 -->
<g id="edge14" class="edge"><title>Node3&#45;&gt;Node7</title>
<path fill="none" stroke="midnightblue" d="M185.563,-116.362C195,-107.941 208.371,-96.0105 219.331,-86.2308"/>
<polygon fill="midnightblue" stroke="midnightblue" points="221.663,-88.8401 226.795,-79.5707 217.003,-83.6171 221.663,-88.8401"/>
</g>
<!-- Node8 -->
<g id="node16" class="node"><title>Node8</title>
<polygon fill="white" stroke="#bfbfbf" points="281.141,-58.5 281.141,-79.5 330.141,-79.5 330.141,-58.5 281.141,-58.5"/>
<text text-anchor="middle" x="305.641" y="-66.5" font-family="Helvetica,sans-Serif" font-size="10.00">QPoint</text>
</g>
<!-- Node3&#45;&gt;Node8 -->
<g id="edge16" class="edge"><title>Node3&#45;&gt;Node8</title>
<path fill="none" stroke="midnightblue" d="M197.545,-116.497C218.44,-107.315 248.997,-93.8889 272.296,-83.6516"/>
<polygon fill="midnightblue" stroke="midnightblue" points="273.721,-86.8483 281.469,-79.6212 270.905,-80.4397 273.721,-86.8483"/>
</g>
<!-- Node9&#45;&gt;Node2 -->
<g id="edge20" class="edge"><title>Node9&#45;&gt;Node2</title>
<path fill="none" stroke="midnightblue" d="M419.366,-116.295C407.929,-96.7861 383.544,-55.1884 369.082,-30.5177"/>
<polygon fill="midnightblue" stroke="midnightblue" points="371.978,-28.5362 363.901,-21.6792 365.939,-32.0762 371.978,-28.5362"/>
</g>
<!-- Node9&#45;&gt;Node10 -->
<g id="edge22" class="edge"><title>Node9&#45;&gt;Node10</title>
<path fill="none" stroke="midnightblue" d="M437.746,-116.362C447.329,-107.941 460.905,-96.0105 472.034,-86.2308"/>
<polygon fill="midnightblue" stroke="midnightblue" points="474.411,-88.8009 479.612,-79.5707 469.79,-83.5427 474.411,-88.8009"/>
</g>
<!-- Node13 -->
<g id="node28" class="node"><title>Node13</title>
<polygon fill="white" stroke="#bfbfbf" points="408.641,-0.5 408.641,-21.5 458.641,-21.5 458.641,-0.5 408.641,-0.5"/>
<text text-anchor="middle" x="433.641" y="-8.5" font-family="Helvetica,sans-Serif" font-size="10.00">QHash</text>
</g>
<!-- Node9&#45;&gt;Node13 -->
<g id="edge32" class="edge"><title>Node9&#45;&gt;Node13</title>
<path fill="none" stroke="midnightblue" d="M426.379,-116.295C427.701,-97.1314 430.492,-56.654 432.203,-31.8434"/>
<polygon fill="midnightblue" stroke="midnightblue" points="435.708,-31.8963 432.904,-21.6792 428.725,-31.4147 435.708,-31.8963"/>
</g>
<!-- Node10&#45;&gt;Node2 -->
<g id="edge24" class="edge"><title>Node10&#45;&gt;Node2</title>
<path fill="none" stroke="midnightblue" d="M467.375,-58.4966C446.163,-49.3154 415.143,-35.8889 391.491,-25.6516"/>
<polygon fill="midnightblue" stroke="midnightblue" points="392.747,-22.3815 382.18,-21.6212 389.967,-28.8055 392.747,-22.3815"/>
</g>
<!-- Node11 -->
<g id="node24" class="node"><title>Node11</title>
<polygon fill="white" stroke="#bfbfbf" points="476.141,-0.5 476.141,-21.5 519.141,-21.5 519.141,-0.5 476.141,-0.5"/>
<text text-anchor="middle" x="497.641" y="-8.5" font-family="Helvetica,sans-Serif" font-size="10.00">string</text>
</g>
<!-- Node10&#45;&gt;Node11 -->
<g id="edge26" class="edge"><title>Node10&#45;&gt;Node11</title>
<path fill="none" stroke="midnightblue" d="M492.741,-58.3619C493.511,-50.9219 494.564,-40.7427 495.497,-31.7276"/>
<polygon fill="midnightblue" stroke="midnightblue" points="499,-31.8777 496.547,-21.5707 492.037,-31.1574 499,-31.8777"/>
</g>
<!-- Node12 -->
<g id="node26" class="node"><title>Node12</title>
<polygon fill="white" stroke="#bfbfbf" points="536.141,-0.5 536.141,-21.5 589.141,-21.5 589.141,-0.5 536.141,-0.5"/>
<text text-anchor="middle" x="562.641" y="-8.5" font-family="Helvetica,sans-Serif" font-size="10.00">QString</text>
</g>
<!-- Node10&#45;&gt;Node12 -->
<g id="edge28" class="edge"><title>Node10&#45;&gt;Node12</title>
<path fill="none" stroke="midnightblue" d="M504.663,-58.3619C515.072,-49.859 529.86,-37.7785 541.896,-27.9466"/>
<polygon fill="midnightblue" stroke="midnightblue" points="544.171,-30.6077 549.701,-21.5707 539.742,-25.1866 544.171,-30.6077"/>
</g>
<!-- Node10&#45;&gt;Node13 -->
<g id="edge30" class="edge"><title>Node10&#45;&gt;Node13</title>
<path fill="none" stroke="midnightblue" d="M481.003,-58.3619C472.745,-50.1043 461.113,-38.4725 451.444,-28.8029"/>
<polygon fill="midnightblue" stroke="midnightblue" points="453.758,-26.1669 444.212,-21.5707 448.808,-31.1166 453.758,-26.1669"/>
</g>
</g>
</svg>
