<?xml version="1.0" encoding="UTF-8" standalone="no"?>
<!DOCTYPE svg PUBLIC "-//W3C//DTD SVG 1.1//EN"
 "http://www.w3.org/Graphics/SVG/1.1/DTD/svg11.dtd">
<!-- Generated by graphviz version 2.26.3 (20100126.1600)
 -->
<!-- Title: G Pages: 1 -->
<svg width="1835pt" height="262pt"
 viewBox="0.00 0.00 1834.91 262.00" xmlns="http://www.w3.org/2000/svg" xmlns:xlink="http://www.w3.org/1999/xlink">
<g id="graph1" class="graph" transform="scale(1 1) rotate(0) translate(4 258)">
<title>G</title>
<polygon fill="white" stroke="white" points="-4,5 -4,-258 1831.91,-258 1831.91,5 -4,5"/>
<!-- Node1 -->
<g id="node1" class="node"><title>Node1</title>
<polygon fill="#bfbfbf" stroke="black" points="1069.91,-232.5 1069.91,-253.5 1149.91,-253.5 1149.91,-232.5 1069.91,-232.5"/>
<text text-anchor="middle" x="1109.91" y="-240.5" font-family="Helvetica,sans-Serif" font-size="10.00">iconheap.cpp</text>
</g>
<!-- Node2 -->
<g id="node3" class="node"><title>Node2</title>
<a xlink:href="iconheap_8h.htm" target="_top" xlink:title="iconheap.h">
<polygon fill="white" stroke="black" points="790.906,-58.5 790.906,-79.5 858.906,-79.5 858.906,-58.5 790.906,-58.5"/>
<text text-anchor="middle" x="824.906" y="-66.5" font-family="Helvetica,sans-Serif" font-size="10.00">iconheap.h</text>
</a>
</g>
<!-- Node1&#45;&gt;Node2 -->
<g id="edge2" class="edge"><title>Node1&#45;&gt;Node2</title>
<path fill="none" stroke="midnightblue" d="M1092.51,-232.377C1044.31,-202.952 908.843,-120.246 851.297,-85.1126"/>
<polygon fill="midnightblue" stroke="midnightblue" points="852.798,-81.9283 842.439,-79.7046 849.15,-87.9028 852.798,-81.9283"/>
</g>
<!-- Node10 -->
<g id="node19" class="node"><title>Node10</title>
<a xlink:href="icon_8h.htm" target="_top" xlink:title="icon.h">
<polygon fill="white" stroke="black" points="542.906,-174.5 542.906,-195.5 586.906,-195.5 586.906,-174.5 542.906,-174.5"/>
<text text-anchor="middle" x="564.906" y="-182.5" font-family="Helvetica,sans-Serif" font-size="10.00">icon.h</text>
</a>
</g>
<!-- Node1&#45;&gt;Node10 -->
<g id="edge18" class="edge"><title>Node1&#45;&gt;Node10</title>
<path fill="none" stroke="midnightblue" d="M1069.83,-238.735C966.274,-227.714 691.307,-198.452 597.101,-188.426"/>
<polygon fill="midnightblue" stroke="midnightblue" points="597.349,-184.933 587.035,-187.355 596.609,-191.894 597.349,-184.933"/>
</g>
<!-- Node20 -->
<g id="node48" class="node"><title>Node20</title>
<polygon fill="white" stroke="#bfbfbf" points="65.4058,-0.5 65.4058,-21.5 120.406,-21.5 120.406,-0.5 65.4058,-0.5"/>
<text text-anchor="middle" x="92.9058" y="-8.5" font-family="Helvetica,sans-Serif" font-size="10.00">QDebug</text>
</g>
<!-- Node1&#45;&gt;Node20 -->
<g id="edge150" class="edge"><title>Node1&#45;&gt;Node20</title>
<path fill="none" stroke="midnightblue" d="M1069.86,-242.315C880.601,-238.669 82.0502,-218.57 9.90576,-138 -22.1662,-102.182 33.6934,-52.8764 68.3969,-27.526"/>
<polygon fill="midnightblue" stroke="midnightblue" points="70.5787,-30.2692 76.6976,-21.62 66.5205,-24.5656 70.5787,-30.2692"/>
</g>
<!-- Node28 -->
<g id="node71" class="node"><title>Node28</title>
<a xlink:href="pixmaploader_8h.htm" target="_top" xlink:title="pixmaploader.h">
<polygon fill="white" stroke="black" points="1065.41,-174.5 1065.41,-195.5 1154.41,-195.5 1154.41,-174.5 1065.41,-174.5"/>
<text text-anchor="middle" x="1109.91" y="-182.5" font-family="Helvetica,sans-Serif" font-size="10.00">pixmaploader.h</text>
</a>
</g>
<!-- Node1&#45;&gt;Node28 -->
<g id="edge86" class="edge"><title>Node1&#45;&gt;Node28</title>
<path fill="none" stroke="midnightblue" d="M1109.91,-232.362C1109.91,-224.922 1109.91,-214.743 1109.91,-205.728"/>
<polygon fill="midnightblue" stroke="midnightblue" points="1113.41,-205.571 1109.91,-195.571 1106.41,-205.571 1113.41,-205.571"/>
</g>
<!-- Node31 -->
<g id="node89" class="node"><title>Node31</title>
<a xlink:href="gfxsettings_8h.htm" target="_top" xlink:title="gfxsettings.h">
<polygon fill="white" stroke="black" points="1470.91,-174.5 1470.91,-195.5 1546.91,-195.5 1546.91,-174.5 1470.91,-174.5"/>
<text text-anchor="middle" x="1508.91" y="-182.5" font-family="Helvetica,sans-Serif" font-size="10.00">gfxsettings.h</text>
</a>
</g>
<!-- Node1&#45;&gt;Node31 -->
<g id="edge116" class="edge"><title>Node1&#45;&gt;Node31</title>
<path fill="none" stroke="midnightblue" d="M1149.99,-237.173C1223.84,-226.437 1381.11,-203.577 1460.67,-192.012"/>
<polygon fill="midnightblue" stroke="midnightblue" points="1461.51,-195.427 1470.9,-190.525 1460.5,-188.5 1461.51,-195.427"/>
</g>
<!-- Node37 -->
<g id="node103" class="node"><title>Node37</title>
<a xlink:href="stringtranslator_8h.htm" target="_top" xlink:title="stringtranslator.h">
<polygon fill="white" stroke="black" points="1237.91,-174.5 1237.91,-195.5 1333.91,-195.5 1333.91,-174.5 1237.91,-174.5"/>
<text text-anchor="middle" x="1285.91" y="-182.5" font-family="Helvetica,sans-Serif" font-size="10.00">stringtranslator.h</text>
</a>
</g>
<!-- Node1&#45;&gt;Node37 -->
<g id="edge132" class="edge"><title>Node1&#45;&gt;Node37</title>
<path fill="none" stroke="midnightblue" d="M1141.78,-232.497C1170.47,-223.041 1212.83,-209.083 1244.2,-198.743"/>
<polygon fill="midnightblue" stroke="midnightblue" points="1245.57,-201.977 1253.97,-195.523 1243.38,-195.329 1245.57,-201.977"/>
</g>
<!-- Node38 -->
<g id="node106" class="node"><title>Node38</title>
<a xlink:href="Settings_8h.htm" target="_top" xlink:title="Settings.h">
<polygon fill="white" stroke="black" points="1586.41,-174.5 1586.41,-195.5 1649.41,-195.5 1649.41,-174.5 1586.41,-174.5"/>
<text text-anchor="middle" x="1617.91" y="-182.5" font-family="Helvetica,sans-Serif" font-size="10.00">Settings.h</text>
</a>
</g>
<!-- Node1&#45;&gt;Node38 -->
<g id="edge136" class="edge"><title>Node1&#45;&gt;Node38</title>
<path fill="none" stroke="midnightblue" d="M1150,-239.731C1228.25,-233.139 1406.73,-217.067 1555.91,-196 1562.37,-195.087 1569.19,-194.002 1575.85,-192.874"/>
<polygon fill="midnightblue" stroke="midnightblue" points="1576.86,-196.25 1586.11,-191.085 1575.66,-189.354 1576.86,-196.25"/>
</g>
<!-- Node3 -->
<g id="node5" class="node"><title>Node3</title>
<polygon fill="white" stroke="#bfbfbf" points="882.406,-0.5 882.406,-21.5 937.406,-21.5 937.406,-0.5 882.406,-0.5"/>
<text text-anchor="middle" x="909.906" y="-8.5" font-family="Helvetica,sans-Serif" font-size="10.00">QObject</text>
</g>
<!-- Node2&#45;&gt;Node3 -->
<g id="edge4" class="edge"><title>Node2&#45;&gt;Node3</title>
<path fill="none" stroke="midnightblue" d="M840.496,-58.3619C853.197,-49.6955 871.344,-37.3126 885.898,-27.3819"/>
<polygon fill="midnightblue" stroke="midnightblue" points="888.127,-30.0982 894.414,-21.5707 884.181,-24.316 888.127,-30.0982"/>
</g>
<!-- Node4 -->
<g id="node7" class="node"><title>Node4</title>
<polygon fill="white" stroke="#bfbfbf" points="745.906,-0.5 745.906,-21.5 791.906,-21.5 791.906,-0.5 745.906,-0.5"/>
<text text-anchor="middle" x="768.906" y="-8.5" font-family="Helvetica,sans-Serif" font-size="10.00">QUuid</text>
</g>
<!-- Node2&#45;&gt;Node4 -->
<g id="edge6" class="edge"><title>Node2&#45;&gt;Node4</title>
<path fill="none" stroke="midnightblue" d="M814.634,-58.3619C806.662,-50.1043 795.431,-38.4725 786.095,-28.8029"/>
<polygon fill="midnightblue" stroke="midnightblue" points="788.576,-26.3336 779.112,-21.5707 783.54,-31.1958 788.576,-26.3336"/>
</g>
<!-- Node5 -->
<g id="node9" class="node"><title>Node5</title>
<polygon fill="white" stroke="#bfbfbf" points="954.406,-0.5 954.406,-21.5 1007.41,-21.5 1007.41,-0.5 954.406,-0.5"/>
<text text-anchor="middle" x="980.906" y="-8.5" font-family="Helvetica,sans-Serif" font-size="10.00">QString</text>
</g>
<!-- Node2&#45;&gt;Node5 -->
<g id="edge8" class="edge"><title>Node2&#45;&gt;Node5</title>
<path fill="none" stroke="midnightblue" d="M853.156,-58.4966C878.839,-48.9477 916.874,-34.8069 944.763,-24.4376"/>
<polygon fill="midnightblue" stroke="midnightblue" points="946.015,-27.7065 954.168,-20.9409 943.575,-21.1453 946.015,-27.7065"/>
</g>
<!-- Node6 -->
<g id="node11" class="node"><title>Node6</title>
<polygon fill="white" stroke="#bfbfbf" points="809.906,-0.5 809.906,-21.5 855.906,-21.5 855.906,-0.5 809.906,-0.5"/>
<text text-anchor="middle" x="832.906" y="-8.5" font-family="Helvetica,sans-Serif" font-size="10.00">QMap</text>
</g>
<!-- Node2&#45;&gt;Node6 -->
<g id="edge10" class="edge"><title>Node2&#45;&gt;Node6</title>
<path fill="none" stroke="midnightblue" d="M826.373,-58.3619C827.399,-50.9219 828.803,-40.7427 830.047,-31.7276"/>
<polygon fill="midnightblue" stroke="midnightblue" points="833.548,-31.9551 831.448,-21.5707 826.614,-30.9986 833.548,-31.9551"/>
</g>
<!-- Node7 -->
<g id="node13" class="node"><title>Node7</title>
<polygon fill="white" stroke="#bfbfbf" points="500.406,-0.5 500.406,-21.5 559.406,-21.5 559.406,-0.5 500.406,-0.5"/>
<text text-anchor="middle" x="529.906" y="-8.5" font-family="Helvetica,sans-Serif" font-size="10.00">QPointer</text>
</g>
<!-- Node2&#45;&gt;Node7 -->
<g id="edge12" class="edge"><title>Node2&#45;&gt;Node7</title>
<path fill="none" stroke="midnightblue" d="M790.777,-62.29C735.836,-51.488 628.051,-30.2963 569.7,-18.8241"/>
<polygon fill="midnightblue" stroke="midnightblue" points="570.234,-15.3621 559.747,-16.8671 568.884,-22.2306 570.234,-15.3621"/>
</g>
<!-- Node8 -->
<g id="node15" class="node"><title>Node8</title>
<polygon fill="white" stroke="#bfbfbf" points="687.406,-0.5 687.406,-21.5 728.406,-21.5 728.406,-0.5 687.406,-0.5"/>
<text text-anchor="middle" x="707.906" y="-8.5" font-family="Helvetica,sans-Serif" font-size="10.00">QList</text>
</g>
<!-- Node2&#45;&gt;Node8 -->
<g id="edge14" class="edge"><title>Node2&#45;&gt;Node8</title>
<path fill="none" stroke="midnightblue" d="M803.718,-58.4966C785.216,-49.3245 758.167,-35.9157 737.524,-25.6823"/>
<polygon fill="midnightblue" stroke="midnightblue" points="739.057,-22.5362 728.543,-21.2305 735.948,-28.8079 739.057,-22.5362"/>
</g>
<!-- Node9 -->
<g id="node17" class="node"><title>Node9</title>
<polygon fill="white" stroke="#bfbfbf" points="1026.41,-0.5 1026.41,-21.5 1071.41,-21.5 1071.41,-0.5 1026.41,-0.5"/>
<text text-anchor="middle" x="1048.91" y="-8.5" font-family="Helvetica,sans-Serif" font-size="10.00">QSize</text>
</g>
<!-- Node2&#45;&gt;Node9 -->
<g id="edge16" class="edge"><title>Node2&#45;&gt;Node9</title>
<path fill="none" stroke="midnightblue" d="M858.936,-61.4967C897.307,-52.8352 961.45,-37.7483 1015.91,-22 1016.12,-21.9392 1016.33,-21.8779 1016.54,-21.8161"/>
<polygon fill="midnightblue" stroke="midnightblue" points="1017.74,-25.1096 1026.26,-18.8156 1015.67,-18.421 1017.74,-25.1096"/>
</g>
<!-- Node10&#45;&gt;Node4 -->
<g id="edge20" class="edge"><title>Node10&#45;&gt;Node4</title>
<path fill="none" stroke="midnightblue" d="M565.376,-174.051C566.528,-159.397 570.47,-133.254 583.906,-116 604.55,-89.4898 689.314,-47.617 736.616,-25.6148"/>
<polygon fill="midnightblue" stroke="midnightblue" points="738.214,-28.7319 745.826,-21.3618 735.28,-22.3768 738.214,-28.7319"/>
</g>
<!-- Node10&#45;&gt;Node5 -->
<g id="edge28" class="edge"><title>Node10&#45;&gt;Node5</title>
<path fill="none" stroke="midnightblue" d="M587.132,-183.52C631.336,-179.989 732.837,-168.926 811.906,-138 857.272,-120.256 866.05,-109.379 904.906,-80 925.775,-64.2204 947.704,-43.8464 962.612,-29.3373"/>
<polygon fill="midnightblue" stroke="midnightblue" points="965.45,-31.4557 970.122,-21.9466 960.539,-26.4667 965.45,-31.4557"/>
</g>
<!-- Node10&#45;&gt;Node7 -->
<g id="edge26" class="edge"><title>Node10&#45;&gt;Node7</title>
<path fill="none" stroke="midnightblue" d="M546.81,-174.386C534.724,-166.167 519.82,-153.57 512.906,-138 497.273,-102.799 510.563,-57.1185 520.803,-31.2368"/>
<polygon fill="midnightblue" stroke="midnightblue" points="524.144,-32.3215 524.779,-21.7457 517.687,-29.6171 524.144,-32.3215"/>
</g>
<!-- Node10&#45;&gt;Node8 -->
<g id="edge32" class="edge"><title>Node10&#45;&gt;Node8</title>
<path fill="none" stroke="midnightblue" d="M559.431,-174.096C553.28,-160.369 544.894,-136.146 550.906,-116 559.718,-86.4692 565.01,-77.461 588.906,-58 614.791,-36.9182 651.298,-24.3907 677.033,-17.6394"/>
<polygon fill="midnightblue" stroke="midnightblue" points="678.136,-20.9721 687.001,-15.1706 676.453,-14.1775 678.136,-20.9721"/>
</g>
<!-- Node11 -->
<g id="node22" class="node"><title>Node11</title>
<polygon fill="white" stroke="#bfbfbf" points="246.406,-0.5 246.406,-21.5 299.406,-21.5 299.406,-0.5 246.406,-0.5"/>
<text text-anchor="middle" x="272.906" y="-8.5" font-family="Helvetica,sans-Serif" font-size="10.00">QRectF</text>
</g>
<!-- Node10&#45;&gt;Node11 -->
<g id="edge22" class="edge"><title>Node10&#45;&gt;Node11</title>
<path fill="none" stroke="midnightblue" d="M542.884,-183.998C462.409,-180.128 187.508,-165.014 159.906,-138 134.368,-113.007 131.725,-87.4886 151.906,-58 161.811,-43.5258 204.404,-29.2773 236.273,-20.3311"/>
<polygon fill="midnightblue" stroke="midnightblue" points="237.466,-23.6335 246.188,-17.6192 235.619,-16.8815 237.466,-23.6335"/>
</g>
<!-- Node12 -->
<g id="node24" class="node"><title>Node12</title>
<polygon fill="white" stroke="#bfbfbf" points="1200.41,-58.5 1200.41,-79.5 1247.41,-79.5 1247.41,-58.5 1200.41,-58.5"/>
<text text-anchor="middle" x="1223.91" y="-66.5" font-family="Helvetica,sans-Serif" font-size="10.00">QRect</text>
</g>
<!-- Node10&#45;&gt;Node12 -->
<g id="edge24" class="edge"><title>Node10&#45;&gt;Node12</title>
<path fill="none" stroke="midnightblue" d="M587.155,-184.47C691.349,-181.831 1128.18,-168.987 1179.91,-138 1198.1,-127.1 1210.04,-105.446 1216.83,-89.2882"/>
<polygon fill="midnightblue" stroke="midnightblue" points="1220.22,-90.2217 1220.56,-79.6323 1213.69,-87.6976 1220.22,-90.2217"/>
</g>
<!-- Node13 -->
<g id="node28" class="node"><title>Node13</title>
<polygon fill="white" stroke="#bfbfbf" points="592.906,-116.5 592.906,-137.5 644.906,-137.5 644.906,-116.5 592.906,-116.5"/>
<text text-anchor="middle" x="618.906" y="-124.5" font-family="Helvetica,sans-Serif" font-size="10.00">QTimer</text>
</g>
<!-- Node10&#45;&gt;Node13 -->
<g id="edge30" class="edge"><title>Node10&#45;&gt;Node13</title>
<path fill="none" stroke="midnightblue" d="M574.81,-174.362C582.422,-166.186 593.114,-154.702 602.063,-145.091"/>
<polygon fill="midnightblue" stroke="midnightblue" points="604.812,-147.275 609.064,-137.571 599.688,-142.505 604.812,-147.275"/>
</g>
<!-- Node14 -->
<g id="node31" class="node"><title>Node14</title>
<polygon fill="white" stroke="#bfbfbf" points="662.906,-116.5 662.906,-137.5 708.906,-137.5 708.906,-116.5 662.906,-116.5"/>
<text text-anchor="middle" x="685.906" y="-124.5" font-family="Helvetica,sans-Serif" font-size="10.00">QFont</text>
</g>
<!-- Node10&#45;&gt;Node14 -->
<g id="edge34" class="edge"><title>Node10&#45;&gt;Node14</title>
<path fill="none" stroke="midnightblue" d="M586.818,-174.497C605.717,-165.438 633.237,-152.246 654.482,-142.063"/>
<polygon fill="midnightblue" stroke="midnightblue" points="656.243,-145.1 663.748,-137.621 653.217,-138.788 656.243,-145.1"/>
</g>
<!-- Node15 -->
<g id="node33" class="node"><title>Node15</title>
<polygon fill="white" stroke="#bfbfbf" points="726.406,-116.5 726.406,-137.5 803.406,-137.5 803.406,-116.5 726.406,-116.5"/>
<text text-anchor="middle" x="764.906" y="-124.5" font-family="Helvetica,sans-Serif" font-size="10.00">QTextLayout</text>
</g>
<!-- Node10&#45;&gt;Node15 -->
<g id="edge36" class="edge"><title>Node10&#45;&gt;Node15</title>
<path fill="none" stroke="midnightblue" d="M587.073,-178.571C618.643,-169.416 677.297,-152.407 718.591,-140.431"/>
<polygon fill="midnightblue" stroke="midnightblue" points="719.797,-143.726 728.426,-137.579 717.847,-137.003 719.797,-143.726"/>
</g>
<!-- Node16 -->
<g id="node35" class="node"><title>Node16</title>
<polygon fill="white" stroke="#bfbfbf" points="18.9058,-116.5 18.9058,-137.5 108.906,-137.5 108.906,-116.5 18.9058,-116.5"/>
<text text-anchor="middle" x="63.9058" y="-124.5" font-family="Helvetica,sans-Serif" font-size="10.00">QStateMachine</text>
</g>
<!-- Node10&#45;&gt;Node16 -->
<g id="edge38" class="edge"><title>Node10&#45;&gt;Node16</title>
<path fill="none" stroke="midnightblue" d="M542.753,-183.263C477.959,-178.049 283.256,-161.437 122.906,-138 121.63,-137.814 120.34,-137.619 119.039,-137.419"/>
<polygon fill="midnightblue" stroke="midnightblue" points="119.376,-133.928 108.943,-135.773 118.25,-140.836 119.376,-133.928"/>
</g>
<!-- Node17 -->
<g id="node37" class="node"><title>Node17</title>
<a xlink:href="thingpaintable_8h.htm" target="_top" xlink:title="thingpaintable.h">
<polygon fill="white" stroke="black" points="276.406,-116.5 276.406,-137.5 367.406,-137.5 367.406,-116.5 276.406,-116.5"/>
<text text-anchor="middle" x="321.906" y="-124.5" font-family="Helvetica,sans-Serif" font-size="10.00">thingpaintable.h</text>
</a>
</g>
<!-- Node10&#45;&gt;Node17 -->
<g id="edge40" class="edge"><title>Node10&#45;&gt;Node17</title>
<path fill="none" stroke="midnightblue" d="M542.48,-179.647C504.951,-170.69 428.401,-152.419 376.123,-139.941"/>
<polygon fill="midnightblue" stroke="midnightblue" points="376.874,-136.522 366.334,-137.604 375.249,-143.33 376.874,-136.522"/>
</g>
<!-- Node22 -->
<g id="node54" class="node"><title>Node22</title>
<a xlink:href="pixmapobject_8h.htm" target="_top" xlink:title="pixmapobject.h">
<polygon fill="white" stroke="black" points="990.906,-58.5 990.906,-79.5 1076.91,-79.5 1076.91,-58.5 990.906,-58.5"/>
<text text-anchor="middle" x="1033.91" y="-66.5" font-family="Helvetica,sans-Serif" font-size="10.00">pixmapobject.h</text>
</a>
</g>
<!-- Node10&#45;&gt;Node22 -->
<g id="edge64" class="edge"><title>Node10&#45;&gt;Node22</title>
<path fill="none" stroke="midnightblue" d="M586.955,-183.878C639.308,-180.757 774.806,-169.985 882.906,-138 927.796,-124.718 976.508,-100.514 1006.12,-84.5944"/>
<polygon fill="midnightblue" stroke="midnightblue" points="1007.93,-87.5966 1015.04,-79.7411 1004.58,-81.4487 1007.93,-87.5966"/>
</g>
<!-- Node24 -->
<g id="node61" class="node"><title>Node24</title>
<a xlink:href="icondecorator_8h.htm" target="_top" xlink:title="icondecorator.h">
<polygon fill="white" stroke="black" points="168.906,-116.5 168.906,-137.5 258.906,-137.5 258.906,-116.5 168.906,-116.5"/>
<text text-anchor="middle" x="213.906" y="-124.5" font-family="Helvetica,sans-Serif" font-size="10.00">icondecorator.h</text>
</a>
</g>
<!-- Node10&#45;&gt;Node24 -->
<g id="edge74" class="edge"><title>Node10&#45;&gt;Node24</title>
<path fill="none" stroke="midnightblue" d="M542.867,-181.851C495.006,-174.942 377.777,-157.629 269.108,-138.161"/>
<polygon fill="midnightblue" stroke="midnightblue" points="269.421,-134.661 258.958,-136.332 268.179,-141.55 269.421,-134.661"/>
</g>
<!-- Node27 -->
<g id="node69" class="node"><title>Node27</title>
<a xlink:href="renderopts_8h.htm" target="_top" xlink:title="renderopts.h">
<polygon fill="white" stroke="black" points="384.406,-116.5 384.406,-137.5 461.406,-137.5 461.406,-116.5 384.406,-116.5"/>
<text text-anchor="middle" x="422.906" y="-124.5" font-family="Helvetica,sans-Serif" font-size="10.00">renderopts.h</text>
</a>
</g>
<!-- Node10&#45;&gt;Node27 -->
<g id="edge84" class="edge"><title>Node10&#45;&gt;Node27</title>
<path fill="none" stroke="midnightblue" d="M542.718,-175.938C520.071,-166.687 484.58,-152.191 458.095,-141.373"/>
<polygon fill="midnightblue" stroke="midnightblue" points="459.367,-138.112 448.786,-137.571 456.72,-144.592 459.367,-138.112"/>
</g>
<!-- Node17&#45;&gt;Node5 -->
<g id="edge60" class="edge"><title>Node17&#45;&gt;Node5</title>
<path fill="none" stroke="midnightblue" d="M367.5,-117.285C370.338,-116.813 373.157,-116.379 375.906,-116 593.103,-86.057 659.147,-147.013 867.906,-80 902.915,-68.7617 938.293,-44.6279 959.909,-28.1018"/>
<polygon fill="midnightblue" stroke="midnightblue" points="962.301,-30.6745 968.024,-21.7579 957.99,-25.1599 962.301,-30.6745"/>
</g>
<!-- Node17&#45;&gt;Node11 -->
<g id="edge62" class="edge"><title>Node17&#45;&gt;Node11</title>
<path fill="none" stroke="midnightblue" d="M337.144,-116.312C354.445,-102.807 378.708,-78.8148 365.906,-58 359.283,-47.2332 332.178,-34.2157 308.926,-24.6132"/>
<polygon fill="midnightblue" stroke="midnightblue" points="310.182,-21.3457 299.598,-20.8535 307.565,-27.8382 310.182,-21.3457"/>
</g>
<!-- Node18 -->
<g id="node39" class="node"><title>Node18</title>
<a xlink:href="thing_8h.htm" target="_top" xlink:title="thing.h">
<polygon fill="white" stroke="black" points="412.906,-58.5 412.906,-79.5 460.906,-79.5 460.906,-58.5 412.906,-58.5"/>
<text text-anchor="middle" x="436.906" y="-66.5" font-family="Helvetica,sans-Serif" font-size="10.00">thing.h</text>
</a>
</g>
<!-- Node17&#45;&gt;Node18 -->
<g id="edge42" class="edge"><title>Node17&#45;&gt;Node18</title>
<path fill="none" stroke="midnightblue" d="M342.731,-116.497C360.612,-107.479 386.613,-94.3649 406.767,-84.2006"/>
<polygon fill="midnightblue" stroke="midnightblue" points="408.494,-87.2495 415.846,-79.6212 405.342,-80.9994 408.494,-87.2495"/>
</g>
<!-- Node18&#45;&gt;Node4 -->
<g id="edge46" class="edge"><title>Node18&#45;&gt;Node4</title>
<path fill="none" stroke="midnightblue" d="M460.912,-66.6874C510.613,-61.5943 628.429,-47.9389 735.623,-21.9964"/>
<polygon fill="midnightblue" stroke="midnightblue" points="736.757,-25.3218 745.629,-19.5307 735.082,-18.5252 736.757,-25.3218"/>
</g>
<!-- Node18&#45;&gt;Node5 -->
<g id="edge50" class="edge"><title>Node18&#45;&gt;Node5</title>
<path fill="none" stroke="midnightblue" d="M461.018,-68.585C533.253,-66.9631 754.163,-59.2453 944.41,-21.9721"/>
<polygon fill="midnightblue" stroke="midnightblue" points="945.182,-25.3873 954.305,-20.001 943.814,-18.5222 945.182,-25.3873"/>
</g>
<!-- Node18&#45;&gt;Node7 -->
<g id="edge48" class="edge"><title>Node18&#45;&gt;Node7</title>
<path fill="none" stroke="midnightblue" d="M453.963,-58.3619C467.991,-49.6138 488.09,-37.0786 504.088,-27.1015"/>
<polygon fill="midnightblue" stroke="midnightblue" points="506.323,-29.8323 512.956,-21.5707 502.619,-23.8927 506.323,-29.8323"/>
</g>
<!-- Node18&#45;&gt;Node8 -->
<g id="edge52" class="edge"><title>Node18&#45;&gt;Node8</title>
<path fill="none" stroke="midnightblue" d="M460.955,-63.8529C510.261,-53.3004 622.737,-29.2281 677.211,-17.5693"/>
<polygon fill="midnightblue" stroke="midnightblue" points="678.251,-20.9262 687.297,-15.4108 676.786,-14.0812 678.251,-20.9262"/>
</g>
<!-- Node18&#45;&gt;Node11 -->
<g id="edge54" class="edge"><title>Node18&#45;&gt;Node11</title>
<path fill="none" stroke="midnightblue" d="M412.707,-60.4419C385.452,-50.8028 340.862,-35.0334 309.38,-23.8993"/>
<polygon fill="midnightblue" stroke="midnightblue" points="310.252,-20.4955 299.657,-20.4609 307.918,-27.0949 310.252,-20.4955"/>
</g>
<!-- Node19 -->
<g id="node41" class="node"><title>Node19</title>
<polygon fill="white" stroke="#bfbfbf" points="384.906,-0.5 384.906,-21.5 482.906,-21.5 482.906,-0.5 384.906,-0.5"/>
<text text-anchor="middle" x="433.906" y="-8.5" font-family="Helvetica,sans-Serif" font-size="10.00">QGraphicsObject</text>
</g>
<!-- Node18&#45;&gt;Node19 -->
<g id="edge44" class="edge"><title>Node18&#45;&gt;Node19</title>
<path fill="none" stroke="midnightblue" d="M436.356,-58.3619C435.971,-50.9219 435.444,-40.7427 434.978,-31.7276"/>
<polygon fill="midnightblue" stroke="midnightblue" points="438.464,-31.3765 434.453,-21.5707 431.474,-31.7381 438.464,-31.3765"/>
</g>
<!-- Node18&#45;&gt;Node20 -->
<g id="edge56" class="edge"><title>Node18&#45;&gt;Node20</title>
<path fill="none" stroke="midnightblue" d="M412.716,-64.9216C353.682,-54.9681 201.877,-29.373 130.744,-17.3797"/>
<polygon fill="midnightblue" stroke="midnightblue" points="131.298,-13.9238 120.855,-15.7124 130.134,-20.8263 131.298,-13.9238"/>
</g>
<!-- Node21 -->
<g id="node50" class="node"><title>Node21</title>
<polygon fill="white" stroke="#bfbfbf" points="316.906,-0.5 316.906,-21.5 366.906,-21.5 366.906,-0.5 316.906,-0.5"/>
<text text-anchor="middle" x="341.906" y="-8.5" font-family="Helvetica,sans-Serif" font-size="10.00">QHash</text>
</g>
<!-- Node18&#45;&gt;Node21 -->
<g id="edge58" class="edge"><title>Node18&#45;&gt;Node21</title>
<path fill="none" stroke="midnightblue" d="M419.481,-58.3619C405.019,-49.532 384.236,-36.844 367.822,-26.8224"/>
<polygon fill="midnightblue" stroke="midnightblue" points="369.579,-23.7943 359.22,-21.5707 365.931,-29.7688 369.579,-23.7943"/>
</g>
<!-- Node22&#45;&gt;Node3 -->
<g id="edge66" class="edge"><title>Node22&#45;&gt;Node3</title>
<path fill="none" stroke="midnightblue" d="M1011.45,-58.4966C991.996,-49.397 963.626,-36.1273 941.815,-25.9253"/>
<polygon fill="midnightblue" stroke="midnightblue" points="943.154,-22.6878 932.613,-21.6212 940.188,-29.0285 943.154,-22.6878"/>
</g>
<!-- Node22&#45;&gt;Node4 -->
<g id="edge70" class="edge"><title>Node22&#45;&gt;Node4</title>
<path fill="none" stroke="midnightblue" d="M990.564,-62.0221C945.588,-54.391 873.099,-41.002 802.204,-22.1122"/>
<polygon fill="midnightblue" stroke="midnightblue" points="802.781,-18.6425 792.214,-19.4102 800.953,-25.3997 802.781,-18.6425"/>
</g>
<!-- Node22&#45;&gt;Node9 -->
<g id="edge72" class="edge"><title>Node22&#45;&gt;Node9</title>
<path fill="none" stroke="midnightblue" d="M1036.66,-58.3619C1038.6,-50.8401 1041.27,-40.5187 1043.62,-31.4308"/>
<polygon fill="midnightblue" stroke="midnightblue" points="1047.06,-32.1285 1046.17,-21.5707 1040.28,-30.3758 1047.06,-32.1285"/>
</g>
<!-- Node23 -->
<g id="node57" class="node"><title>Node23</title>
<polygon fill="white" stroke="#bfbfbf" points="1269.41,-0.5 1269.41,-21.5 1328.41,-21.5 1328.41,-0.5 1269.41,-0.5"/>
<text text-anchor="middle" x="1298.91" y="-8.5" font-family="Helvetica,sans-Serif" font-size="10.00">QPixmap</text>
</g>
<!-- Node22&#45;&gt;Node23 -->
<g id="edge68" class="edge"><title>Node22&#45;&gt;Node23</title>
<path fill="none" stroke="midnightblue" d="M1077.07,-59.5522C1127.6,-48.494 1210.56,-30.3362 1259.43,-19.6389"/>
<polygon fill="midnightblue" stroke="midnightblue" points="1260.3,-23.0319 1269.32,-17.4747 1258.81,-16.1938 1260.3,-23.0319"/>
</g>
<!-- Node24&#45;&gt;Node7 -->
<g id="edge76" class="edge"><title>Node24&#45;&gt;Node7</title>
<path fill="none" stroke="midnightblue" d="M222.769,-116.389C236.363,-100.879 263.952,-72.3136 293.906,-58 371.77,-20.7915 402.647,-40.9188 490.298,-22.1475"/>
<polygon fill="midnightblue" stroke="midnightblue" points="491.125,-25.5491 500.111,-19.936 489.586,-18.7203 491.125,-25.5491"/>
</g>
<!-- Node24&#45;&gt;Node11 -->
<g id="edge78" class="edge"><title>Node24&#45;&gt;Node11</title>
<path fill="none" stroke="midnightblue" d="M219.351,-116.295C229.229,-96.8724 250.244,-55.5561 262.812,-30.8462"/>
<polygon fill="midnightblue" stroke="midnightblue" points="266.06,-32.1793 267.474,-21.6792 259.821,-29.0058 266.06,-32.1793"/>
</g>
<!-- Node25 -->
<g id="node65" class="node"><title>Node25</title>
<polygon fill="white" stroke="#bfbfbf" points="302.406,-58.5 302.406,-79.5 357.406,-79.5 357.406,-58.5 302.406,-58.5"/>
<text text-anchor="middle" x="329.906" y="-66.5" font-family="Helvetica,sans-Serif" font-size="10.00">QPointF</text>
</g>
<!-- Node24&#45;&gt;Node25 -->
<g id="edge80" class="edge"><title>Node24&#45;&gt;Node25</title>
<path fill="none" stroke="midnightblue" d="M234.912,-116.497C252.949,-107.479 279.176,-94.3649 299.505,-84.2006"/>
<polygon fill="midnightblue" stroke="midnightblue" points="301.284,-87.2239 308.663,-79.6212 298.154,-80.9629 301.284,-87.2239"/>
</g>
<!-- Node26 -->
<g id="node67" class="node"><title>Node26</title>
<polygon fill="white" stroke="#bfbfbf" points="160.406,-58.5 160.406,-79.5 209.406,-79.5 209.406,-58.5 160.406,-58.5"/>
<text text-anchor="middle" x="184.906" y="-66.5" font-family="Helvetica,sans-Serif" font-size="10.00">QPoint</text>
</g>
<!-- Node24&#45;&gt;Node26 -->
<g id="edge82" class="edge"><title>Node24&#45;&gt;Node26</title>
<path fill="none" stroke="midnightblue" d="M208.587,-116.362C204.703,-108.595 199.327,-97.8426 194.679,-88.5458"/>
<polygon fill="midnightblue" stroke="midnightblue" points="197.794,-86.9497 190.191,-79.5707 191.533,-90.0802 197.794,-86.9497"/>
</g>
<!-- Node28&#45;&gt;Node3 -->
<g id="edge104" class="edge"><title>Node28&#45;&gt;Node3</title>
<path fill="none" stroke="midnightblue" d="M1092.31,-174.441C1077.77,-165.422 1056.83,-151.757 1039.91,-138 996.162,-102.444 950.157,-54.6591 926.353,-29.0331"/>
<polygon fill="midnightblue" stroke="midnightblue" points="928.789,-26.5118 919.436,-21.5351 923.644,-31.2584 928.789,-26.5118"/>
</g>
<!-- Node28&#45;&gt;Node5 -->
<g id="edge108" class="edge"><title>Node28&#45;&gt;Node5</title>
<path fill="none" stroke="midnightblue" d="M1154.54,-176.595C1179.65,-169.864 1210.06,-158.1 1230.91,-138 1257.72,-112.144 1280.2,-86.2417 1255.91,-58 1221.03,-17.4466 1070.11,-33.6497 1017.91,-22 1017.69,-21.9526 1017.48,-21.9046 1017.27,-21.856"/>
<polygon fill="midnightblue" stroke="midnightblue" points="1018.02,-18.4364 1007.47,-19.377 1016.3,-25.2227 1018.02,-18.4364"/>
</g>
<!-- Node28&#45;&gt;Node7 -->
<g id="edge106" class="edge"><title>Node28&#45;&gt;Node7</title>
<path fill="none" stroke="midnightblue" d="M1066.51,-174.474C994.443,-156.721 845.727,-118.934 721.906,-80 667.315,-62.8347 605.157,-39.8535 566.726,-25.234"/>
<polygon fill="midnightblue" stroke="midnightblue" points="567.605,-21.8231 557.014,-21.5251 565.108,-28.3624 567.605,-21.8231"/>
</g>
<!-- Node28&#45;&gt;Node8 -->
<g id="edge110" class="edge"><title>Node28&#45;&gt;Node8</title>
<path fill="none" stroke="midnightblue" d="M1087.58,-174.408C1048.83,-156.081 971.993,-120.02 958.906,-116 867.129,-87.8084 824.19,-135.583 745.906,-80 729.507,-68.3567 719.409,-47.3202 713.784,-31.5249"/>
<polygon fill="midnightblue" stroke="midnightblue" points="716.985,-30.048 710.582,-21.6069 710.324,-32.1986 716.985,-30.048"/>
</g>
<!-- Node28&#45;&gt;Node12 -->
<g id="edge114" class="edge"><title>Node28&#45;&gt;Node12</title>
<path fill="none" stroke="midnightblue" d="M1154.66,-175.019C1175.49,-168.08 1198.74,-156.615 1212.91,-138 1223.32,-124.307 1225.57,-104.604 1225.51,-89.7561"/>
<polygon fill="midnightblue" stroke="midnightblue" points="1229,-89.3816 1225.11,-79.5275 1222,-89.6579 1229,-89.3816"/>
</g>
<!-- Node28&#45;&gt;Node23 -->
<g id="edge112" class="edge"><title>Node28&#45;&gt;Node23</title>
<path fill="none" stroke="midnightblue" d="M1154.41,-175.179C1191.48,-166.191 1240.45,-152.171 1254.91,-138 1284.35,-109.145 1294.11,-59.636 1297.33,-31.7197"/>
<polygon fill="midnightblue" stroke="midnightblue" points="1300.84,-31.8136 1298.32,-21.5211 1293.87,-31.1344 1300.84,-31.8136"/>
</g>
<!-- Node29 -->
<g id="node73" class="node"><title>Node29</title>
<a xlink:href="pixmapfilmstripobject_8h.htm" target="_top" xlink:title="pixmapfilmstripobject.h">
<polygon fill="white" stroke="black" points="1048.91,-116.5 1048.91,-137.5 1170.91,-137.5 1170.91,-116.5 1048.91,-116.5"/>
<text text-anchor="middle" x="1109.91" y="-124.5" font-family="Helvetica,sans-Serif" font-size="10.00">pixmapfilmstripobject.h</text>
</a>
</g>
<!-- Node28&#45;&gt;Node29 -->
<g id="edge88" class="edge"><title>Node28&#45;&gt;Node29</title>
<path fill="none" stroke="midnightblue" d="M1109.91,-174.362C1109.91,-166.922 1109.91,-156.743 1109.91,-147.728"/>
<polygon fill="midnightblue" stroke="midnightblue" points="1113.41,-147.571 1109.91,-137.571 1106.41,-147.571 1113.41,-147.571"/>
</g>
<!-- Node29&#45;&gt;Node8 -->
<g id="edge102" class="edge"><title>Node29&#45;&gt;Node8</title>
<path fill="none" stroke="midnightblue" d="M1048.72,-120.238C960.482,-110.184 805.451,-91.2686 781.906,-80 757.575,-68.355 735.807,-45.8527 722.282,-29.7089"/>
<polygon fill="midnightblue" stroke="midnightblue" points="724.659,-27.0822 715.652,-21.5035 719.214,-31.4816 724.659,-27.0822"/>
</g>
<!-- Node29&#45;&gt;Node9 -->
<g id="edge98" class="edge"><title>Node29&#45;&gt;Node9</title>
<path fill="none" stroke="midnightblue" d="M1125,-116.449C1142.48,-102.886 1167.27,-78.627 1153.91,-58 1138.04,-33.5083 1106.07,-21.6631 1081.56,-16.0069"/>
<polygon fill="midnightblue" stroke="midnightblue" points="1082.08,-12.5405 1071.58,-13.9429 1080.66,-19.3955 1082.08,-12.5405"/>
</g>
<!-- Node29&#45;&gt;Node11 -->
<g id="edge94" class="edge"><title>Node29&#45;&gt;Node11</title>
<path fill="none" stroke="midnightblue" d="M1048.65,-122.674C915.182,-112.455 588.338,-83.1204 309.431,-22.0744"/>
<polygon fill="midnightblue" stroke="midnightblue" points="310.049,-18.6267 299.53,-19.8894 308.541,-25.4622 310.049,-18.6267"/>
</g>
<!-- Node29&#45;&gt;Node12 -->
<g id="edge92" class="edge"><title>Node29&#45;&gt;Node12</title>
<path fill="none" stroke="midnightblue" d="M1130.55,-116.497C1148.28,-107.479 1174.05,-94.3649 1194.03,-84.2006"/>
<polygon fill="midnightblue" stroke="midnightblue" points="1195.7,-87.2753 1203.03,-79.6212 1192.53,-81.0364 1195.7,-87.2753"/>
</g>
<!-- Node29&#45;&gt;Node22 -->
<g id="edge90" class="edge"><title>Node29&#45;&gt;Node22</title>
<path fill="none" stroke="midnightblue" d="M1095.97,-116.362C1084.72,-107.777 1068.69,-95.5459 1055.74,-85.6636"/>
<polygon fill="midnightblue" stroke="midnightblue" points="1057.83,-82.8551 1047.76,-79.5707 1053.58,-88.4198 1057.83,-82.8551"/>
</g>
<!-- Node29&#45;&gt;Node25 -->
<g id="edge96" class="edge"><title>Node29&#45;&gt;Node25</title>
<path fill="none" stroke="midnightblue" d="M1048.85,-124.604C926.31,-119.428 641.769,-105.554 403.906,-80 392.14,-78.736 379.376,-76.9784 367.814,-75.2387"/>
<polygon fill="midnightblue" stroke="midnightblue" points="368.015,-71.7282 357.598,-73.6606 366.947,-78.6462 368.015,-71.7282"/>
</g>
<!-- Node30 -->
<g id="node80" class="node"><title>Node30</title>
<polygon fill="white" stroke="#bfbfbf" points="1094.41,-58.5 1094.41,-79.5 1145.41,-79.5 1145.41,-58.5 1094.41,-58.5"/>
<text text-anchor="middle" x="1119.91" y="-66.5" font-family="Helvetica,sans-Serif" font-size="10.00">QSizeF</text>
</g>
<!-- Node29&#45;&gt;Node30 -->
<g id="edge100" class="edge"><title>Node29&#45;&gt;Node30</title>
<path fill="none" stroke="midnightblue" d="M1111.74,-116.362C1113.04,-108.84 1114.82,-98.5187 1116.38,-89.4308"/>
<polygon fill="midnightblue" stroke="midnightblue" points="1119.83,-90.02 1118.08,-79.5707 1112.93,-88.8306 1119.83,-90.02"/>
</g>
<!-- Node31&#45;&gt;Node5 -->
<g id="edge120" class="edge"><title>Node31&#45;&gt;Node5</title>
<path fill="none" stroke="midnightblue" d="M1490.77,-174.396C1474.55,-164.894 1450.11,-150.559 1428.91,-138 1369.23,-102.654 1360.44,-80.7209 1294.91,-58 1177.61,-17.3333 1139.35,-47.7712 1017.91,-22 1017.69,-21.9548 1017.48,-21.909 1017.26,-21.8625"/>
<polygon fill="midnightblue" stroke="midnightblue" points="1018,-18.4388 1007.45,-19.4447 1016.32,-25.2355 1018,-18.4388"/>
</g>
<!-- Node31&#45;&gt;Node9 -->
<g id="edge130" class="edge"><title>Node31&#45;&gt;Node9</title>
<path fill="none" stroke="midnightblue" d="M1490.65,-174.429C1477.07,-165.893 1458.74,-152.882 1445.91,-138 1419.55,-107.428 1436.11,-80.9521 1402.91,-58 1351.27,-22.3119 1159.87,-13.6756 1082.09,-11.6243"/>
<polygon fill="midnightblue" stroke="midnightblue" points="1081.97,-8.12065 1071.89,-11.3765 1081.8,-15.1186 1081.97,-8.12065"/>
</g>
<!-- Node32 -->
<g id="node91" class="node"><title>Node32</title>
<a xlink:href="Common_8h.htm" target="_top" xlink:title="Common.h">
<polygon fill="white" stroke="black" points="1454.41,-116.5 1454.41,-137.5 1521.41,-137.5 1521.41,-116.5 1454.41,-116.5"/>
<text text-anchor="middle" x="1487.91" y="-124.5" font-family="Helvetica,sans-Serif" font-size="10.00">Common.h</text>
</a>
</g>
<!-- Node31&#45;&gt;Node32 -->
<g id="edge118" class="edge"><title>Node31&#45;&gt;Node32</title>
<path fill="none" stroke="midnightblue" d="M1505.05,-174.362C1502.3,-166.758 1498.51,-156.294 1495.2,-147.135"/>
<polygon fill="midnightblue" stroke="midnightblue" points="1498.43,-145.782 1491.73,-137.571 1491.85,-148.165 1498.43,-145.782"/>
</g>
<!-- Node33 -->
<g id="node94" class="node"><title>Node33</title>
<polygon fill="white" stroke="#bfbfbf" points="1538.91,-116.5 1538.91,-137.5 1584.91,-137.5 1584.91,-116.5 1538.91,-116.5"/>
<text text-anchor="middle" x="1561.91" y="-124.5" font-family="Helvetica,sans-Serif" font-size="10.00">vector</text>
</g>
<!-- Node31&#45;&gt;Node33 -->
<g id="edge122" class="edge"><title>Node31&#45;&gt;Node33</title>
<path fill="none" stroke="midnightblue" d="M1518.63,-174.362C1526.1,-166.186 1536.59,-154.702 1545.37,-145.091"/>
<polygon fill="midnightblue" stroke="midnightblue" points="1548.08,-147.314 1552.25,-137.571 1542.92,-142.592 1548.08,-147.314"/>
</g>
<!-- Node34 -->
<g id="node96" class="node"><title>Node34</title>
<polygon fill="white" stroke="#bfbfbf" points="1602.41,-116.5 1602.41,-137.5 1633.41,-137.5 1633.41,-116.5 1602.41,-116.5"/>
<text text-anchor="middle" x="1617.91" y="-124.5" font-family="Helvetica,sans-Serif" font-size="10.00">set</text>
</g>
<!-- Node31&#45;&gt;Node34 -->
<g id="edge124" class="edge"><title>Node31&#45;&gt;Node34</title>
<path fill="none" stroke="midnightblue" d="M1528.64,-174.497C1546.78,-164.846 1573.73,-150.505 1593.27,-140.108"/>
<polygon fill="midnightblue" stroke="midnightblue" points="1595.01,-143.146 1602.2,-135.358 1591.73,-136.966 1595.01,-143.146"/>
</g>
<!-- Node35 -->
<g id="node98" class="node"><title>Node35</title>
<polygon fill="white" stroke="#bfbfbf" points="1650.41,-116.5 1650.41,-137.5 1691.41,-137.5 1691.41,-116.5 1650.41,-116.5"/>
<text text-anchor="middle" x="1670.91" y="-124.5" font-family="Helvetica,sans-Serif" font-size="10.00">glib.h</text>
</g>
<!-- Node31&#45;&gt;Node35 -->
<g id="edge126" class="edge"><title>Node31&#45;&gt;Node35</title>
<path fill="none" stroke="midnightblue" d="M1539.35,-174.464C1564.35,-165.763 1600.9,-152.929 1640.7,-138.397"/>
<polygon fill="midnightblue" stroke="midnightblue" points="1642.15,-141.595 1650.33,-134.87 1639.74,-135.022 1642.15,-141.595"/>
</g>
<!-- Node36 -->
<g id="node100" class="node"><title>Node36</title>
<polygon fill="white" stroke="#bfbfbf" points="1708.91,-116.5 1708.91,-137.5 1766.91,-137.5 1766.91,-116.5 1708.91,-116.5"/>
<text text-anchor="middle" x="1737.91" y="-124.5" font-family="Helvetica,sans-Serif" font-size="10.00">QtGlobal</text>
</g>
<!-- Node31&#45;&gt;Node36 -->
<g id="edge128" class="edge"><title>Node31&#45;&gt;Node36</title>
<path fill="none" stroke="midnightblue" d="M1547.07,-176.089C1583.67,-167.436 1640.71,-153.675 1699.13,-138.14"/>
<polygon fill="midnightblue" stroke="midnightblue" points="1700.14,-141.493 1708.89,-135.529 1698.33,-134.731 1700.14,-141.493"/>
</g>
<!-- Node37&#45;&gt;Node5 -->
<g id="edge134" class="edge"><title>Node37&#45;&gt;Node5</title>
<path fill="none" stroke="midnightblue" d="M1288.84,-174.402C1294.84,-150.159 1305.52,-90.2736 1274.91,-58 1235.22,-16.1604 1074.26,-34.2513 1017.91,-22 1017.69,-21.9537 1017.48,-21.9069 1017.27,-21.8594"/>
<polygon fill="midnightblue" stroke="midnightblue" points="1018.01,-18.4376 1007.46,-19.4125 1016.31,-25.2294 1018.01,-18.4376"/>
</g>
<!-- Node38&#45;&gt;Node32 -->
<g id="edge138" class="edge"><title>Node38&#45;&gt;Node32</title>
<path fill="none" stroke="midnightblue" d="M1594.36,-174.497C1573.88,-165.356 1543.96,-152.008 1521.05,-141.788"/>
<polygon fill="midnightblue" stroke="midnightblue" points="1522.27,-138.499 1511.71,-137.621 1519.42,-144.892 1522.27,-138.499"/>
</g>
<!-- Node38&#45;&gt;Node33 -->
<g id="edge142" class="edge"><title>Node38&#45;&gt;Node33</title>
<path fill="none" stroke="midnightblue" d="M1607.63,-174.362C1599.66,-166.104 1588.43,-154.472 1579.09,-144.803"/>
<polygon fill="midnightblue" stroke="midnightblue" points="1581.58,-142.334 1572.11,-137.571 1576.54,-147.196 1581.58,-142.334"/>
</g>
<!-- Node38&#45;&gt;Node34 -->
<g id="edge144" class="edge"><title>Node38&#45;&gt;Node34</title>
<path fill="none" stroke="midnightblue" d="M1617.91,-174.362C1617.91,-166.922 1617.91,-156.743 1617.91,-147.728"/>
<polygon fill="midnightblue" stroke="midnightblue" points="1621.41,-147.571 1617.91,-137.571 1614.41,-147.571 1621.41,-147.571"/>
</g>
<!-- Node38&#45;&gt;Node35 -->
<g id="edge146" class="edge"><title>Node38&#45;&gt;Node35</title>
<path fill="none" stroke="midnightblue" d="M1627.63,-174.362C1635.1,-166.186 1645.59,-154.702 1654.37,-145.091"/>
<polygon fill="midnightblue" stroke="midnightblue" points="1657.08,-147.314 1661.25,-137.571 1651.92,-142.592 1657.08,-147.314"/>
</g>
<!-- Node38&#45;&gt;Node36 -->
<g id="edge148" class="edge"><title>Node38&#45;&gt;Node36</title>
<path fill="none" stroke="midnightblue" d="M1639.64,-174.497C1658.38,-165.438 1685.67,-152.246 1706.74,-142.063"/>
<polygon fill="midnightblue" stroke="midnightblue" points="1708.45,-145.124 1715.93,-137.621 1705.4,-138.822 1708.45,-145.124"/>
</g>
<!-- Node39 -->
<g id="node109" class="node"><title>Node39</title>
<polygon fill="white" stroke="#bfbfbf" points="1784.41,-116.5 1784.41,-137.5 1827.41,-137.5 1827.41,-116.5 1784.41,-116.5"/>
<text text-anchor="middle" x="1805.91" y="-124.5" font-family="Helvetica,sans-Serif" font-size="10.00">string</text>
</g>
<!-- Node38&#45;&gt;Node39 -->
<g id="edge140" class="edge"><title>Node38&#45;&gt;Node39</title>
<path fill="none" stroke="midnightblue" d="M1649.56,-176.211C1679.59,-167.737 1726.16,-154.238 1774.62,-138.31"/>
<polygon fill="midnightblue" stroke="midnightblue" points="1775.94,-141.56 1784.33,-135.093 1773.74,-134.915 1775.94,-141.56"/>
</g>
</g>
</svg>
