<?xml version="1.0" encoding="UTF-8" standalone="no"?>
<!DOCTYPE svg PUBLIC "-//W3C//DTD SVG 1.1//EN"
 "http://www.w3.org/Graphics/SVG/1.1/DTD/svg11.dtd">
<!-- Generated by graphviz version 2.26.3 (20100126.1600)
 -->
<!-- Title: G Pages: 1 -->
<svg width="2152pt" height="262pt"
 viewBox="0.00 0.00 2152.00 262.00" xmlns="http://www.w3.org/2000/svg" xmlns:xlink="http://www.w3.org/1999/xlink">
<g id="graph1" class="graph" transform="scale(1 1) rotate(0) translate(4 258)">
<title>G</title>
<polygon fill="white" stroke="white" points="-4,5 -4,-258 2149,-258 2149,5 -4,5"/>
<!-- Node1 -->
<g id="node1" class="node"><title>Node1</title>
<polygon fill="#bfbfbf" stroke="black" points="977,-232.5 977,-253.5 1085,-253.5 1085,-232.5 977,-232.5"/>
<text text-anchor="middle" x="1031" y="-240.5" font-family="Helvetica,sans-Serif" font-size="10.00">IMEDataInterface.h</text>
</g>
<!-- Node2 -->
<g id="node3" class="node"><title>Node2</title>
<a xlink:href="CandidateBar_8h.htm" target="_top" xlink:title="CandidateBar.h">
<polygon fill="white" stroke="black" points="216,-116.5 216,-137.5 306,-137.5 306,-116.5 216,-116.5"/>
<text text-anchor="middle" x="261" y="-124.5" font-family="Helvetica,sans-Serif" font-size="10.00">CandidateBar.h</text>
</a>
</g>
<!-- Node1&#45;&gt;Node2 -->
<g id="edge2" class="edge"><title>Node1&#45;&gt;Node2</title>
<path fill="none" stroke="midnightblue" d="M966.751,-233.321C814.888,-210.443 436.762,-153.478 306.19,-133.808"/>
<polygon fill="midnightblue" stroke="midnightblue" points="966.445,-236.814 976.855,-234.843 967.488,-229.892 966.445,-236.814"/>
</g>
<!-- Node10 -->
<g id="node20" class="node"><title>Node10</title>
<a xlink:href="VirtualKeyboard_8h.htm" target="_top" xlink:title="VirtualKeyboard.h">
<polygon fill="white" stroke="black" points="842.5,-174.5 842.5,-195.5 941.5,-195.5 941.5,-174.5 842.5,-174.5"/>
<text text-anchor="middle" x="892" y="-182.5" font-family="Helvetica,sans-Serif" font-size="10.00">VirtualKeyboard.h</text>
</a>
</g>
<!-- Node1&#45;&gt;Node10 -->
<g id="edge20" class="edge"><title>Node1&#45;&gt;Node10</title>
<path fill="none" stroke="midnightblue" d="M996.526,-228.615C972.018,-218.389 939.642,-204.88 917.454,-195.621"/>
<polygon fill="midnightblue" stroke="midnightblue" points="995.252,-231.876 1005.83,-232.497 997.947,-225.416 995.252,-231.876"/>
</g>
<!-- Node24 -->
<g id="node54" class="node"><title>Node24</title>
<a xlink:href="IMEManager_8h.htm" target="_top" xlink:title="IMEManager.h">
<polygon fill="white" stroke="black" points="1283,-174.5 1283,-195.5 1369,-195.5 1369,-174.5 1283,-174.5"/>
<text text-anchor="middle" x="1326" y="-182.5" font-family="Helvetica,sans-Serif" font-size="10.00">IMEManager.h</text>
</a>
</g>
<!-- Node1&#45;&gt;Node24 -->
<g id="edge60" class="edge"><title>Node1&#45;&gt;Node24</title>
<path fill="none" stroke="midnightblue" d="M1094.37,-230.542C1151.14,-219.379 1232.9,-203.304 1282.57,-193.539"/>
<polygon fill="midnightblue" stroke="midnightblue" points="1093.56,-227.133 1084.42,-232.497 1094.91,-234.002 1093.56,-227.133"/>
</g>
<!-- Node29 -->
<g id="node65" class="node"><title>Node29</title>
<a xlink:href="SysmgrIMEDataInterface_8h.htm" target="_top" xlink:title="SysmgrIMEDataInterface.h">
<polygon fill="white" stroke="black" points="1110.5,-174.5 1110.5,-195.5 1253.5,-195.5 1253.5,-174.5 1110.5,-174.5"/>
<text text-anchor="middle" x="1182" y="-182.5" font-family="Helvetica,sans-Serif" font-size="10.00">SysmgrIMEDataInterface.h</text>
</a>
</g>
<!-- Node1&#45;&gt;Node29 -->
<g id="edge72" class="edge"><title>Node1&#45;&gt;Node29</title>
<path fill="none" stroke="midnightblue" d="M1067.78,-228.874C1094.57,-218.582 1130.29,-204.862 1154.6,-195.523"/>
<polygon fill="midnightblue" stroke="midnightblue" points="1066.43,-225.644 1058.34,-232.497 1068.94,-232.178 1066.43,-225.644"/>
</g>
<!-- Node31 -->
<g id="node70" class="node"><title>Node31</title>
<a xlink:href="IMEView_8h.htm" target="_top" xlink:title="IMEView.h">
<polygon fill="white" stroke="black" points="1737,-174.5 1737,-195.5 1803,-195.5 1803,-174.5 1737,-174.5"/>
<text text-anchor="middle" x="1770" y="-182.5" font-family="Helvetica,sans-Serif" font-size="10.00">IMEView.h</text>
</a>
</g>
<!-- Node1&#45;&gt;Node31 -->
<g id="edge78" class="edge"><title>Node1&#45;&gt;Node31</title>
<path fill="none" stroke="midnightblue" d="M1095.13,-237.967C1246.71,-226.07 1622.91,-196.544 1736.81,-187.605"/>
<polygon fill="midnightblue" stroke="midnightblue" points="1094.74,-234.487 1085.04,-238.759 1095.28,-241.465 1094.74,-234.487"/>
</g>
<!-- Node33 -->
<g id="node75" class="node"><title>Node33</title>
<a xlink:href="ShortcutsHandler_8h.htm" target="_top" xlink:title="ShortcutsHandler.h">
<polygon fill="white" stroke="black" points="606.5,-116.5 606.5,-137.5 713.5,-137.5 713.5,-116.5 606.5,-116.5"/>
<text text-anchor="middle" x="660" y="-124.5" font-family="Helvetica,sans-Serif" font-size="10.00">ShortcutsHandler.h</text>
</a>
</g>
<!-- Node1&#45;&gt;Node33 -->
<g id="edge84" class="edge"><title>Node1&#45;&gt;Node33</title>
<path fill="none" stroke="midnightblue" d="M967.619,-230.298C928.688,-221.901 878.014,-209.898 834,-196 778.995,-178.631 716.617,-152.176 683.533,-137.585"/>
<polygon fill="midnightblue" stroke="midnightblue" points="967.251,-233.799 977.761,-232.462 968.711,-226.953 967.251,-233.799"/>
</g>
<!-- Node3 -->
<g id="node5" class="node"><title>Node3</title>
<a xlink:href="CandidateBar_8cpp.htm" target="_top" xlink:title="CandidateBar.cpp">
<polygon fill="white" stroke="black" points="-0.5,-58.5 -0.5,-79.5 100.5,-79.5 100.5,-58.5 -0.5,-58.5"/>
<text text-anchor="middle" x="50" y="-66.5" font-family="Helvetica,sans-Serif" font-size="10.00">CandidateBar.cpp</text>
</a>
</g>
<!-- Node2&#45;&gt;Node3 -->
<g id="edge4" class="edge"><title>Node2&#45;&gt;Node3</title>
<path fill="none" stroke="midnightblue" d="M213.024,-113.812C175.248,-103.428 123.3,-89.1487 88.2822,-79.5231"/>
<polygon fill="midnightblue" stroke="midnightblue" points="212.219,-117.221 222.789,-116.497 214.075,-110.471 212.219,-117.221"/>
</g>
<!-- Node4 -->
<g id="node7" class="node"><title>Node4</title>
<a xlink:href="CandidateBarRemote_8h.htm" target="_top" xlink:title="CandidateBarRemote.h">
<polygon fill="white" stroke="black" points="117.5,-58.5 117.5,-79.5 244.5,-79.5 244.5,-58.5 117.5,-58.5"/>
<text text-anchor="middle" x="181" y="-66.5" font-family="Helvetica,sans-Serif" font-size="10.00">CandidateBarRemote.h</text>
</a>
</g>
<!-- Node2&#45;&gt;Node4 -->
<g id="edge6" class="edge"><title>Node2&#45;&gt;Node4</title>
<path fill="none" stroke="midnightblue" d="M232.559,-110.821C217.74,-100.831 200.713,-88.2993 190.228,-79.5707"/>
<polygon fill="midnightblue" stroke="midnightblue" points="230.687,-113.78 240.963,-116.362 234.54,-107.935 230.687,-113.78"/>
</g>
<!-- Node6 -->
<g id="node12" class="node"><title>Node6</title>
<a xlink:href="PhoneKeyboard_8h.htm" target="_top" xlink:title="PhoneKeyboard.h">
<polygon fill="white" stroke="black" points="261.5,-58.5 261.5,-79.5 362.5,-79.5 362.5,-58.5 261.5,-58.5"/>
<text text-anchor="middle" x="312" y="-66.5" font-family="Helvetica,sans-Serif" font-size="10.00">PhoneKeyboard.h</text>
</a>
</g>
<!-- Node2&#45;&gt;Node6 -->
<g id="edge12" class="edge"><title>Node2&#45;&gt;Node6</title>
<path fill="none" stroke="midnightblue" d="M276.977,-108.83C285.438,-99.2078 295.532,-87.7282 302.705,-79.5707"/>
<polygon fill="midnightblue" stroke="midnightblue" points="274.329,-106.541 270.354,-116.362 279.586,-111.163 274.329,-106.541"/>
</g>
<!-- Node8 -->
<g id="node16" class="node"><title>Node8</title>
<a xlink:href="TabletKeyboard_8h.htm" target="_top" xlink:title="TabletKeyboard.h">
<polygon fill="white" stroke="black" points="597.5,-58.5 597.5,-79.5 696.5,-79.5 696.5,-58.5 597.5,-58.5"/>
<text text-anchor="middle" x="647" y="-66.5" font-family="Helvetica,sans-Serif" font-size="10.00">TabletKeyboard.h</text>
</a>
</g>
<!-- Node2&#45;&gt;Node8 -->
<g id="edge16" class="edge"><title>Node2&#45;&gt;Node8</title>
<path fill="none" stroke="midnightblue" d="M316.266,-119.855C381.555,-111.235 493.391,-95.9081 589,-80 591.73,-79.5458 594.529,-79.0651 597.352,-78.5684"/>
<polygon fill="midnightblue" stroke="midnightblue" points="315.655,-116.405 306.197,-121.18 316.568,-123.345 315.655,-116.405"/>
</g>
<!-- Node4&#45;&gt;Node2 -->
<g id="edge8" class="edge"><title>Node4&#45;&gt;Node2</title>
<path fill="none" stroke="midnightblue" d="M209.327,-85.1015C224.134,-95.0786 241.172,-107.614 251.691,-116.362"/>
<polygon fill="midnightblue" stroke="midnightblue" points="211.208,-82.15 200.932,-79.5707 207.357,-87.9953 211.208,-82.15"/>
</g>
<!-- Node5 -->
<g id="node10" class="node"><title>Node5</title>
<a xlink:href="CandidateBarRemote_8cpp.htm" target="_top" xlink:title="CandidateBarRemote.cpp">
<polygon fill="white" stroke="black" points="112,-0.5 112,-21.5 250,-21.5 250,-0.5 112,-0.5"/>
<text text-anchor="middle" x="181" y="-8.5" font-family="Helvetica,sans-Serif" font-size="10.00">CandidateBarRemote.cpp</text>
</a>
</g>
<!-- Node4&#45;&gt;Node5 -->
<g id="edge10" class="edge"><title>Node4&#45;&gt;Node5</title>
<path fill="none" stroke="midnightblue" d="M181,-48.1906C181,-39.1684 181,-28.9941 181,-21.5707"/>
<polygon fill="midnightblue" stroke="midnightblue" points="177.5,-48.3619 181,-58.3619 184.5,-48.3619 177.5,-48.3619"/>
</g>
<!-- Node7 -->
<g id="node14" class="node"><title>Node7</title>
<a xlink:href="PhoneKeyboard_8cpp.htm" target="_top" xlink:title="PhoneKeyboard.cpp">
<polygon fill="white" stroke="black" points="536,-0.5 536,-21.5 648,-21.5 648,-0.5 536,-0.5"/>
<text text-anchor="middle" x="592" y="-8.5" font-family="Helvetica,sans-Serif" font-size="10.00">PhoneKeyboard.cpp</text>
</a>
</g>
<!-- Node6&#45;&gt;Node7 -->
<g id="edge14" class="edge"><title>Node6&#45;&gt;Node7</title>
<path fill="none" stroke="midnightblue" d="M372.806,-56.4045C423.145,-45.977 493.841,-31.333 541.199,-21.5231"/>
<polygon fill="midnightblue" stroke="midnightblue" points="371.788,-53.0409 362.706,-58.4966 373.208,-59.8954 371.788,-53.0409"/>
</g>
<!-- Node9 -->
<g id="node18" class="node"><title>Node9</title>
<a xlink:href="TabletKeyboard_8cpp.htm" target="_top" xlink:title="TabletKeyboard.cpp">
<polygon fill="white" stroke="black" points="1042,-0.5 1042,-21.5 1152,-21.5 1152,-0.5 1042,-0.5"/>
<text text-anchor="middle" x="1097" y="-8.5" font-family="Helvetica,sans-Serif" font-size="10.00">TabletKeyboard.cpp</text>
</a>
</g>
<!-- Node8&#45;&gt;Node9 -->
<g id="edge18" class="edge"><title>Node8&#45;&gt;Node9</title>
<path fill="none" stroke="midnightblue" d="M706.794,-57.7943C832.132,-38.6865 967.995,-23.9318 1041.98,-16.4025"/>
<polygon fill="midnightblue" stroke="midnightblue" points="705.988,-54.377 696.636,-59.3562 707.051,-61.2957 705.988,-54.377"/>
</g>
<!-- Node10&#45;&gt;Node6 -->
<g id="edge34" class="edge"><title>Node10&#45;&gt;Node6</title>
<path fill="none" stroke="midnightblue" d="M831.811,-182.951C751.759,-179.116 606.354,-168.269 486,-138 428.957,-123.654 365.595,-95.1013 333.365,-79.6028"/>
<polygon fill="midnightblue" stroke="midnightblue" points="832.04,-186.465 842.19,-183.426 832.361,-179.473 832.04,-186.465"/>
</g>
<!-- Node10&#45;&gt;Node8 -->
<g id="edge56" class="edge"><title>Node10&#45;&gt;Node8</title>
<path fill="none" stroke="midnightblue" d="M891.787,-164.236C890.48,-148.782 886.124,-128.314 873,-116 869.753,-112.954 762.06,-91.4789 696.527,-78.6353"/>
<polygon fill="midnightblue" stroke="midnightblue" points="888.301,-164.595 892.283,-174.413 895.292,-164.255 888.301,-164.595"/>
</g>
<!-- Node11 -->
<g id="node22" class="node"><title>Node11</title>
<a xlink:href="GlyphCache_8h.htm" target="_top" xlink:title="GlyphCache.h">
<polygon fill="white" stroke="black" points="494.5,-116.5 494.5,-137.5 577.5,-137.5 577.5,-116.5 494.5,-116.5"/>
<text text-anchor="middle" x="536" y="-124.5" font-family="Helvetica,sans-Serif" font-size="10.00">GlyphCache.h</text>
</a>
</g>
<!-- Node10&#45;&gt;Node11 -->
<g id="edge22" class="edge"><title>Node10&#45;&gt;Node11</title>
<path fill="none" stroke="midnightblue" d="M832.319,-175.765C772.885,-166.496 679.067,-151.67 598,-138 591.424,-136.891 584.462,-135.686 577.671,-134.494"/>
<polygon fill="midnightblue" stroke="midnightblue" points="831.86,-179.235 842.279,-177.316 832.937,-172.319 831.86,-179.235"/>
</g>
<!-- Node14 -->
<g id="node30" class="node"><title>Node14</title>
<a xlink:href="IMEManager_8cpp.htm" target="_top" xlink:title="IMEManager.cpp">
<polygon fill="white" stroke="black" points="1277,-116.5 1277,-137.5 1375,-137.5 1375,-116.5 1277,-116.5"/>
<text text-anchor="middle" x="1326" y="-124.5" font-family="Helvetica,sans-Serif" font-size="10.00">IMEManager.cpp</text>
</a>
</g>
<!-- Node10&#45;&gt;Node14 -->
<g id="edge32" class="edge"><title>Node10&#45;&gt;Node14</title>
<path fill="none" stroke="midnightblue" d="M951.817,-178.701C1026.14,-170.604 1156.74,-155.486 1268,-138 1270.94,-137.539 1273.95,-137.04 1276.99,-136.52"/>
<polygon fill="midnightblue" stroke="midnightblue" points="951.276,-175.239 941.712,-179.796 952.031,-182.198 951.276,-175.239"/>
</g>
<!-- Node15 -->
<g id="node33" class="node"><title>Node15</title>
<a xlink:href="VirtualKeyboardPreferences_8h.htm" target="_top" xlink:title="VirtualKeyboardPreferences.h">
<polygon fill="white" stroke="black" points="930.5,-116.5 930.5,-137.5 1087.5,-137.5 1087.5,-116.5 930.5,-116.5"/>
<text text-anchor="middle" x="1009" y="-124.5" font-family="Helvetica,sans-Serif" font-size="10.00">VirtualKeyboardPreferences.h</text>
</a>
</g>
<!-- Node10&#45;&gt;Node15 -->
<g id="edge36" class="edge"><title>Node10&#45;&gt;Node15</title>
<path fill="none" stroke="midnightblue" d="M922.396,-169.932C942.848,-159.793 969.311,-146.675 987.574,-137.621"/>
<polygon fill="midnightblue" stroke="midnightblue" points="920.593,-166.919 913.188,-174.497 923.702,-173.191 920.593,-166.919"/>
</g>
<!-- Node23 -->
<g id="node52" class="node"><title>Node23</title>
<a xlink:href="VirtualKeyboard_8cpp.htm" target="_top" xlink:title="VirtualKeyboard.cpp">
<polygon fill="white" stroke="black" points="754,-116.5 754,-137.5 864,-137.5 864,-116.5 754,-116.5"/>
<text text-anchor="middle" x="809" y="-124.5" font-family="Helvetica,sans-Serif" font-size="10.00">VirtualKeyboard.cpp</text>
</a>
</g>
<!-- Node10&#45;&gt;Node23 -->
<g id="edge58" class="edge"><title>Node10&#45;&gt;Node23</title>
<path fill="none" stroke="midnightblue" d="M868.446,-168.541C854.217,-158.597 836.501,-146.218 824.127,-137.571"/>
<polygon fill="midnightblue" stroke="midnightblue" points="866.575,-171.503 876.777,-174.362 870.584,-165.765 866.575,-171.503"/>
</g>
<!-- Node11&#45;&gt;Node6 -->
<g id="edge28" class="edge"><title>Node11&#45;&gt;Node6</title>
<path fill="none" stroke="midnightblue" d="M485.579,-113.945C445.435,-103.55 389.974,-89.1897 352.641,-79.5231"/>
<polygon fill="midnightblue" stroke="midnightblue" points="484.877,-117.378 495.435,-116.497 486.632,-110.602 484.877,-117.378"/>
</g>
<!-- Node11&#45;&gt;Node8 -->
<g id="edge30" class="edge"><title>Node11&#45;&gt;Node8</title>
<path fill="none" stroke="midnightblue" d="M565.101,-111.794C584.468,-101.675 609.425,-88.6338 626.673,-79.6212"/>
<polygon fill="midnightblue" stroke="midnightblue" points="563.343,-108.763 556.101,-116.497 566.585,-114.968 563.343,-108.763"/>
</g>
<!-- Node12 -->
<g id="node24" class="node"><title>Node12</title>
<a xlink:href="GlyphCache_8cpp.htm" target="_top" xlink:title="GlyphCache.cpp">
<polygon fill="white" stroke="black" points="379.5,-58.5 379.5,-79.5 474.5,-79.5 474.5,-58.5 379.5,-58.5"/>
<text text-anchor="middle" x="427" y="-66.5" font-family="Helvetica,sans-Serif" font-size="10.00">GlyphCache.cpp</text>
</a>
</g>
<!-- Node11&#45;&gt;Node12 -->
<g id="edge24" class="edge"><title>Node11&#45;&gt;Node12</title>
<path fill="none" stroke="midnightblue" d="M507.423,-111.794C488.406,-101.675 463.898,-88.6338 446.961,-79.6212"/>
<polygon fill="midnightblue" stroke="midnightblue" points="505.789,-114.889 516.261,-116.497 509.077,-108.709 505.789,-114.889"/>
</g>
<!-- Node13 -->
<g id="node26" class="node"><title>Node13</title>
<a xlink:href="IMEPixmap_8cpp.htm" target="_top" xlink:title="IMEPixmap.cpp">
<polygon fill="white" stroke="black" points="491.5,-58.5 491.5,-79.5 580.5,-79.5 580.5,-58.5 491.5,-58.5"/>
<text text-anchor="middle" x="536" y="-66.5" font-family="Helvetica,sans-Serif" font-size="10.00">IMEPixmap.cpp</text>
</a>
</g>
<!-- Node11&#45;&gt;Node13 -->
<g id="edge26" class="edge"><title>Node11&#45;&gt;Node13</title>
<path fill="none" stroke="midnightblue" d="M536,-106.191C536,-97.1684 536,-86.9941 536,-79.5707"/>
<polygon fill="midnightblue" stroke="midnightblue" points="532.5,-106.362 536,-116.362 539.5,-106.362 532.5,-106.362"/>
</g>
<!-- Node15&#45;&gt;Node7 -->
<g id="edge42" class="edge"><title>Node15&#45;&gt;Node7</title>
<path fill="none" stroke="midnightblue" d="M964.89,-113.228C939.351,-104.721 906.849,-92.9699 879,-80 861.309,-71.761 859.294,-64.7957 841,-58 777.286,-34.3316 699.783,-22.1129 648.342,-16.1444"/>
<polygon fill="midnightblue" stroke="midnightblue" points="964.072,-116.644 974.665,-116.44 966.257,-109.994 964.072,-116.644"/>
</g>
<!-- Node15&#45;&gt;Node9 -->
<g id="edge50" class="edge"><title>Node15&#45;&gt;Node9</title>
<path fill="none" stroke="midnightblue" d="M1098,-116.097C1177.66,-111.32 1497.9,-113.789 1529,-80 1535.62,-72.8053 1535.53,-65.2782 1529,-58 1504.25,-30.413 1262.97,-17.4851 1152.15,-12.9659"/>
<polygon fill="midnightblue" stroke="midnightblue" points="1097.4,-112.632 1087.7,-116.896 1097.94,-119.611 1097.4,-112.632"/>
</g>
<!-- Node16 -->
<g id="node35" class="node"><title>Node16</title>
<a xlink:href="Preferences_8cpp.htm" target="_top" xlink:title="Preferences.cpp">
<polygon fill="white" stroke="black" points="1426,-58.5 1426,-79.5 1520,-79.5 1520,-58.5 1426,-58.5"/>
<text text-anchor="middle" x="1473" y="-66.5" font-family="Helvetica,sans-Serif" font-size="10.00">Preferences.cpp</text>
</a>
</g>
<!-- Node15&#45;&gt;Node16 -->
<g id="edge38" class="edge"><title>Node15&#45;&gt;Node16</title>
<path fill="none" stroke="midnightblue" d="M1097.71,-115.815C1240.25,-99.1115 1278.3,-101.363 1417,-80 1419.94,-79.5475 1422.96,-79.05 1426,-78.5243"/>
<polygon fill="midnightblue" stroke="midnightblue" points="1097.23,-112.347 1087.71,-116.997 1098.06,-119.298 1097.23,-112.347"/>
</g>
<!-- Node17 -->
<g id="node37" class="node"><title>Node17</title>
<a xlink:href="SystemService_8cpp.htm" target="_top" xlink:title="SystemService.cpp">
<polygon fill="white" stroke="black" points="1576,-58.5 1576,-79.5 1682,-79.5 1682,-58.5 1576,-58.5"/>
<text text-anchor="middle" x="1629" y="-66.5" font-family="Helvetica,sans-Serif" font-size="10.00">SystemService.cpp</text>
</a>
</g>
<!-- Node15&#45;&gt;Node17 -->
<g id="edge40" class="edge"><title>Node15&#45;&gt;Node17</title>
<path fill="none" stroke="midnightblue" d="M1097.66,-115.871C1304.36,-95.2657 1358.99,-104.462 1562,-80 1566.45,-79.4642 1571.05,-78.845 1575.67,-78.1791"/>
<polygon fill="midnightblue" stroke="midnightblue" points="1097.3,-112.39 1087.7,-116.875 1098,-119.354 1097.3,-112.39"/>
</g>
<!-- Node18 -->
<g id="node40" class="node"><title>Node18</title>
<a xlink:href="PhoneKeymap_8cpp.htm" target="_top" xlink:title="PhoneKeymap.cpp">
<polygon fill="white" stroke="black" points="887.5,-58.5 887.5,-79.5 992.5,-79.5 992.5,-58.5 887.5,-58.5"/>
<text text-anchor="middle" x="940" y="-66.5" font-family="Helvetica,sans-Serif" font-size="10.00">PhoneKeymap.cpp</text>
</a>
</g>
<!-- Node15&#45;&gt;Node18 -->
<g id="edge44" class="edge"><title>Node15&#45;&gt;Node18</title>
<path fill="none" stroke="midnightblue" d="M988.408,-109.691C976.76,-99.8996 962.571,-87.973 952.575,-79.5707"/>
<polygon fill="midnightblue" stroke="midnightblue" points="986.437,-112.607 996.344,-116.362 990.942,-107.248 986.437,-112.607"/>
</g>
<!-- Node19 -->
<g id="node42" class="node"><title>Node19</title>
<a xlink:href="PreKeymap_8cpp.htm" target="_top" xlink:title="PreKeymap.cpp">
<polygon fill="white" stroke="black" points="1009.5,-58.5 1009.5,-79.5 1100.5,-79.5 1100.5,-58.5 1009.5,-58.5"/>
<text text-anchor="middle" x="1055" y="-66.5" font-family="Helvetica,sans-Serif" font-size="10.00">PreKeymap.cpp</text>
</a>
</g>
<!-- Node15&#45;&gt;Node19 -->
<g id="edge46" class="edge"><title>Node15&#45;&gt;Node19</title>
<path fill="none" stroke="midnightblue" d="M1023.87,-108.25C1031.41,-98.75 1040.28,-87.5651 1046.62,-79.5707"/>
<polygon fill="midnightblue" stroke="midnightblue" points="1020.91,-106.352 1017.44,-116.362 1026.39,-110.702 1020.91,-106.352"/>
</g>
<!-- Node20 -->
<g id="node44" class="node"><title>Node20</title>
<a xlink:href="ShortcutsHandler_8cpp.htm" target="_top" xlink:title="ShortcutsHandler.cpp">
<polygon fill="white" stroke="black" points="714,-58.5 714,-79.5 832,-79.5 832,-58.5 714,-58.5"/>
<text text-anchor="middle" x="773" y="-66.5" font-family="Helvetica,sans-Serif" font-size="10.00">ShortcutsHandler.cpp</text>
</a>
</g>
<!-- Node15&#45;&gt;Node20 -->
<g id="edge48" class="edge"><title>Node15&#45;&gt;Node20</title>
<path fill="none" stroke="midnightblue" d="M956.415,-114.077C914.079,-103.672 855.318,-89.2306 815.818,-79.5231"/>
<polygon fill="midnightblue" stroke="midnightblue" points="955.716,-117.509 966.262,-116.497 957.386,-110.711 955.716,-117.509"/>
</g>
<!-- Node21 -->
<g id="node47" class="node"><title>Node21</title>
<a xlink:href="TabletKeymap_8cpp.htm" target="_top" xlink:title="TabletKeymap.cpp">
<polygon fill="white" stroke="black" points="1118,-58.5 1118,-79.5 1222,-79.5 1222,-58.5 1118,-58.5"/>
<text text-anchor="middle" x="1170" y="-66.5" font-family="Helvetica,sans-Serif" font-size="10.00">TabletKeymap.cpp</text>
</a>
</g>
<!-- Node15&#45;&gt;Node21 -->
<g id="edge52" class="edge"><title>Node15&#45;&gt;Node21</title>
<path fill="none" stroke="midnightblue" d="M1047.84,-113.009C1076.45,-102.702 1114.75,-88.903 1140.79,-79.5231"/>
<polygon fill="midnightblue" stroke="midnightblue" points="1046.38,-109.814 1038.16,-116.497 1048.75,-116.4 1046.38,-109.814"/>
</g>
<!-- Node22 -->
<g id="node49" class="node"><title>Node22</title>
<a xlink:href="VirtualKeyboardPreferences_8cpp.htm" target="_top" xlink:title="VirtualKeyboardPreferences.cpp">
<polygon fill="white" stroke="black" points="1240,-58.5 1240,-79.5 1408,-79.5 1408,-58.5 1240,-58.5"/>
<text text-anchor="middle" x="1324" y="-66.5" font-family="Helvetica,sans-Serif" font-size="10.00">VirtualKeyboardPreferences.cpp</text>
</a>
</g>
<!-- Node15&#45;&gt;Node22 -->
<g id="edge54" class="edge"><title>Node15&#45;&gt;Node22</title>
<path fill="none" stroke="midnightblue" d="M1075.99,-114.665C1132.71,-104.222 1213.13,-89.415 1266.85,-79.5231"/>
<polygon fill="midnightblue" stroke="midnightblue" points="1075.24,-111.244 1066.04,-116.497 1076.51,-118.128 1075.24,-111.244"/>
</g>
<!-- Node24&#45;&gt;Node14 -->
<g id="edge62" class="edge"><title>Node24&#45;&gt;Node14</title>
<path fill="none" stroke="midnightblue" d="M1326,-164.191C1326,-155.168 1326,-144.994 1326,-137.571"/>
<polygon fill="midnightblue" stroke="midnightblue" points="1322.5,-164.362 1326,-174.362 1329.5,-164.362 1322.5,-164.362"/>
</g>
<!-- Node25 -->
<g id="node57" class="node"><title>Node25</title>
<a xlink:href="InputWindowManager_8h.htm" target="_top" xlink:title="InputWindowManager.h">
<polygon fill="white" stroke="black" points="1706,-116.5 1706,-137.5 1834,-137.5 1834,-116.5 1706,-116.5"/>
<text text-anchor="middle" x="1770" y="-124.5" font-family="Helvetica,sans-Serif" font-size="10.00">InputWindowManager.h</text>
</a>
</g>
<!-- Node24&#45;&gt;Node25 -->
<g id="edge64" class="edge"><title>Node24&#45;&gt;Node25</title>
<path fill="none" stroke="midnightblue" d="M1379.48,-178.014C1461.44,-167.307 1617.84,-146.876 1705.81,-135.385"/>
<polygon fill="midnightblue" stroke="midnightblue" points="1378.84,-174.567 1369.38,-179.333 1379.75,-181.508 1378.84,-174.567"/>
</g>
<!-- Node26 -->
<g id="node59" class="node"><title>Node26</title>
<a xlink:href="InputWindowManager_8cpp.htm" target="_top" xlink:title="InputWindowManager.cpp">
<polygon fill="white" stroke="black" points="1700,-58.5 1700,-79.5 1840,-79.5 1840,-58.5 1700,-58.5"/>
<text text-anchor="middle" x="1770" y="-66.5" font-family="Helvetica,sans-Serif" font-size="10.00">InputWindowManager.cpp</text>
</a>
</g>
<!-- Node25&#45;&gt;Node26 -->
<g id="edge66" class="edge"><title>Node25&#45;&gt;Node26</title>
<path fill="none" stroke="midnightblue" d="M1770,-106.191C1770,-97.1684 1770,-86.9941 1770,-79.5707"/>
<polygon fill="midnightblue" stroke="midnightblue" points="1766.5,-106.362 1770,-116.362 1773.5,-106.362 1766.5,-106.362"/>
</g>
<!-- Node27 -->
<g id="node61" class="node"><title>Node27</title>
<a xlink:href="WindowServerLuna_8cpp.htm" target="_top" xlink:title="WindowServerLuna.cpp">
<polygon fill="white" stroke="black" points="1858,-58.5 1858,-79.5 1986,-79.5 1986,-58.5 1858,-58.5"/>
<text text-anchor="middle" x="1922" y="-66.5" font-family="Helvetica,sans-Serif" font-size="10.00">WindowServerLuna.cpp</text>
</a>
</g>
<!-- Node25&#45;&gt;Node27 -->
<g id="edge68" class="edge"><title>Node25&#45;&gt;Node27</title>
<path fill="none" stroke="midnightblue" d="M1807.02,-112.874C1833.99,-102.582 1869.95,-88.862 1894.42,-79.5231"/>
<polygon fill="midnightblue" stroke="midnightblue" points="1805.62,-109.661 1797.53,-116.497 1808.12,-116.202 1805.62,-109.661"/>
</g>
<!-- Node28 -->
<g id="node63" class="node"><title>Node28</title>
<a xlink:href="WindowServerMinimal_8cpp.htm" target="_top" xlink:title="WindowServerMinimal.cpp">
<polygon fill="white" stroke="black" points="2003.5,-58.5 2003.5,-79.5 2144.5,-79.5 2144.5,-58.5 2003.5,-58.5"/>
<text text-anchor="middle" x="2074" y="-66.5" font-family="Helvetica,sans-Serif" font-size="10.00">WindowServerMinimal.cpp</text>
</a>
</g>
<!-- Node25&#45;&gt;Node28 -->
<g id="edge70" class="edge"><title>Node25&#45;&gt;Node28</title>
<path fill="none" stroke="midnightblue" d="M1834.99,-114.6C1889.71,-104.161 1967.1,-89.3945 2018.84,-79.5231"/>
<polygon fill="midnightblue" stroke="midnightblue" points="1834.22,-111.184 1825.05,-116.497 1835.53,-118.06 1834.22,-111.184"/>
</g>
<!-- Node29&#45;&gt;Node14 -->
<g id="edge74" class="edge"><title>Node29&#45;&gt;Node14</title>
<path fill="none" stroke="midnightblue" d="M1217.38,-170.751C1242.81,-160.509 1276.54,-146.921 1299.63,-137.621"/>
<polygon fill="midnightblue" stroke="midnightblue" points="1216.05,-167.514 1208.08,-174.497 1218.66,-174.007 1216.05,-167.514"/>
</g>
<!-- Node30 -->
<g id="node68" class="node"><title>Node30</title>
<a xlink:href="SysmgrIMEDataInterface_8cpp.htm" target="_top" xlink:title="SysmgrIMEDataInterface.cpp">
<polygon fill="white" stroke="black" points="1104.5,-116.5 1104.5,-137.5 1259.5,-137.5 1259.5,-116.5 1104.5,-116.5"/>
<text text-anchor="middle" x="1182" y="-124.5" font-family="Helvetica,sans-Serif" font-size="10.00">SysmgrIMEDataInterface.cpp</text>
</a>
</g>
<!-- Node29&#45;&gt;Node30 -->
<g id="edge76" class="edge"><title>Node29&#45;&gt;Node30</title>
<path fill="none" stroke="midnightblue" d="M1182,-164.191C1182,-155.168 1182,-144.994 1182,-137.571"/>
<polygon fill="midnightblue" stroke="midnightblue" points="1178.5,-164.362 1182,-174.362 1185.5,-164.362 1178.5,-164.362"/>
</g>
<!-- Node31&#45;&gt;Node25 -->
<g id="edge82" class="edge"><title>Node31&#45;&gt;Node25</title>
<path fill="none" stroke="midnightblue" d="M1770,-164.191C1770,-155.168 1770,-144.994 1770,-137.571"/>
<polygon fill="midnightblue" stroke="midnightblue" points="1766.5,-164.362 1770,-174.362 1773.5,-164.362 1766.5,-164.362"/>
</g>
<!-- Node32 -->
<g id="node72" class="node"><title>Node32</title>
<a xlink:href="IMEView_8cpp.htm" target="_top" xlink:title="IMEView.cpp">
<polygon fill="white" stroke="black" points="1851.5,-116.5 1851.5,-137.5 1928.5,-137.5 1928.5,-116.5 1851.5,-116.5"/>
<text text-anchor="middle" x="1890" y="-124.5" font-family="Helvetica,sans-Serif" font-size="10.00">IMEView.cpp</text>
</a>
</g>
<!-- Node31&#45;&gt;Node32 -->
<g id="edge80" class="edge"><title>Node31&#45;&gt;Node32</title>
<path fill="none" stroke="midnightblue" d="M1800.89,-170.069C1821.91,-159.912 1849.21,-146.716 1868.03,-137.621"/>
<polygon fill="midnightblue" stroke="midnightblue" points="1799.21,-166.994 1791.73,-174.497 1802.26,-173.296 1799.21,-166.994"/>
</g>
<!-- Node33&#45;&gt;Node6 -->
<g id="edge86" class="edge"><title>Node33&#45;&gt;Node6</title>
<path fill="none" stroke="midnightblue" d="M596.191,-117.056C537.584,-107.82 448.355,-93.4993 371,-80 368.229,-79.5164 365.386,-79.0124 362.517,-78.4977"/>
<polygon fill="midnightblue" stroke="midnightblue" points="595.985,-120.567 606.407,-118.664 597.073,-113.652 595.985,-120.567"/>
</g>
<!-- Node33&#45;&gt;Node8 -->
<g id="edge90" class="edge"><title>Node33&#45;&gt;Node8</title>
<path fill="none" stroke="midnightblue" d="M655.402,-106.488C653.364,-97.3924 651.051,-87.0756 649.369,-79.5707"/>
<polygon fill="midnightblue" stroke="midnightblue" points="652.013,-107.37 657.616,-116.362 658.844,-105.838 652.013,-107.37"/>
</g>
<!-- Node33&#45;&gt;Node20 -->
<g id="edge88" class="edge"><title>Node33&#45;&gt;Node20</title>
<path fill="none" stroke="midnightblue" d="M689.625,-111.794C709.341,-101.675 734.748,-88.6338 752.307,-79.6212"/>
<polygon fill="midnightblue" stroke="midnightblue" points="687.762,-108.816 680.463,-116.497 690.958,-115.044 687.762,-108.816"/>
</g>
</g>
</svg>
