<?xml version="1.0" encoding="UTF-8" standalone="no"?>
<!DOCTYPE svg PUBLIC "-//W3C//DTD SVG 1.1//EN"
 "http://www.w3.org/Graphics/SVG/1.1/DTD/svg11.dtd">
<!-- Generated by graphviz version 2.26.3 (20100126.1600)
 -->
<!-- Title: G Pages: 1 -->
<svg width="793pt" height="262pt"
 viewBox="0.00 0.00 793.00 262.00" xmlns="http://www.w3.org/2000/svg" xmlns:xlink="http://www.w3.org/1999/xlink">
<g id="graph1" class="graph" transform="scale(1 1) rotate(0) translate(4 258)">
<title>G</title>
<polygon fill="white" stroke="white" points="-4,5 -4,-258 790,-258 790,5 -4,5"/>
<!-- Node1 -->
<g id="node1" class="node"><title>Node1</title>
<polygon fill="#bfbfbf" stroke="black" points="325,-232.5 325,-253.5 423,-253.5 423,-232.5 325,-232.5"/>
<text text-anchor="middle" x="374" y="-240.5" font-family="Helvetica,sans-Serif" font-size="10.00">IMEManager.cpp</text>
</g>
<!-- Node2 -->
<g id="node3" class="node"><title>Node2</title>
<a xlink:href="IMEManager_8h.htm" target="_top" xlink:title="IMEManager.h">
<polygon fill="white" stroke="black" points="152,-174.5 152,-195.5 238,-195.5 238,-174.5 152,-174.5"/>
<text text-anchor="middle" x="195" y="-182.5" font-family="Helvetica,sans-Serif" font-size="10.00">IMEManager.h</text>
</a>
</g>
<!-- Node1&#45;&gt;Node2 -->
<g id="edge2" class="edge"><title>Node1&#45;&gt;Node2</title>
<path fill="none" stroke="midnightblue" d="M341.584,-232.497C312.276,-223 268.952,-208.962 236.999,-198.609"/>
<polygon fill="midnightblue" stroke="midnightblue" points="238.068,-195.276 227.476,-195.523 235.911,-201.935 238.068,-195.276"/>
</g>
<!-- Node13 -->
<g id="node25" class="node"><title>Node13</title>
<a xlink:href="Logging_8h.htm" target="_top" xlink:title="Logging.h">
<polygon fill="white" stroke="black" points="598.5,-174.5 598.5,-195.5 661.5,-195.5 661.5,-174.5 598.5,-174.5"/>
<text text-anchor="middle" x="630" y="-182.5" font-family="Helvetica,sans-Serif" font-size="10.00">Logging.h</text>
</a>
</g>
<!-- Node1&#45;&gt;Node13 -->
<g id="edge24" class="edge"><title>Node1&#45;&gt;Node13</title>
<path fill="none" stroke="midnightblue" d="M420.36,-232.497C468.182,-221.662 542.097,-204.915 588.181,-194.475"/>
<polygon fill="midnightblue" stroke="midnightblue" points="589.157,-197.842 598.136,-192.219 587.61,-191.015 589.157,-197.842"/>
</g>
<!-- Node18 -->
<g id="node35" class="node"><title>Node18</title>
<a xlink:href="SysmgrIMEDataInterface_8h.htm" target="_top" xlink:title="SysmgrIMEDataInterface.h">
<polygon fill="white" stroke="black" points="371.5,-174.5 371.5,-195.5 514.5,-195.5 514.5,-174.5 371.5,-174.5"/>
<text text-anchor="middle" x="443" y="-182.5" font-family="Helvetica,sans-Serif" font-size="10.00">SysmgrIMEDataInterface.h</text>
</a>
</g>
<!-- Node1&#45;&gt;Node18 -->
<g id="edge34" class="edge"><title>Node1&#45;&gt;Node18</title>
<path fill="none" stroke="midnightblue" d="M386.656,-232.362C396.674,-223.941 410.867,-212.011 422.501,-202.231"/>
<polygon fill="midnightblue" stroke="midnightblue" points="425.022,-204.684 430.425,-195.571 420.518,-199.326 425.022,-204.684"/>
</g>
<!-- Node21 -->
<g id="node44" class="node"><title>Node21</title>
<a xlink:href="VirtualKeyboard_8h.htm" target="_top" xlink:title="VirtualKeyboard.h">
<polygon fill="white" stroke="black" points="255.5,-174.5 255.5,-195.5 354.5,-195.5 354.5,-174.5 255.5,-174.5"/>
<text text-anchor="middle" x="305" y="-182.5" font-family="Helvetica,sans-Serif" font-size="10.00">VirtualKeyboard.h</text>
</a>
</g>
<!-- Node1&#45;&gt;Node21 -->
<g id="edge46" class="edge"><title>Node1&#45;&gt;Node21</title>
<path fill="none" stroke="midnightblue" d="M361.344,-232.362C351.326,-223.941 337.133,-212.011 325.499,-202.231"/>
<polygon fill="midnightblue" stroke="midnightblue" points="327.482,-199.326 317.575,-195.571 322.978,-204.684 327.482,-199.326"/>
</g>
<!-- Node3 -->
<g id="node5" class="node"><title>Node3</title>
<polygon fill="white" stroke="#bfbfbf" points="116.5,-116.5 116.5,-137.5 185.5,-137.5 185.5,-116.5 116.5,-116.5"/>
<text text-anchor="middle" x="151" y="-124.5" font-family="Helvetica,sans-Serif" font-size="10.00">QStringList</text>
</g>
<!-- Node2&#45;&gt;Node3 -->
<g id="edge4" class="edge"><title>Node2&#45;&gt;Node3</title>
<path fill="none" stroke="midnightblue" d="M186.93,-174.362C180.851,-166.35 172.363,-155.161 165.163,-145.67"/>
<polygon fill="midnightblue" stroke="midnightblue" points="167.851,-143.422 159.019,-137.571 162.275,-147.653 167.851,-143.422"/>
</g>
<!-- Node4 -->
<g id="node7" class="node"><title>Node4</title>
<a xlink:href="IMEDataInterface_8h.htm" target="_top" xlink:title="IMEDataInterface.h">
<polygon fill="white" stroke="black" points="203,-116.5 203,-137.5 311,-137.5 311,-116.5 203,-116.5"/>
<text text-anchor="middle" x="257" y="-124.5" font-family="Helvetica,sans-Serif" font-size="10.00">IMEDataInterface.h</text>
</a>
</g>
<!-- Node2&#45;&gt;Node4 -->
<g id="edge6" class="edge"><title>Node2&#45;&gt;Node4</title>
<path fill="none" stroke="midnightblue" d="M206.372,-174.362C215.286,-166.023 227.879,-154.242 238.276,-144.516"/>
<polygon fill="midnightblue" stroke="midnightblue" points="240.789,-146.958 245.7,-137.571 236.007,-141.846 240.789,-146.958"/>
</g>
<!-- Node5 -->
<g id="node9" class="node"><title>Node5</title>
<a xlink:href="IMEData_8h.htm" target="_top" xlink:title="IMEData.h">
<polygon fill="white" stroke="black" points="224,-58.5 224,-79.5 290,-79.5 290,-58.5 224,-58.5"/>
<text text-anchor="middle" x="257" y="-66.5" font-family="Helvetica,sans-Serif" font-size="10.00">IMEData.h</text>
</a>
</g>
<!-- Node4&#45;&gt;Node5 -->
<g id="edge8" class="edge"><title>Node4&#45;&gt;Node5</title>
<path fill="none" stroke="midnightblue" d="M257,-116.362C257,-108.922 257,-98.7427 257,-89.7276"/>
<polygon fill="midnightblue" stroke="midnightblue" points="260.5,-89.5706 257,-79.5707 253.5,-89.5707 260.5,-89.5706"/>
</g>
<!-- Node6 -->
<g id="node11" class="node"><title>Node6</title>
<polygon fill="white" stroke="#bfbfbf" points="323.5,-0.5 323.5,-21.5 370.5,-21.5 370.5,-0.5 323.5,-0.5"/>
<text text-anchor="middle" x="347" y="-8.5" font-family="Helvetica,sans-Serif" font-size="10.00">QRect</text>
</g>
<!-- Node5&#45;&gt;Node6 -->
<g id="edge10" class="edge"><title>Node5&#45;&gt;Node6</title>
<path fill="none" stroke="midnightblue" d="M273.507,-58.3619C287.082,-49.6138 306.533,-37.0786 322.015,-27.1015"/>
<polygon fill="midnightblue" stroke="midnightblue" points="324.088,-29.9297 330.597,-21.5707 320.296,-24.0457 324.088,-29.9297"/>
</g>
<!-- Node7 -->
<g id="node13" class="node"><title>Node7</title>
<polygon fill="white" stroke="#bfbfbf" points="-0.5,-0.5 -0.5,-21.5 44.5,-21.5 44.5,-0.5 -0.5,-0.5"/>
<text text-anchor="middle" x="22" y="-8.5" font-family="Helvetica,sans-Serif" font-size="10.00">QSize</text>
</g>
<!-- Node5&#45;&gt;Node7 -->
<g id="edge12" class="edge"><title>Node5&#45;&gt;Node7</title>
<path fill="none" stroke="midnightblue" d="M223.842,-62.5786C185.21,-54.8322 119.326,-40.8028 54.5521,-22.2458"/>
<polygon fill="midnightblue" stroke="midnightblue" points="55.1687,-18.7803 44.5893,-19.3524 53.2163,-25.5026 55.1687,-18.7803"/>
</g>
<!-- Node8 -->
<g id="node15" class="node"><title>Node8</title>
<polygon fill="white" stroke="#bfbfbf" points="463.5,-0.5 463.5,-21.5 544.5,-21.5 544.5,-0.5 463.5,-0.5"/>
<text text-anchor="middle" x="504" y="-8.5" font-family="Helvetica,sans-Serif" font-size="10.00">QTouchEvent</text>
</g>
<!-- Node5&#45;&gt;Node8 -->
<g id="edge14" class="edge"><title>Node5&#45;&gt;Node8</title>
<path fill="none" stroke="midnightblue" d="M290.055,-61.238C331.992,-51.3905 404.73,-34.3103 453.604,-22.8339"/>
<polygon fill="midnightblue" stroke="midnightblue" points="454.412,-26.2393 463.348,-20.5459 452.812,-19.4247 454.412,-26.2393"/>
</g>
<!-- Node9 -->
<g id="node17" class="node"><title>Node9</title>
<polygon fill="white" stroke="#bfbfbf" points="387.5,-0.5 387.5,-21.5 446.5,-21.5 446.5,-0.5 387.5,-0.5"/>
<text text-anchor="middle" x="417" y="-8.5" font-family="Helvetica,sans-Serif" font-size="10.00">QPainter</text>
</g>
<!-- Node5&#45;&gt;Node9 -->
<g id="edge16" class="edge"><title>Node5&#45;&gt;Node9</title>
<path fill="none" stroke="midnightblue" d="M285.975,-58.4966C311.833,-49.1229 349.899,-35.3242 378.346,-25.0122"/>
<polygon fill="midnightblue" stroke="midnightblue" points="379.762,-28.2216 387.971,-21.5231 377.377,-21.6406 379.762,-28.2216"/>
</g>
<!-- Node10 -->
<g id="node19" class="node"><title>Node10</title>
<polygon fill="white" stroke="#bfbfbf" points="61.5,-0.5 61.5,-21.5 120.5,-21.5 120.5,-0.5 61.5,-0.5"/>
<text text-anchor="middle" x="91" y="-8.5" font-family="Helvetica,sans-Serif" font-size="10.00">QRegion</text>
</g>
<!-- Node5&#45;&gt;Node10 -->
<g id="edge18" class="edge"><title>Node5&#45;&gt;Node10</title>
<path fill="none" stroke="midnightblue" d="M226.939,-58.4966C199.825,-49.0233 159.777,-35.0305 130.167,-24.6847"/>
<polygon fill="midnightblue" stroke="midnightblue" points="131.153,-21.3221 120.559,-21.3277 128.845,-27.9303 131.153,-21.3221"/>
</g>
<!-- Node11 -->
<g id="node21" class="node"><title>Node11</title>
<polygon fill="white" stroke="#bfbfbf" points="137.5,-0.5 137.5,-21.5 190.5,-21.5 190.5,-0.5 137.5,-0.5"/>
<text text-anchor="middle" x="164" y="-8.5" font-family="Helvetica,sans-Serif" font-size="10.00">QString</text>
</g>
<!-- Node5&#45;&gt;Node11 -->
<g id="edge20" class="edge"><title>Node5&#45;&gt;Node11</title>
<path fill="none" stroke="midnightblue" d="M239.942,-58.3619C225.915,-49.6138 205.816,-37.0786 189.818,-27.1015"/>
<polygon fill="midnightblue" stroke="midnightblue" points="191.287,-23.8927 180.949,-21.5707 187.582,-29.8323 191.287,-23.8927"/>
</g>
<!-- Node12 -->
<g id="node23" class="node"><title>Node12</title>
<polygon fill="white" stroke="#bfbfbf" points="208,-0.5 208,-21.5 306,-21.5 306,-0.5 208,-0.5"/>
<text text-anchor="middle" x="257" y="-8.5" font-family="Helvetica,sans-Serif" font-size="10.00">palmimedefines.h</text>
</g>
<!-- Node5&#45;&gt;Node12 -->
<g id="edge22" class="edge"><title>Node5&#45;&gt;Node12</title>
<path fill="none" stroke="midnightblue" d="M257,-58.3619C257,-50.9219 257,-40.7427 257,-31.7276"/>
<polygon fill="midnightblue" stroke="midnightblue" points="260.5,-31.5706 257,-21.5707 253.5,-31.5707 260.5,-31.5706"/>
</g>
<!-- Node14 -->
<g id="node27" class="node"><title>Node14</title>
<a xlink:href="Common_8h.htm" target="_top" xlink:title="Common.h">
<polygon fill="white" stroke="black" points="596.5,-116.5 596.5,-137.5 663.5,-137.5 663.5,-116.5 596.5,-116.5"/>
<text text-anchor="middle" x="630" y="-124.5" font-family="Helvetica,sans-Serif" font-size="10.00">Common.h</text>
</a>
</g>
<!-- Node13&#45;&gt;Node14 -->
<g id="edge26" class="edge"><title>Node13&#45;&gt;Node14</title>
<path fill="none" stroke="midnightblue" d="M630,-174.362C630,-166.922 630,-156.743 630,-147.728"/>
<polygon fill="midnightblue" stroke="midnightblue" points="633.5,-147.571 630,-137.571 626.5,-147.571 633.5,-147.571"/>
</g>
<!-- Node15 -->
<g id="node29" class="node"><title>Node15</title>
<polygon fill="white" stroke="#bfbfbf" points="680.5,-116.5 680.5,-137.5 727.5,-137.5 727.5,-116.5 680.5,-116.5"/>
<text text-anchor="middle" x="704" y="-124.5" font-family="Helvetica,sans-Serif" font-size="10.00">stdio.h</text>
</g>
<!-- Node13&#45;&gt;Node15 -->
<g id="edge28" class="edge"><title>Node13&#45;&gt;Node15</title>
<path fill="none" stroke="midnightblue" d="M643.573,-174.362C654.421,-165.859 669.834,-153.779 682.379,-143.947"/>
<polygon fill="midnightblue" stroke="midnightblue" points="684.802,-146.494 690.513,-137.571 680.484,-140.985 684.802,-146.494"/>
</g>
<!-- Node16 -->
<g id="node31" class="node"><title>Node16</title>
<polygon fill="white" stroke="#bfbfbf" points="744.5,-116.5 744.5,-137.5 785.5,-137.5 785.5,-116.5 744.5,-116.5"/>
<text text-anchor="middle" x="765" y="-124.5" font-family="Helvetica,sans-Serif" font-size="10.00">glib.h</text>
</g>
<!-- Node13&#45;&gt;Node16 -->
<g id="edge30" class="edge"><title>Node13&#45;&gt;Node16</title>
<path fill="none" stroke="midnightblue" d="M654.447,-174.497C677.02,-164.799 710.616,-150.365 734.845,-139.956"/>
<polygon fill="midnightblue" stroke="midnightblue" points="736.466,-143.068 744.272,-135.905 733.703,-136.637 736.466,-143.068"/>
</g>
<!-- Node17 -->
<g id="node33" class="node"><title>Node17</title>
<polygon fill="white" stroke="#bfbfbf" points="508.5,-116.5 508.5,-137.5 579.5,-137.5 579.5,-116.5 508.5,-116.5"/>
<text text-anchor="middle" x="544" y="-124.5" font-family="Helvetica,sans-Serif" font-size="10.00">PmLogLib.h</text>
</g>
<!-- Node13&#45;&gt;Node17 -->
<g id="edge32" class="edge"><title>Node13&#45;&gt;Node17</title>
<path fill="none" stroke="midnightblue" d="M614.226,-174.362C601.376,-165.696 583.015,-153.313 568.29,-143.382"/>
<polygon fill="midnightblue" stroke="midnightblue" points="569.921,-140.26 559.674,-137.571 566.007,-146.064 569.921,-140.26"/>
</g>
<!-- Node18&#45;&gt;Node4 -->
<g id="edge36" class="edge"><title>Node18&#45;&gt;Node4</title>
<path fill="none" stroke="midnightblue" d="M409.317,-174.497C378.863,-165 333.843,-150.962 300.642,-140.609"/>
<polygon fill="midnightblue" stroke="midnightblue" points="301.335,-137.159 290.746,-137.523 299.251,-143.841 301.335,-137.159"/>
</g>
<!-- Node19 -->
<g id="node38" class="node"><title>Node19</title>
<a xlink:href="InputMethod_8h.htm" target="_top" xlink:title="InputMethod.h">
<polygon fill="white" stroke="black" points="407,-58.5 407,-79.5 491,-79.5 491,-58.5 407,-58.5"/>
<text text-anchor="middle" x="449" y="-66.5" font-family="Helvetica,sans-Serif" font-size="10.00">InputMethod.h</text>
</a>
</g>
<!-- Node18&#45;&gt;Node19 -->
<g id="edge38" class="edge"><title>Node18&#45;&gt;Node19</title>
<path fill="none" stroke="midnightblue" d="M448.779,-174.164C453.39,-164.868 459.48,-150.959 462,-138 465.19,-121.599 461.237,-102.982 456.876,-89.2219"/>
<polygon fill="midnightblue" stroke="midnightblue" points="460.175,-88.0508 453.573,-79.764 453.566,-90.3588 460.175,-88.0508"/>
</g>
<!-- Node20 -->
<g id="node42" class="node"><title>Node20</title>
<polygon fill="white" stroke="#bfbfbf" points="367,-116.5 367,-137.5 453,-137.5 453,-116.5 367,-116.5"/>
<text text-anchor="middle" x="410" y="-124.5" font-family="Helvetica,sans-Serif" font-size="10.00">qnamespace.h</text>
</g>
<!-- Node18&#45;&gt;Node20 -->
<g id="edge44" class="edge"><title>Node18&#45;&gt;Node20</title>
<path fill="none" stroke="midnightblue" d="M436.947,-174.362C432.528,-166.595 426.41,-155.843 421.121,-146.546"/>
<polygon fill="midnightblue" stroke="midnightblue" points="424.002,-144.531 416.014,-137.571 417.918,-147.993 424.002,-144.531"/>
</g>
<!-- Node19&#45;&gt;Node8 -->
<g id="edge40" class="edge"><title>Node19&#45;&gt;Node8</title>
<path fill="none" stroke="midnightblue" d="M459.088,-58.3619C466.841,-50.1861 477.73,-38.7025 486.845,-29.0907"/>
<polygon fill="midnightblue" stroke="midnightblue" points="489.635,-31.2352 493.976,-21.5707 484.555,-26.4186 489.635,-31.2352"/>
</g>
<!-- Node19&#45;&gt;Node9 -->
<g id="edge42" class="edge"><title>Node19&#45;&gt;Node9</title>
<path fill="none" stroke="midnightblue" d="M443.131,-58.3619C438.845,-50.5949 432.913,-39.8426 427.784,-30.5458"/>
<polygon fill="midnightblue" stroke="midnightblue" points="430.727,-28.6357 422.832,-21.5707 424.598,-32.0172 430.727,-28.6357"/>
</g>
<!-- Node21&#45;&gt;Node4 -->
<g id="edge48" class="edge"><title>Node21&#45;&gt;Node4</title>
<path fill="none" stroke="midnightblue" d="M296.196,-174.362C289.498,-166.268 280.116,-154.932 272.211,-145.38"/>
<polygon fill="midnightblue" stroke="midnightblue" points="274.82,-143.043 265.748,-137.571 269.427,-147.506 274.82,-143.043"/>
</g>
<!-- Node21&#45;&gt;Node19 -->
<g id="edge50" class="edge"><title>Node21&#45;&gt;Node19</title>
<path fill="none" stroke="midnightblue" d="M311.017,-174.489C319.806,-159.867 337.371,-133.244 358,-116 374,-102.625 394.439,-91.6403 411.892,-83.6632"/>
<polygon fill="midnightblue" stroke="midnightblue" points="413.495,-86.7815 421.234,-79.5448 410.672,-80.3763 413.495,-86.7815"/>
</g>
</g>
</svg>
