<?xml version="1.0" encoding="UTF-8" standalone="no"?>
<!DOCTYPE svg PUBLIC "-//W3C//DTD SVG 1.1//EN"
 "http://www.w3.org/Graphics/SVG/1.1/DTD/svg11.dtd">
<!-- Generated by graphviz version 2.26.3 (20100126.1600)
 -->
<!-- Title: G Pages: 1 -->
<svg width="1746pt" height="320pt"
 viewBox="0.00 0.00 1746.00 320.00" xmlns="http://www.w3.org/2000/svg" xmlns:xlink="http://www.w3.org/1999/xlink">
<g id="graph1" class="graph" transform="scale(1 1) rotate(0) translate(4 316)">
<title>G</title>
<polygon fill="white" stroke="white" points="-4,5 -4,-316 1743,-316 1743,5 -4,5"/>
<!-- Node1 -->
<g id="node1" class="node"><title>Node1</title>
<polygon fill="#bfbfbf" stroke="black" points="424.5,-290.5 424.5,-311.5 513.5,-311.5 513.5,-290.5 424.5,-290.5"/>
<text text-anchor="middle" x="469" y="-298.5" font-family="Helvetica,sans-Serif" font-size="10.00">IMEPixmap.cpp</text>
</g>
<!-- Node2 -->
<g id="node3" class="node"><title>Node2</title>
<a xlink:href="IMEPixmap_8h.htm" target="_top" xlink:title="IMEPixmap.h">
<polygon fill="white" stroke="black" points="152,-174.5 152,-195.5 230,-195.5 230,-174.5 152,-174.5"/>
<text text-anchor="middle" x="191" y="-182.5" font-family="Helvetica,sans-Serif" font-size="10.00">IMEPixmap.h</text>
</a>
</g>
<!-- Node1&#45;&gt;Node2 -->
<g id="edge2" class="edge"><title>Node1&#45;&gt;Node2</title>
<path fill="none" stroke="midnightblue" d="M443.345,-290.295C393.154,-269.352 281.956,-222.953 225.431,-199.367"/>
<polygon fill="midnightblue" stroke="midnightblue" points="226.768,-196.133 216.192,-195.512 224.073,-202.593 226.768,-196.133"/>
</g>
<!-- Node9 -->
<g id="node17" class="node"><title>Node9</title>
<a xlink:href="Settings_8h.htm" target="_top" xlink:title="Settings.h">
<polygon fill="white" stroke="black" points="399.5,-174.5 399.5,-195.5 462.5,-195.5 462.5,-174.5 399.5,-174.5"/>
<text text-anchor="middle" x="431" y="-182.5" font-family="Helvetica,sans-Serif" font-size="10.00">Settings.h</text>
</a>
</g>
<!-- Node1&#45;&gt;Node9 -->
<g id="edge16" class="edge"><title>Node1&#45;&gt;Node9</title>
<path fill="none" stroke="midnightblue" d="M465.493,-290.295C459.187,-271.045 445.836,-230.289 437.718,-205.509"/>
<polygon fill="midnightblue" stroke="midnightblue" points="440.938,-204.093 434.498,-195.679 434.285,-206.272 440.938,-204.093"/>
</g>
<!-- Node13 -->
<g id="node28" class="node"><title>Node13</title>
<a xlink:href="Logging_8h.htm" target="_top" xlink:title="Logging.h">
<polygon fill="white" stroke="black" points="479.5,-174.5 479.5,-195.5 542.5,-195.5 542.5,-174.5 479.5,-174.5"/>
<text text-anchor="middle" x="511" y="-182.5" font-family="Helvetica,sans-Serif" font-size="10.00">Logging.h</text>
</a>
</g>
<!-- Node1&#45;&gt;Node13 -->
<g id="edge30" class="edge"><title>Node1&#45;&gt;Node13</title>
<path fill="none" stroke="midnightblue" d="M471.351,-290.044C474.458,-276.264 480.434,-251.987 488,-232 491.514,-222.718 496.217,-212.799 500.455,-204.476"/>
<polygon fill="midnightblue" stroke="midnightblue" points="503.579,-206.057 505.117,-195.574 497.377,-202.809 503.579,-206.057"/>
</g>
<!-- Node16 -->
<g id="node36" class="node"><title>Node16</title>
<a xlink:href="Utils_8h.htm" target="_top" xlink:title="Utils.h">
<polygon fill="white" stroke="black" points="778.5,-174.5 778.5,-195.5 823.5,-195.5 823.5,-174.5 778.5,-174.5"/>
<text text-anchor="middle" x="801" y="-182.5" font-family="Helvetica,sans-Serif" font-size="10.00">Utils.h</text>
</a>
</g>
<!-- Node1&#45;&gt;Node16 -->
<g id="edge40" class="edge"><title>Node1&#45;&gt;Node16</title>
<path fill="none" stroke="midnightblue" d="M499.343,-290.398C561.793,-268.579 704.214,-218.817 768.477,-196.363"/>
<polygon fill="midnightblue" stroke="midnightblue" points="769.81,-199.605 778.096,-193.003 767.501,-192.997 769.81,-199.605"/>
</g>
<!-- Node24 -->
<g id="node56" class="node"><title>Node24</title>
<a xlink:href="SingletonTimer_8h.htm" target="_top" xlink:title="SingletonTimer.h">
<polygon fill="white" stroke="black" points="248,-174.5 248,-195.5 344,-195.5 344,-174.5 248,-174.5"/>
<text text-anchor="middle" x="296" y="-182.5" font-family="Helvetica,sans-Serif" font-size="10.00">SingletonTimer.h</text>
</a>
</g>
<!-- Node1&#45;&gt;Node24 -->
<g id="edge64" class="edge"><title>Node1&#45;&gt;Node24</title>
<path fill="none" stroke="midnightblue" d="M453.035,-290.295C422.652,-269.923 356.347,-225.464 320.378,-201.346"/>
<polygon fill="midnightblue" stroke="midnightblue" points="322.182,-198.341 311.927,-195.679 318.283,-204.155 322.182,-198.341"/>
</g>
<!-- Node25 -->
<g id="node61" class="node"><title>Node25</title>
<a xlink:href="GlyphCache_8h.htm" target="_top" xlink:title="GlyphCache.h">
<polygon fill="white" stroke="black" points="496.5,-232.5 496.5,-253.5 579.5,-253.5 579.5,-232.5 496.5,-232.5"/>
<text text-anchor="middle" x="538" y="-240.5" font-family="Helvetica,sans-Serif" font-size="10.00">GlyphCache.h</text>
</a>
</g>
<!-- Node1&#45;&gt;Node25 -->
<g id="edge72" class="edge"><title>Node1&#45;&gt;Node25</title>
<path fill="none" stroke="midnightblue" d="M481.656,-290.362C491.674,-281.941 505.867,-270.011 517.501,-260.231"/>
<polygon fill="midnightblue" stroke="midnightblue" points="520.022,-262.684 525.425,-253.571 515.518,-257.326 520.022,-262.684"/>
</g>
<!-- Node33 -->
<g id="node80" class="node"><title>Node33</title>
<polygon fill="white" stroke="#bfbfbf" points="1417.5,-0.5 1417.5,-21.5 1476.5,-21.5 1476.5,-0.5 1417.5,-0.5"/>
<text text-anchor="middle" x="1447" y="-8.5" font-family="Helvetica,sans-Serif" font-size="10.00">QPainter</text>
</g>
<!-- Node1&#45;&gt;Node33 -->
<g id="edge108" class="edge"><title>Node1&#45;&gt;Node33</title>
<path fill="none" stroke="midnightblue" d="M513.61,-300.471C705.131,-297.621 1448,-280.418 1448,-185 1448,-185 1448,-185 1448,-127 1448,-93.5965 1447.58,-54.7844 1447.28,-31.5935"/>
<polygon fill="midnightblue" stroke="midnightblue" points="1450.78,-31.5086 1447.15,-21.5558 1443.78,-31.6013 1450.78,-31.5086"/>
</g>
<!-- Node3 -->
<g id="node5" class="node"><title>Node3</title>
<polygon fill="white" stroke="#bfbfbf" points="53.5,-116.5 53.5,-137.5 118.5,-137.5 118.5,-116.5 53.5,-116.5"/>
<text text-anchor="middle" x="86" y="-124.5" font-family="Helvetica,sans-Serif" font-size="10.00">qpixmap.h</text>
</g>
<!-- Node2&#45;&gt;Node3 -->
<g id="edge4" class="edge"><title>Node2&#45;&gt;Node3</title>
<path fill="none" stroke="midnightblue" d="M171.741,-174.362C155.534,-165.409 132.147,-152.491 113.891,-142.406"/>
<polygon fill="midnightblue" stroke="midnightblue" points="115.582,-139.342 105.137,-137.571 112.198,-145.47 115.582,-139.342"/>
</g>
<!-- Node4 -->
<g id="node7" class="node"><title>Node4</title>
<polygon fill="white" stroke="#bfbfbf" points="-0.5,-116.5 -0.5,-137.5 36.5,-137.5 36.5,-116.5 -0.5,-116.5"/>
<text text-anchor="middle" x="18" y="-124.5" font-family="Helvetica,sans-Serif" font-size="10.00">map</text>
</g>
<!-- Node2&#45;&gt;Node4 -->
<g id="edge6" class="edge"><title>Node2&#45;&gt;Node4</title>
<path fill="none" stroke="midnightblue" d="M155.642,-174.436C128.006,-165.998 88.4574,-153.528 46.1598,-138.269"/>
<polygon fill="midnightblue" stroke="midnightblue" points="47.1136,-134.892 36.5196,-134.76 44.719,-141.469 47.1136,-134.892"/>
</g>
<!-- Node5 -->
<g id="node9" class="node"><title>Node5</title>
<polygon fill="white" stroke="#bfbfbf" points="252,-116.5 252,-137.5 298,-137.5 298,-116.5 252,-116.5"/>
<text text-anchor="middle" x="275" y="-124.5" font-family="Helvetica,sans-Serif" font-size="10.00">vector</text>
</g>
<!-- Node2&#45;&gt;Node5 -->
<g id="edge8" class="edge"><title>Node2&#45;&gt;Node5</title>
<path fill="none" stroke="midnightblue" d="M206.407,-174.362C218.958,-165.696 236.892,-153.313 251.275,-143.382"/>
<polygon fill="midnightblue" stroke="midnightblue" points="253.45,-146.133 259.691,-137.571 249.473,-140.372 253.45,-146.133"/>
</g>
<!-- Node6 -->
<g id="node11" class="node"><title>Node6</title>
<polygon fill="white" stroke="#bfbfbf" points="203.5,-116.5 203.5,-137.5 234.5,-137.5 234.5,-116.5 203.5,-116.5"/>
<text text-anchor="middle" x="219" y="-124.5" font-family="Helvetica,sans-Serif" font-size="10.00">set</text>
</g>
<!-- Node2&#45;&gt;Node6 -->
<g id="edge10" class="edge"><title>Node2&#45;&gt;Node6</title>
<path fill="none" stroke="midnightblue" d="M196.136,-174.362C199.846,-166.677 204.967,-156.069 209.422,-146.84"/>
<polygon fill="midnightblue" stroke="midnightblue" points="212.701,-148.098 213.897,-137.571 206.397,-145.055 212.701,-148.098"/>
</g>
<!-- Node7 -->
<g id="node13" class="node"><title>Node7</title>
<polygon fill="white" stroke="#bfbfbf" points="315.5,-116.5 315.5,-137.5 356.5,-137.5 356.5,-116.5 315.5,-116.5"/>
<text text-anchor="middle" x="336" y="-124.5" font-family="Helvetica,sans-Serif" font-size="10.00">glib.h</text>
</g>
<!-- Node2&#45;&gt;Node7 -->
<g id="edge12" class="edge"><title>Node2&#45;&gt;Node7</title>
<path fill="none" stroke="midnightblue" d="M217.258,-174.497C242.152,-164.539 279.53,-149.588 305.681,-139.128"/>
<polygon fill="midnightblue" stroke="midnightblue" points="307.12,-142.322 315.104,-135.358 304.52,-135.823 307.12,-142.322"/>
</g>
<!-- Node8 -->
<g id="node15" class="node"><title>Node8</title>
<polygon fill="white" stroke="#bfbfbf" points="136,-116.5 136,-137.5 186,-137.5 186,-116.5 136,-116.5"/>
<text text-anchor="middle" x="161" y="-124.5" font-family="Helvetica,sans-Serif" font-size="10.00">stdint.h</text>
</g>
<!-- Node2&#45;&gt;Node8 -->
<g id="edge14" class="edge"><title>Node2&#45;&gt;Node8</title>
<path fill="none" stroke="midnightblue" d="M185.498,-174.362C181.48,-166.595 175.919,-155.843 171.11,-146.546"/>
<polygon fill="midnightblue" stroke="midnightblue" points="174.171,-144.845 166.468,-137.571 167.953,-148.061 174.171,-144.845"/>
</g>
<!-- Node9&#45;&gt;Node5 -->
<g id="edge22" class="edge"><title>Node9&#45;&gt;Node5</title>
<path fill="none" stroke="midnightblue" d="M402.75,-174.497C376.045,-164.568 335.989,-149.675 307.866,-139.219"/>
<polygon fill="midnightblue" stroke="midnightblue" points="309.051,-135.926 298.458,-135.721 306.611,-142.487 309.051,-135.926"/>
</g>
<!-- Node9&#45;&gt;Node6 -->
<g id="edge24" class="edge"><title>Node9&#45;&gt;Node6</title>
<path fill="none" stroke="midnightblue" d="M399.209,-178.926C363.318,-171.663 303.159,-158.271 244.052,-137.962"/>
<polygon fill="midnightblue" stroke="midnightblue" points="245.174,-134.646 234.579,-134.643 242.859,-141.252 245.174,-134.646"/>
</g>
<!-- Node9&#45;&gt;Node7 -->
<g id="edge26" class="edge"><title>Node9&#45;&gt;Node7</title>
<path fill="none" stroke="midnightblue" d="M413.576,-174.362C399.113,-165.532 378.331,-152.844 361.916,-142.822"/>
<polygon fill="midnightblue" stroke="midnightblue" points="363.673,-139.794 353.314,-137.571 360.025,-145.769 363.673,-139.794"/>
</g>
<!-- Node10 -->
<g id="node19" class="node"><title>Node10</title>
<a xlink:href="Common_8h.htm" target="_top" xlink:title="Common.h">
<polygon fill="white" stroke="black" points="449.5,-116.5 449.5,-137.5 516.5,-137.5 516.5,-116.5 449.5,-116.5"/>
<text text-anchor="middle" x="483" y="-124.5" font-family="Helvetica,sans-Serif" font-size="10.00">Common.h</text>
</a>
</g>
<!-- Node9&#45;&gt;Node10 -->
<g id="edge18" class="edge"><title>Node9&#45;&gt;Node10</title>
<path fill="none" stroke="midnightblue" d="M440.538,-174.362C447.868,-166.186 458.163,-154.702 466.781,-145.091"/>
<polygon fill="midnightblue" stroke="midnightblue" points="469.453,-147.353 473.523,-137.571 464.241,-142.68 469.453,-147.353"/>
</g>
<!-- Node11 -->
<g id="node21" class="node"><title>Node11</title>
<polygon fill="white" stroke="#bfbfbf" points="533.5,-116.5 533.5,-137.5 576.5,-137.5 576.5,-116.5 533.5,-116.5"/>
<text text-anchor="middle" x="555" y="-124.5" font-family="Helvetica,sans-Serif" font-size="10.00">string</text>
</g>
<!-- Node9&#45;&gt;Node11 -->
<g id="edge20" class="edge"><title>Node9&#45;&gt;Node11</title>
<path fill="none" stroke="midnightblue" d="M453.455,-174.497C473.153,-165.283 501.99,-151.795 523.905,-141.544"/>
<polygon fill="midnightblue" stroke="midnightblue" points="525.553,-144.638 533.128,-137.231 522.587,-138.297 525.553,-144.638"/>
</g>
<!-- Node12 -->
<g id="node26" class="node"><title>Node12</title>
<polygon fill="white" stroke="#bfbfbf" points="374,-116.5 374,-137.5 432,-137.5 432,-116.5 374,-116.5"/>
<text text-anchor="middle" x="403" y="-124.5" font-family="Helvetica,sans-Serif" font-size="10.00">QtGlobal</text>
</g>
<!-- Node9&#45;&gt;Node12 -->
<g id="edge28" class="edge"><title>Node9&#45;&gt;Node12</title>
<path fill="none" stroke="midnightblue" d="M425.864,-174.362C422.154,-166.677 417.033,-156.069 412.578,-146.84"/>
<polygon fill="midnightblue" stroke="midnightblue" points="415.603,-145.055 408.103,-137.571 409.299,-148.098 415.603,-145.055"/>
</g>
<!-- Node13&#45;&gt;Node7 -->
<g id="edge36" class="edge"><title>Node13&#45;&gt;Node7</title>
<path fill="none" stroke="midnightblue" d="M479.231,-175.287C451.58,-166.72 410.221,-153.636 366.262,-138.343"/>
<polygon fill="midnightblue" stroke="midnightblue" points="367.142,-134.943 356.548,-134.942 364.829,-141.55 367.142,-134.943"/>
</g>
<!-- Node13&#45;&gt;Node10 -->
<g id="edge32" class="edge"><title>Node13&#45;&gt;Node10</title>
<path fill="none" stroke="midnightblue" d="M505.864,-174.362C502.154,-166.677 497.033,-156.069 492.578,-146.84"/>
<polygon fill="midnightblue" stroke="midnightblue" points="495.603,-145.055 488.103,-137.571 489.299,-148.098 495.603,-145.055"/>
</g>
<!-- Node14 -->
<g id="node31" class="node"><title>Node14</title>
<polygon fill="white" stroke="#bfbfbf" points="593.5,-116.5 593.5,-137.5 640.5,-137.5 640.5,-116.5 593.5,-116.5"/>
<text text-anchor="middle" x="617" y="-124.5" font-family="Helvetica,sans-Serif" font-size="10.00">stdio.h</text>
</g>
<!-- Node13&#45;&gt;Node14 -->
<g id="edge34" class="edge"><title>Node13&#45;&gt;Node14</title>
<path fill="none" stroke="midnightblue" d="M530.442,-174.362C546.804,-165.409 570.413,-152.491 588.843,-142.406"/>
<polygon fill="midnightblue" stroke="midnightblue" points="590.589,-145.441 597.681,-137.571 587.229,-139.3 590.589,-145.441"/>
</g>
<!-- Node15 -->
<g id="node34" class="node"><title>Node15</title>
<polygon fill="white" stroke="#bfbfbf" points="657.5,-116.5 657.5,-137.5 728.5,-137.5 728.5,-116.5 657.5,-116.5"/>
<text text-anchor="middle" x="693" y="-124.5" font-family="Helvetica,sans-Serif" font-size="10.00">PmLogLib.h</text>
</g>
<!-- Node13&#45;&gt;Node15 -->
<g id="edge38" class="edge"><title>Node13&#45;&gt;Node15</title>
<path fill="none" stroke="midnightblue" d="M542.702,-174.897C572.421,-165.426 617.086,-151.192 650.007,-140.701"/>
<polygon fill="midnightblue" stroke="midnightblue" points="651.352,-143.946 659.817,-137.575 649.226,-137.277 651.352,-143.946"/>
</g>
<!-- Node16&#45;&gt;Node5 -->
<g id="edge48" class="edge"><title>Node16&#45;&gt;Node5</title>
<path fill="none" stroke="midnightblue" d="M778.227,-183.551C696.462,-178.239 417.215,-159.141 308.24,-137.773"/>
<polygon fill="midnightblue" stroke="midnightblue" points="308.74,-134.303 298.238,-135.699 307.319,-141.157 308.74,-134.303"/>
</g>
<!-- Node16&#45;&gt;Node7 -->
<g id="edge62" class="edge"><title>Node16&#45;&gt;Node7</title>
<path fill="none" stroke="midnightblue" d="M778.25,-183.318C703.121,-177.649 462.704,-158.552 366.622,-137.85"/>
<polygon fill="midnightblue" stroke="midnightblue" points="367.238,-134.4 356.709,-135.581 365.676,-141.224 367.238,-134.4"/>
</g>
<!-- Node16&#45;&gt;Node10 -->
<g id="edge42" class="edge"><title>Node16&#45;&gt;Node10</title>
<path fill="none" stroke="midnightblue" d="M778.333,-181.827C732.538,-175.27 625.558,-159.215 526.71,-138.252"/>
<polygon fill="midnightblue" stroke="midnightblue" points="527.376,-134.815 516.865,-136.141 525.909,-141.659 527.376,-134.815"/>
</g>
<!-- Node16&#45;&gt;Node11 -->
<g id="edge46" class="edge"><title>Node16&#45;&gt;Node11</title>
<path fill="none" stroke="midnightblue" d="M778.357,-181.131C740.368,-174.417 661.305,-159.482 586.133,-138.072"/>
<polygon fill="midnightblue" stroke="midnightblue" points="587.091,-134.705 576.512,-135.289 585.146,-141.43 587.091,-134.705"/>
</g>
<!-- Node17 -->
<g id="node39" class="node"><title>Node17</title>
<polygon fill="white" stroke="#bfbfbf" points="746,-116.5 746,-137.5 790,-137.5 790,-116.5 746,-116.5"/>
<text text-anchor="middle" x="768" y="-124.5" font-family="Helvetica,sans-Serif" font-size="10.00">time.h</text>
</g>
<!-- Node16&#45;&gt;Node17 -->
<g id="edge44" class="edge"><title>Node16&#45;&gt;Node17</title>
<path fill="none" stroke="midnightblue" d="M794.947,-174.362C790.528,-166.595 784.41,-155.843 779.121,-146.546"/>
<polygon fill="midnightblue" stroke="midnightblue" points="782.002,-144.531 774.014,-137.571 775.918,-147.993 782.002,-144.531"/>
</g>
<!-- Node18 -->
<g id="node43" class="node"><title>Node18</title>
<polygon fill="white" stroke="#bfbfbf" points="808,-116.5 808,-137.5 862,-137.5 862,-116.5 808,-116.5"/>
<text text-anchor="middle" x="835" y="-124.5" font-family="Helvetica,sans-Serif" font-size="10.00">sstream</text>
</g>
<!-- Node16&#45;&gt;Node18 -->
<g id="edge50" class="edge"><title>Node16&#45;&gt;Node18</title>
<path fill="none" stroke="midnightblue" d="M807.236,-174.362C811.837,-166.513 818.225,-155.616 823.714,-146.253"/>
<polygon fill="midnightblue" stroke="midnightblue" points="826.766,-147.968 828.803,-137.571 820.727,-144.428 826.766,-147.968"/>
</g>
<!-- Node19 -->
<g id="node45" class="node"><title>Node19</title>
<polygon fill="white" stroke="#bfbfbf" points="879.5,-116.5 879.5,-137.5 936.5,-137.5 936.5,-116.5 879.5,-116.5"/>
<text text-anchor="middle" x="908" y="-124.5" font-family="Helvetica,sans-Serif" font-size="10.00">iostream</text>
</g>
<!-- Node16&#45;&gt;Node19 -->
<g id="edge52" class="edge"><title>Node16&#45;&gt;Node19</title>
<path fill="none" stroke="midnightblue" d="M820.625,-174.362C837.141,-165.409 860.974,-152.491 879.578,-142.406"/>
<polygon fill="midnightblue" stroke="midnightblue" points="881.375,-145.413 888.499,-137.571 878.04,-139.259 881.375,-145.413"/>
</g>
<!-- Node20 -->
<g id="node47" class="node"><title>Node20</title>
<polygon fill="white" stroke="#bfbfbf" points="954,-116.5 954,-137.5 1006,-137.5 1006,-116.5 954,-116.5"/>
<text text-anchor="middle" x="980" y="-124.5" font-family="Helvetica,sans-Serif" font-size="10.00">regex.h</text>
</g>
<!-- Node16&#45;&gt;Node20 -->
<g id="edge54" class="edge"><title>Node16&#45;&gt;Node20</title>
<path fill="none" stroke="midnightblue" d="M823.67,-177.654C854.025,-167.819 908.208,-150.262 944.13,-138.623"/>
<polygon fill="midnightblue" stroke="midnightblue" points="945.308,-141.92 953.743,-135.508 943.151,-135.261 945.308,-141.92"/>
</g>
<!-- Node21 -->
<g id="node49" class="node"><title>Node21</title>
<polygon fill="white" stroke="#bfbfbf" points="1023.5,-116.5 1023.5,-137.5 1094.5,-137.5 1094.5,-116.5 1023.5,-116.5"/>
<text text-anchor="middle" x="1059" y="-124.5" font-family="Helvetica,sans-Serif" font-size="10.00">QByteArray</text>
</g>
<!-- Node16&#45;&gt;Node21 -->
<g id="edge56" class="edge"><title>Node16&#45;&gt;Node21</title>
<path fill="none" stroke="midnightblue" d="M823.54,-180.273C860.925,-172.384 938.348,-155.846 1013.39,-138.337"/>
<polygon fill="midnightblue" stroke="midnightblue" points="1014.54,-141.662 1023.48,-135.973 1012.95,-134.846 1014.54,-141.662"/>
</g>
<!-- Node22 -->
<g id="node51" class="node"><title>Node22</title>
<polygon fill="white" stroke="#bfbfbf" points="1112,-116.5 1112,-137.5 1150,-137.5 1150,-116.5 1112,-116.5"/>
<text text-anchor="middle" x="1131" y="-124.5" font-family="Helvetica,sans-Serif" font-size="10.00">QUrl</text>
</g>
<!-- Node16&#45;&gt;Node22 -->
<g id="edge58" class="edge"><title>Node16&#45;&gt;Node22</title>
<path fill="none" stroke="midnightblue" d="M823.706,-183.184C873.003,-178.882 993.482,-166.42 1102.11,-137.779"/>
<polygon fill="midnightblue" stroke="midnightblue" points="1103.16,-141.12 1111.91,-135.141 1101.34,-134.361 1103.16,-141.12"/>
</g>
<!-- Node23 -->
<g id="node53" class="node"><title>Node23</title>
<polygon fill="white" stroke="#bfbfbf" points="1168,-116.5 1168,-137.5 1256,-137.5 1256,-116.5 1168,-116.5"/>
<text text-anchor="middle" x="1212" y="-124.5" font-family="Helvetica,sans-Serif" font-size="10.00">QGraphicsItem</text>
</g>
<!-- Node16&#45;&gt;Node23 -->
<g id="edge60" class="edge"><title>Node16&#45;&gt;Node23</title>
<path fill="none" stroke="midnightblue" d="M823.705,-182.611C879.058,-176.66 1025.52,-160.163 1157.89,-138.096"/>
<polygon fill="midnightblue" stroke="midnightblue" points="1158.52,-141.54 1167.8,-136.429 1157.36,-134.637 1158.52,-141.54"/>
</g>
<!-- Node24&#45;&gt;Node7 -->
<g id="edge68" class="edge"><title>Node24&#45;&gt;Node7</title>
<path fill="none" stroke="midnightblue" d="M303.337,-174.362C308.806,-166.431 316.422,-155.389 322.924,-145.961"/>
<polygon fill="midnightblue" stroke="midnightblue" points="325.914,-147.79 328.71,-137.571 320.151,-143.816 325.914,-147.79"/>
</g>
<!-- Node24&#45;&gt;Node8 -->
<g id="edge70" class="edge"><title>Node24&#45;&gt;Node8</title>
<path fill="none" stroke="midnightblue" d="M271.553,-174.497C250.182,-165.315 218.931,-151.889 195.103,-141.652"/>
<polygon fill="midnightblue" stroke="midnightblue" points="196.291,-138.353 185.722,-137.621 193.528,-144.784 196.291,-138.353"/>
</g>
<!-- Node24&#45;&gt;Node10 -->
<g id="edge66" class="edge"><title>Node24&#45;&gt;Node10</title>
<path fill="none" stroke="midnightblue" d="M329.864,-174.497C360.578,-164.971 406.026,-150.874 439.435,-140.512"/>
<polygon fill="midnightblue" stroke="midnightblue" points="440.873,-143.731 449.388,-137.425 438.8,-137.045 440.873,-143.731"/>
</g>
<!-- Node25&#45;&gt;Node4 -->
<g id="edge76" class="edge"><title>Node25&#45;&gt;Node4</title>
<path fill="none" stroke="midnightblue" d="M496.383,-240.081C408.781,-233.608 208.081,-216.948 143,-196 105.129,-183.81 65.6125,-159.785 41.3986,-143.555"/>
<polygon fill="midnightblue" stroke="midnightblue" points="43.1358,-140.503 32.903,-137.757 39.19,-146.285 43.1358,-140.503"/>
</g>
<!-- Node25&#45;&gt;Node5 -->
<g id="edge78" class="edge"><title>Node25&#45;&gt;Node5</title>
<path fill="none" stroke="midnightblue" d="M496.514,-232.457C466.544,-224.192 425.449,-211.509 391,-196 386.337,-193.901 334.084,-162.573 301.319,-142.86"/>
<polygon fill="midnightblue" stroke="midnightblue" points="303.023,-139.801 292.651,-137.642 299.413,-145.798 303.023,-139.801"/>
</g>
<!-- Node25&#45;&gt;Node13 -->
<g id="edge80" class="edge"><title>Node25&#45;&gt;Node13</title>
<path fill="none" stroke="midnightblue" d="M533.048,-232.362C529.47,-224.677 524.532,-214.069 520.236,-204.84"/>
<polygon fill="midnightblue" stroke="midnightblue" points="523.314,-203.159 515.921,-195.571 516.968,-206.114 523.314,-203.159"/>
</g>
<!-- Node26 -->
<g id="node63" class="node"><title>Node26</title>
<polygon fill="white" stroke="#bfbfbf" points="560,-174.5 560,-195.5 624,-195.5 624,-174.5 560,-174.5"/>
<text text-anchor="middle" x="592" y="-182.5" font-family="Helvetica,sans-Serif" font-size="10.00">qpainter.h</text>
</g>
<!-- Node25&#45;&gt;Node26 -->
<g id="edge74" class="edge"><title>Node25&#45;&gt;Node26</title>
<path fill="none" stroke="midnightblue" d="M547.904,-232.362C555.516,-224.186 566.208,-212.702 575.157,-203.091"/>
<polygon fill="midnightblue" stroke="midnightblue" points="577.906,-205.275 582.158,-195.571 572.783,-200.505 577.906,-205.275"/>
</g>
<!-- Node27 -->
<g id="node68" class="node"><title>Node27</title>
<a xlink:href="VirtualKeyboard_8h.htm" target="_top" xlink:title="VirtualKeyboard.h">
<polygon fill="white" stroke="black" points="1234.5,-174.5 1234.5,-195.5 1333.5,-195.5 1333.5,-174.5 1234.5,-174.5"/>
<text text-anchor="middle" x="1284" y="-182.5" font-family="Helvetica,sans-Serif" font-size="10.00">VirtualKeyboard.h</text>
</a>
</g>
<!-- Node25&#45;&gt;Node27 -->
<g id="edge82" class="edge"><title>Node25&#45;&gt;Node27</title>
<path fill="none" stroke="midnightblue" d="M579.707,-239.757C704.961,-230.019 1078.17,-201.003 1224.34,-189.638"/>
<polygon fill="midnightblue" stroke="midnightblue" points="1224.77,-193.116 1234.47,-188.851 1224.23,-186.137 1224.77,-193.116"/>
</g>
<!-- Node28 -->
<g id="node70" class="node"><title>Node28</title>
<a xlink:href="IMEDataInterface_8h.htm" target="_top" xlink:title="IMEDataInterface.h">
<polygon fill="white" stroke="black" points="1312,-116.5 1312,-137.5 1420,-137.5 1420,-116.5 1312,-116.5"/>
<text text-anchor="middle" x="1366" y="-124.5" font-family="Helvetica,sans-Serif" font-size="10.00">IMEDataInterface.h</text>
</a>
</g>
<!-- Node27&#45;&gt;Node28 -->
<g id="edge84" class="edge"><title>Node27&#45;&gt;Node28</title>
<path fill="none" stroke="midnightblue" d="M1299.04,-174.362C1311.29,-165.696 1328.8,-153.313 1342.84,-143.382"/>
<polygon fill="midnightblue" stroke="midnightblue" points="1344.91,-146.203 1351.06,-137.571 1340.87,-140.488 1344.91,-146.203"/>
</g>
<!-- Node37 -->
<g id="node88" class="node"><title>Node37</title>
<a xlink:href="InputMethod_8h.htm" target="_top" xlink:title="InputMethod.h">
<polygon fill="white" stroke="black" points="1242,-58.5 1242,-79.5 1326,-79.5 1326,-58.5 1242,-58.5"/>
<text text-anchor="middle" x="1284" y="-66.5" font-family="Helvetica,sans-Serif" font-size="10.00">InputMethod.h</text>
</a>
</g>
<!-- Node27&#45;&gt;Node37 -->
<g id="edge102" class="edge"><title>Node27&#45;&gt;Node37</title>
<path fill="none" stroke="midnightblue" d="M1284,-174.295C1284,-155.131 1284,-114.654 1284,-89.8434"/>
<polygon fill="midnightblue" stroke="midnightblue" points="1287.5,-89.6792 1284,-79.6792 1280.5,-89.6792 1287.5,-89.6792"/>
</g>
<!-- Node29 -->
<g id="node72" class="node"><title>Node29</title>
<a xlink:href="IMEData_8h.htm" target="_top" xlink:title="IMEData.h">
<polygon fill="white" stroke="black" points="1349,-58.5 1349,-79.5 1415,-79.5 1415,-58.5 1349,-58.5"/>
<text text-anchor="middle" x="1382" y="-66.5" font-family="Helvetica,sans-Serif" font-size="10.00">IMEData.h</text>
</a>
</g>
<!-- Node28&#45;&gt;Node29 -->
<g id="edge86" class="edge"><title>Node28&#45;&gt;Node29</title>
<path fill="none" stroke="midnightblue" d="M1368.93,-116.362C1371.01,-108.84 1373.86,-98.5187 1376.36,-89.4308"/>
<polygon fill="midnightblue" stroke="midnightblue" points="1379.8,-90.1414 1379.08,-79.5707 1373.05,-88.2798 1379.8,-90.1414"/>
</g>
<!-- Node30 -->
<g id="node74" class="node"><title>Node30</title>
<polygon fill="white" stroke="#bfbfbf" points="1291.5,-0.5 1291.5,-21.5 1338.5,-21.5 1338.5,-0.5 1291.5,-0.5"/>
<text text-anchor="middle" x="1315" y="-8.5" font-family="Helvetica,sans-Serif" font-size="10.00">QRect</text>
</g>
<!-- Node29&#45;&gt;Node30 -->
<g id="edge88" class="edge"><title>Node29&#45;&gt;Node30</title>
<path fill="none" stroke="midnightblue" d="M1369.71,-58.3619C1359.98,-49.9408 1346.2,-38.0105 1334.9,-28.2308"/>
<polygon fill="midnightblue" stroke="midnightblue" points="1337.06,-25.4695 1327.21,-21.5707 1332.48,-30.7619 1337.06,-25.4695"/>
</g>
<!-- Node31 -->
<g id="node76" class="node"><title>Node31</title>
<polygon fill="white" stroke="#bfbfbf" points="1355.5,-0.5 1355.5,-21.5 1400.5,-21.5 1400.5,-0.5 1355.5,-0.5"/>
<text text-anchor="middle" x="1378" y="-8.5" font-family="Helvetica,sans-Serif" font-size="10.00">QSize</text>
</g>
<!-- Node29&#45;&gt;Node31 -->
<g id="edge90" class="edge"><title>Node29&#45;&gt;Node31</title>
<path fill="none" stroke="midnightblue" d="M1381.27,-58.3619C1380.75,-50.9219 1380.05,-40.7427 1379.43,-31.7276"/>
<polygon fill="midnightblue" stroke="midnightblue" points="1382.91,-31.3061 1378.73,-21.5707 1375.93,-31.7878 1382.91,-31.3061"/>
</g>
<!-- Node32 -->
<g id="node78" class="node"><title>Node32</title>
<polygon fill="white" stroke="#bfbfbf" points="1193.5,-0.5 1193.5,-21.5 1274.5,-21.5 1274.5,-0.5 1193.5,-0.5"/>
<text text-anchor="middle" x="1234" y="-8.5" font-family="Helvetica,sans-Serif" font-size="10.00">QTouchEvent</text>
</g>
<!-- Node29&#45;&gt;Node32 -->
<g id="edge92" class="edge"><title>Node29&#45;&gt;Node32</title>
<path fill="none" stroke="midnightblue" d="M1355.2,-58.4966C1331.56,-49.2337 1296.9,-35.6499 1270.69,-25.3793"/>
<polygon fill="midnightblue" stroke="midnightblue" points="1271.69,-22.0113 1261.1,-21.6212 1269.14,-28.5287 1271.69,-22.0113"/>
</g>
<!-- Node29&#45;&gt;Node33 -->
<g id="edge94" class="edge"><title>Node29&#45;&gt;Node33</title>
<path fill="none" stroke="midnightblue" d="M1393.92,-58.3619C1403.36,-49.9408 1416.73,-38.0105 1427.69,-28.2308"/>
<polygon fill="midnightblue" stroke="midnightblue" points="1430.02,-30.8401 1435.15,-21.5707 1425.36,-25.6171 1430.02,-30.8401"/>
</g>
<!-- Node34 -->
<g id="node82" class="node"><title>Node34</title>
<polygon fill="white" stroke="#bfbfbf" points="1493.5,-0.5 1493.5,-21.5 1552.5,-21.5 1552.5,-0.5 1493.5,-0.5"/>
<text text-anchor="middle" x="1523" y="-8.5" font-family="Helvetica,sans-Serif" font-size="10.00">QRegion</text>
</g>
<!-- Node29&#45;&gt;Node34 -->
<g id="edge96" class="edge"><title>Node29&#45;&gt;Node34</title>
<path fill="none" stroke="midnightblue" d="M1407.53,-58.4966C1429.95,-49.2746 1462.78,-35.7695 1487.71,-25.5153"/>
<polygon fill="midnightblue" stroke="midnightblue" points="1489.26,-28.6623 1497.18,-21.6212 1486.6,-22.1886 1489.26,-28.6623"/>
</g>
<!-- Node35 -->
<g id="node84" class="node"><title>Node35</title>
<polygon fill="white" stroke="#bfbfbf" points="1569.5,-0.5 1569.5,-21.5 1622.5,-21.5 1622.5,-0.5 1569.5,-0.5"/>
<text text-anchor="middle" x="1596" y="-8.5" font-family="Helvetica,sans-Serif" font-size="10.00">QString</text>
</g>
<!-- Node29&#45;&gt;Node35 -->
<g id="edge98" class="edge"><title>Node29&#45;&gt;Node35</title>
<path fill="none" stroke="midnightblue" d="M1415.12,-60.8073C1449.18,-52.2724 1503.96,-38.2368 1559.62,-22.3204"/>
<polygon fill="midnightblue" stroke="midnightblue" points="1560.64,-25.6682 1569.29,-19.5399 1558.71,-18.9411 1560.64,-25.6682"/>
</g>
<!-- Node36 -->
<g id="node86" class="node"><title>Node36</title>
<polygon fill="white" stroke="#bfbfbf" points="1640,-0.5 1640,-21.5 1738,-21.5 1738,-0.5 1640,-0.5"/>
<text text-anchor="middle" x="1689" y="-8.5" font-family="Helvetica,sans-Serif" font-size="10.00">palmimedefines.h</text>
</g>
<!-- Node29&#45;&gt;Node36 -->
<g id="edge100" class="edge"><title>Node29&#45;&gt;Node36</title>
<path fill="none" stroke="midnightblue" d="M1415.03,-62.775C1460.9,-54.1276 1546.76,-37.9337 1630.07,-22.1745"/>
<polygon fill="midnightblue" stroke="midnightblue" points="1630.78,-25.6032 1639.95,-20.3051 1629.48,-18.7252 1630.78,-25.6032"/>
</g>
<!-- Node37&#45;&gt;Node32 -->
<g id="edge104" class="edge"><title>Node37&#45;&gt;Node32</title>
<path fill="none" stroke="midnightblue" d="M1274.83,-58.3619C1267.85,-50.2678 1258.08,-38.9318 1249.84,-29.3796"/>
<polygon fill="midnightblue" stroke="midnightblue" points="1252.29,-26.8595 1243.11,-21.5707 1246.99,-31.4301 1252.29,-26.8595"/>
</g>
<!-- Node37&#45;&gt;Node33 -->
<g id="edge106" class="edge"><title>Node37&#45;&gt;Node33</title>
<path fill="none" stroke="midnightblue" d="M1313.52,-58.4966C1339.98,-49.082 1378.98,-35.2036 1408,-24.8773"/>
<polygon fill="midnightblue" stroke="midnightblue" points="1409.18,-28.173 1417.43,-21.5231 1406.83,-21.578 1409.18,-28.173"/>
</g>
</g>
</svg>
