<?xml version="1.0" encoding="UTF-8" standalone="no"?>
<!DOCTYPE svg PUBLIC "-//W3C//DTD SVG 1.1//EN"
 "http://www.w3.org/Graphics/SVG/1.1/DTD/svg11.dtd">
<!-- Generated by graphviz version 2.26.3 (20100126.1600)
 -->
<!-- Title: G Pages: 1 -->
<svg width="208pt" height="150pt"
 viewBox="0.00 0.00 208.00 150.00" xmlns="http://www.w3.org/2000/svg" xmlns:xlink="http://www.w3.org/1999/xlink">
<g id="graph1" class="graph" transform="scale(1 1) rotate(0) translate(4 146)">
<title>G</title>
<polygon fill="white" stroke="white" points="-4,5 -4,-146 205,-146 205,5 -4,5"/>
<!-- Node1 -->
<g id="node1" class="node"><title>Node1</title>
<a xlink:href="classProcessBase.htm" target="_top" xlink:title="ProcessBase">
<polygon fill="white" stroke="black" points="8.5,-80.5 8.5,-101.5 87.5,-101.5 87.5,-80.5 8.5,-80.5"/>
<text text-anchor="middle" x="48" y="-88.5" font-family="Helvetica,sans-Serif" font-size="10.00">ProcessBase</text>
</a>
</g>
<!-- Node2 -->
<g id="node3" class="node"><title>Node2</title>
<a xlink:href="classWebFrame.htm" target="_top" xlink:title="WebFrame">
<polygon fill="white" stroke="black" points="132,-100.5 132,-121.5 200,-121.5 200,-100.5 132,-100.5"/>
<text text-anchor="middle" x="166" y="-108.5" font-family="Helvetica,sans-Serif" font-size="10.00">WebFrame</text>
</a>
</g>
<!-- Node1&#45;&gt;Node2 -->
<g id="edge2" class="edge"><title>Node1&#45;&gt;Node2</title>
<path fill="none" stroke="midnightblue" d="M97.5775,-99.403C109.104,-101.357 121.124,-103.394 131.814,-105.206"/>
<polygon fill="midnightblue" stroke="midnightblue" points="98.0648,-95.9357 87.6206,-97.7153 96.895,-102.837 98.0648,-95.9357"/>
</g>
<!-- Node3 -->
<g id="node5" class="node"><title>Node3</title>
<a xlink:href="classWebPage.htm" target="_top" xlink:title="WebPage">
<polygon fill="white" stroke="black" points="135,-40.5 135,-61.5 197,-61.5 197,-40.5 135,-40.5"/>
<text text-anchor="middle" x="166" y="-48.5" font-family="Helvetica,sans-Serif" font-size="10.00">WebPage</text>
</a>
</g>
<!-- Node1&#45;&gt;Node3 -->
<g id="edge4" class="edge"><title>Node1&#45;&gt;Node3</title>
<path fill="none" stroke="midnightblue" d="M88.6319,-77.2265C103.749,-72.1022 120.652,-66.3721 134.794,-61.5782"/>
<polygon fill="midnightblue" stroke="midnightblue" points="87.3501,-73.9653 79.0031,-80.4905 89.5974,-80.5947 87.3501,-73.9653"/>
</g>
<!-- Node4 -->
<g id="node6" class="node"><title>Node4</title>
<a xlink:href="classPalm_1_1WebFrameClient.htm" target="_top" xlink:title="WebFrameClient">
<polygon fill="white" stroke="black" points="0.5,-120.5 0.5,-141.5 95.5,-141.5 95.5,-120.5 0.5,-120.5"/>
<text text-anchor="middle" x="48" y="-128.5" font-family="Helvetica,sans-Serif" font-size="10.00">WebFrameClient</text>
</a>
</g>
<!-- Node4&#45;&gt;Node2 -->
<g id="edge6" class="edge"><title>Node4&#45;&gt;Node2</title>
<path fill="none" stroke="midnightblue" d="M105.73,-121.215C114.707,-119.694 123.724,-118.165 131.947,-116.772"/>
<polygon fill="midnightblue" stroke="midnightblue" points="104.929,-117.801 95.655,-122.923 106.099,-124.703 104.929,-117.801"/>
</g>
<!-- Node5 -->
<g id="node8" class="node"><title>Node5</title>
<a xlink:href="classPalm_1_1WebPageClient.htm" target="_top" xlink:title="WebPageClient">
<polygon fill="white" stroke="black" points="3.5,-40.5 3.5,-61.5 92.5,-61.5 92.5,-40.5 3.5,-40.5"/>
<text text-anchor="middle" x="48" y="-48.5" font-family="Helvetica,sans-Serif" font-size="10.00">WebPageClient</text>
</a>
</g>
<!-- Node5&#45;&gt;Node3 -->
<g id="edge8" class="edge"><title>Node5&#45;&gt;Node3</title>
<path fill="none" stroke="midnightblue" d="M102.67,-51C113.735,-51 125.005,-51 134.91,-51"/>
<polygon fill="midnightblue" stroke="midnightblue" points="102.611,-47.5001 92.6107,-51 102.611,-54.5001 102.611,-47.5001"/>
</g>
<!-- Node6 -->
<g id="node10" class="node"><title>Node6</title>
<a xlink:href="classPalm_1_1WebViewClient.htm" target="_top" xlink:title="WebViewClient">
<polygon fill="white" stroke="black" points="4.5,-0.5 4.5,-21.5 91.5,-21.5 91.5,-0.5 4.5,-0.5"/>
<text text-anchor="middle" x="48" y="-8.5" font-family="Helvetica,sans-Serif" font-size="10.00">WebViewClient</text>
</a>
</g>
<!-- Node6&#45;&gt;Node3 -->
<g id="edge10" class="edge"><title>Node6&#45;&gt;Node3</title>
<path fill="none" stroke="midnightblue" d="M88.6319,-24.7735C103.749,-29.8978 120.652,-35.6279 134.794,-40.4218"/>
<polygon fill="midnightblue" stroke="midnightblue" points="89.5974,-21.4053 79.0031,-21.5095 87.3501,-28.0347 89.5974,-21.4053"/>
</g>
</g>
</svg>
