<?xml version="1.0" encoding="UTF-8" standalone="no"?>
<!DOCTYPE svg PUBLIC "-//W3C//DTD SVG 1.1//EN"
 "http://www.w3.org/Graphics/SVG/1.1/DTD/svg11.dtd">
<!-- Generated by graphviz version 2.26.3 (20100126.1600)
 -->
<!-- Title: G Pages: 1 -->
<svg width="462pt" height="70pt"
 viewBox="0.00 0.00 462.00 70.00" xmlns="http://www.w3.org/2000/svg" xmlns:xlink="http://www.w3.org/1999/xlink">
<g id="graph1" class="graph" transform="scale(1 1) rotate(0) translate(4 66)">
<title>G</title>
<polygon fill="white" stroke="white" points="-4,5 -4,-66 459,-66 459,5 -4,5"/>
<!-- Node1 -->
<g id="node1" class="node"><title>Node1</title>
<a xlink:href="classFunctionWrapper.htm" target="_top" xlink:title="FunctionWrapper\&lt; void(Receiver::*)()\&gt;">
<polygon fill="white" stroke="black" points="0.5,-40.5 0.5,-61.5 199.5,-61.5 199.5,-40.5 0.5,-40.5"/>
<text text-anchor="middle" x="100" y="-48.5" font-family="Helvetica,sans-Serif" font-size="10.00">FunctionWrapper&lt; void(Receiver::*)()&gt;</text>
</a>
</g>
<!-- Node2 -->
<g id="node3" class="node"><title>Node2</title>
<a xlink:href="classSlot_3_01Receiver_00_01void_00_01void_00_01void_00_01void_00_01void_01_4.htm" target="_top" xlink:title="Slot\&lt; Receiver, void, void, void, void, void \&gt;">
<polygon fill="white" stroke="black" points="236,-20.5 236,-41.5 454,-41.5 454,-20.5 236,-20.5"/>
<text text-anchor="middle" x="345" y="-28.5" font-family="Helvetica,sans-Serif" font-size="10.00">Slot&lt; Receiver, void, void, void, void, void &gt;</text>
</a>
</g>
<!-- Node1&#45;&gt;Node2 -->
<g id="edge2" class="edge"><title>Node1&#45;&gt;Node2</title>
<path fill="none" stroke="midnightblue" d="M209.772,-42.0391C218.435,-41.3318 227.185,-40.6175 235.845,-39.9106"/>
<polygon fill="midnightblue" stroke="midnightblue" points="209.333,-38.5631 199.651,-42.8652 209.903,-45.5399 209.333,-38.5631"/>
</g>
<!-- Node3 -->
<g id="node4" class="node"><title>Node3</title>
<a xlink:href="classSlotBase.htm" target="_top" xlink:title="SlotBase\&lt;\&gt;">
<polygon fill="white" stroke="black" points="64.5,-0.5 64.5,-21.5 135.5,-21.5 135.5,-0.5 64.5,-0.5"/>
<text text-anchor="middle" x="100" y="-8.5" font-family="Helvetica,sans-Serif" font-size="10.00">SlotBase&lt;&gt;</text>
</a>
</g>
<!-- Node3&#45;&gt;Node2 -->
<g id="edge4" class="edge"><title>Node3&#45;&gt;Node2</title>
<path fill="none" stroke="midnightblue" d="M145.712,-14.7316C171.193,-16.8117 204.102,-19.4981 235.808,-22.0864"/>
<polygon fill="midnightblue" stroke="midnightblue" points="145.877,-11.2335 135.625,-13.9082 145.307,-18.2103 145.877,-11.2335"/>
</g>
</g>
</svg>
