<?xml version="1.0" encoding="UTF-8" standalone="no"?>
<!DOCTYPE svg PUBLIC "-//W3C//DTD SVG 1.1//EN"
 "http://www.w3.org/Graphics/SVG/1.1/DTD/svg11.dtd">
<!-- Generated by graphviz version 2.26.3 (20100126.1600)
 -->
<!-- Title: G Pages: 1 -->
<svg width="488pt" height="70pt"
 viewBox="0.00 0.00 488.00 70.00" xmlns="http://www.w3.org/2000/svg" xmlns:xlink="http://www.w3.org/1999/xlink">
<g id="graph1" class="graph" transform="scale(1 1) rotate(0) translate(4 66)">
<title>G</title>
<polygon fill="white" stroke="white" points="-4,5 -4,-66 485,-66 485,5 -4,5"/>
<!-- Node1 -->
<g id="node1" class="node"><title>Node1</title>
<a xlink:href="classFunctionWrapper.htm" target="_top" xlink:title="FunctionWrapper\&lt; void(Receiver::*)(Arg0)\&gt;">
<polygon fill="white" stroke="black" points="0.5,-40.5 0.5,-61.5 221.5,-61.5 221.5,-40.5 0.5,-40.5"/>
<text text-anchor="middle" x="111" y="-48.5" font-family="Helvetica,sans-Serif" font-size="10.00">FunctionWrapper&lt; void(Receiver::*)(Arg0)&gt;</text>
</a>
</g>
<!-- Node2 -->
<g id="node3" class="node"><title>Node2</title>
<a xlink:href="classSlot_3_01Receiver_00_01Arg0_00_01void_00_01void_00_01void_00_01void_01_4.htm" target="_top" xlink:title="Slot\&lt; Receiver, Arg0, void, void, void, void \&gt;">
<polygon fill="white" stroke="black" points="258.5,-20.5 258.5,-41.5 479.5,-41.5 479.5,-20.5 258.5,-20.5"/>
<text text-anchor="middle" x="369" y="-28.5" font-family="Helvetica,sans-Serif" font-size="10.00">Slot&lt; Receiver, Arg0, void, void, void, void &gt;</text>
</a>
</g>
<!-- Node1&#45;&gt;Node2 -->
<g id="edge2" class="edge"><title>Node1&#45;&gt;Node2</title>
<path fill="none" stroke="midnightblue" d="M231.564,-41.6539C240.473,-40.9633 249.436,-40.2685 258.281,-39.5828"/>
<polygon fill="midnightblue" stroke="midnightblue" points="231.238,-38.1687 221.538,-42.4312 231.779,-45.1477 231.238,-38.1687"/>
</g>
<!-- Node3 -->
<g id="node4" class="node"><title>Node3</title>
<a xlink:href="classSlotBase.htm" target="_top" xlink:title="SlotBase\&lt; Arg0 \&gt;">
<polygon fill="white" stroke="black" points="61.5,-0.5 61.5,-21.5 160.5,-21.5 160.5,-0.5 61.5,-0.5"/>
<text text-anchor="middle" x="111" y="-8.5" font-family="Helvetica,sans-Serif" font-size="10.00">SlotBase&lt; Arg0 &gt;</text>
</a>
</g>
<!-- Node3&#45;&gt;Node2 -->
<g id="edge4" class="edge"><title>Node3&#45;&gt;Node2</title>
<path fill="none" stroke="midnightblue" d="M170.814,-15.6367C196.845,-17.6547 228.215,-20.0864 258.24,-22.4139"/>
<polygon fill="midnightblue" stroke="midnightblue" points="170.986,-12.1396 160.745,-14.8562 170.445,-19.1187 170.986,-12.1396"/>
</g>
</g>
</svg>
