<?xml version="1.0" encoding="UTF-8" standalone="no"?>
<!DOCTYPE svg PUBLIC "-//W3C//DTD SVG 1.1//EN"
 "http://www.w3.org/Graphics/SVG/1.1/DTD/svg11.dtd">
<!-- Generated by graphviz version 2.26.3 (20100126.1600)
 -->
<!-- Title: G Pages: 1 -->
<svg width="5986pt" height="204pt"
 viewBox="0.00 0.00 5986.14 204.00" xmlns="http://www.w3.org/2000/svg" xmlns:xlink="http://www.w3.org/1999/xlink">
<g id="graph1" class="graph" transform="scale(1 1) rotate(0) translate(4 200)">
<title>G</title>
<polygon fill="white" stroke="white" points="-4,5 -4,-200 5983.14,-200 5983.14,5 -4,5"/>
<!-- Node1 -->
<g id="node1" class="node"><title>Node1</title>
<polygon fill="#bfbfbf" stroke="black" points="3412.5,-174.5 3412.5,-195.5 3495.5,-195.5 3495.5,-174.5 3412.5,-174.5"/>
<text text-anchor="middle" x="3454" y="-182.5" font-family="Helvetica,sans-Serif" font-size="10.00">InputControl.h</text>
</g>
<!-- Node2 -->
<g id="node3" class="node"><title>Node2</title>
<a xlink:href="HostBase_8h.htm" target="_top" xlink:title="HostBase.h">
<polygon fill="white" stroke="red" points="2521.5,-116.5 2521.5,-137.5 2592.5,-137.5 2592.5,-116.5 2521.5,-116.5"/>
<text text-anchor="middle" x="2557" y="-124.5" font-family="Helvetica,sans-Serif" font-size="10.00">HostBase.h</text>
</a>
</g>
<!-- Node1&#45;&gt;Node2 -->
<g id="edge2" class="edge"><title>Node1&#45;&gt;Node2</title>
<path fill="none" stroke="midnightblue" d="M3401.9,-181.631C3237.32,-170.989 2731.26,-138.268 2592.5,-129.296"/>
<polygon fill="midnightblue" stroke="midnightblue" points="3402.03,-185.147 3412.24,-182.3 3402.48,-178.162 3402.03,-185.147"/>
</g>
<!-- Node50 -->
<g id="node106" class="node"><title>Node50</title>
<a xlink:href="HalInputControl_8h.htm" target="_top" xlink:title="HalInputControl.h">
<polygon fill="white" stroke="red" points="4303,-116.5 4303,-137.5 4401,-137.5 4401,-116.5 4303,-116.5"/>
<text text-anchor="middle" x="4352" y="-124.5" font-family="Helvetica,sans-Serif" font-size="10.00">HalInputControl.h</text>
</a>
</g>
<!-- Node1&#45;&gt;Node50 -->
<g id="edge112" class="edge"><title>Node1&#45;&gt;Node50</title>
<path fill="none" stroke="midnightblue" d="M3505.52,-181.672C3664.66,-171.394 4147.05,-140.237 4302.88,-130.172"/>
<polygon fill="midnightblue" stroke="midnightblue" points="3505.26,-178.182 3495.51,-182.319 3505.72,-185.167 3505.26,-178.182"/>
</g>
<!-- Node3 -->
<g id="node5" class="node"><title>Node3</title>
<a xlink:href="AmbientLightSensor_8cpp.htm" target="_top" xlink:title="AmbientLightSensor.cpp">
<polygon fill="white" stroke="black" points="5497.5,-58.5 5497.5,-79.5 5628.5,-79.5 5628.5,-58.5 5497.5,-58.5"/>
<text text-anchor="middle" x="5563" y="-66.5" font-family="Helvetica,sans-Serif" font-size="10.00">AmbientLightSensor.cpp</text>
</a>
</g>
<!-- Node2&#45;&gt;Node3 -->
<g id="edge4" class="edge"><title>Node2&#45;&gt;Node3</title>
<path fill="none" stroke="midnightblue" d="M2603.01,-126.629C2953.01,-123.756 5189.81,-104.528 5489,-80 5491.72,-79.7771 5494.49,-79.5168 5497.28,-79.2267"/>
<polygon fill="midnightblue" stroke="midnightblue" points="2602.94,-123.129 2592.97,-126.711 2603,-130.129 2602.94,-123.129"/>
</g>
<!-- Node4 -->
<g id="node7" class="node"><title>Node4</title>
<a xlink:href="AppDirectRenderingArbitrator_8cpp.htm" target="_top" xlink:title="AppDirectRenderingArbitrator.cpp">
<polygon fill="white" stroke="black" points="5646,-58.5 5646,-79.5 5822,-79.5 5822,-58.5 5646,-58.5"/>
<text text-anchor="middle" x="5734" y="-66.5" font-family="Helvetica,sans-Serif" font-size="10.00">AppDirectRenderingArbitrator.cpp</text>
</a>
</g>
<!-- Node2&#45;&gt;Node4 -->
<g id="edge6" class="edge"><title>Node2&#45;&gt;Node4</title>
<path fill="none" stroke="midnightblue" d="M2602.81,-126.916C2937.43,-126.212 5009.73,-120.257 5637,-80 5639.88,-79.8155 5642.8,-79.6069 5645.74,-79.3784"/>
<polygon fill="midnightblue" stroke="midnightblue" points="2602.52,-123.417 2592.53,-126.937 2602.53,-130.417 2602.52,-123.417"/>
</g>
<!-- Node5 -->
<g id="node9" class="node"><title>Node5</title>
<a xlink:href="ApplicationInstaller_8cpp.htm" target="_top" xlink:title="ApplicationInstaller.cpp">
<polygon fill="white" stroke="black" points="5839.5,-58.5 5839.5,-79.5 5964.5,-79.5 5964.5,-58.5 5839.5,-58.5"/>
<text text-anchor="middle" x="5902" y="-66.5" font-family="Helvetica,sans-Serif" font-size="10.00">ApplicationInstaller.cpp</text>
</a>
</g>
<!-- Node2&#45;&gt;Node5 -->
<g id="edge8" class="edge"><title>Node2&#45;&gt;Node5</title>
<path fill="none" stroke="midnightblue" d="M2602.72,-126.73C2974.41,-124.483 5495.33,-108.274 5831,-80 5833.73,-79.7697 5836.52,-79.4977 5839.34,-79.1929"/>
<polygon fill="midnightblue" stroke="midnightblue" points="2602.58,-123.231 2592.6,-126.791 2602.62,-130.23 2602.58,-123.231"/>
</g>
<!-- Node6 -->
<g id="node11" class="node"><title>Node6</title>
<a xlink:href="ApplicationManager_8cpp.htm" target="_top" xlink:title="ApplicationManager.cpp">
<polygon fill="white" stroke="black" points="-0.5,-58.5 -0.5,-79.5 130.5,-79.5 130.5,-58.5 -0.5,-58.5"/>
<text text-anchor="middle" x="65" y="-66.5" font-family="Helvetica,sans-Serif" font-size="10.00">ApplicationManager.cpp</text>
</a>
</g>
<!-- Node2&#45;&gt;Node6 -->
<g id="edge10" class="edge"><title>Node2&#45;&gt;Node6</title>
<path fill="none" stroke="midnightblue" d="M2510.99,-126.912C2219.38,-126.23 624.886,-120.667 139,-80 136.282,-79.7725 133.512,-79.5083 130.717,-79.215"/>
<polygon fill="midnightblue" stroke="midnightblue" points="2511.19,-130.412 2521.2,-126.935 2511.21,-123.412 2511.19,-130.412"/>
</g>
<!-- Node7 -->
<g id="node13" class="node"><title>Node7</title>
<a xlink:href="ApplicationManagerService_8cpp.htm" target="_top" xlink:title="ApplicationManagerService.cpp">
<polygon fill="white" stroke="black" points="148,-58.5 148,-79.5 314,-79.5 314,-58.5 148,-58.5"/>
<text text-anchor="middle" x="231" y="-66.5" font-family="Helvetica,sans-Serif" font-size="10.00">ApplicationManagerService.cpp</text>
</a>
</g>
<!-- Node2&#45;&gt;Node7 -->
<g id="edge12" class="edge"><title>Node2&#45;&gt;Node7</title>
<path fill="none" stroke="midnightblue" d="M2511.04,-126.648C2232.76,-124.422 770.499,-111.384 323,-80 320.112,-79.7974 317.175,-79.569 314.21,-79.3192"/>
<polygon fill="midnightblue" stroke="midnightblue" points="2511.15,-130.149 2521.18,-126.728 2511.21,-123.149 2511.15,-130.149"/>
</g>
<!-- Node8 -->
<g id="node15" class="node"><title>Node8</title>
<a xlink:href="BackupManager_8cpp.htm" target="_top" xlink:title="BackupManager.cpp">
<polygon fill="white" stroke="black" points="331.5,-58.5 331.5,-79.5 444.5,-79.5 444.5,-58.5 331.5,-58.5"/>
<text text-anchor="middle" x="388" y="-66.5" font-family="Helvetica,sans-Serif" font-size="10.00">BackupManager.cpp</text>
</a>
</g>
<!-- Node2&#45;&gt;Node8 -->
<g id="edge14" class="edge"><title>Node2&#45;&gt;Node8</title>
<path fill="none" stroke="midnightblue" d="M2511.17,-126.883C2242.76,-126.062 872.271,-119.946 453,-80 450.266,-79.7395 447.473,-79.4311 444.656,-79.0862"/>
<polygon fill="midnightblue" stroke="midnightblue" points="2511.32,-130.384 2521.33,-126.913 2511.34,-123.384 2511.32,-130.384"/>
</g>
<!-- Node9 -->
<g id="node17" class="node"><title>Node9</title>
<a xlink:href="BootupAnimation_8cpp.htm" target="_top" xlink:title="BootupAnimation.cpp">
<polygon fill="white" stroke="black" points="462,-58.5 462,-79.5 578,-79.5 578,-58.5 462,-58.5"/>
<text text-anchor="middle" x="520" y="-66.5" font-family="Helvetica,sans-Serif" font-size="10.00">BootupAnimation.cpp</text>
</a>
</g>
<!-- Node2&#45;&gt;Node9 -->
<g id="edge16" class="edge"><title>Node2&#45;&gt;Node9</title>
<path fill="none" stroke="midnightblue" d="M2511.38,-126.701C2254.11,-124.896 982.395,-114.349 592,-80 587.465,-79.601 582.782,-79.0967 578.082,-78.5246"/>
<polygon fill="midnightblue" stroke="midnightblue" points="2511.46,-130.202 2521.48,-126.771 2511.51,-123.202 2511.46,-130.202"/>
</g>
<!-- Node10 -->
<g id="node19" class="node"><title>Node10</title>
<a xlink:href="CoreNaviManager_8h.htm" target="_top" xlink:title="CoreNaviManager.h">
<polygon fill="white" stroke="red" points="672,-58.5 672,-79.5 784,-79.5 784,-58.5 672,-58.5"/>
<text text-anchor="middle" x="728" y="-66.5" font-family="Helvetica,sans-Serif" font-size="10.00">CoreNaviManager.h</text>
</a>
</g>
<!-- Node2&#45;&gt;Node10 -->
<g id="edge18" class="edge"><title>Node2&#45;&gt;Node10</title>
<path fill="none" stroke="midnightblue" d="M2511.27,-126.579C2270.2,-124.238 1144.98,-111.764 798,-80 793.467,-79.585 788.782,-79.0603 784.084,-78.4661"/>
<polygon fill="midnightblue" stroke="midnightblue" points="2511.39,-130.08 2521.43,-126.677 2511.46,-123.081 2511.39,-130.08"/>
</g>
<!-- Node11 -->
<g id="node21" class="node"><title>Node11</title>
<a xlink:href="DisplayManager_8cpp.htm" target="_top" xlink:title="DisplayManager.cpp">
<polygon fill="white" stroke="black" points="500.5,-0.5 500.5,-21.5 613.5,-21.5 613.5,-0.5 500.5,-0.5"/>
<text text-anchor="middle" x="557" y="-8.5" font-family="Helvetica,sans-Serif" font-size="10.00">DisplayManager.cpp</text>
</a>
</g>
<!-- Node2&#45;&gt;Node11 -->
<g id="edge28" class="edge"><title>Node2&#45;&gt;Node11</title>
<path fill="none" stroke="midnightblue" d="M2511.05,-126.632C2229.24,-124.281 743.764,-110.476 653,-80 617.393,-68.0442 583.637,-37.9224 567.28,-21.7157"/>
<polygon fill="midnightblue" stroke="midnightblue" points="2511.29,-130.134 2521.32,-126.717 2511.35,-123.135 2511.29,-130.134"/>
</g>
<!-- Node12 -->
<g id="node23" class="node"><title>Node12</title>
<a xlink:href="DisplayStates_8cpp.htm" target="_top" xlink:title="DisplayStates.cpp">
<polygon fill="white" stroke="black" points="630.5,-0.5 630.5,-21.5 731.5,-21.5 731.5,-0.5 630.5,-0.5"/>
<text text-anchor="middle" x="681" y="-8.5" font-family="Helvetica,sans-Serif" font-size="10.00">DisplayStates.cpp</text>
</a>
</g>
<!-- Node2&#45;&gt;Node12 -->
<g id="edge30" class="edge"><title>Node2&#45;&gt;Node12</title>
<path fill="none" stroke="midnightblue" d="M2511.09,-126.739C2224.87,-125.003 696.305,-114.141 663,-80 647.526,-64.1371 662.492,-36.7229 672.894,-21.6667"/>
<polygon fill="midnightblue" stroke="midnightblue" points="2511.11,-130.239 2521.13,-126.799 2511.15,-123.239 2511.11,-130.239"/>
</g>
<!-- Node13 -->
<g id="node25" class="node"><title>Node13</title>
<a xlink:href="SystemUiController_8cpp.htm" target="_top" xlink:title="SystemUiController.cpp">
<polygon fill="white" stroke="black" points="748.5,-0.5 748.5,-21.5 875.5,-21.5 875.5,-0.5 748.5,-0.5"/>
<text text-anchor="middle" x="812" y="-8.5" font-family="Helvetica,sans-Serif" font-size="10.00">SystemUiController.cpp</text>
</a>
</g>
<!-- Node2&#45;&gt;Node13 -->
<g id="edge72" class="edge"><title>Node2&#45;&gt;Node13</title>
<path fill="none" stroke="midnightblue" d="M2510.99,-126.892C2247.05,-126.129 934.61,-120.31 860,-80 836.505,-67.3065 822.073,-37.5016 815.752,-21.5357"/>
<polygon fill="midnightblue" stroke="midnightblue" points="2511.34,-130.393 2521.35,-126.921 2511.36,-123.393 2511.34,-130.393"/>
</g>
<!-- Node14 -->
<g id="node27" class="node"><title>Node14</title>
<a xlink:href="WindowServer_8cpp.htm" target="_top" xlink:title="WindowServer.cpp">
<polygon fill="white" stroke="black" points="892.5,-0.5 892.5,-21.5 997.5,-21.5 997.5,-0.5 892.5,-0.5"/>
<text text-anchor="middle" x="945" y="-8.5" font-family="Helvetica,sans-Serif" font-size="10.00">WindowServer.cpp</text>
</a>
</g>
<!-- Node2&#45;&gt;Node14 -->
<g id="edge82" class="edge"><title>Node2&#45;&gt;Node14</title>
<path fill="none" stroke="midnightblue" d="M2511.12,-126.597C2243.86,-124.14 898.452,-110.283 869,-80 847.753,-58.1537 888.801,-34.7061 918.401,-21.5439"/>
<polygon fill="midnightblue" stroke="midnightblue" points="2511.22,-130.098 2521.25,-126.689 2511.29,-123.098 2511.22,-130.098"/>
</g>
<!-- Node15 -->
<g id="node31" class="node"><title>Node15</title>
<a xlink:href="EASPolicyManager_8cpp.htm" target="_top" xlink:title="EASPolicyManager.cpp">
<polygon fill="white" stroke="black" points="877.5,-58.5 877.5,-79.5 1004.5,-79.5 1004.5,-58.5 877.5,-58.5"/>
<text text-anchor="middle" x="941" y="-66.5" font-family="Helvetica,sans-Serif" font-size="10.00">EASPolicyManager.cpp</text>
</a>
</g>
<!-- Node2&#45;&gt;Node15 -->
<g id="edge32" class="edge"><title>Node2&#45;&gt;Node15</title>
<path fill="none" stroke="midnightblue" d="M2511.27,-126.357C2288.44,-123.108 1315,-107.564 1013,-80 1010.23,-79.7471 1007.4,-79.4565 1004.55,-79.1365"/>
<polygon fill="midnightblue" stroke="midnightblue" points="2511.25,-129.857 2521.3,-126.502 2511.36,-122.857 2511.25,-129.857"/>
</g>
<!-- Node16 -->
<g id="node33" class="node"><title>Node16</title>
<a xlink:href="EventReporter_8cpp.htm" target="_top" xlink:title="EventReporter.cpp">
<polygon fill="white" stroke="black" points="1021.5,-58.5 1021.5,-79.5 1126.5,-79.5 1126.5,-58.5 1021.5,-58.5"/>
<text text-anchor="middle" x="1074" y="-66.5" font-family="Helvetica,sans-Serif" font-size="10.00">EventReporter.cpp</text>
</a>
</g>
<!-- Node2&#45;&gt;Node16 -->
<g id="edge34" class="edge"><title>Node2&#45;&gt;Node16</title>
<path fill="none" stroke="midnightblue" d="M2511.17,-126.383C2299.04,-123.387 1411.12,-109.303 1135,-80 1132.22,-79.7047 1129.37,-79.356 1126.5,-78.9677"/>
<polygon fill="midnightblue" stroke="midnightblue" points="2511.28,-129.884 2521.33,-126.525 2511.38,-122.885 2511.28,-129.884"/>
</g>
<!-- Node17 -->
<g id="node35" class="node"><title>Node17</title>
<a xlink:href="BezelGestureRecognizer_8cpp.htm" target="_top" xlink:title="BezelGestureRecognizer.cpp">
<polygon fill="white" stroke="black" points="1144,-58.5 1144,-79.5 1298,-79.5 1298,-58.5 1144,-58.5"/>
<text text-anchor="middle" x="1221" y="-66.5" font-family="Helvetica,sans-Serif" font-size="10.00">BezelGestureRecognizer.cpp</text>
</a>
</g>
<!-- Node2&#45;&gt;Node17 -->
<g id="edge36" class="edge"><title>Node2&#45;&gt;Node17</title>
<path fill="none" stroke="midnightblue" d="M2511.2,-126.758C2347.53,-125.58 1776.36,-118.763 1307,-80 1304.15,-79.7646 1301.25,-79.5036 1298.32,-79.222"/>
<polygon fill="midnightblue" stroke="midnightblue" points="2511.36,-130.259 2521.38,-126.828 2511.41,-123.26 2511.36,-130.259"/>
</g>
<!-- Node18 -->
<g id="node37" class="node"><title>Node18</title>
<a xlink:href="FlickGestureRecognizer_8cpp.htm" target="_top" xlink:title="FlickGestureRecognizer.cpp">
<polygon fill="white" stroke="black" points="1315.5,-58.5 1315.5,-79.5 1464.5,-79.5 1464.5,-58.5 1315.5,-58.5"/>
<text text-anchor="middle" x="1390" y="-66.5" font-family="Helvetica,sans-Serif" font-size="10.00">FlickGestureRecognizer.cpp</text>
</a>
</g>
<!-- Node2&#45;&gt;Node18 -->
<g id="edge38" class="edge"><title>Node2&#45;&gt;Node18</title>
<path fill="none" stroke="midnightblue" d="M2511.19,-126.462C2361.65,-124.397 1874.32,-115.224 1473,-80 1470.25,-79.7585 1467.45,-79.4923 1464.62,-79.2063"/>
<polygon fill="midnightblue" stroke="midnightblue" points="2511.32,-129.964 2521.37,-126.599 2511.42,-122.965 2511.32,-129.964"/>
</g>
<!-- Node19 -->
<g id="node39" class="node"><title>Node19</title>
<a xlink:href="HapticsController_8h.htm" target="_top" xlink:title="HapticsController.h">
<polygon fill="white" stroke="red" points="1481.5,-58.5 1481.5,-79.5 1588.5,-79.5 1588.5,-58.5 1481.5,-58.5"/>
<text text-anchor="middle" x="1535" y="-66.5" font-family="Helvetica,sans-Serif" font-size="10.00">HapticsController.h</text>
</a>
</g>
<!-- Node2&#45;&gt;Node19 -->
<g id="edge40" class="edge"><title>Node2&#45;&gt;Node19</title>
<path fill="none" stroke="midnightblue" d="M2511.14,-126.587C2373.23,-124.951 1950.3,-117.041 1602,-80 1597.66,-79.5388 1593.18,-78.9811 1588.68,-78.3644"/>
<polygon fill="midnightblue" stroke="midnightblue" points="2511.29,-130.089 2521.33,-126.703 2511.37,-123.09 2511.29,-130.089"/>
</g>
<!-- Node20 -->
<g id="node41" class="node"><title>Node20</title>
<a xlink:href="HapticsController_8cpp.htm" target="_top" xlink:title="HapticsController.cpp">
<polygon fill="white" stroke="black" points="1508,-0.5 1508,-21.5 1626,-21.5 1626,-0.5 1508,-0.5"/>
<text text-anchor="middle" x="1567" y="-8.5" font-family="Helvetica,sans-Serif" font-size="10.00">HapticsController.cpp</text>
</a>
</g>
<!-- Node2&#45;&gt;Node20 -->
<g id="edge46" class="edge"><title>Node2&#45;&gt;Node20</title>
<path fill="none" stroke="midnightblue" d="M2511.26,-126.088C2340.27,-122.473 1744.23,-107.97 1664,-80 1628.29,-67.5505 1594.07,-37.6408 1577.45,-21.5952"/>
<polygon fill="midnightblue" stroke="midnightblue" points="2511.37,-129.591 2521.44,-126.301 2511.51,-122.592 2511.37,-129.591"/>
</g>
<!-- Node21 -->
<g id="node45" class="node"><title>Node21</title>
<a xlink:href="HostArm_8cpp.htm" target="_top" xlink:title="HostArm.cpp">
<polygon fill="white" stroke="black" points="1675.5,-0.5 1675.5,-21.5 1752.5,-21.5 1752.5,-0.5 1675.5,-0.5"/>
<text text-anchor="middle" x="1714" y="-8.5" font-family="Helvetica,sans-Serif" font-size="10.00">HostArm.cpp</text>
</a>
</g>
<!-- Node2&#45;&gt;Node21 -->
<g id="edge48" class="edge"><title>Node2&#45;&gt;Node21</title>
<path fill="none" stroke="midnightblue" d="M2511.48,-126.297C2334.7,-123.349 1702.1,-110.685 1673,-80 1656.03,-62.103 1682.13,-35.9693 1699.85,-21.5442"/>
<polygon fill="midnightblue" stroke="midnightblue" points="2511.43,-129.797 2521.49,-126.462 2511.55,-122.798 2511.43,-129.797"/>
</g>
<!-- Node22 -->
<g id="node47" class="node"><title>Node22</title>
<a xlink:href="HostArm_8h.htm" target="_top" xlink:title="HostArm.h">
<polygon fill="white" stroke="red" points="1681.5,-58.5 1681.5,-79.5 1746.5,-79.5 1746.5,-58.5 1681.5,-58.5"/>
<text text-anchor="middle" x="1714" y="-66.5" font-family="Helvetica,sans-Serif" font-size="10.00">HostArm.h</text>
</a>
</g>
<!-- Node2&#45;&gt;Node22 -->
<g id="edge50" class="edge"><title>Node2&#45;&gt;Node22</title>
<path fill="none" stroke="midnightblue" d="M2511.45,-125.551C2364.25,-120.678 1902.4,-103.837 1755,-80 1752.24,-79.5529 1749.39,-78.9962 1746.54,-78.3722"/>
<polygon fill="midnightblue" stroke="midnightblue" points="2511.38,-129.051 2521.49,-125.881 2511.61,-122.055 2511.38,-129.051"/>
</g>
<!-- Node23 -->
<g id="node50" class="node"><title>Node23</title>
<a xlink:href="HostBase_8cpp.htm" target="_top" xlink:title="HostBase.cpp">
<polygon fill="white" stroke="black" points="1764,-58.5 1764,-79.5 1846,-79.5 1846,-58.5 1764,-58.5"/>
<text text-anchor="middle" x="1805" y="-66.5" font-family="Helvetica,sans-Serif" font-size="10.00">HostBase.cpp</text>
</a>
</g>
<!-- Node2&#45;&gt;Node23 -->
<g id="edge54" class="edge"><title>Node2&#45;&gt;Node23</title>
<path fill="none" stroke="midnightblue" d="M2511.08,-126.3C2398.63,-124.071 2100.71,-115.052 1855,-80 1852.1,-79.5858 1849.11,-79.0955 1846.11,-78.5558"/>
<polygon fill="midnightblue" stroke="midnightblue" points="2511.31,-129.805 2521.38,-126.495 2511.44,-122.806 2511.31,-129.805"/>
</g>
<!-- Node24 -->
<g id="node52" class="node"><title>Node24</title>
<a xlink:href="HostQtDesktop_8h.htm" target="_top" xlink:title="HostQtDesktop.h">
<polygon fill="white" stroke="red" points="1863.5,-58.5 1863.5,-79.5 1960.5,-79.5 1960.5,-58.5 1863.5,-58.5"/>
<text text-anchor="middle" x="1912" y="-66.5" font-family="Helvetica,sans-Serif" font-size="10.00">HostQtDesktop.h</text>
</a>
</g>
<!-- Node2&#45;&gt;Node24 -->
<g id="edge56" class="edge"><title>Node2&#45;&gt;Node24</title>
<path fill="none" stroke="midnightblue" d="M2511.12,-125.067C2411.87,-120.505 2169.95,-107.336 1969,-80 1966.3,-79.6332 1963.54,-79.2214 1960.76,-78.7782"/>
<polygon fill="midnightblue" stroke="midnightblue" points="2511.24,-128.576 2521.39,-125.531 2511.56,-121.583 2511.24,-128.576"/>
</g>
<!-- Node25 -->
<g id="node54" class="node"><title>Node25</title>
<a xlink:href="InputManager_8cpp.htm" target="_top" xlink:title="InputManager.cpp">
<polygon fill="white" stroke="black" points="1978,-58.5 1978,-79.5 2080,-79.5 2080,-58.5 1978,-58.5"/>
<text text-anchor="middle" x="2029" y="-66.5" font-family="Helvetica,sans-Serif" font-size="10.00">InputManager.cpp</text>
</a>
</g>
<!-- Node2&#45;&gt;Node25 -->
<g id="edge58" class="edge"><title>Node2&#45;&gt;Node25</title>
<path fill="none" stroke="midnightblue" d="M2511.14,-123.638C2427.16,-117.206 2243.1,-101.827 2089,-80 2086.06,-79.5841 2083.05,-79.1277 2080.02,-78.6444"/>
<polygon fill="midnightblue" stroke="midnightblue" points="2511.13,-127.147 2521.36,-124.415 2511.66,-120.167 2511.13,-127.147"/>
</g>
<!-- Node26 -->
<g id="node56" class="node"><title>Node26</title>
<a xlink:href="MemoryMonitor_8cpp.htm" target="_top" xlink:title="MemoryMonitor.cpp">
<polygon fill="white" stroke="black" points="2098,-58.5 2098,-79.5 2208,-79.5 2208,-58.5 2098,-58.5"/>
<text text-anchor="middle" x="2153" y="-66.5" font-family="Helvetica,sans-Serif" font-size="10.00">MemoryMonitor.cpp</text>
</a>
</g>
<!-- Node2&#45;&gt;Node26 -->
<g id="edge60" class="edge"><title>Node2&#45;&gt;Node26</title>
<path fill="none" stroke="midnightblue" d="M2511.23,-121.159C2445.88,-112.707 2322.08,-96.2892 2217,-80 2214.1,-79.551 2211.13,-79.0797 2208.14,-78.5953"/>
<polygon fill="midnightblue" stroke="midnightblue" points="2510.84,-124.637 2521.21,-122.446 2511.74,-117.695 2510.84,-124.637"/>
</g>
<!-- Node27 -->
<g id="node58" class="node"><title>Node27</title>
<a xlink:href="ProgressAnimation_8cpp.htm" target="_top" xlink:title="ProgressAnimation.cpp">
<polygon fill="white" stroke="black" points="2225.5,-58.5 2225.5,-79.5 2350.5,-79.5 2350.5,-58.5 2225.5,-58.5"/>
<text text-anchor="middle" x="2288" y="-66.5" font-family="Helvetica,sans-Serif" font-size="10.00">ProgressAnimation.cpp</text>
</a>
</g>
<!-- Node2&#45;&gt;Node27 -->
<g id="edge62" class="edge"><title>Node2&#45;&gt;Node27</title>
<path fill="none" stroke="midnightblue" d="M2511.39,-117.167C2463,-106.732 2386.8,-90.3028 2337.11,-79.5893"/>
<polygon fill="midnightblue" stroke="midnightblue" points="2510.77,-120.612 2521.28,-119.298 2512.24,-113.769 2510.77,-120.612"/>
</g>
<!-- Node28 -->
<g id="node60" class="node"><title>Node28</title>
<a xlink:href="Security_8cpp.htm" target="_top" xlink:title="Security.cpp">
<polygon fill="white" stroke="black" points="2368,-58.5 2368,-79.5 2442,-79.5 2442,-58.5 2368,-58.5"/>
<text text-anchor="middle" x="2405" y="-66.5" font-family="Helvetica,sans-Serif" font-size="10.00">Security.cpp</text>
</a>
</g>
<!-- Node2&#45;&gt;Node28 -->
<g id="edge64" class="edge"><title>Node2&#45;&gt;Node28</title>
<path fill="none" stroke="midnightblue" d="M2519.98,-112.874C2493.01,-102.582 2457.05,-88.862 2432.58,-79.5231"/>
<polygon fill="midnightblue" stroke="midnightblue" points="2518.88,-116.202 2529.47,-116.497 2521.38,-109.661 2518.88,-116.202"/>
</g>
<!-- Node29 -->
<g id="node62" class="node"><title>Node29</title>
<a xlink:href="DeviceInfo_8cpp.htm" target="_top" xlink:title="DeviceInfo.cpp">
<polygon fill="white" stroke="black" points="2460,-58.5 2460,-79.5 2546,-79.5 2546,-58.5 2460,-58.5"/>
<text text-anchor="middle" x="2503" y="-66.5" font-family="Helvetica,sans-Serif" font-size="10.00">DeviceInfo.cpp</text>
</a>
</g>
<!-- Node2&#45;&gt;Node29 -->
<g id="edge66" class="edge"><title>Node2&#45;&gt;Node29</title>
<path fill="none" stroke="midnightblue" d="M2540.08,-108.83C2531.12,-99.2078 2520.44,-87.7282 2512.84,-79.5707"/>
<polygon fill="midnightblue" stroke="midnightblue" points="2537.72,-111.428 2547.1,-116.362 2542.84,-106.658 2537.72,-111.428"/>
</g>
<!-- Node30 -->
<g id="node64" class="node"><title>Node30</title>
<a xlink:href="Preferences_8cpp.htm" target="_top" xlink:title="Preferences.cpp">
<polygon fill="white" stroke="black" points="2564,-58.5 2564,-79.5 2658,-79.5 2658,-58.5 2564,-58.5"/>
<text text-anchor="middle" x="2611" y="-66.5" font-family="Helvetica,sans-Serif" font-size="10.00">Preferences.cpp</text>
</a>
</g>
<!-- Node2&#45;&gt;Node30 -->
<g id="edge68" class="edge"><title>Node2&#45;&gt;Node30</title>
<path fill="none" stroke="midnightblue" d="M2573.92,-108.83C2582.88,-99.2078 2593.56,-87.7282 2601.16,-79.5707"/>
<polygon fill="midnightblue" stroke="midnightblue" points="2571.16,-106.658 2566.9,-116.362 2576.28,-111.428 2571.16,-106.658"/>
</g>
<!-- Node31 -->
<g id="node66" class="node"><title>Node31</title>
<a xlink:href="SystemService_8cpp.htm" target="_top" xlink:title="SystemService.cpp">
<polygon fill="white" stroke="black" points="2676,-58.5 2676,-79.5 2782,-79.5 2782,-58.5 2676,-58.5"/>
<text text-anchor="middle" x="2729" y="-66.5" font-family="Helvetica,sans-Serif" font-size="10.00">SystemService.cpp</text>
</a>
</g>
<!-- Node2&#45;&gt;Node31 -->
<g id="edge70" class="edge"><title>Node2&#45;&gt;Node31</title>
<path fill="none" stroke="midnightblue" d="M2597.69,-113.279C2628.34,-102.944 2669.73,-88.9849 2697.79,-79.5231"/>
<polygon fill="midnightblue" stroke="midnightblue" points="2596.51,-109.985 2588.15,-116.497 2598.74,-116.618 2596.51,-109.985"/>
</g>
<!-- Node32 -->
<g id="node69" class="node"><title>Node32</title>
<a xlink:href="TouchToShareGlow_8cpp.htm" target="_top" xlink:title="TouchToShareGlow.cpp">
<polygon fill="white" stroke="black" points="2799.5,-58.5 2799.5,-79.5 2930.5,-79.5 2930.5,-58.5 2799.5,-58.5"/>
<text text-anchor="middle" x="2865" y="-66.5" font-family="Helvetica,sans-Serif" font-size="10.00">TouchToShareGlow.cpp</text>
</a>
</g>
<!-- Node2&#45;&gt;Node32 -->
<g id="edge74" class="edge"><title>Node2&#45;&gt;Node32</title>
<path fill="none" stroke="midnightblue" d="M2602.78,-118.378C2657.79,-108.021 2750.02,-90.6518 2809.15,-79.5164"/>
<polygon fill="midnightblue" stroke="midnightblue" points="2601.81,-115 2592.63,-120.29 2603.11,-121.879 2601.81,-115"/>
</g>
<!-- Node33 -->
<g id="node71" class="node"><title>Node33</title>
<a xlink:href="WSOverlayScreenShotAnimation_8cpp.htm" target="_top" xlink:title="WSOverlayScreenShotAnimation.cpp">
<polygon fill="white" stroke="black" points="2947.5,-58.5 2947.5,-79.5 3138.5,-79.5 3138.5,-58.5 2947.5,-58.5"/>
<text text-anchor="middle" x="3043" y="-66.5" font-family="Helvetica,sans-Serif" font-size="10.00">WSOverlayScreenShotAnimation.cpp</text>
</a>
</g>
<!-- Node2&#45;&gt;Node33 -->
<g id="edge76" class="edge"><title>Node2&#45;&gt;Node33</title>
<path fill="none" stroke="midnightblue" d="M2603.04,-121.506C2683.54,-111.898 2851.16,-91.8946 2954.68,-79.5404"/>
<polygon fill="midnightblue" stroke="midnightblue" points="2602.25,-118.075 2592.74,-122.735 2603.08,-125.025 2602.25,-118.075"/>
</g>
<!-- Node34 -->
<g id="node73" class="node"><title>Node34</title>
<a xlink:href="HostWindowDataOpenGL_8cpp.htm" target="_top" xlink:title="HostWindowDataOpenGL.cpp">
<polygon fill="white" stroke="black" points="3156,-58.5 3156,-79.5 3314,-79.5 3314,-58.5 3156,-58.5"/>
<text text-anchor="middle" x="3235" y="-66.5" font-family="Helvetica,sans-Serif" font-size="10.00">HostWindowDataOpenGL.cpp</text>
</a>
</g>
<!-- Node2&#45;&gt;Node34 -->
<g id="edge78" class="edge"><title>Node2&#45;&gt;Node34</title>
<path fill="none" stroke="midnightblue" d="M2602.61,-124.067C2701.77,-117.536 2944.36,-100.726 3147,-80 3149.91,-79.7024 3152.87,-79.3883 3155.86,-79.0619"/>
<polygon fill="midnightblue" stroke="midnightblue" points="2602.38,-120.574 2592.63,-124.721 2602.84,-127.559 2602.38,-120.574"/>
</g>
<!-- Node35 -->
<g id="node75" class="node"><title>Node35</title>
<a xlink:href="HostWindowDataOpenGLTextureShared_8cpp.htm" target="_top" xlink:title="HostWindowDataOpenGLTextureShared.cpp">
<polygon fill="white" stroke="black" points="3331.5,-58.5 3331.5,-79.5 3560.5,-79.5 3560.5,-58.5 3331.5,-58.5"/>
<text text-anchor="middle" x="3446" y="-66.5" font-family="Helvetica,sans-Serif" font-size="10.00">HostWindowDataOpenGLTextureShared.cpp</text>
</a>
</g>
<!-- Node2&#45;&gt;Node35 -->
<g id="edge80" class="edge"><title>Node2&#45;&gt;Node35</title>
<path fill="none" stroke="midnightblue" d="M2602.71,-124.642C2721.54,-118.414 3049.91,-100.585 3323,-80 3325.78,-79.7905 3328.59,-79.5739 3331.43,-79.3515"/>
<polygon fill="midnightblue" stroke="midnightblue" points="2602.33,-121.156 2592.53,-125.174 2602.7,-128.147 2602.33,-121.156"/>
</g>
<!-- Node36 -->
<g id="node78" class="node"><title>Node36</title>
<a xlink:href="SyncTask_8cpp.htm" target="_top" xlink:title="SyncTask.cpp">
<polygon fill="white" stroke="black" points="3577.5,-58.5 3577.5,-79.5 3660.5,-79.5 3660.5,-58.5 3577.5,-58.5"/>
<text text-anchor="middle" x="3619" y="-66.5" font-family="Helvetica,sans-Serif" font-size="10.00">SyncTask.cpp</text>
</a>
</g>
<!-- Node2&#45;&gt;Node36 -->
<g id="edge84" class="edge"><title>Node2&#45;&gt;Node36</title>
<path fill="none" stroke="midnightblue" d="M2602.83,-125.909C2774.34,-121.664 3378.25,-105.225 3569,-80 3571.73,-79.6388 3574.53,-79.2037 3577.35,-78.718"/>
<polygon fill="midnightblue" stroke="midnightblue" points="2602.54,-122.415 2592.63,-126.159 2602.71,-129.413 2602.54,-122.415"/>
</g>
<!-- Node37 -->
<g id="node80" class="node"><title>Node37</title>
<a xlink:href="CandidateBarRemote_8cpp.htm" target="_top" xlink:title="CandidateBarRemote.cpp">
<polygon fill="white" stroke="black" points="3678,-58.5 3678,-79.5 3816,-79.5 3816,-58.5 3678,-58.5"/>
<text text-anchor="middle" x="3747" y="-66.5" font-family="Helvetica,sans-Serif" font-size="10.00">CandidateBarRemote.cpp</text>
</a>
</g>
<!-- Node2&#45;&gt;Node37 -->
<g id="edge86" class="edge"><title>Node2&#45;&gt;Node37</title>
<path fill="none" stroke="midnightblue" d="M2602.96,-126.667C2755.16,-125.221 3256.53,-117.71 3669,-80 3671.86,-79.7385 3674.78,-79.4459 3677.72,-79.1291"/>
<polygon fill="midnightblue" stroke="midnightblue" points="2602.58,-123.17 2592.61,-126.761 2602.64,-130.17 2602.58,-123.17"/>
</g>
<!-- Node38 -->
<g id="node82" class="node"><title>Node38</title>
<a xlink:href="IMEController_8cpp.htm" target="_top" xlink:title="IMEController.cpp">
<polygon fill="white" stroke="black" points="3833.5,-58.5 3833.5,-79.5 3934.5,-79.5 3934.5,-58.5 3833.5,-58.5"/>
<text text-anchor="middle" x="3884" y="-66.5" font-family="Helvetica,sans-Serif" font-size="10.00">IMEController.cpp</text>
</a>
</g>
<!-- Node2&#45;&gt;Node38 -->
<g id="edge88" class="edge"><title>Node2&#45;&gt;Node38</title>
<path fill="none" stroke="midnightblue" d="M2602.58,-126.211C2799.83,-122.66 3580.87,-107.133 3825,-80 3827.69,-79.7008 3830.45,-79.3488 3833.22,-78.958"/>
<polygon fill="midnightblue" stroke="midnightblue" points="2602.5,-122.712 2592.56,-126.39 2602.62,-129.711 2602.5,-122.712"/>
</g>
<!-- Node39 -->
<g id="node84" class="node"><title>Node39</title>
<a xlink:href="IMEView_8cpp.htm" target="_top" xlink:title="IMEView.cpp">
<polygon fill="white" stroke="black" points="3951.5,-58.5 3951.5,-79.5 4028.5,-79.5 4028.5,-58.5 3951.5,-58.5"/>
<text text-anchor="middle" x="3990" y="-66.5" font-family="Helvetica,sans-Serif" font-size="10.00">IMEView.cpp</text>
</a>
</g>
<!-- Node2&#45;&gt;Node39 -->
<g id="edge90" class="edge"><title>Node2&#45;&gt;Node39</title>
<path fill="none" stroke="midnightblue" d="M2602.73,-126.654C2811.47,-124.889 3675.14,-115.538 3943,-80 3945.74,-79.6363 3948.56,-79.1836 3951.38,-78.6708"/>
<polygon fill="midnightblue" stroke="midnightblue" points="2602.7,-123.154 2592.72,-126.737 2602.75,-130.154 2602.7,-123.154"/>
</g>
<!-- Node40 -->
<g id="node86" class="node"><title>Node40</title>
<a xlink:href="InputWindowManager_8cpp.htm" target="_top" xlink:title="InputWindowManager.cpp">
<polygon fill="white" stroke="black" points="4046,-58.5 4046,-79.5 4186,-79.5 4186,-58.5 4046,-58.5"/>
<text text-anchor="middle" x="4116" y="-66.5" font-family="Helvetica,sans-Serif" font-size="10.00">InputWindowManager.cpp</text>
</a>
</g>
<!-- Node2&#45;&gt;Node40 -->
<g id="edge92" class="edge"><title>Node2&#45;&gt;Node40</title>
<path fill="none" stroke="midnightblue" d="M2602.91,-126.203C2820.38,-122.324 3748.28,-104.614 4037,-80 4039.9,-79.753 4042.85,-79.4725 4045.83,-79.1656"/>
<polygon fill="midnightblue" stroke="midnightblue" points="2602.74,-122.705 2592.81,-126.382 2602.87,-129.704 2602.74,-122.705"/>
</g>
<!-- Node41 -->
<g id="node88" class="node"><title>Node41</title>
<a xlink:href="SysmgrIMEDataInterface_8cpp.htm" target="_top" xlink:title="SysmgrIMEDataInterface.cpp">
<polygon fill="white" stroke="black" points="4203.5,-58.5 4203.5,-79.5 4358.5,-79.5 4358.5,-58.5 4203.5,-58.5"/>
<text text-anchor="middle" x="4281" y="-66.5" font-family="Helvetica,sans-Serif" font-size="10.00">SysmgrIMEDataInterface.cpp</text>
</a>
</g>
<!-- Node2&#45;&gt;Node41 -->
<g id="edge94" class="edge"><title>Node2&#45;&gt;Node41</title>
<path fill="none" stroke="midnightblue" d="M2602.87,-126.296C2834.05,-122.653 3873.07,-105.146 4195,-80 4197.7,-79.789 4200.45,-79.5533 4203.22,-79.2974"/>
<polygon fill="midnightblue" stroke="midnightblue" points="2602.73,-122.797 2592.79,-126.454 2602.84,-129.797 2602.73,-122.797"/>
</g>
<!-- Node42 -->
<g id="node90" class="node"><title>Node42</title>
<a xlink:href="hiddkbd__qws_8cpp.htm" target="_top" xlink:title="hiddkbd_qws.cpp">
<polygon fill="white" stroke="black" points="4376,-58.5 4376,-79.5 4474,-79.5 4474,-58.5 4376,-58.5"/>
<text text-anchor="middle" x="4425" y="-66.5" font-family="Helvetica,sans-Serif" font-size="10.00">hiddkbd_qws.cpp</text>
</a>
</g>
<!-- Node2&#45;&gt;Node42 -->
<g id="edge96" class="edge"><title>Node2&#45;&gt;Node42</title>
<path fill="none" stroke="midnightblue" d="M2602.88,-126.813C2848.48,-125.66 4009.94,-118.242 4367,-80 4369.85,-79.6944 4372.78,-79.3241 4375.72,-78.9068"/>
<polygon fill="midnightblue" stroke="midnightblue" points="2602.52,-123.315 2592.54,-126.86 2602.55,-130.315 2602.52,-123.315"/>
</g>
<!-- Node43 -->
<g id="node92" class="node"><title>Node43</title>
<a xlink:href="hiddtp__qws_8cpp.htm" target="_top" xlink:title="hiddtp_qws.cpp">
<polygon fill="white" stroke="black" points="4492,-58.5 4492,-79.5 4582,-79.5 4582,-58.5 4492,-58.5"/>
<text text-anchor="middle" x="4537" y="-66.5" font-family="Helvetica,sans-Serif" font-size="10.00">hiddtp_qws.cpp</text>
</a>
</g>
<!-- Node2&#45;&gt;Node43 -->
<g id="edge98" class="edge"><title>Node2&#45;&gt;Node43</title>
<path fill="none" stroke="midnightblue" d="M2602.89,-126.366C2876.85,-122.517 4291.03,-101.722 4483,-80 4485.85,-79.6773 4488.78,-79.2791 4491.72,-78.8277"/>
<polygon fill="midnightblue" stroke="midnightblue" points="2602.47,-122.872 2592.52,-126.511 2602.57,-129.871 2602.47,-122.872"/>
</g>
<!-- Node44 -->
<g id="node94" class="node"><title>Node44</title>
<a xlink:href="CardHostWindow_8cpp.htm" target="_top" xlink:title="CardHostWindow.cpp">
<polygon fill="white" stroke="black" points="4599.5,-58.5 4599.5,-79.5 4718.5,-79.5 4718.5,-58.5 4599.5,-58.5"/>
<text text-anchor="middle" x="4659" y="-66.5" font-family="Helvetica,sans-Serif" font-size="10.00">CardHostWindow.cpp</text>
</a>
</g>
<!-- Node2&#45;&gt;Node44 -->
<g id="edge100" class="edge"><title>Node2&#45;&gt;Node44</title>
<path fill="none" stroke="midnightblue" d="M2602.95,-126.797C2866.31,-125.501 4186.4,-117.222 4591,-80 4593.74,-79.748 4596.53,-79.4525 4599.35,-79.1234"/>
<polygon fill="midnightblue" stroke="midnightblue" points="2602.6,-123.298 2592.62,-126.847 2602.63,-130.298 2602.6,-123.298"/>
</g>
<!-- Node45 -->
<g id="node96" class="node"><title>Node45</title>
<a xlink:href="CardWindow_8cpp.htm" target="_top" xlink:title="CardWindow.cpp">
<polygon fill="white" stroke="black" points="4735.5,-58.5 4735.5,-79.5 4832.5,-79.5 4832.5,-58.5 4735.5,-58.5"/>
<text text-anchor="middle" x="4784" y="-66.5" font-family="Helvetica,sans-Serif" font-size="10.00">CardWindow.cpp</text>
</a>
</g>
<!-- Node2&#45;&gt;Node45 -->
<g id="edge102" class="edge"><title>Node2&#45;&gt;Node45</title>
<path fill="none" stroke="midnightblue" d="M2602.99,-126.471C2897.1,-123.028 4509.2,-103.206 4727,-80 4729.71,-79.7117 4732.47,-79.3618 4735.26,-78.9666"/>
<polygon fill="midnightblue" stroke="midnightblue" points="2602.65,-122.975 2592.69,-126.591 2602.73,-129.974 2602.65,-122.975"/>
</g>
<!-- Node46 -->
<g id="node98" class="node"><title>Node46</title>
<a xlink:href="CardWindowManager_8cpp.htm" target="_top" xlink:title="CardWindowManager.cpp">
<polygon fill="white" stroke="black" points="4850,-58.5 4850,-79.5 4990,-79.5 4990,-58.5 4850,-58.5"/>
<text text-anchor="middle" x="4920" y="-66.5" font-family="Helvetica,sans-Serif" font-size="10.00">CardWindowManager.cpp</text>
</a>
</g>
<!-- Node2&#45;&gt;Node46 -->
<g id="edge104" class="edge"><title>Node2&#45;&gt;Node46</title>
<path fill="none" stroke="midnightblue" d="M2603.1,-126.793C2885.36,-125.411 4383.33,-116.445 4841,-80 4843.9,-79.7692 4846.85,-79.5022 4849.84,-79.2065"/>
<polygon fill="midnightblue" stroke="midnightblue" points="2602.8,-123.294 2592.81,-126.842 2602.83,-130.294 2602.8,-123.294"/>
</g>
<!-- Node47 -->
<g id="node100" class="node"><title>Node47</title>
<a xlink:href="DockModeAppMenuContainer_8cpp.htm" target="_top" xlink:title="DockModeAppMenuContainer.cpp">
<polygon fill="white" stroke="black" points="5007.5,-58.5 5007.5,-79.5 5186.5,-79.5 5186.5,-58.5 5007.5,-58.5"/>
<text text-anchor="middle" x="5097" y="-66.5" font-family="Helvetica,sans-Serif" font-size="10.00">DockModeAppMenuContainer.cpp</text>
</a>
</g>
<!-- Node2&#45;&gt;Node47 -->
<g id="edge106" class="edge"><title>Node2&#45;&gt;Node47</title>
<path fill="none" stroke="midnightblue" d="M2602.98,-126.697C2896.14,-124.679 4507.37,-112.253 4999,-80 5001.73,-79.8207 5004.51,-79.6208 5007.31,-79.4036"/>
<polygon fill="midnightblue" stroke="midnightblue" points="2602.7,-123.199 2592.72,-126.767 2602.74,-130.199 2602.7,-123.199"/>
</g>
<!-- Node48 -->
<g id="node102" class="node"><title>Node48</title>
<a xlink:href="DockModeClock_8cpp.htm" target="_top" xlink:title="DockModeClock.cpp">
<polygon fill="white" stroke="black" points="5203.5,-58.5 5203.5,-79.5 5316.5,-79.5 5316.5,-58.5 5203.5,-58.5"/>
<text text-anchor="middle" x="5260" y="-66.5" font-family="Helvetica,sans-Serif" font-size="10.00">DockModeClock.cpp</text>
</a>
</g>
<!-- Node2&#45;&gt;Node48 -->
<g id="edge108" class="edge"><title>Node2&#45;&gt;Node48</title>
<path fill="none" stroke="midnightblue" d="M2602.66,-126.6C2931.06,-123.666 4927.25,-104.9 5195,-80 5197.74,-79.7457 5200.53,-79.4423 5203.35,-79.1014"/>
<polygon fill="midnightblue" stroke="midnightblue" points="2602.53,-123.101 2592.56,-126.69 2602.59,-130.1 2602.53,-123.101"/>
</g>
<!-- Node49 -->
<g id="node104" class="node"><title>Node49</title>
<a xlink:href="DockModeLaunchPoint_8cpp.htm" target="_top" xlink:title="DockModeLaunchPoint.cpp">
<polygon fill="white" stroke="black" points="5334,-58.5 5334,-79.5 5480,-79.5 5480,-58.5 5334,-58.5"/>
<text text-anchor="middle" x="5407" y="-66.5" font-family="Helvetica,sans-Serif" font-size="10.00">DockModeLaunchPoint.cpp</text>
</a>
</g>
<!-- Node2&#45;&gt;Node49 -->
<g id="edge110" class="edge"><title>Node2&#45;&gt;Node49</title>
<path fill="none" stroke="midnightblue" d="M2603.02,-126.953C2918.39,-126.521 4764.63,-122.199 5325,-80 5327.86,-79.7843 5330.78,-79.5351 5333.73,-79.2591"/>
<polygon fill="midnightblue" stroke="midnightblue" points="2602.86,-123.453 2592.87,-126.966 2602.87,-130.453 2602.86,-123.453"/>
</g>
<!-- Node10&#45;&gt;Node11 -->
<g id="edge20" class="edge"><title>Node10&#45;&gt;Node11</title>
<path fill="none" stroke="midnightblue" d="M687.546,-55.2787C657.075,-44.9437 615.921,-30.9849 588.025,-21.5231"/>
<polygon fill="midnightblue" stroke="midnightblue" points="686.439,-58.599 697.033,-58.4966 688.687,-51.97 686.439,-58.599"/>
</g>
<!-- Node10&#45;&gt;Node12 -->
<g id="edge22" class="edge"><title>Node10&#45;&gt;Node12</title>
<path fill="none" stroke="midnightblue" d="M713.042,-50.5407C705.293,-40.9786 696.11,-29.6467 689.566,-21.5707"/>
<polygon fill="midnightblue" stroke="midnightblue" points="710.364,-52.7961 719.379,-58.3619 715.803,-48.389 710.364,-52.7961"/>
</g>
<!-- Node10&#45;&gt;Node13 -->
<g id="edge24" class="edge"><title>Node10&#45;&gt;Node13</title>
<path fill="none" stroke="midnightblue" d="M751.838,-52.5407C766.238,-42.5973 784.167,-30.2177 796.691,-21.5707"/>
<polygon fill="midnightblue" stroke="midnightblue" points="749.647,-49.7998 743.407,-58.3619 753.625,-55.5601 749.647,-49.7998"/>
</g>
<!-- Node10&#45;&gt;Node14 -->
<g id="edge26" class="edge"><title>Node10&#45;&gt;Node14</title>
<path fill="none" stroke="midnightblue" d="M777.34,-55.8123C816.19,-45.4285 869.616,-31.1487 905.629,-21.5231"/>
<polygon fill="midnightblue" stroke="midnightblue" points="776.054,-52.5331 767.297,-58.4966 777.862,-59.2957 776.054,-52.5331"/>
</g>
<!-- Node19&#45;&gt;Node14 -->
<g id="edge44" class="edge"><title>Node19&#45;&gt;Node14</title>
<path fill="none" stroke="midnightblue" d="M1471.14,-57.8357C1292.03,-34.4102 1091.02,-20.1147 997.626,-14.1656"/>
<polygon fill="midnightblue" stroke="midnightblue" points="1470.9,-61.3346 1481.28,-59.1741 1471.82,-54.3948 1470.9,-61.3346"/>
</g>
<!-- Node19&#45;&gt;Node20 -->
<g id="edge42" class="edge"><title>Node19&#45;&gt;Node20</title>
<path fill="none" stroke="midnightblue" d="M1545.83,-49.3733C1550.96,-40.0682 1556.89,-29.3204 1561.17,-21.5707"/>
<polygon fill="midnightblue" stroke="midnightblue" points="1542.64,-47.9153 1540.87,-58.3619 1548.76,-51.2969 1542.64,-47.9153"/>
</g>
<!-- Node22&#45;&gt;Node21 -->
<g id="edge52" class="edge"><title>Node22&#45;&gt;Node21</title>
<path fill="none" stroke="midnightblue" d="M1714,-48.1906C1714,-39.1684 1714,-28.9941 1714,-21.5707"/>
<polygon fill="midnightblue" stroke="midnightblue" points="1710.5,-48.3619 1714,-58.3619 1717.5,-48.3619 1710.5,-48.3619"/>
</g>
<!-- Node50&#45;&gt;Node21 -->
<g id="edge114" class="edge"><title>Node50&#45;&gt;Node21</title>
<path fill="none" stroke="midnightblue" d="M4411.64,-126.398C4700.92,-123.342 5945.27,-108.55 5973,-80 5979.81,-72.9866 5979.88,-64.952 5973,-58 5933.75,-18.312 2176.41,-11.6753 1752.74,-11.0529"/>
<polygon fill="midnightblue" stroke="midnightblue" points="4411.32,-122.902 4401.35,-126.506 4411.39,-129.901 4411.32,-122.902"/>
</g>
</g>
</svg>
