<?xml version="1.0" encoding="UTF-8" standalone="no"?>
<!DOCTYPE svg PUBLIC "-//W3C//DTD SVG 1.1//EN"
 "http://www.w3.org/Graphics/SVG/1.1/DTD/svg11.dtd">
<!-- Generated by graphviz version 2.26.3 (20100126.1600)
 -->
<!-- Title: G Pages: 1 -->
<svg width="2041pt" height="320pt"
 viewBox="0.00 0.00 2041.00 320.00" xmlns="http://www.w3.org/2000/svg" xmlns:xlink="http://www.w3.org/1999/xlink">
<g id="graph1" class="graph" transform="scale(1 1) rotate(0) translate(4 316)">
<title>G</title>
<polygon fill="white" stroke="white" points="-4,5 -4,-316 2038,-316 2038,5 -4,5"/>
<!-- Node1 -->
<g id="node1" class="node"><title>Node1</title>
<polygon fill="#bfbfbf" stroke="black" points="699,-290.5 699,-311.5 801,-311.5 801,-290.5 699,-290.5"/>
<text text-anchor="middle" x="750" y="-298.5" font-family="Helvetica,sans-Serif" font-size="10.00">InputManager.cpp</text>
</g>
<!-- Node2 -->
<g id="node3" class="node"><title>Node2</title>
<a xlink:href="InputManager_8h.htm" target="_top" xlink:title="InputManager.h">
<polygon fill="white" stroke="black" points="815.5,-174.5 815.5,-195.5 906.5,-195.5 906.5,-174.5 815.5,-174.5"/>
<text text-anchor="middle" x="861" y="-182.5" font-family="Helvetica,sans-Serif" font-size="10.00">InputManager.h</text>
</a>
</g>
<!-- Node1&#45;&gt;Node2 -->
<g id="edge2" class="edge"><title>Node1&#45;&gt;Node2</title>
<path fill="none" stroke="midnightblue" d="M762.816,-290.228C773.607,-280.971 789.272,-267.083 802,-254 817.837,-237.721 834.538,-217.908 846.113,-203.696"/>
<polygon fill="midnightblue" stroke="midnightblue" points="849.048,-205.633 852.604,-195.653 843.6,-201.236 849.048,-205.633"/>
</g>
<!-- Node3 -->
<g id="node5" class="node"><title>Node3</title>
<a xlink:href="Common_8h.htm" target="_top" xlink:title="Common.h">
<polygon fill="white" stroke="black" points="880.5,-0.5 880.5,-21.5 947.5,-21.5 947.5,-0.5 880.5,-0.5"/>
<text text-anchor="middle" x="914" y="-8.5" font-family="Helvetica,sans-Serif" font-size="10.00">Common.h</text>
</a>
</g>
<!-- Node1&#45;&gt;Node3 -->
<g id="edge24" class="edge"><title>Node1&#45;&gt;Node3</title>
<path fill="none" stroke="midnightblue" d="M698.966,-299.375C572.703,-294.981 248.384,-281.313 144,-254 75.3434,-236.036 0,-255.968 0,-185 0,-185 0,-185 0,-127 0,-38.1512 688.498,-16.1487 870.376,-11.8864"/>
<polygon fill="midnightblue" stroke="midnightblue" points="870.469,-15.3853 880.386,-11.6579 870.309,-8.38714 870.469,-15.3853"/>
</g>
<!-- Node4 -->
<g id="node7" class="node"><title>Node4</title>
<polygon fill="white" stroke="#bfbfbf" points="293.5,-116.5 293.5,-137.5 336.5,-137.5 336.5,-116.5 293.5,-116.5"/>
<text text-anchor="middle" x="315" y="-124.5" font-family="Helvetica,sans-Serif" font-size="10.00">string</text>
</g>
<!-- Node1&#45;&gt;Node4 -->
<g id="edge166" class="edge"><title>Node1&#45;&gt;Node4</title>
<path fill="none" stroke="midnightblue" d="M698.711,-291.07C630.357,-276.53 506.883,-245.652 411,-196 382.866,-181.431 353.757,-159.345 335.078,-144.104"/>
<polygon fill="midnightblue" stroke="midnightblue" points="337.203,-141.32 327.27,-137.634 332.737,-146.71 337.203,-141.32"/>
</g>
<!-- Node5 -->
<g id="node9" class="node"><title>Node5</title>
<polygon fill="white" stroke="#bfbfbf" points="777.5,-116.5 777.5,-137.5 814.5,-137.5 814.5,-116.5 777.5,-116.5"/>
<text text-anchor="middle" x="796" y="-124.5" font-family="Helvetica,sans-Serif" font-size="10.00">map</text>
</g>
<!-- Node1&#45;&gt;Node5 -->
<g id="edge164" class="edge"><title>Node1&#45;&gt;Node5</title>
<path fill="none" stroke="midnightblue" d="M752.808,-290.377C760.265,-262.172 780.663,-185.012 790.522,-147.72"/>
<polygon fill="midnightblue" stroke="midnightblue" points="793.939,-148.49 793.111,-137.928 787.171,-146.701 793.939,-148.49"/>
</g>
<!-- Node10 -->
<g id="node20" class="node"><title>Node10</title>
<polygon fill="white" stroke="#bfbfbf" points="1224.5,-0.5 1224.5,-21.5 1265.5,-21.5 1265.5,-0.5 1224.5,-0.5"/>
<text text-anchor="middle" x="1245" y="-8.5" font-family="Helvetica,sans-Serif" font-size="10.00">glib.h</text>
</g>
<!-- Node1&#45;&gt;Node10 -->
<g id="edge162" class="edge"><title>Node1&#45;&gt;Node10</title>
<path fill="none" stroke="midnightblue" d="M801.345,-298.292C1017.83,-286.542 1845,-238.169 1845,-185 1845,-185 1845,-185 1845,-127 1845,-95.1919 1850.5,-78.2815 1826,-58 1783.38,-22.7213 1389.57,-13.4181 1275.7,-11.4558"/>
<polygon fill="midnightblue" stroke="midnightblue" points="1275.63,-7.95432 1265.58,-11.2882 1275.52,-14.9534 1275.63,-7.95432"/>
</g>
<!-- Node12 -->
<g id="node25" class="node"><title>Node12</title>
<a xlink:href="CustomEvents_8h.htm" target="_top" xlink:title="CustomEvents.h">
<polygon fill="white" stroke="black" points="668,-116.5 668,-137.5 760,-137.5 760,-116.5 668,-116.5"/>
<text text-anchor="middle" x="714" y="-124.5" font-family="Helvetica,sans-Serif" font-size="10.00">CustomEvents.h</text>
</a>
</g>
<!-- Node1&#45;&gt;Node12 -->
<g id="edge26" class="edge"><title>Node1&#45;&gt;Node12</title>
<path fill="none" stroke="midnightblue" d="M747.802,-290.377C741.992,-262.293 726.139,-185.673 718.387,-148.203"/>
<polygon fill="midnightblue" stroke="midnightblue" points="721.714,-147.011 716.261,-137.928 714.86,-148.429 721.714,-147.011"/>
</g>
<!-- Node13 -->
<g id="node29" class="node"><title>Node13</title>
<a xlink:href="HostBase_8h.htm" target="_top" xlink:title="HostBase.h">
<polygon fill="white" stroke="black" points="1160.5,-232.5 1160.5,-253.5 1231.5,-253.5 1231.5,-232.5 1160.5,-232.5"/>
<text text-anchor="middle" x="1196" y="-240.5" font-family="Helvetica,sans-Serif" font-size="10.00">HostBase.h</text>
</a>
</g>
<!-- Node1&#45;&gt;Node13 -->
<g id="edge32" class="edge"><title>Node1&#45;&gt;Node13</title>
<path fill="none" stroke="midnightblue" d="M801.162,-294.347C888.911,-282.935 1066.73,-259.811 1150.46,-248.923"/>
<polygon fill="midnightblue" stroke="midnightblue" points="1150.96,-252.386 1160.43,-247.626 1150.06,-245.445 1150.96,-252.386"/>
</g>
<!-- Node32 -->
<g id="node87" class="node"><title>Node32</title>
<a xlink:href="JSONUtils_8h.htm" target="_top" xlink:title="JSONUtils.h">
<polygon fill="white" stroke="black" points="152.5,-232.5 152.5,-253.5 225.5,-253.5 225.5,-232.5 152.5,-232.5"/>
<text text-anchor="middle" x="189" y="-240.5" font-family="Helvetica,sans-Serif" font-size="10.00">JSONUtils.h</text>
</a>
</g>
<!-- Node1&#45;&gt;Node32 -->
<g id="edge110" class="edge"><title>Node1&#45;&gt;Node32</title>
<path fill="none" stroke="midnightblue" d="M698.728,-295.699C590.464,-284.506 339.962,-258.607 235.772,-247.836"/>
<polygon fill="midnightblue" stroke="midnightblue" points="235.874,-244.328 225.567,-246.781 235.154,-251.29 235.874,-244.328"/>
</g>
<!-- Node39 -->
<g id="node105" class="node"><title>Node39</title>
<a xlink:href="Preferences_8h.htm" target="_top" xlink:title="Preferences.h">
<polygon fill="white" stroke="black" points="598.5,-174.5 598.5,-195.5 681.5,-195.5 681.5,-174.5 598.5,-174.5"/>
<text text-anchor="middle" x="640" y="-182.5" font-family="Helvetica,sans-Serif" font-size="10.00">Preferences.h</text>
</a>
</g>
<!-- Node1&#45;&gt;Node39 -->
<g id="edge132" class="edge"><title>Node1&#45;&gt;Node39</title>
<path fill="none" stroke="midnightblue" d="M737.155,-290.256C726.348,-281.015 710.673,-267.137 698,-254 682.344,-237.771 665.937,-217.951 654.585,-203.724"/>
<polygon fill="midnightblue" stroke="midnightblue" points="657.167,-201.347 648.221,-195.671 651.675,-205.687 657.167,-201.347"/>
</g>
<!-- Node41 -->
<g id="node114" class="node"><title>Node41</title>
<a xlink:href="SystemService_8h.htm" target="_top" xlink:title="SystemService.h">
<polygon fill="white" stroke="black" points="419.5,-174.5 419.5,-195.5 514.5,-195.5 514.5,-174.5 419.5,-174.5"/>
<text text-anchor="middle" x="467" y="-182.5" font-family="Helvetica,sans-Serif" font-size="10.00">SystemService.h</text>
</a>
</g>
<!-- Node1&#45;&gt;Node41 -->
<g id="edge146" class="edge"><title>Node1&#45;&gt;Node41</title>
<path fill="none" stroke="midnightblue" d="M723.883,-290.295C672.79,-269.352 559.592,-222.953 502.05,-199.367"/>
<polygon fill="midnightblue" stroke="midnightblue" points="503.225,-196.066 492.645,-195.512 500.57,-202.543 503.225,-196.066"/>
</g>
<!-- Node43 -->
<g id="node122" class="node"><title>Node43</title>
<polygon fill="white" stroke="#bfbfbf" points="1873,-232.5 1873,-253.5 1943,-253.5 1943,-232.5 1873,-232.5"/>
<text text-anchor="middle" x="1908" y="-240.5" font-family="Helvetica,sans-Serif" font-size="10.00">QKeyEvent</text>
</g>
<!-- Node1&#45;&gt;Node43 -->
<g id="edge158" class="edge"><title>Node1&#45;&gt;Node43</title>
<path fill="none" stroke="midnightblue" d="M801.307,-300.042C990.715,-296.315 1650.41,-281.609 1859,-254 1860.26,-253.833 1861.54,-253.649 1862.83,-253.45"/>
<polygon fill="midnightblue" stroke="midnightblue" points="1863.57,-256.875 1872.81,-251.69 1862.35,-249.981 1863.57,-256.875"/>
</g>
<!-- Node44 -->
<g id="node124" class="node"><title>Node44</title>
<polygon fill="white" stroke="#bfbfbf" points="1961,-232.5 1961,-253.5 2033,-253.5 2033,-232.5 1961,-232.5"/>
<text text-anchor="middle" x="1997" y="-240.5" font-family="Helvetica,sans-Serif" font-size="10.00">cjson/json.h</text>
</g>
<!-- Node1&#45;&gt;Node44 -->
<g id="edge160" class="edge"><title>Node1&#45;&gt;Node44</title>
<path fill="none" stroke="midnightblue" d="M801.128,-300.367C997.586,-297.726 1704.8,-286.243 1950.81,-253.875"/>
<polygon fill="midnightblue" stroke="midnightblue" points="1951.34,-257.336 1960.77,-252.517 1950.39,-250.4 1951.34,-257.336"/>
</g>
<!-- Node2&#45;&gt;Node3 -->
<g id="edge4" class="edge"><title>Node2&#45;&gt;Node3</title>
<path fill="none" stroke="midnightblue" d="M861.071,-174.368C861.56,-151.997 864.52,-98.7659 881,-58 885.105,-47.8467 891.762,-37.7534 898.027,-29.538"/>
<polygon fill="midnightblue" stroke="midnightblue" points="900.761,-31.7229 904.289,-21.7326 895.301,-27.3425 900.761,-31.7229"/>
</g>
<!-- Node2&#45;&gt;Node4 -->
<g id="edge6" class="edge"><title>Node2&#45;&gt;Node4</title>
<path fill="none" stroke="midnightblue" d="M815.239,-181.517C703.499,-172.922 420.971,-150.601 346.812,-137.708"/>
<polygon fill="midnightblue" stroke="midnightblue" points="347.245,-134.226 336.757,-135.723 345.89,-141.094 347.245,-134.226"/>
</g>
<!-- Node2&#45;&gt;Node5 -->
<g id="edge8" class="edge"><title>Node2&#45;&gt;Node5</title>
<path fill="none" stroke="midnightblue" d="M849.078,-174.362C839.641,-165.941 826.27,-154.011 815.31,-144.231"/>
<polygon fill="midnightblue" stroke="midnightblue" points="817.638,-141.617 807.846,-137.571 812.978,-146.84 817.638,-141.617"/>
</g>
<!-- Node6 -->
<g id="node11" class="node"><title>Node6</title>
<polygon fill="white" stroke="#bfbfbf" points="462,-116.5 462,-137.5 540,-137.5 540,-116.5 462,-116.5"/>
<text text-anchor="middle" x="501" y="-124.5" font-family="Helvetica,sans-Serif" font-size="10.00">lunaservice.h</text>
</g>
<!-- Node2&#45;&gt;Node6 -->
<g id="edge10" class="edge"><title>Node2&#45;&gt;Node6</title>
<path fill="none" stroke="midnightblue" d="M815.347,-179.225C756.362,-171.521 650.299,-156.844 550.218,-138.131"/>
<polygon fill="midnightblue" stroke="midnightblue" points="550.718,-134.663 540.242,-136.248 549.419,-141.542 550.718,-134.663"/>
</g>
<!-- Node7 -->
<g id="node13" class="node"><title>Node7</title>
<polygon fill="white" stroke="#bfbfbf" points="945.5,-116.5 945.5,-137.5 974.5,-137.5 974.5,-116.5 945.5,-116.5"/>
<text text-anchor="middle" x="960" y="-124.5" font-family="Helvetica,sans-Serif" font-size="10.00">Qt</text>
</g>
<!-- Node2&#45;&gt;Node7 -->
<g id="edge12" class="edge"><title>Node2&#45;&gt;Node7</title>
<path fill="none" stroke="midnightblue" d="M879.158,-174.362C895.266,-164.925 918.896,-151.081 936.453,-140.795"/>
<polygon fill="midnightblue" stroke="midnightblue" points="938.636,-143.573 945.495,-135.498 935.098,-137.533 938.636,-143.573"/>
</g>
<!-- Node8 -->
<g id="node15" class="node"><title>Node8</title>
<polygon fill="white" stroke="#bfbfbf" points="771,-58.5 771,-79.5 823,-79.5 823,-58.5 771,-58.5"/>
<text text-anchor="middle" x="797" y="-66.5" font-family="Helvetica,sans-Serif" font-size="10.00">QEvent</text>
</g>
<!-- Node2&#45;&gt;Node8 -->
<g id="edge14" class="edge"><title>Node2&#45;&gt;Node8</title>
<path fill="none" stroke="midnightblue" d="M855.082,-174.24C847.613,-160.662 834.367,-136.593 823,-116 818.077,-107.081 812.621,-97.2146 807.983,-88.834"/>
<polygon fill="midnightblue" stroke="midnightblue" points="810.901,-86.878 802.995,-79.824 804.776,-90.2681 810.901,-86.878"/>
</g>
<!-- Node9 -->
<g id="node17" class="node"><title>Node9</title>
<a xlink:href="Timer_8h.htm" target="_top" xlink:title="Timer.h">
<polygon fill="white" stroke="black" points="999,-58.5 999,-79.5 1051,-79.5 1051,-58.5 999,-58.5"/>
<text text-anchor="middle" x="1025" y="-66.5" font-family="Helvetica,sans-Serif" font-size="10.00">Timer.h</text>
</a>
</g>
<!-- Node2&#45;&gt;Node9 -->
<g id="edge16" class="edge"><title>Node2&#45;&gt;Node9</title>
<path fill="none" stroke="midnightblue" d="M871.116,-174.29C885.054,-159.905 911.361,-134.067 937,-116 954.441,-103.71 975.474,-92.3646 992.603,-83.9009"/>
<polygon fill="midnightblue" stroke="midnightblue" points="994.197,-87.0178 1001.67,-79.5075 991.144,-80.7184 994.197,-87.0178"/>
</g>
<!-- Node9&#45;&gt;Node3 -->
<g id="edge18" class="edge"><title>Node9&#45;&gt;Node3</title>
<path fill="none" stroke="midnightblue" d="M1004.9,-58.4966C987.718,-49.5194 962.77,-36.4835 943.355,-26.3387"/>
<polygon fill="midnightblue" stroke="midnightblue" points="944.811,-23.1503 934.327,-21.6212 941.569,-29.3544 944.811,-23.1503"/>
</g>
<!-- Node9&#45;&gt;Node10 -->
<g id="edge20" class="edge"><title>Node9&#45;&gt;Node10</title>
<path fill="none" stroke="midnightblue" d="M1051.24,-61.7326C1055.82,-60.4776 1060.55,-59.1934 1065,-58 1117.53,-43.9201 1178.83,-28.0292 1214.64,-18.8006"/>
<polygon fill="midnightblue" stroke="midnightblue" points="1215.65,-22.1536 1224.46,-16.2706 1213.9,-15.3747 1215.65,-22.1536"/>
</g>
<!-- Node11 -->
<g id="node22" class="node"><title>Node11</title>
<polygon fill="white" stroke="#bfbfbf" points="1744,-0.5 1744,-21.5 1794,-21.5 1794,-0.5 1744,-0.5"/>
<text text-anchor="middle" x="1769" y="-8.5" font-family="Helvetica,sans-Serif" font-size="10.00">stdint.h</text>
</g>
<!-- Node9&#45;&gt;Node11 -->
<g id="edge22" class="edge"><title>Node9&#45;&gt;Node11</title>
<path fill="none" stroke="midnightblue" d="M1051.29,-64.5212C1065.15,-62.2911 1082.46,-59.7126 1098,-58 1340.47,-31.2828 1634,-16.8735 1733.83,-12.4749"/>
<polygon fill="midnightblue" stroke="midnightblue" points="1734.12,-15.9656 1743.95,-12.0338 1733.81,-8.97227 1734.12,-15.9656"/>
</g>
<!-- Node12&#45;&gt;Node3 -->
<g id="edge28" class="edge"><title>Node12&#45;&gt;Node3</title>
<path fill="none" stroke="midnightblue" d="M718.574,-116.467C725.681,-101.319 740.798,-73.5055 762,-58 793.988,-34.6064 837.863,-22.6719 870.255,-16.6999"/>
<polygon fill="midnightblue" stroke="midnightblue" points="871.077,-20.1099 880.338,-14.9635 869.889,-13.2114 871.077,-20.1099"/>
</g>
<!-- Node12&#45;&gt;Node8 -->
<g id="edge30" class="edge"><title>Node12&#45;&gt;Node8</title>
<path fill="none" stroke="midnightblue" d="M729.223,-116.362C741.625,-107.696 759.346,-95.3126 773.557,-85.3819"/>
<polygon fill="midnightblue" stroke="midnightblue" points="775.681,-88.1676 781.873,-79.5707 771.671,-82.4297 775.681,-88.1676"/>
</g>
<!-- Node13&#45;&gt;Node3 -->
<g id="edge34" class="edge"><title>Node13&#45;&gt;Node3</title>
<path fill="none" stroke="midnightblue" d="M1160.36,-237.45C1114.54,-229.685 1038.33,-214.439 1017,-196 987.774,-170.734 1006.98,-146.293 983,-116 966.229,-94.8103 949.473,-102.155 934,-80 923.984,-65.6589 918.94,-46.3216 916.426,-31.7669"/>
<polygon fill="midnightblue" stroke="midnightblue" points="919.869,-31.1183 914.956,-21.7309 912.942,-32.1326 919.869,-31.1183"/>
</g>
<!-- Node13&#45;&gt;Node7 -->
<g id="edge106" class="edge"><title>Node13&#45;&gt;Node7</title>
<path fill="none" stroke="midnightblue" d="M1160.4,-239.308C1107.03,-233.094 1009.77,-218.929 984,-196 970.275,-183.789 964.398,-163.307 961.882,-147.823"/>
<polygon fill="midnightblue" stroke="midnightblue" points="965.318,-147.097 960.58,-137.621 958.375,-147.983 965.318,-147.097"/>
</g>
<!-- Node13&#45;&gt;Node12 -->
<g id="edge98" class="edge"><title>Node13&#45;&gt;Node12</title>
<path fill="none" stroke="midnightblue" d="M1160.21,-241.023C1076.63,-236.031 870.902,-221.47 807,-196 777.525,-184.252 749.045,-160.763 731.536,-144.476"/>
<polygon fill="midnightblue" stroke="midnightblue" points="733.95,-141.941 724.3,-137.567 729.116,-147.004 733.95,-141.941"/>
</g>
<!-- Node14 -->
<g id="node32" class="node"><title>Node14</title>
<polygon fill="white" stroke="#bfbfbf" points="1025.5,-174.5 1025.5,-195.5 1102.5,-195.5 1102.5,-174.5 1025.5,-174.5"/>
<text text-anchor="middle" x="1064" y="-182.5" font-family="Helvetica,sans-Serif" font-size="10.00">PGContext.h</text>
</g>
<!-- Node13&#45;&gt;Node14 -->
<g id="edge36" class="edge"><title>Node13&#45;&gt;Node14</title>
<path fill="none" stroke="midnightblue" d="M1172.1,-232.497C1151.2,-223.315 1120.64,-209.889 1097.34,-199.652"/>
<polygon fill="midnightblue" stroke="midnightblue" points="1098.74,-196.44 1088.17,-195.621 1095.92,-202.848 1098.74,-196.44"/>
</g>
<!-- Node15 -->
<g id="node34" class="node"><title>Node15</title>
<polygon fill="white" stroke="#bfbfbf" points="1120,-174.5 1120,-195.5 1188,-195.5 1188,-174.5 1120,-174.5"/>
<text text-anchor="middle" x="1154" y="-182.5" font-family="Helvetica,sans-Serif" font-size="10.00">PContext.h</text>
</g>
<!-- Node13&#45;&gt;Node15 -->
<g id="edge38" class="edge"><title>Node13&#45;&gt;Node15</title>
<path fill="none" stroke="midnightblue" d="M1188.3,-232.362C1182.55,-224.431 1174.56,-213.389 1167.73,-203.961"/>
<polygon fill="midnightblue" stroke="midnightblue" points="1170.35,-201.617 1161.65,-195.571 1164.68,-205.723 1170.35,-201.617"/>
</g>
<!-- Node16 -->
<g id="node36" class="node"><title>Node16</title>
<polygon fill="white" stroke="#bfbfbf" points="1206,-174.5 1206,-195.5 1272,-195.5 1272,-174.5 1206,-174.5"/>
<text text-anchor="middle" x="1239" y="-182.5" font-family="Helvetica,sans-Serif" font-size="10.00">PPixmap.h</text>
</g>
<!-- Node13&#45;&gt;Node16 -->
<g id="edge40" class="edge"><title>Node13&#45;&gt;Node16</title>
<path fill="none" stroke="midnightblue" d="M1203.89,-232.362C1209.83,-224.35 1218.12,-213.161 1225.16,-203.67"/>
<polygon fill="midnightblue" stroke="midnightblue" points="1228.02,-205.688 1231.16,-195.571 1222.4,-201.519 1228.02,-205.688"/>
</g>
<!-- Node17 -->
<g id="node38" class="node"><title>Node17</title>
<a xlink:href="TaskBase_8h.htm" target="_top" xlink:title="TaskBase.h">
<polygon fill="white" stroke="black" points="1542,-174.5 1542,-195.5 1614,-195.5 1614,-174.5 1542,-174.5"/>
<text text-anchor="middle" x="1578" y="-182.5" font-family="Helvetica,sans-Serif" font-size="10.00">TaskBase.h</text>
</a>
</g>
<!-- Node13&#45;&gt;Node17 -->
<g id="edge42" class="edge"><title>Node13&#45;&gt;Node17</title>
<path fill="none" stroke="midnightblue" d="M1231.52,-238.87C1292.42,-231.589 1420.59,-215.39 1528,-196 1529.25,-195.774 1530.53,-195.538 1531.81,-195.295"/>
<polygon fill="midnightblue" stroke="midnightblue" points="1532.62,-198.702 1541.74,-193.315 1531.25,-191.837 1532.62,-198.702"/>
</g>
<!-- Node26 -->
<g id="node66" class="node"><title>Node26</title>
<a xlink:href="Mutex_8h.htm" target="_top" xlink:title="Mutex.h">
<polygon fill="white" stroke="black" points="1029.5,-116.5 1029.5,-137.5 1082.5,-137.5 1082.5,-116.5 1029.5,-116.5"/>
<text text-anchor="middle" x="1056" y="-124.5" font-family="Helvetica,sans-Serif" font-size="10.00">Mutex.h</text>
</a>
</g>
<!-- Node13&#45;&gt;Node26 -->
<g id="edge96" class="edge"><title>Node13&#45;&gt;Node26</title>
<path fill="none" stroke="midnightblue" d="M1231.63,-239.977C1307.19,-233.205 1478.03,-215.844 1495,-196 1501.35,-188.569 1501.6,-181.218 1495,-174 1464.97,-141.14 1139.8,-145.933 1096,-138 1094.9,-137.801 1093.79,-137.586 1092.67,-137.357"/>
<polygon fill="midnightblue" stroke="midnightblue" points="1093.06,-133.855 1082.53,-135.006 1091.48,-140.674 1093.06,-133.855"/>
</g>
<!-- Node28 -->
<g id="node78" class="node"><title>Node28</title>
<a xlink:href="InputControl_8h.htm" target="_top" xlink:title="InputControl.h">
<polygon fill="white" stroke="black" points="1694.5,-174.5 1694.5,-195.5 1777.5,-195.5 1777.5,-174.5 1694.5,-174.5"/>
<text text-anchor="middle" x="1736" y="-182.5" font-family="Helvetica,sans-Serif" font-size="10.00">InputControl.h</text>
</a>
</g>
<!-- Node13&#45;&gt;Node28 -->
<g id="edge100" class="edge"><title>Node13&#45;&gt;Node28</title>
<path fill="none" stroke="midnightblue" d="M1231.85,-239.15C1325.07,-229.137 1575.37,-202.253 1684.24,-190.56"/>
<polygon fill="midnightblue" stroke="midnightblue" points="1684.75,-194.025 1694.32,-189.477 1684,-187.065 1684.75,-194.025"/>
</g>
<!-- Node30 -->
<g id="node82" class="node"><title>Node30</title>
<polygon fill="white" stroke="#bfbfbf" points="1289.5,-174.5 1289.5,-195.5 1414.5,-195.5 1414.5,-174.5 1289.5,-174.5"/>
<text text-anchor="middle" x="1352" y="-182.5" font-family="Helvetica,sans-Serif" font-size="10.00">webosDeviceKeymap.h</text>
</g>
<!-- Node13&#45;&gt;Node30 -->
<g id="edge104" class="edge"><title>Node13&#45;&gt;Node30</title>
<path fill="none" stroke="midnightblue" d="M1224.25,-232.497C1249.46,-223.123 1286.58,-209.324 1314.31,-199.012"/>
<polygon fill="midnightblue" stroke="midnightblue" points="1315.54,-202.289 1323.7,-195.523 1313.1,-195.727 1315.54,-202.289"/>
</g>
<!-- Node31 -->
<g id="node85" class="node"><title>Node31</title>
<polygon fill="white" stroke="#bfbfbf" points="1432,-174.5 1432,-195.5 1486,-195.5 1486,-174.5 1432,-174.5"/>
<text text-anchor="middle" x="1459" y="-182.5" font-family="Helvetica,sans-Serif" font-size="10.00">QImage</text>
</g>
<!-- Node13&#45;&gt;Node31 -->
<g id="edge108" class="edge"><title>Node13&#45;&gt;Node31</title>
<path fill="none" stroke="midnightblue" d="M1231.62,-236.679C1274.59,-228.824 1349.17,-214.453 1422.13,-196.06"/>
<polygon fill="midnightblue" stroke="midnightblue" points="1423.12,-199.42 1431.95,-193.559 1421.39,-192.637 1423.12,-199.42"/>
</g>
<!-- Node17&#45;&gt;Node3 -->
<g id="edge44" class="edge"><title>Node17&#45;&gt;Node3</title>
<path fill="none" stroke="midnightblue" d="M1541.85,-178.979C1531.86,-177.339 1521.01,-175.579 1511,-174 1394.79,-155.672 1094.91,-133.244 990,-80 965.506,-67.5685 942.957,-45.0939 928.889,-29.1762"/>
<polygon fill="midnightblue" stroke="midnightblue" points="931.507,-26.8518 922.341,-21.5379 926.192,-31.4078 931.507,-26.8518"/>
</g>
<!-- Node17&#45;&gt;Node10 -->
<g id="edge46" class="edge"><title>Node17&#45;&gt;Node10</title>
<path fill="none" stroke="midnightblue" d="M1593.35,-174.256C1616.07,-157.297 1657.73,-121.906 1674,-80 1677.54,-70.8851 1680.53,-65.2807 1674,-58 1647.45,-28.3834 1369.79,-15.5621 1275.86,-12.0505"/>
<polygon fill="midnightblue" stroke="midnightblue" points="1275.71,-8.54294 1265.59,-11.6767 1275.46,-15.5383 1275.71,-8.54294"/>
</g>
<!-- Node18 -->
<g id="node42" class="node"><title>Node18</title>
<polygon fill="white" stroke="#bfbfbf" points="1676.5,-116.5 1676.5,-137.5 1705.5,-137.5 1705.5,-116.5 1676.5,-116.5"/>
<text text-anchor="middle" x="1691" y="-124.5" font-family="Helvetica,sans-Serif" font-size="10.00">list</text>
</g>
<!-- Node17&#45;&gt;Node18 -->
<g id="edge48" class="edge"><title>Node17&#45;&gt;Node18</title>
<path fill="none" stroke="midnightblue" d="M1598.46,-174.497C1617.9,-164.52 1647.1,-149.532 1667.49,-139.069"/>
<polygon fill="midnightblue" stroke="midnightblue" points="1669.14,-142.156 1676.43,-134.476 1665.94,-135.929 1669.14,-142.156"/>
</g>
<!-- Node19 -->
<g id="node44" class="node"><title>Node19</title>
<a xlink:href="sptr_8h.htm" target="_top" xlink:title="sptr.h">
<polygon fill="white" stroke="black" points="1106.5,-58.5 1106.5,-79.5 1149.5,-79.5 1149.5,-58.5 1106.5,-58.5"/>
<text text-anchor="middle" x="1128" y="-66.5" font-family="Helvetica,sans-Serif" font-size="10.00">sptr.h</text>
</a>
</g>
<!-- Node17&#45;&gt;Node19 -->
<g id="edge50" class="edge"><title>Node17&#45;&gt;Node19</title>
<path fill="none" stroke="midnightblue" d="M1541.86,-178.371C1497.57,-170.02 1420.35,-154.725 1355,-138 1268.64,-115.899 1248.19,-106.253 1163,-80 1161.93,-79.6717 1160.85,-79.3369 1159.76,-78.998"/>
<polygon fill="midnightblue" stroke="midnightblue" points="1160.42,-75.5387 1149.83,-75.9029 1158.34,-82.2213 1160.42,-75.5387"/>
</g>
<!-- Node20 -->
<g id="node48" class="node"><title>Node20</title>
<a xlink:href="AsyncCaller_8h.htm" target="_top" xlink:title="AsyncCaller.h">
<polygon fill="white" stroke="black" points="1204.5,-58.5 1204.5,-79.5 1285.5,-79.5 1285.5,-58.5 1204.5,-58.5"/>
<text text-anchor="middle" x="1245" y="-66.5" font-family="Helvetica,sans-Serif" font-size="10.00">AsyncCaller.h</text>
</a>
</g>
<!-- Node17&#45;&gt;Node20 -->
<g id="edge56" class="edge"><title>Node17&#45;&gt;Node20</title>
<path fill="none" stroke="midnightblue" d="M1541.87,-175.538C1509.04,-166.681 1459.38,-152.648 1417,-138 1368.29,-121.164 1313.19,-98.3814 1278.77,-83.686"/>
<polygon fill="midnightblue" stroke="midnightblue" points="1279.78,-80.3101 1269.21,-79.5841 1277.02,-86.7431 1279.78,-80.3101"/>
</g>
<!-- Node21 -->
<g id="node52" class="node"><title>Node21</title>
<a xlink:href="Event_8h.htm" target="_top" xlink:title="Event.h">
<polygon fill="white" stroke="black" points="1426,-116.5 1426,-137.5 1478,-137.5 1478,-116.5 1426,-116.5"/>
<text text-anchor="middle" x="1452" y="-124.5" font-family="Helvetica,sans-Serif" font-size="10.00">Event.h</text>
</a>
</g>
<!-- Node17&#45;&gt;Node21 -->
<g id="edge62" class="edge"><title>Node17&#45;&gt;Node21</title>
<path fill="none" stroke="midnightblue" d="M1555.18,-174.497C1535.41,-165.397 1506.59,-152.127 1484.42,-141.925"/>
<polygon fill="midnightblue" stroke="midnightblue" points="1485.62,-138.623 1475.07,-137.621 1482.69,-144.982 1485.62,-138.623"/>
</g>
<!-- Node17&#45;&gt;Node26 -->
<g id="edge80" class="edge"><title>Node17&#45;&gt;Node26</title>
<path fill="none" stroke="midnightblue" d="M1541.79,-176.438C1537.16,-175.52 1532.48,-174.677 1528,-174 1337.49,-145.238 1285.7,-171.688 1096,-138 1094.9,-137.805 1093.79,-137.593 1092.67,-137.367"/>
<polygon fill="midnightblue" stroke="midnightblue" points="1093.05,-133.864 1082.52,-135.032 1091.48,-140.686 1093.05,-133.864"/>
</g>
<!-- Node27 -->
<g id="node71" class="node"><title>Node27</title>
<a xlink:href="SingletonTimer_8h.htm" target="_top" xlink:title="SingletonTimer.h">
<polygon fill="white" stroke="black" points="1721,-58.5 1721,-79.5 1817,-79.5 1817,-58.5 1721,-58.5"/>
<text text-anchor="middle" x="1769" y="-66.5" font-family="Helvetica,sans-Serif" font-size="10.00">SingletonTimer.h</text>
</a>
</g>
<!-- Node17&#45;&gt;Node27 -->
<g id="edge88" class="edge"><title>Node17&#45;&gt;Node27</title>
<path fill="none" stroke="midnightblue" d="M1614.07,-178.357C1643.07,-171.714 1683.81,-159.34 1714,-138 1732.54,-124.893 1748.05,-103.83 1757.82,-88.4195"/>
<polygon fill="midnightblue" stroke="midnightblue" points="1760.94,-90.0388 1763.14,-79.6763 1754.96,-86.4008 1760.94,-90.0388"/>
</g>
<!-- Node19&#45;&gt;Node3 -->
<g id="edge52" class="edge"><title>Node19&#45;&gt;Node3</title>
<path fill="none" stroke="midnightblue" d="M1106.3,-63.1195C1071.53,-53.6949 1002.65,-35.0258 957.463,-22.7798"/>
<polygon fill="midnightblue" stroke="midnightblue" points="958.211,-19.3562 947.643,-20.1183 956.38,-26.1124 958.211,-19.3562"/>
</g>
<!-- Node19&#45;&gt;Node10 -->
<g id="edge54" class="edge"><title>Node19&#45;&gt;Node10</title>
<path fill="none" stroke="midnightblue" d="M1149.19,-58.4966C1167.69,-49.3245 1194.74,-35.9157 1215.38,-25.6823"/>
<polygon fill="midnightblue" stroke="midnightblue" points="1216.96,-28.8079 1224.36,-21.2305 1213.85,-22.5362 1216.96,-28.8079"/>
</g>
<!-- Node20&#45;&gt;Node3 -->
<g id="edge58" class="edge"><title>Node20&#45;&gt;Node3</title>
<path fill="none" stroke="midnightblue" d="M1204.34,-60.5679C1199.84,-59.6799 1195.33,-58.8075 1191,-58 1108.79,-42.6566 1012.45,-26.7839 957.785,-17.9729"/>
<polygon fill="midnightblue" stroke="midnightblue" points="958.178,-14.4912 947.749,-16.3593 957.067,-21.4024 958.178,-14.4912"/>
</g>
<!-- Node20&#45;&gt;Node10 -->
<g id="edge60" class="edge"><title>Node20&#45;&gt;Node10</title>
<path fill="none" stroke="midnightblue" d="M1245,-58.3619C1245,-50.9219 1245,-40.7427 1245,-31.7276"/>
<polygon fill="midnightblue" stroke="midnightblue" points="1248.5,-31.5706 1245,-21.5707 1241.5,-31.5707 1248.5,-31.5706"/>
</g>
<!-- Node21&#45;&gt;Node3 -->
<g id="edge64" class="edge"><title>Node21&#45;&gt;Node3</title>
<path fill="none" stroke="midnightblue" d="M1425.79,-125.16C1378.55,-121.202 1276.56,-109.696 1196,-80 1177.69,-73.25 1176.28,-64.8298 1158,-58 1090.66,-32.84 1007.59,-20.5201 957.813,-14.985"/>
<polygon fill="midnightblue" stroke="midnightblue" points="958.029,-11.4882 947.714,-13.9047 957.285,-18.4485 958.029,-11.4882"/>
</g>
<!-- Node21&#45;&gt;Node10 -->
<g id="edge68" class="edge"><title>Node21&#45;&gt;Node10</title>
<path fill="none" stroke="midnightblue" d="M1425.7,-119.207C1400.69,-111.222 1362.45,-97.5125 1332,-80 1306.44,-65.2985 1280.36,-43.5301 1263.51,-28.3893"/>
<polygon fill="midnightblue" stroke="midnightblue" points="1265.77,-25.7098 1256.02,-21.5489 1261.05,-30.8778 1265.77,-25.7098"/>
</g>
<!-- Node21&#45;&gt;Node11 -->
<g id="edge66" class="edge"><title>Node21&#45;&gt;Node11</title>
<path fill="none" stroke="midnightblue" d="M1478.16,-125.679C1559.34,-121.316 1802.95,-106.132 1826,-80 1841.63,-62.2833 1818.58,-41.2707 1797.29,-27.1275"/>
<polygon fill="midnightblue" stroke="midnightblue" points="1799.02,-24.0798 1788.7,-21.6994 1795.28,-29.9984 1799.02,-24.0798"/>
</g>
<!-- Node21&#45;&gt;Node19 -->
<g id="edge78" class="edge"><title>Node21&#45;&gt;Node19</title>
<path fill="none" stroke="midnightblue" d="M1425.85,-124.022C1374.84,-117.935 1258.71,-102.698 1163,-80 1161.92,-79.7428 1160.82,-79.4693 1159.71,-79.183"/>
<polygon fill="midnightblue" stroke="midnightblue" points="1160.29,-75.7091 1149.71,-76.353 1158.38,-82.4445 1160.29,-75.7091"/>
</g>
<!-- Node22 -->
<g id="node57" class="node"><title>Node22</title>
<polygon fill="white" stroke="#bfbfbf" points="1618.5,-58.5 1618.5,-79.5 1665.5,-79.5 1665.5,-58.5 1618.5,-58.5"/>
<text text-anchor="middle" x="1642" y="-66.5" font-family="Helvetica,sans-Serif" font-size="10.00">stdio.h</text>
</g>
<!-- Node21&#45;&gt;Node22 -->
<g id="edge70" class="edge"><title>Node21&#45;&gt;Node22</title>
<path fill="none" stroke="midnightblue" d="M1478.1,-119.598C1507.68,-111.135 1557.52,-96.6319 1608.7,-80.342"/>
<polygon fill="midnightblue" stroke="midnightblue" points="1609.81,-83.6618 1618.27,-77.2806 1607.68,-76.9947 1609.81,-83.6618"/>
</g>
<!-- Node23 -->
<g id="node59" class="node"><title>Node23</title>
<polygon fill="white" stroke="#bfbfbf" points="1340.5,-58.5 1340.5,-79.5 1391.5,-79.5 1391.5,-58.5 1340.5,-58.5"/>
<text text-anchor="middle" x="1366" y="-66.5" font-family="Helvetica,sans-Serif" font-size="10.00">string.h</text>
</g>
<!-- Node21&#45;&gt;Node23 -->
<g id="edge72" class="edge"><title>Node21&#45;&gt;Node23</title>
<path fill="none" stroke="midnightblue" d="M1436.23,-116.362C1423.38,-107.696 1405.02,-95.3126 1390.29,-85.3819"/>
<polygon fill="midnightblue" stroke="midnightblue" points="1391.92,-82.2604 1381.67,-79.5707 1388.01,-88.0639 1391.92,-82.2604"/>
</g>
<!-- Node24 -->
<g id="node61" class="node"><title>Node24</title>
<polygon fill="white" stroke="#bfbfbf" points="1409,-58.5 1409,-79.5 1495,-79.5 1495,-58.5 1409,-58.5"/>
<text text-anchor="middle" x="1452" y="-66.5" font-family="Helvetica,sans-Serif" font-size="10.00">qnamespace.h</text>
</g>
<!-- Node21&#45;&gt;Node24 -->
<g id="edge74" class="edge"><title>Node21&#45;&gt;Node24</title>
<path fill="none" stroke="midnightblue" d="M1452,-116.362C1452,-108.922 1452,-98.7427 1452,-89.7276"/>
<polygon fill="midnightblue" stroke="midnightblue" points="1455.5,-89.5706 1452,-79.5707 1448.5,-89.5707 1455.5,-89.5706"/>
</g>
<!-- Node25 -->
<g id="node63" class="node"><title>Node25</title>
<polygon fill="white" stroke="#bfbfbf" points="1513,-58.5 1513,-79.5 1601,-79.5 1601,-58.5 1513,-58.5"/>
<text text-anchor="middle" x="1557" y="-66.5" font-family="Helvetica,sans-Serif" font-size="10.00">SysMgrEvent.h</text>
</g>
<!-- Node21&#45;&gt;Node25 -->
<g id="edge76" class="edge"><title>Node21&#45;&gt;Node25</title>
<path fill="none" stroke="midnightblue" d="M1471.26,-116.362C1487.47,-107.409 1510.85,-94.4908 1529.11,-84.4064"/>
<polygon fill="midnightblue" stroke="midnightblue" points="1530.8,-87.4696 1537.86,-79.5707 1527.42,-81.3422 1530.8,-87.4696"/>
</g>
<!-- Node26&#45;&gt;Node3 -->
<g id="edge82" class="edge"><title>Node26&#45;&gt;Node3</title>
<path fill="none" stroke="midnightblue" d="M1029.23,-118.971C1007.82,-111.524 978.014,-98.7439 957,-80 941.766,-66.4115 930.021,-46.1545 922.685,-31.1004"/>
<polygon fill="midnightblue" stroke="midnightblue" points="925.693,-29.2658 918.321,-21.6556 919.338,-32.2015 925.693,-29.2658"/>
</g>
<!-- Node26&#45;&gt;Node10 -->
<g id="edge86" class="edge"><title>Node26&#45;&gt;Node10</title>
<path fill="none" stroke="midnightblue" d="M1059.66,-116.494C1065.46,-101.381 1078.16,-73.6108 1098,-58 1132.24,-31.0548 1182.3,-19.3772 1214.26,-14.443"/>
<polygon fill="midnightblue" stroke="midnightblue" points="1214.94,-17.8811 1224.35,-13.016 1213.96,-10.95 1214.94,-17.8811"/>
</g>
<!-- Node26&#45;&gt;Node19 -->
<g id="edge84" class="edge"><title>Node26&#45;&gt;Node19</title>
<path fill="none" stroke="midnightblue" d="M1069.21,-116.362C1079.76,-107.859 1094.76,-95.7785 1106.96,-85.9466"/>
<polygon fill="midnightblue" stroke="midnightblue" points="1109.29,-88.5696 1114.88,-79.5707 1104.89,-83.1183 1109.29,-88.5696"/>
</g>
<!-- Node27&#45;&gt;Node3 -->
<g id="edge90" class="edge"><title>Node27&#45;&gt;Node3</title>
<path fill="none" stroke="midnightblue" d="M1720.72,-62.9034C1705.76,-61.1508 1689.22,-59.3504 1674,-58 1402.33,-33.8892 1074.94,-18.115 958.08,-12.8997"/>
<polygon fill="midnightblue" stroke="midnightblue" points="957.904,-9.38857 947.759,-12.4422 957.594,-16.3817 957.904,-9.38857"/>
</g>
<!-- Node27&#45;&gt;Node10 -->
<g id="edge92" class="edge"><title>Node27&#45;&gt;Node10</title>
<path fill="none" stroke="midnightblue" d="M1720.99,-60.1198C1716.27,-59.3558 1711.55,-58.6338 1707,-58 1545.27,-35.4584 1350.26,-19.1657 1275.87,-13.3439"/>
<polygon fill="midnightblue" stroke="midnightblue" points="1276.03,-9.84569 1265.79,-12.5614 1275.49,-16.8247 1276.03,-9.84569"/>
</g>
<!-- Node27&#45;&gt;Node11 -->
<g id="edge94" class="edge"><title>Node27&#45;&gt;Node11</title>
<path fill="none" stroke="midnightblue" d="M1769,-58.3619C1769,-50.9219 1769,-40.7427 1769,-31.7276"/>
<polygon fill="midnightblue" stroke="midnightblue" points="1772.5,-31.5706 1769,-21.5707 1765.5,-31.5707 1772.5,-31.5706"/>
</g>
<!-- Node29 -->
<g id="node80" class="node"><title>Node29</title>
<polygon fill="white" stroke="#bfbfbf" points="1761,-116.5 1761,-137.5 1817,-137.5 1817,-116.5 1761,-116.5"/>
<text text-anchor="middle" x="1789" y="-124.5" font-family="Helvetica,sans-Serif" font-size="10.00">hal/hal.h</text>
</g>
<!-- Node28&#45;&gt;Node29 -->
<g id="edge102" class="edge"><title>Node28&#45;&gt;Node29</title>
<path fill="none" stroke="midnightblue" d="M1745.72,-174.362C1753.19,-166.186 1763.69,-154.702 1772.47,-145.091"/>
<polygon fill="midnightblue" stroke="midnightblue" points="1775.18,-147.314 1779.34,-137.571 1770.01,-142.592 1775.18,-147.314"/>
</g>
<!-- Node32&#45;&gt;Node6 -->
<g id="edge126" class="edge"><title>Node32&#45;&gt;Node6</title>
<path fill="none" stroke="midnightblue" d="M175.02,-232.369C157.874,-218.074 132.949,-192.337 149,-174 150.241,-172.582 355.126,-145.887 451.702,-133.373"/>
<polygon fill="midnightblue" stroke="midnightblue" points="452.345,-136.819 461.813,-132.064 451.446,-129.877 452.345,-136.819"/>
</g>
<!-- Node33 -->
<g id="node89" class="node"><title>Node33</title>
<a xlink:href="Settings_8h.htm" target="_top" xlink:title="Settings.h">
<polygon fill="white" stroke="black" points="237.5,-174.5 237.5,-195.5 300.5,-195.5 300.5,-174.5 237.5,-174.5"/>
<text text-anchor="middle" x="269" y="-182.5" font-family="Helvetica,sans-Serif" font-size="10.00">Settings.h</text>
</a>
</g>
<!-- Node32&#45;&gt;Node33 -->
<g id="edge112" class="edge"><title>Node32&#45;&gt;Node33</title>
<path fill="none" stroke="midnightblue" d="M203.673,-232.362C215.514,-223.777 232.385,-211.546 246.016,-201.664"/>
<polygon fill="midnightblue" stroke="midnightblue" points="248.378,-204.274 254.42,-195.571 244.269,-198.607 248.378,-204.274"/>
</g>
<!-- Node37 -->
<g id="node101" class="node"><title>Node37</title>
<polygon fill="white" stroke="#bfbfbf" points="158,-174.5 158,-195.5 220,-195.5 220,-174.5 158,-174.5"/>
<text text-anchor="middle" x="189" y="-182.5" font-family="Helvetica,sans-Serif" font-size="10.00">pbnjson.h</text>
</g>
<!-- Node32&#45;&gt;Node37 -->
<g id="edge128" class="edge"><title>Node32&#45;&gt;Node37</title>
<path fill="none" stroke="midnightblue" d="M189,-232.362C189,-224.922 189,-214.743 189,-205.728"/>
<polygon fill="midnightblue" stroke="midnightblue" points="192.5,-205.571 189,-195.571 185.5,-205.571 192.5,-205.571"/>
</g>
<!-- Node38 -->
<g id="node103" class="node"><title>Node38</title>
<polygon fill="white" stroke="#bfbfbf" points="28,-174.5 28,-195.5 102,-195.5 102,-174.5 28,-174.5"/>
<text text-anchor="middle" x="65" y="-182.5" font-family="Helvetica,sans-Serif" font-size="10.00">pbnjson.hpp</text>
</g>
<!-- Node32&#45;&gt;Node38 -->
<g id="edge130" class="edge"><title>Node32&#45;&gt;Node38</title>
<path fill="none" stroke="midnightblue" d="M166.545,-232.497C147.09,-223.397 118.72,-210.127 96.9093,-199.925"/>
<polygon fill="midnightblue" stroke="midnightblue" points="98.2485,-196.688 87.7074,-195.621 95.2826,-203.028 98.2485,-196.688"/>
</g>
<!-- Node33&#45;&gt;Node3 -->
<g id="edge114" class="edge"><title>Node33&#45;&gt;Node3</title>
<path fill="none" stroke="midnightblue" d="M261.412,-174.467C251.871,-159.818 238.301,-133.164 252,-116 290.904,-67.253 728.915,-26.5142 870.291,-14.5574"/>
<polygon fill="midnightblue" stroke="midnightblue" points="870.665,-18.0385 880.337,-13.7142 870.079,-11.063 870.665,-18.0385"/>
</g>
<!-- Node33&#45;&gt;Node4 -->
<g id="edge116" class="edge"><title>Node33&#45;&gt;Node4</title>
<path fill="none" stroke="midnightblue" d="M277.437,-174.362C283.792,-166.35 292.666,-155.161 300.193,-145.67"/>
<polygon fill="midnightblue" stroke="midnightblue" points="303.145,-147.581 306.616,-137.571 297.66,-143.231 303.145,-147.581"/>
</g>
<!-- Node33&#45;&gt;Node10 -->
<g id="edge122" class="edge"><title>Node33&#45;&gt;Node10</title>
<path fill="none" stroke="midnightblue" d="M268.04,-174.278C267.314,-158.896 268.535,-130.793 285,-116 320.546,-84.0632 1054.33,-25.7212 1214.36,-13.3456"/>
<polygon fill="midnightblue" stroke="midnightblue" points="1214.76,-16.8249 1224.46,-12.5663 1214.23,-9.84557 1214.76,-16.8249"/>
</g>
<!-- Node34 -->
<g id="node93" class="node"><title>Node34</title>
<polygon fill="white" stroke="#bfbfbf" points="30,-116.5 30,-137.5 76,-137.5 76,-116.5 30,-116.5"/>
<text text-anchor="middle" x="53" y="-124.5" font-family="Helvetica,sans-Serif" font-size="10.00">vector</text>
</g>
<!-- Node33&#45;&gt;Node34 -->
<g id="edge118" class="edge"><title>Node33&#45;&gt;Node34</title>
<path fill="none" stroke="midnightblue" d="M237.141,-176.167C234.39,-175.426 231.647,-174.695 229,-174 168.182,-158.038 149.943,-156.824 86.1041,-138.167"/>
<polygon fill="midnightblue" stroke="midnightblue" points="86.9258,-134.76 76.3439,-135.284 84.9427,-141.474 86.9258,-134.76"/>
</g>
<!-- Node35 -->
<g id="node95" class="node"><title>Node35</title>
<polygon fill="white" stroke="#bfbfbf" points="93.5,-116.5 93.5,-137.5 124.5,-137.5 124.5,-116.5 93.5,-116.5"/>
<text text-anchor="middle" x="109" y="-124.5" font-family="Helvetica,sans-Serif" font-size="10.00">set</text>
</g>
<!-- Node33&#45;&gt;Node35 -->
<g id="edge120" class="edge"><title>Node33&#45;&gt;Node35</title>
<path fill="none" stroke="midnightblue" d="M237.351,-175.027C211.589,-166.698 174.149,-154.115 134.066,-138.215"/>
<polygon fill="midnightblue" stroke="midnightblue" points="135.239,-134.915 124.655,-134.439 132.633,-141.411 135.239,-134.915"/>
</g>
<!-- Node36 -->
<g id="node98" class="node"><title>Node36</title>
<polygon fill="white" stroke="#bfbfbf" points="142,-116.5 142,-137.5 200,-137.5 200,-116.5 142,-116.5"/>
<text text-anchor="middle" x="171" y="-124.5" font-family="Helvetica,sans-Serif" font-size="10.00">QtGlobal</text>
</g>
<!-- Node33&#45;&gt;Node36 -->
<g id="edge124" class="edge"><title>Node33&#45;&gt;Node36</title>
<path fill="none" stroke="midnightblue" d="M251.025,-174.362C236.106,-165.532 214.667,-152.844 197.734,-142.822"/>
<polygon fill="midnightblue" stroke="midnightblue" points="199.249,-139.652 188.861,-137.571 195.684,-145.676 199.249,-139.652"/>
</g>
<!-- Node39&#45;&gt;Node3 -->
<g id="edge134" class="edge"><title>Node39&#45;&gt;Node3</title>
<path fill="none" stroke="midnightblue" d="M640.789,-174.284C642.302,-159.893 646.651,-134.048 659,-116 683.395,-80.3466 698.09,-76.7699 737,-58 780.058,-37.2287 833.598,-24.6433 870.452,-17.7936"/>
<polygon fill="midnightblue" stroke="midnightblue" points="871.158,-21.223 880.382,-16.0116 869.921,-14.3331 871.158,-21.223"/>
</g>
<!-- Node39&#45;&gt;Node4 -->
<g id="edge136" class="edge"><title>Node39&#45;&gt;Node4</title>
<path fill="none" stroke="midnightblue" d="M598.439,-180.943C542.761,-174.949 440.885,-162.026 346.496,-138.056"/>
<polygon fill="midnightblue" stroke="midnightblue" points="347.357,-134.664 336.8,-135.547 345.604,-141.441 347.357,-134.664"/>
</g>
<!-- Node39&#45;&gt;Node6 -->
<g id="edge138" class="edge"><title>Node39&#45;&gt;Node6</title>
<path fill="none" stroke="midnightblue" d="M614.828,-174.497C592.727,-165.275 560.361,-151.769 535.787,-141.515"/>
<polygon fill="midnightblue" stroke="midnightblue" points="537.031,-138.242 526.454,-137.621 534.335,-144.702 537.031,-138.242"/>
</g>
<!-- Node39&#45;&gt;Node12 -->
<g id="edge142" class="edge"><title>Node39&#45;&gt;Node12</title>
<path fill="none" stroke="midnightblue" d="M653.573,-174.362C664.421,-165.859 679.834,-153.779 692.379,-143.947"/>
<polygon fill="midnightblue" stroke="midnightblue" points="694.802,-146.494 700.513,-137.571 690.484,-140.985 694.802,-146.494"/>
</g>
<!-- Node39&#45;&gt;Node26 -->
<g id="edge140" class="edge"><title>Node39&#45;&gt;Node26</title>
<path fill="none" stroke="midnightblue" d="M681.737,-179.464C746.338,-170.854 874.426,-153.618 983,-138 994.752,-136.309 1007.56,-134.402 1019.12,-132.656"/>
<polygon fill="midnightblue" stroke="midnightblue" points="1019.95,-136.069 1029.32,-131.109 1018.9,-129.148 1019.95,-136.069"/>
</g>
<!-- Node40 -->
<g id="node112" class="node"><title>Node40</title>
<polygon fill="white" stroke="#bfbfbf" points="557.5,-116.5 557.5,-137.5 612.5,-137.5 612.5,-116.5 557.5,-116.5"/>
<text text-anchor="middle" x="585" y="-124.5" font-family="Helvetica,sans-Serif" font-size="10.00">QObject</text>
</g>
<!-- Node39&#45;&gt;Node40 -->
<g id="edge144" class="edge"><title>Node39&#45;&gt;Node40</title>
<path fill="none" stroke="midnightblue" d="M629.912,-174.362C622.159,-166.186 611.27,-154.702 602.155,-145.091"/>
<polygon fill="midnightblue" stroke="midnightblue" points="604.445,-142.419 595.024,-137.571 599.365,-147.235 604.445,-142.419"/>
</g>
<!-- Node41&#45;&gt;Node3 -->
<g id="edge148" class="edge"><title>Node41&#45;&gt;Node3</title>
<path fill="none" stroke="midnightblue" d="M460.152,-174.454C451.583,-159.789 439.568,-133.116 453,-116 504.505,-50.3708 764.863,-22.7643 869.936,-14.176"/>
<polygon fill="midnightblue" stroke="midnightblue" points="870.507,-17.6417 880.197,-13.3577 869.95,-10.6638 870.507,-17.6417"/>
</g>
<!-- Node41&#45;&gt;Node4 -->
<g id="edge150" class="edge"><title>Node41&#45;&gt;Node4</title>
<path fill="none" stroke="midnightblue" d="M439.474,-174.497C413.263,-164.495 373.851,-149.456 346.421,-138.99"/>
<polygon fill="midnightblue" stroke="midnightblue" points="347.495,-135.653 336.904,-135.358 344.999,-142.193 347.495,-135.653"/>
</g>
<!-- Node41&#45;&gt;Node6 -->
<g id="edge152" class="edge"><title>Node41&#45;&gt;Node6</title>
<path fill="none" stroke="midnightblue" d="M473.236,-174.362C477.837,-166.513 484.225,-155.616 489.714,-146.253"/>
<polygon fill="midnightblue" stroke="midnightblue" points="492.766,-147.968 494.803,-137.571 486.727,-144.428 492.766,-147.968"/>
</g>
<!-- Node41&#45;&gt;Node40 -->
<g id="edge156" class="edge"><title>Node41&#45;&gt;Node40</title>
<path fill="none" stroke="midnightblue" d="M488.369,-174.497C506.799,-165.438 533.637,-152.246 554.355,-142.063"/>
<polygon fill="midnightblue" stroke="midnightblue" points="555.961,-145.174 563.391,-137.621 552.873,-138.891 555.961,-145.174"/>
</g>
<!-- Node42 -->
<g id="node119" class="node"><title>Node42</title>
<polygon fill="white" stroke="#bfbfbf" points="354,-116.5 354,-137.5 406,-137.5 406,-116.5 354,-116.5"/>
<text text-anchor="middle" x="380" y="-124.5" font-family="Helvetica,sans-Serif" font-size="10.00">QTimer</text>
</g>
<!-- Node41&#45;&gt;Node42 -->
<g id="edge154" class="edge"><title>Node41&#45;&gt;Node42</title>
<path fill="none" stroke="midnightblue" d="M451.043,-174.362C438.043,-165.696 419.469,-153.313 404.573,-143.382"/>
<polygon fill="midnightblue" stroke="midnightblue" points="406.118,-140.206 395.856,-137.571 402.235,-146.03 406.118,-140.206"/>
</g>
</g>
</svg>
