<?xml version="1.0" encoding="UTF-8" standalone="no"?>
<!DOCTYPE svg PUBLIC "-//W3C//DTD SVG 1.1//EN"
 "http://www.w3.org/Graphics/SVG/1.1/DTD/svg11.dtd">
<!-- Generated by graphviz version 2.26.3 (20100126.1600)
 -->
<!-- Title: G Pages: 1 -->
<svg width="899pt" height="204pt"
 viewBox="0.00 0.00 899.00 204.00" xmlns="http://www.w3.org/2000/svg" xmlns:xlink="http://www.w3.org/1999/xlink">
<g id="graph1" class="graph" transform="scale(1 1) rotate(0) translate(4 200)">
<title>G</title>
<polygon fill="white" stroke="white" points="-4,5 -4,-200 896,-200 896,5 -4,5"/>
<!-- Node1 -->
<g id="node1" class="node"><title>Node1</title>
<polygon fill="#bfbfbf" stroke="black" points="279.5,-174.5 279.5,-195.5 350.5,-195.5 350.5,-174.5 279.5,-174.5"/>
<text text-anchor="middle" x="315" y="-182.5" font-family="Helvetica,sans-Serif" font-size="10.00">IpcServer.h</text>
</g>
<!-- Node2 -->
<g id="node3" class="node"><title>Node2</title>
<a xlink:href="Common_8h.htm" target="_top" xlink:title="Common.h">
<polygon fill="white" stroke="black" points="558.5,-0.5 558.5,-21.5 625.5,-21.5 625.5,-0.5 558.5,-0.5"/>
<text text-anchor="middle" x="592" y="-8.5" font-family="Helvetica,sans-Serif" font-size="10.00">Common.h</text>
</a>
</g>
<!-- Node1&#45;&gt;Node2 -->
<g id="edge2" class="edge"><title>Node1&#45;&gt;Node2</title>
<path fill="none" stroke="midnightblue" d="M350.59,-179.353C428.695,-166.114 610.75,-130.348 643,-80 654.915,-61.3993 635.914,-41.1957 617.815,-27.4874"/>
<polygon fill="midnightblue" stroke="midnightblue" points="619.85,-24.6392 609.678,-21.6751 615.781,-30.3355 619.85,-24.6392"/>
</g>
<!-- Node3 -->
<g id="node5" class="node"><title>Node3</title>
<polygon fill="white" stroke="#bfbfbf" points="-0.5,-0.5 -0.5,-21.5 36.5,-21.5 36.5,-0.5 -0.5,-0.5"/>
<text text-anchor="middle" x="18" y="-8.5" font-family="Helvetica,sans-Serif" font-size="10.00">map</text>
</g>
<!-- Node1&#45;&gt;Node3 -->
<g id="edge4" class="edge"><title>Node1&#45;&gt;Node3</title>
<path fill="none" stroke="midnightblue" d="M279.146,-183.347C232.579,-179.952 149.827,-169.592 87,-138 52.4093,-120.606 38.8436,-114.862 22,-80 14.833,-65.166 14.203,-46.3966 15.1597,-32.1799"/>
<polygon fill="midnightblue" stroke="midnightblue" points="18.6734,-32.2119 16.1725,-21.9165 11.7073,-31.5244 18.6734,-32.2119"/>
</g>
<!-- Node4 -->
<g id="node7" class="node"><title>Node4</title>
<polygon fill="white" stroke="#bfbfbf" points="47.5,-58.5 47.5,-79.5 78.5,-79.5 78.5,-58.5 47.5,-58.5"/>
<text text-anchor="middle" x="63" y="-66.5" font-family="Helvetica,sans-Serif" font-size="10.00">set</text>
</g>
<!-- Node1&#45;&gt;Node4 -->
<g id="edge6" class="edge"><title>Node1&#45;&gt;Node4</title>
<path fill="none" stroke="midnightblue" d="M291.744,-174.295C244.323,-152.466 136.826,-102.984 87.9844,-80.5007"/>
<polygon fill="midnightblue" stroke="midnightblue" points="89.3111,-77.2585 78.7637,-76.2563 86.384,-83.6171 89.3111,-77.2585"/>
</g>
<!-- Node5 -->
<g id="node9" class="node"><title>Node5</title>
<polygon fill="white" stroke="#bfbfbf" points="223.5,-0.5 223.5,-21.5 266.5,-21.5 266.5,-0.5 223.5,-0.5"/>
<text text-anchor="middle" x="245" y="-8.5" font-family="Helvetica,sans-Serif" font-size="10.00">string</text>
</g>
<!-- Node1&#45;&gt;Node5 -->
<g id="edge8" class="edge"><title>Node1&#45;&gt;Node5</title>
<path fill="none" stroke="midnightblue" d="M279.237,-176.953C210.805,-160.722 65.7291,-122.011 39,-80 -19.3685,11.7393 -15.0228,-76.9355 206,-22 208.449,-21.3912 210.978,-20.7371 213.516,-20.0622"/>
<polygon fill="midnightblue" stroke="midnightblue" points="214.48,-23.427 223.2,-17.4087 212.63,-16.6758 214.48,-23.427"/>
</g>
<!-- Node6 -->
<g id="node11" class="node"><title>Node6</title>
<polygon fill="white" stroke="#bfbfbf" points="397.5,-116.5 397.5,-137.5 474.5,-137.5 474.5,-116.5 397.5,-116.5"/>
<text text-anchor="middle" x="436" y="-124.5" font-family="Helvetica,sans-Serif" font-size="10.00">PIpcServer.h</text>
</g>
<!-- Node1&#45;&gt;Node6 -->
<g id="edge10" class="edge"><title>Node1&#45;&gt;Node6</title>
<path fill="none" stroke="midnightblue" d="M336.912,-174.497C355.811,-165.438 383.331,-152.246 404.576,-142.063"/>
<polygon fill="midnightblue" stroke="midnightblue" points="406.337,-145.1 413.842,-137.621 403.311,-138.788 406.337,-145.1"/>
</g>
<!-- Node7 -->
<g id="node13" class="node"><title>Node7</title>
<a xlink:href="Timer_8h.htm" target="_top" xlink:title="Timer.h">
<polygon fill="white" stroke="black" points="566,-58.5 566,-79.5 618,-79.5 618,-58.5 566,-58.5"/>
<text text-anchor="middle" x="592" y="-66.5" font-family="Helvetica,sans-Serif" font-size="10.00">Timer.h</text>
</a>
</g>
<!-- Node1&#45;&gt;Node7 -->
<g id="edge12" class="edge"><title>Node1&#45;&gt;Node7</title>
<path fill="none" stroke="midnightblue" d="M350.788,-178.161C385.531,-170.795 439.278,-157.45 483,-138 515.05,-123.742 548.684,-101.103 569.966,-85.6746"/>
<polygon fill="midnightblue" stroke="midnightblue" points="572.31,-88.2952 578.29,-79.5495 568.161,-82.6571 572.31,-88.2952"/>
</g>
<!-- Node10 -->
<g id="node20" class="node"><title>Node10</title>
<a xlink:href="ApplicationDescription_8h.htm" target="_top" xlink:title="ApplicationDescription.h">
<polygon fill="white" stroke="black" points="250,-116.5 250,-137.5 380,-137.5 380,-116.5 250,-116.5"/>
<text text-anchor="middle" x="315" y="-124.5" font-family="Helvetica,sans-Serif" font-size="10.00">ApplicationDescription.h</text>
</a>
</g>
<!-- Node1&#45;&gt;Node10 -->
<g id="edge20" class="edge"><title>Node1&#45;&gt;Node10</title>
<path fill="none" stroke="midnightblue" d="M315,-174.362C315,-166.922 315,-156.743 315,-147.728"/>
<polygon fill="midnightblue" stroke="midnightblue" points="318.5,-147.571 315,-137.571 311.5,-147.571 318.5,-147.571"/>
</g>
<!-- Node7&#45;&gt;Node2 -->
<g id="edge14" class="edge"><title>Node7&#45;&gt;Node2</title>
<path fill="none" stroke="midnightblue" d="M592,-58.3619C592,-50.9219 592,-40.7427 592,-31.7276"/>
<polygon fill="midnightblue" stroke="midnightblue" points="595.5,-31.5706 592,-21.5707 588.5,-31.5707 595.5,-31.5706"/>
</g>
<!-- Node8 -->
<g id="node16" class="node"><title>Node8</title>
<polygon fill="white" stroke="#bfbfbf" points="424.5,-0.5 424.5,-21.5 465.5,-21.5 465.5,-0.5 424.5,-0.5"/>
<text text-anchor="middle" x="445" y="-8.5" font-family="Helvetica,sans-Serif" font-size="10.00">glib.h</text>
</g>
<!-- Node7&#45;&gt;Node8 -->
<g id="edge16" class="edge"><title>Node7&#45;&gt;Node8</title>
<path fill="none" stroke="midnightblue" d="M565.719,-58.6308C540.383,-48.6339 502.064,-33.5149 475.419,-23.002"/>
<polygon fill="midnightblue" stroke="midnightblue" points="476.417,-19.6332 465.83,-19.2186 473.847,-26.1446 476.417,-19.6332"/>
</g>
<!-- Node9 -->
<g id="node18" class="node"><title>Node9</title>
<polygon fill="white" stroke="#bfbfbf" points="284,-0.5 284,-21.5 334,-21.5 334,-0.5 284,-0.5"/>
<text text-anchor="middle" x="309" y="-8.5" font-family="Helvetica,sans-Serif" font-size="10.00">stdint.h</text>
</g>
<!-- Node7&#45;&gt;Node9 -->
<g id="edge18" class="edge"><title>Node7&#45;&gt;Node9</title>
<path fill="none" stroke="midnightblue" d="M565.721,-60.3777C562.792,-59.5253 559.842,-58.7132 557,-58 536.617,-52.8843 407.54,-29.0467 344.102,-17.4161"/>
<polygon fill="midnightblue" stroke="midnightblue" points="344.614,-13.9519 334.147,-15.5925 343.353,-20.8373 344.614,-13.9519"/>
</g>
<!-- Node10&#45;&gt;Node2 -->
<g id="edge22" class="edge"><title>Node10&#45;&gt;Node2</title>
<path fill="none" stroke="midnightblue" d="M380.274,-117.3C471.597,-103.711 626.496,-80.5855 627,-80 640.207,-64.6548 625.729,-43.46 611.588,-28.6234"/>
<polygon fill="midnightblue" stroke="midnightblue" points="613.951,-26.0378 604.373,-21.509 609.036,-31.0223 613.951,-26.0378"/>
</g>
<!-- Node10&#45;&gt;Node4 -->
<g id="edge28" class="edge"><title>Node10&#45;&gt;Node4</title>
<path fill="none" stroke="midnightblue" d="M249.61,-117.562C205.901,-110.331 147.165,-98.8417 88.3642,-79.9627"/>
<polygon fill="midnightblue" stroke="midnightblue" points="89.1386,-76.5332 78.5458,-76.7404 86.9558,-83.1842 89.1386,-76.5332"/>
</g>
<!-- Node10&#45;&gt;Node5 -->
<g id="edge24" class="edge"><title>Node10&#45;&gt;Node5</title>
<path fill="none" stroke="midnightblue" d="M308.54,-116.295C296.767,-96.7861 271.665,-55.1884 256.778,-30.5177"/>
<polygon fill="midnightblue" stroke="midnightblue" points="259.608,-28.4328 251.444,-21.6792 253.614,-32.0494 259.608,-28.4328"/>
</g>
<!-- Node10&#45;&gt;Node9 -->
<g id="edge26" class="edge"><title>Node10&#45;&gt;Node9</title>
<path fill="none" stroke="midnightblue" d="M314.446,-116.295C313.455,-97.1314 311.361,-56.654 310.078,-31.8434"/>
<polygon fill="midnightblue" stroke="midnightblue" points="313.564,-31.485 309.552,-21.6792 306.574,-31.8467 313.564,-31.485"/>
</g>
<!-- Node11 -->
<g id="node26" class="node"><title>Node11</title>
<polygon fill="white" stroke="#bfbfbf" points="378.5,-0.5 378.5,-21.5 407.5,-21.5 407.5,-0.5 378.5,-0.5"/>
<text text-anchor="middle" x="393" y="-8.5" font-family="Helvetica,sans-Serif" font-size="10.00">list</text>
</g>
<!-- Node10&#45;&gt;Node11 -->
<g id="edge30" class="edge"><title>Node10&#45;&gt;Node11</title>
<path fill="none" stroke="midnightblue" d="M320.037,-116.324C326.784,-102.421 339.481,-77.582 353,-58 359.92,-47.977 368.581,-37.5884 376.073,-29.135"/>
<polygon fill="midnightblue" stroke="midnightblue" points="378.688,-31.4616 382.802,-21.6983 373.497,-26.7648 378.688,-31.4616"/>
</g>
<!-- Node12 -->
<g id="node28" class="node"><title>Node12</title>
<a xlink:href="GraphicsDefs_8h.htm" target="_top" xlink:title="GraphicsDefs.h">
<polygon fill="white" stroke="black" points="711.5,-58.5 711.5,-79.5 800.5,-79.5 800.5,-58.5 711.5,-58.5"/>
<text text-anchor="middle" x="756" y="-66.5" font-family="Helvetica,sans-Serif" font-size="10.00">GraphicsDefs.h</text>
</a>
</g>
<!-- Node10&#45;&gt;Node12 -->
<g id="edge32" class="edge"><title>Node10&#45;&gt;Node12</title>
<path fill="none" stroke="midnightblue" d="M380.36,-117.211C383.279,-116.797 386.17,-116.392 389,-116 499.681,-100.688 629.39,-84.4851 701.17,-75.6712"/>
<polygon fill="midnightblue" stroke="midnightblue" points="701.831,-79.1164 711.331,-74.4254 700.979,-72.1685 701.831,-79.1164"/>
</g>
<!-- Node16 -->
<g id="node37" class="node"><title>Node16</title>
<a xlink:href="LaunchPoint_8h.htm" target="_top" xlink:title="LaunchPoint.h">
<polygon fill="white" stroke="black" points="465.5,-58.5 465.5,-79.5 548.5,-79.5 548.5,-58.5 465.5,-58.5"/>
<text text-anchor="middle" x="507" y="-66.5" font-family="Helvetica,sans-Serif" font-size="10.00">LaunchPoint.h</text>
</a>
</g>
<!-- Node10&#45;&gt;Node16 -->
<g id="edge42" class="edge"><title>Node10&#45;&gt;Node16</title>
<path fill="none" stroke="midnightblue" d="M349.77,-116.497C381.342,-106.959 428.079,-92.8408 462.393,-82.475"/>
<polygon fill="midnightblue" stroke="midnightblue" points="463.604,-85.7654 472.165,-79.5231 461.58,-79.0644 463.604,-85.7654"/>
</g>
<!-- Node18 -->
<g id="node45" class="node"><title>Node18</title>
<a xlink:href="KeywordMap_8h.htm" target="_top" xlink:title="KeywordMap.h">
<polygon fill="white" stroke="black" points="361.5,-58.5 361.5,-79.5 448.5,-79.5 448.5,-58.5 361.5,-58.5"/>
<text text-anchor="middle" x="405" y="-66.5" font-family="Helvetica,sans-Serif" font-size="10.00">KeywordMap.h</text>
</a>
</g>
<!-- Node10&#45;&gt;Node18 -->
<g id="edge54" class="edge"><title>Node10&#45;&gt;Node18</title>
<path fill="none" stroke="midnightblue" d="M331.507,-116.362C345.082,-107.614 364.533,-95.0786 380.015,-85.1015"/>
<polygon fill="midnightblue" stroke="midnightblue" points="382.088,-87.9297 388.597,-79.5707 378.296,-82.0457 382.088,-87.9297"/>
</g>
<!-- Node19 -->
<g id="node51" class="node"><title>Node19</title>
<a xlink:href="CmdResourceHandlers_8h.htm" target="_top" xlink:title="CmdResourceHandlers.h">
<polygon fill="white" stroke="black" points="96,-58.5 96,-79.5 230,-79.5 230,-58.5 96,-58.5"/>
<text text-anchor="middle" x="163" y="-66.5" font-family="Helvetica,sans-Serif" font-size="10.00">CmdResourceHandlers.h</text>
</a>
</g>
<!-- Node10&#45;&gt;Node19 -->
<g id="edge64" class="edge"><title>Node10&#45;&gt;Node19</title>
<path fill="none" stroke="midnightblue" d="M287.474,-116.497C263.016,-107.164 227.062,-93.4447 200.076,-83.1475"/>
<polygon fill="midnightblue" stroke="midnightblue" points="201.168,-79.8182 190.578,-79.5231 198.673,-86.3582 201.168,-79.8182"/>
</g>
<!-- Node12&#45;&gt;Node2 -->
<g id="edge34" class="edge"><title>Node12&#45;&gt;Node2</title>
<path fill="none" stroke="midnightblue" d="M726.301,-58.4966C699.68,-49.082 660.438,-35.2036 631.239,-24.8773"/>
<polygon fill="midnightblue" stroke="midnightblue" points="632.35,-21.5576 621.755,-21.5231 630.016,-28.1571 632.35,-21.5576"/>
</g>
<!-- Node13 -->
<g id="node31" class="node"><title>Node13</title>
<polygon fill="white" stroke="#bfbfbf" points="720.5,-0.5 720.5,-21.5 797.5,-21.5 797.5,-0.5 720.5,-0.5"/>
<text text-anchor="middle" x="759" y="-8.5" font-family="Helvetica,sans-Serif" font-size="10.00">PGContext.h</text>
</g>
<!-- Node12&#45;&gt;Node13 -->
<g id="edge36" class="edge"><title>Node12&#45;&gt;Node13</title>
<path fill="none" stroke="midnightblue" d="M756.55,-58.3619C756.935,-50.9219 757.462,-40.7427 757.928,-31.7276"/>
<polygon fill="midnightblue" stroke="midnightblue" points="761.432,-31.7381 758.453,-21.5707 754.441,-31.3765 761.432,-31.7381"/>
</g>
<!-- Node14 -->
<g id="node33" class="node"><title>Node14</title>
<polygon fill="white" stroke="#bfbfbf" points="815,-0.5 815,-21.5 891,-21.5 891,-0.5 815,-0.5"/>
<text text-anchor="middle" x="853" y="-8.5" font-family="Helvetica,sans-Serif" font-size="10.00">PGSurface.h</text>
</g>
<!-- Node12&#45;&gt;Node14 -->
<g id="edge38" class="edge"><title>Node12&#45;&gt;Node14</title>
<path fill="none" stroke="midnightblue" d="M773.791,-58.3619C788.559,-49.532 809.778,-36.844 826.538,-26.8224"/>
<polygon fill="midnightblue" stroke="midnightblue" points="828.535,-29.7066 835.321,-21.5707 824.943,-23.6987 828.535,-29.7066"/>
</g>
<!-- Node15 -->
<g id="node35" class="node"><title>Node15</title>
<polygon fill="white" stroke="#bfbfbf" points="642.5,-0.5 642.5,-21.5 703.5,-21.5 703.5,-0.5 642.5,-0.5"/>
<text text-anchor="middle" x="673" y="-8.5" font-family="Helvetica,sans-Serif" font-size="10.00">PGFont.h</text>
</g>
<!-- Node12&#45;&gt;Node15 -->
<g id="edge40" class="edge"><title>Node12&#45;&gt;Node15</title>
<path fill="none" stroke="midnightblue" d="M740.777,-58.3619C728.375,-49.6955 710.654,-37.3126 696.443,-27.3819"/>
<polygon fill="midnightblue" stroke="midnightblue" points="698.329,-24.4297 688.127,-21.5707 694.319,-30.1676 698.329,-24.4297"/>
</g>
<!-- Node16&#45;&gt;Node2 -->
<g id="edge44" class="edge"><title>Node16&#45;&gt;Node2</title>
<path fill="none" stroke="midnightblue" d="M522.59,-58.3619C535.291,-49.6955 553.438,-37.3126 567.992,-27.3819"/>
<polygon fill="midnightblue" stroke="midnightblue" points="570.221,-30.0982 576.509,-21.5707 566.276,-24.316 570.221,-30.0982"/>
</g>
<!-- Node16&#45;&gt;Node5 -->
<g id="edge46" class="edge"><title>Node16&#45;&gt;Node5</title>
<path fill="none" stroke="midnightblue" d="M465.272,-59.7504C462.474,-59.1516 459.697,-58.5634 457,-58 379.439,-41.7993 356.194,-44.0475 276.794,-22.2329"/>
<polygon fill="midnightblue" stroke="midnightblue" points="277.399,-18.7678 266.826,-19.4504 275.517,-25.5101 277.399,-18.7678"/>
</g>
<!-- Node16&#45;&gt;Node8 -->
<g id="edge52" class="edge"><title>Node16&#45;&gt;Node8</title>
<path fill="none" stroke="midnightblue" d="M495.628,-58.3619C486.714,-50.0226 474.121,-38.2418 463.724,-28.5162"/>
<polygon fill="midnightblue" stroke="midnightblue" points="465.993,-25.8463 456.3,-21.5707 461.211,-30.9582 465.993,-25.8463"/>
</g>
<!-- Node16&#45;&gt;Node11 -->
<g id="edge48" class="edge"><title>Node16&#45;&gt;Node11</title>
<path fill="none" stroke="midnightblue" d="M486.355,-58.4966C466.747,-48.5204 437.287,-33.5321 416.722,-23.069"/>
<polygon fill="midnightblue" stroke="midnightblue" points="418.195,-19.8914 407.695,-18.4762 415.02,-26.1303 418.195,-19.8914"/>
</g>
<!-- Node17 -->
<g id="node42" class="node"><title>Node17</title>
<polygon fill="white" stroke="#bfbfbf" points="482.5,-0.5 482.5,-21.5 541.5,-21.5 541.5,-0.5 482.5,-0.5"/>
<text text-anchor="middle" x="512" y="-8.5" font-family="Helvetica,sans-Serif" font-size="10.00">QPixmap</text>
</g>
<!-- Node16&#45;&gt;Node17 -->
<g id="edge50" class="edge"><title>Node16&#45;&gt;Node17</title>
<path fill="none" stroke="midnightblue" d="M507.917,-58.3619C508.558,-50.9219 509.436,-40.7427 510.213,-31.7276"/>
<polygon fill="midnightblue" stroke="midnightblue" points="513.717,-31.8343 511.089,-21.5707 506.743,-31.2331 513.717,-31.8343"/>
</g>
<!-- Node18&#45;&gt;Node2 -->
<g id="edge56" class="edge"><title>Node18&#45;&gt;Node2</title>
<path fill="none" stroke="midnightblue" d="M438.864,-58.4966C469.578,-48.9706 515.026,-34.8744 548.435,-24.5121"/>
<polygon fill="midnightblue" stroke="midnightblue" points="549.873,-27.7306 558.388,-21.4252 547.8,-21.0448 549.873,-27.7306"/>
</g>
<!-- Node18&#45;&gt;Node5 -->
<g id="edge58" class="edge"><title>Node18&#45;&gt;Node5</title>
<path fill="none" stroke="midnightblue" d="M375.815,-58.4911C351.415,-49.6958 315.456,-36.7122 276.141,-22.4072"/>
<polygon fill="midnightblue" stroke="midnightblue" points="277.22,-19.075 266.626,-18.9427 274.825,-25.6527 277.22,-19.075"/>
</g>
<!-- Node18&#45;&gt;Node8 -->
<g id="edge62" class="edge"><title>Node18&#45;&gt;Node8</title>
<path fill="none" stroke="midnightblue" d="M412.337,-58.3619C417.806,-50.4313 425.422,-39.3885 431.924,-29.9606"/>
<polygon fill="midnightblue" stroke="midnightblue" points="434.914,-31.7899 437.71,-21.5707 429.151,-27.8157 434.914,-31.7899"/>
</g>
<!-- Node18&#45;&gt;Node11 -->
<g id="edge60" class="edge"><title>Node18&#45;&gt;Node11</title>
<path fill="none" stroke="midnightblue" d="M402.799,-58.3619C401.243,-50.8401 399.107,-40.5187 397.227,-31.4308"/>
<polygon fill="midnightblue" stroke="midnightblue" points="400.641,-30.6541 395.187,-21.5707 393.786,-32.0724 400.641,-30.6541"/>
</g>
<!-- Node19&#45;&gt;Node2 -->
<g id="edge66" class="edge"><title>Node19&#45;&gt;Node2</title>
<path fill="none" stroke="midnightblue" d="M230.196,-63.6184C305.526,-56.9623 431.427,-43.9743 547.996,-22.2076"/>
<polygon fill="midnightblue" stroke="midnightblue" points="548.99,-25.5818 558.164,-20.282 547.687,-18.7041 548.99,-25.5818"/>
</g>
<!-- Node19&#45;&gt;Node3 -->
<g id="edge76" class="edge"><title>Node19&#45;&gt;Node3</title>
<path fill="none" stroke="midnightblue" d="M136.742,-58.4966C111.124,-48.2496 72.2863,-32.7145 46.0675,-22.227"/>
<polygon fill="midnightblue" stroke="midnightblue" points="47.2753,-18.9405 36.6906,-18.4762 44.6755,-25.4399 47.2753,-18.9405"/>
</g>
<!-- Node19&#45;&gt;Node5 -->
<g id="edge72" class="edge"><title>Node19&#45;&gt;Node5</title>
<path fill="none" stroke="midnightblue" d="M178.04,-58.3619C190.293,-49.6955 207.799,-37.3126 221.839,-27.3819"/>
<polygon fill="midnightblue" stroke="midnightblue" points="223.912,-30.2028 230.055,-21.5707 219.87,-24.4879 223.912,-30.2028"/>
</g>
<!-- Node19&#45;&gt;Node9 -->
<g id="edge70" class="edge"><title>Node19&#45;&gt;Node9</title>
<path fill="none" stroke="midnightblue" d="M189.439,-58.4966C213.194,-49.0601 248.236,-35.139 274.249,-24.8052"/>
<polygon fill="midnightblue" stroke="midnightblue" points="275.733,-27.9819 283.734,-21.0371 273.148,-21.4764 275.733,-27.9819"/>
</g>
<!-- Node20 -->
<g id="node54" class="node"><title>Node20</title>
<polygon fill="white" stroke="#bfbfbf" points="145,-0.5 145,-21.5 197,-21.5 197,-0.5 145,-0.5"/>
<text text-anchor="middle" x="171" y="-8.5" font-family="Helvetica,sans-Serif" font-size="10.00">regex.h</text>
</g>
<!-- Node19&#45;&gt;Node20 -->
<g id="edge68" class="edge"><title>Node19&#45;&gt;Node20</title>
<path fill="none" stroke="midnightblue" d="M164.467,-58.3619C165.494,-50.9219 166.898,-40.7427 168.141,-31.7276"/>
<polygon fill="midnightblue" stroke="midnightblue" points="171.643,-31.9551 169.542,-21.5707 164.708,-30.9986 171.643,-31.9551"/>
</g>
<!-- Node21 -->
<g id="node58" class="node"><title>Node21</title>
<polygon fill="white" stroke="#bfbfbf" points="81,-0.5 81,-21.5 127,-21.5 127,-0.5 81,-0.5"/>
<text text-anchor="middle" x="104" y="-8.5" font-family="Helvetica,sans-Serif" font-size="10.00">vector</text>
</g>
<!-- Node19&#45;&gt;Node21 -->
<g id="edge74" class="edge"><title>Node19&#45;&gt;Node21</title>
<path fill="none" stroke="midnightblue" d="M152.178,-58.3619C143.779,-50.1043 131.946,-38.4725 122.11,-28.8029"/>
<polygon fill="midnightblue" stroke="midnightblue" points="124.338,-26.0851 114.753,-21.5707 119.431,-31.077 124.338,-26.0851"/>
</g>
</g>
</svg>
