<?xml version="1.0" encoding="UTF-8" standalone="no"?>
<!DOCTYPE svg PUBLIC "-//W3C//DTD SVG 1.1//EN"
 "http://www.w3.org/Graphics/SVG/1.1/DTD/svg11.dtd">
<!-- Generated by graphviz version 2.26.3 (20100126.1600)
 -->
<!-- Title: G Pages: 1 -->
<svg width="1796pt" height="88pt"
 viewBox="0.00 0.00 1796.00 88.00" xmlns="http://www.w3.org/2000/svg" xmlns:xlink="http://www.w3.org/1999/xlink">
<g id="graph1" class="graph" transform="scale(1 1) rotate(0) translate(4 84)">
<title>G</title>
<polygon fill="white" stroke="white" points="-4,5 -4,-84 1793,-84 1793,5 -4,5"/>
<!-- Node1 -->
<g id="node1" class="node"><title>Node1</title>
<polygon fill="#bfbfbf" stroke="black" points="884.5,-58.5 884.5,-79.5 957.5,-79.5 957.5,-58.5 884.5,-58.5"/>
<text text-anchor="middle" x="921" y="-66.5" font-family="Helvetica,sans-Serif" font-size="10.00">JSONUtils.h</text>
</g>
<!-- Node2 -->
<g id="node3" class="node"><title>Node2</title>
<a xlink:href="AmbientLightSensor_8cpp.htm" target="_top" xlink:title="AmbientLightSensor.cpp">
<polygon fill="white" stroke="black" points="-0.5,-0.5 -0.5,-21.5 130.5,-21.5 130.5,-0.5 -0.5,-0.5"/>
<text text-anchor="middle" x="65" y="-8.5" font-family="Helvetica,sans-Serif" font-size="10.00">AmbientLightSensor.cpp</text>
</a>
</g>
<!-- Node1&#45;&gt;Node2 -->
<g id="edge2" class="edge"><title>Node1&#45;&gt;Node2</title>
<path fill="none" stroke="midnightblue" d="M874.186,-67.6161C752.618,-63.7127 417.008,-50.961 139,-22 136.287,-21.7174 133.521,-21.4071 130.73,-21.0756"/>
<polygon fill="midnightblue" stroke="midnightblue" points="874.157,-71.1169 884.263,-67.935 874.379,-64.1204 874.157,-71.1169"/>
</g>
<!-- Node3 -->
<g id="node5" class="node"><title>Node3</title>
<a xlink:href="ApplicationInstaller_8cpp.htm" target="_top" xlink:title="ApplicationInstaller.cpp">
<polygon fill="white" stroke="black" points="147.5,-0.5 147.5,-21.5 272.5,-21.5 272.5,-0.5 147.5,-0.5"/>
<text text-anchor="middle" x="210" y="-8.5" font-family="Helvetica,sans-Serif" font-size="10.00">ApplicationInstaller.cpp</text>
</a>
</g>
<!-- Node1&#45;&gt;Node3 -->
<g id="edge4" class="edge"><title>Node1&#45;&gt;Node3</title>
<path fill="none" stroke="midnightblue" d="M874.443,-66.8665C768.714,-61.7405 502.483,-47.2484 281,-22 278.274,-21.6892 275.491,-21.3506 272.683,-20.9912"/>
<polygon fill="midnightblue" stroke="midnightblue" points="874.307,-70.364 884.464,-67.3475 874.643,-63.372 874.307,-70.364"/>
</g>
<!-- Node4 -->
<g id="node7" class="node"><title>Node4</title>
<a xlink:href="ApplicationManagerService_8cpp.htm" target="_top" xlink:title="ApplicationManagerService.cpp">
<polygon fill="white" stroke="black" points="290,-0.5 290,-21.5 456,-21.5 456,-0.5 290,-0.5"/>
<text text-anchor="middle" x="373" y="-8.5" font-family="Helvetica,sans-Serif" font-size="10.00">ApplicationManagerService.cpp</text>
</a>
</g>
<!-- Node1&#45;&gt;Node4 -->
<g id="edge6" class="edge"><title>Node1&#45;&gt;Node4</title>
<path fill="none" stroke="midnightblue" d="M874.26,-64.4362C791.648,-56.3129 614.431,-38.6332 465,-22 462.122,-21.6797 459.194,-21.35 456.238,-21.0139"/>
<polygon fill="midnightblue" stroke="midnightblue" points="874.037,-67.931 884.332,-65.4252 874.722,-60.9645 874.037,-67.931"/>
</g>
<!-- Node5 -->
<g id="node9" class="node"><title>Node5</title>
<a xlink:href="BackupManager_8cpp.htm" target="_top" xlink:title="BackupManager.cpp">
<polygon fill="white" stroke="black" points="473.5,-0.5 473.5,-21.5 586.5,-21.5 586.5,-0.5 473.5,-0.5"/>
<text text-anchor="middle" x="530" y="-8.5" font-family="Helvetica,sans-Serif" font-size="10.00">BackupManager.cpp</text>
</a>
</g>
<!-- Node1&#45;&gt;Node5 -->
<g id="edge8" class="edge"><title>Node1&#45;&gt;Node5</title>
<path fill="none" stroke="midnightblue" d="M874.214,-62.6211C810.854,-53.8987 694.269,-37.5531 595,-22 592.286,-21.5748 589.51,-21.1327 586.707,-20.6805"/>
<polygon fill="midnightblue" stroke="midnightblue" points="873.905,-66.1115 884.289,-64.0055 874.858,-59.1766 873.905,-66.1115"/>
</g>
<!-- Node6 -->
<g id="node11" class="node"><title>Node6</title>
<a xlink:href="DisplayManager_8cpp.htm" target="_top" xlink:title="DisplayManager.cpp">
<polygon fill="white" stroke="black" points="603.5,-0.5 603.5,-21.5 716.5,-21.5 716.5,-0.5 603.5,-0.5"/>
<text text-anchor="middle" x="660" y="-8.5" font-family="Helvetica,sans-Serif" font-size="10.00">DisplayManager.cpp</text>
</a>
</g>
<!-- Node1&#45;&gt;Node6 -->
<g id="edge10" class="edge"><title>Node1&#45;&gt;Node6</title>
<path fill="none" stroke="midnightblue" d="M874.489,-58.6643C827.355,-48.19 754.804,-32.0676 707.366,-21.5257"/>
<polygon fill="midnightblue" stroke="midnightblue" points="873.913,-62.1216 884.434,-60.8743 875.432,-55.2882 873.913,-62.1216"/>
</g>
<!-- Node7 -->
<g id="node13" class="node"><title>Node7</title>
<a xlink:href="HapticsController_8cpp.htm" target="_top" xlink:title="HapticsController.cpp">
<polygon fill="white" stroke="black" points="734,-0.5 734,-21.5 852,-21.5 852,-0.5 734,-0.5"/>
<text text-anchor="middle" x="793" y="-8.5" font-family="Helvetica,sans-Serif" font-size="10.00">HapticsController.cpp</text>
</a>
</g>
<!-- Node1&#45;&gt;Node7 -->
<g id="edge12" class="edge"><title>Node1&#45;&gt;Node7</title>
<path fill="none" stroke="midnightblue" d="M888.654,-54.3431C866.159,-44.1502 836.691,-30.7977 816.44,-21.6212"/>
<polygon fill="midnightblue" stroke="midnightblue" points="887.267,-57.5573 897.82,-58.4966 890.156,-51.1813 887.267,-57.5573"/>
</g>
<!-- Node8 -->
<g id="node15" class="node"><title>Node8</title>
<a xlink:href="InputManager_8cpp.htm" target="_top" xlink:title="InputManager.cpp">
<polygon fill="white" stroke="black" points="870,-0.5 870,-21.5 972,-21.5 972,-0.5 870,-0.5"/>
<text text-anchor="middle" x="921" y="-8.5" font-family="Helvetica,sans-Serif" font-size="10.00">InputManager.cpp</text>
</a>
</g>
<!-- Node1&#45;&gt;Node8 -->
<g id="edge14" class="edge"><title>Node1&#45;&gt;Node8</title>
<path fill="none" stroke="midnightblue" d="M921,-48.1906C921,-39.1684 921,-28.9941 921,-21.5707"/>
<polygon fill="midnightblue" stroke="midnightblue" points="917.5,-48.3619 921,-58.3619 924.5,-48.3619 917.5,-48.3619"/>
</g>
<!-- Node9 -->
<g id="node17" class="node"><title>Node9</title>
<a xlink:href="JSONUtils_8cpp.htm" target="_top" xlink:title="JSONUtils.cpp">
<polygon fill="white" stroke="black" points="990,-0.5 990,-21.5 1074,-21.5 1074,-0.5 990,-0.5"/>
<text text-anchor="middle" x="1032" y="-8.5" font-family="Helvetica,sans-Serif" font-size="10.00">JSONUtils.cpp</text>
</a>
</g>
<!-- Node1&#45;&gt;Node9 -->
<g id="edge16" class="edge"><title>Node1&#45;&gt;Node9</title>
<path fill="none" stroke="midnightblue" d="M950.101,-53.794C969.468,-43.6746 994.425,-30.6338 1011.67,-21.6212"/>
<polygon fill="midnightblue" stroke="midnightblue" points="948.343,-50.7634 941.101,-58.4966 951.585,-56.9675 948.343,-50.7634"/>
</g>
<!-- Node10 -->
<g id="node19" class="node"><title>Node10</title>
<a xlink:href="Preferences_8cpp.htm" target="_top" xlink:title="Preferences.cpp">
<polygon fill="white" stroke="black" points="1092,-0.5 1092,-21.5 1186,-21.5 1186,-0.5 1092,-0.5"/>
<text text-anchor="middle" x="1139" y="-8.5" font-family="Helvetica,sans-Serif" font-size="10.00">Preferences.cpp</text>
</a>
</g>
<!-- Node1&#45;&gt;Node10 -->
<g id="edge18" class="edge"><title>Node1&#45;&gt;Node10</title>
<path fill="none" stroke="midnightblue" d="M967.818,-56.5439C1006.97,-46.1264 1062.22,-31.4289 1099.25,-21.5754"/>
<polygon fill="midnightblue" stroke="midnightblue" points="966.745,-53.2076 957.981,-59.1611 968.544,-59.9722 966.745,-53.2076"/>
</g>
<!-- Node11 -->
<g id="node21" class="node"><title>Node11</title>
<a xlink:href="SystemService_8cpp.htm" target="_top" xlink:title="SystemService.cpp">
<polygon fill="white" stroke="black" points="1204,-0.5 1204,-21.5 1310,-21.5 1310,-0.5 1204,-0.5"/>
<text text-anchor="middle" x="1257" y="-8.5" font-family="Helvetica,sans-Serif" font-size="10.00">SystemService.cpp</text>
</a>
</g>
<!-- Node1&#45;&gt;Node11 -->
<g id="edge20" class="edge"><title>Node1&#45;&gt;Node11</title>
<path fill="none" stroke="midnightblue" d="M967.856,-61.0464C1022.42,-51.7644 1115.27,-35.911 1195,-22 1197.91,-21.4927 1200.89,-20.97 1203.9,-20.4409"/>
<polygon fill="midnightblue" stroke="midnightblue" points="967.068,-57.6301 957.796,-62.7569 968.241,-64.531 967.068,-57.6301"/>
</g>
<!-- Node12 -->
<g id="node23" class="node"><title>Node12</title>
<a xlink:href="CandidateBarRemote_8cpp.htm" target="_top" xlink:title="CandidateBarRemote.cpp">
<polygon fill="white" stroke="black" points="1328,-0.5 1328,-21.5 1466,-21.5 1466,-0.5 1328,-0.5"/>
<text text-anchor="middle" x="1397" y="-8.5" font-family="Helvetica,sans-Serif" font-size="10.00">CandidateBarRemote.cpp</text>
</a>
</g>
<!-- Node1&#45;&gt;Node12 -->
<g id="edge22" class="edge"><title>Node1&#45;&gt;Node12</title>
<path fill="none" stroke="midnightblue" d="M967.499,-63.8532C1041.83,-55.5485 1191.98,-38.4549 1319,-22 1321.85,-21.6311 1324.75,-21.2486 1327.69,-20.8574"/>
<polygon fill="midnightblue" stroke="midnightblue" points="967.075,-60.3787 957.525,-64.9657 967.851,-67.3356 967.075,-60.3787"/>
</g>
<!-- Node13 -->
<g id="node25" class="node"><title>Node13</title>
<a xlink:href="VirtualKeyboardPreferences_8cpp.htm" target="_top" xlink:title="VirtualKeyboardPreferences.cpp">
<polygon fill="white" stroke="black" points="1484,-0.5 1484,-21.5 1652,-21.5 1652,-0.5 1484,-0.5"/>
<text text-anchor="middle" x="1568" y="-8.5" font-family="Helvetica,sans-Serif" font-size="10.00">VirtualKeyboardPreferences.cpp</text>
</a>
</g>
<!-- Node1&#45;&gt;Node13 -->
<g id="edge24" class="edge"><title>Node1&#45;&gt;Node13</title>
<path fill="none" stroke="midnightblue" d="M967.854,-65.5512C1063.35,-58.4063 1287.33,-41.0543 1475,-22 1477.91,-21.7044 1480.87,-21.396 1483.86,-21.078"/>
<polygon fill="midnightblue" stroke="midnightblue" points="967.377,-62.077 957.665,-66.3113 967.898,-69.0576 967.377,-62.077"/>
</g>
<!-- Node14 -->
<g id="node27" class="node"><title>Node14</title>
<a xlink:href="WebAppManager_8cpp.htm" target="_top" xlink:title="WebAppManager.cpp">
<polygon fill="white" stroke="black" points="1669.5,-0.5 1669.5,-21.5 1788.5,-21.5 1788.5,-0.5 1669.5,-0.5"/>
<text text-anchor="middle" x="1729" y="-8.5" font-family="Helvetica,sans-Serif" font-size="10.00">WebAppManager.cpp</text>
</a>
</g>
<!-- Node1&#45;&gt;Node14 -->
<g id="edge26" class="edge"><title>Node1&#45;&gt;Node14</title>
<path fill="none" stroke="midnightblue" d="M967.735,-67.6052C1084.8,-63.7699 1399.92,-51.3384 1661,-22 1663.73,-21.6928 1666.52,-21.3521 1669.34,-20.9863"/>
<polygon fill="midnightblue" stroke="midnightblue" points="967.566,-64.1087 957.684,-67.9291 967.792,-71.105 967.566,-64.1087"/>
</g>
</g>
</svg>
