<?xml version="1.0" encoding="UTF-8" standalone="no"?>
<!DOCTYPE svg PUBLIC "-//W3C//DTD SVG 1.1//EN"
 "http://www.w3.org/Graphics/SVG/1.1/DTD/svg11.dtd">
<!-- Generated by graphviz version 2.26.3 (20100126.1600)
 -->
<!-- Title: G Pages: 1 -->
<svg width="1060pt" height="204pt"
 viewBox="0.00 0.00 1060.00 204.00" xmlns="http://www.w3.org/2000/svg" xmlns:xlink="http://www.w3.org/1999/xlink">
<g id="graph1" class="graph" transform="scale(1 1) rotate(0) translate(4 200)">
<title>G</title>
<polygon fill="white" stroke="white" points="-4,5 -4,-200 1057,-200 1057,5 -4,5"/>
<!-- Node1 -->
<g id="node1" class="node"><title>Node1</title>
<polygon fill="#bfbfbf" stroke="black" points="522,-174.5 522,-195.5 606,-195.5 606,-174.5 522,-174.5"/>
<text text-anchor="middle" x="564" y="-182.5" font-family="Helvetica,sans-Serif" font-size="10.00">JSONUtils.cpp</text>
</g>
<!-- Node2 -->
<g id="node3" class="node"><title>Node2</title>
<a xlink:href="JSONUtils_8h.htm" target="_top" xlink:title="JSONUtils.h">
<polygon fill="white" stroke="black" points="606.5,-116.5 606.5,-137.5 679.5,-137.5 679.5,-116.5 606.5,-116.5"/>
<text text-anchor="middle" x="643" y="-124.5" font-family="Helvetica,sans-Serif" font-size="10.00">JSONUtils.h</text>
</a>
</g>
<!-- Node1&#45;&gt;Node2 -->
<g id="edge2" class="edge"><title>Node1&#45;&gt;Node2</title>
<path fill="none" stroke="midnightblue" d="M578.49,-174.362C590.183,-165.777 606.843,-153.546 620.303,-143.664"/>
<polygon fill="midnightblue" stroke="midnightblue" points="622.613,-146.31 628.602,-137.571 618.47,-140.667 622.613,-146.31"/>
</g>
<!-- Node13 -->
<g id="node25" class="node"><title>Node13</title>
<a xlink:href="Logging_8h.htm" target="_top" xlink:title="Logging.h">
<polygon fill="white" stroke="black" points="153.5,-58.5 153.5,-79.5 216.5,-79.5 216.5,-58.5 153.5,-58.5"/>
<text text-anchor="middle" x="185" y="-66.5" font-family="Helvetica,sans-Serif" font-size="10.00">Logging.h</text>
</a>
</g>
<!-- Node1&#45;&gt;Node13 -->
<g id="edge24" class="edge"><title>Node1&#45;&gt;Node13</title>
<path fill="none" stroke="midnightblue" d="M529.362,-174.398C459.408,-152.988 301.553,-104.673 226.347,-81.655"/>
<polygon fill="midnightblue" stroke="midnightblue" points="227.319,-78.2923 216.732,-78.7123 225.27,-84.9858 227.319,-78.2923"/>
</g>
<!-- Node16 -->
<g id="node33" class="node"><title>Node16</title>
<a xlink:href="Utils_8h.htm" target="_top" xlink:title="Utils.h">
<polygon fill="white" stroke="black" points="541.5,-58.5 541.5,-79.5 586.5,-79.5 586.5,-58.5 541.5,-58.5"/>
<text text-anchor="middle" x="564" y="-66.5" font-family="Helvetica,sans-Serif" font-size="10.00">Utils.h</text>
</a>
</g>
<!-- Node1&#45;&gt;Node16 -->
<g id="edge34" class="edge"><title>Node1&#45;&gt;Node16</title>
<path fill="none" stroke="midnightblue" d="M564,-174.295C564,-155.131 564,-114.654 564,-89.8434"/>
<polygon fill="midnightblue" stroke="midnightblue" points="567.5,-89.6792 564,-79.6792 560.5,-89.6792 567.5,-89.6792"/>
</g>
<!-- Node3 -->
<g id="node5" class="node"><title>Node3</title>
<a xlink:href="Settings_8h.htm" target="_top" xlink:title="Settings.h">
<polygon fill="white" stroke="black" points="339.5,-58.5 339.5,-79.5 402.5,-79.5 402.5,-58.5 339.5,-58.5"/>
<text text-anchor="middle" x="371" y="-66.5" font-family="Helvetica,sans-Serif" font-size="10.00">Settings.h</text>
</a>
</g>
<!-- Node2&#45;&gt;Node3 -->
<g id="edge4" class="edge"><title>Node2&#45;&gt;Node3</title>
<path fill="none" stroke="midnightblue" d="M606.317,-119.178C556.017,-108.452 465.864,-89.2283 412.945,-77.9441"/>
<polygon fill="midnightblue" stroke="midnightblue" points="413.39,-74.4605 402.88,-75.798 411.931,-81.3066 413.39,-74.4605"/>
</g>
<!-- Node10 -->
<g id="node19" class="node"><title>Node10</title>
<polygon fill="white" stroke="#bfbfbf" points="604,-58.5 604,-79.5 682,-79.5 682,-58.5 604,-58.5"/>
<text text-anchor="middle" x="643" y="-66.5" font-family="Helvetica,sans-Serif" font-size="10.00">lunaservice.h</text>
</g>
<!-- Node2&#45;&gt;Node10 -->
<g id="edge18" class="edge"><title>Node2&#45;&gt;Node10</title>
<path fill="none" stroke="midnightblue" d="M643,-116.362C643,-108.922 643,-98.7427 643,-89.7276"/>
<polygon fill="midnightblue" stroke="midnightblue" points="646.5,-89.5706 643,-79.5707 639.5,-89.5707 646.5,-89.5706"/>
</g>
<!-- Node11 -->
<g id="node21" class="node"><title>Node11</title>
<polygon fill="white" stroke="#bfbfbf" points="700,-58.5 700,-79.5 762,-79.5 762,-58.5 700,-58.5"/>
<text text-anchor="middle" x="731" y="-66.5" font-family="Helvetica,sans-Serif" font-size="10.00">pbnjson.h</text>
</g>
<!-- Node2&#45;&gt;Node11 -->
<g id="edge20" class="edge"><title>Node2&#45;&gt;Node11</title>
<path fill="none" stroke="midnightblue" d="M659.141,-116.362C672.414,-107.614 691.432,-95.0786 706.57,-85.1015"/>
<polygon fill="midnightblue" stroke="midnightblue" points="708.538,-87.9962 714.962,-79.5707 704.686,-82.1515 708.538,-87.9962"/>
</g>
<!-- Node12 -->
<g id="node23" class="node"><title>Node12</title>
<polygon fill="white" stroke="#bfbfbf" points="780,-58.5 780,-79.5 854,-79.5 854,-58.5 780,-58.5"/>
<text text-anchor="middle" x="817" y="-66.5" font-family="Helvetica,sans-Serif" font-size="10.00">pbnjson.hpp</text>
</g>
<!-- Node2&#45;&gt;Node12 -->
<g id="edge22" class="edge"><title>Node2&#45;&gt;Node12</title>
<path fill="none" stroke="midnightblue" d="M674.51,-116.497C702.877,-107.041 744.751,-93.0829 775.772,-82.7428"/>
<polygon fill="midnightblue" stroke="midnightblue" points="777.051,-86.0058 785.431,-79.5231 774.837,-79.365 777.051,-86.0058"/>
</g>
<!-- Node4 -->
<g id="node7" class="node"><title>Node4</title>
<a xlink:href="Common_8h.htm" target="_top" xlink:title="Common.h">
<polygon fill="white" stroke="black" points="151.5,-0.5 151.5,-21.5 218.5,-21.5 218.5,-0.5 151.5,-0.5"/>
<text text-anchor="middle" x="185" y="-8.5" font-family="Helvetica,sans-Serif" font-size="10.00">Common.h</text>
</a>
</g>
<!-- Node3&#45;&gt;Node4 -->
<g id="edge6" class="edge"><title>Node3&#45;&gt;Node4</title>
<path fill="none" stroke="midnightblue" d="M339.448,-59.1611C308.883,-49.6303 262.292,-35.1018 228.274,-24.4942"/>
<polygon fill="midnightblue" stroke="midnightblue" points="229.184,-21.1117 218.596,-21.4761 227.1,-27.7944 229.184,-21.1117"/>
</g>
<!-- Node5 -->
<g id="node9" class="node"><title>Node5</title>
<polygon fill="white" stroke="#bfbfbf" points="417.5,-0.5 417.5,-21.5 460.5,-21.5 460.5,-0.5 417.5,-0.5"/>
<text text-anchor="middle" x="439" y="-8.5" font-family="Helvetica,sans-Serif" font-size="10.00">string</text>
</g>
<!-- Node3&#45;&gt;Node5 -->
<g id="edge8" class="edge"><title>Node3&#45;&gt;Node5</title>
<path fill="none" stroke="midnightblue" d="M383.472,-58.3619C393.345,-49.9408 407.333,-38.0105 418.798,-28.2308"/>
<polygon fill="midnightblue" stroke="midnightblue" points="421.27,-30.7231 426.607,-21.5707 416.727,-25.3972 421.27,-30.7231"/>
</g>
<!-- Node6 -->
<g id="node11" class="node"><title>Node6</title>
<polygon fill="white" stroke="#bfbfbf" points="478,-0.5 478,-21.5 524,-21.5 524,-0.5 478,-0.5"/>
<text text-anchor="middle" x="501" y="-8.5" font-family="Helvetica,sans-Serif" font-size="10.00">vector</text>
</g>
<!-- Node3&#45;&gt;Node6 -->
<g id="edge10" class="edge"><title>Node3&#45;&gt;Node6</title>
<path fill="none" stroke="midnightblue" d="M394.542,-58.4966C415.157,-49.299 445.322,-35.8411 468.283,-25.597"/>
<polygon fill="midnightblue" stroke="midnightblue" points="469.927,-28.696 477.633,-21.4252 467.075,-22.3034 469.927,-28.696"/>
</g>
<!-- Node7 -->
<g id="node13" class="node"><title>Node7</title>
<polygon fill="white" stroke="#bfbfbf" points="293.5,-0.5 293.5,-21.5 324.5,-21.5 324.5,-0.5 293.5,-0.5"/>
<text text-anchor="middle" x="309" y="-8.5" font-family="Helvetica,sans-Serif" font-size="10.00">set</text>
</g>
<!-- Node3&#45;&gt;Node7 -->
<g id="edge12" class="edge"><title>Node3&#45;&gt;Node7</title>
<path fill="none" stroke="midnightblue" d="M359.628,-58.3619C350.714,-50.0226 338.121,-38.2418 327.724,-28.5162"/>
<polygon fill="midnightblue" stroke="midnightblue" points="329.993,-25.8463 320.3,-21.5707 325.211,-30.9582 329.993,-25.8463"/>
</g>
<!-- Node8 -->
<g id="node15" class="node"><title>Node8</title>
<polygon fill="white" stroke="#bfbfbf" points="235.5,-0.5 235.5,-21.5 276.5,-21.5 276.5,-0.5 235.5,-0.5"/>
<text text-anchor="middle" x="256" y="-8.5" font-family="Helvetica,sans-Serif" font-size="10.00">glib.h</text>
</g>
<!-- Node3&#45;&gt;Node8 -->
<g id="edge14" class="edge"><title>Node3&#45;&gt;Node8</title>
<path fill="none" stroke="midnightblue" d="M350.174,-58.4966C332.182,-49.4222 305.967,-36.2009 285.762,-26.0103"/>
<polygon fill="midnightblue" stroke="midnightblue" points="287.176,-22.8034 276.671,-21.4252 284.023,-29.0535 287.176,-22.8034"/>
</g>
<!-- Node9 -->
<g id="node17" class="node"><title>Node9</title>
<polygon fill="white" stroke="#bfbfbf" points="342,-0.5 342,-21.5 400,-21.5 400,-0.5 342,-0.5"/>
<text text-anchor="middle" x="371" y="-8.5" font-family="Helvetica,sans-Serif" font-size="10.00">QtGlobal</text>
</g>
<!-- Node3&#45;&gt;Node9 -->
<g id="edge16" class="edge"><title>Node3&#45;&gt;Node9</title>
<path fill="none" stroke="midnightblue" d="M371,-58.3619C371,-50.9219 371,-40.7427 371,-31.7276"/>
<polygon fill="midnightblue" stroke="midnightblue" points="374.5,-31.5706 371,-21.5707 367.5,-31.5707 374.5,-31.5706"/>
</g>
<!-- Node13&#45;&gt;Node4 -->
<g id="edge26" class="edge"><title>Node13&#45;&gt;Node4</title>
<path fill="none" stroke="midnightblue" d="M185,-58.3619C185,-50.9219 185,-40.7427 185,-31.7276"/>
<polygon fill="midnightblue" stroke="midnightblue" points="188.5,-31.5706 185,-21.5707 181.5,-31.5707 188.5,-31.5706"/>
</g>
<!-- Node13&#45;&gt;Node8 -->
<g id="edge30" class="edge"><title>Node13&#45;&gt;Node8</title>
<path fill="none" stroke="midnightblue" d="M198.022,-58.3619C208.431,-49.859 223.219,-37.7785 235.255,-27.9466"/>
<polygon fill="midnightblue" stroke="midnightblue" points="237.53,-30.6077 243.06,-21.5707 233.101,-25.1866 237.53,-30.6077"/>
</g>
<!-- Node14 -->
<g id="node28" class="node"><title>Node14</title>
<polygon fill="white" stroke="#bfbfbf" points="-0.5,-0.5 -0.5,-21.5 46.5,-21.5 46.5,-0.5 -0.5,-0.5"/>
<text text-anchor="middle" x="23" y="-8.5" font-family="Helvetica,sans-Serif" font-size="10.00">stdio.h</text>
</g>
<!-- Node13&#45;&gt;Node14 -->
<g id="edge28" class="edge"><title>Node13&#45;&gt;Node14</title>
<path fill="none" stroke="midnightblue" d="M155.663,-58.4966C127.687,-48.4805 85.5992,-33.412 56.3598,-22.9436"/>
<polygon fill="midnightblue" stroke="midnightblue" points="57.1921,-19.5241 46.5975,-19.4485 54.8325,-26.1145 57.1921,-19.5241"/>
</g>
<!-- Node15 -->
<g id="node31" class="node"><title>Node15</title>
<polygon fill="white" stroke="#bfbfbf" points="63.5,-0.5 63.5,-21.5 134.5,-21.5 134.5,-0.5 63.5,-0.5"/>
<text text-anchor="middle" x="99" y="-8.5" font-family="Helvetica,sans-Serif" font-size="10.00">PmLogLib.h</text>
</g>
<!-- Node13&#45;&gt;Node15 -->
<g id="edge32" class="edge"><title>Node13&#45;&gt;Node15</title>
<path fill="none" stroke="midnightblue" d="M169.226,-58.3619C156.376,-49.6955 138.015,-37.3126 123.29,-27.3819"/>
<polygon fill="midnightblue" stroke="midnightblue" points="124.921,-24.2604 114.674,-21.5707 121.007,-30.0639 124.921,-24.2604"/>
</g>
<!-- Node16&#45;&gt;Node4 -->
<g id="edge36" class="edge"><title>Node16&#45;&gt;Node4</title>
<path fill="none" stroke="midnightblue" d="M541.366,-66.7732C488.327,-61.3587 351.759,-46.2799 228.804,-22.2054"/>
<polygon fill="midnightblue" stroke="midnightblue" points="229.337,-18.7429 218.847,-20.2297 227.974,-25.6091 229.337,-18.7429"/>
</g>
<!-- Node16&#45;&gt;Node5 -->
<g id="edge40" class="edge"><title>Node16&#45;&gt;Node5</title>
<path fill="none" stroke="midnightblue" d="M541.363,-58.4966C521.384,-49.2264 492.078,-35.6282 469.937,-25.3548"/>
<polygon fill="midnightblue" stroke="midnightblue" points="471.176,-22.0713 460.632,-21.0371 468.23,-28.421 471.176,-22.0713"/>
</g>
<!-- Node16&#45;&gt;Node6 -->
<g id="edge42" class="edge"><title>Node16&#45;&gt;Node6</title>
<path fill="none" stroke="midnightblue" d="M552.445,-58.3619C543.387,-50.0226 530.59,-38.2418 520.026,-28.5162"/>
<polygon fill="midnightblue" stroke="midnightblue" points="522.21,-25.7688 512.482,-21.5707 517.468,-30.9187 522.21,-25.7688"/>
</g>
<!-- Node16&#45;&gt;Node8 -->
<g id="edge56" class="edge"><title>Node16&#45;&gt;Node8</title>
<path fill="none" stroke="midnightblue" d="M541.255,-66.6957C494.814,-61.6696 385.73,-48.2226 286.614,-22.0811"/>
<polygon fill="midnightblue" stroke="midnightblue" points="287.314,-18.6451 276.748,-19.4272 285.496,-25.4048 287.314,-18.6451"/>
</g>
<!-- Node17 -->
<g id="node36" class="node"><title>Node17</title>
<polygon fill="white" stroke="#bfbfbf" points="542,-0.5 542,-21.5 586,-21.5 586,-0.5 542,-0.5"/>
<text text-anchor="middle" x="564" y="-8.5" font-family="Helvetica,sans-Serif" font-size="10.00">time.h</text>
</g>
<!-- Node16&#45;&gt;Node17 -->
<g id="edge38" class="edge"><title>Node16&#45;&gt;Node17</title>
<path fill="none" stroke="midnightblue" d="M564,-58.3619C564,-50.9219 564,-40.7427 564,-31.7276"/>
<polygon fill="midnightblue" stroke="midnightblue" points="567.5,-31.5706 564,-21.5707 560.5,-31.5707 567.5,-31.5706"/>
</g>
<!-- Node18 -->
<g id="node40" class="node"><title>Node18</title>
<polygon fill="white" stroke="#bfbfbf" points="604,-0.5 604,-21.5 658,-21.5 658,-0.5 604,-0.5"/>
<text text-anchor="middle" x="631" y="-8.5" font-family="Helvetica,sans-Serif" font-size="10.00">sstream</text>
</g>
<!-- Node16&#45;&gt;Node18 -->
<g id="edge44" class="edge"><title>Node16&#45;&gt;Node18</title>
<path fill="none" stroke="midnightblue" d="M576.289,-58.3619C586.017,-49.9408 599.798,-38.0105 611.095,-28.2308"/>
<polygon fill="midnightblue" stroke="midnightblue" points="613.519,-30.7619 618.789,-21.5707 608.938,-25.4695 613.519,-30.7619"/>
</g>
<!-- Node19 -->
<g id="node42" class="node"><title>Node19</title>
<polygon fill="white" stroke="#bfbfbf" points="675.5,-0.5 675.5,-21.5 732.5,-21.5 732.5,-0.5 675.5,-0.5"/>
<text text-anchor="middle" x="704" y="-8.5" font-family="Helvetica,sans-Serif" font-size="10.00">iostream</text>
</g>
<!-- Node16&#45;&gt;Node19 -->
<g id="edge46" class="edge"><title>Node16&#45;&gt;Node19</title>
<path fill="none" stroke="midnightblue" d="M586.805,-59.5522C609.065,-50.3301 643.244,-36.1702 668.957,-25.5177"/>
<polygon fill="midnightblue" stroke="midnightblue" points="670.456,-28.6853 678.355,-21.6244 667.777,-22.2183 670.456,-28.6853"/>
</g>
<!-- Node20 -->
<g id="node44" class="node"><title>Node20</title>
<polygon fill="white" stroke="#bfbfbf" points="750,-0.5 750,-21.5 802,-21.5 802,-0.5 750,-0.5"/>
<text text-anchor="middle" x="776" y="-8.5" font-family="Helvetica,sans-Serif" font-size="10.00">regex.h</text>
</g>
<!-- Node16&#45;&gt;Node20 -->
<g id="edge48" class="edge"><title>Node16&#45;&gt;Node20</title>
<path fill="none" stroke="midnightblue" d="M586.601,-60.6883C589.416,-59.7397 592.265,-58.8202 595,-58 656.015,-39.7016 674.89,-39.9579 739.764,-22.2188"/>
<polygon fill="midnightblue" stroke="midnightblue" points="740.98,-25.5137 749.68,-19.4666 739.108,-18.7686 740.98,-25.5137"/>
</g>
<!-- Node21 -->
<g id="node46" class="node"><title>Node21</title>
<polygon fill="white" stroke="#bfbfbf" points="819.5,-0.5 819.5,-21.5 890.5,-21.5 890.5,-0.5 819.5,-0.5"/>
<text text-anchor="middle" x="855" y="-8.5" font-family="Helvetica,sans-Serif" font-size="10.00">QByteArray</text>
</g>
<!-- Node16&#45;&gt;Node21 -->
<g id="edge50" class="edge"><title>Node16&#45;&gt;Node21</title>
<path fill="none" stroke="midnightblue" d="M586.544,-60.4837C589.368,-59.5702 592.236,-58.7149 595,-58 686.096,-34.4419 713.881,-41.3104 808.993,-22.2928"/>
<polygon fill="midnightblue" stroke="midnightblue" points="809.939,-25.6718 819.035,-20.2396 808.537,-18.8136 809.939,-25.6718"/>
</g>
<!-- Node22 -->
<g id="node48" class="node"><title>Node22</title>
<polygon fill="white" stroke="#bfbfbf" points="908,-0.5 908,-21.5 946,-21.5 946,-0.5 908,-0.5"/>
<text text-anchor="middle" x="927" y="-8.5" font-family="Helvetica,sans-Serif" font-size="10.00">QUrl</text>
</g>
<!-- Node16&#45;&gt;Node22 -->
<g id="edge52" class="edge"><title>Node16&#45;&gt;Node22</title>
<path fill="none" stroke="midnightblue" d="M586.513,-60.3564C589.343,-59.4647 592.219,-58.6494 595,-58 724.385,-27.7838 765.139,-53.8624 898.191,-21.6585"/>
<polygon fill="midnightblue" stroke="midnightblue" points="899.072,-25.0461 907.933,-19.2375 897.384,-18.2527 899.072,-25.0461"/>
</g>
<!-- Node23 -->
<g id="node50" class="node"><title>Node23</title>
<polygon fill="white" stroke="#bfbfbf" points="964,-0.5 964,-21.5 1052,-21.5 1052,-0.5 964,-0.5"/>
<text text-anchor="middle" x="1008" y="-8.5" font-family="Helvetica,sans-Serif" font-size="10.00">QGraphicsItem</text>
</g>
<!-- Node16&#45;&gt;Node23 -->
<g id="edge54" class="edge"><title>Node16&#45;&gt;Node23</title>
<path fill="none" stroke="midnightblue" d="M586.502,-60.3072C589.333,-59.4239 592.214,-58.624 595,-58 748.693,-23.579 794.202,-45.4322 953.649,-22.0603"/>
<polygon fill="midnightblue" stroke="midnightblue" points="954.448,-25.4797 963.816,-20.5319 953.407,-18.5575 954.448,-25.4797"/>
</g>
</g>
</svg>
