<?xml version="1.0" encoding="UTF-8" standalone="no"?>
<!DOCTYPE svg PUBLIC "-//W3C//DTD SVG 1.1//EN"
 "http://www.w3.org/Graphics/SVG/1.1/DTD/svg11.dtd">
<!-- Generated by graphviz version 2.26.3 (20100126.1600)
 -->
<!-- Title: G Pages: 1 -->
<svg width="328pt" height="146pt"
 viewBox="0.00 0.00 328.00 146.00" xmlns="http://www.w3.org/2000/svg" xmlns:xlink="http://www.w3.org/1999/xlink">
<g id="graph1" class="graph" transform="scale(1 1) rotate(0) translate(4 142)">
<title>G</title>
<polygon fill="white" stroke="white" points="-4,5 -4,-142 325,-142 325,5 -4,5"/>
<!-- Node1 -->
<g id="node1" class="node"><title>Node1</title>
<polygon fill="#bfbfbf" stroke="black" points="8,-116.5 8,-137.5 132,-137.5 132,-116.5 8,-116.5"/>
<text text-anchor="middle" x="70" y="-124.5" font-family="Helvetica,sans-Serif" font-size="10.00">JsSysObjectWrapper.h</text>
</g>
<!-- Node2 -->
<g id="node3" class="node"><title>Node2</title>
<a xlink:href="Common_8h.htm" target="_top" xlink:title="Common.h">
<polygon fill="white" stroke="black" points="-0.5,-0.5 -0.5,-21.5 66.5,-21.5 66.5,-0.5 -0.5,-0.5"/>
<text text-anchor="middle" x="33" y="-8.5" font-family="Helvetica,sans-Serif" font-size="10.00">Common.h</text>
</a>
</g>
<!-- Node1&#45;&gt;Node2 -->
<g id="edge2" class="edge"><title>Node1&#45;&gt;Node2</title>
<path fill="none" stroke="midnightblue" d="M66.5854,-116.295C60.4454,-97.0451 47.4456,-56.2889 39.5417,-31.5091"/>
<polygon fill="midnightblue" stroke="midnightblue" points="42.7797,-30.1427 36.4063,-21.6792 36.1107,-32.2699 42.7797,-30.1427"/>
</g>
<!-- Node3 -->
<g id="node5" class="node"><title>Node3</title>
<a xlink:href="JsSysObject_8h.htm" target="_top" xlink:title="JsSysObject.h">
<polygon fill="white" stroke="black" points="91.5,-58.5 91.5,-79.5 174.5,-79.5 174.5,-58.5 91.5,-58.5"/>
<text text-anchor="middle" x="133" y="-66.5" font-family="Helvetica,sans-Serif" font-size="10.00">JsSysObject.h</text>
</a>
</g>
<!-- Node1&#45;&gt;Node3 -->
<g id="edge4" class="edge"><title>Node1&#45;&gt;Node3</title>
<path fill="none" stroke="midnightblue" d="M81.5552,-116.362C90.6134,-108.023 103.41,-96.2418 113.974,-86.5162"/>
<polygon fill="midnightblue" stroke="midnightblue" points="116.532,-88.9187 121.518,-79.5707 111.79,-83.7688 116.532,-88.9187"/>
</g>
<!-- Node3&#45;&gt;Node2 -->
<g id="edge6" class="edge"><title>Node3&#45;&gt;Node2</title>
<path fill="none" stroke="midnightblue" d="M114.658,-58.3619C99.4345,-49.532 77.5585,-36.844 60.28,-26.8224"/>
<polygon fill="midnightblue" stroke="midnightblue" points="61.6316,-23.5603 51.2253,-21.5707 58.1196,-29.6155 61.6316,-23.5603"/>
</g>
<!-- Node4 -->
<g id="node8" class="node"><title>Node4</title>
<polygon fill="white" stroke="#bfbfbf" points="83.5,-0.5 83.5,-21.5 126.5,-21.5 126.5,-0.5 83.5,-0.5"/>
<text text-anchor="middle" x="105" y="-8.5" font-family="Helvetica,sans-Serif" font-size="10.00">string</text>
</g>
<!-- Node3&#45;&gt;Node4 -->
<g id="edge8" class="edge"><title>Node3&#45;&gt;Node4</title>
<path fill="none" stroke="midnightblue" d="M127.864,-58.3619C124.154,-50.6766 119.033,-40.0686 114.578,-30.8399"/>
<polygon fill="midnightblue" stroke="midnightblue" points="117.603,-29.0545 110.103,-21.5707 111.299,-32.0978 117.603,-29.0545"/>
</g>
<!-- Node5 -->
<g id="node10" class="node"><title>Node5</title>
<polygon fill="white" stroke="#bfbfbf" points="143.5,-0.5 143.5,-21.5 180.5,-21.5 180.5,-0.5 143.5,-0.5"/>
<text text-anchor="middle" x="162" y="-8.5" font-family="Helvetica,sans-Serif" font-size="10.00">map</text>
</g>
<!-- Node3&#45;&gt;Node5 -->
<g id="edge10" class="edge"><title>Node3&#45;&gt;Node5</title>
<path fill="none" stroke="midnightblue" d="M138.319,-58.3619C142.203,-50.5949 147.579,-39.8426 152.227,-30.5458"/>
<polygon fill="midnightblue" stroke="midnightblue" points="155.373,-32.0802 156.715,-21.5707 149.112,-28.9497 155.373,-32.0802"/>
</g>
<!-- Node6 -->
<g id="node12" class="node"><title>Node6</title>
<polygon fill="white" stroke="#bfbfbf" points="198,-0.5 198,-21.5 252,-21.5 252,-0.5 198,-0.5"/>
<text text-anchor="middle" x="225" y="-8.5" font-family="Helvetica,sans-Serif" font-size="10.00">npupp.h</text>
</g>
<!-- Node3&#45;&gt;Node6 -->
<g id="edge12" class="edge"><title>Node3&#45;&gt;Node6</title>
<path fill="none" stroke="midnightblue" d="M149.874,-58.3619C163.751,-49.6138 183.634,-37.0786 199.46,-27.1015"/>
<polygon fill="midnightblue" stroke="midnightblue" points="201.64,-29.8645 208.233,-21.5707 197.907,-23.943 201.64,-29.8645"/>
</g>
<!-- Node7 -->
<g id="node14" class="node"><title>Node7</title>
<polygon fill="white" stroke="#bfbfbf" points="269.5,-0.5 269.5,-21.5 320.5,-21.5 320.5,-0.5 269.5,-0.5"/>
<text text-anchor="middle" x="295" y="-8.5" font-family="Helvetica,sans-Serif" font-size="10.00">npapi.h</text>
</g>
<!-- Node3&#45;&gt;Node7 -->
<g id="edge14" class="edge"><title>Node3&#45;&gt;Node7</title>
<path fill="none" stroke="midnightblue" d="M162.337,-58.4966C189.661,-48.7141 230.445,-34.1122 259.574,-23.6835"/>
<polygon fill="midnightblue" stroke="midnightblue" points="261.114,-26.8495 269.349,-20.1835 258.755,-20.2591 261.114,-26.8495"/>
</g>
</g>
</svg>
