<?xml version="1.0" encoding="UTF-8" standalone="no"?>
<!DOCTYPE svg PUBLIC "-//W3C//DTD SVG 1.1//EN"
 "http://www.w3.org/Graphics/SVG/1.1/DTD/svg11.dtd">
<!-- Generated by graphviz version 2.26.3 (20100126.1600)
 -->
<!-- Title: G Pages: 1 -->
<svg width="251pt" height="146pt"
 viewBox="0.00 0.00 251.00 146.00" xmlns="http://www.w3.org/2000/svg" xmlns:xlink="http://www.w3.org/1999/xlink">
<g id="graph1" class="graph" transform="scale(1 1) rotate(0) translate(4 142)">
<title>G</title>
<polygon fill="white" stroke="white" points="-4,5 -4,-142 248,-142 248,5 -4,5"/>
<!-- Node1 -->
<g id="node1" class="node"><title>Node1</title>
<polygon fill="#bfbfbf" stroke="black" points="89,-116.5 89,-137.5 151,-137.5 151,-116.5 89,-116.5"/>
<text text-anchor="middle" x="120" y="-124.5" font-family="Helvetica,sans-Serif" font-size="10.00">JsUtil.cpp</text>
</g>
<!-- Node2 -->
<g id="node3" class="node"><title>Node2</title>
<a xlink:href="Common_8h.htm" target="_top" xlink:title="Common.h">
<polygon fill="white" stroke="black" points="-0.5,-0.5 -0.5,-21.5 66.5,-21.5 66.5,-0.5 -0.5,-0.5"/>
<text text-anchor="middle" x="33" y="-8.5" font-family="Helvetica,sans-Serif" font-size="10.00">Common.h</text>
</a>
</g>
<!-- Node1&#45;&gt;Node2 -->
<g id="edge2" class="edge"><title>Node1&#45;&gt;Node2</title>
<path fill="none" stroke="midnightblue" d="M96.9579,-116.367C82.0558,-108.365 63.3814,-96.0317 52,-80 41.9123,-65.7906 37.175,-46.4407 34.9535,-31.8476"/>
<polygon fill="midnightblue" stroke="midnightblue" points="38.4086,-31.2694 33.698,-21.7794 31.4623,-32.1356 38.4086,-31.2694"/>
</g>
<!-- Node3 -->
<g id="node5" class="node"><title>Node3</title>
<a xlink:href="JsUtil_8h.htm" target="_top" xlink:title="JsUtil.h">
<polygon fill="white" stroke="black" points="61,-58.5 61,-79.5 111,-79.5 111,-58.5 61,-58.5"/>
<text text-anchor="middle" x="86" y="-66.5" font-family="Helvetica,sans-Serif" font-size="10.00">JsUtil.h</text>
</a>
</g>
<!-- Node1&#45;&gt;Node3 -->
<g id="edge4" class="edge"><title>Node1&#45;&gt;Node3</title>
<path fill="none" stroke="midnightblue" d="M113.764,-116.362C109.163,-108.513 102.775,-97.6159 97.2861,-88.2527"/>
<polygon fill="midnightblue" stroke="midnightblue" points="100.273,-86.4276 92.1966,-79.5707 94.2344,-89.9677 100.273,-86.4276"/>
</g>
<!-- Node5 -->
<g id="node10" class="node"><title>Node5</title>
<polygon fill="white" stroke="#bfbfbf" points="128.5,-58.5 128.5,-79.5 179.5,-79.5 179.5,-58.5 128.5,-58.5"/>
<text text-anchor="middle" x="154" y="-66.5" font-family="Helvetica,sans-Serif" font-size="10.00">string.h</text>
</g>
<!-- Node1&#45;&gt;Node5 -->
<g id="edge10" class="edge"><title>Node1&#45;&gt;Node5</title>
<path fill="none" stroke="midnightblue" d="M126.236,-116.362C130.837,-108.513 137.225,-97.6159 142.714,-88.2527"/>
<polygon fill="midnightblue" stroke="midnightblue" points="145.766,-89.9677 147.803,-79.5707 139.727,-86.4276 145.766,-89.9677"/>
</g>
<!-- Node6 -->
<g id="node12" class="node"><title>Node6</title>
<polygon fill="white" stroke="#bfbfbf" points="196.5,-58.5 196.5,-79.5 243.5,-79.5 243.5,-58.5 196.5,-58.5"/>
<text text-anchor="middle" x="220" y="-66.5" font-family="Helvetica,sans-Serif" font-size="10.00">stdio.h</text>
</g>
<!-- Node1&#45;&gt;Node6 -->
<g id="edge12" class="edge"><title>Node1&#45;&gt;Node6</title>
<path fill="none" stroke="midnightblue" d="M138.342,-116.362C153.566,-107.532 175.441,-94.844 192.72,-84.8224"/>
<polygon fill="midnightblue" stroke="midnightblue" points="194.88,-87.6155 201.775,-79.5707 191.368,-81.5603 194.88,-87.6155"/>
</g>
<!-- Node3&#45;&gt;Node2 -->
<g id="edge6" class="edge"><title>Node3&#45;&gt;Node2</title>
<path fill="none" stroke="midnightblue" d="M76.279,-58.3619C68.808,-50.1861 58.3143,-38.7025 49.5311,-29.0907"/>
<polygon fill="midnightblue" stroke="midnightblue" points="51.9889,-26.5918 42.6594,-21.5707 46.8214,-31.3138 51.9889,-26.5918"/>
</g>
<!-- Node4 -->
<g id="node8" class="node"><title>Node4</title>
<polygon fill="white" stroke="#bfbfbf" points="83.5,-0.5 83.5,-21.5 126.5,-21.5 126.5,-0.5 83.5,-0.5"/>
<text text-anchor="middle" x="105" y="-8.5" font-family="Helvetica,sans-Serif" font-size="10.00">string</text>
</g>
<!-- Node3&#45;&gt;Node4 -->
<g id="edge8" class="edge"><title>Node3&#45;&gt;Node4</title>
<path fill="none" stroke="midnightblue" d="M89.4849,-58.3619C91.9757,-50.7584 95.4037,-40.294 98.4041,-31.1349"/>
<polygon fill="midnightblue" stroke="midnightblue" points="101.75,-32.1634 101.537,-21.5707 95.098,-29.9841 101.75,-32.1634"/>
</g>
</g>
</svg>
