<?xml version="1.0" encoding="UTF-8" standalone="no"?>
<!DOCTYPE svg PUBLIC "-//W3C//DTD SVG 1.1//EN"
 "http://www.w3.org/Graphics/SVG/1.1/DTD/svg11.dtd">
<!-- Generated by graphviz version 2.26.3 (20100126.1600)
 -->
<!-- Title: G Pages: 1 -->
<svg width="756pt" height="88pt"
 viewBox="0.00 0.00 756.00 88.00" xmlns="http://www.w3.org/2000/svg" xmlns:xlink="http://www.w3.org/1999/xlink">
<g id="graph1" class="graph" transform="scale(1 1) rotate(0) translate(4 84)">
<title>G</title>
<polygon fill="white" stroke="white" points="-4,5 -4,-84 753,-84 753,5 -4,5"/>
<!-- Node1 -->
<g id="node1" class="node"><title>Node1</title>
<polygon fill="#bfbfbf" stroke="black" points="331,-58.5 331,-79.5 459,-79.5 459,-58.5 331,-58.5"/>
<text text-anchor="middle" x="395" y="-66.5" font-family="Helvetica,sans-Serif" font-size="10.00">KeyLocationRecorder.h</text>
</g>
<!-- Node2 -->
<g id="node3" class="node"><title>Node2</title>
<a xlink:href="KeyLocationRecorder_8cpp.htm" target="_top" xlink:title="KeyLocationRecorder.cpp">
<polygon fill="white" stroke="black" points="-0.5,-0.5 -0.5,-21.5 138.5,-21.5 138.5,-0.5 -0.5,-0.5"/>
<text text-anchor="middle" x="69" y="-8.5" font-family="Helvetica,sans-Serif" font-size="10.00">KeyLocationRecorder.cpp</text>
</a>
</g>
<!-- Node1&#45;&gt;Node2 -->
<g id="edge2" class="edge"><title>Node1&#45;&gt;Node2</title>
<path fill="none" stroke="midnightblue" d="M326.032,-56.7296C267.316,-46.2833 183.861,-31.4354 128.147,-21.5231"/>
<polygon fill="midnightblue" stroke="midnightblue" points="325.505,-60.1908 335.964,-58.4966 326.732,-53.299 325.505,-60.1908"/>
</g>
<!-- Node3 -->
<g id="node5" class="node"><title>Node3</title>
<a xlink:href="PhoneKeyboard_8cpp.htm" target="_top" xlink:title="PhoneKeyboard.cpp">
<polygon fill="white" stroke="black" points="156,-0.5 156,-21.5 268,-21.5 268,-0.5 156,-0.5"/>
<text text-anchor="middle" x="212" y="-8.5" font-family="Helvetica,sans-Serif" font-size="10.00">PhoneKeyboard.cpp</text>
</a>
</g>
<!-- Node1&#45;&gt;Node3 -->
<g id="edge4" class="edge"><title>Node1&#45;&gt;Node3</title>
<path fill="none" stroke="midnightblue" d="M352.13,-55.4127C319.48,-45.0646 275.185,-31.0258 245.202,-21.5231"/>
<polygon fill="midnightblue" stroke="midnightblue" points="351.27,-58.8117 361.86,-58.4966 353.385,-52.1388 351.27,-58.8117"/>
</g>
<!-- Node4 -->
<g id="node7" class="node"><title>Node4</title>
<a xlink:href="PhoneKeymap_8cpp.htm" target="_top" xlink:title="PhoneKeymap.cpp">
<polygon fill="white" stroke="black" points="285.5,-0.5 285.5,-21.5 390.5,-21.5 390.5,-0.5 285.5,-0.5"/>
<text text-anchor="middle" x="338" y="-8.5" font-family="Helvetica,sans-Serif" font-size="10.00">PhoneKeymap.cpp</text>
</a>
</g>
<!-- Node1&#45;&gt;Node4 -->
<g id="edge6" class="edge"><title>Node1&#45;&gt;Node4</title>
<path fill="none" stroke="midnightblue" d="M377.426,-51.118C367.913,-41.4377 356.486,-29.8098 348.388,-21.5707"/>
<polygon fill="midnightblue" stroke="midnightblue" points="375.04,-53.6829 384.545,-58.3619 380.032,-48.7763 375.04,-53.6829"/>
</g>
<!-- Node5 -->
<g id="node9" class="node"><title>Node5</title>
<a xlink:href="PreKeymap_8cpp.htm" target="_top" xlink:title="PreKeymap.cpp">
<polygon fill="white" stroke="black" points="407.5,-0.5 407.5,-21.5 498.5,-21.5 498.5,-0.5 407.5,-0.5"/>
<text text-anchor="middle" x="453" y="-8.5" font-family="Helvetica,sans-Serif" font-size="10.00">PreKeymap.cpp</text>
</a>
</g>
<!-- Node1&#45;&gt;Node5 -->
<g id="edge8" class="edge"><title>Node1&#45;&gt;Node5</title>
<path fill="none" stroke="midnightblue" d="M412.882,-51.118C422.562,-41.4377 434.19,-29.8098 442.429,-21.5707"/>
<polygon fill="midnightblue" stroke="midnightblue" points="410.234,-48.8159 405.638,-58.3619 415.184,-53.7657 410.234,-48.8159"/>
</g>
<!-- Node6 -->
<g id="node11" class="node"><title>Node6</title>
<a xlink:href="TabletKeyboard_8cpp.htm" target="_top" xlink:title="TabletKeyboard.cpp">
<polygon fill="white" stroke="black" points="516,-0.5 516,-21.5 626,-21.5 626,-0.5 516,-0.5"/>
<text text-anchor="middle" x="571" y="-8.5" font-family="Helvetica,sans-Serif" font-size="10.00">TabletKeyboard.cpp</text>
</a>
</g>
<!-- Node1&#45;&gt;Node6 -->
<g id="edge10" class="edge"><title>Node1&#45;&gt;Node6</title>
<path fill="none" stroke="midnightblue" d="M436.637,-55.2787C467.998,-44.9437 510.356,-30.9849 539.068,-21.5231"/>
<polygon fill="midnightblue" stroke="midnightblue" points="435.274,-52.0425 426.872,-58.4966 437.465,-58.6908 435.274,-52.0425"/>
</g>
<!-- Node7 -->
<g id="node13" class="node"><title>Node7</title>
<a xlink:href="TabletKeymap_8cpp.htm" target="_top" xlink:title="TabletKeymap.cpp">
<polygon fill="white" stroke="black" points="644,-0.5 644,-21.5 748,-21.5 748,-0.5 644,-0.5"/>
<text text-anchor="middle" x="696" y="-8.5" font-family="Helvetica,sans-Serif" font-size="10.00">TabletKeymap.cpp</text>
</a>
</g>
<!-- Node1&#45;&gt;Node7 -->
<g id="edge12" class="edge"><title>Node1&#45;&gt;Node7</title>
<path fill="none" stroke="midnightblue" d="M459.51,-56.5695C514.574,-45.9592 592.751,-30.8952 643.911,-21.0371"/>
<polygon fill="midnightblue" stroke="midnightblue" points="458.666,-53.1677 449.509,-58.4966 459.99,-60.0412 458.666,-53.1677"/>
</g>
</g>
</svg>
