<?xml version="1.0" encoding="UTF-8" standalone="no"?>
<!DOCTYPE svg PUBLIC "-//W3C//DTD SVG 1.1//EN"
 "http://www.w3.org/Graphics/SVG/1.1/DTD/svg11.dtd">
<!-- Generated by graphviz version 2.26.3 (20100126.1600)
 -->
<!-- Title: G Pages: 1 -->
<svg width="5336pt" height="262pt"
 viewBox="0.00 0.00 5336.00 262.00" xmlns="http://www.w3.org/2000/svg" xmlns:xlink="http://www.w3.org/1999/xlink">
<g id="graph1" class="graph" transform="scale(1 1) rotate(0) translate(4 258)">
<title>G</title>
<polygon fill="white" stroke="white" points="-4,5 -4,-258 5333,-258 5333,5 -4,5"/>
<!-- Node1 -->
<g id="node1" class="node"><title>Node1</title>
<polygon fill="#bfbfbf" stroke="black" points="3371.5,-232.5 3371.5,-253.5 3458.5,-253.5 3458.5,-232.5 3371.5,-232.5"/>
<text text-anchor="middle" x="3415" y="-240.5" font-family="Helvetica,sans-Serif" font-size="10.00">KeywordMap.h</text>
</g>
<!-- Node2 -->
<g id="node3" class="node"><title>Node2</title>
<a xlink:href="ApplicationDescription_8h.htm" target="_top" xlink:title="ApplicationDescription.h">
<polygon fill="white" stroke="black" points="3284,-174.5 3284,-195.5 3414,-195.5 3414,-174.5 3284,-174.5"/>
<text text-anchor="middle" x="3349" y="-182.5" font-family="Helvetica,sans-Serif" font-size="10.00">ApplicationDescription.h</text>
</a>
</g>
<!-- Node1&#45;&gt;Node2 -->
<g id="edge2" class="edge"><title>Node1&#45;&gt;Node2</title>
<path fill="none" stroke="midnightblue" d="M3395.3,-225.691C3384.16,-215.9 3370.59,-203.973 3361.03,-195.571"/>
<polygon fill="midnightblue" stroke="midnightblue" points="3393.07,-228.39 3402.89,-232.362 3397.69,-223.132 3393.07,-228.39"/>
</g>
<!-- Node50 -->
<g id="node127" class="node"><title>Node50</title>
<a xlink:href="KeywordMap_8cpp.htm" target="_top" xlink:title="KeywordMap.cpp">
<polygon fill="white" stroke="black" points="3432,-174.5 3432,-195.5 3530,-195.5 3530,-174.5 3432,-174.5"/>
<text text-anchor="middle" x="3481" y="-182.5" font-family="Helvetica,sans-Serif" font-size="10.00">KeywordMap.cpp</text>
</a>
</g>
<!-- Node1&#45;&gt;Node50 -->
<g id="edge154" class="edge"><title>Node1&#45;&gt;Node50</title>
<path fill="none" stroke="midnightblue" d="M3434.7,-225.691C3445.84,-215.9 3459.41,-203.973 3468.97,-195.571"/>
<polygon fill="midnightblue" stroke="midnightblue" points="3432.31,-223.132 3427.11,-232.362 3436.93,-228.39 3432.31,-223.132"/>
</g>
<!-- Node3 -->
<g id="node5" class="node"><title>Node3</title>
<a xlink:href="SystemUiController_8h.htm" target="_top" xlink:title="SystemUiController.h">
<polygon fill="white" stroke="red" points="1314,-116.5 1314,-137.5 1430,-137.5 1430,-116.5 1314,-116.5"/>
<text text-anchor="middle" x="1372" y="-124.5" font-family="Helvetica,sans-Serif" font-size="10.00">SystemUiController.h</text>
</a>
</g>
<!-- Node2&#45;&gt;Node3 -->
<g id="edge4" class="edge"><title>Node2&#45;&gt;Node3</title>
<path fill="none" stroke="midnightblue" d="M3273.71,-182.791C2954.26,-173.419 1714.42,-137.046 1430.26,-128.709"/>
<polygon fill="midnightblue" stroke="midnightblue" points="3273.69,-186.292 3283.78,-183.087 3273.89,-179.295 3273.69,-186.292"/>
</g>
<!-- Node5 -->
<g id="node9" class="node"><title>Node5</title>
<a xlink:href="ApplicationManager_8cpp.htm" target="_top" xlink:title="ApplicationManager.cpp">
<polygon fill="white" stroke="black" points="-0.5,-58.5 -0.5,-79.5 130.5,-79.5 130.5,-58.5 -0.5,-58.5"/>
<text text-anchor="middle" x="65" y="-66.5" font-family="Helvetica,sans-Serif" font-size="10.00">ApplicationManager.cpp</text>
</a>
</g>
<!-- Node2&#45;&gt;Node5 -->
<g id="edge86" class="edge"><title>Node2&#45;&gt;Node5</title>
<path fill="none" stroke="midnightblue" d="M3273.67,-183.994C3005.72,-180.261 2073.73,-165.952 1305,-138 786.48,-119.146 655.341,-131.095 139,-80 136.286,-79.7314 133.519,-79.4329 130.726,-79.1111"/>
<polygon fill="midnightblue" stroke="midnightblue" points="3273.63,-187.494 3283.68,-184.133 3273.73,-180.494 3273.63,-187.494"/>
</g>
<!-- Node11 -->
<g id="node21" class="node"><title>Node11</title>
<a xlink:href="WebAppMgrProxy_8cpp.htm" target="_top" xlink:title="WebAppMgrProxy.cpp">
<polygon fill="white" stroke="black" points="1354,-0.5 1354,-21.5 1476,-21.5 1476,-0.5 1354,-0.5"/>
<text text-anchor="middle" x="1415" y="-8.5" font-family="Helvetica,sans-Serif" font-size="10.00">WebAppMgrProxy.cpp</text>
</a>
</g>
<!-- Node2&#45;&gt;Node11 -->
<g id="edge144" class="edge"><title>Node2&#45;&gt;Node11</title>
<path fill="none" stroke="midnightblue" d="M3273.54,-177.698C3200.12,-169.731 3094.33,-155.715 3057,-138 3008.65,-115.054 3016.79,-77.6254 2967,-58 2813.76,2.40186 1649.05,-36.8171 1485,-22 1482.06,-21.7344 1479.06,-21.4219 1476.02,-21.0737"/>
<polygon fill="midnightblue" stroke="midnightblue" points="3273.36,-181.199 3283.68,-178.782 3274.11,-174.238 3273.36,-181.199"/>
</g>
<!-- Node15 -->
<g id="node31" class="node"><title>Node15</title>
<a xlink:href="SystemService_8cpp.htm" target="_top" xlink:title="SystemService.cpp">
<polygon fill="white" stroke="black" points="1494,-0.5 1494,-21.5 1600,-21.5 1600,-0.5 1494,-0.5"/>
<text text-anchor="middle" x="1547" y="-8.5" font-family="Helvetica,sans-Serif" font-size="10.00">SystemService.cpp</text>
</a>
</g>
<!-- Node2&#45;&gt;Node15 -->
<g id="edge94" class="edge"><title>Node2&#45;&gt;Node15</title>
<path fill="none" stroke="midnightblue" d="M3273.81,-175.836C3209.52,-167.178 3122.56,-153.271 3091,-138 3042.53,-114.544 3050.14,-77.6499 3000,-58 2856.05,-1.585 1762.82,-37.5478 1609,-22 1606.06,-21.7032 1603.06,-21.3466 1600.03,-20.9462"/>
<polygon fill="midnightblue" stroke="midnightblue" points="3273.54,-179.332 3283.92,-177.18 3274.47,-172.393 3273.54,-179.332"/>
</g>
<!-- Node20 -->
<g id="node45" class="node"><title>Node20</title>
<a xlink:href="CardLoading_8cpp.htm" target="_top" xlink:title="CardLoading.cpp">
<polygon fill="white" stroke="black" points="1618,-0.5 1618,-21.5 1716,-21.5 1716,-0.5 1618,-0.5"/>
<text text-anchor="middle" x="1667" y="-8.5" font-family="Helvetica,sans-Serif" font-size="10.00">CardLoading.cpp</text>
</a>
</g>
<!-- Node2&#45;&gt;Node20 -->
<g id="edge98" class="edge"><title>Node2&#45;&gt;Node20</title>
<path fill="none" stroke="midnightblue" d="M3273.69,-173.849C3218.5,-164.84 3148.89,-151.482 3123,-138 3076.99,-114.04 3085.96,-77.7839 3038,-58 2903.09,-2.34415 1870.1,-37.6472 1725,-22 1722.15,-21.6923 1719.22,-21.3204 1716.28,-20.9019"/>
<polygon fill="midnightblue" stroke="midnightblue" points="3273.38,-177.345 3283.81,-175.48 3274.5,-170.434 3273.38,-177.345"/>
</g>
<!-- Node21 -->
<g id="node47" class="node"><title>Node21</title>
<a xlink:href="CardWindow_8cpp.htm" target="_top" xlink:title="CardWindow.cpp">
<polygon fill="white" stroke="black" points="1733.5,-0.5 1733.5,-21.5 1830.5,-21.5 1830.5,-0.5 1733.5,-0.5"/>
<text text-anchor="middle" x="1782" y="-8.5" font-family="Helvetica,sans-Serif" font-size="10.00">CardWindow.cpp</text>
</a>
</g>
<!-- Node2&#45;&gt;Node21 -->
<g id="edge102" class="edge"><title>Node2&#45;&gt;Node21</title>
<path fill="none" stroke="midnightblue" d="M3273.79,-177.151C3235.67,-170.719 3189.8,-159.066 3153,-138 3110.17,-113.482 3121.12,-77.9784 3076,-58 2950.27,-2.33401 1975.67,-37.0766 1839,-22 1836.3,-21.7016 1833.53,-21.3438 1830.74,-20.9425"/>
<polygon fill="midnightblue" stroke="midnightblue" points="3273.38,-180.63 3283.81,-178.753 3274.49,-173.718 3273.38,-180.63"/>
</g>
<!-- Node22 -->
<g id="node49" class="node"><title>Node22</title>
<a xlink:href="CardWindowManager_8cpp.htm" target="_top" xlink:title="CardWindowManager.cpp">
<polygon fill="white" stroke="black" points="1848,-0.5 1848,-21.5 1988,-21.5 1988,-0.5 1848,-0.5"/>
<text text-anchor="middle" x="1918" y="-8.5" font-family="Helvetica,sans-Serif" font-size="10.00">CardWindowManager.cpp</text>
</a>
</g>
<!-- Node2&#45;&gt;Node22 -->
<g id="edge104" class="edge"><title>Node2&#45;&gt;Node22</title>
<path fill="none" stroke="midnightblue" d="M3279.96,-172.278C3244.13,-164.123 3205.64,-152.375 3195,-138 3189.18,-130.141 3189.28,-123.932 3195,-116 3224.58,-74.954 3273.42,-121.046 3303,-80 3308.72,-72.0679 3309.8,-65.0302 3303,-58 3279.93,-34.1337 2266.8,-16.4797 1988.23,-12.0704"/>
<polygon fill="midnightblue" stroke="midnightblue" points="3279.45,-175.75 3289.97,-174.482 3280.95,-168.914 3279.45,-175.75"/>
</g>
<!-- Node23 -->
<g id="node54" class="node"><title>Node23</title>
<a xlink:href="EmulatedCardWindow_8cpp.htm" target="_top" xlink:title="EmulatedCardWindow.cpp">
<polygon fill="white" stroke="black" points="1744,-58.5 1744,-79.5 1884,-79.5 1884,-58.5 1744,-58.5"/>
<text text-anchor="middle" x="1814" y="-66.5" font-family="Helvetica,sans-Serif" font-size="10.00">EmulatedCardWindow.cpp</text>
</a>
</g>
<!-- Node2&#45;&gt;Node23 -->
<g id="edge106" class="edge"><title>Node2&#45;&gt;Node23</title>
<path fill="none" stroke="midnightblue" d="M3273.55,-182.988C3057.44,-177.038 2438.77,-158.646 2237,-138 2102.28,-124.215 1945.32,-95.1557 1865.83,-79.5077"/>
<polygon fill="midnightblue" stroke="midnightblue" points="3273.74,-186.495 3283.84,-183.27 3273.94,-179.497 3273.74,-186.495"/>
</g>
<!-- Node24 -->
<g id="node56" class="node"><title>Node24</title>
<a xlink:href="DockModeAppMenuContainer_8cpp.htm" target="_top" xlink:title="DockModeAppMenuContainer.cpp">
<polygon fill="white" stroke="black" points="1901.5,-58.5 1901.5,-79.5 2080.5,-79.5 2080.5,-58.5 1901.5,-58.5"/>
<text text-anchor="middle" x="1991" y="-66.5" font-family="Helvetica,sans-Serif" font-size="10.00">DockModeAppMenuContainer.cpp</text>
</a>
</g>
<!-- Node2&#45;&gt;Node24 -->
<g id="edge108" class="edge"><title>Node2&#45;&gt;Node24</title>
<path fill="none" stroke="midnightblue" d="M3273.57,-184.321C3112.25,-182.202 2721.95,-173.507 2397,-138 2268,-123.905 2117.84,-95.1126 2041.37,-79.5485"/>
<polygon fill="midnightblue" stroke="midnightblue" points="3273.82,-187.825 3283.86,-184.452 3273.91,-180.825 3273.82,-187.825"/>
</g>
<!-- Node25 -->
<g id="node58" class="node"><title>Node25</title>
<a xlink:href="DockModeWindow_8cpp.htm" target="_top" xlink:title="DockModeWindow.cpp">
<polygon fill="white" stroke="black" points="2097.5,-58.5 2097.5,-79.5 2222.5,-79.5 2222.5,-58.5 2097.5,-58.5"/>
<text text-anchor="middle" x="2160" y="-66.5" font-family="Helvetica,sans-Serif" font-size="10.00">DockModeWindow.cpp</text>
</a>
</g>
<!-- Node2&#45;&gt;Node25 -->
<g id="edge116" class="edge"><title>Node2&#45;&gt;Node25</title>
<path fill="none" stroke="midnightblue" d="M3273.91,-183.76C3130.18,-180.701 2806.39,-170.499 2536,-138 2416.57,-123.645 2277.77,-95.029 2206.9,-79.5415"/>
<polygon fill="midnightblue" stroke="midnightblue" points="3273.88,-187.26 3283.95,-183.968 3274.02,-180.262 3273.88,-187.26"/>
</g>
<!-- Node26 -->
<g id="node60" class="node"><title>Node26</title>
<a xlink:href="DockModeWindowManager_8cpp.htm" target="_top" xlink:title="DockModeWindowManager.cpp">
<polygon fill="white" stroke="black" points="3127.5,-58.5 3127.5,-79.5 3294.5,-79.5 3294.5,-58.5 3127.5,-58.5"/>
<text text-anchor="middle" x="3211" y="-66.5" font-family="Helvetica,sans-Serif" font-size="10.00">DockModeWindowManager.cpp</text>
</a>
</g>
<!-- Node2&#45;&gt;Node26 -->
<g id="edge118" class="edge"><title>Node2&#45;&gt;Node26</title>
<path fill="none" stroke="midnightblue" d="M3273.97,-175.612C3228.27,-168.18 3176.05,-156.015 3162,-138 3146.37,-117.956 3174.24,-93.4915 3193.96,-79.7351"/>
<polygon fill="midnightblue" stroke="midnightblue" points="3273.48,-179.079 3283.91,-177.173 3274.57,-172.164 3273.48,-179.079"/>
</g>
<!-- Node27 -->
<g id="node62" class="node"><title>Node27</title>
<a xlink:href="OverlayWindowManager_8cpp.htm" target="_top" xlink:title="OverlayWindowManager.cpp">
<polygon fill="white" stroke="black" points="2239.5,-58.5 2239.5,-79.5 2392.5,-79.5 2392.5,-58.5 2239.5,-58.5"/>
<text text-anchor="middle" x="2316" y="-66.5" font-family="Helvetica,sans-Serif" font-size="10.00">OverlayWindowManager.cpp</text>
</a>
</g>
<!-- Node2&#45;&gt;Node27 -->
<g id="edge120" class="edge"><title>Node2&#45;&gt;Node27</title>
<path fill="none" stroke="midnightblue" d="M3273.54,-182.888C3147.44,-178.668 2886.16,-166.977 2667,-138 2555.56,-123.266 2426.24,-94.8741 2360.03,-79.5029"/>
<polygon fill="midnightblue" stroke="midnightblue" points="3273.74,-186.396 3283.84,-183.226 3273.97,-179.4 3273.74,-186.396"/>
</g>
<!-- Node28 -->
<g id="node64" class="node"><title>Node28</title>
<a xlink:href="BannerMessageHandler_8cpp.htm" target="_top" xlink:title="BannerMessageHandler.cpp">
<polygon fill="white" stroke="black" points="2410,-58.5 2410,-79.5 2562,-79.5 2562,-58.5 2410,-58.5"/>
<text text-anchor="middle" x="2486" y="-66.5" font-family="Helvetica,sans-Serif" font-size="10.00">BannerMessageHandler.cpp</text>
</a>
</g>
<!-- Node2&#45;&gt;Node28 -->
<g id="edge130" class="edge"><title>Node2&#45;&gt;Node28</title>
<path fill="none" stroke="midnightblue" d="M3273.74,-182.467C3163.79,-177.944 2953.08,-166.162 2776,-138 2683.49,-123.288 2576.83,-94.8869 2522.27,-79.5085"/>
<polygon fill="midnightblue" stroke="midnightblue" points="3273.6,-185.964 3283.74,-182.869 3273.89,-178.97 3273.6,-185.964"/>
</g>
<!-- Node29 -->
<g id="node66" class="node"><title>Node29</title>
<a xlink:href="BannerWindow_8cpp.htm" target="_top" xlink:title="BannerWindow.cpp">
<polygon fill="white" stroke="black" points="2580,-58.5 2580,-79.5 2688,-79.5 2688,-58.5 2580,-58.5"/>
<text text-anchor="middle" x="2634" y="-66.5" font-family="Helvetica,sans-Serif" font-size="10.00">BannerWindow.cpp</text>
</a>
</g>
<!-- Node2&#45;&gt;Node29 -->
<g id="edge132" class="edge"><title>Node2&#45;&gt;Node29</title>
<path fill="none" stroke="midnightblue" d="M3273.51,-182.239C3177.55,-177.691 3007.16,-166.132 2864,-138 2789.96,-123.451 2705.64,-94.9824 2662.59,-79.5505"/>
<polygon fill="midnightblue" stroke="midnightblue" points="3273.55,-185.744 3283.7,-182.709 3273.87,-178.752 3273.55,-185.744"/>
</g>
<!-- Node30 -->
<g id="node69" class="node"><title>Node30</title>
<a xlink:href="ProcessManager_8cpp.htm" target="_top" xlink:title="ProcessManager.cpp">
<polygon fill="white" stroke="black" points="2705.5,-58.5 2705.5,-79.5 2822.5,-79.5 2822.5,-58.5 2705.5,-58.5"/>
<text text-anchor="middle" x="2764" y="-66.5" font-family="Helvetica,sans-Serif" font-size="10.00">ProcessManager.cpp</text>
</a>
</g>
<!-- Node2&#45;&gt;Node30 -->
<g id="edge146" class="edge"><title>Node2&#45;&gt;Node30</title>
<path fill="none" stroke="midnightblue" d="M3273.48,-182.468C3189.83,-178.271 3051.52,-167.18 2936,-138 2879.54,-123.738 2816.94,-95.151 2785.1,-79.6246"/>
<polygon fill="midnightblue" stroke="midnightblue" points="3273.5,-185.973 3283.65,-182.958 3273.83,-178.981 3273.5,-185.973"/>
</g>
<!-- Node31 -->
<g id="node71" class="node"><title>Node31</title>
<a xlink:href="WebAppManager_8cpp.htm" target="_top" xlink:title="WebAppManager.cpp">
<polygon fill="white" stroke="black" points="2839.5,-58.5 2839.5,-79.5 2958.5,-79.5 2958.5,-58.5 2839.5,-58.5"/>
<text text-anchor="middle" x="2899" y="-66.5" font-family="Helvetica,sans-Serif" font-size="10.00">WebAppManager.cpp</text>
</a>
</g>
<!-- Node2&#45;&gt;Node31 -->
<g id="edge150" class="edge"><title>Node2&#45;&gt;Node31</title>
<path fill="none" stroke="midnightblue" d="M3273.57,-181.147C3179.26,-175.379 3023.88,-162.463 2972,-138 2943.29,-124.463 2918.51,-95.2991 2906.58,-79.5698"/>
<polygon fill="midnightblue" stroke="midnightblue" points="3273.44,-184.646 3283.63,-181.75 3273.86,-177.658 3273.44,-184.646"/>
</g>
<!-- Node32 -->
<g id="node73" class="node"><title>Node32</title>
<a xlink:href="ApplicationDescription_8cpp.htm" target="_top" xlink:title="ApplicationDescription.cpp">
<polygon fill="white" stroke="black" points="3203.5,-116.5 3203.5,-137.5 3344.5,-137.5 3344.5,-116.5 3203.5,-116.5"/>
<text text-anchor="middle" x="3274" y="-124.5" font-family="Helvetica,sans-Serif" font-size="10.00">ApplicationDescription.cpp</text>
</a>
</g>
<!-- Node2&#45;&gt;Node32 -->
<g id="edge82" class="edge"><title>Node2&#45;&gt;Node32</title>
<path fill="none" stroke="midnightblue" d="M3326.99,-167.975C3314.26,-158.132 3298.64,-146.055 3287.67,-137.571"/>
<polygon fill="midnightblue" stroke="midnightblue" points="3325.19,-171.013 3335.24,-174.362 3329.47,-165.476 3325.19,-171.013"/>
</g>
<!-- Node33 -->
<g id="node75" class="node"><title>Node33</title>
<a xlink:href="ApplicationInstaller_8cpp.htm" target="_top" xlink:title="ApplicationInstaller.cpp">
<polygon fill="white" stroke="black" points="3361.5,-116.5 3361.5,-137.5 3486.5,-137.5 3486.5,-116.5 3361.5,-116.5"/>
<text text-anchor="middle" x="3424" y="-124.5" font-family="Helvetica,sans-Serif" font-size="10.00">ApplicationInstaller.cpp</text>
</a>
</g>
<!-- Node2&#45;&gt;Node33 -->
<g id="edge84" class="edge"><title>Node2&#45;&gt;Node33</title>
<path fill="none" stroke="midnightblue" d="M3371.01,-167.975C3383.74,-158.132 3399.36,-146.055 3410.33,-137.571"/>
<polygon fill="midnightblue" stroke="midnightblue" points="3368.53,-165.476 3362.76,-174.362 3372.81,-171.013 3368.53,-165.476"/>
</g>
<!-- Node34 -->
<g id="node78" class="node"><title>Node34</title>
<a xlink:href="ApplicationManagerService_8cpp.htm" target="_top" xlink:title="ApplicationManagerService.cpp">
<polygon fill="white" stroke="black" points="3504,-116.5 3504,-137.5 3670,-137.5 3670,-116.5 3504,-116.5"/>
<text text-anchor="middle" x="3587" y="-124.5" font-family="Helvetica,sans-Serif" font-size="10.00">ApplicationManagerService.cpp</text>
</a>
</g>
<!-- Node2&#45;&gt;Node34 -->
<g id="edge88" class="edge"><title>Node2&#45;&gt;Node34</title>
<path fill="none" stroke="midnightblue" d="M3402.03,-172.077C3444.73,-161.672 3503.98,-147.231 3543.82,-137.523"/>
<polygon fill="midnightblue" stroke="midnightblue" points="3400.99,-168.728 3392.1,-174.497 3402.64,-175.529 3400.99,-168.728"/>
</g>
<!-- Node35 -->
<g id="node80" class="node"><title>Node35</title>
<a xlink:href="LaunchPoint_8cpp.htm" target="_top" xlink:title="LaunchPoint.cpp">
<polygon fill="white" stroke="black" points="3687.5,-116.5 3687.5,-137.5 3782.5,-137.5 3782.5,-116.5 3687.5,-116.5"/>
<text text-anchor="middle" x="3735" y="-124.5" font-family="Helvetica,sans-Serif" font-size="10.00">LaunchPoint.cpp</text>
</a>
</g>
<!-- Node2&#45;&gt;Node35 -->
<g id="edge90" class="edge"><title>Node2&#45;&gt;Node35</title>
<path fill="none" stroke="midnightblue" d="M3424.54,-173.792C3538.42,-157.511 3568.91,-156.54 3679,-138 3681.74,-137.539 3684.54,-137.048 3687.37,-136.538"/>
<polygon fill="midnightblue" stroke="midnightblue" points="3423.77,-170.367 3414.37,-175.255 3424.76,-177.296 3423.77,-170.367"/>
</g>
<!-- Node36 -->
<g id="node82" class="node"><title>Node36</title>
<a xlink:href="PackageDescription_8cpp.htm" target="_top" xlink:title="PackageDescription.cpp">
<polygon fill="white" stroke="black" points="3799.5,-116.5 3799.5,-137.5 3930.5,-137.5 3930.5,-116.5 3799.5,-116.5"/>
<text text-anchor="middle" x="3865" y="-124.5" font-family="Helvetica,sans-Serif" font-size="10.00">PackageDescription.cpp</text>
</a>
</g>
<!-- Node2&#45;&gt;Node36 -->
<g id="edge92" class="edge"><title>Node2&#45;&gt;Node36</title>
<path fill="none" stroke="midnightblue" d="M3424.75,-173.833C3587.87,-154.073 3631.24,-157.676 3791,-138 3793.71,-137.667 3796.47,-137.314 3799.26,-136.947"/>
<polygon fill="midnightblue" stroke="midnightblue" points="3423.85,-170.417 3414.35,-175.105 3424.7,-177.366 3423.85,-170.417"/>
</g>
<!-- Node37 -->
<g id="node85" class="node"><title>Node37</title>
<a xlink:href="Utils_8cpp.htm" target="_top" xlink:title="Utils.cpp">
<polygon fill="white" stroke="black" points="3948,-116.5 3948,-137.5 4004,-137.5 4004,-116.5 3948,-116.5"/>
<text text-anchor="middle" x="3976" y="-124.5" font-family="Helvetica,sans-Serif" font-size="10.00">Utils.cpp</text>
</a>
</g>
<!-- Node2&#45;&gt;Node37 -->
<g id="edge96" class="edge"><title>Node2&#45;&gt;Node37</title>
<path fill="none" stroke="midnightblue" d="M3424.31,-173.938C3653.3,-149.913 3716,-178.422 3939,-138 3941.9,-137.474 3944.9,-136.804 3947.87,-136.055"/>
<polygon fill="midnightblue" stroke="midnightblue" points="3423.9,-170.461 3414.33,-175.006 3424.65,-177.421 3423.9,-170.461"/>
</g>
<!-- Node38 -->
<g id="node88" class="node"><title>Node38</title>
<a xlink:href="CardWebApp_8cpp.htm" target="_top" xlink:title="CardWebApp.cpp">
<polygon fill="white" stroke="black" points="4021.5,-116.5 4021.5,-137.5 4120.5,-137.5 4120.5,-116.5 4021.5,-116.5"/>
<text text-anchor="middle" x="4071" y="-124.5" font-family="Helvetica,sans-Serif" font-size="10.00">CardWebApp.cpp</text>
</a>
</g>
<!-- Node2&#45;&gt;Node38 -->
<g id="edge100" class="edge"><title>Node2&#45;&gt;Node38</title>
<path fill="none" stroke="midnightblue" d="M3424.52,-173.922C3686.04,-147.258 3755.62,-170.128 4013,-138 4015.75,-137.657 4018.56,-137.264 4021.39,-136.836"/>
<polygon fill="midnightblue" stroke="midnightblue" points="3423.92,-170.465 3414.33,-174.975 3424.64,-177.428 3423.92,-170.465"/>
</g>
<!-- Node39 -->
<g id="node94" class="node"><title>Node39</title>
<a xlink:href="DockModeClock_8h.htm" target="_top" xlink:title="DockModeClock.h">
<polygon fill="white" stroke="red" points="4138,-116.5 4138,-137.5 4240,-137.5 4240,-116.5 4138,-116.5"/>
<text text-anchor="middle" x="4189" y="-124.5" font-family="Helvetica,sans-Serif" font-size="10.00">DockModeClock.h</text>
</a>
</g>
<!-- Node2&#45;&gt;Node39 -->
<g id="edge110" class="edge"><title>Node2&#45;&gt;Node39</title>
<path fill="none" stroke="midnightblue" d="M3424.6,-173.928C3737.41,-143.536 3820.28,-174.014 4129,-138 4131.84,-137.669 4134.75,-137.285 4137.68,-136.863"/>
<polygon fill="midnightblue" stroke="midnightblue" points="3423.94,-170.476 3414.33,-174.939 3424.62,-177.442 3423.94,-170.476"/>
</g>
<!-- Node40 -->
<g id="node97" class="node"><title>Node40</title>
<a xlink:href="DockModeLaunchPoint_8cpp.htm" target="_top" xlink:title="DockModeLaunchPoint.cpp">
<polygon fill="white" stroke="black" points="4258,-116.5 4258,-137.5 4404,-137.5 4404,-116.5 4258,-116.5"/>
<text text-anchor="middle" x="4331" y="-124.5" font-family="Helvetica,sans-Serif" font-size="10.00">DockModeLaunchPoint.cpp</text>
</a>
</g>
<!-- Node2&#45;&gt;Node40 -->
<g id="edge114" class="edge"><title>Node2&#45;&gt;Node40</title>
<path fill="none" stroke="midnightblue" d="M3424.4,-173.955C3790.51,-139.503 3886.28,-170.167 4249,-138 4251.86,-137.746 4254.78,-137.465 4257.72,-137.162"/>
<polygon fill="midnightblue" stroke="midnightblue" points="3423.95,-170.482 3414.32,-174.913 3424.61,-177.451 3423.95,-170.482"/>
</g>
<!-- Node41 -->
<g id="node102" class="node"><title>Node41</title>
<a xlink:href="appeffector_8cpp.htm" target="_top" xlink:title="appeffector.cpp">
<polygon fill="white" stroke="black" points="4422,-116.5 4422,-137.5 4512,-137.5 4512,-116.5 4422,-116.5"/>
<text text-anchor="middle" x="4467" y="-124.5" font-family="Helvetica,sans-Serif" font-size="10.00">appeffector.cpp</text>
</a>
</g>
<!-- Node2&#45;&gt;Node41 -->
<g id="edge122" class="edge"><title>Node2&#45;&gt;Node41</title>
<path fill="none" stroke="midnightblue" d="M3424.42,-173.966C3863.18,-134.419 3979.11,-189.724 4413,-138 4415.85,-137.66 4418.77,-137.249 4421.71,-136.788"/>
<polygon fill="midnightblue" stroke="midnightblue" points="3423.96,-170.493 3414.32,-174.887 3424.6,-177.464 3423.96,-170.493"/>
</g>
<!-- Node42 -->
<g id="node104" class="node"><title>Node42</title>
<a xlink:href="appmonitor_8cpp.htm" target="_top" xlink:title="appmonitor.cpp">
<polygon fill="white" stroke="black" points="4529.5,-116.5 4529.5,-137.5 4618.5,-137.5 4618.5,-116.5 4529.5,-116.5"/>
<text text-anchor="middle" x="4574" y="-124.5" font-family="Helvetica,sans-Serif" font-size="10.00">appmonitor.cpp</text>
</a>
</g>
<!-- Node2&#45;&gt;Node42 -->
<g id="edge124" class="edge"><title>Node2&#45;&gt;Node42</title>
<path fill="none" stroke="midnightblue" d="M3424.42,-173.971C3911.03,-130.926 4039.49,-195.43 4521,-138 4523.71,-137.677 4526.48,-137.286 4529.27,-136.847"/>
<polygon fill="midnightblue" stroke="midnightblue" points="3423.97,-170.497 3414.32,-174.875 3424.59,-177.469 3423.97,-170.497"/>
</g>
<!-- Node43 -->
<g id="node106" class="node"><title>Node43</title>
<a xlink:href="pagerestore_8cpp.htm" target="_top" xlink:title="pagerestore.cpp">
<polygon fill="white" stroke="black" points="4636,-116.5 4636,-137.5 4730,-137.5 4730,-116.5 4636,-116.5"/>
<text text-anchor="middle" x="4683" y="-124.5" font-family="Helvetica,sans-Serif" font-size="10.00">pagerestore.cpp</text>
</a>
</g>
<!-- Node2&#45;&gt;Node43 -->
<g id="edge126" class="edge"><title>Node2&#45;&gt;Node43</title>
<path fill="none" stroke="midnightblue" d="M3424.59,-173.959C3958.02,-127.46 4098.38,-197.415 4627,-138 4629.86,-137.679 4632.78,-137.29 4635.73,-136.851"/>
<polygon fill="midnightblue" stroke="midnightblue" points="3423.97,-170.5 3414.32,-174.864 3424.59,-177.473 3423.97,-170.5"/>
</g>
<!-- Node44 -->
<g id="node108" class="node"><title>Node44</title>
<a xlink:href="AlertWindow_8cpp.htm" target="_top" xlink:title="AlertWindow.cpp">
<polygon fill="white" stroke="black" points="4747.5,-116.5 4747.5,-137.5 4842.5,-137.5 4842.5,-116.5 4747.5,-116.5"/>
<text text-anchor="middle" x="4795" y="-124.5" font-family="Helvetica,sans-Serif" font-size="10.00">AlertWindow.cpp</text>
</a>
</g>
<!-- Node2&#45;&gt;Node44 -->
<g id="edge128" class="edge"><title>Node2&#45;&gt;Node44</title>
<path fill="none" stroke="midnightblue" d="M3424.67,-173.955C4007.66,-123.822 4160.88,-202.234 4739,-138 4741.76,-137.694 4744.58,-137.323 4747.42,-136.905"/>
<polygon fill="midnightblue" stroke="midnightblue" points="3423.98,-170.502 3414.32,-174.855 3424.59,-177.476 3423.98,-170.502"/>
</g>
<!-- Node45 -->
<g id="node112" class="node"><title>Node45</title>
<a xlink:href="DashboardWindow_8cpp.htm" target="_top" xlink:title="DashboardWindow.cpp">
<polygon fill="white" stroke="black" points="4859.5,-116.5 4859.5,-137.5 4984.5,-137.5 4984.5,-116.5 4859.5,-116.5"/>
<text text-anchor="middle" x="4922" y="-124.5" font-family="Helvetica,sans-Serif" font-size="10.00">DashboardWindow.cpp</text>
</a>
</g>
<!-- Node2&#45;&gt;Node45 -->
<g id="edge134" class="edge"><title>Node2&#45;&gt;Node45</title>
<path fill="none" stroke="midnightblue" d="M3424.61,-173.963C4057.27,-120.031 4222.07,-194.413 4851,-138 4853.73,-137.755 4856.52,-137.471 4859.33,-137.156"/>
<polygon fill="midnightblue" stroke="midnightblue" points="3423.98,-170.504 3414.32,-174.848 3424.58,-177.478 3423.98,-170.504"/>
</g>
<!-- Node46 -->
<g id="node114" class="node"><title>Node46</title>
<a xlink:href="Main_8cpp.htm" target="_top" xlink:title="Main.cpp">
<polygon fill="white" stroke="black" points="4985.5,-58.5 4985.5,-79.5 5044.5,-79.5 5044.5,-58.5 4985.5,-58.5"/>
<text text-anchor="middle" x="5015" y="-66.5" font-family="Helvetica,sans-Serif" font-size="10.00">Main.cpp</text>
</a>
</g>
<!-- Node2&#45;&gt;Node46 -->
<g id="edge136" class="edge"><title>Node2&#45;&gt;Node46</title>
<path fill="none" stroke="midnightblue" d="M3424.58,-174.25C3583.52,-167.769 4925,-188.901 4993,-138 5011.32,-124.288 5014.71,-95.1977 5015.14,-79.5259"/>
<polygon fill="midnightblue" stroke="midnightblue" points="3424.1,-170.772 3414.32,-174.84 3424.5,-177.76 3424.1,-170.772"/>
</g>
<!-- Node47 -->
<g id="node116" class="node"><title>Node47</title>
<a xlink:href="IpcServer_8h.htm" target="_top" xlink:title="IpcServer.h">
<polygon fill="white" stroke="red" points="5039.5,-116.5 5039.5,-137.5 5110.5,-137.5 5110.5,-116.5 5039.5,-116.5"/>
<text text-anchor="middle" x="5075" y="-124.5" font-family="Helvetica,sans-Serif" font-size="10.00">IpcServer.h</text>
</a>
</g>
<!-- Node2&#45;&gt;Node47 -->
<g id="edge138" class="edge"><title>Node2&#45;&gt;Node47</title>
<path fill="none" stroke="midnightblue" d="M3424.29,-173.995C4134.78,-114.517 4321.92,-224.07 5026,-138 5030.33,-137.471 5034.83,-136.729 5039.28,-135.878"/>
<polygon fill="midnightblue" stroke="midnightblue" points="3423.99,-170.508 3414.32,-174.838 3424.58,-177.483 3423.99,-170.508"/>
</g>
<!-- Node48 -->
<g id="node122" class="node"><title>Node48</title>
<a xlink:href="WebAppBase_8cpp.htm" target="_top" xlink:title="WebAppBase.cpp">
<polygon fill="white" stroke="black" points="5128,-116.5 5128,-137.5 5228,-137.5 5228,-116.5 5128,-116.5"/>
<text text-anchor="middle" x="5178" y="-124.5" font-family="Helvetica,sans-Serif" font-size="10.00">WebAppBase.cpp</text>
</a>
</g>
<!-- Node2&#45;&gt;Node48 -->
<g id="edge148" class="edge"><title>Node2&#45;&gt;Node48</title>
<path fill="none" stroke="midnightblue" d="M3424.3,-173.994C4175.99,-111.364 4372.33,-215.01 5119,-138 5121.9,-137.701 5124.88,-137.335 5127.87,-136.922"/>
<polygon fill="midnightblue" stroke="midnightblue" points="3423.99,-170.508 3414.32,-174.833 3424.58,-177.484 3423.99,-170.508"/>
</g>
<!-- Node49 -->
<g id="node125" class="node"><title>Node49</title>
<a xlink:href="WebPage_8cpp.htm" target="_top" xlink:title="WebPage.cpp">
<polygon fill="white" stroke="black" points="5246,-116.5 5246,-137.5 5328,-137.5 5328,-116.5 5246,-116.5"/>
<text text-anchor="middle" x="5287" y="-124.5" font-family="Helvetica,sans-Serif" font-size="10.00">WebPage.cpp</text>
</a>
</g>
<!-- Node2&#45;&gt;Node49 -->
<g id="edge152" class="edge"><title>Node2&#45;&gt;Node49</title>
<path fill="none" stroke="midnightblue" d="M3424.35,-174.009C3841.04,-141.013 4839.85,-185.162 5237,-138 5239.91,-137.654 5242.91,-137.215 5245.91,-136.711"/>
<polygon fill="midnightblue" stroke="midnightblue" points="3424,-170.526 3414.32,-174.829 3424.57,-177.503 3424,-170.526"/>
</g>
<!-- Node4 -->
<g id="node7" class="node"><title>Node4</title>
<a xlink:href="AppDirectRenderingArbitrator_8cpp.htm" target="_top" xlink:title="AppDirectRenderingArbitrator.cpp">
<polygon fill="white" stroke="black" points="148,-58.5 148,-79.5 324,-79.5 324,-58.5 148,-58.5"/>
<text text-anchor="middle" x="236" y="-66.5" font-family="Helvetica,sans-Serif" font-size="10.00">AppDirectRenderingArbitrator.cpp</text>
</a>
</g>
<!-- Node3&#45;&gt;Node4 -->
<g id="edge6" class="edge"><title>Node3&#45;&gt;Node4</title>
<path fill="none" stroke="midnightblue" d="M1303.86,-125.364C1138.26,-121.07 701.505,-107.835 338,-80 333.471,-79.6532 328.833,-79.2664 324.152,-78.8509"/>
<polygon fill="midnightblue" stroke="midnightblue" points="1303.82,-128.864 1313.91,-125.622 1304,-121.866 1303.82,-128.864"/>
</g>
<!-- Node3&#45;&gt;Node5 -->
<g id="edge8" class="edge"><title>Node3&#45;&gt;Node5</title>
<path fill="none" stroke="midnightblue" d="M1303.63,-125.381C1079.43,-119.918 367.859,-101.307 139,-80 136.284,-79.7472 133.516,-79.4618 130.722,-79.1509"/>
<polygon fill="midnightblue" stroke="midnightblue" points="1303.85,-128.888 1313.93,-125.631 1304.02,-121.89 1303.85,-128.888"/>
</g>
<!-- Node6 -->
<g id="node11" class="node"><title>Node6</title>
<a xlink:href="CoreNaviManager_8h.htm" target="_top" xlink:title="CoreNaviManager.h">
<polygon fill="white" stroke="red" points="418,-58.5 418,-79.5 530,-79.5 530,-58.5 418,-58.5"/>
<text text-anchor="middle" x="474" y="-66.5" font-family="Helvetica,sans-Serif" font-size="10.00">CoreNaviManager.h</text>
</a>
</g>
<!-- Node3&#45;&gt;Node6 -->
<g id="edge10" class="edge"><title>Node3&#45;&gt;Node6</title>
<path fill="none" stroke="midnightblue" d="M1303.58,-125.411C1161.63,-121.609 824.918,-109.97 544,-80 539.474,-79.5171 534.794,-78.9441 530.099,-78.3169"/>
<polygon fill="midnightblue" stroke="midnightblue" points="1303.78,-128.917 1313.87,-125.682 1303.96,-121.92 1303.78,-128.917"/>
</g>
<!-- Node7 -->
<g id="node13" class="node"><title>Node7</title>
<a xlink:href="DisplayManager_8cpp.htm" target="_top" xlink:title="DisplayManager.cpp">
<polygon fill="white" stroke="black" points="257.5,-0.5 257.5,-21.5 370.5,-21.5 370.5,-0.5 257.5,-0.5"/>
<text text-anchor="middle" x="314" y="-8.5" font-family="Helvetica,sans-Serif" font-size="10.00">DisplayManager.cpp</text>
</a>
</g>
<!-- Node3&#45;&gt;Node7 -->
<g id="edge22" class="edge"><title>Node3&#45;&gt;Node7</title>
<path fill="none" stroke="midnightblue" d="M1303.64,-126.131C1096.34,-123.158 483.798,-111.756 400,-80 367.243,-67.5865 337.372,-37.6613 323,-21.604"/>
<polygon fill="midnightblue" stroke="midnightblue" points="1303.74,-129.633 1313.79,-126.275 1303.84,-122.634 1303.74,-129.633"/>
</g>
<!-- Node8 -->
<g id="node15" class="node"><title>Node8</title>
<a xlink:href="DisplayStates_8cpp.htm" target="_top" xlink:title="DisplayStates.cpp">
<polygon fill="white" stroke="black" points="387.5,-0.5 387.5,-21.5 488.5,-21.5 488.5,-0.5 387.5,-0.5"/>
<text text-anchor="middle" x="438" y="-8.5" font-family="Helvetica,sans-Serif" font-size="10.00">DisplayStates.cpp</text>
</a>
</g>
<!-- Node3&#45;&gt;Node8 -->
<g id="edge24" class="edge"><title>Node3&#45;&gt;Node8</title>
<path fill="none" stroke="midnightblue" d="M1303.75,-126.219C1089.05,-123.431 439.808,-112.349 409,-80 393.048,-63.251 413.3,-36.4349 427.121,-21.6487"/>
<polygon fill="midnightblue" stroke="midnightblue" points="1303.9,-129.721 1313.94,-126.349 1303.99,-122.721 1303.9,-129.721"/>
</g>
<!-- Node9 -->
<g id="node17" class="node"><title>Node9</title>
<a xlink:href="SystemUiController_8cpp.htm" target="_top" xlink:title="SystemUiController.cpp">
<polygon fill="white" stroke="black" points="627.5,-0.5 627.5,-21.5 754.5,-21.5 754.5,-0.5 627.5,-0.5"/>
<text text-anchor="middle" x="691" y="-8.5" font-family="Helvetica,sans-Serif" font-size="10.00">SystemUiController.cpp</text>
</a>
</g>
<!-- Node3&#45;&gt;Node9 -->
<g id="edge34" class="edge"><title>Node3&#45;&gt;Node9</title>
<path fill="none" stroke="midnightblue" d="M1303.72,-125.093C1126.93,-119.825 666.374,-103.865 644,-80 626.553,-61.3899 655.31,-35.7554 674.988,-21.5512"/>
<polygon fill="midnightblue" stroke="midnightblue" points="1303.85,-128.598 1313.94,-125.395 1304.05,-121.601 1303.85,-128.598"/>
</g>
<!-- Node10 -->
<g id="node19" class="node"><title>Node10</title>
<a xlink:href="WindowServer_8cpp.htm" target="_top" xlink:title="WindowServer.cpp">
<polygon fill="white" stroke="black" points="505.5,-0.5 505.5,-21.5 610.5,-21.5 610.5,-0.5 505.5,-0.5"/>
<text text-anchor="middle" x="558" y="-8.5" font-family="Helvetica,sans-Serif" font-size="10.00">WindowServer.cpp</text>
</a>
</g>
<!-- Node3&#45;&gt;Node10 -->
<g id="edge36" class="edge"><title>Node3&#45;&gt;Node10</title>
<path fill="none" stroke="midnightblue" d="M1303.58,-125.187C1132.53,-120.292 695.648,-105.44 635,-80 604.708,-67.2937 578.377,-37.4944 565.823,-21.5326"/>
<polygon fill="midnightblue" stroke="midnightblue" points="1303.63,-128.689 1313.72,-125.474 1303.83,-121.692 1303.63,-128.689"/>
</g>
<!-- Node3&#45;&gt;Node11 -->
<g id="edge76" class="edge"><title>Node3&#45;&gt;Node11</title>
<path fill="none" stroke="midnightblue" d="M1303.63,-125.033C1128.34,-119.658 675.05,-103.538 653,-80 646.315,-72.8641 646.302,-65.1236 653,-58 676.904,-32.5765 1177.29,-17.1722 1353.92,-12.5101"/>
<polygon fill="midnightblue" stroke="midnightblue" points="1303.67,-128.535 1313.77,-125.341 1303.88,-121.539 1303.67,-128.535"/>
</g>
<!-- Node12 -->
<g id="node25" class="node"><title>Node12</title>
<a xlink:href="HostArm_8cpp.htm" target="_top" xlink:title="HostArm.cpp">
<polygon fill="white" stroke="black" points="661.5,-58.5 661.5,-79.5 738.5,-79.5 738.5,-58.5 661.5,-58.5"/>
<text text-anchor="middle" x="700" y="-66.5" font-family="Helvetica,sans-Serif" font-size="10.00">HostArm.cpp</text>
</a>
</g>
<!-- Node3&#45;&gt;Node12 -->
<g id="edge26" class="edge"><title>Node3&#45;&gt;Node12</title>
<path fill="none" stroke="midnightblue" d="M1303.84,-125.325C1188.55,-121.723 947.97,-110.884 747,-80 744.267,-79.5799 741.457,-79.0854 738.636,-78.5426"/>
<polygon fill="midnightblue" stroke="midnightblue" points="1303.83,-128.826 1313.93,-125.632 1304.04,-121.83 1303.83,-128.826"/>
</g>
<!-- Node13 -->
<g id="node27" class="node"><title>Node13</title>
<a xlink:href="HostWindow_8cpp.htm" target="_top" xlink:title="HostWindow.cpp">
<polygon fill="white" stroke="black" points="755.5,-58.5 755.5,-79.5 850.5,-79.5 850.5,-58.5 755.5,-58.5"/>
<text text-anchor="middle" x="803" y="-66.5" font-family="Helvetica,sans-Serif" font-size="10.00">HostWindow.cpp</text>
</a>
</g>
<!-- Node3&#45;&gt;Node13 -->
<g id="edge28" class="edge"><title>Node3&#45;&gt;Node13</title>
<path fill="none" stroke="midnightblue" d="M1303.56,-122.971C1204.96,-116.658 1017.39,-102.751 859,-80 856.254,-79.6056 853.439,-79.1658 850.602,-78.6954"/>
<polygon fill="midnightblue" stroke="midnightblue" points="1303.49,-126.473 1313.69,-123.612 1303.93,-119.487 1303.49,-126.473"/>
</g>
<!-- Node14 -->
<g id="node29" class="node"><title>Node14</title>
<a xlink:href="ProgressAnimation_8cpp.htm" target="_top" xlink:title="ProgressAnimation.cpp">
<polygon fill="white" stroke="black" points="867.5,-58.5 867.5,-79.5 992.5,-79.5 992.5,-58.5 867.5,-58.5"/>
<text text-anchor="middle" x="930" y="-66.5" font-family="Helvetica,sans-Serif" font-size="10.00">ProgressAnimation.cpp</text>
</a>
</g>
<!-- Node3&#45;&gt;Node14 -->
<g id="edge30" class="edge"><title>Node3&#45;&gt;Node14</title>
<path fill="none" stroke="midnightblue" d="M1303.9,-118.586C1230.37,-109.424 1109.82,-94.1779 1006,-80 1001.64,-79.4047 997.143,-78.7801 992.614,-78.1436"/>
<polygon fill="midnightblue" stroke="midnightblue" points="1303.6,-122.076 1313.96,-119.838 1304.47,-115.13 1303.6,-122.076"/>
</g>
<!-- Node3&#45;&gt;Node15 -->
<g id="edge32" class="edge"><title>Node3&#45;&gt;Node15</title>
<path fill="none" stroke="midnightblue" d="M1303.71,-122.1C1211.34,-114.769 1056.09,-99.6748 1039,-80 1032.59,-72.6187 1032.37,-65.1867 1039,-58 1072.71,-21.4581 1435.69,-28.3497 1485,-22 1487.93,-21.623 1490.93,-21.2032 1493.95,-20.7538"/>
<polygon fill="midnightblue" stroke="midnightblue" points="1303.58,-125.601 1313.82,-122.892 1304.12,-118.622 1303.58,-125.601"/>
</g>
<!-- Node16 -->
<g id="node35" class="node"><title>Node16</title>
<a xlink:href="InputWindowManager_8cpp.htm" target="_top" xlink:title="InputWindowManager.cpp">
<polygon fill="white" stroke="black" points="1048,-58.5 1048,-79.5 1188,-79.5 1188,-58.5 1048,-58.5"/>
<text text-anchor="middle" x="1118" y="-66.5" font-family="Helvetica,sans-Serif" font-size="10.00">InputWindowManager.cpp</text>
</a>
</g>
<!-- Node3&#45;&gt;Node16 -->
<g id="edge38" class="edge"><title>Node3&#45;&gt;Node16</title>
<path fill="none" stroke="midnightblue" d="M1315.98,-114.208C1270.37,-103.794 1206.78,-89.2716 1164.08,-79.5231"/>
<polygon fill="midnightblue" stroke="midnightblue" points="1315.47,-117.683 1326,-116.497 1317.03,-110.858 1315.47,-117.683"/>
</g>
<!-- Node17 -->
<g id="node37" class="node"><title>Node17</title>
<a xlink:href="SysmgrIMEDataInterface_8cpp.htm" target="_top" xlink:title="SysmgrIMEDataInterface.cpp">
<polygon fill="white" stroke="black" points="1205.5,-58.5 1205.5,-79.5 1360.5,-79.5 1360.5,-58.5 1205.5,-58.5"/>
<text text-anchor="middle" x="1283" y="-66.5" font-family="Helvetica,sans-Serif" font-size="10.00">SysmgrIMEDataInterface.cpp</text>
</a>
</g>
<!-- Node3&#45;&gt;Node17 -->
<g id="edge40" class="edge"><title>Node3&#45;&gt;Node17</title>
<path fill="none" stroke="midnightblue" d="M1347.17,-110.821C1331.84,-100.831 1312.61,-88.2993 1299.22,-79.5707"/>
<polygon fill="midnightblue" stroke="midnightblue" points="1345.39,-113.834 1355.68,-116.362 1349.21,-107.97 1345.39,-113.834"/>
</g>
<!-- Node18 -->
<g id="node39" class="node"><title>Node18</title>
<a xlink:href="VirtualKeyboardPreferences_8cpp.htm" target="_top" xlink:title="VirtualKeyboardPreferences.cpp">
<polygon fill="white" stroke="black" points="1378,-58.5 1378,-79.5 1546,-79.5 1546,-58.5 1378,-58.5"/>
<text text-anchor="middle" x="1462" y="-66.5" font-family="Helvetica,sans-Serif" font-size="10.00">VirtualKeyboardPreferences.cpp</text>
</a>
</g>
<!-- Node3&#45;&gt;Node18 -->
<g id="edge42" class="edge"><title>Node3&#45;&gt;Node18</title>
<path fill="none" stroke="midnightblue" d="M1397.1,-110.821C1412.61,-100.831 1432.05,-88.2993 1445.6,-79.5707"/>
<polygon fill="midnightblue" stroke="midnightblue" points="1395.02,-108.003 1388.51,-116.362 1398.81,-113.887 1395.02,-108.003"/>
</g>
<!-- Node19 -->
<g id="node41" class="node"><title>Node19</title>
<a xlink:href="CardWindow_8h.htm" target="_top" xlink:title="CardWindow.h">
<polygon fill="white" stroke="red" points="1564,-58.5 1564,-79.5 1650,-79.5 1650,-58.5 1564,-58.5"/>
<text text-anchor="middle" x="1607" y="-66.5" font-family="Helvetica,sans-Serif" font-size="10.00">CardWindow.h</text>
</a>
</g>
<!-- Node3&#45;&gt;Node19 -->
<g id="edge44" class="edge"><title>Node3&#45;&gt;Node19</title>
<path fill="none" stroke="midnightblue" d="M1424.36,-114.077C1466.52,-103.672 1525.03,-89.2306 1564.36,-79.5231"/>
<polygon fill="midnightblue" stroke="midnightblue" points="1423.43,-110.702 1414.56,-116.497 1425.1,-117.498 1423.43,-110.702"/>
</g>
<!-- Node3&#45;&gt;Node21 -->
<g id="edge58" class="edge"><title>Node3&#45;&gt;Node21</title>
<path fill="none" stroke="midnightblue" d="M1440.07,-122.558C1499.29,-117.131 1586.7,-105.314 1659,-80 1669.98,-76.1568 1732.41,-40.0102 1763.88,-21.6276"/>
<polygon fill="midnightblue" stroke="midnightblue" points="1439.74,-119.074 1430.09,-123.438 1440.36,-126.047 1439.74,-119.074"/>
</g>
<!-- Node3&#45;&gt;Node22 -->
<g id="edge60" class="edge"><title>Node3&#45;&gt;Node22</title>
<path fill="none" stroke="midnightblue" d="M1440.44,-123.654C1506.48,-118.882 1608.59,-107.407 1693,-80 1713.04,-73.4925 1715.33,-65.5603 1735,-58 1776.95,-41.8771 1826.41,-29.5503 1863.33,-21.5741"/>
<polygon fill="midnightblue" stroke="midnightblue" points="1439.89,-120.183 1430.15,-124.363 1440.37,-127.166 1439.89,-120.183"/>
</g>
<!-- Node3&#45;&gt;Node23 -->
<g id="edge62" class="edge"><title>Node3&#45;&gt;Node23</title>
<path fill="none" stroke="midnightblue" d="M1440.26,-118.043C1522.72,-107.222 1660.71,-89.1146 1743.96,-78.1904"/>
<polygon fill="midnightblue" stroke="midnightblue" points="1439.7,-114.586 1430.24,-119.358 1440.61,-121.527 1439.7,-114.586"/>
</g>
<!-- Node3&#45;&gt;Node24 -->
<g id="edge64" class="edge"><title>Node3&#45;&gt;Node24</title>
<path fill="none" stroke="midnightblue" d="M1440.48,-121.301C1540.13,-112.9 1730.9,-96.4072 1893,-80 1895.73,-79.7241 1898.49,-79.4398 1901.29,-79.1491"/>
<polygon fill="midnightblue" stroke="midnightblue" points="1439.92,-117.836 1430.25,-122.162 1440.51,-124.811 1439.92,-117.836"/>
</g>
<!-- Node3&#45;&gt;Node25 -->
<g id="edge66" class="edge"><title>Node3&#45;&gt;Node25</title>
<path fill="none" stroke="midnightblue" d="M1440.26,-124.533C1567.95,-119.474 1851.47,-106.134 2089,-80 2091.73,-79.6999 2094.51,-79.3701 2097.32,-79.018"/>
<polygon fill="midnightblue" stroke="midnightblue" points="1440.09,-121.037 1430.24,-124.926 1440.37,-128.032 1440.09,-121.037"/>
</g>
<!-- Node3&#45;&gt;Node26 -->
<g id="edge68" class="edge"><title>Node3&#45;&gt;Node26</title>
<path fill="none" stroke="midnightblue" d="M1440.46,-125.364C1661.47,-120.002 2375.99,-102.028 2967,-80 3020.39,-78.01 3080.34,-75.3141 3127.45,-73.0894"/>
<polygon fill="midnightblue" stroke="midnightblue" points="1440.22,-121.869 1430.31,-125.61 1440.39,-128.867 1440.22,-121.869"/>
</g>
<!-- Node3&#45;&gt;Node27 -->
<g id="edge70" class="edge"><title>Node3&#45;&gt;Node27</title>
<path fill="none" stroke="midnightblue" d="M1440.3,-124.981C1585.89,-120.301 1937.43,-106.99 2231,-80 2233.67,-79.7548 2236.38,-79.4897 2239.12,-79.2087"/>
<polygon fill="midnightblue" stroke="midnightblue" points="1440.06,-121.487 1430.18,-125.303 1440.28,-128.484 1440.06,-121.487"/>
</g>
<!-- Node3&#45;&gt;Node28 -->
<g id="edge72" class="edge"><title>Node3&#45;&gt;Node28</title>
<path fill="none" stroke="midnightblue" d="M1440.15,-125.843C1605.27,-122.613 2039.79,-111.567 2401,-80 2403.82,-79.7539 2406.68,-79.4837 2409.58,-79.1943"/>
<polygon fill="midnightblue" stroke="midnightblue" points="1440.06,-122.344 1430.13,-126.036 1440.2,-129.342 1440.06,-122.344"/>
</g>
<!-- Node3&#45;&gt;Node29 -->
<g id="edge74" class="edge"><title>Node3&#45;&gt;Node29</title>
<path fill="none" stroke="midnightblue" d="M1440.4,-125.523C1660.56,-120.58 2349.37,-103.585 2571,-80 2573.87,-79.6945 2576.81,-79.3376 2579.77,-78.9429"/>
<polygon fill="midnightblue" stroke="midnightblue" points="1440.19,-122.027 1430.27,-125.749 1440.35,-129.025 1440.19,-122.027"/>
</g>
<!-- Node3&#45;&gt;Node30 -->
<g id="edge78" class="edge"><title>Node3&#45;&gt;Node30</title>
<path fill="none" stroke="midnightblue" d="M1440.29,-125.728C1675.25,-121.17 2449.44,-104.612 2697,-80 2699.7,-79.7318 2702.45,-79.423 2705.23,-79.083"/>
<polygon fill="midnightblue" stroke="midnightblue" points="1440.1,-122.231 1430.17,-125.923 1440.24,-129.229 1440.1,-122.231"/>
</g>
<!-- Node3&#45;&gt;Node31 -->
<g id="edge80" class="edge"><title>Node3&#45;&gt;Node31</title>
<path fill="none" stroke="midnightblue" d="M1440.37,-125.962C1690.56,-121.981 2555.91,-106.57 2831,-80 2833.74,-79.7356 2836.53,-79.4298 2839.35,-79.0924"/>
<polygon fill="midnightblue" stroke="midnightblue" points="1440.27,-122.463 1430.33,-126.121 1440.38,-129.462 1440.27,-122.463"/>
</g>
<!-- Node6&#45;&gt;Node7 -->
<g id="edge12" class="edge"><title>Node6&#45;&gt;Node7</title>
<path fill="none" stroke="midnightblue" d="M435.405,-55.0095C406.972,-44.7023 368.905,-30.903 343.029,-21.5231"/>
<polygon fill="midnightblue" stroke="midnightblue" points="434.431,-58.3791 445.025,-58.4966 436.817,-51.7981 434.431,-58.3791"/>
</g>
<!-- Node6&#45;&gt;Node8 -->
<g id="edge14" class="edge"><title>Node6&#45;&gt;Node8</title>
<path fill="none" stroke="midnightblue" d="M462,-49.6667C456.183,-40.2948 449.422,-29.4019 444.561,-21.5707"/>
<polygon fill="midnightblue" stroke="midnightblue" points="459.15,-51.7113 467.397,-58.3619 465.097,-48.0197 459.15,-51.7113"/>
</g>
<!-- Node6&#45;&gt;Node9 -->
<g id="edge16" class="edge"><title>Node6&#45;&gt;Node9</title>
<path fill="none" stroke="midnightblue" d="M523.34,-55.8123C562.19,-45.4285 615.616,-31.1487 651.629,-21.5231"/>
<polygon fill="midnightblue" stroke="midnightblue" points="522.054,-52.5331 513.297,-58.4966 523.862,-59.2957 522.054,-52.5331"/>
</g>
<!-- Node6&#45;&gt;Node10 -->
<g id="edge18" class="edge"><title>Node6&#45;&gt;Node10</title>
<path fill="none" stroke="midnightblue" d="M497.838,-52.5407C512.238,-42.5973 530.167,-30.2177 542.691,-21.5707"/>
<polygon fill="midnightblue" stroke="midnightblue" points="495.647,-49.7998 489.407,-58.3619 499.625,-55.5601 495.647,-49.7998"/>
</g>
<!-- Node6&#45;&gt;Node11 -->
<g id="edge20" class="edge"><title>Node6&#45;&gt;Node11</title>
<path fill="none" stroke="midnightblue" d="M540.245,-63.7816C565.234,-61.8729 593.92,-59.7533 620,-58 893.659,-39.6028 1220.58,-21.4954 1353.89,-14.2757"/>
<polygon fill="midnightblue" stroke="midnightblue" points="539.845,-60.3019 530.143,-64.5571 540.381,-67.2814 539.845,-60.3019"/>
</g>
<!-- Node19&#45;&gt;Node9 -->
<g id="edge48" class="edge"><title>Node19&#45;&gt;Node9</title>
<path fill="none" stroke="midnightblue" d="M1554.01,-58.087C1381.84,-36.8346 923.745,-19.1985 754.71,-13.1895"/>
<polygon fill="midnightblue" stroke="midnightblue" points="1553.59,-61.5618 1563.96,-59.3613 1554.48,-54.6185 1553.59,-61.5618"/>
</g>
<!-- Node19&#45;&gt;Node11 -->
<g id="edge56" class="edge"><title>Node19&#45;&gt;Node11</title>
<path fill="none" stroke="midnightblue" d="M1562.46,-55.5464C1528.17,-45.1857 1481.43,-31.0668 1449.83,-21.5231"/>
<polygon fill="midnightblue" stroke="midnightblue" points="1561.65,-58.9553 1572.23,-58.4966 1563.67,-52.2543 1561.65,-58.9553"/>
</g>
<!-- Node19&#45;&gt;Node15 -->
<g id="edge46" class="edge"><title>Node19&#45;&gt;Node15</title>
<path fill="none" stroke="midnightblue" d="M1588.8,-51.405C1578.73,-41.6683 1566.54,-29.8914 1557.94,-21.5707"/>
<polygon fill="midnightblue" stroke="midnightblue" points="1586.37,-53.9281 1596,-58.3619 1591.24,-48.8952 1586.37,-53.9281"/>
</g>
<!-- Node19&#45;&gt;Node20 -->
<g id="edge50" class="edge"><title>Node19&#45;&gt;Node20</title>
<path fill="none" stroke="midnightblue" d="M1625.2,-51.405C1635.27,-41.6683 1647.46,-29.8914 1656.06,-21.5707"/>
<polygon fill="midnightblue" stroke="midnightblue" points="1622.76,-48.8952 1618,-58.3619 1627.63,-53.9281 1622.76,-48.8952"/>
</g>
<!-- Node19&#45;&gt;Node21 -->
<g id="edge52" class="edge"><title>Node19&#45;&gt;Node21</title>
<path fill="none" stroke="midnightblue" d="M1648.4,-55.2787C1679.58,-44.9437 1721.7,-30.9849 1750.25,-21.5231"/>
<polygon fill="midnightblue" stroke="midnightblue" points="1647.08,-52.0283 1638.69,-58.4966 1649.28,-58.6729 1647.08,-52.0283"/>
</g>
<!-- Node19&#45;&gt;Node22 -->
<g id="edge54" class="edge"><title>Node19&#45;&gt;Node22</title>
<path fill="none" stroke="midnightblue" d="M1660.32,-59.0553C1716.37,-48.6027 1804.19,-32.2242 1861.43,-21.5496"/>
<polygon fill="midnightblue" stroke="midnightblue" points="1659.43,-55.6612 1650.24,-60.9353 1660.72,-62.5426 1659.43,-55.6612"/>
</g>
<!-- Node39&#45;&gt;Node26 -->
<g id="edge112" class="edge"><title>Node39&#45;&gt;Node26</title>
<path fill="none" stroke="midnightblue" d="M4127.7,-116.005C3950.65,-96.5964 3485.6,-78.6958 3294.57,-71.8834"/>
<polygon fill="midnightblue" stroke="midnightblue" points="4127.35,-119.488 4137.68,-117.137 4128.14,-112.533 4127.35,-119.488"/>
</g>
<!-- Node47&#45;&gt;Node11 -->
<g id="edge142" class="edge"><title>Node47&#45;&gt;Node11</title>
<path fill="none" stroke="midnightblue" d="M5074.55,-106.382C5072.97,-90.3533 5067.96,-69.0456 5053,-58 5013.14,-28.5587 1534.39,-26.1076 1485,-22 1482.06,-21.7553 1479.05,-21.4598 1476.02,-21.1252"/>
<polygon fill="midnightblue" stroke="midnightblue" points="5071.06,-106.677 5075.16,-116.445 5078.04,-106.249 5071.06,-106.677"/>
</g>
<!-- Node47&#45;&gt;Node46 -->
<g id="edge140" class="edge"><title>Node47&#45;&gt;Node46</title>
<path fill="none" stroke="midnightblue" d="M5056.8,-109.405C5046.73,-99.6683 5034.54,-87.8914 5025.94,-79.5707"/>
<polygon fill="midnightblue" stroke="midnightblue" points="5054.37,-111.928 5064,-116.362 5059.24,-106.895 5054.37,-111.928"/>
</g>
</g>
</svg>
