<?xml version="1.0" encoding="UTF-8" standalone="no"?>
<!DOCTYPE svg PUBLIC "-//W3C//DTD SVG 1.1//EN"
 "http://www.w3.org/Graphics/SVG/1.1/DTD/svg11.dtd">
<!-- Generated by graphviz version 2.26.3 (20100126.1600)
 -->
<!-- Title: G Pages: 1 -->
<svg width="330pt" height="146pt"
 viewBox="0.00 0.00 330.00 146.00" xmlns="http://www.w3.org/2000/svg" xmlns:xlink="http://www.w3.org/1999/xlink">
<g id="graph1" class="graph" transform="scale(1 1) rotate(0) translate(4 142)">
<title>G</title>
<polygon fill="white" stroke="white" points="-4,5 -4,-142 327,-142 327,5 -4,5"/>
<!-- Node1 -->
<g id="node1" class="node"><title>Node1</title>
<polygon fill="#bfbfbf" stroke="black" points="89.5,-116.5 89.5,-137.5 192.5,-137.5 192.5,-116.5 89.5,-116.5"/>
<text text-anchor="middle" x="141" y="-124.5" font-family="Helvetica,sans-Serif" font-size="10.00">MemoryWatcher.h</text>
</g>
<!-- Node2 -->
<g id="node3" class="node"><title>Node2</title>
<a xlink:href="Common_8h.htm" target="_top" xlink:title="Common.h">
<polygon fill="white" stroke="black" points="143.5,-0.5 143.5,-21.5 210.5,-21.5 210.5,-0.5 143.5,-0.5"/>
<text text-anchor="middle" x="177" y="-8.5" font-family="Helvetica,sans-Serif" font-size="10.00">Common.h</text>
</a>
</g>
<!-- Node1&#45;&gt;Node2 -->
<g id="edge2" class="edge"><title>Node1&#45;&gt;Node2</title>
<path fill="none" stroke="midnightblue" d="M148.732,-116.378C154.991,-107.211 163.485,-93.374 168,-80 173.305,-64.285 175.508,-45.5796 176.411,-31.6116"/>
<polygon fill="midnightblue" stroke="midnightblue" points="179.91,-31.7284 176.891,-21.5728 172.918,-31.3944 179.91,-31.7284"/>
</g>
<!-- Node3 -->
<g id="node5" class="node"><title>Node3</title>
<polygon fill="white" stroke="#bfbfbf" points="0,-0.5 0,-21.5 50,-21.5 50,-0.5 0,-0.5"/>
<text text-anchor="middle" x="25" y="-8.5" font-family="Helvetica,sans-Serif" font-size="10.00">stdint.h</text>
</g>
<!-- Node1&#45;&gt;Node3 -->
<g id="edge4" class="edge"><title>Node1&#45;&gt;Node3</title>
<path fill="none" stroke="midnightblue" d="M101.583,-116.449C81.6924,-109.232 58.7247,-97.6908 44,-80 32.7253,-66.4541 28.1117,-46.7361 26.239,-31.8442"/>
<polygon fill="midnightblue" stroke="midnightblue" points="29.6948,-31.2086 25.2763,-21.5791 22.7254,-31.8623 29.6948,-31.2086"/>
</g>
<!-- Node4 -->
<g id="node7" class="node"><title>Node4</title>
<polygon fill="white" stroke="#bfbfbf" points="122.5,-58.5 122.5,-79.5 159.5,-79.5 159.5,-58.5 122.5,-58.5"/>
<text text-anchor="middle" x="141" y="-66.5" font-family="Helvetica,sans-Serif" font-size="10.00">map</text>
</g>
<!-- Node1&#45;&gt;Node4 -->
<g id="edge6" class="edge"><title>Node1&#45;&gt;Node4</title>
<path fill="none" stroke="midnightblue" d="M141,-116.362C141,-108.922 141,-98.7427 141,-89.7276"/>
<polygon fill="midnightblue" stroke="midnightblue" points="144.5,-89.5706 141,-79.5707 137.5,-89.5707 144.5,-89.5706"/>
</g>
<!-- Node5 -->
<g id="node9" class="node"><title>Node5</title>
<a xlink:href="SignalSlot_8h.htm" target="_top" xlink:title="SignalSlot.h">
<polygon fill="white" stroke="black" points="215,-58.5 215,-79.5 287,-79.5 287,-58.5 215,-58.5"/>
<text text-anchor="middle" x="251" y="-66.5" font-family="Helvetica,sans-Serif" font-size="10.00">SignalSlot.h</text>
</a>
</g>
<!-- Node1&#45;&gt;Node5 -->
<g id="edge8" class="edge"><title>Node1&#45;&gt;Node5</title>
<path fill="none" stroke="midnightblue" d="M160.92,-116.497C177.946,-107.519 202.669,-94.4835 221.909,-84.3387"/>
<polygon fill="midnightblue" stroke="midnightblue" points="223.643,-87.3814 230.856,-79.6212 220.378,-81.1894 223.643,-87.3814"/>
</g>
<!-- Node8 -->
<g id="node16" class="node"><title>Node8</title>
<a xlink:href="Timer_8h.htm" target="_top" xlink:title="Timer.h">
<polygon fill="white" stroke="black" points="53,-58.5 53,-79.5 105,-79.5 105,-58.5 53,-58.5"/>
<text text-anchor="middle" x="79" y="-66.5" font-family="Helvetica,sans-Serif" font-size="10.00">Timer.h</text>
</a>
</g>
<!-- Node1&#45;&gt;Node8 -->
<g id="edge16" class="edge"><title>Node1&#45;&gt;Node8</title>
<path fill="none" stroke="midnightblue" d="M129.628,-116.362C120.714,-108.023 108.121,-96.2418 97.7243,-86.5162"/>
<polygon fill="midnightblue" stroke="midnightblue" points="99.9935,-83.8463 90.2997,-79.5707 95.2113,-88.9582 99.9935,-83.8463"/>
</g>
<!-- Node5&#45;&gt;Node2 -->
<g id="edge10" class="edge"><title>Node5&#45;&gt;Node2</title>
<path fill="none" stroke="midnightblue" d="M237.427,-58.3619C226.579,-49.859 211.166,-37.7785 198.621,-27.9466"/>
<polygon fill="midnightblue" stroke="midnightblue" points="200.516,-24.9848 190.487,-21.5707 196.198,-30.4942 200.516,-24.9848"/>
</g>
<!-- Node6 -->
<g id="node12" class="node"><title>Node6</title>
<polygon fill="white" stroke="#bfbfbf" points="291.5,-0.5 291.5,-21.5 322.5,-21.5 322.5,-0.5 291.5,-0.5"/>
<text text-anchor="middle" x="307" y="-8.5" font-family="Helvetica,sans-Serif" font-size="10.00">set</text>
</g>
<!-- Node5&#45;&gt;Node6 -->
<g id="edge12" class="edge"><title>Node5&#45;&gt;Node6</title>
<path fill="none" stroke="midnightblue" d="M261.271,-58.3619C269.244,-50.1043 280.475,-38.4725 289.811,-28.8029"/>
<polygon fill="midnightblue" stroke="midnightblue" points="292.366,-31.1958 296.794,-21.5707 287.33,-26.3336 292.366,-31.1958"/>
</g>
<!-- Node7 -->
<g id="node14" class="node"><title>Node7</title>
<polygon fill="white" stroke="#bfbfbf" points="227.5,-0.5 227.5,-21.5 274.5,-21.5 274.5,-0.5 227.5,-0.5"/>
<text text-anchor="middle" x="251" y="-8.5" font-family="Helvetica,sans-Serif" font-size="10.00">stdio.h</text>
</g>
<!-- Node5&#45;&gt;Node7 -->
<g id="edge14" class="edge"><title>Node5&#45;&gt;Node7</title>
<path fill="none" stroke="midnightblue" d="M251,-58.3619C251,-50.9219 251,-40.7427 251,-31.7276"/>
<polygon fill="midnightblue" stroke="midnightblue" points="254.5,-31.5706 251,-21.5707 247.5,-31.5707 254.5,-31.5706"/>
</g>
<!-- Node8&#45;&gt;Node2 -->
<g id="edge18" class="edge"><title>Node8&#45;&gt;Node2</title>
<path fill="none" stroke="midnightblue" d="M96.9747,-58.3619C111.894,-49.532 133.333,-36.844 150.266,-26.8224"/>
<polygon fill="midnightblue" stroke="midnightblue" points="152.316,-29.6759 159.139,-21.5707 148.751,-23.6519 152.316,-29.6759"/>
</g>
<!-- Node8&#45;&gt;Node3 -->
<g id="edge22" class="edge"><title>Node8&#45;&gt;Node3</title>
<path fill="none" stroke="midnightblue" d="M69.0956,-58.3619C61.4836,-50.1861 50.792,-38.7025 41.843,-29.0907"/>
<polygon fill="midnightblue" stroke="midnightblue" points="44.2175,-26.5046 34.8416,-21.5707 39.0942,-31.2746 44.2175,-26.5046"/>
</g>
<!-- Node9 -->
<g id="node19" class="node"><title>Node9</title>
<polygon fill="white" stroke="#bfbfbf" points="67.5,-0.5 67.5,-21.5 108.5,-21.5 108.5,-0.5 67.5,-0.5"/>
<text text-anchor="middle" x="88" y="-8.5" font-family="Helvetica,sans-Serif" font-size="10.00">glib.h</text>
</g>
<!-- Node8&#45;&gt;Node9 -->
<g id="edge20" class="edge"><title>Node8&#45;&gt;Node9</title>
<path fill="none" stroke="midnightblue" d="M80.6507,-58.3619C81.8052,-50.9219 83.3847,-40.7427 84.7837,-31.7276"/>
<polygon fill="midnightblue" stroke="midnightblue" points="88.2849,-31.9891 86.3597,-21.5707 81.3677,-30.9157 88.2849,-31.9891"/>
</g>
</g>
</svg>
