<?xml version="1.0" encoding="UTF-8" standalone="no"?>
<!DOCTYPE svg PUBLIC "-//W3C//DTD SVG 1.1//EN"
 "http://www.w3.org/Graphics/SVG/1.1/DTD/svg11.dtd">
<!-- Generated by graphviz version 2.26.3 (20100126.1600)
 -->
<!-- Title: G Pages: 1 -->
<svg width="372pt" height="204pt"
 viewBox="0.00 0.00 372.00 204.00" xmlns="http://www.w3.org/2000/svg" xmlns:xlink="http://www.w3.org/1999/xlink">
<g id="graph1" class="graph" transform="scale(1 1) rotate(0) translate(4 200)">
<title>G</title>
<polygon fill="white" stroke="white" points="-4,5 -4,-200 369,-200 369,5 -4,5"/>
<!-- Node1 -->
<g id="node1" class="node"><title>Node1</title>
<polygon fill="#bfbfbf" stroke="black" points="151.5,-174.5 151.5,-195.5 250.5,-195.5 250.5,-174.5 151.5,-174.5"/>
<text text-anchor="middle" x="201" y="-182.5" font-family="Helvetica,sans-Serif" font-size="10.00">MemoryMonitor.h</text>
</g>
<!-- Node2 -->
<g id="node3" class="node"><title>Node2</title>
<a xlink:href="Common_8h.htm" target="_top" xlink:title="Common.h">
<polygon fill="white" stroke="black" points="-0.5,-0.5 -0.5,-21.5 66.5,-21.5 66.5,-0.5 -0.5,-0.5"/>
<text text-anchor="middle" x="33" y="-8.5" font-family="Helvetica,sans-Serif" font-size="10.00">Common.h</text>
</a>
</g>
<!-- Node1&#45;&gt;Node2 -->
<g id="edge2" class="edge"><title>Node1&#45;&gt;Node2</title>
<path fill="none" stroke="midnightblue" d="M151.342,-177.445C122.434,-170.972 86.7334,-159.183 61,-138 31.3047,-113.556 25.9628,-96.4078 28,-58 28.4542,-49.437 29.3707,-40.0333 30.2965,-31.9021"/>
<polygon fill="midnightblue" stroke="midnightblue" points="33.792,-32.1501 31.522,-21.8013 26.8429,-31.3069 33.792,-32.1501"/>
</g>
<!-- Node3 -->
<g id="node5" class="node"><title>Node3</title>
<polygon fill="white" stroke="#bfbfbf" points="222,-58.5 222,-79.5 272,-79.5 272,-58.5 222,-58.5"/>
<text text-anchor="middle" x="247" y="-66.5" font-family="Helvetica,sans-Serif" font-size="10.00">stdint.h</text>
</g>
<!-- Node1&#45;&gt;Node3 -->
<g id="edge4" class="edge"><title>Node1&#45;&gt;Node3</title>
<path fill="none" stroke="midnightblue" d="M205.245,-174.295C212.913,-154.959 229.186,-113.923 238.999,-89.1767"/>
<polygon fill="midnightblue" stroke="midnightblue" points="242.332,-90.2652 242.765,-79.6792 235.825,-87.6848 242.332,-90.2652"/>
</g>
<!-- Node4 -->
<g id="node7" class="node"><title>Node4</title>
<polygon fill="white" stroke="#bfbfbf" points="255.5,-116.5 255.5,-137.5 292.5,-137.5 292.5,-116.5 255.5,-116.5"/>
<text text-anchor="middle" x="274" y="-124.5" font-family="Helvetica,sans-Serif" font-size="10.00">map</text>
</g>
<!-- Node1&#45;&gt;Node4 -->
<g id="edge6" class="edge"><title>Node1&#45;&gt;Node4</title>
<path fill="none" stroke="midnightblue" d="M214.389,-174.362C225.091,-165.859 240.296,-153.779 252.671,-143.947"/>
<polygon fill="midnightblue" stroke="midnightblue" points="255.043,-146.532 260.696,-137.571 250.689,-141.051 255.043,-146.532"/>
</g>
<!-- Node5 -->
<g id="node9" class="node"><title>Node5</title>
<polygon fill="white" stroke="#bfbfbf" points="309.5,-116.5 309.5,-137.5 364.5,-137.5 364.5,-116.5 309.5,-116.5"/>
<text text-anchor="middle" x="337" y="-124.5" font-family="Helvetica,sans-Serif" font-size="10.00">QObject</text>
</g>
<!-- Node1&#45;&gt;Node5 -->
<g id="edge8" class="edge"><title>Node1&#45;&gt;Node5</title>
<path fill="none" stroke="midnightblue" d="M225.629,-174.497C247.157,-165.315 278.64,-151.889 302.645,-141.652"/>
<polygon fill="midnightblue" stroke="midnightblue" points="304.27,-144.764 312.095,-137.621 301.524,-138.325 304.27,-144.764"/>
</g>
<!-- Node6 -->
<g id="node11" class="node"><title>Node6</title>
<a xlink:href="Timer_8h.htm" target="_top" xlink:title="Timer.h">
<polygon fill="white" stroke="black" points="148,-116.5 148,-137.5 200,-137.5 200,-116.5 148,-116.5"/>
<text text-anchor="middle" x="174" y="-124.5" font-family="Helvetica,sans-Serif" font-size="10.00">Timer.h</text>
</a>
</g>
<!-- Node1&#45;&gt;Node6 -->
<g id="edge10" class="edge"><title>Node1&#45;&gt;Node6</title>
<path fill="none" stroke="midnightblue" d="M196.048,-174.362C192.47,-166.677 187.532,-156.069 183.236,-146.84"/>
<polygon fill="midnightblue" stroke="midnightblue" points="186.314,-145.159 178.921,-137.571 179.968,-148.114 186.314,-145.159"/>
</g>
<!-- Node8 -->
<g id="node17" class="node"><title>Node8</title>
<a xlink:href="Mutex_8h.htm" target="_top" xlink:title="Mutex.h">
<polygon fill="white" stroke="black" points="69.5,-116.5 69.5,-137.5 122.5,-137.5 122.5,-116.5 69.5,-116.5"/>
<text text-anchor="middle" x="96" y="-124.5" font-family="Helvetica,sans-Serif" font-size="10.00">Mutex.h</text>
</a>
</g>
<!-- Node1&#45;&gt;Node8 -->
<g id="edge18" class="edge"><title>Node1&#45;&gt;Node8</title>
<path fill="none" stroke="midnightblue" d="M181.741,-174.362C165.534,-165.409 142.147,-152.491 123.891,-142.406"/>
<polygon fill="midnightblue" stroke="midnightblue" points="125.582,-139.342 115.137,-137.571 122.198,-145.47 125.582,-139.342"/>
</g>
<!-- Node6&#45;&gt;Node2 -->
<g id="edge12" class="edge"><title>Node6&#45;&gt;Node2</title>
<path fill="none" stroke="midnightblue" d="M163.205,-116.265C148.968,-102.297 122.913,-77.3887 99,-58 85.8113,-47.3067 70.387,-36.2486 57.7673,-27.5469"/>
<polygon fill="midnightblue" stroke="midnightblue" points="59.3794,-24.4098 49.146,-21.6661 55.4348,-30.1926 59.3794,-24.4098"/>
</g>
<!-- Node6&#45;&gt;Node3 -->
<g id="edge16" class="edge"><title>Node6&#45;&gt;Node3</title>
<path fill="none" stroke="midnightblue" d="M187.389,-116.362C198.091,-107.859 213.296,-95.7785 225.671,-85.9466"/>
<polygon fill="midnightblue" stroke="midnightblue" points="228.043,-88.5318 233.696,-79.5707 223.689,-83.0511 228.043,-88.5318"/>
</g>
<!-- Node7 -->
<g id="node14" class="node"><title>Node7</title>
<polygon fill="white" stroke="#bfbfbf" points="97.5,-0.5 97.5,-21.5 138.5,-21.5 138.5,-0.5 97.5,-0.5"/>
<text text-anchor="middle" x="118" y="-8.5" font-family="Helvetica,sans-Serif" font-size="10.00">glib.h</text>
</g>
<!-- Node6&#45;&gt;Node7 -->
<g id="edge14" class="edge"><title>Node6&#45;&gt;Node7</title>
<path fill="none" stroke="midnightblue" d="M175.809,-116.092C177.628,-101.938 179.023,-76.8284 170,-58 164.207,-45.9116 153.771,-35.5241 143.761,-27.6119"/>
<polygon fill="midnightblue" stroke="midnightblue" points="145.689,-24.6847 135.564,-21.5649 141.533,-30.3179 145.689,-24.6847"/>
</g>
<!-- Node8&#45;&gt;Node2 -->
<g id="edge20" class="edge"><title>Node8&#45;&gt;Node2</title>
<path fill="none" stroke="midnightblue" d="M76.3633,-116.41C63.3874,-108.281 47.2959,-95.7805 39,-80 31.2297,-65.2192 30.1241,-46.1693 30.739,-31.8319"/>
<polygon fill="midnightblue" stroke="midnightblue" points="34.2549,-31.7476 31.5066,-21.5155 27.2742,-31.2282 34.2549,-31.7476"/>
</g>
<!-- Node8&#45;&gt;Node7 -->
<g id="edge28" class="edge"><title>Node8&#45;&gt;Node7</title>
<path fill="none" stroke="midnightblue" d="M98.0303,-116.295C101.681,-97.0451 109.411,-56.2889 114.11,-31.5091"/>
<polygon fill="midnightblue" stroke="midnightblue" points="117.55,-32.1563 115.975,-21.6792 110.673,-30.8519 117.55,-32.1563"/>
</g>
<!-- Node9 -->
<g id="node20" class="node"><title>Node9</title>
<a xlink:href="sptr_8h.htm" target="_top" xlink:title="sptr.h">
<polygon fill="white" stroke="black" points="47.5,-58.5 47.5,-79.5 90.5,-79.5 90.5,-58.5 47.5,-58.5"/>
<text text-anchor="middle" x="69" y="-66.5" font-family="Helvetica,sans-Serif" font-size="10.00">sptr.h</text>
</a>
</g>
<!-- Node8&#45;&gt;Node9 -->
<g id="edge22" class="edge"><title>Node8&#45;&gt;Node9</title>
<path fill="none" stroke="midnightblue" d="M91.0478,-116.362C87.4702,-108.677 82.5319,-98.0686 78.2358,-88.8399"/>
<polygon fill="midnightblue" stroke="midnightblue" points="81.3142,-87.1594 73.9208,-79.5707 74.9681,-90.1136 81.3142,-87.1594"/>
</g>
<!-- Node9&#45;&gt;Node2 -->
<g id="edge24" class="edge"><title>Node9&#45;&gt;Node2</title>
<path fill="none" stroke="midnightblue" d="M62.397,-58.3619C57.5254,-50.5131 50.7616,-39.6159 44.95,-30.2527"/>
<polygon fill="midnightblue" stroke="midnightblue" points="47.8085,-28.2213 39.5611,-21.5707 41.861,-31.9129 47.8085,-28.2213"/>
</g>
<!-- Node9&#45;&gt;Node7 -->
<g id="edge26" class="edge"><title>Node9&#45;&gt;Node7</title>
<path fill="none" stroke="midnightblue" d="M77.9874,-58.3619C84.8255,-50.2678 94.4024,-38.9318 102.472,-29.3796"/>
<polygon fill="midnightblue" stroke="midnightblue" points="105.29,-31.4683 109.07,-21.5707 99.9425,-26.9508 105.29,-31.4683"/>
</g>
</g>
</svg>
