<?xml version="1.0" encoding="UTF-8" standalone="no"?>
<!DOCTYPE svg PUBLIC "-//W3C//DTD SVG 1.1//EN"
 "http://www.w3.org/Graphics/SVG/1.1/DTD/svg11.dtd">
<!-- Generated by graphviz version 2.26.3 (20100126.1600)
 -->
<!-- Title: G Pages: 1 -->
<svg width="1781pt" height="320pt"
 viewBox="0.00 0.00 1781.41 320.00" xmlns="http://www.w3.org/2000/svg" xmlns:xlink="http://www.w3.org/1999/xlink">
<g id="graph1" class="graph" transform="scale(1 1) rotate(0) translate(4 316)">
<title>G</title>
<polygon fill="white" stroke="white" points="-4,5 -4,-316 1778.41,-316 1778.41,5 -4,5"/>
<!-- Node1 -->
<g id="node1" class="node"><title>Node1</title>
<polygon fill="#bfbfbf" stroke="black" points="258.524,-290.5 258.524,-311.5 368.524,-311.5 368.524,-290.5 258.524,-290.5"/>
<text text-anchor="middle" x="313.524" y="-298.5" font-family="Helvetica,sans-Serif" font-size="10.00">MemoryMonitor.cpp</text>
</g>
<!-- Node2 -->
<g id="node3" class="node"><title>Node2</title>
<a xlink:href="Common_8h.htm" target="_top" xlink:title="Common.h">
<polygon fill="white" stroke="black" points="960.024,-0.5 960.024,-21.5 1027.02,-21.5 1027.02,-0.5 960.024,-0.5"/>
<text text-anchor="middle" x="993.524" y="-8.5" font-family="Helvetica,sans-Serif" font-size="10.00">Common.h</text>
</a>
</g>
<!-- Node1&#45;&gt;Node2 -->
<g id="edge2" class="edge"><title>Node1&#45;&gt;Node2</title>
<path fill="none" stroke="midnightblue" d="M357.153,-290.411C377.835,-283.307 401.29,-271.878 416.524,-254 437.154,-229.789 435.524,-216.808 435.524,-185 435.524,-185 435.524,-185 435.524,-127 435.524,-95.0711 430.856,-78.2723 455.524,-58 493.399,-26.873 828.502,-15.2354 949.876,-12.0186"/>
<polygon fill="midnightblue" stroke="midnightblue" points="950.025,-15.516 959.931,-11.7585 949.844,-8.51833 950.025,-15.516"/>
</g>
<!-- Node3 -->
<g id="node5" class="node"><title>Node3</title>
<polygon fill="white" stroke="#bfbfbf" points="13.0239,-232.5 13.0239,-253.5 82.0239,-253.5 82.0239,-232.5 13.0239,-232.5"/>
<text text-anchor="middle" x="47.5239" y="-240.5" font-family="Helvetica,sans-Serif" font-size="10.00">sys/types.h</text>
</g>
<!-- Node1&#45;&gt;Node3 -->
<g id="edge4" class="edge"><title>Node1&#45;&gt;Node3</title>
<path fill="none" stroke="midnightblue" d="M260.215,-290.431C217.248,-281.761 155.034,-268.869 92.2969,-254.356"/>
<polygon fill="midnightblue" stroke="midnightblue" points="92.7594,-250.87 82.2264,-252.013 91.1733,-257.688 92.7594,-250.87"/>
</g>
<!-- Node4 -->
<g id="node7" class="node"><title>Node4</title>
<polygon fill="white" stroke="#bfbfbf" points="99.0239,-232.5 99.0239,-253.5 152.024,-253.5 152.024,-232.5 99.0239,-232.5"/>
<text text-anchor="middle" x="125.524" y="-240.5" font-family="Helvetica,sans-Serif" font-size="10.00">unistd.h</text>
</g>
<!-- Node1&#45;&gt;Node4 -->
<g id="edge6" class="edge"><title>Node1&#45;&gt;Node4</title>
<path fill="none" stroke="midnightblue" d="M278.868,-290.424C249.905,-281.57 207.26,-268.497 161.971,-254.439"/>
<polygon fill="midnightblue" stroke="midnightblue" points="162.859,-251.05 152.271,-251.426 160.783,-257.735 162.859,-251.05"/>
</g>
<!-- Node5 -->
<g id="node9" class="node"><title>Node5</title>
<polygon fill="white" stroke="#bfbfbf" points="169.524,-232.5 169.524,-253.5 221.524,-253.5 221.524,-232.5 169.524,-232.5"/>
<text text-anchor="middle" x="195.524" y="-240.5" font-family="Helvetica,sans-Serif" font-size="10.00">fstream</text>
</g>
<!-- Node1&#45;&gt;Node5 -->
<g id="edge8" class="edge"><title>Node1&#45;&gt;Node5</title>
<path fill="none" stroke="midnightblue" d="M292.155,-290.497C273.725,-281.438 246.887,-268.246 226.169,-258.063"/>
<polygon fill="midnightblue" stroke="midnightblue" points="227.651,-254.891 217.133,-253.621 224.563,-261.174 227.651,-254.891"/>
</g>
<!-- Node6 -->
<g id="node11" class="node"><title>Node6</title>
<polygon fill="white" stroke="#bfbfbf" points="239.524,-232.5 239.524,-253.5 295.524,-253.5 295.524,-232.5 239.524,-232.5"/>
<text text-anchor="middle" x="267.524" y="-240.5" font-family="Helvetica,sans-Serif" font-size="10.00">strings.h</text>
</g>
<!-- Node1&#45;&gt;Node6 -->
<g id="edge10" class="edge"><title>Node1&#45;&gt;Node6</title>
<path fill="none" stroke="midnightblue" d="M305.087,-290.362C298.732,-282.35 289.858,-271.161 282.331,-261.67"/>
<polygon fill="midnightblue" stroke="midnightblue" points="284.864,-259.231 275.907,-253.571 279.379,-263.581 284.864,-259.231"/>
</g>
<!-- Node7 -->
<g id="node13" class="node"><title>Node7</title>
<polygon fill="white" stroke="#bfbfbf" points="313.524,-232.5 313.524,-253.5 407.524,-253.5 407.524,-232.5 313.524,-232.5"/>
<text text-anchor="middle" x="360.524" y="-240.5" font-family="Helvetica,sans-Serif" font-size="10.00">palmwebglobal.h</text>
</g>
<!-- Node1&#45;&gt;Node7 -->
<g id="edge12" class="edge"><title>Node1&#45;&gt;Node7</title>
<path fill="none" stroke="midnightblue" d="M322.144,-290.362C328.703,-282.268 337.889,-270.932 345.63,-261.38"/>
<polygon fill="midnightblue" stroke="midnightblue" points="348.381,-263.544 351.958,-253.571 342.943,-259.136 348.381,-263.544"/>
</g>
<!-- Node8 -->
<g id="node15" class="node"><title>Node8</title>
<a xlink:href="MemoryMonitor_8h.htm" target="_top" xlink:title="MemoryMonitor.h">
<polygon fill="white" stroke="black" points="501.024,-174.5 501.024,-195.5 600.024,-195.5 600.024,-174.5 501.024,-174.5"/>
<text text-anchor="middle" x="550.524" y="-182.5" font-family="Helvetica,sans-Serif" font-size="10.00">MemoryMonitor.h</text>
</a>
</g>
<!-- Node1&#45;&gt;Node8 -->
<g id="edge14" class="edge"><title>Node1&#45;&gt;Node8</title>
<path fill="none" stroke="midnightblue" d="M368.821,-294.229C404.693,-287.939 451.318,-276.065 487.524,-254 508.366,-241.298 526.472,-219.69 537.858,-204.034"/>
<polygon fill="midnightblue" stroke="midnightblue" points="540.885,-205.814 543.756,-195.616 535.151,-201.798 540.885,-205.814"/>
</g>
<!-- Node16 -->
<g id="node38" class="node"><title>Node16</title>
<a xlink:href="Settings_8h.htm" target="_top" xlink:title="Settings.h">
<polygon fill="white" stroke="black" points="345.024,-58.5 345.024,-79.5 408.024,-79.5 408.024,-58.5 345.024,-58.5"/>
<text text-anchor="middle" x="376.524" y="-66.5" font-family="Helvetica,sans-Serif" font-size="10.00">Settings.h</text>
</a>
</g>
<!-- Node1&#45;&gt;Node16 -->
<g id="edge44" class="edge"><title>Node1&#45;&gt;Node16</title>
<path fill="none" stroke="midnightblue" d="M258.494,-296.491C174.135,-289.016 20.837,-272.982 4.52385,-254 -1.84908,-246.584 -0.825695,-240.185 4.52385,-232 79.2867,-117.616 254.044,-83.002 334.553,-72.9341"/>
<polygon fill="midnightblue" stroke="midnightblue" points="335.289,-76.3715 344.809,-71.7215 334.468,-69.4199 335.289,-76.3715"/>
</g>
<!-- Node21 -->
<g id="node50" class="node"><title>Node21</title>
<a xlink:href="Time_8h.htm" target="_top" xlink:title="Time.h">
<polygon fill="white" stroke="black" points="463.524,-116.5 463.524,-137.5 511.524,-137.5 511.524,-116.5 463.524,-116.5"/>
<text text-anchor="middle" x="487.524" y="-124.5" font-family="Helvetica,sans-Serif" font-size="10.00">Time.h</text>
</a>
</g>
<!-- Node1&#45;&gt;Node21 -->
<g id="edge58" class="edge"><title>Node1&#45;&gt;Node21</title>
<path fill="none" stroke="midnightblue" d="M368.625,-294.007C396.293,-287.8 428.344,-276.089 449.524,-254 477.523,-224.799 484.987,-175.822 486.916,-147.994"/>
<polygon fill="midnightblue" stroke="midnightblue" points="490.422,-147.969 487.437,-137.803 483.431,-147.611 490.422,-147.969"/>
</g>
<!-- Node24 -->
<g id="node58" class="node"><title>Node24</title>
<a xlink:href="HostBase_8h.htm" target="_top" xlink:title="HostBase.h">
<polygon fill="white" stroke="black" points="963.024,-232.5 963.024,-253.5 1034.02,-253.5 1034.02,-232.5 963.024,-232.5"/>
<text text-anchor="middle" x="998.524" y="-240.5" font-family="Helvetica,sans-Serif" font-size="10.00">HostBase.h</text>
</a>
</g>
<!-- Node1&#45;&gt;Node24 -->
<g id="edge68" class="edge"><title>Node1&#45;&gt;Node24</title>
<path fill="none" stroke="midnightblue" d="M368.711,-296.327C500.339,-285.182 830.791,-257.202 952.547,-246.893"/>
<polygon fill="midnightblue" stroke="midnightblue" points="952.982,-250.369 962.651,-246.037 952.392,-243.394 952.982,-250.369"/>
</g>
<!-- Node8&#45;&gt;Node2 -->
<g id="edge16" class="edge"><title>Node8&#45;&gt;Node2</title>
<path fill="none" stroke="midnightblue" d="M580.097,-174.361C600.096,-166.283 626.422,-153.865 646.524,-138 682.706,-109.444 672.6,-81.0374 712.524,-58 752.153,-35.1327 881.257,-20.7706 949.818,-14.5633"/>
<polygon fill="midnightblue" stroke="midnightblue" points="950.226,-18.041 959.878,-13.6718 949.608,-11.0683 950.226,-18.041"/>
</g>
<!-- Node9 -->
<g id="node18" class="node"><title>Node9</title>
<polygon fill="white" stroke="#bfbfbf" points="769.524,-58.5 769.524,-79.5 819.524,-79.5 819.524,-58.5 769.524,-58.5"/>
<text text-anchor="middle" x="794.524" y="-66.5" font-family="Helvetica,sans-Serif" font-size="10.00">stdint.h</text>
</g>
<!-- Node8&#45;&gt;Node9 -->
<g id="edge18" class="edge"><title>Node8&#45;&gt;Node9</title>
<path fill="none" stroke="midnightblue" d="M600.413,-175.661C656.719,-164.786 742.134,-147.147 754.524,-138 770.816,-125.973 781.548,-105.168 787.755,-89.5399"/>
<polygon fill="midnightblue" stroke="midnightblue" points="791.199,-90.313 791.343,-79.7192 784.624,-87.9112 791.199,-90.313"/>
</g>
<!-- Node10 -->
<g id="node20" class="node"><title>Node10</title>
<polygon fill="white" stroke="#bfbfbf" points="529.024,-116.5 529.024,-137.5 566.024,-137.5 566.024,-116.5 529.024,-116.5"/>
<text text-anchor="middle" x="547.524" y="-124.5" font-family="Helvetica,sans-Serif" font-size="10.00">map</text>
</g>
<!-- Node8&#45;&gt;Node10 -->
<g id="edge20" class="edge"><title>Node8&#45;&gt;Node10</title>
<path fill="none" stroke="midnightblue" d="M549.974,-174.362C549.589,-166.922 549.062,-156.743 548.596,-147.728"/>
<polygon fill="midnightblue" stroke="midnightblue" points="552.083,-147.376 548.071,-137.571 545.092,-147.738 552.083,-147.376"/>
</g>
<!-- Node11 -->
<g id="node22" class="node"><title>Node11</title>
<polygon fill="white" stroke="#bfbfbf" points="583.024,-116.5 583.024,-137.5 638.024,-137.5 638.024,-116.5 583.024,-116.5"/>
<text text-anchor="middle" x="610.524" y="-124.5" font-family="Helvetica,sans-Serif" font-size="10.00">QObject</text>
</g>
<!-- Node8&#45;&gt;Node11 -->
<g id="edge22" class="edge"><title>Node8&#45;&gt;Node11</title>
<path fill="none" stroke="midnightblue" d="M561.529,-174.362C570.071,-166.104 582.104,-154.472 592.107,-144.803"/>
<polygon fill="midnightblue" stroke="midnightblue" points="594.831,-147.037 599.589,-137.571 589.966,-142.004 594.831,-147.037"/>
</g>
<!-- Node12 -->
<g id="node24" class="node"><title>Node12</title>
<a xlink:href="Timer_8h.htm" target="_top" xlink:title="Timer.h">
<polygon fill="white" stroke="black" points="693.524,-116.5 693.524,-137.5 745.524,-137.5 745.524,-116.5 693.524,-116.5"/>
<text text-anchor="middle" x="719.524" y="-124.5" font-family="Helvetica,sans-Serif" font-size="10.00">Timer.h</text>
</a>
</g>
<!-- Node8&#45;&gt;Node12 -->
<g id="edge24" class="edge"><title>Node8&#45;&gt;Node12</title>
<path fill="none" stroke="midnightblue" d="M581.128,-174.497C609.928,-164.613 653.063,-149.809 683.508,-139.361"/>
<polygon fill="midnightblue" stroke="midnightblue" points="684.984,-142.554 693.307,-135.998 682.712,-135.933 684.984,-142.554"/>
</g>
<!-- Node14 -->
<g id="node30" class="node"><title>Node14</title>
<a xlink:href="Mutex_8h.htm" target="_top" xlink:title="Mutex.h">
<polygon fill="white" stroke="black" points="1300.02,-116.5 1300.02,-137.5 1353.02,-137.5 1353.02,-116.5 1300.02,-116.5"/>
<text text-anchor="middle" x="1326.52" y="-124.5" font-family="Helvetica,sans-Serif" font-size="10.00">Mutex.h</text>
</a>
</g>
<!-- Node8&#45;&gt;Node14 -->
<g id="edge32" class="edge"><title>Node8&#45;&gt;Node14</title>
<path fill="none" stroke="midnightblue" d="M600.297,-178.771C615.152,-177.054 631.482,-175.307 646.524,-174 915.761,-150.609 984.743,-166.163 1253.52,-138 1265.33,-136.763 1278.15,-134.98 1289.71,-133.21"/>
<polygon fill="midnightblue" stroke="midnightblue" points="1290.57,-136.618 1299.9,-131.602 1289.48,-129.703 1290.57,-136.618"/>
</g>
<!-- Node12&#45;&gt;Node2 -->
<g id="edge26" class="edge"><title>Node12&#45;&gt;Node2</title>
<path fill="none" stroke="midnightblue" d="M717.242,-116.292C714.707,-101.186 712.72,-73.7108 727.524,-58 757.135,-26.5737 881.784,-16.0397 949.421,-12.6022"/>
<polygon fill="midnightblue" stroke="midnightblue" points="949.942,-16.0814 959.764,-12.1093 949.609,-9.08934 949.942,-16.0814"/>
</g>
<!-- Node12&#45;&gt;Node9 -->
<g id="edge30" class="edge"><title>Node12&#45;&gt;Node9</title>
<path fill="none" stroke="midnightblue" d="M733.28,-116.362C744.275,-107.859 759.896,-95.7785 772.61,-85.9466"/>
<polygon fill="midnightblue" stroke="midnightblue" points="775.085,-88.4569 780.855,-79.5707 770.803,-82.9195 775.085,-88.4569"/>
</g>
<!-- Node13 -->
<g id="node27" class="node"><title>Node13</title>
<polygon fill="white" stroke="#bfbfbf" points="1208.02,-0.5 1208.02,-21.5 1249.02,-21.5 1249.02,-0.5 1208.02,-0.5"/>
<text text-anchor="middle" x="1228.52" y="-8.5" font-family="Helvetica,sans-Serif" font-size="10.00">glib.h</text>
</g>
<!-- Node12&#45;&gt;Node13 -->
<g id="edge28" class="edge"><title>Node12&#45;&gt;Node13</title>
<path fill="none" stroke="midnightblue" d="M722.46,-116.453C727.437,-100.754 739.137,-71.6292 760.524,-58 797.362,-34.524 1099.59,-17.4564 1197.81,-12.4858"/>
<polygon fill="midnightblue" stroke="midnightblue" points="1198.16,-15.9728 1207.97,-11.978 1197.81,-8.9815 1198.16,-15.9728"/>
</g>
<!-- Node14&#45;&gt;Node2 -->
<g id="edge34" class="edge"><title>Node14&#45;&gt;Node2</title>
<path fill="none" stroke="midnightblue" d="M1312.3,-116.352C1288.88,-98.9912 1242.95,-65.7428 1224.52,-58 1162.48,-31.9337 1084.84,-19.9622 1037.23,-14.733"/>
<polygon fill="midnightblue" stroke="midnightblue" points="1037.56,-11.2489 1027.25,-13.6879 1036.83,-18.2108 1037.56,-11.2489"/>
</g>
<!-- Node14&#45;&gt;Node13 -->
<g id="edge42" class="edge"><title>Node14&#45;&gt;Node13</title>
<path fill="none" stroke="midnightblue" d="M1317.48,-116.295C1300.78,-96.5271 1264.92,-54.0801 1244.19,-29.5443"/>
<polygon fill="midnightblue" stroke="midnightblue" points="1246.67,-27.0593 1237.55,-21.6792 1241.33,-31.5768 1246.67,-27.0593"/>
</g>
<!-- Node15 -->
<g id="node33" class="node"><title>Node15</title>
<a xlink:href="sptr_8h.htm" target="_top" xlink:title="sptr.h">
<polygon fill="white" stroke="black" points="1309.02,-58.5 1309.02,-79.5 1352.02,-79.5 1352.02,-58.5 1309.02,-58.5"/>
<text text-anchor="middle" x="1330.52" y="-66.5" font-family="Helvetica,sans-Serif" font-size="10.00">sptr.h</text>
</a>
</g>
<!-- Node14&#45;&gt;Node15 -->
<g id="edge36" class="edge"><title>Node14&#45;&gt;Node15</title>
<path fill="none" stroke="midnightblue" d="M1327.26,-116.362C1327.77,-108.922 1328.47,-98.7427 1329.09,-89.7276"/>
<polygon fill="midnightblue" stroke="midnightblue" points="1332.6,-89.7878 1329.79,-79.5707 1325.62,-89.3061 1332.6,-89.7878"/>
</g>
<!-- Node15&#45;&gt;Node2 -->
<g id="edge38" class="edge"><title>Node15&#45;&gt;Node2</title>
<path fill="none" stroke="midnightblue" d="M1308.93,-65.2836C1254.45,-55.9064 1110.54,-31.1388 1037.45,-18.5605"/>
<polygon fill="midnightblue" stroke="midnightblue" points="1037.65,-15.0433 1027.2,-16.7964 1036.46,-21.9419 1037.65,-15.0433"/>
</g>
<!-- Node15&#45;&gt;Node13 -->
<g id="edge40" class="edge"><title>Node15&#45;&gt;Node13</title>
<path fill="none" stroke="midnightblue" d="M1311.82,-58.3619C1296.14,-49.4502 1273.56,-36.6087 1255.86,-26.5447"/>
<polygon fill="midnightblue" stroke="midnightblue" points="1257.54,-23.4712 1247.11,-21.5707 1254.08,-29.5562 1257.54,-23.4712"/>
</g>
<!-- Node16&#45;&gt;Node2 -->
<g id="edge46" class="edge"><title>Node16&#45;&gt;Node2</title>
<path fill="none" stroke="midnightblue" d="M408.354,-60.5611C412.756,-59.5872 417.237,-58.6956 421.524,-58 616.812,-26.3115 853.265,-15.505 949.546,-12.2508"/>
<polygon fill="midnightblue" stroke="midnightblue" points="949.894,-15.7414 959.774,-11.916 949.665,-8.74514 949.894,-15.7414"/>
</g>
<!-- Node16&#45;&gt;Node13 -->
<g id="edge54" class="edge"><title>Node16&#45;&gt;Node13</title>
<path fill="none" stroke="midnightblue" d="M408.36,-63.9932C422.737,-61.8805 439.954,-59.555 455.524,-58 493.051,-54.2522 1058.75,-20.9606 1197.82,-12.7999"/>
<polygon fill="midnightblue" stroke="midnightblue" points="1198.03,-16.2939 1207.8,-12.2142 1197.62,-9.30593 1198.03,-16.2939"/>
</g>
<!-- Node17 -->
<g id="node41" class="node"><title>Node17</title>
<polygon fill="white" stroke="#bfbfbf" points="265.024,-0.5 265.024,-21.5 308.024,-21.5 308.024,-0.5 265.024,-0.5"/>
<text text-anchor="middle" x="286.524" y="-8.5" font-family="Helvetica,sans-Serif" font-size="10.00">string</text>
</g>
<!-- Node16&#45;&gt;Node17 -->
<g id="edge48" class="edge"><title>Node16&#45;&gt;Node17</title>
<path fill="none" stroke="midnightblue" d="M360.016,-58.3619C346.442,-49.6138 326.991,-37.0786 311.509,-27.1015"/>
<polygon fill="midnightblue" stroke="midnightblue" points="313.228,-24.0457 302.927,-21.5707 309.436,-29.9297 313.228,-24.0457"/>
</g>
<!-- Node18 -->
<g id="node43" class="node"><title>Node18</title>
<polygon fill="white" stroke="#bfbfbf" points="325.524,-0.5 325.524,-21.5 371.524,-21.5 371.524,-0.5 325.524,-0.5"/>
<text text-anchor="middle" x="348.524" y="-8.5" font-family="Helvetica,sans-Serif" font-size="10.00">vector</text>
</g>
<!-- Node16&#45;&gt;Node18 -->
<g id="edge50" class="edge"><title>Node16&#45;&gt;Node18</title>
<path fill="none" stroke="midnightblue" d="M371.388,-58.3619C367.678,-50.6766 362.557,-40.0686 358.102,-30.8399"/>
<polygon fill="midnightblue" stroke="midnightblue" points="361.126,-29.0545 353.627,-21.5707 354.823,-32.0978 361.126,-29.0545"/>
</g>
<!-- Node19 -->
<g id="node45" class="node"><title>Node19</title>
<polygon fill="white" stroke="#bfbfbf" points="389.024,-0.5 389.024,-21.5 420.024,-21.5 420.024,-0.5 389.024,-0.5"/>
<text text-anchor="middle" x="404.524" y="-8.5" font-family="Helvetica,sans-Serif" font-size="10.00">set</text>
</g>
<!-- Node16&#45;&gt;Node19 -->
<g id="edge52" class="edge"><title>Node16&#45;&gt;Node19</title>
<path fill="none" stroke="midnightblue" d="M381.659,-58.3619C385.37,-50.6766 390.491,-40.0686 394.946,-30.8399"/>
<polygon fill="midnightblue" stroke="midnightblue" points="398.225,-32.0978 399.421,-21.5707 391.921,-29.0545 398.225,-32.0978"/>
</g>
<!-- Node20 -->
<g id="node48" class="node"><title>Node20</title>
<polygon fill="white" stroke="#bfbfbf" points="437.524,-0.5 437.524,-21.5 495.524,-21.5 495.524,-0.5 437.524,-0.5"/>
<text text-anchor="middle" x="466.524" y="-8.5" font-family="Helvetica,sans-Serif" font-size="10.00">QtGlobal</text>
</g>
<!-- Node16&#45;&gt;Node20 -->
<g id="edge56" class="edge"><title>Node16&#45;&gt;Node20</title>
<path fill="none" stroke="midnightblue" d="M393.031,-58.3619C406.606,-49.6138 426.057,-37.0786 441.539,-27.1015"/>
<polygon fill="midnightblue" stroke="midnightblue" points="443.611,-29.9297 450.121,-21.5707 439.819,-24.0457 443.611,-29.9297"/>
</g>
<!-- Node21&#45;&gt;Node2 -->
<g id="edge60" class="edge"><title>Node21&#45;&gt;Node2</title>
<path fill="none" stroke="midnightblue" d="M511.808,-116.586C555.699,-97.792 644.374,-59.9589 651.524,-58 756.321,-29.2885 884.214,-17.6712 949.928,-13.3361"/>
<polygon fill="midnightblue" stroke="midnightblue" points="950.17,-16.8279 959.928,-12.7013 949.727,-9.84193 950.17,-16.8279"/>
</g>
<!-- Node21&#45;&gt;Node9 -->
<g id="edge66" class="edge"><title>Node21&#45;&gt;Node9</title>
<path fill="none" stroke="midnightblue" d="M511.55,-118.522C514.552,-117.602 517.595,-116.735 520.524,-116 605.05,-94.7933 706.648,-80.1203 759.186,-73.3141"/>
<polygon fill="midnightblue" stroke="midnightblue" points="759.848,-76.7581 769.324,-72.0199 758.962,-69.8144 759.848,-76.7581"/>
</g>
<!-- Node22 -->
<g id="node53" class="node"><title>Node22</title>
<polygon fill="white" stroke="#bfbfbf" points="526.024,-58.5 526.024,-79.5 589.024,-79.5 589.024,-58.5 526.024,-58.5"/>
<text text-anchor="middle" x="557.524" y="-66.5" font-family="Helvetica,sans-Serif" font-size="10.00">sys/time.h</text>
</g>
<!-- Node21&#45;&gt;Node22 -->
<g id="edge62" class="edge"><title>Node21&#45;&gt;Node22</title>
<path fill="none" stroke="midnightblue" d="M500.363,-116.362C510.526,-107.941 524.925,-96.0105 536.728,-86.2308"/>
<polygon fill="midnightblue" stroke="midnightblue" points="539.299,-88.6459 544.766,-79.5707 534.833,-83.2558 539.299,-88.6459"/>
</g>
<!-- Node23 -->
<g id="node55" class="node"><title>Node23</title>
<polygon fill="white" stroke="#bfbfbf" points="464.524,-58.5 464.524,-79.5 508.524,-79.5 508.524,-58.5 464.524,-58.5"/>
<text text-anchor="middle" x="486.524" y="-66.5" font-family="Helvetica,sans-Serif" font-size="10.00">time.h</text>
</g>
<!-- Node21&#45;&gt;Node23 -->
<g id="edge64" class="edge"><title>Node21&#45;&gt;Node23</title>
<path fill="none" stroke="midnightblue" d="M487.34,-116.362C487.212,-108.922 487.037,-98.7427 486.881,-89.7276"/>
<polygon fill="midnightblue" stroke="midnightblue" points="490.378,-89.5088 486.706,-79.5707 483.379,-89.6295 490.378,-89.5088"/>
</g>
<!-- Node24&#45;&gt;Node2 -->
<g id="edge70" class="edge"><title>Node24&#45;&gt;Node2</title>
<path fill="none" stroke="midnightblue" d="M962.79,-240.859C877.427,-235.38 667.183,-219.601 646.524,-196 586.384,-127.296 590.235,-217.152 777.524,-138 851.716,-106.645 931.58,-54.2103 970.1,-27.5909"/>
<polygon fill="midnightblue" stroke="midnightblue" points="972.337,-30.2979 978.543,-21.7106 968.336,-24.5538 972.337,-30.2979"/>
</g>
<!-- Node24&#45;&gt;Node14 -->
<g id="edge122" class="edge"><title>Node24&#45;&gt;Node14</title>
<path fill="none" stroke="midnightblue" d="M1034.07,-242.149C1138.91,-239.276 1441.33,-228.24 1470.52,-196 1477.09,-188.752 1476.27,-181.914 1470.52,-174 1457.78,-156.441 1401.65,-141.993 1363.35,-133.939"/>
<polygon fill="midnightblue" stroke="midnightblue" points="1363.57,-130.412 1353.07,-131.84 1362.17,-137.27 1363.57,-130.412"/>
</g>
<!-- Node25 -->
<g id="node61" class="node"><title>Node25</title>
<polygon fill="white" stroke="#bfbfbf" points="915.024,-174.5 915.024,-195.5 992.024,-195.5 992.024,-174.5 915.024,-174.5"/>
<text text-anchor="middle" x="953.524" y="-182.5" font-family="Helvetica,sans-Serif" font-size="10.00">PGContext.h</text>
</g>
<!-- Node24&#45;&gt;Node25 -->
<g id="edge72" class="edge"><title>Node24&#45;&gt;Node25</title>
<path fill="none" stroke="midnightblue" d="M990.27,-232.362C984.054,-224.35 975.373,-213.161 968.009,-203.67"/>
<polygon fill="midnightblue" stroke="midnightblue" points="970.621,-201.326 961.725,-195.571 965.09,-205.617 970.621,-201.326"/>
</g>
<!-- Node26 -->
<g id="node63" class="node"><title>Node26</title>
<polygon fill="white" stroke="#bfbfbf" points="1009.52,-174.5 1009.52,-195.5 1077.52,-195.5 1077.52,-174.5 1009.52,-174.5"/>
<text text-anchor="middle" x="1043.52" y="-182.5" font-family="Helvetica,sans-Serif" font-size="10.00">PContext.h</text>
</g>
<!-- Node24&#45;&gt;Node26 -->
<g id="edge74" class="edge"><title>Node24&#45;&gt;Node26</title>
<path fill="none" stroke="midnightblue" d="M1006.78,-232.362C1012.99,-224.35 1021.68,-213.161 1029.04,-203.67"/>
<polygon fill="midnightblue" stroke="midnightblue" points="1031.96,-205.617 1035.32,-195.571 1026.43,-201.326 1031.96,-205.617"/>
</g>
<!-- Node27 -->
<g id="node65" class="node"><title>Node27</title>
<polygon fill="white" stroke="#bfbfbf" points="1195.52,-174.5 1195.52,-195.5 1261.52,-195.5 1261.52,-174.5 1195.52,-174.5"/>
<text text-anchor="middle" x="1228.52" y="-182.5" font-family="Helvetica,sans-Serif" font-size="10.00">PPixmap.h</text>
</g>
<!-- Node24&#45;&gt;Node27 -->
<g id="edge76" class="edge"><title>Node24&#45;&gt;Node27</title>
<path fill="none" stroke="midnightblue" d="M1034.24,-234.196C1070.09,-225.333 1127.14,-211.151 1185.72,-196.187"/>
<polygon fill="midnightblue" stroke="midnightblue" points="1186.7,-199.551 1195.52,-193.682 1184.96,-192.769 1186.7,-199.551"/>
</g>
<!-- Node28 -->
<g id="node67" class="node"><title>Node28</title>
<a xlink:href="TaskBase_8h.htm" target="_top" xlink:title="TaskBase.h">
<polygon fill="white" stroke="black" points="1389.52,-174.5 1389.52,-195.5 1461.52,-195.5 1461.52,-174.5 1389.52,-174.5"/>
<text text-anchor="middle" x="1425.52" y="-182.5" font-family="Helvetica,sans-Serif" font-size="10.00">TaskBase.h</text>
</a>
</g>
<!-- Node24&#45;&gt;Node28 -->
<g id="edge78" class="edge"><title>Node24&#45;&gt;Node28</title>
<path fill="none" stroke="midnightblue" d="M1034.28,-240.012C1100.5,-234.175 1246.79,-219.857 1379.33,-196.058"/>
<polygon fill="midnightblue" stroke="midnightblue" points="1380.04,-199.486 1389.25,-194.253 1378.79,-192.599 1380.04,-199.486"/>
</g>
<!-- Node37 -->
<g id="node99" class="node"><title>Node37</title>
<a xlink:href="CustomEvents_8h.htm" target="_top" xlink:title="CustomEvents.h">
<polygon fill="white" stroke="black" points="1279.52,-174.5 1279.52,-195.5 1371.52,-195.5 1371.52,-174.5 1279.52,-174.5"/>
<text text-anchor="middle" x="1325.52" y="-182.5" font-family="Helvetica,sans-Serif" font-size="10.00">CustomEvents.h</text>
</a>
</g>
<!-- Node24&#45;&gt;Node37 -->
<g id="edge124" class="edge"><title>Node24&#45;&gt;Node37</title>
<path fill="none" stroke="midnightblue" d="M1034.22,-237.139C1084.43,-228.829 1179.01,-212.928 1269.46,-196.166"/>
<polygon fill="midnightblue" stroke="midnightblue" points="1270.14,-199.6 1279.33,-194.331 1268.86,-192.718 1270.14,-199.6"/>
</g>
<!-- Node39 -->
<g id="node104" class="node"><title>Node39</title>
<a xlink:href="InputControl_8h.htm" target="_top" xlink:title="InputControl.h">
<polygon fill="white" stroke="black" points="1095.02,-174.5 1095.02,-195.5 1178.02,-195.5 1178.02,-174.5 1095.02,-174.5"/>
<text text-anchor="middle" x="1136.52" y="-182.5" font-family="Helvetica,sans-Serif" font-size="10.00">InputControl.h</text>
</a>
</g>
<!-- Node24&#45;&gt;Node39 -->
<g id="edge130" class="edge"><title>Node24&#45;&gt;Node39</title>
<path fill="none" stroke="midnightblue" d="M1023.51,-232.497C1045.46,-223.275 1077.59,-209.769 1101.99,-199.515"/>
<polygon fill="midnightblue" stroke="midnightblue" points="1103.39,-202.722 1111.25,-195.621 1100.68,-196.269 1103.39,-202.722"/>
</g>
<!-- Node41 -->
<g id="node108" class="node"><title>Node41</title>
<polygon fill="white" stroke="#bfbfbf" points="655.024,-174.5 655.024,-195.5 780.024,-195.5 780.024,-174.5 655.024,-174.5"/>
<text text-anchor="middle" x="717.524" y="-182.5" font-family="Helvetica,sans-Serif" font-size="10.00">webosDeviceKeymap.h</text>
</g>
<!-- Node24&#45;&gt;Node41 -->
<g id="edge134" class="edge"><title>Node24&#45;&gt;Node41</title>
<path fill="none" stroke="midnightblue" d="M962.935,-235.654C916.542,-226.079 834.694,-209.185 778.363,-197.557"/>
<polygon fill="midnightblue" stroke="midnightblue" points="779.006,-194.117 768.505,-195.523 777.591,-200.972 779.006,-194.117"/>
</g>
<!-- Node42 -->
<g id="node110" class="node"><title>Node42</title>
<polygon fill="white" stroke="#bfbfbf" points="797.024,-174.5 797.024,-195.5 826.024,-195.5 826.024,-174.5 797.024,-174.5"/>
<text text-anchor="middle" x="811.524" y="-182.5" font-family="Helvetica,sans-Serif" font-size="10.00">Qt</text>
</g>
<!-- Node24&#45;&gt;Node42 -->
<g id="edge136" class="edge"><title>Node24&#45;&gt;Node42</title>
<path fill="none" stroke="midnightblue" d="M962.776,-234.59C931.274,-226.778 884.086,-214.101 836.07,-196.229"/>
<polygon fill="midnightblue" stroke="midnightblue" points="837.052,-192.858 826.461,-192.586 834.57,-199.404 837.052,-192.858"/>
</g>
<!-- Node43 -->
<g id="node112" class="node"><title>Node43</title>
<polygon fill="white" stroke="#bfbfbf" points="843.524,-174.5 843.524,-195.5 897.524,-195.5 897.524,-174.5 843.524,-174.5"/>
<text text-anchor="middle" x="870.524" y="-182.5" font-family="Helvetica,sans-Serif" font-size="10.00">QImage</text>
</g>
<!-- Node24&#45;&gt;Node43 -->
<g id="edge138" class="edge"><title>Node24&#45;&gt;Node43</title>
<path fill="none" stroke="midnightblue" d="M975.344,-232.497C955.172,-223.356 925.714,-210.008 903.16,-199.788"/>
<polygon fill="midnightblue" stroke="midnightblue" points="904.517,-196.561 893.964,-195.621 901.628,-202.937 904.517,-196.561"/>
</g>
<!-- Node28&#45;&gt;Node2 -->
<g id="edge80" class="edge"><title>Node28&#45;&gt;Node2</title>
<path fill="none" stroke="midnightblue" d="M1389.26,-175.703C1386.31,-175.08 1383.38,-174.502 1380.52,-174 1307.87,-161.214 1110.18,-181.388 1050.52,-138 1032.35,-124.782 1010.5,-63.7435 999.905,-31.3408"/>
<polygon fill="midnightblue" stroke="midnightblue" points="1003.15,-30.0121 996.766,-21.5603 996.49,-32.1515 1003.15,-30.0121"/>
</g>
<!-- Node28&#45;&gt;Node13 -->
<g id="edge82" class="edge"><title>Node28&#45;&gt;Node13</title>
<path fill="none" stroke="midnightblue" d="M1461.83,-183.429C1564.48,-177.789 1843.88,-153.476 1756.52,-58 1722.85,-21.1985 1367.52,-13.0212 1259.5,-11.3798"/>
<polygon fill="midnightblue" stroke="midnightblue" points="1259.32,-7.87697 1249.27,-11.233 1259.22,-14.8762 1259.32,-7.87697"/>
</g>
<!-- Node28&#45;&gt;Node14 -->
<g id="edge112" class="edge"><title>Node28&#45;&gt;Node14</title>
<path fill="none" stroke="midnightblue" d="M1407.37,-174.362C1392.29,-165.532 1370.64,-152.844 1353.53,-142.822"/>
<polygon fill="midnightblue" stroke="midnightblue" points="1354.96,-139.606 1344.57,-137.571 1351.43,-145.646 1354.96,-139.606"/>
</g>
<!-- Node28&#45;&gt;Node15 -->
<g id="edge86" class="edge"><title>Node28&#45;&gt;Node15</title>
<path fill="none" stroke="midnightblue" d="M1416.76,-174.295C1400.57,-154.527 1365.81,-112.08 1345.71,-87.5443"/>
<polygon fill="midnightblue" stroke="midnightblue" points="1348.31,-85.1982 1339.27,-79.6792 1342.9,-89.6334 1348.31,-85.1982"/>
</g>
<!-- Node29 -->
<g id="node71" class="node"><title>Node29</title>
<polygon fill="white" stroke="#bfbfbf" points="1216.02,-116.5 1216.02,-137.5 1245.02,-137.5 1245.02,-116.5 1216.02,-116.5"/>
<text text-anchor="middle" x="1230.52" y="-124.5" font-family="Helvetica,sans-Serif" font-size="10.00">list</text>
</g>
<!-- Node28&#45;&gt;Node29 -->
<g id="edge84" class="edge"><title>Node28&#45;&gt;Node29</title>
<path fill="none" stroke="midnightblue" d="M1389.37,-175.942C1355.33,-167.151 1303.06,-152.974 1258.52,-138 1257.3,-137.588 1256.05,-137.153 1254.79,-136.703"/>
<polygon fill="midnightblue" stroke="midnightblue" points="1255.84,-133.357 1245.24,-133.102 1253.37,-139.906 1255.84,-133.357"/>
</g>
<!-- Node30 -->
<g id="node74" class="node"><title>Node30</title>
<a xlink:href="AsyncCaller_8h.htm" target="_top" xlink:title="AsyncCaller.h">
<polygon fill="white" stroke="black" points="1135.02,-58.5 1135.02,-79.5 1216.02,-79.5 1216.02,-58.5 1135.02,-58.5"/>
<text text-anchor="middle" x="1175.52" y="-66.5" font-family="Helvetica,sans-Serif" font-size="10.00">AsyncCaller.h</text>
</a>
</g>
<!-- Node28&#45;&gt;Node30 -->
<g id="edge88" class="edge"><title>Node28&#45;&gt;Node30</title>
<path fill="none" stroke="midnightblue" d="M1389.49,-174.51C1362.07,-166.017 1323.69,-153.024 1291.52,-138 1286.89,-135.836 1234.63,-104.532 1201.85,-84.8404"/>
<polygon fill="midnightblue" stroke="midnightblue" points="1203.55,-81.7803 1193.18,-79.6281 1199.95,-87.7798 1203.55,-81.7803"/>
</g>
<!-- Node31 -->
<g id="node78" class="node"><title>Node31</title>
<a xlink:href="Event_8h.htm" target="_top" xlink:title="Event.h">
<polygon fill="white" stroke="black" points="1408.52,-116.5 1408.52,-137.5 1460.52,-137.5 1460.52,-116.5 1408.52,-116.5"/>
<text text-anchor="middle" x="1434.52" y="-124.5" font-family="Helvetica,sans-Serif" font-size="10.00">Event.h</text>
</a>
</g>
<!-- Node28&#45;&gt;Node31 -->
<g id="edge94" class="edge"><title>Node28&#45;&gt;Node31</title>
<path fill="none" stroke="midnightblue" d="M1427.17,-174.362C1428.33,-166.922 1429.91,-156.743 1431.31,-147.728"/>
<polygon fill="midnightblue" stroke="midnightblue" points="1434.81,-147.989 1432.88,-137.571 1427.89,-146.916 1434.81,-147.989"/>
</g>
<!-- Node36 -->
<g id="node93" class="node"><title>Node36</title>
<a xlink:href="SingletonTimer_8h.htm" target="_top" xlink:title="SingletonTimer.h">
<polygon fill="white" stroke="black" points="1059.52,-116.5 1059.52,-137.5 1155.52,-137.5 1155.52,-116.5 1059.52,-116.5"/>
<text text-anchor="middle" x="1107.52" y="-124.5" font-family="Helvetica,sans-Serif" font-size="10.00">SingletonTimer.h</text>
</a>
</g>
<!-- Node28&#45;&gt;Node36 -->
<g id="edge114" class="edge"><title>Node28&#45;&gt;Node36</title>
<path fill="none" stroke="midnightblue" d="M1389.22,-175.898C1386.29,-175.231 1383.36,-174.59 1380.52,-174 1306.72,-158.646 1220.95,-144.474 1165.53,-135.793"/>
<polygon fill="midnightblue" stroke="midnightblue" points="1165.97,-132.319 1155.55,-134.237 1164.89,-139.235 1165.97,-132.319"/>
</g>
<!-- Node30&#45;&gt;Node2 -->
<g id="edge90" class="edge"><title>Node30&#45;&gt;Node2</title>
<path fill="none" stroke="midnightblue" d="M1142.57,-58.4966C1112.77,-49.0001 1068.71,-34.9619 1036.23,-24.6087"/>
<polygon fill="midnightblue" stroke="midnightblue" points="1037.14,-21.2247 1026.54,-21.5231 1035.01,-27.8942 1037.14,-21.2247"/>
</g>
<!-- Node30&#45;&gt;Node13 -->
<g id="edge92" class="edge"><title>Node30&#45;&gt;Node13</title>
<path fill="none" stroke="midnightblue" d="M1185.24,-58.3619C1192.72,-50.1861 1203.21,-38.7025 1211.99,-29.0907"/>
<polygon fill="midnightblue" stroke="midnightblue" points="1214.7,-31.3138 1218.86,-21.5707 1209.53,-26.5918 1214.7,-31.3138"/>
</g>
<!-- Node31&#45;&gt;Node2 -->
<g id="edge96" class="edge"><title>Node31&#45;&gt;Node2</title>
<path fill="none" stroke="midnightblue" d="M1426.8,-116.442C1414.66,-100.729 1389.46,-71.5855 1360.52,-58 1304.01,-31.4683 1121.71,-18.1296 1037.24,-13.2461"/>
<polygon fill="midnightblue" stroke="midnightblue" points="1037.38,-9.7485 1027.2,-12.6789 1036.98,-16.7374 1037.38,-9.7485"/>
</g>
<!-- Node31&#45;&gt;Node9 -->
<g id="edge98" class="edge"><title>Node31&#45;&gt;Node9</title>
<path fill="none" stroke="midnightblue" d="M1408.23,-122.603C1394.36,-120.395 1377.05,-117.812 1361.52,-116 1160.95,-92.6016 919.125,-76.6006 829.851,-71.1042"/>
<polygon fill="midnightblue" stroke="midnightblue" points="829.928,-67.6025 819.733,-70.4862 829.501,-74.5895 829.928,-67.6025"/>
</g>
<!-- Node31&#45;&gt;Node13 -->
<g id="edge100" class="edge"><title>Node31&#45;&gt;Node13</title>
<path fill="none" stroke="midnightblue" d="M1460.59,-124.921C1531.23,-119.024 1722.3,-101.236 1740.52,-80 1746.89,-72.5798 1747.11,-65.223 1740.52,-58 1707.99,-22.3395 1364.85,-13.386 1259.27,-11.4672"/>
<polygon fill="midnightblue" stroke="midnightblue" points="1259.31,-7.96756 1249.25,-11.2936 1259.19,-14.9665 1259.31,-7.96756"/>
</g>
<!-- Node31&#45;&gt;Node15 -->
<g id="edge110" class="edge"><title>Node31&#45;&gt;Node15</title>
<path fill="none" stroke="midnightblue" d="M1415.45,-116.362C1399.47,-107.45 1376.44,-94.6087 1358.4,-84.5447"/>
<polygon fill="midnightblue" stroke="midnightblue" points="1359.92,-81.3846 1349.48,-79.5707 1356.51,-87.4982 1359.92,-81.3846"/>
</g>
<!-- Node32 -->
<g id="node83" class="node"><title>Node32</title>
<polygon fill="white" stroke="#bfbfbf" points="1407.02,-58.5 1407.02,-79.5 1454.02,-79.5 1454.02,-58.5 1407.02,-58.5"/>
<text text-anchor="middle" x="1430.52" y="-66.5" font-family="Helvetica,sans-Serif" font-size="10.00">stdio.h</text>
</g>
<!-- Node31&#45;&gt;Node32 -->
<g id="edge102" class="edge"><title>Node31&#45;&gt;Node32</title>
<path fill="none" stroke="midnightblue" d="M1433.79,-116.362C1433.28,-108.922 1432.58,-98.7427 1431.95,-89.7276"/>
<polygon fill="midnightblue" stroke="midnightblue" points="1435.43,-89.3061 1431.25,-79.5707 1428.45,-89.7878 1435.43,-89.3061"/>
</g>
<!-- Node33 -->
<g id="node85" class="node"><title>Node33</title>
<polygon fill="white" stroke="#bfbfbf" points="1471.02,-58.5 1471.02,-79.5 1522.02,-79.5 1522.02,-58.5 1471.02,-58.5"/>
<text text-anchor="middle" x="1496.52" y="-66.5" font-family="Helvetica,sans-Serif" font-size="10.00">string.h</text>
</g>
<!-- Node31&#45;&gt;Node33 -->
<g id="edge104" class="edge"><title>Node31&#45;&gt;Node33</title>
<path fill="none" stroke="midnightblue" d="M1445.9,-116.362C1454.81,-108.023 1467.4,-96.2418 1477.8,-86.5162"/>
<polygon fill="midnightblue" stroke="midnightblue" points="1480.31,-88.9582 1485.22,-79.5707 1475.53,-83.8463 1480.31,-88.9582"/>
</g>
<!-- Node34 -->
<g id="node87" class="node"><title>Node34</title>
<polygon fill="white" stroke="#bfbfbf" points="1539.52,-58.5 1539.52,-79.5 1625.52,-79.5 1625.52,-58.5 1539.52,-58.5"/>
<text text-anchor="middle" x="1582.52" y="-66.5" font-family="Helvetica,sans-Serif" font-size="10.00">qnamespace.h</text>
</g>
<!-- Node31&#45;&gt;Node34 -->
<g id="edge106" class="edge"><title>Node31&#45;&gt;Node34</title>
<path fill="none" stroke="midnightblue" d="M1460.64,-116.764C1484.44,-107.438 1519.82,-93.574 1546.34,-83.1817"/>
<polygon fill="midnightblue" stroke="midnightblue" points="1547.63,-86.4324 1555.67,-79.5249 1545.08,-79.915 1547.63,-86.4324"/>
</g>
<!-- Node35 -->
<g id="node89" class="node"><title>Node35</title>
<polygon fill="white" stroke="#bfbfbf" points="1643.52,-58.5 1643.52,-79.5 1731.52,-79.5 1731.52,-58.5 1643.52,-58.5"/>
<text text-anchor="middle" x="1687.52" y="-66.5" font-family="Helvetica,sans-Serif" font-size="10.00">SysMgrEvent.h</text>
</g>
<!-- Node31&#45;&gt;Node35 -->
<g id="edge108" class="edge"><title>Node31&#45;&gt;Node35</title>
<path fill="none" stroke="midnightblue" d="M1460.65,-121.011C1501.21,-111.712 1580.21,-93.6025 1633.43,-81.4018"/>
<polygon fill="midnightblue" stroke="midnightblue" points="1634.41,-84.7665 1643.38,-79.1204 1632.85,-77.9435 1634.41,-84.7665"/>
</g>
<!-- Node36&#45;&gt;Node2 -->
<g id="edge116" class="edge"><title>Node36&#45;&gt;Node2</title>
<path fill="none" stroke="midnightblue" d="M1098.61,-116.405C1086.84,-102.589 1065.31,-77.8436 1045.52,-58 1035.45,-47.9016 1023.71,-37.1999 1013.93,-28.5632"/>
<polygon fill="midnightblue" stroke="midnightblue" points="1016.09,-25.8024 1006.26,-21.8527 1011.48,-31.0711 1016.09,-25.8024"/>
</g>
<!-- Node36&#45;&gt;Node9 -->
<g id="edge120" class="edge"><title>Node36&#45;&gt;Node9</title>
<path fill="none" stroke="midnightblue" d="M1059.3,-118.065C995.86,-106.308 885.849,-85.9229 829.698,-75.5179"/>
<polygon fill="midnightblue" stroke="midnightblue" points="830.334,-72.0762 819.864,-73.6955 829.058,-78.959 830.334,-72.0762"/>
</g>
<!-- Node36&#45;&gt;Node13 -->
<g id="edge118" class="edge"><title>Node36&#45;&gt;Node13</title>
<path fill="none" stroke="midnightblue" d="M1107.75,-116.382C1108.62,-101.633 1112.21,-74.8606 1126.52,-58 1144.8,-36.4736 1175.04,-24.2613 1197.86,-17.714"/>
<polygon fill="midnightblue" stroke="midnightblue" points="1198.98,-21.0371 1207.75,-15.0913 1197.19,-14.2708 1198.98,-21.0371"/>
</g>
<!-- Node37&#45;&gt;Node2 -->
<g id="edge126" class="edge"><title>Node37&#45;&gt;Node2</title>
<path fill="none" stroke="midnightblue" d="M1279.35,-175.569C1276.36,-175.02 1273.4,-174.492 1270.52,-174 1214.55,-164.428 1058.58,-177.233 1017.52,-138 988.737,-110.492 988.326,-60.1009 990.785,-31.7655"/>
<polygon fill="midnightblue" stroke="midnightblue" points="994.272,-32.0681 991.856,-21.7525 987.312,-31.3235 994.272,-32.0681"/>
</g>
<!-- Node38 -->
<g id="node102" class="node"><title>Node38</title>
<polygon fill="white" stroke="#bfbfbf" points="913.524,-116.5 913.524,-137.5 965.524,-137.5 965.524,-116.5 913.524,-116.5"/>
<text text-anchor="middle" x="939.524" y="-124.5" font-family="Helvetica,sans-Serif" font-size="10.00">QEvent</text>
</g>
<!-- Node37&#45;&gt;Node38 -->
<g id="edge128" class="edge"><title>Node37&#45;&gt;Node38</title>
<path fill="none" stroke="midnightblue" d="M1279.36,-175.508C1276.37,-174.974 1273.41,-174.466 1270.52,-174 1141.87,-153.207 1107.35,-163.344 979.524,-138 978.252,-137.748 976.962,-137.477 975.661,-137.191"/>
<polygon fill="midnightblue" stroke="midnightblue" points="976.186,-133.717 965.644,-134.769 974.541,-140.521 976.186,-133.717"/>
</g>
<!-- Node40 -->
<g id="node106" class="node"><title>Node40</title>
<polygon fill="white" stroke="#bfbfbf" points="839.524,-116.5 839.524,-137.5 895.524,-137.5 895.524,-116.5 839.524,-116.5"/>
<text text-anchor="middle" x="867.524" y="-124.5" font-family="Helvetica,sans-Serif" font-size="10.00">hal/hal.h</text>
</g>
<!-- Node39&#45;&gt;Node40 -->
<g id="edge132" class="edge"><title>Node39&#45;&gt;Node40</title>
<path fill="none" stroke="midnightblue" d="M1094.8,-175.75C1092,-175.152 1089.22,-174.563 1086.52,-174 1008.96,-157.799 986.324,-157.748 905.84,-138.169"/>
<polygon fill="midnightblue" stroke="midnightblue" points="906.278,-134.672 895.731,-135.682 904.605,-141.47 906.278,-134.672"/>
</g>
</g>
</svg>
