<?xml version="1.0" encoding="UTF-8" standalone="no"?>
<!DOCTYPE svg PUBLIC "-//W3C//DTD SVG 1.1//EN"
 "http://www.w3.org/Graphics/SVG/1.1/DTD/svg11.dtd">
<!-- Generated by graphviz version 2.26.3 (20100126.1600)
 -->
<!-- Title: G Pages: 1 -->
<svg width="989pt" height="262pt"
 viewBox="0.00 0.00 989.00 262.00" xmlns="http://www.w3.org/2000/svg" xmlns:xlink="http://www.w3.org/1999/xlink">
<g id="graph1" class="graph" transform="scale(1 1) rotate(0) translate(4 258)">
<title>G</title>
<polygon fill="white" stroke="white" points="-4,5 -4,-258 986,-258 986,5 -4,5"/>
<!-- Node1 -->
<g id="node1" class="node"><title>Node1</title>
<polygon fill="#bfbfbf" stroke="black" points="220,-232.5 220,-253.5 320,-253.5 320,-232.5 220,-232.5"/>
<text text-anchor="middle" x="270" y="-240.5" font-family="Helvetica,sans-Serif" font-size="10.00">MenuWindow.cpp</text>
</g>
<!-- Node2 -->
<g id="node3" class="node"><title>Node2</title>
<a xlink:href="Common_8h.htm" target="_top" xlink:title="Common.h">
<polygon fill="white" stroke="black" points="320.5,-0.5 320.5,-21.5 387.5,-21.5 387.5,-0.5 320.5,-0.5"/>
<text text-anchor="middle" x="354" y="-8.5" font-family="Helvetica,sans-Serif" font-size="10.00">Common.h</text>
</a>
</g>
<!-- Node1&#45;&gt;Node2 -->
<g id="edge2" class="edge"><title>Node1&#45;&gt;Node2</title>
<path fill="none" stroke="midnightblue" d="M261.9,-232.308C240.069,-202.096 184.264,-114.619 224,-58 234.276,-43.3574 276.669,-29.8302 310.288,-21.0849"/>
<polygon fill="midnightblue" stroke="midnightblue" points="311.559,-24.3739 320.395,-18.5284 309.842,-17.5876 311.559,-24.3739"/>
</g>
<!-- Node3 -->
<g id="node5" class="node"><title>Node3</title>
<a xlink:href="MenuWindow_8h.htm" target="_top" xlink:title="MenuWindow.h">
<polygon fill="white" stroke="black" points="328.5,-174.5 328.5,-195.5 417.5,-195.5 417.5,-174.5 328.5,-174.5"/>
<text text-anchor="middle" x="373" y="-182.5" font-family="Helvetica,sans-Serif" font-size="10.00">MenuWindow.h</text>
</a>
</g>
<!-- Node1&#45;&gt;Node3 -->
<g id="edge4" class="edge"><title>Node1&#45;&gt;Node3</title>
<path fill="none" stroke="midnightblue" d="M288.892,-232.362C304.718,-223.45 327.523,-210.609 345.395,-200.545"/>
<polygon fill="midnightblue" stroke="midnightblue" points="347.232,-203.527 354.228,-195.571 343.797,-197.428 347.232,-203.527"/>
</g>
<!-- Node13 -->
<g id="node31" class="node"><title>Node13</title>
<polygon fill="white" stroke="#bfbfbf" points="0,-0.5 0,-21.5 86,-21.5 86,-0.5 0,-0.5"/>
<text text-anchor="middle" x="43" y="-8.5" font-family="Helvetica,sans-Serif" font-size="10.00">PIpcChannel.h</text>
</g>
<!-- Node1&#45;&gt;Node13 -->
<g id="edge50" class="edge"><title>Node1&#45;&gt;Node13</title>
<path fill="none" stroke="midnightblue" d="M248.644,-232.33C206.313,-210.063 111.58,-154.467 62,-80 52.3424,-65.4948 47.564,-46.1733 45.2173,-31.6662"/>
<polygon fill="midnightblue" stroke="midnightblue" points="48.6735,-31.1069 43.8562,-21.6706 41.7375,-32.0515 48.6735,-31.1069"/>
</g>
<!-- Node16 -->
<g id="node38" class="node"><title>Node16</title>
<polygon fill="white" stroke="#bfbfbf" points="233,-58.5 233,-79.5 307,-79.5 307,-58.5 233,-58.5"/>
<text text-anchor="middle" x="270" y="-66.5" font-family="Helvetica,sans-Serif" font-size="10.00">PIpcBuffer.h</text>
</g>
<!-- Node1&#45;&gt;Node16 -->
<g id="edge48" class="edge"><title>Node1&#45;&gt;Node16</title>
<path fill="none" stroke="midnightblue" d="M270,-232.377C270,-204.293 270,-127.673 270,-90.2027"/>
<polygon fill="midnightblue" stroke="midnightblue" points="273.5,-89.9277 270,-79.9277 266.5,-89.9278 273.5,-89.9277"/>
</g>
<!-- Node18 -->
<g id="node44" class="node"><title>Node18</title>
<a xlink:href="IpcClientHost_8h.htm" target="_top" xlink:title="IpcClientHost.h">
<polygon fill="white" stroke="black" points="698,-116.5 698,-137.5 786,-137.5 786,-116.5 698,-116.5"/>
<text text-anchor="middle" x="742" y="-124.5" font-family="Helvetica,sans-Serif" font-size="10.00">IpcClientHost.h</text>
</a>
</g>
<!-- Node1&#45;&gt;Node18 -->
<g id="edge52" class="edge"><title>Node1&#45;&gt;Node18</title>
<path fill="none" stroke="midnightblue" d="M313.138,-232.398C399.87,-211.083 595.104,-163.102 689.254,-139.963"/>
<polygon fill="midnightblue" stroke="midnightblue" points="690.257,-143.321 699.133,-137.535 688.586,-136.523 690.257,-143.321"/>
</g>
<!-- Node3&#45;&gt;Node2 -->
<g id="edge6" class="edge"><title>Node3&#45;&gt;Node2</title>
<path fill="none" stroke="midnightblue" d="M367.221,-174.164C362.61,-164.868 356.52,-150.959 354,-138 346.846,-101.213 349.191,-57.2913 351.576,-31.9249"/>
<polygon fill="midnightblue" stroke="midnightblue" points="355.089,-31.976 352.64,-21.6681 348.127,-31.2534 355.089,-31.976"/>
</g>
<!-- Node4 -->
<g id="node8" class="node"><title>Node4</title>
<a xlink:href="Window_8h.htm" target="_top" xlink:title="Window.h">
<polygon fill="white" stroke="black" points="711,-58.5 711,-79.5 773,-79.5 773,-58.5 711,-58.5"/>
<text text-anchor="middle" x="742" y="-66.5" font-family="Helvetica,sans-Serif" font-size="10.00">Window.h</text>
</a>
</g>
<!-- Node3&#45;&gt;Node4 -->
<g id="edge8" class="edge"><title>Node3&#45;&gt;Node4</title>
<path fill="none" stroke="midnightblue" d="M406.724,-174.398C474.608,-153.058 627.512,-104.991 701.019,-81.8829"/>
<polygon fill="midnightblue" stroke="midnightblue" points="702.357,-85.1312 710.847,-78.7933 700.258,-78.4534 702.357,-85.1312"/>
</g>
<!-- Node10 -->
<g id="node21" class="node"><title>Node10</title>
<a xlink:href="HostWindow_8h.htm" target="_top" xlink:title="HostWindow.h">
<polygon fill="white" stroke="black" points="363,-116.5 363,-137.5 447,-137.5 447,-116.5 363,-116.5"/>
<text text-anchor="middle" x="405" y="-124.5" font-family="Helvetica,sans-Serif" font-size="10.00">HostWindow.h</text>
</a>
</g>
<!-- Node3&#45;&gt;Node10 -->
<g id="edge22" class="edge"><title>Node3&#45;&gt;Node10</title>
<path fill="none" stroke="midnightblue" d="M378.869,-174.362C383.155,-166.595 389.087,-155.843 394.216,-146.546"/>
<polygon fill="midnightblue" stroke="midnightblue" points="397.402,-148.017 399.168,-137.571 391.273,-144.636 397.402,-148.017"/>
</g>
<!-- Node4&#45;&gt;Node2 -->
<g id="edge10" class="edge"><title>Node4&#45;&gt;Node2</title>
<path fill="none" stroke="midnightblue" d="M710.853,-64.588C641.146,-54.6964 474.279,-30.9169 418,-22 411.342,-20.945 404.302,-19.7827 397.422,-18.6208"/>
<polygon fill="midnightblue" stroke="midnightblue" points="397.967,-15.1632 387.52,-16.9313 396.789,-22.0635 397.967,-15.1632"/>
</g>
<!-- Node5 -->
<g id="node11" class="node"><title>Node5</title>
<polygon fill="white" stroke="#bfbfbf" points="730,-0.5 730,-21.5 780,-21.5 780,-0.5 730,-0.5"/>
<text text-anchor="middle" x="755" y="-8.5" font-family="Helvetica,sans-Serif" font-size="10.00">stdint.h</text>
</g>
<!-- Node4&#45;&gt;Node5 -->
<g id="edge12" class="edge"><title>Node4&#45;&gt;Node5</title>
<path fill="none" stroke="midnightblue" d="M744.384,-58.3619C746.07,-50.8401 748.384,-40.5187 750.421,-31.4308"/>
<polygon fill="midnightblue" stroke="midnightblue" points="753.859,-32.0941 752.631,-21.5707 747.028,-30.563 753.859,-32.0941"/>
</g>
<!-- Node6 -->
<g id="node13" class="node"><title>Node6</title>
<polygon fill="white" stroke="#bfbfbf" points="607.5,-0.5 607.5,-21.5 650.5,-21.5 650.5,-0.5 607.5,-0.5"/>
<text text-anchor="middle" x="629" y="-8.5" font-family="Helvetica,sans-Serif" font-size="10.00">string</text>
</g>
<!-- Node4&#45;&gt;Node6 -->
<g id="edge14" class="edge"><title>Node4&#45;&gt;Node6</title>
<path fill="none" stroke="midnightblue" d="M721.537,-58.4966C703.967,-49.4786 678.418,-36.3649 658.615,-26.2006"/>
<polygon fill="midnightblue" stroke="midnightblue" points="660.188,-23.0738 649.693,-21.6212 656.991,-29.3014 660.188,-23.0738"/>
</g>
<!-- Node7 -->
<g id="node15" class="node"><title>Node7</title>
<polygon fill="white" stroke="#bfbfbf" points="940.5,-0.5 940.5,-21.5 981.5,-21.5 981.5,-0.5 940.5,-0.5"/>
<text text-anchor="middle" x="961" y="-8.5" font-family="Helvetica,sans-Serif" font-size="10.00">glib.h</text>
</g>
<!-- Node4&#45;&gt;Node7 -->
<g id="edge16" class="edge"><title>Node4&#45;&gt;Node7</title>
<path fill="none" stroke="midnightblue" d="M773.434,-60.3188C776.329,-59.5304 779.218,-58.7478 782,-58 834.104,-43.9956 894.872,-28.1408 930.518,-18.8889"/>
<polygon fill="midnightblue" stroke="midnightblue" points="931.506,-22.2485 940.307,-16.3502 929.749,-15.4726 931.506,-22.2485"/>
</g>
<!-- Node8 -->
<g id="node17" class="node"><title>Node8</title>
<polygon fill="white" stroke="#bfbfbf" points="798,-0.5 798,-21.5 896,-21.5 896,-0.5 798,-0.5"/>
<text text-anchor="middle" x="847" y="-8.5" font-family="Helvetica,sans-Serif" font-size="10.00">QGraphicsObject</text>
</g>
<!-- Node4&#45;&gt;Node8 -->
<g id="edge18" class="edge"><title>Node4&#45;&gt;Node8</title>
<path fill="none" stroke="midnightblue" d="M761.259,-58.3619C777.466,-49.4094 800.853,-36.4908 819.109,-26.4064"/>
<polygon fill="midnightblue" stroke="midnightblue" points="820.802,-29.4696 827.863,-21.5707 817.418,-23.3422 820.802,-29.4696"/>
</g>
<!-- Node9 -->
<g id="node19" class="node"><title>Node9</title>
<polygon fill="white" stroke="#bfbfbf" points="667.5,-0.5 667.5,-21.5 712.5,-21.5 712.5,-0.5 667.5,-0.5"/>
<text text-anchor="middle" x="690" y="-8.5" font-family="Helvetica,sans-Serif" font-size="10.00">QSize</text>
</g>
<!-- Node4&#45;&gt;Node9 -->
<g id="edge20" class="edge"><title>Node4&#45;&gt;Node9</title>
<path fill="none" stroke="midnightblue" d="M732.462,-58.3619C725.132,-50.1861 714.837,-38.7025 706.219,-29.0907"/>
<polygon fill="midnightblue" stroke="midnightblue" points="708.759,-26.68 699.477,-21.5707 703.547,-31.3528 708.759,-26.68"/>
</g>
<!-- Node10&#45;&gt;Node2 -->
<g id="edge24" class="edge"><title>Node10&#45;&gt;Node2</title>
<path fill="none" stroke="midnightblue" d="M400.293,-116.295C391.754,-96.8724 373.589,-55.5561 362.725,-30.8462"/>
<polygon fill="midnightblue" stroke="midnightblue" points="365.924,-29.4248 358.695,-21.6792 359.516,-32.2422 365.924,-29.4248"/>
</g>
<!-- Node10&#45;&gt;Node4 -->
<g id="edge26" class="edge"><title>Node10&#45;&gt;Node4</title>
<path fill="none" stroke="midnightblue" d="M447.34,-119.713C512.314,-108.531 635.845,-87.2699 700.382,-76.1628"/>
<polygon fill="midnightblue" stroke="midnightblue" points="701.33,-79.5511 710.591,-74.4056 700.143,-72.6526 701.33,-79.5511"/>
</g>
<!-- Node10&#45;&gt;Node10 -->
<g id="edge28" class="edge"><title>Node10&#45;&gt;Node10</title>
<path fill="none" stroke="midnightblue" d="M435.563,-137.524C451.083,-139.061 465,-135.553 465,-127 465,-120.385 456.675,-116.788 445.722,-116.208"/>
<polygon fill="midnightblue" stroke="midnightblue" points="445.467,-112.714 435.563,-116.476 445.652,-119.711 445.467,-112.714"/>
</g>
<!-- Node11 -->
<g id="node26" class="node"><title>Node11</title>
<a xlink:href="HostWindowData_8h.htm" target="_top" xlink:title="HostWindowData.h">
<polygon fill="white" stroke="black" points="70.5,-58.5 70.5,-79.5 177.5,-79.5 177.5,-58.5 70.5,-58.5"/>
<text text-anchor="middle" x="124" y="-66.5" font-family="Helvetica,sans-Serif" font-size="10.00">HostWindowData.h</text>
</a>
</g>
<!-- Node10&#45;&gt;Node11 -->
<g id="edge30" class="edge"><title>Node10&#45;&gt;Node11</title>
<path fill="none" stroke="midnightblue" d="M362.931,-118.317C315.754,-108.579 238.82,-92.6994 185.034,-81.5979"/>
<polygon fill="midnightblue" stroke="midnightblue" points="185.439,-78.1076 174.938,-79.5139 184.024,-84.9631 185.439,-78.1076"/>
</g>
<!-- Node14 -->
<g id="node33" class="node"><title>Node14</title>
<a xlink:href="InputClient_8h.htm" target="_top" xlink:title="InputClient.h">
<polygon fill="white" stroke="black" points="438.5,-58.5 438.5,-79.5 513.5,-79.5 513.5,-58.5 438.5,-58.5"/>
<text text-anchor="middle" x="476" y="-66.5" font-family="Helvetica,sans-Serif" font-size="10.00">InputClient.h</text>
</a>
</g>
<!-- Node10&#45;&gt;Node14 -->
<g id="edge38" class="edge"><title>Node10&#45;&gt;Node14</title>
<path fill="none" stroke="midnightblue" d="M418.022,-116.362C428.431,-107.859 443.219,-95.7785 455.255,-85.9466"/>
<polygon fill="midnightblue" stroke="midnightblue" points="457.53,-88.6077 463.06,-79.5707 453.101,-83.1866 457.53,-88.6077"/>
</g>
<!-- Node10&#45;&gt;Node16 -->
<g id="edge44" class="edge"><title>Node10&#45;&gt;Node16</title>
<path fill="none" stroke="midnightblue" d="M380.553,-116.497C359.182,-107.315 327.931,-93.8889 304.103,-83.6516"/>
<polygon fill="midnightblue" stroke="midnightblue" points="305.291,-80.3529 294.722,-79.6212 302.528,-86.7845 305.291,-80.3529"/>
</g>
<!-- Node17 -->
<g id="node40" class="node"><title>Node17</title>
<polygon fill="white" stroke="#bfbfbf" points="531,-58.5 531,-79.5 655,-79.5 655,-58.5 531,-58.5"/>
<text text-anchor="middle" x="593" y="-66.5" font-family="Helvetica,sans-Serif" font-size="10.00">PIpcChannelListener.h</text>
</g>
<!-- Node10&#45;&gt;Node17 -->
<g id="edge46" class="edge"><title>Node10&#45;&gt;Node17</title>
<path fill="none" stroke="midnightblue" d="M439.045,-116.497C469.96,-106.959 515.723,-92.8408 549.322,-82.475"/>
<polygon fill="midnightblue" stroke="midnightblue" points="550.367,-85.8156 558.891,-79.5231 548.303,-79.1267 550.367,-85.8156"/>
</g>
<!-- Node11&#45;&gt;Node2 -->
<g id="edge32" class="edge"><title>Node11&#45;&gt;Node2</title>
<path fill="none" stroke="midnightblue" d="M165.651,-58.4966C206.671,-48.1525 269.06,-32.4196 310.656,-21.9302"/>
<polygon fill="midnightblue" stroke="midnightblue" points="311.657,-25.2875 320.497,-19.4485 309.945,-18.5 311.657,-25.2875"/>
</g>
<!-- Node12 -->
<g id="node29" class="node"><title>Node12</title>
<polygon fill="white" stroke="#bfbfbf" points="103.5,-0.5 103.5,-21.5 162.5,-21.5 162.5,-0.5 103.5,-0.5"/>
<text text-anchor="middle" x="133" y="-8.5" font-family="Helvetica,sans-Serif" font-size="10.00">QPixmap</text>
</g>
<!-- Node11&#45;&gt;Node12 -->
<g id="edge34" class="edge"><title>Node11&#45;&gt;Node12</title>
<path fill="none" stroke="midnightblue" d="M125.651,-58.3619C126.805,-50.9219 128.385,-40.7427 129.784,-31.7276"/>
<polygon fill="midnightblue" stroke="midnightblue" points="133.285,-31.9891 131.36,-21.5707 126.368,-30.9157 133.285,-31.9891"/>
</g>
<!-- Node11&#45;&gt;Node13 -->
<g id="edge36" class="edge"><title>Node11&#45;&gt;Node13</title>
<path fill="none" stroke="midnightblue" d="M109.143,-58.3619C97.1545,-49.7773 80.0727,-37.5459 66.2715,-27.6636"/>
<polygon fill="midnightblue" stroke="midnightblue" points="67.9307,-24.5469 57.7625,-21.5707 63.8554,-30.2383 67.9307,-24.5469"/>
</g>
<!-- Node14&#45;&gt;Node6 -->
<g id="edge42" class="edge"><title>Node14&#45;&gt;Node6</title>
<path fill="none" stroke="midnightblue" d="M503.707,-58.4966C530.244,-48.437 570.224,-33.2811 597.853,-22.8075"/>
<polygon fill="midnightblue" stroke="midnightblue" points="599.315,-25.9963 607.425,-19.1788 596.833,-19.4508 599.315,-25.9963"/>
</g>
<!-- Node15 -->
<g id="node35" class="node"><title>Node15</title>
<polygon fill="white" stroke="#bfbfbf" points="427,-0.5 427,-21.5 525,-21.5 525,-0.5 427,-0.5"/>
<text text-anchor="middle" x="476" y="-8.5" font-family="Helvetica,sans-Serif" font-size="10.00">palmimedefines.h</text>
</g>
<!-- Node14&#45;&gt;Node15 -->
<g id="edge40" class="edge"><title>Node14&#45;&gt;Node15</title>
<path fill="none" stroke="midnightblue" d="M476,-58.3619C476,-50.9219 476,-40.7427 476,-31.7276"/>
<polygon fill="midnightblue" stroke="midnightblue" points="479.5,-31.5706 476,-21.5707 472.5,-31.5707 479.5,-31.5706"/>
</g>
<!-- Node18&#45;&gt;Node2 -->
<g id="edge54" class="edge"><title>Node18&#45;&gt;Node2</title>
<path fill="none" stroke="midnightblue" d="M697.796,-123.514C623.364,-117.121 476.575,-102.117 430,-80 405.187,-68.2173 382.703,-45.6102 368.738,-29.4844"/>
<polygon fill="midnightblue" stroke="midnightblue" points="371.349,-27.1515 362.244,-21.734 365.984,-31.6471 371.349,-27.1515"/>
</g>
<!-- Node18&#45;&gt;Node4 -->
<g id="edge66" class="edge"><title>Node18&#45;&gt;Node4</title>
<path fill="none" stroke="midnightblue" d="M742,-116.362C742,-108.922 742,-98.7427 742,-89.7276"/>
<polygon fill="midnightblue" stroke="midnightblue" points="745.5,-89.5706 742,-79.5707 738.5,-89.5707 745.5,-89.5706"/>
</g>
<!-- Node18&#45;&gt;Node6 -->
<g id="edge56" class="edge"><title>Node18&#45;&gt;Node6</title>
<path fill="none" stroke="midnightblue" d="M731.572,-116.295C712.147,-96.3545 670.242,-53.337 646.443,-28.9056"/>
<polygon fill="midnightblue" stroke="midnightblue" points="648.888,-26.4001 639.403,-21.6792 643.874,-31.2846 648.888,-26.4001"/>
</g>
<!-- Node18&#45;&gt;Node7 -->
<g id="edge62" class="edge"><title>Node18&#45;&gt;Node7</title>
<path fill="none" stroke="midnightblue" d="M786.173,-123.42C842.213,-117.888 934.217,-105.165 956,-80 967.322,-66.9196 967.486,-46.7148 965.464,-31.5436"/>
<polygon fill="midnightblue" stroke="midnightblue" points="968.89,-30.8155 963.734,-21.5602 961.993,-32.011 968.89,-30.8155"/>
</g>
<!-- Node18&#45;&gt;Node17 -->
<g id="edge64" class="edge"><title>Node18&#45;&gt;Node17</title>
<path fill="none" stroke="midnightblue" d="M715.017,-116.497C691.147,-107.205 656.106,-93.5649 629.693,-83.2832"/>
<polygon fill="midnightblue" stroke="midnightblue" points="630.622,-79.889 620.033,-79.5231 628.083,-86.4122 630.622,-79.889"/>
</g>
<!-- Node19 -->
<g id="node48" class="node"><title>Node19</title>
<polygon fill="white" stroke="#bfbfbf" points="790.5,-58.5 790.5,-79.5 827.5,-79.5 827.5,-58.5 790.5,-58.5"/>
<text text-anchor="middle" x="809" y="-66.5" font-family="Helvetica,sans-Serif" font-size="10.00">map</text>
</g>
<!-- Node18&#45;&gt;Node19 -->
<g id="edge58" class="edge"><title>Node18&#45;&gt;Node19</title>
<path fill="none" stroke="midnightblue" d="M754.289,-116.362C764.017,-107.941 777.798,-96.0105 789.095,-86.2308"/>
<polygon fill="midnightblue" stroke="midnightblue" points="791.519,-88.7619 796.789,-79.5707 786.938,-83.4695 791.519,-88.7619"/>
</g>
<!-- Node20 -->
<g id="node50" class="node"><title>Node20</title>
<polygon fill="white" stroke="#bfbfbf" points="844.5,-58.5 844.5,-79.5 875.5,-79.5 875.5,-58.5 844.5,-58.5"/>
<text text-anchor="middle" x="860" y="-66.5" font-family="Helvetica,sans-Serif" font-size="10.00">set</text>
</g>
<!-- Node18&#45;&gt;Node20 -->
<g id="edge60" class="edge"><title>Node18&#45;&gt;Node20</title>
<path fill="none" stroke="midnightblue" d="M763.369,-116.497C783.642,-106.532 814.089,-91.5665 835.372,-81.1051"/>
<polygon fill="midnightblue" stroke="midnightblue" points="837.006,-84.2019 844.437,-76.6496 833.919,-77.9198 837.006,-84.2019"/>
</g>
<!-- Node21 -->
<g id="node55" class="node"><title>Node21</title>
<polygon fill="white" stroke="#bfbfbf" points="892.5,-58.5 892.5,-79.5 947.5,-79.5 947.5,-58.5 892.5,-58.5"/>
<text text-anchor="middle" x="920" y="-66.5" font-family="Helvetica,sans-Serif" font-size="10.00">QObject</text>
</g>
<!-- Node18&#45;&gt;Node21 -->
<g id="edge68" class="edge"><title>Node18&#45;&gt;Node21</title>
<path fill="none" stroke="midnightblue" d="M774.234,-116.497C804.7,-106.57 850.395,-91.6802 882.483,-81.2246"/>
<polygon fill="midnightblue" stroke="midnightblue" points="883.963,-84.4236 892.387,-77.9976 881.794,-77.768 883.963,-84.4236"/>
</g>
</g>
</svg>
