<?xml version="1.0" encoding="UTF-8" standalone="no"?>
<!DOCTYPE svg PUBLIC "-//W3C//DTD SVG 1.1//EN"
 "http://www.w3.org/Graphics/SVG/1.1/DTD/svg11.dtd">
<!-- Generated by graphviz version 2.26.3 (20100126.1600)
 -->
<!-- Title: G Pages: 1 -->
<svg width="537pt" height="204pt"
 viewBox="0.00 0.00 537.00 204.00" xmlns="http://www.w3.org/2000/svg" xmlns:xlink="http://www.w3.org/1999/xlink">
<g id="graph1" class="graph" transform="scale(1 1) rotate(0) translate(4 200)">
<title>G</title>
<polygon fill="white" stroke="white" points="-4,5 -4,-200 534,-200 534,5 -4,5"/>
<!-- Node1 -->
<g id="node1" class="node"><title>Node1</title>
<polygon fill="#bfbfbf" stroke="black" points="170.5,-174.5 170.5,-195.5 259.5,-195.5 259.5,-174.5 170.5,-174.5"/>
<text text-anchor="middle" x="215" y="-182.5" font-family="Helvetica,sans-Serif" font-size="10.00">NAppWindow.h</text>
</g>
<!-- Node2 -->
<g id="node3" class="node"><title>Node2</title>
<a xlink:href="RemoteWindowDataSoftwareOpenGLComposited_8h.htm" target="_top" xlink:title="RemoteWindowDataSoftwareOpenGLComposited.h">
<polygon fill="white" stroke="black" points="164,-116.5 164,-137.5 424,-137.5 424,-116.5 164,-116.5"/>
<text text-anchor="middle" x="294" y="-124.5" font-family="Helvetica,sans-Serif" font-size="10.00">RemoteWindowDataSoftwareOpenGLComposited.h</text>
</a>
</g>
<!-- Node1&#45;&gt;Node2 -->
<g id="edge2" class="edge"><title>Node1&#45;&gt;Node2</title>
<path fill="none" stroke="midnightblue" d="M237.803,-168.259C251.28,-158.364 267.935,-146.136 279.602,-137.571"/>
<polygon fill="midnightblue" stroke="midnightblue" points="235.479,-165.623 229.49,-174.362 239.622,-171.265 235.479,-165.623"/>
</g>
<!-- Node3 -->
<g id="node5" class="node"><title>Node3</title>
<a xlink:href="RemoteWindowDataSoftwareOpenGLComposited_8cpp.htm" target="_top" xlink:title="RemoteWindowDataSoftwareOpenGLComposited.cpp">
<polygon fill="white" stroke="black" points="0,-58.5 0,-79.5 272,-79.5 272,-58.5 0,-58.5"/>
<text text-anchor="middle" x="136" y="-66.5" font-family="Helvetica,sans-Serif" font-size="10.00">RemoteWindowDataSoftwareOpenGLComposited.cpp</text>
</a>
</g>
<!-- Node1&#45;&gt;Node3 -->
<g id="edge10" class="edge"><title>Node1&#45;&gt;Node3</title>
<path fill="none" stroke="midnightblue" d="M187.312,-168.902C175.806,-160.941 163.241,-150.375 155,-138 142.879,-119.799 138.444,-94.0109 136.856,-79.671"/>
<polygon fill="midnightblue" stroke="midnightblue" points="185.532,-171.92 195.815,-174.469 189.366,-166.063 185.532,-171.92"/>
</g>
<!-- Node2&#45;&gt;Node3 -->
<g id="edge4" class="edge"><title>Node2&#45;&gt;Node3</title>
<path fill="none" stroke="midnightblue" d="M255.888,-113.009C227.81,-102.702 190.218,-88.903 164.666,-79.5231"/>
<polygon fill="midnightblue" stroke="midnightblue" points="254.794,-116.336 265.387,-116.497 257.206,-109.765 254.794,-116.336"/>
</g>
<!-- Node4 -->
<g id="node7" class="node"><title>Node4</title>
<a xlink:href="RemoteWindowDataSoftwareTextureShared_8h.htm" target="_top" xlink:title="RemoteWindowDataSoftwareTextureShared.h">
<polygon fill="white" stroke="black" points="290,-58.5 290,-79.5 524,-79.5 524,-58.5 290,-58.5"/>
<text text-anchor="middle" x="407" y="-66.5" font-family="Helvetica,sans-Serif" font-size="10.00">RemoteWindowDataSoftwareTextureShared.h</text>
</a>
</g>
<!-- Node2&#45;&gt;Node4 -->
<g id="edge6" class="edge"><title>Node2&#45;&gt;Node4</title>
<path fill="none" stroke="midnightblue" d="M323.625,-111.794C343.341,-101.675 368.748,-88.6338 386.307,-79.6212"/>
<polygon fill="midnightblue" stroke="midnightblue" points="321.762,-108.816 314.463,-116.497 324.958,-115.044 321.762,-108.816"/>
</g>
<!-- Node5 -->
<g id="node9" class="node"><title>Node5</title>
<a xlink:href="RemoteWindowDataSoftwareTextureShared_8cpp.htm" target="_top" xlink:title="RemoteWindowDataSoftwareTextureShared.cpp">
<polygon fill="white" stroke="black" points="284.5,-0.5 284.5,-21.5 529.5,-21.5 529.5,-0.5 284.5,-0.5"/>
<text text-anchor="middle" x="407" y="-8.5" font-family="Helvetica,sans-Serif" font-size="10.00">RemoteWindowDataSoftwareTextureShared.cpp</text>
</a>
</g>
<!-- Node4&#45;&gt;Node5 -->
<g id="edge8" class="edge"><title>Node4&#45;&gt;Node5</title>
<path fill="none" stroke="midnightblue" d="M407,-48.1906C407,-39.1684 407,-28.9941 407,-21.5707"/>
<polygon fill="midnightblue" stroke="midnightblue" points="403.5,-48.3619 407,-58.3619 410.5,-48.3619 403.5,-48.3619"/>
</g>
</g>
</svg>
