<?xml version="1.0" encoding="UTF-8" standalone="no"?>
<!DOCTYPE svg PUBLIC "-//W3C//DTD SVG 1.1//EN"
 "http://www.w3.org/Graphics/SVG/1.1/DTD/svg11.dtd">
<!-- Generated by graphviz version 2.26.3 (20100126.1600)
 -->
<!-- Title: G Pages: 1 -->
<svg width="1010pt" height="320pt"
 viewBox="0.00 0.00 1010.00 320.00" xmlns="http://www.w3.org/2000/svg" xmlns:xlink="http://www.w3.org/1999/xlink">
<g id="graph1" class="graph" transform="scale(1 1) rotate(0) translate(4 316)">
<title>G</title>
<polygon fill="white" stroke="white" points="-4,5 -4,-316 1007,-316 1007,5 -4,5"/>
<!-- Node1 -->
<g id="node1" class="node"><title>Node1</title>
<polygon fill="#bfbfbf" stroke="black" points="586.5,-290.5 586.5,-311.5 705.5,-311.5 705.5,-290.5 586.5,-290.5"/>
<text text-anchor="middle" x="646" y="-298.5" font-family="Helvetica,sans-Serif" font-size="10.00">NativeAlertManager.h</text>
</g>
<!-- Node2 -->
<g id="node3" class="node"><title>Node2</title>
<a xlink:href="Common_8h.htm" target="_top" xlink:title="Common.h">
<polygon fill="white" stroke="black" points="267.5,-0.5 267.5,-21.5 334.5,-21.5 334.5,-0.5 267.5,-0.5"/>
<text text-anchor="middle" x="301" y="-8.5" font-family="Helvetica,sans-Serif" font-size="10.00">Common.h</text>
</a>
</g>
<!-- Node1&#45;&gt;Node2 -->
<g id="edge2" class="edge"><title>Node1&#45;&gt;Node2</title>
<path fill="none" stroke="midnightblue" d="M586.384,-296.544C426.461,-283.798 0,-244.252 0,-185 0,-185 0,-185 0,-127 0,-80.0464 37.9402,-78.8713 80,-58 137.331,-29.5507 211.355,-18.2737 257.505,-13.8359"/>
<polygon fill="midnightblue" stroke="midnightblue" points="257.831,-17.3208 267.478,-12.9419 257.206,-10.3488 257.831,-17.3208"/>
</g>
<!-- Node3 -->
<g id="node5" class="node"><title>Node3</title>
<polygon fill="white" stroke="#bfbfbf" points="924,-232.5 924,-253.5 1002,-253.5 1002,-232.5 924,-232.5"/>
<text text-anchor="middle" x="963" y="-240.5" font-family="Helvetica,sans-Serif" font-size="10.00">lunaservice.h</text>
</g>
<!-- Node1&#45;&gt;Node3 -->
<g id="edge4" class="edge"><title>Node1&#45;&gt;Node3</title>
<path fill="none" stroke="midnightblue" d="M705.592,-290.889C759.157,-281.682 839.945,-267.503 910,-254 911.272,-253.755 912.56,-253.504 913.86,-253.249"/>
<polygon fill="midnightblue" stroke="midnightblue" points="914.829,-256.625 923.951,-251.236 913.459,-249.76 914.829,-256.625"/>
</g>
<!-- Node4 -->
<g id="node7" class="node"><title>Node4</title>
<polygon fill="white" stroke="#bfbfbf" points="951.5,-0.5 951.5,-21.5 994.5,-21.5 994.5,-0.5 951.5,-0.5"/>
<text text-anchor="middle" x="973" y="-8.5" font-family="Helvetica,sans-Serif" font-size="10.00">string</text>
</g>
<!-- Node1&#45;&gt;Node4 -->
<g id="edge6" class="edge"><title>Node1&#45;&gt;Node4</title>
<path fill="none" stroke="midnightblue" d="M688.977,-290.465C760.455,-271.674 896,-230.096 896,-185 896,-185 896,-185 896,-127 896,-86.3497 929.229,-49.0482 952.029,-28.2382"/>
<polygon fill="midnightblue" stroke="midnightblue" points="954.393,-30.8206 959.588,-21.5867 949.768,-25.5656 954.393,-30.8206"/>
</g>
<!-- Node5 -->
<g id="node9" class="node"><title>Node5</title>
<a xlink:href="VolumeControlAlertWindow_8h.htm" target="_top" xlink:title="VolumeControlAlertWindow.h">
<polygon fill="white" stroke="black" points="447.5,-232.5 447.5,-253.5 600.5,-253.5 600.5,-232.5 447.5,-232.5"/>
<text text-anchor="middle" x="524" y="-240.5" font-family="Helvetica,sans-Serif" font-size="10.00">VolumeControlAlertWindow.h</text>
</a>
</g>
<!-- Node1&#45;&gt;Node5 -->
<g id="edge8" class="edge"><title>Node1&#45;&gt;Node5</title>
<path fill="none" stroke="midnightblue" d="M623.907,-290.497C604.766,-281.397 576.854,-268.127 555.395,-257.925"/>
<polygon fill="midnightblue" stroke="midnightblue" points="556.875,-254.754 546.341,-253.621 553.87,-261.076 556.875,-254.754"/>
</g>
<!-- Node22 -->
<g id="node55" class="node"><title>Node22</title>
<a xlink:href="Timer_8h.htm" target="_top" xlink:title="Timer.h">
<polygon fill="white" stroke="black" points="598,-58.5 598,-79.5 650,-79.5 650,-58.5 598,-58.5"/>
<text text-anchor="middle" x="624" y="-66.5" font-family="Helvetica,sans-Serif" font-size="10.00">Timer.h</text>
</a>
</g>
<!-- Node1&#45;&gt;Node22 -->
<g id="edge66" class="edge"><title>Node1&#45;&gt;Node22</title>
<path fill="none" stroke="midnightblue" d="M644.998,-290.429C641.605,-254.648 630.511,-137.663 625.967,-89.7481"/>
<polygon fill="midnightblue" stroke="midnightblue" points="629.437,-89.2584 625.008,-79.6335 622.468,-89.9193 629.437,-89.2584"/>
</g>
<!-- Node5&#45;&gt;Node2 -->
<g id="edge10" class="edge"><title>Node5&#45;&gt;Node2</title>
<path fill="none" stroke="midnightblue" d="M451.071,-232.453C373.253,-218.97 248.192,-190.778 152,-138 118.056,-119.376 102.827,-115.335 87,-80 83.003,-71.0765 80.8723,-65.6195 87,-58 107.927,-31.9785 200.807,-19.5426 257.101,-14.297"/>
<polygon fill="midnightblue" stroke="midnightblue" points="257.512,-17.7744 267.161,-13.3996 256.89,-10.8021 257.512,-17.7744"/>
</g>
<!-- Node6 -->
<g id="node12" class="node"><title>Node6</title>
<a xlink:href="AlertWindow_8h.htm" target="_top" xlink:title="AlertWindow.h">
<polygon fill="white" stroke="black" points="404,-174.5 404,-195.5 488,-195.5 488,-174.5 404,-174.5"/>
<text text-anchor="middle" x="446" y="-182.5" font-family="Helvetica,sans-Serif" font-size="10.00">AlertWindow.h</text>
</a>
</g>
<!-- Node5&#45;&gt;Node6 -->
<g id="edge12" class="edge"><title>Node5&#45;&gt;Node6</title>
<path fill="none" stroke="midnightblue" d="M509.694,-232.362C498.149,-223.777 481.7,-211.546 468.41,-201.664"/>
<polygon fill="midnightblue" stroke="midnightblue" points="470.329,-198.729 460.216,-195.571 466.152,-204.346 470.329,-198.729"/>
</g>
<!-- Node15 -->
<g id="node39" class="node"><title>Node15</title>
<polygon fill="white" stroke="#bfbfbf" points="455.5,-0.5 455.5,-21.5 514.5,-21.5 514.5,-0.5 455.5,-0.5"/>
<text text-anchor="middle" x="485" y="-8.5" font-family="Helvetica,sans-Serif" font-size="10.00">QPixmap</text>
</g>
<!-- Node5&#45;&gt;Node15 -->
<g id="edge64" class="edge"><title>Node5&#45;&gt;Node15</title>
<path fill="none" stroke="midnightblue" d="M532.445,-232.148C538.947,-223.063 547.41,-209.457 551,-196 566.81,-136.739 579.104,-112.515 551,-58 544.102,-44.6187 531.436,-34.2114 519.031,-26.6302"/>
<polygon fill="midnightblue" stroke="midnightblue" points="520.559,-23.4739 510.13,-21.6072 517.119,-29.5702 520.559,-23.4739"/>
</g>
<!-- Node21 -->
<g id="node52" class="node"><title>Node21</title>
<polygon fill="white" stroke="#bfbfbf" points="505.5,-174.5 505.5,-195.5 542.5,-195.5 542.5,-174.5 505.5,-174.5"/>
<text text-anchor="middle" x="524" y="-182.5" font-family="Helvetica,sans-Serif" font-size="10.00">map</text>
</g>
<!-- Node5&#45;&gt;Node21 -->
<g id="edge62" class="edge"><title>Node5&#45;&gt;Node21</title>
<path fill="none" stroke="midnightblue" d="M524,-232.362C524,-224.922 524,-214.743 524,-205.728"/>
<polygon fill="midnightblue" stroke="midnightblue" points="527.5,-205.571 524,-195.571 520.5,-205.571 527.5,-205.571"/>
</g>
<!-- Node6&#45;&gt;Node2 -->
<g id="edge14" class="edge"><title>Node6&#45;&gt;Node2</title>
<path fill="none" stroke="midnightblue" d="M403.98,-178.743C319.15,-165.163 132.323,-130.123 95,-80 89.1603,-72.1576 88.9033,-65.6443 95,-58 114.876,-33.0782 202.711,-20.3327 257.069,-14.717"/>
<polygon fill="midnightblue" stroke="midnightblue" points="257.529,-18.1887 267.135,-13.7188 256.839,-11.2229 257.529,-18.1887"/>
</g>
<!-- Node7 -->
<g id="node15" class="node"><title>Node7</title>
<a xlink:href="sptr_8h.htm" target="_top" xlink:title="sptr.h">
<polygon fill="white" stroke="black" points="499.5,-58.5 499.5,-79.5 542.5,-79.5 542.5,-58.5 499.5,-58.5"/>
<text text-anchor="middle" x="521" y="-66.5" font-family="Helvetica,sans-Serif" font-size="10.00">sptr.h</text>
</a>
</g>
<!-- Node6&#45;&gt;Node7 -->
<g id="edge16" class="edge"><title>Node6&#45;&gt;Node7</title>
<path fill="none" stroke="midnightblue" d="M461.646,-174.306C473.159,-165.706 488.414,-152.669 498,-138 507.688,-123.175 513.664,-103.884 517.087,-89.4701"/>
<polygon fill="midnightblue" stroke="midnightblue" points="520.539,-90.0663 519.227,-79.5531 513.697,-88.5899 520.539,-90.0663"/>
</g>
<!-- Node9 -->
<g id="node20" class="node"><title>Node9</title>
<a xlink:href="Window_8h.htm" target="_top" xlink:title="Window.h">
<polygon fill="white" stroke="black" points="668,-58.5 668,-79.5 730,-79.5 730,-58.5 668,-58.5"/>
<text text-anchor="middle" x="699" y="-66.5" font-family="Helvetica,sans-Serif" font-size="10.00">Window.h</text>
</a>
</g>
<!-- Node6&#45;&gt;Node9 -->
<g id="edge22" class="edge"><title>Node6&#45;&gt;Node9</title>
<path fill="none" stroke="midnightblue" d="M469.348,-174.295C514.742,-153.482 614.971,-107.527 666.703,-83.808"/>
<polygon fill="midnightblue" stroke="midnightblue" points="668.442,-86.861 676.074,-79.5117 665.525,-80.498 668.442,-86.861"/>
</g>
<!-- Node13 -->
<g id="node31" class="node"><title>Node13</title>
<a xlink:href="HostWindow_8h.htm" target="_top" xlink:title="HostWindow.h">
<polygon fill="white" stroke="black" points="387,-116.5 387,-137.5 471,-137.5 471,-116.5 387,-116.5"/>
<text text-anchor="middle" x="429" y="-124.5" font-family="Helvetica,sans-Serif" font-size="10.00">HostWindow.h</text>
</a>
</g>
<!-- Node6&#45;&gt;Node13 -->
<g id="edge36" class="edge"><title>Node6&#45;&gt;Node13</title>
<path fill="none" stroke="midnightblue" d="M442.882,-174.362C440.677,-166.84 437.652,-156.519 434.988,-147.431"/>
<polygon fill="midnightblue" stroke="midnightblue" points="438.27,-146.182 432.098,-137.571 431.552,-148.151 438.27,-146.182"/>
</g>
<!-- Node7&#45;&gt;Node2 -->
<g id="edge18" class="edge"><title>Node7&#45;&gt;Node2</title>
<path fill="none" stroke="midnightblue" d="M499.468,-60.7751C496.637,-59.7906 493.76,-58.8388 491,-58 429.265,-39.2391 410.388,-38.5958 344.921,-22.4371"/>
<polygon fill="midnightblue" stroke="midnightblue" points="345.463,-18.9651 334.913,-19.9365 343.766,-25.7563 345.463,-18.9651"/>
</g>
<!-- Node8 -->
<g id="node18" class="node"><title>Node8</title>
<polygon fill="white" stroke="#bfbfbf" points="531.5,-0.5 531.5,-21.5 572.5,-21.5 572.5,-0.5 531.5,-0.5"/>
<text text-anchor="middle" x="552" y="-8.5" font-family="Helvetica,sans-Serif" font-size="10.00">glib.h</text>
</g>
<!-- Node7&#45;&gt;Node8 -->
<g id="edge20" class="edge"><title>Node7&#45;&gt;Node8</title>
<path fill="none" stroke="midnightblue" d="M526.686,-58.3619C530.837,-50.5949 536.584,-39.8426 541.553,-30.5458"/>
<polygon fill="midnightblue" stroke="midnightblue" points="544.723,-32.0398 546.35,-21.5707 538.55,-28.7401 544.723,-32.0398"/>
</g>
<!-- Node9&#45;&gt;Node2 -->
<g id="edge24" class="edge"><title>Node9&#45;&gt;Node2</title>
<path fill="none" stroke="midnightblue" d="M667.666,-59.8892C664.75,-59.191 661.829,-58.5466 659,-58 523.468,-31.8079 483.795,-47.2094 344.999,-22.1772"/>
<polygon fill="midnightblue" stroke="midnightblue" points="345.301,-18.6739 334.832,-20.3039 344.032,-25.5581 345.301,-18.6739"/>
</g>
<!-- Node9&#45;&gt;Node4 -->
<g id="edge28" class="edge"><title>Node9&#45;&gt;Node4</title>
<path fill="none" stroke="midnightblue" d="M730.184,-64.6412C775.116,-58.0064 860.736,-44.0402 941.372,-22.1697"/>
<polygon fill="midnightblue" stroke="midnightblue" points="942.469,-25.4978 951.178,-19.4634 940.607,-18.75 942.469,-25.4978"/>
</g>
<!-- Node9&#45;&gt;Node8 -->
<g id="edge30" class="edge"><title>Node9&#45;&gt;Node8</title>
<path fill="none" stroke="midnightblue" d="M672.379,-58.4966C646.995,-48.4811 608.808,-33.414 582.276,-22.9456"/>
<polygon fill="midnightblue" stroke="midnightblue" points="583.316,-19.5934 572.729,-19.1788 580.747,-26.1049 583.316,-19.5934"/>
</g>
<!-- Node10 -->
<g id="node23" class="node"><title>Node10</title>
<polygon fill="white" stroke="#bfbfbf" points="590,-0.5 590,-21.5 640,-21.5 640,-0.5 590,-0.5"/>
<text text-anchor="middle" x="615" y="-8.5" font-family="Helvetica,sans-Serif" font-size="10.00">stdint.h</text>
</g>
<!-- Node9&#45;&gt;Node10 -->
<g id="edge26" class="edge"><title>Node9&#45;&gt;Node10</title>
<path fill="none" stroke="midnightblue" d="M683.593,-58.3619C671.042,-49.6955 653.108,-37.3126 638.725,-27.3819"/>
<polygon fill="midnightblue" stroke="midnightblue" points="640.527,-24.3725 630.309,-21.5707 636.55,-30.1327 640.527,-24.3725"/>
</g>
<!-- Node11 -->
<g id="node27" class="node"><title>Node11</title>
<polygon fill="white" stroke="#bfbfbf" points="658,-0.5 658,-21.5 756,-21.5 756,-0.5 658,-0.5"/>
<text text-anchor="middle" x="707" y="-8.5" font-family="Helvetica,sans-Serif" font-size="10.00">QGraphicsObject</text>
</g>
<!-- Node9&#45;&gt;Node11 -->
<g id="edge32" class="edge"><title>Node9&#45;&gt;Node11</title>
<path fill="none" stroke="midnightblue" d="M700.467,-58.3619C701.494,-50.9219 702.898,-40.7427 704.141,-31.7276"/>
<polygon fill="midnightblue" stroke="midnightblue" points="707.643,-31.9551 705.542,-21.5707 700.708,-30.9986 707.643,-31.9551"/>
</g>
<!-- Node12 -->
<g id="node29" class="node"><title>Node12</title>
<polygon fill="white" stroke="#bfbfbf" points="773.5,-0.5 773.5,-21.5 818.5,-21.5 818.5,-0.5 773.5,-0.5"/>
<text text-anchor="middle" x="796" y="-8.5" font-family="Helvetica,sans-Serif" font-size="10.00">QSize</text>
</g>
<!-- Node9&#45;&gt;Node12 -->
<g id="edge34" class="edge"><title>Node9&#45;&gt;Node12</title>
<path fill="none" stroke="midnightblue" d="M716.791,-58.3619C731.559,-49.532 752.778,-36.844 769.538,-26.8224"/>
<polygon fill="midnightblue" stroke="midnightblue" points="771.535,-29.7066 778.321,-21.5707 767.943,-23.6987 771.535,-29.7066"/>
</g>
<!-- Node13&#45;&gt;Node2 -->
<g id="edge38" class="edge"><title>Node13&#45;&gt;Node2</title>
<path fill="none" stroke="midnightblue" d="M413.692,-116.434C400.81,-107.302 382.123,-93.483 367,-80 349.003,-63.9543 330.15,-43.8673 317.224,-29.5113"/>
<polygon fill="midnightblue" stroke="midnightblue" points="319.615,-26.9334 310.35,-21.7948 314.389,-31.5897 319.615,-26.9334"/>
</g>
<!-- Node13&#45;&gt;Node9 -->
<g id="edge40" class="edge"><title>Node13&#45;&gt;Node9</title>
<path fill="none" stroke="midnightblue" d="M471.155,-119.261C515.345,-110.955 586.998,-96.9396 657.649,-80.2223"/>
<polygon fill="midnightblue" stroke="midnightblue" points="658.694,-83.5713 667.608,-77.8458 657.069,-76.7624 658.694,-83.5713"/>
</g>
<!-- Node13&#45;&gt;Node13 -->
<g id="edge42" class="edge"><title>Node13&#45;&gt;Node13</title>
<path fill="none" stroke="midnightblue" d="M459.563,-137.524C475.083,-139.061 489,-135.553 489,-127 489,-120.385 480.675,-116.788 469.722,-116.208"/>
<polygon fill="midnightblue" stroke="midnightblue" points="469.467,-112.714 459.563,-116.476 469.652,-119.711 469.467,-112.714"/>
</g>
<!-- Node14 -->
<g id="node36" class="node"><title>Node14</title>
<a xlink:href="HostWindowData_8h.htm" target="_top" xlink:title="HostWindowData.h">
<polygon fill="white" stroke="black" points="375.5,-58.5 375.5,-79.5 482.5,-79.5 482.5,-58.5 375.5,-58.5"/>
<text text-anchor="middle" x="429" y="-66.5" font-family="Helvetica,sans-Serif" font-size="10.00">HostWindowData.h</text>
</a>
</g>
<!-- Node13&#45;&gt;Node14 -->
<g id="edge44" class="edge"><title>Node13&#45;&gt;Node14</title>
<path fill="none" stroke="midnightblue" d="M429,-116.362C429,-108.922 429,-98.7427 429,-89.7276"/>
<polygon fill="midnightblue" stroke="midnightblue" points="432.5,-89.5706 429,-79.5707 425.5,-89.5707 432.5,-89.5706"/>
</g>
<!-- Node17 -->
<g id="node43" class="node"><title>Node17</title>
<a xlink:href="InputClient_8h.htm" target="_top" xlink:title="InputClient.h">
<polygon fill="white" stroke="black" points="793.5,-58.5 793.5,-79.5 868.5,-79.5 868.5,-58.5 793.5,-58.5"/>
<text text-anchor="middle" x="831" y="-66.5" font-family="Helvetica,sans-Serif" font-size="10.00">InputClient.h</text>
</a>
</g>
<!-- Node13&#45;&gt;Node17 -->
<g id="edge52" class="edge"><title>Node13&#45;&gt;Node17</title>
<path fill="none" stroke="midnightblue" d="M471.261,-120.903C546.695,-110.019 704.021,-87.3203 783.244,-75.8902"/>
<polygon fill="midnightblue" stroke="midnightblue" points="784.03,-79.3131 793.428,-74.4209 783.03,-72.3848 784.03,-79.3131"/>
</g>
<!-- Node19 -->
<g id="node48" class="node"><title>Node19</title>
<polygon fill="white" stroke="#bfbfbf" points="104,-58.5 104,-79.5 178,-79.5 178,-58.5 104,-58.5"/>
<text text-anchor="middle" x="141" y="-66.5" font-family="Helvetica,sans-Serif" font-size="10.00">PIpcBuffer.h</text>
</g>
<!-- Node13&#45;&gt;Node19 -->
<g id="edge58" class="edge"><title>Node13&#45;&gt;Node19</title>
<path fill="none" stroke="midnightblue" d="M386.918,-119.393C340.633,-110.901 263.814,-96.439 188.288,-80.2175"/>
<polygon fill="midnightblue" stroke="midnightblue" points="188.639,-76.7128 178.126,-78.0223 187.161,-83.555 188.639,-76.7128"/>
</g>
<!-- Node20 -->
<g id="node50" class="node"><title>Node20</title>
<polygon fill="white" stroke="#bfbfbf" points="196,-58.5 196,-79.5 320,-79.5 320,-58.5 196,-58.5"/>
<text text-anchor="middle" x="258" y="-66.5" font-family="Helvetica,sans-Serif" font-size="10.00">PIpcChannelListener.h</text>
</g>
<!-- Node13&#45;&gt;Node20 -->
<g id="edge60" class="edge"><title>Node13&#45;&gt;Node20</title>
<path fill="none" stroke="midnightblue" d="M398.033,-116.497C370.156,-107.041 329.003,-93.0829 298.518,-82.7428"/>
<polygon fill="midnightblue" stroke="midnightblue" points="299.619,-79.4207 289.025,-79.5231 297.371,-86.0497 299.619,-79.4207"/>
</g>
<!-- Node14&#45;&gt;Node2 -->
<g id="edge46" class="edge"><title>Node14&#45;&gt;Node2</title>
<path fill="none" stroke="midnightblue" d="M405.82,-58.4966C385.648,-49.3562 356.19,-36.0082 333.636,-25.7883"/>
<polygon fill="midnightblue" stroke="midnightblue" points="334.993,-22.5606 324.44,-21.6212 332.104,-28.9366 334.993,-22.5606"/>
</g>
<!-- Node14&#45;&gt;Node15 -->
<g id="edge48" class="edge"><title>Node14&#45;&gt;Node15</title>
<path fill="none" stroke="midnightblue" d="M439.271,-58.3619C447.244,-50.1043 458.475,-38.4725 467.811,-28.8029"/>
<polygon fill="midnightblue" stroke="midnightblue" points="470.366,-31.1958 474.794,-21.5707 465.33,-26.3336 470.366,-31.1958"/>
</g>
<!-- Node16 -->
<g id="node41" class="node"><title>Node16</title>
<polygon fill="white" stroke="#bfbfbf" points="352,-0.5 352,-21.5 438,-21.5 438,-0.5 352,-0.5"/>
<text text-anchor="middle" x="395" y="-8.5" font-family="Helvetica,sans-Serif" font-size="10.00">PIpcChannel.h</text>
</g>
<!-- Node14&#45;&gt;Node16 -->
<g id="edge50" class="edge"><title>Node14&#45;&gt;Node16</title>
<path fill="none" stroke="midnightblue" d="M422.764,-58.3619C418.163,-50.5131 411.775,-39.6159 406.286,-30.2527"/>
<polygon fill="midnightblue" stroke="midnightblue" points="409.273,-28.4276 401.197,-21.5707 403.234,-31.9677 409.273,-28.4276"/>
</g>
<!-- Node17&#45;&gt;Node4 -->
<g id="edge56" class="edge"><title>Node17&#45;&gt;Node4</title>
<path fill="none" stroke="midnightblue" d="M856.715,-58.4966C880.563,-48.7558 916.11,-34.2366 941.62,-23.8171"/>
<polygon fill="midnightblue" stroke="midnightblue" points="943.264,-26.9267 951.198,-19.9052 940.617,-20.4464 943.264,-26.9267"/>
</g>
<!-- Node18 -->
<g id="node45" class="node"><title>Node18</title>
<polygon fill="white" stroke="#bfbfbf" points="836,-0.5 836,-21.5 934,-21.5 934,-0.5 836,-0.5"/>
<text text-anchor="middle" x="885" y="-8.5" font-family="Helvetica,sans-Serif" font-size="10.00">palmimedefines.h</text>
</g>
<!-- Node17&#45;&gt;Node18 -->
<g id="edge54" class="edge"><title>Node17&#45;&gt;Node18</title>
<path fill="none" stroke="midnightblue" d="M840.904,-58.3619C848.516,-50.1861 859.208,-38.7025 868.157,-29.0907"/>
<polygon fill="midnightblue" stroke="midnightblue" points="870.906,-31.2746 875.158,-21.5707 865.783,-26.5046 870.906,-31.2746"/>
</g>
<!-- Node22&#45;&gt;Node2 -->
<g id="edge68" class="edge"><title>Node22&#45;&gt;Node2</title>
<path fill="none" stroke="midnightblue" d="M597.841,-64.9352C541.12,-56.0737 407.452,-34.9224 344.965,-22.2584"/>
<polygon fill="midnightblue" stroke="midnightblue" points="345.367,-18.7671 334.863,-20.1498 343.937,-25.6194 345.367,-18.7671"/>
</g>
<!-- Node22&#45;&gt;Node8 -->
<g id="edge70" class="edge"><title>Node22&#45;&gt;Node8</title>
<path fill="none" stroke="midnightblue" d="M610.794,-58.3619C600.239,-49.859 585.242,-37.7785 573.037,-27.9466"/>
<polygon fill="midnightblue" stroke="midnightblue" points="575.105,-25.1183 565.122,-21.5707 570.714,-30.5696 575.105,-25.1183"/>
</g>
<!-- Node22&#45;&gt;Node10 -->
<g id="edge72" class="edge"><title>Node22&#45;&gt;Node10</title>
<path fill="none" stroke="midnightblue" d="M622.349,-58.3619C621.195,-50.9219 619.615,-40.7427 618.216,-31.7276"/>
<polygon fill="midnightblue" stroke="midnightblue" points="621.632,-30.9157 616.64,-21.5707 614.715,-31.9891 621.632,-30.9157"/>
</g>
</g>
</svg>
