<?xml version="1.0" encoding="UTF-8" standalone="no"?>
<!DOCTYPE svg PUBLIC "-//W3C//DTD SVG 1.1//EN"
 "http://www.w3.org/Graphics/SVG/1.1/DTD/svg11.dtd">
<!-- Generated by graphviz version 2.26.3 (20100126.1600)
 -->
<!-- Title: G Pages: 1 -->
<svg width="1513pt" height="204pt"
 viewBox="0.00 0.00 1513.00 204.00" xmlns="http://www.w3.org/2000/svg" xmlns:xlink="http://www.w3.org/1999/xlink">
<g id="graph1" class="graph" transform="scale(1 1) rotate(0) translate(4 200)">
<title>G</title>
<polygon fill="white" stroke="white" points="-4,5 -4,-200 1510,-200 1510,5 -4,5"/>
<!-- Node1 -->
<g id="node1" class="node"><title>Node1</title>
<polygon fill="#bfbfbf" stroke="black" points="384.5,-174.5 384.5,-195.5 515.5,-195.5 515.5,-174.5 384.5,-174.5"/>
<text text-anchor="middle" x="450" y="-182.5" font-family="Helvetica,sans-Serif" font-size="10.00">PackageDescription.cpp</text>
</g>
<!-- Node2 -->
<g id="node3" class="node"><title>Node2</title>
<polygon fill="white" stroke="#bfbfbf" points="284.5,-116.5 284.5,-137.5 331.5,-137.5 331.5,-116.5 284.5,-116.5"/>
<text text-anchor="middle" x="308" y="-124.5" font-family="Helvetica,sans-Serif" font-size="10.00">stdio.h</text>
</g>
<!-- Node1&#45;&gt;Node2 -->
<g id="edge2" class="edge"><title>Node1&#45;&gt;Node2</title>
<path fill="none" stroke="midnightblue" d="M424.285,-174.497C401.001,-164.986 366.566,-150.921 341.208,-140.564"/>
<polygon fill="midnightblue" stroke="midnightblue" points="342.218,-137.196 331.636,-136.654 339.571,-143.676 342.218,-137.196"/>
</g>
<!-- Node3 -->
<g id="node5" class="node"><title>Node3</title>
<polygon fill="white" stroke="#bfbfbf" points="551.5,-0.5 551.5,-21.5 592.5,-21.5 592.5,-0.5 551.5,-0.5"/>
<text text-anchor="middle" x="572" y="-8.5" font-family="Helvetica,sans-Serif" font-size="10.00">glib.h</text>
</g>
<!-- Node1&#45;&gt;Node3 -->
<g id="edge4" class="edge"><title>Node1&#45;&gt;Node3</title>
<path fill="none" stroke="midnightblue" d="M446.758,-174.261C440.358,-150.746 428.794,-93.9406 454,-58 455.35,-56.0744 507.337,-35.8302 541.85,-22.5462"/>
<polygon fill="midnightblue" stroke="midnightblue" points="543.415,-25.6943 551.494,-18.84 540.904,-19.1601 543.415,-25.6943"/>
</g>
<!-- Node4 -->
<g id="node7" class="node"><title>Node4</title>
<a xlink:href="PackageDescription_8h.htm" target="_top" xlink:title="PackageDescription.h">
<polygon fill="white" stroke="black" points="932.5,-58.5 932.5,-79.5 1051.5,-79.5 1051.5,-58.5 932.5,-58.5"/>
<text text-anchor="middle" x="992" y="-66.5" font-family="Helvetica,sans-Serif" font-size="10.00">PackageDescription.h</text>
</a>
</g>
<!-- Node1&#45;&gt;Node4 -->
<g id="edge6" class="edge"><title>Node1&#45;&gt;Node4</title>
<path fill="none" stroke="midnightblue" d="M499.536,-174.398C599.534,-152.996 825.135,-104.713 932.739,-81.6832"/>
<polygon fill="midnightblue" stroke="midnightblue" points="933.729,-85.0506 942.775,-79.5352 932.264,-78.2056 933.729,-85.0506"/>
</g>
<!-- Node9 -->
<g id="node17" class="node"><title>Node9</title>
<a xlink:href="ApplicationDescription_8h.htm" target="_top" xlink:title="ApplicationDescription.h">
<polygon fill="white" stroke="black" points="490,-116.5 490,-137.5 620,-137.5 620,-116.5 490,-116.5"/>
<text text-anchor="middle" x="555" y="-124.5" font-family="Helvetica,sans-Serif" font-size="10.00">ApplicationDescription.h</text>
</a>
</g>
<!-- Node1&#45;&gt;Node9 -->
<g id="edge16" class="edge"><title>Node1&#45;&gt;Node9</title>
<path fill="none" stroke="midnightblue" d="M469.259,-174.362C485.466,-165.409 508.853,-152.491 527.109,-142.406"/>
<polygon fill="midnightblue" stroke="midnightblue" points="528.802,-145.47 535.863,-137.571 525.418,-139.342 528.802,-145.47"/>
</g>
<!-- Node23 -->
<g id="node60" class="node"><title>Node23</title>
<a xlink:href="Utils_8h.htm" target="_top" xlink:title="Utils.h">
<polygon fill="white" stroke="black" points="1068.5,-58.5 1068.5,-79.5 1113.5,-79.5 1113.5,-58.5 1068.5,-58.5"/>
<text text-anchor="middle" x="1091" y="-66.5" font-family="Helvetica,sans-Serif" font-size="10.00">Utils.h</text>
</a>
</g>
<!-- Node1&#45;&gt;Node23 -->
<g id="edge74" class="edge"><title>Node1&#45;&gt;Node23</title>
<path fill="none" stroke="midnightblue" d="M515.814,-177.545C626.717,-164.14 857.626,-132.601 1058.6,-80.0828"/>
<polygon fill="midnightblue" stroke="midnightblue" points="1059.67,-83.4197 1068.45,-77.4856 1057.89,-76.6511 1059.67,-83.4197"/>
</g>
<!-- Node30 -->
<g id="node79" class="node"><title>Node30</title>
<a xlink:href="Settings_8h.htm" target="_top" xlink:title="Settings.h">
<polygon fill="white" stroke="black" points="306.5,-58.5 306.5,-79.5 369.5,-79.5 369.5,-58.5 306.5,-58.5"/>
<text text-anchor="middle" x="338" y="-66.5" font-family="Helvetica,sans-Serif" font-size="10.00">Settings.h</text>
</a>
</g>
<!-- Node1&#45;&gt;Node30 -->
<g id="edge98" class="edge"><title>Node1&#45;&gt;Node30</title>
<path fill="none" stroke="midnightblue" d="M430.914,-174.33C416.643,-165.743 397.221,-152.71 383,-138 368.785,-123.296 356.41,-103.489 348.254,-88.8687"/>
<polygon fill="midnightblue" stroke="midnightblue" points="351.138,-86.8426 343.312,-79.7016 344.977,-90.1647 351.138,-86.8426"/>
</g>
<!-- Node5 -->
<g id="node9" class="node"><title>Node5</title>
<polygon fill="white" stroke="#bfbfbf" points="658.5,-0.5 658.5,-21.5 701.5,-21.5 701.5,-0.5 658.5,-0.5"/>
<text text-anchor="middle" x="680" y="-8.5" font-family="Helvetica,sans-Serif" font-size="10.00">string</text>
</g>
<!-- Node4&#45;&gt;Node5 -->
<g id="edge8" class="edge"><title>Node4&#45;&gt;Node5</title>
<path fill="none" stroke="midnightblue" d="M932.449,-62.3487C877.15,-55.4371 792.51,-42.9892 711.645,-22.1162"/>
<polygon fill="midnightblue" stroke="midnightblue" points="712.366,-18.6868 701.804,-19.5288 710.586,-25.4567 712.366,-18.6868"/>
</g>
<!-- Node6 -->
<g id="node11" class="node"><title>Node6</title>
<polygon fill="white" stroke="#bfbfbf" points="773,-0.5 773,-21.5 823,-21.5 823,-0.5 773,-0.5"/>
<text text-anchor="middle" x="798" y="-8.5" font-family="Helvetica,sans-Serif" font-size="10.00">stdint.h</text>
</g>
<!-- Node4&#45;&gt;Node6 -->
<g id="edge10" class="edge"><title>Node4&#45;&gt;Node6</title>
<path fill="none" stroke="midnightblue" d="M955.056,-58.4564C924.665,-49.7143 880.238,-36.778 833.022,-22.2667"/>
<polygon fill="midnightblue" stroke="midnightblue" points="833.814,-18.8485 823.227,-19.2459 831.751,-25.5376 833.814,-18.8485"/>
</g>
<!-- Node7 -->
<g id="node13" class="node"><title>Node7</title>
<polygon fill="white" stroke="#bfbfbf" points="841,-0.5 841,-21.5 887,-21.5 887,-0.5 841,-0.5"/>
<text text-anchor="middle" x="864" y="-8.5" font-family="Helvetica,sans-Serif" font-size="10.00">vector</text>
</g>
<!-- Node4&#45;&gt;Node7 -->
<g id="edge12" class="edge"><title>Node4&#45;&gt;Node7</title>
<path fill="none" stroke="midnightblue" d="M968.82,-58.4966C948.522,-49.299 918.822,-35.8411 896.214,-25.597"/>
<polygon fill="midnightblue" stroke="midnightblue" points="897.561,-22.3646 887.007,-21.4252 894.671,-28.7406 897.561,-22.3646"/>
</g>
<!-- Node8 -->
<g id="node15" class="node"><title>Node8</title>
<polygon fill="white" stroke="#bfbfbf" points="975,-0.5 975,-21.5 1047,-21.5 1047,-0.5 975,-0.5"/>
<text text-anchor="middle" x="1011" y="-8.5" font-family="Helvetica,sans-Serif" font-size="10.00">cjson/json.h</text>
</g>
<!-- Node4&#45;&gt;Node8 -->
<g id="edge14" class="edge"><title>Node4&#45;&gt;Node8</title>
<path fill="none" stroke="midnightblue" d="M995.485,-58.3619C997.976,-50.7584 1001.4,-40.294 1004.4,-31.1349"/>
<polygon fill="midnightblue" stroke="midnightblue" points="1007.75,-32.1634 1007.54,-21.5707 1001.1,-29.9841 1007.75,-32.1634"/>
</g>
<!-- Node9&#45;&gt;Node5 -->
<g id="edge20" class="edge"><title>Node9&#45;&gt;Node5</title>
<path fill="none" stroke="midnightblue" d="M615.482,-116.427C636.909,-109.603 659.12,-98.3944 673,-80 683.287,-66.3669 684.324,-46.6583 683.202,-31.7921"/>
<polygon fill="midnightblue" stroke="midnightblue" points="686.645,-31.091 682.042,-21.5486 679.69,-31.8791 686.645,-31.091"/>
</g>
<!-- Node9&#45;&gt;Node6 -->
<g id="edge22" class="edge"><title>Node9&#45;&gt;Node6</title>
<path fill="none" stroke="midnightblue" d="M620.289,-122.278C711.757,-114.99 868.855,-99.7517 886,-80 906.645,-56.2169 865.791,-34.8691 833.088,-22.42"/>
<polygon fill="midnightblue" stroke="midnightblue" points="833.871,-18.9806 823.277,-18.8493 831.477,-25.5585 833.871,-18.9806"/>
</g>
<!-- Node10 -->
<g id="node19" class="node"><title>Node10</title>
<a xlink:href="Common_8h.htm" target="_top" xlink:title="Common.h">
<polygon fill="white" stroke="black" points="467.5,-0.5 467.5,-21.5 534.5,-21.5 534.5,-0.5 467.5,-0.5"/>
<text text-anchor="middle" x="501" y="-8.5" font-family="Helvetica,sans-Serif" font-size="10.00">Common.h</text>
</a>
</g>
<!-- Node9&#45;&gt;Node10 -->
<g id="edge18" class="edge"><title>Node9&#45;&gt;Node10</title>
<path fill="none" stroke="midnightblue" d="M506.135,-116.453C486.433,-109.543 465.646,-98.2642 454,-80 442.482,-61.9355 459.933,-41.7283 476.741,-27.8751"/>
<polygon fill="midnightblue" stroke="midnightblue" points="479.05,-30.5139 484.811,-21.622 474.762,-24.9807 479.05,-30.5139"/>
</g>
<!-- Node11 -->
<g id="node23" class="node"><title>Node11</title>
<polygon fill="white" stroke="#bfbfbf" points="265.5,-0.5 265.5,-21.5 296.5,-21.5 296.5,-0.5 265.5,-0.5"/>
<text text-anchor="middle" x="281" y="-8.5" font-family="Helvetica,sans-Serif" font-size="10.00">set</text>
</g>
<!-- Node9&#45;&gt;Node11 -->
<g id="edge24" class="edge"><title>Node9&#45;&gt;Node11</title>
<path fill="none" stroke="midnightblue" d="M489.776,-123.029C422.941,-117.61 325.086,-105.49 298,-80 284.987,-67.7532 281.257,-47.2762 280.471,-31.8027"/>
<polygon fill="midnightblue" stroke="midnightblue" points="283.969,-31.5593 280.329,-21.6091 276.969,-31.6569 283.969,-31.5593"/>
</g>
<!-- Node12 -->
<g id="node25" class="node"><title>Node12</title>
<polygon fill="white" stroke="#bfbfbf" points="609.5,-0.5 609.5,-21.5 638.5,-21.5 638.5,-0.5 609.5,-0.5"/>
<text text-anchor="middle" x="624" y="-8.5" font-family="Helvetica,sans-Serif" font-size="10.00">list</text>
</g>
<!-- Node9&#45;&gt;Node12 -->
<g id="edge26" class="edge"><title>Node9&#45;&gt;Node12</title>
<path fill="none" stroke="midnightblue" d="M605.613,-116.416C625.459,-109.524 646.255,-98.2698 658,-80 668.602,-63.5079 655.862,-43.2386 643.065,-28.9485"/>
<polygon fill="midnightblue" stroke="midnightblue" points="645.547,-26.4796 636.098,-21.6867 640.496,-31.3258 645.547,-26.4796"/>
</g>
<!-- Node13 -->
<g id="node27" class="node"><title>Node13</title>
<a xlink:href="GraphicsDefs_8h.htm" target="_top" xlink:title="GraphicsDefs.h">
<polygon fill="white" stroke="black" points="162.5,-58.5 162.5,-79.5 251.5,-79.5 251.5,-58.5 162.5,-58.5"/>
<text text-anchor="middle" x="207" y="-66.5" font-family="Helvetica,sans-Serif" font-size="10.00">GraphicsDefs.h</text>
</a>
</g>
<!-- Node9&#45;&gt;Node13 -->
<g id="edge28" class="edge"><title>Node9&#45;&gt;Node13</title>
<path fill="none" stroke="midnightblue" d="M489.841,-116.95C431.011,-107.755 342.109,-93.558 265,-80 263.915,-79.8092 262.819,-79.615 261.714,-79.4181"/>
<polygon fill="midnightblue" stroke="midnightblue" points="262.09,-75.9293 251.626,-77.5882 260.841,-82.8169 262.09,-75.9293"/>
</g>
<!-- Node17 -->
<g id="node36" class="node"><title>Node17</title>
<a xlink:href="LaunchPoint_8h.htm" target="_top" xlink:title="LaunchPoint.h">
<polygon fill="white" stroke="black" points="462.5,-58.5 462.5,-79.5 545.5,-79.5 545.5,-58.5 462.5,-58.5"/>
<text text-anchor="middle" x="504" y="-66.5" font-family="Helvetica,sans-Serif" font-size="10.00">LaunchPoint.h</text>
</a>
</g>
<!-- Node9&#45;&gt;Node17 -->
<g id="edge38" class="edge"><title>Node9&#45;&gt;Node17</title>
<path fill="none" stroke="midnightblue" d="M545.646,-116.362C538.457,-108.186 528.359,-96.7025 519.907,-87.0907"/>
<polygon fill="midnightblue" stroke="midnightblue" points="522.527,-84.7692 513.295,-79.5707 517.27,-89.3916 522.527,-84.7692"/>
</g>
<!-- Node19 -->
<g id="node44" class="node"><title>Node19</title>
<a xlink:href="KeywordMap_8h.htm" target="_top" xlink:title="KeywordMap.h">
<polygon fill="white" stroke="black" points="562.5,-58.5 562.5,-79.5 649.5,-79.5 649.5,-58.5 562.5,-58.5"/>
<text text-anchor="middle" x="606" y="-66.5" font-family="Helvetica,sans-Serif" font-size="10.00">KeywordMap.h</text>
</a>
</g>
<!-- Node9&#45;&gt;Node19 -->
<g id="edge50" class="edge"><title>Node9&#45;&gt;Node19</title>
<path fill="none" stroke="midnightblue" d="M564.354,-116.362C571.543,-108.186 581.641,-96.7025 590.093,-87.0907"/>
<polygon fill="midnightblue" stroke="midnightblue" points="592.73,-89.3916 596.705,-79.5707 587.473,-84.7692 592.73,-89.3916"/>
</g>
<!-- Node20 -->
<g id="node50" class="node"><title>Node20</title>
<a xlink:href="CmdResourceHandlers_8h.htm" target="_top" xlink:title="CmdResourceHandlers.h">
<polygon fill="white" stroke="black" points="743,-58.5 743,-79.5 877,-79.5 877,-58.5 743,-58.5"/>
<text text-anchor="middle" x="810" y="-66.5" font-family="Helvetica,sans-Serif" font-size="10.00">CmdResourceHandlers.h</text>
</a>
</g>
<!-- Node9&#45;&gt;Node20 -->
<g id="edge60" class="edge"><title>Node9&#45;&gt;Node20</title>
<path fill="none" stroke="midnightblue" d="M601.179,-116.497C644.1,-106.734 708.124,-92.1718 753.956,-81.7474"/>
<polygon fill="midnightblue" stroke="midnightblue" points="754.76,-85.1538 763.735,-79.5231 753.208,-78.3282 754.76,-85.1538"/>
</g>
<!-- Node13&#45;&gt;Node10 -->
<g id="edge30" class="edge"><title>Node13&#45;&gt;Node10</title>
<path fill="none" stroke="midnightblue" d="M251.808,-61.6426C300.278,-53.4617 380.029,-39.3589 457.235,-22.2998"/>
<polygon fill="midnightblue" stroke="midnightblue" points="458.126,-25.6872 467.125,-20.095 456.603,-18.8549 458.126,-25.6872"/>
</g>
<!-- Node14 -->
<g id="node30" class="node"><title>Node14</title>
<polygon fill="white" stroke="#bfbfbf" points="-0.5,-0.5 -0.5,-21.5 76.5,-21.5 76.5,-0.5 -0.5,-0.5"/>
<text text-anchor="middle" x="38" y="-8.5" font-family="Helvetica,sans-Serif" font-size="10.00">PGContext.h</text>
</g>
<!-- Node13&#45;&gt;Node14 -->
<g id="edge32" class="edge"><title>Node13&#45;&gt;Node14</title>
<path fill="none" stroke="midnightblue" d="M176.395,-58.4966C148.963,-49.082 108.524,-35.2036 78.4356,-24.8773"/>
<polygon fill="midnightblue" stroke="midnightblue" points="79.2567,-21.4588 68.662,-21.5231 76.9843,-28.0797 79.2567,-21.4588"/>
</g>
<!-- Node15 -->
<g id="node32" class="node"><title>Node15</title>
<polygon fill="white" stroke="#bfbfbf" points="94,-0.5 94,-21.5 170,-21.5 170,-0.5 94,-0.5"/>
<text text-anchor="middle" x="132" y="-8.5" font-family="Helvetica,sans-Serif" font-size="10.00">PGSurface.h</text>
</g>
<!-- Node13&#45;&gt;Node15 -->
<g id="edge34" class="edge"><title>Node13&#45;&gt;Node15</title>
<path fill="none" stroke="midnightblue" d="M193.244,-58.3619C182.249,-49.859 166.627,-37.7785 153.914,-27.9466"/>
<polygon fill="midnightblue" stroke="midnightblue" points="155.721,-24.9195 145.669,-21.5707 151.438,-30.4569 155.721,-24.9195"/>
</g>
<!-- Node16 -->
<g id="node34" class="node"><title>Node16</title>
<polygon fill="white" stroke="#bfbfbf" points="187.5,-0.5 187.5,-21.5 248.5,-21.5 248.5,-0.5 187.5,-0.5"/>
<text text-anchor="middle" x="218" y="-8.5" font-family="Helvetica,sans-Serif" font-size="10.00">PGFont.h</text>
</g>
<!-- Node13&#45;&gt;Node16 -->
<g id="edge36" class="edge"><title>Node13&#45;&gt;Node16</title>
<path fill="none" stroke="midnightblue" d="M209.018,-58.3619C210.444,-50.8401 212.402,-40.5187 214.125,-31.4308"/>
<polygon fill="midnightblue" stroke="midnightblue" points="217.571,-32.0477 215.995,-21.5707 210.693,-30.7433 217.571,-32.0477"/>
</g>
<!-- Node17&#45;&gt;Node3 -->
<g id="edge48" class="edge"><title>Node17&#45;&gt;Node3</title>
<path fill="none" stroke="midnightblue" d="M516.472,-58.3619C526.345,-49.9408 540.333,-38.0105 551.798,-28.2308"/>
<polygon fill="midnightblue" stroke="midnightblue" points="554.27,-30.7231 559.607,-21.5707 549.727,-25.3972 554.27,-30.7231"/>
</g>
<!-- Node17&#45;&gt;Node5 -->
<g id="edge42" class="edge"><title>Node17&#45;&gt;Node5</title>
<path fill="none" stroke="midnightblue" d="M536.101,-58.4919C565.092,-48.992 608.918,-34.6052 647,-22 647.573,-21.8102 648.152,-21.6185 648.735,-21.4253"/>
<polygon fill="midnightblue" stroke="midnightblue" points="649.962,-24.7061 658.348,-18.2318 647.755,-18.0631 649.962,-24.7061"/>
</g>
<!-- Node17&#45;&gt;Node10 -->
<g id="edge40" class="edge"><title>Node17&#45;&gt;Node10</title>
<path fill="none" stroke="midnightblue" d="M503.45,-58.3619C503.065,-50.9219 502.538,-40.7427 502.072,-31.7276"/>
<polygon fill="midnightblue" stroke="midnightblue" points="505.559,-31.3765 501.547,-21.5707 498.568,-31.7381 505.559,-31.3765"/>
</g>
<!-- Node17&#45;&gt;Node12 -->
<g id="edge44" class="edge"><title>Node17&#45;&gt;Node12</title>
<path fill="none" stroke="midnightblue" d="M525.731,-58.4966C546.699,-48.362 578.369,-33.0549 600.054,-22.5741"/>
<polygon fill="midnightblue" stroke="midnightblue" points="601.759,-25.6372 609.24,-18.1342 598.713,-19.3347 601.759,-25.6372"/>
</g>
<!-- Node18 -->
<g id="node41" class="node"><title>Node18</title>
<polygon fill="white" stroke="#bfbfbf" points="391.5,-0.5 391.5,-21.5 450.5,-21.5 450.5,-0.5 391.5,-0.5"/>
<text text-anchor="middle" x="421" y="-8.5" font-family="Helvetica,sans-Serif" font-size="10.00">QPixmap</text>
</g>
<!-- Node17&#45;&gt;Node18 -->
<g id="edge46" class="edge"><title>Node17&#45;&gt;Node18</title>
<path fill="none" stroke="midnightblue" d="M488.777,-58.3619C476.375,-49.6955 458.654,-37.3126 444.443,-27.3819"/>
<polygon fill="midnightblue" stroke="midnightblue" points="446.329,-24.4297 436.127,-21.5707 442.319,-30.1676 446.329,-24.4297"/>
</g>
<!-- Node19&#45;&gt;Node3 -->
<g id="edge58" class="edge"><title>Node19&#45;&gt;Node3</title>
<path fill="none" stroke="midnightblue" d="M599.764,-58.3619C595.163,-50.5131 588.775,-39.6159 583.286,-30.2527"/>
<polygon fill="midnightblue" stroke="midnightblue" points="586.273,-28.4276 578.197,-21.5707 580.234,-31.9677 586.273,-28.4276"/>
</g>
<!-- Node19&#45;&gt;Node5 -->
<g id="edge54" class="edge"><title>Node19&#45;&gt;Node5</title>
<path fill="none" stroke="midnightblue" d="M619.573,-58.3619C630.421,-49.859 645.834,-37.7785 658.379,-27.9466"/>
<polygon fill="midnightblue" stroke="midnightblue" points="660.802,-30.4942 666.513,-21.5707 656.484,-24.9848 660.802,-30.4942"/>
</g>
<!-- Node19&#45;&gt;Node10 -->
<g id="edge52" class="edge"><title>Node19&#45;&gt;Node10</title>
<path fill="none" stroke="midnightblue" d="M586.741,-58.3619C570.534,-49.4094 547.147,-36.4908 528.891,-26.4064"/>
<polygon fill="midnightblue" stroke="midnightblue" points="530.582,-23.3422 520.137,-21.5707 527.198,-29.4696 530.582,-23.3422"/>
</g>
<!-- Node19&#45;&gt;Node12 -->
<g id="edge56" class="edge"><title>Node19&#45;&gt;Node12</title>
<path fill="none" stroke="midnightblue" d="M609.301,-58.3619C611.661,-50.7584 614.909,-40.294 617.751,-31.1349"/>
<polygon fill="midnightblue" stroke="midnightblue" points="621.098,-32.1587 620.719,-21.5707 614.413,-30.0839 621.098,-32.1587"/>
</g>
<!-- Node20&#45;&gt;Node5 -->
<g id="edge68" class="edge"><title>Node20&#45;&gt;Node5</title>
<path fill="none" stroke="midnightblue" d="M786.458,-58.4966C765.33,-49.0705 734.174,-35.1698 711.02,-24.8395"/>
<polygon fill="midnightblue" stroke="midnightblue" points="712.197,-21.5325 701.639,-20.6543 709.345,-27.9251 712.197,-21.5325"/>
</g>
<!-- Node20&#45;&gt;Node6 -->
<g id="edge66" class="edge"><title>Node20&#45;&gt;Node6</title>
<path fill="none" stroke="midnightblue" d="M807.799,-58.3619C806.243,-50.8401 804.107,-40.5187 802.227,-31.4308"/>
<polygon fill="midnightblue" stroke="midnightblue" points="805.641,-30.6541 800.187,-21.5707 798.786,-32.0724 805.641,-30.6541"/>
</g>
<!-- Node20&#45;&gt;Node7 -->
<g id="edge70" class="edge"><title>Node20&#45;&gt;Node7</title>
<path fill="none" stroke="midnightblue" d="M819.904,-58.3619C827.516,-50.1861 838.208,-38.7025 847.157,-29.0907"/>
<polygon fill="midnightblue" stroke="midnightblue" points="849.906,-31.2746 854.158,-21.5707 844.783,-26.5046 849.906,-31.2746"/>
</g>
<!-- Node20&#45;&gt;Node10 -->
<g id="edge62" class="edge"><title>Node20&#45;&gt;Node10</title>
<path fill="none" stroke="midnightblue" d="M742.768,-58.7294C690.924,-50.4503 617.252,-37.9093 544.64,-22.2524"/>
<polygon fill="midnightblue" stroke="midnightblue" points="545.384,-18.8324 534.869,-20.1248 543.895,-25.6722 545.384,-18.8324"/>
</g>
<!-- Node21 -->
<g id="node53" class="node"><title>Node21</title>
<polygon fill="white" stroke="#bfbfbf" points="905,-0.5 905,-21.5 957,-21.5 957,-0.5 905,-0.5"/>
<text text-anchor="middle" x="931" y="-8.5" font-family="Helvetica,sans-Serif" font-size="10.00">regex.h</text>
</g>
<!-- Node20&#45;&gt;Node21 -->
<g id="edge64" class="edge"><title>Node20&#45;&gt;Node21</title>
<path fill="none" stroke="midnightblue" d="M831.912,-58.4966C850.811,-49.4378 878.331,-36.2462 899.576,-26.0628"/>
<polygon fill="midnightblue" stroke="midnightblue" points="901.337,-29.0999 908.842,-21.6212 898.311,-22.7876 901.337,-29.0999"/>
</g>
<!-- Node22 -->
<g id="node58" class="node"><title>Node22</title>
<polygon fill="white" stroke="#bfbfbf" points="718.5,-0.5 718.5,-21.5 755.5,-21.5 755.5,-0.5 718.5,-0.5"/>
<text text-anchor="middle" x="737" y="-8.5" font-family="Helvetica,sans-Serif" font-size="10.00">map</text>
</g>
<!-- Node20&#45;&gt;Node22 -->
<g id="edge72" class="edge"><title>Node20&#45;&gt;Node22</title>
<path fill="none" stroke="midnightblue" d="M796.611,-58.3619C785.909,-49.859 770.704,-37.7785 758.329,-27.9466"/>
<polygon fill="midnightblue" stroke="midnightblue" points="760.311,-25.0511 750.304,-21.5707 755.957,-30.5318 760.311,-25.0511"/>
</g>
<!-- Node23&#45;&gt;Node3 -->
<g id="edge96" class="edge"><title>Node23&#45;&gt;Node3</title>
<path fill="none" stroke="midnightblue" d="M1068.17,-60.1448C1065.45,-59.3136 1062.68,-58.5704 1060,-58 863.078,-16.1048 802.62,-65.1075 602.631,-21.8566"/>
<polygon fill="midnightblue" stroke="midnightblue" points="603.211,-18.4005 592.691,-19.6566 601.699,-25.2351 603.211,-18.4005"/>
</g>
<!-- Node23&#45;&gt;Node5 -->
<g id="edge80" class="edge"><title>Node23&#45;&gt;Node5</title>
<path fill="none" stroke="midnightblue" d="M1068.5,-60.3148C1065.67,-59.4302 1062.79,-58.628 1060,-58 910.73,-24.3478 864.353,-55.7774 711.957,-22.0123"/>
<polygon fill="midnightblue" stroke="midnightblue" points="712.291,-18.4989 701.764,-19.6926 710.738,-25.3244 712.291,-18.4989"/>
</g>
<!-- Node23&#45;&gt;Node7 -->
<g id="edge82" class="edge"><title>Node23&#45;&gt;Node7</title>
<path fill="none" stroke="midnightblue" d="M1068.42,-60.62C1065.6,-59.6831 1062.75,-58.7851 1060,-58 991.335,-38.3641 969.697,-41.8071 897.377,-22.1543"/>
<polygon fill="midnightblue" stroke="midnightblue" points="897.893,-18.6652 887.321,-19.3634 896.021,-25.4102 897.893,-18.6652"/>
</g>
<!-- Node23&#45;&gt;Node10 -->
<g id="edge76" class="edge"><title>Node23&#45;&gt;Node10</title>
<path fill="none" stroke="midnightblue" d="M1068.18,-60.1216C1065.45,-59.2946 1062.68,-58.5587 1060,-58 837.694,-11.72 772.138,-57.9927 544.711,-22.0348"/>
<polygon fill="midnightblue" stroke="midnightblue" points="545.24,-18.575 534.809,-20.4339 544.123,-25.4853 545.24,-18.575"/>
</g>
<!-- Node23&#45;&gt;Node21 -->
<g id="edge88" class="edge"><title>Node23&#45;&gt;Node21</title>
<path fill="none" stroke="midnightblue" d="M1068.42,-60.813C1041.99,-51.233 997.892,-35.2482 966.791,-23.9741"/>
<polygon fill="midnightblue" stroke="midnightblue" points="967.783,-20.6109 957.188,-20.4933 965.397,-27.1919 967.783,-20.6109"/>
</g>
<!-- Node24 -->
<g id="node63" class="node"><title>Node24</title>
<polygon fill="white" stroke="#bfbfbf" points="1065,-0.5 1065,-21.5 1109,-21.5 1109,-0.5 1065,-0.5"/>
<text text-anchor="middle" x="1087" y="-8.5" font-family="Helvetica,sans-Serif" font-size="10.00">time.h</text>
</g>
<!-- Node23&#45;&gt;Node24 -->
<g id="edge78" class="edge"><title>Node23&#45;&gt;Node24</title>
<path fill="none" stroke="midnightblue" d="M1090.27,-58.3619C1089.75,-50.9219 1089.05,-40.7427 1088.43,-31.7276"/>
<polygon fill="midnightblue" stroke="midnightblue" points="1091.91,-31.3061 1087.73,-21.5707 1084.93,-31.7878 1091.91,-31.3061"/>
</g>
<!-- Node25 -->
<g id="node67" class="node"><title>Node25</title>
<polygon fill="white" stroke="#bfbfbf" points="1127,-0.5 1127,-21.5 1181,-21.5 1181,-0.5 1127,-0.5"/>
<text text-anchor="middle" x="1154" y="-8.5" font-family="Helvetica,sans-Serif" font-size="10.00">sstream</text>
</g>
<!-- Node23&#45;&gt;Node25 -->
<g id="edge84" class="edge"><title>Node23&#45;&gt;Node25</title>
<path fill="none" stroke="midnightblue" d="M1102.56,-58.3619C1111.61,-50.0226 1124.41,-38.2418 1134.97,-28.5162"/>
<polygon fill="midnightblue" stroke="midnightblue" points="1137.53,-30.9187 1142.52,-21.5707 1132.79,-25.7688 1137.53,-30.9187"/>
</g>
<!-- Node26 -->
<g id="node69" class="node"><title>Node26</title>
<polygon fill="white" stroke="#bfbfbf" points="1198.5,-0.5 1198.5,-21.5 1255.5,-21.5 1255.5,-0.5 1198.5,-0.5"/>
<text text-anchor="middle" x="1227" y="-8.5" font-family="Helvetica,sans-Serif" font-size="10.00">iostream</text>
</g>
<!-- Node23&#45;&gt;Node26 -->
<g id="edge86" class="edge"><title>Node23&#45;&gt;Node26</title>
<path fill="none" stroke="midnightblue" d="M1113.76,-59.2921C1135.39,-50.0681 1168.2,-36.0784 1192.94,-25.5266"/>
<polygon fill="midnightblue" stroke="midnightblue" points="1194.49,-28.6678 1202.32,-21.5254 1191.75,-22.2289 1194.49,-28.6678"/>
</g>
<!-- Node27 -->
<g id="node72" class="node"><title>Node27</title>
<polygon fill="white" stroke="#bfbfbf" points="1272.5,-0.5 1272.5,-21.5 1343.5,-21.5 1343.5,-0.5 1272.5,-0.5"/>
<text text-anchor="middle" x="1308" y="-8.5" font-family="Helvetica,sans-Serif" font-size="10.00">QByteArray</text>
</g>
<!-- Node23&#45;&gt;Node27 -->
<g id="edge90" class="edge"><title>Node23&#45;&gt;Node27</title>
<path fill="none" stroke="midnightblue" d="M1113.81,-62.9026C1148.92,-53.5199 1216.88,-35.3555 1262.35,-23.2007"/>
<polygon fill="midnightblue" stroke="midnightblue" points="1263.5,-26.5159 1272.26,-20.5524 1261.7,-19.7533 1263.5,-26.5159"/>
</g>
<!-- Node28 -->
<g id="node74" class="node"><title>Node28</title>
<polygon fill="white" stroke="#bfbfbf" points="1361,-0.5 1361,-21.5 1399,-21.5 1399,-0.5 1361,-0.5"/>
<text text-anchor="middle" x="1380" y="-8.5" font-family="Helvetica,sans-Serif" font-size="10.00">QUrl</text>
</g>
<!-- Node23&#45;&gt;Node28 -->
<g id="edge92" class="edge"><title>Node23&#45;&gt;Node28</title>
<path fill="none" stroke="midnightblue" d="M1113.68,-66.4371C1157.84,-61.1279 1258.43,-47.4652 1351.09,-21.8444"/>
<polygon fill="midnightblue" stroke="midnightblue" points="1352.22,-25.1624 1360.89,-19.0792 1350.32,-18.4252 1352.22,-25.1624"/>
</g>
<!-- Node29 -->
<g id="node76" class="node"><title>Node29</title>
<polygon fill="white" stroke="#bfbfbf" points="1417,-0.5 1417,-21.5 1505,-21.5 1505,-0.5 1417,-0.5"/>
<text text-anchor="middle" x="1461" y="-8.5" font-family="Helvetica,sans-Serif" font-size="10.00">QGraphicsItem</text>
</g>
<!-- Node23&#45;&gt;Node29 -->
<g id="edge94" class="edge"><title>Node23&#45;&gt;Node29</title>
<path fill="none" stroke="midnightblue" d="M1113.75,-66.0834C1164.45,-59.4873 1290.74,-42.5205 1406.68,-22.1622"/>
<polygon fill="midnightblue" stroke="midnightblue" points="1407.55,-25.5624 1416.79,-20.3736 1406.33,-18.6695 1407.55,-25.5624"/>
</g>
<!-- Node30&#45;&gt;Node3 -->
<g id="edge108" class="edge"><title>Node30&#45;&gt;Node3</title>
<path fill="none" stroke="midnightblue" d="M369.94,-61.1154C374.325,-60.0555 378.772,-58.9923 383,-58 450.912,-42.0611 471.447,-42.871 541.472,-22.2046"/>
<polygon fill="midnightblue" stroke="midnightblue" points="542.637,-25.5095 551.212,-19.2876 540.628,-18.8037 542.637,-25.5095"/>
</g>
<!-- Node30&#45;&gt;Node5 -->
<g id="edge102" class="edge"><title>Node30&#45;&gt;Node5</title>
<path fill="none" stroke="midnightblue" d="M369.929,-65.9618C426.387,-60.1877 547.294,-46.0141 647,-22 647.587,-21.8586 648.179,-21.7114 648.774,-21.5592"/>
<polygon fill="midnightblue" stroke="midnightblue" points="649.859,-24.8889 658.497,-18.754 647.919,-18.1632 649.859,-24.8889"/>
</g>
<!-- Node30&#45;&gt;Node7 -->
<g id="edge104" class="edge"><title>Node30&#45;&gt;Node7</title>
<path fill="none" stroke="midnightblue" d="M369.603,-65.9994C468.897,-56.5711 771.153,-27.8652 830.706,-21.0291"/>
<polygon fill="midnightblue" stroke="midnightblue" points="831.308,-24.4801 840.762,-19.699 830.39,-17.5406 831.308,-24.4801"/>
</g>
<!-- Node30&#45;&gt;Node10 -->
<g id="edge100" class="edge"><title>Node30&#45;&gt;Node10</title>
<path fill="none" stroke="midnightblue" d="M367.518,-58.4966C393.976,-49.082 432.979,-35.2036 462,-24.8773"/>
<polygon fill="midnightblue" stroke="midnightblue" points="463.179,-28.173 471.427,-21.5231 460.832,-21.578 463.179,-28.173"/>
</g>
<!-- Node30&#45;&gt;Node11 -->
<g id="edge106" class="edge"><title>Node30&#45;&gt;Node11</title>
<path fill="none" stroke="midnightblue" d="M327.545,-58.3619C319.43,-50.1043 307.999,-38.4725 298.496,-28.8029"/>
<polygon fill="midnightblue" stroke="midnightblue" points="300.894,-26.2497 291.388,-21.5707 295.901,-31.1562 300.894,-26.2497"/>
</g>
<!-- Node31 -->
<g id="node86" class="node"><title>Node31</title>
<polygon fill="white" stroke="#bfbfbf" points="314,-0.5 314,-21.5 372,-21.5 372,-0.5 314,-0.5"/>
<text text-anchor="middle" x="343" y="-8.5" font-family="Helvetica,sans-Serif" font-size="10.00">QtGlobal</text>
</g>
<!-- Node30&#45;&gt;Node31 -->
<g id="edge110" class="edge"><title>Node30&#45;&gt;Node31</title>
<path fill="none" stroke="midnightblue" d="M338.917,-58.3619C339.558,-50.9219 340.436,-40.7427 341.213,-31.7276"/>
<polygon fill="midnightblue" stroke="midnightblue" points="344.717,-31.8343 342.089,-21.5707 337.743,-31.2331 344.717,-31.8343"/>
</g>
</g>
</svg>
