<?xml version="1.0" encoding="UTF-8" standalone="no"?>
<!DOCTYPE svg PUBLIC "-//W3C//DTD SVG 1.1//EN"
 "http://www.w3.org/Graphics/SVG/1.1/DTD/svg11.dtd">
<!-- Generated by graphviz version 2.26.3 (20100126.1600)
 -->
<!-- Title: G Pages: 1 -->
<svg width="385pt" height="146pt"
 viewBox="0.00 0.00 385.00 146.00" xmlns="http://www.w3.org/2000/svg" xmlns:xlink="http://www.w3.org/1999/xlink">
<g id="graph1" class="graph" transform="scale(1 1) rotate(0) translate(4 142)">
<title>G</title>
<polygon fill="white" stroke="white" points="-4,5 -4,-142 382,-142 382,5 -4,5"/>
<!-- Node1 -->
<g id="node1" class="node"><title>Node1</title>
<polygon fill="#bfbfbf" stroke="black" points="75,-116.5 75,-137.5 179,-137.5 179,-116.5 75,-116.5"/>
<text text-anchor="middle" x="127" y="-124.5" font-family="Helvetica,sans-Serif" font-size="10.00">PalmIMEHelpers.h</text>
</g>
<!-- Node2 -->
<g id="node3" class="node"><title>Node2</title>
<polygon fill="white" stroke="#bfbfbf" points="0,-58.5 0,-79.5 46,-79.5 46,-58.5 0,-58.5"/>
<text text-anchor="middle" x="23" y="-66.5" font-family="Helvetica,sans-Serif" font-size="10.00">vector</text>
</g>
<!-- Node1&#45;&gt;Node2 -->
<g id="edge2" class="edge"><title>Node1&#45;&gt;Node2</title>
<path fill="none" stroke="midnightblue" d="M107.925,-116.362C91.9453,-107.45 68.919,-94.6087 50.8733,-84.5447"/>
<polygon fill="midnightblue" stroke="midnightblue" points="52.3927,-81.3846 41.9543,-79.5707 48.9832,-87.4982 52.3927,-81.3846"/>
</g>
<!-- Node3 -->
<g id="node5" class="node"><title>Node3</title>
<polygon fill="white" stroke="#bfbfbf" points="64,-58.5 64,-79.5 118,-79.5 118,-58.5 64,-58.5"/>
<text text-anchor="middle" x="91" y="-66.5" font-family="Helvetica,sans-Serif" font-size="10.00">qcolor.h</text>
</g>
<!-- Node1&#45;&gt;Node3 -->
<g id="edge4" class="edge"><title>Node1&#45;&gt;Node3</title>
<path fill="none" stroke="midnightblue" d="M120.397,-116.362C115.525,-108.513 108.762,-97.6159 102.95,-88.2527"/>
<polygon fill="midnightblue" stroke="midnightblue" points="105.809,-86.2213 97.5611,-79.5707 99.861,-89.9129 105.809,-86.2213"/>
</g>
<!-- Node4 -->
<g id="node7" class="node"><title>Node4</title>
<polygon fill="white" stroke="#bfbfbf" points="136,-58.5 136,-79.5 190,-79.5 190,-58.5 136,-58.5"/>
<text text-anchor="middle" x="163" y="-66.5" font-family="Helvetica,sans-Serif" font-size="10.00">qpoint.h</text>
</g>
<!-- Node1&#45;&gt;Node4 -->
<g id="edge6" class="edge"><title>Node1&#45;&gt;Node4</title>
<path fill="none" stroke="midnightblue" d="M133.603,-116.362C138.475,-108.513 145.238,-97.6159 151.05,-88.2527"/>
<polygon fill="midnightblue" stroke="midnightblue" points="154.139,-89.9129 156.439,-79.5707 148.191,-86.2213 154.139,-89.9129"/>
</g>
<!-- Node5 -->
<g id="node9" class="node"><title>Node5</title>
<a xlink:href="Logging_8h.htm" target="_top" xlink:title="Logging.h">
<polygon fill="white" stroke="black" points="207.5,-58.5 207.5,-79.5 270.5,-79.5 270.5,-58.5 207.5,-58.5"/>
<text text-anchor="middle" x="239" y="-66.5" font-family="Helvetica,sans-Serif" font-size="10.00">Logging.h</text>
</a>
</g>
<!-- Node1&#45;&gt;Node5 -->
<g id="edge8" class="edge"><title>Node1&#45;&gt;Node5</title>
<path fill="none" stroke="midnightblue" d="M147.282,-116.497C164.618,-107.519 189.79,-94.4835 209.38,-84.3387"/>
<polygon fill="midnightblue" stroke="midnightblue" points="211.22,-87.3278 218.49,-79.6212 208.001,-81.1118 211.22,-87.3278"/>
</g>
<!-- Node6 -->
<g id="node11" class="node"><title>Node6</title>
<a xlink:href="Common_8h.htm" target="_top" xlink:title="Common.h">
<polygon fill="white" stroke="black" points="100.5,-0.5 100.5,-21.5 167.5,-21.5 167.5,-0.5 100.5,-0.5"/>
<text text-anchor="middle" x="134" y="-8.5" font-family="Helvetica,sans-Serif" font-size="10.00">Common.h</text>
</a>
</g>
<!-- Node5&#45;&gt;Node6 -->
<g id="edge10" class="edge"><title>Node5&#45;&gt;Node6</title>
<path fill="none" stroke="midnightblue" d="M219.741,-58.3619C203.534,-49.4094 180.147,-36.4908 161.891,-26.4064"/>
<polygon fill="midnightblue" stroke="midnightblue" points="163.582,-23.3422 153.137,-21.5707 160.198,-29.4696 163.582,-23.3422"/>
</g>
<!-- Node7 -->
<g id="node13" class="node"><title>Node7</title>
<polygon fill="white" stroke="#bfbfbf" points="184.5,-0.5 184.5,-21.5 231.5,-21.5 231.5,-0.5 184.5,-0.5"/>
<text text-anchor="middle" x="208" y="-8.5" font-family="Helvetica,sans-Serif" font-size="10.00">stdio.h</text>
</g>
<!-- Node5&#45;&gt;Node7 -->
<g id="edge12" class="edge"><title>Node5&#45;&gt;Node7</title>
<path fill="none" stroke="midnightblue" d="M233.314,-58.3619C229.163,-50.5949 223.416,-39.8426 218.447,-30.5458"/>
<polygon fill="midnightblue" stroke="midnightblue" points="221.45,-28.7401 213.65,-21.5707 215.277,-32.0398 221.45,-28.7401"/>
</g>
<!-- Node8 -->
<g id="node15" class="node"><title>Node8</title>
<polygon fill="white" stroke="#bfbfbf" points="248.5,-0.5 248.5,-21.5 289.5,-21.5 289.5,-0.5 248.5,-0.5"/>
<text text-anchor="middle" x="269" y="-8.5" font-family="Helvetica,sans-Serif" font-size="10.00">glib.h</text>
</g>
<!-- Node5&#45;&gt;Node8 -->
<g id="edge14" class="edge"><title>Node5&#45;&gt;Node8</title>
<path fill="none" stroke="midnightblue" d="M244.502,-58.3619C248.52,-50.5949 254.081,-39.8426 258.89,-30.5458"/>
<polygon fill="midnightblue" stroke="midnightblue" points="262.047,-32.0608 263.532,-21.5707 255.829,-28.8448 262.047,-32.0608"/>
</g>
<!-- Node9 -->
<g id="node17" class="node"><title>Node9</title>
<polygon fill="white" stroke="#bfbfbf" points="306.5,-0.5 306.5,-21.5 377.5,-21.5 377.5,-0.5 306.5,-0.5"/>
<text text-anchor="middle" x="342" y="-8.5" font-family="Helvetica,sans-Serif" font-size="10.00">PmLogLib.h</text>
</g>
<!-- Node5&#45;&gt;Node9 -->
<g id="edge16" class="edge"><title>Node5&#45;&gt;Node9</title>
<path fill="none" stroke="midnightblue" d="M257.892,-58.3619C273.718,-49.4502 296.523,-36.6087 314.395,-26.5447"/>
<polygon fill="midnightblue" stroke="midnightblue" points="316.232,-29.5271 323.228,-21.5707 312.797,-23.4276 316.232,-29.5271"/>
</g>
</g>
</svg>
