<?xml version="1.0" encoding="UTF-8" standalone="no"?>
<!DOCTYPE svg PUBLIC "-//W3C//DTD SVG 1.1//EN"
 "http://www.w3.org/Graphics/SVG/1.1/DTD/svg11.dtd">
<!-- Generated by graphviz version 2.26.3 (20100126.1600)
 -->
<!-- Title: G Pages: 1 -->
<svg width="1934pt" height="262pt"
 viewBox="0.00 0.00 1934.00 262.00" xmlns="http://www.w3.org/2000/svg" xmlns:xlink="http://www.w3.org/1999/xlink">
<g id="graph1" class="graph" transform="scale(1 1) rotate(0) translate(4 258)">
<title>G</title>
<polygon fill="white" stroke="white" points="-4,5 -4,-258 1931,-258 1931,5 -4,5"/>
<!-- Node1 -->
<g id="node1" class="node"><title>Node1</title>
<polygon fill="#bfbfbf" stroke="black" points="1009,-232.5 1009,-253.5 1161,-253.5 1161,-232.5 1009,-232.5"/>
<text text-anchor="middle" x="1085" y="-240.5" font-family="Helvetica,sans-Serif" font-size="10.00">PersistentWindowCache.cpp</text>
</g>
<!-- Node2 -->
<g id="node3" class="node"><title>Node2</title>
<a xlink:href="Common_8h.htm" target="_top" xlink:title="Common.h">
<polygon fill="white" stroke="black" points="1016.5,-0.5 1016.5,-21.5 1083.5,-21.5 1083.5,-0.5 1016.5,-0.5"/>
<text text-anchor="middle" x="1050" y="-8.5" font-family="Helvetica,sans-Serif" font-size="10.00">Common.h</text>
</a>
</g>
<!-- Node1&#45;&gt;Node2 -->
<g id="edge2" class="edge"><title>Node1&#45;&gt;Node2</title>
<path fill="none" stroke="midnightblue" d="M1161.14,-233.609C1296.57,-215.349 1560.79,-171.899 1512,-116 1473.06,-71.3936 1303.38,-100.956 1248,-80 1231.51,-73.7613 1231,-65.3923 1215,-58 1175.67,-39.8314 1127.77,-27.136 1093.73,-19.5596"/>
<polygon fill="midnightblue" stroke="midnightblue" points="1094.15,-16.0696 1083.64,-17.3722 1092.67,-22.9108 1094.15,-16.0696"/>
</g>
<!-- Node3 -->
<g id="node5" class="node"><title>Node3</title>
<polygon fill="white" stroke="#bfbfbf" points="1349.5,-0.5 1349.5,-21.5 1390.5,-21.5 1390.5,-0.5 1349.5,-0.5"/>
<text text-anchor="middle" x="1370" y="-8.5" font-family="Helvetica,sans-Serif" font-size="10.00">glib.h</text>
</g>
<!-- Node1&#45;&gt;Node3 -->
<g id="edge4" class="edge"><title>Node1&#45;&gt;Node3</title>
<path fill="none" stroke="midnightblue" d="M1161.29,-237.598C1327.77,-223.988 1714.57,-181.829 1787,-80 1792.67,-72.0322 1793.52,-65.2908 1787,-58 1761.29,-29.227 1492.53,-15.8881 1400.62,-12.1437"/>
<polygon fill="midnightblue" stroke="midnightblue" points="1400.69,-8.6439 1390.56,-11.7437 1400.41,-15.6384 1400.69,-8.6439"/>
</g>
<!-- Node4 -->
<g id="node7" class="node"><title>Node4</title>
<polygon fill="white" stroke="#bfbfbf" points="1854,-174.5 1854,-195.5 1926,-195.5 1926,-174.5 1854,-174.5"/>
<text text-anchor="middle" x="1890" y="-182.5" font-family="Helvetica,sans-Serif" font-size="10.00">cjson/json.h</text>
</g>
<!-- Node1&#45;&gt;Node4 -->
<g id="edge6" class="edge"><title>Node1&#45;&gt;Node4</title>
<path fill="none" stroke="midnightblue" d="M1161.21,-242.136C1297.87,-239.726 1593.38,-230.593 1840,-196 1841.26,-195.823 1842.54,-195.631 1843.83,-195.427"/>
<polygon fill="midnightblue" stroke="midnightblue" points="1844.57,-198.851 1853.8,-193.653 1843.34,-191.959 1844.57,-198.851"/>
</g>
<!-- Node5 -->
<g id="node9" class="node"><title>Node5</title>
<a xlink:href="PersistentWindowCache_8h.htm" target="_top" xlink:title="PersistentWindowCache.h">
<polygon fill="white" stroke="black" points="498,-116.5 498,-137.5 638,-137.5 638,-116.5 498,-116.5"/>
<text text-anchor="middle" x="568" y="-124.5" font-family="Helvetica,sans-Serif" font-size="10.00">PersistentWindowCache.h</text>
</a>
</g>
<!-- Node1&#45;&gt;Node5 -->
<g id="edge8" class="edge"><title>Node1&#45;&gt;Node5</title>
<path fill="none" stroke="midnightblue" d="M1037.75,-232.398C942.46,-211.018 727.602,-162.81 624.839,-139.753"/>
<polygon fill="midnightblue" stroke="midnightblue" points="625.478,-136.309 614.954,-137.535 623.945,-143.14 625.478,-136.309"/>
</g>
<!-- Node9 -->
<g id="node18" class="node"><title>Node9</title>
<a xlink:href="Window_8h.htm" target="_top" xlink:title="Window.h">
<polygon fill="white" stroke="black" points="458,-58.5 458,-79.5 520,-79.5 520,-58.5 458,-58.5"/>
<text text-anchor="middle" x="489" y="-66.5" font-family="Helvetica,sans-Serif" font-size="10.00">Window.h</text>
</a>
</g>
<!-- Node1&#45;&gt;Node9 -->
<g id="edge92" class="edge"><title>Node1&#45;&gt;Node9</title>
<path fill="none" stroke="midnightblue" d="M1008.88,-239.571C867.266,-232.748 573.83,-216.358 532,-196 500.331,-180.587 490.895,-170.775 478,-138 471.842,-122.348 475.581,-103.41 480.304,-89.3361"/>
<polygon fill="midnightblue" stroke="midnightblue" points="483.7,-90.249 483.959,-79.6574 477.151,-87.7761 483.7,-90.249"/>
</g>
<!-- Node13 -->
<g id="node29" class="node"><title>Node13</title>
<a xlink:href="WebAppMgrProxy_8h.htm" target="_top" xlink:title="WebAppMgrProxy.h">
<polygon fill="white" stroke="black" points="1030,-174.5 1030,-195.5 1140,-195.5 1140,-174.5 1030,-174.5"/>
<text text-anchor="middle" x="1085" y="-182.5" font-family="Helvetica,sans-Serif" font-size="10.00">WebAppMgrProxy.h</text>
</a>
</g>
<!-- Node1&#45;&gt;Node13 -->
<g id="edge32" class="edge"><title>Node1&#45;&gt;Node13</title>
<path fill="none" stroke="midnightblue" d="M1085,-232.362C1085,-224.922 1085,-214.743 1085,-205.728"/>
<polygon fill="midnightblue" stroke="midnightblue" points="1088.5,-205.571 1085,-195.571 1081.5,-205.571 1088.5,-205.571"/>
</g>
<!-- Node30 -->
<g id="node77" class="node"><title>Node30</title>
<a xlink:href="MenuWindow_8h.htm" target="_top" xlink:title="MenuWindow.h">
<polygon fill="white" stroke="black" points="540.5,-174.5 540.5,-195.5 629.5,-195.5 629.5,-174.5 540.5,-174.5"/>
<text text-anchor="middle" x="585" y="-182.5" font-family="Helvetica,sans-Serif" font-size="10.00">MenuWindow.h</text>
</a>
</g>
<!-- Node1&#45;&gt;Node30 -->
<g id="edge94" class="edge"><title>Node1&#45;&gt;Node30</title>
<path fill="none" stroke="midnightblue" d="M1008.79,-234.16C907.021,-222.354 729.209,-201.728 639.73,-191.349"/>
<polygon fill="midnightblue" stroke="midnightblue" points="639.864,-187.841 629.527,-190.165 639.058,-194.794 639.864,-187.841"/>
</g>
<!-- Node5&#45;&gt;Node2 -->
<g id="edge10" class="edge"><title>Node5&#45;&gt;Node2</title>
<path fill="none" stroke="midnightblue" d="M575.977,-116.398C588.513,-100.627 614.467,-71.409 644,-58 707.845,-29.0123 915.085,-16.7703 1006.27,-12.6949"/>
<polygon fill="midnightblue" stroke="midnightblue" points="1006.44,-16.1908 1016.28,-12.2596 1006.13,-9.19742 1006.44,-16.1908"/>
</g>
<!-- Node6 -->
<g id="node12" class="node"><title>Node6</title>
<polygon fill="white" stroke="#bfbfbf" points="827.5,-58.5 827.5,-79.5 858.5,-79.5 858.5,-58.5 827.5,-58.5"/>
<text text-anchor="middle" x="843" y="-66.5" font-family="Helvetica,sans-Serif" font-size="10.00">set</text>
</g>
<!-- Node5&#45;&gt;Node6 -->
<g id="edge12" class="edge"><title>Node5&#45;&gt;Node6</title>
<path fill="none" stroke="midnightblue" d="M638.107,-118.558C686.69,-111.637 752.772,-100.097 817.872,-79.8362"/>
<polygon fill="midnightblue" stroke="midnightblue" points="819,-83.1505 827.468,-76.7833 816.878,-76.48 819,-83.1505"/>
</g>
<!-- Node7 -->
<g id="node14" class="node"><title>Node7</title>
<polygon fill="white" stroke="#bfbfbf" points="538,-58.5 538,-79.5 592,-79.5 592,-58.5 538,-58.5"/>
<text text-anchor="middle" x="565" y="-66.5" font-family="Helvetica,sans-Serif" font-size="10.00">memory</text>
</g>
<!-- Node5&#45;&gt;Node7 -->
<g id="edge14" class="edge"><title>Node5&#45;&gt;Node7</title>
<path fill="none" stroke="midnightblue" d="M567.45,-116.362C567.065,-108.922 566.538,-98.7427 566.072,-89.7276"/>
<polygon fill="midnightblue" stroke="midnightblue" points="569.559,-89.3765 565.547,-79.5707 562.568,-89.7381 569.559,-89.3765"/>
</g>
<!-- Node8 -->
<g id="node16" class="node"><title>Node8</title>
<polygon fill="white" stroke="#bfbfbf" points="407.5,-0.5 407.5,-21.5 450.5,-21.5 450.5,-0.5 407.5,-0.5"/>
<text text-anchor="middle" x="429" y="-8.5" font-family="Helvetica,sans-Serif" font-size="10.00">string</text>
</g>
<!-- Node5&#45;&gt;Node8 -->
<g id="edge16" class="edge"><title>Node5&#45;&gt;Node8</title>
<path fill="none" stroke="midnightblue" d="M512.993,-116.489C490.394,-109.594 465.671,-98.3168 449,-80 437.092,-66.9164 432.24,-47.1484 430.281,-32.1199"/>
<polygon fill="midnightblue" stroke="midnightblue" points="433.723,-31.3574 429.277,-21.7407 426.756,-32.0312 433.723,-31.3574"/>
</g>
<!-- Node5&#45;&gt;Node9 -->
<g id="edge18" class="edge"><title>Node5&#45;&gt;Node9</title>
<path fill="none" stroke="midnightblue" d="M553.51,-116.362C541.817,-107.777 525.157,-95.5459 511.697,-85.6636"/>
<polygon fill="midnightblue" stroke="midnightblue" points="513.53,-82.6675 503.398,-79.5707 509.387,-88.31 513.53,-82.6675"/>
</g>
<!-- Node9&#45;&gt;Node2 -->
<g id="edge20" class="edge"><title>Node9&#45;&gt;Node2</title>
<path fill="none" stroke="midnightblue" d="M520.321,-59.8182C523.24,-59.1349 526.165,-58.5134 529,-58 703.931,-26.3184 915.962,-15.6071 1006.08,-12.3201"/>
<polygon fill="midnightblue" stroke="midnightblue" points="1006.33,-15.8135 1016.2,-11.9637 1006.08,-8.81787 1006.33,-15.8135"/>
</g>
<!-- Node9&#45;&gt;Node3 -->
<g id="edge26" class="edge"><title>Node9&#45;&gt;Node3</title>
<path fill="none" stroke="midnightblue" d="M520.3,-59.6965C523.223,-59.0387 526.155,-58.4564 529,-58 846.23,-7.10068 930.522,-44.7915 1251,-22 1280.97,-19.8685 1315.12,-16.6284 1339.12,-14.216"/>
<polygon fill="midnightblue" stroke="midnightblue" points="1339.79,-17.6662 1349.38,-13.1729 1339.08,-10.702 1339.79,-17.6662"/>
</g>
<!-- Node9&#45;&gt;Node8 -->
<g id="edge24" class="edge"><title>Node9&#45;&gt;Node8</title>
<path fill="none" stroke="midnightblue" d="M477.995,-58.3619C469.453,-50.1043 457.42,-38.4725 447.417,-28.8029"/>
<polygon fill="midnightblue" stroke="midnightblue" points="449.558,-26.0044 439.935,-21.5707 444.692,-31.0374 449.558,-26.0044"/>
</g>
<!-- Node10 -->
<g id="node21" class="node"><title>Node10</title>
<polygon fill="white" stroke="#bfbfbf" points="1192,-0.5 1192,-21.5 1242,-21.5 1242,-0.5 1192,-0.5"/>
<text text-anchor="middle" x="1217" y="-8.5" font-family="Helvetica,sans-Serif" font-size="10.00">stdint.h</text>
</g>
<!-- Node9&#45;&gt;Node10 -->
<g id="edge22" class="edge"><title>Node9&#45;&gt;Node10</title>
<path fill="none" stroke="midnightblue" d="M520.307,-59.7391C523.229,-59.0724 526.159,-58.4764 529,-58 776.282,-16.5417 841.987,-40.9912 1092,-22 1122.22,-19.7043 1156.51,-16.6551 1181.53,-14.3493"/>
<polygon fill="midnightblue" stroke="midnightblue" points="1182,-17.82 1191.64,-13.411 1181.36,-10.85 1182,-17.82"/>
</g>
<!-- Node11 -->
<g id="node25" class="node"><title>Node11</title>
<polygon fill="white" stroke="#bfbfbf" points="530,-0.5 530,-21.5 628,-21.5 628,-0.5 530,-0.5"/>
<text text-anchor="middle" x="579" y="-8.5" font-family="Helvetica,sans-Serif" font-size="10.00">QGraphicsObject</text>
</g>
<!-- Node9&#45;&gt;Node11 -->
<g id="edge28" class="edge"><title>Node9&#45;&gt;Node11</title>
<path fill="none" stroke="midnightblue" d="M505.507,-58.3619C519.082,-49.6138 538.533,-37.0786 554.015,-27.1015"/>
<polygon fill="midnightblue" stroke="midnightblue" points="556.088,-29.9297 562.597,-21.5707 552.296,-24.0457 556.088,-29.9297"/>
</g>
<!-- Node12 -->
<g id="node27" class="node"><title>Node12</title>
<polygon fill="white" stroke="#bfbfbf" points="467.5,-0.5 467.5,-21.5 512.5,-21.5 512.5,-0.5 467.5,-0.5"/>
<text text-anchor="middle" x="490" y="-8.5" font-family="Helvetica,sans-Serif" font-size="10.00">QSize</text>
</g>
<!-- Node9&#45;&gt;Node12 -->
<g id="edge30" class="edge"><title>Node9&#45;&gt;Node12</title>
<path fill="none" stroke="midnightblue" d="M489.183,-58.3619C489.312,-50.9219 489.487,-40.7427 489.643,-31.7276"/>
<polygon fill="midnightblue" stroke="midnightblue" points="493.145,-31.6295 489.818,-21.5707 486.146,-31.5088 493.145,-31.6295"/>
</g>
<!-- Node13&#45;&gt;Node2 -->
<g id="edge34" class="edge"><title>Node13&#45;&gt;Node2</title>
<path fill="none" stroke="midnightblue" d="M1082.86,-174.377C1077.21,-146.293 1061.8,-69.6735 1054.26,-32.2027"/>
<polygon fill="midnightblue" stroke="midnightblue" points="1057.6,-31.0411 1052.2,-21.9277 1050.74,-32.4216 1057.6,-31.0411"/>
</g>
<!-- Node14 -->
<g id="node32" class="node"><title>Node14</title>
<polygon fill="white" stroke="#bfbfbf" points="686,-58.5 686,-79.5 810,-79.5 810,-58.5 686,-58.5"/>
<text text-anchor="middle" x="748" y="-66.5" font-family="Helvetica,sans-Serif" font-size="10.00">PIpcChannelListener.h</text>
</g>
<!-- Node13&#45;&gt;Node14 -->
<g id="edge36" class="edge"><title>Node13&#45;&gt;Node14</title>
<path fill="none" stroke="midnightblue" d="M1029.95,-181.691C934.746,-175.401 747.579,-160.325 728,-138 715.878,-124.178 724.347,-103.396 733.713,-88.2525"/>
<polygon fill="midnightblue" stroke="midnightblue" points="736.811,-89.9168 739.485,-79.6648 731.002,-86.0122 736.811,-89.9168"/>
</g>
<!-- Node15 -->
<g id="node34" class="node"><title>Node15</title>
<polygon fill="white" stroke="#bfbfbf" points="842.5,-116.5 842.5,-137.5 887.5,-137.5 887.5,-116.5 842.5,-116.5"/>
<text text-anchor="middle" x="865" y="-124.5" font-family="Helvetica,sans-Serif" font-size="10.00">queue</text>
</g>
<!-- Node13&#45;&gt;Node15 -->
<g id="edge38" class="edge"><title>Node13&#45;&gt;Node15</title>
<path fill="none" stroke="midnightblue" d="M1037.27,-174.485C1001.1,-166.211 950.012,-153.876 897.434,-138.26"/>
<polygon fill="midnightblue" stroke="midnightblue" points="898.187,-134.832 887.603,-135.306 896.173,-141.536 898.187,-134.832"/>
</g>
<!-- Node16 -->
<g id="node36" class="node"><title>Node16</title>
<a xlink:href="IpcClientHost_8h.htm" target="_top" xlink:title="IpcClientHost.h">
<polygon fill="white" stroke="black" points="737,-116.5 737,-137.5 825,-137.5 825,-116.5 737,-116.5"/>
<text text-anchor="middle" x="781" y="-124.5" font-family="Helvetica,sans-Serif" font-size="10.00">IpcClientHost.h</text>
</a>
</g>
<!-- Node13&#45;&gt;Node16 -->
<g id="edge40" class="edge"><title>Node13&#45;&gt;Node16</title>
<path fill="none" stroke="midnightblue" d="M1029.61,-174.949C980.995,-166.055 908.109,-152.545 835.478,-138.267"/>
<polygon fill="midnightblue" stroke="midnightblue" points="835.721,-134.748 825.233,-136.248 834.368,-141.616 835.721,-134.748"/>
</g>
<!-- Node19 -->
<g id="node48" class="node"><title>Node19</title>
<a xlink:href="Event_8h.htm" target="_top" xlink:title="Event.h">
<polygon fill="white" stroke="black" points="1559,-116.5 1559,-137.5 1611,-137.5 1611,-116.5 1559,-116.5"/>
<text text-anchor="middle" x="1585" y="-124.5" font-family="Helvetica,sans-Serif" font-size="10.00">Event.h</text>
</a>
</g>
<!-- Node13&#45;&gt;Node19 -->
<g id="edge58" class="edge"><title>Node13&#45;&gt;Node19</title>
<path fill="none" stroke="midnightblue" d="M1140.02,-179.653C1221.42,-171.582 1378.7,-155.373 1512,-138 1523.99,-136.437 1537.06,-134.532 1548.79,-132.749"/>
<polygon fill="midnightblue" stroke="midnightblue" points="1549.33,-136.207 1558.68,-131.225 1548.26,-129.288 1549.33,-136.207"/>
</g>
<!-- Node25 -->
<g id="node65" class="node"><title>Node25</title>
<a xlink:href="CustomEvents_8h.htm" target="_top" xlink:title="CustomEvents.h">
<polygon fill="white" stroke="black" points="1411,-116.5 1411,-137.5 1503,-137.5 1503,-116.5 1411,-116.5"/>
<text text-anchor="middle" x="1457" y="-124.5" font-family="Helvetica,sans-Serif" font-size="10.00">CustomEvents.h</text>
</a>
</g>
<!-- Node13&#45;&gt;Node25 -->
<g id="edge80" class="edge"><title>Node13&#45;&gt;Node25</title>
<path fill="none" stroke="midnightblue" d="M1140.11,-177.684C1201.35,-169.363 1303.4,-154.928 1400.8,-138.148"/>
<polygon fill="midnightblue" stroke="midnightblue" points="1401.56,-141.568 1410.82,-136.411 1400.37,-134.671 1401.56,-141.568"/>
</g>
<!-- Node27 -->
<g id="node70" class="node"><title>Node27</title>
<polygon fill="white" stroke="#bfbfbf" points="905,-116.5 905,-137.5 1057,-137.5 1057,-116.5 905,-116.5"/>
<text text-anchor="middle" x="981" y="-124.5" font-family="Helvetica,sans-Serif" font-size="10.00">NewContentIndicatorEvent.h</text>
</g>
<!-- Node13&#45;&gt;Node27 -->
<g id="edge86" class="edge"><title>Node13&#45;&gt;Node27</title>
<path fill="none" stroke="midnightblue" d="M1065.92,-174.362C1049.95,-165.45 1026.92,-152.609 1008.87,-142.545"/>
<polygon fill="midnightblue" stroke="midnightblue" points="1010.39,-139.385 999.954,-137.571 1006.98,-145.498 1010.39,-139.385"/>
</g>
<!-- Node28 -->
<g id="node72" class="node"><title>Node28</title>
<polygon fill="white" stroke="#bfbfbf" points="1113,-116.5 1113,-137.5 1243,-137.5 1243,-116.5 1113,-116.5"/>
<text text-anchor="middle" x="1178" y="-124.5" font-family="Helvetica,sans-Serif" font-size="10.00">BannerMessageEvent.h</text>
</g>
<!-- Node13&#45;&gt;Node28 -->
<g id="edge88" class="edge"><title>Node13&#45;&gt;Node28</title>
<path fill="none" stroke="midnightblue" d="M1102.06,-174.362C1116.08,-165.614 1136.18,-153.079 1152.18,-143.101"/>
<polygon fill="midnightblue" stroke="midnightblue" points="1154.42,-145.832 1161.05,-137.571 1150.71,-139.893 1154.42,-145.832"/>
</g>
<!-- Node29 -->
<g id="node74" class="node"><title>Node29</title>
<polygon fill="white" stroke="#bfbfbf" points="1260.5,-116.5 1260.5,-137.5 1393.5,-137.5 1393.5,-116.5 1260.5,-116.5"/>
<text text-anchor="middle" x="1327" y="-124.5" font-family="Helvetica,sans-Serif" font-size="10.00">ActiveCallBannerEvent.h</text>
</g>
<!-- Node13&#45;&gt;Node29 -->
<g id="edge90" class="edge"><title>Node13&#45;&gt;Node29</title>
<path fill="none" stroke="midnightblue" d="M1128.82,-174.497C1169.39,-164.775 1229.81,-150.294 1273.26,-139.879"/>
<polygon fill="midnightblue" stroke="midnightblue" points="1274.18,-143.257 1283.09,-137.523 1272.55,-136.45 1274.18,-143.257"/>
</g>
<!-- Node16&#45;&gt;Node2 -->
<g id="edge42" class="edge"><title>Node16&#45;&gt;Node2</title>
<path fill="none" stroke="midnightblue" d="M825.23,-117.738C828.197,-117.142 831.141,-116.558 834,-116 921.358,-98.9551 965.358,-140.109 1031,-80 1044.27,-67.8461 1048.61,-47.3568 1049.87,-31.8552"/>
<polygon fill="midnightblue" stroke="midnightblue" points="1053.38,-31.787 1050.33,-21.6396 1046.39,-31.4719 1053.38,-31.787"/>
</g>
<!-- Node16&#45;&gt;Node3 -->
<g id="edge50" class="edge"><title>Node16&#45;&gt;Node3</title>
<path fill="none" stroke="midnightblue" d="M825.169,-117.367C828.15,-116.861 831.114,-116.398 834,-116 891.043,-108.131 1306.44,-116.468 1351,-80 1365.01,-68.5393 1369.22,-47.7848 1370.26,-32.0214"/>
<polygon fill="midnightblue" stroke="midnightblue" points="1373.77,-31.7219 1370.54,-21.6295 1366.77,-31.5297 1373.77,-31.7219"/>
</g>
<!-- Node16&#45;&gt;Node6 -->
<g id="edge48" class="edge"><title>Node16&#45;&gt;Node6</title>
<path fill="none" stroke="midnightblue" d="M792.372,-116.362C801.286,-108.023 813.879,-96.2418 824.276,-86.5162"/>
<polygon fill="midnightblue" stroke="midnightblue" points="826.789,-88.9582 831.7,-79.5707 822.007,-83.8463 826.789,-88.9582"/>
</g>
<!-- Node16&#45;&gt;Node8 -->
<g id="edge44" class="edge"><title>Node16&#45;&gt;Node8</title>
<path fill="none" stroke="midnightblue" d="M812.491,-116.441C845.154,-103.889 888.653,-81.6474 867,-58 837.827,-26.14 536.441,-31.2651 460.869,-21.4433"/>
<polygon fill="midnightblue" stroke="midnightblue" points="461.199,-17.9495 450.755,-19.7307 460.03,-24.8512 461.199,-17.9495"/>
</g>
<!-- Node16&#45;&gt;Node9 -->
<g id="edge54" class="edge"><title>Node16&#45;&gt;Node9</title>
<path fill="none" stroke="midnightblue" d="M736.611,-119.881C688.16,-111.854 608.114,-97.8412 530.343,-80.1828"/>
<polygon fill="midnightblue" stroke="midnightblue" points="530.909,-76.7218 520.38,-77.8973 529.344,-83.5446 530.909,-76.7218"/>
</g>
<!-- Node16&#45;&gt;Node14 -->
<g id="edge52" class="edge"><title>Node16&#45;&gt;Node14</title>
<path fill="none" stroke="midnightblue" d="M774.947,-116.362C770.528,-108.595 764.41,-97.8426 759.121,-88.5458"/>
<polygon fill="midnightblue" stroke="midnightblue" points="762.002,-86.5315 754.014,-79.5707 755.918,-89.9932 762.002,-86.5315"/>
</g>
<!-- Node17 -->
<g id="node40" class="node"><title>Node17</title>
<polygon fill="white" stroke="#bfbfbf" points="913.5,-58.5 913.5,-79.5 950.5,-79.5 950.5,-58.5 913.5,-58.5"/>
<text text-anchor="middle" x="932" y="-66.5" font-family="Helvetica,sans-Serif" font-size="10.00">map</text>
</g>
<!-- Node16&#45;&gt;Node17 -->
<g id="edge46" class="edge"><title>Node16&#45;&gt;Node17</title>
<path fill="none" stroke="midnightblue" d="M808.345,-116.497C835.443,-106.088 876.745,-90.2237 904.052,-79.7351"/>
<polygon fill="midnightblue" stroke="midnightblue" points="905.346,-82.9872 913.427,-76.1342 902.836,-76.4526 905.346,-82.9872"/>
</g>
<!-- Node18 -->
<g id="node46" class="node"><title>Node18</title>
<polygon fill="white" stroke="#bfbfbf" points="967.5,-58.5 967.5,-79.5 1022.5,-79.5 1022.5,-58.5 967.5,-58.5"/>
<text text-anchor="middle" x="995" y="-66.5" font-family="Helvetica,sans-Serif" font-size="10.00">QObject</text>
</g>
<!-- Node16&#45;&gt;Node18 -->
<g id="edge56" class="edge"><title>Node16&#45;&gt;Node18</title>
<path fill="none" stroke="midnightblue" d="M822.843,-116.435C856.805,-107.752 906.157,-94.8899 957.23,-80.4452"/>
<polygon fill="midnightblue" stroke="midnightblue" points="958.461,-83.7341 967.123,-77.6334 956.547,-77.0008 958.461,-83.7341"/>
</g>
<!-- Node19&#45;&gt;Node2 -->
<g id="edge60" class="edge"><title>Node19&#45;&gt;Node2</title>
<path fill="none" stroke="midnightblue" d="M1558.87,-119.299C1554.27,-118.092 1549.51,-116.936 1545,-116 1433.36,-92.8367 1399.69,-114.44 1291,-80 1270.54,-73.5157 1268.14,-65.4212 1248,-58 1196.35,-38.9716 1134.23,-25.6964 1093.52,-18.2194"/>
<polygon fill="midnightblue" stroke="midnightblue" points="1094.11,-14.7696 1083.65,-16.4434 1092.87,-21.659 1094.11,-14.7696"/>
</g>
<!-- Node19&#45;&gt;Node3 -->
<g id="edge64" class="edge"><title>Node19&#45;&gt;Node3</title>
<path fill="none" stroke="midnightblue" d="M1611.31,-126.007C1672.36,-122.818 1815.02,-109.757 1769,-58 1744.59,-30.5447 1490.11,-16.4466 1400.78,-12.3158"/>
<polygon fill="midnightblue" stroke="midnightblue" points="1400.88,-8.81684 1390.74,-11.8612 1400.57,-15.8097 1400.88,-8.81684"/>
</g>
<!-- Node19&#45;&gt;Node10 -->
<g id="edge62" class="edge"><title>Node19&#45;&gt;Node10</title>
<path fill="none" stroke="midnightblue" d="M1558.93,-119.49C1527.55,-110.395 1473.29,-94.4878 1427,-80 1365.08,-60.6229 1293.36,-36.7466 1251.79,-22.7643"/>
<polygon fill="midnightblue" stroke="midnightblue" points="1252.73,-19.3904 1242.14,-19.5155 1250.5,-26.0243 1252.73,-19.3904"/>
</g>
<!-- Node20 -->
<g id="node53" class="node"><title>Node20</title>
<polygon fill="white" stroke="#bfbfbf" points="1435.5,-58.5 1435.5,-79.5 1482.5,-79.5 1482.5,-58.5 1435.5,-58.5"/>
<text text-anchor="middle" x="1459" y="-66.5" font-family="Helvetica,sans-Serif" font-size="10.00">stdio.h</text>
</g>
<!-- Node19&#45;&gt;Node20 -->
<g id="edge66" class="edge"><title>Node19&#45;&gt;Node20</title>
<path fill="none" stroke="midnightblue" d="M1562.18,-116.497C1542.41,-107.397 1513.59,-94.1273 1491.42,-83.9253"/>
<polygon fill="midnightblue" stroke="midnightblue" points="1492.62,-80.6234 1482.07,-79.6212 1489.69,-86.982 1492.62,-80.6234"/>
</g>
<!-- Node21 -->
<g id="node55" class="node"><title>Node21</title>
<polygon fill="white" stroke="#bfbfbf" points="1499.5,-58.5 1499.5,-79.5 1550.5,-79.5 1550.5,-58.5 1499.5,-58.5"/>
<text text-anchor="middle" x="1525" y="-66.5" font-family="Helvetica,sans-Serif" font-size="10.00">string.h</text>
</g>
<!-- Node19&#45;&gt;Node21 -->
<g id="edge68" class="edge"><title>Node19&#45;&gt;Node21</title>
<path fill="none" stroke="midnightblue" d="M1574,-116.362C1565.45,-108.104 1553.42,-96.4725 1543.42,-86.8029"/>
<polygon fill="midnightblue" stroke="midnightblue" points="1545.56,-84.0044 1535.94,-79.5707 1540.69,-89.0374 1545.56,-84.0044"/>
</g>
<!-- Node22 -->
<g id="node57" class="node"><title>Node22</title>
<polygon fill="white" stroke="#bfbfbf" points="1568,-58.5 1568,-79.5 1654,-79.5 1654,-58.5 1568,-58.5"/>
<text text-anchor="middle" x="1611" y="-66.5" font-family="Helvetica,sans-Serif" font-size="10.00">qnamespace.h</text>
</g>
<!-- Node19&#45;&gt;Node22 -->
<g id="edge70" class="edge"><title>Node19&#45;&gt;Node22</title>
<path fill="none" stroke="midnightblue" d="M1589.77,-116.362C1593.21,-108.677 1597.97,-98.0686 1602.11,-88.8399"/>
<polygon fill="midnightblue" stroke="midnightblue" points="1605.36,-90.1275 1606.26,-79.5707 1598.98,-87.264 1605.36,-90.1275"/>
</g>
<!-- Node23 -->
<g id="node59" class="node"><title>Node23</title>
<polygon fill="white" stroke="#bfbfbf" points="1672,-58.5 1672,-79.5 1760,-79.5 1760,-58.5 1672,-58.5"/>
<text text-anchor="middle" x="1716" y="-66.5" font-family="Helvetica,sans-Serif" font-size="10.00">SysMgrEvent.h</text>
</g>
<!-- Node19&#45;&gt;Node23 -->
<g id="edge72" class="edge"><title>Node19&#45;&gt;Node23</title>
<path fill="none" stroke="midnightblue" d="M1608.72,-116.497C1629.37,-107.356 1659.52,-94.0082 1682.6,-83.7883"/>
<polygon fill="midnightblue" stroke="midnightblue" points="1684.28,-86.8701 1692.01,-79.6212 1681.45,-80.4694 1684.28,-86.8701"/>
</g>
<!-- Node24 -->
<g id="node61" class="node"><title>Node24</title>
<a xlink:href="sptr_8h.htm" target="_top" xlink:title="sptr.h">
<polygon fill="white" stroke="black" points="1299.5,-58.5 1299.5,-79.5 1342.5,-79.5 1342.5,-58.5 1299.5,-58.5"/>
<text text-anchor="middle" x="1321" y="-66.5" font-family="Helvetica,sans-Serif" font-size="10.00">sptr.h</text>
</a>
</g>
<!-- Node19&#45;&gt;Node24 -->
<g id="edge74" class="edge"><title>Node19&#45;&gt;Node24</title>
<path fill="none" stroke="midnightblue" d="M1558.81,-119.55C1554.22,-118.315 1549.48,-117.085 1545,-116 1476.86,-99.4976 1396.23,-83.4153 1352.71,-75.014"/>
<polygon fill="midnightblue" stroke="midnightblue" points="1353.2,-71.5458 1342.72,-73.0966 1351.88,-78.4202 1353.2,-71.5458"/>
</g>
<!-- Node24&#45;&gt;Node2 -->
<g id="edge76" class="edge"><title>Node24&#45;&gt;Node2</title>
<path fill="none" stroke="midnightblue" d="M1299.26,-61.7682C1294.89,-60.4288 1290.32,-59.1054 1286,-58 1219.64,-41.0164 1141.47,-26.5074 1093.84,-18.2705"/>
<polygon fill="midnightblue" stroke="midnightblue" points="1094.32,-14.8007 1083.87,-16.5601 1093.13,-21.7 1094.32,-14.8007"/>
</g>
<!-- Node24&#45;&gt;Node3 -->
<g id="edge78" class="edge"><title>Node24&#45;&gt;Node3</title>
<path fill="none" stroke="midnightblue" d="M1329.99,-58.3619C1336.83,-50.2678 1346.4,-38.9318 1354.47,-29.3796"/>
<polygon fill="midnightblue" stroke="midnightblue" points="1357.29,-31.4683 1361.07,-21.5707 1351.94,-26.9508 1357.29,-31.4683"/>
</g>
<!-- Node25&#45;&gt;Node2 -->
<g id="edge82" class="edge"><title>Node25&#45;&gt;Node2</title>
<path fill="none" stroke="midnightblue" d="M1410.82,-117.562C1407.84,-117.015 1404.88,-116.489 1402,-116 1288.29,-96.6821 1251.95,-123.174 1145,-80 1115.33,-68.0232 1086.33,-44.7941 1068.33,-28.6133"/>
<polygon fill="midnightblue" stroke="midnightblue" points="1070.6,-25.9434 1060.87,-21.7406 1065.86,-31.0911 1070.6,-25.9434"/>
</g>
<!-- Node26 -->
<g id="node68" class="node"><title>Node26</title>
<polygon fill="white" stroke="#bfbfbf" points="1154,-58.5 1154,-79.5 1206,-79.5 1206,-58.5 1154,-58.5"/>
<text text-anchor="middle" x="1180" y="-66.5" font-family="Helvetica,sans-Serif" font-size="10.00">QEvent</text>
</g>
<!-- Node25&#45;&gt;Node26 -->
<g id="edge84" class="edge"><title>Node25&#45;&gt;Node26</title>
<path fill="none" stroke="midnightblue" d="M1410.79,-117.75C1407.81,-117.157 1404.87,-116.57 1402,-116 1321.13,-99.9145 1300.25,-98.9445 1220,-80 1218.74,-79.7021 1217.46,-79.3918 1216.16,-79.0722"/>
<polygon fill="midnightblue" stroke="midnightblue" points="1216.74,-75.6057 1206.18,-76.4941 1214.99,-82.3834 1216.74,-75.6057"/>
</g>
<!-- Node30&#45;&gt;Node2 -->
<g id="edge96" class="edge"><title>Node30&#45;&gt;Node2</title>
<path fill="none" stroke="midnightblue" d="M604.116,-174.489C617.716,-166.158 635.539,-153.379 647,-138 669.692,-107.552 647.205,-81.5418 677,-58 702.427,-37.9101 912.879,-20.7051 1005.98,-13.9994"/>
<polygon fill="midnightblue" stroke="midnightblue" points="1006.48,-17.4728 1016.21,-13.2713 1005.98,-10.4905 1006.48,-17.4728"/>
</g>
<!-- Node30&#45;&gt;Node9 -->
<g id="edge98" class="edge"><title>Node30&#45;&gt;Node9</title>
<path fill="none" stroke="midnightblue" d="M540.492,-174.591C521.172,-167.626 500.393,-156.264 489,-138 480.108,-123.745 480.959,-104.4 483.546,-89.82"/>
<polygon fill="midnightblue" stroke="midnightblue" points="487.028,-90.2779 485.731,-79.7628 480.188,-88.792 487.028,-90.2779"/>
</g>
<!-- Node31 -->
<g id="node81" class="node"><title>Node31</title>
<a xlink:href="HostWindow_8h.htm" target="_top" xlink:title="HostWindow.h">
<polygon fill="white" stroke="black" points="302,-116.5 302,-137.5 386,-137.5 386,-116.5 302,-116.5"/>
<text text-anchor="middle" x="344" y="-124.5" font-family="Helvetica,sans-Serif" font-size="10.00">HostWindow.h</text>
</a>
</g>
<!-- Node30&#45;&gt;Node31 -->
<g id="edge100" class="edge"><title>Node30&#45;&gt;Node31</title>
<path fill="none" stroke="midnightblue" d="M541.357,-174.497C500.458,-164.654 439.287,-149.932 395.903,-139.491"/>
<polygon fill="midnightblue" stroke="midnightblue" points="396.648,-136.071 386.107,-137.134 395.011,-142.876 396.648,-136.071"/>
</g>
<!-- Node31&#45;&gt;Node2 -->
<g id="edge102" class="edge"><title>Node31&#45;&gt;Node2</title>
<path fill="none" stroke="midnightblue" d="M355.833,-116.259C374.215,-100.306 411.439,-70.8535 449,-58 552.209,-22.6814 885.839,-13.7178 1006.2,-11.6066"/>
<polygon fill="midnightblue" stroke="midnightblue" points="1006.56,-15.1011 1016.5,-11.4336 1006.44,-8.10205 1006.56,-15.1011"/>
</g>
<!-- Node31&#45;&gt;Node9 -->
<g id="edge104" class="edge"><title>Node31&#45;&gt;Node9</title>
<path fill="none" stroke="midnightblue" d="M370.258,-116.497C393.416,-107.234 427.375,-93.6499 453.052,-83.3793"/>
<polygon fill="midnightblue" stroke="midnightblue" points="454.462,-86.5849 462.447,-79.6212 451.862,-80.0855 454.462,-86.5849"/>
</g>
<!-- Node31&#45;&gt;Node14 -->
<g id="edge124" class="edge"><title>Node31&#45;&gt;Node14</title>
<path fill="none" stroke="midnightblue" d="M386.092,-120.957C454.743,-111.101 591.604,-91.4529 675.947,-79.3443"/>
<polygon fill="midnightblue" stroke="midnightblue" points="676.563,-82.7918 685.964,-77.9061 675.568,-75.8628 676.563,-82.7918"/>
</g>
<!-- Node31&#45;&gt;Node31 -->
<g id="edge106" class="edge"><title>Node31&#45;&gt;Node31</title>
<path fill="none" stroke="midnightblue" d="M374.563,-137.524C390.083,-139.061 404,-135.553 404,-127 404,-120.385 395.675,-116.788 384.722,-116.208"/>
<polygon fill="midnightblue" stroke="midnightblue" points="384.467,-112.714 374.563,-116.476 384.652,-119.711 384.467,-112.714"/>
</g>
<!-- Node32 -->
<g id="node86" class="node"><title>Node32</title>
<a xlink:href="HostWindowData_8h.htm" target="_top" xlink:title="HostWindowData.h">
<polygon fill="white" stroke="black" points="73.5,-58.5 73.5,-79.5 180.5,-79.5 180.5,-58.5 73.5,-58.5"/>
<text text-anchor="middle" x="127" y="-66.5" font-family="Helvetica,sans-Serif" font-size="10.00">HostWindowData.h</text>
</a>
</g>
<!-- Node31&#45;&gt;Node32 -->
<g id="edge108" class="edge"><title>Node31&#45;&gt;Node32</title>
<path fill="none" stroke="midnightblue" d="M304.703,-116.497C268.713,-106.877 215.29,-92.5981 176.42,-82.209"/>
<polygon fill="midnightblue" stroke="midnightblue" points="176.935,-78.724 166.371,-79.5231 175.128,-85.4866 176.935,-78.724"/>
</g>
<!-- Node35 -->
<g id="node93" class="node"><title>Node35</title>
<a xlink:href="InputClient_8h.htm" target="_top" xlink:title="InputClient.h">
<polygon fill="white" stroke="black" points="197.5,-58.5 197.5,-79.5 272.5,-79.5 272.5,-58.5 197.5,-58.5"/>
<text text-anchor="middle" x="235" y="-66.5" font-family="Helvetica,sans-Serif" font-size="10.00">InputClient.h</text>
</a>
</g>
<!-- Node31&#45;&gt;Node35 -->
<g id="edge116" class="edge"><title>Node31&#45;&gt;Node35</title>
<path fill="none" stroke="midnightblue" d="M324.261,-116.497C307.39,-107.519 282.891,-94.4835 263.826,-84.3387"/>
<polygon fill="midnightblue" stroke="midnightblue" points="265.433,-81.2289 254.961,-79.6212 262.144,-87.4086 265.433,-81.2289"/>
</g>
<!-- Node37 -->
<g id="node98" class="node"><title>Node37</title>
<polygon fill="white" stroke="#bfbfbf" points="290,-58.5 290,-79.5 364,-79.5 364,-58.5 290,-58.5"/>
<text text-anchor="middle" x="327" y="-66.5" font-family="Helvetica,sans-Serif" font-size="10.00">PIpcBuffer.h</text>
</g>
<!-- Node31&#45;&gt;Node37 -->
<g id="edge122" class="edge"><title>Node31&#45;&gt;Node37</title>
<path fill="none" stroke="midnightblue" d="M340.882,-116.362C338.677,-108.84 335.652,-98.5187 332.988,-89.4308"/>
<polygon fill="midnightblue" stroke="midnightblue" points="336.27,-88.1825 330.098,-79.5707 329.552,-90.1514 336.27,-88.1825"/>
</g>
<!-- Node32&#45;&gt;Node2 -->
<g id="edge110" class="edge"><title>Node32&#45;&gt;Node2</title>
<path fill="none" stroke="midnightblue" d="M180.71,-59.0607C183.509,-58.6712 186.285,-58.3138 189,-58 500.711,-21.9745 879.191,-13.4341 1006.13,-11.5218"/>
<polygon fill="midnightblue" stroke="midnightblue" points="1006.28,-15.02 1016.23,-11.3758 1006.18,-8.02077 1006.28,-15.02"/>
</g>
<!-- Node33 -->
<g id="node89" class="node"><title>Node33</title>
<polygon fill="white" stroke="#bfbfbf" points="103.5,-0.5 103.5,-21.5 162.5,-21.5 162.5,-0.5 103.5,-0.5"/>
<text text-anchor="middle" x="133" y="-8.5" font-family="Helvetica,sans-Serif" font-size="10.00">QPixmap</text>
</g>
<!-- Node32&#45;&gt;Node33 -->
<g id="edge112" class="edge"><title>Node32&#45;&gt;Node33</title>
<path fill="none" stroke="midnightblue" d="M128.1,-58.3619C128.87,-50.9219 129.923,-40.7427 130.856,-31.7276"/>
<polygon fill="midnightblue" stroke="midnightblue" points="134.359,-31.8777 131.906,-21.5707 127.396,-31.1574 134.359,-31.8777"/>
</g>
<!-- Node34 -->
<g id="node91" class="node"><title>Node34</title>
<polygon fill="white" stroke="#bfbfbf" points="0,-0.5 0,-21.5 86,-21.5 86,-0.5 0,-0.5"/>
<text text-anchor="middle" x="43" y="-8.5" font-family="Helvetica,sans-Serif" font-size="10.00">PIpcChannel.h</text>
</g>
<!-- Node32&#45;&gt;Node34 -->
<g id="edge114" class="edge"><title>Node32&#45;&gt;Node34</title>
<path fill="none" stroke="midnightblue" d="M111.593,-58.3619C99.0418,-49.6955 81.1078,-37.3126 66.7255,-27.3819"/>
<polygon fill="midnightblue" stroke="midnightblue" points="68.5269,-24.3725 58.3092,-21.5707 64.5495,-30.1327 68.5269,-24.3725"/>
</g>
<!-- Node35&#45;&gt;Node8 -->
<g id="edge120" class="edge"><title>Node35&#45;&gt;Node8</title>
<path fill="none" stroke="midnightblue" d="M270.132,-58.4966C306.505,-47.6222 362.798,-30.7924 397.693,-20.3598"/>
<polygon fill="midnightblue" stroke="midnightblue" points="398.783,-23.687 407.362,-17.4692 396.778,-16.9804 398.783,-23.687"/>
</g>
<!-- Node36 -->
<g id="node95" class="node"><title>Node36</title>
<polygon fill="white" stroke="#bfbfbf" points="186,-0.5 186,-21.5 284,-21.5 284,-0.5 186,-0.5"/>
<text text-anchor="middle" x="235" y="-8.5" font-family="Helvetica,sans-Serif" font-size="10.00">palmimedefines.h</text>
</g>
<!-- Node35&#45;&gt;Node36 -->
<g id="edge118" class="edge"><title>Node35&#45;&gt;Node36</title>
<path fill="none" stroke="midnightblue" d="M235,-58.3619C235,-50.9219 235,-40.7427 235,-31.7276"/>
<polygon fill="midnightblue" stroke="midnightblue" points="238.5,-31.5706 235,-21.5707 231.5,-31.5707 238.5,-31.5706"/>
</g>
</g>
</svg>
