<?xml version="1.0" encoding="UTF-8" standalone="no"?>
<!DOCTYPE svg PUBLIC "-//W3C//DTD SVG 1.1//EN"
 "http://www.w3.org/Graphics/SVG/1.1/DTD/svg11.dtd">
<!-- Generated by graphviz version 2.26.3 (20100126.1600)
 -->
<!-- Title: G Pages: 1 -->
<svg width="236pt" height="146pt"
 viewBox="0.00 0.00 236.00 146.00" xmlns="http://www.w3.org/2000/svg" xmlns:xlink="http://www.w3.org/1999/xlink">
<g id="graph1" class="graph" transform="scale(1 1) rotate(0) translate(4 142)">
<title>G</title>
<polygon fill="white" stroke="white" points="-4,5 -4,-142 233,-142 233,5 -4,5"/>
<!-- Node1 -->
<g id="node1" class="node"><title>Node1</title>
<polygon fill="#bfbfbf" stroke="black" points="69,-116.5 69,-137.5 163,-137.5 163,-116.5 69,-116.5"/>
<text text-anchor="middle" x="116" y="-124.5" font-family="Helvetica,sans-Serif" font-size="10.00">PhoneKeymap.h</text>
</g>
<!-- Node2 -->
<g id="node3" class="node"><title>Node2</title>
<a xlink:href="PhoneKeyboard_8h.htm" target="_top" xlink:title="PhoneKeyboard.h">
<polygon fill="white" stroke="black" points="5.5,-58.5 5.5,-79.5 106.5,-79.5 106.5,-58.5 5.5,-58.5"/>
<text text-anchor="middle" x="56" y="-66.5" font-family="Helvetica,sans-Serif" font-size="10.00">PhoneKeyboard.h</text>
</a>
</g>
<!-- Node1&#45;&gt;Node2 -->
<g id="edge2" class="edge"><title>Node1&#45;&gt;Node2</title>
<path fill="none" stroke="midnightblue" d="M97.7983,-109.405C87.7259,-99.6683 75.5428,-87.8914 66.9352,-79.5707"/>
<polygon fill="midnightblue" stroke="midnightblue" points="95.3726,-111.928 104.995,-116.362 100.238,-106.895 95.3726,-111.928"/>
</g>
<!-- Node4 -->
<g id="node7" class="node"><title>Node4</title>
<a xlink:href="PhoneKeymap_8cpp.htm" target="_top" xlink:title="PhoneKeymap.cpp">
<polygon fill="white" stroke="black" points="123.5,-58.5 123.5,-79.5 228.5,-79.5 228.5,-58.5 123.5,-58.5"/>
<text text-anchor="middle" x="176" y="-66.5" font-family="Helvetica,sans-Serif" font-size="10.00">PhoneKeymap.cpp</text>
</a>
</g>
<!-- Node1&#45;&gt;Node4 -->
<g id="edge6" class="edge"><title>Node1&#45;&gt;Node4</title>
<path fill="none" stroke="midnightblue" d="M134.202,-109.405C144.274,-99.6683 156.457,-87.8914 165.065,-79.5707"/>
<polygon fill="midnightblue" stroke="midnightblue" points="131.762,-106.895 127.005,-116.362 136.627,-111.928 131.762,-106.895"/>
</g>
<!-- Node3 -->
<g id="node5" class="node"><title>Node3</title>
<a xlink:href="PhoneKeyboard_8cpp.htm" target="_top" xlink:title="PhoneKeyboard.cpp">
<polygon fill="white" stroke="black" points="0,-0.5 0,-21.5 112,-21.5 112,-0.5 0,-0.5"/>
<text text-anchor="middle" x="56" y="-8.5" font-family="Helvetica,sans-Serif" font-size="10.00">PhoneKeyboard.cpp</text>
</a>
</g>
<!-- Node2&#45;&gt;Node3 -->
<g id="edge4" class="edge"><title>Node2&#45;&gt;Node3</title>
<path fill="none" stroke="midnightblue" d="M56,-48.1906C56,-39.1684 56,-28.9941 56,-21.5707"/>
<polygon fill="midnightblue" stroke="midnightblue" points="52.5001,-48.3619 56,-58.3619 59.5001,-48.3619 52.5001,-48.3619"/>
</g>
</g>
</svg>
