<?xml version="1.0" encoding="UTF-8" standalone="no"?>
<!DOCTYPE svg PUBLIC "-//W3C//DTD SVG 1.1//EN"
 "http://www.w3.org/Graphics/SVG/1.1/DTD/svg11.dtd">
<!-- Generated by graphviz version 2.26.3 (20100126.1600)
 -->
<!-- Title: G Pages: 1 -->
<svg width="1562pt" height="320pt"
 viewBox="0.00 0.00 1562.45 320.00" xmlns="http://www.w3.org/2000/svg" xmlns:xlink="http://www.w3.org/1999/xlink">
<g id="graph1" class="graph" transform="scale(1 1) rotate(0) translate(4 316)">
<title>G</title>
<polygon fill="white" stroke="white" points="-4,5 -4,-316 1559.45,-316 1559.45,5 -4,5"/>
<!-- Node1 -->
<g id="node1" class="node"><title>Node1</title>
<polygon fill="#bfbfbf" stroke="black" points="608.62,-290.5 608.62,-311.5 713.62,-311.5 713.62,-290.5 608.62,-290.5"/>
<text text-anchor="middle" x="661.12" y="-298.5" font-family="Helvetica,sans-Serif" font-size="10.00">PhoneKeymap.cpp</text>
</g>
<!-- Node2 -->
<g id="node3" class="node"><title>Node2</title>
<a xlink:href="PhoneKeymap_8h.htm" target="_top" xlink:title="PhoneKeymap.h">
<polygon fill="white" stroke="black" points="129.12,-232.5 129.12,-253.5 223.12,-253.5 223.12,-232.5 129.12,-232.5"/>
<text text-anchor="middle" x="176.12" y="-240.5" font-family="Helvetica,sans-Serif" font-size="10.00">PhoneKeymap.h</text>
</a>
</g>
<!-- Node1&#45;&gt;Node2 -->
<g id="edge2" class="edge"><title>Node1&#45;&gt;Node2</title>
<path fill="none" stroke="midnightblue" d="M608.293,-294.683C516.384,-283.691 327.833,-261.143 233.099,-249.814"/>
<polygon fill="midnightblue" stroke="midnightblue" points="233.472,-246.334 223.127,-248.621 232.64,-253.284 233.472,-246.334"/>
</g>
<!-- Node11 -->
<g id="node21" class="node"><title>Node11</title>
<a xlink:href="Logging_8h.htm" target="_top" xlink:title="Logging.h">
<polygon fill="white" stroke="black" points="440.62,-116.5 440.62,-137.5 503.62,-137.5 503.62,-116.5 440.62,-116.5"/>
<text text-anchor="middle" x="472.12" y="-124.5" font-family="Helvetica,sans-Serif" font-size="10.00">Logging.h</text>
</a>
</g>
<!-- Node1&#45;&gt;Node11 -->
<g id="edge60" class="edge"><title>Node1&#45;&gt;Node11</title>
<path fill="none" stroke="midnightblue" d="M608.61,-293.468C580.839,-287.085 547.881,-275.379 525.12,-254 494.356,-225.104 480.812,-175.611 475.372,-147.708"/>
<polygon fill="midnightblue" stroke="midnightblue" points="478.756,-146.748 473.561,-137.515 471.864,-147.973 478.756,-146.748"/>
</g>
<!-- Node16 -->
<g id="node31" class="node"><title>Node16</title>
<a xlink:href="KeyLocationRecorder_8h.htm" target="_top" xlink:title="KeyLocationRecorder.h">
<polygon fill="white" stroke="black" points="337.12,-232.5 337.12,-253.5 465.12,-253.5 465.12,-232.5 337.12,-232.5"/>
<text text-anchor="middle" x="401.12" y="-240.5" font-family="Helvetica,sans-Serif" font-size="10.00">KeyLocationRecorder.h</text>
</a>
</g>
<!-- Node1&#45;&gt;Node16 -->
<g id="edge30" class="edge"><title>Node1&#45;&gt;Node16</title>
<path fill="none" stroke="midnightblue" d="M614.036,-290.497C570.273,-280.734 504.993,-266.172 458.263,-255.747"/>
<polygon fill="midnightblue" stroke="midnightblue" points="458.815,-252.284 448.292,-253.523 457.29,-259.116 458.815,-252.284"/>
</g>
<!-- Node19 -->
<g id="node41" class="node"><title>Node19</title>
<a xlink:href="Localization_8h.htm" target="_top" xlink:title="Localization.h">
<polygon fill="white" stroke="black" points="533.62,-232.5 533.62,-253.5 614.62,-253.5 614.62,-232.5 533.62,-232.5"/>
<text text-anchor="middle" x="574.12" y="-240.5" font-family="Helvetica,sans-Serif" font-size="10.00">Localization.h</text>
</a>
</g>
<!-- Node1&#45;&gt;Node19 -->
<g id="edge44" class="edge"><title>Node1&#45;&gt;Node19</title>
<path fill="none" stroke="midnightblue" d="M645.163,-290.362C632.163,-281.696 613.589,-269.313 598.693,-259.382"/>
<polygon fill="midnightblue" stroke="midnightblue" points="600.238,-256.206 589.976,-253.571 596.355,-262.03 600.238,-256.206"/>
</g>
<!-- Node20 -->
<g id="node44" class="node"><title>Node20</title>
<a xlink:href="QtUtils_8h.htm" target="_top" xlink:title="QtUtils.h">
<polygon fill="white" stroke="black" points="611.12,-174.5 611.12,-195.5 667.12,-195.5 667.12,-174.5 611.12,-174.5"/>
<text text-anchor="middle" x="639.12" y="-182.5" font-family="Helvetica,sans-Serif" font-size="10.00">QtUtils.h</text>
</a>
</g>
<!-- Node1&#45;&gt;Node20 -->
<g id="edge62" class="edge"><title>Node1&#45;&gt;Node20</title>
<path fill="none" stroke="midnightblue" d="M659.09,-290.295C655.439,-271.045 647.709,-230.289 643.01,-205.509"/>
<polygon fill="midnightblue" stroke="midnightblue" points="646.447,-204.852 641.145,-195.679 639.57,-206.156 646.447,-204.852"/>
</g>
<!-- Node23 -->
<g id="node55" class="node"><title>Node23</title>
<a xlink:href="Utils_8h.htm" target="_top" xlink:title="Utils.h">
<polygon fill="white" stroke="black" points="968.62,-174.5 968.62,-195.5 1013.62,-195.5 1013.62,-174.5 968.62,-174.5"/>
<text text-anchor="middle" x="991.12" y="-182.5" font-family="Helvetica,sans-Serif" font-size="10.00">Utils.h</text>
</a>
</g>
<!-- Node1&#45;&gt;Node23 -->
<g id="edge64" class="edge"><title>Node1&#45;&gt;Node23</title>
<path fill="none" stroke="midnightblue" d="M663.782,-290.373C668.265,-274.843 678.881,-246.251 699.12,-232 740.466,-202.887 891.041,-190.75 958.291,-186.701"/>
<polygon fill="midnightblue" stroke="midnightblue" points="958.559,-190.191 968.34,-186.119 958.154,-183.203 958.559,-190.191"/>
</g>
<!-- Node31 -->
<g id="node75" class="node"><title>Node31</title>
<a xlink:href="VirtualKeyboardPreferences_8h.htm" target="_top" xlink:title="VirtualKeyboardPreferences.h">
<polygon fill="white" stroke="black" points="707.62,-232.5 707.62,-253.5 864.62,-253.5 864.62,-232.5 707.62,-232.5"/>
<text text-anchor="middle" x="786.12" y="-240.5" font-family="Helvetica,sans-Serif" font-size="10.00">VirtualKeyboardPreferences.h</text>
</a>
</g>
<!-- Node1&#45;&gt;Node31 -->
<g id="edge88" class="edge"><title>Node1&#45;&gt;Node31</title>
<path fill="none" stroke="midnightblue" d="M683.757,-290.497C703.368,-281.397 731.966,-268.127 753.953,-257.925"/>
<polygon fill="midnightblue" stroke="midnightblue" points="755.632,-261.005 763.229,-253.621 752.685,-254.655 755.632,-261.005"/>
</g>
<!-- Node42 -->
<g id="node103" class="node"><title>Node42</title>
<polygon fill="white" stroke="#bfbfbf" points="881.62,-232.5 881.62,-253.5 922.62,-253.5 922.62,-232.5 881.62,-232.5"/>
<text text-anchor="middle" x="902.12" y="-240.5" font-family="Helvetica,sans-Serif" font-size="10.00">QFile</text>
</g>
<!-- Node1&#45;&gt;Node42 -->
<g id="edge122" class="edge"><title>Node1&#45;&gt;Node42</title>
<path fill="none" stroke="midnightblue" d="M713.935,-291.492C754.878,-283.625 813.122,-271.354 871.573,-254.205"/>
<polygon fill="midnightblue" stroke="midnightblue" points="872.751,-257.506 881.334,-251.296 870.751,-250.798 872.751,-257.506"/>
</g>
<!-- Node43 -->
<g id="node105" class="node"><title>Node43</title>
<polygon fill="white" stroke="#bfbfbf" points="939.62,-232.5 939.62,-253.5 998.62,-253.5 998.62,-232.5 939.62,-232.5"/>
<text text-anchor="middle" x="969.12" y="-240.5" font-family="Helvetica,sans-Serif" font-size="10.00">qdebug.h</text>
</g>
<!-- Node1&#45;&gt;Node43 -->
<g id="edge124" class="edge"><title>Node1&#45;&gt;Node43</title>
<path fill="none" stroke="midnightblue" d="M713.726,-293.586C766.255,-285.793 849.437,-272.396 929.575,-254.2"/>
<polygon fill="midnightblue" stroke="midnightblue" points="930.369,-257.609 939.33,-251.957 928.8,-250.787 930.369,-257.609"/>
</g>
<!-- Node44 -->
<g id="node107" class="node"><title>Node44</title>
<polygon fill="white" stroke="#bfbfbf" points="1016.12,-232.5 1016.12,-253.5 1090.12,-253.5 1090.12,-232.5 1016.12,-232.5"/>
<text text-anchor="middle" x="1053.12" y="-240.5" font-family="Helvetica,sans-Serif" font-size="10.00">pbnjson.hpp</text>
</g>
<!-- Node1&#45;&gt;Node44 -->
<g id="edge126" class="edge"><title>Node1&#45;&gt;Node44</title>
<path fill="none" stroke="midnightblue" d="M713.844,-295.494C779.917,-288.226 896.783,-274.161 1006.15,-254.043"/>
<polygon fill="midnightblue" stroke="midnightblue" points="1006.84,-257.475 1016.03,-252.205 1005.56,-250.593 1006.84,-257.475"/>
</g>
<!-- Node3 -->
<g id="node5" class="node"><title>Node3</title>
<polygon fill="white" stroke="#bfbfbf" points="364.12,-0.5 364.12,-21.5 462.12,-21.5 462.12,-0.5 364.12,-0.5"/>
<text text-anchor="middle" x="413.12" y="-8.5" font-family="Helvetica,sans-Serif" font-size="10.00">palmimedefines.h</text>
</g>
<!-- Node2&#45;&gt;Node3 -->
<g id="edge4" class="edge"><title>Node2&#45;&gt;Node3</title>
<path fill="none" stroke="midnightblue" d="M128.888,-236.57C83.3727,-229.29 19.2411,-215.807 4.12,-196 -1.81314,-188.228 -0.493723,-182.621 4.12,-174 38.8947,-109.023 253.335,-49.4513 357.05,-24.0079"/>
<polygon fill="midnightblue" stroke="midnightblue" points="358.142,-27.3444 367.031,-21.5807 356.488,-20.5426 358.142,-27.3444"/>
</g>
<!-- Node4 -->
<g id="node7" class="node"><title>Node4</title>
<polygon fill="white" stroke="#bfbfbf" points="270.62,-174.5 270.62,-195.5 319.62,-195.5 319.62,-174.5 270.62,-174.5"/>
<text text-anchor="middle" x="295.12" y="-182.5" font-family="Helvetica,sans-Serif" font-size="10.00">qrect.h</text>
</g>
<!-- Node2&#45;&gt;Node4 -->
<g id="edge6" class="edge"><title>Node2&#45;&gt;Node4</title>
<path fill="none" stroke="midnightblue" d="M197.67,-232.497C216.256,-223.438 243.322,-210.246 264.215,-200.063"/>
<polygon fill="midnightblue" stroke="midnightblue" points="265.873,-203.149 273.328,-195.621 262.806,-196.856 265.873,-203.149"/>
</g>
<!-- Node5 -->
<g id="node9" class="node"><title>Node5</title>
<polygon fill="white" stroke="#bfbfbf" points="196.62,-174.5 196.62,-195.5 253.62,-195.5 253.62,-174.5 196.62,-174.5"/>
<text text-anchor="middle" x="225.12" y="-182.5" font-family="Helvetica,sans-Serif" font-size="10.00">qstring.h</text>
</g>
<!-- Node2&#45;&gt;Node5 -->
<g id="edge8" class="edge"><title>Node2&#45;&gt;Node5</title>
<path fill="none" stroke="midnightblue" d="M185.107,-232.362C191.945,-224.268 201.522,-212.932 209.592,-203.38"/>
<polygon fill="midnightblue" stroke="midnightblue" points="212.41,-205.468 216.19,-195.571 207.062,-200.951 212.41,-205.468"/>
</g>
<!-- Node6 -->
<g id="node11" class="node"><title>Node6</title>
<polygon fill="white" stroke="#bfbfbf" points="13.12,-174.5 13.12,-195.5 57.12,-195.5 57.12,-174.5 13.12,-174.5"/>
<text text-anchor="middle" x="35.12" y="-182.5" font-family="Helvetica,sans-Serif" font-size="10.00">qlist.h</text>
</g>
<!-- Node2&#45;&gt;Node6 -->
<g id="edge10" class="edge"><title>Node2&#45;&gt;Node6</title>
<path fill="none" stroke="midnightblue" d="M150.586,-232.497C127.046,-222.813 92.0263,-208.408 66.7295,-198.002"/>
<polygon fill="midnightblue" stroke="midnightblue" points="67.7987,-194.658 57.2191,-194.09 65.1357,-201.132 67.7987,-194.658"/>
</g>
<!-- Node7 -->
<g id="node13" class="node"><title>Node7</title>
<a xlink:href="PalmIMEHelpers_8h.htm" target="_top" xlink:title="PalmIMEHelpers.h">
<polygon fill="white" stroke="black" points="75.12,-174.5 75.12,-195.5 179.12,-195.5 179.12,-174.5 75.12,-174.5"/>
<text text-anchor="middle" x="127.12" y="-182.5" font-family="Helvetica,sans-Serif" font-size="10.00">PalmIMEHelpers.h</text>
</a>
</g>
<!-- Node2&#45;&gt;Node7 -->
<g id="edge12" class="edge"><title>Node2&#45;&gt;Node7</title>
<path fill="none" stroke="midnightblue" d="M167.133,-232.362C160.295,-224.268 150.718,-212.932 142.648,-203.38"/>
<polygon fill="midnightblue" stroke="midnightblue" points="145.178,-200.951 136.05,-195.571 139.83,-205.468 145.178,-200.951"/>
</g>
<!-- Node8 -->
<g id="node15" class="node"><title>Node8</title>
<polygon fill="white" stroke="#bfbfbf" points="703.12,-116.5 703.12,-137.5 749.12,-137.5 749.12,-116.5 703.12,-116.5"/>
<text text-anchor="middle" x="726.12" y="-124.5" font-family="Helvetica,sans-Serif" font-size="10.00">vector</text>
</g>
<!-- Node7&#45;&gt;Node8 -->
<g id="edge14" class="edge"><title>Node7&#45;&gt;Node8</title>
<path fill="none" stroke="midnightblue" d="M179.312,-175.252C182.288,-174.801 185.239,-174.379 188.12,-174 378.257,-148.955 427.16,-155.717 618.12,-138 643.164,-135.676 671.447,-132.786 692.786,-130.551"/>
<polygon fill="midnightblue" stroke="midnightblue" points="693.379,-134.008 702.957,-129.481 692.646,-127.047 693.379,-134.008"/>
</g>
<!-- Node9 -->
<g id="node17" class="node"><title>Node9</title>
<polygon fill="white" stroke="#bfbfbf" points="100.12,-116.5 100.12,-137.5 154.12,-137.5 154.12,-116.5 100.12,-116.5"/>
<text text-anchor="middle" x="127.12" y="-124.5" font-family="Helvetica,sans-Serif" font-size="10.00">qcolor.h</text>
</g>
<!-- Node7&#45;&gt;Node9 -->
<g id="edge16" class="edge"><title>Node7&#45;&gt;Node9</title>
<path fill="none" stroke="midnightblue" d="M127.12,-174.362C127.12,-166.922 127.12,-156.743 127.12,-147.728"/>
<polygon fill="midnightblue" stroke="midnightblue" points="130.62,-147.571 127.12,-137.571 123.62,-147.571 130.62,-147.571"/>
</g>
<!-- Node10 -->
<g id="node19" class="node"><title>Node10</title>
<polygon fill="white" stroke="#bfbfbf" points="246.12,-116.5 246.12,-137.5 300.12,-137.5 300.12,-116.5 246.12,-116.5"/>
<text text-anchor="middle" x="273.12" y="-124.5" font-family="Helvetica,sans-Serif" font-size="10.00">qpoint.h</text>
</g>
<!-- Node7&#45;&gt;Node10 -->
<g id="edge18" class="edge"><title>Node7&#45;&gt;Node10</title>
<path fill="none" stroke="midnightblue" d="M153.559,-174.497C176.876,-165.234 211.07,-151.65 236.924,-141.379"/>
<polygon fill="midnightblue" stroke="midnightblue" points="238.383,-144.566 246.384,-137.621 235.798,-138.06 238.383,-144.566"/>
</g>
<!-- Node7&#45;&gt;Node11 -->
<g id="edge20" class="edge"><title>Node7&#45;&gt;Node11</title>
<path fill="none" stroke="midnightblue" d="M179.355,-175.53C182.319,-175.008 185.257,-174.495 188.12,-174 274.171,-159.122 375.067,-142.657 430.45,-133.703"/>
<polygon fill="midnightblue" stroke="midnightblue" points="431.261,-137.118 440.576,-132.068 430.145,-130.207 431.261,-137.118"/>
</g>
<!-- Node12 -->
<g id="node23" class="node"><title>Node12</title>
<a xlink:href="Common_8h.htm" target="_top" xlink:title="Common.h">
<polygon fill="white" stroke="black" points="523.62,-58.5 523.62,-79.5 590.62,-79.5 590.62,-58.5 523.62,-58.5"/>
<text text-anchor="middle" x="557.12" y="-66.5" font-family="Helvetica,sans-Serif" font-size="10.00">Common.h</text>
</a>
</g>
<!-- Node11&#45;&gt;Node12 -->
<g id="edge22" class="edge"><title>Node11&#45;&gt;Node12</title>
<path fill="none" stroke="midnightblue" d="M487.71,-116.362C500.411,-107.696 518.558,-95.3126 533.112,-85.3819"/>
<polygon fill="midnightblue" stroke="midnightblue" points="535.341,-88.0982 541.629,-79.5707 531.396,-82.316 535.341,-88.0982"/>
</g>
<!-- Node13 -->
<g id="node25" class="node"><title>Node13</title>
<polygon fill="white" stroke="#bfbfbf" points="371.62,-58.5 371.62,-79.5 418.62,-79.5 418.62,-58.5 371.62,-58.5"/>
<text text-anchor="middle" x="395.12" y="-66.5" font-family="Helvetica,sans-Serif" font-size="10.00">stdio.h</text>
</g>
<!-- Node11&#45;&gt;Node13 -->
<g id="edge24" class="edge"><title>Node11&#45;&gt;Node13</title>
<path fill="none" stroke="midnightblue" d="M457.997,-116.362C446.6,-107.777 430.362,-95.5459 417.242,-85.6636"/>
<polygon fill="midnightblue" stroke="midnightblue" points="419.247,-82.7916 409.153,-79.5707 415.035,-88.3829 419.247,-82.7916"/>
</g>
<!-- Node14 -->
<g id="node27" class="node"><title>Node14</title>
<polygon fill="white" stroke="#bfbfbf" points="607.62,-58.5 607.62,-79.5 648.62,-79.5 648.62,-58.5 607.62,-58.5"/>
<text text-anchor="middle" x="628.12" y="-66.5" font-family="Helvetica,sans-Serif" font-size="10.00">glib.h</text>
</g>
<!-- Node11&#45;&gt;Node14 -->
<g id="edge26" class="edge"><title>Node11&#45;&gt;Node14</title>
<path fill="none" stroke="midnightblue" d="M500.895,-116.426C524.639,-107.685 559.456,-94.8292 597.732,-80.5044"/>
<polygon fill="midnightblue" stroke="midnightblue" points="599.396,-83.6184 607.533,-76.8325 596.94,-77.0634 599.396,-83.6184"/>
</g>
<!-- Node15 -->
<g id="node29" class="node"><title>Node15</title>
<polygon fill="white" stroke="#bfbfbf" points="435.62,-58.5 435.62,-79.5 506.62,-79.5 506.62,-58.5 435.62,-58.5"/>
<text text-anchor="middle" x="471.12" y="-66.5" font-family="Helvetica,sans-Serif" font-size="10.00">PmLogLib.h</text>
</g>
<!-- Node11&#45;&gt;Node15 -->
<g id="edge28" class="edge"><title>Node11&#45;&gt;Node15</title>
<path fill="none" stroke="midnightblue" d="M471.937,-116.362C471.808,-108.922 471.633,-98.7427 471.477,-89.7276"/>
<polygon fill="midnightblue" stroke="midnightblue" points="474.974,-89.5088 471.302,-79.5707 467.975,-89.6295 474.974,-89.5088"/>
</g>
<!-- Node16&#45;&gt;Node4 -->
<g id="edge38" class="edge"><title>Node16&#45;&gt;Node4</title>
<path fill="none" stroke="midnightblue" d="M381.678,-232.362C365.316,-223.409 341.707,-210.491 323.277,-200.406"/>
<polygon fill="midnightblue" stroke="midnightblue" points="324.891,-197.3 314.439,-195.571 321.531,-203.441 324.891,-197.3"/>
</g>
<!-- Node16&#45;&gt;Node5 -->
<g id="edge42" class="edge"><title>Node16&#45;&gt;Node5</title>
<path fill="none" stroke="midnightblue" d="M369.248,-232.497C339.572,-222.717 295.28,-208.121 263.636,-197.693"/>
<polygon fill="midnightblue" stroke="midnightblue" points="264.434,-194.271 253.841,-194.465 262.243,-200.919 264.434,-194.271"/>
</g>
<!-- Node16&#45;&gt;Node10 -->
<g id="edge36" class="edge"><title>Node16&#45;&gt;Node10</title>
<path fill="none" stroke="midnightblue" d="M389.904,-232.065C375.713,-218.307 350.428,-194.052 328.12,-174 316.916,-163.93 304.138,-152.979 293.72,-144.183"/>
<polygon fill="midnightblue" stroke="midnightblue" points="295.853,-141.404 285.946,-137.649 291.35,-146.763 295.853,-141.404"/>
</g>
<!-- Node16&#45;&gt;Node13 -->
<g id="edge32" class="edge"><title>Node16&#45;&gt;Node13</title>
<path fill="none" stroke="midnightblue" d="M412.365,-232.234C420.72,-223.404 431.447,-210.099 436.12,-196 439.196,-186.719 437.929,-183.609 436.12,-174 430.269,-142.929 415.473,-109.255 405.353,-88.6396"/>
<polygon fill="midnightblue" stroke="midnightblue" points="408.444,-86.9945 400.82,-79.6366 402.191,-90.1424 408.444,-86.9945"/>
</g>
<!-- Node17 -->
<g id="node34" class="node"><title>Node17</title>
<polygon fill="white" stroke="#bfbfbf" points="766.62,-116.5 766.62,-137.5 809.62,-137.5 809.62,-116.5 766.62,-116.5"/>
<text text-anchor="middle" x="788.12" y="-124.5" font-family="Helvetica,sans-Serif" font-size="10.00">string</text>
</g>
<!-- Node16&#45;&gt;Node17 -->
<g id="edge34" class="edge"><title>Node16&#45;&gt;Node17</title>
<path fill="none" stroke="midnightblue" d="M465.241,-234.918C534.043,-225.739 638.506,-210.189 676.12,-196 710.113,-183.177 745.108,-159.646 766.733,-143.667"/>
<polygon fill="midnightblue" stroke="midnightblue" points="768.988,-146.351 774.873,-137.54 764.778,-140.758 768.988,-146.351"/>
</g>
<!-- Node18 -->
<g id="node38" class="node"><title>Node18</title>
<polygon fill="white" stroke="#bfbfbf" points="375.12,-174.5 375.12,-195.5 427.12,-195.5 427.12,-174.5 375.12,-174.5"/>
<text text-anchor="middle" x="401.12" y="-182.5" font-family="Helvetica,sans-Serif" font-size="10.00">qchar.h</text>
</g>
<!-- Node16&#45;&gt;Node18 -->
<g id="edge40" class="edge"><title>Node16&#45;&gt;Node18</title>
<path fill="none" stroke="midnightblue" d="M401.12,-232.362C401.12,-224.922 401.12,-214.743 401.12,-205.728"/>
<polygon fill="midnightblue" stroke="midnightblue" points="404.62,-205.571 401.12,-195.571 397.62,-205.571 404.62,-205.571"/>
</g>
<!-- Node19&#45;&gt;Node12 -->
<g id="edge46" class="edge"><title>Node19&#45;&gt;Node12</title>
<path fill="none" stroke="midnightblue" d="M570.131,-232.237C562.505,-210.483 546.888,-159.636 550.12,-116 550.757,-107.403 552.04,-97.9926 553.336,-89.8659"/>
<polygon fill="midnightblue" stroke="midnightblue" points="556.826,-90.2217 555.051,-79.7765 549.925,-89.0483 556.826,-90.2217"/>
</g>
<!-- Node19&#45;&gt;Node20 -->
<g id="edge48" class="edge"><title>Node19&#45;&gt;Node20</title>
<path fill="none" stroke="midnightblue" d="M586.042,-232.362C595.479,-223.941 608.85,-212.011 619.81,-202.231"/>
<polygon fill="midnightblue" stroke="midnightblue" points="622.142,-204.84 627.274,-195.571 617.482,-199.617 622.142,-204.84"/>
</g>
<!-- Node22 -->
<g id="node50" class="node"><title>Node22</title>
<polygon fill="white" stroke="#bfbfbf" points="559.12,-116.5 559.12,-137.5 609.12,-137.5 609.12,-116.5 559.12,-116.5"/>
<text text-anchor="middle" x="584.12" y="-124.5" font-family="Helvetica,sans-Serif" font-size="10.00">QHash</text>
</g>
<!-- Node19&#45;&gt;Node22 -->
<g id="edge58" class="edge"><title>Node19&#45;&gt;Node22</title>
<path fill="none" stroke="midnightblue" d="M575.043,-232.295C576.695,-213.131 580.184,-172.654 582.323,-147.843"/>
<polygon fill="midnightblue" stroke="midnightblue" points="585.827,-147.943 583.199,-137.679 578.853,-147.342 585.827,-147.943"/>
</g>
<!-- Node20&#45;&gt;Node12 -->
<g id="edge50" class="edge"><title>Node20&#45;&gt;Node12</title>
<path fill="none" stroke="midnightblue" d="M637.921,-174.308C635.878,-159.943 630.652,-134.128 618.12,-116 609.578,-103.644 596.783,-93.0799 585.115,-85.1155"/>
<polygon fill="midnightblue" stroke="midnightblue" points="586.798,-82.036 576.5,-79.545 582.997,-87.9141 586.798,-82.036"/>
</g>
<!-- Node20&#45;&gt;Node17 -->
<g id="edge52" class="edge"><title>Node20&#45;&gt;Node17</title>
<path fill="none" stroke="midnightblue" d="M666.103,-174.497C691.647,-164.553 729.982,-149.631 756.849,-139.173"/>
<polygon fill="midnightblue" stroke="midnightblue" points="758.134,-142.428 766.183,-135.539 755.595,-135.905 758.134,-142.428"/>
</g>
<!-- Node21 -->
<g id="node48" class="node"><title>Node21</title>
<polygon fill="white" stroke="#bfbfbf" points="778.62,-0.5 778.62,-21.5 831.62,-21.5 831.62,-0.5 778.62,-0.5"/>
<text text-anchor="middle" x="805.12" y="-8.5" font-family="Helvetica,sans-Serif" font-size="10.00">QString</text>
</g>
<!-- Node20&#45;&gt;Node21 -->
<g id="edge54" class="edge"><title>Node20&#45;&gt;Node21</title>
<path fill="none" stroke="midnightblue" d="M646.883,-174.339C657.159,-160.451 676.086,-135.629 694.12,-116 724.17,-83.2925 762.395,-48.4524 785.247,-28.2612"/>
<polygon fill="midnightblue" stroke="midnightblue" points="787.723,-30.7449 792.927,-21.5162 783.104,-25.4854 787.723,-30.7449"/>
</g>
<!-- Node20&#45;&gt;Node22 -->
<g id="edge56" class="edge"><title>Node20&#45;&gt;Node22</title>
<path fill="none" stroke="midnightblue" d="M629.032,-174.362C621.279,-166.186 610.39,-154.702 601.275,-145.091"/>
<polygon fill="midnightblue" stroke="midnightblue" points="603.565,-142.419 594.144,-137.571 598.485,-147.235 603.565,-142.419"/>
</g>
<!-- Node23&#45;&gt;Node8 -->
<g id="edge72" class="edge"><title>Node23&#45;&gt;Node8</title>
<path fill="none" stroke="midnightblue" d="M968.396,-181.442C928.086,-174.914 841.317,-159.885 759.392,-138.1"/>
<polygon fill="midnightblue" stroke="midnightblue" points="759.995,-134.638 749.428,-135.41 758.17,-141.396 759.995,-134.638"/>
</g>
<!-- Node23&#45;&gt;Node12 -->
<g id="edge66" class="edge"><title>Node23&#45;&gt;Node12</title>
<path fill="none" stroke="midnightblue" d="M968.152,-178.462C940.867,-170.364 894.245,-155.481 856.12,-138 838.381,-129.866 836.493,-122.579 818.12,-116 728.247,-83.8178 697.579,-99.4255 600.867,-80.1978"/>
<polygon fill="midnightblue" stroke="midnightblue" points="601.482,-76.7511 590.981,-78.158 600.068,-83.6067 601.482,-76.7511"/>
</g>
<!-- Node23&#45;&gt;Node14 -->
<g id="edge86" class="edge"><title>Node23&#45;&gt;Node14</title>
<path fill="none" stroke="midnightblue" d="M1013.7,-184.014C1093.59,-180.299 1359.35,-165.913 1384.12,-138 1390.61,-130.687 1390.82,-123.125 1384.12,-116 1358.88,-89.1466 798.109,-73.2823 659.089,-69.7533"/>
<polygon fill="midnightblue" stroke="midnightblue" points="658.826,-66.2457 648.741,-69.4938 658.65,-73.2435 658.826,-66.2457"/>
</g>
<!-- Node23&#45;&gt;Node17 -->
<g id="edge70" class="edge"><title>Node23&#45;&gt;Node17</title>
<path fill="none" stroke="midnightblue" d="M968.501,-178.917C936.177,-170.168 874.945,-153.389 823.12,-138 822.051,-137.683 820.965,-137.357 819.869,-137.027"/>
<polygon fill="midnightblue" stroke="midnightblue" points="820.519,-133.565 809.932,-133.972 818.462,-140.256 820.519,-133.565"/>
</g>
<!-- Node24 -->
<g id="node58" class="node"><title>Node24</title>
<polygon fill="white" stroke="#bfbfbf" points="865.12,-116.5 865.12,-137.5 909.12,-137.5 909.12,-116.5 865.12,-116.5"/>
<text text-anchor="middle" x="887.12" y="-124.5" font-family="Helvetica,sans-Serif" font-size="10.00">time.h</text>
</g>
<!-- Node23&#45;&gt;Node24 -->
<g id="edge68" class="edge"><title>Node23&#45;&gt;Node24</title>
<path fill="none" stroke="midnightblue" d="M972.045,-174.362C956.065,-165.45 933.039,-152.609 914.993,-142.545"/>
<polygon fill="midnightblue" stroke="midnightblue" points="916.513,-139.385 906.074,-137.571 913.103,-145.498 916.513,-139.385"/>
</g>
<!-- Node25 -->
<g id="node62" class="node"><title>Node25</title>
<polygon fill="white" stroke="#bfbfbf" points="927.12,-116.5 927.12,-137.5 981.12,-137.5 981.12,-116.5 927.12,-116.5"/>
<text text-anchor="middle" x="954.12" y="-124.5" font-family="Helvetica,sans-Serif" font-size="10.00">sstream</text>
</g>
<!-- Node23&#45;&gt;Node25 -->
<g id="edge74" class="edge"><title>Node23&#45;&gt;Node25</title>
<path fill="none" stroke="midnightblue" d="M984.334,-174.362C979.327,-166.513 972.375,-155.616 966.402,-146.253"/>
<polygon fill="midnightblue" stroke="midnightblue" points="969.192,-144.119 960.863,-137.571 963.291,-147.884 969.192,-144.119"/>
</g>
<!-- Node26 -->
<g id="node64" class="node"><title>Node26</title>
<polygon fill="white" stroke="#bfbfbf" points="998.62,-116.5 998.62,-137.5 1055.62,-137.5 1055.62,-116.5 998.62,-116.5"/>
<text text-anchor="middle" x="1027.12" y="-124.5" font-family="Helvetica,sans-Serif" font-size="10.00">iostream</text>
</g>
<!-- Node23&#45;&gt;Node26 -->
<g id="edge76" class="edge"><title>Node23&#45;&gt;Node26</title>
<path fill="none" stroke="midnightblue" d="M997.723,-174.362C1002.59,-166.513 1009.36,-155.616 1015.17,-146.253"/>
<polygon fill="midnightblue" stroke="midnightblue" points="1018.26,-147.913 1020.56,-137.571 1012.31,-144.221 1018.26,-147.913"/>
</g>
<!-- Node27 -->
<g id="node66" class="node"><title>Node27</title>
<polygon fill="white" stroke="#bfbfbf" points="1073.12,-116.5 1073.12,-137.5 1125.12,-137.5 1125.12,-116.5 1073.12,-116.5"/>
<text text-anchor="middle" x="1099.12" y="-124.5" font-family="Helvetica,sans-Serif" font-size="10.00">regex.h</text>
</g>
<!-- Node23&#45;&gt;Node27 -->
<g id="edge78" class="edge"><title>Node23&#45;&gt;Node27</title>
<path fill="none" stroke="midnightblue" d="M1010.68,-174.497C1027.32,-165.56 1051.45,-152.602 1070.3,-142.477"/>
<polygon fill="midnightblue" stroke="midnightblue" points="1072.19,-145.436 1079.34,-137.621 1068.88,-139.269 1072.19,-145.436"/>
</g>
<!-- Node28 -->
<g id="node68" class="node"><title>Node28</title>
<polygon fill="white" stroke="#bfbfbf" points="1142.62,-116.5 1142.62,-137.5 1213.62,-137.5 1213.62,-116.5 1142.62,-116.5"/>
<text text-anchor="middle" x="1178.12" y="-124.5" font-family="Helvetica,sans-Serif" font-size="10.00">QByteArray</text>
</g>
<!-- Node23&#45;&gt;Node28 -->
<g id="edge80" class="edge"><title>Node23&#45;&gt;Node28</title>
<path fill="none" stroke="midnightblue" d="M1013.68,-178.004C1043.46,-168.766 1096.54,-152.302 1134.34,-140.579"/>
<polygon fill="midnightblue" stroke="midnightblue" points="1135.56,-143.864 1144.08,-137.559 1133.49,-137.178 1135.56,-143.864"/>
</g>
<!-- Node29 -->
<g id="node70" class="node"><title>Node29</title>
<polygon fill="white" stroke="#bfbfbf" points="1231.12,-116.5 1231.12,-137.5 1269.12,-137.5 1269.12,-116.5 1231.12,-116.5"/>
<text text-anchor="middle" x="1250.12" y="-124.5" font-family="Helvetica,sans-Serif" font-size="10.00">QUrl</text>
</g>
<!-- Node23&#45;&gt;Node29 -->
<g id="edge82" class="edge"><title>Node23&#45;&gt;Node29</title>
<path fill="none" stroke="midnightblue" d="M1013.74,-181.736C1053.84,-175.666 1140.07,-161.345 1221.14,-137.922"/>
<polygon fill="midnightblue" stroke="midnightblue" points="1222.39,-141.202 1230.99,-135.02 1220.41,-134.487 1222.39,-141.202"/>
</g>
<!-- Node30 -->
<g id="node72" class="node"><title>Node30</title>
<polygon fill="white" stroke="#bfbfbf" points="1287.12,-116.5 1287.12,-137.5 1375.12,-137.5 1375.12,-116.5 1287.12,-116.5"/>
<text text-anchor="middle" x="1331.12" y="-124.5" font-family="Helvetica,sans-Serif" font-size="10.00">QGraphicsItem</text>
</g>
<!-- Node23&#45;&gt;Node30 -->
<g id="edge84" class="edge"><title>Node23&#45;&gt;Node30</title>
<path fill="none" stroke="midnightblue" d="M1013.87,-181.609C1060.97,-174.518 1172.79,-157.314 1276.86,-138.181"/>
<polygon fill="midnightblue" stroke="midnightblue" points="1277.7,-141.584 1286.9,-136.323 1276.43,-134.7 1277.7,-141.584"/>
</g>
<!-- Node31&#45;&gt;Node8 -->
<g id="edge92" class="edge"><title>Node31&#45;&gt;Node8</title>
<path fill="none" stroke="midnightblue" d="M780.583,-232.295C770.537,-212.872 749.166,-171.556 736.385,-146.846"/>
<polygon fill="midnightblue" stroke="midnightblue" points="739.347,-144.953 731.644,-137.679 733.129,-148.169 739.347,-144.953"/>
</g>
<!-- Node31&#45;&gt;Node17 -->
<g id="edge90" class="edge"><title>Node31&#45;&gt;Node17</title>
<path fill="none" stroke="midnightblue" d="M786.305,-232.295C786.635,-213.131 787.333,-172.654 787.761,-147.843"/>
<polygon fill="midnightblue" stroke="midnightblue" points="791.263,-147.738 787.936,-137.679 784.264,-147.617 791.263,-147.738"/>
</g>
<!-- Node32 -->
<g id="node79" class="node"><title>Node32</title>
<a xlink:href="VirtualKeyboard_8h.htm" target="_top" xlink:title="VirtualKeyboard.h">
<polygon fill="white" stroke="black" points="1214.62,-174.5 1214.62,-195.5 1313.62,-195.5 1313.62,-174.5 1214.62,-174.5"/>
<text text-anchor="middle" x="1264.12" y="-182.5" font-family="Helvetica,sans-Serif" font-size="10.00">VirtualKeyboard.h</text>
</a>
</g>
<!-- Node31&#45;&gt;Node32 -->
<g id="edge94" class="edge"><title>Node31&#45;&gt;Node32</title>
<path fill="none" stroke="midnightblue" d="M864.838,-233.025C867.633,-232.678 870.4,-232.335 873.12,-232 990.501,-217.525 1127.78,-201.152 1204.47,-192.055"/>
<polygon fill="midnightblue" stroke="midnightblue" points="1204.9,-195.528 1214.42,-190.875 1204.08,-188.577 1204.9,-195.528"/>
</g>
<!-- Node41 -->
<g id="node101" class="node"><title>Node41</title>
<polygon fill="white" stroke="#bfbfbf" points="1330.62,-174.5 1330.62,-195.5 1389.62,-195.5 1389.62,-174.5 1330.62,-174.5"/>
<text text-anchor="middle" x="1360.12" y="-182.5" font-family="Helvetica,sans-Serif" font-size="10.00">qobject.h</text>
</g>
<!-- Node31&#45;&gt;Node41 -->
<g id="edge120" class="edge"><title>Node31&#45;&gt;Node41</title>
<path fill="none" stroke="midnightblue" d="M864.822,-232.885C867.621,-232.578 870.394,-232.281 873.12,-232 1068.95,-211.78 1123.39,-231.344 1320.29,-196.057"/>
<polygon fill="midnightblue" stroke="midnightblue" points="1321.17,-199.454 1330.38,-194.223 1319.92,-192.567 1321.17,-199.454"/>
</g>
<!-- Node33 -->
<g id="node81" class="node"><title>Node33</title>
<a xlink:href="IMEDataInterface_8h.htm" target="_top" xlink:title="IMEDataInterface.h">
<polygon fill="white" stroke="black" points="1431.12,-116.5 1431.12,-137.5 1539.12,-137.5 1539.12,-116.5 1431.12,-116.5"/>
<text text-anchor="middle" x="1485.12" y="-124.5" font-family="Helvetica,sans-Serif" font-size="10.00">IMEDataInterface.h</text>
</a>
</g>
<!-- Node32&#45;&gt;Node33 -->
<g id="edge96" class="edge"><title>Node32&#45;&gt;Node33</title>
<path fill="none" stroke="midnightblue" d="M1304.14,-174.497C1340.95,-164.836 1395.67,-150.477 1435.29,-140.077"/>
<polygon fill="midnightblue" stroke="midnightblue" points="1436.24,-143.447 1445.02,-137.523 1434.46,-136.676 1436.24,-143.447"/>
</g>
<!-- Node40 -->
<g id="node97" class="node"><title>Node40</title>
<a xlink:href="InputMethod_8h.htm" target="_top" xlink:title="InputMethod.h">
<polygon fill="white" stroke="black" points="1395.12,-58.5 1395.12,-79.5 1479.12,-79.5 1479.12,-58.5 1395.12,-58.5"/>
<text text-anchor="middle" x="1437.12" y="-66.5" font-family="Helvetica,sans-Serif" font-size="10.00">InputMethod.h</text>
</a>
</g>
<!-- Node32&#45;&gt;Node40 -->
<g id="edge114" class="edge"><title>Node32&#45;&gt;Node40</title>
<path fill="none" stroke="midnightblue" d="M1313.78,-175.483C1316.6,-174.973 1319.39,-174.476 1322.12,-174 1372.22,-165.261 1515.11,-176.685 1548.12,-138 1570.39,-111.904 1527.64,-92.5656 1488.9,-81.1047"/>
<polygon fill="midnightblue" stroke="midnightblue" points="1489.76,-77.7093 1479.18,-78.3613 1487.86,-84.4461 1489.76,-77.7093"/>
</g>
<!-- Node34 -->
<g id="node83" class="node"><title>Node34</title>
<a xlink:href="IMEData_8h.htm" target="_top" xlink:title="IMEData.h">
<polygon fill="white" stroke="black" points="1206.12,-58.5 1206.12,-79.5 1272.12,-79.5 1272.12,-58.5 1206.12,-58.5"/>
<text text-anchor="middle" x="1239.12" y="-66.5" font-family="Helvetica,sans-Serif" font-size="10.00">IMEData.h</text>
</a>
</g>
<!-- Node33&#45;&gt;Node34 -->
<g id="edge98" class="edge"><title>Node33&#45;&gt;Node34</title>
<path fill="none" stroke="midnightblue" d="M1440.57,-116.497C1395.61,-105.897 1326.66,-89.6384 1282.22,-79.162"/>
<polygon fill="midnightblue" stroke="midnightblue" points="1282.84,-75.7128 1272.31,-76.8245 1281.24,-82.526 1282.84,-75.7128"/>
</g>
<!-- Node34&#45;&gt;Node3 -->
<g id="edge112" class="edge"><title>Node34&#45;&gt;Node3</title>
<path fill="none" stroke="midnightblue" d="M1205.97,-66.6725C1080.6,-57.8693 634.329,-26.5328 472.38,-15.1611"/>
<polygon fill="midnightblue" stroke="midnightblue" points="472.351,-11.6505 462.13,-14.4414 471.861,-18.6334 472.351,-11.6505"/>
</g>
<!-- Node34&#45;&gt;Node21 -->
<g id="edge110" class="edge"><title>Node34&#45;&gt;Node21</title>
<path fill="none" stroke="midnightblue" d="M1205.79,-64.5451C1126.03,-53.8865 924.687,-26.979 841.721,-15.8913"/>
<polygon fill="midnightblue" stroke="midnightblue" points="842.119,-12.4136 831.744,-14.558 841.192,-19.3519 842.119,-12.4136"/>
</g>
<!-- Node35 -->
<g id="node85" class="node"><title>Node35</title>
<polygon fill="white" stroke="#bfbfbf" points="1183.62,-0.5 1183.62,-21.5 1230.62,-21.5 1230.62,-0.5 1183.62,-0.5"/>
<text text-anchor="middle" x="1207.12" y="-8.5" font-family="Helvetica,sans-Serif" font-size="10.00">QRect</text>
</g>
<!-- Node34&#45;&gt;Node35 -->
<g id="edge100" class="edge"><title>Node34&#45;&gt;Node35</title>
<path fill="none" stroke="midnightblue" d="M1233.25,-58.3619C1228.97,-50.5949 1223.03,-39.8426 1217.9,-30.5458"/>
<polygon fill="midnightblue" stroke="midnightblue" points="1220.85,-28.6357 1212.95,-21.5707 1214.72,-32.0172 1220.85,-28.6357"/>
</g>
<!-- Node36 -->
<g id="node87" class="node"><title>Node36</title>
<polygon fill="white" stroke="#bfbfbf" points="1247.62,-0.5 1247.62,-21.5 1292.62,-21.5 1292.62,-0.5 1247.62,-0.5"/>
<text text-anchor="middle" x="1270.12" y="-8.5" font-family="Helvetica,sans-Serif" font-size="10.00">QSize</text>
</g>
<!-- Node34&#45;&gt;Node36 -->
<g id="edge102" class="edge"><title>Node34&#45;&gt;Node36</title>
<path fill="none" stroke="midnightblue" d="M1244.81,-58.3619C1248.96,-50.5949 1254.7,-39.8426 1259.67,-30.5458"/>
<polygon fill="midnightblue" stroke="midnightblue" points="1262.84,-32.0398 1264.47,-21.5707 1256.67,-28.7401 1262.84,-32.0398"/>
</g>
<!-- Node37 -->
<g id="node89" class="node"><title>Node37</title>
<polygon fill="white" stroke="#bfbfbf" points="1309.62,-0.5 1309.62,-21.5 1390.62,-21.5 1390.62,-0.5 1309.62,-0.5"/>
<text text-anchor="middle" x="1350.12" y="-8.5" font-family="Helvetica,sans-Serif" font-size="10.00">QTouchEvent</text>
</g>
<!-- Node34&#45;&gt;Node37 -->
<g id="edge104" class="edge"><title>Node34&#45;&gt;Node37</title>
<path fill="none" stroke="midnightblue" d="M1259.22,-58.4966C1276.4,-49.5194 1301.35,-36.4835 1320.76,-26.3387"/>
<polygon fill="midnightblue" stroke="midnightblue" points="1322.55,-29.3544 1329.79,-21.6212 1319.31,-23.1503 1322.55,-29.3544"/>
</g>
<!-- Node38 -->
<g id="node91" class="node"><title>Node38</title>
<polygon fill="white" stroke="#bfbfbf" points="1407.62,-0.5 1407.62,-21.5 1466.62,-21.5 1466.62,-0.5 1407.62,-0.5"/>
<text text-anchor="middle" x="1437.12" y="-8.5" font-family="Helvetica,sans-Serif" font-size="10.00">QPainter</text>
</g>
<!-- Node34&#45;&gt;Node38 -->
<g id="edge106" class="edge"><title>Node34&#45;&gt;Node38</title>
<path fill="none" stroke="midnightblue" d="M1272.26,-59.2921C1306.78,-49.1815 1360.84,-33.3451 1397.57,-22.5865"/>
<polygon fill="midnightblue" stroke="midnightblue" points="1398.82,-25.8658 1407.43,-19.6957 1396.85,-19.1481 1398.82,-25.8658"/>
</g>
<!-- Node39 -->
<g id="node93" class="node"><title>Node39</title>
<polygon fill="white" stroke="#bfbfbf" points="1107.62,-0.5 1107.62,-21.5 1166.62,-21.5 1166.62,-0.5 1107.62,-0.5"/>
<text text-anchor="middle" x="1137.12" y="-8.5" font-family="Helvetica,sans-Serif" font-size="10.00">QRegion</text>
</g>
<!-- Node34&#45;&gt;Node39 -->
<g id="edge108" class="edge"><title>Node34&#45;&gt;Node39</title>
<path fill="none" stroke="midnightblue" d="M1220.41,-58.3619C1204.74,-49.4502 1182.16,-36.6087 1164.46,-26.5447"/>
<polygon fill="midnightblue" stroke="midnightblue" points="1166.13,-23.4712 1155.71,-21.5707 1162.67,-29.5562 1166.13,-23.4712"/>
</g>
<!-- Node40&#45;&gt;Node37 -->
<g id="edge116" class="edge"><title>Node40&#45;&gt;Node37</title>
<path fill="none" stroke="midnightblue" d="M1421.16,-58.3619C1408.16,-49.6955 1389.59,-37.3126 1374.69,-27.3819"/>
<polygon fill="midnightblue" stroke="midnightblue" points="1376.24,-24.2055 1365.98,-21.5707 1372.36,-30.0299 1376.24,-24.2055"/>
</g>
<!-- Node40&#45;&gt;Node38 -->
<g id="edge118" class="edge"><title>Node40&#45;&gt;Node38</title>
<path fill="none" stroke="midnightblue" d="M1437.12,-58.3619C1437.12,-50.9219 1437.12,-40.7427 1437.12,-31.7276"/>
<polygon fill="midnightblue" stroke="midnightblue" points="1440.62,-31.5706 1437.12,-21.5707 1433.62,-31.5707 1440.62,-31.5706"/>
</g>
</g>
</svg>
