<?xml version="1.0" encoding="UTF-8" standalone="no"?>
<!DOCTYPE svg PUBLIC "-//W3C//DTD SVG 1.1//EN"
 "http://www.w3.org/Graphics/SVG/1.1/DTD/svg11.dtd">
<!-- Generated by graphviz version 2.26.3 (20100126.1600)
 -->
<!-- Title: G Pages: 1 -->
<svg width="2348pt" height="262pt"
 viewBox="0.00 0.00 2348.00 262.00" xmlns="http://www.w3.org/2000/svg" xmlns:xlink="http://www.w3.org/1999/xlink">
<g id="graph1" class="graph" transform="scale(1 1) rotate(0) translate(4 258)">
<title>G</title>
<polygon fill="white" stroke="white" points="-4,5 -4,-258 2345,-258 2345,5 -4,5"/>
<!-- Node1 -->
<g id="node1" class="node"><title>Node1</title>
<polygon fill="#bfbfbf" stroke="black" points="1698,-232.5 1698,-253.5 1776,-253.5 1776,-232.5 1698,-232.5"/>
<text text-anchor="middle" x="1737" y="-240.5" font-family="Helvetica,sans-Serif" font-size="10.00">pixbutton.cpp</text>
</g>
<!-- Node2 -->
<g id="node3" class="node"><title>Node2</title>
<a xlink:href="dimensionsglobal_8h.htm" target="_top" xlink:title="dimensionsglobal.h">
<polygon fill="white" stroke="black" points="222,-174.5 222,-195.5 328,-195.5 328,-174.5 222,-174.5"/>
<text text-anchor="middle" x="275" y="-182.5" font-family="Helvetica,sans-Serif" font-size="10.00">dimensionsglobal.h</text>
</a>
</g>
<!-- Node1&#45;&gt;Node2 -->
<g id="edge2" class="edge"><title>Node1&#45;&gt;Node2</title>
<path fill="none" stroke="midnightblue" d="M1697.84,-241.986C1540.45,-237.826 938.668,-221.084 444,-196 409.024,-194.226 370.01,-191.722 338.287,-189.551"/>
<polygon fill="midnightblue" stroke="midnightblue" points="338.475,-186.055 328.258,-188.859 337.993,-193.039 338.475,-186.055"/>
</g>
<!-- Node11 -->
<g id="node21" class="node"><title>Node11</title>
<a xlink:href="pixbutton_8h.htm" target="_top" xlink:title="pixbutton.h">
<polygon fill="white" stroke="black" points="878.5,-174.5 878.5,-195.5 945.5,-195.5 945.5,-174.5 878.5,-174.5"/>
<text text-anchor="middle" x="912" y="-182.5" font-family="Helvetica,sans-Serif" font-size="10.00">pixbutton.h</text>
</a>
</g>
<!-- Node1&#45;&gt;Node11 -->
<g id="edge20" class="edge"><title>Node1&#45;&gt;Node11</title>
<path fill="none" stroke="midnightblue" d="M1697.76,-240.242C1560.31,-230.578 1101.02,-198.289 956.162,-188.105"/>
<polygon fill="midnightblue" stroke="midnightblue" points="956.108,-184.592 945.887,-187.382 955.617,-191.575 956.108,-184.592"/>
</g>
<!-- Node16 -->
<g id="node32" class="node"><title>Node16</title>
<polygon fill="white" stroke="#bfbfbf" points="1095.5,-0.5 1095.5,-21.5 1148.5,-21.5 1148.5,-0.5 1095.5,-0.5"/>
<text text-anchor="middle" x="1122" y="-8.5" font-family="Helvetica,sans-Serif" font-size="10.00">QString</text>
</g>
<!-- Node1&#45;&gt;Node16 -->
<g id="edge96" class="edge"><title>Node1&#45;&gt;Node16</title>
<path fill="none" stroke="midnightblue" d="M1697.58,-239.327C1566.65,-226.73 1152.41,-183.538 1115,-138 1090.14,-107.739 1103.08,-58.4574 1113.38,-31.0301"/>
<polygon fill="midnightblue" stroke="midnightblue" points="1116.66,-32.2587 1117.12,-21.6737 1110.16,-29.6643 1116.66,-32.2587"/>
</g>
<!-- Node18 -->
<g id="node37" class="node"><title>Node18</title>
<polygon fill="white" stroke="#bfbfbf" points="1540.5,-0.5 1540.5,-21.5 1595.5,-21.5 1595.5,-0.5 1540.5,-0.5"/>
<text text-anchor="middle" x="1568" y="-8.5" font-family="Helvetica,sans-Serif" font-size="10.00">QDebug</text>
</g>
<!-- Node1&#45;&gt;Node18 -->
<g id="edge98" class="edge"><title>Node1&#45;&gt;Node18</title>
<path fill="none" stroke="midnightblue" d="M1750.22,-232.345C1771.53,-215.303 1812.72,-182.92 1829,-174 1872.72,-150.051 1954.86,-155.913 1925,-116 1886.21,-64.1622 1689.33,-29.1329 1605.68,-16.3673"/>
<polygon fill="midnightblue" stroke="midnightblue" points="1606,-12.876 1595.59,-14.852 1604.96,-19.7984 1606,-12.876"/>
</g>
<!-- Node23 -->
<g id="node53" class="node"><title>Node23</title>
<a xlink:href="pixmapobject_8h.htm" target="_top" xlink:title="pixmapobject.h">
<polygon fill="white" stroke="black" points="453,-174.5 453,-195.5 539,-195.5 539,-174.5 453,-174.5"/>
<text text-anchor="middle" x="496" y="-182.5" font-family="Helvetica,sans-Serif" font-size="10.00">pixmapobject.h</text>
</a>
</g>
<!-- Node1&#45;&gt;Node23 -->
<g id="edge60" class="edge"><title>Node1&#45;&gt;Node23</title>
<path fill="none" stroke="midnightblue" d="M1697.81,-241.168C1516.4,-232.69 758.167,-197.253 549.409,-187.496"/>
<polygon fill="midnightblue" stroke="midnightblue" points="549.464,-183.995 539.311,-187.024 549.137,-190.987 549.464,-183.995"/>
</g>
<!-- Node27 -->
<g id="node62" class="node"><title>Node27</title>
<a xlink:href="layoutsettings_8h.htm" target="_top" xlink:title="layoutsettings.h">
<polygon fill="white" stroke="black" points="1416.5,-174.5 1416.5,-195.5 1505.5,-195.5 1505.5,-174.5 1416.5,-174.5"/>
<text text-anchor="middle" x="1461" y="-182.5" font-family="Helvetica,sans-Serif" font-size="10.00">layoutsettings.h</text>
</a>
</g>
<!-- Node1&#45;&gt;Node27 -->
<g id="edge70" class="edge"><title>Node1&#45;&gt;Node27</title>
<path fill="none" stroke="midnightblue" d="M1697.75,-234.752C1650.07,-224.733 1569.37,-207.774 1515.64,-196.482"/>
<polygon fill="midnightblue" stroke="midnightblue" points="1516.11,-193.004 1505.6,-194.373 1514.67,-199.855 1516.11,-193.004"/>
</g>
<!-- Node35 -->
<g id="node81" class="node"><title>Node35</title>
<polygon fill="white" stroke="#bfbfbf" points="1838,-174.5 1838,-195.5 1994,-195.5 1994,-174.5 1838,-174.5"/>
<text text-anchor="middle" x="1916" y="-182.5" font-family="Helvetica,sans-Serif" font-size="10.00">QGraphicsSceneMouseEvent</text>
</g>
<!-- Node1&#45;&gt;Node35 -->
<g id="edge92" class="edge"><title>Node1&#45;&gt;Node35</title>
<path fill="none" stroke="midnightblue" d="M1769.42,-232.497C1798.72,-223 1842.05,-208.962 1874,-198.609"/>
<polygon fill="midnightblue" stroke="midnightblue" points="1875.09,-201.935 1883.52,-195.523 1872.93,-195.276 1875.09,-201.935"/>
</g>
<!-- Node36 -->
<g id="node83" class="node"><title>Node36</title>
<polygon fill="white" stroke="#bfbfbf" points="2011.5,-174.5 2011.5,-195.5 2070.5,-195.5 2070.5,-174.5 2011.5,-174.5"/>
<text text-anchor="middle" x="2041" y="-182.5" font-family="Helvetica,sans-Serif" font-size="10.00">QPainter</text>
</g>
<!-- Node1&#45;&gt;Node36 -->
<g id="edge94" class="edge"><title>Node1&#45;&gt;Node36</title>
<path fill="none" stroke="midnightblue" d="M1776.03,-237.441C1826.18,-230.005 1916.07,-215.69 2001.37,-196.224"/>
<polygon fill="midnightblue" stroke="midnightblue" points="2002.25,-199.612 2011.21,-193.95 2000.68,-192.792 2002.25,-199.612"/>
</g>
<!-- Node37 -->
<g id="node87" class="node"><title>Node37</title>
<polygon fill="white" stroke="#bfbfbf" points="2087.5,-174.5 2087.5,-195.5 2164.5,-195.5 2164.5,-174.5 2087.5,-174.5"/>
<text text-anchor="middle" x="2126" y="-182.5" font-family="Helvetica,sans-Serif" font-size="10.00">QTextOption</text>
</g>
<!-- Node1&#45;&gt;Node37 -->
<g id="edge100" class="edge"><title>Node1&#45;&gt;Node37</title>
<path fill="none" stroke="midnightblue" d="M1776.17,-238.822C1838.12,-231.952 1962.67,-217.077 2077.33,-196.193"/>
<polygon fill="midnightblue" stroke="midnightblue" points="2078.13,-199.605 2087.33,-194.352 2076.86,-192.721 2078.13,-199.605"/>
</g>
<!-- Node38 -->
<g id="node89" class="node"><title>Node38</title>
<polygon fill="white" stroke="#bfbfbf" points="2182,-174.5 2182,-195.5 2234,-195.5 2234,-174.5 2182,-174.5"/>
<text text-anchor="middle" x="2208" y="-182.5" font-family="Helvetica,sans-Serif" font-size="10.00">QEvent</text>
</g>
<!-- Node1&#45;&gt;Node38 -->
<g id="edge102" class="edge"><title>Node1&#45;&gt;Node38</title>
<path fill="none" stroke="midnightblue" d="M1776.19,-241.365C1851.39,-237.673 2021.11,-226.652 2171.87,-195.906"/>
<polygon fill="midnightblue" stroke="midnightblue" points="2172.69,-199.311 2181.77,-193.853 2171.27,-192.457 2172.69,-199.311"/>
</g>
<!-- Node39 -->
<g id="node91" class="node"><title>Node39</title>
<polygon fill="white" stroke="#bfbfbf" points="1854,-116.5 1854,-137.5 1916,-137.5 1916,-116.5 1854,-116.5"/>
<text text-anchor="middle" x="1885" y="-124.5" font-family="Helvetica,sans-Serif" font-size="10.00">QGesture</text>
</g>
<!-- Node1&#45;&gt;Node39 -->
<g id="edge104" class="edge"><title>Node1&#45;&gt;Node39</title>
<path fill="none" stroke="midnightblue" d="M1744.34,-232.073C1754.57,-217.442 1774.34,-191.326 1796,-174 1812.23,-161.016 1832.6,-149.949 1849.75,-141.822"/>
<polygon fill="midnightblue" stroke="midnightblue" points="1851.28,-144.972 1858.9,-137.616 1848.36,-138.612 1851.28,-144.972"/>
</g>
<!-- Node40 -->
<g id="node93" class="node"><title>Node40</title>
<polygon fill="white" stroke="#bfbfbf" points="2251.5,-174.5 2251.5,-195.5 2340.5,-195.5 2340.5,-174.5 2251.5,-174.5"/>
<text text-anchor="middle" x="2296" y="-182.5" font-family="Helvetica,sans-Serif" font-size="10.00">QGestureEvent</text>
</g>
<!-- Node1&#45;&gt;Node40 -->
<g id="edge106" class="edge"><title>Node1&#45;&gt;Node40</title>
<path fill="none" stroke="midnightblue" d="M1776.22,-240.858C1859.92,-235.965 2062.33,-222.416 2241.13,-196.159"/>
<polygon fill="midnightblue" stroke="midnightblue" points="2241.87,-199.588 2251.24,-194.657 2240.84,-192.664 2241.87,-199.588"/>
</g>
<!-- Node41 -->
<g id="node95" class="node"><title>Node41</title>
<a xlink:href="FlickGesture_8h.htm" target="_top" xlink:title="FlickGesture.h">
<polygon fill="white" stroke="black" points="1661.5,-174.5 1661.5,-195.5 1744.5,-195.5 1744.5,-174.5 1661.5,-174.5"/>
<text text-anchor="middle" x="1703" y="-182.5" font-family="Helvetica,sans-Serif" font-size="10.00">FlickGesture.h</text>
</a>
</g>
<!-- Node1&#45;&gt;Node41 -->
<g id="edge108" class="edge"><title>Node1&#45;&gt;Node41</title>
<path fill="none" stroke="midnightblue" d="M1730.76,-232.362C1726.16,-224.513 1719.77,-213.616 1714.29,-204.253"/>
<polygon fill="midnightblue" stroke="midnightblue" points="1717.27,-202.428 1709.2,-195.571 1711.23,-205.968 1717.27,-202.428"/>
</g>
<!-- Node43 -->
<g id="node102" class="node"><title>Node43</title>
<a xlink:href="Settings_8h.htm" target="_top" xlink:title="Settings.h">
<polygon fill="white" stroke="black" points="1547.5,-174.5 1547.5,-195.5 1610.5,-195.5 1610.5,-174.5 1547.5,-174.5"/>
<text text-anchor="middle" x="1579" y="-182.5" font-family="Helvetica,sans-Serif" font-size="10.00">Settings.h</text>
</a>
</g>
<!-- Node1&#45;&gt;Node43 -->
<g id="edge118" class="edge"><title>Node1&#45;&gt;Node43</title>
<path fill="none" stroke="midnightblue" d="M1708.39,-232.497C1682.85,-223.123 1645.26,-209.324 1617.17,-199.012"/>
<polygon fill="midnightblue" stroke="midnightblue" points="1618.26,-195.684 1607.67,-195.523 1615.85,-202.255 1618.26,-195.684"/>
</g>
<!-- Node3 -->
<g id="node5" class="node"><title>Node3</title>
<polygon fill="white" stroke="#bfbfbf" points="245.5,-116.5 245.5,-137.5 304.5,-137.5 304.5,-116.5 245.5,-116.5"/>
<text text-anchor="middle" x="275" y="-124.5" font-family="Helvetica,sans-Serif" font-size="10.00">qglobal.h</text>
</g>
<!-- Node2&#45;&gt;Node3 -->
<g id="edge4" class="edge"><title>Node2&#45;&gt;Node3</title>
<path fill="none" stroke="midnightblue" d="M275,-174.362C275,-166.922 275,-156.743 275,-147.728"/>
<polygon fill="midnightblue" stroke="midnightblue" points="278.5,-147.571 275,-137.571 271.5,-147.571 278.5,-147.571"/>
</g>
<!-- Node4 -->
<g id="node7" class="node"><title>Node4</title>
<polygon fill="white" stroke="#bfbfbf" points="0,-116.5 0,-137.5 54,-137.5 54,-116.5 0,-116.5"/>
<text text-anchor="middle" x="27" y="-124.5" font-family="Helvetica,sans-Serif" font-size="10.00">qmath.h</text>
</g>
<!-- Node2&#45;&gt;Node4 -->
<g id="edge6" class="edge"><title>Node2&#45;&gt;Node4</title>
<path fill="none" stroke="midnightblue" d="M225.939,-174.423C183.916,-165.23 121.837,-151.329 68,-138 66.7526,-137.691 65.4848,-137.373 64.2054,-137.049"/>
<polygon fill="midnightblue" stroke="midnightblue" points="64.8671,-133.605 54.3089,-134.485 63.1114,-140.381 64.8671,-133.605"/>
</g>
<!-- Node5 -->
<g id="node9" class="node"><title>Node5</title>
<polygon fill="white" stroke="#bfbfbf" points="775.5,-0.5 775.5,-21.5 828.5,-21.5 828.5,-0.5 775.5,-0.5"/>
<text text-anchor="middle" x="802" y="-8.5" font-family="Helvetica,sans-Serif" font-size="10.00">QRectF</text>
</g>
<!-- Node2&#45;&gt;Node5 -->
<g id="edge8" class="edge"><title>Node2&#45;&gt;Node5</title>
<path fill="none" stroke="midnightblue" d="M289.37,-174.37C310.287,-159.358 350.804,-131.997 389,-116 521.683,-60.4303 691.063,-28.7017 764.855,-16.6552"/>
<polygon fill="midnightblue" stroke="midnightblue" points="765.715,-20.0621 775.033,-15.0202 764.604,-13.1507 765.715,-20.0621"/>
</g>
<!-- Node6 -->
<g id="node11" class="node"><title>Node6</title>
<polygon fill="white" stroke="#bfbfbf" points="1297.5,-116.5 1297.5,-137.5 1346.5,-137.5 1346.5,-116.5 1297.5,-116.5"/>
<text text-anchor="middle" x="1322" y="-124.5" font-family="Helvetica,sans-Serif" font-size="10.00">QPoint</text>
</g>
<!-- Node2&#45;&gt;Node6 -->
<g id="edge10" class="edge"><title>Node2&#45;&gt;Node6</title>
<path fill="none" stroke="midnightblue" d="M328.262,-181.226C361.524,-178.946 405.245,-176.087 444,-174 628.561,-164.063 1088.55,-171.783 1287.48,-137.803"/>
<polygon fill="midnightblue" stroke="midnightblue" points="1288.1,-141.248 1297.33,-136.046 1286.87,-134.357 1288.1,-141.248"/>
</g>
<!-- Node7 -->
<g id="node13" class="node"><title>Node7</title>
<polygon fill="white" stroke="#bfbfbf" points="535.5,-116.5 535.5,-137.5 590.5,-137.5 590.5,-116.5 535.5,-116.5"/>
<text text-anchor="middle" x="563" y="-124.5" font-family="Helvetica,sans-Serif" font-size="10.00">QPointF</text>
</g>
<!-- Node2&#45;&gt;Node7 -->
<g id="edge12" class="edge"><title>Node2&#45;&gt;Node7</title>
<path fill="none" stroke="midnightblue" d="M328.466,-176.816C377.53,-168.903 452.367,-155.825 525.36,-138.235"/>
<polygon fill="midnightblue" stroke="midnightblue" points="526.293,-141.61 535.178,-135.839 524.633,-134.81 526.293,-141.61"/>
</g>
<!-- Node8 -->
<g id="node15" class="node"><title>Node8</title>
<polygon fill="white" stroke="#bfbfbf" points="347,-0.5 347,-21.5 393,-21.5 393,-0.5 347,-0.5"/>
<text text-anchor="middle" x="370" y="-8.5" font-family="Helvetica,sans-Serif" font-size="10.00">QUuid</text>
</g>
<!-- Node2&#45;&gt;Node8 -->
<g id="edge14" class="edge"><title>Node2&#45;&gt;Node8</title>
<path fill="none" stroke="midnightblue" d="M221.562,-177.745C176.03,-170.338 115.696,-157.192 101,-138 95.0555,-130.237 96.0657,-124.441 101,-116 125.795,-73.5815 270.325,-34.5632 336.696,-18.6066"/>
<polygon fill="midnightblue" stroke="midnightblue" points="337.725,-21.9599 346.647,-16.2467 336.109,-15.1488 337.725,-21.9599"/>
</g>
<!-- Node9 -->
<g id="node17" class="node"><title>Node9</title>
<polygon fill="white" stroke="#bfbfbf" points="560,-0.5 560,-21.5 610,-21.5 610,-0.5 560,-0.5"/>
<text text-anchor="middle" x="585" y="-8.5" font-family="Helvetica,sans-Serif" font-size="10.00">QHash</text>
</g>
<!-- Node2&#45;&gt;Node9 -->
<g id="edge16" class="edge"><title>Node2&#45;&gt;Node9</title>
<path fill="none" stroke="midnightblue" d="M261.615,-174.307C245.841,-160.385 223.398,-135.525 237,-116 273.378,-63.7803 468.45,-28.6678 549.575,-16.1207"/>
<polygon fill="midnightblue" stroke="midnightblue" points="550.428,-19.5313 559.788,-14.5676 549.376,-12.6108 550.428,-19.5313"/>
</g>
<!-- Node10 -->
<g id="node19" class="node"><title>Node10</title>
<polygon fill="white" stroke="#bfbfbf" points="110,-116.5 110,-137.5 190,-137.5 190,-116.5 110,-116.5"/>
<text text-anchor="middle" x="150" y="-124.5" font-family="Helvetica,sans-Serif" font-size="10.00">QVariantMap</text>
</g>
<!-- Node2&#45;&gt;Node10 -->
<g id="edge18" class="edge"><title>Node2&#45;&gt;Node10</title>
<path fill="none" stroke="midnightblue" d="M252.363,-174.497C232.752,-165.397 204.154,-152.127 182.167,-141.925"/>
<polygon fill="midnightblue" stroke="midnightblue" points="183.435,-138.655 172.891,-137.621 180.488,-145.005 183.435,-138.655"/>
</g>
<!-- Node11&#45;&gt;Node5 -->
<g id="edge46" class="edge"><title>Node11&#45;&gt;Node5</title>
<path fill="none" stroke="midnightblue" d="M910.541,-174.164C908.313,-160.087 903.201,-135.061 893,-116 874.41,-81.2646 842.502,-48.1139 821.836,-28.6634"/>
<polygon fill="midnightblue" stroke="midnightblue" points="823.98,-25.8796 814.257,-21.6702 819.233,-31.0241 823.98,-25.8796"/>
</g>
<!-- Node11&#45;&gt;Node7 -->
<g id="edge54" class="edge"><title>Node11&#45;&gt;Node7</title>
<path fill="none" stroke="midnightblue" d="M878.346,-181.595C822.427,-175.583 706.764,-161.643 600.702,-138.164"/>
<polygon fill="midnightblue" stroke="midnightblue" points="601.323,-134.717 590.799,-135.937 599.788,-141.546 601.323,-134.717"/>
</g>
<!-- Node12 -->
<g id="node23" class="node"><title>Node12</title>
<a xlink:href="thingpaintable_8h.htm" target="_top" xlink:title="thingpaintable.h">
<polygon fill="white" stroke="black" points="939.5,-116.5 939.5,-137.5 1030.5,-137.5 1030.5,-116.5 939.5,-116.5"/>
<text text-anchor="middle" x="985" y="-124.5" font-family="Helvetica,sans-Serif" font-size="10.00">thingpaintable.h</text>
</a>
</g>
<!-- Node11&#45;&gt;Node12 -->
<g id="edge22" class="edge"><title>Node11&#45;&gt;Node12</title>
<path fill="none" stroke="midnightblue" d="M925.389,-174.362C936.091,-165.859 951.296,-153.779 963.671,-143.947"/>
<polygon fill="midnightblue" stroke="midnightblue" points="966.043,-146.532 971.696,-137.571 961.689,-141.051 966.043,-146.532"/>
</g>
<!-- Node11&#45;&gt;Node16 -->
<g id="edge50" class="edge"><title>Node11&#45;&gt;Node16</title>
<path fill="none" stroke="midnightblue" d="M945.606,-179.405C973.366,-173.305 1012.4,-161.148 1039,-138 1069.45,-111.504 1059.24,-91.335 1082,-58 1088.87,-47.9419 1097.52,-37.5493 1105.03,-29.1024"/>
<polygon fill="midnightblue" stroke="midnightblue" points="1107.64,-31.4314 1111.77,-21.6744 1102.45,-26.7267 1107.64,-31.4314"/>
</g>
<!-- Node19 -->
<g id="node43" class="node"><title>Node19</title>
<polygon fill="white" stroke="#bfbfbf" points="679.5,-116.5 679.5,-137.5 726.5,-137.5 726.5,-116.5 679.5,-116.5"/>
<text text-anchor="middle" x="703" y="-124.5" font-family="Helvetica,sans-Serif" font-size="10.00">QRect</text>
</g>
<!-- Node11&#45;&gt;Node19 -->
<g id="edge48" class="edge"><title>Node11&#45;&gt;Node19</title>
<path fill="none" stroke="midnightblue" d="M878.195,-176.789C844.45,-168.424 790.927,-154.704 736.511,-138.336"/>
<polygon fill="midnightblue" stroke="midnightblue" points="737.29,-134.914 726.704,-135.359 735.257,-141.613 737.29,-134.914"/>
</g>
<!-- Node20 -->
<g id="node46" class="node"><title>Node20</title>
<polygon fill="white" stroke="#bfbfbf" points="1124,-116.5 1124,-137.5 1174,-137.5 1174,-116.5 1124,-116.5"/>
<text text-anchor="middle" x="1149" y="-124.5" font-family="Helvetica,sans-Serif" font-size="10.00">QColor</text>
</g>
<!-- Node11&#45;&gt;Node20 -->
<g id="edge52" class="edge"><title>Node11&#45;&gt;Node20</title>
<path fill="none" stroke="midnightblue" d="M945.705,-176.752C990.283,-165.842 1068.48,-146.704 1113.8,-135.614"/>
<polygon fill="midnightblue" stroke="midnightblue" points="1114.88,-138.954 1123.76,-133.177 1113.21,-132.154 1114.88,-138.954"/>
</g>
<!-- Node21 -->
<g id="node49" class="node"><title>Node21</title>
<polygon fill="white" stroke="#bfbfbf" points="744,-116.5 744,-137.5 790,-137.5 790,-116.5 744,-116.5"/>
<text text-anchor="middle" x="767" y="-124.5" font-family="Helvetica,sans-Serif" font-size="10.00">QFont</text>
</g>
<!-- Node11&#45;&gt;Node21 -->
<g id="edge56" class="edge"><title>Node11&#45;&gt;Node21</title>
<path fill="none" stroke="midnightblue" d="M885.742,-174.497C861.571,-164.828 825.633,-150.453 799.628,-140.051"/>
<polygon fill="midnightblue" stroke="midnightblue" points="800.777,-136.741 790.192,-136.277 798.177,-143.241 800.777,-136.741"/>
</g>
<!-- Node22 -->
<g id="node51" class="node"><title>Node22</title>
<polygon fill="white" stroke="#bfbfbf" points="807.5,-116.5 807.5,-137.5 884.5,-137.5 884.5,-116.5 807.5,-116.5"/>
<text text-anchor="middle" x="846" y="-124.5" font-family="Helvetica,sans-Serif" font-size="10.00">QTextLayout</text>
</g>
<!-- Node11&#45;&gt;Node22 -->
<g id="edge58" class="edge"><title>Node11&#45;&gt;Node22</title>
<path fill="none" stroke="midnightblue" d="M899.895,-174.362C890.312,-165.941 876.736,-154.011 865.607,-144.231"/>
<polygon fill="midnightblue" stroke="midnightblue" points="867.851,-141.543 858.029,-137.571 863.23,-146.801 867.851,-141.543"/>
</g>
<!-- Node12&#45;&gt;Node5 -->
<g id="edge44" class="edge"><title>Node12&#45;&gt;Node5</title>
<path fill="none" stroke="midnightblue" d="M971.914,-116.259C954.325,-102.066 921.813,-76.6824 892,-58 873.348,-46.3113 851.478,-34.8427 833.967,-26.1606"/>
<polygon fill="midnightblue" stroke="midnightblue" points="835.256,-22.8947 824.736,-21.6403 832.177,-29.1815 835.256,-22.8947"/>
</g>
<!-- Node13 -->
<g id="node25" class="node"><title>Node13</title>
<a xlink:href="thing_8h.htm" target="_top" xlink:title="thing.h">
<polygon fill="white" stroke="black" points="944,-58.5 944,-79.5 992,-79.5 992,-58.5 944,-58.5"/>
<text text-anchor="middle" x="968" y="-66.5" font-family="Helvetica,sans-Serif" font-size="10.00">thing.h</text>
</a>
</g>
<!-- Node12&#45;&gt;Node13 -->
<g id="edge24" class="edge"><title>Node12&#45;&gt;Node13</title>
<path fill="none" stroke="midnightblue" d="M981.882,-116.362C979.677,-108.84 976.652,-98.5187 973.988,-89.4308"/>
<polygon fill="midnightblue" stroke="midnightblue" points="977.27,-88.1825 971.098,-79.5707 970.552,-90.1514 977.27,-88.1825"/>
</g>
<!-- Node12&#45;&gt;Node16 -->
<g id="edge42" class="edge"><title>Node12&#45;&gt;Node16</title>
<path fill="none" stroke="midnightblue" d="M992.483,-116.25C1002.88,-101.82 1022.83,-75.9307 1044,-58 1058.39,-45.8134 1076.29,-34.7819 1091.32,-26.4737"/>
<polygon fill="midnightblue" stroke="midnightblue" points="1093.1,-29.4893 1100.25,-21.6666 1089.79,-23.326 1093.1,-29.4893"/>
</g>
<!-- Node13&#45;&gt;Node5 -->
<g id="edge36" class="edge"><title>Node13&#45;&gt;Node5</title>
<path fill="none" stroke="midnightblue" d="M943.862,-60.5663C916.074,-50.8571 870.149,-34.8111 838.105,-23.615"/>
<polygon fill="midnightblue" stroke="midnightblue" points="839.236,-20.3028 828.641,-20.3084 836.927,-26.911 839.236,-20.3028"/>
</g>
<!-- Node13&#45;&gt;Node8 -->
<g id="edge28" class="edge"><title>Node13&#45;&gt;Node8</title>
<path fill="none" stroke="midnightblue" d="M943.817,-66.6545C850.137,-57.5685 511.008,-24.6763 403.168,-14.2169"/>
<polygon fill="midnightblue" stroke="midnightblue" points="403.473,-10.7302 393.182,-13.2484 402.797,-17.6975 403.473,-10.7302"/>
</g>
<!-- Node13&#45;&gt;Node9 -->
<g id="edge40" class="edge"><title>Node13&#45;&gt;Node9</title>
<path fill="none" stroke="midnightblue" d="M943.751,-65.3278C878.183,-55.3985 697.151,-27.9837 620.27,-16.3412"/>
<polygon fill="midnightblue" stroke="midnightblue" points="620.548,-12.8434 610.136,-14.8065 619.5,-19.7645 620.548,-12.8434"/>
</g>
<!-- Node14 -->
<g id="node27" class="node"><title>Node14</title>
<polygon fill="white" stroke="#bfbfbf" points="980,-0.5 980,-21.5 1078,-21.5 1078,-0.5 980,-0.5"/>
<text text-anchor="middle" x="1029" y="-8.5" font-family="Helvetica,sans-Serif" font-size="10.00">QGraphicsObject</text>
</g>
<!-- Node13&#45;&gt;Node14 -->
<g id="edge26" class="edge"><title>Node13&#45;&gt;Node14</title>
<path fill="none" stroke="midnightblue" d="M979.188,-58.3619C987.959,-50.0226 1000.35,-38.2418 1010.58,-28.5162"/>
<polygon fill="midnightblue" stroke="midnightblue" points="1013.05,-30.9978 1017.88,-21.5707 1008.22,-25.9248 1013.05,-30.9978"/>
</g>
<!-- Node15 -->
<g id="node30" class="node"><title>Node15</title>
<polygon fill="white" stroke="#bfbfbf" points="845.5,-0.5 845.5,-21.5 904.5,-21.5 904.5,-0.5 845.5,-0.5"/>
<text text-anchor="middle" x="875" y="-8.5" font-family="Helvetica,sans-Serif" font-size="10.00">QPointer</text>
</g>
<!-- Node13&#45;&gt;Node15 -->
<g id="edge30" class="edge"><title>Node13&#45;&gt;Node15</title>
<path fill="none" stroke="midnightblue" d="M950.942,-58.3619C936.915,-49.6138 916.816,-37.0786 900.818,-27.1015"/>
<polygon fill="midnightblue" stroke="midnightblue" points="902.287,-23.8927 891.949,-21.5707 898.582,-29.8323 902.287,-23.8927"/>
</g>
<!-- Node13&#45;&gt;Node16 -->
<g id="edge32" class="edge"><title>Node13&#45;&gt;Node16</title>
<path fill="none" stroke="midnightblue" d="M992.062,-59.9375C1017.11,-50.504 1056.64,-35.615 1085.53,-24.7353"/>
<polygon fill="midnightblue" stroke="midnightblue" points="1087.14,-27.8697 1095.26,-21.0697 1084.67,-21.3189 1087.14,-27.8697"/>
</g>
<!-- Node17 -->
<g id="node34" class="node"><title>Node17</title>
<polygon fill="white" stroke="#bfbfbf" points="921.5,-0.5 921.5,-21.5 962.5,-21.5 962.5,-0.5 921.5,-0.5"/>
<text text-anchor="middle" x="942" y="-8.5" font-family="Helvetica,sans-Serif" font-size="10.00">QList</text>
</g>
<!-- Node13&#45;&gt;Node17 -->
<g id="edge34" class="edge"><title>Node13&#45;&gt;Node17</title>
<path fill="none" stroke="midnightblue" d="M963.231,-58.3619C959.786,-50.6766 955.031,-40.0686 950.894,-30.8399"/>
<polygon fill="midnightblue" stroke="midnightblue" points="954.023,-29.264 946.739,-21.5707 947.635,-32.1275 954.023,-29.264"/>
</g>
<!-- Node13&#45;&gt;Node18 -->
<g id="edge38" class="edge"><title>Node13&#45;&gt;Node18</title>
<path fill="none" stroke="midnightblue" d="M992.264,-66.6545C1084.97,-57.6928 1417.26,-25.5717 1530.15,-14.6586"/>
<polygon fill="midnightblue" stroke="midnightblue" points="1530.76,-18.1162 1540.38,-13.6702 1530.09,-11.1487 1530.76,-18.1162"/>
</g>
<!-- Node23&#45;&gt;Node8 -->
<g id="edge66" class="edge"><title>Node23&#45;&gt;Node8</title>
<path fill="none" stroke="midnightblue" d="M452.989,-176.582C430.482,-169.92 404.465,-158.229 389,-138 365.318,-107.023 365.127,-59.0925 367.382,-31.834"/>
<polygon fill="midnightblue" stroke="midnightblue" points="370.869,-32.1456 368.399,-21.8427 363.905,-31.437 370.869,-32.1456"/>
</g>
<!-- Node24 -->
<g id="node55" class="node"><title>Node24</title>
<polygon fill="white" stroke="#bfbfbf" points="607.5,-116.5 607.5,-137.5 662.5,-137.5 662.5,-116.5 607.5,-116.5"/>
<text text-anchor="middle" x="635" y="-124.5" font-family="Helvetica,sans-Serif" font-size="10.00">QObject</text>
</g>
<!-- Node23&#45;&gt;Node24 -->
<g id="edge62" class="edge"><title>Node23&#45;&gt;Node24</title>
<path fill="none" stroke="midnightblue" d="M521.172,-174.497C543.273,-165.275 575.639,-151.769 600.213,-141.515"/>
<polygon fill="midnightblue" stroke="midnightblue" points="601.665,-144.702 609.546,-137.621 598.969,-138.242 601.665,-144.702"/>
</g>
<!-- Node25 -->
<g id="node57" class="node"><title>Node25</title>
<polygon fill="white" stroke="#bfbfbf" points="397.5,-116.5 397.5,-137.5 456.5,-137.5 456.5,-116.5 397.5,-116.5"/>
<text text-anchor="middle" x="427" y="-124.5" font-family="Helvetica,sans-Serif" font-size="10.00">QPixmap</text>
</g>
<!-- Node23&#45;&gt;Node25 -->
<g id="edge64" class="edge"><title>Node23&#45;&gt;Node25</title>
<path fill="none" stroke="midnightblue" d="M483.344,-174.362C473.326,-165.941 459.133,-154.011 447.499,-144.231"/>
<polygon fill="midnightblue" stroke="midnightblue" points="449.482,-141.326 439.575,-137.571 444.978,-146.684 449.482,-141.326"/>
</g>
<!-- Node26 -->
<g id="node60" class="node"><title>Node26</title>
<polygon fill="white" stroke="#bfbfbf" points="473.5,-116.5 473.5,-137.5 518.5,-137.5 518.5,-116.5 473.5,-116.5"/>
<text text-anchor="middle" x="496" y="-124.5" font-family="Helvetica,sans-Serif" font-size="10.00">QSize</text>
</g>
<!-- Node23&#45;&gt;Node26 -->
<g id="edge68" class="edge"><title>Node23&#45;&gt;Node26</title>
<path fill="none" stroke="midnightblue" d="M496,-174.362C496,-166.922 496,-156.743 496,-147.728"/>
<polygon fill="midnightblue" stroke="midnightblue" points="499.5,-147.571 496,-137.571 492.5,-147.571 499.5,-147.571"/>
</g>
<!-- Node27&#45;&gt;Node6 -->
<g id="edge88" class="edge"><title>Node27&#45;&gt;Node6</title>
<path fill="none" stroke="midnightblue" d="M1435.83,-174.497C1413.45,-165.159 1380.55,-151.431 1355.87,-141.132"/>
<polygon fill="midnightblue" stroke="midnightblue" points="1357.09,-137.851 1346.52,-137.231 1354.4,-144.312 1357.09,-137.851"/>
</g>
<!-- Node27&#45;&gt;Node16 -->
<g id="edge86" class="edge"><title>Node27&#45;&gt;Node16</title>
<path fill="none" stroke="midnightblue" d="M1416.45,-180.048C1356.36,-172.736 1253.15,-157.756 1221,-138 1177.96,-111.552 1146.36,-59.1673 1131.49,-30.637"/>
<polygon fill="midnightblue" stroke="midnightblue" points="1134.57,-28.9703 1126.93,-21.6219 1128.32,-32.126 1134.57,-28.9703"/>
</g>
<!-- Node27&#45;&gt;Node20 -->
<g id="edge90" class="edge"><title>Node27&#45;&gt;Node20</title>
<path fill="none" stroke="midnightblue" d="M1416.27,-178.765C1361.96,-170.858 1267.74,-156.057 1188,-138 1186.73,-137.712 1185.43,-137.407 1184.13,-137.091"/>
<polygon fill="midnightblue" stroke="midnightblue" points="1184.63,-133.606 1174.08,-134.489 1182.88,-140.383 1184.63,-133.606"/>
</g>
<!-- Node28 -->
<g id="node64" class="node"><title>Node28</title>
<a xlink:href="Common_8h.htm" target="_top" xlink:title="Common.h">
<polygon fill="white" stroke="black" points="1669.5,-116.5 1669.5,-137.5 1736.5,-137.5 1736.5,-116.5 1669.5,-116.5"/>
<text text-anchor="middle" x="1703" y="-124.5" font-family="Helvetica,sans-Serif" font-size="10.00">Common.h</text>
</a>
</g>
<!-- Node27&#45;&gt;Node28 -->
<g id="edge72" class="edge"><title>Node27&#45;&gt;Node28</title>
<path fill="none" stroke="midnightblue" d="M1505.56,-174.868C1544,-166.052 1601.26,-152.739 1659.38,-138.368"/>
<polygon fill="midnightblue" stroke="midnightblue" points="1660.23,-141.764 1669.09,-135.959 1658.54,-134.97 1660.23,-141.764"/>
</g>
<!-- Node29 -->
<g id="node66" class="node"><title>Node29</title>
<polygon fill="white" stroke="#bfbfbf" points="1439.5,-116.5 1439.5,-137.5 1482.5,-137.5 1482.5,-116.5 1439.5,-116.5"/>
<text text-anchor="middle" x="1461" y="-124.5" font-family="Helvetica,sans-Serif" font-size="10.00">string</text>
</g>
<!-- Node27&#45;&gt;Node29 -->
<g id="edge74" class="edge"><title>Node27&#45;&gt;Node29</title>
<path fill="none" stroke="midnightblue" d="M1461,-174.362C1461,-166.922 1461,-156.743 1461,-147.728"/>
<polygon fill="midnightblue" stroke="midnightblue" points="1464.5,-147.571 1461,-137.571 1457.5,-147.571 1464.5,-147.571"/>
</g>
<!-- Node30 -->
<g id="node68" class="node"><title>Node30</title>
<polygon fill="white" stroke="#bfbfbf" points="1500,-116.5 1500,-137.5 1546,-137.5 1546,-116.5 1500,-116.5"/>
<text text-anchor="middle" x="1523" y="-124.5" font-family="Helvetica,sans-Serif" font-size="10.00">vector</text>
</g>
<!-- Node27&#45;&gt;Node30 -->
<g id="edge76" class="edge"><title>Node27&#45;&gt;Node30</title>
<path fill="none" stroke="midnightblue" d="M1472.37,-174.362C1481.29,-166.023 1493.88,-154.242 1504.28,-144.516"/>
<polygon fill="midnightblue" stroke="midnightblue" points="1506.79,-146.958 1511.7,-137.571 1502.01,-141.846 1506.79,-146.958"/>
</g>
<!-- Node31 -->
<g id="node70" class="node"><title>Node31</title>
<polygon fill="white" stroke="#bfbfbf" points="1563.5,-116.5 1563.5,-137.5 1594.5,-137.5 1594.5,-116.5 1563.5,-116.5"/>
<text text-anchor="middle" x="1579" y="-124.5" font-family="Helvetica,sans-Serif" font-size="10.00">set</text>
</g>
<!-- Node27&#45;&gt;Node31 -->
<g id="edge78" class="edge"><title>Node27&#45;&gt;Node31</title>
<path fill="none" stroke="midnightblue" d="M1482.37,-174.497C1502.64,-164.532 1533.09,-149.567 1554.37,-139.105"/>
<polygon fill="midnightblue" stroke="midnightblue" points="1556.01,-142.202 1563.44,-134.65 1552.92,-135.92 1556.01,-142.202"/>
</g>
<!-- Node32 -->
<g id="node72" class="node"><title>Node32</title>
<polygon fill="white" stroke="#bfbfbf" points="1611.5,-116.5 1611.5,-137.5 1652.5,-137.5 1652.5,-116.5 1611.5,-116.5"/>
<text text-anchor="middle" x="1632" y="-124.5" font-family="Helvetica,sans-Serif" font-size="10.00">glib.h</text>
</g>
<!-- Node27&#45;&gt;Node32 -->
<g id="edge80" class="edge"><title>Node27&#45;&gt;Node32</title>
<path fill="none" stroke="midnightblue" d="M1494.13,-174.478C1520.97,-165.857 1559.96,-153.112 1601.89,-138.313"/>
<polygon fill="midnightblue" stroke="midnightblue" points="1603.19,-141.564 1611.45,-134.921 1600.85,-134.967 1603.19,-141.564"/>
</g>
<!-- Node33 -->
<g id="node74" class="node"><title>Node33</title>
<polygon fill="white" stroke="#bfbfbf" points="1364,-116.5 1364,-137.5 1422,-137.5 1422,-116.5 1364,-116.5"/>
<text text-anchor="middle" x="1393" y="-124.5" font-family="Helvetica,sans-Serif" font-size="10.00">QtGlobal</text>
</g>
<!-- Node27&#45;&gt;Node33 -->
<g id="edge82" class="edge"><title>Node27&#45;&gt;Node33</title>
<path fill="none" stroke="midnightblue" d="M1448.53,-174.362C1438.65,-165.941 1424.67,-154.011 1413.2,-144.231"/>
<polygon fill="midnightblue" stroke="midnightblue" points="1415.27,-141.397 1405.39,-137.571 1410.73,-146.723 1415.27,-141.397"/>
</g>
<!-- Node34 -->
<g id="node76" class="node"><title>Node34</title>
<polygon fill="white" stroke="#bfbfbf" points="1229.5,-116.5 1229.5,-137.5 1280.5,-137.5 1280.5,-116.5 1229.5,-116.5"/>
<text text-anchor="middle" x="1255" y="-124.5" font-family="Helvetica,sans-Serif" font-size="10.00">QSizeF</text>
</g>
<!-- Node27&#45;&gt;Node34 -->
<g id="edge84" class="edge"><title>Node27&#45;&gt;Node34</title>
<path fill="none" stroke="midnightblue" d="M1420.19,-174.416C1387.36,-165.775 1339.83,-152.981 1290.2,-138.281"/>
<polygon fill="midnightblue" stroke="midnightblue" points="1291.16,-134.916 1280.58,-135.416 1289.16,-141.625 1291.16,-134.916"/>
</g>
<!-- Node41&#45;&gt;Node6 -->
<g id="edge114" class="edge"><title>Node41&#45;&gt;Node6</title>
<path fill="none" stroke="midnightblue" d="M1661.39,-179.484C1579.69,-168.64 1402.74,-145.089 1356.84,-137.637"/>
<polygon fill="midnightblue" stroke="midnightblue" points="1357.19,-134.144 1346.72,-135.795 1355.93,-141.03 1357.19,-134.144"/>
</g>
<!-- Node41&#45;&gt;Node28 -->
<g id="edge110" class="edge"><title>Node41&#45;&gt;Node28</title>
<path fill="none" stroke="midnightblue" d="M1703,-174.362C1703,-166.922 1703,-156.743 1703,-147.728"/>
<polygon fill="midnightblue" stroke="midnightblue" points="1706.5,-147.571 1703,-137.571 1699.5,-147.571 1706.5,-147.571"/>
</g>
<!-- Node41&#45;&gt;Node39 -->
<g id="edge112" class="edge"><title>Node41&#45;&gt;Node39</title>
<path fill="none" stroke="midnightblue" d="M1735.96,-174.497C1766.32,-164.823 1811.46,-150.436 1844.11,-140.032"/>
<polygon fill="midnightblue" stroke="midnightblue" points="1845.34,-143.312 1853.81,-136.941 1843.22,-136.643 1845.34,-143.312"/>
</g>
<!-- Node42 -->
<g id="node100" class="node"><title>Node42</title>
<polygon fill="white" stroke="#bfbfbf" points="1753.5,-116.5 1753.5,-137.5 1836.5,-137.5 1836.5,-116.5 1753.5,-116.5"/>
<text text-anchor="middle" x="1795" y="-124.5" font-family="Helvetica,sans-Serif" font-size="10.00">SysMgrDefs.h</text>
</g>
<!-- Node41&#45;&gt;Node42 -->
<g id="edge116" class="edge"><title>Node41&#45;&gt;Node42</title>
<path fill="none" stroke="midnightblue" d="M1719.87,-174.362C1733.75,-165.614 1753.63,-153.079 1769.46,-143.101"/>
<polygon fill="midnightblue" stroke="midnightblue" points="1771.64,-145.864 1778.23,-137.571 1767.91,-139.943 1771.64,-145.864"/>
</g>
<!-- Node43&#45;&gt;Node28 -->
<g id="edge120" class="edge"><title>Node43&#45;&gt;Node28</title>
<path fill="none" stroke="midnightblue" d="M1601.46,-174.497C1620.91,-165.397 1649.28,-152.127 1671.09,-141.925"/>
<polygon fill="midnightblue" stroke="midnightblue" points="1672.72,-145.028 1680.29,-137.621 1669.75,-138.688 1672.72,-145.028"/>
</g>
<!-- Node43&#45;&gt;Node29 -->
<g id="edge122" class="edge"><title>Node43&#45;&gt;Node29</title>
<path fill="none" stroke="midnightblue" d="M1557.63,-174.497C1539.2,-165.438 1512.36,-152.246 1491.64,-142.063"/>
<polygon fill="midnightblue" stroke="midnightblue" points="1493.13,-138.891 1482.61,-137.621 1490.04,-145.174 1493.13,-138.891"/>
</g>
<!-- Node43&#45;&gt;Node30 -->
<g id="edge124" class="edge"><title>Node43&#45;&gt;Node30</title>
<path fill="none" stroke="midnightblue" d="M1568.73,-174.362C1560.76,-166.104 1549.53,-154.472 1540.19,-144.803"/>
<polygon fill="midnightblue" stroke="midnightblue" points="1542.67,-142.334 1533.21,-137.571 1537.63,-147.196 1542.67,-142.334"/>
</g>
<!-- Node43&#45;&gt;Node31 -->
<g id="edge126" class="edge"><title>Node43&#45;&gt;Node31</title>
<path fill="none" stroke="midnightblue" d="M1579,-174.362C1579,-166.922 1579,-156.743 1579,-147.728"/>
<polygon fill="midnightblue" stroke="midnightblue" points="1582.5,-147.571 1579,-137.571 1575.5,-147.571 1582.5,-147.571"/>
</g>
<!-- Node43&#45;&gt;Node32 -->
<g id="edge128" class="edge"><title>Node43&#45;&gt;Node32</title>
<path fill="none" stroke="midnightblue" d="M1588.72,-174.362C1596.19,-166.186 1606.69,-154.702 1615.47,-145.091"/>
<polygon fill="midnightblue" stroke="midnightblue" points="1618.18,-147.314 1622.34,-137.571 1613.01,-142.592 1618.18,-147.314"/>
</g>
<!-- Node43&#45;&gt;Node33 -->
<g id="edge130" class="edge"><title>Node43&#45;&gt;Node33</title>
<path fill="none" stroke="midnightblue" d="M1547.45,-175.161C1515.56,-165.219 1466.24,-149.837 1431.94,-139.142"/>
<polygon fill="midnightblue" stroke="midnightblue" points="1432.84,-135.757 1422.25,-136.121 1430.76,-142.44 1432.84,-135.757"/>
</g>
</g>
</svg>
