<?xml version="1.0" encoding="UTF-8" standalone="no"?>
<!DOCTYPE svg PUBLIC "-//W3C//DTD SVG 1.1//EN"
 "http://www.w3.org/Graphics/SVG/1.1/DTD/svg11.dtd">
<!-- Generated by graphviz version 2.26.3 (20100126.1600)
 -->
<!-- Title: G Pages: 1 -->
<svg width="712pt" height="146pt"
 viewBox="0.00 0.00 712.00 146.00" xmlns="http://www.w3.org/2000/svg" xmlns:xlink="http://www.w3.org/1999/xlink">
<g id="graph1" class="graph" transform="scale(1 1) rotate(0) translate(4 142)">
<title>G</title>
<polygon fill="white" stroke="white" points="-4,5 -4,-142 709,-142 709,5 -4,5"/>
<!-- Node1 -->
<g id="node1" class="node"><title>Node1</title>
<polygon fill="#bfbfbf" stroke="black" points="241.5,-116.5 241.5,-137.5 342.5,-137.5 342.5,-116.5 241.5,-116.5"/>
<text text-anchor="middle" x="292" y="-124.5" font-family="Helvetica,sans-Serif" font-size="10.00">PixmapButton.cpp</text>
</g>
<!-- Node2 -->
<g id="node3" class="node"><title>Node2</title>
<a xlink:href="Common_8h.htm" target="_top" xlink:title="Common.h">
<polygon fill="white" stroke="black" points="-0.5,-0.5 -0.5,-21.5 66.5,-21.5 66.5,-0.5 -0.5,-0.5"/>
<text text-anchor="middle" x="33" y="-8.5" font-family="Helvetica,sans-Serif" font-size="10.00">Common.h</text>
</a>
</g>
<!-- Node1&#45;&gt;Node2 -->
<g id="edge2" class="edge"><title>Node1&#45;&gt;Node2</title>
<path fill="none" stroke="midnightblue" d="M241.443,-123.391C179.07,-117.907 77.9542,-105.318 51,-80 37.9299,-67.7232 33.8875,-47.2501 32.8413,-31.7857"/>
<polygon fill="midnightblue" stroke="midnightblue" points="36.3337,-31.4849 32.5228,-21.5992 29.3371,-31.7038 36.3337,-31.4849"/>
</g>
<!-- Node3 -->
<g id="node5" class="node"><title>Node3</title>
<polygon fill="white" stroke="#bfbfbf" points="59.5,-58.5 59.5,-79.5 100.5,-79.5 100.5,-58.5 59.5,-58.5"/>
<text text-anchor="middle" x="80" y="-66.5" font-family="Helvetica,sans-Serif" font-size="10.00">glib.h</text>
</g>
<!-- Node1&#45;&gt;Node3 -->
<g id="edge4" class="edge"><title>Node1&#45;&gt;Node3</title>
<path fill="none" stroke="midnightblue" d="M244.96,-116.44C210.007,-108.251 161.024,-96.0594 110.58,-80.3019"/>
<polygon fill="midnightblue" stroke="midnightblue" points="111.402,-76.891 100.812,-77.211 109.29,-83.5649 111.402,-76.891"/>
</g>
<!-- Node4 -->
<g id="node7" class="node"><title>Node4</title>
<polygon fill="white" stroke="#bfbfbf" points="117.5,-58.5 117.5,-79.5 160.5,-79.5 160.5,-58.5 117.5,-58.5"/>
<text text-anchor="middle" x="139" y="-66.5" font-family="Helvetica,sans-Serif" font-size="10.00">string</text>
</g>
<!-- Node1&#45;&gt;Node4 -->
<g id="edge6" class="edge"><title>Node1&#45;&gt;Node4</title>
<path fill="none" stroke="midnightblue" d="M264.293,-116.497C237.756,-106.437 197.776,-91.2811 170.147,-80.8075"/>
<polygon fill="midnightblue" stroke="midnightblue" points="171.167,-77.4508 160.575,-77.1788 168.685,-83.9963 171.167,-77.4508"/>
</g>
<!-- Node5 -->
<g id="node9" class="node"><title>Node5</title>
<a xlink:href="PixmapButton_8h.htm" target="_top" xlink:title="PixmapButton.h">
<polygon fill="white" stroke="black" points="177.5,-58.5 177.5,-79.5 266.5,-79.5 266.5,-58.5 177.5,-58.5"/>
<text text-anchor="middle" x="222" y="-66.5" font-family="Helvetica,sans-Serif" font-size="10.00">PixmapButton.h</text>
</a>
</g>
<!-- Node1&#45;&gt;Node5 -->
<g id="edge8" class="edge"><title>Node1&#45;&gt;Node5</title>
<path fill="none" stroke="midnightblue" d="M279.161,-116.362C268.998,-107.941 254.599,-96.0105 242.796,-86.2308"/>
<polygon fill="midnightblue" stroke="midnightblue" points="244.691,-83.2558 234.758,-79.5707 240.225,-88.6459 244.691,-83.2558"/>
</g>
<!-- Node10 -->
<g id="node20" class="node"><title>Node10</title>
<polygon fill="white" stroke="#bfbfbf" points="284,-58.5 284,-79.5 440,-79.5 440,-58.5 284,-58.5"/>
<text text-anchor="middle" x="362" y="-66.5" font-family="Helvetica,sans-Serif" font-size="10.00">QGraphicsSceneMouseEvent</text>
</g>
<!-- Node1&#45;&gt;Node10 -->
<g id="edge20" class="edge"><title>Node1&#45;&gt;Node10</title>
<path fill="none" stroke="midnightblue" d="M304.839,-116.362C315.002,-107.941 329.401,-96.0105 341.204,-86.2308"/>
<polygon fill="midnightblue" stroke="midnightblue" points="343.775,-88.6459 349.242,-79.5707 339.309,-83.2558 343.775,-88.6459"/>
</g>
<!-- Node11 -->
<g id="node22" class="node"><title>Node11</title>
<polygon fill="white" stroke="#bfbfbf" points="457.5,-58.5 457.5,-79.5 516.5,-79.5 516.5,-58.5 457.5,-58.5"/>
<text text-anchor="middle" x="487" y="-66.5" font-family="Helvetica,sans-Serif" font-size="10.00">QPainter</text>
</g>
<!-- Node1&#45;&gt;Node11 -->
<g id="edge22" class="edge"><title>Node1&#45;&gt;Node11</title>
<path fill="none" stroke="midnightblue" d="M327.313,-116.497C361.177,-106.424 412.217,-91.2431 447.435,-80.7681"/>
<polygon fill="midnightblue" stroke="midnightblue" points="448.782,-84.0189 457.37,-77.8131 446.787,-77.3094 448.782,-84.0189"/>
</g>
<!-- Node12 -->
<g id="node24" class="node"><title>Node12</title>
<polygon fill="white" stroke="#bfbfbf" points="534,-58.5 534,-79.5 632,-79.5 632,-58.5 534,-58.5"/>
<text text-anchor="middle" x="583" y="-66.5" font-family="Helvetica,sans-Serif" font-size="10.00">QGraphicsObject</text>
</g>
<!-- Node1&#45;&gt;Node12 -->
<g id="edge24" class="edge"><title>Node1&#45;&gt;Node12</title>
<path fill="none" stroke="midnightblue" d="M342.688,-116.897C393.172,-106.835 470.626,-91.3975 523.881,-80.7832"/>
<polygon fill="midnightblue" stroke="midnightblue" points="524.739,-84.181 533.862,-78.7938 523.371,-77.3161 524.739,-84.181"/>
</g>
<!-- Node13 -->
<g id="node26" class="node"><title>Node13</title>
<polygon fill="white" stroke="#bfbfbf" points="649.5,-58.5 649.5,-79.5 704.5,-79.5 704.5,-58.5 649.5,-58.5"/>
<text text-anchor="middle" x="677" y="-66.5" font-family="Helvetica,sans-Serif" font-size="10.00">QDebug</text>
</g>
<!-- Node1&#45;&gt;Node13 -->
<g id="edge26" class="edge"><title>Node1&#45;&gt;Node13</title>
<path fill="none" stroke="midnightblue" d="M342.731,-122.778C409.055,-116.683 528.897,-103.703 639.247,-80.1424"/>
<polygon fill="midnightblue" stroke="midnightblue" points="640.18,-83.5213 649.21,-77.9801 638.696,-76.6805 640.18,-83.5213"/>
</g>
<!-- Node5&#45;&gt;Node2 -->
<g id="edge10" class="edge"><title>Node5&#45;&gt;Node2</title>
<path fill="none" stroke="midnightblue" d="M187.774,-58.4966C156.501,-48.8998 110.114,-34.6647 76.2801,-24.2817"/>
<polygon fill="midnightblue" stroke="midnightblue" points="77.2409,-20.9155 66.6541,-21.3277 75.1872,-27.6075 77.2409,-20.9155"/>
</g>
<!-- Node6 -->
<g id="node12" class="node"><title>Node6</title>
<polygon fill="white" stroke="#bfbfbf" points="83.5,-0.5 83.5,-21.5 142.5,-21.5 142.5,-0.5 83.5,-0.5"/>
<text text-anchor="middle" x="113" y="-8.5" font-family="Helvetica,sans-Serif" font-size="10.00">qglobal.h</text>
</g>
<!-- Node5&#45;&gt;Node6 -->
<g id="edge12" class="edge"><title>Node5&#45;&gt;Node6</title>
<path fill="none" stroke="midnightblue" d="M202.261,-58.4966C185.39,-49.5194 160.891,-36.4835 141.826,-26.3387"/>
<polygon fill="midnightblue" stroke="midnightblue" points="143.433,-23.2289 132.961,-21.6212 140.144,-29.4086 143.433,-23.2289"/>
</g>
<!-- Node7 -->
<g id="node14" class="node"><title>Node7</title>
<polygon fill="white" stroke="#bfbfbf" points="160,-0.5 160,-21.5 282,-21.5 282,-0.5 160,-0.5"/>
<text text-anchor="middle" x="221" y="-8.5" font-family="Helvetica,sans-Serif" font-size="10.00">QGraphicsPixmapItem</text>
</g>
<!-- Node5&#45;&gt;Node7 -->
<g id="edge14" class="edge"><title>Node5&#45;&gt;Node7</title>
<path fill="none" stroke="midnightblue" d="M221.817,-58.3619C221.688,-50.9219 221.513,-40.7427 221.357,-31.7276"/>
<polygon fill="midnightblue" stroke="midnightblue" points="224.854,-31.5088 221.182,-21.5707 217.855,-31.6295 224.854,-31.5088"/>
</g>
<!-- Node8 -->
<g id="node16" class="node"><title>Node8</title>
<polygon fill="white" stroke="#bfbfbf" points="299.5,-0.5 299.5,-21.5 354.5,-21.5 354.5,-0.5 299.5,-0.5"/>
<text text-anchor="middle" x="327" y="-8.5" font-family="Helvetica,sans-Serif" font-size="10.00">QObject</text>
</g>
<!-- Node5&#45;&gt;Node8 -->
<g id="edge16" class="edge"><title>Node5&#45;&gt;Node8</title>
<path fill="none" stroke="midnightblue" d="M241.259,-58.3619C257.466,-49.4094 280.853,-36.4908 299.109,-26.4064"/>
<polygon fill="midnightblue" stroke="midnightblue" points="300.802,-29.4696 307.863,-21.5707 297.418,-23.3422 300.802,-29.4696"/>
</g>
<!-- Node9 -->
<g id="node18" class="node"><title>Node9</title>
<polygon fill="white" stroke="#bfbfbf" points="371.5,-0.5 371.5,-21.5 430.5,-21.5 430.5,-0.5 371.5,-0.5"/>
<text text-anchor="middle" x="401" y="-8.5" font-family="Helvetica,sans-Serif" font-size="10.00">QPointer</text>
</g>
<!-- Node5&#45;&gt;Node9 -->
<g id="edge18" class="edge"><title>Node5&#45;&gt;Node9</title>
<path fill="none" stroke="midnightblue" d="M254.416,-58.4966C284.637,-48.7043 329.761,-34.0829 361.953,-23.6521"/>
<polygon fill="midnightblue" stroke="midnightblue" points="363.063,-26.9716 371.497,-20.5595 360.905,-20.3124 363.063,-26.9716"/>
</g>
</g>
</svg>
