<?xml version="1.0" encoding="UTF-8" standalone="no"?>
<!DOCTYPE svg PUBLIC "-//W3C//DTD SVG 1.1//EN"
 "http://www.w3.org/Graphics/SVG/1.1/DTD/svg11.dtd">
<!-- Generated by graphviz version 2.26.3 (20100126.1600)
 -->
<!-- Title: G Pages: 1 -->
<svg width="464pt" height="88pt"
 viewBox="0.00 0.00 464.00 88.00" xmlns="http://www.w3.org/2000/svg" xmlns:xlink="http://www.w3.org/1999/xlink">
<g id="graph1" class="graph" transform="scale(1 1) rotate(0) translate(4 84)">
<title>G</title>
<polygon fill="white" stroke="white" points="-4,5 -4,-84 461,-84 461,5 -4,5"/>
<!-- Node1 -->
<g id="node1" class="node"><title>Node1</title>
<polygon fill="#bfbfbf" stroke="black" points="200,-58.5 200,-79.5 306,-79.5 306,-58.5 200,-58.5"/>
<text text-anchor="middle" x="253" y="-66.5" font-family="Helvetica,sans-Serif" font-size="10.00">ProcessManager.h</text>
</g>
<!-- Node2 -->
<g id="node3" class="node"><title>Node2</title>
<a xlink:href="ProcessManager_8cpp.htm" target="_top" xlink:title="ProcessManager.cpp">
<polygon fill="white" stroke="black" points="-0.5,-0.5 -0.5,-21.5 116.5,-21.5 116.5,-0.5 -0.5,-0.5"/>
<text text-anchor="middle" x="58" y="-8.5" font-family="Helvetica,sans-Serif" font-size="10.00">ProcessManager.cpp</text>
</a>
</g>
<!-- Node1&#45;&gt;Node2 -->
<g id="edge2" class="edge"><title>Node1&#45;&gt;Node2</title>
<path fill="none" stroke="midnightblue" d="M207.768,-55.5464C172.935,-45.1857 125.466,-31.0668 93.3793,-21.5231"/>
<polygon fill="midnightblue" stroke="midnightblue" points="207.104,-59.0004 217.687,-58.4966 209.1,-52.2909 207.104,-59.0004"/>
</g>
<!-- Node3 -->
<g id="node5" class="node"><title>Node3</title>
<a xlink:href="WebAppManager_8cpp.htm" target="_top" xlink:title="WebAppManager.cpp">
<polygon fill="white" stroke="black" points="133.5,-0.5 133.5,-21.5 252.5,-21.5 252.5,-0.5 133.5,-0.5"/>
<text text-anchor="middle" x="193" y="-8.5" font-family="Helvetica,sans-Serif" font-size="10.00">WebAppManager.cpp</text>
</a>
</g>
<!-- Node1&#45;&gt;Node3 -->
<g id="edge4" class="edge"><title>Node1&#45;&gt;Node3</title>
<path fill="none" stroke="midnightblue" d="M234.798,-51.405C224.726,-41.6683 212.543,-29.8914 203.935,-21.5707"/>
<polygon fill="midnightblue" stroke="midnightblue" points="232.373,-53.9281 241.995,-58.3619 237.238,-48.8952 232.373,-53.9281"/>
</g>
<!-- Node4 -->
<g id="node7" class="node"><title>Node4</title>
<a xlink:href="WebFrame_8cpp.htm" target="_top" xlink:title="WebFrame.cpp">
<polygon fill="white" stroke="black" points="269.5,-0.5 269.5,-21.5 356.5,-21.5 356.5,-0.5 269.5,-0.5"/>
<text text-anchor="middle" x="313" y="-8.5" font-family="Helvetica,sans-Serif" font-size="10.00">WebFrame.cpp</text>
</a>
</g>
<!-- Node1&#45;&gt;Node4 -->
<g id="edge6" class="edge"><title>Node1&#45;&gt;Node4</title>
<path fill="none" stroke="midnightblue" d="M271.202,-51.405C281.274,-41.6683 293.457,-29.8914 302.065,-21.5707"/>
<polygon fill="midnightblue" stroke="midnightblue" points="268.762,-48.8952 264.005,-58.3619 273.627,-53.9281 268.762,-48.8952"/>
</g>
<!-- Node5 -->
<g id="node9" class="node"><title>Node5</title>
<a xlink:href="WebPage_8cpp.htm" target="_top" xlink:title="WebPage.cpp">
<polygon fill="white" stroke="black" points="374,-0.5 374,-21.5 456,-21.5 456,-0.5 374,-0.5"/>
<text text-anchor="middle" x="415" y="-8.5" font-family="Helvetica,sans-Serif" font-size="10.00">WebPage.cpp</text>
</a>
</g>
<!-- Node1&#45;&gt;Node5 -->
<g id="edge8" class="edge"><title>Node1&#45;&gt;Node5</title>
<path fill="none" stroke="midnightblue" d="M292.077,-55.0095C320.866,-44.7023 359.409,-30.903 385.608,-21.5231"/>
<polygon fill="midnightblue" stroke="midnightblue" points="290.572,-51.8307 282.337,-58.4966 292.932,-58.421 290.572,-51.8307"/>
</g>
</g>
</svg>
