<?xml version="1.0" encoding="UTF-8" standalone="no"?>
<!DOCTYPE svg PUBLIC "-//W3C//DTD SVG 1.1//EN"
 "http://www.w3.org/Graphics/SVG/1.1/DTD/svg11.dtd">
<!-- Generated by graphviz version 2.26.3 (20100126.1600)
 -->
<!-- Title: G Pages: 1 -->
<svg width="793pt" height="262pt"
 viewBox="0.00 0.00 792.53 262.00" xmlns="http://www.w3.org/2000/svg" xmlns:xlink="http://www.w3.org/1999/xlink">
<g id="graph1" class="graph" transform="scale(1 1) rotate(0) translate(4 258)">
<title>G</title>
<polygon fill="white" stroke="white" points="-4,5 -4,-258 789.526,-258 789.526,5 -4,5"/>
<!-- Node1 -->
<g id="node1" class="node"><title>Node1</title>
<polygon fill="#bfbfbf" stroke="black" points="627.5,-232.5 627.5,-253.5 730.5,-253.5 730.5,-232.5 627.5,-232.5"/>
<text text-anchor="middle" x="679" y="-240.5" font-family="Helvetica,sans-Serif" font-size="10.00">QmlAlertWindow.h</text>
</g>
<!-- Node2 -->
<g id="node3" class="node"><title>Node2</title>
<a xlink:href="Common_8h.htm" target="_top" xlink:title="Common.h">
<polygon fill="white" stroke="black" points="702.5,-0.5 702.5,-21.5 769.5,-21.5 769.5,-0.5 702.5,-0.5"/>
<text text-anchor="middle" x="736" y="-8.5" font-family="Helvetica,sans-Serif" font-size="10.00">Common.h</text>
</a>
</g>
<!-- Node1&#45;&gt;Node2 -->
<g id="edge2" class="edge"><title>Node1&#45;&gt;Node2</title>
<path fill="none" stroke="midnightblue" d="M688.957,-232.245C710.989,-207.623 763.384,-144.31 782,-80 784.719,-70.6078 785.693,-67.0535 782,-58 777.311,-46.5066 768.309,-36.2985 759.502,-28.3571"/>
<polygon fill="midnightblue" stroke="midnightblue" points="761.51,-25.473 751.599,-21.7292 757.012,-30.8367 761.51,-25.473"/>
</g>
<!-- Node3 -->
<g id="node5" class="node"><title>Node3</title>
<a xlink:href="AlertWindow_8h.htm" target="_top" xlink:title="AlertWindow.h">
<polygon fill="white" stroke="black" points="473,-174.5 473,-195.5 557,-195.5 557,-174.5 473,-174.5"/>
<text text-anchor="middle" x="515" y="-182.5" font-family="Helvetica,sans-Serif" font-size="10.00">AlertWindow.h</text>
</a>
</g>
<!-- Node1&#45;&gt;Node3 -->
<g id="edge4" class="edge"><title>Node1&#45;&gt;Node3</title>
<path fill="none" stroke="midnightblue" d="M649.301,-232.497C622.68,-223.082 583.438,-209.204 554.239,-198.877"/>
<polygon fill="midnightblue" stroke="midnightblue" points="555.35,-195.558 544.755,-195.523 553.016,-202.157 555.35,-195.558"/>
</g>
<!-- Node3&#45;&gt;Node2 -->
<g id="edge6" class="edge"><title>Node3&#45;&gt;Node2</title>
<path fill="none" stroke="midnightblue" d="M557.238,-181.255C615.681,-173.545 719.28,-150.188 766,-80 776.528,-64.1838 765.408,-44.0655 753.841,-29.6397"/>
<polygon fill="midnightblue" stroke="midnightblue" points="756.324,-27.16 747.139,-21.8793 751.026,-31.7353 756.324,-27.16"/>
</g>
<!-- Node4 -->
<g id="node8" class="node"><title>Node4</title>
<a xlink:href="sptr_8h.htm" target="_top" xlink:title="sptr.h">
<polygon fill="white" stroke="black" points="247.5,-58.5 247.5,-79.5 290.5,-79.5 290.5,-58.5 247.5,-58.5"/>
<text text-anchor="middle" x="269" y="-66.5" font-family="Helvetica,sans-Serif" font-size="10.00">sptr.h</text>
</a>
</g>
<!-- Node3&#45;&gt;Node4 -->
<g id="edge8" class="edge"><title>Node3&#45;&gt;Node4</title>
<path fill="none" stroke="midnightblue" d="M492.298,-174.295C447.936,-153.376 349.716,-107.061 299.643,-83.4494"/>
<polygon fill="midnightblue" stroke="midnightblue" points="301.126,-80.2793 290.588,-79.1799 298.14,-86.6107 301.126,-80.2793"/>
</g>
<!-- Node6 -->
<g id="node13" class="node"><title>Node6</title>
<a xlink:href="Window_8h.htm" target="_top" xlink:title="Window.h">
<polygon fill="white" stroke="black" points="168,-58.5 168,-79.5 230,-79.5 230,-58.5 168,-58.5"/>
<text text-anchor="middle" x="199" y="-66.5" font-family="Helvetica,sans-Serif" font-size="10.00">Window.h</text>
</a>
</g>
<!-- Node3&#45;&gt;Node6 -->
<g id="edge14" class="edge"><title>Node3&#45;&gt;Node6</title>
<path fill="none" stroke="midnightblue" d="M478.011,-174.424C447.46,-165.447 403.086,-151.85 365,-138 318.016,-120.914 264.835,-98.1941 231.608,-83.5809"/>
<polygon fill="midnightblue" stroke="midnightblue" points="232.939,-80.3424 222.377,-79.5036 230.111,-86.7456 232.939,-80.3424"/>
</g>
<!-- Node11 -->
<g id="node25" class="node"><title>Node11</title>
<a xlink:href="HostWindow_8h.htm" target="_top" xlink:title="HostWindow.h">
<polygon fill="white" stroke="black" points="473,-116.5 473,-137.5 557,-137.5 557,-116.5 473,-116.5"/>
<text text-anchor="middle" x="515" y="-124.5" font-family="Helvetica,sans-Serif" font-size="10.00">HostWindow.h</text>
</a>
</g>
<!-- Node3&#45;&gt;Node11 -->
<g id="edge28" class="edge"><title>Node3&#45;&gt;Node11</title>
<path fill="none" stroke="midnightblue" d="M515,-174.362C515,-166.922 515,-156.743 515,-147.728"/>
<polygon fill="midnightblue" stroke="midnightblue" points="518.5,-147.571 515,-137.571 511.5,-147.571 518.5,-147.571"/>
</g>
<!-- Node4&#45;&gt;Node2 -->
<g id="edge10" class="edge"><title>Node4&#45;&gt;Node2</title>
<path fill="none" stroke="midnightblue" d="M290.762,-60.2978C293.504,-59.4162 296.296,-58.6192 299,-58 457.033,-21.8056 501.104,-41.9248 662,-22 671.758,-20.7916 682.216,-19.336 692.107,-17.885"/>
<polygon fill="midnightblue" stroke="midnightblue" points="692.781,-21.3231 702.155,-16.3851 691.748,-14.3998 692.781,-21.3231"/>
</g>
<!-- Node5 -->
<g id="node11" class="node"><title>Node5</title>
<polygon fill="white" stroke="#bfbfbf" points="245.5,-0.5 245.5,-21.5 286.5,-21.5 286.5,-0.5 245.5,-0.5"/>
<text text-anchor="middle" x="266" y="-8.5" font-family="Helvetica,sans-Serif" font-size="10.00">glib.h</text>
</g>
<!-- Node4&#45;&gt;Node5 -->
<g id="edge12" class="edge"><title>Node4&#45;&gt;Node5</title>
<path fill="none" stroke="midnightblue" d="M268.45,-58.3619C268.065,-50.9219 267.538,-40.7427 267.072,-31.7276"/>
<polygon fill="midnightblue" stroke="midnightblue" points="270.559,-31.3765 266.547,-21.5707 263.568,-31.7381 270.559,-31.3765"/>
</g>
<!-- Node6&#45;&gt;Node2 -->
<g id="edge16" class="edge"><title>Node6&#45;&gt;Node2</title>
<path fill="none" stroke="midnightblue" d="M230.318,-59.8029C233.238,-59.1228 236.164,-58.5062 239,-58 424.744,-24.8458 474.594,-43.8818 662,-22 671.766,-20.8597 682.228,-19.4319 692.119,-17.9863"/>
<polygon fill="midnightblue" stroke="midnightblue" points="692.794,-21.4243 702.167,-16.4847 691.76,-14.5012 692.794,-21.4243"/>
</g>
<!-- Node6&#45;&gt;Node5 -->
<g id="edge22" class="edge"><title>Node6&#45;&gt;Node5</title>
<path fill="none" stroke="midnightblue" d="M211.289,-58.3619C221.017,-49.9408 234.798,-38.0105 246.095,-28.2308"/>
<polygon fill="midnightblue" stroke="midnightblue" points="248.519,-30.7619 253.789,-21.5707 243.938,-25.4695 248.519,-30.7619"/>
</g>
<!-- Node7 -->
<g id="node16" class="node"><title>Node7</title>
<polygon fill="white" stroke="#bfbfbf" points="178,-0.5 178,-21.5 228,-21.5 228,-0.5 178,-0.5"/>
<text text-anchor="middle" x="203" y="-8.5" font-family="Helvetica,sans-Serif" font-size="10.00">stdint.h</text>
</g>
<!-- Node6&#45;&gt;Node7 -->
<g id="edge18" class="edge"><title>Node6&#45;&gt;Node7</title>
<path fill="none" stroke="midnightblue" d="M199.734,-58.3619C200.247,-50.9219 200.949,-40.7427 201.571,-31.7276"/>
<polygon fill="midnightblue" stroke="midnightblue" points="205.075,-31.7878 202.271,-21.5707 198.091,-31.3061 205.075,-31.7878"/>
</g>
<!-- Node8 -->
<g id="node18" class="node"><title>Node8</title>
<polygon fill="white" stroke="#bfbfbf" points="303.5,-0.5 303.5,-21.5 346.5,-21.5 346.5,-0.5 303.5,-0.5"/>
<text text-anchor="middle" x="325" y="-8.5" font-family="Helvetica,sans-Serif" font-size="10.00">string</text>
</g>
<!-- Node6&#45;&gt;Node8 -->
<g id="edge20" class="edge"><title>Node6&#45;&gt;Node8</title>
<path fill="none" stroke="midnightblue" d="M221.818,-58.4966C241.957,-49.2264 271.497,-35.6282 293.816,-25.3548"/>
<polygon fill="midnightblue" stroke="midnightblue" points="295.575,-28.398 303.195,-21.0371 292.648,-22.0393 295.575,-28.398"/>
</g>
<!-- Node9 -->
<g id="node21" class="node"><title>Node9</title>
<polygon fill="white" stroke="#bfbfbf" points="0,-0.5 0,-21.5 98,-21.5 98,-0.5 0,-0.5"/>
<text text-anchor="middle" x="49" y="-8.5" font-family="Helvetica,sans-Serif" font-size="10.00">QGraphicsObject</text>
</g>
<!-- Node6&#45;&gt;Node9 -->
<g id="edge24" class="edge"><title>Node6&#45;&gt;Node9</title>
<path fill="none" stroke="midnightblue" d="M171.836,-58.4966C147.7,-49.1639 112.219,-35.4447 85.5883,-25.1475"/>
<polygon fill="midnightblue" stroke="midnightblue" points="86.8041,-21.8651 76.2148,-21.5231 84.2796,-28.394 86.8041,-21.8651"/>
</g>
<!-- Node10 -->
<g id="node23" class="node"><title>Node10</title>
<polygon fill="white" stroke="#bfbfbf" points="115.5,-0.5 115.5,-21.5 160.5,-21.5 160.5,-0.5 115.5,-0.5"/>
<text text-anchor="middle" x="138" y="-8.5" font-family="Helvetica,sans-Serif" font-size="10.00">QSize</text>
</g>
<!-- Node6&#45;&gt;Node10 -->
<g id="edge26" class="edge"><title>Node6&#45;&gt;Node10</title>
<path fill="none" stroke="midnightblue" d="M187.812,-58.3619C179.041,-50.0226 166.651,-38.2418 156.422,-28.5162"/>
<polygon fill="midnightblue" stroke="midnightblue" points="158.776,-25.9248 149.117,-21.5707 153.953,-30.9978 158.776,-25.9248"/>
</g>
<!-- Node11&#45;&gt;Node2 -->
<g id="edge30" class="edge"><title>Node11&#45;&gt;Node2</title>
<path fill="none" stroke="midnightblue" d="M557.115,-124.749C617.805,-120.525 725.205,-109.05 749,-80 760.279,-66.2305 754.462,-45.721 747.382,-30.6398"/>
<polygon fill="midnightblue" stroke="midnightblue" points="750.425,-28.9045 742.714,-21.6385 744.211,-32.1271 750.425,-28.9045"/>
</g>
<!-- Node11&#45;&gt;Node6 -->
<g id="edge32" class="edge"><title>Node11&#45;&gt;Node6</title>
<path fill="none" stroke="midnightblue" d="M472.662,-121.131C420.239,-113.568 328.057,-99.3078 240.226,-80.1227"/>
<polygon fill="midnightblue" stroke="midnightblue" points="240.889,-76.6848 230.369,-77.9444 239.378,-83.5199 240.889,-76.6848"/>
</g>
<!-- Node11&#45;&gt;Node11 -->
<g id="edge34" class="edge"><title>Node11&#45;&gt;Node11</title>
<path fill="none" stroke="midnightblue" d="M545.563,-137.524C561.083,-139.061 575,-135.553 575,-127 575,-120.385 566.675,-116.788 555.722,-116.208"/>
<polygon fill="midnightblue" stroke="midnightblue" points="555.467,-112.714 545.563,-116.476 555.652,-119.711 555.467,-112.714"/>
</g>
<!-- Node12 -->
<g id="node30" class="node"><title>Node12</title>
<a xlink:href="HostWindowData_8h.htm" target="_top" xlink:title="HostWindowData.h">
<polygon fill="white" stroke="black" points="491.5,-58.5 491.5,-79.5 598.5,-79.5 598.5,-58.5 491.5,-58.5"/>
<text text-anchor="middle" x="545" y="-66.5" font-family="Helvetica,sans-Serif" font-size="10.00">HostWindowData.h</text>
</a>
</g>
<!-- Node11&#45;&gt;Node12 -->
<g id="edge36" class="edge"><title>Node11&#45;&gt;Node12</title>
<path fill="none" stroke="midnightblue" d="M520.502,-116.362C524.52,-108.595 530.081,-97.8426 534.89,-88.5458"/>
<polygon fill="midnightblue" stroke="midnightblue" points="538.047,-90.0608 539.532,-79.5707 531.829,-86.8448 538.047,-90.0608"/>
</g>
<!-- Node15 -->
<g id="node37" class="node"><title>Node15</title>
<a xlink:href="InputClient_8h.htm" target="_top" xlink:title="InputClient.h">
<polygon fill="white" stroke="black" points="307.5,-58.5 307.5,-79.5 382.5,-79.5 382.5,-58.5 307.5,-58.5"/>
<text text-anchor="middle" x="345" y="-66.5" font-family="Helvetica,sans-Serif" font-size="10.00">InputClient.h</text>
</a>
</g>
<!-- Node11&#45;&gt;Node15 -->
<g id="edge44" class="edge"><title>Node11&#45;&gt;Node15</title>
<path fill="none" stroke="midnightblue" d="M484.214,-116.497C456.62,-107.082 415.942,-93.2036 385.675,-82.8773"/>
<polygon fill="midnightblue" stroke="midnightblue" points="386.438,-79.4396 375.843,-79.5231 384.178,-86.0646 386.438,-79.4396"/>
</g>
<!-- Node17 -->
<g id="node42" class="node"><title>Node17</title>
<polygon fill="white" stroke="#bfbfbf" points="400,-58.5 400,-79.5 474,-79.5 474,-58.5 400,-58.5"/>
<text text-anchor="middle" x="437" y="-66.5" font-family="Helvetica,sans-Serif" font-size="10.00">PIpcBuffer.h</text>
</g>
<!-- Node11&#45;&gt;Node17 -->
<g id="edge50" class="edge"><title>Node11&#45;&gt;Node17</title>
<path fill="none" stroke="midnightblue" d="M500.694,-116.362C489.149,-107.777 472.7,-95.5459 459.41,-85.6636"/>
<polygon fill="midnightblue" stroke="midnightblue" points="461.329,-82.7291 451.216,-79.5707 457.152,-88.3463 461.329,-82.7291"/>
</g>
<!-- Node18 -->
<g id="node44" class="node"><title>Node18</title>
<polygon fill="white" stroke="#bfbfbf" points="616,-58.5 616,-79.5 740,-79.5 740,-58.5 616,-58.5"/>
<text text-anchor="middle" x="678" y="-66.5" font-family="Helvetica,sans-Serif" font-size="10.00">PIpcChannelListener.h</text>
</g>
<!-- Node11&#45;&gt;Node18 -->
<g id="edge52" class="edge"><title>Node11&#45;&gt;Node18</title>
<path fill="none" stroke="midnightblue" d="M544.518,-116.497C570.976,-107.082 609.979,-93.2036 639,-82.8773"/>
<polygon fill="midnightblue" stroke="midnightblue" points="640.179,-86.173 648.427,-79.5231 637.832,-79.578 640.179,-86.173"/>
</g>
<!-- Node12&#45;&gt;Node2 -->
<g id="edge38" class="edge"><title>Node12&#45;&gt;Node2</title>
<path fill="none" stroke="midnightblue" d="M579.589,-58.4966C611.29,-48.8701 658.36,-34.5765 692.579,-24.1854"/>
<polygon fill="midnightblue" stroke="midnightblue" points="693.758,-27.4852 702.31,-21.2305 691.724,-20.7872 693.758,-27.4852"/>
</g>
<!-- Node13 -->
<g id="node33" class="node"><title>Node13</title>
<polygon fill="white" stroke="#bfbfbf" points="594.5,-0.5 594.5,-21.5 653.5,-21.5 653.5,-0.5 594.5,-0.5"/>
<text text-anchor="middle" x="624" y="-8.5" font-family="Helvetica,sans-Serif" font-size="10.00">QPixmap</text>
</g>
<!-- Node12&#45;&gt;Node13 -->
<g id="edge40" class="edge"><title>Node12&#45;&gt;Node13</title>
<path fill="none" stroke="midnightblue" d="M559.49,-58.3619C571.183,-49.7773 587.843,-37.5459 601.303,-27.6636"/>
<polygon fill="midnightblue" stroke="midnightblue" points="603.613,-30.31 609.602,-21.5707 599.47,-24.6675 603.613,-30.31"/>
</g>
<!-- Node14 -->
<g id="node35" class="node"><title>Node14</title>
<polygon fill="white" stroke="#bfbfbf" points="491,-0.5 491,-21.5 577,-21.5 577,-0.5 491,-0.5"/>
<text text-anchor="middle" x="534" y="-8.5" font-family="Helvetica,sans-Serif" font-size="10.00">PIpcChannel.h</text>
</g>
<!-- Node12&#45;&gt;Node14 -->
<g id="edge42" class="edge"><title>Node12&#45;&gt;Node14</title>
<path fill="none" stroke="midnightblue" d="M542.982,-58.3619C541.556,-50.8401 539.598,-40.5187 537.875,-31.4308"/>
<polygon fill="midnightblue" stroke="midnightblue" points="541.307,-30.7433 536.005,-21.5707 534.429,-32.0477 541.307,-30.7433"/>
</g>
<!-- Node15&#45;&gt;Node8 -->
<g id="edge48" class="edge"><title>Node15&#45;&gt;Node8</title>
<path fill="none" stroke="midnightblue" d="M341.332,-58.3619C338.71,-50.7584 335.101,-40.294 331.943,-31.1349"/>
<polygon fill="midnightblue" stroke="midnightblue" points="335.214,-29.8834 328.645,-21.5707 328.596,-32.1654 335.214,-29.8834"/>
</g>
<!-- Node16 -->
<g id="node39" class="node"><title>Node16</title>
<polygon fill="white" stroke="#bfbfbf" points="364,-0.5 364,-21.5 462,-21.5 462,-0.5 364,-0.5"/>
<text text-anchor="middle" x="413" y="-8.5" font-family="Helvetica,sans-Serif" font-size="10.00">palmimedefines.h</text>
</g>
<!-- Node15&#45;&gt;Node16 -->
<g id="edge46" class="edge"><title>Node15&#45;&gt;Node16</title>
<path fill="none" stroke="midnightblue" d="M357.472,-58.3619C367.345,-49.9408 381.333,-38.0105 392.798,-28.2308"/>
<polygon fill="midnightblue" stroke="midnightblue" points="395.27,-30.7231 400.607,-21.5707 390.727,-25.3972 395.27,-30.7231"/>
</g>
</g>
</svg>
