<?xml version="1.0" encoding="UTF-8" standalone="no"?>
<!DOCTYPE svg PUBLIC "-//W3C//DTD SVG 1.1//EN"
 "http://www.w3.org/Graphics/SVG/1.1/DTD/svg11.dtd">
<!-- Generated by graphviz version 2.26.3 (20100126.1600)
 -->
<!-- Title: G Pages: 1 -->
<svg width="537pt" height="146pt"
 viewBox="0.00 0.00 537.00 146.00" xmlns="http://www.w3.org/2000/svg" xmlns:xlink="http://www.w3.org/1999/xlink">
<g id="graph1" class="graph" transform="scale(1 1) rotate(0) translate(4 142)">
<title>G</title>
<polygon fill="white" stroke="white" points="-4,5 -4,-142 534,-142 534,5 -4,5"/>
<!-- Node1 -->
<g id="node1" class="node"><title>Node1</title>
<polygon fill="#bfbfbf" stroke="black" points="141,-116.5 141,-137.5 401,-137.5 401,-116.5 141,-116.5"/>
<text text-anchor="middle" x="271" y="-124.5" font-family="Helvetica,sans-Serif" font-size="10.00">RemoteWindowDataSoftwareOpenGLComposited.h</text>
</g>
<!-- Node2 -->
<g id="node3" class="node"><title>Node2</title>
<a xlink:href="RemoteWindowDataSoftwareOpenGLComposited_8cpp.htm" target="_top" xlink:title="RemoteWindowDataSoftwareOpenGLComposited.cpp">
<polygon fill="white" stroke="black" points="0,-58.5 0,-79.5 272,-79.5 272,-58.5 0,-58.5"/>
<text text-anchor="middle" x="136" y="-66.5" font-family="Helvetica,sans-Serif" font-size="10.00">RemoteWindowDataSoftwareOpenGLComposited.cpp</text>
</a>
</g>
<!-- Node1&#45;&gt;Node2 -->
<g id="edge2" class="edge"><title>Node1&#45;&gt;Node2</title>
<path fill="none" stroke="midnightblue" d="M237.202,-112.479C213.438,-102.269 182.176,-88.8386 160.722,-79.6212"/>
<polygon fill="midnightblue" stroke="midnightblue" points="235.983,-115.765 246.553,-116.497 238.746,-109.333 235.983,-115.765"/>
</g>
<!-- Node3 -->
<g id="node5" class="node"><title>Node3</title>
<a xlink:href="RemoteWindowDataSoftwareTextureShared_8h.htm" target="_top" xlink:title="RemoteWindowDataSoftwareTextureShared.h">
<polygon fill="white" stroke="black" points="290,-58.5 290,-79.5 524,-79.5 524,-58.5 290,-58.5"/>
<text text-anchor="middle" x="407" y="-66.5" font-family="Helvetica,sans-Serif" font-size="10.00">RemoteWindowDataSoftwareTextureShared.h</text>
</a>
</g>
<!-- Node1&#45;&gt;Node3 -->
<g id="edge4" class="edge"><title>Node1&#45;&gt;Node3</title>
<path fill="none" stroke="midnightblue" d="M305.048,-112.479C328.989,-102.269 360.482,-88.8386 382.095,-79.6212"/>
<polygon fill="midnightblue" stroke="midnightblue" points="303.454,-109.354 295.629,-116.497 306.2,-115.793 303.454,-109.354"/>
</g>
<!-- Node4 -->
<g id="node7" class="node"><title>Node4</title>
<a xlink:href="RemoteWindowDataSoftwareTextureShared_8cpp.htm" target="_top" xlink:title="RemoteWindowDataSoftwareTextureShared.cpp">
<polygon fill="white" stroke="black" points="284.5,-0.5 284.5,-21.5 529.5,-21.5 529.5,-0.5 284.5,-0.5"/>
<text text-anchor="middle" x="407" y="-8.5" font-family="Helvetica,sans-Serif" font-size="10.00">RemoteWindowDataSoftwareTextureShared.cpp</text>
</a>
</g>
<!-- Node3&#45;&gt;Node4 -->
<g id="edge6" class="edge"><title>Node3&#45;&gt;Node4</title>
<path fill="none" stroke="midnightblue" d="M407,-48.1906C407,-39.1684 407,-28.9941 407,-21.5707"/>
<polygon fill="midnightblue" stroke="midnightblue" points="403.5,-48.3619 407,-58.3619 410.5,-48.3619 403.5,-48.3619"/>
</g>
</g>
</svg>
