<?xml version="1.0" encoding="UTF-8" standalone="no"?>
<!DOCTYPE svg PUBLIC "-//W3C//DTD SVG 1.1//EN"
 "http://www.w3.org/Graphics/SVG/1.1/DTD/svg11.dtd">
<!-- Generated by graphviz version 2.26.3 (20100126.1600)
 -->
<!-- Title: G Pages: 1 -->
<svg width="1325pt" height="262pt"
 viewBox="0.00 0.00 1325.00 262.00" xmlns="http://www.w3.org/2000/svg" xmlns:xlink="http://www.w3.org/1999/xlink">
<g id="graph1" class="graph" transform="scale(1 1) rotate(0) translate(4 258)">
<title>G</title>
<polygon fill="white" stroke="white" points="-4,5 -4,-258 1322,-258 1322,5 -4,5"/>
<!-- Node1 -->
<g id="node1" class="node"><title>Node1</title>
<polygon fill="#bfbfbf" stroke="black" points="516.5,-232.5 516.5,-253.5 605.5,-253.5 605.5,-232.5 516.5,-232.5"/>
<text text-anchor="middle" x="561" y="-240.5" font-family="Helvetica,sans-Serif" font-size="10.00">ReticleItem.cpp</text>
</g>
<!-- Node2 -->
<g id="node3" class="node"><title>Node2</title>
<a xlink:href="Common_8h.htm" target="_top" xlink:title="Common.h">
<polygon fill="white" stroke="black" points="693.5,-0.5 693.5,-21.5 760.5,-21.5 760.5,-0.5 693.5,-0.5"/>
<text text-anchor="middle" x="727" y="-8.5" font-family="Helvetica,sans-Serif" font-size="10.00">Common.h</text>
</a>
</g>
<!-- Node1&#45;&gt;Node2 -->
<g id="edge2" class="edge"><title>Node1&#45;&gt;Node2</title>
<path fill="none" stroke="midnightblue" d="M604.557,-232.453C625.667,-225.326 649.875,-213.866 666,-196 709.123,-148.221 721.842,-69.2391 725.53,-31.8528"/>
<polygon fill="midnightblue" stroke="midnightblue" points="729.036,-31.9299 726.408,-21.6662 722.062,-31.3285 729.036,-31.9299"/>
</g>
<!-- Node3 -->
<g id="node5" class="node"><title>Node3</title>
<a xlink:href="ReticleItem_8h.htm" target="_top" xlink:title="ReticleItem.h">
<polygon fill="white" stroke="black" points="-0.5,-174.5 -0.5,-195.5 76.5,-195.5 76.5,-174.5 -0.5,-174.5"/>
<text text-anchor="middle" x="38" y="-182.5" font-family="Helvetica,sans-Serif" font-size="10.00">ReticleItem.h</text>
</a>
</g>
<!-- Node1&#45;&gt;Node3 -->
<g id="edge4" class="edge"><title>Node1&#45;&gt;Node3</title>
<path fill="none" stroke="midnightblue" d="M516.312,-240.171C432.407,-234.498 245.71,-220.165 90,-196 88.9058,-195.83 87.7999,-195.652 86.6858,-195.467"/>
<polygon fill="midnightblue" stroke="midnightblue" points="86.9949,-191.966 76.533,-193.64 85.7549,-198.856 86.9949,-191.966"/>
</g>
<!-- Node6 -->
<g id="node12" class="node"><title>Node6</title>
<polygon fill="white" stroke="#bfbfbf" points="132,-174.5 132,-195.5 268,-195.5 268,-174.5 132,-174.5"/>
<text text-anchor="middle" x="200" y="-182.5" font-family="Helvetica,sans-Serif" font-size="10.00">QParallelAnimationGroup</text>
</g>
<!-- Node1&#45;&gt;Node6 -->
<g id="edge12" class="edge"><title>Node1&#45;&gt;Node6</title>
<path fill="none" stroke="midnightblue" d="M516.372,-235.83C456.286,-226.176 348.518,-208.862 275.65,-197.154"/>
<polygon fill="midnightblue" stroke="midnightblue" points="276.036,-193.672 265.608,-195.541 274.926,-200.583 276.036,-193.672"/>
</g>
<!-- Node7 -->
<g id="node14" class="node"><title>Node7</title>
<polygon fill="white" stroke="#bfbfbf" points="286,-174.5 286,-195.5 436,-195.5 436,-174.5 286,-174.5"/>
<text text-anchor="middle" x="361" y="-182.5" font-family="Helvetica,sans-Serif" font-size="10.00">QSequentialAnimationGroup</text>
</g>
<!-- Node1&#45;&gt;Node7 -->
<g id="edge14" class="edge"><title>Node1&#45;&gt;Node7</title>
<path fill="none" stroke="midnightblue" d="M524.782,-232.497C491.753,-222.918 442.792,-208.72 407.006,-198.342"/>
<polygon fill="midnightblue" stroke="midnightblue" points="407.866,-194.947 397.286,-195.523 405.916,-201.67 407.866,-194.947"/>
</g>
<!-- Node8 -->
<g id="node16" class="node"><title>Node8</title>
<polygon fill="white" stroke="#bfbfbf" points="454,-174.5 454,-195.5 566,-195.5 566,-174.5 454,-174.5"/>
<text text-anchor="middle" x="510" y="-182.5" font-family="Helvetica,sans-Serif" font-size="10.00">QPropertyAnimation</text>
</g>
<!-- Node1&#45;&gt;Node8 -->
<g id="edge16" class="edge"><title>Node1&#45;&gt;Node8</title>
<path fill="none" stroke="midnightblue" d="M551.646,-232.362C544.457,-224.186 534.359,-212.702 525.907,-203.091"/>
<polygon fill="midnightblue" stroke="midnightblue" points="528.527,-200.769 519.295,-195.571 523.27,-205.392 528.527,-200.769"/>
</g>
<!-- Node9 -->
<g id="node18" class="node"><title>Node9</title>
<polygon fill="white" stroke="#bfbfbf" points="583.5,-174.5 583.5,-195.5 642.5,-195.5 642.5,-174.5 583.5,-174.5"/>
<text text-anchor="middle" x="613" y="-182.5" font-family="Helvetica,sans-Serif" font-size="10.00">QPainter</text>
</g>
<!-- Node1&#45;&gt;Node9 -->
<g id="edge18" class="edge"><title>Node1&#45;&gt;Node9</title>
<path fill="none" stroke="midnightblue" d="M570.538,-232.362C577.868,-224.186 588.163,-212.702 596.781,-203.091"/>
<polygon fill="midnightblue" stroke="midnightblue" points="599.453,-205.353 603.523,-195.571 594.241,-200.68 599.453,-205.353"/>
</g>
<!-- Node10 -->
<g id="node20" class="node"><title>Node10</title>
<a xlink:href="QtUtils_8h.htm" target="_top" xlink:title="QtUtils.h">
<polygon fill="white" stroke="black" points="263,-116.5 263,-137.5 319,-137.5 319,-116.5 263,-116.5"/>
<text text-anchor="middle" x="291" y="-124.5" font-family="Helvetica,sans-Serif" font-size="10.00">QtUtils.h</text>
</a>
</g>
<!-- Node1&#45;&gt;Node10 -->
<g id="edge20" class="edge"><title>Node1&#45;&gt;Node10</title>
<path fill="none" stroke="midnightblue" d="M516.182,-241.518C409.796,-237.539 148.971,-224.907 123,-196 116.465,-188.727 117.09,-181.79 123,-174 138.666,-153.35 208.488,-139.302 253.043,-132.26"/>
<polygon fill="midnightblue" stroke="midnightblue" points="253.602,-135.715 262.957,-130.742 252.542,-128.796 253.602,-135.715"/>
</g>
<!-- Node14 -->
<g id="node29" class="node"><title>Node14</title>
<a xlink:href="AnimationSettings_8h.htm" target="_top" xlink:title="AnimationSettings.h">
<polygon fill="white" stroke="black" points="536,-116.5 536,-137.5 646,-137.5 646,-116.5 536,-116.5"/>
<text text-anchor="middle" x="591" y="-124.5" font-family="Helvetica,sans-Serif" font-size="10.00">AnimationSettings.h</text>
</a>
</g>
<!-- Node1&#45;&gt;Node14 -->
<g id="edge30" class="edge"><title>Node1&#45;&gt;Node14</title>
<path fill="none" stroke="midnightblue" d="M601.399,-232.439C619.918,-225.357 640.13,-213.94 651,-196 663.165,-175.923 641.256,-156.018 620.579,-142.785"/>
<polygon fill="midnightblue" stroke="midnightblue" points="622.265,-139.714 611.896,-137.541 618.647,-145.706 622.265,-139.714"/>
</g>
<!-- Node19 -->
<g id="node42" class="node"><title>Node19</title>
<a xlink:href="Settings_8h.htm" target="_top" xlink:title="Settings.h">
<polygon fill="white" stroke="black" points="773.5,-116.5 773.5,-137.5 836.5,-137.5 836.5,-116.5 773.5,-116.5"/>
<text text-anchor="middle" x="805" y="-124.5" font-family="Helvetica,sans-Serif" font-size="10.00">Settings.h</text>
</a>
</g>
<!-- Node1&#45;&gt;Node19 -->
<g id="edge46" class="edge"><title>Node1&#45;&gt;Node19</title>
<path fill="none" stroke="midnightblue" d="M605.576,-235.115C638.988,-228.012 685.109,-215.62 722,-196 747.219,-182.588 771.832,-160.685 787.62,-145.157"/>
<polygon fill="midnightblue" stroke="midnightblue" points="790.465,-147.259 795.028,-137.697 785.498,-142.327 790.465,-147.259"/>
</g>
<!-- Node23 -->
<g id="node53" class="node"><title>Node23</title>
<a xlink:href="Preferences_8h.htm" target="_top" xlink:title="Preferences.h">
<polygon fill="white" stroke="black" points="984.5,-174.5 984.5,-195.5 1067.5,-195.5 1067.5,-174.5 984.5,-174.5"/>
<text text-anchor="middle" x="1026" y="-182.5" font-family="Helvetica,sans-Serif" font-size="10.00">Preferences.h</text>
</a>
</g>
<!-- Node1&#45;&gt;Node23 -->
<g id="edge60" class="edge"><title>Node1&#45;&gt;Node23</title>
<path fill="none" stroke="midnightblue" d="M605.586,-237.439C692.044,-226.655 882.049,-202.955 974.05,-191.48"/>
<polygon fill="midnightblue" stroke="midnightblue" points="974.749,-194.92 984.239,-190.209 973.882,-187.974 974.749,-194.92"/>
</g>
<!-- Node3&#45;&gt;Node2 -->
<g id="edge6" class="edge"><title>Node3&#45;&gt;Node2</title>
<path fill="none" stroke="midnightblue" d="M29.875,-174.214C20.0482,-159.743 6.30841,-133.808 19,-116 64.8442,-51.6734 109.738,-74.4373 187,-58 281.518,-37.8915 571.926,-19.7978 683.088,-13.428"/>
<polygon fill="midnightblue" stroke="midnightblue" points="683.489,-16.9109 693.274,-12.8484 683.091,-9.92223 683.489,-16.9109"/>
</g>
<!-- Node4 -->
<g id="node8" class="node"><title>Node4</title>
<polygon fill="white" stroke="#bfbfbf" points="28,-116.5 28,-137.5 126,-137.5 126,-116.5 28,-116.5"/>
<text text-anchor="middle" x="77" y="-124.5" font-family="Helvetica,sans-Serif" font-size="10.00">QGraphicsObject</text>
</g>
<!-- Node3&#45;&gt;Node4 -->
<g id="edge8" class="edge"><title>Node3&#45;&gt;Node4</title>
<path fill="none" stroke="midnightblue" d="M45.1532,-174.362C50.4858,-166.431 57.9112,-155.389 64.2506,-145.961"/>
<polygon fill="midnightblue" stroke="midnightblue" points="67.2166,-147.822 69.8921,-137.571 61.4077,-143.916 67.2166,-147.822"/>
</g>
<!-- Node5 -->
<g id="node10" class="node"><title>Node5</title>
<polygon fill="white" stroke="#bfbfbf" points="143.5,-116.5 143.5,-137.5 202.5,-137.5 202.5,-116.5 143.5,-116.5"/>
<text text-anchor="middle" x="173" y="-124.5" font-family="Helvetica,sans-Serif" font-size="10.00">QPointer</text>
</g>
<!-- Node3&#45;&gt;Node5 -->
<g id="edge10" class="edge"><title>Node3&#45;&gt;Node5</title>
<path fill="none" stroke="midnightblue" d="M62.4475,-174.497C83.8177,-165.315 115.069,-151.889 138.897,-141.652"/>
<polygon fill="midnightblue" stroke="midnightblue" points="140.472,-144.784 148.278,-137.621 137.709,-138.353 140.472,-144.784"/>
</g>
<!-- Node10&#45;&gt;Node2 -->
<g id="edge22" class="edge"><title>Node10&#45;&gt;Node2</title>
<path fill="none" stroke="midnightblue" d="M319.111,-121.533C353.434,-114.341 412.857,-100.199 461,-80 478.995,-72.4497 480.764,-64.9485 499,-58 560.621,-34.5209 636.31,-21.8786 683.103,-15.7969"/>
<polygon fill="midnightblue" stroke="midnightblue" points="683.72,-19.247 693.206,-14.5278 682.848,-12.3016 683.72,-19.247"/>
</g>
<!-- Node11 -->
<g id="node23" class="node"><title>Node11</title>
<polygon fill="white" stroke="#bfbfbf" points="637.5,-58.5 637.5,-79.5 680.5,-79.5 680.5,-58.5 637.5,-58.5"/>
<text text-anchor="middle" x="659" y="-66.5" font-family="Helvetica,sans-Serif" font-size="10.00">string</text>
</g>
<!-- Node10&#45;&gt;Node11 -->
<g id="edge24" class="edge"><title>Node10&#45;&gt;Node11</title>
<path fill="none" stroke="midnightblue" d="M319.265,-122.545C386.662,-111.923 556.452,-85.1625 627.242,-74.0054"/>
<polygon fill="midnightblue" stroke="midnightblue" points="628.001,-77.4291 637.334,-72.4148 626.911,-70.5144 628.001,-77.4291"/>
</g>
<!-- Node12 -->
<g id="node25" class="node"><title>Node12</title>
<polygon fill="white" stroke="#bfbfbf" points="195.5,-58.5 195.5,-79.5 248.5,-79.5 248.5,-58.5 195.5,-58.5"/>
<text text-anchor="middle" x="222" y="-66.5" font-family="Helvetica,sans-Serif" font-size="10.00">QString</text>
</g>
<!-- Node10&#45;&gt;Node12 -->
<g id="edge26" class="edge"><title>Node10&#45;&gt;Node12</title>
<path fill="none" stroke="midnightblue" d="M278.344,-116.362C268.326,-107.941 254.133,-96.0105 242.499,-86.2308"/>
<polygon fill="midnightblue" stroke="midnightblue" points="244.482,-83.326 234.575,-79.5707 239.978,-88.6844 244.482,-83.326"/>
</g>
<!-- Node13 -->
<g id="node27" class="node"><title>Node13</title>
<polygon fill="white" stroke="#bfbfbf" points="266,-58.5 266,-79.5 316,-79.5 316,-58.5 266,-58.5"/>
<text text-anchor="middle" x="291" y="-66.5" font-family="Helvetica,sans-Serif" font-size="10.00">QHash</text>
</g>
<!-- Node10&#45;&gt;Node13 -->
<g id="edge28" class="edge"><title>Node10&#45;&gt;Node13</title>
<path fill="none" stroke="midnightblue" d="M291,-116.362C291,-108.922 291,-98.7427 291,-89.7276"/>
<polygon fill="midnightblue" stroke="midnightblue" points="294.5,-89.5706 291,-79.5707 287.5,-89.5707 294.5,-89.5706"/>
</g>
<!-- Node14&#45;&gt;Node2 -->
<g id="edge32" class="edge"><title>Node14&#45;&gt;Node2</title>
<path fill="none" stroke="midnightblue" d="M588.51,-116.429C585.705,-101.735 583.073,-75.028 596,-58 606.937,-43.593 649.889,-29.9616 683.667,-21.1265"/>
<polygon fill="midnightblue" stroke="midnightblue" points="684.538,-24.5167 693.363,-18.6541 682.808,-17.7337 684.538,-24.5167"/>
</g>
<!-- Node14&#45;&gt;Node11 -->
<g id="edge38" class="edge"><title>Node14&#45;&gt;Node11</title>
<path fill="none" stroke="midnightblue" d="M603.472,-116.362C613.345,-107.941 627.333,-96.0105 638.798,-86.2308"/>
<polygon fill="midnightblue" stroke="midnightblue" points="641.27,-88.7231 646.607,-79.5707 636.727,-83.3972 641.27,-88.7231"/>
</g>
<!-- Node15 -->
<g id="node32" class="node"><title>Node15</title>
<polygon fill="white" stroke="#bfbfbf" points="1032.5,-0.5 1032.5,-21.5 1073.5,-21.5 1073.5,-0.5 1032.5,-0.5"/>
<text text-anchor="middle" x="1053" y="-8.5" font-family="Helvetica,sans-Serif" font-size="10.00">glib.h</text>
</g>
<!-- Node14&#45;&gt;Node15 -->
<g id="edge34" class="edge"><title>Node14&#45;&gt;Node15</title>
<path fill="none" stroke="midnightblue" d="M593.574,-116.243C597.943,-100.549 608.417,-71.7489 629,-58 661.62,-36.2114 930.644,-18.2965 1022.44,-12.7666"/>
<polygon fill="midnightblue" stroke="midnightblue" points="1022.71,-16.2568 1032.49,-12.1685 1022.3,-9.26917 1022.71,-16.2568"/>
</g>
<!-- Node16 -->
<g id="node34" class="node"><title>Node16</title>
<polygon fill="white" stroke="#bfbfbf" points="507.5,-58.5 507.5,-79.5 544.5,-79.5 544.5,-58.5 507.5,-58.5"/>
<text text-anchor="middle" x="526" y="-66.5" font-family="Helvetica,sans-Serif" font-size="10.00">map</text>
</g>
<!-- Node14&#45;&gt;Node16 -->
<g id="edge36" class="edge"><title>Node14&#45;&gt;Node16</title>
<path fill="none" stroke="midnightblue" d="M579.078,-116.362C569.641,-107.941 556.27,-96.0105 545.31,-86.2308"/>
<polygon fill="midnightblue" stroke="midnightblue" points="547.638,-83.6171 537.846,-79.5707 542.978,-88.8401 547.638,-83.6171"/>
</g>
<!-- Node17 -->
<g id="node37" class="node"><title>Node17</title>
<a xlink:href="AnimationEquations_8h.htm" target="_top" xlink:title="AnimationEquations.h">
<polygon fill="white" stroke="black" points="334,-58.5 334,-79.5 452,-79.5 452,-58.5 334,-58.5"/>
<text text-anchor="middle" x="393" y="-66.5" font-family="Helvetica,sans-Serif" font-size="10.00">AnimationEquations.h</text>
</a>
</g>
<!-- Node14&#45;&gt;Node17 -->
<g id="edge40" class="edge"><title>Node14&#45;&gt;Node17</title>
<path fill="none" stroke="midnightblue" d="M555.144,-116.497C522.445,-106.918 473.974,-92.7196 438.546,-82.3418"/>
<polygon fill="midnightblue" stroke="midnightblue" points="439.504,-78.9754 428.924,-79.5231 437.536,-85.6932 439.504,-78.9754"/>
</g>
<!-- Node17&#45;&gt;Node2 -->
<g id="edge42" class="edge"><title>Node17&#45;&gt;Node2</title>
<path fill="none" stroke="midnightblue" d="M452.328,-58.6976C518.466,-47.2125 623.882,-28.9068 683.037,-18.6343"/>
<polygon fill="midnightblue" stroke="midnightblue" points="683.92,-22.0334 693.174,-16.874 682.722,-15.1366 683.92,-22.0334"/>
</g>
<!-- Node18 -->
<g id="node40" class="node"><title>Node18</title>
<polygon fill="white" stroke="#bfbfbf" points="362.5,-0.5 362.5,-21.5 423.5,-21.5 423.5,-0.5 362.5,-0.5"/>
<text text-anchor="middle" x="393" y="-8.5" font-family="Helvetica,sans-Serif" font-size="10.00">PTypes.h</text>
</g>
<!-- Node17&#45;&gt;Node18 -->
<g id="edge44" class="edge"><title>Node17&#45;&gt;Node18</title>
<path fill="none" stroke="midnightblue" d="M393,-58.3619C393,-50.9219 393,-40.7427 393,-31.7276"/>
<polygon fill="midnightblue" stroke="midnightblue" points="396.5,-31.5706 393,-21.5707 389.5,-31.5707 396.5,-31.5706"/>
</g>
<!-- Node19&#45;&gt;Node2 -->
<g id="edge48" class="edge"><title>Node19&#45;&gt;Node2</title>
<path fill="none" stroke="midnightblue" d="M794.802,-116.302C786.295,-107.089 774.131,-93.2262 765,-80 754.121,-64.2426 743.775,-45.0812 736.633,-30.953"/>
<polygon fill="midnightblue" stroke="midnightblue" points="739.613,-29.0827 732.037,-21.6756 733.34,-32.1901 739.613,-29.0827"/>
</g>
<!-- Node19&#45;&gt;Node11 -->
<g id="edge50" class="edge"><title>Node19&#45;&gt;Node11</title>
<path fill="none" stroke="midnightblue" d="M778.561,-116.497C753.786,-106.655 716.733,-91.935 690.451,-81.4943"/>
<polygon fill="midnightblue" stroke="midnightblue" points="691.54,-78.1607 680.954,-77.7214 688.955,-84.6662 691.54,-78.1607"/>
</g>
<!-- Node19&#45;&gt;Node15 -->
<g id="edge56" class="edge"><title>Node19&#45;&gt;Node15</title>
<path fill="none" stroke="midnightblue" d="M836.646,-119.852C867.34,-112.257 914.752,-98.7472 953,-80 982.367,-65.6055 1012.85,-43.3352 1032.31,-28.0103"/>
<polygon fill="midnightblue" stroke="midnightblue" points="1034.57,-30.6887 1040.2,-21.7112 1030.2,-25.2207 1034.57,-30.6887"/>
</g>
<!-- Node20 -->
<g id="node46" class="node"><title>Node20</title>
<polygon fill="white" stroke="#bfbfbf" points="774,-58.5 774,-79.5 820,-79.5 820,-58.5 774,-58.5"/>
<text text-anchor="middle" x="797" y="-66.5" font-family="Helvetica,sans-Serif" font-size="10.00">vector</text>
</g>
<!-- Node19&#45;&gt;Node20 -->
<g id="edge52" class="edge"><title>Node19&#45;&gt;Node20</title>
<path fill="none" stroke="midnightblue" d="M803.533,-116.362C802.506,-108.922 801.102,-98.7427 799.859,-89.7276"/>
<polygon fill="midnightblue" stroke="midnightblue" points="803.292,-88.9986 798.458,-79.5707 796.357,-89.9551 803.292,-88.9986"/>
</g>
<!-- Node21 -->
<g id="node48" class="node"><title>Node21</title>
<polygon fill="white" stroke="#bfbfbf" points="837.5,-58.5 837.5,-79.5 868.5,-79.5 868.5,-58.5 837.5,-58.5"/>
<text text-anchor="middle" x="853" y="-66.5" font-family="Helvetica,sans-Serif" font-size="10.00">set</text>
</g>
<!-- Node19&#45;&gt;Node21 -->
<g id="edge54" class="edge"><title>Node19&#45;&gt;Node21</title>
<path fill="none" stroke="midnightblue" d="M813.804,-116.362C820.502,-108.268 829.884,-96.9318 837.789,-87.3796"/>
<polygon fill="midnightblue" stroke="midnightblue" points="840.573,-89.5061 844.252,-79.5707 835.18,-85.0431 840.573,-89.5061"/>
</g>
<!-- Node22 -->
<g id="node51" class="node"><title>Node22</title>
<polygon fill="white" stroke="#bfbfbf" points="886,-58.5 886,-79.5 944,-79.5 944,-58.5 886,-58.5"/>
<text text-anchor="middle" x="915" y="-66.5" font-family="Helvetica,sans-Serif" font-size="10.00">QtGlobal</text>
</g>
<!-- Node19&#45;&gt;Node22 -->
<g id="edge58" class="edge"><title>Node19&#45;&gt;Node22</title>
<path fill="none" stroke="midnightblue" d="M824.92,-116.497C841.946,-107.519 866.669,-94.4835 885.909,-84.3387"/>
<polygon fill="midnightblue" stroke="midnightblue" points="887.643,-87.3814 894.856,-79.6212 884.378,-81.1894 887.643,-87.3814"/>
</g>
<!-- Node23&#45;&gt;Node2 -->
<g id="edge62" class="edge"><title>Node23&#45;&gt;Node2</title>
<path fill="none" stroke="midnightblue" d="M1011.95,-174.468C1001.25,-165.767 986.892,-152.522 978,-138 958.548,-106.231 980.597,-83.021 953,-58 926.743,-34.1937 828.879,-20.8472 770.894,-14.8713"/>
<polygon fill="midnightblue" stroke="midnightblue" points="771.204,-11.3849 760.905,-13.874 770.508,-18.3503 771.204,-11.3849"/>
</g>
<!-- Node23&#45;&gt;Node11 -->
<g id="edge64" class="edge"><title>Node23&#45;&gt;Node11</title>
<path fill="none" stroke="midnightblue" d="M984.375,-182.607C931.666,-178.442 838.826,-167.282 765,-138 732.674,-125.178 699.775,-101.812 679.385,-85.8561"/>
<polygon fill="midnightblue" stroke="midnightblue" points="681.45,-83.0258 671.45,-79.5237 677.083,-88.4971 681.45,-83.0258"/>
</g>
<!-- Node24 -->
<g id="node57" class="node"><title>Node24</title>
<polygon fill="white" stroke="#bfbfbf" points="987,-116.5 987,-137.5 1065,-137.5 1065,-116.5 987,-116.5"/>
<text text-anchor="middle" x="1026" y="-124.5" font-family="Helvetica,sans-Serif" font-size="10.00">lunaservice.h</text>
</g>
<!-- Node23&#45;&gt;Node24 -->
<g id="edge66" class="edge"><title>Node23&#45;&gt;Node24</title>
<path fill="none" stroke="midnightblue" d="M1026,-174.362C1026,-166.922 1026,-156.743 1026,-147.728"/>
<polygon fill="midnightblue" stroke="midnightblue" points="1029.5,-147.571 1026,-137.571 1022.5,-147.571 1029.5,-147.571"/>
</g>
<!-- Node25 -->
<g id="node59" class="node"><title>Node25</title>
<a xlink:href="Mutex_8h.htm" target="_top" xlink:title="Mutex.h">
<polygon fill="white" stroke="black" points="1082.5,-116.5 1082.5,-137.5 1135.5,-137.5 1135.5,-116.5 1082.5,-116.5"/>
<text text-anchor="middle" x="1109" y="-124.5" font-family="Helvetica,sans-Serif" font-size="10.00">Mutex.h</text>
</a>
</g>
<!-- Node23&#45;&gt;Node25 -->
<g id="edge68" class="edge"><title>Node23&#45;&gt;Node25</title>
<path fill="none" stroke="midnightblue" d="M1041.22,-174.362C1053.63,-165.696 1071.35,-153.313 1085.56,-143.382"/>
<polygon fill="midnightblue" stroke="midnightblue" points="1087.68,-146.168 1093.87,-137.571 1083.67,-140.43 1087.68,-146.168"/>
</g>
<!-- Node27 -->
<g id="node67" class="node"><title>Node27</title>
<a xlink:href="CustomEvents_8h.htm" target="_top" xlink:title="CustomEvents.h">
<polygon fill="white" stroke="black" points="1225,-116.5 1225,-137.5 1317,-137.5 1317,-116.5 1225,-116.5"/>
<text text-anchor="middle" x="1271" y="-124.5" font-family="Helvetica,sans-Serif" font-size="10.00">CustomEvents.h</text>
</a>
</g>
<!-- Node23&#45;&gt;Node27 -->
<g id="edge80" class="edge"><title>Node23&#45;&gt;Node27</title>
<path fill="none" stroke="midnightblue" d="M1067.56,-175.161C1108.56,-165.456 1171.44,-150.568 1216.44,-139.916"/>
<polygon fill="midnightblue" stroke="midnightblue" points="1217.4,-143.285 1226.33,-137.575 1215.79,-136.473 1217.4,-143.285"/>
</g>
<!-- Node29 -->
<g id="node72" class="node"><title>Node29</title>
<polygon fill="white" stroke="#bfbfbf" points="1152.5,-116.5 1152.5,-137.5 1207.5,-137.5 1207.5,-116.5 1152.5,-116.5"/>
<text text-anchor="middle" x="1180" y="-124.5" font-family="Helvetica,sans-Serif" font-size="10.00">QObject</text>
</g>
<!-- Node23&#45;&gt;Node29 -->
<g id="edge86" class="edge"><title>Node23&#45;&gt;Node29</title>
<path fill="none" stroke="midnightblue" d="M1053.89,-174.497C1078.75,-165.135 1115.32,-151.359 1142.69,-141.051"/>
<polygon fill="midnightblue" stroke="midnightblue" points="1144.19,-144.225 1152.32,-137.425 1141.73,-137.674 1144.19,-144.225"/>
</g>
<!-- Node25&#45;&gt;Node2 -->
<g id="edge70" class="edge"><title>Node25&#45;&gt;Node2</title>
<path fill="none" stroke="midnightblue" d="M1093.88,-116.312C1071.43,-100.972 1027.47,-72.9206 986,-58 913.033,-31.7468 823.003,-19.6472 770.589,-14.4725"/>
<polygon fill="midnightblue" stroke="midnightblue" points="770.91,-10.9873 760.624,-13.5278 770.249,-17.9561 770.91,-10.9873"/>
</g>
<!-- Node25&#45;&gt;Node15 -->
<g id="edge78" class="edge"><title>Node25&#45;&gt;Node15</title>
<path fill="none" stroke="midnightblue" d="M1116.55,-116.108C1125.33,-101.97 1137.37,-76.8787 1127,-58 1117.65,-40.9895 1099.25,-29.2631 1083.14,-21.7776"/>
<polygon fill="midnightblue" stroke="midnightblue" points="1084.08,-18.371 1073.51,-17.6555 1081.32,-24.8068 1084.08,-18.371"/>
</g>
<!-- Node26 -->
<g id="node62" class="node"><title>Node26</title>
<a xlink:href="sptr_8h.htm" target="_top" xlink:title="sptr.h">
<polygon fill="white" stroke="black" points="1075.5,-58.5 1075.5,-79.5 1118.5,-79.5 1118.5,-58.5 1075.5,-58.5"/>
<text text-anchor="middle" x="1097" y="-66.5" font-family="Helvetica,sans-Serif" font-size="10.00">sptr.h</text>
</a>
</g>
<!-- Node25&#45;&gt;Node26 -->
<g id="edge72" class="edge"><title>Node25&#45;&gt;Node26</title>
<path fill="none" stroke="midnightblue" d="M1106.8,-116.362C1105.24,-108.84 1103.11,-98.5187 1101.23,-89.4308"/>
<polygon fill="midnightblue" stroke="midnightblue" points="1104.64,-88.6541 1099.19,-79.5707 1097.79,-90.0724 1104.64,-88.6541"/>
</g>
<!-- Node26&#45;&gt;Node2 -->
<g id="edge74" class="edge"><title>Node26&#45;&gt;Node2</title>
<path fill="none" stroke="midnightblue" d="M1075.31,-61.5719C1070.94,-60.2487 1066.35,-58.9815 1062,-58 958.892,-34.7318 835.181,-20.9499 770.801,-14.8166"/>
<polygon fill="midnightblue" stroke="midnightblue" points="770.897,-11.3104 760.614,-13.8631 770.244,-18.2799 770.897,-11.3104"/>
</g>
<!-- Node26&#45;&gt;Node15 -->
<g id="edge76" class="edge"><title>Node26&#45;&gt;Node15</title>
<path fill="none" stroke="midnightblue" d="M1088.93,-58.3619C1082.85,-50.3496 1074.36,-39.1605 1067.16,-29.6696"/>
<polygon fill="midnightblue" stroke="midnightblue" points="1069.85,-27.4222 1061.02,-21.5707 1064.27,-31.653 1069.85,-27.4222"/>
</g>
<!-- Node27&#45;&gt;Node2 -->
<g id="edge82" class="edge"><title>Node27&#45;&gt;Node2</title>
<path fill="none" stroke="midnightblue" d="M1253.57,-116.297C1227.22,-100.671 1175.2,-71.9583 1127,-58 1060.94,-38.8686 860.225,-21.3876 770.797,-14.3167"/>
<polygon fill="midnightblue" stroke="midnightblue" points="770.956,-10.8185 760.713,-13.5263 770.409,-17.7971 770.956,-10.8185"/>
</g>
<!-- Node28 -->
<g id="node70" class="node"><title>Node28</title>
<polygon fill="white" stroke="#bfbfbf" points="1245,-58.5 1245,-79.5 1297,-79.5 1297,-58.5 1245,-58.5"/>
<text text-anchor="middle" x="1271" y="-66.5" font-family="Helvetica,sans-Serif" font-size="10.00">QEvent</text>
</g>
<!-- Node27&#45;&gt;Node28 -->
<g id="edge84" class="edge"><title>Node27&#45;&gt;Node28</title>
<path fill="none" stroke="midnightblue" d="M1271,-116.362C1271,-108.922 1271,-98.7427 1271,-89.7276"/>
<polygon fill="midnightblue" stroke="midnightblue" points="1274.5,-89.5706 1271,-79.5707 1267.5,-89.5707 1274.5,-89.5706"/>
</g>
</g>
</svg>
