<?xml version="1.0" encoding="UTF-8" standalone="no"?>
<!DOCTYPE svg PUBLIC "-//W3C//DTD SVG 1.1//EN"
 "http://www.w3.org/Graphics/SVG/1.1/DTD/svg11.dtd">
<!-- Generated by graphviz version 2.26.3 (20100126.1600)
 -->
<!-- Title: G Pages: 1 -->
<svg width="762pt" height="88pt"
 viewBox="0.00 0.00 762.00 88.00" xmlns="http://www.w3.org/2000/svg" xmlns:xlink="http://www.w3.org/1999/xlink">
<g id="graph1" class="graph" transform="scale(1 1) rotate(0) translate(4 84)">
<title>G</title>
<polygon fill="white" stroke="white" points="-4,5 -4,-84 759,-84 759,5 -4,5"/>
<!-- Node1 -->
<g id="node1" class="node"><title>Node1</title>
<polygon fill="#bfbfbf" stroke="black" points="275,-58.5 275,-79.5 381,-79.5 381,-58.5 275,-58.5"/>
<text text-anchor="middle" x="328" y="-66.5" font-family="Helvetica,sans-Serif" font-size="10.00">RoundedCorners.h</text>
</g>
<!-- Node2 -->
<g id="node3" class="node"><title>Node2</title>
<a xlink:href="RoundedCorners_8cpp.htm" target="_top" xlink:title="RoundedCorners.cpp">
<polygon fill="white" stroke="black" points="-0.5,-0.5 -0.5,-21.5 116.5,-21.5 116.5,-0.5 -0.5,-0.5"/>
<text text-anchor="middle" x="58" y="-8.5" font-family="Helvetica,sans-Serif" font-size="10.00">RoundedCorners.cpp</text>
</a>
</g>
<!-- Node1&#45;&gt;Node2 -->
<g id="edge2" class="edge"><title>Node1&#45;&gt;Node2</title>
<path fill="none" stroke="midnightblue" d="M269.061,-56.3391C220.54,-45.9159 152.558,-31.3126 106.987,-21.5231"/>
<polygon fill="midnightblue" stroke="midnightblue" points="268.593,-59.8183 279.105,-58.4966 270.063,-52.9744 268.593,-59.8183"/>
</g>
<!-- Node3 -->
<g id="node5" class="node"><title>Node3</title>
<a xlink:href="CardWebApp_8cpp.htm" target="_top" xlink:title="CardWebApp.cpp">
<polygon fill="white" stroke="black" points="133.5,-0.5 133.5,-21.5 232.5,-21.5 232.5,-0.5 133.5,-0.5"/>
<text text-anchor="middle" x="183" y="-8.5" font-family="Helvetica,sans-Serif" font-size="10.00">CardWebApp.cpp</text>
</a>
</g>
<!-- Node1&#45;&gt;Node3 -->
<g id="edge4" class="edge"><title>Node1&#45;&gt;Node3</title>
<path fill="none" stroke="midnightblue" d="M292.377,-54.7509C266.771,-44.5086 232.801,-30.9206 209.553,-21.6212"/>
<polygon fill="midnightblue" stroke="midnightblue" points="291.157,-58.0323 301.742,-58.4966 293.757,-51.533 291.157,-58.0323"/>
</g>
<!-- Node4 -->
<g id="node7" class="node"><title>Node4</title>
<a xlink:href="DockModeMenuManager_8cpp.htm" target="_top" xlink:title="DockModeMenuManager.cpp">
<polygon fill="white" stroke="black" points="250,-0.5 250,-21.5 406,-21.5 406,-0.5 250,-0.5"/>
<text text-anchor="middle" x="328" y="-8.5" font-family="Helvetica,sans-Serif" font-size="10.00">DockModeMenuManager.cpp</text>
</a>
</g>
<!-- Node1&#45;&gt;Node4 -->
<g id="edge6" class="edge"><title>Node1&#45;&gt;Node4</title>
<path fill="none" stroke="midnightblue" d="M328,-48.1906C328,-39.1684 328,-28.9941 328,-21.5707"/>
<polygon fill="midnightblue" stroke="midnightblue" points="324.5,-48.3619 328,-58.3619 331.5,-48.3619 324.5,-48.3619"/>
</g>
<!-- Node5 -->
<g id="node9" class="node"><title>Node5</title>
<a xlink:href="EmergencyWindowManager_8cpp.htm" target="_top" xlink:title="EmergencyWindowManager.cpp">
<polygon fill="white" stroke="black" points="424,-0.5 424,-21.5 594,-21.5 594,-0.5 424,-0.5"/>
<text text-anchor="middle" x="509" y="-8.5" font-family="Helvetica,sans-Serif" font-size="10.00">EmergencyWindowManager.cpp</text>
</a>
</g>
<!-- Node1&#45;&gt;Node5 -->
<g id="edge8" class="edge"><title>Node1&#45;&gt;Node5</title>
<path fill="none" stroke="midnightblue" d="M370.402,-55.4127C402.695,-45.0646 446.506,-31.0258 476.161,-21.5231"/>
<polygon fill="midnightblue" stroke="midnightblue" points="369.233,-52.1119 360.778,-58.4966 371.369,-58.7781 369.233,-52.1119"/>
</g>
<!-- Node6 -->
<g id="node11" class="node"><title>Node6</title>
<a xlink:href="MenuWindowManager_8cpp.htm" target="_top" xlink:title="MenuWindowManager.cpp">
<polygon fill="white" stroke="black" points="611.5,-0.5 611.5,-21.5 754.5,-21.5 754.5,-0.5 611.5,-0.5"/>
<text text-anchor="middle" x="683" y="-8.5" font-family="Helvetica,sans-Serif" font-size="10.00">MenuWindowManager.cpp</text>
</a>
</g>
<!-- Node1&#45;&gt;Node6 -->
<g id="edge10" class="edge"><title>Node1&#45;&gt;Node6</title>
<path fill="none" stroke="midnightblue" d="M391.131,-58.6856C455.262,-48.208 554.082,-32.0627 618.648,-21.5139"/>
<polygon fill="midnightblue" stroke="midnightblue" points="390.452,-55.2501 381.147,-60.3168 391.581,-62.1585 390.452,-55.2501"/>
</g>
</g>
</svg>
