<?xml version="1.0" encoding="UTF-8" standalone="no"?>
<!DOCTYPE svg PUBLIC "-//W3C//DTD SVG 1.1//EN"
 "http://www.w3.org/Graphics/SVG/1.1/DTD/svg11.dtd">
<!-- Generated by graphviz version 2.26.3 (20100126.1600)
 -->
<!-- Title: G Pages: 1 -->
<svg width="634pt" height="146pt"
 viewBox="0.00 0.00 634.00 146.00" xmlns="http://www.w3.org/2000/svg" xmlns:xlink="http://www.w3.org/1999/xlink">
<g id="graph1" class="graph" transform="scale(1 1) rotate(0) translate(4 142)">
<title>G</title>
<polygon fill="white" stroke="white" points="-4,5 -4,-142 631,-142 631,5 -4,5"/>
<!-- Node1 -->
<g id="node1" class="node"><title>Node1</title>
<polygon fill="#bfbfbf" stroke="black" points="295.5,-116.5 295.5,-137.5 382.5,-137.5 382.5,-116.5 295.5,-116.5"/>
<text text-anchor="middle" x="339" y="-124.5" font-family="Helvetica,sans-Serif" font-size="10.00">safefileops.cpp</text>
</g>
<!-- Node2 -->
<g id="node3" class="node"><title>Node2</title>
<a xlink:href="safefileops_8h.htm" target="_top" xlink:title="safefileops.h">
<polygon fill="white" stroke="black" points="30,-58.5 30,-79.5 106,-79.5 106,-58.5 30,-58.5"/>
<text text-anchor="middle" x="68" y="-66.5" font-family="Helvetica,sans-Serif" font-size="10.00">safefileops.h</text>
</a>
</g>
<!-- Node1&#45;&gt;Node2 -->
<g id="edge2" class="edge"><title>Node1&#45;&gt;Node2</title>
<path fill="none" stroke="midnightblue" d="M295.155,-118.112C252.07,-109.308 184.192,-95.254 116.228,-80.2404"/>
<polygon fill="midnightblue" stroke="midnightblue" points="116.723,-76.7653 106.203,-78.0188 115.209,-83.5995 116.723,-76.7653"/>
</g>
<!-- Node5 -->
<g id="node9" class="node"><title>Node5</title>
<polygon fill="white" stroke="#bfbfbf" points="123.5,-58.5 123.5,-79.5 164.5,-79.5 164.5,-58.5 123.5,-58.5"/>
<text text-anchor="middle" x="144" y="-66.5" font-family="Helvetica,sans-Serif" font-size="10.00">QFile</text>
</g>
<!-- Node1&#45;&gt;Node5 -->
<g id="edge8" class="edge"><title>Node1&#45;&gt;Node5</title>
<path fill="none" stroke="midnightblue" d="M298.11,-116.482C266.503,-108.115 221.497,-95.6903 174.299,-80.2643"/>
<polygon fill="midnightblue" stroke="midnightblue" points="175.11,-76.8462 164.516,-77.0336 172.914,-83.4931 175.11,-76.8462"/>
</g>
<!-- Node6 -->
<g id="node11" class="node"><title>Node6</title>
<polygon fill="white" stroke="#bfbfbf" points="181.5,-58.5 181.5,-79.5 240.5,-79.5 240.5,-58.5 181.5,-58.5"/>
<text text-anchor="middle" x="211" y="-66.5" font-family="Helvetica,sans-Serif" font-size="10.00">QFileInfo</text>
</g>
<!-- Node1&#45;&gt;Node6 -->
<g id="edge10" class="edge"><title>Node1&#45;&gt;Node6</title>
<path fill="none" stroke="midnightblue" d="M315.82,-116.497C295.648,-107.356 266.19,-94.0082 243.636,-83.7883"/>
<polygon fill="midnightblue" stroke="midnightblue" points="244.993,-80.5606 234.44,-79.6212 242.104,-86.9366 244.993,-80.5606"/>
</g>
<!-- Node7 -->
<g id="node13" class="node"><title>Node7</title>
<polygon fill="white" stroke="#bfbfbf" points="257.5,-58.5 257.5,-79.5 298.5,-79.5 298.5,-58.5 257.5,-58.5"/>
<text text-anchor="middle" x="278" y="-66.5" font-family="Helvetica,sans-Serif" font-size="10.00">glib.h</text>
</g>
<!-- Node1&#45;&gt;Node7 -->
<g id="edge12" class="edge"><title>Node1&#45;&gt;Node7</title>
<path fill="none" stroke="midnightblue" d="M327.812,-116.362C319.041,-108.023 306.651,-96.2418 296.422,-86.5162"/>
<polygon fill="midnightblue" stroke="midnightblue" points="298.776,-83.9248 289.117,-79.5707 293.953,-88.9978 298.776,-83.9248"/>
</g>
<!-- Node8 -->
<g id="node15" class="node"><title>Node8</title>
<polygon fill="white" stroke="#bfbfbf" points="315.5,-58.5 315.5,-79.5 362.5,-79.5 362.5,-58.5 315.5,-58.5"/>
<text text-anchor="middle" x="339" y="-66.5" font-family="Helvetica,sans-Serif" font-size="10.00">stdio.h</text>
</g>
<!-- Node1&#45;&gt;Node8 -->
<g id="edge14" class="edge"><title>Node1&#45;&gt;Node8</title>
<path fill="none" stroke="midnightblue" d="M339,-116.362C339,-108.922 339,-98.7427 339,-89.7276"/>
<polygon fill="midnightblue" stroke="midnightblue" points="342.5,-89.5706 339,-79.5707 335.5,-89.5707 342.5,-89.5706"/>
</g>
<!-- Node9 -->
<g id="node17" class="node"><title>Node9</title>
<polygon fill="white" stroke="#bfbfbf" points="379.5,-58.5 379.5,-79.5 426.5,-79.5 426.5,-58.5 379.5,-58.5"/>
<text text-anchor="middle" x="403" y="-66.5" font-family="Helvetica,sans-Serif" font-size="10.00">cerrno</text>
</g>
<!-- Node1&#45;&gt;Node9 -->
<g id="edge16" class="edge"><title>Node1&#45;&gt;Node9</title>
<path fill="none" stroke="midnightblue" d="M350.739,-116.362C359.941,-108.023 372.94,-96.2418 383.672,-86.5162"/>
<polygon fill="midnightblue" stroke="midnightblue" points="386.276,-88.8793 391.336,-79.5707 381.576,-83.6924 386.276,-88.8793"/>
</g>
<!-- Node10 -->
<g id="node19" class="node"><title>Node10</title>
<polygon fill="white" stroke="#bfbfbf" points="443.5,-58.5 443.5,-79.5 492.5,-79.5 492.5,-58.5 443.5,-58.5"/>
<text text-anchor="middle" x="468" y="-66.5" font-family="Helvetica,sans-Serif" font-size="10.00">stdlib.h</text>
</g>
<!-- Node1&#45;&gt;Node10 -->
<g id="edge18" class="edge"><title>Node1&#45;&gt;Node10</title>
<path fill="none" stroke="midnightblue" d="M362.361,-116.497C382.691,-107.356 412.378,-94.0082 435.109,-83.7883"/>
<polygon fill="midnightblue" stroke="midnightblue" points="436.692,-86.9142 444.377,-79.6212 433.821,-80.5298 436.692,-86.9142"/>
</g>
<!-- Node11 -->
<g id="node21" class="node"><title>Node11</title>
<polygon fill="white" stroke="#bfbfbf" points="510,-58.5 510,-79.5 554,-79.5 554,-58.5 510,-58.5"/>
<text text-anchor="middle" x="532" y="-66.5" font-family="Helvetica,sans-Serif" font-size="10.00">fcntl.h</text>
</g>
<!-- Node1&#45;&gt;Node11 -->
<g id="edge20" class="edge"><title>Node1&#45;&gt;Node11</title>
<path fill="none" stroke="midnightblue" d="M377.818,-116.427C408.634,-107.88 453.01,-95.2326 499.965,-80.2232"/>
<polygon fill="midnightblue" stroke="midnightblue" points="501.256,-83.4844 509.702,-77.088 499.111,-76.8213 501.256,-83.4844"/>
</g>
<!-- Node12 -->
<g id="node23" class="node"><title>Node12</title>
<polygon fill="white" stroke="#bfbfbf" points="571.5,-58.5 571.5,-79.5 626.5,-79.5 626.5,-58.5 571.5,-58.5"/>
<text text-anchor="middle" x="599" y="-66.5" font-family="Helvetica,sans-Serif" font-size="10.00">QDebug</text>
</g>
<!-- Node1&#45;&gt;Node12 -->
<g id="edge22" class="edge"><title>Node1&#45;&gt;Node12</title>
<path fill="none" stroke="midnightblue" d="M382.628,-119.048C425.841,-110.904 494.076,-97.3297 561.26,-80.3116"/>
<polygon fill="midnightblue" stroke="midnightblue" points="562.343,-83.6474 571.162,-77.7759 560.606,-76.8662 562.343,-83.6474"/>
</g>
<!-- Node3 -->
<g id="node5" class="node"><title>Node3</title>
<polygon fill="white" stroke="#bfbfbf" points="-0.5,-0.5 -0.5,-21.5 62.5,-21.5 62.5,-0.5 -0.5,-0.5"/>
<text text-anchor="middle" x="31" y="-8.5" font-family="Helvetica,sans-Serif" font-size="10.00">QSettings</text>
</g>
<!-- Node2&#45;&gt;Node3 -->
<g id="edge4" class="edge"><title>Node2&#45;&gt;Node3</title>
<path fill="none" stroke="midnightblue" d="M61.2136,-58.3619C56.2066,-50.5131 49.255,-39.6159 43.2819,-30.2527"/>
<polygon fill="midnightblue" stroke="midnightblue" points="46.0723,-28.1189 37.7433,-21.5707 40.1708,-31.8837 46.0723,-28.1189"/>
</g>
<!-- Node4 -->
<g id="node7" class="node"><title>Node4</title>
<polygon fill="white" stroke="#bfbfbf" points="79.5,-0.5 79.5,-21.5 132.5,-21.5 132.5,-0.5 79.5,-0.5"/>
<text text-anchor="middle" x="106" y="-8.5" font-family="Helvetica,sans-Serif" font-size="10.00">QString</text>
</g>
<!-- Node2&#45;&gt;Node4 -->
<g id="edge6" class="edge"><title>Node2&#45;&gt;Node4</title>
<path fill="none" stroke="midnightblue" d="M74.9698,-58.3619C80.1657,-50.4313 87.4006,-39.3885 93.5775,-29.9606"/>
<polygon fill="midnightblue" stroke="midnightblue" points="96.5217,-31.8534 99.0744,-21.5707 90.6665,-28.0172 96.5217,-31.8534"/>
</g>
</g>
</svg>
