<?xml version="1.0" encoding="UTF-8" standalone="no"?>
<!DOCTYPE svg PUBLIC "-//W3C//DTD SVG 1.1//EN"
 "http://www.w3.org/Graphics/SVG/1.1/DTD/svg11.dtd">
<!-- Generated by graphviz version 2.26.3 (20100126.1600)
 -->
<!-- Title: G Pages: 1 -->
<svg width="380pt" height="88pt"
 viewBox="0.00 0.00 380.00 88.00" xmlns="http://www.w3.org/2000/svg" xmlns:xlink="http://www.w3.org/1999/xlink">
<g id="graph1" class="graph" transform="scale(1 1) rotate(0) translate(4 84)">
<title>G</title>
<polygon fill="white" stroke="white" points="-4,5 -4,-84 377,-84 377,5 -4,5"/>
<!-- Node1 -->
<g id="node1" class="node"><title>Node1</title>
<polygon fill="#bfbfbf" stroke="black" points="163.5,-58.5 163.5,-79.5 226.5,-79.5 226.5,-58.5 163.5,-58.5"/>
<text text-anchor="middle" x="195" y="-66.5" font-family="Helvetica,sans-Serif" font-size="10.00">Settings.h</text>
</g>
<!-- Node2 -->
<g id="node3" class="node"><title>Node2</title>
<a xlink:href="Common_8h.htm" target="_top" xlink:title="Common.h">
<polygon fill="white" stroke="black" points="-0.5,-0.5 -0.5,-21.5 66.5,-21.5 66.5,-0.5 -0.5,-0.5"/>
<text text-anchor="middle" x="33" y="-8.5" font-family="Helvetica,sans-Serif" font-size="10.00">Common.h</text>
</a>
</g>
<!-- Node1&#45;&gt;Node2 -->
<g id="edge2" class="edge"><title>Node1&#45;&gt;Node2</title>
<path fill="none" stroke="midnightblue" d="M165.663,-58.4966C139.481,-49.1229 100.94,-35.3242 72.1375,-25.0122"/>
<polygon fill="midnightblue" stroke="midnightblue" points="72.9866,-21.5987 62.392,-21.5231 70.627,-28.189 72.9866,-21.5987"/>
</g>
<!-- Node3 -->
<g id="node5" class="node"><title>Node3</title>
<polygon fill="white" stroke="#bfbfbf" points="83.5,-0.5 83.5,-21.5 126.5,-21.5 126.5,-0.5 83.5,-0.5"/>
<text text-anchor="middle" x="105" y="-8.5" font-family="Helvetica,sans-Serif" font-size="10.00">string</text>
</g>
<!-- Node1&#45;&gt;Node3 -->
<g id="edge4" class="edge"><title>Node1&#45;&gt;Node3</title>
<path fill="none" stroke="midnightblue" d="M178.493,-58.3619C164.918,-49.6138 145.467,-37.0786 129.985,-27.1015"/>
<polygon fill="midnightblue" stroke="midnightblue" points="131.704,-24.0457 121.403,-21.5707 127.912,-29.9297 131.704,-24.0457"/>
</g>
<!-- Node4 -->
<g id="node7" class="node"><title>Node4</title>
<polygon fill="white" stroke="#bfbfbf" points="144,-0.5 144,-21.5 190,-21.5 190,-0.5 144,-0.5"/>
<text text-anchor="middle" x="167" y="-8.5" font-family="Helvetica,sans-Serif" font-size="10.00">vector</text>
</g>
<!-- Node1&#45;&gt;Node4 -->
<g id="edge6" class="edge"><title>Node1&#45;&gt;Node4</title>
<path fill="none" stroke="midnightblue" d="M189.864,-58.3619C186.154,-50.6766 181.033,-40.0686 176.578,-30.8399"/>
<polygon fill="midnightblue" stroke="midnightblue" points="179.603,-29.0545 172.103,-21.5707 173.299,-32.0978 179.603,-29.0545"/>
</g>
<!-- Node5 -->
<g id="node9" class="node"><title>Node5</title>
<polygon fill="white" stroke="#bfbfbf" points="207.5,-0.5 207.5,-21.5 238.5,-21.5 238.5,-0.5 207.5,-0.5"/>
<text text-anchor="middle" x="223" y="-8.5" font-family="Helvetica,sans-Serif" font-size="10.00">set</text>
</g>
<!-- Node1&#45;&gt;Node5 -->
<g id="edge8" class="edge"><title>Node1&#45;&gt;Node5</title>
<path fill="none" stroke="midnightblue" d="M200.136,-58.3619C203.846,-50.6766 208.967,-40.0686 213.422,-30.8399"/>
<polygon fill="midnightblue" stroke="midnightblue" points="216.701,-32.0978 217.897,-21.5707 210.397,-29.0545 216.701,-32.0978"/>
</g>
<!-- Node6 -->
<g id="node11" class="node"><title>Node6</title>
<polygon fill="white" stroke="#bfbfbf" points="255.5,-0.5 255.5,-21.5 296.5,-21.5 296.5,-0.5 255.5,-0.5"/>
<text text-anchor="middle" x="276" y="-8.5" font-family="Helvetica,sans-Serif" font-size="10.00">glib.h</text>
</g>
<!-- Node1&#45;&gt;Node6 -->
<g id="edge10" class="edge"><title>Node1&#45;&gt;Node6</title>
<path fill="none" stroke="midnightblue" d="M209.857,-58.3619C221.846,-49.7773 238.927,-37.5459 252.728,-27.6636"/>
<polygon fill="midnightblue" stroke="midnightblue" points="255.145,-30.2383 261.238,-21.5707 251.069,-24.5469 255.145,-30.2383"/>
</g>
<!-- Node7 -->
<g id="node13" class="node"><title>Node7</title>
<polygon fill="white" stroke="#bfbfbf" points="314,-0.5 314,-21.5 372,-21.5 372,-0.5 314,-0.5"/>
<text text-anchor="middle" x="343" y="-8.5" font-family="Helvetica,sans-Serif" font-size="10.00">QtGlobal</text>
</g>
<!-- Node1&#45;&gt;Node7 -->
<g id="edge12" class="edge"><title>Node1&#45;&gt;Node7</title>
<path fill="none" stroke="midnightblue" d="M221.802,-58.4966C245.438,-49.2337 280.1,-35.6499 306.308,-25.3793"/>
<polygon fill="midnightblue" stroke="midnightblue" points="307.864,-28.5287 315.898,-21.6212 305.31,-22.0113 307.864,-28.5287"/>
</g>
</g>
</svg>
