<?xml version="1.0" encoding="UTF-8" standalone="no"?>
<!DOCTYPE svg PUBLIC "-//W3C//DTD SVG 1.1//EN"
 "http://www.w3.org/Graphics/SVG/1.1/DTD/svg11.dtd">
<!-- Generated by graphviz version 2.26.3 (20100126.1600)
 -->
<!-- Title: G Pages: 1 -->
<svg width="372pt" height="146pt"
 viewBox="0.00 0.00 372.00 146.00" xmlns="http://www.w3.org/2000/svg" xmlns:xlink="http://www.w3.org/1999/xlink">
<g id="graph1" class="graph" transform="scale(1 1) rotate(0) translate(4 142)">
<title>G</title>
<polygon fill="white" stroke="white" points="-4,5 -4,-142 369,-142 369,5 -4,5"/>
<!-- Node1 -->
<g id="node1" class="node"><title>Node1</title>
<polygon fill="#bfbfbf" stroke="black" points="129.5,-116.5 129.5,-137.5 236.5,-137.5 236.5,-116.5 129.5,-116.5"/>
<text text-anchor="middle" x="183" y="-124.5" font-family="Helvetica,sans-Serif" font-size="10.00">ShortcutsHandler.h</text>
</g>
<!-- Node2 -->
<g id="node3" class="node"><title>Node2</title>
<a xlink:href="PhoneKeyboard_8h.htm" target="_top" xlink:title="PhoneKeyboard.h">
<polygon fill="white" stroke="black" points="5.5,-58.5 5.5,-79.5 106.5,-79.5 106.5,-58.5 5.5,-58.5"/>
<text text-anchor="middle" x="56" y="-66.5" font-family="Helvetica,sans-Serif" font-size="10.00">PhoneKeyboard.h</text>
</a>
</g>
<!-- Node1&#45;&gt;Node2 -->
<g id="edge2" class="edge"><title>Node1&#45;&gt;Node2</title>
<path fill="none" stroke="midnightblue" d="M150.607,-112.206C128.327,-102.031 99.2603,-88.7567 79.2568,-79.6212"/>
<polygon fill="midnightblue" stroke="midnightblue" points="149.451,-115.526 160.001,-116.497 152.359,-109.159 149.451,-115.526"/>
</g>
<!-- Node4 -->
<g id="node7" class="node"><title>Node4</title>
<a xlink:href="ShortcutsHandler_8cpp.htm" target="_top" xlink:title="ShortcutsHandler.cpp">
<polygon fill="white" stroke="black" points="124,-58.5 124,-79.5 242,-79.5 242,-58.5 124,-58.5"/>
<text text-anchor="middle" x="183" y="-66.5" font-family="Helvetica,sans-Serif" font-size="10.00">ShortcutsHandler.cpp</text>
</a>
</g>
<!-- Node1&#45;&gt;Node4 -->
<g id="edge6" class="edge"><title>Node1&#45;&gt;Node4</title>
<path fill="none" stroke="midnightblue" d="M183,-106.191C183,-97.1684 183,-86.9941 183,-79.5707"/>
<polygon fill="midnightblue" stroke="midnightblue" points="179.5,-106.362 183,-116.362 186.5,-106.362 179.5,-106.362"/>
</g>
<!-- Node5 -->
<g id="node9" class="node"><title>Node5</title>
<a xlink:href="TabletKeyboard_8h.htm" target="_top" xlink:title="TabletKeyboard.h">
<polygon fill="white" stroke="black" points="259.5,-58.5 259.5,-79.5 358.5,-79.5 358.5,-58.5 259.5,-58.5"/>
<text text-anchor="middle" x="309" y="-66.5" font-family="Helvetica,sans-Serif" font-size="10.00">TabletKeyboard.h</text>
</a>
</g>
<!-- Node1&#45;&gt;Node5 -->
<g id="edge8" class="edge"><title>Node1&#45;&gt;Node5</title>
<path fill="none" stroke="midnightblue" d="M215.138,-112.206C237.243,-102.031 266.08,-88.7567 285.926,-79.6212"/>
<polygon fill="midnightblue" stroke="midnightblue" points="213.438,-109.136 205.818,-116.497 216.365,-115.494 213.438,-109.136"/>
</g>
<!-- Node3 -->
<g id="node5" class="node"><title>Node3</title>
<a xlink:href="PhoneKeyboard_8cpp.htm" target="_top" xlink:title="PhoneKeyboard.cpp">
<polygon fill="white" stroke="black" points="0,-0.5 0,-21.5 112,-21.5 112,-0.5 0,-0.5"/>
<text text-anchor="middle" x="56" y="-8.5" font-family="Helvetica,sans-Serif" font-size="10.00">PhoneKeyboard.cpp</text>
</a>
</g>
<!-- Node2&#45;&gt;Node3 -->
<g id="edge4" class="edge"><title>Node2&#45;&gt;Node3</title>
<path fill="none" stroke="midnightblue" d="M56,-48.1906C56,-39.1684 56,-28.9941 56,-21.5707"/>
<polygon fill="midnightblue" stroke="midnightblue" points="52.5001,-48.3619 56,-58.3619 59.5001,-48.3619 52.5001,-48.3619"/>
</g>
<!-- Node6 -->
<g id="node11" class="node"><title>Node6</title>
<a xlink:href="TabletKeyboard_8cpp.htm" target="_top" xlink:title="TabletKeyboard.cpp">
<polygon fill="white" stroke="black" points="254,-0.5 254,-21.5 364,-21.5 364,-0.5 254,-0.5"/>
<text text-anchor="middle" x="309" y="-8.5" font-family="Helvetica,sans-Serif" font-size="10.00">TabletKeyboard.cpp</text>
</a>
</g>
<!-- Node5&#45;&gt;Node6 -->
<g id="edge10" class="edge"><title>Node5&#45;&gt;Node6</title>
<path fill="none" stroke="midnightblue" d="M309,-48.1906C309,-39.1684 309,-28.9941 309,-21.5707"/>
<polygon fill="midnightblue" stroke="midnightblue" points="305.5,-48.3619 309,-58.3619 312.5,-48.3619 305.5,-48.3619"/>
</g>
</g>
</svg>
