<?xml version="1.0" encoding="UTF-8" standalone="no"?>
<!DOCTYPE svg PUBLIC "-//W3C//DTD SVG 1.1//EN"
 "http://www.w3.org/Graphics/SVG/1.1/DTD/svg11.dtd">
<!-- Generated by graphviz version 2.26.3 (20100126.1600)
 -->
<!-- Title: G Pages: 1 -->
<svg width="1966pt" height="610pt"
 viewBox="0.00 0.00 1966.00 610.00" xmlns="http://www.w3.org/2000/svg" xmlns:xlink="http://www.w3.org/1999/xlink">
<g id="graph1" class="graph" transform="scale(1 1) rotate(0) translate(4 606)">
<title>G</title>
<polygon fill="white" stroke="white" points="-4,5 -4,-606 1963,-606 1963,5 -4,5"/>
<!-- Node1 -->
<g id="node1" class="node"><title>Node1</title>
<polygon fill="#bfbfbf" stroke="black" points="962,-580.5 962,-601.5 1034,-601.5 1034,-580.5 962,-580.5"/>
<text text-anchor="middle" x="998" y="-588.5" font-family="Helvetica,sans-Serif" font-size="10.00">SignalSlot.h</text>
</g>
<!-- Node2 -->
<g id="node3" class="node"><title>Node2</title>
<a xlink:href="MemoryWatcher_8h.htm" target="_top" xlink:title="MemoryWatcher.h">
<polygon fill="white" stroke="black" points="907.5,-522.5 907.5,-543.5 1010.5,-543.5 1010.5,-522.5 907.5,-522.5"/>
<text text-anchor="middle" x="959" y="-530.5" font-family="Helvetica,sans-Serif" font-size="10.00">MemoryWatcher.h</text>
</a>
</g>
<!-- Node1&#45;&gt;Node2 -->
<g id="edge2" class="edge"><title>Node1&#45;&gt;Node2</title>
<path fill="none" stroke="midnightblue" d="M985.197,-571.959C978.851,-562.522 971.429,-551.484 966.108,-543.571"/>
<polygon fill="midnightblue" stroke="midnightblue" points="982.362,-574.016 990.847,-580.362 988.171,-570.11 982.362,-574.016"/>
</g>
<!-- Node4 -->
<g id="node7" class="node"><title>Node4</title>
<a xlink:href="WebAppManager_8h.htm" target="_top" xlink:title="WebAppManager.h">
<polygon fill="white" stroke="black" points="945.5,-464.5 945.5,-485.5 1052.5,-485.5 1052.5,-464.5 945.5,-464.5"/>
<text text-anchor="middle" x="999" y="-472.5" font-family="Helvetica,sans-Serif" font-size="10.00">WebAppManager.h</text>
</a>
</g>
<!-- Node1&#45;&gt;Node4 -->
<g id="edge150" class="edge"><title>Node1&#45;&gt;Node4</title>
<path fill="none" stroke="midnightblue" d="M1009.07,-571.191C1013.04,-563.032 1017.01,-553.321 1019,-544 1023.47,-523.019 1012.91,-499.084 1005.49,-485.635"/>
<polygon fill="midnightblue" stroke="midnightblue" points="1005.88,-569.754 1004.38,-580.242 1012.09,-572.975 1005.88,-569.754"/>
</g>
<!-- Node3 -->
<g id="node5" class="node"><title>Node3</title>
<a xlink:href="MemoryWatcher_8cpp.htm" target="_top" xlink:title="MemoryWatcher.cpp">
<polygon fill="white" stroke="black" points="0,-406.5 0,-427.5 114,-427.5 114,-406.5 0,-406.5"/>
<text text-anchor="middle" x="57" y="-414.5" font-family="Helvetica,sans-Serif" font-size="10.00">MemoryWatcher.cpp</text>
</a>
</g>
<!-- Node2&#45;&gt;Node3 -->
<g id="edge4" class="edge"><title>Node2&#45;&gt;Node3</title>
<path fill="none" stroke="midnightblue" d="M897.429,-525.819C759.503,-509.601 415.293,-468.397 128,-428 123.553,-427.375 118.953,-426.708 114.331,-426.023"/>
<polygon fill="midnightblue" stroke="midnightblue" points="897.052,-529.298 907.392,-526.989 897.869,-522.346 897.052,-529.298"/>
</g>
<!-- Node2&#45;&gt;Node4 -->
<g id="edge6" class="edge"><title>Node2&#45;&gt;Node4</title>
<path fill="none" stroke="midnightblue" d="M972.132,-513.959C978.64,-504.522 986.253,-493.484 991.71,-485.571"/>
<polygon fill="midnightblue" stroke="midnightblue" points="969.133,-512.143 966.337,-522.362 974.895,-516.117 969.133,-512.143"/>
</g>
<!-- Node36 -->
<g id="node87" class="node"><title>Node36</title>
<a xlink:href="WebAppManager_8cpp.htm" target="_top" xlink:title="WebAppManager.cpp">
<polygon fill="white" stroke="black" points="1697.5,-232.5 1697.5,-253.5 1816.5,-253.5 1816.5,-232.5 1697.5,-232.5"/>
<text text-anchor="middle" x="1757" y="-240.5" font-family="Helvetica,sans-Serif" font-size="10.00">WebAppManager.cpp</text>
</a>
</g>
<!-- Node2&#45;&gt;Node36 -->
<g id="edge148" class="edge"><title>Node2&#45;&gt;Node36</title>
<path fill="none" stroke="midnightblue" d="M1020.8,-531.038C1215.91,-524.031 1806,-496.285 1806,-417 1806,-417 1806,-417 1806,-359 1806,-317.244 1778.72,-273.224 1764.87,-253.562"/>
<polygon fill="midnightblue" stroke="midnightblue" points="1020.58,-527.543 1010.71,-531.394 1020.83,-534.539 1020.58,-527.543"/>
</g>
<!-- Node4&#45;&gt;Node3 -->
<g id="edge28" class="edge"><title>Node4&#45;&gt;Node3</title>
<path fill="none" stroke="midnightblue" d="M934.904,-473.73C790.508,-470.39 428.865,-459.345 128,-428 123.534,-427.535 118.92,-426.983 114.287,-426.378"/>
<polygon fill="midnightblue" stroke="midnightblue" points="935.255,-477.239 945.332,-473.966 935.414,-470.24 935.255,-477.239"/>
</g>
<!-- Node5 -->
<g id="node9" class="node"><title>Node5</title>
<a xlink:href="JsSysObject_8cpp.htm" target="_top" xlink:title="JsSysObject.cpp">
<polygon fill="white" stroke="black" points="786,-232.5 786,-253.5 880,-253.5 880,-232.5 786,-232.5"/>
<text text-anchor="middle" x="833" y="-240.5" font-family="Helvetica,sans-Serif" font-size="10.00">JsSysObject.cpp</text>
</a>
</g>
<!-- Node4&#45;&gt;Node5 -->
<g id="edge8" class="edge"><title>Node4&#45;&gt;Node5</title>
<path fill="none" stroke="midnightblue" d="M1032.16,-459.449C1054.2,-446.763 1077.19,-427.476 1066,-406 1022.9,-323.247 916.441,-273.84 863.668,-253.646"/>
<polygon fill="midnightblue" stroke="midnightblue" points="1030.33,-456.463 1023.2,-464.305 1033.66,-462.618 1030.33,-456.463"/>
</g>
<!-- Node6 -->
<g id="node11" class="node"><title>Node6</title>
<a xlink:href="CardWebApp_8cpp.htm" target="_top" xlink:title="CardWebApp.cpp">
<polygon fill="white" stroke="black" points="1651.5,-174.5 1651.5,-195.5 1750.5,-195.5 1750.5,-174.5 1651.5,-174.5"/>
<text text-anchor="middle" x="1701" y="-182.5" font-family="Helvetica,sans-Serif" font-size="10.00">CardWebApp.cpp</text>
</a>
</g>
<!-- Node4&#45;&gt;Node6 -->
<g id="edge10" class="edge"><title>Node4&#45;&gt;Node6</title>
<path fill="none" stroke="midnightblue" d="M1062.6,-472.584C1185.32,-467.408 1450.41,-453.589 1538,-428 1681.18,-386.169 1754.27,-385.331 1825,-254 1829.64,-245.391 1830.56,-240.046 1825,-232 1815.32,-217.98 1775.39,-204.462 1743.42,-195.551"/>
<polygon fill="midnightblue" stroke="midnightblue" points="1062.44,-469.088 1052.59,-473 1062.73,-476.082 1062.44,-469.088"/>
</g>
<!-- Node7 -->
<g id="node13" class="node"><title>Node7</title>
<a xlink:href="DockWebApp_8cpp.htm" target="_top" xlink:title="DockWebApp.cpp">
<polygon fill="white" stroke="black" points="884,-174.5 884,-195.5 984,-195.5 984,-174.5 884,-174.5"/>
<text text-anchor="middle" x="934" y="-182.5" font-family="Helvetica,sans-Serif" font-size="10.00">DockWebApp.cpp</text>
</a>
</g>
<!-- Node4&#45;&gt;Node7 -->
<g id="edge12" class="edge"><title>Node4&#45;&gt;Node7</title>
<path fill="none" stroke="midnightblue" d="M1046.14,-461.517C1102.84,-444.335 1200,-411.786 1277,-370 1296.14,-359.612 1425.16,-273.43 1435,-254 1439.42,-245.277 1441.63,-239.189 1435,-232 1401.6,-195.772 1041.84,-202.524 993,-196 990.108,-195.614 987.143,-195.18 984.156,-194.715"/>
<polygon fill="midnightblue" stroke="midnightblue" points="1044.95,-458.219 1036.38,-464.444 1046.96,-464.924 1044.95,-458.219"/>
</g>
<!-- Node8 -->
<g id="node15" class="node"><title>Node8</title>
<a xlink:href="AlertWebApp_8cpp.htm" target="_top" xlink:title="AlertWebApp.cpp">
<polygon fill="white" stroke="black" points="468,-232.5 468,-253.5 566,-253.5 566,-232.5 468,-232.5"/>
<text text-anchor="middle" x="517" y="-240.5" font-family="Helvetica,sans-Serif" font-size="10.00">AlertWebApp.cpp</text>
</a>
</g>
<!-- Node4&#45;&gt;Node8 -->
<g id="edge14" class="edge"><title>Node4&#45;&gt;Node8</title>
<path fill="none" stroke="midnightblue" d="M935.08,-472.058C823.695,-466.324 603.4,-452.065 578,-428 532.862,-385.235 580.498,-346.711 555,-290 548.718,-276.027 537.241,-262.705 528.539,-253.836"/>
<polygon fill="midnightblue" stroke="midnightblue" points="935.02,-475.559 945.184,-472.57 935.374,-468.568 935.02,-475.559"/>
</g>
<!-- Node9 -->
<g id="node17" class="node"><title>Node9</title>
<a xlink:href="DashboardWebApp_8cpp.htm" target="_top" xlink:title="DashboardWebApp.cpp">
<polygon fill="white" stroke="black" points="246,-232.5 246,-253.5 374,-253.5 374,-232.5 246,-232.5"/>
<text text-anchor="middle" x="310" y="-240.5" font-family="Helvetica,sans-Serif" font-size="10.00">DashboardWebApp.cpp</text>
</a>
</g>
<!-- Node4&#45;&gt;Node9 -->
<g id="edge16" class="edge"><title>Node4&#45;&gt;Node9</title>
<path fill="none" stroke="midnightblue" d="M935.073,-471.985C830.182,-466.404 626.453,-452.717 559,-428 451.293,-388.533 350.44,-286.67 319.599,-253.565"/>
<polygon fill="midnightblue" stroke="midnightblue" points="935.045,-475.489 945.214,-472.516 935.411,-468.498 935.045,-475.489"/>
</g>
<!-- Node10 -->
<g id="node19" class="node"><title>Node10</title>
<a xlink:href="WebAppFactoryLuna_8cpp.htm" target="_top" xlink:title="WebAppFactoryLuna.cpp">
<polygon fill="white" stroke="black" points="532,-174.5 532,-195.5 666,-195.5 666,-174.5 532,-174.5"/>
<text text-anchor="middle" x="599" y="-182.5" font-family="Helvetica,sans-Serif" font-size="10.00">WebAppFactoryLuna.cpp</text>
</a>
</g>
<!-- Node4&#45;&gt;Node10 -->
<g id="edge18" class="edge"><title>Node4&#45;&gt;Node10</title>
<path fill="none" stroke="midnightblue" d="M935.116,-472.211C748.616,-463.227 218,-431.312 218,-359 218,-359 218,-359 218,-301 218,-269.192 212.995,-252.868 237,-232 258.792,-213.056 433.025,-197.264 531.605,-189.738"/>
<polygon fill="midnightblue" stroke="midnightblue" points="935.164,-475.718 945.319,-472.696 935.496,-468.725 935.164,-475.718"/>
</g>
<!-- Node11 -->
<g id="node21" class="node"><title>Node11</title>
<a xlink:href="Main_8cpp.htm" target="_top" xlink:title="Main.cpp">
<polygon fill="white" stroke="black" points="586.5,-406.5 586.5,-427.5 645.5,-427.5 645.5,-406.5 586.5,-406.5"/>
<text text-anchor="middle" x="616" y="-414.5" font-family="Helvetica,sans-Serif" font-size="10.00">Main.cpp</text>
</a>
</g>
<!-- Node4&#45;&gt;Node11 -->
<g id="edge20" class="edge"><title>Node4&#45;&gt;Node11</title>
<path fill="none" stroke="midnightblue" d="M935.183,-468.36C866.587,-460.715 754.523,-446.758 659,-428 654.614,-427.139 650.009,-426.103 645.508,-425.016"/>
<polygon fill="midnightblue" stroke="midnightblue" points="935.071,-471.869 945.395,-469.487 935.839,-464.911 935.071,-471.869"/>
</g>
<!-- Node12 -->
<g id="node23" class="node"><title>Node12</title>
<a xlink:href="WebAppFactoryMinimal_8cpp.htm" target="_top" xlink:title="WebAppFactoryMinimal.cpp">
<polygon fill="white" stroke="black" points="583.5,-232.5 583.5,-253.5 730.5,-253.5 730.5,-232.5 583.5,-232.5"/>
<text text-anchor="middle" x="657" y="-240.5" font-family="Helvetica,sans-Serif" font-size="10.00">WebAppFactoryMinimal.cpp</text>
</a>
</g>
<!-- Node4&#45;&gt;Node12 -->
<g id="edge22" class="edge"><title>Node4&#45;&gt;Node12</title>
<path fill="none" stroke="midnightblue" d="M935.35,-469.179C850.58,-460.837 709.239,-444.645 692,-428 642.382,-380.092 650.78,-285.48 655.265,-253.698"/>
<polygon fill="midnightblue" stroke="midnightblue" points="935.103,-472.671 945.395,-470.157 935.782,-465.704 935.103,-472.671"/>
</g>
<!-- Node13 -->
<g id="node25" class="node"><title>Node13</title>
<a xlink:href="IpcServer_8cpp.htm" target="_top" xlink:title="IpcServer.cpp">
<polygon fill="white" stroke="black" points="701,-406.5 701,-427.5 783,-427.5 783,-406.5 701,-406.5"/>
<text text-anchor="middle" x="742" y="-414.5" font-family="Helvetica,sans-Serif" font-size="10.00">IpcServer.cpp</text>
</a>
</g>
<!-- Node4&#45;&gt;Node13 -->
<g id="edge24" class="edge"><title>Node4&#45;&gt;Node13</title>
<path fill="none" stroke="midnightblue" d="M942.5,-462.249C894.333,-451.379 826.237,-436.011 783.107,-426.277"/>
<polygon fill="midnightblue" stroke="midnightblue" points="941.934,-465.709 952.459,-464.497 943.475,-458.881 941.934,-465.709"/>
</g>
<!-- Node14 -->
<g id="node27" class="node"><title>Node14</title>
<a xlink:href="WebAppMgrProxy_8cpp.htm" target="_top" xlink:title="WebAppMgrProxy.cpp">
<polygon fill="white" stroke="black" points="801,-406.5 801,-427.5 923,-427.5 923,-406.5 801,-406.5"/>
<text text-anchor="middle" x="862" y="-414.5" font-family="Helvetica,sans-Serif" font-size="10.00">WebAppMgrProxy.cpp</text>
</a>
</g>
<!-- Node4&#45;&gt;Node14 -->
<g id="edge26" class="edge"><title>Node4&#45;&gt;Node14</title>
<path fill="none" stroke="midnightblue" d="M964.701,-460.479C940.585,-450.269 908.86,-436.839 887.088,-427.621"/>
<polygon fill="midnightblue" stroke="midnightblue" points="963.617,-463.821 974.19,-464.497 966.346,-457.375 963.617,-463.821"/>
</g>
<!-- Node15 -->
<g id="node30" class="node"><title>Node15</title>
<a xlink:href="ProcessManager_8cpp.htm" target="_top" xlink:title="ProcessManager.cpp">
<polygon fill="white" stroke="black" points="940.5,-406.5 940.5,-427.5 1057.5,-427.5 1057.5,-406.5 940.5,-406.5"/>
<text text-anchor="middle" x="999" y="-414.5" font-family="Helvetica,sans-Serif" font-size="10.00">ProcessManager.cpp</text>
</a>
</g>
<!-- Node4&#45;&gt;Node15 -->
<g id="edge30" class="edge"><title>Node4&#45;&gt;Node15</title>
<path fill="none" stroke="midnightblue" d="M999,-454.191C999,-445.168 999,-434.994 999,-427.571"/>
<polygon fill="midnightblue" stroke="midnightblue" points="995.5,-454.362 999,-464.362 1002.5,-454.362 995.5,-454.362"/>
</g>
<!-- Node16 -->
<g id="node32" class="node"><title>Node16</title>
<a xlink:href="RemoteWindowDataOpenGL_8cpp.htm" target="_top" xlink:title="RemoteWindowDataOpenGL.cpp">
<polygon fill="white" stroke="black" points="1633.5,-116.5 1633.5,-137.5 1806.5,-137.5 1806.5,-116.5 1633.5,-116.5"/>
<text text-anchor="middle" x="1720" y="-124.5" font-family="Helvetica,sans-Serif" font-size="10.00">RemoteWindowDataOpenGL.cpp</text>
</a>
</g>
<!-- Node4&#45;&gt;Node16 -->
<g id="edge32" class="edge"><title>Node4&#45;&gt;Node16</title>
<path fill="none" stroke="midnightblue" d="M1062.74,-473.71C1220.01,-470.097 1623.21,-458.102 1754,-428 1831.86,-410.08 1920,-438.897 1920,-359 1920,-359 1920,-359 1920,-243 1920,-211.192 1923.66,-196.326 1901,-174 1884.93,-158.162 1832.95,-145.667 1788.79,-137.554"/>
<polygon fill="midnightblue" stroke="midnightblue" points="1062.66,-470.211 1052.75,-473.936 1062.82,-477.209 1062.66,-470.211"/>
</g>
<!-- Node17 -->
<g id="node34" class="node"><title>Node17</title>
<a xlink:href="RemoteWindowDataSoftware_8cpp.htm" target="_top" xlink:title="RemoteWindowDataSoftware.cpp">
<polygon fill="white" stroke="black" points="398.5,-116.5 398.5,-137.5 573.5,-137.5 573.5,-116.5 398.5,-116.5"/>
<text text-anchor="middle" x="486" y="-124.5" font-family="Helvetica,sans-Serif" font-size="10.00">RemoteWindowDataSoftware.cpp</text>
</a>
</g>
<!-- Node4&#45;&gt;Node17 -->
<g id="edge34" class="edge"><title>Node4&#45;&gt;Node17</title>
<path fill="none" stroke="midnightblue" d="M935.129,-474.006C787.659,-471.167 427.202,-460.974 311,-428 247.695,-410.036 180,-424.805 180,-359 180,-359 180,-359 180,-243 180,-191.299 334.662,-154.48 424.076,-137.514"/>
<polygon fill="midnightblue" stroke="midnightblue" points="935.308,-477.51 945.372,-474.198 935.439,-470.511 935.308,-477.51"/>
</g>
<!-- Node18 -->
<g id="node36" class="node"><title>Node18</title>
<a xlink:href="RemoteWindowDataSoftwareOpenGLComposited_8cpp.htm" target="_top" xlink:title="RemoteWindowDataSoftwareOpenGLComposited.cpp">
<polygon fill="white" stroke="black" points="948,-58.5 948,-79.5 1220,-79.5 1220,-58.5 948,-58.5"/>
<text text-anchor="middle" x="1084" y="-66.5" font-family="Helvetica,sans-Serif" font-size="10.00">RemoteWindowDataSoftwareOpenGLComposited.cpp</text>
</a>
</g>
<!-- Node4&#45;&gt;Node18 -->
<g id="edge36" class="edge"><title>Node4&#45;&gt;Node18</title>
<path fill="none" stroke="midnightblue" d="M1062.78,-473.143C1246,-467.571 1765.44,-450.006 1839,-428 1897.57,-410.478 1958,-420.137 1958,-359 1958,-359 1958,-359 1958,-185 1958,-114.433 1883.25,-133.929 1815,-116 1706.45,-87.486 1400.1,-75.9489 1220.3,-71.5331"/>
<polygon fill="midnightblue" stroke="midnightblue" points="1062.65,-469.646 1052.76,-473.447 1062.86,-476.643 1062.65,-469.646"/>
</g>
<!-- Node19 -->
<g id="node38" class="node"><title>Node19</title>
<a xlink:href="RemoteWindowDataSoftwareTextureShared_8cpp.htm" target="_top" xlink:title="RemoteWindowDataSoftwareTextureShared.cpp">
<polygon fill="white" stroke="black" points="223.5,-0.5 223.5,-21.5 468.5,-21.5 468.5,-0.5 223.5,-0.5"/>
<text text-anchor="middle" x="346" y="-8.5" font-family="Helvetica,sans-Serif" font-size="10.00">RemoteWindowDataSoftwareTextureShared.cpp</text>
</a>
</g>
<!-- Node4&#45;&gt;Node19 -->
<g id="edge38" class="edge"><title>Node4&#45;&gt;Node19</title>
<path fill="none" stroke="midnightblue" d="M935.246,-474.003C758.178,-470.848 269.11,-459.365 204,-428 166.857,-410.107 142,-400.228 142,-359 142,-359 142,-359 142,-127 142,-64.0535 216.303,-34.8346 275.223,-21.5601"/>
<polygon fill="midnightblue" stroke="midnightblue" points="935.391,-477.506 945.451,-474.182 935.514,-470.507 935.391,-477.506"/>
</g>
<!-- Node20 -->
<g id="node40" class="node"><title>Node20</title>
<a xlink:href="WebAppBase_8h.htm" target="_top" xlink:title="WebAppBase.h">
<polygon fill="white" stroke="black" points="1328.5,-406.5 1328.5,-427.5 1417.5,-427.5 1417.5,-406.5 1328.5,-406.5"/>
<text text-anchor="middle" x="1373" y="-414.5" font-family="Helvetica,sans-Serif" font-size="10.00">WebAppBase.h</text>
</a>
</g>
<!-- Node4&#45;&gt;Node20 -->
<g id="edge40" class="edge"><title>Node4&#45;&gt;Node20</title>
<path fill="none" stroke="midnightblue" d="M1062.88,-465.782C1125.8,-456.6 1224.61,-441.905 1310,-428 1315.92,-427.036 1322.14,-425.99 1328.28,-424.938"/>
<polygon fill="midnightblue" stroke="midnightblue" points="1062.11,-462.358 1052.72,-467.263 1063.12,-469.285 1062.11,-462.358"/>
</g>
<!-- Node21 -->
<g id="node44" class="node"><title>Node21</title>
<a xlink:href="WebAppBase_8cpp.htm" target="_top" xlink:title="WebAppBase.cpp">
<polygon fill="white" stroke="black" points="1486,-290.5 1486,-311.5 1586,-311.5 1586,-290.5 1486,-290.5"/>
<text text-anchor="middle" x="1536" y="-298.5" font-family="Helvetica,sans-Serif" font-size="10.00">WebAppBase.cpp</text>
</a>
</g>
<!-- Node4&#45;&gt;Node21 -->
<g id="edge140" class="edge"><title>Node4&#45;&gt;Node21</title>
<path fill="none" stroke="midnightblue" d="M1062.79,-472.408C1165.38,-467.502 1362.01,-454.852 1426,-428 1463.57,-412.234 1470.75,-401.161 1497,-370 1512.6,-351.479 1525.19,-325.811 1531.53,-311.577"/>
<polygon fill="midnightblue" stroke="midnightblue" points="1062.39,-468.923 1052.57,-472.886 1062.72,-475.915 1062.39,-468.923"/>
</g>
<!-- Node35 -->
<g id="node85" class="node"><title>Node35</title>
<a xlink:href="WindowedWebApp_8cpp.htm" target="_top" xlink:title="WindowedWebApp.cpp">
<polygon fill="white" stroke="black" points="1767.5,-174.5 1767.5,-195.5 1892.5,-195.5 1892.5,-174.5 1767.5,-174.5"/>
<text text-anchor="middle" x="1830" y="-182.5" font-family="Helvetica,sans-Serif" font-size="10.00">WindowedWebApp.cpp</text>
</a>
</g>
<!-- Node4&#45;&gt;Node35 -->
<g id="edge146" class="edge"><title>Node4&#45;&gt;Node35</title>
<path fill="none" stroke="midnightblue" d="M1062.77,-473.329C1265.51,-467.18 1882,-441.683 1882,-359 1882,-359 1882,-359 1882,-301 1882,-259.067 1853.36,-215.481 1838.59,-195.794"/>
<polygon fill="midnightblue" stroke="midnightblue" points="1062.47,-469.836 1052.58,-473.632 1062.68,-476.833 1062.47,-469.836"/>
</g>
<!-- Node4&#45;&gt;Node36 -->
<g id="edge142" class="edge"><title>Node4&#45;&gt;Node36</title>
<path fill="none" stroke="midnightblue" d="M1062.93,-472.317C1178.01,-466.929 1415.37,-453.104 1494,-428 1592.26,-396.629 1614.87,-376.944 1695,-312 1717.02,-294.153 1738.07,-268.232 1749.07,-253.775"/>
<polygon fill="midnightblue" stroke="midnightblue" points="1062.68,-468.825 1052.85,-472.782 1063,-475.818 1062.68,-468.825"/>
</g>
<!-- Node40 -->
<g id="node105" class="node"><title>Node40</title>
<a xlink:href="WebPage_8cpp.htm" target="_top" xlink:title="WebPage.cpp">
<polygon fill="white" stroke="black" points="1604,-290.5 1604,-311.5 1686,-311.5 1686,-290.5 1604,-290.5"/>
<text text-anchor="middle" x="1645" y="-298.5" font-family="Helvetica,sans-Serif" font-size="10.00">WebPage.cpp</text>
</a>
</g>
<!-- Node4&#45;&gt;Node40 -->
<g id="edge144" class="edge"><title>Node4&#45;&gt;Node40</title>
<path fill="none" stroke="midnightblue" d="M1062.97,-472.352C1171.75,-467.204 1387.88,-453.999 1459,-428 1533.55,-400.749 1606.83,-336.859 1633.97,-311.572"/>
<polygon fill="midnightblue" stroke="midnightblue" points="1062.62,-468.864 1052.79,-472.825 1062.94,-475.857 1062.62,-468.864"/>
</g>
<!-- Node20&#45;&gt;Node10 -->
<g id="edge42" class="edge"><title>Node20&#45;&gt;Node10</title>
<path fill="none" stroke="midnightblue" d="M1317.95,-415.155C1123.98,-408.093 480.699,-379.699 421,-312 399.75,-287.903 432.42,-247.665 451,-232 473.775,-212.798 504.464,-201.416 531.99,-194.681"/>
<polygon fill="midnightblue" stroke="midnightblue" points="1318.08,-418.662 1328.2,-415.523 1318.33,-411.666 1318.08,-418.662"/>
</g>
<!-- Node20&#45;&gt;Node12 -->
<g id="edge44" class="edge"><title>Node20&#45;&gt;Node12</title>
<path fill="none" stroke="midnightblue" d="M1317.97,-411.119C1185.41,-396.414 851.726,-356.051 749,-312 715.788,-297.758 683.55,-269.162 667.511,-253.63"/>
<polygon fill="midnightblue" stroke="midnightblue" points="1317.97,-414.64 1328.29,-412.257 1318.74,-407.682 1317.97,-414.64"/>
</g>
<!-- Node20&#45;&gt;Node21 -->
<g id="edge46" class="edge"><title>Node20&#45;&gt;Node21</title>
<path fill="none" stroke="midnightblue" d="M1412.07,-402.517C1431.11,-394.477 1453.76,-383.386 1472,-370 1495.45,-352.793 1517.23,-326.156 1528.33,-311.521"/>
<polygon fill="midnightblue" stroke="midnightblue" points="1410.7,-399.296 1402.77,-406.327 1413.35,-405.774 1410.7,-399.296"/>
</g>
<!-- Node22 -->
<g id="node46" class="node"><title>Node22</title>
<a xlink:href="WindowedWebApp_8h.htm" target="_top" xlink:title="WindowedWebApp.h">
<polygon fill="white" stroke="black" points="1154,-348.5 1154,-369.5 1268,-369.5 1268,-348.5 1154,-348.5"/>
<text text-anchor="middle" x="1211" y="-356.5" font-family="Helvetica,sans-Serif" font-size="10.00">WindowedWebApp.h</text>
</a>
</g>
<!-- Node20&#45;&gt;Node22 -->
<g id="edge48" class="edge"><title>Node20&#45;&gt;Node22</title>
<path fill="none" stroke="midnightblue" d="M1333.92,-403.009C1305.13,-392.702 1266.59,-378.903 1240.39,-369.523"/>
<polygon fill="midnightblue" stroke="midnightblue" points="1333.07,-406.421 1343.66,-406.497 1335.43,-399.831 1333.07,-406.421"/>
</g>
<!-- Node20&#45;&gt;Node36 -->
<g id="edge136" class="edge"><title>Node20&#45;&gt;Node36</title>
<path fill="none" stroke="midnightblue" d="M1401.79,-401.059C1414.42,-393.003 1428.67,-382.317 1439,-370 1464.29,-339.836 1445.59,-313.722 1477,-290 1481.4,-286.677 1616.54,-265.022 1697.44,-252.296"/>
<polygon fill="midnightblue" stroke="midnightblue" points="1399.68,-398.247 1392.97,-406.446 1403.33,-404.221 1399.68,-398.247"/>
</g>
<!-- Node20&#45;&gt;Node40 -->
<g id="edge138" class="edge"><title>Node20&#45;&gt;Node40</title>
<path fill="none" stroke="midnightblue" d="M1412.23,-402.973C1436.77,-393.991 1468.94,-381.839 1497,-370 1542.71,-350.713 1595.09,-325.551 1623.65,-311.559"/>
<polygon fill="midnightblue" stroke="midnightblue" points="1410.76,-399.786 1402.56,-406.495 1413.15,-406.364 1410.76,-399.786"/>
</g>
<!-- Node41 -->
<g id="node108" class="node"><title>Node41</title>
<a xlink:href="WebAppCache_8cpp.htm" target="_top" xlink:title="WebAppCache.cpp">
<polygon fill="white" stroke="black" points="1323.5,-348.5 1323.5,-369.5 1430.5,-369.5 1430.5,-348.5 1323.5,-348.5"/>
<text text-anchor="middle" x="1377" y="-356.5" font-family="Helvetica,sans-Serif" font-size="10.00">WebAppCache.cpp</text>
</a>
</g>
<!-- Node20&#45;&gt;Node41 -->
<g id="edge134" class="edge"><title>Node20&#45;&gt;Node41</title>
<path fill="none" stroke="midnightblue" d="M1374.44,-396.191C1375.06,-387.168 1375.76,-376.994 1376.27,-369.571"/>
<polygon fill="midnightblue" stroke="midnightblue" points="1370.93,-396.145 1373.73,-406.362 1377.91,-396.626 1370.93,-396.145"/>
</g>
<!-- Node22&#45;&gt;Node12 -->
<g id="edge122" class="edge"><title>Node22&#45;&gt;Node12</title>
<path fill="none" stroke="midnightblue" d="M1143.81,-354.418C1042.62,-347.018 856.124,-331.297 792,-312 771.443,-305.814 768.114,-299.772 749,-290 724.566,-277.508 696.477,-263.16 677.829,-253.636"/>
<polygon fill="midnightblue" stroke="midnightblue" points="1143.7,-357.919 1153.92,-355.151 1144.2,-350.938 1143.7,-357.919"/>
</g>
<!-- Node22&#45;&gt;Node21 -->
<g id="edge124" class="edge"><title>Node22&#45;&gt;Node21</title>
<path fill="none" stroke="midnightblue" d="M1278.4,-346.972C1340.17,-335.947 1430.24,-319.873 1485.88,-309.945"/>
<polygon fill="midnightblue" stroke="midnightblue" points="1277.58,-343.562 1268.36,-348.764 1278.81,-350.453 1277.58,-343.562"/>
</g>
<!-- Node23 -->
<g id="node48" class="node"><title>Node23</title>
<a xlink:href="CardWebApp_8h.htm" target="_top" xlink:title="CardWebApp.h">
<polygon fill="white" stroke="black" points="1216,-290.5 1216,-311.5 1304,-311.5 1304,-290.5 1216,-290.5"/>
<text text-anchor="middle" x="1260" y="-298.5" font-family="Helvetica,sans-Serif" font-size="10.00">CardWebApp.h</text>
</a>
</g>
<!-- Node22&#45;&gt;Node23 -->
<g id="edge50" class="edge"><title>Node22&#45;&gt;Node23</title>
<path fill="none" stroke="midnightblue" d="M1226.59,-340.541C1234.67,-330.979 1244.25,-319.647 1251.07,-311.571"/>
<polygon fill="midnightblue" stroke="midnightblue" points="1223.77,-338.464 1219.99,-348.362 1229.11,-342.982 1223.77,-338.464"/>
</g>
<!-- Node25 -->
<g id="node54" class="node"><title>Node25</title>
<a xlink:href="DockWebApp_8h.htm" target="_top" xlink:title="DockWebApp.h">
<polygon fill="white" stroke="black" points="935.5,-232.5 935.5,-253.5 1024.5,-253.5 1024.5,-232.5 935.5,-232.5"/>
<text text-anchor="middle" x="980" y="-240.5" font-family="Helvetica,sans-Serif" font-size="10.00">DockWebApp.h</text>
</a>
</g>
<!-- Node22&#45;&gt;Node25 -->
<g id="edge104" class="edge"><title>Node22&#45;&gt;Node25</title>
<path fill="none" stroke="midnightblue" d="M1143.69,-351.666C1089.7,-344.442 1019.63,-331.614 999,-312 982.791,-296.59 979.983,-268.738 979.744,-253.559"/>
<polygon fill="midnightblue" stroke="midnightblue" points="1143.55,-355.176 1153.91,-352.993 1144.45,-348.235 1143.55,-355.176"/>
</g>
<!-- Node22&#45;&gt;Node35 -->
<g id="edge132" class="edge"><title>Node22&#45;&gt;Node35</title>
<path fill="none" stroke="midnightblue" d="M1254.44,-345.54C1303.18,-330.722 1384.78,-306.78 1456,-290 1539.23,-270.391 1563.99,-281.38 1645,-254 1665.71,-246.999 1668.8,-240.367 1689,-232 1723.92,-217.534 1765.05,-204.233 1793.85,-195.501"/>
<polygon fill="midnightblue" stroke="midnightblue" points="1253.39,-342.201 1244.84,-348.467 1255.43,-348.896 1253.39,-342.201"/>
</g>
<!-- Node22&#45;&gt;Node36 -->
<g id="edge128" class="edge"><title>Node22&#45;&gt;Node36</title>
<path fill="none" stroke="midnightblue" d="M1251.16,-345.251C1297.24,-329.911 1375.32,-305.249 1444,-290 1531.3,-270.617 1634.11,-256.883 1697.42,-249.45"/>
<polygon fill="midnightblue" stroke="midnightblue" points="1249.92,-341.976 1241.55,-348.47 1252.14,-348.613 1249.92,-341.976"/>
</g>
<!-- Node37 -->
<g id="node90" class="node"><title>Node37</title>
<a xlink:href="AlertWebApp_8h.htm" target="_top" xlink:title="AlertWebApp.h">
<polygon fill="white" stroke="black" points="801,-290.5 801,-311.5 887,-311.5 887,-290.5 801,-290.5"/>
<text text-anchor="middle" x="844" y="-298.5" font-family="Helvetica,sans-Serif" font-size="10.00">AlertWebApp.h</text>
</a>
</g>
<!-- Node22&#45;&gt;Node37 -->
<g id="edge106" class="edge"><title>Node22&#45;&gt;Node37</title>
<path fill="none" stroke="midnightblue" d="M1143.4,-348.317C1068.62,-336.499 950.369,-317.81 887.179,-307.824"/>
<polygon fill="midnightblue" stroke="midnightblue" points="1143.23,-351.834 1153.66,-349.938 1144.33,-344.919 1143.23,-351.834"/>
</g>
<!-- Node38 -->
<g id="node96" class="node"><title>Node38</title>
<a xlink:href="DashboardWebApp_8h.htm" target="_top" xlink:title="DashboardWebApp.h">
<polygon fill="white" stroke="black" points="430,-290.5 430,-311.5 546,-311.5 546,-290.5 430,-290.5"/>
<text text-anchor="middle" x="488" y="-298.5" font-family="Helvetica,sans-Serif" font-size="10.00">DashboardWebApp.h</text>
</a>
</g>
<!-- Node22&#45;&gt;Node38 -->
<g id="edge116" class="edge"><title>Node22&#45;&gt;Node38</title>
<path fill="none" stroke="midnightblue" d="M1143.74,-353.604C1002.83,-342.3 678.756,-316.303 546.161,-305.666"/>
<polygon fill="midnightblue" stroke="midnightblue" points="1143.72,-357.114 1153.97,-354.425 1144.28,-350.136 1143.72,-357.114"/>
</g>
<!-- Node39 -->
<g id="node102" class="node"><title>Node39</title>
<a xlink:href="WebAppDeferredUpdateHandler_8cpp.htm" target="_top" xlink:title="WebAppDeferredUpdateHandler.cpp">
<polygon fill="white" stroke="black" points="1008,-290.5 1008,-311.5 1198,-311.5 1198,-290.5 1008,-290.5"/>
<text text-anchor="middle" x="1103" y="-298.5" font-family="Helvetica,sans-Serif" font-size="10.00">WebAppDeferredUpdateHandler.cpp</text>
</a>
</g>
<!-- Node22&#45;&gt;Node39 -->
<g id="edge126" class="edge"><title>Node22&#45;&gt;Node39</title>
<path fill="none" stroke="midnightblue" d="M1182.43,-343.656C1163.62,-333.556 1139.48,-320.593 1122.78,-311.621"/>
<polygon fill="midnightblue" stroke="midnightblue" points="1180.98,-346.849 1191.44,-348.497 1184.29,-340.682 1180.98,-346.849"/>
</g>
<!-- Node22&#45;&gt;Node40 -->
<g id="edge130" class="edge"><title>Node22&#45;&gt;Node40</title>
<path fill="none" stroke="midnightblue" d="M1278.56,-351.513C1371.99,-341.024 1535.81,-322.109 1595,-312 1597.89,-311.506 1600.87,-310.957 1603.86,-310.375"/>
<polygon fill="midnightblue" stroke="midnightblue" points="1277.9,-348.064 1268.36,-352.656 1278.68,-355.021 1277.9,-348.064"/>
</g>
<!-- Node23&#45;&gt;Node5 -->
<g id="edge52" class="edge"><title>Node23&#45;&gt;Node5</title>
<path fill="none" stroke="midnightblue" d="M1205.65,-289.896C1067,-268.048 1029.28,-273.957 894,-254 889.529,-253.34 884.883,-252.601 880.24,-251.826"/>
<polygon fill="midnightblue" stroke="midnightblue" points="1205.38,-293.398 1215.81,-291.518 1206.49,-286.485 1205.38,-293.398"/>
</g>
<!-- Node23&#45;&gt;Node6 -->
<g id="edge56" class="edge"><title>Node23&#45;&gt;Node6</title>
<path fill="none" stroke="midnightblue" d="M1314.14,-290.922C1316.12,-290.603 1318.08,-290.294 1320,-290 1449.69,-270.162 1491.83,-304.319 1613,-254 1645.63,-240.449 1676.34,-211.291 1691.37,-195.566"/>
<polygon fill="midnightblue" stroke="midnightblue" points="1313.47,-287.487 1304.19,-292.594 1314.63,-294.39 1313.47,-287.487"/>
</g>
<!-- Node23&#45;&gt;Node10 -->
<g id="edge64" class="edge"><title>Node23&#45;&gt;Node10</title>
<path fill="none" stroke="midnightblue" d="M1205.89,-289.951C1081.31,-270.463 1042.83,-293.2 927,-254 908.515,-247.744 907.38,-238.558 889,-232 815.382,-205.732 725.98,-194.071 666.073,-188.942"/>
<polygon fill="midnightblue" stroke="midnightblue" points="1205.37,-293.413 1215.8,-291.562 1206.49,-286.504 1205.37,-293.413"/>
</g>
<!-- Node23&#45;&gt;Node12 -->
<g id="edge68" class="edge"><title>Node23&#45;&gt;Node12</title>
<path fill="none" stroke="midnightblue" d="M1205.77,-289.962C1015.49,-262.739 964.782,-270.467 777,-254 761.995,-252.684 745.938,-251.238 730.608,-249.84"/>
<polygon fill="midnightblue" stroke="midnightblue" points="1205.43,-293.449 1215.82,-291.414 1206.43,-286.521 1205.43,-293.449"/>
</g>
<!-- Node24 -->
<g id="node51" class="node"><title>Node24</title>
<a xlink:href="JsSysObjectAnimationRunner_8cpp.htm" target="_top" xlink:title="JsSysObjectAnimationRunner.cpp">
<polygon fill="white" stroke="black" points="1251.5,-232.5 1251.5,-253.5 1426.5,-253.5 1426.5,-232.5 1251.5,-232.5"/>
<text text-anchor="middle" x="1339" y="-240.5" font-family="Helvetica,sans-Serif" font-size="10.00">JsSysObjectAnimationRunner.cpp</text>
</a>
</g>
<!-- Node23&#45;&gt;Node24 -->
<g id="edge54" class="edge"><title>Node23&#45;&gt;Node24</title>
<path fill="none" stroke="midnightblue" d="M1282.8,-284.259C1296.28,-274.364 1312.94,-262.136 1324.6,-253.571"/>
<polygon fill="midnightblue" stroke="midnightblue" points="1280.48,-281.623 1274.49,-290.362 1284.62,-287.265 1280.48,-281.623"/>
</g>
<!-- Node23&#45;&gt;Node25 -->
<g id="edge58" class="edge"><title>Node23&#45;&gt;Node25</title>
<path fill="none" stroke="midnightblue" d="M1205.49,-289.688C1127.99,-273.631 1107.16,-269.367 1033,-254 1030.24,-253.428 1027.4,-252.839 1024.53,-252.245"/>
<polygon fill="midnightblue" stroke="midnightblue" points="1205.25,-293.213 1215.75,-291.815 1206.67,-286.359 1205.25,-293.213"/>
</g>
<!-- Node26 -->
<g id="node59" class="node"><title>Node26</title>
<a xlink:href="WindowContentTransitionRunner_8cpp.htm" target="_top" xlink:title="WindowContentTransitionRunner.cpp">
<polygon fill="white" stroke="black" points="1041.5,-232.5 1041.5,-253.5 1234.5,-253.5 1234.5,-232.5 1041.5,-232.5"/>
<text text-anchor="middle" x="1138" y="-240.5" font-family="Helvetica,sans-Serif" font-size="10.00">WindowContentTransitionRunner.cpp</text>
</a>
</g>
<!-- Node23&#45;&gt;Node26 -->
<g id="edge66" class="edge"><title>Node23&#45;&gt;Node26</title>
<path fill="none" stroke="midnightblue" d="M1228.59,-286.069C1207.23,-275.912 1179.47,-262.716 1160.34,-253.621"/>
<polygon fill="midnightblue" stroke="midnightblue" points="1227.37,-289.364 1237.91,-290.497 1230.38,-283.042 1227.37,-289.364"/>
</g>
<!-- Node27 -->
<g id="node62" class="node"><title>Node27</title>
<a xlink:href="RemoteWindowData_8h.htm" target="_top" xlink:title="RemoteWindowData.h">
<polygon fill="white" stroke="black" points="1482,-232.5 1482,-253.5 1604,-253.5 1604,-232.5 1482,-232.5"/>
<text text-anchor="middle" x="1543" y="-240.5" font-family="Helvetica,sans-Serif" font-size="10.00">RemoteWindowData.h</text>
</a>
</g>
<!-- Node23&#45;&gt;Node27 -->
<g id="edge70" class="edge"><title>Node23&#45;&gt;Node27</title>
<path fill="none" stroke="midnightblue" d="M1314.08,-289.916C1365.15,-279.45 1441.19,-263.865 1491.42,-253.571"/>
<polygon fill="midnightblue" stroke="midnightblue" points="1313.31,-286.501 1304.22,-291.938 1314.72,-293.358 1313.31,-286.501"/>
</g>
<!-- Node23&#45;&gt;Node36 -->
<g id="edge102" class="edge"><title>Node23&#45;&gt;Node36</title>
<path fill="none" stroke="midnightblue" d="M1314.14,-290.885C1316.12,-290.576 1318.07,-290.28 1320,-290 1356.44,-284.708 1586.31,-260.682 1697.25,-249.177"/>
<polygon fill="midnightblue" stroke="midnightblue" points="1313.48,-287.447 1304.17,-292.518 1314.61,-294.355 1313.48,-287.447"/>
</g>
<!-- Node25&#45;&gt;Node7 -->
<g id="edge60" class="edge"><title>Node25&#45;&gt;Node7</title>
<path fill="none" stroke="midnightblue" d="M965.13,-224.25C957.595,-214.75 948.724,-203.565 942.384,-195.571"/>
<polygon fill="midnightblue" stroke="midnightblue" points="962.607,-226.702 971.563,-232.362 968.091,-222.352 962.607,-226.702"/>
</g>
<!-- Node25&#45;&gt;Node10 -->
<g id="edge62" class="edge"><title>Node25&#45;&gt;Node10</title>
<path fill="none" stroke="midnightblue" d="M925.29,-232.558C924.184,-232.368 923.087,-232.182 922,-232 833.836,-217.232 731.679,-202.818 666.252,-193.929"/>
<polygon fill="midnightblue" stroke="midnightblue" points="924.93,-236.048 935.386,-234.339 926.146,-229.155 924.93,-236.048"/>
</g>
<!-- Node27&#45;&gt;Node6 -->
<g id="edge72" class="edge"><title>Node27&#45;&gt;Node6</title>
<path fill="none" stroke="midnightblue" d="M1581.11,-229.009C1609.19,-218.702 1646.78,-204.903 1672.33,-195.523"/>
<polygon fill="midnightblue" stroke="midnightblue" points="1579.79,-225.765 1571.61,-232.497 1582.21,-232.336 1579.79,-225.765"/>
</g>
<!-- Node27&#45;&gt;Node7 -->
<g id="edge74" class="edge"><title>Node27&#45;&gt;Node7</title>
<path fill="none" stroke="midnightblue" d="M1471.36,-232.382C1470.23,-232.251 1469.11,-232.124 1468,-232 1257.58,-208.624 1202.93,-223.442 993,-196 990.107,-195.622 987.141,-195.195 984.153,-194.734"/>
<polygon fill="midnightblue" stroke="midnightblue" points="1471.3,-235.901 1481.65,-233.645 1472.15,-228.953 1471.3,-235.901"/>
</g>
<!-- Node28 -->
<g id="node66" class="node"><title>Node28</title>
<a xlink:href="RemoteWindowData_8cpp.htm" target="_top" xlink:title="RemoteWindowData.cpp">
<polygon fill="white" stroke="black" points="1096.5,-116.5 1096.5,-137.5 1229.5,-137.5 1229.5,-116.5 1096.5,-116.5"/>
<text text-anchor="middle" x="1163" y="-124.5" font-family="Helvetica,sans-Serif" font-size="10.00">RemoteWindowData.cpp</text>
</a>
</g>
<!-- Node27&#45;&gt;Node28 -->
<g id="edge76" class="edge"><title>Node27&#45;&gt;Node28</title>
<path fill="none" stroke="midnightblue" d="M1471.35,-232.482C1470.22,-232.32 1469.11,-232.159 1468,-232 1354.71,-215.695 1311.05,-255.042 1213,-196 1190.06,-182.188 1174.56,-153.414 1167.45,-137.74"/>
<polygon fill="midnightblue" stroke="midnightblue" points="1471.21,-235.999 1481.61,-233.969 1472.21,-229.071 1471.21,-235.999"/>
</g>
<!-- Node29 -->
<g id="node68" class="node"><title>Node29</title>
<a xlink:href="RemoteWindowDataSoftware_8h.htm" target="_top" xlink:title="RemoteWindowDataSoftware.h">
<polygon fill="white" stroke="black" points="1002,-174.5 1002,-195.5 1166,-195.5 1166,-174.5 1002,-174.5"/>
<text text-anchor="middle" x="1084" y="-182.5" font-family="Helvetica,sans-Serif" font-size="10.00">RemoteWindowDataSoftware.h</text>
</a>
</g>
<!-- Node27&#45;&gt;Node29 -->
<g id="edge78" class="edge"><title>Node27&#45;&gt;Node29</title>
<path fill="none" stroke="midnightblue" d="M1471.35,-232.454C1470.23,-232.3 1469.11,-232.149 1468,-232 1363.99,-218.01 1243.9,-203.589 1166.1,-194.474"/>
<polygon fill="midnightblue" stroke="midnightblue" points="1471.24,-235.971 1481.62,-233.876 1472.2,-229.037 1471.24,-235.971"/>
</g>
<!-- Node32 -->
<g id="node78" class="node"><title>Node32</title>
<a xlink:href="RemoteWindowDataOpenGL_8h.htm" target="_top" xlink:title="RemoteWindowDataOpenGL.h">
<polygon fill="white" stroke="black" points="1472,-174.5 1472,-195.5 1634,-195.5 1634,-174.5 1472,-174.5"/>
<text text-anchor="middle" x="1553" y="-182.5" font-family="Helvetica,sans-Serif" font-size="10.00">RemoteWindowDataOpenGL.h</text>
</a>
</g>
<!-- Node27&#45;&gt;Node32 -->
<g id="edge92" class="edge"><title>Node27&#45;&gt;Node32</title>
<path fill="none" stroke="midnightblue" d="M1546.54,-222.488C1548.1,-213.392 1549.88,-203.076 1551.18,-195.571"/>
<polygon fill="midnightblue" stroke="midnightblue" points="1543.08,-221.913 1544.83,-232.362 1549.98,-223.102 1543.08,-221.913"/>
</g>
<!-- Node33 -->
<g id="node81" class="node"><title>Node33</title>
<a xlink:href="RemoteWindowDataOpenGLTextureShared_8h.htm" target="_top" xlink:title="RemoteWindowDataOpenGLTextureShared.h">
<polygon fill="white" stroke="black" points="1221.5,-174.5 1221.5,-195.5 1454.5,-195.5 1454.5,-174.5 1221.5,-174.5"/>
<text text-anchor="middle" x="1338" y="-182.5" font-family="Helvetica,sans-Serif" font-size="10.00">RemoteWindowDataOpenGLTextureShared.h</text>
</a>
</g>
<!-- Node27&#45;&gt;Node33 -->
<g id="edge96" class="edge"><title>Node27&#45;&gt;Node33</title>
<path fill="none" stroke="midnightblue" d="M1495.92,-229.68C1459.26,-219.307 1409.07,-205.108 1375.19,-195.523"/>
<polygon fill="midnightblue" stroke="midnightblue" points="1495.3,-233.142 1505.88,-232.497 1497.21,-226.406 1495.3,-233.142"/>
</g>
<!-- Node27&#45;&gt;Node35 -->
<g id="edge100" class="edge"><title>Node27&#45;&gt;Node35</title>
<path fill="none" stroke="midnightblue" d="M1605,-230.47C1656.62,-220.038 1729.29,-205.354 1777.93,-195.523"/>
<polygon fill="midnightblue" stroke="midnightblue" points="1604.08,-227.085 1594.97,-232.497 1605.47,-233.946 1604.08,-227.085"/>
</g>
<!-- Node29&#45;&gt;Node17 -->
<g id="edge82" class="edge"><title>Node29&#45;&gt;Node17</title>
<path fill="none" stroke="midnightblue" d="M991.617,-173.873C838.66,-157.652 672.495,-142.869 573.548,-134.37"/>
<polygon fill="midnightblue" stroke="midnightblue" points="991.357,-177.366 1001.67,-174.944 992.099,-170.405 991.357,-177.366"/>
</g>
<!-- Node29&#45;&gt;Node28 -->
<g id="edge80" class="edge"><title>Node29&#45;&gt;Node28</title>
<path fill="none" stroke="midnightblue" d="M1106.8,-168.259C1120.28,-158.364 1136.94,-146.136 1148.6,-137.571"/>
<polygon fill="midnightblue" stroke="midnightblue" points="1104.48,-165.623 1098.49,-174.362 1108.62,-171.265 1104.48,-165.623"/>
</g>
<!-- Node30 -->
<g id="node72" class="node"><title>Node30</title>
<a xlink:href="RemoteWindowDataSoftwareOpenGLComposited_8h.htm" target="_top" xlink:title="RemoteWindowDataSoftwareOpenGLComposited.h">
<polygon fill="white" stroke="black" points="819,-116.5 819,-137.5 1079,-137.5 1079,-116.5 819,-116.5"/>
<text text-anchor="middle" x="949" y="-124.5" font-family="Helvetica,sans-Serif" font-size="10.00">RemoteWindowDataSoftwareOpenGLComposited.h</text>
</a>
</g>
<!-- Node29&#45;&gt;Node30 -->
<g id="edge84" class="edge"><title>Node29&#45;&gt;Node30</title>
<path fill="none" stroke="midnightblue" d="M1050.2,-170.479C1026.44,-160.269 995.176,-146.839 973.722,-137.621"/>
<polygon fill="midnightblue" stroke="midnightblue" points="1048.98,-173.765 1059.55,-174.497 1051.75,-167.333 1048.98,-173.765"/>
</g>
<!-- Node30&#45;&gt;Node18 -->
<g id="edge86" class="edge"><title>Node30&#45;&gt;Node18</title>
<path fill="none" stroke="midnightblue" d="M982.798,-112.479C1006.56,-102.269 1037.82,-88.8386 1059.28,-79.6212"/>
<polygon fill="midnightblue" stroke="midnightblue" points="981.254,-109.333 973.447,-116.497 984.017,-115.765 981.254,-109.333"/>
</g>
<!-- Node31 -->
<g id="node75" class="node"><title>Node31</title>
<a xlink:href="RemoteWindowDataSoftwareTextureShared_8h.htm" target="_top" xlink:title="RemoteWindowDataSoftwareTextureShared.h">
<polygon fill="white" stroke="black" points="433,-58.5 433,-79.5 667,-79.5 667,-58.5 433,-58.5"/>
<text text-anchor="middle" x="550" y="-66.5" font-family="Helvetica,sans-Serif" font-size="10.00">RemoteWindowDataSoftwareTextureShared.h</text>
</a>
</g>
<!-- Node30&#45;&gt;Node31 -->
<g id="edge88" class="edge"><title>Node30&#45;&gt;Node31</title>
<path fill="none" stroke="midnightblue" d="M866.806,-115.052C794.839,-104.591 691.286,-89.5378 622.391,-79.5231"/>
<polygon fill="midnightblue" stroke="midnightblue" points="866.345,-118.522 876.744,-116.497 867.352,-111.594 866.345,-118.522"/>
</g>
<!-- Node31&#45;&gt;Node19 -->
<g id="edge90" class="edge"><title>Node31&#45;&gt;Node19</title>
<path fill="none" stroke="midnightblue" d="M503.149,-55.6795C466.666,-45.307 416.724,-31.1078 383.012,-21.5231"/>
<polygon fill="midnightblue" stroke="midnightblue" points="502.481,-59.1284 513.057,-58.4966 504.396,-52.3952 502.481,-59.1284"/>
</g>
<!-- Node32&#45;&gt;Node16 -->
<g id="edge94" class="edge"><title>Node32&#45;&gt;Node16</title>
<path fill="none" stroke="midnightblue" d="M1592.89,-171.144C1622.61,-160.823 1662.58,-146.944 1689.7,-137.523"/>
<polygon fill="midnightblue" stroke="midnightblue" points="1591.54,-167.909 1583.24,-174.497 1593.84,-174.522 1591.54,-167.909"/>
</g>
<!-- Node34 -->
<g id="node83" class="node"><title>Node34</title>
<a xlink:href="RemoteWindowDataOpenGLTextureShared_8cpp.htm" target="_top" xlink:title="RemoteWindowDataOpenGLTextureShared.cpp">
<polygon fill="white" stroke="black" points="1247,-116.5 1247,-137.5 1491,-137.5 1491,-116.5 1247,-116.5"/>
<text text-anchor="middle" x="1369" y="-124.5" font-family="Helvetica,sans-Serif" font-size="10.00">RemoteWindowDataOpenGLTextureShared.cpp</text>
</a>
</g>
<!-- Node33&#45;&gt;Node34 -->
<g id="edge98" class="edge"><title>Node33&#45;&gt;Node34</title>
<path fill="none" stroke="midnightblue" d="M1348.49,-165.373C1353.46,-156.068 1359.21,-145.32 1363.35,-137.571"/>
<polygon fill="midnightblue" stroke="midnightblue" points="1345.31,-163.893 1343.69,-174.362 1351.49,-167.192 1345.31,-163.893"/>
</g>
<!-- Node37&#45;&gt;Node5 -->
<g id="edge108" class="edge"><title>Node37&#45;&gt;Node5</title>
<path fill="none" stroke="midnightblue" d="M840.11,-280.488C838.385,-271.392 836.428,-261.076 835.005,-253.571"/>
<polygon fill="midnightblue" stroke="midnightblue" points="836.68,-281.189 841.982,-290.362 843.558,-279.885 836.68,-281.189"/>
</g>
<!-- Node37&#45;&gt;Node8 -->
<g id="edge110" class="edge"><title>Node37&#45;&gt;Node8</title>
<path fill="none" stroke="midnightblue" d="M790.549,-291.895C736.239,-282.589 649.708,-267.61 575,-254 572.076,-253.467 569.07,-252.914 566.038,-252.352"/>
<polygon fill="midnightblue" stroke="midnightblue" points="790.19,-295.384 800.637,-293.622 791.371,-288.485 790.19,-295.384"/>
</g>
<!-- Node37&#45;&gt;Node10 -->
<g id="edge112" class="edge"><title>Node37&#45;&gt;Node10</title>
<path fill="none" stroke="midnightblue" d="M820.406,-284.471C794.779,-266.703 755.319,-239.936 739,-232 706.721,-216.302 667.877,-203.717 639.302,-195.536"/>
<polygon fill="midnightblue" stroke="midnightblue" points="818.626,-287.496 828.833,-290.334 822.624,-281.75 818.626,-287.496"/>
</g>
<!-- Node37&#45;&gt;Node12 -->
<g id="edge114" class="edge"><title>Node37&#45;&gt;Node12</title>
<path fill="none" stroke="midnightblue" d="M800.193,-287.413C766.829,-277.065 721.566,-263.026 690.928,-253.523"/>
<polygon fill="midnightblue" stroke="midnightblue" points="799.548,-290.877 810.136,-290.497 801.621,-284.191 799.548,-290.877"/>
</g>
<!-- Node38&#45;&gt;Node9 -->
<g id="edge118" class="edge"><title>Node38&#45;&gt;Node9</title>
<path fill="none" stroke="midnightblue" d="M445.89,-287.279C414.172,-276.944 371.333,-262.985 342.295,-253.523"/>
<polygon fill="midnightblue" stroke="midnightblue" points="445.173,-290.726 455.766,-290.497 447.342,-284.071 445.173,-290.726"/>
</g>
<!-- Node38&#45;&gt;Node10 -->
<g id="edge120" class="edge"><title>Node38&#45;&gt;Node10</title>
<path fill="none" stroke="midnightblue" d="M470.669,-282.597C459.084,-267.992 447.838,-247.521 459,-232 469.778,-217.013 512.727,-204.015 548.245,-195.511"/>
<polygon fill="midnightblue" stroke="midnightblue" points="468.207,-285.104 477.362,-290.436 473.531,-280.558 468.207,-285.104"/>
</g>
</g>
</svg>
