<?xml version="1.0" encoding="UTF-8" standalone="no"?>
<!DOCTYPE svg PUBLIC "-//W3C//DTD SVG 1.1//EN"
 "http://www.w3.org/Graphics/SVG/1.1/DTD/svg11.dtd">
<!-- Generated by graphviz version 2.26.3 (20100126.1600)
 -->
<!-- Title: G Pages: 1 -->
<svg width="447pt" height="146pt"
 viewBox="0.00 0.00 447.02 146.00" xmlns="http://www.w3.org/2000/svg" xmlns:xlink="http://www.w3.org/1999/xlink">
<g id="graph1" class="graph" transform="scale(1 1) rotate(0) translate(4 142)">
<title>G</title>
<polygon fill="white" stroke="white" points="-4,5 -4,-142 444.022,-142 444.022,5 -4,5"/>
<!-- Node1 -->
<g id="node1" class="node"><title>Node1</title>
<polygon fill="#bfbfbf" stroke="black" points="60.0223,-116.5 60.0223,-137.5 174.022,-137.5 174.022,-116.5 60.0223,-116.5"/>
<text text-anchor="middle" x="117.022" y="-124.5" font-family="Helvetica,sans-Serif" font-size="10.00">SingleClickGesture.h</text>
</g>
<!-- Node2 -->
<g id="node3" class="node"><title>Node2</title>
<a xlink:href="Common_8h.htm" target="_top" xlink:title="Common.h">
<polygon fill="white" stroke="black" points="9.5223,-0.5 9.5223,-21.5 76.5223,-21.5 76.5223,-0.5 9.5223,-0.5"/>
<text text-anchor="middle" x="43.0223" y="-8.5" font-family="Helvetica,sans-Serif" font-size="10.00">Common.h</text>
</a>
</g>
<!-- Node1&#45;&gt;Node2 -->
<g id="edge2" class="edge"><title>Node1&#45;&gt;Node2</title>
<path fill="none" stroke="midnightblue" d="M59.861,-117.084C38.654,-110.332 16.6981,-99.0008 4.0223,-80 -7.29272,-63.039 7.55565,-42.5966 22.0714,-28.3848"/>
<polygon fill="midnightblue" stroke="midnightblue" points="24.4924,-30.9136 29.4916,-21.5724 19.7583,-25.7572 24.4924,-30.9136"/>
</g>
<!-- Node3 -->
<g id="node5" class="node"><title>Node3</title>
<polygon fill="white" stroke="#bfbfbf" points="13.0223,-58.5 13.0223,-79.5 75.0223,-79.5 75.0223,-58.5 13.0223,-58.5"/>
<text text-anchor="middle" x="44.0223" y="-66.5" font-family="Helvetica,sans-Serif" font-size="10.00">QGesture</text>
</g>
<!-- Node1&#45;&gt;Node3 -->
<g id="edge4" class="edge"><title>Node1&#45;&gt;Node3</title>
<path fill="none" stroke="midnightblue" d="M103.633,-116.362C92.9311,-107.859 77.7263,-95.7785 65.3516,-85.9466"/>
<polygon fill="midnightblue" stroke="midnightblue" points="67.3336,-83.0511 57.3267,-79.5707 62.9791,-88.5318 67.3336,-83.0511"/>
</g>
<!-- Node4 -->
<g id="node7" class="node"><title>Node4</title>
<polygon fill="white" stroke="#bfbfbf" points="92.5223,-58.5 92.5223,-79.5 141.522,-79.5 141.522,-58.5 92.5223,-58.5"/>
<text text-anchor="middle" x="117.022" y="-66.5" font-family="Helvetica,sans-Serif" font-size="10.00">QPoint</text>
</g>
<!-- Node1&#45;&gt;Node4 -->
<g id="edge6" class="edge"><title>Node1&#45;&gt;Node4</title>
<path fill="none" stroke="midnightblue" d="M117.022,-116.362C117.022,-108.922 117.022,-98.7427 117.022,-89.7276"/>
<polygon fill="midnightblue" stroke="midnightblue" points="120.522,-89.5706 117.022,-79.5707 113.522,-89.5707 120.522,-89.5706"/>
</g>
<!-- Node5 -->
<g id="node9" class="node"><title>Node5</title>
<polygon fill="white" stroke="#bfbfbf" points="158.522,-58.5 158.522,-79.5 241.522,-79.5 241.522,-58.5 158.522,-58.5"/>
<text text-anchor="middle" x="200.022" y="-66.5" font-family="Helvetica,sans-Serif" font-size="10.00">SysMgrDefs.h</text>
</g>
<!-- Node1&#45;&gt;Node5 -->
<g id="edge8" class="edge"><title>Node1&#45;&gt;Node5</title>
<path fill="none" stroke="midnightblue" d="M132.246,-116.362C144.648,-107.696 162.368,-95.3126 176.579,-85.3819"/>
<polygon fill="midnightblue" stroke="midnightblue" points="178.703,-88.1676 184.895,-79.5707 174.694,-82.4297 178.703,-88.1676"/>
</g>
<!-- Node6 -->
<g id="node11" class="node"><title>Node6</title>
<a xlink:href="Settings_8h.htm" target="_top" xlink:title="Settings.h">
<polygon fill="white" stroke="black" points="258.522,-58.5 258.522,-79.5 321.522,-79.5 321.522,-58.5 258.522,-58.5"/>
<text text-anchor="middle" x="290.022" y="-66.5" font-family="Helvetica,sans-Serif" font-size="10.00">Settings.h</text>
</a>
</g>
<!-- Node1&#45;&gt;Node6 -->
<g id="edge10" class="edge"><title>Node1&#45;&gt;Node6</title>
<path fill="none" stroke="midnightblue" d="M148.351,-116.497C176.555,-107.041 218.189,-93.0829 249.031,-82.7428"/>
<polygon fill="midnightblue" stroke="midnightblue" points="250.266,-86.0203 258.635,-79.5231 248.041,-79.3834 250.266,-86.0203"/>
</g>
<!-- Node6&#45;&gt;Node2 -->
<g id="edge12" class="edge"><title>Node6&#45;&gt;Node2</title>
<path fill="none" stroke="midnightblue" d="M258.18,-60.104C255.425,-59.3767 252.677,-58.666 250.022,-58 193.885,-43.9158 128.72,-29.4235 86.7317,-20.3246"/>
<polygon fill="midnightblue" stroke="midnightblue" points="87.3498,-16.8775 76.8362,-18.1871 85.8718,-23.7197 87.3498,-16.8775"/>
</g>
<!-- Node7 -->
<g id="node14" class="node"><title>Node7</title>
<polygon fill="white" stroke="#bfbfbf" points="150.522,-0.5 150.522,-21.5 193.522,-21.5 193.522,-0.5 150.522,-0.5"/>
<text text-anchor="middle" x="172.022" y="-8.5" font-family="Helvetica,sans-Serif" font-size="10.00">string</text>
</g>
<!-- Node6&#45;&gt;Node7 -->
<g id="edge14" class="edge"><title>Node6&#45;&gt;Node7</title>
<path fill="none" stroke="midnightblue" d="M268.653,-58.4966C250.223,-49.4378 223.385,-36.2462 202.667,-26.0628"/>
<polygon fill="midnightblue" stroke="midnightblue" points="204.149,-22.8914 193.631,-21.6212 201.062,-29.1735 204.149,-22.8914"/>
</g>
<!-- Node8 -->
<g id="node16" class="node"><title>Node8</title>
<polygon fill="white" stroke="#bfbfbf" points="211.022,-0.5 211.022,-21.5 257.022,-21.5 257.022,-0.5 211.022,-0.5"/>
<text text-anchor="middle" x="234.022" y="-8.5" font-family="Helvetica,sans-Serif" font-size="10.00">vector</text>
</g>
<!-- Node6&#45;&gt;Node8 -->
<g id="edge16" class="edge"><title>Node6&#45;&gt;Node8</title>
<path fill="none" stroke="midnightblue" d="M279.751,-58.3619C271.778,-50.1043 260.547,-38.4725 251.211,-28.8029"/>
<polygon fill="midnightblue" stroke="midnightblue" points="253.692,-26.3336 244.228,-21.5707 248.657,-31.1958 253.692,-26.3336"/>
</g>
<!-- Node9 -->
<g id="node18" class="node"><title>Node9</title>
<polygon fill="white" stroke="#bfbfbf" points="274.522,-0.5 274.522,-21.5 305.522,-21.5 305.522,-0.5 274.522,-0.5"/>
<text text-anchor="middle" x="290.022" y="-8.5" font-family="Helvetica,sans-Serif" font-size="10.00">set</text>
</g>
<!-- Node6&#45;&gt;Node9 -->
<g id="edge18" class="edge"><title>Node6&#45;&gt;Node9</title>
<path fill="none" stroke="midnightblue" d="M290.022,-58.3619C290.022,-50.9219 290.022,-40.7427 290.022,-31.7276"/>
<polygon fill="midnightblue" stroke="midnightblue" points="293.522,-31.5706 290.022,-21.5707 286.522,-31.5707 293.522,-31.5706"/>
</g>
<!-- Node10 -->
<g id="node20" class="node"><title>Node10</title>
<polygon fill="white" stroke="#bfbfbf" points="322.522,-0.5 322.522,-21.5 363.522,-21.5 363.522,-0.5 322.522,-0.5"/>
<text text-anchor="middle" x="343.022" y="-8.5" font-family="Helvetica,sans-Serif" font-size="10.00">glib.h</text>
</g>
<!-- Node6&#45;&gt;Node10 -->
<g id="edge20" class="edge"><title>Node6&#45;&gt;Node10</title>
<path fill="none" stroke="midnightblue" d="M299.743,-58.3619C307.214,-50.1861 317.708,-38.7025 326.491,-29.0907"/>
<polygon fill="midnightblue" stroke="midnightblue" points="329.201,-31.3138 333.363,-21.5707 324.033,-26.5918 329.201,-31.3138"/>
</g>
<!-- Node11 -->
<g id="node22" class="node"><title>Node11</title>
<polygon fill="white" stroke="#bfbfbf" points="381.022,-0.5 381.022,-21.5 439.022,-21.5 439.022,-0.5 381.022,-0.5"/>
<text text-anchor="middle" x="410.022" y="-8.5" font-family="Helvetica,sans-Serif" font-size="10.00">QtGlobal</text>
</g>
<!-- Node6&#45;&gt;Node11 -->
<g id="edge22" class="edge"><title>Node6&#45;&gt;Node11</title>
<path fill="none" stroke="midnightblue" d="M311.753,-58.4966C330.496,-49.4378 357.789,-36.2462 378.858,-26.0628"/>
<polygon fill="midnightblue" stroke="midnightblue" points="380.567,-29.1242 388.047,-21.6212 377.521,-22.8217 380.567,-29.1242"/>
</g>
</g>
</svg>
