<?xml version="1.0" encoding="UTF-8" standalone="no"?>
<!DOCTYPE svg PUBLIC "-//W3C//DTD SVG 1.1//EN"
 "http://www.w3.org/Graphics/SVG/1.1/DTD/svg11.dtd">
<!-- Generated by graphviz version 2.26.3 (20100126.1600)
 -->
<!-- Title: G Pages: 1 -->
<svg width="728pt" height="88pt"
 viewBox="0.00 0.00 728.00 88.00" xmlns="http://www.w3.org/2000/svg" xmlns:xlink="http://www.w3.org/1999/xlink">
<g id="graph1" class="graph" transform="scale(1 1) rotate(0) translate(4 84)">
<title>G</title>
<polygon fill="white" stroke="white" points="-4,5 -4,-84 725,-84 725,5 -4,5"/>
<!-- Node1 -->
<g id="node1" class="node"><title>Node1</title>
<polygon fill="#bfbfbf" stroke="black" points="281,-58.5 281,-79.5 395,-79.5 395,-58.5 281,-58.5"/>
<text text-anchor="middle" x="338" y="-66.5" font-family="Helvetica,sans-Serif" font-size="10.00">SingleClickGesture.h</text>
</g>
<!-- Node2 -->
<g id="node3" class="node"><title>Node2</title>
<a xlink:href="SingleClickGestureRecognizer_8cpp.htm" target="_top" xlink:title="SingleClickGestureRecognizer.cpp">
<polygon fill="white" stroke="black" points="-0.5,-0.5 -0.5,-21.5 178.5,-21.5 178.5,-0.5 -0.5,-0.5"/>
<text text-anchor="middle" x="89" y="-8.5" font-family="Helvetica,sans-Serif" font-size="10.00">SingleClickGestureRecognizer.cpp</text>
</a>
</g>
<!-- Node1&#45;&gt;Node2 -->
<g id="edge2" class="edge"><title>Node1&#45;&gt;Node2</title>
<path fill="none" stroke="midnightblue" d="M283.083,-56.2081C238.373,-45.7938 176.028,-31.2716 134.177,-21.5231"/>
<polygon fill="midnightblue" stroke="midnightblue" points="282.375,-59.6367 292.908,-58.4966 283.963,-52.8192 282.375,-59.6367"/>
</g>
<!-- Node3 -->
<g id="node5" class="node"><title>Node3</title>
<a xlink:href="IMEView_8cpp.htm" target="_top" xlink:title="IMEView.cpp">
<polygon fill="white" stroke="black" points="195.5,-0.5 195.5,-21.5 272.5,-21.5 272.5,-0.5 195.5,-0.5"/>
<text text-anchor="middle" x="234" y="-8.5" font-family="Helvetica,sans-Serif" font-size="10.00">IMEView.cpp</text>
</a>
</g>
<!-- Node1&#45;&gt;Node3 -->
<g id="edge4" class="edge"><title>Node1&#45;&gt;Node3</title>
<path fill="none" stroke="midnightblue" d="M309.99,-53.379C291.919,-43.3011 268.898,-30.4624 252.954,-21.5707"/>
<polygon fill="midnightblue" stroke="midnightblue" points="308.486,-56.548 318.925,-58.3619 311.896,-50.4344 308.486,-56.548"/>
</g>
<!-- Node4 -->
<g id="node7" class="node"><title>Node4</title>
<a xlink:href="CardWindow_8cpp.htm" target="_top" xlink:title="CardWindow.cpp">
<polygon fill="white" stroke="black" points="289.5,-0.5 289.5,-21.5 386.5,-21.5 386.5,-0.5 289.5,-0.5"/>
<text text-anchor="middle" x="338" y="-8.5" font-family="Helvetica,sans-Serif" font-size="10.00">CardWindow.cpp</text>
</a>
</g>
<!-- Node1&#45;&gt;Node4 -->
<g id="edge6" class="edge"><title>Node1&#45;&gt;Node4</title>
<path fill="none" stroke="midnightblue" d="M338,-48.1906C338,-39.1684 338,-28.9941 338,-21.5707"/>
<polygon fill="midnightblue" stroke="midnightblue" points="334.5,-48.3619 338,-58.3619 341.5,-48.3619 334.5,-48.3619"/>
</g>
<!-- Node5 -->
<g id="node9" class="node"><title>Node5</title>
<a xlink:href="DockModeMenuManager_8cpp.htm" target="_top" xlink:title="DockModeMenuManager.cpp">
<polygon fill="white" stroke="black" points="404,-0.5 404,-21.5 560,-21.5 560,-0.5 404,-0.5"/>
<text text-anchor="middle" x="482" y="-8.5" font-family="Helvetica,sans-Serif" font-size="10.00">DockModeMenuManager.cpp</text>
</a>
</g>
<!-- Node1&#45;&gt;Node5 -->
<g id="edge8" class="edge"><title>Node1&#45;&gt;Node5</title>
<path fill="none" stroke="midnightblue" d="M373.377,-54.7509C398.806,-44.5086 432.542,-30.9206 455.63,-21.6212"/>
<polygon fill="midnightblue" stroke="midnightblue" points="372.046,-51.5139 364.077,-58.4966 374.661,-58.007 372.046,-51.5139"/>
</g>
<!-- Node6 -->
<g id="node11" class="node"><title>Node6</title>
<a xlink:href="MenuWindowManager_8cpp.htm" target="_top" xlink:title="MenuWindowManager.cpp">
<polygon fill="white" stroke="black" points="577.5,-0.5 577.5,-21.5 720.5,-21.5 720.5,-0.5 577.5,-0.5"/>
<text text-anchor="middle" x="649" y="-8.5" font-family="Helvetica,sans-Serif" font-size="10.00">MenuWindowManager.cpp</text>
</a>
</g>
<!-- Node1&#45;&gt;Node6 -->
<g id="edge10" class="edge"><title>Node1&#45;&gt;Node6</title>
<path fill="none" stroke="midnightblue" d="M404.49,-56.5999C460.466,-46.1607 539.643,-31.3945 592.575,-21.5231"/>
<polygon fill="midnightblue" stroke="midnightblue" points="403.509,-53.2225 394.32,-58.4966 404.792,-60.1039 403.509,-53.2225"/>
</g>
</g>
</svg>
