<?xml version="1.0" encoding="UTF-8" standalone="no"?>
<!DOCTYPE svg PUBLIC "-//W3C//DTD SVG 1.1//EN"
 "http://www.w3.org/Graphics/SVG/1.1/DTD/svg11.dtd">
<!-- Generated by graphviz version 2.26.3 (20100126.1600)
 -->
<!-- Title: G Pages: 1 -->
<svg width="1095pt" height="204pt"
 viewBox="0.00 0.00 1095.00 204.00" xmlns="http://www.w3.org/2000/svg" xmlns:xlink="http://www.w3.org/1999/xlink">
<g id="graph1" class="graph" transform="scale(1 1) rotate(0) translate(4 200)">
<title>G</title>
<polygon fill="white" stroke="white" points="-4,5 -4,-200 1092,-200 1092,5 -4,5"/>
<!-- Node1 -->
<g id="node1" class="node"><title>Node1</title>
<polygon fill="#bfbfbf" stroke="black" points="578.5,-174.5 578.5,-195.5 757.5,-195.5 757.5,-174.5 578.5,-174.5"/>
<text text-anchor="middle" x="668" y="-182.5" font-family="Helvetica,sans-Serif" font-size="10.00">SingleClickGestureRecognizer.cpp</text>
</g>
<!-- Node2 -->
<g id="node3" class="node"><title>Node2</title>
<a xlink:href="Common_8h.htm" target="_top" xlink:title="Common.h">
<polygon fill="white" stroke="black" points="381.5,-0.5 381.5,-21.5 448.5,-21.5 448.5,-0.5 381.5,-0.5"/>
<text text-anchor="middle" x="415" y="-8.5" font-family="Helvetica,sans-Serif" font-size="10.00">Common.h</text>
</a>
</g>
<!-- Node1&#45;&gt;Node2 -->
<g id="edge2" class="edge"><title>Node1&#45;&gt;Node2</title>
<path fill="none" stroke="midnightblue" d="M578.118,-179.136C474.406,-171.618 310.617,-157.223 252,-138 202.813,-121.87 176.934,-124.799 151,-80 146.101,-71.5379 144.721,-65.4954 151,-58 178.525,-25.1413 303.054,-15.2356 370.789,-12.2636"/>
<polygon fill="midnightblue" stroke="midnightblue" points="371.298,-15.746 381.149,-11.8437 371.015,-8.75169 371.298,-15.746"/>
</g>
<!-- Node3 -->
<g id="node5" class="node"><title>Node3</title>
<polygon fill="white" stroke="#bfbfbf" points="938.5,-116.5 938.5,-137.5 1019.5,-137.5 1019.5,-116.5 938.5,-116.5"/>
<text text-anchor="middle" x="979" y="-124.5" font-family="Helvetica,sans-Serif" font-size="10.00">QTouchEvent</text>
</g>
<!-- Node1&#45;&gt;Node3 -->
<g id="edge4" class="edge"><title>Node1&#45;&gt;Node3</title>
<path fill="none" stroke="midnightblue" d="M731.143,-174.462C782.018,-165.791 855.623,-152.841 928.568,-138.236"/>
<polygon fill="midnightblue" stroke="midnightblue" points="929.275,-141.664 938.387,-136.259 927.893,-134.802 929.275,-141.664"/>
</g>
<!-- Node4 -->
<g id="node7" class="node"><title>Node4</title>
<polygon fill="white" stroke="#bfbfbf" points="1036.5,-116.5 1036.5,-137.5 1087.5,-137.5 1087.5,-116.5 1036.5,-116.5"/>
<text text-anchor="middle" x="1062" y="-124.5" font-family="Helvetica,sans-Serif" font-size="10.00">QLineF</text>
</g>
<!-- Node1&#45;&gt;Node4 -->
<g id="edge6" class="edge"><title>Node1&#45;&gt;Node4</title>
<path fill="none" stroke="midnightblue" d="M757.563,-177.899C828.454,-171.219 929.982,-159.306 1026.25,-138.12"/>
<polygon fill="midnightblue" stroke="midnightblue" points="1027.15,-141.504 1036.15,-135.904 1025.62,-134.673 1027.15,-141.504"/>
</g>
<!-- Node5 -->
<g id="node9" class="node"><title>Node5</title>
<polygon fill="white" stroke="#bfbfbf" points="663.5,-0.5 663.5,-21.5 704.5,-21.5 704.5,-0.5 663.5,-0.5"/>
<text text-anchor="middle" x="684" y="-8.5" font-family="Helvetica,sans-Serif" font-size="10.00">glib.h</text>
</g>
<!-- Node1&#45;&gt;Node5 -->
<g id="edge8" class="edge"><title>Node1&#45;&gt;Node5</title>
<path fill="none" stroke="midnightblue" d="M670.686,-174.242C672.957,-164.76 676.132,-150.542 678,-138 683.526,-100.892 684.359,-57.075 684.295,-31.8159"/>
<polygon fill="midnightblue" stroke="midnightblue" points="687.793,-31.5796 684.216,-21.607 680.793,-31.6337 687.793,-31.5796"/>
</g>
<!-- Node6 -->
<g id="node11" class="node"><title>Node6</title>
<a xlink:href="Time_8h.htm" target="_top" xlink:title="Time.h">
<polygon fill="white" stroke="black" points="261,-116.5 261,-137.5 309,-137.5 309,-116.5 261,-116.5"/>
<text text-anchor="middle" x="285" y="-124.5" font-family="Helvetica,sans-Serif" font-size="10.00">Time.h</text>
</a>
</g>
<!-- Node1&#45;&gt;Node6 -->
<g id="edge10" class="edge"><title>Node1&#45;&gt;Node6</title>
<path fill="none" stroke="midnightblue" d="M598.642,-174.497C516.315,-162.029 382.3,-141.735 319.512,-132.226"/>
<polygon fill="midnightblue" stroke="midnightblue" points="319.765,-128.725 309.354,-130.688 318.717,-135.646 319.765,-128.725"/>
</g>
<!-- Node10 -->
<g id="node20" class="node"><title>Node10</title>
<a xlink:href="SingleClickGesture_8h.htm" target="_top" xlink:title="SingleClickGesture.h">
<polygon fill="white" stroke="black" points="555,-116.5 555,-137.5 669,-137.5 669,-116.5 555,-116.5"/>
<text text-anchor="middle" x="612" y="-124.5" font-family="Helvetica,sans-Serif" font-size="10.00">SingleClickGesture.h</text>
</a>
</g>
<!-- Node1&#45;&gt;Node10 -->
<g id="edge20" class="edge"><title>Node1&#45;&gt;Node10</title>
<path fill="none" stroke="midnightblue" d="M657.729,-174.362C649.756,-166.104 638.525,-154.472 629.189,-144.803"/>
<polygon fill="midnightblue" stroke="midnightblue" points="631.67,-142.334 622.206,-137.571 626.634,-147.196 631.67,-142.334"/>
</g>
<!-- Node19 -->
<g id="node41" class="node"><title>Node19</title>
<a xlink:href="SingleClickGestureRecognizer_8h.htm" target="_top" xlink:title="SingleClickGestureRecognizer.h">
<polygon fill="white" stroke="black" points="753,-116.5 753,-137.5 921,-137.5 921,-116.5 753,-116.5"/>
<text text-anchor="middle" x="837" y="-124.5" font-family="Helvetica,sans-Serif" font-size="10.00">SingleClickGestureRecognizer.h</text>
</a>
</g>
<!-- Node1&#45;&gt;Node19 -->
<g id="edge44" class="edge"><title>Node1&#45;&gt;Node19</title>
<path fill="none" stroke="midnightblue" d="M698.605,-174.497C726.037,-165.082 766.476,-151.204 796.564,-140.877"/>
<polygon fill="midnightblue" stroke="midnightblue" points="798.016,-144.08 806.338,-137.523 795.743,-137.459 798.016,-144.08"/>
</g>
<!-- Node22 -->
<g id="node49" class="node"><title>Node22</title>
<a xlink:href="Logging_8h.htm" target="_top" xlink:title="Logging.h">
<polygon fill="white" stroke="black" points="41.5,-58.5 41.5,-79.5 104.5,-79.5 104.5,-58.5 41.5,-58.5"/>
<text text-anchor="middle" x="73" y="-66.5" font-family="Helvetica,sans-Serif" font-size="10.00">Logging.h</text>
</a>
</g>
<!-- Node1&#45;&gt;Node22 -->
<g id="edge54" class="edge"><title>Node1&#45;&gt;Node22</title>
<path fill="none" stroke="midnightblue" d="M578.343,-181.622C432.567,-175.496 156.475,-161.014 118,-138 99.6762,-127.039 87.4199,-105.395 80.3862,-89.2566"/>
<polygon fill="midnightblue" stroke="midnightblue" points="83.4864,-87.5849 76.507,-79.6138 76.9922,-90.1975 83.4864,-87.5849"/>
</g>
<!-- Node6&#45;&gt;Node2 -->
<g id="edge12" class="edge"><title>Node6&#45;&gt;Node2</title>
<path fill="none" stroke="midnightblue" d="M272.97,-116.496C258.229,-102.345 236.854,-76.77 251,-58 265.482,-38.785 327.641,-25.0285 371.126,-17.5418"/>
<polygon fill="midnightblue" stroke="midnightblue" points="371.902,-20.9607 381.19,-15.8625 370.75,-14.0561 371.902,-20.9607"/>
</g>
<!-- Node7 -->
<g id="node14" class="node"><title>Node7</title>
<polygon fill="white" stroke="#bfbfbf" points="327.5,-58.5 327.5,-79.5 390.5,-79.5 390.5,-58.5 327.5,-58.5"/>
<text text-anchor="middle" x="359" y="-66.5" font-family="Helvetica,sans-Serif" font-size="10.00">sys/time.h</text>
</g>
<!-- Node6&#45;&gt;Node7 -->
<g id="edge14" class="edge"><title>Node6&#45;&gt;Node7</title>
<path fill="none" stroke="midnightblue" d="M298.573,-116.362C309.421,-107.859 324.834,-95.7785 337.379,-85.9466"/>
<polygon fill="midnightblue" stroke="midnightblue" points="339.802,-88.4942 345.513,-79.5707 335.484,-82.9848 339.802,-88.4942"/>
</g>
<!-- Node8 -->
<g id="node16" class="node"><title>Node8</title>
<polygon fill="white" stroke="#bfbfbf" points="160,-58.5 160,-79.5 204,-79.5 204,-58.5 160,-58.5"/>
<text text-anchor="middle" x="182" y="-66.5" font-family="Helvetica,sans-Serif" font-size="10.00">time.h</text>
</g>
<!-- Node6&#45;&gt;Node8 -->
<g id="edge16" class="edge"><title>Node6&#45;&gt;Node8</title>
<path fill="none" stroke="midnightblue" d="M266.108,-116.362C250.282,-107.45 227.477,-94.6087 209.605,-84.5447"/>
<polygon fill="midnightblue" stroke="midnightblue" points="211.203,-81.4276 200.772,-79.5707 207.768,-87.5271 211.203,-81.4276"/>
</g>
<!-- Node9 -->
<g id="node18" class="node"><title>Node9</title>
<polygon fill="white" stroke="#bfbfbf" points="260,-58.5 260,-79.5 310,-79.5 310,-58.5 260,-58.5"/>
<text text-anchor="middle" x="285" y="-66.5" font-family="Helvetica,sans-Serif" font-size="10.00">stdint.h</text>
</g>
<!-- Node6&#45;&gt;Node9 -->
<g id="edge18" class="edge"><title>Node6&#45;&gt;Node9</title>
<path fill="none" stroke="midnightblue" d="M285,-116.362C285,-108.922 285,-98.7427 285,-89.7276"/>
<polygon fill="midnightblue" stroke="midnightblue" points="288.5,-89.5706 285,-79.5707 281.5,-89.5707 288.5,-89.5706"/>
</g>
<!-- Node10&#45;&gt;Node2 -->
<g id="edge22" class="edge"><title>Node10&#45;&gt;Node2</title>
<path fill="none" stroke="midnightblue" d="M609.827,-116.447C606.152,-101.276 597.252,-73.4325 579,-58 560.822,-42.6297 500.811,-28.0309 458.669,-19.2948"/>
<polygon fill="midnightblue" stroke="midnightblue" points="459.14,-15.819 448.643,-17.2563 457.745,-22.6787 459.14,-15.819"/>
</g>
<!-- Node11 -->
<g id="node23" class="node"><title>Node11</title>
<polygon fill="white" stroke="#bfbfbf" points="408,-58.5 408,-79.5 470,-79.5 470,-58.5 408,-58.5"/>
<text text-anchor="middle" x="439" y="-66.5" font-family="Helvetica,sans-Serif" font-size="10.00">QGesture</text>
</g>
<!-- Node10&#45;&gt;Node11 -->
<g id="edge24" class="edge"><title>Node10&#45;&gt;Node11</title>
<path fill="none" stroke="midnightblue" d="M580.671,-116.497C552.379,-107.012 510.574,-92.9959 479.704,-82.6463"/>
<polygon fill="midnightblue" stroke="midnightblue" points="480.69,-79.2855 470.096,-79.4252 478.465,-85.9225 480.69,-79.2855"/>
</g>
<!-- Node12 -->
<g id="node25" class="node"><title>Node12</title>
<polygon fill="white" stroke="#bfbfbf" points="625.5,-58.5 625.5,-79.5 674.5,-79.5 674.5,-58.5 625.5,-58.5"/>
<text text-anchor="middle" x="650" y="-66.5" font-family="Helvetica,sans-Serif" font-size="10.00">QPoint</text>
</g>
<!-- Node10&#45;&gt;Node12 -->
<g id="edge26" class="edge"><title>Node10&#45;&gt;Node12</title>
<path fill="none" stroke="midnightblue" d="M618.97,-116.362C624.166,-108.431 631.401,-97.3885 637.578,-87.9606"/>
<polygon fill="midnightblue" stroke="midnightblue" points="640.522,-89.8534 643.074,-79.5707 634.666,-86.0172 640.522,-89.8534"/>
</g>
<!-- Node13 -->
<g id="node27" class="node"><title>Node13</title>
<polygon fill="white" stroke="#bfbfbf" points="487.5,-58.5 487.5,-79.5 570.5,-79.5 570.5,-58.5 487.5,-58.5"/>
<text text-anchor="middle" x="529" y="-66.5" font-family="Helvetica,sans-Serif" font-size="10.00">SysMgrDefs.h</text>
</g>
<!-- Node10&#45;&gt;Node13 -->
<g id="edge28" class="edge"><title>Node10&#45;&gt;Node13</title>
<path fill="none" stroke="midnightblue" d="M596.777,-116.362C584.375,-107.696 566.654,-95.3126 552.443,-85.3819"/>
<polygon fill="midnightblue" stroke="midnightblue" points="554.329,-82.4297 544.127,-79.5707 550.319,-88.1676 554.329,-82.4297"/>
</g>
<!-- Node14 -->
<g id="node29" class="node"><title>Node14</title>
<a xlink:href="Settings_8h.htm" target="_top" xlink:title="Settings.h">
<polygon fill="white" stroke="black" points="767.5,-58.5 767.5,-79.5 830.5,-79.5 830.5,-58.5 767.5,-58.5"/>
<text text-anchor="middle" x="799" y="-66.5" font-family="Helvetica,sans-Serif" font-size="10.00">Settings.h</text>
</a>
</g>
<!-- Node10&#45;&gt;Node14 -->
<g id="edge30" class="edge"><title>Node10&#45;&gt;Node14</title>
<path fill="none" stroke="midnightblue" d="M645.864,-116.497C677.15,-106.793 723.724,-92.3475 757.29,-81.9367"/>
<polygon fill="midnightblue" stroke="midnightblue" points="758.744,-85.1504 767.258,-78.8451 756.67,-78.4646 758.744,-85.1504"/>
</g>
<!-- Node14&#45;&gt;Node2 -->
<g id="edge32" class="edge"><title>Node14&#45;&gt;Node2</title>
<path fill="none" stroke="midnightblue" d="M767.249,-64.2043C698.719,-53.8534 536.84,-29.4028 458.702,-17.6007"/>
<polygon fill="midnightblue" stroke="midnightblue" points="459.11,-14.1228 448.699,-16.09 458.064,-21.0443 459.11,-14.1228"/>
</g>
<!-- Node14&#45;&gt;Node5 -->
<g id="edge40" class="edge"><title>Node14&#45;&gt;Node5</title>
<path fill="none" stroke="midnightblue" d="M778.174,-58.4966C760.182,-49.4222 733.967,-36.2009 713.762,-26.0103"/>
<polygon fill="midnightblue" stroke="midnightblue" points="715.176,-22.8034 704.671,-21.4252 712.023,-29.0535 715.176,-22.8034"/>
</g>
<!-- Node15 -->
<g id="node32" class="node"><title>Node15</title>
<polygon fill="white" stroke="#bfbfbf" points="845.5,-0.5 845.5,-21.5 888.5,-21.5 888.5,-0.5 845.5,-0.5"/>
<text text-anchor="middle" x="867" y="-8.5" font-family="Helvetica,sans-Serif" font-size="10.00">string</text>
</g>
<!-- Node14&#45;&gt;Node15 -->
<g id="edge34" class="edge"><title>Node14&#45;&gt;Node15</title>
<path fill="none" stroke="midnightblue" d="M811.472,-58.3619C821.345,-49.9408 835.333,-38.0105 846.798,-28.2308"/>
<polygon fill="midnightblue" stroke="midnightblue" points="849.27,-30.7231 854.607,-21.5707 844.727,-25.3972 849.27,-30.7231"/>
</g>
<!-- Node16 -->
<g id="node34" class="node"><title>Node16</title>
<polygon fill="white" stroke="#bfbfbf" points="906,-0.5 906,-21.5 952,-21.5 952,-0.5 906,-0.5"/>
<text text-anchor="middle" x="929" y="-8.5" font-family="Helvetica,sans-Serif" font-size="10.00">vector</text>
</g>
<!-- Node14&#45;&gt;Node16 -->
<g id="edge36" class="edge"><title>Node14&#45;&gt;Node16</title>
<path fill="none" stroke="midnightblue" d="M822.542,-58.4966C843.157,-49.299 873.322,-35.8411 896.283,-25.597"/>
<polygon fill="midnightblue" stroke="midnightblue" points="897.927,-28.696 905.633,-21.4252 895.075,-22.3034 897.927,-28.696"/>
</g>
<!-- Node17 -->
<g id="node36" class="node"><title>Node17</title>
<polygon fill="white" stroke="#bfbfbf" points="721.5,-0.5 721.5,-21.5 752.5,-21.5 752.5,-0.5 721.5,-0.5"/>
<text text-anchor="middle" x="737" y="-8.5" font-family="Helvetica,sans-Serif" font-size="10.00">set</text>
</g>
<!-- Node14&#45;&gt;Node17 -->
<g id="edge38" class="edge"><title>Node14&#45;&gt;Node17</title>
<path fill="none" stroke="midnightblue" d="M787.628,-58.3619C778.714,-50.0226 766.121,-38.2418 755.724,-28.5162"/>
<polygon fill="midnightblue" stroke="midnightblue" points="757.993,-25.8463 748.3,-21.5707 753.211,-30.9582 757.993,-25.8463"/>
</g>
<!-- Node18 -->
<g id="node39" class="node"><title>Node18</title>
<polygon fill="white" stroke="#bfbfbf" points="770,-0.5 770,-21.5 828,-21.5 828,-0.5 770,-0.5"/>
<text text-anchor="middle" x="799" y="-8.5" font-family="Helvetica,sans-Serif" font-size="10.00">QtGlobal</text>
</g>
<!-- Node14&#45;&gt;Node18 -->
<g id="edge42" class="edge"><title>Node14&#45;&gt;Node18</title>
<path fill="none" stroke="midnightblue" d="M799,-58.3619C799,-50.9219 799,-40.7427 799,-31.7276"/>
<polygon fill="midnightblue" stroke="midnightblue" points="802.5,-31.5706 799,-21.5707 795.5,-31.5707 802.5,-31.5706"/>
</g>
<!-- Node19&#45;&gt;Node2 -->
<g id="edge46" class="edge"><title>Node19&#45;&gt;Node2</title>
<path fill="none" stroke="midnightblue" d="M817.672,-116.453C789.072,-101.288 733.419,-73.4542 683,-58 605.939,-34.3799 512.548,-21.3669 458.828,-15.3143"/>
<polygon fill="midnightblue" stroke="midnightblue" points="458.951,-11.807 448.629,-14.1955 458.188,-18.7652 458.951,-11.807"/>
</g>
<!-- Node19&#45;&gt;Node12 -->
<g id="edge50" class="edge"><title>Node19&#45;&gt;Node12</title>
<path fill="none" stroke="midnightblue" d="M803.136,-116.497C769.561,-106.083 718.378,-90.2082 684.562,-79.7197"/>
<polygon fill="midnightblue" stroke="midnightblue" points="685.251,-76.2692 674.663,-76.6496 683.178,-82.955 685.251,-76.2692"/>
</g>
<!-- Node20 -->
<g id="node44" class="node"><title>Node20</title>
<polygon fill="white" stroke="#bfbfbf" points="848,-58.5 848,-79.5 964,-79.5 964,-58.5 848,-58.5"/>
<text text-anchor="middle" x="906" y="-66.5" font-family="Helvetica,sans-Serif" font-size="10.00">QGestureRecognizer</text>
</g>
<!-- Node19&#45;&gt;Node20 -->
<g id="edge48" class="edge"><title>Node19&#45;&gt;Node20</title>
<path fill="none" stroke="midnightblue" d="M849.656,-116.362C859.674,-107.941 873.867,-96.0105 885.501,-86.2308"/>
<polygon fill="midnightblue" stroke="midnightblue" points="888.022,-88.6844 893.425,-79.5707 883.518,-83.326 888.022,-88.6844"/>
</g>
<!-- Node21 -->
<g id="node47" class="node"><title>Node21</title>
<polygon fill="white" stroke="#bfbfbf" points="982,-58.5 982,-79.5 1038,-79.5 1038,-58.5 982,-58.5"/>
<text text-anchor="middle" x="1010" y="-66.5" font-family="Helvetica,sans-Serif" font-size="10.00">QQueue</text>
</g>
<!-- Node19&#45;&gt;Node21 -->
<g id="edge52" class="edge"><title>Node19&#45;&gt;Node21</title>
<path fill="none" stroke="midnightblue" d="M868.329,-116.497C897.499,-106.717 941.036,-92.121 972.14,-81.6929"/>
<polygon fill="midnightblue" stroke="midnightblue" points="973.399,-84.9622 981.768,-78.465 971.174,-78.3253 973.399,-84.9622"/>
</g>
<!-- Node22&#45;&gt;Node2 -->
<g id="edge56" class="edge"><title>Node22&#45;&gt;Node2</title>
<path fill="none" stroke="midnightblue" d="M104.885,-60.8603C109.278,-59.84 113.742,-58.8558 118,-58 207.563,-39.999 313.458,-24.6464 371.509,-16.7327"/>
<polygon fill="midnightblue" stroke="midnightblue" points="371.994,-20.199 381.433,-15.3887 371.054,-13.2623 371.994,-20.199"/>
</g>
<!-- Node22&#45;&gt;Node5 -->
<g id="edge60" class="edge"><title>Node22&#45;&gt;Node5</title>
<path fill="none" stroke="midnightblue" d="M104.83,-64.1284C118.951,-62.0661 135.783,-59.7427 151,-58 341.561,-36.1762 571.462,-18.9815 653.275,-13.1458"/>
<polygon fill="midnightblue" stroke="midnightblue" points="653.655,-16.6277 663.382,-12.4291 653.16,-9.64527 653.655,-16.6277"/>
</g>
<!-- Node23 -->
<g id="node52" class="node"><title>Node23</title>
<polygon fill="white" stroke="#bfbfbf" points="87.5,-0.5 87.5,-21.5 134.5,-21.5 134.5,-0.5 87.5,-0.5"/>
<text text-anchor="middle" x="111" y="-8.5" font-family="Helvetica,sans-Serif" font-size="10.00">stdio.h</text>
</g>
<!-- Node22&#45;&gt;Node23 -->
<g id="edge58" class="edge"><title>Node22&#45;&gt;Node23</title>
<path fill="none" stroke="midnightblue" d="M79.9698,-58.3619C85.1657,-50.4313 92.4006,-39.3885 98.5775,-29.9606"/>
<polygon fill="midnightblue" stroke="midnightblue" points="101.522,-31.8534 104.074,-21.5707 95.6665,-28.0172 101.522,-31.8534"/>
</g>
<!-- Node24 -->
<g id="node55" class="node"><title>Node24</title>
<polygon fill="white" stroke="#bfbfbf" points="-0.5,-0.5 -0.5,-21.5 70.5,-21.5 70.5,-0.5 -0.5,-0.5"/>
<text text-anchor="middle" x="35" y="-8.5" font-family="Helvetica,sans-Serif" font-size="10.00">PmLogLib.h</text>
</g>
<!-- Node22&#45;&gt;Node24 -->
<g id="edge62" class="edge"><title>Node22&#45;&gt;Node24</title>
<path fill="none" stroke="midnightblue" d="M66.0302,-58.3619C60.8343,-50.4313 53.5994,-39.3885 47.4225,-29.9606"/>
<polygon fill="midnightblue" stroke="midnightblue" points="50.3335,-28.0172 41.9256,-21.5707 44.4783,-31.8534 50.3335,-28.0172"/>
</g>
</g>
</svg>
