<?xml version="1.0" encoding="UTF-8" standalone="no"?>
<!DOCTYPE svg PUBLIC "-//W3C//DTD SVG 1.1//EN"
 "http://www.w3.org/Graphics/SVG/1.1/DTD/svg11.dtd">
<!-- Generated by graphviz version 2.26.3 (20100126.1600)
 -->
<!-- Title: G Pages: 1 -->
<svg width="1956pt" height="320pt"
 viewBox="0.00 0.00 1956.35 320.00" xmlns="http://www.w3.org/2000/svg" xmlns:xlink="http://www.w3.org/1999/xlink">
<g id="graph1" class="graph" transform="scale(1 1) rotate(0) translate(4 316)">
<title>G</title>
<polygon fill="white" stroke="white" points="-4,5 -4,-316 1953.35,-316 1953.35,5 -4,5"/>
<!-- Node1 -->
<g id="node1" class="node"><title>Node1</title>
<polygon fill="#bfbfbf" stroke="black" points="1298.85,-290.5 1298.85,-311.5 1415.85,-311.5 1415.85,-290.5 1298.85,-290.5"/>
<text text-anchor="middle" x="1357.35" y="-298.5" font-family="Helvetica,sans-Serif" font-size="10.00">SoundPlayerPool.cpp</text>
</g>
<!-- Node2 -->
<g id="node3" class="node"><title>Node2</title>
<a xlink:href="Common_8h.htm" target="_top" xlink:title="Common.h">
<polygon fill="white" stroke="black" points="894.847,-0.5 894.847,-21.5 961.847,-21.5 961.847,-0.5 894.847,-0.5"/>
<text text-anchor="middle" x="928.347" y="-8.5" font-family="Helvetica,sans-Serif" font-size="10.00">Common.h</text>
</a>
</g>
<!-- Node1&#45;&gt;Node2 -->
<g id="edge2" class="edge"><title>Node1&#45;&gt;Node2</title>
<path fill="none" stroke="midnightblue" d="M1416.08,-296.786C1530.1,-286.985 1770.35,-257.707 1770.35,-185 1770.35,-185 1770.35,-185 1770.35,-127 1770.35,-87.2228 1748.81,-76.0172 1713.35,-58 1705.01,-53.7665 1136.12,-22.3621 972.133,-13.3883"/>
<polygon fill="midnightblue" stroke="midnightblue" points="972.104,-9.8816 961.927,-12.8302 971.721,-16.8712 972.104,-9.8816"/>
</g>
<!-- Node3 -->
<g id="node5" class="node"><title>Node3</title>
<a xlink:href="SoundPlayerPool_8h.htm" target="_top" xlink:title="SoundPlayerPool.h">
<polygon fill="white" stroke="black" points="380.347,-174.5 380.347,-195.5 486.347,-195.5 486.347,-174.5 380.347,-174.5"/>
<text text-anchor="middle" x="433.347" y="-182.5" font-family="Helvetica,sans-Serif" font-size="10.00">SoundPlayerPool.h</text>
</a>
</g>
<!-- Node1&#45;&gt;Node3 -->
<g id="edge4" class="edge"><title>Node1&#45;&gt;Node3</title>
<path fill="none" stroke="midnightblue" d="M1298.5,-296.038C1209.25,-288.307 1034.37,-272.353 886.347,-254 715.238,-232.784 670.393,-224.543 496.437,-196.152"/>
<polygon fill="midnightblue" stroke="midnightblue" points="496.863,-192.675 486.43,-194.52 495.736,-199.584 496.863,-192.675"/>
</g>
<!-- Node16 -->
<g id="node41" class="node"><title>Node16</title>
<polygon fill="white" stroke="#bfbfbf" points="1798.35,-232.5 1798.35,-253.5 1858.35,-253.5 1858.35,-232.5 1798.35,-232.5"/>
<text text-anchor="middle" x="1828.35" y="-240.5" font-family="Helvetica,sans-Serif" font-size="10.00">algorithm</text>
</g>
<!-- Node1&#45;&gt;Node16 -->
<g id="edge50" class="edge"><title>Node1&#45;&gt;Node16</title>
<path fill="none" stroke="midnightblue" d="M1416.07,-297.064C1498.72,-290.953 1653.86,-277.381 1784.35,-254 1785.61,-253.773 1786.89,-253.531 1788.19,-253.276"/>
<polygon fill="midnightblue" stroke="midnightblue" points="1789.13,-256.652 1798.17,-251.116 1787.65,-249.81 1789.13,-256.652"/>
</g>
<!-- Node17 -->
<g id="node43" class="node"><title>Node17</title>
<polygon fill="white" stroke="#bfbfbf" points="1876.35,-232.5 1876.35,-253.5 1948.35,-253.5 1948.35,-232.5 1876.35,-232.5"/>
<text text-anchor="middle" x="1912.35" y="-240.5" font-family="Helvetica,sans-Serif" font-size="10.00">cjson/json.h</text>
</g>
<!-- Node1&#45;&gt;Node17 -->
<g id="edge52" class="edge"><title>Node1&#45;&gt;Node17</title>
<path fill="none" stroke="midnightblue" d="M1416.22,-298.406C1509.68,-293.666 1697.79,-281.599 1866.06,-254.017"/>
<polygon fill="midnightblue" stroke="midnightblue" points="1866.8,-257.442 1876.09,-252.35 1865.66,-250.536 1866.8,-257.442"/>
</g>
<!-- Node18 -->
<g id="node45" class="node"><title>Node18</title>
<a xlink:href="HostBase_8h.htm" target="_top" xlink:title="HostBase.h">
<polygon fill="white" stroke="black" points="894.847,-232.5 894.847,-253.5 965.847,-253.5 965.847,-232.5 894.847,-232.5"/>
<text text-anchor="middle" x="930.347" y="-240.5" font-family="Helvetica,sans-Serif" font-size="10.00">HostBase.h</text>
</a>
</g>
<!-- Node1&#45;&gt;Node18 -->
<g id="edge54" class="edge"><title>Node1&#45;&gt;Node18</title>
<path fill="none" stroke="midnightblue" d="M1298.42,-292.996C1212.27,-281.293 1053.72,-259.758 975.885,-249.185"/>
<polygon fill="midnightblue" stroke="midnightblue" points="976.284,-245.708 965.903,-247.83 975.341,-252.644 976.284,-245.708"/>
</g>
<!-- Node38 -->
<g id="node104" class="node"><title>Node38</title>
<a xlink:href="Preferences_8h.htm" target="_top" xlink:title="Preferences.h">
<polygon fill="white" stroke="black" points="106.847,-174.5 106.847,-195.5 189.847,-195.5 189.847,-174.5 106.847,-174.5"/>
<text text-anchor="middle" x="148.347" y="-182.5" font-family="Helvetica,sans-Serif" font-size="10.00">Preferences.h</text>
</a>
</g>
<!-- Node1&#45;&gt;Node38 -->
<g id="edge132" class="edge"><title>Node1&#45;&gt;Node38</title>
<path fill="none" stroke="midnightblue" d="M1298.68,-297.611C1186.05,-290.899 931.75,-274.753 718.347,-254 526.944,-235.386 300.311,-205.641 200.249,-192.113"/>
<polygon fill="midnightblue" stroke="midnightblue" points="200.488,-188.613 190.108,-190.739 199.548,-195.55 200.488,-188.613"/>
</g>
<!-- Node3&#45;&gt;Node2 -->
<g id="edge6" class="edge"><title>Node3&#45;&gt;Node2</title>
<path fill="none" stroke="midnightblue" d="M407.912,-174.448C387.161,-165.536 357.304,-152.018 332.347,-138 316.979,-129.368 315.594,-122.837 299.347,-116 228.163,-86.0428 177.973,-140.001 129.347,-80 123.191,-72.4036 122.639,-65.114 129.347,-58 155.436,-30.3311 721.325,-15.6117 884.608,-11.9301"/>
<polygon fill="midnightblue" stroke="midnightblue" points="884.851,-15.4256 894.771,-11.7035 884.695,-8.42735 884.851,-15.4256"/>
</g>
<!-- Node4 -->
<g id="node8" class="node"><title>Node4</title>
<polygon fill="white" stroke="#bfbfbf" points="833.847,-58.5 833.847,-79.5 862.847,-79.5 862.847,-58.5 833.847,-58.5"/>
<text text-anchor="middle" x="848.347" y="-66.5" font-family="Helvetica,sans-Serif" font-size="10.00">list</text>
</g>
<!-- Node3&#45;&gt;Node4 -->
<g id="edge8" class="edge"><title>Node3&#45;&gt;Node4</title>
<path fill="none" stroke="midnightblue" d="M486.609,-175.072C550.543,-163.041 651.325,-143.674 668.347,-138 689.847,-130.834 693.3,-124.403 714.347,-116 759.691,-97.8963 775.347,-99.0166 823.915,-80.2528"/>
<polygon fill="midnightblue" stroke="midnightblue" points="825.369,-83.4415 833.381,-76.5087 822.794,-76.9322 825.369,-83.4415"/>
</g>
<!-- Node5 -->
<g id="node10" class="node"><title>Node5</title>
<polygon fill="white" stroke="#bfbfbf" points="137.847,-58.5 137.847,-79.5 180.847,-79.5 180.847,-58.5 137.847,-58.5"/>
<text text-anchor="middle" x="159.347" y="-66.5" font-family="Helvetica,sans-Serif" font-size="10.00">string</text>
</g>
<!-- Node3&#45;&gt;Node5 -->
<g id="edge10" class="edge"><title>Node3&#45;&gt;Node5</title>
<path fill="none" stroke="midnightblue" d="M420.839,-174.263C402.578,-159.121 367.01,-131.603 332.347,-116 275.386,-90.3587 253.995,-98.4319 190.559,-80.1064"/>
<polygon fill="midnightblue" stroke="midnightblue" points="191.469,-76.7254 180.885,-77.2039 189.458,-83.4301 191.469,-76.7254"/>
</g>
<!-- Node6 -->
<g id="node12" class="node"><title>Node6</title>
<polygon fill="white" stroke="#bfbfbf" points="212.347,-116.5 212.347,-137.5 290.347,-137.5 290.347,-116.5 212.347,-116.5"/>
<text text-anchor="middle" x="251.347" y="-124.5" font-family="Helvetica,sans-Serif" font-size="10.00">lunaservice.h</text>
</g>
<!-- Node3&#45;&gt;Node6 -->
<g id="edge12" class="edge"><title>Node3&#45;&gt;Node6</title>
<path fill="none" stroke="midnightblue" d="M400.389,-174.497C370.589,-165 326.538,-150.962 294.051,-140.609"/>
<polygon fill="midnightblue" stroke="midnightblue" points="294.959,-137.225 284.368,-137.523 292.833,-143.894 294.959,-137.225"/>
</g>
<!-- Node7 -->
<g id="node14" class="node"><title>Node7</title>
<a xlink:href="sptr_8h.htm" target="_top" xlink:title="sptr.h">
<polygon fill="white" stroke="black" points="955.847,-58.5 955.847,-79.5 998.847,-79.5 998.847,-58.5 955.847,-58.5"/>
<text text-anchor="middle" x="977.347" y="-66.5" font-family="Helvetica,sans-Serif" font-size="10.00">sptr.h</text>
</a>
</g>
<!-- Node3&#45;&gt;Node7 -->
<g id="edge14" class="edge"><title>Node3&#45;&gt;Node7</title>
<path fill="none" stroke="midnightblue" d="M486.444,-175.559C489.456,-175.03 492.44,-174.507 495.347,-174 588.634,-157.729 615.644,-168.34 705.347,-138 725.309,-131.248 727.496,-123.068 747.347,-116 815.772,-91.6383 900.392,-78.4181 945.498,-72.6334"/>
<polygon fill="midnightblue" stroke="midnightblue" points="946.064,-76.09 955.556,-71.3835 945.201,-69.1435 946.064,-76.09"/>
</g>
<!-- Node9 -->
<g id="node19" class="node"><title>Node9</title>
<a xlink:href="Timer_8h.htm" target="_top" xlink:title="Timer.h">
<polygon fill="white" stroke="black" points="764.347,-58.5 764.347,-79.5 816.347,-79.5 816.347,-58.5 764.347,-58.5"/>
<text text-anchor="middle" x="790.347" y="-66.5" font-family="Helvetica,sans-Serif" font-size="10.00">Timer.h</text>
</a>
</g>
<!-- Node3&#45;&gt;Node9 -->
<g id="edge20" class="edge"><title>Node3&#45;&gt;Node9</title>
<path fill="none" stroke="midnightblue" d="M484.397,-174.475C534.238,-163.934 606.394,-147.896 633.347,-138 653.499,-130.601 656.852,-124.988 676.347,-116 702.258,-104.055 732.088,-91.8084 754.734,-82.812"/>
<polygon fill="midnightblue" stroke="midnightblue" points="756.264,-85.9711 764.28,-79.0432 753.693,-79.4602 756.264,-85.9711"/>
</g>
<!-- Node11 -->
<g id="node25" class="node"><title>Node11</title>
<a xlink:href="SoundPlayer_8h.htm" target="_top" xlink:title="SoundPlayer.h">
<polygon fill="white" stroke="black" points="539.847,-116.5 539.847,-137.5 624.847,-137.5 624.847,-116.5 539.847,-116.5"/>
<text text-anchor="middle" x="582.347" y="-124.5" font-family="Helvetica,sans-Serif" font-size="10.00">SoundPlayer.h</text>
</a>
</g>
<!-- Node3&#45;&gt;Node11 -->
<g id="edge28" class="edge"><title>Node3&#45;&gt;Node11</title>
<path fill="none" stroke="midnightblue" d="M460.33,-174.497C484.201,-165.205 519.241,-151.565 545.654,-141.283"/>
<polygon fill="midnightblue" stroke="midnightblue" points="547.265,-144.412 555.314,-137.523 544.725,-137.889 547.265,-144.412"/>
</g>
<!-- Node7&#45;&gt;Node2 -->
<g id="edge16" class="edge"><title>Node7&#45;&gt;Node2</title>
<path fill="none" stroke="midnightblue" d="M968.36,-58.3619C961.522,-50.2678 951.945,-38.9318 943.875,-29.3796"/>
<polygon fill="midnightblue" stroke="midnightblue" points="946.405,-26.9508 937.278,-21.5707 941.058,-31.4683 946.405,-26.9508"/>
</g>
<!-- Node8 -->
<g id="node17" class="node"><title>Node8</title>
<polygon fill="white" stroke="#bfbfbf" points="1145.85,-0.5 1145.85,-21.5 1186.85,-21.5 1186.85,-0.5 1145.85,-0.5"/>
<text text-anchor="middle" x="1166.35" y="-8.5" font-family="Helvetica,sans-Serif" font-size="10.00">glib.h</text>
</g>
<!-- Node7&#45;&gt;Node8 -->
<g id="edge18" class="edge"><title>Node7&#45;&gt;Node8</title>
<path fill="none" stroke="midnightblue" d="M999.028,-62.3467C1032.76,-51.9945 1097.91,-32.0025 1136.2,-20.2515"/>
<polygon fill="midnightblue" stroke="midnightblue" points="1137.25,-23.5912 1145.78,-17.3114 1135.19,-16.8992 1137.25,-23.5912"/>
</g>
<!-- Node9&#45;&gt;Node2 -->
<g id="edge22" class="edge"><title>Node9&#45;&gt;Node2</title>
<path fill="none" stroke="midnightblue" d="M815.338,-58.4966C837.28,-49.2746 869.413,-35.7695 893.811,-25.5153"/>
<polygon fill="midnightblue" stroke="midnightblue" points="895.213,-28.7225 903.076,-21.6212 892.501,-22.2693 895.213,-28.7225"/>
</g>
<!-- Node9&#45;&gt;Node8 -->
<g id="edge24" class="edge"><title>Node9&#45;&gt;Node8</title>
<path fill="none" stroke="midnightblue" d="M816.592,-60.2329C819.527,-59.4076 822.488,-58.6415 825.347,-58 938.155,-32.6864 1075.2,-18.7909 1135.43,-13.5124"/>
<polygon fill="midnightblue" stroke="midnightblue" points="1136.1,-16.9683 1145.76,-12.6262 1135.5,-9.99388 1136.1,-16.9683"/>
</g>
<!-- Node10 -->
<g id="node23" class="node"><title>Node10</title>
<polygon fill="white" stroke="#bfbfbf" points="1289.35,-0.5 1289.35,-21.5 1339.35,-21.5 1339.35,-0.5 1289.35,-0.5"/>
<text text-anchor="middle" x="1314.35" y="-8.5" font-family="Helvetica,sans-Serif" font-size="10.00">stdint.h</text>
</g>
<!-- Node9&#45;&gt;Node10 -->
<g id="edge26" class="edge"><title>Node9&#45;&gt;Node10</title>
<path fill="none" stroke="midnightblue" d="M816.567,-60.1139C819.506,-59.3109 822.476,-58.5826 825.347,-58 836.494,-55.7386 1168.75,-24.5976 1279.11,-14.2882"/>
<polygon fill="midnightblue" stroke="midnightblue" points="1279.44,-17.772 1289.07,-13.3572 1278.79,-10.8023 1279.44,-17.772"/>
</g>
<!-- Node11&#45;&gt;Node2 -->
<g id="edge30" class="edge"><title>Node11&#45;&gt;Node2</title>
<path fill="none" stroke="midnightblue" d="M604.373,-116.496C624.077,-107.059 653.719,-92.7633 679.347,-80 698.563,-70.4302 702.171,-65.333 722.347,-58 776.811,-38.2048 842.501,-24.9429 884.823,-17.689"/>
<polygon fill="midnightblue" stroke="midnightblue" points="885.512,-21.1224 894.796,-16.0169 884.354,-14.2188 885.512,-21.1224"/>
</g>
<!-- Node11&#45;&gt;Node4 -->
<g id="edge34" class="edge"><title>Node11&#45;&gt;Node4</title>
<path fill="none" stroke="midnightblue" d="M624.885,-122.115C671.946,-115.983 749.93,-103.662 823.589,-80.0352"/>
<polygon fill="midnightblue" stroke="midnightblue" points="825.074,-83.2315 833.481,-76.784 822.888,-76.5814 825.074,-83.2315"/>
</g>
<!-- Node11&#45;&gt;Node5 -->
<g id="edge32" class="edge"><title>Node11&#45;&gt;Node5</title>
<path fill="none" stroke="midnightblue" d="M539.613,-125.14C468.591,-121.348 321.864,-110.535 190.921,-79.9804"/>
<polygon fill="midnightblue" stroke="midnightblue" points="191.66,-76.5586 181.121,-77.6492 190.04,-83.3686 191.66,-76.5586"/>
</g>
<!-- Node11&#45;&gt;Node7 -->
<g id="edge40" class="edge"><title>Node11&#45;&gt;Node7</title>
<path fill="none" stroke="midnightblue" d="M624.995,-120.738C704.689,-109.036 874.532,-84.0969 945.328,-73.7016"/>
<polygon fill="midnightblue" stroke="midnightblue" points="946.036,-77.1352 955.422,-72.2195 945.019,-70.2095 946.036,-77.1352"/>
</g>
<!-- Node11&#45;&gt;Node8 -->
<g id="edge36" class="edge"><title>Node11&#45;&gt;Node8</title>
<path fill="none" stroke="midnightblue" d="M616.256,-116.487C643.248,-107.747 681.768,-94.4429 714.347,-80 733.253,-71.6191 735.611,-64.174 755.347,-58 826.594,-35.7127 1053.16,-18.6289 1135.8,-12.9946"/>
<polygon fill="midnightblue" stroke="midnightblue" points="1136.07,-16.4844 1145.82,-12.3203 1135.6,-9.50026 1136.07,-16.4844"/>
</g>
<!-- Node11&#45;&gt;Node9 -->
<g id="edge48" class="edge"><title>Node11&#45;&gt;Node9</title>
<path fill="none" stroke="midnightblue" d="M620.015,-116.497C658.11,-105.874 716.585,-89.5683 754.147,-79.0944"/>
<polygon fill="midnightblue" stroke="midnightblue" points="755.46,-82.3619 764.152,-76.3044 753.58,-75.6191 755.46,-82.3619"/>
</g>
<!-- Node12 -->
<g id="node31" class="node"><title>Node12</title>
<polygon fill="white" stroke="#bfbfbf" points="608.347,-58.5 608.347,-79.5 670.347,-79.5 670.347,-58.5 608.347,-58.5"/>
<text text-anchor="middle" x="639.347" y="-66.5" font-family="Helvetica,sans-Serif" font-size="10.00">pthread.h</text>
</g>
<!-- Node11&#45;&gt;Node12 -->
<g id="edge38" class="edge"><title>Node11&#45;&gt;Node12</title>
<path fill="none" stroke="midnightblue" d="M592.802,-116.362C600.917,-108.104 612.349,-96.4725 621.851,-86.8029"/>
<polygon fill="midnightblue" stroke="midnightblue" points="624.446,-89.1562 628.959,-79.5707 619.453,-84.2497 624.446,-89.1562"/>
</g>
<!-- Node13 -->
<g id="node34" class="node"><title>Node13</title>
<polygon fill="white" stroke="#bfbfbf" points="197.847,-58.5 197.847,-79.5 326.847,-79.5 326.847,-58.5 197.847,-58.5"/>
<text text-anchor="middle" x="262.347" y="-66.5" font-family="Helvetica,sans-Serif" font-size="10.00">media/LunaConnector.h</text>
</g>
<!-- Node11&#45;&gt;Node13 -->
<g id="edge42" class="edge"><title>Node11&#45;&gt;Node13</title>
<path fill="none" stroke="midnightblue" d="M539.523,-119.238C485.933,-109.525 393.522,-92.7753 330.248,-81.307"/>
<polygon fill="midnightblue" stroke="midnightblue" points="330.818,-77.8533 320.354,-79.5137 329.569,-84.7411 330.818,-77.8533"/>
</g>
<!-- Node14 -->
<g id="node36" class="node"><title>Node14</title>
<polygon fill="white" stroke="#bfbfbf" points="343.847,-58.5 343.847,-79.5 456.847,-79.5 456.847,-58.5 343.847,-58.5"/>
<text text-anchor="middle" x="400.347" y="-66.5" font-family="Helvetica,sans-Serif" font-size="10.00">media/MediaClient.h</text>
</g>
<!-- Node11&#45;&gt;Node14 -->
<g id="edge44" class="edge"><title>Node11&#45;&gt;Node14</title>
<path fill="none" stroke="midnightblue" d="M549.389,-116.497C519.589,-107 475.538,-92.9619 443.051,-82.6087"/>
<polygon fill="midnightblue" stroke="midnightblue" points="443.959,-79.2247 433.368,-79.5231 441.833,-85.8942 443.959,-79.2247"/>
</g>
<!-- Node15 -->
<g id="node38" class="node"><title>Node15</title>
<polygon fill="white" stroke="#bfbfbf" points="474.347,-58.5 474.347,-79.5 590.347,-79.5 590.347,-58.5 474.347,-58.5"/>
<text text-anchor="middle" x="532.347" y="-66.5" font-family="Helvetica,sans-Serif" font-size="10.00">media/MediaPlayer.h</text>
</g>
<!-- Node11&#45;&gt;Node15 -->
<g id="edge46" class="edge"><title>Node11&#45;&gt;Node15</title>
<path fill="none" stroke="midnightblue" d="M573.177,-116.362C566.199,-108.268 556.427,-96.9318 548.192,-87.3796"/>
<polygon fill="midnightblue" stroke="midnightblue" points="550.64,-84.8595 541.46,-79.5707 545.338,-89.4301 550.64,-84.8595"/>
</g>
<!-- Node18&#45;&gt;Node2 -->
<g id="edge56" class="edge"><title>Node18&#45;&gt;Node2</title>
<path fill="none" stroke="midnightblue" d="M933.006,-232.256C935.205,-222.784 938.155,-208.572 939.347,-196 940.271,-186.266 939.677,-183.772 939.347,-174 937.62,-122.75 932.846,-62.5894 930.19,-31.6665"/>
<polygon fill="midnightblue" stroke="midnightblue" points="933.674,-31.3249 929.317,-21.6673 926.7,-31.9338 933.674,-31.3249"/>
</g>
<!-- Node19 -->
<g id="node48" class="node"><title>Node19</title>
<polygon fill="white" stroke="#bfbfbf" points="1113.85,-174.5 1113.85,-195.5 1190.85,-195.5 1190.85,-174.5 1113.85,-174.5"/>
<text text-anchor="middle" x="1152.35" y="-182.5" font-family="Helvetica,sans-Serif" font-size="10.00">PGContext.h</text>
</g>
<!-- Node18&#45;&gt;Node19 -->
<g id="edge58" class="edge"><title>Node18&#45;&gt;Node19</title>
<path fill="none" stroke="midnightblue" d="M966.015,-233.681C1003.38,-223.919 1062.31,-208.523 1103.88,-197.663"/>
<polygon fill="midnightblue" stroke="midnightblue" points="1104.99,-200.989 1113.78,-195.075 1103.22,-194.216 1104.99,-200.989"/>
</g>
<!-- Node20 -->
<g id="node50" class="node"><title>Node20</title>
<polygon fill="white" stroke="#bfbfbf" points="1208.35,-174.5 1208.35,-195.5 1276.35,-195.5 1276.35,-174.5 1208.35,-174.5"/>
<text text-anchor="middle" x="1242.35" y="-182.5" font-family="Helvetica,sans-Serif" font-size="10.00">PContext.h</text>
</g>
<!-- Node18&#45;&gt;Node20 -->
<g id="edge60" class="edge"><title>Node18&#45;&gt;Node20</title>
<path fill="none" stroke="midnightblue" d="M966.198,-237.641C1016.05,-229.992 1109.33,-214.969 1198.17,-196.14"/>
<polygon fill="midnightblue" stroke="midnightblue" points="1199.09,-199.521 1208.14,-194.006 1197.63,-192.676 1199.09,-199.521"/>
</g>
<!-- Node21 -->
<g id="node52" class="node"><title>Node21</title>
<polygon fill="white" stroke="#bfbfbf" points="504.347,-174.5 504.347,-195.5 570.347,-195.5 570.347,-174.5 504.347,-174.5"/>
<text text-anchor="middle" x="537.347" y="-182.5" font-family="Helvetica,sans-Serif" font-size="10.00">PPixmap.h</text>
</g>
<!-- Node18&#45;&gt;Node21 -->
<g id="edge62" class="edge"><title>Node18&#45;&gt;Node21</title>
<path fill="none" stroke="midnightblue" d="M894.738,-239.695C832.804,-233.631 701.114,-219.343 580.846,-196.119"/>
<polygon fill="midnightblue" stroke="midnightblue" points="581.218,-192.626 570.732,-194.14 579.874,-199.496 581.218,-192.626"/>
</g>
<!-- Node22 -->
<g id="node54" class="node"><title>Node22</title>
<a xlink:href="TaskBase_8h.htm" target="_top" xlink:title="TaskBase.h">
<polygon fill="white" stroke="black" points="1024.35,-174.5 1024.35,-195.5 1096.35,-195.5 1096.35,-174.5 1024.35,-174.5"/>
<text text-anchor="middle" x="1060.35" y="-182.5" font-family="Helvetica,sans-Serif" font-size="10.00">TaskBase.h</text>
</a>
</g>
<!-- Node18&#45;&gt;Node22 -->
<g id="edge64" class="edge"><title>Node18&#45;&gt;Node22</title>
<path fill="none" stroke="midnightblue" d="M953.889,-232.497C974.377,-223.356 1004.29,-210.008 1027.2,-199.788"/>
<polygon fill="midnightblue" stroke="midnightblue" points="1028.83,-202.892 1036.54,-195.621 1025.98,-196.499 1028.83,-202.892"/>
</g>
<!-- Node29 -->
<g id="node78" class="node"><title>Node29</title>
<a xlink:href="Mutex_8h.htm" target="_top" xlink:title="Mutex.h">
<polygon fill="white" stroke="black" points="955.847,-116.5 955.847,-137.5 1008.85,-137.5 1008.85,-116.5 955.847,-116.5"/>
<text text-anchor="middle" x="982.347" y="-124.5" font-family="Helvetica,sans-Serif" font-size="10.00">Mutex.h</text>
</a>
</g>
<!-- Node18&#45;&gt;Node29 -->
<g id="edge114" class="edge"><title>Node18&#45;&gt;Node29</title>
<path fill="none" stroke="midnightblue" d="M943.205,-232.444C952.881,-223.729 965.591,-210.478 972.347,-196 979.375,-180.94 981.741,-162.187 982.424,-148.034"/>
<polygon fill="midnightblue" stroke="midnightblue" points="985.928,-147.909 982.668,-137.828 978.93,-147.742 985.928,-147.909"/>
</g>
<!-- Node31 -->
<g id="node89" class="node"><title>Node31</title>
<a xlink:href="CustomEvents_8h.htm" target="_top" xlink:title="CustomEvents.h">
<polygon fill="white" stroke="black" points="102.347,-116.5 102.347,-137.5 194.347,-137.5 194.347,-116.5 102.347,-116.5"/>
<text text-anchor="middle" x="148.347" y="-124.5" font-family="Helvetica,sans-Serif" font-size="10.00">CustomEvents.h</text>
</a>
</g>
<!-- Node18&#45;&gt;Node31 -->
<g id="edge116" class="edge"><title>Node18&#45;&gt;Node31</title>
<path fill="none" stroke="midnightblue" d="M894.711,-241.015C788.046,-234.912 472.446,-215.651 371.347,-196 304.361,-182.98 229.018,-157.236 185.292,-141.139"/>
<polygon fill="midnightblue" stroke="midnightblue" points="186.261,-137.766 175.668,-137.564 183.823,-144.328 186.261,-137.766"/>
</g>
<!-- Node33 -->
<g id="node94" class="node"><title>Node33</title>
<a xlink:href="InputControl_8h.htm" target="_top" xlink:title="InputControl.h">
<polygon fill="white" stroke="black" points="587.847,-174.5 587.847,-195.5 670.847,-195.5 670.847,-174.5 587.847,-174.5"/>
<text text-anchor="middle" x="629.347" y="-182.5" font-family="Helvetica,sans-Serif" font-size="10.00">InputControl.h</text>
</a>
</g>
<!-- Node18&#45;&gt;Node33 -->
<g id="edge122" class="edge"><title>Node18&#45;&gt;Node33</title>
<path fill="none" stroke="midnightblue" d="M894.532,-236.659C847.676,-228.283 762.772,-212.833 681.02,-196.302"/>
<polygon fill="midnightblue" stroke="midnightblue" points="681.565,-192.842 671.068,-194.281 680.172,-199.702 681.565,-192.842"/>
</g>
<!-- Node35 -->
<g id="node98" class="node"><title>Node35</title>
<polygon fill="white" stroke="#bfbfbf" points="687.847,-174.5 687.847,-195.5 812.847,-195.5 812.847,-174.5 687.847,-174.5"/>
<text text-anchor="middle" x="750.347" y="-182.5" font-family="Helvetica,sans-Serif" font-size="10.00">webosDeviceKeymap.h</text>
</g>
<!-- Node18&#45;&gt;Node35 -->
<g id="edge126" class="edge"><title>Node18&#45;&gt;Node35</title>
<path fill="none" stroke="midnightblue" d="M897.751,-232.497C868.279,-223 824.712,-208.962 792.581,-198.609"/>
<polygon fill="midnightblue" stroke="midnightblue" points="793.597,-195.259 783.005,-195.523 791.45,-201.921 793.597,-195.259"/>
</g>
<!-- Node36 -->
<g id="node100" class="node"><title>Node36</title>
<polygon fill="white" stroke="#bfbfbf" points="829.847,-174.5 829.847,-195.5 858.847,-195.5 858.847,-174.5 829.847,-174.5"/>
<text text-anchor="middle" x="844.347" y="-182.5" font-family="Helvetica,sans-Serif" font-size="10.00">Qt</text>
</g>
<!-- Node18&#45;&gt;Node36 -->
<g id="edge128" class="edge"><title>Node18&#45;&gt;Node36</title>
<path fill="none" stroke="midnightblue" d="M914.574,-232.362C901.402,-223.479 882.441,-210.691 867.54,-200.642"/>
<polygon fill="midnightblue" stroke="midnightblue" points="869.123,-197.488 858.875,-194.798 865.209,-203.291 869.123,-197.488"/>
</g>
<!-- Node37 -->
<g id="node102" class="node"><title>Node37</title>
<polygon fill="white" stroke="#bfbfbf" points="876.347,-174.5 876.347,-195.5 930.347,-195.5 930.347,-174.5 876.347,-174.5"/>
<text text-anchor="middle" x="903.347" y="-182.5" font-family="Helvetica,sans-Serif" font-size="10.00">QImage</text>
</g>
<!-- Node18&#45;&gt;Node37 -->
<g id="edge130" class="edge"><title>Node18&#45;&gt;Node37</title>
<path fill="none" stroke="midnightblue" d="M925.395,-232.362C921.817,-224.677 916.879,-214.069 912.583,-204.84"/>
<polygon fill="midnightblue" stroke="midnightblue" points="915.662,-203.159 908.268,-195.571 909.315,-206.114 915.662,-203.159"/>
</g>
<!-- Node22&#45;&gt;Node2 -->
<g id="edge66" class="edge"><title>Node22&#45;&gt;Node2</title>
<path fill="none" stroke="midnightblue" d="M1058.55,-174.419C1054.03,-150.729 1040.12,-92.7753 1007.35,-58 994.839,-44.7268 977.755,-33.9379 962.674,-26.0604"/>
<polygon fill="midnightblue" stroke="midnightblue" points="964.112,-22.8664 953.601,-21.5356 960.988,-29.1307 964.112,-22.8664"/>
</g>
<!-- Node22&#45;&gt;Node4 -->
<g id="edge70" class="edge"><title>Node22&#45;&gt;Node4</title>
<path fill="none" stroke="midnightblue" d="M1029.79,-174.328C1006.58,-165.74 974.177,-152.707 947.347,-138 919.022,-122.473 888.905,-100.62 869.429,-85.6936"/>
<polygon fill="midnightblue" stroke="midnightblue" points="871.57,-82.9249 861.522,-79.5649 867.282,-88.4575 871.57,-82.9249"/>
</g>
<!-- Node22&#45;&gt;Node7 -->
<g id="edge72" class="edge"><title>Node22&#45;&gt;Node7</title>
<path fill="none" stroke="midnightblue" d="M1054.4,-174.4C1046.5,-160.578 1031.84,-135.828 1017.35,-116 1010.16,-106.167 1001.47,-95.7998 994.027,-87.3113"/>
<polygon fill="midnightblue" stroke="midnightblue" points="996.627,-84.9689 987.364,-79.8273 991.399,-89.6235 996.627,-84.9689"/>
</g>
<!-- Node22&#45;&gt;Node8 -->
<g id="edge68" class="edge"><title>Node22&#45;&gt;Node8</title>
<path fill="none" stroke="midnightblue" d="M1085.56,-174.372C1118.32,-159.008 1174.07,-127.162 1197.35,-80 1205.63,-63.2257 1195.09,-43.7569 1184.12,-29.7849"/>
<polygon fill="midnightblue" stroke="midnightblue" points="1186.54,-27.2245 1177.4,-21.869 1181.21,-31.7564 1186.54,-27.2245"/>
</g>
<!-- Node23 -->
<g id="node60" class="node"><title>Node23</title>
<a xlink:href="AsyncCaller_8h.htm" target="_top" xlink:title="AsyncCaller.h">
<polygon fill="white" stroke="black" points="1091.85,-58.5 1091.85,-79.5 1172.85,-79.5 1172.85,-58.5 1091.85,-58.5"/>
<text text-anchor="middle" x="1132.35" y="-66.5" font-family="Helvetica,sans-Serif" font-size="10.00">AsyncCaller.h</text>
</a>
</g>
<!-- Node22&#45;&gt;Node23 -->
<g id="edge74" class="edge"><title>Node22&#45;&gt;Node23</title>
<path fill="none" stroke="midnightblue" d="M1066.99,-174.295C1079.15,-154.7 1105.15,-112.82 1120.44,-88.1913"/>
<polygon fill="midnightblue" stroke="midnightblue" points="1123.42,-90.0214 1125.72,-79.6792 1117.47,-86.3298 1123.42,-90.0214"/>
</g>
<!-- Node24 -->
<g id="node64" class="node"><title>Node24</title>
<a xlink:href="Event_8h.htm" target="_top" xlink:title="Event.h">
<polygon fill="white" stroke="black" points="1443.35,-116.5 1443.35,-137.5 1495.35,-137.5 1495.35,-116.5 1443.35,-116.5"/>
<text text-anchor="middle" x="1469.35" y="-124.5" font-family="Helvetica,sans-Serif" font-size="10.00">Event.h</text>
</a>
</g>
<!-- Node22&#45;&gt;Node24 -->
<g id="edge80" class="edge"><title>Node22&#45;&gt;Node24</title>
<path fill="none" stroke="midnightblue" d="M1096.62,-175.766C1099.57,-175.128 1102.5,-174.53 1105.35,-174 1224.32,-151.849 1367.11,-136.696 1432.9,-130.35"/>
<polygon fill="midnightblue" stroke="midnightblue" points="1433.53,-133.806 1443.15,-129.372 1432.86,-126.837 1433.53,-133.806"/>
</g>
<!-- Node22&#45;&gt;Node29 -->
<g id="edge98" class="edge"><title>Node22&#45;&gt;Node29</title>
<path fill="none" stroke="midnightblue" d="M1046.04,-174.362C1034.5,-165.777 1018.05,-153.546 1004.76,-143.664"/>
<polygon fill="midnightblue" stroke="midnightblue" points="1006.68,-140.729 996.563,-137.571 1002.5,-146.346 1006.68,-140.729"/>
</g>
<!-- Node30 -->
<g id="node83" class="node"><title>Node30</title>
<a xlink:href="SingletonTimer_8h.htm" target="_top" xlink:title="SingletonTimer.h">
<polygon fill="white" stroke="black" points="1266.35,-58.5 1266.35,-79.5 1362.35,-79.5 1362.35,-58.5 1266.35,-58.5"/>
<text text-anchor="middle" x="1314.35" y="-66.5" font-family="Helvetica,sans-Serif" font-size="10.00">SingletonTimer.h</text>
</a>
</g>
<!-- Node22&#45;&gt;Node30 -->
<g id="edge106" class="edge"><title>Node22&#45;&gt;Node30</title>
<path fill="none" stroke="midnightblue" d="M1096.41,-176.189C1151.96,-162.616 1252.13,-138.127 1252.35,-138 1273.14,-125.553 1290.91,-103.9 1302.03,-88.1638"/>
<polygon fill="midnightblue" stroke="midnightblue" points="1305.05,-89.9355 1307.78,-79.6962 1299.26,-86.0033 1305.05,-89.9355"/>
</g>
<!-- Node23&#45;&gt;Node2 -->
<g id="edge76" class="edge"><title>Node23&#45;&gt;Node2</title>
<path fill="none" stroke="midnightblue" d="M1095.4,-58.4966C1060.67,-48.6199 1008.65,-33.8304 971.902,-23.3833"/>
<polygon fill="midnightblue" stroke="midnightblue" points="972.546,-19.9277 961.97,-20.5595 970.632,-26.6609 972.546,-19.9277"/>
</g>
<!-- Node23&#45;&gt;Node8 -->
<g id="edge78" class="edge"><title>Node23&#45;&gt;Node8</title>
<path fill="none" stroke="midnightblue" d="M1138.58,-58.3619C1143.18,-50.5131 1149.57,-39.6159 1155.06,-30.2527"/>
<polygon fill="midnightblue" stroke="midnightblue" points="1158.11,-31.9677 1160.15,-21.5707 1152.07,-28.4276 1158.11,-31.9677"/>
</g>
<!-- Node24&#45;&gt;Node2 -->
<g id="edge82" class="edge"><title>Node24&#45;&gt;Node2</title>
<path fill="none" stroke="midnightblue" d="M1443.27,-125.023C1367.97,-119.126 1151.21,-100.772 1083.35,-80 1062.82,-73.7168 1059.81,-67.0487 1040.35,-58 1015.36,-46.3859 986.704,-34.3834 964.632,-25.4147"/>
<polygon fill="midnightblue" stroke="midnightblue" points="965.882,-22.1449 955.299,-21.6434 963.259,-28.6351 965.882,-22.1449"/>
</g>
<!-- Node24&#45;&gt;Node7 -->
<g id="edge96" class="edge"><title>Node24&#45;&gt;Node7</title>
<path fill="none" stroke="midnightblue" d="M1443.32,-124.426C1377.44,-117.837 1198.76,-99.4991 1050.35,-80 1036.85,-78.2261 1021.98,-76.0299 1009.2,-74.0674"/>
<polygon fill="midnightblue" stroke="midnightblue" points="1009.46,-70.5652 999.038,-72.4884 1008.38,-77.4822 1009.46,-70.5652"/>
</g>
<!-- Node24&#45;&gt;Node8 -->
<g id="edge86" class="edge"><title>Node24&#45;&gt;Node8</title>
<path fill="none" stroke="midnightblue" d="M1495.75,-125.991C1553.07,-123.19 1685.95,-113.181 1713.35,-80 1719.57,-72.4605 1719.97,-65.1947 1713.35,-58 1680.66,-22.4769 1328.43,-26.3185 1280.35,-22 1252.14,-19.4665 1220.03,-16.3468 1197.09,-14.0776"/>
<polygon fill="midnightblue" stroke="midnightblue" points="1197.23,-10.5745 1186.93,-13.0692 1196.54,-17.5402 1197.23,-10.5745"/>
</g>
<!-- Node24&#45;&gt;Node10 -->
<g id="edge84" class="edge"><title>Node24&#45;&gt;Node10</title>
<path fill="none" stroke="midnightblue" d="M1495.54,-124.47C1561.47,-117.839 1730.18,-99.1446 1746.35,-80 1752.66,-72.5301 1752.88,-65.2782 1746.35,-58 1719.98,-28.606 1447.78,-15.8544 1349.5,-12.1843"/>
<polygon fill="midnightblue" stroke="midnightblue" points="1349.59,-8.68534 1339.47,-11.8189 1349.33,-15.6807 1349.59,-8.68534"/>
</g>
<!-- Node25 -->
<g id="node69" class="node"><title>Node25</title>
<polygon fill="white" stroke="#bfbfbf" points="1379.85,-58.5 1379.85,-79.5 1426.85,-79.5 1426.85,-58.5 1379.85,-58.5"/>
<text text-anchor="middle" x="1403.35" y="-66.5" font-family="Helvetica,sans-Serif" font-size="10.00">stdio.h</text>
</g>
<!-- Node24&#45;&gt;Node25 -->
<g id="edge88" class="edge"><title>Node24&#45;&gt;Node25</title>
<path fill="none" stroke="midnightblue" d="M1457.24,-116.362C1447.66,-107.941 1434.08,-96.0105 1422.95,-86.2308"/>
<polygon fill="midnightblue" stroke="midnightblue" points="1425.2,-83.5427 1415.38,-79.5707 1420.58,-88.8009 1425.2,-83.5427"/>
</g>
<!-- Node26 -->
<g id="node71" class="node"><title>Node26</title>
<polygon fill="white" stroke="#bfbfbf" points="1443.85,-58.5 1443.85,-79.5 1494.85,-79.5 1494.85,-58.5 1443.85,-58.5"/>
<text text-anchor="middle" x="1469.35" y="-66.5" font-family="Helvetica,sans-Serif" font-size="10.00">string.h</text>
</g>
<!-- Node24&#45;&gt;Node26 -->
<g id="edge90" class="edge"><title>Node24&#45;&gt;Node26</title>
<path fill="none" stroke="midnightblue" d="M1469.35,-116.362C1469.35,-108.922 1469.35,-98.7427 1469.35,-89.7276"/>
<polygon fill="midnightblue" stroke="midnightblue" points="1472.85,-89.5706 1469.35,-79.5707 1465.85,-89.5707 1472.85,-89.5706"/>
</g>
<!-- Node27 -->
<g id="node73" class="node"><title>Node27</title>
<polygon fill="white" stroke="#bfbfbf" points="1512.35,-58.5 1512.35,-79.5 1598.35,-79.5 1598.35,-58.5 1512.35,-58.5"/>
<text text-anchor="middle" x="1555.35" y="-66.5" font-family="Helvetica,sans-Serif" font-size="10.00">qnamespace.h</text>
</g>
<!-- Node24&#45;&gt;Node27 -->
<g id="edge92" class="edge"><title>Node24&#45;&gt;Node27</title>
<path fill="none" stroke="midnightblue" d="M1485.12,-116.362C1497.97,-107.696 1516.33,-95.3126 1531.06,-85.3819"/>
<polygon fill="midnightblue" stroke="midnightblue" points="1533.34,-88.0639 1539.67,-79.5707 1529.43,-82.2604 1533.34,-88.0639"/>
</g>
<!-- Node28 -->
<g id="node75" class="node"><title>Node28</title>
<polygon fill="white" stroke="#bfbfbf" points="1616.35,-58.5 1616.35,-79.5 1704.35,-79.5 1704.35,-58.5 1616.35,-58.5"/>
<text text-anchor="middle" x="1660.35" y="-66.5" font-family="Helvetica,sans-Serif" font-size="10.00">SysMgrEvent.h</text>
</g>
<!-- Node24&#45;&gt;Node28 -->
<g id="edge94" class="edge"><title>Node24&#45;&gt;Node28</title>
<path fill="none" stroke="midnightblue" d="M1495.5,-119.057C1526.45,-109.659 1578.49,-93.8585 1615.82,-82.522"/>
<polygon fill="midnightblue" stroke="midnightblue" points="1616.9,-85.8522 1625.45,-79.5975 1614.86,-79.1542 1616.9,-85.8522"/>
</g>
<!-- Node29&#45;&gt;Node2 -->
<g id="edge100" class="edge"><title>Node29&#45;&gt;Node2</title>
<path fill="none" stroke="midnightblue" d="M972.444,-116.187C964.622,-107.124 953.956,-93.5291 947.347,-80 939.86,-64.6719 934.939,-45.9384 931.985,-31.8611"/>
<polygon fill="midnightblue" stroke="midnightblue" points="935.359,-30.8782 930.026,-21.7237 928.487,-32.2061 935.359,-30.8782"/>
</g>
<!-- Node29&#45;&gt;Node7 -->
<g id="edge102" class="edge"><title>Node29&#45;&gt;Node7</title>
<path fill="none" stroke="midnightblue" d="M981.43,-116.362C980.789,-108.922 979.911,-98.7427 979.134,-89.7276"/>
<polygon fill="midnightblue" stroke="midnightblue" points="982.605,-89.2331 978.259,-79.5707 975.631,-89.8343 982.605,-89.2331"/>
</g>
<!-- Node29&#45;&gt;Node8 -->
<g id="edge104" class="edge"><title>Node29&#45;&gt;Node8</title>
<path fill="none" stroke="midnightblue" d="M1009.09,-124.705C1058.31,-119.867 1160.14,-106.794 1181.35,-80 1192.46,-65.9633 1186.01,-45.4914 1178.43,-30.4918"/>
<polygon fill="midnightblue" stroke="midnightblue" points="1181.37,-28.5837 1173.45,-21.5477 1175.25,-31.9878 1181.37,-28.5837"/>
</g>
<!-- Node30&#45;&gt;Node2 -->
<g id="edge108" class="edge"><title>Node30&#45;&gt;Node2</title>
<path fill="none" stroke="midnightblue" d="M1266.24,-61.7715C1190.64,-50.4112 1045.12,-28.5465 972.223,-17.5928"/>
<polygon fill="midnightblue" stroke="midnightblue" points="972.421,-14.0832 962.012,-16.0584 971.381,-21.0055 972.421,-14.0832"/>
</g>
<!-- Node30&#45;&gt;Node8 -->
<g id="edge110" class="edge"><title>Node30&#45;&gt;Node8</title>
<path fill="none" stroke="midnightblue" d="M1287.55,-58.4966C1261.99,-48.4811 1223.54,-33.414 1196.83,-22.9456"/>
<polygon fill="midnightblue" stroke="midnightblue" points="1197.81,-19.5689 1187.22,-19.1788 1195.25,-26.0863 1197.81,-19.5689"/>
</g>
<!-- Node30&#45;&gt;Node10 -->
<g id="edge112" class="edge"><title>Node30&#45;&gt;Node10</title>
<path fill="none" stroke="midnightblue" d="M1314.35,-58.3619C1314.35,-50.9219 1314.35,-40.7427 1314.35,-31.7276"/>
<polygon fill="midnightblue" stroke="midnightblue" points="1317.85,-31.5706 1314.35,-21.5707 1310.85,-31.5707 1317.85,-31.5706"/>
</g>
<!-- Node31&#45;&gt;Node2 -->
<g id="edge118" class="edge"><title>Node31&#45;&gt;Node2</title>
<path fill="none" stroke="midnightblue" d="M104.584,-116.497C71.9056,-107.665 31.2541,-94.2297 21.3473,-80 15.7606,-71.9754 14.6147,-65.0906 21.3473,-58 51.3863,-26.3641 707.513,-14.2987 884.626,-11.6116"/>
<polygon fill="midnightblue" stroke="midnightblue" points="884.684,-15.1112 894.631,-11.4621 884.58,-8.11198 884.684,-15.1112"/>
</g>
<!-- Node32 -->
<g id="node92" class="node"><title>Node32</title>
<polygon fill="white" stroke="#bfbfbf" points="30.3473,-58.5 30.3473,-79.5 82.3473,-79.5 82.3473,-58.5 30.3473,-58.5"/>
<text text-anchor="middle" x="56.3473" y="-66.5" font-family="Helvetica,sans-Serif" font-size="10.00">QEvent</text>
</g>
<!-- Node31&#45;&gt;Node32 -->
<g id="edge120" class="edge"><title>Node31&#45;&gt;Node32</title>
<path fill="none" stroke="midnightblue" d="M131.473,-116.362C117.597,-107.614 97.7134,-95.0786 81.8876,-85.1015"/>
<polygon fill="midnightblue" stroke="midnightblue" points="83.4404,-81.943 73.1146,-79.5707 79.7073,-87.8645 83.4404,-81.943"/>
</g>
<!-- Node34 -->
<g id="node96" class="node"><title>Node34</title>
<polygon fill="white" stroke="#bfbfbf" points="756.347,-116.5 756.347,-137.5 812.347,-137.5 812.347,-116.5 756.347,-116.5"/>
<text text-anchor="middle" x="784.347" y="-124.5" font-family="Helvetica,sans-Serif" font-size="10.00">hal/hal.h</text>
</g>
<!-- Node33&#45;&gt;Node34 -->
<g id="edge124" class="edge"><title>Node33&#45;&gt;Node34</title>
<path fill="none" stroke="midnightblue" d="M657.417,-174.497C682.358,-165.164 719.021,-151.445 746.539,-141.147"/>
<polygon fill="midnightblue" stroke="midnightblue" points="748.086,-144.306 756.225,-137.523 745.633,-137.75 748.086,-144.306"/>
</g>
<!-- Node38&#45;&gt;Node2 -->
<g id="edge134" class="edge"><title>Node38&#45;&gt;Node2</title>
<path fill="none" stroke="midnightblue" d="M106.79,-176.188C71.0681,-167.672 23.5812,-153.768 12.3473,-138 3.05084,-124.951 -9.66336,-81.8086 13.3473,-58 43.9486,-26.3376 706.375,-14.2829 884.552,-11.6066"/>
<polygon fill="midnightblue" stroke="midnightblue" points="884.667,-15.1054 894.614,-11.4578 884.564,-8.10618 884.667,-15.1054"/>
</g>
<!-- Node38&#45;&gt;Node5 -->
<g id="edge136" class="edge"><title>Node38&#45;&gt;Node5</title>
<path fill="none" stroke="midnightblue" d="M106.573,-178.615C60.6693,-169.733 -3.48223,-150.687 21.3473,-116 33.8842,-98.4862 90.7488,-83.4855 127.458,-75.3977"/>
<polygon fill="midnightblue" stroke="midnightblue" points="128.632,-78.7256 137.678,-73.2089 127.166,-71.8808 128.632,-78.7256"/>
</g>
<!-- Node38&#45;&gt;Node6 -->
<g id="edge138" class="edge"><title>Node38&#45;&gt;Node6</title>
<path fill="none" stroke="midnightblue" d="M167.239,-174.362C183.065,-165.45 205.87,-152.609 223.742,-142.545"/>
<polygon fill="midnightblue" stroke="midnightblue" points="225.579,-145.527 232.575,-137.571 222.144,-139.428 225.579,-145.527"/>
</g>
<!-- Node38&#45;&gt;Node29 -->
<g id="edge140" class="edge"><title>Node38&#45;&gt;Node29</title>
<path fill="none" stroke="midnightblue" d="M189.991,-182.104C333.874,-172.098 808.69,-139.077 945.286,-129.577"/>
<polygon fill="midnightblue" stroke="midnightblue" points="945.893,-133.044 955.626,-128.858 945.407,-126.061 945.893,-133.044"/>
</g>
<!-- Node38&#45;&gt;Node31 -->
<g id="edge142" class="edge"><title>Node38&#45;&gt;Node31</title>
<path fill="none" stroke="midnightblue" d="M148.347,-174.362C148.347,-166.922 148.347,-156.743 148.347,-147.728"/>
<polygon fill="midnightblue" stroke="midnightblue" points="151.847,-147.571 148.347,-137.571 144.847,-147.571 151.847,-147.571"/>
</g>
<!-- Node39 -->
<g id="node111" class="node"><title>Node39</title>
<polygon fill="white" stroke="#bfbfbf" points="29.8473,-116.5 29.8473,-137.5 84.8473,-137.5 84.8473,-116.5 29.8473,-116.5"/>
<text text-anchor="middle" x="57.3473" y="-124.5" font-family="Helvetica,sans-Serif" font-size="10.00">QObject</text>
</g>
<!-- Node38&#45;&gt;Node39 -->
<g id="edge144" class="edge"><title>Node38&#45;&gt;Node39</title>
<path fill="none" stroke="midnightblue" d="M131.657,-174.362C117.931,-165.614 98.2637,-153.079 82.61,-143.101"/>
<polygon fill="midnightblue" stroke="midnightblue" points="84.2463,-139.994 73.9323,-137.571 80.484,-145.897 84.2463,-139.994"/>
</g>
</g>
</svg>
