<?xml version="1.0" encoding="UTF-8" standalone="no"?>
<!DOCTYPE svg PUBLIC "-//W3C//DTD SVG 1.1//EN"
 "http://www.w3.org/Graphics/SVG/1.1/DTD/svg11.dtd">
<!-- Generated by graphviz version 2.26.3 (20100126.1600)
 -->
<!-- Title: G Pages: 1 -->
<svg width="1876pt" height="204pt"
 viewBox="0.00 0.00 1876.00 204.00" xmlns="http://www.w3.org/2000/svg" xmlns:xlink="http://www.w3.org/1999/xlink">
<g id="graph1" class="graph" transform="scale(1 1) rotate(0) translate(4 200)">
<title>G</title>
<polygon fill="white" stroke="white" points="-4,5 -4,-200 1873,-200 1873,5 -4,5"/>
<!-- Node1 -->
<g id="node1" class="node"><title>Node1</title>
<polygon fill="#bfbfbf" stroke="black" points="948,-174.5 948,-195.5 1054,-195.5 1054,-174.5 948,-174.5"/>
<text text-anchor="middle" x="1001" y="-182.5" font-family="Helvetica,sans-Serif" font-size="10.00">SoundPlayerPool.h</text>
</g>
<!-- Node2 -->
<g id="node3" class="node"><title>Node2</title>
<a xlink:href="SystemUiController_8cpp.htm" target="_top" xlink:title="SystemUiController.cpp">
<polygon fill="white" stroke="black" points="-0.5,-116.5 -0.5,-137.5 126.5,-137.5 126.5,-116.5 -0.5,-116.5"/>
<text text-anchor="middle" x="63" y="-124.5" font-family="Helvetica,sans-Serif" font-size="10.00">SystemUiController.cpp</text>
</a>
</g>
<!-- Node1&#45;&gt;Node2 -->
<g id="edge2" class="edge"><title>Node1&#45;&gt;Node2</title>
<path fill="none" stroke="midnightblue" d="M937.277,-183.665C793.719,-180.193 434.171,-168.898 135,-138 132.233,-137.714 129.409,-137.396 126.56,-137.054"/>
<polygon fill="midnightblue" stroke="midnightblue" points="937.564,-187.173 947.644,-183.911 937.73,-180.175 937.564,-187.173"/>
</g>
<!-- Node3 -->
<g id="node5" class="node"><title>Node3</title>
<a xlink:href="WindowServer_8cpp.htm" target="_top" xlink:title="WindowServer.cpp">
<polygon fill="white" stroke="black" points="143.5,-116.5 143.5,-137.5 248.5,-137.5 248.5,-116.5 143.5,-116.5"/>
<text text-anchor="middle" x="196" y="-124.5" font-family="Helvetica,sans-Serif" font-size="10.00">WindowServer.cpp</text>
</a>
</g>
<!-- Node1&#45;&gt;Node3 -->
<g id="edge4" class="edge"><title>Node1&#45;&gt;Node3</title>
<path fill="none" stroke="midnightblue" d="M937.501,-183.456C808.736,-179.783 507.814,-168.434 257,-138 254.222,-137.663 251.38,-137.281 248.514,-136.867"/>
<polygon fill="midnightblue" stroke="midnightblue" points="937.485,-186.957 947.579,-183.738 937.681,-179.96 937.485,-186.957"/>
</g>
<!-- Node4 -->
<g id="node7" class="node"><title>Node4</title>
<a xlink:href="SysmgrIMEDataInterface_8cpp.htm" target="_top" xlink:title="SysmgrIMEDataInterface.cpp">
<polygon fill="white" stroke="black" points="265.5,-116.5 265.5,-137.5 420.5,-137.5 420.5,-116.5 265.5,-116.5"/>
<text text-anchor="middle" x="343" y="-124.5" font-family="Helvetica,sans-Serif" font-size="10.00">SysmgrIMEDataInterface.cpp</text>
</a>
</g>
<!-- Node1&#45;&gt;Node4 -->
<g id="edge6" class="edge"><title>Node1&#45;&gt;Node4</title>
<path fill="none" stroke="midnightblue" d="M937.522,-180.726C831.882,-173.403 613.372,-157.356 429,-138 426.305,-137.717 423.565,-137.42 420.797,-137.111"/>
<polygon fill="midnightblue" stroke="midnightblue" points="937.478,-184.231 947.695,-181.429 937.96,-177.248 937.478,-184.231"/>
</g>
<!-- Node5 -->
<g id="node9" class="node"><title>Node5</title>
<a xlink:href="CardWindowManager_8cpp.htm" target="_top" xlink:title="CardWindowManager.cpp">
<polygon fill="white" stroke="black" points="438,-116.5 438,-137.5 578,-137.5 578,-116.5 438,-116.5"/>
<text text-anchor="middle" x="508" y="-124.5" font-family="Helvetica,sans-Serif" font-size="10.00">CardWindowManager.cpp</text>
</a>
</g>
<!-- Node1&#45;&gt;Node5 -->
<g id="edge8" class="edge"><title>Node1&#45;&gt;Node5</title>
<path fill="none" stroke="midnightblue" d="M937.614,-178.308C856.332,-169.611 711.052,-153.676 587,-138 584.115,-137.635 581.172,-137.257 578.199,-136.868"/>
<polygon fill="midnightblue" stroke="midnightblue" points="937.37,-181.802 947.685,-179.384 938.114,-174.841 937.37,-181.802"/>
</g>
<!-- Node6 -->
<g id="node11" class="node"><title>Node6</title>
<a xlink:href="CardWindowManagerStates_8cpp.htm" target="_top" xlink:title="CardWindowManagerStates.cpp">
<polygon fill="white" stroke="black" points="596,-116.5 596,-137.5 766,-137.5 766,-116.5 596,-116.5"/>
<text text-anchor="middle" x="681" y="-124.5" font-family="Helvetica,sans-Serif" font-size="10.00">CardWindowManagerStates.cpp</text>
</a>
</g>
<!-- Node1&#45;&gt;Node6 -->
<g id="edge10" class="edge"><title>Node1&#45;&gt;Node6</title>
<path fill="none" stroke="midnightblue" d="M937.684,-173.524C879.84,-163.04 795.022,-147.667 738.933,-137.5"/>
<polygon fill="midnightblue" stroke="midnightblue" points="937.335,-177.018 947.799,-175.357 938.584,-170.13 937.335,-177.018"/>
</g>
<!-- Node7 -->
<g id="node13" class="node"><title>Node7</title>
<a xlink:href="GestureFeedbackItem_8cpp.htm" target="_top" xlink:title="GestureFeedbackItem.cpp">
<polygon fill="white" stroke="black" points="784,-116.5 784,-137.5 924,-137.5 924,-116.5 784,-116.5"/>
<text text-anchor="middle" x="854" y="-124.5" font-family="Helvetica,sans-Serif" font-size="10.00">GestureFeedbackItem.cpp</text>
</a>
</g>
<!-- Node1&#45;&gt;Node7 -->
<g id="edge12" class="edge"><title>Node1&#45;&gt;Node7</title>
<path fill="none" stroke="midnightblue" d="M964.886,-170.751C938.927,-160.509 904.488,-146.921 880.919,-137.621"/>
<polygon fill="midnightblue" stroke="midnightblue" points="963.793,-174.082 974.379,-174.497 966.362,-167.571 963.793,-174.082"/>
</g>
<!-- Node8 -->
<g id="node15" class="node"><title>Node8</title>
<a xlink:href="BannerMessageHandler_8h.htm" target="_top" xlink:title="BannerMessageHandler.h">
<polygon fill="white" stroke="black" points="980,-116.5 980,-137.5 1120,-137.5 1120,-116.5 980,-116.5"/>
<text text-anchor="middle" x="1050" y="-124.5" font-family="Helvetica,sans-Serif" font-size="10.00">BannerMessageHandler.h</text>
</a>
</g>
<!-- Node1&#45;&gt;Node8 -->
<g id="edge14" class="edge"><title>Node1&#45;&gt;Node8</title>
<path fill="none" stroke="midnightblue" d="M1016.59,-166.541C1024.67,-156.979 1034.25,-145.647 1041.07,-137.571"/>
<polygon fill="midnightblue" stroke="midnightblue" points="1013.77,-164.464 1009.99,-174.362 1019.11,-168.982 1013.77,-164.464"/>
</g>
<!-- Node12 -->
<g id="node23" class="node"><title>Node12</title>
<a xlink:href="AlertWindow_8cpp.htm" target="_top" xlink:title="AlertWindow.cpp">
<polygon fill="white" stroke="black" points="540.5,-58.5 540.5,-79.5 635.5,-79.5 635.5,-58.5 540.5,-58.5"/>
<text text-anchor="middle" x="588" y="-66.5" font-family="Helvetica,sans-Serif" font-size="10.00">AlertWindow.cpp</text>
</a>
</g>
<!-- Node1&#45;&gt;Node12 -->
<g id="edge40" class="edge"><title>Node1&#45;&gt;Node12</title>
<path fill="none" stroke="midnightblue" d="M988.176,-166.186C976.004,-149.973 956.162,-127.427 933,-116 816.921,-58.7323 771.806,-100.487 644,-80 641.261,-79.5609 638.451,-79.0863 635.618,-78.5891"/>
<polygon fill="midnightblue" stroke="midnightblue" points="985.433,-168.367 994.12,-174.432 991.111,-164.273 985.433,-168.367"/>
</g>
<!-- Node13 -->
<g id="node25" class="node"><title>Node13</title>
<a xlink:href="BannerMessageHandler_8cpp.htm" target="_top" xlink:title="BannerMessageHandler.cpp">
<polygon fill="white" stroke="black" points="1477,-58.5 1477,-79.5 1629,-79.5 1629,-58.5 1477,-58.5"/>
<text text-anchor="middle" x="1553" y="-66.5" font-family="Helvetica,sans-Serif" font-size="10.00">BannerMessageHandler.cpp</text>
</a>
</g>
<!-- Node1&#45;&gt;Node13 -->
<g id="edge42" class="edge"><title>Node1&#45;&gt;Node13</title>
<path fill="none" stroke="midnightblue" d="M1044.16,-171.236C1069.34,-162.694 1101.47,-150.906 1129,-138 1146.67,-129.717 1148.49,-122.174 1167,-116 1294.81,-73.3731 1334.3,-96.646 1468,-80 1470.81,-79.6507 1473.66,-79.2927 1476.55,-78.9291"/>
<polygon fill="midnightblue" stroke="midnightblue" points="1042.9,-167.967 1034.52,-174.461 1045.12,-174.605 1042.9,-167.967"/>
</g>
<!-- Node21 -->
<g id="node43" class="node"><title>Node21</title>
<a xlink:href="VolumeControlAlertWindow_8cpp.htm" target="_top" xlink:title="VolumeControlAlertWindow.cpp">
<polygon fill="white" stroke="black" points="1176,-116.5 1176,-137.5 1340,-137.5 1340,-116.5 1176,-116.5"/>
<text text-anchor="middle" x="1258" y="-124.5" font-family="Helvetica,sans-Serif" font-size="10.00">VolumeControlAlertWindow.cpp</text>
</a>
</g>
<!-- Node1&#45;&gt;Node21 -->
<g id="edge44" class="edge"><title>Node1&#45;&gt;Node21</title>
<path fill="none" stroke="midnightblue" d="M1057.39,-172.274C1103.56,-161.855 1168.09,-147.292 1211.37,-137.523"/>
<polygon fill="midnightblue" stroke="midnightblue" points="1056.52,-168.881 1047.54,-174.497 1058.07,-175.709 1056.52,-168.881"/>
</g>
<!-- Node22 -->
<g id="node45" class="node"><title>Node22</title>
<a xlink:href="StatusBarBattery_8cpp.htm" target="_top" xlink:title="StatusBarBattery.cpp">
<polygon fill="white" stroke="black" points="1358,-116.5 1358,-137.5 1474,-137.5 1474,-116.5 1358,-116.5"/>
<text text-anchor="middle" x="1416" y="-124.5" font-family="Helvetica,sans-Serif" font-size="10.00">StatusBarBattery.cpp</text>
</a>
</g>
<!-- Node1&#45;&gt;Node22 -->
<g id="edge46" class="edge"><title>Node1&#45;&gt;Node22</title>
<path fill="none" stroke="midnightblue" d="M1064.08,-177.029C1133.86,-168.085 1249.58,-152.872 1349,-138 1351.91,-137.564 1354.9,-137.108 1357.91,-136.641"/>
<polygon fill="midnightblue" stroke="midnightblue" points="1063.6,-173.562 1054.13,-178.303 1064.49,-180.505 1063.6,-173.562"/>
</g>
<!-- Node23 -->
<g id="node47" class="node"><title>Node23</title>
<a xlink:href="StatusBarSeparator_8cpp.htm" target="_top" xlink:title="StatusBarSeparator.cpp">
<polygon fill="white" stroke="black" points="1491.5,-116.5 1491.5,-137.5 1620.5,-137.5 1620.5,-116.5 1491.5,-116.5"/>
<text text-anchor="middle" x="1556" y="-124.5" font-family="Helvetica,sans-Serif" font-size="10.00">StatusBarSeparator.cpp</text>
</a>
</g>
<!-- Node1&#45;&gt;Node23 -->
<g id="edge48" class="edge"><title>Node1&#45;&gt;Node23</title>
<path fill="none" stroke="midnightblue" d="M1064.25,-179.896C1156.48,-172.211 1333.21,-156.575 1483,-138 1485.67,-137.669 1488.4,-137.318 1491.15,-136.953"/>
<polygon fill="midnightblue" stroke="midnightblue" points="1063.91,-176.411 1054.24,-180.726 1064.49,-183.387 1063.91,-176.411"/>
</g>
<!-- Node24 -->
<g id="node49" class="node"><title>Node24</title>
<a xlink:href="SoundPlayer_8cpp.htm" target="_top" xlink:title="SoundPlayer.cpp">
<polygon fill="white" stroke="black" points="1638,-116.5 1638,-137.5 1734,-137.5 1734,-116.5 1638,-116.5"/>
<text text-anchor="middle" x="1686" y="-124.5" font-family="Helvetica,sans-Serif" font-size="10.00">SoundPlayer.cpp</text>
</a>
</g>
<!-- Node1&#45;&gt;Node24 -->
<g id="edge50" class="edge"><title>Node1&#45;&gt;Node24</title>
<path fill="none" stroke="midnightblue" d="M1064.39,-182.687C1177.98,-178.003 1423.55,-165.419 1629,-138 1631.9,-137.613 1634.87,-137.173 1637.86,-136.697"/>
<polygon fill="midnightblue" stroke="midnightblue" points="1064,-179.201 1054.15,-183.103 1064.28,-186.195 1064,-179.201"/>
</g>
<!-- Node25 -->
<g id="node51" class="node"><title>Node25</title>
<a xlink:href="SoundPlayerPool_8cpp.htm" target="_top" xlink:title="SoundPlayerPool.cpp">
<polygon fill="white" stroke="black" points="1751.5,-116.5 1751.5,-137.5 1868.5,-137.5 1868.5,-116.5 1751.5,-116.5"/>
<text text-anchor="middle" x="1810" y="-124.5" font-family="Helvetica,sans-Serif" font-size="10.00">SoundPlayerPool.cpp</text>
</a>
</g>
<!-- Node1&#45;&gt;Node25 -->
<g id="edge52" class="edge"><title>Node1&#45;&gt;Node25</title>
<path fill="none" stroke="midnightblue" d="M1064.29,-183.114C1192.64,-178.822 1492.63,-166.411 1743,-138 1745.69,-137.694 1748.44,-137.355 1751.22,-136.99"/>
<polygon fill="midnightblue" stroke="midnightblue" points="1064.12,-179.618 1054.24,-183.445 1064.35,-186.614 1064.12,-179.618"/>
</g>
<!-- Node9 -->
<g id="node17" class="node"><title>Node9</title>
<a xlink:href="KeyLocationRecorder_8cpp.htm" target="_top" xlink:title="KeyLocationRecorder.cpp">
<polygon fill="white" stroke="black" points="652.5,-58.5 652.5,-79.5 791.5,-79.5 791.5,-58.5 652.5,-58.5"/>
<text text-anchor="middle" x="722" y="-66.5" font-family="Helvetica,sans-Serif" font-size="10.00">KeyLocationRecorder.cpp</text>
</a>
</g>
<!-- Node8&#45;&gt;Node9 -->
<g id="edge16" class="edge"><title>Node8&#45;&gt;Node9</title>
<path fill="none" stroke="midnightblue" d="M980.609,-114.73C921.533,-104.283 837.566,-89.4354 781.51,-79.5231"/>
<polygon fill="midnightblue" stroke="midnightblue" points="980.145,-118.202 990.602,-116.497 981.364,-111.309 980.145,-118.202"/>
</g>
<!-- Node10 -->
<g id="node19" class="node"><title>Node10</title>
<a xlink:href="CardHostWindow_8cpp.htm" target="_top" xlink:title="CardHostWindow.cpp">
<polygon fill="white" stroke="black" points="808.5,-58.5 808.5,-79.5 927.5,-79.5 927.5,-58.5 808.5,-58.5"/>
<text text-anchor="middle" x="868" y="-66.5" font-family="Helvetica,sans-Serif" font-size="10.00">CardHostWindow.cpp</text>
</a>
</g>
<!-- Node8&#45;&gt;Node10 -->
<g id="edge18" class="edge"><title>Node8&#45;&gt;Node10</title>
<path fill="none" stroke="midnightblue" d="M1007.36,-113.413C974.892,-103.065 930.84,-89.0258 901.021,-79.5231"/>
<polygon fill="midnightblue" stroke="midnightblue" points="1006.45,-116.795 1017.04,-116.497 1008.58,-110.125 1006.45,-116.795"/>
</g>
<!-- Node11 -->
<g id="node21" class="node"><title>Node11</title>
<a xlink:href="LockWindow_8cpp.htm" target="_top" xlink:title="LockWindow.cpp">
<polygon fill="white" stroke="black" points="945,-58.5 945,-79.5 1041,-79.5 1041,-58.5 945,-58.5"/>
<text text-anchor="middle" x="993" y="-66.5" font-family="Helvetica,sans-Serif" font-size="10.00">LockWindow.cpp</text>
</a>
</g>
<!-- Node8&#45;&gt;Node11 -->
<g id="edge20" class="edge"><title>Node8&#45;&gt;Node11</title>
<path fill="none" stroke="midnightblue" d="M1032.43,-109.118C1022.91,-99.4377 1011.49,-87.8098 1003.39,-79.5707"/>
<polygon fill="midnightblue" stroke="midnightblue" points="1030.04,-111.683 1039.55,-116.362 1035.03,-106.776 1030.04,-111.683"/>
</g>
<!-- Node8&#45;&gt;Node12 -->
<g id="edge22" class="edge"><title>Node8&#45;&gt;Node12</title>
<path fill="none" stroke="midnightblue" d="M969.849,-116.47C968.557,-116.311 967.273,-116.154 966,-116 823.046,-98.6503 786.328,-101.897 644,-80 641.258,-79.5782 638.446,-79.117 635.612,-78.6302"/>
<polygon fill="midnightblue" stroke="midnightblue" points="969.531,-119.957 979.886,-117.718 970.394,-113.011 969.531,-119.957"/>
</g>
<!-- Node8&#45;&gt;Node13 -->
<g id="edge24" class="edge"><title>Node8&#45;&gt;Node13</title>
<path fill="none" stroke="midnightblue" d="M1130.15,-116.463C1131.44,-116.306 1132.73,-116.152 1134,-116 1282.25,-98.3057 1319.73,-97.582 1468,-80 1470.81,-79.6671 1473.67,-79.323 1476.55,-78.9712"/>
<polygon fill="midnightblue" stroke="midnightblue" points="1129.61,-113.003 1120.11,-117.697 1130.46,-119.951 1129.61,-113.003"/>
</g>
<!-- Node14 -->
<g id="node27" class="node"><title>Node14</title>
<a xlink:href="BannerWindow_8h.htm" target="_top" xlink:title="BannerWindow.h">
<polygon fill="white" stroke="black" points="1058.5,-58.5 1058.5,-79.5 1155.5,-79.5 1155.5,-58.5 1058.5,-58.5"/>
<text text-anchor="middle" x="1107" y="-66.5" font-family="Helvetica,sans-Serif" font-size="10.00">BannerWindow.h</text>
</a>
</g>
<!-- Node8&#45;&gt;Node14 -->
<g id="edge26" class="edge"><title>Node8&#45;&gt;Node14</title>
<path fill="none" stroke="midnightblue" d="M1067.57,-109.118C1077.09,-99.4377 1088.51,-87.8098 1096.61,-79.5707"/>
<polygon fill="midnightblue" stroke="midnightblue" points="1064.97,-106.776 1060.45,-116.362 1069.96,-111.683 1064.97,-106.776"/>
</g>
<!-- Node17 -->
<g id="node33" class="node"><title>Node17</title>
<a xlink:href="StatusBarNotificationArea_8h.htm" target="_top" xlink:title="StatusBarNotificationArea.h">
<polygon fill="white" stroke="black" points="1173,-58.5 1173,-79.5 1319,-79.5 1319,-58.5 1173,-58.5"/>
<text text-anchor="middle" x="1246" y="-66.5" font-family="Helvetica,sans-Serif" font-size="10.00">StatusBarNotificationArea.h</text>
</a>
</g>
<!-- Node8&#45;&gt;Node17 -->
<g id="edge32" class="edge"><title>Node8&#45;&gt;Node17</title>
<path fill="none" stroke="midnightblue" d="M1095.46,-113.546C1130.48,-103.186 1178.19,-89.0668 1210.44,-79.5231"/>
<polygon fill="midnightblue" stroke="midnightblue" points="1094.09,-110.303 1085.49,-116.497 1096.08,-117.015 1094.09,-110.303"/>
</g>
<!-- Node20 -->
<g id="node39" class="node"><title>Node20</title>
<a xlink:href="WebAppMgrProxy_8cpp.htm" target="_top" xlink:title="WebAppMgrProxy.cpp">
<polygon fill="white" stroke="black" points="1337,-58.5 1337,-79.5 1459,-79.5 1459,-58.5 1337,-58.5"/>
<text text-anchor="middle" x="1398" y="-66.5" font-family="Helvetica,sans-Serif" font-size="10.00">WebAppMgrProxy.cpp</text>
</a>
</g>
<!-- Node8&#45;&gt;Node20 -->
<g id="edge38" class="edge"><title>Node8&#45;&gt;Node20</title>
<path fill="none" stroke="midnightblue" d="M1122.96,-114.841C1186.39,-104.269 1277.24,-89.1271 1336.91,-79.1821"/>
<polygon fill="midnightblue" stroke="midnightblue" points="1122.31,-111.4 1113.02,-116.497 1123.46,-118.305 1122.31,-111.4"/>
</g>
<!-- Node15 -->
<g id="node29" class="node"><title>Node15</title>
<a xlink:href="BannerWindow_8cpp.htm" target="_top" xlink:title="BannerWindow.cpp">
<polygon fill="white" stroke="black" points="895,-0.5 895,-21.5 1003,-21.5 1003,-0.5 895,-0.5"/>
<text text-anchor="middle" x="949" y="-8.5" font-family="Helvetica,sans-Serif" font-size="10.00">BannerWindow.cpp</text>
</a>
</g>
<!-- Node14&#45;&gt;Node15 -->
<g id="edge28" class="edge"><title>Node14&#45;&gt;Node15</title>
<path fill="none" stroke="midnightblue" d="M1068.89,-55.0095C1040.81,-44.7023 1003.22,-30.903 977.666,-21.5231"/>
<polygon fill="midnightblue" stroke="midnightblue" points="1067.79,-58.3362 1078.39,-58.4966 1070.21,-51.7649 1067.79,-58.3362"/>
</g>
<!-- Node16 -->
<g id="node31" class="node"><title>Node16</title>
<a xlink:href="DashboardWindowManager_8cpp.htm" target="_top" xlink:title="DashboardWindowManager.cpp">
<polygon fill="white" stroke="black" points="1021,-0.5 1021,-21.5 1189,-21.5 1189,-0.5 1021,-0.5"/>
<text text-anchor="middle" x="1105" y="-8.5" font-family="Helvetica,sans-Serif" font-size="10.00">DashboardWindowManager.cpp</text>
</a>
</g>
<!-- Node14&#45;&gt;Node16 -->
<g id="edge30" class="edge"><title>Node14&#45;&gt;Node16</title>
<path fill="none" stroke="midnightblue" d="M1106.28,-48.1906C1105.97,-39.1684 1105.62,-28.9941 1105.36,-21.5707"/>
<polygon fill="midnightblue" stroke="midnightblue" points="1102.79,-48.4885 1106.63,-58.3619 1109.79,-48.2472 1102.79,-48.4885"/>
</g>
<!-- Node18 -->
<g id="node35" class="node"><title>Node18</title>
<a xlink:href="StatusBar_8cpp.htm" target="_top" xlink:title="StatusBar.cpp">
<polygon fill="white" stroke="black" points="1207,-0.5 1207,-21.5 1289,-21.5 1289,-0.5 1207,-0.5"/>
<text text-anchor="middle" x="1248" y="-8.5" font-family="Helvetica,sans-Serif" font-size="10.00">StatusBar.cpp</text>
</a>
</g>
<!-- Node17&#45;&gt;Node18 -->
<g id="edge34" class="edge"><title>Node17&#45;&gt;Node18</title>
<path fill="none" stroke="midnightblue" d="M1246.72,-48.1906C1247.03,-39.1684 1247.38,-28.9941 1247.64,-21.5707"/>
<polygon fill="midnightblue" stroke="midnightblue" points="1243.21,-48.2472 1246.37,-58.3619 1250.21,-48.4885 1243.21,-48.2472"/>
</g>
<!-- Node19 -->
<g id="node37" class="node"><title>Node19</title>
<a xlink:href="StatusBarNotificationArea_8cpp.htm" target="_top" xlink:title="StatusBarNotificationArea.cpp">
<polygon fill="white" stroke="black" points="1306.5,-0.5 1306.5,-21.5 1463.5,-21.5 1463.5,-0.5 1306.5,-0.5"/>
<text text-anchor="middle" x="1385" y="-8.5" font-family="Helvetica,sans-Serif" font-size="10.00">StatusBarNotificationArea.cpp</text>
</a>
</g>
<!-- Node17&#45;&gt;Node19 -->
<g id="edge36" class="edge"><title>Node17&#45;&gt;Node19</title>
<path fill="none" stroke="midnightblue" d="M1280.47,-54.6153C1304.98,-44.3889 1337.36,-30.8796 1359.55,-21.6212"/>
<polygon fill="midnightblue" stroke="midnightblue" points="1279.05,-51.4156 1271.17,-58.4966 1281.75,-57.8758 1279.05,-51.4156"/>
</g>
</g>
</svg>
