<?xml version="1.0" encoding="UTF-8" standalone="no"?>
<!DOCTYPE svg PUBLIC "-//W3C//DTD SVG 1.1//EN"
 "http://www.w3.org/Graphics/SVG/1.1/DTD/svg11.dtd">
<!-- Generated by graphviz version 2.26.3 (20100126.1600)
 -->
<!-- Title: G Pages: 1 -->
<svg width="1729pt" height="320pt"
 viewBox="0.00 0.00 1729.00 320.00" xmlns="http://www.w3.org/2000/svg" xmlns:xlink="http://www.w3.org/1999/xlink">
<g id="graph1" class="graph" transform="scale(1 1) rotate(0) translate(4 316)">
<title>G</title>
<polygon fill="white" stroke="white" points="-4,5 -4,-316 1726,-316 1726,5 -4,5"/>
<!-- Node1 -->
<g id="node1" class="node"><title>Node1</title>
<polygon fill="#bfbfbf" stroke="black" points="600,-290.5 600,-311.5 772,-311.5 772,-290.5 600,-290.5"/>
<text text-anchor="middle" x="686" y="-298.5" font-family="Helvetica,sans-Serif" font-size="10.00">StatusBarServicesConnector.cpp</text>
</g>
<!-- Node2 -->
<g id="node3" class="node"><title>Node2</title>
<a xlink:href="StatusBar_8h.htm" target="_top" xlink:title="StatusBar.h">
<polygon fill="white" stroke="black" points="364.5,-116.5 364.5,-137.5 435.5,-137.5 435.5,-116.5 364.5,-116.5"/>
<text text-anchor="middle" x="400" y="-124.5" font-family="Helvetica,sans-Serif" font-size="10.00">StatusBar.h</text>
</a>
</g>
<!-- Node1&#45;&gt;Node2 -->
<g id="edge2" class="edge"><title>Node1&#45;&gt;Node2</title>
<path fill="none" stroke="midnightblue" d="M620.934,-290.437C531.532,-274.422 378.09,-241.027 346,-196 332.773,-177.44 353.525,-156.97 373.014,-143.183"/>
<polygon fill="midnightblue" stroke="midnightblue" points="375.102,-145.998 381.469,-137.53 371.211,-140.179 375.102,-145.998"/>
</g>
<!-- Node15 -->
<g id="node32" class="node"><title>Node15</title>
<a xlink:href="StatusBarServicesConnector_8h.htm" target="_top" xlink:title="StatusBarServicesConnector.h">
<polygon fill="white" stroke="black" points="466.5,-174.5 466.5,-195.5 627.5,-195.5 627.5,-174.5 466.5,-174.5"/>
<text text-anchor="middle" x="547" y="-182.5" font-family="Helvetica,sans-Serif" font-size="10.00">StatusBarServicesConnector.h</text>
</a>
</g>
<!-- Node1&#45;&gt;Node15 -->
<g id="edge34" class="edge"><title>Node1&#45;&gt;Node15</title>
<path fill="none" stroke="midnightblue" d="M673.172,-290.295C649.071,-270.182 596.837,-226.59 567.7,-202.275"/>
<polygon fill="midnightblue" stroke="midnightblue" points="569.717,-199.399 559.797,-195.679 565.232,-204.774 569.717,-199.399"/>
</g>
<!-- Node19 -->
<g id="node41" class="node"><title>Node19</title>
<polygon fill="white" stroke="#bfbfbf" points="1398,-232.5 1398,-253.5 1470,-253.5 1470,-232.5 1398,-232.5"/>
<text text-anchor="middle" x="1434" y="-240.5" font-family="Helvetica,sans-Serif" font-size="10.00">cjson/json.h</text>
</g>
<!-- Node1&#45;&gt;Node19 -->
<g id="edge44" class="edge"><title>Node1&#45;&gt;Node19</title>
<path fill="none" stroke="midnightblue" d="M772.125,-299.332C904.341,-295.842 1165.02,-285.281 1384,-254 1385.26,-253.82 1386.54,-253.625 1387.83,-253.418"/>
<polygon fill="midnightblue" stroke="midnightblue" points="1388.57,-256.841 1397.8,-251.631 1387.33,-249.951 1388.57,-256.841"/>
</g>
<!-- Node20 -->
<g id="node43" class="node"><title>Node20</title>
<a xlink:href="HostBase_8h.htm" target="_top" xlink:title="HostBase.h">
<polygon fill="white" stroke="black" points="1028.5,-232.5 1028.5,-253.5 1099.5,-253.5 1099.5,-232.5 1028.5,-232.5"/>
<text text-anchor="middle" x="1064" y="-240.5" font-family="Helvetica,sans-Serif" font-size="10.00">HostBase.h</text>
</a>
</g>
<!-- Node1&#45;&gt;Node20 -->
<g id="edge46" class="edge"><title>Node1&#45;&gt;Node20</title>
<path fill="none" stroke="midnightblue" d="M754.453,-290.497C830.789,-278.784 952.155,-260.161 1017.95,-250.066"/>
<polygon fill="midnightblue" stroke="midnightblue" points="1018.66,-253.498 1028.02,-248.521 1017.6,-246.579 1018.66,-253.498"/>
</g>
<!-- Node30 -->
<g id="node73" class="node"><title>Node30</title>
<polygon fill="white" stroke="#bfbfbf" points="1670.5,-58.5 1670.5,-79.5 1721.5,-79.5 1721.5,-58.5 1670.5,-58.5"/>
<text text-anchor="middle" x="1696" y="-66.5" font-family="Helvetica,sans-Serif" font-size="10.00">string.h</text>
</g>
<!-- Node1&#45;&gt;Node30 -->
<g id="edge176" class="edge"><title>Node1&#45;&gt;Node30</title>
<path fill="none" stroke="midnightblue" d="M772.362,-293.849C979.664,-276.234 1493.51,-229.732 1564,-196 1616.29,-170.98 1661.03,-117.206 1682.47,-88.3078"/>
<polygon fill="midnightblue" stroke="midnightblue" points="1685.56,-90.0175 1688.59,-79.8673 1679.89,-85.9079 1685.56,-90.0175"/>
</g>
<!-- Node40 -->
<g id="node102" class="node"><title>Node40</title>
<a xlink:href="Localization_8h.htm" target="_top" xlink:title="Localization.h">
<polygon fill="white" stroke="black" points="28.5,-116.5 28.5,-137.5 109.5,-137.5 109.5,-116.5 28.5,-116.5"/>
<text text-anchor="middle" x="69" y="-124.5" font-family="Helvetica,sans-Serif" font-size="10.00">Localization.h</text>
</a>
</g>
<!-- Node1&#45;&gt;Node40 -->
<g id="edge124" class="edge"><title>Node1&#45;&gt;Node40</title>
<path fill="none" stroke="midnightblue" d="M599.663,-295.727C530.944,-289.915 432.888,-277.99 350,-254 252.613,-225.814 145.539,-169.831 96.4029,-142.601"/>
<polygon fill="midnightblue" stroke="midnightblue" points="97.8054,-139.376 87.3681,-137.555 94.3921,-145.487 97.8054,-139.376"/>
</g>
<!-- Node44 -->
<g id="node114" class="node"><title>Node44</title>
<a xlink:href="Preferences_8h.htm" target="_top" xlink:title="Preferences.h">
<polygon fill="white" stroke="black" points="644.5,-174.5 644.5,-195.5 727.5,-195.5 727.5,-174.5 644.5,-174.5"/>
<text text-anchor="middle" x="686" y="-182.5" font-family="Helvetica,sans-Serif" font-size="10.00">Preferences.h</text>
</a>
</g>
<!-- Node1&#45;&gt;Node44 -->
<g id="edge140" class="edge"><title>Node1&#45;&gt;Node44</title>
<path fill="none" stroke="midnightblue" d="M686,-290.295C686,-271.131 686,-230.654 686,-205.843"/>
<polygon fill="midnightblue" stroke="midnightblue" points="689.5,-205.679 686,-195.679 682.5,-205.679 689.5,-205.679"/>
</g>
<!-- Node45 -->
<g id="node122" class="node"><title>Node45</title>
<a xlink:href="DeviceInfo_8h.htm" target="_top" xlink:title="DeviceInfo.h">
<polygon fill="white" stroke="black" points="164.5,-116.5 164.5,-137.5 239.5,-137.5 239.5,-116.5 164.5,-116.5"/>
<text text-anchor="middle" x="202" y="-124.5" font-family="Helvetica,sans-Serif" font-size="10.00">DeviceInfo.h</text>
</a>
</g>
<!-- Node1&#45;&gt;Node45 -->
<g id="edge154" class="edge"><title>Node1&#45;&gt;Node45</title>
<path fill="none" stroke="midnightblue" d="M599.775,-295.992C541.739,-290.433 464.356,-278.71 400,-254 329.004,-226.741 256.527,-171.939 222.29,-144.088"/>
<polygon fill="midnightblue" stroke="midnightblue" points="224.378,-141.275 214.433,-137.622 219.93,-146.679 224.378,-141.275"/>
</g>
<!-- Node46 -->
<g id="node127" class="node"><title>Node46</title>
<a xlink:href="BtDeviceClass_8h.htm" target="_top" xlink:title="BtDeviceClass.h">
<polygon fill="white" stroke="black" points="1487.5,-232.5 1487.5,-253.5 1580.5,-253.5 1580.5,-232.5 1487.5,-232.5"/>
<text text-anchor="middle" x="1534" y="-240.5" font-family="Helvetica,sans-Serif" font-size="10.00">BtDeviceClass.h</text>
</a>
</g>
<!-- Node1&#45;&gt;Node46 -->
<g id="edge162" class="edge"><title>Node1&#45;&gt;Node46</title>
<path fill="none" stroke="midnightblue" d="M772.027,-299.789C916.132,-296.903 1215.49,-287.247 1477.19,-254.094"/>
<polygon fill="midnightblue" stroke="midnightblue" points="1477.79,-257.546 1487.26,-252.804 1476.9,-250.603 1477.79,-257.546"/>
</g>
<!-- Node47 -->
<g id="node129" class="node"><title>Node47</title>
<a xlink:href="SystemService_8h.htm" target="_top" xlink:title="SystemService.h">
<polygon fill="white" stroke="black" points="354.5,-174.5 354.5,-195.5 449.5,-195.5 449.5,-174.5 354.5,-174.5"/>
<text text-anchor="middle" x="402" y="-182.5" font-family="Helvetica,sans-Serif" font-size="10.00">SystemService.h</text>
</a>
</g>
<!-- Node1&#45;&gt;Node47 -->
<g id="edge164" class="edge"><title>Node1&#45;&gt;Node47</title>
<path fill="none" stroke="midnightblue" d="M660.044,-290.398C608.914,-269.514 495.116,-223.033 437.251,-199.398"/>
<polygon fill="midnightblue" stroke="midnightblue" points="438.374,-196.076 427.793,-195.535 435.727,-202.557 438.374,-196.076"/>
</g>
<!-- Node49 -->
<g id="node138" class="node"><title>Node49</title>
<polygon fill="white" stroke="#bfbfbf" points="1597.5,-232.5 1597.5,-253.5 1634.5,-253.5 1634.5,-232.5 1597.5,-232.5"/>
<text text-anchor="middle" x="1616" y="-240.5" font-family="Helvetica,sans-Serif" font-size="10.00">map</text>
</g>
<!-- Node1&#45;&gt;Node49 -->
<g id="edge178" class="edge"><title>Node1&#45;&gt;Node49</title>
<path fill="none" stroke="midnightblue" d="M772.172,-300.175C962.945,-297.767 1416.92,-288.686 1587.52,-253.646"/>
<polygon fill="midnightblue" stroke="midnightblue" points="1588.34,-257.051 1597.38,-251.521 1586.86,-250.208 1588.34,-257.051"/>
</g>
<!-- Node3 -->
<g id="node5" class="node"><title>Node3</title>
<a xlink:href="Window_8h.htm" target="_top" xlink:title="Window.h">
<polygon fill="white" stroke="black" points="357,-58.5 357,-79.5 419,-79.5 419,-58.5 357,-58.5"/>
<text text-anchor="middle" x="388" y="-66.5" font-family="Helvetica,sans-Serif" font-size="10.00">Window.h</text>
</a>
</g>
<!-- Node2&#45;&gt;Node3 -->
<g id="edge4" class="edge"><title>Node2&#45;&gt;Node3</title>
<path fill="none" stroke="midnightblue" d="M397.799,-116.362C396.243,-108.84 394.107,-98.5187 392.227,-89.4308"/>
<polygon fill="midnightblue" stroke="midnightblue" points="395.641,-88.6541 390.187,-79.5707 388.786,-90.0724 395.641,-88.6541"/>
</g>
<!-- Node8 -->
<g id="node15" class="node"><title>Node8</title>
<polygon fill="white" stroke="#bfbfbf" points="269,-0.5 269,-21.5 367,-21.5 367,-0.5 269,-0.5"/>
<text text-anchor="middle" x="318" y="-8.5" font-family="Helvetica,sans-Serif" font-size="10.00">QGraphicsObject</text>
</g>
<!-- Node2&#45;&gt;Node8 -->
<g id="edge20" class="edge"><title>Node2&#45;&gt;Node8</title>
<path fill="none" stroke="midnightblue" d="M385.19,-116.416C373.822,-107.687 358.366,-94.4289 348,-80 337.311,-65.1216 329.33,-45.8358 324.297,-31.4374"/>
<polygon fill="midnightblue" stroke="midnightblue" points="327.486,-29.9323 321.028,-21.5334 320.839,-32.1266 327.486,-29.9323"/>
</g>
<!-- Node10 -->
<g id="node19" class="node"><title>Node10</title>
<polygon fill="white" stroke="#bfbfbf" points="558.5,-58.5 558.5,-79.5 617.5,-79.5 617.5,-58.5 558.5,-58.5"/>
<text text-anchor="middle" x="588" y="-66.5" font-family="Helvetica,sans-Serif" font-size="10.00">QPointer</text>
</g>
<!-- Node2&#45;&gt;Node10 -->
<g id="edge18" class="edge"><title>Node2&#45;&gt;Node10</title>
<path fill="none" stroke="midnightblue" d="M434.045,-116.497C466.308,-106.543 514.743,-91.6006 548.647,-81.1409"/>
<polygon fill="midnightblue" stroke="midnightblue" points="549.709,-84.476 558.233,-78.1835 547.645,-77.7871 549.709,-84.476"/>
</g>
<!-- Node11 -->
<g id="node22" class="node"><title>Node11</title>
<a xlink:href="VariantAnimation_8h.htm" target="_top" xlink:title="VariantAnimation.h">
<polygon fill="white" stroke="black" points="436.5,-58.5 436.5,-79.5 541.5,-79.5 541.5,-58.5 436.5,-58.5"/>
<text text-anchor="middle" x="489" y="-66.5" font-family="Helvetica,sans-Serif" font-size="10.00">VariantAnimation.h</text>
</a>
</g>
<!-- Node2&#45;&gt;Node11 -->
<g id="edge22" class="edge"><title>Node2&#45;&gt;Node11</title>
<path fill="none" stroke="midnightblue" d="M416.324,-116.362C429.748,-107.614 448.983,-95.0786 464.293,-85.1015"/>
<polygon fill="midnightblue" stroke="midnightblue" points="466.312,-87.9628 472.78,-79.5707 462.491,-82.0982 466.312,-87.9628"/>
</g>
<!-- Node13 -->
<g id="node27" class="node"><title>Node13</title>
<a xlink:href="CustomEvents_8h.htm" target="_top" xlink:title="CustomEvents.h">
<polygon fill="white" stroke="black" points="673,-58.5 673,-79.5 765,-79.5 765,-58.5 673,-58.5"/>
<text text-anchor="middle" x="719" y="-66.5" font-family="Helvetica,sans-Serif" font-size="10.00">CustomEvents.h</text>
</a>
</g>
<!-- Node2&#45;&gt;Node13 -->
<g id="edge28" class="edge"><title>Node2&#45;&gt;Node13</title>
<path fill="none" stroke="midnightblue" d="M435.665,-120.515C490.759,-110.498 597.041,-91.1744 662.618,-79.2513"/>
<polygon fill="midnightblue" stroke="midnightblue" points="663.567,-82.6363 672.779,-77.4038 662.314,-75.7492 663.567,-82.6363"/>
</g>
<!-- Node4 -->
<g id="node7" class="node"><title>Node4</title>
<a xlink:href="Common_8h.htm" target="_top" xlink:title="Common.h">
<polygon fill="white" stroke="black" points="760.5,-0.5 760.5,-21.5 827.5,-21.5 827.5,-0.5 760.5,-0.5"/>
<text text-anchor="middle" x="794" y="-8.5" font-family="Helvetica,sans-Serif" font-size="10.00">Common.h</text>
</a>
</g>
<!-- Node3&#45;&gt;Node4 -->
<g id="edge6" class="edge"><title>Node3&#45;&gt;Node4</title>
<path fill="none" stroke="midnightblue" d="M419.333,-59.8808C422.249,-59.1844 425.171,-58.5427 428,-58 567.096,-31.3195 607.729,-47.6508 750.186,-22.1381"/>
<polygon fill="midnightblue" stroke="midnightblue" points="750.962,-25.5542 760.169,-20.3121 749.703,-18.6684 750.962,-25.5542"/>
</g>
<!-- Node5 -->
<g id="node9" class="node"><title>Node5</title>
<polygon fill="white" stroke="#bfbfbf" points="1230,-0.5 1230,-21.5 1280,-21.5 1280,-0.5 1230,-0.5"/>
<text text-anchor="middle" x="1255" y="-8.5" font-family="Helvetica,sans-Serif" font-size="10.00">stdint.h</text>
</g>
<!-- Node3&#45;&gt;Node5 -->
<g id="edge8" class="edge"><title>Node3&#45;&gt;Node5</title>
<path fill="none" stroke="midnightblue" d="M419.301,-59.6986C422.224,-59.0404 425.156,-58.4574 428,-58 740.83,-7.69463 823.994,-45.0906 1140,-22 1166.77,-20.0442 1196.97,-17.1277 1219.71,-14.7891"/>
<polygon fill="midnightblue" stroke="midnightblue" points="1220.32,-18.2444 1229.9,-13.7277 1219.59,-11.282 1220.32,-18.2444"/>
</g>
<!-- Node6 -->
<g id="node11" class="node"><title>Node6</title>
<polygon fill="white" stroke="#bfbfbf" points="155.5,-0.5 155.5,-21.5 198.5,-21.5 198.5,-0.5 155.5,-0.5"/>
<text text-anchor="middle" x="177" y="-8.5" font-family="Helvetica,sans-Serif" font-size="10.00">string</text>
</g>
<!-- Node3&#45;&gt;Node6 -->
<g id="edge10" class="edge"><title>Node3&#45;&gt;Node6</title>
<path fill="none" stroke="midnightblue" d="M356.866,-60.4419C317.004,-49.4845 248.323,-30.6052 208.354,-19.6187"/>
<polygon fill="midnightblue" stroke="midnightblue" points="209.178,-16.2153 198.608,-16.9395 207.322,-22.9649 209.178,-16.2153"/>
</g>
<!-- Node7 -->
<g id="node13" class="node"><title>Node7</title>
<polygon fill="white" stroke="#bfbfbf" points="1090.5,-0.5 1090.5,-21.5 1131.5,-21.5 1131.5,-0.5 1090.5,-0.5"/>
<text text-anchor="middle" x="1111" y="-8.5" font-family="Helvetica,sans-Serif" font-size="10.00">glib.h</text>
</g>
<!-- Node3&#45;&gt;Node7 -->
<g id="edge12" class="edge"><title>Node3&#45;&gt;Node7</title>
<path fill="none" stroke="midnightblue" d="M419.31,-59.7538C422.231,-59.084 425.16,-58.4832 428,-58 556.126,-36.1994 963.789,-17.3462 1079.88,-12.3144"/>
<polygon fill="midnightblue" stroke="midnightblue" points="1080.34,-15.7978 1090.18,-11.871 1080.04,-8.80424 1080.34,-15.7978"/>
</g>
<!-- Node3&#45;&gt;Node8 -->
<g id="edge14" class="edge"><title>Node3&#45;&gt;Node8</title>
<path fill="none" stroke="midnightblue" d="M375.161,-58.3619C364.998,-49.9408 350.599,-38.0105 338.796,-28.2308"/>
<polygon fill="midnightblue" stroke="midnightblue" points="340.691,-25.2558 330.758,-21.5707 336.225,-30.6459 340.691,-25.2558"/>
</g>
<!-- Node9 -->
<g id="node17" class="node"><title>Node9</title>
<polygon fill="white" stroke="#bfbfbf" points="384.5,-0.5 384.5,-21.5 429.5,-21.5 429.5,-0.5 384.5,-0.5"/>
<text text-anchor="middle" x="407" y="-8.5" font-family="Helvetica,sans-Serif" font-size="10.00">QSize</text>
</g>
<!-- Node3&#45;&gt;Node9 -->
<g id="edge16" class="edge"><title>Node3&#45;&gt;Node9</title>
<path fill="none" stroke="midnightblue" d="M391.485,-58.3619C393.976,-50.7584 397.404,-40.294 400.404,-31.1349"/>
<polygon fill="midnightblue" stroke="midnightblue" points="403.75,-32.1634 403.537,-21.5707 397.098,-29.9841 403.75,-32.1634"/>
</g>
<!-- Node11&#45;&gt;Node4 -->
<g id="edge24" class="edge"><title>Node11&#45;&gt;Node4</title>
<path fill="none" stroke="midnightblue" d="M541.571,-59.5129C544.422,-59.0006 547.246,-58.4937 550,-58 636.606,-42.474 661.22,-41.6112 750.147,-22.3041"/>
<polygon fill="midnightblue" stroke="midnightblue" points="751.11,-25.6763 760.13,-20.1185 749.613,-18.8382 751.11,-25.6763"/>
</g>
<!-- Node12 -->
<g id="node25" class="node"><title>Node12</title>
<polygon fill="white" stroke="#bfbfbf" points="446.5,-0.5 446.5,-21.5 551.5,-21.5 551.5,-0.5 446.5,-0.5"/>
<text text-anchor="middle" x="499" y="-8.5" font-family="Helvetica,sans-Serif" font-size="10.00">QVariantAnimation</text>
</g>
<!-- Node11&#45;&gt;Node12 -->
<g id="edge26" class="edge"><title>Node11&#45;&gt;Node12</title>
<path fill="none" stroke="midnightblue" d="M490.834,-58.3619C492.131,-50.8401 493.911,-40.5187 495.477,-31.4308"/>
<polygon fill="midnightblue" stroke="midnightblue" points="498.927,-32.02 497.177,-21.5707 492.029,-30.8306 498.927,-32.02"/>
</g>
<!-- Node13&#45;&gt;Node4 -->
<g id="edge30" class="edge"><title>Node13&#45;&gt;Node4</title>
<path fill="none" stroke="midnightblue" d="M732.756,-58.3619C743.751,-49.859 759.373,-37.7785 772.086,-27.9466"/>
<polygon fill="midnightblue" stroke="midnightblue" points="774.562,-30.4569 780.331,-21.5707 770.279,-24.9195 774.562,-30.4569"/>
</g>
<!-- Node14 -->
<g id="node30" class="node"><title>Node14</title>
<polygon fill="white" stroke="#bfbfbf" points="691,-0.5 691,-21.5 743,-21.5 743,-0.5 691,-0.5"/>
<text text-anchor="middle" x="717" y="-8.5" font-family="Helvetica,sans-Serif" font-size="10.00">QEvent</text>
</g>
<!-- Node13&#45;&gt;Node14 -->
<g id="edge32" class="edge"><title>Node13&#45;&gt;Node14</title>
<path fill="none" stroke="midnightblue" d="M718.633,-58.3619C718.377,-50.9219 718.026,-40.7427 717.715,-31.7276"/>
<polygon fill="midnightblue" stroke="midnightblue" points="721.207,-31.4441 717.365,-21.5707 714.211,-31.6854 721.207,-31.4441"/>
</g>
<!-- Node15&#45;&gt;Node2 -->
<g id="edge42" class="edge"><title>Node15&#45;&gt;Node2</title>
<path fill="none" stroke="midnightblue" d="M520.379,-174.497C496.903,-165.234 462.475,-151.65 436.444,-141.379"/>
<polygon fill="midnightblue" stroke="midnightblue" points="437.506,-138.036 426.919,-137.621 434.937,-144.547 437.506,-138.036"/>
</g>
<!-- Node16 -->
<g id="node34" class="node"><title>Node16</title>
<polygon fill="white" stroke="#bfbfbf" points="490.5,-116.5 490.5,-137.5 545.5,-137.5 545.5,-116.5 490.5,-116.5"/>
<text text-anchor="middle" x="518" y="-124.5" font-family="Helvetica,sans-Serif" font-size="10.00">QObject</text>
</g>
<!-- Node15&#45;&gt;Node16 -->
<g id="edge36" class="edge"><title>Node15&#45;&gt;Node16</title>
<path fill="none" stroke="midnightblue" d="M541.681,-174.362C537.797,-166.595 532.421,-155.843 527.773,-146.546"/>
<polygon fill="midnightblue" stroke="midnightblue" points="530.888,-144.95 523.285,-137.571 524.627,-148.08 530.888,-144.95"/>
</g>
<!-- Node17 -->
<g id="node36" class="node"><title>Node17</title>
<polygon fill="white" stroke="#bfbfbf" points="563,-116.5 563,-137.5 641,-137.5 641,-116.5 563,-116.5"/>
<text text-anchor="middle" x="602" y="-124.5" font-family="Helvetica,sans-Serif" font-size="10.00">lunaservice.h</text>
</g>
<!-- Node15&#45;&gt;Node17 -->
<g id="edge38" class="edge"><title>Node15&#45;&gt;Node17</title>
<path fill="none" stroke="midnightblue" d="M557.088,-174.362C564.841,-166.186 575.73,-154.702 584.845,-145.091"/>
<polygon fill="midnightblue" stroke="midnightblue" points="587.635,-147.235 591.976,-137.571 582.555,-142.419 587.635,-147.235"/>
</g>
<!-- Node18 -->
<g id="node38" class="node"><title>Node18</title>
<polygon fill="white" stroke="#bfbfbf" points="658.5,-116.5 658.5,-137.5 689.5,-137.5 689.5,-116.5 658.5,-116.5"/>
<text text-anchor="middle" x="674" y="-124.5" font-family="Helvetica,sans-Serif" font-size="10.00">set</text>
</g>
<!-- Node15&#45;&gt;Node18 -->
<g id="edge40" class="edge"><title>Node15&#45;&gt;Node18</title>
<path fill="none" stroke="midnightblue" d="M570.322,-174.371C589.326,-165.708 617.085,-153.046 648.761,-138.563"/>
<polygon fill="midnightblue" stroke="midnightblue" points="650.613,-141.565 658.252,-134.223 647.702,-135.199 650.613,-141.565"/>
</g>
<!-- Node20&#45;&gt;Node4 -->
<g id="edge48" class="edge"><title>Node20&#45;&gt;Node4</title>
<path fill="none" stroke="midnightblue" d="M1028.08,-241.455C965.539,-237.963 840.561,-227.173 812,-196 790.438,-172.466 791.451,-74.834 793.026,-31.6744"/>
<polygon fill="midnightblue" stroke="midnightblue" points="796.53,-31.6365 793.445,-21.5007 789.536,-31.3479 796.53,-31.6365"/>
</g>
<!-- Node20&#45;&gt;Node13 -->
<g id="edge112" class="edge"><title>Node20&#45;&gt;Node13</title>
<path fill="none" stroke="midnightblue" d="M1028.26,-241.189C960.738,-237.122 817.728,-225.225 779,-196 744.288,-169.806 728.822,-118.479 722.632,-89.7449"/>
<polygon fill="midnightblue" stroke="midnightblue" points="726.002,-88.7424 720.634,-79.6079 719.134,-90.096 726.002,-88.7424"/>
</g>
<!-- Node21 -->
<g id="node46" class="node"><title>Node21</title>
<polygon fill="white" stroke="#bfbfbf" points="820.5,-174.5 820.5,-195.5 897.5,-195.5 897.5,-174.5 820.5,-174.5"/>
<text text-anchor="middle" x="859" y="-182.5" font-family="Helvetica,sans-Serif" font-size="10.00">PGContext.h</text>
</g>
<!-- Node20&#45;&gt;Node21 -->
<g id="edge50" class="edge"><title>Node20&#45;&gt;Node21</title>
<path fill="none" stroke="midnightblue" d="M1028.29,-232.897C994.528,-223.345 943.638,-208.946 906.47,-198.431"/>
<polygon fill="midnightblue" stroke="midnightblue" points="906.952,-194.93 896.377,-195.575 905.046,-201.665 906.952,-194.93"/>
</g>
<!-- Node22 -->
<g id="node48" class="node"><title>Node22</title>
<polygon fill="white" stroke="#bfbfbf" points="915,-174.5 915,-195.5 983,-195.5 983,-174.5 915,-174.5"/>
<text text-anchor="middle" x="949" y="-182.5" font-family="Helvetica,sans-Serif" font-size="10.00">PContext.h</text>
</g>
<!-- Node20&#45;&gt;Node22 -->
<g id="edge52" class="edge"><title>Node20&#45;&gt;Node22</title>
<path fill="none" stroke="midnightblue" d="M1043.17,-232.497C1025.29,-223.479 999.293,-210.365 979.139,-200.201"/>
<polygon fill="midnightblue" stroke="midnightblue" points="980.564,-196.999 970.059,-195.621 977.412,-203.249 980.564,-196.999"/>
</g>
<!-- Node23 -->
<g id="node50" class="node"><title>Node23</title>
<polygon fill="white" stroke="#bfbfbf" points="1001,-174.5 1001,-195.5 1067,-195.5 1067,-174.5 1001,-174.5"/>
<text text-anchor="middle" x="1034" y="-182.5" font-family="Helvetica,sans-Serif" font-size="10.00">PPixmap.h</text>
</g>
<!-- Node20&#45;&gt;Node23 -->
<g id="edge54" class="edge"><title>Node20&#45;&gt;Node23</title>
<path fill="none" stroke="midnightblue" d="M1058.5,-232.362C1054.48,-224.595 1048.92,-213.843 1044.11,-204.546"/>
<polygon fill="midnightblue" stroke="midnightblue" points="1047.17,-202.845 1039.47,-195.571 1040.95,-206.061 1047.17,-202.845"/>
</g>
<!-- Node24 -->
<g id="node52" class="node"><title>Node24</title>
<a xlink:href="TaskBase_8h.htm" target="_top" xlink:title="TaskBase.h">
<polygon fill="white" stroke="black" points="1265,-174.5 1265,-195.5 1337,-195.5 1337,-174.5 1265,-174.5"/>
<text text-anchor="middle" x="1301" y="-182.5" font-family="Helvetica,sans-Serif" font-size="10.00">TaskBase.h</text>
</a>
</g>
<!-- Node20&#45;&gt;Node24 -->
<g id="edge56" class="edge"><title>Node20&#45;&gt;Node24</title>
<path fill="none" stroke="midnightblue" d="M1099.74,-234.254C1141.21,-224.104 1209.71,-207.342 1255.09,-196.235"/>
<polygon fill="midnightblue" stroke="midnightblue" points="1256.09,-199.594 1264.97,-193.817 1254.43,-192.795 1256.09,-199.594"/>
</g>
<!-- Node33 -->
<g id="node80" class="node"><title>Node33</title>
<a xlink:href="Mutex_8h.htm" target="_top" xlink:title="Mutex.h">
<polygon fill="white" stroke="black" points="864.5,-116.5 864.5,-137.5 917.5,-137.5 917.5,-116.5 864.5,-116.5"/>
<text text-anchor="middle" x="891" y="-124.5" font-family="Helvetica,sans-Serif" font-size="10.00">Mutex.h</text>
</a>
</g>
<!-- Node20&#45;&gt;Node33 -->
<g id="edge110" class="edge"><title>Node20&#45;&gt;Node33</title>
<path fill="none" stroke="midnightblue" d="M1070.38,-232.435C1078.32,-217.748 1089.33,-191.048 1076,-174 1035.09,-121.696 995.239,-154.805 931,-138 929.92,-137.717 928.824,-137.429 927.718,-137.136"/>
<polygon fill="midnightblue" stroke="midnightblue" points="928.221,-133.647 917.655,-134.43 926.403,-140.407 928.221,-133.647"/>
</g>
<!-- Node35 -->
<g id="node92" class="node"><title>Node35</title>
<a xlink:href="InputControl_8h.htm" target="_top" xlink:title="InputControl.h">
<polygon fill="white" stroke="black" points="1472.5,-174.5 1472.5,-195.5 1555.5,-195.5 1555.5,-174.5 1472.5,-174.5"/>
<text text-anchor="middle" x="1514" y="-182.5" font-family="Helvetica,sans-Serif" font-size="10.00">InputControl.h</text>
</a>
</g>
<!-- Node20&#45;&gt;Node35 -->
<g id="edge114" class="edge"><title>Node20&#45;&gt;Node35</title>
<path fill="none" stroke="midnightblue" d="M1099.75,-240.003C1168.26,-234.002 1322.93,-219.202 1462.31,-196.168"/>
<polygon fill="midnightblue" stroke="midnightblue" points="1463.03,-199.596 1472.32,-194.495 1461.88,-192.692 1463.03,-199.596"/>
</g>
<!-- Node37 -->
<g id="node96" class="node"><title>Node37</title>
<polygon fill="white" stroke="#bfbfbf" points="1122.5,-174.5 1122.5,-195.5 1247.5,-195.5 1247.5,-174.5 1122.5,-174.5"/>
<text text-anchor="middle" x="1185" y="-182.5" font-family="Helvetica,sans-Serif" font-size="10.00">webosDeviceKeymap.h</text>
</g>
<!-- Node20&#45;&gt;Node37 -->
<g id="edge118" class="edge"><title>Node20&#45;&gt;Node37</title>
<path fill="none" stroke="midnightblue" d="M1085.91,-232.497C1104.81,-223.438 1132.33,-210.246 1153.58,-200.063"/>
<polygon fill="midnightblue" stroke="midnightblue" points="1155.34,-203.1 1162.84,-195.621 1152.31,-196.788 1155.34,-203.1"/>
</g>
<!-- Node38 -->
<g id="node98" class="node"><title>Node38</title>
<polygon fill="white" stroke="#bfbfbf" points="1354.5,-174.5 1354.5,-195.5 1383.5,-195.5 1383.5,-174.5 1354.5,-174.5"/>
<text text-anchor="middle" x="1369" y="-182.5" font-family="Helvetica,sans-Serif" font-size="10.00">Qt</text>
</g>
<!-- Node20&#45;&gt;Node38 -->
<g id="edge120" class="edge"><title>Node20&#45;&gt;Node38</title>
<path fill="none" stroke="midnightblue" d="M1099.92,-240.262C1152.39,-235.568 1252.91,-223.938 1344.47,-195.883"/>
<polygon fill="midnightblue" stroke="midnightblue" points="1345.66,-199.178 1354.15,-192.843 1343.56,-192.499 1345.66,-199.178"/>
</g>
<!-- Node39 -->
<g id="node100" class="node"><title>Node39</title>
<polygon fill="white" stroke="#bfbfbf" points="1401,-174.5 1401,-195.5 1455,-195.5 1455,-174.5 1401,-174.5"/>
<text text-anchor="middle" x="1428" y="-182.5" font-family="Helvetica,sans-Serif" font-size="10.00">QImage</text>
</g>
<!-- Node20&#45;&gt;Node39 -->
<g id="edge122" class="edge"><title>Node20&#45;&gt;Node39</title>
<path fill="none" stroke="midnightblue" d="M1099.76,-239.701C1158.61,-233.877 1279.64,-220.246 1390.94,-195.968"/>
<polygon fill="midnightblue" stroke="midnightblue" points="1391.99,-199.322 1400.99,-193.741 1390.47,-192.488 1391.99,-199.322"/>
</g>
<!-- Node24&#45;&gt;Node4 -->
<g id="edge58" class="edge"><title>Node24&#45;&gt;Node4</title>
<path fill="none" stroke="midnightblue" d="M1264.7,-175.877C1261.77,-175.214 1258.84,-174.58 1256,-174 1159.79,-154.327 1131.16,-169.057 1038,-138 952.952,-109.647 861.429,-54.5848 818.66,-27.2313"/>
<polygon fill="midnightblue" stroke="midnightblue" points="820.356,-24.1598 810.055,-21.6792 816.56,-30.0418 820.356,-24.1598"/>
</g>
<!-- Node24&#45;&gt;Node7 -->
<g id="edge60" class="edge"><title>Node24&#45;&gt;Node7</title>
<path fill="none" stroke="midnightblue" d="M1289.4,-174.377C1257.81,-145.446 1169.97,-65.0057 1130.57,-28.9202"/>
<polygon fill="midnightblue" stroke="midnightblue" points="1132.67,-26.1003 1122.93,-21.9277 1127.94,-31.2627 1132.67,-26.1003"/>
</g>
<!-- Node25 -->
<g id="node56" class="node"><title>Node25</title>
<polygon fill="white" stroke="#bfbfbf" points="1046.5,-116.5 1046.5,-137.5 1075.5,-137.5 1075.5,-116.5 1046.5,-116.5"/>
<text text-anchor="middle" x="1061" y="-124.5" font-family="Helvetica,sans-Serif" font-size="10.00">list</text>
</g>
<!-- Node24&#45;&gt;Node25 -->
<g id="edge62" class="edge"><title>Node24&#45;&gt;Node25</title>
<path fill="none" stroke="midnightblue" d="M1264.67,-176.029C1261.74,-175.333 1258.82,-174.649 1256,-174 1182,-156.984 1161.68,-159.953 1089,-138 1087.76,-137.626 1086.5,-137.222 1085.24,-136.797"/>
<polygon fill="midnightblue" stroke="midnightblue" points="1086.26,-133.443 1075.66,-133.277 1083.84,-140.013 1086.26,-133.443"/>
</g>
<!-- Node26 -->
<g id="node58" class="node"><title>Node26</title>
<a xlink:href="sptr_8h.htm" target="_top" xlink:title="sptr.h">
<polygon fill="white" stroke="black" points="972.5,-58.5 972.5,-79.5 1015.5,-79.5 1015.5,-58.5 972.5,-58.5"/>
<text text-anchor="middle" x="994" y="-66.5" font-family="Helvetica,sans-Serif" font-size="10.00">sptr.h</text>
</a>
</g>
<!-- Node24&#45;&gt;Node26 -->
<g id="edge64" class="edge"><title>Node24&#45;&gt;Node26</title>
<path fill="none" stroke="midnightblue" d="M1264.66,-175.277C1224.09,-164.293 1161.12,-146.803 1138,-138 1096.8,-122.314 1051.22,-99.4909 1022.6,-84.4502"/>
<polygon fill="midnightblue" stroke="midnightblue" points="1024.05,-81.2575 1013.58,-79.6693 1020.77,-87.4433 1024.05,-81.2575"/>
</g>
<!-- Node27 -->
<g id="node62" class="node"><title>Node27</title>
<a xlink:href="AsyncCaller_8h.htm" target="_top" xlink:title="AsyncCaller.h">
<polygon fill="white" stroke="black" points="1070.5,-58.5 1070.5,-79.5 1151.5,-79.5 1151.5,-58.5 1070.5,-58.5"/>
<text text-anchor="middle" x="1111" y="-66.5" font-family="Helvetica,sans-Serif" font-size="10.00">AsyncCaller.h</text>
</a>
</g>
<!-- Node24&#45;&gt;Node27 -->
<g id="edge70" class="edge"><title>Node24&#45;&gt;Node27</title>
<path fill="none" stroke="midnightblue" d="M1264.83,-175.026C1230.33,-165.065 1181.27,-149.608 1165,-138 1146.64,-124.903 1131.44,-103.839 1121.89,-88.4249"/>
<polygon fill="midnightblue" stroke="midnightblue" points="1124.82,-86.4919 1116.7,-79.6796 1118.8,-90.0652 1124.82,-86.4919"/>
</g>
<!-- Node28 -->
<g id="node66" class="node"><title>Node28</title>
<a xlink:href="Event_8h.htm" target="_top" xlink:title="Event.h">
<polygon fill="white" stroke="black" points="1422,-116.5 1422,-137.5 1474,-137.5 1474,-116.5 1422,-116.5"/>
<text text-anchor="middle" x="1448" y="-124.5" font-family="Helvetica,sans-Serif" font-size="10.00">Event.h</text>
</a>
</g>
<!-- Node24&#45;&gt;Node28 -->
<g id="edge76" class="edge"><title>Node24&#45;&gt;Node28</title>
<path fill="none" stroke="midnightblue" d="M1327.62,-174.497C1351.24,-165.176 1385.96,-151.48 1412.04,-141.187"/>
<polygon fill="midnightblue" stroke="midnightblue" points="1413.56,-144.351 1421.58,-137.425 1410.99,-137.84 1413.56,-144.351"/>
</g>
<!-- Node24&#45;&gt;Node33 -->
<g id="edge94" class="edge"><title>Node24&#45;&gt;Node33</title>
<path fill="none" stroke="midnightblue" d="M1264.74,-175.708C1261.79,-175.084 1258.85,-174.504 1256,-174 1112.89,-148.693 1073.73,-165.353 931,-138 929.904,-137.79 928.793,-137.565 927.675,-137.328"/>
<polygon fill="midnightblue" stroke="midnightblue" points="928.08,-133.827 917.542,-134.929 926.467,-140.638 928.08,-133.827"/>
</g>
<!-- Node34 -->
<g id="node85" class="node"><title>Node34</title>
<a xlink:href="SingletonTimer_8h.htm" target="_top" xlink:title="SingletonTimer.h">
<polygon fill="white" stroke="black" points="1207,-58.5 1207,-79.5 1303,-79.5 1303,-58.5 1207,-58.5"/>
<text text-anchor="middle" x="1255" y="-66.5" font-family="Helvetica,sans-Serif" font-size="10.00">SingletonTimer.h</text>
</a>
</g>
<!-- Node24&#45;&gt;Node34 -->
<g id="edge102" class="edge"><title>Node24&#45;&gt;Node34</title>
<path fill="none" stroke="midnightblue" d="M1296.75,-174.295C1289.09,-154.959 1272.81,-113.923 1263,-89.1767"/>
<polygon fill="midnightblue" stroke="midnightblue" points="1266.17,-87.6848 1259.23,-79.6792 1259.67,-90.2652 1266.17,-87.6848"/>
</g>
<!-- Node26&#45;&gt;Node4 -->
<g id="edge66" class="edge"><title>Node26&#45;&gt;Node4</title>
<path fill="none" stroke="midnightblue" d="M972.184,-62.0435C967.823,-60.6813 963.271,-59.2792 959,-58 917.886,-45.686 870.78,-32.3438 837.454,-23.0322"/>
<polygon fill="midnightblue" stroke="midnightblue" points="838.148,-19.5923 827.575,-20.2774 836.267,-26.335 838.148,-19.5923"/>
</g>
<!-- Node26&#45;&gt;Node7 -->
<g id="edge68" class="edge"><title>Node26&#45;&gt;Node7</title>
<path fill="none" stroke="midnightblue" d="M1015.19,-58.4966C1033.69,-49.3245 1060.74,-35.9157 1081.38,-25.6823"/>
<polygon fill="midnightblue" stroke="midnightblue" points="1082.96,-28.8079 1090.36,-21.2305 1079.85,-22.5362 1082.96,-28.8079"/>
</g>
<!-- Node27&#45;&gt;Node4 -->
<g id="edge72" class="edge"><title>Node27&#45;&gt;Node4</title>
<path fill="none" stroke="midnightblue" d="M1070.33,-60.6062C1065.84,-59.711 1061.32,-58.8264 1057,-58 979.907,-43.2617 889.819,-27.4718 837.6,-18.4602"/>
<polygon fill="midnightblue" stroke="midnightblue" points="838.125,-14.9992 827.676,-16.7506 836.937,-21.8976 838.125,-14.9992"/>
</g>
<!-- Node27&#45;&gt;Node7 -->
<g id="edge74" class="edge"><title>Node27&#45;&gt;Node7</title>
<path fill="none" stroke="midnightblue" d="M1111,-58.3619C1111,-50.9219 1111,-40.7427 1111,-31.7276"/>
<polygon fill="midnightblue" stroke="midnightblue" points="1114.5,-31.5706 1111,-21.5707 1107.5,-31.5707 1114.5,-31.5706"/>
</g>
<!-- Node28&#45;&gt;Node4 -->
<g id="edge78" class="edge"><title>Node28&#45;&gt;Node4</title>
<path fill="none" stroke="midnightblue" d="M1421.87,-125.192C1346.42,-119.753 1129.3,-102.525 1062,-80 1043.49,-73.806 1042.24,-64.9328 1024,-58 961.663,-34.3094 885.052,-21.7023 837.88,-15.6886"/>
<polygon fill="midnightblue" stroke="midnightblue" points="838.054,-12.1837 827.701,-14.4354 837.198,-19.1312 838.054,-12.1837"/>
</g>
<!-- Node28&#45;&gt;Node5 -->
<g id="edge80" class="edge"><title>Node28&#45;&gt;Node5</title>
<path fill="none" stroke="midnightblue" d="M1474.33,-118.557C1477.25,-117.671 1480.18,-116.802 1483,-116 1548.17,-97.4533 1668.79,-108.852 1624,-58 1602.11,-33.1427 1378.31,-17.9411 1290.29,-12.8836"/>
<polygon fill="midnightblue" stroke="midnightblue" points="1290.43,-9.38619 1280.25,-12.3172 1290.04,-16.3751 1290.43,-9.38619"/>
</g>
<!-- Node28&#45;&gt;Node7 -->
<g id="edge82" class="edge"><title>Node28&#45;&gt;Node7</title>
<path fill="none" stroke="midnightblue" d="M1474.17,-116.415C1502.72,-103.399 1541.88,-80.2826 1522,-58 1518.82,-54.4362 1236.94,-24.3216 1141.89,-14.2592"/>
<polygon fill="midnightblue" stroke="midnightblue" points="1142.07,-10.7591 1131.76,-13.1878 1141.34,-17.7203 1142.07,-10.7591"/>
</g>
<!-- Node28&#45;&gt;Node26 -->
<g id="edge92" class="edge"><title>Node28&#45;&gt;Node26</title>
<path fill="none" stroke="midnightblue" d="M1421.73,-125.814C1355.3,-122.436 1175.46,-110.928 1029,-80 1027.91,-79.7697 1026.8,-79.5195 1025.69,-79.2532"/>
<polygon fill="midnightblue" stroke="midnightblue" points="1026.24,-75.775 1015.67,-76.5236 1024.4,-82.5289 1026.24,-75.775"/>
</g>
<!-- Node29 -->
<g id="node71" class="node"><title>Node29</title>
<polygon fill="white" stroke="#bfbfbf" points="1568.5,-58.5 1568.5,-79.5 1615.5,-79.5 1615.5,-58.5 1568.5,-58.5"/>
<text text-anchor="middle" x="1592" y="-66.5" font-family="Helvetica,sans-Serif" font-size="10.00">stdio.h</text>
</g>
<!-- Node28&#45;&gt;Node29 -->
<g id="edge84" class="edge"><title>Node28&#45;&gt;Node29</title>
<path fill="none" stroke="midnightblue" d="M1474.08,-116.497C1497.79,-106.944 1532.92,-92.7967 1558.67,-82.4264"/>
<polygon fill="midnightblue" stroke="midnightblue" points="1560.06,-85.6371 1568.03,-78.6543 1557.45,-79.144 1560.06,-85.6371"/>
</g>
<!-- Node28&#45;&gt;Node30 -->
<g id="edge86" class="edge"><title>Node28&#45;&gt;Node30</title>
<path fill="none" stroke="midnightblue" d="M1474.29,-118.426C1477.22,-117.564 1480.16,-116.737 1483,-116 1559.43,-96.1361 1580.28,-98.7305 1657,-80 1658.23,-79.6997 1659.48,-79.3872 1660.74,-79.0657"/>
<polygon fill="midnightblue" stroke="midnightblue" points="1661.71,-82.4301 1670.47,-76.4792 1659.91,-75.6648 1661.71,-82.4301"/>
</g>
<!-- Node31 -->
<g id="node75" class="node"><title>Node31</title>
<polygon fill="white" stroke="#bfbfbf" points="1321,-58.5 1321,-79.5 1407,-79.5 1407,-58.5 1321,-58.5"/>
<text text-anchor="middle" x="1364" y="-66.5" font-family="Helvetica,sans-Serif" font-size="10.00">qnamespace.h</text>
</g>
<!-- Node28&#45;&gt;Node31 -->
<g id="edge88" class="edge"><title>Node28&#45;&gt;Node31</title>
<path fill="none" stroke="midnightblue" d="M1432.59,-116.362C1420.04,-107.696 1402.11,-95.3126 1387.73,-85.3819"/>
<polygon fill="midnightblue" stroke="midnightblue" points="1389.53,-82.3725 1379.31,-79.5707 1385.55,-88.1327 1389.53,-82.3725"/>
</g>
<!-- Node32 -->
<g id="node77" class="node"><title>Node32</title>
<polygon fill="white" stroke="#bfbfbf" points="1425,-58.5 1425,-79.5 1513,-79.5 1513,-58.5 1425,-58.5"/>
<text text-anchor="middle" x="1469" y="-66.5" font-family="Helvetica,sans-Serif" font-size="10.00">SysMgrEvent.h</text>
</g>
<!-- Node28&#45;&gt;Node32 -->
<g id="edge90" class="edge"><title>Node28&#45;&gt;Node32</title>
<path fill="none" stroke="midnightblue" d="M1451.85,-116.362C1454.6,-108.758 1458.39,-98.294 1461.71,-89.1349"/>
<polygon fill="midnightblue" stroke="midnightblue" points="1465.06,-90.1649 1465.17,-79.5707 1458.48,-87.7818 1465.06,-90.1649"/>
</g>
<!-- Node33&#45;&gt;Node4 -->
<g id="edge96" class="edge"><title>Node33&#45;&gt;Node4</title>
<path fill="none" stroke="midnightblue" d="M884.874,-116.159C876.676,-102.077 861.274,-77.0451 845,-58 835.956,-47.4158 824.678,-36.8047 815.028,-28.3501"/>
<polygon fill="midnightblue" stroke="midnightblue" points="817.261,-25.6542 807.391,-21.8034 812.706,-30.9689 817.261,-25.6542"/>
</g>
<!-- Node33&#45;&gt;Node7 -->
<g id="edge100" class="edge"><title>Node33&#45;&gt;Node7</title>
<path fill="none" stroke="midnightblue" d="M899.544,-116.335C912.14,-101.282 937.12,-73.8707 964,-58 1000.94,-36.1878 1049.18,-23.2743 1080.13,-16.661"/>
<polygon fill="midnightblue" stroke="midnightblue" points="1081.22,-20.012 1090.31,-14.5803 1079.81,-13.1538 1081.22,-20.012"/>
</g>
<!-- Node33&#45;&gt;Node26 -->
<g id="edge98" class="edge"><title>Node33&#45;&gt;Node26</title>
<path fill="none" stroke="midnightblue" d="M909.892,-116.362C925.718,-107.45 948.523,-94.6087 966.395,-84.5447"/>
<polygon fill="midnightblue" stroke="midnightblue" points="968.232,-87.5271 975.228,-79.5707 964.797,-81.4276 968.232,-87.5271"/>
</g>
<!-- Node34&#45;&gt;Node4 -->
<g id="edge104" class="edge"><title>Node34&#45;&gt;Node4</title>
<path fill="none" stroke="midnightblue" d="M1206.97,-62.9571C1117,-51.6375 924.358,-27.4008 837.755,-16.505"/>
<polygon fill="midnightblue" stroke="midnightblue" points="838.092,-13.0199 827.734,-15.2441 837.218,-19.9651 838.092,-13.0199"/>
</g>
<!-- Node34&#45;&gt;Node5 -->
<g id="edge108" class="edge"><title>Node34&#45;&gt;Node5</title>
<path fill="none" stroke="midnightblue" d="M1255,-58.3619C1255,-50.9219 1255,-40.7427 1255,-31.7276"/>
<polygon fill="midnightblue" stroke="midnightblue" points="1258.5,-31.5706 1255,-21.5707 1251.5,-31.5707 1258.5,-31.5706"/>
</g>
<!-- Node34&#45;&gt;Node7 -->
<g id="edge106" class="edge"><title>Node34&#45;&gt;Node7</title>
<path fill="none" stroke="midnightblue" d="M1228.92,-58.4966C1204.2,-48.539 1167.08,-33.588 1141.11,-23.1276"/>
<polygon fill="midnightblue" stroke="midnightblue" points="1142.33,-19.8478 1131.75,-19.3582 1139.72,-26.341 1142.33,-19.8478"/>
</g>
<!-- Node36 -->
<g id="node94" class="node"><title>Node36</title>
<polygon fill="white" stroke="#bfbfbf" points="1492,-116.5 1492,-137.5 1548,-137.5 1548,-116.5 1492,-116.5"/>
<text text-anchor="middle" x="1520" y="-124.5" font-family="Helvetica,sans-Serif" font-size="10.00">hal/hal.h</text>
</g>
<!-- Node35&#45;&gt;Node36 -->
<g id="edge116" class="edge"><title>Node35&#45;&gt;Node36</title>
<path fill="none" stroke="midnightblue" d="M1515.1,-174.362C1515.87,-166.922 1516.92,-156.743 1517.86,-147.728"/>
<polygon fill="midnightblue" stroke="midnightblue" points="1521.36,-147.878 1518.91,-137.571 1514.4,-147.157 1521.36,-147.878"/>
</g>
<!-- Node40&#45;&gt;Node4 -->
<g id="edge126" class="edge"><title>Node40&#45;&gt;Node4</title>
<path fill="none" stroke="midnightblue" d="M95.0845,-116.483C135.175,-100.822 214.683,-71.7471 285,-58 486.111,-18.6822 544.879,-55.3271 750.293,-22.05"/>
<polygon fill="midnightblue" stroke="midnightblue" points="750.893,-25.4985 760.187,-20.4119 749.75,-18.5925 750.893,-25.4985"/>
</g>
<!-- Node41 -->
<g id="node105" class="node"><title>Node41</title>
<a xlink:href="QtUtils_8h.htm" target="_top" xlink:title="QtUtils.h">
<polygon fill="white" stroke="black" points="53,-58.5 53,-79.5 109,-79.5 109,-58.5 53,-58.5"/>
<text text-anchor="middle" x="81" y="-66.5" font-family="Helvetica,sans-Serif" font-size="10.00">QtUtils.h</text>
</a>
</g>
<!-- Node40&#45;&gt;Node41 -->
<g id="edge128" class="edge"><title>Node40&#45;&gt;Node41</title>
<path fill="none" stroke="midnightblue" d="M71.201,-116.362C72.7572,-108.84 74.8927,-98.5187 76.7729,-89.4308"/>
<polygon fill="midnightblue" stroke="midnightblue" points="80.2142,-90.0724 78.813,-79.5707 73.3594,-88.6541 80.2142,-90.0724"/>
</g>
<!-- Node43 -->
<g id="node111" class="node"><title>Node43</title>
<polygon fill="white" stroke="#bfbfbf" points="0,-0.5 0,-21.5 50,-21.5 50,-0.5 0,-0.5"/>
<text text-anchor="middle" x="25" y="-8.5" font-family="Helvetica,sans-Serif" font-size="10.00">QHash</text>
</g>
<!-- Node40&#45;&gt;Node43 -->
<g id="edge138" class="edge"><title>Node40&#45;&gt;Node43</title>
<path fill="none" stroke="midnightblue" d="M62.5465,-116.494C57.0343,-107.174 49.1948,-93.0524 44,-80 37.6918,-64.15 32.6849,-45.4544 29.398,-31.5245"/>
<polygon fill="midnightblue" stroke="midnightblue" points="32.7556,-30.5035 27.1386,-21.5202 25.9275,-32.0455 32.7556,-30.5035"/>
</g>
<!-- Node41&#45;&gt;Node4 -->
<g id="edge130" class="edge"><title>Node41&#45;&gt;Node4</title>
<path fill="none" stroke="midnightblue" d="M109.108,-66.214C133.416,-63.8548 169.507,-60.4718 201,-58 442.314,-39.0598 507.965,-60.6607 750.024,-22.0857"/>
<polygon fill="midnightblue" stroke="midnightblue" points="750.877,-25.4935 760.193,-20.4466 749.763,-18.5827 750.877,-25.4935"/>
</g>
<!-- Node41&#45;&gt;Node6 -->
<g id="edge132" class="edge"><title>Node41&#45;&gt;Node6</title>
<path fill="none" stroke="midnightblue" d="M98.6079,-58.3619C113.223,-49.532 134.224,-36.844 150.811,-26.8224"/>
<polygon fill="midnightblue" stroke="midnightblue" points="152.754,-29.7376 159.504,-21.5707 149.135,-23.7461 152.754,-29.7376"/>
</g>
<!-- Node42 -->
<g id="node109" class="node"><title>Node42</title>
<polygon fill="white" stroke="#bfbfbf" points="67.5,-0.5 67.5,-21.5 120.5,-21.5 120.5,-0.5 67.5,-0.5"/>
<text text-anchor="middle" x="94" y="-8.5" font-family="Helvetica,sans-Serif" font-size="10.00">QString</text>
</g>
<!-- Node41&#45;&gt;Node42 -->
<g id="edge134" class="edge"><title>Node41&#45;&gt;Node42</title>
<path fill="none" stroke="midnightblue" d="M83.3844,-58.3619C85.0703,-50.8401 87.3837,-40.5187 89.4207,-31.4308"/>
<polygon fill="midnightblue" stroke="midnightblue" points="92.8588,-32.0941 91.6307,-21.5707 86.0283,-30.563 92.8588,-32.0941"/>
</g>
<!-- Node41&#45;&gt;Node43 -->
<g id="edge136" class="edge"><title>Node41&#45;&gt;Node43</title>
<path fill="none" stroke="midnightblue" d="M70.7287,-58.3619C62.7559,-50.1043 51.5252,-38.4725 42.189,-28.8029"/>
<polygon fill="midnightblue" stroke="midnightblue" points="44.67,-26.3336 35.2061,-21.5707 39.6342,-31.1958 44.67,-26.3336"/>
</g>
<!-- Node44&#45;&gt;Node4 -->
<g id="edge142" class="edge"><title>Node44&#45;&gt;Node4</title>
<path fill="none" stroke="midnightblue" d="M697.472,-174.498C716.163,-156.777 753.186,-119.038 774,-80 782.056,-64.8896 787.224,-46.1403 790.284,-32.0016"/>
<polygon fill="midnightblue" stroke="midnightblue" points="793.793,-32.2979 792.301,-21.8087 786.926,-30.9389 793.793,-32.2979"/>
</g>
<!-- Node44&#45;&gt;Node6 -->
<g id="edge144" class="edge"><title>Node44&#45;&gt;Node6</title>
<path fill="none" stroke="midnightblue" d="M644.313,-175.539C641.505,-174.991 638.715,-174.472 636,-174 512.387,-152.5 472.866,-183.66 356,-138 338.615,-131.208 242.983,-60.4151 199.065,-27.5705"/>
<polygon fill="midnightblue" stroke="midnightblue" points="201.112,-24.7307 191.01,-21.5378 196.916,-30.3337 201.112,-24.7307"/>
</g>
<!-- Node44&#45;&gt;Node13 -->
<g id="edge150" class="edge"><title>Node44&#45;&gt;Node13</title>
<path fill="none" stroke="midnightblue" d="M689.045,-174.295C694.522,-155.045 706.116,-114.289 713.166,-89.5091"/>
<polygon fill="midnightblue" stroke="midnightblue" points="716.592,-90.2553 715.962,-79.6792 709.859,-88.3399 716.592,-90.2553"/>
</g>
<!-- Node44&#45;&gt;Node16 -->
<g id="edge152" class="edge"><title>Node44&#45;&gt;Node16</title>
<path fill="none" stroke="midnightblue" d="M655.576,-174.497C627.457,-164.789 585.59,-150.335 555.432,-139.923"/>
<polygon fill="midnightblue" stroke="midnightblue" points="556.284,-136.515 545.69,-136.559 554,-143.131 556.284,-136.515"/>
</g>
<!-- Node44&#45;&gt;Node17 -->
<g id="edge146" class="edge"><title>Node44&#45;&gt;Node17</title>
<path fill="none" stroke="midnightblue" d="M670.593,-174.362C658.042,-165.696 640.108,-153.313 625.725,-143.382"/>
<polygon fill="midnightblue" stroke="midnightblue" points="627.527,-140.372 617.309,-137.571 623.55,-146.133 627.527,-140.372"/>
</g>
<!-- Node44&#45;&gt;Node33 -->
<g id="edge148" class="edge"><title>Node44&#45;&gt;Node33</title>
<path fill="none" stroke="midnightblue" d="M723.124,-174.497C760.353,-163.963 817.332,-147.843 854.381,-137.36"/>
<polygon fill="midnightblue" stroke="midnightblue" points="855.6,-140.653 864.27,-134.563 853.695,-133.917 855.6,-140.653"/>
</g>
<!-- Node45&#45;&gt;Node3 -->
<g id="edge158" class="edge"><title>Node45&#45;&gt;Node3</title>
<path fill="none" stroke="midnightblue" d="M235.683,-116.497C266.896,-106.763 313.41,-92.2594 346.818,-81.8416"/>
<polygon fill="midnightblue" stroke="midnightblue" points="348.23,-85.0678 356.734,-78.7495 346.146,-78.3852 348.23,-85.0678"/>
</g>
<!-- Node45&#45;&gt;Node4 -->
<g id="edge156" class="edge"><title>Node45&#45;&gt;Node4</title>
<path fill="none" stroke="midnightblue" d="M219.202,-116.389C245.74,-100.606 298.759,-71.3727 348,-58 518.823,-11.6082 572.474,-51.4491 750.241,-22.0695"/>
<polygon fill="midnightblue" stroke="midnightblue" points="750.911,-25.506 760.181,-20.3766 749.735,-18.6054 750.911,-25.506"/>
</g>
<!-- Node45&#45;&gt;Node6 -->
<g id="edge160" class="edge"><title>Node45&#45;&gt;Node6</title>
<path fill="none" stroke="midnightblue" d="M199.693,-116.295C195.544,-97.0451 186.761,-56.2889 181.42,-31.5091"/>
<polygon fill="midnightblue" stroke="midnightblue" points="184.83,-30.7174 179.302,-21.6792 177.987,-32.1922 184.83,-30.7174"/>
</g>
<!-- Node47&#45;&gt;Node4 -->
<g id="edge166" class="edge"><title>Node47&#45;&gt;Node4</title>
<path fill="none" stroke="midnightblue" d="M411.217,-174.385C425.047,-159.136 452.691,-131.197 482,-116 540.565,-85.6336 564.857,-104.769 626,-80 644.087,-72.673 646.309,-66.239 664,-58 692.137,-44.8959 725.024,-33.0364 750.68,-24.5086"/>
<polygon fill="midnightblue" stroke="midnightblue" points="752.075,-27.7347 760.487,-21.2935 749.894,-21.083 752.075,-27.7347"/>
</g>
<!-- Node47&#45;&gt;Node6 -->
<g id="edge168" class="edge"><title>Node47&#45;&gt;Node6</title>
<path fill="none" stroke="midnightblue" d="M354.273,-182.874C289.96,-178.895 180.663,-167.821 156,-138 130.63,-107.324 150.732,-57.8513 165.31,-30.5907"/>
<polygon fill="midnightblue" stroke="midnightblue" points="168.497,-32.0623 170.336,-21.6282 162.392,-28.6383 168.497,-32.0623"/>
</g>
<!-- Node47&#45;&gt;Node16 -->
<g id="edge174" class="edge"><title>Node47&#45;&gt;Node16</title>
<path fill="none" stroke="midnightblue" d="M423.007,-174.497C441.043,-165.479 467.27,-152.365 487.599,-142.201"/>
<polygon fill="midnightblue" stroke="midnightblue" points="489.379,-145.224 496.758,-137.621 486.248,-138.963 489.379,-145.224"/>
</g>
<!-- Node47&#45;&gt;Node17 -->
<g id="edge170" class="edge"><title>Node47&#45;&gt;Node17</title>
<path fill="none" stroke="midnightblue" d="M438.218,-174.497C471.247,-164.918 520.208,-150.72 555.994,-140.342"/>
<polygon fill="midnightblue" stroke="midnightblue" points="557.084,-143.67 565.714,-137.523 555.134,-136.947 557.084,-143.67"/>
</g>
<!-- Node48 -->
<g id="node134" class="node"><title>Node48</title>
<polygon fill="white" stroke="#bfbfbf" points="257,-116.5 257,-137.5 309,-137.5 309,-116.5 257,-116.5"/>
<text text-anchor="middle" x="283" y="-124.5" font-family="Helvetica,sans-Serif" font-size="10.00">QTimer</text>
</g>
<!-- Node47&#45;&gt;Node48 -->
<g id="edge172" class="edge"><title>Node47&#45;&gt;Node48</title>
<path fill="none" stroke="midnightblue" d="M380.45,-174.497C361.864,-165.438 334.798,-152.246 313.905,-142.063"/>
<polygon fill="midnightblue" stroke="midnightblue" points="315.314,-138.856 304.792,-137.621 312.247,-145.149 315.314,-138.856"/>
</g>
</g>
</svg>
