<?xml version="1.0" encoding="UTF-8" standalone="no"?>
<!DOCTYPE svg PUBLIC "-//W3C//DTD SVG 1.1//EN"
 "http://www.w3.org/Graphics/SVG/1.1/DTD/svg11.dtd">
<!-- Generated by graphviz version 2.26.3 (20100126.1600)
 -->
<!-- Title: G Pages: 1 -->
<svg width="1081pt" height="320pt"
 viewBox="0.00 0.00 1081.03 320.00" xmlns="http://www.w3.org/2000/svg" xmlns:xlink="http://www.w3.org/1999/xlink">
<g id="graph1" class="graph" transform="scale(1 1) rotate(0) translate(4 316)">
<title>G</title>
<polygon fill="white" stroke="white" points="-4,5 -4,-316 1078.03,-316 1078.03,5 -4,5"/>
<!-- Node1 -->
<g id="node1" class="node"><title>Node1</title>
<polygon fill="#bfbfbf" stroke="black" points="512.029,-290.5 512.029,-311.5 612.029,-311.5 612.029,-290.5 512.029,-290.5"/>
<text text-anchor="middle" x="562.029" y="-298.5" font-family="Helvetica,sans-Serif" font-size="10.00">StatusBarInfo.cpp</text>
</g>
<!-- Node2 -->
<g id="node3" class="node"><title>Node2</title>
<a xlink:href="StatusBarInfo_8h.htm" target="_top" xlink:title="StatusBarInfo.h">
<polygon fill="white" stroke="black" points="336.529,-232.5 336.529,-253.5 425.529,-253.5 425.529,-232.5 336.529,-232.5"/>
<text text-anchor="middle" x="381.029" y="-240.5" font-family="Helvetica,sans-Serif" font-size="10.00">StatusBarInfo.h</text>
</a>
</g>
<!-- Node1&#45;&gt;Node2 -->
<g id="edge2" class="edge"><title>Node1&#45;&gt;Node2</title>
<path fill="none" stroke="midnightblue" d="M529.252,-290.497C499.616,-281 455.807,-266.962 423.498,-256.609"/>
<polygon fill="midnightblue" stroke="midnightblue" points="424.46,-253.242 413.869,-253.523 422.324,-259.908 424.46,-253.242"/>
</g>
<!-- Node20 -->
<g id="node44" class="node"><title>Node20</title>
<polygon fill="white" stroke="#bfbfbf" points="20.5294,-116.5 20.5294,-137.5 79.5294,-137.5 79.5294,-116.5 20.5294,-116.5"/>
<text text-anchor="middle" x="50.0294" y="-124.5" font-family="Helvetica,sans-Serif" font-size="10.00">QPainter</text>
</g>
<!-- Node1&#45;&gt;Node20 -->
<g id="edge112" class="edge"><title>Node1&#45;&gt;Node20</title>
<path fill="none" stroke="midnightblue" d="M511.702,-293.349C463.922,-285.509 390.347,-271.939 328.029,-254 258.145,-233.883 241.029,-226.538 175.029,-196 139.921,-179.755 101.163,-157.674 76.2536,-142.909"/>
<polygon fill="midnightblue" stroke="midnightblue" points="77.8017,-139.757 67.4213,-137.636 74.2134,-145.768 77.8017,-139.757"/>
</g>
<!-- Node22 -->
<g id="node51" class="node"><title>Node22</title>
<a xlink:href="StatusBarServicesConnector_8h.htm" target="_top" xlink:title="StatusBarServicesConnector.h">
<polygon fill="white" stroke="black" points="481.529,-174.5 481.529,-195.5 642.529,-195.5 642.529,-174.5 481.529,-174.5"/>
<text text-anchor="middle" x="562.029" y="-182.5" font-family="Helvetica,sans-Serif" font-size="10.00">StatusBarServicesConnector.h</text>
</a>
</g>
<!-- Node1&#45;&gt;Node22 -->
<g id="edge110" class="edge"><title>Node1&#45;&gt;Node22</title>
<path fill="none" stroke="midnightblue" d="M562.029,-290.295C562.029,-271.131 562.029,-230.654 562.029,-205.843"/>
<polygon fill="midnightblue" stroke="midnightblue" points="565.53,-205.679 562.029,-195.679 558.53,-205.679 565.53,-205.679"/>
</g>
<!-- Node25 -->
<g id="node61" class="node"><title>Node25</title>
<a xlink:href="Settings_8h.htm" target="_top" xlink:title="Settings.h">
<polygon fill="white" stroke="black" points="932.529,-58.5 932.529,-79.5 995.529,-79.5 995.529,-58.5 932.529,-58.5"/>
<text text-anchor="middle" x="964.029" y="-66.5" font-family="Helvetica,sans-Serif" font-size="10.00">Settings.h</text>
</a>
</g>
<!-- Node1&#45;&gt;Node25 -->
<g id="edge72" class="edge"><title>Node1&#45;&gt;Node25</title>
<path fill="none" stroke="midnightblue" d="M592.015,-290.33C652.834,-267.866 793.612,-211.638 896.029,-138 916.12,-123.555 935.578,-102.923 948.495,-87.9871"/>
<polygon fill="midnightblue" stroke="midnightblue" points="951.514,-89.8366 955.299,-79.9409 946.169,-85.3165 951.514,-89.8366"/>
</g>
<!-- Node28 -->
<g id="node71" class="node"><title>Node28</title>
<a xlink:href="Preferences_8h.htm" target="_top" xlink:title="Preferences.h">
<polygon fill="white" stroke="black" points="659.529,-174.5 659.529,-195.5 742.529,-195.5 742.529,-174.5 659.529,-174.5"/>
<text text-anchor="middle" x="701.029" y="-182.5" font-family="Helvetica,sans-Serif" font-size="10.00">Preferences.h</text>
</a>
</g>
<!-- Node1&#45;&gt;Node28 -->
<g id="edge86" class="edge"><title>Node1&#45;&gt;Node28</title>
<path fill="none" stroke="midnightblue" d="M574.857,-290.295C598.958,-270.182 651.193,-226.59 680.329,-202.275"/>
<polygon fill="midnightblue" stroke="midnightblue" points="682.798,-204.774 688.233,-195.679 678.313,-199.399 682.798,-204.774"/>
</g>
<!-- Node3 -->
<g id="node5" class="node"><title>Node3</title>
<a xlink:href="StatusBar_8h.htm" target="_top" xlink:title="StatusBar.h">
<polygon fill="white" stroke="black" points="426.529,-116.5 426.529,-137.5 497.529,-137.5 497.529,-116.5 426.529,-116.5"/>
<text text-anchor="middle" x="462.029" y="-124.5" font-family="Helvetica,sans-Serif" font-size="10.00">StatusBar.h</text>
</a>
</g>
<!-- Node2&#45;&gt;Node3 -->
<g id="edge4" class="edge"><title>Node2&#45;&gt;Node3</title>
<path fill="none" stroke="midnightblue" d="M397.074,-232.284C408.924,-223.673 424.721,-210.63 435.029,-196 445.421,-181.252 452.53,-161.954 456.835,-147.517"/>
<polygon fill="midnightblue" stroke="midnightblue" points="460.29,-148.153 459.588,-137.581 453.544,-146.284 460.29,-148.153"/>
</g>
<!-- Node9 -->
<g id="node17" class="node"><title>Node9</title>
<polygon fill="white" stroke="#bfbfbf" points="263.029,-0.5 263.029,-21.5 361.029,-21.5 361.029,-0.5 263.029,-0.5"/>
<text text-anchor="middle" x="312.029" y="-8.5" font-family="Helvetica,sans-Serif" font-size="10.00">QGraphicsObject</text>
</g>
<!-- Node2&#45;&gt;Node9 -->
<g id="edge68" class="edge"><title>Node2&#45;&gt;Node9</title>
<path fill="none" stroke="midnightblue" d="M336.267,-237.238C246.471,-224.634 49.7092,-191.402 12.0294,-138 -50.4521,-49.4481 148.684,-22.3062 252.796,-14.2551"/>
<polygon fill="midnightblue" stroke="midnightblue" points="253.152,-17.7384 262.868,-13.5127 252.637,-10.7574 253.152,-17.7384"/>
</g>
<!-- Node16 -->
<g id="node34" class="node"><title>Node16</title>
<a xlink:href="StatusBarItem_8h.htm" target="_top" xlink:title="StatusBarItem.h">
<polygon fill="white" stroke="black" points="335.529,-174.5 335.529,-195.5 426.529,-195.5 426.529,-174.5 335.529,-174.5"/>
<text text-anchor="middle" x="381.029" y="-182.5" font-family="Helvetica,sans-Serif" font-size="10.00">StatusBarItem.h</text>
</a>
</g>
<!-- Node2&#45;&gt;Node16 -->
<g id="edge36" class="edge"><title>Node2&#45;&gt;Node16</title>
<path fill="none" stroke="midnightblue" d="M381.029,-232.362C381.029,-224.922 381.029,-214.743 381.029,-205.728"/>
<polygon fill="midnightblue" stroke="midnightblue" points="384.53,-205.571 381.029,-195.571 377.53,-205.571 384.53,-205.571"/>
</g>
<!-- Node17 -->
<g id="node38" class="node"><title>Node17</title>
<a xlink:href="StatusBarIcon_8h.htm" target="_top" xlink:title="StatusBarIcon.h">
<polygon fill="white" stroke="black" points="221.529,-174.5 221.529,-195.5 312.529,-195.5 312.529,-174.5 221.529,-174.5"/>
<text text-anchor="middle" x="267.029" y="-182.5" font-family="Helvetica,sans-Serif" font-size="10.00">StatusBarIcon.h</text>
</a>
</g>
<!-- Node2&#45;&gt;Node17 -->
<g id="edge42" class="edge"><title>Node2&#45;&gt;Node17</title>
<path fill="none" stroke="midnightblue" d="M360.385,-232.497C342.66,-223.479 316.885,-210.365 296.906,-200.201"/>
<polygon fill="midnightblue" stroke="midnightblue" points="298.406,-197.036 287.906,-195.621 295.231,-203.275 298.406,-197.036"/>
</g>
<!-- Node18 -->
<g id="node40" class="node"><title>Node18</title>
<polygon fill="white" stroke="#bfbfbf" points="96.5294,-116.5 96.5294,-137.5 155.529,-137.5 155.529,-116.5 96.5294,-116.5"/>
<text text-anchor="middle" x="126.029" y="-124.5" font-family="Helvetica,sans-Serif" font-size="10.00">QPixmap</text>
</g>
<!-- Node2&#45;&gt;Node18 -->
<g id="edge70" class="edge"><title>Node2&#45;&gt;Node18</title>
<path fill="none" stroke="midnightblue" d="M336.45,-235.553C301.524,-228.553 252.42,-216.091 213.029,-196 186.612,-182.526 160.53,-160.331 143.918,-144.761"/>
<polygon fill="midnightblue" stroke="midnightblue" points="146.207,-142.106 136.564,-137.717 141.365,-147.162 146.207,-142.106"/>
</g>
<!-- Node2&#45;&gt;Node22 -->
<g id="edge58" class="edge"><title>Node2&#45;&gt;Node22</title>
<path fill="none" stroke="midnightblue" d="M413.807,-232.497C443.443,-223 487.252,-208.962 519.561,-198.609"/>
<polygon fill="midnightblue" stroke="midnightblue" points="520.735,-201.908 529.19,-195.523 518.599,-195.242 520.735,-201.908"/>
</g>
<!-- Node4 -->
<g id="node7" class="node"><title>Node4</title>
<a xlink:href="Window_8h.htm" target="_top" xlink:title="Window.h">
<polygon fill="white" stroke="black" points="531.029,-58.5 531.029,-79.5 593.029,-79.5 593.029,-58.5 531.029,-58.5"/>
<text text-anchor="middle" x="562.029" y="-66.5" font-family="Helvetica,sans-Serif" font-size="10.00">Window.h</text>
</a>
</g>
<!-- Node3&#45;&gt;Node4 -->
<g id="edge6" class="edge"><title>Node3&#45;&gt;Node4</title>
<path fill="none" stroke="midnightblue" d="M480.371,-116.362C495.595,-107.532 517.471,-94.844 534.749,-84.8224"/>
<polygon fill="midnightblue" stroke="midnightblue" points="536.91,-87.6155 543.804,-79.5707 533.398,-81.5603 536.91,-87.6155"/>
</g>
<!-- Node3&#45;&gt;Node9 -->
<g id="edge22" class="edge"><title>Node3&#45;&gt;Node9</title>
<path fill="none" stroke="midnightblue" d="M447.696,-116.239C435.098,-106.755 416.289,-92.5359 400.029,-80 377.171,-62.3763 351.183,-41.9509 333.41,-27.9219"/>
<polygon fill="midnightblue" stroke="midnightblue" points="335.411,-25.0422 325.394,-21.5891 331.071,-30.5347 335.411,-25.0422"/>
</g>
<!-- Node11 -->
<g id="node21" class="node"><title>Node11</title>
<polygon fill="white" stroke="#bfbfbf" points="256.529,-58.5 256.529,-79.5 315.529,-79.5 315.529,-58.5 256.529,-58.5"/>
<text text-anchor="middle" x="286.029" y="-66.5" font-family="Helvetica,sans-Serif" font-size="10.00">QPointer</text>
</g>
<!-- Node3&#45;&gt;Node11 -->
<g id="edge20" class="edge"><title>Node3&#45;&gt;Node11</title>
<path fill="none" stroke="midnightblue" d="M430.157,-116.497C400.749,-106.805 356.989,-92.3843 325.407,-81.9766"/>
<polygon fill="midnightblue" stroke="midnightblue" points="326.207,-78.5553 315.614,-78.7495 324.016,-85.2036 326.207,-78.5553"/>
</g>
<!-- Node12 -->
<g id="node24" class="node"><title>Node12</title>
<a xlink:href="VariantAnimation_8h.htm" target="_top" xlink:title="VariantAnimation.h">
<polygon fill="white" stroke="black" points="408.529,-58.5 408.529,-79.5 513.529,-79.5 513.529,-58.5 408.529,-58.5"/>
<text text-anchor="middle" x="461.029" y="-66.5" font-family="Helvetica,sans-Serif" font-size="10.00">VariantAnimation.h</text>
</a>
</g>
<!-- Node3&#45;&gt;Node12 -->
<g id="edge24" class="edge"><title>Node3&#45;&gt;Node12</title>
<path fill="none" stroke="midnightblue" d="M461.846,-116.362C461.718,-108.922 461.542,-98.7427 461.387,-89.7276"/>
<polygon fill="midnightblue" stroke="midnightblue" points="464.884,-89.5088 461.212,-79.5707 457.885,-89.6295 464.884,-89.5088"/>
</g>
<!-- Node14 -->
<g id="node29" class="node"><title>Node14</title>
<a xlink:href="CustomEvents_8h.htm" target="_top" xlink:title="CustomEvents.h">
<polygon fill="white" stroke="black" points="611.029,-58.5 611.029,-79.5 703.029,-79.5 703.029,-58.5 611.029,-58.5"/>
<text text-anchor="middle" x="657.029" y="-66.5" font-family="Helvetica,sans-Serif" font-size="10.00">CustomEvents.h</text>
</a>
</g>
<!-- Node3&#45;&gt;Node14 -->
<g id="edge30" class="edge"><title>Node3&#45;&gt;Node14</title>
<path fill="none" stroke="midnightblue" d="M497.342,-116.497C529.408,-106.959 576.875,-92.8408 611.725,-82.475"/>
<polygon fill="midnightblue" stroke="midnightblue" points="613.063,-85.7288 621.65,-79.5231 611.067,-79.0193 613.063,-85.7288"/>
</g>
<!-- Node5 -->
<g id="node9" class="node"><title>Node5</title>
<a xlink:href="Common_8h.htm" target="_top" xlink:title="Common.h">
<polygon fill="white" stroke="black" points="700.529,-0.5 700.529,-21.5 767.529,-21.5 767.529,-0.5 700.529,-0.5"/>
<text text-anchor="middle" x="734.029" y="-8.5" font-family="Helvetica,sans-Serif" font-size="10.00">Common.h</text>
</a>
</g>
<!-- Node4&#45;&gt;Node5 -->
<g id="edge8" class="edge"><title>Node4&#45;&gt;Node5</title>
<path fill="none" stroke="midnightblue" d="M593.177,-58.4966C621.218,-49.0411 662.611,-35.0829 693.275,-24.7428"/>
<polygon fill="midnightblue" stroke="midnightblue" points="694.466,-28.035 702.823,-21.5231 692.229,-21.4019 694.466,-28.035"/>
</g>
<!-- Node6 -->
<g id="node11" class="node"><title>Node6</title>
<polygon fill="white" stroke="#bfbfbf" points="501.029,-0.5 501.029,-21.5 551.029,-21.5 551.029,-0.5 501.029,-0.5"/>
<text text-anchor="middle" x="526.029" y="-8.5" font-family="Helvetica,sans-Serif" font-size="10.00">stdint.h</text>
</g>
<!-- Node4&#45;&gt;Node6 -->
<g id="edge10" class="edge"><title>Node4&#45;&gt;Node6</title>
<path fill="none" stroke="midnightblue" d="M555.426,-58.3619C550.555,-50.5131 543.791,-39.6159 537.979,-30.2527"/>
<polygon fill="midnightblue" stroke="midnightblue" points="540.838,-28.2213 532.591,-21.5707 534.89,-31.9129 540.838,-28.2213"/>
</g>
<!-- Node7 -->
<g id="node13" class="node"><title>Node7</title>
<polygon fill="white" stroke="#bfbfbf" points="784.529,-0.5 784.529,-21.5 827.529,-21.5 827.529,-0.5 784.529,-0.5"/>
<text text-anchor="middle" x="806.029" y="-8.5" font-family="Helvetica,sans-Serif" font-size="10.00">string</text>
</g>
<!-- Node4&#45;&gt;Node7 -->
<g id="edge12" class="edge"><title>Node4&#45;&gt;Node7</title>
<path fill="none" stroke="midnightblue" d="M593.423,-60.1615C596.326,-59.4062 599.229,-58.6741 602.029,-58 675.659,-40.2785 698.246,-43.351 774.445,-22.1704"/>
<polygon fill="midnightblue" stroke="midnightblue" points="775.857,-25.4084 784.525,-19.3161 773.949,-18.6732 775.857,-25.4084"/>
</g>
<!-- Node8 -->
<g id="node15" class="node"><title>Node8</title>
<polygon fill="white" stroke="#bfbfbf" points="844.529,-0.5 844.529,-21.5 885.529,-21.5 885.529,-0.5 844.529,-0.5"/>
<text text-anchor="middle" x="865.029" y="-8.5" font-family="Helvetica,sans-Serif" font-size="10.00">glib.h</text>
</g>
<!-- Node4&#45;&gt;Node8 -->
<g id="edge14" class="edge"><title>Node4&#45;&gt;Node8</title>
<path fill="none" stroke="midnightblue" d="M593.388,-60.0074C596.299,-59.2844 599.212,-58.602 602.029,-58 701.815,-36.6785 732.433,-48.0637 834.517,-22.0151"/>
<polygon fill="midnightblue" stroke="midnightblue" points="835.499,-25.3761 844.291,-19.4639 833.731,-18.603 835.499,-25.3761"/>
</g>
<!-- Node4&#45;&gt;Node9 -->
<g id="edge16" class="edge"><title>Node4&#45;&gt;Node9</title>
<path fill="none" stroke="midnightblue" d="M530.624,-60.2098C527.723,-59.4443 524.825,-58.6967 522.029,-58 471.353,-45.3688 413.402,-32.5177 371.233,-23.4533"/>
<polygon fill="midnightblue" stroke="midnightblue" points="371.918,-20.0208 361.407,-21.3484 370.452,-26.8655 371.918,-20.0208"/>
</g>
<!-- Node10 -->
<g id="node19" class="node"><title>Node10</title>
<polygon fill="white" stroke="#bfbfbf" points="568.529,-0.5 568.529,-21.5 613.529,-21.5 613.529,-0.5 568.529,-0.5"/>
<text text-anchor="middle" x="591.029" y="-8.5" font-family="Helvetica,sans-Serif" font-size="10.00">QSize</text>
</g>
<!-- Node4&#45;&gt;Node10 -->
<g id="edge18" class="edge"><title>Node4&#45;&gt;Node10</title>
<path fill="none" stroke="midnightblue" d="M567.348,-58.3619C571.232,-50.5949 576.608,-39.8426 581.257,-30.5458"/>
<polygon fill="midnightblue" stroke="midnightblue" points="584.402,-32.0802 585.744,-21.5707 578.141,-28.9497 584.402,-32.0802"/>
</g>
<!-- Node12&#45;&gt;Node5 -->
<g id="edge26" class="edge"><title>Node12&#45;&gt;Node5</title>
<path fill="none" stroke="midnightblue" d="M513.964,-59.0953C558.609,-50.5457 624.426,-37.4862 690.043,-22.3881"/>
<polygon fill="midnightblue" stroke="midnightblue" points="691.192,-25.7146 700.143,-20.0471 689.611,-18.8953 691.192,-25.7146"/>
</g>
<!-- Node13 -->
<g id="node27" class="node"><title>Node13</title>
<polygon fill="white" stroke="#bfbfbf" points="378.529,-0.5 378.529,-21.5 483.529,-21.5 483.529,-0.5 378.529,-0.5"/>
<text text-anchor="middle" x="431.029" y="-8.5" font-family="Helvetica,sans-Serif" font-size="10.00">QVariantAnimation</text>
</g>
<!-- Node12&#45;&gt;Node13 -->
<g id="edge28" class="edge"><title>Node12&#45;&gt;Node13</title>
<path fill="none" stroke="midnightblue" d="M455.527,-58.3619C451.51,-50.5949 445.948,-39.8426 441.139,-30.5458"/>
<polygon fill="midnightblue" stroke="midnightblue" points="444.2,-28.8448 436.497,-21.5707 437.983,-32.0608 444.2,-28.8448"/>
</g>
<!-- Node14&#45;&gt;Node5 -->
<g id="edge32" class="edge"><title>Node14&#45;&gt;Node5</title>
<path fill="none" stroke="midnightblue" d="M671.152,-58.3619C682.549,-49.7773 698.787,-37.5459 711.907,-27.6636"/>
<polygon fill="midnightblue" stroke="midnightblue" points="714.114,-30.3829 719.996,-21.5707 709.903,-24.7916 714.114,-30.3829"/>
</g>
<!-- Node15 -->
<g id="node32" class="node"><title>Node15</title>
<polygon fill="white" stroke="#bfbfbf" points="631.029,-0.5 631.029,-21.5 683.029,-21.5 683.029,-0.5 631.029,-0.5"/>
<text text-anchor="middle" x="657.029" y="-8.5" font-family="Helvetica,sans-Serif" font-size="10.00">QEvent</text>
</g>
<!-- Node14&#45;&gt;Node15 -->
<g id="edge34" class="edge"><title>Node14&#45;&gt;Node15</title>
<path fill="none" stroke="midnightblue" d="M657.029,-58.3619C657.029,-50.9219 657.029,-40.7427 657.029,-31.7276"/>
<polygon fill="midnightblue" stroke="midnightblue" points="660.53,-31.5706 657.029,-21.5707 653.53,-31.5707 660.53,-31.5706"/>
</g>
<!-- Node16&#45;&gt;Node3 -->
<g id="edge38" class="edge"><title>Node16&#45;&gt;Node3</title>
<path fill="none" stroke="midnightblue" d="M395.886,-174.362C407.875,-165.777 424.957,-153.546 438.758,-143.664"/>
<polygon fill="midnightblue" stroke="midnightblue" points="441.174,-146.238 447.267,-137.571 437.099,-140.547 441.174,-146.238"/>
</g>
<!-- Node16&#45;&gt;Node9 -->
<g id="edge40" class="edge"><title>Node16&#45;&gt;Node9</title>
<path fill="none" stroke="midnightblue" d="M376.817,-174.377C365.584,-146.051 334.771,-68.3488 320.057,-31.2424"/>
<polygon fill="midnightblue" stroke="midnightblue" points="323.303,-29.9333 316.363,-21.9277 316.796,-32.5137 323.303,-29.9333"/>
</g>
<!-- Node17&#45;&gt;Node9 -->
<g id="edge50" class="edge"><title>Node17&#45;&gt;Node9</title>
<path fill="none" stroke="midnightblue" d="M242.598,-174.473C227.931,-166.715 210.52,-154.617 202.029,-138 197.581,-129.293 198.812,-125.233 202.029,-116 215.999,-75.9059 255.827,-44.7491 283.513,-27.1235"/>
<polygon fill="midnightblue" stroke="midnightblue" points="285.695,-29.8903 292.381,-21.6714 282.029,-23.927 285.695,-29.8903"/>
</g>
<!-- Node17&#45;&gt;Node11 -->
<g id="edge52" class="edge"><title>Node17&#45;&gt;Node11</title>
<path fill="none" stroke="midnightblue" d="M278.904,-174.36C287.73,-165.599 299.067,-152.327 304.029,-138 309.638,-121.809 303.92,-102.957 297.484,-89.053"/>
<polygon fill="midnightblue" stroke="midnightblue" points="300.484,-87.2308 292.823,-79.9126 294.248,-90.4111 300.484,-87.2308"/>
</g>
<!-- Node17&#45;&gt;Node12 -->
<g id="edge56" class="edge"><title>Node17&#45;&gt;Node12</title>
<path fill="none" stroke="midnightblue" d="M284.933,-174.295C319.307,-153.741 394.685,-108.67 434.763,-84.7059"/>
<polygon fill="midnightblue" stroke="midnightblue" points="436.663,-87.6476 443.45,-79.5117 433.071,-81.6397 436.663,-87.6476"/>
</g>
<!-- Node17&#45;&gt;Node18 -->
<g id="edge44" class="edge"><title>Node17&#45;&gt;Node18</title>
<path fill="none" stroke="midnightblue" d="M241.495,-174.497C219.076,-165.275 186.245,-151.769 161.317,-141.515"/>
<polygon fill="midnightblue" stroke="midnightblue" points="162.43,-138.189 151.85,-137.621 159.767,-144.662 162.43,-138.189"/>
</g>
<!-- Node19 -->
<g id="node42" class="node"><title>Node19</title>
<polygon fill="white" stroke="#bfbfbf" points="514.529,-116.5 514.529,-137.5 569.529,-137.5 569.529,-116.5 514.529,-116.5"/>
<text text-anchor="middle" x="542.029" y="-124.5" font-family="Helvetica,sans-Serif" font-size="10.00">QObject</text>
</g>
<!-- Node17&#45;&gt;Node19 -->
<g id="edge46" class="edge"><title>Node17&#45;&gt;Node19</title>
<path fill="none" stroke="midnightblue" d="M312.637,-176.608C367.336,-166.45 456.773,-149.521 504.418,-138.206"/>
<polygon fill="midnightblue" stroke="midnightblue" points="505.32,-141.589 514.2,-135.811 503.655,-134.79 505.32,-141.589"/>
</g>
<!-- Node17&#45;&gt;Node20 -->
<g id="edge48" class="edge"><title>Node17&#45;&gt;Node20</title>
<path fill="none" stroke="midnightblue" d="M225.715,-174.465C191.513,-165.673 141.406,-152.632 89.5748,-138.39"/>
<polygon fill="midnightblue" stroke="midnightblue" points="90.4508,-135.001 79.8802,-135.717 88.5904,-141.749 90.4508,-135.001"/>
</g>
<!-- Node21 -->
<g id="node48" class="node"><title>Node21</title>
<polygon fill="white" stroke="#bfbfbf" points="210.529,-116.5 210.529,-137.5 295.529,-137.5 295.529,-116.5 210.529,-116.5"/>
<text text-anchor="middle" x="253.029" y="-124.5" font-family="Helvetica,sans-Serif" font-size="10.00">QEasingCurve</text>
</g>
<!-- Node17&#45;&gt;Node21 -->
<g id="edge54" class="edge"><title>Node17&#45;&gt;Node21</title>
<path fill="none" stroke="midnightblue" d="M264.462,-174.362C262.646,-166.84 260.155,-156.519 257.961,-147.431"/>
<polygon fill="midnightblue" stroke="midnightblue" points="261.33,-146.47 255.581,-137.571 254.525,-148.113 261.33,-146.47"/>
</g>
<!-- Node22&#45;&gt;Node3 -->
<g id="edge66" class="edge"><title>Node22&#45;&gt;Node3</title>
<path fill="none" stroke="midnightblue" d="M543.688,-174.362C528.464,-165.532 506.588,-152.844 489.309,-142.822"/>
<polygon fill="midnightblue" stroke="midnightblue" points="490.661,-139.56 480.255,-137.571 487.149,-145.615 490.661,-139.56"/>
</g>
<!-- Node22&#45;&gt;Node19 -->
<g id="edge60" class="edge"><title>Node22&#45;&gt;Node19</title>
<path fill="none" stroke="midnightblue" d="M558.361,-174.362C555.739,-166.758 552.131,-156.294 548.972,-147.135"/>
<polygon fill="midnightblue" stroke="midnightblue" points="552.243,-145.883 545.674,-137.571 545.626,-148.165 552.243,-145.883"/>
</g>
<!-- Node23 -->
<g id="node54" class="node"><title>Node23</title>
<polygon fill="white" stroke="#bfbfbf" points="587.029,-116.5 587.029,-137.5 665.029,-137.5 665.029,-116.5 587.029,-116.5"/>
<text text-anchor="middle" x="626.029" y="-124.5" font-family="Helvetica,sans-Serif" font-size="10.00">lunaservice.h</text>
</g>
<!-- Node22&#45;&gt;Node23 -->
<g id="edge62" class="edge"><title>Node22&#45;&gt;Node23</title>
<path fill="none" stroke="midnightblue" d="M573.768,-174.362C582.97,-166.023 595.969,-154.242 606.701,-144.516"/>
<polygon fill="midnightblue" stroke="midnightblue" points="609.306,-146.879 614.365,-137.571 604.605,-141.692 609.306,-146.879"/>
</g>
<!-- Node24 -->
<g id="node56" class="node"><title>Node24</title>
<polygon fill="white" stroke="#bfbfbf" points="1042.53,-0.5 1042.53,-21.5 1073.53,-21.5 1073.53,-0.5 1042.53,-0.5"/>
<text text-anchor="middle" x="1058.03" y="-8.5" font-family="Helvetica,sans-Serif" font-size="10.00">set</text>
</g>
<!-- Node22&#45;&gt;Node24 -->
<g id="edge64" class="edge"><title>Node22&#45;&gt;Node24</title>
<path fill="none" stroke="midnightblue" d="M642.033,-174.46C736.978,-161.844 884.047,-141.922 896.029,-138 947.81,-121.052 962.351,-115.091 1004.03,-80 1020.99,-65.7207 1036.14,-45.3349 1046.05,-30.4245"/>
<polygon fill="midnightblue" stroke="midnightblue" points="1049.03,-32.2538 1051.51,-21.9518 1043.15,-28.4627 1049.03,-32.2538"/>
</g>
<!-- Node25&#45;&gt;Node5 -->
<g id="edge74" class="edge"><title>Node25&#45;&gt;Node5</title>
<path fill="none" stroke="midnightblue" d="M932.402,-61.2075C896.99,-52.4577 837.632,-37.7161 777.919,-22.4682"/>
<polygon fill="midnightblue" stroke="midnightblue" points="778.502,-19.0049 767.947,-19.9179 776.768,-25.7866 778.502,-19.0049"/>
</g>
<!-- Node25&#45;&gt;Node7 -->
<g id="edge76" class="edge"><title>Node25&#45;&gt;Node7</title>
<path fill="none" stroke="midnightblue" d="M935.417,-58.4966C907.734,-48.3345 865.883,-32.9717 837.326,-22.4888"/>
<polygon fill="midnightblue" stroke="midnightblue" points="838.419,-19.1614 827.825,-19.0009 836.006,-25.7326 838.419,-19.1614"/>
</g>
<!-- Node25&#45;&gt;Node8 -->
<g id="edge82" class="edge"><title>Node25&#45;&gt;Node8</title>
<path fill="none" stroke="midnightblue" d="M945.871,-58.3619C930.8,-49.532 909.142,-36.844 892.037,-26.8224"/>
<polygon fill="midnightblue" stroke="midnightblue" points="893.47,-23.6058 883.072,-21.5707 889.931,-29.6456 893.47,-23.6058"/>
</g>
<!-- Node25&#45;&gt;Node24 -->
<g id="edge80" class="edge"><title>Node25&#45;&gt;Node24</title>
<path fill="none" stroke="midnightblue" d="M981.27,-58.3619C996.028,-49.2561 1017.44,-36.0472 1033.9,-25.8909"/>
<polygon fill="midnightblue" stroke="midnightblue" points="1035.79,-28.8378 1042.46,-20.608 1032.11,-22.8805 1035.79,-28.8378"/>
</g>
<!-- Node26 -->
<g id="node65" class="node"><title>Node26</title>
<polygon fill="white" stroke="#bfbfbf" points="979.029,-0.5 979.029,-21.5 1025.03,-21.5 1025.03,-0.5 979.029,-0.5"/>
<text text-anchor="middle" x="1002.03" y="-8.5" font-family="Helvetica,sans-Serif" font-size="10.00">vector</text>
</g>
<!-- Node25&#45;&gt;Node26 -->
<g id="edge78" class="edge"><title>Node25&#45;&gt;Node26</title>
<path fill="none" stroke="midnightblue" d="M970.999,-58.3619C976.195,-50.4313 983.43,-39.3885 989.607,-29.9606"/>
<polygon fill="midnightblue" stroke="midnightblue" points="992.551,-31.8534 995.104,-21.5707 986.696,-28.0172 992.551,-31.8534"/>
</g>
<!-- Node27 -->
<g id="node69" class="node"><title>Node27</title>
<polygon fill="white" stroke="#bfbfbf" points="903.029,-0.5 903.029,-21.5 961.029,-21.5 961.029,-0.5 903.029,-0.5"/>
<text text-anchor="middle" x="932.029" y="-8.5" font-family="Helvetica,sans-Serif" font-size="10.00">QtGlobal</text>
</g>
<!-- Node25&#45;&gt;Node27 -->
<g id="edge84" class="edge"><title>Node25&#45;&gt;Node27</title>
<path fill="none" stroke="midnightblue" d="M958.16,-58.3619C953.875,-50.5949 947.943,-39.8426 942.813,-30.5458"/>
<polygon fill="midnightblue" stroke="midnightblue" points="945.757,-28.6357 937.862,-21.5707 939.628,-32.0172 945.757,-28.6357"/>
</g>
<!-- Node28&#45;&gt;Node5 -->
<g id="edge88" class="edge"><title>Node28&#45;&gt;Node5</title>
<path fill="none" stroke="midnightblue" d="M703.044,-174.377C708.37,-146.293 722.902,-69.6735 730.008,-32.2027"/>
<polygon fill="midnightblue" stroke="midnightblue" points="733.532,-32.4048 731.957,-21.9277 726.655,-31.1004 733.532,-32.4048"/>
</g>
<!-- Node28&#45;&gt;Node7 -->
<g id="edge90" class="edge"><title>Node28&#45;&gt;Node7</title>
<path fill="none" stroke="midnightblue" d="M707.44,-174.377C724.606,-145.93 771.824,-67.6838 794.1,-30.7689"/>
<polygon fill="midnightblue" stroke="midnightblue" points="797.265,-32.298 799.435,-21.9277 791.272,-28.6813 797.265,-32.298"/>
</g>
<!-- Node28&#45;&gt;Node14 -->
<g id="edge106" class="edge"><title>Node28&#45;&gt;Node14</title>
<path fill="none" stroke="midnightblue" d="M696.969,-174.295C689.634,-154.959 674.069,-113.923 664.683,-89.1767"/>
<polygon fill="midnightblue" stroke="midnightblue" points="667.899,-87.7879 661.08,-79.6792 661.354,-90.2705 667.899,-87.7879"/>
</g>
<!-- Node28&#45;&gt;Node19 -->
<g id="edge108" class="edge"><title>Node28&#45;&gt;Node19</title>
<path fill="none" stroke="midnightblue" d="M672.236,-174.497C646.139,-164.977 607.53,-150.893 579.128,-140.533"/>
<polygon fill="midnightblue" stroke="midnightblue" points="580.139,-137.176 569.545,-137.037 577.74,-143.752 580.139,-137.176"/>
</g>
<!-- Node28&#45;&gt;Node23 -->
<g id="edge92" class="edge"><title>Node28&#45;&gt;Node23</title>
<path fill="none" stroke="midnightblue" d="M687.273,-174.362C676.278,-165.859 660.657,-153.779 647.943,-143.947"/>
<polygon fill="midnightblue" stroke="midnightblue" points="649.75,-140.919 639.698,-137.571 645.468,-146.457 649.75,-140.919"/>
</g>
<!-- Node29 -->
<g id="node76" class="node"><title>Node29</title>
<a xlink:href="Mutex_8h.htm" target="_top" xlink:title="Mutex.h">
<polygon fill="white" stroke="black" points="834.529,-116.5 834.529,-137.5 887.529,-137.5 887.529,-116.5 834.529,-116.5"/>
<text text-anchor="middle" x="861.029" y="-124.5" font-family="Helvetica,sans-Serif" font-size="10.00">Mutex.h</text>
</a>
</g>
<!-- Node28&#45;&gt;Node29 -->
<g id="edge94" class="edge"><title>Node28&#45;&gt;Node29</title>
<path fill="none" stroke="midnightblue" d="M730.004,-174.497C756.588,-164.86 796.072,-150.547 824.745,-140.153"/>
<polygon fill="midnightblue" stroke="midnightblue" points="826.188,-143.353 834.397,-136.654 823.803,-136.772 826.188,-143.353"/>
</g>
<!-- Node29&#45;&gt;Node5 -->
<g id="edge96" class="edge"><title>Node29&#45;&gt;Node5</title>
<path fill="none" stroke="midnightblue" d="M849.309,-116.295C827.383,-96.2682 779.973,-52.9641 753.287,-28.5893"/>
<polygon fill="midnightblue" stroke="midnightblue" points="755.465,-25.839 745.721,-21.6792 750.744,-31.0076 755.465,-25.839"/>
</g>
<!-- Node29&#45;&gt;Node8 -->
<g id="edge104" class="edge"><title>Node29&#45;&gt;Node8</title>
<path fill="none" stroke="midnightblue" d="M868.613,-116.418C874.668,-107.276 882.674,-93.4513 886.029,-80 890.223,-63.1843 883.744,-44.3826 876.907,-30.6576"/>
<polygon fill="midnightblue" stroke="midnightblue" points="879.866,-28.7731 872.012,-21.6619 873.717,-32.1186 879.866,-28.7731"/>
</g>
<!-- Node30 -->
<g id="node79" class="node"><title>Node30</title>
<a xlink:href="sptr_8h.htm" target="_top" xlink:title="sptr.h">
<polygon fill="white" stroke="black" points="834.529,-58.5 834.529,-79.5 877.529,-79.5 877.529,-58.5 834.529,-58.5"/>
<text text-anchor="middle" x="856.029" y="-66.5" font-family="Helvetica,sans-Serif" font-size="10.00">sptr.h</text>
</a>
</g>
<!-- Node29&#45;&gt;Node30 -->
<g id="edge98" class="edge"><title>Node29&#45;&gt;Node30</title>
<path fill="none" stroke="midnightblue" d="M860.112,-116.362C859.471,-108.922 858.593,-98.7427 857.816,-89.7276"/>
<polygon fill="midnightblue" stroke="midnightblue" points="861.287,-89.2331 856.941,-79.5707 854.313,-89.8343 861.287,-89.2331"/>
</g>
<!-- Node30&#45;&gt;Node5 -->
<g id="edge100" class="edge"><title>Node30&#45;&gt;Node5</title>
<path fill="none" stroke="midnightblue" d="M834.499,-58.7643C815.312,-49.6424 786.994,-36.1799 765.308,-25.8704"/>
<polygon fill="midnightblue" stroke="midnightblue" points="766.702,-22.6576 756.168,-21.5249 763.697,-28.9795 766.702,-22.6576"/>
</g>
<!-- Node30&#45;&gt;Node8 -->
<g id="edge102" class="edge"><title>Node30&#45;&gt;Node8</title>
<path fill="none" stroke="midnightblue" d="M857.68,-58.3619C858.835,-50.9219 860.414,-40.7427 861.813,-31.7276"/>
<polygon fill="midnightblue" stroke="midnightblue" points="865.314,-31.9891 863.389,-21.5707 858.397,-30.9157 865.314,-31.9891"/>
</g>
</g>
</svg>
