<?xml version="1.0" encoding="UTF-8" standalone="no"?>
<!DOCTYPE svg PUBLIC "-//W3C//DTD SVG 1.1//EN"
 "http://www.w3.org/Graphics/SVG/1.1/DTD/svg11.dtd">
<!-- Generated by graphviz version 2.26.3 (20100126.1600)
 -->
<!-- Title: G Pages: 1 -->
<svg width="1202pt" height="204pt"
 viewBox="0.00 0.00 1202.00 204.00" xmlns="http://www.w3.org/2000/svg" xmlns:xlink="http://www.w3.org/1999/xlink">
<g id="graph1" class="graph" transform="scale(1 1) rotate(0) translate(4 200)">
<title>G</title>
<polygon fill="white" stroke="white" points="-4,5 -4,-200 1199,-200 1199,5 -4,5"/>
<!-- Node1 -->
<g id="node1" class="node"><title>Node1</title>
<polygon fill="#bfbfbf" stroke="black" points="500,-174.5 500,-195.5 602,-195.5 602,-174.5 500,-174.5"/>
<text text-anchor="middle" x="551" y="-182.5" font-family="Helvetica,sans-Serif" font-size="10.00">StatusBarIcon.cpp</text>
</g>
<!-- Node2 -->
<g id="node3" class="node"><title>Node2</title>
<a xlink:href="StatusBarIcon_8h.htm" target="_top" xlink:title="StatusBarIcon.h">
<polygon fill="white" stroke="black" points="275.5,-116.5 275.5,-137.5 366.5,-137.5 366.5,-116.5 275.5,-116.5"/>
<text text-anchor="middle" x="321" y="-124.5" font-family="Helvetica,sans-Serif" font-size="10.00">StatusBarIcon.h</text>
</a>
</g>
<!-- Node1&#45;&gt;Node2 -->
<g id="edge2" class="edge"><title>Node1&#45;&gt;Node2</title>
<path fill="none" stroke="midnightblue" d="M509.349,-174.497C470.96,-164.816 413.855,-150.416 372.593,-140.01"/>
<polygon fill="midnightblue" stroke="midnightblue" points="373.282,-136.575 362.729,-137.523 371.57,-143.362 373.282,-136.575"/>
</g>
<!-- Node5 -->
<g id="node9" class="node"><title>Node5</title>
<polygon fill="white" stroke="#bfbfbf" points="-0.5,-58.5 -0.5,-79.5 58.5,-79.5 58.5,-58.5 -0.5,-58.5"/>
<text text-anchor="middle" x="29" y="-66.5" font-family="Helvetica,sans-Serif" font-size="10.00">QPainter</text>
</g>
<!-- Node1&#45;&gt;Node5 -->
<g id="edge52" class="edge"><title>Node1&#45;&gt;Node5</title>
<path fill="none" stroke="midnightblue" d="M499.858,-178.393C442.725,-170.582 347.661,-156.299 267,-138 196.253,-121.95 115.443,-97.106 68.5238,-82.0173"/>
<polygon fill="midnightblue" stroke="midnightblue" points="69.3521,-78.6068 58.7603,-78.8608 67.1987,-85.2673 69.3521,-78.6068"/>
</g>
<!-- Node12 -->
<g id="node23" class="node"><title>Node12</title>
<a xlink:href="Settings_8h.htm" target="_top" xlink:title="Settings.h">
<polygon fill="white" stroke="black" points="749.5,-116.5 749.5,-137.5 812.5,-137.5 812.5,-116.5 749.5,-116.5"/>
<text text-anchor="middle" x="781" y="-124.5" font-family="Helvetica,sans-Serif" font-size="10.00">Settings.h</text>
</a>
</g>
<!-- Node1&#45;&gt;Node12 -->
<g id="edge22" class="edge"><title>Node1&#45;&gt;Node12</title>
<path fill="none" stroke="midnightblue" d="M592.651,-174.497C634.269,-164.002 697.884,-147.96 739.462,-137.475"/>
<polygon fill="midnightblue" stroke="midnightblue" points="740.432,-140.84 749.272,-135.001 738.72,-134.052 740.432,-140.84"/>
</g>
<!-- Node18 -->
<g id="node36" class="node"><title>Node18</title>
<a xlink:href="AnimationSettings_8h.htm" target="_top" xlink:title="AnimationSettings.h">
<polygon fill="white" stroke="black" points="915,-116.5 915,-137.5 1025,-137.5 1025,-116.5 915,-116.5"/>
<text text-anchor="middle" x="970" y="-124.5" font-family="Helvetica,sans-Serif" font-size="10.00">AnimationSettings.h</text>
</a>
</g>
<!-- Node1&#45;&gt;Node18 -->
<g id="edge36" class="edge"><title>Node1&#45;&gt;Node18</title>
<path fill="none" stroke="midnightblue" d="M602.378,-177.888C678.526,-167.347 821.309,-147.583 904.751,-136.032"/>
<polygon fill="midnightblue" stroke="midnightblue" points="905.447,-139.469 914.873,-134.631 904.488,-132.535 905.447,-139.469"/>
</g>
<!-- Node3 -->
<g id="node5" class="node"><title>Node3</title>
<polygon fill="white" stroke="#bfbfbf" points="75.5,-58.5 75.5,-79.5 134.5,-79.5 134.5,-58.5 75.5,-58.5"/>
<text text-anchor="middle" x="105" y="-66.5" font-family="Helvetica,sans-Serif" font-size="10.00">QPixmap</text>
</g>
<!-- Node2&#45;&gt;Node3 -->
<g id="edge4" class="edge"><title>Node2&#45;&gt;Node3</title>
<path fill="none" stroke="midnightblue" d="M279.921,-116.447C245.912,-107.644 196.086,-94.5972 144.501,-80.3808"/>
<polygon fill="midnightblue" stroke="midnightblue" points="145.423,-77.0045 134.852,-77.7135 143.558,-83.7514 145.423,-77.0045"/>
</g>
<!-- Node4 -->
<g id="node7" class="node"><title>Node4</title>
<polygon fill="white" stroke="#bfbfbf" points="151.5,-58.5 151.5,-79.5 206.5,-79.5 206.5,-58.5 151.5,-58.5"/>
<text text-anchor="middle" x="179" y="-66.5" font-family="Helvetica,sans-Serif" font-size="10.00">QObject</text>
</g>
<!-- Node2&#45;&gt;Node4 -->
<g id="edge6" class="edge"><title>Node2&#45;&gt;Node4</title>
<path fill="none" stroke="midnightblue" d="M295.285,-116.497C272.707,-107.275 239.642,-93.7695 214.537,-83.5153"/>
<polygon fill="midnightblue" stroke="midnightblue" points="215.585,-80.1624 205.004,-79.6212 212.938,-86.6427 215.585,-80.1624"/>
</g>
<!-- Node2&#45;&gt;Node5 -->
<g id="edge8" class="edge"><title>Node2&#45;&gt;Node5</title>
<path fill="none" stroke="midnightblue" d="M275.292,-119.94C226.317,-112.064 146.14,-98.2815 68.7139,-80.2623"/>
<polygon fill="midnightblue" stroke="midnightblue" points="69.3331,-76.8124 58.797,-77.9271 67.7286,-83.6261 69.3331,-76.8124"/>
</g>
<!-- Node6 -->
<g id="node11" class="node"><title>Node6</title>
<polygon fill="white" stroke="#bfbfbf" points="224,-58.5 224,-79.5 322,-79.5 322,-58.5 224,-58.5"/>
<text text-anchor="middle" x="273" y="-66.5" font-family="Helvetica,sans-Serif" font-size="10.00">QGraphicsObject</text>
</g>
<!-- Node2&#45;&gt;Node6 -->
<g id="edge10" class="edge"><title>Node2&#45;&gt;Node6</title>
<path fill="none" stroke="midnightblue" d="M312.196,-116.362C305.498,-108.268 296.116,-96.9318 288.211,-87.3796"/>
<polygon fill="midnightblue" stroke="midnightblue" points="290.82,-85.0431 281.748,-79.5707 285.427,-89.5061 290.82,-85.0431"/>
</g>
<!-- Node7 -->
<g id="node13" class="node"><title>Node7</title>
<polygon fill="white" stroke="#bfbfbf" points="339.5,-58.5 339.5,-79.5 398.5,-79.5 398.5,-58.5 339.5,-58.5"/>
<text text-anchor="middle" x="369" y="-66.5" font-family="Helvetica,sans-Serif" font-size="10.00">QPointer</text>
</g>
<!-- Node2&#45;&gt;Node7 -->
<g id="edge12" class="edge"><title>Node2&#45;&gt;Node7</title>
<path fill="none" stroke="midnightblue" d="M329.804,-116.362C336.502,-108.268 345.884,-96.9318 353.789,-87.3796"/>
<polygon fill="midnightblue" stroke="midnightblue" points="356.573,-89.5061 360.252,-79.5707 351.18,-85.0431 356.573,-89.5061"/>
</g>
<!-- Node8 -->
<g id="node15" class="node"><title>Node8</title>
<polygon fill="white" stroke="#bfbfbf" points="415.5,-58.5 415.5,-79.5 500.5,-79.5 500.5,-58.5 415.5,-58.5"/>
<text text-anchor="middle" x="458" y="-66.5" font-family="Helvetica,sans-Serif" font-size="10.00">QEasingCurve</text>
</g>
<!-- Node2&#45;&gt;Node8 -->
<g id="edge14" class="edge"><title>Node2&#45;&gt;Node8</title>
<path fill="none" stroke="midnightblue" d="M345.81,-116.497C367.496,-107.315 399.211,-93.8889 423.392,-83.6516"/>
<polygon fill="midnightblue" stroke="midnightblue" points="425.068,-86.7429 432.912,-79.6212 422.339,-80.2968 425.068,-86.7429"/>
</g>
<!-- Node9 -->
<g id="node17" class="node"><title>Node9</title>
<a xlink:href="VariantAnimation_8h.htm" target="_top" xlink:title="VariantAnimation.h">
<polygon fill="white" stroke="black" points="517.5,-58.5 517.5,-79.5 622.5,-79.5 622.5,-58.5 517.5,-58.5"/>
<text text-anchor="middle" x="570" y="-66.5" font-family="Helvetica,sans-Serif" font-size="10.00">VariantAnimation.h</text>
</a>
</g>
<!-- Node2&#45;&gt;Node9 -->
<g id="edge16" class="edge"><title>Node2&#45;&gt;Node9</title>
<path fill="none" stroke="midnightblue" d="M366.092,-116.497C407.916,-106.755 470.259,-92.2328 514.993,-81.813"/>
<polygon fill="midnightblue" stroke="midnightblue" points="515.878,-85.2005 524.823,-79.5231 514.29,-78.383 515.878,-85.2005"/>
</g>
<!-- Node10 -->
<g id="node19" class="node"><title>Node10</title>
<a xlink:href="Common_8h.htm" target="_top" xlink:title="Common.h">
<polygon fill="white" stroke="black" points="882.5,-0.5 882.5,-21.5 949.5,-21.5 949.5,-0.5 882.5,-0.5"/>
<text text-anchor="middle" x="916" y="-8.5" font-family="Helvetica,sans-Serif" font-size="10.00">Common.h</text>
</a>
</g>
<!-- Node9&#45;&gt;Node10 -->
<g id="edge18" class="edge"><title>Node9&#45;&gt;Node10</title>
<path fill="none" stroke="midnightblue" d="M622.564,-59.4698C625.417,-58.9686 628.243,-58.4759 631,-58 716.366,-43.2649 816.298,-27.0147 872.266,-18.0038"/>
<polygon fill="midnightblue" stroke="midnightblue" points="872.874,-21.4511 882.191,-16.4075 871.762,-14.5399 872.874,-21.4511"/>
</g>
<!-- Node11 -->
<g id="node21" class="node"><title>Node11</title>
<polygon fill="white" stroke="#bfbfbf" points="517.5,-0.5 517.5,-21.5 622.5,-21.5 622.5,-0.5 517.5,-0.5"/>
<text text-anchor="middle" x="570" y="-8.5" font-family="Helvetica,sans-Serif" font-size="10.00">QVariantAnimation</text>
</g>
<!-- Node9&#45;&gt;Node11 -->
<g id="edge20" class="edge"><title>Node9&#45;&gt;Node11</title>
<path fill="none" stroke="midnightblue" d="M570,-58.3619C570,-50.9219 570,-40.7427 570,-31.7276"/>
<polygon fill="midnightblue" stroke="midnightblue" points="573.5,-31.5706 570,-21.5707 566.5,-31.5707 573.5,-31.5706"/>
</g>
<!-- Node12&#45;&gt;Node10 -->
<g id="edge24" class="edge"><title>Node12&#45;&gt;Node10</title>
<path fill="none" stroke="midnightblue" d="M792.128,-116.482C806.759,-102.748 833.382,-78.0928 857,-58 869.082,-47.7217 882.939,-36.6479 894.186,-27.8324"/>
<polygon fill="midnightblue" stroke="midnightblue" points="896.47,-30.4898 902.206,-21.5819 892.167,-24.9686 896.47,-30.4898"/>
</g>
<!-- Node13 -->
<g id="node26" class="node"><title>Node13</title>
<polygon fill="white" stroke="#bfbfbf" points="865.5,-58.5 865.5,-79.5 908.5,-79.5 908.5,-58.5 865.5,-58.5"/>
<text text-anchor="middle" x="887" y="-66.5" font-family="Helvetica,sans-Serif" font-size="10.00">string</text>
</g>
<!-- Node12&#45;&gt;Node13 -->
<g id="edge26" class="edge"><title>Node12&#45;&gt;Node13</title>
<path fill="none" stroke="midnightblue" d="M800.442,-116.362C816.804,-107.409 840.413,-94.4908 858.843,-84.4064"/>
<polygon fill="midnightblue" stroke="midnightblue" points="860.589,-87.4412 867.681,-79.5707 857.229,-81.3004 860.589,-87.4412"/>
</g>
<!-- Node14 -->
<g id="node28" class="node"><title>Node14</title>
<polygon fill="white" stroke="#bfbfbf" points="640,-58.5 640,-79.5 686,-79.5 686,-58.5 640,-58.5"/>
<text text-anchor="middle" x="663" y="-66.5" font-family="Helvetica,sans-Serif" font-size="10.00">vector</text>
</g>
<!-- Node12&#45;&gt;Node14 -->
<g id="edge28" class="edge"><title>Node12&#45;&gt;Node14</title>
<path fill="none" stroke="midnightblue" d="M759.631,-116.497C741.201,-107.438 714.363,-94.2462 693.645,-84.0628"/>
<polygon fill="midnightblue" stroke="midnightblue" points="695.127,-80.8914 684.609,-79.6212 692.039,-87.1735 695.127,-80.8914"/>
</g>
<!-- Node15 -->
<g id="node30" class="node"><title>Node15</title>
<polygon fill="white" stroke="#bfbfbf" points="703.5,-58.5 703.5,-79.5 734.5,-79.5 734.5,-58.5 703.5,-58.5"/>
<text text-anchor="middle" x="719" y="-66.5" font-family="Helvetica,sans-Serif" font-size="10.00">set</text>
</g>
<!-- Node12&#45;&gt;Node15 -->
<g id="edge30" class="edge"><title>Node12&#45;&gt;Node15</title>
<path fill="none" stroke="midnightblue" d="M769.628,-116.362C760.714,-108.023 748.121,-96.2418 737.724,-86.5162"/>
<polygon fill="midnightblue" stroke="midnightblue" points="739.993,-83.8463 730.3,-79.5707 735.211,-88.9582 739.993,-83.8463"/>
</g>
<!-- Node16 -->
<g id="node32" class="node"><title>Node16</title>
<polygon fill="white" stroke="#bfbfbf" points="925.5,-58.5 925.5,-79.5 966.5,-79.5 966.5,-58.5 925.5,-58.5"/>
<text text-anchor="middle" x="946" y="-66.5" font-family="Helvetica,sans-Serif" font-size="10.00">glib.h</text>
</g>
<!-- Node12&#45;&gt;Node16 -->
<g id="edge32" class="edge"><title>Node12&#45;&gt;Node16</title>
<path fill="none" stroke="midnightblue" d="M812.423,-116.437C838.052,-107.756 875.409,-94.9554 915.914,-80.3361"/>
<polygon fill="midnightblue" stroke="midnightblue" points="917.223,-83.5847 925.433,-76.8878 914.839,-77.0032 917.223,-83.5847"/>
</g>
<!-- Node17 -->
<g id="node34" class="node"><title>Node17</title>
<polygon fill="white" stroke="#bfbfbf" points="752,-58.5 752,-79.5 810,-79.5 810,-58.5 752,-58.5"/>
<text text-anchor="middle" x="781" y="-66.5" font-family="Helvetica,sans-Serif" font-size="10.00">QtGlobal</text>
</g>
<!-- Node12&#45;&gt;Node17 -->
<g id="edge34" class="edge"><title>Node12&#45;&gt;Node17</title>
<path fill="none" stroke="midnightblue" d="M781,-116.362C781,-108.922 781,-98.7427 781,-89.7276"/>
<polygon fill="midnightblue" stroke="midnightblue" points="784.5,-89.5706 781,-79.5707 777.5,-89.5707 784.5,-89.5706"/>
</g>
<!-- Node18&#45;&gt;Node10 -->
<g id="edge38" class="edge"><title>Node18&#45;&gt;Node10</title>
<path fill="none" stroke="midnightblue" d="M974.003,-116.092C978.502,-101.937 984.072,-76.8264 975,-58 968.793,-45.1205 957.151,-34.6785 945.837,-26.9373"/>
<polygon fill="midnightblue" stroke="midnightblue" points="947.664,-23.9513 937.345,-21.5484 943.913,-29.8617 947.664,-23.9513"/>
</g>
<!-- Node18&#45;&gt;Node13 -->
<g id="edge44" class="edge"><title>Node18&#45;&gt;Node13</title>
<path fill="none" stroke="midnightblue" d="M954.777,-116.362C942.375,-107.696 924.654,-95.3126 910.443,-85.3819"/>
<polygon fill="midnightblue" stroke="midnightblue" points="912.329,-82.4297 902.127,-79.5707 908.319,-88.1676 912.329,-82.4297"/>
</g>
<!-- Node18&#45;&gt;Node16 -->
<g id="edge40" class="edge"><title>Node18&#45;&gt;Node16</title>
<path fill="none" stroke="midnightblue" d="M965.598,-116.362C962.418,-108.677 958.028,-98.0686 954.21,-88.8399"/>
<polygon fill="midnightblue" stroke="midnightblue" points="957.432,-87.4726 950.374,-79.5707 950.964,-90.1491 957.432,-87.4726"/>
</g>
<!-- Node19 -->
<g id="node40" class="node"><title>Node19</title>
<polygon fill="white" stroke="#bfbfbf" points="1021.5,-58.5 1021.5,-79.5 1058.5,-79.5 1058.5,-58.5 1021.5,-58.5"/>
<text text-anchor="middle" x="1040" y="-66.5" font-family="Helvetica,sans-Serif" font-size="10.00">map</text>
</g>
<!-- Node18&#45;&gt;Node19 -->
<g id="edge42" class="edge"><title>Node18&#45;&gt;Node19</title>
<path fill="none" stroke="midnightblue" d="M982.839,-116.362C993.002,-107.941 1007.4,-96.0105 1019.2,-86.2308"/>
<polygon fill="midnightblue" stroke="midnightblue" points="1021.78,-88.6459 1027.24,-79.5707 1017.31,-83.2558 1021.78,-88.6459"/>
</g>
<!-- Node20 -->
<g id="node43" class="node"><title>Node20</title>
<a xlink:href="AnimationEquations_8h.htm" target="_top" xlink:title="AnimationEquations.h">
<polygon fill="white" stroke="black" points="1076,-58.5 1076,-79.5 1194,-79.5 1194,-58.5 1076,-58.5"/>
<text text-anchor="middle" x="1135" y="-66.5" font-family="Helvetica,sans-Serif" font-size="10.00">AnimationEquations.h</text>
</a>
</g>
<!-- Node18&#45;&gt;Node20 -->
<g id="edge46" class="edge"><title>Node18&#45;&gt;Node20</title>
<path fill="none" stroke="midnightblue" d="M999.88,-116.497C1026.66,-107.082 1066.14,-93.2036 1095.52,-82.8773"/>
<polygon fill="midnightblue" stroke="midnightblue" points="1096.79,-86.1413 1105.06,-79.5231 1094.47,-79.5374 1096.79,-86.1413"/>
</g>
<!-- Node20&#45;&gt;Node10 -->
<g id="edge48" class="edge"><title>Node20&#45;&gt;Node10</title>
<path fill="none" stroke="midnightblue" d="M1095.34,-58.4966C1057.01,-48.3464 999.097,-33.0075 959.519,-22.5255"/>
<polygon fill="midnightblue" stroke="midnightblue" points="960.188,-19.0821 949.625,-19.9052 958.395,-25.8488 960.188,-19.0821"/>
</g>
<!-- Node21 -->
<g id="node46" class="node"><title>Node21</title>
<polygon fill="white" stroke="#bfbfbf" points="1104.5,-0.5 1104.5,-21.5 1165.5,-21.5 1165.5,-0.5 1104.5,-0.5"/>
<text text-anchor="middle" x="1135" y="-8.5" font-family="Helvetica,sans-Serif" font-size="10.00">PTypes.h</text>
</g>
<!-- Node20&#45;&gt;Node21 -->
<g id="edge50" class="edge"><title>Node20&#45;&gt;Node21</title>
<path fill="none" stroke="midnightblue" d="M1135,-58.3619C1135,-50.9219 1135,-40.7427 1135,-31.7276"/>
<polygon fill="midnightblue" stroke="midnightblue" points="1138.5,-31.5706 1135,-21.5707 1131.5,-31.5707 1138.5,-31.5706"/>
</g>
</g>
</svg>
