<?xml version="1.0" encoding="UTF-8" standalone="no"?>
<!DOCTYPE svg PUBLIC "-//W3C//DTD SVG 1.1//EN"
 "http://www.w3.org/Graphics/SVG/1.1/DTD/svg11.dtd">
<!-- Generated by graphviz version 2.26.3 (20100126.1600)
 -->
<!-- Title: G Pages: 1 -->
<svg width="1024pt" height="320pt"
 viewBox="0.00 0.00 1024.00 320.00" xmlns="http://www.w3.org/2000/svg" xmlns:xlink="http://www.w3.org/1999/xlink">
<g id="graph1" class="graph" transform="scale(1 1) rotate(0) translate(4 316)">
<title>G</title>
<polygon fill="white" stroke="white" points="-4,5 -4,-316 1021,-316 1021,5 -4,5"/>
<!-- Node1 -->
<g id="node1" class="node"><title>Node1</title>
<polygon fill="#bfbfbf" stroke="black" points="545,-290.5 545,-311.5 653,-311.5 653,-290.5 545,-290.5"/>
<text text-anchor="middle" x="599" y="-298.5" font-family="Helvetica,sans-Serif" font-size="10.00">StatusBarClock.cpp</text>
</g>
<!-- Node2 -->
<g id="node3" class="node"><title>Node2</title>
<a xlink:href="StatusBarClock_8h.htm" target="_top" xlink:title="StatusBarClock.h">
<polygon fill="white" stroke="black" points="169.5,-232.5 169.5,-253.5 266.5,-253.5 266.5,-232.5 169.5,-232.5"/>
<text text-anchor="middle" x="218" y="-240.5" font-family="Helvetica,sans-Serif" font-size="10.00">StatusBarClock.h</text>
</a>
</g>
<!-- Node1&#45;&gt;Node2 -->
<g id="edge2" class="edge"><title>Node1&#45;&gt;Node2</title>
<path fill="none" stroke="midnightblue" d="M544.817,-292.752C473.787,-281.939 349.661,-263.043 276.536,-251.911"/>
<polygon fill="midnightblue" stroke="midnightblue" points="276.98,-248.438 266.567,-250.393 275.926,-255.359 276.98,-248.438"/>
</g>
<!-- Node4 -->
<g id="node7" class="node"><title>Node4</title>
<a xlink:href="StatusBar_8h.htm" target="_top" xlink:title="StatusBar.h">
<polygon fill="white" stroke="black" points="243.5,-116.5 243.5,-137.5 314.5,-137.5 314.5,-116.5 243.5,-116.5"/>
<text text-anchor="middle" x="279" y="-124.5" font-family="Helvetica,sans-Serif" font-size="10.00">StatusBar.h</text>
</a>
</g>
<!-- Node1&#45;&gt;Node4 -->
<g id="edge44" class="edge"><title>Node1&#45;&gt;Node4</title>
<path fill="none" stroke="midnightblue" d="M544.963,-294.098C487.994,-286.05 402.726,-271.583 375,-254 333.008,-227.369 302.625,-175.447 288.273,-146.933"/>
<polygon fill="midnightblue" stroke="midnightblue" points="291.242,-145.037 283.719,-137.577 284.949,-148.1 291.242,-145.037"/>
</g>
<!-- Node9 -->
<g id="node17" class="node"><title>Node9</title>
<polygon fill="white" stroke="#bfbfbf" points="376.5,-0.5 376.5,-21.5 417.5,-21.5 417.5,-0.5 376.5,-0.5"/>
<text text-anchor="middle" x="397" y="-8.5" font-family="Helvetica,sans-Serif" font-size="10.00">glib.h</text>
</g>
<!-- Node1&#45;&gt;Node9 -->
<g id="edge116" class="edge"><title>Node1&#45;&gt;Node9</title>
<path fill="none" stroke="midnightblue" d="M546.207,-290.423C521.068,-283.352 491.809,-271.949 470,-254 401.514,-197.635 395.601,-79.6025 396.197,-31.783"/>
<polygon fill="midnightblue" stroke="midnightblue" points="399.698,-31.7844 396.437,-21.7039 392.7,-31.6177 399.698,-31.7844"/>
</g>
<!-- Node18 -->
<g id="node41" class="node"><title>Node18</title>
<a xlink:href="Settings_8h.htm" target="_top" xlink:title="Settings.h">
<polygon fill="white" stroke="black" points="460.5,-58.5 460.5,-79.5 523.5,-79.5 523.5,-58.5 460.5,-58.5"/>
<text text-anchor="middle" x="492" y="-66.5" font-family="Helvetica,sans-Serif" font-size="10.00">Settings.h</text>
</a>
</g>
<!-- Node1&#45;&gt;Node18 -->
<g id="edge46" class="edge"><title>Node1&#45;&gt;Node18</title>
<path fill="none" stroke="midnightblue" d="M569.05,-290.469C532.359,-275.752 471.892,-245.172 446,-196 426.746,-159.435 455.797,-113.031 475.773,-87.6603"/>
<polygon fill="midnightblue" stroke="midnightblue" points="478.735,-89.5674 482.366,-79.6142 473.321,-85.1307 478.735,-89.5674"/>
</g>
<!-- Node22 -->
<g id="node52" class="node"><title>Node22</title>
<a xlink:href="Preferences_8h.htm" target="_top" xlink:title="Preferences.h">
<polygon fill="white" stroke="black" points="632.5,-174.5 632.5,-195.5 715.5,-195.5 715.5,-174.5 632.5,-174.5"/>
<text text-anchor="middle" x="674" y="-182.5" font-family="Helvetica,sans-Serif" font-size="10.00">Preferences.h</text>
</a>
</g>
<!-- Node1&#45;&gt;Node22 -->
<g id="edge60" class="edge"><title>Node1&#45;&gt;Node22</title>
<path fill="none" stroke="midnightblue" d="M605.921,-290.295C618.591,-270.7 645.668,-228.82 661.592,-204.191"/>
<polygon fill="midnightblue" stroke="midnightblue" points="664.605,-205.977 667.095,-195.679 658.727,-202.177 664.605,-205.977"/>
</g>
<!-- Node27 -->
<g id="node69" class="node"><title>Node27</title>
<a xlink:href="Localization_8h.htm" target="_top" xlink:title="Localization.h">
<polygon fill="white" stroke="black" points="881.5,-116.5 881.5,-137.5 962.5,-137.5 962.5,-116.5 881.5,-116.5"/>
<text text-anchor="middle" x="922" y="-124.5" font-family="Helvetica,sans-Serif" font-size="10.00">Localization.h</text>
</a>
</g>
<!-- Node1&#45;&gt;Node27 -->
<g id="edge84" class="edge"><title>Node1&#45;&gt;Node27</title>
<path fill="none" stroke="midnightblue" d="M618.719,-290.377C673.68,-260.77 828.774,-177.221 893.29,-142.466"/>
<polygon fill="midnightblue" stroke="midnightblue" points="894.985,-145.529 902.129,-137.705 891.665,-139.366 894.985,-145.529"/>
</g>
<!-- Node31 -->
<g id="node81" class="node"><title>Node31</title>
<a xlink:href="StatusBarServicesConnector_8h.htm" target="_top" xlink:title="StatusBarServicesConnector.h">
<polygon fill="white" stroke="black" points="454.5,-174.5 454.5,-195.5 615.5,-195.5 615.5,-174.5 454.5,-174.5"/>
<text text-anchor="middle" x="535" y="-182.5" font-family="Helvetica,sans-Serif" font-size="10.00">StatusBarServicesConnector.h</text>
</a>
</g>
<!-- Node1&#45;&gt;Node31 -->
<g id="edge100" class="edge"><title>Node1&#45;&gt;Node31</title>
<path fill="none" stroke="midnightblue" d="M593.094,-290.295C582.33,-270.786 559.38,-229.188 545.768,-204.518"/>
<polygon fill="midnightblue" stroke="midnightblue" points="548.787,-202.744 540.892,-195.679 542.658,-206.126 548.787,-202.744"/>
</g>
<!-- Node32 -->
<g id="node87" class="node"><title>Node32</title>
<polygon fill="white" stroke="#bfbfbf" points="749.5,-232.5 749.5,-253.5 808.5,-253.5 808.5,-232.5 749.5,-232.5"/>
<text text-anchor="middle" x="779" y="-240.5" font-family="Helvetica,sans-Serif" font-size="10.00">QPainter</text>
</g>
<!-- Node1&#45;&gt;Node32 -->
<g id="edge110" class="edge"><title>Node1&#45;&gt;Node32</title>
<path fill="none" stroke="midnightblue" d="M631.597,-290.497C661.987,-280.704 707.363,-266.083 739.735,-255.652"/>
<polygon fill="midnightblue" stroke="midnightblue" points="740.888,-258.958 749.333,-252.559 738.741,-252.295 740.888,-258.958"/>
</g>
<!-- Node33 -->
<g id="node89" class="node"><title>Node33</title>
<polygon fill="white" stroke="#bfbfbf" points="826,-232.5 826,-253.5 878,-253.5 878,-232.5 826,-232.5"/>
<text text-anchor="middle" x="852" y="-240.5" font-family="Helvetica,sans-Serif" font-size="10.00">QTimer</text>
</g>
<!-- Node1&#45;&gt;Node33 -->
<g id="edge112" class="edge"><title>Node1&#45;&gt;Node33</title>
<path fill="none" stroke="midnightblue" d="M653.082,-290.782C695.146,-282.507 755.132,-269.995 815.939,-254.126"/>
<polygon fill="midnightblue" stroke="midnightblue" points="816.926,-257.486 825.702,-251.551 815.14,-250.717 816.926,-257.486"/>
</g>
<!-- Node34 -->
<g id="node91" class="node"><title>Node34</title>
<polygon fill="white" stroke="#bfbfbf" points="895.5,-232.5 895.5,-253.5 942.5,-253.5 942.5,-232.5 895.5,-232.5"/>
<text text-anchor="middle" x="919" y="-240.5" font-family="Helvetica,sans-Serif" font-size="10.00">QDate</text>
</g>
<!-- Node1&#45;&gt;Node34 -->
<g id="edge114" class="edge"><title>Node1&#45;&gt;Node34</title>
<path fill="none" stroke="midnightblue" d="M653.167,-294.94C709.31,-288.04 799.656,-275.204 885.47,-254.1"/>
<polygon fill="midnightblue" stroke="midnightblue" points="886.518,-257.445 895.369,-251.623 884.818,-250.655 886.518,-257.445"/>
</g>
<!-- Node3 -->
<g id="node5" class="node"><title>Node3</title>
<a xlink:href="StatusBarItem_8h.htm" target="_top" xlink:title="StatusBarItem.h">
<polygon fill="white" stroke="black" points="99.5,-174.5 99.5,-195.5 190.5,-195.5 190.5,-174.5 99.5,-174.5"/>
<text text-anchor="middle" x="145" y="-182.5" font-family="Helvetica,sans-Serif" font-size="10.00">StatusBarItem.h</text>
</a>
</g>
<!-- Node2&#45;&gt;Node3 -->
<g id="edge4" class="edge"><title>Node2&#45;&gt;Node3</title>
<path fill="none" stroke="midnightblue" d="M204.611,-232.362C193.909,-223.859 178.704,-211.779 166.329,-201.947"/>
<polygon fill="midnightblue" stroke="midnightblue" points="168.311,-199.051 158.304,-195.571 163.957,-204.532 168.311,-199.051"/>
</g>
<!-- Node10 -->
<g id="node19" class="node"><title>Node10</title>
<polygon fill="white" stroke="#bfbfbf" points="0,-0.5 0,-21.5 98,-21.5 98,-0.5 0,-0.5"/>
<text text-anchor="middle" x="49" y="-8.5" font-family="Helvetica,sans-Serif" font-size="10.00">QGraphicsObject</text>
</g>
<!-- Node2&#45;&gt;Node10 -->
<g id="edge40" class="edge"><title>Node2&#45;&gt;Node10</title>
<path fill="none" stroke="midnightblue" d="M169.409,-235.349C143.129,-228.908 111.874,-217.184 91,-196 46.7961,-151.141 45.1951,-70.0794 47.2155,-31.9263"/>
<polygon fill="midnightblue" stroke="midnightblue" points="50.7343,-31.7639 47.9156,-21.5509 43.7502,-31.2925 50.7343,-31.7639"/>
</g>
<!-- Node17 -->
<g id="node38" class="node"><title>Node17</title>
<polygon fill="white" stroke="#bfbfbf" points="207.5,-174.5 207.5,-195.5 284.5,-195.5 284.5,-174.5 207.5,-174.5"/>
<text text-anchor="middle" x="246" y="-182.5" font-family="Helvetica,sans-Serif" font-size="10.00">QTextLayout</text>
</g>
<!-- Node2&#45;&gt;Node17 -->
<g id="edge42" class="edge"><title>Node2&#45;&gt;Node17</title>
<path fill="none" stroke="midnightblue" d="M223.136,-232.362C226.846,-224.677 231.967,-214.069 236.422,-204.84"/>
<polygon fill="midnightblue" stroke="midnightblue" points="239.701,-206.098 240.897,-195.571 233.397,-203.055 239.701,-206.098"/>
</g>
<!-- Node3&#45;&gt;Node4 -->
<g id="edge6" class="edge"><title>Node3&#45;&gt;Node4</title>
<path fill="none" stroke="midnightblue" d="M169.266,-174.497C190.478,-165.315 221.498,-151.889 245.15,-141.652"/>
<polygon fill="midnightblue" stroke="midnightblue" points="246.674,-144.806 254.461,-137.621 243.894,-138.381 246.674,-144.806"/>
</g>
<!-- Node3&#45;&gt;Node10 -->
<g id="edge38" class="edge"><title>Node3&#45;&gt;Node10</title>
<path fill="none" stroke="midnightblue" d="M133.088,-174.395C114.188,-156.817 77.6648,-119.63 60,-80 53.2194,-64.7881 50.5479,-46.0461 49.5283,-31.9361"/>
<polygon fill="midnightblue" stroke="midnightblue" points="53.015,-31.5809 49.0178,-21.769 46.0238,-31.932 53.015,-31.5809"/>
</g>
<!-- Node5 -->
<g id="node9" class="node"><title>Node5</title>
<a xlink:href="Window_8h.htm" target="_top" xlink:title="Window.h">
<polygon fill="white" stroke="black" points="183,-58.5 183,-79.5 245,-79.5 245,-58.5 183,-58.5"/>
<text text-anchor="middle" x="214" y="-66.5" font-family="Helvetica,sans-Serif" font-size="10.00">Window.h</text>
</a>
</g>
<!-- Node4&#45;&gt;Node5 -->
<g id="edge8" class="edge"><title>Node4&#45;&gt;Node5</title>
<path fill="none" stroke="midnightblue" d="M267.078,-116.362C257.641,-107.941 244.27,-96.0105 233.31,-86.2308"/>
<polygon fill="midnightblue" stroke="midnightblue" points="235.638,-83.6171 225.846,-79.5707 230.978,-88.8401 235.638,-83.6171"/>
</g>
<!-- Node4&#45;&gt;Node10 -->
<g id="edge24" class="edge"><title>Node4&#45;&gt;Node10</title>
<path fill="none" stroke="midnightblue" d="M253.189,-116.334C231.717,-107.251 200.493,-93.5523 174,-80 156.626,-71.1126 153.031,-67.5277 136,-58 116.785,-47.2507 94.9878,-35.4758 78.0178,-26.4007"/>
<polygon fill="midnightblue" stroke="midnightblue" points="79.604,-23.28 69.1337,-21.6603 76.3087,-29.4559 79.604,-23.28"/>
</g>
<!-- Node12 -->
<g id="node23" class="node"><title>Node12</title>
<polygon fill="white" stroke="#bfbfbf" points="68.5,-58.5 68.5,-79.5 127.5,-79.5 127.5,-58.5 68.5,-58.5"/>
<text text-anchor="middle" x="98" y="-66.5" font-family="Helvetica,sans-Serif" font-size="10.00">QPointer</text>
</g>
<!-- Node4&#45;&gt;Node12 -->
<g id="edge22" class="edge"><title>Node4&#45;&gt;Node12</title>
<path fill="none" stroke="midnightblue" d="M246.222,-116.497C215.571,-106.675 169.759,-91.9945 137.189,-81.5577"/>
<polygon fill="midnightblue" stroke="midnightblue" points="138.128,-78.1836 127.537,-78.465 135.992,-84.8497 138.128,-78.1836"/>
</g>
<!-- Node13 -->
<g id="node26" class="node"><title>Node13</title>
<a xlink:href="VariantAnimation_8h.htm" target="_top" xlink:title="VariantAnimation.h">
<polygon fill="white" stroke="black" points="262.5,-58.5 262.5,-79.5 367.5,-79.5 367.5,-58.5 262.5,-58.5"/>
<text text-anchor="middle" x="315" y="-66.5" font-family="Helvetica,sans-Serif" font-size="10.00">VariantAnimation.h</text>
</a>
</g>
<!-- Node4&#45;&gt;Node13 -->
<g id="edge26" class="edge"><title>Node4&#45;&gt;Node13</title>
<path fill="none" stroke="midnightblue" d="M285.603,-116.362C290.475,-108.513 297.238,-97.6159 303.05,-88.2527"/>
<polygon fill="midnightblue" stroke="midnightblue" points="306.139,-89.9129 308.439,-79.5707 300.191,-86.2213 306.139,-89.9129"/>
</g>
<!-- Node15 -->
<g id="node31" class="node"><title>Node15</title>
<a xlink:href="CustomEvents_8h.htm" target="_top" xlink:title="CustomEvents.h">
<polygon fill="white" stroke="black" points="721,-58.5 721,-79.5 813,-79.5 813,-58.5 721,-58.5"/>
<text text-anchor="middle" x="767" y="-66.5" font-family="Helvetica,sans-Serif" font-size="10.00">CustomEvents.h</text>
</a>
</g>
<!-- Node4&#45;&gt;Node15 -->
<g id="edge32" class="edge"><title>Node4&#45;&gt;Node15</title>
<path fill="none" stroke="midnightblue" d="M314.884,-122.735C399.048,-112.732 609.661,-87.7002 710.915,-75.6659"/>
<polygon fill="midnightblue" stroke="midnightblue" points="711.433,-79.129 720.95,-74.4731 710.607,-72.1779 711.433,-79.129"/>
</g>
<!-- Node6 -->
<g id="node11" class="node"><title>Node6</title>
<a xlink:href="Common_8h.htm" target="_top" xlink:title="Common.h">
<polygon fill="white" stroke="black" points="682.5,-0.5 682.5,-21.5 749.5,-21.5 749.5,-0.5 682.5,-0.5"/>
<text text-anchor="middle" x="716" y="-8.5" font-family="Helvetica,sans-Serif" font-size="10.00">Common.h</text>
</a>
</g>
<!-- Node5&#45;&gt;Node6 -->
<g id="edge10" class="edge"><title>Node5&#45;&gt;Node6</title>
<path fill="none" stroke="midnightblue" d="M245.319,-59.8047C248.238,-59.1242 251.164,-58.5071 254,-58 435.184,-25.6032 487.543,-52.8551 672.145,-22.0941"/>
<polygon fill="midnightblue" stroke="midnightblue" points="672.911,-25.5142 682.183,-20.3866 671.737,-18.6133 672.911,-25.5142"/>
</g>
<!-- Node7 -->
<g id="node13" class="node"><title>Node7</title>
<polygon fill="white" stroke="#bfbfbf" points="187,-0.5 187,-21.5 237,-21.5 237,-0.5 187,-0.5"/>
<text text-anchor="middle" x="212" y="-8.5" font-family="Helvetica,sans-Serif" font-size="10.00">stdint.h</text>
</g>
<!-- Node5&#45;&gt;Node7 -->
<g id="edge12" class="edge"><title>Node5&#45;&gt;Node7</title>
<path fill="none" stroke="midnightblue" d="M213.633,-58.3619C213.377,-50.9219 213.026,-40.7427 212.715,-31.7276"/>
<polygon fill="midnightblue" stroke="midnightblue" points="216.207,-31.4441 212.365,-21.5707 209.211,-31.6854 216.207,-31.4441"/>
</g>
<!-- Node8 -->
<g id="node15" class="node"><title>Node8</title>
<polygon fill="white" stroke="#bfbfbf" points="622.5,-0.5 622.5,-21.5 665.5,-21.5 665.5,-0.5 622.5,-0.5"/>
<text text-anchor="middle" x="644" y="-8.5" font-family="Helvetica,sans-Serif" font-size="10.00">string</text>
</g>
<!-- Node5&#45;&gt;Node8 -->
<g id="edge14" class="edge"><title>Node5&#45;&gt;Node8</title>
<path fill="none" stroke="midnightblue" d="M245.327,-59.8476C248.244,-59.1581 251.168,-58.5271 254,-58 408.841,-29.1805 455.374,-56.7818 612.238,-21.9698"/>
<polygon fill="midnightblue" stroke="midnightblue" points="613.261,-25.3268 622.238,-19.7 611.711,-18.5004 613.261,-25.3268"/>
</g>
<!-- Node5&#45;&gt;Node9 -->
<g id="edge16" class="edge"><title>Node5&#45;&gt;Node9</title>
<path fill="none" stroke="midnightblue" d="M245.166,-60.1473C274.46,-51.6817 319.707,-38.2364 366.987,-22.2185"/>
<polygon fill="midnightblue" stroke="midnightblue" points="368.134,-25.5255 376.466,-18.9814 365.871,-18.9011 368.134,-25.5255"/>
</g>
<!-- Node5&#45;&gt;Node10 -->
<g id="edge18" class="edge"><title>Node5&#45;&gt;Node10</title>
<path fill="none" stroke="midnightblue" d="M184.12,-58.4966C157.337,-49.082 117.855,-35.2036 88.4785,-24.8773"/>
<polygon fill="midnightblue" stroke="midnightblue" points="89.5311,-21.5374 78.9363,-21.5231 87.2097,-28.1413 89.5311,-21.5374"/>
</g>
<!-- Node11 -->
<g id="node21" class="node"><title>Node11</title>
<polygon fill="white" stroke="#bfbfbf" points="124.5,-0.5 124.5,-21.5 169.5,-21.5 169.5,-0.5 124.5,-0.5"/>
<text text-anchor="middle" x="147" y="-8.5" font-family="Helvetica,sans-Serif" font-size="10.00">QSize</text>
</g>
<!-- Node5&#45;&gt;Node11 -->
<g id="edge20" class="edge"><title>Node5&#45;&gt;Node11</title>
<path fill="none" stroke="midnightblue" d="M201.711,-58.3619C191.983,-49.9408 178.202,-38.0105 166.905,-28.2308"/>
<polygon fill="midnightblue" stroke="midnightblue" points="169.062,-25.4695 159.211,-21.5707 164.481,-30.7619 169.062,-25.4695"/>
</g>
<!-- Node13&#45;&gt;Node6 -->
<g id="edge28" class="edge"><title>Node13&#45;&gt;Node6</title>
<path fill="none" stroke="midnightblue" d="M367.655,-64.2038C435.933,-57.5208 558.833,-43.9156 672.266,-22.1761"/>
<polygon fill="midnightblue" stroke="midnightblue" points="673.009,-25.5972 682.158,-20.2545 671.674,-18.7256 673.009,-25.5972"/>
</g>
<!-- Node14 -->
<g id="node29" class="node"><title>Node14</title>
<polygon fill="white" stroke="#bfbfbf" points="254.5,-0.5 254.5,-21.5 359.5,-21.5 359.5,-0.5 254.5,-0.5"/>
<text text-anchor="middle" x="307" y="-8.5" font-family="Helvetica,sans-Serif" font-size="10.00">QVariantAnimation</text>
</g>
<!-- Node13&#45;&gt;Node14 -->
<g id="edge30" class="edge"><title>Node13&#45;&gt;Node14</title>
<path fill="none" stroke="midnightblue" d="M313.533,-58.3619C312.506,-50.9219 311.102,-40.7427 309.859,-31.7276"/>
<polygon fill="midnightblue" stroke="midnightblue" points="313.292,-30.9986 308.458,-21.5707 306.357,-31.9551 313.292,-30.9986"/>
</g>
<!-- Node15&#45;&gt;Node6 -->
<g id="edge34" class="edge"><title>Node15&#45;&gt;Node6</title>
<path fill="none" stroke="midnightblue" d="M757.646,-58.3619C750.457,-50.1861 740.359,-38.7025 731.907,-29.0907"/>
<polygon fill="midnightblue" stroke="midnightblue" points="734.527,-26.7692 725.295,-21.5707 729.27,-31.3916 734.527,-26.7692"/>
</g>
<!-- Node16 -->
<g id="node34" class="node"><title>Node16</title>
<polygon fill="white" stroke="#bfbfbf" points="767,-0.5 767,-21.5 819,-21.5 819,-0.5 767,-0.5"/>
<text text-anchor="middle" x="793" y="-8.5" font-family="Helvetica,sans-Serif" font-size="10.00">QEvent</text>
</g>
<!-- Node15&#45;&gt;Node16 -->
<g id="edge36" class="edge"><title>Node15&#45;&gt;Node16</title>
<path fill="none" stroke="midnightblue" d="M771.769,-58.3619C775.214,-50.6766 779.969,-40.0686 784.106,-30.8399"/>
<polygon fill="midnightblue" stroke="midnightblue" points="787.365,-32.1275 788.261,-21.5707 780.977,-29.264 787.365,-32.1275"/>
</g>
<!-- Node18&#45;&gt;Node6 -->
<g id="edge48" class="edge"><title>Node18&#45;&gt;Node6</title>
<path fill="none" stroke="midnightblue" d="M523.572,-60.8817C557.891,-52.0497 614.618,-37.4283 672.097,-22.4901"/>
<polygon fill="midnightblue" stroke="midnightblue" points="673.279,-25.7993 682.077,-19.8954 671.518,-19.0245 673.279,-25.7993"/>
</g>
<!-- Node18&#45;&gt;Node8 -->
<g id="edge50" class="edge"><title>Node18&#45;&gt;Node8</title>
<path fill="none" stroke="midnightblue" d="M519.526,-58.4966C545.737,-48.4952 585.149,-33.4562 612.579,-22.9896"/>
<polygon fill="midnightblue" stroke="midnightblue" points="614.001,-26.1934 622.096,-19.3582 611.505,-19.6533 614.001,-26.1934"/>
</g>
<!-- Node18&#45;&gt;Node9 -->
<g id="edge56" class="edge"><title>Node18&#45;&gt;Node9</title>
<path fill="none" stroke="midnightblue" d="M474.576,-58.3619C460.113,-49.532 439.331,-36.844 422.916,-26.8224"/>
<polygon fill="midnightblue" stroke="midnightblue" points="424.673,-23.7943 414.314,-21.5707 421.025,-29.7688 424.673,-23.7943"/>
</g>
<!-- Node19 -->
<g id="node45" class="node"><title>Node19</title>
<polygon fill="white" stroke="#bfbfbf" points="435,-0.5 435,-21.5 481,-21.5 481,-0.5 435,-0.5"/>
<text text-anchor="middle" x="458" y="-8.5" font-family="Helvetica,sans-Serif" font-size="10.00">vector</text>
</g>
<!-- Node18&#45;&gt;Node19 -->
<g id="edge52" class="edge"><title>Node18&#45;&gt;Node19</title>
<path fill="none" stroke="midnightblue" d="M485.764,-58.3619C481.163,-50.5131 474.775,-39.6159 469.286,-30.2527"/>
<polygon fill="midnightblue" stroke="midnightblue" points="472.273,-28.4276 464.197,-21.5707 466.234,-31.9677 472.273,-28.4276"/>
</g>
<!-- Node20 -->
<g id="node47" class="node"><title>Node20</title>
<polygon fill="white" stroke="#bfbfbf" points="574.5,-0.5 574.5,-21.5 605.5,-21.5 605.5,-0.5 574.5,-0.5"/>
<text text-anchor="middle" x="590" y="-8.5" font-family="Helvetica,sans-Serif" font-size="10.00">set</text>
</g>
<!-- Node18&#45;&gt;Node20 -->
<g id="edge54" class="edge"><title>Node18&#45;&gt;Node20</title>
<path fill="none" stroke="midnightblue" d="M509.975,-58.3619C525.547,-49.1457 548.221,-35.7264 565.461,-25.5229"/>
<polygon fill="midnightblue" stroke="midnightblue" points="567.577,-28.3376 574.401,-20.2323 564.012,-22.3136 567.577,-28.3376"/>
</g>
<!-- Node21 -->
<g id="node50" class="node"><title>Node21</title>
<polygon fill="white" stroke="#bfbfbf" points="499,-0.5 499,-21.5 557,-21.5 557,-0.5 499,-0.5"/>
<text text-anchor="middle" x="528" y="-8.5" font-family="Helvetica,sans-Serif" font-size="10.00">QtGlobal</text>
</g>
<!-- Node18&#45;&gt;Node21 -->
<g id="edge58" class="edge"><title>Node18&#45;&gt;Node21</title>
<path fill="none" stroke="midnightblue" d="M498.603,-58.3619C503.475,-50.5131 510.238,-39.6159 516.05,-30.2527"/>
<polygon fill="midnightblue" stroke="midnightblue" points="519.139,-31.9129 521.439,-21.5707 513.191,-28.2213 519.139,-31.9129"/>
</g>
<!-- Node22&#45;&gt;Node6 -->
<g id="edge62" class="edge"><title>Node22&#45;&gt;Node6</title>
<path fill="none" stroke="midnightblue" d="M706.655,-174.441C744.371,-160.096 803.598,-130.296 822,-80 825.36,-70.8175 827.332,-66.1963 822,-58 814.554,-46.5533 785.23,-34.0391 759.308,-24.8036"/>
<polygon fill="midnightblue" stroke="midnightblue" points="760.187,-21.404 749.592,-21.4336 757.893,-28.0175 760.187,-21.404"/>
</g>
<!-- Node22&#45;&gt;Node8 -->
<g id="edge64" class="edge"><title>Node22&#45;&gt;Node8</title>
<path fill="none" stroke="midnightblue" d="M690.26,-174.423C701.515,-166.058 715.582,-153.267 722,-138 725.789,-128.986 725.071,-125.283 722,-116 710.404,-80.9445 682.072,-48.0616 662.942,-28.7332"/>
<polygon fill="midnightblue" stroke="midnightblue" points="665.213,-26.0576 655.627,-21.5458 660.307,-31.0509 665.213,-26.0576"/>
</g>
<!-- Node22&#45;&gt;Node15 -->
<g id="edge80" class="edge"><title>Node22&#45;&gt;Node15</title>
<path fill="none" stroke="midnightblue" d="M705.172,-174.48C722.535,-167.007 743.009,-155.207 755,-138 764.75,-124.009 767.418,-104.638 767.838,-89.9816"/>
<polygon fill="midnightblue" stroke="midnightblue" points="771.338,-89.8467 767.801,-79.8597 764.338,-89.8725 771.338,-89.8467"/>
</g>
<!-- Node23 -->
<g id="node56" class="node"><title>Node23</title>
<polygon fill="white" stroke="#bfbfbf" points="565,-116.5 565,-137.5 643,-137.5 643,-116.5 565,-116.5"/>
<text text-anchor="middle" x="604" y="-124.5" font-family="Helvetica,sans-Serif" font-size="10.00">lunaservice.h</text>
</g>
<!-- Node22&#45;&gt;Node23 -->
<g id="edge66" class="edge"><title>Node22&#45;&gt;Node23</title>
<path fill="none" stroke="midnightblue" d="M661.161,-174.362C650.998,-165.941 636.599,-154.011 624.796,-144.231"/>
<polygon fill="midnightblue" stroke="midnightblue" points="626.691,-141.256 616.758,-137.571 622.225,-146.646 626.691,-141.256"/>
</g>
<!-- Node24 -->
<g id="node58" class="node"><title>Node24</title>
<a xlink:href="Mutex_8h.htm" target="_top" xlink:title="Mutex.h">
<polygon fill="white" stroke="black" points="660.5,-116.5 660.5,-137.5 713.5,-137.5 713.5,-116.5 660.5,-116.5"/>
<text text-anchor="middle" x="687" y="-124.5" font-family="Helvetica,sans-Serif" font-size="10.00">Mutex.h</text>
</a>
</g>
<!-- Node22&#45;&gt;Node24 -->
<g id="edge68" class="edge"><title>Node22&#45;&gt;Node24</title>
<path fill="none" stroke="midnightblue" d="M676.384,-174.362C678.07,-166.84 680.384,-156.519 682.421,-147.431"/>
<polygon fill="midnightblue" stroke="midnightblue" points="685.859,-148.094 684.631,-137.571 679.028,-146.563 685.859,-148.094"/>
</g>
<!-- Node26 -->
<g id="node67" class="node"><title>Node26</title>
<polygon fill="white" stroke="#bfbfbf" points="492.5,-116.5 492.5,-137.5 547.5,-137.5 547.5,-116.5 492.5,-116.5"/>
<text text-anchor="middle" x="520" y="-124.5" font-family="Helvetica,sans-Serif" font-size="10.00">QObject</text>
</g>
<!-- Node22&#45;&gt;Node26 -->
<g id="edge82" class="edge"><title>Node22&#45;&gt;Node26</title>
<path fill="none" stroke="midnightblue" d="M646.112,-174.497C621.254,-165.135 584.678,-151.359 557.309,-141.051"/>
<polygon fill="midnightblue" stroke="midnightblue" points="558.273,-137.674 547.681,-137.425 555.805,-144.225 558.273,-137.674"/>
</g>
<!-- Node24&#45;&gt;Node6 -->
<g id="edge70" class="edge"><title>Node24&#45;&gt;Node6</title>
<path fill="none" stroke="midnightblue" d="M689.676,-116.295C694.489,-97.0451 704.678,-56.2889 710.873,-31.5091"/>
<polygon fill="midnightblue" stroke="midnightblue" points="714.3,-32.2295 713.33,-21.6792 707.509,-30.5317 714.3,-32.2295"/>
</g>
<!-- Node24&#45;&gt;Node9 -->
<g id="edge78" class="edge"><title>Node24&#45;&gt;Node9</title>
<path fill="none" stroke="midnightblue" d="M660.345,-118.241C657.541,-117.434 654.721,-116.67 652,-116 564.299,-94.4171 529.561,-126.277 452,-80 432.281,-68.2346 416.798,-46.592 407.351,-30.672"/>
<polygon fill="midnightblue" stroke="midnightblue" points="410.221,-28.6351 402.265,-21.6386 404.121,-32.0695 410.221,-28.6351"/>
</g>
<!-- Node25 -->
<g id="node61" class="node"><title>Node25</title>
<a xlink:href="sptr_8h.htm" target="_top" xlink:title="sptr.h">
<polygon fill="white" stroke="black" points="584.5,-58.5 584.5,-79.5 627.5,-79.5 627.5,-58.5 584.5,-58.5"/>
<text text-anchor="middle" x="606" y="-66.5" font-family="Helvetica,sans-Serif" font-size="10.00">sptr.h</text>
</a>
</g>
<!-- Node24&#45;&gt;Node25 -->
<g id="edge72" class="edge"><title>Node24&#45;&gt;Node25</title>
<path fill="none" stroke="midnightblue" d="M672.143,-116.362C660.154,-107.777 643.073,-95.5459 629.272,-85.6636"/>
<polygon fill="midnightblue" stroke="midnightblue" points="630.931,-82.5469 620.762,-79.5707 626.855,-88.2383 630.931,-82.5469"/>
</g>
<!-- Node25&#45;&gt;Node6 -->
<g id="edge74" class="edge"><title>Node25&#45;&gt;Node6</title>
<path fill="none" stroke="midnightblue" d="M625.92,-58.4966C642.946,-49.5194 667.669,-36.4835 686.909,-26.3387"/>
<polygon fill="midnightblue" stroke="midnightblue" points="688.643,-29.3814 695.856,-21.6212 685.378,-23.1894 688.643,-29.3814"/>
</g>
<!-- Node25&#45;&gt;Node9 -->
<g id="edge76" class="edge"><title>Node25&#45;&gt;Node9</title>
<path fill="none" stroke="midnightblue" d="M584.452,-64.1626C552.189,-56.7526 489.279,-41.6589 427.684,-22.3375"/>
<polygon fill="midnightblue" stroke="midnightblue" points="428.405,-18.8942 417.815,-19.2008 426.285,-25.5654 428.405,-18.8942"/>
</g>
<!-- Node27&#45;&gt;Node6 -->
<g id="edge86" class="edge"><title>Node27&#45;&gt;Node6</title>
<path fill="none" stroke="midnightblue" d="M914.322,-116.358C902.961,-101.332 880.274,-73.9542 855,-58 838.874,-47.8205 794.066,-33.4718 759.641,-23.3124"/>
<polygon fill="midnightblue" stroke="midnightblue" points="760.368,-19.8785 749.788,-20.4343 758.405,-26.5977 760.368,-19.8785"/>
</g>
<!-- Node28 -->
<g id="node72" class="node"><title>Node28</title>
<a xlink:href="QtUtils_8h.htm" target="_top" xlink:title="QtUtils.h">
<polygon fill="white" stroke="black" points="907,-58.5 907,-79.5 963,-79.5 963,-58.5 907,-58.5"/>
<text text-anchor="middle" x="935" y="-66.5" font-family="Helvetica,sans-Serif" font-size="10.00">QtUtils.h</text>
</a>
</g>
<!-- Node27&#45;&gt;Node28 -->
<g id="edge88" class="edge"><title>Node27&#45;&gt;Node28</title>
<path fill="none" stroke="midnightblue" d="M924.384,-116.362C926.07,-108.84 928.384,-98.5187 930.421,-89.4308"/>
<polygon fill="midnightblue" stroke="midnightblue" points="933.859,-90.0941 932.631,-79.5707 927.028,-88.563 933.859,-90.0941"/>
</g>
<!-- Node30 -->
<g id="node78" class="node"><title>Node30</title>
<polygon fill="white" stroke="#bfbfbf" points="966,-0.5 966,-21.5 1016,-21.5 1016,-0.5 966,-0.5"/>
<text text-anchor="middle" x="991" y="-8.5" font-family="Helvetica,sans-Serif" font-size="10.00">QHash</text>
</g>
<!-- Node27&#45;&gt;Node30 -->
<g id="edge98" class="edge"><title>Node27&#45;&gt;Node30</title>
<path fill="none" stroke="midnightblue" d="M937.251,-116.32C948.43,-107.727 963.143,-94.6923 972,-80 980.997,-65.076 985.839,-45.7945 988.378,-31.4094"/>
<polygon fill="midnightblue" stroke="midnightblue" points="991.838,-31.9329 989.901,-21.5167 984.92,-30.8674 991.838,-31.9329"/>
</g>
<!-- Node28&#45;&gt;Node6 -->
<g id="edge90" class="edge"><title>Node28&#45;&gt;Node6</title>
<path fill="none" stroke="midnightblue" d="M906.818,-61.5363C869.521,-51.6585 803.388,-34.1438 759.615,-22.551"/>
<polygon fill="midnightblue" stroke="midnightblue" points="760.38,-19.1331 749.817,-19.9562 758.588,-25.8998 760.38,-19.1331"/>
</g>
<!-- Node28&#45;&gt;Node8 -->
<g id="edge92" class="edge"><title>Node28&#45;&gt;Node8</title>
<path fill="none" stroke="midnightblue" d="M906.836,-65.5586C860.295,-59.5239 764.374,-45.6177 675.498,-22.1036"/>
<polygon fill="midnightblue" stroke="midnightblue" points="676.38,-18.7164 665.814,-19.4949 674.559,-25.4755 676.38,-18.7164"/>
</g>
<!-- Node29 -->
<g id="node76" class="node"><title>Node29</title>
<polygon fill="white" stroke="#bfbfbf" points="895.5,-0.5 895.5,-21.5 948.5,-21.5 948.5,-0.5 895.5,-0.5"/>
<text text-anchor="middle" x="922" y="-8.5" font-family="Helvetica,sans-Serif" font-size="10.00">QString</text>
</g>
<!-- Node28&#45;&gt;Node29 -->
<g id="edge94" class="edge"><title>Node28&#45;&gt;Node29</title>
<path fill="none" stroke="midnightblue" d="M932.616,-58.3619C930.93,-50.8401 928.616,-40.5187 926.579,-31.4308"/>
<polygon fill="midnightblue" stroke="midnightblue" points="929.972,-30.563 924.369,-21.5707 923.141,-32.0941 929.972,-30.563"/>
</g>
<!-- Node28&#45;&gt;Node30 -->
<g id="edge96" class="edge"><title>Node28&#45;&gt;Node30</title>
<path fill="none" stroke="midnightblue" d="M945.271,-58.3619C953.244,-50.1043 964.475,-38.4725 973.811,-28.8029"/>
<polygon fill="midnightblue" stroke="midnightblue" points="976.366,-31.1958 980.794,-21.5707 971.33,-26.3336 976.366,-31.1958"/>
</g>
<!-- Node31&#45;&gt;Node4 -->
<g id="edge108" class="edge"><title>Node31&#45;&gt;Node4</title>
<path fill="none" stroke="midnightblue" d="M488.64,-174.497C442.06,-163.943 370.724,-147.781 324.464,-137.301"/>
<polygon fill="midnightblue" stroke="midnightblue" points="325.232,-133.886 314.706,-135.09 323.686,-140.713 325.232,-133.886"/>
</g>
<!-- Node31&#45;&gt;Node20 -->
<g id="edge106" class="edge"><title>Node31&#45;&gt;Node20</title>
<path fill="none" stroke="midnightblue" d="M517.432,-174.311C498.574,-161.375 472.742,-138.517 484,-116 495.926,-92.1486 512.628,-98.3257 532,-80 548.381,-64.5037 564.697,-44.5916 575.831,-30.1443"/>
<polygon fill="midnightblue" stroke="midnightblue" points="578.796,-32.0266 582.048,-21.9433 573.218,-27.7977 578.796,-32.0266"/>
</g>
<!-- Node31&#45;&gt;Node23 -->
<g id="edge104" class="edge"><title>Node31&#45;&gt;Node23</title>
<path fill="none" stroke="midnightblue" d="M547.656,-174.362C557.674,-165.941 571.867,-154.011 583.501,-144.231"/>
<polygon fill="midnightblue" stroke="midnightblue" points="586.022,-146.684 591.425,-137.571 581.518,-141.326 586.022,-146.684"/>
</g>
<!-- Node31&#45;&gt;Node26 -->
<g id="edge102" class="edge"><title>Node31&#45;&gt;Node26</title>
<path fill="none" stroke="midnightblue" d="M532.249,-174.362C530.303,-166.84 527.634,-156.519 525.284,-147.431"/>
<polygon fill="midnightblue" stroke="midnightblue" points="528.626,-146.376 522.734,-137.571 521.849,-148.128 528.626,-146.376"/>
</g>
</g>
</svg>
