<?xml version="1.0" encoding="UTF-8" standalone="no"?>
<!DOCTYPE svg PUBLIC "-//W3C//DTD SVG 1.1//EN"
 "http://www.w3.org/Graphics/SVG/1.1/DTD/svg11.dtd">
<!-- Generated by graphviz version 2.26.3 (20100126.1600)
 -->
<!-- Title: G Pages: 1 -->
<svg width="226pt" height="88pt"
 viewBox="0.00 0.00 226.00 88.00" xmlns="http://www.w3.org/2000/svg" xmlns:xlink="http://www.w3.org/1999/xlink">
<g id="graph1" class="graph" transform="scale(1 1) rotate(0) translate(4 84)">
<title>G</title>
<polygon fill="white" stroke="white" points="-4,5 -4,-84 223,-84 223,5 -4,5"/>
<!-- Node1 -->
<g id="node1" class="node"><title>Node1</title>
<polygon fill="#bfbfbf" stroke="black" points="46.5,-58.5 46.5,-79.5 153.5,-79.5 153.5,-58.5 46.5,-58.5"/>
<text text-anchor="middle" x="100" y="-66.5" font-family="Helvetica,sans-Serif" font-size="10.00">StatusBarVersion.h</text>
</g>
<!-- Node2 -->
<g id="node3" class="node"><title>Node2</title>
<a xlink:href="StatusBar_8cpp.htm" target="_top" xlink:title="StatusBar.cpp">
<polygon fill="white" stroke="black" points="0,-0.5 0,-21.5 82,-21.5 82,-0.5 0,-0.5"/>
<text text-anchor="middle" x="41" y="-8.5" font-family="Helvetica,sans-Serif" font-size="10.00">StatusBar.cpp</text>
</a>
</g>
<!-- Node1&#45;&gt;Node2 -->
<g id="edge2" class="edge"><title>Node1&#45;&gt;Node2</title>
<path fill="none" stroke="midnightblue" d="M81.8097,-51.118C71.9625,-41.4377 60.1341,-29.8098 51.7529,-21.5707"/>
<polygon fill="midnightblue" stroke="midnightblue" points="79.5936,-53.8474 89.1785,-58.3619 84.5009,-48.8556 79.5936,-53.8474"/>
</g>
<!-- Node3 -->
<g id="node5" class="node"><title>Node3</title>
<a xlink:href="StatusBarVersion_8cpp.htm" target="_top" xlink:title="StatusBarVersion.cpp">
<polygon fill="white" stroke="black" points="100,-0.5 100,-21.5 218,-21.5 218,-0.5 100,-0.5"/>
<text text-anchor="middle" x="159" y="-8.5" font-family="Helvetica,sans-Serif" font-size="10.00">StatusBarVersion.cpp</text>
</a>
</g>
<!-- Node1&#45;&gt;Node3 -->
<g id="edge4" class="edge"><title>Node1&#45;&gt;Node3</title>
<path fill="none" stroke="midnightblue" d="M118.19,-51.118C128.037,-41.4377 139.866,-29.8098 148.247,-21.5707"/>
<polygon fill="midnightblue" stroke="midnightblue" points="115.499,-48.8556 110.822,-58.3619 120.406,-53.8474 115.499,-48.8556"/>
</g>
</g>
</svg>
