<?xml version="1.0" encoding="UTF-8" standalone="no"?>
<!DOCTYPE svg PUBLIC "-//W3C//DTD SVG 1.1//EN"
 "http://www.w3.org/Graphics/SVG/1.1/DTD/svg11.dtd">
<!-- Generated by graphviz version 2.26.3 (20100126.1600)
 -->
<!-- Title: G Pages: 1 -->
<svg width="1022pt" height="320pt"
 viewBox="0.00 0.00 1022.00 320.00" xmlns="http://www.w3.org/2000/svg" xmlns:xlink="http://www.w3.org/1999/xlink">
<g id="graph1" class="graph" transform="scale(1 1) rotate(0) translate(4 316)">
<title>G</title>
<polygon fill="white" stroke="white" points="-4,5 -4,-316 1019,-316 1019,5 -4,5"/>
<!-- Node1 -->
<g id="node1" class="node"><title>Node1</title>
<polygon fill="#bfbfbf" stroke="black" points="579,-290.5 579,-311.5 697,-311.5 697,-290.5 579,-290.5"/>
<text text-anchor="middle" x="638" y="-298.5" font-family="Helvetica,sans-Serif" font-size="10.00">StatusBarVersion.cpp</text>
</g>
<!-- Node2 -->
<g id="node3" class="node"><title>Node2</title>
<a xlink:href="StatusBarVersion_8h.htm" target="_top" xlink:title="StatusBarVersion.h">
<polygon fill="white" stroke="black" points="134.5,-232.5 134.5,-253.5 241.5,-253.5 241.5,-232.5 134.5,-232.5"/>
<text text-anchor="middle" x="188" y="-240.5" font-family="Helvetica,sans-Serif" font-size="10.00">StatusBarVersion.h</text>
</a>
</g>
<!-- Node1&#45;&gt;Node2 -->
<g id="edge2" class="edge"><title>Node1&#45;&gt;Node2</title>
<path fill="none" stroke="midnightblue" d="M578.708,-293.358C493.996,-282.439 338.963,-262.457 251.822,-251.226"/>
<polygon fill="midnightblue" stroke="midnightblue" points="252.165,-247.741 241.8,-249.934 251.27,-254.684 252.165,-247.741"/>
</g>
<!-- Node4 -->
<g id="node7" class="node"><title>Node4</title>
<a xlink:href="StatusBar_8h.htm" target="_top" xlink:title="StatusBar.h">
<polygon fill="white" stroke="black" points="175.5,-116.5 175.5,-137.5 246.5,-137.5 246.5,-116.5 175.5,-116.5"/>
<text text-anchor="middle" x="211" y="-124.5" font-family="Helvetica,sans-Serif" font-size="10.00">StatusBar.h</text>
</a>
</g>
<!-- Node1&#45;&gt;Node4 -->
<g id="edge44" class="edge"><title>Node1&#45;&gt;Node4</title>
<path fill="none" stroke="midnightblue" d="M578.873,-293.58C513.619,-284.818 413.163,-269.472 378,-254 346.054,-239.944 268.354,-175.765 231.303,-144.381"/>
<polygon fill="midnightblue" stroke="midnightblue" points="233.106,-141.32 223.22,-137.509 228.571,-146.653 233.106,-141.32"/>
</g>
<!-- Node9 -->
<g id="node17" class="node"><title>Node9</title>
<polygon fill="white" stroke="#bfbfbf" points="503.5,-0.5 503.5,-21.5 544.5,-21.5 544.5,-0.5 503.5,-0.5"/>
<text text-anchor="middle" x="524" y="-8.5" font-family="Helvetica,sans-Serif" font-size="10.00">glib.h</text>
</g>
<!-- Node1&#45;&gt;Node9 -->
<g id="edge102" class="edge"><title>Node1&#45;&gt;Node9</title>
<path fill="none" stroke="midnightblue" d="M596.269,-290.491C526.085,-271.583 392,-229.621 392,-185 392,-185 392,-185 392,-127 392,-95.1919 389.963,-81.8574 411,-58 413.945,-54.6602 461.499,-35.5365 493.969,-22.7353"/>
<polygon fill="midnightblue" stroke="midnightblue" points="495.469,-25.9061 503.495,-18.9899 492.908,-19.3915 495.469,-25.9061"/>
</g>
<!-- Node18 -->
<g id="node41" class="node"><title>Node18</title>
<a xlink:href="Settings_8h.htm" target="_top" xlink:title="Settings.h">
<polygon fill="white" stroke="black" points="741.5,-58.5 741.5,-79.5 804.5,-79.5 804.5,-58.5 741.5,-58.5"/>
<text text-anchor="middle" x="773" y="-66.5" font-family="Helvetica,sans-Serif" font-size="10.00">Settings.h</text>
</a>
</g>
<!-- Node1&#45;&gt;Node18 -->
<g id="edge46" class="edge"><title>Node1&#45;&gt;Node18</title>
<path fill="none" stroke="midnightblue" d="M638.069,-290.411C638.537,-268.122 641.354,-215.038 657,-174 667.979,-145.204 672.802,-137.377 695,-116 708.297,-103.195 725.692,-92.2928 740.679,-84.2221"/>
<polygon fill="midnightblue" stroke="midnightblue" points="742.378,-87.2838 749.642,-79.571 739.154,-81.0705 742.378,-87.2838"/>
</g>
<!-- Node22 -->
<g id="node52" class="node"><title>Node22</title>
<a xlink:href="Preferences_8h.htm" target="_top" xlink:title="Preferences.h">
<polygon fill="white" stroke="black" points="665.5,-174.5 665.5,-195.5 748.5,-195.5 748.5,-174.5 665.5,-174.5"/>
<text text-anchor="middle" x="707" y="-182.5" font-family="Helvetica,sans-Serif" font-size="10.00">Preferences.h</text>
</a>
</g>
<!-- Node1&#45;&gt;Node22 -->
<g id="edge60" class="edge"><title>Node1&#45;&gt;Node22</title>
<path fill="none" stroke="midnightblue" d="M644.368,-290.295C655.972,-270.786 680.716,-229.188 695.39,-204.518"/>
<polygon fill="midnightblue" stroke="midnightblue" points="698.544,-206.063 700.648,-195.679 692.527,-202.484 698.544,-206.063"/>
</g>
<!-- Node27 -->
<g id="node69" class="node"><title>Node27</title>
<a xlink:href="Localization_8h.htm" target="_top" xlink:title="Localization.h">
<polygon fill="white" stroke="black" points="920.5,-116.5 920.5,-137.5 1001.5,-137.5 1001.5,-116.5 920.5,-116.5"/>
<text text-anchor="middle" x="961" y="-124.5" font-family="Helvetica,sans-Serif" font-size="10.00">Localization.h</text>
</a>
</g>
<!-- Node1&#45;&gt;Node27 -->
<g id="edge84" class="edge"><title>Node1&#45;&gt;Node27</title>
<path fill="none" stroke="midnightblue" d="M657.719,-290.377C712.68,-260.77 867.774,-177.221 932.29,-142.466"/>
<polygon fill="midnightblue" stroke="midnightblue" points="933.985,-145.529 941.129,-137.705 930.665,-139.366 933.985,-145.529"/>
</g>
<!-- Node31 -->
<g id="node81" class="node"><title>Node31</title>
<polygon fill="white" stroke="#bfbfbf" points="803.5,-232.5 803.5,-253.5 862.5,-253.5 862.5,-232.5 803.5,-232.5"/>
<text text-anchor="middle" x="833" y="-240.5" font-family="Helvetica,sans-Serif" font-size="10.00">QPainter</text>
</g>
<!-- Node1&#45;&gt;Node31 -->
<g id="edge100" class="edge"><title>Node1&#45;&gt;Node31</title>
<path fill="none" stroke="midnightblue" d="M673.313,-290.497C707.177,-280.424 758.217,-265.243 793.435,-254.768"/>
<polygon fill="midnightblue" stroke="midnightblue" points="794.782,-258.019 803.37,-251.813 792.787,-251.309 794.782,-258.019"/>
</g>
<!-- Node3 -->
<g id="node5" class="node"><title>Node3</title>
<a xlink:href="StatusBarItem_8h.htm" target="_top" xlink:title="StatusBarItem.h">
<polygon fill="white" stroke="black" points="70.5,-174.5 70.5,-195.5 161.5,-195.5 161.5,-174.5 70.5,-174.5"/>
<text text-anchor="middle" x="116" y="-182.5" font-family="Helvetica,sans-Serif" font-size="10.00">StatusBarItem.h</text>
</a>
</g>
<!-- Node2&#45;&gt;Node3 -->
<g id="edge4" class="edge"><title>Node2&#45;&gt;Node3</title>
<path fill="none" stroke="midnightblue" d="M174.794,-232.362C164.239,-223.859 149.242,-211.779 137.037,-201.947"/>
<polygon fill="midnightblue" stroke="midnightblue" points="139.105,-199.118 129.122,-195.571 134.714,-204.57 139.105,-199.118"/>
</g>
<!-- Node10 -->
<g id="node19" class="node"><title>Node10</title>
<polygon fill="white" stroke="#bfbfbf" points="0,-0.5 0,-21.5 98,-21.5 98,-0.5 0,-0.5"/>
<text text-anchor="middle" x="49" y="-8.5" font-family="Helvetica,sans-Serif" font-size="10.00">QGraphicsObject</text>
</g>
<!-- Node2&#45;&gt;Node10 -->
<g id="edge40" class="edge"><title>Node2&#45;&gt;Node10</title>
<path fill="none" stroke="midnightblue" d="M145.496,-232.442C113.115,-223.476 72.3798,-209.884 62,-196 25.3103,-146.923 35.9869,-68.5732 43.8816,-31.5965"/>
<polygon fill="midnightblue" stroke="midnightblue" points="47.3668,-32.0564 46.1869,-21.5275 40.5434,-30.4942 47.3668,-32.0564"/>
</g>
<!-- Node17 -->
<g id="node38" class="node"><title>Node17</title>
<polygon fill="white" stroke="#bfbfbf" points="178.5,-174.5 178.5,-195.5 255.5,-195.5 255.5,-174.5 178.5,-174.5"/>
<text text-anchor="middle" x="217" y="-182.5" font-family="Helvetica,sans-Serif" font-size="10.00">QTextLayout</text>
</g>
<!-- Node2&#45;&gt;Node17 -->
<g id="edge42" class="edge"><title>Node2&#45;&gt;Node17</title>
<path fill="none" stroke="midnightblue" d="M193.319,-232.362C197.203,-224.595 202.579,-213.843 207.227,-204.546"/>
<polygon fill="midnightblue" stroke="midnightblue" points="210.373,-206.08 211.715,-195.571 204.112,-202.95 210.373,-206.08"/>
</g>
<!-- Node3&#45;&gt;Node4 -->
<g id="edge6" class="edge"><title>Node3&#45;&gt;Node4</title>
<path fill="none" stroke="midnightblue" d="M133.424,-174.362C147.887,-165.532 168.669,-152.844 185.084,-142.822"/>
<polygon fill="midnightblue" stroke="midnightblue" points="186.975,-145.769 193.686,-137.571 183.327,-139.794 186.975,-145.769"/>
</g>
<!-- Node3&#45;&gt;Node10 -->
<g id="edge38" class="edge"><title>Node3&#45;&gt;Node10</title>
<path fill="none" stroke="midnightblue" d="M111.235,-174.374C102.858,-155.536 85.1345,-114.971 72,-80 65.9744,-63.9568 59.8734,-45.5311 55.4705,-31.7582"/>
<polygon fill="midnightblue" stroke="midnightblue" points="58.6882,-30.3248 52.3373,-21.8444 52.0136,-32.4343 58.6882,-30.3248"/>
</g>
<!-- Node5 -->
<g id="node9" class="node"><title>Node5</title>
<a xlink:href="Window_8h.htm" target="_top" xlink:title="Window.h">
<polygon fill="white" stroke="black" points="180,-58.5 180,-79.5 242,-79.5 242,-58.5 180,-58.5"/>
<text text-anchor="middle" x="211" y="-66.5" font-family="Helvetica,sans-Serif" font-size="10.00">Window.h</text>
</a>
</g>
<!-- Node4&#45;&gt;Node5 -->
<g id="edge8" class="edge"><title>Node4&#45;&gt;Node5</title>
<path fill="none" stroke="midnightblue" d="M211,-116.362C211,-108.922 211,-98.7427 211,-89.7276"/>
<polygon fill="midnightblue" stroke="midnightblue" points="214.5,-89.5706 211,-79.5707 207.5,-89.5707 214.5,-89.5706"/>
</g>
<!-- Node4&#45;&gt;Node10 -->
<g id="edge24" class="edge"><title>Node4&#45;&gt;Node10</title>
<path fill="none" stroke="midnightblue" d="M175.393,-118.557C150.83,-111.387 118.496,-99.1513 95,-80 78.6136,-66.6436 65.8913,-45.9086 58.0209,-30.6536"/>
<polygon fill="midnightblue" stroke="midnightblue" points="61.1041,-28.9915 53.5597,-21.5529 54.8186,-32.0727 61.1041,-28.9915"/>
</g>
<!-- Node12 -->
<g id="node23" class="node"><title>Node12</title>
<polygon fill="white" stroke="#bfbfbf" points="103.5,-58.5 103.5,-79.5 162.5,-79.5 162.5,-58.5 103.5,-58.5"/>
<text text-anchor="middle" x="133" y="-66.5" font-family="Helvetica,sans-Serif" font-size="10.00">QPointer</text>
</g>
<!-- Node4&#45;&gt;Node12 -->
<g id="edge22" class="edge"><title>Node4&#45;&gt;Node12</title>
<path fill="none" stroke="midnightblue" d="M196.694,-116.362C185.149,-107.777 168.7,-95.5459 155.41,-85.6636"/>
<polygon fill="midnightblue" stroke="midnightblue" points="157.329,-82.7291 147.216,-79.5707 153.152,-88.3463 157.329,-82.7291"/>
</g>
<!-- Node13 -->
<g id="node26" class="node"><title>Node13</title>
<a xlink:href="VariantAnimation_8h.htm" target="_top" xlink:title="VariantAnimation.h">
<polygon fill="white" stroke="black" points="259.5,-58.5 259.5,-79.5 364.5,-79.5 364.5,-58.5 259.5,-58.5"/>
<text text-anchor="middle" x="312" y="-66.5" font-family="Helvetica,sans-Serif" font-size="10.00">VariantAnimation.h</text>
</a>
</g>
<!-- Node4&#45;&gt;Node13 -->
<g id="edge26" class="edge"><title>Node4&#45;&gt;Node13</title>
<path fill="none" stroke="midnightblue" d="M229.525,-116.362C244.901,-107.532 266.996,-94.844 284.447,-84.8224"/>
<polygon fill="midnightblue" stroke="midnightblue" points="286.664,-87.5857 293.592,-79.5707 283.178,-81.5154 286.664,-87.5857"/>
</g>
<!-- Node15 -->
<g id="node31" class="node"><title>Node15</title>
<a xlink:href="CustomEvents_8h.htm" target="_top" xlink:title="CustomEvents.h">
<polygon fill="white" stroke="black" points="420,-58.5 420,-79.5 512,-79.5 512,-58.5 420,-58.5"/>
<text text-anchor="middle" x="466" y="-66.5" font-family="Helvetica,sans-Serif" font-size="10.00">CustomEvents.h</text>
</a>
</g>
<!-- Node4&#45;&gt;Node15 -->
<g id="edge32" class="edge"><title>Node4&#45;&gt;Node15</title>
<path fill="none" stroke="midnightblue" d="M246.725,-118.874C289.043,-109.249 360.054,-93.0976 409.768,-81.79"/>
<polygon fill="midnightblue" stroke="midnightblue" points="410.749,-85.1565 419.723,-79.5257 409.196,-78.3308 410.749,-85.1565"/>
</g>
<!-- Node6 -->
<g id="node11" class="node"><title>Node6</title>
<a xlink:href="Common_8h.htm" target="_top" xlink:title="Common.h">
<polygon fill="white" stroke="black" points="561.5,-0.5 561.5,-21.5 628.5,-21.5 628.5,-0.5 561.5,-0.5"/>
<text text-anchor="middle" x="595" y="-8.5" font-family="Helvetica,sans-Serif" font-size="10.00">Common.h</text>
</a>
</g>
<!-- Node5&#45;&gt;Node6 -->
<g id="edge10" class="edge"><title>Node5&#45;&gt;Node6</title>
<path fill="none" stroke="midnightblue" d="M242.337,-59.9049C245.253,-59.2034 248.173,-58.554 251,-58 380.411,-32.6409 418.352,-46.4666 551.024,-22.1843"/>
<polygon fill="midnightblue" stroke="midnightblue" points="551.978,-25.5666 561.165,-20.2885 550.692,-18.6858 551.978,-25.5666"/>
</g>
<!-- Node7 -->
<g id="node13" class="node"><title>Node7</title>
<polygon fill="white" stroke="#bfbfbf" points="189,-0.5 189,-21.5 239,-21.5 239,-0.5 189,-0.5"/>
<text text-anchor="middle" x="214" y="-8.5" font-family="Helvetica,sans-Serif" font-size="10.00">stdint.h</text>
</g>
<!-- Node5&#45;&gt;Node7 -->
<g id="edge12" class="edge"><title>Node5&#45;&gt;Node7</title>
<path fill="none" stroke="midnightblue" d="M211.55,-58.3619C211.935,-50.9219 212.462,-40.7427 212.928,-31.7276"/>
<polygon fill="midnightblue" stroke="midnightblue" points="216.432,-31.7381 213.453,-21.5707 209.441,-31.3765 216.432,-31.7381"/>
</g>
<!-- Node8 -->
<g id="node15" class="node"><title>Node8</title>
<polygon fill="white" stroke="#bfbfbf" points="833.5,-0.5 833.5,-21.5 876.5,-21.5 876.5,-0.5 833.5,-0.5"/>
<text text-anchor="middle" x="855" y="-8.5" font-family="Helvetica,sans-Serif" font-size="10.00">string</text>
</g>
<!-- Node5&#45;&gt;Node8 -->
<g id="edge14" class="edge"><title>Node5&#45;&gt;Node8</title>
<path fill="none" stroke="midnightblue" d="M242.307,-59.7354C245.228,-59.0695 248.158,-58.4746 251,-58 499.796,-16.4439 572.924,-73.0157 823.135,-21.9041"/>
<polygon fill="midnightblue" stroke="midnightblue" points="824.182,-25.2614 833.259,-19.7975 822.756,-18.4082 824.182,-25.2614"/>
</g>
<!-- Node5&#45;&gt;Node9 -->
<g id="edge16" class="edge"><title>Node5&#45;&gt;Node9</title>
<path fill="none" stroke="midnightblue" d="M242.355,-59.9889C245.266,-59.2697 248.181,-58.5933 251,-58 355.126,-36.0865 387.052,-48.8002 493.427,-22.015"/>
<polygon fill="midnightblue" stroke="midnightblue" points="494.456,-25.3643 503.266,-19.4798 492.709,-18.5857 494.456,-25.3643"/>
</g>
<!-- Node5&#45;&gt;Node10 -->
<g id="edge18" class="edge"><title>Node5&#45;&gt;Node10</title>
<path fill="none" stroke="midnightblue" d="M181.663,-58.4966C155.481,-49.1229 116.94,-35.3242 88.1375,-25.0122"/>
<polygon fill="midnightblue" stroke="midnightblue" points="88.9866,-21.5987 78.392,-21.5231 86.627,-28.189 88.9866,-21.5987"/>
</g>
<!-- Node11 -->
<g id="node21" class="node"><title>Node11</title>
<polygon fill="white" stroke="#bfbfbf" points="126.5,-0.5 126.5,-21.5 171.5,-21.5 171.5,-0.5 126.5,-0.5"/>
<text text-anchor="middle" x="149" y="-8.5" font-family="Helvetica,sans-Serif" font-size="10.00">QSize</text>
</g>
<!-- Node5&#45;&gt;Node11 -->
<g id="edge20" class="edge"><title>Node5&#45;&gt;Node11</title>
<path fill="none" stroke="midnightblue" d="M199.628,-58.3619C190.714,-50.0226 178.121,-38.2418 167.724,-28.5162"/>
<polygon fill="midnightblue" stroke="midnightblue" points="169.993,-25.8463 160.3,-21.5707 165.211,-30.9582 169.993,-25.8463"/>
</g>
<!-- Node13&#45;&gt;Node6 -->
<g id="edge28" class="edge"><title>Node13&#45;&gt;Node6</title>
<path fill="none" stroke="midnightblue" d="M364.858,-59.6903C411.622,-51.2282 481.917,-37.9602 551.333,-22.2967"/>
<polygon fill="midnightblue" stroke="midnightblue" points="552.145,-25.7016 561.119,-20.0709 550.592,-18.8759 552.145,-25.7016"/>
</g>
<!-- Node14 -->
<g id="node29" class="node"><title>Node14</title>
<polygon fill="white" stroke="#bfbfbf" points="259.5,-0.5 259.5,-21.5 364.5,-21.5 364.5,-0.5 259.5,-0.5"/>
<text text-anchor="middle" x="312" y="-8.5" font-family="Helvetica,sans-Serif" font-size="10.00">QVariantAnimation</text>
</g>
<!-- Node13&#45;&gt;Node14 -->
<g id="edge30" class="edge"><title>Node13&#45;&gt;Node14</title>
<path fill="none" stroke="midnightblue" d="M312,-58.3619C312,-50.9219 312,-40.7427 312,-31.7276"/>
<polygon fill="midnightblue" stroke="midnightblue" points="315.5,-31.5706 312,-21.5707 308.5,-31.5707 315.5,-31.5706"/>
</g>
<!-- Node15&#45;&gt;Node6 -->
<g id="edge34" class="edge"><title>Node15&#45;&gt;Node6</title>
<path fill="none" stroke="midnightblue" d="M489.361,-58.4966C509.691,-49.3562 539.378,-36.0082 562.109,-25.7883"/>
<polygon fill="midnightblue" stroke="midnightblue" points="563.692,-28.9142 571.377,-21.6212 560.821,-22.5298 563.692,-28.9142"/>
</g>
<!-- Node16 -->
<g id="node34" class="node"><title>Node16</title>
<polygon fill="white" stroke="#bfbfbf" points="434,-0.5 434,-21.5 486,-21.5 486,-0.5 434,-0.5"/>
<text text-anchor="middle" x="460" y="-8.5" font-family="Helvetica,sans-Serif" font-size="10.00">QEvent</text>
</g>
<!-- Node15&#45;&gt;Node16 -->
<g id="edge36" class="edge"><title>Node15&#45;&gt;Node16</title>
<path fill="none" stroke="midnightblue" d="M464.9,-58.3619C464.13,-50.9219 463.077,-40.7427 462.144,-31.7276"/>
<polygon fill="midnightblue" stroke="midnightblue" points="465.604,-31.1574 461.094,-21.5707 458.641,-31.8777 465.604,-31.1574"/>
</g>
<!-- Node18&#45;&gt;Node6 -->
<g id="edge48" class="edge"><title>Node18&#45;&gt;Node6</title>
<path fill="none" stroke="midnightblue" d="M741.177,-58.6308C712.087,-49.152 668.864,-35.0681 636.959,-24.6721"/>
<polygon fill="midnightblue" stroke="midnightblue" points="638.041,-21.3437 627.449,-21.5733 635.873,-27.9993 638.041,-21.3437"/>
</g>
<!-- Node18&#45;&gt;Node8 -->
<g id="edge50" class="edge"><title>Node18&#45;&gt;Node8</title>
<path fill="none" stroke="midnightblue" d="M788.04,-58.3619C800.293,-49.6955 817.799,-37.3126 831.839,-27.3819"/>
<polygon fill="midnightblue" stroke="midnightblue" points="833.912,-30.2028 840.055,-21.5707 829.87,-24.4879 833.912,-30.2028"/>
</g>
<!-- Node18&#45;&gt;Node9 -->
<g id="edge56" class="edge"><title>Node18&#45;&gt;Node9</title>
<path fill="none" stroke="midnightblue" d="M741.292,-63.7903C700.131,-56.6901 625.985,-42.7522 554.801,-22.2516"/>
<polygon fill="midnightblue" stroke="midnightblue" points="555.36,-18.7685 544.78,-19.3153 553.392,-25.4861 555.36,-18.7685"/>
</g>
<!-- Node19 -->
<g id="node45" class="node"><title>Node19</title>
<polygon fill="white" stroke="#bfbfbf" points="722,-0.5 722,-21.5 768,-21.5 768,-0.5 722,-0.5"/>
<text text-anchor="middle" x="745" y="-8.5" font-family="Helvetica,sans-Serif" font-size="10.00">vector</text>
</g>
<!-- Node18&#45;&gt;Node19 -->
<g id="edge52" class="edge"><title>Node18&#45;&gt;Node19</title>
<path fill="none" stroke="midnightblue" d="M767.864,-58.3619C764.154,-50.6766 759.033,-40.0686 754.578,-30.8399"/>
<polygon fill="midnightblue" stroke="midnightblue" points="757.603,-29.0545 750.103,-21.5707 751.299,-32.0978 757.603,-29.0545"/>
</g>
<!-- Node20 -->
<g id="node47" class="node"><title>Node20</title>
<polygon fill="white" stroke="#bfbfbf" points="785.5,-0.5 785.5,-21.5 816.5,-21.5 816.5,-0.5 785.5,-0.5"/>
<text text-anchor="middle" x="801" y="-8.5" font-family="Helvetica,sans-Serif" font-size="10.00">set</text>
</g>
<!-- Node18&#45;&gt;Node20 -->
<g id="edge54" class="edge"><title>Node18&#45;&gt;Node20</title>
<path fill="none" stroke="midnightblue" d="M778.136,-58.3619C781.846,-50.6766 786.967,-40.0686 791.422,-30.8399"/>
<polygon fill="midnightblue" stroke="midnightblue" points="794.701,-32.0978 795.897,-21.5707 788.397,-29.0545 794.701,-32.0978"/>
</g>
<!-- Node21 -->
<g id="node50" class="node"><title>Node21</title>
<polygon fill="white" stroke="#bfbfbf" points="646,-0.5 646,-21.5 704,-21.5 704,-0.5 646,-0.5"/>
<text text-anchor="middle" x="675" y="-8.5" font-family="Helvetica,sans-Serif" font-size="10.00">QtGlobal</text>
</g>
<!-- Node18&#45;&gt;Node21 -->
<g id="edge58" class="edge"><title>Node18&#45;&gt;Node21</title>
<path fill="none" stroke="midnightblue" d="M755.025,-58.3619C740.106,-49.532 718.667,-36.844 701.734,-26.8224"/>
<polygon fill="midnightblue" stroke="midnightblue" points="703.249,-23.6519 692.861,-21.5707 699.684,-29.6759 703.249,-23.6519"/>
</g>
<!-- Node22&#45;&gt;Node6 -->
<g id="edge62" class="edge"><title>Node22&#45;&gt;Node6</title>
<path fill="none" stroke="midnightblue" d="M701.568,-174.467C689.977,-152.282 661.541,-99.3841 633,-58 626.298,-48.2822 618.148,-38.0288 611.117,-29.5873"/>
<polygon fill="midnightblue" stroke="midnightblue" points="613.687,-27.2064 604.554,-21.8367 608.345,-31.73 613.687,-27.2064"/>
</g>
<!-- Node22&#45;&gt;Node8 -->
<g id="edge64" class="edge"><title>Node22&#45;&gt;Node8</title>
<path fill="none" stroke="midnightblue" d="M735.101,-174.346C752.891,-166.473 775.397,-154.294 791,-138 820.999,-106.672 839.965,-58.5324 848.912,-31.4088"/>
<polygon fill="midnightblue" stroke="midnightblue" points="852.271,-32.3967 851.948,-21.8068 845.596,-30.2863 852.271,-32.3967"/>
</g>
<!-- Node22&#45;&gt;Node15 -->
<g id="edge80" class="edge"><title>Node22&#45;&gt;Node15</title>
<path fill="none" stroke="midnightblue" d="M665.297,-177.417C632.367,-170.314 585.966,-157.781 549,-138 523.816,-124.524 499.196,-102.633 483.397,-87.1257"/>
<polygon fill="midnightblue" stroke="midnightblue" points="485.518,-84.2954 475.983,-79.6768 480.557,-89.2335 485.518,-84.2954"/>
</g>
<!-- Node23 -->
<g id="node56" class="node"><title>Node23</title>
<polygon fill="white" stroke="#bfbfbf" points="704,-116.5 704,-137.5 782,-137.5 782,-116.5 704,-116.5"/>
<text text-anchor="middle" x="743" y="-124.5" font-family="Helvetica,sans-Serif" font-size="10.00">lunaservice.h</text>
</g>
<!-- Node22&#45;&gt;Node23 -->
<g id="edge66" class="edge"><title>Node22&#45;&gt;Node23</title>
<path fill="none" stroke="midnightblue" d="M713.603,-174.362C718.475,-166.513 725.238,-155.616 731.05,-146.253"/>
<polygon fill="midnightblue" stroke="midnightblue" points="734.139,-147.913 736.439,-137.571 728.191,-144.221 734.139,-147.913"/>
</g>
<!-- Node24 -->
<g id="node58" class="node"><title>Node24</title>
<a xlink:href="Mutex_8h.htm" target="_top" xlink:title="Mutex.h">
<polygon fill="white" stroke="black" points="557.5,-116.5 557.5,-137.5 610.5,-137.5 610.5,-116.5 557.5,-116.5"/>
<text text-anchor="middle" x="584" y="-124.5" font-family="Helvetica,sans-Serif" font-size="10.00">Mutex.h</text>
</a>
</g>
<!-- Node22&#45;&gt;Node24 -->
<g id="edge68" class="edge"><title>Node22&#45;&gt;Node24</title>
<path fill="none" stroke="midnightblue" d="M684.726,-174.497C665.428,-165.397 637.287,-152.127 615.652,-141.925"/>
<polygon fill="midnightblue" stroke="midnightblue" points="617.062,-138.721 606.524,-137.621 614.076,-145.052 617.062,-138.721"/>
</g>
<!-- Node26 -->
<g id="node67" class="node"><title>Node26</title>
<polygon fill="white" stroke="#bfbfbf" points="848.5,-116.5 848.5,-137.5 903.5,-137.5 903.5,-116.5 848.5,-116.5"/>
<text text-anchor="middle" x="876" y="-124.5" font-family="Helvetica,sans-Serif" font-size="10.00">QObject</text>
</g>
<!-- Node22&#45;&gt;Node26 -->
<g id="edge82" class="edge"><title>Node22&#45;&gt;Node26</title>
<path fill="none" stroke="midnightblue" d="M737.605,-174.497C765.977,-164.759 808.262,-150.247 838.62,-139.829"/>
<polygon fill="midnightblue" stroke="midnightblue" points="840.099,-143.022 848.421,-136.465 837.826,-136.401 840.099,-143.022"/>
</g>
<!-- Node24&#45;&gt;Node6 -->
<g id="edge70" class="edge"><title>Node24&#45;&gt;Node6</title>
<path fill="none" stroke="midnightblue" d="M595.245,-116.234C603.6,-107.404 614.327,-94.0993 619,-80 624.576,-63.1754 616.912,-44.1575 608.802,-30.3547"/>
<polygon fill="midnightblue" stroke="midnightblue" points="611.614,-28.256 603.273,-21.7232 605.72,-32.0317 611.614,-28.256"/>
</g>
<!-- Node24&#45;&gt;Node9 -->
<g id="edge78" class="edge"><title>Node24&#45;&gt;Node9</title>
<path fill="none" stroke="midnightblue" d="M578.181,-116.204C573.076,-106.698 565.476,-92.4663 559,-80 550.429,-63.5025 540.895,-44.6749 533.945,-30.859"/>
<polygon fill="midnightblue" stroke="midnightblue" points="537.007,-29.156 529.392,-21.7896 530.751,-32.2969 537.007,-29.156"/>
</g>
<!-- Node25 -->
<g id="node61" class="node"><title>Node25</title>
<a xlink:href="sptr_8h.htm" target="_top" xlink:title="sptr.h">
<polygon fill="white" stroke="black" points="567.5,-58.5 567.5,-79.5 610.5,-79.5 610.5,-58.5 567.5,-58.5"/>
<text text-anchor="middle" x="589" y="-66.5" font-family="Helvetica,sans-Serif" font-size="10.00">sptr.h</text>
</a>
</g>
<!-- Node24&#45;&gt;Node25 -->
<g id="edge72" class="edge"><title>Node24&#45;&gt;Node25</title>
<path fill="none" stroke="midnightblue" d="M584.917,-116.362C585.558,-108.922 586.436,-98.7427 587.213,-89.7276"/>
<polygon fill="midnightblue" stroke="midnightblue" points="590.717,-89.8343 588.089,-79.5707 583.743,-89.2331 590.717,-89.8343"/>
</g>
<!-- Node25&#45;&gt;Node6 -->
<g id="edge74" class="edge"><title>Node25&#45;&gt;Node6</title>
<path fill="none" stroke="midnightblue" d="M590.1,-58.3619C590.87,-50.9219 591.923,-40.7427 592.856,-31.7276"/>
<polygon fill="midnightblue" stroke="midnightblue" points="596.359,-31.8777 593.906,-21.5707 589.396,-31.1574 596.359,-31.8777"/>
</g>
<!-- Node25&#45;&gt;Node9 -->
<g id="edge76" class="edge"><title>Node25&#45;&gt;Node9</title>
<path fill="none" stroke="midnightblue" d="M577.078,-58.3619C567.641,-49.9408 554.27,-38.0105 543.31,-28.2308"/>
<polygon fill="midnightblue" stroke="midnightblue" points="545.638,-25.6171 535.846,-21.5707 540.978,-30.8401 545.638,-25.6171"/>
</g>
<!-- Node27&#45;&gt;Node6 -->
<g id="edge86" class="edge"><title>Node27&#45;&gt;Node6</title>
<path fill="none" stroke="midnightblue" d="M920.373,-117.806C917.541,-117.188 914.729,-116.581 912,-116 832.628,-99.1116 809.619,-106.732 733,-80 712.731,-72.9283 709.177,-67.6488 690,-58 668.583,-47.2242 644.359,-35.2429 625.733,-26.0743"/>
<polygon fill="midnightblue" stroke="midnightblue" points="627.065,-22.8293 616.547,-21.5574 623.977,-29.111 627.065,-22.8293"/>
</g>
<!-- Node28 -->
<g id="node72" class="node"><title>Node28</title>
<a xlink:href="QtUtils_8h.htm" target="_top" xlink:title="QtUtils.h">
<polygon fill="white" stroke="black" points="892,-58.5 892,-79.5 948,-79.5 948,-58.5 892,-58.5"/>
<text text-anchor="middle" x="920" y="-66.5" font-family="Helvetica,sans-Serif" font-size="10.00">QtUtils.h</text>
</a>
</g>
<!-- Node27&#45;&gt;Node28 -->
<g id="edge88" class="edge"><title>Node27&#45;&gt;Node28</title>
<path fill="none" stroke="midnightblue" d="M953.48,-116.362C947.874,-108.431 940.068,-97.3885 933.403,-87.9606"/>
<polygon fill="midnightblue" stroke="midnightblue" points="936.103,-85.7161 927.472,-79.5707 930.387,-89.7568 936.103,-85.7161"/>
</g>
<!-- Node30 -->
<g id="node78" class="node"><title>Node30</title>
<polygon fill="white" stroke="#bfbfbf" points="964,-0.5 964,-21.5 1014,-21.5 1014,-0.5 964,-0.5"/>
<text text-anchor="middle" x="989" y="-8.5" font-family="Helvetica,sans-Serif" font-size="10.00">QHash</text>
</g>
<!-- Node27&#45;&gt;Node30 -->
<g id="edge98" class="edge"><title>Node27&#45;&gt;Node30</title>
<path fill="none" stroke="midnightblue" d="M963.584,-116.295C968.23,-97.0451 978.068,-56.2889 984.05,-31.5091"/>
<polygon fill="midnightblue" stroke="midnightblue" points="987.478,-32.2213 986.422,-21.6792 980.673,-30.5788 987.478,-32.2213"/>
</g>
<!-- Node28&#45;&gt;Node6 -->
<g id="edge90" class="edge"><title>Node28&#45;&gt;Node6</title>
<path fill="none" stroke="midnightblue" d="M891.722,-65.1791C842.303,-58.3141 736.852,-42.8335 638.923,-22.2878"/>
<polygon fill="midnightblue" stroke="midnightblue" points="639.371,-18.805 628.862,-20.1532 637.918,-25.6526 639.371,-18.805"/>
</g>
<!-- Node28&#45;&gt;Node8 -->
<g id="edge92" class="edge"><title>Node28&#45;&gt;Node8</title>
<path fill="none" stroke="midnightblue" d="M908.078,-58.3619C898.641,-49.9408 885.27,-38.0105 874.31,-28.2308"/>
<polygon fill="midnightblue" stroke="midnightblue" points="876.638,-25.6171 866.846,-21.5707 871.978,-30.8401 876.638,-25.6171"/>
</g>
<!-- Node29 -->
<g id="node76" class="node"><title>Node29</title>
<polygon fill="white" stroke="#bfbfbf" points="893.5,-0.5 893.5,-21.5 946.5,-21.5 946.5,-0.5 893.5,-0.5"/>
<text text-anchor="middle" x="920" y="-8.5" font-family="Helvetica,sans-Serif" font-size="10.00">QString</text>
</g>
<!-- Node28&#45;&gt;Node29 -->
<g id="edge94" class="edge"><title>Node28&#45;&gt;Node29</title>
<path fill="none" stroke="midnightblue" d="M920,-58.3619C920,-50.9219 920,-40.7427 920,-31.7276"/>
<polygon fill="midnightblue" stroke="midnightblue" points="923.5,-31.5706 920,-21.5707 916.5,-31.5707 923.5,-31.5706"/>
</g>
<!-- Node28&#45;&gt;Node30 -->
<g id="edge96" class="edge"><title>Node28&#45;&gt;Node30</title>
<path fill="none" stroke="midnightblue" d="M932.656,-58.3619C942.674,-49.9408 956.867,-38.0105 968.501,-28.2308"/>
<polygon fill="midnightblue" stroke="midnightblue" points="971.022,-30.6844 976.425,-21.5707 966.518,-25.326 971.022,-30.6844"/>
</g>
</g>
</svg>
