<?xml version="1.0" encoding="UTF-8" standalone="no"?>
<!DOCTYPE svg PUBLIC "-//W3C//DTD SVG 1.1//EN"
 "http://www.w3.org/Graphics/SVG/1.1/DTD/svg11.dtd">
<!-- Generated by graphviz version 2.26.3 (20100126.1600)
 -->
<!-- Title: G Pages: 1 -->
<svg width="1202pt" height="320pt"
 viewBox="0.00 0.00 1202.00 320.00" xmlns="http://www.w3.org/2000/svg" xmlns:xlink="http://www.w3.org/1999/xlink">
<g id="graph1" class="graph" transform="scale(1 1) rotate(0) translate(4 316)">
<title>G</title>
<polygon fill="white" stroke="white" points="-4,5 -4,-316 1199,-316 1199,5 -4,5"/>
<!-- Node1 -->
<g id="node1" class="node"><title>Node1</title>
<polygon fill="#bfbfbf" stroke="black" points="619.5,-290.5 619.5,-311.5 750.5,-311.5 750.5,-290.5 619.5,-290.5"/>
<text text-anchor="middle" x="685" y="-298.5" font-family="Helvetica,sans-Serif" font-size="10.00">StatusBarItemGroup.cpp</text>
</g>
<!-- Node2 -->
<g id="node3" class="node"><title>Node2</title>
<a xlink:href="StatusBarItemGroup_8h.htm" target="_top" xlink:title="StatusBarItemGroup.h">
<polygon fill="white" stroke="black" points="713,-232.5 713,-253.5 833,-253.5 833,-232.5 713,-232.5"/>
<text text-anchor="middle" x="773" y="-240.5" font-family="Helvetica,sans-Serif" font-size="10.00">StatusBarItemGroup.h</text>
</a>
</g>
<!-- Node1&#45;&gt;Node2 -->
<g id="edge2" class="edge"><title>Node1&#45;&gt;Node2</title>
<path fill="none" stroke="midnightblue" d="M701.141,-290.362C714.414,-281.614 733.432,-269.079 748.57,-259.101"/>
<polygon fill="midnightblue" stroke="midnightblue" points="750.538,-261.996 756.962,-253.571 746.686,-256.151 750.538,-261.996"/>
</g>
<!-- Node16 -->
<g id="node34" class="node"><title>Node16</title>
<a xlink:href="StatusBarItem_8h.htm" target="_top" xlink:title="StatusBarItem.h">
<polygon fill="white" stroke="black" points="647.5,-174.5 647.5,-195.5 738.5,-195.5 738.5,-174.5 647.5,-174.5"/>
<text text-anchor="middle" x="693" y="-182.5" font-family="Helvetica,sans-Serif" font-size="10.00">StatusBarItem.h</text>
</a>
</g>
<!-- Node1&#45;&gt;Node16 -->
<g id="edge88" class="edge"><title>Node1&#45;&gt;Node16</title>
<path fill="none" stroke="midnightblue" d="M685.738,-290.295C687.06,-271.131 689.851,-230.654 691.563,-205.843"/>
<polygon fill="midnightblue" stroke="midnightblue" points="695.067,-205.896 692.264,-195.679 688.084,-205.415 695.067,-205.896"/>
</g>
<!-- Node20 -->
<g id="node45" class="node"><title>Node20</title>
<a xlink:href="Settings_8h.htm" target="_top" xlink:title="Settings.h">
<polygon fill="white" stroke="black" points="47.5,-58.5 47.5,-79.5 110.5,-79.5 110.5,-58.5 47.5,-58.5"/>
<text text-anchor="middle" x="79" y="-66.5" font-family="Helvetica,sans-Serif" font-size="10.00">Settings.h</text>
</a>
</g>
<!-- Node1&#45;&gt;Node20 -->
<g id="edge50" class="edge"><title>Node1&#45;&gt;Node20</title>
<path fill="none" stroke="midnightblue" d="M646.912,-290.437C564.73,-267.128 365.316,-207.783 206,-138 169.767,-122.129 130,-99.6404 104.791,-84.702"/>
<polygon fill="midnightblue" stroke="midnightblue" points="106.575,-81.6909 96.1957,-79.5663 102.985,-87.7 106.575,-81.6909"/>
</g>
<!-- Node24 -->
<g id="node56" class="node"><title>Node24</title>
<a xlink:href="Preferences_8h.htm" target="_top" xlink:title="Preferences.h">
<polygon fill="white" stroke="black" points="547.5,-174.5 547.5,-195.5 630.5,-195.5 630.5,-174.5 547.5,-174.5"/>
<text text-anchor="middle" x="589" y="-182.5" font-family="Helvetica,sans-Serif" font-size="10.00">Preferences.h</text>
</a>
</g>
<!-- Node1&#45;&gt;Node24 -->
<g id="edge64" class="edge"><title>Node1&#45;&gt;Node24</title>
<path fill="none" stroke="midnightblue" d="M676.141,-290.295C659.781,-270.527 624.653,-228.08 604.347,-203.544"/>
<polygon fill="midnightblue" stroke="midnightblue" points="606.91,-201.152 597.838,-195.679 601.517,-205.615 606.91,-201.152"/>
</g>
<!-- Node29 -->
<g id="node74" class="node"><title>Node29</title>
<polygon fill="white" stroke="#bfbfbf" points="850.5,-232.5 850.5,-253.5 909.5,-253.5 909.5,-232.5 850.5,-232.5"/>
<text text-anchor="middle" x="880" y="-240.5" font-family="Helvetica,sans-Serif" font-size="10.00">QPainter</text>
</g>
<!-- Node1&#45;&gt;Node29 -->
<g id="edge90" class="edge"><title>Node1&#45;&gt;Node29</title>
<path fill="none" stroke="midnightblue" d="M720.313,-290.497C754.177,-280.424 805.217,-265.243 840.435,-254.768"/>
<polygon fill="midnightblue" stroke="midnightblue" points="841.782,-258.019 850.37,-251.813 839.787,-251.309 841.782,-258.019"/>
</g>
<!-- Node30 -->
<g id="node76" class="node"><title>Node30</title>
<a xlink:href="AnimationSettings_8h.htm" target="_top" xlink:title="AnimationSettings.h">
<polygon fill="white" stroke="black" points="299,-116.5 299,-137.5 409,-137.5 409,-116.5 299,-116.5"/>
<text text-anchor="middle" x="354" y="-124.5" font-family="Helvetica,sans-Serif" font-size="10.00">AnimationSettings.h</text>
</a>
</g>
<!-- Node1&#45;&gt;Node30 -->
<g id="edge92" class="edge"><title>Node1&#45;&gt;Node30</title>
<path fill="none" stroke="midnightblue" d="M664.793,-290.377C608.471,-260.77 449.535,-177.221 383.421,-142.466"/>
<polygon fill="midnightblue" stroke="midnightblue" points="384.843,-139.26 374.363,-137.705 381.586,-145.456 384.843,-139.26"/>
</g>
<!-- Node34 -->
<g id="node88" class="node"><title>Node34</title>
<polygon fill="white" stroke="#bfbfbf" points="926.5,-232.5 926.5,-253.5 973.5,-253.5 973.5,-232.5 926.5,-232.5"/>
<text text-anchor="middle" x="950" y="-240.5" font-family="Helvetica,sans-Serif" font-size="10.00">stdio.h</text>
</g>
<!-- Node1&#45;&gt;Node34 -->
<g id="edge108" class="edge"><title>Node1&#45;&gt;Node34</title>
<path fill="none" stroke="midnightblue" d="M748.82,-290.473C793.552,-282.557 854.843,-270.638 916.454,-254.199"/>
<polygon fill="midnightblue" stroke="midnightblue" points="917.605,-257.514 926.343,-251.522 915.775,-250.757 917.605,-257.514"/>
</g>
<!-- Node3 -->
<g id="node5" class="node"><title>Node3</title>
<a xlink:href="StatusBar_8h.htm" target="_top" xlink:title="StatusBar.h">
<polygon fill="white" stroke="black" points="871.5,-116.5 871.5,-137.5 942.5,-137.5 942.5,-116.5 871.5,-116.5"/>
<text text-anchor="middle" x="907" y="-124.5" font-family="Helvetica,sans-Serif" font-size="10.00">StatusBar.h</text>
</a>
</g>
<!-- Node2&#45;&gt;Node3 -->
<g id="edge4" class="edge"><title>Node2&#45;&gt;Node3</title>
<path fill="none" stroke="midnightblue" d="M771.837,-232.345C770.828,-217.55 771.263,-190.725 785,-174 795.205,-161.576 831.476,-148.509 861.84,-139.316"/>
<polygon fill="midnightblue" stroke="midnightblue" points="862.853,-142.666 871.45,-136.473 860.868,-135.954 862.853,-142.666"/>
</g>
<!-- Node11 -->
<g id="node21" class="node"><title>Node11</title>
<polygon fill="white" stroke="#bfbfbf" points="1041.5,-58.5 1041.5,-79.5 1100.5,-79.5 1100.5,-58.5 1041.5,-58.5"/>
<text text-anchor="middle" x="1071" y="-66.5" font-family="Helvetica,sans-Serif" font-size="10.00">QPointer</text>
</g>
<!-- Node2&#45;&gt;Node11 -->
<g id="edge44" class="edge"><title>Node2&#45;&gt;Node11</title>
<path fill="none" stroke="midnightblue" d="M833.203,-233.354C836.177,-232.893 839.122,-232.439 842,-232 896.834,-223.634 1052.72,-237.956 1089,-196 1114.95,-165.997 1096.07,-116.261 1082.19,-88.7774"/>
<polygon fill="midnightblue" stroke="midnightblue" points="1085.17,-86.9295 1077.39,-79.7367 1078.99,-90.2107 1085.17,-86.9295"/>
</g>
<!-- Node2&#45;&gt;Node16 -->
<g id="edge36" class="edge"><title>Node2&#45;&gt;Node16</title>
<path fill="none" stroke="midnightblue" d="M758.327,-232.362C746.486,-223.777 729.615,-211.546 715.984,-201.664"/>
<polygon fill="midnightblue" stroke="midnightblue" points="717.731,-198.607 707.58,-195.571 713.622,-204.274 717.731,-198.607"/>
</g>
<!-- Node17 -->
<g id="node38" class="node"><title>Node17</title>
<polygon fill="white" stroke="#bfbfbf" points="1135.5,-174.5 1135.5,-195.5 1194.5,-195.5 1194.5,-174.5 1135.5,-174.5"/>
<text text-anchor="middle" x="1165" y="-182.5" font-family="Helvetica,sans-Serif" font-size="10.00">QPixmap</text>
</g>
<!-- Node2&#45;&gt;Node17 -->
<g id="edge42" class="edge"><title>Node2&#45;&gt;Node17</title>
<path fill="none" stroke="midnightblue" d="M833.195,-233.294C836.171,-232.849 839.118,-232.415 842,-232 966.188,-214.122 998.769,-219.592 1122,-196 1123.1,-195.79 1124.21,-195.568 1125.33,-195.337"/>
<polygon fill="midnightblue" stroke="midnightblue" points="1126.51,-198.659 1135.5,-193.054 1124.98,-191.829 1126.51,-198.659"/>
</g>
<!-- Node18 -->
<g id="node41" class="node"><title>Node18</title>
<polygon fill="white" stroke="#bfbfbf" points="794,-174.5 794,-195.5 906,-195.5 906,-174.5 794,-174.5"/>
<text text-anchor="middle" x="850" y="-182.5" font-family="Helvetica,sans-Serif" font-size="10.00">QPropertyAnimation</text>
</g>
<!-- Node2&#45;&gt;Node18 -->
<g id="edge46" class="edge"><title>Node2&#45;&gt;Node18</title>
<path fill="none" stroke="midnightblue" d="M787.123,-232.362C798.52,-223.777 814.758,-211.546 827.878,-201.664"/>
<polygon fill="midnightblue" stroke="midnightblue" points="830.085,-204.383 835.967,-195.571 825.873,-198.792 830.085,-204.383"/>
</g>
<!-- Node19 -->
<g id="node43" class="node"><title>Node19</title>
<polygon fill="white" stroke="#bfbfbf" points="924,-174.5 924,-195.5 1080,-195.5 1080,-174.5 924,-174.5"/>
<text text-anchor="middle" x="1002" y="-182.5" font-family="Helvetica,sans-Serif" font-size="10.00">QGraphicsSceneMouseEvent</text>
</g>
<!-- Node2&#45;&gt;Node19 -->
<g id="edge48" class="edge"><title>Node2&#45;&gt;Node19</title>
<path fill="none" stroke="midnightblue" d="M814.47,-232.497C852.692,-222.816 909.549,-208.416 950.631,-198.01"/>
<polygon fill="midnightblue" stroke="midnightblue" points="951.617,-201.371 960.452,-195.523 949.899,-194.585 951.617,-201.371"/>
</g>
<!-- Node4 -->
<g id="node7" class="node"><title>Node4</title>
<a xlink:href="Window_8h.htm" target="_top" xlink:title="Window.h">
<polygon fill="white" stroke="black" points="754,-58.5 754,-79.5 816,-79.5 816,-58.5 754,-58.5"/>
<text text-anchor="middle" x="785" y="-66.5" font-family="Helvetica,sans-Serif" font-size="10.00">Window.h</text>
</a>
</g>
<!-- Node3&#45;&gt;Node4 -->
<g id="edge6" class="edge"><title>Node3&#45;&gt;Node4</title>
<path fill="none" stroke="midnightblue" d="M884.907,-116.497C865.766,-107.397 837.854,-94.1273 816.395,-83.9253"/>
<polygon fill="midnightblue" stroke="midnightblue" points="817.875,-80.7539 807.341,-79.6212 814.87,-87.0758 817.875,-80.7539"/>
</g>
<!-- Node9 -->
<g id="node17" class="node"><title>Node9</title>
<polygon fill="white" stroke="#bfbfbf" points="827,-0.5 827,-21.5 925,-21.5 925,-0.5 827,-0.5"/>
<text text-anchor="middle" x="876" y="-8.5" font-family="Helvetica,sans-Serif" font-size="10.00">QGraphicsObject</text>
</g>
<!-- Node3&#45;&gt;Node9 -->
<g id="edge22" class="edge"><title>Node3&#45;&gt;Node9</title>
<path fill="none" stroke="midnightblue" d="M935.776,-116.49C964.253,-104.383 1001.39,-82.9228 985,-58 973.568,-40.6204 954.203,-29.6391 934.94,-22.7125"/>
<polygon fill="midnightblue" stroke="midnightblue" points="935.816,-19.3168 925.223,-19.5376 933.642,-25.9706 935.816,-19.3168"/>
</g>
<!-- Node3&#45;&gt;Node11 -->
<g id="edge20" class="edge"><title>Node3&#45;&gt;Node11</title>
<path fill="none" stroke="midnightblue" d="M936.699,-116.497C963.32,-107.082 1002.56,-93.2036 1031.76,-82.8773"/>
<polygon fill="midnightblue" stroke="midnightblue" points="1032.98,-86.1571 1041.25,-79.5231 1030.65,-79.5576 1032.98,-86.1571"/>
</g>
<!-- Node12 -->
<g id="node24" class="node"><title>Node12</title>
<a xlink:href="VariantAnimation_8h.htm" target="_top" xlink:title="VariantAnimation.h">
<polygon fill="white" stroke="black" points="871.5,-58.5 871.5,-79.5 976.5,-79.5 976.5,-58.5 871.5,-58.5"/>
<text text-anchor="middle" x="924" y="-66.5" font-family="Helvetica,sans-Serif" font-size="10.00">VariantAnimation.h</text>
</a>
</g>
<!-- Node3&#45;&gt;Node12 -->
<g id="edge24" class="edge"><title>Node3&#45;&gt;Node12</title>
<path fill="none" stroke="midnightblue" d="M910.118,-116.362C912.323,-108.84 915.348,-98.5187 918.012,-89.4308"/>
<polygon fill="midnightblue" stroke="midnightblue" points="921.448,-90.1514 920.902,-79.5707 914.73,-88.1825 921.448,-90.1514"/>
</g>
<!-- Node14 -->
<g id="node29" class="node"><title>Node14</title>
<a xlink:href="CustomEvents_8h.htm" target="_top" xlink:title="CustomEvents.h">
<polygon fill="white" stroke="black" points="644,-58.5 644,-79.5 736,-79.5 736,-58.5 644,-58.5"/>
<text text-anchor="middle" x="690" y="-66.5" font-family="Helvetica,sans-Serif" font-size="10.00">CustomEvents.h</text>
</a>
</g>
<!-- Node3&#45;&gt;Node14 -->
<g id="edge30" class="edge"><title>Node3&#45;&gt;Node14</title>
<path fill="none" stroke="midnightblue" d="M871.167,-117.422C835.211,-107.812 779.551,-92.9353 739.413,-82.2072"/>
<polygon fill="midnightblue" stroke="midnightblue" points="740.129,-78.7758 729.565,-79.5749 738.322,-85.5384 740.129,-78.7758"/>
</g>
<!-- Node5 -->
<g id="node9" class="node"><title>Node5</title>
<a xlink:href="Common_8h.htm" target="_top" xlink:title="Common.h">
<polygon fill="white" stroke="black" points="542.5,-0.5 542.5,-21.5 609.5,-21.5 609.5,-0.5 542.5,-0.5"/>
<text text-anchor="middle" x="576" y="-8.5" font-family="Helvetica,sans-Serif" font-size="10.00">Common.h</text>
</a>
</g>
<!-- Node4&#45;&gt;Node5 -->
<g id="edge8" class="edge"><title>Node4&#45;&gt;Node5</title>
<path fill="none" stroke="midnightblue" d="M753.711,-60.3168C718.018,-50.4117 659.426,-34.1517 619.348,-23.0297"/>
<polygon fill="midnightblue" stroke="midnightblue" points="620.155,-19.6213 609.583,-20.3197 618.283,-26.3664 620.155,-19.6213"/>
</g>
<!-- Node6 -->
<g id="node11" class="node"><title>Node6</title>
<polygon fill="white" stroke="#bfbfbf" points="697,-0.5 697,-21.5 747,-21.5 747,-0.5 697,-0.5"/>
<text text-anchor="middle" x="722" y="-8.5" font-family="Helvetica,sans-Serif" font-size="10.00">stdint.h</text>
</g>
<!-- Node4&#45;&gt;Node6 -->
<g id="edge10" class="edge"><title>Node4&#45;&gt;Node6</title>
<path fill="none" stroke="midnightblue" d="M773.445,-58.3619C764.387,-50.0226 751.59,-38.2418 741.026,-28.5162"/>
<polygon fill="midnightblue" stroke="midnightblue" points="743.21,-25.7688 733.482,-21.5707 738.468,-30.9187 743.21,-25.7688"/>
</g>
<!-- Node7 -->
<g id="node13" class="node"><title>Node7</title>
<polygon fill="white" stroke="#bfbfbf" points="197.5,-0.5 197.5,-21.5 240.5,-21.5 240.5,-0.5 197.5,-0.5"/>
<text text-anchor="middle" x="219" y="-8.5" font-family="Helvetica,sans-Serif" font-size="10.00">string</text>
</g>
<!-- Node4&#45;&gt;Node7 -->
<g id="edge12" class="edge"><title>Node4&#45;&gt;Node7</title>
<path fill="none" stroke="midnightblue" d="M753.686,-59.7788C750.766,-59.1037 747.838,-58.4949 745,-58 539.924,-22.2373 484.398,-49.1162 278,-22 269.09,-20.8294 259.486,-19.1989 250.668,-17.5514"/>
<polygon fill="midnightblue" stroke="midnightblue" points="251.249,-14.0988 240.766,-15.636 249.919,-20.9715 251.249,-14.0988"/>
</g>
<!-- Node8 -->
<g id="node15" class="node"><title>Node8</title>
<polygon fill="white" stroke="#bfbfbf" points="421.5,-0.5 421.5,-21.5 462.5,-21.5 462.5,-0.5 421.5,-0.5"/>
<text text-anchor="middle" x="442" y="-8.5" font-family="Helvetica,sans-Serif" font-size="10.00">glib.h</text>
</g>
<!-- Node4&#45;&gt;Node8 -->
<g id="edge14" class="edge"><title>Node4&#45;&gt;Node8</title>
<path fill="none" stroke="midnightblue" d="M753.641,-60.0111C750.73,-59.2873 747.817,-58.6037 745,-58 646.428,-36.8739 527.884,-21.2842 472.857,-14.6005"/>
<polygon fill="midnightblue" stroke="midnightblue" points="473.069,-11.1009 462.723,-13.3835 472.234,-18.051 473.069,-11.1009"/>
</g>
<!-- Node4&#45;&gt;Node9 -->
<g id="edge16" class="edge"><title>Node4&#45;&gt;Node9</title>
<path fill="none" stroke="midnightblue" d="M801.691,-58.3619C815.416,-49.6138 835.084,-37.0786 850.737,-27.1015"/>
<polygon fill="midnightblue" stroke="midnightblue" points="852.863,-29.8969 859.415,-21.5707 849.101,-23.994 852.863,-29.8969"/>
</g>
<!-- Node10 -->
<g id="node19" class="node"><title>Node10</title>
<polygon fill="white" stroke="#bfbfbf" points="764.5,-0.5 764.5,-21.5 809.5,-21.5 809.5,-0.5 764.5,-0.5"/>
<text text-anchor="middle" x="787" y="-8.5" font-family="Helvetica,sans-Serif" font-size="10.00">QSize</text>
</g>
<!-- Node4&#45;&gt;Node10 -->
<g id="edge18" class="edge"><title>Node4&#45;&gt;Node10</title>
<path fill="none" stroke="midnightblue" d="M785.367,-58.3619C785.623,-50.9219 785.974,-40.7427 786.285,-31.7276"/>
<polygon fill="midnightblue" stroke="midnightblue" points="789.789,-31.6854 786.635,-21.5707 782.793,-31.4441 789.789,-31.6854"/>
</g>
<!-- Node12&#45;&gt;Node5 -->
<g id="edge26" class="edge"><title>Node12&#45;&gt;Node5</title>
<path fill="none" stroke="midnightblue" d="M871.455,-62.6155C812.353,-55.0587 713.345,-41.2738 619.767,-22.2305"/>
<polygon fill="midnightblue" stroke="midnightblue" points="620.355,-18.7782 609.855,-20.189 618.943,-25.6343 620.355,-18.7782"/>
</g>
<!-- Node13 -->
<g id="node27" class="node"><title>Node13</title>
<polygon fill="white" stroke="#bfbfbf" points="942.5,-0.5 942.5,-21.5 1047.5,-21.5 1047.5,-0.5 942.5,-0.5"/>
<text text-anchor="middle" x="995" y="-8.5" font-family="Helvetica,sans-Serif" font-size="10.00">QVariantAnimation</text>
</g>
<!-- Node12&#45;&gt;Node13 -->
<g id="edge28" class="edge"><title>Node12&#45;&gt;Node13</title>
<path fill="none" stroke="midnightblue" d="M937.022,-58.3619C947.431,-49.859 962.219,-37.7785 974.255,-27.9466"/>
<polygon fill="midnightblue" stroke="midnightblue" points="976.53,-30.6077 982.06,-21.5707 972.101,-25.1866 976.53,-30.6077"/>
</g>
<!-- Node14&#45;&gt;Node5 -->
<g id="edge32" class="edge"><title>Node14&#45;&gt;Node5</title>
<path fill="none" stroke="midnightblue" d="M669.355,-58.4966C651.63,-49.4786 625.855,-36.3649 605.877,-26.2006"/>
<polygon fill="midnightblue" stroke="midnightblue" points="607.376,-23.0364 596.876,-21.6212 604.202,-29.2753 607.376,-23.0364"/>
</g>
<!-- Node15 -->
<g id="node32" class="node"><title>Node15</title>
<polygon fill="white" stroke="#bfbfbf" points="627,-0.5 627,-21.5 679,-21.5 679,-0.5 627,-0.5"/>
<text text-anchor="middle" x="653" y="-8.5" font-family="Helvetica,sans-Serif" font-size="10.00">QEvent</text>
</g>
<!-- Node14&#45;&gt;Node15 -->
<g id="edge34" class="edge"><title>Node14&#45;&gt;Node15</title>
<path fill="none" stroke="midnightblue" d="M683.214,-58.3619C678.207,-50.5131 671.255,-39.6159 665.282,-30.2527"/>
<polygon fill="midnightblue" stroke="midnightblue" points="668.072,-28.1189 659.743,-21.5707 662.171,-31.8837 668.072,-28.1189"/>
</g>
<!-- Node16&#45;&gt;Node3 -->
<g id="edge38" class="edge"><title>Node16&#45;&gt;Node3</title>
<path fill="none" stroke="midnightblue" d="M731.754,-174.497C768.241,-164.608 822.899,-149.794 861.453,-139.344"/>
<polygon fill="midnightblue" stroke="midnightblue" points="862.643,-142.648 871.379,-136.654 860.811,-135.892 862.643,-142.648"/>
</g>
<!-- Node16&#45;&gt;Node9 -->
<g id="edge40" class="edge"><title>Node16&#45;&gt;Node9</title>
<path fill="none" stroke="midnightblue" d="M712.944,-174.477C728.821,-165.684 751.244,-152.311 769,-138 808.959,-105.793 845.083,-56.9692 863.385,-30.2109"/>
<polygon fill="midnightblue" stroke="midnightblue" points="866.413,-31.9803 869.092,-21.7298 860.605,-28.0721 866.413,-31.9803"/>
</g>
<!-- Node20&#45;&gt;Node5 -->
<g id="edge52" class="edge"><title>Node20&#45;&gt;Node5</title>
<path fill="none" stroke="midnightblue" d="M110.851,-64.2998C124.975,-62.2692 141.804,-59.9233 157,-58 228.848,-48.906 439.956,-25.7904 532.118,-15.7623"/>
<polygon fill="midnightblue" stroke="midnightblue" points="532.666,-19.2234 542.229,-14.6627 531.909,-12.2644 532.666,-19.2234"/>
</g>
<!-- Node20&#45;&gt;Node7 -->
<g id="edge54" class="edge"><title>Node20&#45;&gt;Node7</title>
<path fill="none" stroke="midnightblue" d="M104.353,-58.4966C127.726,-48.8134 162.497,-34.4082 187.615,-24.0025"/>
<polygon fill="midnightblue" stroke="midnightblue" points="189.159,-27.1514 197.058,-20.0904 186.479,-20.6844 189.159,-27.1514"/>
</g>
<!-- Node20&#45;&gt;Node8 -->
<g id="edge60" class="edge"><title>Node20&#45;&gt;Node8</title>
<path fill="none" stroke="midnightblue" d="M110.579,-63.9543C179.51,-52.9405 342.739,-26.8599 411.072,-15.9417"/>
<polygon fill="midnightblue" stroke="midnightblue" points="411.873,-19.3582 421.195,-14.3242 410.768,-12.4459 411.873,-19.3582"/>
</g>
<!-- Node21 -->
<g id="node49" class="node"><title>Node21</title>
<polygon fill="white" stroke="#bfbfbf" points="0,-0.5 0,-21.5 46,-21.5 46,-0.5 0,-0.5"/>
<text text-anchor="middle" x="23" y="-8.5" font-family="Helvetica,sans-Serif" font-size="10.00">vector</text>
</g>
<!-- Node20&#45;&gt;Node21 -->
<g id="edge56" class="edge"><title>Node20&#45;&gt;Node21</title>
<path fill="none" stroke="midnightblue" d="M68.7287,-58.3619C60.7559,-50.1043 49.5252,-38.4725 40.189,-28.8029"/>
<polygon fill="midnightblue" stroke="midnightblue" points="42.67,-26.3336 33.2061,-21.5707 37.6342,-31.1958 42.67,-26.3336"/>
</g>
<!-- Node22 -->
<g id="node51" class="node"><title>Node22</title>
<polygon fill="white" stroke="#bfbfbf" points="63.5,-0.5 63.5,-21.5 94.5,-21.5 94.5,-0.5 63.5,-0.5"/>
<text text-anchor="middle" x="79" y="-8.5" font-family="Helvetica,sans-Serif" font-size="10.00">set</text>
</g>
<!-- Node20&#45;&gt;Node22 -->
<g id="edge58" class="edge"><title>Node20&#45;&gt;Node22</title>
<path fill="none" stroke="midnightblue" d="M79,-58.3619C79,-50.9219 79,-40.7427 79,-31.7276"/>
<polygon fill="midnightblue" stroke="midnightblue" points="82.5001,-31.5706 79,-21.5707 75.5001,-31.5707 82.5001,-31.5706"/>
</g>
<!-- Node23 -->
<g id="node54" class="node"><title>Node23</title>
<polygon fill="white" stroke="#bfbfbf" points="112,-0.5 112,-21.5 170,-21.5 170,-0.5 112,-0.5"/>
<text text-anchor="middle" x="141" y="-8.5" font-family="Helvetica,sans-Serif" font-size="10.00">QtGlobal</text>
</g>
<!-- Node20&#45;&gt;Node23 -->
<g id="edge62" class="edge"><title>Node20&#45;&gt;Node23</title>
<path fill="none" stroke="midnightblue" d="M90.3718,-58.3619C99.2862,-50.0226 111.879,-38.2418 122.276,-28.5162"/>
<polygon fill="midnightblue" stroke="midnightblue" points="124.789,-30.9582 129.7,-21.5707 120.007,-25.8463 124.789,-30.9582"/>
</g>
<!-- Node24&#45;&gt;Node5 -->
<g id="edge66" class="edge"><title>Node24&#45;&gt;Node5</title>
<path fill="none" stroke="midnightblue" d="M591.364,-174.239C593.319,-164.755 595.941,-150.536 597,-138 600.196,-100.174 589.905,-56.6308 582.618,-31.6113"/>
<polygon fill="midnightblue" stroke="midnightblue" points="585.892,-30.3482 579.634,-21.7994 579.195,-32.3852 585.892,-30.3482"/>
</g>
<!-- Node24&#45;&gt;Node7 -->
<g id="edge68" class="edge"><title>Node24&#45;&gt;Node7</title>
<path fill="none" stroke="midnightblue" d="M547.375,-181.853C447.628,-173.297 200.025,-145.7 157,-80 143.895,-59.988 166.87,-39.9697 188.468,-26.6895"/>
<polygon fill="midnightblue" stroke="midnightblue" points="190.333,-29.6537 197.219,-21.6016 186.815,-23.6022 190.333,-29.6537"/>
</g>
<!-- Node24&#45;&gt;Node14 -->
<g id="edge84" class="edge"><title>Node24&#45;&gt;Node14</title>
<path fill="none" stroke="midnightblue" d="M598.45,-174.177C606.763,-164.654 619.19,-150.411 630,-138 644.851,-120.949 661.75,-101.511 673.821,-87.6216"/>
<polygon fill="midnightblue" stroke="midnightblue" points="676.734,-89.6051 680.652,-79.7611 671.451,-85.0137 676.734,-89.6051"/>
</g>
<!-- Node25 -->
<g id="node60" class="node"><title>Node25</title>
<polygon fill="white" stroke="#bfbfbf" points="682,-116.5 682,-137.5 760,-137.5 760,-116.5 682,-116.5"/>
<text text-anchor="middle" x="721" y="-124.5" font-family="Helvetica,sans-Serif" font-size="10.00">lunaservice.h</text>
</g>
<!-- Node24&#45;&gt;Node25 -->
<g id="edge70" class="edge"><title>Node24&#45;&gt;Node25</title>
<path fill="none" stroke="midnightblue" d="M612.904,-174.497C633.8,-165.315 664.356,-151.889 687.655,-141.652"/>
<polygon fill="midnightblue" stroke="midnightblue" points="689.08,-144.848 696.828,-137.621 686.264,-138.44 689.08,-144.848"/>
</g>
<!-- Node26 -->
<g id="node62" class="node"><title>Node26</title>
<a xlink:href="Mutex_8h.htm" target="_top" xlink:title="Mutex.h">
<polygon fill="white" stroke="black" points="535.5,-116.5 535.5,-137.5 588.5,-137.5 588.5,-116.5 535.5,-116.5"/>
<text text-anchor="middle" x="562" y="-124.5" font-family="Helvetica,sans-Serif" font-size="10.00">Mutex.h</text>
</a>
</g>
<!-- Node24&#45;&gt;Node26 -->
<g id="edge72" class="edge"><title>Node24&#45;&gt;Node26</title>
<path fill="none" stroke="midnightblue" d="M584.048,-174.362C580.47,-166.677 575.532,-156.069 571.236,-146.84"/>
<polygon fill="midnightblue" stroke="midnightblue" points="574.314,-145.159 566.921,-137.571 567.968,-148.114 574.314,-145.159"/>
</g>
<!-- Node28 -->
<g id="node71" class="node"><title>Node28</title>
<polygon fill="white" stroke="#bfbfbf" points="463.5,-116.5 463.5,-137.5 518.5,-137.5 518.5,-116.5 463.5,-116.5"/>
<text text-anchor="middle" x="491" y="-124.5" font-family="Helvetica,sans-Serif" font-size="10.00">QObject</text>
</g>
<!-- Node24&#45;&gt;Node28 -->
<g id="edge86" class="edge"><title>Node24&#45;&gt;Node28</title>
<path fill="none" stroke="midnightblue" d="M571.025,-174.362C556.106,-165.532 534.667,-152.844 517.734,-142.822"/>
<polygon fill="midnightblue" stroke="midnightblue" points="519.249,-139.652 508.861,-137.571 515.684,-145.676 519.249,-139.652"/>
</g>
<!-- Node26&#45;&gt;Node5 -->
<g id="edge74" class="edge"><title>Node26&#45;&gt;Node5</title>
<path fill="none" stroke="midnightblue" d="M563.292,-116.295C565.605,-97.1314 570.49,-56.654 573.484,-31.8434"/>
<polygon fill="midnightblue" stroke="midnightblue" points="576.988,-32.0266 574.711,-21.6792 570.038,-31.1878 576.988,-32.0266"/>
</g>
<!-- Node26&#45;&gt;Node8 -->
<g id="edge82" class="edge"><title>Node26&#45;&gt;Node8</title>
<path fill="none" stroke="midnightblue" d="M545.634,-116.397C532.4,-107.456 513.63,-93.9229 499,-80 482.782,-64.565 466.762,-44.6452 455.856,-30.1794"/>
<polygon fill="midnightblue" stroke="midnightblue" points="458.536,-27.917 449.77,-21.966 452.911,-32.0845 458.536,-27.917"/>
</g>
<!-- Node27 -->
<g id="node65" class="node"><title>Node27</title>
<a xlink:href="sptr_8h.htm" target="_top" xlink:title="sptr.h">
<polygon fill="white" stroke="black" points="507.5,-58.5 507.5,-79.5 550.5,-79.5 550.5,-58.5 507.5,-58.5"/>
<text text-anchor="middle" x="529" y="-66.5" font-family="Helvetica,sans-Serif" font-size="10.00">sptr.h</text>
</a>
</g>
<!-- Node26&#45;&gt;Node27 -->
<g id="edge76" class="edge"><title>Node26&#45;&gt;Node27</title>
<path fill="none" stroke="midnightblue" d="M555.947,-116.362C551.528,-108.595 545.41,-97.8426 540.121,-88.5458"/>
<polygon fill="midnightblue" stroke="midnightblue" points="543.002,-86.5315 535.014,-79.5707 536.918,-89.9932 543.002,-86.5315"/>
</g>
<!-- Node27&#45;&gt;Node5 -->
<g id="edge78" class="edge"><title>Node27&#45;&gt;Node5</title>
<path fill="none" stroke="midnightblue" d="M537.621,-58.3619C544.18,-50.2678 553.366,-38.9318 561.106,-29.3796"/>
<polygon fill="midnightblue" stroke="midnightblue" points="563.858,-31.5436 567.434,-21.5707 558.419,-27.1364 563.858,-31.5436"/>
</g>
<!-- Node27&#45;&gt;Node8 -->
<g id="edge80" class="edge"><title>Node27&#45;&gt;Node8</title>
<path fill="none" stroke="midnightblue" d="M513.043,-58.3619C500.043,-49.6955 481.469,-37.3126 466.573,-27.3819"/>
<polygon fill="midnightblue" stroke="midnightblue" points="468.118,-24.2055 457.856,-21.5707 464.235,-30.0299 468.118,-24.2055"/>
</g>
<!-- Node30&#45;&gt;Node5 -->
<g id="edge94" class="edge"><title>Node30&#45;&gt;Node5</title>
<path fill="none" stroke="midnightblue" d="M374.487,-116.295C414.071,-95.6116 501.172,-50.0995 546.806,-26.2543"/>
<polygon fill="midnightblue" stroke="midnightblue" points="548.641,-29.2449 555.883,-21.5117 545.399,-23.0408 548.641,-29.2449"/>
</g>
<!-- Node30&#45;&gt;Node7 -->
<g id="edge100" class="edge"><title>Node30&#45;&gt;Node7</title>
<path fill="none" stroke="midnightblue" d="M312.932,-116.441C291.597,-109.183 266.417,-97.6056 249,-80 235.841,-66.6992 228.016,-46.6818 223.675,-31.6275"/>
<polygon fill="midnightblue" stroke="midnightblue" points="227.002,-30.5114 221.104,-21.7099 220.226,-32.2683 227.002,-30.5114"/>
</g>
<!-- Node30&#45;&gt;Node8 -->
<g id="edge96" class="edge"><title>Node30&#45;&gt;Node8</title>
<path fill="none" stroke="midnightblue" d="M362.121,-116.295C377.052,-96.6135 409.038,-54.4504 427.687,-29.8668"/>
<polygon fill="midnightblue" stroke="midnightblue" points="430.643,-31.7615 433.899,-21.6792 425.066,-27.5308 430.643,-31.7615"/>
</g>
<!-- Node31 -->
<g id="node80" class="node"><title>Node31</title>
<polygon fill="white" stroke="#bfbfbf" points="165.5,-58.5 165.5,-79.5 202.5,-79.5 202.5,-58.5 165.5,-58.5"/>
<text text-anchor="middle" x="184" y="-66.5" font-family="Helvetica,sans-Serif" font-size="10.00">map</text>
</g>
<!-- Node30&#45;&gt;Node31 -->
<g id="edge98" class="edge"><title>Node30&#45;&gt;Node31</title>
<path fill="none" stroke="midnightblue" d="M323.025,-116.478C295.051,-106.97 252.758,-92.5773 216,-80 214.781,-79.5828 213.535,-79.1563 212.277,-78.7252"/>
<polygon fill="midnightblue" stroke="midnightblue" points="213.205,-75.3431 202.61,-75.4072 210.932,-81.964 213.205,-75.3431"/>
</g>
<!-- Node32 -->
<g id="node83" class="node"><title>Node32</title>
<a xlink:href="AnimationEquations_8h.htm" target="_top" xlink:title="AnimationEquations.h">
<polygon fill="white" stroke="black" points="258,-58.5 258,-79.5 376,-79.5 376,-58.5 258,-58.5"/>
<text text-anchor="middle" x="317" y="-66.5" font-family="Helvetica,sans-Serif" font-size="10.00">AnimationEquations.h</text>
</a>
</g>
<!-- Node30&#45;&gt;Node32 -->
<g id="edge102" class="edge"><title>Node30&#45;&gt;Node32</title>
<path fill="none" stroke="midnightblue" d="M347.214,-116.362C342.207,-108.513 335.255,-97.6159 329.282,-88.2527"/>
<polygon fill="midnightblue" stroke="midnightblue" points="332.072,-86.1189 323.743,-79.5707 326.171,-89.8837 332.072,-86.1189"/>
</g>
<!-- Node32&#45;&gt;Node5 -->
<g id="edge104" class="edge"><title>Node32&#45;&gt;Node5</title>
<path fill="none" stroke="midnightblue" d="M363.903,-58.4966C411.844,-47.7609 485.704,-31.2207 532.408,-20.762"/>
<polygon fill="midnightblue" stroke="midnightblue" points="533.235,-24.1635 542.229,-18.5627 531.705,-17.3327 533.235,-24.1635"/>
</g>
<!-- Node33 -->
<g id="node86" class="node"><title>Node33</title>
<polygon fill="white" stroke="#bfbfbf" points="286.5,-0.5 286.5,-21.5 347.5,-21.5 347.5,-0.5 286.5,-0.5"/>
<text text-anchor="middle" x="317" y="-8.5" font-family="Helvetica,sans-Serif" font-size="10.00">PTypes.h</text>
</g>
<!-- Node32&#45;&gt;Node33 -->
<g id="edge106" class="edge"><title>Node32&#45;&gt;Node33</title>
<path fill="none" stroke="midnightblue" d="M317,-58.3619C317,-50.9219 317,-40.7427 317,-31.7276"/>
<polygon fill="midnightblue" stroke="midnightblue" points="320.5,-31.5706 317,-21.5707 313.5,-31.5707 320.5,-31.5706"/>
</g>
</g>
</svg>
