<?xml version="1.0" encoding="UTF-8" standalone="no"?>
<!DOCTYPE svg PUBLIC "-//W3C//DTD SVG 1.1//EN"
 "http://www.w3.org/Graphics/SVG/1.1/DTD/svg11.dtd">
<!-- Generated by graphviz version 2.26.3 (20100126.1600)
 -->
<!-- Title: G Pages: 1 -->
<svg width="630pt" height="146pt"
 viewBox="0.00 0.00 630.00 146.00" xmlns="http://www.w3.org/2000/svg" xmlns:xlink="http://www.w3.org/1999/xlink">
<g id="graph1" class="graph" transform="scale(1 1) rotate(0) translate(4 142)">
<title>G</title>
<polygon fill="white" stroke="white" points="-4,5 -4,-142 627,-142 627,5 -4,5"/>
<!-- Node1 -->
<g id="node1" class="node"><title>Node1</title>
<polygon fill="#bfbfbf" stroke="black" points="329.5,-116.5 329.5,-137.5 400.5,-137.5 400.5,-116.5 329.5,-116.5"/>
<text text-anchor="middle" x="365" y="-124.5" font-family="Helvetica,sans-Serif" font-size="10.00">StatusBar.h</text>
</g>
<!-- Node2 -->
<g id="node3" class="node"><title>Node2</title>
<a xlink:href="Window_8h.htm" target="_top" xlink:title="Window.h">
<polygon fill="white" stroke="black" points="334,-58.5 334,-79.5 396,-79.5 396,-58.5 334,-58.5"/>
<text text-anchor="middle" x="365" y="-66.5" font-family="Helvetica,sans-Serif" font-size="10.00">Window.h</text>
</a>
</g>
<!-- Node1&#45;&gt;Node2 -->
<g id="edge2" class="edge"><title>Node1&#45;&gt;Node2</title>
<path fill="none" stroke="midnightblue" d="M365,-116.362C365,-108.922 365,-98.7427 365,-89.7276"/>
<polygon fill="midnightblue" stroke="midnightblue" points="368.5,-89.5706 365,-79.5707 361.5,-89.5707 368.5,-89.5706"/>
</g>
<!-- Node7 -->
<g id="node13" class="node"><title>Node7</title>
<polygon fill="white" stroke="#bfbfbf" points="524,-0.5 524,-21.5 622,-21.5 622,-0.5 524,-0.5"/>
<text text-anchor="middle" x="573" y="-8.5" font-family="Helvetica,sans-Serif" font-size="10.00">QGraphicsObject</text>
</g>
<!-- Node1&#45;&gt;Node7 -->
<g id="edge18" class="edge"><title>Node1&#45;&gt;Node7</title>
<path fill="none" stroke="midnightblue" d="M374.603,-116.261C388.425,-101.367 415.324,-74.4238 443,-58 458.057,-49.0648 498.179,-35.0474 529.904,-24.6434"/>
<polygon fill="midnightblue" stroke="midnightblue" points="531.017,-27.9621 539.444,-21.5402 528.851,-21.3055 531.017,-27.9621"/>
</g>
<!-- Node9 -->
<g id="node17" class="node"><title>Node9</title>
<polygon fill="white" stroke="#bfbfbf" points="451.5,-58.5 451.5,-79.5 510.5,-79.5 510.5,-58.5 451.5,-58.5"/>
<text text-anchor="middle" x="481" y="-66.5" font-family="Helvetica,sans-Serif" font-size="10.00">QPointer</text>
</g>
<!-- Node1&#45;&gt;Node9 -->
<g id="edge16" class="edge"><title>Node1&#45;&gt;Node9</title>
<path fill="none" stroke="midnightblue" d="M386.007,-116.497C404.043,-107.479 430.27,-94.3649 450.599,-84.2006"/>
<polygon fill="midnightblue" stroke="midnightblue" points="452.379,-87.2239 459.758,-79.6212 449.248,-80.9629 452.379,-87.2239"/>
</g>
<!-- Node10 -->
<g id="node20" class="node"><title>Node10</title>
<a xlink:href="VariantAnimation_8h.htm" target="_top" xlink:title="VariantAnimation.h">
<polygon fill="white" stroke="black" points="82.5,-58.5 82.5,-79.5 187.5,-79.5 187.5,-58.5 82.5,-58.5"/>
<text text-anchor="middle" x="135" y="-66.5" font-family="Helvetica,sans-Serif" font-size="10.00">VariantAnimation.h</text>
</a>
</g>
<!-- Node1&#45;&gt;Node10 -->
<g id="edge20" class="edge"><title>Node1&#45;&gt;Node10</title>
<path fill="none" stroke="midnightblue" d="M329.315,-118.001C291.154,-108.378 230.274,-93.0255 186.831,-82.0704"/>
<polygon fill="midnightblue" stroke="midnightblue" points="187.567,-78.6466 177.015,-79.5951 185.856,-85.4342 187.567,-78.6466"/>
</g>
<!-- Node12 -->
<g id="node25" class="node"><title>Node12</title>
<a xlink:href="CustomEvents_8h.htm" target="_top" xlink:title="CustomEvents.h">
<polygon fill="white" stroke="black" points="205,-58.5 205,-79.5 297,-79.5 297,-58.5 205,-58.5"/>
<text text-anchor="middle" x="251" y="-66.5" font-family="Helvetica,sans-Serif" font-size="10.00">CustomEvents.h</text>
</a>
</g>
<!-- Node1&#45;&gt;Node12 -->
<g id="edge26" class="edge"><title>Node1&#45;&gt;Node12</title>
<path fill="none" stroke="midnightblue" d="M344.355,-116.497C326.63,-107.479 300.855,-94.3649 280.877,-84.2006"/>
<polygon fill="midnightblue" stroke="midnightblue" points="282.376,-81.0364 271.876,-79.6212 279.202,-87.2753 282.376,-81.0364"/>
</g>
<!-- Node3 -->
<g id="node5" class="node"><title>Node3</title>
<a xlink:href="Common_8h.htm" target="_top" xlink:title="Common.h">
<polygon fill="white" stroke="black" points="121.5,-0.5 121.5,-21.5 188.5,-21.5 188.5,-0.5 121.5,-0.5"/>
<text text-anchor="middle" x="155" y="-8.5" font-family="Helvetica,sans-Serif" font-size="10.00">Common.h</text>
</a>
</g>
<!-- Node2&#45;&gt;Node3 -->
<g id="edge4" class="edge"><title>Node2&#45;&gt;Node3</title>
<path fill="none" stroke="midnightblue" d="M333.561,-60.3168C297.697,-50.4117 238.825,-34.1517 198.556,-23.0297"/>
<polygon fill="midnightblue" stroke="midnightblue" points="199.315,-19.6083 188.744,-20.3197 197.451,-26.3557 199.315,-19.6083"/>
</g>
<!-- Node4 -->
<g id="node7" class="node"><title>Node4</title>
<polygon fill="white" stroke="#bfbfbf" points="276,-0.5 276,-21.5 326,-21.5 326,-0.5 276,-0.5"/>
<text text-anchor="middle" x="301" y="-8.5" font-family="Helvetica,sans-Serif" font-size="10.00">stdint.h</text>
</g>
<!-- Node2&#45;&gt;Node4 -->
<g id="edge6" class="edge"><title>Node2&#45;&gt;Node4</title>
<path fill="none" stroke="midnightblue" d="M353.261,-58.3619C344.059,-50.0226 331.06,-38.2418 320.328,-28.5162"/>
<polygon fill="midnightblue" stroke="midnightblue" points="322.424,-25.6924 312.664,-21.5707 317.724,-30.8793 322.424,-25.6924"/>
</g>
<!-- Node5 -->
<g id="node9" class="node"><title>Node5</title>
<polygon fill="white" stroke="#bfbfbf" points="343.5,-0.5 343.5,-21.5 386.5,-21.5 386.5,-0.5 343.5,-0.5"/>
<text text-anchor="middle" x="365" y="-8.5" font-family="Helvetica,sans-Serif" font-size="10.00">string</text>
</g>
<!-- Node2&#45;&gt;Node5 -->
<g id="edge8" class="edge"><title>Node2&#45;&gt;Node5</title>
<path fill="none" stroke="midnightblue" d="M365,-58.3619C365,-50.9219 365,-40.7427 365,-31.7276"/>
<polygon fill="midnightblue" stroke="midnightblue" points="368.5,-31.5706 365,-21.5707 361.5,-31.5707 368.5,-31.5706"/>
</g>
<!-- Node6 -->
<g id="node11" class="node"><title>Node6</title>
<polygon fill="white" stroke="#bfbfbf" points="403.5,-0.5 403.5,-21.5 444.5,-21.5 444.5,-0.5 403.5,-0.5"/>
<text text-anchor="middle" x="424" y="-8.5" font-family="Helvetica,sans-Serif" font-size="10.00">glib.h</text>
</g>
<!-- Node2&#45;&gt;Node6 -->
<g id="edge10" class="edge"><title>Node2&#45;&gt;Node6</title>
<path fill="none" stroke="midnightblue" d="M375.822,-58.3619C384.221,-50.1043 396.054,-38.4725 405.89,-28.8029"/>
<polygon fill="midnightblue" stroke="midnightblue" points="408.569,-31.077 413.247,-21.5707 403.662,-26.0851 408.569,-31.077"/>
</g>
<!-- Node2&#45;&gt;Node7 -->
<g id="edge12" class="edge"><title>Node2&#45;&gt;Node7</title>
<path fill="none" stroke="midnightblue" d="M396.14,-60.3168C430.408,-50.7613 485.886,-35.2915 525.569,-24.226"/>
<polygon fill="midnightblue" stroke="midnightblue" points="526.603,-27.5713 535.295,-21.5139 524.722,-20.8285 526.603,-27.5713"/>
</g>
<!-- Node8 -->
<g id="node15" class="node"><title>Node8</title>
<polygon fill="white" stroke="#bfbfbf" points="461.5,-0.5 461.5,-21.5 506.5,-21.5 506.5,-0.5 461.5,-0.5"/>
<text text-anchor="middle" x="484" y="-8.5" font-family="Helvetica,sans-Serif" font-size="10.00">QSize</text>
</g>
<!-- Node2&#45;&gt;Node8 -->
<g id="edge14" class="edge"><title>Node2&#45;&gt;Node8</title>
<path fill="none" stroke="midnightblue" d="M386.55,-58.4966C405.136,-49.4378 432.202,-36.2462 453.095,-26.0628"/>
<polygon fill="midnightblue" stroke="midnightblue" points="454.753,-29.1487 462.208,-21.6212 451.686,-22.8563 454.753,-29.1487"/>
</g>
<!-- Node10&#45;&gt;Node3 -->
<g id="edge22" class="edge"><title>Node10&#45;&gt;Node3</title>
<path fill="none" stroke="midnightblue" d="M138.668,-58.3619C141.29,-50.7584 144.899,-40.294 148.057,-31.1349"/>
<polygon fill="midnightblue" stroke="midnightblue" points="151.404,-32.1654 151.355,-21.5707 144.786,-29.8834 151.404,-32.1654"/>
</g>
<!-- Node11 -->
<g id="node23" class="node"><title>Node11</title>
<polygon fill="white" stroke="#bfbfbf" points="-0.5,-0.5 -0.5,-21.5 104.5,-21.5 104.5,-0.5 -0.5,-0.5"/>
<text text-anchor="middle" x="52" y="-8.5" font-family="Helvetica,sans-Serif" font-size="10.00">QVariantAnimation</text>
</g>
<!-- Node10&#45;&gt;Node11 -->
<g id="edge24" class="edge"><title>Node10&#45;&gt;Node11</title>
<path fill="none" stroke="midnightblue" d="M119.777,-58.3619C107.375,-49.6955 89.6542,-37.3126 75.443,-27.3819"/>
<polygon fill="midnightblue" stroke="midnightblue" points="77.3288,-24.4297 67.127,-21.5707 73.3191,-30.1676 77.3288,-24.4297"/>
</g>
<!-- Node12&#45;&gt;Node3 -->
<g id="edge28" class="edge"><title>Node12&#45;&gt;Node3</title>
<path fill="none" stroke="midnightblue" d="M233.392,-58.3619C218.777,-49.532 197.776,-36.844 181.189,-26.8224"/>
<polygon fill="midnightblue" stroke="midnightblue" points="182.865,-23.7461 172.496,-21.5707 179.246,-29.7376 182.865,-23.7461"/>
</g>
<!-- Node13 -->
<g id="node28" class="node"><title>Node13</title>
<polygon fill="white" stroke="#bfbfbf" points="206,-0.5 206,-21.5 258,-21.5 258,-0.5 206,-0.5"/>
<text text-anchor="middle" x="232" y="-8.5" font-family="Helvetica,sans-Serif" font-size="10.00">QEvent</text>
</g>
<!-- Node12&#45;&gt;Node13 -->
<g id="edge30" class="edge"><title>Node12&#45;&gt;Node13</title>
<path fill="none" stroke="midnightblue" d="M247.515,-58.3619C245.024,-50.7584 241.596,-40.294 238.596,-31.1349"/>
<polygon fill="midnightblue" stroke="midnightblue" points="241.902,-29.9841 235.463,-21.5707 235.25,-32.1634 241.902,-29.9841"/>
</g>
</g>
</svg>
