<?xml version="1.0" encoding="UTF-8" standalone="no"?>
<!DOCTYPE svg PUBLIC "-//W3C//DTD SVG 1.1//EN"
 "http://www.w3.org/Graphics/SVG/1.1/DTD/svg11.dtd">
<!-- Generated by graphviz version 2.26.3 (20100126.1600)
 -->
<!-- Title: G Pages: 1 -->
<svg width="758pt" height="246pt"
 viewBox="0.00 0.00 758.00 246.00" xmlns="http://www.w3.org/2000/svg" xmlns:xlink="http://www.w3.org/1999/xlink">
<g id="graph1" class="graph" transform="scale(1 1) rotate(0) translate(4 242)">
<title>G</title>
<polygon fill="white" stroke="white" points="-4,5 -4,-242 755,-242 755,5 -4,5"/>
<!-- Node1 -->
<g id="node1" class="node"><title>Node1</title>
<polygon fill="#bfbfbf" stroke="black" points="150,-2.5 150,-23.5 470,-23.5 470,-2.5 150,-2.5"/>
<text text-anchor="middle" x="310" y="-10.5" font-family="Helvetica,sans-Serif" font-size="10.00">Tablet_Keyboard::Tablet_Keyboard::TabletKeymap::LayoutFamily</text>
</g>
<!-- Node1&#45;&gt;Node1 -->
<g id="edge20" class="edge"><title>Node1&#45;&gt;Node1</title>
<path fill="none" stroke="#9a32cd" stroke-dasharray="5,2" d="M480.338,-17.2685C485.235,-16.102 488,-14.6791 488,-13 488,-10.3789 481.262,-8.38237 470.195,-7.01039"/>
<polygon fill="#9a32cd" stroke="#9a32cd" points="479.469,-13.8658 470.195,-18.9896 480.64,-20.7671 479.469,-13.8658"/>
<text text-anchor="middle" x="520.5" y="-17" font-family="Helvetica,sans-Serif" font-size="10.00"> s_firstFamily</text>
<text text-anchor="middle" x="520.5" y="-4" font-family="Helvetica,sans-Serif" font-size="10.00">m_nextFamily</text>
</g>
<!-- Node2 -->
<g id="node2" class="node"><title>Node2</title>
<a xlink:href="structTablet__Keyboard_1_1Tablet__Keyboard_1_1TabletKeymap_1_1Keymap.htm" target="_top" xlink:title="Tablet_Keyboard::Tablet_Keyboard::TabletKeymap::Keymap">
<polygon fill="white" stroke="black" points="162,-90.5 162,-111.5 458,-111.5 458,-90.5 162,-90.5"/>
<text text-anchor="middle" x="310" y="-98.5" font-family="Helvetica,sans-Serif" font-size="10.00">Tablet_Keyboard::Tablet_Keyboard::TabletKeymap::Keymap</text>
</a>
</g>
<!-- Node2&#45;&gt;Node1 -->
<g id="edge2" class="edge"><title>Node2&#45;&gt;Node1</title>
<path fill="none" stroke="#9a32cd" stroke-dasharray="5,2" d="M310,-79.9639C310,-62.2023 310,-37.5043 310,-23.6039"/>
<polygon fill="#9a32cd" stroke="#9a32cd" points="306.5,-80.2094 310,-90.2095 313.5,-80.2095 306.5,-80.2094"/>
<text text-anchor="middle" x="354.5" y="-61" font-family="Helvetica,sans-Serif" font-size="10.00"> m_currentKeymap</text>
<text text-anchor="middle" x="354.5" y="-48" font-family="Helvetica,sans-Serif" font-size="10.00">m_firstKeymap</text>
</g>
<!-- Node2&#45;&gt;Node2 -->
<g id="edge4" class="edge"><title>Node2&#45;&gt;Node2</title>
<path fill="none" stroke="#9a32cd" stroke-dasharray="5,2" d="M468.283,-105.411C473.206,-104.218 476,-102.748 476,-101 476,-98.2715 469.191,-96.2198 458.106,-94.8449"/>
<polygon fill="#9a32cd" stroke="#9a32cd" points="467.371,-102.016 458.106,-107.155 468.554,-108.915 467.371,-102.016"/>
<text text-anchor="middle" x="514" y="-98.5" font-family="Helvetica,sans-Serif" font-size="10.00"> m_nextKeymap</text>
</g>
<!-- Node3 -->
<g id="node5" class="node"><title>Node3</title>
<polygon fill="white" stroke="#bfbfbf" points="345,-216.5 345,-237.5 399,-237.5 399,-216.5 345,-216.5"/>
<text text-anchor="middle" x="372" y="-224.5" font-family="Helvetica,sans-Serif" font-size="10.00">uint16_t</text>
</g>
<!-- Node3&#45;&gt;Node2 -->
<g id="edge6" class="edge"><title>Node3&#45;&gt;Node2</title>
<path fill="none" stroke="#9a32cd" stroke-dasharray="5,2" d="M371.185,-206.362C369.516,-186.01 364.558,-154.736 350,-132 344.694,-123.713 336.374,-116.744 328.694,-111.525"/>
<polygon fill="#9a32cd" stroke="#9a32cd" points="367.696,-206.66 371.813,-216.422 374.683,-206.223 367.696,-206.66"/>
<text text-anchor="middle" x="407.5" y="-169" font-family="Helvetica,sans-Serif" font-size="10.00"> m_primaryID</text>
<text text-anchor="middle" x="407.5" y="-156" font-family="Helvetica,sans-Serif" font-size="10.00">m_secondaryID</text>
</g>
<!-- Node4 -->
<g id="node7" class="node"><title>Node4</title>
<polygon fill="white" stroke="#bfbfbf" points="0,-216.5 0,-237.5 38,-237.5 38,-216.5 0,-216.5"/>
<text text-anchor="middle" x="19" y="-224.5" font-family="Helvetica,sans-Serif" font-size="10.00">char</text>
</g>
<!-- Node4&#45;&gt;Node1 -->
<g id="edge18" class="edge"><title>Node4&#45;&gt;Node1</title>
<path fill="none" stroke="#9a32cd" stroke-dasharray="5,2" d="M12.8521,-206.683C7.95347,-186.369 3.86528,-154.934 17,-132 42.9559,-86.6796 192.155,-42.9974 267.082,-23.5485"/>
<polygon fill="#9a32cd" stroke="#9a32cd" points="9.5001,-207.696 15.4766,-216.444 16.26,-205.878 9.5001,-207.696"/>
<text text-anchor="middle" x="106.5" y="-105" font-family="Helvetica,sans-Serif" font-size="10.00"> m_language</text>
<text text-anchor="middle" x="106.5" y="-92" font-family="Helvetica,sans-Serif" font-size="10.00">m_name</text>
</g>
<!-- Node4&#45;&gt;Node2 -->
<g id="edge8" class="edge"><title>Node4&#45;&gt;Node2</title>
<path fill="none" stroke="#9a32cd" stroke-dasharray="5,2" d="M18.1786,-206.254C18.5385,-184.309 22.8305,-150.371 44,-132 53.854,-123.449 106.208,-116.436 161.897,-111.257"/>
<polygon fill="#9a32cd" stroke="#9a32cd" points="14.6811,-206.526 18.2803,-216.491 21.6807,-206.457 14.6811,-206.526"/>
<text text-anchor="middle" x="104.5" y="-175.5" font-family="Helvetica,sans-Serif" font-size="10.00"> m_noLanguageKeyLabel</text>
<text text-anchor="middle" x="104.5" y="-162.5" font-family="Helvetica,sans-Serif" font-size="10.00">m_symbolKeyLabel</text>
<text text-anchor="middle" x="104.5" y="-149.5" font-family="Helvetica,sans-Serif" font-size="10.00">m_name</text>
</g>
<!-- Node5 -->
<g id="node9" class="node"><title>Node5</title>
<polygon fill="white" stroke="#bfbfbf" points="218,-216.5 218,-237.5 298,-237.5 298,-216.5 218,-216.5"/>
<text text-anchor="middle" x="258" y="-224.5" font-family="Helvetica,sans-Serif" font-size="10.00">LayoutRow &amp;</text>
</g>
<!-- Node5&#45;&gt;Node2 -->
<g id="edge10" class="edge"><title>Node5&#45;&gt;Node2</title>
<path fill="none" stroke="#9a32cd" stroke-dasharray="5,2" d="M249.78,-206.844C242.874,-186.446 236.146,-154.753 250,-132 255.61,-122.787 264.937,-116.192 274.585,-111.523"/>
<polygon fill="#9a32cd" stroke="#9a32cd" points="246.552,-208.207 253.3,-216.375 253.118,-205.782 246.552,-208.207"/>
<text text-anchor="middle" x="300" y="-175.5" font-family="Helvetica,sans-Serif" font-size="10.00"> m_emailBottomRow</text>
<text text-anchor="middle" x="300" y="-162.5" font-family="Helvetica,sans-Serif" font-size="10.00">m_urlBottomRow</text>
<text text-anchor="middle" x="300" y="-149.5" font-family="Helvetica,sans-Serif" font-size="10.00">m_defaultBottomRow</text>
</g>
<!-- Node6 -->
<g id="node11" class="node"><title>Node6</title>
<a xlink:href="classint.htm" target="_top" xlink:title="int">
<polygon fill="white" stroke="black" points="625.5,-216.5 625.5,-237.5 654.5,-237.5 654.5,-216.5 625.5,-216.5"/>
<text text-anchor="middle" x="640" y="-224.5" font-family="Helvetica,sans-Serif" font-size="10.00">int</text>
</a>
</g>
<!-- Node6&#45;&gt;Node1 -->
<g id="edge22" class="edge"><title>Node6&#45;&gt;Node1</title>
<path fill="none" stroke="#9a32cd" stroke-dasharray="5,2" d="M664.419,-218.659C673.838,-214.11 683.622,-207.433 689,-198 703.529,-172.518 706.04,-155.876 689,-132 652.042,-80.2147 471.498,-41.2629 373.53,-23.5443"/>
<polygon fill="#9a32cd" stroke="#9a32cd" points="662.791,-215.547 654.935,-222.657 665.51,-221.998 662.791,-215.547"/>
<text text-anchor="middle" x="709.5" y="-98.5" font-family="Helvetica,sans-Serif" font-size="10.00"> m_numKeymaps</text>
</g>
<!-- Node6&#45;&gt;Node2 -->
<g id="edge12" class="edge"><title>Node6&#45;&gt;Node2</title>
<path fill="none" stroke="#9a32cd" stroke-dasharray="5,2" d="M615.645,-220.392C603.192,-215.901 588.665,-208.775 579,-198 558.258,-174.877 580.146,-151.542 556,-132 546.234,-124.096 494.211,-116.953 440.505,-111.522"/>
<polygon fill="#9a32cd" stroke="#9a32cd" points="614.873,-223.821 625.465,-223.568 617.027,-217.161 614.873,-223.821"/>
<text text-anchor="middle" x="634" y="-188.5" font-family="Helvetica,sans-Serif" font-size="10.00"> m_return_x</text>
<text text-anchor="middle" x="634" y="-175.5" font-family="Helvetica,sans-Serif" font-size="10.00">m_return_y</text>
<text text-anchor="middle" x="634" y="-162.5" font-family="Helvetica,sans-Serif" font-size="10.00">m_cachedGlyphsCount</text>
<text text-anchor="middle" x="634" y="-149.5" font-family="Helvetica,sans-Serif" font-size="10.00">m_symbol_x</text>
<text text-anchor="middle" x="634" y="-136.5" font-family="Helvetica,sans-Serif" font-size="10.00">m_tab_x</text>
</g>
<!-- Node7 -->
<g id="node13" class="node"><title>Node7</title>
<polygon fill="white" stroke="#bfbfbf" points="452,-216.5 452,-237.5 488,-237.5 488,-216.5 452,-216.5"/>
<text text-anchor="middle" x="470" y="-224.5" font-family="Helvetica,sans-Serif" font-size="10.00">bool</text>
</g>
<!-- Node7&#45;&gt;Node2 -->
<g id="edge14" class="edge"><title>Node7&#45;&gt;Node2</title>
<path fill="none" stroke="#9a32cd" stroke-dasharray="5,2" d="M471.15,-206.395C471.165,-184.848 467.637,-151.508 448,-132 439.072,-123.131 415.17,-116.394 389.717,-111.504"/>
<polygon fill="#9a32cd" stroke="#9a32cd" points="467.65,-206.363 470.886,-216.452 474.647,-206.547 467.65,-206.363"/>
<text text-anchor="middle" x="512.5" y="-162.5" font-family="Helvetica,sans-Serif" font-size="10.00"> m_needNumLock</text>
</g>
<!-- Node8 -->
<g id="node15" class="node"><title>Node8</title>
<polygon fill="white" stroke="#bfbfbf" points="141.5,-216.5 141.5,-237.5 200.5,-237.5 200.5,-216.5 141.5,-216.5"/>
<text text-anchor="middle" x="171" y="-224.5" font-family="Helvetica,sans-Serif" font-size="10.00">Layout &amp;</text>
</g>
<!-- Node8&#45;&gt;Node2 -->
<g id="edge16" class="edge"><title>Node8&#45;&gt;Node2</title>
<path fill="none" stroke="#9a32cd" stroke-dasharray="5,2" d="M169.491,-206.229C169.128,-184.816 172.08,-151.838 191,-132 199.067,-123.542 222.005,-116.647 245.616,-111.527"/>
<polygon fill="#9a32cd" stroke="#9a32cd" points="165.995,-206.4 169.916,-216.242 172.989,-206.103 165.995,-206.4"/>
<text text-anchor="middle" x="214" y="-162.5" font-family="Helvetica,sans-Serif" font-size="10.00"> m_layout</text>
</g>
</g>
</svg>
