<?xml version="1.0" encoding="UTF-8" standalone="no"?>
<!DOCTYPE svg PUBLIC "-//W3C//DTD SVG 1.1//EN"
 "http://www.w3.org/Graphics/SVG/1.1/DTD/svg11.dtd">
<!-- Generated by graphviz version 2.26.3 (20100126.1600)
 -->
<!-- Title: G Pages: 1 -->
<svg width="316pt" height="128pt"
 viewBox="0.00 0.00 316.00 128.00" xmlns="http://www.w3.org/2000/svg" xmlns:xlink="http://www.w3.org/1999/xlink">
<g id="graph1" class="graph" transform="scale(1 1) rotate(0) translate(4 124)">
<title>G</title>
<polygon fill="white" stroke="white" points="-4,5 -4,-124 313,-124 313,5 -4,5"/>
<!-- Node1 -->
<g id="node1" class="node"><title>Node1</title>
<polygon fill="#bfbfbf" stroke="black" points="-0.5,-0.5 -0.5,-21.5 208.5,-21.5 208.5,-0.5 -0.5,-0.5"/>
<text text-anchor="middle" x="104" y="-8.5" font-family="Helvetica,sans-Serif" font-size="10.00">SystemService::__ActiveModalDialogInfo</text>
</g>
<!-- Node2 -->
<g id="node2" class="node"><title>Node2</title>
<polygon fill="white" stroke="#bfbfbf" points="18.5,-98.5 18.5,-119.5 61.5,-119.5 61.5,-98.5 18.5,-98.5"/>
<text text-anchor="middle" x="40" y="-106.5" font-family="Helvetica,sans-Serif" font-size="10.00">string</text>
</g>
<!-- Node2&#45;&gt;Node1 -->
<g id="edge2" class="edge"><title>Node2&#45;&gt;Node1</title>
<path fill="none" stroke="#9a32cd" stroke-dasharray="5,2" d="M34.8073,-88.0747C32.4118,-73.4448 31.8348,-54.0828 41,-40 46.3856,-31.7248 54.7848,-25.7755 63.7145,-21.5111"/>
<polygon fill="#9a32cd" stroke="#9a32cd" points="31.4386,-89.0728 36.8624,-98.1741 38.298,-87.677 31.4386,-89.0728"/>
<text text-anchor="middle" x="94" y="-70.5" font-family="Helvetica,sans-Serif" font-size="10.00"> m_returnValueToPost</text>
<text text-anchor="middle" x="94" y="-57.5" font-family="Helvetica,sans-Serif" font-size="10.00">m_activeDialogCaller</text>
<text text-anchor="middle" x="94" y="-44.5" font-family="Helvetica,sans-Serif" font-size="10.00">m_activeDialogApp</text>
</g>
<!-- Node3 -->
<g id="node4" class="node"><title>Node3</title>
<polygon fill="white" stroke="#bfbfbf" points="151,-98.5 151,-119.5 187,-119.5 187,-98.5 151,-98.5"/>
<text text-anchor="middle" x="169" y="-106.5" font-family="Helvetica,sans-Serif" font-size="10.00">bool</text>
</g>
<!-- Node3&#45;&gt;Node1 -->
<g id="edge4" class="edge"><title>Node3&#45;&gt;Node1</title>
<path fill="none" stroke="#9a32cd" stroke-dasharray="5,2" d="M166.06,-88.0927C163.165,-73.4712 157.574,-54.1121 147,-40 141.385,-32.5058 133.235,-26.3145 125.537,-21.6044"/>
<polygon fill="#9a32cd" stroke="#9a32cd" points="162.65,-88.9177 167.785,-98.1848 169.55,-87.738 162.65,-88.9177"/>
<text text-anchor="middle" x="236" y="-70.5" font-family="Helvetica,sans-Serif" font-size="10.00"> m_isModalAppLaunched</text>
<text text-anchor="middle" x="236" y="-57.5" font-family="Helvetica,sans-Serif" font-size="10.00">m_isModalAppBeingLaunched</text>
<text text-anchor="middle" x="236" y="-44.5" font-family="Helvetica,sans-Serif" font-size="10.00">m_isModalAppBeingRemoved</text>
</g>
</g>
</svg>
