<?xml version="1.0" encoding="UTF-8" standalone="no"?>
<!DOCTYPE svg PUBLIC "-//W3C//DTD SVG 1.1//EN"
 "http://www.w3.org/Graphics/SVG/1.1/DTD/svg11.dtd">
<!-- Generated by graphviz version 2.26.3 (20100126.1600)
 -->
<!-- Title: G Pages: 1 -->
<svg width="276pt" height="140pt"
 viewBox="0.00 0.00 276.00 140.00" xmlns="http://www.w3.org/2000/svg" xmlns:xlink="http://www.w3.org/1999/xlink">
<g id="graph1" class="graph" transform="scale(1 1) rotate(0) translate(4 136)">
<title>G</title>
<polygon fill="white" stroke="white" points="-4,5 -4,-136 273,-136 273,5 -4,5"/>
<!-- Node1 -->
<g id="node1" class="node"><title>Node1</title>
<polygon fill="#bfbfbf" stroke="black" points="39.5,-0.5 39.5,-21.5 140.5,-21.5 140.5,-0.5 39.5,-0.5"/>
<text text-anchor="middle" x="90" y="-8.5" font-family="Helvetica,sans-Serif" font-size="10.00">WindowMetaData</text>
</g>
<!-- Node2 -->
<g id="node2" class="node"><title>Node2</title>
<a xlink:href="classint.htm" target="_top" xlink:title="int">
<polygon fill="white" stroke="black" points="-0.5,-110.5 -0.5,-131.5 28.5,-131.5 28.5,-110.5 -0.5,-110.5"/>
<text text-anchor="middle" x="14" y="-118.5" font-family="Helvetica,sans-Serif" font-size="10.00">int</text>
</a>
</g>
<!-- Node2&#45;&gt;Node1 -->
<g id="edge2" class="edge"><title>Node2&#45;&gt;Node1</title>
<path fill="none" stroke="#9a32cd" stroke-dasharray="5,2" d="M8.34965,-100.58C4.74869,-82.9453 2.77496,-57.6002 15,-40 19.6192,-33.3499 35.4514,-26.7721 51.3864,-21.5665"/>
<polygon fill="#9a32cd" stroke="#9a32cd" points="4.97215,-101.506 10.6896,-110.426 11.7824,-99.8875 4.97215,-101.506"/>
<text text-anchor="middle" x="79.5" y="-83" font-family="Helvetica,sans-Serif" font-size="10.00"> transitionBufferKey</text>
<text text-anchor="middle" x="79.5" y="-70" font-family="Helvetica,sans-Serif" font-size="10.00">directRenderingOrientation</text>
<text text-anchor="middle" x="79.5" y="-57" font-family="Helvetica,sans-Serif" font-size="10.00">directRenderingScreenX</text>
<text text-anchor="middle" x="79.5" y="-44" font-family="Helvetica,sans-Serif" font-size="10.00">directRenderingScreenY</text>
</g>
<!-- Node3 -->
<g id="node4" class="node"><title>Node3</title>
<polygon fill="white" stroke="#bfbfbf" points="148,-110.5 148,-131.5 184,-131.5 184,-110.5 148,-110.5"/>
<text text-anchor="middle" x="166" y="-118.5" font-family="Helvetica,sans-Serif" font-size="10.00">bool</text>
</g>
<!-- Node3&#45;&gt;Node1 -->
<g id="edge4" class="edge"><title>Node3&#45;&gt;Node1</title>
<path fill="none" stroke="#9a32cd" stroke-dasharray="5,2" d="M164.868,-100.222C162.93,-82.5295 157.751,-57.3001 144,-40 137.71,-32.0861 128.652,-26.0521 119.746,-21.5927"/>
<polygon fill="#9a32cd" stroke="#9a32cd" points="161.395,-100.69 165.717,-110.363 168.371,-100.106 161.395,-100.69"/>
<text text-anchor="middle" x="215.5" y="-63.5" font-family="Helvetica,sans-Serif" font-size="10.00"> allowDirectRendering</text>
</g>
</g>
</svg>
