<?xml version="1.0" encoding="UTF-8" standalone="no"?>
<!DOCTYPE svg PUBLIC "-//W3C//DTD SVG 1.1//EN"
 "http://www.w3.org/Graphics/SVG/1.1/DTD/svg11.dtd">
<!-- Generated by graphviz version 2.26.3 (20100126.1600)
 -->
<!-- Title: G Pages: 1 -->
<svg width="294pt" height="114pt"
 viewBox="0.00 0.00 294.00 114.00" xmlns="http://www.w3.org/2000/svg" xmlns:xlink="http://www.w3.org/1999/xlink">
<g id="graph1" class="graph" transform="scale(1 1) rotate(0) translate(4 110)">
<title>G</title>
<polygon fill="white" stroke="white" points="-4,5 -4,-110 291,-110 291,5 -4,5"/>
<!-- Node1 -->
<g id="node1" class="node"><title>Node1</title>
<polygon fill="#bfbfbf" stroke="black" points="0,-0.5 0,-21.5 286,-21.5 286,-0.5 0,-0.5"/>
<text text-anchor="middle" x="143" y="-8.5" font-family="Helvetica,sans-Serif" font-size="10.00">Tablet_Keyboard::Tablet_Keyboard::TabletKeymap::WKey</text>
</g>
<!-- Node2 -->
<g id="node2" class="node"><title>Node2</title>
<polygon fill="white" stroke="#bfbfbf" points="51.5,-84.5 51.5,-105.5 86.5,-105.5 86.5,-84.5 51.5,-84.5"/>
<text text-anchor="middle" x="69" y="-92.5" font-family="Helvetica,sans-Serif" font-size="10.00">Key</text>
</g>
<!-- Node2&#45;&gt;Node1 -->
<g id="edge2" class="edge"><title>Node2&#45;&gt;Node1</title>
<path fill="none" stroke="#9a32cd" stroke-dasharray="5,2" d="M75.731,-74.8217C80.1936,-63.6362 86.9127,-50.0094 96,-40 102.703,-32.6172 111.716,-26.4468 120.057,-21.7222"/>
<polygon fill="#9a32cd" stroke="#9a32cd" points="72.4363,-73.6404 72.264,-84.2338 79.0048,-76.06 72.4363,-73.6404"/>
<text text-anchor="middle" x="117.5" y="-57" font-family="Helvetica,sans-Serif" font-size="10.00"> m_key</text>
<text text-anchor="middle" x="117.5" y="-44" font-family="Helvetica,sans-Serif" font-size="10.00">m_altkey</text>
</g>
<!-- Node3 -->
<g id="node4" class="node"><title>Node3</title>
<polygon fill="white" stroke="#bfbfbf" points="103.5,-84.5 103.5,-105.5 182.5,-105.5 182.5,-84.5 103.5,-84.5"/>
<text text-anchor="middle" x="143" y="-92.5" font-family="Helvetica,sans-Serif" font-size="10.00">const UKey *</text>
</g>
<!-- Node3&#45;&gt;Node1 -->
<g id="edge4" class="edge"><title>Node3&#45;&gt;Node1</title>
<path fill="none" stroke="#9a32cd" stroke-dasharray="5,2" d="M143,-73.9452C143,-57.2568 143,-34.6387 143,-21.5523"/>
<polygon fill="#9a32cd" stroke="#9a32cd" points="139.5,-74.3613 143,-84.3613 146.5,-74.3614 139.5,-74.3613"/>
<text text-anchor="middle" x="174" y="-50.5" font-family="Helvetica,sans-Serif" font-size="10.00"> m_extended</text>
</g>
<!-- Node4 -->
<g id="node6" class="node"><title>Node4</title>
<polygon fill="white" stroke="#bfbfbf" points="209.5,-84.5 209.5,-105.5 246.5,-105.5 246.5,-84.5 209.5,-84.5"/>
<text text-anchor="middle" x="228" y="-92.5" font-family="Helvetica,sans-Serif" font-size="10.00">float</text>
</g>
<!-- Node4&#45;&gt;Node1 -->
<g id="edge6" class="edge"><title>Node4&#45;&gt;Node1</title>
<path fill="none" stroke="#9a32cd" stroke-dasharray="5,2" d="M223.749,-74.4732C220.509,-63.1444 215.02,-49.4907 206,-40 198.369,-31.9703 188.086,-25.9666 178.043,-21.5698"/>
<polygon fill="#9a32cd" stroke="#9a32cd" points="220.408,-75.544 226.208,-84.4106 227.203,-73.8627 220.408,-75.544"/>
<text text-anchor="middle" x="244.5" y="-50.5" font-family="Helvetica,sans-Serif" font-size="10.00"> m_weight</text>
</g>
</g>
</svg>
