<?xml version="1.0" encoding="UTF-8" standalone="no"?>
<!DOCTYPE svg PUBLIC "-//W3C//DTD SVG 1.1//EN"
 "http://www.w3.org/Graphics/SVG/1.1/DTD/svg11.dtd">
<!-- Generated by graphviz version 2.26.3 (20100126.1600)
 -->
<!-- Title: G Pages: 1 -->
<svg width="320pt" height="118pt"
 viewBox="0.00 0.00 320.00 118.00" xmlns="http://www.w3.org/2000/svg" xmlns:xlink="http://www.w3.org/1999/xlink">
<g id="graph1" class="graph" transform="scale(1 1) rotate(0) translate(4 114)">
<title>G</title>
<polygon fill="white" stroke="white" points="-4,5 -4,-114 317,-114 317,5 -4,5"/>
<!-- Node1 -->
<g id="node1" class="node"><title>Node1</title>
<polygon fill="#bfbfbf" stroke="black" points="20.5,-2.5 20.5,-23.5 229.5,-23.5 229.5,-2.5 20.5,-2.5"/>
<text text-anchor="middle" x="125" y="-10.5" font-family="Helvetica,sans-Serif" font-size="10.00">Pre_Keyboard::PreKeymap::LayoutFamily</text>
</g>
<!-- Node1&#45;&gt;Node1 -->
<g id="edge4" class="edge"><title>Node1&#45;&gt;Node1</title>
<path fill="none" stroke="#9a32cd" stroke-dasharray="5,2" d="M239.408,-17.9793C244.211,-16.6968 247,-15.037 247,-13 247,-9.82031 240.204,-7.55975 229.559,-6.21832"/>
<polygon fill="#9a32cd" stroke="#9a32cd" points="238.765,-14.5386 229.559,-19.7817 240.025,-21.4243 238.765,-14.5386"/>
<text text-anchor="middle" x="279.5" y="-17" font-family="Helvetica,sans-Serif" font-size="10.00"> s_firstFamily</text>
<text text-anchor="middle" x="279.5" y="-4" font-family="Helvetica,sans-Serif" font-size="10.00">m_nextFamily</text>
</g>
<!-- Node2 -->
<g id="node2" class="node"><title>Node2</title>
<polygon fill="white" stroke="#bfbfbf" points="0,-88.5 0,-109.5 54,-109.5 54,-88.5 0,-88.5"/>
<text text-anchor="middle" x="27" y="-96.5" font-family="Helvetica,sans-Serif" font-size="10.00">uint16_t</text>
</g>
<!-- Node2&#45;&gt;Node1 -->
<g id="edge2" class="edge"><title>Node2&#45;&gt;Node1</title>
<path fill="none" stroke="#9a32cd" stroke-dasharray="5,2" d="M29.8261,-78.3137C32.3484,-66.9329 37.0954,-53.2804 46,-44 54.8746,-34.7509 66.8412,-28.208 78.7733,-23.6002"/>
<polygon fill="#9a32cd" stroke="#9a32cd" points="26.3534,-77.8503 28.0264,-88.3122 33.2426,-79.0905 26.3534,-77.8503"/>
<text text-anchor="middle" x="83.5" y="-61" font-family="Helvetica,sans-Serif" font-size="10.00"> m_primaryID</text>
<text text-anchor="middle" x="83.5" y="-48" font-family="Helvetica,sans-Serif" font-size="10.00">m_secondaryID</text>
</g>
<!-- Node3 -->
<g id="node5" class="node"><title>Node3</title>
<polygon fill="white" stroke="#bfbfbf" points="88,-88.5 88,-109.5 162,-109.5 162,-88.5 88,-88.5"/>
<text text-anchor="middle" x="125" y="-96.5" font-family="Helvetica,sans-Serif" font-size="10.00">const char *</text>
</g>
<!-- Node3&#45;&gt;Node1 -->
<g id="edge6" class="edge"><title>Node3&#45;&gt;Node1</title>
<path fill="none" stroke="#9a32cd" stroke-dasharray="5,2" d="M125,-78.2563C125,-61.0265 125,-37.2148 125,-23.6315"/>
<polygon fill="#9a32cd" stroke="#9a32cd" points="121.5,-78.4547 125,-88.4547 128.5,-78.4547 121.5,-78.4547"/>
<text text-anchor="middle" x="173.5" y="-61" font-family="Helvetica,sans-Serif" font-size="10.00"> m_defaultLanguage</text>
<text text-anchor="middle" x="173.5" y="-48" font-family="Helvetica,sans-Serif" font-size="10.00">m_name</text>
</g>
<!-- Node4 -->
<g id="node7" class="node"><title>Node4</title>
<polygon fill="white" stroke="#bfbfbf" points="217,-88.5 217,-109.5 273,-109.5 273,-88.5 217,-88.5"/>
<text text-anchor="middle" x="245" y="-96.5" font-family="Helvetica,sans-Serif" font-size="10.00">Layout *</text>
</g>
<!-- Node4&#45;&gt;Node1 -->
<g id="edge8" class="edge"><title>Node4&#45;&gt;Node1</title>
<path fill="none" stroke="#9a32cd" stroke-dasharray="5,2" d="M241.185,-78.0319C238.088,-66.5592 232.595,-52.9087 223,-44 215.023,-36.5935 192.392,-29.2058 170.886,-23.5012"/>
<polygon fill="#9a32cd" stroke="#9a32cd" points="237.852,-79.1599 243.477,-88.1383 244.679,-77.6119 237.852,-79.1599"/>
<text text-anchor="middle" x="261" y="-54.5" font-family="Helvetica,sans-Serif" font-size="10.00"> m_layout</text>
</g>
</g>
</svg>
