<?xml version="1.0" encoding="UTF-8" standalone="no"?>
<!DOCTYPE svg PUBLIC "-//W3C//DTD SVG 1.1//EN"
 "http://www.w3.org/Graphics/SVG/1.1/DTD/svg11.dtd">
<!-- Generated by graphviz version 2.26.3 (20100126.1600)
 -->
<!-- Title: G Pages: 1 -->
<svg width="510pt" height="166pt"
 viewBox="0.00 0.00 510.00 166.00" xmlns="http://www.w3.org/2000/svg" xmlns:xlink="http://www.w3.org/1999/xlink">
<g id="graph1" class="graph" transform="scale(1 1) rotate(0) translate(4 162)">
<title>G</title>
<polygon fill="white" stroke="white" points="-4,5 -4,-162 507,-162 507,5 -4,5"/>
<!-- Node1 -->
<g id="node1" class="node"><title>Node1</title>
<polygon fill="#bfbfbf" stroke="black" points="93,-0.5 93,-21.5 309,-21.5 309,-0.5 93,-0.5"/>
<text text-anchor="middle" x="201" y="-8.5" font-family="Helvetica,sans-Serif" font-size="10.00">CardWindow::ModalWindowPlacementInfo</text>
</g>
<!-- Node2 -->
<g id="node2" class="node"><title>Node2</title>
<polygon fill="white" stroke="#bfbfbf" points="0,-136.5 0,-157.5 126,-157.5 126,-136.5 0,-136.5"/>
<text text-anchor="middle" x="63" y="-144.5" font-family="Helvetica,sans-Serif" font-size="10.00">ModalCardResizeState</text>
</g>
<!-- Node2&#45;&gt;Node1 -->
<g id="edge2" class="edge"><title>Node2&#45;&gt;Node1</title>
<path fill="none" stroke="#9a32cd" stroke-dasharray="5,2" d="M60.5118,-126.1C58.8983,-102.127 60.2638,-63.1576 82,-40 89.2764,-32.2478 109.026,-26.1269 130.394,-21.5458"/>
<polygon fill="#9a32cd" stroke="#9a32cd" points="57.0424,-126.597 61.4335,-136.239 64.0137,-125.963 57.0424,-126.597"/>
<text text-anchor="middle" x="139.5" y="-76.5" font-family="Helvetica,sans-Serif" font-size="10.00"> m_ModalCardResizeInf</text>
</g>
<!-- Node3 -->
<g id="node4" class="node"><title>Node3</title>
<a xlink:href="classint.htm" target="_top" xlink:title="int">
<polygon fill="white" stroke="black" points="186.5,-136.5 186.5,-157.5 215.5,-157.5 215.5,-136.5 186.5,-136.5"/>
<text text-anchor="middle" x="201" y="-144.5" font-family="Helvetica,sans-Serif" font-size="10.00">int</text>
</a>
</g>
<!-- Node3&#45;&gt;Node1 -->
<g id="edge4" class="edge"><title>Node3&#45;&gt;Node1</title>
<path fill="none" stroke="#9a32cd" stroke-dasharray="5,2" d="M201,-126.319C201,-96.9201 201,-44.1209 201,-21.6221"/>
<polygon fill="#9a32cd" stroke="#9a32cd" points="197.5,-126.328 201,-136.328 204.5,-126.328 197.5,-126.328"/>
<text text-anchor="middle" x="283" y="-109" font-family="Helvetica,sans-Serif" font-size="10.00"> m_originalY</text>
<text text-anchor="middle" x="283" y="-96" font-family="Helvetica,sans-Serif" font-size="10.00">m_cardMoveDelataUnsigned</text>
<text text-anchor="middle" x="283" y="-83" font-family="Helvetica,sans-Serif" font-size="10.00">m_positiveSpaceThreshold_Below</text>
<text text-anchor="middle" x="283" y="-70" font-family="Helvetica,sans-Serif" font-size="10.00">m_cardMoveDelta</text>
<text text-anchor="middle" x="283" y="-57" font-family="Helvetica,sans-Serif" font-size="10.00">m_positiveSpaceThreshold_Above</text>
<text text-anchor="middle" x="283" y="-44" font-family="Helvetica,sans-Serif" font-size="10.00">m_negativeSpaceConsumed</text>
</g>
<!-- Node4 -->
<g id="node6" class="node"><title>Node4</title>
<polygon fill="white" stroke="#bfbfbf" points="370,-136.5 370,-157.5 406,-157.5 406,-136.5 370,-136.5"/>
<text text-anchor="middle" x="388" y="-144.5" font-family="Helvetica,sans-Serif" font-size="10.00">bool</text>
</g>
<!-- Node4&#45;&gt;Node1 -->
<g id="edge6" class="edge"><title>Node4&#45;&gt;Node1</title>
<path fill="none" stroke="#9a32cd" stroke-dasharray="5,2" d="M390.065,-126.152C391.217,-101.907 389.015,-62.3615 366,-40 356.822,-31.0821 334.456,-24.8686 309.055,-20.5538"/>
<polygon fill="#9a32cd" stroke="#9a32cd" points="386.555,-126.167 389.334,-136.391 393.537,-126.665 386.555,-126.167"/>
<text text-anchor="middle" x="446" y="-83" font-family="Helvetica,sans-Serif" font-size="10.00"> m_IsAnimating</text>
<text text-anchor="middle" x="446" y="-70" font-family="Helvetica,sans-Serif" font-size="10.00">m_centerModalWindow</text>
</g>
</g>
</svg>
