<?xml version="1.0" encoding="UTF-8" standalone="no"?>
<!DOCTYPE svg PUBLIC "-//W3C//DTD SVG 1.1//EN"
 "http://www.w3.org/Graphics/SVG/1.1/DTD/svg11.dtd">
<!-- Generated by graphviz version 2.26.3 (20100126.1600)
 -->
<!-- Title: G Pages: 1 -->
<svg width="225pt" height="114pt"
 viewBox="0.00 0.00 225.00 114.00" xmlns="http://www.w3.org/2000/svg" xmlns:xlink="http://www.w3.org/1999/xlink">
<g id="graph1" class="graph" transform="scale(1 1) rotate(0) translate(4 110)">
<title>G</title>
<polygon fill="white" stroke="white" points="-4,5 -4,-110 222,-110 222,5 -4,5"/>
<!-- Node1 -->
<g id="node1" class="node"><title>Node1</title>
<polygon fill="#bfbfbf" stroke="black" points="3,-0.5 3,-21.5 179,-21.5 179,-0.5 3,-0.5"/>
<text text-anchor="middle" x="91" y="-8.5" font-family="Helvetica,sans-Serif" font-size="10.00">Pre_Keyboard::PreKeymap::WKey</text>
</g>
<!-- Node2 -->
<g id="node2" class="node"><title>Node2</title>
<polygon fill="white" stroke="#bfbfbf" points="-0.5,-84.5 -0.5,-105.5 34.5,-105.5 34.5,-84.5 -0.5,-84.5"/>
<text text-anchor="middle" x="17" y="-92.5" font-family="Helvetica,sans-Serif" font-size="10.00">Key</text>
</g>
<!-- Node2&#45;&gt;Node1 -->
<g id="edge2" class="edge"><title>Node2&#45;&gt;Node1</title>
<path fill="none" stroke="#9a32cd" stroke-dasharray="5,2" d="M23.731,-74.8217C28.1936,-63.6362 34.9127,-50.0094 44,-40 50.7027,-32.6172 59.7163,-26.4468 68.0569,-21.7222"/>
<polygon fill="#9a32cd" stroke="#9a32cd" points="20.4363,-73.6404 20.264,-84.2338 27.0048,-76.06 20.4363,-73.6404"/>
<text text-anchor="middle" x="65.5" y="-57" font-family="Helvetica,sans-Serif" font-size="10.00"> m_key</text>
<text text-anchor="middle" x="65.5" y="-44" font-family="Helvetica,sans-Serif" font-size="10.00">m_altkey</text>
</g>
<!-- Node3 -->
<g id="node4" class="node"><title>Node3</title>
<polygon fill="white" stroke="#bfbfbf" points="51.5,-84.5 51.5,-105.5 130.5,-105.5 130.5,-84.5 51.5,-84.5"/>
<text text-anchor="middle" x="91" y="-92.5" font-family="Helvetica,sans-Serif" font-size="10.00">const UKey *</text>
</g>
<!-- Node3&#45;&gt;Node1 -->
<g id="edge4" class="edge"><title>Node3&#45;&gt;Node1</title>
<path fill="none" stroke="#9a32cd" stroke-dasharray="5,2" d="M91,-73.9452C91,-57.2568 91,-34.6387 91,-21.5523"/>
<polygon fill="#9a32cd" stroke="#9a32cd" points="87.5001,-74.3613 91,-84.3613 94.5001,-74.3614 87.5001,-74.3613"/>
<text text-anchor="middle" x="122" y="-50.5" font-family="Helvetica,sans-Serif" font-size="10.00"> m_extended</text>
</g>
<!-- Node4 -->
<g id="node6" class="node"><title>Node4</title>
<polygon fill="white" stroke="#bfbfbf" points="157.5,-84.5 157.5,-105.5 194.5,-105.5 194.5,-84.5 157.5,-84.5"/>
<text text-anchor="middle" x="176" y="-92.5" font-family="Helvetica,sans-Serif" font-size="10.00">float</text>
</g>
<!-- Node4&#45;&gt;Node1 -->
<g id="edge6" class="edge"><title>Node4&#45;&gt;Node1</title>
<path fill="none" stroke="#9a32cd" stroke-dasharray="5,2" d="M171.749,-74.4732C168.509,-63.1444 163.02,-49.4907 154,-40 146.369,-31.9703 136.086,-25.9666 126.043,-21.5698"/>
<polygon fill="#9a32cd" stroke="#9a32cd" points="168.408,-75.544 174.208,-84.4106 175.203,-73.8627 168.408,-75.544"/>
<text text-anchor="middle" x="192.5" y="-50.5" font-family="Helvetica,sans-Serif" font-size="10.00"> m_weight</text>
</g>
</g>
</svg>
