<?xml version="1.0" encoding="UTF-8" standalone="no"?>
<!DOCTYPE svg PUBLIC "-//W3C//DTD SVG 1.1//EN"
 "http://www.w3.org/Graphics/SVG/1.1/DTD/svg11.dtd">
<!-- Generated by graphviz version 2.26.3 (20100126.1600)
 -->
<!-- Title: G Pages: 1 -->
<svg width="306pt" height="114pt"
 viewBox="0.00 0.00 306.00 114.00" xmlns="http://www.w3.org/2000/svg" xmlns:xlink="http://www.w3.org/1999/xlink">
<g id="graph1" class="graph" transform="scale(1 1) rotate(0) translate(4 110)">
<title>G</title>
<polygon fill="white" stroke="white" points="-4,5 -4,-110 303,-110 303,5 -4,5"/>
<!-- Node1 -->
<g id="node1" class="node"><title>Node1</title>
<polygon fill="#bfbfbf" stroke="black" points="16,-0.5 16,-21.5 218,-21.5 218,-0.5 16,-0.5"/>
<text text-anchor="middle" x="117" y="-8.5" font-family="Helvetica,sans-Serif" font-size="10.00">ApplicationManager::DownloadRequest</text>
</g>
<!-- Node2 -->
<g id="node2" class="node"><title>Node2</title>
<polygon fill="white" stroke="#bfbfbf" points="0,-84.5 0,-105.5 36,-105.5 36,-84.5 0,-84.5"/>
<text text-anchor="middle" x="18" y="-92.5" font-family="Helvetica,sans-Serif" font-size="10.00">bool</text>
</g>
<!-- Node2&#45;&gt;Node1 -->
<g id="edge2" class="edge"><title>Node2&#45;&gt;Node1</title>
<path fill="none" stroke="#9a32cd" stroke-dasharray="5,2" d="M20.7346,-74.2248C23.2271,-62.815 27.9747,-49.1631 37,-40 45.0862,-31.7904 55.6716,-25.8914 66.4826,-21.657"/>
<polygon fill="#9a32cd" stroke="#9a32cd" points="17.2553,-73.8022 18.9699,-84.2573 24.1495,-75.0149 17.2553,-73.8022"/>
<text text-anchor="middle" x="75" y="-50.5" font-family="Helvetica,sans-Serif" font-size="10.00"> m_isSubscribed</text>
</g>
<!-- Node3 -->
<g id="node4" class="node"><title>Node3</title>
<polygon fill="white" stroke="#bfbfbf" points="95.5,-84.5 95.5,-105.5 138.5,-105.5 138.5,-84.5 95.5,-84.5"/>
<text text-anchor="middle" x="117" y="-92.5" font-family="Helvetica,sans-Serif" font-size="10.00">string</text>
</g>
<!-- Node3&#45;&gt;Node1 -->
<g id="edge4" class="edge"><title>Node3&#45;&gt;Node1</title>
<path fill="none" stroke="#9a32cd" stroke-dasharray="5,2" d="M117,-73.9452C117,-57.2568 117,-34.6387 117,-21.5523"/>
<polygon fill="#9a32cd" stroke="#9a32cd" points="113.5,-74.3613 117,-84.3613 120.5,-74.3614 113.5,-74.3613"/>
<text text-anchor="middle" x="178" y="-57" font-family="Helvetica,sans-Serif" font-size="10.00"> m_overrideHandlerAppId</text>
<text text-anchor="middle" x="178" y="-44" font-family="Helvetica,sans-Serif" font-size="10.00">m_mime</text>
</g>
<!-- Node4 -->
<g id="node6" class="node"><title>Node4</title>
<polygon fill="white" stroke="#bfbfbf" points="232.5,-84.5 232.5,-105.5 291.5,-105.5 291.5,-84.5 232.5,-84.5"/>
<text text-anchor="middle" x="262" y="-92.5" font-family="Helvetica,sans-Serif" font-size="10.00">unsigned</text>
</g>
<!-- Node4&#45;&gt;Node1 -->
<g id="edge6" class="edge"><title>Node4&#45;&gt;Node1</title>
<path fill="none" stroke="#9a32cd" stroke-dasharray="5,2" d="M258.631,-74.5268C255.659,-62.8044 250.143,-48.7344 240,-40 231.272,-32.484 209.011,-26.2548 185.788,-21.5213"/>
<polygon fill="#9a32cd" stroke="#9a32cd" points="255.226,-75.3436 260.705,-84.4118 262.077,-73.9062 255.226,-75.3436"/>
<text text-anchor="middle" x="276.5" y="-50.5" font-family="Helvetica,sans-Serif" font-size="10.00"> m_ticket</text>
</g>
</g>
</svg>
