<?xml version="1.0" encoding="UTF-8" standalone="no"?>
<!DOCTYPE svg PUBLIC "-//W3C//DTD SVG 1.1//EN"
 "http://www.w3.org/Graphics/SVG/1.1/DTD/svg11.dtd">
<!-- Generated by graphviz version 2.26.3 (20100126.1600)
 -->
<!-- Title: G Pages: 1 -->
<svg width="866pt" height="507pt"
 viewBox="0.00 0.00 866.00 507.05" xmlns="http://www.w3.org/2000/svg" xmlns:xlink="http://www.w3.org/1999/xlink">
<g id="graph1" class="graph" transform="scale(1 1) rotate(0) translate(4 503.054)">
<title>G</title>
<polygon fill="white" stroke="white" points="-4,5 -4,-503.054 863,-503.054 863,5 -4,5"/>
<!-- Node1 -->
<g id="node1" class="node"><title>Node1</title>
<polygon fill="#bfbfbf" stroke="black" points="646,-229.554 646,-250.554 858,-250.554 858,-229.554 646,-229.554"/>
<text text-anchor="middle" x="752" y="-237.554" font-family="Helvetica,sans-Serif" font-size="10.00">Tablet_Keyboard::TabletKeymap::Keymap</text>
</g>
<!-- Node2 -->
<g id="node2" class="node"><title>Node2</title>
<a xlink:href="structTablet__Keyboard_1_1Tablet__Keyboard_1_1TabletKeymap_1_1Keymap.htm" target="_top" xlink:title="Tablet_Keyboard::Tablet_Keyboard::TabletKeymap::Keymap">
<polygon fill="white" stroke="black" points="238,-229.554 238,-250.554 534,-250.554 534,-229.554 238,-229.554"/>
<text text-anchor="middle" x="386" y="-237.554" font-family="Helvetica,sans-Serif" font-size="10.00">Tablet_Keyboard::Tablet_Keyboard::TabletKeymap::Keymap</text>
</a>
</g>
<!-- Node2&#45;&gt;Node1 -->
<g id="edge2" class="edge"><title>Node2&#45;&gt;Node1</title>
<path fill="none" stroke="#9a32cd" stroke-dasharray="5,2" d="M544.22,-240.054C578.61,-240.054 614.19,-240.054 645.98,-240.054"/>
<polygon fill="#9a32cd" stroke="#9a32cd" points="544.075,-236.554 534.075,-240.054 544.075,-243.554 544.075,-236.554"/>
<text text-anchor="middle" x="590" y="-244.054" font-family="Helvetica,sans-Serif" font-size="10.00"> m_nextKeymap</text>
</g>
<!-- Node2&#45;&gt;Node2 -->
<g id="edge4" class="edge"><title>Node2&#45;&gt;Node2</title>
<path fill="none" stroke="#9a32cd" stroke-dasharray="5,2" d="M347.824,-258.968C348.895,-264.636 361.621,-269.054 386,-269.054 421.461,-269.054 432.265,-259.707 418.414,-250.762"/>
<polygon fill="#9a32cd" stroke="#9a32cd" points="350.704,-260.957 353.586,-250.762 344.975,-256.934 350.704,-260.957"/>
<text text-anchor="middle" x="386" y="-273.054" font-family="Helvetica,sans-Serif" font-size="10.00"> m_nextKeymap</text>
</g>
<!-- Node3 -->
<g id="node5" class="node"><title>Node3</title>
<polygon fill="white" stroke="#bfbfbf" points="13,-273.554 13,-294.554 67,-294.554 67,-273.554 13,-273.554"/>
<text text-anchor="middle" x="40" y="-281.554" font-family="Helvetica,sans-Serif" font-size="10.00">uint16_t</text>
</g>
<!-- Node3&#45;&gt;Node1 -->
<g id="edge18" class="edge"><title>Node3&#45;&gt;Node1</title>
<path fill="none" stroke="#9a32cd" stroke-dasharray="5,2" d="M57.1153,-302.639C64.2438,-310.442 72.5742,-319.642 80,-328.054 88.1354,-337.27 86.8319,-343.918 98,-349.054 147.262,-371.711 167.228,-361.512 220,-349.054 228.705,-346.999 229.493,-342.815 238,-340.054 364.832,-298.887 403.231,-317.145 534,-291.054 595.751,-278.734 666.647,-261.583 710.385,-250.65"/>
<polygon fill="#9a32cd" stroke="#9a32cd" points="59.2889,-299.831 49.9517,-294.824 54.1287,-304.561 59.2889,-299.831"/>
<text text-anchor="middle" x="386" y="-357.054" font-family="Helvetica,sans-Serif" font-size="10.00"> m_primaryID</text>
<text text-anchor="middle" x="386" y="-344.054" font-family="Helvetica,sans-Serif" font-size="10.00">m_secondaryID</text>
</g>
<!-- Node3&#45;&gt;Node2 -->
<g id="edge6" class="edge"><title>Node3&#45;&gt;Node2</title>
<path fill="none" stroke="#9a32cd" stroke-dasharray="5,2" d="M71.5422,-269.534C79.9753,-266.213 89.1966,-263.07 98,-261.054 142.836,-250.785 192.527,-245.179 237.834,-242.213"/>
<polygon fill="#9a32cd" stroke="#9a32cd" points="69.9739,-266.396 62.0768,-273.459 72.6548,-272.862 69.9739,-266.396"/>
<text text-anchor="middle" x="159" y="-278.054" font-family="Helvetica,sans-Serif" font-size="10.00"> m_primaryID</text>
<text text-anchor="middle" x="159" y="-265.054" font-family="Helvetica,sans-Serif" font-size="10.00">m_secondaryID</text>
</g>
<!-- Node4 -->
<g id="node7" class="node"><title>Node4</title>
<polygon fill="white" stroke="#bfbfbf" points="21,-437.554 21,-458.554 59,-458.554 59,-437.554 21,-437.554"/>
<text text-anchor="middle" x="40" y="-445.554" font-family="Helvetica,sans-Serif" font-size="10.00">char</text>
</g>
<!-- Node4&#45;&gt;Node1 -->
<g id="edge20" class="edge"><title>Node4&#45;&gt;Node1</title>
<path fill="none" stroke="#9a32cd" stroke-dasharray="5,2" d="M68.9969,-455.869C78.1987,-457.994 88.4613,-459.998 98,-461.054 151.893,-467.02 165.861,-464.062 220,-461.054 360.204,-453.264 403.19,-477.108 534,-426.054 632.717,-387.526 718.079,-284.348 743.97,-250.773"/>
<polygon fill="#9a32cd" stroke="#9a32cd" points="69.6987,-452.438 59.1536,-453.464 68.037,-459.238 69.6987,-452.438"/>
<text text-anchor="middle" x="386" y="-490.054" font-family="Helvetica,sans-Serif" font-size="10.00"> m_noLanguageKeyLabel</text>
<text text-anchor="middle" x="386" y="-477.054" font-family="Helvetica,sans-Serif" font-size="10.00">m_symbolKeyLabel</text>
<text text-anchor="middle" x="386" y="-464.054" font-family="Helvetica,sans-Serif" font-size="10.00">m_name</text>
</g>
<!-- Node4&#45;&gt;Node2 -->
<g id="edge8" class="edge"><title>Node4&#45;&gt;Node2</title>
<path fill="none" stroke="#9a32cd" stroke-dasharray="5,2" d="M68.3154,-435.14C77.731,-430.905 88.2904,-426.219 98,-422.054 151.854,-398.955 181.347,-416.098 220,-372.054 240.622,-348.557 217.605,-327.748 238,-304.054 262.289,-275.836 301.287,-259.664 333.155,-250.638"/>
<polygon fill="#9a32cd" stroke="#9a32cd" points="66.6723,-432.042 59.0011,-439.349 69.5551,-438.421 66.6723,-432.042"/>
<text text-anchor="middle" x="159" y="-452.054" font-family="Helvetica,sans-Serif" font-size="10.00"> m_noLanguageKeyLabel</text>
<text text-anchor="middle" x="159" y="-439.054" font-family="Helvetica,sans-Serif" font-size="10.00">m_symbolKeyLabel</text>
<text text-anchor="middle" x="159" y="-426.054" font-family="Helvetica,sans-Serif" font-size="10.00">m_name</text>
</g>
<!-- Node5 -->
<g id="node9" class="node"><title>Node5</title>
<polygon fill="white" stroke="#bfbfbf" points="0,-337.554 0,-358.554 80,-358.554 80,-337.554 0,-337.554"/>
<text text-anchor="middle" x="40" y="-345.554" font-family="Helvetica,sans-Serif" font-size="10.00">LayoutRow &amp;</text>
</g>
<!-- Node5&#45;&gt;Node1 -->
<g id="edge22" class="edge"><title>Node5&#45;&gt;Node1</title>
<path fill="none" stroke="#9a32cd" stroke-dasharray="5,2" d="M72.9147,-362.201C80.9727,-365.038 89.6761,-367.594 98,-369.054 174.084,-382.404 424.817,-395.897 534,-366.054 620.021,-342.542 707.378,-276.491 739.318,-250.628"/>
<polygon fill="#9a32cd" stroke="#9a32cd" points="74.0669,-358.895 63.4748,-358.656 71.606,-365.449 74.0669,-358.895"/>
<text text-anchor="middle" x="386" y="-413.054" font-family="Helvetica,sans-Serif" font-size="10.00"> m_emailBottomRow</text>
<text text-anchor="middle" x="386" y="-400.054" font-family="Helvetica,sans-Serif" font-size="10.00">m_urlBottomRow</text>
<text text-anchor="middle" x="386" y="-387.054" font-family="Helvetica,sans-Serif" font-size="10.00">m_defaultBottomRow</text>
</g>
<!-- Node5&#45;&gt;Node2 -->
<g id="edge10" class="edge"><title>Node5&#45;&gt;Node2</title>
<path fill="none" stroke="#9a32cd" stroke-dasharray="5,2" d="M83.6301,-334.435C153.563,-312.607 289.275,-270.246 352.312,-250.569"/>
<polygon fill="#9a32cd" stroke="#9a32cd" points="82.3088,-331.181 73.8059,-337.502 84.3946,-337.863 82.3088,-331.181"/>
<text text-anchor="middle" x="159" y="-359.054" font-family="Helvetica,sans-Serif" font-size="10.00"> m_emailBottomRow</text>
<text text-anchor="middle" x="159" y="-346.054" font-family="Helvetica,sans-Serif" font-size="10.00">m_urlBottomRow</text>
<text text-anchor="middle" x="159" y="-333.054" font-family="Helvetica,sans-Serif" font-size="10.00">m_defaultBottomRow</text>
</g>
<!-- Node6 -->
<g id="node11" class="node"><title>Node6</title>
<a xlink:href="classint.htm" target="_top" xlink:title="int">
<polygon fill="white" stroke="black" points="25.5,-142.554 25.5,-163.554 54.5,-163.554 54.5,-142.554 25.5,-142.554"/>
<text text-anchor="middle" x="40" y="-150.554" font-family="Helvetica,sans-Serif" font-size="10.00">int</text>
</a>
</g>
<!-- Node6&#45;&gt;Node1 -->
<g id="edge24" class="edge"><title>Node6&#45;&gt;Node1</title>
<path fill="none" stroke="#9a32cd" stroke-dasharray="5,2" d="M64.7659,-149.971C137.573,-141.584 356.928,-121.17 534,-155.054 610.605,-169.713 694.928,-210.196 732.301,-229.521"/>
<polygon fill="#9a32cd" stroke="#9a32cd" points="64.2564,-146.507 54.7375,-151.158 65.0797,-153.458 64.2564,-146.507"/>
<text text-anchor="middle" x="386" y="-211.054" font-family="Helvetica,sans-Serif" font-size="10.00"> m_return_x</text>
<text text-anchor="middle" x="386" y="-198.054" font-family="Helvetica,sans-Serif" font-size="10.00">m_return_y</text>
<text text-anchor="middle" x="386" y="-185.054" font-family="Helvetica,sans-Serif" font-size="10.00">m_cachedGlyphsCount</text>
<text text-anchor="middle" x="386" y="-172.054" font-family="Helvetica,sans-Serif" font-size="10.00">m_symbol_x</text>
<text text-anchor="middle" x="386" y="-159.054" font-family="Helvetica,sans-Serif" font-size="10.00">m_tab_x</text>
</g>
<!-- Node6&#45;&gt;Node2 -->
<g id="edge12" class="edge"><title>Node6&#45;&gt;Node2</title>
<path fill="none" stroke="#9a32cd" stroke-dasharray="5,2" d="M64.8292,-153.157C108.162,-153.786 195.337,-157.18 220,-174.054 234.111,-183.709 224.372,-197.728 238,-208.054 250.781,-217.739 265.874,-224.625 281.452,-229.496"/>
<polygon fill="#9a32cd" stroke="#9a32cd" points="64.6162,-149.655 54.5798,-153.049 64.5422,-156.654 64.6162,-149.655"/>
<text text-anchor="middle" x="159" y="-230.054" font-family="Helvetica,sans-Serif" font-size="10.00"> m_return_x</text>
<text text-anchor="middle" x="159" y="-217.054" font-family="Helvetica,sans-Serif" font-size="10.00">m_return_y</text>
<text text-anchor="middle" x="159" y="-204.054" font-family="Helvetica,sans-Serif" font-size="10.00">m_cachedGlyphsCount</text>
<text text-anchor="middle" x="159" y="-191.054" font-family="Helvetica,sans-Serif" font-size="10.00">m_symbol_x</text>
<text text-anchor="middle" x="159" y="-178.054" font-family="Helvetica,sans-Serif" font-size="10.00">m_tab_x</text>
</g>
<!-- Node7 -->
<g id="node13" class="node"><title>Node7</title>
<polygon fill="white" stroke="#bfbfbf" points="22,-13.5541 22,-34.5541 58,-34.5541 58,-13.5541 22,-13.5541"/>
<text text-anchor="middle" x="40" y="-21.5541" font-family="Helvetica,sans-Serif" font-size="10.00">bool</text>
</g>
<!-- Node7&#45;&gt;Node1 -->
<g id="edge26" class="edge"><title>Node7&#45;&gt;Node1</title>
<path fill="none" stroke="#9a32cd" stroke-dasharray="5,2" d="M68.3327,-18.6933C146.028,-5.28978 367.732,24.1952 534,-40.0541 637.005,-79.8573 720.757,-193.871 744.942,-229.37"/>
<polygon fill="#9a32cd" stroke="#9a32cd" points="67.5801,-15.2721 58.346,-20.4664 68.8039,-22.1643 67.5801,-15.2721"/>
<text text-anchor="middle" x="386" y="-44.0541" font-family="Helvetica,sans-Serif" font-size="10.00"> m_needNumLock</text>
</g>
<!-- Node7&#45;&gt;Node2 -->
<g id="edge14" class="edge"><title>Node7&#45;&gt;Node2</title>
<path fill="none" stroke="#9a32cd" stroke-dasharray="5,2" d="M68.38,-23.7241C108.699,-24.9233 181.886,-33.5734 220,-78.0541 257.953,-122.347 198.338,-165.285 238,-208.054 246.669,-217.403 257.366,-224.358 269.011,-229.49"/>
<polygon fill="#9a32cd" stroke="#9a32cd" points="68.2263,-20.2213 58.1714,-23.5603 68.1139,-27.2204 68.2263,-20.2213"/>
<text text-anchor="middle" x="159" y="-82.0541" font-family="Helvetica,sans-Serif" font-size="10.00"> m_needNumLock</text>
</g>
<!-- Node8 -->
<g id="node15" class="node"><title>Node8</title>
<polygon fill="white" stroke="#bfbfbf" points="10.5,-86.5541 10.5,-107.554 69.5,-107.554 69.5,-86.5541 10.5,-86.5541"/>
<text text-anchor="middle" x="40" y="-94.5541" font-family="Helvetica,sans-Serif" font-size="10.00">Layout &amp;</text>
</g>
<!-- Node8&#45;&gt;Node1 -->
<g id="edge28" class="edge"><title>Node8&#45;&gt;Node1</title>
<path fill="none" stroke="#9a32cd" stroke-dasharray="5,2" d="M58.5631,-79.4305C69.2115,-70.5548 83.3483,-60.7098 98,-56.0541 149.676,-39.6335 166.043,-50.6947 220,-56.0541 361.64,-70.123 397.281,-79.4618 534,-119.054 576.971,-131.498 588.388,-134.263 628,-155.054 670.985,-177.615 716.966,-212.263 738.898,-229.524"/>
<polygon fill="#9a32cd" stroke="#9a32cd" points="56.0325,-76.9948 50.828,-86.2232 60.6515,-82.2546 56.0325,-76.9948"/>
<text text-anchor="middle" x="386" y="-123.054" font-family="Helvetica,sans-Serif" font-size="10.00"> m_layout</text>
</g>
<!-- Node8&#45;&gt;Node2 -->
<g id="edge16" class="edge"><title>Node8&#45;&gt;Node2</title>
<path fill="none" stroke="#9a32cd" stroke-dasharray="5,2" d="M79.6581,-94.6627C120.312,-94.479 182.706,-100.849 220,-137.054 243.357,-159.73 214.578,-185.446 238,-208.054 247.741,-217.457 259.552,-224.371 272.206,-229.418"/>
<polygon fill="#9a32cd" stroke="#9a32cd" points="79.502,-91.1649 69.5667,-94.8443 79.628,-98.1637 79.502,-91.1649"/>
<text text-anchor="middle" x="159" y="-141.054" font-family="Helvetica,sans-Serif" font-size="10.00"> m_layout</text>
</g>
</g>
</svg>
