<?xml version="1.0" encoding="UTF-8" standalone="no"?>
<!DOCTYPE svg PUBLIC "-//W3C//DTD SVG 1.1//EN"
 "http://www.w3.org/Graphics/SVG/1.1/DTD/svg11.dtd">
<!-- Generated by graphviz version 2.26.3 (20100126.1600)
 -->
<!-- Title: G Pages: 1 -->
<svg width="125pt" height="140pt"
 viewBox="0.00 0.00 125.00 140.00" xmlns="http://www.w3.org/2000/svg" xmlns:xlink="http://www.w3.org/1999/xlink">
<g id="graph1" class="graph" transform="scale(1 1) rotate(0) translate(4 136)">
<title>G</title>
<polygon fill="white" stroke="white" points="-4,5 -4,-136 122,-136 122,5 -4,5"/>
<!-- Node1 -->
<g id="node1" class="node"><title>Node1</title>
<polygon fill="#bfbfbf" stroke="black" points="-0.5,-0.5 -0.5,-21.5 88.5,-21.5 88.5,-0.5 -0.5,-0.5"/>
<text text-anchor="middle" x="44" y="-8.5" font-family="Helvetica,sans-Serif" font-size="10.00">NineTileCorner</text>
</g>
<!-- Node2 -->
<g id="node2" class="node"><title>Node2</title>
<polygon fill="white" stroke="#bfbfbf" points="23.5,-110.5 23.5,-131.5 64.5,-131.5 64.5,-110.5 23.5,-110.5"/>
<text text-anchor="middle" x="44" y="-118.5" font-family="Helvetica,sans-Serif" font-size="10.00">qreal</text>
</g>
<!-- Node2&#45;&gt;Node1 -->
<g id="edge2" class="edge"><title>Node2&#45;&gt;Node1</title>
<path fill="none" stroke="#9a32cd" stroke-dasharray="5,2" d="M44,-100.22C44,-76.8464 44,-39.7904 44,-21.677"/>
<polygon fill="#9a32cd" stroke="#9a32cd" points="40.5001,-100.453 44,-110.453 47.5001,-100.453 40.5001,-100.453"/>
<text text-anchor="middle" x="80.5" y="-83" font-family="Helvetica,sans-Serif" font-size="10.00"> m_trimV</text>
<text text-anchor="middle" x="80.5" y="-70" font-family="Helvetica,sans-Serif" font-size="10.00">m_cornerSizeH</text>
<text text-anchor="middle" x="80.5" y="-57" font-family="Helvetica,sans-Serif" font-size="10.00">m_trimH</text>
<text text-anchor="middle" x="80.5" y="-44" font-family="Helvetica,sans-Serif" font-size="10.00">m_cornerSizeV</text>
</g>
</g>
</svg>
