<?xml version="1.0" encoding="UTF-8" standalone="no"?>
<!DOCTYPE svg PUBLIC "-//W3C//DTD SVG 1.1//EN"
 "http://www.w3.org/Graphics/SVG/1.1/DTD/svg11.dtd">
<!-- Generated by graphviz version 2.26.3 (20100126.1600)
 -->
<!-- Title: G Pages: 1 -->
<svg width="5646pt" height="204pt"
 viewBox="0.00 0.00 5646.00 204.00" xmlns="http://www.w3.org/2000/svg" xmlns:xlink="http://www.w3.org/1999/xlink">
<g id="graph1" class="graph" transform="scale(1 1) rotate(0) translate(4 200)">
<title>G</title>
<polygon fill="white" stroke="white" points="-4,5 -4,-200 5643,-200 5643,5 -4,5"/>
<!-- Node1 -->
<g id="node1" class="node"><title>Node1</title>
<polygon fill="#bfbfbf" stroke="black" points="2030.5,-174.5 2030.5,-195.5 2131.5,-195.5 2131.5,-174.5 2030.5,-174.5"/>
<text text-anchor="middle" x="2081" y="-182.5" font-family="Helvetica,sans-Serif" font-size="10.00">SuspendBlocker.h</text>
</g>
<!-- Node2 -->
<g id="node3" class="node"><title>Node2</title>
<a xlink:href="SystemUiController_8h.htm" target="_top" xlink:title="SystemUiController.h">
<polygon fill="white" stroke="red" points="1957,-116.5 1957,-137.5 2073,-137.5 2073,-116.5 1957,-116.5"/>
<text text-anchor="middle" x="2015" y="-124.5" font-family="Helvetica,sans-Serif" font-size="10.00">SystemUiController.h</text>
</a>
</g>
<!-- Node1&#45;&gt;Node2 -->
<g id="edge2" class="edge"><title>Node1&#45;&gt;Node2</title>
<path fill="none" stroke="midnightblue" d="M2061.3,-167.691C2050.16,-157.9 2036.59,-145.973 2027.03,-137.571"/>
<polygon fill="midnightblue" stroke="midnightblue" points="2059.07,-170.39 2068.89,-174.362 2063.69,-165.132 2059.07,-170.39"/>
</g>
<!-- Node50 -->
<g id="node119" class="node"><title>Node50</title>
<a xlink:href="SuspendBlocker_8cpp.htm" target="_top" xlink:title="SuspendBlocker.cpp">
<polygon fill="white" stroke="black" points="2090.5,-116.5 2090.5,-137.5 2203.5,-137.5 2203.5,-116.5 2090.5,-116.5"/>
<text text-anchor="middle" x="2147" y="-124.5" font-family="Helvetica,sans-Serif" font-size="10.00">SuspendBlocker.cpp</text>
</a>
</g>
<!-- Node1&#45;&gt;Node50 -->
<g id="edge138" class="edge"><title>Node1&#45;&gt;Node50</title>
<path fill="none" stroke="midnightblue" d="M2100.7,-167.691C2111.84,-157.9 2125.41,-145.973 2134.97,-137.571"/>
<polygon fill="midnightblue" stroke="midnightblue" points="2098.31,-165.132 2093.11,-174.362 2102.93,-170.39 2098.31,-165.132"/>
</g>
<!-- Node3 -->
<g id="node5" class="node"><title>Node3</title>
<a xlink:href="AppDirectRenderingArbitrator_8cpp.htm" target="_top" xlink:title="AppDirectRenderingArbitrator.cpp">
<polygon fill="white" stroke="black" points="232,-58.5 232,-79.5 408,-79.5 408,-58.5 232,-58.5"/>
<text text-anchor="middle" x="320" y="-66.5" font-family="Helvetica,sans-Serif" font-size="10.00">AppDirectRenderingArbitrator.cpp</text>
</a>
</g>
<!-- Node2&#45;&gt;Node3 -->
<g id="edge4" class="edge"><title>Node2&#45;&gt;Node3</title>
<path fill="none" stroke="midnightblue" d="M1946.48,-125.748C1681.18,-120.784 721.275,-101.689 417,-80 414.126,-79.7951 411.206,-79.569 408.259,-79.3253"/>
<polygon fill="midnightblue" stroke="midnightblue" points="1946.67,-129.252 1956.73,-125.94 1946.8,-122.254 1946.67,-129.252"/>
</g>
<!-- Node4 -->
<g id="node7" class="node"><title>Node4</title>
<a xlink:href="ApplicationManager_8cpp.htm" target="_top" xlink:title="ApplicationManager.cpp">
<polygon fill="white" stroke="black" points="425.5,-58.5 425.5,-79.5 556.5,-79.5 556.5,-58.5 425.5,-58.5"/>
<text text-anchor="middle" x="491" y="-66.5" font-family="Helvetica,sans-Serif" font-size="10.00">ApplicationManager.cpp</text>
</a>
</g>
<!-- Node2&#45;&gt;Node4 -->
<g id="edge6" class="edge"><title>Node2&#45;&gt;Node4</title>
<path fill="none" stroke="midnightblue" d="M1946.51,-125.735C1697.76,-120.992 842.431,-103.331 570,-80 565.723,-79.6337 561.323,-79.1948 556.893,-78.7063"/>
<polygon fill="midnightblue" stroke="midnightblue" points="1946.79,-129.241 1956.85,-125.932 1946.92,-122.242 1946.79,-129.241"/>
</g>
<!-- Node5 -->
<g id="node9" class="node"><title>Node5</title>
<a xlink:href="CoreNaviManager_8h.htm" target="_top" xlink:title="CoreNaviManager.h">
<polygon fill="white" stroke="red" points="726,-58.5 726,-79.5 838,-79.5 838,-58.5 726,-58.5"/>
<text text-anchor="middle" x="782" y="-66.5" font-family="Helvetica,sans-Serif" font-size="10.00">CoreNaviManager.h</text>
</a>
</g>
<!-- Node2&#45;&gt;Node5 -->
<g id="edge8" class="edge"><title>Node2&#45;&gt;Node5</title>
<path fill="none" stroke="midnightblue" d="M1946.8,-125.175C1731.93,-119.276 1070.62,-99.9446 857,-80 850.842,-79.425 844.416,-78.6904 838.03,-77.8741"/>
<polygon fill="midnightblue" stroke="midnightblue" points="1946.9,-128.679 1956.99,-125.454 1947.09,-121.681 1946.9,-128.679"/>
</g>
<!-- Node6 -->
<g id="node11" class="node"><title>Node6</title>
<a xlink:href="DisplayManager_8cpp.htm" target="_top" xlink:title="DisplayManager.cpp">
<polygon fill="white" stroke="black" points="-0.5,-0.5 -0.5,-21.5 112.5,-21.5 112.5,-0.5 -0.5,-0.5"/>
<text text-anchor="middle" x="56" y="-8.5" font-family="Helvetica,sans-Serif" font-size="10.00">DisplayManager.cpp</text>
</a>
</g>
<!-- Node2&#45;&gt;Node6 -->
<g id="edge28" class="edge"><title>Node2&#45;&gt;Node6</title>
<path fill="none" stroke="midnightblue" d="M1946.54,-125.772C1672.03,-120.715 662.753,-100.784 598,-80 581.216,-74.613 581.65,-63.7862 565,-58 377.989,6.9878 317.454,-46.5405 121,-22 118.274,-21.6595 115.488,-21.2862 112.678,-20.8892"/>
<polygon fill="midnightblue" stroke="midnightblue" points="1946.69,-129.276 1956.76,-125.96 1946.82,-122.277 1946.69,-129.276"/>
</g>
<!-- Node7 -->
<g id="node13" class="node"><title>Node7</title>
<a xlink:href="DisplayStates_8cpp.htm" target="_top" xlink:title="DisplayStates.cpp">
<polygon fill="white" stroke="black" points="129.5,-0.5 129.5,-21.5 230.5,-21.5 230.5,-0.5 129.5,-0.5"/>
<text text-anchor="middle" x="180" y="-8.5" font-family="Helvetica,sans-Serif" font-size="10.00">DisplayStates.cpp</text>
</a>
</g>
<!-- Node2&#45;&gt;Node7 -->
<g id="edge30" class="edge"><title>Node2&#45;&gt;Node7</title>
<path fill="none" stroke="midnightblue" d="M1946.84,-126.619C1686.39,-124.897 762.392,-116.267 636,-80 617.242,-74.6175 616.571,-63.9973 598,-58 445.404,-8.72028 397.739,-44.7154 239,-22 236.318,-21.6162 233.573,-21.197 230.804,-20.7534"/>
<polygon fill="midnightblue" stroke="midnightblue" points="1946.89,-130.119 1956.92,-126.684 1946.94,-123.119 1946.89,-130.119"/>
</g>
<!-- Node8 -->
<g id="node15" class="node"><title>Node8</title>
<a xlink:href="SystemUiController_8cpp.htm" target="_top" xlink:title="SystemUiController.cpp">
<polygon fill="white" stroke="black" points="713.5,-0.5 713.5,-21.5 840.5,-21.5 840.5,-0.5 713.5,-0.5"/>
<text text-anchor="middle" x="777" y="-8.5" font-family="Helvetica,sans-Serif" font-size="10.00">SystemUiController.cpp</text>
</a>
</g>
<!-- Node2&#45;&gt;Node8 -->
<g id="edge62" class="edge"><title>Node2&#45;&gt;Node8</title>
<path fill="none" stroke="midnightblue" d="M1946.81,-126.022C1750.54,-122.858 1186.75,-111.233 1005,-80 930.411,-67.1821 845.953,-37.4307 803.85,-21.5054"/>
<polygon fill="midnightblue" stroke="midnightblue" points="1946.93,-129.524 1956.98,-126.183 1947.04,-122.525 1946.93,-129.524"/>
</g>
<!-- Node9 -->
<g id="node17" class="node"><title>Node9</title>
<a xlink:href="WindowServer_8cpp.htm" target="_top" xlink:title="WindowServer.cpp">
<polygon fill="white" stroke="black" points="247.5,-0.5 247.5,-21.5 352.5,-21.5 352.5,-0.5 247.5,-0.5"/>
<text text-anchor="middle" x="300" y="-8.5" font-family="Helvetica,sans-Serif" font-size="10.00">WindowServer.cpp</text>
</a>
</g>
<!-- Node2&#45;&gt;Node9 -->
<g id="edge64" class="edge"><title>Node2&#45;&gt;Node9</title>
<path fill="none" stroke="midnightblue" d="M1946.62,-126.546C1690.53,-124.579 796.559,-115.231 674,-80 655.244,-74.6085 654.478,-64.2772 636,-58 519.286,-18.3505 482.801,-40.9432 361,-22 358.235,-21.57 355.403,-21.1139 352.545,-20.6414"/>
<polygon fill="midnightblue" stroke="midnightblue" points="1946.87,-130.048 1956.9,-126.623 1946.92,-123.048 1946.87,-130.048"/>
</g>
<!-- Node10 -->
<g id="node19" class="node"><title>Node10</title>
<a xlink:href="LockWindow_8cpp.htm" target="_top" xlink:title="LockWindow.cpp">
<polygon fill="white" stroke="black" points="858,-0.5 858,-21.5 954,-21.5 954,-0.5 858,-0.5"/>
<text text-anchor="middle" x="906" y="-8.5" font-family="Helvetica,sans-Serif" font-size="10.00">LockWindow.cpp</text>
</a>
</g>
<!-- Node2&#45;&gt;Node10 -->
<g id="edge100" class="edge"><title>Node2&#45;&gt;Node10</title>
<path fill="none" stroke="midnightblue" d="M1946.67,-126.539C1759.59,-124.806 1241.99,-116.734 1076,-80 1019.09,-67.4052 956.672,-37.5579 925.703,-21.5598"/>
<polygon fill="midnightblue" stroke="midnightblue" points="1946.89,-130.041 1956.92,-126.631 1946.95,-123.041 1946.89,-130.041"/>
</g>
<!-- Node11 -->
<g id="node21" class="node"><title>Node11</title>
<a xlink:href="DashboardWindowManager_8cpp.htm" target="_top" xlink:title="DashboardWindowManager.cpp">
<polygon fill="white" stroke="black" points="370,-0.5 370,-21.5 538,-21.5 538,-0.5 370,-0.5"/>
<text text-anchor="middle" x="454" y="-8.5" font-family="Helvetica,sans-Serif" font-size="10.00">DashboardWindowManager.cpp</text>
</a>
</g>
<!-- Node2&#45;&gt;Node11 -->
<g id="edge110" class="edge"><title>Node2&#45;&gt;Node11</title>
<path fill="none" stroke="midnightblue" d="M1946.76,-126.26C1696.31,-123.309 836.125,-110.996 717,-80 696.225,-74.5943 694.226,-65.1932 674,-58 626.07,-40.9542 569.962,-29.0871 526.405,-21.5416"/>
<polygon fill="midnightblue" stroke="midnightblue" points="1946.78,-129.761 1956.82,-126.378 1946.86,-122.761 1946.78,-129.761"/>
</g>
<!-- Node12 -->
<g id="node23" class="node"><title>Node12</title>
<a xlink:href="WindowServerLuna_8cpp.htm" target="_top" xlink:title="WindowServerLuna.cpp">
<polygon fill="white" stroke="black" points="972,-0.5 972,-21.5 1100,-21.5 1100,-0.5 972,-0.5"/>
<text text-anchor="middle" x="1036" y="-8.5" font-family="Helvetica,sans-Serif" font-size="10.00">WindowServerLuna.cpp</text>
</a>
</g>
<!-- Node2&#45;&gt;Node12 -->
<g id="edge128" class="edge"><title>Node2&#45;&gt;Node12</title>
<path fill="none" stroke="midnightblue" d="M1946.75,-126.083C1749.56,-123.065 1188.26,-111.755 1112,-80 1081.89,-67.463 1055.99,-37.5909 1043.67,-21.5739"/>
<polygon fill="midnightblue" stroke="midnightblue" points="1946.92,-129.586 1956.98,-126.237 1947.03,-122.586 1946.92,-129.586"/>
</g>
<!-- Node13 -->
<g id="node25" class="node"><title>Node13</title>
<a xlink:href="WindowServerMinimal_8cpp.htm" target="_top" xlink:title="WindowServerMinimal.cpp">
<polygon fill="white" stroke="black" points="555.5,-0.5 555.5,-21.5 696.5,-21.5 696.5,-0.5 555.5,-0.5"/>
<text text-anchor="middle" x="626" y="-8.5" font-family="Helvetica,sans-Serif" font-size="10.00">WindowServerMinimal.cpp</text>
</a>
</g>
<!-- Node2&#45;&gt;Node13 -->
<g id="edge132" class="edge"><title>Node2&#45;&gt;Node13</title>
<path fill="none" stroke="midnightblue" d="M1946.65,-126.618C1738.07,-125.055 1111.88,-117.296 912,-80 882.019,-74.4057 876.41,-66.0748 847,-58 792.53,-43.045 729.413,-30.0432 684.612,-21.5292"/>
<polygon fill="midnightblue" stroke="midnightblue" points="1946.82,-130.12 1956.85,-126.692 1946.87,-123.12 1946.82,-130.12"/>
</g>
<!-- Node14 -->
<g id="node27" class="node"><title>Node14</title>
<a xlink:href="WebAppMgrProxy_8cpp.htm" target="_top" xlink:title="WebAppMgrProxy.cpp">
<polygon fill="white" stroke="black" points="1118,-0.5 1118,-21.5 1240,-21.5 1240,-0.5 1118,-0.5"/>
<text text-anchor="middle" x="1179" y="-8.5" font-family="Helvetica,sans-Serif" font-size="10.00">WebAppMgrProxy.cpp</text>
</a>
</g>
<!-- Node2&#45;&gt;Node14 -->
<g id="edge136" class="edge"><title>Node2&#45;&gt;Node14</title>
<path fill="none" stroke="midnightblue" d="M1946.48,-125.945C1742.13,-122.466 1149.31,-109.835 1121,-80 1102.26,-60.2469 1135.79,-35.4694 1159.19,-21.623"/>
<polygon fill="midnightblue" stroke="midnightblue" points="1946.72,-129.449 1956.78,-126.118 1946.84,-122.45 1946.72,-129.449"/>
</g>
<!-- Node15 -->
<g id="node31" class="node"><title>Node15</title>
<a xlink:href="HostArm_8cpp.htm" target="_top" xlink:title="HostArm.cpp">
<polygon fill="white" stroke="black" points="1431.5,-58.5 1431.5,-79.5 1508.5,-79.5 1508.5,-58.5 1431.5,-58.5"/>
<text text-anchor="middle" x="1470" y="-66.5" font-family="Helvetica,sans-Serif" font-size="10.00">HostArm.cpp</text>
</a>
</g>
<!-- Node2&#45;&gt;Node15 -->
<g id="edge32" class="edge"><title>Node2&#45;&gt;Node15</title>
<path fill="none" stroke="midnightblue" d="M1946.6,-123.492C1850.26,-117.883 1669.36,-104.901 1517,-80 1514.27,-79.5539 1511.46,-79.0401 1508.65,-78.4834"/>
<polygon fill="midnightblue" stroke="midnightblue" points="1946.6,-126.997 1956.78,-124.075 1947,-120.009 1946.6,-126.997"/>
</g>
<!-- Node16 -->
<g id="node33" class="node"><title>Node16</title>
<a xlink:href="HostWindow_8cpp.htm" target="_top" xlink:title="HostWindow.cpp">
<polygon fill="white" stroke="black" points="1525.5,-58.5 1525.5,-79.5 1620.5,-79.5 1620.5,-58.5 1525.5,-58.5"/>
<text text-anchor="middle" x="1573" y="-66.5" font-family="Helvetica,sans-Serif" font-size="10.00">HostWindow.cpp</text>
</a>
</g>
<!-- Node2&#45;&gt;Node16 -->
<g id="edge34" class="edge"><title>Node2&#45;&gt;Node16</title>
<path fill="none" stroke="midnightblue" d="M1946.85,-120.219C1869.56,-112.176 1739.87,-97.6143 1629,-80 1626.26,-79.5647 1623.45,-79.093 1620.62,-78.5981"/>
<polygon fill="midnightblue" stroke="midnightblue" points="1946.63,-123.715 1956.94,-121.262 1947.36,-116.752 1946.63,-123.715"/>
</g>
<!-- Node17 -->
<g id="node35" class="node"><title>Node17</title>
<a xlink:href="ProgressAnimation_8cpp.htm" target="_top" xlink:title="ProgressAnimation.cpp">
<polygon fill="white" stroke="black" points="1637.5,-58.5 1637.5,-79.5 1762.5,-79.5 1762.5,-58.5 1637.5,-58.5"/>
<text text-anchor="middle" x="1700" y="-66.5" font-family="Helvetica,sans-Serif" font-size="10.00">ProgressAnimation.cpp</text>
</a>
</g>
<!-- Node2&#45;&gt;Node17 -->
<g id="edge36" class="edge"><title>Node2&#45;&gt;Node17</title>
<path fill="none" stroke="midnightblue" d="M1948.01,-114.665C1891.29,-104.222 1810.87,-89.415 1757.15,-79.5231"/>
<polygon fill="midnightblue" stroke="midnightblue" points="1947.49,-118.128 1957.96,-116.497 1948.76,-111.244 1947.49,-118.128"/>
</g>
<!-- Node18 -->
<g id="node37" class="node"><title>Node18</title>
<a xlink:href="SystemService_8cpp.htm" target="_top" xlink:title="SystemService.cpp">
<polygon fill="white" stroke="black" points="1258,-0.5 1258,-21.5 1364,-21.5 1364,-0.5 1258,-0.5"/>
<text text-anchor="middle" x="1311" y="-8.5" font-family="Helvetica,sans-Serif" font-size="10.00">SystemService.cpp</text>
</a>
</g>
<!-- Node2&#45;&gt;Node18 -->
<g id="edge38" class="edge"><title>Node2&#45;&gt;Node18</title>
<path fill="none" stroke="midnightblue" d="M1946.74,-125.915C1743.89,-122.362 1157.03,-109.558 1129,-80 1122.27,-72.9053 1123.01,-65.7301 1129,-58 1137.04,-47.6156 1206.95,-31.7033 1257.73,-21.3233"/>
<polygon fill="midnightblue" stroke="midnightblue" points="1946.91,-129.419 1956.97,-126.092 1947.03,-122.42 1946.91,-129.419"/>
</g>
<!-- Node19 -->
<g id="node39" class="node"><title>Node19</title>
<a xlink:href="CardWindow_8h.htm" target="_top" xlink:title="CardWindow.h">
<polygon fill="white" stroke="red" points="1138,-58.5 1138,-79.5 1224,-79.5 1224,-58.5 1138,-58.5"/>
<text text-anchor="middle" x="1181" y="-66.5" font-family="Helvetica,sans-Serif" font-size="10.00">CardWindow.h</text>
</a>
</g>
<!-- Node2&#45;&gt;Node19 -->
<g id="edge40" class="edge"><title>Node2&#45;&gt;Node19</title>
<path fill="none" stroke="midnightblue" d="M1946.52,-125.85C1810.82,-122.91 1498.37,-112.856 1238,-80 1233.5,-79.4322 1228.82,-78.7241 1224.17,-77.9426"/>
<polygon fill="midnightblue" stroke="midnightblue" points="1946.69,-129.354 1956.76,-126.065 1946.84,-122.355 1946.69,-129.354"/>
</g>
<!-- Node20 -->
<g id="node43" class="node"><title>Node20</title>
<a xlink:href="CardWindow_8cpp.htm" target="_top" xlink:title="CardWindow.cpp">
<polygon fill="white" stroke="black" points="1381.5,-0.5 1381.5,-21.5 1478.5,-21.5 1478.5,-0.5 1381.5,-0.5"/>
<text text-anchor="middle" x="1430" y="-8.5" font-family="Helvetica,sans-Serif" font-size="10.00">CardWindow.cpp</text>
</a>
</g>
<!-- Node2&#45;&gt;Node20 -->
<g id="edge74" class="edge"><title>Node2&#45;&gt;Node20</title>
<path fill="none" stroke="midnightblue" d="M1946.54,-124.55C1783.19,-118.373 1382.67,-101.138 1363,-80 1343.44,-58.9749 1380.41,-35.0545 1406.77,-21.6205"/>
<polygon fill="midnightblue" stroke="midnightblue" points="1946.83,-128.063 1956.95,-124.941 1947.09,-121.068 1946.83,-128.063"/>
</g>
<!-- Node21 -->
<g id="node45" class="node"><title>Node21</title>
<a xlink:href="CardWindowManager_8cpp.htm" target="_top" xlink:title="CardWindowManager.cpp">
<polygon fill="white" stroke="black" points="1496,-0.5 1496,-21.5 1636,-21.5 1636,-0.5 1496,-0.5"/>
<text text-anchor="middle" x="1566" y="-8.5" font-family="Helvetica,sans-Serif" font-size="10.00">CardWindowManager.cpp</text>
</a>
</g>
<!-- Node2&#45;&gt;Node21 -->
<g id="edge76" class="edge"><title>Node2&#45;&gt;Node21</title>
<path fill="none" stroke="midnightblue" d="M1946.5,-124.485C1784.6,-118.208 1390.38,-100.85 1371,-80 1364.34,-72.8389 1364.95,-65.6814 1371,-58 1379.54,-47.1597 1452.25,-31.726 1506.4,-21.5423"/>
<polygon fill="midnightblue" stroke="midnightblue" points="1946.7,-127.995 1956.83,-124.882 1946.97,-121 1946.7,-127.995"/>
</g>
<!-- Node22 -->
<g id="node47" class="node"><title>Node22</title>
<a xlink:href="CardWindowManagerStates_8cpp.htm" target="_top" xlink:title="CardWindowManagerStates.cpp">
<polygon fill="white" stroke="black" points="1654,-0.5 1654,-21.5 1824,-21.5 1824,-0.5 1654,-0.5"/>
<text text-anchor="middle" x="1739" y="-8.5" font-family="Helvetica,sans-Serif" font-size="10.00">CardWindowManagerStates.cpp</text>
</a>
</g>
<!-- Node2&#45;&gt;Node22 -->
<g id="edge78" class="edge"><title>Node2&#45;&gt;Node22</title>
<path fill="none" stroke="midnightblue" d="M1946.78,-124.43C1786.53,-118.063 1398.11,-100.577 1379,-80 1372.35,-72.8358 1372.55,-65.3478 1379,-58 1381.27,-55.4134 1548.19,-34.4577 1653.91,-21.4163"/>
<polygon fill="midnightblue" stroke="midnightblue" points="1946.86,-127.936 1956.99,-124.833 1947.14,-120.942 1946.86,-127.936"/>
</g>
<!-- Node23 -->
<g id="node49" class="node"><title>Node23</title>
<a xlink:href="EmergencyWindowManager_8cpp.htm" target="_top" xlink:title="EmergencyWindowManager.cpp">
<polygon fill="white" stroke="black" points="1842,-0.5 1842,-21.5 2012,-21.5 2012,-0.5 1842,-0.5"/>
<text text-anchor="middle" x="1927" y="-8.5" font-family="Helvetica,sans-Serif" font-size="10.00">EmergencyWindowManager.cpp</text>
</a>
</g>
<!-- Node2&#45;&gt;Node23 -->
<g id="edge90" class="edge"><title>Node2&#45;&gt;Node23</title>
<path fill="none" stroke="midnightblue" d="M1946.81,-124.339C1788.63,-117.836 1408.73,-100.186 1390,-80 1322.48,-7.2105 1734.2,-31.7923 1833,-22 1835.94,-21.7083 1838.94,-21.4032 1841.96,-21.0881"/>
<polygon fill="midnightblue" stroke="midnightblue" points="1946.77,-127.84 1956.9,-124.751 1947.05,-120.846 1946.77,-127.84"/>
</g>
<!-- Node24 -->
<g id="node53" class="node"><title>Node24</title>
<a xlink:href="WindowManagerMinimal_8cpp.htm" target="_top" xlink:title="WindowManagerMinimal.cpp">
<polygon fill="white" stroke="black" points="2030,-0.5 2030,-21.5 2182,-21.5 2182,-0.5 2030,-0.5"/>
<text text-anchor="middle" x="2106" y="-8.5" font-family="Helvetica,sans-Serif" font-size="10.00">WindowManagerMinimal.cpp</text>
</a>
</g>
<!-- Node2&#45;&gt;Node24 -->
<g id="edge130" class="edge"><title>Node2&#45;&gt;Node24</title>
<path fill="none" stroke="midnightblue" d="M1946.66,-124.034C1794.66,-117.107 1440.56,-99.0055 1423,-80 1416.37,-72.8177 1416.3,-65.1186 1423,-58 1468.63,-9.53804 1954.73,-28.2752 2021,-22 2023.81,-21.7335 2026.68,-21.4459 2029.57,-21.1419"/>
<polygon fill="midnightblue" stroke="midnightblue" points="1946.66,-127.538 1956.81,-124.494 1946.98,-120.545 1946.66,-127.538"/>
</g>
<!-- Node25 -->
<g id="node58" class="node"><title>Node25</title>
<a xlink:href="InputWindowManager_8cpp.htm" target="_top" xlink:title="InputWindowManager.cpp">
<polygon fill="white" stroke="black" points="1780,-58.5 1780,-79.5 1920,-79.5 1920,-58.5 1780,-58.5"/>
<text text-anchor="middle" x="1850" y="-66.5" font-family="Helvetica,sans-Serif" font-size="10.00">InputWindowManager.cpp</text>
</a>
</g>
<!-- Node2&#45;&gt;Node25 -->
<g id="edge66" class="edge"><title>Node2&#45;&gt;Node25</title>
<path fill="none" stroke="midnightblue" d="M1975.58,-113.144C1946.22,-102.823 1906.74,-88.9439 1879.94,-79.5231"/>
<polygon fill="midnightblue" stroke="midnightblue" points="1974.52,-116.482 1985.12,-116.497 1976.85,-109.878 1974.52,-116.482"/>
</g>
<!-- Node26 -->
<g id="node60" class="node"><title>Node26</title>
<a xlink:href="SysmgrIMEDataInterface_8cpp.htm" target="_top" xlink:title="SysmgrIMEDataInterface.cpp">
<polygon fill="white" stroke="black" points="1937.5,-58.5 1937.5,-79.5 2092.5,-79.5 2092.5,-58.5 1937.5,-58.5"/>
<text text-anchor="middle" x="2015" y="-66.5" font-family="Helvetica,sans-Serif" font-size="10.00">SysmgrIMEDataInterface.cpp</text>
</a>
</g>
<!-- Node2&#45;&gt;Node26 -->
<g id="edge68" class="edge"><title>Node2&#45;&gt;Node26</title>
<path fill="none" stroke="midnightblue" d="M2015,-106.191C2015,-97.1684 2015,-86.9941 2015,-79.5707"/>
<polygon fill="midnightblue" stroke="midnightblue" points="2011.5,-106.362 2015,-116.362 2018.5,-106.362 2011.5,-106.362"/>
</g>
<!-- Node27 -->
<g id="node62" class="node"><title>Node27</title>
<a xlink:href="VirtualKeyboardPreferences_8cpp.htm" target="_top" xlink:title="VirtualKeyboardPreferences.cpp">
<polygon fill="white" stroke="black" points="2110,-58.5 2110,-79.5 2278,-79.5 2278,-58.5 2110,-58.5"/>
<text text-anchor="middle" x="2194" y="-66.5" font-family="Helvetica,sans-Serif" font-size="10.00">VirtualKeyboardPreferences.cpp</text>
</a>
</g>
<!-- Node2&#45;&gt;Node27 -->
<g id="edge70" class="edge"><title>Node2&#45;&gt;Node27</title>
<path fill="none" stroke="midnightblue" d="M2056.93,-113.413C2088.87,-103.065 2132.2,-89.0258 2161.52,-79.5231"/>
<polygon fill="midnightblue" stroke="midnightblue" points="2055.85,-110.085 2047.42,-116.497 2058.01,-116.744 2055.85,-110.085"/>
</g>
<!-- Node28 -->
<g id="node64" class="node"><title>Node28</title>
<a xlink:href="CardHostWindow_8cpp.htm" target="_top" xlink:title="CardHostWindow.cpp">
<polygon fill="white" stroke="black" points="2295.5,-58.5 2295.5,-79.5 2414.5,-79.5 2414.5,-58.5 2295.5,-58.5"/>
<text text-anchor="middle" x="2355" y="-66.5" font-family="Helvetica,sans-Serif" font-size="10.00">CardHostWindow.cpp</text>
</a>
</g>
<!-- Node2&#45;&gt;Node28 -->
<g id="edge72" class="edge"><title>Node2&#45;&gt;Node28</title>
<path fill="none" stroke="midnightblue" d="M2083.16,-115.372C2145.3,-104.773 2236.18,-89.2686 2295.46,-79.1561"/>
<polygon fill="midnightblue" stroke="midnightblue" points="2082.33,-111.964 2073.06,-117.095 2083.51,-118.864 2082.33,-111.964"/>
</g>
<!-- Node29 -->
<g id="node69" class="node"><title>Node29</title>
<a xlink:href="EmulatedCardWindow_8cpp.htm" target="_top" xlink:title="EmulatedCardWindow.cpp">
<polygon fill="white" stroke="black" points="2432,-58.5 2432,-79.5 2572,-79.5 2572,-58.5 2432,-58.5"/>
<text text-anchor="middle" x="2502" y="-66.5" font-family="Helvetica,sans-Serif" font-size="10.00">EmulatedCardWindow.cpp</text>
</a>
</g>
<!-- Node2&#45;&gt;Node29 -->
<g id="edge80" class="edge"><title>Node2&#45;&gt;Node29</title>
<path fill="none" stroke="midnightblue" d="M2083.22,-115.896C2234.75,-95.7598 2274.98,-98.1134 2423,-80 2425.89,-79.6468 2428.83,-79.2775 2431.8,-78.8971"/>
<polygon fill="midnightblue" stroke="midnightblue" points="2082.52,-112.458 2073.07,-117.256 2083.45,-119.396 2082.52,-112.458"/>
</g>
<!-- Node30 -->
<g id="node71" class="node"><title>Node30</title>
<a xlink:href="DockModeAppMenuContainer_8cpp.htm" target="_top" xlink:title="DockModeAppMenuContainer.cpp">
<polygon fill="white" stroke="black" points="2589.5,-58.5 2589.5,-79.5 2768.5,-79.5 2768.5,-58.5 2589.5,-58.5"/>
<text text-anchor="middle" x="2679" y="-66.5" font-family="Helvetica,sans-Serif" font-size="10.00">DockModeAppMenuContainer.cpp</text>
</a>
</g>
<!-- Node2&#45;&gt;Node30 -->
<g id="edge82" class="edge"><title>Node2&#45;&gt;Node30</title>
<path fill="none" stroke="midnightblue" d="M2083.05,-115.967C2304.52,-90.2608 2362.83,-100.106 2581,-80 2583.73,-79.7486 2586.5,-79.4857 2589.29,-79.2136"/>
<polygon fill="midnightblue" stroke="midnightblue" points="2082.58,-112.497 2073.06,-117.137 2083.4,-119.449 2082.58,-112.497"/>
</g>
<!-- Node31 -->
<g id="node73" class="node"><title>Node31</title>
<a xlink:href="DockModeMenuManager_8cpp.htm" target="_top" xlink:title="DockModeMenuManager.cpp">
<polygon fill="white" stroke="black" points="2786,-58.5 2786,-79.5 2942,-79.5 2942,-58.5 2786,-58.5"/>
<text text-anchor="middle" x="2864" y="-66.5" font-family="Helvetica,sans-Serif" font-size="10.00">DockModeMenuManager.cpp</text>
</a>
</g>
<!-- Node2&#45;&gt;Node31 -->
<g id="edge84" class="edge"><title>Node2&#45;&gt;Node31</title>
<path fill="none" stroke="midnightblue" d="M2083.17,-115.984C2391.26,-83.4148 2472.22,-107.123 2777,-80 2779.88,-79.7436 2782.81,-79.4646 2785.77,-79.1679"/>
<polygon fill="midnightblue" stroke="midnightblue" points="2082.62,-112.522 2073.05,-117.065 2083.37,-119.482 2082.62,-112.522"/>
</g>
<!-- Node32 -->
<g id="node75" class="node"><title>Node32</title>
<a xlink:href="DockModeWindow_8cpp.htm" target="_top" xlink:title="DockModeWindow.cpp">
<polygon fill="white" stroke="black" points="2959.5,-58.5 2959.5,-79.5 3084.5,-79.5 3084.5,-58.5 2959.5,-58.5"/>
<text text-anchor="middle" x="3022" y="-66.5" font-family="Helvetica,sans-Serif" font-size="10.00">DockModeWindow.cpp</text>
</a>
</g>
<!-- Node2&#45;&gt;Node32 -->
<g id="edge86" class="edge"><title>Node2&#45;&gt;Node32</title>
<path fill="none" stroke="midnightblue" d="M2083.07,-116.009C2468.27,-77.3103 2569.57,-117.329 2951,-80 2953.73,-79.7327 2956.52,-79.4301 2959.33,-79.1003"/>
<polygon fill="midnightblue" stroke="midnightblue" points="2082.64,-112.535 2073.05,-117.028 2083.35,-119.499 2082.64,-112.535"/>
</g>
<!-- Node33 -->
<g id="node77" class="node"><title>Node33</title>
<a xlink:href="DockModeWindowManager_8cpp.htm" target="_top" xlink:title="DockModeWindowManager.cpp">
<polygon fill="white" stroke="black" points="3101.5,-58.5 3101.5,-79.5 3268.5,-79.5 3268.5,-58.5 3101.5,-58.5"/>
<text text-anchor="middle" x="3185" y="-66.5" font-family="Helvetica,sans-Serif" font-size="10.00">DockModeWindowManager.cpp</text>
</a>
</g>
<!-- Node2&#45;&gt;Node33 -->
<g id="edge88" class="edge"><title>Node2&#45;&gt;Node33</title>
<path fill="none" stroke="midnightblue" d="M2083.02,-116.021C2531.12,-72.1178 2648.01,-114.465 3093,-80 3095.73,-79.7888 3098.5,-79.5572 3101.29,-79.3088"/>
<polygon fill="midnightblue" stroke="midnightblue" points="2082.65,-112.54 2073.04,-117.007 2083.34,-119.506 2082.65,-112.54"/>
</g>
<!-- Node34 -->
<g id="node80" class="node"><title>Node34</title>
<a xlink:href="FullEraseConfirmationWindow_8cpp.htm" target="_top" xlink:title="FullEraseConfirmationWindow.cpp">
<polygon fill="white" stroke="black" points="3285.5,-58.5 3285.5,-79.5 3462.5,-79.5 3462.5,-58.5 3285.5,-58.5"/>
<text text-anchor="middle" x="3374" y="-66.5" font-family="Helvetica,sans-Serif" font-size="10.00">FullEraseConfirmationWindow.cpp</text>
</a>
</g>
<!-- Node2&#45;&gt;Node34 -->
<g id="edge92" class="edge"><title>Node2&#45;&gt;Node34</title>
<path fill="none" stroke="midnightblue" d="M2083.24,-116.007C2612.63,-65.5161 2750.37,-117.728 3277,-80 3279.79,-79.8002 3282.62,-79.5804 3285.48,-79.3441"/>
<polygon fill="midnightblue" stroke="midnightblue" points="2082.66,-112.546 2073.04,-116.987 2083.33,-119.514 2082.66,-112.546"/>
</g>
<!-- Node35 -->
<g id="node82" class="node"><title>Node35</title>
<a xlink:href="OverlayWindowManager__p_8h.htm" target="_top" xlink:title="OverlayWindowManager_p.h">
<polygon fill="white" stroke="black" points="3480,-58.5 3480,-79.5 3634,-79.5 3634,-58.5 3480,-58.5"/>
<text text-anchor="middle" x="3557" y="-66.5" font-family="Helvetica,sans-Serif" font-size="10.00">OverlayWindowManager_p.h</text>
</a>
</g>
<!-- Node2&#45;&gt;Node35 -->
<g id="edge94" class="edge"><title>Node2&#45;&gt;Node35</title>
<path fill="none" stroke="midnightblue" d="M2083.05,-116.03C2698.51,-58.5821 2858.58,-126.982 3471,-80 3473.85,-79.7812 3476.75,-79.5344 3479.68,-79.2648"/>
<polygon fill="midnightblue" stroke="midnightblue" points="2082.67,-112.551 2073.04,-116.972 2083.33,-119.52 2082.67,-112.551"/>
</g>
<!-- Node36 -->
<g id="node84" class="node"><title>Node36</title>
<a xlink:href="OverlayWindowManager_8cpp.htm" target="_top" xlink:title="OverlayWindowManager.cpp">
<polygon fill="white" stroke="black" points="3532.5,-0.5 3532.5,-21.5 3685.5,-21.5 3685.5,-0.5 3532.5,-0.5"/>
<text text-anchor="middle" x="3609" y="-8.5" font-family="Helvetica,sans-Serif" font-size="10.00">OverlayWindowManager.cpp</text>
</a>
</g>
<!-- Node2&#45;&gt;Node36 -->
<g id="edge98" class="edge"><title>Node2&#45;&gt;Node36</title>
<path fill="none" stroke="midnightblue" d="M2083.3,-116.464C2225.17,-111.876 3613.72,-109.96 3643,-80 3659.61,-62.9987 3636.69,-36.2811 3621.17,-21.5784"/>
<polygon fill="midnightblue" stroke="midnightblue" points="2082.86,-112.981 2073.04,-116.962 2083.2,-119.973 2082.86,-112.981"/>
</g>
<!-- Node37 -->
<g id="node88" class="node"><title>Node37</title>
<a xlink:href="TopLevelWindowManager_8cpp.htm" target="_top" xlink:title="TopLevelWindowManager.cpp">
<polygon fill="white" stroke="black" points="3689.5,-58.5 3689.5,-79.5 3850.5,-79.5 3850.5,-58.5 3689.5,-58.5"/>
<text text-anchor="middle" x="3770" y="-66.5" font-family="Helvetica,sans-Serif" font-size="10.00">TopLevelWindowManager.cpp</text>
</a>
</g>
<!-- Node2&#45;&gt;Node37 -->
<g id="edge102" class="edge"><title>Node2&#45;&gt;Node37</title>
<path fill="none" stroke="midnightblue" d="M2083.21,-116.02C2789.33,-51.1842 2972.45,-129.001 3676,-80 3680.34,-79.6975 3684.8,-79.3397 3689.29,-78.9414"/>
<polygon fill="midnightblue" stroke="midnightblue" points="2082.68,-112.554 2073.04,-116.96 2083.32,-119.525 2082.68,-112.554"/>
</g>
<!-- Node38 -->
<g id="node90" class="node"><title>Node38</title>
<a xlink:href="BannerMessageHandler_8cpp.htm" target="_top" xlink:title="BannerMessageHandler.cpp">
<polygon fill="white" stroke="black" points="3868,-58.5 3868,-79.5 4020,-79.5 4020,-58.5 3868,-58.5"/>
<text text-anchor="middle" x="3944" y="-66.5" font-family="Helvetica,sans-Serif" font-size="10.00">BannerMessageHandler.cpp</text>
</a>
</g>
<!-- Node2&#45;&gt;Node38 -->
<g id="edge104" class="edge"><title>Node2&#45;&gt;Node38</title>
<path fill="none" stroke="midnightblue" d="M2083.2,-116.024C2870.38,-44.6364 3074.62,-138.526 3859,-80 3861.82,-79.7896 3864.69,-79.5499 3867.58,-79.2863"/>
<polygon fill="midnightblue" stroke="midnightblue" points="2082.68,-112.557 2073.04,-116.952 2083.32,-119.528 2082.68,-112.557"/>
</g>
<!-- Node39 -->
<g id="node92" class="node"><title>Node39</title>
<a xlink:href="BannerWindow_8cpp.htm" target="_top" xlink:title="BannerWindow.cpp">
<polygon fill="white" stroke="black" points="4038,-58.5 4038,-79.5 4146,-79.5 4146,-58.5 4038,-58.5"/>
<text text-anchor="middle" x="4092" y="-66.5" font-family="Helvetica,sans-Serif" font-size="10.00">BannerWindow.cpp</text>
</a>
</g>
<!-- Node2&#45;&gt;Node39 -->
<g id="edge106" class="edge"><title>Node2&#45;&gt;Node39</title>
<path fill="none" stroke="midnightblue" d="M2083.22,-116.026C2945.69,-38.6614 3170.84,-162.355 4029,-80 4031.87,-79.7242 4034.81,-79.391 4037.78,-79.0149"/>
<polygon fill="midnightblue" stroke="midnightblue" points="2082.68,-112.56 2073.04,-116.946 2083.31,-119.531 2082.68,-112.56"/>
</g>
<!-- Node40 -->
<g id="node94" class="node"><title>Node40</title>
<a xlink:href="DashboardWindowContainer_8cpp.htm" target="_top" xlink:title="DashboardWindowContainer.cpp">
<polygon fill="white" stroke="black" points="4164,-58.5 4164,-79.5 4336,-79.5 4336,-58.5 4164,-58.5"/>
<text text-anchor="middle" x="4250" y="-66.5" font-family="Helvetica,sans-Serif" font-size="10.00">DashboardWindowContainer.cpp</text>
</a>
</g>
<!-- Node2&#45;&gt;Node40 -->
<g id="edge108" class="edge"><title>Node2&#45;&gt;Node40</title>
<path fill="none" stroke="midnightblue" d="M2083.19,-116.029C3001.48,-33.9255 3238.92,-140.844 4155,-80 4157.9,-79.8074 4160.85,-79.5898 4163.82,-79.3514"/>
<polygon fill="midnightblue" stroke="midnightblue" points="2082.69,-112.56 2073.04,-116.942 2083.31,-119.532 2082.69,-112.56"/>
</g>
<!-- Node41 -->
<g id="node97" class="node"><title>Node41</title>
<a xlink:href="DashboardWindowManagerStates_8cpp.htm" target="_top" xlink:title="DashboardWindowManagerStates.cpp">
<polygon fill="white" stroke="black" points="4354,-58.5 4354,-79.5 4552,-79.5 4552,-58.5 4354,-58.5"/>
<text text-anchor="middle" x="4453" y="-66.5" font-family="Helvetica,sans-Serif" font-size="10.00">DashboardWindowManagerStates.cpp</text>
</a>
</g>
<!-- Node2&#45;&gt;Node41 -->
<g id="edge112" class="edge"><title>Node2&#45;&gt;Node41</title>
<path fill="none" stroke="midnightblue" d="M2083.22,-116.042C2599.53,-71.6404 3846.22,-109.314 4345,-80 4347.92,-79.8286 4350.88,-79.6376 4353.86,-79.4301"/>
<polygon fill="midnightblue" stroke="midnightblue" points="2082.69,-112.574 2073.04,-116.936 2083.31,-119.547 2082.69,-112.574"/>
</g>
<!-- Node42 -->
<g id="node99" class="node"><title>Node42</title>
<a xlink:href="VolumeControlAlertWindow_8cpp.htm" target="_top" xlink:title="VolumeControlAlertWindow.cpp">
<polygon fill="white" stroke="black" points="4570,-58.5 4570,-79.5 4734,-79.5 4734,-58.5 4570,-58.5"/>
<text text-anchor="middle" x="4652" y="-66.5" font-family="Helvetica,sans-Serif" font-size="10.00">VolumeControlAlertWindow.cpp</text>
</a>
</g>
<!-- Node2&#45;&gt;Node42 -->
<g id="edge114" class="edge"><title>Node2&#45;&gt;Node42</title>
<path fill="none" stroke="midnightblue" d="M2083.34,-116.032C2647.61,-67.8422 4014.66,-116.884 4561,-80 4563.86,-79.8071 4566.76,-79.5869 4569.7,-79.3442"/>
<polygon fill="midnightblue" stroke="midnightblue" points="2082.7,-112.575 2073.04,-116.931 2083.3,-119.549 2082.7,-112.575"/>
</g>
<!-- Node43 -->
<g id="node101" class="node"><title>Node43</title>
<a xlink:href="MenuWindowManager_8cpp.htm" target="_top" xlink:title="MenuWindowManager.cpp">
<polygon fill="white" stroke="black" points="4751.5,-58.5 4751.5,-79.5 4894.5,-79.5 4894.5,-58.5 4751.5,-58.5"/>
<text text-anchor="middle" x="4823" y="-66.5" font-family="Helvetica,sans-Serif" font-size="10.00">MenuWindowManager.cpp</text>
</a>
</g>
<!-- Node2&#45;&gt;Node43 -->
<g id="edge116" class="edge"><title>Node2&#45;&gt;Node43</title>
<path fill="none" stroke="midnightblue" d="M2083.2,-116.046C2687.71,-64.625 4156.59,-124.114 4743,-80 4745.66,-79.8002 4748.36,-79.5694 4751.09,-79.3134"/>
<polygon fill="midnightblue" stroke="midnightblue" points="2082.7,-112.576 2073.04,-116.928 2083.3,-119.55 2082.7,-112.576"/>
</g>
<!-- Node44 -->
<g id="node103" class="node"><title>Node44</title>
<a xlink:href="StatusBar_8cpp.htm" target="_top" xlink:title="StatusBar.cpp">
<polygon fill="white" stroke="black" points="4912,-58.5 4912,-79.5 4994,-79.5 4994,-58.5 4912,-58.5"/>
<text text-anchor="middle" x="4953" y="-66.5" font-family="Helvetica,sans-Serif" font-size="10.00">StatusBar.cpp</text>
</a>
</g>
<!-- Node2&#45;&gt;Node44 -->
<g id="edge118" class="edge"><title>Node2&#45;&gt;Node44</title>
<path fill="none" stroke="midnightblue" d="M2083.33,-116.037C2723.41,-62.0296 4283.52,-151.339 4903,-80 4905.91,-79.6644 4908.91,-79.2326 4911.91,-78.7349"/>
<polygon fill="midnightblue" stroke="midnightblue" points="2082.7,-112.578 2073.04,-116.925 2083.3,-119.553 2082.7,-112.578"/>
</g>
<!-- Node45 -->
<g id="node105" class="node"><title>Node45</title>
<a xlink:href="StatusBarBattery_8cpp.htm" target="_top" xlink:title="StatusBarBattery.cpp">
<polygon fill="white" stroke="black" points="5012,-58.5 5012,-79.5 5128,-79.5 5128,-58.5 5012,-58.5"/>
<text text-anchor="middle" x="5070" y="-66.5" font-family="Helvetica,sans-Serif" font-size="10.00">StatusBarBattery.cpp</text>
</a>
</g>
<!-- Node2&#45;&gt;Node45 -->
<g id="edge120" class="edge"><title>Node2&#45;&gt;Node45</title>
<path fill="none" stroke="midnightblue" d="M2083.2,-116.047C2745.34,-60.0454 4359.64,-136.455 5003,-80 5005.94,-79.7424 5008.94,-79.4302 5011.96,-79.0765"/>
<polygon fill="midnightblue" stroke="midnightblue" points="2082.7,-112.577 2073.04,-116.923 2083.3,-119.551 2082.7,-112.577"/>
</g>
<!-- Node46 -->
<g id="node107" class="node"><title>Node46</title>
<a xlink:href="StatusBarSearch_8cpp.htm" target="_top" xlink:title="StatusBarSearch.cpp">
<polygon fill="white" stroke="black" points="5146,-58.5 5146,-79.5 5262,-79.5 5262,-58.5 5146,-58.5"/>
<text text-anchor="middle" x="5204" y="-66.5" font-family="Helvetica,sans-Serif" font-size="10.00">StatusBarSearch.cpp</text>
</a>
</g>
<!-- Node2&#45;&gt;Node46 -->
<g id="edge122" class="edge"><title>Node2&#45;&gt;Node46</title>
<path fill="none" stroke="midnightblue" d="M2083.15,-116.051C2774.95,-57.635 4463.95,-138.877 5137,-80 5139.94,-79.7432 5142.94,-79.4316 5145.96,-79.0785"/>
<polygon fill="midnightblue" stroke="midnightblue" points="2082.7,-112.577 2073.04,-116.922 2083.3,-119.551 2082.7,-112.577"/>
</g>
<!-- Node47 -->
<g id="node109" class="node"><title>Node47</title>
<a xlink:href="StatusBarSeparator_8cpp.htm" target="_top" xlink:title="StatusBarSeparator.cpp">
<polygon fill="white" stroke="black" points="5279.5,-58.5 5279.5,-79.5 5408.5,-79.5 5408.5,-58.5 5279.5,-58.5"/>
<text text-anchor="middle" x="5344" y="-66.5" font-family="Helvetica,sans-Serif" font-size="10.00">StatusBarSeparator.cpp</text>
</a>
</g>
<!-- Node2&#45;&gt;Node47 -->
<g id="edge124" class="edge"><title>Node2&#45;&gt;Node47</title>
<path fill="none" stroke="midnightblue" d="M2083.05,-116.059C2804.49,-55.1769 4567.86,-136.672 5271,-80 5273.68,-79.7838 5276.42,-79.529 5279.18,-79.2435"/>
<polygon fill="midnightblue" stroke="midnightblue" points="2082.7,-112.577 2073.04,-116.92 2083.3,-119.551 2082.7,-112.577"/>
</g>
<!-- Node48 -->
<g id="node111" class="node"><title>Node48</title>
<a xlink:href="SystemMenu_8cpp.htm" target="_top" xlink:title="SystemMenu.cpp">
<polygon fill="white" stroke="black" points="5425.5,-58.5 5425.5,-79.5 5522.5,-79.5 5522.5,-58.5 5425.5,-58.5"/>
<text text-anchor="middle" x="5474" y="-66.5" font-family="Helvetica,sans-Serif" font-size="10.00">SystemMenu.cpp</text>
</a>
</g>
<!-- Node2&#45;&gt;Node48 -->
<g id="edge126" class="edge"><title>Node2&#45;&gt;Node48</title>
<path fill="none" stroke="midnightblue" d="M2083.23,-116.046C2837.14,-52.702 4682.93,-154.184 5417,-80 5419.71,-79.7264 5422.48,-79.3881 5425.27,-79.0019"/>
<polygon fill="midnightblue" stroke="midnightblue" points="2082.7,-112.578 2073.04,-116.918 2083.3,-119.552 2082.7,-112.578"/>
</g>
<!-- Node49 -->
<g id="node116" class="node"><title>Node49</title>
<a xlink:href="IpcClientHost_8cpp.htm" target="_top" xlink:title="IpcClientHost.cpp">
<polygon fill="white" stroke="black" points="5539.5,-58.5 5539.5,-79.5 5638.5,-79.5 5638.5,-58.5 5539.5,-58.5"/>
<text text-anchor="middle" x="5589" y="-66.5" font-family="Helvetica,sans-Serif" font-size="10.00">IpcClientHost.cpp</text>
</a>
</g>
<!-- Node2&#45;&gt;Node49 -->
<g id="edge134" class="edge"><title>Node2&#45;&gt;Node49</title>
<path fill="none" stroke="midnightblue" d="M2083,-116.065C2862.02,-50.621 4771.52,-155.384 5531,-80 5533.75,-79.7267 5536.57,-79.3886 5539.41,-79.0026"/>
<polygon fill="midnightblue" stroke="midnightblue" points="2082.7,-112.578 2073.04,-116.917 2083.3,-119.552 2082.7,-112.578"/>
</g>
<!-- Node5&#45;&gt;Node6 -->
<g id="edge10" class="edge"><title>Node5&#45;&gt;Node6</title>
<path fill="none" stroke="midnightblue" d="M715.927,-65.118C572.184,-56.5395 234.852,-35.649 121,-22 118.273,-21.673 115.485,-21.3107 112.674,-20.9225"/>
<polygon fill="midnightblue" stroke="midnightblue" points="715.746,-68.6133 725.936,-65.7141 716.162,-61.6257 715.746,-68.6133"/>
</g>
<!-- Node5&#45;&gt;Node7 -->
<g id="edge12" class="edge"><title>Node5&#45;&gt;Node7</title>
<path fill="none" stroke="midnightblue" d="M715.639,-64.0752C591.694,-54.741 329.396,-34.3088 239,-22 236.316,-21.6345 233.568,-21.2298 230.798,-20.7975"/>
<polygon fill="midnightblue" stroke="midnightblue" points="715.523,-67.5763 725.757,-64.8357 716.048,-60.596 715.523,-67.5763"/>
</g>
<!-- Node5&#45;&gt;Node8 -->
<g id="edge14" class="edge"><title>Node5&#45;&gt;Node8</title>
<path fill="none" stroke="midnightblue" d="M780.206,-48.1906C779.428,-39.1684 778.551,-28.9941 777.911,-21.5707"/>
<polygon fill="midnightblue" stroke="midnightblue" points="776.737,-48.6995 781.083,-58.3619 783.711,-48.0982 776.737,-48.6995"/>
</g>
<!-- Node5&#45;&gt;Node9 -->
<g id="edge16" class="edge"><title>Node5&#45;&gt;Node9</title>
<path fill="none" stroke="midnightblue" d="M715.811,-62.1604C615.026,-51.6522 427.753,-31.7335 361,-22 358.231,-21.5963 355.396,-21.1611 352.536,-20.7051"/>
<polygon fill="midnightblue" stroke="midnightblue" points="715.571,-65.6543 725.88,-63.2089 716.296,-58.6919 715.571,-65.6543"/>
</g>
<!-- Node5&#45;&gt;Node10 -->
<g id="edge18" class="edge"><title>Node5&#45;&gt;Node10</title>
<path fill="none" stroke="midnightblue" d="M813.628,-54.2064C835.382,-44.031 863.762,-30.7567 883.293,-21.6212"/>
<polygon fill="midnightblue" stroke="midnightblue" points="812.031,-51.0894 804.455,-58.4966 814.996,-57.4301 812.031,-51.0894"/>
</g>
<!-- Node5&#45;&gt;Node11 -->
<g id="edge20" class="edge"><title>Node5&#45;&gt;Node11</title>
<path fill="none" stroke="midnightblue" d="M715.984,-57.3265C656.725,-46.8477 570.517,-31.6035 513.385,-21.5009"/>
<polygon fill="midnightblue" stroke="midnightblue" points="715.531,-60.8005 725.987,-59.0953 716.75,-53.9075 715.531,-60.8005"/>
</g>
<!-- Node5&#45;&gt;Node12 -->
<g id="edge22" class="edge"><title>Node5&#45;&gt;Node12</title>
<path fill="none" stroke="midnightblue" d="M838.02,-56.2081C883.627,-45.7938 947.224,-31.2716 989.916,-21.5231"/>
<polygon fill="midnightblue" stroke="midnightblue" points="836.967,-52.8582 827.997,-58.4966 838.526,-59.6826 836.967,-52.8582"/>
</g>
<!-- Node5&#45;&gt;Node13 -->
<g id="edge24" class="edge"><title>Node5&#45;&gt;Node13</title>
<path fill="none" stroke="midnightblue" d="M744.37,-55.0095C716.648,-44.7023 679.532,-30.903 654.303,-21.5231"/>
<polygon fill="midnightblue" stroke="midnightblue" points="743.157,-58.2923 753.75,-58.4966 745.596,-51.7311 743.157,-58.2923"/>
</g>
<!-- Node5&#45;&gt;Node14 -->
<g id="edge26" class="edge"><title>Node5&#45;&gt;Node14</title>
<path fill="none" stroke="midnightblue" d="M848.431,-59.712C914.527,-50.4097 1018.82,-35.5651 1109,-22 1111.92,-21.5608 1114.91,-21.1073 1117.92,-20.646"/>
<polygon fill="midnightblue" stroke="midnightblue" points="847.575,-56.2979 838.159,-61.1563 848.549,-63.2297 847.575,-56.2979"/>
</g>
<!-- Node19&#45;&gt;Node8 -->
<g id="edge44" class="edge"><title>Node19&#45;&gt;Node8</title>
<path fill="none" stroke="midnightblue" d="M1127.64,-61.6295C1062.02,-52.5241 947.267,-36.4617 849,-22 846.248,-21.595 843.437,-21.1783 840.598,-20.755"/>
<polygon fill="midnightblue" stroke="midnightblue" points="1127.35,-65.1231 1137.74,-63.0298 1128.31,-58.1894 1127.35,-65.1231"/>
</g>
<!-- Node19&#45;&gt;Node10 -->
<g id="edge54" class="edge"><title>Node19&#45;&gt;Node10</title>
<path fill="none" stroke="midnightblue" d="M1127.7,-57.7577C1077.39,-47.1475 1002.63,-31.381 954.104,-21.1456"/>
<polygon fill="midnightblue" stroke="midnightblue" points="1127.22,-61.2346 1137.73,-59.8737 1128.67,-54.3853 1127.22,-61.2346"/>
</g>
<!-- Node19&#45;&gt;Node12 -->
<g id="edge56" class="edge"><title>Node19&#45;&gt;Node12</title>
<path fill="none" stroke="midnightblue" d="M1145.38,-54.7509C1119.77,-44.5086 1085.8,-30.9206 1062.55,-21.6212"/>
<polygon fill="midnightblue" stroke="midnightblue" points="1144.16,-58.0323 1154.74,-58.4966 1146.76,-51.533 1144.16,-58.0323"/>
</g>
<!-- Node19&#45;&gt;Node14 -->
<g id="edge60" class="edge"><title>Node19&#45;&gt;Node14</title>
<path fill="none" stroke="midnightblue" d="M1180.28,-48.1906C1179.97,-39.1684 1179.62,-28.9941 1179.36,-21.5707"/>
<polygon fill="midnightblue" stroke="midnightblue" points="1176.79,-48.4885 1180.63,-58.3619 1183.79,-48.2472 1176.79,-48.4885"/>
</g>
<!-- Node19&#45;&gt;Node18 -->
<g id="edge42" class="edge"><title>Node19&#45;&gt;Node18</title>
<path fill="none" stroke="midnightblue" d="M1213.85,-54.3431C1236.7,-44.1502 1266.63,-30.7977 1287.19,-21.6212"/>
<polygon fill="midnightblue" stroke="midnightblue" points="1212.25,-51.2259 1204.54,-58.4966 1215.1,-57.6185 1212.25,-51.2259"/>
</g>
<!-- Node19&#45;&gt;Node20 -->
<g id="edge46" class="edge"><title>Node19&#45;&gt;Node20</title>
<path fill="none" stroke="midnightblue" d="M1233.93,-56.6712C1278.8,-46.2202 1342.44,-31.3948 1384.92,-21.5009"/>
<polygon fill="midnightblue" stroke="midnightblue" points="1233.03,-53.286 1224.09,-58.9634 1234.62,-60.1035 1233.03,-53.286"/>
</g>
<!-- Node19&#45;&gt;Node21 -->
<g id="edge48" class="edge"><title>Node19&#45;&gt;Node21</title>
<path fill="none" stroke="midnightblue" d="M1234.14,-60.9947C1302.35,-50.718 1420.89,-32.8613 1496.28,-21.5026"/>
<polygon fill="midnightblue" stroke="midnightblue" points="1233.41,-57.5648 1224.04,-62.5155 1234.45,-64.4867 1233.41,-57.5648"/>
</g>
<!-- Node19&#45;&gt;Node22 -->
<g id="edge50" class="edge"><title>Node19&#45;&gt;Node22</title>
<path fill="none" stroke="midnightblue" d="M1234.28,-63.875C1320.58,-55.5117 1496.3,-38.2303 1645,-22 1647.94,-21.6791 1650.93,-21.3489 1653.95,-21.0124"/>
<polygon fill="midnightblue" stroke="midnightblue" points="1233.82,-60.4028 1224.2,-64.85 1234.49,-67.3703 1233.82,-60.4028"/>
</g>
<!-- Node19&#45;&gt;Node23 -->
<g id="edge52" class="edge"><title>Node19&#45;&gt;Node23</title>
<path fill="none" stroke="midnightblue" d="M1234.23,-65.4706C1368.23,-56.5353 1717.1,-32.953 1833,-22 1835.94,-21.7217 1838.94,-21.4282 1841.96,-21.123"/>
<polygon fill="midnightblue" stroke="midnightblue" points="1233.94,-61.9816 1224.2,-66.1387 1234.41,-68.9662 1233.94,-61.9816"/>
</g>
<!-- Node19&#45;&gt;Node24 -->
<g id="edge58" class="edge"><title>Node19&#45;&gt;Node24</title>
<path fill="none" stroke="midnightblue" d="M1234.28,-66.1263C1412.94,-56.4756 1981.81,-25.6276 2021,-22 2023.82,-21.7394 2026.68,-21.457 2029.57,-21.1572"/>
<polygon fill="midnightblue" stroke="midnightblue" points="1233.87,-62.6432 1224.07,-66.6774 1234.25,-69.633 1233.87,-62.6432"/>
</g>
<!-- Node35&#45;&gt;Node36 -->
<g id="edge96" class="edge"><title>Node35&#45;&gt;Node36</title>
<path fill="none" stroke="midnightblue" d="M3573.29,-50.8299C3581.92,-41.2078 3592.21,-29.7282 3599.52,-21.5707"/>
<polygon fill="midnightblue" stroke="midnightblue" points="3570.61,-48.5798 3566.54,-58.3619 3575.82,-53.2526 3570.61,-48.5798"/>
</g>
</g>
</svg>
