<?xml version="1.0" encoding="UTF-8" standalone="no"?>
<!DOCTYPE svg PUBLIC "-//W3C//DTD SVG 1.1//EN"
 "http://www.w3.org/Graphics/SVG/1.1/DTD/svg11.dtd">
<!-- Generated by graphviz version 2.26.3 (20100126.1600)
 -->
<!-- Title: G Pages: 1 -->
<svg width="1140pt" height="320pt"
 viewBox="0.00 0.00 1140.00 320.00" xmlns="http://www.w3.org/2000/svg" xmlns:xlink="http://www.w3.org/1999/xlink">
<g id="graph1" class="graph" transform="scale(1 1) rotate(0) translate(4 316)">
<title>G</title>
<polygon fill="white" stroke="white" points="-4,5 -4,-316 1137,-316 1137,5 -4,5"/>
<!-- Node1 -->
<g id="node1" class="node"><title>Node1</title>
<polygon fill="#bfbfbf" stroke="black" points="829.5,-290.5 829.5,-311.5 942.5,-311.5 942.5,-290.5 829.5,-290.5"/>
<text text-anchor="middle" x="886" y="-298.5" font-family="Helvetica,sans-Serif" font-size="10.00">SuspendBlocker.cpp</text>
</g>
<!-- Node2 -->
<g id="node3" class="node"><title>Node2</title>
<a xlink:href="Common_8h.htm" target="_top" xlink:title="Common.h">
<polygon fill="white" stroke="black" points="316.5,-0.5 316.5,-21.5 383.5,-21.5 383.5,-0.5 316.5,-0.5"/>
<text text-anchor="middle" x="350" y="-8.5" font-family="Helvetica,sans-Serif" font-size="10.00">Common.h</text>
</a>
</g>
<!-- Node1&#45;&gt;Node2 -->
<g id="edge2" class="edge"><title>Node1&#45;&gt;Node2</title>
<path fill="none" stroke="midnightblue" d="M829.218,-297.776C659.869,-287.41 170,-251.662 170,-185 170,-185 170,-185 170,-127 170,-62.3866 252.963,-32.0402 306.242,-19.2138"/>
<polygon fill="midnightblue" stroke="midnightblue" points="307.176,-22.5906 316.143,-16.9477 305.615,-15.767 307.176,-22.5906"/>
</g>
<!-- Node3 -->
<g id="node5" class="node"><title>Node3</title>
<a xlink:href="SuspendBlocker_8h.htm" target="_top" xlink:title="SuspendBlocker.h">
<polygon fill="white" stroke="black" points="965.5,-174.5 965.5,-195.5 1066.5,-195.5 1066.5,-174.5 965.5,-174.5"/>
<text text-anchor="middle" x="1016" y="-182.5" font-family="Helvetica,sans-Serif" font-size="10.00">SuspendBlocker.h</text>
</a>
</g>
<!-- Node1&#45;&gt;Node3 -->
<g id="edge4" class="edge"><title>Node1&#45;&gt;Node3</title>
<path fill="none" stroke="midnightblue" d="M886.158,-290.32C886.933,-275.496 890.425,-248.635 905,-232 918.626,-216.448 938.27,-205.899 957.255,-198.808"/>
<polygon fill="midnightblue" stroke="midnightblue" points="958.488,-202.086 966.79,-195.503 956.195,-195.472 958.488,-202.086"/>
</g>
<!-- Node6 -->
<g id="node12" class="node"><title>Node6</title>
<a xlink:href="DisplayManager_8h.htm" target="_top" xlink:title="DisplayManager.h">
<polygon fill="white" stroke="black" points="617,-232.5 617,-253.5 719,-253.5 719,-232.5 617,-232.5"/>
<text text-anchor="middle" x="668" y="-240.5" font-family="Helvetica,sans-Serif" font-size="10.00">DisplayManager.h</text>
</a>
</g>
<!-- Node1&#45;&gt;Node6 -->
<g id="edge12" class="edge"><title>Node1&#45;&gt;Node6</title>
<path fill="none" stroke="midnightblue" d="M846.522,-290.497C810.367,-280.877 756.696,-266.598 717.647,-256.209"/>
<polygon fill="midnightblue" stroke="midnightblue" points="718.116,-252.712 707.552,-253.523 716.316,-259.477 718.116,-252.712"/>
</g>
<!-- Node13 -->
<g id="node36" class="node"><title>Node13</title>
<polygon fill="white" stroke="#bfbfbf" points="805.5,-58.5 805.5,-79.5 856.5,-79.5 856.5,-58.5 805.5,-58.5"/>
<text text-anchor="middle" x="831" y="-66.5" font-family="Helvetica,sans-Serif" font-size="10.00">string.h</text>
</g>
<!-- Node1&#45;&gt;Node13 -->
<g id="edge94" class="edge"><title>Node1&#45;&gt;Node13</title>
<path fill="none" stroke="midnightblue" d="M883.494,-290.429C874.993,-254.573 847.161,-137.169 835.847,-89.4458"/>
<polygon fill="midnightblue" stroke="midnightblue" points="839.233,-88.5564 833.521,-79.6335 832.422,-90.1712 839.233,-88.5564"/>
</g>
<!-- Node26 -->
<g id="node72" class="node"><title>Node26</title>
<polygon fill="white" stroke="#bfbfbf" points="914,-232.5 914,-253.5 976,-253.5 976,-232.5 914,-232.5"/>
<text text-anchor="middle" x="945" y="-240.5" font-family="Helvetica,sans-Serif" font-size="10.00">pthread.h</text>
</g>
<!-- Node1&#45;&gt;Node26 -->
<g id="edge92" class="edge"><title>Node1&#45;&gt;Node26</title>
<path fill="none" stroke="midnightblue" d="M896.822,-290.362C905.221,-282.104 917.054,-270.472 926.89,-260.803"/>
<polygon fill="midnightblue" stroke="midnightblue" points="929.569,-263.077 934.247,-253.571 924.662,-258.085 929.569,-263.077"/>
</g>
<!-- Node27 -->
<g id="node75" class="node"><title>Node27</title>
<polygon fill="white" stroke="#bfbfbf" points="993.5,-232.5 993.5,-253.5 1042.5,-253.5 1042.5,-232.5 993.5,-232.5"/>
<text text-anchor="middle" x="1018" y="-240.5" font-family="Helvetica,sans-Serif" font-size="10.00">stdlib.h</text>
</g>
<!-- Node1&#45;&gt;Node27 -->
<g id="edge96" class="edge"><title>Node1&#45;&gt;Node27</title>
<path fill="none" stroke="midnightblue" d="M909.904,-290.497C930.8,-281.315 961.356,-267.889 984.655,-257.652"/>
<polygon fill="midnightblue" stroke="midnightblue" points="986.08,-260.848 993.828,-253.621 983.264,-254.44 986.08,-260.848"/>
</g>
<!-- Node28 -->
<g id="node77" class="node"><title>Node28</title>
<polygon fill="white" stroke="#bfbfbf" points="1060,-232.5 1060,-253.5 1132,-253.5 1132,-232.5 1060,-232.5"/>
<text text-anchor="middle" x="1096" y="-240.5" font-family="Helvetica,sans-Serif" font-size="10.00">cjson/json.h</text>
</g>
<!-- Node1&#45;&gt;Node28 -->
<g id="edge98" class="edge"><title>Node1&#45;&gt;Node28</title>
<path fill="none" stroke="midnightblue" d="M924.029,-290.497C959.4,-280.728 1012.17,-266.152 1049.92,-255.726"/>
<polygon fill="midnightblue" stroke="midnightblue" points="1050.95,-259.073 1059.66,-253.037 1049.09,-252.326 1050.95,-259.073"/>
</g>
<!-- Node3&#45;&gt;Node2 -->
<g id="edge6" class="edge"><title>Node3&#45;&gt;Node2</title>
<path fill="none" stroke="midnightblue" d="M1013.68,-174.481C1007.52,-149.314 988.173,-85.6683 945,-58 898.912,-28.4639 523.517,-15.6651 393.854,-12.0966"/>
<polygon fill="midnightblue" stroke="midnightblue" points="393.605,-8.58865 383.514,-11.8173 393.416,-15.5861 393.605,-8.58865"/>
</g>
<!-- Node4 -->
<g id="node8" class="node"><title>Node4</title>
<polygon fill="white" stroke="#bfbfbf" points="815.5,-0.5 815.5,-21.5 856.5,-21.5 856.5,-0.5 815.5,-0.5"/>
<text text-anchor="middle" x="836" y="-8.5" font-family="Helvetica,sans-Serif" font-size="10.00">glib.h</text>
</g>
<!-- Node3&#45;&gt;Node4 -->
<g id="edge8" class="edge"><title>Node3&#45;&gt;Node4</title>
<path fill="none" stroke="midnightblue" d="M1022.17,-174.443C1035.1,-150.801 1061.62,-92.9411 1034,-58 1013.5,-32.0585 917.117,-18.9253 866.784,-13.7391"/>
<polygon fill="midnightblue" stroke="midnightblue" points="867.082,-10.2516 856.787,-12.7513 866.394,-17.2177 867.082,-10.2516"/>
</g>
<!-- Node5 -->
<g id="node10" class="node"><title>Node5</title>
<polygon fill="white" stroke="#bfbfbf" points="629,-116.5 629,-137.5 707,-137.5 707,-116.5 629,-116.5"/>
<text text-anchor="middle" x="668" y="-124.5" font-family="Helvetica,sans-Serif" font-size="10.00">lunaservice.h</text>
</g>
<!-- Node3&#45;&gt;Node5 -->
<g id="edge10" class="edge"><title>Node3&#45;&gt;Node5</title>
<path fill="none" stroke="midnightblue" d="M965.398,-176.566C898.923,-165.487 782.941,-146.157 717.181,-135.197"/>
<polygon fill="midnightblue" stroke="midnightblue" points="717.513,-131.704 707.073,-133.512 716.362,-138.609 717.513,-131.704"/>
</g>
<!-- Node6&#45;&gt;Node2 -->
<g id="edge14" class="edge"><title>Node6&#45;&gt;Node2</title>
<path fill="none" stroke="midnightblue" d="M616.812,-240.432C517.536,-234.926 306.641,-220.459 285,-196 268.528,-177.383 202.968,-221.987 287,-58 293.695,-44.9354 305.888,-34.5512 317.776,-26.9018"/>
<polygon fill="midnightblue" stroke="midnightblue" points="319.907,-29.7068 326.712,-21.5862 316.328,-23.6908 319.907,-29.7068"/>
</g>
<!-- Node6&#45;&gt;Node5 -->
<g id="edge90" class="edge"><title>Node6&#45;&gt;Node5</title>
<path fill="none" stroke="midnightblue" d="M668,-232.295C668,-213.131 668,-172.654 668,-147.843"/>
<polygon fill="midnightblue" stroke="midnightblue" points="671.5,-147.679 668,-137.679 664.5,-147.679 671.5,-147.679"/>
</g>
<!-- Node7 -->
<g id="node15" class="node"><title>Node7</title>
<a xlink:href="Timer_8h.htm" target="_top" xlink:title="Timer.h">
<polygon fill="white" stroke="black" points="312,-116.5 312,-137.5 364,-137.5 364,-116.5 312,-116.5"/>
<text text-anchor="middle" x="338" y="-124.5" font-family="Helvetica,sans-Serif" font-size="10.00">Timer.h</text>
</a>
</g>
<!-- Node6&#45;&gt;Node7 -->
<g id="edge16" class="edge"><title>Node6&#45;&gt;Node7</title>
<path fill="none" stroke="midnightblue" d="M626.741,-232.463C593.548,-223.662 545.869,-210.286 505,-196 457.428,-179.372 403.801,-156.442 370.45,-141.667"/>
<polygon fill="midnightblue" stroke="midnightblue" points="371.75,-138.415 361.191,-137.544 368.902,-144.81 371.75,-138.415"/>
</g>
<!-- Node9 -->
<g id="node21" class="node"><title>Node9</title>
<a xlink:href="Mutex_8h.htm" target="_top" xlink:title="Mutex.h">
<polygon fill="white" stroke="black" points="915.5,-116.5 915.5,-137.5 968.5,-137.5 968.5,-116.5 915.5,-116.5"/>
<text text-anchor="middle" x="942" y="-124.5" font-family="Helvetica,sans-Serif" font-size="10.00">Mutex.h</text>
</a>
</g>
<!-- Node6&#45;&gt;Node9 -->
<g id="edge24" class="edge"><title>Node6&#45;&gt;Node9</title>
<path fill="none" stroke="midnightblue" d="M719.007,-237.584C778.479,-230.441 872.304,-216.35 901,-196 917.876,-184.032 928.968,-162.736 935.309,-146.958"/>
<polygon fill="midnightblue" stroke="midnightblue" points="938.606,-148.133 938.802,-137.54 932.043,-145.699 938.606,-148.133"/>
</g>
<!-- Node10 -->
<g id="node24" class="node"><title>Node10</title>
<a xlink:href="sptr_8h.htm" target="_top" xlink:title="sptr.h">
<polygon fill="white" stroke="black" points="873.5,-58.5 873.5,-79.5 916.5,-79.5 916.5,-58.5 873.5,-58.5"/>
<text text-anchor="middle" x="895" y="-66.5" font-family="Helvetica,sans-Serif" font-size="10.00">sptr.h</text>
</a>
</g>
<!-- Node6&#45;&gt;Node10 -->
<g id="edge54" class="edge"><title>Node6&#45;&gt;Node10</title>
<path fill="none" stroke="midnightblue" d="M719.272,-232.63C759.751,-223.617 812.126,-209.864 829,-196 863.068,-168.009 881.618,-117.805 889.794,-89.6291"/>
<polygon fill="midnightblue" stroke="midnightblue" points="893.254,-90.2458 892.513,-79.6768 886.501,-88.4005 893.254,-90.2458"/>
</g>
<!-- Node11 -->
<g id="node29" class="node"><title>Node11</title>
<a xlink:href="Event_8h.htm" target="_top" xlink:title="Event.h">
<polygon fill="white" stroke="black" points="512,-116.5 512,-137.5 564,-137.5 564,-116.5 512,-116.5"/>
<text text-anchor="middle" x="538" y="-124.5" font-family="Helvetica,sans-Serif" font-size="10.00">Event.h</text>
</a>
</g>
<!-- Node6&#45;&gt;Node11 -->
<g id="edge36" class="edge"><title>Node6&#45;&gt;Node11</title>
<path fill="none" stroke="midnightblue" d="M616.746,-234.211C576.62,-226.164 525.564,-212.939 513,-196 501.937,-181.085 511.575,-160.787 521.928,-146.071"/>
<polygon fill="midnightblue" stroke="midnightblue" points="525.009,-147.802 528.288,-137.727 519.442,-143.558 525.009,-147.802"/>
</g>
<!-- Node16 -->
<g id="node44" class="node"><title>Node16</title>
<a xlink:href="AmbientLightSensor_8h.htm" target="_top" xlink:title="AmbientLightSensor.h">
<polygon fill="white" stroke="black" points="521.5,-174.5 521.5,-195.5 640.5,-195.5 640.5,-174.5 521.5,-174.5"/>
<text text-anchor="middle" x="581" y="-182.5" font-family="Helvetica,sans-Serif" font-size="10.00">AmbientLightSensor.h</text>
</a>
</g>
<!-- Node6&#45;&gt;Node16 -->
<g id="edge56" class="edge"><title>Node6&#45;&gt;Node16</title>
<path fill="none" stroke="midnightblue" d="M652.043,-232.362C639.043,-223.696 620.469,-211.313 605.573,-201.382"/>
<polygon fill="midnightblue" stroke="midnightblue" points="607.118,-198.206 596.856,-195.571 603.235,-204.03 607.118,-198.206"/>
</g>
<!-- Node18 -->
<g id="node50" class="node"><title>Node18</title>
<a xlink:href="DisplayStates_8h.htm" target="_top" xlink:title="DisplayStates.h">
<polygon fill="white" stroke="black" points="293.5,-174.5 293.5,-195.5 382.5,-195.5 382.5,-174.5 293.5,-174.5"/>
<text text-anchor="middle" x="338" y="-182.5" font-family="Helvetica,sans-Serif" font-size="10.00">DisplayStates.h</text>
</a>
</g>
<!-- Node6&#45;&gt;Node18 -->
<g id="edge64" class="edge"><title>Node6&#45;&gt;Node18</title>
<path fill="none" stroke="midnightblue" d="M616.8,-234.001C556.006,-223.316 455.028,-205.569 392.728,-194.619"/>
<polygon fill="midnightblue" stroke="midnightblue" points="393.152,-191.14 382.697,-192.856 391.94,-198.034 393.152,-191.14"/>
</g>
<!-- Node24 -->
<g id="node67" class="node"><title>Node24</title>
<polygon fill="white" stroke="#bfbfbf" points="696,-174.5 696,-195.5 748,-195.5 748,-174.5 696,-174.5"/>
<text text-anchor="middle" x="722" y="-182.5" font-family="Helvetica,sans-Serif" font-size="10.00">QEvent</text>
</g>
<!-- Node6&#45;&gt;Node24 -->
<g id="edge86" class="edge"><title>Node6&#45;&gt;Node24</title>
<path fill="none" stroke="midnightblue" d="M677.904,-232.362C685.516,-224.186 696.208,-212.702 705.157,-203.091"/>
<polygon fill="midnightblue" stroke="midnightblue" points="707.906,-205.275 712.158,-195.571 702.783,-200.505 707.906,-205.275"/>
</g>
<!-- Node25 -->
<g id="node69" class="node"><title>Node25</title>
<polygon fill="white" stroke="#bfbfbf" points="765.5,-174.5 765.5,-195.5 820.5,-195.5 820.5,-174.5 765.5,-174.5"/>
<text text-anchor="middle" x="793" y="-182.5" font-family="Helvetica,sans-Serif" font-size="10.00">QObject</text>
</g>
<!-- Node6&#45;&gt;Node25 -->
<g id="edge88" class="edge"><title>Node6&#45;&gt;Node25</title>
<path fill="none" stroke="midnightblue" d="M690.637,-232.497C710.248,-223.397 738.846,-210.127 760.833,-199.925"/>
<polygon fill="midnightblue" stroke="midnightblue" points="762.512,-203.005 770.109,-195.621 759.565,-196.655 762.512,-203.005"/>
</g>
<!-- Node7&#45;&gt;Node2 -->
<g id="edge18" class="edge"><title>Node7&#45;&gt;Node2</title>
<path fill="none" stroke="midnightblue" d="M326.312,-116.483C312.997,-103.155 294.159,-79.3447 303,-58 307.85,-46.291 317.189,-35.9781 326.273,-28.0186"/>
<polygon fill="midnightblue" stroke="midnightblue" points="328.537,-30.6885 334.071,-21.6536 324.11,-25.2657 328.537,-30.6885"/>
</g>
<!-- Node7&#45;&gt;Node4 -->
<g id="edge20" class="edge"><title>Node7&#45;&gt;Node4</title>
<path fill="none" stroke="midnightblue" d="M355.853,-116.41C382.831,-100.927 436.044,-72.3952 485,-58 599.904,-24.2131 743.181,-14.6314 805.115,-11.9811"/>
<polygon fill="midnightblue" stroke="midnightblue" points="805.514,-15.4681 815.367,-11.5749 805.237,-8.47362 805.514,-15.4681"/>
</g>
<!-- Node8 -->
<g id="node19" class="node"><title>Node8</title>
<polygon fill="white" stroke="#bfbfbf" points="312,-58.5 312,-79.5 362,-79.5 362,-58.5 312,-58.5"/>
<text text-anchor="middle" x="337" y="-66.5" font-family="Helvetica,sans-Serif" font-size="10.00">stdint.h</text>
</g>
<!-- Node7&#45;&gt;Node8 -->
<g id="edge22" class="edge"><title>Node7&#45;&gt;Node8</title>
<path fill="none" stroke="midnightblue" d="M337.817,-116.362C337.688,-108.922 337.513,-98.7427 337.357,-89.7276"/>
<polygon fill="midnightblue" stroke="midnightblue" points="340.854,-89.5088 337.182,-79.5707 333.855,-89.6295 340.854,-89.5088"/>
</g>
<!-- Node9&#45;&gt;Node2 -->
<g id="edge26" class="edge"><title>Node9&#45;&gt;Node2</title>
<path fill="none" stroke="midnightblue" d="M942.855,-116.431C943.46,-100.976 942.002,-72.4777 925,-58 884.855,-23.8141 521.689,-14.0675 394.086,-11.6851"/>
<polygon fill="midnightblue" stroke="midnightblue" points="393.957,-8.18231 383.896,-11.5013 393.831,-15.1812 393.957,-8.18231"/>
</g>
<!-- Node9&#45;&gt;Node4 -->
<g id="edge34" class="edge"><title>Node9&#45;&gt;Node4</title>
<path fill="none" stroke="midnightblue" d="M949.299,-116.224C958.092,-101.766 970.248,-75.8437 958,-58 947.337,-42.4647 899.188,-27.3109 866.662,-18.5784"/>
<polygon fill="midnightblue" stroke="midnightblue" points="867.279,-15.1219 856.719,-15.9765 865.507,-21.8939 867.279,-15.1219"/>
</g>
<!-- Node9&#45;&gt;Node10 -->
<g id="edge28" class="edge"><title>Node9&#45;&gt;Node10</title>
<path fill="none" stroke="midnightblue" d="M933.379,-116.362C926.82,-108.268 917.634,-96.9318 909.894,-87.3796"/>
<polygon fill="midnightblue" stroke="midnightblue" points="912.581,-85.1364 903.566,-79.5707 907.142,-89.5436 912.581,-85.1364"/>
</g>
<!-- Node10&#45;&gt;Node2 -->
<g id="edge30" class="edge"><title>Node10&#45;&gt;Node2</title>
<path fill="none" stroke="midnightblue" d="M873.243,-60.2772C870.5,-59.3991 867.706,-58.6086 865,-58 775.567,-37.8858 501.136,-19.956 393.739,-13.5236"/>
<polygon fill="midnightblue" stroke="midnightblue" points="393.768,-10.0193 383.578,-12.9196 393.353,-17.0069 393.768,-10.0193"/>
</g>
<!-- Node10&#45;&gt;Node4 -->
<g id="edge32" class="edge"><title>Node10&#45;&gt;Node4</title>
<path fill="none" stroke="midnightblue" d="M884.178,-58.3619C875.779,-50.1043 863.946,-38.4725 854.11,-28.8029"/>
<polygon fill="midnightblue" stroke="midnightblue" points="856.338,-26.0851 846.753,-21.5707 851.431,-31.077 856.338,-26.0851"/>
</g>
<!-- Node11&#45;&gt;Node2 -->
<g id="edge38" class="edge"><title>Node11&#45;&gt;Node2</title>
<path fill="none" stroke="midnightblue" d="M520.65,-116.295C487.41,-95.7846 414.6,-50.8594 375.7,-26.8575"/>
<polygon fill="midnightblue" stroke="midnightblue" points="377.384,-23.7841 367.036,-21.5117 373.709,-29.7414 377.384,-23.7841"/>
</g>
<!-- Node11&#45;&gt;Node4 -->
<g id="edge42" class="edge"><title>Node11&#45;&gt;Node4</title>
<path fill="none" stroke="midnightblue" d="M564.282,-118.389C567.21,-117.534 570.16,-116.719 573,-116 654.628,-95.344 683.586,-117.45 759,-80 783.78,-67.6945 806.633,-45.1942 820.897,-29.236"/>
<polygon fill="midnightblue" stroke="midnightblue" points="823.632,-31.4245 827.538,-21.5759 818.343,-26.8391 823.632,-31.4245"/>
</g>
<!-- Node11&#45;&gt;Node8 -->
<g id="edge40" class="edge"><title>Node11&#45;&gt;Node8</title>
<path fill="none" stroke="midnightblue" d="M511.723,-119.418C475.894,-109.079 411.631,-90.5352 371.823,-79.0486"/>
<polygon fill="midnightblue" stroke="midnightblue" points="372.597,-75.6291 362.019,-76.2193 370.656,-82.3547 372.597,-75.6291"/>
</g>
<!-- Node11&#45;&gt;Node10 -->
<g id="edge52" class="edge"><title>Node11&#45;&gt;Node10</title>
<path fill="none" stroke="midnightblue" d="M564.236,-118.192C567.172,-117.374 570.137,-116.621 573,-116 697.669,-88.9595 736.031,-109.643 863.485,-79.964"/>
<polygon fill="midnightblue" stroke="midnightblue" points="864.309,-83.3656 873.224,-77.6397 862.684,-76.5569 864.309,-83.3656"/>
</g>
<!-- Node12 -->
<g id="node34" class="node"><title>Node12</title>
<polygon fill="white" stroke="#bfbfbf" points="599.5,-58.5 599.5,-79.5 646.5,-79.5 646.5,-58.5 599.5,-58.5"/>
<text text-anchor="middle" x="623" y="-66.5" font-family="Helvetica,sans-Serif" font-size="10.00">stdio.h</text>
</g>
<!-- Node11&#45;&gt;Node12 -->
<g id="edge44" class="edge"><title>Node11&#45;&gt;Node12</title>
<path fill="none" stroke="midnightblue" d="M553.59,-116.362C566.291,-107.696 584.438,-95.3126 598.992,-85.3819"/>
<polygon fill="midnightblue" stroke="midnightblue" points="601.221,-88.0982 607.509,-79.5707 597.276,-82.316 601.221,-88.0982"/>
</g>
<!-- Node11&#45;&gt;Node13 -->
<g id="edge46" class="edge"><title>Node11&#45;&gt;Node13</title>
<path fill="none" stroke="midnightblue" d="M564.262,-118.308C567.194,-117.468 570.15,-116.679 573,-116 668.958,-93.1554 695.715,-101.422 792,-80 793.064,-79.7632 794.143,-79.5147 795.23,-79.2569"/>
<polygon fill="midnightblue" stroke="midnightblue" points="796.263,-82.6055 805.09,-76.745 794.535,-75.8221 796.263,-82.6055"/>
</g>
<!-- Node14 -->
<g id="node38" class="node"><title>Node14</title>
<polygon fill="white" stroke="#bfbfbf" points="664,-58.5 664,-79.5 750,-79.5 750,-58.5 664,-58.5"/>
<text text-anchor="middle" x="707" y="-66.5" font-family="Helvetica,sans-Serif" font-size="10.00">qnamespace.h</text>
</g>
<!-- Node11&#45;&gt;Node14 -->
<g id="edge48" class="edge"><title>Node11&#45;&gt;Node14</title>
<path fill="none" stroke="midnightblue" d="M564.036,-118.065C591.474,-108.648 635.044,-93.695 666.879,-82.7692"/>
<polygon fill="midnightblue" stroke="midnightblue" points="668.029,-86.075 676.352,-79.5183 665.757,-79.454 668.029,-86.075"/>
</g>
<!-- Node15 -->
<g id="node40" class="node"><title>Node15</title>
<polygon fill="white" stroke="#bfbfbf" points="494,-58.5 494,-79.5 582,-79.5 582,-58.5 494,-58.5"/>
<text text-anchor="middle" x="538" y="-66.5" font-family="Helvetica,sans-Serif" font-size="10.00">SysMgrEvent.h</text>
</g>
<!-- Node11&#45;&gt;Node15 -->
<g id="edge50" class="edge"><title>Node11&#45;&gt;Node15</title>
<path fill="none" stroke="midnightblue" d="M538,-116.362C538,-108.922 538,-98.7427 538,-89.7276"/>
<polygon fill="midnightblue" stroke="midnightblue" points="541.5,-89.5706 538,-79.5707 534.5,-89.5707 541.5,-89.5706"/>
</g>
<!-- Node16&#45;&gt;Node2 -->
<g id="edge58" class="edge"><title>Node16&#45;&gt;Node2</title>
<path fill="none" stroke="midnightblue" d="M562.425,-174.447C546.434,-165.212 522.866,-151.238 503,-138 466.753,-113.846 457.542,-107.789 424,-80 404.141,-63.5474 382.723,-43.2723 368.064,-28.9701"/>
<polygon fill="midnightblue" stroke="midnightblue" points="370.254,-26.215 360.669,-21.7011 365.347,-31.2071 370.254,-26.215"/>
</g>
<!-- Node16&#45;&gt;Node5 -->
<g id="edge60" class="edge"><title>Node16&#45;&gt;Node5</title>
<path fill="none" stroke="midnightblue" d="M596.957,-174.362C609.957,-165.696 628.531,-153.313 643.427,-143.382"/>
<polygon fill="midnightblue" stroke="midnightblue" points="645.765,-146.03 652.144,-137.571 641.882,-140.206 645.765,-146.03"/>
</g>
<!-- Node17 -->
<g id="node48" class="node"><title>Node17</title>
<polygon fill="white" stroke="#bfbfbf" points="581.5,-116.5 581.5,-137.5 610.5,-137.5 610.5,-116.5 581.5,-116.5"/>
<text text-anchor="middle" x="596" y="-124.5" font-family="Helvetica,sans-Serif" font-size="10.00">list</text>
</g>
<!-- Node16&#45;&gt;Node17 -->
<g id="edge62" class="edge"><title>Node16&#45;&gt;Node17</title>
<path fill="none" stroke="midnightblue" d="M583.751,-174.362C585.697,-166.84 588.366,-156.519 590.716,-147.431"/>
<polygon fill="midnightblue" stroke="midnightblue" points="594.151,-148.128 593.266,-137.571 587.374,-146.376 594.151,-148.128"/>
</g>
<!-- Node18&#45;&gt;Node2 -->
<g id="edge66" class="edge"><title>Node18&#45;&gt;Node2</title>
<path fill="none" stroke="midnightblue" d="M327.487,-174.454C319.311,-165.546 308.467,-152.029 303,-138 290.054,-104.778 282.374,-90.5177 297,-58 302.518,-45.7325 312.995,-35.3682 323.187,-27.52"/>
<polygon fill="midnightblue" stroke="midnightblue" points="325.464,-30.1944 331.566,-21.5328 321.395,-24.499 325.464,-30.1944"/>
</g>
<!-- Node18&#45;&gt;Node7 -->
<g id="edge68" class="edge"><title>Node18&#45;&gt;Node7</title>
<path fill="none" stroke="midnightblue" d="M338,-174.362C338,-166.922 338,-156.743 338,-147.728"/>
<polygon fill="midnightblue" stroke="midnightblue" points="341.5,-147.571 338,-137.571 334.5,-147.571 341.5,-147.571"/>
</g>
<!-- Node18&#45;&gt;Node11 -->
<g id="edge70" class="edge"><title>Node18&#45;&gt;Node11</title>
<path fill="none" stroke="midnightblue" d="M374.218,-174.497C410.54,-163.963 466.128,-147.843 502.274,-137.36"/>
<polygon fill="midnightblue" stroke="midnightblue" points="503.292,-140.71 511.922,-134.563 501.342,-133.987 503.292,-140.71"/>
</g>
<!-- Node19 -->
<g id="node55" class="node"><title>Node19</title>
<a xlink:href="Settings_8h.htm" target="_top" xlink:title="Settings.h">
<polygon fill="white" stroke="black" points="79.5,-58.5 79.5,-79.5 142.5,-79.5 142.5,-58.5 79.5,-58.5"/>
<text text-anchor="middle" x="111" y="-66.5" font-family="Helvetica,sans-Serif" font-size="10.00">Settings.h</text>
</a>
</g>
<!-- Node18&#45;&gt;Node19 -->
<g id="edge72" class="edge"><title>Node18&#45;&gt;Node19</title>
<path fill="none" stroke="midnightblue" d="M317.051,-174.295C276.491,-153.568 187.141,-107.909 140.559,-84.105"/>
<polygon fill="midnightblue" stroke="midnightblue" points="142.068,-80.9455 131.57,-79.5117 138.882,-87.1788 142.068,-80.9455"/>
</g>
<!-- Node19&#45;&gt;Node2 -->
<g id="edge74" class="edge"><title>Node19&#45;&gt;Node2</title>
<path fill="none" stroke="midnightblue" d="M142.956,-61.18C147.338,-60.11 151.78,-59.0269 156,-58 207.73,-45.4113 267.237,-31.0058 306.559,-21.4975"/>
<polygon fill="midnightblue" stroke="midnightblue" points="307.452,-24.8823 316.35,-19.1302 305.807,-18.0783 307.452,-24.8823"/>
</g>
<!-- Node19&#45;&gt;Node4 -->
<g id="edge82" class="edge"><title>Node19&#45;&gt;Node4</title>
<path fill="none" stroke="midnightblue" d="M142.619,-66.4705C262.343,-56.8926 687.044,-22.9165 805.261,-13.4591"/>
<polygon fill="midnightblue" stroke="midnightblue" points="805.729,-16.9329 815.418,-12.6465 805.171,-9.95523 805.729,-16.9329"/>
</g>
<!-- Node20 -->
<g id="node58" class="node"><title>Node20</title>
<polygon fill="white" stroke="#bfbfbf" points="-0.5,-0.5 -0.5,-21.5 42.5,-21.5 42.5,-0.5 -0.5,-0.5"/>
<text text-anchor="middle" x="21" y="-8.5" font-family="Helvetica,sans-Serif" font-size="10.00">string</text>
</g>
<!-- Node19&#45;&gt;Node20 -->
<g id="edge76" class="edge"><title>Node19&#45;&gt;Node20</title>
<path fill="none" stroke="midnightblue" d="M94.4926,-58.3619C80.9179,-49.6138 61.4668,-37.0786 45.985,-27.1015"/>
<polygon fill="midnightblue" stroke="midnightblue" points="47.7044,-24.0457 37.4027,-21.5707 43.9125,-29.9297 47.7044,-24.0457"/>
</g>
<!-- Node21 -->
<g id="node60" class="node"><title>Node21</title>
<polygon fill="white" stroke="#bfbfbf" points="60,-0.5 60,-21.5 106,-21.5 106,-0.5 60,-0.5"/>
<text text-anchor="middle" x="83" y="-8.5" font-family="Helvetica,sans-Serif" font-size="10.00">vector</text>
</g>
<!-- Node19&#45;&gt;Node21 -->
<g id="edge78" class="edge"><title>Node19&#45;&gt;Node21</title>
<path fill="none" stroke="midnightblue" d="M105.864,-58.3619C102.154,-50.6766 97.0331,-40.0686 92.5779,-30.8399"/>
<polygon fill="midnightblue" stroke="midnightblue" points="95.6026,-29.0545 88.1031,-21.5707 89.2987,-32.0978 95.6026,-29.0545"/>
</g>
<!-- Node22 -->
<g id="node62" class="node"><title>Node22</title>
<polygon fill="white" stroke="#bfbfbf" points="123.5,-0.5 123.5,-21.5 154.5,-21.5 154.5,-0.5 123.5,-0.5"/>
<text text-anchor="middle" x="139" y="-8.5" font-family="Helvetica,sans-Serif" font-size="10.00">set</text>
</g>
<!-- Node19&#45;&gt;Node22 -->
<g id="edge80" class="edge"><title>Node19&#45;&gt;Node22</title>
<path fill="none" stroke="midnightblue" d="M116.136,-58.3619C119.846,-50.6766 124.967,-40.0686 129.422,-30.8399"/>
<polygon fill="midnightblue" stroke="midnightblue" points="132.701,-32.0978 133.897,-21.5707 126.397,-29.0545 132.701,-32.0978"/>
</g>
<!-- Node23 -->
<g id="node65" class="node"><title>Node23</title>
<polygon fill="white" stroke="#bfbfbf" points="172,-0.5 172,-21.5 230,-21.5 230,-0.5 172,-0.5"/>
<text text-anchor="middle" x="201" y="-8.5" font-family="Helvetica,sans-Serif" font-size="10.00">QtGlobal</text>
</g>
<!-- Node19&#45;&gt;Node23 -->
<g id="edge84" class="edge"><title>Node19&#45;&gt;Node23</title>
<path fill="none" stroke="midnightblue" d="M127.507,-58.3619C141.082,-49.6138 160.533,-37.0786 176.015,-27.1015"/>
<polygon fill="midnightblue" stroke="midnightblue" points="178.088,-29.9297 184.597,-21.5707 174.296,-24.0457 178.088,-29.9297"/>
</g>
</g>
</svg>
