<?xml version="1.0" encoding="UTF-8" standalone="no"?>
<!DOCTYPE svg PUBLIC "-//W3C//DTD SVG 1.1//EN"
 "http://www.w3.org/Graphics/SVG/1.1/DTD/svg11.dtd">
<!-- Generated by graphviz version 2.26.3 (20100126.1600)
 -->
<!-- Title: G Pages: 1 -->
<svg width="2268pt" height="320pt"
 viewBox="0.00 0.00 2268.00 320.00" xmlns="http://www.w3.org/2000/svg" xmlns:xlink="http://www.w3.org/1999/xlink">
<g id="graph1" class="graph" transform="scale(1 1) rotate(0) translate(4 316)">
<title>G</title>
<polygon fill="white" stroke="white" points="-4,5 -4,-316 2265,-316 2265,5 -4,5"/>
<!-- Node1 -->
<g id="node1" class="node"><title>Node1</title>
<polygon fill="#bfbfbf" stroke="black" points="384,-290.5 384,-311.5 532,-311.5 532,-290.5 384,-290.5"/>
<text text-anchor="middle" x="458" y="-298.5" font-family="Helvetica,sans-Serif" font-size="10.00">sysmgrdebuggerservice.cpp</text>
</g>
<!-- Node2 -->
<g id="node3" class="node"><title>Node2</title>
<a xlink:href="sysmgrdebuggerservice_8h.htm" target="_top" xlink:title="sysmgrdebuggerservice.h">
<polygon fill="white" stroke="black" points="70.5,-232.5 70.5,-253.5 207.5,-253.5 207.5,-232.5 70.5,-232.5"/>
<text text-anchor="middle" x="139" y="-240.5" font-family="Helvetica,sans-Serif" font-size="10.00">sysmgrdebuggerservice.h</text>
</a>
</g>
<!-- Node1&#45;&gt;Node2 -->
<g id="edge2" class="edge"><title>Node1&#45;&gt;Node2</title>
<path fill="none" stroke="midnightblue" d="M400.232,-290.497C345.862,-280.611 264.426,-265.805 206.958,-255.356"/>
<polygon fill="midnightblue" stroke="midnightblue" points="207.342,-251.868 196.877,-253.523 206.089,-258.756 207.342,-251.868"/>
</g>
<!-- Node6 -->
<g id="node11" class="node"><title>Node6</title>
<polygon fill="white" stroke="#bfbfbf" points="224,-174.5 224,-195.5 296,-195.5 296,-174.5 224,-174.5"/>
<text text-anchor="middle" x="260" y="-182.5" font-family="Helvetica,sans-Serif" font-size="10.00">cjson/json.h</text>
</g>
<!-- Node1&#45;&gt;Node6 -->
<g id="edge10" class="edge"><title>Node1&#45;&gt;Node6</title>
<path fill="none" stroke="midnightblue" d="M439.728,-290.295C404.645,-269.741 327.712,-224.67 286.808,-200.706"/>
<polygon fill="midnightblue" stroke="midnightblue" points="288.34,-197.547 277.942,-195.512 284.801,-203.587 288.34,-197.547"/>
</g>
<!-- Node7 -->
<g id="node13" class="node"><title>Node7</title>
<polygon fill="white" stroke="#bfbfbf" points="840.5,-0.5 840.5,-21.5 881.5,-21.5 881.5,-0.5 840.5,-0.5"/>
<text text-anchor="middle" x="861" y="-8.5" font-family="Helvetica,sans-Serif" font-size="10.00">glib.h</text>
</g>
<!-- Node1&#45;&gt;Node7 -->
<g id="edge12" class="edge"><title>Node1&#45;&gt;Node7</title>
<path fill="none" stroke="midnightblue" d="M498.171,-290.461C566.493,-271.343 698,-228.849 698,-185 698,-185 698,-185 698,-127 698,-62.6061 783.489,-30.6421 830.644,-17.9091"/>
<polygon fill="midnightblue" stroke="midnightblue" points="831.543,-21.2919 840.356,-15.4116 829.799,-14.5125 831.543,-21.2919"/>
</g>
<!-- Node8 -->
<g id="node15" class="node"><title>Node8</title>
<polygon fill="white" stroke="#bfbfbf" points="1715,-232.5 1715,-253.5 1793,-253.5 1793,-232.5 1715,-232.5"/>
<text text-anchor="middle" x="1754" y="-240.5" font-family="Helvetica,sans-Serif" font-size="10.00">lunaservice.h</text>
</g>
<!-- Node1&#45;&gt;Node8 -->
<g id="edge14" class="edge"><title>Node1&#45;&gt;Node8</title>
<path fill="none" stroke="midnightblue" d="M532.018,-300.035C761.125,-296.765 1457.55,-284.624 1704.8,-253.898"/>
<polygon fill="midnightblue" stroke="midnightblue" points="1705.34,-257.357 1714.82,-252.61 1704.45,-250.414 1705.34,-257.357"/>
</g>
<!-- Node9 -->
<g id="node17" class="node"><title>Node9</title>
<a xlink:href="HostBase_8h.htm" target="_top" xlink:title="HostBase.h">
<polygon fill="white" stroke="black" points="1626.5,-232.5 1626.5,-253.5 1697.5,-253.5 1697.5,-232.5 1626.5,-232.5"/>
<text text-anchor="middle" x="1662" y="-240.5" font-family="Helvetica,sans-Serif" font-size="10.00">HostBase.h</text>
</a>
</g>
<!-- Node1&#45;&gt;Node9 -->
<g id="edge16" class="edge"><title>Node1&#45;&gt;Node9</title>
<path fill="none" stroke="midnightblue" d="M532.407,-297.416C758.726,-286.513 1434.46,-253.961 1616.44,-245.195"/>
<polygon fill="midnightblue" stroke="midnightblue" points="1616.65,-248.689 1626.47,-244.712 1616.31,-241.697 1616.65,-248.689"/>
</g>
<!-- Node33 -->
<g id="node82" class="node"><title>Node33</title>
<polygon fill="white" stroke="#bfbfbf" points="313.5,-174.5 313.5,-195.5 368.5,-195.5 368.5,-174.5 313.5,-174.5"/>
<text text-anchor="middle" x="341" y="-182.5" font-family="Helvetica,sans-Serif" font-size="10.00">QDebug</text>
</g>
<!-- Node1&#45;&gt;Node33 -->
<g id="edge98" class="edge"><title>Node1&#45;&gt;Node33</title>
<path fill="none" stroke="midnightblue" d="M444.753,-290.198C433.585,-280.922 417.338,-267.025 404,-254 387.119,-237.516 369.083,-217.489 356.654,-203.266"/>
<polygon fill="midnightblue" stroke="midnightblue" points="359.231,-200.895 350.035,-195.633 353.942,-205.481 359.231,-200.895"/>
</g>
<!-- Node34 -->
<g id="node84" class="node"><title>Node34</title>
<a xlink:href="qtjsonabstract_8h.htm" target="_top" xlink:title="qtjsonabstract.h">
<polygon fill="white" stroke="black" points="412.5,-232.5 412.5,-253.5 503.5,-253.5 503.5,-232.5 412.5,-232.5"/>
<text text-anchor="middle" x="458" y="-240.5" font-family="Helvetica,sans-Serif" font-size="10.00">qtjsonabstract.h</text>
</a>
</g>
<!-- Node1&#45;&gt;Node34 -->
<g id="edge100" class="edge"><title>Node1&#45;&gt;Node34</title>
<path fill="none" stroke="midnightblue" d="M458,-290.362C458,-282.922 458,-272.743 458,-263.728"/>
<polygon fill="midnightblue" stroke="midnightblue" points="461.5,-263.571 458,-253.571 454.5,-263.571 461.5,-263.571"/>
</g>
<!-- Node3 -->
<g id="node5" class="node"><title>Node3</title>
<polygon fill="white" stroke="#bfbfbf" points="-0.5,-174.5 -0.5,-195.5 54.5,-195.5 54.5,-174.5 -0.5,-174.5"/>
<text text-anchor="middle" x="27" y="-182.5" font-family="Helvetica,sans-Serif" font-size="10.00">QObject</text>
</g>
<!-- Node2&#45;&gt;Node3 -->
<g id="edge4" class="edge"><title>Node2&#45;&gt;Node3</title>
<path fill="none" stroke="midnightblue" d="M118.718,-232.497C101.382,-223.519 76.2096,-210.484 56.6196,-200.339"/>
<polygon fill="midnightblue" stroke="midnightblue" points="57.9994,-197.112 47.5099,-195.621 54.7804,-203.328 57.9994,-197.112"/>
</g>
<!-- Node4 -->
<g id="node7" class="node"><title>Node4</title>
<polygon fill="white" stroke="#bfbfbf" points="71.5,-174.5 71.5,-195.5 130.5,-195.5 130.5,-174.5 71.5,-174.5"/>
<text text-anchor="middle" x="101" y="-182.5" font-family="Helvetica,sans-Serif" font-size="10.00">QPointer</text>
</g>
<!-- Node2&#45;&gt;Node4 -->
<g id="edge6" class="edge"><title>Node2&#45;&gt;Node4</title>
<path fill="none" stroke="midnightblue" d="M132.03,-232.362C126.834,-224.431 119.599,-213.389 113.422,-203.961"/>
<polygon fill="midnightblue" stroke="midnightblue" points="116.334,-202.017 107.926,-195.571 110.478,-205.853 116.334,-202.017"/>
</g>
<!-- Node5 -->
<g id="node9" class="node"><title>Node5</title>
<polygon fill="white" stroke="#bfbfbf" points="148,-174.5 148,-195.5 206,-195.5 206,-174.5 148,-174.5"/>
<text text-anchor="middle" x="177" y="-182.5" font-family="Helvetica,sans-Serif" font-size="10.00">QtGlobal</text>
</g>
<!-- Node2&#45;&gt;Node5 -->
<g id="edge8" class="edge"><title>Node2&#45;&gt;Node5</title>
<path fill="none" stroke="midnightblue" d="M145.97,-232.362C151.166,-224.431 158.401,-213.389 164.578,-203.961"/>
<polygon fill="midnightblue" stroke="midnightblue" points="167.522,-205.853 170.074,-195.571 161.666,-202.017 167.522,-205.853"/>
</g>
<!-- Node10 -->
<g id="node19" class="node"><title>Node10</title>
<a xlink:href="Common_8h.htm" target="_top" xlink:title="Common.h">
<polygon fill="white" stroke="black" points="1464.5,-0.5 1464.5,-21.5 1531.5,-21.5 1531.5,-0.5 1464.5,-0.5"/>
<text text-anchor="middle" x="1498" y="-8.5" font-family="Helvetica,sans-Serif" font-size="10.00">Common.h</text>
</a>
</g>
<!-- Node9&#45;&gt;Node10 -->
<g id="edge18" class="edge"><title>Node9&#45;&gt;Node10</title>
<path fill="none" stroke="midnightblue" d="M1645.88,-232.176C1633.93,-223.508 1617.89,-210.442 1607,-196 1566.41,-142.162 1582.15,-113.591 1544,-58 1536.68,-47.3329 1526.83,-36.9007 1518.12,-28.5854"/>
<polygon fill="midnightblue" stroke="midnightblue" points="1520.27,-25.8084 1510.55,-21.5979 1515.52,-30.9523 1520.27,-25.8084"/>
</g>
<!-- Node11 -->
<g id="node21" class="node"><title>Node11</title>
<polygon fill="white" stroke="#bfbfbf" points="1725.5,-174.5 1725.5,-195.5 1802.5,-195.5 1802.5,-174.5 1725.5,-174.5"/>
<text text-anchor="middle" x="1764" y="-182.5" font-family="Helvetica,sans-Serif" font-size="10.00">PGContext.h</text>
</g>
<!-- Node9&#45;&gt;Node11 -->
<g id="edge20" class="edge"><title>Node9&#45;&gt;Node11</title>
<path fill="none" stroke="midnightblue" d="M1680.71,-232.362C1696.38,-223.45 1718.96,-210.609 1736.66,-200.545"/>
<polygon fill="midnightblue" stroke="midnightblue" points="1738.45,-203.556 1745.41,-195.571 1734.99,-197.471 1738.45,-203.556"/>
</g>
<!-- Node12 -->
<g id="node23" class="node"><title>Node12</title>
<polygon fill="white" stroke="#bfbfbf" points="1820,-174.5 1820,-195.5 1888,-195.5 1888,-174.5 1820,-174.5"/>
<text text-anchor="middle" x="1854" y="-182.5" font-family="Helvetica,sans-Serif" font-size="10.00">PContext.h</text>
</g>
<!-- Node9&#45;&gt;Node12 -->
<g id="edge22" class="edge"><title>Node9&#45;&gt;Node12</title>
<path fill="none" stroke="midnightblue" d="M1696.77,-232.497C1728.54,-222.9 1775.66,-208.665 1810.03,-198.282"/>
<polygon fill="midnightblue" stroke="midnightblue" points="1811.25,-201.57 1819.81,-195.328 1809.23,-194.869 1811.25,-201.57"/>
</g>
<!-- Node13 -->
<g id="node25" class="node"><title>Node13</title>
<polygon fill="white" stroke="#bfbfbf" points="1906,-174.5 1906,-195.5 1972,-195.5 1972,-174.5 1906,-174.5"/>
<text text-anchor="middle" x="1939" y="-182.5" font-family="Helvetica,sans-Serif" font-size="10.00">PPixmap.h</text>
</g>
<!-- Node9&#45;&gt;Node13 -->
<g id="edge24" class="edge"><title>Node9&#45;&gt;Node13</title>
<path fill="none" stroke="midnightblue" d="M1697.98,-233.823C1700.69,-233.188 1703.38,-232.573 1706,-232 1787.33,-214.184 1811.03,-214.877 1895.79,-196.166"/>
<polygon fill="midnightblue" stroke="midnightblue" points="1896.58,-199.573 1905.58,-193.978 1895.06,-192.742 1896.58,-199.573"/>
</g>
<!-- Node14 -->
<g id="node27" class="node"><title>Node14</title>
<a xlink:href="TaskBase_8h.htm" target="_top" xlink:title="TaskBase.h">
<polygon fill="white" stroke="black" points="1249,-174.5 1249,-195.5 1321,-195.5 1321,-174.5 1249,-174.5"/>
<text text-anchor="middle" x="1285" y="-182.5" font-family="Helvetica,sans-Serif" font-size="10.00">TaskBase.h</text>
</a>
</g>
<!-- Node9&#45;&gt;Node14 -->
<g id="edge26" class="edge"><title>Node9&#45;&gt;Node14</title>
<path fill="none" stroke="midnightblue" d="M1626.19,-237.491C1557.56,-226.932 1407.54,-203.852 1331.36,-192.133"/>
<polygon fill="midnightblue" stroke="midnightblue" points="1331.54,-188.618 1321.12,-190.557 1330.47,-195.537 1331.54,-188.618"/>
</g>
<!-- Node24 -->
<g id="node56" class="node"><title>Node24</title>
<a xlink:href="Mutex_8h.htm" target="_top" xlink:title="Mutex.h">
<polygon fill="white" stroke="black" points="834.5,-116.5 834.5,-137.5 887.5,-137.5 887.5,-116.5 834.5,-116.5"/>
<text text-anchor="middle" x="861" y="-124.5" font-family="Helvetica,sans-Serif" font-size="10.00">Mutex.h</text>
</a>
</g>
<!-- Node9&#45;&gt;Node24 -->
<g id="edge80" class="edge"><title>Node9&#45;&gt;Node24</title>
<path fill="none" stroke="midnightblue" d="M1626.33,-240.919C1538.1,-235.47 1311.6,-219.557 1240,-196 1221.46,-189.901 1220.46,-180.34 1202,-174 1146.2,-154.831 973.598,-137.271 897.582,-130.242"/>
<polygon fill="midnightblue" stroke="midnightblue" points="897.796,-126.747 887.519,-129.321 897.158,-133.718 897.796,-126.747"/>
</g>
<!-- Node26 -->
<g id="node67" class="node"><title>Node26</title>
<a xlink:href="CustomEvents_8h.htm" target="_top" xlink:title="CustomEvents.h">
<polygon fill="white" stroke="black" points="1616,-174.5 1616,-195.5 1708,-195.5 1708,-174.5 1616,-174.5"/>
<text text-anchor="middle" x="1662" y="-182.5" font-family="Helvetica,sans-Serif" font-size="10.00">CustomEvents.h</text>
</a>
</g>
<!-- Node9&#45;&gt;Node26 -->
<g id="edge82" class="edge"><title>Node9&#45;&gt;Node26</title>
<path fill="none" stroke="midnightblue" d="M1662,-232.362C1662,-224.922 1662,-214.743 1662,-205.728"/>
<polygon fill="midnightblue" stroke="midnightblue" points="1665.5,-205.571 1662,-195.571 1658.5,-205.571 1665.5,-205.571"/>
</g>
<!-- Node28 -->
<g id="node72" class="node"><title>Node28</title>
<a xlink:href="InputControl_8h.htm" target="_top" xlink:title="InputControl.h">
<polygon fill="white" stroke="black" points="1989.5,-174.5 1989.5,-195.5 2072.5,-195.5 2072.5,-174.5 1989.5,-174.5"/>
<text text-anchor="middle" x="2031" y="-182.5" font-family="Helvetica,sans-Serif" font-size="10.00">InputControl.h</text>
</a>
</g>
<!-- Node9&#45;&gt;Node28 -->
<g id="edge88" class="edge"><title>Node9&#45;&gt;Node28</title>
<path fill="none" stroke="midnightblue" d="M1697.94,-233.657C1700.66,-233.06 1703.37,-232.499 1706,-232 1823.91,-209.62 1857.81,-216.849 1979.25,-196.194"/>
<polygon fill="midnightblue" stroke="midnightblue" points="1980.05,-199.607 1989.31,-194.454 1978.86,-192.71 1980.05,-199.607"/>
</g>
<!-- Node30 -->
<g id="node76" class="node"><title>Node30</title>
<polygon fill="white" stroke="#bfbfbf" points="2089.5,-174.5 2089.5,-195.5 2214.5,-195.5 2214.5,-174.5 2089.5,-174.5"/>
<text text-anchor="middle" x="2152" y="-182.5" font-family="Helvetica,sans-Serif" font-size="10.00">webosDeviceKeymap.h</text>
</g>
<!-- Node9&#45;&gt;Node30 -->
<g id="edge92" class="edge"><title>Node9&#45;&gt;Node30</title>
<path fill="none" stroke="midnightblue" d="M1697.93,-233.554C1700.65,-232.981 1703.36,-232.454 1706,-232 1867.79,-204.171 1913.11,-216.326 2079.23,-196.159"/>
<polygon fill="midnightblue" stroke="midnightblue" points="2079.81,-199.614 2089.31,-194.915 2078.95,-192.667 2079.81,-199.614"/>
</g>
<!-- Node31 -->
<g id="node78" class="node"><title>Node31</title>
<polygon fill="white" stroke="#bfbfbf" points="2231.5,-174.5 2231.5,-195.5 2260.5,-195.5 2260.5,-174.5 2231.5,-174.5"/>
<text text-anchor="middle" x="2246" y="-182.5" font-family="Helvetica,sans-Serif" font-size="10.00">Qt</text>
</g>
<!-- Node9&#45;&gt;Node31 -->
<g id="edge94" class="edge"><title>Node9&#45;&gt;Node31</title>
<path fill="none" stroke="midnightblue" d="M1697.91,-233.476C1700.64,-232.921 1703.36,-232.419 1706,-232 1930.27,-196.44 1998.35,-253.081 2221.5,-195.61"/>
<polygon fill="midnightblue" stroke="midnightblue" points="2222.43,-198.985 2231.22,-193.062 2220.66,-192.214 2222.43,-198.985"/>
</g>
<!-- Node32 -->
<g id="node80" class="node"><title>Node32</title>
<polygon fill="white" stroke="#bfbfbf" points="1139,-174.5 1139,-195.5 1193,-195.5 1193,-174.5 1139,-174.5"/>
<text text-anchor="middle" x="1166" y="-182.5" font-family="Helvetica,sans-Serif" font-size="10.00">QImage</text>
</g>
<!-- Node9&#45;&gt;Node32 -->
<g id="edge96" class="edge"><title>Node9&#45;&gt;Node32</title>
<path fill="none" stroke="midnightblue" d="M1626.33,-241.251C1549.25,-237.048 1361.63,-224.541 1207,-196 1205.74,-195.767 1204.45,-195.514 1203.16,-195.246"/>
<polygon fill="midnightblue" stroke="midnightblue" points="1203.74,-191.787 1193.21,-192.948 1202.17,-198.608 1203.74,-191.787"/>
</g>
<!-- Node14&#45;&gt;Node7 -->
<g id="edge30" class="edge"><title>Node14&#45;&gt;Node7</title>
<path fill="none" stroke="midnightblue" d="M1248.67,-179.895C1234.17,-177.933 1217.31,-175.747 1202,-174 1118.6,-164.485 897.043,-182.704 826,-138 793.153,-117.331 772.744,-92.2474 791,-58 799.473,-42.1057 815.972,-30.6324 830.825,-23.0022"/>
<polygon fill="midnightblue" stroke="midnightblue" points="832.711,-25.9819 840.247,-18.5352 829.712,-19.6567 832.711,-25.9819"/>
</g>
<!-- Node14&#45;&gt;Node10 -->
<g id="edge28" class="edge"><title>Node14&#45;&gt;Node10</title>
<path fill="none" stroke="midnightblue" d="M1321.34,-182.465C1378.61,-176.215 1487.61,-154.601 1529,-80 1538.27,-63.2972 1527,-43.2998 1515.53,-29.1437"/>
<polygon fill="midnightblue" stroke="midnightblue" points="1518.13,-26.7909 1508.92,-21.5529 1512.85,-31.3907 1518.13,-26.7909"/>
</g>
<!-- Node15 -->
<g id="node31" class="node"><title>Node15</title>
<polygon fill="white" stroke="#bfbfbf" points="1131.5,-116.5 1131.5,-137.5 1160.5,-137.5 1160.5,-116.5 1131.5,-116.5"/>
<text text-anchor="middle" x="1146" y="-124.5" font-family="Helvetica,sans-Serif" font-size="10.00">list</text>
</g>
<!-- Node14&#45;&gt;Node15 -->
<g id="edge32" class="edge"><title>Node14&#45;&gt;Node15</title>
<path fill="none" stroke="midnightblue" d="M1257.61,-174.45C1235.92,-165.975 1204.68,-153.505 1169.93,-138.268"/>
<polygon fill="midnightblue" stroke="midnightblue" points="1171.1,-134.958 1160.54,-134.118 1168.27,-141.361 1171.1,-134.958"/>
</g>
<!-- Node16 -->
<g id="node33" class="node"><title>Node16</title>
<a xlink:href="sptr_8h.htm" target="_top" xlink:title="sptr.h">
<polygon fill="white" stroke="black" points="839.5,-58.5 839.5,-79.5 882.5,-79.5 882.5,-58.5 839.5,-58.5"/>
<text text-anchor="middle" x="861" y="-66.5" font-family="Helvetica,sans-Serif" font-size="10.00">sptr.h</text>
</a>
</g>
<!-- Node14&#45;&gt;Node16 -->
<g id="edge34" class="edge"><title>Node14&#45;&gt;Node16</title>
<path fill="none" stroke="midnightblue" d="M1248.81,-175.899C1179.72,-158.387 1024.42,-118.332 895,-80 894.115,-79.7379 893.218,-79.4692 892.314,-79.1954"/>
<polygon fill="midnightblue" stroke="midnightblue" points="893.122,-75.7811 882.533,-76.1456 891.038,-82.4638 893.122,-75.7811"/>
</g>
<!-- Node17 -->
<g id="node37" class="node"><title>Node17</title>
<a xlink:href="AsyncCaller_8h.htm" target="_top" xlink:title="AsyncCaller.h">
<polygon fill="white" stroke="black" points="1423.5,-58.5 1423.5,-79.5 1504.5,-79.5 1504.5,-58.5 1423.5,-58.5"/>
<text text-anchor="middle" x="1464" y="-66.5" font-family="Helvetica,sans-Serif" font-size="10.00">AsyncCaller.h</text>
</a>
</g>
<!-- Node14&#45;&gt;Node17 -->
<g id="edge40" class="edge"><title>Node14&#45;&gt;Node17</title>
<path fill="none" stroke="midnightblue" d="M1321,-177.284C1347.73,-170.268 1384.06,-157.912 1411,-138 1429.01,-124.693 1443.93,-103.661 1453.3,-88.313"/>
<polygon fill="midnightblue" stroke="midnightblue" points="1456.37,-90.0084 1458.4,-79.6106 1450.33,-86.4706 1456.37,-90.0084"/>
</g>
<!-- Node18 -->
<g id="node41" class="node"><title>Node18</title>
<a xlink:href="Event_8h.htm" target="_top" xlink:title="Event.h">
<polygon fill="white" stroke="black" points="1178,-116.5 1178,-137.5 1230,-137.5 1230,-116.5 1178,-116.5"/>
<text text-anchor="middle" x="1204" y="-124.5" font-family="Helvetica,sans-Serif" font-size="10.00">Event.h</text>
</a>
</g>
<!-- Node14&#45;&gt;Node18 -->
<g id="edge46" class="edge"><title>Node14&#45;&gt;Node18</title>
<path fill="none" stroke="midnightblue" d="M1270.14,-174.362C1258.15,-165.777 1241.07,-153.546 1227.27,-143.664"/>
<polygon fill="midnightblue" stroke="midnightblue" points="1228.93,-140.547 1218.76,-137.571 1224.86,-146.238 1228.93,-140.547"/>
</g>
<!-- Node14&#45;&gt;Node24 -->
<g id="edge64" class="edge"><title>Node14&#45;&gt;Node24</title>
<path fill="none" stroke="midnightblue" d="M1248.76,-176.618C1244.14,-175.67 1239.47,-174.77 1235,-174 1112.27,-152.833 965.314,-137.162 897.987,-130.514"/>
<polygon fill="midnightblue" stroke="midnightblue" points="898.175,-127.016 887.881,-129.525 897.493,-133.982 898.175,-127.016"/>
</g>
<!-- Node25 -->
<g id="node61" class="node"><title>Node25</title>
<a xlink:href="SingletonTimer_8h.htm" target="_top" xlink:title="SingletonTimer.h">
<polygon fill="white" stroke="black" points="1306,-116.5 1306,-137.5 1402,-137.5 1402,-116.5 1306,-116.5"/>
<text text-anchor="middle" x="1354" y="-124.5" font-family="Helvetica,sans-Serif" font-size="10.00">SingletonTimer.h</text>
</a>
</g>
<!-- Node14&#45;&gt;Node25 -->
<g id="edge72" class="edge"><title>Node14&#45;&gt;Node25</title>
<path fill="none" stroke="midnightblue" d="M1297.66,-174.362C1307.67,-165.941 1321.87,-154.011 1333.5,-144.231"/>
<polygon fill="midnightblue" stroke="midnightblue" points="1336.02,-146.684 1341.42,-137.571 1331.52,-141.326 1336.02,-146.684"/>
</g>
<!-- Node16&#45;&gt;Node7 -->
<g id="edge38" class="edge"><title>Node16&#45;&gt;Node7</title>
<path fill="none" stroke="midnightblue" d="M861,-58.3619C861,-50.9219 861,-40.7427 861,-31.7276"/>
<polygon fill="midnightblue" stroke="midnightblue" points="864.5,-31.5706 861,-21.5707 857.5,-31.5707 864.5,-31.5706"/>
</g>
<!-- Node16&#45;&gt;Node10 -->
<g id="edge36" class="edge"><title>Node16&#45;&gt;Node10</title>
<path fill="none" stroke="midnightblue" d="M882.682,-65.0503C896.007,-62.7331 913.449,-59.8971 929,-58 1124.13,-34.1957 1358.4,-19.067 1454.07,-13.4577"/>
<polygon fill="midnightblue" stroke="midnightblue" points="1454.46,-16.9413 1464.24,-12.8671 1454.05,-9.95312 1454.46,-16.9413"/>
</g>
<!-- Node17&#45;&gt;Node7 -->
<g id="edge44" class="edge"><title>Node17&#45;&gt;Node7</title>
<path fill="none" stroke="midnightblue" d="M1423.4,-60.2056C1418.89,-59.3855 1414.36,-58.628 1410,-58 1213.62,-29.6891 975.082,-16.4014 891.604,-12.3772"/>
<polygon fill="midnightblue" stroke="midnightblue" points="891.691,-8.87747 881.537,-11.9009 891.36,-15.8697 891.691,-8.87747"/>
</g>
<!-- Node17&#45;&gt;Node10 -->
<g id="edge42" class="edge"><title>Node17&#45;&gt;Node10</title>
<path fill="none" stroke="midnightblue" d="M1470.24,-58.3619C1474.84,-50.5131 1481.23,-39.6159 1486.71,-30.2527"/>
<polygon fill="midnightblue" stroke="midnightblue" points="1489.77,-31.9677 1491.8,-21.5707 1483.73,-28.4276 1489.77,-31.9677"/>
</g>
<!-- Node18&#45;&gt;Node7 -->
<g id="edge52" class="edge"><title>Node18&#45;&gt;Node7</title>
<path fill="none" stroke="midnightblue" d="M1177.75,-118.267C1174.81,-117.436 1171.85,-116.659 1169,-116 1063.9,-91.757 1025.13,-128.925 929,-80 906.109,-68.3492 886.33,-46.0434 874.096,-29.9415"/>
<polygon fill="midnightblue" stroke="midnightblue" points="876.83,-27.7504 868.104,-21.7413 871.178,-31.8804 876.83,-27.7504"/>
</g>
<!-- Node18&#45;&gt;Node10 -->
<g id="edge48" class="edge"><title>Node18&#45;&gt;Node10</title>
<path fill="none" stroke="midnightblue" d="M1218.7,-116.446C1242.9,-99.2255 1290.32,-66.1775 1309,-58 1356.63,-37.1549 1415.22,-24.3947 1454.43,-17.5273"/>
<polygon fill="midnightblue" stroke="midnightblue" points="1455.18,-20.9499 1464.46,-15.8259 1454.01,-14.0486 1455.18,-20.9499"/>
</g>
<!-- Node18&#45;&gt;Node16 -->
<g id="edge62" class="edge"><title>Node18&#45;&gt;Node16</title>
<path fill="none" stroke="midnightblue" d="M1177.76,-118.216C1174.82,-117.394 1171.86,-116.633 1169,-116 1049.51,-89.5537 1015.49,-106.446 896,-80 894.912,-79.7591 893.809,-79.4998 892.698,-79.2256"/>
<polygon fill="midnightblue" stroke="midnightblue" points="893.257,-75.7491 882.686,-76.4566 891.391,-82.4958 893.257,-75.7491"/>
</g>
<!-- Node19 -->
<g id="node44" class="node"><title>Node19</title>
<polygon fill="white" stroke="#bfbfbf" points="1318,-58.5 1318,-79.5 1368,-79.5 1368,-58.5 1318,-58.5"/>
<text text-anchor="middle" x="1343" y="-66.5" font-family="Helvetica,sans-Serif" font-size="10.00">stdint.h</text>
</g>
<!-- Node18&#45;&gt;Node19 -->
<g id="edge50" class="edge"><title>Node18&#45;&gt;Node19</title>
<path fill="none" stroke="midnightblue" d="M1229.17,-116.497C1251.27,-107.275 1283.64,-93.7695 1308.21,-83.5153"/>
<polygon fill="midnightblue" stroke="midnightblue" points="1309.66,-86.7022 1317.55,-79.6212 1306.97,-80.2421 1309.66,-86.7022"/>
</g>
<!-- Node20 -->
<g id="node47" class="node"><title>Node20</title>
<polygon fill="white" stroke="#bfbfbf" points="1147.5,-58.5 1147.5,-79.5 1194.5,-79.5 1194.5,-58.5 1147.5,-58.5"/>
<text text-anchor="middle" x="1171" y="-66.5" font-family="Helvetica,sans-Serif" font-size="10.00">stdio.h</text>
</g>
<!-- Node18&#45;&gt;Node20 -->
<g id="edge54" class="edge"><title>Node18&#45;&gt;Node20</title>
<path fill="none" stroke="midnightblue" d="M1197.95,-116.362C1193.53,-108.595 1187.41,-97.8426 1182.12,-88.5458"/>
<polygon fill="midnightblue" stroke="midnightblue" points="1185,-86.5315 1177.01,-79.5707 1178.92,-89.9932 1185,-86.5315"/>
</g>
<!-- Node21 -->
<g id="node49" class="node"><title>Node21</title>
<polygon fill="white" stroke="#bfbfbf" points="1211.5,-58.5 1211.5,-79.5 1262.5,-79.5 1262.5,-58.5 1211.5,-58.5"/>
<text text-anchor="middle" x="1237" y="-66.5" font-family="Helvetica,sans-Serif" font-size="10.00">string.h</text>
</g>
<!-- Node18&#45;&gt;Node21 -->
<g id="edge56" class="edge"><title>Node18&#45;&gt;Node21</title>
<path fill="none" stroke="midnightblue" d="M1210.05,-116.362C1214.47,-108.595 1220.59,-97.8426 1225.88,-88.5458"/>
<polygon fill="midnightblue" stroke="midnightblue" points="1229.08,-89.9932 1230.99,-79.5707 1223,-86.5315 1229.08,-89.9932"/>
</g>
<!-- Node22 -->
<g id="node51" class="node"><title>Node22</title>
<polygon fill="white" stroke="#bfbfbf" points="938,-58.5 938,-79.5 1024,-79.5 1024,-58.5 938,-58.5"/>
<text text-anchor="middle" x="981" y="-66.5" font-family="Helvetica,sans-Serif" font-size="10.00">qnamespace.h</text>
</g>
<!-- Node18&#45;&gt;Node22 -->
<g id="edge58" class="edge"><title>Node18&#45;&gt;Node22</title>
<path fill="none" stroke="midnightblue" d="M1177.68,-118.543C1174.76,-117.659 1171.82,-116.795 1169,-116 1123.67,-103.222 1071.7,-90.3649 1033.9,-81.3358"/>
<polygon fill="midnightblue" stroke="midnightblue" points="1034.66,-77.9192 1024.13,-79.0097 1033.04,-84.7291 1034.66,-77.9192"/>
</g>
<!-- Node23 -->
<g id="node53" class="node"><title>Node23</title>
<polygon fill="white" stroke="#bfbfbf" points="1042,-58.5 1042,-79.5 1130,-79.5 1130,-58.5 1042,-58.5"/>
<text text-anchor="middle" x="1086" y="-66.5" font-family="Helvetica,sans-Serif" font-size="10.00">SysMgrEvent.h</text>
</g>
<!-- Node18&#45;&gt;Node23 -->
<g id="edge60" class="edge"><title>Node18&#45;&gt;Node23</title>
<path fill="none" stroke="midnightblue" d="M1182.63,-116.497C1164.2,-107.438 1137.36,-94.2462 1116.64,-84.0628"/>
<polygon fill="midnightblue" stroke="midnightblue" points="1118.13,-80.8914 1107.61,-79.6212 1115.04,-87.1735 1118.13,-80.8914"/>
</g>
<!-- Node24&#45;&gt;Node7 -->
<g id="edge70" class="edge"><title>Node24&#45;&gt;Node7</title>
<path fill="none" stroke="midnightblue" d="M838.639,-116.337C816.001,-103.936 785.927,-82.0692 798,-58 805.089,-43.8662 818.668,-32.898 831.41,-25.1254"/>
<polygon fill="midnightblue" stroke="midnightblue" points="833.447,-27.9947 840.434,-20.0309 830.006,-21.8989 833.447,-27.9947"/>
</g>
<!-- Node24&#45;&gt;Node10 -->
<g id="edge66" class="edge"><title>Node24&#45;&gt;Node10</title>
<path fill="none" stroke="midnightblue" d="M849.927,-116.424C835.844,-101.724 815.147,-75.009 831,-58 852.282,-35.1651 1308.77,-17.5197 1454.03,-12.4661"/>
<polygon fill="midnightblue" stroke="midnightblue" points="1454.46,-15.9532 1464.34,-12.1104 1454.22,-8.95738 1454.46,-15.9532"/>
</g>
<!-- Node24&#45;&gt;Node16 -->
<g id="edge68" class="edge"><title>Node24&#45;&gt;Node16</title>
<path fill="none" stroke="midnightblue" d="M861,-116.362C861,-108.922 861,-98.7427 861,-89.7276"/>
<polygon fill="midnightblue" stroke="midnightblue" points="864.5,-89.5706 861,-79.5707 857.5,-89.5707 864.5,-89.5706"/>
</g>
<!-- Node25&#45;&gt;Node7 -->
<g id="edge76" class="edge"><title>Node25&#45;&gt;Node7</title>
<path fill="none" stroke="midnightblue" d="M1363.33,-116.309C1375.12,-101.473 1392.16,-74.5984 1377,-58 1344.16,-22.0347 997.619,-13.2844 891.627,-11.442"/>
<polygon fill="midnightblue" stroke="midnightblue" points="891.636,-7.94175 881.58,-11.2758 891.52,-14.9408 891.636,-7.94175"/>
</g>
<!-- Node25&#45;&gt;Node10 -->
<g id="edge74" class="edge"><title>Node25&#45;&gt;Node10</title>
<path fill="none" stroke="midnightblue" d="M1402.08,-119.246C1443.82,-111.418 1499.6,-97.9285 1513,-80 1523.59,-65.8217 1517.47,-45.6896 1510.11,-30.8287"/>
<polygon fill="midnightblue" stroke="midnightblue" points="1513.12,-29.0427 1505.26,-21.9397 1506.98,-32.3947 1513.12,-29.0427"/>
</g>
<!-- Node25&#45;&gt;Node19 -->
<g id="edge78" class="edge"><title>Node25&#45;&gt;Node19</title>
<path fill="none" stroke="midnightblue" d="M1351.98,-116.362C1350.56,-108.84 1348.6,-98.5187 1346.87,-89.4308"/>
<polygon fill="midnightblue" stroke="midnightblue" points="1350.31,-88.7433 1345,-79.5707 1343.43,-90.0477 1350.31,-88.7433"/>
</g>
<!-- Node26&#45;&gt;Node10 -->
<g id="edge84" class="edge"><title>Node26&#45;&gt;Node10</title>
<path fill="none" stroke="midnightblue" d="M1674.12,-174.287C1687.88,-160.758 1707.18,-136.74 1697,-116 1668,-56.9074 1590.95,-30.1143 1541.68,-18.7029"/>
<polygon fill="midnightblue" stroke="midnightblue" points="1542.13,-15.2189 1531.61,-16.4952 1540.63,-22.0564 1542.13,-15.2189"/>
</g>
<!-- Node27 -->
<g id="node70" class="node"><title>Node27</title>
<polygon fill="white" stroke="#bfbfbf" points="1636,-116.5 1636,-137.5 1688,-137.5 1688,-116.5 1636,-116.5"/>
<text text-anchor="middle" x="1662" y="-124.5" font-family="Helvetica,sans-Serif" font-size="10.00">QEvent</text>
</g>
<!-- Node26&#45;&gt;Node27 -->
<g id="edge86" class="edge"><title>Node26&#45;&gt;Node27</title>
<path fill="none" stroke="midnightblue" d="M1662,-174.362C1662,-166.922 1662,-156.743 1662,-147.728"/>
<polygon fill="midnightblue" stroke="midnightblue" points="1665.5,-147.571 1662,-137.571 1658.5,-147.571 1665.5,-147.571"/>
</g>
<!-- Node29 -->
<g id="node74" class="node"><title>Node29</title>
<polygon fill="white" stroke="#bfbfbf" points="2003,-116.5 2003,-137.5 2059,-137.5 2059,-116.5 2003,-116.5"/>
<text text-anchor="middle" x="2031" y="-124.5" font-family="Helvetica,sans-Serif" font-size="10.00">hal/hal.h</text>
</g>
<!-- Node28&#45;&gt;Node29 -->
<g id="edge90" class="edge"><title>Node28&#45;&gt;Node29</title>
<path fill="none" stroke="midnightblue" d="M2031,-174.362C2031,-166.922 2031,-156.743 2031,-147.728"/>
<polygon fill="midnightblue" stroke="midnightblue" points="2034.5,-147.571 2031,-137.571 2027.5,-147.571 2034.5,-147.571"/>
</g>
<!-- Node34&#45;&gt;Node6 -->
<g id="edge104" class="edge"><title>Node34&#45;&gt;Node6</title>
<path fill="none" stroke="midnightblue" d="M422.144,-232.497C389.445,-222.918 340.974,-208.72 305.546,-198.342"/>
<polygon fill="midnightblue" stroke="midnightblue" points="306.504,-194.975 295.924,-195.523 304.536,-201.693 306.504,-194.975"/>
</g>
<!-- Node34&#45;&gt;Node33 -->
<g id="edge112" class="edge"><title>Node34&#45;&gt;Node33</title>
<path fill="none" stroke="midnightblue" d="M436.812,-232.497C418.538,-223.438 391.928,-210.246 371.385,-200.063"/>
<polygon fill="midnightblue" stroke="midnightblue" points="372.94,-196.927 362.426,-195.621 369.831,-203.199 372.94,-196.927"/>
</g>
<!-- Node35 -->
<g id="node86" class="node"><title>Node35</title>
<polygon fill="white" stroke="#bfbfbf" points="617.5,-174.5 617.5,-195.5 670.5,-195.5 670.5,-174.5 617.5,-174.5"/>
<text text-anchor="middle" x="644" y="-182.5" font-family="Helvetica,sans-Serif" font-size="10.00">QString</text>
</g>
<!-- Node34&#45;&gt;Node35 -->
<g id="edge102" class="edge"><title>Node34&#45;&gt;Node35</title>
<path fill="none" stroke="midnightblue" d="M491.892,-232.48C520.468,-223.604 562.7,-210.471 607.626,-196.425"/>
<polygon fill="midnightblue" stroke="midnightblue" points="608.75,-199.741 617.249,-193.416 606.661,-193.06 608.75,-199.741"/>
</g>
<!-- Node36 -->
<g id="node89" class="node"><title>Node36</title>
<polygon fill="white" stroke="#bfbfbf" points="385.5,-174.5 385.5,-195.5 426.5,-195.5 426.5,-174.5 385.5,-174.5"/>
<text text-anchor="middle" x="406" y="-182.5" font-family="Helvetica,sans-Serif" font-size="10.00">QList</text>
</g>
<!-- Node34&#45;&gt;Node36 -->
<g id="edge106" class="edge"><title>Node34&#45;&gt;Node36</title>
<path fill="none" stroke="midnightblue" d="M448.462,-232.362C441.132,-224.186 430.837,-212.702 422.219,-203.091"/>
<polygon fill="midnightblue" stroke="midnightblue" points="424.759,-200.68 415.477,-195.571 419.547,-205.353 424.759,-200.68"/>
</g>
<!-- Node37 -->
<g id="node91" class="node"><title>Node37</title>
<polygon fill="white" stroke="#bfbfbf" points="443.5,-174.5 443.5,-195.5 502.5,-195.5 502.5,-174.5 443.5,-174.5"/>
<text text-anchor="middle" x="473" y="-182.5" font-family="Helvetica,sans-Serif" font-size="10.00">QVariant</text>
</g>
<!-- Node34&#45;&gt;Node37 -->
<g id="edge108" class="edge"><title>Node34&#45;&gt;Node37</title>
<path fill="none" stroke="midnightblue" d="M460.751,-232.362C462.697,-224.84 465.366,-214.519 467.716,-205.431"/>
<polygon fill="midnightblue" stroke="midnightblue" points="471.151,-206.128 470.266,-195.571 464.374,-204.376 471.151,-206.128"/>
</g>
<!-- Node38 -->
<g id="node93" class="node"><title>Node38</title>
<polygon fill="white" stroke="#bfbfbf" points="519.5,-174.5 519.5,-195.5 600.5,-195.5 600.5,-174.5 519.5,-174.5"/>
<text text-anchor="middle" x="560" y="-182.5" font-family="Helvetica,sans-Serif" font-size="10.00">QDataStream</text>
</g>
<!-- Node34&#45;&gt;Node38 -->
<g id="edge110" class="edge"><title>Node34&#45;&gt;Node38</title>
<path fill="none" stroke="midnightblue" d="M476.708,-232.362C492.381,-223.45 514.964,-210.609 532.663,-200.545"/>
<polygon fill="midnightblue" stroke="midnightblue" points="534.447,-203.556 541.41,-195.571 530.987,-197.471 534.447,-203.556"/>
</g>
</g>
</svg>
