<?xml version="1.0" encoding="UTF-8" standalone="no"?>
<!DOCTYPE svg PUBLIC "-//W3C//DTD SVG 1.1//EN"
 "http://www.w3.org/Graphics/SVG/1.1/DTD/svg11.dtd">
<!-- Generated by graphviz version 2.26.3 (20100126.1600)
 -->
<!-- Title: G Pages: 1 -->
<svg width="5916pt" height="146pt"
 viewBox="0.00 0.00 5916.00 146.00" xmlns="http://www.w3.org/2000/svg" xmlns:xlink="http://www.w3.org/1999/xlink">
<g id="graph1" class="graph" transform="scale(1 1) rotate(0) translate(4 142)">
<title>G</title>
<polygon fill="white" stroke="white" points="-4,5 -4,-142 5913,-142 5913,5 -4,5"/>
<!-- Node1 -->
<g id="node1" class="node"><title>Node1</title>
<polygon fill="#bfbfbf" stroke="black" points="2136,-116.5 2136,-137.5 2252,-137.5 2252,-116.5 2136,-116.5"/>
<text text-anchor="middle" x="2194" y="-124.5" font-family="Helvetica,sans-Serif" font-size="10.00">SystemUiController.h</text>
</g>
<!-- Node2 -->
<g id="node3" class="node"><title>Node2</title>
<a xlink:href="AppDirectRenderingArbitrator_8cpp.htm" target="_top" xlink:title="AppDirectRenderingArbitrator.cpp">
<polygon fill="white" stroke="black" points="232,-58.5 232,-79.5 408,-79.5 408,-58.5 232,-58.5"/>
<text text-anchor="middle" x="320" y="-66.5" font-family="Helvetica,sans-Serif" font-size="10.00">AppDirectRenderingArbitrator.cpp</text>
</a>
</g>
<!-- Node1&#45;&gt;Node2 -->
<g id="edge2" class="edge"><title>Node1&#45;&gt;Node2</title>
<path fill="none" stroke="midnightblue" d="M2125.46,-125.981C1841.75,-121.641 758.361,-103.825 417,-80 414.126,-79.7994 411.206,-79.5769 408.258,-79.3364"/>
<polygon fill="midnightblue" stroke="midnightblue" points="2125.55,-129.483 2135.6,-126.136 2125.66,-122.484 2125.55,-129.483"/>
</g>
<!-- Node3 -->
<g id="node5" class="node"><title>Node3</title>
<a xlink:href="ApplicationManager_8cpp.htm" target="_top" xlink:title="ApplicationManager.cpp">
<polygon fill="white" stroke="black" points="425.5,-58.5 425.5,-79.5 556.5,-79.5 556.5,-58.5 425.5,-58.5"/>
<text text-anchor="middle" x="491" y="-66.5" font-family="Helvetica,sans-Serif" font-size="10.00">ApplicationManager.cpp</text>
</a>
</g>
<!-- Node1&#45;&gt;Node3 -->
<g id="edge4" class="edge"><title>Node1&#45;&gt;Node3</title>
<path fill="none" stroke="midnightblue" d="M2125.25,-126.014C1856.86,-122.01 879.268,-105.928 570,-80 565.722,-79.6414 561.322,-79.2083 556.892,-78.7241"/>
<polygon fill="midnightblue" stroke="midnightblue" points="2125.57,-129.519 2135.62,-126.168 2125.68,-122.52 2125.57,-129.519"/>
</g>
<!-- Node4 -->
<g id="node7" class="node"><title>Node4</title>
<a xlink:href="CoreNaviManager_8h.htm" target="_top" xlink:title="CoreNaviManager.h">
<polygon fill="white" stroke="red" points="726,-58.5 726,-79.5 838,-79.5 838,-58.5 726,-58.5"/>
<text text-anchor="middle" x="782" y="-66.5" font-family="Helvetica,sans-Serif" font-size="10.00">CoreNaviManager.h</text>
</a>
</g>
<!-- Node1&#45;&gt;Node4 -->
<g id="edge6" class="edge"><title>Node1&#45;&gt;Node4</title>
<path fill="none" stroke="midnightblue" d="M2125.51,-125.594C1888.95,-120.582 1107.15,-102.671 857,-80 850.84,-79.4417 844.414,-78.7177 838.027,-77.9075"/>
<polygon fill="midnightblue" stroke="midnightblue" points="2125.62,-129.097 2135.69,-125.809 2125.77,-122.099 2125.62,-129.097"/>
</g>
<!-- Node5 -->
<g id="node9" class="node"><title>Node5</title>
<a xlink:href="DisplayManager_8cpp.htm" target="_top" xlink:title="DisplayManager.cpp">
<polygon fill="white" stroke="black" points="-0.5,-0.5 -0.5,-21.5 112.5,-21.5 112.5,-0.5 -0.5,-0.5"/>
<text text-anchor="middle" x="56" y="-8.5" font-family="Helvetica,sans-Serif" font-size="10.00">DisplayManager.cpp</text>
</a>
</g>
<!-- Node1&#45;&gt;Node5 -->
<g id="edge26" class="edge"><title>Node1&#45;&gt;Node5</title>
<path fill="none" stroke="midnightblue" d="M2125.85,-126.042C1830.4,-121.754 671.693,-103.502 598,-80 581.206,-74.6442 581.65,-63.7862 565,-58 377.989,6.9878 317.454,-46.5405 121,-22 118.274,-21.6595 115.488,-21.2862 112.678,-20.8892"/>
<polygon fill="midnightblue" stroke="midnightblue" points="2125.95,-129.544 2136,-126.189 2126.05,-122.544 2125.95,-129.544"/>
</g>
<!-- Node6 -->
<g id="node11" class="node"><title>Node6</title>
<a xlink:href="DisplayStates_8cpp.htm" target="_top" xlink:title="DisplayStates.cpp">
<polygon fill="white" stroke="black" points="129.5,-0.5 129.5,-21.5 230.5,-21.5 230.5,-0.5 129.5,-0.5"/>
<text text-anchor="middle" x="180" y="-8.5" font-family="Helvetica,sans-Serif" font-size="10.00">DisplayStates.cpp</text>
</a>
</g>
<!-- Node1&#45;&gt;Node6 -->
<g id="edge28" class="edge"><title>Node1&#45;&gt;Node6</title>
<path fill="none" stroke="midnightblue" d="M2125.58,-125.871C1834.23,-120.943 708.46,-100.638 636,-80 617.231,-74.6542 616.571,-63.9973 598,-58 445.404,-8.72028 397.739,-44.7154 239,-22 236.318,-21.6162 233.573,-21.197 230.804,-20.7534"/>
<polygon fill="midnightblue" stroke="midnightblue" points="2125.53,-129.37 2135.59,-126.04 2125.65,-122.371 2125.53,-129.37"/>
</g>
<!-- Node7 -->
<g id="node13" class="node"><title>Node7</title>
<a xlink:href="SystemUiController_8cpp.htm" target="_top" xlink:title="SystemUiController.cpp">
<polygon fill="white" stroke="black" points="713.5,-0.5 713.5,-21.5 840.5,-21.5 840.5,-0.5 713.5,-0.5"/>
<text text-anchor="middle" x="777" y="-8.5" font-family="Helvetica,sans-Serif" font-size="10.00">SystemUiController.cpp</text>
</a>
</g>
<!-- Node1&#45;&gt;Node7 -->
<g id="edge38" class="edge"><title>Node1&#45;&gt;Node7</title>
<path fill="none" stroke="midnightblue" d="M2125.65,-126.578C1906.46,-124.866 1222.83,-116.651 1005,-80 930.367,-67.443 845.928,-37.5795 803.839,-21.569"/>
<polygon fill="midnightblue" stroke="midnightblue" points="2125.7,-130.078 2135.73,-126.655 2125.76,-123.079 2125.7,-130.078"/>
</g>
<!-- Node8 -->
<g id="node15" class="node"><title>Node8</title>
<a xlink:href="WindowServer_8cpp.htm" target="_top" xlink:title="WindowServer.cpp">
<polygon fill="white" stroke="black" points="247.5,-0.5 247.5,-21.5 352.5,-21.5 352.5,-0.5 247.5,-0.5"/>
<text text-anchor="middle" x="300" y="-8.5" font-family="Helvetica,sans-Serif" font-size="10.00">WindowServer.cpp</text>
</a>
</g>
<!-- Node1&#45;&gt;Node8 -->
<g id="edge40" class="edge"><title>Node1&#45;&gt;Node8</title>
<path fill="none" stroke="midnightblue" d="M2125.46,-126.852C1847.75,-125.982 814.451,-120.061 674,-80 655.233,-74.6472 654.478,-64.2772 636,-58 519.286,-18.3505 482.801,-40.9432 361,-22 358.235,-21.57 355.403,-21.1139 352.545,-20.6414"/>
<polygon fill="midnightblue" stroke="midnightblue" points="2125.78,-130.352 2135.79,-126.883 2125.8,-123.353 2125.78,-130.352"/>
</g>
<!-- Node9 -->
<g id="node17" class="node"><title>Node9</title>
<a xlink:href="LockWindow_8cpp.htm" target="_top" xlink:title="LockWindow.cpp">
<polygon fill="white" stroke="black" points="858,-0.5 858,-21.5 954,-21.5 954,-0.5 858,-0.5"/>
<text text-anchor="middle" x="906" y="-8.5" font-family="Helvetica,sans-Serif" font-size="10.00">LockWindow.cpp</text>
</a>
</g>
<!-- Node1&#45;&gt;Node9 -->
<g id="edge98" class="edge"><title>Node1&#45;&gt;Node9</title>
<path fill="none" stroke="midnightblue" d="M2125.62,-125.488C1898.54,-120.28 1178.13,-102.174 1076,-80 1019.04,-67.6329 956.643,-37.6878 925.691,-21.6153"/>
<polygon fill="midnightblue" stroke="midnightblue" points="2125.66,-128.99 2135.73,-125.719 2125.82,-121.992 2125.66,-128.99"/>
</g>
<!-- Node10 -->
<g id="node19" class="node"><title>Node10</title>
<a xlink:href="DashboardWindowManager_8cpp.htm" target="_top" xlink:title="DashboardWindowManager.cpp">
<polygon fill="white" stroke="black" points="370,-0.5 370,-21.5 538,-21.5 538,-0.5 370,-0.5"/>
<text text-anchor="middle" x="454" y="-8.5" font-family="Helvetica,sans-Serif" font-size="10.00">DashboardWindowManager.cpp</text>
</a>
</g>
<!-- Node1&#45;&gt;Node10 -->
<g id="edge108" class="edge"><title>Node1&#45;&gt;Node10</title>
<path fill="none" stroke="midnightblue" d="M2125.63,-126.584C1853.33,-124.686 854.123,-115.358 717,-80 696.213,-74.6399 694.226,-65.1932 674,-58 626.07,-40.9542 569.962,-29.0871 526.405,-21.5416"/>
<polygon fill="midnightblue" stroke="midnightblue" points="2125.75,-130.085 2135.77,-126.653 2125.8,-123.085 2125.75,-130.085"/>
</g>
<!-- Node11 -->
<g id="node21" class="node"><title>Node11</title>
<a xlink:href="WindowServerLuna_8cpp.htm" target="_top" xlink:title="WindowServerLuna.cpp">
<polygon fill="white" stroke="black" points="972,-0.5 972,-21.5 1100,-21.5 1100,-0.5 972,-0.5"/>
<text text-anchor="middle" x="1036" y="-8.5" font-family="Helvetica,sans-Serif" font-size="10.00">WindowServerLuna.cpp</text>
</a>
</g>
<!-- Node1&#45;&gt;Node11 -->
<g id="edge126" class="edge"><title>Node1&#45;&gt;Node11</title>
<path fill="none" stroke="midnightblue" d="M2125.56,-126.721C1902.47,-125.44 1205.29,-118.377 1112,-80 1081.84,-67.5924 1055.96,-37.6647 1043.66,-21.6054"/>
<polygon fill="midnightblue" stroke="midnightblue" points="2125.8,-130.222 2135.82,-126.778 2125.84,-123.222 2125.8,-130.222"/>
</g>
<!-- Node12 -->
<g id="node23" class="node"><title>Node12</title>
<a xlink:href="WindowServerMinimal_8cpp.htm" target="_top" xlink:title="WindowServerMinimal.cpp">
<polygon fill="white" stroke="black" points="555.5,-0.5 555.5,-21.5 696.5,-21.5 696.5,-0.5 555.5,-0.5"/>
<text text-anchor="middle" x="626" y="-8.5" font-family="Helvetica,sans-Serif" font-size="10.00">WindowServerMinimal.cpp</text>
</a>
</g>
<!-- Node1&#45;&gt;Node12 -->
<g id="edge130" class="edge"><title>Node1&#45;&gt;Node12</title>
<path fill="none" stroke="midnightblue" d="M2125.51,-125.649C1877.05,-120.586 1031.38,-101.91 912,-80 882.002,-74.4948 876.41,-66.0748 847,-58 792.53,-43.045 729.413,-30.0432 684.612,-21.5292"/>
<polygon fill="midnightblue" stroke="midnightblue" points="2125.78,-129.155 2135.85,-125.858 2125.92,-122.156 2125.78,-129.155"/>
</g>
<!-- Node13 -->
<g id="node25" class="node"><title>Node13</title>
<a xlink:href="WebAppMgrProxy_8cpp.htm" target="_top" xlink:title="WebAppMgrProxy.cpp">
<polygon fill="white" stroke="black" points="1118,-0.5 1118,-21.5 1240,-21.5 1240,-0.5 1118,-0.5"/>
<text text-anchor="middle" x="1179" y="-8.5" font-family="Helvetica,sans-Serif" font-size="10.00">WebAppMgrProxy.cpp</text>
</a>
</g>
<!-- Node1&#45;&gt;Node13 -->
<g id="edge134" class="edge"><title>Node1&#45;&gt;Node13</title>
<path fill="none" stroke="midnightblue" d="M2125.53,-126.575C1894.45,-124.811 1155.78,-116.338 1121,-80 1102.17,-60.3291 1135.73,-35.5221 1159.16,-21.6483"/>
<polygon fill="midnightblue" stroke="midnightblue" points="2125.8,-130.077 2135.82,-126.652 2125.85,-123.077 2125.8,-130.077"/>
</g>
<!-- Node14 -->
<g id="node29" class="node"><title>Node14</title>
<a xlink:href="HostArm_8cpp.htm" target="_top" xlink:title="HostArm.cpp">
<polygon fill="white" stroke="black" points="1431.5,-58.5 1431.5,-79.5 1508.5,-79.5 1508.5,-58.5 1431.5,-58.5"/>
<text text-anchor="middle" x="1470" y="-66.5" font-family="Helvetica,sans-Serif" font-size="10.00">HostArm.cpp</text>
</a>
</g>
<!-- Node1&#45;&gt;Node14 -->
<g id="edge30" class="edge"><title>Node1&#45;&gt;Node14</title>
<path fill="none" stroke="midnightblue" d="M2125.33,-125.869C2002.59,-123.04 1737.74,-113.274 1517,-80 1514.27,-79.5878 1511.45,-79.0991 1508.63,-78.5604"/>
<polygon fill="midnightblue" stroke="midnightblue" points="2125.62,-129.376 2135.7,-126.099 2125.78,-122.378 2125.62,-129.376"/>
</g>
<!-- Node15 -->
<g id="node31" class="node"><title>Node15</title>
<a xlink:href="HostWindow_8cpp.htm" target="_top" xlink:title="HostWindow.cpp">
<polygon fill="white" stroke="black" points="1525.5,-58.5 1525.5,-79.5 1620.5,-79.5 1620.5,-58.5 1525.5,-58.5"/>
<text text-anchor="middle" x="1573" y="-66.5" font-family="Helvetica,sans-Serif" font-size="10.00">HostWindow.cpp</text>
</a>
</g>
<!-- Node1&#45;&gt;Node15 -->
<g id="edge32" class="edge"><title>Node1&#45;&gt;Node15</title>
<path fill="none" stroke="midnightblue" d="M2125.31,-123.749C2018.69,-118.149 1807.08,-104.818 1629,-80 1626.25,-79.6171 1623.44,-79.1863 1620.6,-78.7227"/>
<polygon fill="midnightblue" stroke="midnightblue" points="2125.44,-127.26 2135.61,-124.283 2125.8,-120.27 2125.44,-127.26"/>
</g>
<!-- Node16 -->
<g id="node33" class="node"><title>Node16</title>
<a xlink:href="ProgressAnimation_8cpp.htm" target="_top" xlink:title="ProgressAnimation.cpp">
<polygon fill="white" stroke="black" points="1637.5,-58.5 1637.5,-79.5 1762.5,-79.5 1762.5,-58.5 1637.5,-58.5"/>
<text text-anchor="middle" x="1700" y="-66.5" font-family="Helvetica,sans-Serif" font-size="10.00">ProgressAnimation.cpp</text>
</a>
</g>
<!-- Node1&#45;&gt;Node16 -->
<g id="edge34" class="edge"><title>Node1&#45;&gt;Node16</title>
<path fill="none" stroke="midnightblue" d="M2125.6,-120.315C2041.87,-111.92 1895.8,-96.5937 1771,-80 1768.28,-79.6383 1765.5,-79.2576 1762.7,-78.8637"/>
<polygon fill="midnightblue" stroke="midnightblue" points="2125.45,-123.817 2135.74,-121.328 2126.14,-116.851 2125.45,-123.817"/>
</g>
<!-- Node17 -->
<g id="node35" class="node"><title>Node17</title>
<a xlink:href="SystemService_8cpp.htm" target="_top" xlink:title="SystemService.cpp">
<polygon fill="white" stroke="black" points="1258,-0.5 1258,-21.5 1364,-21.5 1364,-0.5 1258,-0.5"/>
<text text-anchor="middle" x="1311" y="-8.5" font-family="Helvetica,sans-Serif" font-size="10.00">SystemService.cpp</text>
</a>
</g>
<!-- Node1&#45;&gt;Node17 -->
<g id="edge36" class="edge"><title>Node1&#45;&gt;Node17</title>
<path fill="none" stroke="midnightblue" d="M2125.65,-126.553C1895.84,-124.718 1163.5,-116.052 1129,-80 1122.24,-72.9353 1123.01,-65.7301 1129,-58 1137.04,-47.6156 1206.95,-31.7033 1257.73,-21.3233"/>
<polygon fill="midnightblue" stroke="midnightblue" points="2125.86,-130.054 2135.88,-126.632 2125.91,-123.054 2125.86,-130.054"/>
</g>
<!-- Node18 -->
<g id="node39" class="node"><title>Node18</title>
<a xlink:href="InputWindowManager_8cpp.htm" target="_top" xlink:title="InputWindowManager.cpp">
<polygon fill="white" stroke="black" points="1780,-58.5 1780,-79.5 1920,-79.5 1920,-58.5 1780,-58.5"/>
<text text-anchor="middle" x="1850" y="-66.5" font-family="Helvetica,sans-Serif" font-size="10.00">InputWindowManager.cpp</text>
</a>
</g>
<!-- Node1&#45;&gt;Node18 -->
<g id="edge42" class="edge"><title>Node1&#45;&gt;Node18</title>
<path fill="none" stroke="midnightblue" d="M2125.55,-115.459C2063.43,-104.985 1972.6,-89.671 1912.43,-79.5257"/>
<polygon fill="midnightblue" stroke="midnightblue" points="2125.2,-118.95 2135.65,-117.161 2126.37,-112.047 2125.2,-118.95"/>
</g>
<!-- Node19 -->
<g id="node41" class="node"><title>Node19</title>
<a xlink:href="SysmgrIMEDataInterface_8cpp.htm" target="_top" xlink:title="SysmgrIMEDataInterface.cpp">
<polygon fill="white" stroke="black" points="1937.5,-58.5 1937.5,-79.5 2092.5,-79.5 2092.5,-58.5 1937.5,-58.5"/>
<text text-anchor="middle" x="2015" y="-66.5" font-family="Helvetica,sans-Serif" font-size="10.00">SysmgrIMEDataInterface.cpp</text>
</a>
</g>
<!-- Node1&#45;&gt;Node19 -->
<g id="edge44" class="edge"><title>Node1&#45;&gt;Node19</title>
<path fill="none" stroke="midnightblue" d="M2152.07,-113.413C2120.13,-103.065 2076.8,-89.0258 2047.48,-79.5231"/>
<polygon fill="midnightblue" stroke="midnightblue" points="2150.99,-116.744 2161.58,-116.497 2153.15,-110.085 2150.99,-116.744"/>
</g>
<!-- Node20 -->
<g id="node43" class="node"><title>Node20</title>
<a xlink:href="VirtualKeyboardPreferences_8cpp.htm" target="_top" xlink:title="VirtualKeyboardPreferences.cpp">
<polygon fill="white" stroke="black" points="2110,-58.5 2110,-79.5 2278,-79.5 2278,-58.5 2110,-58.5"/>
<text text-anchor="middle" x="2194" y="-66.5" font-family="Helvetica,sans-Serif" font-size="10.00">VirtualKeyboardPreferences.cpp</text>
</a>
</g>
<!-- Node1&#45;&gt;Node20 -->
<g id="edge46" class="edge"><title>Node1&#45;&gt;Node20</title>
<path fill="none" stroke="midnightblue" d="M2194,-106.191C2194,-97.1684 2194,-86.9941 2194,-79.5707"/>
<polygon fill="midnightblue" stroke="midnightblue" points="2190.5,-106.362 2194,-116.362 2197.5,-106.362 2190.5,-106.362"/>
</g>
<!-- Node21 -->
<g id="node45" class="node"><title>Node21</title>
<a xlink:href="CardWindow_8h.htm" target="_top" xlink:title="CardWindow.h">
<polygon fill="white" stroke="red" points="1138,-58.5 1138,-79.5 1224,-79.5 1224,-58.5 1138,-58.5"/>
<text text-anchor="middle" x="1181" y="-66.5" font-family="Helvetica,sans-Serif" font-size="10.00">CardWindow.h</text>
</a>
</g>
<!-- Node1&#45;&gt;Node21 -->
<g id="edge48" class="edge"><title>Node1&#45;&gt;Node21</title>
<path fill="none" stroke="midnightblue" d="M2125.68,-124.9C1936.78,-118.893 1410.12,-100.734 1238,-80 1233.5,-79.4576 1228.82,-78.766 1224.16,-77.9944"/>
<polygon fill="midnightblue" stroke="midnightblue" points="2125.65,-128.401 2135.76,-125.219 2125.87,-121.404 2125.65,-128.401"/>
</g>
<!-- Node22 -->
<g id="node49" class="node"><title>Node22</title>
<a xlink:href="CardWindow_8cpp.htm" target="_top" xlink:title="CardWindow.cpp">
<polygon fill="white" stroke="black" points="1381.5,-0.5 1381.5,-21.5 1478.5,-21.5 1478.5,-0.5 1381.5,-0.5"/>
<text text-anchor="middle" x="1430" y="-8.5" font-family="Helvetica,sans-Serif" font-size="10.00">CardWindow.cpp</text>
</a>
</g>
<!-- Node1&#45;&gt;Node22 -->
<g id="edge72" class="edge"><title>Node1&#45;&gt;Node22</title>
<path fill="none" stroke="midnightblue" d="M2125.59,-125.546C1935.17,-121.168 1411.23,-106.736 1386,-80 1368.84,-61.8125 1396.07,-36.0195 1414.77,-21.6751"/>
<polygon fill="midnightblue" stroke="midnightblue" points="2125.68,-129.049 2135.76,-125.778 2125.84,-122.051 2125.68,-129.049"/>
</g>
<!-- Node23 -->
<g id="node51" class="node"><title>Node23</title>
<a xlink:href="CardWindowManager_8cpp.htm" target="_top" xlink:title="CardWindowManager.cpp">
<polygon fill="white" stroke="black" points="1496,-0.5 1496,-21.5 1636,-21.5 1636,-0.5 1496,-0.5"/>
<text text-anchor="middle" x="1566" y="-8.5" font-family="Helvetica,sans-Serif" font-size="10.00">CardWindowManager.cpp</text>
</a>
</g>
<!-- Node1&#45;&gt;Node23 -->
<g id="edge74" class="edge"><title>Node1&#45;&gt;Node23</title>
<path fill="none" stroke="midnightblue" d="M2125.61,-125.505C1936.52,-121.041 1418.94,-106.448 1394,-80 1387.29,-72.8862 1388.07,-65.7719 1394,-58 1406.68,-41.3913 1453.82,-29.2293 1495.55,-21.4428"/>
<polygon fill="midnightblue" stroke="midnightblue" points="2125.63,-129.006 2135.7,-125.741 2125.79,-122.008 2125.63,-129.006"/>
</g>
<!-- Node24 -->
<g id="node53" class="node"><title>Node24</title>
<a xlink:href="CardWindowManagerStates_8cpp.htm" target="_top" xlink:title="CardWindowManagerStates.cpp">
<polygon fill="white" stroke="black" points="1654,-0.5 1654,-21.5 1824,-21.5 1824,-0.5 1654,-0.5"/>
<text text-anchor="middle" x="1739" y="-8.5" font-family="Helvetica,sans-Serif" font-size="10.00">CardWindowManagerStates.cpp</text>
</a>
</g>
<!-- Node1&#45;&gt;Node24 -->
<g id="edge76" class="edge"><title>Node1&#45;&gt;Node24</title>
<path fill="none" stroke="midnightblue" d="M2125.96,-125.471C1938.49,-120.929 1426.67,-106.176 1402,-80 1395.29,-72.8842 1395.58,-65.376 1402,-58 1406.14,-53.2374 1555.12,-33.8667 1653.58,-21.5285"/>
<polygon fill="midnightblue" stroke="midnightblue" points="2125.89,-128.97 2135.97,-125.711 2126.06,-121.972 2125.89,-128.97"/>
</g>
<!-- Node25 -->
<g id="node55" class="node"><title>Node25</title>
<a xlink:href="EmergencyWindowManager_8cpp.htm" target="_top" xlink:title="EmergencyWindowManager.cpp">
<polygon fill="white" stroke="black" points="1842,-0.5 1842,-21.5 2012,-21.5 2012,-0.5 1842,-0.5"/>
<text text-anchor="middle" x="1927" y="-8.5" font-family="Helvetica,sans-Serif" font-size="10.00">EmergencyWindowManager.cpp</text>
</a>
</g>
<!-- Node1&#45;&gt;Node25 -->
<g id="edge88" class="edge"><title>Node1&#45;&gt;Node25</title>
<path fill="none" stroke="midnightblue" d="M2125.65,-125.404C1939.75,-120.732 1437.26,-105.766 1413,-80 1348.41,-11.4052 1739.26,-31.4998 1833,-22 1835.94,-21.7018 1838.94,-21.3912 1841.96,-21.0713"/>
<polygon fill="midnightblue" stroke="midnightblue" points="2125.76,-128.908 2135.84,-125.658 2125.93,-121.91 2125.76,-128.908"/>
</g>
<!-- Node26 -->
<g id="node59" class="node"><title>Node26</title>
<a xlink:href="WindowManagerMinimal_8cpp.htm" target="_top" xlink:title="WindowManagerMinimal.cpp">
<polygon fill="white" stroke="black" points="2030,-0.5 2030,-21.5 2182,-21.5 2182,-0.5 2030,-0.5"/>
<text text-anchor="middle" x="2106" y="-8.5" font-family="Helvetica,sans-Serif" font-size="10.00">WindowManagerMinimal.cpp</text>
</a>
</g>
<!-- Node1&#45;&gt;Node26 -->
<g id="edge128" class="edge"><title>Node1&#45;&gt;Node26</title>
<path fill="none" stroke="midnightblue" d="M2125.87,-125.354C1941.84,-120.577 1446.91,-105.417 1423,-80 1416.3,-72.8788 1416.3,-65.1186 1423,-58 1468.63,-9.53804 1954.73,-28.2752 2021,-22 2023.81,-21.7335 2026.68,-21.4459 2029.57,-21.1419"/>
<polygon fill="midnightblue" stroke="midnightblue" points="2125.88,-128.855 2135.97,-125.614 2126.06,-121.858 2125.88,-128.855"/>
</g>
<!-- Node27 -->
<g id="node62" class="node"><title>Node27</title>
<a xlink:href="CardHostWindow_8cpp.htm" target="_top" xlink:title="CardHostWindow.cpp">
<polygon fill="white" stroke="black" points="2295.5,-58.5 2295.5,-79.5 2414.5,-79.5 2414.5,-58.5 2295.5,-58.5"/>
<text text-anchor="middle" x="2355" y="-66.5" font-family="Helvetica,sans-Serif" font-size="10.00">CardHostWindow.cpp</text>
</a>
</g>
<!-- Node1&#45;&gt;Node27 -->
<g id="edge70" class="edge"><title>Node1&#45;&gt;Node27</title>
<path fill="none" stroke="midnightblue" d="M2232.84,-113.009C2261.45,-102.702 2299.75,-88.903 2325.79,-79.5231"/>
<polygon fill="midnightblue" stroke="midnightblue" points="2231.38,-109.814 2223.16,-116.497 2233.75,-116.4 2231.38,-109.814"/>
</g>
<!-- Node28 -->
<g id="node67" class="node"><title>Node28</title>
<a xlink:href="EmulatedCardWindow_8cpp.htm" target="_top" xlink:title="EmulatedCardWindow.cpp">
<polygon fill="white" stroke="black" points="2432,-58.5 2432,-79.5 2572,-79.5 2572,-58.5 2432,-58.5"/>
<text text-anchor="middle" x="2502" y="-66.5" font-family="Helvetica,sans-Serif" font-size="10.00">EmulatedCardWindow.cpp</text>
</a>
</g>
<!-- Node1&#45;&gt;Node28 -->
<g id="edge78" class="edge"><title>Node1&#45;&gt;Node28</title>
<path fill="none" stroke="midnightblue" d="M2259.85,-114.6C2315.28,-104.161 2393.7,-89.3945 2446.12,-79.5231"/>
<polygon fill="midnightblue" stroke="midnightblue" points="2258.96,-111.206 2249.78,-116.497 2260.25,-118.086 2258.96,-111.206"/>
</g>
<!-- Node29 -->
<g id="node69" class="node"><title>Node29</title>
<a xlink:href="DockModeAppMenuContainer_8cpp.htm" target="_top" xlink:title="DockModeAppMenuContainer.cpp">
<polygon fill="white" stroke="black" points="2589.5,-58.5 2589.5,-79.5 2768.5,-79.5 2768.5,-58.5 2589.5,-58.5"/>
<text text-anchor="middle" x="2679" y="-66.5" font-family="Helvetica,sans-Serif" font-size="10.00">DockModeAppMenuContainer.cpp</text>
</a>
</g>
<!-- Node1&#45;&gt;Node29 -->
<g id="edge80" class="edge"><title>Node1&#45;&gt;Node29</title>
<path fill="none" stroke="midnightblue" d="M2262.2,-118.844C2348.26,-108.552 2496.42,-90.8337 2590.95,-79.5292"/>
<polygon fill="midnightblue" stroke="midnightblue" points="2261.53,-115.399 2252.02,-120.061 2262.37,-122.349 2261.53,-115.399"/>
</g>
<!-- Node30 -->
<g id="node71" class="node"><title>Node30</title>
<a xlink:href="DockModeMenuManager_8cpp.htm" target="_top" xlink:title="DockModeMenuManager.cpp">
<polygon fill="white" stroke="black" points="2786,-58.5 2786,-79.5 2942,-79.5 2942,-58.5 2786,-58.5"/>
<text text-anchor="middle" x="2864" y="-66.5" font-family="Helvetica,sans-Serif" font-size="10.00">DockModeMenuManager.cpp</text>
</a>
</g>
<!-- Node1&#45;&gt;Node30 -->
<g id="edge82" class="edge"><title>Node1&#45;&gt;Node30</title>
<path fill="none" stroke="midnightblue" d="M2262.19,-122.509C2371.13,-115.108 2591.09,-99.2369 2777,-80 2779.88,-79.7023 2782.81,-79.3882 2785.76,-79.0617"/>
<polygon fill="midnightblue" stroke="midnightblue" points="2261.74,-119.031 2252,-123.199 2262.22,-126.015 2261.74,-119.031"/>
</g>
<!-- Node31 -->
<g id="node73" class="node"><title>Node31</title>
<a xlink:href="DockModeWindow_8cpp.htm" target="_top" xlink:title="DockModeWindow.cpp">
<polygon fill="white" stroke="black" points="2959.5,-58.5 2959.5,-79.5 3084.5,-79.5 3084.5,-58.5 2959.5,-58.5"/>
<text text-anchor="middle" x="3022" y="-66.5" font-family="Helvetica,sans-Serif" font-size="10.00">DockModeWindow.cpp</text>
</a>
</g>
<!-- Node1&#45;&gt;Node31 -->
<g id="edge84" class="edge"><title>Node1&#45;&gt;Node31</title>
<path fill="none" stroke="midnightblue" d="M2262.12,-124.865C2394.95,-120.24 2697.74,-107.423 2951,-80 2953.73,-79.7046 2956.51,-79.3787 2959.32,-79.0298"/>
<polygon fill="midnightblue" stroke="midnightblue" points="2261.96,-121.369 2252.09,-125.21 2262.2,-128.364 2261.96,-121.369"/>
</g>
<!-- Node32 -->
<g id="node75" class="node"><title>Node32</title>
<a xlink:href="DockModeWindowManager_8cpp.htm" target="_top" xlink:title="DockModeWindowManager.cpp">
<polygon fill="white" stroke="black" points="3101.5,-58.5 3101.5,-79.5 3268.5,-79.5 3268.5,-58.5 3101.5,-58.5"/>
<text text-anchor="middle" x="3185" y="-66.5" font-family="Helvetica,sans-Serif" font-size="10.00">DockModeWindowManager.cpp</text>
</a>
</g>
<!-- Node1&#45;&gt;Node32 -->
<g id="edge86" class="edge"><title>Node1&#45;&gt;Node32</title>
<path fill="none" stroke="midnightblue" d="M2262.21,-124.989C2412.5,-120.217 2783.42,-106.57 3093,-80 3095.72,-79.7662 3098.49,-79.5149 3101.29,-79.2495"/>
<polygon fill="midnightblue" stroke="midnightblue" points="2262.09,-121.491 2252.2,-125.304 2262.31,-128.488 2262.09,-121.491"/>
</g>
<!-- Node33 -->
<g id="node78" class="node"><title>Node33</title>
<a xlink:href="FullEraseConfirmationWindow_8cpp.htm" target="_top" xlink:title="FullEraseConfirmationWindow.cpp">
<polygon fill="white" stroke="black" points="3285.5,-58.5 3285.5,-79.5 3462.5,-79.5 3462.5,-58.5 3285.5,-58.5"/>
<text text-anchor="middle" x="3374" y="-66.5" font-family="Helvetica,sans-Serif" font-size="10.00">FullEraseConfirmationWindow.cpp</text>
</a>
</g>
<!-- Node1&#45;&gt;Node33 -->
<g id="edge90" class="edge"><title>Node1&#45;&gt;Node33</title>
<path fill="none" stroke="midnightblue" d="M2262.32,-125.684C2433.43,-122.031 2894.1,-109.983 3277,-80 3279.79,-79.7817 3282.62,-79.5458 3285.48,-79.2956"/>
<polygon fill="midnightblue" stroke="midnightblue" points="2262.12,-122.188 2252.2,-125.898 2262.27,-129.186 2262.12,-122.188"/>
</g>
<!-- Node34 -->
<g id="node80" class="node"><title>Node34</title>
<a xlink:href="OverlayWindowManager__p_8h.htm" target="_top" xlink:title="OverlayWindowManager_p.h">
<polygon fill="white" stroke="black" points="3480,-58.5 3480,-79.5 3634,-79.5 3634,-58.5 3480,-58.5"/>
<text text-anchor="middle" x="3557" y="-66.5" font-family="Helvetica,sans-Serif" font-size="10.00">OverlayWindowManager_p.h</text>
</a>
</g>
<!-- Node1&#45;&gt;Node34 -->
<g id="edge92" class="edge"><title>Node1&#45;&gt;Node34</title>
<path fill="none" stroke="midnightblue" d="M2262.2,-126.658C2453.3,-125.231 3010.18,-117.873 3471,-80 3473.85,-79.7657 3476.75,-79.5057 3479.68,-79.2249"/>
<polygon fill="midnightblue" stroke="midnightblue" points="2262,-123.159 2252.02,-126.731 2262.05,-130.159 2262,-123.159"/>
</g>
<!-- Node35 -->
<g id="node82" class="node"><title>Node35</title>
<a xlink:href="OverlayWindowManager_8cpp.htm" target="_top" xlink:title="OverlayWindowManager.cpp">
<polygon fill="white" stroke="black" points="3532.5,-0.5 3532.5,-21.5 3685.5,-21.5 3685.5,-0.5 3532.5,-0.5"/>
<text text-anchor="middle" x="3609" y="-8.5" font-family="Helvetica,sans-Serif" font-size="10.00">OverlayWindowManager.cpp</text>
</a>
</g>
<!-- Node1&#45;&gt;Node35 -->
<g id="edge96" class="edge"><title>Node1&#45;&gt;Node35</title>
<path fill="none" stroke="midnightblue" d="M2262.58,-126.061C2546.82,-122.01 3618.71,-105.092 3643,-80 3659.53,-62.921 3636.64,-36.2338 3621.15,-21.5568"/>
<polygon fill="midnightblue" stroke="midnightblue" points="2262.35,-122.564 2252.4,-126.205 2262.45,-129.563 2262.35,-122.564"/>
</g>
<!-- Node36 -->
<g id="node86" class="node"><title>Node36</title>
<a xlink:href="TopLevelWindowManager_8cpp.htm" target="_top" xlink:title="TopLevelWindowManager.cpp">
<polygon fill="white" stroke="black" points="3689.5,-58.5 3689.5,-79.5 3850.5,-79.5 3850.5,-58.5 3689.5,-58.5"/>
<text text-anchor="middle" x="3770" y="-66.5" font-family="Helvetica,sans-Serif" font-size="10.00">TopLevelWindowManager.cpp</text>
</a>
</g>
<!-- Node1&#45;&gt;Node36 -->
<g id="edge100" class="edge"><title>Node1&#45;&gt;Node36</title>
<path fill="none" stroke="midnightblue" d="M2262.13,-125.608C2514.44,-120.333 3395.58,-100.817 3676,-80 3680.34,-79.6777 3684.79,-79.3042 3689.28,-78.8936"/>
<polygon fill="midnightblue" stroke="midnightblue" points="2261.93,-122.111 2252,-125.819 2262.07,-129.11 2261.93,-122.111"/>
</g>
<!-- Node37 -->
<g id="node88" class="node"><title>Node37</title>
<a xlink:href="BannerMessageHandler_8cpp.htm" target="_top" xlink:title="BannerMessageHandler.cpp">
<polygon fill="white" stroke="black" points="3868,-58.5 3868,-79.5 4020,-79.5 4020,-58.5 3868,-58.5"/>
<text text-anchor="middle" x="3944" y="-66.5" font-family="Helvetica,sans-Serif" font-size="10.00">BannerMessageHandler.cpp</text>
</a>
</g>
<!-- Node1&#45;&gt;Node37 -->
<g id="edge102" class="edge"><title>Node1&#45;&gt;Node37</title>
<path fill="none" stroke="midnightblue" d="M2262.24,-125.99C2534.13,-121.824 3540.93,-105.007 3859,-80 3861.82,-79.7784 3864.69,-79.5291 3867.58,-79.2575"/>
<polygon fill="midnightblue" stroke="midnightblue" points="2262.06,-122.492 2252.11,-126.144 2262.17,-129.491 2262.06,-122.492"/>
</g>
<!-- Node38 -->
<g id="node90" class="node"><title>Node38</title>
<a xlink:href="BannerWindow_8cpp.htm" target="_top" xlink:title="BannerWindow.cpp">
<polygon fill="white" stroke="black" points="4038,-58.5 4038,-79.5 4146,-79.5 4146,-58.5 4038,-58.5"/>
<text text-anchor="middle" x="4092" y="-66.5" font-family="Helvetica,sans-Serif" font-size="10.00">BannerWindow.cpp</text>
</a>
</g>
<!-- Node1&#45;&gt;Node38 -->
<g id="edge104" class="edge"><title>Node1&#45;&gt;Node38</title>
<path fill="none" stroke="midnightblue" d="M2262.4,-126.597C2551.75,-124.686 3676.41,-115.105 4029,-80 4031.87,-79.714 4034.81,-79.3726 4037.77,-78.9901"/>
<polygon fill="midnightblue" stroke="midnightblue" points="2262.04,-123.1 2252.06,-126.665 2262.08,-130.099 2262.04,-123.1"/>
</g>
<!-- Node39 -->
<g id="node92" class="node"><title>Node39</title>
<a xlink:href="DashboardWindowContainer_8cpp.htm" target="_top" xlink:title="DashboardWindowContainer.cpp">
<polygon fill="white" stroke="black" points="4164,-58.5 4164,-79.5 4336,-79.5 4336,-58.5 4164,-58.5"/>
<text text-anchor="middle" x="4250" y="-66.5" font-family="Helvetica,sans-Serif" font-size="10.00">DashboardWindowContainer.cpp</text>
</a>
</g>
<!-- Node1&#45;&gt;Node39 -->
<g id="edge106" class="edge"><title>Node1&#45;&gt;Node39</title>
<path fill="none" stroke="midnightblue" d="M2262.54,-126.199C2564.18,-122.542 3775.4,-106.47 4155,-80 4157.9,-79.7979 4160.84,-79.572 4163.82,-79.3265"/>
<polygon fill="midnightblue" stroke="midnightblue" points="2262.15,-122.703 2252.19,-126.323 2262.23,-129.702 2262.15,-122.703"/>
</g>
<!-- Node40 -->
<g id="node95" class="node"><title>Node40</title>
<a xlink:href="DashboardWindowManagerStates_8cpp.htm" target="_top" xlink:title="DashboardWindowManagerStates.cpp">
<polygon fill="white" stroke="black" points="4354,-58.5 4354,-79.5 4552,-79.5 4552,-58.5 4354,-58.5"/>
<text text-anchor="middle" x="4453" y="-66.5" font-family="Helvetica,sans-Serif" font-size="10.00">DashboardWindowManagerStates.cpp</text>
</a>
</g>
<!-- Node1&#45;&gt;Node40 -->
<g id="edge110" class="edge"><title>Node1&#45;&gt;Node40</title>
<path fill="none" stroke="midnightblue" d="M2262.3,-126.241C2581.16,-122.587 3925.48,-105.907 4345,-80 4347.92,-79.8199 4350.87,-79.6214 4353.86,-79.4072"/>
<polygon fill="midnightblue" stroke="midnightblue" points="2262.23,-122.742 2252.27,-126.356 2262.31,-129.741 2262.23,-122.742"/>
</g>
<!-- Node41 -->
<g id="node97" class="node"><title>Node41</title>
<a xlink:href="VolumeControlAlertWindow_8cpp.htm" target="_top" xlink:title="VolumeControlAlertWindow.cpp">
<polygon fill="white" stroke="black" points="4570,-58.5 4570,-79.5 4734,-79.5 4734,-58.5 4570,-58.5"/>
<text text-anchor="middle" x="4652" y="-66.5" font-family="Helvetica,sans-Serif" font-size="10.00">VolumeControlAlertWindow.cpp</text>
</a>
</g>
<!-- Node1&#45;&gt;Node41 -->
<g id="edge112" class="edge"><title>Node1&#45;&gt;Node41</title>
<path fill="none" stroke="midnightblue" d="M2262.15,-126.573C2599.88,-124.313 4096.48,-112.604 4561,-80 4563.86,-79.7994 4566.76,-79.5727 4569.7,-79.3245"/>
<polygon fill="midnightblue" stroke="midnightblue" points="2262,-123.073 2252.03,-126.64 2262.05,-130.073 2262,-123.073"/>
</g>
<!-- Node42 -->
<g id="node99" class="node"><title>Node42</title>
<a xlink:href="MenuWindowManager_8cpp.htm" target="_top" xlink:title="MenuWindowManager.cpp">
<polygon fill="white" stroke="black" points="4751.5,-58.5 4751.5,-79.5 4894.5,-79.5 4894.5,-58.5 4751.5,-58.5"/>
<text text-anchor="middle" x="4823" y="-66.5" font-family="Helvetica,sans-Serif" font-size="10.00">MenuWindowManager.cpp</text>
</a>
</g>
<!-- Node1&#45;&gt;Node42 -->
<g id="edge114" class="edge"><title>Node1&#45;&gt;Node42</title>
<path fill="none" stroke="midnightblue" d="M2262.18,-126.835C2615.45,-125.813 4240.62,-119.033 4743,-80 4745.66,-79.7937 4748.36,-79.5574 4751.09,-79.2967"/>
<polygon fill="midnightblue" stroke="midnightblue" points="2262.09,-123.335 2252.1,-126.863 2262.11,-130.335 2262.09,-123.335"/>
</g>
<!-- Node43 -->
<g id="node101" class="node"><title>Node43</title>
<a xlink:href="StatusBar_8cpp.htm" target="_top" xlink:title="StatusBar.cpp">
<polygon fill="white" stroke="black" points="4912,-58.5 4912,-79.5 4994,-79.5 4994,-58.5 4912,-58.5"/>
<text text-anchor="middle" x="4953" y="-66.5" font-family="Helvetica,sans-Serif" font-size="10.00">StatusBar.cpp</text>
</a>
</g>
<!-- Node1&#45;&gt;Node43 -->
<g id="edge116" class="edge"><title>Node1&#45;&gt;Node43</title>
<path fill="none" stroke="midnightblue" d="M2262.12,-126.63C2656.05,-124.385 4633.99,-111.605 4903,-80 4905.91,-79.6578 4908.91,-79.221 4911.91,-78.7197"/>
<polygon fill="midnightblue" stroke="midnightblue" points="2262,-123.131 2252.02,-126.688 2262.04,-130.131 2262,-123.131"/>
</g>
<!-- Node44 -->
<g id="node103" class="node"><title>Node44</title>
<a xlink:href="StatusBarBattery_8cpp.htm" target="_top" xlink:title="StatusBarBattery.cpp">
<polygon fill="white" stroke="black" points="5012,-58.5 5012,-79.5 5128,-79.5 5128,-58.5 5012,-58.5"/>
<text text-anchor="middle" x="5070" y="-66.5" font-family="Helvetica,sans-Serif" font-size="10.00">StatusBarBattery.cpp</text>
</a>
</g>
<!-- Node1&#45;&gt;Node44 -->
<g id="edge118" class="edge"><title>Node1&#45;&gt;Node44</title>
<path fill="none" stroke="midnightblue" d="M2262.03,-126.457C2664.21,-123.171 4722.68,-105.221 5003,-80 5005.94,-79.7359 5008.94,-79.4185 5011.96,-79.0607"/>
<polygon fill="midnightblue" stroke="midnightblue" points="2261.97,-122.958 2252,-126.539 2262.03,-129.957 2261.97,-122.958"/>
</g>
<!-- Node45 -->
<g id="node105" class="node"><title>Node45</title>
<a xlink:href="StatusBarSearch_8cpp.htm" target="_top" xlink:title="StatusBarSearch.cpp">
<polygon fill="white" stroke="black" points="5146,-58.5 5146,-79.5 5262,-79.5 5262,-58.5 5146,-58.5"/>
<text text-anchor="middle" x="5204" y="-66.5" font-family="Helvetica,sans-Serif" font-size="10.00">StatusBarSearch.cpp</text>
</a>
</g>
<!-- Node1&#45;&gt;Node45 -->
<g id="edge120" class="edge"><title>Node1&#45;&gt;Node45</title>
<path fill="none" stroke="midnightblue" d="M2262.28,-126.511C2676.3,-123.467 4842.59,-106.375 5137,-80 5139.94,-79.737 5142.94,-79.4206 5145.96,-79.0635"/>
<polygon fill="midnightblue" stroke="midnightblue" points="2262.23,-123.011 2252.25,-126.585 2262.28,-130.011 2262.23,-123.011"/>
</g>
<!-- Node46 -->
<g id="node107" class="node"><title>Node46</title>
<a xlink:href="StatusBarSeparator_8cpp.htm" target="_top" xlink:title="StatusBarSeparator.cpp">
<polygon fill="white" stroke="black" points="5279.5,-58.5 5279.5,-79.5 5408.5,-79.5 5408.5,-58.5 5279.5,-58.5"/>
<text text-anchor="middle" x="5344" y="-66.5" font-family="Helvetica,sans-Serif" font-size="10.00">StatusBarSeparator.cpp</text>
</a>
</g>
<!-- Node1&#45;&gt;Node46 -->
<g id="edge122" class="edge"><title>Node1&#45;&gt;Node46</title>
<path fill="none" stroke="midnightblue" d="M2262.28,-126.508C2687.29,-123.373 4962.27,-105.502 5271,-80 5273.68,-79.7784 5276.42,-79.5192 5279.17,-79.2299"/>
<polygon fill="midnightblue" stroke="midnightblue" points="2261.98,-123.01 2252,-126.584 2262.03,-130.01 2261.98,-123.01"/>
</g>
<!-- Node47 -->
<g id="node109" class="node"><title>Node47</title>
<a xlink:href="SystemMenu_8cpp.htm" target="_top" xlink:title="SystemMenu.cpp">
<polygon fill="white" stroke="black" points="5425.5,-58.5 5425.5,-79.5 5522.5,-79.5 5522.5,-58.5 5425.5,-58.5"/>
<text text-anchor="middle" x="5474" y="-66.5" font-family="Helvetica,sans-Serif" font-size="10.00">SystemMenu.cpp</text>
</a>
</g>
<!-- Node1&#45;&gt;Node47 -->
<g id="edge124" class="edge"><title>Node1&#45;&gt;Node47</title>
<path fill="none" stroke="midnightblue" d="M2262.39,-126.727C2699.43,-124.883 5093.46,-113.316 5417,-80 5419.71,-79.7213 5422.48,-79.379 5425.27,-78.9896"/>
<polygon fill="midnightblue" stroke="midnightblue" points="2262.11,-123.228 2252.13,-126.77 2262.14,-130.227 2262.11,-123.228"/>
</g>
<!-- Node48 -->
<g id="node114" class="node"><title>Node48</title>
<a xlink:href="IpcClientHost_8cpp.htm" target="_top" xlink:title="IpcClientHost.cpp">
<polygon fill="white" stroke="black" points="5539.5,-58.5 5539.5,-79.5 5638.5,-79.5 5638.5,-58.5 5539.5,-58.5"/>
<text text-anchor="middle" x="5589" y="-66.5" font-family="Helvetica,sans-Serif" font-size="10.00">IpcClientHost.cpp</text>
</a>
</g>
<!-- Node1&#45;&gt;Node48 -->
<g id="edge132" class="edge"><title>Node1&#45;&gt;Node48</title>
<path fill="none" stroke="midnightblue" d="M2262.32,-126.75C2708.14,-125.026 5195.33,-113.935 5531,-80 5533.75,-79.7217 5536.57,-79.3797 5539.41,-78.9906"/>
<polygon fill="midnightblue" stroke="midnightblue" points="2262.15,-123.251 2252.17,-126.789 2262.18,-130.251 2262.15,-123.251"/>
</g>
<!-- Node49 -->
<g id="node117" class="node"><title>Node49</title>
<a xlink:href="ProcessManager_8cpp.htm" target="_top" xlink:title="ProcessManager.cpp">
<polygon fill="white" stroke="black" points="5655.5,-58.5 5655.5,-79.5 5772.5,-79.5 5772.5,-58.5 5655.5,-58.5"/>
<text text-anchor="middle" x="5714" y="-66.5" font-family="Helvetica,sans-Serif" font-size="10.00">ProcessManager.cpp</text>
</a>
</g>
<!-- Node1&#45;&gt;Node49 -->
<g id="edge136" class="edge"><title>Node1&#45;&gt;Node49</title>
<path fill="none" stroke="midnightblue" d="M2262.15,-126.684C2716.44,-124.5 5298.61,-110.797 5647,-80 5649.7,-79.7613 5652.46,-79.4766 5655.24,-79.1563"/>
<polygon fill="midnightblue" stroke="midnightblue" points="2262.12,-123.185 2252.13,-126.732 2262.15,-130.184 2262.12,-123.185"/>
</g>
<!-- Node50 -->
<g id="node119" class="node"><title>Node50</title>
<a xlink:href="WebAppManager_8cpp.htm" target="_top" xlink:title="WebAppManager.cpp">
<polygon fill="white" stroke="black" points="5789.5,-58.5 5789.5,-79.5 5908.5,-79.5 5908.5,-58.5 5789.5,-58.5"/>
<text text-anchor="middle" x="5849" y="-66.5" font-family="Helvetica,sans-Serif" font-size="10.00">WebAppManager.cpp</text>
</a>
</g>
<!-- Node1&#45;&gt;Node50 -->
<g id="edge138" class="edge"><title>Node1&#45;&gt;Node50</title>
<path fill="none" stroke="midnightblue" d="M2262.56,-126.71C2728.14,-124.662 5418.47,-111.524 5781,-80 5783.74,-79.7617 5786.54,-79.4775 5789.36,-79.1574"/>
<polygon fill="midnightblue" stroke="midnightblue" points="2262.28,-123.211 2252.29,-126.755 2262.31,-130.211 2262.28,-123.211"/>
</g>
<!-- Node4&#45;&gt;Node5 -->
<g id="edge8" class="edge"><title>Node4&#45;&gt;Node5</title>
<path fill="none" stroke="midnightblue" d="M715.927,-65.118C572.184,-56.5395 234.852,-35.649 121,-22 118.273,-21.673 115.485,-21.3107 112.674,-20.9225"/>
<polygon fill="midnightblue" stroke="midnightblue" points="715.746,-68.6133 725.936,-65.7141 716.162,-61.6257 715.746,-68.6133"/>
</g>
<!-- Node4&#45;&gt;Node6 -->
<g id="edge10" class="edge"><title>Node4&#45;&gt;Node6</title>
<path fill="none" stroke="midnightblue" d="M715.639,-64.0752C591.694,-54.741 329.396,-34.3088 239,-22 236.316,-21.6345 233.568,-21.2298 230.798,-20.7975"/>
<polygon fill="midnightblue" stroke="midnightblue" points="715.523,-67.5763 725.757,-64.8357 716.048,-60.596 715.523,-67.5763"/>
</g>
<!-- Node4&#45;&gt;Node7 -->
<g id="edge12" class="edge"><title>Node4&#45;&gt;Node7</title>
<path fill="none" stroke="midnightblue" d="M780.206,-48.1906C779.428,-39.1684 778.551,-28.9941 777.911,-21.5707"/>
<polygon fill="midnightblue" stroke="midnightblue" points="776.737,-48.6995 781.083,-58.3619 783.711,-48.0982 776.737,-48.6995"/>
</g>
<!-- Node4&#45;&gt;Node8 -->
<g id="edge14" class="edge"><title>Node4&#45;&gt;Node8</title>
<path fill="none" stroke="midnightblue" d="M715.811,-62.1604C615.026,-51.6522 427.753,-31.7335 361,-22 358.231,-21.5963 355.396,-21.1611 352.536,-20.7051"/>
<polygon fill="midnightblue" stroke="midnightblue" points="715.571,-65.6543 725.88,-63.2089 716.296,-58.6919 715.571,-65.6543"/>
</g>
<!-- Node4&#45;&gt;Node9 -->
<g id="edge16" class="edge"><title>Node4&#45;&gt;Node9</title>
<path fill="none" stroke="midnightblue" d="M813.628,-54.2064C835.382,-44.031 863.762,-30.7567 883.293,-21.6212"/>
<polygon fill="midnightblue" stroke="midnightblue" points="812.031,-51.0894 804.455,-58.4966 814.996,-57.4301 812.031,-51.0894"/>
</g>
<!-- Node4&#45;&gt;Node10 -->
<g id="edge18" class="edge"><title>Node4&#45;&gt;Node10</title>
<path fill="none" stroke="midnightblue" d="M715.984,-57.3265C656.725,-46.8477 570.517,-31.6035 513.385,-21.5009"/>
<polygon fill="midnightblue" stroke="midnightblue" points="715.531,-60.8005 725.987,-59.0953 716.75,-53.9075 715.531,-60.8005"/>
</g>
<!-- Node4&#45;&gt;Node11 -->
<g id="edge20" class="edge"><title>Node4&#45;&gt;Node11</title>
<path fill="none" stroke="midnightblue" d="M838.02,-56.2081C883.627,-45.7938 947.224,-31.2716 989.916,-21.5231"/>
<polygon fill="midnightblue" stroke="midnightblue" points="836.967,-52.8582 827.997,-58.4966 838.526,-59.6826 836.967,-52.8582"/>
</g>
<!-- Node4&#45;&gt;Node12 -->
<g id="edge22" class="edge"><title>Node4&#45;&gt;Node12</title>
<path fill="none" stroke="midnightblue" d="M744.37,-55.0095C716.648,-44.7023 679.532,-30.903 654.303,-21.5231"/>
<polygon fill="midnightblue" stroke="midnightblue" points="743.157,-58.2923 753.75,-58.4966 745.596,-51.7311 743.157,-58.2923"/>
</g>
<!-- Node4&#45;&gt;Node13 -->
<g id="edge24" class="edge"><title>Node4&#45;&gt;Node13</title>
<path fill="none" stroke="midnightblue" d="M848.431,-59.712C914.527,-50.4097 1018.82,-35.5651 1109,-22 1111.92,-21.5608 1114.91,-21.1073 1117.92,-20.646"/>
<polygon fill="midnightblue" stroke="midnightblue" points="847.575,-56.2979 838.159,-61.1563 848.549,-63.2297 847.575,-56.2979"/>
</g>
<!-- Node21&#45;&gt;Node7 -->
<g id="edge52" class="edge"><title>Node21&#45;&gt;Node7</title>
<path fill="none" stroke="midnightblue" d="M1127.64,-61.6295C1062.02,-52.5241 947.267,-36.4617 849,-22 846.248,-21.595 843.437,-21.1783 840.598,-20.755"/>
<polygon fill="midnightblue" stroke="midnightblue" points="1127.35,-65.1231 1137.74,-63.0298 1128.31,-58.1894 1127.35,-65.1231"/>
</g>
<!-- Node21&#45;&gt;Node9 -->
<g id="edge62" class="edge"><title>Node21&#45;&gt;Node9</title>
<path fill="none" stroke="midnightblue" d="M1127.7,-57.7577C1077.39,-47.1475 1002.63,-31.381 954.104,-21.1456"/>
<polygon fill="midnightblue" stroke="midnightblue" points="1127.22,-61.2346 1137.73,-59.8737 1128.67,-54.3853 1127.22,-61.2346"/>
</g>
<!-- Node21&#45;&gt;Node11 -->
<g id="edge64" class="edge"><title>Node21&#45;&gt;Node11</title>
<path fill="none" stroke="midnightblue" d="M1145.38,-54.7509C1119.77,-44.5086 1085.8,-30.9206 1062.55,-21.6212"/>
<polygon fill="midnightblue" stroke="midnightblue" points="1144.16,-58.0323 1154.74,-58.4966 1146.76,-51.533 1144.16,-58.0323"/>
</g>
<!-- Node21&#45;&gt;Node13 -->
<g id="edge68" class="edge"><title>Node21&#45;&gt;Node13</title>
<path fill="none" stroke="midnightblue" d="M1180.28,-48.1906C1179.97,-39.1684 1179.62,-28.9941 1179.36,-21.5707"/>
<polygon fill="midnightblue" stroke="midnightblue" points="1176.79,-48.4885 1180.63,-58.3619 1183.79,-48.2472 1176.79,-48.4885"/>
</g>
<!-- Node21&#45;&gt;Node17 -->
<g id="edge50" class="edge"><title>Node21&#45;&gt;Node17</title>
<path fill="none" stroke="midnightblue" d="M1213.85,-54.3431C1236.7,-44.1502 1266.63,-30.7977 1287.19,-21.6212"/>
<polygon fill="midnightblue" stroke="midnightblue" points="1212.25,-51.2259 1204.54,-58.4966 1215.1,-57.6185 1212.25,-51.2259"/>
</g>
<!-- Node21&#45;&gt;Node22 -->
<g id="edge54" class="edge"><title>Node21&#45;&gt;Node22</title>
<path fill="none" stroke="midnightblue" d="M1233.93,-56.6712C1278.8,-46.2202 1342.44,-31.3948 1384.92,-21.5009"/>
<polygon fill="midnightblue" stroke="midnightblue" points="1233.03,-53.286 1224.09,-58.9634 1234.62,-60.1035 1233.03,-53.286"/>
</g>
<!-- Node21&#45;&gt;Node23 -->
<g id="edge56" class="edge"><title>Node21&#45;&gt;Node23</title>
<path fill="none" stroke="midnightblue" d="M1234.14,-60.9947C1302.35,-50.718 1420.89,-32.8613 1496.28,-21.5026"/>
<polygon fill="midnightblue" stroke="midnightblue" points="1233.41,-57.5648 1224.04,-62.5155 1234.45,-64.4867 1233.41,-57.5648"/>
</g>
<!-- Node21&#45;&gt;Node24 -->
<g id="edge58" class="edge"><title>Node21&#45;&gt;Node24</title>
<path fill="none" stroke="midnightblue" d="M1234.28,-63.875C1320.58,-55.5117 1496.3,-38.2303 1645,-22 1647.94,-21.6791 1650.93,-21.3489 1653.95,-21.0124"/>
<polygon fill="midnightblue" stroke="midnightblue" points="1233.82,-60.4028 1224.2,-64.85 1234.49,-67.3703 1233.82,-60.4028"/>
</g>
<!-- Node21&#45;&gt;Node25 -->
<g id="edge60" class="edge"><title>Node21&#45;&gt;Node25</title>
<path fill="none" stroke="midnightblue" d="M1234.23,-65.4706C1368.23,-56.5353 1717.1,-32.953 1833,-22 1835.94,-21.7217 1838.94,-21.4282 1841.96,-21.123"/>
<polygon fill="midnightblue" stroke="midnightblue" points="1233.94,-61.9816 1224.2,-66.1387 1234.41,-68.9662 1233.94,-61.9816"/>
</g>
<!-- Node21&#45;&gt;Node26 -->
<g id="edge66" class="edge"><title>Node21&#45;&gt;Node26</title>
<path fill="none" stroke="midnightblue" d="M1234.28,-66.1263C1412.94,-56.4756 1981.81,-25.6276 2021,-22 2023.82,-21.7394 2026.68,-21.457 2029.57,-21.1572"/>
<polygon fill="midnightblue" stroke="midnightblue" points="1233.87,-62.6432 1224.07,-66.6774 1234.25,-69.633 1233.87,-62.6432"/>
</g>
<!-- Node34&#45;&gt;Node35 -->
<g id="edge94" class="edge"><title>Node34&#45;&gt;Node35</title>
<path fill="none" stroke="midnightblue" d="M3573.29,-50.8299C3581.92,-41.2078 3592.21,-29.7282 3599.52,-21.5707"/>
<polygon fill="midnightblue" stroke="midnightblue" points="3570.61,-48.5798 3566.54,-58.3619 3575.82,-53.2526 3570.61,-48.5798"/>
</g>
</g>
</svg>
