<?xml version="1.0" encoding="UTF-8" standalone="no"?>
<!DOCTYPE svg PUBLIC "-//W3C//DTD SVG 1.1//EN"
 "http://www.w3.org/Graphics/SVG/1.1/DTD/svg11.dtd">
<!-- Generated by graphviz version 2.26.3 (20100126.1600)
 -->
<!-- Title: G Pages: 1 -->
<svg width="628pt" height="204pt"
 viewBox="0.00 0.00 628.00 204.00" xmlns="http://www.w3.org/2000/svg" xmlns:xlink="http://www.w3.org/1999/xlink">
<g id="graph1" class="graph" transform="scale(1 1) rotate(0) translate(4 200)">
<title>G</title>
<polygon fill="white" stroke="white" points="-4,5 -4,-200 625,-200 625,5 -4,5"/>
<!-- Node1 -->
<g id="node1" class="node"><title>Node1</title>
<polygon fill="#bfbfbf" stroke="black" points="156,-174.5 156,-195.5 248,-195.5 248,-174.5 156,-174.5"/>
<text text-anchor="middle" x="202" y="-182.5" font-family="Helvetica,sans-Serif" font-size="10.00">TabletKeymap.h</text>
</g>
<!-- Node2 -->
<g id="node3" class="node"><title>Node2</title>
<polygon fill="white" stroke="#bfbfbf" points="0,-116.5 0,-137.5 98,-137.5 98,-116.5 0,-116.5"/>
<text text-anchor="middle" x="49" y="-124.5" font-family="Helvetica,sans-Serif" font-size="10.00">palmimedefines.h</text>
</g>
<!-- Node1&#45;&gt;Node2 -->
<g id="edge2" class="edge"><title>Node1&#45;&gt;Node2</title>
<path fill="none" stroke="midnightblue" d="M174.293,-174.497C149.674,-165.164 113.483,-151.445 86.3201,-141.147"/>
<polygon fill="midnightblue" stroke="midnightblue" points="87.3505,-137.795 76.7591,-137.523 84.8691,-144.341 87.3505,-137.795"/>
</g>
<!-- Node3 -->
<g id="node5" class="node"><title>Node3</title>
<polygon fill="white" stroke="#bfbfbf" points="116,-116.5 116,-137.5 160,-137.5 160,-116.5 116,-116.5"/>
<text text-anchor="middle" x="138" y="-124.5" font-family="Helvetica,sans-Serif" font-size="10.00">qlist.h</text>
</g>
<!-- Node1&#45;&gt;Node3 -->
<g id="edge4" class="edge"><title>Node1&#45;&gt;Node3</title>
<path fill="none" stroke="midnightblue" d="M190.261,-174.362C181.059,-166.023 168.06,-154.242 157.328,-144.516"/>
<polygon fill="midnightblue" stroke="midnightblue" points="159.424,-141.692 149.664,-137.571 154.724,-146.879 159.424,-141.692"/>
</g>
<!-- Node4 -->
<g id="node7" class="node"><title>Node4</title>
<polygon fill="white" stroke="#bfbfbf" points="177.5,-116.5 177.5,-137.5 226.5,-137.5 226.5,-116.5 177.5,-116.5"/>
<text text-anchor="middle" x="202" y="-124.5" font-family="Helvetica,sans-Serif" font-size="10.00">qrect.h</text>
</g>
<!-- Node1&#45;&gt;Node4 -->
<g id="edge6" class="edge"><title>Node1&#45;&gt;Node4</title>
<path fill="none" stroke="midnightblue" d="M202,-174.362C202,-166.922 202,-156.743 202,-147.728"/>
<polygon fill="midnightblue" stroke="midnightblue" points="205.5,-147.571 202,-137.571 198.5,-147.571 205.5,-147.571"/>
</g>
<!-- Node5 -->
<g id="node9" class="node"><title>Node5</title>
<polygon fill="white" stroke="#bfbfbf" points="243.5,-116.5 243.5,-137.5 300.5,-137.5 300.5,-116.5 243.5,-116.5"/>
<text text-anchor="middle" x="272" y="-124.5" font-family="Helvetica,sans-Serif" font-size="10.00">qstring.h</text>
</g>
<!-- Node1&#45;&gt;Node5 -->
<g id="edge8" class="edge"><title>Node1&#45;&gt;Node5</title>
<path fill="none" stroke="midnightblue" d="M214.839,-174.362C225.002,-165.941 239.401,-154.011 251.204,-144.231"/>
<polygon fill="midnightblue" stroke="midnightblue" points="253.775,-146.646 259.242,-137.571 249.309,-141.256 253.775,-146.646"/>
</g>
<!-- Node6 -->
<g id="node11" class="node"><title>Node6</title>
<a xlink:href="PalmIMEHelpers_8h.htm" target="_top" xlink:title="PalmIMEHelpers.h">
<polygon fill="white" stroke="black" points="318,-116.5 318,-137.5 422,-137.5 422,-116.5 318,-116.5"/>
<text text-anchor="middle" x="370" y="-124.5" font-family="Helvetica,sans-Serif" font-size="10.00">PalmIMEHelpers.h</text>
</a>
</g>
<!-- Node1&#45;&gt;Node6 -->
<g id="edge10" class="edge"><title>Node1&#45;&gt;Node6</title>
<path fill="none" stroke="midnightblue" d="M232.424,-174.497C259.694,-165.082 299.893,-151.204 329.804,-140.877"/>
<polygon fill="midnightblue" stroke="midnightblue" points="331.209,-144.095 339.519,-137.523 328.925,-137.478 331.209,-144.095"/>
</g>
<!-- Node7 -->
<g id="node13" class="node"><title>Node7</title>
<polygon fill="white" stroke="#bfbfbf" points="243,-58.5 243,-79.5 289,-79.5 289,-58.5 243,-58.5"/>
<text text-anchor="middle" x="266" y="-66.5" font-family="Helvetica,sans-Serif" font-size="10.00">vector</text>
</g>
<!-- Node6&#45;&gt;Node7 -->
<g id="edge12" class="edge"><title>Node6&#45;&gt;Node7</title>
<path fill="none" stroke="midnightblue" d="M350.925,-116.362C334.945,-107.45 311.919,-94.6087 293.873,-84.5447"/>
<polygon fill="midnightblue" stroke="midnightblue" points="295.393,-81.3846 284.954,-79.5707 291.983,-87.4982 295.393,-81.3846"/>
</g>
<!-- Node8 -->
<g id="node15" class="node"><title>Node8</title>
<polygon fill="white" stroke="#bfbfbf" points="307,-58.5 307,-79.5 361,-79.5 361,-58.5 307,-58.5"/>
<text text-anchor="middle" x="334" y="-66.5" font-family="Helvetica,sans-Serif" font-size="10.00">qcolor.h</text>
</g>
<!-- Node6&#45;&gt;Node8 -->
<g id="edge14" class="edge"><title>Node6&#45;&gt;Node8</title>
<path fill="none" stroke="midnightblue" d="M363.397,-116.362C358.525,-108.513 351.762,-97.6159 345.95,-88.2527"/>
<polygon fill="midnightblue" stroke="midnightblue" points="348.809,-86.2213 340.561,-79.5707 342.861,-89.9129 348.809,-86.2213"/>
</g>
<!-- Node9 -->
<g id="node17" class="node"><title>Node9</title>
<polygon fill="white" stroke="#bfbfbf" points="379,-58.5 379,-79.5 433,-79.5 433,-58.5 379,-58.5"/>
<text text-anchor="middle" x="406" y="-66.5" font-family="Helvetica,sans-Serif" font-size="10.00">qpoint.h</text>
</g>
<!-- Node6&#45;&gt;Node9 -->
<g id="edge16" class="edge"><title>Node6&#45;&gt;Node9</title>
<path fill="none" stroke="midnightblue" d="M376.603,-116.362C381.475,-108.513 388.238,-97.6159 394.05,-88.2527"/>
<polygon fill="midnightblue" stroke="midnightblue" points="397.139,-89.9129 399.439,-79.5707 391.191,-86.2213 397.139,-89.9129"/>
</g>
<!-- Node10 -->
<g id="node19" class="node"><title>Node10</title>
<a xlink:href="Logging_8h.htm" target="_top" xlink:title="Logging.h">
<polygon fill="white" stroke="black" points="450.5,-58.5 450.5,-79.5 513.5,-79.5 513.5,-58.5 450.5,-58.5"/>
<text text-anchor="middle" x="482" y="-66.5" font-family="Helvetica,sans-Serif" font-size="10.00">Logging.h</text>
</a>
</g>
<!-- Node6&#45;&gt;Node10 -->
<g id="edge18" class="edge"><title>Node6&#45;&gt;Node10</title>
<path fill="none" stroke="midnightblue" d="M390.282,-116.497C407.618,-107.519 432.79,-94.4835 452.38,-84.3387"/>
<polygon fill="midnightblue" stroke="midnightblue" points="454.22,-87.3278 461.49,-79.6212 451.001,-81.1118 454.22,-87.3278"/>
</g>
<!-- Node11 -->
<g id="node21" class="node"><title>Node11</title>
<a xlink:href="Common_8h.htm" target="_top" xlink:title="Common.h">
<polygon fill="white" stroke="black" points="343.5,-0.5 343.5,-21.5 410.5,-21.5 410.5,-0.5 343.5,-0.5"/>
<text text-anchor="middle" x="377" y="-8.5" font-family="Helvetica,sans-Serif" font-size="10.00">Common.h</text>
</a>
</g>
<!-- Node10&#45;&gt;Node11 -->
<g id="edge20" class="edge"><title>Node10&#45;&gt;Node11</title>
<path fill="none" stroke="midnightblue" d="M462.741,-58.3619C446.534,-49.4094 423.147,-36.4908 404.891,-26.4064"/>
<polygon fill="midnightblue" stroke="midnightblue" points="406.582,-23.3422 396.137,-21.5707 403.198,-29.4696 406.582,-23.3422"/>
</g>
<!-- Node12 -->
<g id="node23" class="node"><title>Node12</title>
<polygon fill="white" stroke="#bfbfbf" points="427.5,-0.5 427.5,-21.5 474.5,-21.5 474.5,-0.5 427.5,-0.5"/>
<text text-anchor="middle" x="451" y="-8.5" font-family="Helvetica,sans-Serif" font-size="10.00">stdio.h</text>
</g>
<!-- Node10&#45;&gt;Node12 -->
<g id="edge22" class="edge"><title>Node10&#45;&gt;Node12</title>
<path fill="none" stroke="midnightblue" d="M476.314,-58.3619C472.163,-50.5949 466.416,-39.8426 461.447,-30.5458"/>
<polygon fill="midnightblue" stroke="midnightblue" points="464.45,-28.7401 456.65,-21.5707 458.277,-32.0398 464.45,-28.7401"/>
</g>
<!-- Node13 -->
<g id="node25" class="node"><title>Node13</title>
<polygon fill="white" stroke="#bfbfbf" points="491.5,-0.5 491.5,-21.5 532.5,-21.5 532.5,-0.5 491.5,-0.5"/>
<text text-anchor="middle" x="512" y="-8.5" font-family="Helvetica,sans-Serif" font-size="10.00">glib.h</text>
</g>
<!-- Node10&#45;&gt;Node13 -->
<g id="edge24" class="edge"><title>Node10&#45;&gt;Node13</title>
<path fill="none" stroke="midnightblue" d="M487.502,-58.3619C491.52,-50.5949 497.081,-39.8426 501.89,-30.5458"/>
<polygon fill="midnightblue" stroke="midnightblue" points="505.047,-32.0608 506.532,-21.5707 498.829,-28.8448 505.047,-32.0608"/>
</g>
<!-- Node14 -->
<g id="node27" class="node"><title>Node14</title>
<polygon fill="white" stroke="#bfbfbf" points="549.5,-0.5 549.5,-21.5 620.5,-21.5 620.5,-0.5 549.5,-0.5"/>
<text text-anchor="middle" x="585" y="-8.5" font-family="Helvetica,sans-Serif" font-size="10.00">PmLogLib.h</text>
</g>
<!-- Node10&#45;&gt;Node14 -->
<g id="edge26" class="edge"><title>Node10&#45;&gt;Node14</title>
<path fill="none" stroke="midnightblue" d="M500.892,-58.3619C516.718,-49.4502 539.523,-36.6087 557.395,-26.5447"/>
<polygon fill="midnightblue" stroke="midnightblue" points="559.232,-29.5271 566.228,-21.5707 555.797,-23.4276 559.232,-29.5271"/>
</g>
</g>
</svg>
