<?xml version="1.0" encoding="UTF-8" standalone="no"?>
<!DOCTYPE svg PUBLIC "-//W3C//DTD SVG 1.1//EN"
 "http://www.w3.org/Graphics/SVG/1.1/DTD/svg11.dtd">
<!-- Generated by graphviz version 2.26.3 (20100126.1600)
 -->
<!-- Title: G Pages: 1 -->
<svg width="1671pt" height="378pt"
 viewBox="0.00 0.00 1670.50 378.00" xmlns="http://www.w3.org/2000/svg" xmlns:xlink="http://www.w3.org/1999/xlink">
<g id="graph1" class="graph" transform="scale(1 1) rotate(0) translate(4 374)">
<title>G</title>
<polygon fill="white" stroke="white" points="-4,5 -4,-374 1667.5,-374 1667.5,5 -4,5"/>
<!-- Node1 -->
<g id="node1" class="node"><title>Node1</title>
<polygon fill="#bfbfbf" stroke="black" points="493.505,-348.5 493.505,-369.5 597.505,-369.5 597.505,-348.5 493.505,-348.5"/>
<text text-anchor="middle" x="545.505" y="-356.5" font-family="Helvetica,sans-Serif" font-size="10.00">TabletKeymap.cpp</text>
</g>
<!-- Node2 -->
<g id="node3" class="node"><title>Node2</title>
<a xlink:href="TabletKeymap_8h.htm" target="_top" xlink:title="TabletKeymap.h">
<polygon fill="white" stroke="black" points="992.505,-174.5 992.505,-195.5 1084.5,-195.5 1084.5,-174.5 992.505,-174.5"/>
<text text-anchor="middle" x="1038.5" y="-182.5" font-family="Helvetica,sans-Serif" font-size="10.00">TabletKeymap.h</text>
</a>
</g>
<!-- Node1&#45;&gt;Node2 -->
<g id="edge2" class="edge"><title>Node1&#45;&gt;Node2</title>
<path fill="none" stroke="midnightblue" d="M493.364,-357.205C425.214,-353.636 311.458,-343.066 285.505,-312 279.236,-304.496 279.192,-297.467 285.505,-290 382.009,-175.863 803.087,-213.678 951.505,-196 961.482,-194.812 972.098,-193.505 982.359,-192.22"/>
<polygon fill="midnightblue" stroke="midnightblue" points="982.981,-195.669 992.466,-190.947 982.107,-188.724 982.981,-195.669"/>
</g>
<!-- Node11 -->
<g id="node21" class="node"><title>Node11</title>
<a xlink:href="Logging_8h.htm" target="_top" xlink:title="Logging.h">
<polygon fill="white" stroke="black" points="788.005,-58.5 788.005,-79.5 851.005,-79.5 851.005,-58.5 788.005,-58.5"/>
<text text-anchor="middle" x="819.505" y="-66.5" font-family="Helvetica,sans-Serif" font-size="10.00">Logging.h</text>
</a>
</g>
<!-- Node1&#45;&gt;Node11 -->
<g id="edge60" class="edge"><title>Node1&#45;&gt;Node11</title>
<path fill="none" stroke="midnightblue" d="M493.398,-354.742C409.528,-347.359 252.239,-331.127 235.505,-312 212.091,-285.239 212.999,-260.318 234.505,-232 235.572,-230.595 644.298,-117.456 777.838,-80.5209"/>
<polygon fill="midnightblue" stroke="midnightblue" points="778.998,-83.8317 787.703,-77.7926 777.132,-77.085 778.998,-83.8317"/>
</g>
<!-- Node16 -->
<g id="node31" class="node"><title>Node16</title>
<a xlink:href="KeyLocationRecorder_8h.htm" target="_top" xlink:title="KeyLocationRecorder.h">
<polygon fill="white" stroke="black" points="814.505,-174.5 814.505,-195.5 942.505,-195.5 942.505,-174.5 814.505,-174.5"/>
<text text-anchor="middle" x="878.505" y="-182.5" font-family="Helvetica,sans-Serif" font-size="10.00">KeyLocationRecorder.h</text>
</a>
</g>
<!-- Node1&#45;&gt;Node16 -->
<g id="edge30" class="edge"><title>Node1&#45;&gt;Node16</title>
<path fill="none" stroke="midnightblue" d="M493.311,-354.281C413.303,-346.514 267.92,-330.085 252.505,-312 229.44,-284.941 228.323,-258.066 252.505,-232 271.023,-212.039 642.179,-194.599 804.07,-187.91"/>
<polygon fill="midnightblue" stroke="midnightblue" points="804.576,-191.392 814.424,-187.485 804.289,-184.398 804.576,-191.392"/>
</g>
<!-- Node19 -->
<g id="node41" class="node"><title>Node19</title>
<a xlink:href="Localization_8h.htm" target="_top" xlink:title="Localization.h">
<polygon fill="white" stroke="black" points="3.0047,-174.5 3.0047,-195.5 84.0047,-195.5 84.0047,-174.5 3.0047,-174.5"/>
<text text-anchor="middle" x="43.5047" y="-182.5" font-family="Helvetica,sans-Serif" font-size="10.00">Localization.h</text>
</a>
</g>
<!-- Node1&#45;&gt;Node19 -->
<g id="edge44" class="edge"><title>Node1&#45;&gt;Node19</title>
<path fill="none" stroke="midnightblue" d="M493.126,-356.443C381.909,-350.594 129.755,-334.95 98.5047,-312 63.9695,-286.638 50.86,-234.984 46.0841,-205.975"/>
<polygon fill="midnightblue" stroke="midnightblue" points="49.4973,-205.125 44.5921,-195.734 42.5704,-206.134 49.4973,-205.125"/>
</g>
<!-- Node20 -->
<g id="node44" class="node"><title>Node20</title>
<a xlink:href="QtUtils_8h.htm" target="_top" xlink:title="QtUtils.h">
<polygon fill="white" stroke="black" points="77.5047,-116.5 77.5047,-137.5 133.505,-137.5 133.505,-116.5 77.5047,-116.5"/>
<text text-anchor="middle" x="105.505" y="-124.5" font-family="Helvetica,sans-Serif" font-size="10.00">QtUtils.h</text>
</a>
</g>
<!-- Node1&#45;&gt;Node20 -->
<g id="edge62" class="edge"><title>Node1&#45;&gt;Node20</title>
<path fill="none" stroke="midnightblue" d="M493.326,-355.819C393.804,-349.298 184.495,-333.22 159.505,-312 110.525,-270.411 104.643,-187.11 104.761,-148.084"/>
<polygon fill="midnightblue" stroke="midnightblue" points="108.263,-147.962 104.935,-137.904 101.264,-147.842 108.263,-147.962"/>
</g>
<!-- Node23 -->
<g id="node55" class="node"><title>Node23</title>
<a xlink:href="Utils_8h.htm" target="_top" xlink:title="Utils.h">
<polygon fill="white" stroke="black" points="324.005,-116.5 324.005,-137.5 369.005,-137.5 369.005,-116.5 324.005,-116.5"/>
<text text-anchor="middle" x="346.505" y="-124.5" font-family="Helvetica,sans-Serif" font-size="10.00">Utils.h</text>
</a>
</g>
<!-- Node1&#45;&gt;Node23 -->
<g id="edge64" class="edge"><title>Node1&#45;&gt;Node23</title>
<path fill="none" stroke="midnightblue" d="M493.203,-356.11C396.371,-350.223 197.099,-335.384 176.505,-312 153.005,-285.317 159.186,-263.053 176.505,-232 205.867,-179.353 273.698,-149.799 314.243,-136.245"/>
<polygon fill="midnightblue" stroke="midnightblue" points="315.471,-139.527 323.924,-133.139 313.332,-132.861 315.471,-139.527"/>
</g>
<!-- Node31 -->
<g id="node75" class="node"><title>Node31</title>
<a xlink:href="VirtualKeyboardPreferences_8h.htm" target="_top" xlink:title="VirtualKeyboardPreferences.h">
<polygon fill="white" stroke="black" points="1506,-290.5 1506,-311.5 1663,-311.5 1663,-290.5 1506,-290.5"/>
<text text-anchor="middle" x="1584.5" y="-298.5" font-family="Helvetica,sans-Serif" font-size="10.00">VirtualKeyboardPreferences.h</text>
</a>
</g>
<!-- Node1&#45;&gt;Node31 -->
<g id="edge88" class="edge"><title>Node1&#45;&gt;Node31</title>
<path fill="none" stroke="midnightblue" d="M597.715,-357.824C740.084,-354.318 1147.19,-342.292 1495.78,-312.099"/>
<polygon fill="midnightblue" stroke="midnightblue" points="1496.16,-315.579 1505.81,-311.223 1495.55,-308.606 1496.16,-315.579"/>
</g>
<!-- Node39 -->
<g id="node97" class="node"><title>Node39</title>
<polygon fill="white" stroke="#bfbfbf" points="416.005,-290.5 416.005,-311.5 457.005,-311.5 457.005,-290.5 416.005,-290.5"/>
<text text-anchor="middle" x="436.505" y="-298.5" font-family="Helvetica,sans-Serif" font-size="10.00">QFile</text>
</g>
<!-- Node1&#45;&gt;Node39 -->
<g id="edge116" class="edge"><title>Node1&#45;&gt;Node39</title>
<path fill="none" stroke="midnightblue" d="M525.766,-348.497C508.895,-339.519 484.396,-326.484 465.331,-316.339"/>
<polygon fill="midnightblue" stroke="midnightblue" points="466.937,-313.229 456.465,-311.621 463.649,-319.409 466.937,-313.229"/>
</g>
<!-- Node40 -->
<g id="node99" class="node"><title>Node40</title>
<polygon fill="white" stroke="#bfbfbf" points="474.005,-290.5 474.005,-311.5 533.005,-311.5 533.005,-290.5 474.005,-290.5"/>
<text text-anchor="middle" x="503.505" y="-298.5" font-family="Helvetica,sans-Serif" font-size="10.00">qdebug.h</text>
</g>
<!-- Node1&#45;&gt;Node40 -->
<g id="edge118" class="edge"><title>Node1&#45;&gt;Node40</title>
<path fill="none" stroke="midnightblue" d="M537.801,-348.362C532.058,-340.431 524.062,-329.389 517.235,-319.961"/>
<polygon fill="midnightblue" stroke="midnightblue" points="519.859,-317.617 511.159,-311.571 514.19,-321.723 519.859,-317.617"/>
</g>
<!-- Node41 -->
<g id="node101" class="node"><title>Node41</title>
<polygon fill="white" stroke="#bfbfbf" points="550.505,-290.5 550.505,-311.5 624.505,-311.5 624.505,-290.5 550.505,-290.5"/>
<text text-anchor="middle" x="587.505" y="-298.5" font-family="Helvetica,sans-Serif" font-size="10.00">pbnjson.hpp</text>
</g>
<!-- Node1&#45;&gt;Node41 -->
<g id="edge120" class="edge"><title>Node1&#45;&gt;Node41</title>
<path fill="none" stroke="midnightblue" d="M553.208,-348.362C558.951,-340.431 566.947,-329.389 573.775,-319.961"/>
<polygon fill="midnightblue" stroke="midnightblue" points="576.82,-321.723 579.85,-311.571 571.15,-317.617 576.82,-321.723"/>
</g>
<!-- Node42 -->
<g id="node103" class="node"><title>Node42</title>
<a xlink:href="uk_8h.htm" target="_top" xlink:title="tabletkeymaps/uk.h">
<polygon fill="white" stroke="black" points="1258.5,-290.5 1258.5,-311.5 1364.5,-311.5 1364.5,-290.5 1258.5,-290.5"/>
<text text-anchor="middle" x="1311.5" y="-298.5" font-family="Helvetica,sans-Serif" font-size="10.00">tabletkeymaps/uk.h</text>
</a>
</g>
<!-- Node1&#45;&gt;Node42 -->
<g id="edge122" class="edge"><title>Node1&#45;&gt;Node42</title>
<path fill="none" stroke="midnightblue" d="M597.794,-357.457C713.34,-353.628 999.249,-341.845 1248.49,-312.008"/>
<polygon fill="midnightblue" stroke="midnightblue" points="1248.95,-315.478 1258.46,-310.803 1248.11,-308.528 1248.95,-315.478"/>
</g>
<!-- Node44 -->
<g id="node109" class="node"><title>Node44</title>
<a xlink:href="se_8h.htm" target="_top" xlink:title="tabletkeymaps/se.h">
<polygon fill="white" stroke="black" points="1382,-290.5 1382,-311.5 1489,-311.5 1489,-290.5 1382,-290.5"/>
<text text-anchor="middle" x="1435.5" y="-298.5" font-family="Helvetica,sans-Serif" font-size="10.00">tabletkeymaps/se.h</text>
</a>
</g>
<!-- Node1&#45;&gt;Node44 -->
<g id="edge130" class="edge"><title>Node1&#45;&gt;Node44</title>
<path fill="none" stroke="midnightblue" d="M597.522,-358.193C726.863,-355.725 1073.5,-346.295 1371.65,-312.107"/>
<polygon fill="midnightblue" stroke="midnightblue" points="1372.26,-315.56 1381.79,-310.932 1371.46,-308.606 1372.26,-315.56"/>
</g>
<!-- Node45 -->
<g id="node113" class="node"><title>Node45</title>
<a xlink:href="ru_8h.htm" target="_top" xlink:title="tabletkeymaps/ru.h">
<polygon fill="white" stroke="black" points="294.505,-290.5 294.505,-311.5 398.505,-311.5 398.505,-290.5 294.505,-290.5"/>
<text text-anchor="middle" x="346.505" y="-298.5" font-family="Helvetica,sans-Serif" font-size="10.00">tabletkeymaps/ru.h</text>
</a>
</g>
<!-- Node1&#45;&gt;Node45 -->
<g id="edge136" class="edge"><title>Node1&#45;&gt;Node45</title>
<path fill="none" stroke="midnightblue" d="M509.467,-348.497C476.604,-338.918 427.887,-324.72 392.281,-314.342"/>
<polygon fill="midnightblue" stroke="midnightblue" points="393.19,-310.961 382.61,-311.523 391.231,-317.681 393.19,-310.961"/>
</g>
<!-- Node46 -->
<g id="node117" class="node"><title>Node46</title>
<a xlink:href="no_8h.htm" target="_top" xlink:title="tabletkeymaps/no.h">
<polygon fill="white" stroke="black" points="642.005,-290.5 642.005,-311.5 749.005,-311.5 749.005,-290.5 642.005,-290.5"/>
<text text-anchor="middle" x="695.505" y="-298.5" font-family="Helvetica,sans-Serif" font-size="10.00">tabletkeymaps/no.h</text>
</a>
</g>
<!-- Node1&#45;&gt;Node46 -->
<g id="edge142" class="edge"><title>Node1&#45;&gt;Node46</title>
<path fill="none" stroke="midnightblue" d="M572.669,-348.497C596.805,-339.164 632.286,-325.445 658.916,-315.147"/>
<polygon fill="midnightblue" stroke="midnightblue" points="660.225,-318.394 668.29,-311.523 657.701,-311.865 660.225,-318.394"/>
</g>
<!-- Node47 -->
<g id="node121" class="node"><title>Node47</title>
<a xlink:href="de_8h.htm" target="_top" xlink:title="tabletkeymaps/de.h">
<polygon fill="white" stroke="black" points="766.005,-290.5 766.005,-311.5 873.005,-311.5 873.005,-290.5 766.005,-290.5"/>
<text text-anchor="middle" x="819.505" y="-298.5" font-family="Helvetica,sans-Serif" font-size="10.00">tabletkeymaps/de.h</text>
</a>
</g>
<!-- Node1&#45;&gt;Node47 -->
<g id="edge148" class="edge"><title>Node1&#45;&gt;Node47</title>
<path fill="none" stroke="midnightblue" d="M595.124,-348.497C641.437,-338.693 710.615,-324.05 759.903,-313.616"/>
<polygon fill="midnightblue" stroke="midnightblue" points="760.734,-317.018 769.792,-311.523 759.284,-310.17 760.734,-317.018"/>
</g>
<!-- Node48 -->
<g id="node125" class="node"><title>Node48</title>
<a xlink:href="fr_8h.htm" target="_top" xlink:title="tabletkeymaps/fr.h">
<polygon fill="white" stroke="black" points="890.505,-290.5 890.505,-311.5 992.505,-311.5 992.505,-290.5 890.505,-290.5"/>
<text text-anchor="middle" x="941.505" y="-298.5" font-family="Helvetica,sans-Serif" font-size="10.00">tabletkeymaps/fr.h</text>
</a>
</g>
<!-- Node1&#45;&gt;Node48 -->
<g id="edge154" class="edge"><title>Node1&#45;&gt;Node48</title>
<path fill="none" stroke="midnightblue" d="M597.699,-352.395C661.851,-344.122 774.279,-329.122 880.535,-312.108"/>
<polygon fill="midnightblue" stroke="midnightblue" points="881.151,-315.554 890.467,-310.509 880.038,-308.643 881.151,-315.554"/>
</g>
<!-- Node49 -->
<g id="node129" class="node"><title>Node49</title>
<a xlink:href="en_8h.htm" target="_top" xlink:title="tabletkeymaps/en.h">
<polygon fill="white" stroke="black" points="1010,-290.5 1010,-311.5 1117,-311.5 1117,-290.5 1010,-290.5"/>
<text text-anchor="middle" x="1063.5" y="-298.5" font-family="Helvetica,sans-Serif" font-size="10.00">tabletkeymaps/en.h</text>
</a>
</g>
<!-- Node1&#45;&gt;Node49 -->
<g id="edge160" class="edge"><title>Node1&#45;&gt;Node49</title>
<path fill="none" stroke="midnightblue" d="M597.628,-354.872C680.664,-348.023 848.292,-333.082 999.818,-312.166"/>
<polygon fill="midnightblue" stroke="midnightblue" points="1000.35,-315.626 1009.77,-310.78 999.387,-308.692 1000.35,-315.626"/>
</g>
<!-- Node50 -->
<g id="node133" class="node"><title>Node50</title>
<a xlink:href="dk_8h.htm" target="_top" xlink:title="tabletkeymaps/dk.h">
<polygon fill="white" stroke="black" points="1134,-290.5 1134,-311.5 1241,-311.5 1241,-290.5 1134,-290.5"/>
<text text-anchor="middle" x="1187.5" y="-298.5" font-family="Helvetica,sans-Serif" font-size="10.00">tabletkeymaps/dk.h</text>
</a>
</g>
<!-- Node1&#45;&gt;Node50 -->
<g id="edge166" class="edge"><title>Node1&#45;&gt;Node50</title>
<path fill="none" stroke="midnightblue" d="M597.669,-356.433C697.78,-351.147 923.955,-337.462 1123.69,-312.144"/>
<polygon fill="midnightblue" stroke="midnightblue" points="1124.31,-315.594 1133.78,-310.852 1123.42,-308.651 1124.31,-315.594"/>
</g>
<!-- Node3 -->
<g id="node5" class="node"><title>Node3</title>
<polygon fill="white" stroke="#bfbfbf" points="1347.5,-58.5 1347.5,-79.5 1445.5,-79.5 1445.5,-58.5 1347.5,-58.5"/>
<text text-anchor="middle" x="1396.5" y="-66.5" font-family="Helvetica,sans-Serif" font-size="10.00">palmimedefines.h</text>
</g>
<!-- Node2&#45;&gt;Node3 -->
<g id="edge4" class="edge"><title>Node2&#45;&gt;Node3</title>
<path fill="none" stroke="midnightblue" d="M1084.62,-182.571C1137.76,-178.443 1226.83,-167.392 1297.5,-138 1328,-125.317 1358.49,-102.083 1377.41,-86.1062"/>
<polygon fill="midnightblue" stroke="midnightblue" points="1379.72,-88.7302 1385.01,-79.5477 1375.15,-83.4303 1379.72,-88.7302"/>
</g>
<!-- Node4 -->
<g id="node7" class="node"><title>Node4</title>
<polygon fill="white" stroke="#bfbfbf" points="1084.5,-116.5 1084.5,-137.5 1128.5,-137.5 1128.5,-116.5 1084.5,-116.5"/>
<text text-anchor="middle" x="1106.5" y="-124.5" font-family="Helvetica,sans-Serif" font-size="10.00">qlist.h</text>
</g>
<!-- Node2&#45;&gt;Node4 -->
<g id="edge6" class="edge"><title>Node2&#45;&gt;Node4</title>
<path fill="none" stroke="midnightblue" d="M1050.98,-174.362C1060.85,-165.941 1074.84,-154.011 1086.3,-144.231"/>
<polygon fill="midnightblue" stroke="midnightblue" points="1088.77,-146.723 1094.11,-137.571 1084.23,-141.397 1088.77,-146.723"/>
</g>
<!-- Node5 -->
<g id="node9" class="node"><title>Node5</title>
<polygon fill="white" stroke="#bfbfbf" points="944.005,-116.5 944.005,-137.5 993.005,-137.5 993.005,-116.5 944.005,-116.5"/>
<text text-anchor="middle" x="968.505" y="-124.5" font-family="Helvetica,sans-Serif" font-size="10.00">qrect.h</text>
</g>
<!-- Node2&#45;&gt;Node5 -->
<g id="edge8" class="edge"><title>Node2&#45;&gt;Node5</title>
<path fill="none" stroke="midnightblue" d="M1025.67,-174.362C1015.5,-165.941 1001.1,-154.011 989.3,-144.231"/>
<polygon fill="midnightblue" stroke="midnightblue" points="991.196,-141.256 981.262,-137.571 986.73,-146.646 991.196,-141.256"/>
</g>
<!-- Node6 -->
<g id="node11" class="node"><title>Node6</title>
<polygon fill="white" stroke="#bfbfbf" points="1010,-116.5 1010,-137.5 1067,-137.5 1067,-116.5 1010,-116.5"/>
<text text-anchor="middle" x="1038.5" y="-124.5" font-family="Helvetica,sans-Serif" font-size="10.00">qstring.h</text>
</g>
<!-- Node2&#45;&gt;Node6 -->
<g id="edge10" class="edge"><title>Node2&#45;&gt;Node6</title>
<path fill="none" stroke="midnightblue" d="M1038.5,-174.362C1038.5,-166.922 1038.5,-156.743 1038.5,-147.728"/>
<polygon fill="midnightblue" stroke="midnightblue" points="1042,-147.571 1038.5,-137.571 1035,-147.571 1042,-147.571"/>
</g>
<!-- Node7 -->
<g id="node13" class="node"><title>Node7</title>
<a xlink:href="PalmIMEHelpers_8h.htm" target="_top" xlink:title="PalmIMEHelpers.h">
<polygon fill="white" stroke="black" points="1184.5,-116.5 1184.5,-137.5 1288.5,-137.5 1288.5,-116.5 1184.5,-116.5"/>
<text text-anchor="middle" x="1236.5" y="-124.5" font-family="Helvetica,sans-Serif" font-size="10.00">PalmIMEHelpers.h</text>
</a>
</g>
<!-- Node2&#45;&gt;Node7 -->
<g id="edge12" class="edge"><title>Node2&#45;&gt;Node7</title>
<path fill="none" stroke="midnightblue" d="M1074.36,-174.497C1107.06,-164.918 1155.53,-150.72 1190.96,-140.342"/>
<polygon fill="midnightblue" stroke="midnightblue" points="1191.97,-143.693 1200.58,-137.523 1190,-136.975 1191.97,-143.693"/>
</g>
<!-- Node8 -->
<g id="node15" class="node"><title>Node8</title>
<polygon fill="white" stroke="#bfbfbf" points="1213.5,-58.5 1213.5,-79.5 1259.5,-79.5 1259.5,-58.5 1213.5,-58.5"/>
<text text-anchor="middle" x="1236.5" y="-66.5" font-family="Helvetica,sans-Serif" font-size="10.00">vector</text>
</g>
<!-- Node7&#45;&gt;Node8 -->
<g id="edge14" class="edge"><title>Node7&#45;&gt;Node8</title>
<path fill="none" stroke="midnightblue" d="M1236.5,-116.362C1236.5,-108.922 1236.5,-98.7427 1236.5,-89.7276"/>
<polygon fill="midnightblue" stroke="midnightblue" points="1240,-89.5706 1236.5,-79.5707 1233,-89.5707 1240,-89.5706"/>
</g>
<!-- Node9 -->
<g id="node17" class="node"><title>Node9</title>
<polygon fill="white" stroke="#bfbfbf" points="1141.5,-58.5 1141.5,-79.5 1195.5,-79.5 1195.5,-58.5 1141.5,-58.5"/>
<text text-anchor="middle" x="1168.5" y="-66.5" font-family="Helvetica,sans-Serif" font-size="10.00">qcolor.h</text>
</g>
<!-- Node7&#45;&gt;Node9 -->
<g id="edge16" class="edge"><title>Node7&#45;&gt;Node9</title>
<path fill="none" stroke="midnightblue" d="M1224.03,-116.362C1214.16,-107.941 1200.17,-96.0105 1188.71,-86.2308"/>
<polygon fill="midnightblue" stroke="midnightblue" points="1190.78,-83.3972 1180.9,-79.5707 1186.23,-88.7231 1190.78,-83.3972"/>
</g>
<!-- Node10 -->
<g id="node19" class="node"><title>Node10</title>
<polygon fill="white" stroke="#bfbfbf" points="988.505,-58.5 988.505,-79.5 1042.5,-79.5 1042.5,-58.5 988.505,-58.5"/>
<text text-anchor="middle" x="1015.5" y="-66.5" font-family="Helvetica,sans-Serif" font-size="10.00">qpoint.h</text>
</g>
<!-- Node7&#45;&gt;Node10 -->
<g id="edge18" class="edge"><title>Node7&#45;&gt;Node10</title>
<path fill="none" stroke="midnightblue" d="M1196.48,-116.497C1155.52,-105.746 1092.37,-89.1741 1052.53,-78.7179"/>
<polygon fill="midnightblue" stroke="midnightblue" points="1053.25,-75.2874 1042.69,-76.1342 1051.47,-82.0581 1053.25,-75.2874"/>
</g>
<!-- Node7&#45;&gt;Node11 -->
<g id="edge20" class="edge"><title>Node7&#45;&gt;Node11</title>
<path fill="none" stroke="midnightblue" d="M1184.29,-118.139C1179.63,-117.396 1174.98,-116.673 1170.5,-116 1058.83,-99.2218 926.72,-82.3252 860.983,-74.1171"/>
<polygon fill="midnightblue" stroke="midnightblue" points="861.372,-70.6386 851.016,-72.8757 860.507,-77.5849 861.372,-70.6386"/>
</g>
<!-- Node12 -->
<g id="node23" class="node"><title>Node12</title>
<a xlink:href="Common_8h.htm" target="_top" xlink:title="Common.h">
<polygon fill="white" stroke="black" points="110.005,-0.5 110.005,-21.5 177.005,-21.5 177.005,-0.5 110.005,-0.5"/>
<text text-anchor="middle" x="143.505" y="-8.5" font-family="Helvetica,sans-Serif" font-size="10.00">Common.h</text>
</a>
</g>
<!-- Node11&#45;&gt;Node12 -->
<g id="edge22" class="edge"><title>Node11&#45;&gt;Node12</title>
<path fill="none" stroke="midnightblue" d="M787.754,-59.6687C784.979,-59.0359 782.202,-58.4659 779.505,-58 665.277,-38.2667 312.398,-19.3698 187.705,-13.1437"/>
<polygon fill="midnightblue" stroke="midnightblue" points="187.557,-9.63215 177.395,-12.6319 187.209,-16.6235 187.557,-9.63215"/>
</g>
<!-- Node13 -->
<g id="node25" class="node"><title>Node13</title>
<polygon fill="white" stroke="#bfbfbf" points="855.005,-0.5 855.005,-21.5 902.005,-21.5 902.005,-0.5 855.005,-0.5"/>
<text text-anchor="middle" x="878.505" y="-8.5" font-family="Helvetica,sans-Serif" font-size="10.00">stdio.h</text>
</g>
<!-- Node11&#45;&gt;Node13 -->
<g id="edge24" class="edge"><title>Node11&#45;&gt;Node13</title>
<path fill="none" stroke="midnightblue" d="M830.326,-58.3619C838.726,-50.1043 850.559,-38.4725 860.395,-28.8029"/>
<polygon fill="midnightblue" stroke="midnightblue" points="863.074,-31.077 867.752,-21.5707 858.167,-26.0851 863.074,-31.077"/>
</g>
<!-- Node14 -->
<g id="node27" class="node"><title>Node14</title>
<polygon fill="white" stroke="#bfbfbf" points="578.005,-0.5 578.005,-21.5 619.005,-21.5 619.005,-0.5 578.005,-0.5"/>
<text text-anchor="middle" x="598.505" y="-8.5" font-family="Helvetica,sans-Serif" font-size="10.00">glib.h</text>
</g>
<!-- Node11&#45;&gt;Node14 -->
<g id="edge26" class="edge"><title>Node11&#45;&gt;Node14</title>
<path fill="none" stroke="midnightblue" d="M787.639,-60.1928C784.889,-59.4461 782.149,-58.7068 779.505,-58 726.694,-43.8826 665.051,-28.0034 629.041,-18.7874"/>
<polygon fill="midnightblue" stroke="midnightblue" points="629.715,-15.3472 619.16,-16.261 627.981,-22.129 629.715,-15.3472"/>
</g>
<!-- Node15 -->
<g id="node29" class="node"><title>Node15</title>
<polygon fill="white" stroke="#bfbfbf" points="767.005,-0.5 767.005,-21.5 838.005,-21.5 838.005,-0.5 767.005,-0.5"/>
<text text-anchor="middle" x="802.505" y="-8.5" font-family="Helvetica,sans-Serif" font-size="10.00">PmLogLib.h</text>
</g>
<!-- Node11&#45;&gt;Node15 -->
<g id="edge28" class="edge"><title>Node11&#45;&gt;Node15</title>
<path fill="none" stroke="midnightblue" d="M816.387,-58.3619C814.182,-50.8401 811.157,-40.5187 808.493,-31.4308"/>
<polygon fill="midnightblue" stroke="midnightblue" points="811.774,-30.1825 805.603,-21.5707 805.057,-32.1514 811.774,-30.1825"/>
</g>
<!-- Node16&#45;&gt;Node5 -->
<g id="edge38" class="edge"><title>Node16&#45;&gt;Node5</title>
<path fill="none" stroke="midnightblue" d="M895.012,-174.362C908.587,-165.614 928.038,-153.079 943.52,-143.101"/>
<polygon fill="midnightblue" stroke="midnightblue" points="945.592,-145.93 952.102,-137.571 941.8,-140.046 945.592,-145.93"/>
</g>
<!-- Node16&#45;&gt;Node6 -->
<g id="edge42" class="edge"><title>Node16&#45;&gt;Node6</title>
<path fill="none" stroke="midnightblue" d="M907.479,-174.497C933.419,-165.094 971.641,-151.238 1000.12,-140.916"/>
<polygon fill="midnightblue" stroke="midnightblue" points="1001.54,-144.124 1009.75,-137.425 999.151,-137.543 1001.54,-144.124"/>
</g>
<!-- Node16&#45;&gt;Node10 -->
<g id="edge36" class="edge"><title>Node16&#45;&gt;Node10</title>
<path fill="none" stroke="midnightblue" d="M885.627,-174.193C895.554,-159.699 914.691,-133.738 935.505,-116 950.024,-103.627 968.229,-92.6439 983.603,-84.4124"/>
<polygon fill="midnightblue" stroke="midnightblue" points="985.495,-87.3738 992.752,-79.6548 982.265,-81.1634 985.495,-87.3738"/>
</g>
<!-- Node16&#45;&gt;Node13 -->
<g id="edge32" class="edge"><title>Node16&#45;&gt;Node13</title>
<path fill="none" stroke="midnightblue" d="M878.505,-174.377C878.505,-146.293 878.505,-69.6735 878.505,-32.2027"/>
<polygon fill="midnightblue" stroke="midnightblue" points="882.005,-31.9277 878.505,-21.9277 875.005,-31.9278 882.005,-31.9277"/>
</g>
<!-- Node17 -->
<g id="node34" class="node"><title>Node17</title>
<polygon fill="white" stroke="#bfbfbf" points="728.005,-58.5 728.005,-79.5 771.005,-79.5 771.005,-58.5 728.005,-58.5"/>
<text text-anchor="middle" x="749.505" y="-66.5" font-family="Helvetica,sans-Serif" font-size="10.00">string</text>
</g>
<!-- Node16&#45;&gt;Node17 -->
<g id="edge34" class="edge"><title>Node16&#45;&gt;Node17</title>
<path fill="none" stroke="midnightblue" d="M871.258,-174.335C861.19,-160.003 841.895,-134.223 821.505,-116 808.175,-104.087 791.558,-93.0332 777.648,-84.6428"/>
<polygon fill="midnightblue" stroke="midnightblue" points="779.354,-81.5855 768.96,-79.5314 775.804,-87.6188 779.354,-81.5855"/>
</g>
<!-- Node18 -->
<g id="node38" class="node"><title>Node18</title>
<polygon fill="white" stroke="#bfbfbf" points="760.505,-116.5 760.505,-137.5 812.505,-137.5 812.505,-116.5 760.505,-116.5"/>
<text text-anchor="middle" x="786.505" y="-124.5" font-family="Helvetica,sans-Serif" font-size="10.00">qchar.h</text>
</g>
<!-- Node16&#45;&gt;Node18 -->
<g id="edge40" class="edge"><title>Node16&#45;&gt;Node18</title>
<path fill="none" stroke="midnightblue" d="M861.63,-174.362C847.754,-165.614 827.871,-153.079 812.045,-143.101"/>
<polygon fill="midnightblue" stroke="midnightblue" points="813.598,-139.943 803.272,-137.571 809.865,-145.864 813.598,-139.943"/>
</g>
<!-- Node19&#45;&gt;Node12 -->
<g id="edge46" class="edge"><title>Node19&#45;&gt;Node12</title>
<path fill="none" stroke="midnightblue" d="M35.2914,-174.426C18.351,-151.242 -16.7659,-95.054 9.5047,-58 20.2762,-42.8071 65.0072,-29.1766 99.8615,-20.5562"/>
<polygon fill="midnightblue" stroke="midnightblue" points="100.948,-23.8948 109.852,-18.1532 99.3111,-17.0889 100.948,-23.8948"/>
</g>
<!-- Node19&#45;&gt;Node20 -->
<g id="edge48" class="edge"><title>Node19&#45;&gt;Node20</title>
<path fill="none" stroke="midnightblue" d="M54.8765,-174.362C63.7909,-166.023 76.3841,-154.242 86.7804,-144.516"/>
<polygon fill="midnightblue" stroke="midnightblue" points="89.2934,-146.958 94.205,-137.571 84.5112,-141.846 89.2934,-146.958"/>
</g>
<!-- Node22 -->
<g id="node50" class="node"><title>Node22</title>
<polygon fill="white" stroke="#bfbfbf" points="18.5047,-58.5 18.5047,-79.5 68.5047,-79.5 68.5047,-58.5 18.5047,-58.5"/>
<text text-anchor="middle" x="43.5047" y="-66.5" font-family="Helvetica,sans-Serif" font-size="10.00">QHash</text>
</g>
<!-- Node19&#45;&gt;Node22 -->
<g id="edge58" class="edge"><title>Node19&#45;&gt;Node22</title>
<path fill="none" stroke="midnightblue" d="M43.5047,-174.295C43.5047,-155.131 43.5047,-114.654 43.5047,-89.8434"/>
<polygon fill="midnightblue" stroke="midnightblue" points="47.0048,-89.6792 43.5047,-79.6792 40.0048,-89.6792 47.0048,-89.6792"/>
</g>
<!-- Node20&#45;&gt;Node12 -->
<g id="edge50" class="edge"><title>Node20&#45;&gt;Node12</title>
<path fill="none" stroke="midnightblue" d="M105.76,-116.407C106.378,-102.594 108.469,-77.8516 115.505,-58 118.963,-48.2433 124.551,-38.2757 129.829,-30.045"/>
<polygon fill="midnightblue" stroke="midnightblue" points="132.838,-31.8424 135.526,-21.5942 127.034,-27.9294 132.838,-31.8424"/>
</g>
<!-- Node20&#45;&gt;Node17 -->
<g id="edge52" class="edge"><title>Node20&#45;&gt;Node17</title>
<path fill="none" stroke="midnightblue" d="M133.56,-125.308C241.518,-118.737 628.198,-94.6335 717.919,-79.6338"/>
<polygon fill="midnightblue" stroke="midnightblue" points="718.587,-83.0695 727.756,-77.7612 717.278,-76.193 718.587,-83.0695"/>
</g>
<!-- Node21 -->
<g id="node48" class="node"><title>Node21</title>
<polygon fill="white" stroke="#bfbfbf" points="1277,-58.5 1277,-79.5 1330,-79.5 1330,-58.5 1277,-58.5"/>
<text text-anchor="middle" x="1303.5" y="-66.5" font-family="Helvetica,sans-Serif" font-size="10.00">QString</text>
</g>
<!-- Node20&#45;&gt;Node21 -->
<g id="edge54" class="edge"><title>Node20&#45;&gt;Node21</title>
<path fill="none" stroke="midnightblue" d="M133.691,-125.393C173.99,-123.125 250.403,-118.934 315.505,-116 524.014,-106.601 1043.63,-115.804 1266.85,-79.8452"/>
<polygon fill="midnightblue" stroke="midnightblue" points="1267.65,-83.2605 1276.93,-78.1549 1266.49,-76.3569 1267.65,-83.2605"/>
</g>
<!-- Node20&#45;&gt;Node22 -->
<g id="edge56" class="edge"><title>Node20&#45;&gt;Node22</title>
<path fill="none" stroke="midnightblue" d="M94.1329,-116.362C85.2185,-108.023 72.6253,-96.2418 62.2289,-86.5162"/>
<polygon fill="midnightblue" stroke="midnightblue" points="64.4982,-83.8463 54.8044,-79.5707 59.716,-88.9582 64.4982,-83.8463"/>
</g>
<!-- Node23&#45;&gt;Node8 -->
<g id="edge72" class="edge"><title>Node23&#45;&gt;Node8</title>
<path fill="none" stroke="midnightblue" d="M369.062,-126.606C485.278,-124.453 1017.85,-113.028 1203.41,-79.6745"/>
<polygon fill="midnightblue" stroke="midnightblue" points="1204.11,-83.1031 1213.29,-77.8111 1202.81,-76.2243 1204.11,-83.1031"/>
</g>
<!-- Node23&#45;&gt;Node12 -->
<g id="edge66" class="edge"><title>Node23&#45;&gt;Node12</title>
<path fill="none" stroke="midnightblue" d="M323.702,-122.667C295.259,-116.51 245.939,-103.305 209.505,-80 188.609,-66.6345 169.592,-45.32 157.396,-29.915"/>
<polygon fill="midnightblue" stroke="midnightblue" points="159.906,-27.4357 151.041,-21.6325 154.352,-31.6969 159.906,-27.4357"/>
</g>
<!-- Node23&#45;&gt;Node14 -->
<g id="edge86" class="edge"><title>Node23&#45;&gt;Node14</title>
<path fill="none" stroke="midnightblue" d="M369.309,-117.35C390.383,-108.255 422.431,-93.9725 449.505,-80 466.846,-71.05 470.041,-66.7103 487.505,-58 514.258,-44.6562 545.719,-31.5688 568.302,-22.6071"/>
<polygon fill="midnightblue" stroke="midnightblue" points="569.675,-25.8284 577.701,-18.9122 567.114,-19.3137 569.675,-25.8284"/>
</g>
<!-- Node23&#45;&gt;Node17 -->
<g id="edge70" class="edge"><title>Node23&#45;&gt;Node17</title>
<path fill="none" stroke="midnightblue" d="M369.189,-119.355C373.57,-118.082 378.151,-116.889 382.505,-116 526.917,-86.5031 570.921,-112.994 717.906,-79.9464"/>
<polygon fill="midnightblue" stroke="midnightblue" points="718.779,-83.337 727.738,-77.6823 717.208,-76.5155 718.779,-83.337"/>
</g>
<!-- Node24 -->
<g id="node58" class="node"><title>Node24</title>
<polygon fill="white" stroke="#bfbfbf" points="324.505,-58.5 324.505,-79.5 368.505,-79.5 368.505,-58.5 324.505,-58.5"/>
<text text-anchor="middle" x="346.505" y="-66.5" font-family="Helvetica,sans-Serif" font-size="10.00">time.h</text>
</g>
<!-- Node23&#45;&gt;Node24 -->
<g id="edge68" class="edge"><title>Node23&#45;&gt;Node24</title>
<path fill="none" stroke="midnightblue" d="M346.505,-116.362C346.505,-108.922 346.505,-98.7427 346.505,-89.7276"/>
<polygon fill="midnightblue" stroke="midnightblue" points="350.005,-89.5706 346.505,-79.5707 343.005,-89.5707 350.005,-89.5706"/>
</g>
<!-- Node25 -->
<g id="node62" class="node"><title>Node25</title>
<polygon fill="white" stroke="#bfbfbf" points="386.505,-58.5 386.505,-79.5 440.505,-79.5 440.505,-58.5 386.505,-58.5"/>
<text text-anchor="middle" x="413.505" y="-66.5" font-family="Helvetica,sans-Serif" font-size="10.00">sstream</text>
</g>
<!-- Node23&#45;&gt;Node25 -->
<g id="edge74" class="edge"><title>Node23&#45;&gt;Node25</title>
<path fill="none" stroke="midnightblue" d="M358.794,-116.362C368.521,-107.941 382.303,-96.0105 393.6,-86.2308"/>
<polygon fill="midnightblue" stroke="midnightblue" points="396.024,-88.7619 401.294,-79.5707 391.442,-83.4695 396.024,-88.7619"/>
</g>
<!-- Node26 -->
<g id="node64" class="node"><title>Node26</title>
<polygon fill="white" stroke="#bfbfbf" points="496.005,-58.5 496.005,-79.5 553.005,-79.5 553.005,-58.5 496.005,-58.5"/>
<text text-anchor="middle" x="524.505" y="-66.5" font-family="Helvetica,sans-Serif" font-size="10.00">iostream</text>
</g>
<!-- Node23&#45;&gt;Node26 -->
<g id="edge76" class="edge"><title>Node23&#45;&gt;Node26</title>
<path fill="none" stroke="midnightblue" d="M369.049,-119.654C398.549,-110.042 450.684,-93.0541 486.379,-81.423"/>
<polygon fill="midnightblue" stroke="midnightblue" points="487.555,-84.721 495.978,-78.2951 485.386,-78.0655 487.555,-84.721"/>
</g>
<!-- Node27 -->
<g id="node66" class="node"><title>Node27</title>
<polygon fill="white" stroke="#bfbfbf" points="570.505,-58.5 570.505,-79.5 622.505,-79.5 622.505,-58.5 570.505,-58.5"/>
<text text-anchor="middle" x="596.505" y="-66.5" font-family="Helvetica,sans-Serif" font-size="10.00">regex.h</text>
</g>
<!-- Node23&#45;&gt;Node27 -->
<g id="edge78" class="edge"><title>Node23&#45;&gt;Node27</title>
<path fill="none" stroke="midnightblue" d="M369.263,-119.678C373.636,-118.375 378.196,-117.089 382.505,-116 458.107,-96.8961 481.124,-99.9119 560.279,-80.12"/>
<polygon fill="midnightblue" stroke="midnightblue" points="561.39,-83.4489 570.217,-77.5903 559.663,-76.6652 561.39,-83.4489"/>
</g>
<!-- Node28 -->
<g id="node68" class="node"><title>Node28</title>
<polygon fill="white" stroke="#bfbfbf" points="640.005,-58.5 640.005,-79.5 711.005,-79.5 711.005,-58.5 640.005,-58.5"/>
<text text-anchor="middle" x="675.505" y="-66.5" font-family="Helvetica,sans-Serif" font-size="10.00">QByteArray</text>
</g>
<!-- Node23&#45;&gt;Node28 -->
<g id="edge80" class="edge"><title>Node23&#45;&gt;Node28</title>
<path fill="none" stroke="midnightblue" d="M369.217,-119.486C373.595,-118.201 378.168,-116.97 382.505,-116 488.428,-92.3062 519.956,-101.031 629.424,-80.2659"/>
<polygon fill="midnightblue" stroke="midnightblue" points="630.401,-83.6417 639.553,-78.3034 629.07,-76.7695 630.401,-83.6417"/>
</g>
<!-- Node29 -->
<g id="node70" class="node"><title>Node29</title>
<polygon fill="white" stroke="#bfbfbf" points="124.505,-58.5 124.505,-79.5 162.505,-79.5 162.505,-58.5 124.505,-58.5"/>
<text text-anchor="middle" x="143.505" y="-66.5" font-family="Helvetica,sans-Serif" font-size="10.00">QUrl</text>
</g>
<!-- Node23&#45;&gt;Node29 -->
<g id="edge82" class="edge"><title>Node23&#45;&gt;Node29</title>
<path fill="none" stroke="midnightblue" d="M323.848,-121.137C291.16,-112.588 228.937,-95.9749 176.505,-80 175.097,-79.571 173.657,-79.1239 172.206,-78.6662"/>
<polygon fill="midnightblue" stroke="midnightblue" points="173.238,-75.3213 162.646,-75.5676 171.079,-81.9803 173.238,-75.3213"/>
</g>
<!-- Node30 -->
<g id="node72" class="node"><title>Node30</title>
<polygon fill="white" stroke="#bfbfbf" points="218.505,-58.5 218.505,-79.5 306.505,-79.5 306.505,-58.5 218.505,-58.5"/>
<text text-anchor="middle" x="262.505" y="-66.5" font-family="Helvetica,sans-Serif" font-size="10.00">QGraphicsItem</text>
</g>
<!-- Node23&#45;&gt;Node30 -->
<g id="edge84" class="edge"><title>Node23&#45;&gt;Node30</title>
<path fill="none" stroke="midnightblue" d="M331.098,-116.362C318.546,-107.696 300.613,-95.3126 286.23,-85.3819"/>
<polygon fill="midnightblue" stroke="midnightblue" points="288.032,-82.3725 277.814,-79.5707 284.054,-88.1327 288.032,-82.3725"/>
</g>
<!-- Node31&#45;&gt;Node8 -->
<g id="edge92" class="edge"><title>Node31&#45;&gt;Node8</title>
<path fill="none" stroke="midnightblue" d="M1568.65,-290.429C1513.28,-253.516 1328.27,-130.177 1261.12,-85.4115"/>
<polygon fill="midnightblue" stroke="midnightblue" points="1262.72,-82.2684 1252.45,-79.6335 1258.83,-88.0927 1262.72,-82.2684"/>
</g>
<!-- Node31&#45;&gt;Node17 -->
<g id="edge90" class="edge"><title>Node31&#45;&gt;Node17</title>
<path fill="none" stroke="midnightblue" d="M1505.76,-290.816C1414.2,-278.776 1274.15,-259.654 1263.5,-254 1190.15,-215.052 1211.72,-153.282 1137.5,-116 997.538,-45.6887 937.823,-112.932 781.232,-79.9069"/>
<polygon fill="midnightblue" stroke="midnightblue" points="781.788,-76.4452 771.267,-77.6986 780.273,-83.2794 781.788,-76.4452"/>
</g>
<!-- Node32 -->
<g id="node79" class="node"><title>Node32</title>
<a xlink:href="VirtualKeyboard_8h.htm" target="_top" xlink:title="VirtualKeyboard.h">
<polygon fill="white" stroke="black" points="1535,-232.5 1535,-253.5 1634,-253.5 1634,-232.5 1535,-232.5"/>
<text text-anchor="middle" x="1584.5" y="-240.5" font-family="Helvetica,sans-Serif" font-size="10.00">VirtualKeyboard.h</text>
</a>
</g>
<!-- Node31&#45;&gt;Node32 -->
<g id="edge94" class="edge"><title>Node31&#45;&gt;Node32</title>
<path fill="none" stroke="midnightblue" d="M1584.5,-290.362C1584.5,-282.922 1584.5,-272.743 1584.5,-263.728"/>
<polygon fill="midnightblue" stroke="midnightblue" points="1588,-263.571 1584.5,-253.571 1581,-263.571 1588,-263.571"/>
</g>
<!-- Node38 -->
<g id="node95" class="node"><title>Node38</title>
<polygon fill="white" stroke="#bfbfbf" points="1272,-232.5 1272,-253.5 1331,-253.5 1331,-232.5 1272,-232.5"/>
<text text-anchor="middle" x="1301.5" y="-240.5" font-family="Helvetica,sans-Serif" font-size="10.00">qobject.h</text>
</g>
<!-- Node31&#45;&gt;Node38 -->
<g id="edge114" class="edge"><title>Node31&#45;&gt;Node38</title>
<path fill="none" stroke="midnightblue" d="M1525.62,-290.438C1476.92,-281.47 1406.01,-267.877 1344.5,-254 1343.41,-253.754 1342.31,-253.501 1341.2,-253.242"/>
<polygon fill="midnightblue" stroke="midnightblue" points="1341.6,-249.739 1331.06,-250.797 1339.96,-256.544 1341.6,-249.739"/>
</g>
<!-- Node33 -->
<g id="node81" class="node"><title>Node33</title>
<a xlink:href="IMEDataInterface_8h.htm" target="_top" xlink:title="IMEDataInterface.h">
<polygon fill="white" stroke="black" points="1445.5,-174.5 1445.5,-195.5 1553.5,-195.5 1553.5,-174.5 1445.5,-174.5"/>
<text text-anchor="middle" x="1499.5" y="-182.5" font-family="Helvetica,sans-Serif" font-size="10.00">IMEDataInterface.h</text>
</a>
</g>
<!-- Node32&#45;&gt;Node33 -->
<g id="edge96" class="edge"><title>Node32&#45;&gt;Node33</title>
<path fill="none" stroke="midnightblue" d="M1568.91,-232.362C1556.21,-223.696 1538.07,-211.313 1523.51,-201.382"/>
<polygon fill="midnightblue" stroke="midnightblue" points="1525.23,-198.316 1515,-195.571 1521.28,-204.098 1525.23,-198.316"/>
</g>
<!-- Node37 -->
<g id="node91" class="node"><title>Node37</title>
<a xlink:href="InputMethod_8h.htm" target="_top" xlink:title="InputMethod.h">
<polygon fill="white" stroke="black" points="1547.5,-116.5 1547.5,-137.5 1631.5,-137.5 1631.5,-116.5 1547.5,-116.5"/>
<text text-anchor="middle" x="1589.5" y="-124.5" font-family="Helvetica,sans-Serif" font-size="10.00">InputMethod.h</text>
</a>
</g>
<!-- Node32&#45;&gt;Node37 -->
<g id="edge108" class="edge"><title>Node32&#45;&gt;Node37</title>
<path fill="none" stroke="midnightblue" d="M1584.97,-232.295C1585.79,-213.131 1587.54,-172.654 1588.61,-147.843"/>
<polygon fill="midnightblue" stroke="midnightblue" points="1592.11,-147.821 1589.04,-137.679 1585.12,-147.519 1592.11,-147.821"/>
</g>
<!-- Node34 -->
<g id="node83" class="node"><title>Node34</title>
<a xlink:href="IMEData_8h.htm" target="_top" xlink:title="IMEData.h">
<polygon fill="white" stroke="red" points="1463.5,-116.5 1463.5,-137.5 1529.5,-137.5 1529.5,-116.5 1463.5,-116.5"/>
<text text-anchor="middle" x="1496.5" y="-124.5" font-family="Helvetica,sans-Serif" font-size="10.00">IMEData.h</text>
</a>
</g>
<!-- Node33&#45;&gt;Node34 -->
<g id="edge98" class="edge"><title>Node33&#45;&gt;Node34</title>
<path fill="none" stroke="midnightblue" d="M1498.95,-174.362C1498.57,-166.922 1498.04,-156.743 1497.58,-147.728"/>
<polygon fill="midnightblue" stroke="midnightblue" points="1501.06,-147.376 1497.05,-137.571 1494.07,-147.738 1501.06,-147.376"/>
</g>
<!-- Node34&#45;&gt;Node3 -->
<g id="edge106" class="edge"><title>Node34&#45;&gt;Node3</title>
<path fill="none" stroke="midnightblue" d="M1478.16,-116.362C1462.94,-107.532 1441.06,-94.844 1423.78,-84.8224"/>
<polygon fill="midnightblue" stroke="midnightblue" points="1425.14,-81.5603 1414.73,-79.5707 1421.62,-87.6155 1425.14,-81.5603"/>
</g>
<!-- Node34&#45;&gt;Node21 -->
<g id="edge104" class="edge"><title>Node34&#45;&gt;Node21</title>
<path fill="none" stroke="midnightblue" d="M1463.48,-117.335C1433.48,-108.523 1387.77,-95.0064 1339.85,-80.3878"/>
<polygon fill="midnightblue" stroke="midnightblue" points="1340.83,-77.0267 1330.24,-77.4504 1338.78,-83.7209 1340.83,-77.0267"/>
</g>
<!-- Node35 -->
<g id="node85" class="node"><title>Node35</title>
<polygon fill="white" stroke="#bfbfbf" points="1463,-58.5 1463,-79.5 1544,-79.5 1544,-58.5 1463,-58.5"/>
<text text-anchor="middle" x="1503.5" y="-66.5" font-family="Helvetica,sans-Serif" font-size="10.00">QTouchEvent</text>
</g>
<!-- Node34&#45;&gt;Node35 -->
<g id="edge100" class="edge"><title>Node34&#45;&gt;Node35</title>
<path fill="none" stroke="midnightblue" d="M1497.79,-116.362C1498.69,-108.922 1499.92,-98.7427 1501,-89.7276"/>
<polygon fill="midnightblue" stroke="midnightblue" points="1504.51,-89.918 1502.23,-79.5707 1497.56,-89.0792 1504.51,-89.918"/>
</g>
<!-- Node36 -->
<g id="node87" class="node"><title>Node36</title>
<polygon fill="white" stroke="#bfbfbf" points="1561,-58.5 1561,-79.5 1620,-79.5 1620,-58.5 1561,-58.5"/>
<text text-anchor="middle" x="1590.5" y="-66.5" font-family="Helvetica,sans-Serif" font-size="10.00">QPainter</text>
</g>
<!-- Node34&#45;&gt;Node36 -->
<g id="edge102" class="edge"><title>Node34&#45;&gt;Node36</title>
<path fill="none" stroke="midnightblue" d="M1513.75,-116.362C1528.06,-107.532 1548.62,-94.844 1564.86,-84.8224"/>
<polygon fill="midnightblue" stroke="midnightblue" points="1566.7,-87.8004 1573.37,-79.5707 1563.02,-81.8431 1566.7,-87.8004"/>
</g>
<!-- Node37&#45;&gt;Node35 -->
<g id="edge110" class="edge"><title>Node37&#45;&gt;Node35</title>
<path fill="none" stroke="midnightblue" d="M1573.73,-116.362C1560.88,-107.696 1542.52,-95.3126 1527.8,-85.3819"/>
<polygon fill="midnightblue" stroke="midnightblue" points="1529.43,-82.2604 1519.18,-79.5707 1525.51,-88.0639 1529.43,-82.2604"/>
</g>
<!-- Node37&#45;&gt;Node36 -->
<g id="edge112" class="edge"><title>Node37&#45;&gt;Node36</title>
<path fill="none" stroke="midnightblue" d="M1589.69,-116.362C1589.82,-108.922 1589.99,-98.7427 1590.15,-89.7276"/>
<polygon fill="midnightblue" stroke="midnightblue" points="1593.65,-89.6295 1590.32,-79.5707 1586.65,-89.5088 1593.65,-89.6295"/>
</g>
<!-- Node42&#45;&gt;Node2 -->
<g id="edge124" class="edge"><title>Node42&#45;&gt;Node2</title>
<path fill="none" stroke="midnightblue" d="M1263.11,-290.474C1230.51,-282.518 1186.96,-270.197 1150.5,-254 1141.52,-250.008 1093.95,-220.171 1063.77,-201.061"/>
<polygon fill="midnightblue" stroke="midnightblue" points="1065.34,-197.914 1055.02,-195.516 1061.59,-203.826 1065.34,-197.914"/>
</g>
<!-- Node43 -->
<g id="node106" class="node"><title>Node43</title>
<a xlink:href="common__keys_8h.htm" target="_top" xlink:title="common_keys.h">
<polygon fill="white" stroke="black" points="930.505,-232.5 930.505,-253.5 1022.5,-253.5 1022.5,-232.5 930.505,-232.5"/>
<text text-anchor="middle" x="976.505" y="-240.5" font-family="Helvetica,sans-Serif" font-size="10.00">common_keys.h</text>
</a>
</g>
<!-- Node42&#45;&gt;Node43 -->
<g id="edge126" class="edge"><title>Node42&#45;&gt;Node43</title>
<path fill="none" stroke="midnightblue" d="M1258.41,-291.561C1255.4,-291.032 1252.41,-290.508 1249.5,-290 1174.58,-276.904 1088.03,-262.05 1032.82,-252.61"/>
<polygon fill="midnightblue" stroke="midnightblue" points="1033.34,-249.147 1022.89,-250.911 1032.16,-256.046 1033.34,-249.147"/>
</g>
<!-- Node43&#45;&gt;Node2 -->
<g id="edge128" class="edge"><title>Node43&#45;&gt;Node2</title>
<path fill="none" stroke="midnightblue" d="M987.876,-232.362C996.791,-224.023 1009.38,-212.242 1019.78,-202.516"/>
<polygon fill="midnightblue" stroke="midnightblue" points="1022.29,-204.958 1027.21,-195.571 1017.51,-199.846 1022.29,-204.958"/>
</g>
<!-- Node44&#45;&gt;Node2 -->
<g id="edge132" class="edge"><title>Node44&#45;&gt;Node2</title>
<path fill="none" stroke="midnightblue" d="M1381.77,-291.188C1311.89,-278.369 1197.61,-257.173 1188.5,-254 1168.61,-247.067 1165.51,-241.099 1146.5,-232 1122.35,-220.438 1094.65,-208.407 1073.35,-199.412"/>
<polygon fill="midnightblue" stroke="midnightblue" points="1074.63,-196.151 1064.05,-195.505 1071.92,-202.605 1074.63,-196.151"/>
</g>
<!-- Node44&#45;&gt;Node43 -->
<g id="edge134" class="edge"><title>Node44&#45;&gt;Node43</title>
<path fill="none" stroke="midnightblue" d="M1381.77,-291.27C1378.98,-290.826 1376.21,-290.4 1373.5,-290 1252.44,-272.109 1109.8,-256.566 1032.74,-248.624"/>
<polygon fill="midnightblue" stroke="midnightblue" points="1033.07,-245.14 1022.77,-247.601 1032.36,-252.103 1033.07,-245.14"/>
</g>
<!-- Node45&#45;&gt;Node2 -->
<g id="edge138" class="edge"><title>Node45&#45;&gt;Node2</title>
<path fill="none" stroke="midnightblue" d="M398.74,-291.533C401.704,-291.01 404.642,-290.496 407.505,-290 619.46,-253.256 871.924,-212.002 982.246,-194.1"/>
<polygon fill="midnightblue" stroke="midnightblue" points="982.846,-197.548 992.157,-192.492 981.725,-190.639 982.846,-197.548"/>
</g>
<!-- Node45&#45;&gt;Node43 -->
<g id="edge140" class="edge"><title>Node45&#45;&gt;Node43</title>
<path fill="none" stroke="midnightblue" d="M398.697,-291.248C401.672,-290.798 404.624,-290.378 407.505,-290 594.449,-265.481 817.727,-251.45 920.132,-245.858"/>
<polygon fill="midnightblue" stroke="midnightblue" points="920.452,-249.346 930.249,-245.312 920.074,-242.356 920.452,-249.346"/>
</g>
<!-- Node46&#45;&gt;Node2 -->
<g id="edge144" class="edge"><title>Node46&#45;&gt;Node2</title>
<path fill="none" stroke="midnightblue" d="M720.891,-290.48C755.521,-276.312 819.656,-250.718 875.505,-232 913.085,-219.404 956.2,-207.063 988.645,-198.189"/>
<polygon fill="midnightblue" stroke="midnightblue" points="989.622,-201.551 998.353,-195.55 987.785,-194.796 989.622,-201.551"/>
</g>
<!-- Node46&#45;&gt;Node43 -->
<g id="edge146" class="edge"><title>Node46&#45;&gt;Node43</title>
<path fill="none" stroke="midnightblue" d="M746.392,-290.497C795.47,-280.367 869.585,-265.069 920.361,-254.588"/>
<polygon fill="midnightblue" stroke="midnightblue" points="921.105,-258.009 930.191,-252.559 919.69,-251.153 921.105,-258.009"/>
</g>
<!-- Node47&#45;&gt;Node2 -->
<g id="edge150" class="edge"><title>Node47&#45;&gt;Node2</title>
<path fill="none" stroke="midnightblue" d="M831.387,-290.445C848.381,-275.769 881.06,-249.084 912.505,-232 937.838,-218.237 968.049,-206.815 992.537,-198.679"/>
<polygon fill="midnightblue" stroke="midnightblue" points="993.876,-201.924 1002.31,-195.506 991.714,-195.267 993.876,-201.924"/>
</g>
<!-- Node47&#45;&gt;Node43 -->
<g id="edge152" class="edge"><title>Node47&#45;&gt;Node43</title>
<path fill="none" stroke="midnightblue" d="M847.936,-290.497C873.31,-281.123 910.662,-267.324 938.575,-257.012"/>
<polygon fill="midnightblue" stroke="midnightblue" points="939.852,-260.272 948.02,-253.523 937.427,-253.705 939.852,-260.272"/>
</g>
<!-- Node48&#45;&gt;Node2 -->
<g id="edge156" class="edge"><title>Node48&#45;&gt;Node2</title>
<path fill="none" stroke="midnightblue" d="M933.265,-290.325C923.275,-275.98 909.212,-250.186 921.505,-232 935.342,-211.529 959.723,-199.973 982.659,-193.45"/>
<polygon fill="midnightblue" stroke="midnightblue" points="983.554,-196.834 992.366,-190.952 981.809,-190.055 983.554,-196.834"/>
</g>
<!-- Node48&#45;&gt;Node43 -->
<g id="edge158" class="edge"><title>Node48&#45;&gt;Node43</title>
<path fill="none" stroke="midnightblue" d="M947.924,-290.362C952.661,-282.513 959.236,-271.616 964.887,-262.253"/>
<polygon fill="midnightblue" stroke="midnightblue" points="967.956,-263.941 970.126,-253.571 961.962,-260.324 967.956,-263.941"/>
</g>
<!-- Node49&#45;&gt;Node2 -->
<g id="edge162" class="edge"><title>Node49&#45;&gt;Node2</title>
<path fill="none" stroke="midnightblue" d="M1061.2,-290.295C1057.05,-271.045 1048.27,-230.289 1042.92,-205.509"/>
<polygon fill="midnightblue" stroke="midnightblue" points="1046.33,-204.717 1040.81,-195.679 1039.49,-206.192 1046.33,-204.717"/>
</g>
<!-- Node49&#45;&gt;Node43 -->
<g id="edge164" class="edge"><title>Node49&#45;&gt;Node43</title>
<path fill="none" stroke="midnightblue" d="M1047.55,-290.362C1034.55,-281.696 1015.97,-269.313 1001.08,-259.382"/>
<polygon fill="midnightblue" stroke="midnightblue" points="1002.62,-256.206 992.361,-253.571 998.74,-262.03 1002.62,-256.206"/>
</g>
<!-- Node50&#45;&gt;Node2 -->
<g id="edge168" class="edge"><title>Node50&#45;&gt;Node2</title>
<path fill="none" stroke="midnightblue" d="M1168.35,-290.361C1152.79,-281.4 1130.54,-267.856 1112.5,-254 1092.06,-238.288 1070.72,-217.904 1056.25,-203.374"/>
<polygon fill="midnightblue" stroke="midnightblue" points="1058.47,-200.642 1048.96,-195.971 1053.48,-205.553 1058.47,-200.642"/>
</g>
<!-- Node50&#45;&gt;Node43 -->
<g id="edge170" class="edge"><title>Node50&#45;&gt;Node43</title>
<path fill="none" stroke="midnightblue" d="M1149.29,-290.497C1114.3,-280.877 1062.35,-266.598 1024.56,-256.209"/>
<polygon fill="midnightblue" stroke="midnightblue" points="1025.36,-252.799 1014.79,-253.523 1023.5,-259.548 1025.36,-252.799"/>
</g>
</g>
</svg>
