<?xml version="1.0" encoding="UTF-8" standalone="no"?>
<!DOCTYPE svg PUBLIC "-//W3C//DTD SVG 1.1//EN"
 "http://www.w3.org/Graphics/SVG/1.1/DTD/svg11.dtd">
<!-- Generated by graphviz version 2.26.3 (20100126.1600)
 -->
<!-- Title: G Pages: 1 -->
<svg width="555pt" height="204pt"
 viewBox="0.00 0.00 555.09 204.00" xmlns="http://www.w3.org/2000/svg" xmlns:xlink="http://www.w3.org/1999/xlink">
<g id="graph1" class="graph" transform="scale(1 1) rotate(0) translate(4 200)">
<title>G</title>
<polygon fill="white" stroke="white" points="-4,5 -4,-200 552.09,-200 552.09,5 -4,5"/>
<!-- Node1 -->
<g id="node1" class="node"><title>Node1</title>
<polygon fill="#bfbfbf" stroke="black" points="284,-174.5 284,-195.5 376,-195.5 376,-174.5 284,-174.5"/>
<text text-anchor="middle" x="330" y="-182.5" font-family="Helvetica,sans-Serif" font-size="10.00">TabletKeymap.h</text>
</g>
<!-- Node2 -->
<g id="node3" class="node"><title>Node2</title>
<a xlink:href="TabletKeyboard_8h.htm" target="_top" xlink:title="TabletKeyboard.h">
<polygon fill="white" stroke="black" points="11.5,-116.5 11.5,-137.5 110.5,-137.5 110.5,-116.5 11.5,-116.5"/>
<text text-anchor="middle" x="61" y="-124.5" font-family="Helvetica,sans-Serif" font-size="10.00">TabletKeyboard.h</text>
</a>
</g>
<!-- Node1&#45;&gt;Node2 -->
<g id="edge2" class="edge"><title>Node1&#45;&gt;Node2</title>
<path fill="none" stroke="midnightblue" d="M273.744,-172.87C225.266,-162.418 155.997,-147.483 109.817,-137.526"/>
<polygon fill="midnightblue" stroke="midnightblue" points="273.244,-176.343 283.757,-175.029 274.72,-169.5 273.244,-176.343"/>
</g>
<!-- Node4 -->
<g id="node7" class="node"><title>Node4</title>
<a xlink:href="TabletKeymap_8cpp.htm" target="_top" xlink:title="TabletKeymap.cpp">
<polygon fill="white" stroke="black" points="304,-0.5 304,-21.5 408,-21.5 408,-0.5 304,-0.5"/>
<text text-anchor="middle" x="356" y="-8.5" font-family="Helvetica,sans-Serif" font-size="10.00">TabletKeymap.cpp</text>
</a>
</g>
<!-- Node1&#45;&gt;Node4 -->
<g id="edge6" class="edge"><title>Node1&#45;&gt;Node4</title>
<path fill="none" stroke="midnightblue" d="M386.278,-176.455C439.023,-164.952 513.972,-138.668 543,-80 547.336,-71.2363 549.013,-65.7107 543,-58 526.533,-36.8815 457.603,-23.8018 408.221,-16.9617"/>
<polygon fill="midnightblue" stroke="midnightblue" points="385.46,-173.05 376.374,-178.5 386.875,-179.905 385.46,-173.05"/>
</g>
<!-- Node5 -->
<g id="node9" class="node"><title>Node5</title>
<a xlink:href="uk_8h.htm" target="_top" xlink:title="uk.h">
<polygon fill="white" stroke="black" points="445.5,-58.5 445.5,-79.5 480.5,-79.5 480.5,-58.5 445.5,-58.5"/>
<text text-anchor="middle" x="463" y="-66.5" font-family="Helvetica,sans-Serif" font-size="10.00">uk.h</text>
</a>
</g>
<!-- Node1&#45;&gt;Node5 -->
<g id="edge8" class="edge"><title>Node1&#45;&gt;Node5</title>
<path fill="none" stroke="midnightblue" d="M367.523,-170.08C384.224,-162.217 403.375,-151.4 418,-138 436.77,-120.802 451.193,-94.1615 458.24,-79.5238"/>
<polygon fill="midnightblue" stroke="midnightblue" points="365.701,-167.062 358.026,-174.366 368.58,-173.443 365.701,-167.062"/>
</g>
<!-- Node6 -->
<g id="node12" class="node"><title>Node6</title>
<a xlink:href="common__keys_8h.htm" target="_top" xlink:title="common_keys.h">
<polygon fill="white" stroke="black" points="284,-116.5 284,-137.5 376,-137.5 376,-116.5 284,-116.5"/>
<text text-anchor="middle" x="330" y="-124.5" font-family="Helvetica,sans-Serif" font-size="10.00">common_keys.h</text>
</a>
</g>
<!-- Node1&#45;&gt;Node6 -->
<g id="edge12" class="edge"><title>Node1&#45;&gt;Node6</title>
<path fill="none" stroke="midnightblue" d="M330,-164.191C330,-155.168 330,-144.994 330,-137.571"/>
<polygon fill="midnightblue" stroke="midnightblue" points="326.5,-164.362 330,-174.362 333.5,-164.362 326.5,-164.362"/>
</g>
<!-- Node7 -->
<g id="node15" class="node"><title>Node7</title>
<a xlink:href="se_8h.htm" target="_top" xlink:title="se.h">
<polygon fill="white" stroke="black" points="498,-58.5 498,-79.5 534,-79.5 534,-58.5 498,-58.5"/>
<text text-anchor="middle" x="516" y="-66.5" font-family="Helvetica,sans-Serif" font-size="10.00">se.h</text>
</a>
</g>
<!-- Node1&#45;&gt;Node7 -->
<g id="edge44" class="edge"><title>Node1&#45;&gt;Node7</title>
<path fill="none" stroke="midnightblue" d="M371.649,-170.977C392.947,-162.888 418.78,-151.616 440,-138 466.698,-120.869 493.012,-94.2022 506.569,-79.5424"/>
<polygon fill="midnightblue" stroke="midnightblue" points="370.38,-167.714 362.215,-174.466 372.809,-174.28 370.38,-167.714"/>
</g>
<!-- Node8 -->
<g id="node18" class="node"><title>Node8</title>
<a xlink:href="ru_8h.htm" target="_top" xlink:title="ru.h">
<polygon fill="white" stroke="black" points="128,-58.5 128,-79.5 162,-79.5 162,-58.5 128,-58.5"/>
<text text-anchor="middle" x="145" y="-66.5" font-family="Helvetica,sans-Serif" font-size="10.00">ru.h</text>
</a>
</g>
<!-- Node1&#45;&gt;Node8 -->
<g id="edge46" class="edge"><title>Node1&#45;&gt;Node8</title>
<path fill="none" stroke="midnightblue" d="M293.205,-170.535C273.531,-162.152 249.257,-150.746 229,-138 200.726,-120.211 171.394,-94.0356 155.983,-79.5749"/>
<polygon fill="midnightblue" stroke="midnightblue" points="291.879,-173.774 302.455,-174.4 294.577,-167.315 291.879,-173.774"/>
</g>
<!-- Node9 -->
<g id="node21" class="node"><title>Node9</title>
<a xlink:href="no_8h.htm" target="_top" xlink:title="no.h">
<polygon fill="white" stroke="black" points="179.5,-58.5 179.5,-79.5 216.5,-79.5 216.5,-58.5 179.5,-58.5"/>
<text text-anchor="middle" x="198" y="-66.5" font-family="Helvetica,sans-Serif" font-size="10.00">no.h</text>
</a>
</g>
<!-- Node1&#45;&gt;Node9 -->
<g id="edge48" class="edge"><title>Node1&#45;&gt;Node9</title>
<path fill="none" stroke="midnightblue" d="M299.585,-169.318C285.003,-161.044 267.76,-150.103 254,-138 233.612,-120.066 214.789,-94.1781 205.015,-79.7494"/>
<polygon fill="midnightblue" stroke="midnightblue" points="298.273,-172.591 308.72,-174.356 301.653,-166.462 298.273,-172.591"/>
</g>
<!-- Node10 -->
<g id="node24" class="node"><title>Node10</title>
<a xlink:href="de_8h.htm" target="_top" xlink:title="de.h">
<polygon fill="white" stroke="black" points="233.5,-58.5 233.5,-79.5 270.5,-79.5 270.5,-58.5 233.5,-58.5"/>
<text text-anchor="middle" x="252" y="-66.5" font-family="Helvetica,sans-Serif" font-size="10.00">de.h</text>
</a>
</g>
<!-- Node1&#45;&gt;Node10 -->
<g id="edge50" class="edge"><title>Node1&#45;&gt;Node10</title>
<path fill="none" stroke="midnightblue" d="M300.633,-168.905C288.839,-161.045 276.137,-150.555 268,-138 256.23,-119.838 253.081,-94.0352 252.263,-79.6824"/>
<polygon fill="midnightblue" stroke="midnightblue" points="299.053,-172.046 309.385,-174.395 302.773,-166.116 299.053,-172.046"/>
</g>
<!-- Node11 -->
<g id="node27" class="node"><title>Node11</title>
<a xlink:href="fr_8h.htm" target="_top" xlink:title="fr.h">
<polygon fill="white" stroke="black" points="288,-58.5 288,-79.5 320,-79.5 320,-58.5 288,-58.5"/>
<text text-anchor="middle" x="304" y="-66.5" font-family="Helvetica,sans-Serif" font-size="10.00">fr.h</text>
</a>
</g>
<!-- Node1&#45;&gt;Node11 -->
<g id="edge52" class="edge"><title>Node1&#45;&gt;Node11</title>
<path fill="none" stroke="midnightblue" d="M302.287,-168.751C291.687,-160.929 280.766,-150.511 275,-138 265.646,-117.702 281.952,-93.5316 293.661,-79.8553"/>
<polygon fill="midnightblue" stroke="midnightblue" points="300.387,-171.692 310.615,-174.458 304.344,-165.918 300.387,-171.692"/>
</g>
<!-- Node12 -->
<g id="node30" class="node"><title>Node12</title>
<a xlink:href="en_8h.htm" target="_top" xlink:title="en.h">
<polygon fill="white" stroke="black" points="337.5,-58.5 337.5,-79.5 374.5,-79.5 374.5,-58.5 337.5,-58.5"/>
<text text-anchor="middle" x="356" y="-66.5" font-family="Helvetica,sans-Serif" font-size="10.00">en.h</text>
</a>
</g>
<!-- Node1&#45;&gt;Node12 -->
<g id="edge54" class="edge"><title>Node1&#45;&gt;Node12</title>
<path fill="none" stroke="midnightblue" d="M357.713,-168.751C368.313,-160.929 379.234,-150.511 385,-138 394.354,-117.702 378.048,-93.5316 366.339,-79.8553"/>
<polygon fill="midnightblue" stroke="midnightblue" points="355.656,-165.918 349.385,-174.458 359.613,-171.692 355.656,-165.918"/>
</g>
<!-- Node13 -->
<g id="node33" class="node"><title>Node13</title>
<a xlink:href="dk_8h.htm" target="_top" xlink:title="dk.h">
<polygon fill="white" stroke="black" points="392,-58.5 392,-79.5 428,-79.5 428,-58.5 392,-58.5"/>
<text text-anchor="middle" x="410" y="-66.5" font-family="Helvetica,sans-Serif" font-size="10.00">dk.h</text>
</a>
</g>
<!-- Node1&#45;&gt;Node13 -->
<g id="edge56" class="edge"><title>Node1&#45;&gt;Node13</title>
<path fill="none" stroke="midnightblue" d="M364.375,-169.637C377.582,-162.005 391.511,-151.488 400,-138 411.347,-119.97 411.819,-94.1179 411.005,-79.7211"/>
<polygon fill="midnightblue" stroke="midnightblue" points="362.565,-166.637 355.423,-174.462 365.886,-172.799 362.565,-166.637"/>
</g>
<!-- Node3 -->
<g id="node5" class="node"><title>Node3</title>
<a xlink:href="TabletKeyboard_8cpp.htm" target="_top" xlink:title="TabletKeyboard.cpp">
<polygon fill="white" stroke="black" points="0,-58.5 0,-79.5 110,-79.5 110,-58.5 0,-58.5"/>
<text text-anchor="middle" x="55" y="-66.5" font-family="Helvetica,sans-Serif" font-size="10.00">TabletKeyboard.cpp</text>
</a>
</g>
<!-- Node2&#45;&gt;Node3 -->
<g id="edge4" class="edge"><title>Node2&#45;&gt;Node3</title>
<path fill="none" stroke="midnightblue" d="M58.8473,-106.191C57.914,-97.1684 56.8615,-86.9941 56.0935,-79.5707"/>
<polygon fill="midnightblue" stroke="midnightblue" points="55.389,-106.775 59.8995,-116.362 62.3518,-106.055 55.389,-106.775"/>
</g>
<!-- Node5&#45;&gt;Node4 -->
<g id="edge10" class="edge"><title>Node5&#45;&gt;Node4</title>
<path fill="none" stroke="midnightblue" d="M436.343,-54.5503C417.46,-44.3146 392.555,-30.8149 375.509,-21.5749"/>
<polygon fill="midnightblue" stroke="midnightblue" points="434.872,-57.734 445.331,-59.4225 438.208,-51.5799 434.872,-57.734"/>
</g>
<!-- Node6&#45;&gt;Node5 -->
<g id="edge14" class="edge"><title>Node6&#45;&gt;Node5</title>
<path fill="none" stroke="midnightblue" d="M363.579,-112.357C389.626,-100.997 424.687,-85.708 445.459,-76.6496"/>
<polygon fill="midnightblue" stroke="midnightblue" points="361.853,-109.291 354.085,-116.497 364.651,-115.707 361.853,-109.291"/>
</g>
<!-- Node6&#45;&gt;Node7 -->
<g id="edge16" class="edge"><title>Node6&#45;&gt;Node7</title>
<path fill="none" stroke="midnightblue" d="M379.435,-113.755C411.025,-104.956 452.723,-92.7161 489,-80 491.866,-78.9954 494.872,-77.8575 497.794,-76.7039"/>
<polygon fill="midnightblue" stroke="midnightblue" points="378.258,-110.449 369.553,-116.487 380.124,-117.196 378.258,-110.449"/>
</g>
<!-- Node6&#45;&gt;Node8 -->
<g id="edge20" class="edge"><title>Node6&#45;&gt;Node8</title>
<path fill="none" stroke="midnightblue" d="M279.864,-113.744C248.33,-105.022 206.947,-92.8707 171,-80 168.139,-78.9757 165.139,-77.8023 162.235,-76.6121"/>
<polygon fill="midnightblue" stroke="midnightblue" points="279.168,-117.182 289.737,-116.452 281.019,-110.431 279.168,-117.182"/>
</g>
<!-- Node6&#45;&gt;Node9 -->
<g id="edge24" class="edge"><title>Node6&#45;&gt;Node9</title>
<path fill="none" stroke="midnightblue" d="M296.843,-112.431C271.47,-101.282 237.406,-86.3146 216.614,-77.1788"/>
<polygon fill="midnightblue" stroke="midnightblue" points="295.533,-115.678 306.096,-116.497 298.349,-109.27 295.533,-115.678"/>
</g>
<!-- Node6&#45;&gt;Node10 -->
<g id="edge28" class="edge"><title>Node6&#45;&gt;Node10</title>
<path fill="none" stroke="midnightblue" d="M307.486,-110.259C294.179,-100.364 277.735,-88.1361 266.216,-79.5707"/>
<polygon fill="midnightblue" stroke="midnightblue" points="305.58,-113.203 315.694,-116.362 309.757,-107.586 305.58,-113.203"/>
</g>
<!-- Node6&#45;&gt;Node11 -->
<g id="edge32" class="edge"><title>Node6&#45;&gt;Node11</title>
<path fill="none" stroke="midnightblue" d="M321.07,-107.079C316.929,-97.8422 312.176,-87.2388 308.739,-79.5707"/>
<polygon fill="midnightblue" stroke="midnightblue" points="317.947,-108.669 325.231,-116.362 324.334,-105.805 317.947,-108.669"/>
</g>
<!-- Node6&#45;&gt;Node12 -->
<g id="edge36" class="edge"><title>Node6&#45;&gt;Node12</title>
<path fill="none" stroke="midnightblue" d="M338.93,-107.079C343.071,-97.8422 347.824,-87.2388 351.261,-79.5707"/>
<polygon fill="midnightblue" stroke="midnightblue" points="335.666,-105.805 334.769,-116.362 342.053,-108.669 335.666,-105.805"/>
</g>
<!-- Node6&#45;&gt;Node13 -->
<g id="edge40" class="edge"><title>Node6&#45;&gt;Node13</title>
<path fill="none" stroke="midnightblue" d="M353.092,-110.259C366.739,-100.364 383.605,-88.1361 395.42,-79.5707"/>
<polygon fill="midnightblue" stroke="midnightblue" points="350.715,-107.659 344.673,-116.362 354.824,-113.326 350.715,-107.659"/>
</g>
<!-- Node7&#45;&gt;Node4 -->
<g id="edge18" class="edge"><title>Node7&#45;&gt;Node4</title>
<path fill="none" stroke="midnightblue" d="M488.386,-57.8671C448.576,-42.8119 412.152,-30.1065 387.056,-21.5106"/>
<polygon fill="midnightblue" stroke="midnightblue" points="487.155,-61.1437 497.746,-61.4273 489.644,-54.6009 487.155,-61.1437"/>
</g>
<!-- Node8&#45;&gt;Node4 -->
<g id="edge22" class="edge"><title>Node8&#45;&gt;Node4</title>
<path fill="none" stroke="midnightblue" d="M171.941,-58.0102C222.213,-41.3453 270.65,-29.4848 305.939,-21.5562"/>
<polygon fill="midnightblue" stroke="midnightblue" points="170.56,-54.7821 162.202,-61.2924 172.796,-61.4155 170.56,-54.7821"/>
</g>
<!-- Node9&#45;&gt;Node4 -->
<g id="edge26" class="edge"><title>Node9&#45;&gt;Node4</title>
<path fill="none" stroke="midnightblue" d="M225.989,-57.7077C264.993,-42.85 300.766,-30.1631 325.425,-21.5577"/>
<polygon fill="midnightblue" stroke="midnightblue" points="224.637,-54.4774 216.55,-61.322 227.14,-61.0146 224.637,-54.4774"/>
</g>
<!-- Node10&#45;&gt;Node4 -->
<g id="edge30" class="edge"><title>Node10&#45;&gt;Node4</title>
<path fill="none" stroke="midnightblue" d="M279.515,-53.6554C297.59,-43.5747 320.781,-30.6414 336.864,-21.6719"/>
<polygon fill="midnightblue" stroke="midnightblue" points="277.622,-50.7033 270.593,-58.6308 281.032,-56.8168 277.622,-50.7033"/>
</g>
<!-- Node11&#45;&gt;Node4 -->
<g id="edge34" class="edge"><title>Node11&#45;&gt;Node4</title>
<path fill="none" stroke="midnightblue" d="M320.29,-50.8299C328.917,-41.2078 339.209,-29.7282 346.523,-21.5707"/>
<polygon fill="midnightblue" stroke="midnightblue" points="317.607,-48.5798 313.538,-58.3619 322.819,-53.2526 317.607,-48.5798"/>
</g>
<!-- Node12&#45;&gt;Node4 -->
<g id="edge38" class="edge"><title>Node12&#45;&gt;Node4</title>
<path fill="none" stroke="midnightblue" d="M356,-48.1906C356,-39.1684 356,-28.9941 356,-21.5707"/>
<polygon fill="midnightblue" stroke="midnightblue" points="352.5,-48.3619 356,-58.3619 359.5,-48.3619 352.5,-48.3619"/>
</g>
<!-- Node13&#45;&gt;Node4 -->
<g id="edge42" class="edge"><title>Node13&#45;&gt;Node4</title>
<path fill="none" stroke="midnightblue" d="M393.083,-50.8299C384.125,-41.2078 373.437,-29.7282 365.842,-21.5707"/>
<polygon fill="midnightblue" stroke="midnightblue" points="390.72,-53.4279 400.096,-58.3619 395.843,-48.658 390.72,-53.4279"/>
</g>
</g>
</svg>
