<?xml version="1.0" encoding="UTF-8" standalone="no"?>
<!DOCTYPE svg PUBLIC "-//W3C//DTD SVG 1.1//EN"
 "http://www.w3.org/Graphics/SVG/1.1/DTD/svg11.dtd">
<!-- Generated by graphviz version 2.26.3 (20100126.1600)
 -->
<!-- Title: G Pages: 1 -->
<svg width="5808pt" height="204pt"
 viewBox="0.00 0.00 5808.00 204.00" xmlns="http://www.w3.org/2000/svg" xmlns:xlink="http://www.w3.org/1999/xlink">
<g id="graph1" class="graph" transform="scale(1 1) rotate(0) translate(4 200)">
<title>G</title>
<polygon fill="white" stroke="white" points="-4,5 -4,-200 5805,-200 5805,5 -4,5"/>
<!-- Node1 -->
<g id="node1" class="node"><title>Node1</title>
<polygon fill="#bfbfbf" stroke="black" points="4139,-174.5 4139,-195.5 4211,-195.5 4211,-174.5 4139,-174.5"/>
<text text-anchor="middle" x="4175" y="-182.5" font-family="Helvetica,sans-Serif" font-size="10.00">TaskBase.h</text>
</g>
<!-- Node2 -->
<g id="node3" class="node"><title>Node2</title>
<a xlink:href="HostBase_8h.htm" target="_top" xlink:title="HostBase.h">
<polygon fill="white" stroke="red" points="2467.5,-116.5 2467.5,-137.5 2538.5,-137.5 2538.5,-116.5 2467.5,-116.5"/>
<text text-anchor="middle" x="2503" y="-124.5" font-family="Helvetica,sans-Serif" font-size="10.00">HostBase.h</text>
</a>
</g>
<!-- Node1&#45;&gt;Node2 -->
<g id="edge2" class="edge"><title>Node1&#45;&gt;Node2</title>
<path fill="none" stroke="midnightblue" d="M4128.64,-183.392C3884.87,-174.936 2754.55,-135.726 2538.68,-128.238"/>
<polygon fill="midnightblue" stroke="midnightblue" points="4128.8,-186.899 4138.91,-183.748 4129.04,-179.904 4128.8,-186.899"/>
</g>
<!-- Node49 -->
<g id="node104" class="node"><title>Node49</title>
<a xlink:href="SyncTask_8h.htm" target="_top" xlink:title="SyncTask.h">
<polygon fill="white" stroke="red" points="4139.5,-116.5 4139.5,-137.5 4210.5,-137.5 4210.5,-116.5 4139.5,-116.5"/>
<text text-anchor="middle" x="4175" y="-124.5" font-family="Helvetica,sans-Serif" font-size="10.00">SyncTask.h</text>
</a>
</g>
<!-- Node1&#45;&gt;Node49 -->
<g id="edge110" class="edge"><title>Node1&#45;&gt;Node49</title>
<path fill="none" stroke="midnightblue" d="M4175,-164.191C4175,-155.168 4175,-144.994 4175,-137.571"/>
<polygon fill="midnightblue" stroke="midnightblue" points="4171.5,-164.362 4175,-174.362 4178.5,-164.362 4171.5,-164.362"/>
</g>
<!-- Node50 -->
<g id="node107" class="node"><title>Node50</title>
<a xlink:href="TaskBase_8cpp.htm" target="_top" xlink:title="TaskBase.cpp">
<polygon fill="white" stroke="black" points="4227.5,-116.5 4227.5,-137.5 4310.5,-137.5 4310.5,-116.5 4227.5,-116.5"/>
<text text-anchor="middle" x="4269" y="-124.5" font-family="Helvetica,sans-Serif" font-size="10.00">TaskBase.cpp</text>
</a>
</g>
<!-- Node1&#45;&gt;Node50 -->
<g id="edge114" class="edge"><title>Node1&#45;&gt;Node50</title>
<path fill="none" stroke="midnightblue" d="M4200.77,-169.101C4217.03,-159.066 4237.59,-146.381 4251.87,-137.571"/>
<polygon fill="midnightblue" stroke="midnightblue" points="4198.91,-166.132 4192.24,-174.362 4202.59,-172.089 4198.91,-166.132"/>
</g>
<!-- Node3 -->
<g id="node5" class="node"><title>Node3</title>
<a xlink:href="AmbientLightSensor_8cpp.htm" target="_top" xlink:title="AmbientLightSensor.cpp">
<polygon fill="white" stroke="black" points="5233.5,-58.5 5233.5,-79.5 5364.5,-79.5 5364.5,-58.5 5233.5,-58.5"/>
<text text-anchor="middle" x="5299" y="-66.5" font-family="Helvetica,sans-Serif" font-size="10.00">AmbientLightSensor.cpp</text>
</a>
</g>
<!-- Node2&#45;&gt;Node3 -->
<g id="edge4" class="edge"><title>Node2&#45;&gt;Node3</title>
<path fill="none" stroke="midnightblue" d="M2549.05,-126.568C2884.59,-123.368 4948.18,-102.866 5225,-80 5227.72,-79.7755 5230.49,-79.5137 5233.28,-79.2224"/>
<polygon fill="midnightblue" stroke="midnightblue" points="2548.7,-123.071 2538.73,-126.666 2548.77,-130.07 2548.7,-123.071"/>
</g>
<!-- Node4 -->
<g id="node7" class="node"><title>Node4</title>
<a xlink:href="AppDirectRenderingArbitrator_8cpp.htm" target="_top" xlink:title="AppDirectRenderingArbitrator.cpp">
<polygon fill="white" stroke="black" points="5382,-58.5 5382,-79.5 5558,-79.5 5558,-58.5 5382,-58.5"/>
<text text-anchor="middle" x="5470" y="-66.5" font-family="Helvetica,sans-Serif" font-size="10.00">AppDirectRenderingArbitrator.cpp</text>
</a>
</g>
<!-- Node2&#45;&gt;Node4 -->
<g id="edge6" class="edge"><title>Node2&#45;&gt;Node4</title>
<path fill="none" stroke="midnightblue" d="M2549.16,-126.856C2871.57,-125.758 4790.64,-117.701 5373,-80 5375.88,-79.8139 5378.8,-79.6039 5381.74,-79.3742"/>
<polygon fill="midnightblue" stroke="midnightblue" points="2548.79,-123.357 2538.8,-126.891 2548.81,-130.357 2548.79,-123.357"/>
</g>
<!-- Node5 -->
<g id="node9" class="node"><title>Node5</title>
<a xlink:href="ApplicationInstaller_8cpp.htm" target="_top" xlink:title="ApplicationInstaller.cpp">
<polygon fill="white" stroke="black" points="5575.5,-58.5 5575.5,-79.5 5700.5,-79.5 5700.5,-58.5 5575.5,-58.5"/>
<text text-anchor="middle" x="5638" y="-66.5" font-family="Helvetica,sans-Serif" font-size="10.00">ApplicationInstaller.cpp</text>
</a>
</g>
<!-- Node2&#45;&gt;Node5 -->
<g id="edge8" class="edge"><title>Node2&#45;&gt;Node5</title>
<path fill="none" stroke="midnightblue" d="M2548.8,-126.681C2907.03,-124.137 5253.76,-106.539 5567,-80 5569.73,-79.7683 5572.52,-79.4952 5575.34,-79.1896"/>
<polygon fill="midnightblue" stroke="midnightblue" points="2548.53,-123.183 2538.55,-126.754 2548.58,-130.183 2548.53,-123.183"/>
</g>
<!-- Node6 -->
<g id="node11" class="node"><title>Node6</title>
<a xlink:href="ApplicationManager_8cpp.htm" target="_top" xlink:title="ApplicationManager.cpp">
<polygon fill="white" stroke="black" points="-0.5,-58.5 -0.5,-79.5 130.5,-79.5 130.5,-58.5 -0.5,-58.5"/>
<text text-anchor="middle" x="65" y="-66.5" font-family="Helvetica,sans-Serif" font-size="10.00">ApplicationManager.cpp</text>
</a>
</g>
<!-- Node2&#45;&gt;Node6 -->
<g id="edge10" class="edge"><title>Node2&#45;&gt;Node6</title>
<path fill="none" stroke="midnightblue" d="M2457.1,-126.888C2169.6,-126.067 613.526,-119.822 139,-80 136.282,-79.7719 133.512,-79.5072 130.717,-79.2135"/>
<polygon fill="midnightblue" stroke="midnightblue" points="2457.17,-130.388 2467.18,-126.916 2457.19,-123.388 2457.17,-130.388"/>
</g>
<!-- Node7 -->
<g id="node13" class="node"><title>Node7</title>
<a xlink:href="ApplicationManagerService_8cpp.htm" target="_top" xlink:title="ApplicationManagerService.cpp">
<polygon fill="white" stroke="black" points="148,-58.5 148,-79.5 314,-79.5 314,-58.5 148,-58.5"/>
<text text-anchor="middle" x="231" y="-66.5" font-family="Helvetica,sans-Serif" font-size="10.00">ApplicationManagerService.cpp</text>
</a>
</g>
<!-- Node2&#45;&gt;Node7 -->
<g id="edge12" class="edge"><title>Node2&#45;&gt;Node7</title>
<path fill="none" stroke="midnightblue" d="M2456.87,-126.619C2182.15,-124.255 758.997,-110.692 323,-80 320.112,-79.7967 317.175,-79.5676 314.21,-79.3173"/>
<polygon fill="midnightblue" stroke="midnightblue" points="2457.23,-130.122 2467.26,-126.707 2457.29,-123.122 2457.23,-130.122"/>
</g>
<!-- Node8 -->
<g id="node15" class="node"><title>Node8</title>
<a xlink:href="BackupManager_8cpp.htm" target="_top" xlink:title="BackupManager.cpp">
<polygon fill="white" stroke="black" points="331.5,-58.5 331.5,-79.5 444.5,-79.5 444.5,-58.5 331.5,-58.5"/>
<text text-anchor="middle" x="388" y="-66.5" font-family="Helvetica,sans-Serif" font-size="10.00">BackupManager.cpp</text>
</a>
</g>
<!-- Node2&#45;&gt;Node8 -->
<g id="edge14" class="edge"><title>Node2&#45;&gt;Node8</title>
<path fill="none" stroke="midnightblue" d="M2457.11,-126.852C2192.65,-125.861 860.865,-118.981 453,-80 450.266,-79.7387 447.473,-79.4297 444.656,-79.0842"/>
<polygon fill="midnightblue" stroke="midnightblue" points="2457.47,-130.353 2467.48,-126.89 2457.5,-123.353 2457.47,-130.353"/>
</g>
<!-- Node9 -->
<g id="node17" class="node"><title>Node9</title>
<a xlink:href="BootupAnimation_8cpp.htm" target="_top" xlink:title="BootupAnimation.cpp">
<polygon fill="white" stroke="black" points="462,-58.5 462,-79.5 578,-79.5 578,-58.5 462,-58.5"/>
<text text-anchor="middle" x="520" y="-66.5" font-family="Helvetica,sans-Serif" font-size="10.00">BootupAnimation.cpp</text>
</a>
</g>
<!-- Node2&#45;&gt;Node9 -->
<g id="edge16" class="edge"><title>Node2&#45;&gt;Node9</title>
<path fill="none" stroke="midnightblue" d="M2457.04,-126.663C2203.23,-124.681 970.862,-113.463 592,-80 587.465,-79.5995 582.782,-79.0941 578.082,-78.5212"/>
<polygon fill="midnightblue" stroke="midnightblue" points="2457.33,-130.165 2467.36,-126.743 2457.39,-123.165 2457.33,-130.165"/>
</g>
<!-- Node10 -->
<g id="node19" class="node"><title>Node10</title>
<a xlink:href="CoreNaviManager_8h.htm" target="_top" xlink:title="CoreNaviManager.h">
<polygon fill="white" stroke="red" points="672,-58.5 672,-79.5 784,-79.5 784,-58.5 672,-58.5"/>
<text text-anchor="middle" x="728" y="-66.5" font-family="Helvetica,sans-Serif" font-size="10.00">CoreNaviManager.h</text>
</a>
</g>
<!-- Node2&#45;&gt;Node10 -->
<g id="edge18" class="edge"><title>Node2&#45;&gt;Node10</title>
<path fill="none" stroke="midnightblue" d="M2457.18,-126.533C2220.39,-124.001 1133.61,-110.866 798,-80 793.467,-79.5831 788.783,-79.057 784.085,-78.4618"/>
<polygon fill="midnightblue" stroke="midnightblue" points="2457.45,-130.036 2467.49,-126.643 2457.52,-123.037 2457.45,-130.036"/>
</g>
<!-- Node11 -->
<g id="node21" class="node"><title>Node11</title>
<a xlink:href="DisplayManager_8cpp.htm" target="_top" xlink:title="DisplayManager.cpp">
<polygon fill="white" stroke="black" points="463.5,-0.5 463.5,-21.5 576.5,-21.5 576.5,-0.5 463.5,-0.5"/>
<text text-anchor="middle" x="520" y="-8.5" font-family="Helvetica,sans-Serif" font-size="10.00">DisplayManager.cpp</text>
</a>
</g>
<!-- Node2&#45;&gt;Node11 -->
<g id="edge28" class="edge"><title>Node2&#45;&gt;Node11</title>
<path fill="none" stroke="midnightblue" d="M2457.32,-126.458C2180.38,-123.096 735.079,-104.43 645,-80 601.219,-68.1265 556.156,-37.9693 534.016,-21.7357"/>
<polygon fill="midnightblue" stroke="midnightblue" points="2457.38,-129.959 2467.42,-126.58 2457.46,-122.96 2457.38,-129.959"/>
</g>
<!-- Node12 -->
<g id="node23" class="node"><title>Node12</title>
<a xlink:href="DisplayStates_8cpp.htm" target="_top" xlink:title="DisplayStates.cpp">
<polygon fill="white" stroke="black" points="593.5,-0.5 593.5,-21.5 694.5,-21.5 694.5,-0.5 593.5,-0.5"/>
<text text-anchor="middle" x="644" y="-8.5" font-family="Helvetica,sans-Serif" font-size="10.00">DisplayStates.cpp</text>
</a>
</g>
<!-- Node2&#45;&gt;Node12 -->
<g id="edge30" class="edge"><title>Node2&#45;&gt;Node12</title>
<path fill="none" stroke="midnightblue" d="M2457.2,-126.579C2176.5,-123.906 699.44,-108.504 663,-80 645.286,-66.1437 643.123,-37.3885 643.376,-21.729"/>
<polygon fill="midnightblue" stroke="midnightblue" points="2457.4,-130.081 2467.43,-126.676 2457.46,-123.081 2457.4,-130.081"/>
</g>
<!-- Node13 -->
<g id="node25" class="node"><title>Node13</title>
<a xlink:href="SystemUiController_8cpp.htm" target="_top" xlink:title="SystemUiController.cpp">
<polygon fill="white" stroke="black" points="711.5,-0.5 711.5,-21.5 838.5,-21.5 838.5,-0.5 711.5,-0.5"/>
<text text-anchor="middle" x="775" y="-8.5" font-family="Helvetica,sans-Serif" font-size="10.00">SystemUiController.cpp</text>
</a>
</g>
<!-- Node2&#45;&gt;Node13 -->
<g id="edge72" class="edge"><title>Node2&#45;&gt;Node13</title>
<path fill="none" stroke="midnightblue" d="M2457.36,-126.52C2199.8,-123.71 936.857,-108.512 860,-80 827.389,-67.9021 797.966,-37.8413 783.838,-21.681"/>
<polygon fill="midnightblue" stroke="midnightblue" points="2457.45,-130.021 2467.48,-126.63 2457.52,-123.022 2457.45,-130.021"/>
</g>
<!-- Node14 -->
<g id="node27" class="node"><title>Node14</title>
<a xlink:href="WindowServer_8cpp.htm" target="_top" xlink:title="WindowServer.cpp">
<polygon fill="white" stroke="black" points="855.5,-0.5 855.5,-21.5 960.5,-21.5 960.5,-0.5 855.5,-0.5"/>
<text text-anchor="middle" x="908" y="-8.5" font-family="Helvetica,sans-Serif" font-size="10.00">WindowServer.cpp</text>
</a>
</g>
<!-- Node2&#45;&gt;Node14 -->
<g id="edge82" class="edge"><title>Node2&#45;&gt;Node14</title>
<path fill="none" stroke="midnightblue" d="M2456.95,-126.552C2194.41,-123.889 897.437,-109.267 869,-80 852.027,-62.5321 877.168,-36.2341 894.301,-21.6668"/>
<polygon fill="midnightblue" stroke="midnightblue" points="2457.23,-130.055 2467.26,-126.655 2457.3,-123.055 2457.23,-130.055"/>
</g>
<!-- Node15 -->
<g id="node31" class="node"><title>Node15</title>
<a xlink:href="EASPolicyManager_8cpp.htm" target="_top" xlink:title="EASPolicyManager.cpp">
<polygon fill="white" stroke="black" points="1039.5,-58.5 1039.5,-79.5 1166.5,-79.5 1166.5,-58.5 1039.5,-58.5"/>
<text text-anchor="middle" x="1103" y="-66.5" font-family="Helvetica,sans-Serif" font-size="10.00">EASPolicyManager.cpp</text>
</a>
</g>
<!-- Node2&#45;&gt;Node15 -->
<g id="edge32" class="edge"><title>Node2&#45;&gt;Node15</title>
<path fill="none" stroke="midnightblue" d="M2457.28,-126.097C2254.11,-121.972 1431.95,-104.093 1175,-80 1172.23,-79.7403 1169.4,-79.444 1166.55,-79.1193"/>
<polygon fill="midnightblue" stroke="midnightblue" points="2457.24,-129.596 2467.31,-126.299 2457.38,-122.598 2457.24,-129.596"/>
</g>
<!-- Node16 -->
<g id="node33" class="node"><title>Node16</title>
<a xlink:href="EventReporter_8cpp.htm" target="_top" xlink:title="EventReporter.cpp">
<polygon fill="white" stroke="black" points="1183.5,-58.5 1183.5,-79.5 1288.5,-79.5 1288.5,-58.5 1183.5,-58.5"/>
<text text-anchor="middle" x="1236" y="-66.5" font-family="Helvetica,sans-Serif" font-size="10.00">EventReporter.cpp</text>
</a>
</g>
<!-- Node2&#45;&gt;Node16 -->
<g id="edge34" class="edge"><title>Node2&#45;&gt;Node16</title>
<path fill="none" stroke="midnightblue" d="M2457.2,-126.071C2265.69,-122.054 1528.26,-105.234 1297,-80 1294.22,-79.6965 1291.37,-79.3412 1288.5,-78.9478"/>
<polygon fill="midnightblue" stroke="midnightblue" points="2457.4,-129.576 2467.47,-126.285 2457.55,-122.577 2457.4,-129.576"/>
</g>
<!-- Node17 -->
<g id="node35" class="node"><title>Node17</title>
<a xlink:href="BezelGestureRecognizer_8cpp.htm" target="_top" xlink:title="BezelGestureRecognizer.cpp">
<polygon fill="white" stroke="black" points="1306,-58.5 1306,-79.5 1460,-79.5 1460,-58.5 1306,-58.5"/>
<text text-anchor="middle" x="1383" y="-66.5" font-family="Helvetica,sans-Serif" font-size="10.00">BezelGestureRecognizer.cpp</text>
</a>
</g>
<!-- Node2&#45;&gt;Node17 -->
<g id="edge36" class="edge"><title>Node2&#45;&gt;Node17</title>
<path fill="none" stroke="midnightblue" d="M2456.9,-126.248C2311.52,-123.59 1849.76,-112.949 1469,-80 1466.15,-79.7534 1463.25,-79.4829 1460.32,-79.1933"/>
<polygon fill="midnightblue" stroke="midnightblue" points="2457.15,-129.753 2467.21,-126.433 2457.28,-122.754 2457.15,-129.753"/>
</g>
<!-- Node18 -->
<g id="node37" class="node"><title>Node18</title>
<a xlink:href="FlickGestureRecognizer_8cpp.htm" target="_top" xlink:title="FlickGestureRecognizer.cpp">
<polygon fill="white" stroke="black" points="1477.5,-58.5 1477.5,-79.5 1626.5,-79.5 1626.5,-58.5 1477.5,-58.5"/>
<text text-anchor="middle" x="1552" y="-66.5" font-family="Helvetica,sans-Serif" font-size="10.00">FlickGestureRecognizer.cpp</text>
</a>
</g>
<!-- Node2&#45;&gt;Node18 -->
<g id="edge38" class="edge"><title>Node2&#45;&gt;Node18</title>
<path fill="none" stroke="midnightblue" d="M2456.87,-125.624C2327.7,-121.526 1951.44,-107.911 1640,-80 1635.71,-79.6152 1631.3,-79.183 1626.85,-78.7183"/>
<polygon fill="midnightblue" stroke="midnightblue" points="2457.07,-129.132 2467.18,-125.947 2457.29,-122.135 2457.07,-129.132"/>
</g>
<!-- Node19 -->
<g id="node39" class="node"><title>Node19</title>
<a xlink:href="HapticsController_8h.htm" target="_top" xlink:title="HapticsController.h">
<polygon fill="white" stroke="red" points="877.5,-58.5 877.5,-79.5 984.5,-79.5 984.5,-58.5 877.5,-58.5"/>
<text text-anchor="middle" x="931" y="-66.5" font-family="Helvetica,sans-Serif" font-size="10.00">HapticsController.h</text>
</a>
</g>
<!-- Node2&#45;&gt;Node19 -->
<g id="edge40" class="edge"><title>Node2&#45;&gt;Node19</title>
<path fill="none" stroke="midnightblue" d="M2457.02,-126.38C2237.15,-123.291 1291.59,-108.56 998,-80 993.659,-79.5777 989.173,-79.0477 984.675,-78.45"/>
<polygon fill="midnightblue" stroke="midnightblue" points="2457.18,-129.883 2467.23,-126.523 2457.28,-122.883 2457.18,-129.883"/>
</g>
<!-- Node20 -->
<g id="node41" class="node"><title>Node20</title>
<a xlink:href="HapticsController_8cpp.htm" target="_top" xlink:title="HapticsController.cpp">
<polygon fill="white" stroke="black" points="978,-0.5 978,-21.5 1096,-21.5 1096,-0.5 978,-0.5"/>
<text text-anchor="middle" x="1037" y="-8.5" font-family="Helvetica,sans-Serif" font-size="10.00">HapticsController.cpp</text>
</a>
</g>
<!-- Node2&#45;&gt;Node20 -->
<g id="edge46" class="edge"><title>Node2&#45;&gt;Node20</title>
<path fill="none" stroke="midnightblue" d="M2457.27,-126.407C2211.36,-123.111 1056.43,-106.254 1031,-80 1015.94,-64.4532 1025.03,-36.6565 1031.75,-21.5225"/>
<polygon fill="midnightblue" stroke="midnightblue" points="2457.25,-129.907 2467.29,-126.54 2457.34,-122.907 2457.25,-129.907"/>
</g>
<!-- Node21 -->
<g id="node45" class="node"><title>Node21</title>
<a xlink:href="HostArm_8cpp.htm" target="_top" xlink:title="HostArm.cpp">
<polygon fill="white" stroke="black" points="1645.5,-0.5 1645.5,-21.5 1722.5,-21.5 1722.5,-0.5 1645.5,-0.5"/>
<text text-anchor="middle" x="1684" y="-8.5" font-family="Helvetica,sans-Serif" font-size="10.00">HostArm.cpp</text>
</a>
</g>
<!-- Node2&#45;&gt;Node21 -->
<g id="edge48" class="edge"><title>Node2&#45;&gt;Node21</title>
<path fill="none" stroke="midnightblue" d="M2457.22,-126.128C2287.15,-122.67 1700.11,-108.69 1673,-80 1658.09,-64.2182 1669.41,-36.7717 1677.57,-21.6887"/>
<polygon fill="midnightblue" stroke="midnightblue" points="2457.28,-129.63 2467.34,-126.332 2457.42,-122.631 2457.28,-129.63"/>
</g>
<!-- Node22 -->
<g id="node47" class="node"><title>Node22</title>
<a xlink:href="HostArm_8h.htm" target="_top" xlink:title="HostArm.h">
<polygon fill="white" stroke="red" points="1681.5,-58.5 1681.5,-79.5 1746.5,-79.5 1746.5,-58.5 1681.5,-58.5"/>
<text text-anchor="middle" x="1714" y="-66.5" font-family="Helvetica,sans-Serif" font-size="10.00">HostArm.h</text>
</a>
</g>
<!-- Node2&#45;&gt;Node22 -->
<g id="edge50" class="edge"><title>Node2&#45;&gt;Node22</title>
<path fill="none" stroke="midnightblue" d="M2457.23,-125.322C2316.49,-119.972 1891.39,-102.351 1755,-80 1752.24,-79.5471 1749.39,-78.9863 1746.55,-78.3596"/>
<polygon fill="midnightblue" stroke="midnightblue" points="2457.13,-128.82 2467.26,-125.7 2457.4,-121.825 2457.13,-128.82"/>
</g>
<!-- Node23 -->
<g id="node50" class="node"><title>Node23</title>
<a xlink:href="HostBase_8cpp.htm" target="_top" xlink:title="HostBase.cpp">
<polygon fill="white" stroke="black" points="1764,-58.5 1764,-79.5 1846,-79.5 1846,-58.5 1764,-58.5"/>
<text text-anchor="middle" x="1805" y="-66.5" font-family="Helvetica,sans-Serif" font-size="10.00">HostBase.cpp</text>
</a>
</g>
<!-- Node2&#45;&gt;Node23 -->
<g id="edge54" class="edge"><title>Node2&#45;&gt;Node23</title>
<path fill="none" stroke="midnightblue" d="M2457.28,-125.946C2351.02,-123.006 2079.42,-112.651 1855,-80 1852.1,-79.5777 1849.11,-79.0815 1846.11,-78.5375"/>
<polygon fill="midnightblue" stroke="midnightblue" points="2457.24,-129.447 2467.33,-126.216 2457.43,-122.449 2457.24,-129.447"/>
</g>
<!-- Node24 -->
<g id="node52" class="node"><title>Node24</title>
<a xlink:href="HostQtDesktop_8h.htm" target="_top" xlink:title="HostQtDesktop.h">
<polygon fill="white" stroke="red" points="1863.5,-58.5 1863.5,-79.5 1960.5,-79.5 1960.5,-58.5 1863.5,-58.5"/>
<text text-anchor="middle" x="1912" y="-66.5" font-family="Helvetica,sans-Serif" font-size="10.00">HostQtDesktop.h</text>
</a>
</g>
<!-- Node2&#45;&gt;Node24 -->
<g id="edge56" class="edge"><title>Node2&#45;&gt;Node24</title>
<path fill="none" stroke="midnightblue" d="M2457.08,-124.554C2364.45,-119.269 2148.71,-105.181 1969,-80 1966.31,-79.6224 1963.54,-79.2021 1960.76,-78.7523"/>
<polygon fill="midnightblue" stroke="midnightblue" points="2457.05,-128.058 2467.24,-125.126 2457.45,-121.069 2457.05,-128.058"/>
</g>
<!-- Node25 -->
<g id="node54" class="node"><title>Node25</title>
<a xlink:href="InputManager_8cpp.htm" target="_top" xlink:title="InputManager.cpp">
<polygon fill="white" stroke="black" points="1978,-58.5 1978,-79.5 2080,-79.5 2080,-58.5 1978,-58.5"/>
<text text-anchor="middle" x="2029" y="-66.5" font-family="Helvetica,sans-Serif" font-size="10.00">InputManager.cpp</text>
</a>
</g>
<!-- Node2&#45;&gt;Node25 -->
<g id="edge58" class="edge"><title>Node2&#45;&gt;Node25</title>
<path fill="none" stroke="midnightblue" d="M2457.22,-122.833C2380.74,-115.642 2222.26,-99.7567 2089,-80 2086.07,-79.5651 2083.06,-79.0938 2080.02,-78.5992"/>
<polygon fill="midnightblue" stroke="midnightblue" points="2457.17,-126.344 2467.45,-123.79 2457.82,-119.374 2457.17,-126.344"/>
</g>
<!-- Node26 -->
<g id="node56" class="node"><title>Node26</title>
<a xlink:href="MemoryMonitor_8cpp.htm" target="_top" xlink:title="MemoryMonitor.cpp">
<polygon fill="white" stroke="black" points="2098,-58.5 2098,-79.5 2208,-79.5 2208,-58.5 2098,-58.5"/>
<text text-anchor="middle" x="2153" y="-66.5" font-family="Helvetica,sans-Serif" font-size="10.00">MemoryMonitor.cpp</text>
</a>
</g>
<!-- Node2&#45;&gt;Node26 -->
<g id="edge60" class="edge"><title>Node2&#45;&gt;Node26</title>
<path fill="none" stroke="midnightblue" d="M2457.28,-119.592C2400.8,-110.417 2301.79,-94.2531 2217,-80 2214.11,-79.5141 2211.15,-79.0134 2208.15,-78.5059"/>
<polygon fill="midnightblue" stroke="midnightblue" points="2456.88,-123.074 2467.32,-121.222 2458.01,-116.165 2456.88,-123.074"/>
</g>
<!-- Node27 -->
<g id="node58" class="node"><title>Node27</title>
<a xlink:href="ProgressAnimation_8cpp.htm" target="_top" xlink:title="ProgressAnimation.cpp">
<polygon fill="white" stroke="black" points="2225.5,-58.5 2225.5,-79.5 2350.5,-79.5 2350.5,-58.5 2225.5,-58.5"/>
<text text-anchor="middle" x="2288" y="-66.5" font-family="Helvetica,sans-Serif" font-size="10.00">ProgressAnimation.cpp</text>
</a>
</g>
<!-- Node2&#45;&gt;Node27 -->
<g id="edge62" class="edge"><title>Node2&#45;&gt;Node27</title>
<path fill="none" stroke="midnightblue" d="M2457.55,-114.739C2418.89,-104.31 2363.95,-89.4899 2327.2,-79.5749"/>
<polygon fill="midnightblue" stroke="midnightblue" points="2456.93,-118.197 2467.5,-117.422 2458.75,-111.439 2456.93,-118.197"/>
</g>
<!-- Node28 -->
<g id="node60" class="node"><title>Node28</title>
<a xlink:href="Security_8cpp.htm" target="_top" xlink:title="Security.cpp">
<polygon fill="white" stroke="black" points="2368,-58.5 2368,-79.5 2442,-79.5 2442,-58.5 2368,-58.5"/>
<text text-anchor="middle" x="2405" y="-66.5" font-family="Helvetica,sans-Serif" font-size="10.00">Security.cpp</text>
</a>
</g>
<!-- Node2&#45;&gt;Node28 -->
<g id="edge64" class="edge"><title>Node2&#45;&gt;Node28</title>
<path fill="none" stroke="midnightblue" d="M2476.14,-111.101C2459.18,-101.066 2437.75,-88.3808 2422.86,-79.5707"/>
<polygon fill="midnightblue" stroke="midnightblue" points="2474.64,-114.281 2485.03,-116.362 2478.2,-108.257 2474.64,-114.281"/>
</g>
<!-- Node29 -->
<g id="node62" class="node"><title>Node29</title>
<a xlink:href="DeviceInfo_8cpp.htm" target="_top" xlink:title="DeviceInfo.cpp">
<polygon fill="white" stroke="black" points="2460,-58.5 2460,-79.5 2546,-79.5 2546,-58.5 2460,-58.5"/>
<text text-anchor="middle" x="2503" y="-66.5" font-family="Helvetica,sans-Serif" font-size="10.00">DeviceInfo.cpp</text>
</a>
</g>
<!-- Node2&#45;&gt;Node29 -->
<g id="edge66" class="edge"><title>Node2&#45;&gt;Node29</title>
<path fill="none" stroke="midnightblue" d="M2503,-106.191C2503,-97.1684 2503,-86.9941 2503,-79.5707"/>
<polygon fill="midnightblue" stroke="midnightblue" points="2499.5,-106.362 2503,-116.362 2506.5,-106.362 2499.5,-106.362"/>
</g>
<!-- Node30 -->
<g id="node64" class="node"><title>Node30</title>
<a xlink:href="Preferences_8cpp.htm" target="_top" xlink:title="Preferences.cpp">
<polygon fill="white" stroke="black" points="2564,-58.5 2564,-79.5 2658,-79.5 2658,-58.5 2564,-58.5"/>
<text text-anchor="middle" x="2611" y="-66.5" font-family="Helvetica,sans-Serif" font-size="10.00">Preferences.cpp</text>
</a>
</g>
<!-- Node2&#45;&gt;Node30 -->
<g id="edge68" class="edge"><title>Node2&#45;&gt;Node30</title>
<path fill="none" stroke="midnightblue" d="M2531.57,-111.656C2550.38,-101.556 2574.52,-88.5928 2591.22,-79.6212"/>
<polygon fill="midnightblue" stroke="midnightblue" points="2529.71,-108.682 2522.56,-116.497 2533.02,-114.849 2529.71,-108.682"/>
</g>
<!-- Node31 -->
<g id="node66" class="node"><title>Node31</title>
<a xlink:href="SystemService_8cpp.htm" target="_top" xlink:title="SystemService.cpp">
<polygon fill="white" stroke="black" points="2676,-58.5 2676,-79.5 2782,-79.5 2782,-58.5 2676,-58.5"/>
<text text-anchor="middle" x="2729" y="-66.5" font-family="Helvetica,sans-Serif" font-size="10.00">SystemService.cpp</text>
</a>
</g>
<!-- Node2&#45;&gt;Node31 -->
<g id="edge70" class="edge"><title>Node2&#45;&gt;Node31</title>
<path fill="none" stroke="midnightblue" d="M2548.5,-115.322C2589.27,-104.859 2648.55,-89.6475 2687.91,-79.5462"/>
<polygon fill="midnightblue" stroke="midnightblue" points="2547.38,-111.998 2538.56,-117.874 2549.12,-118.778 2547.38,-111.998"/>
</g>
<!-- Node32 -->
<g id="node69" class="node"><title>Node32</title>
<a xlink:href="TouchToShareGlow_8cpp.htm" target="_top" xlink:title="TouchToShareGlow.cpp">
<polygon fill="white" stroke="black" points="2799.5,-58.5 2799.5,-79.5 2930.5,-79.5 2930.5,-58.5 2799.5,-58.5"/>
<text text-anchor="middle" x="2865" y="-66.5" font-family="Helvetica,sans-Serif" font-size="10.00">TouchToShareGlow.cpp</text>
</a>
</g>
<!-- Node2&#45;&gt;Node32 -->
<g id="edge74" class="edge"><title>Node2&#45;&gt;Node32</title>
<path fill="none" stroke="midnightblue" d="M2548.79,-119.663C2612.18,-109.508 2727.01,-91.1092 2799.46,-79.5003"/>
<polygon fill="midnightblue" stroke="midnightblue" points="2548.02,-116.242 2538.7,-121.28 2549.13,-123.154 2548.02,-116.242"/>
</g>
<!-- Node33 -->
<g id="node71" class="node"><title>Node33</title>
<a xlink:href="WSOverlayScreenShotAnimation_8cpp.htm" target="_top" xlink:title="WSOverlayScreenShotAnimation.cpp">
<polygon fill="white" stroke="black" points="2947.5,-58.5 2947.5,-79.5 3138.5,-79.5 3138.5,-58.5 2947.5,-58.5"/>
<text text-anchor="middle" x="3043" y="-66.5" font-family="Helvetica,sans-Serif" font-size="10.00">WSOverlayScreenShotAnimation.cpp</text>
</a>
</g>
<!-- Node2&#45;&gt;Node33 -->
<g id="edge76" class="edge"><title>Node2&#45;&gt;Node33</title>
<path fill="none" stroke="midnightblue" d="M2549.03,-122.056C2636.9,-112.618 2830.2,-91.8566 2947.24,-79.2853"/>
<polygon fill="midnightblue" stroke="midnightblue" points="2548.42,-118.602 2538.85,-123.15 2549.17,-125.562 2548.42,-118.602"/>
</g>
<!-- Node34 -->
<g id="node73" class="node"><title>Node34</title>
<a xlink:href="HostWindowDataOpenGL_8cpp.htm" target="_top" xlink:title="HostWindowDataOpenGL.cpp">
<polygon fill="white" stroke="black" points="3156,-58.5 3156,-79.5 3314,-79.5 3314,-58.5 3156,-58.5"/>
<text text-anchor="middle" x="3235" y="-66.5" font-family="Helvetica,sans-Serif" font-size="10.00">HostWindowDataOpenGL.cpp</text>
</a>
</g>
<!-- Node2&#45;&gt;Node34 -->
<g id="edge78" class="edge"><title>Node2&#45;&gt;Node34</title>
<path fill="none" stroke="midnightblue" d="M2548.65,-124.479C2654.14,-118.475 2922.98,-102.161 3147,-80 3149.91,-79.712 3152.87,-79.4062 3155.87,-79.0867"/>
<polygon fill="midnightblue" stroke="midnightblue" points="2548.45,-120.985 2538.66,-125.044 2548.84,-127.973 2548.45,-120.985"/>
</g>
<!-- Node35 -->
<g id="node75" class="node"><title>Node35</title>
<a xlink:href="HostWindowDataOpenGLTextureShared_8cpp.htm" target="_top" xlink:title="HostWindowDataOpenGLTextureShared.cpp">
<polygon fill="white" stroke="black" points="3331.5,-58.5 3331.5,-79.5 3560.5,-79.5 3560.5,-58.5 3331.5,-58.5"/>
<text text-anchor="middle" x="3446" y="-66.5" font-family="Helvetica,sans-Serif" font-size="10.00">HostWindowDataOpenGLTextureShared.cpp</text>
</a>
</g>
<!-- Node2&#45;&gt;Node35 -->
<g id="edge80" class="edge"><title>Node2&#45;&gt;Node35</title>
<path fill="none" stroke="midnightblue" d="M2548.89,-124.885C2673.45,-119.032 3028.32,-101.616 3323,-80 3325.78,-79.7961 3328.59,-79.5845 3331.43,-79.3666"/>
<polygon fill="midnightblue" stroke="midnightblue" points="2548.42,-121.403 2538.59,-125.367 2548.74,-128.395 2548.42,-121.403"/>
</g>
<!-- Node36 -->
<g id="node78" class="node"><title>Node36</title>
<a xlink:href="SyncTask_8cpp.htm" target="_top" xlink:title="SyncTask.cpp">
<polygon fill="white" stroke="black" points="5717.5,-58.5 5717.5,-79.5 5800.5,-79.5 5800.5,-58.5 5717.5,-58.5"/>
<text text-anchor="middle" x="5759" y="-66.5" font-family="Helvetica,sans-Serif" font-size="10.00">SyncTask.cpp</text>
</a>
</g>
<!-- Node2&#45;&gt;Node36 -->
<g id="edge84" class="edge"><title>Node2&#45;&gt;Node36</title>
<path fill="none" stroke="midnightblue" d="M2548.71,-126.594C2928.06,-123.188 5544.91,-99.0541 5709,-80 5711.74,-79.6822 5714.54,-79.28 5717.36,-78.8186"/>
<polygon fill="midnightblue" stroke="midnightblue" points="2548.61,-123.094 2538.64,-126.684 2548.67,-130.094 2548.61,-123.094"/>
</g>
<!-- Node37 -->
<g id="node80" class="node"><title>Node37</title>
<a xlink:href="CandidateBarRemote_8cpp.htm" target="_top" xlink:title="CandidateBarRemote.cpp">
<polygon fill="white" stroke="black" points="3578,-58.5 3578,-79.5 3716,-79.5 3716,-58.5 3578,-58.5"/>
<text text-anchor="middle" x="3647" y="-66.5" font-family="Helvetica,sans-Serif" font-size="10.00">CandidateBarRemote.cpp</text>
</a>
</g>
<!-- Node2&#45;&gt;Node37 -->
<g id="edge86" class="edge"><title>Node2&#45;&gt;Node37</title>
<path fill="none" stroke="midnightblue" d="M2548.57,-126.554C2696.25,-124.775 3174.94,-116.388 3569,-80 3571.86,-79.7359 3574.78,-79.4412 3577.72,-79.1225"/>
<polygon fill="midnightblue" stroke="midnightblue" points="2548.47,-123.055 2538.51,-126.671 2548.55,-130.054 2548.47,-123.055"/>
</g>
<!-- Node38 -->
<g id="node82" class="node"><title>Node38</title>
<a xlink:href="IMEController_8cpp.htm" target="_top" xlink:title="IMEController.cpp">
<polygon fill="white" stroke="black" points="3733.5,-58.5 3733.5,-79.5 3834.5,-79.5 3834.5,-58.5 3733.5,-58.5"/>
<text text-anchor="middle" x="3784" y="-66.5" font-family="Helvetica,sans-Serif" font-size="10.00">IMEController.cpp</text>
</a>
</g>
<!-- Node2&#45;&gt;Node38 -->
<g id="edge88" class="edge"><title>Node2&#45;&gt;Node38</title>
<path fill="none" stroke="midnightblue" d="M2548.8,-126.134C2741.91,-122.344 3490.5,-106.228 3725,-80 3727.69,-79.6989 3730.45,-79.3455 3733.22,-78.9535"/>
<polygon fill="midnightblue" stroke="midnightblue" points="2548.64,-122.636 2538.71,-126.331 2548.78,-129.635 2548.64,-122.636"/>
</g>
<!-- Node39 -->
<g id="node84" class="node"><title>Node39</title>
<a xlink:href="IMEView_8cpp.htm" target="_top" xlink:title="IMEView.cpp">
<polygon fill="white" stroke="black" points="3851.5,-58.5 3851.5,-79.5 3928.5,-79.5 3928.5,-58.5 3851.5,-58.5"/>
<text text-anchor="middle" x="3890" y="-66.5" font-family="Helvetica,sans-Serif" font-size="10.00">IMEView.cpp</text>
</a>
</g>
<!-- Node2&#45;&gt;Node39 -->
<g id="edge90" class="edge"><title>Node2&#45;&gt;Node39</title>
<path fill="none" stroke="midnightblue" d="M2548.85,-126.591C2753.51,-124.581 3584.73,-114.417 3843,-80 3845.74,-79.6347 3848.56,-79.1808 3851.38,-78.6672"/>
<polygon fill="midnightblue" stroke="midnightblue" points="2548.72,-123.092 2538.75,-126.689 2548.79,-130.092 2548.72,-123.092"/>
</g>
<!-- Node40 -->
<g id="node86" class="node"><title>Node40</title>
<a xlink:href="InputWindowManager_8cpp.htm" target="_top" xlink:title="InputWindowManager.cpp">
<polygon fill="white" stroke="black" points="3946,-58.5 3946,-79.5 4086,-79.5 4086,-58.5 3946,-58.5"/>
<text text-anchor="middle" x="4016" y="-66.5" font-family="Helvetica,sans-Serif" font-size="10.00">InputWindowManager.cpp</text>
</a>
</g>
<!-- Node2&#45;&gt;Node40 -->
<g id="edge92" class="edge"><title>Node2&#45;&gt;Node40</title>
<path fill="none" stroke="midnightblue" d="M2548.84,-126.15C2762.03,-122.098 3657.86,-103.941 3937,-80 3939.9,-79.7515 3942.85,-79.4698 3945.83,-79.1619"/>
<polygon fill="midnightblue" stroke="midnightblue" points="2548.57,-122.655 2538.64,-126.343 2548.7,-129.653 2548.57,-122.655"/>
</g>
<!-- Node41 -->
<g id="node88" class="node"><title>Node41</title>
<a xlink:href="SysmgrIMEDataInterface_8cpp.htm" target="_top" xlink:title="SysmgrIMEDataInterface.cpp">
<polygon fill="white" stroke="black" points="4103.5,-58.5 4103.5,-79.5 4258.5,-79.5 4258.5,-58.5 4103.5,-58.5"/>
<text text-anchor="middle" x="4181" y="-66.5" font-family="Helvetica,sans-Serif" font-size="10.00">SysmgrIMEDataInterface.cpp</text>
</a>
</g>
<!-- Node2&#45;&gt;Node41 -->
<g id="edge94" class="edge"><title>Node2&#45;&gt;Node41</title>
<path fill="none" stroke="midnightblue" d="M2549.02,-126.25C2776.56,-122.447 3782.77,-104.518 4095,-80 4097.7,-79.7879 4100.45,-79.5512 4103.22,-79.2945"/>
<polygon fill="midnightblue" stroke="midnightblue" points="2548.72,-122.754 2538.78,-126.42 2548.84,-129.753 2548.72,-122.754"/>
</g>
<!-- Node42 -->
<g id="node90" class="node"><title>Node42</title>
<a xlink:href="hiddkbd__qws_8cpp.htm" target="_top" xlink:title="hiddkbd_qws.cpp">
<polygon fill="white" stroke="black" points="4276,-58.5 4276,-79.5 4374,-79.5 4374,-58.5 4276,-58.5"/>
<text text-anchor="middle" x="4325" y="-66.5" font-family="Helvetica,sans-Serif" font-size="10.00">hiddkbd_qws.cpp</text>
</a>
</g>
<!-- Node2&#45;&gt;Node42 -->
<g id="edge96" class="edge"><title>Node2&#45;&gt;Node42</title>
<path fill="none" stroke="midnightblue" d="M2548.88,-126.777C2790.73,-125.45 3919.58,-117.328 4267,-80 4269.85,-79.6934 4272.78,-79.3223 4275.72,-78.9045"/>
<polygon fill="midnightblue" stroke="midnightblue" points="2548.67,-123.278 2538.69,-126.832 2548.71,-130.278 2548.67,-123.278"/>
</g>
<!-- Node43 -->
<g id="node92" class="node"><title>Node43</title>
<a xlink:href="hiddtp__qws_8cpp.htm" target="_top" xlink:title="hiddtp_qws.cpp">
<polygon fill="white" stroke="black" points="4392,-58.5 4392,-79.5 4482,-79.5 4482,-58.5 4392,-58.5"/>
<text text-anchor="middle" x="4437" y="-66.5" font-family="Helvetica,sans-Serif" font-size="10.00">hiddtp_qws.cpp</text>
</a>
</g>
<!-- Node2&#45;&gt;Node43 -->
<g id="edge98" class="edge"><title>Node2&#45;&gt;Node43</title>
<path fill="none" stroke="midnightblue" d="M2549.09,-126.334C2819.63,-122.359 4195.92,-101.225 4383,-80 4385.85,-79.6764 4388.78,-79.2776 4391.72,-78.8257"/>
<polygon fill="midnightblue" stroke="midnightblue" points="2548.79,-122.838 2538.84,-126.484 2548.89,-129.837 2548.79,-122.838"/>
</g>
<!-- Node44 -->
<g id="node94" class="node"><title>Node44</title>
<a xlink:href="CardHostWindow_8cpp.htm" target="_top" xlink:title="CardHostWindow.cpp">
<polygon fill="white" stroke="black" points="4499.5,-58.5 4499.5,-79.5 4618.5,-79.5 4618.5,-58.5 4499.5,-58.5"/>
<text text-anchor="middle" x="4559" y="-66.5" font-family="Helvetica,sans-Serif" font-size="10.00">CardHostWindow.cpp</text>
</a>
</g>
<!-- Node2&#45;&gt;Node44 -->
<g id="edge100" class="edge"><title>Node2&#45;&gt;Node44</title>
<path fill="none" stroke="midnightblue" d="M2548.75,-126.769C2808.08,-125.333 4095.98,-116.448 4491,-80 4493.74,-79.7473 4496.53,-79.4512 4499.35,-79.1215"/>
<polygon fill="midnightblue" stroke="midnightblue" points="2548.54,-123.27 2538.56,-126.825 2548.58,-130.27 2548.54,-123.27"/>
</g>
<!-- Node45 -->
<g id="node96" class="node"><title>Node45</title>
<a xlink:href="CardWindow_8cpp.htm" target="_top" xlink:title="CardWindow.cpp">
<polygon fill="white" stroke="black" points="4635.5,-58.5 4635.5,-79.5 4732.5,-79.5 4732.5,-58.5 4635.5,-58.5"/>
<text text-anchor="middle" x="4684" y="-66.5" font-family="Helvetica,sans-Serif" font-size="10.00">CardWindow.cpp</text>
</a>
</g>
<!-- Node2&#45;&gt;Node45 -->
<g id="edge102" class="edge"><title>Node2&#45;&gt;Node45</title>
<path fill="none" stroke="midnightblue" d="M2548.93,-126.449C2839.24,-122.904 4414.05,-102.74 4627,-80 4629.71,-79.7111 4632.47,-79.3607 4635.26,-78.9651"/>
<polygon fill="midnightblue" stroke="midnightblue" points="2548.72,-122.951 2538.77,-126.573 2548.81,-129.951 2548.72,-122.951"/>
</g>
<!-- Node46 -->
<g id="node98" class="node"><title>Node46</title>
<a xlink:href="CardWindowManager_8cpp.htm" target="_top" xlink:title="CardWindowManager.cpp">
<polygon fill="white" stroke="black" points="4750,-58.5 4750,-79.5 4890,-79.5 4890,-58.5 4750,-58.5"/>
<text text-anchor="middle" x="4820" y="-66.5" font-family="Helvetica,sans-Serif" font-size="10.00">CardWindowManager.cpp</text>
</a>
</g>
<!-- Node2&#45;&gt;Node46 -->
<g id="edge104" class="edge"><title>Node2&#45;&gt;Node46</title>
<path fill="none" stroke="midnightblue" d="M2549.06,-126.77C2827.88,-125.269 4293.02,-115.768 4741,-80 4743.9,-79.7686 4746.85,-79.5011 4749.84,-79.205"/>
<polygon fill="midnightblue" stroke="midnightblue" points="2548.87,-123.271 2538.89,-126.824 2548.91,-130.271 2548.87,-123.271"/>
</g>
<!-- Node47 -->
<g id="node100" class="node"><title>Node47</title>
<a xlink:href="DockModeAppMenuContainer_8cpp.htm" target="_top" xlink:title="DockModeAppMenuContainer.cpp">
<polygon fill="white" stroke="black" points="4907.5,-58.5 4907.5,-79.5 5086.5,-79.5 5086.5,-58.5 4907.5,-58.5"/>
<text text-anchor="middle" x="4997" y="-66.5" font-family="Helvetica,sans-Serif" font-size="10.00">DockModeAppMenuContainer.cpp</text>
</a>
</g>
<!-- Node2&#45;&gt;Node47 -->
<g id="edge106" class="edge"><title>Node2&#45;&gt;Node47</title>
<path fill="none" stroke="midnightblue" d="M2549.04,-126.677C2839.11,-124.556 4417.15,-111.701 4899,-80 4901.73,-79.8202 4904.51,-79.6198 4907.31,-79.4023"/>
<polygon fill="midnightblue" stroke="midnightblue" points="2548.85,-123.178 2538.88,-126.751 2548.9,-130.178 2548.85,-123.178"/>
</g>
<!-- Node48 -->
<g id="node102" class="node"><title>Node48</title>
<a xlink:href="DockModeClock_8cpp.htm" target="_top" xlink:title="DockModeClock.cpp">
<polygon fill="white" stroke="black" points="5103.5,-58.5 5103.5,-79.5 5216.5,-79.5 5216.5,-58.5 5103.5,-58.5"/>
<text text-anchor="middle" x="5160" y="-66.5" font-family="Helvetica,sans-Serif" font-size="10.00">DockModeClock.cpp</text>
</a>
</g>
<!-- Node2&#45;&gt;Node48 -->
<g id="edge108" class="edge"><title>Node2&#45;&gt;Node48</title>
<path fill="none" stroke="midnightblue" d="M2548.89,-126.582C2874.67,-123.56 4832.19,-104.482 5095,-80 5097.74,-79.7452 5100.53,-79.4415 5103.35,-79.1003"/>
<polygon fill="midnightblue" stroke="midnightblue" points="2548.83,-123.082 2538.86,-126.675 2548.89,-130.082 2548.83,-123.082"/>
</g>
<!-- Node10&#45;&gt;Node11 -->
<g id="edge20" class="edge"><title>Node10&#45;&gt;Node11</title>
<path fill="none" stroke="midnightblue" d="M680.23,-55.6795C643.032,-45.307 592.111,-31.1078 557.738,-21.5231"/>
<polygon fill="midnightblue" stroke="midnightblue" points="679.76,-59.182 690.333,-58.4966 681.64,-52.4392 679.76,-59.182"/>
</g>
<!-- Node10&#45;&gt;Node12 -->
<g id="edge22" class="edge"><title>Node10&#45;&gt;Node12</title>
<path fill="none" stroke="midnightblue" d="M704.162,-52.5407C689.762,-42.5973 671.833,-30.2177 659.309,-21.5707"/>
<polygon fill="midnightblue" stroke="midnightblue" points="702.375,-55.5601 712.593,-58.3619 706.353,-49.7998 702.375,-55.5601"/>
</g>
<!-- Node10&#45;&gt;Node13 -->
<g id="edge24" class="edge"><title>Node10&#45;&gt;Node13</title>
<path fill="none" stroke="midnightblue" d="M742.958,-50.5407C750.707,-40.9786 759.89,-29.6467 766.434,-21.5707"/>
<polygon fill="midnightblue" stroke="midnightblue" points="740.197,-48.389 736.621,-58.3619 745.636,-52.7961 740.197,-48.389"/>
</g>
<!-- Node10&#45;&gt;Node14 -->
<g id="edge26" class="edge"><title>Node10&#45;&gt;Node14</title>
<path fill="none" stroke="midnightblue" d="M770.167,-55.4127C802.282,-45.0646 845.851,-31.0258 875.342,-21.5231"/>
<polygon fill="midnightblue" stroke="midnightblue" points="769.041,-52.0983 760.597,-58.4966 771.188,-58.761 769.041,-52.0983"/>
</g>
<!-- Node19&#45;&gt;Node14 -->
<g id="edge44" class="edge"><title>Node19&#45;&gt;Node14</title>
<path fill="none" stroke="midnightblue" d="M922.983,-48.7838C919.348,-39.617 915.2,-29.1572 912.192,-21.5707"/>
<polygon fill="midnightblue" stroke="midnightblue" points="919.842,-50.3563 926.781,-58.3619 926.349,-47.7759 919.842,-50.3563"/>
</g>
<!-- Node19&#45;&gt;Node20 -->
<g id="edge42" class="edge"><title>Node19&#45;&gt;Node20</title>
<path fill="none" stroke="midnightblue" d="M959.296,-53.5175C977.752,-43.4189 1001.36,-30.5032 1017.68,-21.5707"/>
<polygon fill="midnightblue" stroke="midnightblue" points="957.535,-50.4913 950.442,-58.3619 960.895,-56.6322 957.535,-50.4913"/>
</g>
<!-- Node22&#45;&gt;Node21 -->
<g id="edge52" class="edge"><title>Node22&#45;&gt;Node21</title>
<path fill="none" stroke="midnightblue" d="M1703.85,-49.3733C1699.04,-40.0682 1693.48,-29.3204 1689.47,-21.5707"/>
<polygon fill="midnightblue" stroke="midnightblue" points="1700.79,-51.0877 1708.5,-58.3619 1707.01,-47.8717 1700.79,-51.0877"/>
</g>
<!-- Node49&#45;&gt;Node36 -->
<g id="edge112" class="edge"><title>Node49&#45;&gt;Node36</title>
<path fill="none" stroke="midnightblue" d="M4221.08,-115.971C4877.24,-28.4812 5054.75,-159.124 5709,-80 5711.74,-79.6692 5714.54,-79.2572 5717.36,-78.7885"/>
<polygon fill="midnightblue" stroke="midnightblue" points="4220.34,-112.539 4210.89,-117.341 4221.27,-119.476 4220.34,-112.539"/>
</g>
</g>
</svg>
