<?xml version="1.0" encoding="UTF-8" standalone="no"?>
<!DOCTYPE svg PUBLIC "-//W3C//DTD SVG 1.1//EN"
 "http://www.w3.org/Graphics/SVG/1.1/DTD/svg11.dtd">
<!-- Generated by graphviz version 2.26.3 (20100126.1600)
 -->
<!-- Title: G Pages: 1 -->
<svg width="1765pt" height="378pt"
 viewBox="0.00 0.00 1765.00 378.00" xmlns="http://www.w3.org/2000/svg" xmlns:xlink="http://www.w3.org/1999/xlink">
<g id="graph1" class="graph" transform="scale(1 1) rotate(0) translate(4 374)">
<title>G</title>
<polygon fill="white" stroke="white" points="-4,5 -4,-374 1762,-374 1762,5 -4,5"/>
<!-- Node1 -->
<g id="node1" class="node"><title>Node1</title>
<polygon fill="#bfbfbf" stroke="black" points="981.5,-348.5 981.5,-369.5 1040.5,-369.5 1040.5,-348.5 981.5,-348.5"/>
<text text-anchor="middle" x="1011" y="-356.5" font-family="Helvetica,sans-Serif" font-size="10.00">thing.cpp</text>
</g>
<!-- Node2 -->
<g id="node3" class="node"><title>Node2</title>
<a xlink:href="thing_8h.htm" target="_top" xlink:title="thing.h">
<polygon fill="white" stroke="black" points="800,-116.5 800,-137.5 848,-137.5 848,-116.5 800,-116.5"/>
<text text-anchor="middle" x="824" y="-124.5" font-family="Helvetica,sans-Serif" font-size="10.00">thing.h</text>
</a>
</g>
<!-- Node1&#45;&gt;Node2 -->
<g id="edge2" class="edge"><title>Node1&#45;&gt;Node2</title>
<path fill="none" stroke="midnightblue" d="M981.162,-354.477C878.641,-338.271 543.716,-279.596 482,-196 476.193,-188.134 475.574,-181.37 482,-174 492.093,-162.426 705.294,-139.253 789.869,-130.477"/>
<polygon fill="midnightblue" stroke="midnightblue" points="790.401,-133.941 799.989,-129.432 789.682,-126.978 790.401,-133.941"/>
</g>
<!-- Node6 -->
<g id="node11" class="node"><title>Node6</title>
<polygon fill="white" stroke="#bfbfbf" points="488.5,-0.5 488.5,-21.5 541.5,-21.5 541.5,-0.5 488.5,-0.5"/>
<text text-anchor="middle" x="515" y="-8.5" font-family="Helvetica,sans-Serif" font-size="10.00">QString</text>
</g>
<!-- Node1&#45;&gt;Node6 -->
<g id="edge128" class="edge"><title>Node1&#45;&gt;Node6</title>
<path fill="none" stroke="midnightblue" d="M981.352,-358.265C828.332,-354.089 135,-330.348 135,-243 135,-243 135,-243 135,-127 135,-55.6946 382.852,-23.9037 478.218,-14.3107"/>
<polygon fill="midnightblue" stroke="midnightblue" points="478.668,-17.7835 488.279,-13.3246 477.985,-10.8169 478.668,-17.7835"/>
</g>
<!-- Node9 -->
<g id="node17" class="node"><title>Node9</title>
<polygon fill="white" stroke="#bfbfbf" points="1178.5,-58.5 1178.5,-79.5 1233.5,-79.5 1233.5,-58.5 1178.5,-58.5"/>
<text text-anchor="middle" x="1206" y="-66.5" font-family="Helvetica,sans-Serif" font-size="10.00">QDebug</text>
</g>
<!-- Node1&#45;&gt;Node9 -->
<g id="edge132" class="edge"><title>Node1&#45;&gt;Node9</title>
<path fill="none" stroke="midnightblue" d="M1040.81,-356.47C1131.03,-348.001 1395,-316.908 1395,-243 1395,-243 1395,-243 1395,-185 1395,-149.77 1298.41,-105.628 1243.33,-83.3201"/>
<polygon fill="midnightblue" stroke="midnightblue" points="1244.47,-80.0076 1233.89,-79.5448 1241.87,-86.5074 1244.47,-80.0076"/>
</g>
<!-- Node11 -->
<g id="node21" class="node"><title>Node11</title>
<a xlink:href="dimensionsmain_8h.htm" target="_top" xlink:title="dimensionsmain.h">
<polygon fill="white" stroke="black" points="960.5,-290.5 960.5,-311.5 1061.5,-311.5 1061.5,-290.5 960.5,-290.5"/>
<text text-anchor="middle" x="1011" y="-298.5" font-family="Helvetica,sans-Serif" font-size="10.00">dimensionsmain.h</text>
</a>
</g>
<!-- Node1&#45;&gt;Node11 -->
<g id="edge20" class="edge"><title>Node1&#45;&gt;Node11</title>
<path fill="none" stroke="midnightblue" d="M1011,-348.362C1011,-340.922 1011,-330.743 1011,-321.728"/>
<polygon fill="midnightblue" stroke="midnightblue" points="1014.5,-321.571 1011,-311.571 1007.5,-321.571 1014.5,-321.571"/>
</g>
<!-- Node38 -->
<g id="node103" class="node"><title>Node38</title>
<polygon fill="white" stroke="#bfbfbf" points="1423,-290.5 1423,-311.5 1579,-311.5 1579,-290.5 1423,-290.5"/>
<text text-anchor="middle" x="1501" y="-298.5" font-family="Helvetica,sans-Serif" font-size="10.00">QGraphicsSceneMouseEvent</text>
</g>
<!-- Node1&#45;&gt;Node38 -->
<g id="edge130" class="edge"><title>Node1&#45;&gt;Node38</title>
<path fill="none" stroke="midnightblue" d="M1040.96,-355.477C1107.28,-347.676 1271.51,-328.338 1409,-312 1410.12,-311.867 1411.24,-311.733 1412.38,-311.599"/>
<polygon fill="midnightblue" stroke="midnightblue" points="1413.19,-315.027 1422.7,-310.369 1412.36,-308.076 1413.19,-315.027"/>
</g>
<!-- Node3 -->
<g id="node5" class="node"><title>Node3</title>
<polygon fill="white" stroke="#bfbfbf" points="1251,-58.5 1251,-79.5 1349,-79.5 1349,-58.5 1251,-58.5"/>
<text text-anchor="middle" x="1300" y="-66.5" font-family="Helvetica,sans-Serif" font-size="10.00">QGraphicsObject</text>
</g>
<!-- Node2&#45;&gt;Node3 -->
<g id="edge4" class="edge"><title>Node2&#45;&gt;Node3</title>
<path fill="none" stroke="midnightblue" d="M848.116,-124.93C910.975,-119.4 1085.18,-103.207 1240.78,-80.0952"/>
<polygon fill="midnightblue" stroke="midnightblue" points="1241.63,-83.507 1251,-78.5629 1240.59,-76.5843 1241.63,-83.507"/>
</g>
<!-- Node4 -->
<g id="node7" class="node"><title>Node4</title>
<polygon fill="white" stroke="#bfbfbf" points="998,-0.5 998,-21.5 1044,-21.5 1044,-0.5 998,-0.5"/>
<text text-anchor="middle" x="1021" y="-8.5" font-family="Helvetica,sans-Serif" font-size="10.00">QUuid</text>
</g>
<!-- Node2&#45;&gt;Node4 -->
<g id="edge6" class="edge"><title>Node2&#45;&gt;Node4</title>
<path fill="none" stroke="midnightblue" d="M835.204,-116.306C850.935,-101.707 880.911,-75.3717 910,-58 934.885,-43.1389 965.334,-30.6009 988.043,-22.2223"/>
<polygon fill="midnightblue" stroke="midnightblue" points="989.355,-25.4696 997.572,-18.7818 986.978,-18.8856 989.355,-25.4696"/>
</g>
<!-- Node5 -->
<g id="node9" class="node"><title>Node5</title>
<polygon fill="white" stroke="#bfbfbf" points="428.5,-58.5 428.5,-79.5 487.5,-79.5 487.5,-58.5 428.5,-58.5"/>
<text text-anchor="middle" x="458" y="-66.5" font-family="Helvetica,sans-Serif" font-size="10.00">QPointer</text>
</g>
<!-- Node2&#45;&gt;Node5 -->
<g id="edge8" class="edge"><title>Node2&#45;&gt;Node5</title>
<path fill="none" stroke="midnightblue" d="M799.986,-123.194C738.319,-113.422 573.904,-87.3673 497.744,-75.2982"/>
<polygon fill="midnightblue" stroke="midnightblue" points="498.027,-71.7995 487.603,-73.6911 496.932,-78.7132 498.027,-71.7995"/>
</g>
<!-- Node2&#45;&gt;Node6 -->
<g id="edge10" class="edge"><title>Node2&#45;&gt;Node6</title>
<path fill="none" stroke="midnightblue" d="M822.9,-116.471C820.697,-101.066 814.261,-72.6317 796,-58 758.902,-28.2748 619.094,-16.6905 551.73,-12.7633"/>
<polygon fill="midnightblue" stroke="midnightblue" points="551.747,-9.25884 541.567,-12.1971 551.357,-16.248 551.747,-9.25884"/>
</g>
<!-- Node7 -->
<g id="node13" class="node"><title>Node7</title>
<polygon fill="white" stroke="#bfbfbf" points="678.5,-58.5 678.5,-79.5 719.5,-79.5 719.5,-58.5 678.5,-58.5"/>
<text text-anchor="middle" x="699" y="-66.5" font-family="Helvetica,sans-Serif" font-size="10.00">QList</text>
</g>
<!-- Node2&#45;&gt;Node7 -->
<g id="edge12" class="edge"><title>Node2&#45;&gt;Node7</title>
<path fill="none" stroke="midnightblue" d="M801.363,-116.497C781.139,-107.113 751.357,-93.2938 729.125,-82.9781"/>
<polygon fill="midnightblue" stroke="midnightblue" points="730.351,-79.6885 719.807,-78.6543 727.405,-86.0383 730.351,-79.6885"/>
</g>
<!-- Node8 -->
<g id="node15" class="node"><title>Node8</title>
<polygon fill="white" stroke="#bfbfbf" points="918.5,-58.5 918.5,-79.5 971.5,-79.5 971.5,-58.5 918.5,-58.5"/>
<text text-anchor="middle" x="945" y="-66.5" font-family="Helvetica,sans-Serif" font-size="10.00">QRectF</text>
</g>
<!-- Node2&#45;&gt;Node8 -->
<g id="edge14" class="edge"><title>Node2&#45;&gt;Node8</title>
<path fill="none" stroke="midnightblue" d="M845.912,-116.497C864.811,-107.438 892.331,-94.2462 913.576,-84.0628"/>
<polygon fill="midnightblue" stroke="midnightblue" points="915.337,-87.0999 922.842,-79.6212 912.311,-80.7876 915.337,-87.0999"/>
</g>
<!-- Node2&#45;&gt;Node9 -->
<g id="edge16" class="edge"><title>Node2&#45;&gt;Node9</title>
<path fill="none" stroke="midnightblue" d="M848.186,-123.328C912.799,-113.517 1089.83,-86.6378 1168.02,-74.7662"/>
<polygon fill="midnightblue" stroke="midnightblue" points="1169.02,-78.1556 1178.38,-73.194 1167.97,-71.2349 1169.02,-78.1556"/>
</g>
<!-- Node10 -->
<g id="node19" class="node"><title>Node10</title>
<polygon fill="white" stroke="#bfbfbf" points="737,-58.5 737,-79.5 787,-79.5 787,-58.5 737,-58.5"/>
<text text-anchor="middle" x="762" y="-66.5" font-family="Helvetica,sans-Serif" font-size="10.00">QHash</text>
</g>
<!-- Node2&#45;&gt;Node10 -->
<g id="edge18" class="edge"><title>Node2&#45;&gt;Node10</title>
<path fill="none" stroke="midnightblue" d="M812.628,-116.362C803.714,-108.023 791.121,-96.2418 780.724,-86.5162"/>
<polygon fill="midnightblue" stroke="midnightblue" points="782.993,-83.8463 773.3,-79.5707 778.211,-88.9582 782.993,-83.8463"/>
</g>
<!-- Node11&#45;&gt;Node4 -->
<g id="edge126" class="edge"><title>Node11&#45;&gt;Node4</title>
<path fill="none" stroke="midnightblue" d="M1061.66,-292.658C1197.89,-268.238 1554.05,-190.171 1436,-58 1410.68,-29.6528 1148.46,-16.2121 1054.37,-12.2756"/>
<polygon fill="midnightblue" stroke="midnightblue" points="1054.4,-8.77398 1044.26,-11.8625 1054.11,-15.7681 1054.4,-8.77398"/>
</g>
<!-- Node11&#45;&gt;Node5 -->
<g id="edge122" class="edge"><title>Node11&#45;&gt;Node5</title>
<path fill="none" stroke="midnightblue" d="M960.26,-296.886C810.101,-284.201 375.832,-243.663 335,-196 319.758,-178.208 335.544,-134.79 352,-116 361.35,-105.324 392.552,-92.1522 418.701,-82.4712"/>
<polygon fill="midnightblue" stroke="midnightblue" points="420.213,-85.6459 428.419,-78.9443 417.825,-79.0658 420.213,-85.6459"/>
</g>
<!-- Node12 -->
<g id="node23" class="node"><title>Node12</title>
<a xlink:href="dimensionstypes_8h.htm" target="_top" xlink:title="dimensionstypes.h">
<polygon fill="white" stroke="black" points="1263,-174.5 1263,-195.5 1367,-195.5 1367,-174.5 1263,-174.5"/>
<text text-anchor="middle" x="1315" y="-182.5" font-family="Helvetica,sans-Serif" font-size="10.00">dimensionstypes.h</text>
</a>
</g>
<!-- Node11&#45;&gt;Node12 -->
<g id="edge22" class="edge"><title>Node11&#45;&gt;Node12</title>
<path fill="none" stroke="midnightblue" d="M1038.78,-290.398C1093.74,-269.428 1216.33,-222.649 1278.03,-199.107"/>
<polygon fill="midnightblue" stroke="midnightblue" points="1279.3,-202.37 1287.39,-195.535 1276.8,-195.83 1279.3,-202.37"/>
</g>
<!-- Node13 -->
<g id="node25" class="node"><title>Node13</title>
<a xlink:href="quicklaunchbar_8h.htm" target="_top" xlink:title="quicklaunchbar.h">
<polygon fill="white" stroke="black" points="847.5,-232.5 847.5,-253.5 942.5,-253.5 942.5,-232.5 847.5,-232.5"/>
<text text-anchor="middle" x="895" y="-240.5" font-family="Helvetica,sans-Serif" font-size="10.00">quicklaunchbar.h</text>
</a>
</g>
<!-- Node11&#45;&gt;Node13 -->
<g id="edge24" class="edge"><title>Node11&#45;&gt;Node13</title>
<path fill="none" stroke="midnightblue" d="M989.993,-290.497C971.957,-281.479 945.73,-268.365 925.401,-258.201"/>
<polygon fill="midnightblue" stroke="midnightblue" points="926.752,-254.963 916.242,-253.621 923.621,-261.224 926.752,-254.963"/>
</g>
<!-- Node23 -->
<g id="node57" class="node"><title>Node23</title>
<polygon fill="white" stroke="#bfbfbf" points="365,-58.5 365,-79.5 411,-79.5 411,-58.5 365,-58.5"/>
<text text-anchor="middle" x="388" y="-66.5" font-family="Helvetica,sans-Serif" font-size="10.00">QMap</text>
</g>
<!-- Node11&#45;&gt;Node23 -->
<g id="edge124" class="edge"><title>Node11&#45;&gt;Node23</title>
<path fill="none" stroke="midnightblue" d="M960.37,-299.41C839.067,-295.189 534.66,-282.058 437,-254 383.123,-238.521 354.132,-243.892 325,-196 315.393,-180.206 324.293,-135.231 335,-116 341.637,-104.08 352.475,-93.6645 362.626,-85.6885"/>
<polygon fill="midnightblue" stroke="midnightblue" points="364.924,-88.3422 370.884,-79.5828 360.762,-82.7135 364.924,-88.3422"/>
</g>
<!-- Node33 -->
<g id="node87" class="node"><title>Node33</title>
<a xlink:href="Window_8h.htm" target="_top" xlink:title="Window.h">
<polygon fill="white" stroke="black" points="1499,-116.5 1499,-137.5 1561,-137.5 1561,-116.5 1499,-116.5"/>
<text text-anchor="middle" x="1530" y="-124.5" font-family="Helvetica,sans-Serif" font-size="10.00">Window.h</text>
</a>
</g>
<!-- Node11&#45;&gt;Node33 -->
<g id="edge108" class="edge"><title>Node11&#45;&gt;Node33</title>
<path fill="none" stroke="midnightblue" d="M1061.54,-297.012C1146.72,-289.857 1315.05,-273.727 1371,-254 1417.65,-237.551 1427.71,-227.319 1466,-196 1484.61,-180.781 1502.97,-160.265 1515.22,-145.567"/>
<polygon fill="midnightblue" stroke="midnightblue" points="1518.05,-147.626 1521.68,-137.67 1512.64,-143.193 1518.05,-147.626"/>
</g>
<!-- Node13&#45;&gt;Node4 -->
<g id="edge92" class="edge"><title>Node13&#45;&gt;Node4</title>
<path fill="none" stroke="midnightblue" d="M942.851,-238.414C998.192,-232.283 1091.61,-219.376 1169,-196 1229.95,-177.589 1242.22,-164.747 1300,-138 1353.76,-113.117 1388.52,-130.179 1420,-80 1425.2,-71.7172 1426.5,-65.3072 1420,-58 1395.81,-30.7988 1145.8,-16.7087 1054.31,-12.4331"/>
<polygon fill="midnightblue" stroke="midnightblue" points="1054.36,-8.93185 1044.21,-11.9712 1054.04,-15.9245 1054.36,-8.93185"/>
</g>
<!-- Node13&#45;&gt;Node5 -->
<g id="edge94" class="edge"><title>Node13&#45;&gt;Node5</title>
<path fill="none" stroke="midnightblue" d="M847.14,-242.501C720.039,-240.681 381.433,-232.429 348,-196 311.818,-156.575 383.98,-108.437 427.787,-84.3191"/>
<polygon fill="midnightblue" stroke="midnightblue" points="429.506,-87.3684 436.655,-79.5489 426.19,-81.2037 429.506,-87.3684"/>
</g>
<!-- Node13&#45;&gt;Node7 -->
<g id="edge100" class="edge"><title>Node13&#45;&gt;Node7</title>
<path fill="none" stroke="midnightblue" d="M887.938,-232.471C878.144,-218.292 859.436,-192.686 840,-174 820.519,-155.271 812.699,-154.107 791,-138 767.058,-120.227 739.739,-99.7077 721.132,-85.6951"/>
<polygon fill="midnightblue" stroke="midnightblue" points="723.088,-82.7866 712.996,-79.5639 718.876,-88.3772 723.088,-82.7866"/>
</g>
<!-- Node13&#45;&gt;Node12 -->
<g id="edge52" class="edge"><title>Node13&#45;&gt;Node12</title>
<path fill="none" stroke="midnightblue" d="M942.595,-237.19C1010.63,-228.769 1139.55,-212.381 1249,-196 1250.26,-195.811 1251.53,-195.619 1252.82,-195.423"/>
<polygon fill="midnightblue" stroke="midnightblue" points="1253.45,-198.867 1262.79,-193.866 1252.37,-191.951 1253.45,-198.867"/>
</g>
<!-- Node14 -->
<g id="node27" class="node"><title>Node14</title>
<a xlink:href="thingpaintable_8h.htm" target="_top" xlink:title="thingpaintable.h">
<polygon fill="white" stroke="black" points="886.5,-174.5 886.5,-195.5 977.5,-195.5 977.5,-174.5 886.5,-174.5"/>
<text text-anchor="middle" x="932" y="-182.5" font-family="Helvetica,sans-Serif" font-size="10.00">thingpaintable.h</text>
</a>
</g>
<!-- Node13&#45;&gt;Node14 -->
<g id="edge26" class="edge"><title>Node13&#45;&gt;Node14</title>
<path fill="none" stroke="midnightblue" d="M901.786,-232.362C906.793,-224.513 913.745,-213.616 919.718,-204.253"/>
<polygon fill="midnightblue" stroke="midnightblue" points="922.829,-205.884 925.257,-195.571 916.928,-202.119 922.829,-205.884"/>
</g>
<!-- Node15 -->
<g id="node32" class="node"><title>Node15</title>
<a xlink:href="pixmapobject_8h.htm" target="_top" xlink:title="pixmapobject.h">
<polygon fill="white" stroke="black" points="1061,-116.5 1061,-137.5 1147,-137.5 1147,-116.5 1061,-116.5"/>
<text text-anchor="middle" x="1104" y="-124.5" font-family="Helvetica,sans-Serif" font-size="10.00">pixmapobject.h</text>
</a>
</g>
<!-- Node13&#45;&gt;Node15 -->
<g id="edge34" class="edge"><title>Node13&#45;&gt;Node15</title>
<path fill="none" stroke="midnightblue" d="M942.598,-239.407C999.424,-234.014 1089.4,-221.596 1110,-196 1120.9,-182.454 1117.57,-162.191 1112.61,-147.124"/>
<polygon fill="midnightblue" stroke="midnightblue" points="1115.85,-145.807 1109.07,-137.67 1109.3,-148.262 1115.85,-145.807"/>
</g>
<!-- Node18 -->
<g id="node39" class="node"><title>Node18</title>
<polygon fill="white" stroke="#bfbfbf" points="1366.5,-58.5 1366.5,-79.5 1411.5,-79.5 1411.5,-58.5 1366.5,-58.5"/>
<text text-anchor="middle" x="1389" y="-66.5" font-family="Helvetica,sans-Serif" font-size="10.00">QSize</text>
</g>
<!-- Node13&#45;&gt;Node18 -->
<g id="edge98" class="edge"><title>Node13&#45;&gt;Node18</title>
<path fill="none" stroke="midnightblue" d="M942.783,-236.984C990.543,-230.134 1065.65,-217.076 1128,-196 1217.77,-165.657 1316.49,-111.366 1362.57,-84.6814"/>
<polygon fill="midnightblue" stroke="midnightblue" points="1364.45,-87.6371 1371.32,-79.5761 1360.92,-81.5902 1364.45,-87.6371"/>
</g>
<!-- Node19 -->
<g id="node41" class="node"><title>Node19</title>
<a xlink:href="pixmap9tileobject_8h.htm" target="_top" xlink:title="pixmap9tileobject.h">
<polygon fill="white" stroke="black" points="995,-174.5 995,-195.5 1101,-195.5 1101,-174.5 995,-174.5"/>
<text text-anchor="middle" x="1048" y="-182.5" font-family="Helvetica,sans-Serif" font-size="10.00">pixmap9tileobject.h</text>
</a>
</g>
<!-- Node13&#45;&gt;Node19 -->
<g id="edge44" class="edge"><title>Node13&#45;&gt;Node19</title>
<path fill="none" stroke="midnightblue" d="M922.707,-232.497C947.326,-223.164 983.517,-209.445 1010.68,-199.147"/>
<polygon fill="midnightblue" stroke="midnightblue" points="1012.13,-202.341 1020.24,-195.523 1009.65,-195.795 1012.13,-202.341"/>
</g>
<!-- Node20 -->
<g id="node47" class="node"><title>Node20</title>
<a xlink:href="appmonitor_8h.htm" target="_top" xlink:title="appmonitor.h">
<polygon fill="white" stroke="black" points="357,-174.5 357,-195.5 435,-195.5 435,-174.5 357,-174.5"/>
<text text-anchor="middle" x="396" y="-182.5" font-family="Helvetica,sans-Serif" font-size="10.00">appmonitor.h</text>
</a>
</g>
<!-- Node13&#45;&gt;Node20 -->
<g id="edge54" class="edge"><title>Node13&#45;&gt;Node20</title>
<path fill="none" stroke="midnightblue" d="M847.279,-237.787C770.353,-229.335 614.181,-211.974 482,-196 470.211,-194.575 457.521,-192.984 445.604,-191.464"/>
<polygon fill="midnightblue" stroke="midnightblue" points="445.738,-187.953 435.374,-190.153 444.848,-194.896 445.738,-187.953"/>
</g>
<!-- Node29 -->
<g id="node77" class="node"><title>Node29</title>
<polygon fill="white" stroke="#bfbfbf" points="490.5,-174.5 490.5,-195.5 545.5,-195.5 545.5,-174.5 490.5,-174.5"/>
<text text-anchor="middle" x="518" y="-182.5" font-family="Helvetica,sans-Serif" font-size="10.00">QPointF</text>
</g>
<!-- Node13&#45;&gt;Node29 -->
<g id="edge96" class="edge"><title>Node13&#45;&gt;Node29</title>
<path fill="none" stroke="midnightblue" d="M847.415,-238.861C783.06,-232.732 664.645,-219.581 555.634,-196.124"/>
<polygon fill="midnightblue" stroke="midnightblue" points="556.308,-192.688 545.791,-193.971 554.813,-199.527 556.308,-192.688"/>
</g>
<!-- Node30 -->
<g id="node81" class="node"><title>Node30</title>
<polygon fill="white" stroke="#bfbfbf" points="563,-174.5 563,-195.5 607,-195.5 607,-174.5 563,-174.5"/>
<text text-anchor="middle" x="585" y="-182.5" font-family="Helvetica,sans-Serif" font-size="10.00">QPair</text>
</g>
<!-- Node13&#45;&gt;Node30 -->
<g id="edge102" class="edge"><title>Node13&#45;&gt;Node30</title>
<path fill="none" stroke="midnightblue" d="M847.077,-237.506C793.148,-230.754 702.886,-217.743 617.103,-195.959"/>
<polygon fill="midnightblue" stroke="midnightblue" points="617.764,-192.516 607.207,-193.402 616.013,-199.293 617.764,-192.516"/>
</g>
<!-- Node31 -->
<g id="node83" class="node"><title>Node31</title>
<polygon fill="white" stroke="#bfbfbf" points="625,-174.5 625,-195.5 761,-195.5 761,-174.5 625,-174.5"/>
<text text-anchor="middle" x="693" y="-182.5" font-family="Helvetica,sans-Serif" font-size="10.00">QParallelAnimationGroup</text>
</g>
<!-- Node13&#45;&gt;Node31 -->
<g id="edge104" class="edge"><title>Node13&#45;&gt;Node31</title>
<path fill="none" stroke="midnightblue" d="M858.419,-232.497C825.06,-222.918 775.61,-208.72 739.466,-198.342"/>
<polygon fill="midnightblue" stroke="midnightblue" points="740.227,-194.919 729.649,-195.523 738.295,-201.647 740.227,-194.919"/>
</g>
<!-- Node32 -->
<g id="node85" class="node"><title>Node32</title>
<polygon fill="white" stroke="#bfbfbf" points="779,-174.5 779,-195.5 831,-195.5 831,-174.5 779,-174.5"/>
<text text-anchor="middle" x="805" y="-182.5" font-family="Helvetica,sans-Serif" font-size="10.00">QTimer</text>
</g>
<!-- Node13&#45;&gt;Node32 -->
<g id="edge106" class="edge"><title>Node13&#45;&gt;Node32</title>
<path fill="none" stroke="midnightblue" d="M878.493,-232.362C864.918,-223.614 845.467,-211.079 829.985,-201.101"/>
<polygon fill="midnightblue" stroke="midnightblue" points="831.704,-198.046 821.403,-195.571 827.912,-203.93 831.704,-198.046"/>
</g>
<!-- Node14&#45;&gt;Node2 -->
<g id="edge28" class="edge"><title>Node14&#45;&gt;Node2</title>
<path fill="none" stroke="midnightblue" d="M912.442,-174.497C895.802,-165.56 871.673,-152.602 852.82,-142.477"/>
<polygon fill="midnightblue" stroke="midnightblue" points="854.243,-139.269 843.777,-137.621 850.931,-145.436 854.243,-139.269"/>
</g>
<!-- Node14&#45;&gt;Node6 -->
<g id="edge30" class="edge"><title>Node14&#45;&gt;Node6</title>
<path fill="none" stroke="midnightblue" d="M925.947,-174.238C911.178,-149.102 870.621,-86.5141 818,-58 772.592,-33.394 621.942,-19.087 551.678,-13.6028"/>
<polygon fill="midnightblue" stroke="midnightblue" points="551.754,-10.0986 541.517,-12.8278 551.222,-17.0783 551.754,-10.0986"/>
</g>
<!-- Node14&#45;&gt;Node8 -->
<g id="edge32" class="edge"><title>Node14&#45;&gt;Node8</title>
<path fill="none" stroke="midnightblue" d="M933.2,-174.295C935.347,-155.131 939.884,-114.654 942.664,-89.8434"/>
<polygon fill="midnightblue" stroke="midnightblue" points="946.168,-90.0068 943.803,-79.6792 939.211,-89.2272 946.168,-90.0068"/>
</g>
<!-- Node15&#45;&gt;Node4 -->
<g id="edge40" class="edge"><title>Node15&#45;&gt;Node4</title>
<path fill="none" stroke="midnightblue" d="M1114.6,-116.069C1127.02,-101.89 1144.42,-76.7524 1132,-58 1114.86,-32.1258 1080.32,-20.4567 1054.3,-15.2178"/>
<polygon fill="midnightblue" stroke="midnightblue" points="1054.91,-11.7711 1044.45,-13.4532 1053.67,-18.6615 1054.91,-11.7711"/>
</g>
<!-- Node16 -->
<g id="node34" class="node"><title>Node16</title>
<polygon fill="white" stroke="#bfbfbf" points="807.5,-0.5 807.5,-21.5 862.5,-21.5 862.5,-0.5 807.5,-0.5"/>
<text text-anchor="middle" x="835" y="-8.5" font-family="Helvetica,sans-Serif" font-size="10.00">QObject</text>
</g>
<!-- Node15&#45;&gt;Node16 -->
<g id="edge36" class="edge"><title>Node15&#45;&gt;Node16</title>
<path fill="none" stroke="midnightblue" d="M1092.91,-116.248C1076.68,-101.087 1044.9,-73.5471 1013,-58 967.303,-35.7308 909.682,-22.991 872.591,-16.5354"/>
<polygon fill="midnightblue" stroke="midnightblue" points="873.142,-13.0789 862.701,-14.8785 871.985,-19.9827 873.142,-13.0789"/>
</g>
<!-- Node17 -->
<g id="node36" class="node"><title>Node17</title>
<polygon fill="white" stroke="#bfbfbf" points="1064.5,-58.5 1064.5,-79.5 1123.5,-79.5 1123.5,-58.5 1064.5,-58.5"/>
<text text-anchor="middle" x="1094" y="-66.5" font-family="Helvetica,sans-Serif" font-size="10.00">QPixmap</text>
</g>
<!-- Node15&#45;&gt;Node17 -->
<g id="edge38" class="edge"><title>Node15&#45;&gt;Node17</title>
<path fill="none" stroke="midnightblue" d="M1102.17,-116.362C1100.87,-108.84 1099.09,-98.5187 1097.52,-89.4308"/>
<polygon fill="midnightblue" stroke="midnightblue" points="1100.97,-88.8306 1095.82,-79.5707 1094.07,-90.02 1100.97,-88.8306"/>
</g>
<!-- Node15&#45;&gt;Node18 -->
<g id="edge42" class="edge"><title>Node15&#45;&gt;Node18</title>
<path fill="none" stroke="midnightblue" d="M1147.05,-119.882C1204.7,-110.214 1304.9,-92.9036 1356.5,-80.0563"/>
<polygon fill="midnightblue" stroke="midnightblue" points="1357.65,-83.3744 1366.44,-77.4685 1355.88,-76.6001 1357.65,-83.3744"/>
</g>
<!-- Node19&#45;&gt;Node8 -->
<g id="edge48" class="edge"><title>Node19&#45;&gt;Node8</title>
<path fill="none" stroke="midnightblue" d="M1030.16,-174.488C1016.62,-165.892 998.16,-152.776 985,-138 971.831,-123.214 960.893,-103.416 953.803,-88.8204"/>
<polygon fill="midnightblue" stroke="midnightblue" points="956.933,-87.2504 949.529,-79.6718 950.591,-90.2133 956.933,-87.2504"/>
</g>
<!-- Node19&#45;&gt;Node15 -->
<g id="edge46" class="edge"><title>Node19&#45;&gt;Node15</title>
<path fill="none" stroke="midnightblue" d="M1058.27,-174.362C1066.24,-166.104 1077.47,-154.472 1086.81,-144.803"/>
<polygon fill="midnightblue" stroke="midnightblue" points="1089.37,-147.196 1093.79,-137.571 1084.33,-142.334 1089.37,-147.196"/>
</g>
<!-- Node19&#45;&gt;Node16 -->
<g id="edge50" class="edge"><title>Node19&#45;&gt;Node16</title>
<path fill="none" stroke="midnightblue" d="M1045.27,-174.398C1038.49,-150.147 1018.57,-90.2438 980,-58 949.356,-32.3806 904.441,-20.6331 872.737,-15.3057"/>
<polygon fill="midnightblue" stroke="midnightblue" points="872.947,-11.7969 862.531,-13.7344 871.882,-18.7154 872.947,-11.7969"/>
</g>
<!-- Node20&#45;&gt;Node4 -->
<g id="edge88" class="edge"><title>Node20&#45;&gt;Node4</title>
<path fill="none" stroke="midnightblue" d="M435.274,-176.824C496.536,-164.018 608.276,-140.434 612,-138 648.762,-113.974 632.294,-80.5152 670,-58 697.023,-41.8638 905.398,-21.4698 987.708,-13.9542"/>
<polygon fill="midnightblue" stroke="midnightblue" points="988.136,-17.4299 997.779,-13.0416 987.504,-10.4585 988.136,-17.4299"/>
</g>
<!-- Node20&#45;&gt;Node5 -->
<g id="edge84" class="edge"><title>Node20&#45;&gt;Node5</title>
<path fill="none" stroke="midnightblue" d="M399.423,-174.354C404.082,-160.482 413.1,-135.677 424,-116 429.433,-106.192 436.571,-96.0266 442.903,-87.6688"/>
<polygon fill="midnightblue" stroke="midnightblue" points="445.722,-89.7447 449.105,-79.7044 440.199,-85.4439 445.722,-89.7447"/>
</g>
<!-- Node20&#45;&gt;Node7 -->
<g id="edge86" class="edge"><title>Node20&#45;&gt;Node7</title>
<path fill="none" stroke="midnightblue" d="M435.04,-176.715C439.738,-175.772 444.474,-174.847 449,-174 544.665,-156.108 586.882,-196.048 665,-138 680.764,-126.286 689.636,-105.26 694.333,-89.4866"/>
<polygon fill="midnightblue" stroke="midnightblue" points="697.779,-90.1471 696.951,-79.5846 691.011,-88.3579 697.779,-90.1471"/>
</g>
<!-- Node20&#45;&gt;Node16 -->
<g id="edge82" class="edge"><title>Node20&#45;&gt;Node16</title>
<path fill="none" stroke="midnightblue" d="M386.637,-174.344C366.828,-150.499 324.946,-92.2505 356,-58 385.501,-25.4625 689.634,-14.6682 797.398,-11.8492"/>
<polygon fill="midnightblue" stroke="midnightblue" points="797.585,-15.3457 807.493,-11.5936 797.408,-8.34794 797.585,-15.3457"/>
</g>
<!-- Node21 -->
<g id="node49" class="node"><title>Node21</title>
<a xlink:href="externalapp_8h.htm" target="_top" xlink:title="externalapp.h">
<polygon fill="white" stroke="black" points="542.5,-58.5 542.5,-79.5 623.5,-79.5 623.5,-58.5 542.5,-58.5"/>
<text text-anchor="middle" x="583" y="-66.5" font-family="Helvetica,sans-Serif" font-size="10.00">externalapp.h</text>
</a>
</g>
<!-- Node20&#45;&gt;Node21 -->
<g id="edge56" class="edge"><title>Node20&#45;&gt;Node21</title>
<path fill="none" stroke="midnightblue" d="M435.444,-176.279C492.484,-163.578 591.508,-141.153 594,-138 604.879,-124.237 599.955,-104.002 593.612,-89.0011"/>
<polygon fill="midnightblue" stroke="midnightblue" points="596.605,-87.1435 589.17,-79.5956 590.276,-90.1326 596.605,-87.1435"/>
</g>
<!-- Node22 -->
<g id="node53" class="node"><title>Node22</title>
<a xlink:href="webosapp_8h.htm" target="_top" xlink:title="webosapp.h">
<polygon fill="white" stroke="black" points="512.5,-116.5 512.5,-137.5 585.5,-137.5 585.5,-116.5 512.5,-116.5"/>
<text text-anchor="middle" x="549" y="-124.5" font-family="Helvetica,sans-Serif" font-size="10.00">webosapp.h</text>
</a>
</g>
<!-- Node20&#45;&gt;Node22 -->
<g id="edge62" class="edge"><title>Node20&#45;&gt;Node22</title>
<path fill="none" stroke="midnightblue" d="M423.707,-174.497C448.326,-165.164 484.517,-151.445 511.68,-141.147"/>
<polygon fill="midnightblue" stroke="midnightblue" points="513.131,-144.341 521.241,-137.523 510.65,-137.795 513.131,-144.341"/>
</g>
<!-- Node24 -->
<g id="node60" class="node"><title>Node24</title>
<a xlink:href="blacklist_8h.htm" target="_top" xlink:title="blacklist.h">
<polygon fill="white" stroke="black" points="163,-116.5 163,-137.5 225,-137.5 225,-116.5 163,-116.5"/>
<text text-anchor="middle" x="194" y="-124.5" font-family="Helvetica,sans-Serif" font-size="10.00">blacklist.h</text>
</a>
</g>
<!-- Node20&#45;&gt;Node24 -->
<g id="edge72" class="edge"><title>Node20&#45;&gt;Node24</title>
<path fill="none" stroke="midnightblue" d="M359.419,-174.497C324.293,-164.411 271.327,-149.203 234.84,-138.726"/>
<polygon fill="midnightblue" stroke="midnightblue" points="235.592,-135.301 225.015,-135.905 233.66,-142.029 235.592,-135.301"/>
</g>
<!-- Node28 -->
<g id="node73" class="node"><title>Node28</title>
<polygon fill="white" stroke="#bfbfbf" points="433,-116.5 433,-137.5 495,-137.5 495,-116.5 433,-116.5"/>
<text text-anchor="middle" x="464" y="-124.5" font-family="Helvetica,sans-Serif" font-size="10.00">QBitArray</text>
</g>
<!-- Node20&#45;&gt;Node28 -->
<g id="edge90" class="edge"><title>Node20&#45;&gt;Node28</title>
<path fill="none" stroke="midnightblue" d="M408.472,-174.362C418.345,-165.941 432.333,-154.011 443.798,-144.231"/>
<polygon fill="midnightblue" stroke="midnightblue" points="446.27,-146.723 451.607,-137.571 441.727,-141.397 446.27,-146.723"/>
</g>
<!-- Node21&#45;&gt;Node4 -->
<g id="edge60" class="edge"><title>Node21&#45;&gt;Node4</title>
<path fill="none" stroke="midnightblue" d="M623.627,-60.3654C628.13,-59.5153 632.656,-58.7071 637,-58 766.045,-36.993 920.871,-20.7576 987.655,-14.1836"/>
<polygon fill="midnightblue" stroke="midnightblue" points="988.358,-17.6317 997.97,-13.1764 987.678,-10.6648 988.358,-17.6317"/>
</g>
<!-- Node21&#45;&gt;Node16 -->
<g id="edge58" class="edge"><title>Node21&#45;&gt;Node16</title>
<path fill="none" stroke="midnightblue" d="M623.768,-59.6168C671.685,-48.5883 750.561,-30.4343 797.169,-19.7072"/>
<polygon fill="midnightblue" stroke="midnightblue" points="798.202,-23.0609 807.162,-17.4071 796.632,-16.2393 798.202,-23.0609"/>
</g>
<!-- Node22&#45;&gt;Node5 -->
<g id="edge70" class="edge"><title>Node22&#45;&gt;Node5</title>
<path fill="none" stroke="midnightblue" d="M532.309,-116.362C518.584,-107.614 498.916,-95.0786 483.263,-85.1015"/>
<polygon fill="midnightblue" stroke="midnightblue" points="484.899,-81.994 474.585,-79.5707 481.137,-87.8969 484.899,-81.994"/>
</g>
<!-- Node22&#45;&gt;Node6 -->
<g id="edge66" class="edge"><title>Node22&#45;&gt;Node6</title>
<path fill="none" stroke="midnightblue" d="M545.421,-116.211C542.301,-106.709 537.708,-92.4799 534,-80 529.197,-63.8354 524.147,-45.417 520.461,-31.6777"/>
<polygon fill="midnightblue" stroke="midnightblue" points="523.784,-30.5569 517.828,-21.7947 517.02,-32.3587 523.784,-30.5569"/>
</g>
<!-- Node22&#45;&gt;Node21 -->
<g id="edge64" class="edge"><title>Node22&#45;&gt;Node21</title>
<path fill="none" stroke="midnightblue" d="M555.236,-116.362C559.837,-108.513 566.225,-97.6159 571.714,-88.2527"/>
<polygon fill="midnightblue" stroke="midnightblue" points="574.766,-89.9677 576.803,-79.5707 568.727,-86.4276 574.766,-89.9677"/>
</g>
<!-- Node22&#45;&gt;Node23 -->
<g id="edge68" class="edge"><title>Node22&#45;&gt;Node23</title>
<path fill="none" stroke="midnightblue" d="M519.844,-116.497C491.96,-106.451 449.969,-91.3241 420.9,-80.8522"/>
<polygon fill="midnightblue" stroke="midnightblue" points="421.796,-77.4547 411.201,-77.3582 419.423,-84.0404 421.796,-77.4547"/>
</g>
<!-- Node25 -->
<g id="node62" class="node"><title>Node25</title>
<a xlink:href="staticmatchlist_8h.htm" target="_top" xlink:title="staticmatchlist.h">
<polygon fill="white" stroke="black" points="16.5,-58.5 16.5,-79.5 107.5,-79.5 107.5,-58.5 16.5,-58.5"/>
<text text-anchor="middle" x="62" y="-66.5" font-family="Helvetica,sans-Serif" font-size="10.00">staticmatchlist.h</text>
</a>
</g>
<!-- Node24&#45;&gt;Node25 -->
<g id="edge74" class="edge"><title>Node24&#45;&gt;Node25</title>
<path fill="none" stroke="midnightblue" d="M170.096,-116.497C149.2,-107.315 118.644,-93.8889 95.345,-83.6516"/>
<polygon fill="midnightblue" stroke="midnightblue" points="96.7356,-80.4397 86.1724,-79.6212 93.9197,-86.8483 96.7356,-80.4397"/>
</g>
<!-- Node25&#45;&gt;Node6 -->
<g id="edge80" class="edge"><title>Node25&#45;&gt;Node6</title>
<path fill="none" stroke="midnightblue" d="M107.688,-60.1759C112.179,-59.4005 116.674,-58.6606 121,-58 251.842,-38.0208 408.222,-21.5566 478.102,-14.5854"/>
<polygon fill="midnightblue" stroke="midnightblue" points="478.559,-18.0574 488.165,-13.5877 477.869,-11.0915 478.559,-18.0574"/>
</g>
<!-- Node26 -->
<g id="node64" class="node"><title>Node26</title>
<a xlink:href="filterlist_8h.htm" target="_top" xlink:title="filterlist.h">
<polygon fill="white" stroke="black" points="0,-0.5 0,-21.5 58,-21.5 58,-0.5 0,-0.5"/>
<text text-anchor="middle" x="29" y="-8.5" font-family="Helvetica,sans-Serif" font-size="10.00">filterlist.h</text>
</a>
</g>
<!-- Node25&#45;&gt;Node26 -->
<g id="edge76" class="edge"><title>Node25&#45;&gt;Node26</title>
<path fill="none" stroke="midnightblue" d="M55.9473,-58.3619C51.5281,-50.5949 45.4104,-39.8426 40.1209,-30.5458"/>
<polygon fill="midnightblue" stroke="midnightblue" points="43.0017,-28.5315 35.0143,-21.5707 36.9176,-31.9932 43.0017,-28.5315"/>
</g>
<!-- Node27 -->
<g id="node66" class="node"><title>Node27</title>
<polygon fill="white" stroke="#bfbfbf" points="75.5,-0.5 75.5,-21.5 116.5,-21.5 116.5,-0.5 75.5,-0.5"/>
<text text-anchor="middle" x="96" y="-8.5" font-family="Helvetica,sans-Serif" font-size="10.00">QSet</text>
</g>
<!-- Node25&#45;&gt;Node27 -->
<g id="edge78" class="edge"><title>Node25&#45;&gt;Node27</title>
<path fill="none" stroke="midnightblue" d="M68.2361,-58.3619C72.8371,-50.5131 79.2252,-39.6159 84.7139,-30.2527"/>
<polygon fill="midnightblue" stroke="midnightblue" points="87.7656,-31.9677 89.8034,-21.5707 81.7267,-28.4276 87.7656,-31.9677"/>
</g>
<!-- Node33&#45;&gt;Node3 -->
<g id="edge118" class="edge"><title>Node33&#45;&gt;Node3</title>
<path fill="none" stroke="midnightblue" d="M1498.98,-119.178C1461.25,-109.663 1396.99,-93.4593 1351.73,-82.0445"/>
<polygon fill="midnightblue" stroke="midnightblue" points="1352.36,-78.5932 1341.8,-79.5417 1350.64,-85.3807 1352.36,-78.5932"/>
</g>
<!-- Node33&#45;&gt;Node18 -->
<g id="edge120" class="edge"><title>Node33&#45;&gt;Node18</title>
<path fill="none" stroke="midnightblue" d="M1504.47,-116.497C1481.07,-106.871 1446.32,-92.5796 1421.06,-82.1887"/>
<polygon fill="midnightblue" stroke="midnightblue" points="1422.13,-78.8444 1411.55,-78.277 1419.47,-85.3181 1422.13,-78.8444"/>
</g>
<!-- Node34 -->
<g id="node89" class="node"><title>Node34</title>
<a xlink:href="Common_8h.htm" target="_top" xlink:title="Common.h">
<polygon fill="white" stroke="black" points="1562.5,-58.5 1562.5,-79.5 1629.5,-79.5 1629.5,-58.5 1562.5,-58.5"/>
<text text-anchor="middle" x="1596" y="-66.5" font-family="Helvetica,sans-Serif" font-size="10.00">Common.h</text>
</a>
</g>
<!-- Node33&#45;&gt;Node34 -->
<g id="edge110" class="edge"><title>Node33&#45;&gt;Node34</title>
<path fill="none" stroke="midnightblue" d="M1542.11,-116.362C1551.69,-107.941 1565.26,-96.0105 1576.39,-86.2308"/>
<polygon fill="midnightblue" stroke="midnightblue" points="1578.77,-88.8009 1583.97,-79.5707 1574.15,-83.5427 1578.77,-88.8009"/>
</g>
<!-- Node35 -->
<g id="node91" class="node"><title>Node35</title>
<polygon fill="white" stroke="#bfbfbf" points="1647,-58.5 1647,-79.5 1697,-79.5 1697,-58.5 1647,-58.5"/>
<text text-anchor="middle" x="1672" y="-66.5" font-family="Helvetica,sans-Serif" font-size="10.00">stdint.h</text>
</g>
<!-- Node33&#45;&gt;Node35 -->
<g id="edge112" class="edge"><title>Node33&#45;&gt;Node35</title>
<path fill="none" stroke="midnightblue" d="M1555.72,-116.497C1578.58,-107.159 1612.19,-93.4312 1637.4,-83.1323"/>
<polygon fill="midnightblue" stroke="midnightblue" points="1639.02,-86.252 1646.95,-79.2305 1636.37,-79.7717 1639.02,-86.252"/>
</g>
<!-- Node36 -->
<g id="node93" class="node"><title>Node36</title>
<polygon fill="white" stroke="#bfbfbf" points="1714.5,-58.5 1714.5,-79.5 1757.5,-79.5 1757.5,-58.5 1714.5,-58.5"/>
<text text-anchor="middle" x="1736" y="-66.5" font-family="Helvetica,sans-Serif" font-size="10.00">string</text>
</g>
<!-- Node33&#45;&gt;Node36 -->
<g id="edge114" class="edge"><title>Node33&#45;&gt;Node36</title>
<path fill="none" stroke="midnightblue" d="M1561.08,-119.603C1594.51,-111.452 1649.37,-97.506 1704.82,-80.2026"/>
<polygon fill="midnightblue" stroke="midnightblue" points="1705.97,-83.5125 1714.45,-77.1663 1703.86,-76.8367 1705.97,-83.5125"/>
</g>
<!-- Node37 -->
<g id="node95" class="node"><title>Node37</title>
<polygon fill="white" stroke="#bfbfbf" points="1504.5,-58.5 1504.5,-79.5 1545.5,-79.5 1545.5,-58.5 1504.5,-58.5"/>
<text text-anchor="middle" x="1525" y="-66.5" font-family="Helvetica,sans-Serif" font-size="10.00">glib.h</text>
</g>
<!-- Node33&#45;&gt;Node37 -->
<g id="edge116" class="edge"><title>Node33&#45;&gt;Node37</title>
<path fill="none" stroke="midnightblue" d="M1529.08,-116.362C1528.44,-108.922 1527.56,-98.7427 1526.79,-89.7276"/>
<polygon fill="midnightblue" stroke="midnightblue" points="1530.26,-89.2331 1525.91,-79.5707 1523.28,-89.8343 1530.26,-89.2331"/>
</g>
</g>
</svg>
