<?xml version="1.0" encoding="UTF-8" standalone="no"?>
<!DOCTYPE svg PUBLIC "-//W3C//DTD SVG 1.1//EN"
 "http://www.w3.org/Graphics/SVG/1.1/DTD/svg11.dtd">
<!-- Generated by graphviz version 2.26.3 (20100126.1600)
 -->
<!-- Title: G Pages: 1 -->
<svg width="5252pt" height="204pt"
 viewBox="0.00 0.00 5252.11 204.00" xmlns="http://www.w3.org/2000/svg" xmlns:xlink="http://www.w3.org/1999/xlink">
<g id="graph1" class="graph" transform="scale(1 1) rotate(0) translate(4 200)">
<title>G</title>
<polygon fill="white" stroke="white" points="-4,5 -4,-200 5249.11,-200 5249.11,5 -4,5"/>
<!-- Node1 -->
<g id="node1" class="node"><title>Node1</title>
<polygon fill="#bfbfbf" stroke="black" points="2242,-174.5 2242,-195.5 2314,-195.5 2314,-174.5 2242,-174.5"/>
<text text-anchor="middle" x="2278" y="-182.5" font-family="Helvetica,sans-Serif" font-size="10.00">TouchPlot.h</text>
</g>
<!-- Node2 -->
<g id="node3" class="node"><title>Node2</title>
<a xlink:href="WindowServer_8h.htm" target="_top" xlink:title="WindowServer.h">
<polygon fill="white" stroke="black" points="2231,-116.5 2231,-137.5 2325,-137.5 2325,-116.5 2231,-116.5"/>
<text text-anchor="middle" x="2278" y="-124.5" font-family="Helvetica,sans-Serif" font-size="10.00">WindowServer.h</text>
</a>
</g>
<!-- Node1&#45;&gt;Node2 -->
<g id="edge2" class="edge"><title>Node1&#45;&gt;Node2</title>
<path fill="none" stroke="midnightblue" d="M2278,-164.191C2278,-155.168 2278,-144.994 2278,-137.571"/>
<polygon fill="midnightblue" stroke="midnightblue" points="2274.5,-164.362 2278,-174.362 2281.5,-164.362 2274.5,-164.362"/>
</g>
<!-- Node15 -->
<g id="node29" class="node"><title>Node15</title>
<a xlink:href="WindowServer_8cpp.htm" target="_top" xlink:title="WindowServer.cpp">
<polygon fill="white" stroke="black" points="-0.5,-0.5 -0.5,-21.5 104.5,-21.5 104.5,-0.5 -0.5,-0.5"/>
<text text-anchor="middle" x="52" y="-8.5" font-family="Helvetica,sans-Serif" font-size="10.00">WindowServer.cpp</text>
</a>
</g>
<!-- Node1&#45;&gt;Node15 -->
<g id="edge124" class="edge"><title>Node1&#45;&gt;Node15</title>
<path fill="none" stroke="midnightblue" d="M2231.68,-184.047C1940.7,-177.88 370.747,-141.925 167,-80 126.233,-67.6096 84.9848,-37.6745 64.7755,-21.6096"/>
<polygon fill="midnightblue" stroke="midnightblue" points="2231.81,-187.55 2241.88,-184.262 2231.95,-180.552 2231.81,-187.55"/>
</g>
<!-- Node50 -->
<g id="node111" class="node"><title>Node50</title>
<a xlink:href="TouchPlot_8cpp.htm" target="_top" xlink:title="TouchPlot.cpp">
<polygon fill="white" stroke="black" points="2342.5,-116.5 2342.5,-137.5 2425.5,-137.5 2425.5,-116.5 2342.5,-116.5"/>
<text text-anchor="middle" x="2384" y="-124.5" font-family="Helvetica,sans-Serif" font-size="10.00">TouchPlot.cpp</text>
</a>
</g>
<!-- Node1&#45;&gt;Node50 -->
<g id="edge122" class="edge"><title>Node1&#45;&gt;Node50</title>
<path fill="none" stroke="midnightblue" d="M2306.3,-169.517C2324.75,-159.419 2348.36,-146.503 2364.68,-137.571"/>
<polygon fill="midnightblue" stroke="midnightblue" points="2304.53,-166.491 2297.44,-174.362 2307.89,-172.632 2304.53,-166.491"/>
</g>
<!-- Node3 -->
<g id="node5" class="node"><title>Node3</title>
<a xlink:href="AmbientLightSensor_8cpp.htm" target="_top" xlink:title="AmbientLightSensor.cpp">
<polygon fill="white" stroke="black" points="5083.5,-58.5 5083.5,-79.5 5214.5,-79.5 5214.5,-58.5 5083.5,-58.5"/>
<text text-anchor="middle" x="5149" y="-66.5" font-family="Helvetica,sans-Serif" font-size="10.00">AmbientLightSensor.cpp</text>
</a>
</g>
<!-- Node2&#45;&gt;Node3 -->
<g id="edge4" class="edge"><title>Node2&#45;&gt;Node3</title>
<path fill="none" stroke="midnightblue" d="M2335.25,-116.072C2956.29,-53.8474 4471.06,-128.631 5075,-80 5077.72,-79.7811 5080.49,-79.524 5083.29,-79.2366"/>
<polygon fill="midnightblue" stroke="midnightblue" points="2334.86,-112.594 2325.27,-117.092 2335.57,-119.557 2334.86,-112.594"/>
</g>
<!-- Node4 -->
<g id="node7" class="node"><title>Node4</title>
<a xlink:href="ApplicationManager_8cpp.htm" target="_top" xlink:title="ApplicationManager.cpp">
<polygon fill="white" stroke="black" points="121.5,-0.5 121.5,-21.5 252.5,-21.5 252.5,-0.5 121.5,-0.5"/>
<text text-anchor="middle" x="187" y="-8.5" font-family="Helvetica,sans-Serif" font-size="10.00">ApplicationManager.cpp</text>
</a>
</g>
<!-- Node2&#45;&gt;Node4 -->
<g id="edge6" class="edge"><title>Node2&#45;&gt;Node4</title>
<path fill="none" stroke="midnightblue" d="M2220.59,-126.446C1931.62,-123.534 643.169,-109.011 467,-80 434.403,-74.6321 427.918,-66.5196 396,-58 342.999,-43.853 281.691,-30.4054 239.243,-21.5477"/>
<polygon fill="midnightblue" stroke="midnightblue" points="2220.81,-129.949 2230.84,-126.549 2220.88,-122.949 2220.81,-129.949"/>
</g>
<!-- Node5 -->
<g id="node9" class="node"><title>Node5</title>
<a xlink:href="DisplayManager_8cpp.htm" target="_top" xlink:title="DisplayManager.cpp">
<polygon fill="white" stroke="black" points="885.5,-58.5 885.5,-79.5 998.5,-79.5 998.5,-58.5 885.5,-58.5"/>
<text text-anchor="middle" x="942" y="-66.5" font-family="Helvetica,sans-Serif" font-size="10.00">DisplayManager.cpp</text>
</a>
</g>
<!-- Node2&#45;&gt;Node5 -->
<g id="edge8" class="edge"><title>Node2&#45;&gt;Node5</title>
<path fill="none" stroke="midnightblue" d="M2220.85,-125.881C2006.09,-121.52 1247.43,-104.683 1007,-80 1004.27,-79.7195 1001.48,-79.3949 998.661,-79.0369"/>
<polygon fill="midnightblue" stroke="midnightblue" points="2220.89,-129.382 2230.96,-126.085 2221.03,-122.384 2220.89,-129.382"/>
</g>
<!-- Node6 -->
<g id="node11" class="node"><title>Node6</title>
<a xlink:href="DisplayStates_8cpp.htm" target="_top" xlink:title="DisplayStates.cpp">
<polygon fill="white" stroke="black" points="1015.5,-58.5 1015.5,-79.5 1116.5,-79.5 1116.5,-58.5 1015.5,-58.5"/>
<text text-anchor="middle" x="1066" y="-66.5" font-family="Helvetica,sans-Serif" font-size="10.00">DisplayStates.cpp</text>
</a>
</g>
<!-- Node2&#45;&gt;Node6 -->
<g id="edge10" class="edge"><title>Node2&#45;&gt;Node6</title>
<path fill="none" stroke="midnightblue" d="M2220.85,-125.758C2019.12,-121.204 1340.97,-104.407 1125,-80 1122.31,-79.6958 1119.55,-79.3399 1116.78,-78.946"/>
<polygon fill="midnightblue" stroke="midnightblue" points="2220.86,-129.259 2230.94,-125.984 2221.02,-122.261 2220.86,-129.259"/>
</g>
<!-- Node7 -->
<g id="node13" class="node"><title>Node7</title>
<a xlink:href="HostArm_8cpp.htm" target="_top" xlink:title="HostArm.cpp">
<polygon fill="white" stroke="black" points="1133.5,-58.5 1133.5,-79.5 1210.5,-79.5 1210.5,-58.5 1133.5,-58.5"/>
<text text-anchor="middle" x="1172" y="-66.5" font-family="Helvetica,sans-Serif" font-size="10.00">HostArm.cpp</text>
</a>
</g>
<!-- Node2&#45;&gt;Node7 -->
<g id="edge12" class="edge"><title>Node2&#45;&gt;Node7</title>
<path fill="none" stroke="midnightblue" d="M2220.73,-125.86C2029.68,-121.836 1415.13,-107.065 1219,-80 1216.26,-79.622 1213.45,-79.1586 1210.62,-78.6382"/>
<polygon fill="midnightblue" stroke="midnightblue" points="2220.77,-129.361 2230.85,-126.071 2220.92,-122.363 2220.77,-129.361"/>
</g>
<!-- Node8 -->
<g id="node15" class="node"><title>Node8</title>
<a xlink:href="HostWindow_8cpp.htm" target="_top" xlink:title="HostWindow.cpp">
<polygon fill="white" stroke="black" points="1227.5,-58.5 1227.5,-79.5 1322.5,-79.5 1322.5,-58.5 1227.5,-58.5"/>
<text text-anchor="middle" x="1275" y="-66.5" font-family="Helvetica,sans-Serif" font-size="10.00">HostWindow.cpp</text>
</a>
</g>
<!-- Node2&#45;&gt;Node8 -->
<g id="edge14" class="edge"><title>Node2&#45;&gt;Node8</title>
<path fill="none" stroke="midnightblue" d="M2220.65,-125.241C2043.21,-119.629 1504.72,-101.26 1331,-80 1328.25,-79.663 1325.43,-79.2681 1322.58,-78.8321"/>
<polygon fill="midnightblue" stroke="midnightblue" points="2220.71,-128.745 2230.82,-125.562 2220.93,-121.748 2220.71,-128.745"/>
</g>
<!-- Node9 -->
<g id="node17" class="node"><title>Node9</title>
<a xlink:href="Preferences_8cpp.htm" target="_top" xlink:title="Preferences.cpp">
<polygon fill="white" stroke="black" points="1340,-58.5 1340,-79.5 1434,-79.5 1434,-58.5 1340,-58.5"/>
<text text-anchor="middle" x="1387" y="-66.5" font-family="Helvetica,sans-Serif" font-size="10.00">Preferences.cpp</text>
</a>
</g>
<!-- Node2&#45;&gt;Node9 -->
<g id="edge16" class="edge"><title>Node2&#45;&gt;Node9</title>
<path fill="none" stroke="midnightblue" d="M2220.54,-126.486C2084.76,-124.68 1733.63,-116.547 1443,-80 1440.15,-79.6415 1437.23,-79.2231 1434.28,-78.7629"/>
<polygon fill="midnightblue" stroke="midnightblue" points="2220.67,-129.988 2230.71,-126.615 2220.76,-122.989 2220.67,-129.988"/>
</g>
<!-- Node10 -->
<g id="node19" class="node"><title>Node10</title>
<a xlink:href="SystemService_8cpp.htm" target="_top" xlink:title="SystemService.cpp">
<polygon fill="white" stroke="black" points="1452,-58.5 1452,-79.5 1558,-79.5 1558,-58.5 1452,-58.5"/>
<text text-anchor="middle" x="1505" y="-66.5" font-family="Helvetica,sans-Serif" font-size="10.00">SystemService.cpp</text>
</a>
</g>
<!-- Node2&#45;&gt;Node10 -->
<g id="edge18" class="edge"><title>Node2&#45;&gt;Node10</title>
<path fill="none" stroke="midnightblue" d="M2220.68,-125.342C2099.58,-121.37 1808.94,-109.369 1567,-80 1564.07,-79.6443 1561.07,-79.2413 1558.04,-78.8049"/>
<polygon fill="midnightblue" stroke="midnightblue" points="2220.72,-128.845 2230.83,-125.669 2220.95,-121.848 2220.72,-128.845"/>
</g>
<!-- Node11 -->
<g id="node21" class="node"><title>Node11</title>
<a xlink:href="SystemUiController_8cpp.htm" target="_top" xlink:title="SystemUiController.cpp">
<polygon fill="white" stroke="black" points="269.5,-0.5 269.5,-21.5 396.5,-21.5 396.5,-0.5 269.5,-0.5"/>
<text text-anchor="middle" x="333" y="-8.5" font-family="Helvetica,sans-Serif" font-size="10.00">SystemUiController.cpp</text>
</a>
</g>
<!-- Node2&#45;&gt;Node11 -->
<g id="edge20" class="edge"><title>Node2&#45;&gt;Node11</title>
<path fill="none" stroke="midnightblue" d="M2220.38,-126.344C1940.05,-123.03 725.636,-107.204 559,-80 484.704,-67.8708 400.8,-37.6779 359.235,-21.5493"/>
<polygon fill="midnightblue" stroke="midnightblue" points="2220.68,-129.848 2230.72,-126.466 2220.77,-122.848 2220.68,-129.848"/>
</g>
<!-- Node12 -->
<g id="node23" class="node"><title>Node12</title>
<a xlink:href="WSOverlayScreenShotAnimation_8cpp.htm" target="_top" xlink:title="WSOverlayScreenShotAnimation.cpp">
<polygon fill="white" stroke="black" points="1575.5,-58.5 1575.5,-79.5 1766.5,-79.5 1766.5,-58.5 1575.5,-58.5"/>
<text text-anchor="middle" x="1671" y="-66.5" font-family="Helvetica,sans-Serif" font-size="10.00">WSOverlayScreenShotAnimation.cpp</text>
</a>
</g>
<!-- Node2&#45;&gt;Node12 -->
<g id="edge22" class="edge"><title>Node2&#45;&gt;Node12</title>
<path fill="none" stroke="midnightblue" d="M2220.74,-121.879C2127.37,-113.477 1936.51,-96.0868 1775,-80 1772.29,-79.7301 1769.54,-79.454 1766.77,-79.1735"/>
<polygon fill="midnightblue" stroke="midnightblue" points="2220.55,-125.376 2230.83,-122.786 2221.18,-118.404 2220.55,-125.376"/>
</g>
<!-- Node13 -->
<g id="node25" class="node"><title>Node13</title>
<a xlink:href="Window_8cpp.htm" target="_top" xlink:title="Window.cpp">
<polygon fill="white" stroke="black" points="1784,-58.5 1784,-79.5 1858,-79.5 1858,-58.5 1784,-58.5"/>
<text text-anchor="middle" x="1821" y="-66.5" font-family="Helvetica,sans-Serif" font-size="10.00">Window.cpp</text>
</a>
</g>
<!-- Node2&#45;&gt;Node13 -->
<g id="edge24" class="edge"><title>Node2&#45;&gt;Node13</title>
<path fill="none" stroke="midnightblue" d="M2220.57,-122.638C2140.83,-116.081 1992.23,-102.05 1867,-80 1864.09,-79.4874 1861.09,-78.9014 1858.08,-78.2729"/>
<polygon fill="midnightblue" stroke="midnightblue" points="2220.64,-126.155 2230.89,-123.476 2221.21,-119.178 2220.64,-126.155"/>
</g>
<!-- Node14 -->
<g id="node27" class="node"><title>Node14</title>
<a xlink:href="HostWindowDataOpenGLTextureShared_8cpp.htm" target="_top" xlink:title="HostWindowDataOpenGLTextureShared.cpp">
<polygon fill="white" stroke="black" points="1875.5,-58.5 1875.5,-79.5 2104.5,-79.5 2104.5,-58.5 1875.5,-58.5"/>
<text text-anchor="middle" x="1990" y="-66.5" font-family="Helvetica,sans-Serif" font-size="10.00">HostWindowDataOpenGLTextureShared.cpp</text>
</a>
</g>
<!-- Node2&#45;&gt;Node14 -->
<g id="edge26" class="edge"><title>Node2&#45;&gt;Node14</title>
<path fill="none" stroke="midnightblue" d="M2220.72,-115.465C2168.84,-105.016 2093.02,-89.7473 2042.63,-79.5996"/>
<polygon fill="midnightblue" stroke="midnightblue" points="2220.27,-118.944 2230.77,-117.487 2221.65,-112.082 2220.27,-118.944"/>
</g>
<!-- Node2&#45;&gt;Node15 -->
<g id="edge28" class="edge"><title>Node2&#45;&gt;Node15</title>
<path fill="none" stroke="midnightblue" d="M2220.74,-126.749C1911.39,-125.247 446.336,-116.259 248,-80 182.882,-68.0953 110.412,-37.8051 74.5879,-21.6033"/>
<polygon fill="midnightblue" stroke="midnightblue" points="2220.82,-130.249 2230.83,-126.797 2220.85,-123.249 2220.82,-130.249"/>
</g>
<!-- Node16 -->
<g id="node31" class="node"><title>Node16</title>
<a xlink:href="IMEController_8cpp.htm" target="_top" xlink:title="IMEController.cpp">
<polygon fill="white" stroke="black" points="2121.5,-58.5 2121.5,-79.5 2222.5,-79.5 2222.5,-58.5 2121.5,-58.5"/>
<text text-anchor="middle" x="2172" y="-66.5" font-family="Helvetica,sans-Serif" font-size="10.00">IMEController.cpp</text>
</a>
</g>
<!-- Node2&#45;&gt;Node16 -->
<g id="edge30" class="edge"><title>Node2&#45;&gt;Node16</title>
<path fill="none" stroke="midnightblue" d="M2249.7,-111.517C2231.25,-101.419 2207.64,-88.5032 2191.32,-79.5707"/>
<polygon fill="midnightblue" stroke="midnightblue" points="2248.11,-114.632 2258.56,-116.362 2251.47,-108.491 2248.11,-114.632"/>
</g>
<!-- Node17 -->
<g id="node33" class="node"><title>Node17</title>
<a xlink:href="IMEView_8cpp.htm" target="_top" xlink:title="IMEView.cpp">
<polygon fill="white" stroke="black" points="2239.5,-58.5 2239.5,-79.5 2316.5,-79.5 2316.5,-58.5 2239.5,-58.5"/>
<text text-anchor="middle" x="2278" y="-66.5" font-family="Helvetica,sans-Serif" font-size="10.00">IMEView.cpp</text>
</a>
</g>
<!-- Node2&#45;&gt;Node17 -->
<g id="edge32" class="edge"><title>Node2&#45;&gt;Node17</title>
<path fill="none" stroke="midnightblue" d="M2278,-106.191C2278,-97.1684 2278,-86.9941 2278,-79.5707"/>
<polygon fill="midnightblue" stroke="midnightblue" points="2274.5,-106.362 2278,-116.362 2281.5,-106.362 2274.5,-106.362"/>
</g>
<!-- Node18 -->
<g id="node35" class="node"><title>Node18</title>
<a xlink:href="CardHostWindow_8cpp.htm" target="_top" xlink:title="CardHostWindow.cpp">
<polygon fill="white" stroke="black" points="413.5,-0.5 413.5,-21.5 532.5,-21.5 532.5,-0.5 413.5,-0.5"/>
<text text-anchor="middle" x="473" y="-8.5" font-family="Helvetica,sans-Serif" font-size="10.00">CardHostWindow.cpp</text>
</a>
</g>
<!-- Node2&#45;&gt;Node18 -->
<g id="edge34" class="edge"><title>Node2&#45;&gt;Node18</title>
<path fill="none" stroke="midnightblue" d="M2220.62,-126.743C1946.82,-125.331 779.991,-117.164 622,-80 571.218,-68.0546 516.899,-37.9283 490.05,-21.7182"/>
<polygon fill="midnightblue" stroke="midnightblue" points="2220.71,-130.243 2230.73,-126.794 2220.75,-123.243 2220.71,-130.243"/>
</g>
<!-- Node19 -->
<g id="node37" class="node"><title>Node19</title>
<a xlink:href="CardWindow_8cpp.htm" target="_top" xlink:title="CardWindow.cpp">
<polygon fill="white" stroke="black" points="549.5,-0.5 549.5,-21.5 646.5,-21.5 646.5,-0.5 549.5,-0.5"/>
<text text-anchor="middle" x="598" y="-8.5" font-family="Helvetica,sans-Serif" font-size="10.00">CardWindow.cpp</text>
</a>
</g>
<!-- Node2&#45;&gt;Node19 -->
<g id="edge36" class="edge"><title>Node2&#45;&gt;Node19</title>
<path fill="none" stroke="midnightblue" d="M2220.36,-126.732C1939.08,-125.25 721.072,-116.723 650,-80 625.613,-67.3992 609.52,-37.5545 602.325,-21.5583"/>
<polygon fill="midnightblue" stroke="midnightblue" points="2220.73,-130.234 2230.75,-126.786 2220.76,-123.234 2220.73,-130.234"/>
</g>
<!-- Node20 -->
<g id="node39" class="node"><title>Node20</title>
<a xlink:href="CardWindowManager_8cpp.htm" target="_top" xlink:title="CardWindowManager.cpp">
<polygon fill="white" stroke="black" points="2334,-58.5 2334,-79.5 2474,-79.5 2474,-58.5 2334,-58.5"/>
<text text-anchor="middle" x="2404" y="-66.5" font-family="Helvetica,sans-Serif" font-size="10.00">CardWindowManager.cpp</text>
</a>
</g>
<!-- Node2&#45;&gt;Node20 -->
<g id="edge38" class="edge"><title>Node2&#45;&gt;Node20</title>
<path fill="none" stroke="midnightblue" d="M2310.14,-112.206C2332.24,-102.031 2361.08,-88.7567 2380.93,-79.6212"/>
<polygon fill="midnightblue" stroke="midnightblue" points="2308.44,-109.136 2300.82,-116.497 2311.36,-115.494 2308.44,-109.136"/>
</g>
<!-- Node21 -->
<g id="node41" class="node"><title>Node21</title>
<a xlink:href="EmulatedCardWindow_8cpp.htm" target="_top" xlink:title="EmulatedCardWindow.cpp">
<polygon fill="white" stroke="black" points="664,-0.5 664,-21.5 804,-21.5 804,-0.5 664,-0.5"/>
<text text-anchor="middle" x="734" y="-8.5" font-family="Helvetica,sans-Serif" font-size="10.00">EmulatedCardWindow.cpp</text>
</a>
</g>
<!-- Node2&#45;&gt;Node21 -->
<g id="edge40" class="edge"><title>Node2&#45;&gt;Node21</title>
<path fill="none" stroke="midnightblue" d="M2220.78,-126.422C1936.31,-123.415 686.776,-108.594 659,-80 637.919,-58.2983 678.465,-34.8021 707.713,-21.5917"/>
<polygon fill="midnightblue" stroke="midnightblue" points="2220.84,-129.923 2230.88,-126.528 2220.92,-122.923 2220.84,-129.923"/>
</g>
<!-- Node22 -->
<g id="node43" class="node"><title>Node22</title>
<a xlink:href="DockModeClock_8cpp.htm" target="_top" xlink:title="DockModeClock.cpp">
<polygon fill="white" stroke="black" points="2491.5,-58.5 2491.5,-79.5 2604.5,-79.5 2604.5,-58.5 2491.5,-58.5"/>
<text text-anchor="middle" x="2548" y="-66.5" font-family="Helvetica,sans-Serif" font-size="10.00">DockModeClock.cpp</text>
</a>
</g>
<!-- Node2&#45;&gt;Node22 -->
<g id="edge42" class="edge"><title>Node2&#45;&gt;Node22</title>
<path fill="none" stroke="midnightblue" d="M2335.06,-114.742C2383.61,-104.313 2452.61,-89.491 2498.77,-79.5749"/>
<polygon fill="midnightblue" stroke="midnightblue" points="2334.07,-111.375 2325.03,-116.897 2335.54,-118.219 2334.07,-111.375"/>
</g>
<!-- Node23 -->
<g id="node45" class="node"><title>Node23</title>
<a xlink:href="DockModeLaunchPoint_8cpp.htm" target="_top" xlink:title="DockModeLaunchPoint.cpp">
<polygon fill="white" stroke="black" points="2622,-58.5 2622,-79.5 2768,-79.5 2768,-58.5 2622,-58.5"/>
<text text-anchor="middle" x="2695" y="-66.5" font-family="Helvetica,sans-Serif" font-size="10.00">DockModeLaunchPoint.cpp</text>
</a>
</g>
<!-- Node2&#45;&gt;Node23 -->
<g id="edge44" class="edge"><title>Node2&#45;&gt;Node23</title>
<path fill="none" stroke="midnightblue" d="M2334.91,-115.93C2459.07,-95.948 2492.19,-95.8975 2613,-80 2615.85,-79.6252 2618.75,-79.2418 2621.68,-78.8535"/>
<polygon fill="midnightblue" stroke="midnightblue" points="2334.32,-112.478 2325.01,-117.533 2335.44,-119.388 2334.32,-112.478"/>
</g>
<!-- Node24 -->
<g id="node47" class="node"><title>Node24</title>
<a xlink:href="DockModeMenuManager_8cpp.htm" target="_top" xlink:title="DockModeMenuManager.cpp">
<polygon fill="white" stroke="black" points="822,-0.5 822,-21.5 978,-21.5 978,-0.5 822,-0.5"/>
<text text-anchor="middle" x="900" y="-8.5" font-family="Helvetica,sans-Serif" font-size="10.00">DockModeMenuManager.cpp</text>
</a>
</g>
<!-- Node2&#45;&gt;Node24 -->
<g id="edge46" class="edge"><title>Node2&#45;&gt;Node24</title>
<path fill="none" stroke="midnightblue" d="M2220.6,-126.411C1936.64,-123.367 694.621,-108.439 667,-80 660.188,-72.986 660.807,-65.5667 667,-58 677.079,-45.6853 759.603,-31.1473 823.612,-21.5361"/>
<polygon fill="midnightblue" stroke="midnightblue" points="2220.65,-129.912 2230.68,-126.519 2220.72,-122.912 2220.65,-129.912"/>
</g>
<!-- Node25 -->
<g id="node49" class="node"><title>Node25</title>
<a xlink:href="DockModeWindow_8cpp.htm" target="_top" xlink:title="DockModeWindow.cpp">
<polygon fill="white" stroke="black" points="1559.5,-0.5 1559.5,-21.5 1684.5,-21.5 1684.5,-0.5 1559.5,-0.5"/>
<text text-anchor="middle" x="1622" y="-8.5" font-family="Helvetica,sans-Serif" font-size="10.00">DockModeWindow.cpp</text>
</a>
</g>
<!-- Node2&#45;&gt;Node25 -->
<g id="edge48" class="edge"><title>Node2&#45;&gt;Node25</title>
<path fill="none" stroke="midnightblue" d="M2220.73,-126.169C1959.41,-122.244 891.906,-104.716 868,-80 861.202,-72.9718 861.27,-65.0936 868,-58 920.303,-2.86788 1475.41,-29.8275 1551,-22 1553.73,-21.7173 1556.51,-21.402 1559.32,-21.0618"/>
<polygon fill="midnightblue" stroke="midnightblue" points="2220.71,-129.669 2230.77,-126.319 2220.82,-122.67 2220.71,-129.669"/>
</g>
<!-- Node26 -->
<g id="node51" class="node"><title>Node26</title>
<a xlink:href="DockModeWindowManager_8cpp.htm" target="_top" xlink:title="DockModeWindowManager.cpp">
<polygon fill="white" stroke="black" points="1701.5,-0.5 1701.5,-21.5 1868.5,-21.5 1868.5,-0.5 1701.5,-0.5"/>
<text text-anchor="middle" x="1785" y="-8.5" font-family="Helvetica,sans-Serif" font-size="10.00">DockModeWindowManager.cpp</text>
</a>
</g>
<!-- Node2&#45;&gt;Node26 -->
<g id="edge50" class="edge"><title>Node2&#45;&gt;Node26</title>
<path fill="none" stroke="midnightblue" d="M2220.67,-126.155C1960.28,-122.186 900.738,-104.547 877,-80 870.203,-72.9711 870.24,-65.0647 877,-58 908.372,-25.2138 1647.77,-25.6962 1693,-22 1695.73,-21.7773 1698.49,-21.5356 1701.29,-21.2785"/>
<polygon fill="midnightblue" stroke="midnightblue" points="2220.62,-129.655 2230.67,-126.307 2220.72,-122.656 2220.62,-129.655"/>
</g>
<!-- Node27 -->
<g id="node53" class="node"><title>Node27</title>
<a xlink:href="EmergencyWindowManager_8cpp.htm" target="_top" xlink:title="EmergencyWindowManager.cpp">
<polygon fill="white" stroke="black" points="2786,-58.5 2786,-79.5 2956,-79.5 2956,-58.5 2786,-58.5"/>
<text text-anchor="middle" x="2871" y="-66.5" font-family="Helvetica,sans-Serif" font-size="10.00">EmergencyWindowManager.cpp</text>
</a>
</g>
<!-- Node2&#45;&gt;Node27 -->
<g id="edge52" class="edge"><title>Node2&#45;&gt;Node27</title>
<path fill="none" stroke="midnightblue" d="M2335.35,-115.938C2531.4,-89.2621 2583.69,-99.1593 2777,-80 2779.94,-79.7083 2782.94,-79.4032 2785.96,-79.0881"/>
<polygon fill="midnightblue" stroke="midnightblue" points="2334.72,-112.491 2325.29,-117.321 2335.68,-119.425 2334.72,-112.491"/>
</g>
<!-- Node28 -->
<g id="node55" class="node"><title>Node28</title>
<a xlink:href="WindowServerLuna_8h.htm" target="_top" xlink:title="WindowServerLuna.h">
<polygon fill="white" stroke="red" points="675.5,-58.5 675.5,-79.5 792.5,-79.5 792.5,-58.5 675.5,-58.5"/>
<text text-anchor="middle" x="734" y="-66.5" font-family="Helvetica,sans-Serif" font-size="10.00">WindowServerLuna.h</text>
</a>
</g>
<!-- Node2&#45;&gt;Node28 -->
<g id="edge54" class="edge"><title>Node2&#45;&gt;Node28</title>
<path fill="none" stroke="midnightblue" d="M2220.63,-126.087C1984.64,-122.191 1088.08,-105.957 806,-80 801.719,-79.606 797.305,-79.1227 792.869,-78.5807"/>
<polygon fill="midnightblue" stroke="midnightblue" points="2220.65,-129.588 2230.71,-126.253 2220.77,-122.589 2220.65,-129.588"/>
</g>
<!-- Node32 -->
<g id="node72" class="node"><title>Node32</title>
<a xlink:href="dimensionsglobal_8cpp.htm" target="_top" xlink:title="dimensionsglobal.cpp">
<polygon fill="white" stroke="black" points="2679.5,-0.5 2679.5,-21.5 2796.5,-21.5 2796.5,-0.5 2679.5,-0.5"/>
<text text-anchor="middle" x="2738" y="-8.5" font-family="Helvetica,sans-Serif" font-size="10.00">dimensionsglobal.cpp</text>
</a>
</g>
<!-- Node2&#45;&gt;Node32 -->
<g id="edge84" class="edge"><title>Node2&#45;&gt;Node32</title>
<path fill="none" stroke="midnightblue" d="M2335.36,-116.665C2526.09,-111.666 5195.57,-107.77 5223,-80 5229.87,-73.0431 5229.85,-64.979 5223,-58 5201.05,-35.6287 3170.35,-15.1355 2796.72,-11.5526"/>
<polygon fill="midnightblue" stroke="midnightblue" points="2335.11,-113.172 2325.27,-117.09 2335.4,-120.166 2335.11,-113.172"/>
</g>
<!-- Node33 -->
<g id="node74" class="node"><title>Node33</title>
<a xlink:href="DashboardWindowManager_8cpp.htm" target="_top" xlink:title="DashboardWindowManager.cpp">
<polygon fill="white" stroke="black" points="4402,-0.5 4402,-21.5 4570,-21.5 4570,-0.5 4402,-0.5"/>
<text text-anchor="middle" x="4486" y="-8.5" font-family="Helvetica,sans-Serif" font-size="10.00">DashboardWindowManager.cpp</text>
</a>
</g>
<!-- Node2&#45;&gt;Node33 -->
<g id="edge98" class="edge"><title>Node2&#45;&gt;Node33</title>
<path fill="none" stroke="midnightblue" d="M2335.41,-116.663C2527.16,-111.654 5211.42,-107.923 5239,-80 5245.87,-73.0434 5245.7,-65.126 5239,-58 5216.38,-33.926 4761.74,-18.606 4570.07,-13.1941"/>
<polygon fill="midnightblue" stroke="midnightblue" points="2335.11,-113.173 2325.27,-117.09 2335.4,-120.167 2335.11,-113.173"/>
</g>
<!-- Node34 -->
<g id="node77" class="node"><title>Node34</title>
<a xlink:href="dimensionslauncher_8cpp.htm" target="_top" xlink:title="dimensionslauncher.cpp">
<polygon fill="white" stroke="black" points="2974,-58.5 2974,-79.5 3104,-79.5 3104,-58.5 2974,-58.5"/>
<text text-anchor="middle" x="3039" y="-66.5" font-family="Helvetica,sans-Serif" font-size="10.00">dimensionslauncher.cpp</text>
</a>
</g>
<!-- Node2&#45;&gt;Node34 -->
<g id="edge86" class="edge"><title>Node2&#45;&gt;Node34</title>
<path fill="none" stroke="midnightblue" d="M2335.3,-115.987C2614.43,-81.4911 2688.84,-108.344 2965,-80 2967.84,-79.7083 2970.74,-79.3854 2973.67,-79.039"/>
<polygon fill="midnightblue" stroke="midnightblue" points="2334.77,-112.525 2325.28,-117.24 2335.64,-119.471 2334.77,-112.525"/>
</g>
<!-- Node35 -->
<g id="node79" class="node"><title>Node35</title>
<a xlink:href="OverlayWindowManager_8cpp.htm" target="_top" xlink:title="OverlayWindowManager.cpp">
<polygon fill="white" stroke="black" points="3121.5,-58.5 3121.5,-79.5 3274.5,-79.5 3274.5,-58.5 3121.5,-58.5"/>
<text text-anchor="middle" x="3198" y="-66.5" font-family="Helvetica,sans-Serif" font-size="10.00">OverlayWindowManager.cpp</text>
</a>
</g>
<!-- Node2&#45;&gt;Node35 -->
<g id="edge88" class="edge"><title>Node2&#45;&gt;Node35</title>
<path fill="none" stroke="midnightblue" d="M2335.29,-116.004C2679.83,-75.1602 2771.02,-109.979 3113,-80 3115.67,-79.7661 3118.38,-79.5107 3121.12,-79.238"/>
<polygon fill="midnightblue" stroke="midnightblue" points="2334.79,-112.538 2325.28,-117.203 2335.62,-119.489 2334.79,-112.538"/>
</g>
<!-- Node36 -->
<g id="node81" class="node"><title>Node36</title>
<a xlink:href="TopLevelWindowManager_8cpp.htm" target="_top" xlink:title="TopLevelWindowManager.cpp">
<polygon fill="white" stroke="black" points="3291.5,-58.5 3291.5,-79.5 3452.5,-79.5 3452.5,-58.5 3291.5,-58.5"/>
<text text-anchor="middle" x="3372" y="-66.5" font-family="Helvetica,sans-Serif" font-size="10.00">TopLevelWindowManager.cpp</text>
</a>
</g>
<!-- Node2&#45;&gt;Node36 -->
<g id="edge90" class="edge"><title>Node2&#45;&gt;Node36</title>
<path fill="none" stroke="midnightblue" d="M2335.25,-116.021C2754.97,-67.8998 2865.57,-113.652 3283,-80 3285.64,-79.7873 3288.32,-79.5544 3291.02,-79.3048"/>
<polygon fill="midnightblue" stroke="midnightblue" points="2334.81,-112.549 2325.27,-117.176 2335.61,-119.502 2334.81,-112.549"/>
</g>
<!-- Node37 -->
<g id="node83" class="node"><title>Node37</title>
<a xlink:href="AlertWindow_8cpp.htm" target="_top" xlink:title="AlertWindow.cpp">
<polygon fill="white" stroke="black" points="3469.5,-58.5 3469.5,-79.5 3564.5,-79.5 3564.5,-58.5 3469.5,-58.5"/>
<text text-anchor="middle" x="3517" y="-66.5" font-family="Helvetica,sans-Serif" font-size="10.00">AlertWindow.cpp</text>
</a>
</g>
<!-- Node2&#45;&gt;Node37 -->
<g id="edge92" class="edge"><title>Node2&#45;&gt;Node37</title>
<path fill="none" stroke="midnightblue" d="M2335.24,-116.033C2833.7,-60.527 2966.33,-136.11 3461,-80 3463.76,-79.6873 3466.58,-79.3115 3469.42,-78.89"/>
<polygon fill="midnightblue" stroke="midnightblue" points="2334.82,-112.559 2325.27,-117.155 2335.6,-119.515 2334.82,-112.559"/>
</g>
<!-- Node38 -->
<g id="node85" class="node"><title>Node38</title>
<a xlink:href="BannerMessageHandler_8cpp.htm" target="_top" xlink:title="BannerMessageHandler.cpp">
<polygon fill="white" stroke="black" points="3582,-58.5 3582,-79.5 3734,-79.5 3734,-58.5 3582,-58.5"/>
<text text-anchor="middle" x="3658" y="-66.5" font-family="Helvetica,sans-Serif" font-size="10.00">BannerMessageHandler.cpp</text>
</a>
</g>
<!-- Node2&#45;&gt;Node38 -->
<g id="edge94" class="edge"><title>Node2&#45;&gt;Node38</title>
<path fill="none" stroke="midnightblue" d="M2335.41,-116.017C2883.23,-55.5346 3027.17,-123.141 3573,-80 3575.82,-79.7772 3578.69,-79.527 3581.58,-79.2545"/>
<polygon fill="midnightblue" stroke="midnightblue" points="2334.82,-112.561 2325.27,-117.146 2335.6,-119.518 2334.82,-112.561"/>
</g>
<!-- Node39 -->
<g id="node87" class="node"><title>Node39</title>
<a xlink:href="BannerWindow_8cpp.htm" target="_top" xlink:title="BannerWindow.cpp">
<polygon fill="white" stroke="black" points="3752,-58.5 3752,-79.5 3860,-79.5 3860,-58.5 3752,-58.5"/>
<text text-anchor="middle" x="3806" y="-66.5" font-family="Helvetica,sans-Serif" font-size="10.00">BannerWindow.cpp</text>
</a>
</g>
<!-- Node2&#45;&gt;Node39 -->
<g id="edge96" class="edge"><title>Node2&#45;&gt;Node39</title>
<path fill="none" stroke="midnightblue" d="M2335.4,-116.024C2958.42,-48.3988 3123,-141.708 3743,-80 3745.87,-79.7141 3748.81,-79.3728 3751.77,-78.9903"/>
<polygon fill="midnightblue" stroke="midnightblue" points="2334.83,-112.566 2325.27,-117.134 2335.59,-119.524 2334.83,-112.566"/>
</g>
<!-- Node40 -->
<g id="node90" class="node"><title>Node40</title>
<a xlink:href="NativeAlertManager_8cpp.htm" target="_top" xlink:title="NativeAlertManager.cpp">
<polygon fill="white" stroke="black" points="3877.5,-58.5 3877.5,-79.5 4008.5,-79.5 4008.5,-58.5 3877.5,-58.5"/>
<text text-anchor="middle" x="3943" y="-66.5" font-family="Helvetica,sans-Serif" font-size="10.00">NativeAlertManager.cpp</text>
</a>
</g>
<!-- Node2&#45;&gt;Node40 -->
<g id="edge100" class="edge"><title>Node2&#45;&gt;Node40</title>
<path fill="none" stroke="midnightblue" d="M2335.3,-116.038C3014.12,-42.9024 3192.4,-137.996 3869,-80 3871.72,-79.7671 3874.49,-79.4983 3877.28,-79.2012"/>
<polygon fill="midnightblue" stroke="midnightblue" points="2334.83,-112.568 2325.27,-117.127 2335.59,-119.527 2334.83,-112.568"/>
</g>
<!-- Node41 -->
<g id="node92" class="node"><title>Node41</title>
<a xlink:href="VolumeControlAlertWindow_8cpp.htm" target="_top" xlink:title="VolumeControlAlertWindow.cpp">
<polygon fill="white" stroke="black" points="4026,-58.5 4026,-79.5 4190,-79.5 4190,-58.5 4026,-58.5"/>
<text text-anchor="middle" x="4108" y="-66.5" font-family="Helvetica,sans-Serif" font-size="10.00">VolumeControlAlertWindow.cpp</text>
</a>
</g>
<!-- Node2&#45;&gt;Node41 -->
<g id="edge102" class="edge"><title>Node2&#45;&gt;Node41</title>
<path fill="none" stroke="midnightblue" d="M2335.43,-116.026C3079.59,-36.474 3274.08,-132.718 4017,-80 4019.86,-79.7972 4022.76,-79.5686 4025.7,-79.3188"/>
<polygon fill="midnightblue" stroke="midnightblue" points="2334.84,-112.57 2325.27,-117.12 2335.59,-119.53 2334.84,-112.57"/>
</g>
<!-- Node42 -->
<g id="node94" class="node"><title>Node42</title>
<a xlink:href="MenuWindowManager_8cpp.htm" target="_top" xlink:title="MenuWindowManager.cpp">
<polygon fill="white" stroke="black" points="4207.5,-58.5 4207.5,-79.5 4350.5,-79.5 4350.5,-58.5 4207.5,-58.5"/>
<text text-anchor="middle" x="4279" y="-66.5" font-family="Helvetica,sans-Serif" font-size="10.00">MenuWindowManager.cpp</text>
</a>
</g>
<!-- Node2&#45;&gt;Node42 -->
<g id="edge104" class="edge"><title>Node2&#45;&gt;Node42</title>
<path fill="none" stroke="midnightblue" d="M2335.31,-116.043C3160.07,-28.7048 3375.81,-144.316 4199,-80 4201.66,-79.7925 4204.36,-79.5552 4207.08,-79.2937"/>
<polygon fill="midnightblue" stroke="midnightblue" points="2334.84,-112.573 2325.27,-117.113 2335.58,-119.533 2334.84,-112.573"/>
</g>
<!-- Node43 -->
<g id="node96" class="node"><title>Node43</title>
<a xlink:href="SystemMenu_8cpp.htm" target="_top" xlink:title="SystemMenu.cpp">
<polygon fill="white" stroke="black" points="4367.5,-58.5 4367.5,-79.5 4464.5,-79.5 4464.5,-58.5 4367.5,-58.5"/>
<text text-anchor="middle" x="4416" y="-66.5" font-family="Helvetica,sans-Serif" font-size="10.00">SystemMenu.cpp</text>
</a>
</g>
<!-- Node2&#45;&gt;Node43 -->
<g id="edge106" class="edge"><title>Node2&#45;&gt;Node43</title>
<path fill="none" stroke="midnightblue" d="M2335.5,-116.026C3230.89,-22.0346 3467.13,-173.277 4359,-80 4361.71,-79.7169 4364.48,-79.3712 4367.27,-78.9792"/>
<polygon fill="midnightblue" stroke="midnightblue" points="2334.84,-112.576 2325.27,-117.108 2335.58,-119.537 2334.84,-112.576"/>
</g>
<!-- Node44 -->
<g id="node98" class="node"><title>Node44</title>
<a xlink:href="Main_8cpp.htm" target="_top" xlink:title="Main.cpp">
<polygon fill="white" stroke="black" points="4481.5,-58.5 4481.5,-79.5 4540.5,-79.5 4540.5,-58.5 4481.5,-58.5"/>
<text text-anchor="middle" x="4511" y="-66.5" font-family="Helvetica,sans-Serif" font-size="10.00">Main.cpp</text>
</a>
</g>
<!-- Node2&#45;&gt;Node44 -->
<g id="edge108" class="edge"><title>Node2&#45;&gt;Node44</title>
<path fill="none" stroke="midnightblue" d="M2335.24,-116.075C2823.08,-67.1395 4006.1,-150.231 4473,-80 4475.72,-79.5914 4478.51,-79.0419 4481.3,-78.4055"/>
<polygon fill="midnightblue" stroke="midnightblue" points="2334.85,-112.596 2325.27,-117.104 2335.57,-119.559 2334.85,-112.596"/>
</g>
<!-- Node45 -->
<g id="node100" class="node"><title>Node45</title>
<a xlink:href="WindowManagerMinimal_8cpp.htm" target="_top" xlink:title="WindowManagerMinimal.cpp">
<polygon fill="white" stroke="black" points="4558,-58.5 4558,-79.5 4710,-79.5 4710,-58.5 4558,-58.5"/>
<text text-anchor="middle" x="4634" y="-66.5" font-family="Helvetica,sans-Serif" font-size="10.00">WindowManagerMinimal.cpp</text>
</a>
</g>
<!-- Node2&#45;&gt;Node45 -->
<g id="edge110" class="edge"><title>Node2&#45;&gt;Node45</title>
<path fill="none" stroke="midnightblue" d="M2335.22,-116.073C2839.81,-65.0257 4061.24,-115.412 4549,-80 4551.82,-79.7953 4554.69,-79.5604 4557.59,-79.3008"/>
<polygon fill="midnightblue" stroke="midnightblue" points="2334.85,-112.592 2325.27,-117.103 2335.57,-119.555 2334.85,-112.592"/>
</g>
<!-- Node46 -->
<g id="node102" class="node"><title>Node46</title>
<a xlink:href="WindowServerMinimal_8h.htm" target="_top" xlink:title="WindowServerMinimal.h">
<polygon fill="white" stroke="red" points="257,-58.5 257,-79.5 387,-79.5 387,-58.5 257,-58.5"/>
<text text-anchor="middle" x="322" y="-66.5" font-family="Helvetica,sans-Serif" font-size="10.00">WindowServerMinimal.h</text>
</a>
</g>
<!-- Node2&#45;&gt;Node46 -->
<g id="edge112" class="edge"><title>Node2&#45;&gt;Node46</title>
<path fill="none" stroke="midnightblue" d="M2220.66,-126.182C1948.61,-122.202 786.192,-104.08 424,-80 412.093,-79.2084 399.432,-78.0776 387.227,-76.8395"/>
<polygon fill="midnightblue" stroke="midnightblue" points="2220.66,-129.682 2230.71,-126.328 2220.76,-122.683 2220.66,-129.682"/>
</g>
<!-- Node47 -->
<g id="node105" class="node"><title>Node47</title>
<a xlink:href="IpcClientHost_8cpp.htm" target="_top" xlink:title="IpcClientHost.cpp">
<polygon fill="white" stroke="black" points="4727.5,-58.5 4727.5,-79.5 4826.5,-79.5 4826.5,-58.5 4727.5,-58.5"/>
<text text-anchor="middle" x="4777" y="-66.5" font-family="Helvetica,sans-Serif" font-size="10.00">IpcClientHost.cpp</text>
</a>
</g>
<!-- Node2&#45;&gt;Node47 -->
<g id="edge116" class="edge"><title>Node2&#45;&gt;Node47</title>
<path fill="none" stroke="midnightblue" d="M2335.57,-116.04C2878.03,-61.6159 4195,-133.243 4719,-80 4721.75,-79.7203 4724.57,-79.3772 4727.41,-78.9872"/>
<polygon fill="midnightblue" stroke="midnightblue" points="2334.86,-112.595 2325.27,-117.099 2335.57,-119.558 2334.86,-112.595"/>
</g>
<!-- Node48 -->
<g id="node107" class="node"><title>Node48</title>
<a xlink:href="IpcServer_8cpp.htm" target="_top" xlink:title="IpcServer.cpp">
<polygon fill="white" stroke="black" points="4844,-58.5 4844,-79.5 4926,-79.5 4926,-58.5 4844,-58.5"/>
<text text-anchor="middle" x="4885" y="-66.5" font-family="Helvetica,sans-Serif" font-size="10.00">IpcServer.cpp</text>
</a>
</g>
<!-- Node2&#45;&gt;Node48 -->
<g id="edge118" class="edge"><title>Node2&#45;&gt;Node48</title>
<path fill="none" stroke="midnightblue" d="M2335.22,-116.076C2903.15,-59.2007 4286.1,-143.666 4835,-80 4837.91,-79.6621 4840.91,-79.2285 4843.91,-78.7295"/>
<polygon fill="midnightblue" stroke="midnightblue" points="2334.86,-112.595 2325.27,-117.096 2335.57,-119.558 2334.86,-112.595"/>
</g>
<!-- Node49 -->
<g id="node109" class="node"><title>Node49</title>
<a xlink:href="WebAppMgrProxy_8cpp.htm" target="_top" xlink:title="WebAppMgrProxy.cpp">
<polygon fill="white" stroke="black" points="4944,-58.5 4944,-79.5 5066,-79.5 5066,-58.5 4944,-58.5"/>
<text text-anchor="middle" x="5005" y="-66.5" font-family="Helvetica,sans-Serif" font-size="10.00">WebAppMgrProxy.cpp</text>
</a>
</g>
<!-- Node2&#45;&gt;Node49 -->
<g id="edge120" class="edge"><title>Node2&#45;&gt;Node49</title>
<path fill="none" stroke="midnightblue" d="M2335.61,-116.035C2925.9,-56.8989 4362.4,-128.704 4935,-80 4937.94,-79.7498 4940.95,-79.4498 4943.98,-79.1116"/>
<polygon fill="midnightblue" stroke="midnightblue" points="2334.86,-112.594 2325.27,-117.094 2335.57,-119.558 2334.86,-112.594"/>
</g>
<!-- Node28&#45;&gt;Node4 -->
<g id="edge56" class="edge"><title>Node28&#45;&gt;Node4</title>
<path fill="none" stroke="midnightblue" d="M665.238,-63.2213C573.078,-55.2353 404.468,-39.7804 261,-22 258.293,-21.6645 255.532,-21.3101 252.745,-20.942"/>
<polygon fill="midnightblue" stroke="midnightblue" points="665.011,-66.7146 675.275,-64.0876 665.613,-59.7405 665.011,-66.7146"/>
</g>
<!-- Node28&#45;&gt;Node11 -->
<g id="edge60" class="edge"><title>Node28&#45;&gt;Node11</title>
<path fill="none" stroke="midnightblue" d="M665.486,-59.4098C598.916,-50.045 494.987,-35.3013 405,-22 402.248,-21.5932 399.437,-21.1751 396.598,-20.7506"/>
<polygon fill="midnightblue" stroke="midnightblue" points="665.046,-62.8823 675.436,-60.8086 666.021,-55.9504 665.046,-62.8823"/>
</g>
<!-- Node28&#45;&gt;Node15 -->
<g id="edge62" class="edge"><title>Node28&#45;&gt;Node15</title>
<path fill="none" stroke="midnightblue" d="M665.09,-66.1032C550.253,-60.757 312.628,-47.4849 113,-22 110.225,-21.6457 107.384,-21.2499 104.519,-20.8247"/>
<polygon fill="midnightblue" stroke="midnightblue" points="664.997,-69.6025 675.147,-66.5657 665.319,-62.6099 664.997,-69.6025"/>
</g>
<!-- Node28&#45;&gt;Node18 -->
<g id="edge64" class="edge"><title>Node28&#45;&gt;Node18</title>
<path fill="none" stroke="midnightblue" d="M676.731,-56.2737C629.847,-45.8548 564.314,-31.2921 520.354,-21.5231"/>
<polygon fill="midnightblue" stroke="midnightblue" points="676.214,-59.7439 686.735,-58.4966 677.732,-52.9106 676.214,-59.7439"/>
</g>
<!-- Node28&#45;&gt;Node19 -->
<g id="edge66" class="edge"><title>Node28&#45;&gt;Node19</title>
<path fill="none" stroke="midnightblue" d="M699.952,-54.4794C676.011,-44.2695 644.518,-30.8386 622.905,-21.6212"/>
<polygon fill="midnightblue" stroke="midnightblue" points="698.8,-57.7932 709.371,-58.4966 701.546,-51.3543 698.8,-57.7932"/>
</g>
<!-- Node28&#45;&gt;Node21 -->
<g id="edge68" class="edge"><title>Node28&#45;&gt;Node21</title>
<path fill="none" stroke="midnightblue" d="M734,-48.1906C734,-39.1684 734,-28.9941 734,-21.5707"/>
<polygon fill="midnightblue" stroke="midnightblue" points="730.5,-48.3619 734,-58.3619 737.5,-48.3619 730.5,-48.3619"/>
</g>
<!-- Node28&#45;&gt;Node24 -->
<g id="edge72" class="edge"><title>Node28&#45;&gt;Node24</title>
<path fill="none" stroke="midnightblue" d="M773.656,-55.1443C803.196,-44.8229 842.919,-30.9439 869.882,-21.5231"/>
<polygon fill="midnightblue" stroke="midnightblue" points="772.347,-51.894 764.061,-58.4966 774.656,-58.5023 772.347,-51.894"/>
</g>
<!-- Node28&#45;&gt;Node25 -->
<g id="edge76" class="edge"><title>Node28&#45;&gt;Node25</title>
<path fill="none" stroke="midnightblue" d="M803.175,-58.2927C804.122,-58.1915 805.064,-58.0938 806,-58 1135.84,-24.9236 1221.19,-55.423 1551,-22 1553.73,-21.7233 1556.52,-21.413 1559.33,-21.0767"/>
<polygon fill="midnightblue" stroke="midnightblue" points="802.401,-54.8592 792.876,-59.4984 803.215,-61.8118 802.401,-54.8592"/>
</g>
<!-- Node28&#45;&gt;Node26 -->
<g id="edge78" class="edge"><title>Node28&#45;&gt;Node26</title>
<path fill="none" stroke="midnightblue" d="M802.996,-61.4894C816.577,-60.1838 830.728,-58.9442 844,-58 1220.72,-31.1991 1316.56,-52.4409 1693,-22 1695.73,-21.7796 1698.5,-21.5399 1701.29,-21.2846"/>
<polygon fill="midnightblue" stroke="midnightblue" points="802.356,-58.0354 792.746,-62.497 803.041,-65.0018 802.356,-58.0354"/>
</g>
<!-- Node29 -->
<g id="node58" class="node"><title>Node29</title>
<a xlink:href="ApplicationManagerService_8cpp.htm" target="_top" xlink:title="ApplicationManagerService.cpp">
<polygon fill="white" stroke="black" points="996,-0.5 996,-21.5 1162,-21.5 1162,-0.5 996,-0.5"/>
<text text-anchor="middle" x="1079" y="-8.5" font-family="Helvetica,sans-Serif" font-size="10.00">ApplicationManagerService.cpp</text>
</a>
</g>
<!-- Node28&#45;&gt;Node29 -->
<g id="edge58" class="edge"><title>Node28&#45;&gt;Node29</title>
<path fill="none" stroke="midnightblue" d="M802.652,-57.4586C864.953,-46.9846 956.043,-31.671 1016.39,-21.5257"/>
<polygon fill="midnightblue" stroke="midnightblue" points="801.806,-54.0516 792.525,-59.1611 802.966,-60.9547 801.806,-54.0516"/>
</g>
<!-- Node30 -->
<g id="node65" class="node"><title>Node30</title>
<a xlink:href="DockModeAppMenuContainer_8cpp.htm" target="_top" xlink:title="DockModeAppMenuContainer.cpp">
<polygon fill="white" stroke="black" points="1179.5,-0.5 1179.5,-21.5 1358.5,-21.5 1358.5,-0.5 1179.5,-0.5"/>
<text text-anchor="middle" x="1269" y="-8.5" font-family="Helvetica,sans-Serif" font-size="10.00">DockModeAppMenuContainer.cpp</text>
</a>
</g>
<!-- Node28&#45;&gt;Node30 -->
<g id="edge70" class="edge"><title>Node28&#45;&gt;Node30</title>
<path fill="none" stroke="midnightblue" d="M802.681,-58.4236C803.795,-58.2792 804.902,-58.1379 806,-58 967.738,-37.6835 1008.89,-39.0918 1171,-22 1173.72,-21.7128 1176.49,-21.4185 1179.28,-21.1191"/>
<polygon fill="midnightblue" stroke="midnightblue" points="801.956,-54.9896 792.513,-59.7939 802.891,-61.9269 801.956,-54.9896"/>
</g>
<!-- Node31 -->
<g id="node68" class="node"><title>Node31</title>
<a xlink:href="DockModePositionManager_8cpp.htm" target="_top" xlink:title="DockModePositionManager.cpp">
<polygon fill="white" stroke="black" points="1375.5,-0.5 1375.5,-21.5 1542.5,-21.5 1542.5,-0.5 1375.5,-0.5"/>
<text text-anchor="middle" x="1459" y="-8.5" font-family="Helvetica,sans-Serif" font-size="10.00">DockModePositionManager.cpp</text>
</a>
</g>
<!-- Node28&#45;&gt;Node31 -->
<g id="edge74" class="edge"><title>Node28&#45;&gt;Node31</title>
<path fill="none" stroke="midnightblue" d="M803.177,-58.3136C804.124,-58.2059 805.065,-58.1012 806,-58 1054.39,-31.1077 1118.2,-44.8394 1367,-22 1369.72,-21.75 1372.49,-21.4847 1375.28,-21.2073"/>
<polygon fill="midnightblue" stroke="midnightblue" points="802.384,-54.8844 792.884,-59.5746 803.236,-61.8325 802.384,-54.8844"/>
</g>
<!-- Node28&#45;&gt;Node32 -->
<g id="edge80" class="edge"><title>Node28&#45;&gt;Node32</title>
<path fill="none" stroke="midnightblue" d="M802.96,-62.9735C826.437,-61.114 852.847,-59.2331 877,-58 1586.29,-21.7869 2449.15,-13.1125 2679.29,-11.382"/>
<polygon fill="midnightblue" stroke="midnightblue" points="802.433,-59.5045 792.746,-63.7955 802.995,-66.4819 802.433,-59.5045"/>
</g>
<!-- Node28&#45;&gt;Node33 -->
<g id="edge82" class="edge"><title>Node28&#45;&gt;Node33</title>
<path fill="none" stroke="midnightblue" d="M802.952,-62.8029C826.428,-60.9307 852.84,-59.0854 877,-58 1595.71,-25.7104 3928.75,-13.5323 4401.86,-11.3656"/>
<polygon fill="midnightblue" stroke="midnightblue" points="802.422,-59.3343 792.739,-63.6334 802.99,-66.3113 802.422,-59.3343"/>
</g>
<!-- Node46&#45;&gt;Node15 -->
<g id="edge114" class="edge"><title>Node46&#45;&gt;Node15</title>
<path fill="none" stroke="midnightblue" d="M263.061,-56.3391C214.54,-45.9159 146.558,-31.3126 100.987,-21.5231"/>
<polygon fill="midnightblue" stroke="midnightblue" points="262.593,-59.8183 273.105,-58.4966 264.063,-52.9744 262.593,-59.8183"/>
</g>
</g>
</svg>
