<?xml version="1.0" encoding="UTF-8" standalone="no"?>
<!DOCTYPE svg PUBLIC "-//W3C//DTD SVG 1.1//EN"
 "http://www.w3.org/Graphics/SVG/1.1/DTD/svg11.dtd">
<!-- Generated by graphviz version 2.26.3 (20100126.1600)
 -->
<!-- Title: G Pages: 1 -->
<svg width="552pt" height="262pt"
 viewBox="0.00 0.00 552.00 262.00" xmlns="http://www.w3.org/2000/svg" xmlns:xlink="http://www.w3.org/1999/xlink">
<g id="graph1" class="graph" transform="scale(1 1) rotate(0) translate(4 258)">
<title>G</title>
<polygon fill="white" stroke="white" points="-4,5 -4,-258 549,-258 549,5 -4,5"/>
<!-- Node1 -->
<g id="node1" class="node"><title>Node1</title>
<polygon fill="#bfbfbf" stroke="black" points="108,-232.5 108,-253.5 218,-253.5 218,-232.5 108,-232.5"/>
<text text-anchor="middle" x="163" y="-240.5" font-family="Helvetica,sans-Serif" font-size="10.00">VirtualKeyboard.cpp</text>
</g>
<!-- Node2 -->
<g id="node3" class="node"><title>Node2</title>
<a xlink:href="VirtualKeyboard_8h.htm" target="_top" xlink:title="VirtualKeyboard.h">
<polygon fill="white" stroke="black" points="113.5,-174.5 113.5,-195.5 212.5,-195.5 212.5,-174.5 113.5,-174.5"/>
<text text-anchor="middle" x="163" y="-182.5" font-family="Helvetica,sans-Serif" font-size="10.00">VirtualKeyboard.h</text>
</a>
</g>
<!-- Node1&#45;&gt;Node2 -->
<g id="edge2" class="edge"><title>Node1&#45;&gt;Node2</title>
<path fill="none" stroke="midnightblue" d="M163,-232.362C163,-224.922 163,-214.743 163,-205.728"/>
<polygon fill="midnightblue" stroke="midnightblue" points="166.5,-205.571 163,-195.571 159.5,-205.571 166.5,-205.571"/>
</g>
<!-- Node3 -->
<g id="node5" class="node"><title>Node3</title>
<a xlink:href="IMEDataInterface_8h.htm" target="_top" xlink:title="IMEDataInterface.h">
<polygon fill="white" stroke="black" points="152,-116.5 152,-137.5 260,-137.5 260,-116.5 152,-116.5"/>
<text text-anchor="middle" x="206" y="-124.5" font-family="Helvetica,sans-Serif" font-size="10.00">IMEDataInterface.h</text>
</a>
</g>
<!-- Node2&#45;&gt;Node3 -->
<g id="edge4" class="edge"><title>Node2&#45;&gt;Node3</title>
<path fill="none" stroke="midnightblue" d="M170.887,-174.362C176.827,-166.35 185.122,-155.161 192.159,-145.67"/>
<polygon fill="midnightblue" stroke="midnightblue" points="195.019,-147.688 198.163,-137.571 189.396,-143.519 195.019,-147.688"/>
</g>
<!-- Node12 -->
<g id="node23" class="node"><title>Node12</title>
<a xlink:href="InputMethod_8h.htm" target="_top" xlink:title="InputMethod.h">
<polygon fill="white" stroke="black" points="74,-58.5 74,-79.5 158,-79.5 158,-58.5 74,-58.5"/>
<text text-anchor="middle" x="116" y="-66.5" font-family="Helvetica,sans-Serif" font-size="10.00">InputMethod.h</text>
</a>
</g>
<!-- Node2&#45;&gt;Node12 -->
<g id="edge22" class="edge"><title>Node2&#45;&gt;Node12</title>
<path fill="none" stroke="midnightblue" d="M158.302,-174.21C154.191,-164.708 148.095,-150.479 143,-138 136.335,-121.677 129.067,-103.054 123.753,-89.2721"/>
<polygon fill="midnightblue" stroke="midnightblue" points="126.965,-87.8749 120.112,-79.7954 120.431,-90.3854 126.965,-87.8749"/>
</g>
<!-- Node4 -->
<g id="node7" class="node"><title>Node4</title>
<a xlink:href="IMEData_8h.htm" target="_top" xlink:title="IMEData.h">
<polygon fill="white" stroke="black" points="204,-58.5 204,-79.5 270,-79.5 270,-58.5 204,-58.5"/>
<text text-anchor="middle" x="237" y="-66.5" font-family="Helvetica,sans-Serif" font-size="10.00">IMEData.h</text>
</a>
</g>
<!-- Node3&#45;&gt;Node4 -->
<g id="edge6" class="edge"><title>Node3&#45;&gt;Node4</title>
<path fill="none" stroke="midnightblue" d="M211.686,-116.362C215.837,-108.595 221.584,-97.8426 226.553,-88.5458"/>
<polygon fill="midnightblue" stroke="midnightblue" points="229.723,-90.0398 231.35,-79.5707 223.55,-86.7401 229.723,-90.0398"/>
</g>
<!-- Node5 -->
<g id="node9" class="node"><title>Node5</title>
<polygon fill="white" stroke="#bfbfbf" points="497.5,-0.5 497.5,-21.5 544.5,-21.5 544.5,-0.5 497.5,-0.5"/>
<text text-anchor="middle" x="521" y="-8.5" font-family="Helvetica,sans-Serif" font-size="10.00">QRect</text>
</g>
<!-- Node4&#45;&gt;Node5 -->
<g id="edge8" class="edge"><title>Node4&#45;&gt;Node5</title>
<path fill="none" stroke="midnightblue" d="M270.366,-64.3724C317.089,-57.5473 404.748,-43.4874 487.544,-22.1323"/>
<polygon fill="midnightblue" stroke="midnightblue" points="488.567,-25.4824 497.353,-19.5614 486.793,-18.7111 488.567,-25.4824"/>
</g>
<!-- Node6 -->
<g id="node11" class="node"><title>Node6</title>
<polygon fill="white" stroke="#bfbfbf" points="173.5,-0.5 173.5,-21.5 218.5,-21.5 218.5,-0.5 173.5,-0.5"/>
<text text-anchor="middle" x="196" y="-8.5" font-family="Helvetica,sans-Serif" font-size="10.00">QSize</text>
</g>
<!-- Node4&#45;&gt;Node6 -->
<g id="edge10" class="edge"><title>Node4&#45;&gt;Node6</title>
<path fill="none" stroke="midnightblue" d="M229.48,-58.3619C223.874,-50.4313 216.068,-39.3885 209.403,-29.9606"/>
<polygon fill="midnightblue" stroke="midnightblue" points="212.103,-27.7161 203.472,-21.5707 206.387,-31.7568 212.103,-27.7161"/>
</g>
<!-- Node7 -->
<g id="node13" class="node"><title>Node7</title>
<polygon fill="white" stroke="#bfbfbf" points="75.5,-0.5 75.5,-21.5 156.5,-21.5 156.5,-0.5 75.5,-0.5"/>
<text text-anchor="middle" x="116" y="-8.5" font-family="Helvetica,sans-Serif" font-size="10.00">QTouchEvent</text>
</g>
<!-- Node4&#45;&gt;Node7 -->
<g id="edge12" class="edge"><title>Node4&#45;&gt;Node7</title>
<path fill="none" stroke="midnightblue" d="M215.088,-58.4966C196.189,-49.4378 168.669,-36.2462 147.424,-26.0628"/>
<polygon fill="midnightblue" stroke="midnightblue" points="148.689,-22.7876 138.158,-21.6212 145.663,-29.0999 148.689,-22.7876"/>
</g>
<!-- Node8 -->
<g id="node15" class="node"><title>Node8</title>
<polygon fill="white" stroke="#bfbfbf" points="-0.5,-0.5 -0.5,-21.5 58.5,-21.5 58.5,-0.5 -0.5,-0.5"/>
<text text-anchor="middle" x="29" y="-8.5" font-family="Helvetica,sans-Serif" font-size="10.00">QPainter</text>
</g>
<!-- Node4&#45;&gt;Node8 -->
<g id="edge14" class="edge"><title>Node4&#45;&gt;Node8</title>
<path fill="none" stroke="midnightblue" d="M203.741,-59.932C171.456,-51.1015 120.813,-37.1761 68.6204,-22.4406"/>
<polygon fill="midnightblue" stroke="midnightblue" points="69.4361,-19.0341 58.861,-19.6807 67.5312,-25.7699 69.4361,-19.0341"/>
</g>
<!-- Node9 -->
<g id="node17" class="node"><title>Node9</title>
<polygon fill="white" stroke="#bfbfbf" points="235.5,-0.5 235.5,-21.5 294.5,-21.5 294.5,-0.5 235.5,-0.5"/>
<text text-anchor="middle" x="265" y="-8.5" font-family="Helvetica,sans-Serif" font-size="10.00">QRegion</text>
</g>
<!-- Node4&#45;&gt;Node9 -->
<g id="edge16" class="edge"><title>Node4&#45;&gt;Node9</title>
<path fill="none" stroke="midnightblue" d="M242.136,-58.3619C245.846,-50.6766 250.967,-40.0686 255.422,-30.8399"/>
<polygon fill="midnightblue" stroke="midnightblue" points="258.701,-32.0978 259.897,-21.5707 252.397,-29.0545 258.701,-32.0978"/>
</g>
<!-- Node10 -->
<g id="node19" class="node"><title>Node10</title>
<polygon fill="white" stroke="#bfbfbf" points="311.5,-0.5 311.5,-21.5 364.5,-21.5 364.5,-0.5 311.5,-0.5"/>
<text text-anchor="middle" x="338" y="-8.5" font-family="Helvetica,sans-Serif" font-size="10.00">QString</text>
</g>
<!-- Node4&#45;&gt;Node10 -->
<g id="edge18" class="edge"><title>Node4&#45;&gt;Node10</title>
<path fill="none" stroke="midnightblue" d="M255.525,-58.3619C270.901,-49.532 292.996,-36.844 310.447,-26.8224"/>
<polygon fill="midnightblue" stroke="midnightblue" points="312.664,-29.5857 319.592,-21.5707 309.178,-23.5154 312.664,-29.5857"/>
</g>
<!-- Node11 -->
<g id="node21" class="node"><title>Node11</title>
<polygon fill="white" stroke="#bfbfbf" points="382,-0.5 382,-21.5 480,-21.5 480,-0.5 382,-0.5"/>
<text text-anchor="middle" x="431" y="-8.5" font-family="Helvetica,sans-Serif" font-size="10.00">palmimedefines.h</text>
</g>
<!-- Node4&#45;&gt;Node11 -->
<g id="edge20" class="edge"><title>Node4&#45;&gt;Node11</title>
<path fill="none" stroke="midnightblue" d="M270.35,-59.0294C302.335,-49.4669 350.851,-34.962 386.198,-24.3945"/>
<polygon fill="midnightblue" stroke="midnightblue" points="387.215,-27.7435 395.793,-21.5257 385.21,-21.0368 387.215,-27.7435"/>
</g>
<!-- Node12&#45;&gt;Node7 -->
<g id="edge24" class="edge"><title>Node12&#45;&gt;Node7</title>
<path fill="none" stroke="midnightblue" d="M116,-58.3619C116,-50.9219 116,-40.7427 116,-31.7276"/>
<polygon fill="midnightblue" stroke="midnightblue" points="119.5,-31.5706 116,-21.5707 112.5,-31.5707 119.5,-31.5706"/>
</g>
<!-- Node12&#45;&gt;Node8 -->
<g id="edge26" class="edge"><title>Node12&#45;&gt;Node8</title>
<path fill="none" stroke="midnightblue" d="M100.043,-58.3619C87.0433,-49.6955 68.4688,-37.3126 53.5728,-27.3819"/>
<polygon fill="midnightblue" stroke="midnightblue" points="55.118,-24.2055 44.856,-21.5707 51.235,-30.0299 55.118,-24.2055"/>
</g>
</g>
</svg>
