<?xml version="1.0" encoding="UTF-8" standalone="no"?>
<!DOCTYPE svg PUBLIC "-//W3C//DTD SVG 1.1//EN"
 "http://www.w3.org/Graphics/SVG/1.1/DTD/svg11.dtd">
<!-- Generated by graphviz version 2.26.3 (20100126.1600)
 -->
<!-- Title: G Pages: 1 -->
<svg width="561pt" height="262pt"
 viewBox="0.00 0.00 561.00 262.00" xmlns="http://www.w3.org/2000/svg" xmlns:xlink="http://www.w3.org/1999/xlink">
<g id="graph1" class="graph" transform="scale(1 1) rotate(0) translate(4 258)">
<title>G</title>
<polygon fill="white" stroke="white" points="-4,5 -4,-258 558,-258 558,5 -4,5"/>
<!-- Node1 -->
<g id="node1" class="node"><title>Node1</title>
<polygon fill="#bfbfbf" stroke="black" points="49.5,-232.5 49.5,-253.5 206.5,-253.5 206.5,-232.5 49.5,-232.5"/>
<text text-anchor="middle" x="128" y="-240.5" font-family="Helvetica,sans-Serif" font-size="10.00">VirtualKeyboardPreferences.h</text>
</g>
<!-- Node2 -->
<g id="node3" class="node"><title>Node2</title>
<polygon fill="white" stroke="#bfbfbf" points="-0.5,-174.5 -0.5,-195.5 42.5,-195.5 42.5,-174.5 -0.5,-174.5"/>
<text text-anchor="middle" x="21" y="-182.5" font-family="Helvetica,sans-Serif" font-size="10.00">string</text>
</g>
<!-- Node1&#45;&gt;Node2 -->
<g id="edge2" class="edge"><title>Node1&#45;&gt;Node2</title>
<path fill="none" stroke="midnightblue" d="M108.375,-232.362C91.8587,-223.409 68.0261,-210.491 49.4222,-200.406"/>
<polygon fill="midnightblue" stroke="midnightblue" points="50.9605,-197.259 40.501,-195.571 47.6246,-203.413 50.9605,-197.259"/>
</g>
<!-- Node3 -->
<g id="node5" class="node"><title>Node3</title>
<polygon fill="white" stroke="#bfbfbf" points="60,-174.5 60,-195.5 106,-195.5 106,-174.5 60,-174.5"/>
<text text-anchor="middle" x="83" y="-182.5" font-family="Helvetica,sans-Serif" font-size="10.00">vector</text>
</g>
<!-- Node1&#45;&gt;Node3 -->
<g id="edge4" class="edge"><title>Node1&#45;&gt;Node3</title>
<path fill="none" stroke="midnightblue" d="M119.746,-232.362C113.53,-224.35 104.849,-213.161 97.485,-203.67"/>
<polygon fill="midnightblue" stroke="midnightblue" points="100.097,-201.326 91.2014,-195.571 94.5661,-205.617 100.097,-201.326"/>
</g>
<!-- Node4 -->
<g id="node7" class="node"><title>Node4</title>
<a xlink:href="VirtualKeyboard_8h.htm" target="_top" xlink:title="VirtualKeyboard.h">
<polygon fill="white" stroke="black" points="123.5,-174.5 123.5,-195.5 222.5,-195.5 222.5,-174.5 123.5,-174.5"/>
<text text-anchor="middle" x="173" y="-182.5" font-family="Helvetica,sans-Serif" font-size="10.00">VirtualKeyboard.h</text>
</a>
</g>
<!-- Node1&#45;&gt;Node4 -->
<g id="edge6" class="edge"><title>Node1&#45;&gt;Node4</title>
<path fill="none" stroke="midnightblue" d="M136.254,-232.362C142.47,-224.35 151.151,-213.161 158.515,-203.67"/>
<polygon fill="midnightblue" stroke="midnightblue" points="161.434,-205.617 164.799,-195.571 155.903,-201.326 161.434,-205.617"/>
</g>
<!-- Node15 -->
<g id="node31" class="node"><title>Node15</title>
<polygon fill="white" stroke="#bfbfbf" points="239.5,-174.5 239.5,-195.5 298.5,-195.5 298.5,-174.5 239.5,-174.5"/>
<text text-anchor="middle" x="269" y="-182.5" font-family="Helvetica,sans-Serif" font-size="10.00">qobject.h</text>
</g>
<!-- Node1&#45;&gt;Node15 -->
<g id="edge32" class="edge"><title>Node1&#45;&gt;Node15</title>
<path fill="none" stroke="midnightblue" d="M153.534,-232.497C175.953,-223.275 208.785,-209.769 233.713,-199.515"/>
<polygon fill="midnightblue" stroke="midnightblue" points="235.263,-202.662 243.179,-195.621 232.6,-196.189 235.263,-202.662"/>
</g>
<!-- Node5 -->
<g id="node9" class="node"><title>Node5</title>
<a xlink:href="IMEDataInterface_8h.htm" target="_top" xlink:title="IMEDataInterface.h">
<polygon fill="white" stroke="black" points="161,-116.5 161,-137.5 269,-137.5 269,-116.5 161,-116.5"/>
<text text-anchor="middle" x="215" y="-124.5" font-family="Helvetica,sans-Serif" font-size="10.00">IMEDataInterface.h</text>
</a>
</g>
<!-- Node4&#45;&gt;Node5 -->
<g id="edge8" class="edge"><title>Node4&#45;&gt;Node5</title>
<path fill="none" stroke="midnightblue" d="M180.703,-174.362C186.446,-166.431 194.443,-155.389 201.27,-145.961"/>
<polygon fill="midnightblue" stroke="midnightblue" points="204.315,-147.723 207.345,-137.571 198.645,-143.617 204.315,-147.723"/>
</g>
<!-- Node14 -->
<g id="node27" class="node"><title>Node14</title>
<a xlink:href="InputMethod_8h.htm" target="_top" xlink:title="InputMethod.h">
<polygon fill="white" stroke="black" points="83,-58.5 83,-79.5 167,-79.5 167,-58.5 83,-58.5"/>
<text text-anchor="middle" x="125" y="-66.5" font-family="Helvetica,sans-Serif" font-size="10.00">InputMethod.h</text>
</a>
</g>
<!-- Node4&#45;&gt;Node14 -->
<g id="edge26" class="edge"><title>Node4&#45;&gt;Node14</title>
<path fill="none" stroke="midnightblue" d="M168.017,-174.236C163.667,-164.75 157.247,-150.53 152,-138 145.189,-121.737 137.932,-103.11 132.658,-89.3111"/>
<polygon fill="midnightblue" stroke="midnightblue" points="135.876,-87.925 129.053,-79.8198 129.332,-90.411 135.876,-87.925"/>
</g>
<!-- Node6 -->
<g id="node11" class="node"><title>Node6</title>
<a xlink:href="IMEData_8h.htm" target="_top" xlink:title="IMEData.h">
<polygon fill="white" stroke="black" points="213,-58.5 213,-79.5 279,-79.5 279,-58.5 213,-58.5"/>
<text text-anchor="middle" x="246" y="-66.5" font-family="Helvetica,sans-Serif" font-size="10.00">IMEData.h</text>
</a>
</g>
<!-- Node5&#45;&gt;Node6 -->
<g id="edge10" class="edge"><title>Node5&#45;&gt;Node6</title>
<path fill="none" stroke="midnightblue" d="M220.686,-116.362C224.837,-108.595 230.584,-97.8426 235.553,-88.5458"/>
<polygon fill="midnightblue" stroke="midnightblue" points="238.723,-90.0398 240.35,-79.5707 232.55,-86.7401 238.723,-90.0398"/>
</g>
<!-- Node7 -->
<g id="node13" class="node"><title>Node7</title>
<polygon fill="white" stroke="#bfbfbf" points="506.5,-0.5 506.5,-21.5 553.5,-21.5 553.5,-0.5 506.5,-0.5"/>
<text text-anchor="middle" x="530" y="-8.5" font-family="Helvetica,sans-Serif" font-size="10.00">QRect</text>
</g>
<!-- Node6&#45;&gt;Node7 -->
<g id="edge12" class="edge"><title>Node6&#45;&gt;Node7</title>
<path fill="none" stroke="midnightblue" d="M279.366,-64.3724C326.089,-57.5473 413.748,-43.4874 496.544,-22.1323"/>
<polygon fill="midnightblue" stroke="midnightblue" points="497.567,-25.4824 506.353,-19.5614 495.793,-18.7111 497.567,-25.4824"/>
</g>
<!-- Node8 -->
<g id="node15" class="node"><title>Node8</title>
<polygon fill="white" stroke="#bfbfbf" points="182.5,-0.5 182.5,-21.5 227.5,-21.5 227.5,-0.5 182.5,-0.5"/>
<text text-anchor="middle" x="205" y="-8.5" font-family="Helvetica,sans-Serif" font-size="10.00">QSize</text>
</g>
<!-- Node6&#45;&gt;Node8 -->
<g id="edge14" class="edge"><title>Node6&#45;&gt;Node8</title>
<path fill="none" stroke="midnightblue" d="M238.48,-58.3619C232.874,-50.4313 225.068,-39.3885 218.403,-29.9606"/>
<polygon fill="midnightblue" stroke="midnightblue" points="221.103,-27.7161 212.472,-21.5707 215.387,-31.7568 221.103,-27.7161"/>
</g>
<!-- Node9 -->
<g id="node17" class="node"><title>Node9</title>
<polygon fill="white" stroke="#bfbfbf" points="84.5,-0.5 84.5,-21.5 165.5,-21.5 165.5,-0.5 84.5,-0.5"/>
<text text-anchor="middle" x="125" y="-8.5" font-family="Helvetica,sans-Serif" font-size="10.00">QTouchEvent</text>
</g>
<!-- Node6&#45;&gt;Node9 -->
<g id="edge16" class="edge"><title>Node6&#45;&gt;Node9</title>
<path fill="none" stroke="midnightblue" d="M224.088,-58.4966C205.189,-49.4378 177.669,-36.2462 156.424,-26.0628"/>
<polygon fill="midnightblue" stroke="midnightblue" points="157.689,-22.7876 147.158,-21.6212 154.663,-29.0999 157.689,-22.7876"/>
</g>
<!-- Node10 -->
<g id="node19" class="node"><title>Node10</title>
<polygon fill="white" stroke="#bfbfbf" points="8.5,-0.5 8.5,-21.5 67.5,-21.5 67.5,-0.5 8.5,-0.5"/>
<text text-anchor="middle" x="38" y="-8.5" font-family="Helvetica,sans-Serif" font-size="10.00">QPainter</text>
</g>
<!-- Node6&#45;&gt;Node10 -->
<g id="edge18" class="edge"><title>Node6&#45;&gt;Node10</title>
<path fill="none" stroke="midnightblue" d="M212.741,-59.932C180.456,-51.1015 129.813,-37.1761 77.6204,-22.4406"/>
<polygon fill="midnightblue" stroke="midnightblue" points="78.4361,-19.0341 67.861,-19.6807 76.5312,-25.7699 78.4361,-19.0341"/>
</g>
<!-- Node11 -->
<g id="node21" class="node"><title>Node11</title>
<polygon fill="white" stroke="#bfbfbf" points="244.5,-0.5 244.5,-21.5 303.5,-21.5 303.5,-0.5 244.5,-0.5"/>
<text text-anchor="middle" x="274" y="-8.5" font-family="Helvetica,sans-Serif" font-size="10.00">QRegion</text>
</g>
<!-- Node6&#45;&gt;Node11 -->
<g id="edge20" class="edge"><title>Node6&#45;&gt;Node11</title>
<path fill="none" stroke="midnightblue" d="M251.136,-58.3619C254.846,-50.6766 259.967,-40.0686 264.422,-30.8399"/>
<polygon fill="midnightblue" stroke="midnightblue" points="267.701,-32.0978 268.897,-21.5707 261.397,-29.0545 267.701,-32.0978"/>
</g>
<!-- Node12 -->
<g id="node23" class="node"><title>Node12</title>
<polygon fill="white" stroke="#bfbfbf" points="320.5,-0.5 320.5,-21.5 373.5,-21.5 373.5,-0.5 320.5,-0.5"/>
<text text-anchor="middle" x="347" y="-8.5" font-family="Helvetica,sans-Serif" font-size="10.00">QString</text>
</g>
<!-- Node6&#45;&gt;Node12 -->
<g id="edge22" class="edge"><title>Node6&#45;&gt;Node12</title>
<path fill="none" stroke="midnightblue" d="M264.525,-58.3619C279.901,-49.532 301.996,-36.844 319.447,-26.8224"/>
<polygon fill="midnightblue" stroke="midnightblue" points="321.664,-29.5857 328.592,-21.5707 318.178,-23.5154 321.664,-29.5857"/>
</g>
<!-- Node13 -->
<g id="node25" class="node"><title>Node13</title>
<polygon fill="white" stroke="#bfbfbf" points="391,-0.5 391,-21.5 489,-21.5 489,-0.5 391,-0.5"/>
<text text-anchor="middle" x="440" y="-8.5" font-family="Helvetica,sans-Serif" font-size="10.00">palmimedefines.h</text>
</g>
<!-- Node6&#45;&gt;Node13 -->
<g id="edge24" class="edge"><title>Node6&#45;&gt;Node13</title>
<path fill="none" stroke="midnightblue" d="M279.35,-59.0294C311.335,-49.4669 359.851,-34.962 395.198,-24.3945"/>
<polygon fill="midnightblue" stroke="midnightblue" points="396.215,-27.7435 404.793,-21.5257 394.21,-21.0368 396.215,-27.7435"/>
</g>
<!-- Node14&#45;&gt;Node9 -->
<g id="edge28" class="edge"><title>Node14&#45;&gt;Node9</title>
<path fill="none" stroke="midnightblue" d="M125,-58.3619C125,-50.9219 125,-40.7427 125,-31.7276"/>
<polygon fill="midnightblue" stroke="midnightblue" points="128.5,-31.5706 125,-21.5707 121.5,-31.5707 128.5,-31.5706"/>
</g>
<!-- Node14&#45;&gt;Node10 -->
<g id="edge30" class="edge"><title>Node14&#45;&gt;Node10</title>
<path fill="none" stroke="midnightblue" d="M109.043,-58.3619C96.0433,-49.6955 77.4688,-37.3126 62.5728,-27.3819"/>
<polygon fill="midnightblue" stroke="midnightblue" points="64.118,-24.2055 53.856,-21.5707 60.235,-30.0299 64.118,-24.2055"/>
</g>
</g>
</svg>
