<?xml version="1.0" encoding="UTF-8" standalone="no"?>
<!DOCTYPE svg PUBLIC "-//W3C//DTD SVG 1.1//EN"
 "http://www.w3.org/Graphics/SVG/1.1/DTD/svg11.dtd">
<!-- Generated by graphviz version 2.26.3 (20100126.1600)
 -->
<!-- Title: G Pages: 1 -->
<svg width="1158pt" height="88pt"
 viewBox="0.00 0.00 1158.00 88.00" xmlns="http://www.w3.org/2000/svg" xmlns:xlink="http://www.w3.org/1999/xlink">
<g id="graph1" class="graph" transform="scale(1 1) rotate(0) translate(4 84)">
<title>G</title>
<polygon fill="white" stroke="white" points="-4,5 -4,-84 1155,-84 1155,5 -4,5"/>
<!-- Node1 -->
<g id="node1" class="node"><title>Node1</title>
<polygon fill="#bfbfbf" stroke="black" points="454.5,-58.5 454.5,-79.5 611.5,-79.5 611.5,-58.5 454.5,-58.5"/>
<text text-anchor="middle" x="533" y="-66.5" font-family="Helvetica,sans-Serif" font-size="10.00">VirtualKeyboardPreferences.h</text>
</g>
<!-- Node2 -->
<g id="node3" class="node"><title>Node2</title>
<a xlink:href="Preferences_8cpp.htm" target="_top" xlink:title="Preferences.cpp">
<polygon fill="white" stroke="black" points="0,-0.5 0,-21.5 94,-21.5 94,-0.5 0,-0.5"/>
<text text-anchor="middle" x="47" y="-8.5" font-family="Helvetica,sans-Serif" font-size="10.00">Preferences.cpp</text>
</a>
</g>
<!-- Node1&#45;&gt;Node2 -->
<g id="edge2" class="edge"><title>Node1&#45;&gt;Node2</title>
<path fill="none" stroke="midnightblue" d="M444.158,-61.5138C357.006,-53.6467 220.471,-39.924 103,-22 100.062,-21.5517 97.0429,-21.0573 94.0029,-20.5339"/>
<polygon fill="midnightblue" stroke="midnightblue" points="444.001,-65.0137 454.274,-62.4207 444.626,-58.0417 444.001,-65.0137"/>
</g>
<!-- Node3 -->
<g id="node5" class="node"><title>Node3</title>
<a xlink:href="SystemService_8cpp.htm" target="_top" xlink:title="SystemService.cpp">
<polygon fill="white" stroke="black" points="112,-0.5 112,-21.5 218,-21.5 218,-0.5 112,-0.5"/>
<text text-anchor="middle" x="165" y="-8.5" font-family="Helvetica,sans-Serif" font-size="10.00">SystemService.cpp</text>
</a>
</g>
<!-- Node1&#45;&gt;Node3 -->
<g id="edge4" class="edge"><title>Node1&#45;&gt;Node3</title>
<path fill="none" stroke="midnightblue" d="M451.449,-56.9996C389.754,-47.7937 302.974,-34.5724 227,-22 224.088,-21.5181 221.101,-21.0155 218.086,-20.5019"/>
<polygon fill="midnightblue" stroke="midnightblue" points="451.106,-60.4871 461.513,-58.4989 452.138,-53.5635 451.106,-60.4871"/>
</g>
<!-- Node4 -->
<g id="node7" class="node"><title>Node4</title>
<a xlink:href="PhoneKeyboard_8cpp.htm" target="_top" xlink:title="PhoneKeyboard.cpp">
<polygon fill="white" stroke="black" points="236,-0.5 236,-21.5 348,-21.5 348,-0.5 236,-0.5"/>
<text text-anchor="middle" x="292" y="-8.5" font-family="Helvetica,sans-Serif" font-size="10.00">PhoneKeyboard.cpp</text>
</a>
</g>
<!-- Node1&#45;&gt;Node4 -->
<g id="edge6" class="edge"><title>Node1&#45;&gt;Node4</title>
<path fill="none" stroke="midnightblue" d="M479.574,-56.1424C436.321,-45.7328 376.147,-31.2511 335.725,-21.5231"/>
<polygon fill="midnightblue" stroke="midnightblue" points="478.815,-59.5596 489.357,-58.4966 480.453,-52.7539 478.815,-59.5596"/>
</g>
<!-- Node5 -->
<g id="node9" class="node"><title>Node5</title>
<a xlink:href="PhoneKeymap_8cpp.htm" target="_top" xlink:title="PhoneKeymap.cpp">
<polygon fill="white" stroke="black" points="365.5,-0.5 365.5,-21.5 470.5,-21.5 470.5,-0.5 365.5,-0.5"/>
<text text-anchor="middle" x="418" y="-8.5" font-family="Helvetica,sans-Serif" font-size="10.00">PhoneKeymap.cpp</text>
</a>
</g>
<!-- Node1&#45;&gt;Node5 -->
<g id="edge8" class="edge"><title>Node1&#45;&gt;Node5</title>
<path fill="none" stroke="midnightblue" d="M503.124,-53.9319C483.021,-43.7932 457.01,-30.6748 439.059,-21.6212"/>
<polygon fill="midnightblue" stroke="midnightblue" points="501.67,-57.1185 512.174,-58.4966 504.822,-50.8684 501.67,-57.1185"/>
</g>
<!-- Node6 -->
<g id="node11" class="node"><title>Node6</title>
<a xlink:href="PreKeymap_8cpp.htm" target="_top" xlink:title="PreKeymap.cpp">
<polygon fill="white" stroke="black" points="487.5,-0.5 487.5,-21.5 578.5,-21.5 578.5,-0.5 487.5,-0.5"/>
<text text-anchor="middle" x="533" y="-8.5" font-family="Helvetica,sans-Serif" font-size="10.00">PreKeymap.cpp</text>
</a>
</g>
<!-- Node1&#45;&gt;Node6 -->
<g id="edge10" class="edge"><title>Node1&#45;&gt;Node6</title>
<path fill="none" stroke="midnightblue" d="M533,-48.1906C533,-39.1684 533,-28.9941 533,-21.5707"/>
<polygon fill="midnightblue" stroke="midnightblue" points="529.5,-48.3619 533,-58.3619 536.5,-48.3619 529.5,-48.3619"/>
</g>
<!-- Node7 -->
<g id="node13" class="node"><title>Node7</title>
<a xlink:href="ShortcutsHandler_8cpp.htm" target="_top" xlink:title="ShortcutsHandler.cpp">
<polygon fill="white" stroke="black" points="596,-0.5 596,-21.5 714,-21.5 714,-0.5 596,-0.5"/>
<text text-anchor="middle" x="655" y="-8.5" font-family="Helvetica,sans-Serif" font-size="10.00">ShortcutsHandler.cpp</text>
</a>
</g>
<!-- Node1&#45;&gt;Node7 -->
<g id="edge12" class="edge"><title>Node1&#45;&gt;Node7</title>
<path fill="none" stroke="midnightblue" d="M564.406,-54.0693C585.771,-43.9121 613.529,-30.7157 632.659,-21.6212"/>
<polygon fill="midnightblue" stroke="midnightblue" points="562.622,-51.042 555.093,-58.4966 565.627,-57.364 562.622,-51.042"/>
</g>
<!-- Node8 -->
<g id="node15" class="node"><title>Node8</title>
<a xlink:href="TabletKeyboard_8cpp.htm" target="_top" xlink:title="TabletKeyboard.cpp">
<polygon fill="white" stroke="black" points="732,-0.5 732,-21.5 842,-21.5 842,-0.5 732,-0.5"/>
<text text-anchor="middle" x="787" y="-8.5" font-family="Helvetica,sans-Serif" font-size="10.00">TabletKeyboard.cpp</text>
</a>
</g>
<!-- Node1&#45;&gt;Node8 -->
<g id="edge14" class="edge"><title>Node1&#45;&gt;Node8</title>
<path fill="none" stroke="midnightblue" d="M589.02,-56.2081C634.627,-45.7938 698.224,-31.2716 740.916,-21.5231"/>
<polygon fill="midnightblue" stroke="midnightblue" points="587.967,-52.8582 578.997,-58.4966 589.526,-59.6826 587.967,-52.8582"/>
</g>
<!-- Node9 -->
<g id="node17" class="node"><title>Node9</title>
<a xlink:href="TabletKeymap_8cpp.htm" target="_top" xlink:title="TabletKeymap.cpp">
<polygon fill="white" stroke="black" points="860,-0.5 860,-21.5 964,-21.5 964,-0.5 860,-0.5"/>
<text text-anchor="middle" x="912" y="-8.5" font-family="Helvetica,sans-Serif" font-size="10.00">TabletKeymap.cpp</text>
</a>
</g>
<!-- Node1&#45;&gt;Node9 -->
<g id="edge16" class="edge"><title>Node1&#45;&gt;Node9</title>
<path fill="none" stroke="midnightblue" d="M618.977,-57.0443C683.028,-47.9552 772.587,-34.8614 851,-22 853.867,-21.5297 856.808,-21.0363 859.775,-20.5298"/>
<polygon fill="midnightblue" stroke="midnightblue" points="618.333,-53.6006 608.922,-58.468 619.314,-60.5314 618.333,-53.6006"/>
</g>
<!-- Node10 -->
<g id="node19" class="node"><title>Node10</title>
<a xlink:href="VirtualKeyboardPreferences_8cpp.htm" target="_top" xlink:title="VirtualKeyboardPreferences.cpp">
<polygon fill="white" stroke="black" points="982,-0.5 982,-21.5 1150,-21.5 1150,-0.5 982,-0.5"/>
<text text-anchor="middle" x="1066" y="-8.5" font-family="Helvetica,sans-Serif" font-size="10.00">VirtualKeyboardPreferences.cpp</text>
</a>
</g>
<!-- Node1&#45;&gt;Node10 -->
<g id="edge18" class="edge"><title>Node1&#45;&gt;Node10</title>
<path fill="none" stroke="midnightblue" d="M621.759,-59.8168C710.648,-50.55 851.343,-35.6919 973,-22 975.908,-21.6727 978.867,-21.337 981.855,-20.9958"/>
<polygon fill="midnightblue" stroke="midnightblue" points="621.301,-56.3455 611.717,-60.8629 622.026,-63.3079 621.301,-56.3455"/>
</g>
</g>
</svg>
