<?xml version="1.0" encoding="UTF-8" standalone="no"?>
<!DOCTYPE svg PUBLIC "-//W3C//DTD SVG 1.1//EN"
 "http://www.w3.org/Graphics/SVG/1.1/DTD/svg11.dtd">
<!-- Generated by graphviz version 2.26.3 (20100126.1600)
 -->
<!-- Title: G Pages: 1 -->
<svg width="443pt" height="262pt"
 viewBox="0.00 0.00 443.00 262.00" xmlns="http://www.w3.org/2000/svg" xmlns:xlink="http://www.w3.org/1999/xlink">
<g id="graph1" class="graph" transform="scale(1 1) rotate(0) translate(4 258)">
<title>G</title>
<polygon fill="white" stroke="white" points="-4,5 -4,-258 440,-258 440,5 -4,5"/>
<!-- Node1 -->
<g id="node1" class="node"><title>Node1</title>
<polygon fill="#bfbfbf" stroke="black" points="226.5,-232.5 226.5,-253.5 339.5,-253.5 339.5,-232.5 226.5,-232.5"/>
<text text-anchor="middle" x="283" y="-240.5" font-family="Helvetica,sans-Serif" font-size="10.00">VirtualGestureStrip.h</text>
</g>
<!-- Node2 -->
<g id="node3" class="node"><title>Node2</title>
<a xlink:href="GestureFeedbackItem_8h.htm" target="_top" xlink:title="GestureFeedbackItem.h">
<polygon fill="white" stroke="black" points="127,-174.5 127,-195.5 255,-195.5 255,-174.5 127,-174.5"/>
<text text-anchor="middle" x="191" y="-182.5" font-family="Helvetica,sans-Serif" font-size="10.00">GestureFeedbackItem.h</text>
</a>
</g>
<!-- Node1&#45;&gt;Node2 -->
<g id="edge2" class="edge"><title>Node1&#45;&gt;Node2</title>
<path fill="none" stroke="midnightblue" d="M257.338,-226.821C241.491,-216.831 221.613,-204.299 207.767,-195.571"/>
<polygon fill="midnightblue" stroke="midnightblue" points="255.8,-229.99 266.126,-232.362 259.533,-224.068 255.8,-229.99"/>
</g>
<!-- Node4 -->
<g id="node7" class="node"><title>Node4</title>
<a xlink:href="VirtualCoreNavi_8h.htm" target="_top" xlink:title="VirtualCoreNavi.h">
<polygon fill="white" stroke="black" points="234,-116.5 234,-137.5 332,-137.5 332,-116.5 234,-116.5"/>
<text text-anchor="middle" x="283" y="-124.5" font-family="Helvetica,sans-Serif" font-size="10.00">VirtualCoreNavi.h</text>
</a>
</g>
<!-- Node1&#45;&gt;Node4 -->
<g id="edge18" class="edge"><title>Node1&#45;&gt;Node4</title>
<path fill="none" stroke="midnightblue" d="M283,-222.123C283,-197.298 283,-156.824 283,-137.679"/>
<polygon fill="midnightblue" stroke="midnightblue" points="279.5,-222.295 283,-232.295 286.5,-222.295 279.5,-222.295"/>
</g>
<!-- Node10 -->
<g id="node20" class="node"><title>Node10</title>
<a xlink:href="VirtualGestureStrip_8cpp.htm" target="_top" xlink:title="VirtualGestureStrip.cpp">
<polygon fill="white" stroke="black" points="310.5,-174.5 310.5,-195.5 435.5,-195.5 435.5,-174.5 310.5,-174.5"/>
<text text-anchor="middle" x="373" y="-182.5" font-family="Helvetica,sans-Serif" font-size="10.00">VirtualGestureStrip.cpp</text>
</a>
</g>
<!-- Node1&#45;&gt;Node10 -->
<g id="edge20" class="edge"><title>Node1&#45;&gt;Node10</title>
<path fill="none" stroke="midnightblue" d="M308.105,-226.821C323.607,-216.831 343.053,-204.299 356.597,-195.571"/>
<polygon fill="midnightblue" stroke="midnightblue" points="306.017,-224.003 299.507,-232.362 309.809,-229.887 306.017,-224.003"/>
</g>
<!-- Node3 -->
<g id="node5" class="node"><title>Node3</title>
<a xlink:href="GestureFeedbackItem_8cpp.htm" target="_top" xlink:title="GestureFeedbackItem.cpp">
<polygon fill="white" stroke="black" points="76,-116.5 76,-137.5 216,-137.5 216,-116.5 76,-116.5"/>
<text text-anchor="middle" x="146" y="-124.5" font-family="Helvetica,sans-Serif" font-size="10.00">GestureFeedbackItem.cpp</text>
</a>
</g>
<!-- Node2&#45;&gt;Node3 -->
<g id="edge4" class="edge"><title>Node2&#45;&gt;Node3</title>
<path fill="none" stroke="midnightblue" d="M176.453,-166.25C169.082,-156.75 160.404,-145.565 154.201,-137.571"/>
<polygon fill="midnightblue" stroke="midnightblue" points="173.851,-168.607 182.746,-174.362 179.382,-164.316 173.851,-168.607"/>
</g>
<!-- Node2&#45;&gt;Node4 -->
<g id="edge6" class="edge"><title>Node2&#45;&gt;Node4</title>
<path fill="none" stroke="midnightblue" d="M216.662,-168.821C232.509,-158.831 252.387,-146.299 266.233,-137.571"/>
<polygon fill="midnightblue" stroke="midnightblue" points="214.467,-166.068 207.874,-174.362 218.2,-171.99 214.467,-166.068"/>
</g>
<!-- Node5 -->
<g id="node9" class="node"><title>Node5</title>
<a xlink:href="EmulatedCardWindow_8h.htm" target="_top" xlink:title="EmulatedCardWindow.h">
<polygon fill="white" stroke="black" points="149.5,-58.5 149.5,-79.5 278.5,-79.5 278.5,-58.5 149.5,-58.5"/>
<text text-anchor="middle" x="214" y="-66.5" font-family="Helvetica,sans-Serif" font-size="10.00">EmulatedCardWindow.h</text>
</a>
</g>
<!-- Node4&#45;&gt;Node5 -->
<g id="edge8" class="edge"><title>Node4&#45;&gt;Node5</title>
<path fill="none" stroke="midnightblue" d="M262.408,-109.691C250.76,-99.8996 236.571,-87.973 226.575,-79.5707"/>
<polygon fill="midnightblue" stroke="midnightblue" points="260.437,-112.607 270.344,-116.362 264.942,-107.248 260.437,-112.607"/>
</g>
<!-- Node9 -->
<g id="node17" class="node"><title>Node9</title>
<a xlink:href="VirtualCoreNavi_8cpp.htm" target="_top" xlink:title="VirtualCoreNavi.cpp">
<polygon fill="white" stroke="black" points="296,-58.5 296,-79.5 406,-79.5 406,-58.5 296,-58.5"/>
<text text-anchor="middle" x="351" y="-66.5" font-family="Helvetica,sans-Serif" font-size="10.00">VirtualCoreNavi.cpp</text>
</a>
</g>
<!-- Node4&#45;&gt;Node9 -->
<g id="edge16" class="edge"><title>Node4&#45;&gt;Node9</title>
<path fill="none" stroke="midnightblue" d="M303.294,-109.691C314.773,-99.8996 328.756,-87.973 338.607,-79.5707"/>
<polygon fill="midnightblue" stroke="midnightblue" points="300.809,-107.209 295.472,-116.362 305.352,-112.535 300.809,-107.209"/>
</g>
<!-- Node6 -->
<g id="node11" class="node"><title>Node6</title>
<a xlink:href="SystemUiController_8cpp.htm" target="_top" xlink:title="SystemUiController.cpp">
<polygon fill="white" stroke="black" points="-0.5,-0.5 -0.5,-21.5 126.5,-21.5 126.5,-0.5 -0.5,-0.5"/>
<text text-anchor="middle" x="63" y="-8.5" font-family="Helvetica,sans-Serif" font-size="10.00">SystemUiController.cpp</text>
</a>
</g>
<!-- Node5&#45;&gt;Node6 -->
<g id="edge10" class="edge"><title>Node5&#45;&gt;Node6</title>
<path fill="none" stroke="midnightblue" d="M177.224,-54.8742C150.429,-44.5819 114.71,-30.862 90.3962,-21.5231"/>
<polygon fill="midnightblue" stroke="midnightblue" points="176.065,-58.1782 186.655,-58.4966 178.575,-51.6437 176.065,-58.1782"/>
</g>
<!-- Node7 -->
<g id="node13" class="node"><title>Node7</title>
<a xlink:href="EmulatedCardWindow_8cpp.htm" target="_top" xlink:title="EmulatedCardWindow.cpp">
<polygon fill="white" stroke="black" points="144,-0.5 144,-21.5 284,-21.5 284,-0.5 144,-0.5"/>
<text text-anchor="middle" x="214" y="-8.5" font-family="Helvetica,sans-Serif" font-size="10.00">EmulatedCardWindow.cpp</text>
</a>
</g>
<!-- Node5&#45;&gt;Node7 -->
<g id="edge12" class="edge"><title>Node5&#45;&gt;Node7</title>
<path fill="none" stroke="midnightblue" d="M214,-48.1906C214,-39.1684 214,-28.9941 214,-21.5707"/>
<polygon fill="midnightblue" stroke="midnightblue" points="210.5,-48.3619 214,-58.3619 217.5,-48.3619 210.5,-48.3619"/>
</g>
<!-- Node8 -->
<g id="node15" class="node"><title>Node8</title>
<a xlink:href="WebAppMgrProxy_8cpp.htm" target="_top" xlink:title="WebAppMgrProxy.cpp">
<polygon fill="white" stroke="black" points="302,-0.5 302,-21.5 424,-21.5 424,-0.5 302,-0.5"/>
<text text-anchor="middle" x="363" y="-8.5" font-family="Helvetica,sans-Serif" font-size="10.00">WebAppMgrProxy.cpp</text>
</a>
</g>
<!-- Node5&#45;&gt;Node8 -->
<g id="edge14" class="edge"><title>Node5&#45;&gt;Node8</title>
<path fill="none" stroke="midnightblue" d="M250.637,-54.7386C277.038,-44.4616 312.08,-30.821 335.967,-21.5231"/>
<polygon fill="midnightblue" stroke="midnightblue" points="249.032,-51.6075 240.983,-58.4966 251.571,-58.1307 249.032,-51.6075"/>
</g>
</g>
</svg>
