<?xml version="1.0" encoding="UTF-8" standalone="no"?>
<!DOCTYPE svg PUBLIC "-//W3C//DTD SVG 1.1//EN"
 "http://www.w3.org/Graphics/SVG/1.1/DTD/svg11.dtd">
<!-- Generated by graphviz version 2.26.3 (20100126.1600)
 -->
<!-- Title: G Pages: 1 -->
<svg width="947pt" height="262pt"
 viewBox="0.00 0.00 947.00 262.00" xmlns="http://www.w3.org/2000/svg" xmlns:xlink="http://www.w3.org/1999/xlink">
<g id="graph1" class="graph" transform="scale(1 1) rotate(0) translate(4 258)">
<title>G</title>
<polygon fill="white" stroke="white" points="-4,5 -4,-258 944,-258 944,5 -4,5"/>
<!-- Node1 -->
<g id="node1" class="node"><title>Node1</title>
<polygon fill="#bfbfbf" stroke="black" points="717.5,-232.5 717.5,-253.5 870.5,-253.5 870.5,-232.5 717.5,-232.5"/>
<text text-anchor="middle" x="794" y="-240.5" font-family="Helvetica,sans-Serif" font-size="10.00">VolumeControlAlertWindow.h</text>
</g>
<!-- Node2 -->
<g id="node3" class="node"><title>Node2</title>
<a xlink:href="Common_8h.htm" target="_top" xlink:title="Common.h">
<polygon fill="white" stroke="black" points="622.5,-0.5 622.5,-21.5 689.5,-21.5 689.5,-0.5 622.5,-0.5"/>
<text text-anchor="middle" x="656" y="-8.5" font-family="Helvetica,sans-Serif" font-size="10.00">Common.h</text>
</a>
</g>
<!-- Node1&#45;&gt;Node2 -->
<g id="edge2" class="edge"><title>Node1&#45;&gt;Node2</title>
<path fill="none" stroke="midnightblue" d="M787.712,-232.429C766.204,-196.271 695.369,-77.1858 667.453,-30.2551"/>
<polygon fill="midnightblue" stroke="midnightblue" points="670.445,-28.4387 662.325,-21.6335 664.429,-32.0173 670.445,-28.4387"/>
</g>
<!-- Node3 -->
<g id="node5" class="node"><title>Node3</title>
<a xlink:href="AlertWindow_8h.htm" target="_top" xlink:title="AlertWindow.h">
<polygon fill="white" stroke="black" points="546,-174.5 546,-195.5 630,-195.5 630,-174.5 546,-174.5"/>
<text text-anchor="middle" x="588" y="-182.5" font-family="Helvetica,sans-Serif" font-size="10.00">AlertWindow.h</text>
</a>
</g>
<!-- Node1&#45;&gt;Node3 -->
<g id="edge4" class="edge"><title>Node1&#45;&gt;Node3</title>
<path fill="none" stroke="midnightblue" d="M756.695,-232.497C722.675,-222.918 672.245,-208.72 635.386,-198.342"/>
<polygon fill="midnightblue" stroke="midnightblue" points="635.949,-194.864 625.375,-195.523 634.052,-201.602 635.949,-194.864"/>
</g>
<!-- Node13 -->
<g id="node33" class="node"><title>Node13</title>
<polygon fill="white" stroke="#bfbfbf" points="845.5,-0.5 845.5,-21.5 904.5,-21.5 904.5,-0.5 845.5,-0.5"/>
<text text-anchor="middle" x="875" y="-8.5" font-family="Helvetica,sans-Serif" font-size="10.00">QPixmap</text>
</g>
<!-- Node1&#45;&gt;Node13 -->
<g id="edge56" class="edge"><title>Node1&#45;&gt;Node13</title>
<path fill="none" stroke="midnightblue" d="M798.415,-232.445C809.104,-206.682 836.895,-138.417 856,-80 861.242,-63.9723 866.266,-45.5457 869.83,-31.7684"/>
<polygon fill="midnightblue" stroke="midnightblue" points="873.279,-32.4049 872.351,-21.8508 866.495,-30.6801 873.279,-32.4049"/>
</g>
<!-- Node19 -->
<g id="node46" class="node"><title>Node19</title>
<polygon fill="white" stroke="#bfbfbf" points="902.5,-174.5 902.5,-195.5 939.5,-195.5 939.5,-174.5 902.5,-174.5"/>
<text text-anchor="middle" x="921" y="-182.5" font-family="Helvetica,sans-Serif" font-size="10.00">map</text>
</g>
<!-- Node1&#45;&gt;Node19 -->
<g id="edge54" class="edge"><title>Node1&#45;&gt;Node19</title>
<path fill="none" stroke="midnightblue" d="M816.999,-232.497C838.389,-222.728 870.303,-208.153 893.132,-197.727"/>
<polygon fill="midnightblue" stroke="midnightblue" points="894.66,-200.877 902.302,-193.539 891.752,-194.51 894.66,-200.877"/>
</g>
<!-- Node3&#45;&gt;Node2 -->
<g id="edge6" class="edge"><title>Node3&#45;&gt;Node2</title>
<path fill="none" stroke="midnightblue" d="M594.329,-174.332C605.107,-155.755 627.108,-116.005 640,-80 645.692,-64.1048 649.88,-45.4125 652.541,-31.4954"/>
<polygon fill="midnightblue" stroke="midnightblue" points="656.013,-31.9656 654.347,-21.5025 649.124,-30.7207 656.013,-31.9656"/>
</g>
<!-- Node4 -->
<g id="node8" class="node"><title>Node4</title>
<a xlink:href="sptr_8h.htm" target="_top" xlink:title="sptr.h">
<polygon fill="white" stroke="black" points="566.5,-58.5 566.5,-79.5 609.5,-79.5 609.5,-58.5 566.5,-58.5"/>
<text text-anchor="middle" x="588" y="-66.5" font-family="Helvetica,sans-Serif" font-size="10.00">sptr.h</text>
</a>
</g>
<!-- Node3&#45;&gt;Node4 -->
<g id="edge8" class="edge"><title>Node3&#45;&gt;Node4</title>
<path fill="none" stroke="midnightblue" d="M588,-174.295C588,-155.131 588,-114.654 588,-89.8434"/>
<polygon fill="midnightblue" stroke="midnightblue" points="591.5,-89.6792 588,-79.6792 584.5,-89.6792 591.5,-89.6792"/>
</g>
<!-- Node6 -->
<g id="node13" class="node"><title>Node6</title>
<a xlink:href="Window_8h.htm" target="_top" xlink:title="Window.h">
<polygon fill="white" stroke="black" points="161,-58.5 161,-79.5 223,-79.5 223,-58.5 161,-58.5"/>
<text text-anchor="middle" x="192" y="-66.5" font-family="Helvetica,sans-Serif" font-size="10.00">Window.h</text>
</a>
</g>
<!-- Node3&#45;&gt;Node6 -->
<g id="edge14" class="edge"><title>Node3&#45;&gt;Node6</title>
<path fill="none" stroke="midnightblue" d="M551.808,-174.398C478.077,-152.8 310.888,-103.826 233.159,-81.0566"/>
<polygon fill="midnightblue" stroke="midnightblue" points="233.828,-77.6055 223.247,-78.1531 231.86,-84.3232 233.828,-77.6055"/>
</g>
<!-- Node11 -->
<g id="node25" class="node"><title>Node11</title>
<a xlink:href="HostWindow_8h.htm" target="_top" xlink:title="HostWindow.h">
<polygon fill="white" stroke="black" points="445,-116.5 445,-137.5 529,-137.5 529,-116.5 445,-116.5"/>
<text text-anchor="middle" x="487" y="-124.5" font-family="Helvetica,sans-Serif" font-size="10.00">HostWindow.h</text>
</a>
</g>
<!-- Node3&#45;&gt;Node11 -->
<g id="edge28" class="edge"><title>Node3&#45;&gt;Node11</title>
<path fill="none" stroke="midnightblue" d="M569.475,-174.362C554.099,-165.532 532.004,-152.844 514.553,-142.822"/>
<polygon fill="midnightblue" stroke="midnightblue" points="515.822,-139.515 505.408,-137.571 512.336,-145.586 515.822,-139.515"/>
</g>
<!-- Node4&#45;&gt;Node2 -->
<g id="edge10" class="edge"><title>Node4&#45;&gt;Node2</title>
<path fill="none" stroke="midnightblue" d="M600.472,-58.3619C610.345,-49.9408 624.333,-38.0105 635.798,-28.2308"/>
<polygon fill="midnightblue" stroke="midnightblue" points="638.27,-30.7231 643.607,-21.5707 633.727,-25.3972 638.27,-30.7231"/>
</g>
<!-- Node5 -->
<g id="node11" class="node"><title>Node5</title>
<polygon fill="white" stroke="#bfbfbf" points="494.5,-0.5 494.5,-21.5 535.5,-21.5 535.5,-0.5 494.5,-0.5"/>
<text text-anchor="middle" x="515" y="-8.5" font-family="Helvetica,sans-Serif" font-size="10.00">glib.h</text>
</g>
<!-- Node4&#45;&gt;Node5 -->
<g id="edge12" class="edge"><title>Node4&#45;&gt;Node5</title>
<path fill="none" stroke="midnightblue" d="M574.611,-58.3619C563.909,-49.859 548.704,-37.7785 536.329,-27.9466"/>
<polygon fill="midnightblue" stroke="midnightblue" points="538.311,-25.0511 528.304,-21.5707 533.957,-30.5318 538.311,-25.0511"/>
</g>
<!-- Node6&#45;&gt;Node2 -->
<g id="edge16" class="edge"><title>Node6&#45;&gt;Node2</title>
<path fill="none" stroke="midnightblue" d="M223.333,-59.88C226.249,-59.1837 229.171,-58.5423 232,-58 268.706,-50.9641 511.142,-25.8023 612.05,-15.4737"/>
<polygon fill="midnightblue" stroke="midnightblue" points="612.624,-18.9333 622.216,-14.4343 611.912,-11.9696 612.624,-18.9333"/>
</g>
<!-- Node6&#45;&gt;Node5 -->
<g id="edge22" class="edge"><title>Node6&#45;&gt;Node5</title>
<path fill="none" stroke="midnightblue" d="M223.366,-60.0433C226.275,-59.3127 229.186,-58.6188 232,-58 323.015,-37.9843 432.166,-22.1196 484.321,-15.0305"/>
<polygon fill="midnightblue" stroke="midnightblue" points="484.821,-18.4949 494.264,-13.6918 483.887,-11.5575 484.821,-18.4949"/>
</g>
<!-- Node7 -->
<g id="node16" class="node"><title>Node7</title>
<polygon fill="white" stroke="#bfbfbf" points="178,-0.5 178,-21.5 228,-21.5 228,-0.5 178,-0.5"/>
<text text-anchor="middle" x="203" y="-8.5" font-family="Helvetica,sans-Serif" font-size="10.00">stdint.h</text>
</g>
<!-- Node6&#45;&gt;Node7 -->
<g id="edge18" class="edge"><title>Node6&#45;&gt;Node7</title>
<path fill="none" stroke="midnightblue" d="M194.018,-58.3619C195.444,-50.8401 197.402,-40.5187 199.125,-31.4308"/>
<polygon fill="midnightblue" stroke="midnightblue" points="202.571,-32.0477 200.995,-21.5707 195.693,-30.7433 202.571,-32.0477"/>
</g>
<!-- Node8 -->
<g id="node18" class="node"><title>Node8</title>
<polygon fill="white" stroke="#bfbfbf" points="245.5,-0.5 245.5,-21.5 288.5,-21.5 288.5,-0.5 245.5,-0.5"/>
<text text-anchor="middle" x="267" y="-8.5" font-family="Helvetica,sans-Serif" font-size="10.00">string</text>
</g>
<!-- Node6&#45;&gt;Node8 -->
<g id="edge20" class="edge"><title>Node6&#45;&gt;Node8</title>
<path fill="none" stroke="midnightblue" d="M205.756,-58.3619C216.751,-49.859 232.373,-37.7785 245.086,-27.9466"/>
<polygon fill="midnightblue" stroke="midnightblue" points="247.562,-30.4569 253.331,-21.5707 243.279,-24.9195 247.562,-30.4569"/>
</g>
<!-- Node9 -->
<g id="node21" class="node"><title>Node9</title>
<polygon fill="white" stroke="#bfbfbf" points="0,-0.5 0,-21.5 98,-21.5 98,-0.5 0,-0.5"/>
<text text-anchor="middle" x="49" y="-8.5" font-family="Helvetica,sans-Serif" font-size="10.00">QGraphicsObject</text>
</g>
<!-- Node6&#45;&gt;Node9 -->
<g id="edge24" class="edge"><title>Node6&#45;&gt;Node9</title>
<path fill="none" stroke="midnightblue" d="M166.104,-58.4966C143.367,-49.2746 110.07,-35.7695 84.7877,-25.5153"/>
<polygon fill="midnightblue" stroke="midnightblue" points="85.7691,-22.1365 75.1868,-21.6212 83.1381,-28.6232 85.7691,-22.1365"/>
</g>
<!-- Node10 -->
<g id="node23" class="node"><title>Node10</title>
<polygon fill="white" stroke="#bfbfbf" points="115.5,-0.5 115.5,-21.5 160.5,-21.5 160.5,-0.5 115.5,-0.5"/>
<text text-anchor="middle" x="138" y="-8.5" font-family="Helvetica,sans-Serif" font-size="10.00">QSize</text>
</g>
<!-- Node6&#45;&gt;Node10 -->
<g id="edge26" class="edge"><title>Node6&#45;&gt;Node10</title>
<path fill="none" stroke="midnightblue" d="M182.096,-58.3619C174.484,-50.1861 163.792,-38.7025 154.843,-29.0907"/>
<polygon fill="midnightblue" stroke="midnightblue" points="157.217,-26.5046 147.842,-21.5707 152.094,-31.2746 157.217,-26.5046"/>
</g>
<!-- Node11&#45;&gt;Node2 -->
<g id="edge30" class="edge"><title>Node11&#45;&gt;Node2</title>
<path fill="none" stroke="midnightblue" d="M529.273,-119.896C557.063,-113.426 592.809,-101.475 618,-80 633.136,-67.0967 643.339,-46.5845 649.328,-31.2734"/>
<polygon fill="midnightblue" stroke="midnightblue" points="652.695,-32.256 652.811,-21.6618 646.113,-29.8715 652.695,-32.256"/>
</g>
<!-- Node11&#45;&gt;Node6 -->
<g id="edge32" class="edge"><title>Node11&#45;&gt;Node6</title>
<path fill="none" stroke="midnightblue" d="M444.808,-120.367C396.132,-112.463 313.504,-98.2726 233.611,-80.2385"/>
<polygon fill="midnightblue" stroke="midnightblue" points="233.906,-76.7159 223.378,-77.9036 232.349,-83.5405 233.906,-76.7159"/>
</g>
<!-- Node11&#45;&gt;Node11 -->
<g id="edge34" class="edge"><title>Node11&#45;&gt;Node11</title>
<path fill="none" stroke="midnightblue" d="M517.563,-137.524C533.083,-139.061 547,-135.553 547,-127 547,-120.385 538.675,-116.788 527.722,-116.208"/>
<polygon fill="midnightblue" stroke="midnightblue" points="527.467,-112.714 517.563,-116.476 527.652,-119.711 527.467,-112.714"/>
</g>
<!-- Node12 -->
<g id="node30" class="node"><title>Node12</title>
<a xlink:href="HostWindowData_8h.htm" target="_top" xlink:title="HostWindowData.h">
<polygon fill="white" stroke="black" points="740.5,-58.5 740.5,-79.5 847.5,-79.5 847.5,-58.5 740.5,-58.5"/>
<text text-anchor="middle" x="794" y="-66.5" font-family="Helvetica,sans-Serif" font-size="10.00">HostWindowData.h</text>
</a>
</g>
<!-- Node11&#45;&gt;Node12 -->
<g id="edge36" class="edge"><title>Node11&#45;&gt;Node12</title>
<path fill="none" stroke="midnightblue" d="M529.043,-119.057C580.97,-109.247 669.818,-92.4612 730.176,-81.058"/>
<polygon fill="midnightblue" stroke="midnightblue" points="731.176,-84.431 740.353,-79.1353 729.877,-77.5527 731.176,-84.431"/>
</g>
<!-- Node15 -->
<g id="node37" class="node"><title>Node15</title>
<a xlink:href="InputClient_8h.htm" target="_top" xlink:title="InputClient.h">
<polygon fill="white" stroke="black" points="240.5,-58.5 240.5,-79.5 315.5,-79.5 315.5,-58.5 240.5,-58.5"/>
<text text-anchor="middle" x="278" y="-66.5" font-family="Helvetica,sans-Serif" font-size="10.00">InputClient.h</text>
</a>
</g>
<!-- Node11&#45;&gt;Node15 -->
<g id="edge44" class="edge"><title>Node11&#45;&gt;Node15</title>
<path fill="none" stroke="midnightblue" d="M449.152,-116.497C414.381,-106.847 362.714,-92.5091 325.248,-82.112"/>
<polygon fill="midnightblue" stroke="midnightblue" points="326.139,-78.7268 315.567,-79.4252 324.267,-85.4719 326.139,-78.7268"/>
</g>
<!-- Node17 -->
<g id="node42" class="node"><title>Node17</title>
<polygon fill="white" stroke="#bfbfbf" points="333,-58.5 333,-79.5 407,-79.5 407,-58.5 333,-58.5"/>
<text text-anchor="middle" x="370" y="-66.5" font-family="Helvetica,sans-Serif" font-size="10.00">PIpcBuffer.h</text>
</g>
<!-- Node11&#45;&gt;Node17 -->
<g id="edge50" class="edge"><title>Node11&#45;&gt;Node17</title>
<path fill="none" stroke="midnightblue" d="M465.812,-116.497C447.538,-107.438 420.928,-94.2462 400.385,-84.0628"/>
<polygon fill="midnightblue" stroke="midnightblue" points="401.94,-80.9269 391.426,-79.6212 398.831,-87.1986 401.94,-80.9269"/>
</g>
<!-- Node18 -->
<g id="node44" class="node"><title>Node18</title>
<polygon fill="white" stroke="#bfbfbf" points="425,-58.5 425,-79.5 549,-79.5 549,-58.5 425,-58.5"/>
<text text-anchor="middle" x="487" y="-66.5" font-family="Helvetica,sans-Serif" font-size="10.00">PIpcChannelListener.h</text>
</g>
<!-- Node11&#45;&gt;Node18 -->
<g id="edge52" class="edge"><title>Node11&#45;&gt;Node18</title>
<path fill="none" stroke="midnightblue" d="M487,-116.362C487,-108.922 487,-98.7427 487,-89.7276"/>
<polygon fill="midnightblue" stroke="midnightblue" points="490.5,-89.5706 487,-79.5707 483.5,-89.5707 490.5,-89.5706"/>
</g>
<!-- Node12&#45;&gt;Node2 -->
<g id="edge38" class="edge"><title>Node12&#45;&gt;Node2</title>
<path fill="none" stroke="midnightblue" d="M769.009,-58.4966C747.067,-49.2746 714.934,-35.7695 690.536,-25.5153"/>
<polygon fill="midnightblue" stroke="midnightblue" points="691.846,-22.2693 681.271,-21.6212 689.134,-28.7225 691.846,-22.2693"/>
</g>
<!-- Node12&#45;&gt;Node13 -->
<g id="edge40" class="edge"><title>Node12&#45;&gt;Node13</title>
<path fill="none" stroke="midnightblue" d="M808.857,-58.3619C820.846,-49.7773 837.927,-37.5459 851.728,-27.6636"/>
<polygon fill="midnightblue" stroke="midnightblue" points="854.145,-30.2383 860.238,-21.5707 850.069,-24.5469 854.145,-30.2383"/>
</g>
<!-- Node14 -->
<g id="node35" class="node"><title>Node14</title>
<polygon fill="white" stroke="#bfbfbf" points="742,-0.5 742,-21.5 828,-21.5 828,-0.5 742,-0.5"/>
<text text-anchor="middle" x="785" y="-8.5" font-family="Helvetica,sans-Serif" font-size="10.00">PIpcChannel.h</text>
</g>
<!-- Node12&#45;&gt;Node14 -->
<g id="edge42" class="edge"><title>Node12&#45;&gt;Node14</title>
<path fill="none" stroke="midnightblue" d="M792.349,-58.3619C791.195,-50.9219 789.615,-40.7427 788.216,-31.7276"/>
<polygon fill="midnightblue" stroke="midnightblue" points="791.632,-30.9157 786.64,-21.5707 784.715,-31.9891 791.632,-30.9157"/>
</g>
<!-- Node15&#45;&gt;Node8 -->
<g id="edge48" class="edge"><title>Node15&#45;&gt;Node8</title>
<path fill="none" stroke="midnightblue" d="M275.982,-58.3619C274.556,-50.8401 272.598,-40.5187 270.875,-31.4308"/>
<polygon fill="midnightblue" stroke="midnightblue" points="274.307,-30.7433 269.005,-21.5707 267.429,-32.0477 274.307,-30.7433"/>
</g>
<!-- Node16 -->
<g id="node39" class="node"><title>Node16</title>
<polygon fill="white" stroke="#bfbfbf" points="306,-0.5 306,-21.5 404,-21.5 404,-0.5 306,-0.5"/>
<text text-anchor="middle" x="355" y="-8.5" font-family="Helvetica,sans-Serif" font-size="10.00">palmimedefines.h</text>
</g>
<!-- Node15&#45;&gt;Node16 -->
<g id="edge46" class="edge"><title>Node15&#45;&gt;Node16</title>
<path fill="none" stroke="midnightblue" d="M292.123,-58.3619C303.52,-49.7773 319.758,-37.5459 332.878,-27.6636"/>
<polygon fill="midnightblue" stroke="midnightblue" points="335.085,-30.3829 340.967,-21.5707 330.873,-24.7916 335.085,-30.3829"/>
</g>
</g>
</svg>
