<?xml version="1.0" encoding="UTF-8" standalone="no"?>
<!DOCTYPE svg PUBLIC "-//W3C//DTD SVG 1.1//EN"
 "http://www.w3.org/Graphics/SVG/1.1/DTD/svg11.dtd">
<!-- Generated by graphviz version 2.26.3 (20100126.1600)
 -->
<!-- Title: G Pages: 1 -->
<svg width="1871pt" height="320pt"
 viewBox="0.00 0.00 1870.83 320.00" xmlns="http://www.w3.org/2000/svg" xmlns:xlink="http://www.w3.org/1999/xlink">
<g id="graph1" class="graph" transform="scale(1 1) rotate(0) translate(4 316)">
<title>G</title>
<polygon fill="white" stroke="white" points="-4,5 -4,-316 1867.83,-316 1867.83,5 -4,5"/>
<!-- Node1 -->
<g id="node1" class="node"><title>Node1</title>
<polygon fill="#bfbfbf" stroke="black" points="902.873,-290.5 902.873,-311.5 1009.87,-311.5 1009.87,-290.5 902.873,-290.5"/>
<text text-anchor="middle" x="956.373" y="-298.5" font-family="Helvetica,sans-Serif" font-size="10.00">WebAppManager.h</text>
</g>
<!-- Node2 -->
<g id="node3" class="node"><title>Node2</title>
<a xlink:href="Common_8h.htm" target="_top" xlink:title="Common.h">
<polygon fill="white" stroke="black" points="1179.87,-0.5 1179.87,-21.5 1246.87,-21.5 1246.87,-0.5 1179.87,-0.5"/>
<text text-anchor="middle" x="1213.37" y="-8.5" font-family="Helvetica,sans-Serif" font-size="10.00">Common.h</text>
</a>
</g>
<!-- Node1&#45;&gt;Node2 -->
<g id="edge2" class="edge"><title>Node1&#45;&gt;Node2</title>
<path fill="none" stroke="midnightblue" d="M960.39,-290.22C970.389,-265.047 998.982,-202.385 1045.37,-174 1144.13,-113.574 1212.87,-210.209 1303.37,-138 1332.2,-115.001 1345.79,-88.7082 1325.37,-58 1310.19,-35.1578 1281.52,-23.394 1256.99,-17.3479"/>
<polygon fill="midnightblue" stroke="midnightblue" points="1257.65,-13.91 1247.13,-15.1604 1256.13,-20.7438 1257.65,-13.91"/>
</g>
<!-- Node3 -->
<g id="node5" class="node"><title>Node3</title>
<polygon fill="white" stroke="#bfbfbf" points="275.873,-116.5 275.873,-137.5 312.873,-137.5 312.873,-116.5 275.873,-116.5"/>
<text text-anchor="middle" x="294.373" y="-124.5" font-family="Helvetica,sans-Serif" font-size="10.00">map</text>
</g>
<!-- Node1&#45;&gt;Node3 -->
<g id="edge4" class="edge"><title>Node1&#45;&gt;Node3</title>
<path fill="none" stroke="midnightblue" d="M902.796,-300.213C787.344,-297.866 518.797,-288.73 435.373,-254 379.42,-230.706 331.07,-175.305 308.291,-145.973"/>
<polygon fill="midnightblue" stroke="midnightblue" points="310.897,-143.619 302.062,-137.771 305.323,-147.852 310.897,-143.619"/>
</g>
<!-- Node4 -->
<g id="node7" class="node"><title>Node4</title>
<polygon fill="white" stroke="#bfbfbf" points="475.873,-116.5 475.873,-137.5 504.873,-137.5 504.873,-116.5 475.873,-116.5"/>
<text text-anchor="middle" x="490.373" y="-124.5" font-family="Helvetica,sans-Serif" font-size="10.00">list</text>
</g>
<!-- Node1&#45;&gt;Node4 -->
<g id="edge6" class="edge"><title>Node1&#45;&gt;Node4</title>
<path fill="none" stroke="midnightblue" d="M924.934,-290.48C897.299,-281.15 856.042,-267.022 820.373,-254 705.254,-211.971 569,-158.261 514.58,-136.647"/>
<polygon fill="midnightblue" stroke="midnightblue" points="515.691,-133.322 505.105,-132.879 513.105,-139.827 515.691,-133.322"/>
</g>
<!-- Node5 -->
<g id="node9" class="node"><title>Node5</title>
<polygon fill="white" stroke="#bfbfbf" points="233.873,-58.5 233.873,-79.5 276.873,-79.5 276.873,-58.5 233.873,-58.5"/>
<text text-anchor="middle" x="255.373" y="-66.5" font-family="Helvetica,sans-Serif" font-size="10.00">string</text>
</g>
<!-- Node1&#45;&gt;Node5 -->
<g id="edge8" class="edge"><title>Node1&#45;&gt;Node5</title>
<path fill="none" stroke="midnightblue" d="M902.761,-298.506C771.112,-292.102 439.288,-274.158 393.373,-254 323.676,-223.401 303.829,-204.82 267.373,-138 259.378,-123.345 256.507,-104.563 255.563,-90.2955"/>
<polygon fill="midnightblue" stroke="midnightblue" points="259.048,-89.8415 255.159,-79.9864 252.054,-90.1159 259.048,-89.8415"/>
</g>
<!-- Node6 -->
<g id="node11" class="node"><title>Node6</title>
<polygon fill="white" stroke="#bfbfbf" points="1234.37,-232.5 1234.37,-253.5 1334.37,-253.5 1334.37,-232.5 1234.37,-232.5"/>
<text text-anchor="middle" x="1284.37" y="-240.5" font-family="Helvetica,sans-Serif" font-size="10.00">QCoreApplication</text>
</g>
<!-- Node1&#45;&gt;Node6 -->
<g id="edge10" class="edge"><title>Node1&#45;&gt;Node6</title>
<path fill="none" stroke="midnightblue" d="M1009.99,-291.816C1062.08,-282.852 1143.69,-268.699 1223.89,-254.255"/>
<polygon fill="midnightblue" stroke="midnightblue" points="1224.95,-257.62 1234.17,-252.4 1223.71,-250.731 1224.95,-257.62"/>
</g>
<!-- Node7 -->
<g id="node13" class="node"><title>Node7</title>
<a xlink:href="SyncTask_8h.htm" target="_top" xlink:title="SyncTask.h">
<polygon fill="white" stroke="black" points="889.873,-232.5 889.873,-253.5 960.873,-253.5 960.873,-232.5 889.873,-232.5"/>
<text text-anchor="middle" x="925.373" y="-240.5" font-family="Helvetica,sans-Serif" font-size="10.00">SyncTask.h</text>
</a>
</g>
<!-- Node1&#45;&gt;Node7 -->
<g id="edge12" class="edge"><title>Node1&#45;&gt;Node7</title>
<path fill="none" stroke="midnightblue" d="M950.687,-290.362C946.536,-282.595 940.789,-271.843 935.82,-262.546"/>
<polygon fill="midnightblue" stroke="midnightblue" points="938.824,-260.74 931.023,-253.571 932.65,-264.04 938.824,-260.74"/>
</g>
<!-- Node12 -->
<g id="node30" class="node"><title>Node12</title>
<a xlink:href="Event_8h.htm" target="_top" xlink:title="Event.h">
<polygon fill="white" stroke="black" points="870.373,-116.5 870.373,-137.5 922.373,-137.5 922.373,-116.5 870.373,-116.5"/>
<text text-anchor="middle" x="896.373" y="-124.5" font-family="Helvetica,sans-Serif" font-size="10.00">Event.h</text>
</a>
</g>
<!-- Node1&#45;&gt;Node12 -->
<g id="edge70" class="edge"><title>Node1&#45;&gt;Node12</title>
<path fill="none" stroke="midnightblue" d="M934.714,-290.492C918.79,-282.078 897.249,-269.193 881.373,-254 858.75,-232.35 850.683,-225.898 841.373,-196 838.466,-186.664 837.281,-182.88 841.373,-174 847.139,-161.489 858.06,-151.071 868.66,-143.249"/>
<polygon fill="midnightblue" stroke="midnightblue" points="870.717,-146.082 876.988,-137.542 866.761,-140.308 870.717,-146.082"/>
</g>
<!-- Node20 -->
<g id="node56" class="node"><title>Node20</title>
<a xlink:href="MemoryWatcher_8h.htm" target="_top" xlink:title="MemoryWatcher.h">
<polygon fill="white" stroke="black" points="392.873,-174.5 392.873,-195.5 495.873,-195.5 495.873,-174.5 392.873,-174.5"/>
<text text-anchor="middle" x="444.373" y="-182.5" font-family="Helvetica,sans-Serif" font-size="10.00">MemoryWatcher.h</text>
</a>
</g>
<!-- Node1&#45;&gt;Node20 -->
<g id="edge72" class="edge"><title>Node1&#45;&gt;Node20</title>
<path fill="none" stroke="midnightblue" d="M902.711,-298.281C833.248,-293.748 708.946,-282.175 606.373,-254 558.02,-240.718 505.121,-216.129 473.353,-200.175"/>
<polygon fill="midnightblue" stroke="midnightblue" points="474.702,-196.934 464.201,-195.523 471.53,-203.174 474.702,-196.934"/>
</g>
<!-- Node21 -->
<g id="node61" class="node"><title>Node21</title>
<a xlink:href="SignalSlot_8h.htm" target="_top" xlink:title="SignalSlot.h">
<polygon fill="white" stroke="black" points="674.373,-116.5 674.373,-137.5 746.373,-137.5 746.373,-116.5 674.373,-116.5"/>
<text text-anchor="middle" x="710.373" y="-124.5" font-family="Helvetica,sans-Serif" font-size="10.00">SignalSlot.h</text>
</a>
</g>
<!-- Node1&#45;&gt;Node21 -->
<g id="edge96" class="edge"><title>Node1&#45;&gt;Node21</title>
<path fill="none" stroke="midnightblue" d="M928.254,-290.436C907.345,-281.993 878.546,-269.097 855.373,-254 804.807,-221.056 753.526,-171.501 727.631,-145.088"/>
<polygon fill="midnightblue" stroke="midnightblue" points="729.915,-142.416 720.439,-137.678 724.892,-147.292 729.915,-142.416"/>
</g>
<!-- Node23 -->
<g id="node67" class="node"><title>Node23</title>
<a xlink:href="Timer_8h.htm" target="_top" xlink:title="Timer.h">
<polygon fill="white" stroke="black" points="330.373,-116.5 330.373,-137.5 382.373,-137.5 382.373,-116.5 330.373,-116.5"/>
<text text-anchor="middle" x="356.373" y="-124.5" font-family="Helvetica,sans-Serif" font-size="10.00">Timer.h</text>
</a>
</g>
<!-- Node1&#45;&gt;Node23 -->
<g id="edge98" class="edge"><title>Node1&#45;&gt;Node23</title>
<path fill="none" stroke="midnightblue" d="M902.546,-298.931C823.046,-294.966 669.978,-283.85 543.373,-254 470.159,-236.738 438.504,-248.231 384.373,-196 370.973,-183.07 363.788,-162.846 360.066,-147.63"/>
<polygon fill="midnightblue" stroke="midnightblue" points="363.438,-146.661 357.929,-137.611 356.592,-148.121 363.438,-146.661"/>
</g>
<!-- Node24 -->
<g id="node74" class="node"><title>Node24</title>
<a xlink:href="Window_8h.htm" target="_top" xlink:title="Window.h">
<polygon fill="white" stroke="black" points="158.373,-116.5 158.373,-137.5 220.373,-137.5 220.373,-116.5 158.373,-116.5"/>
<text text-anchor="middle" x="189.373" y="-124.5" font-family="Helvetica,sans-Serif" font-size="10.00">Window.h</text>
</a>
</g>
<!-- Node1&#45;&gt;Node24 -->
<g id="edge100" class="edge"><title>Node1&#45;&gt;Node24</title>
<path fill="none" stroke="midnightblue" d="M902.649,-299.113C739.767,-293.18 260.951,-274.106 234.373,-254 201.106,-228.834 192.35,-177.103 190.099,-148.029"/>
<polygon fill="midnightblue" stroke="midnightblue" points="193.577,-147.544 189.505,-137.763 186.589,-147.949 193.577,-147.544"/>
</g>
<!-- Node27 -->
<g id="node84" class="node"><title>Node27</title>
<a xlink:href="WebAppCache_8h.htm" target="_top" xlink:title="WebAppCache.h">
<polygon fill="white" stroke="black" points="1121.87,-232.5 1121.87,-253.5 1216.87,-253.5 1216.87,-232.5 1121.87,-232.5"/>
<text text-anchor="middle" x="1169.37" y="-240.5" font-family="Helvetica,sans-Serif" font-size="10.00">WebAppCache.h</text>
</a>
</g>
<!-- Node1&#45;&gt;Node27 -->
<g id="edge114" class="edge"><title>Node1&#45;&gt;Node27</title>
<path fill="none" stroke="midnightblue" d="M994.946,-290.497C1030.27,-280.877 1082.71,-266.598 1120.86,-256.209"/>
<polygon fill="midnightblue" stroke="midnightblue" points="1122,-259.528 1130.73,-253.523 1120.16,-252.773 1122,-259.528"/>
</g>
<!-- Node28 -->
<g id="node87" class="node"><title>Node28</title>
<a xlink:href="HostBase_8h.htm" target="_top" xlink:title="HostBase.h">
<polygon fill="white" stroke="black" points="1033.87,-232.5 1033.87,-253.5 1104.87,-253.5 1104.87,-232.5 1033.87,-232.5"/>
<text text-anchor="middle" x="1069.37" y="-240.5" font-family="Helvetica,sans-Serif" font-size="10.00">HostBase.h</text>
</a>
</g>
<!-- Node1&#45;&gt;Node28 -->
<g id="edge118" class="edge"><title>Node1&#45;&gt;Node28</title>
<path fill="none" stroke="midnightblue" d="M976.837,-290.497C994.406,-281.479 1019.96,-268.365 1039.76,-258.201"/>
<polygon fill="midnightblue" stroke="midnightblue" points="1041.38,-261.301 1048.68,-253.621 1038.19,-255.074 1041.38,-261.301"/>
</g>
<!-- Node39 -->
<g id="node113" class="node"><title>Node39</title>
<polygon fill="white" stroke="#bfbfbf" points="1352.37,-232.5 1352.37,-253.5 1430.37,-253.5 1430.37,-232.5 1352.37,-232.5"/>
<text text-anchor="middle" x="1391.37" y="-240.5" font-family="Helvetica,sans-Serif" font-size="10.00">lunaservice.h</text>
</g>
<!-- Node1&#45;&gt;Node39 -->
<g id="edge148" class="edge"><title>Node1&#45;&gt;Node39</title>
<path fill="none" stroke="midnightblue" d="M1010.16,-296.258C1083.17,-289.426 1217.86,-275.422 1342.08,-254.089"/>
<polygon fill="midnightblue" stroke="midnightblue" points="1342.89,-257.5 1352.15,-252.34 1341.7,-250.604 1342.89,-257.5"/>
</g>
<!-- Node40 -->
<g id="node115" class="node"><title>Node40</title>
<polygon fill="white" stroke="#bfbfbf" points="1448.37,-232.5 1448.37,-253.5 1522.37,-253.5 1522.37,-232.5 1448.37,-232.5"/>
<text text-anchor="middle" x="1485.37" y="-240.5" font-family="Helvetica,sans-Serif" font-size="10.00">PIpcBuffer.h</text>
</g>
<!-- Node1&#45;&gt;Node40 -->
<g id="edge150" class="edge"><title>Node1&#45;&gt;Node40</title>
<path fill="none" stroke="midnightblue" d="M1009.93,-298.204C1097.55,-293.102 1277.05,-280.441 1438.21,-254.006"/>
<polygon fill="midnightblue" stroke="midnightblue" points="1439.02,-257.42 1448.31,-252.327 1437.87,-250.515 1439.02,-257.42"/>
</g>
<!-- Node41 -->
<g id="node117" class="node"><title>Node41</title>
<polygon fill="white" stroke="#bfbfbf" points="1539.87,-232.5 1539.87,-253.5 1612.87,-253.5 1612.87,-232.5 1539.87,-232.5"/>
<text text-anchor="middle" x="1576.37" y="-240.5" font-family="Helvetica,sans-Serif" font-size="10.00">PIpcClient.h</text>
</g>
<!-- Node1&#45;&gt;Node41 -->
<g id="edge152" class="edge"><title>Node1&#45;&gt;Node41</title>
<path fill="none" stroke="midnightblue" d="M1010.22,-299.438C1110.73,-295.907 1333.73,-285.166 1529.73,-254.075"/>
<polygon fill="midnightblue" stroke="midnightblue" points="1530.32,-257.526 1539.63,-252.483 1529.2,-250.614 1530.32,-257.526"/>
</g>
<!-- Node42 -->
<g id="node119" class="node"><title>Node42</title>
<polygon fill="white" stroke="#bfbfbf" points="1630.37,-232.5 1630.37,-253.5 1754.37,-253.5 1754.37,-232.5 1630.37,-232.5"/>
<text text-anchor="middle" x="1692.37" y="-240.5" font-family="Helvetica,sans-Serif" font-size="10.00">PIpcChannelListener.h</text>
</g>
<!-- Node1&#45;&gt;Node42 -->
<g id="edge154" class="edge"><title>Node1&#45;&gt;Node42</title>
<path fill="none" stroke="midnightblue" d="M1009.95,-298.727C1121.54,-293.665 1387.14,-279.911 1620.06,-254.073"/>
<polygon fill="midnightblue" stroke="midnightblue" points="1620.53,-257.542 1630.07,-252.952 1619.75,-250.586 1620.53,-257.542"/>
</g>
<!-- Node43 -->
<g id="node121" class="node"><title>Node43</title>
<polygon fill="white" stroke="#bfbfbf" points="1771.87,-232.5 1771.87,-253.5 1860.87,-253.5 1860.87,-232.5 1771.87,-232.5"/>
<text text-anchor="middle" x="1816.37" y="-240.5" font-family="Helvetica,sans-Serif" font-size="10.00">PIpcMessage.h</text>
</g>
<!-- Node1&#45;&gt;Node43 -->
<g id="edge156" class="edge"><title>Node1&#45;&gt;Node43</title>
<path fill="none" stroke="midnightblue" d="M1009.91,-298.908C1162.34,-292.792 1597.68,-274.178 1761.26,-254.091"/>
<polygon fill="midnightblue" stroke="midnightblue" points="1762.16,-257.505 1771.63,-252.766 1761.27,-250.561 1762.16,-257.505"/>
</g>
<!-- Node7&#45;&gt;Node2 -->
<g id="edge14" class="edge"><title>Node7&#45;&gt;Node2</title>
<path fill="none" stroke="midnightblue" d="M929.525,-232.459C936.314,-216.767 951.38,-187.651 974.373,-174 1090.98,-104.768 1165.38,-214.473 1277.37,-138 1308.86,-116.498 1328.49,-90.3944 1308.37,-58 1297,-39.6788 1276.13,-28.2822 1256.84,-21.3097"/>
<polygon fill="midnightblue" stroke="midnightblue" points="1257.84,-17.9562 1247.25,-18.1425 1255.65,-24.6028 1257.84,-17.9562"/>
</g>
<!-- Node8 -->
<g id="node16" class="node"><title>Node8</title>
<a xlink:href="TaskBase_8h.htm" target="_top" xlink:title="TaskBase.h">
<polygon fill="white" stroke="black" points="850.373,-174.5 850.373,-195.5 922.373,-195.5 922.373,-174.5 850.373,-174.5"/>
<text text-anchor="middle" x="886.373" y="-182.5" font-family="Helvetica,sans-Serif" font-size="10.00">TaskBase.h</text>
</a>
</g>
<!-- Node7&#45;&gt;Node8 -->
<g id="edge16" class="edge"><title>Node7&#45;&gt;Node8</title>
<path fill="none" stroke="midnightblue" d="M918.22,-232.362C912.887,-224.431 905.462,-213.389 899.122,-203.961"/>
<polygon fill="midnightblue" stroke="midnightblue" points="901.965,-201.916 893.481,-195.571 896.157,-205.822 901.965,-201.916"/>
</g>
<!-- Node8&#45;&gt;Node2 -->
<g id="edge18" class="edge"><title>Node8&#45;&gt;Node2</title>
<path fill="none" stroke="midnightblue" d="M922.61,-176.574C927.228,-175.634 931.902,-174.748 936.373,-174 1005.21,-162.487 1187.94,-172.912 1248.37,-138 1283.33,-117.808 1311.23,-93.1454 1291.37,-58 1283.34,-43.7723 1269.07,-33.3719 1254.92,-26.0274"/>
<polygon fill="midnightblue" stroke="midnightblue" points="1256.24,-22.7778 1245.71,-21.6329 1253.23,-29.0963 1256.24,-22.7778"/>
</g>
<!-- Node8&#45;&gt;Node4 -->
<g id="edge22" class="edge"><title>Node8&#45;&gt;Node4</title>
<path fill="none" stroke="midnightblue" d="M850.296,-183.351C783.74,-179.66 637.547,-168.517 518.373,-138 517.121,-137.679 515.849,-137.318 514.573,-136.926"/>
<polygon fill="midnightblue" stroke="midnightblue" points="515.564,-133.564 504.97,-133.521 513.225,-140.162 515.564,-133.564"/>
</g>
<!-- Node9 -->
<g id="node19" class="node"><title>Node9</title>
<polygon fill="white" stroke="#bfbfbf" points="631.873,-0.5 631.873,-21.5 672.873,-21.5 672.873,-0.5 631.873,-0.5"/>
<text text-anchor="middle" x="652.373" y="-8.5" font-family="Helvetica,sans-Serif" font-size="10.00">glib.h</text>
</g>
<!-- Node8&#45;&gt;Node9 -->
<g id="edge20" class="edge"><title>Node8&#45;&gt;Node9</title>
<path fill="none" stroke="midnightblue" d="M850.177,-182.316C767.965,-175.885 572.618,-158.589 551.373,-138 525.642,-113.063 521.583,-87.8712 541.373,-58 559.128,-31.2017 595.54,-19.6413 621.828,-14.6807"/>
<polygon fill="midnightblue" stroke="midnightblue" points="622.406,-18.1327 631.693,-13.0339 621.254,-11.2282 622.406,-18.1327"/>
</g>
<!-- Node10 -->
<g id="node22" class="node"><title>Node10</title>
<a xlink:href="sptr_8h.htm" target="_top" xlink:title="sptr.h">
<polygon fill="white" stroke="black" points="1191.87,-58.5 1191.87,-79.5 1234.87,-79.5 1234.87,-58.5 1191.87,-58.5"/>
<text text-anchor="middle" x="1213.37" y="-66.5" font-family="Helvetica,sans-Serif" font-size="10.00">sptr.h</text>
</a>
</g>
<!-- Node8&#45;&gt;Node10 -->
<g id="edge24" class="edge"><title>Node8&#45;&gt;Node10</title>
<path fill="none" stroke="midnightblue" d="M916.259,-174.398C977.94,-152.517 1118.83,-102.538 1181.87,-80.1755"/>
<polygon fill="midnightblue" stroke="midnightblue" points="1183.39,-83.349 1191.65,-76.7071 1181.05,-76.7518 1183.39,-83.349"/>
</g>
<!-- Node11 -->
<g id="node26" class="node"><title>Node11</title>
<a xlink:href="AsyncCaller_8h.htm" target="_top" xlink:title="AsyncCaller.h">
<polygon fill="white" stroke="black" points="739.873,-58.5 739.873,-79.5 820.873,-79.5 820.873,-58.5 739.873,-58.5"/>
<text text-anchor="middle" x="780.373" y="-66.5" font-family="Helvetica,sans-Serif" font-size="10.00">AsyncCaller.h</text>
</a>
</g>
<!-- Node8&#45;&gt;Node11 -->
<g id="edge30" class="edge"><title>Node8&#45;&gt;Node11</title>
<path fill="none" stroke="midnightblue" d="M876.591,-174.295C858.448,-154.441 819.4,-111.709 797.026,-87.2239"/>
<polygon fill="midnightblue" stroke="midnightblue" points="799.461,-84.7003 790.132,-79.6792 794.294,-89.4223 799.461,-84.7003"/>
</g>
<!-- Node8&#45;&gt;Node12 -->
<g id="edge36" class="edge"><title>Node8&#45;&gt;Node12</title>
<path fill="none" stroke="midnightblue" d="M888.207,-174.362C889.504,-166.84 891.284,-156.519 892.851,-147.431"/>
<polygon fill="midnightblue" stroke="midnightblue" points="896.301,-148.02 894.551,-137.571 889.402,-146.831 896.301,-148.02"/>
</g>
<!-- Node18 -->
<g id="node45" class="node"><title>Node18</title>
<a xlink:href="Mutex_8h.htm" target="_top" xlink:title="Mutex.h">
<polygon fill="white" stroke="black" points="1186.87,-116.5 1186.87,-137.5 1239.87,-137.5 1239.87,-116.5 1186.87,-116.5"/>
<text text-anchor="middle" x="1213.37" y="-124.5" font-family="Helvetica,sans-Serif" font-size="10.00">Mutex.h</text>
</a>
</g>
<!-- Node8&#45;&gt;Node18 -->
<g id="edge54" class="edge"><title>Node8&#45;&gt;Node18</title>
<path fill="none" stroke="midnightblue" d="M922.38,-176.86C927.08,-175.862 931.836,-174.883 936.373,-174 1022.11,-157.306 1123.43,-140.971 1176.58,-132.66"/>
<polygon fill="midnightblue" stroke="midnightblue" points="1177.21,-136.105 1186.55,-131.107 1176.14,-129.188 1177.21,-136.105"/>
</g>
<!-- Node19 -->
<g id="node50" class="node"><title>Node19</title>
<a xlink:href="SingletonTimer_8h.htm" target="_top" xlink:title="SingletonTimer.h">
<polygon fill="white" stroke="black" points="560.373,-116.5 560.373,-137.5 656.373,-137.5 656.373,-116.5 560.373,-116.5"/>
<text text-anchor="middle" x="608.373" y="-124.5" font-family="Helvetica,sans-Serif" font-size="10.00">SingletonTimer.h</text>
</a>
</g>
<!-- Node8&#45;&gt;Node19 -->
<g id="edge62" class="edge"><title>Node8&#45;&gt;Node19</title>
<path fill="none" stroke="midnightblue" d="M850.314,-177.477C803.705,-167.753 721.964,-150.699 666.525,-139.132"/>
<polygon fill="midnightblue" stroke="midnightblue" points="666.998,-135.656 656.494,-137.04 665.568,-142.508 666.998,-135.656"/>
</g>
<!-- Node10&#45;&gt;Node2 -->
<g id="edge26" class="edge"><title>Node10&#45;&gt;Node2</title>
<path fill="none" stroke="midnightblue" d="M1213.37,-58.3619C1213.37,-50.9219 1213.37,-40.7427 1213.37,-31.7276"/>
<polygon fill="midnightblue" stroke="midnightblue" points="1216.87,-31.5706 1213.37,-21.5707 1209.87,-31.5707 1216.87,-31.5706"/>
</g>
<!-- Node10&#45;&gt;Node9 -->
<g id="edge28" class="edge"><title>Node10&#45;&gt;Node9</title>
<path fill="none" stroke="midnightblue" d="M1191.68,-65.1205C1178.35,-62.829 1160.91,-59.9953 1145.37,-58 971.076,-35.6184 760.844,-19.0164 683.157,-13.2317"/>
<polygon fill="midnightblue" stroke="midnightblue" points="683.323,-9.73456 673.092,-12.4878 682.807,-16.7155 683.323,-9.73456"/>
</g>
<!-- Node11&#45;&gt;Node2 -->
<g id="edge32" class="edge"><title>Node11&#45;&gt;Node2</title>
<path fill="none" stroke="midnightblue" d="M821.109,-63.5435C902.756,-52.6069 1085.78,-28.0913 1169.75,-16.8429"/>
<polygon fill="midnightblue" stroke="midnightblue" points="1170.28,-20.3034 1179.73,-15.5067 1169.35,-13.3654 1170.28,-20.3034"/>
</g>
<!-- Node11&#45;&gt;Node9 -->
<g id="edge34" class="edge"><title>Node11&#45;&gt;Node9</title>
<path fill="none" stroke="midnightblue" d="M757.193,-58.4966C736.265,-49.0134 705.341,-35.0011 682.502,-24.6521"/>
<polygon fill="midnightblue" stroke="midnightblue" points="683.814,-21.4044 673.261,-20.465 680.925,-27.7803 683.814,-21.4044"/>
</g>
<!-- Node12&#45;&gt;Node2 -->
<g id="edge38" class="edge"><title>Node12&#45;&gt;Node2</title>
<path fill="none" stroke="midnightblue" d="M922.584,-124.06C978.357,-117.482 1106.84,-100.534 1145.37,-80 1168.04,-67.9202 1187.86,-45.6972 1200.17,-29.732"/>
<polygon fill="midnightblue" stroke="midnightblue" points="1203.05,-31.725 1206.2,-21.6104 1197.43,-27.5508 1203.05,-31.725"/>
</g>
<!-- Node12&#45;&gt;Node9 -->
<g id="edge42" class="edge"><title>Node12&#45;&gt;Node9</title>
<path fill="none" stroke="midnightblue" d="M889.021,-116.383C877.896,-101.131 855.308,-73.1894 829.373,-58 782.804,-30.7252 720.173,-18.9566 683.254,-14.1224"/>
<polygon fill="midnightblue" stroke="midnightblue" points="683.463,-10.622 673.113,-12.8853 682.616,-17.5705 683.463,-10.622"/>
</g>
<!-- Node12&#45;&gt;Node10 -->
<g id="edge52" class="edge"><title>Node12&#45;&gt;Node10</title>
<path fill="none" stroke="midnightblue" d="M922.666,-123.863C972.823,-117.604 1085.45,-102.231 1178.37,-80 1179.46,-79.7406 1180.56,-79.4653 1181.66,-79.1775"/>
<polygon fill="midnightblue" stroke="midnightblue" points="1183,-82.4378 1191.66,-76.3395 1181.08,-75.7039 1183,-82.4378"/>
</g>
<!-- Node13 -->
<g id="node33" class="node"><title>Node13</title>
<polygon fill="white" stroke="#bfbfbf" points="370.373,-58.5 370.373,-79.5 420.373,-79.5 420.373,-58.5 370.373,-58.5"/>
<text text-anchor="middle" x="395.373" y="-66.5" font-family="Helvetica,sans-Serif" font-size="10.00">stdint.h</text>
</g>
<!-- Node12&#45;&gt;Node13 -->
<g id="edge40" class="edge"><title>Node12&#45;&gt;Node13</title>
<path fill="none" stroke="midnightblue" d="M870.143,-123.963C786.405,-114.269 525.427,-84.0561 430.416,-73.0569"/>
<polygon fill="midnightblue" stroke="midnightblue" points="430.785,-69.5763 420.449,-71.903 429.98,-76.5299 430.785,-69.5763"/>
</g>
<!-- Node14 -->
<g id="node36" class="node"><title>Node14</title>
<polygon fill="white" stroke="#bfbfbf" points="675.873,-58.5 675.873,-79.5 722.873,-79.5 722.873,-58.5 675.873,-58.5"/>
<text text-anchor="middle" x="699.373" y="-66.5" font-family="Helvetica,sans-Serif" font-size="10.00">stdio.h</text>
</g>
<!-- Node12&#45;&gt;Node14 -->
<g id="edge44" class="edge"><title>Node12&#45;&gt;Node14</title>
<path fill="none" stroke="midnightblue" d="M870.239,-120.021C839.446,-111.697 786.541,-97.0829 732.78,-80.348"/>
<polygon fill="midnightblue" stroke="midnightblue" points="733.681,-76.9625 723.092,-77.3116 731.588,-83.6421 733.681,-76.9625"/>
</g>
<!-- Node15 -->
<g id="node38" class="node"><title>Node15</title>
<polygon fill="white" stroke="#bfbfbf" points="875.873,-58.5 875.873,-79.5 926.873,-79.5 926.873,-58.5 875.873,-58.5"/>
<text text-anchor="middle" x="901.373" y="-66.5" font-family="Helvetica,sans-Serif" font-size="10.00">string.h</text>
</g>
<!-- Node12&#45;&gt;Node15 -->
<g id="edge46" class="edge"><title>Node12&#45;&gt;Node15</title>
<path fill="none" stroke="midnightblue" d="M897.29,-116.362C897.932,-108.922 898.809,-98.7427 899.586,-89.7276"/>
<polygon fill="midnightblue" stroke="midnightblue" points="903.09,-89.8343 900.462,-79.5707 896.116,-89.2331 903.09,-89.8343"/>
</g>
<!-- Node16 -->
<g id="node40" class="node"><title>Node16</title>
<polygon fill="white" stroke="#bfbfbf" points="944.373,-58.5 944.373,-79.5 1030.37,-79.5 1030.37,-58.5 944.373,-58.5"/>
<text text-anchor="middle" x="987.373" y="-66.5" font-family="Helvetica,sans-Serif" font-size="10.00">qnamespace.h</text>
</g>
<!-- Node12&#45;&gt;Node16 -->
<g id="edge48" class="edge"><title>Node12&#45;&gt;Node16</title>
<path fill="none" stroke="midnightblue" d="M913.064,-116.362C926.789,-107.614 946.457,-95.0786 962.11,-85.1015"/>
<polygon fill="midnightblue" stroke="midnightblue" points="964.236,-87.8969 970.788,-79.5707 960.474,-81.994 964.236,-87.8969"/>
</g>
<!-- Node17 -->
<g id="node42" class="node"><title>Node17</title>
<polygon fill="white" stroke="#bfbfbf" points="1048.37,-58.5 1048.37,-79.5 1136.37,-79.5 1136.37,-58.5 1048.37,-58.5"/>
<text text-anchor="middle" x="1092.37" y="-66.5" font-family="Helvetica,sans-Serif" font-size="10.00">SysMgrEvent.h</text>
</g>
<!-- Node12&#45;&gt;Node17 -->
<g id="edge50" class="edge"><title>Node12&#45;&gt;Node17</title>
<path fill="none" stroke="midnightblue" d="M922.4,-119.298C954.041,-109.935 1007.99,-93.9708 1046.62,-82.5378"/>
<polygon fill="midnightblue" stroke="midnightblue" points="1047.99,-85.7831 1056.59,-79.5893 1046.01,-79.0708 1047.99,-85.7831"/>
</g>
<!-- Node18&#45;&gt;Node2 -->
<g id="edge56" class="edge"><title>Node18&#45;&gt;Node2</title>
<path fill="none" stroke="midnightblue" d="M1236.76,-116.462C1251.05,-108.636 1268.11,-96.4666 1276.37,-80 1286.94,-58.9395 1265.23,-39.565 1244.48,-26.7432"/>
<polygon fill="midnightblue" stroke="midnightblue" points="1246.14,-23.662 1235.73,-21.6635 1242.62,-29.7142 1246.14,-23.662"/>
</g>
<!-- Node18&#45;&gt;Node9 -->
<g id="edge60" class="edge"><title>Node18&#45;&gt;Node9</title>
<path fill="none" stroke="midnightblue" d="M1224.42,-116.444C1238.48,-101.767 1259.15,-75.0803 1243.37,-58 1224.18,-37.2178 801.943,-17.4618 683.194,-12.3014"/>
<polygon fill="midnightblue" stroke="midnightblue" points="683.122,-8.79517 672.981,-11.8612 682.821,-15.7887 683.122,-8.79517"/>
</g>
<!-- Node18&#45;&gt;Node10 -->
<g id="edge58" class="edge"><title>Node18&#45;&gt;Node10</title>
<path fill="none" stroke="midnightblue" d="M1213.37,-116.362C1213.37,-108.922 1213.37,-98.7427 1213.37,-89.7276"/>
<polygon fill="midnightblue" stroke="midnightblue" points="1216.87,-89.5706 1213.37,-79.5707 1209.87,-89.5707 1216.87,-89.5706"/>
</g>
<!-- Node19&#45;&gt;Node2 -->
<g id="edge64" class="edge"><title>Node19&#45;&gt;Node2</title>
<path fill="none" stroke="midnightblue" d="M598.042,-116.36C584.933,-101.584 565.794,-74.7805 581.373,-58 601.391,-36.4381 1029.29,-18.0919 1169.39,-12.644"/>
<polygon fill="midnightblue" stroke="midnightblue" points="1169.89,-16.1276 1179.75,-12.2446 1169.62,-9.13283 1169.89,-16.1276"/>
</g>
<!-- Node19&#45;&gt;Node9 -->
<g id="edge66" class="edge"><title>Node19&#45;&gt;Node9</title>
<path fill="none" stroke="midnightblue" d="M587.253,-116.319C564.633,-103.391 533.824,-80.5407 548.373,-58 564.45,-33.0916 597.261,-21.2442 621.753,-15.6991"/>
<polygon fill="midnightblue" stroke="midnightblue" points="622.562,-19.1063 631.667,-13.6887 621.171,-12.2459 622.562,-19.1063"/>
</g>
<!-- Node19&#45;&gt;Node13 -->
<g id="edge68" class="edge"><title>Node19&#45;&gt;Node13</title>
<path fill="none" stroke="midnightblue" d="M569.8,-116.497C530.072,-105.679 468.7,-88.9671 430.345,-78.5229"/>
<polygon fill="midnightblue" stroke="midnightblue" points="431.214,-75.1322 420.646,-75.8818 429.375,-81.8863 431.214,-75.1322"/>
</g>
<!-- Node20&#45;&gt;Node2 -->
<g id="edge74" class="edge"><title>Node20&#45;&gt;Node2</title>
<path fill="none" stroke="midnightblue" d="M445.474,-174.499C447.494,-159.888 452.998,-133.278 467.373,-116 501.47,-75.0166 521.27,-73.1903 572.373,-58 684.729,-24.6023 1044.39,-14.367 1169.77,-11.7702"/>
<polygon fill="midnightblue" stroke="midnightblue" points="1169.85,-15.2694 1179.78,-11.5689 1169.71,-8.27077 1169.85,-15.2694"/>
</g>
<!-- Node20&#45;&gt;Node3 -->
<g id="edge78" class="edge"><title>Node20&#45;&gt;Node3</title>
<path fill="none" stroke="midnightblue" d="M415.97,-174.348C392.947,-165.67 359.447,-152.943 322.426,-138.371"/>
<polygon fill="midnightblue" stroke="midnightblue" points="323.529,-135.044 312.943,-134.628 320.959,-141.555 323.529,-135.044"/>
</g>
<!-- Node20&#45;&gt;Node13 -->
<g id="edge76" class="edge"><title>Node20&#45;&gt;Node13</title>
<path fill="none" stroke="midnightblue" d="M439.851,-174.295C431.683,-154.959 414.349,-113.923 403.896,-89.1767"/>
<polygon fill="midnightblue" stroke="midnightblue" points="407,-87.5291 399.884,-79.6792 400.551,-90.253 407,-87.5291"/>
</g>
<!-- Node20&#45;&gt;Node21 -->
<g id="edge80" class="edge"><title>Node20&#45;&gt;Node21</title>
<path fill="none" stroke="midnightblue" d="M496.268,-174.425C538.839,-165.645 600.931,-152.602 663.93,-138.288"/>
<polygon fill="midnightblue" stroke="midnightblue" points="665.075,-141.616 674.046,-135.98 663.518,-134.792 665.075,-141.616"/>
</g>
<!-- Node20&#45;&gt;Node23 -->
<g id="edge88" class="edge"><title>Node20&#45;&gt;Node23</title>
<path fill="none" stroke="midnightblue" d="M428.233,-174.362C414.959,-165.614 395.941,-153.079 380.803,-143.101"/>
<polygon fill="midnightblue" stroke="midnightblue" points="382.687,-140.151 372.411,-137.571 378.835,-145.996 382.687,-140.151"/>
</g>
<!-- Node21&#45;&gt;Node2 -->
<g id="edge82" class="edge"><title>Node21&#45;&gt;Node2</title>
<path fill="none" stroke="midnightblue" d="M695.479,-116.359C677.2,-102.053 650.577,-76.3039 667.373,-58 701.086,-21.2599 1045.73,-13.1747 1169.46,-11.4512"/>
<polygon fill="midnightblue" stroke="midnightblue" points="1169.75,-14.9478 1179.7,-11.3161 1169.65,-7.94836 1169.75,-14.9478"/>
</g>
<!-- Node21&#45;&gt;Node14 -->
<g id="edge86" class="edge"><title>Node21&#45;&gt;Node14</title>
<path fill="none" stroke="midnightblue" d="M708.356,-116.362C706.929,-108.84 704.971,-98.5187 703.248,-89.4308"/>
<polygon fill="midnightblue" stroke="midnightblue" points="706.68,-88.7433 701.378,-79.5707 699.803,-90.0477 706.68,-88.7433"/>
</g>
<!-- Node22 -->
<g id="node64" class="node"><title>Node22</title>
<polygon fill="white" stroke="#bfbfbf" points="589.873,-58.5 589.873,-79.5 620.873,-79.5 620.873,-58.5 589.873,-58.5"/>
<text text-anchor="middle" x="605.373" y="-66.5" font-family="Helvetica,sans-Serif" font-size="10.00">set</text>
</g>
<!-- Node21&#45;&gt;Node22 -->
<g id="edge84" class="edge"><title>Node21&#45;&gt;Node22</title>
<path fill="none" stroke="midnightblue" d="M691.114,-116.362C673.894,-106.85 648.569,-92.8604 629.904,-82.5505"/>
<polygon fill="midnightblue" stroke="midnightblue" points="631.531,-79.4508 621.086,-77.6793 628.147,-85.5782 631.531,-79.4508"/>
</g>
<!-- Node23&#45;&gt;Node2 -->
<g id="edge90" class="edge"><title>Node23&#45;&gt;Node2</title>
<path fill="none" stroke="midnightblue" d="M353.357,-116.374C349.747,-101.111 345.955,-73.1547 361.373,-58 390.446,-29.4242 999.547,-15.2393 1169.62,-11.8261"/>
<polygon fill="midnightblue" stroke="midnightblue" points="1169.78,-15.3236 1179.71,-11.6259 1169.64,-8.325 1169.78,-15.3236"/>
</g>
<!-- Node23&#45;&gt;Node9 -->
<g id="edge92" class="edge"><title>Node23&#45;&gt;Node9</title>
<path fill="none" stroke="midnightblue" d="M345.517,-116.037C332.302,-101.366 313.484,-75.205 328.373,-58 347.467,-35.9364 544.388,-19.0286 621.576,-13.201"/>
<polygon fill="midnightblue" stroke="midnightblue" points="621.929,-16.6845 631.642,-12.4528 621.41,-9.70378 621.929,-16.6845"/>
</g>
<!-- Node23&#45;&gt;Node13 -->
<g id="edge94" class="edge"><title>Node23&#45;&gt;Node13</title>
<path fill="none" stroke="midnightblue" d="M363.526,-116.362C368.859,-108.431 376.284,-97.3885 382.624,-87.9606"/>
<polygon fill="midnightblue" stroke="midnightblue" points="385.59,-89.8221 388.265,-79.5707 379.781,-85.9161 385.59,-89.8221"/>
</g>
<!-- Node24&#45;&gt;Node2 -->
<g id="edge102" class="edge"><title>Node24&#45;&gt;Node2</title>
<path fill="none" stroke="midnightblue" d="M191.464,-116.357C195.199,-100.531 204.653,-71.2437 225.373,-58 265.647,-32.258 983.388,-15.7378 1169.56,-11.8732"/>
<polygon fill="midnightblue" stroke="midnightblue" points="1169.86,-15.3678 1179.79,-11.6625 1169.72,-8.36925 1169.86,-15.3678"/>
</g>
<!-- Node24&#45;&gt;Node5 -->
<g id="edge106" class="edge"><title>Node24&#45;&gt;Node5</title>
<path fill="none" stroke="midnightblue" d="M201.479,-116.362C211.061,-107.941 224.637,-96.0105 235.766,-86.2308"/>
<polygon fill="midnightblue" stroke="midnightblue" points="238.143,-88.8009 243.344,-79.5707 233.522,-83.5427 238.143,-88.8009"/>
</g>
<!-- Node24&#45;&gt;Node9 -->
<g id="edge108" class="edge"><title>Node24&#45;&gt;Node9</title>
<path fill="none" stroke="midnightblue" d="M157.945,-125.389C95.2744,-121.119 -35.5155,-106.289 9.3731,-58 30.4769,-35.2973 496.61,-16.6892 621.709,-12.0913"/>
<polygon fill="midnightblue" stroke="midnightblue" points="621.893,-15.5871 631.759,-11.7253 621.638,-8.5917 621.893,-15.5871"/>
</g>
<!-- Node24&#45;&gt;Node13 -->
<g id="edge104" class="edge"><title>Node24&#45;&gt;Node13</title>
<path fill="none" stroke="midnightblue" d="M220.66,-118.191C258.349,-107.58 321.469,-89.8078 360.636,-78.7803"/>
<polygon fill="midnightblue" stroke="midnightblue" points="361.61,-82.1422 370.287,-76.063 359.713,-75.4042 361.61,-82.1422"/>
</g>
<!-- Node25 -->
<g id="node80" class="node"><title>Node25</title>
<polygon fill="white" stroke="#bfbfbf" points="80.3731,-58.5 80.3731,-79.5 178.373,-79.5 178.373,-58.5 80.3731,-58.5"/>
<text text-anchor="middle" x="129.373" y="-66.5" font-family="Helvetica,sans-Serif" font-size="10.00">QGraphicsObject</text>
</g>
<!-- Node24&#45;&gt;Node25 -->
<g id="edge110" class="edge"><title>Node24&#45;&gt;Node25</title>
<path fill="none" stroke="midnightblue" d="M178.368,-116.362C169.826,-108.104 157.793,-96.4725 147.79,-86.8029"/>
<polygon fill="midnightblue" stroke="midnightblue" points="149.931,-84.0044 140.308,-79.5707 145.066,-89.0374 149.931,-84.0044"/>
</g>
<!-- Node26 -->
<g id="node82" class="node"><title>Node26</title>
<polygon fill="white" stroke="#bfbfbf" points="17.8731,-58.5 17.8731,-79.5 62.8731,-79.5 62.8731,-58.5 17.8731,-58.5"/>
<text text-anchor="middle" x="40.3731" y="-66.5" font-family="Helvetica,sans-Serif" font-size="10.00">QSize</text>
</g>
<!-- Node24&#45;&gt;Node26 -->
<g id="edge112" class="edge"><title>Node24&#45;&gt;Node26</title>
<path fill="none" stroke="midnightblue" d="M162.39,-116.497C137.145,-106.67 99.406,-91.9792 72.5916,-81.5414"/>
<polygon fill="midnightblue" stroke="midnightblue" points="73.8388,-78.2711 63.2503,-77.9052 71.2995,-84.7944 73.8388,-78.2711"/>
</g>
<!-- Node27&#45;&gt;Node2 -->
<g id="edge116" class="edge"><title>Node27&#45;&gt;Node2</title>
<path fill="none" stroke="midnightblue" d="M1216.96,-233.204C1219.8,-232.759 1222.62,-232.352 1225.37,-232 1290.74,-223.631 1772.21,-243.991 1817.37,-196 1862.21,-148.352 1950.94,-168.819 1618.37,-58 1552.16,-35.9371 1347.65,-19.9768 1257.19,-13.8083"/>
<polygon fill="midnightblue" stroke="midnightblue" points="1257.21,-10.3018 1246.99,-13.1219 1256.74,-17.2859 1257.21,-10.3018"/>
</g>
<!-- Node28&#45;&gt;Node2 -->
<g id="edge120" class="edge"><title>Node28&#45;&gt;Node2</title>
<path fill="none" stroke="midnightblue" d="M1105.29,-233.496C1108.01,-232.936 1110.73,-232.428 1113.37,-232 1165.29,-223.592 1549.62,-234.58 1585.37,-196 1687.69,-85.5831 1375.94,-32.2448 1257.26,-16.3044"/>
<polygon fill="midnightblue" stroke="midnightblue" points="1257.42,-12.7966 1247.05,-14.9628 1256.51,-19.7368 1257.42,-12.7966"/>
</g>
<!-- Node28&#45;&gt;Node8 -->
<g id="edge128" class="edge"><title>Node28&#45;&gt;Node8</title>
<path fill="none" stroke="midnightblue" d="M1036.23,-232.497C1006.27,-223 961.977,-208.962 929.311,-198.609"/>
<polygon fill="midnightblue" stroke="midnightblue" points="930.165,-195.208 919.575,-195.523 928.05,-201.881 930.165,-195.208"/>
</g>
<!-- Node28&#45;&gt;Node18 -->
<g id="edge130" class="edge"><title>Node28&#45;&gt;Node18</title>
<path fill="none" stroke="midnightblue" d="M1059.85,-232.207C1048.28,-217.728 1031.88,-191.784 1045.37,-174 1061.18,-153.17 1132.08,-139.058 1176.57,-132.077"/>
<polygon fill="midnightblue" stroke="midnightblue" points="1177.36,-135.498 1186.72,-130.536 1176.31,-128.577 1177.36,-135.498"/>
</g>
<!-- Node29 -->
<g id="node90" class="node"><title>Node29</title>
<polygon fill="white" stroke="#bfbfbf" points="1731.87,-174.5 1731.87,-195.5 1808.87,-195.5 1808.87,-174.5 1731.87,-174.5"/>
<text text-anchor="middle" x="1770.37" y="-182.5" font-family="Helvetica,sans-Serif" font-size="10.00">PGContext.h</text>
</g>
<!-- Node28&#45;&gt;Node29 -->
<g id="edge122" class="edge"><title>Node28&#45;&gt;Node29</title>
<path fill="none" stroke="midnightblue" d="M1105.28,-233.445C1108.01,-232.897 1110.73,-232.405 1113.37,-232 1378.55,-191.39 1452.81,-234.021 1721.69,-196.038"/>
<polygon fill="midnightblue" stroke="midnightblue" points="1722.34,-199.48 1731.74,-194.593 1721.35,-192.551 1722.34,-199.48"/>
</g>
<!-- Node30 -->
<g id="node92" class="node"><title>Node30</title>
<polygon fill="white" stroke="#bfbfbf" points="1054.37,-174.5 1054.37,-195.5 1122.37,-195.5 1122.37,-174.5 1054.37,-174.5"/>
<text text-anchor="middle" x="1088.37" y="-182.5" font-family="Helvetica,sans-Serif" font-size="10.00">PContext.h</text>
</g>
<!-- Node28&#45;&gt;Node30 -->
<g id="edge124" class="edge"><title>Node28&#45;&gt;Node30</title>
<path fill="none" stroke="midnightblue" d="M1072.86,-232.362C1075.35,-224.758 1078.78,-214.294 1081.78,-205.135"/>
<polygon fill="midnightblue" stroke="midnightblue" points="1085.12,-206.163 1084.91,-195.571 1078.47,-203.984 1085.12,-206.163"/>
</g>
<!-- Node31 -->
<g id="node94" class="node"><title>Node31</title>
<polygon fill="white" stroke="#bfbfbf" points="1140.37,-174.5 1140.37,-195.5 1206.37,-195.5 1206.37,-174.5 1140.37,-174.5"/>
<text text-anchor="middle" x="1173.37" y="-182.5" font-family="Helvetica,sans-Serif" font-size="10.00">PPixmap.h</text>
</g>
<!-- Node28&#45;&gt;Node31 -->
<g id="edge126" class="edge"><title>Node28&#45;&gt;Node31</title>
<path fill="none" stroke="midnightblue" d="M1088.45,-232.362C1104.43,-223.45 1127.45,-210.609 1145.5,-200.545"/>
<polygon fill="midnightblue" stroke="midnightblue" points="1147.39,-203.498 1154.42,-195.571 1143.98,-197.385 1147.39,-203.498"/>
</g>
<!-- Node32 -->
<g id="node98" class="node"><title>Node32</title>
<a xlink:href="CustomEvents_8h.htm" target="_top" xlink:title="CustomEvents.h">
<polygon fill="white" stroke="black" points="1484.37,-174.5 1484.37,-195.5 1576.37,-195.5 1576.37,-174.5 1484.37,-174.5"/>
<text text-anchor="middle" x="1530.37" y="-182.5" font-family="Helvetica,sans-Serif" font-size="10.00">CustomEvents.h</text>
</a>
</g>
<!-- Node28&#45;&gt;Node32 -->
<g id="edge132" class="edge"><title>Node28&#45;&gt;Node32</title>
<path fill="none" stroke="midnightblue" d="M1105.3,-233.565C1108.02,-232.989 1110.74,-232.458 1113.37,-232 1269.4,-204.887 1313.66,-219.263 1473.99,-196.08"/>
<polygon fill="midnightblue" stroke="midnightblue" points="1474.83,-199.493 1484.22,-194.573 1473.81,-192.568 1474.83,-199.493"/>
</g>
<!-- Node34 -->
<g id="node103" class="node"><title>Node34</title>
<a xlink:href="InputControl_8h.htm" target="_top" xlink:title="InputControl.h">
<polygon fill="white" stroke="black" points="1631.87,-174.5 1631.87,-195.5 1714.87,-195.5 1714.87,-174.5 1631.87,-174.5"/>
<text text-anchor="middle" x="1673.37" y="-182.5" font-family="Helvetica,sans-Serif" font-size="10.00">InputControl.h</text>
</a>
</g>
<!-- Node28&#45;&gt;Node34 -->
<g id="edge138" class="edge"><title>Node28&#45;&gt;Node34</title>
<path fill="none" stroke="midnightblue" d="M1105.29,-233.481C1108.01,-232.925 1110.73,-232.421 1113.37,-232 1335.58,-196.579 1395.38,-226.124 1618.37,-196 1619.46,-195.853 1620.56,-195.698 1621.66,-195.536"/>
<polygon fill="midnightblue" stroke="midnightblue" points="1622.41,-198.96 1631.72,-193.904 1621.29,-192.05 1622.41,-198.96"/>
</g>
<!-- Node36 -->
<g id="node107" class="node"><title>Node36</title>
<polygon fill="white" stroke="#bfbfbf" points="1223.87,-174.5 1223.87,-195.5 1348.87,-195.5 1348.87,-174.5 1223.87,-174.5"/>
<text text-anchor="middle" x="1286.37" y="-182.5" font-family="Helvetica,sans-Serif" font-size="10.00">webosDeviceKeymap.h</text>
</g>
<!-- Node28&#45;&gt;Node36 -->
<g id="edge142" class="edge"><title>Node28&#45;&gt;Node36</title>
<path fill="none" stroke="midnightblue" d="M1105.21,-233.422C1141.16,-223.812 1196.82,-208.935 1236.96,-198.207"/>
<polygon fill="midnightblue" stroke="midnightblue" points="1238.05,-201.538 1246.81,-195.575 1236.24,-194.776 1238.05,-201.538"/>
</g>
<!-- Node37 -->
<g id="node109" class="node"><title>Node37</title>
<polygon fill="white" stroke="#bfbfbf" points="1365.87,-174.5 1365.87,-195.5 1394.87,-195.5 1394.87,-174.5 1365.87,-174.5"/>
<text text-anchor="middle" x="1380.37" y="-182.5" font-family="Helvetica,sans-Serif" font-size="10.00">Qt</text>
</g>
<!-- Node28&#45;&gt;Node37 -->
<g id="edge144" class="edge"><title>Node28&#45;&gt;Node37</title>
<path fill="none" stroke="midnightblue" d="M1105.33,-233.705C1108.04,-233.097 1110.75,-232.521 1113.37,-232 1217.75,-211.306 1250.61,-227.024 1355.81,-195.84"/>
<polygon fill="midnightblue" stroke="midnightblue" points="1356.99,-199.14 1365.54,-192.885 1354.95,-192.443 1356.99,-199.14"/>
</g>
<!-- Node38 -->
<g id="node111" class="node"><title>Node38</title>
<polygon fill="white" stroke="#bfbfbf" points="1412.37,-174.5 1412.37,-195.5 1466.37,-195.5 1466.37,-174.5 1412.37,-174.5"/>
<text text-anchor="middle" x="1439.37" y="-182.5" font-family="Helvetica,sans-Serif" font-size="10.00">QImage</text>
</g>
<!-- Node28&#45;&gt;Node38 -->
<g id="edge146" class="edge"><title>Node28&#45;&gt;Node38</title>
<path fill="none" stroke="midnightblue" d="M1105.31,-233.637C1108.03,-233.045 1110.74,-232.49 1113.37,-232 1237.81,-208.81 1274.5,-222.347 1401.84,-196.042"/>
<polygon fill="midnightblue" stroke="midnightblue" points="1402.92,-199.392 1411.98,-193.903 1401.48,-192.542 1402.92,-199.392"/>
</g>
<!-- Node32&#45;&gt;Node2 -->
<g id="edge134" class="edge"><title>Node32&#45;&gt;Node2</title>
<path fill="none" stroke="midnightblue" d="M1522.28,-174.097C1500.4,-144.744 1440.87,-65.7448 1428.37,-58 1400.15,-40.5133 1311.15,-25.1074 1256.91,-17.0168"/>
<polygon fill="midnightblue" stroke="midnightblue" points="1257.28,-13.5342 1246.88,-15.5451 1256.27,-20.46 1257.28,-13.5342"/>
</g>
<!-- Node33 -->
<g id="node101" class="node"><title>Node33</title>
<polygon fill="white" stroke="#bfbfbf" points="1504.37,-116.5 1504.37,-137.5 1556.37,-137.5 1556.37,-116.5 1504.37,-116.5"/>
<text text-anchor="middle" x="1530.37" y="-124.5" font-family="Helvetica,sans-Serif" font-size="10.00">QEvent</text>
</g>
<!-- Node32&#45;&gt;Node33 -->
<g id="edge136" class="edge"><title>Node32&#45;&gt;Node33</title>
<path fill="none" stroke="midnightblue" d="M1530.37,-174.362C1530.37,-166.922 1530.37,-156.743 1530.37,-147.728"/>
<polygon fill="midnightblue" stroke="midnightblue" points="1533.87,-147.571 1530.37,-137.571 1526.87,-147.571 1533.87,-147.571"/>
</g>
<!-- Node35 -->
<g id="node105" class="node"><title>Node35</title>
<polygon fill="white" stroke="#bfbfbf" points="1645.37,-116.5 1645.37,-137.5 1701.37,-137.5 1701.37,-116.5 1645.37,-116.5"/>
<text text-anchor="middle" x="1673.37" y="-124.5" font-family="Helvetica,sans-Serif" font-size="10.00">hal/hal.h</text>
</g>
<!-- Node34&#45;&gt;Node35 -->
<g id="edge140" class="edge"><title>Node34&#45;&gt;Node35</title>
<path fill="none" stroke="midnightblue" d="M1673.37,-174.362C1673.37,-166.922 1673.37,-156.743 1673.37,-147.728"/>
<polygon fill="midnightblue" stroke="midnightblue" points="1676.87,-147.571 1673.37,-137.571 1669.87,-147.571 1676.87,-147.571"/>
</g>
</g>
</svg>
