<?xml version="1.0" encoding="UTF-8" standalone="no"?>
<!DOCTYPE svg PUBLIC "-//W3C//DTD SVG 1.1//EN"
 "http://www.w3.org/Graphics/SVG/1.1/DTD/svg11.dtd">
<!-- Generated by graphviz version 2.26.3 (20100126.1600)
 -->
<!-- Title: G Pages: 1 -->
<svg width="2071pt" height="436pt"
 viewBox="0.00 0.00 2071.00 436.00" xmlns="http://www.w3.org/2000/svg" xmlns:xlink="http://www.w3.org/1999/xlink">
<g id="graph1" class="graph" transform="scale(1 1) rotate(0) translate(4 432)">
<title>G</title>
<polygon fill="white" stroke="white" points="-4,5 -4,-432 2068,-432 2068,5 -4,5"/>
<!-- Node1 -->
<g id="node1" class="node"><title>Node1</title>
<polygon fill="#bfbfbf" stroke="black" points="1586.5,-406.5 1586.5,-427.5 1675.5,-427.5 1675.5,-406.5 1586.5,-406.5"/>
<text text-anchor="middle" x="1631" y="-414.5" font-family="Helvetica,sans-Serif" font-size="10.00">WebAppBase.h</text>
</g>
<!-- Node2 -->
<g id="node3" class="node"><title>Node2</title>
<a xlink:href="WebAppFactoryLuna_8cpp.htm" target="_top" xlink:title="WebAppFactoryLuna.cpp">
<polygon fill="white" stroke="black" points="1524,-174.5 1524,-195.5 1658,-195.5 1658,-174.5 1524,-174.5"/>
<text text-anchor="middle" x="1591" y="-182.5" font-family="Helvetica,sans-Serif" font-size="10.00">WebAppFactoryLuna.cpp</text>
</a>
</g>
<!-- Node1&#45;&gt;Node2 -->
<g id="edge2" class="edge"><title>Node1&#45;&gt;Node2</title>
<path fill="none" stroke="midnightblue" d="M1685.47,-410.9C1744.85,-401.103 1837.57,-375.927 1884,-312 1904.94,-283.175 1912.15,-259.082 1889,-232 1874.18,-214.655 1741.47,-199.147 1658.22,-191.011"/>
<polygon fill="midnightblue" stroke="midnightblue" points="1684.86,-407.453 1675.52,-412.451 1685.94,-414.37 1684.86,-407.453"/>
</g>
<!-- Node3 -->
<g id="node5" class="node"><title>Node3</title>
<a xlink:href="WebAppFactoryMinimal_8cpp.htm" target="_top" xlink:title="WebAppFactoryMinimal.cpp">
<polygon fill="white" stroke="black" points="1416.5,-232.5 1416.5,-253.5 1563.5,-253.5 1563.5,-232.5 1416.5,-232.5"/>
<text text-anchor="middle" x="1490" y="-240.5" font-family="Helvetica,sans-Serif" font-size="10.00">WebAppFactoryMinimal.cpp</text>
</a>
</g>
<!-- Node1&#45;&gt;Node3 -->
<g id="edge4" class="edge"><title>Node1&#45;&gt;Node3</title>
<path fill="none" stroke="midnightblue" d="M1633.79,-396.411C1636.32,-369.04 1636.51,-320.576 1612,-290 1597.23,-271.582 1574.33,-260.372 1552.34,-253.553"/>
<polygon fill="midnightblue" stroke="midnightblue" points="1630.31,-396.094 1632.67,-406.421 1637.26,-396.872 1630.31,-396.094"/>
</g>
<!-- Node4 -->
<g id="node7" class="node"><title>Node4</title>
<a xlink:href="WebAppBase_8cpp.htm" target="_top" xlink:title="WebAppBase.cpp">
<polygon fill="white" stroke="black" points="532,-290.5 532,-311.5 632,-311.5 632,-290.5 532,-290.5"/>
<text text-anchor="middle" x="582" y="-298.5" font-family="Helvetica,sans-Serif" font-size="10.00">WebAppBase.cpp</text>
</a>
</g>
<!-- Node1&#45;&gt;Node4 -->
<g id="edge6" class="edge"><title>Node1&#45;&gt;Node4</title>
<path fill="none" stroke="midnightblue" d="M1575.91,-412.374C1426.13,-399.528 999.065,-361.108 646,-312 641.533,-311.379 636.9,-310.683 632.261,-309.951"/>
<polygon fill="midnightblue" stroke="midnightblue" points="1575.94,-415.89 1586.21,-413.254 1576.54,-408.915 1575.94,-415.89"/>
</g>
<!-- Node5 -->
<g id="node9" class="node"><title>Node5</title>
<a xlink:href="WindowedWebApp_8h.htm" target="_top" xlink:title="WindowedWebApp.h">
<polygon fill="white" stroke="black" points="1224,-348.5 1224,-369.5 1338,-369.5 1338,-348.5 1224,-348.5"/>
<text text-anchor="middle" x="1281" y="-356.5" font-family="Helvetica,sans-Serif" font-size="10.00">WindowedWebApp.h</text>
</a>
</g>
<!-- Node1&#45;&gt;Node5 -->
<g id="edge8" class="edge"><title>Node1&#45;&gt;Node5</title>
<path fill="none" stroke="midnightblue" d="M1576.3,-407.935C1511.49,-397.195 1404.04,-379.389 1338.17,-368.474"/>
<polygon fill="midnightblue" stroke="midnightblue" points="1575.88,-411.413 1586.32,-409.595 1577.02,-404.508 1575.88,-411.413"/>
</g>
<!-- Node26 -->
<g id="node57" class="node"><title>Node26</title>
<a xlink:href="WebAppManager_8cpp.htm" target="_top" xlink:title="WebAppManager.cpp">
<polygon fill="white" stroke="black" points="444.5,-232.5 444.5,-253.5 563.5,-253.5 563.5,-232.5 444.5,-232.5"/>
<text text-anchor="middle" x="504" y="-240.5" font-family="Helvetica,sans-Serif" font-size="10.00">WebAppManager.cpp</text>
</a>
</g>
<!-- Node1&#45;&gt;Node26 -->
<g id="edge96" class="edge"><title>Node1&#45;&gt;Node26</title>
<path fill="none" stroke="midnightblue" d="M1575.91,-415.505C1363.15,-409.235 602.854,-382.058 523,-312 506.188,-297.25 503.625,-269.13 503.584,-253.733"/>
<polygon fill="midnightblue" stroke="midnightblue" points="1576.12,-419.013 1586.22,-415.805 1576.32,-412.016 1576.12,-419.013"/>
</g>
<!-- Node32 -->
<g id="node77" class="node"><title>Node32</title>
<a xlink:href="WebPage_8cpp.htm" target="_top" xlink:title="WebPage.cpp">
<polygon fill="white" stroke="black" points="1793,-290.5 1793,-311.5 1875,-311.5 1875,-290.5 1793,-290.5"/>
<text text-anchor="middle" x="1834" y="-298.5" font-family="Helvetica,sans-Serif" font-size="10.00">WebPage.cpp</text>
</a>
</g>
<!-- Node1&#45;&gt;Node32 -->
<g id="edge98" class="edge"><title>Node1&#45;&gt;Node32</title>
<path fill="none" stroke="midnightblue" d="M1658.62,-401.219C1700.72,-377.161 1779.83,-331.953 1815.6,-311.512"/>
<polygon fill="midnightblue" stroke="midnightblue" points="1656.68,-398.295 1649.73,-406.295 1660.15,-404.372 1656.68,-398.295"/>
</g>
<!-- Node33 -->
<g id="node80" class="node"><title>Node33</title>
<a xlink:href="WebAppCache_8cpp.htm" target="_top" xlink:title="WebAppCache.cpp">
<polygon fill="white" stroke="black" points="1956.5,-348.5 1956.5,-369.5 2063.5,-369.5 2063.5,-348.5 1956.5,-348.5"/>
<text text-anchor="middle" x="2010" y="-356.5" font-family="Helvetica,sans-Serif" font-size="10.00">WebAppCache.cpp</text>
</a>
</g>
<!-- Node1&#45;&gt;Node33 -->
<g id="edge94" class="edge"><title>Node1&#45;&gt;Node33</title>
<path fill="none" stroke="midnightblue" d="M1685.72,-408.98C1748.05,-399.794 1852.91,-384.18 1943,-370 1947.31,-369.322 1951.77,-368.61 1956.25,-367.888"/>
<polygon fill="midnightblue" stroke="midnightblue" points="1685.1,-405.533 1675.72,-410.453 1686.12,-412.459 1685.1,-405.533"/>
</g>
<!-- Node5&#45;&gt;Node3 -->
<g id="edge82" class="edge"><title>Node5&#45;&gt;Node3</title>
<path fill="none" stroke="midnightblue" d="M1281.34,-338.373C1282.72,-322.994 1287.11,-302.558 1300,-290 1316.73,-273.699 1370.3,-261.35 1416.31,-253.41"/>
<polygon fill="midnightblue" stroke="midnightblue" points="1277.84,-338.318 1280.79,-348.493 1284.83,-338.698 1277.84,-338.318"/>
</g>
<!-- Node5&#45;&gt;Node4 -->
<g id="edge84" class="edge"><title>Node5&#45;&gt;Node4</title>
<path fill="none" stroke="midnightblue" d="M1213.74,-356.154C1097.6,-350.764 852.093,-337.279 646,-312 641.524,-311.451 636.884,-310.805 632.241,-310.106"/>
<polygon fill="midnightblue" stroke="midnightblue" points="1213.75,-359.658 1223.9,-356.62 1214.07,-352.665 1213.75,-359.658"/>
</g>
<!-- Node6 -->
<g id="node11" class="node"><title>Node6</title>
<a xlink:href="CardWebApp_8h.htm" target="_top" xlink:title="CardWebApp.h">
<polygon fill="white" stroke="black" points="1066,-290.5 1066,-311.5 1154,-311.5 1154,-290.5 1066,-290.5"/>
<text text-anchor="middle" x="1110" y="-298.5" font-family="Helvetica,sans-Serif" font-size="10.00">CardWebApp.h</text>
</a>
</g>
<!-- Node5&#45;&gt;Node6 -->
<g id="edge10" class="edge"><title>Node5&#45;&gt;Node6</title>
<path fill="none" stroke="midnightblue" d="M1240.55,-345.279C1210.08,-334.944 1168.92,-320.985 1141.02,-311.523"/>
<polygon fill="midnightblue" stroke="midnightblue" points="1239.44,-348.599 1250.03,-348.497 1241.69,-341.97 1239.44,-348.599"/>
</g>
<!-- Node10 -->
<g id="node19" class="node"><title>Node10</title>
<a xlink:href="DockWebApp_8h.htm" target="_top" xlink:title="DockWebApp.h">
<polygon fill="white" stroke="black" points="720.5,-232.5 720.5,-253.5 809.5,-253.5 809.5,-232.5 720.5,-232.5"/>
<text text-anchor="middle" x="765" y="-240.5" font-family="Helvetica,sans-Serif" font-size="10.00">DockWebApp.h</text>
</a>
</g>
<!-- Node5&#45;&gt;Node10 -->
<g id="edge64" class="edge"><title>Node5&#45;&gt;Node10</title>
<path fill="none" stroke="midnightblue" d="M1218.96,-346.421C1173.95,-337.187 1111.62,-324.183 1057,-312 968.282,-292.214 864.838,-267.342 807.966,-253.511"/>
<polygon fill="midnightblue" stroke="midnightblue" points="1218.37,-349.872 1228.87,-348.45 1219.77,-343.014 1218.37,-349.872"/>
</g>
<!-- Node25 -->
<g id="node55" class="node"><title>Node25</title>
<a xlink:href="WindowedWebApp_8cpp.htm" target="_top" xlink:title="WindowedWebApp.cpp">
<polygon fill="white" stroke="black" points="91.5,-174.5 91.5,-195.5 216.5,-195.5 216.5,-174.5 91.5,-174.5"/>
<text text-anchor="middle" x="154" y="-182.5" font-family="Helvetica,sans-Serif" font-size="10.00">WindowedWebApp.cpp</text>
</a>
</g>
<!-- Node5&#45;&gt;Node25 -->
<g id="edge92" class="edge"><title>Node5&#45;&gt;Node25</title>
<path fill="none" stroke="midnightblue" d="M1213.95,-353.923C1070.32,-342.334 722.647,-310.483 436,-254 348.223,-236.704 246.597,-210.221 192.526,-195.606"/>
<polygon fill="midnightblue" stroke="midnightblue" points="1213.69,-357.413 1223.94,-354.722 1214.25,-350.435 1213.69,-357.413"/>
</g>
<!-- Node5&#45;&gt;Node26 -->
<g id="edge88" class="edge"><title>Node5&#45;&gt;Node26</title>
<path fill="none" stroke="midnightblue" d="M1213.73,-349.342C1087.73,-331.187 807.619,-290.503 572,-254 569.282,-253.579 566.503,-253.145 563.697,-252.703"/>
<polygon fill="midnightblue" stroke="midnightblue" points="1213.59,-352.858 1223.98,-350.819 1214.58,-345.929 1213.59,-352.858"/>
</g>
<!-- Node27 -->
<g id="node60" class="node"><title>Node27</title>
<a xlink:href="AlertWebApp_8h.htm" target="_top" xlink:title="AlertWebApp.h">
<polygon fill="white" stroke="black" points="1309,-290.5 1309,-311.5 1395,-311.5 1395,-290.5 1309,-290.5"/>
<text text-anchor="middle" x="1352" y="-298.5" font-family="Helvetica,sans-Serif" font-size="10.00">AlertWebApp.h</text>
</a>
</g>
<!-- Node5&#45;&gt;Node27 -->
<g id="edge66" class="edge"><title>Node5&#45;&gt;Node27</title>
<path fill="none" stroke="midnightblue" d="M1301.84,-341.975C1313.89,-332.132 1328.67,-320.055 1339.06,-311.571"/>
<polygon fill="midnightblue" stroke="midnightblue" points="1299.55,-339.325 1294.02,-348.362 1303.98,-344.746 1299.55,-339.325"/>
</g>
<!-- Node29 -->
<g id="node67" class="node"><title>Node29</title>
<a xlink:href="DashboardWebApp_8h.htm" target="_top" xlink:title="DashboardWebApp.h">
<polygon fill="white" stroke="black" points="1659,-290.5 1659,-311.5 1775,-311.5 1775,-290.5 1659,-290.5"/>
<text text-anchor="middle" x="1717" y="-298.5" font-family="Helvetica,sans-Serif" font-size="10.00">DashboardWebApp.h</text>
</a>
</g>
<!-- Node5&#45;&gt;Node29 -->
<g id="edge76" class="edge"><title>Node5&#45;&gt;Node29</title>
<path fill="none" stroke="midnightblue" d="M1348.52,-350.019C1433.57,-338.705 1578.29,-319.452 1658.73,-308.752"/>
<polygon fill="midnightblue" stroke="midnightblue" points="1347.9,-346.57 1338.45,-351.358 1348.82,-353.509 1347.9,-346.57"/>
</g>
<!-- Node31 -->
<g id="node74" class="node"><title>Node31</title>
<a xlink:href="WebAppDeferredUpdateHandler_8cpp.htm" target="_top" xlink:title="WebAppDeferredUpdateHandler.cpp">
<polygon fill="white" stroke="black" points="1413,-290.5 1413,-311.5 1603,-311.5 1603,-290.5 1413,-290.5"/>
<text text-anchor="middle" x="1508" y="-298.5" font-family="Helvetica,sans-Serif" font-size="10.00">WebAppDeferredUpdateHandler.cpp</text>
</a>
</g>
<!-- Node5&#45;&gt;Node31 -->
<g id="edge86" class="edge"><title>Node5&#45;&gt;Node31</title>
<path fill="none" stroke="midnightblue" d="M1331.84,-346.011C1372.54,-335.611 1428.9,-321.21 1466.81,-311.523"/>
<polygon fill="midnightblue" stroke="midnightblue" points="1330.93,-342.63 1322.11,-348.497 1332.66,-349.412 1330.93,-342.63"/>
</g>
<!-- Node5&#45;&gt;Node32 -->
<g id="edge90" class="edge"><title>Node5&#45;&gt;Node32</title>
<path fill="none" stroke="midnightblue" d="M1348.47,-355.348C1445.31,-349.506 1629.11,-336.18 1784,-312 1786.9,-311.548 1789.88,-311.029 1792.88,-310.469"/>
<polygon fill="midnightblue" stroke="midnightblue" points="1348.01,-351.869 1338.24,-355.957 1348.43,-358.857 1348.01,-351.869"/>
</g>
<!-- Node6&#45;&gt;Node2 -->
<g id="edge24" class="edge"><title>Node6&#45;&gt;Node2</title>
<path fill="none" stroke="midnightblue" d="M1161.3,-287.685C1190.26,-279.438 1226.79,-267.794 1258,-254 1275.85,-246.111 1277.61,-238.534 1296,-232 1371.38,-205.217 1463.02,-193.646 1523.96,-188.679"/>
<polygon fill="midnightblue" stroke="midnightblue" points="1160.08,-284.392 1151.4,-290.458 1161.97,-291.133 1160.08,-284.392"/>
</g>
<!-- Node6&#45;&gt;Node3 -->
<g id="edge28" class="edge"><title>Node6&#45;&gt;Node3</title>
<path fill="none" stroke="midnightblue" d="M1164.34,-292.705C1231.87,-282.399 1347.17,-264.801 1420.9,-253.546"/>
<polygon fill="midnightblue" stroke="midnightblue" points="1163.69,-289.264 1154.33,-294.233 1164.75,-296.184 1163.69,-289.264"/>
</g>
<!-- Node7 -->
<g id="node13" class="node"><title>Node7</title>
<a xlink:href="JsSysObject_8cpp.htm" target="_top" xlink:title="JsSysObject.cpp">
<polygon fill="white" stroke="black" points="1305,-232.5 1305,-253.5 1399,-253.5 1399,-232.5 1305,-232.5"/>
<text text-anchor="middle" x="1352" y="-240.5" font-family="Helvetica,sans-Serif" font-size="10.00">JsSysObject.cpp</text>
</a>
</g>
<!-- Node6&#45;&gt;Node7 -->
<g id="edge12" class="edge"><title>Node6&#45;&gt;Node7</title>
<path fill="none" stroke="midnightblue" d="M1163.65,-288.142C1207.08,-277.733 1267.5,-263.251 1308.09,-253.523"/>
<polygon fill="midnightblue" stroke="midnightblue" points="1162.73,-284.762 1153.82,-290.497 1164.36,-291.569 1162.73,-284.762"/>
</g>
<!-- Node8 -->
<g id="node15" class="node"><title>Node8</title>
<a xlink:href="JsSysObjectAnimationRunner_8cpp.htm" target="_top" xlink:title="JsSysObjectAnimationRunner.cpp">
<polygon fill="white" stroke="black" points="864.5,-232.5 864.5,-253.5 1039.5,-253.5 1039.5,-232.5 864.5,-232.5"/>
<text text-anchor="middle" x="952" y="-240.5" font-family="Helvetica,sans-Serif" font-size="10.00">JsSysObjectAnimationRunner.cpp</text>
</a>
</g>
<!-- Node6&#45;&gt;Node8 -->
<g id="edge14" class="edge"><title>Node6&#45;&gt;Node8</title>
<path fill="none" stroke="midnightblue" d="M1071.89,-287.009C1043.81,-276.702 1006.22,-262.903 980.666,-253.523"/>
<polygon fill="midnightblue" stroke="midnightblue" points="1070.79,-290.336 1081.39,-290.497 1073.21,-283.765 1070.79,-290.336"/>
</g>
<!-- Node9 -->
<g id="node17" class="node"><title>Node9</title>
<a xlink:href="CardWebApp_8cpp.htm" target="_top" xlink:title="CardWebApp.cpp">
<polygon fill="white" stroke="black" points="1001.5,-174.5 1001.5,-195.5 1100.5,-195.5 1100.5,-174.5 1001.5,-174.5"/>
<text text-anchor="middle" x="1051" y="-182.5" font-family="Helvetica,sans-Serif" font-size="10.00">CardWebApp.cpp</text>
</a>
</g>
<!-- Node6&#45;&gt;Node9 -->
<g id="edge16" class="edge"><title>Node6&#45;&gt;Node9</title>
<path fill="none" stroke="midnightblue" d="M1055.75,-294.664C984.999,-285.847 868.677,-269.238 856,-254 849.747,-246.483 849.95,-239.681 856,-232 860.579,-226.187 945.067,-207.368 1001.32,-195.38"/>
<polygon fill="midnightblue" stroke="midnightblue" points="1055.49,-298.158 1065.85,-295.907 1056.35,-291.211 1055.49,-298.158"/>
</g>
<!-- Node6&#45;&gt;Node10 -->
<g id="edge18" class="edge"><title>Node6&#45;&gt;Node10</title>
<path fill="none" stroke="midnightblue" d="M1055.69,-292.522C997.924,-283.408 903.909,-268.295 823,-254 818.66,-253.233 814.142,-252.414 809.627,-251.581"/>
<polygon fill="midnightblue" stroke="midnightblue" points="1055.27,-295.999 1065.69,-294.098 1056.36,-289.084 1055.27,-295.999"/>
</g>
<!-- Node12 -->
<g id="node25" class="node"><title>Node12</title>
<a xlink:href="WindowContentTransitionRunner_8cpp.htm" target="_top" xlink:title="WindowContentTransitionRunner.cpp">
<polygon fill="white" stroke="black" points="1056.5,-232.5 1056.5,-253.5 1249.5,-253.5 1249.5,-232.5 1056.5,-232.5"/>
<text text-anchor="middle" x="1153" y="-240.5" font-family="Helvetica,sans-Serif" font-size="10.00">WindowContentTransitionRunner.cpp</text>
</a>
</g>
<!-- Node6&#45;&gt;Node12 -->
<g id="edge26" class="edge"><title>Node6&#45;&gt;Node12</title>
<path fill="none" stroke="midnightblue" d="M1123.9,-282.25C1130.94,-272.75 1139.24,-261.565 1145.16,-253.571"/>
<polygon fill="midnightblue" stroke="midnightblue" points="1121.03,-280.244 1117.89,-290.362 1126.65,-284.413 1121.03,-280.244"/>
</g>
<!-- Node13 -->
<g id="node28" class="node"><title>Node13</title>
<a xlink:href="RemoteWindowData_8h.htm" target="_top" xlink:title="RemoteWindowData.h">
<polygon fill="white" stroke="black" points="581,-232.5 581,-253.5 703,-253.5 703,-232.5 581,-232.5"/>
<text text-anchor="middle" x="642" y="-240.5" font-family="Helvetica,sans-Serif" font-size="10.00">RemoteWindowData.h</text>
</a>
</g>
<!-- Node6&#45;&gt;Node13 -->
<g id="edge30" class="edge"><title>Node6&#45;&gt;Node13</title>
<path fill="none" stroke="midnightblue" d="M1055.38,-295.22C978.605,-286.943 834.447,-270.844 712,-254 709.075,-253.598 706.083,-253.174 703.063,-252.737"/>
<polygon fill="midnightblue" stroke="midnightblue" points="1055.44,-298.747 1065.76,-296.335 1056.19,-291.787 1055.44,-298.747"/>
</g>
<!-- Node6&#45;&gt;Node26 -->
<g id="edge62" class="edge"><title>Node6&#45;&gt;Node26</title>
<path fill="none" stroke="midnightblue" d="M1055.78,-297.582C958.599,-291.163 748.399,-275.943 572,-254 569.27,-253.66 566.482,-253.293 563.669,-252.906"/>
<polygon fill="midnightblue" stroke="midnightblue" points="1055.74,-301.087 1065.95,-298.249 1056.2,-294.102 1055.74,-301.087"/>
</g>
<!-- Node10&#45;&gt;Node2 -->
<g id="edge22" class="edge"><title>Node10&#45;&gt;Node2</title>
<path fill="none" stroke="midnightblue" d="M820.057,-235.838C831.901,-234.439 844.357,-233.075 856,-232 1101.57,-209.324 1394.32,-194.138 1523.76,-188.028"/>
<polygon fill="midnightblue" stroke="midnightblue" points="819.352,-232.397 809.843,-237.07 820.19,-239.347 819.352,-232.397"/>
</g>
<!-- Node11 -->
<g id="node21" class="node"><title>Node11</title>
<a xlink:href="DockWebApp_8cpp.htm" target="_top" xlink:title="DockWebApp.cpp">
<polygon fill="white" stroke="black" points="884,-174.5 884,-195.5 984,-195.5 984,-174.5 884,-174.5"/>
<text text-anchor="middle" x="934" y="-182.5" font-family="Helvetica,sans-Serif" font-size="10.00">DockWebApp.cpp</text>
</a>
</g>
<!-- Node10&#45;&gt;Node11 -->
<g id="edge20" class="edge"><title>Node10&#45;&gt;Node11</title>
<path fill="none" stroke="midnightblue" d="M805.373,-229.144C835.447,-218.823 875.888,-204.944 903.338,-195.523"/>
<polygon fill="midnightblue" stroke="midnightblue" points="803.927,-225.94 795.605,-232.497 806.199,-232.561 803.927,-225.94"/>
</g>
<!-- Node13&#45;&gt;Node9 -->
<g id="edge32" class="edge"><title>Node13&#45;&gt;Node9</title>
<path fill="none" stroke="midnightblue" d="M713.05,-231.885C838.333,-214.288 871.805,-215.238 993,-196 995.733,-195.566 998.535,-195.101 1001.36,-194.617"/>
<polygon fill="midnightblue" stroke="midnightblue" points="712.478,-228.431 703.068,-233.299 713.46,-235.362 712.478,-228.431"/>
</g>
<!-- Node13&#45;&gt;Node11 -->
<g id="edge34" class="edge"><title>Node13&#45;&gt;Node11</title>
<path fill="none" stroke="midnightblue" d="M704.945,-230.497C758.518,-219.856 834.445,-204.775 883.953,-194.941"/>
<polygon fill="midnightblue" stroke="midnightblue" points="704.005,-227.115 694.879,-232.497 705.369,-233.981 704.005,-227.115"/>
</g>
<!-- Node14 -->
<g id="node32" class="node"><title>Node14</title>
<a xlink:href="RemoteWindowData_8cpp.htm" target="_top" xlink:title="RemoteWindowData.cpp">
<polygon fill="white" stroke="black" points="-0.5,-116.5 -0.5,-137.5 132.5,-137.5 132.5,-116.5 -0.5,-116.5"/>
<text text-anchor="middle" x="66" y="-124.5" font-family="Helvetica,sans-Serif" font-size="10.00">RemoteWindowData.cpp</text>
</a>
</g>
<!-- Node13&#45;&gt;Node14 -->
<g id="edge36" class="edge"><title>Node13&#45;&gt;Node14</title>
<path fill="none" stroke="midnightblue" d="M570.848,-231.927C433.051,-214.458 391.151,-238.523 263,-196 244.478,-189.854 242.928,-181.709 225,-174 188.243,-158.194 144.526,-145.696 112.244,-137.574"/>
<polygon fill="midnightblue" stroke="midnightblue" points="570.566,-235.42 580.938,-233.258 571.481,-228.48 570.566,-235.42"/>
</g>
<!-- Node15 -->
<g id="node34" class="node"><title>Node15</title>
<a xlink:href="RemoteWindowDataSoftware_8h.htm" target="_top" xlink:title="RemoteWindowDataSoftware.h">
<polygon fill="white" stroke="black" points="272,-174.5 272,-195.5 436,-195.5 436,-174.5 272,-174.5"/>
<text text-anchor="middle" x="354" y="-182.5" font-family="Helvetica,sans-Serif" font-size="10.00">RemoteWindowDataSoftware.h</text>
</a>
</g>
<!-- Node13&#45;&gt;Node15 -->
<g id="edge38" class="edge"><title>Node13&#45;&gt;Node15</title>
<path fill="none" stroke="midnightblue" d="M579.781,-230.47C527.983,-220.038 455.066,-205.354 406.252,-195.523"/>
<polygon fill="midnightblue" stroke="midnightblue" points="579.351,-233.953 589.845,-232.497 580.733,-227.091 579.351,-233.953"/>
</g>
<!-- Node21 -->
<g id="node47" class="node"><title>Node21</title>
<a xlink:href="RemoteWindowDataOpenGL_8h.htm" target="_top" xlink:title="RemoteWindowDataOpenGL.h">
<polygon fill="white" stroke="black" points="454,-174.5 454,-195.5 616,-195.5 616,-174.5 454,-174.5"/>
<text text-anchor="middle" x="535" y="-182.5" font-family="Helvetica,sans-Serif" font-size="10.00">RemoteWindowDataOpenGL.h</text>
</a>
</g>
<!-- Node13&#45;&gt;Node21 -->
<g id="edge52" class="edge"><title>Node13&#45;&gt;Node21</title>
<path fill="none" stroke="midnightblue" d="M613.437,-227.517C594.807,-217.419 570.98,-204.503 554.501,-195.571"/>
<polygon fill="midnightblue" stroke="midnightblue" points="611.915,-230.673 622.375,-232.362 615.251,-224.519 611.915,-230.673"/>
</g>
<!-- Node23 -->
<g id="node51" class="node"><title>Node23</title>
<a xlink:href="RemoteWindowDataOpenGLTextureShared_8h.htm" target="_top" xlink:title="RemoteWindowDataOpenGLTextureShared.h">
<polygon fill="white" stroke="black" points="633.5,-174.5 633.5,-195.5 866.5,-195.5 866.5,-174.5 633.5,-174.5"/>
<text text-anchor="middle" x="750" y="-182.5" font-family="Helvetica,sans-Serif" font-size="10.00">RemoteWindowDataOpenGLTextureShared.h</text>
</a>
</g>
<!-- Node13&#45;&gt;Node23 -->
<g id="edge56" class="edge"><title>Node13&#45;&gt;Node23</title>
<path fill="none" stroke="midnightblue" d="M670.572,-227.656C689.378,-217.556 713.517,-204.593 730.223,-195.621"/>
<polygon fill="midnightblue" stroke="midnightblue" points="668.712,-224.682 661.558,-232.497 672.024,-230.849 668.712,-224.682"/>
</g>
<!-- Node13&#45;&gt;Node25 -->
<g id="edge60" class="edge"><title>Node13&#45;&gt;Node25</title>
<path fill="none" stroke="midnightblue" d="M570.765,-231.891C418.738,-212.241 378.402,-214.543 230,-196 225.634,-195.455 221.131,-194.867 216.599,-194.257"/>
<polygon fill="midnightblue" stroke="midnightblue" points="570.575,-235.396 580.943,-233.218 571.479,-228.454 570.575,-235.396"/>
</g>
<!-- Node15&#45;&gt;Node14 -->
<g id="edge40" class="edge"><title>Node15&#45;&gt;Node14</title>
<path fill="none" stroke="midnightblue" d="M291.781,-172.47C239.983,-162.038 167.066,-147.354 118.252,-137.523"/>
<polygon fill="midnightblue" stroke="midnightblue" points="291.351,-175.953 301.845,-174.497 292.733,-169.091 291.351,-175.953"/>
</g>
<!-- Node16 -->
<g id="node37" class="node"><title>Node16</title>
<a xlink:href="RemoteWindowDataSoftware_8cpp.htm" target="_top" xlink:title="RemoteWindowDataSoftware.cpp">
<polygon fill="white" stroke="black" points="149.5,-116.5 149.5,-137.5 324.5,-137.5 324.5,-116.5 149.5,-116.5"/>
<text text-anchor="middle" x="237" y="-124.5" font-family="Helvetica,sans-Serif" font-size="10.00">RemoteWindowDataSoftware.cpp</text>
</a>
</g>
<!-- Node15&#45;&gt;Node16 -->
<g id="edge42" class="edge"><title>Node15&#45;&gt;Node16</title>
<path fill="none" stroke="midnightblue" d="M323.604,-169.932C303.152,-159.793 276.689,-146.675 258.426,-137.621"/>
<polygon fill="midnightblue" stroke="midnightblue" points="322.298,-173.191 332.812,-174.497 325.407,-166.919 322.298,-173.191"/>
</g>
<!-- Node17 -->
<g id="node39" class="node"><title>Node17</title>
<a xlink:href="RemoteWindowDataSoftwareOpenGLComposited_8h.htm" target="_top" xlink:title="RemoteWindowDataSoftwareOpenGLComposited.h">
<polygon fill="white" stroke="black" points="342,-116.5 342,-137.5 602,-137.5 602,-116.5 342,-116.5"/>
<text text-anchor="middle" x="472" y="-124.5" font-family="Helvetica,sans-Serif" font-size="10.00">RemoteWindowDataSoftwareOpenGLComposited.h</text>
</a>
</g>
<!-- Node15&#45;&gt;Node17 -->
<g id="edge44" class="edge"><title>Node15&#45;&gt;Node17</title>
<path fill="none" stroke="midnightblue" d="M384.376,-170.069C405.041,-159.912 431.889,-146.716 450.391,-137.621"/>
<polygon fill="midnightblue" stroke="midnightblue" points="382.799,-166.944 375.369,-174.497 385.887,-173.226 382.799,-166.944"/>
</g>
<!-- Node18 -->
<g id="node41" class="node"><title>Node18</title>
<a xlink:href="RemoteWindowDataSoftwareOpenGLComposited_8cpp.htm" target="_top" xlink:title="RemoteWindowDataSoftwareOpenGLComposited.cpp">
<polygon fill="white" stroke="black" points="200,-58.5 200,-79.5 472,-79.5 472,-58.5 200,-58.5"/>
<text text-anchor="middle" x="336" y="-66.5" font-family="Helvetica,sans-Serif" font-size="10.00">RemoteWindowDataSoftwareOpenGLComposited.cpp</text>
</a>
</g>
<!-- Node17&#45;&gt;Node18 -->
<g id="edge46" class="edge"><title>Node17&#45;&gt;Node18</title>
<path fill="none" stroke="midnightblue" d="M437.952,-112.479C414.011,-102.269 382.518,-88.8386 360.905,-79.6212"/>
<polygon fill="midnightblue" stroke="midnightblue" points="436.8,-115.793 447.371,-116.497 439.546,-109.354 436.8,-115.793"/>
</g>
<!-- Node19 -->
<g id="node43" class="node"><title>Node19</title>
<a xlink:href="RemoteWindowDataSoftwareTextureShared_8h.htm" target="_top" xlink:title="RemoteWindowDataSoftwareTextureShared.h">
<polygon fill="white" stroke="black" points="490,-58.5 490,-79.5 724,-79.5 724,-58.5 490,-58.5"/>
<text text-anchor="middle" x="607" y="-66.5" font-family="Helvetica,sans-Serif" font-size="10.00">RemoteWindowDataSoftwareTextureShared.h</text>
</a>
</g>
<!-- Node17&#45;&gt;Node19 -->
<g id="edge48" class="edge"><title>Node17&#45;&gt;Node19</title>
<path fill="none" stroke="midnightblue" d="M505.798,-112.479C529.562,-102.269 560.824,-88.8386 582.278,-79.6212"/>
<polygon fill="midnightblue" stroke="midnightblue" points="504.254,-109.333 496.447,-116.497 507.017,-115.765 504.254,-109.333"/>
</g>
<!-- Node20 -->
<g id="node45" class="node"><title>Node20</title>
<a xlink:href="RemoteWindowDataSoftwareTextureShared_8cpp.htm" target="_top" xlink:title="RemoteWindowDataSoftwareTextureShared.cpp">
<polygon fill="white" stroke="black" points="484.5,-0.5 484.5,-21.5 729.5,-21.5 729.5,-0.5 484.5,-0.5"/>
<text text-anchor="middle" x="607" y="-8.5" font-family="Helvetica,sans-Serif" font-size="10.00">RemoteWindowDataSoftwareTextureShared.cpp</text>
</a>
</g>
<!-- Node19&#45;&gt;Node20 -->
<g id="edge50" class="edge"><title>Node19&#45;&gt;Node20</title>
<path fill="none" stroke="midnightblue" d="M607,-48.1906C607,-39.1684 607,-28.9941 607,-21.5707"/>
<polygon fill="midnightblue" stroke="midnightblue" points="603.5,-48.3619 607,-58.3619 610.5,-48.3619 603.5,-48.3619"/>
</g>
<!-- Node22 -->
<g id="node49" class="node"><title>Node22</title>
<a xlink:href="RemoteWindowDataOpenGL_8cpp.htm" target="_top" xlink:title="RemoteWindowDataOpenGL.cpp">
<polygon fill="white" stroke="black" points="619.5,-116.5 619.5,-137.5 792.5,-137.5 792.5,-116.5 619.5,-116.5"/>
<text text-anchor="middle" x="706" y="-124.5" font-family="Helvetica,sans-Serif" font-size="10.00">RemoteWindowDataOpenGL.cpp</text>
</a>
</g>
<!-- Node21&#45;&gt;Node22 -->
<g id="edge54" class="edge"><title>Node21&#45;&gt;Node22</title>
<path fill="none" stroke="midnightblue" d="M575.454,-171.279C605.925,-160.944 647.079,-146.985 674.975,-137.523"/>
<polygon fill="midnightblue" stroke="midnightblue" points="574.313,-167.97 565.967,-174.497 576.561,-174.599 574.313,-167.97"/>
</g>
<!-- Node24 -->
<g id="node53" class="node"><title>Node24</title>
<a xlink:href="RemoteWindowDataOpenGLTextureShared_8cpp.htm" target="_top" xlink:title="RemoteWindowDataOpenGLTextureShared.cpp">
<polygon fill="white" stroke="black" points="810,-116.5 810,-137.5 1054,-137.5 1054,-116.5 810,-116.5"/>
<text text-anchor="middle" x="932" y="-124.5" font-family="Helvetica,sans-Serif" font-size="10.00">RemoteWindowDataOpenGLTextureShared.cpp</text>
</a>
</g>
<!-- Node23&#45;&gt;Node24 -->
<g id="edge58" class="edge"><title>Node23&#45;&gt;Node24</title>
<path fill="none" stroke="midnightblue" d="M792.636,-171.413C825.108,-161.065 869.16,-147.026 898.979,-137.523"/>
<polygon fill="midnightblue" stroke="midnightblue" points="791.424,-168.125 782.959,-174.497 793.549,-174.795 791.424,-168.125"/>
</g>
<!-- Node27&#45;&gt;Node2 -->
<g id="edge72" class="edge"><title>Node27&#45;&gt;Node2</title>
<path fill="none" stroke="midnightblue" d="M1405.2,-289.722C1470.18,-275.932 1571.61,-254.364 1572,-254 1588.27,-238.653 1591.05,-210.775 1591.27,-195.575"/>
<polygon fill="midnightblue" stroke="midnightblue" points="1404.16,-286.364 1395.1,-291.863 1405.61,-293.212 1404.16,-286.364"/>
</g>
<!-- Node27&#45;&gt;Node3 -->
<g id="edge74" class="edge"><title>Node27&#45;&gt;Node3</title>
<path fill="none" stroke="midnightblue" d="M1386.23,-286.615C1410.56,-276.389 1442.7,-262.88 1464.73,-253.621"/>
<polygon fill="midnightblue" stroke="midnightblue" points="1384.85,-283.395 1376.99,-290.497 1387.57,-289.849 1384.85,-283.395"/>
</g>
<!-- Node27&#45;&gt;Node7 -->
<g id="edge68" class="edge"><title>Node27&#45;&gt;Node7</title>
<path fill="none" stroke="midnightblue" d="M1352,-280.191C1352,-271.168 1352,-260.994 1352,-253.571"/>
<polygon fill="midnightblue" stroke="midnightblue" points="1348.5,-280.362 1352,-290.362 1355.5,-280.362 1348.5,-280.362"/>
</g>
<!-- Node28 -->
<g id="node63" class="node"><title>Node28</title>
<a xlink:href="AlertWebApp_8cpp.htm" target="_top" xlink:title="AlertWebApp.cpp">
<polygon fill="white" stroke="black" points="1619,-232.5 1619,-253.5 1717,-253.5 1717,-232.5 1619,-232.5"/>
<text text-anchor="middle" x="1668" y="-240.5" font-family="Helvetica,sans-Serif" font-size="10.00">AlertWebApp.cpp</text>
</a>
</g>
<!-- Node27&#45;&gt;Node28 -->
<g id="edge70" class="edge"><title>Node27&#45;&gt;Node28</title>
<path fill="none" stroke="midnightblue" d="M1404.99,-289.884C1446.04,-282.194 1554.62,-262.992 1618.92,-251.65"/>
<polygon fill="midnightblue" stroke="midnightblue" points="1404.28,-286.458 1395.11,-291.769 1405.59,-293.334 1404.28,-286.458"/>
</g>
<!-- Node29&#45;&gt;Node2 -->
<g id="edge80" class="edge"><title>Node29&#45;&gt;Node2</title>
<path fill="none" stroke="midnightblue" d="M1785.33,-288.595C1821.71,-280.45 1861.17,-268.606 1872,-254 1877.83,-246.147 1878.32,-239.462 1872,-232 1858.3,-215.815 1736.84,-200.222 1658.16,-191.691"/>
<polygon fill="midnightblue" stroke="midnightblue" points="1784.2,-285.257 1775.17,-290.794 1785.69,-292.098 1784.2,-285.257"/>
</g>
<!-- Node30 -->
<g id="node69" class="node"><title>Node30</title>
<a xlink:href="DashboardWebApp_8cpp.htm" target="_top" xlink:title="DashboardWebApp.cpp">
<polygon fill="white" stroke="black" points="1735,-232.5 1735,-253.5 1863,-253.5 1863,-232.5 1735,-232.5"/>
<text text-anchor="middle" x="1799" y="-240.5" font-family="Helvetica,sans-Serif" font-size="10.00">DashboardWebApp.cpp</text>
</a>
</g>
<!-- Node29&#45;&gt;Node30 -->
<g id="edge78" class="edge"><title>Node29&#45;&gt;Node30</title>
<path fill="none" stroke="midnightblue" d="M1740.27,-284.541C1754.33,-274.597 1771.83,-262.218 1784.06,-253.571"/>
<polygon fill="midnightblue" stroke="midnightblue" points="1738.18,-281.73 1732.04,-290.362 1742.23,-287.445 1738.18,-281.73"/>
</g>
</g>
</svg>
