<?xml version="1.0" encoding="UTF-8" standalone="no"?>
<!DOCTYPE svg PUBLIC "-//W3C//DTD SVG 1.1//EN"
 "http://www.w3.org/Graphics/SVG/1.1/DTD/svg11.dtd">
<!-- Generated by graphviz version 2.26.3 (20100126.1600)
 -->
<!-- Title: G Pages: 1 -->
<svg width="1519pt" height="204pt"
 viewBox="0.00 0.00 1519.00 204.00" xmlns="http://www.w3.org/2000/svg" xmlns:xlink="http://www.w3.org/1999/xlink">
<g id="graph1" class="graph" transform="scale(1 1) rotate(0) translate(4 200)">
<title>G</title>
<polygon fill="white" stroke="white" points="-4,5 -4,-200 1516,-200 1516,5 -4,5"/>
<!-- Node1 -->
<g id="node1" class="node"><title>Node1</title>
<polygon fill="#bfbfbf" stroke="black" points="801,-174.5 801,-195.5 911,-195.5 911,-174.5 801,-174.5"/>
<text text-anchor="middle" x="856" y="-182.5" font-family="Helvetica,sans-Serif" font-size="10.00">WebAppMgrProxy.h</text>
</g>
<!-- Node2 -->
<g id="node3" class="node"><title>Node2</title>
<a xlink:href="Common_8h.htm" target="_top" xlink:title="Common.h">
<polygon fill="white" stroke="black" points="667.5,-0.5 667.5,-21.5 734.5,-21.5 734.5,-0.5 667.5,-0.5"/>
<text text-anchor="middle" x="701" y="-8.5" font-family="Helvetica,sans-Serif" font-size="10.00">Common.h</text>
</a>
</g>
<!-- Node1&#45;&gt;Node2 -->
<g id="edge2" class="edge"><title>Node1&#45;&gt;Node2</title>
<path fill="none" stroke="midnightblue" d="M885.65,-174.441C954.098,-149.932 1117.85,-90.4653 1125,-80 1130.52,-71.9263 1131.52,-65.2849 1125,-58 1099.93,-29.9928 847.94,-16.8477 744.73,-12.6068"/>
<polygon fill="midnightblue" stroke="midnightblue" points="744.77,-9.10573 734.638,-12.2012 744.489,-16.1001 744.77,-9.10573"/>
</g>
<!-- Node3 -->
<g id="node5" class="node"><title>Node3</title>
<polygon fill="white" stroke="#bfbfbf" points="0,-58.5 0,-79.5 124,-79.5 124,-58.5 0,-58.5"/>
<text text-anchor="middle" x="62" y="-66.5" font-family="Helvetica,sans-Serif" font-size="10.00">PIpcChannelListener.h</text>
</g>
<!-- Node1&#45;&gt;Node3 -->
<g id="edge4" class="edge"><title>Node1&#45;&gt;Node3</title>
<path fill="none" stroke="midnightblue" d="M800.591,-182.221C675.078,-175.653 372.21,-158.197 272,-138 208.748,-125.252 137.995,-99.485 96.8789,-83.2996"/>
<polygon fill="midnightblue" stroke="midnightblue" points="97.9194,-79.9468 87.3338,-79.5041 95.3329,-86.4514 97.9194,-79.9468"/>
</g>
<!-- Node4 -->
<g id="node7" class="node"><title>Node4</title>
<polygon fill="white" stroke="#bfbfbf" points="630.5,-116.5 630.5,-137.5 675.5,-137.5 675.5,-116.5 630.5,-116.5"/>
<text text-anchor="middle" x="653" y="-124.5" font-family="Helvetica,sans-Serif" font-size="10.00">queue</text>
</g>
<!-- Node1&#45;&gt;Node4 -->
<g id="edge6" class="edge"><title>Node1&#45;&gt;Node4</title>
<path fill="none" stroke="midnightblue" d="M814.04,-174.464C781.244,-166.021 734.329,-153.49 685.425,-138.315"/>
<polygon fill="midnightblue" stroke="midnightblue" points="686.211,-134.894 675.622,-135.245 684.119,-141.574 686.211,-134.894"/>
</g>
<!-- Node5 -->
<g id="node9" class="node"><title>Node5</title>
<a xlink:href="IpcClientHost_8h.htm" target="_top" xlink:title="IpcClientHost.h">
<polygon fill="white" stroke="black" points="281,-116.5 281,-137.5 369,-137.5 369,-116.5 281,-116.5"/>
<text text-anchor="middle" x="325" y="-124.5" font-family="Helvetica,sans-Serif" font-size="10.00">IpcClientHost.h</text>
</a>
</g>
<!-- Node1&#45;&gt;Node5 -->
<g id="edge8" class="edge"><title>Node1&#45;&gt;Node5</title>
<path fill="none" stroke="midnightblue" d="M800.676,-178.957C698.338,-167.779 480.675,-144.004 379.193,-132.919"/>
<polygon fill="midnightblue" stroke="midnightblue" points="379.479,-129.43 369.158,-131.823 378.718,-136.388 379.479,-129.43"/>
</g>
<!-- Node15 -->
<g id="node34" class="node"><title>Node15</title>
<a xlink:href="Event_8h.htm" target="_top" xlink:title="Event.h">
<polygon fill="white" stroke="black" points="830,-116.5 830,-137.5 882,-137.5 882,-116.5 830,-116.5"/>
<text text-anchor="middle" x="856" y="-124.5" font-family="Helvetica,sans-Serif" font-size="10.00">Event.h</text>
</a>
</g>
<!-- Node1&#45;&gt;Node15 -->
<g id="edge38" class="edge"><title>Node1&#45;&gt;Node15</title>
<path fill="none" stroke="midnightblue" d="M856,-174.362C856,-166.922 856,-156.743 856,-147.728"/>
<polygon fill="midnightblue" stroke="midnightblue" points="859.5,-147.571 856,-137.571 852.5,-147.571 859.5,-147.571"/>
</g>
<!-- Node21 -->
<g id="node51" class="node"><title>Node21</title>
<a xlink:href="CustomEvents_8h.htm" target="_top" xlink:title="CustomEvents.h">
<polygon fill="white" stroke="black" points="693,-116.5 693,-137.5 785,-137.5 785,-116.5 693,-116.5"/>
<text text-anchor="middle" x="739" y="-124.5" font-family="Helvetica,sans-Serif" font-size="10.00">CustomEvents.h</text>
</a>
</g>
<!-- Node1&#45;&gt;Node21 -->
<g id="edge60" class="edge"><title>Node1&#45;&gt;Node21</title>
<path fill="none" stroke="midnightblue" d="M834.812,-174.497C816.538,-165.438 789.928,-152.246 769.385,-142.063"/>
<polygon fill="midnightblue" stroke="midnightblue" points="770.94,-138.927 760.426,-137.621 767.831,-145.199 770.94,-138.927"/>
</g>
<!-- Node23 -->
<g id="node56" class="node"><title>Node23</title>
<polygon fill="white" stroke="#bfbfbf" points="1061,-116.5 1061,-137.5 1213,-137.5 1213,-116.5 1061,-116.5"/>
<text text-anchor="middle" x="1137" y="-124.5" font-family="Helvetica,sans-Serif" font-size="10.00">NewContentIndicatorEvent.h</text>
</g>
<!-- Node1&#45;&gt;Node23 -->
<g id="edge66" class="edge"><title>Node1&#45;&gt;Node23</title>
<path fill="none" stroke="midnightblue" d="M906.887,-174.497C954.482,-164.673 1025.63,-149.988 1076.19,-139.551"/>
<polygon fill="midnightblue" stroke="midnightblue" points="1076.93,-142.972 1086.02,-137.523 1075.52,-136.117 1076.93,-142.972"/>
</g>
<!-- Node24 -->
<g id="node58" class="node"><title>Node24</title>
<polygon fill="white" stroke="#bfbfbf" points="1231,-116.5 1231,-137.5 1361,-137.5 1361,-116.5 1231,-116.5"/>
<text text-anchor="middle" x="1296" y="-124.5" font-family="Helvetica,sans-Serif" font-size="10.00">BannerMessageEvent.h</text>
</g>
<!-- Node1&#45;&gt;Node24 -->
<g id="edge68" class="edge"><title>Node1&#45;&gt;Node24</title>
<path fill="none" stroke="midnightblue" d="M911.231,-178.254C980.895,-169.668 1104.64,-154.161 1220.53,-138.185"/>
<polygon fill="midnightblue" stroke="midnightblue" points="1221.21,-141.624 1230.64,-136.788 1220.26,-134.69 1221.21,-141.624"/>
</g>
<!-- Node25 -->
<g id="node60" class="node"><title>Node25</title>
<polygon fill="white" stroke="#bfbfbf" points="1378.5,-116.5 1378.5,-137.5 1511.5,-137.5 1511.5,-116.5 1378.5,-116.5"/>
<text text-anchor="middle" x="1445" y="-124.5" font-family="Helvetica,sans-Serif" font-size="10.00">ActiveCallBannerEvent.h</text>
</g>
<!-- Node1&#45;&gt;Node25 -->
<g id="edge70" class="edge"><title>Node1&#45;&gt;Node25</title>
<path fill="none" stroke="midnightblue" d="M911.251,-180.94C1003.72,-173.928 1195.88,-158.426 1368.35,-138.151"/>
<polygon fill="midnightblue" stroke="midnightblue" points="1368.85,-141.616 1378.37,-136.965 1368.03,-134.665 1368.85,-141.616"/>
</g>
<!-- Node5&#45;&gt;Node2 -->
<g id="edge10" class="edge"><title>Node5&#45;&gt;Node2</title>
<path fill="none" stroke="midnightblue" d="M362.371,-116.453C390.577,-107.974 429.934,-95.0258 463,-80 480.767,-71.9264 482.861,-65.1987 501,-58 552.804,-37.4408 615.881,-24.4689 657.168,-17.4817"/>
<polygon fill="midnightblue" stroke="midnightblue" points="657.878,-20.9121 667.176,-15.8332 656.74,-14.0052 657.878,-20.9121"/>
</g>
<!-- Node5&#45;&gt;Node3 -->
<g id="edge20" class="edge"><title>Node5&#45;&gt;Node3</title>
<path fill="none" stroke="midnightblue" d="M280.98,-117.292C236.747,-107.537 168.348,-92.4532 119.775,-81.7414"/>
<polygon fill="midnightblue" stroke="midnightblue" points="120.246,-78.2612 109.727,-79.5254 118.739,-85.097 120.246,-78.2612"/>
</g>
<!-- Node6 -->
<g id="node12" class="node"><title>Node6</title>
<polygon fill="white" stroke="#bfbfbf" points="115.5,-0.5 115.5,-21.5 158.5,-21.5 158.5,-0.5 115.5,-0.5"/>
<text text-anchor="middle" x="137" y="-8.5" font-family="Helvetica,sans-Serif" font-size="10.00">string</text>
</g>
<!-- Node5&#45;&gt;Node6 -->
<g id="edge12" class="edge"><title>Node5&#45;&gt;Node6</title>
<path fill="none" stroke="midnightblue" d="M280.667,-122.962C247.185,-117.845 201.881,-106.254 171,-80 156.12,-67.3494 147.145,-46.6335 142.184,-31.1963"/>
<polygon fill="midnightblue" stroke="midnightblue" points="145.522,-30.1406 139.368,-21.5163 138.801,-32.096 145.522,-30.1406"/>
</g>
<!-- Node7 -->
<g id="node14" class="node"><title>Node7</title>
<polygon fill="white" stroke="#bfbfbf" points="369.5,-58.5 369.5,-79.5 406.5,-79.5 406.5,-58.5 369.5,-58.5"/>
<text text-anchor="middle" x="388" y="-66.5" font-family="Helvetica,sans-Serif" font-size="10.00">map</text>
</g>
<!-- Node5&#45;&gt;Node7 -->
<g id="edge14" class="edge"><title>Node5&#45;&gt;Node7</title>
<path fill="none" stroke="midnightblue" d="M336.555,-116.362C345.613,-108.023 358.41,-96.2418 368.974,-86.5162"/>
<polygon fill="midnightblue" stroke="midnightblue" points="371.532,-88.9187 376.518,-79.5707 366.79,-83.7688 371.532,-88.9187"/>
</g>
<!-- Node8 -->
<g id="node16" class="node"><title>Node8</title>
<polygon fill="white" stroke="#bfbfbf" points="423.5,-58.5 423.5,-79.5 454.5,-79.5 454.5,-58.5 423.5,-58.5"/>
<text text-anchor="middle" x="439" y="-66.5" font-family="Helvetica,sans-Serif" font-size="10.00">set</text>
</g>
<!-- Node5&#45;&gt;Node8 -->
<g id="edge16" class="edge"><title>Node5&#45;&gt;Node8</title>
<path fill="none" stroke="midnightblue" d="M345.645,-116.497C364.921,-106.69 393.717,-92.0387 414.225,-81.6049"/>
<polygon fill="midnightblue" stroke="midnightblue" points="415.948,-84.655 423.274,-77.0009 412.774,-78.4161 415.948,-84.655"/>
</g>
<!-- Node9 -->
<g id="node18" class="node"><title>Node9</title>
<polygon fill="white" stroke="#bfbfbf" points="565.5,-0.5 565.5,-21.5 606.5,-21.5 606.5,-0.5 565.5,-0.5"/>
<text text-anchor="middle" x="586" y="-8.5" font-family="Helvetica,sans-Serif" font-size="10.00">glib.h</text>
</g>
<!-- Node5&#45;&gt;Node9 -->
<g id="edge18" class="edge"><title>Node5&#45;&gt;Node9</title>
<path fill="none" stroke="midnightblue" d="M312.125,-116.294C296.362,-101.914 273.555,-76.0817 289,-58 306.174,-37.895 482.182,-20.1753 554.864,-13.6576"/>
<polygon fill="midnightblue" stroke="midnightblue" points="555.552,-17.1105 565.205,-12.7436 554.936,-10.1377 555.552,-17.1105"/>
</g>
<!-- Node10 -->
<g id="node21" class="node"><title>Node10</title>
<a xlink:href="Window_8h.htm" target="_top" xlink:title="Window.h">
<polygon fill="white" stroke="black" points="180,-58.5 180,-79.5 242,-79.5 242,-58.5 180,-58.5"/>
<text text-anchor="middle" x="211" y="-66.5" font-family="Helvetica,sans-Serif" font-size="10.00">Window.h</text>
</a>
</g>
<!-- Node5&#45;&gt;Node10 -->
<g id="edge22" class="edge"><title>Node5&#45;&gt;Node10</title>
<path fill="none" stroke="midnightblue" d="M304.355,-116.497C286.63,-107.479 260.855,-94.3649 240.877,-84.2006"/>
<polygon fill="midnightblue" stroke="midnightblue" points="242.376,-81.0364 231.876,-79.6212 239.202,-87.2753 242.376,-81.0364"/>
</g>
<!-- Node14 -->
<g id="node32" class="node"><title>Node14</title>
<polygon fill="white" stroke="#bfbfbf" points="297.5,-58.5 297.5,-79.5 352.5,-79.5 352.5,-58.5 297.5,-58.5"/>
<text text-anchor="middle" x="325" y="-66.5" font-family="Helvetica,sans-Serif" font-size="10.00">QObject</text>
</g>
<!-- Node5&#45;&gt;Node14 -->
<g id="edge36" class="edge"><title>Node5&#45;&gt;Node14</title>
<path fill="none" stroke="midnightblue" d="M325,-116.362C325,-108.922 325,-98.7427 325,-89.7276"/>
<polygon fill="midnightblue" stroke="midnightblue" points="328.5,-89.5706 325,-79.5707 321.5,-89.5707 328.5,-89.5706"/>
</g>
<!-- Node10&#45;&gt;Node2 -->
<g id="edge24" class="edge"><title>Node10&#45;&gt;Node2</title>
<path fill="none" stroke="midnightblue" d="M242.095,-64.396C256.372,-62.3384 273.531,-59.9444 289,-58 433.632,-39.82 470.254,-39.2478 615,-22 628.697,-20.3679 643.608,-18.4947 657.109,-16.7622"/>
<polygon fill="midnightblue" stroke="midnightblue" points="657.645,-20.2221 667.115,-15.471 656.749,-13.2797 657.645,-20.2221"/>
</g>
<!-- Node10&#45;&gt;Node6 -->
<g id="edge28" class="edge"><title>Node10&#45;&gt;Node6</title>
<path fill="none" stroke="midnightblue" d="M197.427,-58.3619C186.579,-49.859 171.166,-37.7785 158.621,-27.9466"/>
<polygon fill="midnightblue" stroke="midnightblue" points="160.516,-24.9848 150.487,-21.5707 156.198,-30.4942 160.516,-24.9848"/>
</g>
<!-- Node10&#45;&gt;Node9 -->
<g id="edge30" class="edge"><title>Node10&#45;&gt;Node9</title>
<path fill="none" stroke="midnightblue" d="M242.385,-60.9112C246.937,-59.8596 251.578,-58.8533 256,-58 365.392,-36.8928 496.881,-20.9515 555.367,-14.3433"/>
<polygon fill="midnightblue" stroke="midnightblue" points="555.867,-17.8092 565.416,-13.2189 555.089,-10.8526 555.867,-17.8092"/>
</g>
<!-- Node11 -->
<g id="node24" class="node"><title>Node11</title>
<polygon fill="white" stroke="#bfbfbf" points="409,-0.5 409,-21.5 459,-21.5 459,-0.5 409,-0.5"/>
<text text-anchor="middle" x="434" y="-8.5" font-family="Helvetica,sans-Serif" font-size="10.00">stdint.h</text>
</g>
<!-- Node10&#45;&gt;Node11 -->
<g id="edge26" class="edge"><title>Node10&#45;&gt;Node11</title>
<path fill="none" stroke="midnightblue" d="M242.007,-60.9353C283.223,-50.2156 355.857,-31.3241 398.996,-20.1041"/>
<polygon fill="midnightblue" stroke="midnightblue" points="399.975,-23.4662 408.771,-17.5617 398.212,-16.6916 399.975,-23.4662"/>
</g>
<!-- Node12 -->
<g id="node28" class="node"><title>Node12</title>
<polygon fill="white" stroke="#bfbfbf" points="176,-0.5 176,-21.5 274,-21.5 274,-0.5 176,-0.5"/>
<text text-anchor="middle" x="225" y="-8.5" font-family="Helvetica,sans-Serif" font-size="10.00">QGraphicsObject</text>
</g>
<!-- Node10&#45;&gt;Node12 -->
<g id="edge32" class="edge"><title>Node10&#45;&gt;Node12</title>
<path fill="none" stroke="midnightblue" d="M213.568,-58.3619C215.383,-50.8401 217.875,-40.5187 220.068,-31.4308"/>
<polygon fill="midnightblue" stroke="midnightblue" points="223.504,-32.1127 222.448,-21.5707 216.7,-30.4702 223.504,-32.1127"/>
</g>
<!-- Node13 -->
<g id="node30" class="node"><title>Node13</title>
<polygon fill="white" stroke="#bfbfbf" points="291.5,-0.5 291.5,-21.5 336.5,-21.5 336.5,-0.5 291.5,-0.5"/>
<text text-anchor="middle" x="314" y="-8.5" font-family="Helvetica,sans-Serif" font-size="10.00">QSize</text>
</g>
<!-- Node10&#45;&gt;Node13 -->
<g id="edge34" class="edge"><title>Node10&#45;&gt;Node13</title>
<path fill="none" stroke="midnightblue" d="M229.892,-58.3619C245.718,-49.4502 268.523,-36.6087 286.395,-26.5447"/>
<polygon fill="midnightblue" stroke="midnightblue" points="288.232,-29.5271 295.228,-21.5707 284.797,-23.4276 288.232,-29.5271"/>
</g>
<!-- Node15&#45;&gt;Node2 -->
<g id="edge40" class="edge"><title>Node15&#45;&gt;Node2</title>
<path fill="none" stroke="midnightblue" d="M858.587,-116.355C861.505,-101.572 864.272,-74.7606 851,-58 837.675,-41.1722 784.088,-27.2786 744.751,-19.0671"/>
<polygon fill="midnightblue" stroke="midnightblue" points="745.335,-15.6143 734.838,-17.0537 743.941,-22.4742 745.335,-15.6143"/>
</g>
<!-- Node15&#45;&gt;Node9 -->
<g id="edge44" class="edge"><title>Node15&#45;&gt;Node9</title>
<path fill="none" stroke="midnightblue" d="M829.926,-122.07C777.448,-112.014 662.726,-89.2996 647,-80 626.176,-67.6859 608.659,-45.8248 597.814,-30.0034"/>
<polygon fill="midnightblue" stroke="midnightblue" points="600.644,-27.9363 592.225,-21.5038 594.795,-31.7822 600.644,-27.9363"/>
</g>
<!-- Node15&#45;&gt;Node11 -->
<g id="edge42" class="edge"><title>Node15&#45;&gt;Node11</title>
<path fill="none" stroke="midnightblue" d="M829.575,-122.192C771.654,-111.598 637.07,-86.654 617,-80 595.489,-72.8682 591.975,-66.5802 571,-58 536.799,-44.0096 496.719,-30.5939 468.78,-21.7031"/>
<polygon fill="midnightblue" stroke="midnightblue" points="469.659,-18.3104 459.069,-18.6396 467.553,-24.9861 469.659,-18.3104"/>
</g>
<!-- Node16 -->
<g id="node39" class="node"><title>Node16</title>
<polygon fill="white" stroke="#bfbfbf" points="897.5,-58.5 897.5,-79.5 944.5,-79.5 944.5,-58.5 897.5,-58.5"/>
<text text-anchor="middle" x="921" y="-66.5" font-family="Helvetica,sans-Serif" font-size="10.00">stdio.h</text>
</g>
<!-- Node15&#45;&gt;Node16 -->
<g id="edge46" class="edge"><title>Node15&#45;&gt;Node16</title>
<path fill="none" stroke="midnightblue" d="M867.922,-116.362C877.359,-107.941 890.73,-96.0105 901.69,-86.2308"/>
<polygon fill="midnightblue" stroke="midnightblue" points="904.022,-88.8401 909.154,-79.5707 899.362,-83.6171 904.022,-88.8401"/>
</g>
<!-- Node17 -->
<g id="node41" class="node"><title>Node17</title>
<polygon fill="white" stroke="#bfbfbf" points="961.5,-58.5 961.5,-79.5 1012.5,-79.5 1012.5,-58.5 961.5,-58.5"/>
<text text-anchor="middle" x="987" y="-66.5" font-family="Helvetica,sans-Serif" font-size="10.00">string.h</text>
</g>
<!-- Node15&#45;&gt;Node17 -->
<g id="edge48" class="edge"><title>Node15&#45;&gt;Node17</title>
<path fill="none" stroke="midnightblue" d="M879.723,-116.497C900.368,-107.356 930.516,-94.0082 953.599,-83.7883"/>
<polygon fill="midnightblue" stroke="midnightblue" points="955.284,-86.8701 963.011,-79.6212 952.45,-80.4694 955.284,-86.8701"/>
</g>
<!-- Node18 -->
<g id="node43" class="node"><title>Node18</title>
<polygon fill="white" stroke="#bfbfbf" points="1030,-58.5 1030,-79.5 1116,-79.5 1116,-58.5 1030,-58.5"/>
<text text-anchor="middle" x="1073" y="-66.5" font-family="Helvetica,sans-Serif" font-size="10.00">qnamespace.h</text>
</g>
<!-- Node15&#45;&gt;Node18 -->
<g id="edge50" class="edge"><title>Node15&#45;&gt;Node18</title>
<path fill="none" stroke="midnightblue" d="M882.175,-120.004C917.105,-110.668 979.649,-93.9511 1023.59,-82.2067"/>
<polygon fill="midnightblue" stroke="midnightblue" points="1024.74,-85.5221 1033.5,-79.5586 1022.93,-78.7595 1024.74,-85.5221"/>
</g>
<!-- Node19 -->
<g id="node45" class="node"><title>Node19</title>
<polygon fill="white" stroke="#bfbfbf" points="754,-58.5 754,-79.5 842,-79.5 842,-58.5 754,-58.5"/>
<text text-anchor="middle" x="798" y="-66.5" font-family="Helvetica,sans-Serif" font-size="10.00">SysMgrEvent.h</text>
</g>
<!-- Node15&#45;&gt;Node19 -->
<g id="edge52" class="edge"><title>Node15&#45;&gt;Node19</title>
<path fill="none" stroke="midnightblue" d="M845.362,-116.362C837.104,-108.104 825.472,-96.4725 815.803,-86.8029"/>
<polygon fill="midnightblue" stroke="midnightblue" points="818.117,-84.1669 808.571,-79.5707 813.167,-89.1166 818.117,-84.1669"/>
</g>
<!-- Node20 -->
<g id="node47" class="node"><title>Node20</title>
<a xlink:href="sptr_8h.htm" target="_top" xlink:title="sptr.h">
<polygon fill="white" stroke="black" points="655.5,-58.5 655.5,-79.5 698.5,-79.5 698.5,-58.5 655.5,-58.5"/>
<text text-anchor="middle" x="677" y="-66.5" font-family="Helvetica,sans-Serif" font-size="10.00">sptr.h</text>
</a>
</g>
<!-- Node15&#45;&gt;Node20 -->
<g id="edge54" class="edge"><title>Node15&#45;&gt;Node20</title>
<path fill="none" stroke="midnightblue" d="M829.972,-118.566C797.672,-108.1 742.648,-90.2714 708.142,-79.0908"/>
<polygon fill="midnightblue" stroke="midnightblue" points="709.157,-75.7405 698.565,-75.9876 706.999,-82.3997 709.157,-75.7405"/>
</g>
<!-- Node20&#45;&gt;Node2 -->
<g id="edge56" class="edge"><title>Node20&#45;&gt;Node2</title>
<path fill="none" stroke="midnightblue" d="M681.402,-58.3619C684.582,-50.6766 688.972,-40.0686 692.79,-30.8399"/>
<polygon fill="midnightblue" stroke="midnightblue" points="696.036,-32.1491 696.626,-21.5707 689.568,-29.4726 696.036,-32.1491"/>
</g>
<!-- Node20&#45;&gt;Node9 -->
<g id="edge58" class="edge"><title>Node20&#45;&gt;Node9</title>
<path fill="none" stroke="midnightblue" d="M660.309,-58.3619C646.584,-49.6138 626.916,-37.0786 611.263,-27.1015"/>
<polygon fill="midnightblue" stroke="midnightblue" points="612.899,-23.994 602.585,-21.5707 609.137,-29.8969 612.899,-23.994"/>
</g>
<!-- Node21&#45;&gt;Node2 -->
<g id="edge62" class="edge"><title>Node21&#45;&gt;Node2</title>
<path fill="none" stroke="midnightblue" d="M735.493,-116.295C729.187,-97.0451 715.836,-56.2889 707.718,-31.5091"/>
<polygon fill="midnightblue" stroke="midnightblue" points="710.938,-30.0927 704.498,-21.6792 704.285,-32.2719 710.938,-30.0927"/>
</g>
<!-- Node22 -->
<g id="node54" class="node"><title>Node22</title>
<polygon fill="white" stroke="#bfbfbf" points="510,-58.5 510,-79.5 562,-79.5 562,-58.5 510,-58.5"/>
<text text-anchor="middle" x="536" y="-66.5" font-family="Helvetica,sans-Serif" font-size="10.00">QEvent</text>
</g>
<!-- Node21&#45;&gt;Node22 -->
<g id="edge64" class="edge"><title>Node21&#45;&gt;Node22</title>
<path fill="none" stroke="midnightblue" d="M702.238,-116.497C665.268,-105.934 608.63,-89.7514 571.95,-79.2715"/>
<polygon fill="midnightblue" stroke="midnightblue" points="572.744,-75.8582 562.167,-76.4762 570.821,-82.5889 572.744,-75.8582"/>
</g>
</g>
</svg>
