<?xml version="1.0" encoding="UTF-8" standalone="no"?>
<!DOCTYPE svg PUBLIC "-//W3C//DTD SVG 1.1//EN"
 "http://www.w3.org/Graphics/SVG/1.1/DTD/svg11.dtd">
<!-- Generated by graphviz version 2.26.3 (20100126.1600)
 -->
<!-- Title: G Pages: 1 -->
<svg width="1164pt" height="146pt"
 viewBox="0.00 0.00 1164.00 146.00" xmlns="http://www.w3.org/2000/svg" xmlns:xlink="http://www.w3.org/1999/xlink">
<g id="graph1" class="graph" transform="scale(1 1) rotate(0) translate(4 142)">
<title>G</title>
<polygon fill="white" stroke="white" points="-4,5 -4,-142 1161,-142 1161,5 -4,5"/>
<!-- Node1 -->
<g id="node1" class="node"><title>Node1</title>
<polygon fill="#bfbfbf" stroke="black" points="494,-116.5 494,-137.5 594,-137.5 594,-116.5 494,-116.5"/>
<text text-anchor="middle" x="544" y="-124.5" font-family="Helvetica,sans-Serif" font-size="10.00">WebAppFactory.h</text>
</g>
<!-- Node2 -->
<g id="node3" class="node"><title>Node2</title>
<a xlink:href="JsSysObject_8cpp.htm" target="_top" xlink:title="JsSysObject.cpp">
<polygon fill="white" stroke="black" points="0,-58.5 0,-79.5 94,-79.5 94,-58.5 0,-58.5"/>
<text text-anchor="middle" x="47" y="-66.5" font-family="Helvetica,sans-Serif" font-size="10.00">JsSysObject.cpp</text>
</a>
</g>
<!-- Node1&#45;&gt;Node2 -->
<g id="edge2" class="edge"><title>Node1&#45;&gt;Node2</title>
<path fill="none" stroke="midnightblue" d="M483.888,-122.277C398.808,-115.211 238.523,-100.492 103,-80 100.061,-79.5556 97.0418,-79.0643 94.0015,-78.5432"/>
<polygon fill="midnightblue" stroke="midnightblue" points="483.631,-125.768 493.884,-123.101 484.205,-118.792 483.631,-125.768"/>
</g>
<!-- Node3 -->
<g id="node5" class="node"><title>Node3</title>
<a xlink:href="CardWebApp_8cpp.htm" target="_top" xlink:title="CardWebApp.cpp">
<polygon fill="white" stroke="black" points="111.5,-58.5 111.5,-79.5 210.5,-79.5 210.5,-58.5 111.5,-58.5"/>
<text text-anchor="middle" x="161" y="-66.5" font-family="Helvetica,sans-Serif" font-size="10.00">CardWebApp.cpp</text>
</a>
</g>
<!-- Node1&#45;&gt;Node3 -->
<g id="edge4" class="edge"><title>Node1&#45;&gt;Node3</title>
<path fill="none" stroke="midnightblue" d="M483.667,-119.08C418.323,-110.314 311.073,-95.3811 219,-80 216.271,-79.544 213.472,-79.0619 210.649,-78.5642"/>
<polygon fill="midnightblue" stroke="midnightblue" points="483.41,-122.577 493.786,-120.433 484.338,-115.638 483.41,-122.577"/>
</g>
<!-- Node4 -->
<g id="node7" class="node"><title>Node4</title>
<a xlink:href="DockWebApp_8cpp.htm" target="_top" xlink:title="DockWebApp.cpp">
<polygon fill="white" stroke="black" points="228,-58.5 228,-79.5 328,-79.5 328,-58.5 228,-58.5"/>
<text text-anchor="middle" x="278" y="-66.5" font-family="Helvetica,sans-Serif" font-size="10.00">DockWebApp.cpp</text>
</a>
</g>
<!-- Node1&#45;&gt;Node4 -->
<g id="edge6" class="edge"><title>Node1&#45;&gt;Node4</title>
<path fill="none" stroke="midnightblue" d="M485.935,-114.339C438.132,-103.916 371.158,-89.3126 326.261,-79.5231"/>
<polygon fill="midnightblue" stroke="midnightblue" points="485.313,-117.786 495.829,-116.497 486.805,-110.947 485.313,-117.786"/>
</g>
<!-- Node5 -->
<g id="node9" class="node"><title>Node5</title>
<a xlink:href="WebAppFactoryLuna_8h.htm" target="_top" xlink:title="WebAppFactoryLuna.h">
<polygon fill="white" stroke="black" points="345.5,-58.5 345.5,-79.5 468.5,-79.5 468.5,-58.5 345.5,-58.5"/>
<text text-anchor="middle" x="407" y="-66.5" font-family="Helvetica,sans-Serif" font-size="10.00">WebAppFactoryLuna.h</text>
</a>
</g>
<!-- Node1&#45;&gt;Node5 -->
<g id="edge8" class="edge"><title>Node1&#45;&gt;Node5</title>
<path fill="none" stroke="midnightblue" d="M509.701,-112.479C485.585,-102.269 453.86,-88.8386 432.088,-79.6212"/>
<polygon fill="midnightblue" stroke="midnightblue" points="508.617,-115.821 519.19,-116.497 511.346,-109.375 508.617,-115.821"/>
</g>
<!-- Node7 -->
<g id="node13" class="node"><title>Node7</title>
<a xlink:href="WebAppFactory_8cpp.htm" target="_top" xlink:title="WebAppFactory.cpp">
<polygon fill="white" stroke="black" points="440.5,-0.5 440.5,-21.5 551.5,-21.5 551.5,-0.5 440.5,-0.5"/>
<text text-anchor="middle" x="496" y="-8.5" font-family="Helvetica,sans-Serif" font-size="10.00">WebAppFactory.cpp</text>
</a>
</g>
<!-- Node1&#45;&gt;Node7 -->
<g id="edge22" class="edge"><title>Node1&#45;&gt;Node7</title>
<path fill="none" stroke="midnightblue" d="M530.421,-107.78C525.048,-99.5215 519.173,-89.5802 515,-80 506.367,-60.1789 500.692,-35.4258 497.942,-21.602"/>
<polygon fill="midnightblue" stroke="midnightblue" points="527.661,-109.948 536.155,-116.281 533.464,-106.033 527.661,-109.948"/>
</g>
<!-- Node8 -->
<g id="node15" class="node"><title>Node8</title>
<a xlink:href="WebAppFactoryMinimal_8h.htm" target="_top" xlink:title="WebAppFactoryMinimal.h">
<polygon fill="white" stroke="black" points="524,-58.5 524,-79.5 660,-79.5 660,-58.5 524,-58.5"/>
<text text-anchor="middle" x="592" y="-66.5" font-family="Helvetica,sans-Serif" font-size="10.00">WebAppFactoryMinimal.h</text>
</a>
</g>
<!-- Node1&#45;&gt;Node8 -->
<g id="edge14" class="edge"><title>Node1&#45;&gt;Node8</title>
<path fill="none" stroke="midnightblue" d="M559.277,-108.541C567.19,-98.9786 576.568,-87.6467 583.252,-79.5707"/>
<polygon fill="midnightblue" stroke="midnightblue" points="556.483,-106.426 552.804,-116.362 561.876,-110.889 556.483,-106.426"/>
</g>
<!-- Node10 -->
<g id="node20" class="node"><title>Node10</title>
<a xlink:href="WebAppBase_8cpp.htm" target="_top" xlink:title="WebAppBase.cpp">
<polygon fill="white" stroke="black" points="678,-58.5 678,-79.5 778,-79.5 778,-58.5 678,-58.5"/>
<text text-anchor="middle" x="728" y="-66.5" font-family="Helvetica,sans-Serif" font-size="10.00">WebAppBase.cpp</text>
</a>
</g>
<!-- Node1&#45;&gt;Node10 -->
<g id="edge20" class="edge"><title>Node1&#45;&gt;Node10</title>
<path fill="none" stroke="midnightblue" d="M587.104,-113.413C619.933,-103.065 664.47,-89.0258 694.616,-79.5231"/>
<polygon fill="midnightblue" stroke="midnightblue" points="585.806,-110.152 577.321,-116.497 587.911,-116.828 585.806,-110.152"/>
</g>
<!-- Node11 -->
<g id="node23" class="node"><title>Node11</title>
<a xlink:href="WebAppManager_8cpp.htm" target="_top" xlink:title="WebAppManager.cpp">
<polygon fill="white" stroke="black" points="795.5,-58.5 795.5,-79.5 914.5,-79.5 914.5,-58.5 795.5,-58.5"/>
<text text-anchor="middle" x="855" y="-66.5" font-family="Helvetica,sans-Serif" font-size="10.00">WebAppManager.cpp</text>
</a>
</g>
<!-- Node1&#45;&gt;Node11 -->
<g id="edge24" class="edge"><title>Node1&#45;&gt;Node11</title>
<path fill="none" stroke="midnightblue" d="M604.472,-115.722C660.621,-105.251 743.578,-89.7796 798.437,-79.5487"/>
<polygon fill="midnightblue" stroke="midnightblue" points="603.502,-112.343 594.313,-117.617 604.785,-119.224 603.502,-112.343"/>
</g>
<!-- Node12 -->
<g id="node25" class="node"><title>Node12</title>
<a xlink:href="WebPage_8cpp.htm" target="_top" xlink:title="WebPage.cpp">
<polygon fill="white" stroke="black" points="932,-58.5 932,-79.5 1014,-79.5 1014,-58.5 932,-58.5"/>
<text text-anchor="middle" x="973" y="-66.5" font-family="Helvetica,sans-Serif" font-size="10.00">WebPage.cpp</text>
</a>
</g>
<!-- Node1&#45;&gt;Node12 -->
<g id="edge26" class="edge"><title>Node1&#45;&gt;Node12</title>
<path fill="none" stroke="midnightblue" d="M604.384,-121.265C679.388,-113.739 811.127,-99.1998 923,-80 925.891,-79.5039 928.867,-78.9529 931.859,-78.3694"/>
<polygon fill="midnightblue" stroke="midnightblue" points="603.79,-117.807 594.185,-122.28 604.483,-124.773 603.79,-117.807"/>
</g>
<!-- Node13 -->
<g id="node27" class="node"><title>Node13</title>
<a xlink:href="WindowedWebApp_8cpp.htm" target="_top" xlink:title="WindowedWebApp.cpp">
<polygon fill="white" stroke="black" points="1031.5,-58.5 1031.5,-79.5 1156.5,-79.5 1156.5,-58.5 1031.5,-58.5"/>
<text text-anchor="middle" x="1094" y="-66.5" font-family="Helvetica,sans-Serif" font-size="10.00">WindowedWebApp.cpp</text>
</a>
</g>
<!-- Node1&#45;&gt;Node13 -->
<g id="edge28" class="edge"><title>Node1&#45;&gt;Node13</title>
<path fill="none" stroke="midnightblue" d="M604.215,-122.179C695.115,-114.656 872.733,-98.9974 1023,-80 1025.72,-79.6558 1028.5,-79.2895 1031.31,-78.9075"/>
<polygon fill="midnightblue" stroke="midnightblue" points="603.777,-118.703 594.098,-123.012 604.352,-125.68 603.777,-118.703"/>
</g>
<!-- Node6 -->
<g id="node11" class="node"><title>Node6</title>
<a xlink:href="WebAppFactoryLuna_8cpp.htm" target="_top" xlink:title="WebAppFactoryLuna.cpp">
<polygon fill="white" stroke="black" points="289,-0.5 289,-21.5 423,-21.5 423,-0.5 289,-0.5"/>
<text text-anchor="middle" x="356" y="-8.5" font-family="Helvetica,sans-Serif" font-size="10.00">WebAppFactoryLuna.cpp</text>
</a>
</g>
<!-- Node5&#45;&gt;Node6 -->
<g id="edge10" class="edge"><title>Node5&#45;&gt;Node6</title>
<path fill="none" stroke="midnightblue" d="M391.023,-50.8299C382.562,-41.2078 372.468,-29.7282 365.295,-21.5707"/>
<polygon fill="midnightblue" stroke="midnightblue" points="388.414,-53.1634 397.646,-58.3619 393.671,-48.541 388.414,-53.1634"/>
</g>
<!-- Node5&#45;&gt;Node7 -->
<g id="edge12" class="edge"><title>Node5&#45;&gt;Node7</title>
<path fill="none" stroke="midnightblue" d="M431.826,-52.8215C447.156,-42.8312 466.386,-30.2993 479.78,-21.5707"/>
<polygon fill="midnightblue" stroke="midnightblue" points="429.791,-49.9698 423.324,-58.3619 433.613,-55.8344 429.791,-49.9698"/>
</g>
<!-- Node8&#45;&gt;Node7 -->
<g id="edge18" class="edge"><title>Node8&#45;&gt;Node7</title>
<path fill="none" stroke="midnightblue" d="M565.684,-53.1009C549.074,-43.0658 528.079,-30.3808 513.496,-21.5707"/>
<polygon fill="midnightblue" stroke="midnightblue" points="564.023,-56.1864 574.392,-58.3619 567.643,-50.195 564.023,-56.1864"/>
</g>
<!-- Node9 -->
<g id="node17" class="node"><title>Node9</title>
<a xlink:href="WebAppFactoryMinimal_8cpp.htm" target="_top" xlink:title="WebAppFactoryMinimal.cpp">
<polygon fill="white" stroke="black" points="568.5,-0.5 568.5,-21.5 715.5,-21.5 715.5,-0.5 568.5,-0.5"/>
<text text-anchor="middle" x="642" y="-8.5" font-family="Helvetica,sans-Serif" font-size="10.00">WebAppFactoryMinimal.cpp</text>
</a>
</g>
<!-- Node8&#45;&gt;Node9 -->
<g id="edge16" class="edge"><title>Node8&#45;&gt;Node9</title>
<path fill="none" stroke="midnightblue" d="M607.913,-50.5407C616.156,-40.9786 625.925,-29.6467 632.887,-21.5707"/>
<polygon fill="midnightblue" stroke="midnightblue" points="605.049,-48.5025 601.171,-58.3619 610.351,-53.0731 605.049,-48.5025"/>
</g>
</g>
</svg>
