<?xml version="1.0" encoding="UTF-8" standalone="no"?>
<!DOCTYPE svg PUBLIC "-//W3C//DTD SVG 1.1//EN"
 "http://www.w3.org/Graphics/SVG/1.1/DTD/svg11.dtd">
<!-- Generated by graphviz version 2.26.3 (20100126.1600)
 -->
<!-- Title: G Pages: 1 -->
<svg width="438pt" height="204pt"
 viewBox="0.00 0.00 438.00 204.00" xmlns="http://www.w3.org/2000/svg" xmlns:xlink="http://www.w3.org/1999/xlink">
<g id="graph1" class="graph" transform="scale(1 1) rotate(0) translate(4 200)">
<title>G</title>
<polygon fill="white" stroke="white" points="-4,5 -4,-200 435,-200 435,5 -4,5"/>
<!-- Node1 -->
<g id="node1" class="node"><title>Node1</title>
<polygon fill="#bfbfbf" stroke="black" points="272,-174.5 272,-195.5 408,-195.5 408,-174.5 272,-174.5"/>
<text text-anchor="middle" x="340" y="-182.5" font-family="Helvetica,sans-Serif" font-size="10.00">WebAppFactoryMinimal.h</text>
</g>
<!-- Node2 -->
<g id="node3" class="node"><title>Node2</title>
<a xlink:href="Common_8h.htm" target="_top" xlink:title="Common.h">
<polygon fill="white" stroke="black" points="363.5,-0.5 363.5,-21.5 430.5,-21.5 430.5,-0.5 363.5,-0.5"/>
<text text-anchor="middle" x="397" y="-8.5" font-family="Helvetica,sans-Serif" font-size="10.00">Common.h</text>
</a>
</g>
<!-- Node1&#45;&gt;Node2 -->
<g id="edge2" class="edge"><title>Node1&#45;&gt;Node2</title>
<path fill="none" stroke="midnightblue" d="M343.48,-174.377C352.72,-146.172 377.996,-69.0121 390.212,-31.7203"/>
<polygon fill="midnightblue" stroke="midnightblue" points="393.633,-32.5204 393.42,-21.9277 386.981,-30.3412 393.633,-32.5204"/>
</g>
<!-- Node3 -->
<g id="node5" class="node"><title>Node3</title>
<a xlink:href="WebAppFactory_8h.htm" target="_top" xlink:title="WebAppFactory.h">
<polygon fill="white" stroke="black" points="218,-116.5 218,-137.5 318,-137.5 318,-116.5 218,-116.5"/>
<text text-anchor="middle" x="268" y="-124.5" font-family="Helvetica,sans-Serif" font-size="10.00">WebAppFactory.h</text>
</a>
</g>
<!-- Node1&#45;&gt;Node3 -->
<g id="edge4" class="edge"><title>Node1&#45;&gt;Node3</title>
<path fill="none" stroke="midnightblue" d="M326.794,-174.362C316.239,-165.859 301.242,-153.779 289.037,-143.947"/>
<polygon fill="midnightblue" stroke="midnightblue" points="291.105,-141.118 281.122,-137.571 286.714,-146.57 291.105,-141.118"/>
</g>
<!-- Node3&#45;&gt;Node2 -->
<g id="edge6" class="edge"><title>Node3&#45;&gt;Node2</title>
<path fill="none" stroke="midnightblue" d="M279.905,-116.295C302.176,-96.2682 350.333,-52.9641 377.439,-28.5893"/>
<polygon fill="midnightblue" stroke="midnightblue" points="380.028,-30.9682 385.124,-21.6792 375.348,-25.7632 380.028,-30.9682"/>
</g>
<!-- Node4 -->
<g id="node8" class="node"><title>Node4</title>
<polygon fill="white" stroke="#bfbfbf" points="-0.5,-0.5 -0.5,-21.5 42.5,-21.5 42.5,-0.5 -0.5,-0.5"/>
<text text-anchor="middle" x="21" y="-8.5" font-family="Helvetica,sans-Serif" font-size="10.00">string</text>
</g>
<!-- Node3&#45;&gt;Node4 -->
<g id="edge8" class="edge"><title>Node3&#45;&gt;Node4</title>
<path fill="none" stroke="midnightblue" d="M245.206,-116.295C200.663,-95.3764 102.044,-49.0612 51.7672,-25.4494"/>
<polygon fill="midnightblue" stroke="midnightblue" points="53.2155,-22.2628 42.6761,-21.1799 50.2398,-28.5989 53.2155,-22.2628"/>
</g>
<!-- Node5 -->
<g id="node10" class="node"><title>Node5</title>
<a xlink:href="Window_8h.htm" target="_top" xlink:title="Window.h">
<polygon fill="white" stroke="black" points="204,-58.5 204,-79.5 266,-79.5 266,-58.5 204,-58.5"/>
<text text-anchor="middle" x="235" y="-66.5" font-family="Helvetica,sans-Serif" font-size="10.00">Window.h</text>
</a>
</g>
<!-- Node3&#45;&gt;Node5 -->
<g id="edge10" class="edge"><title>Node3&#45;&gt;Node5</title>
<path fill="none" stroke="midnightblue" d="M261.947,-116.362C257.528,-108.595 251.41,-97.8426 246.121,-88.5458"/>
<polygon fill="midnightblue" stroke="midnightblue" points="249.002,-86.5315 241.014,-79.5707 242.918,-89.9932 249.002,-86.5315"/>
</g>
<!-- Node5&#45;&gt;Node2 -->
<g id="edge12" class="edge"><title>Node5&#45;&gt;Node2</title>
<path fill="none" stroke="midnightblue" d="M264.337,-58.4966C290.519,-49.1229 329.06,-35.3242 357.863,-25.0122"/>
<polygon fill="midnightblue" stroke="midnightblue" points="359.373,-28.189 367.608,-21.5231 357.013,-21.5987 359.373,-28.189"/>
</g>
<!-- Node5&#45;&gt;Node4 -->
<g id="edge16" class="edge"><title>Node5&#45;&gt;Node4</title>
<path fill="none" stroke="midnightblue" d="M203.803,-62.0493C168.928,-54.0575 110.625,-40.0378 52.2812,-22.2077"/>
<polygon fill="midnightblue" stroke="midnightblue" points="53.1285,-18.8062 42.5408,-19.1948 51.0599,-25.4936 53.1285,-18.8062"/>
</g>
<!-- Node6 -->
<g id="node13" class="node"><title>Node6</title>
<polygon fill="white" stroke="#bfbfbf" points="60,-0.5 60,-21.5 110,-21.5 110,-0.5 60,-0.5"/>
<text text-anchor="middle" x="85" y="-8.5" font-family="Helvetica,sans-Serif" font-size="10.00">stdint.h</text>
</g>
<!-- Node5&#45;&gt;Node6 -->
<g id="edge14" class="edge"><title>Node5&#45;&gt;Node6</title>
<path fill="none" stroke="midnightblue" d="M207.836,-58.4966C183.173,-48.9604 146.666,-34.8442 119.859,-24.4788"/>
<polygon fill="midnightblue" stroke="midnightblue" points="121.051,-21.1871 110.461,-20.8451 118.526,-27.716 121.051,-21.1871"/>
</g>
<!-- Node7 -->
<g id="node16" class="node"><title>Node7</title>
<polygon fill="white" stroke="#bfbfbf" points="127.5,-0.5 127.5,-21.5 168.5,-21.5 168.5,-0.5 127.5,-0.5"/>
<text text-anchor="middle" x="148" y="-8.5" font-family="Helvetica,sans-Serif" font-size="10.00">glib.h</text>
</g>
<!-- Node5&#45;&gt;Node7 -->
<g id="edge18" class="edge"><title>Node5&#45;&gt;Node7</title>
<path fill="none" stroke="midnightblue" d="M219.043,-58.3619C206.043,-49.6955 187.469,-37.3126 172.573,-27.3819"/>
<polygon fill="midnightblue" stroke="midnightblue" points="174.118,-24.2055 163.856,-21.5707 170.235,-30.0299 174.118,-24.2055"/>
</g>
<!-- Node8 -->
<g id="node18" class="node"><title>Node8</title>
<polygon fill="white" stroke="#bfbfbf" points="186,-0.5 186,-21.5 284,-21.5 284,-0.5 186,-0.5"/>
<text text-anchor="middle" x="235" y="-8.5" font-family="Helvetica,sans-Serif" font-size="10.00">QGraphicsObject</text>
</g>
<!-- Node5&#45;&gt;Node8 -->
<g id="edge20" class="edge"><title>Node5&#45;&gt;Node8</title>
<path fill="none" stroke="midnightblue" d="M235,-58.3619C235,-50.9219 235,-40.7427 235,-31.7276"/>
<polygon fill="midnightblue" stroke="midnightblue" points="238.5,-31.5706 235,-21.5707 231.5,-31.5707 238.5,-31.5706"/>
</g>
<!-- Node9 -->
<g id="node20" class="node"><title>Node9</title>
<polygon fill="white" stroke="#bfbfbf" points="301.5,-0.5 301.5,-21.5 346.5,-21.5 346.5,-0.5 301.5,-0.5"/>
<text text-anchor="middle" x="324" y="-8.5" font-family="Helvetica,sans-Serif" font-size="10.00">QSize</text>
</g>
<!-- Node5&#45;&gt;Node9 -->
<g id="edge22" class="edge"><title>Node5&#45;&gt;Node9</title>
<path fill="none" stroke="midnightblue" d="M251.324,-58.3619C264.748,-49.6138 283.983,-37.0786 299.293,-27.1015"/>
<polygon fill="midnightblue" stroke="midnightblue" points="301.312,-29.9628 307.78,-21.5707 297.491,-24.0982 301.312,-29.9628"/>
</g>
</g>
</svg>
