<?xml version="1.0" encoding="UTF-8" standalone="no"?>
<!DOCTYPE svg PUBLIC "-//W3C//DTD SVG 1.1//EN"
 "http://www.w3.org/Graphics/SVG/1.1/DTD/svg11.dtd">
<!-- Generated by graphviz version 2.26.3 (20100126.1600)
 -->
<!-- Title: G Pages: 1 -->
<svg width="2420pt" height="378pt"
 viewBox="0.00 0.00 2419.85 378.00" xmlns="http://www.w3.org/2000/svg" xmlns:xlink="http://www.w3.org/1999/xlink">
<g id="graph1" class="graph" transform="scale(1 1) rotate(0) translate(4 374)">
<title>G</title>
<polygon fill="white" stroke="white" points="-4,5 -4,-374 2416.85,-374 2416.85,5 -4,5"/>
<!-- Node1 -->
<g id="node1" class="node"><title>Node1</title>
<polygon fill="#bfbfbf" stroke="black" points="1438.5,-348.5 1438.5,-369.5 1525.5,-369.5 1525.5,-348.5 1438.5,-348.5"/>
<text text-anchor="middle" x="1482" y="-356.5" font-family="Helvetica,sans-Serif" font-size="10.00">WebFrame.cpp</text>
</g>
<!-- Node2 -->
<g id="node3" class="node"><title>Node2</title>
<a xlink:href="WebFrame_8h.htm" target="_top" xlink:title="WebFrame.h">
<polygon fill="white" stroke="black" points="305,-174.5 305,-195.5 381,-195.5 381,-174.5 305,-174.5"/>
<text text-anchor="middle" x="343" y="-182.5" font-family="Helvetica,sans-Serif" font-size="10.00">WebFrame.h</text>
</a>
</g>
<!-- Node1&#45;&gt;Node2 -->
<g id="edge2" class="edge"><title>Node1&#45;&gt;Node2</title>
<path fill="none" stroke="midnightblue" d="M1438.39,-352.339C1259.08,-324.946 579.186,-221.081 391.34,-192.385"/>
<polygon fill="midnightblue" stroke="midnightblue" points="391.634,-188.889 381.22,-190.839 390.577,-195.809 391.634,-188.889"/>
</g>
<!-- Node7 -->
<g id="node15" class="node"><title>Node7</title>
<polygon fill="white" stroke="#bfbfbf" points="1710,-290.5 1710,-311.5 1748,-311.5 1748,-290.5 1710,-290.5"/>
<text text-anchor="middle" x="1729" y="-298.5" font-family="Helvetica,sans-Serif" font-size="10.00">QDir</text>
</g>
<!-- Node1&#45;&gt;Node7 -->
<g id="edge16" class="edge"><title>Node1&#45;&gt;Node7</title>
<path fill="none" stroke="midnightblue" d="M1525.74,-351.781C1568.24,-344.286 1634.65,-331.308 1700.2,-311.902"/>
<polygon fill="midnightblue" stroke="midnightblue" points="1701.3,-315.228 1709.87,-308.992 1699.28,-308.525 1701.3,-315.228"/>
</g>
<!-- Node8 -->
<g id="node17" class="node"><title>Node8</title>
<polygon fill="white" stroke="#bfbfbf" points="1765.5,-290.5 1765.5,-311.5 1824.5,-311.5 1824.5,-290.5 1765.5,-290.5"/>
<text text-anchor="middle" x="1795" y="-298.5" font-family="Helvetica,sans-Serif" font-size="10.00">QFileInfo</text>
</g>
<!-- Node1&#45;&gt;Node8 -->
<g id="edge18" class="edge"><title>Node1&#45;&gt;Node8</title>
<path fill="none" stroke="midnightblue" d="M1525.64,-353.09C1578.11,-345.643 1668.98,-331.662 1755.26,-312.236"/>
<polygon fill="midnightblue" stroke="midnightblue" points="1756.24,-315.602 1765.21,-309.966 1754.68,-308.778 1756.24,-315.602"/>
</g>
<!-- Node9 -->
<g id="node19" class="node"><title>Node9</title>
<polygon fill="white" stroke="#bfbfbf" points="1453,-232.5 1453,-253.5 1491,-253.5 1491,-232.5 1453,-232.5"/>
<text text-anchor="middle" x="1472" y="-240.5" font-family="Helvetica,sans-Serif" font-size="10.00">QUrl</text>
</g>
<!-- Node1&#45;&gt;Node9 -->
<g id="edge20" class="edge"><title>Node1&#45;&gt;Node9</title>
<path fill="none" stroke="midnightblue" d="M1481.08,-348.295C1479.43,-329.131 1475.94,-288.654 1473.8,-263.843"/>
<polygon fill="midnightblue" stroke="midnightblue" points="1477.27,-263.342 1472.92,-253.679 1470.29,-263.943 1477.27,-263.342"/>
</g>
<!-- Node10 -->
<g id="node21" class="node"><title>Node10</title>
<polygon fill="white" stroke="#bfbfbf" points="1842,-290.5 1842,-311.5 1914,-311.5 1914,-290.5 1842,-290.5"/>
<text text-anchor="middle" x="1878" y="-298.5" font-family="Helvetica,sans-Serif" font-size="10.00">cjson/json.h</text>
</g>
<!-- Node1&#45;&gt;Node10 -->
<g id="edge22" class="edge"><title>Node1&#45;&gt;Node10</title>
<path fill="none" stroke="midnightblue" d="M1525.74,-354.659C1590.5,-347.901 1715.84,-333.554 1831.62,-312.112"/>
<polygon fill="midnightblue" stroke="midnightblue" points="1832.54,-315.502 1841.72,-310.22 1831.25,-308.622 1832.54,-315.502"/>
</g>
<!-- Node11 -->
<g id="node23" class="node"><title>Node11</title>
<a xlink:href="JsSysObjectWrapper_8h.htm" target="_top" xlink:title="JsSysObjectWrapper.h">
<polygon fill="white" stroke="black" points="0,-174.5 0,-195.5 124,-195.5 124,-174.5 0,-174.5"/>
<text text-anchor="middle" x="62" y="-182.5" font-family="Helvetica,sans-Serif" font-size="10.00">JsSysObjectWrapper.h</text>
</a>
</g>
<!-- Node1&#45;&gt;Node11 -->
<g id="edge24" class="edge"><title>Node1&#45;&gt;Node11</title>
<path fill="none" stroke="midnightblue" d="M1438.23,-354.858C1357.33,-347.114 1178.99,-329.627 1029,-312 694.134,-272.646 295.14,-217.674 134.389,-195.192"/>
<polygon fill="midnightblue" stroke="midnightblue" points="134.537,-191.679 124.149,-193.759 133.567,-198.611 134.537,-191.679"/>
</g>
<!-- Node16 -->
<g id="node36" class="node"><title>Node16</title>
<a xlink:href="ProcessManager_8h.htm" target="_top" xlink:title="ProcessManager.h">
<polygon fill="white" stroke="black" points="1348,-290.5 1348,-311.5 1454,-311.5 1454,-290.5 1348,-290.5"/>
<text text-anchor="middle" x="1401" y="-298.5" font-family="Helvetica,sans-Serif" font-size="10.00">ProcessManager.h</text>
</a>
</g>
<!-- Node1&#45;&gt;Node16 -->
<g id="edge40" class="edge"><title>Node1&#45;&gt;Node16</title>
<path fill="none" stroke="midnightblue" d="M1467.14,-348.362C1455.15,-339.777 1438.07,-327.546 1424.27,-317.664"/>
<polygon fill="midnightblue" stroke="midnightblue" points="1425.93,-314.547 1415.76,-311.571 1421.86,-320.238 1425.93,-314.547"/>
</g>
<!-- Node32 -->
<g id="node85" class="node"><title>Node32</title>
<a xlink:href="Utils_8h.htm" target="_top" xlink:title="Utils.h">
<polygon fill="white" stroke="black" points="1647.5,-290.5 1647.5,-311.5 1692.5,-311.5 1692.5,-290.5 1647.5,-290.5"/>
<text text-anchor="middle" x="1670" y="-298.5" font-family="Helvetica,sans-Serif" font-size="10.00">Utils.h</text>
</a>
</g>
<!-- Node1&#45;&gt;Node32 -->
<g id="edge106" class="edge"><title>Node1&#45;&gt;Node32</title>
<path fill="none" stroke="midnightblue" d="M1516.05,-348.497C1550.57,-337.846 1603.6,-321.484 1637.54,-311.013"/>
<polygon fill="midnightblue" stroke="midnightblue" points="1638.9,-314.258 1647.42,-307.966 1636.83,-307.569 1638.9,-314.258"/>
</g>
<!-- Node39 -->
<g id="node104" class="node"><title>Node39</title>
<a xlink:href="WebPage_8h.htm" target="_top" xlink:title="WebPage.h">
<polygon fill="white" stroke="black" points="953.5,-174.5 953.5,-195.5 1024.5,-195.5 1024.5,-174.5 953.5,-174.5"/>
<text text-anchor="middle" x="989" y="-182.5" font-family="Helvetica,sans-Serif" font-size="10.00">WebPage.h</text>
</a>
</g>
<!-- Node1&#45;&gt;Node39 -->
<g id="edge130" class="edge"><title>Node1&#45;&gt;Node39</title>
<path fill="none" stroke="midnightblue" d="M1448.96,-348.457C1419.92,-339.113 1376.54,-324.977 1339,-312 1225.05,-272.61 1091.35,-223.2 1027.17,-199.282"/>
<polygon fill="midnightblue" stroke="midnightblue" points="1028.07,-195.883 1017.48,-195.667 1025.62,-202.442 1028.07,-195.883"/>
</g>
<!-- Node3 -->
<g id="node5" class="node"><title>Node3</title>
<a xlink:href="Common_8h.htm" target="_top" xlink:title="Common.h">
<polygon fill="white" stroke="black" points="1441.5,-0.5 1441.5,-21.5 1508.5,-21.5 1508.5,-0.5 1441.5,-0.5"/>
<text text-anchor="middle" x="1475" y="-8.5" font-family="Helvetica,sans-Serif" font-size="10.00">Common.h</text>
</a>
</g>
<!-- Node2&#45;&gt;Node3 -->
<g id="edge4" class="edge"><title>Node2&#45;&gt;Node3</title>
<path fill="none" stroke="midnightblue" d="M339.196,-174.433C334.569,-159.497 328.985,-132.229 343,-116 458.684,17.9608 560.974,-76.5294 737,-58 999.795,-30.3368 1317.07,-16.7744 1431.35,-12.5207"/>
<polygon fill="midnightblue" stroke="midnightblue" points="1431.58,-16.0145 1441.45,-12.1494 1431.33,-9.01922 1431.58,-16.0145"/>
</g>
<!-- Node4 -->
<g id="node7" class="node"><title>Node4</title>
<polygon fill="white" stroke="#bfbfbf" points="992.5,-58.5 992.5,-79.5 1035.5,-79.5 1035.5,-58.5 992.5,-58.5"/>
<text text-anchor="middle" x="1014" y="-66.5" font-family="Helvetica,sans-Serif" font-size="10.00">string</text>
</g>
<!-- Node2&#45;&gt;Node4 -->
<g id="edge6" class="edge"><title>Node2&#45;&gt;Node4</title>
<path fill="none" stroke="midnightblue" d="M342.46,-174.376C342.314,-158.85 344.613,-130.264 362,-116 410.281,-76.3923 857.526,-70.149 981.99,-69.1769"/>
<polygon fill="midnightblue" stroke="midnightblue" points="982.383,-72.6742 992.358,-69.1025 982.333,-65.6744 982.383,-72.6742"/>
</g>
<!-- Node5 -->
<g id="node9" class="node"><title>Node5</title>
<polygon fill="white" stroke="#bfbfbf" points="121,-116.5 121,-137.5 239,-137.5 239,-116.5 121,-116.5"/>
<text text-anchor="middle" x="180" y="-124.5" font-family="Helvetica,sans-Serif" font-size="10.00">palmwebframeclient.h</text>
</g>
<!-- Node2&#45;&gt;Node5 -->
<g id="edge8" class="edge"><title>Node2&#45;&gt;Node5</title>
<path fill="none" stroke="midnightblue" d="M313.482,-174.497C287.024,-165.082 248.021,-151.204 219,-140.877"/>
<polygon fill="midnightblue" stroke="midnightblue" points="220.168,-137.578 209.573,-137.523 217.821,-144.173 220.168,-137.578"/>
</g>
<!-- Node6 -->
<g id="node11" class="node"><title>Node6</title>
<a xlink:href="ProcessBase_8h.htm" target="_top" xlink:title="ProcessBase.h">
<polygon fill="white" stroke="black" points="370.5,-116.5 370.5,-137.5 457.5,-137.5 457.5,-116.5 370.5,-116.5"/>
<text text-anchor="middle" x="414" y="-124.5" font-family="Helvetica,sans-Serif" font-size="10.00">ProcessBase.h</text>
</a>
</g>
<!-- Node2&#45;&gt;Node6 -->
<g id="edge10" class="edge"><title>Node2&#45;&gt;Node6</title>
<path fill="none" stroke="midnightblue" d="M356.022,-174.362C366.431,-165.859 381.219,-153.779 393.255,-143.947"/>
<polygon fill="midnightblue" stroke="midnightblue" points="395.53,-146.608 401.06,-137.571 391.101,-141.187 395.53,-146.608"/>
</g>
<!-- Node6&#45;&gt;Node3 -->
<g id="edge12" class="edge"><title>Node6&#45;&gt;Node3</title>
<path fill="none" stroke="midnightblue" d="M457.635,-117.449C460.461,-116.93 463.267,-116.441 466,-116 836.684,-56.1849 1289.75,-23.1747 1430.9,-13.8081"/>
<polygon fill="midnightblue" stroke="midnightblue" points="1431.54,-17.2735 1441.29,-13.1241 1431.08,-10.2887 1431.54,-17.2735"/>
</g>
<!-- Node6&#45;&gt;Node4 -->
<g id="edge14" class="edge"><title>Node6&#45;&gt;Node4</title>
<path fill="none" stroke="midnightblue" d="M457.622,-117.366C460.451,-116.867 463.262,-116.406 466,-116 661.01,-87.1231 897.885,-74.2548 982.275,-70.3552"/>
<polygon fill="midnightblue" stroke="midnightblue" points="982.646,-73.8421 992.477,-69.8935 982.329,-66.8493 982.646,-73.8421"/>
</g>
<!-- Node11&#45;&gt;Node3 -->
<g id="edge26" class="edge"><title>Node11&#45;&gt;Node3</title>
<path fill="none" stroke="midnightblue" d="M44.5832,-174.225C32.9532,-165.93 18.6202,-153.309 12,-138 -2.95213,-103.424 8.42601,-78.5462 40,-58 99.7034,-19.1492 1197.15,-12.2057 1431.29,-11.1647"/>
<polygon fill="midnightblue" stroke="midnightblue" points="1431.48,-14.664 1441.47,-11.1208 1431.45,-7.66408 1431.48,-14.664"/>
</g>
<!-- Node12 -->
<g id="node26" class="node"><title>Node12</title>
<a xlink:href="JsSysObject_8h.htm" target="_top" xlink:title="JsSysObject.h">
<polygon fill="white" stroke="black" points="20.5,-116.5 20.5,-137.5 103.5,-137.5 103.5,-116.5 20.5,-116.5"/>
<text text-anchor="middle" x="62" y="-124.5" font-family="Helvetica,sans-Serif" font-size="10.00">JsSysObject.h</text>
</a>
</g>
<!-- Node11&#45;&gt;Node12 -->
<g id="edge28" class="edge"><title>Node11&#45;&gt;Node12</title>
<path fill="none" stroke="midnightblue" d="M62,-174.362C62,-166.922 62,-156.743 62,-147.728"/>
<polygon fill="midnightblue" stroke="midnightblue" points="65.5001,-147.571 62,-137.571 58.5001,-147.571 65.5001,-147.571"/>
</g>
<!-- Node12&#45;&gt;Node3 -->
<g id="edge30" class="edge"><title>Node12&#45;&gt;Node3</title>
<path fill="none" stroke="midnightblue" d="M55.5153,-116.263C47.2954,-101.122 35.9016,-73.6049 51,-58 75.602,-32.5726 1194.27,-15.0461 1431.2,-11.6155"/>
<polygon fill="midnightblue" stroke="midnightblue" points="1431.55,-15.111 1441.49,-11.4673 1431.44,-8.11171 1431.55,-15.111"/>
</g>
<!-- Node12&#45;&gt;Node4 -->
<g id="edge32" class="edge"><title>Node12&#45;&gt;Node4</title>
<path fill="none" stroke="midnightblue" d="M103.65,-117.3C106.467,-116.81 109.269,-116.369 112,-116 285.602,-92.5432 843.253,-74.23 982.343,-69.9497"/>
<polygon fill="midnightblue" stroke="midnightblue" points="982.459,-73.4479 992.347,-69.6439 982.245,-66.4512 982.459,-73.4479"/>
</g>
<!-- Node13 -->
<g id="node30" class="node"><title>Node13</title>
<polygon fill="white" stroke="#bfbfbf" points="201.5,-58.5 201.5,-79.5 238.5,-79.5 238.5,-58.5 201.5,-58.5"/>
<text text-anchor="middle" x="220" y="-66.5" font-family="Helvetica,sans-Serif" font-size="10.00">map</text>
</g>
<!-- Node12&#45;&gt;Node13 -->
<g id="edge34" class="edge"><title>Node12&#45;&gt;Node13</title>
<path fill="none" stroke="midnightblue" d="M91.2432,-116.469C117.416,-107.015 156.817,-92.7094 191,-80 191.208,-79.9226 191.417,-79.8448 191.627,-79.7667"/>
<polygon fill="midnightblue" stroke="midnightblue" points="193.162,-82.9289 201.294,-76.1369 190.701,-76.3757 193.162,-82.9289"/>
</g>
<!-- Node14 -->
<g id="node32" class="node"><title>Node14</title>
<polygon fill="white" stroke="#bfbfbf" points="60,-58.5 60,-79.5 114,-79.5 114,-58.5 60,-58.5"/>
<text text-anchor="middle" x="87" y="-66.5" font-family="Helvetica,sans-Serif" font-size="10.00">npupp.h</text>
</g>
<!-- Node12&#45;&gt;Node14 -->
<g id="edge36" class="edge"><title>Node12&#45;&gt;Node14</title>
<path fill="none" stroke="midnightblue" d="M66.5854,-116.362C69.898,-108.677 74.4704,-98.0686 78.4483,-88.8399"/>
<polygon fill="midnightblue" stroke="midnightblue" points="81.6995,-90.1393 82.4437,-79.5707 75.2712,-87.3685 81.6995,-90.1393"/>
</g>
<!-- Node15 -->
<g id="node34" class="node"><title>Node15</title>
<polygon fill="white" stroke="#bfbfbf" points="131.5,-58.5 131.5,-79.5 182.5,-79.5 182.5,-58.5 131.5,-58.5"/>
<text text-anchor="middle" x="157" y="-66.5" font-family="Helvetica,sans-Serif" font-size="10.00">npapi.h</text>
</g>
<!-- Node12&#45;&gt;Node15 -->
<g id="edge38" class="edge"><title>Node12&#45;&gt;Node15</title>
<path fill="none" stroke="midnightblue" d="M79.4245,-116.362C93.8872,-107.532 114.669,-94.844 131.084,-84.8224"/>
<polygon fill="midnightblue" stroke="midnightblue" points="132.975,-87.7688 139.686,-79.5707 129.327,-81.7943 132.975,-87.7688"/>
</g>
<!-- Node16&#45;&gt;Node3 -->
<g id="edge42" class="edge"><title>Node16&#45;&gt;Node3</title>
<path fill="none" stroke="midnightblue" d="M1394.62,-290.242C1389.53,-280.994 1382.8,-267.111 1380,-254 1377.96,-244.437 1378.46,-241.656 1380,-232 1392.63,-152.877 1439.69,-68.224 1462.47,-30.7692"/>
<polygon fill="midnightblue" stroke="midnightblue" points="1465.68,-32.2426 1467.96,-21.8964 1459.72,-28.5613 1465.68,-32.2426"/>
</g>
<!-- Node16&#45;&gt;Node4 -->
<g id="edge46" class="edge"><title>Node16&#45;&gt;Node4</title>
<path fill="none" stroke="midnightblue" d="M1388.37,-290.388C1377.3,-281.001 1360.86,-266.839 1347,-254 1282.91,-194.625 1283.31,-158.54 1207,-116 1155.13,-87.0834 1085.71,-75.8025 1045.82,-71.5157"/>
<polygon fill="midnightblue" stroke="midnightblue" points="1045.93,-68.0093 1035.63,-70.5048 1045.24,-74.9751 1045.93,-68.0093"/>
</g>
<!-- Node17 -->
<g id="node39" class="node"><title>Node17</title>
<polygon fill="white" stroke="#bfbfbf" points="1389,-232.5 1389,-253.5 1435,-253.5 1435,-232.5 1389,-232.5"/>
<text text-anchor="middle" x="1412" y="-240.5" font-family="Helvetica,sans-Serif" font-size="10.00">vector</text>
</g>
<!-- Node16&#45;&gt;Node17 -->
<g id="edge44" class="edge"><title>Node16&#45;&gt;Node17</title>
<path fill="none" stroke="midnightblue" d="M1403.02,-290.362C1404.44,-282.84 1406.4,-272.519 1408.13,-263.431"/>
<polygon fill="midnightblue" stroke="midnightblue" points="1411.57,-264.048 1410,-253.571 1404.69,-262.743 1411.57,-264.048"/>
</g>
<!-- Node18 -->
<g id="node42" class="node"><title>Node18</title>
<a xlink:href="SyncTask_8h.htm" target="_top" xlink:title="SyncTask.h">
<polygon fill="white" stroke="black" points="1546.5,-232.5 1546.5,-253.5 1617.5,-253.5 1617.5,-232.5 1546.5,-232.5"/>
<text text-anchor="middle" x="1582" y="-240.5" font-family="Helvetica,sans-Serif" font-size="10.00">SyncTask.h</text>
</a>
</g>
<!-- Node16&#45;&gt;Node18 -->
<g id="edge48" class="edge"><title>Node16&#45;&gt;Node18</title>
<path fill="none" stroke="midnightblue" d="M1433.78,-290.497C1463.41,-281 1507.22,-266.962 1539.53,-256.609"/>
<polygon fill="midnightblue" stroke="midnightblue" points="1540.71,-259.908 1549.16,-253.523 1538.57,-253.242 1540.71,-259.908"/>
</g>
<!-- Node18&#45;&gt;Node3 -->
<g id="edge50" class="edge"><title>Node18&#45;&gt;Node3</title>
<path fill="none" stroke="midnightblue" d="M1569.95,-232.26C1543.92,-208.148 1483.01,-146.59 1461,-80 1455.74,-64.0932 1460.13,-45.4403 1465.34,-31.5416"/>
<polygon fill="midnightblue" stroke="midnightblue" points="1468.71,-32.5406 1469.34,-21.9641 1462.25,-29.8435 1468.71,-32.5406"/>
</g>
<!-- Node19 -->
<g id="node45" class="node"><title>Node19</title>
<a xlink:href="TaskBase_8h.htm" target="_top" xlink:title="TaskBase.h">
<polygon fill="white" stroke="black" points="2079,-174.5 2079,-195.5 2151,-195.5 2151,-174.5 2079,-174.5"/>
<text text-anchor="middle" x="2115" y="-182.5" font-family="Helvetica,sans-Serif" font-size="10.00">TaskBase.h</text>
</a>
</g>
<!-- Node18&#45;&gt;Node19 -->
<g id="edge52" class="edge"><title>Node18&#45;&gt;Node19</title>
<path fill="none" stroke="midnightblue" d="M1617.93,-233.555C1620.65,-232.981 1623.36,-232.454 1626,-232 1787.34,-204.239 1981.65,-191.685 2068.78,-187.141"/>
<polygon fill="midnightblue" stroke="midnightblue" points="2069.06,-190.631 2078.87,-186.626 2068.7,-183.641 2069.06,-190.631"/>
</g>
<!-- Node19&#45;&gt;Node3 -->
<g id="edge54" class="edge"><title>Node19&#45;&gt;Node3</title>
<path fill="none" stroke="midnightblue" d="M2078.94,-181.914C1966.35,-171.765 1623.3,-136.784 1529,-80 1509.47,-68.2378 1494.3,-46.5946 1485.07,-30.6737"/>
<polygon fill="midnightblue" stroke="midnightblue" points="1488,-28.7219 1480.12,-21.6396 1481.86,-32.09 1488,-28.7219"/>
</g>
<!-- Node20 -->
<g id="node48" class="node"><title>Node20</title>
<polygon fill="white" stroke="#bfbfbf" points="2277.5,-0.5 2277.5,-21.5 2318.5,-21.5 2318.5,-0.5 2277.5,-0.5"/>
<text text-anchor="middle" x="2298" y="-8.5" font-family="Helvetica,sans-Serif" font-size="10.00">glib.h</text>
</g>
<!-- Node19&#45;&gt;Node20 -->
<g id="edge56" class="edge"><title>Node19&#45;&gt;Node20</title>
<path fill="none" stroke="midnightblue" d="M2151.22,-182.377C2211.7,-177.311 2329.7,-164.284 2361,-138 2389.24,-114.286 2401.73,-89.7632 2383,-58 2371.26,-38.0862 2347.71,-26.0218 2328.37,-19.1109"/>
<polygon fill="midnightblue" stroke="midnightblue" points="2329.32,-15.7388 2318.73,-15.9524 2327.14,-22.3911 2329.32,-15.7388"/>
</g>
<!-- Node21 -->
<g id="node50" class="node"><title>Node21</title>
<polygon fill="white" stroke="#bfbfbf" points="1426.5,-116.5 1426.5,-137.5 1455.5,-137.5 1455.5,-116.5 1426.5,-116.5"/>
<text text-anchor="middle" x="1441" y="-124.5" font-family="Helvetica,sans-Serif" font-size="10.00">list</text>
</g>
<!-- Node19&#45;&gt;Node21 -->
<g id="edge58" class="edge"><title>Node19&#45;&gt;Node21</title>
<path fill="none" stroke="midnightblue" d="M2078.96,-182.319C1988.88,-175.555 1746.67,-156.977 1545,-138 1517.91,-135.451 1486.89,-132.116 1465.83,-129.789"/>
<polygon fill="midnightblue" stroke="midnightblue" points="1466.13,-126.301 1455.8,-128.674 1465.35,-133.258 1466.13,-126.301"/>
</g>
<!-- Node22 -->
<g id="node52" class="node"><title>Node22</title>
<a xlink:href="sptr_8h.htm" target="_top" xlink:title="sptr.h">
<polygon fill="white" stroke="black" points="2316.5,-58.5 2316.5,-79.5 2359.5,-79.5 2359.5,-58.5 2316.5,-58.5"/>
<text text-anchor="middle" x="2338" y="-66.5" font-family="Helvetica,sans-Serif" font-size="10.00">sptr.h</text>
</a>
</g>
<!-- Node19&#45;&gt;Node22 -->
<g id="edge60" class="edge"><title>Node19&#45;&gt;Node22</title>
<path fill="none" stroke="midnightblue" d="M2135.58,-174.295C2175.34,-153.612 2262.83,-108.099 2308.67,-84.2543"/>
<polygon fill="midnightblue" stroke="midnightblue" points="2310.54,-87.2315 2317.79,-79.5117 2307.31,-81.0215 2310.54,-87.2315"/>
</g>
<!-- Node23 -->
<g id="node56" class="node"><title>Node23</title>
<a xlink:href="AsyncCaller_8h.htm" target="_top" xlink:title="AsyncCaller.h">
<polygon fill="white" stroke="black" points="2218.5,-58.5 2218.5,-79.5 2299.5,-79.5 2299.5,-58.5 2218.5,-58.5"/>
<text text-anchor="middle" x="2259" y="-66.5" font-family="Helvetica,sans-Serif" font-size="10.00">AsyncCaller.h</text>
</a>
</g>
<!-- Node19&#45;&gt;Node23 -->
<g id="edge66" class="edge"><title>Node19&#45;&gt;Node23</title>
<path fill="none" stroke="midnightblue" d="M2128.29,-174.295C2153.36,-154.096 2207.84,-110.216 2237.94,-85.9632"/>
<polygon fill="midnightblue" stroke="midnightblue" points="2240.15,-88.6782 2245.74,-79.6792 2235.76,-83.2269 2240.15,-88.6782"/>
</g>
<!-- Node24 -->
<g id="node60" class="node"><title>Node24</title>
<a xlink:href="Event_8h.htm" target="_top" xlink:title="Event.h">
<polygon fill="white" stroke="black" points="1941,-116.5 1941,-137.5 1993,-137.5 1993,-116.5 1941,-116.5"/>
<text text-anchor="middle" x="1967" y="-124.5" font-family="Helvetica,sans-Serif" font-size="10.00">Event.h</text>
</a>
</g>
<!-- Node19&#45;&gt;Node24 -->
<g id="edge72" class="edge"><title>Node19&#45;&gt;Node24</title>
<path fill="none" stroke="midnightblue" d="M2088.2,-174.497C2064.27,-165.118 2029.03,-151.31 2002.71,-140.996"/>
<polygon fill="midnightblue" stroke="midnightblue" points="2003.69,-137.621 1993.11,-137.231 2001.14,-144.138 2003.69,-137.621"/>
</g>
<!-- Node30 -->
<g id="node75" class="node"><title>Node30</title>
<a xlink:href="Mutex_8h.htm" target="_top" xlink:title="Mutex.h">
<polygon fill="white" stroke="black" points="2299.5,-116.5 2299.5,-137.5 2352.5,-137.5 2352.5,-116.5 2299.5,-116.5"/>
<text text-anchor="middle" x="2326" y="-124.5" font-family="Helvetica,sans-Serif" font-size="10.00">Mutex.h</text>
</a>
</g>
<!-- Node19&#45;&gt;Node30 -->
<g id="edge90" class="edge"><title>Node19&#45;&gt;Node30</title>
<path fill="none" stroke="midnightblue" d="M2151.27,-175.029C2189.89,-164.415 2250.65,-147.712 2289.39,-137.062"/>
<polygon fill="midnightblue" stroke="midnightblue" points="2290.51,-140.387 2299.22,-134.361 2288.65,-133.637 2290.51,-140.387"/>
</g>
<!-- Node31 -->
<g id="node80" class="node"><title>Node31</title>
<a xlink:href="SingletonTimer_8h.htm" target="_top" xlink:title="SingletonTimer.h">
<polygon fill="white" stroke="black" points="2067,-58.5 2067,-79.5 2163,-79.5 2163,-58.5 2067,-58.5"/>
<text text-anchor="middle" x="2115" y="-66.5" font-family="Helvetica,sans-Serif" font-size="10.00">SingletonTimer.h</text>
</a>
</g>
<!-- Node19&#45;&gt;Node31 -->
<g id="edge98" class="edge"><title>Node19&#45;&gt;Node31</title>
<path fill="none" stroke="midnightblue" d="M2115,-174.295C2115,-155.131 2115,-114.654 2115,-89.8434"/>
<polygon fill="midnightblue" stroke="midnightblue" points="2118.5,-89.6792 2115,-79.6792 2111.5,-89.6792 2118.5,-89.6792"/>
</g>
<!-- Node22&#45;&gt;Node3 -->
<g id="edge62" class="edge"><title>Node22&#45;&gt;Node3</title>
<path fill="none" stroke="midnightblue" d="M2316.26,-60.186C2313.52,-59.3235 2310.72,-58.5617 2308,-58 2154.93,-26.3491 1667.91,-14.6603 1518.81,-11.7709"/>
<polygon fill="midnightblue" stroke="midnightblue" points="1518.73,-8.26887 1508.66,-11.5779 1518.6,-15.2676 1518.73,-8.26887"/>
</g>
<!-- Node22&#45;&gt;Node20 -->
<g id="edge64" class="edge"><title>Node22&#45;&gt;Node20</title>
<path fill="none" stroke="midnightblue" d="M2330.66,-58.3619C2325.19,-50.4313 2317.58,-39.3885 2311.08,-29.9606"/>
<polygon fill="midnightblue" stroke="midnightblue" points="2313.85,-27.8157 2305.29,-21.5707 2308.09,-31.7899 2313.85,-27.8157"/>
</g>
<!-- Node23&#45;&gt;Node3 -->
<g id="edge68" class="edge"><title>Node23&#45;&gt;Node3</title>
<path fill="none" stroke="midnightblue" d="M2218.34,-63.3591C2203.74,-61.4671 2187.15,-59.4676 2172,-58 1925.54,-34.1301 1628.88,-18.44 1518.84,-13.0646"/>
<polygon fill="midnightblue" stroke="midnightblue" points="1518.94,-9.56545 1508.79,-12.5767 1518.6,-16.5572 1518.94,-9.56545"/>
</g>
<!-- Node23&#45;&gt;Node20 -->
<g id="edge70" class="edge"><title>Node23&#45;&gt;Node20</title>
<path fill="none" stroke="midnightblue" d="M2266.15,-58.3619C2271.49,-50.4313 2278.91,-39.3885 2285.25,-29.9606"/>
<polygon fill="midnightblue" stroke="midnightblue" points="2288.22,-31.8221 2290.89,-21.5707 2282.41,-27.9161 2288.22,-31.8221"/>
</g>
<!-- Node24&#45;&gt;Node3 -->
<g id="edge74" class="edge"><title>Node24&#45;&gt;Node3</title>
<path fill="none" stroke="midnightblue" d="M1940.92,-125.509C1864.55,-120.888 1642.55,-105.556 1575,-80 1543.72,-68.168 1512.83,-44.5278 1493.85,-28.2427"/>
<polygon fill="midnightblue" stroke="midnightblue" points="1496.06,-25.5282 1486.24,-21.5583 1491.44,-30.7874 1496.06,-25.5282"/>
</g>
<!-- Node24&#45;&gt;Node20 -->
<g id="edge78" class="edge"><title>Node24&#45;&gt;Node20</title>
<path fill="none" stroke="midnightblue" d="M1993.31,-123.544C2033.06,-117.756 2110.34,-104.279 2172,-80 2190.16,-72.8506 2192.95,-67.4871 2210,-58 2229.41,-47.2012 2251.46,-35.4263 2268.63,-26.3636"/>
<polygon fill="midnightblue" stroke="midnightblue" points="2270.4,-29.3865 2277.62,-21.6313 2267.14,-23.1923 2270.4,-29.3865"/>
</g>
<!-- Node24&#45;&gt;Node22 -->
<g id="edge88" class="edge"><title>Node24&#45;&gt;Node22</title>
<path fill="none" stroke="midnightblue" d="M1993.03,-125.324C2049.04,-121.314 2185.17,-109.405 2306.4,-80.0276"/>
<polygon fill="midnightblue" stroke="midnightblue" points="2307.35,-83.3992 2316.21,-77.6023 2305.67,-76.6036 2307.35,-83.3992"/>
</g>
<!-- Node25 -->
<g id="node63" class="node"><title>Node25</title>
<polygon fill="white" stroke="#bfbfbf" points="2014,-0.5 2014,-21.5 2064,-21.5 2064,-0.5 2014,-0.5"/>
<text text-anchor="middle" x="2039" y="-8.5" font-family="Helvetica,sans-Serif" font-size="10.00">stdint.h</text>
</g>
<!-- Node24&#45;&gt;Node25 -->
<g id="edge76" class="edge"><title>Node24&#45;&gt;Node25</title>
<path fill="none" stroke="midnightblue" d="M1983.43,-116.338C1995.25,-107.844 2010.7,-94.9281 2020,-80 2029.21,-65.2081 2034.03,-45.914 2036.51,-31.4904"/>
<polygon fill="midnightblue" stroke="midnightblue" points="2039.98,-31.9702 2037.98,-21.5652 2033.05,-30.9443 2039.98,-31.9702"/>
</g>
<!-- Node26 -->
<g id="node66" class="node"><title>Node26</title>
<polygon fill="white" stroke="#bfbfbf" points="1686.5,-58.5 1686.5,-79.5 1733.5,-79.5 1733.5,-58.5 1686.5,-58.5"/>
<text text-anchor="middle" x="1710" y="-66.5" font-family="Helvetica,sans-Serif" font-size="10.00">stdio.h</text>
</g>
<!-- Node24&#45;&gt;Node26 -->
<g id="edge80" class="edge"><title>Node24&#45;&gt;Node26</title>
<path fill="none" stroke="midnightblue" d="M1940.76,-122.62C1900.25,-115.623 1819.93,-100.814 1743.45,-80.1823"/>
<polygon fill="midnightblue" stroke="midnightblue" points="1744.23,-76.7673 1733.66,-77.5033 1742.38,-83.519 1744.23,-76.7673"/>
</g>
<!-- Node27 -->
<g id="node68" class="node"><title>Node27</title>
<polygon fill="white" stroke="#bfbfbf" points="1750.5,-58.5 1750.5,-79.5 1801.5,-79.5 1801.5,-58.5 1750.5,-58.5"/>
<text text-anchor="middle" x="1776" y="-66.5" font-family="Helvetica,sans-Serif" font-size="10.00">string.h</text>
</g>
<!-- Node24&#45;&gt;Node27 -->
<g id="edge82" class="edge"><title>Node24&#45;&gt;Node27</title>
<path fill="none" stroke="midnightblue" d="M1940.83,-119.358C1911.52,-110.755 1862.33,-96.1976 1811.45,-80.4148"/>
<polygon fill="midnightblue" stroke="midnightblue" points="1812.19,-76.978 1801.6,-77.3492 1810.11,-83.662 1812.19,-76.978"/>
</g>
<!-- Node28 -->
<g id="node70" class="node"><title>Node28</title>
<polygon fill="white" stroke="#bfbfbf" points="1819,-58.5 1819,-79.5 1905,-79.5 1905,-58.5 1819,-58.5"/>
<text text-anchor="middle" x="1862" y="-66.5" font-family="Helvetica,sans-Serif" font-size="10.00">qnamespace.h</text>
</g>
<!-- Node24&#45;&gt;Node28 -->
<g id="edge84" class="edge"><title>Node24&#45;&gt;Node28</title>
<path fill="none" stroke="midnightblue" d="M1947.74,-116.362C1931.53,-107.409 1908.15,-94.4908 1889.89,-84.4064"/>
<polygon fill="midnightblue" stroke="midnightblue" points="1891.58,-81.3422 1881.14,-79.5707 1888.2,-87.4696 1891.58,-81.3422"/>
</g>
<!-- Node29 -->
<g id="node72" class="node"><title>Node29</title>
<polygon fill="white" stroke="#bfbfbf" points="1923,-58.5 1923,-79.5 2011,-79.5 2011,-58.5 1923,-58.5"/>
<text text-anchor="middle" x="1967" y="-66.5" font-family="Helvetica,sans-Serif" font-size="10.00">SysMgrEvent.h</text>
</g>
<!-- Node24&#45;&gt;Node29 -->
<g id="edge86" class="edge"><title>Node24&#45;&gt;Node29</title>
<path fill="none" stroke="midnightblue" d="M1967,-116.362C1967,-108.922 1967,-98.7427 1967,-89.7276"/>
<polygon fill="midnightblue" stroke="midnightblue" points="1970.5,-89.5706 1967,-79.5707 1963.5,-89.5707 1970.5,-89.5706"/>
</g>
<!-- Node30&#45;&gt;Node3 -->
<g id="edge92" class="edge"><title>Node30&#45;&gt;Node3</title>
<path fill="none" stroke="midnightblue" d="M2299.12,-125.933C2176.74,-120.981 1675.3,-99.652 1608,-80 1588.52,-74.313 1585.95,-67.466 1568,-58 1547.29,-47.0752 1523.75,-35.1825 1505.53,-26.0935"/>
<polygon fill="midnightblue" stroke="midnightblue" points="1507.05,-22.9381 1496.53,-21.6161 1503.93,-29.2049 1507.05,-22.9381"/>
</g>
<!-- Node30&#45;&gt;Node20 -->
<g id="edge96" class="edge"><title>Node30&#45;&gt;Node20</title>
<path fill="none" stroke="midnightblue" d="M2340.26,-116.464C2356.49,-103.116 2379.35,-79.2856 2368,-58 2359.53,-42.1057 2343.03,-30.6324 2328.17,-23.0022"/>
<polygon fill="midnightblue" stroke="midnightblue" points="2329.29,-19.6567 2318.75,-18.5352 2326.29,-25.9819 2329.29,-19.6567"/>
</g>
<!-- Node30&#45;&gt;Node22 -->
<g id="edge94" class="edge"><title>Node30&#45;&gt;Node22</title>
<path fill="none" stroke="midnightblue" d="M2328.2,-116.362C2329.76,-108.84 2331.89,-98.5187 2333.77,-89.4308"/>
<polygon fill="midnightblue" stroke="midnightblue" points="2337.21,-90.0724 2335.81,-79.5707 2330.36,-88.6541 2337.21,-90.0724"/>
</g>
<!-- Node31&#45;&gt;Node3 -->
<g id="edge100" class="edge"><title>Node31&#45;&gt;Node3</title>
<path fill="none" stroke="midnightblue" d="M2066.7,-63.1306C2051.74,-61.3872 2035.2,-59.5348 2020,-58 1833.71,-39.1866 1611.12,-21.4752 1518.63,-14.3265"/>
<polygon fill="midnightblue" stroke="midnightblue" points="1518.76,-10.8266 1508.52,-13.5476 1518.22,-17.8059 1518.76,-10.8266"/>
</g>
<!-- Node31&#45;&gt;Node20 -->
<g id="edge102" class="edge"><title>Node31&#45;&gt;Node20</title>
<path fill="none" stroke="midnightblue" d="M2148.14,-58.4966C2182.21,-47.6984 2234.81,-31.0281 2267.77,-20.5802"/>
<polygon fill="midnightblue" stroke="midnightblue" points="2268.86,-23.9087 2277.33,-17.5509 2266.74,-17.2358 2268.86,-23.9087"/>
</g>
<!-- Node31&#45;&gt;Node25 -->
<g id="edge104" class="edge"><title>Node31&#45;&gt;Node25</title>
<path fill="none" stroke="midnightblue" d="M2101.06,-58.3619C2089.81,-49.7773 2073.78,-37.5459 2060.84,-27.6636"/>
<polygon fill="midnightblue" stroke="midnightblue" points="2062.92,-24.8551 2052.85,-21.5707 2058.68,-30.4198 2062.92,-24.8551"/>
</g>
<!-- Node32&#45;&gt;Node3 -->
<g id="edge108" class="edge"><title>Node32&#45;&gt;Node3</title>
<path fill="none" stroke="midnightblue" d="M1692.64,-292.826C1695.45,-291.854 1698.29,-290.891 1701,-290 1756.9,-271.639 1851.44,-281.734 1820,-232 1735.87,-98.9068 1605.87,-196.54 1500,-80 1487.73,-66.4921 1481.36,-46.4993 1478.14,-31.507"/>
<polygon fill="midnightblue" stroke="midnightblue" points="1481.57,-30.8301 1476.3,-21.6382 1474.69,-32.1095 1481.57,-30.8301"/>
</g>
<!-- Node32&#45;&gt;Node4 -->
<g id="edge112" class="edge"><title>Node32&#45;&gt;Node4</title>
<path fill="none" stroke="midnightblue" d="M1647.08,-294.241C1620.35,-286.041 1575.09,-271.164 1538,-254 1520.29,-245.804 1517.4,-240.84 1500,-232 1386.1,-174.131 1358.6,-155.162 1237,-116 1170.37,-94.5428 1089.33,-80.2964 1045.62,-73.5418"/>
<polygon fill="midnightblue" stroke="midnightblue" points="1046.01,-70.061 1035.6,-72.024 1044.96,-76.982 1046.01,-70.061"/>
</g>
<!-- Node32&#45;&gt;Node9 -->
<g id="edge124" class="edge"><title>Node32&#45;&gt;Node9</title>
<path fill="none" stroke="midnightblue" d="M1647.49,-294.927C1615.64,-286.259 1555.66,-269.649 1505,-254 1503.59,-253.566 1502.16,-253.114 1500.71,-252.653"/>
<polygon fill="midnightblue" stroke="midnightblue" points="1501.74,-249.309 1491.15,-249.542 1499.57,-255.965 1501.74,-249.309"/>
</g>
<!-- Node32&#45;&gt;Node17 -->
<g id="edge114" class="edge"><title>Node32&#45;&gt;Node17</title>
<path fill="none" stroke="midnightblue" d="M1647.32,-297.26C1607.95,-290.561 1524.3,-275.414 1444.96,-254.032"/>
<polygon fill="midnightblue" stroke="midnightblue" points="1445.88,-250.655 1435.31,-251.394 1444.04,-257.407 1445.88,-250.655"/>
</g>
<!-- Node32&#45;&gt;Node20 -->
<g id="edge128" class="edge"><title>Node32&#45;&gt;Node20</title>
<path fill="none" stroke="midnightblue" d="M1692.62,-292.733C1695.43,-291.777 1698.27,-290.843 1701,-290 1760.74,-271.53 1777.41,-272.946 1837,-254 1863.67,-245.52 1868.86,-238.821 1896,-232 2110.64,-178.057 2227.19,-293.165 2385,-138 2410.85,-112.578 2420.61,-88.5006 2401,-58 2385.1,-33.2614 2352.6,-21.3853 2328.34,-15.787"/>
<polygon fill="midnightblue" stroke="midnightblue" points="2329.02,-12.3538 2318.51,-13.7529 2327.6,-19.2083 2329.02,-12.3538"/>
</g>
<!-- Node33 -->
<g id="node88" class="node"><title>Node33</title>
<polygon fill="white" stroke="#bfbfbf" points="1905,-232.5 1905,-253.5 1949,-253.5 1949,-232.5 1905,-232.5"/>
<text text-anchor="middle" x="1927" y="-240.5" font-family="Helvetica,sans-Serif" font-size="10.00">time.h</text>
</g>
<!-- Node32&#45;&gt;Node33 -->
<g id="edge110" class="edge"><title>Node32&#45;&gt;Node33</title>
<path fill="none" stroke="midnightblue" d="M1692.56,-292.543C1695.38,-291.619 1698.24,-290.745 1701,-290 1783.97,-267.563 1807.56,-274.588 1891,-254 1892.25,-253.692 1893.52,-253.366 1894.8,-253.027"/>
<polygon fill="midnightblue" stroke="midnightblue" points="1895.97,-256.335 1904.64,-250.247 1894.06,-249.598 1895.97,-256.335"/>
</g>
<!-- Node34 -->
<g id="node92" class="node"><title>Node34</title>
<polygon fill="white" stroke="#bfbfbf" points="1967,-232.5 1967,-253.5 2021,-253.5 2021,-232.5 1967,-232.5"/>
<text text-anchor="middle" x="1994" y="-240.5" font-family="Helvetica,sans-Serif" font-size="10.00">sstream</text>
</g>
<!-- Node32&#45;&gt;Node34 -->
<g id="edge116" class="edge"><title>Node32&#45;&gt;Node34</title>
<path fill="none" stroke="midnightblue" d="M1692.53,-292.414C1695.35,-291.512 1698.23,-290.679 1701,-290 1809.97,-263.325 1843.56,-278.067 1957.22,-253.884"/>
<polygon fill="midnightblue" stroke="midnightblue" points="1957.97,-257.302 1966.99,-251.75 1956.48,-250.463 1957.97,-257.302"/>
</g>
<!-- Node35 -->
<g id="node94" class="node"><title>Node35</title>
<polygon fill="white" stroke="#bfbfbf" points="2038.5,-232.5 2038.5,-253.5 2095.5,-253.5 2095.5,-232.5 2038.5,-232.5"/>
<text text-anchor="middle" x="2067" y="-240.5" font-family="Helvetica,sans-Serif" font-size="10.00">iostream</text>
</g>
<!-- Node32&#45;&gt;Node35 -->
<g id="edge118" class="edge"><title>Node32&#45;&gt;Node35</title>
<path fill="none" stroke="midnightblue" d="M1692.51,-292.332C1695.34,-291.445 1698.22,-290.637 1701,-290 1841.17,-257.922 1883.9,-281.943 2028.33,-254.049"/>
<polygon fill="midnightblue" stroke="midnightblue" points="2029.32,-257.421 2038.45,-252.043 2027.96,-250.554 2029.32,-257.421"/>
</g>
<!-- Node36 -->
<g id="node96" class="node"><title>Node36</title>
<polygon fill="white" stroke="#bfbfbf" points="2113,-232.5 2113,-253.5 2165,-253.5 2165,-232.5 2113,-232.5"/>
<text text-anchor="middle" x="2139" y="-240.5" font-family="Helvetica,sans-Serif" font-size="10.00">regex.h</text>
</g>
<!-- Node32&#45;&gt;Node36 -->
<g id="edge120" class="edge"><title>Node32&#45;&gt;Node36</title>
<path fill="none" stroke="midnightblue" d="M1692.84,-292.174C1695.56,-291.337 1698.32,-290.585 1701,-290 1873.51,-252.322 1925.76,-287.83 2102.88,-253.853"/>
<polygon fill="midnightblue" stroke="midnightblue" points="2103.65,-257.269 2112.78,-251.906 2102.3,-250.4 2103.65,-257.269"/>
</g>
<!-- Node37 -->
<g id="node98" class="node"><title>Node37</title>
<polygon fill="white" stroke="#bfbfbf" points="1634.5,-232.5 1634.5,-253.5 1705.5,-253.5 1705.5,-232.5 1634.5,-232.5"/>
<text text-anchor="middle" x="1670" y="-240.5" font-family="Helvetica,sans-Serif" font-size="10.00">QByteArray</text>
</g>
<!-- Node32&#45;&gt;Node37 -->
<g id="edge122" class="edge"><title>Node32&#45;&gt;Node37</title>
<path fill="none" stroke="midnightblue" d="M1670,-290.362C1670,-282.922 1670,-272.743 1670,-263.728"/>
<polygon fill="midnightblue" stroke="midnightblue" points="1673.5,-263.571 1670,-253.571 1666.5,-263.571 1673.5,-263.571"/>
</g>
<!-- Node38 -->
<g id="node101" class="node"><title>Node38</title>
<polygon fill="white" stroke="#bfbfbf" points="1723,-232.5 1723,-253.5 1811,-253.5 1811,-232.5 1723,-232.5"/>
<text text-anchor="middle" x="1767" y="-240.5" font-family="Helvetica,sans-Serif" font-size="10.00">QGraphicsItem</text>
</g>
<!-- Node32&#45;&gt;Node38 -->
<g id="edge126" class="edge"><title>Node32&#45;&gt;Node38</title>
<path fill="none" stroke="midnightblue" d="M1687.79,-290.362C1702.56,-281.532 1723.78,-268.844 1740.54,-258.822"/>
<polygon fill="midnightblue" stroke="midnightblue" points="1742.53,-261.707 1749.32,-253.571 1738.94,-255.699 1742.53,-261.707"/>
</g>
<!-- Node39&#45;&gt;Node3 -->
<g id="edge132" class="edge"><title>Node39&#45;&gt;Node3</title>
<path fill="none" stroke="midnightblue" d="M1024.79,-179.879C1068.55,-173.03 1144.5,-159.231 1207,-138 1254.57,-121.843 1385.33,-56.5268 1444.82,-26.3825"/>
<polygon fill="midnightblue" stroke="midnightblue" points="1446.74,-29.3366 1454.07,-21.6896 1443.57,-23.0945 1446.74,-29.3366"/>
</g>
<!-- Node39&#45;&gt;Node4 -->
<g id="edge134" class="edge"><title>Node39&#45;&gt;Node4</title>
<path fill="none" stroke="midnightblue" d="M1024.6,-181.894C1076.69,-176.527 1169.73,-163.551 1190,-138 1229.83,-87.7873 1106.49,-74.0305 1045.73,-70.3294"/>
<polygon fill="midnightblue" stroke="midnightblue" points="1045.69,-66.822 1035.52,-69.7658 1045.31,-73.8114 1045.69,-66.822"/>
</g>
<!-- Node39&#45;&gt;Node6 -->
<g id="edge150" class="edge"><title>Node39&#45;&gt;Node6</title>
<path fill="none" stroke="midnightblue" d="M953.314,-183.259C869.95,-178.878 655.815,-165.816 467.696,-138.122"/>
<polygon fill="midnightblue" stroke="midnightblue" points="468.031,-134.633 457.624,-136.621 466.999,-141.557 468.031,-134.633"/>
</g>
<!-- Node39&#45;&gt;Node13 -->
<g id="edge138" class="edge"><title>Node39&#45;&gt;Node13</title>
<path fill="none" stroke="midnightblue" d="M953.419,-184.088C837.991,-180.857 474.899,-168.465 362,-138 318.73,-126.324 272.802,-101.413 245.266,-84.9378"/>
<polygon fill="midnightblue" stroke="midnightblue" points="247.026,-81.9115 236.663,-79.7054 243.388,-87.8922 247.026,-81.9115"/>
</g>
<!-- Node39&#45;&gt;Node21 -->
<g id="edge136" class="edge"><title>Node39&#45;&gt;Node21</title>
<path fill="none" stroke="midnightblue" d="M1024.85,-180.4C1113.41,-169.036 1340.82,-139.854 1416.27,-130.174"/>
<polygon fill="midnightblue" stroke="midnightblue" points="1416.79,-133.636 1426.26,-128.891 1415.9,-126.693 1416.79,-133.636"/>
</g>
<!-- Node40 -->
<g id="node110" class="node"><title>Node40</title>
<polygon fill="white" stroke="#bfbfbf" points="474.5,-116.5 474.5,-137.5 505.5,-137.5 505.5,-116.5 474.5,-116.5"/>
<text text-anchor="middle" x="490" y="-124.5" font-family="Helvetica,sans-Serif" font-size="10.00">set</text>
</g>
<!-- Node39&#45;&gt;Node40 -->
<g id="edge140" class="edge"><title>Node39&#45;&gt;Node40</title>
<path fill="none" stroke="midnightblue" d="M953.25,-182.996C860.787,-177.577 614.609,-161.595 515.67,-137.668"/>
<polygon fill="midnightblue" stroke="midnightblue" points="516.291,-134.214 505.733,-135.098 514.538,-140.991 516.291,-134.214"/>
</g>
<!-- Node41 -->
<g id="node112" class="node"><title>Node41</title>
<polygon fill="white" stroke="#bfbfbf" points="523,-116.5 523,-137.5 613,-137.5 613,-116.5 523,-116.5"/>
<text text-anchor="middle" x="568" y="-124.5" font-family="Helvetica,sans-Serif" font-size="10.00">palmwebpage.h</text>
</g>
<!-- Node39&#45;&gt;Node41 -->
<g id="edge142" class="edge"><title>Node39&#45;&gt;Node41</title>
<path fill="none" stroke="midnightblue" d="M953.445,-181.327C889.426,-174.522 750.339,-158.872 622.965,-138.068"/>
<polygon fill="midnightblue" stroke="midnightblue" points="623.471,-134.605 613.035,-136.432 622.333,-141.511 623.471,-134.605"/>
</g>
<!-- Node42 -->
<g id="node114" class="node"><title>Node42</title>
<polygon fill="white" stroke="#bfbfbf" points="630.5,-116.5 630.5,-137.5 745.5,-137.5 745.5,-116.5 630.5,-116.5"/>
<text text-anchor="middle" x="688" y="-124.5" font-family="Helvetica,sans-Serif" font-size="10.00">palmwebpageclient.h</text>
</g>
<!-- Node39&#45;&gt;Node42 -->
<g id="edge144" class="edge"><title>Node39&#45;&gt;Node42</title>
<path fill="none" stroke="midnightblue" d="M953.289,-178.119C903.946,-168.611 814.071,-151.293 752.731,-139.473"/>
<polygon fill="midnightblue" stroke="midnightblue" points="753.245,-136.008 742.764,-137.553 751.921,-142.881 753.245,-136.008"/>
</g>
<!-- Node43 -->
<g id="node116" class="node"><title>Node43</title>
<polygon fill="white" stroke="#bfbfbf" points="763,-116.5 763,-137.5 875,-137.5 875,-116.5 763,-116.5"/>
<text text-anchor="middle" x="819" y="-124.5" font-family="Helvetica,sans-Serif" font-size="10.00">palmwebviewclient.h</text>
</g>
<!-- Node39&#45;&gt;Node43 -->
<g id="edge146" class="edge"><title>Node39&#45;&gt;Node43</title>
<path fill="none" stroke="midnightblue" d="M958.214,-174.497C930.62,-165.082 889.942,-151.204 859.675,-140.877"/>
<polygon fill="midnightblue" stroke="midnightblue" points="860.438,-137.44 849.843,-137.523 858.178,-144.065 860.438,-137.44"/>
</g>
<!-- Node44 -->
<g id="node118" class="node"><title>Node44</title>
<polygon fill="white" stroke="#bfbfbf" points="893,-116.5 893,-137.5 989,-137.5 989,-116.5 893,-116.5"/>
<text text-anchor="middle" x="941" y="-124.5" font-family="Helvetica,sans-Serif" font-size="10.00">palmwebsslinfo.h</text>
</g>
<!-- Node39&#45;&gt;Node44 -->
<g id="edge148" class="edge"><title>Node39&#45;&gt;Node44</title>
<path fill="none" stroke="midnightblue" d="M980.196,-174.362C973.498,-166.268 964.116,-154.932 956.211,-145.38"/>
<polygon fill="midnightblue" stroke="midnightblue" points="958.82,-143.043 949.748,-137.571 953.427,-147.506 958.82,-143.043"/>
</g>
<!-- Node45 -->
<g id="node121" class="node"><title>Node45</title>
<a xlink:href="Timer_8h.htm" target="_top" xlink:title="Timer.h">
<polygon fill="white" stroke="black" points="1617,-58.5 1617,-79.5 1669,-79.5 1669,-58.5 1617,-58.5"/>
<text text-anchor="middle" x="1643" y="-66.5" font-family="Helvetica,sans-Serif" font-size="10.00">Timer.h</text>
</a>
</g>
<!-- Node39&#45;&gt;Node45 -->
<g id="edge152" class="edge"><title>Node39&#45;&gt;Node45</title>
<path fill="none" stroke="midnightblue" d="M1024.66,-178.927C1076.65,-170.053 1176.29,-152.969 1261,-138 1387.93,-115.57 1538.43,-88.1396 1606.43,-75.7017"/>
<polygon fill="midnightblue" stroke="midnightblue" points="1607.41,-79.0803 1616.61,-73.8373 1606.15,-72.1946 1607.41,-79.0803"/>
</g>
<!-- Node46 -->
<g id="node126" class="node"><title>Node46</title>
<polygon fill="white" stroke="#bfbfbf" points="1006.5,-116.5 1006.5,-137.5 1065.5,-137.5 1065.5,-116.5 1006.5,-116.5"/>
<text text-anchor="middle" x="1036" y="-124.5" font-family="Helvetica,sans-Serif" font-size="10.00">QVariant</text>
</g>
<!-- Node39&#45;&gt;Node46 -->
<g id="edge160" class="edge"><title>Node39&#45;&gt;Node46</title>
<path fill="none" stroke="midnightblue" d="M997.621,-174.362C1004.18,-166.268 1013.37,-154.932 1021.11,-145.38"/>
<polygon fill="midnightblue" stroke="midnightblue" points="1023.86,-147.544 1027.43,-137.571 1018.42,-143.136 1023.86,-147.544"/>
</g>
<!-- Node47 -->
<g id="node128" class="node"><title>Node47</title>
<polygon fill="white" stroke="#bfbfbf" points="1083,-116.5 1083,-137.5 1181,-137.5 1181,-116.5 1083,-116.5"/>
<text text-anchor="middle" x="1132" y="-124.5" font-family="Helvetica,sans-Serif" font-size="10.00">palmimedefines.h</text>
</g>
<!-- Node39&#45;&gt;Node47 -->
<g id="edge162" class="edge"><title>Node39&#45;&gt;Node47</title>
<path fill="none" stroke="midnightblue" d="M1014.9,-174.497C1037.63,-165.275 1070.93,-151.769 1096.21,-141.515"/>
<polygon fill="midnightblue" stroke="midnightblue" points="1097.86,-144.623 1105.81,-137.621 1095.23,-138.136 1097.86,-144.623"/>
</g>
<!-- Node45&#45;&gt;Node3 -->
<g id="edge154" class="edge"><title>Node45&#45;&gt;Node3</title>
<path fill="none" stroke="midnightblue" d="M1616.75,-59.9375C1589.6,-50.5653 1546.86,-35.8085 1515.4,-24.9481"/>
<polygon fill="midnightblue" stroke="midnightblue" points="1516.21,-21.5257 1505.62,-21.5707 1513.93,-28.1425 1516.21,-21.5257"/>
</g>
<!-- Node45&#45;&gt;Node20 -->
<g id="edge156" class="edge"><title>Node45&#45;&gt;Node20</title>
<path fill="none" stroke="midnightblue" d="M1669.21,-60.0554C1672.15,-59.2634 1675.12,-58.5536 1678,-58 1792.91,-35.8903 2157.87,-17.52 2266.93,-12.4131"/>
<polygon fill="midnightblue" stroke="midnightblue" points="2267.41,-15.8945 2277.24,-11.9342 2267.09,-8.90199 2267.41,-15.8945"/>
</g>
<!-- Node45&#45;&gt;Node25 -->
<g id="edge158" class="edge"><title>Node45&#45;&gt;Node25</title>
<path fill="none" stroke="midnightblue" d="M1669.24,-60.2112C1672.18,-59.39 1675.14,-58.6308 1678,-58 1795.81,-32.0281 1938.63,-18.6572 2003.67,-13.5351"/>
<polygon fill="midnightblue" stroke="midnightblue" points="2004.09,-17.0132 2013.79,-12.7556 2003.55,-10.0338 2004.09,-17.0132"/>
</g>
</g>
</svg>
