<?xml version="1.0" encoding="UTF-8" standalone="no"?>
<!DOCTYPE svg PUBLIC "-//W3C//DTD SVG 1.1//EN"
 "http://www.w3.org/Graphics/SVG/1.1/DTD/svg11.dtd">
<!-- Generated by graphviz version 2.26.3 (20100126.1600)
 -->
<!-- Title: G Pages: 1 -->
<svg width="852pt" height="146pt"
 viewBox="0.00 0.00 852.00 146.00" xmlns="http://www.w3.org/2000/svg" xmlns:xlink="http://www.w3.org/1999/xlink">
<g id="graph1" class="graph" transform="scale(1 1) rotate(0) translate(4 142)">
<title>G</title>
<polygon fill="white" stroke="white" points="-4,5 -4,-142 849,-142 849,5 -4,5"/>
<!-- Node1 -->
<g id="node1" class="node"><title>Node1</title>
<polygon fill="#bfbfbf" stroke="black" points="223,-116.5 223,-137.5 357,-137.5 357,-116.5 223,-116.5"/>
<text text-anchor="middle" x="290" y="-124.5" font-family="Helvetica,sans-Serif" font-size="10.00">WebKitEventListener.cpp</text>
</g>
<!-- Node2 -->
<g id="node3" class="node"><title>Node2</title>
<a xlink:href="Common_8h.htm" target="_top" xlink:title="Common.h">
<polygon fill="white" stroke="black" points="111.5,-0.5 111.5,-21.5 178.5,-21.5 178.5,-0.5 111.5,-0.5"/>
<text text-anchor="middle" x="145" y="-8.5" font-family="Helvetica,sans-Serif" font-size="10.00">Common.h</text>
</a>
</g>
<!-- Node1&#45;&gt;Node2 -->
<g id="edge2" class="edge"><title>Node1&#45;&gt;Node2</title>
<path fill="none" stroke="midnightblue" d="M279.287,-116.163C265.137,-102.085 239.178,-77.0578 215,-58 200.989,-46.9562 184.453,-35.7754 170.972,-27.091"/>
<polygon fill="midnightblue" stroke="midnightblue" points="172.513,-23.9226 162.196,-21.5099 168.756,-29.8295 172.513,-23.9226"/>
</g>
<!-- Node3 -->
<g id="node5" class="node"><title>Node3</title>
<a xlink:href="WebKitEventListener_8h.htm" target="_top" xlink:title="WebKitEventListener.h">
<polygon fill="white" stroke="black" points="83.5,-58.5 83.5,-79.5 206.5,-79.5 206.5,-58.5 83.5,-58.5"/>
<text text-anchor="middle" x="145" y="-66.5" font-family="Helvetica,sans-Serif" font-size="10.00">WebKitEventListener.h</text>
</a>
</g>
<!-- Node1&#45;&gt;Node3 -->
<g id="edge4" class="edge"><title>Node1&#45;&gt;Node3</title>
<path fill="none" stroke="midnightblue" d="M263.742,-116.497C240.584,-107.234 206.625,-93.6499 180.948,-83.3793"/>
<polygon fill="midnightblue" stroke="midnightblue" points="182.138,-80.0855 171.553,-79.6212 179.538,-86.5849 182.138,-80.0855"/>
</g>
<!-- Node5 -->
<g id="node10" class="node"><title>Node5</title>
<a xlink:href="BackupManager_8h.htm" target="_top" xlink:title="BackupManager.h">
<polygon fill="white" stroke="black" points="284,-58.5 284,-79.5 386,-79.5 386,-58.5 284,-58.5"/>
<text text-anchor="middle" x="335" y="-66.5" font-family="Helvetica,sans-Serif" font-size="10.00">BackupManager.h</text>
</a>
</g>
<!-- Node1&#45;&gt;Node5 -->
<g id="edge10" class="edge"><title>Node1&#45;&gt;Node5</title>
<path fill="none" stroke="midnightblue" d="M298.254,-116.362C304.47,-108.35 313.151,-97.1605 320.515,-87.6696"/>
<polygon fill="midnightblue" stroke="midnightblue" points="323.434,-89.617 326.799,-79.5707 317.903,-85.326 323.434,-89.617"/>
</g>
<!-- Node13 -->
<g id="node27" class="node"><title>Node13</title>
<a xlink:href="Logging_8h.htm" target="_top" xlink:title="Logging.h">
<polygon fill="white" stroke="black" points="643.5,-58.5 643.5,-79.5 706.5,-79.5 706.5,-58.5 643.5,-58.5"/>
<text text-anchor="middle" x="675" y="-66.5" font-family="Helvetica,sans-Serif" font-size="10.00">Logging.h</text>
</a>
</g>
<!-- Node1&#45;&gt;Node13 -->
<g id="edge28" class="edge"><title>Node1&#45;&gt;Node13</title>
<path fill="none" stroke="midnightblue" d="M357.062,-116.897C436.612,-104.913 566.783,-85.3028 633.187,-75.2991"/>
<polygon fill="midnightblue" stroke="midnightblue" points="633.912,-78.7295 643.279,-73.7787 632.869,-71.8076 633.912,-78.7295"/>
</g>
<!-- Node3&#45;&gt;Node2 -->
<g id="edge6" class="edge"><title>Node3&#45;&gt;Node2</title>
<path fill="none" stroke="midnightblue" d="M145,-58.3619C145,-50.9219 145,-40.7427 145,-31.7276"/>
<polygon fill="midnightblue" stroke="midnightblue" points="148.5,-31.5706 145,-21.5707 141.5,-31.5707 148.5,-31.5706"/>
</g>
<!-- Node4 -->
<g id="node8" class="node"><title>Node4</title>
<polygon fill="white" stroke="#bfbfbf" points="0,-0.5 0,-21.5 94,-21.5 94,-0.5 0,-0.5"/>
<text text-anchor="middle" x="47" y="-8.5" font-family="Helvetica,sans-Serif" font-size="10.00">palmwebglobal.h</text>
</g>
<!-- Node3&#45;&gt;Node4 -->
<g id="edge8" class="edge"><title>Node3&#45;&gt;Node4</title>
<path fill="none" stroke="midnightblue" d="M127.025,-58.3619C112.106,-49.532 90.6674,-36.844 73.7344,-26.8224"/>
<polygon fill="midnightblue" stroke="midnightblue" points="75.2492,-23.6519 64.8608,-21.5707 71.6839,-29.6759 75.2492,-23.6519"/>
</g>
<!-- Node5&#45;&gt;Node2 -->
<g id="edge12" class="edge"><title>Node5&#45;&gt;Node2</title>
<path fill="none" stroke="midnightblue" d="M300.592,-58.4966C269.057,-48.8701 222.234,-34.5765 188.194,-24.1854"/>
<polygon fill="midnightblue" stroke="midnightblue" points="189.1,-20.8027 178.514,-21.2305 187.056,-27.4977 189.1,-20.8027"/>
</g>
<!-- Node6 -->
<g id="node13" class="node"><title>Node6</title>
<polygon fill="white" stroke="#bfbfbf" points="591.5,-0.5 591.5,-21.5 634.5,-21.5 634.5,-0.5 591.5,-0.5"/>
<text text-anchor="middle" x="613" y="-8.5" font-family="Helvetica,sans-Serif" font-size="10.00">string</text>
</g>
<!-- Node5&#45;&gt;Node6 -->
<g id="edge14" class="edge"><title>Node5&#45;&gt;Node6</title>
<path fill="none" stroke="midnightblue" d="M386.383,-61.7841C434.761,-54.427 509.301,-41.6432 581.475,-22.139"/>
<polygon fill="midnightblue" stroke="midnightblue" points="582.465,-25.4968 591.18,-19.4712 580.61,-18.7472 582.465,-25.4968"/>
</g>
<!-- Node7 -->
<g id="node15" class="node"><title>Node7</title>
<polygon fill="white" stroke="#bfbfbf" points="195.5,-0.5 195.5,-21.5 224.5,-21.5 224.5,-0.5 195.5,-0.5"/>
<text text-anchor="middle" x="210" y="-8.5" font-family="Helvetica,sans-Serif" font-size="10.00">list</text>
</g>
<!-- Node5&#45;&gt;Node7 -->
<g id="edge16" class="edge"><title>Node5&#45;&gt;Node7</title>
<path fill="none" stroke="midnightblue" d="M311.866,-58.4542C293.023,-49.8402 265.518,-37.2106 234.024,-22.447"/>
<polygon fill="midnightblue" stroke="midnightblue" points="235.125,-19.0972 224.586,-18.0144 232.149,-25.4333 235.125,-19.0972"/>
</g>
<!-- Node8 -->
<g id="node17" class="node"><title>Node8</title>
<polygon fill="white" stroke="#bfbfbf" points="241.5,-0.5 241.5,-21.5 278.5,-21.5 278.5,-0.5 241.5,-0.5"/>
<text text-anchor="middle" x="260" y="-8.5" font-family="Helvetica,sans-Serif" font-size="10.00">map</text>
</g>
<!-- Node5&#45;&gt;Node8 -->
<g id="edge18" class="edge"><title>Node5&#45;&gt;Node8</title>
<path fill="none" stroke="midnightblue" d="M321.244,-58.3619C310.249,-49.859 294.627,-37.7785 281.914,-27.9466"/>
<polygon fill="midnightblue" stroke="midnightblue" points="283.721,-24.9195 273.669,-21.5707 279.438,-30.4569 283.721,-24.9195"/>
</g>
<!-- Node9 -->
<g id="node19" class="node"><title>Node9</title>
<polygon fill="white" stroke="#bfbfbf" points="296,-0.5 296,-21.5 374,-21.5 374,-0.5 296,-0.5"/>
<text text-anchor="middle" x="335" y="-8.5" font-family="Helvetica,sans-Serif" font-size="10.00">lunaservice.h</text>
</g>
<!-- Node5&#45;&gt;Node9 -->
<g id="edge20" class="edge"><title>Node5&#45;&gt;Node9</title>
<path fill="none" stroke="midnightblue" d="M335,-58.3619C335,-50.9219 335,-40.7427 335,-31.7276"/>
<polygon fill="midnightblue" stroke="midnightblue" points="338.5,-31.5706 335,-21.5707 331.5,-31.5707 338.5,-31.5706"/>
</g>
<!-- Node10 -->
<g id="node21" class="node"><title>Node10</title>
<polygon fill="white" stroke="#bfbfbf" points="391.5,-0.5 391.5,-21.5 446.5,-21.5 446.5,-0.5 391.5,-0.5"/>
<text text-anchor="middle" x="419" y="-8.5" font-family="Helvetica,sans-Serif" font-size="10.00">QObject</text>
</g>
<!-- Node5&#45;&gt;Node10 -->
<g id="edge22" class="edge"><title>Node5&#45;&gt;Node10</title>
<path fill="none" stroke="midnightblue" d="M350.407,-58.3619C362.958,-49.6955 380.892,-37.3126 395.275,-27.3819"/>
<polygon fill="midnightblue" stroke="midnightblue" points="397.45,-30.1327 403.691,-21.5707 393.473,-24.3725 397.45,-30.1327"/>
</g>
<!-- Node11 -->
<g id="node23" class="node"><title>Node11</title>
<polygon fill="white" stroke="#bfbfbf" points="463.5,-0.5 463.5,-21.5 504.5,-21.5 504.5,-0.5 463.5,-0.5"/>
<text text-anchor="middle" x="484" y="-8.5" font-family="Helvetica,sans-Serif" font-size="10.00">QList</text>
</g>
<!-- Node5&#45;&gt;Node11 -->
<g id="edge24" class="edge"><title>Node5&#45;&gt;Node11</title>
<path fill="none" stroke="midnightblue" d="M361.983,-58.4966C387.861,-48.4232 426.867,-33.2396 453.777,-22.7646"/>
<polygon fill="midnightblue" stroke="midnightblue" points="455.397,-25.8901 463.446,-19.0009 452.857,-19.3668 455.397,-25.8901"/>
</g>
<!-- Node12 -->
<g id="node25" class="node"><title>Node12</title>
<polygon fill="white" stroke="#bfbfbf" points="521.5,-0.5 521.5,-21.5 574.5,-21.5 574.5,-0.5 521.5,-0.5"/>
<text text-anchor="middle" x="548" y="-8.5" font-family="Helvetica,sans-Serif" font-size="10.00">QString</text>
</g>
<!-- Node5&#45;&gt;Node12 -->
<g id="edge26" class="edge"><title>Node5&#45;&gt;Node12</title>
<path fill="none" stroke="midnightblue" d="M377.23,-58.4369C411.203,-49.8075 460.386,-37.0205 511.402,-22.3876"/>
<polygon fill="midnightblue" stroke="midnightblue" points="512.648,-25.6711 521.286,-19.536 510.707,-18.9455 512.648,-25.6711"/>
</g>
<!-- Node13&#45;&gt;Node2 -->
<g id="edge30" class="edge"><title>Node13&#45;&gt;Node2</title>
<path fill="none" stroke="midnightblue" d="M643.362,-67.7089C566.759,-64.2103 365.195,-52.7767 188.799,-22.1151"/>
<polygon fill="midnightblue" stroke="midnightblue" points="189.279,-18.6458 178.823,-20.3554 188.063,-25.5393 189.279,-18.6458"/>
</g>
<!-- Node14 -->
<g id="node30" class="node"><title>Node14</title>
<polygon fill="white" stroke="#bfbfbf" points="651.5,-0.5 651.5,-21.5 698.5,-21.5 698.5,-0.5 651.5,-0.5"/>
<text text-anchor="middle" x="675" y="-8.5" font-family="Helvetica,sans-Serif" font-size="10.00">stdio.h</text>
</g>
<!-- Node13&#45;&gt;Node14 -->
<g id="edge32" class="edge"><title>Node13&#45;&gt;Node14</title>
<path fill="none" stroke="midnightblue" d="M675,-58.3619C675,-50.9219 675,-40.7427 675,-31.7276"/>
<polygon fill="midnightblue" stroke="midnightblue" points="678.5,-31.5706 675,-21.5707 671.5,-31.5707 678.5,-31.5706"/>
</g>
<!-- Node15 -->
<g id="node32" class="node"><title>Node15</title>
<polygon fill="white" stroke="#bfbfbf" points="715.5,-0.5 715.5,-21.5 756.5,-21.5 756.5,-0.5 715.5,-0.5"/>
<text text-anchor="middle" x="736" y="-8.5" font-family="Helvetica,sans-Serif" font-size="10.00">glib.h</text>
</g>
<!-- Node13&#45;&gt;Node15 -->
<g id="edge34" class="edge"><title>Node13&#45;&gt;Node15</title>
<path fill="none" stroke="midnightblue" d="M686.188,-58.3619C694.959,-50.0226 707.349,-38.2418 717.578,-28.5162"/>
<polygon fill="midnightblue" stroke="midnightblue" points="720.047,-30.9978 724.883,-21.5707 715.224,-25.9248 720.047,-30.9978"/>
</g>
<!-- Node16 -->
<g id="node34" class="node"><title>Node16</title>
<polygon fill="white" stroke="#bfbfbf" points="773.5,-0.5 773.5,-21.5 844.5,-21.5 844.5,-0.5 773.5,-0.5"/>
<text text-anchor="middle" x="809" y="-8.5" font-family="Helvetica,sans-Serif" font-size="10.00">PmLogLib.h</text>
</g>
<!-- Node13&#45;&gt;Node16 -->
<g id="edge36" class="edge"><title>Node13&#45;&gt;Node16</title>
<path fill="none" stroke="midnightblue" d="M699.266,-58.4966C720.478,-49.3154 751.498,-35.8889 775.15,-25.6516"/>
<polygon fill="midnightblue" stroke="midnightblue" points="776.674,-28.8055 784.461,-21.6212 773.894,-22.3815 776.674,-28.8055"/>
</g>
</g>
</svg>
