<?xml version="1.0" encoding="UTF-8" standalone="no"?>
<!DOCTYPE svg PUBLIC "-//W3C//DTD SVG 1.1//EN"
 "http://www.w3.org/Graphics/SVG/1.1/DTD/svg11.dtd">
<!-- Generated by graphviz version 2.26.3 (20100126.1600)
 -->
<!-- Title: G Pages: 1 -->
<svg width="316pt" height="146pt"
 viewBox="0.00 0.00 316.00 146.00" xmlns="http://www.w3.org/2000/svg" xmlns:xlink="http://www.w3.org/1999/xlink">
<g id="graph1" class="graph" transform="scale(1 1) rotate(0) translate(4 142)">
<title>G</title>
<polygon fill="white" stroke="white" points="-4,5 -4,-142 313,-142 313,5 -4,5"/>
<!-- Node1 -->
<g id="node1" class="node"><title>Node1</title>
<polygon fill="#bfbfbf" stroke="black" points="55,-116.5 55,-137.5 163,-137.5 163,-116.5 55,-116.5"/>
<text text-anchor="middle" x="109" y="-124.5" font-family="Helvetica,sans-Serif" font-size="10.00">WebKitKeyMap.cpp</text>
</g>
<!-- Node2 -->
<g id="node3" class="node"><title>Node2</title>
<a xlink:href="Common_8h.htm" target="_top" xlink:title="Common.h">
<polygon fill="white" stroke="black" points="-0.5,-0.5 -0.5,-21.5 66.5,-21.5 66.5,-0.5 -0.5,-0.5"/>
<text text-anchor="middle" x="33" y="-8.5" font-family="Helvetica,sans-Serif" font-size="10.00">Common.h</text>
</a>
</g>
<!-- Node1&#45;&gt;Node2 -->
<g id="edge2" class="edge"><title>Node1&#45;&gt;Node2</title>
<path fill="none" stroke="midnightblue" d="M91.0495,-116.433C78.3589,-108.074 61.9046,-95.2844 52,-80 42.5234,-65.376 37.7276,-46.0658 35.3282,-31.5933"/>
<polygon fill="midnightblue" stroke="midnightblue" points="38.7849,-31.0402 33.9227,-21.6269 31.8535,-32.0177 38.7849,-31.0402"/>
</g>
<!-- Node3 -->
<g id="node5" class="node"><title>Node3</title>
<a xlink:href="WebKitKeyMap_8h.htm" target="_top" xlink:title="WebKitKeyMap.h">
<polygon fill="white" stroke="black" points="60.5,-58.5 60.5,-79.5 157.5,-79.5 157.5,-58.5 60.5,-58.5"/>
<text text-anchor="middle" x="109" y="-66.5" font-family="Helvetica,sans-Serif" font-size="10.00">WebKitKeyMap.h</text>
</a>
</g>
<!-- Node1&#45;&gt;Node3 -->
<g id="edge4" class="edge"><title>Node1&#45;&gt;Node3</title>
<path fill="none" stroke="midnightblue" d="M109,-116.362C109,-108.922 109,-98.7427 109,-89.7276"/>
<polygon fill="midnightblue" stroke="midnightblue" points="112.5,-89.5706 109,-79.5707 105.5,-89.5707 112.5,-89.5706"/>
</g>
<!-- Node7 -->
<g id="node14" class="node"><title>Node7</title>
<polygon fill="white" stroke="#bfbfbf" points="175,-58.5 175,-79.5 227,-79.5 227,-58.5 175,-58.5"/>
<text text-anchor="middle" x="201" y="-66.5" font-family="Helvetica,sans-Serif" font-size="10.00">qchar.h</text>
</g>
<!-- Node1&#45;&gt;Node7 -->
<g id="edge14" class="edge"><title>Node1&#45;&gt;Node7</title>
<path fill="none" stroke="midnightblue" d="M125.874,-116.362C139.751,-107.614 159.634,-95.0786 175.46,-85.1015"/>
<polygon fill="midnightblue" stroke="midnightblue" points="177.64,-87.8645 184.233,-79.5707 173.907,-81.943 177.64,-87.8645"/>
</g>
<!-- Node3&#45;&gt;Node2 -->
<g id="edge6" class="edge"><title>Node3&#45;&gt;Node2</title>
<path fill="none" stroke="midnightblue" d="M95.0604,-58.3619C83.8116,-49.7773 67.7842,-37.5459 54.835,-27.6636"/>
<polygon fill="midnightblue" stroke="midnightblue" points="56.9241,-24.8551 46.8512,-21.5707 52.6774,-30.4198 56.9241,-24.8551"/>
</g>
<!-- Node4 -->
<g id="node8" class="node"><title>Node4</title>
<polygon fill="white" stroke="#bfbfbf" points="83.5,-0.5 83.5,-21.5 120.5,-21.5 120.5,-0.5 83.5,-0.5"/>
<text text-anchor="middle" x="102" y="-8.5" font-family="Helvetica,sans-Serif" font-size="10.00">map</text>
</g>
<!-- Node3&#45;&gt;Node4 -->
<g id="edge8" class="edge"><title>Node3&#45;&gt;Node4</title>
<path fill="none" stroke="midnightblue" d="M107.716,-58.3619C106.818,-50.9219 105.59,-40.7427 104.502,-31.7276"/>
<polygon fill="midnightblue" stroke="midnightblue" points="107.949,-31.0792 103.276,-21.5707 100.999,-31.918 107.949,-31.0792"/>
</g>
<!-- Node5 -->
<g id="node10" class="node"><title>Node5</title>
<polygon fill="white" stroke="#bfbfbf" points="137.5,-0.5 137.5,-21.5 166.5,-21.5 166.5,-0.5 137.5,-0.5"/>
<text text-anchor="middle" x="152" y="-8.5" font-family="Helvetica,sans-Serif" font-size="10.00">Qt</text>
</g>
<!-- Node3&#45;&gt;Node5 -->
<g id="edge10" class="edge"><title>Node3&#45;&gt;Node5</title>
<path fill="none" stroke="midnightblue" d="M116.887,-58.3619C122.827,-50.3496 131.122,-39.1605 138.159,-29.6696"/>
<polygon fill="midnightblue" stroke="midnightblue" points="141.019,-31.6883 144.163,-21.5707 135.396,-27.5193 141.019,-31.6883"/>
</g>
<!-- Node6 -->
<g id="node12" class="node"><title>Node6</title>
<polygon fill="white" stroke="#bfbfbf" points="183.5,-0.5 183.5,-21.5 308.5,-21.5 308.5,-0.5 183.5,-0.5"/>
<text text-anchor="middle" x="246" y="-8.5" font-family="Helvetica,sans-Serif" font-size="10.00">webosDeviceKeydefs.h</text>
</g>
<!-- Node3&#45;&gt;Node6 -->
<g id="edge12" class="edge"><title>Node3&#45;&gt;Node6</title>
<path fill="none" stroke="midnightblue" d="M133.81,-58.4966C155.496,-49.3154 187.211,-35.8889 211.392,-25.6516"/>
<polygon fill="midnightblue" stroke="midnightblue" points="213.068,-28.7429 220.912,-21.6212 210.339,-22.2968 213.068,-28.7429"/>
</g>
</g>
</svg>
