<?xml version="1.0" encoding="UTF-8" standalone="no"?>
<!DOCTYPE svg PUBLIC "-//W3C//DTD SVG 1.1//EN"
 "http://www.w3.org/Graphics/SVG/1.1/DTD/svg11.dtd">
<!-- Generated by graphviz version 2.26.3 (20100126.1600)
 -->
<!-- Title: G Pages: 1 -->
<svg width="4109pt" height="320pt"
 viewBox="0.00 0.00 4108.63 320.00" xmlns="http://www.w3.org/2000/svg" xmlns:xlink="http://www.w3.org/1999/xlink">
<g id="graph1" class="graph" transform="scale(1 1) rotate(0) translate(4 316)">
<title>G</title>
<polygon fill="white" stroke="white" points="-4,5 -4,-316 4105.63,-316 4105.63,5 -4,5"/>
<!-- Node1 -->
<g id="node1" class="node"><title>Node1</title>
<polygon fill="#bfbfbf" stroke="black" points="2818.63,-290.5 2818.63,-311.5 2900.63,-311.5 2900.63,-290.5 2818.63,-290.5"/>
<text text-anchor="middle" x="2859.63" y="-298.5" font-family="Helvetica,sans-Serif" font-size="10.00">WebPage.cpp</text>
</g>
<!-- Node2 -->
<g id="node3" class="node"><title>Node2</title>
<a xlink:href="Common_8h.htm" target="_top" xlink:title="Common.h">
<polygon fill="white" stroke="black" points="2065.13,-0.5 2065.13,-21.5 2132.13,-21.5 2132.13,-0.5 2065.13,-0.5"/>
<text text-anchor="middle" x="2098.63" y="-8.5" font-family="Helvetica,sans-Serif" font-size="10.00">Common.h</text>
</a>
</g>
<!-- Node1&#45;&gt;Node2 -->
<g id="edge2" class="edge"><title>Node1&#45;&gt;Node2</title>
<path fill="none" stroke="midnightblue" d="M2818.45,-293.488C2777.97,-285.577 2714.72,-271.803 2661.63,-254 2540.12,-213.256 2489.58,-227.279 2397.63,-138 2369.39,-110.579 2390.9,-81.9082 2359.63,-58 2326.21,-32.4509 2207.53,-19.4292 2142.33,-14.068"/>
<polygon fill="midnightblue" stroke="midnightblue" points="2142.59,-10.5779 2132.34,-13.2726 2142.03,-17.5557 2142.59,-10.5779"/>
</g>
<!-- Node3 -->
<g id="node5" class="node"><title>Node3</title>
<polygon fill="white" stroke="#bfbfbf" points="3334.13,-232.5 3334.13,-253.5 3383.13,-253.5 3383.13,-232.5 3334.13,-232.5"/>
<text text-anchor="middle" x="3358.63" y="-240.5" font-family="Helvetica,sans-Serif" font-size="10.00">stdlib.h</text>
</g>
<!-- Node1&#45;&gt;Node3 -->
<g id="edge4" class="edge"><title>Node1&#45;&gt;Node3</title>
<path fill="none" stroke="midnightblue" d="M2900.69,-299.297C2981.67,-295.394 3167.42,-283.734 3320.63,-254 3321.71,-253.791 3322.8,-253.564 3323.9,-253.324"/>
<polygon fill="midnightblue" stroke="midnightblue" points="3324.98,-256.663 3333.85,-250.868 3323.3,-249.867 3324.98,-256.663"/>
</g>
<!-- Node4 -->
<g id="node7" class="node"><title>Node4</title>
<polygon fill="white" stroke="#bfbfbf" points="3056.13,-0.5 3056.13,-21.5 3107.13,-21.5 3107.13,-0.5 3056.13,-0.5"/>
<text text-anchor="middle" x="3081.63" y="-8.5" font-family="Helvetica,sans-Serif" font-size="10.00">string.h</text>
</g>
<!-- Node1&#45;&gt;Node4 -->
<g id="edge6" class="edge"><title>Node1&#45;&gt;Node4</title>
<path fill="none" stroke="midnightblue" d="M2900.85,-297.963C2977.13,-291.875 3137.16,-276.777 3187.63,-254 3230.73,-234.546 3268.63,-232.291 3268.63,-185 3268.63,-185 3268.63,-185 3268.63,-127 3268.63,-92.4103 3259.18,-80.1728 3232.63,-58 3215.03,-43.298 3156.09,-27.7678 3117.26,-18.7521"/>
<polygon fill="midnightblue" stroke="midnightblue" points="3117.91,-15.3095 3107.38,-16.4964 3116.35,-22.134 3117.91,-15.3095"/>
</g>
<!-- Node5 -->
<g id="node9" class="node"><title>Node5</title>
<polygon fill="white" stroke="#bfbfbf" points="3148.13,-0.5 3148.13,-21.5 3195.13,-21.5 3195.13,-0.5 3148.13,-0.5"/>
<text text-anchor="middle" x="3171.63" y="-8.5" font-family="Helvetica,sans-Serif" font-size="10.00">stdio.h</text>
</g>
<!-- Node1&#45;&gt;Node5 -->
<g id="edge8" class="edge"><title>Node1&#45;&gt;Node5</title>
<path fill="none" stroke="midnightblue" d="M2900.67,-298.768C2983.98,-293.752 3169.91,-279.947 3227.63,-254 3270.15,-234.885 3306.63,-231.618 3306.63,-185 3306.63,-185 3306.63,-185 3306.63,-127 3306.63,-73.3307 3244.49,-39.0918 3204.53,-22.6214"/>
<polygon fill="midnightblue" stroke="midnightblue" points="3205.73,-19.3326 3195.14,-18.9088 3203.16,-25.8419 3205.73,-19.3326"/>
</g>
<!-- Node6 -->
<g id="node11" class="node"><title>Node6</title>
<polygon fill="white" stroke="#bfbfbf" points="2786.13,-0.5 2786.13,-21.5 2827.13,-21.5 2827.13,-0.5 2786.13,-0.5"/>
<text text-anchor="middle" x="2806.63" y="-8.5" font-family="Helvetica,sans-Serif" font-size="10.00">glib.h</text>
</g>
<!-- Node1&#45;&gt;Node6 -->
<g id="edge10" class="edge"><title>Node1&#45;&gt;Node6</title>
<path fill="none" stroke="midnightblue" d="M2900.84,-291.143C2972.53,-272.786 3112.63,-231.025 3112.63,-185 3112.63,-185 3112.63,-185 3112.63,-127 3112.63,-95.1919 3117.35,-79.1884 3093.63,-58 3055.21,-23.6849 2915.39,-30.8005 2864.63,-22 2855.7,-20.4521 2846.02,-18.6615 2837.18,-16.9803"/>
<polygon fill="midnightblue" stroke="midnightblue" points="2837.75,-13.5266 2827.27,-15.0782 2836.43,-20.401 2837.75,-13.5266"/>
</g>
<!-- Node7 -->
<g id="node13" class="node"><title>Node7</title>
<polygon fill="white" stroke="#bfbfbf" points="3400.63,-232.5 3400.63,-253.5 3472.63,-253.5 3472.63,-232.5 3400.63,-232.5"/>
<text text-anchor="middle" x="3436.63" y="-240.5" font-family="Helvetica,sans-Serif" font-size="10.00">cjson/json.h</text>
</g>
<!-- Node1&#45;&gt;Node7 -->
<g id="edge12" class="edge"><title>Node1&#45;&gt;Node7</title>
<path fill="none" stroke="midnightblue" d="M2900.95,-299.484C2989.18,-295.787 3202.6,-284.408 3390.33,-254.012"/>
<polygon fill="midnightblue" stroke="midnightblue" points="3391.08,-257.435 3400.38,-252.362 3389.94,-250.528 3391.08,-257.435"/>
</g>
<!-- Node8 -->
<g id="node15" class="node"><title>Node8</title>
<polygon fill="white" stroke="#bfbfbf" points="1395.13,-0.5 1395.13,-21.5 1438.13,-21.5 1438.13,-0.5 1395.13,-0.5"/>
<text text-anchor="middle" x="1416.63" y="-8.5" font-family="Helvetica,sans-Serif" font-size="10.00">string</text>
</g>
<!-- Node1&#45;&gt;Node8 -->
<g id="edge14" class="edge"><title>Node1&#45;&gt;Node8</title>
<path fill="none" stroke="midnightblue" d="M2818.54,-300.548C2582.38,-297.858 1395.75,-283.083 1031.63,-254 916.968,-244.842 518.629,-300.027 518.629,-185 518.629,-185 518.629,-185 518.629,-127 518.629,-50.7807 601.571,-76.0221 675.629,-58 813.318,-24.4932 1261.07,-13.8728 1384.73,-11.5422"/>
<polygon fill="midnightblue" stroke="midnightblue" points="1385.09,-15.0363 1395.03,-11.3534 1384.97,-8.03744 1385.09,-15.0363"/>
</g>
<!-- Node9 -->
<g id="node17" class="node"><title>Node9</title>
<polygon fill="white" stroke="#bfbfbf" points="3490.63,-232.5 3490.63,-253.5 3550.63,-253.5 3550.63,-232.5 3490.63,-232.5"/>
<text text-anchor="middle" x="3520.63" y="-240.5" font-family="Helvetica,sans-Serif" font-size="10.00">algorithm</text>
</g>
<!-- Node1&#45;&gt;Node9 -->
<g id="edge16" class="edge"><title>Node1&#45;&gt;Node9</title>
<path fill="none" stroke="midnightblue" d="M2900.95,-298.956C3018.02,-293 3351.19,-274.855 3480.49,-253.843"/>
<polygon fill="midnightblue" stroke="midnightblue" points="3481.26,-257.261 3490.53,-252.129 3480.09,-250.36 3481.26,-257.261"/>
</g>
<!-- Node10 -->
<g id="node19" class="node"><title>Node10</title>
<polygon fill="white" stroke="#bfbfbf" points="3568.63,-232.5 3568.63,-253.5 3622.63,-253.5 3622.63,-232.5 3568.63,-232.5"/>
<text text-anchor="middle" x="3595.63" y="-240.5" font-family="Helvetica,sans-Serif" font-size="10.00">memory</text>
</g>
<!-- Node1&#45;&gt;Node10 -->
<g id="edge18" class="edge"><title>Node1&#45;&gt;Node10</title>
<path fill="none" stroke="midnightblue" d="M2900.99,-299.47C3028.19,-294.573 3413.27,-278.269 3558.26,-253.84"/>
<polygon fill="midnightblue" stroke="midnightblue" points="3559.04,-257.257 3568.27,-252.067 3557.82,-250.364 3559.04,-257.257"/>
</g>
<!-- Node11 -->
<g id="node21" class="node"><title>Node11</title>
<polygon fill="white" stroke="#bfbfbf" points="3640.63,-232.5 3640.63,-253.5 3734.63,-253.5 3734.63,-232.5 3640.63,-232.5"/>
<text text-anchor="middle" x="3687.63" y="-240.5" font-family="Helvetica,sans-Serif" font-size="10.00">palmwebglobal.h</text>
</g>
<!-- Node1&#45;&gt;Node11 -->
<g id="edge20" class="edge"><title>Node1&#45;&gt;Node11</title>
<path fill="none" stroke="midnightblue" d="M2900.82,-300.42C3015.13,-298.399 3346.05,-289.772 3630.26,-254.03"/>
<polygon fill="midnightblue" stroke="midnightblue" points="3630.87,-257.481 3640.35,-252.747 3629.98,-250.537 3630.87,-257.481"/>
</g>
<!-- Node12 -->
<g id="node23" class="node"><title>Node12</title>
<polygon fill="white" stroke="#bfbfbf" points="1636.63,-58.5 1636.63,-79.5 1726.63,-79.5 1726.63,-58.5 1636.63,-58.5"/>
<text text-anchor="middle" x="1681.63" y="-66.5" font-family="Helvetica,sans-Serif" font-size="10.00">palmwebpage.h</text>
</g>
<!-- Node1&#45;&gt;Node12 -->
<g id="edge22" class="edge"><title>Node1&#45;&gt;Node12</title>
<path fill="none" stroke="midnightblue" d="M2845.46,-290.384C2800.12,-257.124 2653.42,-154.857 2513.63,-116 2363.13,-74.1663 1967.48,-90.5866 1811.63,-80 1787.02,-78.3285 1759.83,-76.0889 1736.7,-74.0668"/>
<polygon fill="midnightblue" stroke="midnightblue" points="1736.99,-70.5789 1726.72,-73.1859 1736.38,-77.5518 1736.99,-70.5789"/>
</g>
<!-- Node13 -->
<g id="node25" class="node"><title>Node13</title>
<polygon fill="white" stroke="#bfbfbf" points="3752.13,-232.5 3752.13,-253.5 3839.13,-253.5 3839.13,-232.5 3752.13,-232.5"/>
<text text-anchor="middle" x="3795.63" y="-240.5" font-family="Helvetica,sans-Serif" font-size="10.00">palmwebview.h</text>
</g>
<!-- Node1&#45;&gt;Node13 -->
<g id="edge24" class="edge"><title>Node1&#45;&gt;Node13</title>
<path fill="none" stroke="midnightblue" d="M2900.78,-299.662C3049.27,-294.705 3557.99,-276.564 3741.94,-254.021"/>
<polygon fill="midnightblue" stroke="midnightblue" points="3742.54,-257.473 3752.02,-252.738 3741.66,-250.529 3742.54,-257.473"/>
</g>
<!-- Node14 -->
<g id="node27" class="node"><title>Node14</title>
<polygon fill="white" stroke="#bfbfbf" points="2994.63,-0.5 2994.63,-21.5 3032.63,-21.5 3032.63,-0.5 2994.63,-0.5"/>
<text text-anchor="middle" x="3013.63" y="-8.5" font-family="Helvetica,sans-Serif" font-size="10.00">QUrl</text>
</g>
<!-- Node1&#45;&gt;Node14 -->
<g id="edge26" class="edge"><title>Node1&#45;&gt;Node14</title>
<path fill="none" stroke="midnightblue" d="M2900.78,-297.033C2969.7,-289.938 3105.2,-273.935 3148.63,-254 3191.92,-234.128 3230.63,-232.63 3230.63,-185 3230.63,-185 3230.63,-185 3230.63,-127 3230.63,-95.1919 3234.71,-79.8922 3211.63,-58 3157.49,-6.63899 3119.66,-41.5083 3047.63,-22 3045.98,-21.554 3044.3,-21.0769 3042.6,-20.5805"/>
<polygon fill="midnightblue" stroke="midnightblue" points="3043.54,-17.2069 3032.95,-17.6089 3041.48,-23.8969 3043.54,-17.2069"/>
</g>
<!-- Node15 -->
<g id="node29" class="node"><title>Node15</title>
<a xlink:href="ApplicationDescription_8h.htm" target="_top" xlink:title="ApplicationDescription.h">
<polygon fill="white" stroke="black" points="825.629,-116.5 825.629,-137.5 955.629,-137.5 955.629,-116.5 825.629,-116.5"/>
<text text-anchor="middle" x="890.629" y="-124.5" font-family="Helvetica,sans-Serif" font-size="10.00">ApplicationDescription.h</text>
</a>
</g>
<!-- Node1&#45;&gt;Node15 -->
<g id="edge28" class="edge"><title>Node1&#45;&gt;Node15</title>
<path fill="none" stroke="midnightblue" d="M2818.47,-300.54C2560.26,-297.578 1171.97,-280.465 1086.63,-254 1013.8,-231.413 942.199,-173.474 909.326,-144.313"/>
<polygon fill="midnightblue" stroke="midnightblue" points="911.599,-141.65 901.826,-137.559 906.914,-146.851 911.599,-141.65"/>
</g>
<!-- Node22 -->
<g id="node54" class="node"><title>Node22</title>
<a xlink:href="CmdResourceHandlers_8h.htm" target="_top" xlink:title="CmdResourceHandlers.h">
<polygon fill="white" stroke="red" points="1484.63,-58.5 1484.63,-79.5 1618.63,-79.5 1618.63,-58.5 1484.63,-58.5"/>
<text text-anchor="middle" x="1551.63" y="-66.5" font-family="Helvetica,sans-Serif" font-size="10.00">CmdResourceHandlers.h</text>
</a>
</g>
<!-- Node1&#45;&gt;Node22 -->
<g id="edge242" class="edge"><title>Node1&#45;&gt;Node22</title>
<path fill="none" stroke="midnightblue" d="M2818.38,-299.972C2647.73,-295.581 2001.75,-277.541 1913.63,-254 1776.05,-217.247 1630.47,-123.508 1574.96,-85.4416"/>
<polygon fill="midnightblue" stroke="midnightblue" points="1576.76,-82.4307 1566.55,-79.6211 1572.78,-88.1879 1576.76,-82.4307"/>
</g>
<!-- Node25 -->
<g id="node63" class="node"><title>Node25</title>
<a xlink:href="WebPage_8h.htm" target="_top" xlink:title="WebPage.h">
<polygon fill="white" stroke="black" points="420.129,-116.5 420.129,-137.5 491.129,-137.5 491.129,-116.5 420.129,-116.5"/>
<text text-anchor="middle" x="455.629" y="-124.5" font-family="Helvetica,sans-Serif" font-size="10.00">WebPage.h</text>
</a>
</g>
<!-- Node1&#45;&gt;Node25 -->
<g id="edge76" class="edge"><title>Node1&#45;&gt;Node25</title>
<path fill="none" stroke="midnightblue" d="M2818.19,-300.811C2507.53,-299.318 553.947,-288.562 504.629,-254 469.946,-229.694 459.809,-177.181 456.849,-147.864"/>
<polygon fill="midnightblue" stroke="midnightblue" points="460.308,-147.219 456.009,-137.536 453.331,-147.787 460.308,-147.219"/>
</g>
<!-- Node33 -->
<g id="node90" class="node"><title>Node33</title>
<a xlink:href="WebPageClient_8h.htm" target="_top" xlink:title="WebPageClient.h">
<polygon fill="white" stroke="black" points="2406.63,-116.5 2406.63,-137.5 2504.63,-137.5 2504.63,-116.5 2406.63,-116.5"/>
<text text-anchor="middle" x="2455.63" y="-124.5" font-family="Helvetica,sans-Serif" font-size="10.00">WebPageClient.h</text>
</a>
</g>
<!-- Node1&#45;&gt;Node33 -->
<g id="edge114" class="edge"><title>Node1&#45;&gt;Node33</title>
<path fill="none" stroke="midnightblue" d="M2821.31,-290.457C2791.32,-281.797 2748.77,-268.613 2712.63,-254 2626.73,-219.27 2529.85,-167.886 2483.39,-142.44"/>
<polygon fill="midnightblue" stroke="midnightblue" points="2484.97,-139.317 2474.52,-137.563 2481.6,-145.45 2484.97,-139.317"/>
</g>
<!-- Node35 -->
<g id="node98" class="node"><title>Node35</title>
<a xlink:href="Settings_8h.htm" target="_top" xlink:title="Settings.h">
<polygon fill="white" stroke="black" points="2444.13,-58.5 2444.13,-79.5 2507.13,-79.5 2507.13,-58.5 2444.13,-58.5"/>
<text text-anchor="middle" x="2475.63" y="-66.5" font-family="Helvetica,sans-Serif" font-size="10.00">Settings.h</text>
</a>
</g>
<!-- Node1&#45;&gt;Node35 -->
<g id="edge126" class="edge"><title>Node1&#45;&gt;Node35</title>
<path fill="none" stroke="midnightblue" d="M2854.21,-290.287C2835.79,-254.31 2774.88,-138.803 2740.63,-116 2731.38,-109.846 2589.67,-86.9037 2517.38,-75.5081"/>
<polygon fill="midnightblue" stroke="midnightblue" points="2517.66,-72.0098 2507.24,-73.914 2516.57,-78.9248 2517.66,-72.0098"/>
</g>
<!-- Node37 -->
<g id="node107" class="node"><title>Node37</title>
<a xlink:href="WebAppBase_8h.htm" target="_top" xlink:title="WebAppBase.h">
<polygon fill="white" stroke="red" points="1982.13,-174.5 1982.13,-195.5 2071.13,-195.5 2071.13,-174.5 1982.13,-174.5"/>
<text text-anchor="middle" x="2026.63" y="-182.5" font-family="Helvetica,sans-Serif" font-size="10.00">WebAppBase.h</text>
</a>
</g>
<!-- Node1&#45;&gt;Node37 -->
<g id="edge140" class="edge"><title>Node1&#45;&gt;Node37</title>
<path fill="none" stroke="midnightblue" d="M2818.48,-300.719C2665.55,-299.382 2135.33,-292.022 2070.63,-254 2052.34,-243.253 2040.42,-221.573 2033.66,-205.368"/>
<polygon fill="midnightblue" stroke="midnightblue" points="2036.79,-203.764 2029.95,-195.679 2030.26,-206.269 2036.79,-203.764"/>
</g>
<!-- Node38 -->
<g id="node114" class="node"><title>Node38</title>
<a xlink:href="WebAppManager_8h.htm" target="_top" xlink:title="WebAppManager.h">
<polygon fill="white" stroke="red" points="1820.13,-116.5 1820.13,-137.5 1927.13,-137.5 1927.13,-116.5 1820.13,-116.5"/>
<text text-anchor="middle" x="1873.63" y="-124.5" font-family="Helvetica,sans-Serif" font-size="10.00">WebAppManager.h</text>
</a>
</g>
<!-- Node1&#45;&gt;Node38 -->
<g id="edge182" class="edge"><title>Node1&#45;&gt;Node38</title>
<path fill="none" stroke="midnightblue" d="M2818.46,-300.024C2644.65,-295.762 1978.08,-277.911 1940.63,-254 1902.81,-229.852 1885.05,-176.874 1877.84,-147.547"/>
<polygon fill="midnightblue" stroke="midnightblue" points="1881.2,-146.55 1875.57,-137.575 1874.37,-148.102 1881.2,-146.55"/>
</g>
<!-- Node39 -->
<g id="node120" class="node"><title>Node39</title>
<a xlink:href="Event_8h.htm" target="_top" xlink:title="Event.h">
<polygon fill="white" stroke="red" points="3032.63,-58.5 3032.63,-79.5 3084.63,-79.5 3084.63,-58.5 3032.63,-58.5"/>
<text text-anchor="middle" x="3058.63" y="-66.5" font-family="Helvetica,sans-Serif" font-size="10.00">Event.h</text>
</a>
</g>
<!-- Node1&#45;&gt;Node39 -->
<g id="edge204" class="edge"><title>Node1&#45;&gt;Node39</title>
<path fill="none" stroke="midnightblue" d="M2868.7,-290.429C2899.91,-254.044 3003.14,-133.691 3042.86,-87.3818"/>
<polygon fill="midnightblue" stroke="midnightblue" points="3045.65,-89.5025 3049.51,-79.6335 3040.34,-84.9451 3045.65,-89.5025"/>
</g>
<!-- Node40 -->
<g id="node128" class="node"><title>Node40</title>
<a xlink:href="WebAppFactory_8h.htm" target="_top" xlink:title="WebAppFactory.h">
<polygon fill="white" stroke="red" points="1366.63,-58.5 1366.63,-79.5 1466.63,-79.5 1466.63,-58.5 1366.63,-58.5"/>
<text text-anchor="middle" x="1416.63" y="-66.5" font-family="Helvetica,sans-Serif" font-size="10.00">WebAppFactory.h</text>
</a>
</g>
<!-- Node1&#45;&gt;Node40 -->
<g id="edge176" class="edge"><title>Node1&#45;&gt;Node40</title>
<path fill="none" stroke="midnightblue" d="M2818.46,-299.97C2640.3,-295.395 1940.5,-276.158 1844.63,-254 1684.51,-216.993 1509.18,-122.336 1443.47,-84.7382"/>
<polygon fill="midnightblue" stroke="midnightblue" points="1444.99,-81.5783 1434.58,-79.6187 1441.5,-87.6437 1444.99,-81.5783"/>
</g>
<!-- Node41 -->
<g id="node133" class="node"><title>Node41</title>
<a xlink:href="Logging_8h.htm" target="_top" xlink:title="Logging.h">
<polygon fill="white" stroke="red" points="3140.13,-58.5 3140.13,-79.5 3203.13,-79.5 3203.13,-58.5 3140.13,-58.5"/>
<text text-anchor="middle" x="3171.63" y="-66.5" font-family="Helvetica,sans-Serif" font-size="10.00">Logging.h</text>
</a>
</g>
<!-- Node1&#45;&gt;Node41 -->
<g id="edge184" class="edge"><title>Node1&#45;&gt;Node41</title>
<path fill="none" stroke="midnightblue" d="M2900.63,-299.142C2967.2,-295.275 3094.57,-284.06 3126.63,-254 3172.94,-210.581 3175.09,-128.196 3173.28,-89.7412"/>
<polygon fill="midnightblue" stroke="midnightblue" points="3176.77,-89.4843 3172.66,-79.7172 3169.78,-89.9127 3176.77,-89.4843"/>
</g>
<!-- Node42 -->
<g id="node138" class="node"><title>Node42</title>
<a xlink:href="Utils_8h.htm" target="_top" xlink:title="Utils.h">
<polygon fill="white" stroke="red" points="2894.13,-58.5 2894.13,-79.5 2939.13,-79.5 2939.13,-58.5 2894.13,-58.5"/>
<text text-anchor="middle" x="2916.63" y="-66.5" font-family="Helvetica,sans-Serif" font-size="10.00">Utils.h</text>
</a>
</g>
<!-- Node1&#45;&gt;Node42 -->
<g id="edge192" class="edge"><title>Node1&#45;&gt;Node42</title>
<path fill="none" stroke="midnightblue" d="M2866,-290.155C2871.2,-280.853 2878.36,-266.942 2882.63,-254 2901.64,-196.321 2910.97,-124.81 2914.66,-90.0057"/>
<polygon fill="midnightblue" stroke="midnightblue" points="2918.18,-89.9825 2915.7,-79.6825 2911.21,-89.2821 2918.18,-89.9825"/>
</g>
<!-- Node43 -->
<g id="node146" class="node"><title>Node43</title>
<a xlink:href="Time_8h.htm" target="_top" xlink:title="Time.h">
<polygon fill="white" stroke="red" points="2632.63,-58.5 2632.63,-79.5 2680.63,-79.5 2680.63,-58.5 2632.63,-58.5"/>
<text text-anchor="middle" x="2656.63" y="-66.5" font-family="Helvetica,sans-Serif" font-size="10.00">Time.h</text>
</a>
</g>
<!-- Node1&#45;&gt;Node43 -->
<g id="edge206" class="edge"><title>Node1&#45;&gt;Node43</title>
<path fill="none" stroke="midnightblue" d="M2858.34,-290.169C2853.89,-258.016 2836.19,-162.476 2778.63,-116 2752.91,-95.2294 2716.96,-82.879 2690.75,-76.0913"/>
<polygon fill="midnightblue" stroke="midnightblue" points="2691.42,-72.6519 2680.87,-73.6756 2689.75,-79.4515 2691.42,-72.6519"/>
</g>
<!-- Node44 -->
<g id="node150" class="node"><title>Node44</title>
<a xlink:href="WebFrame_8h.htm" target="_top" xlink:title="WebFrame.h">
<polygon fill="white" stroke="red" points="1021.63,-116.5 1021.63,-137.5 1097.63,-137.5 1097.63,-116.5 1021.63,-116.5"/>
<text text-anchor="middle" x="1059.63" y="-124.5" font-family="Helvetica,sans-Serif" font-size="10.00">WebFrame.h</text>
</a>
</g>
<!-- Node1&#45;&gt;Node44 -->
<g id="edge212" class="edge"><title>Node1&#45;&gt;Node44</title>
<path fill="none" stroke="midnightblue" d="M2818.22,-300.508C2557.07,-297.331 1147.89,-279.046 1111.63,-254 1076.34,-229.625 1064.97,-176.738 1061.33,-147.487"/>
<polygon fill="midnightblue" stroke="midnightblue" points="1064.81,-147.118 1060.28,-137.542 1057.85,-147.854 1064.81,-147.118"/>
</g>
<!-- Node45 -->
<g id="node155" class="node"><title>Node45</title>
<a xlink:href="WindowedWebApp_8h.htm" target="_top" xlink:title="WindowedWebApp.h">
<polygon fill="white" stroke="red" points="2079.63,-232.5 2079.63,-253.5 2193.63,-253.5 2193.63,-232.5 2079.63,-232.5"/>
<text text-anchor="middle" x="2136.63" y="-240.5" font-family="Helvetica,sans-Serif" font-size="10.00">WindowedWebApp.h</text>
</a>
</g>
<!-- Node1&#45;&gt;Node45 -->
<g id="edge220" class="edge"><title>Node1&#45;&gt;Node45</title>
<path fill="none" stroke="midnightblue" d="M2818.42,-297.694C2698.92,-288.107 2351.34,-260.225 2203.96,-248.401"/>
<polygon fill="midnightblue" stroke="midnightblue" points="2203.94,-244.889 2193.7,-247.578 2203.38,-251.866 2203.94,-244.889"/>
</g>
<!-- Node46 -->
<g id="node163" class="node"><title>Node46</title>
<a xlink:href="ProcessManager_8h.htm" target="_top" xlink:title="ProcessManager.h">
<polygon fill="white" stroke="red" points="1964.63,-58.5 1964.63,-79.5 2070.63,-79.5 2070.63,-58.5 1964.63,-58.5"/>
<text text-anchor="middle" x="2017.63" y="-66.5" font-family="Helvetica,sans-Serif" font-size="10.00">ProcessManager.h</text>
</a>
</g>
<!-- Node1&#45;&gt;Node46 -->
<g id="edge234" class="edge"><title>Node1&#45;&gt;Node46</title>
<path fill="none" stroke="midnightblue" d="M2818.48,-300.132C2662.95,-296.648 2116.01,-282.469 2043.63,-254 2006.03,-239.212 1990.82,-232.564 1973.63,-196 1956.22,-158.975 1983.3,-113.095 2002.09,-87.8561"/>
<polygon fill="midnightblue" stroke="midnightblue" points="2004.95,-89.8859 2008.3,-79.8379 1999.41,-85.5975 2004.95,-89.8859"/>
</g>
<!-- Node47 -->
<g id="node169" class="node"><title>Node47</title>
<a xlink:href="NewContentIndicatorEventFactory_8h.htm" target="_top" xlink:title="NewContentIndicatorEventFactory.h">
<polygon fill="white" stroke="red" points="2164.13,-58.5 2164.13,-79.5 2351.13,-79.5 2351.13,-58.5 2164.13,-58.5"/>
<text text-anchor="middle" x="2257.63" y="-66.5" font-family="Helvetica,sans-Serif" font-size="10.00">NewContentIndicatorEventFactory.h</text>
</a>
</g>
<!-- Node1&#45;&gt;Node47 -->
<g id="edge244" class="edge"><title>Node1&#45;&gt;Node47</title>
<path fill="none" stroke="midnightblue" d="M2818.49,-299.333C2729.85,-295.232 2523.77,-282.814 2460.63,-254 2375.49,-215.145 2301.58,-127.13 2271.72,-88.1706"/>
<polygon fill="midnightblue" stroke="midnightblue" points="2274.22,-85.674 2265.41,-79.7971 2268.64,-89.8887 2274.22,-85.674"/>
</g>
<!-- Node48 -->
<g id="node174" class="node"><title>Node48</title>
<a xlink:href="WebKitSensorConnector_8h.htm" target="_top" xlink:title="WebKitSensorConnector.h">
<polygon fill="white" stroke="black" points="2736.13,-58.5 2736.13,-79.5 2877.13,-79.5 2877.13,-58.5 2736.13,-58.5"/>
<text text-anchor="middle" x="2806.63" y="-66.5" font-family="Helvetica,sans-Serif" font-size="10.00">WebKitSensorConnector.h</text>
</a>
</g>
<!-- Node1&#45;&gt;Node48 -->
<g id="edge252" class="edge"><title>Node1&#45;&gt;Node48</title>
<path fill="none" stroke="midnightblue" d="M2861.99,-290.387C2867.95,-261.098 2881.36,-177.252 2854.63,-116 2849.51,-104.26 2839.94,-93.9426 2830.7,-85.9881"/>
<polygon fill="midnightblue" stroke="midnightblue" points="2832.76,-83.1559 2822.77,-79.6297 2828.38,-88.6166 2832.76,-83.1559"/>
</g>
<!-- Node49 -->
<g id="node180" class="node"><title>Node49</title>
<polygon fill="white" stroke="#bfbfbf" points="3856.13,-232.5 3856.13,-253.5 3981.13,-253.5 3981.13,-232.5 3856.13,-232.5"/>
<text text-anchor="middle" x="3918.63" y="-240.5" font-family="Helvetica,sans-Serif" font-size="10.00">PIpcMessageMacros.h</text>
</g>
<!-- Node1&#45;&gt;Node49 -->
<g id="edge262" class="edge"><title>Node1&#45;&gt;Node49</title>
<path fill="none" stroke="midnightblue" d="M2900.68,-300.606C3034.99,-298.989 3473.56,-291.102 3845.79,-254.099"/>
<polygon fill="midnightblue" stroke="midnightblue" points="3846.36,-257.56 3855.96,-253.079 3845.66,-250.595 3846.36,-257.56"/>
</g>
<!-- Node50 -->
<g id="node182" class="node"><title>Node50</title>
<polygon fill="white" stroke="#bfbfbf" points="3998.63,-232.5 3998.63,-253.5 4100.63,-253.5 4100.63,-232.5 3998.63,-232.5"/>
<text text-anchor="middle" x="4049.63" y="-240.5" font-family="Helvetica,sans-Serif" font-size="10.00">openssl/blowfish.h</text>
</g>
<!-- Node1&#45;&gt;Node50 -->
<g id="edge264" class="edge"><title>Node1&#45;&gt;Node50</title>
<path fill="none" stroke="midnightblue" d="M2900.87,-300.058C3075.06,-295.962 3752.06,-278.833 3988.08,-254.008"/>
<polygon fill="midnightblue" stroke="midnightblue" points="3988.75,-257.456 3998.31,-252.895 3987.99,-250.497 3988.75,-257.456"/>
</g>
<!-- Node15&#45;&gt;Node2 -->
<g id="edge30" class="edge"><title>Node15&#45;&gt;Node2</title>
<path fill="none" stroke="midnightblue" d="M907.808,-116.24C937.643,-97.6483 996.889,-61.181 1007.63,-58 1109.1,-27.9469 1863.5,-14.5644 2054.69,-11.6343"/>
<polygon fill="midnightblue" stroke="midnightblue" points="2054.97,-15.1305 2064.92,-11.4793 2054.87,-8.13128 2054.97,-15.1305"/>
</g>
<!-- Node15&#45;&gt;Node8 -->
<g id="edge32" class="edge"><title>Node15&#45;&gt;Node8</title>
<path fill="none" stroke="midnightblue" d="M825.567,-124.52C751.576,-119.486 646.292,-104.23 689.629,-58 713.737,-32.2831 1247.31,-15.7106 1384.63,-11.8614"/>
<polygon fill="midnightblue" stroke="midnightblue" points="1385,-15.3526 1394.9,-11.5767 1384.81,-8.35532 1385,-15.3526"/>
</g>
<!-- Node16 -->
<g id="node33" class="node"><title>Node16</title>
<polygon fill="white" stroke="#bfbfbf" points="2597.63,-0.5 2597.63,-21.5 2647.63,-21.5 2647.63,-0.5 2597.63,-0.5"/>
<text text-anchor="middle" x="2622.63" y="-8.5" font-family="Helvetica,sans-Serif" font-size="10.00">stdint.h</text>
</g>
<!-- Node15&#45;&gt;Node16 -->
<g id="edge34" class="edge"><title>Node15&#45;&gt;Node16</title>
<path fill="none" stroke="midnightblue" d="M955.785,-120.324C974.151,-118.66 994.158,-117.053 1012.63,-116 1179.41,-106.494 2355.96,-129.103 2515.63,-80 2524.72,-77.2031 2569.99,-46.953 2598.66,-27.4454"/>
<polygon fill="midnightblue" stroke="midnightblue" points="2600.67,-30.3061 2606.96,-21.7785 2596.73,-24.524 2600.67,-30.3061"/>
</g>
<!-- Node17 -->
<g id="node35" class="node"><title>Node17</title>
<polygon fill="white" stroke="#bfbfbf" points="541.129,-0.5 541.129,-21.5 572.129,-21.5 572.129,-0.5 541.129,-0.5"/>
<text text-anchor="middle" x="556.629" y="-8.5" font-family="Helvetica,sans-Serif" font-size="10.00">set</text>
</g>
<!-- Node15&#45;&gt;Node17 -->
<g id="edge36" class="edge"><title>Node15&#45;&gt;Node17</title>
<path fill="none" stroke="midnightblue" d="M825.385,-120.69C756.536,-113.164 653.284,-99.1547 618.629,-80 597.303,-68.2122 579.528,-46.2552 568.556,-30.2674"/>
<polygon fill="midnightblue" stroke="midnightblue" points="571.322,-28.1029 562.907,-21.6659 565.471,-31.9457 571.322,-28.1029"/>
</g>
<!-- Node18 -->
<g id="node37" class="node"><title>Node18</title>
<polygon fill="white" stroke="#bfbfbf" points="428.129,-0.5 428.129,-21.5 457.129,-21.5 457.129,-0.5 428.129,-0.5"/>
<text text-anchor="middle" x="442.629" y="-8.5" font-family="Helvetica,sans-Serif" font-size="10.00">list</text>
</g>
<!-- Node15&#45;&gt;Node18 -->
<g id="edge38" class="edge"><title>Node15&#45;&gt;Node18</title>
<path fill="none" stroke="midnightblue" d="M825.568,-122.396C763.365,-116.72 667.497,-104.62 587.629,-80 542.826,-66.1888 494.313,-40.7467 466.299,-24.915"/>
<polygon fill="midnightblue" stroke="midnightblue" points="467.702,-21.6849 457.285,-19.7508 464.222,-27.7587 467.702,-21.6849"/>
</g>
<!-- Node19 -->
<g id="node39" class="node"><title>Node19</title>
<a xlink:href="GraphicsDefs_8h.htm" target="_top" xlink:title="GraphicsDefs.h">
<polygon fill="white" stroke="red" points="1820.13,-58.5 1820.13,-79.5 1909.13,-79.5 1909.13,-58.5 1820.13,-58.5"/>
<text text-anchor="middle" x="1864.63" y="-66.5" font-family="Helvetica,sans-Serif" font-size="10.00">GraphicsDefs.h</text>
</a>
</g>
<!-- Node15&#45;&gt;Node19 -->
<g id="edge40" class="edge"><title>Node15&#45;&gt;Node19</title>
<path fill="none" stroke="midnightblue" d="M955.805,-120.636C974.171,-118.975 994.173,-117.291 1012.63,-116 1333.58,-93.5498 1414.63,-101.671 1735.63,-80 1759.94,-78.3588 1786.79,-76.1353 1809.67,-74.1168"/>
<polygon fill="midnightblue" stroke="midnightblue" points="1810.23,-77.5807 1819.88,-73.2066 1809.61,-70.6084 1810.23,-77.5807"/>
</g>
<!-- Node20 -->
<g id="node42" class="node"><title>Node20</title>
<a xlink:href="LaunchPoint_8h.htm" target="_top" xlink:title="LaunchPoint.h">
<polygon fill="white" stroke="red" points="802.129,-58.5 802.129,-79.5 885.129,-79.5 885.129,-58.5 802.129,-58.5"/>
<text text-anchor="middle" x="843.629" y="-66.5" font-family="Helvetica,sans-Serif" font-size="10.00">LaunchPoint.h</text>
</a>
</g>
<!-- Node15&#45;&gt;Node20 -->
<g id="edge44" class="edge"><title>Node15&#45;&gt;Node20</title>
<path fill="none" stroke="midnightblue" d="M882.009,-116.362C875.45,-108.268 866.264,-96.9318 858.523,-87.3796"/>
<polygon fill="midnightblue" stroke="midnightblue" points="861.21,-85.1364 852.195,-79.5707 855.772,-89.5436 861.21,-85.1364"/>
</g>
<!-- Node21 -->
<g id="node48" class="node"><title>Node21</title>
<a xlink:href="KeywordMap_8h.htm" target="_top" xlink:title="KeywordMap.h">
<polygon fill="white" stroke="black" points="698.129,-58.5 698.129,-79.5 785.129,-79.5 785.129,-58.5 698.129,-58.5"/>
<text text-anchor="middle" x="741.629" y="-66.5" font-family="Helvetica,sans-Serif" font-size="10.00">KeywordMap.h</text>
</a>
</g>
<!-- Node15&#45;&gt;Node21 -->
<g id="edge54" class="edge"><title>Node15&#45;&gt;Node21</title>
<path fill="none" stroke="midnightblue" d="M863.647,-116.497C839.776,-107.205 804.736,-93.5649 778.322,-83.2832"/>
<polygon fill="midnightblue" stroke="midnightblue" points="779.251,-79.889 768.663,-79.5231 776.712,-86.4122 779.251,-79.889"/>
</g>
<!-- Node15&#45;&gt;Node22 -->
<g id="edge64" class="edge"><title>Node15&#45;&gt;Node22</title>
<path fill="none" stroke="midnightblue" d="M955.831,-120.972C974.197,-119.314 994.192,-117.548 1012.63,-116 1214.99,-99.0106 1268.77,-102.67 1474.3,-80.0891"/>
<polygon fill="midnightblue" stroke="midnightblue" points="1474.97,-83.5367 1484.52,-78.9583 1474.2,-76.5792 1474.97,-83.5367"/>
</g>
<!-- Node19&#45;&gt;Node2 -->
<g id="edge42" class="edge"><title>Node19&#45;&gt;Node2</title>
<path fill="none" stroke="midnightblue" d="M1907.01,-58.4966C1948.95,-48.1004 2012.85,-32.261 2055.17,-21.7721"/>
<polygon fill="midnightblue" stroke="midnightblue" points="2056.04,-25.1613 2064.91,-19.3582 2054.36,-18.3669 2056.04,-25.1613"/>
</g>
<!-- Node20&#45;&gt;Node2 -->
<g id="edge46" class="edge"><title>Node20&#45;&gt;Node2</title>
<path fill="none" stroke="midnightblue" d="M885.227,-63.3839C901.264,-61.4016 919.774,-59.3357 936.629,-58 1371.5,-23.5388 1900.05,-13.7683 2054.37,-11.5586"/>
<polygon fill="midnightblue" stroke="midnightblue" points="2054.88,-15.0519 2064.83,-11.4123 2054.78,-8.05258 2054.88,-15.0519"/>
</g>
<!-- Node20&#45;&gt;Node6 -->
<g id="edge52" class="edge"><title>Node20&#45;&gt;Node6</title>
<path fill="none" stroke="midnightblue" d="M885.393,-65.6768C918.519,-63.167 966.008,-59.8492 1007.63,-58 1739.97,-25.4624 1924.39,-56.8185 2656.63,-22 2697.75,-20.0449 2745.1,-16.3265 2775.42,-13.7579"/>
<polygon fill="midnightblue" stroke="midnightblue" points="2776.12,-17.2113 2785.78,-12.8689 2775.52,-10.237 2776.12,-17.2113"/>
</g>
<!-- Node20&#45;&gt;Node8 -->
<g id="edge48" class="edge"><title>Node20&#45;&gt;Node8</title>
<path fill="none" stroke="midnightblue" d="M885.29,-60.1812C889.781,-59.376 894.293,-58.6286 898.629,-58 1081.66,-31.4716 1303.37,-17.3083 1384.73,-12.7044"/>
<polygon fill="midnightblue" stroke="midnightblue" points="1385.03,-16.193 1394.82,-12.1418 1384.64,-9.20381 1385.03,-16.193"/>
</g>
<!-- Node20&#45;&gt;Node18 -->
<g id="edge50" class="edge"><title>Node20&#45;&gt;Node18</title>
<path fill="none" stroke="midnightblue" d="M801.939,-59.5555C799.132,-59.0038 796.343,-58.4793 793.629,-58 730.269,-46.8084 535.888,-22.4998 467.081,-14.0039"/>
<polygon fill="midnightblue" stroke="midnightblue" points="467.509,-10.5302 457.156,-12.7806 466.652,-17.4776 467.509,-10.5302"/>
</g>
<!-- Node21&#45;&gt;Node2 -->
<g id="edge56" class="edge"><title>Node21&#45;&gt;Node2</title>
<path fill="none" stroke="midnightblue" d="M785.23,-59.207C788.064,-58.747 790.882,-58.3375 793.629,-58 1045.92,-27.0078 1857.5,-14.2487 2055,-11.5597"/>
<polygon fill="midnightblue" stroke="midnightblue" points="2055.05,-15.0594 2065,-11.425 2054.96,-8.06006 2055.05,-15.0594"/>
</g>
<!-- Node21&#45;&gt;Node6 -->
<g id="edge62" class="edge"><title>Node21&#45;&gt;Node6</title>
<path fill="none" stroke="midnightblue" d="M785.224,-59.1534C788.059,-58.7065 790.879,-58.3146 793.629,-58 1205.02,-10.9413 2243,-41.1491 2656.63,-22 2697.75,-20.0964 2745.1,-16.3661 2775.43,-13.7807"/>
<polygon fill="midnightblue" stroke="midnightblue" points="2776.12,-17.2337 2785.78,-12.8855 2775.52,-10.2597 2776.12,-17.2337"/>
</g>
<!-- Node21&#45;&gt;Node8 -->
<g id="edge58" class="edge"><title>Node21&#45;&gt;Node8</title>
<path fill="none" stroke="midnightblue" d="M785.247,-59.333C788.077,-58.8422 790.889,-58.3915 793.629,-58 1018.8,-25.8368 1293.1,-14.8295 1384.96,-11.8999"/>
<polygon fill="midnightblue" stroke="midnightblue" points="1385.11,-15.397 1395,-11.5891 1384.89,-8.40033 1385.11,-15.397"/>
</g>
<!-- Node21&#45;&gt;Node18 -->
<g id="edge60" class="edge"><title>Node21&#45;&gt;Node18</title>
<path fill="none" stroke="midnightblue" d="M697.832,-60.5042C634.06,-48.1337 517.75,-25.5719 467.189,-15.7642"/>
<polygon fill="midnightblue" stroke="midnightblue" points="467.652,-12.2887 457.168,-13.8203 466.319,-19.1606 467.652,-12.2887"/>
</g>
<!-- Node22&#45;&gt;Node2 -->
<g id="edge66" class="edge"><title>Node22&#45;&gt;Node2</title>
<path fill="none" stroke="midnightblue" d="M1618.74,-59.1215C1621.75,-58.7316 1624.72,-58.3558 1627.63,-58 1784.47,-38.8339 1971.41,-21.9447 2054.76,-14.7241"/>
<polygon fill="midnightblue" stroke="midnightblue" points="2055.21,-18.198 2064.88,-13.8512 2054.61,-11.224 2055.21,-18.198"/>
</g>
<!-- Node22&#45;&gt;Node8 -->
<g id="edge70" class="edge"><title>Node22&#45;&gt;Node8</title>
<path fill="none" stroke="midnightblue" d="M1527.18,-58.4966C1504.88,-48.9137 1471.81,-34.706 1447.65,-24.3269"/>
<polygon fill="midnightblue" stroke="midnightblue" points="1448.79,-21.0087 1438.22,-20.277 1446.03,-27.4402 1448.79,-21.0087"/>
</g>
<!-- Node22&#45;&gt;Node16 -->
<g id="edge68" class="edge"><title>Node22&#45;&gt;Node16</title>
<path fill="none" stroke="midnightblue" d="M1618.72,-58.9064C1621.73,-58.5748 1624.71,-58.27 1627.63,-58 2020.06,-21.7253 2120.51,-49.7979 2513.63,-22 2538.3,-20.2556 2566.03,-17.4453 2587.35,-15.102"/>
<polygon fill="midnightblue" stroke="midnightblue" points="2588.01,-18.5501 2597.56,-13.9616 2587.23,-11.5934 2588.01,-18.5501"/>
</g>
<!-- Node23 -->
<g id="node59" class="node"><title>Node23</title>
<polygon fill="white" stroke="#bfbfbf" points="2266.63,-0.5 2266.63,-21.5 2312.63,-21.5 2312.63,-0.5 2266.63,-0.5"/>
<text text-anchor="middle" x="2289.63" y="-8.5" font-family="Helvetica,sans-Serif" font-size="10.00">vector</text>
</g>
<!-- Node22&#45;&gt;Node23 -->
<g id="edge72" class="edge"><title>Node22&#45;&gt;Node23</title>
<path fill="none" stroke="midnightblue" d="M1618.73,-59.0142C1621.74,-58.6533 1624.71,-58.3129 1627.63,-58 1854.89,-33.6135 1912.66,-38.4139 2140.63,-22 2180.44,-19.134 2226.21,-15.7396 2256.41,-13.4872"/>
<polygon fill="midnightblue" stroke="midnightblue" points="2256.69,-16.9759 2266.4,-12.7409 2256.17,-9.99536 2256.69,-16.9759"/>
</g>
<!-- Node24 -->
<g id="node61" class="node"><title>Node24</title>
<polygon fill="white" stroke="#bfbfbf" points="614.129,-0.5 614.129,-21.5 651.129,-21.5 651.129,-0.5 614.129,-0.5"/>
<text text-anchor="middle" x="632.629" y="-8.5" font-family="Helvetica,sans-Serif" font-size="10.00">map</text>
</g>
<!-- Node22&#45;&gt;Node24 -->
<g id="edge74" class="edge"><title>Node22&#45;&gt;Node24</title>
<path fill="none" stroke="midnightblue" d="M1484.53,-58.9616C1481.53,-58.615 1478.55,-58.292 1475.63,-58 1157.3,-26.1513 769.021,-14.4462 661.444,-11.6868"/>
<polygon fill="midnightblue" stroke="midnightblue" points="661.452,-8.18605 651.367,-11.4338 661.276,-15.1838 661.452,-8.18605"/>
</g>
<!-- Node25&#45;&gt;Node2 -->
<g id="edge78" class="edge"><title>Node25&#45;&gt;Node2</title>
<path fill="none" stroke="midnightblue" d="M491.179,-125.471C566.218,-121.746 746.022,-110.186 893.629,-80 926.411,-73.296 932.646,-63.628 965.629,-58 1180.76,-21.2923 1873.06,-12.914 2054.67,-11.3281"/>
<polygon fill="midnightblue" stroke="midnightblue" points="2054.94,-14.8261 2064.91,-11.2412 2054.88,-7.8263 2054.94,-14.8261"/>
</g>
<!-- Node25&#45;&gt;Node8 -->
<g id="edge80" class="edge"><title>Node25&#45;&gt;Node8</title>
<path fill="none" stroke="midnightblue" d="M459.671,-116.264C466.314,-100.319 481.193,-70.8761 504.629,-58 543.939,-36.4029 1226.52,-16.2588 1384.28,-11.878"/>
<polygon fill="midnightblue" stroke="midnightblue" points="1384.81,-15.3646 1394.71,-11.59 1384.62,-8.36727 1384.81,-15.3646"/>
</g>
<!-- Node25&#45;&gt;Node12 -->
<g id="edge88" class="edge"><title>Node25&#45;&gt;Node12</title>
<path fill="none" stroke="midnightblue" d="M491.393,-125.909C671.042,-120.385 1472.11,-95.2046 1626.02,-79.905"/>
<polygon fill="midnightblue" stroke="midnightblue" points="1626.78,-83.3428 1636.34,-78.7754 1626.02,-76.3844 1626.78,-83.3428"/>
</g>
<!-- Node25&#45;&gt;Node17 -->
<g id="edge86" class="edge"><title>Node25&#45;&gt;Node17</title>
<path fill="none" stroke="midnightblue" d="M420.119,-125.783C321.851,-122.053 51.8245,-109.214 25.6294,-80 19.1019,-72.7201 19.0034,-65.1903 25.6294,-58 58.8703,-21.9283 416.827,-26.9442 465.629,-22 487.629,-19.7712 512.555,-16.7213 530.751,-14.3982"/>
<polygon fill="midnightblue" stroke="midnightblue" points="531.398,-17.8438 540.868,-13.0928 530.502,-10.9013 531.398,-17.8438"/>
</g>
<!-- Node25&#45;&gt;Node18 -->
<g id="edge82" class="edge"><title>Node25&#45;&gt;Node18</title>
<path fill="none" stroke="midnightblue" d="M431.198,-116.473C416.531,-108.715 399.12,-96.617 390.629,-80 380.131,-59.4526 401.025,-38.6848 419.375,-25.3806"/>
<polygon fill="midnightblue" stroke="midnightblue" points="421.738,-28.0062 428.03,-19.4827 417.796,-22.2215 421.738,-28.0062"/>
</g>
<!-- Node25&#45;&gt;Node24 -->
<g id="edge84" class="edge"><title>Node25&#45;&gt;Node24</title>
<path fill="none" stroke="midnightblue" d="M454.102,-116.433C452.575,-101.499 452.206,-74.2311 466.629,-58 475.862,-47.6101 558.978,-27.5776 603.981,-17.3481"/>
<polygon fill="midnightblue" stroke="midnightblue" points="605.027,-20.7003 614.012,-15.0868 603.487,-13.8717 605.027,-20.7003"/>
</g>
<!-- Node26 -->
<g id="node71" class="node"><title>Node26</title>
<polygon fill="white" stroke="#bfbfbf" points="110.129,-58.5 110.129,-79.5 225.129,-79.5 225.129,-58.5 110.129,-58.5"/>
<text text-anchor="middle" x="167.629" y="-66.5" font-family="Helvetica,sans-Serif" font-size="10.00">palmwebpageclient.h</text>
</g>
<!-- Node25&#45;&gt;Node26 -->
<g id="edge90" class="edge"><title>Node25&#45;&gt;Node26</title>
<path fill="none" stroke="midnightblue" d="M420.026,-119.83C372.678,-110.295 288.219,-93.2854 230.134,-81.5877"/>
<polygon fill="midnightblue" stroke="midnightblue" points="230.464,-78.0841 219.97,-79.5409 229.082,-84.9463 230.464,-78.0841"/>
</g>
<!-- Node27 -->
<g id="node73" class="node"><title>Node27</title>
<polygon fill="white" stroke="#bfbfbf" points="1120.63,-58.5 1120.63,-79.5 1232.63,-79.5 1232.63,-58.5 1120.63,-58.5"/>
<text text-anchor="middle" x="1176.63" y="-66.5" font-family="Helvetica,sans-Serif" font-size="10.00">palmwebviewclient.h</text>
</g>
<!-- Node25&#45;&gt;Node27 -->
<g id="edge92" class="edge"><title>Node25&#45;&gt;Node27</title>
<path fill="none" stroke="midnightblue" d="M491.299,-125.651C588.791,-121.707 868.053,-108.695 1110.26,-80.0713"/>
<polygon fill="midnightblue" stroke="midnightblue" points="1110.79,-83.5324 1120.31,-78.872 1109.96,-76.5817 1110.79,-83.5324"/>
</g>
<!-- Node28 -->
<g id="node75" class="node"><title>Node28</title>
<polygon fill="white" stroke="#bfbfbf" points="242.629,-58.5 242.629,-79.5 338.629,-79.5 338.629,-58.5 242.629,-58.5"/>
<text text-anchor="middle" x="290.629" y="-66.5" font-family="Helvetica,sans-Serif" font-size="10.00">palmwebsslinfo.h</text>
</g>
<!-- Node25&#45;&gt;Node28 -->
<g id="edge94" class="edge"><title>Node25&#45;&gt;Node28</title>
<path fill="none" stroke="midnightblue" d="M425.749,-116.497C398.966,-107.082 359.485,-93.2036 330.108,-82.8773"/>
<polygon fill="midnightblue" stroke="midnightblue" points="331.161,-79.5374 320.566,-79.5231 328.839,-86.1413 331.161,-79.5374"/>
</g>
<!-- Node29 -->
<g id="node77" class="node"><title>Node29</title>
<a xlink:href="ProcessBase_8h.htm" target="_top" xlink:title="ProcessBase.h">
<polygon fill="white" stroke="black" points="1016.13,-58.5 1016.13,-79.5 1103.13,-79.5 1103.13,-58.5 1016.13,-58.5"/>
<text text-anchor="middle" x="1059.63" y="-66.5" font-family="Helvetica,sans-Serif" font-size="10.00">ProcessBase.h</text>
</a>
</g>
<!-- Node25&#45;&gt;Node29 -->
<g id="edge96" class="edge"><title>Node25&#45;&gt;Node29</title>
<path fill="none" stroke="midnightblue" d="M491.14,-124.007C574.083,-116.952 786.991,-98.4832 964.629,-80 977.921,-78.617 992.245,-77.0164 1005.64,-75.4717"/>
<polygon fill="midnightblue" stroke="midnightblue" points="1006.14,-78.9373 1015.67,-74.3058 1005.33,-71.9841 1006.14,-78.9373"/>
</g>
<!-- Node30 -->
<g id="node81" class="node"><title>Node30</title>
<a xlink:href="Timer_8h.htm" target="_top" xlink:title="Timer.h">
<polygon fill="white" stroke="black" points="2562.63,-58.5 2562.63,-79.5 2614.63,-79.5 2614.63,-58.5 2562.63,-58.5"/>
<text text-anchor="middle" x="2588.63" y="-66.5" font-family="Helvetica,sans-Serif" font-size="10.00">Timer.h</text>
</a>
</g>
<!-- Node25&#45;&gt;Node30 -->
<g id="edge102" class="edge"><title>Node25&#45;&gt;Node30</title>
<path fill="none" stroke="midnightblue" d="M491.238,-125.805C555.995,-123.657 697.377,-119.08 816.629,-116 1571.66,-96.4981 1763.1,-144.402 2515.63,-80 2527.68,-78.9688 2540.76,-77.2033 2552.48,-75.3849"/>
<polygon fill="midnightblue" stroke="midnightblue" points="2553.06,-78.838 2562.37,-73.7905 2551.94,-71.9273 2553.06,-78.838"/>
</g>
<!-- Node31 -->
<g id="node86" class="node"><title>Node31</title>
<polygon fill="white" stroke="#bfbfbf" points="34.1294,-58.5 34.1294,-79.5 93.1294,-79.5 93.1294,-58.5 34.1294,-58.5"/>
<text text-anchor="middle" x="63.6294" y="-66.5" font-family="Helvetica,sans-Serif" font-size="10.00">QVariant</text>
</g>
<!-- Node25&#45;&gt;Node31 -->
<g id="edge110" class="edge"><title>Node25&#45;&gt;Node31</title>
<path fill="none" stroke="midnightblue" d="M419.908,-124.041C357.46,-118.485 224.304,-104.933 103.547,-80.1867"/>
<polygon fill="midnightblue" stroke="midnightblue" points="103.897,-76.6847 93.3939,-78.073 102.471,-83.5377 103.897,-76.6847"/>
</g>
<!-- Node32 -->
<g id="node88" class="node"><title>Node32</title>
<polygon fill="white" stroke="#bfbfbf" points="1250.63,-58.5 1250.63,-79.5 1348.63,-79.5 1348.63,-58.5 1250.63,-58.5"/>
<text text-anchor="middle" x="1299.63" y="-66.5" font-family="Helvetica,sans-Serif" font-size="10.00">palmimedefines.h</text>
</g>
<!-- Node25&#45;&gt;Node32 -->
<g id="edge112" class="edge"><title>Node25&#45;&gt;Node32</title>
<path fill="none" stroke="midnightblue" d="M491.423,-126.485C601.657,-124.554 945.843,-115.961 1240.32,-80.0273"/>
<polygon fill="midnightblue" stroke="midnightblue" points="1240.84,-83.49 1250.34,-78.7923 1239.98,-76.5426 1240.84,-83.49"/>
</g>
<!-- Node29&#45;&gt;Node2 -->
<g id="edge98" class="edge"><title>Node29&#45;&gt;Node2</title>
<path fill="none" stroke="midnightblue" d="M1103.24,-59.2441C1106.07,-58.7751 1108.88,-58.3534 1111.63,-58 1297.99,-34.0097 1888.15,-16.6612 2054.56,-12.1546"/>
<polygon fill="midnightblue" stroke="midnightblue" points="2055,-15.6442 2064.9,-11.8764 2054.81,-8.64672 2055,-15.6442"/>
</g>
<!-- Node29&#45;&gt;Node8 -->
<g id="edge100" class="edge"><title>Node29&#45;&gt;Node8</title>
<path fill="none" stroke="midnightblue" d="M1103.29,-59.5809C1106.11,-59.0294 1108.91,-58.4975 1111.63,-58 1210.94,-39.8579 1329.31,-22.9585 1384.86,-15.3021"/>
<polygon fill="midnightblue" stroke="midnightblue" points="1385.68,-18.7227 1395.11,-13.8964 1384.73,-11.7876 1385.68,-18.7227"/>
</g>
<!-- Node30&#45;&gt;Node2 -->
<g id="edge104" class="edge"><title>Node30&#45;&gt;Node2</title>
<path fill="none" stroke="midnightblue" d="M2562.31,-64.7911C2548.44,-62.6348 2531.13,-60.0409 2515.63,-58 2379.73,-40.1083 2218.34,-23.1281 2142.34,-15.3841"/>
<polygon fill="midnightblue" stroke="midnightblue" points="2142.5,-11.8821 2132.19,-14.3535 2141.79,-18.8462 2142.5,-11.8821"/>
</g>
<!-- Node30&#45;&gt;Node6 -->
<g id="edge106" class="edge"><title>Node30&#45;&gt;Node6</title>
<path fill="none" stroke="midnightblue" d="M2614.96,-60.5608C2617.88,-59.6741 2620.81,-58.8039 2623.63,-58 2676.88,-42.8041 2739.49,-27.2092 2775.95,-18.351"/>
<polygon fill="midnightblue" stroke="midnightblue" points="2777.05,-21.6853 2785.95,-15.9315 2775.41,-14.8817 2777.05,-21.6853"/>
</g>
<!-- Node30&#45;&gt;Node16 -->
<g id="edge108" class="edge"><title>Node30&#45;&gt;Node16</title>
<path fill="none" stroke="midnightblue" d="M2594.87,-58.3619C2599.47,-50.5131 2605.85,-39.6159 2611.34,-30.2527"/>
<polygon fill="midnightblue" stroke="midnightblue" points="2614.4,-31.9677 2616.43,-21.5707 2608.36,-28.4276 2614.4,-31.9677"/>
</g>
<!-- Node33&#45;&gt;Node2 -->
<g id="edge116" class="edge"><title>Node33&#45;&gt;Node2</title>
<path fill="none" stroke="midnightblue" d="M2449.23,-116.292C2439.26,-100.66 2418.47,-71.9387 2392.63,-58 2350.14,-35.0787 2213.1,-20.5822 2142.13,-14.4207"/>
<polygon fill="midnightblue" stroke="midnightblue" points="2142.42,-10.9327 2132.16,-13.5721 2141.83,-17.9075 2142.42,-10.9327"/>
</g>
<!-- Node33&#45;&gt;Node16 -->
<g id="edge118" class="edge"><title>Node33&#45;&gt;Node16</title>
<path fill="none" stroke="midnightblue" d="M2504.71,-124.246C2566.32,-119.646 2666.72,-107.968 2689.63,-80 2705.58,-60.5284 2679.51,-40.0637 2655.38,-26.5268"/>
<polygon fill="midnightblue" stroke="midnightblue" points="2656.79,-23.3117 2646.32,-21.6944 2653.5,-29.4883 2656.79,-23.3117"/>
</g>
<!-- Node33&#45;&gt;Node27 -->
<g id="edge122" class="edge"><title>Node33&#45;&gt;Node27</title>
<path fill="none" stroke="midnightblue" d="M2406.42,-125.943C2211.63,-121.63 1493.34,-104.468 1243.07,-80.0073"/>
<polygon fill="midnightblue" stroke="midnightblue" points="1243.24,-76.5064 1232.94,-78.986 1242.54,-83.4711 1243.24,-76.5064"/>
</g>
<!-- Node33&#45;&gt;Node32 -->
<g id="edge120" class="edge"><title>Node33&#45;&gt;Node32</title>
<path fill="none" stroke="midnightblue" d="M2406.46,-125.842C2223.97,-121.4 1584.92,-104.517 1359.04,-79.9862"/>
<polygon fill="midnightblue" stroke="midnightblue" points="1359.24,-76.4877 1348.92,-78.8497 1358.46,-83.444 1359.24,-76.4877"/>
</g>
<!-- Node34 -->
<g id="node96" class="node"><title>Node34</title>
<polygon fill="white" stroke="#bfbfbf" points="2873.63,-0.5 2873.63,-21.5 2965.63,-21.5 2965.63,-0.5 2873.63,-0.5"/>
<text text-anchor="middle" x="2919.63" y="-8.5" font-family="Helvetica,sans-Serif" font-size="10.00">palmwebtypes.h</text>
</g>
<!-- Node33&#45;&gt;Node34 -->
<g id="edge124" class="edge"><title>Node33&#45;&gt;Node34</title>
<path fill="none" stroke="midnightblue" d="M2504.64,-125.978C2623.25,-123 2918.19,-112.381 2947.63,-80 2960.69,-65.6328 2948.79,-44.3747 2936.72,-29.2559"/>
<polygon fill="midnightblue" stroke="midnightblue" points="2939.31,-26.901 2930.15,-21.571 2933.99,-31.4478 2939.31,-26.901"/>
</g>
<!-- Node35&#45;&gt;Node2 -->
<g id="edge128" class="edge"><title>Node35&#45;&gt;Node2</title>
<path fill="none" stroke="midnightblue" d="M2443.76,-60.7954C2439.36,-59.7851 2434.89,-58.821 2430.63,-58 2328.02,-38.2455 2206.07,-23.0857 2142.36,-15.7899"/>
<polygon fill="midnightblue" stroke="midnightblue" points="2142.6,-12.2953 2132.27,-14.6451 2141.81,-19.2507 2142.6,-12.2953"/>
</g>
<!-- Node35&#45;&gt;Node6 -->
<g id="edge136" class="edge"><title>Node35&#45;&gt;Node6</title>
<path fill="none" stroke="midnightblue" d="M2507.37,-63.4387C2571,-52.2887 2713.43,-27.3316 2776.07,-16.3547"/>
<polygon fill="midnightblue" stroke="midnightblue" points="2776.87,-19.7688 2786.11,-14.5953 2775.66,-12.8739 2776.87,-19.7688"/>
</g>
<!-- Node35&#45;&gt;Node8 -->
<g id="edge130" class="edge"><title>Node35&#45;&gt;Node8</title>
<path fill="none" stroke="midnightblue" d="M2443.66,-65.5802C2420.38,-63.1849 2388.08,-60.0568 2359.63,-58 2002.51,-32.1812 1568.28,-16.2046 1448.52,-12.0714"/>
<polygon fill="midnightblue" stroke="midnightblue" points="1448.35,-8.56362 1438.24,-11.719 1448.11,-15.5595 1448.35,-8.56362"/>
</g>
<!-- Node35&#45;&gt;Node17 -->
<g id="edge134" class="edge"><title>Node35&#45;&gt;Node17</title>
<path fill="none" stroke="midnightblue" d="M2443.67,-65.3279C2420.4,-62.8105 2388.11,-59.6401 2359.63,-58 1970.41,-35.5825 992.654,-68.9323 605.629,-22 597.982,-21.0726 589.776,-19.475 582.308,-17.7802"/>
<polygon fill="midnightblue" stroke="midnightblue" points="582.921,-14.3275 572.378,-15.3795 581.276,-21.1315 582.921,-14.3275"/>
</g>
<!-- Node35&#45;&gt;Node23 -->
<g id="edge132" class="edge"><title>Node35&#45;&gt;Node23</title>
<path fill="none" stroke="midnightblue" d="M2444.08,-59.1611C2410.21,-48.6008 2356.67,-31.9046 2322.36,-21.205"/>
<polygon fill="midnightblue" stroke="midnightblue" points="2323.38,-17.8591 2312.79,-18.2234 2321.3,-24.5417 2323.38,-17.8591"/>
</g>
<!-- Node36 -->
<g id="node105" class="node"><title>Node36</title>
<polygon fill="white" stroke="#bfbfbf" points="2446.63,-0.5 2446.63,-21.5 2504.63,-21.5 2504.63,-0.5 2446.63,-0.5"/>
<text text-anchor="middle" x="2475.63" y="-8.5" font-family="Helvetica,sans-Serif" font-size="10.00">QtGlobal</text>
</g>
<!-- Node35&#45;&gt;Node36 -->
<g id="edge138" class="edge"><title>Node35&#45;&gt;Node36</title>
<path fill="none" stroke="midnightblue" d="M2475.63,-58.3619C2475.63,-50.9219 2475.63,-40.7427 2475.63,-31.7276"/>
<polygon fill="midnightblue" stroke="midnightblue" points="2479.13,-31.5706 2475.63,-21.5707 2472.13,-31.5707 2479.13,-31.5706"/>
</g>
<!-- Node37&#45;&gt;Node2 -->
<g id="edge142" class="edge"><title>Node37&#45;&gt;Node2</title>
<path fill="none" stroke="midnightblue" d="M2032.94,-174.292C2043.71,-155.655 2065.82,-115.818 2079.63,-80 2085.7,-64.2664 2090.67,-45.822 2094.01,-31.9632"/>
<polygon fill="midnightblue" stroke="midnightblue" points="2097.47,-32.5028 2096.32,-21.9711 2090.65,-30.9244 2097.47,-32.5028"/>
</g>
<!-- Node37&#45;&gt;Node6 -->
<g id="edge144" class="edge"><title>Node37&#45;&gt;Node6</title>
<path fill="none" stroke="midnightblue" d="M2071.31,-181.572C2251.74,-167.521 2918.32,-113.491 2947.63,-80 2954.07,-72.6424 2953.35,-65.9321 2947.63,-58 2934.56,-39.8707 2874.63,-24.7574 2837.23,-16.8786"/>
<polygon fill="midnightblue" stroke="midnightblue" points="2837.83,-13.4302 2827.34,-14.8517 2836.43,-20.2877 2837.83,-13.4302"/>
</g>
<!-- Node37&#45;&gt;Node18 -->
<g id="edge146" class="edge"><title>Node37&#45;&gt;Node18</title>
<path fill="none" stroke="midnightblue" d="M1982.11,-184.41C1755.57,-181.301 729.125,-165.892 411.629,-138 235.31,-122.51 133.314,-213.961 17.6294,-80 11.2388,-72.5997 11.1066,-65.284 17.6294,-58 44.4942,-28.0005 331.157,-15.0899 417.901,-11.8517"/>
<polygon fill="midnightblue" stroke="midnightblue" points="418.25,-15.3414 428.117,-11.481 417.996,-8.34605 418.25,-15.3414"/>
</g>
<!-- Node37&#45;&gt;Node29 -->
<g id="edge148" class="edge"><title>Node37&#45;&gt;Node29</title>
<path fill="none" stroke="midnightblue" d="M1981.67,-181.353C1849.67,-170.324 1451.71,-134.779 1113.26,-80.1638"/>
<polygon fill="midnightblue" stroke="midnightblue" points="1113.7,-76.6888 1103.27,-78.5424 1112.58,-83.5984 1113.7,-76.6888"/>
</g>
<!-- Node37&#45;&gt;Node33 -->
<g id="edge150" class="edge"><title>Node37&#45;&gt;Node33</title>
<path fill="none" stroke="midnightblue" d="M2071.33,-178.957C2149.15,-168.435 2309.52,-146.753 2396.47,-134.999"/>
<polygon fill="midnightblue" stroke="midnightblue" points="2397,-138.459 2406.44,-133.65 2396.06,-131.522 2397,-138.459"/>
</g>
<!-- Node37&#45;&gt;Node38 -->
<g id="edge152" class="edge"><title>Node37&#45;&gt;Node38</title>
<path fill="none" stroke="midnightblue" d="M1998.92,-174.497C1974.3,-165.164 1938.11,-151.445 1910.95,-141.147"/>
<polygon fill="midnightblue" stroke="midnightblue" points="1911.98,-137.795 1901.39,-137.523 1909.5,-144.341 1911.98,-137.795"/>
</g>
<!-- Node38&#45;&gt;Node2 -->
<g id="edge154" class="edge"><title>Node38&#45;&gt;Node2</title>
<path fill="none" stroke="midnightblue" d="M1883.53,-116.429C1898.04,-101.489 1926.54,-74.2156 1955.63,-58 1986.97,-40.5286 2025.83,-28.2779 2055.13,-20.6738"/>
<polygon fill="midnightblue" stroke="midnightblue" points="2056.22,-24.0088 2065.06,-18.1771 2054.51,-17.2199 2056.22,-24.0088"/>
</g>
<!-- Node38&#45;&gt;Node8 -->
<g id="edge160" class="edge"><title>Node38&#45;&gt;Node8</title>
<path fill="none" stroke="midnightblue" d="M1856.94,-116.452C1831.71,-101.022 1781.88,-72.5575 1735.63,-58 1633.84,-25.9571 1506.75,-15.5739 1448.49,-12.3606"/>
<polygon fill="midnightblue" stroke="midnightblue" points="1448.6,-8.8618 1438.44,-11.8405 1448.24,-15.8525 1448.6,-8.8618"/>
</g>
<!-- Node38&#45;&gt;Node18 -->
<g id="edge158" class="edge"><title>Node38&#45;&gt;Node18</title>
<path fill="none" stroke="midnightblue" d="M1819.84,-126.837C1615.49,-125.92 887.39,-119.866 659.629,-80 621.537,-73.3325 514.927,-36.5562 466.775,-19.5857"/>
<polygon fill="midnightblue" stroke="midnightblue" points="467.765,-16.2233 457.17,-16.1897 465.432,-22.823 467.765,-16.2233"/>
</g>
<!-- Node38&#45;&gt;Node24 -->
<g id="edge156" class="edge"><title>Node38&#45;&gt;Node24</title>
<path fill="none" stroke="midnightblue" d="M1819.99,-126.088C1595.52,-122.114 740.839,-105.373 689.629,-80 668.331,-69.4473 652.133,-46.8677 642.545,-30.4031"/>
<polygon fill="midnightblue" stroke="midnightblue" points="645.563,-28.6267 637.676,-21.5527 639.43,-32.0013 645.563,-28.6267"/>
</g>
<!-- Node38&#45;&gt;Node30 -->
<g id="edge174" class="edge"><title>Node38&#45;&gt;Node30</title>
<path fill="none" stroke="midnightblue" d="M1927.17,-124.65C2064.96,-118.38 2429.36,-100.344 2548.63,-80 2549.91,-79.782 2551.2,-79.5403 2552.51,-79.2793"/>
<polygon fill="midnightblue" stroke="midnightblue" points="2553.58,-82.6234 2562.55,-76.9734 2552.02,-75.801 2553.58,-82.6234"/>
</g>
<!-- Node38&#45;&gt;Node39 -->
<g id="edge162" class="edge"><title>Node38&#45;&gt;Node39</title>
<path fill="none" stroke="midnightblue" d="M1927.33,-125.696C2084.43,-121.655 2556.69,-107.904 2947.63,-80 2972.53,-78.2228 3000.5,-75.4463 3022.13,-73.1275"/>
<polygon fill="midnightblue" stroke="midnightblue" points="3022.64,-76.5931 3032.2,-72.0323 3021.88,-69.6341 3022.64,-76.5931"/>
</g>
<!-- Node39&#45;&gt;Node2 -->
<g id="edge164" class="edge"><title>Node39&#45;&gt;Node2</title>
<path fill="none" stroke="midnightblue" d="M3032.2,-66.0302C3009.73,-63.5898 2976.59,-60.1896 2947.63,-58 2641.42,-34.852 2564.15,-40.5977 2257.63,-22 2218.8,-19.6438 2174.65,-16.5575 2142.75,-14.2539"/>
<polygon fill="midnightblue" stroke="midnightblue" points="2142.65,-10.7377 2132.43,-13.5049 2142.15,-17.7194 2142.65,-10.7377"/>
</g>
<!-- Node39&#45;&gt;Node4 -->
<g id="edge172" class="edge"><title>Node39&#45;&gt;Node4</title>
<path fill="none" stroke="midnightblue" d="M3062.85,-58.3619C3065.86,-50.7584 3070.01,-40.294 3073.64,-31.1349"/>
<polygon fill="midnightblue" stroke="midnightblue" points="3077,-32.1567 3077.44,-21.5707 3070.5,-29.5762 3077,-32.1567"/>
</g>
<!-- Node39&#45;&gt;Node5 -->
<g id="edge170" class="edge"><title>Node39&#45;&gt;Node5</title>
<path fill="none" stroke="midnightblue" d="M3079.09,-58.4966C3096.66,-49.4786 3122.21,-36.3649 3142.01,-26.2006"/>
<polygon fill="midnightblue" stroke="midnightblue" points="3143.64,-29.3014 3150.94,-21.6212 3140.44,-23.0738 3143.64,-29.3014"/>
</g>
<!-- Node39&#45;&gt;Node6 -->
<g id="edge168" class="edge"><title>Node39&#45;&gt;Node6</title>
<path fill="none" stroke="midnightblue" d="M3032.61,-63.0114C2985.77,-52.23 2887.47,-29.6056 2837.38,-18.0778"/>
<polygon fill="midnightblue" stroke="midnightblue" points="2837.99,-14.6268 2827.46,-15.7946 2836.42,-21.4484 2837.99,-14.6268"/>
</g>
<!-- Node39&#45;&gt;Node16 -->
<g id="edge166" class="edge"><title>Node39&#45;&gt;Node16</title>
<path fill="none" stroke="midnightblue" d="M3032.34,-65.5025C2957.4,-55.5338 2742.68,-26.9706 2657.79,-15.6768"/>
<polygon fill="midnightblue" stroke="midnightblue" points="2658.23,-12.2057 2647.86,-14.3564 2657.31,-19.1446 2658.23,-12.2057"/>
</g>
<!-- Node40&#45;&gt;Node2 -->
<g id="edge178" class="edge"><title>Node40&#45;&gt;Node2</title>
<path fill="none" stroke="midnightblue" d="M1466.78,-59.2647C1469.77,-58.8043 1472.74,-58.3777 1475.63,-58 1691.96,-29.7595 1952.92,-16.8824 2054.85,-12.6598"/>
<polygon fill="midnightblue" stroke="midnightblue" points="2055.22,-16.1479 2065.07,-12.2437 2054.93,-9.15366 2055.22,-16.1479"/>
</g>
<!-- Node40&#45;&gt;Node8 -->
<g id="edge180" class="edge"><title>Node40&#45;&gt;Node8</title>
<path fill="none" stroke="midnightblue" d="M1416.63,-58.3619C1416.63,-50.9219 1416.63,-40.7427 1416.63,-31.7276"/>
<polygon fill="midnightblue" stroke="midnightblue" points="1420.13,-31.5706 1416.63,-21.5707 1413.13,-31.5707 1420.13,-31.5706"/>
</g>
<!-- Node41&#45;&gt;Node2 -->
<g id="edge186" class="edge"><title>Node41&#45;&gt;Node2</title>
<path fill="none" stroke="midnightblue" d="M3139.83,-63.8036C3125.72,-61.6811 3108.88,-59.4006 3093.63,-58 2723.29,-23.9932 2628.95,-42.8356 2257.63,-22 2218.78,-19.8203 2174.65,-16.7167 2142.75,-14.3615"/>
<polygon fill="midnightblue" stroke="midnightblue" points="2142.65,-10.8451 2132.42,-13.5939 2142.14,-17.8259 2142.65,-10.8451"/>
</g>
<!-- Node41&#45;&gt;Node5 -->
<g id="edge188" class="edge"><title>Node41&#45;&gt;Node5</title>
<path fill="none" stroke="midnightblue" d="M3171.63,-58.3619C3171.63,-50.9219 3171.63,-40.7427 3171.63,-31.7276"/>
<polygon fill="midnightblue" stroke="midnightblue" points="3175.13,-31.5706 3171.63,-21.5707 3168.13,-31.5707 3175.13,-31.5706"/>
</g>
<!-- Node41&#45;&gt;Node6 -->
<g id="edge190" class="edge"><title>Node41&#45;&gt;Node6</title>
<path fill="none" stroke="midnightblue" d="M3139.76,-60.7791C3135.36,-59.7714 3130.9,-58.8123 3126.63,-58 3011.17,-36.0158 2980.63,-40.9568 2864.63,-22 2855.69,-20.5387 2846,-18.7748 2837.16,-17.0916"/>
<polygon fill="midnightblue" stroke="midnightblue" points="2837.74,-13.6386 2827.25,-15.1758 2836.41,-20.5112 2837.74,-13.6386"/>
</g>
<!-- Node42&#45;&gt;Node2 -->
<g id="edge194" class="edge"><title>Node42&#45;&gt;Node2</title>
<path fill="none" stroke="midnightblue" d="M2893.81,-60.089C2891.09,-59.2678 2888.32,-58.5422 2885.63,-58 2611.58,-2.69913 2536.64,-39.6479 2257.63,-22 2218.8,-19.5441 2174.66,-16.4676 2142.76,-14.1931"/>
<polygon fill="midnightblue" stroke="midnightblue" points="2142.65,-10.6771 2132.43,-13.4546 2142.16,-17.6592 2142.65,-10.6771"/>
</g>
<!-- Node42&#45;&gt;Node6 -->
<g id="edge202" class="edge"><title>Node42&#45;&gt;Node6</title>
<path fill="none" stroke="midnightblue" d="M2896.71,-58.4966C2879.68,-49.5194 2854.96,-36.4835 2835.72,-26.3387"/>
<polygon fill="midnightblue" stroke="midnightblue" points="2837.25,-23.1894 2826.77,-21.6212 2833.99,-29.3814 2837.25,-23.1894"/>
</g>
<!-- Node42&#45;&gt;Node8 -->
<g id="edge196" class="edge"><title>Node42&#45;&gt;Node8</title>
<path fill="none" stroke="midnightblue" d="M2893.82,-60.0216C2891.1,-59.2126 2888.32,-58.5082 2885.63,-58 2740.06,-30.5343 1649.75,-14.2227 1448.51,-11.4301"/>
<polygon fill="midnightblue" stroke="midnightblue" points="1448.37,-7.92783 1438.32,-11.2897 1448.27,-14.9272 1448.37,-7.92783"/>
</g>
<!-- Node42&#45;&gt;Node14 -->
<g id="edge200" class="edge"><title>Node42&#45;&gt;Node14</title>
<path fill="none" stroke="midnightblue" d="M2934.42,-58.3619C2949.19,-49.532 2970.41,-36.844 2987.17,-26.8224"/>
<polygon fill="midnightblue" stroke="midnightblue" points="2989.16,-29.7066 2995.95,-21.5707 2985.57,-23.6987 2989.16,-29.7066"/>
</g>
<!-- Node42&#45;&gt;Node23 -->
<g id="edge198" class="edge"><title>Node42&#45;&gt;Node23</title>
<path fill="none" stroke="midnightblue" d="M2893.8,-60.146C2891.08,-59.3146 2888.31,-58.571 2885.63,-58 2871.74,-55.0425 2445.95,-22.7868 2322.73,-13.4926"/>
<polygon fill="midnightblue" stroke="midnightblue" points="2322.98,-10.0015 2312.74,-12.7397 2322.45,-16.9817 2322.98,-10.0015"/>
</g>
<!-- Node43&#45;&gt;Node2 -->
<g id="edge208" class="edge"><title>Node43&#45;&gt;Node2</title>
<path fill="none" stroke="midnightblue" d="M2632.29,-60.1867C2629.4,-59.348 2626.47,-58.5916 2623.63,-58 2577.05,-48.2903 2259.66,-23.3375 2142.21,-14.3167"/>
<polygon fill="midnightblue" stroke="midnightblue" points="2142.37,-10.819 2132.14,-13.5443 2141.84,-17.7986 2142.37,-10.819"/>
</g>
<!-- Node43&#45;&gt;Node16 -->
<g id="edge210" class="edge"><title>Node43&#45;&gt;Node16</title>
<path fill="none" stroke="midnightblue" d="M2650.39,-58.3619C2645.79,-50.5131 2639.4,-39.6159 2633.92,-30.2527"/>
<polygon fill="midnightblue" stroke="midnightblue" points="2636.9,-28.4276 2628.83,-21.5707 2630.86,-31.9677 2636.9,-28.4276"/>
</g>
<!-- Node44&#45;&gt;Node2 -->
<g id="edge214" class="edge"><title>Node44&#45;&gt;Node2</title>
<path fill="none" stroke="midnightblue" d="M1097.8,-125.414C1221.67,-120.101 1611.54,-102.016 1735.63,-80 1770.25,-73.857 1777.33,-65.7442 1811.63,-58 1896.94,-38.7393 1998.2,-24.0253 2054.77,-16.5233"/>
<polygon fill="midnightblue" stroke="midnightblue" points="2055.34,-19.9787 2064.8,-15.2069 2054.43,-13.0382 2055.34,-19.9787"/>
</g>
<!-- Node44&#45;&gt;Node8 -->
<g id="edge216" class="edge"><title>Node44&#45;&gt;Node8</title>
<path fill="none" stroke="midnightblue" d="M1041.7,-116.293C1020.52,-102.356 990.259,-77.4805 1007.63,-58 1032.68,-29.905 1293.46,-16.2223 1385.04,-12.2568"/>
<polygon fill="midnightblue" stroke="midnightblue" points="1385.26,-15.751 1395.1,-11.8312 1384.96,-8.75723 1385.26,-15.751"/>
</g>
<!-- Node44&#45;&gt;Node29 -->
<g id="edge218" class="edge"><title>Node44&#45;&gt;Node29</title>
<path fill="none" stroke="midnightblue" d="M1059.63,-116.362C1059.63,-108.922 1059.63,-98.7427 1059.63,-89.7276"/>
<polygon fill="midnightblue" stroke="midnightblue" points="1063.13,-89.5706 1059.63,-79.5707 1056.13,-89.5707 1063.13,-89.5706"/>
</g>
<!-- Node45&#45;&gt;Node2 -->
<g id="edge222" class="edge"><title>Node45&#45;&gt;Node2</title>
<path fill="none" stroke="midnightblue" d="M2134.9,-232.429C2129.04,-196.648 2109.88,-79.6628 2102.03,-31.7481"/>
<polygon fill="midnightblue" stroke="midnightblue" points="2105.44,-30.9362 2100.37,-21.6335 2098.53,-32.0678 2105.44,-30.9362"/>
</g>
<!-- Node45&#45;&gt;Node18 -->
<g id="edge224" class="edge"><title>Node45&#45;&gt;Node18</title>
<path fill="none" stroke="midnightblue" d="M2079.38,-241.476C1753.7,-232.633 145.673,-186.633 53.6294,-138 17.7511,-119.043 -17.4716,-88.2019 9.62945,-58 37.0526,-27.4391 329.662,-14.9027 417.707,-11.8053"/>
<polygon fill="midnightblue" stroke="midnightblue" points="417.97,-15.2984 427.844,-11.459 417.731,-8.30251 417.97,-15.2984"/>
</g>
<!-- Node45&#45;&gt;Node19 -->
<g id="edge226" class="edge"><title>Node45&#45;&gt;Node19</title>
<path fill="none" stroke="midnightblue" d="M2130.03,-232.454C2120.42,-217.789 2101.35,-191.117 2079.63,-174 2025.52,-131.367 1951.29,-99.9076 1905.72,-83.0353"/>
<polygon fill="midnightblue" stroke="midnightblue" points="1906.76,-79.6907 1896.17,-79.5583 1904.37,-86.2683 1906.76,-79.6907"/>
</g>
<!-- Node45&#45;&gt;Node30 -->
<g id="edge232" class="edge"><title>Node45&#45;&gt;Node30</title>
<path fill="none" stroke="midnightblue" d="M2193.78,-235.629C2270.52,-223.884 2409.28,-196.052 2513.63,-138 2537.11,-124.936 2559.13,-103.088 2573.15,-87.4757"/>
<polygon fill="midnightblue" stroke="midnightblue" points="2576.14,-89.3744 2580.08,-79.5393 2570.87,-84.7708 2576.14,-89.3744"/>
</g>
<!-- Node45&#45;&gt;Node37 -->
<g id="edge228" class="edge"><title>Node45&#45;&gt;Node37</title>
<path fill="none" stroke="midnightblue" d="M2116.71,-232.497C2099.68,-223.519 2074.96,-210.484 2055.72,-200.339"/>
<polygon fill="midnightblue" stroke="midnightblue" points="2057.25,-197.189 2046.77,-195.621 2053.99,-203.381 2057.25,-197.189"/>
</g>
<!-- Node45&#45;&gt;Node39 -->
<g id="edge230" class="edge"><title>Node45&#45;&gt;Node39</title>
<path fill="none" stroke="midnightblue" d="M2193.68,-233.821C2249.93,-224.66 2338.31,-209.973 2414.63,-196 2646.89,-153.473 2925.06,-96.5903 3022.67,-76.4492"/>
<polygon fill="midnightblue" stroke="midnightblue" points="3023.52,-79.8467 3032.61,-74.3964 3022.11,-72.9914 3023.52,-79.8467"/>
</g>
<!-- Node46&#45;&gt;Node2 -->
<g id="edge236" class="edge"><title>Node46&#45;&gt;Node2</title>
<path fill="none" stroke="midnightblue" d="M2032.49,-58.3619C2044.47,-49.7773 2061.56,-37.5459 2075.36,-27.6636"/>
<polygon fill="midnightblue" stroke="midnightblue" points="2077.77,-30.2383 2083.87,-21.5707 2073.7,-24.5469 2077.77,-30.2383"/>
</g>
<!-- Node46&#45;&gt;Node8 -->
<g id="edge240" class="edge"><title>Node46&#45;&gt;Node8</title>
<path fill="none" stroke="midnightblue" d="M1964.45,-62.9903C1949.33,-61.3245 1932.83,-59.5493 1917.63,-58 1740.82,-39.9837 1528.65,-20.9215 1448.96,-13.8525"/>
<polygon fill="midnightblue" stroke="midnightblue" points="1448.89,-10.3321 1438.62,-12.936 1448.27,-17.3048 1448.89,-10.3321"/>
</g>
<!-- Node46&#45;&gt;Node23 -->
<g id="edge238" class="edge"><title>Node46&#45;&gt;Node23</title>
<path fill="none" stroke="midnightblue" d="M2066.89,-58.4966C2121.82,-46.7818 2209.18,-28.1557 2256.51,-18.0615"/>
<polygon fill="midnightblue" stroke="midnightblue" points="2257.49,-21.4329 2266.54,-15.9243 2256.03,-14.5868 2257.49,-21.4329"/>
</g>
<!-- Node47&#45;&gt;Node2 -->
<g id="edge246" class="edge"><title>Node47&#45;&gt;Node2</title>
<path fill="none" stroke="midnightblue" d="M2228.84,-58.4966C2203.14,-49.1229 2165.31,-35.3242 2137.04,-25.0122"/>
<polygon fill="midnightblue" stroke="midnightblue" points="2138.07,-21.662 2127.48,-21.5231 2135.67,-28.2381 2138.07,-21.662"/>
</g>
<!-- Node47&#45;&gt;Node6 -->
<g id="edge248" class="edge"><title>Node47&#45;&gt;Node6</title>
<path fill="none" stroke="midnightblue" d="M2351.38,-59.0953C2477.45,-45.777 2695.07,-22.7859 2775.54,-14.2843"/>
<polygon fill="midnightblue" stroke="midnightblue" points="2776.39,-17.7146 2785.96,-13.1833 2775.65,-10.7534 2776.39,-17.7146"/>
</g>
<!-- Node47&#45;&gt;Node8 -->
<g id="edge250" class="edge"><title>Node47&#45;&gt;Node8</title>
<path fill="none" stroke="midnightblue" d="M2164.01,-62.5435C1977.18,-49.6584 1565.91,-21.2953 1448.5,-13.1979"/>
<polygon fill="midnightblue" stroke="midnightblue" points="1448.59,-9.69629 1438.38,-12.4999 1448.11,-16.6797 1448.59,-9.69629"/>
</g>
<!-- Node48&#45;&gt;Node2 -->
<g id="edge254" class="edge"><title>Node48&#45;&gt;Node2</title>
<path fill="none" stroke="midnightblue" d="M2736.11,-62.2049C2720.79,-60.7748 2704.67,-59.3051 2689.63,-58 2485.08,-40.2514 2240.46,-21.6251 2142.42,-14.2658"/>
<polygon fill="midnightblue" stroke="midnightblue" points="2142.53,-10.7643 2132.29,-13.5068 2142,-17.7447 2142.53,-10.7643"/>
</g>
<!-- Node48&#45;&gt;Node6 -->
<g id="edge256" class="edge"><title>Node48&#45;&gt;Node6</title>
<path fill="none" stroke="midnightblue" d="M2806.63,-58.3619C2806.63,-50.9219 2806.63,-40.7427 2806.63,-31.7276"/>
<polygon fill="midnightblue" stroke="midnightblue" points="2810.13,-31.5706 2806.63,-21.5707 2803.13,-31.5707 2810.13,-31.5706"/>
</g>
<!-- Node48&#45;&gt;Node8 -->
<g id="edge258" class="edge"><title>Node48&#45;&gt;Node8</title>
<path fill="none" stroke="midnightblue" d="M2735.84,-61.692C2720.61,-60.3024 2704.59,-58.9789 2689.63,-58 2196.02,-25.7098 1593.17,-13.9656 1448.79,-11.5144"/>
<polygon fill="midnightblue" stroke="midnightblue" points="1448.5,-8.00928 1438.45,-11.3416 1448.39,-15.0083 1448.5,-8.00928"/>
</g>
<!-- Node48&#45;&gt;Node34 -->
<g id="edge260" class="edge"><title>Node48&#45;&gt;Node34</title>
<path fill="none" stroke="midnightblue" d="M2827.09,-58.4966C2844.66,-49.4786 2870.21,-36.3649 2890.01,-26.2006"/>
<polygon fill="midnightblue" stroke="midnightblue" points="2891.64,-29.3014 2898.94,-21.6212 2888.44,-23.0738 2891.64,-29.3014"/>
</g>
</g>
</svg>
