<?xml version="1.0" encoding="UTF-8" standalone="no"?>
<!DOCTYPE svg PUBLIC "-//W3C//DTD SVG 1.1//EN"
 "http://www.w3.org/Graphics/SVG/1.1/DTD/svg11.dtd">
<!-- Generated by graphviz version 2.26.3 (20100126.1600)
 -->
<!-- Title: G Pages: 1 -->
<svg width="438pt" height="88pt"
 viewBox="0.00 0.00 438.00 88.00" xmlns="http://www.w3.org/2000/svg" xmlns:xlink="http://www.w3.org/1999/xlink">
<g id="graph1" class="graph" transform="scale(1 1) rotate(0) translate(4 84)">
<title>G</title>
<polygon fill="white" stroke="white" points="-4,5 -4,-84 435,-84 435,5 -4,5"/>
<!-- Node1 -->
<g id="node1" class="node"><title>Node1</title>
<polygon fill="#bfbfbf" stroke="black" points="171,-58.5 171,-79.5 233,-79.5 233,-58.5 171,-58.5"/>
<text text-anchor="middle" x="202" y="-66.5" font-family="Helvetica,sans-Serif" font-size="10.00">Window.h</text>
</g>
<!-- Node2 -->
<g id="node3" class="node"><title>Node2</title>
<a xlink:href="Common_8h.htm" target="_top" xlink:title="Common.h">
<polygon fill="white" stroke="black" points="-0.5,-0.5 -0.5,-21.5 66.5,-21.5 66.5,-0.5 -0.5,-0.5"/>
<text text-anchor="middle" x="33" y="-8.5" font-family="Helvetica,sans-Serif" font-size="10.00">Common.h</text>
</a>
</g>
<!-- Node1&#45;&gt;Node2 -->
<g id="edge2" class="edge"><title>Node1&#45;&gt;Node2</title>
<path fill="none" stroke="midnightblue" d="M171.395,-58.4966C143.963,-49.082 103.524,-35.2036 73.4356,-24.8773"/>
<polygon fill="midnightblue" stroke="midnightblue" points="74.2567,-21.4588 63.662,-21.5231 71.9843,-28.0797 74.2567,-21.4588"/>
</g>
<!-- Node3 -->
<g id="node5" class="node"><title>Node3</title>
<polygon fill="white" stroke="#bfbfbf" points="84,-0.5 84,-21.5 134,-21.5 134,-0.5 84,-0.5"/>
<text text-anchor="middle" x="109" y="-8.5" font-family="Helvetica,sans-Serif" font-size="10.00">stdint.h</text>
</g>
<!-- Node1&#45;&gt;Node3 -->
<g id="edge4" class="edge"><title>Node1&#45;&gt;Node3</title>
<path fill="none" stroke="midnightblue" d="M184.942,-58.3619C170.915,-49.6138 150.816,-37.0786 134.818,-27.1015"/>
<polygon fill="midnightblue" stroke="midnightblue" points="136.287,-23.8927 125.949,-21.5707 132.582,-29.8323 136.287,-23.8927"/>
</g>
<!-- Node4 -->
<g id="node7" class="node"><title>Node4</title>
<polygon fill="white" stroke="#bfbfbf" points="151.5,-0.5 151.5,-21.5 194.5,-21.5 194.5,-0.5 151.5,-0.5"/>
<text text-anchor="middle" x="173" y="-8.5" font-family="Helvetica,sans-Serif" font-size="10.00">string</text>
</g>
<!-- Node1&#45;&gt;Node4 -->
<g id="edge6" class="edge"><title>Node1&#45;&gt;Node4</title>
<path fill="none" stroke="midnightblue" d="M196.681,-58.3619C192.797,-50.5949 187.421,-39.8426 182.773,-30.5458"/>
<polygon fill="midnightblue" stroke="midnightblue" points="185.888,-28.9497 178.285,-21.5707 179.627,-32.0802 185.888,-28.9497"/>
</g>
<!-- Node5 -->
<g id="node9" class="node"><title>Node5</title>
<polygon fill="white" stroke="#bfbfbf" points="211.5,-0.5 211.5,-21.5 252.5,-21.5 252.5,-0.5 211.5,-0.5"/>
<text text-anchor="middle" x="232" y="-8.5" font-family="Helvetica,sans-Serif" font-size="10.00">glib.h</text>
</g>
<!-- Node1&#45;&gt;Node5 -->
<g id="edge8" class="edge"><title>Node1&#45;&gt;Node5</title>
<path fill="none" stroke="midnightblue" d="M207.502,-58.3619C211.52,-50.5949 217.081,-39.8426 221.89,-30.5458"/>
<polygon fill="midnightblue" stroke="midnightblue" points="225.047,-32.0608 226.532,-21.5707 218.829,-28.8448 225.047,-32.0608"/>
</g>
<!-- Node6 -->
<g id="node11" class="node"><title>Node6</title>
<polygon fill="white" stroke="#bfbfbf" points="270,-0.5 270,-21.5 368,-21.5 368,-0.5 270,-0.5"/>
<text text-anchor="middle" x="319" y="-8.5" font-family="Helvetica,sans-Serif" font-size="10.00">QGraphicsObject</text>
</g>
<!-- Node1&#45;&gt;Node6 -->
<g id="edge10" class="edge"><title>Node1&#45;&gt;Node6</title>
<path fill="none" stroke="midnightblue" d="M223.188,-58.4966C241.462,-49.4378 268.072,-36.2462 288.615,-26.0628"/>
<polygon fill="midnightblue" stroke="midnightblue" points="290.169,-29.1986 297.574,-21.6212 287.06,-22.9269 290.169,-29.1986"/>
</g>
<!-- Node7 -->
<g id="node13" class="node"><title>Node7</title>
<polygon fill="white" stroke="#bfbfbf" points="385.5,-0.5 385.5,-21.5 430.5,-21.5 430.5,-0.5 385.5,-0.5"/>
<text text-anchor="middle" x="408" y="-8.5" font-family="Helvetica,sans-Serif" font-size="10.00">QSize</text>
</g>
<!-- Node1&#45;&gt;Node7 -->
<g id="edge12" class="edge"><title>Node1&#45;&gt;Node7</title>
<path fill="none" stroke="midnightblue" d="M233.191,-61.4106C266.435,-53.1499 320.779,-39.1547 375.825,-22.2243"/>
<polygon fill="midnightblue" stroke="midnightblue" points="376.87,-25.5649 385.382,-19.257 374.794,-18.8798 376.87,-25.5649"/>
</g>
</g>
</svg>
