<?xml version="1.0" encoding="UTF-8" standalone="no"?>
<!DOCTYPE svg PUBLIC "-//W3C//DTD SVG 1.1//EN"
 "http://www.w3.org/Graphics/SVG/1.1/DTD/svg11.dtd">
<!-- Generated by graphviz version 2.26.3 (20100126.1600)
 -->
<!-- Title: G Pages: 1 -->
<svg width="922pt" height="88pt"
 viewBox="0.00 0.00 922.00 88.00" xmlns="http://www.w3.org/2000/svg" xmlns:xlink="http://www.w3.org/1999/xlink">
<g id="graph1" class="graph" transform="scale(1 1) rotate(0) translate(4 84)">
<title>G</title>
<polygon fill="white" stroke="white" points="-4,5 -4,-84 919,-84 919,5 -4,5"/>
<!-- Node1 -->
<g id="node1" class="node"><title>Node1</title>
<polygon fill="#bfbfbf" stroke="black" points="363.5,-58.5 363.5,-79.5 472.5,-79.5 472.5,-58.5 363.5,-58.5"/>
<text text-anchor="middle" x="418" y="-66.5" font-family="Helvetica,sans-Serif" font-size="10.00">WindowMetaData.h</text>
</g>
<!-- Node2 -->
<g id="node3" class="node"><title>Node2</title>
<a xlink:href="HostWindowDataSoftware_8cpp.htm" target="_top" xlink:title="HostWindowDataSoftware.cpp">
<polygon fill="white" stroke="black" points="0,-0.5 0,-21.5 160,-21.5 160,-0.5 0,-0.5"/>
<text text-anchor="middle" x="80" y="-8.5" font-family="Helvetica,sans-Serif" font-size="10.00">HostWindowDataSoftware.cpp</text>
</a>
</g>
<!-- Node1&#45;&gt;Node2 -->
<g id="edge2" class="edge"><title>Node1&#45;&gt;Node2</title>
<path fill="none" stroke="midnightblue" d="M353.414,-57.9171C292.378,-47.4436 201.466,-31.8433 141.473,-21.5487"/>
<polygon fill="midnightblue" stroke="midnightblue" points="352.871,-61.3751 363.319,-59.6168 354.055,-54.4759 352.871,-61.3751"/>
</g>
<!-- Node3 -->
<g id="node5" class="node"><title>Node3</title>
<a xlink:href="CardWebApp_8cpp.htm" target="_top" xlink:title="CardWebApp.cpp">
<polygon fill="white" stroke="black" points="177.5,-0.5 177.5,-21.5 276.5,-21.5 276.5,-0.5 177.5,-0.5"/>
<text text-anchor="middle" x="227" y="-8.5" font-family="Helvetica,sans-Serif" font-size="10.00">CardWebApp.cpp</text>
</a>
</g>
<!-- Node1&#45;&gt;Node3 -->
<g id="edge4" class="edge"><title>Node1&#45;&gt;Node3</title>
<path fill="none" stroke="midnightblue" d="M373.696,-55.5464C339.577,-45.1857 293.082,-31.0668 261.654,-21.5231"/>
<polygon fill="midnightblue" stroke="midnightblue" points="372.826,-58.9399 383.411,-58.4966 374.86,-52.2419 372.826,-58.9399"/>
</g>
<!-- Node4 -->
<g id="node7" class="node"><title>Node4</title>
<a xlink:href="CardWindow_8cpp.htm" target="_top" xlink:title="CardWindow.cpp">
<polygon fill="white" stroke="black" points="293.5,-0.5 293.5,-21.5 390.5,-21.5 390.5,-0.5 293.5,-0.5"/>
<text text-anchor="middle" x="342" y="-8.5" font-family="Helvetica,sans-Serif" font-size="10.00">CardWindow.cpp</text>
</a>
</g>
<!-- Node1&#45;&gt;Node4 -->
<g id="edge6" class="edge"><title>Node1&#45;&gt;Node4</title>
<path fill="none" stroke="midnightblue" d="M396.063,-52.2587C383.098,-42.3641 367.075,-30.1361 355.851,-21.5707"/>
<polygon fill="midnightblue" stroke="midnightblue" points="393.988,-55.0775 404.06,-58.3619 398.234,-49.5128 393.988,-55.0775"/>
</g>
<!-- Node5 -->
<g id="node9" class="node"><title>Node5</title>
<a xlink:href="RemoteWindowDataOpenGL_8cpp.htm" target="_top" xlink:title="RemoteWindowDataOpenGL.cpp">
<polygon fill="white" stroke="black" points="407.5,-0.5 407.5,-21.5 580.5,-21.5 580.5,-0.5 407.5,-0.5"/>
<text text-anchor="middle" x="494" y="-8.5" font-family="Helvetica,sans-Serif" font-size="10.00">RemoteWindowDataOpenGL.cpp</text>
</a>
</g>
<!-- Node1&#45;&gt;Node5 -->
<g id="edge8" class="edge"><title>Node1&#45;&gt;Node5</title>
<path fill="none" stroke="midnightblue" d="M439.937,-52.2587C452.902,-42.3641 468.925,-30.1361 480.149,-21.5707"/>
<polygon fill="midnightblue" stroke="midnightblue" points="437.766,-49.5128 431.94,-58.3619 442.012,-55.0775 437.766,-49.5128"/>
</g>
<!-- Node6 -->
<g id="node11" class="node"><title>Node6</title>
<a xlink:href="RemoteWindowDataSoftware_8cpp.htm" target="_top" xlink:title="RemoteWindowDataSoftware.cpp">
<polygon fill="white" stroke="black" points="597.5,-0.5 597.5,-21.5 772.5,-21.5 772.5,-0.5 597.5,-0.5"/>
<text text-anchor="middle" x="685" y="-8.5" font-family="Helvetica,sans-Serif" font-size="10.00">RemoteWindowDataSoftware.cpp</text>
</a>
</g>
<!-- Node1&#45;&gt;Node6 -->
<g id="edge10" class="edge"><title>Node1&#45;&gt;Node6</title>
<path fill="none" stroke="midnightblue" d="M476.284,-56.3391C524.266,-45.9159 591.492,-31.3126 636.558,-21.5231"/>
<polygon fill="midnightblue" stroke="midnightblue" points="475.381,-52.9535 466.352,-58.4966 476.867,-59.794 475.381,-52.9535"/>
</g>
<!-- Node7 -->
<g id="node13" class="node"><title>Node7</title>
<a xlink:href="WindowedWebApp_8cpp.htm" target="_top" xlink:title="WindowedWebApp.cpp">
<polygon fill="white" stroke="black" points="789.5,-0.5 789.5,-21.5 914.5,-21.5 914.5,-0.5 789.5,-0.5"/>
<text text-anchor="middle" x="852" y="-8.5" font-family="Helvetica,sans-Serif" font-size="10.00">WindowedWebApp.cpp</text>
</a>
</g>
<!-- Node1&#45;&gt;Node7 -->
<g id="edge12" class="edge"><title>Node1&#45;&gt;Node7</title>
<path fill="none" stroke="midnightblue" d="M483.159,-61.0605C555.863,-52.0858 676.961,-36.7924 781,-22 783.717,-21.6137 786.491,-21.2126 789.293,-20.802"/>
<polygon fill="midnightblue" stroke="midnightblue" points="482.287,-57.6413 472.791,-62.338 483.144,-64.5887 482.287,-57.6413"/>
</g>
</g>
</svg>
