<?xml version="1.0" encoding="UTF-8" standalone="no"?>
<!DOCTYPE svg PUBLIC "-//W3C//DTD SVG 1.1//EN"
 "http://www.w3.org/Graphics/SVG/1.1/DTD/svg11.dtd">
<!-- Generated by graphviz version 2.26.3 (20100126.1600)
 -->
<!-- Title: G Pages: 1 -->
<svg width="808pt" height="204pt"
 viewBox="0.00 0.00 808.00 204.00" xmlns="http://www.w3.org/2000/svg" xmlns:xlink="http://www.w3.org/1999/xlink">
<g id="graph1" class="graph" transform="scale(1 1) rotate(0) translate(4 200)">
<title>G</title>
<polygon fill="white" stroke="white" points="-4,5 -4,-200 805,-200 805,5 -4,5"/>
<!-- Node1 -->
<g id="node1" class="node"><title>Node1</title>
<polygon fill="#bfbfbf" stroke="black" points="375,-174.5 375,-195.5 515,-195.5 515,-174.5 375,-174.5"/>
<text text-anchor="middle" x="445" y="-182.5" font-family="Helvetica,sans-Serif" font-size="10.00">WindowManagerBase.cpp</text>
</g>
<!-- Node2 -->
<g id="node3" class="node"><title>Node2</title>
<a xlink:href="Common_8h.htm" target="_top" xlink:title="Common.h">
<polygon fill="white" stroke="black" points="335.5,-0.5 335.5,-21.5 402.5,-21.5 402.5,-0.5 335.5,-0.5"/>
<text text-anchor="middle" x="369" y="-8.5" font-family="Helvetica,sans-Serif" font-size="10.00">Common.h</text>
</a>
</g>
<!-- Node1&#45;&gt;Node2 -->
<g id="edge2" class="edge"><title>Node1&#45;&gt;Node2</title>
<path fill="none" stroke="midnightblue" d="M440.36,-174.377C427.988,-146.051 394.049,-68.3488 377.841,-31.2424"/>
<polygon fill="midnightblue" stroke="midnightblue" points="380.983,-29.6908 373.773,-21.9277 374.568,-32.4927 380.983,-29.6908"/>
</g>
<!-- Node3 -->
<g id="node5" class="node"><title>Node3</title>
<a xlink:href="WindowManagerBase_8h.htm" target="_top" xlink:title="WindowManagerBase.h">
<polygon fill="white" stroke="black" points="228.5,-116.5 228.5,-137.5 357.5,-137.5 357.5,-116.5 228.5,-116.5"/>
<text text-anchor="middle" x="293" y="-124.5" font-family="Helvetica,sans-Serif" font-size="10.00">WindowManagerBase.h</text>
</a>
</g>
<!-- Node1&#45;&gt;Node3 -->
<g id="edge4" class="edge"><title>Node1&#45;&gt;Node3</title>
<path fill="none" stroke="midnightblue" d="M417.474,-174.497C393.016,-165.164 357.062,-151.445 330.076,-141.147"/>
<polygon fill="midnightblue" stroke="midnightblue" points="331.168,-137.818 320.578,-137.523 328.673,-144.358 331.168,-137.818"/>
</g>
<!-- Node9 -->
<g id="node19" class="node"><title>Node9</title>
<a xlink:href="Window_8h.htm" target="_top" xlink:title="Window.h">
<polygon fill="white" stroke="black" points="516,-116.5 516,-137.5 578,-137.5 578,-116.5 516,-116.5"/>
<text text-anchor="middle" x="547" y="-124.5" font-family="Helvetica,sans-Serif" font-size="10.00">Window.h</text>
</a>
</g>
<!-- Node1&#45;&gt;Node9 -->
<g id="edge20" class="edge"><title>Node1&#45;&gt;Node9</title>
<path fill="none" stroke="midnightblue" d="M463.708,-174.362C479.381,-165.45 501.964,-152.609 519.663,-142.545"/>
<polygon fill="midnightblue" stroke="midnightblue" points="521.447,-145.556 528.41,-137.571 517.987,-139.471 521.447,-145.556"/>
</g>
<!-- Node15 -->
<g id="node32" class="node"><title>Node15</title>
<polygon fill="white" stroke="#bfbfbf" points="596,-116.5 596,-137.5 694,-137.5 694,-116.5 596,-116.5"/>
<text text-anchor="middle" x="645" y="-124.5" font-family="Helvetica,sans-Serif" font-size="10.00">QGraphicsScene</text>
</g>
<!-- Node1&#45;&gt;Node15 -->
<g id="edge34" class="edge"><title>Node1&#45;&gt;Node15</title>
<path fill="none" stroke="midnightblue" d="M481.218,-174.497C514.247,-164.918 563.208,-150.72 598.994,-140.342"/>
<polygon fill="midnightblue" stroke="midnightblue" points="600.084,-143.67 608.714,-137.523 598.134,-136.947 600.084,-143.67"/>
</g>
<!-- Node3&#45;&gt;Node2 -->
<g id="edge6" class="edge"><title>Node3&#45;&gt;Node2</title>
<path fill="none" stroke="midnightblue" d="M302.635,-116.218C310.684,-106.955 322.221,-93.0642 331,-80 341.68,-64.1067 352.044,-44.9581 359.244,-30.8693"/>
<polygon fill="midnightblue" stroke="midnightblue" points="362.527,-32.1309 363.886,-21.6237 356.271,-28.9899 362.527,-32.1309"/>
</g>
<!-- Node4 -->
<g id="node8" class="node"><title>Node4</title>
<polygon fill="white" stroke="#bfbfbf" points="158,-58.5 158,-79.5 246,-79.5 246,-58.5 158,-58.5"/>
<text text-anchor="middle" x="202" y="-66.5" font-family="Helvetica,sans-Serif" font-size="10.00">QGraphicsItem</text>
</g>
<!-- Node3&#45;&gt;Node4 -->
<g id="edge8" class="edge"><title>Node3&#45;&gt;Node4</title>
<path fill="none" stroke="midnightblue" d="M276.309,-116.362C262.584,-107.614 242.916,-95.0786 227.263,-85.1015"/>
<polygon fill="midnightblue" stroke="midnightblue" points="228.899,-81.994 218.585,-79.5707 225.137,-87.8969 228.899,-81.994"/>
</g>
<!-- Node5 -->
<g id="node10" class="node"><title>Node5</title>
<polygon fill="white" stroke="#bfbfbf" points="263.5,-58.5 263.5,-79.5 322.5,-79.5 322.5,-58.5 263.5,-58.5"/>
<text text-anchor="middle" x="293" y="-66.5" font-family="Helvetica,sans-Serif" font-size="10.00">QPainter</text>
</g>
<!-- Node3&#45;&gt;Node5 -->
<g id="edge10" class="edge"><title>Node3&#45;&gt;Node5</title>
<path fill="none" stroke="midnightblue" d="M293,-116.362C293,-108.922 293,-98.7427 293,-89.7276"/>
<polygon fill="midnightblue" stroke="midnightblue" points="296.5,-89.5706 293,-79.5707 289.5,-89.5707 296.5,-89.5706"/>
</g>
<!-- Node6 -->
<g id="node12" class="node"><title>Node6</title>
<a xlink:href="UiNavigationController_8h.htm" target="_top" xlink:title="UiNavigationController.h">
<polygon fill="white" stroke="black" points="9.5,-58.5 9.5,-79.5 140.5,-79.5 140.5,-58.5 9.5,-58.5"/>
<text text-anchor="middle" x="75" y="-66.5" font-family="Helvetica,sans-Serif" font-size="10.00">UiNavigationController.h</text>
</a>
</g>
<!-- Node3&#45;&gt;Node6 -->
<g id="edge12" class="edge"><title>Node3&#45;&gt;Node6</title>
<path fill="none" stroke="midnightblue" d="M253.522,-116.497C217.367,-106.877 163.696,-92.5981 124.647,-82.209"/>
<polygon fill="midnightblue" stroke="midnightblue" points="125.116,-78.7119 114.552,-79.5231 123.316,-85.4766 125.116,-78.7119"/>
</g>
<!-- Node6&#45;&gt;Node2 -->
<g id="edge14" class="edge"><title>Node6&#45;&gt;Node2</title>
<path fill="none" stroke="midnightblue" d="M128.241,-58.4966C184.709,-47.3567 272.857,-29.9671 325.37,-19.6073"/>
<polygon fill="midnightblue" stroke="midnightblue" points="326.244,-23.0024 335.377,-17.633 324.889,-16.1348 326.244,-23.0024"/>
</g>
<!-- Node7 -->
<g id="node15" class="node"><title>Node7</title>
<polygon fill="white" stroke="#bfbfbf" points="87.5,-0.5 87.5,-21.5 142.5,-21.5 142.5,-0.5 87.5,-0.5"/>
<text text-anchor="middle" x="115" y="-8.5" font-family="Helvetica,sans-Serif" font-size="10.00">QObject</text>
</g>
<!-- Node6&#45;&gt;Node7 -->
<g id="edge16" class="edge"><title>Node6&#45;&gt;Node7</title>
<path fill="none" stroke="midnightblue" d="M82.3366,-58.3619C87.806,-50.4313 95.4217,-39.3885 101.924,-29.9606"/>
<polygon fill="midnightblue" stroke="midnightblue" points="104.914,-31.7899 107.71,-21.5707 99.1513,-27.8157 104.914,-31.7899"/>
</g>
<!-- Node8 -->
<g id="node17" class="node"><title>Node8</title>
<polygon fill="white" stroke="#bfbfbf" points="0,-0.5 0,-21.5 70,-21.5 70,-0.5 0,-0.5"/>
<text text-anchor="middle" x="35" y="-8.5" font-family="Helvetica,sans-Serif" font-size="10.00">QKeyEvent</text>
</g>
<!-- Node6&#45;&gt;Node8 -->
<g id="edge18" class="edge"><title>Node6&#45;&gt;Node8</title>
<path fill="none" stroke="midnightblue" d="M67.6634,-58.3619C62.194,-50.4313 54.5783,-39.3885 48.0763,-29.9606"/>
<polygon fill="midnightblue" stroke="midnightblue" points="50.8487,-27.8157 42.2901,-21.5707 45.0862,-31.7899 50.8487,-27.8157"/>
</g>
<!-- Node9&#45;&gt;Node2 -->
<g id="edge22" class="edge"><title>Node9&#45;&gt;Node2</title>
<path fill="none" stroke="midnightblue" d="M518.071,-116.428C496.949,-108.067 468.091,-95.2765 445,-80 422.929,-65.398 400.89,-44.5187 386.273,-29.5583"/>
<polygon fill="midnightblue" stroke="midnightblue" points="388.41,-26.7297 378.963,-21.9333 383.357,-31.574 388.41,-26.7297"/>
</g>
<!-- Node10 -->
<g id="node22" class="node"><title>Node10</title>
<polygon fill="white" stroke="#bfbfbf" points="632,-58.5 632,-79.5 682,-79.5 682,-58.5 632,-58.5"/>
<text text-anchor="middle" x="657" y="-66.5" font-family="Helvetica,sans-Serif" font-size="10.00">stdint.h</text>
</g>
<!-- Node9&#45;&gt;Node10 -->
<g id="edge24" class="edge"><title>Node9&#45;&gt;Node10</title>
<path fill="none" stroke="midnightblue" d="M566.92,-116.497C583.946,-107.519 608.669,-94.4835 627.909,-84.3387"/>
<polygon fill="midnightblue" stroke="midnightblue" points="629.643,-87.3814 636.856,-79.6212 626.378,-81.1894 629.643,-87.3814"/>
</g>
<!-- Node11 -->
<g id="node24" class="node"><title>Node11</title>
<polygon fill="white" stroke="#bfbfbf" points="699.5,-58.5 699.5,-79.5 742.5,-79.5 742.5,-58.5 699.5,-58.5"/>
<text text-anchor="middle" x="721" y="-66.5" font-family="Helvetica,sans-Serif" font-size="10.00">string</text>
</g>
<!-- Node9&#45;&gt;Node11 -->
<g id="edge26" class="edge"><title>Node9&#45;&gt;Node11</title>
<path fill="none" stroke="midnightblue" d="M578.007,-117.235C605.244,-108.579 646.157,-95.3884 689.765,-80.3607"/>
<polygon fill="midnightblue" stroke="midnightblue" points="691.098,-83.6029 699.403,-77.0241 688.808,-76.988 691.098,-83.6029"/>
</g>
<!-- Node12 -->
<g id="node26" class="node"><title>Node12</title>
<polygon fill="white" stroke="#bfbfbf" points="759.5,-58.5 759.5,-79.5 800.5,-79.5 800.5,-58.5 759.5,-58.5"/>
<text text-anchor="middle" x="780" y="-66.5" font-family="Helvetica,sans-Serif" font-size="10.00">glib.h</text>
</g>
<!-- Node9&#45;&gt;Node12 -->
<g id="edge28" class="edge"><title>Node9&#45;&gt;Node12</title>
<path fill="none" stroke="midnightblue" d="M578.402,-118.198C581.304,-117.435 584.203,-116.691 587,-116 656.333,-98.8694 677.659,-101.055 749.259,-80.2466"/>
<polygon fill="midnightblue" stroke="midnightblue" points="750.62,-83.4941 759.216,-77.301 748.634,-76.7816 750.62,-83.4941"/>
</g>
<!-- Node13 -->
<g id="node28" class="node"><title>Node13</title>
<polygon fill="white" stroke="#bfbfbf" points="454,-58.5 454,-79.5 552,-79.5 552,-58.5 454,-58.5"/>
<text text-anchor="middle" x="503" y="-66.5" font-family="Helvetica,sans-Serif" font-size="10.00">QGraphicsObject</text>
</g>
<!-- Node9&#45;&gt;Node13 -->
<g id="edge30" class="edge"><title>Node9&#45;&gt;Node13</title>
<path fill="none" stroke="midnightblue" d="M538.93,-116.362C532.851,-108.35 524.363,-97.1605 517.163,-87.6696"/>
<polygon fill="midnightblue" stroke="midnightblue" points="519.851,-85.4222 511.019,-79.5707 514.275,-89.653 519.851,-85.4222"/>
</g>
<!-- Node14 -->
<g id="node30" class="node"><title>Node14</title>
<polygon fill="white" stroke="#bfbfbf" points="569.5,-58.5 569.5,-79.5 614.5,-79.5 614.5,-58.5 569.5,-58.5"/>
<text text-anchor="middle" x="592" y="-66.5" font-family="Helvetica,sans-Serif" font-size="10.00">QSize</text>
</g>
<!-- Node9&#45;&gt;Node14 -->
<g id="edge32" class="edge"><title>Node9&#45;&gt;Node14</title>
<path fill="none" stroke="midnightblue" d="M555.254,-116.362C561.47,-108.35 570.151,-97.1605 577.515,-87.6696"/>
<polygon fill="midnightblue" stroke="midnightblue" points="580.434,-89.617 583.799,-79.5707 574.903,-85.326 580.434,-89.617"/>
</g>
</g>
</svg>
