<?xml version="1.0" encoding="UTF-8" standalone="no"?>
<!DOCTYPE svg PUBLIC "-//W3C//DTD SVG 1.1//EN"
 "http://www.w3.org/Graphics/SVG/1.1/DTD/svg11.dtd">
<!-- Generated by graphviz version 2.26.3 (20100126.1600)
 -->
<!-- Title: G Pages: 1 -->
<svg width="4438pt" height="262pt"
 viewBox="0.00 0.00 4438.06 262.00" xmlns="http://www.w3.org/2000/svg" xmlns:xlink="http://www.w3.org/1999/xlink">
<g id="graph1" class="graph" transform="scale(1 1) rotate(0) translate(4 258)">
<title>G</title>
<polygon fill="white" stroke="white" points="-4,5 -4,-258 4435.06,-258 4435.06,5 -4,5"/>
<!-- Node1 -->
<g id="node1" class="node"><title>Node1</title>
<polygon fill="#bfbfbf" stroke="black" points="1250.5,-232.5 1250.5,-253.5 1379.5,-253.5 1379.5,-232.5 1250.5,-232.5"/>
<text text-anchor="middle" x="1315" y="-240.5" font-family="Helvetica,sans-Serif" font-size="10.00">WindowManagerBase.h</text>
</g>
<!-- Node2 -->
<g id="node3" class="node"><title>Node2</title>
<a xlink:href="WindowManagerBase_8cpp.htm" target="_top" xlink:title="WindowManagerBase.cpp">
<polygon fill="white" stroke="black" points="219,-174.5 219,-195.5 359,-195.5 359,-174.5 219,-174.5"/>
<text text-anchor="middle" x="289" y="-182.5" font-family="Helvetica,sans-Serif" font-size="10.00">WindowManagerBase.cpp</text>
</a>
</g>
<!-- Node1&#45;&gt;Node2 -->
<g id="edge2" class="edge"><title>Node1&#45;&gt;Node2</title>
<path fill="none" stroke="midnightblue" d="M1240.04,-241.54C1079.72,-237.92 691.737,-226.511 368,-196 365.105,-195.727 362.153,-195.425 359.173,-195.1"/>
<polygon fill="midnightblue" stroke="midnightblue" points="1240.2,-245.044 1250.27,-241.767 1240.35,-238.046 1240.2,-245.044"/>
</g>
<!-- Node3 -->
<g id="node5" class="node"><title>Node3</title>
<a xlink:href="WindowServer_8cpp.htm" target="_top" xlink:title="WindowServer.cpp">
<polygon fill="white" stroke="black" points="376.5,-174.5 376.5,-195.5 481.5,-195.5 481.5,-174.5 376.5,-174.5"/>
<text text-anchor="middle" x="429" y="-182.5" font-family="Helvetica,sans-Serif" font-size="10.00">WindowServer.cpp</text>
</a>
</g>
<!-- Node1&#45;&gt;Node3 -->
<g id="edge4" class="edge"><title>Node1&#45;&gt;Node3</title>
<path fill="none" stroke="midnightblue" d="M1240.19,-241.778C1095.05,-238.736 765.304,-228.542 490,-196 487.221,-195.672 484.378,-195.296 481.512,-194.887"/>
<polygon fill="midnightblue" stroke="midnightblue" points="1240.25,-245.28 1250.32,-241.985 1240.39,-238.281 1240.25,-245.28"/>
</g>
<!-- Node4 -->
<g id="node7" class="node"><title>Node4</title>
<a xlink:href="InputWindowManager_8h.htm" target="_top" xlink:title="InputWindowManager.h">
<polygon fill="white" stroke="black" points="499,-174.5 499,-195.5 627,-195.5 627,-174.5 499,-174.5"/>
<text text-anchor="middle" x="563" y="-182.5" font-family="Helvetica,sans-Serif" font-size="10.00">InputWindowManager.h</text>
</a>
</g>
<!-- Node1&#45;&gt;Node4 -->
<g id="edge6" class="edge"><title>Node1&#45;&gt;Node4</title>
<path fill="none" stroke="midnightblue" d="M1240,-239.784C1114.65,-233.966 854.782,-220.016 636,-196 633.07,-195.678 630.077,-195.326 627.056,-194.95"/>
<polygon fill="midnightblue" stroke="midnightblue" points="1240.1,-243.292 1250.25,-240.255 1240.42,-236.299 1240.1,-243.292"/>
</g>
<!-- Node6 -->
<g id="node11" class="node"><title>Node6</title>
<a xlink:href="WindowServerLuna_8cpp.htm" target="_top" xlink:title="WindowServerLuna.cpp">
<polygon fill="white" stroke="black" points="1168,-116.5 1168,-137.5 1296,-137.5 1296,-116.5 1168,-116.5"/>
<text text-anchor="middle" x="1232" y="-124.5" font-family="Helvetica,sans-Serif" font-size="10.00">WindowServerLuna.cpp</text>
</a>
</g>
<!-- Node1&#45;&gt;Node6 -->
<g id="edge156" class="edge"><title>Node1&#45;&gt;Node6</title>
<path fill="none" stroke="midnightblue" d="M1312.92,-222.24C1310.64,-207.689 1305.88,-188.352 1296,-174 1285.13,-158.218 1267.2,-145.718 1253.08,-137.589"/>
<polygon fill="midnightblue" stroke="midnightblue" points="1309.47,-222.809 1314.23,-232.273 1316.41,-221.905 1309.47,-222.809"/>
</g>
<!-- Node8 -->
<g id="node15" class="node"><title>Node8</title>
<a xlink:href="CardWindow_8cpp.htm" target="_top" xlink:title="CardWindow.cpp">
<polygon fill="white" stroke="black" points="4319.5,-116.5 4319.5,-137.5 4416.5,-137.5 4416.5,-116.5 4319.5,-116.5"/>
<text text-anchor="middle" x="4368" y="-124.5" font-family="Helvetica,sans-Serif" font-size="10.00">CardWindow.cpp</text>
</a>
</g>
<!-- Node1&#45;&gt;Node8 -->
<g id="edge14" class="edge"><title>Node1&#45;&gt;Node8</title>
<path fill="none" stroke="midnightblue" d="M1389.89,-242.217C1739.26,-238.458 3211.38,-221.38 3671,-196 3956.18,-180.253 4028.2,-177.999 4311,-138 4313.69,-137.619 4316.45,-137.196 4319.24,-136.744"/>
<polygon fill="midnightblue" stroke="midnightblue" points="1389.6,-238.72 1379.64,-242.327 1389.67,-245.72 1389.6,-238.72"/>
</g>
<!-- Node9 -->
<g id="node17" class="node"><title>Node9</title>
<a xlink:href="CardWindowManager_8h.htm" target="_top" xlink:title="CardWindowManager.h">
<polygon fill="white" stroke="black" points="2851,-174.5 2851,-195.5 2979,-195.5 2979,-174.5 2851,-174.5"/>
<text text-anchor="middle" x="2915" y="-182.5" font-family="Helvetica,sans-Serif" font-size="10.00">CardWindowManager.h</text>
</a>
</g>
<!-- Node1&#45;&gt;Node9 -->
<g id="edge16" class="edge"><title>Node1&#45;&gt;Node9</title>
<path fill="none" stroke="midnightblue" d="M1390.2,-241.87C1656.67,-237.68 2555.26,-221.924 2842,-196 2844.94,-195.735 2847.93,-195.428 2850.96,-195.09"/>
<polygon fill="midnightblue" stroke="midnightblue" points="1389.8,-238.376 1379.86,-242.032 1389.91,-245.375 1389.8,-238.376"/>
</g>
<!-- Node15 -->
<g id="node30" class="node"><title>Node15</title>
<a xlink:href="DockModeWindowManager_8h.htm" target="_top" xlink:title="DockModeWindowManager.h">
<polygon fill="white" stroke="black" points="1677,-174.5 1677,-195.5 1833,-195.5 1833,-174.5 1677,-174.5"/>
<text text-anchor="middle" x="1755" y="-182.5" font-family="Helvetica,sans-Serif" font-size="10.00">DockModeWindowManager.h</text>
</a>
</g>
<!-- Node1&#45;&gt;Node15 -->
<g id="edge30" class="edge"><title>Node1&#45;&gt;Node15</title>
<path fill="none" stroke="midnightblue" d="M1389.91,-233.125C1469.78,-222.597 1595.69,-206 1676.8,-195.308"/>
<polygon fill="midnightblue" stroke="midnightblue" points="1389.38,-229.665 1379.92,-234.442 1390.3,-236.605 1389.38,-229.665"/>
</g>
<!-- Node20 -->
<g id="node41" class="node"><title>Node20</title>
<a xlink:href="DockModeWindow_8cpp.htm" target="_top" xlink:title="DockModeWindow.cpp">
<polygon fill="white" stroke="black" points="2259.5,-58.5 2259.5,-79.5 2384.5,-79.5 2384.5,-58.5 2259.5,-58.5"/>
<text text-anchor="middle" x="2322" y="-66.5" font-family="Helvetica,sans-Serif" font-size="10.00">DockModeWindow.cpp</text>
</a>
</g>
<!-- Node1&#45;&gt;Node20 -->
<g id="edge92" class="edge"><title>Node1&#45;&gt;Node20</title>
<path fill="none" stroke="midnightblue" d="M1389.73,-242.457C1755.29,-239.673 3357.74,-225.951 3856,-196 4109.74,-180.747 4254.61,-326.64 4425,-138 4431.55,-130.744 4431.84,-122.991 4425,-116 4388.41,-78.5789 2729.98,-70.4864 2384.61,-69.2058"/>
<polygon fill="midnightblue" stroke="midnightblue" points="1389.5,-238.959 1379.53,-242.534 1389.56,-245.958 1389.5,-238.959"/>
</g>
<!-- Node31 -->
<g id="node72" class="node"><title>Node31</title>
<a xlink:href="DockModeMenuManager_8h.htm" target="_top" xlink:title="DockModeMenuManager.h">
<polygon fill="white" stroke="black" points="1342.5,-174.5 1342.5,-195.5 1487.5,-195.5 1487.5,-174.5 1342.5,-174.5"/>
<text text-anchor="middle" x="1415" y="-182.5" font-family="Helvetica,sans-Serif" font-size="10.00">DockModeMenuManager.h</text>
</a>
</g>
<!-- Node1&#45;&gt;Node31 -->
<g id="edge82" class="edge"><title>Node1&#45;&gt;Node31</title>
<path fill="none" stroke="midnightblue" d="M1342.41,-227.101C1359.71,-217.066 1381.58,-204.381 1396.77,-195.571"/>
<polygon fill="midnightblue" stroke="midnightblue" points="1340.24,-224.317 1333.34,-232.362 1343.75,-230.372 1340.24,-224.317"/>
</g>
<!-- Node32 -->
<g id="node79" class="node"><title>Node32</title>
<a xlink:href="EmergencyWindowManager_8h.htm" target="_top" xlink:title="EmergencyWindowManager.h">
<polygon fill="white" stroke="black" points="803,-174.5 803,-195.5 961,-195.5 961,-174.5 803,-174.5"/>
<text text-anchor="middle" x="882" y="-182.5" font-family="Helvetica,sans-Serif" font-size="10.00">EmergencyWindowManager.h</text>
</a>
</g>
<!-- Node1&#45;&gt;Node32 -->
<g id="edge94" class="edge"><title>Node1&#45;&gt;Node32</title>
<path fill="none" stroke="midnightblue" d="M1239.92,-232.943C1161.76,-222.474 1039.89,-206.15 960.491,-195.514"/>
<polygon fill="midnightblue" stroke="midnightblue" points="1239.8,-236.458 1250.18,-234.317 1240.73,-229.52 1239.8,-236.458"/>
</g>
<!-- Node34 -->
<g id="node84" class="node"><title>Node34</title>
<a xlink:href="OverlayWindowManager_8h.htm" target="_top" xlink:title="OverlayWindowManager.h">
<polygon fill="white" stroke="black" points="1145,-174.5 1145,-195.5 1287,-195.5 1287,-174.5 1145,-174.5"/>
<text text-anchor="middle" x="1216" y="-182.5" font-family="Helvetica,sans-Serif" font-size="10.00">OverlayWindowManager.h</text>
</a>
</g>
<!-- Node1&#45;&gt;Node34 -->
<g id="edge100" class="edge"><title>Node1&#45;&gt;Node34</title>
<path fill="none" stroke="midnightblue" d="M1287.86,-227.101C1270.73,-217.066 1249.08,-204.381 1234.04,-195.571"/>
<polygon fill="midnightblue" stroke="midnightblue" points="1286.44,-230.327 1296.84,-232.362 1289.98,-224.287 1286.44,-230.327"/>
</g>
<!-- Node37 -->
<g id="node93" class="node"><title>Node37</title>
<a xlink:href="TopLevelWindowManager_8h.htm" target="_top" xlink:title="TopLevelWindowManager.h">
<polygon fill="white" stroke="black" points="978.5,-174.5 978.5,-195.5 1127.5,-195.5 1127.5,-174.5 978.5,-174.5"/>
<text text-anchor="middle" x="1053" y="-182.5" font-family="Helvetica,sans-Serif" font-size="10.00">TopLevelWindowManager.h</text>
</a>
</g>
<!-- Node1&#45;&gt;Node37 -->
<g id="edge112" class="edge"><title>Node1&#45;&gt;Node37</title>
<path fill="none" stroke="midnightblue" d="M1257.51,-230.274C1210.45,-219.855 1144.66,-205.292 1100.54,-195.523"/>
<polygon fill="midnightblue" stroke="midnightblue" points="1257.03,-233.752 1267.55,-232.497 1258.55,-226.918 1257.03,-233.752"/>
</g>
<!-- Node39 -->
<g id="node99" class="node"><title>Node39</title>
<a xlink:href="DashboardWindowManager_8h.htm" target="_top" xlink:title="DashboardWindowManager.h">
<polygon fill="white" stroke="black" points="2676.5,-174.5 2676.5,-195.5 2833.5,-195.5 2833.5,-174.5 2676.5,-174.5"/>
<text text-anchor="middle" x="2755" y="-182.5" font-family="Helvetica,sans-Serif" font-size="10.00">DashboardWindowManager.h</text>
</a>
</g>
<!-- Node1&#45;&gt;Node39 -->
<g id="edge120" class="edge"><title>Node1&#45;&gt;Node39</title>
<path fill="none" stroke="midnightblue" d="M1389.98,-239.98C1637.03,-230.029 2424.04,-198.33 2676.35,-188.168"/>
<polygon fill="midnightblue" stroke="midnightblue" points="1389.52,-236.495 1379.67,-240.395 1389.8,-243.49 1389.52,-236.495"/>
</g>
<!-- Node44 -->
<g id="node116" class="node"><title>Node44</title>
<a xlink:href="MenuWindowManager_8h.htm" target="_top" xlink:title="MenuWindowManager.h">
<polygon fill="white" stroke="black" points="3531.5,-174.5 3531.5,-195.5 3662.5,-195.5 3662.5,-174.5 3531.5,-174.5"/>
<text text-anchor="middle" x="3597" y="-182.5" font-family="Helvetica,sans-Serif" font-size="10.00">MenuWindowManager.h</text>
</a>
</g>
<!-- Node1&#45;&gt;Node44 -->
<g id="edge144" class="edge"><title>Node1&#45;&gt;Node44</title>
<path fill="none" stroke="midnightblue" d="M1389.86,-241.097C1738.82,-232.228 3202.65,-195.023 3531.31,-186.67"/>
<polygon fill="midnightblue" stroke="midnightblue" points="1389.53,-237.605 1379.62,-241.358 1389.71,-244.602 1389.53,-237.605"/>
</g>
<!-- Node46 -->
<g id="node125" class="node"><title>Node46</title>
<a xlink:href="WindowManagerMinimal_8h.htm" target="_top" xlink:title="WindowManagerMinimal.h">
<polygon fill="white" stroke="black" points="644.5,-174.5 644.5,-195.5 785.5,-195.5 785.5,-174.5 644.5,-174.5"/>
<text text-anchor="middle" x="715" y="-182.5" font-family="Helvetica,sans-Serif" font-size="10.00">WindowManagerMinimal.h</text>
</a>
</g>
<!-- Node1&#45;&gt;Node46 -->
<g id="edge158" class="edge"><title>Node1&#45;&gt;Node46</title>
<path fill="none" stroke="midnightblue" d="M1240.19,-237.395C1138.9,-229.545 952.544,-214.178 794,-196 791.249,-195.685 788.445,-195.351 785.614,-195.005"/>
<polygon fill="midnightblue" stroke="midnightblue" points="1240.09,-240.897 1250.33,-238.177 1240.62,-233.918 1240.09,-240.897"/>
</g>
<!-- Node5 -->
<g id="node9" class="node"><title>Node5</title>
<a xlink:href="InputWindowManager_8cpp.htm" target="_top" xlink:title="InputWindowManager.cpp">
<polygon fill="white" stroke="black" points="0,-116.5 0,-137.5 140,-137.5 140,-116.5 0,-116.5"/>
<text text-anchor="middle" x="70" y="-124.5" font-family="Helvetica,sans-Serif" font-size="10.00">InputWindowManager.cpp</text>
</a>
</g>
<!-- Node4&#45;&gt;Node5 -->
<g id="edge8" class="edge"><title>Node4&#45;&gt;Node5</title>
<path fill="none" stroke="midnightblue" d="M488.776,-173.888C337.128,-154.712 297.019,-156.113 149,-138 146.114,-137.647 143.169,-137.277 140.195,-136.897"/>
<polygon fill="midnightblue" stroke="midnightblue" points="488.566,-177.389 498.928,-175.181 489.451,-170.445 488.566,-177.389"/>
</g>
<!-- Node4&#45;&gt;Node6 -->
<g id="edge10" class="edge"><title>Node4&#45;&gt;Node6</title>
<path fill="none" stroke="midnightblue" d="M637.167,-173.95C869.336,-149.031 930.671,-163.02 1159,-138 1161.93,-137.679 1164.92,-137.327 1167.94,-136.952"/>
<polygon fill="midnightblue" stroke="midnightblue" points="636.62,-170.489 627.056,-175.048 637.375,-177.448 636.62,-170.489"/>
</g>
<!-- Node7 -->
<g id="node13" class="node"><title>Node7</title>
<a xlink:href="WindowServerMinimal_8cpp.htm" target="_top" xlink:title="WindowServerMinimal.cpp">
<polygon fill="white" stroke="black" points="157.5,-116.5 157.5,-137.5 298.5,-137.5 298.5,-116.5 157.5,-116.5"/>
<text text-anchor="middle" x="228" y="-124.5" font-family="Helvetica,sans-Serif" font-size="10.00">WindowServerMinimal.cpp</text>
</a>
</g>
<!-- Node4&#45;&gt;Node7 -->
<g id="edge12" class="edge"><title>Node4&#45;&gt;Node7</title>
<path fill="none" stroke="midnightblue" d="M492.128,-172.73C431.791,-162.283 346.032,-147.435 288.78,-137.523"/>
<polygon fill="midnightblue" stroke="midnightblue" points="491.884,-176.239 502.334,-174.497 493.078,-169.342 491.884,-176.239"/>
</g>
<!-- Node9&#45;&gt;Node6 -->
<g id="edge28" class="edge"><title>Node9&#45;&gt;Node6</title>
<path fill="none" stroke="midnightblue" d="M2840.7,-173.994C2210.03,-119.25 2047.69,-164.436 1419,-138 1378.06,-136.278 1332.12,-133.587 1296.02,-131.297"/>
<polygon fill="midnightblue" stroke="midnightblue" points="2840.69,-177.507 2850.96,-174.89 2841.3,-170.533 2840.69,-177.507"/>
</g>
<!-- Node10 -->
<g id="node19" class="node"><title>Node10</title>
<a xlink:href="SystemUiController_8cpp.htm" target="_top" xlink:title="SystemUiController.cpp">
<polygon fill="white" stroke="black" points="2691.5,-116.5 2691.5,-137.5 2818.5,-137.5 2818.5,-116.5 2691.5,-116.5"/>
<text text-anchor="middle" x="2755" y="-124.5" font-family="Helvetica,sans-Serif" font-size="10.00">SystemUiController.cpp</text>
</a>
</g>
<!-- Node9&#45;&gt;Node10 -->
<g id="edge18" class="edge"><title>Node9&#45;&gt;Node10</title>
<path fill="none" stroke="midnightblue" d="M2876.41,-171.009C2847.97,-160.702 2809.9,-146.903 2784.03,-137.523"/>
<polygon fill="midnightblue" stroke="midnightblue" points="2875.43,-174.379 2886.03,-174.497 2877.82,-167.798 2875.43,-174.379"/>
</g>
<!-- Node11 -->
<g id="node21" class="node"><title>Node11</title>
<a xlink:href="CardWindowManager_8cpp.htm" target="_top" xlink:title="CardWindowManager.cpp">
<polygon fill="white" stroke="black" points="3776,-116.5 3776,-137.5 3916,-137.5 3916,-116.5 3776,-116.5"/>
<text text-anchor="middle" x="3846" y="-124.5" font-family="Helvetica,sans-Serif" font-size="10.00">CardWindowManager.cpp</text>
</a>
</g>
<!-- Node9&#45;&gt;Node11 -->
<g id="edge20" class="edge"><title>Node9&#45;&gt;Node11</title>
<path fill="none" stroke="midnightblue" d="M2989.61,-182.972C3137.97,-178.479 3480.45,-165.804 3767,-138 3769.89,-137.719 3772.85,-137.41 3775.82,-137.08"/>
<polygon fill="midnightblue" stroke="midnightblue" points="2989.16,-179.484 2979.27,-183.282 2989.37,-186.481 2989.16,-179.484"/>
</g>
<!-- Node12 -->
<g id="node23" class="node"><title>Node12</title>
<a xlink:href="CardWindowManagerStates_8cpp.htm" target="_top" xlink:title="CardWindowManagerStates.cpp">
<polygon fill="white" stroke="black" points="3934,-116.5 3934,-137.5 4104,-137.5 4104,-116.5 3934,-116.5"/>
<text text-anchor="middle" x="4019" y="-124.5" font-family="Helvetica,sans-Serif" font-size="10.00">CardWindowManagerStates.cpp</text>
</a>
</g>
<!-- Node9&#45;&gt;Node12 -->
<g id="edge22" class="edge"><title>Node9&#45;&gt;Node12</title>
<path fill="none" stroke="midnightblue" d="M2989.38,-183.32C3156.74,-179.151 3575.63,-166.536 3925,-138 3927.95,-137.759 3930.95,-137.498 3933.97,-137.22"/>
<polygon fill="midnightblue" stroke="midnightblue" points="2989.11,-179.826 2979.2,-183.571 2989.29,-186.824 2989.11,-179.826"/>
</g>
<!-- Node13 -->
<g id="node25" class="node"><title>Node13</title>
<a xlink:href="quicklaunchbar_8cpp.htm" target="_top" xlink:title="quicklaunchbar.cpp">
<polygon fill="white" stroke="black" points="3652,-116.5 3652,-137.5 3758,-137.5 3758,-116.5 3652,-116.5"/>
<text text-anchor="middle" x="3705" y="-124.5" font-family="Helvetica,sans-Serif" font-size="10.00">quicklaunchbar.cpp</text>
</a>
</g>
<!-- Node9&#45;&gt;Node13 -->
<g id="edge24" class="edge"><title>Node9&#45;&gt;Node13</title>
<path fill="none" stroke="midnightblue" d="M2989.39,-182.926C3121.42,-178.637 3405.19,-166.683 3643,-138 3645.93,-137.647 3648.93,-137.245 3651.96,-136.81"/>
<polygon fill="midnightblue" stroke="midnightblue" points="2988.89,-179.44 2979,-183.258 2989.11,-186.437 2988.89,-179.44"/>
</g>
<!-- Node14 -->
<g id="node27" class="node"><title>Node14</title>
<a xlink:href="OverlayWindowManager_8cpp.htm" target="_top" xlink:title="OverlayWindowManager.cpp">
<polygon fill="white" stroke="black" points="2107.5,-116.5 2107.5,-137.5 2260.5,-137.5 2260.5,-116.5 2107.5,-116.5"/>
<text text-anchor="middle" x="2184" y="-124.5" font-family="Helvetica,sans-Serif" font-size="10.00">OverlayWindowManager.cpp</text>
</a>
</g>
<!-- Node9&#45;&gt;Node14 -->
<g id="edge26" class="edge"><title>Node9&#45;&gt;Node14</title>
<path fill="none" stroke="midnightblue" d="M2840.96,-173.962C2603.4,-148.448 2541.34,-156.361 2307,-138 2292.04,-136.828 2276.06,-135.474 2260.75,-134.126"/>
<polygon fill="midnightblue" stroke="midnightblue" points="2840.63,-177.446 2850.94,-175.043 2841.38,-170.487 2840.63,-177.446"/>
</g>
<!-- Node15&#45;&gt;Node6 -->
<g id="edge80" class="edge"><title>Node15&#45;&gt;Node6</title>
<path fill="none" stroke="midnightblue" d="M1667.04,-175.246C1562.09,-163.607 1389.15,-144.428 1296.07,-134.105"/>
<polygon fill="midnightblue" stroke="midnightblue" points="1666.66,-178.725 1676.98,-176.348 1667.43,-171.767 1666.66,-178.725"/>
</g>
<!-- Node16 -->
<g id="node32" class="node"><title>Node16</title>
<a xlink:href="DockModeAppMenuContainer_8cpp.htm" target="_top" xlink:title="DockModeAppMenuContainer.cpp">
<polygon fill="white" stroke="black" points="1563.5,-58.5 1563.5,-79.5 1742.5,-79.5 1742.5,-58.5 1563.5,-58.5"/>
<text text-anchor="middle" x="1653" y="-66.5" font-family="Helvetica,sans-Serif" font-size="10.00">DockModeAppMenuContainer.cpp</text>
</a>
</g>
<!-- Node15&#45;&gt;Node16 -->
<g id="edge32" class="edge"><title>Node15&#45;&gt;Node16</title>
<path fill="none" stroke="midnightblue" d="M1682.17,-172.375C1645.28,-164.341 1605.99,-152.681 1595,-138 1578.96,-116.577 1610.23,-92.987 1632.76,-79.6838"/>
<polygon fill="midnightblue" stroke="midnightblue" points="1681.48,-175.806 1691.99,-174.442 1682.92,-168.956 1681.48,-175.806"/>
</g>
<!-- Node17 -->
<g id="node34" class="node"><title>Node17</title>
<a xlink:href="DockModeLaunchPoint_8h.htm" target="_top" xlink:title="DockModeLaunchPoint.h">
<polygon fill="white" stroke="black" points="1604,-116.5 1604,-137.5 1738,-137.5 1738,-116.5 1604,-116.5"/>
<text text-anchor="middle" x="1671" y="-124.5" font-family="Helvetica,sans-Serif" font-size="10.00">DockModeLaunchPoint.h</text>
</a>
</g>
<!-- Node15&#45;&gt;Node17 -->
<g id="edge34" class="edge"><title>Node15&#45;&gt;Node17</title>
<path fill="none" stroke="midnightblue" d="M1731.16,-168.541C1716.76,-158.597 1698.83,-146.218 1686.31,-137.571"/>
<polygon fill="midnightblue" stroke="midnightblue" points="1729.38,-171.56 1739.59,-174.362 1733.35,-165.8 1729.38,-171.56"/>
</g>
<!-- Node18 -->
<g id="node37" class="node"><title>Node18</title>
<a xlink:href="DockModeLaunchPoint_8cpp.htm" target="_top" xlink:title="DockModeLaunchPoint.cpp">
<polygon fill="white" stroke="black" points="1798,-58.5 1798,-79.5 1944,-79.5 1944,-58.5 1798,-58.5"/>
<text text-anchor="middle" x="1871" y="-66.5" font-family="Helvetica,sans-Serif" font-size="10.00">DockModeLaunchPoint.cpp</text>
</a>
</g>
<!-- Node15&#45;&gt;Node18 -->
<g id="edge62" class="edge"><title>Node15&#45;&gt;Node18</title>
<path fill="none" stroke="midnightblue" d="M1838.94,-172.541C1878.32,-164.806 1919.19,-153.377 1931,-138 1947.53,-116.471 1915.21,-92.9167 1891.92,-79.6488"/>
<polygon fill="midnightblue" stroke="midnightblue" points="1838.15,-169.128 1828.97,-174.428 1839.45,-176.006 1838.15,-169.128"/>
</g>
<!-- Node19 -->
<g id="node39" class="node"><title>Node19</title>
<a xlink:href="DockModeMenuManager_8cpp.htm" target="_top" xlink:title="DockModeMenuManager.cpp">
<polygon fill="white" stroke="black" points="1390,-58.5 1390,-79.5 1546,-79.5 1546,-58.5 1390,-58.5"/>
<text text-anchor="middle" x="1468" y="-66.5" font-family="Helvetica,sans-Serif" font-size="10.00">DockModeMenuManager.cpp</text>
</a>
</g>
<!-- Node15&#45;&gt;Node19 -->
<g id="edge64" class="edge"><title>Node15&#45;&gt;Node19</title>
<path fill="none" stroke="midnightblue" d="M1694.04,-172.076C1661.32,-164.144 1620.7,-152.677 1586,-138 1547.1,-121.543 1505.24,-94.6127 1483.35,-79.73"/>
<polygon fill="midnightblue" stroke="midnightblue" points="1693.39,-175.519 1703.93,-174.424 1695.01,-168.708 1693.39,-175.519"/>
</g>
<!-- Node15&#45;&gt;Node20 -->
<g id="edge68" class="edge"><title>Node15&#45;&gt;Node20</title>
<path fill="none" stroke="midnightblue" d="M1843.31,-180.773C1980.45,-173.636 2232.7,-157.996 2269,-138 2293.08,-124.736 2309.71,-95.4568 2317.31,-79.6382"/>
<polygon fill="midnightblue" stroke="midnightblue" points="1843.05,-177.282 1833.24,-181.293 1843.41,-184.273 1843.05,-177.282"/>
</g>
<!-- Node21 -->
<g id="node43" class="node"><title>Node21</title>
<a xlink:href="DockModeWindowManager_8cpp.htm" target="_top" xlink:title="DockModeWindowManager.cpp">
<polygon fill="white" stroke="black" points="1686.5,-0.5 1686.5,-21.5 1853.5,-21.5 1853.5,-0.5 1686.5,-0.5"/>
<text text-anchor="middle" x="1770" y="-8.5" font-family="Helvetica,sans-Serif" font-size="10.00">DockModeWindowManager.cpp</text>
</a>
</g>
<!-- Node15&#45;&gt;Node21 -->
<g id="edge70" class="edge"><title>Node15&#45;&gt;Node21</title>
<path fill="none" stroke="midnightblue" d="M1666.62,-180.844C1581.19,-175.386 1458.98,-163.338 1419,-138 1385.75,-116.928 1354.89,-87.4558 1381,-58 1400.88,-35.5701 1577.77,-21.7471 1686.06,-15.3115"/>
<polygon fill="midnightblue" stroke="midnightblue" points="1666.66,-184.353 1676.85,-181.477 1667.09,-177.366 1666.66,-184.353"/>
</g>
<!-- Node22 -->
<g id="node45" class="node"><title>Node22</title>
<a xlink:href="DockModeWindow_8h.htm" target="_top" xlink:title="DockModeWindow.h">
<polygon fill="white" stroke="black" points="1977.5,-116.5 1977.5,-137.5 2090.5,-137.5 2090.5,-116.5 1977.5,-116.5"/>
<text text-anchor="middle" x="2034" y="-124.5" font-family="Helvetica,sans-Serif" font-size="10.00">DockModeWindow.h</text>
</a>
</g>
<!-- Node15&#45;&gt;Node22 -->
<g id="edge46" class="edge"><title>Node15&#45;&gt;Node22</title>
<path fill="none" stroke="midnightblue" d="M1815.59,-172.404C1865.75,-161.977 1936.19,-147.333 1983.38,-137.523"/>
<polygon fill="midnightblue" stroke="midnightblue" points="1814.6,-169.034 1805.52,-174.497 1816.03,-175.888 1814.6,-169.034"/>
</g>
<!-- Node26 -->
<g id="node59" class="node"><title>Node26</title>
<a xlink:href="DockModePositionManager_8cpp.htm" target="_top" xlink:title="DockModePositionManager.cpp">
<polygon fill="white" stroke="black" points="1755.5,-116.5 1755.5,-137.5 1922.5,-137.5 1922.5,-116.5 1755.5,-116.5"/>
<text text-anchor="middle" x="1839" y="-124.5" font-family="Helvetica,sans-Serif" font-size="10.00">DockModePositionManager.cpp</text>
</a>
</g>
<!-- Node15&#45;&gt;Node26 -->
<g id="edge66" class="edge"><title>Node15&#45;&gt;Node26</title>
<path fill="none" stroke="midnightblue" d="M1778.84,-168.541C1793.24,-158.597 1811.17,-146.218 1823.69,-137.571"/>
<polygon fill="midnightblue" stroke="midnightblue" points="1776.65,-165.8 1770.41,-174.362 1780.62,-171.56 1776.65,-165.8"/>
</g>
<!-- Node27 -->
<g id="node63" class="node"><title>Node27</title>
<a xlink:href="LockWindow_8cpp.htm" target="_top" xlink:title="LockWindow.cpp">
<polygon fill="white" stroke="black" points="3000,-116.5 3000,-137.5 3096,-137.5 3096,-116.5 3000,-116.5"/>
<text text-anchor="middle" x="3048" y="-124.5" font-family="Helvetica,sans-Serif" font-size="10.00">LockWindow.cpp</text>
</a>
</g>
<!-- Node15&#45;&gt;Node27 -->
<g id="edge72" class="edge"><title>Node15&#45;&gt;Node27</title>
<path fill="none" stroke="midnightblue" d="M1843.65,-182.413C2107.78,-174.594 2878.17,-150.955 2991,-138 2993.9,-137.667 2996.88,-137.268 2999.88,-136.822"/>
<polygon fill="midnightblue" stroke="midnightblue" points="1843.23,-178.924 1833.34,-182.718 1843.44,-185.921 1843.23,-178.924"/>
</g>
<!-- Node28 -->
<g id="node65" class="node"><title>Node28</title>
<a xlink:href="DashboardWindowContainer_8cpp.htm" target="_top" xlink:title="DashboardWindowContainer.cpp">
<polygon fill="white" stroke="black" points="2316,-116.5 2316,-137.5 2488,-137.5 2488,-116.5 2316,-116.5"/>
<text text-anchor="middle" x="2402" y="-124.5" font-family="Helvetica,sans-Serif" font-size="10.00">DashboardWindowContainer.cpp</text>
</a>
</g>
<!-- Node15&#45;&gt;Node28 -->
<g id="edge74" class="edge"><title>Node15&#45;&gt;Node28</title>
<path fill="none" stroke="midnightblue" d="M1843.63,-178.038C1951.86,-169.386 2140.49,-153.819 2302,-138 2306.52,-137.557 2311.15,-137.091 2315.83,-136.611"/>
<polygon fill="midnightblue" stroke="midnightblue" points="1843.1,-174.569 1833.41,-178.854 1843.65,-181.547 1843.1,-174.569"/>
</g>
<!-- Node29 -->
<g id="node67" class="node"><title>Node29</title>
<a xlink:href="DashboardWindowManager_8cpp.htm" target="_top" xlink:title="DashboardWindowManager.cpp">
<polygon fill="white" stroke="black" points="2506,-116.5 2506,-137.5 2674,-137.5 2674,-116.5 2506,-116.5"/>
<text text-anchor="middle" x="2590" y="-124.5" font-family="Helvetica,sans-Serif" font-size="10.00">DashboardWindowManager.cpp</text>
</a>
</g>
<!-- Node15&#45;&gt;Node29 -->
<g id="edge76" class="edge"><title>Node15&#45;&gt;Node29</title>
<path fill="none" stroke="midnightblue" d="M1843.27,-180.967C1982.43,-174.258 2261.23,-159.395 2497,-138 2499.91,-137.736 2502.88,-137.454 2505.87,-137.159"/>
<polygon fill="midnightblue" stroke="midnightblue" points="1842.91,-177.48 1833.09,-181.455 1843.25,-184.472 1842.91,-177.48"/>
</g>
<!-- Node30 -->
<g id="node69" class="node"><title>Node30</title>
<a xlink:href="StatusBar_8cpp.htm" target="_top" xlink:title="StatusBar.cpp">
<polygon fill="white" stroke="black" points="1428,-116.5 1428,-137.5 1510,-137.5 1510,-116.5 1428,-116.5"/>
<text text-anchor="middle" x="1469" y="-124.5" font-family="Helvetica,sans-Serif" font-size="10.00">StatusBar.cpp</text>
</a>
</g>
<!-- Node15&#45;&gt;Node30 -->
<g id="edge78" class="edge"><title>Node15&#45;&gt;Node30</title>
<path fill="none" stroke="midnightblue" d="M1693.16,-172.46C1637.8,-161.232 1558.16,-145.081 1510.21,-135.358"/>
<polygon fill="midnightblue" stroke="midnightblue" points="1692.71,-175.939 1703.21,-174.497 1694.1,-169.079 1692.71,-175.939"/>
</g>
<!-- Node17&#45;&gt;Node16 -->
<g id="edge36" class="edge"><title>Node17&#45;&gt;Node16</title>
<path fill="none" stroke="midnightblue" d="M1664.73,-106.784C1661.88,-97.617 1658.63,-87.1572 1656.28,-79.5707"/>
<polygon fill="midnightblue" stroke="midnightblue" points="1661.39,-107.849 1667.7,-116.362 1668.08,-105.774 1661.39,-107.849"/>
</g>
<!-- Node17&#45;&gt;Node18 -->
<g id="edge38" class="edge"><title>Node17&#45;&gt;Node18</title>
<path fill="none" stroke="midnightblue" d="M1716.93,-113.68C1752.7,-103.307 1801.66,-89.1078 1834.71,-79.5231"/>
<polygon fill="midnightblue" stroke="midnightblue" points="1715.85,-110.35 1707.22,-116.497 1717.8,-117.073 1715.85,-110.35"/>
</g>
<!-- Node17&#45;&gt;Node19 -->
<g id="edge40" class="edge"><title>Node17&#45;&gt;Node19</title>
<path fill="none" stroke="midnightblue" d="M1624.38,-113.68C1588.07,-103.307 1538.38,-89.1078 1504.83,-79.5231"/>
<polygon fill="midnightblue" stroke="midnightblue" points="1623.66,-117.115 1634.24,-116.497 1625.58,-110.384 1623.66,-117.115"/>
</g>
<!-- Node17&#45;&gt;Node20 -->
<g id="edge42" class="edge"><title>Node17&#45;&gt;Node20</title>
<path fill="none" stroke="midnightblue" d="M1748.19,-115.939C1972,-92.2817 2031.12,-104.843 2251,-80 2253.73,-79.6919 2256.51,-79.3555 2259.32,-78.998"/>
<polygon fill="midnightblue" stroke="midnightblue" points="1747.67,-112.475 1738.1,-117.019 1748.42,-119.435 1747.67,-112.475"/>
</g>
<!-- Node17&#45;&gt;Node21 -->
<g id="edge44" class="edge"><title>Node17&#45;&gt;Node21</title>
<path fill="none" stroke="midnightblue" d="M1709.14,-112.154C1724.13,-104.583 1740.29,-93.9734 1751,-80 1764.31,-62.6464 1768.3,-36.5407 1769.49,-21.9194"/>
<polygon fill="midnightblue" stroke="midnightblue" points="1707.56,-109.033 1700.02,-116.478 1710.55,-115.358 1707.56,-109.033"/>
</g>
<!-- Node22&#45;&gt;Node18 -->
<g id="edge54" class="edge"><title>Node22&#45;&gt;Node18</title>
<path fill="none" stroke="midnightblue" d="M1994.68,-113.009C1965.72,-102.702 1926.93,-88.903 1900.57,-79.5231"/>
<polygon fill="midnightblue" stroke="midnightblue" points="1993.89,-116.442 2004.48,-116.497 1996.23,-109.847 1993.89,-116.442"/>
</g>
<!-- Node22&#45;&gt;Node20 -->
<g id="edge56" class="edge"><title>Node22&#45;&gt;Node20</title>
<path fill="none" stroke="midnightblue" d="M2096.22,-114.47C2148.02,-104.038 2220.93,-89.3535 2269.75,-79.5231"/>
<polygon fill="midnightblue" stroke="midnightblue" points="2095.27,-111.091 2086.15,-116.497 2096.65,-117.953 2095.27,-111.091"/>
</g>
<!-- Node22&#45;&gt;Node21 -->
<g id="edge58" class="edge"><title>Node22&#45;&gt;Node21</title>
<path fill="none" stroke="midnightblue" d="M2017.48,-108.885C2002.21,-93.1995 1978.14,-71.0375 1953,-58 1918.35,-40.0273 1876.37,-28.6079 1841.36,-21.5327"/>
<polygon fill="midnightblue" stroke="midnightblue" points="2015.2,-111.569 2024.63,-116.415 2020.28,-106.751 2015.2,-111.569"/>
</g>
<!-- Node23 -->
<g id="node47" class="node"><title>Node23</title>
<a xlink:href="DockModeClock_8h.htm" target="_top" xlink:title="DockModeClock.h">
<polygon fill="white" stroke="black" points="2140,-58.5 2140,-79.5 2242,-79.5 2242,-58.5 2140,-58.5"/>
<text text-anchor="middle" x="2191" y="-66.5" font-family="Helvetica,sans-Serif" font-size="10.00">DockModeClock.h</text>
</a>
</g>
<!-- Node22&#45;&gt;Node23 -->
<g id="edge48" class="edge"><title>Node22&#45;&gt;Node23</title>
<path fill="none" stroke="midnightblue" d="M2071.87,-113.009C2099.77,-102.702 2137.12,-88.903 2162.52,-79.5231"/>
<polygon fill="midnightblue" stroke="midnightblue" points="2070.6,-109.748 2062.43,-116.497 2073.02,-116.314 2070.6,-109.748"/>
</g>
<!-- Node25 -->
<g id="node55" class="node"><title>Node25</title>
<a xlink:href="WebAppMgrProxy_8cpp.htm" target="_top" xlink:title="WebAppMgrProxy.cpp">
<polygon fill="white" stroke="black" points="2000,-58.5 2000,-79.5 2122,-79.5 2122,-58.5 2000,-58.5"/>
<text text-anchor="middle" x="2061" y="-66.5" font-family="Helvetica,sans-Serif" font-size="10.00">WebAppMgrProxy.cpp</text>
</a>
</g>
<!-- Node22&#45;&gt;Node25 -->
<g id="edge60" class="edge"><title>Node22&#45;&gt;Node25</title>
<path fill="none" stroke="midnightblue" d="M2043.27,-107.079C2047.57,-97.8422 2052.51,-87.2388 2056.08,-79.5707"/>
<polygon fill="midnightblue" stroke="midnightblue" points="2040,-105.819 2038.95,-116.362 2046.35,-108.773 2040,-105.819"/>
</g>
<!-- Node23&#45;&gt;Node21 -->
<g id="edge52" class="edge"><title>Node23&#45;&gt;Node21</title>
<path fill="none" stroke="midnightblue" d="M2129.92,-57.89C2029.24,-42.2745 1924.62,-29.1137 1853.7,-20.6497"/>
<polygon fill="midnightblue" stroke="midnightblue" points="2129.55,-61.3736 2139.97,-59.4581 2130.63,-54.4573 2129.55,-61.3736"/>
</g>
<!-- Node24 -->
<g id="node49" class="node"><title>Node24</title>
<a xlink:href="DockModeClock_8cpp.htm" target="_top" xlink:title="DockModeClock.cpp">
<polygon fill="white" stroke="black" points="2134.5,-0.5 2134.5,-21.5 2247.5,-21.5 2247.5,-0.5 2134.5,-0.5"/>
<text text-anchor="middle" x="2191" y="-8.5" font-family="Helvetica,sans-Serif" font-size="10.00">DockModeClock.cpp</text>
</a>
</g>
<!-- Node23&#45;&gt;Node24 -->
<g id="edge50" class="edge"><title>Node23&#45;&gt;Node24</title>
<path fill="none" stroke="midnightblue" d="M2191,-48.1906C2191,-39.1684 2191,-28.9941 2191,-21.5707"/>
<polygon fill="midnightblue" stroke="midnightblue" points="2187.5,-48.3619 2191,-58.3619 2194.5,-48.3619 2187.5,-48.3619"/>
</g>
<!-- Node31&#45;&gt;Node6 -->
<g id="edge90" class="edge"><title>Node31&#45;&gt;Node6</title>
<path fill="none" stroke="midnightblue" d="M1372.13,-171.413C1339.48,-161.065 1295.18,-147.026 1265.2,-137.523"/>
<polygon fill="midnightblue" stroke="midnightblue" points="1371.27,-174.812 1381.86,-174.497 1373.38,-168.139 1371.27,-174.812"/>
</g>
<!-- Node31&#45;&gt;Node19 -->
<g id="edge84" class="edge"><title>Node31&#45;&gt;Node19</title>
<path fill="none" stroke="midnightblue" d="M1412.33,-163.902C1411.45,-149.721 1412.1,-130.961 1419,-116 1426.01,-100.8 1440.32,-88.0014 1451.67,-79.6171"/>
<polygon fill="midnightblue" stroke="midnightblue" points="1408.87,-164.497 1413.28,-174.133 1415.84,-163.854 1408.87,-164.497"/>
</g>
<!-- Node31&#45;&gt;Node21 -->
<g id="edge86" class="edge"><title>Node31&#45;&gt;Node21</title>
<path fill="none" stroke="midnightblue" d="M1397.85,-167.002C1374.47,-140.297 1338.59,-89.9109 1367,-58 1387.84,-34.5867 1574.53,-21.0099 1686.37,-14.9101"/>
<polygon fill="midnightblue" stroke="midnightblue" points="1395.31,-169.415 1404.61,-174.482 1400.5,-164.718 1395.31,-169.415"/>
</g>
<!-- Node31&#45;&gt;Node30 -->
<g id="edge88" class="edge"><title>Node31&#45;&gt;Node30</title>
<path fill="none" stroke="midnightblue" d="M1431.92,-166.83C1440.88,-157.208 1451.56,-145.728 1459.16,-137.571"/>
<polygon fill="midnightblue" stroke="midnightblue" points="1429.16,-164.658 1424.9,-174.362 1434.28,-169.428 1429.16,-164.658"/>
</g>
<!-- Node32&#45;&gt;Node6 -->
<g id="edge98" class="edge"><title>Node32&#45;&gt;Node6</title>
<path fill="none" stroke="midnightblue" d="M955.265,-172.859C1018.34,-162.406 1108.44,-147.476 1168.5,-137.523"/>
<polygon fill="midnightblue" stroke="midnightblue" points="954.676,-169.409 945.382,-174.497 955.82,-176.315 954.676,-169.409"/>
</g>
<!-- Node33 -->
<g id="node81" class="node"><title>Node33</title>
<a xlink:href="EmergencyWindowManager_8cpp.htm" target="_top" xlink:title="EmergencyWindowManager.cpp">
<polygon fill="white" stroke="black" points="486,-116.5 486,-137.5 656,-137.5 656,-116.5 486,-116.5"/>
<text text-anchor="middle" x="571" y="-124.5" font-family="Helvetica,sans-Serif" font-size="10.00">EmergencyWindowManager.cpp</text>
</a>
</g>
<!-- Node32&#45;&gt;Node33 -->
<g id="edge96" class="edge"><title>Node32&#45;&gt;Node33</title>
<path fill="none" stroke="midnightblue" d="M815.51,-172.6C759.534,-162.161 680.357,-147.394 627.425,-137.523"/>
<polygon fill="midnightblue" stroke="midnightblue" points="815.208,-176.104 825.68,-174.497 816.491,-169.223 815.208,-176.104"/>
</g>
<!-- Node34&#45;&gt;Node6 -->
<g id="edge110" class="edge"><title>Node34&#45;&gt;Node6</title>
<path fill="none" stroke="midnightblue" d="M1221.66,-164.488C1224.17,-155.392 1227.01,-145.076 1229.08,-137.571"/>
<polygon fill="midnightblue" stroke="midnightblue" points="1218.22,-163.791 1218.93,-174.362 1224.97,-165.653 1218.22,-163.791"/>
</g>
<!-- Node34&#45;&gt;Node10 -->
<g id="edge104" class="edge"><title>Node34&#45;&gt;Node10</title>
<path fill="none" stroke="midnightblue" d="M1297.32,-176.708C1309.6,-175.662 1322.13,-174.711 1334,-174 1932.7,-138.146 2085.61,-191.394 2683,-138 2685.77,-137.752 2688.6,-137.466 2691.45,-137.149"/>
<polygon fill="midnightblue" stroke="midnightblue" points="1296.73,-173.246 1287.08,-177.606 1297.34,-180.219 1296.73,-173.246"/>
</g>
<!-- Node34&#45;&gt;Node14 -->
<g id="edge108" class="edge"><title>Node34&#45;&gt;Node14</title>
<path fill="none" stroke="midnightblue" d="M1297.33,-176.925C1309.61,-175.849 1322.13,-174.832 1334,-174 1673.54,-150.197 1759.94,-167.867 2099,-138 2101.67,-137.765 2104.38,-137.509 2107.12,-137.235"/>
<polygon fill="midnightblue" stroke="midnightblue" points="1296.74,-173.464 1287.09,-177.84 1297.36,-180.436 1296.74,-173.464"/>
</g>
<!-- Node35 -->
<g id="node86" class="node"><title>Node35</title>
<a xlink:href="ApplicationManager_8cpp.htm" target="_top" xlink:title="ApplicationManager.cpp">
<polygon fill="white" stroke="black" points="1019.5,-116.5 1019.5,-137.5 1150.5,-137.5 1150.5,-116.5 1019.5,-116.5"/>
<text text-anchor="middle" x="1085" y="-124.5" font-family="Helvetica,sans-Serif" font-size="10.00">ApplicationManager.cpp</text>
</a>
</g>
<!-- Node34&#45;&gt;Node35 -->
<g id="edge102" class="edge"><title>Node34&#45;&gt;Node35</title>
<path fill="none" stroke="midnightblue" d="M1182.9,-170.343C1159.87,-160.15 1129.72,-146.798 1108.99,-137.621"/>
<polygon fill="midnightblue" stroke="midnightblue" points="1181.72,-173.649 1192.28,-174.497 1184.55,-167.248 1181.72,-173.649"/>
</g>
<!-- Node36 -->
<g id="node89" class="node"><title>Node36</title>
<a xlink:href="dimensionsmain_8cpp.htm" target="_top" xlink:title="dimensionsmain.cpp">
<polygon fill="white" stroke="black" points="890,-116.5 890,-137.5 1002,-137.5 1002,-116.5 890,-116.5"/>
<text text-anchor="middle" x="946" y="-124.5" font-family="Helvetica,sans-Serif" font-size="10.00">dimensionsmain.cpp</text>
</a>
</g>
<!-- Node34&#45;&gt;Node36 -->
<g id="edge106" class="edge"><title>Node34&#45;&gt;Node36</title>
<path fill="none" stroke="midnightblue" d="M1157.06,-172.339C1108.54,-161.916 1040.56,-147.313 994.987,-137.523"/>
<polygon fill="midnightblue" stroke="midnightblue" points="1156.59,-175.818 1167.11,-174.497 1158.06,-168.974 1156.59,-175.818"/>
</g>
<!-- Node37&#45;&gt;Node6 -->
<g id="edge118" class="edge"><title>Node37&#45;&gt;Node6</title>
<path fill="none" stroke="midnightblue" d="M1094.93,-171.413C1126.87,-161.065 1170.2,-147.026 1199.52,-137.523"/>
<polygon fill="midnightblue" stroke="midnightblue" points="1093.85,-168.085 1085.42,-174.497 1096.01,-174.744 1093.85,-168.085"/>
</g>
<!-- Node37&#45;&gt;Node21 -->
<g id="edge114" class="edge"><title>Node37&#45;&gt;Node21</title>
<path fill="none" stroke="midnightblue" d="M972.252,-172.565C933.359,-164.758 892.645,-153.254 881,-138 875.067,-130.228 874.521,-123.323 881,-116 933.935,-56.1619 1475.39,-24.7079 1686.43,-14.6461"/>
<polygon fill="midnightblue" stroke="midnightblue" points="971.598,-176.004 982.082,-174.47 972.93,-169.131 971.598,-176.004"/>
</g>
<!-- Node38 -->
<g id="node96" class="node"><title>Node38</title>
<a xlink:href="TopLevelWindowManager_8cpp.htm" target="_top" xlink:title="TopLevelWindowManager.cpp">
<polygon fill="white" stroke="black" points="673.5,-116.5 673.5,-137.5 834.5,-137.5 834.5,-116.5 673.5,-116.5"/>
<text text-anchor="middle" x="754" y="-124.5" font-family="Helvetica,sans-Serif" font-size="10.00">TopLevelWindowManager.cpp</text>
</a>
</g>
<!-- Node37&#45;&gt;Node38 -->
<g id="edge116" class="edge"><title>Node37&#45;&gt;Node38</title>
<path fill="none" stroke="midnightblue" d="M988.74,-172.535C934.944,-162.099 859.031,-147.374 808.248,-137.523"/>
<polygon fill="midnightblue" stroke="midnightblue" points="988.37,-176.028 998.853,-174.497 989.703,-169.156 988.37,-176.028"/>
</g>
<!-- Node39&#45;&gt;Node6 -->
<g id="edge142" class="edge"><title>Node39&#45;&gt;Node6</title>
<path fill="none" stroke="midnightblue" d="M2666.03,-182.596C2451.48,-176.639 1888.59,-160.069 1419,-138 1378.07,-136.076 1332.13,-133.382 1296.03,-131.141"/>
<polygon fill="midnightblue" stroke="midnightblue" points="2666.2,-186.101 2676.29,-182.88 2666.39,-179.104 2666.2,-186.101"/>
</g>
<!-- Node39&#45;&gt;Node10 -->
<g id="edge122" class="edge"><title>Node39&#45;&gt;Node10</title>
<path fill="none" stroke="midnightblue" d="M2755,-164.191C2755,-155.168 2755,-144.994 2755,-137.571"/>
<polygon fill="midnightblue" stroke="midnightblue" points="2751.5,-164.362 2755,-174.362 2758.5,-164.362 2751.5,-164.362"/>
</g>
<!-- Node39&#45;&gt;Node21 -->
<g id="edge124" class="edge"><title>Node39&#45;&gt;Node21</title>
<path fill="none" stroke="midnightblue" d="M2789.54,-169.913C2815.67,-156.434 2844.34,-135.812 2827,-116 2763.2,-43.1047 2092.02,-19.1345 1853.52,-12.8844"/>
<polygon fill="midnightblue" stroke="midnightblue" points="2787.91,-166.814 2780.48,-174.369 2791,-173.095 2787.91,-166.814"/>
</g>
<!-- Node39&#45;&gt;Node27 -->
<g id="edge126" class="edge"><title>Node39&#45;&gt;Node27</title>
<path fill="none" stroke="midnightblue" d="M2817.95,-172.539C2872.42,-161.757 2950.03,-146.394 2999.71,-136.559"/>
<polygon fill="midnightblue" stroke="midnightblue" points="2817.19,-169.121 2808.06,-174.497 2818.55,-175.988 2817.19,-169.121"/>
</g>
<!-- Node39&#45;&gt;Node28 -->
<g id="edge130" class="edge"><title>Node39&#45;&gt;Node28</title>
<path fill="none" stroke="midnightblue" d="M2681.11,-172.859C2617.49,-162.406 2526.62,-147.476 2466.05,-137.523"/>
<polygon fill="midnightblue" stroke="midnightblue" points="2680.64,-176.329 2691.07,-174.497 2681.77,-169.422 2680.64,-176.329"/>
</g>
<!-- Node39&#45;&gt;Node29 -->
<g id="edge132" class="edge"><title>Node39&#45;&gt;Node29</title>
<path fill="none" stroke="midnightblue" d="M2715.58,-171.144C2686.22,-160.823 2646.74,-146.944 2619.94,-137.523"/>
<polygon fill="midnightblue" stroke="midnightblue" points="2714.52,-174.482 2725.12,-174.497 2716.85,-167.878 2714.52,-174.482"/>
</g>
<!-- Node39&#45;&gt;Node30 -->
<g id="edge138" class="edge"><title>Node39&#45;&gt;Node30</title>
<path fill="none" stroke="midnightblue" d="M2666,-182.808C2471.54,-177.707 1994.17,-163.497 1595,-138 1566.62,-136.187 1534.71,-133.394 1510.11,-131.076"/>
<polygon fill="midnightblue" stroke="midnightblue" points="2666.08,-186.311 2676.17,-183.073 2666.26,-179.313 2666.08,-186.311"/>
</g>
<!-- Node40 -->
<g id="node104" class="node"><title>Node40</title>
<a xlink:href="BannerWindow_8cpp.htm" target="_top" xlink:title="BannerWindow.cpp">
<polygon fill="white" stroke="black" points="2874,-116.5 2874,-137.5 2982,-137.5 2982,-116.5 2874,-116.5"/>
<text text-anchor="middle" x="2928" y="-124.5" font-family="Helvetica,sans-Serif" font-size="10.00">BannerWindow.cpp</text>
</a>
</g>
<!-- Node39&#45;&gt;Node40 -->
<g id="edge128" class="edge"><title>Node39&#45;&gt;Node40</title>
<path fill="none" stroke="midnightblue" d="M2795.93,-171.279C2826.75,-160.944 2868.39,-146.985 2896.61,-137.523"/>
<polygon fill="midnightblue" stroke="midnightblue" points="2794.7,-167.999 2786.33,-174.497 2796.92,-174.636 2794.7,-167.999"/>
</g>
<!-- Node41 -->
<g id="node108" class="node"><title>Node41</title>
<a xlink:href="DashboardWindowManagerStates_8cpp.htm" target="_top" xlink:title="DashboardWindowManagerStates.cpp">
<polygon fill="white" stroke="black" points="3114,-116.5 3114,-137.5 3312,-137.5 3312,-116.5 3114,-116.5"/>
<text text-anchor="middle" x="3213" y="-124.5" font-family="Helvetica,sans-Serif" font-size="10.00">DashboardWindowManagerStates.cpp</text>
</a>
</g>
<!-- Node39&#45;&gt;Node41 -->
<g id="edge134" class="edge"><title>Node39&#45;&gt;Node41</title>
<path fill="none" stroke="midnightblue" d="M2843.87,-173.745C2926.63,-163.266 3049.04,-147.764 3129.88,-137.526"/>
<polygon fill="midnightblue" stroke="midnightblue" points="2843.21,-170.301 2833.73,-175.029 2844.09,-177.245 2843.21,-170.301"/>
</g>
<!-- Node42 -->
<g id="node110" class="node"><title>Node42</title>
<a xlink:href="NativeAlertManager_8cpp.htm" target="_top" xlink:title="NativeAlertManager.cpp">
<polygon fill="white" stroke="black" points="3329.5,-116.5 3329.5,-137.5 3460.5,-137.5 3460.5,-116.5 3329.5,-116.5"/>
<text text-anchor="middle" x="3395" y="-124.5" font-family="Helvetica,sans-Serif" font-size="10.00">NativeAlertManager.cpp</text>
</a>
</g>
<!-- Node39&#45;&gt;Node42 -->
<g id="edge136" class="edge"><title>Node39&#45;&gt;Node42</title>
<path fill="none" stroke="midnightblue" d="M2843.93,-173.847C3056.15,-152.88 3112.15,-161.34 3321,-138 3323.71,-137.697 3326.47,-137.37 3329.26,-137.024"/>
<polygon fill="midnightblue" stroke="midnightblue" points="2843.3,-170.391 2833.7,-174.868 2844,-177.357 2843.3,-170.391"/>
</g>
<!-- Node43 -->
<g id="node113" class="node"><title>Node43</title>
<a xlink:href="StatusBarNotificationArea_8cpp.htm" target="_top" xlink:title="StatusBarNotificationArea.cpp">
<polygon fill="white" stroke="black" points="3477.5,-116.5 3477.5,-137.5 3634.5,-137.5 3634.5,-116.5 3477.5,-116.5"/>
<text text-anchor="middle" x="3556" y="-124.5" font-family="Helvetica,sans-Serif" font-size="10.00">StatusBarNotificationArea.cpp</text>
</a>
</g>
<!-- Node39&#45;&gt;Node43 -->
<g id="edge140" class="edge"><title>Node39&#45;&gt;Node43</title>
<path fill="none" stroke="midnightblue" d="M2843.67,-173.897C3121.65,-148.826 3194.3,-163.222 3469,-138 3471.73,-137.749 3474.5,-137.48 3477.31,-137.195"/>
<polygon fill="midnightblue" stroke="midnightblue" points="2843.34,-170.412 2833.69,-174.805 2843.97,-177.384 2843.34,-170.412"/>
</g>
<!-- Node44&#45;&gt;Node6 -->
<g id="edge154" class="edge"><title>Node44&#45;&gt;Node6</title>
<path fill="none" stroke="midnightblue" d="M3521.38,-183.535C3161.65,-176.546 1632.18,-146.567 1419,-138 1378.06,-136.355 1332.12,-133.664 1296.02,-131.356"/>
<polygon fill="midnightblue" stroke="midnightblue" points="3521.36,-187.036 3531.43,-183.731 3521.5,-180.037 3521.36,-187.036"/>
</g>
<!-- Node44&#45;&gt;Node8 -->
<g id="edge146" class="edge"><title>Node44&#45;&gt;Node8</title>
<path fill="none" stroke="midnightblue" d="M3673.03,-183.112C3803.86,-179.168 4079.78,-167.802 4311,-138 4313.7,-137.652 4316.46,-137.255 4319.25,-136.824"/>
<polygon fill="midnightblue" stroke="midnightblue" points="3672.62,-179.622 3662.73,-183.416 3672.83,-186.619 3672.62,-179.622"/>
</g>
<!-- Node44&#45;&gt;Node20 -->
<g id="edge148" class="edge"><title>Node44&#45;&gt;Node20</title>
<path fill="none" stroke="midnightblue" d="M3672.95,-183.616C3809.25,-180.34 4083.94,-169.825 4113,-138 4119.59,-130.779 4119.82,-123.004 4113,-116 4082.21,-84.3891 2697.81,-71.8835 2384.56,-69.4558"/>
<polygon fill="midnightblue" stroke="midnightblue" points="3672.5,-180.126 3662.58,-183.858 3672.66,-187.124 3672.5,-180.126"/>
</g>
<!-- Node44&#45;&gt;Node27 -->
<g id="edge150" class="edge"><title>Node44&#45;&gt;Node27</title>
<path fill="none" stroke="midnightblue" d="M3521.11,-180.008C3424.24,-173.118 3251.62,-159.102 3105,-138 3102.11,-137.584 3099.14,-137.12 3096.15,-136.626"/>
<polygon fill="midnightblue" stroke="midnightblue" points="3520.89,-183.5 3531.11,-180.712 3521.38,-176.518 3520.89,-183.5"/>
</g>
<!-- Node45 -->
<g id="node121" class="node"><title>Node45</title>
<a xlink:href="MenuWindowManager_8cpp.htm" target="_top" xlink:title="MenuWindowManager.cpp">
<polygon fill="white" stroke="black" points="4159.5,-116.5 4159.5,-137.5 4302.5,-137.5 4302.5,-116.5 4159.5,-116.5"/>
<text text-anchor="middle" x="4231" y="-124.5" font-family="Helvetica,sans-Serif" font-size="10.00">MenuWindowManager.cpp</text>
</a>
</g>
<!-- Node44&#45;&gt;Node45 -->
<g id="edge152" class="edge"><title>Node44&#45;&gt;Node45</title>
<path fill="none" stroke="midnightblue" d="M3672.86,-179.549C3778.88,-171.694 3977.32,-156.126 4146,-138 4150.29,-137.539 4154.7,-137.041 4159.15,-136.521"/>
<polygon fill="midnightblue" stroke="midnightblue" points="3672.3,-176.081 3662.58,-180.308 3672.81,-183.062 3672.3,-176.081"/>
</g>
<!-- Node46&#45;&gt;Node7 -->
<g id="edge162" class="edge"><title>Node46&#45;&gt;Node7</title>
<path fill="none" stroke="midnightblue" d="M634.153,-173.797C488.309,-155.859 449.693,-155.737 307,-138 304.252,-137.658 301.451,-137.303 298.622,-136.938"/>
<polygon fill="midnightblue" stroke="midnightblue" points="634.024,-177.308 644.378,-175.062 634.884,-170.36 634.024,-177.308"/>
</g>
<!-- Node47 -->
<g id="node127" class="node"><title>Node47</title>
<a xlink:href="WindowManagerMinimal_8cpp.htm" target="_top" xlink:title="WindowManagerMinimal.cpp">
<polygon fill="white" stroke="black" points="316,-116.5 316,-137.5 468,-137.5 468,-116.5 316,-116.5"/>
<text text-anchor="middle" x="392" y="-124.5" font-family="Helvetica,sans-Serif" font-size="10.00">WindowManagerMinimal.cpp</text>
</a>
</g>
<!-- Node46&#45;&gt;Node47 -->
<g id="edge160" class="edge"><title>Node46&#45;&gt;Node47</title>
<path fill="none" stroke="midnightblue" d="M646.306,-172.665C588.15,-162.222 505.69,-147.415 450.603,-137.523"/>
<polygon fill="midnightblue" stroke="midnightblue" points="646.046,-176.174 656.507,-174.497 647.283,-169.284 646.046,-176.174"/>
</g>
</g>
</svg>
