<?xml version="1.0" encoding="UTF-8" standalone="no"?>
<!DOCTYPE svg PUBLIC "-//W3C//DTD SVG 1.1//EN"
 "http://www.w3.org/Graphics/SVG/1.1/DTD/svg11.dtd">
<!-- Generated by graphviz version 2.26.3 (20100126.1600)
 -->
<!-- Title: G Pages: 1 -->
<svg width="1157pt" height="204pt"
 viewBox="0.00 0.00 1157.00 204.00" xmlns="http://www.w3.org/2000/svg" xmlns:xlink="http://www.w3.org/1999/xlink">
<g id="graph1" class="graph" transform="scale(1 1) rotate(0) translate(4 200)">
<title>G</title>
<polygon fill="white" stroke="white" points="-4,5 -4,-200 1154,-200 1154,5 -4,5"/>
<!-- Node1 -->
<g id="node1" class="node"><title>Node1</title>
<polygon fill="#bfbfbf" stroke="black" points="539.5,-174.5 539.5,-195.5 680.5,-195.5 680.5,-174.5 539.5,-174.5"/>
<text text-anchor="middle" x="610" y="-182.5" font-family="Helvetica,sans-Serif" font-size="10.00">WindowManagerMinimal.h</text>
</g>
<!-- Node2 -->
<g id="node3" class="node"><title>Node2</title>
<a xlink:href="Common_8h.htm" target="_top" xlink:title="Common.h">
<polygon fill="white" stroke="black" points="404.5,-0.5 404.5,-21.5 471.5,-21.5 471.5,-0.5 404.5,-0.5"/>
<text text-anchor="middle" x="438" y="-8.5" font-family="Helvetica,sans-Serif" font-size="10.00">Common.h</text>
</a>
</g>
<!-- Node1&#45;&gt;Node2 -->
<g id="edge2" class="edge"><title>Node1&#45;&gt;Node2</title>
<path fill="none" stroke="midnightblue" d="M554.434,-174.416C504.065,-161.559 432.717,-134.44 399,-80 388.424,-62.9241 402.588,-42.8882 416.718,-28.8194"/>
<polygon fill="midnightblue" stroke="midnightblue" points="419.464,-31.0453 424.407,-21.674 414.699,-25.9177 419.464,-31.0453"/>
</g>
<!-- Node3 -->
<g id="node5" class="node"><title>Node3</title>
<polygon fill="white" stroke="#bfbfbf" points="725.5,-116.5 725.5,-137.5 766.5,-137.5 766.5,-116.5 725.5,-116.5"/>
<text text-anchor="middle" x="746" y="-124.5" font-family="Helvetica,sans-Serif" font-size="10.00">QList</text>
</g>
<!-- Node1&#45;&gt;Node3 -->
<g id="edge4" class="edge"><title>Node1&#45;&gt;Node3</title>
<path fill="none" stroke="midnightblue" d="M634.629,-174.497C657.368,-164.799 691.213,-150.365 715.621,-139.956"/>
<polygon fill="midnightblue" stroke="midnightblue" points="717.293,-143.048 725.119,-135.905 714.547,-136.609 717.293,-143.048"/>
</g>
<!-- Node4 -->
<g id="node7" class="node"><title>Node4</title>
<a xlink:href="WindowManagerBase_8h.htm" target="_top" xlink:title="WindowManagerBase.h">
<polygon fill="white" stroke="black" points="205.5,-116.5 205.5,-137.5 334.5,-137.5 334.5,-116.5 205.5,-116.5"/>
<text text-anchor="middle" x="270" y="-124.5" font-family="Helvetica,sans-Serif" font-size="10.00">WindowManagerBase.h</text>
</a>
</g>
<!-- Node1&#45;&gt;Node4 -->
<g id="edge6" class="edge"><title>Node1&#45;&gt;Node4</title>
<path fill="none" stroke="midnightblue" d="M548.429,-174.497C490.24,-164.57 402.963,-149.682 341.672,-139.226"/>
<polygon fill="midnightblue" stroke="midnightblue" points="342.133,-135.755 331.687,-137.523 340.956,-142.655 342.133,-135.755"/>
</g>
<!-- Node10 -->
<g id="node21" class="node"><title>Node10</title>
<a xlink:href="GraphicsItemContainer_8h.htm" target="_top" xlink:title="GraphicsItemContainer.h">
<polygon fill="white" stroke="black" points="640,-58.5 640,-79.5 774,-79.5 774,-58.5 640,-58.5"/>
<text text-anchor="middle" x="707" y="-66.5" font-family="Helvetica,sans-Serif" font-size="10.00">GraphicsItemContainer.h</text>
</a>
</g>
<!-- Node1&#45;&gt;Node10 -->
<g id="edge22" class="edge"><title>Node1&#45;&gt;Node10</title>
<path fill="none" stroke="midnightblue" d="M610.537,-174.102C611.763,-159.505 615.79,-133.427 629,-116 639.42,-102.254 655.125,-91.6877 669.718,-84.0879"/>
<polygon fill="midnightblue" stroke="midnightblue" points="671.629,-87.0499 679.081,-79.5184 668.559,-80.7591 671.629,-87.0499"/>
</g>
<!-- Node14 -->
<g id="node30" class="node"><title>Node14</title>
<a xlink:href="StatusBar_8h.htm" target="_top" xlink:title="StatusBar.h">
<polygon fill="white" stroke="black" points="637.5,-116.5 637.5,-137.5 708.5,-137.5 708.5,-116.5 637.5,-116.5"/>
<text text-anchor="middle" x="673" y="-124.5" font-family="Helvetica,sans-Serif" font-size="10.00">StatusBar.h</text>
</a>
</g>
<!-- Node1&#45;&gt;Node14 -->
<g id="edge32" class="edge"><title>Node1&#45;&gt;Node14</title>
<path fill="none" stroke="midnightblue" d="M621.555,-174.362C630.613,-166.023 643.41,-154.242 653.974,-144.516"/>
<polygon fill="midnightblue" stroke="midnightblue" points="656.532,-146.919 661.518,-137.571 651.79,-141.769 656.532,-146.919"/>
</g>
<!-- Node4&#45;&gt;Node2 -->
<g id="edge8" class="edge"><title>Node4&#45;&gt;Node2</title>
<path fill="none" stroke="midnightblue" d="M284.493,-116.274C303.165,-102.526 336.709,-78.0719 366,-58 381.354,-47.4787 398.832,-36.0567 412.722,-27.1074"/>
<polygon fill="midnightblue" stroke="midnightblue" points="414.749,-29.9653 421.273,-21.6177 410.967,-24.0746 414.749,-29.9653"/>
</g>
<!-- Node5 -->
<g id="node10" class="node"><title>Node5</title>
<polygon fill="white" stroke="#bfbfbf" points="226,-58.5 226,-79.5 314,-79.5 314,-58.5 226,-58.5"/>
<text text-anchor="middle" x="270" y="-66.5" font-family="Helvetica,sans-Serif" font-size="10.00">QGraphicsItem</text>
</g>
<!-- Node4&#45;&gt;Node5 -->
<g id="edge10" class="edge"><title>Node4&#45;&gt;Node5</title>
<path fill="none" stroke="midnightblue" d="M270,-116.362C270,-108.922 270,-98.7427 270,-89.7276"/>
<polygon fill="midnightblue" stroke="midnightblue" points="273.5,-89.5706 270,-79.5707 266.5,-89.5707 273.5,-89.5706"/>
</g>
<!-- Node6 -->
<g id="node12" class="node"><title>Node6</title>
<polygon fill="white" stroke="#bfbfbf" points="149.5,-58.5 149.5,-79.5 208.5,-79.5 208.5,-58.5 149.5,-58.5"/>
<text text-anchor="middle" x="179" y="-66.5" font-family="Helvetica,sans-Serif" font-size="10.00">QPainter</text>
</g>
<!-- Node4&#45;&gt;Node6 -->
<g id="edge12" class="edge"><title>Node4&#45;&gt;Node6</title>
<path fill="none" stroke="midnightblue" d="M253.309,-116.362C239.584,-107.614 219.916,-95.0786 204.263,-85.1015"/>
<polygon fill="midnightblue" stroke="midnightblue" points="205.899,-81.994 195.585,-79.5707 202.137,-87.8969 205.899,-81.994"/>
</g>
<!-- Node7 -->
<g id="node14" class="node"><title>Node7</title>
<a xlink:href="UiNavigationController_8h.htm" target="_top" xlink:title="UiNavigationController.h">
<polygon fill="white" stroke="black" points="1.5,-58.5 1.5,-79.5 132.5,-79.5 132.5,-58.5 1.5,-58.5"/>
<text text-anchor="middle" x="67" y="-66.5" font-family="Helvetica,sans-Serif" font-size="10.00">UiNavigationController.h</text>
</a>
</g>
<!-- Node4&#45;&gt;Node7 -->
<g id="edge14" class="edge"><title>Node4&#45;&gt;Node7</title>
<path fill="none" stroke="midnightblue" d="M233.238,-116.497C199.714,-106.918 150.018,-92.7196 113.696,-82.3418"/>
<polygon fill="midnightblue" stroke="midnightblue" points="114.408,-78.905 103.831,-79.5231 112.484,-85.6357 114.408,-78.905"/>
</g>
<!-- Node7&#45;&gt;Node2 -->
<g id="edge16" class="edge"><title>Node7&#45;&gt;Node2</title>
<path fill="none" stroke="midnightblue" d="M132.764,-59.1988C135.546,-58.7922 138.301,-58.3912 141,-58 251.066,-42.0503 282.045,-44.3856 394.14,-22.2259"/>
<polygon fill="midnightblue" stroke="midnightblue" points="395.032,-25.6169 404.152,-20.2248 393.66,-18.7527 395.032,-25.6169"/>
</g>
<!-- Node8 -->
<g id="node17" class="node"><title>Node8</title>
<polygon fill="white" stroke="#bfbfbf" points="-0.5,-0.5 -0.5,-21.5 54.5,-21.5 54.5,-0.5 -0.5,-0.5"/>
<text text-anchor="middle" x="27" y="-8.5" font-family="Helvetica,sans-Serif" font-size="10.00">QObject</text>
</g>
<!-- Node7&#45;&gt;Node8 -->
<g id="edge18" class="edge"><title>Node7&#45;&gt;Node8</title>
<path fill="none" stroke="midnightblue" d="M59.6634,-58.3619C54.194,-50.4313 46.5783,-39.3885 40.0763,-29.9606"/>
<polygon fill="midnightblue" stroke="midnightblue" points="42.8487,-27.8157 34.2901,-21.5707 37.0862,-31.7899 42.8487,-27.8157"/>
</g>
<!-- Node9 -->
<g id="node19" class="node"><title>Node9</title>
<polygon fill="white" stroke="#bfbfbf" points="72,-0.5 72,-21.5 142,-21.5 142,-0.5 72,-0.5"/>
<text text-anchor="middle" x="107" y="-8.5" font-family="Helvetica,sans-Serif" font-size="10.00">QKeyEvent</text>
</g>
<!-- Node7&#45;&gt;Node9 -->
<g id="edge20" class="edge"><title>Node7&#45;&gt;Node9</title>
<path fill="none" stroke="midnightblue" d="M74.3366,-58.3619C79.806,-50.4313 87.4217,-39.3885 93.9237,-29.9606"/>
<polygon fill="midnightblue" stroke="midnightblue" points="96.9138,-31.7899 99.7099,-21.5707 91.1513,-27.8157 96.9138,-31.7899"/>
</g>
<!-- Node10&#45;&gt;Node2 -->
<g id="edge24" class="edge"><title>Node10&#45;&gt;Node2</title>
<path fill="none" stroke="midnightblue" d="M652.243,-58.4918C608.407,-49.8908 545.129,-37.055 481.661,-22.3209"/>
<polygon fill="midnightblue" stroke="midnightblue" points="482.423,-18.9045 471.888,-20.0371 480.83,-25.7208 482.423,-18.9045"/>
</g>
<!-- Node11 -->
<g id="node24" class="node"><title>Node11</title>
<polygon fill="white" stroke="#bfbfbf" points="559,-0.5 559,-21.5 611,-21.5 611,-0.5 559,-0.5"/>
<text text-anchor="middle" x="585" y="-8.5" font-family="Helvetica,sans-Serif" font-size="10.00">QBrush</text>
</g>
<!-- Node10&#45;&gt;Node11 -->
<g id="edge26" class="edge"><title>Node10&#45;&gt;Node11</title>
<path fill="none" stroke="midnightblue" d="M684.907,-58.4966C665.766,-49.397 637.854,-36.1273 616.395,-25.9253"/>
<polygon fill="midnightblue" stroke="midnightblue" points="617.875,-22.7539 607.341,-21.6212 614.87,-29.0758 617.875,-22.7539"/>
</g>
<!-- Node12 -->
<g id="node26" class="node"><title>Node12</title>
<polygon fill="white" stroke="#bfbfbf" points="803,-0.5 803,-21.5 901,-21.5 901,-0.5 803,-0.5"/>
<text text-anchor="middle" x="852" y="-8.5" font-family="Helvetica,sans-Serif" font-size="10.00">QGraphicsObject</text>
</g>
<!-- Node10&#45;&gt;Node12 -->
<g id="edge28" class="edge"><title>Node10&#45;&gt;Node12</title>
<path fill="none" stroke="midnightblue" d="M733.258,-58.4966C756.416,-49.2337 790.375,-35.6499 816.052,-25.3793"/>
<polygon fill="midnightblue" stroke="midnightblue" points="817.462,-28.5849 825.447,-21.6212 814.862,-22.0855 817.462,-28.5849"/>
</g>
<!-- Node13 -->
<g id="node28" class="node"><title>Node13</title>
<polygon fill="white" stroke="#bfbfbf" points="629,-0.5 629,-21.5 785,-21.5 785,-0.5 629,-0.5"/>
<text text-anchor="middle" x="707" y="-8.5" font-family="Helvetica,sans-Serif" font-size="10.00">QGraphicsSceneMouseEvent</text>
</g>
<!-- Node10&#45;&gt;Node13 -->
<g id="edge30" class="edge"><title>Node10&#45;&gt;Node13</title>
<path fill="none" stroke="midnightblue" d="M707,-58.3619C707,-50.9219 707,-40.7427 707,-31.7276"/>
<polygon fill="midnightblue" stroke="midnightblue" points="710.5,-31.5706 707,-21.5707 703.5,-31.5707 710.5,-31.5706"/>
</g>
<!-- Node14&#45;&gt;Node12 -->
<g id="edge50" class="edge"><title>Node14&#45;&gt;Node12</title>
<path fill="none" stroke="midnightblue" d="M706.436,-116.481C729.15,-108.457 759.26,-96.054 783,-80 804.077,-65.7473 824.172,-44.4693 837.183,-29.3146"/>
<polygon fill="midnightblue" stroke="midnightblue" points="839.901,-31.5205 843.644,-21.6088 834.537,-27.0231 839.901,-31.5205"/>
</g>
<!-- Node15 -->
<g id="node32" class="node"><title>Node15</title>
<a xlink:href="Window_8h.htm" target="_top" xlink:title="Window.h">
<polygon fill="white" stroke="black" points="913,-58.5 913,-79.5 975,-79.5 975,-58.5 913,-58.5"/>
<text text-anchor="middle" x="944" y="-66.5" font-family="Helvetica,sans-Serif" font-size="10.00">Window.h</text>
</a>
</g>
<!-- Node14&#45;&gt;Node15 -->
<g id="edge34" class="edge"><title>Node14&#45;&gt;Node15</title>
<path fill="none" stroke="midnightblue" d="M708.507,-117.969C711.377,-117.286 714.234,-116.622 717,-116 796.597,-98.1014 817.271,-97.2982 897,-80 899.015,-79.5627 901.078,-79.1079 903.159,-78.6429"/>
<polygon fill="midnightblue" stroke="midnightblue" points="903.96,-82.0501 912.936,-76.4206 902.409,-75.2242 903.96,-82.0501"/>
</g>
<!-- Node20 -->
<g id="node44" class="node"><title>Node20</title>
<polygon fill="white" stroke="#bfbfbf" points="829.5,-58.5 829.5,-79.5 888.5,-79.5 888.5,-58.5 829.5,-58.5"/>
<text text-anchor="middle" x="859" y="-66.5" font-family="Helvetica,sans-Serif" font-size="10.00">QPointer</text>
</g>
<!-- Node14&#45;&gt;Node20 -->
<g id="edge48" class="edge"><title>Node14&#45;&gt;Node20</title>
<path fill="none" stroke="midnightblue" d="M706.683,-116.497C738.371,-106.616 785.827,-91.8174 819.332,-81.3695"/>
<polygon fill="midnightblue" stroke="midnightblue" points="820.745,-84.5953 829.25,-78.277 818.661,-77.9126 820.745,-84.5953"/>
</g>
<!-- Node21 -->
<g id="node47" class="node"><title>Node21</title>
<a xlink:href="VariantAnimation_8h.htm" target="_top" xlink:title="VariantAnimation.h">
<polygon fill="white" stroke="black" points="407.5,-58.5 407.5,-79.5 512.5,-79.5 512.5,-58.5 407.5,-58.5"/>
<text text-anchor="middle" x="460" y="-66.5" font-family="Helvetica,sans-Serif" font-size="10.00">VariantAnimation.h</text>
</a>
</g>
<!-- Node14&#45;&gt;Node21 -->
<g id="edge52" class="edge"><title>Node14&#45;&gt;Node21</title>
<path fill="none" stroke="midnightblue" d="M637.349,-117.292C602.05,-107.68 547.748,-92.8938 508.53,-82.2147"/>
<polygon fill="midnightblue" stroke="midnightblue" points="509.222,-78.7758 498.654,-79.5254 507.383,-85.5299 509.222,-78.7758"/>
</g>
<!-- Node23 -->
<g id="node52" class="node"><title>Node23</title>
<a xlink:href="CustomEvents_8h.htm" target="_top" xlink:title="CustomEvents.h">
<polygon fill="white" stroke="black" points="530,-58.5 530,-79.5 622,-79.5 622,-58.5 530,-58.5"/>
<text text-anchor="middle" x="576" y="-66.5" font-family="Helvetica,sans-Serif" font-size="10.00">CustomEvents.h</text>
</a>
</g>
<!-- Node14&#45;&gt;Node23 -->
<g id="edge58" class="edge"><title>Node14&#45;&gt;Node23</title>
<path fill="none" stroke="midnightblue" d="M655.209,-116.362C640.441,-107.532 619.222,-94.844 602.462,-84.8224"/>
<polygon fill="midnightblue" stroke="midnightblue" points="604.057,-81.6987 593.679,-79.5707 600.465,-87.7066 604.057,-81.6987"/>
</g>
<!-- Node15&#45;&gt;Node2 -->
<g id="edge36" class="edge"><title>Node15&#45;&gt;Node2</title>
<path fill="none" stroke="midnightblue" d="M912.775,-61.0316C907.533,-59.8843 902.131,-58.8176 897,-58 716.524,-29.2431 665.104,-52.8193 481.786,-22.0871"/>
<polygon fill="midnightblue" stroke="midnightblue" points="482.264,-18.6182 471.818,-20.3847 481.086,-25.5183 482.264,-18.6182"/>
</g>
<!-- Node15&#45;&gt;Node12 -->
<g id="edge44" class="edge"><title>Node15&#45;&gt;Node12</title>
<path fill="none" stroke="midnightblue" d="M927.126,-58.3619C913.249,-49.6138 893.366,-37.0786 877.54,-27.1015"/>
<polygon fill="midnightblue" stroke="midnightblue" points="879.093,-23.943 868.767,-21.5707 875.36,-29.8645 879.093,-23.943"/>
</g>
<!-- Node16 -->
<g id="node35" class="node"><title>Node16</title>
<polygon fill="white" stroke="#bfbfbf" points="919,-0.5 919,-21.5 969,-21.5 969,-0.5 919,-0.5"/>
<text text-anchor="middle" x="944" y="-8.5" font-family="Helvetica,sans-Serif" font-size="10.00">stdint.h</text>
</g>
<!-- Node15&#45;&gt;Node16 -->
<g id="edge38" class="edge"><title>Node15&#45;&gt;Node16</title>
<path fill="none" stroke="midnightblue" d="M944,-58.3619C944,-50.9219 944,-40.7427 944,-31.7276"/>
<polygon fill="midnightblue" stroke="midnightblue" points="947.5,-31.5706 944,-21.5707 940.5,-31.5707 947.5,-31.5706"/>
</g>
<!-- Node17 -->
<g id="node37" class="node"><title>Node17</title>
<polygon fill="white" stroke="#bfbfbf" points="986.5,-0.5 986.5,-21.5 1029.5,-21.5 1029.5,-0.5 986.5,-0.5"/>
<text text-anchor="middle" x="1008" y="-8.5" font-family="Helvetica,sans-Serif" font-size="10.00">string</text>
</g>
<!-- Node15&#45;&gt;Node17 -->
<g id="edge40" class="edge"><title>Node15&#45;&gt;Node17</title>
<path fill="none" stroke="midnightblue" d="M955.739,-58.3619C964.941,-50.0226 977.94,-38.2418 988.672,-28.5162"/>
<polygon fill="midnightblue" stroke="midnightblue" points="991.276,-30.8793 996.336,-21.5707 986.576,-25.6924 991.276,-30.8793"/>
</g>
<!-- Node18 -->
<g id="node39" class="node"><title>Node18</title>
<polygon fill="white" stroke="#bfbfbf" points="1046.5,-0.5 1046.5,-21.5 1087.5,-21.5 1087.5,-0.5 1046.5,-0.5"/>
<text text-anchor="middle" x="1067" y="-8.5" font-family="Helvetica,sans-Serif" font-size="10.00">glib.h</text>
</g>
<!-- Node15&#45;&gt;Node18 -->
<g id="edge42" class="edge"><title>Node15&#45;&gt;Node18</title>
<path fill="none" stroke="midnightblue" d="M966.274,-58.4966C986.054,-49.1695 1015.13,-35.4612 1036.96,-25.166"/>
<polygon fill="midnightblue" stroke="midnightblue" points="1038.57,-28.2759 1046.12,-20.8451 1035.58,-21.9445 1038.57,-28.2759"/>
</g>
<!-- Node19 -->
<g id="node42" class="node"><title>Node19</title>
<polygon fill="white" stroke="#bfbfbf" points="1104.5,-0.5 1104.5,-21.5 1149.5,-21.5 1149.5,-0.5 1104.5,-0.5"/>
<text text-anchor="middle" x="1127" y="-8.5" font-family="Helvetica,sans-Serif" font-size="10.00">QSize</text>
</g>
<!-- Node15&#45;&gt;Node19 -->
<g id="edge46" class="edge"><title>Node15&#45;&gt;Node19</title>
<path fill="none" stroke="midnightblue" d="M975.268,-59.7412C1004.1,-51.115 1048.29,-37.6658 1094.72,-22.3492"/>
<polygon fill="midnightblue" stroke="midnightblue" points="1095.96,-25.6272 1104.35,-19.158 1093.76,-18.9828 1095.96,-25.6272"/>
</g>
<!-- Node21&#45;&gt;Node2 -->
<g id="edge54" class="edge"><title>Node21&#45;&gt;Node2</title>
<path fill="none" stroke="midnightblue" d="M455.965,-58.3619C453.081,-50.7584 449.112,-40.294 445.637,-31.1349"/>
<polygon fill="midnightblue" stroke="midnightblue" points="448.829,-29.6793 442.01,-21.5707 442.284,-32.1619 448.829,-29.6793"/>
</g>
<!-- Node22 -->
<g id="node50" class="node"><title>Node22</title>
<polygon fill="white" stroke="#bfbfbf" points="282.5,-0.5 282.5,-21.5 387.5,-21.5 387.5,-0.5 282.5,-0.5"/>
<text text-anchor="middle" x="335" y="-8.5" font-family="Helvetica,sans-Serif" font-size="10.00">QVariantAnimation</text>
</g>
<!-- Node21&#45;&gt;Node22 -->
<g id="edge56" class="edge"><title>Node21&#45;&gt;Node22</title>
<path fill="none" stroke="midnightblue" d="M437.363,-58.4966C417.752,-49.397 389.154,-36.1273 367.167,-25.9253"/>
<polygon fill="midnightblue" stroke="midnightblue" points="368.435,-22.6554 357.891,-21.6212 365.488,-29.0051 368.435,-22.6554"/>
</g>
<!-- Node23&#45;&gt;Node2 -->
<g id="edge60" class="edge"><title>Node23&#45;&gt;Node2</title>
<path fill="none" stroke="midnightblue" d="M551.009,-58.4966C529.067,-49.2746 496.934,-35.7695 472.536,-25.5153"/>
<polygon fill="midnightblue" stroke="midnightblue" points="473.846,-22.2693 463.271,-21.6212 471.134,-28.7225 473.846,-22.2693"/>
</g>
<!-- Node24 -->
<g id="node55" class="node"><title>Node24</title>
<polygon fill="white" stroke="#bfbfbf" points="489,-0.5 489,-21.5 541,-21.5 541,-0.5 489,-0.5"/>
<text text-anchor="middle" x="515" y="-8.5" font-family="Helvetica,sans-Serif" font-size="10.00">QEvent</text>
</g>
<!-- Node23&#45;&gt;Node24 -->
<g id="edge62" class="edge"><title>Node23&#45;&gt;Node24</title>
<path fill="none" stroke="midnightblue" d="M564.812,-58.3619C556.041,-50.0226 543.651,-38.2418 533.422,-28.5162"/>
<polygon fill="midnightblue" stroke="midnightblue" points="535.776,-25.9248 526.117,-21.5707 530.953,-30.9978 535.776,-25.9248"/>
</g>
</g>
</svg>
