<?xml version="1.0" encoding="UTF-8" standalone="no"?>
<!DOCTYPE svg PUBLIC "-//W3C//DTD SVG 1.1//EN"
 "http://www.w3.org/Graphics/SVG/1.1/DTD/svg11.dtd">
<!-- Generated by graphviz version 2.26.3 (20100126.1600)
 -->
<!-- Title: G Pages: 1 -->
<svg width="5340pt" height="146pt"
 viewBox="0.00 0.00 5340.00 146.00" xmlns="http://www.w3.org/2000/svg" xmlns:xlink="http://www.w3.org/1999/xlink">
<g id="graph1" class="graph" transform="scale(1 1) rotate(0) translate(4 142)">
<title>G</title>
<polygon fill="white" stroke="white" points="-4,5 -4,-142 5337,-142 5337,5 -4,5"/>
<!-- Node1 -->
<g id="node1" class="node"><title>Node1</title>
<polygon fill="#bfbfbf" stroke="black" points="2124,-116.5 2124,-137.5 2218,-137.5 2218,-116.5 2124,-116.5"/>
<text text-anchor="middle" x="2171" y="-124.5" font-family="Helvetica,sans-Serif" font-size="10.00">WindowServer.h</text>
</g>
<!-- Node2 -->
<g id="node3" class="node"><title>Node2</title>
<a xlink:href="AmbientLightSensor_8cpp.htm" target="_top" xlink:title="AmbientLightSensor.cpp">
<polygon fill="white" stroke="black" points="303.5,-58.5 303.5,-79.5 434.5,-79.5 434.5,-58.5 303.5,-58.5"/>
<text text-anchor="middle" x="369" y="-66.5" font-family="Helvetica,sans-Serif" font-size="10.00">AmbientLightSensor.cpp</text>
</a>
</g>
<!-- Node1&#45;&gt;Node2 -->
<g id="edge2" class="edge"><title>Node1&#45;&gt;Node2</title>
<path fill="none" stroke="midnightblue" d="M2113.55,-126.292C1853.22,-122.951 782.401,-107.756 448,-80 443.722,-79.6449 439.322,-79.2145 434.891,-78.7323"/>
<polygon fill="midnightblue" stroke="midnightblue" points="2113.86,-129.796 2123.91,-126.424 2113.95,-122.797 2113.86,-129.796"/>
</g>
<!-- Node3 -->
<g id="node5" class="node"><title>Node3</title>
<a xlink:href="ApplicationManager_8cpp.htm" target="_top" xlink:title="ApplicationManager.cpp">
<polygon fill="white" stroke="black" points="121.5,-0.5 121.5,-21.5 252.5,-21.5 252.5,-0.5 121.5,-0.5"/>
<text text-anchor="middle" x="187" y="-8.5" font-family="Helvetica,sans-Serif" font-size="10.00">ApplicationManager.cpp</text>
</a>
</g>
<!-- Node1&#45;&gt;Node3 -->
<g id="edge4" class="edge"><title>Node1&#45;&gt;Node3</title>
<path fill="none" stroke="midnightblue" d="M2113.48,-126.094C1845.83,-121.766 732.25,-102.47 662,-80 645.211,-74.6299 645.602,-63.9243 629,-58 474.223,-2.76869 424.104,-42.0877 261,-22 258.293,-21.6666 255.532,-21.3139 252.744,-20.9472"/>
<polygon fill="midnightblue" stroke="midnightblue" points="2113.7,-129.598 2123.75,-126.26 2113.81,-122.599 2113.7,-129.598"/>
</g>
<!-- Node4 -->
<g id="node7" class="node"><title>Node4</title>
<a xlink:href="DisplayManager_8cpp.htm" target="_top" xlink:title="DisplayManager.cpp">
<polygon fill="white" stroke="black" points="1151.5,-58.5 1151.5,-79.5 1264.5,-79.5 1264.5,-58.5 1151.5,-58.5"/>
<text text-anchor="middle" x="1208" y="-66.5" font-family="Helvetica,sans-Serif" font-size="10.00">DisplayManager.cpp</text>
</a>
</g>
<!-- Node1&#45;&gt;Node4 -->
<g id="edge6" class="edge"><title>Node1&#45;&gt;Node4</title>
<path fill="none" stroke="midnightblue" d="M2113.35,-126.285C1970.54,-124.013 1589.02,-114.892 1273,-80 1270.27,-79.6985 1267.48,-79.3569 1264.67,-78.9853"/>
<polygon fill="midnightblue" stroke="midnightblue" points="2113.57,-129.789 2123.62,-126.443 2113.68,-122.789 2113.57,-129.789"/>
</g>
<!-- Node5 -->
<g id="node9" class="node"><title>Node5</title>
<a xlink:href="DisplayStates_8cpp.htm" target="_top" xlink:title="DisplayStates.cpp">
<polygon fill="white" stroke="black" points="1281.5,-58.5 1281.5,-79.5 1382.5,-79.5 1382.5,-58.5 1281.5,-58.5"/>
<text text-anchor="middle" x="1332" y="-66.5" font-family="Helvetica,sans-Serif" font-size="10.00">DisplayStates.cpp</text>
</a>
</g>
<!-- Node1&#45;&gt;Node5 -->
<g id="edge8" class="edge"><title>Node1&#45;&gt;Node5</title>
<path fill="none" stroke="midnightblue" d="M2113.7,-125.98C1984.37,-123.146 1660.08,-113.061 1391,-80 1388.31,-79.6696 1385.56,-79.2929 1382.79,-78.8826"/>
<polygon fill="midnightblue" stroke="midnightblue" points="2113.7,-129.481 2123.78,-126.195 2113.85,-122.482 2113.7,-129.481"/>
</g>
<!-- Node6 -->
<g id="node11" class="node"><title>Node6</title>
<a xlink:href="HostArm_8cpp.htm" target="_top" xlink:title="HostArm.cpp">
<polygon fill="white" stroke="black" points="1399.5,-58.5 1399.5,-79.5 1476.5,-79.5 1476.5,-58.5 1399.5,-58.5"/>
<text text-anchor="middle" x="1438" y="-66.5" font-family="Helvetica,sans-Serif" font-size="10.00">HostArm.cpp</text>
</a>
</g>
<!-- Node1&#45;&gt;Node6 -->
<g id="edge10" class="edge"><title>Node1&#45;&gt;Node6</title>
<path fill="none" stroke="midnightblue" d="M2113.45,-126.189C1995.12,-123.834 1716.19,-114.741 1485,-80 1482.27,-79.589 1479.45,-79.1013 1476.63,-78.5633"/>
<polygon fill="midnightblue" stroke="midnightblue" points="2113.66,-129.693 2123.72,-126.384 2113.79,-122.695 2113.66,-129.693"/>
</g>
<!-- Node7 -->
<g id="node13" class="node"><title>Node7</title>
<a xlink:href="HostWindow_8cpp.htm" target="_top" xlink:title="HostWindow.cpp">
<polygon fill="white" stroke="black" points="1493.5,-58.5 1493.5,-79.5 1588.5,-79.5 1588.5,-58.5 1493.5,-58.5"/>
<text text-anchor="middle" x="1541" y="-66.5" font-family="Helvetica,sans-Serif" font-size="10.00">HostWindow.cpp</text>
</a>
</g>
<!-- Node1&#45;&gt;Node7 -->
<g id="edge12" class="edge"><title>Node1&#45;&gt;Node7</title>
<path fill="none" stroke="midnightblue" d="M2113.7,-124.442C2010.15,-119.345 1785.15,-106.098 1597,-80 1594.25,-79.6188 1591.44,-79.1895 1588.6,-78.727"/>
<polygon fill="midnightblue" stroke="midnightblue" points="2113.77,-127.949 2123.93,-124.938 2114.11,-120.957 2113.77,-127.949"/>
</g>
<!-- Node8 -->
<g id="node15" class="node"><title>Node8</title>
<a xlink:href="Preferences_8cpp.htm" target="_top" xlink:title="Preferences.cpp">
<polygon fill="white" stroke="black" points="1606,-58.5 1606,-79.5 1700,-79.5 1700,-58.5 1606,-58.5"/>
<text text-anchor="middle" x="1653" y="-66.5" font-family="Helvetica,sans-Serif" font-size="10.00">Preferences.cpp</text>
</a>
</g>
<!-- Node1&#45;&gt;Node8 -->
<g id="edge14" class="edge"><title>Node1&#45;&gt;Node8</title>
<path fill="none" stroke="midnightblue" d="M2113.95,-122.905C2026.5,-116.244 1854.17,-101.594 1709,-80 1706.16,-79.5772 1703.24,-79.1091 1700.3,-78.6113"/>
<polygon fill="midnightblue" stroke="midnightblue" points="2113.7,-126.396 2123.93,-123.659 2114.22,-119.416 2113.7,-126.396"/>
</g>
<!-- Node9 -->
<g id="node17" class="node"><title>Node9</title>
<a xlink:href="SystemService_8cpp.htm" target="_top" xlink:title="SystemService.cpp">
<polygon fill="white" stroke="black" points="1718,-58.5 1718,-79.5 1824,-79.5 1824,-58.5 1718,-58.5"/>
<text text-anchor="middle" x="1771" y="-66.5" font-family="Helvetica,sans-Serif" font-size="10.00">SystemService.cpp</text>
</a>
</g>
<!-- Node1&#45;&gt;Node9 -->
<g id="edge16" class="edge"><title>Node1&#45;&gt;Node9</title>
<path fill="none" stroke="midnightblue" d="M2113.92,-119.725C2046.64,-110.998 1931.52,-95.5836 1833,-80 1830.08,-79.5388 1827.09,-79.0526 1824.08,-78.5517"/>
<polygon fill="midnightblue" stroke="midnightblue" points="2113.53,-123.204 2123.89,-121.016 2114.42,-116.261 2113.53,-123.204"/>
</g>
<!-- Node10 -->
<g id="node19" class="node"><title>Node10</title>
<a xlink:href="SystemUiController_8cpp.htm" target="_top" xlink:title="SystemUiController.cpp">
<polygon fill="white" stroke="black" points="269.5,-0.5 269.5,-21.5 396.5,-21.5 396.5,-0.5 269.5,-0.5"/>
<text text-anchor="middle" x="333" y="-8.5" font-family="Helvetica,sans-Serif" font-size="10.00">SystemUiController.cpp</text>
</a>
</g>
<!-- Node1&#45;&gt;Node10 -->
<g id="edge18" class="edge"><title>Node1&#45;&gt;Node10</title>
<path fill="none" stroke="midnightblue" d="M2113.47,-126.82C1858.56,-125.801 837.439,-119.279 700,-80 681.236,-74.6375 680.45,-64.3604 662,-58 552.96,-20.4093 519.121,-38.7098 405,-22 402.247,-21.597 399.436,-21.182 396.597,-20.76"/>
<polygon fill="midnightblue" stroke="midnightblue" points="2113.61,-130.321 2123.62,-126.86 2113.64,-123.321 2113.61,-130.321"/>
</g>
<!-- Node11 -->
<g id="node21" class="node"><title>Node11</title>
<a xlink:href="WSOverlayScreenShotAnimation_8cpp.htm" target="_top" xlink:title="WSOverlayScreenShotAnimation.cpp">
<polygon fill="white" stroke="black" points="1841.5,-58.5 1841.5,-79.5 2032.5,-79.5 2032.5,-58.5 1841.5,-58.5"/>
<text text-anchor="middle" x="1937" y="-66.5" font-family="Helvetica,sans-Serif" font-size="10.00">WSOverlayScreenShotAnimation.cpp</text>
</a>
</g>
<!-- Node1&#45;&gt;Node11 -->
<g id="edge20" class="edge"><title>Node1&#45;&gt;Node11</title>
<path fill="none" stroke="midnightblue" d="M2118.86,-114.077C2076.88,-103.672 2018.62,-89.2306 1979.46,-79.5231"/>
<polygon fill="midnightblue" stroke="midnightblue" points="2118.08,-117.488 2128.62,-116.497 2119.76,-110.694 2118.08,-117.488"/>
</g>
<!-- Node12 -->
<g id="node23" class="node"><title>Node12</title>
<a xlink:href="Window_8cpp.htm" target="_top" xlink:title="Window.cpp">
<polygon fill="white" stroke="black" points="2050,-58.5 2050,-79.5 2124,-79.5 2124,-58.5 2050,-58.5"/>
<text text-anchor="middle" x="2087" y="-66.5" font-family="Helvetica,sans-Serif" font-size="10.00">Window.cpp</text>
</a>
</g>
<!-- Node1&#45;&gt;Node12 -->
<g id="edge22" class="edge"><title>Node1&#45;&gt;Node12</title>
<path fill="none" stroke="midnightblue" d="M2147.16,-110.541C2132.76,-100.597 2114.83,-88.2177 2102.31,-79.5707"/>
<polygon fill="midnightblue" stroke="midnightblue" points="2145.38,-113.56 2155.59,-116.362 2149.35,-107.8 2145.38,-113.56"/>
</g>
<!-- Node13 -->
<g id="node25" class="node"><title>Node13</title>
<a xlink:href="HostWindowDataOpenGLTextureShared_8cpp.htm" target="_top" xlink:title="HostWindowDataOpenGLTextureShared.cpp">
<polygon fill="white" stroke="black" points="2141.5,-58.5 2141.5,-79.5 2370.5,-79.5 2370.5,-58.5 2141.5,-58.5"/>
<text text-anchor="middle" x="2256" y="-66.5" font-family="Helvetica,sans-Serif" font-size="10.00">HostWindowDataOpenGLTextureShared.cpp</text>
</a>
</g>
<!-- Node1&#45;&gt;Node13 -->
<g id="edge24" class="edge"><title>Node1&#45;&gt;Node13</title>
<path fill="none" stroke="midnightblue" d="M2195.12,-110.541C2209.69,-100.597 2227.84,-88.2177 2240.51,-79.5707"/>
<polygon fill="midnightblue" stroke="midnightblue" points="2192.88,-107.834 2186.59,-116.362 2196.82,-113.617 2192.88,-107.834"/>
</g>
<!-- Node14 -->
<g id="node27" class="node"><title>Node14</title>
<a xlink:href="WindowServer_8cpp.htm" target="_top" xlink:title="WindowServer.cpp">
<polygon fill="white" stroke="black" points="-0.5,-0.5 -0.5,-21.5 104.5,-21.5 104.5,-0.5 -0.5,-0.5"/>
<text text-anchor="middle" x="52" y="-8.5" font-family="Helvetica,sans-Serif" font-size="10.00">WindowServer.cpp</text>
</a>
</g>
<!-- Node1&#45;&gt;Node14 -->
<g id="edge26" class="edge"><title>Node1&#45;&gt;Node14</title>
<path fill="none" stroke="midnightblue" d="M2113.73,-126.199C1827.34,-122.093 561.107,-102.715 481,-80 462.225,-74.6763 461.544,-64.0782 443,-58 302.802,-12.0483 259.02,-43.1042 113,-22 110.231,-21.5998 107.395,-21.1674 104.535,-20.7135"/>
<polygon fill="midnightblue" stroke="midnightblue" points="2113.85,-129.701 2123.89,-126.344 2113.95,-122.702 2113.85,-129.701"/>
</g>
<!-- Node15 -->
<g id="node29" class="node"><title>Node15</title>
<a xlink:href="IMEController_8cpp.htm" target="_top" xlink:title="IMEController.cpp">
<polygon fill="white" stroke="black" points="2387.5,-58.5 2387.5,-79.5 2488.5,-79.5 2488.5,-58.5 2387.5,-58.5"/>
<text text-anchor="middle" x="2438" y="-66.5" font-family="Helvetica,sans-Serif" font-size="10.00">IMEController.cpp</text>
</a>
</g>
<!-- Node1&#45;&gt;Node15 -->
<g id="edge28" class="edge"><title>Node1&#45;&gt;Node15</title>
<path fill="none" stroke="midnightblue" d="M2228.06,-114.606C2276.11,-104.167 2344.1,-89.3982 2389.55,-79.5249"/>
<polygon fill="midnightblue" stroke="midnightblue" points="2227.15,-111.221 2218.12,-116.764 2228.63,-118.062 2227.15,-111.221"/>
</g>
<!-- Node16 -->
<g id="node31" class="node"><title>Node16</title>
<a xlink:href="IMEView_8cpp.htm" target="_top" xlink:title="IMEView.cpp">
<polygon fill="white" stroke="black" points="2505.5,-58.5 2505.5,-79.5 2582.5,-79.5 2582.5,-58.5 2505.5,-58.5"/>
<text text-anchor="middle" x="2544" y="-66.5" font-family="Helvetica,sans-Serif" font-size="10.00">IMEView.cpp</text>
</a>
</g>
<!-- Node1&#45;&gt;Node16 -->
<g id="edge30" class="edge"><title>Node1&#45;&gt;Node16</title>
<path fill="none" stroke="midnightblue" d="M2228.27,-120.27C2293.57,-112.243 2403.39,-97.6672 2497,-80 2499.72,-79.4871 2502.52,-78.9237 2505.33,-78.3312"/>
<polygon fill="midnightblue" stroke="midnightblue" points="2227.68,-116.816 2218.18,-121.502 2228.53,-123.764 2227.68,-116.816"/>
</g>
<!-- Node17 -->
<g id="node33" class="node"><title>Node17</title>
<a xlink:href="CardHostWindow_8cpp.htm" target="_top" xlink:title="CardHostWindow.cpp">
<polygon fill="white" stroke="black" points="413.5,-0.5 413.5,-21.5 532.5,-21.5 532.5,-0.5 413.5,-0.5"/>
<text text-anchor="middle" x="473" y="-8.5" font-family="Helvetica,sans-Serif" font-size="10.00">CardHostWindow.cpp</text>
</a>
</g>
<!-- Node1&#45;&gt;Node17 -->
<g id="edge32" class="edge"><title>Node1&#45;&gt;Node17</title>
<path fill="none" stroke="midnightblue" d="M2113.49,-126.658C1863.16,-124.958 874.907,-116.005 741,-80 721.03,-74.6303 719.438,-65.0585 700,-58 669.832,-47.0449 589.137,-31.4961 532.588,-21.3304"/>
<polygon fill="midnightblue" stroke="midnightblue" points="2113.8,-130.16 2123.82,-126.726 2113.84,-123.16 2113.8,-130.16"/>
</g>
<!-- Node18 -->
<g id="node35" class="node"><title>Node18</title>
<a xlink:href="CardWindow_8cpp.htm" target="_top" xlink:title="CardWindow.cpp">
<polygon fill="white" stroke="black" points="549.5,-0.5 549.5,-21.5 646.5,-21.5 646.5,-0.5 549.5,-0.5"/>
<text text-anchor="middle" x="598" y="-8.5" font-family="Helvetica,sans-Serif" font-size="10.00">CardWindow.cpp</text>
</a>
</g>
<!-- Node1&#45;&gt;Node18 -->
<g id="edge34" class="edge"><title>Node1&#45;&gt;Node18</title>
<path fill="none" stroke="midnightblue" d="M2113.42,-125.937C1871.39,-121.344 943.088,-102.413 814,-80 795.528,-76.7928 684.938,-40.1504 629.557,-21.6097"/>
<polygon fill="midnightblue" stroke="midnightblue" points="2113.69,-129.443 2123.75,-126.133 2113.82,-122.444 2113.69,-129.443"/>
</g>
<!-- Node19 -->
<g id="node37" class="node"><title>Node19</title>
<a xlink:href="CardWindowManager_8cpp.htm" target="_top" xlink:title="CardWindowManager.cpp">
<polygon fill="white" stroke="black" points="2600,-58.5 2600,-79.5 2740,-79.5 2740,-58.5 2600,-58.5"/>
<text text-anchor="middle" x="2670" y="-66.5" font-family="Helvetica,sans-Serif" font-size="10.00">CardWindowManager.cpp</text>
</a>
</g>
<!-- Node1&#45;&gt;Node19 -->
<g id="edge36" class="edge"><title>Node1&#45;&gt;Node19</title>
<path fill="none" stroke="midnightblue" d="M2228.27,-121.085C2309.17,-112.617 2461.49,-96.2594 2591,-80 2593.89,-79.6377 2596.83,-79.2609 2599.8,-78.8743"/>
<polygon fill="midnightblue" stroke="midnightblue" points="2227.87,-117.607 2218.29,-122.127 2228.6,-124.569 2227.87,-117.607"/>
</g>
<!-- Node20 -->
<g id="node39" class="node"><title>Node20</title>
<a xlink:href="EmulatedCardWindow_8cpp.htm" target="_top" xlink:title="EmulatedCardWindow.cpp">
<polygon fill="white" stroke="black" points="664,-0.5 664,-21.5 804,-21.5 804,-0.5 664,-0.5"/>
<text text-anchor="middle" x="734" y="-8.5" font-family="Helvetica,sans-Serif" font-size="10.00">EmulatedCardWindow.cpp</text>
</a>
</g>
<!-- Node1&#45;&gt;Node20 -->
<g id="edge38" class="edge"><title>Node1&#45;&gt;Node20</title>
<path fill="none" stroke="midnightblue" d="M2113.97,-126.33C1879.45,-123.383 996.043,-110.35 875,-80 826.624,-67.8703 775.36,-37.8232 750.056,-21.6732"/>
<polygon fill="midnightblue" stroke="midnightblue" points="2113.95,-129.83 2123.99,-126.454 2114.04,-122.83 2113.95,-129.83"/>
</g>
<!-- Node21 -->
<g id="node41" class="node"><title>Node21</title>
<a xlink:href="DockModeClock_8cpp.htm" target="_top" xlink:title="DockModeClock.cpp">
<polygon fill="white" stroke="black" points="2757.5,-58.5 2757.5,-79.5 2870.5,-79.5 2870.5,-58.5 2757.5,-58.5"/>
<text text-anchor="middle" x="2814" y="-66.5" font-family="Helvetica,sans-Serif" font-size="10.00">DockModeClock.cpp</text>
</a>
</g>
<!-- Node1&#45;&gt;Node21 -->
<g id="edge40" class="edge"><title>Node1&#45;&gt;Node21</title>
<path fill="none" stroke="midnightblue" d="M2228.64,-123.969C2332.8,-118.123 2559.21,-103.73 2749,-80 2751.73,-79.6592 2754.51,-79.2856 2757.32,-78.8884"/>
<polygon fill="midnightblue" stroke="midnightblue" points="2228.13,-120.492 2218.34,-124.541 2228.52,-127.481 2228.13,-120.492"/>
</g>
<!-- Node22 -->
<g id="node43" class="node"><title>Node22</title>
<a xlink:href="DockModeLaunchPoint_8cpp.htm" target="_top" xlink:title="DockModeLaunchPoint.cpp">
<polygon fill="white" stroke="black" points="2888,-58.5 2888,-79.5 3034,-79.5 3034,-58.5 2888,-58.5"/>
<text text-anchor="middle" x="2961" y="-66.5" font-family="Helvetica,sans-Serif" font-size="10.00">DockModeLaunchPoint.cpp</text>
</a>
</g>
<!-- Node1&#45;&gt;Node22 -->
<g id="edge42" class="edge"><title>Node1&#45;&gt;Node22</title>
<path fill="none" stroke="midnightblue" d="M2228.44,-124.495C2349.12,-118.944 2637.82,-104.155 2879,-80 2881.86,-79.7137 2884.77,-79.405 2887.71,-79.0792"/>
<polygon fill="midnightblue" stroke="midnightblue" points="2228.15,-121.005 2218.32,-124.957 2228.47,-127.997 2228.15,-121.005"/>
</g>
<!-- Node23 -->
<g id="node45" class="node"><title>Node23</title>
<a xlink:href="DockModeMenuManager_8cpp.htm" target="_top" xlink:title="DockModeMenuManager.cpp">
<polygon fill="white" stroke="black" points="822,-0.5 822,-21.5 978,-21.5 978,-0.5 822,-0.5"/>
<text text-anchor="middle" x="900" y="-8.5" font-family="Helvetica,sans-Serif" font-size="10.00">DockModeMenuManager.cpp</text>
</a>
</g>
<!-- Node1&#45;&gt;Node23 -->
<g id="edge44" class="edge"><title>Node1&#45;&gt;Node23</title>
<path fill="none" stroke="midnightblue" d="M2113.68,-125.978C1867.03,-121.447 907.6,-102.404 886,-80 870.814,-64.2486 883.709,-36.7899 892.841,-21.6969"/>
<polygon fill="midnightblue" stroke="midnightblue" points="2113.8,-129.48 2123.86,-126.164 2113.93,-122.482 2113.8,-129.48"/>
</g>
<!-- Node24 -->
<g id="node47" class="node"><title>Node24</title>
<a xlink:href="DockModeWindow_8cpp.htm" target="_top" xlink:title="DockModeWindow.cpp">
<polygon fill="white" stroke="black" points="995.5,-0.5 995.5,-21.5 1120.5,-21.5 1120.5,-0.5 995.5,-0.5"/>
<text text-anchor="middle" x="1058" y="-8.5" font-family="Helvetica,sans-Serif" font-size="10.00">DockModeWindow.cpp</text>
</a>
</g>
<!-- Node1&#45;&gt;Node24 -->
<g id="edge46" class="edge"><title>Node1&#45;&gt;Node24</title>
<path fill="none" stroke="midnightblue" d="M2113.67,-125.963C1868.1,-121.386 916.434,-102.238 895,-80 888.215,-72.96 889.121,-65.8132 895,-58 907.351,-41.585 954.642,-29.1036 995.127,-21.1431"/>
<polygon fill="midnightblue" stroke="midnightblue" points="2113.75,-129.465 2123.81,-126.151 2113.88,-122.466 2113.75,-129.465"/>
</g>
<!-- Node25 -->
<g id="node49" class="node"><title>Node25</title>
<a xlink:href="DockModeWindowManager_8cpp.htm" target="_top" xlink:title="DockModeWindowManager.cpp">
<polygon fill="white" stroke="black" points="2009.5,-0.5 2009.5,-21.5 2176.5,-21.5 2176.5,-0.5 2009.5,-0.5"/>
<text text-anchor="middle" x="2093" y="-8.5" font-family="Helvetica,sans-Serif" font-size="10.00">DockModeWindowManager.cpp</text>
</a>
</g>
<!-- Node1&#45;&gt;Node25 -->
<g id="edge48" class="edge"><title>Node1&#45;&gt;Node25</title>
<path fill="none" stroke="midnightblue" d="M2113.72,-126.721C1893.04,-125.368 1108.31,-117.901 1072,-80 1065.24,-72.9399 1065.22,-65.0465 1072,-58 1107.81,-20.7777 1949.51,-26.0692 2001,-22 2003.73,-21.7846 2006.5,-21.5492 2009.29,-21.2976"/>
<polygon fill="midnightblue" stroke="midnightblue" points="2113.78,-130.221 2123.8,-126.781 2113.82,-123.221 2113.78,-130.221"/>
</g>
<!-- Node26 -->
<g id="node51" class="node"><title>Node26</title>
<a xlink:href="EmergencyWindowManager_8cpp.htm" target="_top" xlink:title="EmergencyWindowManager.cpp">
<polygon fill="white" stroke="black" points="3052,-58.5 3052,-79.5 3222,-79.5 3222,-58.5 3052,-58.5"/>
<text text-anchor="middle" x="3137" y="-66.5" font-family="Helvetica,sans-Serif" font-size="10.00">EmergencyWindowManager.cpp</text>
</a>
</g>
<!-- Node1&#45;&gt;Node26 -->
<g id="edge50" class="edge"><title>Node1&#45;&gt;Node26</title>
<path fill="none" stroke="midnightblue" d="M2228.38,-125.152C2368,-120.383 2736.47,-106.17 3043,-80 3045.95,-79.7484 3048.94,-79.4778 3051.97,-79.1921"/>
<polygon fill="midnightblue" stroke="midnightblue" points="2228.21,-121.655 2218.33,-125.492 2228.45,-128.651 2228.21,-121.655"/>
</g>
<!-- Node27 -->
<g id="node53" class="node"><title>Node27</title>
<a xlink:href="WindowServerLuna_8h.htm" target="_top" xlink:title="WindowServerLuna.h">
<polygon fill="white" stroke="red" points="903.5,-58.5 903.5,-79.5 1020.5,-79.5 1020.5,-58.5 903.5,-58.5"/>
<text text-anchor="middle" x="962" y="-66.5" font-family="Helvetica,sans-Serif" font-size="10.00">WindowServerLuna.h</text>
</a>
</g>
<!-- Node1&#45;&gt;Node27 -->
<g id="edge52" class="edge"><title>Node1&#45;&gt;Node27</title>
<path fill="none" stroke="midnightblue" d="M2113.69,-125.469C1913.65,-119.993 1246.99,-100.609 1034,-80 1029.72,-79.5859 1025.31,-79.0878 1020.87,-78.5353"/>
<polygon fill="midnightblue" stroke="midnightblue" points="2113.89,-128.975 2123.98,-125.749 2114.08,-121.978 2113.89,-128.975"/>
</g>
<!-- Node32 -->
<g id="node72" class="node"><title>Node32</title>
<a xlink:href="dimensionsglobal_8cpp.htm" target="_top" xlink:title="dimensionsglobal.cpp">
<polygon fill="white" stroke="black" points="2193.5,-0.5 2193.5,-21.5 2310.5,-21.5 2310.5,-0.5 2193.5,-0.5"/>
<text text-anchor="middle" x="2252" y="-8.5" font-family="Helvetica,sans-Serif" font-size="10.00">dimensionsglobal.cpp</text>
</a>
</g>
<!-- Node1&#45;&gt;Node32 -->
<g id="edge86" class="edge"><title>Node1&#45;&gt;Node32</title>
<path fill="none" stroke="midnightblue" d="M2113.58,-126.628C1897.66,-124.951 1144.92,-116.499 1110,-80 1103.24,-72.9347 1103.2,-65.0287 1110,-58 1151.54,-15.0451 2125.53,-27.8527 2185,-22 2187.7,-21.7345 2190.45,-21.4278 2193.23,-21.0897"/>
<polygon fill="midnightblue" stroke="midnightblue" points="2113.72,-130.129 2123.75,-126.705 2113.78,-123.129 2113.72,-130.129"/>
</g>
<!-- Node34 -->
<g id="node76" class="node"><title>Node34</title>
<a xlink:href="DashboardWindowManager_8cpp.htm" target="_top" xlink:title="DashboardWindowManager.cpp">
<polygon fill="white" stroke="black" points="2328,-0.5 2328,-21.5 2496,-21.5 2496,-0.5 2328,-0.5"/>
<text text-anchor="middle" x="2412" y="-8.5" font-family="Helvetica,sans-Serif" font-size="10.00">DashboardWindowManager.cpp</text>
</a>
</g>
<!-- Node1&#45;&gt;Node34 -->
<g id="edge100" class="edge"><title>Node1&#45;&gt;Node34</title>
<path fill="none" stroke="midnightblue" d="M2113.63,-126.543C1902.16,-124.581 1176.72,-115.293 1143,-80 1136.25,-72.9299 1136.19,-65.0189 1143,-58 1188.51,-11.0789 2253.82,-26.8434 2319,-22 2321.92,-21.7831 2324.89,-21.5424 2327.88,-21.2822"/>
<polygon fill="midnightblue" stroke="midnightblue" points="2113.87,-130.045 2123.9,-126.636 2113.93,-123.045 2113.87,-130.045"/>
</g>
<!-- Node35 -->
<g id="node79" class="node"><title>Node35</title>
<a xlink:href="dimensionslauncher_8cpp.htm" target="_top" xlink:title="dimensionslauncher.cpp">
<polygon fill="white" stroke="black" points="3240,-58.5 3240,-79.5 3370,-79.5 3370,-58.5 3240,-58.5"/>
<text text-anchor="middle" x="3305" y="-66.5" font-family="Helvetica,sans-Serif" font-size="10.00">dimensionslauncher.cpp</text>
</a>
</g>
<!-- Node1&#45;&gt;Node35 -->
<g id="edge88" class="edge"><title>Node1&#45;&gt;Node35</title>
<path fill="none" stroke="midnightblue" d="M2228.19,-126.538C2387.42,-124.805 2849.28,-116.735 3231,-80 3233.84,-79.7263 3236.75,-79.4184 3239.67,-79.0842"/>
<polygon fill="midnightblue" stroke="midnightblue" points="2228.1,-123.039 2218.14,-126.643 2228.18,-130.038 2228.1,-123.039"/>
</g>
<!-- Node36 -->
<g id="node81" class="node"><title>Node36</title>
<a xlink:href="OverlayWindowManager_8cpp.htm" target="_top" xlink:title="OverlayWindowManager.cpp">
<polygon fill="white" stroke="black" points="3387.5,-58.5 3387.5,-79.5 3540.5,-79.5 3540.5,-58.5 3387.5,-58.5"/>
<text text-anchor="middle" x="3464" y="-66.5" font-family="Helvetica,sans-Serif" font-size="10.00">OverlayWindowManager.cpp</text>
</a>
</g>
<!-- Node1&#45;&gt;Node36 -->
<g id="edge90" class="edge"><title>Node1&#45;&gt;Node36</title>
<path fill="none" stroke="midnightblue" d="M2228.19,-126.597C2401.66,-124.982 2937.06,-117.118 3379,-80 3381.67,-79.7758 3384.38,-79.5288 3387.12,-79.2632"/>
<polygon fill="midnightblue" stroke="midnightblue" points="2227.98,-123.098 2218.01,-126.688 2228.04,-130.098 2227.98,-123.098"/>
</g>
<!-- Node37 -->
<g id="node83" class="node"><title>Node37</title>
<a xlink:href="TopLevelWindowManager_8cpp.htm" target="_top" xlink:title="TopLevelWindowManager.cpp">
<polygon fill="white" stroke="black" points="3557.5,-58.5 3557.5,-79.5 3718.5,-79.5 3718.5,-58.5 3557.5,-58.5"/>
<text text-anchor="middle" x="3638" y="-66.5" font-family="Helvetica,sans-Serif" font-size="10.00">TopLevelWindowManager.cpp</text>
</a>
</g>
<!-- Node1&#45;&gt;Node37 -->
<g id="edge92" class="edge"><title>Node1&#45;&gt;Node37</title>
<path fill="none" stroke="midnightblue" d="M2228.35,-125.725C2454.64,-120.589 3286.05,-100.693 3549,-80 3551.64,-79.7924 3554.32,-79.5638 3557.02,-79.318"/>
<polygon fill="midnightblue" stroke="midnightblue" points="2227.95,-122.233 2218.03,-125.958 2228.11,-129.231 2227.95,-122.233"/>
</g>
<!-- Node38 -->
<g id="node85" class="node"><title>Node38</title>
<a xlink:href="AlertWindow_8cpp.htm" target="_top" xlink:title="AlertWindow.cpp">
<polygon fill="white" stroke="black" points="3735.5,-58.5 3735.5,-79.5 3830.5,-79.5 3830.5,-58.5 3735.5,-58.5"/>
<text text-anchor="middle" x="3783" y="-66.5" font-family="Helvetica,sans-Serif" font-size="10.00">AlertWindow.cpp</text>
</a>
</g>
<!-- Node1&#45;&gt;Node38 -->
<g id="edge94" class="edge"><title>Node1&#45;&gt;Node38</title>
<path fill="none" stroke="midnightblue" d="M2228.44,-126.525C2472.93,-124.31 3428.15,-113.636 3727,-80 3729.76,-79.6897 3732.58,-79.3157 3735.42,-78.8957"/>
<polygon fill="midnightblue" stroke="midnightblue" points="2228.31,-123.026 2218.35,-126.616 2228.38,-130.026 2228.31,-123.026"/>
</g>
<!-- Node39 -->
<g id="node87" class="node"><title>Node39</title>
<a xlink:href="BannerMessageHandler_8cpp.htm" target="_top" xlink:title="BannerMessageHandler.cpp">
<polygon fill="white" stroke="black" points="3848,-58.5 3848,-79.5 4000,-79.5 4000,-58.5 3848,-58.5"/>
<text text-anchor="middle" x="3924" y="-66.5" font-family="Helvetica,sans-Serif" font-size="10.00">BannerMessageHandler.cpp</text>
</a>
</g>
<!-- Node1&#45;&gt;Node39 -->
<g id="edge96" class="edge"><title>Node1&#45;&gt;Node39</title>
<path fill="none" stroke="midnightblue" d="M2228.28,-126.16C2483.17,-122.306 3515.86,-105.397 3839,-80 3841.82,-79.7785 3844.69,-79.5293 3847.58,-79.2576"/>
<polygon fill="midnightblue" stroke="midnightblue" points="2228.08,-122.663 2218.14,-126.313 2228.19,-129.662 2228.08,-122.663"/>
</g>
<!-- Node40 -->
<g id="node89" class="node"><title>Node40</title>
<a xlink:href="BannerWindow_8cpp.htm" target="_top" xlink:title="BannerWindow.cpp">
<polygon fill="white" stroke="black" points="4018,-58.5 4018,-79.5 4126,-79.5 4126,-58.5 4018,-58.5"/>
<text text-anchor="middle" x="4072" y="-66.5" font-family="Helvetica,sans-Serif" font-size="10.00">BannerWindow.cpp</text>
</a>
</g>
<!-- Node1&#45;&gt;Node40 -->
<g id="edge98" class="edge"><title>Node1&#45;&gt;Node40</title>
<path fill="none" stroke="midnightblue" d="M2228.33,-126.672C2499.05,-124.95 3651.1,-115.625 4009,-80 4011.87,-79.7141 4014.81,-79.3727 4017.77,-78.9902"/>
<polygon fill="midnightblue" stroke="midnightblue" points="2228.31,-123.172 2218.33,-126.735 2228.35,-130.172 2228.31,-123.172"/>
</g>
<!-- Node41 -->
<g id="node92" class="node"><title>Node41</title>
<a xlink:href="NativeAlertManager_8cpp.htm" target="_top" xlink:title="NativeAlertManager.cpp">
<polygon fill="white" stroke="black" points="4143.5,-58.5 4143.5,-79.5 4274.5,-79.5 4274.5,-58.5 4143.5,-58.5"/>
<text text-anchor="middle" x="4209" y="-66.5" font-family="Helvetica,sans-Serif" font-size="10.00">NativeAlertManager.cpp</text>
</a>
</g>
<!-- Node1&#45;&gt;Node41 -->
<g id="edge102" class="edge"><title>Node1&#45;&gt;Node41</title>
<path fill="none" stroke="midnightblue" d="M2228.5,-126.585C2510.62,-124.4 3750.43,-113.057 4135,-80 4137.72,-79.7664 4140.49,-79.4971 4143.28,-79.1996"/>
<polygon fill="midnightblue" stroke="midnightblue" points="2228.06,-123.088 2218.09,-126.664 2228.12,-130.088 2228.06,-123.088"/>
</g>
<!-- Node42 -->
<g id="node94" class="node"><title>Node42</title>
<a xlink:href="VolumeControlAlertWindow_8cpp.htm" target="_top" xlink:title="VolumeControlAlertWindow.cpp">
<polygon fill="white" stroke="black" points="4292,-58.5 4292,-79.5 4456,-79.5 4456,-58.5 4292,-58.5"/>
<text text-anchor="middle" x="4374" y="-66.5" font-family="Helvetica,sans-Serif" font-size="10.00">VolumeControlAlertWindow.cpp</text>
</a>
</g>
<!-- Node1&#45;&gt;Node42 -->
<g id="edge104" class="edge"><title>Node1&#45;&gt;Node42</title>
<path fill="none" stroke="midnightblue" d="M2228.03,-126.489C2521.81,-123.739 3866.78,-109.716 4283,-80 4285.86,-79.796 4288.76,-79.5663 4291.69,-79.3156"/>
<polygon fill="midnightblue" stroke="midnightblue" points="2227.99,-122.989 2218.02,-126.582 2228.05,-129.988 2227.99,-122.989"/>
</g>
<!-- Node43 -->
<g id="node96" class="node"><title>Node43</title>
<a xlink:href="MenuWindowManager_8cpp.htm" target="_top" xlink:title="MenuWindowManager.cpp">
<polygon fill="white" stroke="black" points="4473.5,-58.5 4473.5,-79.5 4616.5,-79.5 4616.5,-58.5 4473.5,-58.5"/>
<text text-anchor="middle" x="4545" y="-66.5" font-family="Helvetica,sans-Serif" font-size="10.00">MenuWindowManager.cpp</text>
</a>
</g>
<!-- Node1&#45;&gt;Node43 -->
<g id="edge106" class="edge"><title>Node1&#45;&gt;Node43</title>
<path fill="none" stroke="midnightblue" d="M2228.4,-126.729C2537.93,-125.131 4010.99,-115.743 4465,-80 4467.66,-79.7909 4470.36,-79.5523 4473.08,-79.2897"/>
<polygon fill="midnightblue" stroke="midnightblue" points="2228.29,-123.23 2218.3,-126.781 2228.32,-130.23 2228.29,-123.23"/>
</g>
<!-- Node44 -->
<g id="node98" class="node"><title>Node44</title>
<a xlink:href="SystemMenu_8cpp.htm" target="_top" xlink:title="SystemMenu.cpp">
<polygon fill="white" stroke="black" points="4633.5,-58.5 4633.5,-79.5 4730.5,-79.5 4730.5,-58.5 4633.5,-58.5"/>
<text text-anchor="middle" x="4682" y="-66.5" font-family="Helvetica,sans-Serif" font-size="10.00">SystemMenu.cpp</text>
</a>
</g>
<!-- Node1&#45;&gt;Node44 -->
<g id="edge108" class="edge"><title>Node1&#45;&gt;Node44</title>
<path fill="none" stroke="midnightblue" d="M2228.07,-126.494C2573.66,-123.354 4379.9,-105.804 4625,-80 4627.71,-79.7151 4630.48,-79.3679 4633.26,-78.9748"/>
<polygon fill="midnightblue" stroke="midnightblue" points="2228,-122.995 2218.03,-126.585 2228.07,-129.994 2228,-122.995"/>
</g>
<!-- Node45 -->
<g id="node100" class="node"><title>Node45</title>
<a xlink:href="Main_8cpp.htm" target="_top" xlink:title="Main.cpp">
<polygon fill="white" stroke="black" points="4747.5,-58.5 4747.5,-79.5 4806.5,-79.5 4806.5,-58.5 4747.5,-58.5"/>
<text text-anchor="middle" x="4777" y="-66.5" font-family="Helvetica,sans-Serif" font-size="10.00">Main.cpp</text>
</a>
</g>
<!-- Node1&#45;&gt;Node45 -->
<g id="edge110" class="edge"><title>Node1&#45;&gt;Node45</title>
<path fill="none" stroke="midnightblue" d="M2228.19,-126.856C2583.61,-125.843 4483.39,-118.641 4739,-80 4741.72,-79.5894 4744.51,-79.0385 4747.29,-78.4012"/>
<polygon fill="midnightblue" stroke="midnightblue" points="2228.12,-123.356 2218.13,-126.884 2228.14,-130.356 2228.12,-123.356"/>
</g>
<!-- Node46 -->
<g id="node102" class="node"><title>Node46</title>
<a xlink:href="WindowManagerMinimal_8cpp.htm" target="_top" xlink:title="WindowManagerMinimal.cpp">
<polygon fill="white" stroke="black" points="4824,-58.5 4824,-79.5 4976,-79.5 4976,-58.5 4824,-58.5"/>
<text text-anchor="middle" x="4900" y="-66.5" font-family="Helvetica,sans-Serif" font-size="10.00">WindowManagerMinimal.cpp</text>
</a>
</g>
<!-- Node1&#45;&gt;Node46 -->
<g id="edge112" class="edge"><title>Node1&#45;&gt;Node46</title>
<path fill="none" stroke="midnightblue" d="M2228.28,-126.848C2564.72,-125.823 4287.05,-118.734 4815,-80 4817.82,-79.7931 4820.69,-79.5564 4823.58,-79.2953"/>
<polygon fill="midnightblue" stroke="midnightblue" points="2228.26,-123.348 2218.27,-126.878 2228.28,-130.348 2228.26,-123.348"/>
</g>
<!-- Node47 -->
<g id="node104" class="node"><title>Node47</title>
<a xlink:href="WindowServerMinimal_8h.htm" target="_top" xlink:title="WindowServerMinimal.h">
<polygon fill="white" stroke="red" points="490,-58.5 490,-79.5 620,-79.5 620,-58.5 490,-58.5"/>
<text text-anchor="middle" x="555" y="-66.5" font-family="Helvetica,sans-Serif" font-size="10.00">WindowServerMinimal.h</text>
</a>
</g>
<!-- Node1&#45;&gt;Node47 -->
<g id="edge114" class="edge"><title>Node1&#45;&gt;Node47</title>
<path fill="none" stroke="midnightblue" d="M2113.54,-126.073C1870.99,-122.034 929.7,-105.034 634,-80 629.447,-79.6145 624.754,-79.1456 620.035,-78.6212"/>
<polygon fill="midnightblue" stroke="midnightblue" points="2113.84,-129.579 2123.89,-126.245 2113.95,-122.58 2113.84,-129.579"/>
</g>
<!-- Node48 -->
<g id="node107" class="node"><title>Node48</title>
<a xlink:href="IpcClientHost_8cpp.htm" target="_top" xlink:title="IpcClientHost.cpp">
<polygon fill="white" stroke="black" points="4993.5,-58.5 4993.5,-79.5 5092.5,-79.5 5092.5,-58.5 4993.5,-58.5"/>
<text text-anchor="middle" x="5043" y="-66.5" font-family="Helvetica,sans-Serif" font-size="10.00">IpcClientHost.cpp</text>
</a>
</g>
<!-- Node1&#45;&gt;Node48 -->
<g id="edge118" class="edge"><title>Node1&#45;&gt;Node48</title>
<path fill="none" stroke="midnightblue" d="M2228.18,-126.632C2602.95,-124.146 4701.86,-109 4985,-80 4987.75,-79.7181 4990.57,-79.3732 4993.41,-78.9819"/>
<polygon fill="midnightblue" stroke="midnightblue" points="2228.08,-123.133 2218.11,-126.699 2228.13,-130.133 2228.08,-123.133"/>
</g>
<!-- Node49 -->
<g id="node109" class="node"><title>Node49</title>
<a xlink:href="IpcServer_8cpp.htm" target="_top" xlink:title="IpcServer.cpp">
<polygon fill="white" stroke="black" points="5110,-58.5 5110,-79.5 5192,-79.5 5192,-58.5 5110,-58.5"/>
<text text-anchor="middle" x="5151" y="-66.5" font-family="Helvetica,sans-Serif" font-size="10.00">IpcServer.cpp</text>
</a>
</g>
<!-- Node1&#45;&gt;Node49 -->
<g id="edge120" class="edge"><title>Node1&#45;&gt;Node49</title>
<path fill="none" stroke="midnightblue" d="M2228.1,-126.773C2611.62,-125.158 4806.03,-114.459 5101,-80 5103.91,-79.6597 5106.91,-79.2243 5109.91,-78.724"/>
<polygon fill="midnightblue" stroke="midnightblue" points="2228.05,-123.273 2218.07,-126.815 2228.08,-130.273 2228.05,-123.273"/>
</g>
<!-- Node50 -->
<g id="node111" class="node"><title>Node50</title>
<a xlink:href="WebAppMgrProxy_8cpp.htm" target="_top" xlink:title="WebAppMgrProxy.cpp">
<polygon fill="white" stroke="black" points="5210,-58.5 5210,-79.5 5332,-79.5 5332,-58.5 5210,-58.5"/>
<text text-anchor="middle" x="5271" y="-66.5" font-family="Helvetica,sans-Serif" font-size="10.00">WebAppMgrProxy.cpp</text>
</a>
</g>
<!-- Node1&#45;&gt;Node50 -->
<g id="edge122" class="edge"><title>Node1&#45;&gt;Node50</title>
<path fill="none" stroke="midnightblue" d="M2228.46,-126.595C2620.47,-123.767 4894.61,-106.319 5201,-80 5203.94,-79.7473 5206.95,-79.4453 5209.98,-79.1055"/>
<polygon fill="midnightblue" stroke="midnightblue" points="2228.19,-123.097 2218.21,-126.669 2228.24,-130.097 2228.19,-123.097"/>
</g>
<!-- Node27&#45;&gt;Node3 -->
<g id="edge54" class="edge"><title>Node27&#45;&gt;Node3</title>
<path fill="none" stroke="midnightblue" d="M892.981,-66.2204C767.1,-60.74 491.902,-46.8614 261,-22 258.288,-21.708 255.523,-21.3899 252.732,-21.0519"/>
<polygon fill="midnightblue" stroke="midnightblue" points="893.097,-69.7286 903.239,-66.6627 893.399,-62.7351 893.097,-69.7286"/>
</g>
<!-- Node27&#45;&gt;Node10 -->
<g id="edge58" class="edge"><title>Node27&#45;&gt;Node10</title>
<path fill="none" stroke="midnightblue" d="M893.148,-64.6897C787.793,-57.7558 580.34,-42.7677 405,-22 402.237,-21.6728 399.418,-21.3206 396.572,-20.9501"/>
<polygon fill="midnightblue" stroke="midnightblue" points="893.121,-68.1953 903.328,-65.3555 893.578,-61.2102 893.121,-68.1953"/>
</g>
<!-- Node27&#45;&gt;Node14 -->
<g id="edge60" class="edge"><title>Node27&#45;&gt;Node14</title>
<path fill="none" stroke="midnightblue" d="M893.274,-66.2898C719.108,-59.2456 263.579,-39.6767 113,-22 110.221,-21.6738 107.378,-21.3004 104.511,-20.8927"/>
<polygon fill="midnightblue" stroke="midnightblue" points="893.21,-69.79 903.343,-66.6958 893.492,-62.7957 893.21,-69.79"/>
</g>
<!-- Node27&#45;&gt;Node17 -->
<g id="edge62" class="edge"><title>Node27&#45;&gt;Node17</title>
<path fill="none" stroke="midnightblue" d="M893.198,-62.3682C809.732,-54.0809 664.811,-38.9148 541,-22 538.275,-21.6277 535.49,-21.2335 532.679,-20.8243"/>
<polygon fill="midnightblue" stroke="midnightblue" points="893.02,-65.8675 903.316,-63.3689 893.709,-58.9015 893.02,-65.8675"/>
</g>
<!-- Node27&#45;&gt;Node18 -->
<g id="edge64" class="edge"><title>Node27&#45;&gt;Node18</title>
<path fill="none" stroke="midnightblue" d="M893.222,-59.2482C830.922,-50.23 736.659,-36.1246 655,-22 652.319,-21.5362 649.569,-21.0479 646.795,-20.5454"/>
<polygon fill="midnightblue" stroke="midnightblue" points="892.925,-62.7414 903.322,-60.7062 893.925,-55.8133 892.925,-62.7414"/>
</g>
<!-- Node27&#45;&gt;Node20 -->
<g id="edge66" class="edge"><title>Node27&#45;&gt;Node20</title>
<path fill="none" stroke="midnightblue" d="M910.939,-56.0107C870.057,-45.6109 813.447,-31.2102 775.367,-21.5231"/>
<polygon fill="midnightblue" stroke="midnightblue" points="910.157,-59.4232 920.711,-58.4966 911.882,-52.6393 910.157,-59.4232"/>
</g>
<!-- Node27&#45;&gt;Node23 -->
<g id="edge70" class="edge"><title>Node27&#45;&gt;Node23</title>
<path fill="none" stroke="midnightblue" d="M943.192,-51.405C932.783,-41.6683 920.194,-29.8914 911.3,-21.5707"/>
<polygon fill="midnightblue" stroke="midnightblue" points="940.934,-54.0863 950.628,-58.3619 945.717,-48.9743 940.934,-54.0863"/>
</g>
<!-- Node27&#45;&gt;Node24 -->
<g id="edge74" class="edge"><title>Node27&#45;&gt;Node24</title>
<path fill="none" stroke="midnightblue" d="M988.316,-53.1009C1004.93,-43.0658 1025.92,-30.3808 1040.5,-21.5707"/>
<polygon fill="midnightblue" stroke="midnightblue" points="986.357,-50.195 979.608,-58.3619 989.977,-56.1864 986.357,-50.195"/>
</g>
<!-- Node27&#45;&gt;Node25 -->
<g id="edge76" class="edge"><title>Node27&#45;&gt;Node25</title>
<path fill="none" stroke="midnightblue" d="M1031.17,-58.2781C1032.12,-58.1814 1033.06,-58.0887 1034,-58 1462.16,-17.4575 1572.24,-55.5573 2001,-22 2003.73,-21.7866 2006.5,-21.5531 2009.29,-21.303"/>
<polygon fill="midnightblue" stroke="midnightblue" points="1030.41,-54.8416 1020.87,-59.4449 1031.2,-61.7972 1030.41,-54.8416"/>
</g>
<!-- Node28 -->
<g id="node56" class="node"><title>Node28</title>
<a xlink:href="ApplicationManagerService_8cpp.htm" target="_top" xlink:title="ApplicationManagerService.cpp">
<polygon fill="white" stroke="black" points="1446,-0.5 1446,-21.5 1612,-21.5 1612,-0.5 1446,-0.5"/>
<text text-anchor="middle" x="1529" y="-8.5" font-family="Helvetica,sans-Serif" font-size="10.00">ApplicationManagerService.cpp</text>
</a>
</g>
<!-- Node27&#45;&gt;Node28 -->
<g id="edge56" class="edge"><title>Node27&#45;&gt;Node28</title>
<path fill="none" stroke="midnightblue" d="M1030.68,-58.4094C1031.79,-58.2694 1032.9,-58.1328 1034,-58 1212.52,-36.4104 1258.15,-40.6764 1437,-22 1439.88,-21.6993 1442.81,-21.3865 1445.77,-21.0647"/>
<polygon fill="midnightblue" stroke="midnightblue" points="1029.96,-54.9732 1020.51,-59.7486 1030.88,-61.9133 1029.96,-54.9732"/>
</g>
<!-- Node29 -->
<g id="node63" class="node"><title>Node29</title>
<a xlink:href="DockModeAppMenuContainer_8cpp.htm" target="_top" xlink:title="DockModeAppMenuContainer.cpp">
<polygon fill="white" stroke="black" points="1629.5,-0.5 1629.5,-21.5 1808.5,-21.5 1808.5,-0.5 1629.5,-0.5"/>
<text text-anchor="middle" x="1719" y="-8.5" font-family="Helvetica,sans-Serif" font-size="10.00">DockModeAppMenuContainer.cpp</text>
</a>
</g>
<!-- Node27&#45;&gt;Node29 -->
<g id="edge68" class="edge"><title>Node27&#45;&gt;Node29</title>
<path fill="none" stroke="midnightblue" d="M1031.18,-58.3099C1032.12,-58.2033 1033.06,-58.0999 1034,-58 1293.9,-30.2342 1360.6,-44.5849 1621,-22 1623.73,-21.7633 1626.5,-21.5132 1629.3,-21.2524"/>
<polygon fill="midnightblue" stroke="midnightblue" points="1030.39,-54.8799 1020.88,-59.5609 1031.23,-61.8288 1030.39,-54.8799"/>
</g>
<!-- Node30 -->
<g id="node66" class="node"><title>Node30</title>
<a xlink:href="DockModePositionManager_8cpp.htm" target="_top" xlink:title="DockModePositionManager.cpp">
<polygon fill="white" stroke="black" points="1825.5,-0.5 1825.5,-21.5 1992.5,-21.5 1992.5,-0.5 1825.5,-0.5"/>
<text text-anchor="middle" x="1909" y="-8.5" font-family="Helvetica,sans-Serif" font-size="10.00">DockModePositionManager.cpp</text>
</a>
</g>
<!-- Node27&#45;&gt;Node30 -->
<g id="edge72" class="edge"><title>Node27&#45;&gt;Node30</title>
<path fill="none" stroke="midnightblue" d="M1031.17,-58.2896C1032.12,-58.1894 1033.06,-58.0927 1034,-58 1380.67,-23.6459 1469.82,-50.6982 1817,-22 1819.73,-21.7747 1822.49,-21.5309 1825.29,-21.2719"/>
<polygon fill="midnightblue" stroke="midnightblue" points="1030.4,-54.8555 1020.88,-59.4871 1031.21,-61.8087 1030.4,-54.8555"/>
</g>
<!-- Node31 -->
<g id="node70" class="node"><title>Node31</title>
<a xlink:href="FullEraseConfirmationWindow_8cpp.htm" target="_top" xlink:title="FullEraseConfirmationWindow.cpp">
<polygon fill="white" stroke="black" points="1137.5,-0.5 1137.5,-21.5 1314.5,-21.5 1314.5,-0.5 1137.5,-0.5"/>
<text text-anchor="middle" x="1226" y="-8.5" font-family="Helvetica,sans-Serif" font-size="10.00">FullEraseConfirmationWindow.cpp</text>
</a>
</g>
<!-- Node27&#45;&gt;Node31 -->
<g id="edge78" class="edge"><title>Node27&#45;&gt;Node31</title>
<path fill="none" stroke="midnightblue" d="M1019.63,-56.3391C1067.07,-45.9159 1133.54,-31.3126 1178.1,-21.5231"/>
<polygon fill="midnightblue" stroke="midnightblue" points="1018.82,-52.9323 1009.81,-58.4966 1020.33,-59.7692 1018.82,-52.9323"/>
</g>
<!-- Node27&#45;&gt;Node32 -->
<g id="edge80" class="edge"><title>Node27&#45;&gt;Node32</title>
<path fill="none" stroke="midnightblue" d="M1030.99,-61.3831C1044.57,-60.0865 1058.72,-58.8776 1072,-58 1565.85,-25.358 1692.43,-70.1939 2185,-22 2187.7,-21.736 2190.45,-21.4306 2193.23,-21.0935"/>
<polygon fill="midnightblue" stroke="midnightblue" points="1030.35,-57.9289 1020.74,-62.3876 1031.03,-64.8955 1030.35,-57.9289"/>
</g>
<!-- Node33 -->
<g id="node74" class="node"><title>Node33</title>
<a xlink:href="LockWindow_8cpp.htm" target="_top" xlink:title="LockWindow.cpp">
<polygon fill="white" stroke="black" points="1332,-0.5 1332,-21.5 1428,-21.5 1428,-0.5 1332,-0.5"/>
<text text-anchor="middle" x="1380" y="-8.5" font-family="Helvetica,sans-Serif" font-size="10.00">LockWindow.cpp</text>
</a>
</g>
<!-- Node27&#45;&gt;Node33 -->
<g id="edge82" class="edge"><title>Node27&#45;&gt;Node33</title>
<path fill="none" stroke="midnightblue" d="M1030.69,-58.4629C1031.8,-58.3064 1032.9,-58.1519 1034,-58 1162.21,-40.2241 1195.16,-42.2746 1323,-22 1325.89,-21.5422 1328.85,-21.0469 1331.84,-20.5286"/>
<polygon fill="midnightblue" stroke="midnightblue" points="1029.93,-55.0353 1020.53,-59.9195 1030.92,-61.9644 1029.93,-55.0353"/>
</g>
<!-- Node27&#45;&gt;Node34 -->
<g id="edge84" class="edge"><title>Node27&#45;&gt;Node34</title>
<path fill="none" stroke="midnightblue" d="M1030.76,-63.2516C1055.7,-61.335 1084.11,-59.3471 1110,-58 1646.85,-30.0707 1782.89,-61.6101 2319,-22 2321.92,-21.7844 2324.89,-21.5447 2327.88,-21.2854"/>
<polygon fill="midnightblue" stroke="midnightblue" points="1030.36,-59.772 1020.66,-64.0379 1030.9,-66.7508 1030.36,-59.772"/>
</g>
<!-- Node47&#45;&gt;Node14 -->
<g id="edge116" class="edge"><title>Node47&#45;&gt;Node14</title>
<path fill="none" stroke="midnightblue" d="M479.86,-58.4661C478.564,-58.3076 477.276,-58.1521 476,-58 315.014,-38.8169 273.569,-44.4035 113,-22 110.229,-21.6134 107.392,-21.1918 104.53,-20.7464"/>
<polygon fill="midnightblue" stroke="midnightblue" points="479.571,-61.9572 489.929,-59.7321 480.444,-55.0118 479.571,-61.9572"/>
</g>
</g>
</svg>
